<?xml version="1.0" encoding="UTF-8" standalone="no"?>
<!DOCTYPE svg PUBLIC "-//W3C//DTD SVG 1.1//EN"
 "http://www.w3.org/Graphics/SVG/1.1/DTD/svg11.dtd">
<!-- Generated by graphviz version 2.43.0 (0)
 -->
<!-- Pages: 1 -->
<svg width="1692pt" height="410pt"
 viewBox="0.00 0.00 1691.50 410.00" xmlns="http://www.w3.org/2000/svg" xmlns:xlink="http://www.w3.org/1999/xlink">
<g id="graph0" class="graph" transform="scale(1 1) rotate(0) translate(4 406)">
<polygon fill="white" stroke="transparent" points="-4,4 -4,-406 1687.5,-406 1687.5,4 -4,4"/>
<!-- n1 -->
<g id="node1" class="node">
<title>n1</title>
<polygon fill="lightblue" stroke="black" points="1104.37,-384 963.18,-402 680.82,-402 539.63,-384 680.82,-366 963.18,-366 1104.37,-384"/>
<text text-anchor="middle" x="822" y="-380.3" font-family="Arial" font-size="14.00">Draw animals in their habitats with labels (e.g., fish in water)</text>
</g>
<!-- n2 -->
<g id="node2" class="node">
<title>n2</title>
<polygon fill="#fffdd0" stroke="black" points="666,-280 478,-280 478,-244 666,-244 666,-280"/>
<text text-anchor="middle" x="572" y="-258.3" font-family="Arial" font-size="14.00">Fish swimming in blue water</text>
</g>
<!-- n1&#45;&gt;n2 -->
<g id="edge1" class="edge">
<title>n1&#45;&gt;n2</title>
<path fill="none" stroke="black" d="M786.45,-365.93C741.74,-344.48 664.98,-307.63 616.45,-284.33"/>
<polygon fill="black" stroke="black" points="617.96,-281.17 607.43,-280.01 614.94,-287.49 617.96,-281.17"/>
</g>
<!-- n3 -->
<g id="node3" class="node">
<title>n3</title>
<polygon fill="#fffdd0" stroke="black" points="920,-280 724,-280 724,-244 920,-244 920,-280"/>
<text text-anchor="middle" x="822" y="-258.3" font-family="Arial" font-size="14.00">Deer in a forest of green trees</text>
</g>
<!-- n1&#45;&gt;n3 -->
<g id="edge2" class="edge">
<title>n1&#45;&gt;n3</title>
<path fill="none" stroke="black" d="M822,-365.81C822,-346.11 822,-313.58 822,-290.39"/>
<polygon fill="black" stroke="black" points="825.5,-290.16 822,-280.16 818.5,-290.16 825.5,-290.16"/>
</g>
<!-- n4 -->
<g id="node4" class="node">
<title>n4</title>
<polygon fill="#fffdd0" stroke="black" points="1182,-280 978,-280 978,-244 1182,-244 1182,-280"/>
<text text-anchor="middle" x="1080" y="-258.3" font-family="Arial" font-size="14.00">Plant reaching towards sunlight</text>
</g>
<!-- n1&#45;&gt;n4 -->
<g id="edge3" class="edge">
<title>n1&#45;&gt;n4</title>
<path fill="none" stroke="black" d="M858.69,-365.93C904.83,-344.48 984.04,-307.63 1034.1,-284.33"/>
<polygon fill="black" stroke="black" points="1035.81,-287.4 1043.4,-280.01 1032.86,-281.05 1035.81,-287.4"/>
</g>
<!-- n5 -->
<g id="node5" class="node">
<title>n5</title>
<path fill="palegreen" stroke="black" d="M236,-158C236,-158 12,-158 12,-158 6,-158 0,-152 0,-146 0,-146 0,-134 0,-134 0,-128 6,-122 12,-122 12,-122 236,-122 236,-122 242,-122 248,-128 248,-134 248,-134 248,-146 248,-146 248,-152 242,-158 236,-158"/>
<text text-anchor="middle" x="124" y="-136.3" font-family="Arial" font-size="14.00">Correctly understands fish live in water</text>
</g>
<!-- n2&#45;&gt;n5 -->
<g id="edge4" class="edge">
<title>n2&#45;&gt;n5</title>
<path fill="none" stroke="black" d="M508.29,-243.93C426.18,-221.94 283.72,-183.78 197.24,-160.62"/>
<polygon fill="black" stroke="black" points="198.05,-157.21 187.49,-158.01 196.24,-163.98 198.05,-157.21"/>
</g>
<!-- n8 -->
<g id="node6" class="node">
<title>n8</title>
<polygon fill="lightcoral" stroke="black" points="697,-158 306.22,-140 697,-122 1087.78,-140 697,-158"/>
<text text-anchor="middle" x="697" y="-136.3" font-family="Arial" font-size="14.00">Incomplete understanding: does not show air or detailed interactions</text>
</g>
<!-- n2&#45;&gt;n8 -->
<g id="edge5" class="edge">
<title>n2&#45;&gt;n8</title>
<path fill="none" stroke="black" d="M589.91,-243.81C611.6,-222.99 648.22,-187.82 672.51,-164.51"/>
<polygon fill="black" stroke="black" points="675.14,-166.84 679.93,-157.39 670.29,-161.79 675.14,-166.84"/>
</g>
<!-- n3&#45;&gt;n8 -->
<g id="edge6" class="edge">
<title>n3&#45;&gt;n8</title>
<path fill="none" stroke="black" d="M804.09,-243.81C782.4,-222.99 745.78,-187.82 721.49,-164.51"/>
<polygon fill="black" stroke="black" points="723.71,-161.79 714.07,-157.39 718.86,-166.84 723.71,-161.79"/>
</g>
<!-- n6 -->
<g id="node7" class="node">
<title>n6</title>
<path fill="palegreen" stroke="black" d="M1396,-158C1396,-158 1158,-158 1158,-158 1152,-158 1146,-152 1146,-146 1146,-146 1146,-134 1146,-134 1146,-128 1152,-122 1158,-122 1158,-122 1396,-122 1396,-122 1402,-122 1408,-128 1408,-134 1408,-134 1408,-146 1408,-146 1408,-152 1402,-158 1396,-158"/>
<text text-anchor="middle" x="1277" y="-136.3" font-family="Arial" font-size="14.00">Correctly understands deer live in forests</text>
</g>
<!-- n3&#45;&gt;n6 -->
<g id="edge7" class="edge">
<title>n3&#45;&gt;n6</title>
<path fill="none" stroke="black" d="M886.71,-243.93C970.1,-221.94 1114.8,-183.78 1202.6,-160.62"/>
<polygon fill="black" stroke="black" points="1203.72,-163.94 1212.5,-158.01 1201.94,-157.17 1203.72,-163.94"/>
</g>
<!-- n4&#45;&gt;n8 -->
<g id="edge8" class="edge">
<title>n4&#45;&gt;n8</title>
<path fill="none" stroke="black" d="M1025.5,-243.93C953.64,-221.41 827.63,-181.93 754.33,-158.96"/>
<polygon fill="black" stroke="black" points="754.94,-155.48 744.35,-155.83 752.84,-162.16 754.94,-155.48"/>
</g>
<!-- n7 -->
<g id="node8" class="node">
<title>n7</title>
<path fill="palegreen" stroke="black" d="M1671.5,-158C1671.5,-158 1478.5,-158 1478.5,-158 1472.5,-158 1466.5,-152 1466.5,-146 1466.5,-146 1466.5,-134 1466.5,-134 1466.5,-128 1472.5,-122 1478.5,-122 1478.5,-122 1671.5,-122 1671.5,-122 1677.5,-122 1683.5,-128 1683.5,-134 1683.5,-134 1683.5,-146 1683.5,-146 1683.5,-152 1677.5,-158 1671.5,-158"/>
<text text-anchor="middle" x="1575" y="-136.3" font-family="Arial" font-size="14.00">Understands plants need sunlight</text>
</g>
<!-- n4&#45;&gt;n7 -->
<g id="edge9" class="edge">
<title>n4&#45;&gt;n7</title>
<path fill="none" stroke="black" d="M1150.1,-244C1241.1,-221.95 1399.3,-183.6 1494.9,-160.43"/>
<polygon fill="black" stroke="black" points="1495.91,-163.79 1504.8,-158.03 1494.26,-156.98 1495.91,-163.79"/>
</g>
<!-- n9 -->
<g id="node9" class="node">
<title>n9</title>
<polygon fill="#f28e8e" stroke="black" points="871.5,-36 522.5,-36 522.5,0 871.5,0 871.5,-36"/>
<text text-anchor="middle" x="697" y="-14.3" font-family="Arial" font-size="14.00">Include air and show more interactions, like food chains</text>
</g>
<!-- n8&#45;&gt;n9 -->
<g id="edge10" class="edge">
<title>n8&#45;&gt;n9</title>
<path fill="none" stroke="black" d="M697,-121.81C697,-102.11 697,-69.58 697,-46.39"/>
<polygon fill="black" stroke="black" points="700.5,-46.16 697,-36.16 693.5,-46.16 700.5,-46.16"/>
</g>
</g>
</svg>
