<?xml version="1.0" encoding="UTF-8" standalone="no"?>
<!DOCTYPE svg PUBLIC "-//W3C//DTD SVG 1.1//EN"
 "http://www.w3.org/Graphics/SVG/1.1/DTD/svg11.dtd">
<!-- Generated by graphviz version 2.43.0 (0)
 -->
<!-- Pages: 1 -->
<svg width="1832pt" height="410pt"
 viewBox="0.00 0.00 1831.75 410.00" xmlns="http://www.w3.org/2000/svg" xmlns:xlink="http://www.w3.org/1999/xlink">
<g id="graph0" class="graph" transform="scale(1 1) rotate(0) translate(4 406)">
<polygon fill="white" stroke="transparent" points="-4,4 -4,-406 1827.75,-406 1827.75,4 -4,4"/>
<!-- n1 -->
<g id="node1" class="node">
<title>n1</title>
<polygon fill="lightblue" stroke="black" points="1164,-384 1000,-402 672,-402 508,-384 672,-366 1000,-366 1164,-384"/>
<text text-anchor="middle" x="836" y="-380.3" font-family="Arial" font-size="14.00">Draw reversible and irreversible changes (ice melting vs. egg cooking)</text>
</g>
<!-- n2 -->
<g id="node2" class="node">
<title>n2</title>
<polygon fill="#fffdd0" stroke="black" points="776,-280 432,-280 432,-244 776,-244 776,-280"/>
<text text-anchor="middle" x="604" y="-258.3" font-family="Arial" font-size="14.00">Blue rectangle with wavy lines representing ice melting</text>
</g>
<!-- n1&#45;&gt;n2 -->
<g id="edge1" class="edge">
<title>n1&#45;&gt;n2</title>
<path fill="none" stroke="black" d="M802.76,-365.81C761.5,-344.47 691.09,-308.05 646.1,-284.77"/>
<polygon fill="black" stroke="black" points="647.67,-281.64 637.18,-280.16 644.46,-287.86 647.67,-281.64"/>
</g>
<!-- n3 -->
<g id="node3" class="node">
<title>n3</title>
<polygon fill="#fffdd0" stroke="black" points="1224.5,-280 913.5,-280 913.5,-244 1224.5,-244 1224.5,-280"/>
<text text-anchor="middle" x="1069" y="-258.3" font-family="Arial" font-size="14.00">Oval and circle representing raw and cooked egg</text>
</g>
<!-- n1&#45;&gt;n3 -->
<g id="edge2" class="edge">
<title>n1&#45;&gt;n3</title>
<path fill="none" stroke="black" d="M869.38,-365.81C910.82,-344.47 981.53,-308.05 1026.7,-284.77"/>
<polygon fill="black" stroke="black" points="1028.4,-287.83 1035.7,-280.16 1025.2,-281.6 1028.4,-287.83"/>
</g>
<!-- n4 -->
<g id="node4" class="node">
<title>n4</title>
<path fill="palegreen" stroke="black" d="M272,-158C272,-158 12,-158 12,-158 6,-158 0,-152 0,-146 0,-146 0,-134 0,-134 0,-128 6,-122 12,-122 12,-122 272,-122 272,-122 278,-122 284,-128 284,-134 284,-134 284,-146 284,-146 284,-152 278,-158 272,-158"/>
<text text-anchor="middle" x="142" y="-136.3" font-family="Arial" font-size="14.00">Understands starting state and change of ice</text>
</g>
<!-- n2&#45;&gt;n4 -->
<g id="edge3" class="edge">
<title>n2&#45;&gt;n4</title>
<path fill="none" stroke="black" d="M538.3,-243.93C453.54,-221.92 306.42,-183.71 217.25,-160.55"/>
<polygon fill="black" stroke="black" points="218.04,-157.14 207.48,-158.01 216.28,-163.91 218.04,-157.14"/>
</g>
<!-- n5 -->
<g id="node5" class="node">
<title>n5</title>
<polygon fill="lightcoral" stroke="black" points="604,-158 342,-140 604,-122 866,-140 604,-158"/>
<text text-anchor="middle" x="604" y="-136.3" font-family="Arial" font-size="14.00">Misses concept of reversibility for ice melting</text>
</g>
<!-- n2&#45;&gt;n5 -->
<g id="edge4" class="edge">
<title>n2&#45;&gt;n5</title>
<path fill="none" stroke="black" d="M604,-243.81C604,-224.11 604,-191.58 604,-168.39"/>
<polygon fill="black" stroke="black" points="607.5,-168.16 604,-158.16 600.5,-168.16 607.5,-168.16"/>
</g>
<!-- n6 -->
<g id="node6" class="node">
<title>n6</title>
<path fill="palegreen" stroke="black" d="M1202,-158C1202,-158 936,-158 936,-158 930,-158 924,-152 924,-146 924,-146 924,-134 924,-134 924,-128 930,-122 936,-122 936,-122 1202,-122 1202,-122 1208,-122 1214,-128 1214,-134 1214,-134 1214,-146 1214,-146 1214,-152 1208,-158 1202,-158"/>
<text text-anchor="middle" x="1069" y="-136.3" font-family="Arial" font-size="14.00">Understands starting state and change of egg</text>
</g>
<!-- n3&#45;&gt;n6 -->
<g id="edge5" class="edge">
<title>n3&#45;&gt;n6</title>
<path fill="none" stroke="black" d="M1069,-243.81C1069,-224.11 1069,-191.58 1069,-168.39"/>
<polygon fill="black" stroke="black" points="1072.5,-168.16 1069,-158.16 1065.5,-168.16 1072.5,-168.16"/>
</g>
<!-- n7 -->
<g id="node7" class="node">
<title>n7</title>
<polygon fill="lightcoral" stroke="black" points="1548,-158 1272.01,-140 1548,-122 1823.99,-140 1548,-158"/>
<text text-anchor="middle" x="1548" y="-136.3" font-family="Arial" font-size="14.00">Misses concept of irreversibility for egg cooking</text>
</g>
<!-- n3&#45;&gt;n7 -->
<g id="edge6" class="edge">
<title>n3&#45;&gt;n7</title>
<path fill="none" stroke="black" d="M1136.9,-244C1229.4,-220.81 1394,-179.59 1484.3,-156.96"/>
<polygon fill="black" stroke="black" points="1485.25,-160.33 1494.1,-154.5 1483.55,-153.54 1485.25,-160.33"/>
</g>
<!-- n8 -->
<g id="node8" class="node">
<title>n8</title>
<polygon fill="#f28e8e" stroke="black" points="783.5,-36 424.5,-36 424.5,0 783.5,0 783.5,-36"/>
<text text-anchor="middle" x="604" y="-14.3" font-family="Arial" font-size="14.00">Add arrows and labels to show ice melting and refreezing</text>
</g>
<!-- n5&#45;&gt;n8 -->
<g id="edge7" class="edge">
<title>n5&#45;&gt;n8</title>
<path fill="none" stroke="black" d="M604,-121.81C604,-102.11 604,-69.58 604,-46.39"/>
<polygon fill="black" stroke="black" points="607.5,-46.16 604,-36.16 600.5,-46.16 607.5,-46.16"/>
</g>
<!-- n9 -->
<g id="node9" class="node">
<title>n9</title>
<polygon fill="#f28e8e" stroke="black" points="1712,-36 1384,-36 1384,0 1712,0 1712,-36"/>
<text text-anchor="middle" x="1548" y="-14.3" font-family="Arial" font-size="14.00">Add labels and arrows to show egg cooking process</text>
</g>
<!-- n7&#45;&gt;n9 -->
<g id="edge8" class="edge">
<title>n7&#45;&gt;n9</title>
<path fill="none" stroke="black" d="M1548,-121.81C1548,-102.11 1548,-69.58 1548,-46.39"/>
<polygon fill="black" stroke="black" points="1551.5,-46.16 1548,-36.16 1544.5,-46.16 1551.5,-46.16"/>
</g>
</g>
</svg>
