<?xml version="1.0" encoding="UTF-8" standalone="no"?>
<!DOCTYPE svg PUBLIC "-//W3C//DTD SVG 1.1//EN"
 "http://www.w3.org/Graphics/SVG/1.1/DTD/svg11.dtd">
<!-- Generated by graphviz version 2.43.0 (0)
 -->
<!-- Pages: 1 -->
<svg width="1978pt" height="410pt"
 viewBox="0.00 0.00 1978.04 410.00" xmlns="http://www.w3.org/2000/svg" xmlns:xlink="http://www.w3.org/1999/xlink">
<g id="graph0" class="graph" transform="scale(1 1) rotate(0) translate(4 406)">
<polygon fill="white" stroke="transparent" points="-4,4 -4,-406 1974.04,-406 1974.04,4 -4,4"/>
<!-- n1 -->
<g id="node1" class="node">
<title>n1</title>
<polygon fill="lightblue" stroke="black" points="1190,-384 1026,-402 698,-402 534,-384 698,-366 1026,-366 1190,-384"/>
<text text-anchor="middle" x="862" y="-380.3" font-family="Arial" font-size="14.00">Draw reversible and irreversible changes (ice melting vs. egg cooking)</text>
</g>
<!-- n2 -->
<g id="node2" class="node">
<title>n2</title>
<polygon fill="#fffdd0" stroke="black" points="754,-280 398,-280 398,-244 754,-244 754,-280"/>
<text text-anchor="middle" x="576" y="-258.3" font-family="Arial" font-size="14.00">Blue block of ice changing to a puddle with squiggly lines</text>
</g>
<!-- n1&#45;&gt;n2 -->
<g id="edge1" class="edge">
<title>n1&#45;&gt;n2</title>
<path fill="none" stroke="black" d="M821.33,-365.93C769.87,-344.34 681.27,-307.17 625.81,-283.9"/>
<polygon fill="black" stroke="black" points="627.11,-280.65 616.53,-280.01 624.4,-287.1 627.11,-280.65"/>
</g>
<!-- n3 -->
<g id="node3" class="node">
<title>n3</title>
<polygon fill="#fffdd0" stroke="black" points="1296.5,-280 1001.5,-280 1001.5,-244 1296.5,-244 1296.5,-280"/>
<text text-anchor="middle" x="1149" y="-258.3" font-family="Arial" font-size="14.00">Raw egg next to a frying pan with wavy arrows</text>
</g>
<!-- n1&#45;&gt;n3 -->
<g id="edge2" class="edge">
<title>n1&#45;&gt;n3</title>
<path fill="none" stroke="black" d="M902.82,-365.93C954.46,-344.34 1043.4,-307.17 1099,-283.9"/>
<polygon fill="black" stroke="black" points="1100.43,-287.1 1108.3,-280.01 1097.72,-280.64 1100.43,-287.1"/>
</g>
<!-- n4 -->
<g id="node4" class="node">
<title>n4</title>
<path fill="palegreen" stroke="black" d="M232,-158C232,-158 12,-158 12,-158 6,-158 0,-152 0,-146 0,-146 0,-134 0,-134 0,-128 6,-122 12,-122 12,-122 232,-122 232,-122 238,-122 244,-128 244,-134 244,-134 244,-146 244,-146 244,-152 238,-158 232,-158"/>
<text text-anchor="middle" x="122" y="-136.3" font-family="Arial" font-size="14.00">Ice melting to water correctly depicted</text>
</g>
<!-- n2&#45;&gt;n4 -->
<g id="edge3" class="edge">
<title>n2&#45;&gt;n4</title>
<path fill="none" stroke="black" d="M511.44,-243.93C428.22,-221.94 283.86,-183.78 196.22,-160.62"/>
<polygon fill="black" stroke="black" points="196.9,-157.18 186.34,-158.01 195.11,-163.95 196.9,-157.18"/>
</g>
<!-- n5 -->
<g id="node5" class="node">
<title>n5</title>
<polygon fill="lightcoral" stroke="black" points="576,-158 302,-140 576,-122 850,-140 576,-158"/>
<text text-anchor="middle" x="576" y="-136.3" font-family="Arial" font-size="14.00">Squiggly lines as heat indicator partially correct</text>
</g>
<!-- n2&#45;&gt;n5 -->
<g id="edge4" class="edge">
<title>n2&#45;&gt;n5</title>
<path fill="none" stroke="black" d="M576,-243.81C576,-224.11 576,-191.58 576,-168.39"/>
<polygon fill="black" stroke="black" points="579.5,-168.16 576,-158.16 572.5,-168.16 579.5,-168.16"/>
</g>
<!-- n6 -->
<g id="node6" class="node">
<title>n6</title>
<polygon fill="lightcoral" stroke="black" points="1149,-158 908,-140 1149,-122 1390,-140 1149,-158"/>
<text text-anchor="middle" x="1149" y="-136.3" font-family="Arial" font-size="14.00">Egg cooking process not clearly depicted</text>
</g>
<!-- n3&#45;&gt;n6 -->
<g id="edge5" class="edge">
<title>n3&#45;&gt;n6</title>
<path fill="none" stroke="black" d="M1149,-243.81C1149,-224.11 1149,-191.58 1149,-168.39"/>
<polygon fill="black" stroke="black" points="1152.5,-168.16 1149,-158.16 1145.5,-168.16 1152.5,-168.16"/>
</g>
<!-- n7 -->
<g id="node7" class="node">
<title>n7</title>
<polygon fill="lightcoral" stroke="black" points="1709,-158 1447.92,-140 1709,-122 1970.08,-140 1709,-158"/>
<text text-anchor="middle" x="1709" y="-136.3" font-family="Arial" font-size="14.00">Inconsistency in using arrows for reversibility</text>
</g>
<!-- n3&#45;&gt;n7 -->
<g id="edge6" class="edge">
<title>n3&#45;&gt;n7</title>
<path fill="none" stroke="black" d="M1228.3,-244C1338.1,-220.48 1534.5,-178.39 1639.1,-155.99"/>
<polygon fill="black" stroke="black" points="1639.86,-159.41 1648.9,-153.88 1638.39,-152.56 1639.86,-159.41"/>
</g>
<!-- n8 -->
<g id="node8" class="node">
<title>n8</title>
<polygon fill="#f28e8e" stroke="black" points="775,-36 377,-36 377,0 775,0 775,-36"/>
<text text-anchor="middle" x="576" y="-14.3" font-family="Arial" font-size="14.00">Clarify heat application using clearer symbols like sun or flames</text>
</g>
<!-- n5&#45;&gt;n8 -->
<g id="edge7" class="edge">
<title>n5&#45;&gt;n8</title>
<path fill="none" stroke="black" d="M576,-121.81C576,-102.11 576,-69.58 576,-46.39"/>
<polygon fill="black" stroke="black" points="579.5,-46.16 576,-36.16 572.5,-46.16 579.5,-46.16"/>
</g>
<!-- n9 -->
<g id="node9" class="node">
<title>n9</title>
<polygon fill="#f28e8e" stroke="black" points="1339,-36 959,-36 959,0 1339,0 1339,-36"/>
<text text-anchor="middle" x="1149" y="-14.3" font-family="Arial" font-size="14.00">Explain egg transformation by showing egg whites solidifying</text>
</g>
<!-- n6&#45;&gt;n9 -->
<g id="edge8" class="edge">
<title>n6&#45;&gt;n9</title>
<path fill="none" stroke="black" d="M1149,-121.81C1149,-102.11 1149,-69.58 1149,-46.39"/>
<polygon fill="black" stroke="black" points="1152.5,-46.16 1149,-36.16 1145.5,-46.16 1152.5,-46.16"/>
</g>
<!-- n10 -->
<g id="node10" class="node">
<title>n10</title>
<polygon fill="#f28e8e" stroke="black" points="1914,-36 1504,-36 1504,0 1914,0 1914,-36"/>
<text text-anchor="middle" x="1709" y="-14.3" font-family="Arial" font-size="14.00">Use consistent arrow symbols to denote reversible vs. irreversible</text>
</g>
<!-- n7&#45;&gt;n10 -->
<g id="edge9" class="edge">
<title>n7&#45;&gt;n10</title>
<path fill="none" stroke="black" d="M1709,-121.81C1709,-102.11 1709,-69.58 1709,-46.39"/>
<polygon fill="black" stroke="black" points="1712.5,-46.16 1709,-36.16 1705.5,-46.16 1712.5,-46.16"/>
</g>
</g>
</svg>
