<?xml version="1.0" encoding="UTF-8" standalone="no"?>
<!DOCTYPE svg PUBLIC "-//W3C//DTD SVG 1.1//EN"
 "http://www.w3.org/Graphics/SVG/1.1/DTD/svg11.dtd">
<!-- Generated by graphviz version 2.43.0 (0)
 -->
<!-- Pages: 1 -->
<svg width="1371pt" height="410pt"
 viewBox="0.00 0.00 1371.00 410.00" xmlns="http://www.w3.org/2000/svg" xmlns:xlink="http://www.w3.org/1999/xlink">
<g id="graph0" class="graph" transform="scale(1 1) rotate(0) translate(4 406)">
<polygon fill="white" stroke="transparent" points="-4,4 -4,-406 1367,-406 1367,4 -4,4"/>
<!-- n1 -->
<g id="node1" class="node">
<title>n1</title>
<polygon fill="lightblue" stroke="black" points="932.5,-384 768.5,-402 440.5,-402 276.5,-384 440.5,-366 768.5,-366 932.5,-384"/>
<text text-anchor="middle" x="604.5" y="-380.3" font-family="Arial" font-size="14.00">Draw reversible and irreversible changes (ice melting vs. egg cooking)</text>
</g>
<!-- n2 -->
<g id="node2" class="node">
<title>n2</title>
<polygon fill="#fffdd0" stroke="black" points="214,-280 41,-280 41,-244 214,-244 214,-280"/>
<text text-anchor="middle" x="127.5" y="-258.3" font-family="Arial" font-size="14.00">Ice cube drawn solid, blue</text>
</g>
<!-- n1&#45;&gt;n2 -->
<g id="edge1" class="edge">
<title>n1&#45;&gt;n2</title>
<path fill="none" stroke="black" d="M536.92,-366C449.38,-343.98 297.13,-305.68 205.01,-282.5"/>
<polygon fill="black" stroke="black" points="205.73,-279.07 195.18,-280.03 204.03,-285.86 205.73,-279.07"/>
</g>
<!-- n3 -->
<g id="node3" class="node">
<title>n3</title>
<polygon fill="#fffdd0" stroke="black" points="559,-280 272,-280 272,-244 559,-244 559,-280"/>
<text text-anchor="middle" x="415.5" y="-258.3" font-family="Arial" font-size="14.00">Water drawn clear, light blue after ice melting</text>
</g>
<!-- n1&#45;&gt;n3 -->
<g id="edge2" class="edge">
<title>n1&#45;&gt;n3</title>
<path fill="none" stroke="black" d="M577.42,-365.81C544.3,-344.78 488.12,-309.11 451.42,-285.8"/>
<polygon fill="black" stroke="black" points="452.85,-282.56 442.53,-280.16 449.1,-288.47 452.85,-282.56"/>
</g>
<!-- n4 -->
<g id="node4" class="node">
<title>n4</title>
<polygon fill="#fffdd0" stroke="black" points="970,-280 617,-280 617,-244 970,-244 970,-280"/>
<text text-anchor="middle" x="793.5" y="-258.3" font-family="Arial" font-size="14.00">Raw egg in frying pan, yellow yolk and transparent white</text>
</g>
<!-- n1&#45;&gt;n4 -->
<g id="edge3" class="edge">
<title>n1&#45;&gt;n4</title>
<path fill="none" stroke="black" d="M631.58,-365.81C664.7,-344.78 720.88,-309.11 757.58,-285.8"/>
<polygon fill="black" stroke="black" points="759.9,-288.47 766.47,-280.16 756.15,-282.56 759.9,-288.47"/>
</g>
<!-- n5 -->
<g id="node5" class="node">
<title>n5</title>
<polygon fill="#fffdd0" stroke="black" points="1363,-280 1028,-280 1028,-244 1363,-244 1363,-280"/>
<text text-anchor="middle" x="1195.5" y="-258.3" font-family="Arial" font-size="14.00">Cooked egg in frying pan, white solidified, yellow yolk</text>
</g>
<!-- n1&#45;&gt;n5 -->
<g id="edge4" class="edge">
<title>n1&#45;&gt;n5</title>
<path fill="none" stroke="black" d="M688.24,-366C797.35,-343.84 987.62,-305.21 1101.5,-282.08"/>
<polygon fill="black" stroke="black" points="1102.5,-285.45 1111.6,-280.03 1101.1,-278.59 1102.5,-285.45"/>
</g>
<!-- n6 -->
<g id="node6" class="node">
<title>n6</title>
<path fill="palegreen" stroke="black" d="M243,-158C243,-158 12,-158 12,-158 6,-158 0,-152 0,-146 0,-146 0,-134 0,-134 0,-128 6,-122 12,-122 12,-122 243,-122 243,-122 249,-122 255,-128 255,-134 255,-134 255,-146 255,-146 255,-152 249,-158 243,-158"/>
<text text-anchor="middle" x="127.5" y="-136.3" font-family="Arial" font-size="14.00">Understands change: Ice melts to water</text>
</g>
<!-- n2&#45;&gt;n6 -->
<g id="edge5" class="edge">
<title>n2&#45;&gt;n6</title>
<path fill="none" stroke="black" d="M127.5,-243.81C127.5,-224.11 127.5,-191.58 127.5,-168.39"/>
<polygon fill="black" stroke="black" points="131,-168.16 127.5,-158.16 124,-168.16 131,-168.16"/>
</g>
<!-- n3&#45;&gt;n6 -->
<g id="edge6" class="edge">
<title>n3&#45;&gt;n6</title>
<path fill="none" stroke="black" d="M374.54,-243.93C322.72,-222.34 233.51,-185.17 177.66,-161.9"/>
<polygon fill="black" stroke="black" points="178.9,-158.62 168.32,-158.01 176.21,-165.09 178.9,-158.62"/>
</g>
<!-- n8 -->
<g id="node7" class="node">
<title>n8</title>
<polygon fill="lightcoral" stroke="black" points="600.5,-158 312.61,-140 600.5,-122 888.39,-140 600.5,-158"/>
<text text-anchor="middle" x="600.5" y="-136.3" font-family="Arial" font-size="14.00">Misses reversible change: Water refreezing to ice</text>
</g>
<!-- n3&#45;&gt;n8 -->
<g id="edge7" class="edge">
<title>n3&#45;&gt;n8</title>
<path fill="none" stroke="black" d="M442.01,-243.81C475.16,-222.3 531.93,-185.48 567.76,-162.23"/>
<polygon fill="black" stroke="black" points="569.91,-165.01 576.4,-156.63 566.1,-159.13 569.91,-165.01"/>
</g>
<!-- n7 -->
<g id="node8" class="node">
<title>n7</title>
<path fill="palegreen" stroke="black" d="M1293,-158C1293,-158 1004,-158 1004,-158 998,-158 992,-152 992,-146 992,-146 992,-134 992,-134 992,-128 998,-122 1004,-122 1004,-122 1293,-122 1293,-122 1299,-122 1305,-128 1305,-134 1305,-134 1305,-146 1305,-146 1305,-152 1299,-158 1293,-158"/>
<text text-anchor="middle" x="1148.5" y="-136.3" font-family="Arial" font-size="14.00">Understands irreversible change: Egg cooks solid</text>
</g>
<!-- n4&#45;&gt;n7 -->
<g id="edge8" class="edge">
<title>n4&#45;&gt;n7</title>
<path fill="none" stroke="black" d="M843.99,-243.93C908.39,-222.16 1019.6,-184.56 1088.4,-161.33"/>
<polygon fill="black" stroke="black" points="1089.85,-164.53 1098.2,-158.01 1087.61,-157.9 1089.85,-164.53"/>
</g>
<!-- n5&#45;&gt;n7 -->
<g id="edge9" class="edge">
<title>n5&#45;&gt;n7</title>
<path fill="none" stroke="black" d="M1188.8,-243.81C1181,-223.94 1168.1,-190.99 1159,-167.76"/>
<polygon fill="black" stroke="black" points="1162.13,-166.17 1155.2,-158.16 1155.63,-168.75 1162.13,-166.17"/>
</g>
<!-- n9 -->
<g id="node9" class="node">
<title>n9</title>
<polygon fill="#f28e8e" stroke="black" points="764,-36 437,-36 437,0 764,0 764,-36"/>
<text text-anchor="middle" x="600.5" y="-14.3" font-family="Arial" font-size="14.00">Consider illustrating water turning back into solid ice</text>
</g>
<!-- n8&#45;&gt;n9 -->
<g id="edge10" class="edge">
<title>n8&#45;&gt;n9</title>
<path fill="none" stroke="black" d="M600.5,-121.81C600.5,-102.11 600.5,-69.58 600.5,-46.39"/>
<polygon fill="black" stroke="black" points="604,-46.16 600.5,-36.16 597,-46.16 604,-46.16"/>
</g>
</g>
</svg>
