<?xml version="1.0" encoding="UTF-8" standalone="no"?>
<!DOCTYPE svg PUBLIC "-//W3C//DTD SVG 1.1//EN"
 "http://www.w3.org/Graphics/SVG/1.1/DTD/svg11.dtd">
<!-- Generated by graphviz version 2.43.0 (0)
 -->
<!-- Pages: 1 -->
<svg width="1144pt" height="410pt"
 viewBox="0.00 0.00 1143.50 410.00" xmlns="http://www.w3.org/2000/svg" xmlns:xlink="http://www.w3.org/1999/xlink">
<g id="graph0" class="graph" transform="scale(1 1) rotate(0) translate(4 406)">
<polygon fill="white" stroke="transparent" points="-4,4 -4,-406 1139.5,-406 1139.5,4 -4,4"/>
<!-- n1 -->
<g id="node1" class="node">
<title>n1</title>
<polygon fill="lightblue" stroke="black" points="813.37,-384 672.18,-402 389.82,-402 248.63,-384 389.82,-366 672.18,-366 813.37,-384"/>
<text text-anchor="middle" x="531" y="-380.3" font-family="Arial" font-size="14.00">Draw animals in their habitats with labels (e.g., fish in water)</text>
</g>
<!-- n2 -->
<g id="node2" class="node">
<title>n2</title>
<polygon fill="#fffdd0" stroke="black" points="304,-280 0,-280 0,-244 304,-244 304,-280"/>
<text text-anchor="middle" x="152" y="-258.3" font-family="Arial" font-size="14.00">Fish in blue wavy water labeled &#39;fish&#39; and &#39;water&#39;</text>
</g>
<!-- n1&#45;&gt;n2 -->
<g id="edge1" class="edge">
<title>n1&#45;&gt;n2</title>
<path fill="none" stroke="black" d="M477.1,-365.93C408.06,-344.07 288.59,-306.25 215.3,-283.04"/>
<polygon fill="black" stroke="black" points="216.3,-279.69 205.71,-280.01 214.19,-286.36 216.3,-279.69"/>
</g>
<!-- n3 -->
<g id="node3" class="node">
<title>n3</title>
<polygon fill="#fffdd0" stroke="black" points="700,-280 362,-280 362,-244 700,-244 700,-280"/>
<text text-anchor="middle" x="531" y="-258.3" font-family="Arial" font-size="14.00">Bird perched on a tree branch, labeled &#39;bird&#39; and &#39;tree&#39;</text>
</g>
<!-- n1&#45;&gt;n3 -->
<g id="edge2" class="edge">
<title>n1&#45;&gt;n3</title>
<path fill="none" stroke="black" d="M531,-365.81C531,-346.11 531,-313.58 531,-290.39"/>
<polygon fill="black" stroke="black" points="534.5,-290.16 531,-280.16 527.5,-290.16 534.5,-290.16"/>
</g>
<!-- n4 -->
<g id="node4" class="node">
<title>n4</title>
<polygon fill="#fffdd0" stroke="black" points="1006,-280 770,-280 770,-244 1006,-244 1006,-280"/>
<text text-anchor="middle" x="888" y="-258.3" font-family="Arial" font-size="14.00">Cloud labeled &#39;air&#39; drawn underwater</text>
</g>
<!-- n1&#45;&gt;n4 -->
<g id="edge3" class="edge">
<title>n1&#45;&gt;n4</title>
<path fill="none" stroke="black" d="M581.77,-365.93C646.54,-344.16 758.42,-306.56 827.53,-283.33"/>
<polygon fill="black" stroke="black" points="829.04,-286.52 837.4,-280.01 826.81,-279.88 829.04,-286.52"/>
</g>
<!-- n5 -->
<g id="node5" class="node">
<title>n5</title>
<path fill="palegreen" stroke="black" d="M241.5,-158C241.5,-158 62.5,-158 62.5,-158 56.5,-158 50.5,-152 50.5,-146 50.5,-146 50.5,-134 50.5,-134 50.5,-128 56.5,-122 62.5,-122 62.5,-122 241.5,-122 241.5,-122 247.5,-122 253.5,-128 253.5,-134 253.5,-134 253.5,-146 253.5,-146 253.5,-152 247.5,-158 241.5,-158"/>
<text text-anchor="middle" x="152" y="-136.3" font-family="Arial" font-size="14.00">Correctly identifies fish in water</text>
</g>
<!-- n2&#45;&gt;n5 -->
<g id="edge4" class="edge">
<title>n2&#45;&gt;n5</title>
<path fill="none" stroke="black" d="M152,-243.81C152,-224.11 152,-191.58 152,-168.39"/>
<polygon fill="black" stroke="black" points="155.5,-168.16 152,-158.16 148.5,-168.16 155.5,-168.16"/>
</g>
<!-- n6 -->
<g id="node6" class="node">
<title>n6</title>
<path fill="palegreen" stroke="black" d="M634.5,-158C634.5,-158 413.5,-158 413.5,-158 407.5,-158 401.5,-152 401.5,-146 401.5,-146 401.5,-134 401.5,-134 401.5,-128 407.5,-122 413.5,-122 413.5,-122 634.5,-122 634.5,-122 640.5,-122 646.5,-128 646.5,-134 646.5,-134 646.5,-146 646.5,-146 646.5,-152 640.5,-158 634.5,-158"/>
<text text-anchor="middle" x="524" y="-136.3" font-family="Arial" font-size="14.00">Understands bird and tree relationship</text>
</g>
<!-- n3&#45;&gt;n6 -->
<g id="edge5" class="edge">
<title>n3&#45;&gt;n6</title>
<path fill="none" stroke="black" d="M530,-243.81C528.85,-224.11 526.95,-191.58 525.6,-168.39"/>
<polygon fill="black" stroke="black" points="529.08,-167.94 525,-158.16 522.09,-168.35 529.08,-167.94"/>
</g>
<!-- n7 -->
<g id="node7" class="node">
<title>n7</title>
<polygon fill="lightcoral" stroke="black" points="894,-158 704.5,-140 894,-122 1083.5,-140 894,-158"/>
<text text-anchor="middle" x="894" y="-136.3" font-family="Arial" font-size="14.00">Misplaced &#39;air&#39; label underwater</text>
</g>
<!-- n4&#45;&gt;n7 -->
<g id="edge6" class="edge">
<title>n4&#45;&gt;n7</title>
<path fill="none" stroke="black" d="M888.86,-243.81C889.84,-224.11 891.47,-191.58 892.63,-168.39"/>
<polygon fill="black" stroke="black" points="896.14,-168.32 893.14,-158.16 889.15,-167.97 896.14,-168.32"/>
</g>
<!-- n8 -->
<g id="node8" class="node">
<title>n8</title>
<polygon fill="#f28e8e" stroke="black" points="1135.5,-36 652.5,-36 652.5,0 1135.5,0 1135.5,-36"/>
<text text-anchor="middle" x="894" y="-14.3" font-family="Arial" font-size="14.00">Clarify that &#39;air&#39; is part of the habitat above water, and show correct positioning</text>
</g>
<!-- n7&#45;&gt;n8 -->
<g id="edge7" class="edge">
<title>n7&#45;&gt;n8</title>
<path fill="none" stroke="black" d="M894,-121.81C894,-102.11 894,-69.58 894,-46.39"/>
<polygon fill="black" stroke="black" points="897.5,-46.16 894,-36.16 890.5,-46.16 897.5,-46.16"/>
</g>
</g>
</svg>
