<?xml version="1.0" encoding="UTF-8" standalone="no"?>
<!DOCTYPE svg PUBLIC "-//W3C//DTD SVG 1.1//EN"
 "http://www.w3.org/Graphics/SVG/1.1/DTD/svg11.dtd">
<!-- Generated by graphviz version 2.43.0 (0)
 -->
<!-- Pages: 1 -->
<svg width="1608pt" height="288pt"
 viewBox="0.00 0.00 1607.50 288.00" xmlns="http://www.w3.org/2000/svg" xmlns:xlink="http://www.w3.org/1999/xlink">
<g id="graph0" class="graph" transform="scale(1 1) rotate(0) translate(4 284)">
<polygon fill="white" stroke="transparent" points="-4,4 -4,-284 1603.5,-284 1603.5,4 -4,4"/>
<!-- n1 -->
<g id="node1" class="node">
<title>n1</title>
<polygon fill="lightblue" stroke="black" points="1054.74,-262 961.62,-280 775.38,-280 682.26,-262 775.38,-244 961.62,-244 1054.74,-262"/>
<text text-anchor="middle" x="868.5" y="-258.3" font-family="Arial" font-size="14.00">Illustrate plants with and without water.</text>
</g>
<!-- n2 -->
<g id="node2" class="node">
<title>n2</title>
<polygon fill="#fffdd0" stroke="black" points="248.5,-158 0.5,-158 0.5,-122 248.5,-122 248.5,-158"/>
<text text-anchor="middle" x="124.5" y="-136.3" font-family="Arial" font-size="14.00">Healthy plant with vibrant green leaves</text>
</g>
<!-- n1&#45;&gt;n2 -->
<g id="edge1" class="edge">
<title>n1&#45;&gt;n2</title>
<path fill="none" stroke="black" d="M769.7,-245.06C632.76,-222.98 385.75,-183.14 240.31,-159.68"/>
<polygon fill="black" stroke="black" points="240.45,-156.16 230.02,-158.02 239.33,-163.07 240.45,-156.16"/>
</g>
<!-- n3 -->
<g id="node3" class="node">
<title>n3</title>
<polygon fill="#fffdd0" stroke="black" points="690.5,-158 306.5,-158 306.5,-122 690.5,-122 690.5,-158"/>
<text text-anchor="middle" x="498.5" y="-136.3" font-family="Arial" font-size="14.00">Watering can with arrows pointing at the roots, labeled &#39;water&#39;</text>
</g>
<!-- n1&#45;&gt;n3 -->
<g id="edge2" class="edge">
<title>n1&#45;&gt;n3</title>
<path fill="none" stroke="black" d="M815.88,-243.93C748.62,-222.12 632.32,-184.4 560.73,-161.18"/>
<polygon fill="black" stroke="black" points="561.53,-157.76 550.94,-158.01 559.38,-164.42 561.53,-157.76"/>
</g>
<!-- n4 -->
<g id="node4" class="node">
<title>n4</title>
<polygon fill="#fffdd0" stroke="black" points="988,-158 749,-158 749,-122 988,-122 988,-158"/>
<text text-anchor="middle" x="868.5" y="-136.3" font-family="Arial" font-size="14.00">Bright yellow sun above healthy plant</text>
</g>
<!-- n1&#45;&gt;n4 -->
<g id="edge3" class="edge">
<title>n1&#45;&gt;n4</title>
<path fill="none" stroke="black" d="M868.5,-243.81C868.5,-224.11 868.5,-191.58 868.5,-168.39"/>
<polygon fill="black" stroke="black" points="872,-168.16 868.5,-158.16 865,-168.16 872,-168.16"/>
</g>
<!-- n5 -->
<g id="node5" class="node">
<title>n5</title>
<polygon fill="#fffdd0" stroke="black" points="1297,-158 1046,-158 1046,-122 1297,-122 1297,-158"/>
<text text-anchor="middle" x="1171.5" y="-136.3" font-family="Arial" font-size="14.00">Wilting plant with brown, droopy leaves</text>
</g>
<!-- n1&#45;&gt;n5 -->
<g id="edge4" class="edge">
<title>n1&#45;&gt;n5</title>
<path fill="none" stroke="black" d="M911.59,-243.93C966.22,-222.3 1060.4,-185.02 1119.1,-161.76"/>
<polygon fill="black" stroke="black" points="1120.58,-164.94 1128.6,-158.01 1118.01,-158.43 1120.58,-164.94"/>
</g>
<!-- n6 -->
<g id="node6" class="node">
<title>n6</title>
<polygon fill="#fffdd0" stroke="black" points="1599.5,-158 1355.5,-158 1355.5,-122 1599.5,-122 1599.5,-158"/>
<text text-anchor="middle" x="1477.5" y="-136.3" font-family="Arial" font-size="14.00">Gray sky with clouds covering the sun</text>
</g>
<!-- n1&#45;&gt;n6 -->
<g id="edge5" class="edge">
<title>n1&#45;&gt;n6</title>
<path fill="none" stroke="black" d="M954.79,-244C1067.3,-221.82 1263.7,-183.13 1381,-160.01"/>
<polygon fill="black" stroke="black" points="1381.96,-163.39 1391.1,-158.03 1380.61,-156.52 1381.96,-163.39"/>
</g>
<!-- n7 -->
<g id="node7" class="node">
<title>n7</title>
<path fill="palegreen" stroke="black" d="M237,-36C237,-36 12,-36 12,-36 6,-36 0,-30 0,-24 0,-24 0,-12 0,-12 0,-6 6,0 12,0 12,0 237,0 237,0 243,0 249,-6 249,-12 249,-12 249,-24 249,-24 249,-30 243,-36 237,-36"/>
<text text-anchor="middle" x="124.5" y="-14.3" font-family="Arial" font-size="14.00">Healthy leaves indicate sufficient water</text>
</g>
<!-- n2&#45;&gt;n7 -->
<g id="edge6" class="edge">
<title>n2&#45;&gt;n7</title>
<path fill="none" stroke="black" d="M124.5,-121.81C124.5,-102.11 124.5,-69.58 124.5,-46.39"/>
<polygon fill="black" stroke="black" points="128,-46.16 124.5,-36.16 121,-46.16 128,-46.16"/>
</g>
<!-- n9 -->
<g id="node8" class="node">
<title>n9</title>
<path fill="palegreen" stroke="black" d="M580.5,-36C580.5,-36 416.5,-36 416.5,-36 410.5,-36 404.5,-30 404.5,-24 404.5,-24 404.5,-12 404.5,-12 404.5,-6 410.5,0 416.5,0 416.5,0 580.5,0 580.5,0 586.5,0 592.5,-6 592.5,-12 592.5,-12 592.5,-24 592.5,-24 592.5,-30 586.5,-36 580.5,-36"/>
<text text-anchor="middle" x="498.5" y="-14.3" font-family="Arial" font-size="14.00">Plants need water for growth</text>
</g>
<!-- n3&#45;&gt;n9 -->
<g id="edge7" class="edge">
<title>n3&#45;&gt;n9</title>
<path fill="none" stroke="black" d="M498.5,-121.81C498.5,-102.11 498.5,-69.58 498.5,-46.39"/>
<polygon fill="black" stroke="black" points="502,-46.16 498.5,-36.16 495,-46.16 502,-46.16"/>
</g>
<!-- n10 -->
<g id="node9" class="node">
<title>n10</title>
<path fill="palegreen" stroke="black" d="M983,-36C983,-36 754,-36 754,-36 748,-36 742,-30 742,-24 742,-24 742,-12 742,-12 742,-6 748,0 754,0 754,0 983,0 983,0 989,0 995,-6 995,-12 995,-12 995,-24 995,-24 995,-30 989,-36 983,-36"/>
<text text-anchor="middle" x="868.5" y="-14.3" font-family="Arial" font-size="14.00">Presence of sun indicates required light</text>
</g>
<!-- n4&#45;&gt;n10 -->
<g id="edge8" class="edge">
<title>n4&#45;&gt;n10</title>
<path fill="none" stroke="black" d="M868.5,-121.81C868.5,-102.11 868.5,-69.58 868.5,-46.39"/>
<polygon fill="black" stroke="black" points="872,-46.16 868.5,-36.16 865,-46.16 872,-46.16"/>
</g>
<!-- n8 -->
<g id="node10" class="node">
<title>n8</title>
<path fill="palegreen" stroke="black" d="M1274.5,-36C1274.5,-36 1068.5,-36 1068.5,-36 1062.5,-36 1056.5,-30 1056.5,-24 1056.5,-24 1056.5,-12 1056.5,-12 1056.5,-6 1062.5,0 1068.5,0 1068.5,0 1274.5,0 1274.5,0 1280.5,0 1286.5,-6 1286.5,-12 1286.5,-12 1286.5,-24 1286.5,-24 1286.5,-30 1280.5,-36 1274.5,-36"/>
<text text-anchor="middle" x="1171.5" y="-14.3" font-family="Arial" font-size="14.00">Wilting leaves indicate lack of water</text>
</g>
<!-- n5&#45;&gt;n8 -->
<g id="edge9" class="edge">
<title>n5&#45;&gt;n8</title>
<path fill="none" stroke="black" d="M1171.5,-121.81C1171.5,-102.11 1171.5,-69.58 1171.5,-46.39"/>
<polygon fill="black" stroke="black" points="1175,-46.16 1171.5,-36.16 1168,-46.16 1175,-46.16"/>
</g>
<!-- n11 -->
<g id="node11" class="node">
<title>n11</title>
<path fill="palegreen" stroke="black" d="M1580.5,-36C1580.5,-36 1374.5,-36 1374.5,-36 1368.5,-36 1362.5,-30 1362.5,-24 1362.5,-24 1362.5,-12 1362.5,-12 1362.5,-6 1368.5,0 1374.5,0 1374.5,0 1580.5,0 1580.5,0 1586.5,0 1592.5,-6 1592.5,-12 1592.5,-12 1592.5,-24 1592.5,-24 1592.5,-30 1586.5,-36 1580.5,-36"/>
<text text-anchor="middle" x="1477.5" y="-14.3" font-family="Arial" font-size="14.00">Absence of light affects plant health</text>
</g>
<!-- n6&#45;&gt;n11 -->
<g id="edge10" class="edge">
<title>n6&#45;&gt;n11</title>
<path fill="none" stroke="black" d="M1477.5,-121.81C1477.5,-102.11 1477.5,-69.58 1477.5,-46.39"/>
<polygon fill="black" stroke="black" points="1481,-46.16 1477.5,-36.16 1474,-46.16 1481,-46.16"/>
</g>
</g>
</svg>
