<?xml version="1.0" encoding="UTF-8" standalone="no"?>
<!DOCTYPE svg PUBLIC "-//W3C//DTD SVG 1.1//EN"
 "http://www.w3.org/Graphics/SVG/1.1/DTD/svg11.dtd">
<!-- Generated by graphviz version 2.43.0 (0)
 -->
<!-- Pages: 1 -->
<svg width="1384pt" height="410pt"
 viewBox="0.00 0.00 1384.21 410.00" xmlns="http://www.w3.org/2000/svg" xmlns:xlink="http://www.w3.org/1999/xlink">
<g id="graph0" class="graph" transform="scale(1 1) rotate(0) translate(4 406)">
<polygon fill="white" stroke="transparent" points="-4,4 -4,-406 1380.21,-406 1380.21,4 -4,4"/>
<!-- n1 -->
<g id="node1" class="node">
<title>n1</title>
<polygon fill="lightblue" stroke="black" points="808.82,-384 686.41,-402 441.59,-402 319.18,-384 441.59,-366 686.41,-366 808.82,-384"/>
<text text-anchor="middle" x="564" y="-380.3" font-family="Arial" font-size="14.00">Draw a habitat and the different living things in each</text>
</g>
<!-- n2 -->
<g id="node2" class="node">
<title>n2</title>
<polygon fill="#fffdd0" stroke="black" points="536,-280 254,-280 254,-244 536,-244 536,-280"/>
<text text-anchor="middle" x="395" y="-258.3" font-family="Arial" font-size="14.00">Forest habitat with trees, birds, and squirrels</text>
</g>
<!-- n1&#45;&gt;n2 -->
<g id="edge1" class="edge">
<title>n1&#45;&gt;n2</title>
<path fill="none" stroke="black" d="M539.79,-365.81C510.29,-344.87 460.36,-309.41 427.53,-286.1"/>
<polygon fill="black" stroke="black" points="429.35,-283.1 419.17,-280.16 425.29,-288.81 429.35,-283.1"/>
</g>
<!-- n3 -->
<g id="node3" class="node">
<title>n3</title>
<polygon fill="#fffdd0" stroke="black" points="871.5,-280 594.5,-280 594.5,-244 871.5,-244 871.5,-280"/>
<text text-anchor="middle" x="733" y="-258.3" font-family="Arial" font-size="14.00">Pond habitat with fish, lily pads, and insects</text>
</g>
<!-- n1&#45;&gt;n3 -->
<g id="edge2" class="edge">
<title>n1&#45;&gt;n3</title>
<path fill="none" stroke="black" d="M588.21,-365.81C617.71,-344.87 667.64,-309.41 700.47,-286.1"/>
<polygon fill="black" stroke="black" points="702.71,-288.81 708.83,-280.16 698.65,-283.1 702.71,-288.81"/>
</g>
<!-- n4 -->
<g id="node4" class="node">
<title>n4</title>
<path fill="palegreen" stroke="black" d="M326,-158C326,-158 12,-158 12,-158 6,-158 0,-152 0,-146 0,-146 0,-134 0,-134 0,-128 6,-122 12,-122 12,-122 326,-122 326,-122 332,-122 338,-128 338,-134 338,-134 338,-146 338,-146 338,-152 332,-158 326,-158"/>
<text text-anchor="middle" x="169" y="-136.3" font-family="Arial" font-size="14.00">Student understands forest habitat and its biodiversity</text>
</g>
<!-- n2&#45;&gt;n4 -->
<g id="edge3" class="edge">
<title>n2&#45;&gt;n4</title>
<path fill="none" stroke="black" d="M362.62,-243.81C322.51,-222.51 254.12,-186.2 210.28,-162.92"/>
<polygon fill="black" stroke="black" points="211.79,-159.76 201.32,-158.16 208.51,-165.94 211.79,-159.76"/>
</g>
<!-- n7 -->
<g id="node5" class="node">
<title>n7</title>
<path fill="palegreen" stroke="black" d="M720,-158C720,-158 408,-158 408,-158 402,-158 396,-152 396,-146 396,-146 396,-134 396,-134 396,-128 402,-122 408,-122 408,-122 720,-122 720,-122 726,-122 732,-128 732,-134 732,-134 732,-146 732,-146 732,-152 726,-158 720,-158"/>
<text text-anchor="middle" x="564" y="-136.3" font-family="Arial" font-size="14.00">General understanding of biodiversity in both habitats</text>
</g>
<!-- n2&#45;&gt;n7 -->
<g id="edge4" class="edge">
<title>n2&#45;&gt;n7</title>
<path fill="none" stroke="black" d="M419.21,-243.81C448.71,-222.87 498.64,-187.41 531.47,-164.1"/>
<polygon fill="black" stroke="black" points="533.71,-166.81 539.83,-158.16 529.65,-161.1 533.71,-166.81"/>
</g>
<!-- n3&#45;&gt;n7 -->
<g id="edge5" class="edge">
<title>n3&#45;&gt;n7</title>
<path fill="none" stroke="black" d="M708.79,-243.81C679.29,-222.87 629.36,-187.41 596.53,-164.1"/>
<polygon fill="black" stroke="black" points="598.35,-161.1 588.17,-158.16 594.29,-166.81 598.35,-161.1"/>
</g>
<!-- n5 -->
<g id="node6" class="node">
<title>n5</title>
<polygon fill="lightcoral" stroke="black" points="1083,-158 789.58,-140 1083,-122 1376.42,-140 1083,-158"/>
<text text-anchor="middle" x="1083" y="-136.3" font-family="Arial" font-size="14.00">Student identified pond habitat but has mislabeling</text>
</g>
<!-- n3&#45;&gt;n5 -->
<g id="edge6" class="edge">
<title>n3&#45;&gt;n5</title>
<path fill="none" stroke="black" d="M782.77,-243.93C848.7,-221.33 964.42,-181.66 1031.3,-158.73"/>
<polygon fill="black" stroke="black" points="1032.48,-162.03 1040.8,-155.47 1030.21,-155.41 1032.48,-162.03"/>
</g>
<!-- n6 -->
<g id="node7" class="node">
<title>n6</title>
<polygon fill="#f28e8e" stroke="black" points="1250.5,-36 915.5,-36 915.5,0 1250.5,0 1250.5,-36"/>
<text text-anchor="middle" x="1083" y="-14.3" font-family="Arial" font-size="14.00">Correct placement of fish and proper labeling needed</text>
</g>
<!-- n5&#45;&gt;n6 -->
<g id="edge7" class="edge">
<title>n5&#45;&gt;n6</title>
<path fill="none" stroke="black" d="M1083,-121.81C1083,-102.11 1083,-69.58 1083,-46.39"/>
<polygon fill="black" stroke="black" points="1086.5,-46.16 1083,-36.16 1079.5,-46.16 1086.5,-46.16"/>
</g>
</g>
</svg>
