<?xml version="1.0" encoding="UTF-8" standalone="no"?>
<!DOCTYPE svg PUBLIC "-//W3C//DTD SVG 1.1//EN"
 "http://www.w3.org/Graphics/SVG/1.1/DTD/svg11.dtd">
<!-- Generated by graphviz version 2.43.0 (0)
 -->
<!-- Pages: 1 -->
<svg width="1831pt" height="410pt"
 viewBox="0.00 0.00 1831.29 410.00" xmlns="http://www.w3.org/2000/svg" xmlns:xlink="http://www.w3.org/1999/xlink">
<g id="graph0" class="graph" transform="scale(1 1) rotate(0) translate(4 406)">
<polygon fill="white" stroke="transparent" points="-4,4 -4,-406 1827.29,-406 1827.29,4 -4,4"/>
<!-- n1 -->
<g id="node1" class="node">
<title>n1</title>
<polygon fill="lightblue" stroke="black" points="1202.41,-384 1080,-402 835.18,-402 712.77,-384 835.18,-366 1080,-366 1202.41,-384"/>
<text text-anchor="middle" x="957.59" y="-380.3" font-family="Arial" font-size="14.00">Draw a habitat and the different living things in each</text>
</g>
<!-- n2 -->
<g id="node2" class="node">
<title>n2</title>
<polygon fill="#fffdd0" stroke="black" points="663.09,-280 442.09,-280 442.09,-244 663.09,-244 663.09,-280"/>
<text text-anchor="middle" x="552.59" y="-258.3" font-family="Arial" font-size="14.00">Playground with trees and squirrel</text>
</g>
<!-- n1&#45;&gt;n2 -->
<g id="edge1" class="edge">
<title>n1&#45;&gt;n2</title>
<path fill="none" stroke="black" d="M899.99,-365.93C826.06,-344.03 698.03,-306.09 619.75,-282.9"/>
<polygon fill="black" stroke="black" points="620.57,-279.49 609.99,-280.01 618.58,-286.21 620.57,-279.49"/>
</g>
<!-- n3 -->
<g id="node3" class="node">
<title>n3</title>
<polygon fill="#fffdd0" stroke="black" points="936.09,-280 721.09,-280 721.09,-244 936.09,-244 936.09,-280"/>
<text text-anchor="middle" x="828.59" y="-258.3" font-family="Arial" font-size="14.00">Garden with flowers and butterfly</text>
</g>
<!-- n1&#45;&gt;n3 -->
<g id="edge2" class="edge">
<title>n1&#45;&gt;n3</title>
<path fill="none" stroke="black" d="M939.11,-365.81C916.88,-345.13 879.45,-310.31 854.39,-287"/>
<polygon fill="black" stroke="black" points="856.74,-284.41 847.04,-280.16 851.98,-289.53 856.74,-284.41"/>
</g>
<!-- n4 -->
<g id="node4" class="node">
<title>n4</title>
<polygon fill="#fffdd0" stroke="black" points="1403.6,-280 1237.6,-280 1237.6,-244 1403.6,-244 1403.6,-280"/>
<text text-anchor="middle" x="1320.6" y="-258.3" font-family="Arial" font-size="14.00">Pond with ducks and fish</text>
</g>
<!-- n1&#45;&gt;n4 -->
<g id="edge3" class="edge">
<title>n1&#45;&gt;n4</title>
<path fill="none" stroke="black" d="M1009.2,-365.93C1075.2,-344.12 1189.3,-306.4 1259.5,-283.18"/>
<polygon fill="black" stroke="black" points="1260.7,-286.47 1269.1,-280.01 1258.51,-279.82 1260.7,-286.47"/>
</g>
<!-- n5 -->
<g id="node5" class="node">
<title>n5</title>
<polygon fill="#fffdd0" stroke="black" points="1179.1,-280 994.1,-280 994.1,-244 1179.1,-244 1179.1,-280"/>
<text text-anchor="middle" x="1086.6" y="-258.3" font-family="Arial" font-size="14.00">Stream with stones and frog</text>
</g>
<!-- n1&#45;&gt;n5 -->
<g id="edge4" class="edge">
<title>n1&#45;&gt;n5</title>
<path fill="none" stroke="black" d="M976.07,-365.81C998.3,-345.13 1035.7,-310.31 1060.8,-287"/>
<polygon fill="black" stroke="black" points="1063.19,-289.55 1068.1,-280.16 1058.41,-284.44 1063.19,-289.55"/>
</g>
<!-- n6 -->
<g id="node6" class="node">
<title>n6</title>
<path fill="palegreen" stroke="black" d="M662.09,-158C662.09,-158 443.09,-158 443.09,-158 437.09,-158 431.09,-152 431.09,-146 431.09,-146 431.09,-134 431.09,-134 431.09,-128 437.09,-122 443.09,-122 443.09,-122 662.09,-122 662.09,-122 668.09,-122 674.09,-128 674.09,-134 674.09,-134 674.09,-146 674.09,-146 674.09,-152 668.09,-158 662.09,-158"/>
<text text-anchor="middle" x="552.59" y="-136.3" font-family="Arial" font-size="14.00">Correctly identifies basic land habitats</text>
</g>
<!-- n2&#45;&gt;n6 -->
<g id="edge5" class="edge">
<title>n2&#45;&gt;n6</title>
<path fill="none" stroke="black" d="M552.59,-243.81C552.59,-224.11 552.59,-191.58 552.59,-168.39"/>
<polygon fill="black" stroke="black" points="556.09,-168.16 552.59,-158.16 549.09,-168.16 556.09,-168.16"/>
</g>
<!-- n8 -->
<g id="node7" class="node">
<title>n8</title>
<path fill="palegreen" stroke="black" d="M937.09,-158C937.09,-158 744.09,-158 744.09,-158 738.09,-158 732.09,-152 732.09,-146 732.09,-146 732.09,-134 732.09,-134 732.09,-128 738.09,-122 744.09,-122 744.09,-122 937.09,-122 937.09,-122 943.09,-122 949.09,-128 949.09,-134 949.09,-134 949.09,-146 949.09,-146 949.09,-152 943.09,-158 937.09,-158"/>
<text text-anchor="middle" x="840.59" y="-136.3" font-family="Arial" font-size="14.00">Labels simple animals and plants</text>
</g>
<!-- n2&#45;&gt;n8 -->
<g id="edge6" class="edge">
<title>n2&#45;&gt;n8</title>
<path fill="none" stroke="black" d="M593.55,-243.93C645.37,-222.34 734.58,-185.17 790.43,-161.9"/>
<polygon fill="black" stroke="black" points="791.88,-165.09 799.77,-158.01 789.19,-158.62 791.88,-165.09"/>
</g>
<!-- n9 -->
<g id="node8" class="node">
<title>n9</title>
<polygon fill="lightcoral" stroke="black" points="186.59,-158 -0.09,-140 186.59,-122 373.27,-140 186.59,-158"/>
<text text-anchor="middle" x="186.59" y="-136.3" font-family="Arial" font-size="14.00">Limited diversity within habitats</text>
</g>
<!-- n2&#45;&gt;n9 -->
<g id="edge7" class="edge">
<title>n2&#45;&gt;n9</title>
<path fill="none" stroke="black" d="M500.54,-243.93C430.28,-220.9 305.95,-180.13 236.7,-157.43"/>
<polygon fill="black" stroke="black" points="237.49,-154.01 226.9,-154.22 235.31,-160.66 237.49,-154.01"/>
</g>
<!-- n3&#45;&gt;n6 -->
<g id="edge8" class="edge">
<title>n3&#45;&gt;n6</title>
<path fill="none" stroke="black" d="M789.34,-243.93C739.78,-222.39 654.54,-185.32 600.99,-162.04"/>
<polygon fill="black" stroke="black" points="602.27,-158.78 591.7,-158.01 599.48,-165.2 602.27,-158.78"/>
</g>
<!-- n3&#45;&gt;n8 -->
<g id="edge9" class="edge">
<title>n3&#45;&gt;n8</title>
<path fill="none" stroke="black" d="M830.31,-243.81C832.28,-224.11 835.53,-191.58 837.85,-168.39"/>
<polygon fill="black" stroke="black" points="841.36,-168.46 838.87,-158.16 834.39,-167.76 841.36,-168.46"/>
</g>
<!-- n4&#45;&gt;n8 -->
<g id="edge10" class="edge">
<title>n4&#45;&gt;n8</title>
<path fill="none" stroke="black" d="M1252.6,-244C1164.5,-221.98 1011.3,-183.68 918.58,-160.5"/>
<polygon fill="black" stroke="black" points="919.24,-157.06 908.69,-158.03 917.54,-163.85 919.24,-157.06"/>
</g>
<!-- n7 -->
<g id="node9" class="node">
<title>n7</title>
<path fill="palegreen" stroke="black" d="M1246.1,-158C1246.1,-158 1019.1,-158 1019.1,-158 1013.1,-158 1007.1,-152 1007.1,-146 1007.1,-146 1007.1,-134 1007.1,-134 1007.1,-128 1013.1,-122 1019.1,-122 1019.1,-122 1246.1,-122 1246.1,-122 1252.1,-122 1258.1,-128 1258.1,-134 1258.1,-134 1258.1,-146 1258.1,-146 1258.1,-152 1252.1,-158 1246.1,-158"/>
<text text-anchor="middle" x="1132.6" y="-136.3" font-family="Arial" font-size="14.00">Correctly identifies basic water habitats</text>
</g>
<!-- n4&#45;&gt;n7 -->
<g id="edge11" class="edge">
<title>n4&#45;&gt;n7</title>
<path fill="none" stroke="black" d="M1293.7,-243.81C1260.7,-222.78 1204.8,-187.11 1168.3,-163.8"/>
<polygon fill="black" stroke="black" points="1169.81,-160.61 1159.5,-158.16 1166.03,-166.5 1169.81,-160.61"/>
</g>
<!-- n11 -->
<g id="node10" class="node">
<title>n11</title>
<polygon fill="lightcoral" stroke="black" points="1569.6,-158 1315.72,-140 1569.6,-122 1823.47,-140 1569.6,-158"/>
<text text-anchor="middle" x="1569.6" y="-136.3" font-family="Arial" font-size="14.00">Misunderstands complex habitat depictions</text>
</g>
<!-- n4&#45;&gt;n11 -->
<g id="edge12" class="edge">
<title>n4&#45;&gt;n11</title>
<path fill="none" stroke="black" d="M1356,-243.93C1401.8,-221.85 1481.4,-183.48 1529.5,-160.34"/>
<polygon fill="black" stroke="black" points="1531.13,-163.44 1538.6,-155.93 1528.07,-157.14 1531.13,-163.44"/>
</g>
<!-- n5&#45;&gt;n8 -->
<g id="edge13" class="edge">
<title>n5&#45;&gt;n8</title>
<path fill="none" stroke="black" d="M1051.6,-243.93C1007.7,-222.52 932.4,-185.78 884.62,-162.48"/>
<polygon fill="black" stroke="black" points="885.97,-159.25 875.45,-158.01 882.9,-165.54 885.97,-159.25"/>
</g>
<!-- n5&#45;&gt;n7 -->
<g id="edge14" class="edge">
<title>n5&#45;&gt;n7</title>
<path fill="none" stroke="black" d="M1093.2,-243.81C1100.8,-223.94 1113.4,-190.99 1122.3,-167.76"/>
<polygon fill="black" stroke="black" points="1125.67,-168.75 1126,-158.16 1119.14,-166.23 1125.67,-168.75"/>
</g>
<!-- n5&#45;&gt;n11 -->
<g id="edge15" class="edge">
<title>n5&#45;&gt;n11</title>
<path fill="none" stroke="black" d="M1155,-244C1248.7,-220.72 1415.6,-179.26 1506.4,-156.69"/>
<polygon fill="black" stroke="black" points="1507.44,-160.04 1516.3,-154.23 1505.75,-153.24 1507.44,-160.04"/>
</g>
<!-- n10 -->
<g id="node11" class="node">
<title>n10</title>
<polygon fill="#f28e8e" stroke="black" points="306.59,-36 66.59,-36 66.59,0 306.59,0 306.59,-36"/>
<text text-anchor="middle" x="186.59" y="-14.3" font-family="Arial" font-size="14.00">Add more diverse plants and animals</text>
</g>
<!-- n9&#45;&gt;n10 -->
<g id="edge16" class="edge">
<title>n9&#45;&gt;n10</title>
<path fill="none" stroke="black" d="M186.59,-121.81C186.59,-102.11 186.59,-69.58 186.59,-46.39"/>
<polygon fill="black" stroke="black" points="190.09,-46.16 186.59,-36.16 183.09,-46.16 190.09,-46.16"/>
</g>
<!-- n12 -->
<g id="node12" class="node">
<title>n12</title>
<polygon fill="#f28e8e" stroke="black" points="1742.1,-36 1397.1,-36 1397.1,0 1742.1,0 1742.1,-36"/>
<text text-anchor="middle" x="1569.6" y="-14.3" font-family="Arial" font-size="14.00">Incorporate more complex habitats like forests or lakes</text>
</g>
<!-- n11&#45;&gt;n12 -->
<g id="edge17" class="edge">
<title>n11&#45;&gt;n12</title>
<path fill="none" stroke="black" d="M1569.6,-121.81C1569.6,-102.11 1569.6,-69.58 1569.6,-46.39"/>
<polygon fill="black" stroke="black" points="1573.1,-46.16 1569.6,-36.16 1566.1,-46.16 1573.1,-46.16"/>
</g>
</g>
</svg>
