<?xml version="1.0" encoding="UTF-8" standalone="no"?>
<!DOCTYPE svg PUBLIC "-//W3C//DTD SVG 1.1//EN"
 "http://www.w3.org/Graphics/SVG/1.1/DTD/svg11.dtd">
<!-- Generated by graphviz version 2.43.0 (0)
 -->
<!-- Pages: 1 -->
<svg width="1126pt" height="410pt"
 viewBox="0.00 0.00 1126.00 410.00" xmlns="http://www.w3.org/2000/svg" xmlns:xlink="http://www.w3.org/1999/xlink">
<g id="graph0" class="graph" transform="scale(1 1) rotate(0) translate(4 406)">
<polygon fill="white" stroke="transparent" points="-4,4 -4,-406 1122,-406 1122,4 -4,4"/>
<!-- n1 -->
<g id="node1" class="node">
<title>n1</title>
<polygon fill="lightblue" stroke="black" points="778,-384 647.75,-402 387.25,-402 257,-384 387.25,-366 647.75,-366 778,-384"/>
<text text-anchor="middle" x="517.5" y="-380.3" font-family="Arial" font-size="14.00">Draw two habitats and the different living things in each</text>
</g>
<!-- n2 -->
<g id="node2" class="node">
<title>n2</title>
<polygon fill="#fffdd0" stroke="black" points="499.5,-280 209.5,-280 209.5,-244 499.5,-244 499.5,-280"/>
<text text-anchor="middle" x="354.5" y="-258.3" font-family="Arial" font-size="14.00">Forest with tall green trees, bushes, and birds</text>
</g>
<!-- n1&#45;&gt;n2 -->
<g id="edge1" class="edge">
<title>n1&#45;&gt;n2</title>
<path fill="none" stroke="black" d="M494.15,-365.81C465.7,-344.87 417.54,-309.41 385.88,-286.1"/>
<polygon fill="black" stroke="black" points="387.94,-283.27 377.81,-280.16 383.79,-288.91 387.94,-283.27"/>
</g>
<!-- n3 -->
<g id="node3" class="node">
<title>n3</title>
<polygon fill="#fffdd0" stroke="black" points="805.5,-280 557.5,-280 557.5,-244 805.5,-244 805.5,-280"/>
<text text-anchor="middle" x="681.5" y="-258.3" font-family="Arial" font-size="14.00">Pond with fish and seaweed, dragonfly</text>
</g>
<!-- n1&#45;&gt;n3 -->
<g id="edge2" class="edge">
<title>n1&#45;&gt;n3</title>
<path fill="none" stroke="black" d="M541,-365.81C569.62,-344.87 618.07,-309.41 649.93,-286.1"/>
<polygon fill="black" stroke="black" points="652.05,-288.89 658.05,-280.16 647.91,-283.24 652.05,-288.89"/>
</g>
<!-- n4 -->
<g id="node4" class="node">
<title>n4</title>
<path fill="palegreen" stroke="black" d="M805,-158C805,-158 566,-158 566,-158 560,-158 554,-152 554,-146 554,-146 554,-134 554,-134 554,-128 560,-122 566,-122 566,-122 805,-122 805,-122 811,-122 817,-128 817,-134 817,-134 817,-146 817,-146 817,-152 811,-158 805,-158"/>
<text text-anchor="middle" x="685.5" y="-136.3" font-family="Arial" font-size="14.00">Correct understanding of diverse habitats</text>
</g>
<!-- n2&#45;&gt;n4 -->
<g id="edge3" class="edge">
<title>n2&#45;&gt;n4</title>
<path fill="none" stroke="black" d="M401.57,-243.93C461.5,-222.21 564.93,-184.71 629.04,-161.47"/>
<polygon fill="black" stroke="black" points="630.38,-164.71 638.59,-158.01 628,-158.13 630.38,-164.71"/>
</g>
<!-- n5 -->
<g id="node5" class="node">
<title>n5</title>
<path fill="palegreen" stroke="black" d="M1106,-158C1106,-158 887,-158 887,-158 881,-158 875,-152 875,-146 875,-146 875,-134 875,-134 875,-128 881,-122 887,-122 887,-122 1106,-122 1106,-122 1112,-122 1118,-128 1118,-134 1118,-134 1118,-146 1118,-146 1118,-152 1112,-158 1106,-158"/>
<text text-anchor="middle" x="996.5" y="-136.3" font-family="Arial" font-size="14.00">Correct labeling of plants and animals</text>
</g>
<!-- n2&#45;&gt;n5 -->
<g id="edge4" class="edge">
<title>n2&#45;&gt;n5</title>
<path fill="none" stroke="black" d="M445.46,-244C564.35,-221.78 771.93,-182.98 895.55,-159.87"/>
<polygon fill="black" stroke="black" points="896.22,-163.31 905.41,-158.03 894.94,-156.42 896.22,-163.31"/>
</g>
<!-- n6 -->
<g id="node6" class="node">
<title>n6</title>
<path fill="palegreen" stroke="black" d="M135,-158C135,-158 12,-158 12,-158 6,-158 0,-152 0,-146 0,-146 0,-134 0,-134 0,-128 6,-122 12,-122 12,-122 135,-122 135,-122 141,-122 147,-128 147,-134 147,-134 147,-146 147,-146 147,-152 141,-158 135,-158"/>
<text text-anchor="middle" x="73.5" y="-136.3" font-family="Arial" font-size="14.00">Diversity of life shown</text>
</g>
<!-- n2&#45;&gt;n6 -->
<g id="edge5" class="edge">
<title>n2&#45;&gt;n6</title>
<path fill="none" stroke="black" d="M314.54,-243.93C264.08,-222.39 177.29,-185.32 122.78,-162.04"/>
<polygon fill="black" stroke="black" points="123.89,-158.71 113.32,-158.01 121.15,-165.15 123.89,-158.71"/>
</g>
<!-- n7 -->
<g id="node7" class="node">
<title>n7</title>
<polygon fill="lightcoral" stroke="black" points="350.5,-158 205.05,-140 350.5,-122 495.95,-140 350.5,-158"/>
<text text-anchor="middle" x="350.5" y="-136.3" font-family="Arial" font-size="14.00">Potential clutter/overlap</text>
</g>
<!-- n2&#45;&gt;n7 -->
<g id="edge6" class="edge">
<title>n2&#45;&gt;n7</title>
<path fill="none" stroke="black" d="M353.93,-243.81C353.27,-224.11 352.19,-191.58 351.41,-168.39"/>
<polygon fill="black" stroke="black" points="354.9,-168.04 351.07,-158.16 347.9,-168.27 354.9,-168.04"/>
</g>
<!-- n3&#45;&gt;n4 -->
<g id="edge7" class="edge">
<title>n3&#45;&gt;n4</title>
<path fill="none" stroke="black" d="M682.07,-243.81C682.73,-224.11 683.81,-191.58 684.59,-168.39"/>
<polygon fill="black" stroke="black" points="688.1,-168.27 684.93,-158.16 681.1,-168.04 688.1,-168.27"/>
</g>
<!-- n3&#45;&gt;n5 -->
<g id="edge8" class="edge">
<title>n3&#45;&gt;n5</title>
<path fill="none" stroke="black" d="M726.3,-243.93C783.21,-222.25 881.36,-184.86 942.39,-161.61"/>
<polygon fill="black" stroke="black" points="943.76,-164.84 951.86,-158.01 941.27,-158.29 943.76,-164.84"/>
</g>
<!-- n3&#45;&gt;n6 -->
<g id="edge9" class="edge">
<title>n3&#45;&gt;n6</title>
<path fill="none" stroke="black" d="M595.36,-244C478.85,-221 272.42,-180.26 157.19,-157.52"/>
<polygon fill="black" stroke="black" points="157.84,-154.08 147.35,-155.58 156.48,-160.95 157.84,-154.08"/>
</g>
<!-- n3&#45;&gt;n7 -->
<g id="edge10" class="edge">
<title>n3&#45;&gt;n7</title>
<path fill="none" stroke="black" d="M634.43,-243.93C570.73,-220.84 457.87,-179.92 395.34,-157.26"/>
<polygon fill="black" stroke="black" points="396.34,-153.9 385.75,-153.78 393.96,-160.48 396.34,-153.9"/>
</g>
<!-- n8 -->
<g id="node8" class="node">
<title>n8</title>
<polygon fill="#f28e8e" stroke="black" points="482.5,-36 218.5,-36 218.5,0 482.5,0 482.5,-36"/>
<text text-anchor="middle" x="350.5" y="-14.3" font-family="Arial" font-size="14.00">Improve organization to highlight contrast</text>
</g>
<!-- n7&#45;&gt;n8 -->
<g id="edge11" class="edge">
<title>n7&#45;&gt;n8</title>
<path fill="none" stroke="black" d="M350.5,-121.81C350.5,-102.11 350.5,-69.58 350.5,-46.39"/>
<polygon fill="black" stroke="black" points="354,-46.16 350.5,-36.16 347,-46.16 354,-46.16"/>
</g>
</g>
</svg>
