<?xml version="1.0" encoding="UTF-8" standalone="no"?>
<!DOCTYPE svg PUBLIC "-//W3C//DTD SVG 1.1//EN"
 "http://www.w3.org/Graphics/SVG/1.1/DTD/svg11.dtd">
<!-- Generated by graphviz version 2.43.0 (0)
 -->
<!-- Pages: 1 -->
<svg width="1762pt" height="410pt"
 viewBox="0.00 0.00 1761.50 410.00" xmlns="http://www.w3.org/2000/svg" xmlns:xlink="http://www.w3.org/1999/xlink">
<g id="graph0" class="graph" transform="scale(1 1) rotate(0) translate(4 406)">
<polygon fill="white" stroke="transparent" points="-4,4 -4,-406 1757.5,-406 1757.5,4 -4,4"/>
<!-- n1 -->
<g id="node1" class="node">
<title>n1</title>
<polygon fill="lightblue" stroke="black" points="1140.82,-384 1018.41,-402 773.59,-402 651.18,-384 773.59,-366 1018.41,-366 1140.82,-384"/>
<text text-anchor="middle" x="896" y="-380.3" font-family="Arial" font-size="14.00">Draw a habitat and the different living things in each</text>
</g>
<!-- n2 -->
<g id="node2" class="node">
<title>n2</title>
<polygon fill="#fffdd0" stroke="black" points="449,-280 273,-280 273,-244 449,-244 449,-280"/>
<text text-anchor="middle" x="361" y="-258.3" font-family="Arial" font-size="14.00">Forest with big green trees</text>
</g>
<!-- n1&#45;&gt;n2 -->
<g id="edge1" class="edge">
<title>n1&#45;&gt;n2</title>
<path fill="none" stroke="black" d="M820.2,-366C721.62,-343.89 549.88,-305.37 446.68,-282.22"/>
<polygon fill="black" stroke="black" points="447.43,-278.8 436.91,-280.03 445.9,-285.63 447.43,-278.8"/>
</g>
<!-- n3 -->
<g id="node3" class="node">
<title>n3</title>
<polygon fill="#fffdd0" stroke="black" points="1090.5,-280 925.5,-280 925.5,-244 1090.5,-244 1090.5,-280"/>
<text text-anchor="middle" x="1008" y="-258.3" font-family="Arial" font-size="14.00">A squirrel climbing a tree</text>
</g>
<!-- n1&#45;&gt;n3 -->
<g id="edge2" class="edge">
<title>n1&#45;&gt;n3</title>
<path fill="none" stroke="black" d="M912.05,-365.81C931.18,-345.31 963.28,-310.91 985.04,-287.6"/>
<polygon fill="black" stroke="black" points="987.72,-289.86 991.98,-280.16 982.6,-285.09 987.72,-289.86"/>
</g>
<!-- n4 -->
<g id="node4" class="node">
<title>n4</title>
<polygon fill="#fffdd0" stroke="black" points="214.5,-280 23.5,-280 23.5,-244 214.5,-244 214.5,-280"/>
<text text-anchor="middle" x="119" y="-258.3" font-family="Arial" font-size="14.00">Flowers and grass on ground</text>
</g>
<!-- n1&#45;&gt;n4 -->
<g id="edge3" class="edge">
<title>n1&#45;&gt;n4</title>
<path fill="none" stroke="black" d="M785.91,-366C636.54,-342.93 371.48,-301.99 224.51,-279.29"/>
<polygon fill="black" stroke="black" points="224.99,-275.82 214.57,-277.76 223.92,-282.74 224.99,-275.82"/>
</g>
<!-- n5 -->
<g id="node5" class="node">
<title>n5</title>
<polygon fill="#fffdd0" stroke="black" points="867,-280 701,-280 701,-244 867,-244 867,-280"/>
<text text-anchor="middle" x="784" y="-258.3" font-family="Arial" font-size="14.00">Pond with fish swimming</text>
</g>
<!-- n1&#45;&gt;n5 -->
<g id="edge4" class="edge">
<title>n1&#45;&gt;n5</title>
<path fill="none" stroke="black" d="M879.95,-365.81C860.82,-345.31 828.72,-310.91 806.96,-287.6"/>
<polygon fill="black" stroke="black" points="809.4,-285.09 800.02,-280.16 804.28,-289.86 809.4,-285.09"/>
</g>
<!-- n6 -->
<g id="node6" class="node">
<title>n6</title>
<polygon fill="#fffdd0" stroke="black" points="643,-280 507,-280 507,-244 643,-244 643,-280"/>
<text text-anchor="middle" x="575" y="-258.3" font-family="Arial" font-size="14.00">Lily pads with a frog</text>
</g>
<!-- n1&#45;&gt;n6 -->
<g id="edge5" class="edge">
<title>n1&#45;&gt;n6</title>
<path fill="none" stroke="black" d="M850.35,-365.93C792.35,-344.25 692.34,-306.86 630.14,-283.61"/>
<polygon fill="black" stroke="black" points="631.08,-280.23 620.49,-280.01 628.64,-286.78 631.08,-280.23"/>
</g>
<!-- n7 -->
<g id="node7" class="node">
<title>n7</title>
<polygon fill="#fffdd0" stroke="black" points="1307,-280 1149,-280 1149,-244 1307,-244 1307,-280"/>
<text text-anchor="middle" x="1228" y="-258.3" font-family="Arial" font-size="14.00">Reeds around the pond</text>
</g>
<!-- n1&#45;&gt;n7 -->
<g id="edge6" class="edge">
<title>n1&#45;&gt;n7</title>
<path fill="none" stroke="black" d="M943.21,-365.93C1003.3,-344.21 1107.1,-306.71 1171.4,-283.47"/>
<polygon fill="black" stroke="black" points="1172.7,-286.72 1180.9,-280.01 1170.31,-280.14 1172.7,-286.72"/>
</g>
<!-- n8 -->
<g id="node8" class="node">
<title>n8</title>
<polygon fill="#fffdd0" stroke="black" points="1512.5,-280 1365.5,-280 1365.5,-244 1512.5,-244 1512.5,-280"/>
<text text-anchor="middle" x="1439" y="-258.3" font-family="Arial" font-size="14.00">A bird flying in the sky</text>
</g>
<!-- n1&#45;&gt;n8 -->
<g id="edge7" class="edge">
<title>n1&#45;&gt;n8</title>
<path fill="none" stroke="black" d="M972.93,-366C1074.1,-343.64 1251.3,-304.49 1355.6,-281.44"/>
<polygon fill="black" stroke="black" points="1356.4,-284.85 1365.4,-279.26 1354.88,-278.02 1356.4,-284.85"/>
</g>
<!-- n9 -->
<g id="node9" class="node">
<title>n9</title>
<polygon fill="#fffdd0" stroke="black" points="1753.5,-280 1570.5,-280 1570.5,-244 1753.5,-244 1753.5,-280"/>
<text text-anchor="middle" x="1662" y="-258.3" font-family="Arial" font-size="14.00">Duck swimming in the pond</text>
</g>
<!-- n1&#45;&gt;n9 -->
<g id="edge8" class="edge">
<title>n1&#45;&gt;n9</title>
<path fill="none" stroke="black" d="M1004.5,-366C1152.5,-342.81 1415.8,-301.57 1560.2,-278.94"/>
<polygon fill="black" stroke="black" points="1561.06,-282.35 1570.4,-277.35 1559.98,-275.43 1561.06,-282.35"/>
</g>
<!-- n10 -->
<g id="node10" class="node">
<title>n10</title>
<path fill="palegreen" stroke="black" d="M637.5,-158C637.5,-158 320.5,-158 320.5,-158 314.5,-158 308.5,-152 308.5,-146 308.5,-146 308.5,-134 308.5,-134 308.5,-128 314.5,-122 320.5,-122 320.5,-122 637.5,-122 637.5,-122 643.5,-122 649.5,-128 649.5,-134 649.5,-134 649.5,-146 649.5,-146 649.5,-152 643.5,-158 637.5,-158"/>
<text text-anchor="middle" x="479" y="-136.3" font-family="Arial" font-size="14.00">Recognizes differences between land &amp; water habitats</text>
</g>
<!-- n2&#45;&gt;n10 -->
<g id="edge9" class="edge">
<title>n2&#45;&gt;n10</title>
<path fill="none" stroke="black" d="M377.91,-243.81C398.15,-223.22 432.18,-188.61 455.1,-165.3"/>
<polygon fill="black" stroke="black" points="457.6,-167.74 462.12,-158.16 452.61,-162.84 457.6,-167.74"/>
</g>
<!-- n12 -->
<g id="node11" class="node">
<title>n12</title>
<path fill="palegreen" stroke="black" d="M1543,-158C1543,-158 1335,-158 1335,-158 1329,-158 1323,-152 1323,-146 1323,-146 1323,-134 1323,-134 1323,-128 1329,-122 1335,-122 1335,-122 1543,-122 1543,-122 1549,-122 1555,-128 1555,-134 1555,-134 1555,-146 1555,-146 1555,-152 1549,-158 1543,-158"/>
<text text-anchor="middle" x="1439" y="-136.3" font-family="Arial" font-size="14.00">Identifies animals in correct habitats</text>
</g>
<!-- n3&#45;&gt;n12 -->
<g id="edge10" class="edge">
<title>n3&#45;&gt;n12</title>
<path fill="none" stroke="black" d="M1069.3,-243.93C1148.1,-221.99 1284.8,-183.94 1368,-160.76"/>
<polygon fill="black" stroke="black" points="1369.2,-164.06 1377.9,-158.01 1367.33,-157.31 1369.2,-164.06"/>
</g>
<!-- n11 -->
<g id="node12" class="node">
<title>n11</title>
<path fill="palegreen" stroke="black" d="M226,-158C226,-158 12,-158 12,-158 6,-158 0,-152 0,-146 0,-146 0,-134 0,-134 0,-128 6,-122 12,-122 12,-122 226,-122 226,-122 232,-122 238,-128 238,-134 238,-134 238,-146 238,-146 238,-152 232,-158 226,-158"/>
<text text-anchor="middle" x="119" y="-136.3" font-family="Arial" font-size="14.00">Understands correct plant placement</text>
</g>
<!-- n4&#45;&gt;n11 -->
<g id="edge11" class="edge">
<title>n4&#45;&gt;n11</title>
<path fill="none" stroke="black" d="M119,-243.81C119,-224.11 119,-191.58 119,-168.39"/>
<polygon fill="black" stroke="black" points="122.5,-168.16 119,-158.16 115.5,-168.16 122.5,-168.16"/>
</g>
<!-- n5&#45;&gt;n10 -->
<g id="edge12" class="edge">
<title>n5&#45;&gt;n10</title>
<path fill="none" stroke="black" d="M740.62,-243.93C685.63,-222.3 590.88,-185.02 531.76,-161.76"/>
<polygon fill="black" stroke="black" points="532.82,-158.41 522.23,-158.01 530.25,-164.93 532.82,-158.41"/>
</g>
<!-- n13 -->
<g id="node13" class="node">
<title>n13</title>
<polygon fill="lightcoral" stroke="black" points="980,-158 707,-140 980,-122 1253,-140 980,-158"/>
<text text-anchor="middle" x="980" y="-136.3" font-family="Arial" font-size="14.00">Misunderstanding: Limited to common species</text>
</g>
<!-- n5&#45;&gt;n13 -->
<g id="edge13" class="edge">
<title>n5&#45;&gt;n13</title>
<path fill="none" stroke="black" d="M812.08,-243.81C847.46,-222.15 908.2,-184.96 946.12,-161.75"/>
<polygon fill="black" stroke="black" points="948.07,-164.66 954.77,-156.45 944.41,-158.69 948.07,-164.66"/>
</g>
<!-- n6&#45;&gt;n10 -->
<g id="edge14" class="edge">
<title>n6&#45;&gt;n10</title>
<path fill="none" stroke="black" d="M561.25,-243.81C544.99,-223.49 517.81,-189.51 499.17,-166.21"/>
<polygon fill="black" stroke="black" points="501.71,-163.78 492.73,-158.16 496.24,-168.16 501.71,-163.78"/>
</g>
<!-- n8&#45;&gt;n12 -->
<g id="edge15" class="edge">
<title>n8&#45;&gt;n12</title>
<path fill="none" stroke="black" d="M1439,-243.81C1439,-224.11 1439,-191.58 1439,-168.39"/>
<polygon fill="black" stroke="black" points="1442.5,-168.16 1439,-158.16 1435.5,-168.16 1442.5,-168.16"/>
</g>
<!-- n9&#45;&gt;n12 -->
<g id="edge16" class="edge">
<title>n9&#45;&gt;n12</title>
<path fill="none" stroke="black" d="M1630,-243.81C1590.5,-222.51 1523,-186.2 1479.7,-162.92"/>
<polygon fill="black" stroke="black" points="1481.36,-159.84 1470.9,-158.16 1478.03,-166 1481.36,-159.84"/>
</g>
<!-- n14 -->
<g id="node14" class="node">
<title>n14</title>
<polygon fill="#f28e8e" stroke="black" points="1103.5,-36 856.5,-36 856.5,0 1103.5,0 1103.5,-36"/>
<text text-anchor="middle" x="980" y="-14.3" font-family="Arial" font-size="14.00">Introduce diverse species visualization</text>
</g>
<!-- n13&#45;&gt;n14 -->
<g id="edge17" class="edge">
<title>n13&#45;&gt;n14</title>
<path fill="none" stroke="black" d="M980,-121.81C980,-102.11 980,-69.58 980,-46.39"/>
<polygon fill="black" stroke="black" points="983.5,-46.16 980,-36.16 976.5,-46.16 983.5,-46.16"/>
</g>
</g>
</svg>
