<?xml version="1.0" encoding="UTF-8" standalone="no"?>
<!DOCTYPE svg PUBLIC "-//W3C//DTD SVG 1.1//EN"
 "http://www.w3.org/Graphics/SVG/1.1/DTD/svg11.dtd">
<!-- Generated by graphviz version 2.43.0 (0)
 -->
<!-- Pages: 1 -->
<svg width="1126pt" height="410pt"
 viewBox="0.00 0.00 1125.50 410.00" xmlns="http://www.w3.org/2000/svg" xmlns:xlink="http://www.w3.org/1999/xlink">
<g id="graph0" class="graph" transform="scale(1 1) rotate(0) translate(4 406)">
<polygon fill="white" stroke="transparent" points="-4,4 -4,-406 1121.5,-406 1121.5,4 -4,4"/>
<!-- n1 -->
<g id="node1" class="node">
<title>n1</title>
<polygon fill="lightblue" stroke="black" points="730.5,-384 616.75,-402 389.25,-402 275.5,-384 389.25,-366 616.75,-366 730.5,-384"/>
<text text-anchor="middle" x="503" y="-380.3" font-family="Arial" font-size="14.00">Illustrate plants with and without water and light.</text>
</g>
<!-- n2 -->
<g id="node2" class="node">
<title>n2</title>
<polygon fill="#fffdd0" stroke="black" points="302,-280 0,-280 0,-244 302,-244 302,-280"/>
<text text-anchor="middle" x="151" y="-258.3" font-family="Arial" font-size="14.00">Healthy plant with bright green stem and leaves</text>
</g>
<!-- n1&#45;&gt;n2 -->
<g id="edge1" class="edge">
<title>n1&#45;&gt;n2</title>
<path fill="none" stroke="black" d="M452.94,-365.93C389.08,-344.16 278.76,-306.56 210.62,-283.33"/>
<polygon fill="black" stroke="black" points="211.48,-279.93 200.89,-280.01 209.22,-286.55 211.48,-279.93"/>
</g>
<!-- n3 -->
<g id="node3" class="node">
<title>n3</title>
<polygon fill="#fffdd0" stroke="black" points="646,-280 360,-280 360,-244 646,-244 646,-280"/>
<text text-anchor="middle" x="503" y="-258.3" font-family="Arial" font-size="14.00">Unhealthy plant with droopy stem and leaves</text>
</g>
<!-- n1&#45;&gt;n3 -->
<g id="edge2" class="edge">
<title>n1&#45;&gt;n3</title>
<path fill="none" stroke="black" d="M503,-365.81C503,-346.11 503,-313.58 503,-290.39"/>
<polygon fill="black" stroke="black" points="506.5,-290.16 503,-280.16 499.5,-290.16 506.5,-290.16"/>
</g>
<!-- n4 -->
<g id="node4" class="node">
<title>n4</title>
<polygon fill="#fffdd0" stroke="black" points="950,-280 732,-280 732,-244 950,-244 950,-280"/>
<text text-anchor="middle" x="841" y="-258.3" font-family="Arial" font-size="14.00">Unhealthy plant with fewer leaves</text>
</g>
<!-- n1&#45;&gt;n4 -->
<g id="edge3" class="edge">
<title>n1&#45;&gt;n4</title>
<path fill="none" stroke="black" d="M551.07,-365.93C612.26,-344.21 717.88,-306.71 783.35,-283.47"/>
<polygon fill="black" stroke="black" points="784.85,-286.65 793.1,-280.01 782.51,-280.06 784.85,-286.65"/>
</g>
<!-- n5 -->
<g id="node5" class="node">
<title>n5</title>
<path fill="palegreen" stroke="black" d="M253,-158C253,-158 49,-158 49,-158 43,-158 37,-152 37,-146 37,-146 37,-134 37,-134 37,-128 43,-122 49,-122 49,-122 253,-122 253,-122 259,-122 265,-128 265,-134 265,-134 265,-146 265,-146 265,-152 259,-158 253,-158"/>
<text text-anchor="middle" x="151" y="-136.3" font-family="Arial" font-size="14.00">Healthy plant due to water and light</text>
</g>
<!-- n2&#45;&gt;n5 -->
<g id="edge4" class="edge">
<title>n2&#45;&gt;n5</title>
<path fill="none" stroke="black" d="M151,-243.81C151,-224.11 151,-191.58 151,-168.39"/>
<polygon fill="black" stroke="black" points="154.5,-168.16 151,-158.16 147.5,-168.16 154.5,-168.16"/>
</g>
<!-- n6 -->
<g id="node6" class="node">
<title>n6</title>
<path fill="palegreen" stroke="black" d="M598.5,-158C598.5,-158 359.5,-158 359.5,-158 353.5,-158 347.5,-152 347.5,-146 347.5,-146 347.5,-134 347.5,-134 347.5,-128 353.5,-122 359.5,-122 359.5,-122 598.5,-122 598.5,-122 604.5,-122 610.5,-128 610.5,-134 610.5,-134 610.5,-146 610.5,-146 610.5,-152 604.5,-158 598.5,-158"/>
<text text-anchor="middle" x="479" y="-136.3" font-family="Arial" font-size="14.00">Lack of water causes droopy appearance</text>
</g>
<!-- n3&#45;&gt;n6 -->
<g id="edge5" class="edge">
<title>n3&#45;&gt;n6</title>
<path fill="none" stroke="black" d="M499.56,-243.81C495.6,-224.02 489.06,-191.29 484.42,-168.08"/>
<polygon fill="black" stroke="black" points="487.83,-167.28 482.43,-158.16 480.97,-168.65 487.83,-167.28"/>
</g>
<!-- n7 -->
<g id="node7" class="node">
<title>n7</title>
<polygon fill="lightcoral" stroke="black" points="893,-158 668.5,-140 893,-122 1117.5,-140 893,-158"/>
<text text-anchor="middle" x="893" y="-136.3" font-family="Arial" font-size="14.00">Lack of light indicated by fewer leaves</text>
</g>
<!-- n4&#45;&gt;n7 -->
<g id="edge6" class="edge">
<title>n4&#45;&gt;n7</title>
<path fill="none" stroke="black" d="M848.45,-243.81C857.15,-223.73 871.63,-190.32 881.71,-167.06"/>
<polygon fill="black" stroke="black" points="884.97,-168.34 885.73,-157.77 878.55,-165.56 884.97,-168.34"/>
</g>
<!-- n8 -->
<g id="node8" class="node">
<title>n8</title>
<polygon fill="#f28e8e" stroke="black" points="1054,-36 732,-36 732,0 1054,0 1054,-36"/>
<text text-anchor="middle" x="893" y="-14.3" font-family="Arial" font-size="14.00">Clarify specific growth indicators lacking in low light</text>
</g>
<!-- n7&#45;&gt;n8 -->
<g id="edge7" class="edge">
<title>n7&#45;&gt;n8</title>
<path fill="none" stroke="black" d="M893,-121.81C893,-102.11 893,-69.58 893,-46.39"/>
<polygon fill="black" stroke="black" points="896.5,-46.16 893,-36.16 889.5,-46.16 896.5,-46.16"/>
</g>
</g>
</svg>
