<?xml version="1.0" encoding="UTF-8" standalone="no"?>
<!DOCTYPE svg PUBLIC "-//W3C//DTD SVG 1.1//EN"
 "http://www.w3.org/Graphics/SVG/1.1/DTD/svg11.dtd">
<!-- Generated by graphviz version 2.43.0 (0)
 -->
<!-- Pages: 1 -->
<svg width="1340pt" height="410pt"
 viewBox="0.00 0.00 1339.50 410.00" xmlns="http://www.w3.org/2000/svg" xmlns:xlink="http://www.w3.org/1999/xlink">
<g id="graph0" class="graph" transform="scale(1 1) rotate(0) translate(4 406)">
<polygon fill="white" stroke="transparent" points="-4,4 -4,-406 1335.5,-406 1335.5,4 -4,4"/>
<!-- n1 -->
<g id="node1" class="node">
<title>n1</title>
<polygon fill="lightblue" stroke="black" points="823,-384 733.25,-402 553.75,-402 464,-384 553.75,-366 733.25,-366 823,-384"/>
<text text-anchor="middle" x="643.5" y="-380.3" font-family="Arial" font-size="14.00">Draw a fish in their habitat with labels</text>
</g>
<!-- n2 -->
<g id="node2" class="node">
<title>n2</title>
<polygon fill="#fffdd0" stroke="black" points="362.5,-280 68.5,-280 68.5,-244 362.5,-244 362.5,-280"/>
<text text-anchor="middle" x="215.5" y="-258.3" font-family="Arial" font-size="14.00">Fish submerged in blue area (water) with label</text>
</g>
<!-- n1&#45;&gt;n2 -->
<g id="edge1" class="edge">
<title>n1&#45;&gt;n2</title>
<path fill="none" stroke="black" d="M582.63,-365.93C504.35,-343.99 368.65,-305.94 285.97,-282.76"/>
<polygon fill="black" stroke="black" points="286.73,-279.34 276.16,-280.01 284.84,-286.08 286.73,-279.34"/>
</g>
<!-- n3 -->
<g id="node3" class="node">
<title>n3</title>
<polygon fill="#fffdd0" stroke="black" points="781.5,-280 505.5,-280 505.5,-244 781.5,-244 781.5,-280"/>
<text text-anchor="middle" x="643.5" y="-258.3" font-family="Arial" font-size="14.00">Basic green plant labeled &#39;plant&#39; next to fish</text>
</g>
<!-- n1&#45;&gt;n3 -->
<g id="edge2" class="edge">
<title>n1&#45;&gt;n3</title>
<path fill="none" stroke="black" d="M643.5,-365.81C643.5,-346.11 643.5,-313.58 643.5,-290.39"/>
<polygon fill="black" stroke="black" points="647,-290.16 643.5,-280.16 640,-290.16 647,-290.16"/>
</g>
<!-- n4 -->
<g id="node4" class="node">
<title>n4</title>
<polygon fill="#fffdd0" stroke="black" points="1173.5,-280 953.5,-280 953.5,-244 1173.5,-244 1173.5,-280"/>
<text text-anchor="middle" x="1063.5" y="-258.3" font-family="Arial" font-size="14.00">Use of bold lines and bright colors</text>
</g>
<!-- n1&#45;&gt;n4 -->
<g id="edge3" class="edge">
<title>n1&#45;&gt;n4</title>
<path fill="none" stroke="black" d="M703.23,-365.93C780.05,-343.99 913.22,-305.94 994.35,-282.76"/>
<polygon fill="black" stroke="black" points="995.34,-286.12 1004,-280.01 993.42,-279.38 995.34,-286.12"/>
</g>
<!-- n5 -->
<g id="node5" class="node">
<title>n5</title>
<path fill="palegreen" stroke="black" d="M249,-158C249,-158 12,-158 12,-158 6,-158 0,-152 0,-146 0,-146 0,-134 0,-134 0,-128 6,-122 12,-122 12,-122 249,-122 249,-122 255,-122 261,-128 261,-134 261,-134 261,-146 261,-146 261,-152 255,-158 249,-158"/>
<text text-anchor="middle" x="130.5" y="-136.3" font-family="Arial" font-size="14.00">Student understands fish in water habitat</text>
</g>
<!-- n2&#45;&gt;n5 -->
<g id="edge4" class="edge">
<title>n2&#45;&gt;n5</title>
<path fill="none" stroke="black" d="M203.32,-243.81C188.99,-223.58 165.07,-189.81 148.58,-166.52"/>
<polygon fill="black" stroke="black" points="151.3,-164.3 142.66,-158.16 145.58,-168.34 151.3,-164.3"/>
</g>
<!-- n6 -->
<g id="node6" class="node">
<title>n6</title>
<polygon fill="lightcoral" stroke="black" points="643.5,-158 319,-140 643.5,-122 968,-140 643.5,-158"/>
<text text-anchor="middle" x="643.5" y="-136.3" font-family="Arial" font-size="14.00">Mistaken isolation of habitat elements (fish, water, plant)</text>
</g>
<!-- n3&#45;&gt;n6 -->
<g id="edge5" class="edge">
<title>n3&#45;&gt;n6</title>
<path fill="none" stroke="black" d="M643.5,-243.81C643.5,-224.11 643.5,-191.58 643.5,-168.39"/>
<polygon fill="black" stroke="black" points="647,-168.16 643.5,-158.16 640,-168.16 647,-168.16"/>
</g>
<!-- n7 -->
<g id="node7" class="node">
<title>n7</title>
<path fill="palegreen" stroke="black" d="M1319.5,-158C1319.5,-158 1037.5,-158 1037.5,-158 1031.5,-158 1025.5,-152 1025.5,-146 1025.5,-146 1025.5,-134 1025.5,-134 1025.5,-128 1031.5,-122 1037.5,-122 1037.5,-122 1319.5,-122 1319.5,-122 1325.5,-122 1331.5,-128 1331.5,-134 1331.5,-134 1331.5,-146 1331.5,-146 1331.5,-152 1325.5,-158 1319.5,-158"/>
<text text-anchor="middle" x="1178.5" y="-136.3" font-family="Arial" font-size="14.00">Simple style consistent with developmental level</text>
</g>
<!-- n4&#45;&gt;n7 -->
<g id="edge6" class="edge">
<title>n4&#45;&gt;n7</title>
<path fill="none" stroke="black" d="M1080,-243.81C1099.6,-223.31 1132.6,-188.91 1154.9,-165.6"/>
<polygon fill="black" stroke="black" points="1157.66,-167.78 1162.1,-158.16 1152.63,-162.91 1157.66,-167.78"/>
</g>
<!-- n8 -->
<g id="node8" class="node">
<title>n8</title>
<polygon fill="#f28e8e" stroke="black" points="806.5,-36 480.5,-36 480.5,0 806.5,0 806.5,-36"/>
<text text-anchor="middle" x="643.5" y="-14.3" font-family="Arial" font-size="14.00">Feedback: Encourage understanding of interactions</text>
</g>
<!-- n6&#45;&gt;n8 -->
<g id="edge7" class="edge">
<title>n6&#45;&gt;n8</title>
<path fill="none" stroke="black" d="M643.5,-121.81C643.5,-102.11 643.5,-69.58 643.5,-46.39"/>
<polygon fill="black" stroke="black" points="647,-46.16 643.5,-36.16 640,-46.16 647,-46.16"/>
</g>
</g>
</svg>
