<?xml version="1.0" encoding="UTF-8" standalone="no"?>
<!DOCTYPE svg PUBLIC "-//W3C//DTD SVG 1.1//EN"
 "http://www.w3.org/Graphics/SVG/1.1/DTD/svg11.dtd">
<!-- Generated by graphviz version 2.43.0 (0)
 -->
<!-- Pages: 1 -->
<svg width="1153pt" height="410pt"
 viewBox="0.00 0.00 1152.50 410.00" xmlns="http://www.w3.org/2000/svg" xmlns:xlink="http://www.w3.org/1999/xlink">
<g id="graph0" class="graph" transform="scale(1 1) rotate(0) translate(4 406)">
<polygon fill="white" stroke="transparent" points="-4,4 -4,-406 1148.5,-406 1148.5,4 -4,4"/>
<!-- n1 -->
<g id="node1" class="node">
<title>n1</title>
<polygon fill="lightblue" stroke="black" points="743.5,-384 632,-402 409,-402 297.5,-384 409,-366 632,-366 743.5,-384"/>
<text text-anchor="middle" x="520.5" y="-380.3" font-family="Arial" font-size="14.00">Draw a string telephone between two students.</text>
</g>
<!-- n2 -->
<g id="node2" class="node">
<title>n2</title>
<polygon fill="#fffdd0" stroke="black" points="309.5,-280 147.5,-280 147.5,-244 309.5,-244 309.5,-280"/>
<text text-anchor="middle" x="228.5" y="-258.3" font-family="Arial" font-size="14.00">Two stick figure humans</text>
</g>
<!-- n1&#45;&gt;n2 -->
<g id="edge1" class="edge">
<title>n1&#45;&gt;n2</title>
<path fill="none" stroke="black" d="M478.97,-365.93C426.43,-344.34 335.98,-307.17 279.36,-283.9"/>
<polygon fill="black" stroke="black" points="280.46,-280.57 269.88,-280.01 277.8,-287.04 280.46,-280.57"/>
</g>
<!-- n3 -->
<g id="node3" class="node">
<title>n3</title>
<polygon fill="#fffdd0" stroke="black" points="626,-280 415,-280 415,-244 626,-244 626,-280"/>
<text text-anchor="middle" x="520.5" y="-258.3" font-family="Arial" font-size="14.00">Straight line symbolizing a string</text>
</g>
<!-- n1&#45;&gt;n3 -->
<g id="edge2" class="edge">
<title>n1&#45;&gt;n3</title>
<path fill="none" stroke="black" d="M520.5,-365.81C520.5,-346.11 520.5,-313.58 520.5,-290.39"/>
<polygon fill="black" stroke="black" points="524,-290.16 520.5,-280.16 517,-290.16 524,-290.16"/>
</g>
<!-- n4 -->
<g id="node4" class="node">
<title>n4</title>
<polygon fill="#fffdd0" stroke="black" points="1011,-280 790,-280 790,-244 1011,-244 1011,-280"/>
<text text-anchor="middle" x="900.5" y="-258.3" font-family="Arial" font-size="14.00">Two small circles suggesting cups</text>
</g>
<!-- n1&#45;&gt;n4 -->
<g id="edge3" class="edge">
<title>n1&#45;&gt;n4</title>
<path fill="none" stroke="black" d="M574.54,-365.93C643.76,-344.07 763.55,-306.25 837.04,-283.04"/>
<polygon fill="black" stroke="black" points="838.17,-286.36 846.65,-280.01 836.06,-279.68 838.17,-286.36"/>
</g>
<!-- n5 -->
<g id="node5" class="node">
<title>n5</title>
<path fill="palegreen" stroke="black" d="M257,-158C257,-158 12,-158 12,-158 6,-158 0,-152 0,-146 0,-146 0,-134 0,-134 0,-128 6,-122 12,-122 12,-122 257,-122 257,-122 263,-122 269,-128 269,-134 269,-134 269,-146 269,-146 269,-152 263,-158 257,-158"/>
<text text-anchor="middle" x="134.5" y="-136.3" font-family="Arial" font-size="14.00">String connects people for communication</text>
</g>
<!-- n2&#45;&gt;n5 -->
<g id="edge4" class="edge">
<title>n2&#45;&gt;n5</title>
<path fill="none" stroke="black" d="M215.03,-243.81C199.12,-223.49 172.5,-189.51 154.25,-166.21"/>
<polygon fill="black" stroke="black" points="156.86,-163.87 147.94,-158.16 151.35,-168.19 156.86,-163.87"/>
</g>
<!-- n3&#45;&gt;n5 -->
<g id="edge5" class="edge">
<title>n3&#45;&gt;n5</title>
<path fill="none" stroke="black" d="M465.61,-243.93C395.29,-222.07 273.61,-184.25 198.97,-161.04"/>
<polygon fill="black" stroke="black" points="199.8,-157.63 189.21,-158.01 197.72,-164.32 199.8,-157.63"/>
</g>
<!-- n7 -->
<g id="node6" class="node">
<title>n7</title>
<polygon fill="lightcoral" stroke="black" points="568.5,-158 326.52,-140 568.5,-122 810.48,-140 568.5,-158"/>
<text text-anchor="middle" x="568.5" y="-136.3" font-family="Arial" font-size="14.00">Sound travels along string: missing detail</text>
</g>
<!-- n3&#45;&gt;n7 -->
<g id="edge6" class="edge">
<title>n3&#45;&gt;n7</title>
<path fill="none" stroke="black" d="M527.38,-243.81C535.37,-223.82 548.65,-190.62 557.95,-167.37"/>
<polygon fill="black" stroke="black" points="561.33,-168.35 561.79,-157.77 554.83,-165.75 561.33,-168.35"/>
</g>
<!-- n6 -->
<g id="node7" class="node">
<title>n6</title>
<path fill="palegreen" stroke="black" d="M1132.5,-158C1132.5,-158 880.5,-158 880.5,-158 874.5,-158 868.5,-152 868.5,-146 868.5,-146 868.5,-134 868.5,-134 868.5,-128 874.5,-122 880.5,-122 880.5,-122 1132.5,-122 1132.5,-122 1138.5,-122 1144.5,-128 1144.5,-134 1144.5,-134 1144.5,-146 1144.5,-146 1144.5,-152 1138.5,-158 1132.5,-158"/>
<text text-anchor="middle" x="1006.5" y="-136.3" font-family="Arial" font-size="14.00">Cups used for sending and receiving sound</text>
</g>
<!-- n4&#45;&gt;n6 -->
<g id="edge7" class="edge">
<title>n4&#45;&gt;n6</title>
<path fill="none" stroke="black" d="M915.69,-243.81C933.71,-223.4 963.91,-189.21 984.5,-165.91"/>
<polygon fill="black" stroke="black" points="987.35,-167.97 991.34,-158.16 982.1,-163.34 987.35,-167.97"/>
</g>
<!-- n8 -->
<g id="node8" class="node">
<title>n8</title>
<polygon fill="#f28e8e" stroke="black" points="734.5,-36 402.5,-36 402.5,0 734.5,0 734.5,-36"/>
<text text-anchor="middle" x="568.5" y="-14.3" font-family="Arial" font-size="14.00">Explain sound travel in the string and device function</text>
</g>
<!-- n7&#45;&gt;n8 -->
<g id="edge8" class="edge">
<title>n7&#45;&gt;n8</title>
<path fill="none" stroke="black" d="M568.5,-121.81C568.5,-102.11 568.5,-69.58 568.5,-46.39"/>
<polygon fill="black" stroke="black" points="572,-46.16 568.5,-36.16 565,-46.16 572,-46.16"/>
</g>
</g>
</svg>
