<?xml version="1.0" encoding="UTF-8" standalone="no"?>
<!DOCTYPE svg PUBLIC "-//W3C//DTD SVG 1.1//EN"
 "http://www.w3.org/Graphics/SVG/1.1/DTD/svg11.dtd">
<!-- Generated by graphviz version 2.43.0 (0)
 -->
<!-- Pages: 1 -->
<svg width="1999pt" height="410pt"
 viewBox="0.00 0.00 1998.51 410.00" xmlns="http://www.w3.org/2000/svg" xmlns:xlink="http://www.w3.org/1999/xlink">
<g id="graph0" class="graph" transform="scale(1 1) rotate(0) translate(4 406)">
<polygon fill="white" stroke="transparent" points="-4,4 -4,-406 1994.51,-406 1994.51,4 -4,4"/>
<!-- n1 -->
<g id="node1" class="node">
<title>n1</title>
<polygon fill="lightblue" stroke="black" points="1535,-384 1423.5,-402 1200.5,-402 1089,-384 1200.5,-366 1423.5,-366 1535,-384"/>
<text text-anchor="middle" x="1312" y="-380.3" font-family="Arial" font-size="14.00">Draw a string telephone between two students.</text>
</g>
<!-- n2 -->
<g id="node2" class="node">
<title>n2</title>
<polygon fill="#fffdd0" stroke="black" points="521.5,-280 274.5,-280 274.5,-244 521.5,-244 521.5,-280"/>
<text text-anchor="middle" x="398" y="-258.3" font-family="Arial" font-size="14.00">Two students using a string telephone.</text>
</g>
<!-- n1&#45;&gt;n2 -->
<g id="edge1" class="edge">
<title>n1&#45;&gt;n2</title>
<path fill="none" stroke="black" d="M1192,-367.25C1021.4,-344.85 709.58,-303.91 531.71,-280.55"/>
<polygon fill="black" stroke="black" points="532.13,-277.08 521.76,-279.25 531.22,-284.02 532.13,-277.08"/>
</g>
<!-- n3 -->
<g id="node3" class="node">
<title>n3</title>
<polygon fill="#fffdd0" stroke="black" points="1371,-280 1253,-280 1253,-244 1371,-244 1371,-280"/>
<text text-anchor="middle" x="1312" y="-258.3" font-family="Arial" font-size="14.00">String is not taut.</text>
</g>
<!-- n1&#45;&gt;n3 -->
<g id="edge2" class="edge">
<title>n1&#45;&gt;n3</title>
<path fill="none" stroke="black" d="M1312,-365.81C1312,-346.11 1312,-313.58 1312,-290.39"/>
<polygon fill="black" stroke="black" points="1315.5,-290.16 1312,-280.16 1308.5,-290.16 1315.5,-290.16"/>
</g>
<!-- n4 -->
<g id="node4" class="node">
<title>n4</title>
<polygon fill="#fffdd0" stroke="black" points="1590.5,-280 1443.5,-280 1443.5,-244 1590.5,-244 1590.5,-280"/>
<text text-anchor="middle" x="1517" y="-258.3" font-family="Arial" font-size="14.00">Colorful cartoon style.</text>
</g>
<!-- n1&#45;&gt;n4 -->
<g id="edge3" class="edge">
<title>n1&#45;&gt;n4</title>
<path fill="none" stroke="black" d="M1341.4,-365.81C1377.6,-344.6 1439.3,-308.5 1479.1,-285.21"/>
<polygon fill="black" stroke="black" points="1480.85,-288.24 1487.7,-280.16 1477.3,-282.21 1480.85,-288.24"/>
</g>
<!-- n5 -->
<g id="node5" class="node">
<title>n5</title>
<path fill="palegreen" stroke="black" d="M200,-158C200,-158 12,-158 12,-158 6,-158 0,-152 0,-146 0,-146 0,-134 0,-134 0,-128 6,-122 12,-122 12,-122 200,-122 200,-122 206,-122 212,-128 212,-134 212,-134 212,-146 212,-146 212,-152 206,-158 200,-158"/>
<text text-anchor="middle" x="106" y="-136.3" font-family="Arial" font-size="14.00">Students shown communicating.</text>
</g>
<!-- n2&#45;&gt;n5 -->
<g id="edge4" class="edge">
<title>n2&#45;&gt;n5</title>
<path fill="none" stroke="black" d="M356.47,-243.93C303.93,-222.34 213.48,-185.17 156.86,-161.9"/>
<polygon fill="black" stroke="black" points="157.96,-158.57 147.38,-158.01 155.3,-165.04 157.96,-158.57"/>
</g>
<!-- n6 -->
<g id="node6" class="node">
<title>n6</title>
<path fill="palegreen" stroke="black" d="M514,-158C514,-158 282,-158 282,-158 276,-158 270,-152 270,-146 270,-146 270,-134 270,-134 270,-128 276,-122 282,-122 282,-122 514,-122 514,-122 520,-122 526,-128 526,-134 526,-134 526,-146 526,-146 526,-152 520,-158 514,-158"/>
<text text-anchor="middle" x="398" y="-136.3" font-family="Arial" font-size="14.00">Communication over distance is shown.</text>
</g>
<!-- n2&#45;&gt;n6 -->
<g id="edge5" class="edge">
<title>n2&#45;&gt;n6</title>
<path fill="none" stroke="black" d="M398,-243.81C398,-224.11 398,-191.58 398,-168.39"/>
<polygon fill="black" stroke="black" points="401.5,-168.16 398,-158.16 394.5,-168.16 401.5,-168.16"/>
</g>
<!-- n7 -->
<g id="node7" class="node">
<title>n7</title>
<polygon fill="lightcoral" stroke="black" points="904,-158 584,-140 904,-122 1224,-140 904,-158"/>
<text text-anchor="middle" x="904" y="-136.3" font-family="Arial" font-size="14.00">Understanding of string function and tension is missing.</text>
</g>
<!-- n3&#45;&gt;n7 -->
<g id="edge6" class="edge">
<title>n3&#45;&gt;n7</title>
<path fill="none" stroke="black" d="M1254,-243.93C1176.4,-221.13 1039.8,-180.95 962.2,-158.12"/>
<polygon fill="black" stroke="black" points="963.15,-154.75 952.57,-155.29 961.18,-161.47 963.15,-154.75"/>
</g>
<!-- n9 -->
<g id="node8" class="node">
<title>n9</title>
<path fill="palegreen" stroke="black" d="M1652,-158C1652,-158 1412,-158 1412,-158 1406,-158 1400,-152 1400,-146 1400,-146 1400,-134 1400,-134 1400,-128 1406,-122 1412,-122 1412,-122 1652,-122 1652,-122 1658,-122 1664,-128 1664,-134 1664,-134 1664,-146 1664,-146 1664,-152 1658,-158 1652,-158"/>
<text text-anchor="middle" x="1532" y="-136.3" font-family="Arial" font-size="14.00">Match with student&#39;s understanding level.</text>
</g>
<!-- n3&#45;&gt;n9 -->
<g id="edge7" class="edge">
<title>n3&#45;&gt;n9</title>
<path fill="none" stroke="black" d="M1343.5,-243.81C1382.5,-222.55 1448.9,-186.35 1491.5,-163.07"/>
<polygon fill="black" stroke="black" points="1493.4,-166.02 1500.5,-158.16 1490.05,-159.88 1493.4,-166.02"/>
</g>
<!-- n10 -->
<g id="node9" class="node">
<title>n10</title>
<polygon fill="#f28e8e" stroke="black" points="1299.5,-36 916.5,-36 916.5,0 1299.5,0 1299.5,-36"/>
<text text-anchor="middle" x="1108" y="-14.3" font-family="Arial" font-size="14.00">Explain sound travel clearly and the importance of taut string.</text>
</g>
<!-- n3&#45;&gt;n10 -->
<g id="edge8" class="edge">
<title>n3&#45;&gt;n10</title>
<path fill="none" stroke="black" d="M1307.9,-243.58C1300.7,-215.55 1283.4,-159.79 1253,-122 1225.2,-87.4 1182.9,-59.17 1151.1,-41.07"/>
<polygon fill="black" stroke="black" points="1152.44,-37.81 1142,-36.01 1149.04,-43.93 1152.44,-37.81"/>
</g>
<!-- n4&#45;&gt;n9 -->
<g id="edge9" class="edge">
<title>n4&#45;&gt;n9</title>
<path fill="none" stroke="black" d="M1519.1,-243.81C1521.6,-224.11 1525.7,-191.58 1528.6,-168.39"/>
<polygon fill="black" stroke="black" points="1532.11,-168.52 1529.9,-158.16 1525.17,-167.64 1532.11,-168.52"/>
</g>
<!-- n7&#45;&gt;n10 -->
<g id="edge10" class="edge">
<title>n7&#45;&gt;n10</title>
<path fill="none" stroke="black" d="M930.67,-123.31C966.31,-102.34 1029.7,-65.06 1070.2,-41.22"/>
<polygon fill="black" stroke="black" points="1072.15,-44.13 1079,-36.05 1068.6,-38.09 1072.15,-44.13"/>
</g>
<!-- n8 -->
<g id="node10" class="node">
<title>n8</title>
<polygon fill="lightcoral" stroke="black" points="1803,-402 1615.48,-384 1803,-366 1990.52,-384 1803,-402"/>
<text text-anchor="middle" x="1803" y="-380.3" font-family="Arial" font-size="14.00">Sound travel details not shown.</text>
</g>
<!-- n11 -->
<g id="node11" class="node">
<title>n11</title>
<polygon fill="#f28e8e" stroke="black" points="1957,-280 1649,-280 1649,-244 1957,-244 1957,-280"/>
<text text-anchor="middle" x="1803" y="-258.3" font-family="Arial" font-size="14.00">Introduce concept of sound waves and their role.</text>
</g>
<!-- n8&#45;&gt;n11 -->
<g id="edge11" class="edge">
<title>n8&#45;&gt;n11</title>
<path fill="none" stroke="black" d="M1803,-365.81C1803,-346.11 1803,-313.58 1803,-290.39"/>
<polygon fill="black" stroke="black" points="1806.5,-290.16 1803,-280.16 1799.5,-290.16 1806.5,-290.16"/>
</g>
</g>
</svg>
