<?xml version="1.0" encoding="UTF-8" standalone="no"?>
<!DOCTYPE svg PUBLIC "-//W3C//DTD SVG 1.1//EN"
 "http://www.w3.org/Graphics/SVG/1.1/DTD/svg11.dtd">
<!-- Generated by graphviz version 2.43.0 (0)
 -->
<!-- Pages: 1 -->
<svg width="1737pt" height="410pt"
 viewBox="0.00 0.00 1736.68 410.00" xmlns="http://www.w3.org/2000/svg" xmlns:xlink="http://www.w3.org/1999/xlink">
<g id="graph0" class="graph" transform="scale(1 1) rotate(0) translate(4 406)">
<polygon fill="white" stroke="transparent" points="-4,4 -4,-406 1732.68,-406 1732.68,4 -4,4"/>
<!-- n1 -->
<g id="node1" class="node">
<title>n1</title>
<polygon fill="lightblue" stroke="black" points="1191.82,-384 1069.41,-402 824.59,-402 702.18,-384 824.59,-366 1069.41,-366 1191.82,-384"/>
<text text-anchor="middle" x="947" y="-380.3" font-family="Arial" font-size="14.00">Draw a habitat and the different living things in each</text>
</g>
<!-- n2 -->
<g id="node2" class="node">
<title>n2</title>
<polygon fill="#fffdd0" stroke="black" points="370,-280 214,-280 214,-244 370,-244 370,-280"/>
<text text-anchor="middle" x="292" y="-258.3" font-family="Arial" font-size="14.00">Large tree in the center</text>
</g>
<!-- n1&#45;&gt;n2 -->
<g id="edge1" class="edge">
<title>n1&#45;&gt;n2</title>
<path fill="none" stroke="black" d="M854.2,-366C728.05,-342.89 504.02,-301.84 380.27,-279.17"/>
<polygon fill="black" stroke="black" points="380.54,-275.66 370.07,-277.3 379.27,-282.55 380.54,-275.66"/>
</g>
<!-- n3 -->
<g id="node3" class="node">
<title>n3</title>
<polygon fill="#fffdd0" stroke="black" points="581,-280 465,-280 465,-244 581,-244 581,-280"/>
<text text-anchor="middle" x="523" y="-258.3" font-family="Arial" font-size="14.00">Bird on a branch</text>
</g>
<!-- n1&#45;&gt;n3 -->
<g id="edge2" class="edge">
<title>n1&#45;&gt;n3</title>
<path fill="none" stroke="black" d="M886.7,-365.93C808.49,-343.8 672.43,-305.29 590.73,-282.17"/>
<polygon fill="black" stroke="black" points="591.63,-278.79 581.05,-279.43 589.72,-285.52 591.63,-278.79"/>
</g>
<!-- n4 -->
<g id="node4" class="node">
<title>n4</title>
<polygon fill="#fffdd0" stroke="black" points="815,-280 639,-280 639,-244 815,-244 815,-280"/>
<text text-anchor="middle" x="727" y="-258.3" font-family="Arial" font-size="14.00">Grass scribbles below tree</text>
</g>
<!-- n1&#45;&gt;n4 -->
<g id="edge3" class="edge">
<title>n1&#45;&gt;n4</title>
<path fill="none" stroke="black" d="M915.48,-365.81C876.52,-344.55 810.14,-308.35 767.46,-285.07"/>
<polygon fill="black" stroke="black" points="768.91,-281.88 758.46,-280.16 765.56,-288.02 768.91,-281.88"/>
</g>
<!-- n5 -->
<g id="node5" class="node">
<title>n5</title>
<polygon fill="#fffdd0" stroke="black" points="1021,-280 873,-280 873,-244 1021,-244 1021,-280"/>
<text text-anchor="middle" x="947" y="-258.3" font-family="Arial" font-size="14.00">Blue pond beside tree</text>
</g>
<!-- n1&#45;&gt;n5 -->
<g id="edge4" class="edge">
<title>n1&#45;&gt;n5</title>
<path fill="none" stroke="black" d="M947,-365.81C947,-346.11 947,-313.58 947,-290.39"/>
<polygon fill="black" stroke="black" points="950.5,-290.16 947,-280.16 943.5,-290.16 950.5,-290.16"/>
</g>
<!-- n6 -->
<g id="node6" class="node">
<title>n6</title>
<polygon fill="#fffdd0" stroke="black" points="1165,-280 1079,-280 1079,-244 1165,-244 1165,-280"/>
<text text-anchor="middle" x="1122" y="-258.3" font-family="Arial" font-size="14.00">Dog nearby</text>
</g>
<!-- n1&#45;&gt;n6 -->
<g id="edge5" class="edge">
<title>n1&#45;&gt;n6</title>
<path fill="none" stroke="black" d="M972.07,-365.81C1002.6,-344.87 1054.3,-309.41 1088.3,-286.1"/>
<polygon fill="black" stroke="black" points="1090.71,-288.69 1097,-280.16 1086.77,-282.91 1090.71,-288.69"/>
</g>
<!-- n7 -->
<g id="node7" class="node">
<title>n7</title>
<polygon fill="#fffdd0" stroke="black" points="1386.5,-280 1223.5,-280 1223.5,-244 1386.5,-244 1386.5,-280"/>
<text text-anchor="middle" x="1305" y="-258.3" font-family="Arial" font-size="14.00">Sparse clouds in the sky</text>
</g>
<!-- n1&#45;&gt;n7 -->
<g id="edge6" class="edge">
<title>n1&#45;&gt;n7</title>
<path fill="none" stroke="black" d="M997.91,-365.93C1062.9,-344.16 1175.1,-306.56 1244.4,-283.33"/>
<polygon fill="black" stroke="black" points="1245.93,-286.51 1254.3,-280.01 1243.71,-279.87 1245.93,-286.51"/>
</g>
<!-- n8 -->
<g id="node8" class="node">
<title>n8</title>
<polygon fill="#fffdd0" stroke="black" points="1597.5,-280 1444.5,-280 1444.5,-244 1597.5,-244 1597.5,-280"/>
<text text-anchor="middle" x="1521" y="-258.3" font-family="Arial" font-size="14.00">Hills in the background</text>
</g>
<!-- n1&#45;&gt;n8 -->
<g id="edge7" class="edge">
<title>n1&#45;&gt;n8</title>
<path fill="none" stroke="black" d="M1028.3,-366C1135.7,-343.55 1324,-304.19 1434.1,-281.17"/>
<polygon fill="black" stroke="black" points="1435.03,-284.55 1444.1,-279.07 1433.59,-277.7 1435.03,-284.55"/>
</g>
<!-- n9 -->
<g id="node9" class="node">
<title>n9</title>
<path fill="palegreen" stroke="black" d="M344,-158C344,-158 12,-158 12,-158 6,-158 0,-152 0,-146 0,-146 0,-134 0,-134 0,-128 6,-122 12,-122 12,-122 344,-122 344,-122 350,-122 356,-128 356,-134 356,-134 356,-146 356,-146 356,-152 350,-158 344,-158"/>
<text text-anchor="middle" x="178" y="-136.3" font-family="Arial" font-size="14.00">Understands a habitat can include a large tree and grass</text>
</g>
<!-- n2&#45;&gt;n9 -->
<g id="edge8" class="edge">
<title>n2&#45;&gt;n9</title>
<path fill="none" stroke="black" d="M275.67,-243.81C256.2,-223.31 223.52,-188.91 201.37,-165.6"/>
<polygon fill="black" stroke="black" points="203.73,-163 194.3,-158.16 198.65,-167.82 203.73,-163"/>
</g>
<!-- n10 -->
<g id="node10" class="node">
<title>n10</title>
<path fill="palegreen" stroke="black" d="M671.5,-158C671.5,-158 426.5,-158 426.5,-158 420.5,-158 414.5,-152 414.5,-146 414.5,-146 414.5,-134 414.5,-134 414.5,-128 420.5,-122 426.5,-122 426.5,-122 671.5,-122 671.5,-122 677.5,-122 683.5,-128 683.5,-134 683.5,-134 683.5,-146 683.5,-146 683.5,-152 677.5,-158 671.5,-158"/>
<text text-anchor="middle" x="549" y="-136.3" font-family="Arial" font-size="14.00">Correctly identifies a bird as part of habitat</text>
</g>
<!-- n3&#45;&gt;n10 -->
<g id="edge9" class="edge">
<title>n3&#45;&gt;n10</title>
<path fill="none" stroke="black" d="M526.73,-243.81C531.01,-224.02 538.1,-191.29 543.13,-168.08"/>
<polygon fill="black" stroke="black" points="546.58,-168.67 545.28,-158.16 539.74,-167.19 546.58,-168.67"/>
</g>
<!-- n11 -->
<g id="node11" class="node">
<title>n11</title>
<path fill="palegreen" stroke="black" d="M1037.5,-158C1037.5,-158 804.5,-158 804.5,-158 798.5,-158 792.5,-152 792.5,-146 792.5,-146 792.5,-134 792.5,-134 792.5,-128 798.5,-122 804.5,-122 804.5,-122 1037.5,-122 1037.5,-122 1043.5,-122 1049.5,-128 1049.5,-134 1049.5,-134 1049.5,-146 1049.5,-146 1049.5,-152 1043.5,-158 1037.5,-158"/>
<text text-anchor="middle" x="921" y="-136.3" font-family="Arial" font-size="14.00">Recognizes presence of water in habitat</text>
</g>
<!-- n5&#45;&gt;n11 -->
<g id="edge10" class="edge">
<title>n5&#45;&gt;n11</title>
<path fill="none" stroke="black" d="M943.27,-243.81C938.99,-224.02 931.9,-191.29 926.87,-168.08"/>
<polygon fill="black" stroke="black" points="930.26,-167.19 924.72,-158.16 923.42,-168.67 930.26,-167.19"/>
</g>
<!-- n12 -->
<g id="node12" class="node">
<title>n12</title>
<polygon fill="lightcoral" stroke="black" points="1418,-158 1107.15,-140 1418,-122 1728.85,-140 1418,-158"/>
<text text-anchor="middle" x="1418" y="-136.3" font-family="Arial" font-size="14.00">Misunderstanding: Dog placed in a non&#45;typical habitat</text>
</g>
<!-- n6&#45;&gt;n12 -->
<g id="edge11" class="edge">
<title>n6&#45;&gt;n12</title>
<path fill="none" stroke="black" d="M1164.1,-243.93C1219,-221.67 1314.8,-182.84 1371.7,-159.77"/>
<polygon fill="black" stroke="black" points="1373.24,-162.92 1381.2,-155.93 1370.62,-156.43 1373.24,-162.92"/>
</g>
<!-- n13 -->
<g id="node13" class="node">
<title>n13</title>
<polygon fill="#f28e8e" stroke="black" points="1602.5,-36 1233.5,-36 1233.5,0 1602.5,0 1602.5,-36"/>
<text text-anchor="middle" x="1418" y="-14.3" font-family="Arial" font-size="14.00">Feedback: Clarify which animals belong in specific habitats</text>
</g>
<!-- n12&#45;&gt;n13 -->
<g id="edge12" class="edge">
<title>n12&#45;&gt;n13</title>
<path fill="none" stroke="black" d="M1418,-121.81C1418,-102.11 1418,-69.58 1418,-46.39"/>
<polygon fill="black" stroke="black" points="1421.5,-46.16 1418,-36.16 1414.5,-46.16 1421.5,-46.16"/>
</g>
</g>
</svg>
