<?xml version="1.0" encoding="UTF-8" standalone="no"?>
<!DOCTYPE svg PUBLIC "-//W3C//DTD SVG 1.1//EN"
 "http://www.w3.org/Graphics/SVG/1.1/DTD/svg11.dtd">
<!-- Generated by graphviz version 2.43.0 (0)
 -->
<!-- Pages: 1 -->
<svg width="2080pt" height="410pt"
 viewBox="0.00 0.00 2079.74 410.00" xmlns="http://www.w3.org/2000/svg" xmlns:xlink="http://www.w3.org/1999/xlink">
<g id="graph0" class="graph" transform="scale(1 1) rotate(0) translate(4 406)">
<polygon fill="white" stroke="transparent" points="-4,4 -4,-406 2075.74,-406 2075.74,4 -4,4"/>
<!-- n1 -->
<g id="node1" class="node">
<title>n1</title>
<polygon fill="lightblue" stroke="black" points="990.74,-384 897.62,-402 711.38,-402 618.26,-384 711.38,-366 897.62,-366 990.74,-384"/>
<text text-anchor="middle" x="804.5" y="-380.3" font-family="Arial" font-size="14.00">Illustrate plants with and without water.</text>
</g>
<!-- n2 -->
<g id="node2" class="node">
<title>n2</title>
<polygon fill="#fffdd0" stroke="black" points="185,-280 0,-280 0,-244 185,-244 185,-280"/>
<text text-anchor="middle" x="92.5" y="-258.3" font-family="Arial" font-size="14.00">Two sunflowers side by side</text>
</g>
<!-- n1&#45;&gt;n2 -->
<g id="edge1" class="edge">
<title>n1&#45;&gt;n2</title>
<path fill="none" stroke="black" d="M707.74,-366.69C573.64,-344.09 332.37,-303.43 195.2,-280.31"/>
<polygon fill="black" stroke="black" points="195.54,-276.82 185.1,-278.61 194.38,-283.72 195.54,-276.82"/>
</g>
<!-- n3 -->
<g id="node3" class="node">
<title>n3</title>
<polygon fill="#fffdd0" stroke="black" points="577.5,-280 243.5,-280 243.5,-244 577.5,-244 577.5,-280"/>
<text text-anchor="middle" x="410.5" y="-258.3" font-family="Arial" font-size="14.00">Healthy sunflower with green leaves and strong stem</text>
</g>
<!-- n1&#45;&gt;n3 -->
<g id="edge2" class="edge">
<title>n1&#45;&gt;n3</title>
<path fill="none" stroke="black" d="M748.47,-365.93C676.69,-344.07 552.49,-306.25 476.3,-283.04"/>
<polygon fill="black" stroke="black" points="476.93,-279.57 466.34,-280.01 474.89,-286.27 476.93,-279.57"/>
</g>
<!-- n4 -->
<g id="node4" class="node">
<title>n4</title>
<polygon fill="#fffdd0" stroke="black" points="973.5,-280 635.5,-280 635.5,-244 973.5,-244 973.5,-280"/>
<text text-anchor="middle" x="804.5" y="-258.3" font-family="Arial" font-size="14.00">Wilted sunflower with drooping leaves and tilting stem</text>
</g>
<!-- n1&#45;&gt;n4 -->
<g id="edge3" class="edge">
<title>n1&#45;&gt;n4</title>
<path fill="none" stroke="black" d="M804.5,-365.81C804.5,-346.11 804.5,-313.58 804.5,-290.39"/>
<polygon fill="black" stroke="black" points="808,-290.16 804.5,-280.16 801,-290.16 808,-290.16"/>
</g>
<!-- n5 -->
<g id="node5" class="node">
<title>n5</title>
<polygon fill="#fffdd0" stroke="black" points="1200,-280 1031,-280 1031,-244 1200,-244 1200,-280"/>
<text text-anchor="middle" x="1115.5" y="-258.3" font-family="Arial" font-size="14.00">Water droplets near roots</text>
</g>
<!-- n1&#45;&gt;n5 -->
<g id="edge4" class="edge">
<title>n1&#45;&gt;n5</title>
<path fill="none" stroke="black" d="M848.73,-365.93C904.92,-344.25 1001.8,-306.86 1062.1,-283.61"/>
<polygon fill="black" stroke="black" points="1063.34,-286.88 1071.4,-280.01 1060.81,-280.36 1063.34,-286.88"/>
</g>
<!-- n6 -->
<g id="node6" class="node">
<title>n6</title>
<polygon fill="#fffdd0" stroke="black" points="1645,-280 1468,-280 1468,-244 1645,-244 1645,-280"/>
<text text-anchor="middle" x="1556.5" y="-258.3" font-family="Arial" font-size="14.00">Sun depicted in one image</text>
</g>
<!-- n1&#45;&gt;n6 -->
<g id="edge5" class="edge">
<title>n1&#45;&gt;n6</title>
<path fill="none" stroke="black" d="M903.97,-367.13C1048.2,-344.11 1313.8,-301.72 1457.7,-278.77"/>
<polygon fill="black" stroke="black" points="1458.48,-282.19 1467.8,-277.15 1457.37,-275.28 1458.48,-282.19"/>
</g>
<!-- n7 -->
<g id="node7" class="node">
<title>n7</title>
<path fill="palegreen" stroke="black" d="M649.5,-158C649.5,-158 311.5,-158 311.5,-158 305.5,-158 299.5,-152 299.5,-146 299.5,-146 299.5,-134 299.5,-134 299.5,-128 305.5,-122 311.5,-122 311.5,-122 649.5,-122 649.5,-122 655.5,-122 661.5,-128 661.5,-134 661.5,-134 661.5,-146 661.5,-146 661.5,-152 655.5,-158 649.5,-158"/>
<text text-anchor="middle" x="480.5" y="-136.3" font-family="Arial" font-size="14.00">Understands difference between healthy and wilted plants</text>
</g>
<!-- n3&#45;&gt;n7 -->
<g id="edge6" class="edge">
<title>n3&#45;&gt;n7</title>
<path fill="none" stroke="black" d="M420.53,-243.81C432.28,-223.67 451.86,-190.1 465.43,-166.83"/>
<polygon fill="black" stroke="black" points="468.47,-168.56 470.49,-158.16 462.43,-165.03 468.47,-168.56"/>
</g>
<!-- n4&#45;&gt;n7 -->
<g id="edge7" class="edge">
<title>n4&#45;&gt;n7</title>
<path fill="none" stroke="black" d="M758.42,-243.93C699.88,-222.25 598.93,-184.86 536.15,-161.61"/>
<polygon fill="black" stroke="black" points="537.01,-158.2 526.42,-158.01 534.58,-164.76 537.01,-158.2"/>
</g>
<!-- n8 -->
<g id="node8" class="node">
<title>n8</title>
<polygon fill="lightcoral" stroke="black" points="1079.5,-158 754,-140 1079.5,-122 1405,-140 1079.5,-158"/>
<text text-anchor="middle" x="1079.5" y="-136.3" font-family="Arial" font-size="14.00">Inconsistency in illustrating water presence and absence</text>
</g>
<!-- n5&#45;&gt;n8 -->
<g id="edge8" class="edge">
<title>n5&#45;&gt;n8</title>
<path fill="none" stroke="black" d="M1110.3,-243.81C1104.3,-223.82 1094.4,-190.62 1087.4,-167.37"/>
<polygon fill="black" stroke="black" points="1090.74,-166.33 1084.5,-157.77 1084.04,-168.35 1090.74,-166.33"/>
</g>
<!-- n9 -->
<g id="node9" class="node">
<title>n9</title>
<polygon fill="lightcoral" stroke="black" points="1767.5,-158 1463.02,-140 1767.5,-122 2071.98,-140 1767.5,-158"/>
<text text-anchor="middle" x="1767.5" y="-136.3" font-family="Arial" font-size="14.00">Occasional omission of sunlight&#39;s role in plant health</text>
</g>
<!-- n6&#45;&gt;n9 -->
<g id="edge9" class="edge">
<title>n6&#45;&gt;n9</title>
<path fill="none" stroke="black" d="M1586.7,-243.81C1625,-222.06 1690.8,-184.65 1731.5,-161.45"/>
<polygon fill="black" stroke="black" points="1733.33,-164.43 1740.3,-156.45 1729.88,-158.35 1733.33,-164.43"/>
</g>
<!-- n10 -->
<g id="node10" class="node">
<title>n10</title>
<polygon fill="#f28e8e" stroke="black" points="1262.5,-36 896.5,-36 896.5,0 1262.5,0 1262.5,-36"/>
<text text-anchor="middle" x="1079.5" y="-14.3" font-family="Arial" font-size="14.00">Consistently use symbols for water presence and absence</text>
</g>
<!-- n8&#45;&gt;n10 -->
<g id="edge10" class="edge">
<title>n8&#45;&gt;n10</title>
<path fill="none" stroke="black" d="M1079.5,-121.81C1079.5,-102.11 1079.5,-69.58 1079.5,-46.39"/>
<polygon fill="black" stroke="black" points="1083,-46.16 1079.5,-36.16 1076,-46.16 1083,-46.16"/>
</g>
<!-- n11 -->
<g id="node11" class="node">
<title>n11</title>
<polygon fill="#f28e8e" stroke="black" points="1926,-36 1609,-36 1609,0 1926,0 1926,-36"/>
<text text-anchor="middle" x="1767.5" y="-14.3" font-family="Arial" font-size="14.00">Include sun in both images to show its importance</text>
</g>
<!-- n9&#45;&gt;n11 -->
<g id="edge11" class="edge">
<title>n9&#45;&gt;n11</title>
<path fill="none" stroke="black" d="M1767.5,-121.81C1767.5,-102.11 1767.5,-69.58 1767.5,-46.39"/>
<polygon fill="black" stroke="black" points="1771,-46.16 1767.5,-36.16 1764,-46.16 1771,-46.16"/>
</g>
</g>
</svg>
