<?xml version="1.0" encoding="UTF-8" standalone="no"?>
<!DOCTYPE svg PUBLIC "-//W3C//DTD SVG 1.1//EN"
 "http://www.w3.org/Graphics/SVG/1.1/DTD/svg11.dtd">
<!-- Generated by graphviz version 2.43.0 (0)
 -->
<!-- Pages: 1 -->
<svg width="1052pt" height="410pt"
 viewBox="0.00 0.00 1051.50 410.00" xmlns="http://www.w3.org/2000/svg" xmlns:xlink="http://www.w3.org/1999/xlink">
<g id="graph0" class="graph" transform="scale(1 1) rotate(0) translate(4 406)">
<polygon fill="white" stroke="transparent" points="-4,4 -4,-406 1047.5,-406 1047.5,4 -4,4"/>
<!-- n1 -->
<g id="node1" class="node">
<title>n1</title>
<polygon fill="lightblue" stroke="black" points="775.82,-384 653.41,-402 408.59,-402 286.18,-384 408.59,-366 653.41,-366 775.82,-384"/>
<text text-anchor="middle" x="531" y="-380.3" font-family="Arial" font-size="14.00">Draw a habitat and the different living things in each</text>
</g>
<!-- n2 -->
<g id="node2" class="node">
<title>n2</title>
<polygon fill="#fffdd0" stroke="black" points="248,-280 0,-280 0,-244 248,-244 248,-280"/>
<text text-anchor="middle" x="124" y="-258.3" font-family="Arial" font-size="14.00">Forest with trees, bushes, and grasses</text>
</g>
<!-- n1&#45;&gt;n2 -->
<g id="edge1" class="edge">
<title>n1&#45;&gt;n2</title>
<path fill="none" stroke="black" d="M473.12,-365.93C398.83,-344.03 270.16,-306.09 191.49,-282.9"/>
<polygon fill="black" stroke="black" points="192.26,-279.48 181.68,-280.01 190.28,-286.19 192.26,-279.48"/>
</g>
<!-- n3 -->
<g id="node3" class="node">
<title>n3</title>
<polygon fill="#fffdd0" stroke="black" points="505.5,-280 306.5,-280 306.5,-244 505.5,-244 505.5,-280"/>
<text text-anchor="middle" x="406" y="-258.3" font-family="Arial" font-size="14.00">Bird, squirrel, deer, ants, lizard</text>
</g>
<!-- n1&#45;&gt;n3 -->
<g id="edge2" class="edge">
<title>n1&#45;&gt;n3</title>
<path fill="none" stroke="black" d="M513.09,-365.81C491.65,-345.22 455.6,-310.61 431.31,-287.3"/>
<polygon fill="black" stroke="black" points="433.52,-284.57 423.88,-280.16 428.67,-289.61 433.52,-284.57"/>
</g>
<!-- n4 -->
<g id="node4" class="node">
<title>n4</title>
<polygon fill="#fffdd0" stroke="black" points="748,-280 564,-280 564,-244 748,-244 748,-280"/>
<text text-anchor="middle" x="656" y="-258.3" font-family="Arial" font-size="14.00">Ocean with clear blue water</text>
</g>
<!-- n1&#45;&gt;n4 -->
<g id="edge3" class="edge">
<title>n1&#45;&gt;n4</title>
<path fill="none" stroke="black" d="M548.91,-365.81C570.35,-345.22 606.4,-310.61 630.69,-287.3"/>
<polygon fill="black" stroke="black" points="633.33,-289.61 638.12,-280.16 628.48,-284.57 633.33,-289.61"/>
</g>
<!-- n5 -->
<g id="node5" class="node">
<title>n5</title>
<polygon fill="#fffdd0" stroke="black" points="1043.5,-280 806.5,-280 806.5,-244 1043.5,-244 1043.5,-280"/>
<text text-anchor="middle" x="925" y="-258.3" font-family="Arial" font-size="14.00">Dolphin, fish, starfish, seaweed, crab</text>
</g>
<!-- n1&#45;&gt;n5 -->
<g id="edge4" class="edge">
<title>n1&#45;&gt;n5</title>
<path fill="none" stroke="black" d="M587.03,-365.93C658.81,-344.07 783.01,-306.25 859.2,-283.04"/>
<polygon fill="black" stroke="black" points="860.61,-286.27 869.16,-280.01 858.57,-279.57 860.61,-286.27"/>
</g>
<!-- n6 -->
<g id="node6" class="node">
<title>n6</title>
<path fill="palegreen" stroke="black" d="M488,-158C488,-158 292,-158 292,-158 286,-158 280,-152 280,-146 280,-146 280,-134 280,-134 280,-128 286,-122 292,-122 292,-122 488,-122 488,-122 494,-122 500,-128 500,-134 500,-134 500,-146 500,-146 500,-152 494,-158 488,-158"/>
<text text-anchor="middle" x="390" y="-136.3" font-family="Arial" font-size="14.00">Understands land habitat diversity</text>
</g>
<!-- n2&#45;&gt;n6 -->
<g id="edge5" class="edge">
<title>n2&#45;&gt;n6</title>
<path fill="none" stroke="black" d="M161.83,-243.93C209.49,-222.43 291.41,-185.48 343.03,-162.19"/>
<polygon fill="black" stroke="black" points="344.62,-165.31 352.3,-158.01 341.75,-158.93 344.62,-165.31"/>
</g>
<!-- n3&#45;&gt;n6 -->
<g id="edge6" class="edge">
<title>n3&#45;&gt;n6</title>
<path fill="none" stroke="black" d="M403.71,-243.81C401.07,-224.02 396.71,-191.29 393.61,-168.08"/>
<polygon fill="black" stroke="black" points="397.08,-167.61 392.29,-158.16 390.14,-168.53 397.08,-167.61"/>
</g>
<!-- n7 -->
<g id="node7" class="node">
<title>n7</title>
<path fill="palegreen" stroke="black" d="M773.5,-158C773.5,-158 570.5,-158 570.5,-158 564.5,-158 558.5,-152 558.5,-146 558.5,-146 558.5,-134 558.5,-134 558.5,-128 564.5,-122 570.5,-122 570.5,-122 773.5,-122 773.5,-122 779.5,-122 785.5,-128 785.5,-134 785.5,-134 785.5,-146 785.5,-146 785.5,-152 779.5,-158 773.5,-158"/>
<text text-anchor="middle" x="672" y="-136.3" font-family="Arial" font-size="14.00">Understands water habitat diversity</text>
</g>
<!-- n4&#45;&gt;n7 -->
<g id="edge7" class="edge">
<title>n4&#45;&gt;n7</title>
<path fill="none" stroke="black" d="M658.29,-243.81C660.93,-224.02 665.29,-191.29 668.39,-168.08"/>
<polygon fill="black" stroke="black" points="671.86,-168.53 669.71,-158.16 664.92,-167.61 671.86,-168.53"/>
</g>
<!-- n5&#45;&gt;n7 -->
<g id="edge8" class="edge">
<title>n5&#45;&gt;n7</title>
<path fill="none" stroke="black" d="M889.02,-243.93C843.78,-222.48 766.1,-185.63 716.98,-162.33"/>
<polygon fill="black" stroke="black" points="718.4,-159.13 707.86,-158.01 715.4,-165.45 718.4,-159.13"/>
</g>
<!-- n8 -->
<g id="node8" class="node">
<title>n8</title>
<path fill="palegreen" stroke="black" d="M688,-36C688,-36 374,-36 374,-36 368,-36 362,-30 362,-24 362,-24 362,-12 362,-12 362,-6 368,0 374,0 374,0 688,0 688,0 694,0 700,-6 700,-12 700,-12 700,-24 700,-24 700,-30 694,-36 688,-36"/>
<text text-anchor="middle" x="531" y="-14.3" font-family="Arial" font-size="14.00">Understands differences &amp; similarities across habitats</text>
</g>
<!-- n6&#45;&gt;n8 -->
<g id="edge9" class="edge">
<title>n6&#45;&gt;n8</title>
<path fill="none" stroke="black" d="M410.2,-121.81C434.6,-101.04 475.76,-66.01 503.15,-42.7"/>
<polygon fill="black" stroke="black" points="505.49,-45.3 510.84,-36.16 500.95,-39.97 505.49,-45.3"/>
</g>
<!-- n7&#45;&gt;n8 -->
<g id="edge10" class="edge">
<title>n7&#45;&gt;n8</title>
<path fill="none" stroke="black" d="M651.8,-121.81C627.4,-101.04 586.24,-66.01 558.85,-42.7"/>
<polygon fill="black" stroke="black" points="561.05,-39.97 551.16,-36.16 556.51,-45.3 561.05,-39.97"/>
</g>
</g>
</svg>
