<?xml version="1.0" encoding="UTF-8" standalone="no"?>
<!DOCTYPE svg PUBLIC "-//W3C//DTD SVG 1.1//EN"
 "http://www.w3.org/Graphics/SVG/1.1/DTD/svg11.dtd">
<!-- Generated by graphviz version 2.43.0 (0)
 -->
<!-- Pages: 1 -->
<svg width="1704pt" height="410pt"
 viewBox="0.00 0.00 1703.50 410.00" xmlns="http://www.w3.org/2000/svg" xmlns:xlink="http://www.w3.org/1999/xlink">
<g id="graph0" class="graph" transform="scale(1 1) rotate(0) translate(4 406)">
<polygon fill="white" stroke="transparent" points="-4,4 -4,-406 1699.5,-406 1699.5,4 -4,4"/>
<!-- n1 -->
<g id="node1" class="node">
<title>n1</title>
<polygon fill="lightblue" stroke="black" points="1317.32,-384 1194.91,-402 950.09,-402 827.68,-384 950.09,-366 1194.91,-366 1317.32,-384"/>
<text text-anchor="middle" x="1072.5" y="-380.3" font-family="Arial" font-size="14.00">Draw a habitat and the different living things in each</text>
</g>
<!-- n2 -->
<g id="node2" class="node">
<title>n2</title>
<polygon fill="#fffdd0" stroke="black" points="868,-280 623,-280 623,-244 868,-244 868,-280"/>
<text text-anchor="middle" x="745.5" y="-258.3" font-family="Arial" font-size="14.00">Land habitat with trees and a sandbox</text>
</g>
<!-- n1&#45;&gt;n2 -->
<g id="edge1" class="edge">
<title>n1&#45;&gt;n2</title>
<path fill="none" stroke="black" d="M1026,-365.93C966.79,-344.21 864.61,-306.71 801.28,-283.47"/>
<polygon fill="black" stroke="black" points="802.43,-280.17 791.84,-280.01 800.02,-286.74 802.43,-280.17"/>
</g>
<!-- n3 -->
<g id="node3" class="node">
<title>n3</title>
<polygon fill="#fffdd0" stroke="black" points="1188.5,-280 956.5,-280 956.5,-244 1188.5,-244 1188.5,-280"/>
<text text-anchor="middle" x="1072.5" y="-258.3" font-family="Arial" font-size="14.00">Water habitat with a pond and a fish</text>
</g>
<!-- n1&#45;&gt;n3 -->
<g id="edge2" class="edge">
<title>n1&#45;&gt;n3</title>
<path fill="none" stroke="black" d="M1072.5,-365.81C1072.5,-346.11 1072.5,-313.58 1072.5,-290.39"/>
<polygon fill="black" stroke="black" points="1076,-290.16 1072.5,-280.16 1069,-290.16 1076,-290.16"/>
</g>
<!-- n8 -->
<g id="node4" class="node">
<title>n8</title>
<polygon fill="lightcoral" stroke="black" points="1478.5,-280 1261.5,-262 1478.5,-244 1695.5,-262 1478.5,-280"/>
<text text-anchor="middle" x="1478.5" y="-258.3" font-family="Arial" font-size="14.00">Limited understanding of biodiversity</text>
</g>
<!-- n1&#45;&gt;n8 -->
<g id="edge3" class="edge">
<title>n1&#45;&gt;n8</title>
<path fill="none" stroke="black" d="M1130.2,-365.93C1208.4,-342.84 1346.9,-301.91 1423.5,-279.24"/>
<polygon fill="black" stroke="black" points="1424.89,-282.48 1433.5,-276.3 1422.92,-275.76 1424.89,-282.48"/>
</g>
<!-- n4 -->
<g id="node5" class="node">
<title>n4</title>
<path fill="palegreen" stroke="black" d="M405,-158C405,-158 12,-158 12,-158 6,-158 0,-152 0,-146 0,-146 0,-134 0,-134 0,-128 6,-122 12,-122 12,-122 405,-122 405,-122 411,-122 417,-128 417,-134 417,-134 417,-146 417,-146 417,-152 411,-158 405,-158"/>
<text text-anchor="middle" x="208.5" y="-136.3" font-family="Arial" font-size="14.00">Includes different types of plants and features land habitat correctly</text>
</g>
<!-- n2&#45;&gt;n4 -->
<g id="edge4" class="edge">
<title>n2&#45;&gt;n4</title>
<path fill="none" stroke="black" d="M669.42,-244C570.47,-221.89 398.08,-183.37 294.5,-160.22"/>
<polygon fill="black" stroke="black" points="295.21,-156.79 284.69,-158.03 293.69,-163.62 295.21,-156.79"/>
</g>
<!-- n6 -->
<g id="node6" class="node">
<title>n6</title>
<polygon fill="lightcoral" stroke="black" points="745.5,-158 475.04,-140 745.5,-122 1015.96,-140 745.5,-158"/>
<text text-anchor="middle" x="745.5" y="-136.3" font-family="Arial" font-size="14.00">Only one type of animal shown in each habitat</text>
</g>
<!-- n2&#45;&gt;n6 -->
<g id="edge5" class="edge">
<title>n2&#45;&gt;n6</title>
<path fill="none" stroke="black" d="M745.5,-243.81C745.5,-224.11 745.5,-191.58 745.5,-168.39"/>
<polygon fill="black" stroke="black" points="749,-168.16 745.5,-158.16 742,-168.16 749,-168.16"/>
</g>
<!-- n3&#45;&gt;n6 -->
<g id="edge6" class="edge">
<title>n3&#45;&gt;n6</title>
<path fill="none" stroke="black" d="M1026,-243.93C964.74,-221.45 857.47,-182.09 794.83,-159.1"/>
<polygon fill="black" stroke="black" points="795.76,-155.71 785.17,-155.56 793.36,-162.29 795.76,-155.71"/>
</g>
<!-- n5 -->
<g id="node7" class="node">
<title>n5</title>
<path fill="palegreen" stroke="black" d="M1249,-158C1249,-158 1086,-158 1086,-158 1080,-158 1074,-152 1074,-146 1074,-146 1074,-134 1074,-134 1074,-128 1080,-122 1086,-122 1086,-122 1249,-122 1249,-122 1255,-122 1261,-128 1261,-134 1261,-134 1261,-146 1261,-146 1261,-152 1255,-158 1249,-158"/>
<text text-anchor="middle" x="1167.5" y="-136.3" font-family="Arial" font-size="14.00">Includes fish in water habitat</text>
</g>
<!-- n3&#45;&gt;n5 -->
<g id="edge7" class="edge">
<title>n3&#45;&gt;n5</title>
<path fill="none" stroke="black" d="M1086.1,-243.81C1102.2,-223.49 1129.1,-189.51 1147.5,-166.21"/>
<polygon fill="black" stroke="black" points="1150.42,-168.17 1153.9,-158.16 1144.94,-163.81 1150.42,-168.17"/>
</g>
<!-- n9 -->
<g id="node8" class="node">
<title>n9</title>
<polygon fill="#f28e8e" stroke="black" points="1670,-158 1319,-158 1319,-122 1670,-122 1670,-158"/>
<text text-anchor="middle" x="1494.5" y="-136.3" font-family="Arial" font-size="14.00">Discuss differences in animal diversity between habitats</text>
</g>
<!-- n8&#45;&gt;n9 -->
<g id="edge8" class="edge">
<title>n8&#45;&gt;n9</title>
<path fill="none" stroke="black" d="M1480.8,-244.06C1483.4,-224.34 1487.8,-191.5 1490.9,-168.2"/>
<polygon fill="black" stroke="black" points="1494.38,-168.61 1492.2,-158.24 1487.44,-167.7 1494.38,-168.61"/>
</g>
<!-- n7 -->
<g id="node9" class="node">
<title>n7</title>
<polygon fill="#f28e8e" stroke="black" points="962.5,-36 528.5,-36 528.5,0 962.5,0 962.5,-36"/>
<text text-anchor="middle" x="745.5" y="-14.3" font-family="Arial" font-size="14.00">Consider adding more animals to show biodiversity (e.g., ants, clams)</text>
</g>
<!-- n6&#45;&gt;n7 -->
<g id="edge9" class="edge">
<title>n6&#45;&gt;n7</title>
<path fill="none" stroke="black" d="M745.5,-121.81C745.5,-102.11 745.5,-69.58 745.5,-46.39"/>
<polygon fill="black" stroke="black" points="749,-46.16 745.5,-36.16 742,-46.16 749,-46.16"/>
</g>
</g>
</svg>
