<?xml version="1.0" encoding="UTF-8" standalone="no"?>
<!DOCTYPE svg PUBLIC "-//W3C//DTD SVG 1.1//EN"
 "http://www.w3.org/Graphics/SVG/1.1/DTD/svg11.dtd">
<!-- Generated by graphviz version 2.43.0 (0)
 -->
<!-- Pages: 1 -->
<svg width="1314pt" height="410pt"
 viewBox="0.00 0.00 1313.74 410.00" xmlns="http://www.w3.org/2000/svg" xmlns:xlink="http://www.w3.org/1999/xlink">
<g id="graph0" class="graph" transform="scale(1 1) rotate(0) translate(4 406)">
<polygon fill="white" stroke="transparent" points="-4,4 -4,-406 1309.74,-406 1309.74,4 -4,4"/>
<!-- n1 -->
<g id="node1" class="node">
<title>n1</title>
<polygon fill="lightblue" stroke="black" points="684.5,-384 593.25,-402 410.75,-402 319.5,-384 410.75,-366 593.25,-366 684.5,-384"/>
<text text-anchor="middle" x="502" y="-380.3" font-family="Arial" font-size="14.00">Draw reversible changes (ice melting)</text>
</g>
<!-- n2 -->
<g id="node2" class="node">
<title>n2</title>
<polygon fill="#fffdd0" stroke="black" points="228,-280 0,-280 0,-244 228,-244 228,-280"/>
<text text-anchor="middle" x="114" y="-258.3" font-family="Arial" font-size="14.00">Solid white rectangle labeled &#39;Solid&#39;</text>
</g>
<!-- n1&#45;&gt;n2 -->
<g id="edge1" class="edge">
<title>n1&#45;&gt;n2</title>
<path fill="none" stroke="black" d="M446.82,-365.93C376.14,-344.07 253.83,-306.25 178.8,-283.04"/>
<polygon fill="black" stroke="black" points="179.58,-279.62 168.99,-280.01 177.51,-286.31 179.58,-279.62"/>
</g>
<!-- n3 -->
<g id="node3" class="node">
<title>n3</title>
<polygon fill="#fffdd0" stroke="black" points="468.5,-280 287.5,-280 287.5,-244 468.5,-244 468.5,-280"/>
<text text-anchor="middle" x="378" y="-258.3" font-family="Arial" font-size="14.00">Blue puddle labeled &#39;Liquid&#39;</text>
</g>
<!-- n1&#45;&gt;n3 -->
<g id="edge2" class="edge">
<title>n1&#45;&gt;n3</title>
<path fill="none" stroke="black" d="M484.23,-365.81C462.96,-345.22 427.2,-310.61 403.11,-287.3"/>
<polygon fill="black" stroke="black" points="405.35,-284.6 395.73,-280.16 400.48,-289.63 405.35,-284.6"/>
</g>
<!-- n4 -->
<g id="node4" class="node">
<title>n4</title>
<polygon fill="#fffdd0" stroke="black" points="740.5,-280 541.5,-280 541.5,-244 740.5,-244 740.5,-280"/>
<text text-anchor="middle" x="641" y="-258.3" font-family="Arial" font-size="14.00">White rectangle beside puddle</text>
</g>
<!-- n1&#45;&gt;n4 -->
<g id="edge3" class="edge">
<title>n1&#45;&gt;n4</title>
<path fill="none" stroke="black" d="M521.92,-365.81C545.97,-345.04 586.54,-310.01 613.55,-286.7"/>
<polygon fill="black" stroke="black" points="615.84,-289.35 621.12,-280.16 611.26,-284.05 615.84,-289.35"/>
</g>
<!-- n5 -->
<g id="node5" class="node">
<title>n5</title>
<polygon fill="#fffdd0" stroke="black" points="1049.5,-280 896.5,-280 896.5,-244 1049.5,-244 1049.5,-280"/>
<text text-anchor="middle" x="973" y="-258.3" font-family="Arial" font-size="14.00">Arrow labeled &#39;melting&#39;</text>
</g>
<!-- n1&#45;&gt;n5 -->
<g id="edge4" class="edge">
<title>n1&#45;&gt;n5</title>
<path fill="none" stroke="black" d="M568.98,-365.93C655.48,-343.9 805.68,-305.63 896.56,-282.48"/>
<polygon fill="black" stroke="black" points="897.42,-285.87 906.25,-280.01 895.7,-279.09 897.42,-285.87"/>
</g>
<!-- n6 -->
<g id="node6" class="node">
<title>n6</title>
<path fill="palegreen" stroke="black" d="M193.5,-158C193.5,-158 16.5,-158 16.5,-158 10.5,-158 4.5,-152 4.5,-146 4.5,-146 4.5,-134 4.5,-134 4.5,-128 10.5,-122 16.5,-122 16.5,-122 193.5,-122 193.5,-122 199.5,-122 205.5,-128 205.5,-134 205.5,-134 205.5,-146 205.5,-146 205.5,-152 199.5,-158 193.5,-158"/>
<text text-anchor="middle" x="105" y="-136.3" font-family="Arial" font-size="14.00">Understands solid shape of ice</text>
</g>
<!-- n2&#45;&gt;n6 -->
<g id="edge5" class="edge">
<title>n2&#45;&gt;n6</title>
<path fill="none" stroke="black" d="M112.71,-243.81C111.23,-224.11 108.79,-191.58 107.05,-168.39"/>
<polygon fill="black" stroke="black" points="110.52,-167.87 106.29,-158.16 103.54,-168.39 110.52,-167.87"/>
</g>
<!-- n7 -->
<g id="node7" class="node">
<title>n7</title>
<path fill="palegreen" stroke="black" d="M464,-158C464,-158 276,-158 276,-158 270,-158 264,-152 264,-146 264,-146 264,-134 264,-134 264,-128 270,-122 276,-122 276,-122 464,-122 464,-122 470,-122 476,-128 476,-134 476,-134 476,-146 476,-146 476,-152 470,-158 464,-158"/>
<text text-anchor="middle" x="370" y="-136.3" font-family="Arial" font-size="14.00">Understands liquid form of water</text>
</g>
<!-- n3&#45;&gt;n7 -->
<g id="edge6" class="edge">
<title>n3&#45;&gt;n7</title>
<path fill="none" stroke="black" d="M376.85,-243.81C375.54,-224.11 373.37,-191.58 371.83,-168.39"/>
<polygon fill="black" stroke="black" points="375.31,-167.9 371.14,-158.16 368.32,-168.37 375.31,-167.9"/>
</g>
<!-- n8 -->
<g id="node8" class="node">
<title>n8</title>
<path fill="palegreen" stroke="black" d="M752,-158C752,-158 546,-158 546,-158 540,-158 534,-152 534,-146 534,-146 534,-134 534,-134 534,-128 540,-122 546,-122 546,-122 752,-122 752,-122 758,-122 764,-128 764,-134 764,-134 764,-146 764,-146 764,-152 758,-158 752,-158"/>
<text text-anchor="middle" x="649" y="-136.3" font-family="Arial" font-size="14.00">Shows reversibility with refrozen ice</text>
</g>
<!-- n4&#45;&gt;n8 -->
<g id="edge7" class="edge">
<title>n4&#45;&gt;n8</title>
<path fill="none" stroke="black" d="M642.15,-243.81C643.46,-224.11 645.63,-191.58 647.17,-168.39"/>
<polygon fill="black" stroke="black" points="650.68,-168.37 647.86,-158.16 643.69,-167.9 650.68,-168.37"/>
</g>
<!-- n9 -->
<g id="node9" class="node">
<title>n9</title>
<polygon fill="lightcoral" stroke="black" points="1064,-158 822.02,-140 1064,-122 1305.98,-140 1064,-158"/>
<text text-anchor="middle" x="1064" y="-136.3" font-family="Arial" font-size="14.00">Struggles with arrow use to show change</text>
</g>
<!-- n5&#45;&gt;n9 -->
<g id="edge8" class="edge">
<title>n5&#45;&gt;n9</title>
<path fill="none" stroke="black" d="M986.04,-243.81C1001.6,-223.26 1027.8,-188.74 1045.5,-165.42"/>
<polygon fill="black" stroke="black" points="1048.34,-167.47 1051.6,-157.39 1042.76,-163.24 1048.34,-167.47"/>
</g>
<!-- n10 -->
<g id="node10" class="node">
<title>n10</title>
<polygon fill="#f28e8e" stroke="black" points="1194,-36 934,-36 934,0 1194,0 1194,-36"/>
<text text-anchor="middle" x="1064" y="-14.3" font-family="Arial" font-size="14.00">Clarify use of arrows to depict processes</text>
</g>
<!-- n9&#45;&gt;n10 -->
<g id="edge9" class="edge">
<title>n9&#45;&gt;n10</title>
<path fill="none" stroke="black" d="M1064,-121.81C1064,-102.11 1064,-69.58 1064,-46.39"/>
<polygon fill="black" stroke="black" points="1067.5,-46.16 1064,-36.16 1060.5,-46.16 1067.5,-46.16"/>
</g>
</g>
</svg>
