<?xml version="1.0" encoding="UTF-8" standalone="no"?>
<!DOCTYPE svg PUBLIC "-//W3C//DTD SVG 1.1//EN"
 "http://www.w3.org/Graphics/SVG/1.1/DTD/svg11.dtd">
<!-- Generated by graphviz version 2.43.0 (0)
 -->
<!-- Pages: 1 -->
<svg width="1568pt" height="410pt"
 viewBox="0.00 0.00 1567.52 410.00" xmlns="http://www.w3.org/2000/svg" xmlns:xlink="http://www.w3.org/1999/xlink">
<g id="graph0" class="graph" transform="scale(1 1) rotate(0) translate(4 406)">
<polygon fill="white" stroke="transparent" points="-4,4 -4,-406 1563.52,-406 1563.52,4 -4,4"/>
<!-- n1 -->
<g id="node1" class="node">
<title>n1</title>
<polygon fill="lightblue" stroke="black" points="721.24,-384 628.12,-402 441.88,-402 348.76,-384 441.88,-366 628.12,-366 721.24,-384"/>
<text text-anchor="middle" x="535" y="-380.3" font-family="Arial" font-size="14.00">Illustrate plants with and without water.</text>
</g>
<!-- n2 -->
<g id="node2" class="node">
<title>n2</title>
<polygon fill="#fffdd0" stroke="black" points="198,-280 0,-280 0,-244 198,-244 198,-280"/>
<text text-anchor="middle" x="99" y="-258.3" font-family="Arial" font-size="14.00">Two plants drawn side&#45;by&#45;side</text>
</g>
<!-- n1&#45;&gt;n2 -->
<g id="edge1" class="edge">
<title>n1&#45;&gt;n2</title>
<path fill="none" stroke="black" d="M472.99,-365.93C393.16,-343.96 254.73,-305.86 170.53,-282.69"/>
<polygon fill="black" stroke="black" points="171.36,-279.29 160.79,-280.01 169.5,-286.04 171.36,-279.29"/>
</g>
<!-- n3 -->
<g id="node3" class="node">
<title>n3</title>
<polygon fill="#fffdd0" stroke="black" points="509.5,-280 256.5,-280 256.5,-244 509.5,-244 509.5,-280"/>
<text text-anchor="middle" x="383" y="-258.3" font-family="Arial" font-size="14.00">Healthy plant with upright, green leaves</text>
</g>
<!-- n1&#45;&gt;n3 -->
<g id="edge2" class="edge">
<title>n1&#45;&gt;n3</title>
<path fill="none" stroke="black" d="M513.22,-365.81C486.81,-344.96 442.17,-309.71 412.64,-286.4"/>
<polygon fill="black" stroke="black" points="414.76,-283.61 404.74,-280.16 410.42,-289.1 414.76,-283.61"/>
</g>
<!-- n4 -->
<g id="node4" class="node">
<title>n4</title>
<polygon fill="#fffdd0" stroke="black" points="806,-280 568,-280 568,-244 806,-244 806,-280"/>
<text text-anchor="middle" x="687" y="-258.3" font-family="Arial" font-size="14.00">Sun included above the healthy plant</text>
</g>
<!-- n1&#45;&gt;n4 -->
<g id="edge3" class="edge">
<title>n1&#45;&gt;n4</title>
<path fill="none" stroke="black" d="M556.78,-365.81C583.19,-344.96 627.83,-309.71 657.36,-286.4"/>
<polygon fill="black" stroke="black" points="659.58,-289.1 665.26,-280.16 655.24,-283.61 659.58,-289.1"/>
</g>
<!-- n5 -->
<g id="node5" class="node">
<title>n5</title>
<polygon fill="#fffdd0" stroke="black" points="1242,-280 970,-280 970,-244 1242,-244 1242,-280"/>
<text text-anchor="middle" x="1106" y="-258.3" font-family="Arial" font-size="14.00">Droopy smaller leaves on the second plant</text>
</g>
<!-- n1&#45;&gt;n5 -->
<g id="edge4" class="edge">
<title>n1&#45;&gt;n5</title>
<path fill="none" stroke="black" d="M615.9,-366C721.22,-343.87 904.78,-305.29 1014.9,-282.15"/>
<polygon fill="black" stroke="black" points="1015.93,-285.51 1025,-280.03 1014.49,-278.66 1015.93,-285.51"/>
</g>
<!-- n6 -->
<g id="node6" class="node">
<title>n6</title>
<path fill="palegreen" stroke="black" d="M495,-158C495,-158 231,-158 231,-158 225,-158 219,-152 219,-146 219,-146 219,-134 219,-134 219,-128 225,-122 231,-122 231,-122 495,-122 495,-122 501,-122 507,-128 507,-134 507,-134 507,-146 507,-146 507,-152 501,-158 495,-158"/>
<text text-anchor="middle" x="363" y="-136.3" font-family="Arial" font-size="14.00">Understands that a healthy plant needs water</text>
</g>
<!-- n3&#45;&gt;n6 -->
<g id="edge5" class="edge">
<title>n3&#45;&gt;n6</title>
<path fill="none" stroke="black" d="M380.13,-243.81C376.84,-224.02 371.38,-191.29 367.51,-168.08"/>
<polygon fill="black" stroke="black" points="370.95,-167.45 365.86,-158.16 364.05,-168.6 370.95,-167.45"/>
</g>
<!-- n7 -->
<g id="node7" class="node">
<title>n7</title>
<path fill="palegreen" stroke="black" d="M796.5,-158C796.5,-158 577.5,-158 577.5,-158 571.5,-158 565.5,-152 565.5,-146 565.5,-146 565.5,-134 565.5,-134 565.5,-128 571.5,-122 577.5,-122 577.5,-122 796.5,-122 796.5,-122 802.5,-122 808.5,-128 808.5,-134 808.5,-134 808.5,-146 808.5,-146 808.5,-152 802.5,-158 796.5,-158"/>
<text text-anchor="middle" x="687" y="-136.3" font-family="Arial" font-size="14.00">Understands plants need light to grow</text>
</g>
<!-- n4&#45;&gt;n7 -->
<g id="edge6" class="edge">
<title>n4&#45;&gt;n7</title>
<path fill="none" stroke="black" d="M687,-243.81C687,-224.11 687,-191.58 687,-168.39"/>
<polygon fill="black" stroke="black" points="690.5,-168.16 687,-158.16 683.5,-168.16 690.5,-168.16"/>
</g>
<!-- n8 -->
<g id="node8" class="node">
<title>n8</title>
<polygon fill="lightcoral" stroke="black" points="1213,-158 866.46,-140 1213,-122 1559.54,-140 1213,-158"/>
<text text-anchor="middle" x="1213" y="-136.3" font-family="Arial" font-size="14.00">Misunderstanding in showing clear difference in water levels</text>
</g>
<!-- n5&#45;&gt;n8 -->
<g id="edge7" class="edge">
<title>n5&#45;&gt;n8</title>
<path fill="none" stroke="black" d="M1121.3,-243.81C1139.7,-223.17 1170.7,-188.43 1191.5,-165.12"/>
<polygon fill="black" stroke="black" points="1194.35,-167.18 1198.4,-157.39 1189.13,-162.52 1194.35,-167.18"/>
</g>
<!-- n9 -->
<g id="node9" class="node">
<title>n9</title>
<polygon fill="#f28e8e" stroke="black" points="1528,-36 898,-36 898,0 1528,0 1528,-36"/>
<text text-anchor="middle" x="1213" y="-14.3" font-family="Arial" font-size="14.00">Provide clearer distinction between healthy and under&#45;watered plants by emphasizing leaf color or size</text>
</g>
<!-- n8&#45;&gt;n9 -->
<g id="edge8" class="edge">
<title>n8&#45;&gt;n9</title>
<path fill="none" stroke="black" d="M1213,-121.81C1213,-102.11 1213,-69.58 1213,-46.39"/>
<polygon fill="black" stroke="black" points="1216.5,-46.16 1213,-36.16 1209.5,-46.16 1216.5,-46.16"/>
</g>
</g>
</svg>
