<?xml version="1.0" encoding="UTF-8" standalone="no"?>
<!DOCTYPE svg PUBLIC "-//W3C//DTD SVG 1.1//EN"
 "http://www.w3.org/Graphics/SVG/1.1/DTD/svg11.dtd">
<!-- Generated by graphviz version 2.43.0 (0)
 -->
<!-- Pages: 1 -->
<svg width="2233pt" height="410pt"
 viewBox="0.00 0.00 2232.68 410.00" xmlns="http://www.w3.org/2000/svg" xmlns:xlink="http://www.w3.org/1999/xlink">
<g id="graph0" class="graph" transform="scale(1 1) rotate(0) translate(4 406)">
<polygon fill="white" stroke="transparent" points="-4,4 -4,-406 2228.68,-406 2228.68,4 -4,4"/>
<!-- n1 -->
<g id="node1" class="node">
<title>n1</title>
<polygon fill="lightblue" stroke="black" points="1146.82,-384 1024.41,-402 779.59,-402 657.18,-384 779.59,-366 1024.41,-366 1146.82,-384"/>
<text text-anchor="middle" x="902" y="-380.3" font-family="Arial" font-size="14.00">Draw a habitat and the different living things in each</text>
</g>
<!-- n2 -->
<g id="node2" class="node">
<title>n2</title>
<polygon fill="#fffdd0" stroke="black" points="391,-280 71,-280 71,-244 391,-244 391,-280"/>
<text text-anchor="middle" x="231" y="-258.3" font-family="Arial" font-size="14.00">Two uneven brown trunks with green circles on top</text>
</g>
<!-- n1&#45;&gt;n2 -->
<g id="edge1" class="edge">
<title>n1&#45;&gt;n2</title>
<path fill="none" stroke="black" d="M806.93,-366C682.55,-343.75 465.28,-304.9 336.12,-281.8"/>
<polygon fill="black" stroke="black" points="336.67,-278.34 326.21,-280.03 335.44,-285.23 336.67,-278.34"/>
</g>
<!-- n4 -->
<g id="node3" class="node">
<title>n4</title>
<polygon fill="#fffdd0" stroke="black" points="648,-280 452,-280 452,-244 648,-244 648,-280"/>
<text text-anchor="middle" x="550" y="-258.3" font-family="Arial" font-size="14.00">Blue oval representing a pond</text>
</g>
<!-- n1&#45;&gt;n4 -->
<g id="edge2" class="edge">
<title>n1&#45;&gt;n4</title>
<path fill="none" stroke="black" d="M851.94,-365.93C788.08,-344.16 677.76,-306.56 609.62,-283.33"/>
<polygon fill="black" stroke="black" points="610.48,-279.93 599.89,-280.01 608.22,-286.55 610.48,-279.93"/>
</g>
<!-- n6 -->
<g id="node4" class="node">
<title>n6</title>
<polygon fill="#fffdd0" stroke="black" points="987.5,-280 816.5,-280 816.5,-244 987.5,-244 987.5,-280"/>
<text text-anchor="middle" x="902" y="-258.3" font-family="Arial" font-size="14.00">&#39;Dog&#39; depicted near a tree</text>
</g>
<!-- n1&#45;&gt;n6 -->
<g id="edge3" class="edge">
<title>n1&#45;&gt;n6</title>
<path fill="none" stroke="black" d="M902,-365.81C902,-346.11 902,-313.58 902,-290.39"/>
<polygon fill="black" stroke="black" points="905.5,-290.16 902,-280.16 898.5,-290.16 905.5,-290.16"/>
</g>
<!-- n9 -->
<g id="node5" class="node">
<title>n9</title>
<polygon fill="#fffdd0" stroke="black" points="1384.5,-280 1217.5,-280 1217.5,-244 1384.5,-244 1384.5,-280"/>
<text text-anchor="middle" x="1301" y="-258.3" font-family="Arial" font-size="14.00">&#39;Cat&#39; depicted near a tree</text>
</g>
<!-- n1&#45;&gt;n9 -->
<g id="edge4" class="edge">
<title>n1&#45;&gt;n9</title>
<path fill="none" stroke="black" d="M958.74,-365.93C1031.6,-344.03 1157.7,-306.09 1234.8,-282.9"/>
<polygon fill="black" stroke="black" points="1235.92,-286.22 1244.5,-280.01 1233.92,-279.51 1235.92,-286.22"/>
</g>
<!-- n12 -->
<g id="node6" class="node">
<title>n12</title>
<polygon fill="#fffdd0" stroke="black" points="1970.5,-280 1641.5,-280 1641.5,-244 1970.5,-244 1970.5,-280"/>
<text text-anchor="middle" x="1806" y="-258.3" font-family="Arial" font-size="14.00">Fish drawn above or near a tree instead of in a pond</text>
</g>
<!-- n1&#45;&gt;n12 -->
<g id="edge5" class="edge">
<title>n1&#45;&gt;n12</title>
<path fill="none" stroke="black" d="M1027.2,-366.38C1195.3,-344.06 1493,-304.56 1667.5,-281.38"/>
<polygon fill="black" stroke="black" points="1668.14,-284.83 1677.6,-280.05 1667.23,-277.89 1668.14,-284.83"/>
</g>
<!-- n3 -->
<g id="node7" class="node">
<title>n3</title>
<path fill="palegreen" stroke="black" d="M224,-158C224,-158 12,-158 12,-158 6,-158 0,-152 0,-146 0,-146 0,-134 0,-134 0,-128 6,-122 12,-122 12,-122 224,-122 224,-122 230,-122 236,-128 236,-134 236,-134 236,-146 236,-146 236,-152 230,-158 224,-158"/>
<text text-anchor="middle" x="118" y="-136.3" font-family="Arial" font-size="14.00">Student recognizes trees in a habitat</text>
</g>
<!-- n2&#45;&gt;n3 -->
<g id="edge6" class="edge">
<title>n2&#45;&gt;n3</title>
<path fill="none" stroke="black" d="M214.81,-243.81C195.51,-223.31 163.12,-188.91 141.17,-165.6"/>
<polygon fill="black" stroke="black" points="143.57,-163.04 134.16,-158.16 138.47,-167.84 143.57,-163.04"/>
</g>
<!-- n5 -->
<g id="node8" class="node">
<title>n5</title>
<path fill="palegreen" stroke="black" d="M573.5,-158C573.5,-158 306.5,-158 306.5,-158 300.5,-158 294.5,-152 294.5,-146 294.5,-146 294.5,-134 294.5,-134 294.5,-128 300.5,-122 306.5,-122 306.5,-122 573.5,-122 573.5,-122 579.5,-122 585.5,-128 585.5,-134 585.5,-134 585.5,-146 585.5,-146 585.5,-152 579.5,-158 573.5,-158"/>
<text text-anchor="middle" x="440" y="-136.3" font-family="Arial" font-size="14.00">Student recognizes water features in a habitat</text>
</g>
<!-- n4&#45;&gt;n5 -->
<g id="edge7" class="edge">
<title>n4&#45;&gt;n5</title>
<path fill="none" stroke="black" d="M534.24,-243.81C515.45,-223.31 483.92,-188.91 462.55,-165.6"/>
<polygon fill="black" stroke="black" points="465.07,-163.17 455.73,-158.16 459.91,-167.9 465.07,-163.17"/>
</g>
<!-- n7 -->
<g id="node9" class="node">
<title>n7</title>
<polygon fill="lightcoral" stroke="black" points="902,-158 643.5,-140 902,-122 1160.5,-140 902,-158"/>
<text text-anchor="middle" x="902" y="-136.3" font-family="Arial" font-size="14.00">Lacks understanding of dogs&#39; natural habitat</text>
</g>
<!-- n6&#45;&gt;n7 -->
<g id="edge8" class="edge">
<title>n6&#45;&gt;n7</title>
<path fill="none" stroke="black" d="M902,-243.81C902,-224.11 902,-191.58 902,-168.39"/>
<polygon fill="black" stroke="black" points="905.5,-168.16 902,-158.16 898.5,-168.16 905.5,-168.16"/>
</g>
<!-- n10 -->
<g id="node10" class="node">
<title>n10</title>
<polygon fill="lightcoral" stroke="black" points="1473,-158 1218.29,-140 1473,-122 1727.71,-140 1473,-158"/>
<text text-anchor="middle" x="1473" y="-136.3" font-family="Arial" font-size="14.00">Lacks understanding of cats&#39; natural habitat</text>
</g>
<!-- n9&#45;&gt;n10 -->
<g id="edge9" class="edge">
<title>n9&#45;&gt;n10</title>
<path fill="none" stroke="black" d="M1325.6,-243.81C1356.4,-222.33 1409.1,-185.59 1442.4,-162.34"/>
<polygon fill="black" stroke="black" points="1444.67,-165.02 1450.9,-156.45 1440.69,-159.27 1444.67,-165.02"/>
</g>
<!-- n13 -->
<g id="node11" class="node">
<title>n13</title>
<polygon fill="lightcoral" stroke="black" points="2005,-158 1785.14,-140 2005,-122 2224.86,-140 2005,-158"/>
<text text-anchor="middle" x="2005" y="-136.3" font-family="Arial" font-size="14.00">Misunderstands that fish live in water</text>
</g>
<!-- n12&#45;&gt;n13 -->
<g id="edge10" class="edge">
<title>n12&#45;&gt;n13</title>
<path fill="none" stroke="black" d="M1834.5,-243.81C1870.6,-222.03 1932.8,-184.55 1971.2,-161.36"/>
<polygon fill="black" stroke="black" points="1973.23,-164.23 1980,-156.08 1969.62,-158.22 1973.23,-164.23"/>
</g>
<!-- n8 -->
<g id="node12" class="node">
<title>n8</title>
<polygon fill="#f28e8e" stroke="black" points="1076,-36 728,-36 728,0 1076,0 1076,-36"/>
<text text-anchor="middle" x="902" y="-14.3" font-family="Arial" font-size="14.00">Introduce various animal habitats including urban areas</text>
</g>
<!-- n7&#45;&gt;n8 -->
<g id="edge11" class="edge">
<title>n7&#45;&gt;n8</title>
<path fill="none" stroke="black" d="M902,-121.81C902,-102.11 902,-69.58 902,-46.39"/>
<polygon fill="black" stroke="black" points="905.5,-46.16 902,-36.16 898.5,-46.16 905.5,-46.16"/>
</g>
<!-- n11 -->
<g id="node13" class="node">
<title>n11</title>
<polygon fill="#f28e8e" stroke="black" points="1651.5,-36 1294.5,-36 1294.5,0 1651.5,0 1651.5,-36"/>
<text text-anchor="middle" x="1473" y="-14.3" font-family="Arial" font-size="14.00">Explain indoor vs outdoor animals and their living spaces</text>
</g>
<!-- n10&#45;&gt;n11 -->
<g id="edge12" class="edge">
<title>n10&#45;&gt;n11</title>
<path fill="none" stroke="black" d="M1473,-121.81C1473,-102.11 1473,-69.58 1473,-46.39"/>
<polygon fill="black" stroke="black" points="1476.5,-46.16 1473,-36.16 1469.5,-46.16 1476.5,-46.16"/>
</g>
<!-- n14 -->
<g id="node14" class="node">
<title>n14</title>
<polygon fill="#f28e8e" stroke="black" points="2105,-36 1905,-36 1905,0 2105,0 2105,-36"/>
<text text-anchor="middle" x="2005" y="-14.3" font-family="Arial" font-size="14.00">Review habitats for aquatic life</text>
</g>
<!-- n13&#45;&gt;n14 -->
<g id="edge13" class="edge">
<title>n13&#45;&gt;n14</title>
<path fill="none" stroke="black" d="M2005,-121.81C2005,-102.11 2005,-69.58 2005,-46.39"/>
<polygon fill="black" stroke="black" points="2008.5,-46.16 2005,-36.16 2001.5,-46.16 2008.5,-46.16"/>
</g>
</g>
</svg>
