<?xml version="1.0" encoding="UTF-8" standalone="no"?>
<!DOCTYPE svg PUBLIC "-//W3C//DTD SVG 1.1//EN"
 "http://www.w3.org/Graphics/SVG/1.1/DTD/svg11.dtd">
<!-- Generated by graphviz version 2.43.0 (0)
 -->
<!-- Pages: 1 -->
<svg width="1806pt" height="288pt"
 viewBox="0.00 0.00 1805.50 288.00" xmlns="http://www.w3.org/2000/svg" xmlns:xlink="http://www.w3.org/1999/xlink">
<g id="graph0" class="graph" transform="scale(1 1) rotate(0) translate(4 284)">
<polygon fill="white" stroke="transparent" points="-4,4 -4,-284 1801.5,-284 1801.5,4 -4,4"/>
<!-- n1 -->
<g id="node1" class="node">
<title>n1</title>
<polygon fill="lightblue" stroke="black" points="1320,-262 1189.75,-280 929.25,-280 799,-262 929.25,-244 1189.75,-244 1320,-262"/>
<text text-anchor="middle" x="1059.5" y="-258.3" font-family="Arial" font-size="14.00">Draw two habitats and the different living things in each</text>
</g>
<!-- n2 -->
<g id="node2" class="node">
<title>n2</title>
<polygon fill="#fffdd0" stroke="black" points="649,-158 374,-158 374,-122 649,-122 649,-158"/>
<text text-anchor="middle" x="511.5" y="-136.3" font-family="Arial" font-size="14.00">Lush green forest with tall trees and shrubs</text>
</g>
<!-- n1&#45;&gt;n2 -->
<g id="edge1" class="edge">
<title>n1&#45;&gt;n2</title>
<path fill="none" stroke="black" d="M981.86,-244C880.89,-221.89 704.97,-183.37 599.26,-160.22"/>
<polygon fill="black" stroke="black" points="599.77,-156.75 589.25,-158.03 598.27,-163.59 599.77,-156.75"/>
</g>
<!-- n3 -->
<g id="node3" class="node">
<title>n3</title>
<polygon fill="#fffdd0" stroke="black" points="1040,-158 743,-158 743,-122 1040,-122 1040,-158"/>
<text text-anchor="middle" x="891.5" y="-136.3" font-family="Arial" font-size="14.00">Variety of forest animals like squirrels and deer</text>
</g>
<!-- n1&#45;&gt;n3 -->
<g id="edge2" class="edge">
<title>n1&#45;&gt;n3</title>
<path fill="none" stroke="black" d="M1035.4,-243.81C1006.1,-222.87 956.47,-187.41 923.84,-164.1"/>
<polygon fill="black" stroke="black" points="925.7,-161.13 915.53,-158.16 921.63,-166.82 925.7,-161.13"/>
</g>
<!-- n4 -->
<g id="node4" class="node">
<title>n4</title>
<polygon fill="#fffdd0" stroke="black" points="1381,-158 1122,-158 1122,-122 1381,-122 1381,-158"/>
<text text-anchor="middle" x="1251.5" y="-136.3" font-family="Arial" font-size="14.00">Vibrant pond habitat with lily pads, reeds</text>
</g>
<!-- n1&#45;&gt;n4 -->
<g id="edge3" class="edge">
<title>n1&#45;&gt;n4</title>
<path fill="none" stroke="black" d="M1087,-243.81C1120.8,-222.69 1178.2,-186.81 1215.5,-163.51"/>
<polygon fill="black" stroke="black" points="1217.4,-166.45 1224,-158.16 1213.67,-160.52 1217.4,-166.45"/>
</g>
<!-- n5 -->
<g id="node5" class="node">
<title>n5</title>
<polygon fill="#fffdd0" stroke="black" points="1769,-158 1474,-158 1474,-122 1769,-122 1769,-158"/>
<text text-anchor="middle" x="1621.5" y="-136.3" font-family="Arial" font-size="14.00">Fish, frogs, and aquatic insects in pond habitat</text>
</g>
<!-- n1&#45;&gt;n5 -->
<g id="edge4" class="edge">
<title>n1&#45;&gt;n5</title>
<path fill="none" stroke="black" d="M1139.1,-244C1242.8,-221.87 1423.5,-183.29 1531.8,-160.15"/>
<polygon fill="black" stroke="black" points="1532.74,-163.53 1541.8,-158.03 1531.29,-156.68 1532.74,-163.53"/>
</g>
<!-- n6 -->
<g id="node6" class="node">
<title>n6</title>
<path fill="palegreen" stroke="black" d="M289,-36C289,-36 12,-36 12,-36 6,-36 0,-30 0,-24 0,-24 0,-12 0,-12 0,-6 6,0 12,0 12,0 289,0 289,0 295,0 301,-6 301,-12 301,-12 301,-24 301,-24 301,-30 295,-36 289,-36"/>
<text text-anchor="middle" x="150.5" y="-14.3" font-family="Arial" font-size="14.00">Identifies and illustrates land and water habitats</text>
</g>
<!-- n2&#45;&gt;n6 -->
<g id="edge5" class="edge">
<title>n2&#45;&gt;n6</title>
<path fill="none" stroke="black" d="M460.16,-121.93C394.53,-100.12 281.07,-62.4 211.22,-39.18"/>
<polygon fill="black" stroke="black" points="212.25,-35.84 201.66,-36.01 210.05,-42.48 212.25,-35.84"/>
</g>
<!-- n7 -->
<g id="node7" class="node">
<title>n7</title>
<path fill="palegreen" stroke="black" d="M651.5,-36C651.5,-36 371.5,-36 371.5,-36 365.5,-36 359.5,-30 359.5,-24 359.5,-24 359.5,-12 359.5,-12 359.5,-6 365.5,0 371.5,0 371.5,0 651.5,0 651.5,0 657.5,0 663.5,-6 663.5,-12 663.5,-12 663.5,-24 663.5,-24 663.5,-30 657.5,-36 651.5,-36"/>
<text text-anchor="middle" x="511.5" y="-14.3" font-family="Arial" font-size="14.00">Draws and labels different plants in each habitat</text>
</g>
<!-- n2&#45;&gt;n7 -->
<g id="edge6" class="edge">
<title>n2&#45;&gt;n7</title>
<path fill="none" stroke="black" d="M511.5,-121.81C511.5,-102.11 511.5,-69.58 511.5,-46.39"/>
<polygon fill="black" stroke="black" points="515,-46.16 511.5,-36.16 508,-46.16 515,-46.16"/>
</g>
<!-- n8 -->
<g id="node8" class="node">
<title>n8</title>
<path fill="palegreen" stroke="black" d="M1025,-36C1025,-36 734,-36 734,-36 728,-36 722,-30 722,-24 722,-24 722,-12 722,-12 722,-6 728,0 734,0 734,0 1025,0 1025,0 1031,0 1037,-6 1037,-12 1037,-12 1037,-24 1037,-24 1037,-30 1031,-36 1025,-36"/>
<text text-anchor="middle" x="879.5" y="-14.3" font-family="Arial" font-size="14.00">Draws and labels different animals in each habitat</text>
</g>
<!-- n3&#45;&gt;n8 -->
<g id="edge7" class="edge">
<title>n3&#45;&gt;n8</title>
<path fill="none" stroke="black" d="M889.78,-121.81C887.81,-102.11 884.56,-69.58 882.24,-46.39"/>
<polygon fill="black" stroke="black" points="885.7,-45.76 881.22,-36.16 878.73,-46.46 885.7,-45.76"/>
</g>
<!-- n9 -->
<g id="node9" class="node">
<title>n9</title>
<path fill="palegreen" stroke="black" d="M1421.5,-36C1421.5,-36 1107.5,-36 1107.5,-36 1101.5,-36 1095.5,-30 1095.5,-24 1095.5,-24 1095.5,-12 1095.5,-12 1095.5,-6 1101.5,0 1107.5,0 1107.5,0 1421.5,0 1421.5,0 1427.5,0 1433.5,-6 1433.5,-12 1433.5,-12 1433.5,-24 1433.5,-24 1433.5,-30 1427.5,-36 1421.5,-36"/>
<text text-anchor="middle" x="1264.5" y="-14.3" font-family="Arial" font-size="14.00">Illustrates and compares plant and animal differences</text>
</g>
<!-- n4&#45;&gt;n9 -->
<g id="edge8" class="edge">
<title>n4&#45;&gt;n9</title>
<path fill="none" stroke="black" d="M1253.4,-121.81C1255.5,-102.11 1259,-69.58 1261.5,-46.39"/>
<polygon fill="black" stroke="black" points="1265.01,-46.48 1262.6,-36.16 1258.05,-45.73 1265.01,-46.48"/>
</g>
<!-- n10 -->
<g id="node10" class="node">
<title>n10</title>
<path fill="palegreen" stroke="black" d="M1785.5,-36C1785.5,-36 1503.5,-36 1503.5,-36 1497.5,-36 1491.5,-30 1491.5,-24 1491.5,-24 1491.5,-12 1491.5,-12 1491.5,-6 1497.5,0 1503.5,0 1503.5,0 1785.5,0 1785.5,0 1791.5,0 1797.5,-6 1797.5,-12 1797.5,-12 1797.5,-24 1797.5,-24 1797.5,-30 1791.5,-36 1785.5,-36"/>
<text text-anchor="middle" x="1644.5" y="-14.3" font-family="Arial" font-size="14.00">Identifies patterns in living things across habitats</text>
</g>
<!-- n5&#45;&gt;n10 -->
<g id="edge9" class="edge">
<title>n5&#45;&gt;n10</title>
<path fill="none" stroke="black" d="M1624.8,-121.81C1628.6,-102.02 1634.9,-69.29 1639.3,-46.08"/>
<polygon fill="black" stroke="black" points="1642.76,-46.64 1641.2,-36.16 1635.88,-45.32 1642.76,-46.64"/>
</g>
</g>
</svg>
