<?xml version="1.0" encoding="UTF-8" standalone="no"?>
<!DOCTYPE svg PUBLIC "-//W3C//DTD SVG 1.1//EN"
 "http://www.w3.org/Graphics/SVG/1.1/DTD/svg11.dtd">
<!-- Generated by graphviz version 2.43.0 (0)
 -->
<!-- Pages: 1 -->
<svg width="2030pt" height="410pt"
 viewBox="0.00 0.00 2030.00 410.00" xmlns="http://www.w3.org/2000/svg" xmlns:xlink="http://www.w3.org/1999/xlink">
<g id="graph0" class="graph" transform="scale(1 1) rotate(0) translate(4 406)">
<polygon fill="white" stroke="transparent" points="-4,4 -4,-406 2026,-406 2026,4 -4,4"/>
<!-- n1 -->
<g id="node1" class="node">
<title>n1</title>
<polygon fill="lightblue" stroke="black" points="1340.5,-384 1210.25,-402 949.75,-402 819.5,-384 949.75,-366 1210.25,-366 1340.5,-384"/>
<text text-anchor="middle" x="1080" y="-380.3" font-family="Arial" font-size="14.00">Draw two habitats and the different living things in each</text>
</g>
<!-- n2 -->
<g id="node2" class="node">
<title>n2</title>
<polygon fill="#fffdd0" stroke="black" points="1052,-280 714,-280 714,-244 1052,-244 1052,-280"/>
<text text-anchor="middle" x="883" y="-258.3" font-family="Arial" font-size="14.00">Forest habitat with trees, bushes, birds, and a squirrel</text>
</g>
<!-- n1&#45;&gt;n2 -->
<g id="edge1" class="edge">
<title>n1&#45;&gt;n2</title>
<path fill="none" stroke="black" d="M1051.8,-365.81C1017.1,-344.69 958.2,-308.81 919.95,-285.51"/>
<polygon fill="black" stroke="black" points="921.53,-282.37 911.17,-280.16 917.89,-288.35 921.53,-282.37"/>
</g>
<!-- n3 -->
<g id="node3" class="node">
<title>n3</title>
<polygon fill="#fffdd0" stroke="black" points="1577.5,-280 1242.5,-280 1242.5,-244 1577.5,-244 1577.5,-280"/>
<text text-anchor="middle" x="1410" y="-258.3" font-family="Arial" font-size="14.00">Pond habitat with water, fish, clams, and water plants</text>
</g>
<!-- n1&#45;&gt;n3 -->
<g id="edge2" class="edge">
<title>n1&#45;&gt;n3</title>
<path fill="none" stroke="black" d="M1126.9,-365.93C1186.7,-344.21 1289.8,-306.71 1353.7,-283.47"/>
<polygon fill="black" stroke="black" points="1355,-286.72 1363.2,-280.01 1352.61,-280.14 1355,-286.72"/>
</g>
<!-- n4 -->
<g id="node4" class="node">
<title>n4</title>
<path fill="palegreen" stroke="black" d="M334,-158C334,-158 12,-158 12,-158 6,-158 0,-152 0,-146 0,-146 0,-134 0,-134 0,-128 6,-122 12,-122 12,-122 334,-122 334,-122 340,-122 346,-128 346,-134 346,-134 346,-146 346,-146 346,-152 340,-158 334,-158"/>
<text text-anchor="middle" x="173" y="-136.3" font-family="Arial" font-size="14.00">Correctly displays land habitat with various living things</text>
</g>
<!-- n2&#45;&gt;n4 -->
<g id="edge3" class="edge">
<title>n2&#45;&gt;n4</title>
<path fill="none" stroke="black" d="M782.4,-244C650.66,-221.73 420.44,-182.82 283.82,-159.73"/>
<polygon fill="black" stroke="black" points="284.18,-156.24 273.74,-158.03 283.02,-163.14 284.18,-156.24"/>
</g>
<!-- n6 -->
<g id="node5" class="node">
<title>n6</title>
<path fill="palegreen" stroke="black" d="M1652,-158C1652,-158 1168,-158 1168,-158 1162,-158 1156,-152 1156,-146 1156,-146 1156,-134 1156,-134 1156,-128 1162,-122 1168,-122 1168,-122 1652,-122 1652,-122 1658,-122 1664,-128 1664,-134 1664,-134 1664,-146 1664,-146 1664,-152 1658,-158 1652,-158"/>
<text text-anchor="middle" x="1410" y="-136.3" font-family="Arial" font-size="14.00">Difference between land and water habitat correctly shown through trees vs. water</text>
</g>
<!-- n2&#45;&gt;n6 -->
<g id="edge4" class="edge">
<title>n2&#45;&gt;n6</title>
<path fill="none" stroke="black" d="M957.67,-244C1054.7,-221.91 1223.6,-183.44 1325.3,-160.29"/>
<polygon fill="black" stroke="black" points="1326.23,-163.67 1335.2,-158.03 1324.67,-156.84 1326.23,-163.67"/>
</g>
<!-- n7 -->
<g id="node6" class="node">
<title>n7</title>
<polygon fill="lightcoral" stroke="black" points="751,-158 404.46,-140 751,-122 1097.54,-140 751,-158"/>
<text text-anchor="middle" x="751" y="-136.3" font-family="Arial" font-size="14.00">Labels some living things but lacks label precision and detail</text>
</g>
<!-- n2&#45;&gt;n7 -->
<g id="edge5" class="edge">
<title>n2&#45;&gt;n7</title>
<path fill="none" stroke="black" d="M864.09,-243.81C841.09,-222.9 802.17,-187.52 776.53,-164.21"/>
<polygon fill="black" stroke="black" points="778.78,-161.53 769.03,-157.39 774.07,-166.71 778.78,-161.53"/>
</g>
<!-- n3&#45;&gt;n6 -->
<g id="edge6" class="edge">
<title>n3&#45;&gt;n6</title>
<path fill="none" stroke="black" d="M1410,-243.81C1410,-224.11 1410,-191.58 1410,-168.39"/>
<polygon fill="black" stroke="black" points="1413.5,-168.16 1410,-158.16 1406.5,-168.16 1413.5,-168.16"/>
</g>
<!-- n5 -->
<g id="node7" class="node">
<title>n5</title>
<path fill="palegreen" stroke="black" d="M2010,-158C2010,-158 1734,-158 1734,-158 1728,-158 1722,-152 1722,-146 1722,-146 1722,-134 1722,-134 1722,-128 1728,-122 1734,-122 1734,-122 2010,-122 2010,-122 2016,-122 2022,-128 2022,-134 2022,-134 2022,-146 2022,-146 2022,-152 2016,-158 2010,-158"/>
<text text-anchor="middle" x="1872" y="-136.3" font-family="Arial" font-size="14.00">Correctly displays water habitat with aquatic life</text>
</g>
<!-- n3&#45;&gt;n5 -->
<g id="edge7" class="edge">
<title>n3&#45;&gt;n5</title>
<path fill="none" stroke="black" d="M1475.7,-243.93C1560.5,-221.92 1707.6,-183.71 1796.7,-160.55"/>
<polygon fill="black" stroke="black" points="1797.7,-163.91 1806.5,-158.01 1795.94,-157.13 1797.7,-163.91"/>
</g>
<!-- n8 -->
<g id="node8" class="node">
<title>n8</title>
<polygon fill="#f28e8e" stroke="black" points="959,-36 543,-36 543,0 959,0 959,-36"/>
<text text-anchor="middle" x="751" y="-14.3" font-family="Arial" font-size="14.00">Improve labeling accuracy by including names for more organisms</text>
</g>
<!-- n7&#45;&gt;n8 -->
<g id="edge8" class="edge">
<title>n7&#45;&gt;n8</title>
<path fill="none" stroke="black" d="M751,-121.81C751,-102.11 751,-69.58 751,-46.39"/>
<polygon fill="black" stroke="black" points="754.5,-46.16 751,-36.16 747.5,-46.16 754.5,-46.16"/>
</g>
</g>
</svg>
