<?xml version="1.0" encoding="UTF-8" standalone="no"?>
<!DOCTYPE svg PUBLIC "-//W3C//DTD SVG 1.1//EN"
 "http://www.w3.org/Graphics/SVG/1.1/DTD/svg11.dtd">
<!-- Generated by graphviz version 2.43.0 (0)
 -->
<!-- Pages: 1 -->
<svg width="1257pt" height="410pt"
 viewBox="0.00 0.00 1256.50 410.00" xmlns="http://www.w3.org/2000/svg" xmlns:xlink="http://www.w3.org/1999/xlink">
<g id="graph0" class="graph" transform="scale(1 1) rotate(0) translate(4 406)">
<polygon fill="white" stroke="transparent" points="-4,4 -4,-406 1252.5,-406 1252.5,4 -4,4"/>
<!-- n1 -->
<g id="node1" class="node">
<title>n1</title>
<polygon fill="lightblue" stroke="black" points="514,-384 422.75,-402 240.25,-402 149,-384 240.25,-366 422.75,-366 514,-384"/>
<text text-anchor="middle" x="331.5" y="-380.3" font-family="Arial" font-size="14.00">Draw reversible changes (ice melting)</text>
</g>
<!-- n2 -->
<g id="node2" class="node">
<title>n2</title>
<polygon fill="#fffdd0" stroke="black" points="655.5,-280 361.5,-280 361.5,-244 655.5,-244 655.5,-280"/>
<text text-anchor="middle" x="508.5" y="-258.3" font-family="Arial" font-size="14.00">Three stages: Ice cube, droplets, water puddle</text>
</g>
<!-- n1&#45;&gt;n2 -->
<g id="edge1" class="edge">
<title>n1&#45;&gt;n2</title>
<path fill="none" stroke="black" d="M356.86,-365.81C387.88,-344.78 440.49,-309.11 474.87,-285.8"/>
<polygon fill="black" stroke="black" points="476.88,-288.67 483.19,-280.16 472.95,-282.87 476.88,-288.67"/>
</g>
<!-- n3 -->
<g id="node3" class="node">
<title>n3</title>
<polygon fill="#fffdd0" stroke="black" points="271,-280 104,-280 104,-244 271,-244 271,-280"/>
<text text-anchor="middle" x="187.5" y="-258.3" font-family="Arial" font-size="14.00">Arrows indicating change</text>
</g>
<!-- n1&#45;&gt;n3 -->
<g id="edge2" class="edge">
<title>n1&#45;&gt;n3</title>
<path fill="none" stroke="black" d="M310.87,-365.81C285.95,-345.04 243.91,-310.01 215.94,-286.7"/>
<polygon fill="black" stroke="black" points="218.01,-283.87 208.09,-280.16 213.53,-289.25 218.01,-283.87"/>
</g>
<!-- n4 -->
<g id="node4" class="node">
<title>n4</title>
<path fill="palegreen" stroke="black" d="M233,-158C233,-158 12,-158 12,-158 6,-158 0,-152 0,-146 0,-146 0,-134 0,-134 0,-128 6,-122 12,-122 12,-122 233,-122 233,-122 239,-122 245,-128 245,-134 245,-134 245,-146 245,-146 245,-152 239,-158 233,-158"/>
<text text-anchor="middle" x="122.5" y="-136.3" font-family="Arial" font-size="14.00">Understands melting from ice to water</text>
</g>
<!-- n2&#45;&gt;n4 -->
<g id="edge3" class="edge">
<title>n2&#45;&gt;n4</title>
<path fill="none" stroke="black" d="M453.61,-243.93C383.29,-222.07 261.61,-184.25 186.97,-161.04"/>
<polygon fill="black" stroke="black" points="187.8,-157.63 177.21,-158.01 185.72,-164.32 187.8,-157.63"/>
</g>
<!-- n5 -->
<g id="node5" class="node">
<title>n5</title>
<polygon fill="lightcoral" stroke="black" points="541.5,-158 303.38,-140 541.5,-122 779.62,-140 541.5,-158"/>
<text text-anchor="middle" x="541.5" y="-136.3" font-family="Arial" font-size="14.00">Does not show reversibility (water to ice)</text>
</g>
<!-- n2&#45;&gt;n5 -->
<g id="edge4" class="edge">
<title>n2&#45;&gt;n5</title>
<path fill="none" stroke="black" d="M513.23,-243.81C518.7,-223.91 527.77,-190.92 534.16,-167.68"/>
<polygon fill="black" stroke="black" points="537.61,-168.34 536.89,-157.77 530.86,-166.48 537.61,-168.34"/>
</g>
<!-- n6 -->
<g id="node6" class="node">
<title>n6</title>
<polygon fill="lightcoral" stroke="black" points="1033.5,-158 837.5,-140 1033.5,-122 1229.5,-140 1033.5,-158"/>
<text text-anchor="middle" x="1033.5" y="-136.3" font-family="Arial" font-size="14.00">Lacks labels for cause and effect</text>
</g>
<!-- n2&#45;&gt;n6 -->
<g id="edge5" class="edge">
<title>n2&#45;&gt;n6</title>
<path fill="none" stroke="black" d="M582.88,-244C686.56,-220.3 872.73,-177.75 970.15,-155.48"/>
<polygon fill="black" stroke="black" points="971.18,-158.83 980.15,-153.19 969.62,-152.01 971.18,-158.83"/>
</g>
<!-- n3&#45;&gt;n4 -->
<g id="edge6" class="edge">
<title>n3&#45;&gt;n4</title>
<path fill="none" stroke="black" d="M178.19,-243.81C167.33,-223.76 149.26,-190.4 136.66,-167.14"/>
<polygon fill="black" stroke="black" points="139.64,-165.29 131.8,-158.16 133.48,-168.62 139.64,-165.29"/>
</g>
<!-- n7 -->
<g id="node7" class="node">
<title>n7</title>
<polygon fill="#f28e8e" stroke="black" points="724,-36 359,-36 359,0 724,0 724,-36"/>
<text text-anchor="middle" x="541.5" y="-14.3" font-family="Arial" font-size="14.00">Include cooling process to show water becoming ice again</text>
</g>
<!-- n5&#45;&gt;n7 -->
<g id="edge7" class="edge">
<title>n5&#45;&gt;n7</title>
<path fill="none" stroke="black" d="M541.5,-121.81C541.5,-102.11 541.5,-69.58 541.5,-46.39"/>
<polygon fill="black" stroke="black" points="545,-46.16 541.5,-36.16 538,-46.16 545,-46.16"/>
</g>
<!-- n8 -->
<g id="node8" class="node">
<title>n8</title>
<polygon fill="#f28e8e" stroke="black" points="1248.5,-36 818.5,-36 818.5,0 1248.5,0 1248.5,-36"/>
<text text-anchor="middle" x="1033.5" y="-14.3" font-family="Arial" font-size="14.00">Use labels to show heating leads to melting, cooling leads to freezing</text>
</g>
<!-- n6&#45;&gt;n8 -->
<g id="edge8" class="edge">
<title>n6&#45;&gt;n8</title>
<path fill="none" stroke="black" d="M1033.5,-121.81C1033.5,-102.11 1033.5,-69.58 1033.5,-46.39"/>
<polygon fill="black" stroke="black" points="1037,-46.16 1033.5,-36.16 1030,-46.16 1037,-46.16"/>
</g>
</g>
</svg>
