<?xml version="1.0" encoding="UTF-8" standalone="no"?>
<!DOCTYPE svg PUBLIC "-//W3C//DTD SVG 1.1//EN"
 "http://www.w3.org/Graphics/SVG/1.1/DTD/svg11.dtd">
<!-- Generated by graphviz version 2.43.0 (0)
 -->
<!-- Pages: 1 -->
<svg width="2010pt" height="410pt"
 viewBox="0.00 0.00 2010.02 410.00" xmlns="http://www.w3.org/2000/svg" xmlns:xlink="http://www.w3.org/1999/xlink">
<g id="graph0" class="graph" transform="scale(1 1) rotate(0) translate(4 406)">
<polygon fill="white" stroke="transparent" points="-4,4 -4,-406 2006.02,-406 2006.02,4 -4,4"/>
<!-- n1 -->
<g id="node1" class="node">
<title>n1</title>
<polygon fill="lightblue" stroke="black" points="1055.5,-384 944,-402 721,-402 609.5,-384 721,-366 944,-366 1055.5,-384"/>
<text text-anchor="middle" x="832.5" y="-380.3" font-family="Arial" font-size="14.00">Draw a string telephone between two students.</text>
</g>
<!-- n2 -->
<g id="node2" class="node">
<title>n2</title>
<polygon fill="#fffdd0" stroke="black" points="887.5,-280 197.5,-280 197.5,-244 887.5,-244 887.5,-280"/>
<text text-anchor="middle" x="542.5" y="-258.3" font-family="Arial" font-size="14.00">Two children standing a moderate distance apart, holding cups connected by a straight line representing a string.</text>
</g>
<!-- n1&#45;&gt;n2 -->
<g id="edge1" class="edge">
<title>n1&#45;&gt;n2</title>
<path fill="none" stroke="black" d="M791.26,-365.93C739.08,-344.34 649.25,-307.17 593.01,-283.9"/>
<polygon fill="black" stroke="black" points="594.18,-280.6 583.6,-280.01 591.5,-287.06 594.18,-280.6"/>
</g>
<!-- n3 -->
<g id="node3" class="node">
<title>n3</title>
<polygon fill="#fffdd0" stroke="black" points="1413.5,-280 1057.5,-280 1057.5,-244 1413.5,-244 1413.5,-280"/>
<text text-anchor="middle" x="1235.5" y="-258.3" font-family="Arial" font-size="14.00">Motion lines around one child&#39;s mouth indicate speaking.</text>
</g>
<!-- n1&#45;&gt;n3 -->
<g id="edge2" class="edge">
<title>n1&#45;&gt;n3</title>
<path fill="none" stroke="black" d="M889.81,-365.93C963.38,-344.03 1090.8,-306.09 1168.7,-282.9"/>
<polygon fill="black" stroke="black" points="1169.82,-286.22 1178.4,-280.01 1167.82,-279.51 1169.82,-286.22"/>
</g>
<!-- n4 -->
<g id="node4" class="node">
<title>n4</title>
<path fill="palegreen" stroke="black" d="M625,-158C625,-158 12,-158 12,-158 6,-158 0,-152 0,-146 0,-146 0,-134 0,-134 0,-128 6,-122 12,-122 12,-122 625,-122 625,-122 631,-122 637,-128 637,-134 637,-134 637,-146 637,-146 637,-152 631,-158 625,-158"/>
<text text-anchor="middle" x="318.5" y="-136.3" font-family="Arial" font-size="14.00">The student understands the basic concept of a string telephone allowing communication over distance.</text>
</g>
<!-- n2&#45;&gt;n4 -->
<g id="edge3" class="edge">
<title>n2&#45;&gt;n4</title>
<path fill="none" stroke="black" d="M510.41,-243.81C470.65,-222.51 402.87,-186.2 359.42,-162.92"/>
<polygon fill="black" stroke="black" points="361,-159.79 350.53,-158.16 357.69,-165.97 361,-159.79"/>
</g>
<!-- n5 -->
<g id="node5" class="node">
<title>n5</title>
<polygon fill="lightcoral" stroke="black" points="1348.5,-158 694.96,-140 1348.5,-122 2002.04,-140 1348.5,-158"/>
<text text-anchor="middle" x="1348.5" y="-136.3" font-family="Arial" font-size="14.00">Represents sound transmission through the use of motion lines but lacks understanding of sound wave propagation.</text>
</g>
<!-- n3&#45;&gt;n5 -->
<g id="edge4" class="edge">
<title>n3&#45;&gt;n5</title>
<path fill="none" stroke="black" d="M1251.7,-243.81C1271.1,-223.2 1303.8,-188.52 1325.7,-165.21"/>
<polygon fill="black" stroke="black" points="1328.4,-167.45 1332.7,-157.77 1323.3,-162.65 1328.4,-167.45"/>
</g>
<!-- n6 -->
<g id="node6" class="node">
<title>n6</title>
<polygon fill="#f28e8e" stroke="black" points="1677,-36 1020,-36 1020,0 1677,0 1677,-36"/>
<text text-anchor="middle" x="1348.5" y="-14.3" font-family="Arial" font-size="14.00">Include a description of how sound travels along the string or show waves to represent sound transmission.</text>
</g>
<!-- n5&#45;&gt;n6 -->
<g id="edge5" class="edge">
<title>n5&#45;&gt;n6</title>
<path fill="none" stroke="black" d="M1348.5,-121.81C1348.5,-102.11 1348.5,-69.58 1348.5,-46.39"/>
<polygon fill="black" stroke="black" points="1352,-46.16 1348.5,-36.16 1345,-46.16 1352,-46.16"/>
</g>
</g>
</svg>
