<?xml version="1.0" encoding="UTF-8" standalone="no"?>
<!DOCTYPE svg PUBLIC "-//W3C//DTD SVG 1.1//EN"
 "http://www.w3.org/Graphics/SVG/1.1/DTD/svg11.dtd">
<!-- Generated by graphviz version 2.43.0 (0)
 -->
<!-- Pages: 1 -->
<svg width="1462pt" height="288pt"
 viewBox="0.00 0.00 1461.50 288.00" xmlns="http://www.w3.org/2000/svg" xmlns:xlink="http://www.w3.org/1999/xlink">
<g id="graph0" class="graph" transform="scale(1 1) rotate(0) translate(4 284)">
<polygon fill="white" stroke="transparent" points="-4,4 -4,-284 1457.5,-284 1457.5,4 -4,4"/>
<!-- n1 -->
<g id="node1" class="node">
<title>n1</title>
<polygon fill="lightblue" stroke="black" points="987,-262 875.5,-280 652.5,-280 541,-262 652.5,-244 875.5,-244 987,-262"/>
<text text-anchor="middle" x="764" y="-258.3" font-family="Arial" font-size="14.00">Draw a string telephone between two students.</text>
</g>
<!-- n2 -->
<g id="node2" class="node">
<title>n2</title>
<polygon fill="#fffdd0" stroke="black" points="348,-158 170,-158 170,-122 348,-122 348,-158"/>
<text text-anchor="middle" x="259" y="-136.3" font-family="Arial" font-size="14.00">Two students are depicted.</text>
</g>
<!-- n1&#45;&gt;n2 -->
<g id="edge1" class="edge">
<title>n1&#45;&gt;n2</title>
<path fill="none" stroke="black" d="M692.45,-244C599.59,-221.93 437.94,-183.52 340.46,-160.36"/>
<polygon fill="black" stroke="black" points="341.19,-156.94 330.65,-158.03 339.57,-163.75 341.19,-156.94"/>
</g>
<!-- n3 -->
<g id="node3" class="node">
<title>n3</title>
<polygon fill="#fffdd0" stroke="black" points="737,-158 453,-158 453,-122 737,-122 737,-158"/>
<text text-anchor="middle" x="595" y="-136.3" font-family="Arial" font-size="14.00">String telephone shown with cups and string.</text>
</g>
<!-- n1&#45;&gt;n3 -->
<g id="edge2" class="edge">
<title>n1&#45;&gt;n3</title>
<path fill="none" stroke="black" d="M739.79,-243.81C710.29,-222.87 660.36,-187.41 627.53,-164.1"/>
<polygon fill="black" stroke="black" points="629.35,-161.1 619.17,-158.16 625.29,-166.81 629.35,-161.1"/>
</g>
<!-- n4 -->
<g id="node4" class="node">
<title>n4</title>
<polygon fill="#fffdd0" stroke="black" points="1073,-158 795,-158 795,-122 1073,-122 1073,-158"/>
<text text-anchor="middle" x="934" y="-136.3" font-family="Arial" font-size="14.00">Arrows/dotted lines represent sound waves.</text>
</g>
<!-- n1&#45;&gt;n4 -->
<g id="edge3" class="edge">
<title>n1&#45;&gt;n4</title>
<path fill="none" stroke="black" d="M788.36,-243.81C818.02,-222.87 868.25,-187.41 901.27,-164.1"/>
<polygon fill="black" stroke="black" points="903.54,-166.78 909.69,-158.16 899.5,-161.06 903.54,-166.78"/>
</g>
<!-- n5 -->
<g id="node5" class="node">
<title>n5</title>
<polygon fill="#fffdd0" stroke="black" points="1403.5,-158 1146.5,-158 1146.5,-122 1403.5,-122 1403.5,-158"/>
<text text-anchor="middle" x="1275" y="-136.3" font-family="Arial" font-size="14.00">Students are gesturing to communicate.</text>
</g>
<!-- n1&#45;&gt;n5 -->
<g id="edge4" class="edge">
<title>n1&#45;&gt;n5</title>
<path fill="none" stroke="black" d="M836.4,-244C930.36,-221.93 1093.9,-183.52 1192.6,-160.36"/>
<polygon fill="black" stroke="black" points="1193.57,-163.73 1202.5,-158.03 1191.96,-156.91 1193.57,-163.73"/>
</g>
<!-- n6 -->
<g id="node6" class="node">
<title>n6</title>
<path fill="palegreen" stroke="black" d="M394,-36C394,-36 12,-36 12,-36 6,-36 0,-30 0,-24 0,-24 0,-12 0,-12 0,-6 6,0 12,0 12,0 394,0 394,0 400,0 406,-6 406,-12 406,-12 406,-24 406,-24 406,-30 400,-36 394,-36"/>
<text text-anchor="middle" x="203" y="-14.3" font-family="Arial" font-size="14.00">Student understands students can communicate over a distance.</text>
</g>
<!-- n2&#45;&gt;n6 -->
<g id="edge5" class="edge">
<title>n2&#45;&gt;n6</title>
<path fill="none" stroke="black" d="M250.98,-121.81C241.66,-101.85 226.19,-68.7 215.34,-45.45"/>
<polygon fill="black" stroke="black" points="218.41,-43.75 211.01,-36.16 212.06,-46.7 218.41,-43.75"/>
</g>
<!-- n7 -->
<g id="node7" class="node">
<title>n7</title>
<path fill="palegreen" stroke="black" d="M721.5,-36C721.5,-36 476.5,-36 476.5,-36 470.5,-36 464.5,-30 464.5,-24 464.5,-24 464.5,-12 464.5,-12 464.5,-6 470.5,0 476.5,0 476.5,0 721.5,0 721.5,0 727.5,0 733.5,-6 733.5,-12 733.5,-12 733.5,-24 733.5,-24 733.5,-30 727.5,-36 721.5,-36"/>
<text text-anchor="middle" x="599" y="-14.3" font-family="Arial" font-size="14.00">Correct representation of string telephone.</text>
</g>
<!-- n3&#45;&gt;n7 -->
<g id="edge6" class="edge">
<title>n3&#45;&gt;n7</title>
<path fill="none" stroke="black" d="M595.57,-121.81C596.23,-102.11 597.31,-69.58 598.09,-46.39"/>
<polygon fill="black" stroke="black" points="601.6,-46.27 598.43,-36.16 594.6,-46.04 601.6,-46.27"/>
</g>
<!-- n8 -->
<g id="node8" class="node">
<title>n8</title>
<path fill="palegreen" stroke="black" d="M1052.5,-36C1052.5,-36 809.5,-36 809.5,-36 803.5,-36 797.5,-30 797.5,-24 797.5,-24 797.5,-12 797.5,-12 797.5,-6 803.5,0 809.5,0 809.5,0 1052.5,0 1052.5,0 1058.5,0 1064.5,-6 1064.5,-12 1064.5,-12 1064.5,-24 1064.5,-24 1064.5,-30 1058.5,-36 1052.5,-36"/>
<text text-anchor="middle" x="931" y="-14.3" font-family="Arial" font-size="14.00">Understands sound travels through string.</text>
</g>
<!-- n4&#45;&gt;n8 -->
<g id="edge7" class="edge">
<title>n4&#45;&gt;n8</title>
<path fill="none" stroke="black" d="M933.57,-121.81C933.08,-102.11 932.26,-69.58 931.68,-46.39"/>
<polygon fill="black" stroke="black" points="935.17,-46.07 931.43,-36.16 928.18,-46.24 935.17,-46.07"/>
</g>
<!-- n9 -->
<g id="node9" class="node">
<title>n9</title>
<path fill="palegreen" stroke="black" d="M1441.5,-36C1441.5,-36 1134.5,-36 1134.5,-36 1128.5,-36 1122.5,-30 1122.5,-24 1122.5,-24 1122.5,-12 1122.5,-12 1122.5,-6 1128.5,0 1134.5,0 1134.5,0 1441.5,0 1441.5,0 1447.5,0 1453.5,-6 1453.5,-12 1453.5,-12 1453.5,-24 1453.5,-24 1453.5,-30 1447.5,-36 1441.5,-36"/>
<text text-anchor="middle" x="1288" y="-14.3" font-family="Arial" font-size="14.00">Accurately depicts communication through gestures.</text>
</g>
<!-- n5&#45;&gt;n9 -->
<g id="edge8" class="edge">
<title>n5&#45;&gt;n9</title>
<path fill="none" stroke="black" d="M1276.9,-121.81C1279,-102.11 1282.5,-69.58 1285,-46.39"/>
<polygon fill="black" stroke="black" points="1288.51,-46.48 1286.1,-36.16 1281.55,-45.73 1288.51,-46.48"/>
</g>
</g>
</svg>
