<?xml version="1.0" encoding="UTF-8" standalone="no"?>
<!DOCTYPE svg PUBLIC "-//W3C//DTD SVG 1.1//EN"
 "http://www.w3.org/Graphics/SVG/1.1/DTD/svg11.dtd">
<!-- Generated by graphviz version 2.43.0 (0)
 -->
<!-- Pages: 1 -->
<svg width="1392pt" height="410pt"
 viewBox="0.00 0.00 1391.54 410.00" xmlns="http://www.w3.org/2000/svg" xmlns:xlink="http://www.w3.org/1999/xlink">
<g id="graph0" class="graph" transform="scale(1 1) rotate(0) translate(4 406)">
<polygon fill="white" stroke="transparent" points="-4,4 -4,-406 1387.54,-406 1387.54,4 -4,4"/>
<!-- n1 -->
<g id="node1" class="node">
<title>n1</title>
<polygon fill="lightblue" stroke="black" points="897.5,-384 767.25,-402 506.75,-402 376.5,-384 506.75,-366 767.25,-366 897.5,-384"/>
<text text-anchor="middle" x="637" y="-380.3" font-family="Arial" font-size="14.00">Draw two habitats and the different living things in each</text>
</g>
<!-- n2 -->
<g id="node2" class="node">
<title>n2</title>
<polygon fill="#fffdd0" stroke="black" points="542.5,-280 381.5,-280 381.5,-244 542.5,-244 542.5,-280"/>
<text text-anchor="middle" x="462" y="-258.3" font-family="Arial" font-size="14.00">Water habitat with a fish</text>
</g>
<!-- n1&#45;&gt;n2 -->
<g id="edge1" class="edge">
<title>n1&#45;&gt;n2</title>
<path fill="none" stroke="black" d="M611.93,-365.81C581.39,-344.87 529.68,-309.41 495.69,-286.1"/>
<polygon fill="black" stroke="black" points="497.26,-282.93 487.03,-280.16 493.3,-288.7 497.26,-282.93"/>
</g>
<!-- n3 -->
<g id="node3" class="node">
<title>n3</title>
<polygon fill="#fffdd0" stroke="black" points="891.5,-280 734.5,-280 734.5,-244 891.5,-244 891.5,-280"/>
<text text-anchor="middle" x="813" y="-258.3" font-family="Arial" font-size="14.00">Land habitat with a tree</text>
</g>
<!-- n1&#45;&gt;n3 -->
<g id="edge2" class="edge">
<title>n1&#45;&gt;n3</title>
<path fill="none" stroke="black" d="M662.22,-365.81C693.06,-344.78 745.38,-309.11 779.56,-285.8"/>
<polygon fill="black" stroke="black" points="781.54,-288.69 787.83,-280.16 777.6,-282.9 781.54,-288.69"/>
</g>
<!-- n4 -->
<g id="node4" class="node">
<title>n4</title>
<path fill="palegreen" stroke="black" d="M214,-158C214,-158 12,-158 12,-158 6,-158 0,-152 0,-146 0,-146 0,-134 0,-134 0,-128 6,-122 12,-122 12,-122 214,-122 214,-122 220,-122 226,-128 226,-134 226,-134 226,-146 226,-146 226,-152 220,-158 214,-158"/>
<text text-anchor="middle" x="113" y="-136.3" font-family="Arial" font-size="14.00">Understands different habitat types</text>
</g>
<!-- n2&#45;&gt;n4 -->
<g id="edge3" class="edge">
<title>n2&#45;&gt;n4</title>
<path fill="none" stroke="black" d="M412.37,-243.93C349.05,-222.16 239.67,-184.56 172.12,-161.33"/>
<polygon fill="black" stroke="black" points="173.05,-157.95 162.46,-158.01 170.78,-164.57 173.05,-157.95"/>
</g>
<!-- n5 -->
<g id="node5" class="node">
<title>n5</title>
<polygon fill="lightcoral" stroke="black" points="462,-158 283.5,-140 462,-122 640.5,-140 462,-158"/>
<text text-anchor="middle" x="462" y="-136.3" font-family="Arial" font-size="14.00">Lacks diversity in living things</text>
</g>
<!-- n2&#45;&gt;n5 -->
<g id="edge4" class="edge">
<title>n2&#45;&gt;n5</title>
<path fill="none" stroke="black" d="M462,-243.81C462,-224.11 462,-191.58 462,-168.39"/>
<polygon fill="black" stroke="black" points="465.5,-168.16 462,-158.16 458.5,-168.16 465.5,-168.16"/>
</g>
<!-- n7 -->
<g id="node6" class="node">
<title>n7</title>
<path fill="palegreen" stroke="black" d="M916,-158C916,-158 710,-158 710,-158 704,-158 698,-152 698,-146 698,-146 698,-134 698,-134 698,-128 704,-122 710,-122 710,-122 916,-122 916,-122 922,-122 928,-128 928,-134 928,-134 928,-146 928,-146 928,-152 922,-158 916,-158"/>
<text text-anchor="middle" x="813" y="-136.3" font-family="Arial" font-size="14.00">Understands basic habitat concepts</text>
</g>
<!-- n3&#45;&gt;n7 -->
<g id="edge5" class="edge">
<title>n3&#45;&gt;n7</title>
<path fill="none" stroke="black" d="M813,-243.81C813,-224.11 813,-191.58 813,-168.39"/>
<polygon fill="black" stroke="black" points="816.5,-168.16 813,-158.16 809.5,-168.16 816.5,-168.16"/>
</g>
<!-- n8 -->
<g id="node7" class="node">
<title>n8</title>
<polygon fill="lightcoral" stroke="black" points="1185,-158 986.42,-140 1185,-122 1383.58,-140 1185,-158"/>
<text text-anchor="middle" x="1185" y="-136.3" font-family="Arial" font-size="14.00">Cannot show patterns of diversity</text>
</g>
<!-- n3&#45;&gt;n8 -->
<g id="edge6" class="edge">
<title>n3&#45;&gt;n8</title>
<path fill="none" stroke="black" d="M865.9,-243.93C937.36,-220.88 1063.9,-180.08 1134.2,-157.38"/>
<polygon fill="black" stroke="black" points="1135.35,-160.69 1143.8,-154.3 1133.21,-154.02 1135.35,-160.69"/>
</g>
<!-- n6 -->
<g id="node8" class="node">
<title>n6</title>
<polygon fill="#f28e8e" stroke="black" points="720.5,-36 203.5,-36 203.5,0 720.5,0 720.5,-36"/>
<text text-anchor="middle" x="462" y="-14.3" font-family="Arial" font-size="14.00">Provide more types of living things in each habitat such as grasses or other animals</text>
</g>
<!-- n5&#45;&gt;n6 -->
<g id="edge7" class="edge">
<title>n5&#45;&gt;n6</title>
<path fill="none" stroke="black" d="M462,-121.81C462,-102.11 462,-69.58 462,-46.39"/>
<polygon fill="black" stroke="black" points="465.5,-46.16 462,-36.16 458.5,-46.16 465.5,-46.16"/>
</g>
<!-- n9 -->
<g id="node9" class="node">
<title>n9</title>
<polygon fill="#f28e8e" stroke="black" points="1379,-36 991,-36 991,0 1379,0 1379,-36"/>
<text text-anchor="middle" x="1185" y="-14.3" font-family="Arial" font-size="14.00">Illustrate multiple living things in each habitat to show diversity</text>
</g>
<!-- n8&#45;&gt;n9 -->
<g id="edge8" class="edge">
<title>n8&#45;&gt;n9</title>
<path fill="none" stroke="black" d="M1185,-121.81C1185,-102.11 1185,-69.58 1185,-46.39"/>
<polygon fill="black" stroke="black" points="1188.5,-46.16 1185,-36.16 1181.5,-46.16 1188.5,-46.16"/>
</g>
</g>
</svg>
