<?xml version="1.0" encoding="UTF-8" standalone="no"?>
<!DOCTYPE svg PUBLIC "-//W3C//DTD SVG 1.1//EN"
 "http://www.w3.org/Graphics/SVG/1.1/DTD/svg11.dtd">
<!-- Generated by graphviz version 2.43.0 (0)
 -->
<!-- Pages: 1 -->
<svg width="1701pt" height="410pt"
 viewBox="0.00 0.00 1701.09 410.00" xmlns="http://www.w3.org/2000/svg" xmlns:xlink="http://www.w3.org/1999/xlink">
<g id="graph0" class="graph" transform="scale(1 1) rotate(0) translate(4 406)">
<polygon fill="white" stroke="transparent" points="-4,4 -4,-406 1697.09,-406 1697.09,4 -4,4"/>
<!-- n1 -->
<g id="node1" class="node">
<title>n1</title>
<polygon fill="lightblue" stroke="black" points="1028,-384 897.75,-402 637.25,-402 507,-384 637.25,-366 897.75,-366 1028,-384"/>
<text text-anchor="middle" x="767.5" y="-380.3" font-family="Arial" font-size="14.00">Draw two habitats and the different living things in each</text>
</g>
<!-- n2 -->
<g id="node2" class="node">
<title>n2</title>
<polygon fill="#fffdd0" stroke="black" points="877.5,-280 657.5,-280 657.5,-244 877.5,-244 877.5,-280"/>
<text text-anchor="middle" x="767.5" y="-258.3" font-family="Arial" font-size="14.00">Land habitat with tree and squirrel</text>
</g>
<!-- n1&#45;&gt;n2 -->
<g id="edge1" class="edge">
<title>n1&#45;&gt;n2</title>
<path fill="none" stroke="black" d="M767.5,-365.81C767.5,-346.11 767.5,-313.58 767.5,-290.39"/>
<polygon fill="black" stroke="black" points="771,-290.16 767.5,-280.16 764,-290.16 771,-290.16"/>
</g>
<!-- n3 -->
<g id="node3" class="node">
<title>n3</title>
<polygon fill="#fffdd0" stroke="black" points="599.5,-280 387.5,-280 387.5,-244 599.5,-244 599.5,-280"/>
<text text-anchor="middle" x="493.5" y="-258.3" font-family="Arial" font-size="14.00">Water habitat with fish and algae</text>
</g>
<!-- n1&#45;&gt;n3 -->
<g id="edge2" class="edge">
<title>n1&#45;&gt;n3</title>
<path fill="none" stroke="black" d="M728.53,-365.93C679.33,-344.39 594.71,-307.32 541.55,-284.04"/>
<polygon fill="black" stroke="black" points="542.89,-280.81 532.33,-280.01 540.09,-287.22 542.89,-280.81"/>
</g>
<!-- n4 -->
<g id="node4" class="node">
<title>n4</title>
<polygon fill="#fffdd0" stroke="black" points="1364,-280 1113,-280 1113,-244 1364,-244 1364,-280"/>
<text text-anchor="middle" x="1238.5" y="-258.3" font-family="Arial" font-size="14.00">Tree mistakenly placed in water habitat</text>
</g>
<!-- n1&#45;&gt;n4 -->
<g id="edge3" class="edge">
<title>n1&#45;&gt;n4</title>
<path fill="none" stroke="black" d="M834.48,-365.93C920.98,-343.9 1071.2,-305.63 1162.1,-282.48"/>
<polygon fill="black" stroke="black" points="1162.89,-285.89 1171.7,-280.01 1161.14,-279.11 1162.89,-285.89"/>
</g>
<!-- n5 -->
<g id="node5" class="node">
<title>n5</title>
<path fill="palegreen" stroke="black" d="M279,-158C279,-158 12,-158 12,-158 6,-158 0,-152 0,-146 0,-146 0,-134 0,-134 0,-128 6,-122 12,-122 12,-122 279,-122 279,-122 285,-122 291,-128 291,-134 291,-134 291,-146 291,-146 291,-152 285,-158 279,-158"/>
<text text-anchor="middle" x="145.5" y="-136.3" font-family="Arial" font-size="14.00">Understands distinct habitats (land and water)</text>
</g>
<!-- n2&#45;&gt;n5 -->
<g id="edge4" class="edge">
<title>n2&#45;&gt;n5</title>
<path fill="none" stroke="black" d="M679.37,-244C564.3,-221.8 363.48,-183.05 243.66,-159.94"/>
<polygon fill="black" stroke="black" points="244.23,-156.49 233.75,-158.03 242.91,-163.36 244.23,-156.49"/>
</g>
<!-- n6 -->
<g id="node6" class="node">
<title>n6</title>
<path fill="palegreen" stroke="black" d="M625.5,-158C625.5,-158 361.5,-158 361.5,-158 355.5,-158 349.5,-152 349.5,-146 349.5,-146 349.5,-134 349.5,-134 349.5,-128 355.5,-122 361.5,-122 361.5,-122 625.5,-122 625.5,-122 631.5,-122 637.5,-128 637.5,-134 637.5,-134 637.5,-146 637.5,-146 637.5,-152 631.5,-158 625.5,-158"/>
<text text-anchor="middle" x="493.5" y="-136.3" font-family="Arial" font-size="14.00">Understands different animals in each habitat</text>
</g>
<!-- n2&#45;&gt;n6 -->
<g id="edge5" class="edge">
<title>n2&#45;&gt;n6</title>
<path fill="none" stroke="black" d="M728.53,-243.93C679.33,-222.39 594.71,-185.32 541.55,-162.04"/>
<polygon fill="black" stroke="black" points="542.89,-158.81 532.33,-158.01 540.09,-165.22 542.89,-158.81"/>
</g>
<!-- n9 -->
<g id="node7" class="node">
<title>n9</title>
<polygon fill="lightcoral" stroke="black" points="887.5,-158 695.29,-140 887.5,-122 1079.71,-140 887.5,-158"/>
<text text-anchor="middle" x="887.5" y="-136.3" font-family="Arial" font-size="14.00">Difficulty showing living diversity</text>
</g>
<!-- n2&#45;&gt;n9 -->
<g id="edge6" class="edge">
<title>n2&#45;&gt;n9</title>
<path fill="none" stroke="black" d="M784.69,-243.81C805.75,-222.75 841.47,-187.03 864.77,-163.73"/>
<polygon fill="black" stroke="black" points="867.27,-166.18 871.87,-156.63 862.32,-161.23 867.27,-166.18"/>
</g>
<!-- n3&#45;&gt;n5 -->
<g id="edge7" class="edge">
<title>n3&#45;&gt;n5</title>
<path fill="none" stroke="black" d="M444.01,-243.93C380.87,-222.16 271.81,-184.56 204.45,-161.33"/>
<polygon fill="black" stroke="black" points="205.41,-157.96 194.82,-158.01 203.13,-164.58 205.41,-157.96"/>
</g>
<!-- n3&#45;&gt;n6 -->
<g id="edge8" class="edge">
<title>n3&#45;&gt;n6</title>
<path fill="none" stroke="black" d="M493.5,-243.81C493.5,-224.11 493.5,-191.58 493.5,-168.39"/>
<polygon fill="black" stroke="black" points="497,-168.16 493.5,-158.16 490,-168.16 497,-168.16"/>
</g>
<!-- n3&#45;&gt;n9 -->
<g id="edge9" class="edge">
<title>n3&#45;&gt;n9</title>
<path fill="none" stroke="black" d="M549.53,-243.93C625.68,-220.74 760.83,-179.58 835.06,-156.97"/>
<polygon fill="black" stroke="black" points="836.13,-160.3 844.68,-154.04 834.09,-153.61 836.13,-160.3"/>
</g>
<!-- n7 -->
<g id="node8" class="node">
<title>n7</title>
<polygon fill="lightcoral" stroke="black" points="1415.5,-158 1137.83,-140 1415.5,-122 1693.17,-140 1415.5,-158"/>
<text text-anchor="middle" x="1415.5" y="-136.3" font-family="Arial" font-size="14.00">Misunderstands tree placement in water habitat</text>
</g>
<!-- n4&#45;&gt;n7 -->
<g id="edge10" class="edge">
<title>n4&#45;&gt;n7</title>
<path fill="none" stroke="black" d="M1263.9,-243.81C1295.4,-222.39 1349.4,-185.79 1383.7,-162.53"/>
<polygon fill="black" stroke="black" points="1386.09,-165.14 1392.4,-156.63 1382.16,-159.35 1386.09,-165.14"/>
</g>
<!-- n10 -->
<g id="node9" class="node">
<title>n10</title>
<polygon fill="#f28e8e" stroke="black" points="1022,-36 753,-36 753,0 1022,0 1022,-36"/>
<text text-anchor="middle" x="887.5" y="-14.3" font-family="Arial" font-size="14.00">Use varied colors to show diverse habitats</text>
</g>
<!-- n9&#45;&gt;n10 -->
<g id="edge11" class="edge">
<title>n9&#45;&gt;n10</title>
<path fill="none" stroke="black" d="M887.5,-121.81C887.5,-102.11 887.5,-69.58 887.5,-46.39"/>
<polygon fill="black" stroke="black" points="891,-46.16 887.5,-36.16 884,-46.16 891,-46.16"/>
</g>
<!-- n8 -->
<g id="node10" class="node">
<title>n8</title>
<polygon fill="#f28e8e" stroke="black" points="1541.5,-36 1289.5,-36 1289.5,0 1541.5,0 1541.5,-36"/>
<text text-anchor="middle" x="1415.5" y="-14.3" font-family="Arial" font-size="14.00">Use distinct plants for each habitat type</text>
</g>
<!-- n7&#45;&gt;n8 -->
<g id="edge12" class="edge">
<title>n7&#45;&gt;n8</title>
<path fill="none" stroke="black" d="M1415.5,-121.81C1415.5,-102.11 1415.5,-69.58 1415.5,-46.39"/>
<polygon fill="black" stroke="black" points="1419,-46.16 1415.5,-36.16 1412,-46.16 1419,-46.16"/>
</g>
</g>
</svg>
