<?xml version="1.0" encoding="UTF-8" standalone="no"?>
<!DOCTYPE svg PUBLIC "-//W3C//DTD SVG 1.1//EN"
 "http://www.w3.org/Graphics/SVG/1.1/DTD/svg11.dtd">
<!-- Generated by graphviz version 2.43.0 (0)
 -->
<!-- Pages: 1 -->
<svg width="1323pt" height="410pt"
 viewBox="0.00 0.00 1323.00 410.00" xmlns="http://www.w3.org/2000/svg" xmlns:xlink="http://www.w3.org/1999/xlink">
<g id="graph0" class="graph" transform="scale(1 1) rotate(0) translate(4 406)">
<polygon fill="white" stroke="transparent" points="-4,4 -4,-406 1319,-406 1319,4 -4,4"/>
<!-- n1 -->
<g id="node1" class="node">
<title>n1</title>
<polygon fill="lightblue" stroke="black" points="926.32,-384 803.91,-402 559.09,-402 436.68,-384 559.09,-366 803.91,-366 926.32,-384"/>
<text text-anchor="middle" x="681.5" y="-380.3" font-family="Arial" font-size="14.00">Draw a habitat and the different living things in each</text>
</g>
<!-- n2 -->
<g id="node2" class="node">
<title>n2</title>
<polygon fill="#fffdd0" stroke="black" points="672.5,-280 416.5,-280 416.5,-244 672.5,-244 672.5,-280"/>
<text text-anchor="middle" x="544.5" y="-258.3" font-family="Arial" font-size="14.00">Garden with bushes, a tree, and flowers</text>
</g>
<!-- n1&#45;&gt;n2 -->
<g id="edge1" class="edge">
<title>n1&#45;&gt;n2</title>
<path fill="none" stroke="black" d="M661.87,-365.81C638.27,-345.13 598.52,-310.31 571.9,-287"/>
<polygon fill="black" stroke="black" points="573.92,-284.12 564.09,-280.16 569.31,-289.38 573.92,-284.12"/>
</g>
<!-- n3 -->
<g id="node3" class="node">
<title>n3</title>
<polygon fill="#fffdd0" stroke="black" points="906.5,-280 730.5,-280 730.5,-244 906.5,-244 906.5,-280"/>
<text text-anchor="middle" x="818.5" y="-258.3" font-family="Arial" font-size="14.00">Pond with a fish and reeds</text>
</g>
<!-- n1&#45;&gt;n3 -->
<g id="edge2" class="edge">
<title>n1&#45;&gt;n3</title>
<path fill="none" stroke="black" d="M701.13,-365.81C724.73,-345.13 764.48,-310.31 791.1,-287"/>
<polygon fill="black" stroke="black" points="793.69,-289.38 798.91,-280.16 789.08,-284.12 793.69,-289.38"/>
</g>
<!-- n4 -->
<g id="node4" class="node">
<title>n4</title>
<path fill="palegreen" stroke="black" d="M251,-158C251,-158 12,-158 12,-158 6,-158 0,-152 0,-146 0,-146 0,-134 0,-134 0,-128 6,-122 12,-122 12,-122 251,-122 251,-122 257,-122 263,-128 263,-134 263,-134 263,-146 263,-146 263,-152 257,-158 251,-158"/>
<text text-anchor="middle" x="131.5" y="-136.3" font-family="Arial" font-size="14.00">Understands basic habitat representation</text>
</g>
<!-- n2&#45;&gt;n4 -->
<g id="edge3" class="edge">
<title>n2&#45;&gt;n4</title>
<path fill="none" stroke="black" d="M485.77,-243.93C410.38,-222.03 279.81,-184.09 199.99,-160.9"/>
<polygon fill="black" stroke="black" points="200.61,-157.44 190.03,-158.01 198.66,-164.16 200.61,-157.44"/>
</g>
<!-- n5 -->
<g id="node5" class="node">
<title>n5</title>
<polygon fill="lightcoral" stroke="black" points="544.5,-158 321,-140 544.5,-122 768,-140 544.5,-158"/>
<text text-anchor="middle" x="544.5" y="-136.3" font-family="Arial" font-size="14.00">Limited diversity in living things drawn</text>
</g>
<!-- n2&#45;&gt;n5 -->
<g id="edge4" class="edge">
<title>n2&#45;&gt;n5</title>
<path fill="none" stroke="black" d="M544.5,-243.81C544.5,-224.11 544.5,-191.58 544.5,-168.39"/>
<polygon fill="black" stroke="black" points="548,-168.16 544.5,-158.16 541,-168.16 548,-168.16"/>
</g>
<!-- n6 -->
<g id="node6" class="node">
<title>n6</title>
<polygon fill="lightcoral" stroke="black" points="1070.5,-158 826,-140 1070.5,-122 1315,-140 1070.5,-158"/>
<text text-anchor="middle" x="1070.5" y="-136.3" font-family="Arial" font-size="14.00">Limited labeling and species identification</text>
</g>
<!-- n2&#45;&gt;n6 -->
<g id="edge5" class="edge">
<title>n2&#45;&gt;n6</title>
<path fill="none" stroke="black" d="M619.03,-244C721.91,-220.53 905.87,-178.56 1004.2,-156.12"/>
<polygon fill="black" stroke="black" points="1005.03,-159.52 1014,-153.88 1003.47,-152.7 1005.03,-159.52"/>
</g>
<!-- n7 -->
<g id="node7" class="node">
<title>n7</title>
<polygon fill="#f28e8e" stroke="black" points="749.5,-36 339.5,-36 339.5,0 749.5,0 749.5,-36"/>
<text text-anchor="middle" x="544.5" y="-14.3" font-family="Arial" font-size="14.00">Try exploring more diverse plants and animals in habitat drawings</text>
</g>
<!-- n5&#45;&gt;n7 -->
<g id="edge6" class="edge">
<title>n5&#45;&gt;n7</title>
<path fill="none" stroke="black" d="M544.5,-121.81C544.5,-102.11 544.5,-69.58 544.5,-46.39"/>
<polygon fill="black" stroke="black" points="548,-46.16 544.5,-36.16 541,-46.16 548,-46.16"/>
</g>
<!-- n8 -->
<g id="node8" class="node">
<title>n8</title>
<polygon fill="#f28e8e" stroke="black" points="1237,-36 904,-36 904,0 1237,0 1237,-36"/>
<text text-anchor="middle" x="1070.5" y="-14.3" font-family="Arial" font-size="14.00">Practice labeling different species within each habitat</text>
</g>
<!-- n6&#45;&gt;n8 -->
<g id="edge7" class="edge">
<title>n6&#45;&gt;n8</title>
<path fill="none" stroke="black" d="M1070.5,-121.81C1070.5,-102.11 1070.5,-69.58 1070.5,-46.39"/>
<polygon fill="black" stroke="black" points="1074,-46.16 1070.5,-36.16 1067,-46.16 1074,-46.16"/>
</g>
</g>
</svg>
