<?xml version="1.0" encoding="UTF-8" standalone="no"?>
<!DOCTYPE svg PUBLIC "-//W3C//DTD SVG 1.1//EN"
 "http://www.w3.org/Graphics/SVG/1.1/DTD/svg11.dtd">
<!-- Generated by graphviz version 2.43.0 (0)
 -->
<!-- Pages: 1 -->
<svg width="1359pt" height="410pt"
 viewBox="0.00 0.00 1359.00 410.00" xmlns="http://www.w3.org/2000/svg" xmlns:xlink="http://www.w3.org/1999/xlink">
<g id="graph0" class="graph" transform="scale(1 1) rotate(0) translate(4 406)">
<polygon fill="white" stroke="transparent" points="-4,4 -4,-406 1355,-406 1355,4 -4,4"/>
<!-- n1 -->
<g id="node1" class="node">
<title>n1</title>
<polygon fill="lightblue" stroke="black" points="780.5,-384 689.25,-402 506.75,-402 415.5,-384 506.75,-366 689.25,-366 780.5,-384"/>
<text text-anchor="middle" x="598" y="-380.3" font-family="Arial" font-size="14.00">Draw a fish in their habitat with labels.</text>
</g>
<!-- n2 -->
<g id="node2" class="node">
<title>n2</title>
<polygon fill="#fffdd0" stroke="black" points="237.5,-280 10.5,-280 10.5,-244 237.5,-244 237.5,-280"/>
<text text-anchor="middle" x="124" y="-258.3" font-family="Arial" font-size="14.00">Fish with oval body and triangle tail</text>
</g>
<!-- n1&#45;&gt;n2 -->
<g id="edge1" class="edge">
<title>n1&#45;&gt;n2</title>
<path fill="none" stroke="black" d="M530.84,-366C443.86,-343.98 292.57,-305.68 201.02,-282.5"/>
<polygon fill="black" stroke="black" points="201.8,-279.09 191.25,-280.03 200.09,-285.87 201.8,-279.09"/>
</g>
<!-- n3 -->
<g id="node3" class="node">
<title>n3</title>
<polygon fill="#fffdd0" stroke="black" points="418.5,-280 295.5,-280 295.5,-244 418.5,-244 418.5,-280"/>
<text text-anchor="middle" x="357" y="-258.3" font-family="Arial" font-size="14.00">Fish label present</text>
</g>
<!-- n1&#45;&gt;n3 -->
<g id="edge2" class="edge">
<title>n1&#45;&gt;n3</title>
<path fill="none" stroke="black" d="M563.73,-365.93C520.72,-344.52 446.94,-307.78 400.14,-284.48"/>
<polygon fill="black" stroke="black" points="401.67,-281.33 391.16,-280.01 398.55,-287.6 401.67,-281.33"/>
</g>
<!-- n4 -->
<g id="node4" class="node">
<title>n4</title>
<polygon fill="#fffdd0" stroke="black" points="1028.5,-280 777.5,-280 777.5,-244 1028.5,-244 1028.5,-280"/>
<text text-anchor="middle" x="903" y="-258.3" font-family="Arial" font-size="14.00">Fish under wavy line symbolizing water</text>
</g>
<!-- n1&#45;&gt;n4 -->
<g id="edge3" class="edge">
<title>n1&#45;&gt;n4</title>
<path fill="none" stroke="black" d="M641.38,-365.93C696.37,-344.3 791.12,-307.02 850.24,-283.76"/>
<polygon fill="black" stroke="black" points="851.75,-286.93 859.77,-280.01 849.18,-280.41 851.75,-286.93"/>
</g>
<!-- n5 -->
<g id="node5" class="node">
<title>n5</title>
<polygon fill="#fffdd0" stroke="black" points="1351,-280 1087,-280 1087,-244 1351,-244 1351,-280"/>
<text text-anchor="middle" x="1219" y="-258.3" font-family="Arial" font-size="14.00">Presence of water plants with oval leaves</text>
</g>
<!-- n1&#45;&gt;n5 -->
<g id="edge4" class="edge">
<title>n1&#45;&gt;n5</title>
<path fill="none" stroke="black" d="M685.99,-366C800.87,-343.8 1001.4,-305.05 1121,-281.94"/>
<polygon fill="black" stroke="black" points="1121.74,-285.36 1130.9,-280.03 1120.42,-278.49 1121.74,-285.36"/>
</g>
<!-- n6 -->
<g id="node6" class="node">
<title>n6</title>
<polygon fill="#fffdd0" stroke="black" points="719,-280 477,-280 477,-244 719,-244 719,-280"/>
<text text-anchor="middle" x="598" y="-258.3" font-family="Arial" font-size="14.00">Water label with spelling error (&#39;watir&#39;)</text>
</g>
<!-- n1&#45;&gt;n6 -->
<g id="edge5" class="edge">
<title>n1&#45;&gt;n6</title>
<path fill="none" stroke="black" d="M598,-365.81C598,-346.11 598,-313.58 598,-290.39"/>
<polygon fill="black" stroke="black" points="601.5,-290.16 598,-280.16 594.5,-290.16 601.5,-290.16"/>
</g>
<!-- n7 -->
<g id="node7" class="node">
<title>n7</title>
<path fill="palegreen" stroke="black" d="M236,-158C236,-158 12,-158 12,-158 6,-158 0,-152 0,-146 0,-146 0,-134 0,-134 0,-128 6,-122 12,-122 12,-122 236,-122 236,-122 242,-122 248,-128 248,-134 248,-134 248,-146 248,-146 248,-152 242,-158 236,-158"/>
<text text-anchor="middle" x="124" y="-136.3" font-family="Arial" font-size="14.00">Understands fish shape representation</text>
</g>
<!-- n2&#45;&gt;n7 -->
<g id="edge6" class="edge">
<title>n2&#45;&gt;n7</title>
<path fill="none" stroke="black" d="M124,-243.81C124,-224.11 124,-191.58 124,-168.39"/>
<polygon fill="black" stroke="black" points="127.5,-168.16 124,-158.16 120.5,-168.16 127.5,-168.16"/>
</g>
<!-- n9 -->
<g id="node8" class="node">
<title>n9</title>
<polygon fill="lightcoral" stroke="black" points="522,-158 343.5,-140 522,-122 700.5,-140 522,-158"/>
<text text-anchor="middle" x="522" y="-136.3" font-family="Arial" font-size="14.00">Labels present but with errors</text>
</g>
<!-- n3&#45;&gt;n9 -->
<g id="edge7" class="edge">
<title>n3&#45;&gt;n9</title>
<path fill="none" stroke="black" d="M380.64,-243.81C410.21,-222.3 460.82,-185.49 492.78,-162.25"/>
<polygon fill="black" stroke="black" points="495.24,-164.79 501.27,-156.08 491.12,-159.13 495.24,-164.79"/>
</g>
<!-- n10 -->
<g id="node9" class="node">
<title>n10</title>
<path fill="palegreen" stroke="black" d="M999,-158C999,-158 807,-158 807,-158 801,-158 795,-152 795,-146 795,-146 795,-134 795,-134 795,-128 801,-122 807,-122 807,-122 999,-122 999,-122 1005,-122 1011,-128 1011,-134 1011,-134 1011,-146 1011,-146 1011,-152 1005,-158 999,-158"/>
<text text-anchor="middle" x="903" y="-136.3" font-family="Arial" font-size="14.00">Water as a habitat representation</text>
</g>
<!-- n4&#45;&gt;n10 -->
<g id="edge8" class="edge">
<title>n4&#45;&gt;n10</title>
<path fill="none" stroke="black" d="M903,-243.81C903,-224.11 903,-191.58 903,-168.39"/>
<polygon fill="black" stroke="black" points="906.5,-168.16 903,-158.16 899.5,-168.16 906.5,-168.16"/>
</g>
<!-- n8 -->
<g id="node10" class="node">
<title>n8</title>
<path fill="palegreen" stroke="black" d="M1311.5,-158C1311.5,-158 1126.5,-158 1126.5,-158 1120.5,-158 1114.5,-152 1114.5,-146 1114.5,-146 1114.5,-134 1114.5,-134 1114.5,-128 1120.5,-122 1126.5,-122 1126.5,-122 1311.5,-122 1311.5,-122 1317.5,-122 1323.5,-128 1323.5,-134 1323.5,-134 1323.5,-146 1323.5,-146 1323.5,-152 1317.5,-158 1311.5,-158"/>
<text text-anchor="middle" x="1219" y="-136.3" font-family="Arial" font-size="14.00">Basic habitat context with plants</text>
</g>
<!-- n5&#45;&gt;n8 -->
<g id="edge9" class="edge">
<title>n5&#45;&gt;n8</title>
<path fill="none" stroke="black" d="M1219,-243.81C1219,-224.11 1219,-191.58 1219,-168.39"/>
<polygon fill="black" stroke="black" points="1222.5,-168.16 1219,-158.16 1215.5,-168.16 1222.5,-168.16"/>
</g>
<!-- n6&#45;&gt;n9 -->
<g id="edge10" class="edge">
<title>n6&#45;&gt;n9</title>
<path fill="none" stroke="black" d="M587.11,-243.81C574.14,-223.32 552.37,-188.96 537.61,-165.65"/>
<polygon fill="black" stroke="black" points="540.45,-163.59 532.14,-157.01 534.53,-167.33 540.45,-163.59"/>
</g>
<!-- n11 -->
<g id="node11" class="node">
<title>n11</title>
<polygon fill="#f28e8e" stroke="black" points="647.5,-36 396.5,-36 396.5,0 647.5,0 647.5,-36"/>
<text text-anchor="middle" x="522" y="-14.3" font-family="Arial" font-size="14.00">Improve spelling for labels, e.g., &#39;water&#39;</text>
</g>
<!-- n9&#45;&gt;n11 -->
<g id="edge11" class="edge">
<title>n9&#45;&gt;n11</title>
<path fill="none" stroke="black" d="M522,-121.81C522,-102.11 522,-69.58 522,-46.39"/>
<polygon fill="black" stroke="black" points="525.5,-46.16 522,-36.16 518.5,-46.16 525.5,-46.16"/>
</g>
</g>
</svg>
