<?xml version="1.0" encoding="UTF-8" standalone="no"?>
<!DOCTYPE svg PUBLIC "-//W3C//DTD SVG 1.1//EN"
 "http://www.w3.org/Graphics/SVG/1.1/DTD/svg11.dtd">
<!-- Generated by graphviz version 2.43.0 (0)
 -->
<!-- Pages: 1 -->
<svg width="1595pt" height="410pt"
 viewBox="0.00 0.00 1595.00 410.00" xmlns="http://www.w3.org/2000/svg" xmlns:xlink="http://www.w3.org/1999/xlink">
<g id="graph0" class="graph" transform="scale(1 1) rotate(0) translate(4 406)">
<polygon fill="white" stroke="transparent" points="-4,4 -4,-406 1591,-406 1591,4 -4,4"/>
<!-- n1 -->
<g id="node1" class="node">
<title>n1</title>
<polygon fill="lightblue" stroke="black" points="954,-384 862.75,-402 680.25,-402 589,-384 680.25,-366 862.75,-366 954,-384"/>
<text text-anchor="middle" x="771.5" y="-380.3" font-family="Arial" font-size="14.00">Draw a fish in their habitat with labels.</text>
</g>
<!-- n2 -->
<g id="node2" class="node">
<title>n2</title>
<polygon fill="#fffdd0" stroke="black" points="201,-280 0,-280 0,-244 201,-244 201,-280"/>
<text text-anchor="middle" x="100.5" y="-258.3" font-family="Arial" font-size="14.00">Colorful naive drawing of a fish</text>
</g>
<!-- n1&#45;&gt;n2 -->
<g id="edge1" class="edge">
<title>n1&#45;&gt;n2</title>
<path fill="none" stroke="black" d="M678.2,-366.31C554.14,-344.13 335.46,-305.02 205.67,-281.81"/>
<polygon fill="black" stroke="black" points="206.17,-278.34 195.71,-280.03 204.94,-285.23 206.17,-278.34"/>
</g>
<!-- n3 -->
<g id="node3" class="node">
<title>n3</title>
<polygon fill="#fffdd0" stroke="black" points="462,-280 259,-280 259,-244 462,-244 462,-280"/>
<text text-anchor="middle" x="360.5" y="-258.3" font-family="Arial" font-size="14.00">Blue wavy lines labeled &#39;Water&#39;</text>
</g>
<!-- n1&#45;&gt;n3 -->
<g id="edge2" class="edge">
<title>n1&#45;&gt;n3</title>
<path fill="none" stroke="black" d="M713.05,-365.93C638.03,-344.03 508.09,-306.09 428.66,-282.9"/>
<polygon fill="black" stroke="black" points="429.33,-279.45 418.75,-280.01 427.37,-286.17 429.33,-279.45"/>
</g>
<!-- n4 -->
<g id="node4" class="node">
<title>n4</title>
<polygon fill="#fffdd0" stroke="black" points="746.5,-280 520.5,-280 520.5,-244 746.5,-244 746.5,-280"/>
<text text-anchor="middle" x="633.5" y="-258.3" font-family="Arial" font-size="14.00">Green seaweed labeled &#39;Seaweed&#39;</text>
</g>
<!-- n1&#45;&gt;n4 -->
<g id="edge3" class="edge">
<title>n1&#45;&gt;n4</title>
<path fill="none" stroke="black" d="M751.73,-365.81C727.95,-345.13 687.91,-310.31 661.1,-287"/>
<polygon fill="black" stroke="black" points="663.08,-284.08 653.24,-280.16 658.49,-289.36 663.08,-284.08"/>
</g>
<!-- n5 -->
<g id="node5" class="node">
<title>n5</title>
<polygon fill="#fffdd0" stroke="black" points="1014,-280 805,-280 805,-244 1014,-244 1014,-280"/>
<text text-anchor="middle" x="909.5" y="-258.3" font-family="Arial" font-size="14.00">Smaller fish labeled &#39;Small Fish&#39;</text>
</g>
<!-- n1&#45;&gt;n5 -->
<g id="edge4" class="edge">
<title>n1&#45;&gt;n5</title>
<path fill="none" stroke="black" d="M791.27,-365.81C815.05,-345.13 855.09,-310.31 881.9,-287"/>
<polygon fill="black" stroke="black" points="884.51,-289.36 889.76,-280.16 879.92,-284.08 884.51,-289.36"/>
</g>
<!-- n6 -->
<g id="node6" class="node">
<title>n6</title>
<polygon fill="#fffdd0" stroke="black" points="1199,-280 1072,-280 1072,-244 1199,-244 1199,-280"/>
<text text-anchor="middle" x="1135.5" y="-258.3" font-family="Arial" font-size="14.00">Bits labeled &#39;Food&#39;</text>
</g>
<!-- n1&#45;&gt;n6 -->
<g id="edge5" class="edge">
<title>n1&#45;&gt;n6</title>
<path fill="none" stroke="black" d="M823.27,-365.93C889.44,-344.12 1003.8,-306.4 1074.3,-283.18"/>
<polygon fill="black" stroke="black" points="1075.5,-286.47 1083.9,-280.01 1073.31,-279.82 1075.5,-286.47"/>
</g>
<!-- n7 -->
<g id="node7" class="node">
<title>n7</title>
<polygon fill="#fffdd0" stroke="black" points="1482,-280 1307,-280 1307,-244 1482,-244 1482,-280"/>
<text text-anchor="middle" x="1394.5" y="-258.3" font-family="Arial" font-size="14.00">Arrow depicting swimming</text>
</g>
<!-- n1&#45;&gt;n7 -->
<g id="edge6" class="edge">
<title>n1&#45;&gt;n7</title>
<path fill="none" stroke="black" d="M859.77,-366C975.27,-343.75 1177,-304.89 1296.9,-281.79"/>
<polygon fill="black" stroke="black" points="1297.73,-285.19 1306.9,-279.88 1296.42,-278.32 1297.73,-285.19"/>
</g>
<!-- n8 -->
<g id="node8" class="node">
<title>n8</title>
<path fill="palegreen" stroke="black" d="M172.5,-158C172.5,-158 28.5,-158 28.5,-158 22.5,-158 16.5,-152 16.5,-146 16.5,-146 16.5,-134 16.5,-134 16.5,-128 22.5,-122 28.5,-122 28.5,-122 172.5,-122 172.5,-122 178.5,-122 184.5,-128 184.5,-134 184.5,-134 184.5,-146 184.5,-146 184.5,-152 178.5,-158 172.5,-158"/>
<text text-anchor="middle" x="100.5" y="-136.3" font-family="Arial" font-size="14.00">Fish lives in water habitat</text>
</g>
<!-- n2&#45;&gt;n8 -->
<g id="edge7" class="edge">
<title>n2&#45;&gt;n8</title>
<path fill="none" stroke="black" d="M100.5,-243.81C100.5,-224.11 100.5,-191.58 100.5,-168.39"/>
<polygon fill="black" stroke="black" points="104,-168.16 100.5,-158.16 97,-168.16 104,-168.16"/>
</g>
<!-- n9 -->
<g id="node9" class="node">
<title>n9</title>
<path fill="palegreen" stroke="black" d="M427,-158C427,-158 294,-158 294,-158 288,-158 282,-152 282,-146 282,-146 282,-134 282,-134 282,-128 288,-122 294,-122 294,-122 427,-122 427,-122 433,-122 439,-128 439,-134 439,-134 439,-146 439,-146 439,-152 433,-158 427,-158"/>
<text text-anchor="middle" x="360.5" y="-136.3" font-family="Arial" font-size="14.00">Water as part of habitat</text>
</g>
<!-- n3&#45;&gt;n9 -->
<g id="edge8" class="edge">
<title>n3&#45;&gt;n9</title>
<path fill="none" stroke="black" d="M360.5,-243.81C360.5,-224.11 360.5,-191.58 360.5,-168.39"/>
<polygon fill="black" stroke="black" points="364,-168.16 360.5,-158.16 357,-168.16 364,-168.16"/>
</g>
<!-- n10 -->
<g id="node10" class="node">
<title>n10</title>
<path fill="palegreen" stroke="black" d="M829,-158C829,-158 642,-158 642,-158 636,-158 630,-152 630,-146 630,-146 630,-134 630,-134 630,-128 636,-122 642,-122 642,-122 829,-122 829,-122 835,-122 841,-128 841,-134 841,-134 841,-146 841,-146 841,-152 835,-158 829,-158"/>
<text text-anchor="middle" x="735.5" y="-136.3" font-family="Arial" font-size="14.00">Aquatic plants are part of habitat</text>
</g>
<!-- n4&#45;&gt;n10 -->
<g id="edge9" class="edge">
<title>n4&#45;&gt;n10</title>
<path fill="none" stroke="black" d="M648.11,-243.81C665.46,-223.4 694.52,-189.21 714.33,-165.91"/>
<polygon fill="black" stroke="black" points="717.11,-168.05 720.91,-158.16 711.77,-163.52 717.11,-168.05"/>
</g>
<!-- n5&#45;&gt;n10 -->
<g id="edge10" class="edge">
<title>n5&#45;&gt;n10</title>
<path fill="none" stroke="black" d="M884.57,-243.81C854.21,-222.87 802.79,-187.41 769,-164.1"/>
<polygon fill="black" stroke="black" points="770.6,-160.95 760.38,-158.16 766.63,-166.72 770.6,-160.95"/>
</g>
<!-- n11 -->
<g id="node11" class="node">
<title>n11</title>
<path fill="palegreen" stroke="black" d="M1182,-158C1182,-158 1039,-158 1039,-158 1033,-158 1027,-152 1027,-146 1027,-146 1027,-134 1027,-134 1027,-128 1033,-122 1039,-122 1039,-122 1182,-122 1182,-122 1188,-122 1194,-128 1194,-134 1194,-134 1194,-146 1194,-146 1194,-152 1188,-158 1182,-158"/>
<text text-anchor="middle" x="1110.5" y="-136.3" font-family="Arial" font-size="14.00">Fish need food to survive</text>
</g>
<!-- n6&#45;&gt;n11 -->
<g id="edge11" class="edge">
<title>n6&#45;&gt;n11</title>
<path fill="none" stroke="black" d="M1131.9,-243.81C1127.8,-224.02 1121,-191.29 1116.1,-168.08"/>
<polygon fill="black" stroke="black" points="1119.51,-167.27 1114.1,-158.16 1112.65,-168.65 1119.51,-167.27"/>
</g>
<!-- n12 -->
<g id="node12" class="node">
<title>n12</title>
<polygon fill="lightcoral" stroke="black" points="1419.5,-158 1252,-140 1419.5,-122 1587,-140 1419.5,-158"/>
<text text-anchor="middle" x="1419.5" y="-136.3" font-family="Arial" font-size="14.00">Fish&#39;s interaction with water</text>
</g>
<!-- n7&#45;&gt;n12 -->
<g id="edge12" class="edge">
<title>n7&#45;&gt;n12</title>
<path fill="none" stroke="black" d="M1398.1,-243.81C1402.2,-223.91 1409.1,-190.92 1413.9,-167.68"/>
<polygon fill="black" stroke="black" points="1417.35,-168.28 1416,-157.77 1410.5,-166.83 1417.35,-168.28"/>
</g>
<!-- n13 -->
<g id="node13" class="node">
<title>n13</title>
<polygon fill="#f28e8e" stroke="black" points="1564,-36 1275,-36 1275,0 1564,0 1564,-36"/>
<text text-anchor="middle" x="1419.5" y="-14.3" font-family="Arial" font-size="14.00">Explore more complex ecological interactions</text>
</g>
<!-- n12&#45;&gt;n13 -->
<g id="edge13" class="edge">
<title>n12&#45;&gt;n13</title>
<path fill="none" stroke="black" d="M1419.5,-121.81C1419.5,-102.11 1419.5,-69.58 1419.5,-46.39"/>
<polygon fill="black" stroke="black" points="1423,-46.16 1419.5,-36.16 1416,-46.16 1423,-46.16"/>
</g>
</g>
</svg>
