<?xml version="1.0" encoding="UTF-8" standalone="no"?>
<!DOCTYPE svg PUBLIC "-//W3C//DTD SVG 1.1//EN"
 "http://www.w3.org/Graphics/SVG/1.1/DTD/svg11.dtd">
<!-- Generated by graphviz version 2.43.0 (0)
 -->
<!-- Pages: 1 -->
<svg width="1292pt" height="410pt"
 viewBox="0.00 0.00 1291.50 410.00" xmlns="http://www.w3.org/2000/svg" xmlns:xlink="http://www.w3.org/1999/xlink">
<g id="graph0" class="graph" transform="scale(1 1) rotate(0) translate(4 406)">
<polygon fill="white" stroke="transparent" points="-4,4 -4,-406 1287.5,-406 1287.5,4 -4,4"/>
<!-- n1 -->
<g id="node1" class="node">
<title>n1</title>
<polygon fill="lightblue" stroke="black" points="861.87,-384 719.19,-402 433.81,-402 291.13,-384 433.81,-366 719.19,-366 861.87,-384"/>
<text text-anchor="middle" x="576.5" y="-380.3" font-family="Arial" font-size="14.00">Draw animals in their habitats with labels (e.g., fish in water).</text>
</g>
<!-- n2 -->
<g id="node2" class="node">
<title>n2</title>
<polygon fill="#fffdd0" stroke="black" points="339.5,-280 175.5,-280 175.5,-244 339.5,-244 339.5,-280"/>
<text text-anchor="middle" x="257.5" y="-258.3" font-family="Arial" font-size="14.00">Large circle labeled &#39;fish&#39;</text>
</g>
<!-- n1&#45;&gt;n2 -->
<g id="edge1" class="edge">
<title>n1&#45;&gt;n2</title>
<path fill="none" stroke="black" d="M531.13,-365.93C473.5,-344.25 374.1,-306.86 312.29,-283.61"/>
<polygon fill="black" stroke="black" points="313.3,-280.25 302.71,-280.01 310.84,-286.8 313.3,-280.25"/>
</g>
<!-- n3 -->
<g id="node3" class="node">
<title>n3</title>
<polygon fill="#fffdd0" stroke="black" points="547.5,-280 397.5,-280 397.5,-244 547.5,-244 547.5,-280"/>
<text text-anchor="middle" x="472.5" y="-258.3" font-family="Arial" font-size="14.00">Label &#39;water&#39; near tree</text>
</g>
<!-- n1&#45;&gt;n3 -->
<g id="edge2" class="edge">
<title>n1&#45;&gt;n3</title>
<path fill="none" stroke="black" d="M561.6,-365.81C543.91,-345.4 514.28,-311.21 494.09,-287.91"/>
<polygon fill="black" stroke="black" points="496.57,-285.42 487.37,-280.16 491.28,-290.01 496.57,-285.42"/>
</g>
<!-- n4 -->
<g id="node4" class="node">
<title>n4</title>
<polygon fill="#fffdd0" stroke="black" points="1006,-280 815,-280 815,-244 1006,-244 1006,-280"/>
<text text-anchor="middle" x="910.5" y="-258.3" font-family="Arial" font-size="14.00">Shape labeled &#39;bird&#39; on grass</text>
</g>
<!-- n1&#45;&gt;n4 -->
<g id="edge3" class="edge">
<title>n1&#45;&gt;n4</title>
<path fill="none" stroke="black" d="M624,-365.93C684.47,-344.21 788.84,-306.71 853.53,-283.47"/>
<polygon fill="black" stroke="black" points="854.93,-286.69 863.16,-280.01 852.57,-280.1 854.93,-286.69"/>
</g>
<!-- n5 -->
<g id="node5" class="node">
<title>n5</title>
<polygon fill="#fffdd0" stroke="black" points="757,-280 606,-280 606,-244 757,-244 757,-280"/>
<text text-anchor="middle" x="681.5" y="-258.3" font-family="Arial" font-size="14.00">Label &#39;nest&#39; near circle</text>
</g>
<!-- n1&#45;&gt;n5 -->
<g id="edge4" class="edge">
<title>n1&#45;&gt;n5</title>
<path fill="none" stroke="black" d="M591.54,-365.81C609.4,-345.4 639.32,-311.21 659.7,-287.91"/>
<polygon fill="black" stroke="black" points="662.53,-289.99 666.48,-280.16 657.26,-285.38 662.53,-289.99"/>
</g>
<!-- n6 -->
<g id="node6" class="node">
<title>n6</title>
<path fill="palegreen" stroke="black" d="M81,-158C81,-158 12,-158 12,-158 6,-158 0,-152 0,-146 0,-146 0,-134 0,-134 0,-128 6,-122 12,-122 12,-122 81,-122 81,-122 87,-122 93,-128 93,-134 93,-134 93,-146 93,-146 93,-152 87,-158 81,-158"/>
<text text-anchor="middle" x="46.5" y="-136.3" font-family="Arial" font-size="14.00">Fish in water</text>
</g>
<!-- n2&#45;&gt;n6 -->
<g id="edge5" class="edge">
<title>n2&#45;&gt;n6</title>
<path fill="none" stroke="black" d="M227.27,-243.81C189.98,-222.6 126.51,-186.5 85.56,-163.21"/>
<polygon fill="black" stroke="black" points="87.1,-160.06 76.67,-158.16 83.64,-166.14 87.1,-160.06"/>
</g>
<!-- n7 -->
<g id="node7" class="node">
<title>n7</title>
<polygon fill="lightcoral" stroke="black" points="365.5,-158 151.17,-140 365.5,-122 579.83,-140 365.5,-158"/>
<text text-anchor="middle" x="365.5" y="-136.3" font-family="Arial" font-size="14.00">Confusion about habitats and needs</text>
</g>
<!-- n2&#45;&gt;n7 -->
<g id="edge6" class="edge">
<title>n2&#45;&gt;n7</title>
<path fill="none" stroke="black" d="M272.97,-243.81C291.65,-223.05 323.16,-188.04 344.15,-164.73"/>
<polygon fill="black" stroke="black" points="347.01,-166.79 351.09,-157.01 341.8,-162.11 347.01,-166.79"/>
</g>
<!-- n3&#45;&gt;n7 -->
<g id="edge7" class="edge">
<title>n3&#45;&gt;n7</title>
<path fill="none" stroke="black" d="M457.17,-243.81C438.66,-223.05 407.45,-188.04 386.66,-164.73"/>
<polygon fill="black" stroke="black" points="389.05,-162.15 379.78,-157.01 383.82,-166.8 389.05,-162.15"/>
</g>
<!-- n8 -->
<g id="node8" class="node">
<title>n8</title>
<polygon fill="lightcoral" stroke="black" points="778.5,-158 637.74,-140 778.5,-122 919.26,-140 778.5,-158"/>
<text text-anchor="middle" x="778.5" y="-136.3" font-family="Arial" font-size="14.00">Misplaced label &#39;water&#39;</text>
</g>
<!-- n3&#45;&gt;n8 -->
<g id="edge8" class="edge">
<title>n3&#45;&gt;n8</title>
<path fill="none" stroke="black" d="M516.02,-243.93C574.51,-221 677.83,-180.48 735.87,-157.72"/>
<polygon fill="black" stroke="black" points="737.44,-160.86 745.47,-153.95 734.88,-154.35 737.44,-160.86"/>
</g>
<!-- n5&#45;&gt;n7 -->
<g id="edge9" class="edge">
<title>n5&#45;&gt;n7</title>
<path fill="none" stroke="black" d="M636.56,-243.93C577,-221.32 472.43,-181.61 412.06,-158.68"/>
<polygon fill="black" stroke="black" points="413,-155.29 402.41,-155.02 410.52,-161.84 413,-155.29"/>
</g>
<!-- n9 -->
<g id="node9" class="node">
<title>n9</title>
<polygon fill="lightcoral" stroke="black" points="1111.5,-158 977.11,-140 1111.5,-122 1245.89,-140 1111.5,-158"/>
<text text-anchor="middle" x="1111.5" y="-136.3" font-family="Arial" font-size="14.00">Misplaced label &#39;nest&#39;</text>
</g>
<!-- n5&#45;&gt;n9 -->
<g id="edge10" class="edge">
<title>n5&#45;&gt;n9</title>
<path fill="none" stroke="black" d="M742.65,-243.93C827.93,-220.14 981,-177.42 1060.5,-155.24"/>
<polygon fill="black" stroke="black" points="1061.61,-158.57 1070.3,-152.51 1059.73,-151.82 1061.61,-158.57"/>
</g>
<!-- n10 -->
<g id="node10" class="node">
<title>n10</title>
<polygon fill="#f28e8e" stroke="black" points="516.5,-36 214.5,-36 214.5,0 516.5,0 516.5,-36"/>
<text text-anchor="middle" x="365.5" y="-14.3" font-family="Arial" font-size="14.00">Clarify that fish live in water, birds on grass, etc.</text>
</g>
<!-- n7&#45;&gt;n10 -->
<g id="edge11" class="edge">
<title>n7&#45;&gt;n10</title>
<path fill="none" stroke="black" d="M365.5,-121.81C365.5,-102.11 365.5,-69.58 365.5,-46.39"/>
<polygon fill="black" stroke="black" points="369,-46.16 365.5,-36.16 362,-46.16 369,-46.16"/>
</g>
<!-- n11 -->
<g id="node11" class="node">
<title>n11</title>
<polygon fill="#f28e8e" stroke="black" points="878.5,-36 678.5,-36 678.5,0 878.5,0 878.5,-36"/>
<text text-anchor="middle" x="778.5" y="-14.3" font-family="Arial" font-size="14.00">Review correct habitat labeling</text>
</g>
<!-- n8&#45;&gt;n11 -->
<g id="edge12" class="edge">
<title>n8&#45;&gt;n11</title>
<path fill="none" stroke="black" d="M778.5,-121.81C778.5,-102.11 778.5,-69.58 778.5,-46.39"/>
<polygon fill="black" stroke="black" points="782,-46.16 778.5,-36.16 775,-46.16 782,-46.16"/>
</g>
<!-- n12 -->
<g id="node12" class="node">
<title>n12</title>
<polygon fill="#f28e8e" stroke="black" points="1283.5,-36 939.5,-36 939.5,0 1283.5,0 1283.5,-36"/>
<text text-anchor="middle" x="1111.5" y="-14.3" font-family="Arial" font-size="14.00">Learn proper relationships between animals and labels</text>
</g>
<!-- n9&#45;&gt;n12 -->
<g id="edge13" class="edge">
<title>n9&#45;&gt;n12</title>
<path fill="none" stroke="black" d="M1111.5,-121.81C1111.5,-102.11 1111.5,-69.58 1111.5,-46.39"/>
<polygon fill="black" stroke="black" points="1115,-46.16 1111.5,-36.16 1108,-46.16 1115,-46.16"/>
</g>
</g>
</svg>
