<?xml version="1.0" encoding="UTF-8" standalone="no"?>
<!DOCTYPE svg PUBLIC "-//W3C//DTD SVG 1.1//EN"
 "http://www.w3.org/Graphics/SVG/1.1/DTD/svg11.dtd">
<!-- Generated by graphviz version 2.43.0 (0)
 -->
<!-- Pages: 1 -->
<svg width="1596pt" height="410pt"
 viewBox="0.00 0.00 1595.51 410.00" xmlns="http://www.w3.org/2000/svg" xmlns:xlink="http://www.w3.org/1999/xlink">
<g id="graph0" class="graph" transform="scale(1 1) rotate(0) translate(4 406)">
<polygon fill="white" stroke="transparent" points="-4,4 -4,-406 1591.51,-406 1591.51,4 -4,4"/>
<!-- n1 -->
<g id="node1" class="node">
<title>n1</title>
<polygon fill="lightblue" stroke="black" points="1162.82,-384 1040.41,-402 795.59,-402 673.18,-384 795.59,-366 1040.41,-366 1162.82,-384"/>
<text text-anchor="middle" x="918" y="-380.3" font-family="Arial" font-size="14.00">Draw a habitat and the different living things in each</text>
</g>
<!-- n2 -->
<g id="node2" class="node">
<title>n2</title>
<polygon fill="#fffdd0" stroke="black" points="698.5,-280 309.5,-280 309.5,-244 698.5,-244 698.5,-280"/>
<text text-anchor="middle" x="504" y="-258.3" font-family="Arial" font-size="14.00">Forest with oak and pine trees, grasses, and a labeled squirrel</text>
</g>
<!-- n1&#45;&gt;n2 -->
<g id="edge1" class="edge">
<title>n1&#45;&gt;n2</title>
<path fill="none" stroke="black" d="M859.12,-365.93C783.55,-344.03 652.67,-306.09 572.65,-282.9"/>
<polygon fill="black" stroke="black" points="573.25,-279.43 562.67,-280.01 571.3,-286.15 573.25,-279.43"/>
</g>
<!-- n3 -->
<g id="node3" class="node">
<title>n3</title>
<polygon fill="#fffdd0" stroke="black" points="1079,-280 757,-280 757,-244 1079,-244 1079,-280"/>
<text text-anchor="middle" x="918" y="-258.3" font-family="Arial" font-size="14.00">Pond with lily pads, cattails, labeled fish, and a frog</text>
</g>
<!-- n1&#45;&gt;n3 -->
<g id="edge2" class="edge">
<title>n1&#45;&gt;n3</title>
<path fill="none" stroke="black" d="M918,-365.81C918,-346.11 918,-313.58 918,-290.39"/>
<polygon fill="black" stroke="black" points="921.5,-290.16 918,-280.16 914.5,-290.16 921.5,-290.16"/>
</g>
<!-- n4 -->
<g id="node4" class="node">
<title>n4</title>
<polygon fill="#fffdd0" stroke="black" points="1429.01,-280 1137.01,-280 1137.01,-244 1429.01,-244 1429.01,-280"/>
<text text-anchor="middle" x="1283.01" y="-258.3" font-family="Arial" font-size="14.00">Garden with labeled roses, tulips, and a rabbit</text>
</g>
<!-- n1&#45;&gt;n4 -->
<g id="edge3" class="edge">
<title>n1&#45;&gt;n4</title>
<path fill="none" stroke="black" d="M969.91,-365.93C1036.31,-344.12 1151.01,-306.4 1221.61,-283.18"/>
<polygon fill="black" stroke="black" points="1222.89,-286.44 1231.31,-280.01 1220.72,-279.79 1222.89,-286.44"/>
</g>
<!-- n5 -->
<g id="node5" class="node">
<title>n5</title>
<path fill="palegreen" stroke="black" d="M1190.01,-158C1190.01,-158 974.01,-158 974.01,-158 968.01,-158 962.01,-152 962.01,-146 962.01,-146 962.01,-134 962.01,-134 962.01,-128 968.01,-122 974.01,-122 974.01,-122 1190.01,-122 1190.01,-122 1196.01,-122 1202.01,-128 1202.01,-134 1202.01,-134 1202.01,-146 1202.01,-146 1202.01,-152 1196.01,-158 1190.01,-158"/>
<text text-anchor="middle" x="1082.01" y="-136.3" font-family="Arial" font-size="14.00">Identifies and draws different habitats</text>
</g>
<!-- n2&#45;&gt;n5 -->
<g id="edge4" class="edge">
<title>n2&#45;&gt;n5</title>
<path fill="none" stroke="black" d="M585.89,-244C692.6,-221.84 878.69,-183.21 990.11,-160.08"/>
<polygon fill="black" stroke="black" points="990.91,-163.49 999.99,-158.03 989.49,-156.63 990.91,-163.49"/>
</g>
<!-- n6 -->
<g id="node6" class="node">
<title>n6</title>
<path fill="palegreen" stroke="black" d="M1575.51,-158C1575.51,-158 1272.51,-158 1272.51,-158 1266.51,-158 1260.51,-152 1260.51,-146 1260.51,-146 1260.51,-134 1260.51,-134 1260.51,-128 1266.51,-122 1272.51,-122 1272.51,-122 1575.51,-122 1575.51,-122 1581.51,-122 1587.51,-128 1587.51,-134 1587.51,-134 1587.51,-146 1587.51,-146 1587.51,-152 1581.51,-158 1575.51,-158"/>
<text text-anchor="middle" x="1424.01" y="-136.3" font-family="Arial" font-size="14.00">Draws and labels various plants in habitats correctly</text>
</g>
<!-- n2&#45;&gt;n6 -->
<g id="edge5" class="edge">
<title>n2&#45;&gt;n6</title>
<path fill="none" stroke="black" d="M634.35,-244C806,-221.61 1106.71,-182.39 1283.31,-159.35"/>
<polygon fill="black" stroke="black" points="1284.04,-162.78 1293.51,-158.03 1283.14,-155.84 1284.04,-162.78"/>
</g>
<!-- n7 -->
<g id="node7" class="node">
<title>n7</title>
<polygon fill="lightcoral" stroke="black" points="297,-158 0,-140 297,-122 594,-140 297,-158"/>
<text text-anchor="middle" x="297" y="-136.3" font-family="Arial" font-size="14.00">Mislabels or misses labels for some animals/plants</text>
</g>
<!-- n2&#45;&gt;n7 -->
<g id="edge6" class="edge">
<title>n2&#45;&gt;n7</title>
<path fill="none" stroke="black" d="M474.34,-243.81C436.9,-222.1 372.56,-184.8 332.53,-161.6"/>
<polygon fill="black" stroke="black" points="334.05,-158.43 323.64,-156.45 330.54,-164.49 334.05,-158.43"/>
</g>
<!-- n8 -->
<g id="node8" class="node">
<title>n8</title>
<path fill="palegreen" stroke="black" d="M892,-158C892,-158 664,-158 664,-158 658,-158 652,-152 652,-146 652,-146 652,-134 652,-134 652,-128 658,-122 664,-122 664,-122 892,-122 892,-122 898,-122 904,-128 904,-134 904,-134 904,-146 904,-146 904,-152 898,-158 892,-158"/>
<text text-anchor="middle" x="778" y="-136.3" font-family="Arial" font-size="14.00">Includes diversity of plants and animals</text>
</g>
<!-- n2&#45;&gt;n8 -->
<g id="edge7" class="edge">
<title>n2&#45;&gt;n8</title>
<path fill="none" stroke="black" d="M542.96,-243.93C592.16,-222.39 676.79,-185.32 729.95,-162.04"/>
<polygon fill="black" stroke="black" points="731.41,-165.22 739.17,-158.01 728.61,-158.81 731.41,-165.22"/>
</g>
<!-- n3&#45;&gt;n5 -->
<g id="edge8" class="edge">
<title>n3&#45;&gt;n5</title>
<path fill="none" stroke="black" d="M941.49,-243.81C970.11,-222.87 1018.61,-187.41 1050.41,-164.1"/>
<polygon fill="black" stroke="black" points="1052.52,-166.9 1058.51,-158.16 1048.38,-161.25 1052.52,-166.9"/>
</g>
<!-- n3&#45;&gt;n6 -->
<g id="edge9" class="edge">
<title>n3&#45;&gt;n6</title>
<path fill="none" stroke="black" d="M989.69,-244C1082.71,-221.93 1244.71,-183.52 1342.41,-160.36"/>
<polygon fill="black" stroke="black" points="1343.29,-163.75 1352.21,-158.03 1341.67,-156.94 1343.29,-163.75"/>
</g>
<!-- n3&#45;&gt;n7 -->
<g id="edge10" class="edge">
<title>n3&#45;&gt;n7</title>
<path fill="none" stroke="black" d="M830.01,-244C708.09,-220.44 489.74,-178.25 373.97,-155.87"/>
<polygon fill="black" stroke="black" points="374.59,-152.43 364.11,-153.97 373.27,-159.3 374.59,-152.43"/>
</g>
<!-- n3&#45;&gt;n8 -->
<g id="edge11" class="edge">
<title>n3&#45;&gt;n8</title>
<path fill="none" stroke="black" d="M897.94,-243.81C873.72,-223.04 832.85,-188.01 805.65,-164.7"/>
<polygon fill="black" stroke="black" points="807.89,-162.01 798.02,-158.16 803.33,-167.33 807.89,-162.01"/>
</g>
<!-- n4&#45;&gt;n5 -->
<g id="edge12" class="edge">
<title>n4&#45;&gt;n5</title>
<path fill="none" stroke="black" d="M1254.21,-243.81C1218.81,-222.69 1158.71,-186.81 1119.71,-163.51"/>
<polygon fill="black" stroke="black" points="1121.09,-160.26 1110.71,-158.16 1117.52,-166.28 1121.09,-160.26"/>
</g>
<!-- n4&#45;&gt;n6 -->
<g id="edge13" class="edge">
<title>n4&#45;&gt;n6</title>
<path fill="none" stroke="black" d="M1303.21,-243.81C1327.61,-223.04 1368.71,-188.01 1396.11,-164.7"/>
<polygon fill="black" stroke="black" points="1398.45,-167.3 1403.81,-158.16 1393.92,-161.97 1398.45,-167.3"/>
</g>
<!-- n4&#45;&gt;n7 -->
<g id="edge14" class="edge">
<title>n4&#45;&gt;n7</title>
<path fill="none" stroke="black" d="M1143.31,-244C942.92,-219.61 578.49,-175.26 400.46,-153.59"/>
<polygon fill="black" stroke="black" points="400.65,-150.09 390.3,-152.36 399.81,-157.04 400.65,-150.09"/>
</g>
<!-- n4&#45;&gt;n8 -->
<g id="edge15" class="edge">
<title>n4&#45;&gt;n8</title>
<path fill="none" stroke="black" d="M1211.41,-244C1118.61,-221.93 956.94,-183.52 859.46,-160.36"/>
<polygon fill="black" stroke="black" points="860.19,-156.94 849.65,-158.03 858.57,-163.75 860.19,-156.94"/>
</g>
<!-- n9 -->
<g id="node9" class="node">
<title>n9</title>
<polygon fill="#f28e8e" stroke="black" points="420.5,-36 173.5,-36 173.5,0 420.5,0 420.5,-36"/>
<text text-anchor="middle" x="297" y="-14.3" font-family="Arial" font-size="14.00">Add correct labels to all drawn species</text>
</g>
<!-- n7&#45;&gt;n9 -->
<g id="edge16" class="edge">
<title>n7&#45;&gt;n9</title>
<path fill="none" stroke="black" d="M297,-121.81C297,-102.11 297,-69.58 297,-46.39"/>
<polygon fill="black" stroke="black" points="300.5,-46.16 297,-36.16 293.5,-46.16 300.5,-46.16"/>
</g>
</g>
</svg>
