<?xml version="1.0" encoding="UTF-8" standalone="no"?>
<!DOCTYPE svg PUBLIC "-//W3C//DTD SVG 1.1//EN"
 "http://www.w3.org/Graphics/SVG/1.1/DTD/svg11.dtd">
<!-- Generated by graphviz version 2.43.0 (0)
 -->
<!-- Pages: 1 -->
<svg width="1386pt" height="410pt"
 viewBox="0.00 0.00 1386.00 410.00" xmlns="http://www.w3.org/2000/svg" xmlns:xlink="http://www.w3.org/1999/xlink">
<g id="graph0" class="graph" transform="scale(1 1) rotate(0) translate(4 406)">
<polygon fill="white" stroke="transparent" points="-4,4 -4,-406 1382,-406 1382,4 -4,4"/>
<!-- n1 -->
<g id="node1" class="node">
<title>n1</title>
<polygon fill="lightblue" stroke="black" points="956.5,-384 842.75,-402 615.25,-402 501.5,-384 615.25,-366 842.75,-366 956.5,-384"/>
<text text-anchor="middle" x="729" y="-380.3" font-family="Arial" font-size="14.00">Illustrate plants with and without water and light.</text>
</g>
<!-- n2 -->
<g id="node2" class="node">
<title>n2</title>
<polygon fill="#fffdd0" stroke="black" points="697.5,-280 470.5,-280 470.5,-244 697.5,-244 697.5,-280"/>
<text text-anchor="middle" x="584" y="-258.3" font-family="Arial" font-size="14.00">Three identical green plants drawn.</text>
</g>
<!-- n1&#45;&gt;n2 -->
<g id="edge1" class="edge">
<title>n1&#45;&gt;n2</title>
<path fill="none" stroke="black" d="M708.23,-365.81C683.14,-345.04 640.81,-310.01 612.63,-286.7"/>
<polygon fill="black" stroke="black" points="614.67,-283.85 604.74,-280.16 610.21,-289.24 614.67,-283.85"/>
</g>
<!-- n3 -->
<g id="node3" class="node">
<title>n3</title>
<polygon fill="#fffdd0" stroke="black" points="994.5,-280 755.5,-280 755.5,-244 994.5,-244 994.5,-280"/>
<text text-anchor="middle" x="875" y="-258.3" font-family="Arial" font-size="14.00">Brown patch of soil under each plant.</text>
</g>
<!-- n1&#45;&gt;n3 -->
<g id="edge2" class="edge">
<title>n1&#45;&gt;n3</title>
<path fill="none" stroke="black" d="M749.92,-365.81C775.18,-345.04 817.8,-310.01 846.17,-286.7"/>
<polygon fill="black" stroke="black" points="848.62,-289.22 854.12,-280.16 844.17,-283.81 848.62,-289.22"/>
</g>
<!-- n4 -->
<g id="node4" class="node">
<title>n4</title>
<path fill="palegreen" stroke="black" d="M438,-158C438,-158 12,-158 12,-158 6,-158 0,-152 0,-146 0,-146 0,-134 0,-134 0,-128 6,-122 12,-122 12,-122 438,-122 438,-122 444,-122 450,-128 450,-134 450,-134 450,-146 450,-146 450,-152 444,-158 438,-158"/>
<text text-anchor="middle" x="225" y="-136.3" font-family="Arial" font-size="14.00">Understanding: Plants need water and light to remain green and healthy.</text>
</g>
<!-- n2&#45;&gt;n4 -->
<g id="edge3" class="edge">
<title>n2&#45;&gt;n4</title>
<path fill="none" stroke="black" d="M532.95,-243.93C467.68,-222.12 354.84,-184.4 285.38,-161.18"/>
<polygon fill="black" stroke="black" points="286.47,-157.86 275.88,-158.01 284.26,-164.5 286.47,-157.86"/>
</g>
<!-- n5 -->
<g id="node5" class="node">
<title>n5</title>
<polygon fill="lightcoral" stroke="black" points="943,-158 508,-140 943,-122 1378,-140 943,-158"/>
<text text-anchor="middle" x="943" y="-136.3" font-family="Arial" font-size="14.00">Misunderstanding: All plants appear identical and healthy despite conditions.</text>
</g>
<!-- n2&#45;&gt;n5 -->
<g id="edge4" class="edge">
<title>n2&#45;&gt;n5</title>
<path fill="none" stroke="black" d="M635.05,-243.93C701.94,-221.58 818.79,-182.52 887.71,-159.48"/>
<polygon fill="black" stroke="black" points="889.15,-162.69 897.52,-156.2 886.93,-156.05 889.15,-162.69"/>
</g>
<!-- n6 -->
<g id="node6" class="node">
<title>n6</title>
<polygon fill="#f28e8e" stroke="black" points="1185.5,-36 700.5,-36 700.5,0 1185.5,0 1185.5,-36"/>
<text text-anchor="middle" x="943" y="-14.3" font-family="Arial" font-size="14.00">Feedback: Show different plant health conditions by varying plant appearance.</text>
</g>
<!-- n5&#45;&gt;n6 -->
<g id="edge5" class="edge">
<title>n5&#45;&gt;n6</title>
<path fill="none" stroke="black" d="M943,-121.81C943,-102.11 943,-69.58 943,-46.39"/>
<polygon fill="black" stroke="black" points="946.5,-46.16 943,-36.16 939.5,-46.16 946.5,-46.16"/>
</g>
</g>
</svg>
