<?xml version="1.0" encoding="UTF-8" standalone="no"?>
<!DOCTYPE svg PUBLIC "-//W3C//DTD SVG 1.1//EN"
 "http://www.w3.org/Graphics/SVG/1.1/DTD/svg11.dtd">
<!-- Generated by graphviz version 2.43.0 (0)
 -->
<!-- Pages: 1 -->
<svg width="1624pt" height="410pt"
 viewBox="0.00 0.00 1623.52 410.00" xmlns="http://www.w3.org/2000/svg" xmlns:xlink="http://www.w3.org/1999/xlink">
<g id="graph0" class="graph" transform="scale(1 1) rotate(0) translate(4 406)">
<polygon fill="white" stroke="transparent" points="-4,4 -4,-406 1619.52,-406 1619.52,4 -4,4"/>
<!-- n1 -->
<g id="node1" class="node">
<title>n1</title>
<polygon fill="lightblue" stroke="black" points="841.24,-384 748.12,-402 561.88,-402 468.76,-384 561.88,-366 748.12,-366 841.24,-384"/>
<text text-anchor="middle" x="655" y="-380.3" font-family="Arial" font-size="14.00">Illustrate plants with and without water.</text>
</g>
<!-- n2 -->
<g id="node2" class="node">
<title>n2</title>
<polygon fill="#fffdd0" stroke="black" points="397.5,-280 40.5,-280 40.5,-244 397.5,-244 397.5,-280"/>
<text text-anchor="middle" x="219" y="-258.3" font-family="Arial" font-size="14.00">Healthy plant with bright green leaves and upright stems.</text>
</g>
<!-- n1&#45;&gt;n2 -->
<g id="edge1" class="edge">
<title>n1&#45;&gt;n2</title>
<path fill="none" stroke="black" d="M592.99,-365.93C513.16,-343.96 374.73,-305.86 290.53,-282.69"/>
<polygon fill="black" stroke="black" points="291.36,-279.29 280.79,-280.01 289.5,-286.04 291.36,-279.29"/>
</g>
<!-- n3 -->
<g id="node3" class="node">
<title>n3</title>
<polygon fill="#fffdd0" stroke="black" points="829,-280 481,-280 481,-244 829,-244 829,-280"/>
<text text-anchor="middle" x="655" y="-258.3" font-family="Arial" font-size="14.00">Unhealthy plant with brown leaves and drooping stems.</text>
</g>
<!-- n1&#45;&gt;n3 -->
<g id="edge2" class="edge">
<title>n1&#45;&gt;n3</title>
<path fill="none" stroke="black" d="M655,-365.81C655,-346.11 655,-313.58 655,-290.39"/>
<polygon fill="black" stroke="black" points="658.5,-290.16 655,-280.16 651.5,-290.16 658.5,-290.16"/>
</g>
<!-- n4 -->
<g id="node4" class="node">
<title>n4</title>
<polygon fill="#fffdd0" stroke="black" points="1303.5,-280 1002.5,-280 1002.5,-244 1303.5,-244 1303.5,-280"/>
<text text-anchor="middle" x="1153" y="-258.3" font-family="Arial" font-size="14.00">Sequence showing increasing wilting over time.</text>
</g>
<!-- n1&#45;&gt;n4 -->
<g id="edge3" class="edge">
<title>n1&#45;&gt;n4</title>
<path fill="none" stroke="black" d="M725.56,-366C817.04,-343.95 976.22,-305.6 1072.4,-282.43"/>
<polygon fill="black" stroke="black" points="1073.41,-285.79 1082.3,-280.03 1071.76,-278.98 1073.41,-285.79"/>
</g>
<!-- n5 -->
<g id="node5" class="node">
<title>n5</title>
<path fill="palegreen" stroke="black" d="M376,-158C376,-158 12,-158 12,-158 6,-158 0,-152 0,-146 0,-146 0,-134 0,-134 0,-128 6,-122 12,-122 12,-122 376,-122 376,-122 382,-122 388,-128 388,-134 388,-134 388,-146 388,-146 388,-152 382,-158 376,-158"/>
<text text-anchor="middle" x="194" y="-136.3" font-family="Arial" font-size="14.00">Recognizes water&#39;s role in plant health (green, upright stems).</text>
</g>
<!-- n2&#45;&gt;n5 -->
<g id="edge4" class="edge">
<title>n2&#45;&gt;n5</title>
<path fill="none" stroke="black" d="M215.42,-243.81C211.3,-224.02 204.48,-191.29 199.64,-168.08"/>
<polygon fill="black" stroke="black" points="203.04,-167.24 197.58,-158.16 196.19,-168.66 203.04,-167.24"/>
</g>
<!-- n6 -->
<g id="node6" class="node">
<title>n6</title>
<path fill="palegreen" stroke="black" d="M852.5,-158C852.5,-158 457.5,-158 457.5,-158 451.5,-158 445.5,-152 445.5,-146 445.5,-146 445.5,-134 445.5,-134 445.5,-128 451.5,-122 457.5,-122 457.5,-122 852.5,-122 852.5,-122 858.5,-122 864.5,-128 864.5,-134 864.5,-134 864.5,-146 864.5,-146 864.5,-152 858.5,-158 852.5,-158"/>
<text text-anchor="middle" x="655" y="-136.3" font-family="Arial" font-size="14.00">Understands lack of water leads to wilting (brown, drooping stems).</text>
</g>
<!-- n3&#45;&gt;n6 -->
<g id="edge5" class="edge">
<title>n3&#45;&gt;n6</title>
<path fill="none" stroke="black" d="M655,-243.81C655,-224.11 655,-191.58 655,-168.39"/>
<polygon fill="black" stroke="black" points="658.5,-168.16 655,-158.16 651.5,-168.16 658.5,-168.16"/>
</g>
<!-- n7 -->
<g id="node7" class="node">
<title>n7</title>
<polygon fill="lightcoral" stroke="black" points="1269,-158 922.46,-140 1269,-122 1615.54,-140 1269,-158"/>
<text text-anchor="middle" x="1269" y="-136.3" font-family="Arial" font-size="14.00">Observes plant changes over time without explaining cause.</text>
</g>
<!-- n4&#45;&gt;n7 -->
<g id="edge6" class="edge">
<title>n4&#45;&gt;n7</title>
<path fill="none" stroke="black" d="M1169.6,-243.81C1189.7,-223.08 1223.4,-188.13 1246,-164.81"/>
<polygon fill="black" stroke="black" points="1248.75,-167 1253.2,-157.39 1243.72,-162.13 1248.75,-167"/>
</g>
<!-- n8 -->
<g id="node8" class="node">
<title>n8</title>
<polygon fill="#f28e8e" stroke="black" points="1474,-36 1064,-36 1064,0 1474,0 1474,-36"/>
<text text-anchor="middle" x="1269" y="-14.3" font-family="Arial" font-size="14.00">Explain why water is essential for plants to convey understanding.</text>
</g>
<!-- n7&#45;&gt;n8 -->
<g id="edge7" class="edge">
<title>n7&#45;&gt;n8</title>
<path fill="none" stroke="black" d="M1269,-121.81C1269,-102.11 1269,-69.58 1269,-46.39"/>
<polygon fill="black" stroke="black" points="1272.5,-46.16 1269,-36.16 1265.5,-46.16 1272.5,-46.16"/>
</g>
</g>
</svg>
