<?xml version="1.0" encoding="UTF-8" standalone="no"?>
<!DOCTYPE svg PUBLIC "-//W3C//DTD SVG 1.1//EN"
 "http://www.w3.org/Graphics/SVG/1.1/DTD/svg11.dtd">
<!-- Generated by graphviz version 2.43.0 (0)
 -->
<!-- Pages: 1 -->
<svg width="1773pt" height="410pt"
 viewBox="0.00 0.00 1773.00 410.00" xmlns="http://www.w3.org/2000/svg" xmlns:xlink="http://www.w3.org/1999/xlink">
<g id="graph0" class="graph" transform="scale(1 1) rotate(0) translate(4 406)">
<polygon fill="white" stroke="transparent" points="-4,4 -4,-406 1769,-406 1769,4 -4,4"/>
<!-- n1 -->
<g id="node1" class="node">
<title>n1</title>
<polygon fill="lightblue" stroke="black" points="1027,-384 935.75,-402 753.25,-402 662,-384 753.25,-366 935.75,-366 1027,-384"/>
<text text-anchor="middle" x="844.5" y="-380.3" font-family="Arial" font-size="14.00">Draw a fish in their habitat with labels.</text>
</g>
<!-- n2 -->
<g id="node2" class="node">
<title>n2</title>
<polygon fill="#fffdd0" stroke="black" points="321,-280 0,-280 0,-244 321,-244 321,-280"/>
<text text-anchor="middle" x="160.5" y="-258.3" font-family="Arial" font-size="14.00">Drawing of a fish with labeled parts (fins, tail, body)</text>
</g>
<!-- n1&#45;&gt;n2 -->
<g id="edge1" class="edge">
<title>n1&#45;&gt;n2</title>
<path fill="none" stroke="black" d="M750.47,-366.5C624.22,-344.35 400.49,-305.1 267.8,-281.82"/>
<polygon fill="black" stroke="black" points="268.07,-278.31 257.62,-280.04 266.87,-285.21 268.07,-278.31"/>
</g>
<!-- n4 -->
<g id="node3" class="node">
<title>n4</title>
<polygon fill="#fffdd0" stroke="black" points="651.5,-280 379.5,-280 379.5,-244 651.5,-244 651.5,-280"/>
<text text-anchor="middle" x="515.5" y="-258.3" font-family="Arial" font-size="14.00">Fish in blue ocean water labeled as habitat</text>
</g>
<!-- n1&#45;&gt;n4 -->
<g id="edge2" class="edge">
<title>n1&#45;&gt;n4</title>
<path fill="none" stroke="black" d="M797.71,-365.93C738.15,-344.21 635.34,-306.71 571.62,-283.47"/>
<polygon fill="black" stroke="black" points="572.72,-280.15 562.13,-280.01 570.33,-286.72 572.72,-280.15"/>
</g>
<!-- n6 -->
<g id="node4" class="node">
<title>n6</title>
<polygon fill="#fffdd0" stroke="black" points="979,-280 710,-280 710,-244 979,-244 979,-280"/>
<text text-anchor="middle" x="844.5" y="-258.3" font-family="Arial" font-size="14.00">Included green seaweed labeled as plants</text>
</g>
<!-- n1&#45;&gt;n6 -->
<g id="edge3" class="edge">
<title>n1&#45;&gt;n6</title>
<path fill="none" stroke="black" d="M844.5,-365.81C844.5,-346.11 844.5,-313.58 844.5,-290.39"/>
<polygon fill="black" stroke="black" points="848,-290.16 844.5,-280.16 841,-290.16 848,-290.16"/>
</g>
<!-- n8 -->
<g id="node5" class="node">
<title>n8</title>
<polygon fill="#fffdd0" stroke="black" points="1255.5,-280 1037.5,-280 1037.5,-244 1255.5,-244 1255.5,-280"/>
<text text-anchor="middle" x="1146.5" y="-258.3" font-family="Arial" font-size="14.00">Gray rocks at ocean floor, labeled</text>
</g>
<!-- n1&#45;&gt;n8 -->
<g id="edge4" class="edge">
<title>n1&#45;&gt;n8</title>
<path fill="none" stroke="black" d="M887.45,-365.93C941.9,-344.3 1035.7,-307.02 1094.3,-283.76"/>
<polygon fill="black" stroke="black" points="1095.71,-286.97 1103.7,-280.01 1093.11,-280.46 1095.71,-286.97"/>
</g>
<!-- n10 -->
<g id="node6" class="node">
<title>n10</title>
<polygon fill="#fffdd0" stroke="black" points="1650,-280 1361,-280 1361,-244 1650,-244 1650,-280"/>
<text text-anchor="middle" x="1505.5" y="-258.3" font-family="Arial" font-size="14.00">Another fish in the drawing without interaction</text>
</g>
<!-- n1&#45;&gt;n10 -->
<g id="edge5" class="edge">
<title>n1&#45;&gt;n10</title>
<path fill="none" stroke="black" d="M937.11,-366.19C1059.3,-344 1273.8,-305.06 1401.5,-281.88"/>
<polygon fill="black" stroke="black" points="1402.48,-285.26 1411.7,-280.04 1401.24,-278.37 1402.48,-285.26"/>
</g>
<!-- n3 -->
<g id="node7" class="node">
<title>n3</title>
<path fill="palegreen" stroke="black" d="M271.5,-158C271.5,-158 49.5,-158 49.5,-158 43.5,-158 37.5,-152 37.5,-146 37.5,-146 37.5,-134 37.5,-134 37.5,-128 43.5,-122 49.5,-122 49.5,-122 271.5,-122 271.5,-122 277.5,-122 283.5,-128 283.5,-134 283.5,-134 283.5,-146 283.5,-146 283.5,-152 277.5,-158 271.5,-158"/>
<text text-anchor="middle" x="160.5" y="-136.3" font-family="Arial" font-size="14.00">Fish labeled with parts (fins, tail, body)</text>
</g>
<!-- n2&#45;&gt;n3 -->
<g id="edge6" class="edge">
<title>n2&#45;&gt;n3</title>
<path fill="none" stroke="black" d="M160.5,-243.81C160.5,-224.11 160.5,-191.58 160.5,-168.39"/>
<polygon fill="black" stroke="black" points="164,-168.16 160.5,-158.16 157,-168.16 164,-168.16"/>
</g>
<!-- n5 -->
<g id="node8" class="node">
<title>n5</title>
<path fill="palegreen" stroke="black" d="M628,-158C628,-158 403,-158 403,-158 397,-158 391,-152 391,-146 391,-146 391,-134 391,-134 391,-128 397,-122 403,-122 403,-122 628,-122 628,-122 634,-122 640,-128 640,-134 640,-134 640,-146 640,-146 640,-152 634,-158 628,-158"/>
<text text-anchor="middle" x="515.5" y="-136.3" font-family="Arial" font-size="14.00">Fish habitat accurately shown as water</text>
</g>
<!-- n4&#45;&gt;n5 -->
<g id="edge7" class="edge">
<title>n4&#45;&gt;n5</title>
<path fill="none" stroke="black" d="M515.5,-243.81C515.5,-224.11 515.5,-191.58 515.5,-168.39"/>
<polygon fill="black" stroke="black" points="519,-168.16 515.5,-158.16 512,-168.16 519,-168.16"/>
</g>
<!-- n7 -->
<g id="node9" class="node">
<title>n7</title>
<path fill="palegreen" stroke="black" d="M938.5,-158C938.5,-158 710.5,-158 710.5,-158 704.5,-158 698.5,-152 698.5,-146 698.5,-146 698.5,-134 698.5,-134 698.5,-128 704.5,-122 710.5,-122 710.5,-122 938.5,-122 938.5,-122 944.5,-122 950.5,-128 950.5,-134 950.5,-134 950.5,-146 950.5,-146 950.5,-152 944.5,-158 938.5,-158"/>
<text text-anchor="middle" x="824.5" y="-136.3" font-family="Arial" font-size="14.00">Correctly labels living elements (plants)</text>
</g>
<!-- n6&#45;&gt;n7 -->
<g id="edge8" class="edge">
<title>n6&#45;&gt;n7</title>
<path fill="none" stroke="black" d="M841.63,-243.81C838.34,-224.02 832.88,-191.29 829.01,-168.08"/>
<polygon fill="black" stroke="black" points="832.45,-167.45 827.36,-158.16 825.55,-168.6 832.45,-167.45"/>
</g>
<!-- n9 -->
<g id="node10" class="node">
<title>n9</title>
<path fill="palegreen" stroke="black" d="M1272,-158C1272,-158 1021,-158 1021,-158 1015,-158 1009,-152 1009,-146 1009,-146 1009,-134 1009,-134 1009,-128 1015,-122 1021,-122 1021,-122 1272,-122 1272,-122 1278,-122 1284,-128 1284,-134 1284,-134 1284,-146 1284,-146 1284,-152 1278,-158 1272,-158"/>
<text text-anchor="middle" x="1146.5" y="-136.3" font-family="Arial" font-size="14.00">Correctly labels non&#45;living elements (rocks)</text>
</g>
<!-- n8&#45;&gt;n9 -->
<g id="edge9" class="edge">
<title>n8&#45;&gt;n9</title>
<path fill="none" stroke="black" d="M1146.5,-243.81C1146.5,-224.11 1146.5,-191.58 1146.5,-168.39"/>
<polygon fill="black" stroke="black" points="1150,-168.16 1146.5,-158.16 1143,-168.16 1150,-168.16"/>
</g>
<!-- n11 -->
<g id="node11" class="node">
<title>n11</title>
<polygon fill="lightcoral" stroke="black" points="1553.5,-158 1342,-140 1553.5,-122 1765,-140 1553.5,-158"/>
<text text-anchor="middle" x="1553.5" y="-136.3" font-family="Arial" font-size="14.00">Focus on elements, not interactions</text>
</g>
<!-- n10&#45;&gt;n11 -->
<g id="edge10" class="edge">
<title>n10&#45;&gt;n11</title>
<path fill="none" stroke="black" d="M1512.4,-243.81C1520.4,-223.82 1533.7,-190.62 1543,-167.37"/>
<polygon fill="black" stroke="black" points="1546.37,-168.36 1546.8,-157.77 1539.87,-165.78 1546.37,-168.36"/>
</g>
<!-- n12 -->
<g id="node12" class="node">
<title>n12</title>
<polygon fill="#f28e8e" stroke="black" points="1691.5,-36 1415.5,-36 1415.5,0 1691.5,0 1691.5,-36"/>
<text text-anchor="middle" x="1553.5" y="-14.3" font-family="Arial" font-size="14.00">Consider showing interactions between fish</text>
</g>
<!-- n11&#45;&gt;n12 -->
<g id="edge11" class="edge">
<title>n11&#45;&gt;n12</title>
<path fill="none" stroke="black" d="M1553.5,-121.81C1553.5,-102.11 1553.5,-69.58 1553.5,-46.39"/>
<polygon fill="black" stroke="black" points="1557,-46.16 1553.5,-36.16 1550,-46.16 1557,-46.16"/>
</g>
</g>
</svg>
