<?xml version="1.0" encoding="UTF-8" standalone="no"?>
<!DOCTYPE svg PUBLIC "-//W3C//DTD SVG 1.1//EN"
 "http://www.w3.org/Graphics/SVG/1.1/DTD/svg11.dtd">
<!-- Generated by graphviz version 2.43.0 (0)
 -->
<!-- Pages: 1 -->
<svg width="1768pt" height="410pt"
 viewBox="0.00 0.00 1768.00 410.00" xmlns="http://www.w3.org/2000/svg" xmlns:xlink="http://www.w3.org/1999/xlink">
<g id="graph0" class="graph" transform="scale(1 1) rotate(0) translate(4 406)">
<polygon fill="white" stroke="transparent" points="-4,4 -4,-406 1764,-406 1764,4 -4,4"/>
<!-- n1 -->
<g id="node1" class="node">
<title>n1</title>
<polygon fill="lightblue" stroke="black" points="949,-384 837.5,-402 614.5,-402 503,-384 614.5,-366 837.5,-366 949,-384"/>
<text text-anchor="middle" x="726" y="-380.3" font-family="Arial" font-size="14.00">Draw a string telephone between two students.</text>
</g>
<!-- n2 -->
<g id="node2" class="node">
<title>n2</title>
<polygon fill="#fffdd0" stroke="black" points="330.5,-280 165.5,-280 165.5,-244 330.5,-244 330.5,-280"/>
<text text-anchor="middle" x="248" y="-258.3" font-family="Arial" font-size="14.00">Two stick&#45;figure students</text>
</g>
<!-- n1&#45;&gt;n2 -->
<g id="edge1" class="edge">
<title>n1&#45;&gt;n2</title>
<path fill="none" stroke="black" d="M658.28,-366C570.56,-343.98 417.99,-305.68 325.67,-282.5"/>
<polygon fill="black" stroke="black" points="326.37,-279.07 315.82,-280.03 324.67,-285.86 326.37,-279.07"/>
</g>
<!-- n3 -->
<g id="node3" class="node">
<title>n3</title>
<polygon fill="#fffdd0" stroke="black" points="712.5,-280 437.5,-280 437.5,-244 712.5,-244 712.5,-280"/>
<text text-anchor="middle" x="575" y="-258.3" font-family="Arial" font-size="14.00">Cup&#45;shaped objects in each student&#39;s hand</text>
</g>
<!-- n1&#45;&gt;n3 -->
<g id="edge2" class="edge">
<title>n1&#45;&gt;n3</title>
<path fill="none" stroke="black" d="M704.37,-365.81C678.13,-344.96 633.78,-309.71 604.44,-286.4"/>
<polygon fill="black" stroke="black" points="606.6,-283.64 596.59,-280.16 602.24,-289.12 606.6,-283.64"/>
</g>
<!-- n4 -->
<g id="node4" class="node">
<title>n4</title>
<polygon fill="#fffdd0" stroke="black" points="1086,-280 874,-280 874,-244 1086,-244 1086,-280"/>
<text text-anchor="middle" x="980" y="-258.3" font-family="Arial" font-size="14.00">Straight line connecting the cups</text>
</g>
<!-- n1&#45;&gt;n4 -->
<g id="edge3" class="edge">
<title>n1&#45;&gt;n4</title>
<path fill="none" stroke="black" d="M762.12,-365.93C807.54,-344.48 885.53,-307.63 934.84,-284.33"/>
<polygon fill="black" stroke="black" points="936.45,-287.44 944,-280.01 933.46,-281.11 936.45,-287.44"/>
</g>
<!-- n5 -->
<g id="node5" class="node">
<title>n5</title>
<polygon fill="#fffdd0" stroke="black" points="1484,-280 1344,-280 1344,-244 1484,-244 1484,-280"/>
<text text-anchor="middle" x="1414" y="-258.3" font-family="Arial" font-size="14.00">Students are smiling</text>
</g>
<!-- n1&#45;&gt;n5 -->
<g id="edge4" class="edge">
<title>n1&#45;&gt;n5</title>
<path fill="none" stroke="black" d="M823.48,-366C960.27,-342.14 1206.6,-299.17 1333.6,-277.03"/>
<polygon fill="black" stroke="black" points="1334.35,-280.45 1343.6,-275.28 1333.15,-273.56 1334.35,-280.45"/>
</g>
<!-- n6 -->
<g id="node6" class="node">
<title>n6</title>
<path fill="palegreen" stroke="black" d="M282,-158C282,-158 12,-158 12,-158 6,-158 0,-152 0,-146 0,-146 0,-134 0,-134 0,-128 6,-122 12,-122 12,-122 282,-122 282,-122 288,-122 294,-128 294,-134 294,-134 294,-146 294,-146 294,-152 288,-158 282,-158"/>
<text text-anchor="middle" x="147" y="-136.3" font-family="Arial" font-size="14.00">The student can draw a string telephone setup</text>
</g>
<!-- n2&#45;&gt;n6 -->
<g id="edge5" class="edge">
<title>n2&#45;&gt;n6</title>
<path fill="none" stroke="black" d="M233.53,-243.81C216.35,-223.4 187.58,-189.21 167.96,-165.91"/>
<polygon fill="black" stroke="black" points="170.56,-163.56 161.44,-158.16 165.2,-168.07 170.56,-163.56"/>
</g>
<!-- n7 -->
<g id="node7" class="node">
<title>n7</title>
<polygon fill="lightcoral" stroke="black" points="524,-158 352,-140 524,-122 696,-140 524,-158"/>
<text text-anchor="middle" x="524" y="-136.3" font-family="Arial" font-size="14.00">No indication of sound travel</text>
</g>
<!-- n3&#45;&gt;n7 -->
<g id="edge6" class="edge">
<title>n3&#45;&gt;n7</title>
<path fill="none" stroke="black" d="M567.69,-243.81C559.11,-223.62 544.8,-189.94 534.91,-166.66"/>
<polygon fill="black" stroke="black" points="538.1,-165.22 530.97,-157.39 531.66,-167.96 538.1,-165.22"/>
</g>
<!-- n8 -->
<g id="node8" class="node">
<title>n8</title>
<polygon fill="lightcoral" stroke="black" points="1032,-158 753.49,-140 1032,-122 1310.51,-140 1032,-158"/>
<text text-anchor="middle" x="1032" y="-136.3" font-family="Arial" font-size="14.00">No labels or arrows for communication direction</text>
</g>
<!-- n4&#45;&gt;n8 -->
<g id="edge7" class="edge">
<title>n4&#45;&gt;n8</title>
<path fill="none" stroke="black" d="M987.45,-243.81C996.15,-223.73 1010.6,-190.32 1020.7,-167.06"/>
<polygon fill="black" stroke="black" points="1023.96,-168.34 1024.7,-157.77 1017.53,-165.57 1023.96,-168.34"/>
</g>
<!-- n9 -->
<g id="node9" class="node">
<title>n9</title>
<polygon fill="lightcoral" stroke="black" points="1564,-158 1368,-140 1564,-122 1760,-140 1564,-158"/>
<text text-anchor="middle" x="1564" y="-136.3" font-family="Arial" font-size="14.00">Lack of clarity on device purpose</text>
</g>
<!-- n5&#45;&gt;n9 -->
<g id="edge8" class="edge">
<title>n5&#45;&gt;n9</title>
<path fill="none" stroke="black" d="M1435.5,-243.81C1462.2,-222.45 1507.7,-186.01 1536.8,-162.74"/>
<polygon fill="black" stroke="black" points="1539.28,-165.24 1544.9,-156.26 1534.9,-159.77 1539.28,-165.24"/>
</g>
<!-- n10 -->
<g id="node10" class="node">
<title>n10</title>
<polygon fill="#f28e8e" stroke="black" points="649,-36 399,-36 399,0 649,0 649,-36"/>
<text text-anchor="middle" x="524" y="-14.3" font-family="Arial" font-size="14.00">Include arrows to show sound direction</text>
</g>
<!-- n7&#45;&gt;n10 -->
<g id="edge9" class="edge">
<title>n7&#45;&gt;n10</title>
<path fill="none" stroke="black" d="M524,-121.81C524,-102.11 524,-69.58 524,-46.39"/>
<polygon fill="black" stroke="black" points="527.5,-46.16 524,-36.16 520.5,-46.16 527.5,-46.16"/>
</g>
<!-- n11 -->
<g id="node11" class="node">
<title>n11</title>
<polygon fill="#f28e8e" stroke="black" points="1123.5,-36 940.5,-36 940.5,0 1123.5,0 1123.5,-36"/>
<text text-anchor="middle" x="1032" y="-14.3" font-family="Arial" font-size="14.00">Add labels to describe parts</text>
</g>
<!-- n8&#45;&gt;n11 -->
<g id="edge10" class="edge">
<title>n8&#45;&gt;n11</title>
<path fill="none" stroke="black" d="M1032,-121.81C1032,-102.11 1032,-69.58 1032,-46.39"/>
<polygon fill="black" stroke="black" points="1035.5,-46.16 1032,-36.16 1028.5,-46.16 1035.5,-46.16"/>
</g>
<!-- n12 -->
<g id="node12" class="node">
<title>n12</title>
<polygon fill="#f28e8e" stroke="black" points="1707.5,-36 1420.5,-36 1420.5,0 1707.5,0 1707.5,-36"/>
<text text-anchor="middle" x="1564" y="-14.3" font-family="Arial" font-size="14.00">Explain purpose: communicate over distance</text>
</g>
<!-- n9&#45;&gt;n12 -->
<g id="edge11" class="edge">
<title>n9&#45;&gt;n12</title>
<path fill="none" stroke="black" d="M1564,-121.81C1564,-102.11 1564,-69.58 1564,-46.39"/>
<polygon fill="black" stroke="black" points="1567.5,-46.16 1564,-36.16 1560.5,-46.16 1567.5,-46.16"/>
</g>
</g>
</svg>
