<?xml version="1.0" encoding="UTF-8" standalone="no"?>
<!DOCTYPE svg PUBLIC "-//W3C//DTD SVG 1.1//EN"
 "http://www.w3.org/Graphics/SVG/1.1/DTD/svg11.dtd">
<!-- Generated by graphviz version 2.43.0 (0)
 -->
<!-- Pages: 1 -->
<svg width="1862pt" height="410pt"
 viewBox="0.00 0.00 1861.50 410.00" xmlns="http://www.w3.org/2000/svg" xmlns:xlink="http://www.w3.org/1999/xlink">
<g id="graph0" class="graph" transform="scale(1 1) rotate(0) translate(4 406)">
<polygon fill="white" stroke="transparent" points="-4,4 -4,-406 1857.5,-406 1857.5,4 -4,4"/>
<!-- n1 -->
<g id="node1" class="node">
<title>n1</title>
<polygon fill="lightblue" stroke="black" points="1277.5,-384 1165.25,-402 940.75,-402 828.5,-384 940.75,-366 1165.25,-366 1277.5,-384"/>
<text text-anchor="middle" x="1053" y="-380.3" font-family="Arial" font-size="14.00">Illustrate plants with and without water and light</text>
</g>
<!-- n2 -->
<g id="node2" class="node">
<title>n2</title>
<polygon fill="#fffdd0" stroke="black" points="412.54,-280 277.54,-280 277.54,-244 412.54,-244 412.54,-280"/>
<text text-anchor="middle" x="345.04" y="-258.3" font-family="Arial" font-size="14.00">Four plants in a row</text>
</g>
<!-- n1&#45;&gt;n2 -->
<g id="edge1" class="edge">
<title>n1&#45;&gt;n2</title>
<path fill="none" stroke="black" d="M952.73,-366C810.29,-341.86 552.41,-298.15 423.22,-276.25"/>
<polygon fill="black" stroke="black" points="423.47,-272.74 413.02,-274.52 422.29,-279.64 423.47,-272.74"/>
</g>
<!-- n3 -->
<g id="node3" class="node">
<title>n3</title>
<polygon fill="#fffdd0" stroke="black" points="878.54,-280 543.54,-280 543.54,-244 878.54,-244 878.54,-280"/>
<text text-anchor="middle" x="711.04" y="-258.3" font-family="Arial" font-size="14.00">First plant tall and healthy, &#39;Plenty of Water and Light&#39;</text>
</g>
<!-- n1&#45;&gt;n3 -->
<g id="edge2" class="edge">
<title>n1&#45;&gt;n3</title>
<path fill="none" stroke="black" d="M1004.4,-365.93C942.36,-344.16 835.17,-306.56 768.97,-283.33"/>
<polygon fill="black" stroke="black" points="770.11,-280.02 759.51,-280.01 767.79,-286.62 770.11,-280.02"/>
</g>
<!-- n4 -->
<g id="node4" class="node">
<title>n4</title>
<polygon fill="#fffdd0" stroke="black" points="1169.5,-280 936.5,-280 936.5,-244 1169.5,-244 1169.5,-280"/>
<text text-anchor="middle" x="1053" y="-258.3" font-family="Arial" font-size="14.00">Second plant wilted, &#39;Without Water&#39;</text>
</g>
<!-- n1&#45;&gt;n4 -->
<g id="edge3" class="edge">
<title>n1&#45;&gt;n4</title>
<path fill="none" stroke="black" d="M1053,-365.81C1053,-346.11 1053,-313.58 1053,-290.39"/>
<polygon fill="black" stroke="black" points="1056.5,-290.16 1053,-280.16 1049.5,-290.16 1056.5,-290.16"/>
</g>
<!-- n5 -->
<g id="node5" class="node">
<title>n5</title>
<polygon fill="#fffdd0" stroke="black" points="1430.5,-280 1227.5,-280 1227.5,-244 1430.5,-244 1430.5,-280"/>
<text text-anchor="middle" x="1329" y="-258.3" font-family="Arial" font-size="14.00">Third plant pale, &#39;Without Light&#39;</text>
</g>
<!-- n1&#45;&gt;n5 -->
<g id="edge4" class="edge">
<title>n1&#45;&gt;n5</title>
<path fill="none" stroke="black" d="M1092.3,-365.93C1141.9,-344.39 1227.1,-307.32 1280.6,-284.04"/>
<polygon fill="black" stroke="black" points="1282.12,-287.2 1289.9,-280.01 1279.33,-280.77 1282.12,-287.2"/>
</g>
<!-- n6 -->
<g id="node6" class="node">
<title>n6</title>
<polygon fill="#fffdd0" stroke="black" points="1853.5,-280 1488.5,-280 1488.5,-244 1853.5,-244 1853.5,-280"/>
<text text-anchor="middle" x="1671" y="-258.3" font-family="Arial" font-size="14.00">Fourth plant small and withered, &#39;Without Water and Light&#39;</text>
</g>
<!-- n1&#45;&gt;n6 -->
<g id="edge5" class="edge">
<title>n1&#45;&gt;n6</title>
<path fill="none" stroke="black" d="M1140.6,-366C1254.9,-343.8 1454.5,-305.05 1573.5,-281.94"/>
<polygon fill="black" stroke="black" points="1574.24,-285.36 1583.4,-280.03 1572.92,-278.49 1574.24,-285.36"/>
</g>
<!-- n11 -->
<g id="node7" class="node">
<title>n11</title>
<polygon fill="lightcoral" stroke="black" points="261.04,-158 -0.04,-140 261.04,-122 522.12,-140 261.04,-158"/>
<text text-anchor="middle" x="261.04" y="-136.3" font-family="Arial" font-size="14.00">Missing arrows and labels causing confusion</text>
</g>
<!-- n2&#45;&gt;n11 -->
<g id="edge6" class="edge">
<title>n2&#45;&gt;n11</title>
<path fill="none" stroke="black" d="M333.01,-243.81C318.69,-223.35 294.67,-189.04 278.35,-165.73"/>
<polygon fill="black" stroke="black" points="281.11,-163.57 272.51,-157.39 275.38,-167.59 281.11,-163.57"/>
</g>
<!-- n7 -->
<g id="node8" class="node">
<title>n7</title>
<path fill="palegreen" stroke="black" d="M848.04,-158C848.04,-158 592.04,-158 592.04,-158 586.04,-158 580.04,-152 580.04,-146 580.04,-146 580.04,-134 580.04,-134 580.04,-128 586.04,-122 592.04,-122 592.04,-122 848.04,-122 848.04,-122 854.04,-122 860.04,-128 860.04,-134 860.04,-134 860.04,-146 860.04,-146 860.04,-152 854.04,-158 848.04,-158"/>
<text text-anchor="middle" x="720.04" y="-136.3" font-family="Arial" font-size="14.00">Recognizes plant health with water and light</text>
</g>
<!-- n3&#45;&gt;n7 -->
<g id="edge7" class="edge">
<title>n3&#45;&gt;n7</title>
<path fill="none" stroke="black" d="M712.33,-243.81C713.81,-224.11 716.25,-191.58 717.99,-168.39"/>
<polygon fill="black" stroke="black" points="721.5,-168.39 718.75,-158.16 714.52,-167.87 721.5,-168.39"/>
</g>
<!-- n8 -->
<g id="node9" class="node">
<title>n8</title>
<path fill="palegreen" stroke="black" d="M1134,-158C1134,-158 940,-158 940,-158 934,-158 928,-152 928,-146 928,-146 928,-134 928,-134 928,-128 934,-122 940,-122 940,-122 1134,-122 1134,-122 1140,-122 1146,-128 1146,-134 1146,-134 1146,-146 1146,-146 1146,-152 1140,-158 1134,-158"/>
<text text-anchor="middle" x="1037" y="-136.3" font-family="Arial" font-size="14.00">Understands wilting without water</text>
</g>
<!-- n4&#45;&gt;n8 -->
<g id="edge8" class="edge">
<title>n4&#45;&gt;n8</title>
<path fill="none" stroke="black" d="M1050.7,-243.81C1048.1,-224.02 1043.7,-191.29 1040.7,-168.08"/>
<polygon fill="black" stroke="black" points="1044.16,-167.57 1039.3,-158.16 1037.23,-168.55 1044.16,-167.57"/>
</g>
<!-- n9 -->
<g id="node10" class="node">
<title>n9</title>
<path fill="palegreen" stroke="black" d="M1445.5,-158C1445.5,-158 1216.5,-158 1216.5,-158 1210.5,-158 1204.5,-152 1204.5,-146 1204.5,-146 1204.5,-134 1204.5,-134 1204.5,-128 1210.5,-122 1216.5,-122 1216.5,-122 1445.5,-122 1445.5,-122 1451.5,-122 1457.5,-128 1457.5,-134 1457.5,-134 1457.5,-146 1457.5,-146 1457.5,-152 1451.5,-158 1445.5,-158"/>
<text text-anchor="middle" x="1331" y="-136.3" font-family="Arial" font-size="14.00">Recognizes unhealthy look without light</text>
</g>
<!-- n5&#45;&gt;n9 -->
<g id="edge9" class="edge">
<title>n5&#45;&gt;n9</title>
<path fill="none" stroke="black" d="M1329.3,-243.81C1329.7,-224.11 1330.2,-191.58 1330.6,-168.39"/>
<polygon fill="black" stroke="black" points="1334.1,-168.23 1330.8,-158.16 1327.11,-168.09 1334.1,-168.23"/>
</g>
<!-- n10 -->
<g id="node11" class="node">
<title>n10</title>
<path fill="palegreen" stroke="black" d="M1813.5,-158C1813.5,-158 1528.5,-158 1528.5,-158 1522.5,-158 1516.5,-152 1516.5,-146 1516.5,-146 1516.5,-134 1516.5,-134 1516.5,-128 1522.5,-122 1528.5,-122 1528.5,-122 1813.5,-122 1813.5,-122 1819.5,-122 1825.5,-128 1825.5,-134 1825.5,-134 1825.5,-146 1825.5,-146 1825.5,-152 1819.5,-158 1813.5,-158"/>
<text text-anchor="middle" x="1671" y="-136.3" font-family="Arial" font-size="14.00">Understands both factors needed for plant health</text>
</g>
<!-- n6&#45;&gt;n10 -->
<g id="edge10" class="edge">
<title>n6&#45;&gt;n10</title>
<path fill="none" stroke="black" d="M1671,-243.81C1671,-224.11 1671,-191.58 1671,-168.39"/>
<polygon fill="black" stroke="black" points="1674.5,-168.16 1671,-158.16 1667.5,-168.16 1674.5,-168.16"/>
</g>
<!-- n12 -->
<g id="node12" class="node">
<title>n12</title>
<polygon fill="#f28e8e" stroke="black" points="390.54,-36 131.54,-36 131.54,0 390.54,0 390.54,-36"/>
<text text-anchor="middle" x="261.04" y="-14.3" font-family="Arial" font-size="14.00">Add missing arrows and labels for clarity</text>
</g>
<!-- n11&#45;&gt;n12 -->
<g id="edge11" class="edge">
<title>n11&#45;&gt;n12</title>
<path fill="none" stroke="black" d="M261.04,-121.81C261.04,-102.11 261.04,-69.58 261.04,-46.39"/>
<polygon fill="black" stroke="black" points="264.54,-46.16 261.04,-36.16 257.54,-46.16 264.54,-46.16"/>
</g>
</g>
</svg>
