<?xml version="1.0" encoding="UTF-8" standalone="no"?>
<!DOCTYPE svg PUBLIC "-//W3C//DTD SVG 1.1//EN"
 "http://www.w3.org/Graphics/SVG/1.1/DTD/svg11.dtd">
<!-- Generated by graphviz version 2.43.0 (0)
 -->
<!-- Pages: 1 -->
<svg width="1414pt" height="288pt"
 viewBox="0.00 0.00 1413.50 288.00" xmlns="http://www.w3.org/2000/svg" xmlns:xlink="http://www.w3.org/1999/xlink">
<g id="graph0" class="graph" transform="scale(1 1) rotate(0) translate(4 284)">
<polygon fill="white" stroke="transparent" points="-4,4 -4,-284 1409.5,-284 1409.5,4 -4,4"/>
<!-- n0 -->
<g id="node1" class="node">
<title>n0</title>
<polygon fill="lightblue" stroke="black" points="940,-262 828.5,-280 605.5,-280 494,-262 605.5,-244 828.5,-244 940,-262"/>
<text text-anchor="middle" x="717" y="-258.3" font-family="Arial" font-size="14.00">Draw a string telephone between two students.</text>
</g>
<!-- n1 -->
<g id="node2" class="node">
<title>n1</title>
<polygon fill="#fffdd0" stroke="black" points="324,-158 0,-158 0,-122 324,-122 324,-158"/>
<text text-anchor="middle" x="162" y="-136.3" font-family="Arial" font-size="14.00">Two students standing apart with a string telephone</text>
</g>
<!-- n0&#45;&gt;n1 -->
<g id="edge1" class="edge">
<title>n0&#45;&gt;n1</title>
<path fill="none" stroke="black" d="M638.37,-244C536,-221.87 357.58,-183.29 250.56,-160.15"/>
<polygon fill="black" stroke="black" points="251.26,-156.72 240.75,-158.03 249.79,-163.56 251.26,-156.72"/>
</g>
<!-- n2 -->
<g id="node3" class="node">
<title>n2</title>
<polygon fill="#fffdd0" stroke="black" points="728,-158 382,-158 382,-122 728,-122 728,-158"/>
<text text-anchor="middle" x="555" y="-136.3" font-family="Arial" font-size="14.00">Arrows along the string indicating sound wave direction</text>
</g>
<!-- n0&#45;&gt;n2 -->
<g id="edge2" class="edge">
<title>n0&#45;&gt;n2</title>
<path fill="none" stroke="black" d="M693.79,-243.81C665.64,-222.96 618.06,-187.71 586.59,-164.4"/>
<polygon fill="black" stroke="black" points="588.29,-161.3 578.17,-158.16 584.12,-166.93 588.29,-161.3"/>
</g>
<!-- n3 -->
<g id="node4" class="node">
<title>n3</title>
<polygon fill="#fffdd0" stroke="black" points="971.5,-158 786.5,-158 786.5,-122 971.5,-122 971.5,-158"/>
<text text-anchor="middle" x="879" y="-136.3" font-family="Arial" font-size="14.00">Labels &#39;Tin Can&#39; and &#39;String&#39;</text>
</g>
<!-- n0&#45;&gt;n3 -->
<g id="edge3" class="edge">
<title>n0&#45;&gt;n3</title>
<path fill="none" stroke="black" d="M740.21,-243.81C768.36,-222.96 815.94,-187.71 847.41,-164.4"/>
<polygon fill="black" stroke="black" points="849.88,-166.93 855.83,-158.16 845.71,-161.3 849.88,-166.93"/>
</g>
<!-- n4 -->
<g id="node5" class="node">
<title>n4</title>
<polygon fill="#fffdd0" stroke="black" points="1362,-158 1058,-158 1058,-122 1362,-122 1362,-158"/>
<text text-anchor="middle" x="1210" y="-136.3" font-family="Arial" font-size="14.00">Background illustrates distance (trees, pathway)</text>
</g>
<!-- n0&#45;&gt;n4 -->
<g id="edge4" class="edge">
<title>n0&#45;&gt;n4</title>
<path fill="none" stroke="black" d="M786.85,-244C877.41,-221.95 1035,-183.6 1130.2,-160.43"/>
<polygon fill="black" stroke="black" points="1131.12,-163.81 1140,-158.03 1129.45,-157.01 1131.12,-163.81"/>
</g>
<!-- n5 -->
<g id="node6" class="node">
<title>n5</title>
<path fill="palegreen" stroke="black" d="M291,-36C291,-36 33,-36 33,-36 27,-36 21,-30 21,-24 21,-24 21,-12 21,-12 21,-6 27,0 33,0 33,0 291,0 291,0 297,0 303,-6 303,-12 303,-12 303,-24 303,-24 303,-30 297,-36 291,-36"/>
<text text-anchor="middle" x="162" y="-14.3" font-family="Arial" font-size="14.00">Depicts communication over a long distance</text>
</g>
<!-- n1&#45;&gt;n5 -->
<g id="edge5" class="edge">
<title>n1&#45;&gt;n5</title>
<path fill="none" stroke="black" d="M162,-121.81C162,-102.11 162,-69.58 162,-46.39"/>
<polygon fill="black" stroke="black" points="165.5,-46.16 162,-36.16 158.5,-46.16 165.5,-46.16"/>
</g>
<!-- n6 -->
<g id="node7" class="node">
<title>n6</title>
<path fill="palegreen" stroke="black" d="M676,-36C676,-36 404,-36 404,-36 398,-36 392,-30 392,-24 392,-24 392,-12 392,-12 392,-6 398,0 404,0 404,0 676,0 676,0 682,0 688,-6 688,-12 688,-12 688,-24 688,-24 688,-30 682,-36 676,-36"/>
<text text-anchor="middle" x="540" y="-14.3" font-family="Arial" font-size="14.00">Illustrates how sound travels through the string</text>
</g>
<!-- n2&#45;&gt;n6 -->
<g id="edge6" class="edge">
<title>n2&#45;&gt;n6</title>
<path fill="none" stroke="black" d="M552.85,-121.81C550.39,-102.11 546.32,-69.58 543.42,-46.39"/>
<polygon fill="black" stroke="black" points="546.86,-45.65 542.15,-36.16 539.91,-46.52 546.86,-45.65"/>
</g>
<!-- n7 -->
<g id="node8" class="node">
<title>n7</title>
<path fill="palegreen" stroke="black" d="M1000,-36C1000,-36 758,-36 758,-36 752,-36 746,-30 746,-24 746,-24 746,-12 746,-12 746,-6 752,0 758,0 758,0 1000,0 1000,0 1006,0 1012,-6 1012,-12 1012,-12 1012,-24 1012,-24 1012,-30 1006,-36 1000,-36"/>
<text text-anchor="middle" x="879" y="-14.3" font-family="Arial" font-size="14.00">Enhances understanding with clear labels</text>
</g>
<!-- n3&#45;&gt;n7 -->
<g id="edge7" class="edge">
<title>n3&#45;&gt;n7</title>
<path fill="none" stroke="black" d="M879,-121.81C879,-102.11 879,-69.58 879,-46.39"/>
<polygon fill="black" stroke="black" points="882.5,-46.16 879,-36.16 875.5,-46.16 882.5,-46.16"/>
</g>
<!-- n8 -->
<g id="node9" class="node">
<title>n8</title>
<path fill="palegreen" stroke="black" d="M1393.5,-36C1393.5,-36 1082.5,-36 1082.5,-36 1076.5,-36 1070.5,-30 1070.5,-24 1070.5,-24 1070.5,-12 1070.5,-12 1070.5,-6 1076.5,0 1082.5,0 1082.5,0 1393.5,0 1393.5,0 1399.5,0 1405.5,-6 1405.5,-12 1405.5,-12 1405.5,-24 1405.5,-24 1405.5,-30 1399.5,-36 1393.5,-36"/>
<text text-anchor="middle" x="1238" y="-14.3" font-family="Arial" font-size="14.00">Shows practical use of string telephone over distance</text>
</g>
<!-- n4&#45;&gt;n8 -->
<g id="edge8" class="edge">
<title>n4&#45;&gt;n8</title>
<path fill="none" stroke="black" d="M1214,-121.81C1218.6,-102.02 1226.3,-69.29 1231.7,-46.08"/>
<polygon fill="black" stroke="black" points="1235.15,-46.69 1234,-36.16 1228.33,-45.11 1235.15,-46.69"/>
</g>
</g>
</svg>
