<?xml version="1.0" encoding="UTF-8" standalone="no"?>
<!DOCTYPE svg PUBLIC "-//W3C//DTD SVG 1.1//EN"
 "http://www.w3.org/Graphics/SVG/1.1/DTD/svg11.dtd">
<!-- Generated by graphviz version 2.43.0 (0)
 -->
<!-- Pages: 1 -->
<svg width="1091pt" height="410pt"
 viewBox="0.00 0.00 1090.56 410.00" xmlns="http://www.w3.org/2000/svg" xmlns:xlink="http://www.w3.org/1999/xlink">
<g id="graph0" class="graph" transform="scale(1 1) rotate(0) translate(4 406)">
<polygon fill="white" stroke="transparent" points="-4,4 -4,-406 1086.56,-406 1086.56,4 -4,4"/>
<!-- n1 -->
<g id="node1" class="node">
<title>n1</title>
<polygon fill="lightblue" stroke="black" points="506.5,-384 415.25,-402 232.75,-402 141.5,-384 232.75,-366 415.25,-366 506.5,-384"/>
<text text-anchor="middle" x="324" y="-380.3" font-family="Arial" font-size="14.00">Draw reversible changes (ice melting)</text>
</g>
<!-- n2 -->
<g id="node2" class="node">
<title>n2</title>
<polygon fill="#fffdd0" stroke="black" points="153.5,-280 44.5,-280 44.5,-244 153.5,-244 153.5,-280"/>
<text text-anchor="middle" x="99" y="-258.3" font-family="Arial" font-size="14.00">Ice labeled &#39;ice&#39;</text>
</g>
<!-- n1&#45;&gt;n2 -->
<g id="edge1" class="edge">
<title>n1&#45;&gt;n2</title>
<path fill="none" stroke="black" d="M291.76,-365.81C251.83,-344.51 183.75,-308.2 140.1,-284.92"/>
<polygon fill="black" stroke="black" points="141.65,-281.78 131.18,-280.16 138.35,-287.96 141.65,-281.78"/>
</g>
<!-- n3 -->
<g id="node3" class="node">
<title>n3</title>
<polygon fill="#fffdd0" stroke="black" points="422.5,-280 225.5,-280 225.5,-244 422.5,-244 422.5,-280"/>
<text text-anchor="middle" x="324" y="-258.3" font-family="Arial" font-size="14.00">Wavy lines representing water</text>
</g>
<!-- n1&#45;&gt;n3 -->
<g id="edge2" class="edge">
<title>n1&#45;&gt;n3</title>
<path fill="none" stroke="black" d="M324,-365.81C324,-346.11 324,-313.58 324,-290.39"/>
<polygon fill="black" stroke="black" points="327.5,-290.16 324,-280.16 320.5,-290.16 327.5,-290.16"/>
</g>
<!-- n4 -->
<g id="node4" class="node">
<title>n4</title>
<polygon fill="#fffdd0" stroke="black" points="758.5,-280 531.5,-280 531.5,-244 758.5,-244 758.5,-280"/>
<text text-anchor="middle" x="645" y="-258.3" font-family="Arial" font-size="14.00">Downward arrow indicating melting</text>
</g>
<!-- n1&#45;&gt;n4 -->
<g id="edge3" class="edge">
<title>n1&#45;&gt;n4</title>
<path fill="none" stroke="black" d="M369.65,-365.93C427.65,-344.25 527.66,-306.86 589.86,-283.61"/>
<polygon fill="black" stroke="black" points="591.36,-286.78 599.51,-280.01 588.92,-280.23 591.36,-286.78"/>
</g>
<!-- n5 -->
<g id="node5" class="node">
<title>n5</title>
<path fill="palegreen" stroke="black" d="M158,-158C158,-158 12,-158 12,-158 6,-158 0,-152 0,-146 0,-146 0,-134 0,-134 0,-128 6,-122 12,-122 12,-122 158,-122 158,-122 164,-122 170,-128 170,-134 170,-134 170,-146 170,-146 170,-152 164,-158 158,-158"/>
<text text-anchor="middle" x="85" y="-136.3" font-family="Arial" font-size="14.00">Ice as solid form (correct)</text>
</g>
<!-- n2&#45;&gt;n5 -->
<g id="edge4" class="edge">
<title>n2&#45;&gt;n5</title>
<path fill="none" stroke="black" d="M96.99,-243.81C94.7,-224.11 90.9,-191.58 88.19,-168.39"/>
<polygon fill="black" stroke="black" points="91.64,-167.69 87,-158.16 84.68,-168.5 91.64,-167.69"/>
</g>
<!-- n6 -->
<g id="node6" class="node">
<title>n6</title>
<path fill="palegreen" stroke="black" d="M407.5,-158C407.5,-158 240.5,-158 240.5,-158 234.5,-158 228.5,-152 228.5,-146 228.5,-146 228.5,-134 228.5,-134 228.5,-128 234.5,-122 240.5,-122 240.5,-122 407.5,-122 407.5,-122 413.5,-122 419.5,-128 419.5,-134 419.5,-134 419.5,-146 419.5,-146 419.5,-152 413.5,-158 407.5,-158"/>
<text text-anchor="middle" x="324" y="-136.3" font-family="Arial" font-size="14.00">Water as liquid form (correct)</text>
</g>
<!-- n3&#45;&gt;n6 -->
<g id="edge5" class="edge">
<title>n3&#45;&gt;n6</title>
<path fill="none" stroke="black" d="M324,-243.81C324,-224.11 324,-191.58 324,-168.39"/>
<polygon fill="black" stroke="black" points="327.5,-168.16 324,-158.16 320.5,-168.16 327.5,-168.16"/>
</g>
<!-- n7 -->
<g id="node7" class="node">
<title>n7</title>
<polygon fill="lightcoral" stroke="black" points="697,-158 477.14,-140 697,-122 916.86,-140 697,-158"/>
<text text-anchor="middle" x="697" y="-136.3" font-family="Arial" font-size="14.00">Focus on one&#45;way change (incorrect)</text>
</g>
<!-- n4&#45;&gt;n7 -->
<g id="edge6" class="edge">
<title>n4&#45;&gt;n7</title>
<path fill="none" stroke="black" d="M652.45,-243.81C661.15,-223.73 675.63,-190.32 685.71,-167.06"/>
<polygon fill="black" stroke="black" points="688.97,-168.34 689.73,-157.77 682.55,-165.56 688.97,-168.34"/>
</g>
<!-- n9 -->
<g id="node8" class="node">
<title>n9</title>
<polygon fill="#f28e8e" stroke="black" points="845,-36 549,-36 549,0 845,0 845,-36"/>
<text text-anchor="middle" x="697" y="-14.3" font-family="Arial" font-size="14.00">Include refreezing process to show reversibility</text>
</g>
<!-- n7&#45;&gt;n9 -->
<g id="edge7" class="edge">
<title>n7&#45;&gt;n9</title>
<path fill="none" stroke="black" d="M697,-121.81C697,-102.11 697,-69.58 697,-46.39"/>
<polygon fill="black" stroke="black" points="700.5,-46.16 697,-36.16 693.5,-46.16 700.5,-46.16"/>
</g>
<!-- n8 -->
<g id="node9" class="node">
<title>n8</title>
<polygon fill="lightcoral" stroke="black" points="907,-402 731.38,-384 907,-366 1082.62,-384 907,-402"/>
<text text-anchor="middle" x="907" y="-380.3" font-family="Arial" font-size="14.00">No refreezing process shown</text>
</g>
<!-- n10 -->
<g id="node10" class="node">
<title>n10</title>
<polygon fill="#f28e8e" stroke="black" points="997,-280 817,-280 817,-244 997,-244 997,-280"/>
<text text-anchor="middle" x="907" y="-258.3" font-family="Arial" font-size="14.00">Add cause/effect of heating</text>
</g>
<!-- n8&#45;&gt;n10 -->
<g id="edge8" class="edge">
<title>n8&#45;&gt;n10</title>
<path fill="none" stroke="black" d="M907,-365.81C907,-346.11 907,-313.58 907,-290.39"/>
<polygon fill="black" stroke="black" points="910.5,-290.16 907,-280.16 903.5,-290.16 910.5,-290.16"/>
</g>
</g>
</svg>
