<?xml version="1.0" encoding="UTF-8" standalone="no"?>
<!DOCTYPE svg PUBLIC "-//W3C//DTD SVG 1.1//EN"
 "http://www.w3.org/Graphics/SVG/1.1/DTD/svg11.dtd">
<!-- Generated by graphviz version 2.43.0 (0)
 -->
<!-- Pages: 1 -->
<svg width="1359pt" height="410pt"
 viewBox="0.00 0.00 1359.00 410.00" xmlns="http://www.w3.org/2000/svg" xmlns:xlink="http://www.w3.org/1999/xlink">
<g id="graph0" class="graph" transform="scale(1 1) rotate(0) translate(4 406)">
<polygon fill="white" stroke="transparent" points="-4,4 -4,-406 1355,-406 1355,4 -4,4"/>
<!-- n1 -->
<g id="node1" class="node">
<title>n1</title>
<polygon fill="lightblue" stroke="black" points="760.5,-384 646.75,-402 419.25,-402 305.5,-384 419.25,-366 646.75,-366 760.5,-384"/>
<text text-anchor="middle" x="533" y="-380.3" font-family="Arial" font-size="14.00">Illustrate plants with and without water and light.</text>
</g>
<!-- n2 -->
<g id="node2" class="node">
<title>n2</title>
<polygon fill="#fffdd0" stroke="black" points="337.5,-280 70.5,-280 70.5,-244 337.5,-244 337.5,-280"/>
<text text-anchor="middle" x="204" y="-258.3" font-family="Arial" font-size="14.00">Healthy plant with enough water and light.</text>
</g>
<!-- n1&#45;&gt;n2 -->
<g id="edge1" class="edge">
<title>n1&#45;&gt;n2</title>
<path fill="none" stroke="black" d="M486.21,-365.93C426.65,-344.21 323.84,-306.71 260.12,-283.47"/>
<polygon fill="black" stroke="black" points="261.22,-280.15 250.63,-280.01 258.83,-286.72 261.22,-280.15"/>
</g>
<!-- n3 -->
<g id="node3" class="node">
<title>n3</title>
<polygon fill="#fffdd0" stroke="black" points="642,-280 424,-280 424,-244 642,-244 642,-280"/>
<text text-anchor="middle" x="533" y="-258.3" font-family="Arial" font-size="14.00">Plant without water, wilted leaves.</text>
</g>
<!-- n1&#45;&gt;n3 -->
<g id="edge2" class="edge">
<title>n1&#45;&gt;n3</title>
<path fill="none" stroke="black" d="M533,-365.81C533,-346.11 533,-313.58 533,-290.39"/>
<polygon fill="black" stroke="black" points="536.5,-290.16 533,-280.16 529.5,-290.16 536.5,-290.16"/>
</g>
<!-- n4 -->
<g id="node4" class="node">
<title>n4</title>
<polygon fill="#fffdd0" stroke="black" points="1115.5,-280 782.5,-280 782.5,-244 1115.5,-244 1115.5,-280"/>
<text text-anchor="middle" x="949" y="-258.3" font-family="Arial" font-size="14.00">Plant without light, sagging stem, less vibrant leaves.</text>
</g>
<!-- n1&#45;&gt;n4 -->
<g id="edge3" class="edge">
<title>n1&#45;&gt;n4</title>
<path fill="none" stroke="black" d="M592.16,-365.93C668.1,-344.03 799.61,-306.09 880.02,-282.9"/>
<polygon fill="black" stroke="black" points="881.4,-286.14 890.04,-280.01 879.46,-279.42 881.4,-286.14"/>
</g>
<!-- n5 -->
<g id="node5" class="node">
<title>n5</title>
<path fill="palegreen" stroke="black" d="M340,-158C340,-158 12,-158 12,-158 6,-158 0,-152 0,-146 0,-146 0,-134 0,-134 0,-128 6,-122 12,-122 12,-122 340,-122 340,-122 346,-122 352,-128 352,-134 352,-134 352,-146 352,-146 352,-152 346,-158 340,-158"/>
<text text-anchor="middle" x="176" y="-136.3" font-family="Arial" font-size="14.00">Understands plants need water and light to stay healthy.</text>
</g>
<!-- n2&#45;&gt;n5 -->
<g id="edge4" class="edge">
<title>n2&#45;&gt;n5</title>
<path fill="none" stroke="black" d="M199.99,-243.81C195.37,-224.02 187.73,-191.29 182.32,-168.08"/>
<polygon fill="black" stroke="black" points="185.69,-167.1 180,-158.16 178.87,-168.69 185.69,-167.1"/>
</g>
<!-- n6 -->
<g id="node6" class="node">
<title>n6</title>
<path fill="palegreen" stroke="black" d="M643.5,-158C643.5,-158 422.5,-158 422.5,-158 416.5,-158 410.5,-152 410.5,-146 410.5,-146 410.5,-134 410.5,-134 410.5,-128 416.5,-122 422.5,-122 422.5,-122 643.5,-122 643.5,-122 649.5,-122 655.5,-128 655.5,-134 655.5,-134 655.5,-146 655.5,-146 655.5,-152 649.5,-158 643.5,-158"/>
<text text-anchor="middle" x="533" y="-136.3" font-family="Arial" font-size="14.00">Understands no water leads to wilting.</text>
</g>
<!-- n3&#45;&gt;n6 -->
<g id="edge5" class="edge">
<title>n3&#45;&gt;n6</title>
<path fill="none" stroke="black" d="M533,-243.81C533,-224.11 533,-191.58 533,-168.39"/>
<polygon fill="black" stroke="black" points="536.5,-168.16 533,-158.16 529.5,-168.16 536.5,-168.16"/>
</g>
<!-- n7 -->
<g id="node7" class="node">
<title>n7</title>
<polygon fill="lightcoral" stroke="black" points="1032,-158 713,-140 1032,-122 1351,-140 1032,-158"/>
<text text-anchor="middle" x="1032" y="-136.3" font-family="Arial" font-size="14.00">Misunderstands effects of no light (not fully expressed).</text>
</g>
<!-- n4&#45;&gt;n7 -->
<g id="edge6" class="edge">
<title>n4&#45;&gt;n7</title>
<path fill="none" stroke="black" d="M960.89,-243.81C975.04,-223.35 998.77,-189.04 1014.9,-165.73"/>
<polygon fill="black" stroke="black" points="1017.86,-167.6 1020.7,-157.39 1012.12,-163.6 1017.86,-167.6"/>
</g>
<!-- n8 -->
<g id="node8" class="node">
<title>n8</title>
<polygon fill="#f28e8e" stroke="black" points="1229.5,-36 834.5,-36 834.5,0 1229.5,0 1229.5,-36"/>
<text text-anchor="middle" x="1032" y="-14.3" font-family="Arial" font-size="14.00">Explain differences between no light and no water more clearly.</text>
</g>
<!-- n7&#45;&gt;n8 -->
<g id="edge7" class="edge">
<title>n7&#45;&gt;n8</title>
<path fill="none" stroke="black" d="M1032,-121.81C1032,-102.11 1032,-69.58 1032,-46.39"/>
<polygon fill="black" stroke="black" points="1035.5,-46.16 1032,-36.16 1028.5,-46.16 1035.5,-46.16"/>
</g>
</g>
</svg>
