<?xml version="1.0" encoding="UTF-8" standalone="no"?>
<!DOCTYPE svg PUBLIC "-//W3C//DTD SVG 1.1//EN"
 "http://www.w3.org/Graphics/SVG/1.1/DTD/svg11.dtd">
<!-- Generated by graphviz version 2.43.0 (0)
 -->
<!-- Pages: 1 -->
<svg width="960pt" height="288pt"
 viewBox="0.00 0.00 959.50 288.00" xmlns="http://www.w3.org/2000/svg" xmlns:xlink="http://www.w3.org/1999/xlink">
<g id="graph0" class="graph" transform="scale(1 1) rotate(0) translate(4 284)">
<polygon fill="white" stroke="transparent" points="-4,4 -4,-284 955.5,-284 955.5,4 -4,4"/>
<!-- n1 -->
<g id="node1" class="node">
<title>n1</title>
<polygon fill="lightblue" stroke="black" points="741.37,-262 600.18,-280 317.82,-280 176.63,-262 317.82,-244 600.18,-244 741.37,-262"/>
<text text-anchor="middle" x="459" y="-258.3" font-family="Arial" font-size="14.00">Draw animals in their habitats with labels (e.g., fish in water)</text>
</g>
<!-- n2 -->
<g id="node2" class="node">
<title>n2</title>
<polygon fill="#fffdd0" stroke="black" points="441.5,-158 190.5,-158 190.5,-122 441.5,-122 441.5,-158"/>
<text text-anchor="middle" x="316" y="-136.3" font-family="Arial" font-size="14.00">An ocean with fish, seaweed, coral reef</text>
</g>
<!-- n1&#45;&gt;n2 -->
<g id="edge1" class="edge">
<title>n1&#45;&gt;n2</title>
<path fill="none" stroke="black" d="M438.51,-243.81C413.77,-223.04 372.02,-188.01 344.24,-164.7"/>
<polygon fill="black" stroke="black" points="346.36,-161.91 336.45,-158.16 341.86,-167.27 346.36,-161.91"/>
</g>
<!-- n3 -->
<g id="node3" class="node">
<title>n3</title>
<polygon fill="#fffdd0" stroke="black" points="706,-158 500,-158 500,-122 706,-122 706,-158"/>
<text text-anchor="middle" x="603" y="-136.3" font-family="Arial" font-size="14.00">A desert with cactus, lizard, sun</text>
</g>
<!-- n1&#45;&gt;n3 -->
<g id="edge2" class="edge">
<title>n1&#45;&gt;n3</title>
<path fill="none" stroke="black" d="M479.63,-243.81C504.55,-223.04 546.59,-188.01 574.56,-164.7"/>
<polygon fill="black" stroke="black" points="576.97,-167.25 582.41,-158.16 572.49,-161.87 576.97,-167.25"/>
</g>
<!-- n4 -->
<g id="node4" class="node">
<title>n4</title>
<path fill="palegreen" stroke="black" d="M140,-36C140,-36 12,-36 12,-36 6,-36 0,-30 0,-24 0,-24 0,-12 0,-12 0,-6 6,0 12,0 12,0 140,0 140,0 146,0 152,-6 152,-12 152,-12 152,-24 152,-24 152,-30 146,-36 140,-36"/>
<text text-anchor="middle" x="76" y="-14.3" font-family="Arial" font-size="14.00">Fish need water to live</text>
</g>
<!-- n2&#45;&gt;n4 -->
<g id="edge3" class="edge">
<title>n2&#45;&gt;n4</title>
<path fill="none" stroke="black" d="M281.87,-121.93C239.04,-100.52 165.57,-63.78 118.96,-40.48"/>
<polygon fill="black" stroke="black" points="120.52,-37.35 110.01,-36.01 117.39,-43.61 120.52,-37.35"/>
</g>
<!-- n5 -->
<g id="node5" class="node">
<title>n5</title>
<path fill="palegreen" stroke="black" d="M419.5,-36C419.5,-36 222.5,-36 222.5,-36 216.5,-36 210.5,-30 210.5,-24 210.5,-24 210.5,-12 210.5,-12 210.5,-6 216.5,0 222.5,0 222.5,0 419.5,0 419.5,0 425.5,0 431.5,-6 431.5,-12 431.5,-12 431.5,-24 431.5,-24 431.5,-30 425.5,-36 419.5,-36"/>
<text text-anchor="middle" x="321" y="-14.3" font-family="Arial" font-size="14.00">Predator&#45;prey relationships shown</text>
</g>
<!-- n2&#45;&gt;n5 -->
<g id="edge4" class="edge">
<title>n2&#45;&gt;n5</title>
<path fill="none" stroke="black" d="M316.72,-121.81C317.54,-102.11 318.89,-69.58 319.86,-46.39"/>
<polygon fill="black" stroke="black" points="323.37,-46.3 320.28,-36.16 316.37,-46.01 323.37,-46.3"/>
</g>
<!-- n6 -->
<g id="node6" class="node">
<title>n6</title>
<path fill="palegreen" stroke="black" d="M684.5,-36C684.5,-36 511.5,-36 511.5,-36 505.5,-36 499.5,-30 499.5,-24 499.5,-24 499.5,-12 499.5,-12 499.5,-6 505.5,0 511.5,0 511.5,0 684.5,0 684.5,0 690.5,0 696.5,-6 696.5,-12 696.5,-12 696.5,-24 696.5,-24 696.5,-30 690.5,-36 684.5,-36"/>
<text text-anchor="middle" x="598" y="-14.3" font-family="Arial" font-size="14.00">Lizard needs water and shade</text>
</g>
<!-- n3&#45;&gt;n6 -->
<g id="edge5" class="edge">
<title>n3&#45;&gt;n6</title>
<path fill="none" stroke="black" d="M602.28,-121.81C601.46,-102.11 600.11,-69.58 599.14,-46.39"/>
<polygon fill="black" stroke="black" points="602.63,-46.01 598.72,-36.16 595.63,-46.3 602.63,-46.01"/>
</g>
<!-- n7 -->
<g id="node7" class="node">
<title>n7</title>
<path fill="palegreen" stroke="black" d="M939.5,-36C939.5,-36 766.5,-36 766.5,-36 760.5,-36 754.5,-30 754.5,-24 754.5,-24 754.5,-12 754.5,-12 754.5,-6 760.5,0 766.5,0 766.5,0 939.5,0 939.5,0 945.5,0 951.5,-6 951.5,-12 951.5,-12 951.5,-24 951.5,-24 951.5,-30 945.5,-36 939.5,-36"/>
<text text-anchor="middle" x="853" y="-14.3" font-family="Arial" font-size="14.00">Climate effect representations</text>
</g>
<!-- n3&#45;&gt;n7 -->
<g id="edge6" class="edge">
<title>n3&#45;&gt;n7</title>
<path fill="none" stroke="black" d="M638.55,-121.93C683.26,-100.48 760.02,-63.63 808.55,-40.34"/>
<polygon fill="black" stroke="black" points="810.07,-43.49 817.57,-36.01 807.04,-37.18 810.07,-43.49"/>
</g>
</g>
</svg>
