<?xml version="1.0" encoding="UTF-8" standalone="no"?>
<!DOCTYPE svg PUBLIC "-//W3C//DTD SVG 1.1//EN"
 "http://www.w3.org/Graphics/SVG/1.1/DTD/svg11.dtd">
<!-- Generated by graphviz version 2.43.0 (0)
 -->
<!-- Pages: 1 -->
<svg width="2054pt" height="410pt"
 viewBox="0.00 0.00 2053.50 410.00" xmlns="http://www.w3.org/2000/svg" xmlns:xlink="http://www.w3.org/1999/xlink">
<g id="graph0" class="graph" transform="scale(1 1) rotate(0) translate(4 406)">
<polygon fill="white" stroke="transparent" points="-4,4 -4,-406 2049.5,-406 2049.5,4 -4,4"/>
<!-- n1 -->
<g id="node1" class="node">
<title>n1</title>
<polygon fill="lightblue" stroke="black" points="904.82,-384 782.41,-402 537.59,-402 415.18,-384 537.59,-366 782.41,-366 904.82,-384"/>
<text text-anchor="middle" x="660" y="-380.3" font-family="Arial" font-size="14.00">Draw a habitat and the different living things in each</text>
</g>
<!-- n2 -->
<g id="node2" class="node">
<title>n2</title>
<polygon fill="#fffdd0" stroke="black" points="278,-280 0,-280 0,-244 278,-244 278,-280"/>
<text text-anchor="middle" x="139" y="-258.3" font-family="Arial" font-size="14.00">Large tree with a brown trunk and green top</text>
</g>
<!-- n1&#45;&gt;n2 -->
<g id="edge1" class="edge">
<title>n1&#45;&gt;n2</title>
<path fill="none" stroke="black" d="M586.18,-366C490.28,-343.91 323.27,-305.44 222.74,-282.29"/>
<polygon fill="black" stroke="black" points="223.45,-278.86 212.92,-280.03 221.88,-285.68 223.45,-278.86"/>
</g>
<!-- n3 -->
<g id="node3" class="node">
<title>n3</title>
<polygon fill="#fffdd0" stroke="black" points="660,-280 336,-280 336,-244 660,-244 660,-280"/>
<text text-anchor="middle" x="498" y="-258.3" font-family="Arial" font-size="14.00">Simplistic grass represented by a green bumpy line</text>
</g>
<!-- n1&#45;&gt;n3 -->
<g id="edge2" class="edge">
<title>n1&#45;&gt;n3</title>
<path fill="none" stroke="black" d="M636.79,-365.81C608.64,-344.96 561.06,-309.71 529.59,-286.4"/>
<polygon fill="black" stroke="black" points="531.29,-283.3 521.17,-280.16 527.12,-288.93 531.29,-283.3"/>
</g>
<!-- n4 -->
<g id="node4" class="node">
<title>n4</title>
<polygon fill="#fffdd0" stroke="black" points="925.5,-280 718.5,-280 718.5,-244 925.5,-244 925.5,-280"/>
<text text-anchor="middle" x="822" y="-258.3" font-family="Arial" font-size="14.00">Animal figures: squirrel and bird</text>
</g>
<!-- n1&#45;&gt;n4 -->
<g id="edge3" class="edge">
<title>n1&#45;&gt;n4</title>
<path fill="none" stroke="black" d="M683.21,-365.81C711.36,-344.96 758.94,-309.71 790.41,-286.4"/>
<polygon fill="black" stroke="black" points="792.88,-288.93 798.83,-280.16 788.71,-283.3 792.88,-288.93"/>
</g>
<!-- n5 -->
<g id="node5" class="node">
<title>n5</title>
<polygon fill="#fffdd0" stroke="black" points="1212,-280 984,-280 984,-244 1212,-244 1212,-280"/>
<text text-anchor="middle" x="1098" y="-258.3" font-family="Arial" font-size="14.00">Fish incorrectly placed above grass</text>
</g>
<!-- n1&#45;&gt;n5 -->
<g id="edge4" class="edge">
<title>n1&#45;&gt;n5</title>
<path fill="none" stroke="black" d="M722.29,-365.93C802.49,-343.96 941.56,-305.86 1026.1,-282.69"/>
<polygon fill="black" stroke="black" points="1027.18,-286.02 1035.9,-280.01 1025.33,-279.27 1027.18,-286.02"/>
</g>
<!-- n6 -->
<g id="node6" class="node">
<title>n6</title>
<path fill="palegreen" stroke="black" d="M289,-158C289,-158 37,-158 37,-158 31,-158 25,-152 25,-146 25,-146 25,-134 25,-134 25,-128 31,-122 37,-122 37,-122 289,-122 289,-122 295,-122 301,-128 301,-134 301,-134 301,-146 301,-146 301,-152 295,-158 289,-158"/>
<text text-anchor="middle" x="163" y="-136.3" font-family="Arial" font-size="14.00">Understands basic elements of land habitat</text>
</g>
<!-- n2&#45;&gt;n6 -->
<g id="edge5" class="edge">
<title>n2&#45;&gt;n6</title>
<path fill="none" stroke="black" d="M142.44,-243.81C146.4,-224.02 152.94,-191.29 157.58,-168.08"/>
<polygon fill="black" stroke="black" points="161.03,-168.65 159.57,-158.16 154.17,-167.28 161.03,-168.65"/>
</g>
<!-- n3&#45;&gt;n6 -->
<g id="edge6" class="edge">
<title>n3&#45;&gt;n6</title>
<path fill="none" stroke="black" d="M450.36,-243.93C389.71,-222.21 285.02,-184.71 220.14,-161.47"/>
<polygon fill="black" stroke="black" points="221.07,-158.09 210.48,-158.01 218.71,-164.68 221.07,-158.09"/>
</g>
<!-- n7 -->
<g id="node7" class="node">
<title>n7</title>
<path fill="palegreen" stroke="black" d="M699,-158C699,-158 383,-158 383,-158 377,-158 371,-152 371,-146 371,-146 371,-134 371,-134 371,-128 377,-122 383,-122 383,-122 699,-122 699,-122 705,-122 711,-128 711,-134 711,-134 711,-146 711,-146 711,-152 705,-158 699,-158"/>
<text text-anchor="middle" x="541" y="-136.3" font-family="Arial" font-size="14.00">Understands different animals can be in a land habitat</text>
</g>
<!-- n4&#45;&gt;n7 -->
<g id="edge7" class="edge">
<title>n4&#45;&gt;n7</title>
<path fill="none" stroke="black" d="M782.04,-243.93C731.58,-222.39 644.79,-185.32 590.28,-162.04"/>
<polygon fill="black" stroke="black" points="591.39,-158.71 580.82,-158.01 588.65,-165.15 591.39,-158.71"/>
</g>
<!-- n9 -->
<g id="node8" class="node">
<title>n9</title>
<polygon fill="lightcoral" stroke="black" points="1086,-158 768.78,-140 1086,-122 1403.22,-140 1086,-158"/>
<text text-anchor="middle" x="1086" y="-136.3" font-family="Arial" font-size="14.00">Unable to show diversity and correct animal placement</text>
</g>
<!-- n4&#45;&gt;n9 -->
<g id="edge8" class="edge">
<title>n4&#45;&gt;n9</title>
<path fill="none" stroke="black" d="M859.54,-243.93C908.06,-221.88 992.32,-183.58 1043.2,-160.44"/>
<polygon fill="black" stroke="black" points="1044.65,-163.63 1052.3,-156.3 1041.75,-157.26 1044.65,-163.63"/>
</g>
<!-- n5&#45;&gt;n9 -->
<g id="edge9" class="edge">
<title>n5&#45;&gt;n9</title>
<path fill="none" stroke="black" d="M1096.3,-243.81C1094.3,-224.11 1091.1,-191.58 1088.7,-168.39"/>
<polygon fill="black" stroke="black" points="1092.16,-167.77 1087.7,-158.16 1085.19,-168.45 1092.16,-167.77"/>
</g>
<!-- n8 -->
<g id="node9" class="node">
<title>n8</title>
<polygon fill="lightcoral" stroke="black" points="1753,-158 1460.5,-140 1753,-122 2045.5,-140 1753,-158"/>
<text text-anchor="middle" x="1753" y="-136.3" font-family="Arial" font-size="14.00">Misunderstanding of fish placement in land habitat</text>
</g>
<!-- n5&#45;&gt;n8 -->
<g id="edge10" class="edge">
<title>n5&#45;&gt;n8</title>
<path fill="none" stroke="black" d="M1190.8,-244C1319.9,-220.35 1551.4,-177.94 1673.2,-155.63"/>
<polygon fill="black" stroke="black" points="1673.99,-159.04 1683.2,-153.8 1672.73,-152.16 1673.99,-159.04"/>
</g>
<!-- n11 -->
<g id="node10" class="node">
<title>n11</title>
<polygon fill="#f28e8e" stroke="black" points="1219.5,-36 952.5,-36 952.5,0 1219.5,0 1219.5,-36"/>
<text text-anchor="middle" x="1086" y="-14.3" font-family="Arial" font-size="14.00">Introduce labeling of elements in a habitat</text>
</g>
<!-- n9&#45;&gt;n11 -->
<g id="edge11" class="edge">
<title>n9&#45;&gt;n11</title>
<path fill="none" stroke="black" d="M1086,-121.81C1086,-102.11 1086,-69.58 1086,-46.39"/>
<polygon fill="black" stroke="black" points="1089.5,-46.16 1086,-36.16 1082.5,-46.16 1089.5,-46.16"/>
</g>
<!-- n10 -->
<g id="node11" class="node">
<title>n10</title>
<polygon fill="#f28e8e" stroke="black" points="1979.5,-36 1526.5,-36 1526.5,0 1979.5,0 1979.5,-36"/>
<text text-anchor="middle" x="1753" y="-14.3" font-family="Arial" font-size="14.00">Discuss differences between land and water habitats; practice placement</text>
</g>
<!-- n8&#45;&gt;n10 -->
<g id="edge12" class="edge">
<title>n8&#45;&gt;n10</title>
<path fill="none" stroke="black" d="M1753,-121.81C1753,-102.11 1753,-69.58 1753,-46.39"/>
<polygon fill="black" stroke="black" points="1756.5,-46.16 1753,-36.16 1749.5,-46.16 1756.5,-46.16"/>
</g>
</g>
</svg>
