<?xml version="1.0" encoding="UTF-8" standalone="no"?>
<!DOCTYPE svg PUBLIC "-//W3C//DTD SVG 1.1//EN"
 "http://www.w3.org/Graphics/SVG/1.1/DTD/svg11.dtd">
<!-- Generated by graphviz version 2.43.0 (0)
 -->
<!-- Pages: 1 -->
<svg width="1351pt" height="288pt"
 viewBox="0.00 0.00 1351.00 288.00" xmlns="http://www.w3.org/2000/svg" xmlns:xlink="http://www.w3.org/1999/xlink">
<g id="graph0" class="graph" transform="scale(1 1) rotate(0) translate(4 284)">
<polygon fill="white" stroke="transparent" points="-4,4 -4,-284 1347,-284 1347,4 -4,4"/>
<!-- n1 -->
<g id="node1" class="node">
<title>n1</title>
<polygon fill="lightblue" stroke="black" points="1115.5,-262 1001.75,-280 774.25,-280 660.5,-262 774.25,-244 1001.75,-244 1115.5,-262"/>
<text text-anchor="middle" x="888" y="-258.3" font-family="Arial" font-size="14.00">Illustrate plants with and without water and light.</text>
</g>
<!-- n2 -->
<g id="node2" class="node">
<title>n2</title>
<polygon fill="#fffdd0" stroke="black" points="698.5,-158 367.5,-158 367.5,-122 698.5,-122 698.5,-158"/>
<text text-anchor="middle" x="533" y="-136.3" font-family="Arial" font-size="14.00">Healthy plant with big, green leaves and strong stem</text>
</g>
<!-- n1&#45;&gt;n2 -->
<g id="edge1" class="edge">
<title>n1&#45;&gt;n2</title>
<path fill="none" stroke="black" d="M837.51,-243.93C773.11,-222.16 661.85,-184.56 593.13,-161.33"/>
<polygon fill="black" stroke="black" points="593.9,-157.9 583.31,-158.01 591.66,-164.53 593.9,-157.9"/>
</g>
<!-- n3 -->
<g id="node3" class="node">
<title>n3</title>
<polygon fill="#fffdd0" stroke="black" points="1019.5,-158 756.5,-158 756.5,-122 1019.5,-122 1019.5,-158"/>
<text text-anchor="middle" x="888" y="-136.3" font-family="Arial" font-size="14.00">Wilted leaves, drooping stems (no water)</text>
</g>
<!-- n1&#45;&gt;n3 -->
<g id="edge2" class="edge">
<title>n1&#45;&gt;n3</title>
<path fill="none" stroke="black" d="M888,-243.81C888,-224.11 888,-191.58 888,-168.39"/>
<polygon fill="black" stroke="black" points="891.5,-168.16 888,-158.16 884.5,-168.16 891.5,-168.16"/>
</g>
<!-- n4 -->
<g id="node4" class="node">
<title>n4</title>
<polygon fill="#fffdd0" stroke="black" points="1300,-158 1094,-158 1094,-122 1300,-122 1300,-158"/>
<text text-anchor="middle" x="1197" y="-136.3" font-family="Arial" font-size="14.00">Pale, yellowing leaves (no light)</text>
</g>
<!-- n1&#45;&gt;n4 -->
<g id="edge3" class="edge">
<title>n1&#45;&gt;n4</title>
<path fill="none" stroke="black" d="M931.94,-243.93C987.66,-222.3 1083.7,-185.02 1143.6,-161.76"/>
<polygon fill="black" stroke="black" points="1145.16,-164.91 1153.2,-158.01 1142.61,-158.39 1145.16,-164.91"/>
</g>
<!-- n5 -->
<g id="node5" class="node">
<title>n5</title>
<path fill="palegreen" stroke="black" d="M328,-36C328,-36 12,-36 12,-36 6,-36 0,-30 0,-24 0,-24 0,-12 0,-12 0,-6 6,0 12,0 12,0 328,0 328,0 334,0 340,-6 340,-12 340,-12 340,-24 340,-24 340,-30 334,-36 328,-36"/>
<text text-anchor="middle" x="170" y="-14.3" font-family="Arial" font-size="14.00">Understands plants need both water and light to thrive</text>
</g>
<!-- n2&#45;&gt;n5 -->
<g id="edge4" class="edge">
<title>n2&#45;&gt;n5</title>
<path fill="none" stroke="black" d="M481.38,-121.93C415.38,-100.12 301.29,-62.4 231.06,-39.18"/>
<polygon fill="black" stroke="black" points="232.04,-35.82 221.45,-36.01 229.85,-42.47 232.04,-35.82"/>
</g>
<!-- n8 -->
<g id="node6" class="node">
<title>n8</title>
<polygon fill="#f28e8e" stroke="black" points="679.5,-36 398.5,-36 398.5,0 679.5,0 679.5,-36"/>
<text text-anchor="middle" x="539" y="-14.3" font-family="Arial" font-size="14.00">Accurate labeling needed to avoid confusion</text>
</g>
<!-- n2&#45;&gt;n8 -->
<g id="edge5" class="edge">
<title>n2&#45;&gt;n8</title>
<path fill="none" stroke="black" d="M533.86,-121.81C534.84,-102.11 536.47,-69.58 537.63,-46.39"/>
<polygon fill="black" stroke="black" points="541.14,-46.32 538.14,-36.16 534.15,-45.97 541.14,-46.32"/>
</g>
<!-- n6 -->
<g id="node7" class="node">
<title>n6</title>
<path fill="palegreen" stroke="black" d="M1002.5,-36C1002.5,-36 761.5,-36 761.5,-36 755.5,-36 749.5,-30 749.5,-24 749.5,-24 749.5,-12 749.5,-12 749.5,-6 755.5,0 761.5,0 761.5,0 1002.5,0 1002.5,0 1008.5,0 1014.5,-6 1014.5,-12 1014.5,-12 1014.5,-24 1014.5,-24 1014.5,-30 1008.5,-36 1002.5,-36"/>
<text text-anchor="middle" x="882" y="-14.3" font-family="Arial" font-size="14.00">Understands lack of water leads to wilting</text>
</g>
<!-- n3&#45;&gt;n6 -->
<g id="edge6" class="edge">
<title>n3&#45;&gt;n6</title>
<path fill="none" stroke="black" d="M887.14,-121.81C886.16,-102.11 884.53,-69.58 883.37,-46.39"/>
<polygon fill="black" stroke="black" points="886.85,-45.97 882.86,-36.16 879.86,-46.32 886.85,-45.97"/>
</g>
<!-- n7 -->
<g id="node8" class="node">
<title>n7</title>
<path fill="palegreen" stroke="black" d="M1331,-36C1331,-36 1085,-36 1085,-36 1079,-36 1073,-30 1073,-24 1073,-24 1073,-12 1073,-12 1073,-6 1079,0 1085,0 1085,0 1331,0 1331,0 1337,0 1343,-6 1343,-12 1343,-12 1343,-24 1343,-24 1343,-30 1337,-36 1331,-36"/>
<text text-anchor="middle" x="1208" y="-14.3" font-family="Arial" font-size="14.00">Understands lack of light causes yellowing</text>
</g>
<!-- n4&#45;&gt;n7 -->
<g id="edge7" class="edge">
<title>n4&#45;&gt;n7</title>
<path fill="none" stroke="black" d="M1198.6,-121.81C1200.4,-102.11 1203.4,-69.58 1205.5,-46.39"/>
<polygon fill="black" stroke="black" points="1209.01,-46.43 1206.4,-36.16 1202.04,-45.82 1209.01,-46.43"/>
</g>
</g>
</svg>
