<?xml version="1.0" encoding="UTF-8" standalone="no"?>
<!DOCTYPE svg PUBLIC "-//W3C//DTD SVG 1.1//EN"
 "http://www.w3.org/Graphics/SVG/1.1/DTD/svg11.dtd">
<!-- Generated by graphviz version 2.43.0 (0)
 -->
<!-- Pages: 1 -->
<svg width="1971pt" height="410pt"
 viewBox="0.00 0.00 1971.00 410.00" xmlns="http://www.w3.org/2000/svg" xmlns:xlink="http://www.w3.org/1999/xlink">
<g id="graph0" class="graph" transform="scale(1 1) rotate(0) translate(4 406)">
<polygon fill="white" stroke="transparent" points="-4,4 -4,-406 1967,-406 1967,4 -4,4"/>
<!-- n1 -->
<g id="node1" class="node">
<title>n1</title>
<polygon fill="lightblue" stroke="black" points="983,-384 852.75,-402 592.25,-402 462,-384 592.25,-366 852.75,-366 983,-384"/>
<text text-anchor="middle" x="722.5" y="-380.3" font-family="Arial" font-size="14.00">Draw two habitats and the different living things in each</text>
</g>
<!-- n2 -->
<g id="node2" class="node">
<title>n2</title>
<polygon fill="#fffdd0" stroke="black" points="354.5,-280 146.5,-280 146.5,-244 354.5,-244 354.5,-280"/>
<text text-anchor="middle" x="250.5" y="-258.3" font-family="Arial" font-size="14.00">Green square representing land</text>
</g>
<!-- n1&#45;&gt;n2 -->
<g id="edge1" class="edge">
<title>n1&#45;&gt;n2</title>
<path fill="none" stroke="black" d="M655.38,-365.93C568.69,-343.9 418.17,-305.63 327.11,-282.48"/>
<polygon fill="black" stroke="black" points="327.94,-279.08 317.39,-280.01 326.22,-285.87 327.94,-279.08"/>
</g>
<!-- n3 -->
<g id="node3" class="node">
<title>n3</title>
<polygon fill="#fffdd0" stroke="black" points="679.5,-280 461.5,-280 461.5,-244 679.5,-244 679.5,-280"/>
<text text-anchor="middle" x="570.5" y="-258.3" font-family="Arial" font-size="14.00">Blue wavy line representing water</text>
</g>
<!-- n1&#45;&gt;n3 -->
<g id="edge2" class="edge">
<title>n1&#45;&gt;n3</title>
<path fill="none" stroke="black" d="M700.72,-365.81C674.31,-344.96 629.67,-309.71 600.14,-286.4"/>
<polygon fill="black" stroke="black" points="602.26,-283.61 592.24,-280.16 597.92,-289.1 602.26,-283.61"/>
</g>
<!-- n4 -->
<g id="node4" class="node">
<title>n4</title>
<polygon fill="#fffdd0" stroke="black" points="1109,-280 834,-280 834,-244 1109,-244 1109,-280"/>
<text text-anchor="middle" x="971.5" y="-258.3" font-family="Arial" font-size="14.00">Tree and fish placed in both land and water</text>
</g>
<!-- n1&#45;&gt;n4 -->
<g id="edge3" class="edge">
<title>n1&#45;&gt;n4</title>
<path fill="none" stroke="black" d="M757.91,-365.93C802.35,-344.52 878.57,-307.78 926.93,-284.48"/>
<polygon fill="black" stroke="black" points="928.72,-287.5 936.21,-280.01 925.68,-281.2 928.72,-287.5"/>
</g>
<!-- n5 -->
<g id="node5" class="node">
<title>n5</title>
<polygon fill="#fffdd0" stroke="black" points="1673.5,-280 1359.5,-280 1359.5,-244 1673.5,-244 1673.5,-280"/>
<text text-anchor="middle" x="1516.5" y="-258.3" font-family="Arial" font-size="14.00">Squirrel randomly placed between land and water</text>
</g>
<!-- n1&#45;&gt;n5 -->
<g id="edge4" class="edge">
<title>n1&#45;&gt;n5</title>
<path fill="none" stroke="black" d="M835,-366C982.77,-343.66 1241.3,-304.59 1393.9,-281.52"/>
<polygon fill="black" stroke="black" points="1394.43,-284.98 1403.8,-280.03 1393.39,-278.06 1394.43,-284.98"/>
</g>
<!-- n6 -->
<g id="node6" class="node">
<title>n6</title>
<path fill="palegreen" stroke="black" d="M295,-158C295,-158 12,-158 12,-158 6,-158 0,-152 0,-146 0,-146 0,-134 0,-134 0,-128 6,-122 12,-122 12,-122 295,-122 295,-122 301,-122 307,-128 307,-134 307,-134 307,-146 307,-146 307,-152 301,-158 295,-158"/>
<text text-anchor="middle" x="153.5" y="-136.3" font-family="Arial" font-size="14.00">Understands basic representation of land habitat</text>
</g>
<!-- n2&#45;&gt;n6 -->
<g id="edge5" class="edge">
<title>n2&#45;&gt;n6</title>
<path fill="none" stroke="black" d="M236.6,-243.81C220.18,-223.49 192.71,-189.51 173.88,-166.21"/>
<polygon fill="black" stroke="black" points="176.38,-163.73 167.37,-158.16 170.94,-168.14 176.38,-163.73"/>
</g>
<!-- n7 -->
<g id="node7" class="node">
<title>n7</title>
<path fill="palegreen" stroke="black" d="M667.5,-158C667.5,-158 377.5,-158 377.5,-158 371.5,-158 365.5,-152 365.5,-146 365.5,-146 365.5,-134 365.5,-134 365.5,-128 371.5,-122 377.5,-122 377.5,-122 667.5,-122 667.5,-122 673.5,-122 679.5,-128 679.5,-134 679.5,-134 679.5,-146 679.5,-146 679.5,-152 673.5,-158 667.5,-158"/>
<text text-anchor="middle" x="522.5" y="-136.3" font-family="Arial" font-size="14.00">Understands basic representation of water habitat</text>
</g>
<!-- n3&#45;&gt;n7 -->
<g id="edge6" class="edge">
<title>n3&#45;&gt;n7</title>
<path fill="none" stroke="black" d="M563.62,-243.81C555.64,-223.85 542.38,-190.7 533.08,-167.45"/>
<polygon fill="black" stroke="black" points="536.33,-166.14 529.36,-158.16 529.83,-168.74 536.33,-166.14"/>
</g>
<!-- n8 -->
<g id="node8" class="node">
<title>n8</title>
<polygon fill="lightcoral" stroke="black" points="1019.5,-158 737.14,-140 1019.5,-122 1301.86,-140 1019.5,-158"/>
<text text-anchor="middle" x="1019.5" y="-136.3" font-family="Arial" font-size="14.00">Misunderstanding of habitat&#45;specific living things</text>
</g>
<!-- n4&#45;&gt;n8 -->
<g id="edge7" class="edge">
<title>n4&#45;&gt;n8</title>
<path fill="none" stroke="black" d="M978.38,-243.81C986.37,-223.82 999.65,-190.62 1009,-167.37"/>
<polygon fill="black" stroke="black" points="1012.37,-168.36 1012.8,-157.77 1005.87,-165.78 1012.37,-168.36"/>
</g>
<!-- n9 -->
<g id="node9" class="node">
<title>n9</title>
<polygon fill="lightcoral" stroke="black" points="1661.5,-158 1360,-140 1661.5,-122 1963,-140 1661.5,-158"/>
<text text-anchor="middle" x="1661.5" y="-136.3" font-family="Arial" font-size="14.00">Misplacement of squirrel suggests habitat confusion</text>
</g>
<!-- n5&#45;&gt;n9 -->
<g id="edge8" class="edge">
<title>n5&#45;&gt;n9</title>
<path fill="none" stroke="black" d="M1537.3,-243.81C1562.8,-222.69 1606.1,-186.81 1634.3,-163.52"/>
<polygon fill="black" stroke="black" points="1636.71,-166.07 1642.2,-157.01 1632.26,-160.67 1636.71,-166.07"/>
</g>
<!-- n10 -->
<g id="node10" class="node">
<title>n10</title>
<polygon fill="#f28e8e" stroke="black" points="1192.5,-36 846.5,-36 846.5,0 1192.5,0 1192.5,-36"/>
<text text-anchor="middle" x="1019.5" y="-14.3" font-family="Arial" font-size="14.00">Teach distinct living things associated with each habitat</text>
</g>
<!-- n8&#45;&gt;n10 -->
<g id="edge9" class="edge">
<title>n8&#45;&gt;n10</title>
<path fill="none" stroke="black" d="M1019.5,-121.81C1019.5,-102.11 1019.5,-69.58 1019.5,-46.39"/>
<polygon fill="black" stroke="black" points="1023,-46.16 1019.5,-36.16 1016,-46.16 1023,-46.16"/>
</g>
<!-- n11 -->
<g id="node11" class="node">
<title>n11</title>
<polygon fill="#f28e8e" stroke="black" points="1871,-36 1452,-36 1452,0 1871,0 1871,-36"/>
<text text-anchor="middle" x="1661.5" y="-14.3" font-family="Arial" font-size="14.00">Provide examples of land and water habitat&#45;inhabitant relationships</text>
</g>
<!-- n9&#45;&gt;n11 -->
<g id="edge10" class="edge">
<title>n9&#45;&gt;n11</title>
<path fill="none" stroke="black" d="M1661.5,-121.81C1661.5,-102.11 1661.5,-69.58 1661.5,-46.39"/>
<polygon fill="black" stroke="black" points="1665,-46.16 1661.5,-36.16 1658,-46.16 1665,-46.16"/>
</g>
</g>
</svg>
