<?xml version="1.0" encoding="UTF-8" standalone="no"?>
<!DOCTYPE svg PUBLIC "-//W3C//DTD SVG 1.1//EN"
 "http://www.w3.org/Graphics/SVG/1.1/DTD/svg11.dtd">
<!-- Generated by graphviz version 2.43.0 (0)
 -->
<!-- Pages: 1 -->
<svg width="2429pt" height="410pt"
 viewBox="0.00 0.00 2429.18 410.00" xmlns="http://www.w3.org/2000/svg" xmlns:xlink="http://www.w3.org/1999/xlink">
<g id="graph0" class="graph" transform="scale(1 1) rotate(0) translate(4 406)">
<polygon fill="white" stroke="transparent" points="-4,4 -4,-406 2425.18,-406 2425.18,4 -4,4"/>
<!-- n0 -->
<g id="node1" class="node">
<title>n0</title>
<polygon fill="lightblue" stroke="black" points="1462,-384 1331.75,-402 1071.25,-402 941,-384 1071.25,-366 1331.75,-366 1462,-384"/>
<text text-anchor="middle" x="1201.5" y="-380.3" font-family="Arial" font-size="14.00">Draw two habitats and the different living things in each</text>
</g>
<!-- n1 -->
<g id="node2" class="node">
<title>n1</title>
<polygon fill="#fffdd0" stroke="black" points="655.5,-280 437.5,-280 437.5,-244 655.5,-244 655.5,-280"/>
<text text-anchor="middle" x="546.5" y="-258.3" font-family="Arial" font-size="14.00">Two side&#45;by&#45;side undefined areas</text>
</g>
<!-- n0&#45;&gt;n1 -->
<g id="edge1" class="edge">
<title>n0&#45;&gt;n1</title>
<path fill="none" stroke="black" d="M1108.7,-366C987.4,-343.78 775.62,-304.98 649.49,-281.87"/>
<polygon fill="black" stroke="black" points="649.91,-278.39 639.44,-280.03 648.65,-285.27 649.91,-278.39"/>
</g>
<!-- n2 -->
<g id="node3" class="node">
<title>n2</title>
<polygon fill="#fffdd0" stroke="black" points="1189.5,-280 845.5,-280 845.5,-244 1189.5,-244 1189.5,-280"/>
<text text-anchor="middle" x="1017.5" y="-258.3" font-family="Arial" font-size="14.00">Vague lines and circles representing trees and animals</text>
</g>
<!-- n0&#45;&gt;n2 -->
<g id="edge2" class="edge">
<title>n0&#45;&gt;n2</title>
<path fill="none" stroke="black" d="M1175.1,-365.81C1142.9,-344.78 1088.2,-309.11 1052.5,-285.8"/>
<polygon fill="black" stroke="black" points="1054.09,-282.66 1043.8,-280.16 1050.29,-288.54 1054.09,-282.66"/>
</g>
<!-- n3 -->
<g id="node4" class="node">
<title>n3</title>
<polygon fill="#fffdd0" stroke="black" points="1523,-280 1248,-280 1248,-244 1523,-244 1523,-280"/>
<text text-anchor="middle" x="1385.5" y="-258.3" font-family="Arial" font-size="14.00">Shapes and squiggles depicting aquatic life</text>
</g>
<!-- n0&#45;&gt;n3 -->
<g id="edge3" class="edge">
<title>n0&#45;&gt;n3</title>
<path fill="none" stroke="black" d="M1227.9,-365.81C1260.1,-344.78 1314.8,-309.11 1350.5,-285.8"/>
<polygon fill="black" stroke="black" points="1352.71,-288.54 1359.2,-280.16 1348.91,-282.66 1352.71,-288.54"/>
</g>
<!-- n4 -->
<g id="node5" class="node">
<title>n4</title>
<polygon fill="#fffdd0" stroke="black" points="1951.5,-280 1661.5,-280 1661.5,-244 1951.5,-244 1951.5,-280"/>
<text text-anchor="middle" x="1806.5" y="-258.3" font-family="Arial" font-size="14.00">Mix of color scribbles without clear separation</text>
</g>
<!-- n0&#45;&gt;n4 -->
<g id="edge4" class="edge">
<title>n0&#45;&gt;n4</title>
<path fill="none" stroke="black" d="M1287.2,-366C1399,-343.82 1594.1,-305.13 1710.7,-282.01"/>
<polygon fill="black" stroke="black" points="1711.57,-285.41 1720.7,-280.03 1710.21,-278.54 1711.57,-285.41"/>
</g>
<!-- n5 -->
<g id="node6" class="node">
<title>n5</title>
<path fill="palegreen" stroke="black" d="M185,-158C185,-158 12,-158 12,-158 6,-158 0,-152 0,-146 0,-146 0,-134 0,-134 0,-128 6,-122 12,-122 12,-122 185,-122 185,-122 191,-122 197,-128 197,-134 197,-134 197,-146 197,-146 197,-152 191,-158 185,-158"/>
<text text-anchor="middle" x="98.5" y="-136.3" font-family="Arial" font-size="14.00">Attempts to show two habitats</text>
</g>
<!-- n1&#45;&gt;n5 -->
<g id="edge5" class="edge">
<title>n1&#45;&gt;n5</title>
<path fill="none" stroke="black" d="M482.79,-243.93C400.68,-221.94 258.22,-183.78 171.74,-160.62"/>
<polygon fill="black" stroke="black" points="172.55,-157.21 161.99,-158.01 170.74,-163.98 172.55,-157.21"/>
</g>
<!-- n6 -->
<g id="node7" class="node">
<title>n6</title>
<polygon fill="lightcoral" stroke="black" points="546.5,-158 255,-140 546.5,-122 838,-140 546.5,-158"/>
<text text-anchor="middle" x="546.5" y="-136.3" font-family="Arial" font-size="14.00">Lacks clear differentiation between land and water</text>
</g>
<!-- n1&#45;&gt;n6 -->
<g id="edge6" class="edge">
<title>n1&#45;&gt;n6</title>
<path fill="none" stroke="black" d="M546.5,-243.81C546.5,-224.11 546.5,-191.58 546.5,-168.39"/>
<polygon fill="black" stroke="black" points="550,-168.16 546.5,-158.16 543,-168.16 550,-168.16"/>
</g>
<!-- n7 -->
<g id="node8" class="node">
<title>n7</title>
<path fill="palegreen" stroke="black" d="M1069,-158C1069,-158 908,-158 908,-158 902,-158 896,-152 896,-146 896,-146 896,-134 896,-134 896,-128 902,-122 908,-122 908,-122 1069,-122 1069,-122 1075,-122 1081,-128 1081,-134 1081,-134 1081,-146 1081,-146 1081,-152 1075,-158 1069,-158"/>
<text text-anchor="middle" x="988.5" y="-136.3" font-family="Arial" font-size="14.00">Efforts to depict living things</text>
</g>
<!-- n2&#45;&gt;n7 -->
<g id="edge7" class="edge">
<title>n2&#45;&gt;n7</title>
<path fill="none" stroke="black" d="M1013.3,-243.81C1008.6,-224.02 1000.7,-191.29 995.04,-168.08"/>
<polygon fill="black" stroke="black" points="998.39,-167.06 992.65,-158.16 991.59,-168.7 998.39,-167.06"/>
</g>
<!-- n8 -->
<g id="node9" class="node">
<title>n8</title>
<polygon fill="lightcoral" stroke="black" points="1385.5,-158 1139,-140 1385.5,-122 1632,-140 1385.5,-158"/>
<text text-anchor="middle" x="1385.5" y="-136.3" font-family="Arial" font-size="14.00">Non&#45;distinctive representations of habitats</text>
</g>
<!-- n2&#45;&gt;n8 -->
<g id="edge8" class="edge">
<title>n2&#45;&gt;n8</title>
<path fill="none" stroke="black" d="M1069.8,-243.93C1139.7,-221.15 1262.8,-181.01 1332.9,-158.17"/>
<polygon fill="black" stroke="black" points="1334.38,-161.37 1342.8,-154.93 1332.21,-154.71 1334.38,-161.37"/>
</g>
<!-- n3&#45;&gt;n8 -->
<g id="edge9" class="edge">
<title>n3&#45;&gt;n8</title>
<path fill="none" stroke="black" d="M1385.5,-243.81C1385.5,-224.11 1385.5,-191.58 1385.5,-168.39"/>
<polygon fill="black" stroke="black" points="1389,-168.16 1385.5,-158.16 1382,-168.16 1389,-168.16"/>
</g>
<!-- n9 -->
<g id="node10" class="node">
<title>n9</title>
<path fill="palegreen" stroke="black" d="M1911.5,-158C1911.5,-158 1701.5,-158 1701.5,-158 1695.5,-158 1689.5,-152 1689.5,-146 1689.5,-146 1689.5,-134 1689.5,-134 1689.5,-128 1695.5,-122 1701.5,-122 1701.5,-122 1911.5,-122 1911.5,-122 1917.5,-122 1923.5,-128 1923.5,-134 1923.5,-134 1923.5,-146 1923.5,-146 1923.5,-152 1917.5,-158 1911.5,-158"/>
<text text-anchor="middle" x="1806.5" y="-136.3" font-family="Arial" font-size="14.00">Variety of colors showing an attempt</text>
</g>
<!-- n4&#45;&gt;n9 -->
<g id="edge10" class="edge">
<title>n4&#45;&gt;n9</title>
<path fill="none" stroke="black" d="M1806.5,-243.81C1806.5,-224.11 1806.5,-191.58 1806.5,-168.39"/>
<polygon fill="black" stroke="black" points="1810,-168.16 1806.5,-158.16 1803,-168.16 1810,-168.16"/>
</g>
<!-- n10 -->
<g id="node11" class="node">
<title>n10</title>
<polygon fill="lightcoral" stroke="black" points="2201.5,-158 1981.64,-140 2201.5,-122 2421.36,-140 2201.5,-158"/>
<text text-anchor="middle" x="2201.5" y="-136.3" font-family="Arial" font-size="14.00">Lacks diversity and clear comparison</text>
</g>
<!-- n4&#45;&gt;n10 -->
<g id="edge11" class="edge">
<title>n4&#45;&gt;n10</title>
<path fill="none" stroke="black" d="M1862.7,-243.93C1938.6,-220.87 2073.1,-180.02 2147.7,-157.33"/>
<polygon fill="black" stroke="black" points="2148.85,-160.64 2157.4,-154.39 2146.81,-153.94 2148.85,-160.64"/>
</g>
<!-- n11 -->
<g id="node12" class="node">
<title>n11</title>
<polygon fill="#f28e8e" stroke="black" points="775,-36 318,-36 318,0 775,0 775,-36"/>
<text text-anchor="middle" x="546.5" y="-14.3" font-family="Arial" font-size="14.00">Label habitats as &#39;land&#39; and &#39;water&#39;, and draw distinct living things in each.</text>
</g>
<!-- n6&#45;&gt;n11 -->
<g id="edge12" class="edge">
<title>n6&#45;&gt;n11</title>
<path fill="none" stroke="black" d="M546.5,-121.81C546.5,-102.11 546.5,-69.58 546.5,-46.39"/>
<polygon fill="black" stroke="black" points="550,-46.16 546.5,-36.16 543,-46.16 550,-46.16"/>
</g>
<!-- n13 -->
<g id="node13" class="node">
<title>n13</title>
<polygon fill="#f28e8e" stroke="black" points="1546,-36 1225,-36 1225,0 1546,0 1546,-36"/>
<text text-anchor="middle" x="1385.5" y="-14.3" font-family="Arial" font-size="14.00">Indicate specific plants and animals in each habitat</text>
</g>
<!-- n8&#45;&gt;n13 -->
<g id="edge13" class="edge">
<title>n8&#45;&gt;n13</title>
<path fill="none" stroke="black" d="M1385.5,-121.81C1385.5,-102.11 1385.5,-69.58 1385.5,-46.39"/>
<polygon fill="black" stroke="black" points="1389,-46.16 1385.5,-36.16 1382,-46.16 1389,-46.16"/>
</g>
<!-- n12 -->
<g id="node14" class="node">
<title>n12</title>
<polygon fill="#f28e8e" stroke="black" points="2355.5,-36 2047.5,-36 2047.5,0 2355.5,0 2355.5,-36"/>
<text text-anchor="middle" x="2201.5" y="-14.3" font-family="Arial" font-size="14.00">Separate and label color areas to match habitats</text>
</g>
<!-- n10&#45;&gt;n12 -->
<g id="edge14" class="edge">
<title>n10&#45;&gt;n12</title>
<path fill="none" stroke="black" d="M2201.5,-121.81C2201.5,-102.11 2201.5,-69.58 2201.5,-46.39"/>
<polygon fill="black" stroke="black" points="2205,-46.16 2201.5,-36.16 2198,-46.16 2205,-46.16"/>
</g>
</g>
</svg>
