<?xml version="1.0" encoding="UTF-8" standalone="no"?>
<!DOCTYPE svg PUBLIC "-//W3C//DTD SVG 1.1//EN"
 "http://www.w3.org/Graphics/SVG/1.1/DTD/svg11.dtd">
<!-- Generated by graphviz version 2.43.0 (0)
 -->
<!-- Pages: 1 -->
<svg width="1148pt" height="410pt"
 viewBox="0.00 0.00 1147.50 410.00" xmlns="http://www.w3.org/2000/svg" xmlns:xlink="http://www.w3.org/1999/xlink">
<g id="graph0" class="graph" transform="scale(1 1) rotate(0) translate(4 406)">
<polygon fill="white" stroke="transparent" points="-4,4 -4,-406 1143.5,-406 1143.5,4 -4,4"/>
<!-- n1 -->
<g id="node1" class="node">
<title>n1</title>
<polygon fill="lightblue" stroke="black" points="701,-384 587.25,-402 359.75,-402 246,-384 359.75,-366 587.25,-366 701,-384"/>
<text text-anchor="middle" x="473.5" y="-380.3" font-family="Arial" font-size="14.00">Illustrate plants with and without water and light.</text>
</g>
<!-- n2 -->
<g id="node2" class="node">
<title>n2</title>
<polygon fill="#fffdd0" stroke="black" points="289,-280 74,-280 74,-244 289,-244 289,-280"/>
<text text-anchor="middle" x="181.5" y="-258.3" font-family="Arial" font-size="14.00">Healthy plant with water and light</text>
</g>
<!-- n1&#45;&gt;n2 -->
<g id="edge1" class="edge">
<title>n1&#45;&gt;n2</title>
<path fill="none" stroke="black" d="M431.97,-365.93C379.43,-344.34 288.98,-307.17 232.36,-283.9"/>
<polygon fill="black" stroke="black" points="233.46,-280.57 222.88,-280.01 230.8,-287.04 233.46,-280.57"/>
</g>
<!-- n3 -->
<g id="node3" class="node">
<title>n3</title>
<polygon fill="#fffdd0" stroke="black" points="560.5,-280 386.5,-280 386.5,-244 560.5,-244 560.5,-280"/>
<text text-anchor="middle" x="473.5" y="-258.3" font-family="Arial" font-size="14.00">Wilting plant without water</text>
</g>
<!-- n1&#45;&gt;n3 -->
<g id="edge2" class="edge">
<title>n1&#45;&gt;n3</title>
<path fill="none" stroke="black" d="M473.5,-365.81C473.5,-346.11 473.5,-313.58 473.5,-290.39"/>
<polygon fill="black" stroke="black" points="477,-290.16 473.5,-280.16 470,-290.16 477,-290.16"/>
</g>
<!-- n4 -->
<g id="node4" class="node">
<title>n4</title>
<polygon fill="#fffdd0" stroke="black" points="894,-280 715,-280 715,-244 894,-244 894,-280"/>
<text text-anchor="middle" x="804.5" y="-258.3" font-family="Arial" font-size="14.00">Drooping plant without light</text>
</g>
<!-- n1&#45;&gt;n4 -->
<g id="edge3" class="edge">
<title>n1&#45;&gt;n4</title>
<path fill="none" stroke="black" d="M520.57,-365.93C580.5,-344.21 683.93,-306.71 748.04,-283.47"/>
<polygon fill="black" stroke="black" points="749.38,-286.71 757.59,-280.01 747,-280.13 749.38,-286.71"/>
</g>
<!-- n5 -->
<g id="node5" class="node">
<title>n5</title>
<path fill="palegreen" stroke="black" d="M273,-158C273,-158 12,-158 12,-158 6,-158 0,-152 0,-146 0,-146 0,-134 0,-134 0,-128 6,-122 12,-122 12,-122 273,-122 273,-122 279,-122 285,-128 285,-134 285,-134 285,-146 285,-146 285,-152 279,-158 273,-158"/>
<text text-anchor="middle" x="142.5" y="-136.3" font-family="Arial" font-size="14.00">Understands plants grow with water and light</text>
</g>
<!-- n2&#45;&gt;n5 -->
<g id="edge4" class="edge">
<title>n2&#45;&gt;n5</title>
<path fill="none" stroke="black" d="M175.91,-243.81C169.45,-223.94 158.75,-190.99 151.2,-167.76"/>
<polygon fill="black" stroke="black" points="154.5,-166.59 148.08,-158.16 147.84,-168.75 154.5,-166.59"/>
</g>
<!-- n6 -->
<g id="node6" class="node">
<title>n6</title>
<path fill="palegreen" stroke="black" d="M591.5,-158C591.5,-158 355.5,-158 355.5,-158 349.5,-158 343.5,-152 343.5,-146 343.5,-146 343.5,-134 343.5,-134 343.5,-128 349.5,-122 355.5,-122 355.5,-122 591.5,-122 591.5,-122 597.5,-122 603.5,-128 603.5,-134 603.5,-134 603.5,-146 603.5,-146 603.5,-152 597.5,-158 591.5,-158"/>
<text text-anchor="middle" x="473.5" y="-136.3" font-family="Arial" font-size="14.00">Understands lack of water causes wilting</text>
</g>
<!-- n3&#45;&gt;n6 -->
<g id="edge5" class="edge">
<title>n3&#45;&gt;n6</title>
<path fill="none" stroke="black" d="M473.5,-243.81C473.5,-224.11 473.5,-191.58 473.5,-168.39"/>
<polygon fill="black" stroke="black" points="477,-168.16 473.5,-158.16 470,-168.16 477,-168.16"/>
</g>
<!-- n7 -->
<g id="node7" class="node">
<title>n7</title>
<polygon fill="lightcoral" stroke="black" points="900.5,-158 661.5,-140 900.5,-122 1139.5,-140 900.5,-158"/>
<text text-anchor="middle" x="900.5" y="-136.3" font-family="Arial" font-size="14.00">Incomplete understanding of light effects</text>
</g>
<!-- n4&#45;&gt;n7 -->
<g id="edge6" class="edge">
<title>n4&#45;&gt;n7</title>
<path fill="none" stroke="black" d="M818.25,-243.81C834.69,-223.26 862.31,-188.74 880.96,-165.42"/>
<polygon fill="black" stroke="black" points="883.87,-167.38 887.39,-157.39 878.41,-163.01 883.87,-167.38"/>
</g>
<!-- n8 -->
<g id="node8" class="node">
<title>n8</title>
<polygon fill="#f28e8e" stroke="black" points="1072,-36 729,-36 729,0 1072,0 1072,-36"/>
<text text-anchor="middle" x="900.5" y="-14.3" font-family="Arial" font-size="14.00">Consider showing yellow or brown for unhealthy plants</text>
</g>
<!-- n7&#45;&gt;n8 -->
<g id="edge7" class="edge">
<title>n7&#45;&gt;n8</title>
<path fill="none" stroke="black" d="M900.5,-121.81C900.5,-102.11 900.5,-69.58 900.5,-46.39"/>
<polygon fill="black" stroke="black" points="904,-46.16 900.5,-36.16 897,-46.16 904,-46.16"/>
</g>
</g>
</svg>
