<?xml version="1.0" encoding="UTF-8" standalone="no"?>
<!DOCTYPE svg PUBLIC "-//W3C//DTD SVG 1.1//EN"
 "http://www.w3.org/Graphics/SVG/1.1/DTD/svg11.dtd">
<!-- Generated by graphviz version 2.43.0 (0)
 -->
<!-- Pages: 1 -->
<svg width="1492pt" height="410pt"
 viewBox="0.00 0.00 1491.60 410.00" xmlns="http://www.w3.org/2000/svg" xmlns:xlink="http://www.w3.org/1999/xlink">
<g id="graph0" class="graph" transform="scale(1 1) rotate(0) translate(4 406)">
<polygon fill="white" stroke="transparent" points="-4,4 -4,-406 1487.6,-406 1487.6,4 -4,4"/>
<!-- n1 -->
<g id="node1" class="node">
<title>n1</title>
<polygon fill="lightblue" stroke="black" points="1053,-384 961.75,-402 779.25,-402 688,-384 779.25,-366 961.75,-366 1053,-384"/>
<text text-anchor="middle" x="870.5" y="-380.3" font-family="Arial" font-size="14.00">Draw reversible changes (ice melting)</text>
</g>
<!-- n2 -->
<g id="node2" class="node">
<title>n2</title>
<polygon fill="#fffdd0" stroke="black" points="834.5,-280 618.5,-280 618.5,-244 834.5,-244 834.5,-280"/>
<text text-anchor="middle" x="726.5" y="-258.3" font-family="Arial" font-size="14.00">ice on the left, puddle on the right</text>
</g>
<!-- n1&#45;&gt;n2 -->
<g id="edge1" class="edge">
<title>n1&#45;&gt;n2</title>
<path fill="none" stroke="black" d="M849.87,-365.81C824.95,-345.04 782.91,-310.01 754.94,-286.7"/>
<polygon fill="black" stroke="black" points="757.01,-283.87 747.09,-280.16 752.53,-289.25 757.01,-283.87"/>
</g>
<!-- n3 -->
<g id="node3" class="node">
<title>n3</title>
<polygon fill="#fffdd0" stroke="black" points="1274,-280 1031,-280 1031,-244 1274,-244 1274,-280"/>
<text text-anchor="middle" x="1152.5" y="-258.3" font-family="Arial" font-size="14.00">Simplistic shapes, no labels or arrows</text>
</g>
<!-- n1&#45;&gt;n3 -->
<g id="edge2" class="edge">
<title>n1&#45;&gt;n3</title>
<path fill="none" stroke="black" d="M910.6,-365.93C961.24,-344.39 1048.3,-307.32 1103,-284.04"/>
<polygon fill="black" stroke="black" points="1104.66,-287.14 1112.5,-280.01 1101.93,-280.69 1104.66,-287.14"/>
</g>
<!-- n4 -->
<g id="node4" class="node">
<title>n4</title>
<path fill="palegreen" stroke="black" d="M341,-158C341,-158 12,-158 12,-158 6,-158 0,-152 0,-146 0,-146 0,-134 0,-134 0,-128 6,-122 12,-122 12,-122 341,-122 341,-122 347,-122 353,-128 353,-134 353,-134 353,-146 353,-146 353,-152 347,-158 341,-158"/>
<text text-anchor="middle" x="176.5" y="-136.3" font-family="Arial" font-size="14.00">Recognizes initial and final states of a reversible change</text>
</g>
<!-- n2&#45;&gt;n4 -->
<g id="edge3" class="edge">
<title>n2&#45;&gt;n4</title>
<path fill="none" stroke="black" d="M648.57,-244C547.23,-221.89 370.67,-183.37 264.58,-160.22"/>
<polygon fill="black" stroke="black" points="265.06,-156.74 254.54,-158.03 263.56,-163.58 265.06,-156.74"/>
</g>
<!-- n5 -->
<g id="node5" class="node">
<title>n5</title>
<polygon fill="lightcoral" stroke="black" points="726.5,-158 411,-140 726.5,-122 1042,-140 726.5,-158"/>
<text text-anchor="middle" x="726.5" y="-136.3" font-family="Arial" font-size="14.00">Misunderstanding of irreversible vs reversible changes</text>
</g>
<!-- n2&#45;&gt;n5 -->
<g id="edge4" class="edge">
<title>n2&#45;&gt;n5</title>
<path fill="none" stroke="black" d="M726.5,-243.81C726.5,-224.11 726.5,-191.58 726.5,-168.39"/>
<polygon fill="black" stroke="black" points="730,-168.16 726.5,-158.16 723,-168.16 730,-168.16"/>
</g>
<!-- n6 -->
<g id="node6" class="node">
<title>n6</title>
<polygon fill="lightcoral" stroke="black" points="1291.5,-158 1099.29,-140 1291.5,-122 1483.71,-140 1291.5,-158"/>
<text text-anchor="middle" x="1291.5" y="-136.3" font-family="Arial" font-size="14.00">No labeling or process depiction</text>
</g>
<!-- n3&#45;&gt;n6 -->
<g id="edge5" class="edge">
<title>n3&#45;&gt;n6</title>
<path fill="none" stroke="black" d="M1172.4,-243.81C1196.9,-222.66 1238.5,-186.72 1265.5,-163.43"/>
<polygon fill="black" stroke="black" points="1268.1,-165.81 1273.4,-156.63 1263.54,-160.5 1268.1,-165.81"/>
</g>
<!-- n7 -->
<g id="node7" class="node">
<title>n7</title>
<polygon fill="#f28e8e" stroke="black" points="1173,-36 844,-36 844,0 1173,0 1173,-36"/>
<text text-anchor="middle" x="1008.5" y="-14.3" font-family="Arial" font-size="14.00">Use labels and arrows to indicate reversible process</text>
</g>
<!-- n5&#45;&gt;n7 -->
<g id="edge6" class="edge">
<title>n5&#45;&gt;n7</title>
<path fill="none" stroke="black" d="M761.93,-123.92C811.71,-102.74 902.58,-64.07 959.01,-40.06"/>
<polygon fill="black" stroke="black" points="960.61,-43.18 968.44,-36.05 957.87,-36.74 960.61,-43.18"/>
</g>
<!-- n6&#45;&gt;n7 -->
<g id="edge7" class="edge">
<title>n6&#45;&gt;n7</title>
<path fill="none" stroke="black" d="M1258.5,-125C1209.2,-104.09 1115.9,-64.56 1058.3,-40.13"/>
<polygon fill="black" stroke="black" points="1059.57,-36.87 1049,-36.19 1056.85,-43.31 1059.57,-36.87"/>
</g>
</g>
</svg>
