<?xml version="1.0" encoding="UTF-8" standalone="no"?>
<!DOCTYPE svg PUBLIC "-//W3C//DTD SVG 1.1//EN"
 "http://www.w3.org/Graphics/SVG/1.1/DTD/svg11.dtd">
<!-- Generated by graphviz version 2.43.0 (0)
 -->
<!-- Pages: 1 -->
<svg width="1643pt" height="410pt"
 viewBox="0.00 0.00 1642.53 410.00" xmlns="http://www.w3.org/2000/svg" xmlns:xlink="http://www.w3.org/1999/xlink">
<g id="graph0" class="graph" transform="scale(1 1) rotate(0) translate(4 406)">
<polygon fill="white" stroke="transparent" points="-4,4 -4,-406 1638.53,-406 1638.53,4 -4,4"/>
<!-- n1 -->
<g id="node1" class="node">
<title>n1</title>
<polygon fill="lightblue" stroke="black" points="881.5,-384 783.5,-402 587.5,-402 489.5,-384 587.5,-366 783.5,-366 881.5,-384"/>
<text text-anchor="middle" x="685.5" y="-380.3" font-family="Arial" font-size="14.00">Draw animals in their habitats with labels</text>
</g>
<!-- n2 -->
<g id="node2" class="node">
<title>n2</title>
<polygon fill="#fffdd0" stroke="black" points="300.5,-280 8.5,-280 8.5,-244 300.5,-244 300.5,-280"/>
<text text-anchor="middle" x="154.5" y="-258.3" font-family="Arial" font-size="14.00">Fish drawn with bright colors and labeled &#39;fish&#39;</text>
</g>
<!-- n1&#45;&gt;n2 -->
<g id="edge1" class="edge">
<title>n1&#45;&gt;n2</title>
<path fill="none" stroke="black" d="M610.27,-366C512.53,-343.91 342.31,-305.44 239.85,-282.29"/>
<polygon fill="black" stroke="black" points="240.37,-278.82 229.84,-280.03 238.82,-285.65 240.37,-278.82"/>
</g>
<!-- n3 -->
<g id="node3" class="node">
<title>n3</title>
<polygon fill="#fffdd0" stroke="black" points="676,-280 359,-280 359,-244 676,-244 676,-280"/>
<text text-anchor="middle" x="517.5" y="-258.3" font-family="Arial" font-size="14.00">Wavy blue lines representing water labeled &#39;water&#39;</text>
</g>
<!-- n1&#45;&gt;n3 -->
<g id="edge2" class="edge">
<title>n1&#45;&gt;n3</title>
<path fill="none" stroke="black" d="M661.43,-365.81C632.11,-344.87 582.47,-309.41 549.84,-286.1"/>
<polygon fill="black" stroke="black" points="551.7,-283.13 541.53,-280.16 547.63,-288.82 551.7,-283.13"/>
</g>
<!-- n4 -->
<g id="node4" class="node">
<title>n4</title>
<polygon fill="#fffdd0" stroke="black" points="973,-280 734,-280 734,-244 973,-244 973,-280"/>
<text text-anchor="middle" x="853.5" y="-258.3" font-family="Arial" font-size="14.00">Green wiggly lines labeled &#39;seaweed&#39;</text>
</g>
<!-- n1&#45;&gt;n4 -->
<g id="edge3" class="edge">
<title>n1&#45;&gt;n4</title>
<path fill="none" stroke="black" d="M709.57,-365.81C738.89,-344.87 788.53,-309.41 821.16,-286.1"/>
<polygon fill="black" stroke="black" points="823.37,-288.82 829.47,-280.16 819.3,-283.13 823.37,-288.82"/>
</g>
<!-- n5 -->
<g id="node5" class="node">
<title>n5</title>
<polygon fill="#fffdd0" stroke="black" points="1305.5,-280 1117.5,-280 1117.5,-244 1305.5,-244 1305.5,-280"/>
<text text-anchor="middle" x="1211.5" y="-258.3" font-family="Arial" font-size="14.00">Sun with a face labeled &#39;sun&#39;</text>
</g>
<!-- n1&#45;&gt;n5 -->
<g id="edge4" class="edge">
<title>n1&#45;&gt;n5</title>
<path fill="none" stroke="black" d="M760.03,-366C856.85,-343.91 1025.5,-305.44 1127,-282.29"/>
<polygon fill="black" stroke="black" points="1127.93,-285.67 1136.9,-280.03 1126.37,-278.84 1127.93,-285.67"/>
</g>
<!-- n6 -->
<g id="node6" class="node">
<title>n6</title>
<path fill="palegreen" stroke="black" d="M297,-158C297,-158 12,-158 12,-158 6,-158 0,-152 0,-146 0,-146 0,-134 0,-134 0,-128 6,-122 12,-122 12,-122 297,-122 297,-122 303,-122 309,-128 309,-134 309,-134 309,-146 309,-146 309,-152 303,-158 297,-158"/>
<text text-anchor="middle" x="154.5" y="-136.3" font-family="Arial" font-size="14.00">Understanding of labeling animals in their habitat</text>
</g>
<!-- n2&#45;&gt;n6 -->
<g id="edge5" class="edge">
<title>n2&#45;&gt;n6</title>
<path fill="none" stroke="black" d="M154.5,-243.81C154.5,-224.11 154.5,-191.58 154.5,-168.39"/>
<polygon fill="black" stroke="black" points="158,-168.16 154.5,-158.16 151,-168.16 158,-168.16"/>
</g>
<!-- n7 -->
<g id="node7" class="node">
<title>n7</title>
<path fill="palegreen" stroke="black" d="M639.5,-158C639.5,-158 395.5,-158 395.5,-158 389.5,-158 383.5,-152 383.5,-146 383.5,-146 383.5,-134 383.5,-134 383.5,-128 389.5,-122 395.5,-122 395.5,-122 639.5,-122 639.5,-122 645.5,-122 651.5,-128 651.5,-134 651.5,-134 651.5,-146 651.5,-146 651.5,-152 645.5,-158 639.5,-158"/>
<text text-anchor="middle" x="517.5" y="-136.3" font-family="Arial" font-size="14.00">Basic representation of fish needing water</text>
</g>
<!-- n3&#45;&gt;n7 -->
<g id="edge6" class="edge">
<title>n3&#45;&gt;n7</title>
<path fill="none" stroke="black" d="M517.5,-243.81C517.5,-224.11 517.5,-191.58 517.5,-168.39"/>
<polygon fill="black" stroke="black" points="521,-168.16 517.5,-158.16 514,-168.16 521,-168.16"/>
</g>
<!-- n8 -->
<g id="node8" class="node">
<title>n8</title>
<path fill="palegreen" stroke="black" d="M928.5,-158C928.5,-158 740.5,-158 740.5,-158 734.5,-158 728.5,-152 728.5,-146 728.5,-146 728.5,-134 728.5,-134 728.5,-128 734.5,-122 740.5,-122 740.5,-122 928.5,-122 928.5,-122 934.5,-122 940.5,-128 940.5,-134 940.5,-134 940.5,-146 940.5,-146 940.5,-152 934.5,-158 928.5,-158"/>
<text text-anchor="middle" x="834.5" y="-136.3" font-family="Arial" font-size="14.00">Recognition of seaweed in water</text>
</g>
<!-- n4&#45;&gt;n8 -->
<g id="edge7" class="edge">
<title>n4&#45;&gt;n8</title>
<path fill="none" stroke="black" d="M850.78,-243.81C847.65,-224.02 842.46,-191.29 838.79,-168.08"/>
<polygon fill="black" stroke="black" points="842.24,-167.49 837.22,-158.16 835.33,-168.58 842.24,-167.49"/>
</g>
<!-- n9 -->
<g id="node9" class="node">
<title>n9</title>
<polygon fill="lightcoral" stroke="black" points="1316.5,-158 998.44,-140 1316.5,-122 1634.56,-140 1316.5,-158"/>
<text text-anchor="middle" x="1316.5" y="-136.3" font-family="Arial" font-size="14.00">Misinterpretation of the sun&#39;s role in underwater habitat</text>
</g>
<!-- n5&#45;&gt;n9 -->
<g id="edge8" class="edge">
<title>n5&#45;&gt;n9</title>
<path fill="none" stroke="black" d="M1226.5,-243.81C1244.6,-223.17 1275,-188.43 1295.4,-165.12"/>
<polygon fill="black" stroke="black" points="1298.22,-167.21 1302.2,-157.39 1292.97,-162.59 1298.22,-167.21"/>
</g>
<!-- n10 -->
<g id="node10" class="node">
<title>n10</title>
<polygon fill="#f28e8e" stroke="black" points="1501.5,-36 1131.5,-36 1131.5,0 1501.5,0 1501.5,-36"/>
<text text-anchor="middle" x="1316.5" y="-14.3" font-family="Arial" font-size="14.00">Clarify that sun is not directly needed in underwater scenes</text>
</g>
<!-- n9&#45;&gt;n10 -->
<g id="edge9" class="edge">
<title>n9&#45;&gt;n10</title>
<path fill="none" stroke="black" d="M1316.5,-121.81C1316.5,-102.11 1316.5,-69.58 1316.5,-46.39"/>
<polygon fill="black" stroke="black" points="1320,-46.16 1316.5,-36.16 1313,-46.16 1320,-46.16"/>
</g>
</g>
</svg>
