<?xml version="1.0" encoding="UTF-8" standalone="no"?>
<!DOCTYPE svg PUBLIC "-//W3C//DTD SVG 1.1//EN"
 "http://www.w3.org/Graphics/SVG/1.1/DTD/svg11.dtd">
<!-- Generated by graphviz version 2.43.0 (0)
 -->
<!-- Pages: 1 -->
<svg width="1783pt" height="410pt"
 viewBox="0.00 0.00 1783.00 410.00" xmlns="http://www.w3.org/2000/svg" xmlns:xlink="http://www.w3.org/1999/xlink">
<g id="graph0" class="graph" transform="scale(1 1) rotate(0) translate(4 406)">
<polygon fill="white" stroke="transparent" points="-4,4 -4,-406 1779,-406 1779,4 -4,4"/>
<!-- n1 -->
<g id="node1" class="node">
<title>n1</title>
<polygon fill="lightblue" stroke="black" points="768.5,-384 657,-402 434,-402 322.5,-384 434,-366 657,-366 768.5,-384"/>
<text text-anchor="middle" x="545.5" y="-380.3" font-family="Arial" font-size="14.00">Draw a string telephone between two students.</text>
</g>
<!-- n2 -->
<g id="node2" class="node">
<title>n2</title>
<polygon fill="#fffdd0" stroke="black" points="318.5,-280 154.5,-280 154.5,-244 318.5,-244 318.5,-280"/>
<text text-anchor="middle" x="236.5" y="-258.3" font-family="Arial" font-size="14.00">Two stick figure students</text>
</g>
<!-- n1&#45;&gt;n2 -->
<g id="edge1" class="edge">
<title>n1&#45;&gt;n2</title>
<path fill="none" stroke="black" d="M501.56,-365.93C445.84,-344.3 349.85,-307.02 289.95,-283.76"/>
<polygon fill="black" stroke="black" points="290.88,-280.37 280.29,-280.01 288.35,-286.89 290.88,-280.37"/>
</g>
<!-- n3 -->
<g id="node3" class="node">
<title>n3</title>
<polygon fill="#fffdd0" stroke="black" points="820.5,-280 580.5,-280 580.5,-244 820.5,-244 820.5,-280"/>
<text text-anchor="middle" x="700.5" y="-258.3" font-family="Arial" font-size="14.00">Single straight line connecting figures</text>
</g>
<!-- n1&#45;&gt;n3 -->
<g id="edge2" class="edge">
<title>n1&#45;&gt;n3</title>
<path fill="none" stroke="black" d="M567.71,-365.81C594.64,-344.96 640.16,-309.71 670.28,-286.4"/>
<polygon fill="black" stroke="black" points="672.57,-289.05 678.33,-280.16 668.28,-283.52 672.57,-289.05"/>
</g>
<!-- n4 -->
<g id="node4" class="node">
<title>n4</title>
<path fill="palegreen" stroke="black" d="M153,-158C153,-158 12,-158 12,-158 6,-158 0,-152 0,-146 0,-146 0,-134 0,-134 0,-128 6,-122 12,-122 12,-122 153,-122 153,-122 159,-122 165,-128 165,-134 165,-134 165,-146 165,-146 165,-152 159,-158 153,-158"/>
<text text-anchor="middle" x="82.5" y="-136.3" font-family="Arial" font-size="14.00">Represents two students</text>
</g>
<!-- n2&#45;&gt;n4 -->
<g id="edge3" class="edge">
<title>n2&#45;&gt;n4</title>
<path fill="none" stroke="black" d="M214.44,-243.81C187.68,-222.96 142.45,-187.71 112.53,-164.4"/>
<polygon fill="black" stroke="black" points="114.56,-161.54 104.52,-158.16 110.26,-167.07 114.56,-161.54"/>
</g>
<!-- n5 -->
<g id="node5" class="node">
<title>n5</title>
<polygon fill="lightcoral" stroke="black" points="700.5,-158 222.5,-140 700.5,-122 1178.5,-140 700.5,-158"/>
<text text-anchor="middle" x="700.5" y="-136.3" font-family="Arial" font-size="14.00">Represents incorrect or incomplete understanding of string as telephone component</text>
</g>
<!-- n3&#45;&gt;n5 -->
<g id="edge4" class="edge">
<title>n3&#45;&gt;n5</title>
<path fill="none" stroke="black" d="M700.5,-243.81C700.5,-224.11 700.5,-191.58 700.5,-168.39"/>
<polygon fill="black" stroke="black" points="704,-168.16 700.5,-158.16 697,-168.16 704,-168.16"/>
</g>
<!-- n7 -->
<g id="node6" class="node">
<title>n7</title>
<polygon fill="lightcoral" stroke="black" points="1505.5,-158 1236,-140 1505.5,-122 1775,-140 1505.5,-158"/>
<text text-anchor="middle" x="1505.5" y="-136.3" font-family="Arial" font-size="14.00">No visible parts for sending or receiving sound</text>
</g>
<!-- n3&#45;&gt;n7 -->
<g id="edge5" class="edge">
<title>n3&#45;&gt;n7</title>
<path fill="none" stroke="black" d="M814.56,-244C976.36,-219.88 1269.2,-176.23 1416.2,-154.31"/>
<polygon fill="black" stroke="black" points="1417.13,-157.71 1426.5,-152.77 1416.09,-150.79 1417.13,-157.71"/>
</g>
<!-- n6 -->
<g id="node7" class="node">
<title>n6</title>
<polygon fill="#f28e8e" stroke="black" points="861.5,-36 539.5,-36 539.5,0 861.5,0 861.5,-36"/>
<text text-anchor="middle" x="700.5" y="-14.3" font-family="Arial" font-size="14.00">Consider drawing the string clearly to connect cans</text>
</g>
<!-- n5&#45;&gt;n6 -->
<g id="edge6" class="edge">
<title>n5&#45;&gt;n6</title>
<path fill="none" stroke="black" d="M700.5,-121.81C700.5,-102.11 700.5,-69.58 700.5,-46.39"/>
<polygon fill="black" stroke="black" points="704,-46.16 700.5,-36.16 697,-46.16 704,-46.16"/>
</g>
<!-- n8 -->
<g id="node8" class="node">
<title>n8</title>
<polygon fill="#f28e8e" stroke="black" points="1646.5,-36 1364.5,-36 1364.5,0 1646.5,0 1646.5,-36"/>
<text text-anchor="middle" x="1505.5" y="-14.3" font-family="Arial" font-size="14.00">Draw cans at each end to show sound travel</text>
</g>
<!-- n7&#45;&gt;n8 -->
<g id="edge7" class="edge">
<title>n7&#45;&gt;n8</title>
<path fill="none" stroke="black" d="M1505.5,-121.81C1505.5,-102.11 1505.5,-69.58 1505.5,-46.39"/>
<polygon fill="black" stroke="black" points="1509,-46.16 1505.5,-36.16 1502,-46.16 1509,-46.16"/>
</g>
</g>
</svg>
