<?xml version="1.0" encoding="UTF-8" standalone="no"?>
<!DOCTYPE svg PUBLIC "-//W3C//DTD SVG 1.1//EN"
 "http://www.w3.org/Graphics/SVG/1.1/DTD/svg11.dtd">
<!-- Generated by graphviz version 2.43.0 (0)
 -->
<!-- Pages: 1 -->
<svg width="1641pt" height="410pt"
 viewBox="0.00 0.00 1641.00 410.00" xmlns="http://www.w3.org/2000/svg" xmlns:xlink="http://www.w3.org/1999/xlink">
<g id="graph0" class="graph" transform="scale(1 1) rotate(0) translate(4 406)">
<polygon fill="white" stroke="transparent" points="-4,4 -4,-406 1637,-406 1637,4 -4,4"/>
<!-- n1 -->
<g id="node1" class="node">
<title>n1</title>
<polygon fill="lightblue" stroke="black" points="933.5,-384 822,-402 599,-402 487.5,-384 599,-366 822,-366 933.5,-384"/>
<text text-anchor="middle" x="710.5" y="-380.3" font-family="Arial" font-size="14.00">Draw a string telephone between two students.</text>
</g>
<!-- n2 -->
<g id="node2" class="node">
<title>n2</title>
<polygon fill="#fffdd0" stroke="black" points="519,-280 210,-280 210,-244 519,-244 519,-280"/>
<text text-anchor="middle" x="364.5" y="-258.3" font-family="Arial" font-size="14.00">Drawing includes two students with smiling faces</text>
</g>
<!-- n1&#45;&gt;n2 -->
<g id="edge1" class="edge">
<title>n1&#45;&gt;n2</title>
<path fill="none" stroke="black" d="M661.29,-365.93C598.52,-344.16 490.09,-306.56 423.11,-283.33"/>
<polygon fill="black" stroke="black" points="424.13,-279.98 413.54,-280.01 421.84,-286.59 424.13,-279.98"/>
</g>
<!-- n3 -->
<g id="node3" class="node">
<title>n3</title>
<polygon fill="#fffdd0" stroke="black" points="825.5,-280 595.5,-280 595.5,-244 825.5,-244 825.5,-280"/>
<text text-anchor="middle" x="710.5" y="-258.3" font-family="Arial" font-size="14.00">Drawing includes a string telephone</text>
</g>
<!-- n1&#45;&gt;n3 -->
<g id="edge2" class="edge">
<title>n1&#45;&gt;n3</title>
<path fill="none" stroke="black" d="M710.5,-365.81C710.5,-346.11 710.5,-313.58 710.5,-290.39"/>
<polygon fill="black" stroke="black" points="714,-290.16 710.5,-280.16 707,-290.16 714,-290.16"/>
</g>
<!-- n4 -->
<g id="node4" class="node">
<title>n4</title>
<polygon fill="#fffdd0" stroke="black" points="1404,-280 1249,-280 1249,-244 1404,-244 1404,-280"/>
<text text-anchor="middle" x="1326.5" y="-258.3" font-family="Arial" font-size="14.00">Labels: cups and string</text>
</g>
<!-- n1&#45;&gt;n4 -->
<g id="edge3" class="edge">
<title>n1&#45;&gt;n4</title>
<path fill="none" stroke="black" d="M797.78,-366C914.85,-343.19 1121.5,-302.93 1238.8,-280.08"/>
<polygon fill="black" stroke="black" points="1239.65,-283.48 1248.8,-278.13 1238.31,-276.61 1239.65,-283.48"/>
</g>
<!-- n5 -->
<g id="node5" class="node">
<title>n5</title>
<path fill="palegreen" stroke="black" d="M307.5,-158C307.5,-158 15.5,-158 15.5,-158 9.5,-158 3.5,-152 3.5,-146 3.5,-146 3.5,-134 3.5,-134 3.5,-128 9.5,-122 15.5,-122 15.5,-122 307.5,-122 307.5,-122 313.5,-122 319.5,-128 319.5,-134 319.5,-134 319.5,-146 319.5,-146 319.5,-152 313.5,-158 307.5,-158"/>
<text text-anchor="middle" x="161.5" y="-136.3" font-family="Arial" font-size="14.00">Students want to communicate over long distance</text>
</g>
<!-- n2&#45;&gt;n5 -->
<g id="edge4" class="edge">
<title>n2&#45;&gt;n5</title>
<path fill="none" stroke="black" d="M335.42,-243.81C299.69,-222.69 238.99,-186.81 199.58,-163.51"/>
<polygon fill="black" stroke="black" points="200.92,-160.24 190.53,-158.16 197.36,-166.26 200.92,-160.24"/>
</g>
<!-- n6 -->
<g id="node6" class="node">
<title>n6</title>
<path fill="palegreen" stroke="black" d="M665,-158C665,-158 390,-158 390,-158 384,-158 378,-152 378,-146 378,-146 378,-134 378,-134 378,-128 384,-122 390,-122 390,-122 665,-122 665,-122 671,-122 677,-128 677,-134 677,-134 677,-146 677,-146 677,-152 671,-158 665,-158"/>
<text text-anchor="middle" x="527.5" y="-136.3" font-family="Arial" font-size="14.00">Understands basic structure of string telephone</text>
</g>
<!-- n3&#45;&gt;n6 -->
<g id="edge5" class="edge">
<title>n3&#45;&gt;n6</title>
<path fill="none" stroke="black" d="M684.28,-243.81C652.21,-222.78 597.81,-187.11 562.27,-163.8"/>
<polygon fill="black" stroke="black" points="563.95,-160.72 553.67,-158.16 560.11,-166.57 563.95,-160.72"/>
</g>
<!-- n7 -->
<g id="node7" class="node">
<title>n7</title>
<polygon fill="lightcoral" stroke="black" points="1031.5,-158 734.5,-140 1031.5,-122 1328.5,-140 1031.5,-158"/>
<text text-anchor="middle" x="1031.5" y="-136.3" font-family="Arial" font-size="14.00">Understanding of sound transmission is incomplete</text>
</g>
<!-- n3&#45;&gt;n7 -->
<g id="edge6" class="edge">
<title>n3&#45;&gt;n7</title>
<path fill="none" stroke="black" d="M756.15,-243.93C816.12,-221.52 921.01,-182.3 982.57,-159.29"/>
<polygon fill="black" stroke="black" points="983.92,-162.52 992.06,-155.74 981.47,-155.97 983.92,-162.52"/>
</g>
<!-- n8 -->
<g id="node8" class="node">
<title>n8</title>
<path fill="palegreen" stroke="black" d="M1621,-158C1621,-158 1398,-158 1398,-158 1392,-158 1386,-152 1386,-146 1386,-146 1386,-134 1386,-134 1386,-128 1392,-122 1398,-122 1398,-122 1621,-122 1621,-122 1627,-122 1633,-128 1633,-134 1633,-134 1633,-146 1633,-146 1633,-152 1627,-158 1621,-158"/>
<text text-anchor="middle" x="1509.5" y="-136.3" font-family="Arial" font-size="14.00">Student knows to label important parts</text>
</g>
<!-- n4&#45;&gt;n8 -->
<g id="edge7" class="edge">
<title>n4&#45;&gt;n8</title>
<path fill="none" stroke="black" d="M1352.7,-243.81C1384.8,-222.78 1439.2,-187.11 1474.7,-163.8"/>
<polygon fill="black" stroke="black" points="1476.86,-166.57 1483.3,-158.16 1473.02,-160.72 1476.86,-166.57"/>
</g>
<!-- n10 -->
<g id="node9" class="node">
<title>n10</title>
<polygon fill="#f28e8e" stroke="black" points="323,-36 0,-36 0,0 323,0 323,-36"/>
<text text-anchor="middle" x="161.5" y="-14.3" font-family="Arial" font-size="14.00">Add conversation bubbles to depict communication</text>
</g>
<!-- n5&#45;&gt;n10 -->
<g id="edge8" class="edge">
<title>n5&#45;&gt;n10</title>
<path fill="none" stroke="black" d="M161.5,-121.81C161.5,-102.11 161.5,-69.58 161.5,-46.39"/>
<polygon fill="black" stroke="black" points="165,-46.16 161.5,-36.16 158,-46.16 165,-46.16"/>
</g>
<!-- n9 -->
<g id="node10" class="node">
<title>n9</title>
<polygon fill="#f28e8e" stroke="black" points="1205.5,-36 857.5,-36 857.5,0 1205.5,0 1205.5,-36"/>
<text text-anchor="middle" x="1031.5" y="-14.3" font-family="Arial" font-size="14.00">Include arrows or sound waves to show sound direction</text>
</g>
<!-- n7&#45;&gt;n9 -->
<g id="edge9" class="edge">
<title>n7&#45;&gt;n9</title>
<path fill="none" stroke="black" d="M1031.5,-121.81C1031.5,-102.11 1031.5,-69.58 1031.5,-46.39"/>
<polygon fill="black" stroke="black" points="1035,-46.16 1031.5,-36.16 1028,-46.16 1035,-46.16"/>
</g>
</g>
</svg>
