<?xml version="1.0" encoding="UTF-8" standalone="no"?>
<!DOCTYPE svg PUBLIC "-//W3C//DTD SVG 1.1//EN"
 "http://www.w3.org/Graphics/SVG/1.1/DTD/svg11.dtd">
<!-- Generated by graphviz version 2.43.0 (0)
 -->
<!-- Pages: 1 -->
<svg width="1405pt" height="410pt"
 viewBox="0.00 0.00 1405.00 410.00" xmlns="http://www.w3.org/2000/svg" xmlns:xlink="http://www.w3.org/1999/xlink">
<g id="graph0" class="graph" transform="scale(1 1) rotate(0) translate(4 406)">
<polygon fill="white" stroke="transparent" points="-4,4 -4,-406 1401,-406 1401,4 -4,4"/>
<!-- n1 -->
<g id="node1" class="node">
<title>n1</title>
<polygon fill="lightblue" stroke="black" points="1043,-384 945,-402 749,-402 651,-384 749,-366 945,-366 1043,-384"/>
<text text-anchor="middle" x="847" y="-380.3" font-family="Arial" font-size="14.00">Draw animals in their habitats with labels</text>
</g>
<!-- n2 -->
<g id="node2" class="node">
<title>n2</title>
<polygon fill="#fffdd0" stroke="black" points="502,-280 248,-280 248,-244 502,-244 502,-280"/>
<text text-anchor="middle" x="375" y="-258.3" font-family="Arial" font-size="14.00">A fish drawn with lines under it for water</text>
</g>
<!-- n1&#45;&gt;n2 -->
<g id="edge1" class="edge">
<title>n1&#45;&gt;n2</title>
<path fill="none" stroke="black" d="M779.88,-365.93C693.19,-343.9 542.67,-305.63 451.61,-282.48"/>
<polygon fill="black" stroke="black" points="452.44,-279.08 441.89,-280.01 450.72,-285.87 452.44,-279.08"/>
</g>
<!-- n3 -->
<g id="node3" class="node">
<title>n3</title>
<polygon fill="#fffdd0" stroke="black" points="988.5,-280 705.5,-280 705.5,-244 988.5,-244 988.5,-280"/>
<text text-anchor="middle" x="847" y="-258.3" font-family="Arial" font-size="14.00">A bird drawn on a tree with branches labeled</text>
</g>
<!-- n1&#45;&gt;n3 -->
<g id="edge2" class="edge">
<title>n1&#45;&gt;n3</title>
<path fill="none" stroke="black" d="M847,-365.81C847,-346.11 847,-313.58 847,-290.39"/>
<polygon fill="black" stroke="black" points="850.5,-290.16 847,-280.16 843.5,-290.16 850.5,-290.16"/>
</g>
<!-- n4 -->
<g id="node4" class="node">
<title>n4</title>
<polygon fill="#fffdd0" stroke="black" points="1346,-280 1130,-280 1130,-244 1346,-244 1346,-280"/>
<text text-anchor="middle" x="1238" y="-258.3" font-family="Arial" font-size="14.00">A bear drawn in forest&#45;like setting</text>
</g>
<!-- n1&#45;&gt;n4 -->
<g id="edge3" class="edge">
<title>n1&#45;&gt;n4</title>
<path fill="none" stroke="black" d="M902.61,-365.93C973.83,-344.07 1097.1,-306.25 1172.7,-283.04"/>
<polygon fill="black" stroke="black" points="1174.06,-286.28 1182.6,-280.01 1172.01,-279.59 1174.06,-286.28"/>
</g>
<!-- n5 -->
<g id="node5" class="node">
<title>n5</title>
<path fill="palegreen" stroke="black" d="M158,-158C158,-158 12,-158 12,-158 6,-158 0,-152 0,-146 0,-146 0,-134 0,-134 0,-128 6,-122 12,-122 12,-122 158,-122 158,-122 164,-122 170,-128 170,-134 170,-134 170,-146 170,-146 170,-152 164,-158 158,-158"/>
<text text-anchor="middle" x="85" y="-136.3" font-family="Arial" font-size="14.00">Fish needs water to swim</text>
</g>
<!-- n2&#45;&gt;n5 -->
<g id="edge4" class="edge">
<title>n2&#45;&gt;n5</title>
<path fill="none" stroke="black" d="M333.76,-243.93C281.58,-222.34 191.75,-185.17 135.51,-161.9"/>
<polygon fill="black" stroke="black" points="136.68,-158.6 126.1,-158.01 134,-165.06 136.68,-158.6"/>
</g>
<!-- n6 -->
<g id="node6" class="node">
<title>n6</title>
<polygon fill="lightcoral" stroke="black" points="375,-158 227.87,-140 375,-122 522.13,-140 375,-158"/>
<text text-anchor="middle" x="375" y="-136.3" font-family="Arial" font-size="14.00">Fish drawn above water</text>
</g>
<!-- n2&#45;&gt;n6 -->
<g id="edge5" class="edge">
<title>n2&#45;&gt;n6</title>
<path fill="none" stroke="black" d="M375,-243.81C375,-224.11 375,-191.58 375,-168.39"/>
<polygon fill="black" stroke="black" points="378.5,-168.16 375,-158.16 371.5,-168.16 378.5,-168.16"/>
</g>
<!-- n7 -->
<g id="node7" class="node">
<title>n7</title>
<path fill="palegreen" stroke="black" d="M727.5,-158C727.5,-158 592.5,-158 592.5,-158 586.5,-158 580.5,-152 580.5,-146 580.5,-146 580.5,-134 580.5,-134 580.5,-128 586.5,-122 592.5,-122 592.5,-122 727.5,-122 727.5,-122 733.5,-122 739.5,-128 739.5,-134 739.5,-134 739.5,-146 739.5,-146 739.5,-152 733.5,-158 727.5,-158"/>
<text text-anchor="middle" x="660" y="-136.3" font-family="Arial" font-size="14.00">Tree is a habitat for bird</text>
</g>
<!-- n3&#45;&gt;n7 -->
<g id="edge6" class="edge">
<title>n3&#45;&gt;n7</title>
<path fill="none" stroke="black" d="M820.21,-243.81C787.44,-222.78 731.85,-187.11 695.54,-163.8"/>
<polygon fill="black" stroke="black" points="697.05,-160.61 686.74,-158.16 693.27,-166.5 697.05,-160.61"/>
</g>
<!-- n8 -->
<g id="node8" class="node">
<title>n8</title>
<polygon fill="lightcoral" stroke="black" points="992,-158 797,-140 992,-122 1187,-140 992,-158"/>
<text text-anchor="middle" x="992" y="-136.3" font-family="Arial" font-size="14.00">Mislabeling branches as the tree</text>
</g>
<!-- n3&#45;&gt;n8 -->
<g id="edge7" class="edge">
<title>n3&#45;&gt;n8</title>
<path fill="none" stroke="black" d="M867.77,-243.81C893.43,-222.57 937.13,-186.41 965.26,-163.13"/>
<polygon fill="black" stroke="black" points="967.64,-165.7 973.11,-156.63 963.18,-160.31 967.64,-165.7"/>
</g>
<!-- n9 -->
<g id="node9" class="node">
<title>n9</title>
<path fill="palegreen" stroke="black" d="M1385,-158C1385,-158 1257,-158 1257,-158 1251,-158 1245,-152 1245,-146 1245,-146 1245,-134 1245,-134 1245,-128 1251,-122 1257,-122 1257,-122 1385,-122 1385,-122 1391,-122 1397,-128 1397,-134 1397,-134 1397,-146 1397,-146 1397,-152 1391,-158 1385,-158"/>
<text text-anchor="middle" x="1321" y="-136.3" font-family="Arial" font-size="14.00">Bear in a forest setting</text>
</g>
<!-- n4&#45;&gt;n9 -->
<g id="edge8" class="edge">
<title>n4&#45;&gt;n9</title>
<path fill="none" stroke="black" d="M1249.9,-243.81C1263.9,-223.58 1287.2,-189.81 1303.3,-166.52"/>
<polygon fill="black" stroke="black" points="1306.28,-168.37 1309.1,-158.16 1300.52,-164.38 1306.28,-168.37"/>
</g>
<!-- n10 -->
<g id="node10" class="node">
<title>n10</title>
<polygon fill="#f28e8e" stroke="black" points="658.5,-36 405.5,-36 405.5,0 658.5,0 658.5,-36"/>
<text text-anchor="middle" x="532" y="-14.3" font-family="Arial" font-size="14.00">Provide a clearer distinction for habitats</text>
</g>
<!-- n6&#45;&gt;n10 -->
<g id="edge9" class="edge">
<title>n6&#45;&gt;n10</title>
<path fill="none" stroke="black" d="M394.25,-124.29C421.01,-103.83 469.73,-66.6 501.47,-42.33"/>
<polygon fill="black" stroke="black" points="503.73,-45.01 509.55,-36.16 499.48,-39.45 503.73,-45.01"/>
</g>
<!-- n8&#45;&gt;n10 -->
<g id="edge10" class="edge">
<title>n8&#45;&gt;n10</title>
<path fill="none" stroke="black" d="M943.64,-126.38C863.44,-105.46 702.33,-63.43 607.19,-38.61"/>
<polygon fill="black" stroke="black" points="607.9,-35.18 597.34,-36.05 606.13,-41.96 607.9,-35.18"/>
</g>
<!-- n11 -->
<g id="node11" class="node">
<title>n11</title>
<polygon fill="#f28e8e" stroke="black" points="1111.5,-36 872.5,-36 872.5,0 1111.5,0 1111.5,-36"/>
<text text-anchor="middle" x="992" y="-14.3" font-family="Arial" font-size="14.00">Label all components like sun and air</text>
</g>
<!-- n8&#45;&gt;n11 -->
<g id="edge11" class="edge">
<title>n8&#45;&gt;n11</title>
<path fill="none" stroke="black" d="M992,-121.81C992,-102.11 992,-69.58 992,-46.39"/>
<polygon fill="black" stroke="black" points="995.5,-46.16 992,-36.16 988.5,-46.16 995.5,-46.16"/>
</g>
</g>
</svg>
