<?xml version="1.0" encoding="UTF-8" standalone="no"?>
<!DOCTYPE svg PUBLIC "-//W3C//DTD SVG 1.1//EN"
 "http://www.w3.org/Graphics/SVG/1.1/DTD/svg11.dtd">
<!-- Generated by graphviz version 2.43.0 (0)
 -->
<!-- Pages: 1 -->
<svg width="1121pt" height="410pt"
 viewBox="0.00 0.00 1121.15 410.00" xmlns="http://www.w3.org/2000/svg" xmlns:xlink="http://www.w3.org/1999/xlink">
<g id="graph0" class="graph" transform="scale(1 1) rotate(0) translate(4 406)">
<polygon fill="white" stroke="transparent" points="-4,4 -4,-406 1117.15,-406 1117.15,4 -4,4"/>
<!-- n1 -->
<g id="node1" class="node">
<title>n1</title>
<polygon fill="lightblue" stroke="black" points="523.5,-384 431.5,-402 247.5,-402 155.5,-384 247.5,-366 431.5,-366 523.5,-384"/>
<text text-anchor="middle" x="339.5" y="-380.3" font-family="Arial" font-size="14.00">Illustrate plants with and without water</text>
</g>
<!-- n2 -->
<g id="node2" class="node">
<title>n2</title>
<polygon fill="#fffdd0" stroke="black" points="310.5,-280 2.5,-280 2.5,-244 310.5,-244 310.5,-280"/>
<text text-anchor="middle" x="156.5" y="-258.3" font-family="Arial" font-size="14.00">Healthy plant with simple green stem and leaves</text>
</g>
<!-- n1&#45;&gt;n2 -->
<g id="edge1" class="edge">
<title>n1&#45;&gt;n2</title>
<path fill="none" stroke="black" d="M313.28,-365.81C281.21,-344.78 226.81,-309.11 191.27,-285.8"/>
<polygon fill="black" stroke="black" points="192.95,-282.72 182.67,-280.16 189.11,-288.57 192.95,-282.72"/>
</g>
<!-- n3 -->
<g id="node3" class="node">
<title>n3</title>
<polygon fill="#fffdd0" stroke="black" points="676.5,-280 368.5,-280 368.5,-244 676.5,-244 676.5,-280"/>
<text text-anchor="middle" x="522.5" y="-258.3" font-family="Arial" font-size="14.00">Wilting plant with bent stem and drooping leaves</text>
</g>
<!-- n1&#45;&gt;n3 -->
<g id="edge2" class="edge">
<title>n1&#45;&gt;n3</title>
<path fill="none" stroke="black" d="M365.72,-365.81C397.79,-344.78 452.19,-309.11 487.73,-285.8"/>
<polygon fill="black" stroke="black" points="489.89,-288.57 496.33,-280.16 486.05,-282.72 489.89,-288.57"/>
</g>
<!-- n4 -->
<g id="node4" class="node">
<title>n4</title>
<path fill="palegreen" stroke="black" d="M301,-158C301,-158 12,-158 12,-158 6,-158 0,-152 0,-146 0,-146 0,-134 0,-134 0,-128 6,-122 12,-122 12,-122 301,-122 301,-122 307,-122 313,-128 313,-134 313,-134 313,-146 313,-146 313,-152 307,-158 301,-158"/>
<text text-anchor="middle" x="156.5" y="-136.3" font-family="Arial" font-size="14.00">Understands healthy plants receive enough water</text>
</g>
<!-- n2&#45;&gt;n4 -->
<g id="edge3" class="edge">
<title>n2&#45;&gt;n4</title>
<path fill="none" stroke="black" d="M156.5,-243.81C156.5,-224.11 156.5,-191.58 156.5,-168.39"/>
<polygon fill="black" stroke="black" points="160,-168.16 156.5,-158.16 153,-168.16 160,-168.16"/>
</g>
<!-- n5 -->
<g id="node5" class="node">
<title>n5</title>
<path fill="palegreen" stroke="black" d="M626,-158C626,-158 395,-158 395,-158 389,-158 383,-152 383,-146 383,-146 383,-134 383,-134 383,-128 389,-122 395,-122 395,-122 626,-122 626,-122 632,-122 638,-128 638,-134 638,-134 638,-146 638,-146 638,-152 632,-158 626,-158"/>
<text text-anchor="middle" x="510.5" y="-136.3" font-family="Arial" font-size="14.00">Understands wilting due to lack of water</text>
</g>
<!-- n3&#45;&gt;n5 -->
<g id="edge4" class="edge">
<title>n3&#45;&gt;n5</title>
<path fill="none" stroke="black" d="M520.78,-243.81C518.81,-224.11 515.56,-191.58 513.24,-168.39"/>
<polygon fill="black" stroke="black" points="516.69,-167.76 512.22,-158.16 509.73,-168.46 516.69,-167.76"/>
</g>
<!-- n6 -->
<g id="node6" class="node">
<title>n6</title>
<polygon fill="lightcoral" stroke="black" points="904.5,-158 695.7,-140 904.5,-122 1113.3,-140 904.5,-158"/>
<text text-anchor="middle" x="904.5" y="-136.3" font-family="Arial" font-size="14.00">Struggles to show clear differences</text>
</g>
<!-- n3&#45;&gt;n6 -->
<g id="edge5" class="edge">
<title>n3&#45;&gt;n6</title>
<path fill="none" stroke="black" d="M576.83,-243.93C650.11,-220.91 779.76,-180.19 852.06,-157.47"/>
<polygon fill="black" stroke="black" points="853.38,-160.72 861.87,-154.39 851.28,-154.05 853.38,-160.72"/>
</g>
<!-- n7 -->
<g id="node7" class="node">
<title>n7</title>
<polygon fill="#f28e8e" stroke="black" points="1049,-36 760,-36 760,0 1049,0 1049,-36"/>
<text text-anchor="middle" x="904.5" y="-14.3" font-family="Arial" font-size="14.00">Use contrasting colors to highlight differences</text>
</g>
<!-- n6&#45;&gt;n7 -->
<g id="edge6" class="edge">
<title>n6&#45;&gt;n7</title>
<path fill="none" stroke="black" d="M904.5,-121.81C904.5,-102.11 904.5,-69.58 904.5,-46.39"/>
<polygon fill="black" stroke="black" points="908,-46.16 904.5,-36.16 901,-46.16 908,-46.16"/>
</g>
</g>
</svg>
