<?xml version="1.0" encoding="UTF-8" standalone="no"?>
<!DOCTYPE svg PUBLIC "-//W3C//DTD SVG 1.1//EN"
 "http://www.w3.org/Graphics/SVG/1.1/DTD/svg11.dtd">
<!-- Generated by graphviz version 2.43.0 (0)
 -->
<!-- Pages: 1 -->
<svg width="1536pt" height="410pt"
 viewBox="0.00 0.00 1536.00 410.00" xmlns="http://www.w3.org/2000/svg" xmlns:xlink="http://www.w3.org/1999/xlink">
<g id="graph0" class="graph" transform="scale(1 1) rotate(0) translate(4 406)">
<polygon fill="white" stroke="transparent" points="-4,4 -4,-406 1532,-406 1532,4 -4,4"/>
<!-- n1 -->
<g id="node1" class="node">
<title>n1</title>
<polygon fill="lightblue" stroke="black" points="735,-384 571,-402 243,-402 79,-384 243,-366 571,-366 735,-384"/>
<text text-anchor="middle" x="407" y="-380.3" font-family="Arial" font-size="14.00">Draw reversible and irreversible changes (ice melting vs. egg cooking)</text>
</g>
<!-- n2 -->
<g id="node2" class="node">
<title>n2</title>
<polygon fill="#fffdd0" stroke="black" points="380,-280 0,-280 0,-244 380,-244 380,-280"/>
<text text-anchor="middle" x="190" y="-258.3" font-family="Arial" font-size="14.00">Blue square for ice cube with arrows to blue puddle (melting)</text>
</g>
<!-- n1&#45;&gt;n2 -->
<g id="edge1" class="edge">
<title>n1&#45;&gt;n2</title>
<path fill="none" stroke="black" d="M375.91,-365.81C337.48,-344.55 272.01,-308.35 229.9,-285.07"/>
<polygon fill="black" stroke="black" points="231.47,-281.94 221.03,-280.16 228.08,-288.07 231.47,-281.94"/>
</g>
<!-- n3 -->
<g id="node3" class="node">
<title>n3</title>
<polygon fill="#fffdd0" stroke="black" points="815.5,-280 442.5,-280 442.5,-244 815.5,-244 815.5,-280"/>
<text text-anchor="middle" x="629" y="-258.3" font-family="Arial" font-size="14.00">White oval with yellow center for egg with arrow to fried egg</text>
</g>
<!-- n1&#45;&gt;n3 -->
<g id="edge2" class="edge">
<title>n1&#45;&gt;n3</title>
<path fill="none" stroke="black" d="M438.81,-365.81C478.21,-344.51 545.38,-308.2 588.45,-284.92"/>
<polygon fill="black" stroke="black" points="590.12,-288 597.25,-280.16 586.79,-281.84 590.12,-288"/>
</g>
<!-- n4 -->
<g id="node4" class="node">
<title>n4</title>
<path fill="palegreen" stroke="black" d="M355.5,-158C355.5,-158 16.5,-158 16.5,-158 10.5,-158 4.5,-152 4.5,-146 4.5,-146 4.5,-134 4.5,-134 4.5,-128 10.5,-122 16.5,-122 16.5,-122 355.5,-122 355.5,-122 361.5,-122 367.5,-128 367.5,-134 367.5,-134 367.5,-146 367.5,-146 367.5,-152 361.5,-158 355.5,-158"/>
<text text-anchor="middle" x="186" y="-136.3" font-family="Arial" font-size="14.00">Shows ice as solid and water as liquid (reversible change)</text>
</g>
<!-- n2&#45;&gt;n4 -->
<g id="edge3" class="edge">
<title>n2&#45;&gt;n4</title>
<path fill="none" stroke="black" d="M189.43,-243.81C188.77,-224.11 187.69,-191.58 186.91,-168.39"/>
<polygon fill="black" stroke="black" points="190.4,-168.04 186.57,-158.16 183.4,-168.27 190.4,-168.04"/>
</g>
<!-- n5 -->
<g id="node5" class="node">
<title>n5</title>
<path fill="palegreen" stroke="black" d="M820.5,-158C820.5,-158 437.5,-158 437.5,-158 431.5,-158 425.5,-152 425.5,-146 425.5,-146 425.5,-134 425.5,-134 425.5,-128 431.5,-122 437.5,-122 437.5,-122 820.5,-122 820.5,-122 826.5,-122 832.5,-128 832.5,-134 832.5,-134 832.5,-146 832.5,-146 832.5,-152 826.5,-158 820.5,-158"/>
<text text-anchor="middle" x="629" y="-136.3" font-family="Arial" font-size="14.00">Depicts a raw egg turning into a cooked egg (irreversible change)</text>
</g>
<!-- n3&#45;&gt;n5 -->
<g id="edge4" class="edge">
<title>n3&#45;&gt;n5</title>
<path fill="none" stroke="black" d="M629,-243.81C629,-224.11 629,-191.58 629,-168.39"/>
<polygon fill="black" stroke="black" points="632.5,-168.16 629,-158.16 625.5,-168.16 632.5,-168.16"/>
</g>
<!-- n6 -->
<g id="node6" class="node">
<title>n6</title>
<polygon fill="lightcoral" stroke="black" points="1209,-158 890,-140 1209,-122 1528,-140 1209,-158"/>
<text text-anchor="middle" x="1209" y="-136.3" font-family="Arial" font-size="14.00">Confusion with labels and arrows for reversibility of egg</text>
</g>
<!-- n3&#45;&gt;n6 -->
<g id="edge5" class="edge">
<title>n3&#45;&gt;n6</title>
<path fill="none" stroke="black" d="M711.18,-244C824.06,-220.64 1025.5,-178.98 1134.3,-156.46"/>
<polygon fill="black" stroke="black" points="1135.12,-159.87 1144.2,-154.41 1133.7,-153.01 1135.12,-159.87"/>
</g>
<!-- n7 -->
<g id="node7" class="node">
<title>n7</title>
<polygon fill="#f28e8e" stroke="black" points="1438,-36 980,-36 980,0 1438,0 1438,-36"/>
<text text-anchor="middle" x="1209" y="-14.3" font-family="Arial" font-size="14.00">Ensure labels are placed correctly; &#39;reversible&#39; for ice, &#39;irreversible&#39; for egg</text>
</g>
<!-- n6&#45;&gt;n7 -->
<g id="edge6" class="edge">
<title>n6&#45;&gt;n7</title>
<path fill="none" stroke="black" d="M1209,-121.81C1209,-102.11 1209,-69.58 1209,-46.39"/>
<polygon fill="black" stroke="black" points="1212.5,-46.16 1209,-36.16 1205.5,-46.16 1212.5,-46.16"/>
</g>
</g>
</svg>
