<?xml version="1.0" encoding="UTF-8" standalone="no"?>
<!DOCTYPE svg PUBLIC "-//W3C//DTD SVG 1.1//EN"
 "http://www.w3.org/Graphics/SVG/1.1/DTD/svg11.dtd">
<!-- Generated by graphviz version 2.43.0 (0)
 -->
<!-- Pages: 1 -->
<svg width="1720pt" height="288pt"
 viewBox="0.00 0.00 1719.50 288.00" xmlns="http://www.w3.org/2000/svg" xmlns:xlink="http://www.w3.org/1999/xlink">
<g id="graph0" class="graph" transform="scale(1 1) rotate(0) translate(4 284)">
<polygon fill="white" stroke="transparent" points="-4,4 -4,-284 1715.5,-284 1715.5,4 -4,4"/>
<!-- n1 -->
<g id="node1" class="node">
<title>n1</title>
<polygon fill="lightblue" stroke="black" points="1160.87,-262 1019.68,-280 737.32,-280 596.13,-262 737.32,-244 1019.68,-244 1160.87,-262"/>
<text text-anchor="middle" x="878.5" y="-258.3" font-family="Arial" font-size="14.00">Draw animals in their habitats with labels (e.g., fish in water)</text>
</g>
<!-- n2 -->
<g id="node2" class="node">
<title>n2</title>
<polygon fill="#fffdd0" stroke="black" points="339,-158 0,-158 0,-122 339,-122 339,-158"/>
<text text-anchor="middle" x="169.5" y="-136.3" font-family="Arial" font-size="14.00">Blue ocean with fish swimming, labeled &#39;Fish in water&#39;</text>
</g>
<!-- n1&#45;&gt;n2 -->
<g id="edge1" class="edge">
<title>n1&#45;&gt;n2</title>
<path fill="none" stroke="black" d="M778.05,-244C646.49,-221.73 416.59,-182.82 280.16,-159.73"/>
<polygon fill="black" stroke="black" points="280.54,-156.25 270.1,-158.03 279.38,-163.15 280.54,-156.25"/>
</g>
<!-- n3 -->
<g id="node3" class="node">
<title>n3</title>
<polygon fill="#fffdd0" stroke="black" points="674,-158 397,-158 397,-122 674,-122 674,-158"/>
<text text-anchor="middle" x="535.5" y="-136.3" font-family="Arial" font-size="14.00">Forest with deer, labeled &#39;Deer in the forest&#39;</text>
</g>
<!-- n1&#45;&gt;n3 -->
<g id="edge2" class="edge">
<title>n1&#45;&gt;n3</title>
<path fill="none" stroke="black" d="M829.72,-243.93C767.49,-222.16 660,-184.56 593.6,-161.33"/>
<polygon fill="black" stroke="black" points="594.7,-158.01 584.11,-158.01 592.39,-164.62 594.7,-158.01"/>
</g>
<!-- n4 -->
<g id="node4" class="node">
<title>n4</title>
<polygon fill="#fffdd0" stroke="black" points="1024.5,-158 732.5,-158 732.5,-122 1024.5,-122 1024.5,-158"/>
<text text-anchor="middle" x="878.5" y="-136.3" font-family="Arial" font-size="14.00">Sunny sky with birds, labeled &#39;Birds in the sky&#39;</text>
</g>
<!-- n1&#45;&gt;n4 -->
<g id="edge3" class="edge">
<title>n1&#45;&gt;n4</title>
<path fill="none" stroke="black" d="M878.5,-243.81C878.5,-224.11 878.5,-191.58 878.5,-168.39"/>
<polygon fill="black" stroke="black" points="882,-168.16 878.5,-158.16 875,-168.16 882,-168.16"/>
</g>
<!-- n5 -->
<g id="node5" class="node">
<title>n5</title>
<polygon fill="#fffdd0" stroke="black" points="1372.5,-158 1082.5,-158 1082.5,-122 1372.5,-122 1372.5,-158"/>
<text text-anchor="middle" x="1227.5" y="-136.3" font-family="Arial" font-size="14.00">Field with rabbits, labeled &#39;Rabbits in the field&#39;</text>
</g>
<!-- n1&#45;&gt;n5 -->
<g id="edge4" class="edge">
<title>n1&#45;&gt;n5</title>
<path fill="none" stroke="black" d="M928.13,-243.93C991.45,-222.16 1100.8,-184.56 1168.4,-161.33"/>
<polygon fill="black" stroke="black" points="1169.69,-164.59 1178,-158.01 1167.41,-157.97 1169.69,-164.59"/>
</g>
<!-- n6 -->
<g id="node6" class="node">
<title>n6</title>
<polygon fill="#fffdd0" stroke="black" points="1706,-158 1431,-158 1431,-122 1706,-122 1706,-158"/>
<text text-anchor="middle" x="1568.5" y="-136.3" font-family="Arial" font-size="14.00">Pond with frogs, labeled &#39;Frogs in the pond&#39;</text>
</g>
<!-- n1&#45;&gt;n6 -->
<g id="edge5" class="edge">
<title>n1&#45;&gt;n6</title>
<path fill="none" stroke="black" d="M976.26,-244C1104.2,-221.75 1327.6,-182.9 1460.4,-159.8"/>
<polygon fill="black" stroke="black" points="1461.35,-163.19 1470.6,-158.03 1460.15,-156.29 1461.35,-163.19"/>
</g>
<!-- n7 -->
<g id="node7" class="node">
<title>n7</title>
<path fill="palegreen" stroke="black" d="M244.5,-36C244.5,-36 94.5,-36 94.5,-36 88.5,-36 82.5,-30 82.5,-24 82.5,-24 82.5,-12 82.5,-12 82.5,-6 88.5,0 94.5,0 94.5,0 244.5,0 244.5,0 250.5,0 256.5,-6 256.5,-12 256.5,-12 256.5,-24 256.5,-24 256.5,-30 250.5,-36 244.5,-36"/>
<text text-anchor="middle" x="169.5" y="-14.3" font-family="Arial" font-size="14.00">Fish need water to survive</text>
</g>
<!-- n2&#45;&gt;n7 -->
<g id="edge6" class="edge">
<title>n2&#45;&gt;n7</title>
<path fill="none" stroke="black" d="M169.5,-121.81C169.5,-102.11 169.5,-69.58 169.5,-46.39"/>
<polygon fill="black" stroke="black" points="173,-46.16 169.5,-36.16 166,-46.16 173,-46.16"/>
</g>
<!-- n8 -->
<g id="node8" class="node">
<title>n8</title>
<path fill="palegreen" stroke="black" d="M656.5,-36C656.5,-36 336.5,-36 336.5,-36 330.5,-36 324.5,-30 324.5,-24 324.5,-24 324.5,-12 324.5,-12 324.5,-6 330.5,0 336.5,0 336.5,0 656.5,0 656.5,0 662.5,0 668.5,-6 668.5,-12 668.5,-12 668.5,-24 668.5,-24 668.5,-30 662.5,-36 656.5,-36"/>
<text text-anchor="middle" x="496.5" y="-14.3" font-family="Arial" font-size="14.00">Deer live in forests and find resources like leaves there</text>
</g>
<!-- n3&#45;&gt;n8 -->
<g id="edge7" class="edge">
<title>n3&#45;&gt;n8</title>
<path fill="none" stroke="black" d="M529.91,-121.81C523.45,-101.94 512.75,-68.99 505.2,-45.76"/>
<polygon fill="black" stroke="black" points="508.5,-44.59 502.08,-36.16 501.84,-46.75 508.5,-44.59"/>
</g>
<!-- n9 -->
<g id="node9" class="node">
<title>n9</title>
<path fill="palegreen" stroke="black" d="M1020,-36C1020,-36 739,-36 739,-36 733,-36 727,-30 727,-24 727,-24 727,-12 727,-12 727,-6 733,0 739,0 739,0 1020,0 1020,0 1026,0 1032,-6 1032,-12 1032,-12 1032,-24 1032,-24 1032,-30 1026,-36 1020,-36"/>
<text text-anchor="middle" x="879.5" y="-14.3" font-family="Arial" font-size="14.00">Birds utilize the sky as their habitat and rely on it</text>
</g>
<!-- n4&#45;&gt;n9 -->
<g id="edge8" class="edge">
<title>n4&#45;&gt;n9</title>
<path fill="none" stroke="black" d="M878.64,-121.81C878.81,-102.11 879.08,-69.58 879.27,-46.39"/>
<polygon fill="black" stroke="black" points="882.77,-46.19 879.36,-36.16 875.77,-46.13 882.77,-46.19"/>
</g>
<!-- n10 -->
<g id="node10" class="node">
<title>n10</title>
<path fill="palegreen" stroke="black" d="M1351.5,-36C1351.5,-36 1103.5,-36 1103.5,-36 1097.5,-36 1091.5,-30 1091.5,-24 1091.5,-24 1091.5,-12 1091.5,-12 1091.5,-6 1097.5,0 1103.5,0 1103.5,0 1351.5,0 1351.5,0 1357.5,0 1363.5,-6 1363.5,-12 1363.5,-12 1363.5,-24 1363.5,-24 1363.5,-30 1357.5,-36 1351.5,-36"/>
<text text-anchor="middle" x="1227.5" y="-14.3" font-family="Arial" font-size="14.00">Rabbits live in fields and utilize grass there</text>
</g>
<!-- n5&#45;&gt;n10 -->
<g id="edge9" class="edge">
<title>n5&#45;&gt;n10</title>
<path fill="none" stroke="black" d="M1227.5,-121.81C1227.5,-102.11 1227.5,-69.58 1227.5,-46.39"/>
<polygon fill="black" stroke="black" points="1231,-46.16 1227.5,-36.16 1224,-46.16 1231,-46.16"/>
</g>
<!-- n11 -->
<g id="node11" class="node">
<title>n11</title>
<path fill="palegreen" stroke="black" d="M1699.5,-36C1699.5,-36 1437.5,-36 1437.5,-36 1431.5,-36 1425.5,-30 1425.5,-24 1425.5,-24 1425.5,-12 1425.5,-12 1425.5,-6 1431.5,0 1437.5,0 1437.5,0 1699.5,0 1699.5,0 1705.5,0 1711.5,-6 1711.5,-12 1711.5,-12 1711.5,-24 1711.5,-24 1711.5,-30 1705.5,-36 1699.5,-36"/>
<text text-anchor="middle" x="1568.5" y="-14.3" font-family="Arial" font-size="14.00">Frogs need pond water environment to thrive</text>
</g>
<!-- n6&#45;&gt;n11 -->
<g id="edge10" class="edge">
<title>n6&#45;&gt;n11</title>
<path fill="none" stroke="black" d="M1568.5,-121.81C1568.5,-102.11 1568.5,-69.58 1568.5,-46.39"/>
<polygon fill="black" stroke="black" points="1572,-46.16 1568.5,-36.16 1565,-46.16 1572,-46.16"/>
</g>
</g>
</svg>
