<?xml version="1.0" encoding="UTF-8" standalone="no"?>
<!DOCTYPE svg PUBLIC "-//W3C//DTD SVG 1.1//EN"
 "http://www.w3.org/Graphics/SVG/1.1/DTD/svg11.dtd">
<!-- Generated by graphviz version 2.43.0 (0)
 -->
<!-- Pages: 1 -->
<svg width="1493pt" height="288pt"
 viewBox="0.00 0.00 1492.50 288.00" xmlns="http://www.w3.org/2000/svg" xmlns:xlink="http://www.w3.org/1999/xlink">
<g id="graph0" class="graph" transform="scale(1 1) rotate(0) translate(4 284)">
<polygon fill="white" stroke="transparent" points="-4,4 -4,-284 1488.5,-284 1488.5,4 -4,4"/>
<!-- n1 -->
<g id="node1" class="node">
<title>n1</title>
<polygon fill="lightblue" stroke="black" points="754,-262 662.75,-280 480.25,-280 389,-262 480.25,-244 662.75,-244 754,-262"/>
<text text-anchor="middle" x="571.5" y="-258.3" font-family="Arial" font-size="14.00">Draw a fish in their habitat with labels.</text>
</g>
<!-- n2 -->
<g id="node2" class="node">
<title>n2</title>
<polygon fill="#fffdd0" stroke="black" points="222.5,-158 12.5,-158 12.5,-122 222.5,-122 222.5,-158"/>
<text text-anchor="middle" x="117.5" y="-136.3" font-family="Arial" font-size="14.00">Fish with almond shape and fins</text>
</g>
<!-- n1&#45;&gt;n2 -->
<g id="edge1" class="edge">
<title>n1&#45;&gt;n2</title>
<path fill="none" stroke="black" d="M506.94,-243.93C423.72,-221.94 279.36,-183.78 191.72,-160.62"/>
<polygon fill="black" stroke="black" points="192.4,-157.18 181.84,-158.01 190.61,-163.95 192.4,-157.18"/>
</g>
<!-- n3 -->
<g id="node3" class="node">
<title>n3</title>
<polygon fill="#fffdd0" stroke="black" points="500.5,-158 280.5,-158 280.5,-122 500.5,-122 500.5,-158"/>
<text text-anchor="middle" x="390.5" y="-136.3" font-family="Arial" font-size="14.00">Wavy blue line representing water</text>
</g>
<!-- n1&#45;&gt;n3 -->
<g id="edge2" class="edge">
<title>n1&#45;&gt;n3</title>
<path fill="none" stroke="black" d="M545.57,-243.81C513.85,-222.78 460.05,-187.11 424.89,-163.8"/>
<polygon fill="black" stroke="black" points="426.65,-160.77 416.38,-158.16 422.78,-166.6 426.65,-160.77"/>
</g>
<!-- n6 -->
<g id="node4" class="node">
<title>n6</title>
<polygon fill="lightcoral" stroke="black" points="753.5,-158 558.5,-140 753.5,-122 948.5,-140 753.5,-158"/>
<text text-anchor="middle" x="753.5" y="-136.3" font-family="Arial" font-size="14.00">No labels for habitat or elements</text>
</g>
<!-- n1&#45;&gt;n6 -->
<g id="edge3" class="edge">
<title>n1&#45;&gt;n6</title>
<path fill="none" stroke="black" d="M597.58,-243.81C630.47,-222.12 686.97,-184.86 722.17,-161.66"/>
<polygon fill="black" stroke="black" points="724.21,-164.5 730.64,-156.08 720.36,-158.66 724.21,-164.5"/>
</g>
<!-- n8 -->
<g id="node5" class="node">
<title>n8</title>
<polygon fill="lightcoral" stroke="black" points="1245.5,-158 1006.5,-140 1245.5,-122 1484.5,-140 1245.5,-158"/>
<text text-anchor="middle" x="1245.5" y="-136.3" font-family="Arial" font-size="14.00">No other habitat elements or interactions</text>
</g>
<!-- n1&#45;&gt;n8 -->
<g id="edge4" class="edge">
<title>n1&#45;&gt;n8</title>
<path fill="none" stroke="black" d="M664.86,-244.38C798.93,-220.51 1043.5,-176.96 1168.1,-154.78"/>
<polygon fill="black" stroke="black" points="1168.77,-158.22 1178,-153.02 1167.54,-151.32 1168.77,-158.22"/>
</g>
<!-- n4 -->
<g id="node6" class="node">
<title>n4</title>
<path fill="palegreen" stroke="black" d="M223,-36C223,-36 12,-36 12,-36 6,-36 0,-30 0,-24 0,-24 0,-12 0,-12 0,-6 6,0 12,0 12,0 223,0 223,0 229,0 235,-6 235,-12 235,-12 235,-24 235,-24 235,-30 229,-36 223,-36"/>
<text text-anchor="middle" x="117.5" y="-14.3" font-family="Arial" font-size="14.00">Basic understanding of fish anatomy</text>
</g>
<!-- n2&#45;&gt;n4 -->
<g id="edge5" class="edge">
<title>n2&#45;&gt;n4</title>
<path fill="none" stroke="black" d="M117.5,-121.81C117.5,-102.11 117.5,-69.58 117.5,-46.39"/>
<polygon fill="black" stroke="black" points="121,-46.16 117.5,-36.16 114,-46.16 121,-46.16"/>
</g>
<!-- n5 -->
<g id="node7" class="node">
<title>n5</title>
<path fill="palegreen" stroke="black" d="M474,-36C474,-36 307,-36 307,-36 301,-36 295,-30 295,-24 295,-24 295,-12 295,-12 295,-6 301,0 307,0 307,0 474,0 474,0 480,0 486,-6 486,-12 486,-12 486,-24 486,-24 486,-30 480,-36 474,-36"/>
<text text-anchor="middle" x="390.5" y="-14.3" font-family="Arial" font-size="14.00">Basic representation of water</text>
</g>
<!-- n3&#45;&gt;n5 -->
<g id="edge6" class="edge">
<title>n3&#45;&gt;n5</title>
<path fill="none" stroke="black" d="M390.5,-121.81C390.5,-102.11 390.5,-69.58 390.5,-46.39"/>
<polygon fill="black" stroke="black" points="394,-46.16 390.5,-36.16 387,-46.16 394,-46.16"/>
</g>
<!-- n7 -->
<g id="node8" class="node">
<title>n7</title>
<polygon fill="#f28e8e" stroke="black" points="935,-36 572,-36 572,0 935,0 935,-36"/>
<text text-anchor="middle" x="753.5" y="-14.3" font-family="Arial" font-size="14.00">Add labels for habitat and elements, like water and plants.</text>
</g>
<!-- n6&#45;&gt;n7 -->
<g id="edge7" class="edge">
<title>n6&#45;&gt;n7</title>
<path fill="none" stroke="black" d="M753.5,-121.81C753.5,-102.11 753.5,-69.58 753.5,-46.39"/>
<polygon fill="black" stroke="black" points="757,-46.16 753.5,-36.16 750,-46.16 757,-46.16"/>
</g>
<!-- n9 -->
<g id="node9" class="node">
<title>n9</title>
<polygon fill="#f28e8e" stroke="black" points="1446,-36 1045,-36 1045,0 1446,0 1446,-36"/>
<text text-anchor="middle" x="1245.5" y="-14.3" font-family="Arial" font-size="14.00">Show and label interactions with habitat elements, such as food.</text>
</g>
<!-- n8&#45;&gt;n9 -->
<g id="edge8" class="edge">
<title>n8&#45;&gt;n9</title>
<path fill="none" stroke="black" d="M1245.5,-121.81C1245.5,-102.11 1245.5,-69.58 1245.5,-46.39"/>
<polygon fill="black" stroke="black" points="1249,-46.16 1245.5,-36.16 1242,-46.16 1249,-46.16"/>
</g>
</g>
</svg>
