<?xml version="1.0" encoding="UTF-8" standalone="no"?>
<!DOCTYPE svg PUBLIC "-//W3C//DTD SVG 1.1//EN"
 "http://www.w3.org/Graphics/SVG/1.1/DTD/svg11.dtd">
<!-- Generated by graphviz version 2.43.0 (0)
 -->
<!-- Pages: 1 -->
<svg width="1430pt" height="410pt"
 viewBox="0.00 0.00 1429.60 410.00" xmlns="http://www.w3.org/2000/svg" xmlns:xlink="http://www.w3.org/1999/xlink">
<g id="graph0" class="graph" transform="scale(1 1) rotate(0) translate(4 406)">
<polygon fill="white" stroke="transparent" points="-4,4 -4,-406 1425.6,-406 1425.6,4 -4,4"/>
<!-- n1 -->
<g id="node1" class="node">
<title>n1</title>
<polygon fill="lightblue" stroke="black" points="780,-384 666.25,-402 438.75,-402 325,-384 438.75,-366 666.25,-366 780,-384"/>
<text text-anchor="middle" x="552.5" y="-380.3" font-family="Arial" font-size="14.00">Illustrate plants with and without water and light.</text>
</g>
<!-- n2 -->
<g id="node2" class="node">
<title>n2</title>
<polygon fill="#fffdd0" stroke="black" points="704.5,-280 400.5,-280 400.5,-244 704.5,-244 704.5,-280"/>
<text text-anchor="middle" x="552.5" y="-258.3" font-family="Arial" font-size="14.00">Two plants with minor size and color differences</text>
</g>
<!-- n1&#45;&gt;n2 -->
<g id="edge1" class="edge">
<title>n1&#45;&gt;n2</title>
<path fill="none" stroke="black" d="M552.5,-365.81C552.5,-346.11 552.5,-313.58 552.5,-290.39"/>
<polygon fill="black" stroke="black" points="556,-290.16 552.5,-280.16 549,-290.16 556,-290.16"/>
</g>
<!-- n3 -->
<g id="node3" class="node">
<title>n3</title>
<path fill="palegreen" stroke="black" d="M353,-158C353,-158 12,-158 12,-158 6,-158 0,-152 0,-146 0,-146 0,-134 0,-134 0,-128 6,-122 12,-122 12,-122 353,-122 353,-122 359,-122 365,-128 365,-134 365,-134 365,-146 365,-146 365,-152 359,-158 353,-158"/>
<text text-anchor="middle" x="182.5" y="-136.3" font-family="Arial" font-size="14.00">Understands that plants need water and light to be healthy</text>
</g>
<!-- n2&#45;&gt;n3 -->
<g id="edge2" class="edge">
<title>n2&#45;&gt;n3</title>
<path fill="none" stroke="black" d="M499.88,-243.93C432.62,-222.12 316.32,-184.4 244.73,-161.18"/>
<polygon fill="black" stroke="black" points="245.53,-157.76 234.94,-158.01 243.38,-164.42 245.53,-157.76"/>
</g>
<!-- n4 -->
<g id="node4" class="node">
<title>n4</title>
<polygon fill="lightcoral" stroke="black" points="922.5,-158 423.3,-140 922.5,-122 1421.7,-140 922.5,-158"/>
<text text-anchor="middle" x="922.5" y="-136.3" font-family="Arial" font-size="14.00">Misunderstanding: Both plants appear similar despite differing light and water conditions</text>
</g>
<!-- n2&#45;&gt;n4 -->
<g id="edge3" class="edge">
<title>n2&#45;&gt;n4</title>
<path fill="none" stroke="black" d="M605.12,-243.93C674,-221.59 794.31,-182.58 865.36,-159.53"/>
<polygon fill="black" stroke="black" points="866.62,-162.8 875.05,-156.39 864.46,-156.14 866.62,-162.8"/>
</g>
<!-- n5 -->
<g id="node5" class="node">
<title>n5</title>
<polygon fill="#f28e8e" stroke="black" points="1175.5,-36 669.5,-36 669.5,0 1175.5,0 1175.5,-36"/>
<text text-anchor="middle" x="922.5" y="-14.3" font-family="Arial" font-size="14.00">Feedback: Explain differences like wilting (lack of water) or yellowing (lack of light)</text>
</g>
<!-- n4&#45;&gt;n5 -->
<g id="edge4" class="edge">
<title>n4&#45;&gt;n5</title>
<path fill="none" stroke="black" d="M922.5,-121.81C922.5,-102.11 922.5,-69.58 922.5,-46.39"/>
<polygon fill="black" stroke="black" points="926,-46.16 922.5,-36.16 919,-46.16 926,-46.16"/>
</g>
</g>
</svg>
