<?xml version="1.0" encoding="UTF-8" standalone="no"?>
<!DOCTYPE svg PUBLIC "-//W3C//DTD SVG 1.1//EN"
 "http://www.w3.org/Graphics/SVG/1.1/DTD/svg11.dtd">
<!-- Generated by graphviz version 2.43.0 (0)
 -->
<!-- Pages: 1 -->
<svg width="1396pt" height="288pt"
 viewBox="0.00 0.00 1396.00 288.00" xmlns="http://www.w3.org/2000/svg" xmlns:xlink="http://www.w3.org/1999/xlink">
<g id="graph0" class="graph" transform="scale(1 1) rotate(0) translate(4 284)">
<polygon fill="white" stroke="transparent" points="-4,4 -4,-284 1392,-284 1392,4 -4,4"/>
<!-- n1 -->
<g id="node1" class="node">
<title>n1</title>
<polygon fill="lightblue" stroke="black" points="1064.87,-262 922.19,-280 636.81,-280 494.13,-262 636.81,-244 922.19,-244 1064.87,-262"/>
<text text-anchor="middle" x="779.5" y="-258.3" font-family="Arial" font-size="14.00">Draw animals in their habitats with labels (e.g., fish in water).</text>
</g>
<!-- n2 -->
<g id="node2" class="node">
<title>n2</title>
<polygon fill="#fffdd0" stroke="black" points="401,-158 0,-158 0,-122 401,-122 401,-158"/>
<text text-anchor="middle" x="200.5" y="-136.3" font-family="Arial" font-size="14.00">Large green tree with a deer underneath labeled &#39;Deer in Forest&#39;</text>
</g>
<!-- n1&#45;&gt;n2 -->
<g id="edge1" class="edge">
<title>n1&#45;&gt;n2</title>
<path fill="none" stroke="black" d="M697.47,-244C590.57,-221.84 404.16,-183.21 292.55,-160.08"/>
<polygon fill="black" stroke="black" points="293.15,-156.63 282.65,-158.03 291.73,-163.49 293.15,-156.63"/>
</g>
<!-- n3 -->
<g id="node3" class="node">
<title>n3</title>
<polygon fill="#fffdd0" stroke="black" points="737.5,-158 459.5,-158 459.5,-122 737.5,-122 737.5,-158"/>
<text text-anchor="middle" x="598.5" y="-136.3" font-family="Arial" font-size="14.00">Blue pond with a fish labeled &#39;Fish in Water&#39;</text>
</g>
<!-- n1&#45;&gt;n3 -->
<g id="edge2" class="edge">
<title>n1&#45;&gt;n3</title>
<path fill="none" stroke="black" d="M753.57,-243.81C721.85,-222.78 668.05,-187.11 632.89,-163.8"/>
<polygon fill="black" stroke="black" points="634.65,-160.77 624.38,-158.16 630.78,-166.6 634.65,-160.77"/>
</g>
<!-- n4 -->
<g id="node4" class="node">
<title>n4</title>
<polygon fill="#fffdd0" stroke="black" points="1127.5,-158 795.5,-158 795.5,-122 1127.5,-122 1127.5,-158"/>
<text text-anchor="middle" x="961.5" y="-136.3" font-family="Arial" font-size="14.00">Rabbit near some tall grass labeled &#39;Rabbit in Grass&#39;</text>
</g>
<!-- n1&#45;&gt;n4 -->
<g id="edge3" class="edge">
<title>n1&#45;&gt;n4</title>
<path fill="none" stroke="black" d="M805.58,-243.81C837.47,-222.78 891.57,-187.11 926.92,-163.8"/>
<polygon fill="black" stroke="black" points="929.05,-166.59 935.47,-158.16 925.2,-160.74 929.05,-166.59"/>
</g>
<!-- n5 -->
<g id="node5" class="node">
<title>n5</title>
<polygon fill="#fffdd0" stroke="black" points="1385.5,-158 1185.5,-158 1185.5,-122 1385.5,-122 1385.5,-158"/>
<text text-anchor="middle" x="1285.5" y="-136.3" font-family="Arial" font-size="14.00">Bright yellow sun labeled &#39;Sun&#39;</text>
</g>
<!-- n1&#45;&gt;n5 -->
<g id="edge4" class="edge">
<title>n1&#45;&gt;n5</title>
<path fill="none" stroke="black" d="M851.19,-244C944.24,-221.93 1106.2,-183.52 1203.9,-160.36"/>
<polygon fill="black" stroke="black" points="1204.78,-163.75 1213.7,-158.03 1203.16,-156.94 1204.78,-163.75"/>
</g>
<!-- n6 -->
<g id="node6" class="node">
<title>n6</title>
<path fill="palegreen" stroke="black" d="M252.5,-36C252.5,-36 148.5,-36 148.5,-36 142.5,-36 136.5,-30 136.5,-24 136.5,-24 136.5,-12 136.5,-12 136.5,-6 142.5,0 148.5,0 148.5,0 252.5,0 252.5,0 258.5,0 264.5,-6 264.5,-12 264.5,-12 264.5,-24 264.5,-24 264.5,-30 258.5,-36 252.5,-36"/>
<text text-anchor="middle" x="200.5" y="-14.3" font-family="Arial" font-size="14.00">Deer live in forests</text>
</g>
<!-- n2&#45;&gt;n6 -->
<g id="edge5" class="edge">
<title>n2&#45;&gt;n6</title>
<path fill="none" stroke="black" d="M200.5,-121.81C200.5,-102.11 200.5,-69.58 200.5,-46.39"/>
<polygon fill="black" stroke="black" points="204,-46.16 200.5,-36.16 197,-46.16 204,-46.16"/>
</g>
<!-- n7 -->
<g id="node7" class="node">
<title>n7</title>
<path fill="palegreen" stroke="black" d="M688,-36C688,-36 509,-36 509,-36 503,-36 497,-30 497,-24 497,-24 497,-12 497,-12 497,-6 503,0 509,0 509,0 688,0 688,0 694,0 700,-6 700,-12 700,-12 700,-24 700,-24 700,-30 694,-36 688,-36"/>
<text text-anchor="middle" x="598.5" y="-14.3" font-family="Arial" font-size="14.00">Fish live in water environments</text>
</g>
<!-- n3&#45;&gt;n7 -->
<g id="edge6" class="edge">
<title>n3&#45;&gt;n7</title>
<path fill="none" stroke="black" d="M598.5,-121.81C598.5,-102.11 598.5,-69.58 598.5,-46.39"/>
<polygon fill="black" stroke="black" points="602,-46.16 598.5,-36.16 595,-46.16 602,-46.16"/>
</g>
<!-- n8 -->
<g id="node8" class="node">
<title>n8</title>
<path fill="palegreen" stroke="black" d="M1039,-36C1039,-36 884,-36 884,-36 878,-36 872,-30 872,-24 872,-24 872,-12 872,-12 872,-6 878,0 884,0 884,0 1039,0 1039,0 1045,0 1051,-6 1051,-12 1051,-12 1051,-24 1051,-24 1051,-30 1045,-36 1039,-36"/>
<text text-anchor="middle" x="961.5" y="-14.3" font-family="Arial" font-size="14.00">Rabbits live in grassy fields</text>
</g>
<!-- n4&#45;&gt;n8 -->
<g id="edge7" class="edge">
<title>n4&#45;&gt;n8</title>
<path fill="none" stroke="black" d="M961.5,-121.81C961.5,-102.11 961.5,-69.58 961.5,-46.39"/>
<polygon fill="black" stroke="black" points="965,-46.16 961.5,-36.16 958,-46.16 965,-46.16"/>
</g>
<!-- n9 -->
<g id="node9" class="node">
<title>n9</title>
<path fill="palegreen" stroke="black" d="M1376,-36C1376,-36 1195,-36 1195,-36 1189,-36 1183,-30 1183,-24 1183,-24 1183,-12 1183,-12 1183,-6 1189,0 1195,0 1195,0 1376,0 1376,0 1382,0 1388,-6 1388,-12 1388,-12 1388,-24 1388,-24 1388,-30 1382,-36 1376,-36"/>
<text text-anchor="middle" x="1285.5" y="-14.3" font-family="Arial" font-size="14.00">Sun provides sunlight for plants</text>
</g>
<!-- n5&#45;&gt;n9 -->
<g id="edge8" class="edge">
<title>n5&#45;&gt;n9</title>
<path fill="none" stroke="black" d="M1285.5,-121.81C1285.5,-102.11 1285.5,-69.58 1285.5,-46.39"/>
<polygon fill="black" stroke="black" points="1289,-46.16 1285.5,-36.16 1282,-46.16 1289,-46.16"/>
</g>
</g>
</svg>
