<?xml version="1.0" encoding="UTF-8" standalone="no"?>
<!DOCTYPE svg PUBLIC "-//W3C//DTD SVG 1.1//EN"
 "http://www.w3.org/Graphics/SVG/1.1/DTD/svg11.dtd">
<!-- Generated by graphviz version 2.43.0 (0)
 -->
<!-- Pages: 1 -->
<svg width="1218pt" height="410pt"
 viewBox="0.00 0.00 1217.50 410.00" xmlns="http://www.w3.org/2000/svg" xmlns:xlink="http://www.w3.org/1999/xlink">
<g id="graph0" class="graph" transform="scale(1 1) rotate(0) translate(4 406)">
<polygon fill="white" stroke="transparent" points="-4,4 -4,-406 1213.5,-406 1213.5,4 -4,4"/>
<!-- n1 -->
<g id="node1" class="node">
<title>n1</title>
<polygon fill="lightblue" stroke="black" points="668,-384 576.75,-402 394.25,-402 303,-384 394.25,-366 576.75,-366 668,-384"/>
<text text-anchor="middle" x="485.5" y="-380.3" font-family="Arial" font-size="14.00">Draw a fish in their habitat with labels.</text>
</g>
<!-- n2 -->
<g id="node2" class="node">
<title>n2</title>
<polygon fill="#fffdd0" stroke="black" points="239,-280 0,-280 0,-244 239,-244 239,-280"/>
<text text-anchor="middle" x="119.5" y="-258.3" font-family="Arial" font-size="14.00">Fish with oval body and triangular tail</text>
</g>
<!-- n1&#45;&gt;n2 -->
<g id="edge1" class="edge">
<title>n1&#45;&gt;n2</title>
<path fill="none" stroke="black" d="M433.45,-365.93C366.91,-344.12 251.87,-306.4 181.06,-283.18"/>
<polygon fill="black" stroke="black" points="181.96,-279.79 171.37,-280.01 179.79,-286.45 181.96,-279.79"/>
</g>
<!-- n3 -->
<g id="node3" class="node">
<title>n3</title>
<polygon fill="#fffdd0" stroke="black" points="459.5,-280 297.5,-280 297.5,-244 459.5,-244 459.5,-280"/>
<text text-anchor="middle" x="378.5" y="-258.3" font-family="Arial" font-size="14.00">Wavy water lines in blue</text>
</g>
<!-- n1&#45;&gt;n3 -->
<g id="edge2" class="edge">
<title>n1&#45;&gt;n3</title>
<path fill="none" stroke="black" d="M470.17,-365.81C451.97,-345.4 421.49,-311.21 400.71,-287.91"/>
<polygon fill="black" stroke="black" points="403.07,-285.29 393.8,-280.16 397.84,-289.95 403.07,-285.29"/>
</g>
<!-- n4 -->
<g id="node4" class="node">
<title>n4</title>
<polygon fill="#fffdd0" stroke="black" points="667.5,-280 517.5,-280 517.5,-244 667.5,-244 667.5,-280"/>
<text text-anchor="middle" x="592.5" y="-258.3" font-family="Arial" font-size="14.00">Label &#39;fish&#39; on drawing</text>
</g>
<!-- n1&#45;&gt;n4 -->
<g id="edge3" class="edge">
<title>n1&#45;&gt;n4</title>
<path fill="none" stroke="black" d="M500.83,-365.81C519.03,-345.4 549.51,-311.21 570.29,-287.91"/>
<polygon fill="black" stroke="black" points="573.16,-289.95 577.2,-280.16 567.93,-285.29 573.16,-289.95"/>
</g>
<!-- n5 -->
<g id="node5" class="node">
<title>n5</title>
<polygon fill="#fffdd0" stroke="black" points="956.5,-280 792.5,-280 792.5,-244 956.5,-244 956.5,-280"/>
<text text-anchor="middle" x="874.5" y="-258.3" font-family="Arial" font-size="14.00">Rough drawing of a boat</text>
</g>
<!-- n1&#45;&gt;n5 -->
<g id="edge4" class="edge">
<title>n1&#45;&gt;n5</title>
<path fill="none" stroke="black" d="M540.82,-365.93C611.68,-344.07 734.31,-306.25 809.53,-283.04"/>
<polygon fill="black" stroke="black" points="810.84,-286.3 819.37,-280.01 808.78,-279.61 810.84,-286.3"/>
</g>
<!-- n6 -->
<g id="node6" class="node">
<title>n6</title>
<path fill="palegreen" stroke="black" d="M221,-158C221,-158 18,-158 18,-158 12,-158 6,-152 6,-146 6,-146 6,-134 6,-134 6,-128 12,-122 18,-122 18,-122 221,-122 221,-122 227,-122 233,-128 233,-134 233,-134 233,-146 233,-146 233,-152 227,-158 221,-158"/>
<text text-anchor="middle" x="119.5" y="-136.3" font-family="Arial" font-size="14.00">Correct fish representation in water</text>
</g>
<!-- n2&#45;&gt;n6 -->
<g id="edge5" class="edge">
<title>n2&#45;&gt;n6</title>
<path fill="none" stroke="black" d="M119.5,-243.81C119.5,-224.11 119.5,-191.58 119.5,-168.39"/>
<polygon fill="black" stroke="black" points="123,-168.16 119.5,-158.16 116,-168.16 123,-168.16"/>
</g>
<!-- n7 -->
<g id="node7" class="node">
<title>n7</title>
<path fill="palegreen" stroke="black" d="M438.5,-158C438.5,-158 318.5,-158 318.5,-158 312.5,-158 306.5,-152 306.5,-146 306.5,-146 306.5,-134 306.5,-134 306.5,-128 312.5,-122 318.5,-122 318.5,-122 438.5,-122 438.5,-122 444.5,-122 450.5,-128 450.5,-134 450.5,-134 450.5,-146 450.5,-146 450.5,-152 444.5,-158 438.5,-158"/>
<text text-anchor="middle" x="378.5" y="-136.3" font-family="Arial" font-size="14.00">Basic water depiction</text>
</g>
<!-- n3&#45;&gt;n7 -->
<g id="edge6" class="edge">
<title>n3&#45;&gt;n7</title>
<path fill="none" stroke="black" d="M378.5,-243.81C378.5,-224.11 378.5,-191.58 378.5,-168.39"/>
<polygon fill="black" stroke="black" points="382,-168.16 378.5,-158.16 375,-168.16 382,-168.16"/>
</g>
<!-- n8 -->
<g id="node8" class="node">
<title>n8</title>
<path fill="palegreen" stroke="black" d="M632.5,-158C632.5,-158 530.5,-158 530.5,-158 524.5,-158 518.5,-152 518.5,-146 518.5,-146 518.5,-134 518.5,-134 518.5,-128 524.5,-122 530.5,-122 530.5,-122 632.5,-122 632.5,-122 638.5,-122 644.5,-128 644.5,-134 644.5,-134 644.5,-146 644.5,-146 644.5,-152 638.5,-158 632.5,-158"/>
<text text-anchor="middle" x="581.5" y="-136.3" font-family="Arial" font-size="14.00">Basic labeling skill</text>
</g>
<!-- n4&#45;&gt;n8 -->
<g id="edge7" class="edge">
<title>n4&#45;&gt;n8</title>
<path fill="none" stroke="black" d="M590.92,-243.81C589.12,-224.11 586.14,-191.58 584.01,-168.39"/>
<polygon fill="black" stroke="black" points="587.47,-167.8 583.07,-158.16 580.5,-168.44 587.47,-167.8"/>
</g>
<!-- n9 -->
<g id="node9" class="node">
<title>n9</title>
<polygon fill="lightcoral" stroke="black" points="952.5,-158 702.48,-140 952.5,-122 1202.52,-140 952.5,-158"/>
<text text-anchor="middle" x="952.5" y="-136.3" font-family="Arial" font-size="14.00">Misinterpretation: unrelated element (boat)</text>
</g>
<!-- n5&#45;&gt;n9 -->
<g id="edge8" class="edge">
<title>n5&#45;&gt;n9</title>
<path fill="none" stroke="black" d="M885.68,-243.81C898.91,-223.44 921.08,-189.34 936.22,-166.04"/>
<polygon fill="black" stroke="black" points="939.33,-167.68 941.85,-157.39 933.46,-163.86 939.33,-167.68"/>
</g>
<!-- n10 -->
<g id="node10" class="node">
<title>n10</title>
<polygon fill="#f28e8e" stroke="black" points="1209.5,-36 695.5,-36 695.5,0 1209.5,0 1209.5,-36"/>
<text text-anchor="middle" x="952.5" y="-14.3" font-family="Arial" font-size="14.00">Feedback: Focus on elements within habitat to show understanding of environment</text>
</g>
<!-- n9&#45;&gt;n10 -->
<g id="edge9" class="edge">
<title>n9&#45;&gt;n10</title>
<path fill="none" stroke="black" d="M952.5,-121.81C952.5,-102.11 952.5,-69.58 952.5,-46.39"/>
<polygon fill="black" stroke="black" points="956,-46.16 952.5,-36.16 949,-46.16 956,-46.16"/>
</g>
</g>
</svg>
