<?xml version="1.0" encoding="UTF-8" standalone="no"?>
<!DOCTYPE svg PUBLIC "-//W3C//DTD SVG 1.1//EN"
 "http://www.w3.org/Graphics/SVG/1.1/DTD/svg11.dtd">
<!-- Generated by graphviz version 2.43.0 (0)
 -->
<!-- Pages: 1 -->
<svg width="2486pt" height="288pt"
 viewBox="0.00 0.00 2485.50 288.00" xmlns="http://www.w3.org/2000/svg" xmlns:xlink="http://www.w3.org/1999/xlink">
<g id="graph0" class="graph" transform="scale(1 1) rotate(0) translate(4 284)">
<polygon fill="white" stroke="transparent" points="-4,4 -4,-284 2481.5,-284 2481.5,4 -4,4"/>
<!-- n1 -->
<g id="node1" class="node">
<title>n1</title>
<polygon fill="lightblue" stroke="black" points="1486.5,-262 1375,-280 1152,-280 1040.5,-262 1152,-244 1375,-244 1486.5,-262"/>
<text text-anchor="middle" x="1263.5" y="-258.3" font-family="Arial" font-size="14.00">Draw a string telephone between two students.</text>
</g>
<!-- n2 -->
<g id="node2" class="node">
<title>n2</title>
<polygon fill="#fffdd0" stroke="black" points="323.5,-158 141.5,-158 141.5,-122 323.5,-122 323.5,-158"/>
<text text-anchor="middle" x="232.5" y="-136.3" font-family="Arial" font-size="14.00">Two children standing apart</text>
</g>
<!-- n1&#45;&gt;n2 -->
<g id="edge1" class="edge">
<title>n1&#45;&gt;n2</title>
<path fill="none" stroke="black" d="M1137.3,-246.32C930.36,-222.23 522.83,-174.79 333.54,-152.76"/>
<polygon fill="black" stroke="black" points="333.94,-149.28 323.6,-151.6 333.13,-156.24 333.94,-149.28"/>
</g>
<!-- n3 -->
<g id="node3" class="node">
<title>n3</title>
<polygon fill="#fffdd0" stroke="black" points="613,-158 430,-158 430,-122 613,-122 613,-158"/>
<text text-anchor="middle" x="521.5" y="-136.3" font-family="Arial" font-size="14.00">Bright colors and sunny day</text>
</g>
<!-- n1&#45;&gt;n3 -->
<g id="edge2" class="edge">
<title>n1&#45;&gt;n3</title>
<path fill="none" stroke="black" d="M1158.4,-244C1016,-220.97 763.45,-180.13 622.97,-157.41"/>
<polygon fill="black" stroke="black" points="623.48,-153.95 613.05,-155.81 622.37,-160.86 623.48,-153.95"/>
</g>
<!-- n4 -->
<g id="node4" class="node">
<title>n4</title>
<polygon fill="#fffdd0" stroke="black" points="1020.5,-158 766.5,-158 766.5,-122 1020.5,-122 1020.5,-158"/>
<text text-anchor="middle" x="893.5" y="-136.3" font-family="Arial" font-size="14.00">Colorful paper cups at ears and mouths</text>
</g>
<!-- n1&#45;&gt;n4 -->
<g id="edge3" class="edge">
<title>n1&#45;&gt;n4</title>
<path fill="none" stroke="black" d="M1210.9,-243.93C1143.6,-222.12 1027.3,-184.4 955.73,-161.18"/>
<polygon fill="black" stroke="black" points="956.53,-157.76 945.94,-158.01 954.38,-164.42 956.53,-157.76"/>
</g>
<!-- n5 -->
<g id="node5" class="node">
<title>n5</title>
<polygon fill="#fffdd0" stroke="black" points="1402.5,-158 1124.5,-158 1124.5,-122 1402.5,-122 1402.5,-158"/>
<text text-anchor="middle" x="1263.5" y="-136.3" font-family="Arial" font-size="14.00">String between the cups is tight and straight</text>
</g>
<!-- n1&#45;&gt;n5 -->
<g id="edge4" class="edge">
<title>n1&#45;&gt;n5</title>
<path fill="none" stroke="black" d="M1263.5,-243.81C1263.5,-224.11 1263.5,-191.58 1263.5,-168.39"/>
<polygon fill="black" stroke="black" points="1267,-168.16 1263.5,-158.16 1260,-168.16 1267,-168.16"/>
</g>
<!-- n6 -->
<g id="node6" class="node">
<title>n6</title>
<polygon fill="#fffdd0" stroke="black" points="1707.5,-158 1497.5,-158 1497.5,-122 1707.5,-122 1707.5,-158"/>
<text text-anchor="middle" x="1602.5" y="-136.3" font-family="Arial" font-size="14.00">Direction arrows along the string</text>
</g>
<!-- n1&#45;&gt;n6 -->
<g id="edge5" class="edge">
<title>n1&#45;&gt;n6</title>
<path fill="none" stroke="black" d="M1311.7,-243.93C1373.1,-222.21 1479,-184.71 1544.7,-161.47"/>
<polygon fill="black" stroke="black" points="1546.24,-164.64 1554.5,-158.01 1543.91,-158.04 1546.24,-164.64"/>
</g>
<!-- n7 -->
<g id="node7" class="node">
<title>n7</title>
<polygon fill="#fffdd0" stroke="black" points="2017,-158 1798,-158 1798,-122 2017,-122 2017,-158"/>
<text text-anchor="middle" x="1907.5" y="-136.3" font-family="Arial" font-size="14.00">Labels: cups, string, sound waves</text>
</g>
<!-- n1&#45;&gt;n7 -->
<g id="edge6" class="edge">
<title>n1&#45;&gt;n7</title>
<path fill="none" stroke="black" d="M1354.7,-244C1474,-221.78 1682.2,-182.98 1806.2,-159.87"/>
<polygon fill="black" stroke="black" points="1806.91,-163.3 1816.1,-158.03 1805.63,-156.42 1806.91,-163.3"/>
</g>
<!-- n8 -->
<g id="node8" class="node">
<title>n8</title>
<polygon fill="#fffdd0" stroke="black" points="2417,-158 2106,-158 2106,-122 2417,-122 2417,-158"/>
<text text-anchor="middle" x="2261.5" y="-136.3" font-family="Arial" font-size="14.00">Caption: &#39;Calling for Help&#39; or &#39;Sharing a Message&#39;</text>
</g>
<!-- n1&#45;&gt;n8 -->
<g id="edge7" class="edge">
<title>n1&#45;&gt;n8</title>
<path fill="none" stroke="black" d="M1387.9,-246.04C1570.8,-224.04 1912.2,-183 2109.7,-159.26"/>
<polygon fill="black" stroke="black" points="2110.3,-162.71 2119.8,-158.03 2109.45,-155.76 2110.3,-162.71"/>
</g>
<!-- n9 -->
<g id="node9" class="node">
<title>n9</title>
<path fill="palegreen" stroke="black" d="M257,-36C257,-36 12,-36 12,-36 6,-36 0,-30 0,-24 0,-24 0,-12 0,-12 0,-6 6,0 12,0 12,0 257,0 257,0 263,0 269,-6 269,-12 269,-12 269,-24 269,-24 269,-30 263,-36 257,-36"/>
<text text-anchor="middle" x="134.5" y="-14.3" font-family="Arial" font-size="14.00">Understanding of distance communication</text>
</g>
<!-- n2&#45;&gt;n9 -->
<g id="edge8" class="edge">
<title>n2&#45;&gt;n9</title>
<path fill="none" stroke="black" d="M218.46,-121.81C201.79,-101.4 173.87,-67.21 154.84,-43.91"/>
<polygon fill="black" stroke="black" points="157.55,-41.69 148.51,-36.16 152.13,-46.12 157.55,-41.69"/>
</g>
<!-- n10 -->
<g id="node10" class="node">
<title>n10</title>
<path fill="palegreen" stroke="black" d="M605.5,-36C605.5,-36 339.5,-36 339.5,-36 333.5,-36 327.5,-30 327.5,-24 327.5,-24 327.5,-12 327.5,-12 327.5,-6 333.5,0 339.5,0 339.5,0 605.5,0 605.5,0 611.5,0 617.5,-6 617.5,-12 617.5,-12 617.5,-24 617.5,-24 617.5,-30 611.5,-36 605.5,-36"/>
<text text-anchor="middle" x="472.5" y="-14.3" font-family="Arial" font-size="14.00">Understanding the context of the environment</text>
</g>
<!-- n3&#45;&gt;n10 -->
<g id="edge9" class="edge">
<title>n3&#45;&gt;n10</title>
<path fill="none" stroke="black" d="M514.48,-121.81C506.33,-101.85 492.79,-68.7 483.3,-45.45"/>
<polygon fill="black" stroke="black" points="486.53,-44.1 479.51,-36.16 480.05,-46.74 486.53,-44.1"/>
</g>
<!-- n11 -->
<g id="node11" class="node">
<title>n11</title>
<path fill="palegreen" stroke="black" d="M1007.5,-36C1007.5,-36 687.5,-36 687.5,-36 681.5,-36 675.5,-30 675.5,-24 675.5,-24 675.5,-12 675.5,-12 675.5,-6 681.5,0 687.5,0 687.5,0 1007.5,0 1007.5,0 1013.5,0 1019.5,-6 1019.5,-12 1019.5,-12 1019.5,-24 1019.5,-24 1019.5,-30 1013.5,-36 1007.5,-36"/>
<text text-anchor="middle" x="847.5" y="-14.3" font-family="Arial" font-size="14.00">Knowledge of components involved in string telephone</text>
</g>
<!-- n4&#45;&gt;n11 -->
<g id="edge10" class="edge">
<title>n4&#45;&gt;n11</title>
<path fill="none" stroke="black" d="M886.91,-121.81C879.29,-101.94 866.66,-68.99 857.76,-45.76"/>
<polygon fill="black" stroke="black" points="860.93,-44.25 854.08,-36.16 854.39,-46.75 860.93,-44.25"/>
</g>
<!-- n12 -->
<g id="node12" class="node">
<title>n12</title>
<path fill="palegreen" stroke="black" d="M1437,-36C1437,-36 1090,-36 1090,-36 1084,-36 1078,-30 1078,-24 1078,-24 1078,-12 1078,-12 1078,-6 1084,0 1090,0 1090,0 1437,0 1437,0 1443,0 1449,-6 1449,-12 1449,-12 1449,-24 1449,-24 1449,-30 1443,-36 1437,-36"/>
<text text-anchor="middle" x="1263.5" y="-14.3" font-family="Arial" font-size="14.00">Understanding importance of string tension for sound travel</text>
</g>
<!-- n5&#45;&gt;n12 -->
<g id="edge11" class="edge">
<title>n5&#45;&gt;n12</title>
<path fill="none" stroke="black" d="M1263.5,-121.81C1263.5,-102.11 1263.5,-69.58 1263.5,-46.39"/>
<polygon fill="black" stroke="black" points="1267,-46.16 1263.5,-36.16 1260,-46.16 1267,-46.16"/>
</g>
<!-- n13 -->
<g id="node13" class="node">
<title>n13</title>
<path fill="palegreen" stroke="black" d="M1759.5,-36C1759.5,-36 1519.5,-36 1519.5,-36 1513.5,-36 1507.5,-30 1507.5,-24 1507.5,-24 1507.5,-12 1507.5,-12 1507.5,-6 1513.5,0 1519.5,0 1519.5,0 1759.5,0 1759.5,0 1765.5,0 1771.5,-6 1771.5,-12 1771.5,-12 1771.5,-24 1771.5,-24 1771.5,-30 1765.5,-36 1759.5,-36"/>
<text text-anchor="middle" x="1639.5" y="-14.3" font-family="Arial" font-size="14.00">Correct depiction of sound wave direction</text>
</g>
<!-- n6&#45;&gt;n13 -->
<g id="edge12" class="edge">
<title>n6&#45;&gt;n13</title>
<path fill="none" stroke="black" d="M1607.8,-121.81C1613.9,-101.94 1624.1,-68.99 1631.2,-45.76"/>
<polygon fill="black" stroke="black" points="1634.56,-46.75 1634.2,-36.16 1627.88,-44.66 1634.56,-46.75"/>
</g>
<!-- n14 -->
<g id="node14" class="node">
<title>n14</title>
<path fill="palegreen" stroke="black" d="M2039,-36C2039,-36 1842,-36 1842,-36 1836,-36 1830,-30 1830,-24 1830,-24 1830,-12 1830,-12 1830,-6 1836,0 1842,0 1842,0 2039,0 2039,0 2045,0 2051,-6 2051,-12 2051,-12 2051,-24 2051,-24 2051,-30 2045,-36 2039,-36"/>
<text text-anchor="middle" x="1940.5" y="-14.3" font-family="Arial" font-size="14.00">Correct labeling of device features</text>
</g>
<!-- n7&#45;&gt;n14 -->
<g id="edge13" class="edge">
<title>n7&#45;&gt;n14</title>
<path fill="none" stroke="black" d="M1912.2,-121.81C1917.7,-102.02 1926.7,-69.29 1933.1,-46.08"/>
<polygon fill="black" stroke="black" points="1936.55,-46.73 1935.8,-36.16 1929.8,-44.89 1936.55,-46.73"/>
</g>
<!-- n15 -->
<g id="node15" class="node">
<title>n15</title>
<path fill="palegreen" stroke="black" d="M2465.5,-36C2465.5,-36 2121.5,-36 2121.5,-36 2115.5,-36 2109.5,-30 2109.5,-24 2109.5,-24 2109.5,-12 2109.5,-12 2109.5,-6 2115.5,0 2121.5,0 2121.5,0 2465.5,0 2465.5,0 2471.5,0 2477.5,-6 2477.5,-12 2477.5,-12 2477.5,-24 2477.5,-24 2477.5,-30 2471.5,-36 2465.5,-36"/>
<text text-anchor="middle" x="2293.5" y="-14.3" font-family="Arial" font-size="14.00">Understanding of communication examples over distances</text>
</g>
<!-- n8&#45;&gt;n15 -->
<g id="edge14" class="edge">
<title>n8&#45;&gt;n15</title>
<path fill="none" stroke="black" d="M2266.1,-121.81C2271.4,-102.02 2280.1,-69.29 2286.3,-46.08"/>
<polygon fill="black" stroke="black" points="2289.75,-46.72 2288.9,-36.16 2282.98,-44.95 2289.75,-46.72"/>
</g>
</g>
</svg>
