<?xml version="1.0" encoding="UTF-8" standalone="no"?>
<!DOCTYPE svg PUBLIC "-//W3C//DTD SVG 1.1//EN"
 "http://www.w3.org/Graphics/SVG/1.1/DTD/svg11.dtd">
<!-- Generated by graphviz version 2.43.0 (0)
 -->
<!-- Pages: 1 -->
<svg width="581pt" height="410pt"
 viewBox="0.00 0.00 580.50 410.00" xmlns="http://www.w3.org/2000/svg" xmlns:xlink="http://www.w3.org/1999/xlink">
<g id="graph0" class="graph" transform="scale(1 1) rotate(0) translate(4 406)">
<polygon fill="white" stroke="transparent" points="-4,4 -4,-406 576.5,-406 576.5,4 -4,4"/>
<!-- n1 -->
<g id="node1" class="node">
<title>n1</title>
<polygon fill="lightblue" stroke="black" points="524,-384 432.75,-402 250.25,-402 159,-384 250.25,-366 432.75,-366 524,-384"/>
<text text-anchor="middle" x="341.5" y="-380.3" font-family="Arial" font-size="14.00">Draw reversible changes (ice melting)</text>
</g>
<!-- n2 -->
<g id="node2" class="node">
<title>n2</title>
<polygon fill="#fffdd0" stroke="black" points="295.5,-280 209.5,-280 209.5,-244 295.5,-244 295.5,-280"/>
<text text-anchor="middle" x="252.5" y="-258.3" font-family="Arial" font-size="14.00">Block of ice</text>
</g>
<!-- n1&#45;&gt;n2 -->
<g id="edge1" class="edge">
<title>n1&#45;&gt;n2</title>
<path fill="none" stroke="black" d="M328.75,-365.81C313.68,-345.49 288.48,-311.51 271.2,-288.21"/>
<polygon fill="black" stroke="black" points="274,-286.11 265.23,-280.16 268.38,-290.28 274,-286.11"/>
</g>
<!-- n3 -->
<g id="node3" class="node">
<title>n3</title>
<polygon fill="#fffdd0" stroke="black" points="507.5,-280 353.5,-280 353.5,-244 507.5,-244 507.5,-280"/>
<text text-anchor="middle" x="430.5" y="-258.3" font-family="Arial" font-size="14.00">Water droplets forming</text>
</g>
<!-- n1&#45;&gt;n3 -->
<g id="edge2" class="edge">
<title>n1&#45;&gt;n3</title>
<path fill="none" stroke="black" d="M354.25,-365.81C369.32,-345.49 394.52,-311.51 411.8,-288.21"/>
<polygon fill="black" stroke="black" points="414.62,-290.28 417.77,-280.16 409,-286.11 414.62,-290.28"/>
</g>
<!-- n4 -->
<g id="node4" class="node">
<title>n4</title>
<path fill="palegreen" stroke="black" d="M179,-158C179,-158 12,-158 12,-158 6,-158 0,-152 0,-146 0,-146 0,-134 0,-134 0,-128 6,-122 12,-122 12,-122 179,-122 179,-122 185,-122 191,-128 191,-134 191,-134 191,-146 191,-146 191,-152 185,-158 179,-158"/>
<text text-anchor="middle" x="95.5" y="-136.3" font-family="Arial" font-size="14.00">Initial melting of ice observed</text>
</g>
<!-- n2&#45;&gt;n4 -->
<g id="edge3" class="edge">
<title>n2&#45;&gt;n4</title>
<path fill="none" stroke="black" d="M230.01,-243.81C202.72,-222.96 156.61,-187.71 126.11,-164.4"/>
<polygon fill="black" stroke="black" points="128.02,-161.45 117.95,-158.16 123.77,-167.01 128.02,-161.45"/>
</g>
<!-- n5 -->
<g id="node5" class="node">
<title>n5</title>
<polygon fill="lightcoral" stroke="black" points="410.5,-158 248.5,-140 410.5,-122 572.5,-140 410.5,-158"/>
<text text-anchor="middle" x="410.5" y="-136.3" font-family="Arial" font-size="14.00">Incomplete cycle depiction</text>
</g>
<!-- n2&#45;&gt;n5 -->
<g id="edge4" class="edge">
<title>n2&#45;&gt;n5</title>
<path fill="none" stroke="black" d="M275.14,-243.81C303.53,-222.24 352.18,-185.29 382.78,-162.06"/>
<polygon fill="black" stroke="black" points="385.05,-164.73 390.89,-155.89 380.81,-159.16 385.05,-164.73"/>
</g>
<!-- n6 -->
<g id="node6" class="node">
<title>n6</title>
<polygon fill="#f28e8e" stroke="black" points="501,-36 320,-36 320,0 501,0 501,-36"/>
<text text-anchor="middle" x="410.5" y="-14.3" font-family="Arial" font-size="14.00">Feedback: Show refreezing</text>
</g>
<!-- n5&#45;&gt;n6 -->
<g id="edge5" class="edge">
<title>n5&#45;&gt;n6</title>
<path fill="none" stroke="black" d="M410.5,-121.81C410.5,-102.11 410.5,-69.58 410.5,-46.39"/>
<polygon fill="black" stroke="black" points="414,-46.16 410.5,-36.16 407,-46.16 414,-46.16"/>
</g>
</g>
</svg>
