<?xml version="1.0" encoding="UTF-8" standalone="no"?>
<!DOCTYPE svg PUBLIC "-//W3C//DTD SVG 1.1//EN"
 "http://www.w3.org/Graphics/SVG/1.1/DTD/svg11.dtd">
<!-- Generated by graphviz version 2.43.0 (0)
 -->
<!-- Pages: 1 -->
<svg width="2835pt" height="410pt"
 viewBox="0.00 0.00 2834.54 410.00" xmlns="http://www.w3.org/2000/svg" xmlns:xlink="http://www.w3.org/1999/xlink">
<g id="graph0" class="graph" transform="scale(1 1) rotate(0) translate(4 406)">
<polygon fill="white" stroke="transparent" points="-4,4 -4,-406 2830.54,-406 2830.54,4 -4,4"/>
<!-- n1 -->
<g id="node1" class="node">
<title>n1</title>
<polygon fill="lightblue" stroke="black" points="1950.04,-384 1786.04,-402 1458.04,-402 1294.04,-384 1458.04,-366 1786.04,-366 1950.04,-384"/>
<text text-anchor="middle" x="1622.04" y="-380.3" font-family="Arial" font-size="14.00">Draw reversible and irreversible changes (ice melting vs. egg cooking)</text>
</g>
<!-- n2 -->
<g id="node2" class="node">
<title>n2</title>
<polygon fill="#fffdd0" stroke="black" points="931.5,-280 670.5,-280 670.5,-244 931.5,-244 931.5,-280"/>
<text text-anchor="middle" x="801" y="-258.3" font-family="Arial" font-size="14.00">Light blue rectangle for ice under the sun</text>
</g>
<!-- n1&#45;&gt;n2 -->
<g id="edge1" class="edge">
<title>n1&#45;&gt;n2</title>
<path fill="none" stroke="black" d="M1505.64,-366C1352.84,-343.66 1085.54,-304.59 927.72,-281.52"/>
<polygon fill="black" stroke="black" points="927.89,-278.01 917.49,-280.03 926.88,-284.93 927.89,-278.01"/>
</g>
<!-- n3 -->
<g id="node3" class="node">
<title>n3</title>
<polygon fill="#fffdd0" stroke="black" points="1813.04,-280 1431.04,-280 1431.04,-244 1813.04,-244 1813.04,-280"/>
<text text-anchor="middle" x="1622.04" y="-258.3" font-family="Arial" font-size="14.00">White oval representing an egg with a red&#45;brown circle below</text>
</g>
<!-- n1&#45;&gt;n3 -->
<g id="edge2" class="edge">
<title>n1&#45;&gt;n3</title>
<path fill="none" stroke="black" d="M1622.04,-365.81C1622.04,-346.11 1622.04,-313.58 1622.04,-290.39"/>
<polygon fill="black" stroke="black" points="1625.54,-290.16 1622.04,-280.16 1618.54,-290.16 1625.54,-290.16"/>
</g>
<!-- n8 -->
<g id="node4" class="node">
<title>n8</title>
<polygon fill="lightcoral" stroke="black" points="2482.04,-280 2202.54,-262 2482.04,-244 2761.54,-262 2482.04,-280"/>
<text text-anchor="middle" x="2482.04" y="-258.3" font-family="Arial" font-size="14.00">Fails to convey reversible vs irreversible change</text>
</g>
<!-- n1&#45;&gt;n8 -->
<g id="edge3" class="edge">
<title>n1&#45;&gt;n8</title>
<path fill="none" stroke="black" d="M1743.84,-366C1917.44,-341.78 2232.04,-297.88 2388.44,-276.05"/>
<polygon fill="black" stroke="black" points="2389.12,-279.49 2398.54,-274.65 2388.15,-272.56 2389.12,-279.49"/>
</g>
<!-- n4 -->
<g id="node5" class="node">
<title>n4</title>
<polygon fill="lightcoral" stroke="black" points="219,-158 0,-140 219,-122 438,-140 219,-158"/>
<text text-anchor="middle" x="219" y="-136.3" font-family="Arial" font-size="14.00">Ice melting shown as sun heating ice</text>
</g>
<!-- n2&#45;&gt;n4 -->
<g id="edge4" class="edge">
<title>n2&#45;&gt;n4</title>
<path fill="none" stroke="black" d="M718.54,-244C603.25,-220.23 395.97,-177.49 288.25,-155.28"/>
<polygon fill="black" stroke="black" points="288.64,-151.79 278.14,-153.19 287.22,-158.64 288.64,-151.79"/>
</g>
<!-- n6 -->
<g id="node6" class="node">
<title>n6</title>
<polygon fill="lightcoral" stroke="black" points="801,-158 495.68,-140 801,-122 1106.32,-140 801,-158"/>
<text text-anchor="middle" x="801" y="-136.3" font-family="Arial" font-size="14.00">Does not demonstrate water formation or ice melting</text>
</g>
<!-- n2&#45;&gt;n6 -->
<g id="edge5" class="edge">
<title>n2&#45;&gt;n6</title>
<path fill="none" stroke="black" d="M801,-243.81C801,-224.11 801,-191.58 801,-168.39"/>
<polygon fill="black" stroke="black" points="804.5,-168.16 801,-158.16 797.5,-168.16 804.5,-168.16"/>
</g>
<!-- n5 -->
<g id="node7" class="node">
<title>n5</title>
<polygon fill="lightcoral" stroke="black" points="1456.04,-158 1163.54,-140 1456.04,-122 1748.54,-140 1456.04,-158"/>
<text text-anchor="middle" x="1456.04" y="-136.3" font-family="Arial" font-size="14.00">Egg cooking shown with red&#45;brown heating source</text>
</g>
<!-- n3&#45;&gt;n5 -->
<g id="edge6" class="edge">
<title>n3&#45;&gt;n5</title>
<path fill="none" stroke="black" d="M1598.24,-243.81C1568.64,-222.45 1518.24,-185.99 1486.04,-162.72"/>
<polygon fill="black" stroke="black" points="1488,-159.82 1477.84,-156.82 1483.91,-165.5 1488,-159.82"/>
</g>
<!-- n7 -->
<g id="node8" class="node">
<title>n7</title>
<polygon fill="lightcoral" stroke="black" points="2109.04,-158 1806.54,-140 2109.04,-122 2411.54,-140 2109.04,-158"/>
<text text-anchor="middle" x="2109.04" y="-136.3" font-family="Arial" font-size="14.00">Does not show egg transforming into a cooked state</text>
</g>
<!-- n3&#45;&gt;n7 -->
<g id="edge7" class="edge">
<title>n3&#45;&gt;n7</title>
<path fill="none" stroke="black" d="M1691.04,-244C1784.84,-220.88 1951.34,-179.84 2043.44,-157.17"/>
<polygon fill="black" stroke="black" points="2044.28,-160.57 2053.14,-154.76 2042.59,-153.77 2044.28,-160.57"/>
</g>
<!-- n11 -->
<g id="node9" class="node">
<title>n11</title>
<polygon fill="#f28e8e" stroke="black" points="2826.54,-158 2469.54,-158 2469.54,-122 2826.54,-122 2826.54,-158"/>
<text text-anchor="middle" x="2648.04" y="-136.3" font-family="Arial" font-size="14.00">Differentiate between reversible and irreversible changes</text>
</g>
<!-- n8&#45;&gt;n11 -->
<g id="edge8" class="edge">
<title>n8&#45;&gt;n11</title>
<path fill="none" stroke="black" d="M2503.74,-245.31C2532.34,-224.61 2582.94,-188 2616.04,-164.12"/>
<polygon fill="black" stroke="black" points="2618.38,-166.74 2624.44,-158.05 2614.28,-161.07 2618.38,-166.74"/>
</g>
<!-- n9 -->
<g id="node10" class="node">
<title>n9</title>
<polygon fill="#f28e8e" stroke="black" points="365.5,-36 72.5,-36 72.5,0 365.5,0 365.5,-36"/>
<text text-anchor="middle" x="219" y="-14.3" font-family="Arial" font-size="14.00">Clarify and illustrate the melting of ice to water</text>
</g>
<!-- n4&#45;&gt;n9 -->
<g id="edge9" class="edge">
<title>n4&#45;&gt;n9</title>
<path fill="none" stroke="black" d="M219,-121.81C219,-102.11 219,-69.58 219,-46.39"/>
<polygon fill="black" stroke="black" points="222.5,-46.16 219,-36.16 215.5,-46.16 222.5,-46.16"/>
</g>
<!-- n10 -->
<g id="node11" class="node">
<title>n10</title>
<polygon fill="#f28e8e" stroke="black" points="1615.04,-36 1297.04,-36 1297.04,0 1615.04,0 1615.04,-36"/>
<text text-anchor="middle" x="1456.04" y="-14.3" font-family="Arial" font-size="14.00">Show egg changing into a solid form when cooked</text>
</g>
<!-- n5&#45;&gt;n10 -->
<g id="edge10" class="edge">
<title>n5&#45;&gt;n10</title>
<path fill="none" stroke="black" d="M1456.04,-121.81C1456.04,-102.11 1456.04,-69.58 1456.04,-46.39"/>
<polygon fill="black" stroke="black" points="1459.54,-46.16 1456.04,-36.16 1452.54,-46.16 1459.54,-46.16"/>
</g>
</g>
</svg>
