<?xml version="1.0" encoding="UTF-8" standalone="no"?>
<!DOCTYPE svg PUBLIC "-//W3C//DTD SVG 1.1//EN"
 "http://www.w3.org/Graphics/SVG/1.1/DTD/svg11.dtd">
<!-- Generated by graphviz version 2.43.0 (0)
 -->
<!-- Pages: 1 -->
<svg width="962pt" height="410pt"
 viewBox="0.00 0.00 961.72 410.00" xmlns="http://www.w3.org/2000/svg" xmlns:xlink="http://www.w3.org/1999/xlink">
<g id="graph0" class="graph" transform="scale(1 1) rotate(0) translate(4 406)">
<polygon fill="white" stroke="transparent" points="-4,4 -4,-406 957.72,-406 957.72,4 -4,4"/>
<!-- n1 -->
<g id="node1" class="node">
<title>n1</title>
<polygon fill="lightblue" stroke="black" points="468,-384 376,-402 192,-402 100,-384 192,-366 376,-366 468,-384"/>
<text text-anchor="middle" x="284" y="-380.3" font-family="Arial" font-size="14.00">Illustrate plants with and without water</text>
</g>
<!-- n2 -->
<g id="node2" class="node">
<title>n2</title>
<polygon fill="#fffdd0" stroke="black" points="252,-280 0,-280 0,-244 252,-244 252,-280"/>
<text text-anchor="middle" x="126" y="-258.3" font-family="Arial" font-size="14.00">Healthy plant with green, vibrant leaves</text>
</g>
<!-- n1&#45;&gt;n2 -->
<g id="edge1" class="edge">
<title>n1&#45;&gt;n2</title>
<path fill="none" stroke="black" d="M261.36,-365.81C233.91,-344.96 187.5,-309.71 156.81,-286.4"/>
<polygon fill="black" stroke="black" points="158.68,-283.42 148.6,-280.16 154.44,-289 158.68,-283.42"/>
</g>
<!-- n3 -->
<g id="node3" class="node">
<title>n3</title>
<polygon fill="#fffdd0" stroke="black" points="573.5,-280 310.5,-280 310.5,-244 573.5,-244 573.5,-280"/>
<text text-anchor="middle" x="442" y="-258.3" font-family="Arial" font-size="14.00">Unhealthy plant with wilted, brown leaves</text>
</g>
<!-- n1&#45;&gt;n3 -->
<g id="edge2" class="edge">
<title>n1&#45;&gt;n3</title>
<path fill="none" stroke="black" d="M306.64,-365.81C334.09,-344.96 380.5,-309.71 411.19,-286.4"/>
<polygon fill="black" stroke="black" points="413.56,-289 419.4,-280.16 409.32,-283.42 413.56,-289"/>
</g>
<!-- n4 -->
<g id="node4" class="node">
<title>n4</title>
<path fill="palegreen" stroke="black" d="M217,-158C217,-158 35,-158 35,-158 29,-158 23,-152 23,-146 23,-146 23,-134 23,-134 23,-128 29,-122 35,-122 35,-122 217,-122 217,-122 223,-122 229,-128 229,-134 229,-134 229,-146 229,-146 229,-152 223,-158 217,-158"/>
<text text-anchor="middle" x="126" y="-136.3" font-family="Arial" font-size="14.00">Plants need water to be healthy</text>
</g>
<!-- n2&#45;&gt;n4 -->
<g id="edge3" class="edge">
<title>n2&#45;&gt;n4</title>
<path fill="none" stroke="black" d="M126,-243.81C126,-224.11 126,-191.58 126,-168.39"/>
<polygon fill="black" stroke="black" points="129.5,-168.16 126,-158.16 122.5,-168.16 129.5,-168.16"/>
</g>
<!-- n5 -->
<g id="node5" class="node">
<title>n5</title>
<path fill="palegreen" stroke="black" d="M536.5,-158C536.5,-158 315.5,-158 315.5,-158 309.5,-158 303.5,-152 303.5,-146 303.5,-146 303.5,-134 303.5,-134 303.5,-128 309.5,-122 315.5,-122 315.5,-122 536.5,-122 536.5,-122 542.5,-122 548.5,-128 548.5,-134 548.5,-134 548.5,-146 548.5,-146 548.5,-152 542.5,-158 536.5,-158"/>
<text text-anchor="middle" x="426" y="-136.3" font-family="Arial" font-size="14.00">Plants without water appear unhealthy</text>
</g>
<!-- n3&#45;&gt;n5 -->
<g id="edge4" class="edge">
<title>n3&#45;&gt;n5</title>
<path fill="none" stroke="black" d="M439.71,-243.81C437.07,-224.02 432.71,-191.29 429.61,-168.08"/>
<polygon fill="black" stroke="black" points="433.08,-167.61 428.29,-158.16 426.14,-168.53 433.08,-167.61"/>
</g>
<!-- n6 -->
<g id="node6" class="node">
<title>n6</title>
<polygon fill="lightcoral" stroke="black" points="780,-158 606.06,-140 780,-122 953.94,-140 780,-158"/>
<text text-anchor="middle" x="780" y="-136.3" font-family="Arial" font-size="14.00">Focus on water over sunlight</text>
</g>
<!-- n3&#45;&gt;n6 -->
<g id="edge5" class="edge">
<title>n3&#45;&gt;n6</title>
<path fill="none" stroke="black" d="M490.07,-243.93C554.73,-220.98 669,-180.41 733.07,-157.66"/>
<polygon fill="black" stroke="black" points="734.28,-160.95 742.53,-154.3 731.94,-154.35 734.28,-160.95"/>
</g>
<!-- n7 -->
<g id="node7" class="node">
<title>n7</title>
<polygon fill="#f28e8e" stroke="black" points="930,-36 630,-36 630,0 930,0 930,-36"/>
<text text-anchor="middle" x="780" y="-14.3" font-family="Arial" font-size="14.00">Consider importance of both water and sunlight</text>
</g>
<!-- n6&#45;&gt;n7 -->
<g id="edge6" class="edge">
<title>n6&#45;&gt;n7</title>
<path fill="none" stroke="black" d="M780,-121.81C780,-102.11 780,-69.58 780,-46.39"/>
<polygon fill="black" stroke="black" points="783.5,-46.16 780,-36.16 776.5,-46.16 783.5,-46.16"/>
</g>
</g>
</svg>
