<?xml version="1.0" encoding="UTF-8" standalone="no"?>
<!DOCTYPE svg PUBLIC "-//W3C//DTD SVG 1.1//EN"
 "http://www.w3.org/Graphics/SVG/1.1/DTD/svg11.dtd">
<!-- Generated by graphviz version 2.43.0 (0)
 -->
<!-- Pages: 1 -->
<svg width="2159pt" height="288pt"
 viewBox="0.00 0.00 2158.50 288.00" xmlns="http://www.w3.org/2000/svg" xmlns:xlink="http://www.w3.org/1999/xlink">
<g id="graph0" class="graph" transform="scale(1 1) rotate(0) translate(4 284)">
<polygon fill="white" stroke="transparent" points="-4,4 -4,-284 2154.5,-284 2154.5,4 -4,4"/>
<!-- n1 -->
<g id="node1" class="node">
<title>n1</title>
<polygon fill="lightblue" stroke="black" points="1436.5,-262 1272.5,-280 944.5,-280 780.5,-262 944.5,-244 1272.5,-244 1436.5,-262"/>
<text text-anchor="middle" x="1108.5" y="-258.3" font-family="Arial" font-size="14.00">Draw reversible and irreversible changes (ice melting vs. egg cooking)</text>
</g>
<!-- n2 -->
<g id="node2" class="node">
<title>n2</title>
<polygon fill="#fffdd0" stroke="black" points="705,-158 0,-158 0,-122 705,-122 705,-158"/>
<text text-anchor="middle" x="352.5" y="-136.3" font-family="Arial" font-size="14.00">Ice cube labeled &#39;ice (solid)&#39;, arrow labeled &#39;heat&#39;, puddle labeled &#39;water (liquid)&#39;, arrow labeled &#39;cool&#39;, solid ice again</text>
</g>
<!-- n1&#45;&gt;n2 -->
<g id="edge1" class="edge">
<title>n1&#45;&gt;n2</title>
<path fill="none" stroke="black" d="M1001.4,-244C860.97,-221.71 615.48,-182.74 470.06,-159.66"/>
<polygon fill="black" stroke="black" points="470.19,-156.14 459.77,-158.03 469.1,-163.05 470.19,-156.14"/>
</g>
<!-- n3 -->
<g id="node3" class="node">
<title>n3</title>
<polygon fill="#fffdd0" stroke="black" points="1454,-158 763,-158 763,-122 1454,-122 1454,-158"/>
<text text-anchor="middle" x="1108.5" y="-136.3" font-family="Arial" font-size="14.00">Raw egg labeled &#39;raw egg&#39;, arrow labeled &#39;heat&#39;, cooked egg labeled &#39;cooked egg&#39;, arrow labeled &#39;cannot reverse&#39;</text>
</g>
<!-- n1&#45;&gt;n3 -->
<g id="edge2" class="edge">
<title>n1&#45;&gt;n3</title>
<path fill="none" stroke="black" d="M1108.5,-243.81C1108.5,-224.11 1108.5,-191.58 1108.5,-168.39"/>
<polygon fill="black" stroke="black" points="1112,-168.16 1108.5,-158.16 1105,-168.16 1112,-168.16"/>
</g>
<!-- n4 -->
<g id="node4" class="node">
<title>n4</title>
<polygon fill="#fffdd0" stroke="black" points="2150.5,-158 1512.5,-158 1512.5,-122 2150.5,-122 2150.5,-158"/>
<text text-anchor="middle" x="1831.5" y="-136.3" font-family="Arial" font-size="14.00">Bar of chocolate transitions from &#39;melted chocolate&#39; with &#39;heat&#39; arrow to &#39;solid chocolate&#39; with &#39;cool&#39; arrow</text>
</g>
<!-- n1&#45;&gt;n4 -->
<g id="edge3" class="edge">
<title>n1&#45;&gt;n4</title>
<path fill="none" stroke="black" d="M1210.9,-244C1345.1,-221.73 1579.5,-182.82 1718.7,-159.73"/>
<polygon fill="black" stroke="black" points="1719.61,-163.13 1728.9,-158.03 1718.46,-156.22 1719.61,-163.13"/>
</g>
<!-- n5 -->
<g id="node5" class="node">
<title>n5</title>
<path fill="palegreen" stroke="black" d="M539.5,-36C539.5,-36 165.5,-36 165.5,-36 159.5,-36 153.5,-30 153.5,-24 153.5,-24 153.5,-12 153.5,-12 153.5,-6 159.5,0 165.5,0 165.5,0 539.5,0 539.5,0 545.5,0 551.5,-6 551.5,-12 551.5,-12 551.5,-24 551.5,-24 551.5,-30 545.5,-36 539.5,-36"/>
<text text-anchor="middle" x="352.5" y="-14.3" font-family="Arial" font-size="14.00">Understanding of reversible change (ice melting and refreezing)</text>
</g>
<!-- n2&#45;&gt;n5 -->
<g id="edge4" class="edge">
<title>n2&#45;&gt;n5</title>
<path fill="none" stroke="black" d="M352.5,-121.81C352.5,-102.11 352.5,-69.58 352.5,-46.39"/>
<polygon fill="black" stroke="black" points="356,-46.16 352.5,-36.16 349,-46.16 356,-46.16"/>
</g>
<!-- n6 -->
<g id="node6" class="node">
<title>n6</title>
<path fill="palegreen" stroke="black" d="M1258,-36C1258,-36 959,-36 959,-36 953,-36 947,-30 947,-24 947,-24 947,-12 947,-12 947,-6 953,0 959,0 959,0 1258,0 1258,0 1264,0 1270,-6 1270,-12 1270,-12 1270,-24 1270,-24 1270,-30 1264,-36 1258,-36"/>
<text text-anchor="middle" x="1108.5" y="-14.3" font-family="Arial" font-size="14.00">Understanding of irreversible change (egg cooking)</text>
</g>
<!-- n3&#45;&gt;n6 -->
<g id="edge5" class="edge">
<title>n3&#45;&gt;n6</title>
<path fill="none" stroke="black" d="M1108.5,-121.81C1108.5,-102.11 1108.5,-69.58 1108.5,-46.39"/>
<polygon fill="black" stroke="black" points="1112,-46.16 1108.5,-36.16 1105,-46.16 1112,-46.16"/>
</g>
<!-- n7 -->
<g id="node7" class="node">
<title>n7</title>
<path fill="palegreen" stroke="black" d="M2038,-36C2038,-36 1625,-36 1625,-36 1619,-36 1613,-30 1613,-24 1613,-24 1613,-12 1613,-12 1613,-6 1619,0 1625,0 1625,0 2038,0 2038,0 2044,0 2050,-6 2050,-12 2050,-12 2050,-24 2050,-24 2050,-30 2044,-36 2038,-36"/>
<text text-anchor="middle" x="1831.5" y="-14.3" font-family="Arial" font-size="14.00">Understanding of reversible change (chocolate melting and solidifying)</text>
</g>
<!-- n4&#45;&gt;n7 -->
<g id="edge6" class="edge">
<title>n4&#45;&gt;n7</title>
<path fill="none" stroke="black" d="M1831.5,-121.81C1831.5,-102.11 1831.5,-69.58 1831.5,-46.39"/>
<polygon fill="black" stroke="black" points="1835,-46.16 1831.5,-36.16 1828,-46.16 1835,-46.16"/>
</g>
</g>
</svg>
