<?xml version="1.0" encoding="UTF-8" standalone="no"?>
<!DOCTYPE svg PUBLIC "-//W3C//DTD SVG 1.1//EN"
 "http://www.w3.org/Graphics/SVG/1.1/DTD/svg11.dtd">
<!-- Generated by graphviz version 2.43.0 (0)
 -->
<!-- Pages: 1 -->
<svg width="1235pt" height="410pt"
 viewBox="0.00 0.00 1235.03 410.00" xmlns="http://www.w3.org/2000/svg" xmlns:xlink="http://www.w3.org/1999/xlink">
<g id="graph0" class="graph" transform="scale(1 1) rotate(0) translate(4 406)">
<polygon fill="white" stroke="transparent" points="-4,4 -4,-406 1231.03,-406 1231.03,4 -4,4"/>
<!-- n1 -->
<g id="node1" class="node">
<title>n1</title>
<polygon fill="lightblue" stroke="black" points="863,-384 732.75,-402 472.25,-402 342,-384 472.25,-366 732.75,-366 863,-384"/>
<text text-anchor="middle" x="602.5" y="-380.3" font-family="Arial" font-size="14.00">Draw two habitats and the different living things in each</text>
</g>
<!-- n2 -->
<g id="node2" class="node">
<title>n2</title>
<polygon fill="#fffdd0" stroke="black" points="731,-280 474,-280 474,-244 731,-244 731,-280"/>
<text text-anchor="middle" x="602.5" y="-258.3" font-family="Arial" font-size="14.00">Land habitat: green blob with tree shape</text>
</g>
<!-- n1&#45;&gt;n2 -->
<g id="edge1" class="edge">
<title>n1&#45;&gt;n2</title>
<path fill="none" stroke="black" d="M602.5,-365.81C602.5,-346.11 602.5,-313.58 602.5,-290.39"/>
<polygon fill="black" stroke="black" points="606,-290.16 602.5,-280.16 599,-290.16 606,-290.16"/>
</g>
<!-- n3 -->
<g id="node3" class="node">
<title>n3</title>
<polygon fill="#fffdd0" stroke="black" points="416,-280 165,-280 165,-244 416,-244 416,-280"/>
<text text-anchor="middle" x="290.5" y="-258.3" font-family="Arial" font-size="14.00">Water habitat: blue oval with fish shape</text>
</g>
<!-- n1&#45;&gt;n3 -->
<g id="edge2" class="edge">
<title>n1&#45;&gt;n3</title>
<path fill="none" stroke="black" d="M558.12,-365.93C501.75,-344.25 404.54,-306.86 344.09,-283.61"/>
<polygon fill="black" stroke="black" points="345.3,-280.33 334.71,-280.01 342.79,-286.86 345.3,-280.33"/>
</g>
<!-- n4 -->
<g id="node4" class="node">
<title>n4</title>
<polygon fill="#fffdd0" stroke="black" points="1097.5,-280 843.5,-280 843.5,-244 1097.5,-244 1097.5,-280"/>
<text text-anchor="middle" x="970.5" y="-258.3" font-family="Arial" font-size="14.00">Repeating plant shapes in both habitats</text>
</g>
<!-- n1&#45;&gt;n4 -->
<g id="edge3" class="edge">
<title>n1&#45;&gt;n4</title>
<path fill="none" stroke="black" d="M654.83,-365.93C721.73,-344.12 837.4,-306.4 908.6,-283.18"/>
<polygon fill="black" stroke="black" points="909.91,-286.43 918.34,-280.01 907.75,-279.78 909.91,-286.43"/>
</g>
<!-- n5 -->
<g id="node5" class="node">
<title>n5</title>
<path fill="palegreen" stroke="black" d="M754,-158C754,-158 451,-158 451,-158 445,-158 439,-152 439,-146 439,-146 439,-134 439,-134 439,-128 445,-122 451,-122 451,-122 754,-122 754,-122 760,-122 766,-128 766,-134 766,-134 766,-146 766,-146 766,-152 760,-158 754,-158"/>
<text text-anchor="middle" x="602.5" y="-136.3" font-family="Arial" font-size="14.00">Identifies basic structures of land and water habitats</text>
</g>
<!-- n2&#45;&gt;n5 -->
<g id="edge4" class="edge">
<title>n2&#45;&gt;n5</title>
<path fill="none" stroke="black" d="M602.5,-243.81C602.5,-224.11 602.5,-191.58 602.5,-168.39"/>
<polygon fill="black" stroke="black" points="606,-168.16 602.5,-158.16 599,-168.16 606,-168.16"/>
</g>
<!-- n6 -->
<g id="node6" class="node">
<title>n6</title>
<polygon fill="lightcoral" stroke="black" points="190.5,-158 0,-140 190.5,-122 381,-140 190.5,-158"/>
<text text-anchor="middle" x="190.5" y="-136.3" font-family="Arial" font-size="14.00">Struggle to differentiate habitats</text>
</g>
<!-- n2&#45;&gt;n6 -->
<g id="edge5" class="edge">
<title>n2&#45;&gt;n6</title>
<path fill="none" stroke="black" d="M543.9,-243.93C464.07,-220.68 322.2,-179.36 244.71,-156.79"/>
<polygon fill="black" stroke="black" points="245.25,-153.3 234.67,-153.87 243.29,-160.02 245.25,-153.3"/>
</g>
<!-- n3&#45;&gt;n5 -->
<g id="edge6" class="edge">
<title>n3&#45;&gt;n5</title>
<path fill="none" stroke="black" d="M334.87,-243.93C391.24,-222.25 488.45,-184.86 548.9,-161.61"/>
<polygon fill="black" stroke="black" points="550.2,-164.86 558.28,-158.01 547.69,-158.33 550.2,-164.86"/>
</g>
<!-- n3&#45;&gt;n6 -->
<g id="edge7" class="edge">
<title>n3&#45;&gt;n6</title>
<path fill="none" stroke="black" d="M276.17,-243.81C258.87,-223.05 229.7,-188.04 210.27,-164.73"/>
<polygon fill="black" stroke="black" points="212.93,-162.45 203.84,-157.01 207.55,-166.93 212.93,-162.45"/>
</g>
<!-- n7 -->
<g id="node7" class="node">
<title>n7</title>
<polygon fill="lightcoral" stroke="black" points="1025.53,-158 824.03,-140 1025.53,-122 1227.03,-140 1025.53,-158"/>
<text text-anchor="middle" x="1025.53" y="-136.3" font-family="Arial" font-size="14.00">Limited diversity in plant depiction</text>
</g>
<!-- n4&#45;&gt;n7 -->
<g id="edge8" class="edge">
<title>n4&#45;&gt;n7</title>
<path fill="none" stroke="black" d="M978.38,-243.81C987.63,-223.62 1003.03,-189.94 1013.73,-166.66"/>
<polygon fill="black" stroke="black" points="1017,-167.93 1018.03,-157.39 1010.65,-164.99 1017,-167.93"/>
</g>
<!-- n8 -->
<g id="node8" class="node">
<title>n8</title>
<polygon fill="#f28e8e" stroke="black" points="364.5,-36 16.5,-36 16.5,0 364.5,0 364.5,-36"/>
<text text-anchor="middle" x="190.5" y="-14.3" font-family="Arial" font-size="14.00">Encourage adding labels and distinct features for clarity</text>
</g>
<!-- n6&#45;&gt;n8 -->
<g id="edge9" class="edge">
<title>n6&#45;&gt;n8</title>
<path fill="none" stroke="black" d="M190.5,-121.81C190.5,-102.11 190.5,-69.58 190.5,-46.39"/>
<polygon fill="black" stroke="black" points="194,-46.16 190.5,-36.16 187,-46.16 194,-46.16"/>
</g>
<!-- n9 -->
<g id="node9" class="node">
<title>n9</title>
<polygon fill="#f28e8e" stroke="black" points="1175.03,-36 876.03,-36 876.03,0 1175.03,0 1175.03,-36"/>
<text text-anchor="middle" x="1025.53" y="-14.3" font-family="Arial" font-size="14.00">Guide to identify diverse plants for each habitat</text>
</g>
<!-- n7&#45;&gt;n9 -->
<g id="edge10" class="edge">
<title>n7&#45;&gt;n9</title>
<path fill="none" stroke="black" d="M1025.53,-121.81C1025.53,-102.11 1025.53,-69.58 1025.53,-46.39"/>
<polygon fill="black" stroke="black" points="1029.03,-46.16 1025.53,-36.16 1022.03,-46.16 1029.03,-46.16"/>
</g>
</g>
</svg>
