<?xml version="1.0" encoding="UTF-8" standalone="no"?>
<!DOCTYPE svg PUBLIC "-//W3C//DTD SVG 1.1//EN"
 "http://www.w3.org/Graphics/SVG/1.1/DTD/svg11.dtd">
<!-- Generated by graphviz version 2.43.0 (0)
 -->
<!-- Pages: 1 -->
<svg width="1081pt" height="410pt"
 viewBox="0.00 0.00 1081.00 410.00" xmlns="http://www.w3.org/2000/svg" xmlns:xlink="http://www.w3.org/1999/xlink">
<g id="graph0" class="graph" transform="scale(1 1) rotate(0) translate(4 406)">
<polygon fill="white" stroke="transparent" points="-4,4 -4,-406 1077,-406 1077,4 -4,4"/>
<!-- n1 -->
<g id="node1" class="node">
<title>n1</title>
<polygon fill="lightblue" stroke="black" points="1032.87,-384 890.19,-402 604.81,-402 462.13,-384 604.81,-366 890.19,-366 1032.87,-384"/>
<text text-anchor="middle" x="747.5" y="-380.3" font-family="Arial" font-size="14.00">Draw animals in their habitats with labels (e.g., fish in water).</text>
</g>
<!-- n2 -->
<g id="node2" class="node">
<title>n2</title>
<polygon fill="#fffdd0" stroke="black" points="578.5,-280 350.5,-280 350.5,-244 578.5,-244 578.5,-280"/>
<text text-anchor="middle" x="464.5" y="-258.3" font-family="Arial" font-size="14.00">Circle labeled &#39;fish&#39; placed on grass</text>
</g>
<!-- n1&#45;&gt;n2 -->
<g id="edge1" class="edge">
<title>n1&#45;&gt;n2</title>
<path fill="none" stroke="black" d="M707.25,-365.93C656.44,-344.39 569.03,-307.32 514.13,-284.04"/>
<polygon fill="black" stroke="black" points="515.18,-280.69 504.61,-280.01 512.45,-287.13 515.18,-280.69"/>
</g>
<!-- n3 -->
<g id="node3" class="node">
<title>n3</title>
<polygon fill="#fffdd0" stroke="black" points="858,-280 637,-280 637,-244 858,-244 858,-280"/>
<text text-anchor="middle" x="747.5" y="-258.3" font-family="Arial" font-size="14.00">Blob shape on a tree labeled &#39;dog&#39;</text>
</g>
<!-- n1&#45;&gt;n3 -->
<g id="edge2" class="edge">
<title>n1&#45;&gt;n3</title>
<path fill="none" stroke="black" d="M747.5,-365.81C747.5,-346.11 747.5,-313.58 747.5,-290.39"/>
<polygon fill="black" stroke="black" points="751,-290.16 747.5,-280.16 744,-290.16 751,-290.16"/>
</g>
<!-- n4 -->
<g id="node4" class="node">
<title>n4</title>
<polygon fill="#fffdd0" stroke="black" points="1073,-280 916,-280 916,-244 1073,-244 1073,-280"/>
<text text-anchor="middle" x="994.5" y="-258.3" font-family="Arial" font-size="14.00">Labeled both as &#39;home&#39;</text>
</g>
<!-- n1&#45;&gt;n4 -->
<g id="edge3" class="edge">
<title>n1&#45;&gt;n4</title>
<path fill="none" stroke="black" d="M782.63,-365.93C826.7,-344.52 902.32,-307.78 950.29,-284.48"/>
<polygon fill="black" stroke="black" points="952.03,-287.53 959.49,-280.01 948.97,-281.23 952.03,-287.53"/>
</g>
<!-- n5 -->
<g id="node5" class="node">
<title>n5</title>
<path fill="palegreen" stroke="black" d="M203,-158C203,-158 12,-158 12,-158 6,-158 0,-152 0,-146 0,-146 0,-134 0,-134 0,-128 6,-122 12,-122 12,-122 203,-122 203,-122 209,-122 215,-128 215,-134 215,-134 215,-146 215,-146 215,-152 209,-158 203,-158"/>
<text text-anchor="middle" x="107.5" y="-136.3" font-family="Arial" font-size="14.00">Simple animal shapes and labels</text>
</g>
<!-- n2&#45;&gt;n5 -->
<g id="edge4" class="edge">
<title>n2&#45;&gt;n5</title>
<path fill="none" stroke="black" d="M413.73,-243.93C348.96,-222.16 237.08,-184.56 167.97,-161.33"/>
<polygon fill="black" stroke="black" points="168.69,-157.88 158.1,-158.01 166.46,-164.52 168.69,-157.88"/>
</g>
<!-- n6 -->
<g id="node6" class="node">
<title>n6</title>
<polygon fill="lightcoral" stroke="black" points="464.5,-158 273.13,-140 464.5,-122 655.87,-140 464.5,-158"/>
<text text-anchor="middle" x="464.5" y="-136.3" font-family="Arial" font-size="14.00">Misunderstanding of fish habitat</text>
</g>
<!-- n2&#45;&gt;n6 -->
<g id="edge5" class="edge">
<title>n2&#45;&gt;n6</title>
<path fill="none" stroke="black" d="M464.5,-243.81C464.5,-224.11 464.5,-191.58 464.5,-168.39"/>
<polygon fill="black" stroke="black" points="468,-168.16 464.5,-158.16 461,-168.16 468,-168.16"/>
</g>
<!-- n7 -->
<g id="node7" class="node">
<title>n7</title>
<polygon fill="lightcoral" stroke="black" points="838.5,-158 713.49,-140 838.5,-122 963.51,-140 838.5,-158"/>
<text text-anchor="middle" x="838.5" y="-136.3" font-family="Arial" font-size="14.00">Mislabeling habitats</text>
</g>
<!-- n2&#45;&gt;n7 -->
<g id="edge6" class="edge">
<title>n2&#45;&gt;n7</title>
<path fill="none" stroke="black" d="M517.69,-243.93C591.11,-220.38 722.34,-178.27 792.03,-155.91"/>
<polygon fill="black" stroke="black" points="793.41,-159.14 801.86,-152.76 791.27,-152.48 793.41,-159.14"/>
</g>
<!-- n8 -->
<g id="node8" class="node">
<title>n8</title>
<polygon fill="#f28e8e" stroke="black" points="597.5,-36 331.5,-36 331.5,0 597.5,0 597.5,-36"/>
<text text-anchor="middle" x="464.5" y="-14.3" font-family="Arial" font-size="14.00">Place fish in water to show correct habitat</text>
</g>
<!-- n6&#45;&gt;n8 -->
<g id="edge7" class="edge">
<title>n6&#45;&gt;n8</title>
<path fill="none" stroke="black" d="M464.5,-121.81C464.5,-102.11 464.5,-69.58 464.5,-46.39"/>
<polygon fill="black" stroke="black" points="468,-46.16 464.5,-36.16 461,-46.16 468,-46.16"/>
</g>
<!-- n9 -->
<g id="node9" class="node">
<title>n9</title>
<polygon fill="#f28e8e" stroke="black" points="940,-36 737,-36 737,0 940,0 940,-36"/>
<text text-anchor="middle" x="838.5" y="-14.3" font-family="Arial" font-size="14.00">Clarify habitats for each animal</text>
</g>
<!-- n7&#45;&gt;n9 -->
<g id="edge8" class="edge">
<title>n7&#45;&gt;n9</title>
<path fill="none" stroke="black" d="M838.5,-121.81C838.5,-102.11 838.5,-69.58 838.5,-46.39"/>
<polygon fill="black" stroke="black" points="842,-46.16 838.5,-36.16 835,-46.16 842,-46.16"/>
</g>
</g>
</svg>
