<?xml version="1.0" encoding="UTF-8" standalone="no"?>
<!DOCTYPE svg PUBLIC "-//W3C//DTD SVG 1.1//EN"
 "http://www.w3.org/Graphics/SVG/1.1/DTD/svg11.dtd">
<!-- Generated by graphviz version 2.43.0 (0)
 -->
<!-- Pages: 1 -->
<svg width="2064pt" height="288pt"
 viewBox="0.00 0.00 2064.00 288.00" xmlns="http://www.w3.org/2000/svg" xmlns:xlink="http://www.w3.org/1999/xlink">
<g id="graph0" class="graph" transform="scale(1 1) rotate(0) translate(4 284)">
<polygon fill="white" stroke="transparent" points="-4,4 -4,-284 2060,-284 2060,4 -4,4"/>
<!-- n1 -->
<g id="node1" class="node">
<title>n1</title>
<polygon fill="lightblue" stroke="black" points="1244,-262 1132.5,-280 909.5,-280 798,-262 909.5,-244 1132.5,-244 1244,-262"/>
<text text-anchor="middle" x="1021" y="-258.3" font-family="Arial" font-size="14.00">Draw a string telephone between two students.</text>
</g>
<!-- n2 -->
<g id="node2" class="node">
<title>n2</title>
<polygon fill="#fffdd0" stroke="black" points="377.5,-158 136.5,-158 136.5,-122 377.5,-122 377.5,-158"/>
<text text-anchor="middle" x="257" y="-136.3" font-family="Arial" font-size="14.00">Two students standing apart in a park</text>
</g>
<!-- n1&#45;&gt;n2 -->
<g id="edge1" class="edge">
<title>n1&#45;&gt;n2</title>
<path fill="none" stroke="black" d="M912.75,-244C770.71,-221.69 522.27,-182.66 375.36,-159.59"/>
<polygon fill="black" stroke="black" points="375.82,-156.12 365.4,-158.03 374.74,-163.04 375.82,-156.12"/>
</g>
<!-- n3 -->
<g id="node3" class="node">
<title>n3</title>
<polygon fill="#fffdd0" stroke="black" points="682,-158 458,-158 458,-122 682,-122 682,-158"/>
<text text-anchor="middle" x="570" y="-136.3" font-family="Arial" font-size="14.00">Paper cups in each student&#39;s hand</text>
</g>
<!-- n1&#45;&gt;n3 -->
<g id="edge2" class="edge">
<title>n1&#45;&gt;n3</title>
<path fill="none" stroke="black" d="M956.86,-243.93C874.2,-221.94 730.79,-183.78 643.73,-160.62"/>
<polygon fill="black" stroke="black" points="644.48,-157.2 633.92,-158.01 642.68,-163.96 644.48,-157.2"/>
</g>
<!-- n4 -->
<g id="node4" class="node">
<title>n4</title>
<polygon fill="#fffdd0" stroke="black" points="1815,-158 1635,-158 1635,-122 1815,-122 1815,-158"/>
<text text-anchor="middle" x="1725" y="-136.3" font-family="Arial" font-size="14.00">Taut string connecting cups</text>
</g>
<!-- n1&#45;&gt;n4 -->
<g id="edge3" class="edge">
<title>n1&#45;&gt;n4</title>
<path fill="none" stroke="black" d="M1120.7,-244C1254.6,-221.18 1491,-180.88 1625,-158.04"/>
<polygon fill="black" stroke="black" points="1625.63,-161.48 1634.9,-156.36 1624.46,-154.58 1625.63,-161.48"/>
</g>
<!-- n5 -->
<g id="node5" class="node">
<title>n5</title>
<polygon fill="#fffdd0" stroke="black" points="1003.5,-158 740.5,-158 740.5,-122 1003.5,-122 1003.5,-158"/>
<text text-anchor="middle" x="872" y="-136.3" font-family="Arial" font-size="14.00">Arrows along string showing sound travel</text>
</g>
<!-- n1&#45;&gt;n5 -->
<g id="edge4" class="edge">
<title>n1&#45;&gt;n5</title>
<path fill="none" stroke="black" d="M999.65,-243.81C973.87,-223.04 930.37,-188.01 901.42,-164.7"/>
<polygon fill="black" stroke="black" points="903.29,-161.71 893.31,-158.16 898.9,-167.16 903.29,-161.71"/>
</g>
<!-- n6 -->
<g id="node6" class="node">
<title>n6</title>
<polygon fill="#fffdd0" stroke="black" points="1278.5,-158 1061.5,-158 1061.5,-122 1278.5,-122 1278.5,-158"/>
<text text-anchor="middle" x="1170" y="-136.3" font-family="Arial" font-size="14.00">Squiggly lines denoting vibrations</text>
</g>
<!-- n1&#45;&gt;n6 -->
<g id="edge5" class="edge">
<title>n1&#45;&gt;n6</title>
<path fill="none" stroke="black" d="M1042.3,-243.81C1068.1,-223.04 1111.6,-188.01 1140.6,-164.7"/>
<polygon fill="black" stroke="black" points="1143.12,-167.17 1148.7,-158.16 1138.72,-161.72 1143.12,-167.17"/>
</g>
<!-- n7 -->
<g id="node7" class="node">
<title>n7</title>
<polygon fill="#fffdd0" stroke="black" points="1577,-158 1337,-158 1337,-122 1577,-122 1577,-158"/>
<text text-anchor="middle" x="1457" y="-136.3" font-family="Arial" font-size="14.00">Labels &#39;sound travels&#39; and &#39;vibrations&#39;</text>
</g>
<!-- n1&#45;&gt;n7 -->
<g id="edge6" class="edge">
<title>n1&#45;&gt;n7</title>
<path fill="none" stroke="black" d="M1083,-243.93C1162.8,-221.96 1301.3,-183.86 1385.5,-160.69"/>
<polygon fill="black" stroke="black" points="1386.49,-164.05 1395.2,-158.01 1384.63,-157.3 1386.49,-164.05"/>
</g>
<!-- n8 -->
<g id="node8" class="node">
<title>n8</title>
<path fill="palegreen" stroke="black" d="M416,-36C416,-36 12,-36 12,-36 6,-36 0,-30 0,-24 0,-24 0,-12 0,-12 0,-6 6,0 12,0 12,0 416,0 416,0 422,0 428,-6 428,-12 428,-12 428,-24 428,-24 428,-30 422,-36 416,-36"/>
<text text-anchor="middle" x="214" y="-14.3" font-family="Arial" font-size="14.00">Shows students communicating over distance using string telephone</text>
</g>
<!-- n2&#45;&gt;n8 -->
<g id="edge7" class="edge">
<title>n2&#45;&gt;n8</title>
<path fill="none" stroke="black" d="M250.84,-121.81C243.72,-101.94 231.91,-68.99 223.59,-45.76"/>
<polygon fill="black" stroke="black" points="226.82,-44.39 220.15,-36.16 220.23,-46.76 226.82,-44.39"/>
</g>
<!-- n11 -->
<g id="node9" class="node">
<title>n11</title>
<path fill="palegreen" stroke="black" d="M686,-36C686,-36 498,-36 498,-36 492,-36 486,-30 486,-24 486,-24 486,-12 486,-12 486,-6 492,0 498,0 498,0 686,0 686,0 692,0 698,-6 698,-12 698,-12 698,-24 698,-24 698,-30 692,-36 686,-36"/>
<text text-anchor="middle" x="592" y="-14.3" font-family="Arial" font-size="14.00">Identifies materials (cups, string)</text>
</g>
<!-- n3&#45;&gt;n11 -->
<g id="edge8" class="edge">
<title>n3&#45;&gt;n11</title>
<path fill="none" stroke="black" d="M573.15,-121.81C576.78,-102.02 582.78,-69.29 587.04,-46.08"/>
<polygon fill="black" stroke="black" points="590.5,-46.63 588.85,-36.16 583.61,-45.37 590.5,-46.63"/>
</g>
<!-- n9 -->
<g id="node10" class="node">
<title>n9</title>
<path fill="palegreen" stroke="black" d="M1238,-36C1238,-36 996,-36 996,-36 990,-36 984,-30 984,-24 984,-24 984,-12 984,-12 984,-6 990,0 996,0 996,0 1238,0 1238,0 1244,0 1250,-6 1250,-12 1250,-12 1250,-24 1250,-24 1250,-30 1244,-36 1238,-36"/>
<text text-anchor="middle" x="1117" y="-14.3" font-family="Arial" font-size="14.00">Illustrates sound traveling along the string</text>
</g>
<!-- n4&#45;&gt;n9 -->
<g id="edge9" class="edge">
<title>n4&#45;&gt;n9</title>
<path fill="none" stroke="black" d="M1638.9,-122C1526.5,-99.82 1330.5,-61.13 1213.3,-38.01"/>
<polygon fill="black" stroke="black" points="1213.79,-34.54 1203.3,-36.03 1212.43,-41.4 1213.79,-34.54"/>
</g>
<!-- n12 -->
<g id="node11" class="node">
<title>n12</title>
<path fill="palegreen" stroke="black" d="M2044,-36C2044,-36 1782,-36 1782,-36 1776,-36 1770,-30 1770,-24 1770,-24 1770,-12 1770,-12 1770,-6 1776,0 1782,0 1782,0 2044,0 2044,0 2050,0 2056,-6 2056,-12 2056,-12 2056,-24 2056,-24 2056,-30 2050,-36 2044,-36"/>
<text text-anchor="middle" x="1913" y="-14.3" font-family="Arial" font-size="14.00">String telephone helps connect over distance</text>
</g>
<!-- n4&#45;&gt;n12 -->
<g id="edge10" class="edge">
<title>n4&#45;&gt;n12</title>
<path fill="none" stroke="black" d="M1751.9,-121.81C1784.9,-100.78 1840.8,-65.11 1877.3,-41.8"/>
<polygon fill="black" stroke="black" points="1879.57,-44.5 1886.1,-36.16 1875.79,-38.61 1879.57,-44.5"/>
</g>
<!-- n5&#45;&gt;n9 -->
<g id="edge11" class="edge">
<title>n5&#45;&gt;n9</title>
<path fill="none" stroke="black" d="M906.84,-121.93C950.56,-100.52 1025.6,-63.78 1073.1,-40.48"/>
<polygon fill="black" stroke="black" points="1074.84,-43.53 1082.3,-36.01 1071.78,-37.23 1074.84,-43.53"/>
</g>
<!-- n6&#45;&gt;n9 -->
<g id="edge12" class="edge">
<title>n6&#45;&gt;n9</title>
<path fill="none" stroke="black" d="M1162.4,-121.81C1153.6,-101.85 1138.9,-68.7 1128.7,-45.45"/>
<polygon fill="black" stroke="black" points="1131.84,-43.9 1124.6,-36.16 1125.44,-46.72 1131.84,-43.9"/>
</g>
<!-- n7&#45;&gt;n9 -->
<g id="edge13" class="edge">
<title>n7&#45;&gt;n9</title>
<path fill="none" stroke="black" d="M1408.6,-121.93C1347.1,-100.21 1240.8,-62.71 1175,-39.47"/>
<polygon fill="black" stroke="black" points="1175.79,-36.04 1165.2,-36.01 1173.46,-42.64 1175.79,-36.04"/>
</g>
<!-- n13 -->
<g id="node12" class="node">
<title>n13</title>
<polygon fill="#f28e8e" stroke="black" points="1711.5,-36 1308.5,-36 1308.5,0 1711.5,0 1711.5,-36"/>
<text text-anchor="middle" x="1510" y="-14.3" font-family="Arial" font-size="14.00">Accurate depiction, but labels sometimes missing or incomplete.</text>
</g>
<!-- n7&#45;&gt;n13 -->
<g id="edge14" class="edge">
<title>n7&#45;&gt;n13</title>
<path fill="none" stroke="black" d="M1464.6,-121.81C1473.4,-101.85 1488.1,-68.7 1498.3,-45.45"/>
<polygon fill="black" stroke="black" points="1501.56,-46.72 1502.4,-36.16 1495.16,-43.9 1501.56,-46.72"/>
</g>
<!-- n10 -->
<g id="node13" class="node">
<title>n10</title>
<path fill="palegreen" stroke="black" d="M1540.5,-280C1540.5,-280 1313.5,-280 1313.5,-280 1307.5,-280 1301.5,-274 1301.5,-268 1301.5,-268 1301.5,-256 1301.5,-256 1301.5,-250 1307.5,-244 1313.5,-244 1313.5,-244 1540.5,-244 1540.5,-244 1546.5,-244 1552.5,-250 1552.5,-256 1552.5,-256 1552.5,-268 1552.5,-268 1552.5,-274 1546.5,-280 1540.5,-280"/>
<text text-anchor="middle" x="1427" y="-258.3" font-family="Arial" font-size="14.00">Understands problem&#45;solving in design</text>
</g>
</g>
</svg>
