<?xml version="1.0" encoding="UTF-8" standalone="no"?>
<!DOCTYPE svg PUBLIC "-//W3C//DTD SVG 1.1//EN"
 "http://www.w3.org/Graphics/SVG/1.1/DTD/svg11.dtd">
<!-- Generated by graphviz version 2.43.0 (0)
 -->
<!-- Pages: 1 -->
<svg width="1531pt" height="410pt"
 viewBox="0.00 0.00 1531.00 410.00" xmlns="http://www.w3.org/2000/svg" xmlns:xlink="http://www.w3.org/1999/xlink">
<g id="graph0" class="graph" transform="scale(1 1) rotate(0) translate(4 406)">
<polygon fill="white" stroke="transparent" points="-4,4 -4,-406 1527,-406 1527,4 -4,4"/>
<!-- n1 -->
<g id="node1" class="node">
<title>n1</title>
<polygon fill="lightblue" stroke="black" points="1094.32,-384 971.91,-402 727.09,-402 604.68,-384 727.09,-366 971.91,-366 1094.32,-384"/>
<text text-anchor="middle" x="849.5" y="-380.3" font-family="Arial" font-size="14.00">Draw a habitat and the different living things in each</text>
</g>
<!-- n2 -->
<g id="node2" class="node">
<title>n2</title>
<polygon fill="#fffdd0" stroke="black" points="535,-280 0,-280 0,-244 535,-244 535,-280"/>
<text text-anchor="middle" x="267.5" y="-258.3" font-family="Arial" font-size="14.00">Forest habitat with trees, colorful birds, squirrel, deer, butterflies, ants, bushes, grasses</text>
</g>
<!-- n1&#45;&gt;n2 -->
<g id="edge1" class="edge">
<title>n1&#45;&gt;n2</title>
<path fill="none" stroke="black" d="M767.04,-366C659.59,-343.84 472.22,-305.21 360.03,-282.08"/>
<polygon fill="black" stroke="black" points="360.58,-278.62 350.08,-280.03 359.17,-285.48 360.58,-278.62"/>
</g>
<!-- n4 -->
<g id="node3" class="node">
<title>n4</title>
<polygon fill="#fffdd0" stroke="black" points="1105.5,-280 593.5,-280 593.5,-244 1105.5,-244 1105.5,-280"/>
<text text-anchor="middle" x="849.5" y="-258.3" font-family="Arial" font-size="14.00">Ocean scene with shades of blue, diverse fish, gray shark, dolphin, seaweed, coral</text>
</g>
<!-- n1&#45;&gt;n4 -->
<g id="edge2" class="edge">
<title>n1&#45;&gt;n4</title>
<path fill="none" stroke="black" d="M849.5,-365.81C849.5,-346.11 849.5,-313.58 849.5,-290.39"/>
<polygon fill="black" stroke="black" points="853,-290.16 849.5,-280.16 846,-290.16 853,-290.16"/>
</g>
<!-- n7 -->
<g id="node4" class="node">
<title>n7</title>
<polygon fill="#fffdd0" stroke="black" points="1419,-280 1164,-280 1164,-244 1419,-244 1419,-280"/>
<text text-anchor="middle" x="1291.5" y="-258.3" font-family="Arial" font-size="14.00">Some plants and animals are unlabeled</text>
</g>
<!-- n1&#45;&gt;n7 -->
<g id="edge3" class="edge">
<title>n1&#45;&gt;n7</title>
<path fill="none" stroke="black" d="M912.36,-365.93C993.29,-343.96 1133.6,-305.86 1219,-282.69"/>
<polygon fill="black" stroke="black" points="1220.16,-286 1228.9,-280.01 1218.33,-279.24 1220.16,-286"/>
</g>
<!-- n3 -->
<g id="node5" class="node">
<title>n3</title>
<path fill="palegreen" stroke="black" d="M459,-158C459,-158 184,-158 184,-158 178,-158 172,-152 172,-146 172,-146 172,-134 172,-134 172,-128 178,-122 184,-122 184,-122 459,-122 459,-122 465,-122 471,-128 471,-134 471,-134 471,-146 471,-146 471,-152 465,-158 459,-158"/>
<text text-anchor="middle" x="321.5" y="-136.3" font-family="Arial" font-size="14.00">Includes different living things typical of a forest</text>
</g>
<!-- n2&#45;&gt;n3 -->
<g id="edge4" class="edge">
<title>n2&#45;&gt;n3</title>
<path fill="none" stroke="black" d="M275.24,-243.81C284.22,-223.85 299.14,-190.7 309.6,-167.45"/>
<polygon fill="black" stroke="black" points="312.87,-168.72 313.78,-158.16 306.48,-165.84 312.87,-168.72"/>
</g>
<!-- n5 -->
<g id="node6" class="node">
<title>n5</title>
<path fill="palegreen" stroke="black" d="M935.5,-158C935.5,-158 649.5,-158 649.5,-158 643.5,-158 637.5,-152 637.5,-146 637.5,-146 637.5,-134 637.5,-134 637.5,-128 643.5,-122 649.5,-122 649.5,-122 935.5,-122 935.5,-122 941.5,-122 947.5,-128 947.5,-134 947.5,-134 947.5,-146 947.5,-146 947.5,-152 941.5,-158 935.5,-158"/>
<text text-anchor="middle" x="792.5" y="-136.3" font-family="Arial" font-size="14.00">Includes different living things typical of an ocean</text>
</g>
<!-- n4&#45;&gt;n5 -->
<g id="edge5" class="edge">
<title>n4&#45;&gt;n5</title>
<path fill="none" stroke="black" d="M841.33,-243.81C831.85,-223.85 816.11,-190.7 805.06,-167.45"/>
<polygon fill="black" stroke="black" points="808.1,-165.69 800.65,-158.16 801.78,-168.69 808.1,-165.69"/>
</g>
<!-- n8 -->
<g id="node7" class="node">
<title>n8</title>
<path fill="palegreen" stroke="black" d="M1511,-158C1511,-158 1072,-158 1072,-158 1066,-158 1060,-152 1060,-146 1060,-146 1060,-134 1060,-134 1060,-128 1066,-122 1072,-122 1072,-122 1511,-122 1511,-122 1517,-122 1523,-128 1523,-134 1523,-134 1523,-146 1523,-146 1523,-152 1517,-158 1511,-158"/>
<text text-anchor="middle" x="1291.5" y="-136.3" font-family="Arial" font-size="14.00">Understanding of habitat differences is evident despite unlabeled elements</text>
</g>
<!-- n7&#45;&gt;n8 -->
<g id="edge6" class="edge">
<title>n7&#45;&gt;n8</title>
<path fill="none" stroke="black" d="M1291.5,-243.81C1291.5,-224.11 1291.5,-191.58 1291.5,-168.39"/>
<polygon fill="black" stroke="black" points="1295,-168.16 1291.5,-158.16 1288,-168.16 1295,-168.16"/>
</g>
<!-- n6 -->
<g id="node8" class="node">
<title>n6</title>
<path fill="palegreen" stroke="black" d="M665,-36C665,-36 340,-36 340,-36 334,-36 328,-30 328,-24 328,-24 328,-12 328,-12 328,-6 334,0 340,0 340,0 665,0 665,0 671,0 677,-6 677,-12 677,-12 677,-24 677,-24 677,-30 671,-36 665,-36"/>
<text text-anchor="middle" x="502.5" y="-14.3" font-family="Arial" font-size="14.00">Clear biodiversity differences between forest and ocean</text>
</g>
<!-- n3&#45;&gt;n6 -->
<g id="edge7" class="edge">
<title>n3&#45;&gt;n6</title>
<path fill="none" stroke="black" d="M347.43,-121.81C379.15,-100.78 432.95,-65.11 468.11,-41.8"/>
<polygon fill="black" stroke="black" points="470.22,-44.6 476.62,-36.16 466.35,-38.77 470.22,-44.6"/>
</g>
<!-- n5&#45;&gt;n6 -->
<g id="edge8" class="edge">
<title>n5&#45;&gt;n6</title>
<path fill="none" stroke="black" d="M751.26,-121.93C699.08,-100.34 609.25,-63.17 553.01,-39.9"/>
<polygon fill="black" stroke="black" points="554.18,-36.6 543.6,-36.01 551.5,-43.06 554.18,-36.6"/>
</g>
</g>
</svg>
