<?xml version="1.0" encoding="UTF-8" standalone="no"?>
<!DOCTYPE svg PUBLIC "-//W3C//DTD SVG 1.1//EN"
 "http://www.w3.org/Graphics/SVG/1.1/DTD/svg11.dtd">
<!-- Generated by graphviz version 2.43.0 (0)
 -->
<!-- Pages: 1 -->
<svg width="1861pt" height="410pt"
 viewBox="0.00 0.00 1861.50 410.00" xmlns="http://www.w3.org/2000/svg" xmlns:xlink="http://www.w3.org/1999/xlink">
<g id="graph0" class="graph" transform="scale(1 1) rotate(0) translate(4 406)">
<polygon fill="white" stroke="transparent" points="-4,4 -4,-406 1857.5,-406 1857.5,4 -4,4"/>
<!-- n1 -->
<g id="node1" class="node">
<title>n1</title>
<polygon fill="lightblue" stroke="black" points="1318.5,-384 1188.25,-402 927.75,-402 797.5,-384 927.75,-366 1188.25,-366 1318.5,-384"/>
<text text-anchor="middle" x="1058" y="-380.3" font-family="Arial" font-size="14.00">Draw two habitats and the different living things in each</text>
</g>
<!-- n2 -->
<g id="node2" class="node">
<title>n2</title>
<polygon fill="#fffdd0" stroke="black" points="1037.54,-280 846.54,-280 846.54,-244 1037.54,-244 1037.54,-280"/>
<text text-anchor="middle" x="942.04" y="-258.3" font-family="Arial" font-size="14.00">Forest with trees and squirrel</text>
</g>
<!-- n1&#45;&gt;n2 -->
<g id="edge1" class="edge">
<title>n1&#45;&gt;n2</title>
<path fill="none" stroke="black" d="M1041.4,-365.81C1021.6,-345.31 988.35,-310.91 965.82,-287.6"/>
<polygon fill="black" stroke="black" points="968.09,-284.92 958.63,-280.16 963.06,-289.78 968.09,-284.92"/>
</g>
<!-- n3 -->
<g id="node3" class="node">
<title>n3</title>
<polygon fill="#fffdd0" stroke="black" points="1254,-280 1096,-280 1096,-244 1254,-244 1254,-280"/>
<text text-anchor="middle" x="1175" y="-258.3" font-family="Arial" font-size="14.00">Lake with fish and turtle</text>
</g>
<!-- n1&#45;&gt;n3 -->
<g id="edge2" class="edge">
<title>n1&#45;&gt;n3</title>
<path fill="none" stroke="black" d="M1074.8,-365.81C1094.8,-345.31 1128.3,-310.91 1151,-287.6"/>
<polygon fill="black" stroke="black" points="1153.79,-289.75 1158.3,-280.16 1148.8,-284.85 1153.79,-289.75"/>
</g>
<!-- n4 -->
<g id="node4" class="node">
<title>n4</title>
<path fill="palegreen" stroke="black" d="M1408.5,-158C1408.5,-158 1067.5,-158 1067.5,-158 1061.5,-158 1055.5,-152 1055.5,-146 1055.5,-146 1055.5,-134 1055.5,-134 1055.5,-128 1061.5,-122 1067.5,-122 1067.5,-122 1408.5,-122 1408.5,-122 1414.5,-122 1420.5,-128 1420.5,-134 1420.5,-134 1420.5,-146 1420.5,-146 1420.5,-152 1414.5,-158 1408.5,-158"/>
<text text-anchor="middle" x="1238" y="-136.3" font-family="Arial" font-size="14.00">Understanding: Depicted different habitats: land and water</text>
</g>
<!-- n2&#45;&gt;n4 -->
<g id="edge3" class="edge">
<title>n2&#45;&gt;n4</title>
<path fill="none" stroke="black" d="M984.13,-243.93C1037.4,-222.34 1129.1,-185.17 1186.5,-161.9"/>
<polygon fill="black" stroke="black" points="1188.14,-165.01 1196.1,-158.01 1185.51,-158.52 1188.14,-165.01"/>
</g>
<!-- n5 -->
<g id="node5" class="node">
<title>n5</title>
<path fill="palegreen" stroke="black" d="M1841.5,-158C1841.5,-158 1490.5,-158 1490.5,-158 1484.5,-158 1478.5,-152 1478.5,-146 1478.5,-146 1478.5,-134 1478.5,-134 1478.5,-128 1484.5,-122 1490.5,-122 1490.5,-122 1841.5,-122 1841.5,-122 1847.5,-122 1853.5,-128 1853.5,-134 1853.5,-134 1853.5,-146 1853.5,-146 1853.5,-152 1847.5,-158 1841.5,-158"/>
<text text-anchor="middle" x="1666" y="-136.3" font-family="Arial" font-size="14.00">Understanding: Included both plants and animals in habitats</text>
</g>
<!-- n2&#45;&gt;n5 -->
<g id="edge4" class="edge">
<title>n2&#45;&gt;n5</title>
<path fill="none" stroke="black" d="M1037.8,-245.13C1170.9,-223.06 1411.5,-183.18 1553.2,-159.7"/>
<polygon fill="black" stroke="black" points="1553.91,-163.13 1563.2,-158.04 1552.76,-156.22 1553.91,-163.13"/>
</g>
<!-- n6 -->
<g id="node6" class="node">
<title>n6</title>
<polygon fill="lightcoral" stroke="black" points="352.04,-158 -0.04,-140 352.04,-122 704.11,-140 352.04,-158"/>
<text text-anchor="middle" x="352.04" y="-136.3" font-family="Arial" font-size="14.00">Misunderstanding: Limited diversity in plant and animal types</text>
</g>
<!-- n2&#45;&gt;n6 -->
<g id="edge5" class="edge">
<title>n2&#45;&gt;n6</title>
<path fill="none" stroke="black" d="M858.44,-244C743.92,-220.71 539.85,-179.2 428.94,-156.64"/>
<polygon fill="black" stroke="black" points="429.32,-153.15 418.83,-154.59 427.93,-160.01 429.32,-153.15"/>
</g>
<!-- n7 -->
<g id="node7" class="node">
<title>n7</title>
<path fill="palegreen" stroke="black" d="M985.54,-158C985.54,-158 774.54,-158 774.54,-158 768.54,-158 762.54,-152 762.54,-146 762.54,-146 762.54,-134 762.54,-134 762.54,-128 768.54,-122 774.54,-122 774.54,-122 985.54,-122 985.54,-122 991.54,-122 997.54,-128 997.54,-134 997.54,-134 997.54,-146 997.54,-146 997.54,-152 991.54,-158 985.54,-158"/>
<text text-anchor="middle" x="880.04" y="-136.3" font-family="Arial" font-size="14.00">Labeling key features or living things</text>
</g>
<!-- n2&#45;&gt;n7 -->
<g id="edge6" class="edge">
<title>n2&#45;&gt;n7</title>
<path fill="none" stroke="black" d="M933.15,-243.81C922.8,-223.76 905.56,-190.4 893.54,-167.14"/>
<polygon fill="black" stroke="black" points="896.6,-165.44 888.9,-158.16 890.38,-168.65 896.6,-165.44"/>
</g>
<!-- n3&#45;&gt;n4 -->
<g id="edge7" class="edge">
<title>n3&#45;&gt;n4</title>
<path fill="none" stroke="black" d="M1184.1,-243.81C1194.6,-223.76 1212.1,-190.4 1224.3,-167.14"/>
<polygon fill="black" stroke="black" points="1227.46,-168.64 1229,-158.16 1221.26,-165.4 1227.46,-168.64"/>
</g>
<!-- n3&#45;&gt;n5 -->
<g id="edge8" class="edge">
<title>n3&#45;&gt;n5</title>
<path fill="none" stroke="black" d="M1244.6,-244C1334.8,-221.95 1491.7,-183.6 1586.5,-160.43"/>
<polygon fill="black" stroke="black" points="1587.5,-163.79 1596.4,-158.03 1585.85,-156.98 1587.5,-163.79"/>
</g>
<!-- n3&#45;&gt;n6 -->
<g id="edge9" class="edge">
<title>n3&#45;&gt;n6</title>
<path fill="none" stroke="black" d="M1096,-248.44C1086.3,-246.92 1076.4,-245.41 1067,-244 847.45,-210.9 589.56,-174.31 451.41,-154.9"/>
<polygon fill="black" stroke="black" points="451.66,-151.4 441.27,-153.47 450.68,-158.33 451.66,-151.4"/>
</g>
<!-- n3&#45;&gt;n7 -->
<g id="edge10" class="edge">
<title>n3&#45;&gt;n7</title>
<path fill="none" stroke="black" d="M1133.1,-243.93C1080,-222.34 988.62,-185.17 931.42,-161.9"/>
<polygon fill="black" stroke="black" points="932.43,-158.53 921.85,-158.01 929.79,-165.02 932.43,-158.53"/>
</g>
<!-- n8 -->
<g id="node8" class="node">
<title>n8</title>
<polygon fill="#f28e8e" stroke="black" points="507.04,-36 197.04,-36 197.04,0 507.04,0 507.04,-36"/>
<text text-anchor="middle" x="352.04" y="-14.3" font-family="Arial" font-size="14.00">Feedback: Add more types of plants and animals</text>
</g>
<!-- n6&#45;&gt;n8 -->
<g id="edge11" class="edge">
<title>n6&#45;&gt;n8</title>
<path fill="none" stroke="black" d="M352.04,-121.81C352.04,-102.11 352.04,-69.58 352.04,-46.39"/>
<polygon fill="black" stroke="black" points="355.54,-46.16 352.04,-36.16 348.54,-46.16 355.54,-46.16"/>
</g>
</g>
</svg>
