<?xml version="1.0" encoding="UTF-8" standalone="no"?>
<!DOCTYPE svg PUBLIC "-//W3C//DTD SVG 1.1//EN"
 "http://www.w3.org/Graphics/SVG/1.1/DTD/svg11.dtd">
<!-- Generated by graphviz version 2.43.0 (0)
 -->
<!-- Pages: 1 -->
<svg width="1080pt" height="532pt"
 viewBox="0.00 0.00 1079.50 532.00" xmlns="http://www.w3.org/2000/svg" xmlns:xlink="http://www.w3.org/1999/xlink">
<g id="graph0" class="graph" transform="scale(1 1) rotate(0) translate(4 528)">
<polygon fill="white" stroke="transparent" points="-4,4 -4,-528 1075.5,-528 1075.5,4 -4,4"/>
<!-- n1 -->
<g id="node1" class="node">
<title>n1</title>
<polygon fill="lightblue" stroke="black" points="768.82,-506 646.41,-524 401.59,-524 279.18,-506 401.59,-488 646.41,-488 768.82,-506"/>
<text text-anchor="middle" x="524" y="-502.3" font-family="Arial" font-size="14.00">Draw a habitat and the different living things in each</text>
</g>
<!-- n2 -->
<g id="node2" class="node">
<title>n2</title>
<polygon fill="#fffdd0" stroke="black" points="188,-402 12,-402 12,-366 188,-366 188,-402"/>
<text text-anchor="middle" x="100" y="-380.3" font-family="Arial" font-size="14.00">Forest with tall green trees</text>
</g>
<!-- n1&#45;&gt;n2 -->
<g id="edge1" class="edge">
<title>n1&#45;&gt;n2</title>
<path fill="none" stroke="black" d="M463.7,-487.93C386.15,-465.99 251.71,-427.94 169.81,-404.76"/>
<polygon fill="black" stroke="black" points="170.67,-401.36 160.09,-402.01 168.76,-408.1 170.67,-401.36"/>
</g>
<!-- n3 -->
<g id="node3" class="node">
<title>n3</title>
<polygon fill="#fffdd0" stroke="black" points="394,-402 246,-402 246,-366 394,-366 394,-402"/>
<text text-anchor="middle" x="320" y="-380.3" font-family="Arial" font-size="14.00">Squirrels on branches</text>
</g>
<!-- n1&#45;&gt;n3 -->
<g id="edge2" class="edge">
<title>n1&#45;&gt;n3</title>
<path fill="none" stroke="black" d="M494.77,-487.81C458.79,-466.64 397.61,-430.65 358.01,-407.36"/>
<polygon fill="black" stroke="black" points="359.56,-404.21 349.17,-402.16 356.01,-410.25 359.56,-404.21"/>
</g>
<!-- n4 -->
<g id="node4" class="node">
<title>n4</title>
<polygon fill="#fffdd0" stroke="black" points="595.5,-402 452.5,-402 452.5,-366 595.5,-366 595.5,-402"/>
<text text-anchor="middle" x="524" y="-380.3" font-family="Arial" font-size="14.00">Rabbit on the ground</text>
</g>
<!-- n1&#45;&gt;n4 -->
<g id="edge3" class="edge">
<title>n1&#45;&gt;n4</title>
<path fill="none" stroke="black" d="M524,-487.81C524,-468.11 524,-435.58 524,-412.39"/>
<polygon fill="black" stroke="black" points="527.5,-412.16 524,-402.16 520.5,-412.16 527.5,-412.16"/>
</g>
<!-- n5 -->
<g id="node5" class="node">
<title>n5</title>
<polygon fill="#fffdd0" stroke="black" points="820,-402 654,-402 654,-366 820,-366 820,-402"/>
<text text-anchor="middle" x="737" y="-380.3" font-family="Arial" font-size="14.00">Pond with fish swimming</text>
</g>
<!-- n1&#45;&gt;n5 -->
<g id="edge4" class="edge">
<title>n1&#45;&gt;n5</title>
<path fill="none" stroke="black" d="M554.52,-487.81C592.16,-466.6 656.23,-430.5 697.57,-407.21"/>
<polygon fill="black" stroke="black" points="699.54,-410.12 706.54,-402.16 696.11,-404.02 699.54,-410.12"/>
</g>
<!-- n6 -->
<g id="node6" class="node">
<title>n6</title>
<polygon fill="#fffdd0" stroke="black" points="1071.5,-402 878.5,-402 878.5,-366 1071.5,-366 1071.5,-402"/>
<text text-anchor="middle" x="975" y="-380.3" font-family="Arial" font-size="14.00">Lily pads on the pond surface</text>
</g>
<!-- n1&#45;&gt;n6 -->
<g id="edge5" class="edge">
<title>n1&#45;&gt;n6</title>
<path fill="none" stroke="black" d="M588.14,-487.93C670.8,-465.94 814.21,-427.78 901.27,-404.62"/>
<polygon fill="black" stroke="black" points="902.32,-407.96 911.08,-402.01 900.52,-401.2 902.32,-407.96"/>
</g>
<!-- n7 -->
<g id="node7" class="node">
<title>n7</title>
<path fill="palegreen" stroke="black" d="M200,-280C200,-280 12,-280 12,-280 6,-280 0,-274 0,-268 0,-268 0,-256 0,-256 0,-250 6,-244 12,-244 12,-244 200,-244 200,-244 206,-244 212,-250 212,-256 212,-256 212,-268 212,-268 212,-274 206,-280 200,-280"/>
<text text-anchor="middle" x="106" y="-258.3" font-family="Arial" font-size="14.00">Understands land habitat: Forest</text>
</g>
<!-- n2&#45;&gt;n7 -->
<g id="edge6" class="edge">
<title>n2&#45;&gt;n7</title>
<path fill="none" stroke="black" d="M100.86,-365.81C101.84,-346.11 103.47,-313.58 104.63,-290.39"/>
<polygon fill="black" stroke="black" points="108.14,-290.32 105.14,-280.16 101.15,-289.97 108.14,-290.32"/>
</g>
<!-- n8 -->
<g id="node8" class="node">
<title>n8</title>
<path fill="palegreen" stroke="black" d="M535.5,-280C535.5,-280 306.5,-280 306.5,-280 300.5,-280 294.5,-274 294.5,-268 294.5,-268 294.5,-256 294.5,-256 294.5,-250 300.5,-244 306.5,-244 306.5,-244 535.5,-244 535.5,-244 541.5,-244 547.5,-250 547.5,-256 547.5,-256 547.5,-268 547.5,-268 547.5,-274 541.5,-280 535.5,-280"/>
<text text-anchor="middle" x="421" y="-258.3" font-family="Arial" font-size="14.00">Understands that animals live in forests</text>
</g>
<!-- n3&#45;&gt;n8 -->
<g id="edge7" class="edge">
<title>n3&#45;&gt;n8</title>
<path fill="none" stroke="black" d="M334.47,-365.81C351.65,-345.4 380.42,-311.21 400.04,-287.91"/>
<polygon fill="black" stroke="black" points="402.8,-290.07 406.56,-280.16 397.44,-285.56 402.8,-290.07"/>
</g>
<!-- n4&#45;&gt;n8 -->
<g id="edge8" class="edge">
<title>n4&#45;&gt;n8</title>
<path fill="none" stroke="black" d="M509.24,-365.81C491.73,-345.4 462.38,-311.21 442.38,-287.91"/>
<polygon fill="black" stroke="black" points="444.9,-285.47 435.73,-280.16 439.59,-290.03 444.9,-285.47"/>
</g>
<!-- n9 -->
<g id="node9" class="node">
<title>n9</title>
<path fill="palegreen" stroke="black" d="M818.5,-280C818.5,-280 629.5,-280 629.5,-280 623.5,-280 617.5,-274 617.5,-268 617.5,-268 617.5,-256 617.5,-256 617.5,-250 623.5,-244 629.5,-244 629.5,-244 818.5,-244 818.5,-244 824.5,-244 830.5,-250 830.5,-256 830.5,-256 830.5,-268 830.5,-268 830.5,-274 824.5,-280 818.5,-280"/>
<text text-anchor="middle" x="724" y="-258.3" font-family="Arial" font-size="14.00">Understands water habitat: Pond</text>
</g>
<!-- n5&#45;&gt;n9 -->
<g id="edge9" class="edge">
<title>n5&#45;&gt;n9</title>
<path fill="none" stroke="black" d="M735.14,-365.81C733,-346.11 729.48,-313.58 726.97,-290.39"/>
<polygon fill="black" stroke="black" points="730.42,-289.72 725.86,-280.16 723.46,-290.48 730.42,-289.72"/>
</g>
<!-- n10 -->
<g id="node10" class="node">
<title>n10</title>
<path fill="palegreen" stroke="black" d="M1043.5,-280C1043.5,-280 906.5,-280 906.5,-280 900.5,-280 894.5,-274 894.5,-268 894.5,-268 894.5,-256 894.5,-256 894.5,-250 900.5,-244 906.5,-244 906.5,-244 1043.5,-244 1043.5,-244 1049.5,-244 1055.5,-250 1055.5,-256 1055.5,-256 1055.5,-268 1055.5,-268 1055.5,-274 1049.5,-280 1043.5,-280"/>
<text text-anchor="middle" x="975" y="-258.3" font-family="Arial" font-size="14.00">Understands aquatic life</text>
</g>
<!-- n6&#45;&gt;n10 -->
<g id="edge10" class="edge">
<title>n6&#45;&gt;n10</title>
<path fill="none" stroke="black" d="M975,-365.81C975,-346.11 975,-313.58 975,-290.39"/>
<polygon fill="black" stroke="black" points="978.5,-290.16 975,-280.16 971.5,-290.16 978.5,-290.16"/>
</g>
<!-- n11 -->
<g id="node11" class="node">
<title>n11</title>
<polygon fill="lightcoral" stroke="black" points="397,-158 175.47,-140 397,-122 618.53,-140 397,-158"/>
<text text-anchor="middle" x="397" y="-136.3" font-family="Arial" font-size="14.00">Limited comparison between habitats</text>
</g>
<!-- n7&#45;&gt;n11 -->
<g id="edge11" class="edge">
<title>n7&#45;&gt;n11</title>
<path fill="none" stroke="black" d="M147.38,-243.93C201.82,-221.49 297.09,-182.2 352.87,-159.2"/>
<polygon fill="black" stroke="black" points="354.23,-162.43 362.14,-155.38 351.56,-155.95 354.23,-162.43"/>
</g>
<!-- n9&#45;&gt;n11 -->
<g id="edge12" class="edge">
<title>n9&#45;&gt;n11</title>
<path fill="none" stroke="black" d="M677.5,-243.93C615.74,-221.27 507.2,-181.44 444.8,-158.54"/>
<polygon fill="black" stroke="black" points="445.78,-155.17 435.19,-155.02 443.38,-161.75 445.78,-155.17"/>
</g>
<!-- n12 -->
<g id="node12" class="node">
<title>n12</title>
<polygon fill="#f28e8e" stroke="black" points="624,-36 170,-36 170,0 624,0 624,-36"/>
<text text-anchor="middle" x="397" y="-14.3" font-family="Arial" font-size="14.00">Encourage student to compare plant and animal varieties across habitats</text>
</g>
<!-- n11&#45;&gt;n12 -->
<g id="edge13" class="edge">
<title>n11&#45;&gt;n12</title>
<path fill="none" stroke="black" d="M397,-121.81C397,-102.11 397,-69.58 397,-46.39"/>
<polygon fill="black" stroke="black" points="400.5,-46.16 397,-36.16 393.5,-46.16 400.5,-46.16"/>
</g>
</g>
</svg>
