<?xml version="1.0" encoding="UTF-8" standalone="no"?>
<!DOCTYPE svg PUBLIC "-//W3C//DTD SVG 1.1//EN"
 "http://www.w3.org/Graphics/SVG/1.1/DTD/svg11.dtd">
<!-- Generated by graphviz version 2.43.0 (0)
 -->
<!-- Pages: 1 -->
<svg width="2295pt" height="410pt"
 viewBox="0.00 0.00 2295.00 410.00" xmlns="http://www.w3.org/2000/svg" xmlns:xlink="http://www.w3.org/1999/xlink">
<g id="graph0" class="graph" transform="scale(1 1) rotate(0) translate(4 406)">
<polygon fill="white" stroke="transparent" points="-4,4 -4,-406 2291,-406 2291,4 -4,4"/>
<!-- n1 -->
<g id="node1" class="node">
<title>n1</title>
<polygon fill="lightblue" stroke="black" points="1490.74,-384 1397.62,-402 1211.38,-402 1118.26,-384 1211.38,-366 1397.62,-366 1490.74,-384"/>
<text text-anchor="middle" x="1304.5" y="-380.3" font-family="Arial" font-size="14.00">Illustrate plants with and without water.</text>
</g>
<!-- n2 -->
<g id="node2" class="node">
<title>n2</title>
<polygon fill="#fffdd0" stroke="black" points="973.5,-280 587.5,-280 587.5,-244 973.5,-244 973.5,-280"/>
<text text-anchor="middle" x="780.5" y="-258.3" font-family="Arial" font-size="14.00">Drawing of healthy plant with green leaves and colorful flower.</text>
</g>
<!-- n1&#45;&gt;n2 -->
<g id="edge1" class="edge">
<title>n1&#45;&gt;n2</title>
<path fill="none" stroke="black" d="M1230.3,-366C1133.8,-343.91 965.83,-305.44 864.72,-282.29"/>
<polygon fill="black" stroke="black" points="865.38,-278.85 854.85,-280.03 863.82,-285.67 865.38,-278.85"/>
</g>
<!-- n3 -->
<g id="node3" class="node">
<title>n3</title>
<polygon fill="#fffdd0" stroke="black" points="1480,-280 1129,-280 1129,-244 1480,-244 1480,-280"/>
<text text-anchor="middle" x="1304.5" y="-258.3" font-family="Arial" font-size="14.00">Drawing of unhealthy plant with brown, drooping leaves.</text>
</g>
<!-- n1&#45;&gt;n3 -->
<g id="edge2" class="edge">
<title>n1&#45;&gt;n3</title>
<path fill="none" stroke="black" d="M1304.5,-365.81C1304.5,-346.11 1304.5,-313.58 1304.5,-290.39"/>
<polygon fill="black" stroke="black" points="1308,-290.16 1304.5,-280.16 1301,-290.16 1308,-290.16"/>
</g>
<!-- n4 -->
<g id="node4" class="node">
<title>n4</title>
<polygon fill="#fffdd0" stroke="black" points="1891,-280 1702,-280 1702,-244 1891,-244 1891,-280"/>
<text text-anchor="middle" x="1796.5" y="-258.3" font-family="Arial" font-size="14.00">Sun rays around both plants.</text>
</g>
<!-- n1&#45;&gt;n4 -->
<g id="edge3" class="edge">
<title>n1&#45;&gt;n4</title>
<path fill="none" stroke="black" d="M1374.2,-366C1464.6,-343.95 1621.8,-305.6 1716.8,-282.43"/>
<polygon fill="black" stroke="black" points="1717.81,-285.79 1726.7,-280.03 1716.16,-278.98 1717.81,-285.79"/>
</g>
<!-- n5 -->
<g id="node5" class="node">
<title>n5</title>
<path fill="palegreen" stroke="black" d="M323,-158C323,-158 12,-158 12,-158 6,-158 0,-152 0,-146 0,-146 0,-134 0,-134 0,-128 6,-122 12,-122 12,-122 323,-122 323,-122 329,-122 335,-128 335,-134 335,-134 335,-146 335,-146 335,-152 329,-158 323,-158"/>
<text text-anchor="middle" x="167.5" y="-136.3" font-family="Arial" font-size="14.00">Understanding of a plant growing healthily with water.</text>
</g>
<!-- n2&#45;&gt;n5 -->
<g id="edge4" class="edge">
<title>n2&#45;&gt;n5</title>
<path fill="none" stroke="black" d="M693.65,-244C580.36,-221.82 382.72,-183.13 264.6,-160.01"/>
<polygon fill="black" stroke="black" points="264.97,-156.52 254.48,-158.03 263.62,-163.39 264.97,-156.52"/>
</g>
<!-- n8 -->
<g id="node6" class="node">
<title>n8</title>
<polygon fill="lightcoral" stroke="black" points="780.5,-158 392.5,-140 780.5,-122 1168.5,-140 780.5,-158"/>
<text text-anchor="middle" x="780.5" y="-136.3" font-family="Arial" font-size="14.00">Both plants being the same size may indicate a size misconception.</text>
</g>
<!-- n2&#45;&gt;n8 -->
<g id="edge5" class="edge">
<title>n2&#45;&gt;n8</title>
<path fill="none" stroke="black" d="M780.5,-243.81C780.5,-224.11 780.5,-191.58 780.5,-168.39"/>
<polygon fill="black" stroke="black" points="784,-168.16 780.5,-158.16 777,-168.16 784,-168.16"/>
</g>
<!-- n3&#45;&gt;n8 -->
<g id="edge6" class="edge">
<title>n3&#45;&gt;n8</title>
<path fill="none" stroke="black" d="M1230.3,-244C1129.8,-220.99 951.79,-180.23 852.51,-157.49"/>
<polygon fill="black" stroke="black" points="853.09,-154.03 842.56,-155.21 851.53,-160.86 853.09,-154.03"/>
</g>
<!-- n6 -->
<g id="node7" class="node">
<title>n6</title>
<path fill="palegreen" stroke="black" d="M1564.5,-158C1564.5,-158 1238.5,-158 1238.5,-158 1232.5,-158 1226.5,-152 1226.5,-146 1226.5,-146 1226.5,-134 1226.5,-134 1226.5,-128 1232.5,-122 1238.5,-122 1238.5,-122 1564.5,-122 1564.5,-122 1570.5,-122 1576.5,-128 1576.5,-134 1576.5,-134 1576.5,-146 1576.5,-146 1576.5,-152 1570.5,-158 1564.5,-158"/>
<text text-anchor="middle" x="1401.5" y="-136.3" font-family="Arial" font-size="14.00">Understanding of a plant not growing well without water.</text>
</g>
<!-- n3&#45;&gt;n6 -->
<g id="edge7" class="edge">
<title>n3&#45;&gt;n6</title>
<path fill="none" stroke="black" d="M1318.4,-243.81C1334.8,-223.49 1362.3,-189.51 1381.1,-166.21"/>
<polygon fill="black" stroke="black" points="1384.04,-168.14 1387.6,-158.16 1378.59,-163.74 1384.04,-168.14"/>
</g>
<!-- n7 -->
<g id="node8" class="node">
<title>n7</title>
<polygon fill="lightcoral" stroke="black" points="1960.5,-158 1634,-140 1960.5,-122 2287,-140 1960.5,-158"/>
<text text-anchor="middle" x="1960.5" y="-136.3" font-family="Arial" font-size="14.00">Misunderstanding of light’s selective role in plant growth.</text>
</g>
<!-- n4&#45;&gt;n7 -->
<g id="edge8" class="edge">
<title>n4&#45;&gt;n7</title>
<path fill="none" stroke="black" d="M1820,-243.81C1849.1,-222.54 1898.6,-186.3 1930.4,-163.02"/>
<polygon fill="black" stroke="black" points="1932.88,-165.54 1938.9,-156.82 1928.76,-159.89 1932.88,-165.54"/>
</g>
<!-- n10 -->
<g id="node9" class="node">
<title>n10</title>
<polygon fill="#f28e8e" stroke="black" points="971,-36 590,-36 590,0 971,0 971,-36"/>
<text text-anchor="middle" x="780.5" y="-14.3" font-family="Arial" font-size="14.00">Discuss the relationship between water intake and plant size.</text>
</g>
<!-- n8&#45;&gt;n10 -->
<g id="edge9" class="edge">
<title>n8&#45;&gt;n10</title>
<path fill="none" stroke="black" d="M780.5,-121.81C780.5,-102.11 780.5,-69.58 780.5,-46.39"/>
<polygon fill="black" stroke="black" points="784,-46.16 780.5,-36.16 777,-46.16 784,-46.16"/>
</g>
<!-- n9 -->
<g id="node10" class="node">
<title>n9</title>
<polygon fill="#f28e8e" stroke="black" points="2242,-36 1679,-36 1679,0 2242,0 2242,-36"/>
<text text-anchor="middle" x="1960.5" y="-14.3" font-family="Arial" font-size="14.00">Clarify that light affects plant growth differently and suggest showing one plant in the shade.</text>
</g>
<!-- n7&#45;&gt;n9 -->
<g id="edge10" class="edge">
<title>n7&#45;&gt;n9</title>
<path fill="none" stroke="black" d="M1960.5,-121.81C1960.5,-102.11 1960.5,-69.58 1960.5,-46.39"/>
<polygon fill="black" stroke="black" points="1964,-46.16 1960.5,-36.16 1957,-46.16 1964,-46.16"/>
</g>
</g>
</svg>
