<?xml version="1.0" encoding="UTF-8" standalone="no"?>
<!DOCTYPE svg PUBLIC "-//W3C//DTD SVG 1.1//EN"
 "http://www.w3.org/Graphics/SVG/1.1/DTD/svg11.dtd">
<!-- Generated by graphviz version 2.43.0 (0)
 -->
<!-- Pages: 1 -->
<svg width="962pt" height="410pt"
 viewBox="0.00 0.00 961.56 410.00" xmlns="http://www.w3.org/2000/svg" xmlns:xlink="http://www.w3.org/1999/xlink">
<g id="graph0" class="graph" transform="scale(1 1) rotate(0) translate(4 406)">
<polygon fill="white" stroke="transparent" points="-4,4 -4,-406 957.56,-406 957.56,4 -4,4"/>
<!-- n1 -->
<g id="node1" class="node">
<title>n1</title>
<polygon fill="lightblue" stroke="black" points="585.24,-384 492.12,-402 305.88,-402 212.76,-384 305.88,-366 492.12,-366 585.24,-384"/>
<text text-anchor="middle" x="399" y="-380.3" font-family="Arial" font-size="14.00">Illustrate plants with and without water.</text>
</g>
<!-- n2 -->
<g id="node2" class="node">
<title>n2</title>
<polygon fill="#fffdd0" stroke="black" points="367,-280 77,-280 77,-244 367,-244 367,-280"/>
<text text-anchor="middle" x="222" y="-258.3" font-family="Arial" font-size="14.00">Healthy plant with large, vibrant green leaves.</text>
</g>
<!-- n1&#45;&gt;n2 -->
<g id="edge1" class="edge">
<title>n1&#45;&gt;n2</title>
<path fill="none" stroke="black" d="M373.64,-365.81C342.62,-344.78 290.01,-309.11 255.63,-285.8"/>
<polygon fill="black" stroke="black" points="257.55,-282.87 247.31,-280.16 253.62,-288.67 257.55,-282.87"/>
</g>
<!-- n3 -->
<g id="node3" class="node">
<title>n3</title>
<polygon fill="#fffdd0" stroke="black" points="767,-280 463,-280 463,-244 767,-244 767,-280"/>
<text text-anchor="middle" x="615" y="-258.3" font-family="Arial" font-size="14.00">Wilting plant with droopy, partially brown leaves.</text>
</g>
<!-- n1&#45;&gt;n3 -->
<g id="edge2" class="edge">
<title>n1&#45;&gt;n3</title>
<path fill="none" stroke="black" d="M429.95,-365.81C468.2,-344.55 533.37,-308.35 575.28,-285.07"/>
<polygon fill="black" stroke="black" points="577.07,-288.08 584.11,-280.16 573.67,-281.96 577.07,-288.08"/>
</g>
<!-- n4 -->
<g id="node4" class="node">
<title>n4</title>
<path fill="palegreen" stroke="black" d="M282,-158C282,-158 12,-158 12,-158 6,-158 0,-152 0,-146 0,-146 0,-134 0,-134 0,-128 6,-122 12,-122 12,-122 282,-122 282,-122 288,-122 294,-128 294,-134 294,-134 294,-146 294,-146 294,-152 288,-158 282,-158"/>
<text text-anchor="middle" x="147" y="-136.3" font-family="Arial" font-size="14.00">Difference in appearance is correctly depicted.</text>
</g>
<!-- n2&#45;&gt;n4 -->
<g id="edge3" class="edge">
<title>n2&#45;&gt;n4</title>
<path fill="none" stroke="black" d="M211.25,-243.81C198.67,-223.67 177.69,-190.1 163.14,-166.83"/>
<polygon fill="black" stroke="black" points="165.99,-164.79 157.73,-158.16 160.05,-168.5 165.99,-164.79"/>
</g>
<!-- n5 -->
<g id="node5" class="node">
<title>n5</title>
<polygon fill="lightcoral" stroke="black" points="653,-158 352.37,-140 653,-122 953.63,-140 653,-158"/>
<text text-anchor="middle" x="653" y="-136.3" font-family="Arial" font-size="14.00">Some green leaves on wilting plant show confusion.</text>
</g>
<!-- n3&#45;&gt;n5 -->
<g id="edge4" class="edge">
<title>n3&#45;&gt;n5</title>
<path fill="none" stroke="black" d="M620.44,-243.81C626.77,-223.82 637.29,-190.62 644.65,-167.37"/>
<polygon fill="black" stroke="black" points="648.01,-168.36 647.69,-157.77 641.33,-166.25 648.01,-168.36"/>
</g>
<!-- n6 -->
<g id="node6" class="node">
<title>n6</title>
<polygon fill="#f28e8e" stroke="black" points="848,-36 458,-36 458,0 848,0 848,-36"/>
<text text-anchor="middle" x="653" y="-14.3" font-family="Arial" font-size="14.00">Clarify that water affects all leaves, none should remain green.</text>
</g>
<!-- n5&#45;&gt;n6 -->
<g id="edge5" class="edge">
<title>n5&#45;&gt;n6</title>
<path fill="none" stroke="black" d="M653,-121.81C653,-102.11 653,-69.58 653,-46.39"/>
<polygon fill="black" stroke="black" points="656.5,-46.16 653,-36.16 649.5,-46.16 656.5,-46.16"/>
</g>
</g>
</svg>
