<?xml version="1.0" encoding="UTF-8" standalone="no"?>
<!DOCTYPE svg PUBLIC "-//W3C//DTD SVG 1.1//EN"
 "http://www.w3.org/Graphics/SVG/1.1/DTD/svg11.dtd">
<!-- Generated by graphviz version 2.43.0 (0)
 -->
<!-- Pages: 1 -->
<svg width="1717pt" height="410pt"
 viewBox="0.00 0.00 1716.51 410.00" xmlns="http://www.w3.org/2000/svg" xmlns:xlink="http://www.w3.org/1999/xlink">
<g id="graph0" class="graph" transform="scale(1 1) rotate(0) translate(4 406)">
<polygon fill="white" stroke="transparent" points="-4,4 -4,-406 1712.51,-406 1712.51,4 -4,4"/>
<!-- n1 -->
<g id="node1" class="node">
<title>n1</title>
<polygon fill="lightblue" stroke="black" points="1156.5,-384 992.5,-402 664.5,-402 500.5,-384 664.5,-366 992.5,-366 1156.5,-384"/>
<text text-anchor="middle" x="828.5" y="-380.3" font-family="Arial" font-size="14.00">Draw reversible and irreversible changes (ice melting vs. egg cooking)</text>
</g>
<!-- n2 -->
<g id="node2" class="node">
<title>n2</title>
<polygon fill="#fffdd0" stroke="black" points="411,-280 0,-280 0,-244 411,-244 411,-280"/>
<text text-anchor="middle" x="205.5" y="-258.3" font-family="Arial" font-size="14.00">Block of ice labeled &#39;ice&#39; with arrow labeled &#39;heat&#39; pointing to water</text>
</g>
<!-- n1&#45;&gt;n2 -->
<g id="edge1" class="edge">
<title>n1&#45;&gt;n2</title>
<path fill="none" stroke="black" d="M740.23,-366C624.98,-343.8 423.83,-305.05 303.82,-281.94"/>
<polygon fill="black" stroke="black" points="304.38,-278.48 293.9,-280.03 303.06,-285.36 304.38,-278.48"/>
</g>
<!-- n3 -->
<g id="node3" class="node">
<title>n3</title>
<polygon fill="#fffdd0" stroke="black" points="790,-280 469,-280 469,-244 790,-244 790,-280"/>
<text text-anchor="middle" x="629.5" y="-258.3" font-family="Arial" font-size="14.00">Arrow labeled &#39;cool&#39; pointing from water back to ice</text>
</g>
<!-- n1&#45;&gt;n3 -->
<g id="edge2" class="edge">
<title>n1&#45;&gt;n3</title>
<path fill="none" stroke="black" d="M799.99,-365.81C764.97,-344.69 705.46,-308.81 666.83,-285.51"/>
<polygon fill="black" stroke="black" points="668.33,-282.33 657.96,-280.16 664.72,-288.32 668.33,-282.33"/>
</g>
<!-- n4 -->
<g id="node4" class="node">
<title>n4</title>
<polygon fill="#fffdd0" stroke="black" points="1206.5,-280 848.5,-280 848.5,-244 1206.5,-244 1206.5,-280"/>
<text text-anchor="middle" x="1027.5" y="-258.3" font-family="Arial" font-size="14.00">Raw egg with arrow labeled &#39;heat&#39; pointing to cooked egg</text>
</g>
<!-- n1&#45;&gt;n4 -->
<g id="edge3" class="edge">
<title>n1&#45;&gt;n4</title>
<path fill="none" stroke="black" d="M857.01,-365.81C892.03,-344.69 951.54,-308.81 990.17,-285.51"/>
<polygon fill="black" stroke="black" points="992.28,-288.32 999.04,-280.16 988.67,-282.33 992.28,-288.32"/>
</g>
<!-- n5 -->
<g id="node5" class="node">
<title>n5</title>
<polygon fill="#fffdd0" stroke="black" points="1591,-280 1280,-280 1280,-244 1591,-244 1591,-280"/>
<text text-anchor="middle" x="1435.5" y="-258.3" font-family="Arial" font-size="14.00">Use of inconsistent colors and incomplete arrows</text>
</g>
<!-- n1&#45;&gt;n5 -->
<g id="edge4" class="edge">
<title>n1&#45;&gt;n5</title>
<path fill="none" stroke="black" d="M914.5,-366C1026.7,-343.82 1222.4,-305.13 1339.4,-282.01"/>
<polygon fill="black" stroke="black" points="1340.27,-285.41 1349.4,-280.03 1338.91,-278.54 1340.27,-285.41"/>
</g>
<!-- n6 -->
<g id="node6" class="node">
<title>n6</title>
<path fill="palegreen" stroke="black" d="M584.5,-158C584.5,-158 280.5,-158 280.5,-158 274.5,-158 268.5,-152 268.5,-146 268.5,-146 268.5,-134 268.5,-134 268.5,-128 274.5,-122 280.5,-122 280.5,-122 584.5,-122 584.5,-122 590.5,-122 596.5,-128 596.5,-134 596.5,-134 596.5,-146 596.5,-146 596.5,-152 590.5,-158 584.5,-158"/>
<text text-anchor="middle" x="432.5" y="-136.3" font-family="Arial" font-size="14.00">Understands reversible change: ice melting/freezing</text>
</g>
<!-- n2&#45;&gt;n6 -->
<g id="edge5" class="edge">
<title>n2&#45;&gt;n6</title>
<path fill="none" stroke="black" d="M238.02,-243.81C278.31,-222.51 347,-186.2 391.03,-162.92"/>
<polygon fill="black" stroke="black" points="392.83,-165.93 400.04,-158.16 389.56,-159.74 392.83,-165.93"/>
</g>
<!-- n3&#45;&gt;n6 -->
<g id="edge6" class="edge">
<title>n3&#45;&gt;n6</title>
<path fill="none" stroke="black" d="M601.27,-243.81C566.6,-222.69 507.7,-186.81 469.45,-163.51"/>
<polygon fill="black" stroke="black" points="471.03,-160.37 460.67,-158.16 467.39,-166.35 471.03,-160.37"/>
</g>
<!-- n7 -->
<g id="node7" class="node">
<title>n7</title>
<path fill="palegreen" stroke="black" d="M1138,-158C1138,-158 871,-158 871,-158 865,-158 859,-152 859,-146 859,-146 859,-134 859,-134 859,-128 865,-122 871,-122 871,-122 1138,-122 1138,-122 1144,-122 1150,-128 1150,-134 1150,-134 1150,-146 1150,-146 1150,-152 1144,-158 1138,-158"/>
<text text-anchor="middle" x="1004.5" y="-136.3" font-family="Arial" font-size="14.00">Understands irreversible change: egg cooking</text>
</g>
<!-- n4&#45;&gt;n7 -->
<g id="edge7" class="edge">
<title>n4&#45;&gt;n7</title>
<path fill="none" stroke="black" d="M1024.2,-243.81C1020.4,-224.02 1014.1,-191.29 1009.7,-168.08"/>
<polygon fill="black" stroke="black" points="1013.12,-167.32 1007.8,-158.16 1006.24,-168.64 1013.12,-167.32"/>
</g>
<!-- n8 -->
<g id="node8" class="node">
<title>n8</title>
<polygon fill="lightcoral" stroke="black" points="1458.5,-158 1208.48,-140 1458.5,-122 1708.52,-140 1458.5,-158"/>
<text text-anchor="middle" x="1458.5" y="-136.3" font-family="Arial" font-size="14.00">Misunderstands use of colors and patterns</text>
</g>
<!-- n5&#45;&gt;n8 -->
<g id="edge8" class="edge">
<title>n5&#45;&gt;n8</title>
<path fill="none" stroke="black" d="M1438.8,-243.81C1442.6,-223.91 1448.9,-190.92 1453.4,-167.68"/>
<polygon fill="black" stroke="black" points="1456.85,-168.25 1455.3,-157.77 1449.98,-166.93 1456.85,-168.25"/>
</g>
<!-- n9 -->
<g id="node9" class="node">
<title>n9</title>
<polygon fill="#f28e8e" stroke="black" points="1665.5,-36 1251.5,-36 1251.5,0 1665.5,0 1665.5,-36"/>
<text text-anchor="middle" x="1458.5" y="-14.3" font-family="Arial" font-size="14.00">Provide examples of consistent use of colors and complete arrows</text>
</g>
<!-- n8&#45;&gt;n9 -->
<g id="edge9" class="edge">
<title>n8&#45;&gt;n9</title>
<path fill="none" stroke="black" d="M1458.5,-121.81C1458.5,-102.11 1458.5,-69.58 1458.5,-46.39"/>
<polygon fill="black" stroke="black" points="1462,-46.16 1458.5,-36.16 1455,-46.16 1462,-46.16"/>
</g>
</g>
</svg>
