<?xml version="1.0" encoding="UTF-8" standalone="no"?>
<!DOCTYPE svg PUBLIC "-//W3C//DTD SVG 1.1//EN"
 "http://www.w3.org/Graphics/SVG/1.1/DTD/svg11.dtd">
<!-- Generated by graphviz version 2.43.0 (0)
 -->
<!-- Pages: 1 -->
<svg width="2012pt" height="410pt"
 viewBox="0.00 0.00 2012.02 410.00" xmlns="http://www.w3.org/2000/svg" xmlns:xlink="http://www.w3.org/1999/xlink">
<g id="graph0" class="graph" transform="scale(1 1) rotate(0) translate(4 406)">
<polygon fill="white" stroke="transparent" points="-4,4 -4,-406 2008.02,-406 2008.02,4 -4,4"/>
<!-- n1 -->
<g id="node1" class="node">
<title>n1</title>
<polygon fill="lightblue" stroke="black" points="1822.02,-384 1708.27,-402 1480.77,-402 1367.02,-384 1480.77,-366 1708.27,-366 1822.02,-384"/>
<text text-anchor="middle" x="1594.52" y="-380.3" font-family="Arial" font-size="14.00">Illustrate plants with and without water and light.</text>
</g>
<!-- n2 -->
<g id="node2" class="node">
<title>n2</title>
<polygon fill="#fffdd0" stroke="black" points="1401.02,-280 1190.02,-280 1190.02,-244 1401.02,-244 1401.02,-280"/>
<text text-anchor="middle" x="1295.52" y="-258.3" font-family="Arial" font-size="14.00">Two identical plants side&#45;by&#45;side</text>
</g>
<!-- n1&#45;&gt;n2 -->
<g id="edge1" class="edge">
<title>n1&#45;&gt;n2</title>
<path fill="none" stroke="black" d="M1552.02,-365.93C1498.02,-344.3 1405.22,-307.02 1347.22,-283.76"/>
<polygon fill="black" stroke="black" points="1348.5,-280.5 1337.92,-280.01 1345.89,-287 1348.5,-280.5"/>
</g>
<!-- n3 -->
<g id="node3" class="node">
<title>n3</title>
<polygon fill="#fffdd0" stroke="black" points="1694.52,-280 1494.52,-280 1494.52,-244 1694.52,-244 1694.52,-280"/>
<text text-anchor="middle" x="1594.52" y="-258.3" font-family="Arial" font-size="14.00">Plants uniformly colored green</text>
</g>
<!-- n1&#45;&gt;n3 -->
<g id="edge2" class="edge">
<title>n1&#45;&gt;n3</title>
<path fill="none" stroke="black" d="M1594.52,-365.81C1594.52,-346.11 1594.52,-313.58 1594.52,-290.39"/>
<polygon fill="black" stroke="black" points="1598.02,-290.16 1594.52,-280.16 1591.02,-290.16 1598.02,-290.16"/>
</g>
<!-- n4 -->
<g id="node4" class="node">
<title>n4</title>
<polygon fill="#fffdd0" stroke="black" points="2004.02,-280 1753.02,-280 1753.02,-244 2004.02,-244 2004.02,-280"/>
<text text-anchor="middle" x="1878.52" y="-258.3" font-family="Arial" font-size="14.00">Basic plant shape with stalk and leaves</text>
</g>
<!-- n1&#45;&gt;n4 -->
<g id="edge3" class="edge">
<title>n1&#45;&gt;n4</title>
<path fill="none" stroke="black" d="M1634.92,-365.93C1686.02,-344.34 1773.92,-307.17 1829.02,-283.9"/>
<polygon fill="black" stroke="black" points="1830.37,-287.13 1838.22,-280.01 1827.65,-280.68 1830.37,-287.13"/>
</g>
<!-- n6 -->
<g id="node5" class="node">
<title>n6</title>
<polygon fill="lightcoral" stroke="black" points="416.5,-158 0,-140 416.5,-122 833,-140 416.5,-158"/>
<text text-anchor="middle" x="416.5" y="-136.3" font-family="Arial" font-size="14.00">Student does not differentiate between plants with and without water/light</text>
</g>
<!-- n2&#45;&gt;n6 -->
<g id="edge4" class="edge">
<title>n2&#45;&gt;n6</title>
<path fill="none" stroke="black" d="M1189.92,-246.58C1020.62,-223.47 690.31,-178.38 521.43,-155.32"/>
<polygon fill="black" stroke="black" points="521.66,-151.82 511.28,-153.94 520.72,-158.76 521.66,-151.82"/>
</g>
<!-- n7 -->
<g id="node6" class="node">
<title>n7</title>
<polygon fill="lightcoral" stroke="black" points="1295.52,-158 891.02,-140 1295.52,-122 1700.02,-140 1295.52,-158"/>
<text text-anchor="middle" x="1295.52" y="-136.3" font-family="Arial" font-size="14.00">Student needs to organize and label to show differences in plant health</text>
</g>
<!-- n2&#45;&gt;n7 -->
<g id="edge5" class="edge">
<title>n2&#45;&gt;n7</title>
<path fill="none" stroke="black" d="M1295.52,-243.81C1295.52,-224.11 1295.52,-191.58 1295.52,-168.39"/>
<polygon fill="black" stroke="black" points="1299.02,-168.16 1295.52,-158.16 1292.02,-168.16 1299.02,-168.16"/>
</g>
<!-- n5 -->
<g id="node7" class="node">
<title>n5</title>
<path fill="palegreen" stroke="black" d="M1987.52,-158C1987.52,-158 1769.52,-158 1769.52,-158 1763.52,-158 1757.52,-152 1757.52,-146 1757.52,-146 1757.52,-134 1757.52,-134 1757.52,-128 1763.52,-122 1769.52,-122 1769.52,-122 1987.52,-122 1987.52,-122 1993.52,-122 1999.52,-128 1999.52,-134 1999.52,-134 1999.52,-146 1999.52,-146 1999.52,-152 1993.52,-158 1987.52,-158"/>
<text text-anchor="middle" x="1878.52" y="-136.3" font-family="Arial" font-size="14.00">Student understands plants are green</text>
</g>
<!-- n3&#45;&gt;n5 -->
<g id="edge6" class="edge">
<title>n3&#45;&gt;n5</title>
<path fill="none" stroke="black" d="M1634.92,-243.93C1686.02,-222.34 1773.92,-185.17 1829.02,-161.9"/>
<polygon fill="black" stroke="black" points="1830.37,-165.13 1838.22,-158.01 1827.65,-158.68 1830.37,-165.13"/>
</g>
<!-- n4&#45;&gt;n5 -->
<g id="edge7" class="edge">
<title>n4&#45;&gt;n5</title>
<path fill="none" stroke="black" d="M1878.52,-243.81C1878.52,-224.11 1878.52,-191.58 1878.52,-168.39"/>
<polygon fill="black" stroke="black" points="1882.02,-168.16 1878.52,-158.16 1875.02,-168.16 1882.02,-168.16"/>
</g>
<!-- n8 -->
<g id="node8" class="node">
<title>n8</title>
<polygon fill="#f28e8e" stroke="black" points="599,-36 234,-36 234,0 599,0 599,-36"/>
<text text-anchor="middle" x="416.5" y="-14.3" font-family="Arial" font-size="14.00">Introduce concepts of water and light affecting plant health</text>
</g>
<!-- n6&#45;&gt;n8 -->
<g id="edge8" class="edge">
<title>n6&#45;&gt;n8</title>
<path fill="none" stroke="black" d="M416.5,-121.81C416.5,-102.11 416.5,-69.58 416.5,-46.39"/>
<polygon fill="black" stroke="black" points="420,-46.16 416.5,-36.16 413,-46.16 420,-46.16"/>
</g>
<!-- n9 -->
<g id="node9" class="node">
<title>n9</title>
<polygon fill="#f28e8e" stroke="black" points="1214.02,-36 897.02,-36 897.02,0 1214.02,0 1214.02,-36"/>
<text text-anchor="middle" x="1055.52" y="-14.3" font-family="Arial" font-size="14.00">Encourage labeling of healthy vs. unhealthy plants</text>
</g>
<!-- n6&#45;&gt;n9 -->
<g id="edge9" class="edge">
<title>n6&#45;&gt;n9</title>
<path fill="none" stroke="black" d="M490.11,-125.18C604.69,-103.66 825.93,-62.11 955.07,-37.86"/>
<polygon fill="black" stroke="black" points="955.79,-41.29 964.97,-36 954.5,-34.41 955.79,-41.29"/>
</g>
<!-- n7&#45;&gt;n9 -->
<g id="edge10" class="edge">
<title>n7&#45;&gt;n9</title>
<path fill="none" stroke="black" d="M1264.12,-123.31C1221.82,-102.17 1146.42,-64.44 1098.72,-40.62"/>
<polygon fill="black" stroke="black" points="1100.13,-37.41 1089.62,-36.05 1096.99,-43.66 1100.13,-37.41"/>
</g>
</g>
</svg>
