<?xml version="1.0" encoding="UTF-8" standalone="no"?>
<!DOCTYPE svg PUBLIC "-//W3C//DTD SVG 1.1//EN"
 "http://www.w3.org/Graphics/SVG/1.1/DTD/svg11.dtd">
<!-- Generated by graphviz version 2.43.0 (0)
 -->
<!-- Pages: 1 -->
<svg width="1465pt" height="410pt"
 viewBox="0.00 0.00 1465.00 410.00" xmlns="http://www.w3.org/2000/svg" xmlns:xlink="http://www.w3.org/1999/xlink">
<g id="graph0" class="graph" transform="scale(1 1) rotate(0) translate(4 406)">
<polygon fill="white" stroke="transparent" points="-4,4 -4,-406 1461,-406 1461,4 -4,4"/>
<!-- n1 -->
<g id="node1" class="node">
<title>n1</title>
<polygon fill="lightblue" stroke="black" points="843,-384 751.75,-402 569.25,-402 478,-384 569.25,-366 751.75,-366 843,-384"/>
<text text-anchor="middle" x="660.5" y="-380.3" font-family="Arial" font-size="14.00">Draw reversible changes (ice melting)</text>
</g>
<!-- n2 -->
<g id="node2" class="node">
<title>n2</title>
<polygon fill="#fffdd0" stroke="black" points="275,-280 0,-280 0,-244 275,-244 275,-280"/>
<text text-anchor="middle" x="137.5" y="-258.3" font-family="Arial" font-size="14.00">Blue cube with water droplets indicating ice</text>
</g>
<!-- n1&#45;&gt;n2 -->
<g id="edge1" class="edge">
<title>n1&#45;&gt;n2</title>
<path fill="none" stroke="black" d="M586.4,-366C490.13,-343.91 322.48,-305.44 221.56,-282.29"/>
<polygon fill="black" stroke="black" points="222.24,-278.86 211.71,-280.03 220.67,-285.68 222.24,-278.86"/>
</g>
<!-- n3 -->
<g id="node3" class="node">
<title>n3</title>
<polygon fill="#fffdd0" stroke="black" points="659.5,-280 333.5,-280 333.5,-244 659.5,-244 659.5,-280"/>
<text text-anchor="middle" x="496.5" y="-258.3" font-family="Arial" font-size="14.00">Light blue puddle with ripple marks for melted water</text>
</g>
<!-- n1&#45;&gt;n3 -->
<g id="edge2" class="edge">
<title>n1&#45;&gt;n3</title>
<path fill="none" stroke="black" d="M637,-365.81C608.38,-344.87 559.93,-309.41 528.07,-286.1"/>
<polygon fill="black" stroke="black" points="530.09,-283.24 519.95,-280.16 525.95,-288.89 530.09,-283.24"/>
</g>
<!-- n4 -->
<g id="node4" class="node">
<title>n4</title>
<polygon fill="#fffdd0" stroke="black" points="933,-280 718,-280 718,-244 933,-244 933,-280"/>
<text text-anchor="middle" x="825.5" y="-258.3" font-family="Arial" font-size="14.00">Blue cube again for ice reforming</text>
</g>
<!-- n1&#45;&gt;n4 -->
<g id="edge3" class="edge">
<title>n1&#45;&gt;n4</title>
<path fill="none" stroke="black" d="M684.14,-365.81C712.93,-344.87 761.69,-309.41 793.74,-286.1"/>
<polygon fill="black" stroke="black" points="795.88,-288.87 801.9,-280.16 791.76,-283.22 795.88,-288.87"/>
</g>
<!-- n5 -->
<g id="node5" class="node">
<title>n5</title>
<polygon fill="#fffdd0" stroke="black" points="1338,-280 991,-280 991,-244 1338,-244 1338,-280"/>
<text text-anchor="middle" x="1164.5" y="-258.3" font-family="Arial" font-size="14.00">Brown rectangles for chocolate before and after cooling</text>
</g>
<!-- n1&#45;&gt;n5 -->
<g id="edge4" class="edge">
<title>n1&#45;&gt;n5</title>
<path fill="none" stroke="black" d="M731.91,-366C824.59,-343.93 985.91,-305.52 1083.2,-282.36"/>
<polygon fill="black" stroke="black" points="1084.08,-285.75 1093,-280.03 1082.46,-278.94 1084.08,-285.75"/>
</g>
<!-- n6 -->
<g id="node6" class="node">
<title>n6</title>
<path fill="palegreen" stroke="black" d="M656,-158C656,-158 337,-158 337,-158 331,-158 325,-152 325,-146 325,-146 325,-134 325,-134 325,-128 331,-122 337,-122 337,-122 656,-122 656,-122 662,-122 668,-128 668,-134 668,-134 668,-146 668,-146 668,-152 662,-158 656,-158"/>
<text text-anchor="middle" x="496.5" y="-136.3" font-family="Arial" font-size="14.00">Understands melting and refreezing of ice is reversible</text>
</g>
<!-- n2&#45;&gt;n6 -->
<g id="edge5" class="edge">
<title>n2&#45;&gt;n6</title>
<path fill="none" stroke="black" d="M188.55,-243.93C253.82,-222.12 366.66,-184.4 436.12,-161.18"/>
<polygon fill="black" stroke="black" points="437.24,-164.5 445.62,-158.01 435.03,-157.86 437.24,-164.5"/>
</g>
<!-- n3&#45;&gt;n6 -->
<g id="edge6" class="edge">
<title>n3&#45;&gt;n6</title>
<path fill="none" stroke="black" d="M496.5,-243.81C496.5,-224.11 496.5,-191.58 496.5,-168.39"/>
<polygon fill="black" stroke="black" points="500,-168.16 496.5,-158.16 493,-168.16 500,-168.16"/>
</g>
<!-- n4&#45;&gt;n6 -->
<g id="edge7" class="edge">
<title>n4&#45;&gt;n6</title>
<path fill="none" stroke="black" d="M778.71,-243.93C719.15,-222.21 616.34,-184.71 552.62,-161.47"/>
<polygon fill="black" stroke="black" points="553.72,-158.15 543.13,-158.01 551.33,-164.72 553.72,-158.15"/>
</g>
<!-- n7 -->
<g id="node7" class="node">
<title>n7</title>
<polygon fill="lightcoral" stroke="black" points="1164.5,-158 872,-140 1164.5,-122 1457,-140 1164.5,-158"/>
<text text-anchor="middle" x="1164.5" y="-136.3" font-family="Arial" font-size="14.00">Incomplete understanding of changes in chocolate</text>
</g>
<!-- n5&#45;&gt;n7 -->
<g id="edge8" class="edge">
<title>n5&#45;&gt;n7</title>
<path fill="none" stroke="black" d="M1164.5,-243.81C1164.5,-224.11 1164.5,-191.58 1164.5,-168.39"/>
<polygon fill="black" stroke="black" points="1168,-168.16 1164.5,-158.16 1161,-168.16 1168,-168.16"/>
</g>
<!-- n8 -->
<g id="node8" class="node">
<title>n8</title>
<polygon fill="#f28e8e" stroke="black" points="1309.5,-36 1019.5,-36 1019.5,0 1309.5,0 1309.5,-36"/>
<text text-anchor="middle" x="1164.5" y="-14.3" font-family="Arial" font-size="14.00">Clarify chocolate melting and solidifying steps</text>
</g>
<!-- n7&#45;&gt;n8 -->
<g id="edge9" class="edge">
<title>n7&#45;&gt;n8</title>
<path fill="none" stroke="black" d="M1164.5,-121.81C1164.5,-102.11 1164.5,-69.58 1164.5,-46.39"/>
<polygon fill="black" stroke="black" points="1168,-46.16 1164.5,-36.16 1161,-46.16 1168,-46.16"/>
</g>
</g>
</svg>
