<?xml version="1.0" encoding="UTF-8" standalone="no"?>
<!DOCTYPE svg PUBLIC "-//W3C//DTD SVG 1.1//EN"
 "http://www.w3.org/Graphics/SVG/1.1/DTD/svg11.dtd">
<!-- Generated by graphviz version 2.43.0 (0)
 -->
<!-- Pages: 1 -->
<svg width="1346pt" height="532pt"
 viewBox="0.00 0.00 1346.00 532.00" xmlns="http://www.w3.org/2000/svg" xmlns:xlink="http://www.w3.org/1999/xlink">
<g id="graph0" class="graph" transform="scale(1 1) rotate(0) translate(4 528)">
<polygon fill="white" stroke="transparent" points="-4,4 -4,-528 1342,-528 1342,4 -4,4"/>
<!-- n1 -->
<g id="node1" class="node">
<title>n1</title>
<polygon fill="lightblue" stroke="black" points="711,-506 619,-524 435,-524 343,-506 435,-488 619,-488 711,-506"/>
<text text-anchor="middle" x="527" y="-502.3" font-family="Arial" font-size="14.00">Illustrate plants with and without water</text>
</g>
<!-- n2 -->
<g id="node2" class="node">
<title>n2</title>
<polygon fill="#fffdd0" stroke="black" points="655.5,-402 398.5,-402 398.5,-366 655.5,-366 655.5,-402"/>
<text text-anchor="middle" x="527" y="-380.3" font-family="Arial" font-size="14.00">Two potted plants: healthy vs. unhealthy</text>
</g>
<!-- n1&#45;&gt;n2 -->
<g id="edge1" class="edge">
<title>n1&#45;&gt;n2</title>
<path fill="none" stroke="black" d="M527,-487.81C527,-468.11 527,-435.58 527,-412.39"/>
<polygon fill="black" stroke="black" points="530.5,-412.16 527,-402.16 523.5,-412.16 530.5,-412.16"/>
</g>
<!-- n3 -->
<g id="node3" class="node">
<title>n3</title>
<polygon fill="#fffdd0" stroke="black" points="283,-280 39,-280 39,-244 283,-244 283,-280"/>
<text text-anchor="middle" x="161" y="-258.3" font-family="Arial" font-size="14.00">Healthy Plant: tall, bright green leaves</text>
</g>
<!-- n2&#45;&gt;n3 -->
<g id="edge2" class="edge">
<title>n2&#45;&gt;n3</title>
<path fill="none" stroke="black" d="M474.95,-365.93C408.41,-344.12 293.37,-306.4 222.56,-283.18"/>
<polygon fill="black" stroke="black" points="223.46,-279.79 212.87,-280.01 221.29,-286.45 223.46,-279.79"/>
</g>
<!-- n4 -->
<g id="node4" class="node">
<title>n4</title>
<polygon fill="#fffdd0" stroke="black" points="697,-280 357,-280 357,-244 697,-244 697,-280"/>
<text text-anchor="middle" x="527" y="-258.3" font-family="Arial" font-size="14.00">Unhealthy Plant: wilting, drooping leaves, brown spots</text>
</g>
<!-- n2&#45;&gt;n4 -->
<g id="edge3" class="edge">
<title>n2&#45;&gt;n4</title>
<path fill="none" stroke="black" d="M527,-365.81C527,-346.11 527,-313.58 527,-290.39"/>
<polygon fill="black" stroke="black" points="530.5,-290.16 527,-280.16 523.5,-290.16 530.5,-290.16"/>
</g>
<!-- n5 -->
<g id="node5" class="node">
<title>n5</title>
<polygon fill="#fffdd0" stroke="black" points="1068,-280 848,-280 848,-244 1068,-244 1068,-280"/>
<text text-anchor="middle" x="958" y="-258.3" font-family="Arial" font-size="14.00">Sun drawing implies need for light</text>
</g>
<!-- n2&#45;&gt;n5 -->
<g id="edge4" class="edge">
<title>n2&#45;&gt;n5</title>
<path fill="none" stroke="black" d="M588.29,-365.93C667.13,-343.99 803.78,-305.94 887.04,-282.76"/>
<polygon fill="black" stroke="black" points="888.22,-286.06 896.92,-280.01 886.35,-279.32 888.22,-286.06"/>
</g>
<!-- n6 -->
<g id="node6" class="node">
<title>n6</title>
<path fill="palegreen" stroke="black" d="M278,-158C278,-158 12,-158 12,-158 6,-158 0,-152 0,-146 0,-146 0,-134 0,-134 0,-128 6,-122 12,-122 12,-122 278,-122 278,-122 284,-122 290,-128 290,-134 290,-134 290,-146 290,-146 290,-152 284,-158 278,-158"/>
<text text-anchor="middle" x="145" y="-136.3" font-family="Arial" font-size="14.00">Understands: Plants need water to be healthy</text>
</g>
<!-- n3&#45;&gt;n6 -->
<g id="edge5" class="edge">
<title>n3&#45;&gt;n6</title>
<path fill="none" stroke="black" d="M158.71,-243.81C156.07,-224.02 151.71,-191.29 148.61,-168.08"/>
<polygon fill="black" stroke="black" points="152.08,-167.61 147.29,-158.16 145.14,-168.53 152.08,-167.61"/>
</g>
<!-- n7 -->
<g id="node7" class="node">
<title>n7</title>
<path fill="palegreen" stroke="black" d="M694,-158C694,-158 360,-158 360,-158 354,-158 348,-152 348,-146 348,-146 348,-134 348,-134 348,-128 354,-122 360,-122 360,-122 694,-122 694,-122 700,-122 706,-128 706,-134 706,-134 706,-146 706,-146 706,-152 700,-158 694,-158"/>
<text text-anchor="middle" x="527" y="-136.3" font-family="Arial" font-size="14.00">Understands: Lack of water leads to wilting and browning</text>
</g>
<!-- n4&#45;&gt;n7 -->
<g id="edge6" class="edge">
<title>n4&#45;&gt;n7</title>
<path fill="none" stroke="black" d="M527,-243.81C527,-224.11 527,-191.58 527,-168.39"/>
<polygon fill="black" stroke="black" points="530.5,-168.16 527,-158.16 523.5,-168.16 530.5,-168.16"/>
</g>
<!-- n8 -->
<g id="node8" class="node">
<title>n8</title>
<polygon fill="lightcoral" stroke="black" points="1051,-158 764,-140 1051,-122 1338,-140 1051,-158"/>
<text text-anchor="middle" x="1051" y="-136.3" font-family="Arial" font-size="14.00">Incomplete understanding of plant&#39;s need for light</text>
</g>
<!-- n5&#45;&gt;n8 -->
<g id="edge7" class="edge">
<title>n5&#45;&gt;n8</title>
<path fill="none" stroke="black" d="M971.32,-243.81C987.25,-223.26 1014,-188.74 1032.1,-165.42"/>
<polygon fill="black" stroke="black" points="1034.96,-167.44 1038.3,-157.39 1029.42,-163.17 1034.96,-167.44"/>
</g>
<!-- n9 -->
<g id="node9" class="node">
<title>n9</title>
<polygon fill="#f28e8e" stroke="black" points="1191,-36 911,-36 911,0 1191,0 1191,-36"/>
<text text-anchor="middle" x="1051" y="-14.3" font-family="Arial" font-size="14.00">Label the sun to clarify that plants need light</text>
</g>
<!-- n8&#45;&gt;n9 -->
<g id="edge8" class="edge">
<title>n8&#45;&gt;n9</title>
<path fill="none" stroke="black" d="M1051,-121.81C1051,-102.11 1051,-69.58 1051,-46.39"/>
<polygon fill="black" stroke="black" points="1054.5,-46.16 1051,-36.16 1047.5,-46.16 1054.5,-46.16"/>
</g>
</g>
</svg>
