<?xml version="1.0" encoding="UTF-8" standalone="no"?>
<!DOCTYPE svg PUBLIC "-//W3C//DTD SVG 1.1//EN"
 "http://www.w3.org/Graphics/SVG/1.1/DTD/svg11.dtd">
<!-- Generated by graphviz version 2.43.0 (0)
 -->
<!-- Pages: 1 -->
<svg width="1441pt" height="288pt"
 viewBox="0.00 0.00 1441.00 288.00" xmlns="http://www.w3.org/2000/svg" xmlns:xlink="http://www.w3.org/1999/xlink">
<g id="graph0" class="graph" transform="scale(1 1) rotate(0) translate(4 284)">
<polygon fill="white" stroke="transparent" points="-4,4 -4,-284 1437,-284 1437,4 -4,4"/>
<!-- n1 -->
<g id="node1" class="node">
<title>n1</title>
<polygon fill="lightblue" stroke="black" points="885,-262 793.75,-280 611.25,-280 520,-262 611.25,-244 793.75,-244 885,-262"/>
<text text-anchor="middle" x="702.5" y="-258.3" font-family="Arial" font-size="14.00">Draw reversible changes (ice melting)</text>
</g>
<!-- n2 -->
<g id="node2" class="node">
<title>n2</title>
<polygon fill="#fffdd0" stroke="black" points="261,-158 100,-158 100,-122 261,-122 261,-158"/>
<text text-anchor="middle" x="180.5" y="-136.3" font-family="Arial" font-size="14.00">Solid ice, before melting</text>
</g>
<!-- n1&#45;&gt;n2 -->
<g id="edge1" class="edge">
<title>n1&#45;&gt;n2</title>
<path fill="none" stroke="black" d="M628.54,-244C532.46,-221.91 365.13,-183.44 264.4,-160.29"/>
<polygon fill="black" stroke="black" points="265.1,-156.86 254.57,-158.03 263.53,-163.68 265.1,-156.86"/>
</g>
<!-- n3 -->
<g id="node3" class="node">
<title>n3</title>
<polygon fill="#fffdd0" stroke="black" points="530.5,-158 348.5,-158 348.5,-122 530.5,-122 530.5,-158"/>
<text text-anchor="middle" x="439.5" y="-136.3" font-family="Arial" font-size="14.00">Arrow labeled &#39;heat applied&#39;</text>
</g>
<!-- n1&#45;&gt;n3 -->
<g id="edge2" class="edge">
<title>n1&#45;&gt;n3</title>
<path fill="none" stroke="black" d="M665.1,-243.93C617.97,-222.43 536.98,-185.48 485.94,-162.19"/>
<polygon fill="black" stroke="black" points="487.32,-158.97 476.77,-158.01 484.42,-165.34 487.32,-158.97"/>
</g>
<!-- n4 -->
<g id="node4" class="node">
<title>n4</title>
<polygon fill="#fffdd0" stroke="black" points="788,-158 617,-158 617,-122 788,-122 788,-158"/>
<text text-anchor="middle" x="702.5" y="-136.3" font-family="Arial" font-size="14.00">Liquid water, after melting</text>
</g>
<!-- n1&#45;&gt;n4 -->
<g id="edge3" class="edge">
<title>n1&#45;&gt;n4</title>
<path fill="none" stroke="black" d="M702.5,-243.81C702.5,-224.11 702.5,-191.58 702.5,-168.39"/>
<polygon fill="black" stroke="black" points="706,-168.16 702.5,-158.16 699,-168.16 706,-168.16"/>
</g>
<!-- n5 -->
<g id="node5" class="node">
<title>n5</title>
<polygon fill="#fffdd0" stroke="black" points="1056,-158 875,-158 875,-122 1056,-122 1056,-158"/>
<text text-anchor="middle" x="965.5" y="-136.3" font-family="Arial" font-size="14.00">Arrow labeled &#39;cold applied&#39;</text>
</g>
<!-- n1&#45;&gt;n5 -->
<g id="edge4" class="edge">
<title>n1&#45;&gt;n5</title>
<path fill="none" stroke="black" d="M739.9,-243.93C787.03,-222.43 868.02,-185.48 919.06,-162.19"/>
<polygon fill="black" stroke="black" points="920.58,-165.34 928.23,-158.01 917.68,-158.97 920.58,-165.34"/>
</g>
<!-- n6 -->
<g id="node6" class="node">
<title>n6</title>
<polygon fill="#fffdd0" stroke="black" points="1330.5,-158 1164.5,-158 1164.5,-122 1330.5,-122 1330.5,-158"/>
<text text-anchor="middle" x="1247.5" y="-136.3" font-family="Arial" font-size="14.00">Reversible change noted</text>
</g>
<!-- n1&#45;&gt;n6 -->
<g id="edge5" class="edge">
<title>n1&#45;&gt;n6</title>
<path fill="none" stroke="black" d="M779.72,-244C880.14,-221.89 1055.1,-183.37 1160.2,-160.22"/>
<polygon fill="black" stroke="black" points="1161.18,-163.59 1170.2,-158.03 1159.68,-156.75 1161.18,-163.59"/>
</g>
<!-- n7 -->
<g id="node7" class="node">
<title>n7</title>
<path fill="palegreen" stroke="black" d="M233,-36C233,-36 12,-36 12,-36 6,-36 0,-30 0,-24 0,-24 0,-12 0,-12 0,-6 6,0 12,0 12,0 233,0 233,0 239,0 245,-6 245,-12 245,-12 245,-24 245,-24 245,-30 239,-36 233,-36"/>
<text text-anchor="middle" x="122.5" y="-14.3" font-family="Arial" font-size="14.00">Understands phase change of melting</text>
</g>
<!-- n2&#45;&gt;n7 -->
<g id="edge6" class="edge">
<title>n2&#45;&gt;n7</title>
<path fill="none" stroke="black" d="M172.19,-121.81C162.54,-101.85 146.52,-68.7 135.28,-45.45"/>
<polygon fill="black" stroke="black" points="138.29,-43.64 130.79,-36.16 131.99,-46.69 138.29,-43.64"/>
</g>
<!-- n8 -->
<g id="node8" class="node">
<title>n8</title>
<path fill="palegreen" stroke="black" d="M508,-36C508,-36 315,-36 315,-36 309,-36 303,-30 303,-24 303,-24 303,-12 303,-12 303,-6 309,0 315,0 315,0 508,0 508,0 514,0 520,-6 520,-12 520,-12 520,-24 520,-24 520,-30 514,-36 508,-36"/>
<text text-anchor="middle" x="411.5" y="-14.3" font-family="Arial" font-size="14.00">Illustrates heating causes melting</text>
</g>
<!-- n3&#45;&gt;n8 -->
<g id="edge7" class="edge">
<title>n3&#45;&gt;n8</title>
<path fill="none" stroke="black" d="M435.49,-121.81C430.87,-102.02 423.23,-69.29 417.82,-46.08"/>
<polygon fill="black" stroke="black" points="421.19,-45.1 415.5,-36.16 414.37,-46.7 421.19,-45.1"/>
</g>
<!-- n9 -->
<g id="node9" class="node">
<title>n9</title>
<path fill="palegreen" stroke="black" d="M814.5,-36C814.5,-36 590.5,-36 590.5,-36 584.5,-36 578.5,-30 578.5,-24 578.5,-24 578.5,-12 578.5,-12 578.5,-6 584.5,0 590.5,0 590.5,0 814.5,0 814.5,0 820.5,0 826.5,-6 826.5,-12 826.5,-12 826.5,-24 826.5,-24 826.5,-30 820.5,-36 814.5,-36"/>
<text text-anchor="middle" x="702.5" y="-14.3" font-family="Arial" font-size="14.00">Understands phase change of freezing</text>
</g>
<!-- n4&#45;&gt;n9 -->
<g id="edge8" class="edge">
<title>n4&#45;&gt;n9</title>
<path fill="none" stroke="black" d="M702.5,-121.81C702.5,-102.11 702.5,-69.58 702.5,-46.39"/>
<polygon fill="black" stroke="black" points="706,-46.16 702.5,-36.16 699,-46.16 706,-46.16"/>
</g>
<!-- n10 -->
<g id="node10" class="node">
<title>n10</title>
<path fill="palegreen" stroke="black" d="M1092,-36C1092,-36 897,-36 897,-36 891,-36 885,-30 885,-24 885,-24 885,-12 885,-12 885,-6 891,0 897,0 897,0 1092,0 1092,0 1098,0 1104,-6 1104,-12 1104,-12 1104,-24 1104,-24 1104,-30 1098,-36 1092,-36"/>
<text text-anchor="middle" x="994.5" y="-14.3" font-family="Arial" font-size="14.00">Illustrates cooling causes freezing</text>
</g>
<!-- n5&#45;&gt;n10 -->
<g id="edge9" class="edge">
<title>n5&#45;&gt;n10</title>
<path fill="none" stroke="black" d="M969.65,-121.81C974.44,-102.02 982.35,-69.29 987.96,-46.08"/>
<polygon fill="black" stroke="black" points="991.41,-46.7 990.35,-36.16 984.6,-45.06 991.41,-46.7"/>
</g>
<!-- n11 -->
<g id="node11" class="node">
<title>n11</title>
<path fill="palegreen" stroke="black" d="M1421,-36C1421,-36 1174,-36 1174,-36 1168,-36 1162,-30 1162,-24 1162,-24 1162,-12 1162,-12 1162,-6 1168,0 1174,0 1174,0 1421,0 1421,0 1427,0 1433,-6 1433,-12 1433,-12 1433,-24 1433,-24 1433,-30 1427,-36 1421,-36"/>
<text text-anchor="middle" x="1297.5" y="-14.3" font-family="Arial" font-size="14.00">Correctly labels reversible change process</text>
</g>
<!-- n6&#45;&gt;n11 -->
<g id="edge10" class="edge">
<title>n6&#45;&gt;n11</title>
<path fill="none" stroke="black" d="M1254.7,-121.81C1263,-101.85 1276.8,-68.7 1286.5,-45.45"/>
<polygon fill="black" stroke="black" points="1289.75,-46.74 1290.3,-36.16 1283.27,-44.09 1289.75,-46.74"/>
</g>
</g>
</svg>
