<?xml version="1.0" encoding="UTF-8" standalone="no"?>
<!DOCTYPE svg PUBLIC "-//W3C//DTD SVG 1.1//EN"
 "http://www.w3.org/Graphics/SVG/1.1/DTD/svg11.dtd">
<!-- Generated by graphviz version 2.43.0 (0)
 -->
<!-- Pages: 1 -->
<svg width="1750pt" height="410pt"
 viewBox="0.00 0.00 1749.62 410.00" xmlns="http://www.w3.org/2000/svg" xmlns:xlink="http://www.w3.org/1999/xlink">
<g id="graph0" class="graph" transform="scale(1 1) rotate(0) translate(4 406)">
<polygon fill="white" stroke="transparent" points="-4,4 -4,-406 1745.62,-406 1745.62,4 -4,4"/>
<!-- n1 -->
<g id="node1" class="node">
<title>n1</title>
<polygon fill="lightblue" stroke="black" points="1004.37,-384 861.69,-402 576.31,-402 433.63,-384 576.31,-366 861.69,-366 1004.37,-384"/>
<text text-anchor="middle" x="719" y="-380.3" font-family="Arial" font-size="14.00">Draw animals in their habitats with labels (e.g., fish in water).</text>
</g>
<!-- n2 -->
<g id="node2" class="node">
<title>n2</title>
<polygon fill="#fffdd0" stroke="black" points="409.5,-280 140.5,-280 140.5,-244 409.5,-244 409.5,-280"/>
<text text-anchor="middle" x="275" y="-258.3" font-family="Arial" font-size="14.00">Fish in blue water labeled &#39;fish&#39; and &#39;water&#39;</text>
</g>
<!-- n1&#45;&gt;n2 -->
<g id="edge1" class="edge">
<title>n1&#45;&gt;n2</title>
<path fill="none" stroke="black" d="M655.86,-365.93C574.48,-343.94 433.3,-305.78 347.58,-282.62"/>
<polygon fill="black" stroke="black" points="348.5,-279.24 337.93,-280.01 346.67,-286 348.5,-279.24"/>
</g>
<!-- n3 -->
<g id="node3" class="node">
<title>n3</title>
<polygon fill="#fffdd0" stroke="black" points="832.5,-280 605.5,-280 605.5,-244 832.5,-244 832.5,-280"/>
<text text-anchor="middle" x="719" y="-258.3" font-family="Arial" font-size="14.00">Tree with brown trunk labeled &#39;tree&#39;</text>
</g>
<!-- n1&#45;&gt;n3 -->
<g id="edge2" class="edge">
<title>n1&#45;&gt;n3</title>
<path fill="none" stroke="black" d="M719,-365.81C719,-346.11 719,-313.58 719,-290.39"/>
<polygon fill="black" stroke="black" points="722.5,-290.16 719,-280.16 715.5,-290.16 722.5,-290.16"/>
</g>
<!-- n4 -->
<g id="node4" class="node">
<title>n4</title>
<polygon fill="#fffdd0" stroke="black" points="1356,-280 1110,-280 1110,-244 1356,-244 1356,-280"/>
<text text-anchor="middle" x="1233" y="-258.3" font-family="Arial" font-size="14.00">Bird flying in the sky, unlabeled habitat</text>
</g>
<!-- n1&#45;&gt;n4 -->
<g id="edge3" class="edge">
<title>n1&#45;&gt;n4</title>
<path fill="none" stroke="black" d="M791.83,-366C886.34,-343.93 1050.9,-305.52 1150.1,-282.36"/>
<polygon fill="black" stroke="black" points="1151.16,-285.71 1160.1,-280.03 1149.57,-278.89 1151.16,-285.71"/>
</g>
<!-- n5 -->
<g id="node5" class="node">
<title>n5</title>
<path fill="palegreen" stroke="black" d="M262,-158C262,-158 12,-158 12,-158 6,-158 0,-152 0,-146 0,-146 0,-134 0,-134 0,-128 6,-122 12,-122 12,-122 262,-122 262,-122 268,-122 274,-128 274,-134 274,-134 274,-146 274,-146 274,-152 268,-158 262,-158"/>
<text text-anchor="middle" x="137" y="-136.3" font-family="Arial" font-size="14.00">Understanding: Fish labeled with its habitat</text>
</g>
<!-- n2&#45;&gt;n5 -->
<g id="edge4" class="edge">
<title>n2&#45;&gt;n5</title>
<path fill="none" stroke="black" d="M255.23,-243.81C231.45,-223.13 191.41,-188.31 164.6,-165"/>
<polygon fill="black" stroke="black" points="166.58,-162.08 156.74,-158.16 161.99,-167.36 166.58,-162.08"/>
</g>
<!-- n6 -->
<g id="node6" class="node">
<title>n6</title>
<polygon fill="lightcoral" stroke="black" points="719,-158 332,-140 719,-122 1106,-140 719,-158"/>
<text text-anchor="middle" x="719" y="-136.3" font-family="Arial" font-size="14.00">Understanding: Tree labeled correctly, but with no habitat resources</text>
</g>
<!-- n3&#45;&gt;n6 -->
<g id="edge5" class="edge">
<title>n3&#45;&gt;n6</title>
<path fill="none" stroke="black" d="M719,-243.81C719,-224.11 719,-191.58 719,-168.39"/>
<polygon fill="black" stroke="black" points="722.5,-168.16 719,-158.16 715.5,-168.16 722.5,-168.16"/>
</g>
<!-- n7 -->
<g id="node7" class="node">
<title>n7</title>
<polygon fill="lightcoral" stroke="black" points="1453,-158 1164.27,-140 1453,-122 1741.73,-140 1453,-158"/>
<text text-anchor="middle" x="1453" y="-136.3" font-family="Arial" font-size="14.00">Misunderstanding: Bird not connected to a habitat</text>
</g>
<!-- n4&#45;&gt;n7 -->
<g id="edge6" class="edge">
<title>n4&#45;&gt;n7</title>
<path fill="none" stroke="black" d="M1264.5,-243.81C1304.6,-221.95 1373.7,-184.28 1416.1,-161.11"/>
<polygon fill="black" stroke="black" points="1417.89,-164.12 1425,-156.26 1414.54,-157.97 1417.89,-164.12"/>
</g>
<!-- n8 -->
<g id="node8" class="node">
<title>n8</title>
<polygon fill="#f28e8e" stroke="black" points="907.5,-36 530.5,-36 530.5,0 907.5,0 907.5,-36"/>
<text text-anchor="middle" x="719" y="-14.3" font-family="Arial" font-size="14.00">Suggestion: Include labels for resources like soil for the tree.</text>
</g>
<!-- n6&#45;&gt;n8 -->
<g id="edge7" class="edge">
<title>n6&#45;&gt;n8</title>
<path fill="none" stroke="black" d="M719,-121.81C719,-102.11 719,-69.58 719,-46.39"/>
<polygon fill="black" stroke="black" points="722.5,-46.16 719,-36.16 715.5,-46.16 722.5,-46.16"/>
</g>
<!-- n9 -->
<g id="node9" class="node">
<title>n9</title>
<polygon fill="#f28e8e" stroke="black" points="1583,-36 1323,-36 1323,0 1583,0 1583,-36"/>
<text text-anchor="middle" x="1453" y="-14.3" font-family="Arial" font-size="14.00">Suggestion: Label sky as habitat for bird.</text>
</g>
<!-- n7&#45;&gt;n9 -->
<g id="edge8" class="edge">
<title>n7&#45;&gt;n9</title>
<path fill="none" stroke="black" d="M1453,-121.81C1453,-102.11 1453,-69.58 1453,-46.39"/>
<polygon fill="black" stroke="black" points="1456.5,-46.16 1453,-36.16 1449.5,-46.16 1456.5,-46.16"/>
</g>
</g>
</svg>
