<?xml version="1.0" encoding="UTF-8" standalone="no"?>
<!DOCTYPE svg PUBLIC "-//W3C//DTD SVG 1.1//EN"
 "http://www.w3.org/Graphics/SVG/1.1/DTD/svg11.dtd">
<!-- Generated by graphviz version 2.43.0 (0)
 -->
<!-- Pages: 1 -->
<svg width="1166pt" height="410pt"
 viewBox="0.00 0.00 1166.00 410.00" xmlns="http://www.w3.org/2000/svg" xmlns:xlink="http://www.w3.org/1999/xlink">
<g id="graph0" class="graph" transform="scale(1 1) rotate(0) translate(4 406)">
<polygon fill="white" stroke="transparent" points="-4,4 -4,-406 1162,-406 1162,4 -4,4"/>
<!-- n1 -->
<g id="node1" class="node">
<title>n1</title>
<polygon fill="lightblue" stroke="black" points="648,-384 556.75,-402 374.25,-402 283,-384 374.25,-366 556.75,-366 648,-384"/>
<text text-anchor="middle" x="465.5" y="-380.3" font-family="Arial" font-size="14.00">Draw a fish in their habitat with labels.</text>
</g>
<!-- n2 -->
<g id="node2" class="node">
<title>n2</title>
<polygon fill="#fffdd0" stroke="black" points="285,-280 0,-280 0,-244 285,-244 285,-280"/>
<text text-anchor="middle" x="142.5" y="-258.3" font-family="Arial" font-size="14.00">Simple fish with oval bodies and triangle tails</text>
</g>
<!-- n1&#45;&gt;n2 -->
<g id="edge1" class="edge">
<title>n1&#45;&gt;n2</title>
<path fill="none" stroke="black" d="M419.57,-365.93C361.21,-344.25 260.57,-306.86 197.98,-283.61"/>
<polygon fill="black" stroke="black" points="198.87,-280.21 188.28,-280.01 196.44,-286.77 198.87,-280.21"/>
</g>
<!-- n3 -->
<g id="node3" class="node">
<title>n3</title>
<polygon fill="#fffdd0" stroke="black" points="588,-280 343,-280 343,-244 588,-244 588,-280"/>
<text text-anchor="middle" x="465.5" y="-258.3" font-family="Arial" font-size="14.00">Large, wavy blue water labeled &#39;water&#39;</text>
</g>
<!-- n1&#45;&gt;n3 -->
<g id="edge2" class="edge">
<title>n1&#45;&gt;n3</title>
<path fill="none" stroke="black" d="M465.5,-365.81C465.5,-346.11 465.5,-313.58 465.5,-290.39"/>
<polygon fill="black" stroke="black" points="469,-290.16 465.5,-280.16 462,-290.16 469,-290.16"/>
</g>
<!-- n4 -->
<g id="node4" class="node">
<title>n4</title>
<polygon fill="#fffdd0" stroke="black" points="960.5,-280 698.5,-280 698.5,-244 960.5,-244 960.5,-280"/>
<text text-anchor="middle" x="829.5" y="-258.3" font-family="Arial" font-size="14.00">Unlabeled wavy lines at bottom as plants</text>
</g>
<!-- n1&#45;&gt;n4 -->
<g id="edge3" class="edge">
<title>n1&#45;&gt;n4</title>
<path fill="none" stroke="black" d="M517.27,-365.93C583.44,-344.12 697.85,-306.4 768.28,-283.18"/>
<polygon fill="black" stroke="black" points="769.51,-286.46 777.91,-280.01 767.32,-279.81 769.51,-286.46"/>
</g>
<!-- n5 -->
<g id="node5" class="node">
<title>n5</title>
<path fill="palegreen" stroke="black" d="M269.5,-158C269.5,-158 15.5,-158 15.5,-158 9.5,-158 3.5,-152 3.5,-146 3.5,-146 3.5,-134 3.5,-134 3.5,-128 9.5,-122 15.5,-122 15.5,-122 269.5,-122 269.5,-122 275.5,-122 281.5,-128 281.5,-134 281.5,-134 281.5,-146 281.5,-146 281.5,-152 275.5,-158 269.5,-158"/>
<text text-anchor="middle" x="142.5" y="-136.3" font-family="Arial" font-size="14.00">Understands fish live in water environments</text>
</g>
<!-- n2&#45;&gt;n5 -->
<g id="edge4" class="edge">
<title>n2&#45;&gt;n5</title>
<path fill="none" stroke="black" d="M142.5,-243.81C142.5,-224.11 142.5,-191.58 142.5,-168.39"/>
<polygon fill="black" stroke="black" points="146,-168.16 142.5,-158.16 139,-168.16 146,-168.16"/>
</g>
<!-- n6 -->
<g id="node6" class="node">
<title>n6</title>
<path fill="palegreen" stroke="black" d="M553.5,-158C553.5,-158 359.5,-158 359.5,-158 353.5,-158 347.5,-152 347.5,-146 347.5,-146 347.5,-134 347.5,-134 347.5,-128 353.5,-122 359.5,-122 359.5,-122 553.5,-122 553.5,-122 559.5,-122 565.5,-128 565.5,-134 565.5,-134 565.5,-146 565.5,-146 565.5,-152 559.5,-158 553.5,-158"/>
<text text-anchor="middle" x="456.5" y="-136.3" font-family="Arial" font-size="14.00">Correctly labeled &#39;fish&#39; and &#39;water&#39;</text>
</g>
<!-- n3&#45;&gt;n6 -->
<g id="edge5" class="edge">
<title>n3&#45;&gt;n6</title>
<path fill="none" stroke="black" d="M464.21,-243.81C462.73,-224.11 460.29,-191.58 458.55,-168.39"/>
<polygon fill="black" stroke="black" points="462.02,-167.87 457.79,-158.16 455.04,-168.39 462.02,-167.87"/>
</g>
<!-- n7 -->
<g id="node7" class="node">
<title>n7</title>
<polygon fill="lightcoral" stroke="black" points="890.5,-158 623,-140 890.5,-122 1158,-140 890.5,-158"/>
<text text-anchor="middle" x="890.5" y="-136.3" font-family="Arial" font-size="14.00">Incomplete understanding of habitat elements</text>
</g>
<!-- n4&#45;&gt;n7 -->
<g id="edge6" class="edge">
<title>n4&#45;&gt;n7</title>
<path fill="none" stroke="black" d="M838.24,-243.81C848.49,-223.64 865.58,-190.02 877.41,-166.74"/>
<polygon fill="black" stroke="black" points="880.56,-168.27 881.97,-157.77 874.32,-165.1 880.56,-168.27"/>
</g>
<!-- n8 -->
<g id="node8" class="node">
<title>n8</title>
<polygon fill="#f28e8e" stroke="black" points="1041.5,-36 739.5,-36 739.5,0 1041.5,0 1041.5,-36"/>
<text text-anchor="middle" x="890.5" y="-14.3" font-family="Arial" font-size="14.00">Label plants and explore other habitat elements</text>
</g>
<!-- n7&#45;&gt;n8 -->
<g id="edge7" class="edge">
<title>n7&#45;&gt;n8</title>
<path fill="none" stroke="black" d="M890.5,-121.81C890.5,-102.11 890.5,-69.58 890.5,-46.39"/>
<polygon fill="black" stroke="black" points="894,-46.16 890.5,-36.16 887,-46.16 894,-46.16"/>
</g>
</g>
</svg>
