<?xml version="1.0" encoding="UTF-8" standalone="no"?>
<!DOCTYPE svg PUBLIC "-//W3C//DTD SVG 1.1//EN"
 "http://www.w3.org/Graphics/SVG/1.1/DTD/svg11.dtd">
<!-- Generated by graphviz version 2.43.0 (0)
 -->
<!-- Pages: 1 -->
<svg width="1448pt" height="410pt"
 viewBox="0.00 0.00 1447.65 410.00" xmlns="http://www.w3.org/2000/svg" xmlns:xlink="http://www.w3.org/1999/xlink">
<g id="graph0" class="graph" transform="scale(1 1) rotate(0) translate(4 406)">
<polygon fill="white" stroke="transparent" points="-4,4 -4,-406 1443.65,-406 1443.65,4 -4,4"/>
<!-- n1 -->
<g id="node1" class="node">
<title>n1</title>
<polygon fill="lightblue" stroke="black" points="662.5,-384 551,-402 328,-402 216.5,-384 328,-366 551,-366 662.5,-384"/>
<text text-anchor="middle" x="439.5" y="-380.3" font-family="Arial" font-size="14.00">Draw a string telephone between two students.</text>
</g>
<!-- n2 -->
<g id="node2" class="node">
<title>n2</title>
<polygon fill="#fffdd0" stroke="black" points="270,-280 65,-280 65,-244 270,-244 270,-280"/>
<text text-anchor="middle" x="167.5" y="-258.3" font-family="Arial" font-size="14.00">Two students on opposite sides</text>
</g>
<!-- n1&#45;&gt;n2 -->
<g id="edge1" class="edge">
<title>n1&#45;&gt;n2</title>
<path fill="none" stroke="black" d="M400.82,-365.93C351.98,-344.39 267.97,-307.32 215.2,-284.04"/>
<polygon fill="black" stroke="black" points="216.61,-280.84 206.05,-280.01 213.79,-287.24 216.61,-280.84"/>
</g>
<!-- n3 -->
<g id="node3" class="node">
<title>n3</title>
<polygon fill="#fffdd0" stroke="black" points="528.5,-280 350.5,-280 350.5,-244 528.5,-244 528.5,-280"/>
<text text-anchor="middle" x="439.5" y="-258.3" font-family="Arial" font-size="14.00">String connecting two cups</text>
</g>
<!-- n1&#45;&gt;n3 -->
<g id="edge2" class="edge">
<title>n1&#45;&gt;n3</title>
<path fill="none" stroke="black" d="M439.5,-365.81C439.5,-346.11 439.5,-313.58 439.5,-290.39"/>
<polygon fill="black" stroke="black" points="443,-290.16 439.5,-280.16 436,-290.16 443,-290.16"/>
</g>
<!-- n4 -->
<g id="node4" class="node">
<title>n4</title>
<polygon fill="#fffdd0" stroke="black" points="837.5,-280 589.5,-280 589.5,-244 837.5,-244 837.5,-280"/>
<text text-anchor="middle" x="713.5" y="-258.3" font-family="Arial" font-size="14.00">Sound waves traveling along the string</text>
</g>
<!-- n1&#45;&gt;n4 -->
<g id="edge3" class="edge">
<title>n1&#45;&gt;n4</title>
<path fill="none" stroke="black" d="M478.47,-365.93C527.67,-344.39 612.29,-307.32 665.45,-284.04"/>
<polygon fill="black" stroke="black" points="666.91,-287.22 674.67,-280.01 664.11,-280.81 666.91,-287.22"/>
</g>
<!-- n5 -->
<g id="node5" class="node">
<title>n5</title>
<path fill="palegreen" stroke="black" d="M279,-158C279,-158 12,-158 12,-158 6,-158 0,-152 0,-146 0,-146 0,-134 0,-134 0,-128 6,-122 12,-122 12,-122 279,-122 279,-122 285,-122 291,-128 291,-134 291,-134 291,-146 291,-146 291,-152 285,-158 279,-158"/>
<text text-anchor="middle" x="145.5" y="-136.3" font-family="Arial" font-size="14.00">Students trying to communicate over distance</text>
</g>
<!-- n2&#45;&gt;n5 -->
<g id="edge4" class="edge">
<title>n2&#45;&gt;n5</title>
<path fill="none" stroke="black" d="M164.35,-243.81C160.72,-224.02 154.72,-191.29 150.46,-168.08"/>
<polygon fill="black" stroke="black" points="153.89,-167.37 148.65,-158.16 147,-168.63 153.89,-167.37"/>
</g>
<!-- n6 -->
<g id="node6" class="node">
<title>n6</title>
<path fill="palegreen" stroke="black" d="M517.5,-158C517.5,-158 361.5,-158 361.5,-158 355.5,-158 349.5,-152 349.5,-146 349.5,-146 349.5,-134 349.5,-134 349.5,-128 355.5,-122 361.5,-122 361.5,-122 517.5,-122 517.5,-122 523.5,-122 529.5,-128 529.5,-134 529.5,-134 529.5,-146 529.5,-146 529.5,-152 523.5,-158 517.5,-158"/>
<text text-anchor="middle" x="439.5" y="-136.3" font-family="Arial" font-size="14.00">String enables sound travel</text>
</g>
<!-- n3&#45;&gt;n6 -->
<g id="edge5" class="edge">
<title>n3&#45;&gt;n6</title>
<path fill="none" stroke="black" d="M439.5,-243.81C439.5,-224.11 439.5,-191.58 439.5,-168.39"/>
<polygon fill="black" stroke="black" points="443,-168.16 439.5,-158.16 436,-168.16 443,-168.16"/>
</g>
<!-- n7 -->
<g id="node7" class="node">
<title>n7</title>
<path fill="palegreen" stroke="black" d="M827,-158C827,-158 600,-158 600,-158 594,-158 588,-152 588,-146 588,-146 588,-134 588,-134 588,-128 594,-122 600,-122 600,-122 827,-122 827,-122 833,-122 839,-128 839,-134 839,-134 839,-146 839,-146 839,-152 833,-158 827,-158"/>
<text text-anchor="middle" x="713.5" y="-136.3" font-family="Arial" font-size="14.00">Illustrates function of a string telephone</text>
</g>
<!-- n4&#45;&gt;n7 -->
<g id="edge6" class="edge">
<title>n4&#45;&gt;n7</title>
<path fill="none" stroke="black" d="M713.5,-243.81C713.5,-224.11 713.5,-191.58 713.5,-168.39"/>
<polygon fill="black" stroke="black" points="717,-168.16 713.5,-158.16 710,-168.16 717,-168.16"/>
</g>
<!-- n8 -->
<g id="node8" class="node">
<title>n8</title>
<polygon fill="lightcoral" stroke="black" points="1168.5,-158 897.2,-140 1168.5,-122 1439.8,-140 1168.5,-158"/>
<text text-anchor="middle" x="1168.5" y="-136.3" font-family="Arial" font-size="14.00">Occasional omission of details on cup function</text>
</g>
<!-- n4&#45;&gt;n8 -->
<g id="edge7" class="edge">
<title>n4&#45;&gt;n8</title>
<path fill="none" stroke="black" d="M778.21,-243.93C865.76,-220.84 1020.9,-179.93 1106.8,-157.26"/>
<polygon fill="black" stroke="black" points="1107.92,-160.59 1116.7,-154.66 1106.14,-153.81 1107.92,-160.59"/>
</g>
<!-- n9 -->
<g id="node9" class="node">
<title>n9</title>
<polygon fill="#f28e8e" stroke="black" points="1381,-36 956,-36 956,0 1381,0 1381,-36"/>
<text text-anchor="middle" x="1168.5" y="-14.3" font-family="Arial" font-size="14.00">Include more detailed notes on the cup&#39;s role in sound transmission.</text>
</g>
<!-- n8&#45;&gt;n9 -->
<g id="edge8" class="edge">
<title>n8&#45;&gt;n9</title>
<path fill="none" stroke="black" d="M1168.5,-121.81C1168.5,-102.11 1168.5,-69.58 1168.5,-46.39"/>
<polygon fill="black" stroke="black" points="1172,-46.16 1168.5,-36.16 1165,-46.16 1172,-46.16"/>
</g>
</g>
</svg>
