<?xml version="1.0" encoding="UTF-8" standalone="no"?>
<!DOCTYPE svg PUBLIC "-//W3C//DTD SVG 1.1//EN"
 "http://www.w3.org/Graphics/SVG/1.1/DTD/svg11.dtd">
<!-- Generated by graphviz version 2.43.0 (0)
 -->
<!-- Pages: 1 -->
<svg width="981pt" height="532pt"
 viewBox="0.00 0.00 981.00 532.00" xmlns="http://www.w3.org/2000/svg" xmlns:xlink="http://www.w3.org/1999/xlink">
<g id="graph0" class="graph" transform="scale(1 1) rotate(0) translate(4 528)">
<polygon fill="white" stroke="transparent" points="-4,4 -4,-528 977,-528 977,4 -4,4"/>
<!-- n1 -->
<g id="node1" class="node">
<title>n1</title>
<polygon fill="lightblue" stroke="black" points="646.74,-506 553.62,-524 367.38,-524 274.26,-506 367.38,-488 553.62,-488 646.74,-506"/>
<text text-anchor="middle" x="460.5" y="-502.3" font-family="Arial" font-size="14.00">Illustrate plants with and without water.</text>
</g>
<!-- n2 -->
<g id="node2" class="node">
<title>n2</title>
<polygon fill="#fffdd0" stroke="black" points="202,-402 1,-402 1,-366 202,-366 202,-402"/>
<text text-anchor="middle" x="101.5" y="-380.3" font-family="Arial" font-size="14.00">Two potted plants side by side.</text>
</g>
<!-- n1&#45;&gt;n2 -->
<g id="edge1" class="edge">
<title>n1&#45;&gt;n2</title>
<path fill="none" stroke="black" d="M409.45,-487.93C344.18,-466.12 231.34,-428.4 161.88,-405.18"/>
<polygon fill="black" stroke="black" points="162.97,-401.86 152.38,-402.01 160.76,-408.5 162.97,-401.86"/>
</g>
<!-- n3 -->
<g id="node3" class="node">
<title>n3</title>
<polygon fill="#fffdd0" stroke="black" points="468.5,-402 260.5,-402 260.5,-366 468.5,-366 468.5,-402"/>
<text text-anchor="middle" x="364.5" y="-380.3" font-family="Arial" font-size="14.00">First plant: mostly green leaves.</text>
</g>
<!-- n1&#45;&gt;n3 -->
<g id="edge2" class="edge">
<title>n1&#45;&gt;n3</title>
<path fill="none" stroke="black" d="M446.75,-487.81C430.49,-467.49 403.31,-433.51 384.67,-410.21"/>
<polygon fill="black" stroke="black" points="387.21,-407.78 378.23,-402.16 381.74,-412.16 387.21,-407.78"/>
</g>
<!-- n4 -->
<g id="node4" class="node">
<title>n4</title>
<polygon fill="#fffdd0" stroke="black" points="973,-402 644,-402 644,-366 973,-366 973,-402"/>
<text text-anchor="middle" x="808.5" y="-380.3" font-family="Arial" font-size="14.00">Second plant: wilted with drooping, brownish leaves.</text>
</g>
<!-- n1&#45;&gt;n4 -->
<g id="edge3" class="edge">
<title>n1&#45;&gt;n4</title>
<path fill="none" stroke="black" d="M509.99,-487.93C573.13,-466.16 682.19,-428.56 749.55,-405.33"/>
<polygon fill="black" stroke="black" points="750.87,-408.58 759.18,-402.01 748.59,-401.96 750.87,-408.58"/>
</g>
<!-- n5 -->
<g id="node5" class="node">
<title>n5</title>
<polygon fill="#fffdd0" stroke="black" points="641,-280 368,-280 368,-244 641,-244 641,-280"/>
<text text-anchor="middle" x="504.5" y="-258.3" font-family="Arial" font-size="14.00">Both plants in a bright, sunny environment.</text>
</g>
<!-- n1&#45;&gt;n5 -->
<g id="edge4" class="edge">
<title>n1&#45;&gt;n5</title>
<path fill="none" stroke="black" d="M468.39,-487.95C477.26,-467.88 491.23,-433.3 497.5,-402 505.12,-363.93 505.93,-318.9 505.48,-290.63"/>
<polygon fill="black" stroke="black" points="508.97,-290.24 505.25,-280.32 501.97,-290.4 508.97,-290.24"/>
</g>
<!-- n6 -->
<g id="node6" class="node">
<title>n6</title>
<path fill="palegreen" stroke="black" d="M245,-280C245,-280 12,-280 12,-280 6,-280 0,-274 0,-268 0,-268 0,-256 0,-256 0,-250 6,-244 12,-244 12,-244 245,-244 245,-244 251,-244 257,-250 257,-256 257,-256 257,-268 257,-268 257,-274 251,-280 245,-280"/>
<text text-anchor="middle" x="128.5" y="-258.3" font-family="Arial" font-size="14.00">Plants are healthy and green with water.</text>
</g>
<!-- n2&#45;&gt;n6 -->
<g id="edge5" class="edge">
<title>n2&#45;&gt;n6</title>
<path fill="none" stroke="black" d="M105.37,-365.81C109.82,-346.02 117.19,-313.29 122.41,-290.08"/>
<polygon fill="black" stroke="black" points="125.86,-290.68 124.64,-280.16 119.03,-289.15 125.86,-290.68"/>
</g>
<!-- n3&#45;&gt;n5 -->
<g id="edge6" class="edge">
<title>n3&#45;&gt;n5</title>
<path fill="none" stroke="black" d="M384.56,-365.81C408.78,-345.04 449.65,-310.01 476.85,-286.7"/>
<polygon fill="black" stroke="black" points="479.17,-289.33 484.48,-280.16 474.61,-284.01 479.17,-289.33"/>
</g>
<!-- n3&#45;&gt;n6 -->
<g id="edge7" class="edge">
<title>n3&#45;&gt;n6</title>
<path fill="none" stroke="black" d="M330.94,-365.93C288.91,-344.57 216.88,-307.94 171.03,-284.63"/>
<polygon fill="black" stroke="black" points="172.45,-281.43 161.95,-280.01 169.28,-287.66 172.45,-281.43"/>
</g>
<!-- n7 -->
<g id="node7" class="node">
<title>n7</title>
<path fill="palegreen" stroke="black" d="M878.5,-280C878.5,-280 738.5,-280 738.5,-280 732.5,-280 726.5,-274 726.5,-268 726.5,-268 726.5,-256 726.5,-256 726.5,-250 732.5,-244 738.5,-244 738.5,-244 878.5,-244 878.5,-244 884.5,-244 890.5,-250 890.5,-256 890.5,-256 890.5,-268 890.5,-268 890.5,-274 884.5,-280 878.5,-280"/>
<text text-anchor="middle" x="808.5" y="-258.3" font-family="Arial" font-size="14.00">Plants wilt without water.</text>
</g>
<!-- n4&#45;&gt;n7 -->
<g id="edge8" class="edge">
<title>n4&#45;&gt;n7</title>
<path fill="none" stroke="black" d="M808.5,-365.81C808.5,-346.11 808.5,-313.58 808.5,-290.39"/>
<polygon fill="black" stroke="black" points="812,-290.16 808.5,-280.16 805,-290.16 812,-290.16"/>
</g>
<!-- n8 -->
<g id="node8" class="node">
<title>n8</title>
<polygon fill="lightcoral" stroke="black" points="504.5,-158 185.5,-140 504.5,-122 823.5,-140 504.5,-158"/>
<text text-anchor="middle" x="504.5" y="-136.3" font-family="Arial" font-size="14.00">Misunderstanding: Sunlight condition not distinguished.</text>
</g>
<!-- n5&#45;&gt;n8 -->
<g id="edge9" class="edge">
<title>n5&#45;&gt;n8</title>
<path fill="none" stroke="black" d="M504.5,-243.81C504.5,-224.11 504.5,-191.58 504.5,-168.39"/>
<polygon fill="black" stroke="black" points="508,-168.16 504.5,-158.16 501,-168.16 508,-168.16"/>
</g>
<!-- n9 -->
<g id="node9" class="node">
<title>n9</title>
<polygon fill="#f28e8e" stroke="black" points="705,-36 304,-36 304,0 705,0 705,-36"/>
<text text-anchor="middle" x="504.5" y="-14.3" font-family="Arial" font-size="14.00">Suggestions: Show a distinction between sunlight and darkness.</text>
</g>
<!-- n8&#45;&gt;n9 -->
<g id="edge10" class="edge">
<title>n8&#45;&gt;n9</title>
<path fill="none" stroke="black" d="M504.5,-121.81C504.5,-102.11 504.5,-69.58 504.5,-46.39"/>
<polygon fill="black" stroke="black" points="508,-46.16 504.5,-36.16 501,-46.16 508,-46.16"/>
</g>
</g>
</svg>
