<?xml version="1.0" encoding="UTF-8" standalone="no"?>
<!DOCTYPE svg PUBLIC "-//W3C//DTD SVG 1.1//EN"
 "http://www.w3.org/Graphics/SVG/1.1/DTD/svg11.dtd">
<!-- Generated by graphviz version 2.43.0 (0)
 -->
<!-- Pages: 1 -->
<svg width="1136pt" height="410pt"
 viewBox="0.00 0.00 1136.21 410.00" xmlns="http://www.w3.org/2000/svg" xmlns:xlink="http://www.w3.org/1999/xlink">
<g id="graph0" class="graph" transform="scale(1 1) rotate(0) translate(4 406)">
<polygon fill="white" stroke="transparent" points="-4,4 -4,-406 1132.21,-406 1132.21,4 -4,4"/>
<!-- n1 -->
<g id="node1" class="node">
<title>n1</title>
<polygon fill="lightblue" stroke="black" points="599,-384 487.5,-402 264.5,-402 153,-384 264.5,-366 487.5,-366 599,-384"/>
<text text-anchor="middle" x="376" y="-380.3" font-family="Arial" font-size="14.00">Draw a string telephone between two students.</text>
</g>
<!-- n2 -->
<g id="node2" class="node">
<title>n2</title>
<polygon fill="#fffdd0" stroke="black" points="220,-280 56,-280 56,-244 220,-244 220,-280"/>
<text text-anchor="middle" x="138" y="-258.3" font-family="Arial" font-size="14.00">Two stick figure students</text>
</g>
<!-- n1&#45;&gt;n2 -->
<g id="edge1" class="edge">
<title>n1&#45;&gt;n2</title>
<path fill="none" stroke="black" d="M342.15,-365.93C299.77,-344.57 227.13,-307.94 180.89,-284.63"/>
<polygon fill="black" stroke="black" points="182.23,-281.39 171.73,-280.01 179.08,-287.64 182.23,-281.39"/>
</g>
<!-- n3 -->
<g id="node3" class="node">
<title>n3</title>
<polygon fill="#fffdd0" stroke="black" points="454.5,-280 297.5,-280 297.5,-244 454.5,-244 454.5,-280"/>
<text text-anchor="middle" x="376" y="-258.3" font-family="Arial" font-size="14.00">Cups as open cylinders</text>
</g>
<!-- n1&#45;&gt;n3 -->
<g id="edge2" class="edge">
<title>n1&#45;&gt;n3</title>
<path fill="none" stroke="black" d="M376,-365.81C376,-346.11 376,-313.58 376,-290.39"/>
<polygon fill="black" stroke="black" points="379.5,-290.16 376,-280.16 372.5,-290.16 379.5,-290.16"/>
</g>
<!-- n4 -->
<g id="node4" class="node">
<title>n4</title>
<polygon fill="#fffdd0" stroke="black" points="696.5,-280 553.5,-280 553.5,-244 696.5,-244 696.5,-280"/>
<text text-anchor="middle" x="625" y="-258.3" font-family="Arial" font-size="14.00">Straight line as string</text>
</g>
<!-- n1&#45;&gt;n4 -->
<g id="edge3" class="edge">
<title>n1&#45;&gt;n4</title>
<path fill="none" stroke="black" d="M411.41,-365.93C455.85,-344.52 532.07,-307.78 580.43,-284.48"/>
<polygon fill="black" stroke="black" points="582.22,-287.5 589.71,-280.01 579.18,-281.2 582.22,-287.5"/>
</g>
<!-- n5 -->
<g id="node5" class="node">
<title>n5</title>
<path fill="palegreen" stroke="black" d="M224,-158C224,-158 12,-158 12,-158 6,-158 0,-152 0,-146 0,-146 0,-134 0,-134 0,-128 6,-122 12,-122 12,-122 224,-122 224,-122 230,-122 236,-128 236,-134 236,-134 236,-146 236,-146 236,-152 230,-158 224,-158"/>
<text text-anchor="middle" x="118" y="-136.3" font-family="Arial" font-size="14.00">Emphasizes communication attempt</text>
</g>
<!-- n2&#45;&gt;n5 -->
<g id="edge4" class="edge">
<title>n2&#45;&gt;n5</title>
<path fill="none" stroke="black" d="M135.13,-243.81C131.84,-224.02 126.38,-191.29 122.51,-168.08"/>
<polygon fill="black" stroke="black" points="125.95,-167.45 120.86,-158.16 119.05,-168.6 125.95,-167.45"/>
</g>
<!-- n6 -->
<g id="node6" class="node">
<title>n6</title>
<path fill="palegreen" stroke="black" d="M446,-158C446,-158 306,-158 306,-158 300,-158 294,-152 294,-146 294,-146 294,-134 294,-134 294,-128 300,-122 306,-122 306,-122 446,-122 446,-122 452,-122 458,-128 458,-134 458,-134 458,-146 458,-146 458,-152 452,-158 446,-158"/>
<text text-anchor="middle" x="376" y="-136.3" font-family="Arial" font-size="14.00">Correct material labeling</text>
</g>
<!-- n3&#45;&gt;n6 -->
<g id="edge5" class="edge">
<title>n3&#45;&gt;n6</title>
<path fill="none" stroke="black" d="M376,-243.81C376,-224.11 376,-191.58 376,-168.39"/>
<polygon fill="black" stroke="black" points="379.5,-168.16 376,-158.16 372.5,-168.16 379.5,-168.16"/>
</g>
<!-- n7 -->
<g id="node7" class="node">
<title>n7</title>
<path fill="palegreen" stroke="black" d="M722,-158C722,-158 528,-158 528,-158 522,-158 516,-152 516,-146 516,-146 516,-134 516,-134 516,-128 522,-122 528,-122 528,-122 722,-122 722,-122 728,-122 734,-128 734,-134 734,-134 734,-146 734,-146 734,-152 728,-158 722,-158"/>
<text text-anchor="middle" x="625" y="-136.3" font-family="Arial" font-size="14.00">Depicts usage for communication</text>
</g>
<!-- n4&#45;&gt;n7 -->
<g id="edge6" class="edge">
<title>n4&#45;&gt;n7</title>
<path fill="none" stroke="black" d="M625,-243.81C625,-224.11 625,-191.58 625,-168.39"/>
<polygon fill="black" stroke="black" points="628.5,-168.16 625,-158.16 621.5,-168.16 628.5,-168.16"/>
</g>
<!-- n8 -->
<g id="node8" class="node">
<title>n8</title>
<polygon fill="lightcoral" stroke="black" points="960,-158 791.59,-140 960,-122 1128.41,-140 960,-158"/>
<text text-anchor="middle" x="960" y="-136.3" font-family="Arial" font-size="14.00">Does not show sound travel</text>
</g>
<!-- n4&#45;&gt;n8 -->
<g id="edge7" class="edge">
<title>n4&#45;&gt;n8</title>
<path fill="none" stroke="black" d="M672.64,-243.93C736.77,-220.96 850.12,-180.36 913.6,-157.62"/>
<polygon fill="black" stroke="black" points="915.11,-160.8 923.35,-154.13 912.76,-154.2 915.11,-160.8"/>
</g>
<!-- n9 -->
<g id="node9" class="node">
<title>n9</title>
<polygon fill="#f28e8e" stroke="black" points="1093,-36 827,-36 827,0 1093,0 1093,-36"/>
<text text-anchor="middle" x="960" y="-14.3" font-family="Arial" font-size="14.00">Add sound waves to indicate sound travel</text>
</g>
<!-- n8&#45;&gt;n9 -->
<g id="edge8" class="edge">
<title>n8&#45;&gt;n9</title>
<path fill="none" stroke="black" d="M960,-121.81C960,-102.11 960,-69.58 960,-46.39"/>
<polygon fill="black" stroke="black" points="963.5,-46.16 960,-36.16 956.5,-46.16 963.5,-46.16"/>
</g>
</g>
</svg>
