<?xml version="1.0" encoding="UTF-8" standalone="no"?>
<!DOCTYPE svg PUBLIC "-//W3C//DTD SVG 1.1//EN"
 "http://www.w3.org/Graphics/SVG/1.1/DTD/svg11.dtd">
<!-- Generated by graphviz version 2.43.0 (0)
 -->
<!-- Pages: 1 -->
<svg width="1813pt" height="288pt"
 viewBox="0.00 0.00 1812.50 288.00" xmlns="http://www.w3.org/2000/svg" xmlns:xlink="http://www.w3.org/1999/xlink">
<g id="graph0" class="graph" transform="scale(1 1) rotate(0) translate(4 284)">
<polygon fill="white" stroke="transparent" points="-4,4 -4,-284 1808.5,-284 1808.5,4 -4,4"/>
<!-- n1 -->
<g id="node1" class="node">
<title>n1</title>
<polygon fill="lightblue" stroke="black" points="1081.82,-262 959.41,-280 714.59,-280 592.18,-262 714.59,-244 959.41,-244 1081.82,-262"/>
<text text-anchor="middle" x="837" y="-258.3" font-family="Arial" font-size="14.00">Draw a habitat and the different living things in each</text>
</g>
<!-- n2 -->
<g id="node2" class="node">
<title>n2</title>
<polygon fill="#fffdd0" stroke="black" points="461,-158 157,-158 157,-122 461,-122 461,-158"/>
<text text-anchor="middle" x="309" y="-136.3" font-family="Arial" font-size="14.00">Land habitat with playground, grass, trees, bush</text>
</g>
<!-- n1&#45;&gt;n2 -->
<g id="edge1" class="edge">
<title>n1&#45;&gt;n2</title>
<path fill="none" stroke="black" d="M762.19,-244C665,-221.91 495.75,-183.44 393.87,-160.29"/>
<polygon fill="black" stroke="black" points="394.45,-156.83 383.92,-158.03 392.9,-163.66 394.45,-156.83"/>
</g>
<!-- n3 -->
<g id="node3" class="node">
<title>n3</title>
<polygon fill="#fffdd0" stroke="black" points="825,-158 561,-158 561,-122 825,-122 825,-158"/>
<text text-anchor="middle" x="693" y="-136.3" font-family="Arial" font-size="14.00">Water habitat with pond, lily pads, cattails</text>
</g>
<!-- n1&#45;&gt;n3 -->
<g id="edge2" class="edge">
<title>n1&#45;&gt;n3</title>
<path fill="none" stroke="black" d="M816.37,-243.81C791.45,-223.04 749.41,-188.01 721.44,-164.7"/>
<polygon fill="black" stroke="black" points="723.51,-161.87 713.59,-158.16 719.03,-167.25 723.51,-161.87"/>
</g>
<!-- n6 -->
<g id="node4" class="node">
<title>n6</title>
<polygon fill="#fffdd0" stroke="black" points="1193.5,-158 998.5,-158 998.5,-122 1193.5,-122 1193.5,-158"/>
<text text-anchor="middle" x="1096" y="-136.3" font-family="Arial" font-size="14.00">Frogs present in both habitats</text>
</g>
<!-- n1&#45;&gt;n6 -->
<g id="edge3" class="edge">
<title>n1&#45;&gt;n6</title>
<path fill="none" stroke="black" d="M873.83,-243.93C920.15,-222.48 999.67,-185.63 1050,-162.33"/>
<polygon fill="black" stroke="black" points="1051.71,-165.4 1059.3,-158.01 1048.76,-159.05 1051.71,-165.4"/>
</g>
<!-- n8 -->
<g id="node5" class="node">
<title>n8</title>
<polygon fill="#fffdd0" stroke="black" points="1695.5,-158 1412.5,-158 1412.5,-122 1695.5,-122 1695.5,-158"/>
<text text-anchor="middle" x="1554" y="-136.3" font-family="Arial" font-size="14.00">Uses labeling for specific plants and animals</text>
</g>
<!-- n1&#45;&gt;n8 -->
<g id="edge4" class="edge">
<title>n1&#45;&gt;n8</title>
<path fill="none" stroke="black" d="M938.59,-244C1071.6,-221.73 1304.1,-182.82 1442.1,-159.73"/>
<polygon fill="black" stroke="black" points="1443.01,-163.13 1452.3,-158.03 1441.86,-156.22 1443.01,-163.13"/>
</g>
<!-- n4 -->
<g id="node6" class="node">
<title>n4</title>
<path fill="palegreen" stroke="black" d="M406,-36C406,-36 12,-36 12,-36 6,-36 0,-30 0,-24 0,-24 0,-12 0,-12 0,-6 6,0 12,0 12,0 406,0 406,0 412,0 418,-6 418,-12 418,-12 418,-24 418,-24 418,-30 412,-36 406,-36"/>
<text text-anchor="middle" x="209" y="-14.3" font-family="Arial" font-size="14.00">Robin, Squirrel, Flowers, Butterflies: correctly placed in land habitat</text>
</g>
<!-- n2&#45;&gt;n4 -->
<g id="edge5" class="edge">
<title>n2&#45;&gt;n4</title>
<path fill="none" stroke="black" d="M294.67,-121.81C277.67,-101.4 249.18,-67.21 229.76,-43.91"/>
<polygon fill="black" stroke="black" points="232.39,-41.6 223.3,-36.16 227.02,-46.08 232.39,-41.6"/>
</g>
<!-- n5 -->
<g id="node7" class="node">
<title>n5</title>
<path fill="palegreen" stroke="black" d="M784,-36C784,-36 488,-36 488,-36 482,-36 476,-30 476,-24 476,-24 476,-12 476,-12 476,-6 482,0 488,0 488,0 784,0 784,0 790,0 796,-6 796,-12 796,-12 796,-24 796,-24 796,-30 790,-36 784,-36"/>
<text text-anchor="middle" x="636" y="-14.3" font-family="Arial" font-size="14.00">Frogs, Fish, Duck: correctly placed in water habitat</text>
</g>
<!-- n3&#45;&gt;n5 -->
<g id="edge6" class="edge">
<title>n3&#45;&gt;n5</title>
<path fill="none" stroke="black" d="M684.83,-121.81C675.35,-101.85 659.61,-68.7 648.56,-45.45"/>
<polygon fill="black" stroke="black" points="651.6,-43.69 644.15,-36.16 645.28,-46.7 651.6,-43.69"/>
</g>
<!-- n7 -->
<g id="node8" class="node">
<title>n7</title>
<path fill="palegreen" stroke="black" d="M1441.5,-36C1441.5,-36 866.5,-36 866.5,-36 860.5,-36 854.5,-30 854.5,-24 854.5,-24 854.5,-12 854.5,-12 854.5,-6 860.5,0 866.5,0 866.5,0 1441.5,0 1441.5,0 1447.5,0 1453.5,-6 1453.5,-12 1453.5,-12 1453.5,-24 1453.5,-24 1453.5,-30 1447.5,-36 1441.5,-36"/>
<text text-anchor="middle" x="1154" y="-14.3" font-family="Arial" font-size="14.00">Placement of frogs in both habitats shows understanding that animals can live in multiple habitats</text>
</g>
<!-- n6&#45;&gt;n7 -->
<g id="edge7" class="edge">
<title>n6&#45;&gt;n7</title>
<path fill="none" stroke="black" d="M1104.3,-121.81C1114,-101.85 1130,-68.7 1141.2,-45.45"/>
<polygon fill="black" stroke="black" points="1144.49,-46.69 1145.7,-36.16 1138.19,-43.63 1144.49,-46.69"/>
</g>
<!-- n9 -->
<g id="node9" class="node">
<title>n9</title>
<path fill="palegreen" stroke="black" d="M1792.5,-36C1792.5,-36 1523.5,-36 1523.5,-36 1517.5,-36 1511.5,-30 1511.5,-24 1511.5,-24 1511.5,-12 1511.5,-12 1511.5,-6 1517.5,0 1523.5,0 1523.5,0 1792.5,0 1792.5,0 1798.5,0 1804.5,-6 1804.5,-12 1804.5,-12 1804.5,-24 1804.5,-24 1804.5,-30 1798.5,-36 1792.5,-36"/>
<text text-anchor="middle" x="1658" y="-14.3" font-family="Arial" font-size="14.00">Accurate recording of plant and animal names</text>
</g>
<!-- n8&#45;&gt;n9 -->
<g id="edge8" class="edge">
<title>n8&#45;&gt;n9</title>
<path fill="none" stroke="black" d="M1568.9,-121.81C1586.6,-101.4 1616.2,-67.21 1636.4,-43.91"/>
<polygon fill="black" stroke="black" points="1639.21,-46.01 1643.1,-36.16 1633.91,-41.44 1639.21,-46.01"/>
</g>
</g>
</svg>
