<?xml version="1.0" encoding="UTF-8" standalone="no"?>
<!DOCTYPE svg PUBLIC "-//W3C//DTD SVG 1.1//EN"
 "http://www.w3.org/Graphics/SVG/1.1/DTD/svg11.dtd">
<!-- Generated by graphviz version 2.43.0 (0)
 -->
<!-- Pages: 1 -->
<svg width="4070pt" height="288pt"
 viewBox="0.00 0.00 4070.00 288.00" xmlns="http://www.w3.org/2000/svg" xmlns:xlink="http://www.w3.org/1999/xlink">
<g id="graph0" class="graph" transform="scale(1 1) rotate(0) translate(4 284)">
<polygon fill="white" stroke="transparent" points="-4,4 -4,-284 4066,-284 4066,4 -4,4"/>
<!-- n1 -->
<g id="node1" class="node">
<title>n1</title>
<polygon fill="lightblue" stroke="black" points="1784.5,-262 1673,-280 1450,-280 1338.5,-262 1450,-244 1673,-244 1784.5,-262"/>
<text text-anchor="middle" x="1561.5" y="-258.3" font-family="Arial" font-size="14.00">Draw a string telephone between two students.</text>
</g>
<!-- n2 -->
<g id="node2" class="node">
<title>n2</title>
<polygon fill="#fffdd0" stroke="black" points="710.5,-158 410.5,-158 410.5,-122 710.5,-122 710.5,-158"/>
<text text-anchor="middle" x="560.5" y="-136.3" font-family="Arial" font-size="14.00">Two stick figures with non&#45;corresponding colors</text>
</g>
<!-- n1&#45;&gt;n2 -->
<g id="edge1" class="edge">
<title>n1&#45;&gt;n2</title>
<path fill="none" stroke="black" d="M1437,-246.07C1253.6,-224.09 911.07,-183.03 712.88,-159.27"/>
<polygon fill="black" stroke="black" points="713.02,-155.76 702.67,-158.04 712.18,-162.71 713.02,-155.76"/>
</g>
<!-- n3 -->
<g id="node3" class="node">
<title>n3</title>
<polygon fill="#fffdd0" stroke="black" points="1393.5,-158 1195.5,-158 1195.5,-122 1393.5,-122 1393.5,-158"/>
<text text-anchor="middle" x="1294.5" y="-136.3" font-family="Arial" font-size="14.00">String not connecting the cups</text>
</g>
<!-- n1&#45;&gt;n3 -->
<g id="edge2" class="edge">
<title>n1&#45;&gt;n3</title>
<path fill="none" stroke="black" d="M1523.5,-243.93C1475.7,-222.43 1393.5,-185.48 1341.6,-162.19"/>
<polygon fill="black" stroke="black" points="1342.86,-158.92 1332.3,-158.01 1339.99,-165.3 1342.86,-158.92"/>
</g>
<!-- n4 -->
<g id="node4" class="node">
<title>n4</title>
<polygon fill="#fffdd0" stroke="black" points="1997,-158 1662,-158 1662,-122 1997,-122 1997,-158"/>
<text text-anchor="middle" x="1829.5" y="-136.3" font-family="Arial" font-size="14.00">Cups with lines representing string very close to cups</text>
</g>
<!-- n1&#45;&gt;n4 -->
<g id="edge3" class="edge">
<title>n1&#45;&gt;n4</title>
<path fill="none" stroke="black" d="M1599.6,-243.93C1647.6,-222.43 1730.2,-185.48 1782.2,-162.19"/>
<polygon fill="black" stroke="black" points="1783.81,-165.3 1791.5,-158.01 1780.94,-158.92 1783.81,-165.3"/>
</g>
<!-- n5 -->
<g id="node5" class="node">
<title>n5</title>
<polygon fill="#fffdd0" stroke="black" points="3289.5,-158 3057.5,-158 3057.5,-122 3289.5,-122 3289.5,-158"/>
<text text-anchor="middle" x="3173.5" y="-136.3" font-family="Arial" font-size="14.00">Simplistic style and unrelated colors</text>
</g>
<!-- n1&#45;&gt;n5 -->
<g id="edge4" class="edge">
<title>n1&#45;&gt;n5</title>
<path fill="none" stroke="black" d="M1709.9,-249.95C2024.3,-226.54 2752.9,-172.31 3047,-150.42"/>
<polygon fill="black" stroke="black" points="3047.59,-153.89 3057.3,-149.65 3047.07,-146.91 3047.59,-153.89"/>
</g>
<!-- n6 -->
<g id="node6" class="node">
<title>n6</title>
<path fill="palegreen" stroke="black" d="M253,-36C253,-36 12,-36 12,-36 6,-36 0,-30 0,-24 0,-24 0,-12 0,-12 0,-6 6,0 12,0 12,0 253,0 253,0 259,0 265,-6 265,-12 265,-12 265,-24 265,-24 265,-30 259,-36 253,-36"/>
<text text-anchor="middle" x="132.5" y="-14.3" font-family="Arial" font-size="14.00">Basic understanding of a string telephone</text>
</g>
<!-- n2&#45;&gt;n6 -->
<g id="edge5" class="edge">
<title>n2&#45;&gt;n6</title>
<path fill="none" stroke="black" d="M499.63,-121.93C421.35,-99.98 285.65,-61.94 202.97,-38.76"/>
<polygon fill="black" stroke="black" points="203.73,-35.34 193.16,-36.01 201.84,-42.08 203.73,-35.34"/>
</g>
<!-- n7 -->
<g id="node7" class="node">
<title>n7</title>
<polygon fill="lightcoral" stroke="black" points="677.5,-36 322.5,-18 677.5,0 1032.5,-18 677.5,-36"/>
<text text-anchor="middle" x="677.5" y="-14.3" font-family="Arial" font-size="14.00">Lack of understanding of connecting string for communication</text>
</g>
<!-- n3&#45;&gt;n7 -->
<g id="edge6" class="edge">
<title>n3&#45;&gt;n7</title>
<path fill="none" stroke="black" d="M1207.1,-122C1086.9,-98.63 872.47,-56.92 756.76,-34.41"/>
<polygon fill="black" stroke="black" points="757.37,-30.97 746.89,-32.5 756.04,-37.84 757.37,-30.97"/>
</g>
<!-- n11 -->
<g id="node8" class="node">
<title>n11</title>
<polygon fill="#f28e8e" stroke="black" points="1499,-36 1090,-36 1090,0 1499,0 1499,-36"/>
<text text-anchor="middle" x="1294.5" y="-14.3" font-family="Arial" font-size="14.00">Ensure the string connects cups to show communication pathway</text>
</g>
<!-- n3&#45;&gt;n11 -->
<g id="edge7" class="edge">
<title>n3&#45;&gt;n11</title>
<path fill="none" stroke="black" d="M1294.5,-121.81C1294.5,-102.11 1294.5,-69.58 1294.5,-46.39"/>
<polygon fill="black" stroke="black" points="1298,-46.16 1294.5,-36.16 1291,-46.16 1298,-46.16"/>
</g>
<!-- n8 -->
<g id="node9" class="node">
<title>n8</title>
<polygon fill="lightcoral" stroke="black" points="1829.5,-36 1556.5,-18 1829.5,0 2102.5,-18 1829.5,-36"/>
<text text-anchor="middle" x="1829.5" y="-14.3" font-family="Arial" font-size="14.00">Need for sound travel element and explanation</text>
</g>
<!-- n4&#45;&gt;n8 -->
<g id="edge8" class="edge">
<title>n4&#45;&gt;n8</title>
<path fill="none" stroke="black" d="M1829.5,-121.81C1829.5,-102.11 1829.5,-69.58 1829.5,-46.39"/>
<polygon fill="black" stroke="black" points="1833,-46.16 1829.5,-36.16 1826,-46.16 1833,-46.16"/>
</g>
<!-- n12 -->
<g id="node10" class="node">
<title>n12</title>
<polygon fill="#f28e8e" stroke="black" points="2485,-36 2160,-36 2160,0 2485,0 2485,-36"/>
<text text-anchor="middle" x="2322.5" y="-14.3" font-family="Arial" font-size="14.00">Include labels or arrows showing how sound travels</text>
</g>
<!-- n4&#45;&gt;n12 -->
<g id="edge9" class="edge">
<title>n4&#45;&gt;n12</title>
<path fill="none" stroke="black" d="M1899.4,-122C1989.9,-99.95 2147.5,-61.6 2242.7,-38.43"/>
<polygon fill="black" stroke="black" points="2243.62,-41.81 2252.5,-36.03 2241.95,-35.01 2243.62,-41.81"/>
</g>
<!-- n9 -->
<g id="node11" class="node">
<title>n9</title>
<polygon fill="lightcoral" stroke="black" points="2900.5,-36 2542.9,-18 2900.5,0 3258.1,-18 2900.5,-36"/>
<text text-anchor="middle" x="2900.5" y="-14.3" font-family="Arial" font-size="14.00">No setting or scenario indicating long&#45;distance communication</text>
</g>
<!-- n5&#45;&gt;n9 -->
<g id="edge10" class="edge">
<title>n5&#45;&gt;n9</title>
<path fill="none" stroke="black" d="M3134.7,-121.93C3084.5,-99.88 2997.4,-61.58 2944.7,-38.44"/>
<polygon fill="black" stroke="black" points="2945.86,-35.12 2935.3,-34.3 2943.04,-41.53 2945.86,-35.12"/>
</g>
<!-- n10 -->
<g id="node12" class="node">
<title>n10</title>
<polygon fill="#f28e8e" stroke="black" points="3577,-36 3316,-36 3316,0 3577,0 3577,-36"/>
<text text-anchor="middle" x="3446.5" y="-14.3" font-family="Arial" font-size="14.00">Use correct colors to differentiate objects</text>
</g>
<!-- n5&#45;&gt;n10 -->
<g id="edge11" class="edge">
<title>n5&#45;&gt;n10</title>
<path fill="none" stroke="black" d="M3212.3,-121.93C3261.3,-100.39 3345.7,-63.33 3398.6,-40.05"/>
<polygon fill="black" stroke="black" points="3400.05,-43.23 3407.8,-36.01 3397.24,-36.82 3400.05,-43.23"/>
</g>
<!-- n13 -->
<g id="node13" class="node">
<title>n13</title>
<polygon fill="#f28e8e" stroke="black" points="4062,-36 3635,-36 3635,0 4062,0 4062,-36"/>
<text text-anchor="middle" x="3848.5" y="-14.3" font-family="Arial" font-size="14.00">Add a background or setting to convey long&#45;distance communication</text>
</g>
<!-- n5&#45;&gt;n13 -->
<g id="edge12" class="edge">
<title>n5&#45;&gt;n13</title>
<path fill="none" stroke="black" d="M3269.1,-122C3394.3,-99.75 3612.8,-60.9 3742.8,-37.8"/>
<polygon fill="black" stroke="black" points="3743.47,-41.23 3752.7,-36.03 3742.24,-34.34 3743.47,-41.23"/>
</g>
</g>
</svg>
