<?xml version="1.0" encoding="UTF-8" standalone="no"?>
<!DOCTYPE svg PUBLIC "-//W3C//DTD SVG 1.1//EN"
 "http://www.w3.org/Graphics/SVG/1.1/DTD/svg11.dtd">
<!-- Generated by graphviz version 2.43.0 (0)
 -->
<!-- Pages: 1 -->
<svg width="2092pt" height="288pt"
 viewBox="0.00 0.00 2092.00 288.00" xmlns="http://www.w3.org/2000/svg" xmlns:xlink="http://www.w3.org/1999/xlink">
<g id="graph0" class="graph" transform="scale(1 1) rotate(0) translate(4 284)">
<polygon fill="white" stroke="transparent" points="-4,4 -4,-284 2088,-284 2088,4 -4,4"/>
<!-- n1 -->
<g id="node1" class="node">
<title>n1</title>
<polygon fill="lightblue" stroke="black" points="1298.5,-262 1188.5,-280 968.5,-280 858.5,-262 968.5,-244 1188.5,-244 1298.5,-262"/>
<text text-anchor="middle" x="1078.5" y="-258.3" font-family="Arial" font-size="14.00">Draw a string telephone between two students</text>
</g>
<!-- n2 -->
<g id="node2" class="node">
<title>n2</title>
<polygon fill="#fffdd0" stroke="black" points="446.5,-158 228.5,-158 228.5,-122 446.5,-122 446.5,-158"/>
<text text-anchor="middle" x="337.5" y="-136.3" font-family="Arial" font-size="14.00">Stick&#45;figure students holding cups</text>
</g>
<!-- n1&#45;&gt;n2 -->
<g id="edge1" class="edge">
<title>n1&#45;&gt;n2</title>
<path fill="none" stroke="black" d="M973.51,-244C835.88,-221.71 595.26,-182.74 452.73,-159.66"/>
<polygon fill="black" stroke="black" points="453.07,-156.17 442.64,-158.03 451.95,-163.08 453.07,-156.17"/>
</g>
<!-- n4 -->
<g id="node3" class="node">
<title>n4</title>
<polygon fill="#fffdd0" stroke="black" points="782.5,-158 584.5,-158 584.5,-122 782.5,-122 782.5,-158"/>
<text text-anchor="middle" x="683.5" y="-136.3" font-family="Arial" font-size="14.00">Solid line representing a string</text>
</g>
<!-- n1&#45;&gt;n4 -->
<g id="edge2" class="edge">
<title>n1&#45;&gt;n4</title>
<path fill="none" stroke="black" d="M1022.3,-243.93C950.37,-222.07 825.86,-184.25 749.47,-161.04"/>
<polygon fill="black" stroke="black" points="750.07,-157.56 739.48,-158.01 748.03,-164.26 750.07,-157.56"/>
</g>
<!-- n6 -->
<g id="node4" class="node">
<title>n6</title>
<polygon fill="#fffdd0" stroke="black" points="1223.5,-158 933.5,-158 933.5,-122 1223.5,-122 1223.5,-158"/>
<text text-anchor="middle" x="1078.5" y="-136.3" font-family="Arial" font-size="14.00">Wavy lines or vibration marks along the string</text>
</g>
<!-- n1&#45;&gt;n6 -->
<g id="edge3" class="edge">
<title>n1&#45;&gt;n6</title>
<path fill="none" stroke="black" d="M1078.5,-243.81C1078.5,-224.11 1078.5,-191.58 1078.5,-168.39"/>
<polygon fill="black" stroke="black" points="1082,-168.16 1078.5,-158.16 1075,-168.16 1082,-168.16"/>
</g>
<!-- n8 -->
<g id="node5" class="node">
<title>n8</title>
<polygon fill="#fffdd0" stroke="black" points="1727.5,-158 1319.5,-158 1319.5,-122 1727.5,-122 1727.5,-158"/>
<text text-anchor="middle" x="1523.5" y="-136.3" font-family="Arial" font-size="14.00">Labels and notes explaining sound vibrations and communication</text>
</g>
<!-- n1&#45;&gt;n8 -->
<g id="edge4" class="edge">
<title>n1&#45;&gt;n8</title>
<path fill="none" stroke="black" d="M1141.8,-243.93C1223.3,-221.94 1364.8,-183.78 1450.8,-160.62"/>
<polygon fill="black" stroke="black" points="1451.67,-164.01 1460.4,-158.01 1449.83,-157.26 1451.67,-164.01"/>
</g>
<!-- n10 -->
<g id="node6" class="node">
<title>n10</title>
<polygon fill="#fffdd0" stroke="black" points="2026.5,-158 1816.5,-158 1816.5,-122 2026.5,-122 2026.5,-158"/>
<text text-anchor="middle" x="1921.5" y="-136.3" font-family="Arial" font-size="14.00">Imperfectly curved sound waves</text>
</g>
<!-- n1&#45;&gt;n10 -->
<g id="edge5" class="edge">
<title>n1&#45;&gt;n10</title>
<path fill="none" stroke="black" d="M1193.1,-244.69C1354,-221.78 1645.4,-180.31 1806.5,-157.37"/>
<polygon fill="black" stroke="black" points="1807.09,-160.82 1816.5,-155.95 1806.11,-153.89 1807.09,-160.82"/>
</g>
<!-- n3 -->
<g id="node7" class="node">
<title>n3</title>
<path fill="palegreen" stroke="black" d="M317,-36C317,-36 12,-36 12,-36 6,-36 0,-30 0,-24 0,-24 0,-12 0,-12 0,-6 6,0 12,0 12,0 317,0 317,0 323,0 329,-6 329,-12 329,-12 329,-24 329,-24 329,-30 323,-36 317,-36"/>
<text text-anchor="middle" x="164.5" y="-14.3" font-family="Arial" font-size="14.00">Two students communicate using a string telephone</text>
</g>
<!-- n2&#45;&gt;n3 -->
<g id="edge6" class="edge">
<title>n2&#45;&gt;n3</title>
<path fill="none" stroke="black" d="M312.71,-121.81C282.52,-100.87 231.41,-65.41 197.8,-42.1"/>
<polygon fill="black" stroke="black" points="199.45,-38.99 189.24,-36.16 195.46,-44.74 199.45,-38.99"/>
</g>
<!-- n5 -->
<g id="node8" class="node">
<title>n5</title>
<path fill="palegreen" stroke="black" d="M782.5,-36C782.5,-36 398.5,-36 398.5,-36 392.5,-36 386.5,-30 386.5,-24 386.5,-24 386.5,-12 386.5,-12 386.5,-6 392.5,0 398.5,0 398.5,0 782.5,0 782.5,0 788.5,0 794.5,-6 794.5,-12 794.5,-12 794.5,-24 794.5,-24 794.5,-30 788.5,-36 782.5,-36"/>
<text text-anchor="middle" x="590.5" y="-14.3" font-family="Arial" font-size="14.00">Draw a string connecting two objects to represent communication</text>
</g>
<!-- n4&#45;&gt;n5 -->
<g id="edge7" class="edge">
<title>n4&#45;&gt;n5</title>
<path fill="none" stroke="black" d="M670.18,-121.81C654.43,-101.49 628.09,-67.51 610.04,-44.22"/>
<polygon fill="black" stroke="black" points="612.69,-41.92 603.8,-36.16 607.16,-46.21 612.69,-41.92"/>
</g>
<!-- n7 -->
<g id="node9" class="node">
<title>n7</title>
<path fill="palegreen" stroke="black" d="M1292,-36C1292,-36 865,-36 865,-36 859,-36 853,-30 853,-24 853,-24 853,-12 853,-12 853,-6 859,0 865,0 865,0 1292,0 1292,0 1298,0 1304,-6 1304,-12 1304,-12 1304,-24 1304,-24 1304,-30 1298,-36 1292,-36"/>
<text text-anchor="middle" x="1078.5" y="-14.3" font-family="Arial" font-size="14.00">Illustrate sound waves or vibrations along the string to show sound travel</text>
</g>
<!-- n6&#45;&gt;n7 -->
<g id="edge8" class="edge">
<title>n6&#45;&gt;n7</title>
<path fill="none" stroke="black" d="M1078.5,-121.81C1078.5,-102.11 1078.5,-69.58 1078.5,-46.39"/>
<polygon fill="black" stroke="black" points="1082,-46.16 1078.5,-36.16 1075,-46.16 1082,-46.16"/>
</g>
<!-- n9 -->
<g id="node10" class="node">
<title>n9</title>
<path fill="palegreen" stroke="black" d="M1751,-36C1751,-36 1374,-36 1374,-36 1368,-36 1362,-30 1362,-24 1362,-24 1362,-12 1362,-12 1362,-6 1368,0 1374,0 1374,0 1751,0 1751,0 1757,0 1763,-6 1763,-12 1763,-12 1763,-24 1763,-24 1763,-30 1757,-36 1751,-36"/>
<text text-anchor="middle" x="1562.5" y="-14.3" font-family="Arial" font-size="14.00">Explain how sound vibrations help communication over distance</text>
</g>
<!-- n8&#45;&gt;n9 -->
<g id="edge9" class="edge">
<title>n8&#45;&gt;n9</title>
<path fill="none" stroke="black" d="M1529.1,-121.81C1535.5,-101.94 1546.3,-68.99 1553.8,-45.76"/>
<polygon fill="black" stroke="black" points="1557.16,-46.75 1556.9,-36.16 1550.5,-44.6 1557.16,-46.75"/>
</g>
<!-- n11 -->
<g id="node11" class="node">
<title>n11</title>
<polygon fill="#f28e8e" stroke="black" points="2084,-36 1821,-36 1821,0 2084,0 2084,-36"/>
<text text-anchor="middle" x="1952.5" y="-14.3" font-family="Arial" font-size="14.00">Minor imperfections in depiction are okay</text>
</g>
<!-- n10&#45;&gt;n11 -->
<g id="edge10" class="edge">
<title>n10&#45;&gt;n11</title>
<path fill="none" stroke="black" d="M1925.9,-121.81C1931.1,-102.02 1939.5,-69.29 1945.5,-46.08"/>
<polygon fill="black" stroke="black" points="1948.95,-46.72 1948.1,-36.16 1942.18,-44.95 1948.95,-46.72"/>
</g>
</g>
</svg>
