<?xml version="1.0" encoding="UTF-8" standalone="no"?>
<!DOCTYPE svg PUBLIC "-//W3C//DTD SVG 1.1//EN"
 "http://www.w3.org/Graphics/SVG/1.1/DTD/svg11.dtd">
<!-- Generated by graphviz version 2.43.0 (0)
 -->
<!-- Pages: 1 -->
<svg width="1168pt" height="410pt"
 viewBox="0.00 0.00 1168.00 410.00" xmlns="http://www.w3.org/2000/svg" xmlns:xlink="http://www.w3.org/1999/xlink">
<g id="graph0" class="graph" transform="scale(1 1) rotate(0) translate(4 406)">
<polygon fill="white" stroke="transparent" points="-4,4 -4,-406 1164,-406 1164,4 -4,4"/>
<!-- n1 -->
<g id="node1" class="node">
<title>n1</title>
<polygon fill="lightblue" stroke="black" points="745,-384 653.75,-402 471.25,-402 380,-384 471.25,-366 653.75,-366 745,-384"/>
<text text-anchor="middle" x="562.5" y="-380.3" font-family="Arial" font-size="14.00">Draw reversible changes (ice melting)</text>
</g>
<!-- n2 -->
<g id="node2" class="node">
<title>n2</title>
<polygon fill="#fffdd0" stroke="black" points="582,-280 223,-280 223,-244 582,-244 582,-280"/>
<text text-anchor="middle" x="402.5" y="-258.3" font-family="Arial" font-size="14.00">Two identical light blue block shapes without sharp edges</text>
</g>
<!-- n1&#45;&gt;n2 -->
<g id="edge1" class="edge">
<title>n1&#45;&gt;n2</title>
<path fill="none" stroke="black" d="M539.58,-365.81C511.78,-344.96 464.79,-309.71 433.7,-286.4"/>
<polygon fill="black" stroke="black" points="435.48,-283.36 425.38,-280.16 431.28,-288.96 435.48,-283.36"/>
</g>
<!-- n3 -->
<g id="node3" class="node">
<title>n3</title>
<polygon fill="#fffdd0" stroke="black" points="879,-280 712,-280 712,-244 879,-244 879,-280"/>
<text text-anchor="middle" x="795.5" y="-258.3" font-family="Arial" font-size="14.00">No arrows or annotations</text>
</g>
<!-- n1&#45;&gt;n3 -->
<g id="edge2" class="edge">
<title>n1&#45;&gt;n3</title>
<path fill="none" stroke="black" d="M595.89,-365.81C637.32,-344.47 708.04,-308.05 753.22,-284.77"/>
<polygon fill="black" stroke="black" points="754.89,-287.85 762.18,-280.16 751.69,-281.62 754.89,-287.85"/>
</g>
<!-- n4 -->
<g id="node4" class="node">
<title>n4</title>
<polygon fill="lightcoral" stroke="black" points="258.5,-158 0,-140 258.5,-122 517,-140 258.5,-158"/>
<text text-anchor="middle" x="258.5" y="-136.3" font-family="Arial" font-size="14.00">No distinct difference between ice and water</text>
</g>
<!-- n2&#45;&gt;n4 -->
<g id="edge3" class="edge">
<title>n2&#45;&gt;n4</title>
<path fill="none" stroke="black" d="M381.87,-243.81C356.53,-222.69 313.48,-186.81 285.52,-163.52"/>
<polygon fill="black" stroke="black" points="287.64,-160.73 277.72,-157.01 283.15,-166.1 287.64,-160.73"/>
</g>
<!-- n5 -->
<g id="node5" class="node">
<title>n5</title>
<polygon fill="lightcoral" stroke="black" points="867.5,-158 575,-140 867.5,-122 1160,-140 867.5,-158"/>
<text text-anchor="middle" x="867.5" y="-136.3" font-family="Arial" font-size="14.00">Confusion with reversible and irreversible changes</text>
</g>
<!-- n3&#45;&gt;n5 -->
<g id="edge4" class="edge">
<title>n3&#45;&gt;n5</title>
<path fill="none" stroke="black" d="M805.82,-243.81C817.97,-223.55 838.27,-189.72 852.24,-166.43"/>
<polygon fill="black" stroke="black" points="855.29,-168.14 857.44,-157.77 849.29,-164.54 855.29,-168.14"/>
</g>
<!-- n7 -->
<g id="node6" class="node">
<title>n7</title>
<polygon fill="#f28e8e" stroke="black" points="372.5,-36 144.5,-36 144.5,0 372.5,0 372.5,-36"/>
<text text-anchor="middle" x="258.5" y="-14.3" font-family="Arial" font-size="14.00">Differentiate between ice and water</text>
</g>
<!-- n4&#45;&gt;n7 -->
<g id="edge5" class="edge">
<title>n4&#45;&gt;n7</title>
<path fill="none" stroke="black" d="M258.5,-121.81C258.5,-102.11 258.5,-69.58 258.5,-46.39"/>
<polygon fill="black" stroke="black" points="262,-46.16 258.5,-36.16 255,-46.16 262,-46.16"/>
</g>
<!-- n6 -->
<g id="node7" class="node">
<title>n6</title>
<polygon fill="#f28e8e" stroke="black" points="1028,-36 707,-36 707,0 1028,0 1028,-36"/>
<text text-anchor="middle" x="867.5" y="-14.3" font-family="Arial" font-size="14.00">Add arrows to show process (melting and freezing)</text>
</g>
<!-- n5&#45;&gt;n6 -->
<g id="edge6" class="edge">
<title>n5&#45;&gt;n6</title>
<path fill="none" stroke="black" d="M867.5,-121.81C867.5,-102.11 867.5,-69.58 867.5,-46.39"/>
<polygon fill="black" stroke="black" points="871,-46.16 867.5,-36.16 864,-46.16 871,-46.16"/>
</g>
</g>
</svg>
