<?xml version="1.0" encoding="UTF-8" standalone="no"?>
<!DOCTYPE svg PUBLIC "-//W3C//DTD SVG 1.1//EN"
 "http://www.w3.org/Graphics/SVG/1.1/DTD/svg11.dtd">
<!-- Generated by graphviz version 2.43.0 (0)
 -->
<!-- Pages: 1 -->
<svg width="1227pt" height="410pt"
 viewBox="0.00 0.00 1227.00 410.00" xmlns="http://www.w3.org/2000/svg" xmlns:xlink="http://www.w3.org/1999/xlink">
<g id="graph0" class="graph" transform="scale(1 1) rotate(0) translate(4 406)">
<polygon fill="white" stroke="transparent" points="-4,4 -4,-406 1223,-406 1223,4 -4,4"/>
<!-- n1 -->
<g id="node1" class="node">
<title>n1</title>
<polygon fill="lightblue" stroke="black" points="887,-384 775.5,-402 552.5,-402 441,-384 552.5,-366 775.5,-366 887,-384"/>
<text text-anchor="middle" x="664" y="-380.3" font-family="Arial" font-size="14.00">Draw a string telephone between two students.</text>
</g>
<!-- n2 -->
<g id="node2" class="node">
<title>n2</title>
<polygon fill="#fffdd0" stroke="black" points="302,-280 34,-280 34,-244 302,-244 302,-280"/>
<text text-anchor="middle" x="168" y="-258.3" font-family="Arial" font-size="14.00">Two stick figure children facing each other</text>
</g>
<!-- n1&#45;&gt;n2 -->
<g id="edge1" class="edge">
<title>n1&#45;&gt;n2</title>
<path fill="none" stroke="black" d="M593.72,-366C502.61,-343.95 344.07,-305.6 248.3,-282.43"/>
<polygon fill="black" stroke="black" points="248.92,-278.98 238.38,-280.03 247.28,-285.78 248.92,-278.98"/>
</g>
<!-- n3 -->
<g id="node3" class="node">
<title>n3</title>
<polygon fill="#fffdd0" stroke="black" points="623.5,-280 360.5,-280 360.5,-244 623.5,-244 623.5,-280"/>
<text text-anchor="middle" x="492" y="-258.3" font-family="Arial" font-size="14.00">Stick figures holding cups to mouths/ears</text>
</g>
<!-- n1&#45;&gt;n3 -->
<g id="edge2" class="edge">
<title>n1&#45;&gt;n3</title>
<path fill="none" stroke="black" d="M639.36,-365.81C609.34,-344.87 558.52,-309.41 525.11,-286.1"/>
<polygon fill="black" stroke="black" points="526.8,-283.01 516.6,-280.16 522.8,-288.75 526.8,-283.01"/>
</g>
<!-- n4 -->
<g id="node4" class="node">
<title>n4</title>
<polygon fill="#fffdd0" stroke="black" points="990.5,-280 681.5,-280 681.5,-244 990.5,-244 990.5,-280"/>
<text text-anchor="middle" x="836" y="-258.3" font-family="Arial" font-size="14.00">A wavy line representing the string between cups</text>
</g>
<!-- n1&#45;&gt;n4 -->
<g id="edge3" class="edge">
<title>n1&#45;&gt;n4</title>
<path fill="none" stroke="black" d="M688.64,-365.81C718.66,-344.87 769.48,-309.41 802.89,-286.1"/>
<polygon fill="black" stroke="black" points="805.2,-288.75 811.4,-280.16 801.2,-283.01 805.2,-288.75"/>
</g>
<!-- n5 -->
<g id="node5" class="node">
<title>n5</title>
<polygon fill="#fffdd0" stroke="black" points="1219,-280 1049,-280 1049,-244 1219,-244 1219,-280"/>
<text text-anchor="middle" x="1134" y="-258.3" font-family="Arial" font-size="14.00">Background is plain white</text>
</g>
<!-- n1&#45;&gt;n5 -->
<g id="edge4" class="edge">
<title>n1&#45;&gt;n5</title>
<path fill="none" stroke="black" d="M730.84,-365.93C817.07,-343.92 966.73,-305.71 1057.4,-282.55"/>
<polygon fill="black" stroke="black" points="1058.57,-285.86 1067.4,-280.01 1056.85,-279.08 1058.57,-285.86"/>
</g>
<!-- n6 -->
<g id="node6" class="node">
<title>n6</title>
<path fill="palegreen" stroke="black" d="M388,-158C388,-158 12,-158 12,-158 6,-158 0,-152 0,-146 0,-146 0,-134 0,-134 0,-128 6,-122 12,-122 12,-122 388,-122 388,-122 394,-122 400,-128 400,-134 400,-134 400,-146 400,-146 400,-152 394,-158 388,-158"/>
<text text-anchor="middle" x="200" y="-136.3" font-family="Arial" font-size="14.00">Understands basic structure: two children and connecting string.</text>
</g>
<!-- n2&#45;&gt;n6 -->
<g id="edge5" class="edge">
<title>n2&#45;&gt;n6</title>
<path fill="none" stroke="black" d="M172.58,-243.81C177.86,-224.02 186.59,-191.29 192.78,-168.08"/>
<polygon fill="black" stroke="black" points="196.23,-168.72 195.42,-158.16 189.47,-166.92 196.23,-168.72"/>
</g>
<!-- n3&#45;&gt;n6 -->
<g id="edge6" class="edge">
<title>n3&#45;&gt;n6</title>
<path fill="none" stroke="black" d="M450.47,-243.93C397.93,-222.34 307.48,-185.17 250.86,-161.9"/>
<polygon fill="black" stroke="black" points="251.96,-158.57 241.38,-158.01 249.3,-165.04 251.96,-158.57"/>
</g>
<!-- n7 -->
<g id="node7" class="node">
<title>n7</title>
<polygon fill="lightcoral" stroke="black" points="836,-158 490.29,-140 836,-122 1181.71,-140 836,-158"/>
<text text-anchor="middle" x="836" y="-136.3" font-family="Arial" font-size="14.00">Does not understand that the string must be taut to function.</text>
</g>
<!-- n4&#45;&gt;n7 -->
<g id="edge7" class="edge">
<title>n4&#45;&gt;n7</title>
<path fill="none" stroke="black" d="M836,-243.81C836,-224.11 836,-191.58 836,-168.39"/>
<polygon fill="black" stroke="black" points="839.5,-168.16 836,-158.16 832.5,-168.16 839.5,-168.16"/>
</g>
<!-- n8 -->
<g id="node8" class="node">
<title>n8</title>
<polygon fill="#f28e8e" stroke="black" points="1083,-36 589,-36 589,0 1083,0 1083,-36"/>
<text text-anchor="middle" x="836" y="-14.3" font-family="Arial" font-size="14.00">Provide explanation about the importance of a taut string in sound transmission.</text>
</g>
<!-- n7&#45;&gt;n8 -->
<g id="edge8" class="edge">
<title>n7&#45;&gt;n8</title>
<path fill="none" stroke="black" d="M836,-121.81C836,-102.11 836,-69.58 836,-46.39"/>
<polygon fill="black" stroke="black" points="839.5,-46.16 836,-36.16 832.5,-46.16 839.5,-46.16"/>
</g>
</g>
</svg>
