<?xml version="1.0" encoding="UTF-8" standalone="no"?>
<!DOCTYPE svg PUBLIC "-//W3C//DTD SVG 1.1//EN"
 "http://www.w3.org/Graphics/SVG/1.1/DTD/svg11.dtd">
<!-- Generated by graphviz version 2.43.0 (0)
 -->
<!-- Pages: 1 -->
<svg width="1192pt" height="410pt"
 viewBox="0.00 0.00 1191.69 410.00" xmlns="http://www.w3.org/2000/svg" xmlns:xlink="http://www.w3.org/1999/xlink">
<g id="graph0" class="graph" transform="scale(1 1) rotate(0) translate(4 406)">
<polygon fill="white" stroke="transparent" points="-4,4 -4,-406 1187.69,-406 1187.69,4 -4,4"/>
<!-- n1 -->
<g id="node1" class="node">
<title>n1</title>
<polygon fill="lightblue" stroke="black" points="570.56,-384 427.87,-402 142.5,-402 -0.19,-384 142.5,-366 427.87,-366 570.56,-384"/>
<text text-anchor="middle" x="285.19" y="-380.3" font-family="Arial" font-size="14.00">Draw animals in their habitats with labels (e.g., fish in water).</text>
</g>
<!-- n2 -->
<g id="node2" class="node">
<title>n2</title>
<polygon fill="#fffdd0" stroke="black" points="250.69,-280 157.69,-280 157.69,-244 250.69,-244 250.69,-280"/>
<text text-anchor="middle" x="204.19" y="-258.3" font-family="Arial" font-size="14.00">Fish in water</text>
</g>
<!-- n1&#45;&gt;n2 -->
<g id="edge1" class="edge">
<title>n1&#45;&gt;n2</title>
<path fill="none" stroke="black" d="M273.58,-365.81C259.93,-345.58 237.13,-311.81 221.41,-288.52"/>
<polygon fill="black" stroke="black" points="224.26,-286.49 215.77,-280.16 218.46,-290.41 224.26,-286.49"/>
</g>
<!-- n3 -->
<g id="node3" class="node">
<title>n3</title>
<polygon fill="#fffdd0" stroke="black" points="495.69,-280 378.69,-280 378.69,-244 495.69,-244 495.69,-280"/>
<text text-anchor="middle" x="437.19" y="-258.3" font-family="Arial" font-size="14.00">Deer next to tree</text>
</g>
<!-- n1&#45;&gt;n3 -->
<g id="edge2" class="edge">
<title>n1&#45;&gt;n3</title>
<path fill="none" stroke="black" d="M306.96,-365.81C333.38,-344.96 378.02,-309.71 407.55,-286.4"/>
<polygon fill="black" stroke="black" points="409.77,-289.1 415.45,-280.16 405.43,-283.61 409.77,-289.1"/>
</g>
<!-- n4 -->
<g id="node4" class="node">
<title>n4</title>
<path fill="palegreen" stroke="black" d="M195.19,-158C195.19,-158 71.19,-158 71.19,-158 65.19,-158 59.19,-152 59.19,-146 59.19,-146 59.19,-134 59.19,-134 59.19,-128 65.19,-122 71.19,-122 71.19,-122 195.19,-122 195.19,-122 201.19,-122 207.19,-128 207.19,-134 207.19,-134 207.19,-146 207.19,-146 207.19,-152 201.19,-158 195.19,-158"/>
<text text-anchor="middle" x="133.19" y="-136.3" font-family="Arial" font-size="14.00">Label &#39;water&#39; near fish</text>
</g>
<!-- n2&#45;&gt;n4 -->
<g id="edge3" class="edge">
<title>n2&#45;&gt;n4</title>
<path fill="none" stroke="black" d="M194.01,-243.81C182.1,-223.67 162.24,-190.1 148.47,-166.83"/>
<polygon fill="black" stroke="black" points="151.44,-164.98 143.34,-158.16 145.42,-168.55 151.44,-164.98"/>
</g>
<!-- n5 -->
<g id="node5" class="node">
<title>n5</title>
<polygon fill="lightcoral" stroke="black" points="437.19,-158 265.19,-140 437.19,-122 609.19,-140 437.19,-158"/>
<text text-anchor="middle" x="437.19" y="-136.3" font-family="Arial" font-size="14.00">Lack of label for deer habitat</text>
</g>
<!-- n3&#45;&gt;n5 -->
<g id="edge4" class="edge">
<title>n3&#45;&gt;n5</title>
<path fill="none" stroke="black" d="M437.19,-243.81C437.19,-224.11 437.19,-191.58 437.19,-168.39"/>
<polygon fill="black" stroke="black" points="440.69,-168.16 437.19,-158.16 433.69,-168.16 440.69,-168.16"/>
</g>
<!-- n6 -->
<g id="node6" class="node">
<title>n6</title>
<polygon fill="lightcoral" stroke="black" points="925.19,-158 666.69,-140 925.19,-122 1183.69,-140 925.19,-158"/>
<text text-anchor="middle" x="925.19" y="-136.3" font-family="Arial" font-size="14.00">Lacks depiction of plant&#45;sunlight relationship</text>
</g>
<!-- n3&#45;&gt;n6 -->
<g id="edge5" class="edge">
<title>n3&#45;&gt;n6</title>
<path fill="none" stroke="black" d="M496.05,-246.53C588.23,-223.86 765.93,-180.16 861.18,-156.74"/>
<polygon fill="black" stroke="black" points="862.1,-160.12 870.98,-154.33 860.43,-153.32 862.1,-160.12"/>
</g>
<!-- n7 -->
<g id="node7" class="node">
<title>n7</title>
<polygon fill="#f28e8e" stroke="black" points="577.19,-36 297.19,-36 297.19,0 577.19,0 577.19,-36"/>
<text text-anchor="middle" x="437.19" y="-14.3" font-family="Arial" font-size="14.00">Add a label for deer habitat, such as &#39;forest&#39;.</text>
</g>
<!-- n5&#45;&gt;n7 -->
<g id="edge6" class="edge">
<title>n5&#45;&gt;n7</title>
<path fill="none" stroke="black" d="M437.19,-121.81C437.19,-102.11 437.19,-69.58 437.19,-46.39"/>
<polygon fill="black" stroke="black" points="440.69,-46.16 437.19,-36.16 433.69,-46.16 440.69,-46.16"/>
</g>
<!-- n8 -->
<g id="node8" class="node">
<title>n8</title>
<polygon fill="#f28e8e" stroke="black" points="1088.19,-36 762.19,-36 762.19,0 1088.19,0 1088.19,-36"/>
<text text-anchor="middle" x="925.19" y="-14.3" font-family="Arial" font-size="14.00">Include sunlight in the drawing to show plant needs.</text>
</g>
<!-- n6&#45;&gt;n8 -->
<g id="edge7" class="edge">
<title>n6&#45;&gt;n8</title>
<path fill="none" stroke="black" d="M925.19,-121.81C925.19,-102.11 925.19,-69.58 925.19,-46.39"/>
<polygon fill="black" stroke="black" points="928.69,-46.16 925.19,-36.16 921.69,-46.16 928.69,-46.16"/>
</g>
</g>
</svg>
