<?xml version="1.0" encoding="UTF-8" standalone="no"?>
<!DOCTYPE svg PUBLIC "-//W3C//DTD SVG 1.1//EN"
 "http://www.w3.org/Graphics/SVG/1.1/DTD/svg11.dtd">
<!-- Generated by graphviz version 2.43.0 (0)
 -->
<!-- Pages: 1 -->
<svg width="1067pt" height="410pt"
 viewBox="0.00 0.00 1066.50 410.00" xmlns="http://www.w3.org/2000/svg" xmlns:xlink="http://www.w3.org/1999/xlink">
<g id="graph0" class="graph" transform="scale(1 1) rotate(0) translate(4 406)">
<polygon fill="white" stroke="transparent" points="-4,4 -4,-406 1062.5,-406 1062.5,4 -4,4"/>
<!-- n1 -->
<g id="node1" class="node">
<title>n1</title>
<polygon fill="lightblue" stroke="black" points="735.74,-384 642.62,-402 456.38,-402 363.26,-384 456.38,-366 642.62,-366 735.74,-384"/>
<text text-anchor="middle" x="549.5" y="-380.3" font-family="Arial" font-size="14.00">Illustrate plants with and without water.</text>
</g>
<!-- n2 -->
<g id="node2" class="node">
<title>n2</title>
<polygon fill="#fffdd0" stroke="black" points="313,-280 0,-280 0,-244 313,-244 313,-280"/>
<text text-anchor="middle" x="156.5" y="-258.3" font-family="Arial" font-size="14.00">Healthy plant with green leaves and upright stem.</text>
</g>
<!-- n1&#45;&gt;n2 -->
<g id="edge1" class="edge">
<title>n1&#45;&gt;n2</title>
<path fill="none" stroke="black" d="M493.61,-365.93C422.02,-344.07 298.13,-306.25 222.14,-283.04"/>
<polygon fill="black" stroke="black" points="222.79,-279.58 212.2,-280.01 220.74,-286.27 222.79,-279.58"/>
</g>
<!-- n3 -->
<g id="node3" class="node">
<title>n3</title>
<polygon fill="#fffdd0" stroke="black" points="709.5,-280 389.5,-280 389.5,-244 709.5,-244 709.5,-280"/>
<text text-anchor="middle" x="549.5" y="-258.3" font-family="Arial" font-size="14.00">Unhealthy plant with droopy leaves and bent stem.</text>
</g>
<!-- n1&#45;&gt;n3 -->
<g id="edge2" class="edge">
<title>n1&#45;&gt;n3</title>
<path fill="none" stroke="black" d="M549.5,-365.81C549.5,-346.11 549.5,-313.58 549.5,-290.39"/>
<polygon fill="black" stroke="black" points="553,-290.16 549.5,-280.16 546,-290.16 553,-290.16"/>
</g>
<!-- n4 -->
<g id="node4" class="node">
<title>n4</title>
<polygon fill="#fffdd0" stroke="black" points="1010,-280 803,-280 803,-244 1010,-244 1010,-280"/>
<text text-anchor="middle" x="906.5" y="-258.3" font-family="Arial" font-size="14.00">Plant placed under a bright sun.</text>
</g>
<!-- n1&#45;&gt;n4 -->
<g id="edge3" class="edge">
<title>n1&#45;&gt;n4</title>
<path fill="none" stroke="black" d="M600.27,-365.93C665.04,-344.16 776.92,-306.56 846.03,-283.33"/>
<polygon fill="black" stroke="black" points="847.54,-286.52 855.9,-280.01 845.31,-279.88 847.54,-286.52"/>
</g>
<!-- n5 -->
<g id="node5" class="node">
<title>n5</title>
<path fill="palegreen" stroke="black" d="M260.5,-158C260.5,-158 14.5,-158 14.5,-158 8.5,-158 2.5,-152 2.5,-146 2.5,-146 2.5,-134 2.5,-134 2.5,-128 8.5,-122 14.5,-122 14.5,-122 260.5,-122 260.5,-122 266.5,-122 272.5,-128 272.5,-134 272.5,-134 272.5,-146 272.5,-146 272.5,-152 266.5,-158 260.5,-158"/>
<text text-anchor="middle" x="137.5" y="-136.3" font-family="Arial" font-size="14.00">Shows healthy plant getting enough water.</text>
</g>
<!-- n2&#45;&gt;n5 -->
<g id="edge4" class="edge">
<title>n2&#45;&gt;n5</title>
<path fill="none" stroke="black" d="M153.78,-243.81C150.65,-224.02 145.46,-191.29 141.79,-168.08"/>
<polygon fill="black" stroke="black" points="145.24,-167.49 140.22,-158.16 138.33,-168.58 145.24,-167.49"/>
</g>
<!-- n6 -->
<g id="node6" class="node">
<title>n6</title>
<polygon fill="lightcoral" stroke="black" points="549.5,-158 330.5,-140 549.5,-122 768.5,-140 549.5,-158"/>
<text text-anchor="middle" x="549.5" y="-136.3" font-family="Arial" font-size="14.00">Shows unhealthy plant lacking water.</text>
</g>
<!-- n3&#45;&gt;n6 -->
<g id="edge5" class="edge">
<title>n3&#45;&gt;n6</title>
<path fill="none" stroke="black" d="M549.5,-243.81C549.5,-224.11 549.5,-191.58 549.5,-168.39"/>
<polygon fill="black" stroke="black" points="553,-168.16 549.5,-158.16 546,-168.16 553,-168.16"/>
</g>
<!-- n7 -->
<g id="node7" class="node">
<title>n7</title>
<path fill="palegreen" stroke="black" d="M1046.5,-158C1046.5,-158 838.5,-158 838.5,-158 832.5,-158 826.5,-152 826.5,-146 826.5,-146 826.5,-134 826.5,-134 826.5,-128 832.5,-122 838.5,-122 838.5,-122 1046.5,-122 1046.5,-122 1052.5,-122 1058.5,-128 1058.5,-134 1058.5,-134 1058.5,-146 1058.5,-146 1058.5,-152 1052.5,-158 1046.5,-158"/>
<text text-anchor="middle" x="942.5" y="-136.3" font-family="Arial" font-size="14.00">Shows plants need sunlight to grow.</text>
</g>
<!-- n4&#45;&gt;n7 -->
<g id="edge6" class="edge">
<title>n4&#45;&gt;n7</title>
<path fill="none" stroke="black" d="M911.66,-243.81C917.62,-223.94 927.5,-190.99 934.47,-167.76"/>
<polygon fill="black" stroke="black" points="937.83,-168.74 937.35,-158.16 931.12,-166.73 937.83,-168.74"/>
</g>
<!-- n8 -->
<g id="node8" class="node">
<title>n8</title>
<polygon fill="#f28e8e" stroke="black" points="752,-36 347,-36 347,0 752,0 752,-36"/>
<text text-anchor="middle" x="549.5" y="-14.3" font-family="Arial" font-size="14.00">Provide clearer distinction between healthy and unhealthy plants.</text>
</g>
<!-- n6&#45;&gt;n8 -->
<g id="edge7" class="edge">
<title>n6&#45;&gt;n8</title>
<path fill="none" stroke="black" d="M549.5,-121.81C549.5,-102.11 549.5,-69.58 549.5,-46.39"/>
<polygon fill="black" stroke="black" points="553,-46.16 549.5,-36.16 546,-46.16 553,-46.16"/>
</g>
</g>
</svg>
