<?xml version="1.0" encoding="UTF-8" standalone="no"?>
<!DOCTYPE svg PUBLIC "-//W3C//DTD SVG 1.1//EN"
 "http://www.w3.org/Graphics/SVG/1.1/DTD/svg11.dtd">
<!-- Generated by graphviz version 2.43.0 (0)
 -->
<!-- Pages: 1 -->
<svg width="1580pt" height="288pt"
 viewBox="0.00 0.00 1579.50 288.00" xmlns="http://www.w3.org/2000/svg" xmlns:xlink="http://www.w3.org/1999/xlink">
<g id="graph0" class="graph" transform="scale(1 1) rotate(0) translate(4 284)">
<polygon fill="white" stroke="transparent" points="-4,4 -4,-284 1575.5,-284 1575.5,4 -4,4"/>
<!-- n1 -->
<g id="node1" class="node">
<title>n1</title>
<polygon fill="lightblue" stroke="black" points="1020.82,-262 898.41,-280 653.59,-280 531.18,-262 653.59,-244 898.41,-244 1020.82,-262"/>
<text text-anchor="middle" x="776" y="-258.3" font-family="Arial" font-size="14.00">Draw a habitat and the different living things in each</text>
</g>
<!-- n2 -->
<g id="node2" class="node">
<title>n2</title>
<polygon fill="#fffdd0" stroke="black" points="350,-158 54,-158 54,-122 350,-122 350,-158"/>
<text text-anchor="middle" x="202" y="-136.3" font-family="Arial" font-size="14.00">Trees with round, green tops and brown trunks</text>
</g>
<!-- n1&#45;&gt;n2 -->
<g id="edge1" class="edge">
<title>n1&#45;&gt;n2</title>
<path fill="none" stroke="black" d="M694.67,-244C588.7,-221.84 403.9,-183.21 293.26,-160.08"/>
<polygon fill="black" stroke="black" points="293.94,-156.65 283.44,-158.03 292.51,-163.5 293.94,-156.65"/>
</g>
<!-- n3 -->
<g id="node3" class="node">
<title>n3</title>
<polygon fill="#fffdd0" stroke="black" points="568,-158 430,-158 430,-122 568,-122 568,-158"/>
<text text-anchor="middle" x="499" y="-136.3" font-family="Arial" font-size="14.00">Squirrel on a branch</text>
</g>
<!-- n1&#45;&gt;n3 -->
<g id="edge2" class="edge">
<title>n1&#45;&gt;n3</title>
<path fill="none" stroke="black" d="M736.61,-243.93C686.87,-222.39 601.32,-185.32 547.58,-162.04"/>
<polygon fill="black" stroke="black" points="548.83,-158.77 538.26,-158.01 546.05,-165.19 548.83,-158.77"/>
</g>
<!-- n4 -->
<g id="node4" class="node">
<title>n4</title>
<polygon fill="#fffdd0" stroke="black" points="862.5,-158 689.5,-158 689.5,-122 862.5,-122 862.5,-158"/>
<text text-anchor="middle" x="776" y="-136.3" font-family="Arial" font-size="14.00">Bird flying above the trees</text>
</g>
<!-- n1&#45;&gt;n4 -->
<g id="edge3" class="edge">
<title>n1&#45;&gt;n4</title>
<path fill="none" stroke="black" d="M776,-243.81C776,-224.11 776,-191.58 776,-168.39"/>
<polygon fill="black" stroke="black" points="779.5,-168.16 776,-158.16 772.5,-168.16 779.5,-168.16"/>
</g>
<!-- n5 -->
<g id="node5" class="node">
<title>n5</title>
<polygon fill="#fffdd0" stroke="black" points="1206.5,-158 939.5,-158 939.5,-122 1206.5,-122 1206.5,-158"/>
<text text-anchor="middle" x="1073" y="-136.3" font-family="Arial" font-size="14.00">Colorful flowers near the base of the trees</text>
</g>
<!-- n1&#45;&gt;n5 -->
<g id="edge4" class="edge">
<title>n1&#45;&gt;n5</title>
<path fill="none" stroke="black" d="M818.24,-243.93C871.79,-222.3 964.06,-185.02 1021.6,-161.76"/>
<polygon fill="black" stroke="black" points="1022.93,-165 1030.9,-158.01 1020.32,-158.5 1022.93,-165"/>
</g>
<!-- n6 -->
<g id="node6" class="node">
<title>n6</title>
<polygon fill="#fffdd0" stroke="black" points="1436,-158 1312,-158 1312,-122 1436,-122 1436,-158"/>
<text text-anchor="middle" x="1374" y="-136.3" font-family="Arial" font-size="14.00">Ant on the ground</text>
</g>
<!-- n1&#45;&gt;n6 -->
<g id="edge5" class="edge">
<title>n1&#45;&gt;n6</title>
<path fill="none" stroke="black" d="M860.73,-244C978.83,-220.3 1190.9,-177.74 1301.9,-155.47"/>
<polygon fill="black" stroke="black" points="1302.88,-158.84 1312,-153.45 1301.51,-151.98 1302.88,-158.84"/>
</g>
<!-- n7 -->
<g id="node7" class="node">
<title>n7</title>
<path fill="palegreen" stroke="black" d="M222,-36C222,-36 12,-36 12,-36 6,-36 0,-30 0,-24 0,-24 0,-12 0,-12 0,-6 6,0 12,0 12,0 222,0 222,0 228,0 234,-6 234,-12 234,-12 234,-24 234,-24 234,-30 228,-36 222,-36"/>
<text text-anchor="middle" x="117" y="-14.3" font-family="Arial" font-size="14.00">Understands tree variety and habitat</text>
</g>
<!-- n2&#45;&gt;n7 -->
<g id="edge6" class="edge">
<title>n2&#45;&gt;n7</title>
<path fill="none" stroke="black" d="M189.82,-121.81C175.49,-101.58 151.57,-67.81 135.08,-44.52"/>
<polygon fill="black" stroke="black" points="137.8,-42.3 129.16,-36.16 132.08,-46.34 137.8,-42.3"/>
</g>
<!-- n8 -->
<g id="node8" class="node">
<title>n8</title>
<path fill="palegreen" stroke="black" d="M569.5,-36C569.5,-36 304.5,-36 304.5,-36 298.5,-36 292.5,-30 292.5,-24 292.5,-24 292.5,-12 292.5,-12 292.5,-6 298.5,0 304.5,0 304.5,0 569.5,0 569.5,0 575.5,0 581.5,-6 581.5,-12 581.5,-12 581.5,-24 581.5,-24 581.5,-30 575.5,-36 569.5,-36"/>
<text text-anchor="middle" x="437" y="-14.3" font-family="Arial" font-size="14.00">Correctly identifies squirrels as forest animals</text>
</g>
<!-- n3&#45;&gt;n8 -->
<g id="edge7" class="edge">
<title>n3&#45;&gt;n8</title>
<path fill="none" stroke="black" d="M490.12,-121.81C479.76,-101.76 462.52,-68.4 450.51,-45.14"/>
<polygon fill="black" stroke="black" points="453.57,-43.44 445.87,-36.16 447.35,-46.65 453.57,-43.44"/>
</g>
<!-- n9 -->
<g id="node9" class="node">
<title>n9</title>
<path fill="palegreen" stroke="black" d="M900,-36C900,-36 652,-36 652,-36 646,-36 640,-30 640,-24 640,-24 640,-12 640,-12 640,-6 646,0 652,0 652,0 900,0 900,0 906,0 912,-6 912,-12 912,-12 912,-24 912,-24 912,-30 906,-36 900,-36"/>
<text text-anchor="middle" x="776" y="-14.3" font-family="Arial" font-size="14.00">Recognizes birds as part of the ecosystem</text>
</g>
<!-- n4&#45;&gt;n9 -->
<g id="edge8" class="edge">
<title>n4&#45;&gt;n9</title>
<path fill="none" stroke="black" d="M776,-121.81C776,-102.11 776,-69.58 776,-46.39"/>
<polygon fill="black" stroke="black" points="779.5,-46.16 776,-36.16 772.5,-46.16 779.5,-46.16"/>
</g>
<!-- n10 -->
<g id="node10" class="node">
<title>n10</title>
<path fill="palegreen" stroke="black" d="M1202,-36C1202,-36 982,-36 982,-36 976,-36 970,-30 970,-24 970,-24 970,-12 970,-12 970,-6 976,0 982,0 982,0 1202,0 1202,0 1208,0 1214,-6 1214,-12 1214,-12 1214,-24 1214,-24 1214,-30 1208,-36 1202,-36"/>
<text text-anchor="middle" x="1092" y="-14.3" font-family="Arial" font-size="14.00">Identifies flowers as part of the habitat</text>
</g>
<!-- n5&#45;&gt;n10 -->
<g id="edge9" class="edge">
<title>n5&#45;&gt;n10</title>
<path fill="none" stroke="black" d="M1075.7,-121.81C1078.9,-102.02 1084,-69.29 1087.7,-46.08"/>
<polygon fill="black" stroke="black" points="1091.16,-46.59 1089.3,-36.16 1084.25,-45.48 1091.16,-46.59"/>
</g>
<!-- n11 -->
<g id="node11" class="node">
<title>n11</title>
<path fill="palegreen" stroke="black" d="M1559.5,-36C1559.5,-36 1284.5,-36 1284.5,-36 1278.5,-36 1272.5,-30 1272.5,-24 1272.5,-24 1272.5,-12 1272.5,-12 1272.5,-6 1278.5,0 1284.5,0 1284.5,0 1559.5,0 1559.5,0 1565.5,0 1571.5,-6 1571.5,-12 1571.5,-12 1571.5,-24 1571.5,-24 1571.5,-30 1565.5,-36 1559.5,-36"/>
<text text-anchor="middle" x="1422" y="-14.3" font-family="Arial" font-size="14.00">Recognizes ants as ground dwellers in habitats</text>
</g>
<!-- n6&#45;&gt;n11 -->
<g id="edge10" class="edge">
<title>n6&#45;&gt;n11</title>
<path fill="none" stroke="black" d="M1380.9,-121.81C1388.9,-101.85 1402.1,-68.7 1411.4,-45.45"/>
<polygon fill="black" stroke="black" points="1414.65,-46.75 1415.1,-36.16 1408.15,-44.16 1414.65,-46.75"/>
</g>
</g>
</svg>
