<?xml version="1.0" encoding="UTF-8" standalone="no"?>
<!DOCTYPE svg PUBLIC "-//W3C//DTD SVG 1.1//EN"
 "http://www.w3.org/Graphics/SVG/1.1/DTD/svg11.dtd">
<!-- Generated by graphviz version 2.43.0 (0)
 -->
<!-- Pages: 1 -->
<svg width="1825pt" height="410pt"
 viewBox="0.00 0.00 1825.00 410.00" xmlns="http://www.w3.org/2000/svg" xmlns:xlink="http://www.w3.org/1999/xlink">
<g id="graph0" class="graph" transform="scale(1 1) rotate(0) translate(4 406)">
<polygon fill="white" stroke="transparent" points="-4,4 -4,-406 1821,-406 1821,4 -4,4"/>
<!-- n1 -->
<g id="node1" class="node">
<title>n1</title>
<polygon fill="lightblue" stroke="black" points="1029.5,-384 899.25,-402 638.75,-402 508.5,-384 638.75,-366 899.25,-366 1029.5,-384"/>
<text text-anchor="middle" x="769" y="-380.3" font-family="Arial" font-size="14.00">Draw two habitats and the different living things in each</text>
</g>
<!-- n2 -->
<g id="node2" class="node">
<title>n2</title>
<polygon fill="#fffdd0" stroke="black" points="387,-280 245,-280 245,-244 387,-244 387,-280"/>
<text text-anchor="middle" x="316" y="-258.3" font-family="Arial" font-size="14.00">Forest with oak trees</text>
</g>
<!-- n1&#45;&gt;n2 -->
<g id="edge1" class="edge">
<title>n1&#45;&gt;n2</title>
<path fill="none" stroke="black" d="M704.58,-365.93C621.55,-343.94 477.51,-305.78 390.05,-282.62"/>
<polygon fill="black" stroke="black" points="390.76,-279.19 380.2,-280.01 388.97,-285.95 390.76,-279.19"/>
</g>
<!-- n3 -->
<g id="node3" class="node">
<title>n3</title>
<polygon fill="#fffdd0" stroke="black" points="687.5,-280 544.5,-280 544.5,-244 687.5,-244 687.5,-280"/>
<text text-anchor="middle" x="616" y="-258.3" font-family="Arial" font-size="14.00">Pond with water lilies</text>
</g>
<!-- n1&#45;&gt;n3 -->
<g id="edge2" class="edge">
<title>n1&#45;&gt;n3</title>
<path fill="none" stroke="black" d="M747.08,-365.81C720.49,-344.96 675.56,-309.71 645.83,-286.4"/>
<polygon fill="black" stroke="black" points="647.91,-283.58 637.88,-280.16 643.59,-289.09 647.91,-283.58"/>
</g>
<!-- n4 -->
<g id="node4" class="node">
<title>n4</title>
<polygon fill="#fffdd0" stroke="black" points="969,-280 765,-280 765,-244 969,-244 969,-280"/>
<text text-anchor="middle" x="867" y="-258.3" font-family="Arial" font-size="14.00">Squirrels and robin in the forest</text>
</g>
<!-- n1&#45;&gt;n4 -->
<g id="edge3" class="edge">
<title>n1&#45;&gt;n4</title>
<path fill="none" stroke="black" d="M783.04,-365.81C799.71,-345.4 827.63,-311.21 846.66,-287.91"/>
<polygon fill="black" stroke="black" points="849.37,-290.12 852.99,-280.16 843.95,-285.69 849.37,-290.12"/>
</g>
<!-- n5 -->
<g id="node5" class="node">
<title>n5</title>
<polygon fill="#fffdd0" stroke="black" points="1263,-280 1087,-280 1087,-244 1263,-244 1263,-280"/>
<text text-anchor="middle" x="1175" y="-258.3" font-family="Arial" font-size="14.00">Bass and clam in the pond</text>
</g>
<!-- n1&#45;&gt;n5 -->
<g id="edge4" class="edge">
<title>n1&#45;&gt;n5</title>
<path fill="none" stroke="black" d="M826.74,-365.93C900.85,-344.03 1029.2,-306.09 1107.7,-282.9"/>
<polygon fill="black" stroke="black" points="1108.9,-286.2 1117.5,-280.01 1106.92,-279.48 1108.9,-286.2"/>
</g>
<!-- n6 -->
<g id="node6" class="node">
<title>n6</title>
<path fill="palegreen" stroke="black" d="M382,-158C382,-158 12,-158 12,-158 6,-158 0,-152 0,-146 0,-146 0,-134 0,-134 0,-128 6,-122 12,-122 12,-122 382,-122 382,-122 388,-122 394,-128 394,-134 394,-134 394,-146 394,-146 394,-152 388,-158 382,-158"/>
<text text-anchor="middle" x="197" y="-136.3" font-family="Arial" font-size="14.00">Understands land habitat with diverse plants like trees, grasses</text>
</g>
<!-- n2&#45;&gt;n6 -->
<g id="edge5" class="edge">
<title>n2&#45;&gt;n6</title>
<path fill="none" stroke="black" d="M298.95,-243.81C278.54,-223.22 244.22,-188.61 221.1,-165.3"/>
<polygon fill="black" stroke="black" points="223.55,-162.8 214.02,-158.16 218.58,-167.73 223.55,-162.8"/>
</g>
<!-- n7 -->
<g id="node7" class="node">
<title>n7</title>
<path fill="palegreen" stroke="black" d="M729.5,-158C729.5,-158 464.5,-158 464.5,-158 458.5,-158 452.5,-152 452.5,-146 452.5,-146 452.5,-134 452.5,-134 452.5,-128 458.5,-122 464.5,-122 464.5,-122 729.5,-122 729.5,-122 735.5,-122 741.5,-128 741.5,-134 741.5,-134 741.5,-146 741.5,-146 741.5,-152 735.5,-158 729.5,-158"/>
<text text-anchor="middle" x="597" y="-136.3" font-family="Arial" font-size="14.00">Understands water habitat with aquatic plants</text>
</g>
<!-- n3&#45;&gt;n7 -->
<g id="edge6" class="edge">
<title>n3&#45;&gt;n7</title>
<path fill="none" stroke="black" d="M613.28,-243.81C610.15,-224.02 604.96,-191.29 601.29,-168.08"/>
<polygon fill="black" stroke="black" points="604.74,-167.49 599.72,-158.16 597.83,-168.58 604.74,-167.49"/>
</g>
<!-- n8 -->
<g id="node8" class="node">
<title>n8</title>
<path fill="palegreen" stroke="black" d="M996.5,-158C996.5,-158 811.5,-158 811.5,-158 805.5,-158 799.5,-152 799.5,-146 799.5,-146 799.5,-134 799.5,-134 799.5,-128 805.5,-122 811.5,-122 811.5,-122 996.5,-122 996.5,-122 1002.5,-122 1008.5,-128 1008.5,-134 1008.5,-134 1008.5,-146 1008.5,-146 1008.5,-152 1002.5,-158 996.5,-158"/>
<text text-anchor="middle" x="904" y="-136.3" font-family="Arial" font-size="14.00">Identifies animals in land habitat</text>
</g>
<!-- n4&#45;&gt;n8 -->
<g id="edge7" class="edge">
<title>n4&#45;&gt;n8</title>
<path fill="none" stroke="black" d="M872.3,-243.81C878.43,-223.94 888.59,-190.99 895.75,-167.76"/>
<polygon fill="black" stroke="black" points="899.11,-168.75 898.71,-158.16 892.42,-166.68 899.11,-168.75"/>
</g>
<!-- n9 -->
<g id="node9" class="node">
<title>n9</title>
<path fill="palegreen" stroke="black" d="M1271.5,-158C1271.5,-158 1078.5,-158 1078.5,-158 1072.5,-158 1066.5,-152 1066.5,-146 1066.5,-146 1066.5,-134 1066.5,-134 1066.5,-128 1072.5,-122 1078.5,-122 1078.5,-122 1271.5,-122 1271.5,-122 1277.5,-122 1283.5,-128 1283.5,-134 1283.5,-134 1283.5,-146 1283.5,-146 1283.5,-152 1277.5,-158 1271.5,-158"/>
<text text-anchor="middle" x="1175" y="-136.3" font-family="Arial" font-size="14.00">Identifies animals in water habitat</text>
</g>
<!-- n5&#45;&gt;n9 -->
<g id="edge8" class="edge">
<title>n5&#45;&gt;n9</title>
<path fill="none" stroke="black" d="M1175,-243.81C1175,-224.11 1175,-191.58 1175,-168.39"/>
<polygon fill="black" stroke="black" points="1178.5,-168.16 1175,-158.16 1171.5,-168.16 1178.5,-168.16"/>
</g>
<!-- n10 -->
<g id="node10" class="node">
<title>n10</title>
<polygon fill="lightcoral" stroke="black" points="1568,-158 1341.77,-140 1568,-122 1794.23,-140 1568,-158"/>
<text text-anchor="middle" x="1568" y="-136.3" font-family="Arial" font-size="14.00">Proportion issues in underwater scene</text>
</g>
<!-- n5&#45;&gt;n10 -->
<g id="edge9" class="edge">
<title>n5&#45;&gt;n10</title>
<path fill="none" stroke="black" d="M1230.9,-243.93C1306.2,-220.93 1439.5,-180.24 1513.9,-157.52"/>
<polygon fill="black" stroke="black" points="1515.05,-160.83 1523.6,-154.57 1513.01,-154.13 1515.05,-160.83"/>
</g>
<!-- n11 -->
<g id="node11" class="node">
<title>n11</title>
<polygon fill="#f28e8e" stroke="black" points="1817,-36 1319,-36 1319,0 1817,0 1817,-36"/>
<text text-anchor="middle" x="1568" y="-14.3" font-family="Arial" font-size="14.00">Consider scale differences, focus on realistic proportions in underwater depiction</text>
</g>
<!-- n10&#45;&gt;n11 -->
<g id="edge10" class="edge">
<title>n10&#45;&gt;n11</title>
<path fill="none" stroke="black" d="M1568,-121.81C1568,-102.11 1568,-69.58 1568,-46.39"/>
<polygon fill="black" stroke="black" points="1571.5,-46.16 1568,-36.16 1564.5,-46.16 1571.5,-46.16"/>
</g>
</g>
</svg>
