<?xml version="1.0" encoding="UTF-8" standalone="no"?>
<!DOCTYPE svg PUBLIC "-//W3C//DTD SVG 1.1//EN"
 "http://www.w3.org/Graphics/SVG/1.1/DTD/svg11.dtd">
<!-- Generated by graphviz version 2.43.0 (0)
 -->
<!-- Pages: 1 -->
<svg width="1315pt" height="410pt"
 viewBox="0.00 0.00 1314.50 410.00" xmlns="http://www.w3.org/2000/svg" xmlns:xlink="http://www.w3.org/1999/xlink">
<g id="graph0" class="graph" transform="scale(1 1) rotate(0) translate(4 406)">
<polygon fill="white" stroke="transparent" points="-4,4 -4,-406 1310.5,-406 1310.5,4 -4,4"/>
<!-- n1 -->
<g id="node1" class="node">
<title>n1</title>
<polygon fill="lightblue" stroke="black" points="774.5,-384 660.75,-402 433.25,-402 319.5,-384 433.25,-366 660.75,-366 774.5,-384"/>
<text text-anchor="middle" x="547" y="-380.3" font-family="Arial" font-size="14.00">Illustrate plants with and without water and light.</text>
</g>
<!-- n2 -->
<g id="node2" class="node">
<title>n2</title>
<polygon fill="#fffdd0" stroke="black" points="335,-280 89,-280 89,-244 335,-244 335,-280"/>
<text text-anchor="middle" x="212" y="-258.3" font-family="Arial" font-size="14.00">Plant with large green leaves (healthy)</text>
</g>
<!-- n1&#45;&gt;n2 -->
<g id="edge1" class="edge">
<title>n1&#45;&gt;n2</title>
<path fill="none" stroke="black" d="M499.36,-365.93C438.71,-344.21 334.02,-306.71 269.14,-283.47"/>
<polygon fill="black" stroke="black" points="270.07,-280.09 259.48,-280.01 267.71,-286.68 270.07,-280.09"/>
</g>
<!-- n3 -->
<g id="node3" class="node">
<title>n3</title>
<polygon fill="#fffdd0" stroke="black" points="665,-280 429,-280 429,-244 665,-244 665,-280"/>
<text text-anchor="middle" x="547" y="-258.3" font-family="Arial" font-size="14.00">Plant with drooping, brownish leaves</text>
</g>
<!-- n1&#45;&gt;n3 -->
<g id="edge2" class="edge">
<title>n1&#45;&gt;n3</title>
<path fill="none" stroke="black" d="M547,-365.81C547,-346.11 547,-313.58 547,-290.39"/>
<polygon fill="black" stroke="black" points="550.5,-290.16 547,-280.16 543.5,-290.16 550.5,-290.16"/>
</g>
<!-- n4 -->
<g id="node4" class="node">
<title>n4</title>
<polygon fill="#fffdd0" stroke="black" points="1026.5,-280 823.5,-280 823.5,-244 1026.5,-244 1026.5,-280"/>
<text text-anchor="middle" x="925" y="-258.3" font-family="Arial" font-size="14.00">Plant with smaller, paler leaves</text>
</g>
<!-- n1&#45;&gt;n4 -->
<g id="edge3" class="edge">
<title>n1&#45;&gt;n4</title>
<path fill="none" stroke="black" d="M600.76,-365.93C669.62,-344.07 788.77,-306.25 861.87,-283.04"/>
<polygon fill="black" stroke="black" points="862.95,-286.37 871.43,-280.01 860.84,-279.69 862.95,-286.37"/>
</g>
<!-- n5 -->
<g id="node5" class="node">
<title>n5</title>
<path fill="palegreen" stroke="black" d="M338,-158C338,-158 12,-158 12,-158 6,-158 0,-152 0,-146 0,-146 0,-134 0,-134 0,-128 6,-122 12,-122 12,-122 338,-122 338,-122 344,-122 350,-128 350,-134 350,-134 350,-146 350,-146 350,-152 344,-158 338,-158"/>
<text text-anchor="middle" x="175" y="-136.3" font-family="Arial" font-size="14.00">Understands healthy plant growth needs water and light</text>
</g>
<!-- n2&#45;&gt;n5 -->
<g id="edge4" class="edge">
<title>n2&#45;&gt;n5</title>
<path fill="none" stroke="black" d="M206.7,-243.81C200.57,-223.94 190.41,-190.99 183.25,-167.76"/>
<polygon fill="black" stroke="black" points="186.58,-166.68 180.29,-158.16 179.89,-168.75 186.58,-166.68"/>
</g>
<!-- n6 -->
<g id="node6" class="node">
<title>n6</title>
<path fill="palegreen" stroke="black" d="M674,-158C674,-158 420,-158 420,-158 414,-158 408,-152 408,-146 408,-146 408,-134 408,-134 408,-128 414,-122 420,-122 420,-122 674,-122 674,-122 680,-122 686,-128 686,-134 686,-134 686,-146 686,-146 686,-152 680,-158 674,-158"/>
<text text-anchor="middle" x="547" y="-136.3" font-family="Arial" font-size="14.00">Understands water shortage leads to wilting</text>
</g>
<!-- n3&#45;&gt;n6 -->
<g id="edge5" class="edge">
<title>n3&#45;&gt;n6</title>
<path fill="none" stroke="black" d="M547,-243.81C547,-224.11 547,-191.58 547,-168.39"/>
<polygon fill="black" stroke="black" points="550.5,-168.16 547,-158.16 543.5,-168.16 550.5,-168.16"/>
</g>
<!-- n7 -->
<g id="node7" class="node">
<title>n7</title>
<polygon fill="lightcoral" stroke="black" points="1025,-158 743.5,-140 1025,-122 1306.5,-140 1025,-158"/>
<text text-anchor="middle" x="1025" y="-136.3" font-family="Arial" font-size="14.00">Struggles to differentiate effects of light shortage</text>
</g>
<!-- n4&#45;&gt;n7 -->
<g id="edge6" class="edge">
<title>n4&#45;&gt;n7</title>
<path fill="none" stroke="black" d="M939.33,-243.81C956.53,-223.17 985.47,-188.43 1004.9,-165.12"/>
<polygon fill="black" stroke="black" points="1007.62,-167.32 1011.3,-157.39 1002.23,-162.86 1007.62,-167.32"/>
</g>
<!-- n8 -->
<g id="node8" class="node">
<title>n8</title>
<polygon fill="#f28e8e" stroke="black" points="1180.5,-36 869.5,-36 869.5,0 1180.5,0 1180.5,-36"/>
<text text-anchor="middle" x="1025" y="-14.3" font-family="Arial" font-size="14.00">Clarify differences between water and light needs</text>
</g>
<!-- n7&#45;&gt;n8 -->
<g id="edge7" class="edge">
<title>n7&#45;&gt;n8</title>
<path fill="none" stroke="black" d="M1025,-121.81C1025,-102.11 1025,-69.58 1025,-46.39"/>
<polygon fill="black" stroke="black" points="1028.5,-46.16 1025,-36.16 1021.5,-46.16 1028.5,-46.16"/>
</g>
</g>
</svg>
