<?xml version="1.0" encoding="UTF-8" standalone="no"?>
<!DOCTYPE svg PUBLIC "-//W3C//DTD SVG 1.1//EN"
 "http://www.w3.org/Graphics/SVG/1.1/DTD/svg11.dtd">
<!-- Generated by graphviz version 2.43.0 (0)
 -->
<!-- Pages: 1 -->
<svg width="1373pt" height="410pt"
 viewBox="0.00 0.00 1372.70 410.00" xmlns="http://www.w3.org/2000/svg" xmlns:xlink="http://www.w3.org/1999/xlink">
<g id="graph0" class="graph" transform="scale(1 1) rotate(0) translate(4 406)">
<polygon fill="white" stroke="transparent" points="-4,4 -4,-406 1368.7,-406 1368.7,4 -4,4"/>
<!-- n1 -->
<g id="node1" class="node">
<title>n1</title>
<polygon fill="lightblue" stroke="black" points="946.67,-384 816.42,-402 555.92,-402 425.67,-384 555.92,-366 816.42,-366 946.67,-384"/>
<text text-anchor="middle" x="686.17" y="-380.3" font-family="Arial" font-size="14.00">Draw two habitats and the different living things in each</text>
</g>
<!-- n2 -->
<g id="node2" class="node">
<title>n2</title>
<polygon fill="#fffdd0" stroke="black" points="656.17,-280 510.17,-280 510.17,-244 656.17,-244 656.17,-280"/>
<text text-anchor="middle" x="583.17" y="-258.3" font-family="Arial" font-size="14.00">Land habitat with tree</text>
</g>
<!-- n1&#45;&gt;n2 -->
<g id="edge1" class="edge">
<title>n1&#45;&gt;n2</title>
<path fill="none" stroke="black" d="M671.42,-365.81C653.9,-345.4 624.55,-311.21 604.55,-287.91"/>
<polygon fill="black" stroke="black" points="607.07,-285.47 597.9,-280.16 601.76,-290.03 607.07,-285.47"/>
</g>
<!-- n3 -->
<g id="node3" class="node">
<title>n3</title>
<polygon fill="#fffdd0" stroke="black" points="863.67,-280 714.67,-280 714.67,-244 863.67,-244 863.67,-280"/>
<text text-anchor="middle" x="789.17" y="-258.3" font-family="Arial" font-size="14.00">Water habitat with fish</text>
</g>
<!-- n1&#45;&gt;n3 -->
<g id="edge2" class="edge">
<title>n1&#45;&gt;n3</title>
<path fill="none" stroke="black" d="M700.93,-365.81C718.45,-345.4 747.79,-311.21 767.79,-287.91"/>
<polygon fill="black" stroke="black" points="770.59,-290.03 774.44,-280.16 765.27,-285.47 770.59,-290.03"/>
</g>
<!-- n4 -->
<g id="node4" class="node">
<title>n4</title>
<path fill="palegreen" stroke="black" d="M805.67,-158C805.67,-158 566.67,-158 566.67,-158 560.67,-158 554.67,-152 554.67,-146 554.67,-146 554.67,-134 554.67,-134 554.67,-128 560.67,-122 566.67,-122 566.67,-122 805.67,-122 805.67,-122 811.67,-122 817.67,-128 817.67,-134 817.67,-134 817.67,-146 817.67,-146 817.67,-152 811.67,-158 805.67,-158"/>
<text text-anchor="middle" x="686.17" y="-136.3" font-family="Arial" font-size="14.00">Understands basic habitat representation</text>
</g>
<!-- n2&#45;&gt;n4 -->
<g id="edge3" class="edge">
<title>n2&#45;&gt;n4</title>
<path fill="none" stroke="black" d="M597.93,-243.81C615.45,-223.4 644.79,-189.21 664.79,-165.91"/>
<polygon fill="black" stroke="black" points="667.59,-168.03 671.44,-158.16 662.27,-163.47 667.59,-168.03"/>
</g>
<!-- n5 -->
<g id="node5" class="node">
<title>n5</title>
<polygon fill="lightcoral" stroke="black" points="248.17,-158 -0.17,-140 248.17,-122 496.52,-140 248.17,-158"/>
<text text-anchor="middle" x="248.17" y="-136.3" font-family="Arial" font-size="14.00">Limited diversity in living things per habitat</text>
</g>
<!-- n2&#45;&gt;n5 -->
<g id="edge4" class="edge">
<title>n2&#45;&gt;n5</title>
<path fill="none" stroke="black" d="M535.53,-243.93C472.3,-221.28 361.22,-181.49 297.27,-158.59"/>
<polygon fill="black" stroke="black" points="298.4,-155.28 287.8,-155.2 296.04,-161.87 298.4,-155.28"/>
</g>
<!-- n3&#45;&gt;n4 -->
<g id="edge5" class="edge">
<title>n3&#45;&gt;n4</title>
<path fill="none" stroke="black" d="M774.42,-243.81C756.9,-223.4 727.55,-189.21 707.55,-165.91"/>
<polygon fill="black" stroke="black" points="710.07,-163.47 700.9,-158.16 704.76,-168.03 710.07,-163.47"/>
</g>
<!-- n6 -->
<g id="node6" class="node">
<title>n6</title>
<polygon fill="lightcoral" stroke="black" points="1120.2,-158 875.7,-140 1120.2,-122 1364.7,-140 1120.2,-158"/>
<text text-anchor="middle" x="1120.2" y="-136.3" font-family="Arial" font-size="14.00">Misunderstands living diversity in habitats</text>
</g>
<!-- n3&#45;&gt;n6 -->
<g id="edge6" class="edge">
<title>n3&#45;&gt;n6</title>
<path fill="none" stroke="black" d="M836.25,-243.93C898.59,-221.33 1008,-181.66 1071.3,-158.73"/>
<polygon fill="black" stroke="black" points="1072.8,-161.91 1081,-155.2 1070.41,-155.33 1072.8,-161.91"/>
</g>
<!-- n7 -->
<g id="node7" class="node">
<title>n7</title>
<polygon fill="#f28e8e" stroke="black" points="453.17,-36 43.17,-36 43.17,0 453.17,0 453.17,-36"/>
<text text-anchor="middle" x="248.17" y="-14.3" font-family="Arial" font-size="14.00">Add different living things like grasses, bushes, and more animals</text>
</g>
<!-- n5&#45;&gt;n7 -->
<g id="edge7" class="edge">
<title>n5&#45;&gt;n7</title>
<path fill="none" stroke="black" d="M248.17,-121.81C248.17,-102.11 248.17,-69.58 248.17,-46.39"/>
<polygon fill="black" stroke="black" points="251.67,-46.16 248.17,-36.16 244.67,-46.16 251.67,-46.16"/>
</g>
<!-- n8 -->
<g id="node8" class="node">
<title>n8</title>
<polygon fill="#f28e8e" stroke="black" points="1361.2,-36 879.2,-36 879.2,0 1361.2,0 1361.2,-36"/>
<text text-anchor="middle" x="1120.2" y="-14.3" font-family="Arial" font-size="14.00">Include more types of living things in each habitat as per evidence statements</text>
</g>
<!-- n6&#45;&gt;n8 -->
<g id="edge8" class="edge">
<title>n6&#45;&gt;n8</title>
<path fill="none" stroke="black" d="M1120.2,-121.81C1120.2,-102.11 1120.2,-69.58 1120.2,-46.39"/>
<polygon fill="black" stroke="black" points="1123.7,-46.16 1120.2,-36.16 1116.7,-46.16 1123.7,-46.16"/>
</g>
</g>
</svg>
