<?xml version="1.0" encoding="UTF-8" standalone="no"?>
<!DOCTYPE svg PUBLIC "-//W3C//DTD SVG 1.1//EN"
 "http://www.w3.org/Graphics/SVG/1.1/DTD/svg11.dtd">
<!-- Generated by graphviz version 2.43.0 (0)
 -->
<!-- Pages: 1 -->
<svg width="1816pt" height="288pt"
 viewBox="0.00 0.00 1815.68 288.00" xmlns="http://www.w3.org/2000/svg" xmlns:xlink="http://www.w3.org/1999/xlink">
<g id="graph0" class="graph" transform="scale(1 1) rotate(0) translate(4 284)">
<polygon fill="white" stroke="transparent" points="-4,4 -4,-284 1811.68,-284 1811.68,4 -4,4"/>
<!-- n1 -->
<g id="node1" class="node">
<title>n1</title>
<polygon fill="lightblue" stroke="black" points="886,-262 796.25,-280 616.75,-280 527,-262 616.75,-244 796.25,-244 886,-262"/>
<text text-anchor="middle" x="706.5" y="-258.3" font-family="Arial" font-size="14.00">Draw a fish in their habitat with labels</text>
</g>
<!-- n2 -->
<g id="node2" class="node">
<title>n2</title>
<polygon fill="#fffdd0" stroke="black" points="196.5,-158 32.5,-158 32.5,-122 196.5,-122 196.5,-158"/>
<text text-anchor="middle" x="114.5" y="-136.3" font-family="Arial" font-size="14.00">Large oval shape for fish</text>
</g>
<!-- n1&#45;&gt;n2 -->
<g id="edge1" class="edge">
<title>n1&#45;&gt;n2</title>
<path fill="none" stroke="black" d="M622.62,-244C512.71,-221.72 320.57,-182.77 206.68,-159.69"/>
<polygon fill="black" stroke="black" points="207.09,-156.2 196.59,-157.64 205.69,-163.06 207.09,-156.2"/>
</g>
<!-- n4 -->
<g id="node3" class="node">
<title>n4</title>
<polygon fill="#fffdd0" stroke="black" points="401.5,-158 263.5,-158 263.5,-122 401.5,-122 401.5,-158"/>
<text text-anchor="middle" x="332.5" y="-136.3" font-family="Arial" font-size="14.00">Wavy lines for water</text>
</g>
<!-- n1&#45;&gt;n4 -->
<g id="edge2" class="edge">
<title>n1&#45;&gt;n4</title>
<path fill="none" stroke="black" d="M653.31,-243.93C585.32,-222.12 467.77,-184.4 395.41,-161.18"/>
<polygon fill="black" stroke="black" points="396.09,-157.72 385.5,-158.01 393.96,-164.39 396.09,-157.72"/>
</g>
<!-- n6 -->
<g id="node4" class="node">
<title>n6</title>
<polygon fill="lightcoral" stroke="black" points="706.5,-158 459,-140 706.5,-122 954,-140 706.5,-158"/>
<text text-anchor="middle" x="706.5" y="-136.3" font-family="Arial" font-size="14.00">Lacks labels and details for survival needs</text>
</g>
<!-- n1&#45;&gt;n6 -->
<g id="edge3" class="edge">
<title>n1&#45;&gt;n6</title>
<path fill="none" stroke="black" d="M706.5,-243.81C706.5,-224.11 706.5,-191.58 706.5,-168.39"/>
<polygon fill="black" stroke="black" points="710,-168.16 706.5,-158.16 703,-168.16 710,-168.16"/>
</g>
<!-- n8 -->
<g id="node5" class="node">
<title>n8</title>
<polygon fill="lightcoral" stroke="black" points="1223.5,-158 1012,-140 1223.5,-122 1435,-140 1223.5,-158"/>
<text text-anchor="middle" x="1223.5" y="-136.3" font-family="Arial" font-size="14.00">No other plants or animals depicted</text>
</g>
<!-- n1&#45;&gt;n8 -->
<g id="edge4" class="edge">
<title>n1&#45;&gt;n8</title>
<path fill="none" stroke="black" d="M779.75,-244C881.45,-220.39 1063.7,-178.08 1160,-155.74"/>
<polygon fill="black" stroke="black" points="1160.95,-159.11 1169.9,-153.45 1159.37,-152.29 1160.95,-159.11"/>
</g>
<!-- n10 -->
<g id="node6" class="node">
<title>n10</title>
<polygon fill="lightcoral" stroke="black" points="1650.5,-158 1493.15,-140 1650.5,-122 1807.85,-140 1650.5,-158"/>
<text text-anchor="middle" x="1650.5" y="-136.3" font-family="Arial" font-size="14.00">No system representation</text>
</g>
<!-- n1&#45;&gt;n10 -->
<g id="edge5" class="edge">
<title>n1&#45;&gt;n10</title>
<path fill="none" stroke="black" d="M813.41,-247.41C1004.3,-223.15 1399.6,-172.89 1569.8,-151.26"/>
<polygon fill="black" stroke="black" points="1570.42,-154.71 1579.9,-149.97 1569.54,-147.77 1570.42,-154.71"/>
</g>
<!-- n3 -->
<g id="node7" class="node">
<title>n3</title>
<path fill="palegreen" stroke="black" d="M179,-36C179,-36 12,-36 12,-36 6,-36 0,-30 0,-24 0,-24 0,-12 0,-12 0,-6 6,0 12,0 12,0 179,0 179,0 185,0 191,-6 191,-12 191,-12 191,-24 191,-24 191,-30 185,-36 179,-36"/>
<text text-anchor="middle" x="95.5" y="-14.3" font-family="Arial" font-size="14.00">Fish is correct representation</text>
</g>
<!-- n2&#45;&gt;n3 -->
<g id="edge6" class="edge">
<title>n2&#45;&gt;n3</title>
<path fill="none" stroke="black" d="M111.78,-121.81C108.65,-102.02 103.46,-69.29 99.79,-46.08"/>
<polygon fill="black" stroke="black" points="103.24,-45.49 98.22,-36.16 96.32,-46.59 103.24,-45.49"/>
</g>
<!-- n5 -->
<g id="node8" class="node">
<title>n5</title>
<path fill="palegreen" stroke="black" d="M424,-36C424,-36 261,-36 261,-36 255,-36 249,-30 249,-24 249,-24 249,-12 249,-12 249,-6 255,0 261,0 261,0 424,0 424,0 430,0 436,-6 436,-12 436,-12 436,-24 436,-24 436,-30 430,-36 424,-36"/>
<text text-anchor="middle" x="342.5" y="-14.3" font-family="Arial" font-size="14.00">Shows water in fish&#39;s habitat</text>
</g>
<!-- n4&#45;&gt;n5 -->
<g id="edge7" class="edge">
<title>n4&#45;&gt;n5</title>
<path fill="none" stroke="black" d="M333.93,-121.81C335.57,-102.11 338.28,-69.58 340.22,-46.39"/>
<polygon fill="black" stroke="black" points="343.73,-46.42 341.07,-36.16 336.75,-45.84 343.73,-46.42"/>
</g>
<!-- n7 -->
<g id="node9" class="node">
<title>n7</title>
<polygon fill="#f28e8e" stroke="black" points="830,-36 583,-36 583,0 830,0 830,-36"/>
<text text-anchor="middle" x="706.5" y="-14.3" font-family="Arial" font-size="14.00">Add labels and details like food for fish</text>
</g>
<!-- n6&#45;&gt;n7 -->
<g id="edge8" class="edge">
<title>n6&#45;&gt;n7</title>
<path fill="none" stroke="black" d="M706.5,-121.81C706.5,-102.11 706.5,-69.58 706.5,-46.39"/>
<polygon fill="black" stroke="black" points="710,-46.16 706.5,-36.16 703,-46.16 710,-46.16"/>
</g>
<!-- n9 -->
<g id="node10" class="node">
<title>n9</title>
<polygon fill="#f28e8e" stroke="black" points="1345.5,-36 1101.5,-36 1101.5,0 1345.5,0 1345.5,-36"/>
<text text-anchor="middle" x="1223.5" y="-14.3" font-family="Arial" font-size="14.00">Include plants/animals and label them</text>
</g>
<!-- n8&#45;&gt;n9 -->
<g id="edge9" class="edge">
<title>n8&#45;&gt;n9</title>
<path fill="none" stroke="black" d="M1223.5,-121.81C1223.5,-102.11 1223.5,-69.58 1223.5,-46.39"/>
<polygon fill="black" stroke="black" points="1227,-46.16 1223.5,-36.16 1220,-46.16 1227,-46.16"/>
</g>
<!-- n11 -->
<g id="node11" class="node">
<title>n11</title>
<polygon fill="#f28e8e" stroke="black" points="1788,-36 1513,-36 1513,0 1788,0 1788,-36"/>
<text text-anchor="middle" x="1650.5" y="-14.3" font-family="Arial" font-size="14.00">Show interactions within the habitat system</text>
</g>
<!-- n10&#45;&gt;n11 -->
<g id="edge10" class="edge">
<title>n10&#45;&gt;n11</title>
<path fill="none" stroke="black" d="M1650.5,-121.81C1650.5,-102.11 1650.5,-69.58 1650.5,-46.39"/>
<polygon fill="black" stroke="black" points="1654,-46.16 1650.5,-36.16 1647,-46.16 1654,-46.16"/>
</g>
</g>
</svg>
