<?xml version="1.0" encoding="UTF-8" standalone="no"?>
<!DOCTYPE svg PUBLIC "-//W3C//DTD SVG 1.1//EN"
 "http://www.w3.org/Graphics/SVG/1.1/DTD/svg11.dtd">
<!-- Generated by graphviz version 2.43.0 (0)
 -->
<!-- Pages: 1 -->
<svg width="2811pt" height="410pt"
 viewBox="0.00 0.00 2810.61 410.00" xmlns="http://www.w3.org/2000/svg" xmlns:xlink="http://www.w3.org/1999/xlink">
<g id="graph0" class="graph" transform="scale(1 1) rotate(0) translate(4 406)">
<polygon fill="white" stroke="transparent" points="-4,4 -4,-406 2806.61,-406 2806.61,4 -4,4"/>
<!-- n1 -->
<g id="node1" class="node">
<title>n1</title>
<polygon fill="lightblue" stroke="black" points="1532.37,-384 1389.69,-402 1104.31,-402 961.63,-384 1104.31,-366 1389.69,-366 1532.37,-384"/>
<text text-anchor="middle" x="1247" y="-380.3" font-family="Arial" font-size="14.00">Draw animals in their habitats with labels (e.g., fish in water).</text>
</g>
<!-- n2 -->
<g id="node2" class="node">
<title>n2</title>
<polygon fill="#fffdd0" stroke="black" points="499.5,-280 236.5,-280 236.5,-244 499.5,-244 499.5,-280"/>
<text text-anchor="middle" x="368" y="-258.3" font-family="Arial" font-size="14.00">Bear near a river labeled &#39;bear&#39; and &#39;river&#39;</text>
</g>
<!-- n1&#45;&gt;n2 -->
<g id="edge1" class="edge">
<title>n1&#45;&gt;n2</title>
<path fill="none" stroke="black" d="M1122.5,-366C958.54,-343.62 671.48,-304.43 502.66,-281.38"/>
<polygon fill="black" stroke="black" points="503.1,-277.91 492.72,-280.03 502.16,-284.84 503.1,-277.91"/>
</g>
<!-- n3 -->
<g id="node3" class="node">
<title>n3</title>
<polygon fill="#fffdd0" stroke="black" points="975.5,-280 632.5,-280 632.5,-244 975.5,-244 975.5,-280"/>
<text text-anchor="middle" x="804" y="-258.3" font-family="Arial" font-size="14.00">Bird in a tree with a nest labeled &#39;bird&#39;, &#39;tree&#39;, and &#39;nest&#39;</text>
</g>
<!-- n1&#45;&gt;n3 -->
<g id="edge2" class="edge">
<title>n1&#45;&gt;n3</title>
<path fill="none" stroke="black" d="M1184,-365.93C1102.9,-343.96 962.23,-305.86 876.68,-282.69"/>
<polygon fill="black" stroke="black" points="877.35,-279.24 866.78,-280.01 875.52,-286 877.35,-279.24"/>
</g>
<!-- n4 -->
<g id="node4" class="node">
<title>n4</title>
<polygon fill="#fffdd0" stroke="black" points="1402.5,-280 1091.5,-280 1091.5,-244 1402.5,-244 1402.5,-280"/>
<text text-anchor="middle" x="1247" y="-258.3" font-family="Arial" font-size="14.00">Fish swimming in a pond labeled &#39;fish&#39; and &#39;pond&#39;</text>
</g>
<!-- n1&#45;&gt;n4 -->
<g id="edge3" class="edge">
<title>n1&#45;&gt;n4</title>
<path fill="none" stroke="black" d="M1247,-365.81C1247,-346.11 1247,-313.58 1247,-290.39"/>
<polygon fill="black" stroke="black" points="1250.5,-290.16 1247,-280.16 1243.5,-290.16 1250.5,-290.16"/>
</g>
<!-- n5 -->
<g id="node5" class="node">
<title>n5</title>
<polygon fill="#fffdd0" stroke="black" points="1844.5,-280 1529.5,-280 1529.5,-244 1844.5,-244 1844.5,-280"/>
<text text-anchor="middle" x="1687" y="-258.3" font-family="Arial" font-size="14.00">Rabbit in a meadow labeled &#39;rabbit&#39; and &#39;meadow&#39;</text>
</g>
<!-- n1&#45;&gt;n5 -->
<g id="edge4" class="edge">
<title>n1&#45;&gt;n5</title>
<path fill="none" stroke="black" d="M1309.6,-365.93C1390.1,-343.96 1529.8,-305.86 1614.8,-282.69"/>
<polygon fill="black" stroke="black" points="1615.88,-286.02 1624.6,-280.01 1614.03,-279.27 1615.88,-286.02"/>
</g>
<!-- n6 -->
<g id="node6" class="node">
<title>n6</title>
<polygon fill="#fffdd0" stroke="black" points="2412,-280 2080,-280 2080,-244 2412,-244 2412,-280"/>
<text text-anchor="middle" x="2246" y="-258.3" font-family="Arial" font-size="14.00">Flowers and bees interaction (not all flowers labeled)</text>
</g>
<!-- n1&#45;&gt;n6 -->
<g id="edge5" class="edge">
<title>n1&#45;&gt;n6</title>
<path fill="none" stroke="black" d="M1388.5,-366C1575.2,-343.58 1902.4,-304.27 2094.1,-281.25"/>
<polygon fill="black" stroke="black" points="2094.79,-284.69 2104.3,-280.03 2093.96,-277.74 2094.79,-284.69"/>
</g>
<!-- n8 -->
<g id="node7" class="node">
<title>n8</title>
<path fill="palegreen" stroke="black" d="M456,-158C456,-158 12,-158 12,-158 6,-158 0,-152 0,-146 0,-146 0,-134 0,-134 0,-128 6,-122 12,-122 12,-122 456,-122 456,-122 462,-122 468,-128 468,-134 468,-134 468,-146 468,-146 468,-152 462,-158 456,-158"/>
<text text-anchor="middle" x="234" y="-136.3" font-family="Arial" font-size="14.00">Correctly labeled bear and river indicate understanding of mammal habitats</text>
</g>
<!-- n2&#45;&gt;n8 -->
<g id="edge6" class="edge">
<title>n2&#45;&gt;n8</title>
<path fill="none" stroke="black" d="M348.8,-243.81C325.72,-223.13 286.83,-188.31 260.8,-165"/>
<polygon fill="black" stroke="black" points="262.94,-162.22 253.16,-158.16 258.28,-167.44 262.94,-162.22"/>
</g>
<!-- n9 -->
<g id="node8" class="node">
<title>n9</title>
<path fill="palegreen" stroke="black" d="M954,-158C954,-158 538,-158 538,-158 532,-158 526,-152 526,-146 526,-146 526,-134 526,-134 526,-128 532,-122 538,-122 538,-122 954,-122 954,-122 960,-122 966,-128 966,-134 966,-134 966,-146 966,-146 966,-152 960,-158 954,-158"/>
<text text-anchor="middle" x="746" y="-136.3" font-family="Arial" font-size="14.00">Correctly labeled bird, tree, and nest show understanding of bird needs</text>
</g>
<!-- n3&#45;&gt;n9 -->
<g id="edge7" class="edge">
<title>n3&#45;&gt;n9</title>
<path fill="none" stroke="black" d="M795.69,-243.81C786.04,-223.85 770.02,-190.7 758.78,-167.45"/>
<polygon fill="black" stroke="black" points="761.79,-165.64 754.29,-158.16 755.49,-168.69 761.79,-165.64"/>
</g>
<!-- n10 -->
<g id="node9" class="node">
<title>n10</title>
<path fill="palegreen" stroke="black" d="M1458,-158C1458,-158 1036,-158 1036,-158 1030,-158 1024,-152 1024,-146 1024,-146 1024,-134 1024,-134 1024,-128 1030,-122 1036,-122 1036,-122 1458,-122 1458,-122 1464,-122 1470,-128 1470,-134 1470,-134 1470,-146 1470,-146 1470,-152 1464,-158 1458,-158"/>
<text text-anchor="middle" x="1247" y="-136.3" font-family="Arial" font-size="14.00">Correctly labeled fish and pond reflect understanding of aquatic habitats</text>
</g>
<!-- n4&#45;&gt;n10 -->
<g id="edge8" class="edge">
<title>n4&#45;&gt;n10</title>
<path fill="none" stroke="black" d="M1247,-243.81C1247,-224.11 1247,-191.58 1247,-168.39"/>
<polygon fill="black" stroke="black" points="1250.5,-168.16 1247,-158.16 1243.5,-168.16 1250.5,-168.16"/>
</g>
<!-- n11 -->
<g id="node10" class="node">
<title>n11</title>
<path fill="palegreen" stroke="black" d="M1973.5,-158C1973.5,-158 1540.5,-158 1540.5,-158 1534.5,-158 1528.5,-152 1528.5,-146 1528.5,-146 1528.5,-134 1528.5,-134 1528.5,-128 1534.5,-122 1540.5,-122 1540.5,-122 1973.5,-122 1973.5,-122 1979.5,-122 1985.5,-128 1985.5,-134 1985.5,-134 1985.5,-146 1985.5,-146 1985.5,-152 1979.5,-158 1973.5,-158"/>
<text text-anchor="middle" x="1757" y="-136.3" font-family="Arial" font-size="14.00">Correctly labeled rabbit and meadow indicates land habitat understanding</text>
</g>
<!-- n5&#45;&gt;n11 -->
<g id="edge9" class="edge">
<title>n5&#45;&gt;n11</title>
<path fill="none" stroke="black" d="M1697,-243.81C1708.8,-223.67 1728.4,-190.1 1741.9,-166.83"/>
<polygon fill="black" stroke="black" points="1744.95,-168.55 1747,-158.16 1738.91,-165 1744.95,-168.55"/>
</g>
<!-- n12 -->
<g id="node11" class="node">
<title>n12</title>
<polygon fill="lightcoral" stroke="black" points="2423,-158 2043.28,-140 2423,-122 2802.72,-140 2423,-158"/>
<text text-anchor="middle" x="2423" y="-136.3" font-family="Arial" font-size="14.00">Partial labeling suggests incomplete understanding of all elements</text>
</g>
<!-- n6&#45;&gt;n12 -->
<g id="edge10" class="edge">
<title>n6&#45;&gt;n12</title>
<path fill="none" stroke="black" d="M2271.4,-243.81C2302.9,-222.42 2356.8,-185.89 2391.1,-162.62"/>
<polygon fill="black" stroke="black" points="2393.07,-165.51 2399.4,-157.01 2389.15,-159.71 2393.07,-165.51"/>
</g>
<!-- n13 -->
<g id="node12" class="node">
<title>n13</title>
<polygon fill="#f28e8e" stroke="black" points="2618,-36 2228,-36 2228,0 2618,0 2618,-36"/>
<text text-anchor="middle" x="2423" y="-14.3" font-family="Arial" font-size="14.00">Consider checking all labels for completeness to ensure clarity</text>
</g>
<!-- n12&#45;&gt;n13 -->
<g id="edge11" class="edge">
<title>n12&#45;&gt;n13</title>
<path fill="none" stroke="black" d="M2423,-121.81C2423,-102.11 2423,-69.58 2423,-46.39"/>
<polygon fill="black" stroke="black" points="2426.5,-46.16 2423,-36.16 2419.5,-46.16 2426.5,-46.16"/>
</g>
<!-- n7 -->
<g id="node13" class="node">
<title>n7</title>
<path fill="palegreen" stroke="black" d="M1912,-402C1912,-402 1602,-402 1602,-402 1596,-402 1590,-396 1590,-390 1590,-390 1590,-378 1590,-378 1590,-372 1596,-366 1602,-366 1602,-366 1912,-366 1912,-366 1918,-366 1924,-372 1924,-378 1924,-378 1924,-390 1924,-390 1924,-396 1918,-402 1912,-402"/>
<text text-anchor="middle" x="1757" y="-380.3" font-family="Arial" font-size="14.00">Habitat drawing displays varied natural environments</text>
</g>
</g>
</svg>
