<?xml version="1.0" encoding="UTF-8" standalone="no"?>
<!DOCTYPE svg PUBLIC "-//W3C//DTD SVG 1.1//EN"
 "http://www.w3.org/Graphics/SVG/1.1/DTD/svg11.dtd">
<!-- Generated by graphviz version 2.43.0 (0)
 -->
<!-- Pages: 1 -->
<svg width="1490pt" height="410pt"
 viewBox="0.00 0.00 1489.50 410.00" xmlns="http://www.w3.org/2000/svg" xmlns:xlink="http://www.w3.org/1999/xlink">
<g id="graph0" class="graph" transform="scale(1 1) rotate(0) translate(4 406)">
<polygon fill="white" stroke="transparent" points="-4,4 -4,-406 1485.5,-406 1485.5,4 -4,4"/>
<!-- n1 -->
<g id="node1" class="node">
<title>n1</title>
<polygon fill="lightblue" stroke="black" points="720,-384 606.25,-402 378.75,-402 265,-384 378.75,-366 606.25,-366 720,-384"/>
<text text-anchor="middle" x="492.5" y="-380.3" font-family="Arial" font-size="14.00">Illustrate plants with and without water and light.</text>
</g>
<!-- n2 -->
<g id="node2" class="node">
<title>n2</title>
<polygon fill="#fffdd0" stroke="black" points="654,-280 331,-280 331,-244 654,-244 654,-280"/>
<text text-anchor="middle" x="492.5" y="-258.3" font-family="Arial" font-size="14.00">Drawing of two basic plant shapes with green color.</text>
</g>
<!-- n1&#45;&gt;n2 -->
<g id="edge1" class="edge">
<title>n1&#45;&gt;n2</title>
<path fill="none" stroke="black" d="M492.5,-365.81C492.5,-346.11 492.5,-313.58 492.5,-290.39"/>
<polygon fill="black" stroke="black" points="496,-290.16 492.5,-280.16 489,-290.16 496,-290.16"/>
</g>
<!-- n3 -->
<g id="node3" class="node">
<title>n3</title>
<path fill="palegreen" stroke="black" d="M107,-158C107,-158 12,-158 12,-158 6,-158 0,-152 0,-146 0,-146 0,-134 0,-134 0,-128 6,-122 12,-122 12,-122 107,-122 107,-122 113,-122 119,-128 119,-134 119,-134 119,-146 119,-146 119,-152 113,-158 107,-158"/>
<text text-anchor="middle" x="59.5" y="-136.3" font-family="Arial" font-size="14.00">Plants are green.</text>
</g>
<!-- n2&#45;&gt;n3 -->
<g id="edge2" class="edge">
<title>n2&#45;&gt;n3</title>
<path fill="none" stroke="black" d="M430.92,-243.93C351.08,-221.81 212.21,-183.32 128.77,-160.2"/>
<polygon fill="black" stroke="black" points="129.7,-156.83 119.13,-157.52 127.83,-163.57 129.7,-156.83"/>
</g>
<!-- n4 -->
<g id="node4" class="node">
<title>n4</title>
<polygon fill="lightcoral" stroke="black" points="492.5,-158 177,-140 492.5,-122 808,-140 492.5,-158"/>
<text text-anchor="middle" x="492.5" y="-136.3" font-family="Arial" font-size="14.00">No differentiation between plants with or without water.</text>
</g>
<!-- n2&#45;&gt;n4 -->
<g id="edge3" class="edge">
<title>n2&#45;&gt;n4</title>
<path fill="none" stroke="black" d="M492.5,-243.81C492.5,-224.11 492.5,-191.58 492.5,-168.39"/>
<polygon fill="black" stroke="black" points="496,-168.16 492.5,-158.16 489,-168.16 496,-168.16"/>
</g>
<!-- n5 -->
<g id="node5" class="node">
<title>n5</title>
<polygon fill="lightcoral" stroke="black" points="1173.5,-158 865.5,-140 1173.5,-122 1481.5,-140 1173.5,-158"/>
<text text-anchor="middle" x="1173.5" y="-136.3" font-family="Arial" font-size="14.00">No differentiation between plants with or without light.</text>
</g>
<!-- n2&#45;&gt;n5 -->
<g id="edge4" class="edge">
<title>n2&#45;&gt;n5</title>
<path fill="none" stroke="black" d="M588.99,-244C723.31,-220.33 964.38,-177.85 1090.9,-155.56"/>
<polygon fill="black" stroke="black" points="1091.66,-158.98 1100.9,-153.8 1090.44,-152.09 1091.66,-158.98"/>
</g>
<!-- n6 -->
<g id="node6" class="node">
<title>n6</title>
<polygon fill="#f28e8e" stroke="black" points="661.5,-36 323.5,-36 323.5,0 661.5,0 661.5,-36"/>
<text text-anchor="middle" x="492.5" y="-14.3" font-family="Arial" font-size="14.00">Use wilted or dry appearance for plants without water.</text>
</g>
<!-- n4&#45;&gt;n6 -->
<g id="edge5" class="edge">
<title>n4&#45;&gt;n6</title>
<path fill="none" stroke="black" d="M492.5,-121.81C492.5,-102.11 492.5,-69.58 492.5,-46.39"/>
<polygon fill="black" stroke="black" points="496,-46.16 492.5,-36.16 489,-46.16 496,-46.16"/>
</g>
<!-- n7 -->
<g id="node7" class="node">
<title>n7</title>
<polygon fill="#f28e8e" stroke="black" points="1350.5,-36 996.5,-36 996.5,0 1350.5,0 1350.5,-36"/>
<text text-anchor="middle" x="1173.5" y="-14.3" font-family="Arial" font-size="14.00">Use pale or ungrown appearance for plants without light.</text>
</g>
<!-- n5&#45;&gt;n7 -->
<g id="edge6" class="edge">
<title>n5&#45;&gt;n7</title>
<path fill="none" stroke="black" d="M1173.5,-121.81C1173.5,-102.11 1173.5,-69.58 1173.5,-46.39"/>
<polygon fill="black" stroke="black" points="1177,-46.16 1173.5,-36.16 1170,-46.16 1177,-46.16"/>
</g>
</g>
</svg>
