<?xml version="1.0" encoding="UTF-8" standalone="no"?>
<!DOCTYPE svg PUBLIC "-//W3C//DTD SVG 1.1//EN"
 "http://www.w3.org/Graphics/SVG/1.1/DTD/svg11.dtd">
<!-- Generated by graphviz version 2.43.0 (0)
 -->
<!-- Pages: 1 -->
<svg width="1731pt" height="410pt"
 viewBox="0.00 0.00 1730.50 410.00" xmlns="http://www.w3.org/2000/svg" xmlns:xlink="http://www.w3.org/1999/xlink">
<g id="graph0" class="graph" transform="scale(1 1) rotate(0) translate(4 406)">
<polygon fill="white" stroke="transparent" points="-4,4 -4,-406 1726.5,-406 1726.5,4 -4,4"/>
<!-- n1 -->
<g id="node1" class="node">
<title>n1</title>
<polygon fill="lightblue" stroke="black" points="1037.5,-384 907.25,-402 646.75,-402 516.5,-384 646.75,-366 907.25,-366 1037.5,-384"/>
<text text-anchor="middle" x="777" y="-380.3" font-family="Arial" font-size="14.00">Draw two habitats and the different living things in each</text>
</g>
<!-- n2 -->
<g id="node2" class="node">
<title>n2</title>
<polygon fill="#fffdd0" stroke="black" points="398,-280 0,-280 0,-244 398,-244 398,-280"/>
<text text-anchor="middle" x="199" y="-258.3" font-family="Arial" font-size="14.00">Forest with tall green trees, ferns, small bushes, colorful flowers</text>
</g>
<!-- n1&#45;&gt;n2 -->
<g id="edge1" class="edge">
<title>n1&#45;&gt;n2</title>
<path fill="none" stroke="black" d="M695.11,-366C588.39,-343.84 402.31,-305.21 290.89,-282.08"/>
<polygon fill="black" stroke="black" points="291.51,-278.63 281.01,-280.03 290.09,-285.49 291.51,-278.63"/>
</g>
<!-- n3 -->
<g id="node3" class="node">
<title>n3</title>
<polygon fill="#fffdd0" stroke="black" points="739.5,-280 456.5,-280 456.5,-244 739.5,-244 739.5,-280"/>
<text text-anchor="middle" x="598" y="-258.3" font-family="Arial" font-size="14.00">Deer, bird sitting in a tree, squirrel on ground</text>
</g>
<!-- n1&#45;&gt;n3 -->
<g id="edge2" class="edge">
<title>n1&#45;&gt;n3</title>
<path fill="none" stroke="black" d="M751.35,-365.81C719.98,-344.78 666.78,-309.11 632.01,-285.8"/>
<polygon fill="black" stroke="black" points="633.85,-282.82 623.6,-280.16 629.96,-288.64 633.85,-282.82"/>
</g>
<!-- n4 -->
<g id="node4" class="node">
<title>n4</title>
<polygon fill="#fffdd0" stroke="black" points="1116.5,-280 797.5,-280 797.5,-244 1116.5,-244 1116.5,-280"/>
<text text-anchor="middle" x="957" y="-258.3" font-family="Arial" font-size="14.00">Pond with water lilies, cattails, grass around edges</text>
</g>
<!-- n1&#45;&gt;n4 -->
<g id="edge3" class="edge">
<title>n1&#45;&gt;n4</title>
<path fill="none" stroke="black" d="M802.79,-365.81C834.33,-344.78 887.84,-309.11 922.8,-285.8"/>
<polygon fill="black" stroke="black" points="924.88,-288.62 931.26,-280.16 921,-282.79 924.88,-288.62"/>
</g>
<!-- n5 -->
<g id="node5" class="node">
<title>n5</title>
<polygon fill="#fffdd0" stroke="black" points="1467,-280 1255,-280 1255,-244 1467,-244 1467,-280"/>
<text text-anchor="middle" x="1361" y="-258.3" font-family="Arial" font-size="14.00">Frog, fish in water, duck on pond</text>
</g>
<!-- n1&#45;&gt;n5 -->
<g id="edge4" class="edge">
<title>n1&#45;&gt;n5</title>
<path fill="none" stroke="black" d="M859.74,-366C967.56,-343.84 1155.6,-305.21 1268.2,-282.08"/>
<polygon fill="black" stroke="black" points="1269.02,-285.49 1278.1,-280.03 1267.6,-278.63 1269.02,-285.49"/>
</g>
<!-- n6 -->
<g id="node6" class="node">
<title>n6</title>
<path fill="palegreen" stroke="black" d="M335.5,-158C335.5,-158 62.5,-158 62.5,-158 56.5,-158 50.5,-152 50.5,-146 50.5,-146 50.5,-134 50.5,-134 50.5,-128 56.5,-122 62.5,-122 62.5,-122 335.5,-122 335.5,-122 341.5,-122 347.5,-128 347.5,-134 347.5,-134 347.5,-146 347.5,-146 347.5,-152 341.5,-158 335.5,-158"/>
<text text-anchor="middle" x="199" y="-136.3" font-family="Arial" font-size="14.00">Understands diversity of plants in forest habitat</text>
</g>
<!-- n2&#45;&gt;n6 -->
<g id="edge5" class="edge">
<title>n2&#45;&gt;n6</title>
<path fill="none" stroke="black" d="M199,-243.81C199,-224.11 199,-191.58 199,-168.39"/>
<polygon fill="black" stroke="black" points="202.5,-168.16 199,-158.16 195.5,-168.16 202.5,-168.16"/>
</g>
<!-- n7 -->
<g id="node7" class="node">
<title>n7</title>
<path fill="palegreen" stroke="black" d="M740,-158C740,-158 456,-158 456,-158 450,-158 444,-152 444,-146 444,-146 444,-134 444,-134 444,-128 450,-122 456,-122 456,-122 740,-122 740,-122 746,-122 752,-128 752,-134 752,-134 752,-146 752,-146 752,-152 746,-158 740,-158"/>
<text text-anchor="middle" x="598" y="-136.3" font-family="Arial" font-size="14.00">Understands diversity of animals in forest habitat</text>
</g>
<!-- n3&#45;&gt;n7 -->
<g id="edge6" class="edge">
<title>n3&#45;&gt;n7</title>
<path fill="none" stroke="black" d="M598,-243.81C598,-224.11 598,-191.58 598,-168.39"/>
<polygon fill="black" stroke="black" points="601.5,-168.16 598,-158.16 594.5,-168.16 601.5,-168.16"/>
</g>
<!-- n8 -->
<g id="node8" class="node">
<title>n8</title>
<path fill="palegreen" stroke="black" d="M1091.5,-158C1091.5,-158 822.5,-158 822.5,-158 816.5,-158 810.5,-152 810.5,-146 810.5,-146 810.5,-134 810.5,-134 810.5,-128 816.5,-122 822.5,-122 822.5,-122 1091.5,-122 1091.5,-122 1097.5,-122 1103.5,-128 1103.5,-134 1103.5,-134 1103.5,-146 1103.5,-146 1103.5,-152 1097.5,-158 1091.5,-158"/>
<text text-anchor="middle" x="957" y="-136.3" font-family="Arial" font-size="14.00">Understands diversity of plants in pond habitat</text>
</g>
<!-- n4&#45;&gt;n8 -->
<g id="edge7" class="edge">
<title>n4&#45;&gt;n8</title>
<path fill="none" stroke="black" d="M957,-243.81C957,-224.11 957,-191.58 957,-168.39"/>
<polygon fill="black" stroke="black" points="960.5,-168.16 957,-158.16 953.5,-168.16 960.5,-168.16"/>
</g>
<!-- n9 -->
<g id="node9" class="node">
<title>n9</title>
<polygon fill="lightcoral" stroke="black" points="1442,-158 1161.5,-140 1442,-122 1722.5,-140 1442,-158"/>
<text text-anchor="middle" x="1442" y="-136.3" font-family="Arial" font-size="14.00">Understands diversity of animals in pond habitat</text>
</g>
<!-- n5&#45;&gt;n9 -->
<g id="edge8" class="edge">
<title>n5&#45;&gt;n9</title>
<path fill="none" stroke="black" d="M1372.6,-243.81C1386.4,-223.35 1409.6,-189.04 1425.3,-165.73"/>
<polygon fill="black" stroke="black" points="1428.23,-167.64 1430.9,-157.39 1422.42,-163.74 1428.23,-167.64"/>
</g>
<!-- n10 -->
<g id="node10" class="node">
<title>n10</title>
<polygon fill="#f28e8e" stroke="black" points="1555.5,-36 1328.5,-36 1328.5,0 1555.5,0 1555.5,-36"/>
<text text-anchor="middle" x="1442" y="-14.3" font-family="Arial" font-size="14.00">Some animals inaccurately labeled</text>
</g>
<!-- n9&#45;&gt;n10 -->
<g id="edge9" class="edge">
<title>n9&#45;&gt;n10</title>
<path fill="none" stroke="black" d="M1442,-121.81C1442,-102.11 1442,-69.58 1442,-46.39"/>
<polygon fill="black" stroke="black" points="1445.5,-46.16 1442,-36.16 1438.5,-46.16 1445.5,-46.16"/>
</g>
</g>
</svg>
