<?xml version="1.0" encoding="UTF-8" standalone="no"?>
<!DOCTYPE svg PUBLIC "-//W3C//DTD SVG 1.1//EN"
 "http://www.w3.org/Graphics/SVG/1.1/DTD/svg11.dtd">
<!-- Generated by graphviz version 2.43.0 (0)
 -->
<!-- Pages: 1 -->
<svg width="1741pt" height="410pt"
 viewBox="0.00 0.00 1740.98 410.00" xmlns="http://www.w3.org/2000/svg" xmlns:xlink="http://www.w3.org/1999/xlink">
<g id="graph0" class="graph" transform="scale(1 1) rotate(0) translate(4 406)">
<polygon fill="white" stroke="transparent" points="-4,4 -4,-406 1736.98,-406 1736.98,4 -4,4"/>
<!-- n1 -->
<g id="node1" class="node">
<title>n1</title>
<polygon fill="lightblue" stroke="black" points="1329.48,-384 1199.23,-402 938.73,-402 808.48,-384 938.73,-366 1199.23,-366 1329.48,-384"/>
<text text-anchor="middle" x="1068.98" y="-380.3" font-family="Arial" font-size="14.00">Draw two habitats and the different living things in each</text>
</g>
<!-- n2 -->
<g id="node2" class="node">
<title>n2</title>
<polygon fill="#fffdd0" stroke="black" points="730,-280 534,-280 534,-244 730,-244 730,-280"/>
<text text-anchor="middle" x="632" y="-258.3" font-family="Arial" font-size="14.00">Simple forest with green trees</text>
</g>
<!-- n1&#45;&gt;n2 -->
<g id="edge1" class="edge">
<title>n1&#45;&gt;n2</title>
<path fill="none" stroke="black" d="M1006.88,-365.93C926.84,-343.96 788.09,-305.86 703.7,-282.69"/>
<polygon fill="black" stroke="black" points="704.5,-279.28 693.93,-280.01 702.65,-286.03 704.5,-279.28"/>
</g>
<!-- n3 -->
<g id="node3" class="node">
<title>n3</title>
<polygon fill="#fffdd0" stroke="black" points="476,-280 280,-280 280,-244 476,-244 476,-280"/>
<text text-anchor="middle" x="378" y="-258.3" font-family="Arial" font-size="14.00">Ocean scene with blue waves</text>
</g>
<!-- n1&#45;&gt;n3 -->
<g id="edge2" class="edge">
<title>n1&#45;&gt;n3</title>
<path fill="none" stroke="black" d="M971.1,-366C843.01,-343.75 619.27,-304.9 486.25,-281.8"/>
<polygon fill="black" stroke="black" points="486.5,-278.29 476.05,-280.03 485.3,-285.19 486.5,-278.29"/>
</g>
<!-- n4 -->
<g id="node4" class="node">
<title>n4</title>
<polygon fill="#fffdd0" stroke="black" points="1124.48,-280 1013.48,-280 1013.48,-244 1124.48,-244 1124.48,-280"/>
<text text-anchor="middle" x="1068.98" y="-258.3" font-family="Arial" font-size="14.00">Bird in the trees</text>
</g>
<!-- n1&#45;&gt;n4 -->
<g id="edge3" class="edge">
<title>n1&#45;&gt;n4</title>
<path fill="none" stroke="black" d="M1068.98,-365.81C1068.98,-346.11 1068.98,-313.58 1068.98,-290.39"/>
<polygon fill="black" stroke="black" points="1072.48,-290.16 1068.98,-280.16 1065.48,-290.16 1072.48,-290.16"/>
</g>
<!-- n5 -->
<g id="node5" class="node">
<title>n5</title>
<polygon fill="#fffdd0" stroke="black" points="1320.98,-280 1182.98,-280 1182.98,-244 1320.98,-244 1320.98,-280"/>
<text text-anchor="middle" x="1251.98" y="-258.3" font-family="Arial" font-size="14.00">Squirrel on a branch</text>
</g>
<!-- n1&#45;&gt;n5 -->
<g id="edge4" class="edge">
<title>n1&#45;&gt;n5</title>
<path fill="none" stroke="black" d="M1095.18,-365.81C1127.28,-344.78 1181.68,-309.11 1217.18,-285.8"/>
<polygon fill="black" stroke="black" points="1219.39,-288.54 1225.88,-280.16 1215.59,-282.66 1219.39,-288.54"/>
</g>
<!-- n6 -->
<g id="node6" class="node">
<title>n6</title>
<polygon fill="#fffdd0" stroke="black" points="1498.48,-280 1379.48,-280 1379.48,-244 1498.48,-244 1498.48,-280"/>
<text text-anchor="middle" x="1438.98" y="-258.3" font-family="Arial" font-size="14.00">Fish in the ocean</text>
</g>
<!-- n1&#45;&gt;n6 -->
<g id="edge5" class="edge">
<title>n1&#45;&gt;n6</title>
<path fill="none" stroke="black" d="M1121.58,-365.93C1188.88,-344.12 1305.18,-306.4 1376.78,-283.18"/>
<polygon fill="black" stroke="black" points="1378.14,-286.42 1386.58,-280.01 1375.99,-279.76 1378.14,-286.42"/>
</g>
<!-- n7 -->
<g id="node7" class="node">
<title>n7</title>
<polygon fill="#fffdd0" stroke="black" points="955.5,-280 788.5,-280 788.5,-244 955.5,-244 955.5,-280"/>
<text text-anchor="middle" x="872" y="-258.3" font-family="Arial" font-size="14.00">Large whale in the ocean</text>
</g>
<!-- n1&#45;&gt;n7 -->
<g id="edge6" class="edge">
<title>n1&#45;&gt;n7</title>
<path fill="none" stroke="black" d="M1040.78,-365.81C1006.08,-344.69 947.2,-308.81 908.95,-285.51"/>
<polygon fill="black" stroke="black" points="910.53,-282.37 900.17,-280.16 906.89,-288.35 910.53,-282.37"/>
</g>
<!-- n8 -->
<g id="node8" class="node">
<title>n8</title>
<polygon fill="#fffdd0" stroke="black" points="1692.98,-280 1556.98,-280 1556.98,-244 1692.98,-244 1692.98,-280"/>
<text text-anchor="middle" x="1624.98" y="-258.3" font-family="Arial" font-size="14.00">Strands of seaweed</text>
</g>
<!-- n1&#45;&gt;n8 -->
<g id="edge7" class="edge">
<title>n1&#45;&gt;n8</title>
<path fill="none" stroke="black" d="M1147.78,-366C1253.68,-343.14 1440.98,-302.73 1546.68,-279.91"/>
<polygon fill="black" stroke="black" points="1547.55,-283.3 1556.58,-277.76 1546.06,-276.46 1547.55,-283.3"/>
</g>
<!-- n9 -->
<g id="node9" class="node">
<title>n9</title>
<path fill="palegreen" stroke="black" d="M744.5,-158C744.5,-158 503.5,-158 503.5,-158 497.5,-158 491.5,-152 491.5,-146 491.5,-146 491.5,-134 491.5,-134 491.5,-128 497.5,-122 503.5,-122 503.5,-122 744.5,-122 744.5,-122 750.5,-122 756.5,-128 756.5,-134 756.5,-134 756.5,-146 756.5,-146 756.5,-152 750.5,-158 744.5,-158"/>
<text text-anchor="middle" x="624" y="-136.3" font-family="Arial" font-size="14.00">Identifies and draws two different habitats</text>
</g>
<!-- n2&#45;&gt;n9 -->
<g id="edge8" class="edge">
<title>n2&#45;&gt;n9</title>
<path fill="none" stroke="black" d="M630.85,-243.81C629.54,-224.11 627.37,-191.58 625.83,-168.39"/>
<polygon fill="black" stroke="black" points="629.31,-167.91 625.15,-158.16 622.32,-168.37 629.31,-167.91"/>
</g>
<!-- n10 -->
<g id="node10" class="node">
<title>n10</title>
<path fill="palegreen" stroke="black" d="M1097,-158C1097,-158 827,-158 827,-158 821,-158 815,-152 815,-146 815,-146 815,-134 815,-134 815,-128 821,-122 827,-122 827,-122 1097,-122 1097,-122 1103,-122 1109,-128 1109,-134 1109,-134 1109,-146 1109,-146 1109,-152 1103,-158 1097,-158"/>
<text text-anchor="middle" x="962" y="-136.3" font-family="Arial" font-size="14.00">Illustrates different kinds of plants and animals</text>
</g>
<!-- n2&#45;&gt;n10 -->
<g id="edge9" class="edge">
<title>n2&#45;&gt;n10</title>
<path fill="none" stroke="black" d="M678.93,-243.93C738.68,-222.21 841.8,-184.71 905.71,-161.47"/>
<polygon fill="black" stroke="black" points="907.03,-164.72 915.23,-158.01 904.64,-158.14 907.03,-164.72"/>
</g>
<!-- n11 -->
<g id="node11" class="node">
<title>n11</title>
<polygon fill="lightcoral" stroke="black" points="217,-158 0,-140 217,-122 434,-140 217,-158"/>
<text text-anchor="middle" x="217" y="-136.3" font-family="Arial" font-size="14.00">Limited variety of plants and animals</text>
</g>
<!-- n2&#45;&gt;n11 -->
<g id="edge10" class="edge">
<title>n2&#45;&gt;n11</title>
<path fill="none" stroke="black" d="M572.98,-243.93C492.83,-220.76 350.6,-179.63 272.38,-157.01"/>
<polygon fill="black" stroke="black" points="273.29,-153.63 262.71,-154.22 271.35,-160.36 273.29,-153.63"/>
</g>
<!-- n3&#45;&gt;n9 -->
<g id="edge11" class="edge">
<title>n3&#45;&gt;n9</title>
<path fill="none" stroke="black" d="M412.99,-243.93C456.88,-222.52 532.19,-185.78 579.97,-162.48"/>
<polygon fill="black" stroke="black" points="581.68,-165.54 589.14,-158.01 578.62,-159.25 581.68,-165.54"/>
</g>
<!-- n3&#45;&gt;n10 -->
<g id="edge12" class="edge">
<title>n3&#45;&gt;n10</title>
<path fill="none" stroke="black" d="M460.74,-244C568.57,-221.84 756.58,-183.21 869.16,-160.08"/>
<polygon fill="black" stroke="black" points="870.05,-163.47 879.14,-158.03 868.64,-156.61 870.05,-163.47"/>
</g>
<!-- n3&#45;&gt;n11 -->
<g id="edge13" class="edge">
<title>n3&#45;&gt;n11</title>
<path fill="none" stroke="black" d="M354.93,-243.81C326.32,-222.48 277.51,-186.1 246.29,-162.83"/>
<polygon fill="black" stroke="black" points="248.09,-159.8 237.98,-156.63 243.9,-165.42 248.09,-159.8"/>
</g>
<!-- n4&#45;&gt;n10 -->
<g id="edge14" class="edge">
<title>n4&#45;&gt;n10</title>
<path fill="none" stroke="black" d="M1053.68,-243.81C1035.48,-223.4 1004.98,-189.21 984.21,-165.91"/>
<polygon fill="black" stroke="black" points="986.57,-163.29 977.3,-158.16 981.34,-167.95 986.57,-163.29"/>
</g>
<!-- n13 -->
<g id="node12" class="node">
<title>n13</title>
<path fill="palegreen" stroke="black" d="M1462.98,-158C1462.98,-158 1178.98,-158 1178.98,-158 1172.98,-158 1166.98,-152 1166.98,-146 1166.98,-146 1166.98,-134 1166.98,-134 1166.98,-128 1172.98,-122 1178.98,-122 1178.98,-122 1462.98,-122 1462.98,-122 1468.98,-122 1474.98,-128 1474.98,-134 1474.98,-134 1474.98,-146 1474.98,-146 1474.98,-152 1468.98,-158 1462.98,-158"/>
<text text-anchor="middle" x="1320.98" y="-136.3" font-family="Arial" font-size="14.00">Shows comparison through different living things</text>
</g>
<!-- n4&#45;&gt;n13 -->
<g id="edge15" class="edge">
<title>n4&#45;&gt;n13</title>
<path fill="none" stroke="black" d="M1104.88,-243.93C1149.88,-222.48 1227.28,-185.63 1276.18,-162.33"/>
<polygon fill="black" stroke="black" points="1277.75,-165.46 1285.28,-158.01 1274.75,-159.14 1277.75,-165.46"/>
</g>
<!-- n5&#45;&gt;n10 -->
<g id="edge16" class="edge">
<title>n5&#45;&gt;n10</title>
<path fill="none" stroke="black" d="M1210.78,-243.93C1158.58,-222.34 1068.78,-185.17 1012.48,-161.9"/>
<polygon fill="black" stroke="black" points="1013.66,-158.6 1003.08,-158.01 1010.98,-165.07 1013.66,-158.6"/>
</g>
<!-- n5&#45;&gt;n13 -->
<g id="edge17" class="edge">
<title>n5&#45;&gt;n13</title>
<path fill="none" stroke="black" d="M1261.88,-243.81C1273.48,-223.67 1292.78,-190.1 1306.18,-166.83"/>
<polygon fill="black" stroke="black" points="1309.22,-168.57 1311.18,-158.16 1303.15,-165.07 1309.22,-168.57"/>
</g>
<!-- n6&#45;&gt;n10 -->
<g id="edge18" class="edge">
<title>n6&#45;&gt;n10</title>
<path fill="none" stroke="black" d="M1379.08,-245.92C1293.08,-224.28 1134.48,-184.39 1039.58,-160.52"/>
<polygon fill="black" stroke="black" points="1040.33,-157.1 1029.78,-158.04 1038.62,-163.89 1040.33,-157.1"/>
</g>
<!-- n6&#45;&gt;n13 -->
<g id="edge19" class="edge">
<title>n6&#45;&gt;n13</title>
<path fill="none" stroke="black" d="M1422.08,-243.81C1401.88,-223.22 1367.78,-188.61 1344.88,-165.3"/>
<polygon fill="black" stroke="black" points="1347.38,-162.85 1337.88,-158.16 1342.38,-167.75 1347.38,-162.85"/>
</g>
<!-- n7&#45;&gt;n10 -->
<g id="edge20" class="edge">
<title>n7&#45;&gt;n10</title>
<path fill="none" stroke="black" d="M884.9,-243.81C900.13,-223.49 925.62,-189.51 943.09,-166.21"/>
<polygon fill="black" stroke="black" points="945.93,-168.26 949.13,-158.16 940.33,-164.06 945.93,-168.26"/>
</g>
<!-- n7&#45;&gt;n13 -->
<g id="edge21" class="edge">
<title>n7&#45;&gt;n13</title>
<path fill="none" stroke="black" d="M935.86,-243.93C1018.18,-221.94 1160.88,-183.78 1247.58,-160.62"/>
<polygon fill="black" stroke="black" points="1248.62,-163.97 1257.38,-158.01 1246.82,-157.2 1248.62,-163.97"/>
</g>
<!-- n8&#45;&gt;n10 -->
<g id="edge22" class="edge">
<title>n8&#45;&gt;n10</title>
<path fill="none" stroke="black" d="M1556.88,-248.67C1440.68,-227.63 1203.38,-184.69 1066.28,-159.87"/>
<polygon fill="black" stroke="black" points="1066.64,-156.38 1056.18,-158.04 1065.4,-163.27 1066.64,-156.38"/>
</g>
<!-- n14 -->
<g id="node13" class="node">
<title>n14</title>
<path fill="palegreen" stroke="black" d="M1720.98,-158C1720.98,-158 1544.98,-158 1544.98,-158 1538.98,-158 1532.98,-152 1532.98,-146 1532.98,-146 1532.98,-134 1532.98,-134 1532.98,-128 1538.98,-122 1544.98,-122 1544.98,-122 1720.98,-122 1720.98,-122 1726.98,-122 1732.98,-128 1732.98,-134 1732.98,-134 1732.98,-146 1732.98,-146 1732.98,-152 1726.98,-158 1720.98,-158"/>
<text text-anchor="middle" x="1632.98" y="-136.3" font-family="Arial" font-size="14.00">Patterns demonstrate diversity</text>
</g>
<!-- n8&#45;&gt;n14 -->
<g id="edge23" class="edge">
<title>n8&#45;&gt;n14</title>
<path fill="none" stroke="black" d="M1626.18,-243.81C1627.48,-224.11 1629.58,-191.58 1631.18,-168.39"/>
<polygon fill="black" stroke="black" points="1634.69,-168.38 1631.88,-158.16 1627.71,-167.9 1634.69,-168.38"/>
</g>
<!-- n12 -->
<g id="node14" class="node">
<title>n12</title>
<polygon fill="#f28e8e" stroke="black" points="342.5,-36 91.5,-36 91.5,0 342.5,0 342.5,-36"/>
<text text-anchor="middle" x="217" y="-14.3" font-family="Arial" font-size="14.00">Use more variety in plants and animals</text>
</g>
<!-- n11&#45;&gt;n12 -->
<g id="edge24" class="edge">
<title>n11&#45;&gt;n12</title>
<path fill="none" stroke="black" d="M217,-121.81C217,-102.11 217,-69.58 217,-46.39"/>
<polygon fill="black" stroke="black" points="220.5,-46.16 217,-36.16 213.5,-46.16 220.5,-46.16"/>
</g>
</g>
</svg>
