<?xml version="1.0" encoding="UTF-8" standalone="no"?>
<!DOCTYPE svg PUBLIC "-//W3C//DTD SVG 1.1//EN"
 "http://www.w3.org/Graphics/SVG/1.1/DTD/svg11.dtd">
<!-- Generated by graphviz version 2.43.0 (0)
 -->
<!-- Pages: 1 -->
<svg width="1051pt" height="410pt"
 viewBox="0.00 0.00 1051.00 410.00" xmlns="http://www.w3.org/2000/svg" xmlns:xlink="http://www.w3.org/1999/xlink">
<g id="graph0" class="graph" transform="scale(1 1) rotate(0) translate(4 406)">
<polygon fill="white" stroke="transparent" points="-4,4 -4,-406 1047,-406 1047,4 -4,4"/>
<!-- n1 -->
<g id="node1" class="node">
<title>n1</title>
<polygon fill="lightblue" stroke="black" points="578.5,-384 487.25,-402 304.75,-402 213.5,-384 304.75,-366 487.25,-366 578.5,-384"/>
<text text-anchor="middle" x="396" y="-380.3" font-family="Arial" font-size="14.00">Draw a fish in their habitat with labels.</text>
</g>
<!-- n2 -->
<g id="node2" class="node">
<title>n2</title>
<polygon fill="#fffdd0" stroke="black" points="258,-280 0,-280 0,-244 258,-244 258,-280"/>
<text text-anchor="middle" x="129" y="-258.3" font-family="Arial" font-size="14.00">Fish drawn as orange with simple shape</text>
</g>
<!-- n1&#45;&gt;n2 -->
<g id="edge1" class="edge">
<title>n1&#45;&gt;n2</title>
<path fill="none" stroke="black" d="M358.03,-365.93C310.18,-344.43 227.96,-307.48 176.15,-284.19"/>
<polygon fill="black" stroke="black" points="177.4,-280.91 166.84,-280.01 174.53,-287.3 177.4,-280.91"/>
</g>
<!-- n3 -->
<g id="node3" class="node">
<title>n3</title>
<polygon fill="#fffdd0" stroke="black" points="465,-280 327,-280 327,-244 465,-244 465,-280"/>
<text text-anchor="middle" x="396" y="-258.3" font-family="Arial" font-size="14.00">Labeled fish as &#39;fihs&#39;</text>
</g>
<!-- n1&#45;&gt;n3 -->
<g id="edge2" class="edge">
<title>n1&#45;&gt;n3</title>
<path fill="none" stroke="black" d="M396,-365.81C396,-346.11 396,-313.58 396,-290.39"/>
<polygon fill="black" stroke="black" points="399.5,-290.16 396,-280.16 392.5,-290.16 399.5,-290.16"/>
</g>
<!-- n4 -->
<g id="node4" class="node">
<title>n4</title>
<polygon fill="#fffdd0" stroke="black" points="726.5,-280 597.5,-280 597.5,-244 726.5,-244 726.5,-280"/>
<text text-anchor="middle" x="662" y="-258.3" font-family="Arial" font-size="14.00">Blue area as water</text>
</g>
<!-- n1&#45;&gt;n4 -->
<g id="edge3" class="edge">
<title>n1&#45;&gt;n4</title>
<path fill="none" stroke="black" d="M433.83,-365.93C481.49,-344.43 563.41,-307.48 615.03,-284.19"/>
<polygon fill="black" stroke="black" points="616.62,-287.31 624.3,-280.01 613.75,-280.93 616.62,-287.31"/>
</g>
<!-- n5 -->
<g id="node5" class="node">
<title>n5</title>
<path fill="palegreen" stroke="black" d="M183.5,-158C183.5,-158 50.5,-158 50.5,-158 44.5,-158 38.5,-152 38.5,-146 38.5,-146 38.5,-134 38.5,-134 38.5,-128 44.5,-122 50.5,-122 50.5,-122 183.5,-122 183.5,-122 189.5,-122 195.5,-128 195.5,-134 195.5,-134 195.5,-146 195.5,-146 195.5,-152 189.5,-158 183.5,-158"/>
<text text-anchor="middle" x="117" y="-136.3" font-family="Arial" font-size="14.00">Orange fish recognized</text>
</g>
<!-- n2&#45;&gt;n5 -->
<g id="edge4" class="edge">
<title>n2&#45;&gt;n5</title>
<path fill="none" stroke="black" d="M127.28,-243.81C125.31,-224.11 122.06,-191.58 119.74,-168.39"/>
<polygon fill="black" stroke="black" points="123.19,-167.76 118.72,-158.16 116.23,-168.46 123.19,-167.76"/>
</g>
<!-- n6 -->
<g id="node6" class="node">
<title>n6</title>
<polygon fill="lightcoral" stroke="black" points="396,-158 253.5,-140 396,-122 538.5,-140 396,-158"/>
<text text-anchor="middle" x="396" y="-136.3" font-family="Arial" font-size="14.00">Label &#39;fihs&#39;, misspelling</text>
</g>
<!-- n3&#45;&gt;n6 -->
<g id="edge5" class="edge">
<title>n3&#45;&gt;n6</title>
<path fill="none" stroke="black" d="M396,-243.81C396,-224.11 396,-191.58 396,-168.39"/>
<polygon fill="black" stroke="black" points="399.5,-168.16 396,-158.16 392.5,-168.16 399.5,-168.16"/>
</g>
<!-- n7 -->
<g id="node7" class="node">
<title>n7</title>
<polygon fill="lightcoral" stroke="black" points="737,-158 596.24,-140 737,-122 877.76,-140 737,-158"/>
<text text-anchor="middle" x="737" y="-136.3" font-family="Arial" font-size="14.00">Simple water depiction</text>
</g>
<!-- n4&#45;&gt;n7 -->
<g id="edge6" class="edge">
<title>n4&#45;&gt;n7</title>
<path fill="none" stroke="black" d="M672.75,-243.81C685.55,-223.32 707.03,-188.96 721.59,-165.65"/>
<polygon fill="black" stroke="black" points="724.66,-167.35 726.99,-157.01 718.72,-163.63 724.66,-167.35"/>
</g>
<!-- n9 -->
<g id="node8" class="node">
<title>n9</title>
<polygon fill="#f28e8e" stroke="black" points="475.5,-36 316.5,-36 316.5,0 475.5,0 475.5,-36"/>
<text text-anchor="middle" x="396" y="-14.3" font-family="Arial" font-size="14.00">Correct spelling as &#39;fish&#39;</text>
</g>
<!-- n6&#45;&gt;n9 -->
<g id="edge7" class="edge">
<title>n6&#45;&gt;n9</title>
<path fill="none" stroke="black" d="M396,-121.81C396,-102.11 396,-69.58 396,-46.39"/>
<polygon fill="black" stroke="black" points="399.5,-46.16 396,-36.16 392.5,-46.16 399.5,-46.16"/>
</g>
<!-- n8 -->
<g id="node9" class="node">
<title>n8</title>
<polygon fill="#f28e8e" stroke="black" points="778.5,-36 587.5,-36 587.5,0 778.5,0 778.5,-36"/>
<text text-anchor="middle" x="683" y="-14.3" font-family="Arial" font-size="14.00">Add diverse habitat elements</text>
</g>
<!-- n7&#45;&gt;n8 -->
<g id="edge8" class="edge">
<title>n7&#45;&gt;n8</title>
<path fill="none" stroke="black" d="M729.72,-122.82C720.76,-102.91 705.44,-68.86 694.79,-45.21"/>
<polygon fill="black" stroke="black" points="697.98,-43.77 690.69,-36.09 691.6,-46.64 697.98,-43.77"/>
</g>
<!-- n10 -->
<g id="node10" class="node">
<title>n10</title>
<polygon fill="#f28e8e" stroke="black" points="1043,-36 837,-36 837,0 1043,0 1043,-36"/>
<text text-anchor="middle" x="940" y="-14.3" font-family="Arial" font-size="14.00">Enrich water with habitat details</text>
</g>
<!-- n7&#45;&gt;n10 -->
<g id="edge9" class="edge">
<title>n7&#45;&gt;n10</title>
<path fill="none" stroke="black" d="M760.68,-125C795.47,-104.44 860.73,-65.86 902.19,-41.35"/>
<polygon fill="black" stroke="black" points="904.08,-44.3 910.91,-36.19 900.52,-38.27 904.08,-44.3"/>
</g>
</g>
</svg>
