<?xml version="1.0" encoding="UTF-8" standalone="no"?>
<!DOCTYPE svg PUBLIC "-//W3C//DTD SVG 1.1//EN"
 "http://www.w3.org/Graphics/SVG/1.1/DTD/svg11.dtd">
<!-- Generated by graphviz version 2.43.0 (0)
 -->
<!-- Pages: 1 -->
<svg width="1861pt" height="288pt"
 viewBox="0.00 0.00 1861.00 288.00" xmlns="http://www.w3.org/2000/svg" xmlns:xlink="http://www.w3.org/1999/xlink">
<g id="graph0" class="graph" transform="scale(1 1) rotate(0) translate(4 284)">
<polygon fill="white" stroke="transparent" points="-4,4 -4,-284 1857,-284 1857,4 -4,4"/>
<!-- n1 -->
<g id="node1" class="node">
<title>n1</title>
<polygon fill="lightblue" stroke="black" points="1301,-262 1137,-280 809,-280 645,-262 809,-244 1137,-244 1301,-262"/>
<text text-anchor="middle" x="973" y="-258.3" font-family="Arial" font-size="14.00">Draw reversible and irreversible changes (ice melting vs. egg cooking)</text>
</g>
<!-- n2 -->
<g id="node2" class="node">
<title>n2</title>
<polygon fill="#fffdd0" stroke="black" points="327.5,-158 104.5,-158 104.5,-122 327.5,-122 327.5,-158"/>
<text text-anchor="middle" x="216" y="-136.3" font-family="Arial" font-size="14.00">Bluish ice cube labeled &#39;Ice (solid)&#39;</text>
</g>
<!-- n1&#45;&gt;n2 -->
<g id="edge1" class="edge">
<title>n1&#45;&gt;n2</title>
<path fill="none" stroke="black" d="M865.75,-244C725.14,-221.71 479.33,-182.74 333.72,-159.66"/>
<polygon fill="black" stroke="black" points="333.83,-156.13 323.41,-158.03 332.74,-163.05 333.83,-156.13"/>
</g>
<!-- n3 -->
<g id="node3" class="node">
<title>n3</title>
<polygon fill="#fffdd0" stroke="black" points="661.5,-158 436.5,-158 436.5,-122 661.5,-122 661.5,-158"/>
<text text-anchor="middle" x="549" y="-136.3" font-family="Arial" font-size="14.00">Blue puddle labeled &#39;Water (liquid)&#39;</text>
</g>
<!-- n1&#45;&gt;n3 -->
<g id="edge2" class="edge">
<title>n1&#45;&gt;n3</title>
<path fill="none" stroke="black" d="M912.7,-243.93C835.15,-221.99 700.71,-183.94 618.81,-160.76"/>
<polygon fill="black" stroke="black" points="619.67,-157.36 609.09,-158.01 617.76,-164.1 619.67,-157.36"/>
</g>
<!-- n4 -->
<g id="node4" class="node">
<title>n4</title>
<polygon fill="#fffdd0" stroke="black" points="922.5,-158 719.5,-158 719.5,-122 922.5,-122 922.5,-158"/>
<text text-anchor="middle" x="821" y="-136.3" font-family="Arial" font-size="14.00">Annotated &#39;Reversible Change&#39;</text>
</g>
<!-- n1&#45;&gt;n4 -->
<g id="edge3" class="edge">
<title>n1&#45;&gt;n4</title>
<path fill="none" stroke="black" d="M951.22,-243.81C924.81,-222.96 880.17,-187.71 850.64,-164.4"/>
<polygon fill="black" stroke="black" points="852.76,-161.61 842.74,-158.16 848.42,-167.1 852.76,-161.61"/>
</g>
<!-- n5 -->
<g id="node5" class="node">
<title>n5</title>
<polygon fill="#fffdd0" stroke="black" points="1269.5,-158 980.5,-158 980.5,-122 1269.5,-122 1269.5,-158"/>
<text text-anchor="middle" x="1125" y="-136.3" font-family="Arial" font-size="14.00">White shelled egg labeled &#39;Egg (liquid inside)&#39;</text>
</g>
<!-- n1&#45;&gt;n5 -->
<g id="edge4" class="edge">
<title>n1&#45;&gt;n5</title>
<path fill="none" stroke="black" d="M994.78,-243.81C1021.2,-222.96 1065.8,-187.71 1095.4,-164.4"/>
<polygon fill="black" stroke="black" points="1097.62,-167.1 1103.3,-158.16 1093.28,-161.61 1097.62,-167.1"/>
</g>
<!-- n6 -->
<g id="node6" class="node">
<title>n6</title>
<polygon fill="#fffdd0" stroke="black" points="1588.5,-158 1327.5,-158 1327.5,-122 1588.5,-122 1588.5,-158"/>
<text text-anchor="middle" x="1458" y="-136.3" font-family="Arial" font-size="14.00">Cooked egg labeled &#39;Cooked Egg (solid)&#39;</text>
</g>
<!-- n1&#45;&gt;n6 -->
<g id="edge5" class="edge">
<title>n1&#45;&gt;n6</title>
<path fill="none" stroke="black" d="M1041.7,-244C1130.7,-221.98 1285.5,-183.68 1379.2,-160.5"/>
<polygon fill="black" stroke="black" points="1380.33,-163.83 1389.2,-158.03 1378.65,-157.03 1380.33,-163.83"/>
</g>
<!-- n7 -->
<g id="node7" class="node">
<title>n7</title>
<polygon fill="#fffdd0" stroke="black" points="1853,-158 1647,-158 1647,-122 1853,-122 1853,-158"/>
<text text-anchor="middle" x="1750" y="-136.3" font-family="Arial" font-size="14.00">Annotated &#39;Irreversible Change&#39;</text>
</g>
<!-- n1&#45;&gt;n7 -->
<g id="edge6" class="edge">
<title>n1&#45;&gt;n7</title>
<path fill="none" stroke="black" d="M1083.1,-244C1229.9,-221.32 1488.5,-181.39 1636.8,-158.48"/>
<polygon fill="black" stroke="black" points="1637.55,-161.91 1646.9,-156.92 1636.48,-154.99 1637.55,-161.91"/>
</g>
<!-- n8 -->
<g id="node8" class="node">
<title>n8</title>
<path fill="palegreen" stroke="black" d="M316,-36C316,-36 12,-36 12,-36 6,-36 0,-30 0,-24 0,-24 0,-12 0,-12 0,-6 6,0 12,0 12,0 316,0 316,0 322,0 328,-6 328,-12 328,-12 328,-24 328,-24 328,-30 322,-36 316,-36"/>
<text text-anchor="middle" x="164" y="-14.3" font-family="Arial" font-size="14.00">Understands that ice changes to water when heated</text>
</g>
<!-- n2&#45;&gt;n8 -->
<g id="edge7" class="edge">
<title>n2&#45;&gt;n8</title>
<path fill="none" stroke="black" d="M208.55,-121.81C199.9,-101.85 185.54,-68.7 175.46,-45.45"/>
<polygon fill="black" stroke="black" points="178.62,-43.95 171.44,-36.16 172.2,-46.73 178.62,-43.95"/>
</g>
<!-- n9 -->
<g id="node9" class="node">
<title>n9</title>
<path fill="palegreen" stroke="black" d="M700,-36C700,-36 398,-36 398,-36 392,-36 386,-30 386,-24 386,-24 386,-12 386,-12 386,-6 392,0 398,0 398,0 700,0 700,0 706,0 712,-6 712,-12 712,-12 712,-24 712,-24 712,-30 706,-36 700,-36"/>
<text text-anchor="middle" x="549" y="-14.3" font-family="Arial" font-size="14.00">Understands that water changes to ice when cooled</text>
</g>
<!-- n3&#45;&gt;n9 -->
<g id="edge8" class="edge">
<title>n3&#45;&gt;n9</title>
<path fill="none" stroke="black" d="M549,-121.81C549,-102.11 549,-69.58 549,-46.39"/>
<polygon fill="black" stroke="black" points="552.5,-46.16 549,-36.16 545.5,-46.16 552.5,-46.16"/>
</g>
<!-- n10 -->
<g id="node10" class="node">
<title>n10</title>
<path fill="palegreen" stroke="black" d="M1079.5,-36C1079.5,-36 782.5,-36 782.5,-36 776.5,-36 770.5,-30 770.5,-24 770.5,-24 770.5,-12 770.5,-12 770.5,-6 776.5,0 782.5,0 782.5,0 1079.5,0 1079.5,0 1085.5,0 1091.5,-6 1091.5,-12 1091.5,-12 1091.5,-24 1091.5,-24 1091.5,-30 1085.5,-36 1079.5,-36"/>
<text text-anchor="middle" x="931" y="-14.3" font-family="Arial" font-size="14.00">Understands reversible change (ice to water to ice)</text>
</g>
<!-- n4&#45;&gt;n10 -->
<g id="edge9" class="edge">
<title>n4&#45;&gt;n10</title>
<path fill="none" stroke="black" d="M836.76,-121.81C855.55,-101.31 887.08,-66.91 908.45,-43.6"/>
<polygon fill="black" stroke="black" points="911.09,-45.9 915.27,-36.16 905.93,-41.17 911.09,-45.9"/>
</g>
<!-- n11 -->
<g id="node11" class="node">
<title>n11</title>
<path fill="palegreen" stroke="black" d="M1613.5,-36C1613.5,-36 1302.5,-36 1302.5,-36 1296.5,-36 1290.5,-30 1290.5,-24 1290.5,-24 1290.5,-12 1290.5,-12 1290.5,-6 1296.5,0 1302.5,0 1302.5,0 1613.5,0 1613.5,0 1619.5,0 1625.5,-6 1625.5,-12 1625.5,-12 1625.5,-24 1625.5,-24 1625.5,-30 1619.5,-36 1613.5,-36"/>
<text text-anchor="middle" x="1458" y="-14.3" font-family="Arial" font-size="14.00">Understands irreversible change (egg to cooked egg)</text>
</g>
<!-- n5&#45;&gt;n11 -->
<g id="edge10" class="edge">
<title>n5&#45;&gt;n11</title>
<path fill="none" stroke="black" d="M1172.4,-121.93C1232.6,-100.21 1336.7,-62.71 1401.2,-39.47"/>
<polygon fill="black" stroke="black" points="1402.58,-42.69 1410.8,-36.01 1400.21,-36.11 1402.58,-42.69"/>
</g>
<!-- n6&#45;&gt;n11 -->
<g id="edge11" class="edge">
<title>n6&#45;&gt;n11</title>
<path fill="none" stroke="black" d="M1458,-121.81C1458,-102.11 1458,-69.58 1458,-46.39"/>
<polygon fill="black" stroke="black" points="1461.5,-46.16 1458,-36.16 1454.5,-46.16 1461.5,-46.16"/>
</g>
<!-- n7&#45;&gt;n11 -->
<g id="edge12" class="edge">
<title>n7&#45;&gt;n11</title>
<path fill="none" stroke="black" d="M1708.5,-121.93C1655.9,-100.34 1565.5,-63.17 1508.9,-39.9"/>
<polygon fill="black" stroke="black" points="1509.98,-36.56 1499.4,-36.01 1507.33,-43.04 1509.98,-36.56"/>
</g>
</g>
</svg>
