<?xml version="1.0" encoding="UTF-8" standalone="no"?>
<!DOCTYPE svg PUBLIC "-//W3C//DTD SVG 1.1//EN"
 "http://www.w3.org/Graphics/SVG/1.1/DTD/svg11.dtd">
<!-- Generated by graphviz version 2.43.0 (0)
 -->
<!-- Pages: 1 -->
<svg width="618pt" height="410pt"
 viewBox="0.00 0.00 618.32 410.00" xmlns="http://www.w3.org/2000/svg" xmlns:xlink="http://www.w3.org/1999/xlink">
<g id="graph0" class="graph" transform="scale(1 1) rotate(0) translate(4 406)">
<polygon fill="white" stroke="transparent" points="-4,4 -4,-406 614.32,-406 614.32,4 -4,4"/>
<!-- n1 -->
<g id="node1" class="node">
<title>n1</title>
<polygon fill="lightblue" stroke="black" points="532.66,-384 418.91,-402 191.41,-402 77.66,-384 191.41,-366 418.91,-366 532.66,-384"/>
<text text-anchor="middle" x="305.16" y="-380.3" font-family="Arial" font-size="14.00">Illustrate plants with and without water and light.</text>
</g>
<!-- n2 -->
<g id="node2" class="node">
<title>n2</title>
<polygon fill="#fffdd0" stroke="black" points="409.66,-280 200.66,-280 200.66,-244 409.66,-244 409.66,-280"/>
<text text-anchor="middle" x="305.16" y="-258.3" font-family="Arial" font-size="14.00">Two plants drawn the same way</text>
</g>
<!-- n1&#45;&gt;n2 -->
<g id="edge1" class="edge">
<title>n1&#45;&gt;n2</title>
<path fill="none" stroke="black" d="M305.16,-365.81C305.16,-346.11 305.16,-313.58 305.16,-290.39"/>
<polygon fill="black" stroke="black" points="308.66,-290.16 305.16,-280.16 301.66,-290.16 308.66,-290.16"/>
</g>
<!-- n3 -->
<g id="node3" class="node">
<title>n3</title>
<polygon fill="lightcoral" stroke="black" points="305.16,-158 -0.16,-140 305.16,-122 610.48,-140 305.16,-158"/>
<text text-anchor="middle" x="305.16" y="-136.3" font-family="Arial" font-size="14.00">Lack of understanding of water/light effects on plants</text>
</g>
<!-- n2&#45;&gt;n3 -->
<g id="edge2" class="edge">
<title>n2&#45;&gt;n3</title>
<path fill="none" stroke="black" d="M305.16,-243.81C305.16,-224.11 305.16,-191.58 305.16,-168.39"/>
<polygon fill="black" stroke="black" points="308.66,-168.16 305.16,-158.16 301.66,-168.16 308.66,-168.16"/>
</g>
<!-- n4 -->
<g id="node4" class="node">
<title>n4</title>
<polygon fill="#f28e8e" stroke="black" points="458.16,-36 152.16,-36 152.16,0 458.16,0 458.16,-36"/>
<text text-anchor="middle" x="305.16" y="-14.3" font-family="Arial" font-size="14.00">Illustrate differences when plants lack water/light</text>
</g>
<!-- n3&#45;&gt;n4 -->
<g id="edge3" class="edge">
<title>n3&#45;&gt;n4</title>
<path fill="none" stroke="black" d="M305.16,-121.81C305.16,-102.11 305.16,-69.58 305.16,-46.39"/>
<polygon fill="black" stroke="black" points="308.66,-46.16 305.16,-36.16 301.66,-46.16 308.66,-46.16"/>
</g>
</g>
</svg>
