<?xml version="1.0" encoding="UTF-8" standalone="no"?>
<!DOCTYPE svg PUBLIC "-//W3C//DTD SVG 1.1//EN"
 "http://www.w3.org/Graphics/SVG/1.1/DTD/svg11.dtd">
<!-- Generated by graphviz version 2.43.0 (0)
 -->
<!-- Pages: 1 -->
<svg width="785pt" height="410pt"
 viewBox="0.00 0.00 784.60 410.00" xmlns="http://www.w3.org/2000/svg" xmlns:xlink="http://www.w3.org/1999/xlink">
<g id="graph0" class="graph" transform="scale(1 1) rotate(0) translate(4 406)">
<polygon fill="white" stroke="transparent" points="-4,4 -4,-406 780.6,-406 780.6,4 -4,4"/>
<!-- n1 -->
<g id="node1" class="node">
<title>n1</title>
<polygon fill="lightblue" stroke="black" points="608,-384 494.25,-402 266.75,-402 153,-384 266.75,-366 494.25,-366 608,-384"/>
<text text-anchor="middle" x="380.5" y="-380.3" font-family="Arial" font-size="14.00">Illustrate plants with and without water and light.</text>
</g>
<!-- n2 -->
<g id="node2" class="node">
<title>n2</title>
<polygon fill="#fffdd0" stroke="black" points="539,-280 222,-280 222,-244 539,-244 539,-280"/>
<text text-anchor="middle" x="380.5" y="-258.3" font-family="Arial" font-size="14.00">Simple green plant with round top and single stem</text>
</g>
<!-- n1&#45;&gt;n2 -->
<g id="edge1" class="edge">
<title>n1&#45;&gt;n2</title>
<path fill="none" stroke="black" d="M380.5,-365.81C380.5,-346.11 380.5,-313.58 380.5,-290.39"/>
<polygon fill="black" stroke="black" points="384,-290.16 380.5,-280.16 377,-290.16 384,-290.16"/>
</g>
<!-- n3 -->
<g id="node3" class="node">
<title>n3</title>
<polygon fill="lightcoral" stroke="black" points="176.5,-158 18.31,-140 176.5,-122 334.69,-140 176.5,-158"/>
<text text-anchor="middle" x="176.5" y="-136.3" font-family="Arial" font-size="14.00">Minimalistic plant concept</text>
</g>
<!-- n2&#45;&gt;n3 -->
<g id="edge2" class="edge">
<title>n2&#45;&gt;n3</title>
<path fill="none" stroke="black" d="M351.27,-243.81C313.84,-221.79 249.12,-183.72 209.82,-160.6"/>
<polygon fill="black" stroke="black" points="211.27,-157.39 200.88,-155.34 207.72,-163.43 211.27,-157.39"/>
</g>
<!-- n4 -->
<g id="node4" class="node">
<title>n4</title>
<polygon fill="lightcoral" stroke="black" points="584.5,-158 392.29,-140 584.5,-122 776.71,-140 584.5,-158"/>
<text text-anchor="middle" x="584.5" y="-136.3" font-family="Arial" font-size="14.00">Lack of environmental elements</text>
</g>
<!-- n2&#45;&gt;n4 -->
<g id="edge3" class="edge">
<title>n2&#45;&gt;n4</title>
<path fill="none" stroke="black" d="M409.73,-243.81C446.96,-221.91 511.17,-184.13 550.54,-160.98"/>
<polygon fill="black" stroke="black" points="552.65,-163.8 559.5,-155.71 549.11,-157.76 552.65,-163.8"/>
</g>
<!-- n5 -->
<g id="node5" class="node">
<title>n5</title>
<polygon fill="#f28e8e" stroke="black" points="353,-36 0,-36 0,0 353,0 353,-36"/>
<text text-anchor="middle" x="176.5" y="-14.3" font-family="Arial" font-size="14.00">Plants need water (e.g., draw raindrops or watering can)</text>
</g>
<!-- n3&#45;&gt;n5 -->
<g id="edge4" class="edge">
<title>n3&#45;&gt;n5</title>
<path fill="none" stroke="black" d="M176.5,-121.81C176.5,-102.11 176.5,-69.58 176.5,-46.39"/>
<polygon fill="black" stroke="black" points="180,-46.16 176.5,-36.16 173,-46.16 180,-46.16"/>
</g>
<!-- n6 -->
<g id="node6" class="node">
<title>n6</title>
<polygon fill="#f28e8e" stroke="black" points="704,-36 465,-36 465,0 704,0 704,-36"/>
<text text-anchor="middle" x="584.5" y="-14.3" font-family="Arial" font-size="14.00">Plants need light (e.g., draw sunlight)</text>
</g>
<!-- n4&#45;&gt;n6 -->
<g id="edge5" class="edge">
<title>n4&#45;&gt;n6</title>
<path fill="none" stroke="black" d="M584.5,-121.81C584.5,-102.11 584.5,-69.58 584.5,-46.39"/>
<polygon fill="black" stroke="black" points="588,-46.16 584.5,-36.16 581,-46.16 588,-46.16"/>
</g>
</g>
</svg>
