<?xml version="1.0" encoding="UTF-8" standalone="no"?>
<!DOCTYPE svg PUBLIC "-//W3C//DTD SVG 1.1//EN"
 "http://www.w3.org/Graphics/SVG/1.1/DTD/svg11.dtd">
<!-- Generated by graphviz version 2.43.0 (0)
 -->
<!-- Pages: 1 -->
<svg width="1435pt" height="532pt"
 viewBox="0.00 0.00 1435.20 532.00" xmlns="http://www.w3.org/2000/svg" xmlns:xlink="http://www.w3.org/1999/xlink">
<g id="graph0" class="graph" transform="scale(1 1) rotate(0) translate(4 528)">
<polygon fill="white" stroke="transparent" points="-4,4 -4,-528 1431.2,-528 1431.2,4 -4,4"/>
<!-- n1 -->
<g id="node1" class="node">
<title>n1</title>
<polygon fill="lightblue" stroke="black" points="1011.48,-506 889.07,-524 644.25,-524 521.84,-506 644.25,-488 889.07,-488 1011.48,-506"/>
<text text-anchor="middle" x="766.66" y="-502.3" font-family="Arial" font-size="14.00">Draw a habitat and the different living things in each</text>
</g>
<!-- n2 -->
<g id="node2" class="node">
<title>n2</title>
<polygon fill="#fffdd0" stroke="black" points="727.16,-402 394.16,-402 394.16,-366 727.16,-366 727.16,-402"/>
<text text-anchor="middle" x="560.66" y="-380.3" font-family="Arial" font-size="14.00">Forest with tall trees, deer, bushes, rabbits, and birds</text>
</g>
<!-- n1&#45;&gt;n2 -->
<g id="edge1" class="edge">
<title>n1&#45;&gt;n2</title>
<path fill="none" stroke="black" d="M737.14,-487.81C700.74,-466.6 638.77,-430.5 598.79,-407.21"/>
<polygon fill="black" stroke="black" points="600.52,-404.17 590.12,-402.16 597,-410.22 600.52,-404.17"/>
</g>
<!-- n3 -->
<g id="node3" class="node">
<title>n3</title>
<polygon fill="#fffdd0" stroke="black" points="1160.16,-402 785.16,-402 785.16,-366 1160.16,-366 1160.16,-402"/>
<text text-anchor="middle" x="972.66" y="-380.3" font-family="Arial" font-size="14.00">Pond with water, fish, lily pads, reeds, frogs, and dragonflies</text>
</g>
<!-- n1&#45;&gt;n3 -->
<g id="edge2" class="edge">
<title>n1&#45;&gt;n3</title>
<path fill="none" stroke="black" d="M796.17,-487.81C832.58,-466.6 894.55,-430.5 934.52,-407.21"/>
<polygon fill="black" stroke="black" points="936.31,-410.21 943.2,-402.16 932.79,-404.16 936.31,-410.21"/>
</g>
<!-- n4 -->
<g id="node4" class="node">
<title>n4</title>
<path fill="palegreen" stroke="black" d="M1055.66,-280C1055.66,-280 837.66,-280 837.66,-280 831.66,-280 825.66,-274 825.66,-268 825.66,-268 825.66,-256 825.66,-256 825.66,-250 831.66,-244 837.66,-244 837.66,-244 1055.66,-244 1055.66,-244 1061.66,-244 1067.66,-250 1067.66,-256 1067.66,-256 1067.66,-268 1067.66,-268 1067.66,-274 1061.66,-280 1055.66,-280"/>
<text text-anchor="middle" x="946.66" y="-258.3" font-family="Arial" font-size="14.00">Includes variety of plants and animals</text>
</g>
<!-- n2&#45;&gt;n4 -->
<g id="edge3" class="edge">
<title>n2&#45;&gt;n4</title>
<path fill="none" stroke="black" d="M615.55,-365.93C685.87,-344.07 807.55,-306.25 882.19,-283.04"/>
<polygon fill="black" stroke="black" points="883.43,-286.32 891.95,-280.01 881.36,-279.63 883.43,-286.32"/>
</g>
<!-- n5 -->
<g id="node5" class="node">
<title>n5</title>
<path fill="palegreen" stroke="black" d="M1415.2,-280C1415.2,-280 1138.2,-280 1138.2,-280 1132.2,-280 1126.2,-274 1126.2,-268 1126.2,-268 1126.2,-256 1126.2,-256 1126.2,-250 1132.2,-244 1138.2,-244 1138.2,-244 1415.2,-244 1415.2,-244 1421.2,-244 1427.2,-250 1427.2,-256 1427.2,-256 1427.2,-268 1427.2,-268 1427.2,-274 1421.2,-280 1415.2,-280"/>
<text text-anchor="middle" x="1276.7" y="-258.3" font-family="Arial" font-size="14.00">Observes examples of forest and pond habitats</text>
</g>
<!-- n2&#45;&gt;n5 -->
<g id="edge4" class="edge">
<title>n2&#45;&gt;n5</title>
<path fill="none" stroke="black" d="M662.1,-366C794.96,-343.73 1027.1,-304.82 1164.9,-281.73"/>
<polygon fill="black" stroke="black" points="1165.81,-285.13 1175.1,-280.03 1164.66,-278.22 1165.81,-285.13"/>
</g>
<!-- n6 -->
<g id="node6" class="node">
<title>n6</title>
<path fill="palegreen" stroke="black" d="M335.66,-280C335.66,-280 149.66,-280 149.66,-280 143.66,-280 137.66,-274 137.66,-268 137.66,-268 137.66,-256 137.66,-256 137.66,-250 143.66,-244 149.66,-244 149.66,-244 335.66,-244 335.66,-244 341.66,-244 347.66,-250 347.66,-256 347.66,-256 347.66,-268 347.66,-268 347.66,-274 341.66,-280 335.66,-280"/>
<text text-anchor="middle" x="242.66" y="-258.3" font-family="Arial" font-size="14.00">Attempts labeling of living things</text>
</g>
<!-- n2&#45;&gt;n6 -->
<g id="edge5" class="edge">
<title>n2&#45;&gt;n6</title>
<path fill="none" stroke="black" d="M515.43,-365.93C457.98,-344.25 358.9,-306.86 297.28,-283.61"/>
<polygon fill="black" stroke="black" points="298.32,-280.26 287.73,-280.01 295.85,-286.81 298.32,-280.26"/>
</g>
<!-- n9 -->
<g id="node7" class="node">
<title>n9</title>
<path fill="palegreen" stroke="black" d="M755.66,-280C755.66,-280 417.66,-280 417.66,-280 411.66,-280 405.66,-274 405.66,-268 405.66,-268 405.66,-256 405.66,-256 405.66,-250 411.66,-244 417.66,-244 417.66,-244 755.66,-244 755.66,-244 761.66,-244 767.66,-250 767.66,-256 767.66,-256 767.66,-268 767.66,-268 767.66,-274 761.66,-280 755.66,-280"/>
<text text-anchor="middle" x="586.66" y="-258.3" font-family="Arial" font-size="14.00">Comparison of plant and animal types in different habitats</text>
</g>
<!-- n2&#45;&gt;n9 -->
<g id="edge6" class="edge">
<title>n2&#45;&gt;n9</title>
<path fill="none" stroke="black" d="M564.38,-365.81C568.67,-346.02 575.76,-313.29 580.79,-290.08"/>
<polygon fill="black" stroke="black" points="584.24,-290.67 582.94,-280.16 577.4,-289.19 584.24,-290.67"/>
</g>
<!-- n3&#45;&gt;n4 -->
<g id="edge7" class="edge">
<title>n3&#45;&gt;n4</title>
<path fill="none" stroke="black" d="M968.93,-365.81C964.65,-346.02 957.55,-313.29 952.52,-290.08"/>
<polygon fill="black" stroke="black" points="955.91,-289.2 950.38,-280.16 949.07,-290.67 955.91,-289.2"/>
</g>
<!-- n3&#45;&gt;n5 -->
<g id="edge8" class="edge">
<title>n3&#45;&gt;n5</title>
<path fill="none" stroke="black" d="M1015.9,-365.93C1070.7,-344.3 1165.1,-307.02 1224.1,-283.76"/>
<polygon fill="black" stroke="black" points="1225.58,-286.94 1233.6,-280.01 1223.01,-280.43 1225.58,-286.94"/>
</g>
<!-- n3&#45;&gt;n6 -->
<g id="edge9" class="edge">
<title>n3&#45;&gt;n6</title>
<path fill="none" stroke="black" d="M869.23,-366C733.64,-343.71 496.59,-304.74 356.18,-281.66"/>
<polygon fill="black" stroke="black" points="356.67,-278.19 346.24,-280.03 355.54,-285.1 356.67,-278.19"/>
</g>
<!-- n3&#45;&gt;n9 -->
<g id="edge10" class="edge">
<title>n3&#45;&gt;n9</title>
<path fill="none" stroke="black" d="M917.76,-365.93C847.45,-344.07 725.77,-306.25 651.12,-283.04"/>
<polygon fill="black" stroke="black" points="651.95,-279.63 641.36,-280.01 649.87,-286.32 651.95,-279.63"/>
</g>
<!-- n7 -->
<g id="node8" class="node">
<title>n7</title>
<polygon fill="lightcoral" stroke="black" points="242.66,-158 -0.16,-140 242.66,-122 485.47,-140 242.66,-158"/>
<text text-anchor="middle" x="242.66" y="-136.3" font-family="Arial" font-size="14.00">Incorrect or incomplete labeling observed</text>
</g>
<!-- n6&#45;&gt;n7 -->
<g id="edge11" class="edge">
<title>n6&#45;&gt;n7</title>
<path fill="none" stroke="black" d="M242.66,-243.81C242.66,-224.11 242.66,-191.58 242.66,-168.39"/>
<polygon fill="black" stroke="black" points="246.16,-168.16 242.66,-158.16 239.16,-168.16 246.16,-168.16"/>
</g>
<!-- n8 -->
<g id="node9" class="node">
<title>n8</title>
<polygon fill="#f28e8e" stroke="black" points="365.16,-36 120.16,-36 120.16,0 365.16,0 365.16,-36"/>
<text text-anchor="middle" x="242.66" y="-14.3" font-family="Arial" font-size="14.00">Correct labels enhance understanding</text>
</g>
<!-- n7&#45;&gt;n8 -->
<g id="edge12" class="edge">
<title>n7&#45;&gt;n8</title>
<path fill="none" stroke="black" d="M242.66,-121.81C242.66,-102.11 242.66,-69.58 242.66,-46.39"/>
<polygon fill="black" stroke="black" points="246.16,-46.16 242.66,-36.16 239.16,-46.16 246.16,-46.16"/>
</g>
</g>
</svg>
