<?xml version="1.0" encoding="UTF-8" standalone="no"?>
<!DOCTYPE svg PUBLIC "-//W3C//DTD SVG 1.1//EN"
 "http://www.w3.org/Graphics/SVG/1.1/DTD/svg11.dtd">
<!-- Generated by graphviz version 2.43.0 (0)
 -->
<!-- Pages: 1 -->
<svg width="1388pt" height="410pt"
 viewBox="0.00 0.00 1387.50 410.00" xmlns="http://www.w3.org/2000/svg" xmlns:xlink="http://www.w3.org/1999/xlink">
<g id="graph0" class="graph" transform="scale(1 1) rotate(0) translate(4 406)">
<polygon fill="white" stroke="transparent" points="-4,4 -4,-406 1383.5,-406 1383.5,4 -4,4"/>
<!-- n1 -->
<g id="node1" class="node">
<title>n1</title>
<polygon fill="lightblue" stroke="black" points="847,-384 735.5,-402 512.5,-402 401,-384 512.5,-366 735.5,-366 847,-384"/>
<text text-anchor="middle" x="624" y="-380.3" font-family="Arial" font-size="14.00">Draw a string telephone between two students.</text>
</g>
<!-- n2 -->
<g id="node2" class="node">
<title>n2</title>
<polygon fill="#fffdd0" stroke="black" points="286,-280 80,-280 80,-244 286,-244 286,-280"/>
<text text-anchor="middle" x="183" y="-258.3" font-family="Arial" font-size="14.00">Two stick figures standing apart</text>
</g>
<!-- n1&#45;&gt;n2 -->
<g id="edge1" class="edge">
<title>n1&#45;&gt;n2</title>
<path fill="none" stroke="black" d="M561.28,-365.93C480.54,-343.96 340.51,-305.86 255.35,-282.69"/>
<polygon fill="black" stroke="black" points="256.07,-279.26 245.5,-280.01 254.23,-286.01 256.07,-279.26"/>
</g>
<!-- n3 -->
<g id="node3" class="node">
<title>n3</title>
<polygon fill="#fffdd0" stroke="black" points="627.5,-280 346.5,-280 346.5,-244 627.5,-244 627.5,-280"/>
<text text-anchor="middle" x="487" y="-258.3" font-family="Arial" font-size="14.00">Simple string telephone with cups and string</text>
</g>
<!-- n1&#45;&gt;n3 -->
<g id="edge2" class="edge">
<title>n1&#45;&gt;n3</title>
<path fill="none" stroke="black" d="M604.37,-365.81C580.77,-345.13 541.02,-310.31 514.4,-287"/>
<polygon fill="black" stroke="black" points="516.42,-284.12 506.59,-280.16 511.81,-289.38 516.42,-284.12"/>
</g>
<!-- n4 -->
<g id="node4" class="node">
<title>n4</title>
<polygon fill="#fffdd0" stroke="black" points="912,-280 762,-280 762,-244 912,-244 912,-280"/>
<text text-anchor="middle" x="837" y="-258.3" font-family="Arial" font-size="14.00">String is slightly saggy</text>
</g>
<!-- n1&#45;&gt;n4 -->
<g id="edge3" class="edge">
<title>n1&#45;&gt;n4</title>
<path fill="none" stroke="black" d="M654.52,-365.81C692.16,-344.6 756.23,-308.5 797.57,-285.21"/>
<polygon fill="black" stroke="black" points="799.54,-288.12 806.54,-280.16 796.11,-282.02 799.54,-288.12"/>
</g>
<!-- n5 -->
<g id="node5" class="node">
<title>n5</title>
<polygon fill="#fffdd0" stroke="black" points="1299.5,-280 1096.5,-280 1096.5,-244 1299.5,-244 1299.5,-280"/>
<text text-anchor="middle" x="1198" y="-258.3" font-family="Arial" font-size="14.00">Lines/arrows suggesting sound</text>
</g>
<!-- n1&#45;&gt;n5 -->
<g id="edge4" class="edge">
<title>n1&#45;&gt;n5</title>
<path fill="none" stroke="black" d="M705.33,-366C811.3,-343.84 996.1,-305.21 1106.7,-282.08"/>
<polygon fill="black" stroke="black" points="1107.52,-285.49 1116.6,-280.03 1106.1,-278.63 1107.52,-285.49"/>
</g>
<!-- n6 -->
<g id="node6" class="node">
<title>n6</title>
<path fill="palegreen" stroke="black" d="M272,-158C272,-158 12,-158 12,-158 6,-158 0,-152 0,-146 0,-146 0,-134 0,-134 0,-128 6,-122 12,-122 12,-122 272,-122 272,-122 278,-122 284,-128 284,-134 284,-134 284,-146 284,-146 284,-152 278,-158 272,-158"/>
<text text-anchor="middle" x="142" y="-136.3" font-family="Arial" font-size="14.00">People use string telephone to communicate</text>
</g>
<!-- n2&#45;&gt;n6 -->
<g id="edge5" class="edge">
<title>n2&#45;&gt;n6</title>
<path fill="none" stroke="black" d="M177.13,-243.81C170.34,-223.94 159.08,-190.99 151.14,-167.76"/>
<polygon fill="black" stroke="black" points="154.41,-166.49 147.86,-158.16 147.78,-168.75 154.41,-166.49"/>
</g>
<!-- n7 -->
<g id="node7" class="node">
<title>n7</title>
<path fill="palegreen" stroke="black" d="M543.5,-158C543.5,-158 354.5,-158 354.5,-158 348.5,-158 342.5,-152 342.5,-146 342.5,-146 342.5,-134 342.5,-134 342.5,-128 348.5,-122 354.5,-122 354.5,-122 543.5,-122 543.5,-122 549.5,-122 555.5,-128 555.5,-134 555.5,-134 555.5,-146 555.5,-146 555.5,-152 549.5,-158 543.5,-158"/>
<text text-anchor="middle" x="449" y="-136.3" font-family="Arial" font-size="14.00">Cups and string labeled correctly</text>
</g>
<!-- n3&#45;&gt;n7 -->
<g id="edge6" class="edge">
<title>n3&#45;&gt;n7</title>
<path fill="none" stroke="black" d="M481.56,-243.81C475.26,-223.94 464.83,-190.99 457.47,-167.76"/>
<polygon fill="black" stroke="black" points="460.79,-166.64 454.43,-158.16 454.11,-168.75 460.79,-166.64"/>
</g>
<!-- n8 -->
<g id="node8" class="node">
<title>n8</title>
<polygon fill="lightcoral" stroke="black" points="875,-158 613.92,-140 875,-122 1136.08,-140 875,-158"/>
<text text-anchor="middle" x="875" y="-136.3" font-family="Arial" font-size="14.00">String should be tight for sound transmission</text>
</g>
<!-- n4&#45;&gt;n8 -->
<g id="edge7" class="edge">
<title>n4&#45;&gt;n8</title>
<path fill="none" stroke="black" d="M842.44,-243.81C848.77,-223.82 859.29,-190.62 866.65,-167.37"/>
<polygon fill="black" stroke="black" points="870.01,-168.36 869.69,-157.77 863.33,-166.25 870.01,-168.36"/>
</g>
<!-- n9 -->
<g id="node9" class="node">
<title>n9</title>
<path fill="palegreen" stroke="black" d="M1367.5,-158C1367.5,-158 1206.5,-158 1206.5,-158 1200.5,-158 1194.5,-152 1194.5,-146 1194.5,-146 1194.5,-134 1194.5,-134 1194.5,-128 1200.5,-122 1206.5,-122 1206.5,-122 1367.5,-122 1367.5,-122 1373.5,-122 1379.5,-128 1379.5,-134 1379.5,-134 1379.5,-146 1379.5,-146 1379.5,-152 1373.5,-158 1367.5,-158"/>
<text text-anchor="middle" x="1287" y="-136.3" font-family="Arial" font-size="14.00">Sound travels through string</text>
</g>
<!-- n5&#45;&gt;n9 -->
<g id="edge8" class="edge">
<title>n5&#45;&gt;n9</title>
<path fill="none" stroke="black" d="M1210.8,-243.81C1225.8,-223.49 1251,-189.51 1268.3,-166.21"/>
<polygon fill="black" stroke="black" points="1271.13,-168.27 1274.3,-158.16 1265.52,-164.09 1271.13,-168.27"/>
</g>
<!-- n10 -->
<g id="node10" class="node">
<title>n10</title>
<polygon fill="#f28e8e" stroke="black" points="1009,-36 741,-36 741,0 1009,0 1009,-36"/>
<text text-anchor="middle" x="875" y="-14.3" font-family="Arial" font-size="14.00">Keep string tight for better communication</text>
</g>
<!-- n8&#45;&gt;n10 -->
<g id="edge9" class="edge">
<title>n8&#45;&gt;n10</title>
<path fill="none" stroke="black" d="M875,-121.81C875,-102.11 875,-69.58 875,-46.39"/>
<polygon fill="black" stroke="black" points="878.5,-46.16 875,-36.16 871.5,-46.16 878.5,-46.16"/>
</g>
</g>
</svg>
