<?xml version="1.0" encoding="UTF-8" standalone="no"?>
<!DOCTYPE svg PUBLIC "-//W3C//DTD SVG 1.1//EN"
 "http://www.w3.org/Graphics/SVG/1.1/DTD/svg11.dtd">
<!-- Generated by graphviz version 2.43.0 (0)
 -->
<!-- Pages: 1 -->
<svg width="1702pt" height="410pt"
 viewBox="0.00 0.00 1701.50 410.00" xmlns="http://www.w3.org/2000/svg" xmlns:xlink="http://www.w3.org/1999/xlink">
<g id="graph0" class="graph" transform="scale(1 1) rotate(0) translate(4 406)">
<polygon fill="white" stroke="transparent" points="-4,4 -4,-406 1697.5,-406 1697.5,4 -4,4"/>
<!-- n1 -->
<g id="node1" class="node">
<title>n1</title>
<polygon fill="lightblue" stroke="black" points="874,-384 762.5,-402 539.5,-402 428,-384 539.5,-366 762.5,-366 874,-384"/>
<text text-anchor="middle" x="651" y="-380.3" font-family="Arial" font-size="14.00">Draw a string telephone between two students.</text>
</g>
<!-- n2 -->
<g id="node2" class="node">
<title>n2</title>
<polygon fill="#fffdd0" stroke="black" points="247,-280 83,-280 83,-244 247,-244 247,-280"/>
<text text-anchor="middle" x="165" y="-258.3" font-family="Arial" font-size="14.00">Two stick figure students</text>
</g>
<!-- n1&#45;&gt;n2 -->
<g id="edge1" class="edge">
<title>n1&#45;&gt;n2</title>
<path fill="none" stroke="black" d="M582.14,-366C492.87,-343.95 337.52,-305.6 243.68,-282.43"/>
<polygon fill="black" stroke="black" points="244.51,-279.03 233.96,-280.03 242.83,-285.83 244.51,-279.03"/>
</g>
<!-- n3 -->
<g id="node3" class="node">
<title>n3</title>
<polygon fill="#fffdd0" stroke="black" points="498,-280 322,-280 322,-244 498,-244 498,-280"/>
<text text-anchor="middle" x="410" y="-258.3" font-family="Arial" font-size="14.00">Red cups held by students</text>
</g>
<!-- n1&#45;&gt;n3 -->
<g id="edge2" class="edge">
<title>n1&#45;&gt;n3</title>
<path fill="none" stroke="black" d="M616.73,-365.93C573.72,-344.52 499.94,-307.78 453.14,-284.48"/>
<polygon fill="black" stroke="black" points="454.67,-281.33 444.16,-280.01 451.55,-287.6 454.67,-281.33"/>
</g>
<!-- n4 -->
<g id="node4" class="node">
<title>n4</title>
<polygon fill="#fffdd0" stroke="black" points="742,-280 560,-280 560,-244 742,-244 742,-280"/>
<text text-anchor="middle" x="651" y="-258.3" font-family="Arial" font-size="14.00">Blue string connecting cups</text>
</g>
<!-- n1&#45;&gt;n4 -->
<g id="edge3" class="edge">
<title>n1&#45;&gt;n4</title>
<path fill="none" stroke="black" d="M651,-365.81C651,-346.11 651,-313.58 651,-290.39"/>
<polygon fill="black" stroke="black" points="654.5,-290.16 651,-280.16 647.5,-290.16 654.5,-290.16"/>
</g>
<!-- n5 -->
<g id="node5" class="node">
<title>n5</title>
<polygon fill="#fffdd0" stroke="black" points="1272,-280 1012,-280 1012,-244 1272,-244 1272,-280"/>
<text text-anchor="middle" x="1142" y="-258.3" font-family="Arial" font-size="14.00">Arrows along string indicate sound travel</text>
</g>
<!-- n1&#45;&gt;n5 -->
<g id="edge4" class="edge">
<title>n1&#45;&gt;n5</title>
<path fill="none" stroke="black" d="M720.57,-366C810.76,-343.95 967.7,-305.6 1062.5,-282.43"/>
<polygon fill="black" stroke="black" points="1063.42,-285.81 1072.3,-280.03 1061.75,-279.01 1063.42,-285.81"/>
</g>
<!-- n6 -->
<g id="node6" class="node">
<title>n6</title>
<polygon fill="#fffdd0" stroke="black" points="1650,-280 1436,-280 1436,-244 1650,-244 1650,-280"/>
<text text-anchor="middle" x="1543" y="-258.3" font-family="Arial" font-size="14.00">Simple, light&#45;colored background</text>
</g>
<!-- n1&#45;&gt;n6 -->
<g id="edge5" class="edge">
<title>n1&#45;&gt;n6</title>
<path fill="none" stroke="black" d="M769.45,-367.06C940.68,-344.03 1255.4,-301.68 1425.9,-278.75"/>
<polygon fill="black" stroke="black" points="1426.45,-282.21 1435.9,-277.41 1425.52,-275.27 1426.45,-282.21"/>
</g>
<!-- n7 -->
<g id="node7" class="node">
<title>n7</title>
<path fill="palegreen" stroke="black" d="M184,-158C184,-158 12,-158 12,-158 6,-158 0,-152 0,-146 0,-146 0,-134 0,-134 0,-128 6,-122 12,-122 12,-122 184,-122 184,-122 190,-122 196,-128 196,-134 196,-134 196,-146 196,-146 196,-152 190,-158 184,-158"/>
<text text-anchor="middle" x="98" y="-136.3" font-family="Arial" font-size="14.00">Communicating over distance</text>
</g>
<!-- n2&#45;&gt;n7 -->
<g id="edge6" class="edge">
<title>n2&#45;&gt;n7</title>
<path fill="none" stroke="black" d="M155.4,-243.81C144.21,-223.76 125.58,-190.4 112.59,-167.14"/>
<polygon fill="black" stroke="black" points="115.51,-165.19 107.58,-158.16 109.4,-168.6 115.51,-165.19"/>
</g>
<!-- n8 -->
<g id="node8" class="node">
<title>n8</title>
<path fill="palegreen" stroke="black" d="M439.5,-158C439.5,-158 266.5,-158 266.5,-158 260.5,-158 254.5,-152 254.5,-146 254.5,-146 254.5,-134 254.5,-134 254.5,-128 260.5,-122 266.5,-122 266.5,-122 439.5,-122 439.5,-122 445.5,-122 451.5,-128 451.5,-134 451.5,-134 451.5,-146 451.5,-146 451.5,-152 445.5,-158 439.5,-158"/>
<text text-anchor="middle" x="353" y="-136.3" font-family="Arial" font-size="14.00">Using cups as part of a device</text>
</g>
<!-- n3&#45;&gt;n8 -->
<g id="edge7" class="edge">
<title>n3&#45;&gt;n8</title>
<path fill="none" stroke="black" d="M401.83,-243.81C392.35,-223.85 376.61,-190.7 365.56,-167.45"/>
<polygon fill="black" stroke="black" points="368.6,-165.69 361.15,-158.16 362.28,-168.69 368.6,-165.69"/>
</g>
<!-- n9 -->
<g id="node9" class="node">
<title>n9</title>
<path fill="palegreen" stroke="black" d="M674.5,-158C674.5,-158 521.5,-158 521.5,-158 515.5,-158 509.5,-152 509.5,-146 509.5,-146 509.5,-134 509.5,-134 509.5,-128 515.5,-122 521.5,-122 521.5,-122 674.5,-122 674.5,-122 680.5,-122 686.5,-128 686.5,-134 686.5,-134 686.5,-146 686.5,-146 686.5,-152 680.5,-158 674.5,-158"/>
<text text-anchor="middle" x="598" y="-136.3" font-family="Arial" font-size="14.00">String as sound travel path</text>
</g>
<!-- n4&#45;&gt;n9 -->
<g id="edge8" class="edge">
<title>n4&#45;&gt;n9</title>
<path fill="none" stroke="black" d="M643.41,-243.81C634.59,-223.85 619.95,-190.7 609.68,-167.45"/>
<polygon fill="black" stroke="black" points="612.82,-165.9 605.58,-158.16 606.42,-168.72 612.82,-165.9"/>
</g>
<!-- n12 -->
<g id="node10" class="node">
<title>n12</title>
<polygon fill="lightcoral" stroke="black" points="971,-158 744.77,-140 971,-122 1197.23,-140 971,-158"/>
<text text-anchor="middle" x="971" y="-136.3" font-family="Arial" font-size="14.00">Sag in string misunderstands tautness</text>
</g>
<!-- n4&#45;&gt;n12 -->
<g id="edge9" class="edge">
<title>n4&#45;&gt;n12</title>
<path fill="none" stroke="black" d="M696.51,-243.93C756.78,-221.33 862.58,-181.66 923.73,-158.73"/>
<polygon fill="black" stroke="black" points="925.01,-161.99 933.14,-155.2 922.55,-155.44 925.01,-161.99"/>
</g>
<!-- n10 -->
<g id="node11" class="node">
<title>n10</title>
<path fill="palegreen" stroke="black" d="M1428.5,-158C1428.5,-158 1267.5,-158 1267.5,-158 1261.5,-158 1255.5,-152 1255.5,-146 1255.5,-146 1255.5,-134 1255.5,-134 1255.5,-128 1261.5,-122 1267.5,-122 1267.5,-122 1428.5,-122 1428.5,-122 1434.5,-122 1440.5,-128 1440.5,-134 1440.5,-134 1440.5,-146 1440.5,-146 1440.5,-152 1434.5,-158 1428.5,-158"/>
<text text-anchor="middle" x="1348" y="-136.3" font-family="Arial" font-size="14.00">Sound travels through string</text>
</g>
<!-- n5&#45;&gt;n10 -->
<g id="edge10" class="edge">
<title>n5&#45;&gt;n10</title>
<path fill="none" stroke="black" d="M1171.5,-243.81C1207.9,-222.6 1269.9,-186.5 1309.9,-163.21"/>
<polygon fill="black" stroke="black" points="1311.65,-166.24 1318.5,-158.16 1308.1,-160.21 1311.65,-166.24"/>
</g>
<!-- n11 -->
<g id="node12" class="node">
<title>n11</title>
<path fill="palegreen" stroke="black" d="M1681.5,-158C1681.5,-158 1510.5,-158 1510.5,-158 1504.5,-158 1498.5,-152 1498.5,-146 1498.5,-146 1498.5,-134 1498.5,-134 1498.5,-128 1504.5,-122 1510.5,-122 1510.5,-122 1681.5,-122 1681.5,-122 1687.5,-122 1693.5,-128 1693.5,-134 1693.5,-134 1693.5,-146 1693.5,-146 1693.5,-152 1687.5,-158 1681.5,-158"/>
<text text-anchor="middle" x="1596" y="-136.3" font-family="Arial" font-size="14.00">Device allows communication</text>
</g>
<!-- n6&#45;&gt;n11 -->
<g id="edge11" class="edge">
<title>n6&#45;&gt;n11</title>
<path fill="none" stroke="black" d="M1550.6,-243.81C1559.4,-223.85 1574.1,-190.7 1584.3,-167.45"/>
<polygon fill="black" stroke="black" points="1587.56,-168.72 1588.4,-158.16 1581.16,-165.9 1587.56,-168.72"/>
</g>
<!-- n13 -->
<g id="node13" class="node">
<title>n13</title>
<polygon fill="#f28e8e" stroke="black" points="1138,-36 804,-36 804,0 1138,0 1138,-36"/>
<text text-anchor="middle" x="971" y="-14.3" font-family="Arial" font-size="14.00">String should be taught for sound to travel effectively.</text>
</g>
<!-- n12&#45;&gt;n13 -->
<g id="edge12" class="edge">
<title>n12&#45;&gt;n13</title>
<path fill="none" stroke="black" d="M971,-121.81C971,-102.11 971,-69.58 971,-46.39"/>
<polygon fill="black" stroke="black" points="974.5,-46.16 971,-36.16 967.5,-46.16 974.5,-46.16"/>
</g>
</g>
</svg>
