<?xml version="1.0" encoding="UTF-8" standalone="no"?>
<!DOCTYPE svg PUBLIC "-//W3C//DTD SVG 1.1//EN"
 "http://www.w3.org/Graphics/SVG/1.1/DTD/svg11.dtd">
<!-- Generated by graphviz version 2.43.0 (0)
 -->
<!-- Pages: 1 -->
<svg width="1141pt" height="410pt"
 viewBox="0.00 0.00 1140.50 410.00" xmlns="http://www.w3.org/2000/svg" xmlns:xlink="http://www.w3.org/1999/xlink">
<g id="graph0" class="graph" transform="scale(1 1) rotate(0) translate(4 406)">
<polygon fill="white" stroke="transparent" points="-4,4 -4,-406 1136.5,-406 1136.5,4 -4,4"/>
<!-- n1 -->
<g id="node1" class="node">
<title>n1</title>
<polygon fill="lightblue" stroke="black" points="654.74,-384 561.62,-402 375.38,-402 282.26,-384 375.38,-366 561.62,-366 654.74,-384"/>
<text text-anchor="middle" x="468.5" y="-380.3" font-family="Arial" font-size="14.00">Illustrate plants with and without water.</text>
</g>
<!-- n2 -->
<g id="node2" class="node">
<title>n2</title>
<polygon fill="#fffdd0" stroke="black" points="706.5,-280 230.5,-280 230.5,-244 706.5,-244 706.5,-280"/>
<text text-anchor="middle" x="468.5" y="-258.3" font-family="Arial" font-size="14.00">Two identical green plants with tall brown stems and light green round leaves</text>
</g>
<!-- n1&#45;&gt;n2 -->
<g id="edge1" class="edge">
<title>n1&#45;&gt;n2</title>
<path fill="none" stroke="black" d="M468.5,-365.81C468.5,-346.11 468.5,-313.58 468.5,-290.39"/>
<polygon fill="black" stroke="black" points="472,-290.16 468.5,-280.16 465,-290.16 472,-290.16"/>
</g>
<!-- n3 -->
<g id="node3" class="node">
<title>n3</title>
<path fill="palegreen" stroke="black" d="M331,-158C331,-158 12,-158 12,-158 6,-158 0,-152 0,-146 0,-146 0,-134 0,-134 0,-128 6,-122 12,-122 12,-122 331,-122 331,-122 337,-122 343,-128 343,-134 343,-134 343,-146 343,-146 343,-152 337,-158 331,-158"/>
<text text-anchor="middle" x="171.5" y="-136.3" font-family="Arial" font-size="14.00">The student understands the basic structure of a plant.</text>
</g>
<!-- n2&#45;&gt;n3 -->
<g id="edge2" class="edge">
<title>n2&#45;&gt;n3</title>
<path fill="none" stroke="black" d="M426.26,-243.93C372.71,-222.3 280.44,-185.02 222.87,-161.76"/>
<polygon fill="black" stroke="black" points="224.17,-158.51 213.59,-158.01 221.55,-165 224.17,-158.51"/>
</g>
<!-- n4 -->
<g id="node4" class="node">
<title>n4</title>
<polygon fill="lightcoral" stroke="black" points="766.5,-158 400.5,-140 766.5,-122 1132.5,-140 766.5,-158"/>
<text text-anchor="middle" x="766.5" y="-136.3" font-family="Arial" font-size="14.00">The student does not understand that water affects plant health.</text>
</g>
<!-- n2&#45;&gt;n4 -->
<g id="edge3" class="edge">
<title>n2&#45;&gt;n4</title>
<path fill="none" stroke="black" d="M510.88,-243.93C565.87,-221.79 661.54,-183.27 718.95,-160.15"/>
<polygon fill="black" stroke="black" points="720.54,-163.28 728.51,-156.3 717.93,-156.79 720.54,-163.28"/>
</g>
<!-- n5 -->
<g id="node5" class="node">
<title>n5</title>
<polygon fill="#f28e8e" stroke="black" points="1099.5,-36 433.5,-36 433.5,0 1099.5,0 1099.5,-36"/>
<text text-anchor="middle" x="766.5" y="-14.3" font-family="Arial" font-size="14.00">Explain how water influences plant growth and health. Introduce visual differences (wilted vs. upright leaves).</text>
</g>
<!-- n4&#45;&gt;n5 -->
<g id="edge4" class="edge">
<title>n4&#45;&gt;n5</title>
<path fill="none" stroke="black" d="M766.5,-121.81C766.5,-102.11 766.5,-69.58 766.5,-46.39"/>
<polygon fill="black" stroke="black" points="770,-46.16 766.5,-36.16 763,-46.16 770,-46.16"/>
</g>
</g>
</svg>
