<?xml version="1.0" encoding="UTF-8" standalone="no"?>
<!DOCTYPE svg PUBLIC "-//W3C//DTD SVG 1.1//EN"
 "http://www.w3.org/Graphics/SVG/1.1/DTD/svg11.dtd">
<!-- Generated by graphviz version 2.43.0 (0)
 -->
<!-- Pages: 1 -->
<svg width="844pt" height="410pt"
 viewBox="0.00 0.00 844.00 410.00" xmlns="http://www.w3.org/2000/svg" xmlns:xlink="http://www.w3.org/1999/xlink">
<g id="graph0" class="graph" transform="scale(1 1) rotate(0) translate(4 406)">
<polygon fill="white" stroke="transparent" points="-4,4 -4,-406 840,-406 840,4 -4,4"/>
<!-- n1 -->
<g id="node1" class="node">
<title>n1</title>
<polygon fill="lightblue" stroke="black" points="497.5,-384 406.25,-402 223.75,-402 132.5,-384 223.75,-366 406.25,-366 497.5,-384"/>
<text text-anchor="middle" x="315" y="-380.3" font-family="Arial" font-size="14.00">Draw a fish in their habitat with labels.</text>
</g>
<!-- n2 -->
<g id="node2" class="node">
<title>n2</title>
<polygon fill="#fffdd0" stroke="black" points="292.5,-280 41.5,-280 41.5,-244 292.5,-244 292.5,-280"/>
<text text-anchor="middle" x="167" y="-258.3" font-family="Arial" font-size="14.00">Oval&#45;shaped yellow fish with &#39;fish&#39; label</text>
</g>
<!-- n1&#45;&gt;n2 -->
<g id="edge1" class="edge">
<title>n1&#45;&gt;n2</title>
<path fill="none" stroke="black" d="M293.8,-365.81C268.19,-345.04 224.98,-310.01 196.23,-286.7"/>
<polygon fill="black" stroke="black" points="198.14,-283.74 188.17,-280.16 193.73,-289.18 198.14,-283.74"/>
</g>
<!-- n3 -->
<g id="node3" class="node">
<title>n3</title>
<polygon fill="#fffdd0" stroke="black" points="614.5,-280 387.5,-280 387.5,-244 614.5,-244 614.5,-280"/>
<text text-anchor="middle" x="501" y="-258.3" font-family="Arial" font-size="14.00">Wavy blue lines representing water</text>
</g>
<!-- n1&#45;&gt;n3 -->
<g id="edge2" class="edge">
<title>n1&#45;&gt;n3</title>
<path fill="none" stroke="black" d="M341.65,-365.81C374.25,-344.78 429.53,-309.11 465.65,-285.8"/>
<polygon fill="black" stroke="black" points="467.89,-288.52 474.4,-280.16 464.1,-282.64 467.89,-288.52"/>
</g>
<!-- n4 -->
<g id="node4" class="node">
<title>n4</title>
<path fill="palegreen" stroke="black" d="M172,-158C172,-158 12,-158 12,-158 6,-158 0,-152 0,-146 0,-146 0,-134 0,-134 0,-128 6,-122 12,-122 12,-122 172,-122 172,-122 178,-122 184,-128 184,-134 184,-134 184,-146 184,-146 184,-152 178,-158 172,-158"/>
<text text-anchor="middle" x="92" y="-136.3" font-family="Arial" font-size="14.00">Simple water habitat for fish</text>
</g>
<!-- n2&#45;&gt;n4 -->
<g id="edge3" class="edge">
<title>n2&#45;&gt;n4</title>
<path fill="none" stroke="black" d="M156.25,-243.81C143.67,-223.67 122.69,-190.1 108.14,-166.83"/>
<polygon fill="black" stroke="black" points="110.99,-164.79 102.73,-158.16 105.05,-168.5 110.99,-164.79"/>
</g>
<!-- n5 -->
<g id="node5" class="node">
<title>n5</title>
<polygon fill="lightcoral" stroke="black" points="539,-158 242,-140 539,-122 836,-140 539,-158"/>
<text text-anchor="middle" x="539" y="-136.3" font-family="Arial" font-size="14.00">Missing labels for water and other habitat elements</text>
</g>
<!-- n3&#45;&gt;n5 -->
<g id="edge4" class="edge">
<title>n3&#45;&gt;n5</title>
<path fill="none" stroke="black" d="M506.44,-243.81C512.77,-223.82 523.29,-190.62 530.65,-167.37"/>
<polygon fill="black" stroke="black" points="534.01,-168.36 533.69,-157.77 527.33,-166.25 534.01,-168.36"/>
</g>
<!-- n6 -->
<g id="node6" class="node">
<title>n6</title>
<polygon fill="#f28e8e" stroke="black" points="712.5,-36 365.5,-36 365.5,0 712.5,0 712.5,-36"/>
<text text-anchor="middle" x="539" y="-14.3" font-family="Arial" font-size="14.00">Add labels for water and include other habitat elements</text>
</g>
<!-- n5&#45;&gt;n6 -->
<g id="edge5" class="edge">
<title>n5&#45;&gt;n6</title>
<path fill="none" stroke="black" d="M539,-121.81C539,-102.11 539,-69.58 539,-46.39"/>
<polygon fill="black" stroke="black" points="542.5,-46.16 539,-36.16 535.5,-46.16 542.5,-46.16"/>
</g>
</g>
</svg>
