<?xml version="1.0" encoding="UTF-8" standalone="no"?>
<!DOCTYPE svg PUBLIC "-//W3C//DTD SVG 1.1//EN"
 "http://www.w3.org/Graphics/SVG/1.1/DTD/svg11.dtd">
<!-- Generated by graphviz version 2.43.0 (0)
 -->
<!-- Pages: 1 -->
<svg width="1602pt" height="410pt"
 viewBox="0.00 0.00 1602.00 410.00" xmlns="http://www.w3.org/2000/svg" xmlns:xlink="http://www.w3.org/1999/xlink">
<g id="graph0" class="graph" transform="scale(1 1) rotate(0) translate(4 406)">
<polygon fill="white" stroke="transparent" points="-4,4 -4,-406 1598,-406 1598,4 -4,4"/>
<!-- n1 -->
<g id="node1" class="node">
<title>n1</title>
<polygon fill="lightblue" stroke="black" points="1065.5,-384 935.25,-402 674.75,-402 544.5,-384 674.75,-366 935.25,-366 1065.5,-384"/>
<text text-anchor="middle" x="805" y="-380.3" font-family="Arial" font-size="14.00">Draw two habitats and the different living things in each</text>
</g>
<!-- n2 -->
<g id="node2" class="node">
<title>n2</title>
<polygon fill="#fffdd0" stroke="black" points="774,-280 510,-280 510,-244 774,-244 774,-280"/>
<text text-anchor="middle" x="642" y="-258.3" font-family="Arial" font-size="14.00">Land habitat with a big tree and a squirrel</text>
</g>
<!-- n1&#45;&gt;n2 -->
<g id="edge1" class="edge">
<title>n1&#45;&gt;n2</title>
<path fill="none" stroke="black" d="M781.65,-365.81C753.2,-344.87 705.04,-309.41 673.38,-286.1"/>
<polygon fill="black" stroke="black" points="675.44,-283.27 665.31,-280.16 671.29,-288.91 675.44,-283.27"/>
</g>
<!-- n3 -->
<g id="node3" class="node">
<title>n3</title>
<polygon fill="#fffdd0" stroke="black" points="1146,-280 872,-280 872,-244 1146,-244 1146,-280"/>
<text text-anchor="middle" x="1009" y="-258.3" font-family="Arial" font-size="14.00">Water habitat with a pond, fish, and lily pad</text>
</g>
<!-- n1&#45;&gt;n3 -->
<g id="edge2" class="edge">
<title>n1&#45;&gt;n3</title>
<path fill="none" stroke="black" d="M834.23,-365.81C870.21,-344.64 931.39,-308.65 970.99,-285.36"/>
<polygon fill="black" stroke="black" points="972.99,-288.25 979.83,-280.16 969.44,-282.21 972.99,-288.25"/>
</g>
<!-- n4 -->
<g id="node4" class="node">
<title>n4</title>
<path fill="palegreen" stroke="black" d="M264,-158C264,-158 12,-158 12,-158 6,-158 0,-152 0,-146 0,-146 0,-134 0,-134 0,-128 6,-122 12,-122 12,-122 264,-122 264,-122 270,-122 276,-128 276,-134 276,-134 276,-146 276,-146 276,-152 270,-158 264,-158"/>
<text text-anchor="middle" x="138" y="-136.3" font-family="Arial" font-size="14.00">Understands basic elements of land habitat</text>
</g>
<!-- n2&#45;&gt;n4 -->
<g id="edge3" class="edge">
<title>n2&#45;&gt;n4</title>
<path fill="none" stroke="black" d="M570.59,-244C477.91,-221.93 316.59,-183.52 219.3,-160.36"/>
<polygon fill="black" stroke="black" points="220.05,-156.94 209.51,-158.03 218.43,-163.75 220.05,-156.94"/>
</g>
<!-- n6 -->
<g id="node5" class="node">
<title>n6</title>
<polygon fill="lightcoral" stroke="black" points="562,-158 334,-140 562,-122 790,-140 562,-158"/>
<text text-anchor="middle" x="562" y="-136.3" font-family="Arial" font-size="14.00">Lacks diversity in living things depicted</text>
</g>
<!-- n2&#45;&gt;n6 -->
<g id="edge4" class="edge">
<title>n2&#45;&gt;n6</title>
<path fill="none" stroke="black" d="M630.54,-243.81C616.9,-223.35 594.03,-189.04 578.49,-165.73"/>
<polygon fill="black" stroke="black" points="581.39,-163.77 572.93,-157.39 575.56,-167.65 581.39,-163.77"/>
</g>
<!-- n7 -->
<g id="node6" class="node">
<title>n7</title>
<polygon fill="lightcoral" stroke="black" points="1050,-158 847.57,-140 1050,-122 1252.43,-140 1050,-158"/>
<text text-anchor="middle" x="1050" y="-136.3" font-family="Arial" font-size="14.00">Does not label plants and animals</text>
</g>
<!-- n2&#45;&gt;n7 -->
<g id="edge5" class="edge">
<title>n2&#45;&gt;n7</title>
<path fill="none" stroke="black" d="M700.02,-243.93C778.77,-220.77 918.45,-179.69 995.39,-157.06"/>
<polygon fill="black" stroke="black" points="996.79,-160.3 1005.4,-154.13 994.82,-153.58 996.79,-160.3"/>
</g>
<!-- n3&#45;&gt;n6 -->
<g id="edge6" class="edge">
<title>n3&#45;&gt;n6</title>
<path fill="none" stroke="black" d="M945.43,-243.93C858.92,-220.71 705.28,-179.46 621.14,-156.88"/>
<polygon fill="black" stroke="black" points="621.8,-153.43 611.23,-154.22 619.98,-160.19 621.8,-153.43"/>
</g>
<!-- n3&#45;&gt;n7 -->
<g id="edge7" class="edge">
<title>n3&#45;&gt;n7</title>
<path fill="none" stroke="black" d="M1014.9,-243.81C1021.7,-223.82 1033,-190.62 1041,-167.37"/>
<polygon fill="black" stroke="black" points="1044.36,-168.36 1044.3,-157.77 1037.74,-166.09 1044.36,-168.36"/>
</g>
<!-- n5 -->
<g id="node7" class="node">
<title>n5</title>
<path fill="palegreen" stroke="black" d="M1582,-158C1582,-158 1322,-158 1322,-158 1316,-158 1310,-152 1310,-146 1310,-146 1310,-134 1310,-134 1310,-128 1316,-122 1322,-122 1322,-122 1582,-122 1582,-122 1588,-122 1594,-128 1594,-134 1594,-134 1594,-146 1594,-146 1594,-152 1588,-158 1582,-158"/>
<text text-anchor="middle" x="1452" y="-136.3" font-family="Arial" font-size="14.00">Understands basic elements of water habitat</text>
</g>
<!-- n3&#45;&gt;n5 -->
<g id="edge8" class="edge">
<title>n3&#45;&gt;n5</title>
<path fill="none" stroke="black" d="M1072,-243.93C1153.1,-221.96 1293.8,-183.86 1379.3,-160.69"/>
<polygon fill="black" stroke="black" points="1380.46,-164 1389.2,-158.01 1378.63,-157.24 1380.46,-164"/>
</g>
<!-- n8 -->
<g id="node8" class="node">
<title>n8</title>
<polygon fill="#f28e8e" stroke="black" points="708.5,-36 415.5,-36 415.5,0 708.5,0 708.5,-36"/>
<text text-anchor="middle" x="562" y="-14.3" font-family="Arial" font-size="14.00">Add more types of living things to each habitat</text>
</g>
<!-- n6&#45;&gt;n8 -->
<g id="edge9" class="edge">
<title>n6&#45;&gt;n8</title>
<path fill="none" stroke="black" d="M562,-121.81C562,-102.11 562,-69.58 562,-46.39"/>
<polygon fill="black" stroke="black" points="565.5,-46.16 562,-36.16 558.5,-46.16 565.5,-46.16"/>
</g>
<!-- n9 -->
<g id="node9" class="node">
<title>n9</title>
<polygon fill="#f28e8e" stroke="black" points="1203,-36 897,-36 897,0 1203,0 1203,-36"/>
<text text-anchor="middle" x="1050" y="-14.3" font-family="Arial" font-size="14.00">Label plants and animals to show understanding</text>
</g>
<!-- n7&#45;&gt;n9 -->
<g id="edge10" class="edge">
<title>n7&#45;&gt;n9</title>
<path fill="none" stroke="black" d="M1050,-121.81C1050,-102.11 1050,-69.58 1050,-46.39"/>
<polygon fill="black" stroke="black" points="1053.5,-46.16 1050,-36.16 1046.5,-46.16 1053.5,-46.16"/>
</g>
</g>
</svg>
