<?xml version="1.0" encoding="UTF-8" standalone="no"?>
<!DOCTYPE svg PUBLIC "-//W3C//DTD SVG 1.1//EN"
 "http://www.w3.org/Graphics/SVG/1.1/DTD/svg11.dtd">
<!-- Generated by graphviz version 2.43.0 (0)
 -->
<!-- Pages: 1 -->
<svg width="1833pt" height="410pt"
 viewBox="0.00 0.00 1833.23 410.00" xmlns="http://www.w3.org/2000/svg" xmlns:xlink="http://www.w3.org/1999/xlink">
<g id="graph0" class="graph" transform="scale(1 1) rotate(0) translate(4 406)">
<polygon fill="white" stroke="transparent" points="-4,4 -4,-406 1829.23,-406 1829.23,4 -4,4"/>
<!-- n1 -->
<g id="node1" class="node">
<title>n1</title>
<polygon fill="lightblue" stroke="black" points="940,-384 809.75,-402 549.25,-402 419,-384 549.25,-366 809.75,-366 940,-384"/>
<text text-anchor="middle" x="679.5" y="-380.3" font-family="Arial" font-size="14.00">Draw two habitats and the different living things in each</text>
</g>
<!-- n2 -->
<g id="node2" class="node">
<title>n2</title>
<polygon fill="#fffdd0" stroke="black" points="630,-280 253,-280 253,-244 630,-244 630,-280"/>
<text text-anchor="middle" x="441.5" y="-258.3" font-family="Arial" font-size="14.00">Land habitat with green trees, deer, owl, butterflies, and ants</text>
</g>
<!-- n1&#45;&gt;n2 -->
<g id="edge1" class="edge">
<title>n1&#45;&gt;n2</title>
<path fill="none" stroke="black" d="M645.65,-365.93C603.27,-344.57 530.63,-307.94 484.39,-284.63"/>
<polygon fill="black" stroke="black" points="485.73,-281.39 475.23,-280.01 482.58,-287.64 485.73,-281.39"/>
</g>
<!-- n3 -->
<g id="node3" class="node">
<title>n3</title>
<polygon fill="#fffdd0" stroke="black" points="1206,-280 747,-280 747,-244 1206,-244 1206,-280"/>
<text text-anchor="middle" x="976.5" y="-258.3" font-family="Arial" font-size="14.00">Aquatic habitat with wavy water, fish, turtle, frog, seaweed, and water lilies</text>
</g>
<!-- n1&#45;&gt;n3 -->
<g id="edge2" class="edge">
<title>n1&#45;&gt;n3</title>
<path fill="none" stroke="black" d="M721.74,-365.93C775.29,-344.3 867.56,-307.02 925.13,-283.76"/>
<polygon fill="black" stroke="black" points="926.45,-287 934.41,-280.01 923.83,-280.51 926.45,-287"/>
</g>
<!-- n4 -->
<g id="node4" class="node">
<title>n4</title>
<path fill="palegreen" stroke="black" d="M187,-158C187,-158 12,-158 12,-158 6,-158 0,-152 0,-146 0,-146 0,-134 0,-134 0,-128 6,-122 12,-122 12,-122 187,-122 187,-122 193,-122 199,-128 199,-134 199,-134 199,-146 199,-146 199,-152 193,-158 187,-158"/>
<text text-anchor="middle" x="99.5" y="-136.3" font-family="Arial" font-size="14.00">Identifies two different habitats</text>
</g>
<!-- n2&#45;&gt;n4 -->
<g id="edge3" class="edge">
<title>n2&#45;&gt;n4</title>
<path fill="none" stroke="black" d="M392.86,-243.93C330.82,-222.16 223.63,-184.56 157.43,-161.33"/>
<polygon fill="black" stroke="black" points="158.56,-158.02 147.97,-158.01 156.25,-164.62 158.56,-158.02"/>
</g>
<!-- n7 -->
<g id="node5" class="node">
<title>n7</title>
<path fill="palegreen" stroke="black" d="M494,-158C494,-158 269,-158 269,-158 263,-158 257,-152 257,-146 257,-146 257,-134 257,-134 257,-128 263,-122 269,-122 269,-122 494,-122 494,-122 500,-122 506,-128 506,-134 506,-134 506,-146 506,-146 506,-152 500,-158 494,-158"/>
<text text-anchor="middle" x="381.5" y="-136.3" font-family="Arial" font-size="14.00">Patterns: Comparison of life in habitats</text>
</g>
<!-- n2&#45;&gt;n7 -->
<g id="edge4" class="edge">
<title>n2&#45;&gt;n7</title>
<path fill="none" stroke="black" d="M432.9,-243.81C422.88,-223.76 406.2,-190.4 394.57,-167.14"/>
<polygon fill="black" stroke="black" points="397.68,-165.54 390.08,-158.16 391.42,-168.67 397.68,-165.54"/>
</g>
<!-- n8 -->
<g id="node6" class="node">
<title>n8</title>
<path fill="palegreen" stroke="black" d="M804.5,-158C804.5,-158 576.5,-158 576.5,-158 570.5,-158 564.5,-152 564.5,-146 564.5,-146 564.5,-134 564.5,-134 564.5,-128 570.5,-122 576.5,-122 576.5,-122 804.5,-122 804.5,-122 810.5,-122 816.5,-128 816.5,-134 816.5,-134 816.5,-146 816.5,-146 816.5,-152 810.5,-158 804.5,-158"/>
<text text-anchor="middle" x="690.5" y="-136.3" font-family="Arial" font-size="14.00">Organizes drawing to separate habitats</text>
</g>
<!-- n2&#45;&gt;n8 -->
<g id="edge5" class="edge">
<title>n2&#45;&gt;n8</title>
<path fill="none" stroke="black" d="M476.91,-243.93C521.35,-222.52 597.57,-185.78 645.93,-162.48"/>
<polygon fill="black" stroke="black" points="647.72,-165.5 655.21,-158.01 644.68,-159.2 647.72,-165.5"/>
</g>
<!-- n3&#45;&gt;n8 -->
<g id="edge6" class="edge">
<title>n3&#45;&gt;n8</title>
<path fill="none" stroke="black" d="M935.83,-243.93C884.37,-222.34 795.77,-185.17 740.31,-161.9"/>
<polygon fill="black" stroke="black" points="741.61,-158.65 731.03,-158.01 738.9,-165.1 741.61,-158.65"/>
</g>
<!-- n5 -->
<g id="node7" class="node">
<title>n5</title>
<path fill="palegreen" stroke="black" d="M1066.5,-158C1066.5,-158 886.5,-158 886.5,-158 880.5,-158 874.5,-152 874.5,-146 874.5,-146 874.5,-134 874.5,-134 874.5,-128 880.5,-122 886.5,-122 886.5,-122 1066.5,-122 1066.5,-122 1072.5,-122 1078.5,-128 1078.5,-134 1078.5,-134 1078.5,-146 1078.5,-146 1078.5,-152 1072.5,-158 1066.5,-158"/>
<text text-anchor="middle" x="976.5" y="-136.3" font-family="Arial" font-size="14.00">Variety of plants in each habitat</text>
</g>
<!-- n3&#45;&gt;n5 -->
<g id="edge7" class="edge">
<title>n3&#45;&gt;n5</title>
<path fill="none" stroke="black" d="M976.5,-243.81C976.5,-224.11 976.5,-191.58 976.5,-168.39"/>
<polygon fill="black" stroke="black" points="980,-168.16 976.5,-158.16 973,-168.16 980,-168.16"/>
</g>
<!-- n6 -->
<g id="node8" class="node">
<title>n6</title>
<path fill="palegreen" stroke="black" d="M1340,-158C1340,-158 1149,-158 1149,-158 1143,-158 1137,-152 1137,-146 1137,-146 1137,-134 1137,-134 1137,-128 1143,-122 1149,-122 1149,-122 1340,-122 1340,-122 1346,-122 1352,-128 1352,-134 1352,-134 1352,-146 1352,-146 1352,-152 1346,-158 1340,-158"/>
<text text-anchor="middle" x="1244.5" y="-136.3" font-family="Arial" font-size="14.00">Variety of animals in each habitat</text>
</g>
<!-- n3&#45;&gt;n6 -->
<g id="edge8" class="edge">
<title>n3&#45;&gt;n6</title>
<path fill="none" stroke="black" d="M1014.6,-243.93C1062.6,-222.43 1145.2,-185.48 1197.2,-162.19"/>
<polygon fill="black" stroke="black" points="1198.81,-165.3 1206.5,-158.01 1195.94,-158.92 1198.81,-165.3"/>
</g>
<!-- n9 -->
<g id="node9" class="node">
<title>n9</title>
<polygon fill="lightcoral" stroke="black" points="1617.5,-158 1409.54,-140 1617.5,-122 1825.46,-140 1617.5,-158"/>
<text text-anchor="middle" x="1617.5" y="-136.3" font-family="Arial" font-size="14.00">Struggles with labeling consistency</text>
</g>
<!-- n3&#45;&gt;n9 -->
<g id="edge9" class="edge">
<title>n3&#45;&gt;n9</title>
<path fill="none" stroke="black" d="M1067.3,-244C1195.7,-219.97 1427.6,-176.55 1545.1,-154.56"/>
<polygon fill="black" stroke="black" points="1545.91,-157.97 1555.1,-152.69 1544.63,-151.09 1545.91,-157.97"/>
</g>
<!-- n10 -->
<g id="node10" class="node">
<title>n10</title>
<polygon fill="#f28e8e" stroke="black" points="1748.5,-36 1486.5,-36 1486.5,0 1748.5,0 1748.5,-36"/>
<text text-anchor="middle" x="1617.5" y="-14.3" font-family="Arial" font-size="14.00">Consider labeling all species consistently</text>
</g>
<!-- n9&#45;&gt;n10 -->
<g id="edge10" class="edge">
<title>n9&#45;&gt;n10</title>
<path fill="none" stroke="black" d="M1617.5,-121.81C1617.5,-102.11 1617.5,-69.58 1617.5,-46.39"/>
<polygon fill="black" stroke="black" points="1621,-46.16 1617.5,-36.16 1614,-46.16 1621,-46.16"/>
</g>
</g>
</svg>
