<?xml version="1.0" encoding="UTF-8" standalone="no"?>
<!DOCTYPE svg PUBLIC "-//W3C//DTD SVG 1.1//EN"
 "http://www.w3.org/Graphics/SVG/1.1/DTD/svg11.dtd">
<!-- Generated by graphviz version 2.43.0 (0)
 -->
<!-- Pages: 1 -->
<svg width="1565pt" height="410pt"
 viewBox="0.00 0.00 1565.00 410.00" xmlns="http://www.w3.org/2000/svg" xmlns:xlink="http://www.w3.org/1999/xlink">
<g id="graph0" class="graph" transform="scale(1 1) rotate(0) translate(4 406)">
<polygon fill="white" stroke="transparent" points="-4,4 -4,-406 1561,-406 1561,4 -4,4"/>
<!-- n1 -->
<g id="node1" class="node">
<title>n1</title>
<polygon fill="lightblue" stroke="black" points="1069.5,-384 978.25,-402 795.75,-402 704.5,-384 795.75,-366 978.25,-366 1069.5,-384"/>
<text text-anchor="middle" x="887" y="-380.3" font-family="Arial" font-size="14.00">Draw reversible changes (ice melting)</text>
</g>
<!-- n2 -->
<g id="node2" class="node">
<title>n2</title>
<polygon fill="#fffdd0" stroke="black" points="262,-280 0,-280 0,-244 262,-244 262,-280"/>
<text text-anchor="middle" x="131" y="-258.3" font-family="Arial" font-size="14.00">Solid block of ice drawn and shaded blue</text>
</g>
<!-- n1&#45;&gt;n2 -->
<g id="edge1" class="edge">
<title>n1&#45;&gt;n2</title>
<path fill="none" stroke="black" d="M788.55,-367.37C649.69,-345.33 396.69,-305.17 248.28,-281.62"/>
<polygon fill="black" stroke="black" points="248.64,-278.13 238.21,-280.02 247.54,-285.05 248.64,-278.13"/>
</g>
<!-- n3 -->
<g id="node3" class="node">
<title>n3</title>
<polygon fill="#fffdd0" stroke="black" points="878,-280 646,-280 646,-244 878,-244 878,-280"/>
<text text-anchor="middle" x="762" y="-258.3" font-family="Arial" font-size="14.00">Sun symbol nearby suggesting heat</text>
</g>
<!-- n1&#45;&gt;n3 -->
<g id="edge2" class="edge">
<title>n1&#45;&gt;n3</title>
<path fill="none" stroke="black" d="M869.09,-365.81C847.65,-345.22 811.6,-310.61 787.31,-287.3"/>
<polygon fill="black" stroke="black" points="789.52,-284.57 779.88,-280.16 784.67,-289.61 789.52,-284.57"/>
</g>
<!-- n4 -->
<g id="node4" class="node">
<title>n4</title>
<polygon fill="#fffdd0" stroke="black" points="588,-280 320,-280 320,-244 588,-244 588,-280"/>
<text text-anchor="middle" x="454" y="-258.3" font-family="Arial" font-size="14.00">Wavy blue lines symbolizing melted water</text>
</g>
<!-- n1&#45;&gt;n4 -->
<g id="edge3" class="edge">
<title>n1&#45;&gt;n4</title>
<path fill="none" stroke="black" d="M825.42,-365.93C746.14,-343.96 608.66,-305.86 525.04,-282.69"/>
<polygon fill="black" stroke="black" points="525.94,-279.31 515.37,-280.01 524.07,-286.05 525.94,-279.31"/>
</g>
<!-- n5 -->
<g id="node5" class="node">
<title>n5</title>
<polygon fill="#fffdd0" stroke="black" points="1089.5,-280 936.5,-280 936.5,-244 1089.5,-244 1089.5,-280"/>
<text text-anchor="middle" x="1013" y="-258.3" font-family="Arial" font-size="14.00">Arrow labeled &#39;melting&#39;</text>
</g>
<!-- n1&#45;&gt;n5 -->
<g id="edge4" class="edge">
<title>n1&#45;&gt;n5</title>
<path fill="none" stroke="black" d="M905.05,-365.81C926.67,-345.22 963.01,-310.61 987.48,-287.3"/>
<polygon fill="black" stroke="black" points="990.15,-289.59 994.98,-280.16 985.32,-284.52 990.15,-289.59"/>
</g>
<!-- n6 -->
<g id="node6" class="node">
<title>n6</title>
<polygon fill="#fffdd0" stroke="black" points="1557,-280 1363,-280 1363,-244 1557,-244 1557,-280"/>
<text text-anchor="middle" x="1460" y="-258.3" font-family="Arial" font-size="14.00">Snowflake symbol near water</text>
</g>
<!-- n1&#45;&gt;n6 -->
<g id="edge5" class="edge">
<title>n1&#45;&gt;n6</title>
<path fill="none" stroke="black" d="M968.18,-366C1074,-343.84 1258.4,-305.21 1368.9,-282.08"/>
<polygon fill="black" stroke="black" points="1369.63,-285.5 1378.7,-280.03 1368.2,-278.65 1369.63,-285.5"/>
</g>
<!-- n7 -->
<g id="node7" class="node">
<title>n7</title>
<polygon fill="#fffdd0" stroke="black" points="1304.5,-280 1147.5,-280 1147.5,-244 1304.5,-244 1304.5,-280"/>
<text text-anchor="middle" x="1226" y="-258.3" font-family="Arial" font-size="14.00">Arrow labeled &#39;freezing&#39;</text>
</g>
<!-- n1&#45;&gt;n7 -->
<g id="edge6" class="edge">
<title>n1&#45;&gt;n7</title>
<path fill="none" stroke="black" d="M935.21,-365.93C996.59,-344.21 1102.5,-306.71 1168.2,-283.47"/>
<polygon fill="black" stroke="black" points="1169.74,-286.64 1178,-280.01 1167.41,-280.04 1169.74,-286.64"/>
</g>
<!-- n8 -->
<g id="node8" class="node">
<title>n8</title>
<path fill="palegreen" stroke="black" d="M382.5,-158C382.5,-158 203.5,-158 203.5,-158 197.5,-158 191.5,-152 191.5,-146 191.5,-146 191.5,-134 191.5,-134 191.5,-128 197.5,-122 203.5,-122 203.5,-122 382.5,-122 382.5,-122 388.5,-122 394.5,-128 394.5,-134 394.5,-134 394.5,-146 394.5,-146 394.5,-152 388.5,-158 382.5,-158"/>
<text text-anchor="middle" x="293" y="-136.3" font-family="Arial" font-size="14.00">Cycle shows reversible change</text>
</g>
<!-- n2&#45;&gt;n8 -->
<g id="edge7" class="edge">
<title>n2&#45;&gt;n8</title>
<path fill="none" stroke="black" d="M154.21,-243.81C182.36,-222.96 229.94,-187.71 261.41,-164.4"/>
<polygon fill="black" stroke="black" points="263.88,-166.93 269.83,-158.16 259.71,-161.3 263.88,-166.93"/>
</g>
<!-- n9 -->
<g id="node9" class="node">
<title>n9</title>
<path fill="palegreen" stroke="black" d="M877,-158C877,-158 655,-158 655,-158 649,-158 643,-152 643,-146 643,-146 643,-134 643,-134 643,-128 649,-122 655,-122 655,-122 877,-122 877,-122 883,-122 889,-128 889,-134 889,-134 889,-146 889,-146 889,-152 883,-158 877,-158"/>
<text text-anchor="middle" x="766" y="-136.3" font-family="Arial" font-size="14.00">Indicates sequence: ice melts to water</text>
</g>
<!-- n3&#45;&gt;n9 -->
<g id="edge8" class="edge">
<title>n3&#45;&gt;n9</title>
<path fill="none" stroke="black" d="M762.57,-243.81C763.23,-224.11 764.31,-191.58 765.09,-168.39"/>
<polygon fill="black" stroke="black" points="768.6,-168.27 765.43,-158.16 761.6,-168.04 768.6,-168.27"/>
</g>
<!-- n4&#45;&gt;n8 -->
<g id="edge9" class="edge">
<title>n4&#45;&gt;n8</title>
<path fill="none" stroke="black" d="M430.93,-243.81C402.96,-222.96 355.67,-187.71 324.39,-164.4"/>
<polygon fill="black" stroke="black" points="326.13,-161.33 316.02,-158.16 321.95,-166.94 326.13,-161.33"/>
</g>
<!-- n5&#45;&gt;n9 -->
<g id="edge10" class="edge">
<title>n5&#45;&gt;n9</title>
<path fill="none" stroke="black" d="M977.87,-243.93C933.8,-222.52 858.18,-185.78 810.21,-162.48"/>
<polygon fill="black" stroke="black" points="811.53,-159.23 801.01,-158.01 808.47,-165.53 811.53,-159.23"/>
</g>
<!-- n11 -->
<g id="node10" class="node">
<title>n11</title>
<polygon fill="lightcoral" stroke="black" points="1134,-158 961,-140 1134,-122 1307,-140 1134,-158"/>
<text text-anchor="middle" x="1134" y="-136.3" font-family="Arial" font-size="14.00">Misplaced arrows and labels</text>
</g>
<!-- n5&#45;&gt;n11 -->
<g id="edge11" class="edge">
<title>n5&#45;&gt;n11</title>
<path fill="none" stroke="black" d="M1030.3,-243.81C1051.6,-222.75 1087.6,-187.03 1111.1,-163.73"/>
<polygon fill="black" stroke="black" points="1113.6,-166.18 1118.2,-156.63 1108.65,-161.23 1113.6,-166.18"/>
</g>
<!-- n10 -->
<g id="node11" class="node">
<title>n10</title>
<path fill="palegreen" stroke="black" d="M1528.5,-158C1528.5,-158 1383.5,-158 1383.5,-158 1377.5,-158 1371.5,-152 1371.5,-146 1371.5,-146 1371.5,-134 1371.5,-134 1371.5,-128 1377.5,-122 1383.5,-122 1383.5,-122 1528.5,-122 1528.5,-122 1534.5,-122 1540.5,-128 1540.5,-134 1540.5,-134 1540.5,-146 1540.5,-146 1540.5,-152 1534.5,-158 1528.5,-158"/>
<text text-anchor="middle" x="1456" y="-136.3" font-family="Arial" font-size="14.00">Water freezes back to ice</text>
</g>
<!-- n6&#45;&gt;n10 -->
<g id="edge12" class="edge">
<title>n6&#45;&gt;n10</title>
<path fill="none" stroke="black" d="M1459.4,-243.81C1458.8,-224.11 1457.7,-191.58 1456.9,-168.39"/>
<polygon fill="black" stroke="black" points="1460.39,-168.05 1456.6,-158.16 1453.39,-168.26 1460.39,-168.05"/>
</g>
<!-- n7&#45;&gt;n11 -->
<g id="edge13" class="edge">
<title>n7&#45;&gt;n11</title>
<path fill="none" stroke="black" d="M1212.8,-243.81C1197,-223.14 1170.3,-188.35 1152.4,-165.03"/>
<polygon fill="black" stroke="black" points="1155.14,-162.85 1146.3,-157.01 1149.57,-167.09 1155.14,-162.85"/>
</g>
<!-- n7&#45;&gt;n10 -->
<g id="edge14" class="edge">
<title>n7&#45;&gt;n10</title>
<path fill="none" stroke="black" d="M1259,-243.81C1299.8,-222.51 1369.4,-186.2 1414,-162.92"/>
<polygon fill="black" stroke="black" points="1415.86,-165.9 1423.1,-158.16 1412.62,-159.69 1415.86,-165.9"/>
</g>
<!-- n12 -->
<g id="node12" class="node">
<title>n12</title>
<polygon fill="#f28e8e" stroke="black" points="1254.5,-36 1013.5,-36 1013.5,0 1254.5,0 1254.5,-36"/>
<text text-anchor="middle" x="1134" y="-14.3" font-family="Arial" font-size="14.00">Position labels accurately with arrows</text>
</g>
<!-- n11&#45;&gt;n12 -->
<g id="edge15" class="edge">
<title>n11&#45;&gt;n12</title>
<path fill="none" stroke="black" d="M1134,-121.81C1134,-102.11 1134,-69.58 1134,-46.39"/>
<polygon fill="black" stroke="black" points="1137.5,-46.16 1134,-36.16 1130.5,-46.16 1137.5,-46.16"/>
</g>
</g>
</svg>
