<?xml version="1.0" encoding="UTF-8" standalone="no"?>
<!DOCTYPE svg PUBLIC "-//W3C//DTD SVG 1.1//EN"
 "http://www.w3.org/Graphics/SVG/1.1/DTD/svg11.dtd">
<!-- Generated by graphviz version 2.43.0 (0)
 -->
<!-- Pages: 1 -->
<svg width="1812pt" height="410pt"
 viewBox="0.00 0.00 1811.74 410.00" xmlns="http://www.w3.org/2000/svg" xmlns:xlink="http://www.w3.org/1999/xlink">
<g id="graph0" class="graph" transform="scale(1 1) rotate(0) translate(4 406)">
<polygon fill="white" stroke="transparent" points="-4,4 -4,-406 1807.74,-406 1807.74,4 -4,4"/>
<!-- n1 -->
<g id="node1" class="node">
<title>n1</title>
<polygon fill="lightblue" stroke="black" points="1256,-384 1164.75,-402 982.25,-402 891,-384 982.25,-366 1164.75,-366 1256,-384"/>
<text text-anchor="middle" x="1073.5" y="-380.3" font-family="Arial" font-size="14.00">Draw reversible changes (ice melting)</text>
</g>
<!-- n2 -->
<g id="node2" class="node">
<title>n2</title>
<polygon fill="#fffdd0" stroke="black" points="641,-280 416,-280 416,-244 641,-244 641,-280"/>
<text text-anchor="middle" x="528.5" y="-258.3" font-family="Arial" font-size="14.00">Square shape resembling ice cube</text>
</g>
<!-- n1&#45;&gt;n2 -->
<g id="edge1" class="edge">
<title>n1&#45;&gt;n2</title>
<path fill="none" stroke="black" d="M996.28,-366C895.86,-343.89 720.91,-305.37 615.78,-282.22"/>
<polygon fill="black" stroke="black" points="616.35,-278.76 605.83,-280.03 614.84,-285.6 616.35,-278.76"/>
</g>
<!-- n3 -->
<g id="node3" class="node">
<title>n3</title>
<polygon fill="#fffdd0" stroke="black" points="1209.5,-280 937.5,-280 937.5,-244 1209.5,-244 1209.5,-280"/>
<text text-anchor="middle" x="1073.5" y="-258.3" font-family="Arial" font-size="14.00">Amorphous, wavy shape resembling water</text>
</g>
<!-- n1&#45;&gt;n3 -->
<g id="edge2" class="edge">
<title>n1&#45;&gt;n3</title>
<path fill="none" stroke="black" d="M1073.5,-365.81C1073.5,-346.11 1073.5,-313.58 1073.5,-290.39"/>
<polygon fill="black" stroke="black" points="1077,-290.16 1073.5,-280.16 1070,-290.16 1077,-290.16"/>
</g>
<!-- n4 -->
<g id="node4" class="node">
<title>n4</title>
<polygon fill="#fffdd0" stroke="black" points="1650,-280 1355,-280 1355,-244 1650,-244 1650,-280"/>
<text text-anchor="middle" x="1502.5" y="-258.3" font-family="Arial" font-size="14.00">Random arrows pointing in assorted directions</text>
</g>
<!-- n1&#45;&gt;n4 -->
<g id="edge3" class="edge">
<title>n1&#45;&gt;n4</title>
<path fill="none" stroke="black" d="M1134.5,-365.93C1213,-343.99 1349,-305.94 1431.9,-282.76"/>
<polygon fill="black" stroke="black" points="1433.02,-286.08 1441.7,-280.01 1431.13,-279.34 1433.02,-286.08"/>
</g>
<!-- n5 -->
<g id="node5" class="node">
<title>n5</title>
<path fill="palegreen" stroke="black" d="M217,-158C217,-158 12,-158 12,-158 6,-158 0,-152 0,-146 0,-146 0,-134 0,-134 0,-128 6,-122 12,-122 12,-122 217,-122 217,-122 223,-122 229,-128 229,-134 229,-134 229,-146 229,-146 229,-152 223,-158 217,-158"/>
<text text-anchor="middle" x="114.5" y="-136.3" font-family="Arial" font-size="14.00">Understands ice can turn into water</text>
</g>
<!-- n2&#45;&gt;n5 -->
<g id="edge4" class="edge">
<title>n2&#45;&gt;n5</title>
<path fill="none" stroke="black" d="M469.62,-243.93C394.05,-222.03 263.17,-184.09 183.15,-160.9"/>
<polygon fill="black" stroke="black" points="183.75,-157.43 173.17,-158.01 181.8,-164.15 183.75,-157.43"/>
</g>
<!-- n6 -->
<g id="node6" class="node">
<title>n6</title>
<polygon fill="lightcoral" stroke="black" points="528.5,-158 286.52,-140 528.5,-122 770.48,-140 528.5,-158"/>
<text text-anchor="middle" x="528.5" y="-136.3" font-family="Arial" font-size="14.00">Lack of understanding of melting process</text>
</g>
<!-- n2&#45;&gt;n6 -->
<g id="edge5" class="edge">
<title>n2&#45;&gt;n6</title>
<path fill="none" stroke="black" d="M528.5,-243.81C528.5,-224.11 528.5,-191.58 528.5,-168.39"/>
<polygon fill="black" stroke="black" points="532,-168.16 528.5,-158.16 525,-168.16 532,-168.16"/>
</g>
<!-- n7 -->
<g id="node7" class="node">
<title>n7</title>
<polygon fill="lightcoral" stroke="black" points="1073.5,-158 828,-140 1073.5,-122 1319,-140 1073.5,-158"/>
<text text-anchor="middle" x="1073.5" y="-136.3" font-family="Arial" font-size="14.00">Lack of understanding of freezing process</text>
</g>
<!-- n3&#45;&gt;n7 -->
<g id="edge6" class="edge">
<title>n3&#45;&gt;n7</title>
<path fill="none" stroke="black" d="M1073.5,-243.81C1073.5,-224.11 1073.5,-191.58 1073.5,-168.39"/>
<polygon fill="black" stroke="black" points="1077,-168.16 1073.5,-158.16 1070,-168.16 1077,-168.16"/>
</g>
<!-- n8 -->
<g id="node8" class="node">
<title>n8</title>
<polygon fill="lightcoral" stroke="black" points="1590.5,-158 1377.01,-140 1590.5,-122 1803.99,-140 1590.5,-158"/>
<text text-anchor="middle" x="1590.5" y="-136.3" font-family="Arial" font-size="14.00">Confusion about reversible changes</text>
</g>
<!-- n4&#45;&gt;n8 -->
<g id="edge7" class="edge">
<title>n4&#45;&gt;n8</title>
<path fill="none" stroke="black" d="M1515.1,-243.81C1530.2,-223.23 1555.6,-188.65 1572.7,-165.34"/>
<polygon fill="black" stroke="black" points="1575.72,-167.15 1578.8,-157.01 1570.07,-163.01 1575.72,-167.15"/>
</g>
<!-- n9 -->
<g id="node9" class="node">
<title>n9</title>
<polygon fill="#f28e8e" stroke="black" points="676.5,-36 380.5,-36 380.5,0 676.5,0 676.5,-36"/>
<text text-anchor="middle" x="528.5" y="-14.3" font-family="Arial" font-size="14.00">Add labels to clarify melting and freezing steps</text>
</g>
<!-- n6&#45;&gt;n9 -->
<g id="edge8" class="edge">
<title>n6&#45;&gt;n9</title>
<path fill="none" stroke="black" d="M528.5,-121.81C528.5,-102.11 528.5,-69.58 528.5,-46.39"/>
<polygon fill="black" stroke="black" points="532,-46.16 528.5,-36.16 525,-46.16 532,-46.16"/>
</g>
<!-- n10 -->
<g id="node10" class="node">
<title>n10</title>
<polygon fill="#f28e8e" stroke="black" points="1276,-36 871,-36 871,0 1276,0 1276,-36"/>
<text text-anchor="middle" x="1073.5" y="-14.3" font-family="Arial" font-size="14.00">Use arrows to show direction of change: ice to water, water to ice</text>
</g>
<!-- n7&#45;&gt;n10 -->
<g id="edge9" class="edge">
<title>n7&#45;&gt;n10</title>
<path fill="none" stroke="black" d="M1073.5,-121.81C1073.5,-102.11 1073.5,-69.58 1073.5,-46.39"/>
<polygon fill="black" stroke="black" points="1077,-46.16 1073.5,-36.16 1070,-46.16 1077,-46.16"/>
</g>
<!-- n11 -->
<g id="node11" class="node">
<title>n11</title>
<polygon fill="#f28e8e" stroke="black" points="1741.5,-36 1439.5,-36 1439.5,0 1741.5,0 1741.5,-36"/>
<text text-anchor="middle" x="1590.5" y="-14.3" font-family="Arial" font-size="14.00">Explain heating melts ice, cooling freezes water</text>
</g>
<!-- n8&#45;&gt;n11 -->
<g id="edge10" class="edge">
<title>n8&#45;&gt;n11</title>
<path fill="none" stroke="black" d="M1590.5,-121.81C1590.5,-102.11 1590.5,-69.58 1590.5,-46.39"/>
<polygon fill="black" stroke="black" points="1594,-46.16 1590.5,-36.16 1587,-46.16 1594,-46.16"/>
</g>
</g>
</svg>
