<?xml version="1.0" encoding="UTF-8" standalone="no"?>
<!DOCTYPE svg PUBLIC "-//W3C//DTD SVG 1.1//EN"
 "http://www.w3.org/Graphics/SVG/1.1/DTD/svg11.dtd">
<!-- Generated by graphviz version 2.43.0 (0)
 -->
<!-- Pages: 1 -->
<svg width="1033pt" height="410pt"
 viewBox="0.00 0.00 1032.60 410.00" xmlns="http://www.w3.org/2000/svg" xmlns:xlink="http://www.w3.org/1999/xlink">
<g id="graph0" class="graph" transform="scale(1 1) rotate(0) translate(4 406)">
<polygon fill="white" stroke="transparent" points="-4,4 -4,-406 1028.6,-406 1028.6,4 -4,4"/>
<!-- n1 -->
<g id="node1" class="node">
<title>n1</title>
<polygon fill="lightblue" stroke="black" points="783.6,-384 671.35,-402 446.85,-402 334.6,-384 446.85,-366 671.35,-366 783.6,-384"/>
<text text-anchor="middle" x="559.1" y="-380.3" font-family="Arial" font-size="14.00">Illustrate plants with and without water and light</text>
</g>
<!-- n2 -->
<g id="node2" class="node">
<title>n2</title>
<polygon fill="#fffdd0" stroke="black" points="387.1,-280 179.1,-280 179.1,-244 387.1,-244 387.1,-280"/>
<text text-anchor="middle" x="283.1" y="-258.3" font-family="Arial" font-size="14.00">Plant with sun and water puddle</text>
</g>
<!-- n1&#45;&gt;n2 -->
<g id="edge1" class="edge">
<title>n1&#45;&gt;n2</title>
<path fill="none" stroke="black" d="M519.85,-365.93C470.29,-344.39 385.05,-307.32 331.5,-284.04"/>
<polygon fill="black" stroke="black" points="332.79,-280.78 322.22,-280.01 330,-287.2 332.79,-280.78"/>
</g>
<!-- n3 -->
<g id="node3" class="node">
<title>n3</title>
<polygon fill="#fffdd0" stroke="black" points="672.6,-280 445.6,-280 445.6,-244 672.6,-244 672.6,-280"/>
<text text-anchor="middle" x="559.1" y="-258.3" font-family="Arial" font-size="14.00">Plant without sun and water puddle</text>
</g>
<!-- n1&#45;&gt;n3 -->
<g id="edge2" class="edge">
<title>n1&#45;&gt;n3</title>
<path fill="none" stroke="black" d="M559.1,-365.81C559.1,-346.11 559.1,-313.58 559.1,-290.39"/>
<polygon fill="black" stroke="black" points="562.6,-290.16 559.1,-280.16 555.6,-290.16 562.6,-290.16"/>
</g>
<!-- n4 -->
<g id="node4" class="node">
<title>n4</title>
<polygon fill="#fffdd0" stroke="black" points="884.6,-280 741.6,-280 741.6,-244 884.6,-244 884.6,-280"/>
<text text-anchor="middle" x="813.1" y="-258.3" font-family="Arial" font-size="14.00">Plants look the same</text>
</g>
<!-- n1&#45;&gt;n4 -->
<g id="edge3" class="edge">
<title>n1&#45;&gt;n4</title>
<path fill="none" stroke="black" d="M595.22,-365.93C640.64,-344.48 718.63,-307.63 767.94,-284.33"/>
<polygon fill="black" stroke="black" points="769.55,-287.44 777.1,-280.01 766.56,-281.11 769.55,-287.44"/>
</g>
<!-- n5 -->
<g id="node5" class="node">
<title>n5</title>
<polygon fill="lightcoral" stroke="black" points="283.1,-158 -0.1,-140 283.1,-122 566.3,-140 283.1,-158"/>
<text text-anchor="middle" x="283.1" y="-136.3" font-family="Arial" font-size="14.00">Unable to show that water and light affect growth</text>
</g>
<!-- n2&#45;&gt;n5 -->
<g id="edge4" class="edge">
<title>n2&#45;&gt;n5</title>
<path fill="none" stroke="black" d="M283.1,-243.81C283.1,-224.11 283.1,-191.58 283.1,-168.39"/>
<polygon fill="black" stroke="black" points="286.6,-168.16 283.1,-158.16 279.6,-168.16 286.6,-168.16"/>
</g>
<!-- n3&#45;&gt;n5 -->
<g id="edge5" class="edge">
<title>n3&#45;&gt;n5</title>
<path fill="none" stroke="black" d="M519.85,-243.93C468.85,-221.76 380.07,-183.16 326.92,-160.05"/>
<polygon fill="black" stroke="black" points="328,-156.7 317.43,-155.93 325.21,-163.12 328,-156.7"/>
</g>
<!-- n6 -->
<g id="node6" class="node">
<title>n6</title>
<polygon fill="lightcoral" stroke="black" points="824.1,-158 623.6,-140 824.1,-122 1024.6,-140 824.1,-158"/>
<text text-anchor="middle" x="824.1" y="-136.3" font-family="Arial" font-size="14.00">Misuse of environmental symbols</text>
</g>
<!-- n4&#45;&gt;n6 -->
<g id="edge6" class="edge">
<title>n4&#45;&gt;n6</title>
<path fill="none" stroke="black" d="M814.68,-243.81C816.48,-224.11 819.46,-191.58 821.59,-168.39"/>
<polygon fill="black" stroke="black" points="825.1,-168.44 822.53,-158.16 818.13,-167.8 825.1,-168.44"/>
</g>
<!-- n7 -->
<g id="node7" class="node">
<title>n7</title>
<polygon fill="#f28e8e" stroke="black" points="420.1,-36 146.1,-36 146.1,0 420.1,0 420.1,-36"/>
<text text-anchor="middle" x="283.1" y="-14.3" font-family="Arial" font-size="14.00">Include labels to show water/light presence</text>
</g>
<!-- n5&#45;&gt;n7 -->
<g id="edge7" class="edge">
<title>n5&#45;&gt;n7</title>
<path fill="none" stroke="black" d="M283.1,-121.81C283.1,-102.11 283.1,-69.58 283.1,-46.39"/>
<polygon fill="black" stroke="black" points="286.6,-46.16 283.1,-36.16 279.6,-46.16 286.6,-46.16"/>
</g>
<!-- n8 -->
<g id="node8" class="node">
<title>n8</title>
<polygon fill="#f28e8e" stroke="black" points="946.6,-36 701.6,-36 701.6,0 946.6,0 946.6,-36"/>
<text text-anchor="middle" x="824.1" y="-14.3" font-family="Arial" font-size="14.00">Show growth differences with patterns</text>
</g>
<!-- n6&#45;&gt;n8 -->
<g id="edge8" class="edge">
<title>n6&#45;&gt;n8</title>
<path fill="none" stroke="black" d="M824.1,-121.81C824.1,-102.11 824.1,-69.58 824.1,-46.39"/>
<polygon fill="black" stroke="black" points="827.6,-46.16 824.1,-36.16 820.6,-46.16 827.6,-46.16"/>
</g>
</g>
</svg>
