<?xml version="1.0" encoding="UTF-8" standalone="no"?>
<!DOCTYPE svg PUBLIC "-//W3C//DTD SVG 1.1//EN"
 "http://www.w3.org/Graphics/SVG/1.1/DTD/svg11.dtd">
<!-- Generated by graphviz version 2.43.0 (0)
 -->
<!-- Pages: 1 -->
<svg width="1281pt" height="410pt"
 viewBox="0.00 0.00 1281.00 410.00" xmlns="http://www.w3.org/2000/svg" xmlns:xlink="http://www.w3.org/1999/xlink">
<g id="graph0" class="graph" transform="scale(1 1) rotate(0) translate(4 406)">
<polygon fill="white" stroke="transparent" points="-4,4 -4,-406 1277,-406 1277,4 -4,4"/>
<!-- n1 -->
<g id="node1" class="node">
<title>n1</title>
<polygon fill="lightblue" stroke="black" points="923,-384 831,-402 647,-402 555,-384 647,-366 831,-366 923,-384"/>
<text text-anchor="middle" x="739" y="-380.3" font-family="Arial" font-size="14.00">Illustrate plants with and without water</text>
</g>
<!-- n2 -->
<g id="node2" class="node">
<title>n2</title>
<polygon fill="#fffdd0" stroke="black" points="510,-280 52,-280 52,-244 510,-244 510,-280"/>
<text text-anchor="middle" x="281" y="-258.3" font-family="Arial" font-size="14.00">Two cartoonish plants with straight brown stems and green circular leaves</text>
</g>
<!-- n1&#45;&gt;n2 -->
<g id="edge1" class="edge">
<title>n1&#45;&gt;n2</title>
<path fill="none" stroke="black" d="M673.87,-365.93C589.84,-343.92 443.99,-305.71 355.6,-282.55"/>
<polygon fill="black" stroke="black" points="356.47,-279.16 345.91,-280.01 354.7,-285.93 356.47,-279.16"/>
</g>
<!-- n3 -->
<g id="node3" class="node">
<title>n3</title>
<polygon fill="#fffdd0" stroke="black" points="852.5,-280 625.5,-280 625.5,-244 852.5,-244 852.5,-280"/>
<text text-anchor="middle" x="739" y="-258.3" font-family="Arial" font-size="14.00">Identical appearance of both plants</text>
</g>
<!-- n1&#45;&gt;n3 -->
<g id="edge2" class="edge">
<title>n1&#45;&gt;n3</title>
<path fill="none" stroke="black" d="M739,-365.81C739,-346.11 739,-313.58 739,-290.39"/>
<polygon fill="black" stroke="black" points="742.5,-290.16 739,-280.16 735.5,-290.16 742.5,-290.16"/>
</g>
<!-- n4 -->
<g id="node4" class="node">
<title>n4</title>
<polygon fill="#fffdd0" stroke="black" points="1273,-280 911,-280 911,-244 1273,-244 1273,-280"/>
<text text-anchor="middle" x="1092" y="-258.3" font-family="Arial" font-size="14.00">Consistent use of bright green and brown colors for plants</text>
</g>
<!-- n1&#45;&gt;n4 -->
<g id="edge3" class="edge">
<title>n1&#45;&gt;n4</title>
<path fill="none" stroke="black" d="M789.2,-365.93C853.24,-344.16 963.87,-306.56 1032.2,-283.33"/>
<polygon fill="black" stroke="black" points="1033.65,-286.53 1042,-280.01 1031.41,-279.9 1033.65,-286.53"/>
</g>
<!-- n5 -->
<g id="node5" class="node">
<title>n5</title>
<path fill="palegreen" stroke="black" d="M322,-158C322,-158 12,-158 12,-158 6,-158 0,-152 0,-146 0,-146 0,-134 0,-134 0,-128 6,-122 12,-122 12,-122 322,-122 322,-122 328,-122 334,-128 334,-134 334,-134 334,-146 334,-146 334,-152 328,-158 322,-158"/>
<text text-anchor="middle" x="167" y="-136.3" font-family="Arial" font-size="14.00">Student understands basic plant shapes and coloring</text>
</g>
<!-- n2&#45;&gt;n5 -->
<g id="edge4" class="edge">
<title>n2&#45;&gt;n5</title>
<path fill="none" stroke="black" d="M264.67,-243.81C245.2,-223.31 212.52,-188.91 190.37,-165.6"/>
<polygon fill="black" stroke="black" points="192.73,-163 183.3,-158.16 187.65,-167.82 192.73,-163"/>
</g>
<!-- n6 -->
<g id="node6" class="node">
<title>n6</title>
<polygon fill="lightcoral" stroke="black" points="796,-158 391.5,-140 796,-122 1200.5,-140 796,-158"/>
<text text-anchor="middle" x="796" y="-136.3" font-family="Arial" font-size="14.00">Student struggles to show difference between plants with/without water</text>
</g>
<!-- n3&#45;&gt;n6 -->
<g id="edge5" class="edge">
<title>n3&#45;&gt;n6</title>
<path fill="none" stroke="black" d="M747.17,-243.81C756.7,-223.73 772.57,-190.32 783.62,-167.06"/>
<polygon fill="black" stroke="black" points="786.9,-168.3 788.03,-157.77 780.58,-165.3 786.9,-168.3"/>
</g>
<!-- n7 -->
<g id="node7" class="node">
<title>n7</title>
<polygon fill="#f28e8e" stroke="black" points="998.5,-36 593.5,-36 593.5,0 998.5,0 998.5,-36"/>
<text text-anchor="middle" x="796" y="-14.3" font-family="Arial" font-size="14.00">Improvement needed in depicting effects of water on plant health</text>
</g>
<!-- n6&#45;&gt;n7 -->
<g id="edge6" class="edge">
<title>n6&#45;&gt;n7</title>
<path fill="none" stroke="black" d="M796,-121.81C796,-102.11 796,-69.58 796,-46.39"/>
<polygon fill="black" stroke="black" points="799.5,-46.16 796,-36.16 792.5,-46.16 799.5,-46.16"/>
</g>
</g>
</svg>
