<?xml version="1.0" encoding="UTF-8" standalone="no"?>
<!DOCTYPE svg PUBLIC "-//W3C//DTD SVG 1.1//EN"
 "http://www.w3.org/Graphics/SVG/1.1/DTD/svg11.dtd">
<!-- Generated by graphviz version 2.43.0 (0)
 -->
<!-- Pages: 1 -->
<svg width="1114pt" height="410pt"
 viewBox="0.00 0.00 1113.50 410.00" xmlns="http://www.w3.org/2000/svg" xmlns:xlink="http://www.w3.org/1999/xlink">
<g id="graph0" class="graph" transform="scale(1 1) rotate(0) translate(4 406)">
<polygon fill="white" stroke="transparent" points="-4,4 -4,-406 1109.5,-406 1109.5,4 -4,4"/>
<!-- n1 -->
<g id="node1" class="node">
<title>n1</title>
<polygon fill="lightblue" stroke="black" points="668.5,-384 577.25,-402 394.75,-402 303.5,-384 394.75,-366 577.25,-366 668.5,-384"/>
<text text-anchor="middle" x="486" y="-380.3" font-family="Arial" font-size="14.00">Draw reversible changes (ice melting)</text>
</g>
<!-- n2 -->
<g id="node2" class="node">
<title>n2</title>
<polygon fill="#fffdd0" stroke="black" points="206,-280 0,-280 0,-244 206,-244 206,-280"/>
<text text-anchor="middle" x="103" y="-258.3" font-family="Arial" font-size="14.00">Solid ice cube with sharp edges</text>
</g>
<!-- n1&#45;&gt;n2 -->
<g id="edge1" class="edge">
<title>n1&#45;&gt;n2</title>
<path fill="none" stroke="black" d="M431.53,-365.93C361.76,-344.07 241.03,-306.25 166.97,-283.04"/>
<polygon fill="black" stroke="black" points="167.87,-279.65 157.28,-280.01 165.78,-286.33 167.87,-279.65"/>
</g>
<!-- n3 -->
<g id="node3" class="node">
<title>n3</title>
<polygon fill="#fffdd0" stroke="black" points="440,-280 264,-280 264,-244 440,-244 440,-280"/>
<text text-anchor="middle" x="352" y="-258.3" font-family="Arial" font-size="14.00">Puddle of water with drops</text>
</g>
<!-- n1&#45;&gt;n3 -->
<g id="edge2" class="edge">
<title>n1&#45;&gt;n3</title>
<path fill="none" stroke="black" d="M466.8,-365.81C443.72,-345.13 404.83,-310.31 378.8,-287"/>
<polygon fill="black" stroke="black" points="380.94,-284.22 371.16,-280.16 376.28,-289.44 380.94,-284.22"/>
</g>
<!-- n4 -->
<g id="node4" class="node">
<title>n4</title>
<polygon fill="#fffdd0" stroke="black" points="743.5,-280 498.5,-280 498.5,-244 743.5,-244 743.5,-280"/>
<text text-anchor="middle" x="621" y="-258.3" font-family="Arial" font-size="14.00">Arrows indicating melting and freezing</text>
</g>
<!-- n1&#45;&gt;n4 -->
<g id="edge3" class="edge">
<title>n1&#45;&gt;n4</title>
<path fill="none" stroke="black" d="M505.34,-365.81C528.6,-345.13 567.77,-310.31 594,-287"/>
<polygon fill="black" stroke="black" points="596.54,-289.42 601.69,-280.16 591.89,-284.19 596.54,-289.42"/>
</g>
<!-- n5 -->
<g id="node5" class="node">
<title>n5</title>
<polygon fill="#fffdd0" stroke="black" points="1006.5,-280 821.5,-280 821.5,-244 1006.5,-244 1006.5,-280"/>
<text text-anchor="middle" x="914" y="-258.3" font-family="Arial" font-size="14.00">Sun and snowflake symbols</text>
</g>
<!-- n1&#45;&gt;n5 -->
<g id="edge4" class="edge">
<title>n1&#45;&gt;n5</title>
<path fill="none" stroke="black" d="M546.87,-365.93C625.15,-343.99 760.85,-305.94 843.53,-282.76"/>
<polygon fill="black" stroke="black" points="844.66,-286.08 853.34,-280.01 842.77,-279.34 844.66,-286.08"/>
</g>
<!-- n6 -->
<g id="node6" class="node">
<title>n6</title>
<path fill="palegreen" stroke="black" d="M187,-158C187,-158 19,-158 19,-158 13,-158 7,-152 7,-146 7,-146 7,-134 7,-134 7,-128 13,-122 19,-122 19,-122 187,-122 187,-122 193,-122 199,-128 199,-134 199,-134 199,-146 199,-146 199,-152 193,-158 187,-158"/>
<text text-anchor="middle" x="103" y="-136.3" font-family="Arial" font-size="14.00">Understands solid form of ice</text>
</g>
<!-- n2&#45;&gt;n6 -->
<g id="edge5" class="edge">
<title>n2&#45;&gt;n6</title>
<path fill="none" stroke="black" d="M103,-243.81C103,-224.11 103,-191.58 103,-168.39"/>
<polygon fill="black" stroke="black" points="106.5,-168.16 103,-158.16 99.5,-168.16 106.5,-168.16"/>
</g>
<!-- n7 -->
<g id="node7" class="node">
<title>n7</title>
<path fill="palegreen" stroke="black" d="M437,-158C437,-158 269,-158 269,-158 263,-158 257,-152 257,-146 257,-146 257,-134 257,-134 257,-128 263,-122 269,-122 269,-122 437,-122 437,-122 443,-122 449,-128 449,-134 449,-134 449,-146 449,-146 449,-152 443,-158 437,-158"/>
<text text-anchor="middle" x="353" y="-136.3" font-family="Arial" font-size="14.00">Understands melting process</text>
</g>
<!-- n3&#45;&gt;n7 -->
<g id="edge6" class="edge">
<title>n3&#45;&gt;n7</title>
<path fill="none" stroke="black" d="M352.14,-243.81C352.31,-224.11 352.58,-191.58 352.77,-168.39"/>
<polygon fill="black" stroke="black" points="356.27,-168.19 352.86,-158.16 349.27,-168.13 356.27,-168.19"/>
</g>
<!-- n8 -->
<g id="node8" class="node">
<title>n8</title>
<path fill="palegreen" stroke="black" d="M704.5,-158C704.5,-158 525.5,-158 525.5,-158 519.5,-158 513.5,-152 513.5,-146 513.5,-146 513.5,-134 513.5,-134 513.5,-128 519.5,-122 525.5,-122 525.5,-122 704.5,-122 704.5,-122 710.5,-122 716.5,-128 716.5,-134 716.5,-134 716.5,-146 716.5,-146 716.5,-152 710.5,-158 704.5,-158"/>
<text text-anchor="middle" x="615" y="-136.3" font-family="Arial" font-size="14.00">Understands reversible change</text>
</g>
<!-- n4&#45;&gt;n8 -->
<g id="edge7" class="edge">
<title>n4&#45;&gt;n8</title>
<path fill="none" stroke="black" d="M620.14,-243.81C619.16,-224.11 617.53,-191.58 616.37,-168.39"/>
<polygon fill="black" stroke="black" points="619.85,-167.97 615.86,-158.16 612.86,-168.32 619.85,-167.97"/>
</g>
<!-- n9 -->
<g id="node9" class="node">
<title>n9</title>
<polygon fill="lightcoral" stroke="black" points="940,-158 774.5,-140 940,-122 1105.5,-140 940,-158"/>
<text text-anchor="middle" x="940" y="-136.3" font-family="Arial" font-size="14.00">Usage of temperature cues</text>
</g>
<!-- n5&#45;&gt;n9 -->
<g id="edge8" class="edge">
<title>n5&#45;&gt;n9</title>
<path fill="none" stroke="black" d="M917.73,-243.81C922.04,-223.91 929.18,-190.92 934.22,-167.68"/>
<polygon fill="black" stroke="black" points="937.67,-168.28 936.37,-157.77 930.83,-166.8 937.67,-168.28"/>
</g>
<!-- n10 -->
<g id="node10" class="node">
<title>n10</title>
<polygon fill="#f28e8e" stroke="black" points="1087,-36 793,-36 793,0 1087,0 1087,-36"/>
<text text-anchor="middle" x="940" y="-14.3" font-family="Arial" font-size="14.00">Needs clearer depiction of temperature effects</text>
</g>
<!-- n9&#45;&gt;n10 -->
<g id="edge9" class="edge">
<title>n9&#45;&gt;n10</title>
<path fill="none" stroke="black" d="M940,-121.81C940,-102.11 940,-69.58 940,-46.39"/>
<polygon fill="black" stroke="black" points="943.5,-46.16 940,-36.16 936.5,-46.16 943.5,-46.16"/>
</g>
</g>
</svg>
