<?xml version="1.0" encoding="UTF-8" standalone="no"?>
<!DOCTYPE svg PUBLIC "-//W3C//DTD SVG 1.1//EN"
 "http://www.w3.org/Graphics/SVG/1.1/DTD/svg11.dtd">
<!-- Generated by graphviz version 2.43.0 (0)
 -->
<!-- Pages: 1 -->
<svg width="1293pt" height="410pt"
 viewBox="0.00 0.00 1292.50 410.00" xmlns="http://www.w3.org/2000/svg" xmlns:xlink="http://www.w3.org/1999/xlink">
<g id="graph0" class="graph" transform="scale(1 1) rotate(0) translate(4 406)">
<polygon fill="white" stroke="transparent" points="-4,4 -4,-406 1288.5,-406 1288.5,4 -4,4"/>
<!-- n1 -->
<g id="node1" class="node">
<title>n1</title>
<polygon fill="lightblue" stroke="black" points="768.5,-384 657,-402 434,-402 322.5,-384 434,-366 657,-366 768.5,-384"/>
<text text-anchor="middle" x="545.5" y="-380.3" font-family="Arial" font-size="14.00">Draw a string telephone between two students.</text>
</g>
<!-- n2 -->
<g id="node2" class="node">
<title>n2</title>
<polygon fill="#fffdd0" stroke="black" points="269,-280 0,-280 0,-244 269,-244 269,-280"/>
<text text-anchor="middle" x="134.5" y="-258.3" font-family="Arial" font-size="14.00">Two stick figure students with happy faces</text>
</g>
<!-- n1&#45;&gt;n2 -->
<g id="edge1" class="edge">
<title>n1&#45;&gt;n2</title>
<path fill="none" stroke="black" d="M487.05,-365.93C412.03,-344.03 282.09,-306.09 202.66,-282.9"/>
<polygon fill="black" stroke="black" points="203.33,-279.45 192.75,-280.01 201.37,-286.17 203.33,-279.45"/>
</g>
<!-- n3 -->
<g id="node3" class="node">
<title>n3</title>
<polygon fill="#fffdd0" stroke="black" points="503.5,-280 327.5,-280 327.5,-244 503.5,-244 503.5,-280"/>
<text text-anchor="middle" x="415.5" y="-258.3" font-family="Arial" font-size="14.00">Two cups held by students</text>
</g>
<!-- n1&#45;&gt;n3 -->
<g id="edge2" class="edge">
<title>n1&#45;&gt;n3</title>
<path fill="none" stroke="black" d="M526.87,-365.81C504.48,-345.13 466.76,-310.31 441.5,-287"/>
<polygon fill="black" stroke="black" points="443.81,-284.37 434.09,-280.16 439.06,-289.51 443.81,-284.37"/>
</g>
<!-- n4 -->
<g id="node4" class="node">
<title>n4</title>
<polygon fill="#fffdd0" stroke="black" points="789,-280 562,-280 562,-244 789,-244 789,-280"/>
<text text-anchor="middle" x="675.5" y="-258.3" font-family="Arial" font-size="14.00">Loosely drawn string between cups</text>
</g>
<!-- n1&#45;&gt;n4 -->
<g id="edge3" class="edge">
<title>n1&#45;&gt;n4</title>
<path fill="none" stroke="black" d="M564.13,-365.81C586.52,-345.13 624.24,-310.31 649.5,-287"/>
<polygon fill="black" stroke="black" points="651.94,-289.51 656.91,-280.16 647.19,-284.37 651.94,-289.51"/>
</g>
<!-- n5 -->
<g id="node5" class="node">
<title>n5</title>
<polygon fill="#fffdd0" stroke="black" points="1114,-280 901,-280 901,-244 1114,-244 1114,-280"/>
<text text-anchor="middle" x="1007.5" y="-258.3" font-family="Arial" font-size="14.00">Lines and arrows showing sound</text>
</g>
<!-- n1&#45;&gt;n5 -->
<g id="edge4" class="edge">
<title>n1&#45;&gt;n5</title>
<path fill="none" stroke="black" d="M611.2,-365.93C695.96,-343.92 843.08,-305.71 932.25,-282.55"/>
<polygon fill="black" stroke="black" points="933.22,-285.91 942.02,-280.01 931.46,-279.14 933.22,-285.91"/>
</g>
<!-- n7 -->
<g id="node6" class="node">
<title>n7</title>
<path fill="palegreen" stroke="black" d="M323,-158C323,-158 86,-158 86,-158 80,-158 74,-152 74,-146 74,-146 74,-134 74,-134 74,-128 80,-122 86,-122 86,-122 323,-122 323,-122 329,-122 335,-128 335,-134 335,-134 335,-146 335,-146 335,-152 329,-158 323,-158"/>
<text text-anchor="middle" x="204.5" y="-136.3" font-family="Arial" font-size="14.00">Basic knowledge of communication tools</text>
</g>
<!-- n2&#45;&gt;n7 -->
<g id="edge5" class="edge">
<title>n2&#45;&gt;n7</title>
<path fill="none" stroke="black" d="M144.53,-243.81C156.28,-223.67 175.86,-190.1 189.43,-166.83"/>
<polygon fill="black" stroke="black" points="192.47,-168.56 194.49,-158.16 186.43,-165.03 192.47,-168.56"/>
</g>
<!-- n3&#45;&gt;n7 -->
<g id="edge6" class="edge">
<title>n3&#45;&gt;n7</title>
<path fill="none" stroke="black" d="M385.27,-243.81C347.98,-222.6 284.51,-186.5 243.56,-163.21"/>
<polygon fill="black" stroke="black" points="245.1,-160.06 234.68,-158.16 241.64,-166.15 245.1,-160.06"/>
</g>
<!-- n8 -->
<g id="node7" class="node">
<title>n8</title>
<polygon fill="lightcoral" stroke="black" points="639.5,-158 428,-140 639.5,-122 851,-140 639.5,-158"/>
<text text-anchor="middle" x="639.5" y="-136.3" font-family="Arial" font-size="14.00">Misunderstanding of string tautness</text>
</g>
<!-- n4&#45;&gt;n8 -->
<g id="edge7" class="edge">
<title>n4&#45;&gt;n8</title>
<path fill="none" stroke="black" d="M670.34,-243.81C664.35,-223.82 654.39,-190.62 647.41,-167.37"/>
<polygon fill="black" stroke="black" points="650.76,-166.34 644.53,-157.77 644.05,-168.35 650.76,-166.34"/>
</g>
<!-- n6 -->
<g id="node8" class="node">
<title>n6</title>
<path fill="palegreen" stroke="black" d="M1272.5,-158C1272.5,-158 920.5,-158 920.5,-158 914.5,-158 908.5,-152 908.5,-146 908.5,-146 908.5,-134 908.5,-134 908.5,-128 914.5,-122 920.5,-122 920.5,-122 1272.5,-122 1272.5,-122 1278.5,-122 1284.5,-128 1284.5,-134 1284.5,-134 1284.5,-146 1284.5,-146 1284.5,-152 1278.5,-158 1272.5,-158"/>
<text text-anchor="middle" x="1096.5" y="-136.3" font-family="Arial" font-size="14.00">Understanding of sound transmission using string telephone</text>
</g>
<!-- n5&#45;&gt;n6 -->
<g id="edge8" class="edge">
<title>n5&#45;&gt;n6</title>
<path fill="none" stroke="black" d="M1020.3,-243.81C1035.3,-223.49 1060.5,-189.51 1077.8,-166.21"/>
<polygon fill="black" stroke="black" points="1080.63,-168.27 1083.8,-158.16 1075.02,-164.09 1080.63,-168.27"/>
</g>
<!-- n9 -->
<g id="node9" class="node">
<title>n9</title>
<polygon fill="#f28e8e" stroke="black" points="796.5,-36 482.5,-36 482.5,0 796.5,0 796.5,-36"/>
<text text-anchor="middle" x="639.5" y="-14.3" font-family="Arial" font-size="14.00">Feedback: Demonstrate the need for a tight string</text>
</g>
<!-- n8&#45;&gt;n9 -->
<g id="edge9" class="edge">
<title>n8&#45;&gt;n9</title>
<path fill="none" stroke="black" d="M639.5,-121.81C639.5,-102.11 639.5,-69.58 639.5,-46.39"/>
<polygon fill="black" stroke="black" points="643,-46.16 639.5,-36.16 636,-46.16 643,-46.16"/>
</g>
</g>
</svg>
