<?xml version="1.0" encoding="UTF-8" standalone="no"?>
<!DOCTYPE svg PUBLIC "-//W3C//DTD SVG 1.1//EN"
 "http://www.w3.org/Graphics/SVG/1.1/DTD/svg11.dtd">
<!-- Generated by graphviz version 2.43.0 (0)
 -->
<!-- Pages: 1 -->
<svg width="1173pt" height="410pt"
 viewBox="0.00 0.00 1172.50 410.00" xmlns="http://www.w3.org/2000/svg" xmlns:xlink="http://www.w3.org/1999/xlink">
<g id="graph0" class="graph" transform="scale(1 1) rotate(0) translate(4 406)">
<polygon fill="white" stroke="transparent" points="-4,4 -4,-406 1168.5,-406 1168.5,4 -4,4"/>
<!-- n1 -->
<g id="node1" class="node">
<title>n1</title>
<polygon fill="lightblue" stroke="black" points="837.5,-384 745.5,-402 561.5,-402 469.5,-384 561.5,-366 745.5,-366 837.5,-384"/>
<text text-anchor="middle" x="653.5" y="-380.3" font-family="Arial" font-size="14.00">Illustrate plants with and without water</text>
</g>
<!-- n2 -->
<g id="node2" class="node">
<title>n2</title>
<polygon fill="#fffdd0" stroke="black" points="627.5,-280 369.5,-280 369.5,-244 627.5,-244 627.5,-280"/>
<text text-anchor="middle" x="498.5" y="-258.3" font-family="Arial" font-size="14.00">Two plants drawn identically and healthy</text>
</g>
<!-- n1&#45;&gt;n2 -->
<g id="edge1" class="edge">
<title>n1&#45;&gt;n2</title>
<path fill="none" stroke="black" d="M631.29,-365.81C604.36,-344.96 558.84,-309.71 528.72,-286.4"/>
<polygon fill="black" stroke="black" points="530.72,-283.52 520.67,-280.16 526.43,-289.05 530.72,-283.52"/>
</g>
<!-- n3 -->
<g id="node3" class="node">
<title>n3</title>
<polygon fill="#fffdd0" stroke="black" points="1006.5,-280 760.5,-280 760.5,-244 1006.5,-244 1006.5,-280"/>
<text text-anchor="middle" x="883.5" y="-258.3" font-family="Arial" font-size="14.00">Sun placed randomly at bottom center</text>
</g>
<!-- n1&#45;&gt;n3 -->
<g id="edge2" class="edge">
<title>n1&#45;&gt;n3</title>
<path fill="none" stroke="black" d="M686.45,-365.81C727.27,-344.51 796.87,-308.2 841.49,-284.92"/>
<polygon fill="black" stroke="black" points="843.36,-287.89 850.61,-280.16 840.13,-281.68 843.36,-287.89"/>
</g>
<!-- n4 -->
<g id="node4" class="node">
<title>n4</title>
<polygon fill="lightcoral" stroke="black" points="348.5,-158 0,-140 348.5,-122 697,-140 348.5,-158"/>
<text text-anchor="middle" x="348.5" y="-136.3" font-family="Arial" font-size="14.00">No difference shown between watered and unwatered plants</text>
</g>
<!-- n2&#45;&gt;n4 -->
<g id="edge3" class="edge">
<title>n2&#45;&gt;n4</title>
<path fill="none" stroke="black" d="M477.01,-243.81C450.61,-222.69 405.77,-186.81 376.65,-163.52"/>
<polygon fill="black" stroke="black" points="378.51,-160.52 368.51,-157.01 374.13,-165.99 378.51,-160.52"/>
</g>
<!-- n5 -->
<g id="node5" class="node">
<title>n5</title>
<polygon fill="lightcoral" stroke="black" points="959.5,-158 754.5,-140 959.5,-122 1164.5,-140 959.5,-158"/>
<text text-anchor="middle" x="959.5" y="-136.3" font-family="Arial" font-size="14.00">Misunderstanding of the sun&#39;s role</text>
</g>
<!-- n3&#45;&gt;n5 -->
<g id="edge4" class="edge">
<title>n3&#45;&gt;n5</title>
<path fill="none" stroke="black" d="M894.39,-243.81C907.29,-223.44 928.89,-189.34 943.64,-166.04"/>
<polygon fill="black" stroke="black" points="946.72,-167.71 949.12,-157.39 940.81,-163.96 946.72,-167.71"/>
</g>
<!-- n6 -->
<g id="node6" class="node">
<title>n6</title>
<polygon fill="#f28e8e" stroke="black" points="568.5,-36 128.5,-36 128.5,0 568.5,0 568.5,-36"/>
<text text-anchor="middle" x="348.5" y="-14.3" font-family="Arial" font-size="14.00">Feedback: Use color or shape to show wilted plant (e.g., brown leaves)</text>
</g>
<!-- n4&#45;&gt;n6 -->
<g id="edge5" class="edge">
<title>n4&#45;&gt;n6</title>
<path fill="none" stroke="black" d="M348.5,-121.81C348.5,-102.11 348.5,-69.58 348.5,-46.39"/>
<polygon fill="black" stroke="black" points="352,-46.16 348.5,-36.16 345,-46.16 352,-46.16"/>
</g>
<!-- n7 -->
<g id="node7" class="node">
<title>n7</title>
<polygon fill="#f28e8e" stroke="black" points="1152,-36 767,-36 767,0 1152,0 1152,-36"/>
<text text-anchor="middle" x="959.5" y="-14.3" font-family="Arial" font-size="14.00">Feedback: Place sun above plants to show its light&#45;giving role</text>
</g>
<!-- n5&#45;&gt;n7 -->
<g id="edge6" class="edge">
<title>n5&#45;&gt;n7</title>
<path fill="none" stroke="black" d="M959.5,-121.81C959.5,-102.11 959.5,-69.58 959.5,-46.39"/>
<polygon fill="black" stroke="black" points="963,-46.16 959.5,-36.16 956,-46.16 963,-46.16"/>
</g>
</g>
</svg>
