<?xml version="1.0" encoding="UTF-8" standalone="no"?>
<!DOCTYPE svg PUBLIC "-//W3C//DTD SVG 1.1//EN"
 "http://www.w3.org/Graphics/SVG/1.1/DTD/svg11.dtd">
<!-- Generated by graphviz version 2.43.0 (0)
 -->
<!-- Pages: 1 -->
<svg width="1138pt" height="288pt"
 viewBox="0.00 0.00 1138.00 288.00" xmlns="http://www.w3.org/2000/svg" xmlns:xlink="http://www.w3.org/1999/xlink">
<g id="graph0" class="graph" transform="scale(1 1) rotate(0) translate(4 284)">
<polygon fill="white" stroke="transparent" points="-4,4 -4,-284 1134,-284 1134,4 -4,4"/>
<!-- n1 -->
<g id="node1" class="node">
<title>n1</title>
<polygon fill="lightblue" stroke="black" points="739,-262 647.75,-280 465.25,-280 374,-262 465.25,-244 647.75,-244 739,-262"/>
<text text-anchor="middle" x="556.5" y="-258.3" font-family="Arial" font-size="14.00">Draw a fish in their habitat with labels.</text>
</g>
<!-- n2 -->
<g id="node2" class="node">
<title>n2</title>
<polygon fill="#fffdd0" stroke="black" points="347,-158 0,-158 0,-122 347,-122 347,-158"/>
<text text-anchor="middle" x="173.5" y="-136.3" font-family="Arial" font-size="14.00">Drawing of fish with anatomy labeled (fins, gills, scales)</text>
</g>
<!-- n1&#45;&gt;n2 -->
<g id="edge1" class="edge">
<title>n1&#45;&gt;n2</title>
<path fill="none" stroke="black" d="M502.03,-243.93C432.26,-222.07 311.53,-184.25 237.47,-161.04"/>
<polygon fill="black" stroke="black" points="238.37,-157.65 227.78,-158.01 236.28,-164.33 238.37,-157.65"/>
</g>
<!-- n3 -->
<g id="node3" class="node">
<title>n3</title>
<polygon fill="#fffdd0" stroke="black" points="700,-158 413,-158 413,-122 700,-122 700,-158"/>
<text text-anchor="middle" x="556.5" y="-136.3" font-family="Arial" font-size="14.00">Drawing of pond habitat (water, plants, rocks)</text>
</g>
<!-- n1&#45;&gt;n3 -->
<g id="edge2" class="edge">
<title>n1&#45;&gt;n3</title>
<path fill="none" stroke="black" d="M556.5,-243.81C556.5,-224.11 556.5,-191.58 556.5,-168.39"/>
<polygon fill="black" stroke="black" points="560,-168.16 556.5,-158.16 553,-168.16 560,-168.16"/>
</g>
<!-- n4 -->
<g id="node4" class="node">
<title>n4</title>
<polygon fill="#fffdd0" stroke="black" points="1022.5,-158 804.5,-158 804.5,-122 1022.5,-122 1022.5,-158"/>
<text text-anchor="middle" x="913.5" y="-136.3" font-family="Arial" font-size="14.00">Smaller fish and insects in habitat</text>
</g>
<!-- n1&#45;&gt;n4 -->
<g id="edge3" class="edge">
<title>n1&#45;&gt;n4</title>
<path fill="none" stroke="black" d="M607.27,-243.93C672.04,-222.16 783.92,-184.56 853.03,-161.33"/>
<polygon fill="black" stroke="black" points="854.54,-164.52 862.9,-158.01 852.31,-157.88 854.54,-164.52"/>
</g>
<!-- n5 -->
<g id="node5" class="node">
<title>n5</title>
<path fill="palegreen" stroke="black" d="M311.5,-36C311.5,-36 19.5,-36 19.5,-36 13.5,-36 7.5,-30 7.5,-24 7.5,-24 7.5,-12 7.5,-12 7.5,-6 13.5,0 19.5,0 19.5,0 311.5,0 311.5,0 317.5,0 323.5,-6 323.5,-12 323.5,-12 323.5,-24 323.5,-24 323.5,-30 317.5,-36 311.5,-36"/>
<text text-anchor="middle" x="165.5" y="-14.3" font-family="Arial" font-size="14.00">Fish anatomy labels (fins, gills, scales) are correct</text>
</g>
<!-- n2&#45;&gt;n5 -->
<g id="edge4" class="edge">
<title>n2&#45;&gt;n5</title>
<path fill="none" stroke="black" d="M172.35,-121.81C171.04,-102.11 168.87,-69.58 167.33,-46.39"/>
<polygon fill="black" stroke="black" points="170.81,-45.9 166.64,-36.16 163.82,-46.37 170.81,-45.9"/>
</g>
<!-- n6 -->
<g id="node6" class="node">
<title>n6</title>
<path fill="palegreen" stroke="black" d="M719,-36C719,-36 394,-36 394,-36 388,-36 382,-30 382,-24 382,-24 382,-12 382,-12 382,-6 388,0 394,0 394,0 719,0 719,0 725,0 731,-6 731,-12 731,-12 731,-24 731,-24 731,-30 725,-36 719,-36"/>
<text text-anchor="middle" x="556.5" y="-14.3" font-family="Arial" font-size="14.00">Habitat elements (water, plants, rocks) correctly labeled</text>
</g>
<!-- n3&#45;&gt;n6 -->
<g id="edge5" class="edge">
<title>n3&#45;&gt;n6</title>
<path fill="none" stroke="black" d="M556.5,-121.81C556.5,-102.11 556.5,-69.58 556.5,-46.39"/>
<polygon fill="black" stroke="black" points="560,-46.16 556.5,-36.16 553,-46.16 560,-46.16"/>
</g>
<!-- n7 -->
<g id="node7" class="node">
<title>n7</title>
<path fill="palegreen" stroke="black" d="M1118,-36C1118,-36 801,-36 801,-36 795,-36 789,-30 789,-24 789,-24 789,-12 789,-12 789,-6 795,0 801,0 801,0 1118,0 1118,0 1124,0 1130,-6 1130,-12 1130,-12 1130,-24 1130,-24 1130,-30 1124,-36 1118,-36"/>
<text text-anchor="middle" x="959.5" y="-14.3" font-family="Arial" font-size="14.00">Demonstrates understanding of ecosystem interaction</text>
</g>
<!-- n4&#45;&gt;n7 -->
<g id="edge6" class="edge">
<title>n4&#45;&gt;n7</title>
<path fill="none" stroke="black" d="M920.09,-121.81C927.71,-101.94 940.34,-68.99 949.24,-45.76"/>
<polygon fill="black" stroke="black" points="952.61,-46.75 952.92,-36.16 946.07,-44.25 952.61,-46.75"/>
</g>
</g>
</svg>
