<?xml version="1.0" encoding="UTF-8" standalone="no"?>
<!DOCTYPE svg PUBLIC "-//W3C//DTD SVG 1.1//EN"
 "http://www.w3.org/Graphics/SVG/1.1/DTD/svg11.dtd">
<!-- Generated by graphviz version 2.43.0 (0)
 -->
<!-- Pages: 1 -->
<svg width="1170pt" height="410pt"
 viewBox="0.00 0.00 1169.50 410.00" xmlns="http://www.w3.org/2000/svg" xmlns:xlink="http://www.w3.org/1999/xlink">
<g id="graph0" class="graph" transform="scale(1 1) rotate(0) translate(4 406)">
<polygon fill="white" stroke="transparent" points="-4,4 -4,-406 1165.5,-406 1165.5,4 -4,4"/>
<!-- n1 -->
<g id="node1" class="node">
<title>n1</title>
<polygon fill="lightblue" stroke="black" points="988,-384 857.75,-402 597.25,-402 467,-384 597.25,-366 857.75,-366 988,-384"/>
<text text-anchor="middle" x="727.5" y="-380.3" font-family="Arial" font-size="14.00">Draw two habitats and the different living things in each</text>
</g>
<!-- n2 -->
<g id="node2" class="node">
<title>n2</title>
<polygon fill="#fffdd0" stroke="black" points="699,-280 462,-280 462,-244 699,-244 699,-280"/>
<text text-anchor="middle" x="580.5" y="-258.3" font-family="Arial" font-size="14.00">Land habitat with tree, bushes, grass</text>
</g>
<!-- n1&#45;&gt;n2 -->
<g id="edge1" class="edge">
<title>n1&#45;&gt;n2</title>
<path fill="none" stroke="black" d="M706.44,-365.81C681,-345.04 638.09,-310.01 609.53,-286.7"/>
<polygon fill="black" stroke="black" points="611.48,-283.77 601.52,-280.16 607.05,-289.2 611.48,-283.77"/>
</g>
<!-- n3 -->
<g id="node3" class="node">
<title>n3</title>
<polygon fill="#fffdd0" stroke="black" points="1067.5,-280 831.5,-280 831.5,-244 1067.5,-244 1067.5,-280"/>
<text text-anchor="middle" x="949.5" y="-258.3" font-family="Arial" font-size="14.00">Water habitat with waves, fish, reeds</text>
</g>
<!-- n1&#45;&gt;n3 -->
<g id="edge2" class="edge">
<title>n1&#45;&gt;n3</title>
<path fill="none" stroke="black" d="M759.31,-365.81C798.71,-344.51 865.88,-308.2 908.95,-284.92"/>
<polygon fill="black" stroke="black" points="910.62,-288 917.75,-280.16 907.29,-281.84 910.62,-288"/>
</g>
<!-- n4 -->
<g id="node4" class="node">
<title>n4</title>
<path fill="palegreen" stroke="black" d="M263,-158C263,-158 12,-158 12,-158 6,-158 0,-152 0,-146 0,-146 0,-134 0,-134 0,-128 6,-122 12,-122 12,-122 263,-122 263,-122 269,-122 275,-128 275,-134 275,-134 275,-146 275,-146 275,-152 269,-158 263,-158"/>
<text text-anchor="middle" x="137.5" y="-136.3" font-family="Arial" font-size="14.00">Identified land features: tree, bushes, grass</text>
</g>
<!-- n2&#45;&gt;n4 -->
<g id="edge3" class="edge">
<title>n2&#45;&gt;n4</title>
<path fill="none" stroke="black" d="M517.5,-243.93C436.39,-221.96 295.73,-183.86 210.18,-160.69"/>
<polygon fill="black" stroke="black" points="210.85,-157.24 200.28,-158.01 209.02,-164 210.85,-157.24"/>
</g>
<!-- n6 -->
<g id="node5" class="node">
<title>n6</title>
<polygon fill="lightcoral" stroke="black" points="580.5,-158 333,-140 580.5,-122 828,-140 580.5,-158"/>
<text text-anchor="middle" x="580.5" y="-136.3" font-family="Arial" font-size="14.00">Inconsistent labeling of smaller organisms</text>
</g>
<!-- n2&#45;&gt;n6 -->
<g id="edge4" class="edge">
<title>n2&#45;&gt;n6</title>
<path fill="none" stroke="black" d="M580.5,-243.81C580.5,-224.11 580.5,-191.58 580.5,-168.39"/>
<polygon fill="black" stroke="black" points="584,-168.16 580.5,-158.16 577,-168.16 584,-168.16"/>
</g>
<!-- n5 -->
<g id="node6" class="node">
<title>n5</title>
<path fill="palegreen" stroke="black" d="M1149.5,-158C1149.5,-158 897.5,-158 897.5,-158 891.5,-158 885.5,-152 885.5,-146 885.5,-146 885.5,-134 885.5,-134 885.5,-128 891.5,-122 897.5,-122 897.5,-122 1149.5,-122 1149.5,-122 1155.5,-122 1161.5,-128 1161.5,-134 1161.5,-134 1161.5,-146 1161.5,-146 1161.5,-152 1155.5,-158 1149.5,-158"/>
<text text-anchor="middle" x="1023.5" y="-136.3" font-family="Arial" font-size="14.00">Identified water features: waves, fish, reeds</text>
</g>
<!-- n3&#45;&gt;n5 -->
<g id="edge5" class="edge">
<title>n3&#45;&gt;n5</title>
<path fill="none" stroke="black" d="M960.1,-243.81C972.52,-223.67 993.22,-190.1 1007.6,-166.83"/>
<polygon fill="black" stroke="black" points="1010.67,-168.52 1012.9,-158.16 1004.7,-164.87 1010.67,-168.52"/>
</g>
<!-- n7 -->
<g id="node7" class="node">
<title>n7</title>
<polygon fill="#f28e8e" stroke="black" points="820,-36 341,-36 341,0 820,0 820,-36"/>
<text text-anchor="middle" x="580.5" y="-14.3" font-family="Arial" font-size="14.00">Work on identifying and labeling smaller habitat elements like ants and clams</text>
</g>
<!-- n6&#45;&gt;n7 -->
<g id="edge6" class="edge">
<title>n6&#45;&gt;n7</title>
<path fill="none" stroke="black" d="M580.5,-121.81C580.5,-102.11 580.5,-69.58 580.5,-46.39"/>
<polygon fill="black" stroke="black" points="584,-46.16 580.5,-36.16 577,-46.16 584,-46.16"/>
</g>
</g>
</svg>
