<?xml version="1.0" encoding="UTF-8" standalone="no"?>
<!DOCTYPE svg PUBLIC "-//W3C//DTD SVG 1.1//EN"
 "http://www.w3.org/Graphics/SVG/1.1/DTD/svg11.dtd">
<!-- Generated by graphviz version 2.43.0 (0)
 -->
<!-- Pages: 1 -->
<svg width="2793pt" height="410pt"
 viewBox="0.00 0.00 2792.50 410.00" xmlns="http://www.w3.org/2000/svg" xmlns:xlink="http://www.w3.org/1999/xlink">
<g id="graph0" class="graph" transform="scale(1 1) rotate(0) translate(4 406)">
<polygon fill="white" stroke="transparent" points="-4,4 -4,-406 2788.5,-406 2788.5,4 -4,4"/>
<!-- n1 -->
<g id="node1" class="node">
<title>n1</title>
<polygon fill="lightblue" stroke="black" points="1596.82,-384 1474.41,-402 1229.59,-402 1107.18,-384 1229.59,-366 1474.41,-366 1596.82,-384"/>
<text text-anchor="middle" x="1352" y="-380.3" font-family="Arial" font-size="14.00">Draw a habitat and the different living things in each</text>
</g>
<!-- n2 -->
<g id="node2" class="node">
<title>n2</title>
<polygon fill="#fffdd0" stroke="black" points="1197.5,-280 930.5,-280 930.5,-244 1197.5,-244 1197.5,-280"/>
<text text-anchor="middle" x="1064" y="-258.3" font-family="Arial" font-size="14.00">Pond with a blue circle and an orange fish</text>
</g>
<!-- n1&#45;&gt;n2 -->
<g id="edge1" class="edge">
<title>n1&#45;&gt;n2</title>
<path fill="none" stroke="black" d="M1311,-365.93C1259.2,-344.34 1170,-307.17 1114.2,-283.9"/>
<polygon fill="black" stroke="black" points="1115.38,-280.6 1104.8,-280.01 1112.7,-287.07 1115.38,-280.6"/>
</g>
<!-- n3 -->
<g id="node3" class="node">
<title>n3</title>
<polygon fill="#fffdd0" stroke="black" points="2158.5,-280 1841.5,-280 1841.5,-244 2158.5,-244 2158.5,-280"/>
<text text-anchor="middle" x="2000" y="-258.3" font-family="Arial" font-size="14.00">Garden with green lines and red circles for flowers</text>
</g>
<!-- n1&#45;&gt;n3 -->
<g id="edge2" class="edge">
<title>n1&#45;&gt;n3</title>
<path fill="none" stroke="black" d="M1443.8,-366C1563.8,-343.78 1773.3,-304.98 1898.1,-281.87"/>
<polygon fill="black" stroke="black" points="1898.9,-285.28 1908.1,-280.03 1897.63,-278.4 1898.9,-285.28"/>
</g>
<!-- n4 -->
<g id="node4" class="node">
<title>n4</title>
<path fill="palegreen" stroke="black" d="M320,-158C320,-158 12,-158 12,-158 6,-158 0,-152 0,-146 0,-146 0,-134 0,-134 0,-128 6,-122 12,-122 12,-122 320,-122 320,-122 326,-122 332,-128 332,-134 332,-134 332,-146 332,-146 332,-152 326,-158 320,-158"/>
<text text-anchor="middle" x="166" y="-136.3" font-family="Arial" font-size="14.00">Identifies a pond habitat and includes a water animal</text>
</g>
<!-- n2&#45;&gt;n4 -->
<g id="edge3" class="edge">
<title>n2&#45;&gt;n4</title>
<path fill="none" stroke="black" d="M936.77,-244C769.31,-221.62 476.04,-182.43 303.58,-159.38"/>
<polygon fill="black" stroke="black" points="303.79,-155.88 293.42,-158.03 302.87,-162.82 303.79,-155.88"/>
</g>
<!-- n6 -->
<g id="node5" class="node">
<title>n6</title>
<polygon fill="lightcoral" stroke="black" points="703,-158 389.5,-140 703,-122 1016.5,-140 703,-158"/>
<text text-anchor="middle" x="703" y="-136.3" font-family="Arial" font-size="14.00">Simplified plants labeled and repeated in both habitats</text>
</g>
<!-- n2&#45;&gt;n6 -->
<g id="edge4" class="edge">
<title>n2&#45;&gt;n6</title>
<path fill="none" stroke="black" d="M1012.7,-243.93C944.76,-221.36 825.63,-181.76 756.61,-158.82"/>
<polygon fill="black" stroke="black" points="757.39,-155.39 746.8,-155.56 755.19,-162.04 757.39,-155.39"/>
</g>
<!-- n7 -->
<g id="node6" class="node">
<title>n7</title>
<polygon fill="lightcoral" stroke="black" points="1424,-158 1074.5,-140 1424,-122 1773.5,-140 1424,-158"/>
<text text-anchor="middle" x="1424" y="-136.3" font-family="Arial" font-size="14.00">Lacks distinguishing features between pond and garden flora</text>
</g>
<!-- n2&#45;&gt;n7 -->
<g id="edge5" class="edge">
<title>n2&#45;&gt;n7</title>
<path fill="none" stroke="black" d="M1115.2,-243.93C1182.7,-221.42 1301.1,-181.98 1370,-159.01"/>
<polygon fill="black" stroke="black" points="1371.42,-162.23 1379.8,-155.74 1369.21,-155.59 1371.42,-162.23"/>
</g>
<!-- n5 -->
<g id="node7" class="node">
<title>n5</title>
<path fill="palegreen" stroke="black" d="M2157,-158C2157,-158 1843,-158 1843,-158 1837,-158 1831,-152 1831,-146 1831,-146 1831,-134 1831,-134 1831,-128 1837,-122 1843,-122 1843,-122 2157,-122 2157,-122 2163,-122 2169,-128 2169,-134 2169,-134 2169,-146 2169,-146 2169,-152 2163,-158 2157,-158"/>
<text text-anchor="middle" x="2000" y="-136.3" font-family="Arial" font-size="14.00">Identifies a garden habitat and includes plants/flowers</text>
</g>
<!-- n3&#45;&gt;n5 -->
<g id="edge6" class="edge">
<title>n3&#45;&gt;n5</title>
<path fill="none" stroke="black" d="M2000,-243.81C2000,-224.11 2000,-191.58 2000,-168.39"/>
<polygon fill="black" stroke="black" points="2003.5,-168.16 2000,-158.16 1996.5,-168.16 2003.5,-168.16"/>
</g>
<!-- n8 -->
<g id="node8" class="node">
<title>n8</title>
<polygon fill="lightcoral" stroke="black" points="2506,-158 2227.49,-140 2506,-122 2784.51,-140 2506,-158"/>
<text text-anchor="middle" x="2506" y="-136.3" font-family="Arial" font-size="14.00">Repeated pattern: Bird (V shape) in garden only</text>
</g>
<!-- n3&#45;&gt;n8 -->
<g id="edge7" class="edge">
<title>n3&#45;&gt;n8</title>
<path fill="none" stroke="black" d="M2071.7,-244C2169.8,-220.74 2344.5,-179.31 2439.7,-156.73"/>
<polygon fill="black" stroke="black" points="2440.58,-160.12 2449.5,-154.41 2438.96,-153.31 2440.58,-160.12"/>
</g>
<!-- n10 -->
<g id="node9" class="node">
<title>n10</title>
<polygon fill="#f28e8e" stroke="black" points="863,-36 543,-36 543,0 863,0 863,-36"/>
<text text-anchor="middle" x="703" y="-14.3" font-family="Arial" font-size="14.00">Include diverse plants associated with each habitat</text>
</g>
<!-- n6&#45;&gt;n10 -->
<g id="edge8" class="edge">
<title>n6&#45;&gt;n10</title>
<path fill="none" stroke="black" d="M703,-121.81C703,-102.11 703,-69.58 703,-46.39"/>
<polygon fill="black" stroke="black" points="706.5,-46.16 703,-36.16 699.5,-46.16 706.5,-46.16"/>
</g>
<!-- n11 -->
<g id="node10" class="node">
<title>n11</title>
<polygon fill="#f28e8e" stroke="black" points="1602,-36 1246,-36 1246,0 1602,0 1602,-36"/>
<text text-anchor="middle" x="1424" y="-14.3" font-family="Arial" font-size="14.00">Identify differences in plant adaptations between habitats</text>
</g>
<!-- n7&#45;&gt;n11 -->
<g id="edge9" class="edge">
<title>n7&#45;&gt;n11</title>
<path fill="none" stroke="black" d="M1424,-121.81C1424,-102.11 1424,-69.58 1424,-46.39"/>
<polygon fill="black" stroke="black" points="1427.5,-46.16 1424,-36.16 1420.5,-46.16 1427.5,-46.16"/>
</g>
<!-- n9 -->
<g id="node11" class="node">
<title>n9</title>
<polygon fill="#f28e8e" stroke="black" points="2667.5,-36 2344.5,-36 2344.5,0 2667.5,0 2667.5,-36"/>
<text text-anchor="middle" x="2506" y="-14.3" font-family="Arial" font-size="14.00">Explore more animals that live in ponds vs gardens</text>
</g>
<!-- n8&#45;&gt;n9 -->
<g id="edge10" class="edge">
<title>n8&#45;&gt;n9</title>
<path fill="none" stroke="black" d="M2506,-121.81C2506,-102.11 2506,-69.58 2506,-46.39"/>
<polygon fill="black" stroke="black" points="2509.5,-46.16 2506,-36.16 2502.5,-46.16 2509.5,-46.16"/>
</g>
</g>
</svg>
