<?xml version="1.0" encoding="UTF-8" standalone="no"?>
<!DOCTYPE svg PUBLIC "-//W3C//DTD SVG 1.1//EN"
 "http://www.w3.org/Graphics/SVG/1.1/DTD/svg11.dtd">
<!-- Generated by graphviz version 2.43.0 (0)
 -->
<!-- Pages: 1 -->
<svg width="1609pt" height="288pt"
 viewBox="0.00 0.00 1609.00 288.00" xmlns="http://www.w3.org/2000/svg" xmlns:xlink="http://www.w3.org/1999/xlink">
<g id="graph0" class="graph" transform="scale(1 1) rotate(0) translate(4 284)">
<polygon fill="white" stroke="transparent" points="-4,4 -4,-284 1605,-284 1605,4 -4,4"/>
<!-- n1 -->
<g id="node1" class="node">
<title>n1</title>
<polygon fill="lightblue" stroke="black" points="1045.32,-262 922.91,-280 678.09,-280 555.68,-262 678.09,-244 922.91,-244 1045.32,-262"/>
<text text-anchor="middle" x="800.5" y="-258.3" font-family="Arial" font-size="14.00">Draw a habitat and the different living things in each</text>
</g>
<!-- n2 -->
<g id="node2" class="node">
<title>n2</title>
<polygon fill="#fffdd0" stroke="black" points="251.5,-158 83.5,-158 83.5,-122 251.5,-122 251.5,-158"/>
<text text-anchor="middle" x="167.5" y="-136.3" font-family="Arial" font-size="14.00">Imaginative forest habitat</text>
</g>
<!-- n1&#45;&gt;n2 -->
<g id="edge1" class="edge">
<title>n1&#45;&gt;n2</title>
<path fill="none" stroke="black" d="M710.81,-244C591.89,-221.45 382.95,-181.84 261.76,-158.87"/>
<polygon fill="black" stroke="black" points="262.23,-155.4 251.75,-156.97 260.92,-162.27 262.23,-155.4"/>
</g>
<!-- n3 -->
<g id="node3" class="node">
<title>n3</title>
<polygon fill="#fffdd0" stroke="black" points="447.5,-158 309.5,-158 309.5,-122 447.5,-122 447.5,-158"/>
<text text-anchor="middle" x="378.5" y="-136.3" font-family="Arial" font-size="14.00">Tall green pine trees</text>
</g>
<!-- n1&#45;&gt;n3 -->
<g id="edge2" class="edge">
<title>n1&#45;&gt;n3</title>
<path fill="none" stroke="black" d="M740.49,-243.93C663.3,-221.99 529.5,-183.94 447.98,-160.76"/>
<polygon fill="black" stroke="black" points="448.89,-157.38 438.31,-158.01 446.97,-164.11 448.89,-157.38"/>
</g>
<!-- n4 -->
<g id="node4" class="node">
<title>n4</title>
<polygon fill="#fffdd0" stroke="black" points="1514.5,-158 1416.5,-158 1416.5,-122 1514.5,-122 1514.5,-158"/>
<text text-anchor="middle" x="1465.5" y="-136.3" font-family="Arial" font-size="14.00">Bushy shrubs</text>
</g>
<!-- n1&#45;&gt;n4 -->
<g id="edge3" class="edge">
<title>n1&#45;&gt;n4</title>
<path fill="none" stroke="black" d="M905.18,-243.96C1022.8,-224.51 1219.2,-191.09 1387.5,-158 1393.7,-156.79 1400.1,-155.47 1406.5,-154.13"/>
<polygon fill="black" stroke="black" points="1407.44,-157.51 1416.5,-152.01 1405.99,-150.66 1407.44,-157.51"/>
</g>
<!-- n5 -->
<g id="node5" class="node">
<title>n5</title>
<polygon fill="#fffdd0" stroke="black" points="661,-158 506,-158 506,-122 661,-122 661,-158"/>
<text text-anchor="middle" x="583.5" y="-136.3" font-family="Arial" font-size="14.00">Patches of green grass</text>
</g>
<!-- n1&#45;&gt;n5 -->
<g id="edge4" class="edge">
<title>n1&#45;&gt;n5</title>
<path fill="none" stroke="black" d="M769.41,-243.81C730.98,-222.55 665.51,-186.35 623.4,-163.07"/>
<polygon fill="black" stroke="black" points="624.97,-159.94 614.53,-158.16 621.58,-166.07 624.97,-159.94"/>
</g>
<!-- n6 -->
<g id="node6" class="node">
<title>n6</title>
<polygon fill="#fffdd0" stroke="black" points="882,-158 719,-158 719,-122 882,-122 882,-158"/>
<text text-anchor="middle" x="800.5" y="-136.3" font-family="Arial" font-size="14.00">Squirrel with a bushy tail</text>
</g>
<!-- n1&#45;&gt;n6 -->
<g id="edge5" class="edge">
<title>n1&#45;&gt;n6</title>
<path fill="none" stroke="black" d="M800.5,-243.81C800.5,-224.11 800.5,-191.58 800.5,-168.39"/>
<polygon fill="black" stroke="black" points="804,-168.16 800.5,-158.16 797,-168.16 804,-168.16"/>
</g>
<!-- n7 -->
<g id="node7" class="node">
<title>n7</title>
<polygon fill="#fffdd0" stroke="black" points="1168.5,-158 940.5,-158 940.5,-122 1168.5,-122 1168.5,-158"/>
<text text-anchor="middle" x="1054.5" y="-136.3" font-family="Arial" font-size="14.00">Green lizard basking in the sunlight</text>
</g>
<!-- n1&#45;&gt;n7 -->
<g id="edge6" class="edge">
<title>n1&#45;&gt;n7</title>
<path fill="none" stroke="black" d="M836.62,-243.93C882.04,-222.48 960.03,-185.63 1009.3,-162.33"/>
<polygon fill="black" stroke="black" points="1010.94,-165.43 1018.5,-158.01 1007.96,-159.09 1010.94,-165.43"/>
</g>
<!-- n8 -->
<g id="node8" class="node">
<title>n8</title>
<polygon fill="#fffdd0" stroke="black" points="1358,-158 1227,-158 1227,-122 1358,-122 1358,-158"/>
<text text-anchor="middle" x="1292.5" y="-136.3" font-family="Arial" font-size="14.00">Colorful birds flying</text>
</g>
<!-- n1&#45;&gt;n8 -->
<g id="edge7" class="edge">
<title>n1&#45;&gt;n8</title>
<path fill="none" stroke="black" d="M870.21,-244C961.87,-221.64 1122.3,-182.51 1216.8,-159.45"/>
<polygon fill="black" stroke="black" points="1217.71,-162.83 1226.6,-157.07 1216.06,-156.03 1217.71,-162.83"/>
</g>
<!-- n9 -->
<g id="node9" class="node">
<title>n9</title>
<path fill="palegreen" stroke="black" d="M323,-36C323,-36 12,-36 12,-36 6,-36 0,-30 0,-24 0,-24 0,-12 0,-12 0,-6 6,0 12,0 12,0 323,0 323,0 329,0 335,-6 335,-12 335,-12 335,-24 335,-24 335,-30 329,-36 323,-36"/>
<text text-anchor="middle" x="167.5" y="-14.3" font-family="Arial" font-size="14.00">Includes a variety of plants and animals in the habitat</text>
</g>
<!-- n2&#45;&gt;n9 -->
<g id="edge8" class="edge">
<title>n2&#45;&gt;n9</title>
<path fill="none" stroke="black" d="M167.5,-121.81C167.5,-102.11 167.5,-69.58 167.5,-46.39"/>
<polygon fill="black" stroke="black" points="171,-46.16 167.5,-36.16 164,-46.16 171,-46.16"/>
</g>
<!-- n10 -->
<g id="node10" class="node">
<title>n10</title>
<path fill="palegreen" stroke="black" d="M1009.5,-36C1009.5,-36 845.5,-36 845.5,-36 839.5,-36 833.5,-30 833.5,-24 833.5,-24 833.5,-12 833.5,-12 833.5,-6 839.5,0 845.5,0 845.5,0 1009.5,0 1009.5,0 1015.5,0 1021.5,-6 1021.5,-12 1021.5,-12 1021.5,-24 1021.5,-24 1021.5,-30 1015.5,-36 1009.5,-36"/>
<text text-anchor="middle" x="927.5" y="-14.3" font-family="Arial" font-size="14.00">Labels are clear and specific</text>
</g>
<!-- n3&#45;&gt;n10 -->
<g id="edge9" class="edge">
<title>n3&#45;&gt;n10</title>
<path fill="none" stroke="black" d="M447.75,-123.86C547.27,-102.11 730.69,-62.02 839.63,-38.21"/>
<polygon fill="black" stroke="black" points="840.59,-41.58 849.61,-36.02 839.09,-34.74 840.59,-41.58"/>
</g>
<!-- n4&#45;&gt;n10 -->
<g id="edge10" class="edge">
<title>n4&#45;&gt;n10</title>
<path fill="none" stroke="black" d="M1416.3,-128.03C1325.1,-107.67 1128.3,-63.8 1014.2,-38.35"/>
<polygon fill="black" stroke="black" points="1014.62,-34.86 1004.1,-36.09 1013.1,-41.69 1014.62,-34.86"/>
</g>
<!-- n11 -->
<g id="node11" class="node">
<title>n11</title>
<polygon fill="#f28e8e" stroke="black" points="1601,-36 1330,-36 1330,0 1601,0 1601,-36"/>
<text text-anchor="middle" x="1465.5" y="-14.3" font-family="Arial" font-size="14.00">Suggestions label similar trees and shrubs</text>
</g>
<!-- n4&#45;&gt;n11 -->
<g id="edge11" class="edge">
<title>n4&#45;&gt;n11</title>
<path fill="none" stroke="black" d="M1465.5,-121.81C1465.5,-102.11 1465.5,-69.58 1465.5,-46.39"/>
<polygon fill="black" stroke="black" points="1469,-46.16 1465.5,-36.16 1462,-46.16 1469,-46.16"/>
</g>
<!-- n5&#45;&gt;n10 -->
<g id="edge12" class="edge">
<title>n5&#45;&gt;n10</title>
<path fill="none" stroke="black" d="M632.42,-121.93C694.83,-100.16 802.64,-62.56 869.23,-39.33"/>
<polygon fill="black" stroke="black" points="870.46,-42.6 878.75,-36.01 868.16,-35.99 870.46,-42.6"/>
</g>
<!-- n6&#45;&gt;n10 -->
<g id="edge13" class="edge">
<title>n6&#45;&gt;n10</title>
<path fill="none" stroke="black" d="M818.7,-121.81C840.48,-101.22 877.11,-66.61 901.78,-43.3"/>
<polygon fill="black" stroke="black" points="904.47,-45.57 909.34,-36.16 899.67,-40.48 904.47,-45.57"/>
</g>
<!-- n7&#45;&gt;n10 -->
<g id="edge14" class="edge">
<title>n7&#45;&gt;n10</title>
<path fill="none" stroke="black" d="M1036.3,-121.81C1014.5,-101.22 977.89,-66.61 953.22,-43.3"/>
<polygon fill="black" stroke="black" points="955.33,-40.48 945.66,-36.16 950.53,-45.57 955.33,-40.48"/>
</g>
<!-- n8&#45;&gt;n10 -->
<g id="edge15" class="edge">
<title>n8&#45;&gt;n10</title>
<path fill="none" stroke="black" d="M1240.6,-121.93C1174.2,-100.12 1059.5,-62.4 988.89,-39.18"/>
<polygon fill="black" stroke="black" points="989.82,-35.81 979.23,-36.01 987.64,-42.46 989.82,-35.81"/>
</g>
</g>
</svg>
