<?xml version="1.0" encoding="UTF-8" standalone="no"?>
<!DOCTYPE svg PUBLIC "-//W3C//DTD SVG 1.1//EN"
 "http://www.w3.org/Graphics/SVG/1.1/DTD/svg11.dtd">
<!-- Generated by graphviz version 2.43.0 (0)
 -->
<!-- Pages: 1 -->
<svg width="1158pt" height="410pt"
 viewBox="0.00 0.00 1158.00 410.00" xmlns="http://www.w3.org/2000/svg" xmlns:xlink="http://www.w3.org/1999/xlink">
<g id="graph0" class="graph" transform="scale(1 1) rotate(0) translate(4 406)">
<polygon fill="white" stroke="transparent" points="-4,4 -4,-406 1154,-406 1154,4 -4,4"/>
<!-- n1 -->
<g id="node1" class="node">
<title>n1</title>
<polygon fill="lightblue" stroke="black" points="821,-384 657,-402 329,-402 165,-384 329,-366 657,-366 821,-384"/>
<text text-anchor="middle" x="493" y="-380.3" font-family="Arial" font-size="14.00">Draw reversible and irreversible changes (ice melting vs. egg cooking)</text>
</g>
<!-- n2 -->
<g id="node2" class="node">
<title>n2</title>
<polygon fill="#fffdd0" stroke="black" points="488,-280 150,-280 150,-244 488,-244 488,-280"/>
<text text-anchor="middle" x="319" y="-258.3" font-family="Arial" font-size="14.00">Ice cube with arrows indicating melting and refreezing</text>
</g>
<!-- n1&#45;&gt;n2 -->
<g id="edge1" class="edge">
<title>n1&#45;&gt;n2</title>
<path fill="none" stroke="black" d="M468.07,-365.81C437.71,-344.87 386.29,-309.41 352.5,-286.1"/>
<polygon fill="black" stroke="black" points="354.1,-282.95 343.88,-280.16 350.13,-288.72 354.1,-282.95"/>
</g>
<!-- n3 -->
<g id="node3" class="node">
<title>n3</title>
<polygon fill="#fffdd0" stroke="black" points="852,-280 610,-280 610,-244 852,-244 852,-280"/>
<text text-anchor="middle" x="731" y="-258.3" font-family="Arial" font-size="14.00">Raw egg with arrows to a cooked egg</text>
</g>
<!-- n1&#45;&gt;n3 -->
<g id="edge2" class="edge">
<title>n1&#45;&gt;n3</title>
<path fill="none" stroke="black" d="M526.85,-365.93C569.23,-344.57 641.87,-307.94 688.11,-284.63"/>
<polygon fill="black" stroke="black" points="689.92,-287.64 697.27,-280.01 686.77,-281.39 689.92,-287.64"/>
</g>
<!-- n4 -->
<g id="node4" class="node">
<title>n4</title>
<path fill="palegreen" stroke="black" d="M370,-158C370,-158 12,-158 12,-158 6,-158 0,-152 0,-146 0,-146 0,-134 0,-134 0,-128 6,-122 12,-122 12,-122 370,-122 370,-122 376,-122 382,-128 382,-134 382,-134 382,-146 382,-146 382,-152 376,-158 370,-158"/>
<text text-anchor="middle" x="191" y="-136.3" font-family="Arial" font-size="14.00">Correctly illustrates reversible change (ice to water and back)</text>
</g>
<!-- n2&#45;&gt;n4 -->
<g id="edge3" class="edge">
<title>n2&#45;&gt;n4</title>
<path fill="none" stroke="black" d="M300.66,-243.81C278.7,-223.22 241.79,-188.61 216.92,-165.3"/>
<polygon fill="black" stroke="black" points="219,-162.45 209.31,-158.16 214.21,-167.55 219,-162.45"/>
</g>
<!-- n5 -->
<g id="node5" class="node">
<title>n5</title>
<polygon fill="lightcoral" stroke="black" points="795,-158 440,-140 795,-122 1150,-140 795,-158"/>
<text text-anchor="middle" x="795" y="-136.3" font-family="Arial" font-size="14.00">Illustrates irreversible change (cooked egg can&#39;t revert to raw)</text>
</g>
<!-- n3&#45;&gt;n5 -->
<g id="edge4" class="edge">
<title>n3&#45;&gt;n5</title>
<path fill="none" stroke="black" d="M740.17,-243.81C750.92,-223.64 768.86,-190.02 781.27,-166.74"/>
<polygon fill="black" stroke="black" points="784.44,-168.24 786.05,-157.77 778.26,-164.95 784.44,-168.24"/>
</g>
<!-- n6 -->
<g id="node6" class="node">
<title>n6</title>
<polygon fill="#f28e8e" stroke="black" points="977.5,-36 612.5,-36 612.5,0 977.5,0 977.5,-36"/>
<text text-anchor="middle" x="795" y="-14.3" font-family="Arial" font-size="14.00">Improve clarity and labeling of irreversible change process</text>
</g>
<!-- n5&#45;&gt;n6 -->
<g id="edge5" class="edge">
<title>n5&#45;&gt;n6</title>
<path fill="none" stroke="black" d="M795,-121.81C795,-102.11 795,-69.58 795,-46.39"/>
<polygon fill="black" stroke="black" points="798.5,-46.16 795,-36.16 791.5,-46.16 798.5,-46.16"/>
</g>
</g>
</svg>
