<?xml version="1.0" encoding="UTF-8" standalone="no"?>
<!DOCTYPE svg PUBLIC "-//W3C//DTD SVG 1.1//EN"
 "http://www.w3.org/Graphics/SVG/1.1/DTD/svg11.dtd">
<!-- Generated by graphviz version 2.43.0 (0)
 -->
<!-- Pages: 1 -->
<svg width="895pt" height="410pt"
 viewBox="0.00 0.00 894.50 410.00" xmlns="http://www.w3.org/2000/svg" xmlns:xlink="http://www.w3.org/1999/xlink">
<g id="graph0" class="graph" transform="scale(1 1) rotate(0) translate(4 406)">
<polygon fill="white" stroke="transparent" points="-4,4 -4,-406 890.5,-406 890.5,4 -4,4"/>
<!-- n1 -->
<g id="node1" class="node">
<title>n1</title>
<polygon fill="lightblue" stroke="black" points="691.5,-384 561.25,-402 300.75,-402 170.5,-384 300.75,-366 561.25,-366 691.5,-384"/>
<text text-anchor="middle" x="431" y="-380.3" font-family="Arial" font-size="14.00">Draw two habitats and the different living things in each</text>
</g>
<!-- n2 -->
<g id="node2" class="node">
<title>n2</title>
<polygon fill="#fffdd0" stroke="black" points="404,-280 192,-280 192,-244 404,-244 404,-280"/>
<text text-anchor="middle" x="298" y="-258.3" font-family="Arial" font-size="14.00">Forest with tall, leafy green trees</text>
</g>
<!-- n1&#45;&gt;n2 -->
<g id="edge1" class="edge">
<title>n1&#45;&gt;n2</title>
<path fill="none" stroke="black" d="M411.94,-365.81C389.03,-345.13 350.44,-310.31 324.6,-287"/>
<polygon fill="black" stroke="black" points="326.79,-284.26 317.02,-280.16 322.1,-289.46 326.79,-284.26"/>
</g>
<!-- n3 -->
<g id="node3" class="node">
<title>n3</title>
<polygon fill="#fffdd0" stroke="black" points="667.5,-280 462.5,-280 462.5,-244 667.5,-244 667.5,-280"/>
<text text-anchor="middle" x="565" y="-258.3" font-family="Arial" font-size="14.00">Pond with light blue wavy water</text>
</g>
<!-- n1&#45;&gt;n3 -->
<g id="edge2" class="edge">
<title>n1&#45;&gt;n3</title>
<path fill="none" stroke="black" d="M450.2,-365.81C473.28,-345.13 512.17,-310.31 538.2,-287"/>
<polygon fill="black" stroke="black" points="540.72,-289.44 545.84,-280.16 536.06,-284.22 540.72,-289.44"/>
</g>
<!-- n4 -->
<g id="node4" class="node">
<title>n4</title>
<polygon fill="#fffdd0" stroke="black" points="154,-158 0,-158 0,-122 154,-122 154,-158"/>
<text text-anchor="middle" x="77" y="-136.3" font-family="Arial" font-size="14.00">Squirrel on tree branch</text>
</g>
<!-- n2&#45;&gt;n4 -->
<g id="edge3" class="edge">
<title>n2&#45;&gt;n4</title>
<path fill="none" stroke="black" d="M266.34,-243.81C227.2,-222.55 160.52,-186.35 117.64,-163.07"/>
<polygon fill="black" stroke="black" points="119.07,-159.86 108.61,-158.16 115.72,-166.01 119.07,-159.86"/>
</g>
<!-- n5 -->
<g id="node5" class="node">
<title>n5</title>
<polygon fill="#fffdd0" stroke="black" points="392,-158 212,-158 212,-122 392,-122 392,-158"/>
<text text-anchor="middle" x="302" y="-136.3" font-family="Arial" font-size="14.00">Colorful birds in the canopy</text>
</g>
<!-- n2&#45;&gt;n5 -->
<g id="edge4" class="edge">
<title>n2&#45;&gt;n5</title>
<path fill="none" stroke="black" d="M298.57,-243.81C299.23,-224.11 300.31,-191.58 301.09,-168.39"/>
<polygon fill="black" stroke="black" points="304.6,-168.27 301.43,-158.16 297.6,-168.04 304.6,-168.27"/>
</g>
<!-- n6 -->
<g id="node6" class="node">
<title>n6</title>
<polygon fill="#fffdd0" stroke="black" points="665,-158 457,-158 457,-122 665,-122 665,-158"/>
<text text-anchor="middle" x="561" y="-136.3" font-family="Arial" font-size="14.00">Fish swimming beneath surface</text>
</g>
<!-- n3&#45;&gt;n6 -->
<g id="edge5" class="edge">
<title>n3&#45;&gt;n6</title>
<path fill="none" stroke="black" d="M564.43,-243.81C563.77,-224.11 562.69,-191.58 561.91,-168.39"/>
<polygon fill="black" stroke="black" points="565.4,-168.04 561.57,-158.16 558.4,-168.27 565.4,-168.04"/>
</g>
<!-- n7 -->
<g id="node7" class="node">
<title>n7</title>
<polygon fill="#fffdd0" stroke="black" points="886.5,-158 723.5,-158 723.5,-122 886.5,-122 886.5,-158"/>
<text text-anchor="middle" x="805" y="-136.3" font-family="Arial" font-size="14.00">Duck on top of the water</text>
</g>
<!-- n3&#45;&gt;n7 -->
<g id="edge6" class="edge">
<title>n3&#45;&gt;n7</title>
<path fill="none" stroke="black" d="M599.13,-243.93C641.96,-222.52 715.43,-185.78 762.04,-162.48"/>
<polygon fill="black" stroke="black" points="763.61,-165.61 770.99,-158.01 760.48,-159.35 763.61,-165.61"/>
</g>
<!-- n8 -->
<g id="node8" class="node">
<title>n8</title>
<path fill="palegreen" stroke="black" d="M345,-36C345,-36 91,-36 91,-36 85,-36 79,-30 79,-24 79,-24 79,-12 79,-12 79,-6 85,0 91,0 91,0 345,0 345,0 351,0 357,-6 357,-12 357,-12 357,-24 357,-24 357,-30 351,-36 345,-36"/>
<text text-anchor="middle" x="218" y="-14.3" font-family="Arial" font-size="14.00">Plants and animals suitable for each habitat</text>
</g>
<!-- n4&#45;&gt;n8 -->
<g id="edge7" class="edge">
<title>n4&#45;&gt;n8</title>
<path fill="none" stroke="black" d="M97.2,-121.81C121.6,-101.04 162.76,-66.01 190.15,-42.7"/>
<polygon fill="black" stroke="black" points="192.49,-45.3 197.84,-36.16 187.95,-39.97 192.49,-45.3"/>
</g>
<!-- n5&#45;&gt;n8 -->
<g id="edge8" class="edge">
<title>n5&#45;&gt;n8</title>
<path fill="none" stroke="black" d="M289.96,-121.81C275.81,-101.58 252.16,-67.81 235.87,-44.52"/>
<polygon fill="black" stroke="black" points="238.62,-42.34 230.01,-36.16 232.88,-46.36 238.62,-42.34"/>
</g>
<!-- n9 -->
<g id="node9" class="node">
<title>n9</title>
<path fill="palegreen" stroke="black" d="M805.5,-36C805.5,-36 484.5,-36 484.5,-36 478.5,-36 472.5,-30 472.5,-24 472.5,-24 472.5,-12 472.5,-12 472.5,-6 478.5,0 484.5,0 484.5,0 805.5,0 805.5,0 811.5,0 817.5,-6 817.5,-12 817.5,-12 817.5,-24 817.5,-24 817.5,-30 811.5,-36 805.5,-36"/>
<text text-anchor="middle" x="645" y="-14.3" font-family="Arial" font-size="14.00">Understanding diversity in both land and water habitats</text>
</g>
<!-- n6&#45;&gt;n9 -->
<g id="edge9" class="edge">
<title>n6&#45;&gt;n9</title>
<path fill="none" stroke="black" d="M573.04,-121.81C587.19,-101.58 610.84,-67.81 627.13,-44.52"/>
<polygon fill="black" stroke="black" points="630.12,-46.36 632.99,-36.16 624.38,-42.34 630.12,-46.36"/>
</g>
<!-- n7&#45;&gt;n9 -->
<g id="edge10" class="edge">
<title>n7&#45;&gt;n9</title>
<path fill="none" stroke="black" d="M782.08,-121.81C754.27,-100.96 707.28,-65.71 676.2,-42.4"/>
<polygon fill="black" stroke="black" points="677.98,-39.36 667.88,-36.16 673.78,-44.96 677.98,-39.36"/>
</g>
</g>
</svg>
