<?xml version="1.0" encoding="UTF-8" standalone="no"?>
<!DOCTYPE svg PUBLIC "-//W3C//DTD SVG 1.1//EN"
 "http://www.w3.org/Graphics/SVG/1.1/DTD/svg11.dtd">
<!-- Generated by graphviz version 2.43.0 (0)
 -->
<!-- Pages: 1 -->
<svg width="915pt" height="410pt"
 viewBox="0.00 0.00 914.67 410.00" xmlns="http://www.w3.org/2000/svg" xmlns:xlink="http://www.w3.org/1999/xlink">
<g id="graph0" class="graph" transform="scale(1 1) rotate(0) translate(4 406)">
<polygon fill="white" stroke="transparent" points="-4,4 -4,-406 910.67,-406 910.67,4 -4,4"/>
<!-- n1 -->
<g id="node1" class="node">
<title>n1</title>
<polygon fill="lightblue" stroke="black" points="603.5,-384 491.25,-402 266.75,-402 154.5,-384 266.75,-366 491.25,-366 603.5,-384"/>
<text text-anchor="middle" x="379" y="-380.3" font-family="Arial" font-size="14.00">Illustrate plants with and without water and light</text>
</g>
<!-- n2 -->
<g id="node2" class="node">
<title>n2</title>
<polygon fill="#fffdd0" stroke="black" points="480.5,-280 277.5,-280 277.5,-244 480.5,-244 480.5,-280"/>
<text text-anchor="middle" x="379" y="-258.3" font-family="Arial" font-size="14.00">Two similar green plants drawn</text>
</g>
<!-- n1&#45;&gt;n2 -->
<g id="edge1" class="edge">
<title>n1&#45;&gt;n2</title>
<path fill="none" stroke="black" d="M379,-365.81C379,-346.11 379,-313.58 379,-290.39"/>
<polygon fill="black" stroke="black" points="382.5,-290.16 379,-280.16 375.5,-290.16 382.5,-290.16"/>
</g>
<!-- n3 -->
<g id="node3" class="node">
<title>n3</title>
<polygon fill="#fffdd0" stroke="black" points="219.5,-280 28.5,-280 28.5,-244 219.5,-244 219.5,-280"/>
<text text-anchor="middle" x="124" y="-258.3" font-family="Arial" font-size="14.00">Yellow sun above both plants</text>
</g>
<!-- n1&#45;&gt;n3 -->
<g id="edge2" class="edge">
<title>n1&#45;&gt;n3</title>
<path fill="none" stroke="black" d="M342.74,-365.93C297.14,-344.48 218.84,-307.63 169.34,-284.33"/>
<polygon fill="black" stroke="black" points="170.68,-281.09 160.14,-280.01 167.7,-287.43 170.68,-281.09"/>
</g>
<!-- n4 -->
<g id="node4" class="node">
<title>n4</title>
<polygon fill="#fffdd0" stroke="black" points="741.5,-280 538.5,-280 538.5,-244 741.5,-244 741.5,-280"/>
<text text-anchor="middle" x="640" y="-258.3" font-family="Arial" font-size="14.00">Blue scribbles to suggest water</text>
</g>
<!-- n1&#45;&gt;n4 -->
<g id="edge3" class="edge">
<title>n1&#45;&gt;n4</title>
<path fill="none" stroke="black" d="M416.12,-365.93C462.89,-344.43 543.26,-307.48 593.91,-284.19"/>
<polygon fill="black" stroke="black" points="595.38,-287.36 603.01,-280.01 592.46,-281 595.38,-287.36"/>
</g>
<!-- n5 -->
<g id="node5" class="node">
<title>n5</title>
<path fill="palegreen" stroke="black" d="M274,-158C274,-158 12,-158 12,-158 6,-158 0,-152 0,-146 0,-146 0,-134 0,-134 0,-128 6,-122 12,-122 12,-122 274,-122 274,-122 280,-122 286,-128 286,-134 286,-134 286,-146 286,-146 286,-152 280,-158 274,-158"/>
<text text-anchor="middle" x="143" y="-136.3" font-family="Arial" font-size="14.00">Plants are green and associated with the sun</text>
</g>
<!-- n2&#45;&gt;n5 -->
<g id="edge4" class="edge">
<title>n2&#45;&gt;n5</title>
<path fill="none" stroke="black" d="M345.44,-243.93C303.41,-222.57 231.38,-185.94 185.53,-162.63"/>
<polygon fill="black" stroke="black" points="186.95,-159.43 176.45,-158.01 183.78,-165.66 186.95,-159.43"/>
</g>
<!-- n6 -->
<g id="node6" class="node">
<title>n6</title>
<polygon fill="lightcoral" stroke="black" points="630,-158 353.17,-140 630,-122 906.83,-140 630,-158"/>
<text text-anchor="middle" x="630" y="-136.3" font-family="Arial" font-size="14.00">Struggle to differentiate conditions of water/light</text>
</g>
<!-- n2&#45;&gt;n6 -->
<g id="edge5" class="edge">
<title>n2&#45;&gt;n6</title>
<path fill="none" stroke="black" d="M414.7,-243.93C460.76,-221.91 540.71,-183.69 589.14,-160.53"/>
<polygon fill="black" stroke="black" points="590.88,-163.58 598.39,-156.11 587.86,-157.26 590.88,-163.58"/>
</g>
<!-- n3&#45;&gt;n5 -->
<g id="edge6" class="edge">
<title>n3&#45;&gt;n5</title>
<path fill="none" stroke="black" d="M126.72,-243.81C129.85,-224.02 135.04,-191.29 138.71,-168.08"/>
<polygon fill="black" stroke="black" points="142.17,-168.58 140.28,-158.16 135.26,-167.49 142.17,-168.58"/>
</g>
<!-- n4&#45;&gt;n6 -->
<g id="edge7" class="edge">
<title>n4&#45;&gt;n6</title>
<path fill="none" stroke="black" d="M638.57,-243.81C636.93,-224.11 634.22,-191.58 632.28,-168.39"/>
<polygon fill="black" stroke="black" points="635.75,-167.84 631.43,-158.16 628.77,-168.42 635.75,-167.84"/>
</g>
<!-- n7 -->
<g id="node7" class="node">
<title>n7</title>
<polygon fill="#f28e8e" stroke="black" points="763,-36 497,-36 497,0 763,0 763,-36"/>
<text text-anchor="middle" x="630" y="-14.3" font-family="Arial" font-size="14.00">Explain effects of no water/light on plants.</text>
</g>
<!-- n6&#45;&gt;n7 -->
<g id="edge8" class="edge">
<title>n6&#45;&gt;n7</title>
<path fill="none" stroke="black" d="M630,-121.81C630,-102.11 630,-69.58 630,-46.39"/>
<polygon fill="black" stroke="black" points="633.5,-46.16 630,-36.16 626.5,-46.16 633.5,-46.16"/>
</g>
</g>
</svg>
