<?xml version="1.0" encoding="UTF-8" standalone="no"?>
<!DOCTYPE svg PUBLIC "-//W3C//DTD SVG 1.1//EN"
 "http://www.w3.org/Graphics/SVG/1.1/DTD/svg11.dtd">
<!-- Generated by graphviz version 2.43.0 (0)
 -->
<!-- Pages: 1 -->
<svg width="1487pt" height="410pt"
 viewBox="0.00 0.00 1487.11 410.00" xmlns="http://www.w3.org/2000/svg" xmlns:xlink="http://www.w3.org/1999/xlink">
<g id="graph0" class="graph" transform="scale(1 1) rotate(0) translate(4 406)">
<polygon fill="white" stroke="transparent" points="-4,4 -4,-406 1483.11,-406 1483.11,4 -4,4"/>
<!-- n1 -->
<g id="node1" class="node">
<title>n1</title>
<polygon fill="lightblue" stroke="black" points="1086.5,-384 972.75,-402 745.25,-402 631.5,-384 745.25,-366 972.75,-366 1086.5,-384"/>
<text text-anchor="middle" x="859" y="-380.3" font-family="Arial" font-size="14.00">Illustrate plants with and without water and light.</text>
</g>
<!-- n2 -->
<g id="node2" class="node">
<title>n2</title>
<polygon fill="#fffdd0" stroke="black" points="440,-280 284,-280 284,-244 440,-244 440,-280"/>
<text text-anchor="middle" x="362" y="-258.3" font-family="Arial" font-size="14.00">Two plants side by side</text>
</g>
<!-- n1&#45;&gt;n2 -->
<g id="edge1" class="edge">
<title>n1&#45;&gt;n2</title>
<path fill="none" stroke="black" d="M788.58,-366C697.29,-343.95 538.43,-305.6 442.46,-282.43"/>
<polygon fill="black" stroke="black" points="443.06,-278.97 432.52,-280.03 441.42,-285.78 443.06,-278.97"/>
</g>
<!-- n3 -->
<g id="node3" class="node">
<title>n3</title>
<polygon fill="#fffdd0" stroke="black" points="832,-280 638,-280 638,-244 832,-244 832,-280"/>
<text text-anchor="middle" x="735" y="-258.3" font-family="Arial" font-size="14.00">Water droplets near one plant</text>
</g>
<!-- n1&#45;&gt;n3 -->
<g id="edge2" class="edge">
<title>n1&#45;&gt;n3</title>
<path fill="none" stroke="black" d="M841.23,-365.81C819.96,-345.22 784.2,-310.61 760.11,-287.3"/>
<polygon fill="black" stroke="black" points="762.35,-284.6 752.73,-280.16 757.48,-289.63 762.35,-284.6"/>
</g>
<!-- n4 -->
<g id="node4" class="node">
<title>n4</title>
<polygon fill="#fffdd0" stroke="black" points="1269.5,-280 1168.5,-280 1168.5,-244 1269.5,-244 1269.5,-280"/>
<text text-anchor="middle" x="1219" y="-258.3" font-family="Arial" font-size="14.00">Sun in the sky</text>
</g>
<!-- n1&#45;&gt;n4 -->
<g id="edge3" class="edge">
<title>n1&#45;&gt;n4</title>
<path fill="none" stroke="black" d="M910.2,-365.93C975.74,-344.09 1089.1,-306.29 1158.7,-283.08"/>
<polygon fill="black" stroke="black" points="1159.9,-286.37 1168.3,-279.91 1157.71,-279.72 1159.9,-286.37"/>
</g>
<!-- n5 -->
<g id="node5" class="node">
<title>n5</title>
<polygon fill="#fffdd0" stroke="black" points="1076,-280 890,-280 890,-244 1076,-244 1076,-280"/>
<text text-anchor="middle" x="983" y="-258.3" font-family="Arial" font-size="14.00">Plants look mostly the same</text>
</g>
<!-- n1&#45;&gt;n5 -->
<g id="edge4" class="edge">
<title>n1&#45;&gt;n5</title>
<path fill="none" stroke="black" d="M876.77,-365.81C898.04,-345.22 933.8,-310.61 957.89,-287.3"/>
<polygon fill="black" stroke="black" points="960.52,-289.63 965.27,-280.16 955.65,-284.6 960.52,-289.63"/>
</g>
<!-- n6 -->
<g id="node6" class="node">
<title>n6</title>
<path fill="palegreen" stroke="black" d="M432,-158C432,-158 12,-158 12,-158 6,-158 0,-152 0,-146 0,-146 0,-134 0,-134 0,-128 6,-122 12,-122 12,-122 432,-122 432,-122 438,-122 444,-128 444,-134 444,-134 444,-146 444,-146 444,-152 438,-158 432,-158"/>
<text text-anchor="middle" x="222" y="-136.3" font-family="Arial" font-size="14.00">Student shows understanding that plants exist in different environments</text>
</g>
<!-- n2&#45;&gt;n6 -->
<g id="edge5" class="edge">
<title>n2&#45;&gt;n6</title>
<path fill="none" stroke="black" d="M341.94,-243.81C317.72,-223.04 276.85,-188.01 249.65,-164.7"/>
<polygon fill="black" stroke="black" points="251.89,-162.01 242.02,-158.16 247.33,-167.33 251.89,-162.01"/>
</g>
<!-- n7 -->
<g id="node7" class="node">
<title>n7</title>
<polygon fill="lightcoral" stroke="black" points="735,-158 501.5,-140 735,-122 968.5,-140 735,-158"/>
<text text-anchor="middle" x="735" y="-136.3" font-family="Arial" font-size="14.00">No clear understanding of water&#39;s effect</text>
</g>
<!-- n3&#45;&gt;n7 -->
<g id="edge6" class="edge">
<title>n3&#45;&gt;n7</title>
<path fill="none" stroke="black" d="M735,-243.81C735,-224.11 735,-191.58 735,-168.39"/>
<polygon fill="black" stroke="black" points="738.5,-168.16 735,-158.16 731.5,-168.16 738.5,-168.16"/>
</g>
<!-- n8 -->
<g id="node8" class="node">
<title>n8</title>
<polygon fill="lightcoral" stroke="black" points="1253,-158 1026.77,-140 1253,-122 1479.23,-140 1253,-158"/>
<text text-anchor="middle" x="1253" y="-136.3" font-family="Arial" font-size="14.00">No clear understanding of light&#39;s effect</text>
</g>
<!-- n4&#45;&gt;n8 -->
<g id="edge7" class="edge">
<title>n4&#45;&gt;n8</title>
<path fill="none" stroke="black" d="M1223.9,-243.81C1229.5,-223.91 1238.9,-190.92 1245.4,-167.68"/>
<polygon fill="black" stroke="black" points="1248.85,-168.34 1248.2,-157.77 1242.11,-166.44 1248.85,-168.34"/>
</g>
<!-- n5&#45;&gt;n7 -->
<g id="edge8" class="edge">
<title>n5&#45;&gt;n7</title>
<path fill="none" stroke="black" d="M947.73,-243.93C901.97,-221.79 822.36,-183.27 774.58,-160.15"/>
<polygon fill="black" stroke="black" points="776,-156.95 765.47,-155.74 772.95,-163.25 776,-156.95"/>
</g>
<!-- n5&#45;&gt;n8 -->
<g id="edge9" class="edge">
<title>n5&#45;&gt;n8</title>
<path fill="none" stroke="black" d="M1021.4,-243.93C1071.6,-221.64 1159.1,-182.74 1211,-159.67"/>
<polygon fill="black" stroke="black" points="1212.5,-162.83 1220.2,-155.56 1209.64,-156.44 1212.5,-162.83"/>
</g>
<!-- n9 -->
<g id="node9" class="node">
<title>n9</title>
<polygon fill="#f28e8e" stroke="black" points="901,-36 569,-36 569,0 901,0 901,-36"/>
<text text-anchor="middle" x="735" y="-14.3" font-family="Arial" font-size="14.00">Needs clarification on how water affects plant growth</text>
</g>
<!-- n7&#45;&gt;n9 -->
<g id="edge10" class="edge">
<title>n7&#45;&gt;n9</title>
<path fill="none" stroke="black" d="M735,-121.81C735,-102.11 735,-69.58 735,-46.39"/>
<polygon fill="black" stroke="black" points="738.5,-46.16 735,-36.16 731.5,-46.16 738.5,-46.16"/>
</g>
<!-- n10 -->
<g id="node10" class="node">
<title>n10</title>
<polygon fill="#f28e8e" stroke="black" points="1414.5,-36 1091.5,-36 1091.5,0 1414.5,0 1414.5,-36"/>
<text text-anchor="middle" x="1253" y="-14.3" font-family="Arial" font-size="14.00">Needs clarification on how light affects plant growth</text>
</g>
<!-- n8&#45;&gt;n10 -->
<g id="edge11" class="edge">
<title>n8&#45;&gt;n10</title>
<path fill="none" stroke="black" d="M1253,-121.81C1253,-102.11 1253,-69.58 1253,-46.39"/>
<polygon fill="black" stroke="black" points="1256.5,-46.16 1253,-36.16 1249.5,-46.16 1256.5,-46.16"/>
</g>
</g>
</svg>
