<?xml version="1.0" encoding="UTF-8" standalone="no"?>
<!DOCTYPE svg PUBLIC "-//W3C//DTD SVG 1.1//EN"
 "http://www.w3.org/Graphics/SVG/1.1/DTD/svg11.dtd">
<!-- Generated by graphviz version 2.43.0 (0)
 -->
<!-- Pages: 1 -->
<svg width="1322pt" height="410pt"
 viewBox="0.00 0.00 1321.50 410.00" xmlns="http://www.w3.org/2000/svg" xmlns:xlink="http://www.w3.org/1999/xlink">
<g id="graph0" class="graph" transform="scale(1 1) rotate(0) translate(4 406)">
<polygon fill="white" stroke="transparent" points="-4,4 -4,-406 1317.5,-406 1317.5,4 -4,4"/>
<!-- n1 -->
<g id="node1" class="node">
<title>n1</title>
<polygon fill="lightblue" stroke="black" points="703,-384 589.25,-402 361.75,-402 248,-384 361.75,-366 589.25,-366 703,-384"/>
<text text-anchor="middle" x="475.5" y="-380.3" font-family="Arial" font-size="14.00">Illustrate plants with and without water and light.</text>
</g>
<!-- n2 -->
<g id="node2" class="node">
<title>n2</title>
<polygon fill="#fffdd0" stroke="black" points="272.5,-280 60.5,-280 60.5,-244 272.5,-244 272.5,-280"/>
<text text-anchor="middle" x="166.5" y="-258.3" font-family="Arial" font-size="14.00">Healthy plant under sun and rain</text>
</g>
<!-- n1&#45;&gt;n2 -->
<g id="edge1" class="edge">
<title>n1&#45;&gt;n2</title>
<path fill="none" stroke="black" d="M431.56,-365.93C375.84,-344.3 279.85,-307.02 219.95,-283.76"/>
<polygon fill="black" stroke="black" points="220.88,-280.37 210.29,-280.01 218.35,-286.89 220.88,-280.37"/>
</g>
<!-- n3 -->
<g id="node3" class="node">
<title>n3</title>
<polygon fill="#fffdd0" stroke="black" points="592,-280 359,-280 359,-244 592,-244 592,-280"/>
<text text-anchor="middle" x="475.5" y="-258.3" font-family="Arial" font-size="14.00">Droopy plant indicating lack of water</text>
</g>
<!-- n1&#45;&gt;n3 -->
<g id="edge2" class="edge">
<title>n1&#45;&gt;n3</title>
<path fill="none" stroke="black" d="M475.5,-365.81C475.5,-346.11 475.5,-313.58 475.5,-290.39"/>
<polygon fill="black" stroke="black" points="479,-290.16 475.5,-280.16 472,-290.16 479,-290.16"/>
</g>
<!-- n4 -->
<g id="node4" class="node">
<title>n4</title>
<polygon fill="#fffdd0" stroke="black" points="991,-280 766,-280 766,-244 991,-244 991,-280"/>
<text text-anchor="middle" x="878.5" y="-258.3" font-family="Arial" font-size="14.00">Droopy plant indicating lack of light</text>
</g>
<!-- n1&#45;&gt;n4 -->
<g id="edge3" class="edge">
<title>n1&#45;&gt;n4</title>
<path fill="none" stroke="black" d="M532.81,-365.93C606.38,-344.03 733.78,-306.09 811.67,-282.9"/>
<polygon fill="black" stroke="black" points="812.8,-286.21 821.39,-280.01 810.81,-279.51 812.8,-286.21"/>
</g>
<!-- n5 -->
<g id="node5" class="node">
<title>n5</title>
<path fill="palegreen" stroke="black" d="M263,-158C263,-158 12,-158 12,-158 6,-158 0,-152 0,-146 0,-146 0,-134 0,-134 0,-128 6,-122 12,-122 12,-122 263,-122 263,-122 269,-122 275,-128 275,-134 275,-134 275,-146 275,-146 275,-152 269,-158 263,-158"/>
<text text-anchor="middle" x="137.5" y="-136.3" font-family="Arial" font-size="14.00">Healthy plant needs water and light to grow</text>
</g>
<!-- n2&#45;&gt;n5 -->
<g id="edge4" class="edge">
<title>n2&#45;&gt;n5</title>
<path fill="none" stroke="black" d="M162.35,-243.81C157.56,-224.02 149.65,-191.29 144.04,-168.08"/>
<polygon fill="black" stroke="black" points="147.39,-167.06 141.65,-158.16 140.59,-168.7 147.39,-167.06"/>
</g>
<!-- n6 -->
<g id="node6" class="node">
<title>n6</title>
<path fill="palegreen" stroke="black" d="M606,-158C606,-158 345,-158 345,-158 339,-158 333,-152 333,-146 333,-146 333,-134 333,-134 333,-128 339,-122 345,-122 345,-122 606,-122 606,-122 612,-122 618,-128 618,-134 618,-134 618,-146 618,-146 618,-152 612,-158 606,-158"/>
<text text-anchor="middle" x="475.5" y="-136.3" font-family="Arial" font-size="14.00">Demonstrates understanding of lack of water</text>
</g>
<!-- n3&#45;&gt;n6 -->
<g id="edge5" class="edge">
<title>n3&#45;&gt;n6</title>
<path fill="none" stroke="black" d="M475.5,-243.81C475.5,-224.11 475.5,-191.58 475.5,-168.39"/>
<polygon fill="black" stroke="black" points="479,-168.16 475.5,-158.16 472,-168.16 479,-168.16"/>
</g>
<!-- n7 -->
<g id="node7" class="node">
<title>n7</title>
<polygon fill="lightcoral" stroke="black" points="994.5,-158 675.5,-140 994.5,-122 1313.5,-140 994.5,-158"/>
<text text-anchor="middle" x="994.5" y="-136.3" font-family="Arial" font-size="14.00">Confused depiction: Similar appearance for lack of light</text>
</g>
<!-- n4&#45;&gt;n7 -->
<g id="edge6" class="edge">
<title>n4&#45;&gt;n7</title>
<path fill="none" stroke="black" d="M895.12,-243.81C915.16,-223.08 948.94,-188.13 971.48,-164.81"/>
<polygon fill="black" stroke="black" points="974.22,-167.01 978.66,-157.39 969.19,-162.14 974.22,-167.01"/>
</g>
<!-- n8 -->
<g id="node8" class="node">
<title>n8</title>
<polygon fill="#f28e8e" stroke="black" points="1196.5,-36 792.5,-36 792.5,0 1196.5,0 1196.5,-36"/>
<text text-anchor="middle" x="994.5" y="-14.3" font-family="Arial" font-size="14.00">Use distinct features to illustrate lack of light, such as faded color</text>
</g>
<!-- n7&#45;&gt;n8 -->
<g id="edge7" class="edge">
<title>n7&#45;&gt;n8</title>
<path fill="none" stroke="black" d="M994.5,-121.81C994.5,-102.11 994.5,-69.58 994.5,-46.39"/>
<polygon fill="black" stroke="black" points="998,-46.16 994.5,-36.16 991,-46.16 998,-46.16"/>
</g>
</g>
</svg>
