<?xml version="1.0" encoding="UTF-8" standalone="no"?>
<!DOCTYPE svg PUBLIC "-//W3C//DTD SVG 1.1//EN"
 "http://www.w3.org/Graphics/SVG/1.1/DTD/svg11.dtd">
<!-- Generated by graphviz version 2.43.0 (0)
 -->
<!-- Pages: 1 -->
<svg width="1967pt" height="410pt"
 viewBox="0.00 0.00 1967.24 410.00" xmlns="http://www.w3.org/2000/svg" xmlns:xlink="http://www.w3.org/1999/xlink">
<g id="graph0" class="graph" transform="scale(1 1) rotate(0) translate(4 406)">
<polygon fill="white" stroke="transparent" points="-4,4 -4,-406 1963.24,-406 1963.24,4 -4,4"/>
<!-- n1 -->
<g id="node1" class="node">
<title>n1</title>
<polygon fill="lightblue" stroke="black" points="1343.6,-384 1251.6,-402 1067.6,-402 975.6,-384 1067.6,-366 1251.6,-366 1343.6,-384"/>
<text text-anchor="middle" x="1159.6" y="-380.3" font-family="Arial" font-size="14.00">Illustrate plants with and without water</text>
</g>
<!-- n2 -->
<g id="node2" class="node">
<title>n2</title>
<polygon fill="#fffdd0" stroke="black" points="639.62,-280 389.62,-280 389.62,-244 639.62,-244 639.62,-280"/>
<text text-anchor="middle" x="514.62" y="-258.3" font-family="Arial" font-size="14.00">Two identical plants drawn side by side</text>
</g>
<!-- n1&#45;&gt;n2 -->
<g id="edge1" class="edge">
<title>n1&#45;&gt;n2</title>
<path fill="none" stroke="black" d="M1068.2,-366C948.8,-343.78 740.25,-304.98 616.04,-281.87"/>
<polygon fill="black" stroke="black" points="616.62,-278.42 606.14,-280.03 615.34,-285.3 616.62,-278.42"/>
</g>
<!-- n3 -->
<g id="node3" class="node">
<title>n3</title>
<polygon fill="#fffdd0" stroke="black" points="1125.12,-280 862.12,-280 862.12,-244 1125.12,-244 1125.12,-280"/>
<text text-anchor="middle" x="993.62" y="-258.3" font-family="Arial" font-size="14.00">Colored in shades of light and dark green</text>
</g>
<!-- n1&#45;&gt;n3 -->
<g id="edge2" class="edge">
<title>n1&#45;&gt;n3</title>
<path fill="none" stroke="black" d="M1135.8,-365.81C1106.9,-344.87 1057.8,-309.41 1025.6,-286.1"/>
<polygon fill="black" stroke="black" points="1027.56,-283.19 1017.4,-280.16 1023.45,-288.86 1027.56,-283.19"/>
</g>
<!-- n4 -->
<g id="node4" class="node">
<title>n4</title>
<polygon fill="#fffdd0" stroke="black" points="1470.1,-280 1183.1,-280 1183.1,-244 1470.1,-244 1470.1,-280"/>
<text text-anchor="middle" x="1326.6" y="-258.3" font-family="Arial" font-size="14.00">Simple lines and circles for stems and leaves</text>
</g>
<!-- n1&#45;&gt;n4 -->
<g id="edge3" class="edge">
<title>n1&#45;&gt;n4</title>
<path fill="none" stroke="black" d="M1183.6,-365.81C1212.7,-344.87 1262,-309.41 1294.5,-286.1"/>
<polygon fill="black" stroke="black" points="1296.66,-288.86 1302.7,-280.16 1292.55,-283.19 1296.66,-288.86"/>
</g>
<!-- n5 -->
<g id="node5" class="node">
<title>n5</title>
<polygon fill="#fffdd0" stroke="black" points="1858.6,-280 1528.6,-280 1528.6,-244 1858.6,-244 1858.6,-280"/>
<text text-anchor="middle" x="1693.6" y="-258.3" font-family="Arial" font-size="14.00">Same brown ground for both plants, no water shown</text>
</g>
<!-- n1&#45;&gt;n5 -->
<g id="edge4" class="edge">
<title>n1&#45;&gt;n5</title>
<path fill="none" stroke="black" d="M1235.3,-366C1333.6,-343.91 1504.8,-305.44 1607.8,-282.29"/>
<polygon fill="black" stroke="black" points="1608.91,-285.63 1617.9,-280.03 1607.38,-278.8 1608.91,-285.63"/>
</g>
<!-- n6 -->
<g id="node6" class="node">
<title>n6</title>
<polygon fill="lightcoral" stroke="black" points="322.62,-158 -0.12,-140 322.62,-122 645.37,-140 322.62,-158"/>
<text text-anchor="middle" x="322.62" y="-136.3" font-family="Arial" font-size="14.00">Plants should appear different based on water presence</text>
</g>
<!-- n2&#45;&gt;n6 -->
<g id="edge5" class="edge">
<title>n2&#45;&gt;n6</title>
<path fill="none" stroke="black" d="M487.12,-243.81C452.56,-222.21 393.29,-185.17 356.13,-161.94"/>
<polygon fill="black" stroke="black" points="357.98,-158.97 347.64,-156.63 354.27,-164.9 357.98,-158.97"/>
</g>
<!-- n7 -->
<g id="node7" class="node">
<title>n7</title>
<polygon fill="lightcoral" stroke="black" points="1022.6,-158 703.6,-140 1022.6,-122 1341.6,-140 1022.6,-158"/>
<text text-anchor="middle" x="1022.6" y="-136.3" font-family="Arial" font-size="14.00">Understanding of plant health indicators (green/upright)</text>
</g>
<!-- n3&#45;&gt;n7 -->
<g id="edge6" class="edge">
<title>n3&#45;&gt;n7</title>
<path fill="none" stroke="black" d="M997.78,-243.81C1002.6,-223.91 1010.6,-190.92 1016.2,-167.68"/>
<polygon fill="black" stroke="black" points="1019.65,-168.31 1018.6,-157.77 1012.85,-166.67 1019.65,-168.31"/>
</g>
<!-- n8 -->
<g id="node8" class="node">
<title>n8</title>
<polygon fill="lightcoral" stroke="black" points="1693.6,-158 1427.83,-140 1693.6,-122 1959.38,-140 1693.6,-158"/>
<text text-anchor="middle" x="1693.6" y="-136.3" font-family="Arial" font-size="14.00">No differentiation in ground or water depiction</text>
</g>
<!-- n5&#45;&gt;n8 -->
<g id="edge7" class="edge">
<title>n5&#45;&gt;n8</title>
<path fill="none" stroke="black" d="M1693.6,-243.81C1693.6,-224.11 1693.6,-191.58 1693.6,-168.39"/>
<polygon fill="black" stroke="black" points="1697.1,-168.16 1693.6,-158.16 1690.1,-168.16 1697.1,-168.16"/>
</g>
<!-- n9 -->
<g id="node9" class="node">
<title>n9</title>
<polygon fill="#f28e8e" stroke="black" points="503.12,-36 142.12,-36 142.12,0 503.12,0 503.12,-36"/>
<text text-anchor="middle" x="322.62" y="-14.3" font-family="Arial" font-size="14.00">Demonstrate plant differences via changes in color/shape</text>
</g>
<!-- n6&#45;&gt;n9 -->
<g id="edge8" class="edge">
<title>n6&#45;&gt;n9</title>
<path fill="none" stroke="black" d="M322.62,-121.81C322.62,-102.11 322.62,-69.58 322.62,-46.39"/>
<polygon fill="black" stroke="black" points="326.12,-46.16 322.62,-36.16 319.12,-46.16 326.12,-46.16"/>
</g>
<!-- n10 -->
<g id="node10" class="node">
<title>n10</title>
<polygon fill="#f28e8e" stroke="black" points="1160.1,-36 885.1,-36 885.1,0 1160.1,0 1160.1,-36"/>
<text text-anchor="middle" x="1022.6" y="-14.3" font-family="Arial" font-size="14.00">Teach plant health signs (wilted vs. upright)</text>
</g>
<!-- n7&#45;&gt;n10 -->
<g id="edge9" class="edge">
<title>n7&#45;&gt;n10</title>
<path fill="none" stroke="black" d="M1022.6,-121.81C1022.6,-102.11 1022.6,-69.58 1022.6,-46.39"/>
<polygon fill="black" stroke="black" points="1026.1,-46.16 1022.6,-36.16 1019.1,-46.16 1026.1,-46.16"/>
</g>
<!-- n11 -->
<g id="node11" class="node">
<title>n11</title>
<polygon fill="#f28e8e" stroke="black" points="1832.6,-36 1554.6,-36 1554.6,0 1832.6,0 1832.6,-36"/>
<text text-anchor="middle" x="1693.6" y="-14.3" font-family="Arial" font-size="14.00">Show water as blue or differentiated ground</text>
</g>
<!-- n8&#45;&gt;n11 -->
<g id="edge10" class="edge">
<title>n8&#45;&gt;n11</title>
<path fill="none" stroke="black" d="M1693.6,-121.81C1693.6,-102.11 1693.6,-69.58 1693.6,-46.39"/>
<polygon fill="black" stroke="black" points="1697.1,-46.16 1693.6,-36.16 1690.1,-46.16 1697.1,-46.16"/>
</g>
</g>
</svg>
