<?xml version="1.0" encoding="UTF-8" standalone="no"?>
<!DOCTYPE svg PUBLIC "-//W3C//DTD SVG 1.1//EN"
 "http://www.w3.org/Graphics/SVG/1.1/DTD/svg11.dtd">
<!-- Generated by graphviz version 2.43.0 (0)
 -->
<!-- Pages: 1 -->
<svg width="1574pt" height="410pt"
 viewBox="0.00 0.00 1574.00 410.00" xmlns="http://www.w3.org/2000/svg" xmlns:xlink="http://www.w3.org/1999/xlink">
<g id="graph0" class="graph" transform="scale(1 1) rotate(0) translate(4 406)">
<polygon fill="white" stroke="transparent" points="-4,4 -4,-406 1570,-406 1570,4 -4,4"/>
<!-- n1 -->
<g id="node1" class="node">
<title>n1</title>
<polygon fill="lightblue" stroke="black" points="1017.5,-384 853.5,-402 525.5,-402 361.5,-384 525.5,-366 853.5,-366 1017.5,-384"/>
<text text-anchor="middle" x="689.5" y="-380.3" font-family="Arial" font-size="14.00">Draw reversible and irreversible changes (ice melting vs. egg cooking)</text>
</g>
<!-- n2 -->
<g id="node2" class="node">
<title>n2</title>
<polygon fill="#fffdd0" stroke="black" points="591,-280 400,-280 400,-244 591,-244 591,-280"/>
<text text-anchor="middle" x="495.5" y="-258.3" font-family="Arial" font-size="14.00">Ice cube with puddle of water</text>
</g>
<!-- n1&#45;&gt;n2 -->
<g id="edge1" class="edge">
<title>n1&#45;&gt;n2</title>
<path fill="none" stroke="black" d="M661.7,-365.81C627.56,-344.69 569.55,-308.81 531.89,-285.51"/>
<polygon fill="black" stroke="black" points="533.59,-282.44 523.24,-280.16 529.9,-288.4 533.59,-282.44"/>
</g>
<!-- n6 -->
<g id="node3" class="node">
<title>n6</title>
<polygon fill="#fffdd0" stroke="black" points="1024.5,-280 742.5,-280 742.5,-244 1024.5,-244 1024.5,-280"/>
<text text-anchor="middle" x="883.5" y="-258.3" font-family="Arial" font-size="14.00">Raw egg and cooked egg with squiggly lines</text>
</g>
<!-- n1&#45;&gt;n6 -->
<g id="edge2" class="edge">
<title>n1&#45;&gt;n6</title>
<path fill="none" stroke="black" d="M717.3,-365.81C751.44,-344.69 809.45,-308.81 847.11,-285.51"/>
<polygon fill="black" stroke="black" points="849.1,-288.4 855.76,-280.16 845.41,-282.44 849.1,-288.4"/>
</g>
<!-- n3 -->
<g id="node4" class="node">
<title>n3</title>
<path fill="palegreen" stroke="black" d="M203,-158C203,-158 12,-158 12,-158 6,-158 0,-152 0,-146 0,-146 0,-134 0,-134 0,-128 6,-122 12,-122 12,-122 203,-122 203,-122 209,-122 215,-128 215,-134 215,-134 215,-146 215,-146 215,-152 209,-158 203,-158"/>
<text text-anchor="middle" x="107.5" y="-136.3" font-family="Arial" font-size="14.00">Cube&#45;shaped ice becomes water</text>
</g>
<!-- n2&#45;&gt;n3 -->
<g id="edge3" class="edge">
<title>n2&#45;&gt;n3</title>
<path fill="none" stroke="black" d="M440.32,-243.93C369.64,-222.07 247.33,-184.25 172.3,-161.04"/>
<polygon fill="black" stroke="black" points="173.08,-157.62 162.49,-158.01 171.01,-164.31 173.08,-157.62"/>
</g>
<!-- n4 -->
<g id="node5" class="node">
<title>n4</title>
<polygon fill="lightcoral" stroke="black" points="495.5,-158 273,-140 495.5,-122 718,-140 495.5,-158"/>
<text text-anchor="middle" x="495.5" y="-136.3" font-family="Arial" font-size="14.00">Reversible change: Ice to water to ice</text>
</g>
<!-- n2&#45;&gt;n4 -->
<g id="edge4" class="edge">
<title>n2&#45;&gt;n4</title>
<path fill="none" stroke="black" d="M495.5,-243.81C495.5,-224.11 495.5,-191.58 495.5,-168.39"/>
<polygon fill="black" stroke="black" points="499,-168.16 495.5,-158.16 492,-168.16 499,-168.16"/>
</g>
<!-- n7 -->
<g id="node6" class="node">
<title>n7</title>
<path fill="palegreen" stroke="black" d="M979,-158C979,-158 788,-158 788,-158 782,-158 776,-152 776,-146 776,-146 776,-134 776,-134 776,-128 782,-122 788,-122 788,-122 979,-122 979,-122 985,-122 991,-128 991,-134 991,-134 991,-146 991,-146 991,-152 985,-158 979,-158"/>
<text text-anchor="middle" x="883.5" y="-136.3" font-family="Arial" font-size="14.00">Egg becomes solid when cooked</text>
</g>
<!-- n6&#45;&gt;n7 -->
<g id="edge5" class="edge">
<title>n6&#45;&gt;n7</title>
<path fill="none" stroke="black" d="M883.5,-243.81C883.5,-224.11 883.5,-191.58 883.5,-168.39"/>
<polygon fill="black" stroke="black" points="887,-168.16 883.5,-158.16 880,-168.16 887,-168.16"/>
</g>
<!-- n8 -->
<g id="node7" class="node">
<title>n8</title>
<polygon fill="lightcoral" stroke="black" points="1307.5,-158 1049,-140 1307.5,-122 1566,-140 1307.5,-158"/>
<text text-anchor="middle" x="1307.5" y="-136.3" font-family="Arial" font-size="14.00">Irreversible change: Raw egg to cooked egg</text>
</g>
<!-- n6&#45;&gt;n8 -->
<g id="edge6" class="edge">
<title>n6&#45;&gt;n8</title>
<path fill="none" stroke="black" d="M943.8,-243.93C1025.1,-220.91 1169.1,-180.18 1249.3,-157.47"/>
<polygon fill="black" stroke="black" points="1250.54,-160.76 1259.2,-154.66 1248.62,-154.02 1250.54,-160.76"/>
</g>
<!-- n5 -->
<g id="node8" class="node">
<title>n5</title>
<polygon fill="#f28e8e" stroke="black" points="628.5,-36 362.5,-36 362.5,0 628.5,0 628.5,-36"/>
<text text-anchor="middle" x="495.5" y="-14.3" font-family="Arial" font-size="14.00">Ensure to depict ice becoming solid again</text>
</g>
<!-- n4&#45;&gt;n5 -->
<g id="edge7" class="edge">
<title>n4&#45;&gt;n5</title>
<path fill="none" stroke="black" d="M495.5,-121.81C495.5,-102.11 495.5,-69.58 495.5,-46.39"/>
<polygon fill="black" stroke="black" points="499,-46.16 495.5,-36.16 492,-46.16 499,-46.16"/>
</g>
<!-- n9 -->
<g id="node9" class="node">
<title>n9</title>
<polygon fill="#f28e8e" stroke="black" points="1445.5,-36 1169.5,-36 1169.5,0 1445.5,0 1445.5,-36"/>
<text text-anchor="middle" x="1307.5" y="-14.3" font-family="Arial" font-size="14.00">Clarify cooked egg&#39;s state and irreversibility</text>
</g>
<!-- n8&#45;&gt;n9 -->
<g id="edge8" class="edge">
<title>n8&#45;&gt;n9</title>
<path fill="none" stroke="black" d="M1307.5,-121.81C1307.5,-102.11 1307.5,-69.58 1307.5,-46.39"/>
<polygon fill="black" stroke="black" points="1311,-46.16 1307.5,-36.16 1304,-46.16 1311,-46.16"/>
</g>
</g>
</svg>
