<?xml version="1.0" encoding="UTF-8" standalone="no"?>
<!DOCTYPE svg PUBLIC "-//W3C//DTD SVG 1.1//EN"
 "http://www.w3.org/Graphics/SVG/1.1/DTD/svg11.dtd">
<!-- Generated by graphviz version 2.43.0 (0)
 -->
<!-- Pages: 1 -->
<svg width="1710pt" height="288pt"
 viewBox="0.00 0.00 1710.00 288.00" xmlns="http://www.w3.org/2000/svg" xmlns:xlink="http://www.w3.org/1999/xlink">
<g id="graph0" class="graph" transform="scale(1 1) rotate(0) translate(4 284)">
<polygon fill="white" stroke="transparent" points="-4,4 -4,-284 1706,-284 1706,4 -4,4"/>
<!-- n1 -->
<g id="node1" class="node">
<title>n1</title>
<polygon fill="lightblue" stroke="black" points="1130.5,-262 1019,-280 796,-280 684.5,-262 796,-244 1019,-244 1130.5,-262"/>
<text text-anchor="middle" x="907.5" y="-258.3" font-family="Arial" font-size="14.00">Draw a string telephone between two students.</text>
</g>
<!-- n2 -->
<g id="node2" class="node">
<title>n2</title>
<polygon fill="#fffdd0" stroke="black" points="323,-158 0,-158 0,-122 323,-122 323,-158"/>
<text text-anchor="middle" x="161.5" y="-136.3" font-family="Arial" font-size="14.00">Two cartoon&#45;style students standing apart outdoors</text>
</g>
<!-- n1&#45;&gt;n2 -->
<g id="edge1" class="edge">
<title>n1&#45;&gt;n2</title>
<path fill="none" stroke="black" d="M801.8,-244C663.24,-221.71 421,-182.74 277.51,-159.66"/>
<polygon fill="black" stroke="black" points="277.78,-156.16 267.35,-158.03 276.67,-163.07 277.78,-156.16"/>
</g>
<!-- n3 -->
<g id="node3" class="node">
<title>n3</title>
<polygon fill="#fffdd0" stroke="black" points="762,-158 381,-158 381,-122 762,-122 762,-158"/>
<text text-anchor="middle" x="571.5" y="-136.3" font-family="Arial" font-size="14.00">Red paper cups held by students connected by a white string</text>
</g>
<!-- n1&#45;&gt;n3 -->
<g id="edge2" class="edge">
<title>n1&#45;&gt;n3</title>
<path fill="none" stroke="black" d="M859.72,-243.93C798.88,-222.21 693.89,-184.71 628.81,-161.47"/>
<polygon fill="black" stroke="black" points="629.71,-158.08 619.12,-158.01 627.36,-164.67 629.71,-158.08"/>
</g>
<!-- n4 -->
<g id="node4" class="node">
<title>n4</title>
<polygon fill="#fffdd0" stroke="black" points="995,-158 820,-158 820,-122 995,-122 995,-158"/>
<text text-anchor="middle" x="907.5" y="-136.3" font-family="Arial" font-size="14.00">Wavy blue lines from cups</text>
</g>
<!-- n1&#45;&gt;n4 -->
<g id="edge3" class="edge">
<title>n1&#45;&gt;n4</title>
<path fill="none" stroke="black" d="M907.5,-243.81C907.5,-224.11 907.5,-191.58 907.5,-168.39"/>
<polygon fill="black" stroke="black" points="911,-168.16 907.5,-158.16 904,-168.16 911,-168.16"/>
</g>
<!-- n5 -->
<g id="node5" class="node">
<title>n5</title>
<polygon fill="#fffdd0" stroke="black" points="1243.5,-158 1075.5,-158 1075.5,-122 1243.5,-122 1243.5,-158"/>
<text text-anchor="middle" x="1159.5" y="-136.3" font-family="Arial" font-size="14.00">Gray wavy lines on string</text>
</g>
<!-- n1&#45;&gt;n5 -->
<g id="edge4" class="edge">
<title>n1&#45;&gt;n5</title>
<path fill="none" stroke="black" d="M943.34,-243.93C988.4,-222.48 1065.8,-185.63 1114.7,-162.33"/>
<polygon fill="black" stroke="black" points="1116.27,-165.46 1123.8,-158.01 1113.27,-159.14 1116.27,-165.46"/>
</g>
<!-- n6 -->
<g id="node6" class="node">
<title>n6</title>
<polygon fill="#fffdd0" stroke="black" points="1702,-158 1313,-158 1313,-122 1702,-122 1702,-158"/>
<text text-anchor="middle" x="1507.5" y="-136.3" font-family="Arial" font-size="14.00">Annotations explaining sound travel through string and tension</text>
</g>
<!-- n1&#45;&gt;n6 -->
<g id="edge5" class="edge">
<title>n1&#45;&gt;n6</title>
<path fill="none" stroke="black" d="M992.51,-244C1103.4,-221.82 1296.8,-183.13 1412.5,-160.01"/>
<polygon fill="black" stroke="black" points="1413.28,-163.42 1422.4,-158.03 1411.91,-156.56 1413.28,-163.42"/>
</g>
<!-- n7 -->
<g id="node7" class="node">
<title>n7</title>
<path fill="palegreen" stroke="black" d="M297.5,-36C297.5,-36 25.5,-36 25.5,-36 19.5,-36 13.5,-30 13.5,-24 13.5,-24 13.5,-12 13.5,-12 13.5,-6 19.5,0 25.5,0 25.5,0 297.5,0 297.5,0 303.5,0 309.5,-6 309.5,-12 309.5,-12 309.5,-24 309.5,-24 309.5,-30 303.5,-36 297.5,-36"/>
<text text-anchor="middle" x="161.5" y="-14.3" font-family="Arial" font-size="14.00">Students use string telephone to communicate</text>
</g>
<!-- n2&#45;&gt;n7 -->
<g id="edge6" class="edge">
<title>n2&#45;&gt;n7</title>
<path fill="none" stroke="black" d="M161.5,-121.81C161.5,-102.11 161.5,-69.58 161.5,-46.39"/>
<polygon fill="black" stroke="black" points="165,-46.16 161.5,-36.16 158,-46.16 165,-46.16"/>
</g>
<!-- n8 -->
<g id="node8" class="node">
<title>n8</title>
<path fill="palegreen" stroke="black" d="M682.5,-36C682.5,-36 448.5,-36 448.5,-36 442.5,-36 436.5,-30 436.5,-24 436.5,-24 436.5,-12 436.5,-12 436.5,-6 442.5,0 448.5,0 448.5,0 682.5,0 682.5,0 688.5,0 694.5,-6 694.5,-12 694.5,-12 694.5,-24 694.5,-24 694.5,-30 688.5,-36 682.5,-36"/>
<text text-anchor="middle" x="565.5" y="-14.3" font-family="Arial" font-size="14.00">String shows sound travel between cups</text>
</g>
<!-- n3&#45;&gt;n8 -->
<g id="edge7" class="edge">
<title>n3&#45;&gt;n8</title>
<path fill="none" stroke="black" d="M570.64,-121.81C569.66,-102.11 568.03,-69.58 566.87,-46.39"/>
<polygon fill="black" stroke="black" points="570.35,-45.97 566.36,-36.16 563.36,-46.32 570.35,-45.97"/>
</g>
<!-- n9 -->
<g id="node9" class="node">
<title>n9</title>
<path fill="palegreen" stroke="black" d="M980,-36C980,-36 765,-36 765,-36 759,-36 753,-30 753,-24 753,-24 753,-12 753,-12 753,-6 759,0 765,0 765,0 980,0 980,0 986,0 992,-6 992,-12 992,-12 992,-24 992,-24 992,-30 986,-36 980,-36"/>
<text text-anchor="middle" x="872.5" y="-14.3" font-family="Arial" font-size="14.00">Sound waves depicted from the cups</text>
</g>
<!-- n4&#45;&gt;n9 -->
<g id="edge8" class="edge">
<title>n4&#45;&gt;n9</title>
<path fill="none" stroke="black" d="M902.49,-121.81C896.69,-101.94 887.08,-68.99 880.31,-45.76"/>
<polygon fill="black" stroke="black" points="883.67,-44.78 877.51,-36.16 876.95,-46.74 883.67,-44.78"/>
</g>
<!-- n10 -->
<g id="node10" class="node">
<title>n10</title>
<path fill="palegreen" stroke="black" d="M1337,-36C1337,-36 1062,-36 1062,-36 1056,-36 1050,-30 1050,-24 1050,-24 1050,-12 1050,-12 1050,-6 1056,0 1062,0 1062,0 1337,0 1337,0 1343,0 1349,-6 1349,-12 1349,-12 1349,-24 1349,-24 1349,-30 1343,-36 1337,-36"/>
<text text-anchor="middle" x="1199.5" y="-14.3" font-family="Arial" font-size="14.00">String vibration shows sound travel by vibration</text>
</g>
<!-- n5&#45;&gt;n10 -->
<g id="edge9" class="edge">
<title>n5&#45;&gt;n10</title>
<path fill="none" stroke="black" d="M1165.2,-121.81C1171.9,-101.94 1182.8,-68.99 1190.6,-45.76"/>
<polygon fill="black" stroke="black" points="1193.96,-46.75 1193.8,-36.16 1187.32,-44.54 1193.96,-46.75"/>
</g>
<!-- n11 -->
<g id="node11" class="node">
<title>n11</title>
<path fill="palegreen" stroke="black" d="M1607.5,-36C1607.5,-36 1419.5,-36 1419.5,-36 1413.5,-36 1407.5,-30 1407.5,-24 1407.5,-24 1407.5,-12 1407.5,-12 1407.5,-6 1413.5,0 1419.5,0 1419.5,0 1607.5,0 1607.5,0 1613.5,0 1619.5,-6 1619.5,-12 1619.5,-12 1619.5,-24 1619.5,-24 1619.5,-30 1613.5,-36 1607.5,-36"/>
<text text-anchor="middle" x="1513.5" y="-14.3" font-family="Arial" font-size="14.00">Annotations explain sound travel</text>
</g>
<!-- n6&#45;&gt;n11 -->
<g id="edge10" class="edge">
<title>n6&#45;&gt;n11</title>
<path fill="none" stroke="black" d="M1508.4,-121.81C1509.3,-102.11 1511,-69.58 1512.1,-46.39"/>
<polygon fill="black" stroke="black" points="1515.61,-46.32 1512.6,-36.16 1508.62,-45.98 1515.61,-46.32"/>
</g>
</g>
</svg>
