<?xml version="1.0" encoding="UTF-8" standalone="no"?>
<!DOCTYPE svg PUBLIC "-//W3C//DTD SVG 1.1//EN"
 "http://www.w3.org/Graphics/SVG/1.1/DTD/svg11.dtd">
<!-- Generated by graphviz version 2.43.0 (0)
 -->
<!-- Pages: 1 -->
<svg width="2498pt" height="288pt"
 viewBox="0.00 0.00 2497.50 288.00" xmlns="http://www.w3.org/2000/svg" xmlns:xlink="http://www.w3.org/1999/xlink">
<g id="graph0" class="graph" transform="scale(1 1) rotate(0) translate(4 284)">
<polygon fill="white" stroke="transparent" points="-4,4 -4,-284 2493.5,-284 2493.5,4 -4,4"/>
<!-- n1 -->
<g id="node1" class="node">
<title>n1</title>
<polygon fill="lightblue" stroke="black" points="1743.5,-262 1652.25,-280 1469.75,-280 1378.5,-262 1469.75,-244 1652.25,-244 1743.5,-262"/>
<text text-anchor="middle" x="1561" y="-258.3" font-family="Arial" font-size="14.00">Draw a fish in their habitat with labels.</text>
</g>
<!-- n2 -->
<g id="node2" class="node">
<title>n2</title>
<polygon fill="#fffdd0" stroke="black" points="823.5,-158 594.5,-158 594.5,-122 823.5,-122 823.5,-158"/>
<text text-anchor="middle" x="709" y="-136.3" font-family="Arial" font-size="14.00">Central salmon fish with blue labels</text>
</g>
<!-- n1&#45;&gt;n2 -->
<g id="edge1" class="edge">
<title>n1&#45;&gt;n2</title>
<path fill="none" stroke="black" d="M1457.4,-246.41C1300.3,-224.28 1002.4,-182.32 833.69,-158.56"/>
<polygon fill="black" stroke="black" points="834.15,-155.09 823.76,-157.16 833.17,-162.02 834.15,-155.09"/>
</g>
<!-- n3 -->
<g id="node3" class="node">
<title>n3</title>
<polygon fill="#fffdd0" stroke="black" points="1321,-158 929,-158 929,-122 1321,-122 1321,-158"/>
<text text-anchor="middle" x="1125" y="-136.3" font-family="Arial" font-size="14.00">Surrounded by seaweed, smaller fish like minnows, and a crab</text>
</g>
<!-- n1&#45;&gt;n3 -->
<g id="edge2" class="edge">
<title>n1&#45;&gt;n3</title>
<path fill="none" stroke="black" d="M1499,-243.93C1419.2,-221.96 1280.7,-183.86 1196.5,-160.69"/>
<polygon fill="black" stroke="black" points="1197.37,-157.3 1186.8,-158.01 1195.51,-164.05 1197.37,-157.3"/>
</g>
<!-- n4 -->
<g id="node4" class="node">
<title>n4</title>
<polygon fill="#fffdd0" stroke="black" points="1743.5,-158 1378.5,-158 1378.5,-122 1743.5,-122 1743.5,-158"/>
<text text-anchor="middle" x="1561" y="-136.3" font-family="Arial" font-size="14.00">Line between two water bodies labeled &#39;Lake&#39; and &#39;Ocean&#39;</text>
</g>
<!-- n1&#45;&gt;n4 -->
<g id="edge3" class="edge">
<title>n1&#45;&gt;n4</title>
<path fill="none" stroke="black" d="M1561,-243.81C1561,-224.11 1561,-191.58 1561,-168.39"/>
<polygon fill="black" stroke="black" points="1564.5,-168.16 1561,-158.16 1557.5,-168.16 1564.5,-168.16"/>
</g>
<!-- n5 -->
<g id="node5" class="node">
<title>n5</title>
<polygon fill="#fffdd0" stroke="black" points="2178.5,-158 1801.5,-158 1801.5,-122 2178.5,-122 2178.5,-158"/>
<text text-anchor="middle" x="1990" y="-136.3" font-family="Arial" font-size="14.00">Seaweed labeled as &#39;Food Source&#39; and bubbles as &#39;Oxygen&#39;</text>
</g>
<!-- n1&#45;&gt;n5 -->
<g id="edge4" class="edge">
<title>n1&#45;&gt;n5</title>
<path fill="none" stroke="black" d="M1622,-243.93C1700.5,-221.99 1836.5,-183.94 1919.4,-160.76"/>
<polygon fill="black" stroke="black" points="1920.52,-164.08 1929.2,-158.01 1918.63,-157.34 1920.52,-164.08"/>
</g>
<!-- n6 -->
<g id="node6" class="node">
<title>n6</title>
<polygon fill="#fffdd0" stroke="black" points="2473,-158 2237,-158 2237,-122 2473,-122 2473,-158"/>
<text text-anchor="middle" x="2355" y="-136.3" font-family="Arial" font-size="14.00">Rocks labeled as part of the &#39;Habitat&#39;</text>
</g>
<!-- n1&#45;&gt;n6 -->
<g id="edge5" class="edge">
<title>n1&#45;&gt;n6</title>
<path fill="none" stroke="black" d="M1661.6,-245.8C1806.9,-223.83 2075.5,-183.24 2232.3,-159.54"/>
<polygon fill="black" stroke="black" points="2233.13,-162.95 2242.5,-158.01 2232.09,-156.03 2233.13,-162.95"/>
</g>
<!-- n7 -->
<g id="node7" class="node">
<title>n7</title>
<path fill="palegreen" stroke="black" d="M440,-36C440,-36 12,-36 12,-36 6,-36 0,-30 0,-24 0,-24 0,-12 0,-12 0,-6 6,0 12,0 12,0 440,0 440,0 446,0 452,-6 452,-12 452,-12 452,-24 452,-24 452,-30 446,-36 440,-36"/>
<text text-anchor="middle" x="226" y="-14.3" font-family="Arial" font-size="14.00">Student shows understanding of fish and other animals in a water habitat</text>
</g>
<!-- n2&#45;&gt;n7 -->
<g id="edge6" class="edge">
<title>n2&#45;&gt;n7</title>
<path fill="none" stroke="black" d="M640.57,-122C551.93,-99.98 397.77,-61.67 304.48,-38.5"/>
<polygon fill="black" stroke="black" points="305.08,-35.04 294.53,-36.03 303.39,-41.83 305.08,-35.04"/>
</g>
<!-- n12 -->
<g id="node8" class="node">
<title>n12</title>
<polygon fill="#f28e8e" stroke="black" points="907.5,-36 510.5,-36 510.5,0 907.5,0 907.5,-36"/>
<text text-anchor="middle" x="709" y="-14.3" font-family="Arial" font-size="14.00">Consider adding more complex interactions, like decomposition</text>
</g>
<!-- n2&#45;&gt;n12 -->
<g id="edge7" class="edge">
<title>n2&#45;&gt;n12</title>
<path fill="none" stroke="black" d="M709,-121.81C709,-102.11 709,-69.58 709,-46.39"/>
<polygon fill="black" stroke="black" points="712.5,-46.16 709,-36.16 705.5,-46.16 712.5,-46.16"/>
</g>
<!-- n8 -->
<g id="node9" class="node">
<title>n8</title>
<path fill="palegreen" stroke="black" d="M1340.5,-36C1340.5,-36 977.5,-36 977.5,-36 971.5,-36 965.5,-30 965.5,-24 965.5,-24 965.5,-12 965.5,-12 965.5,-6 971.5,0 977.5,0 977.5,0 1340.5,0 1340.5,0 1346.5,0 1352.5,-6 1352.5,-12 1352.5,-12 1352.5,-24 1352.5,-24 1352.5,-30 1346.5,-36 1340.5,-36"/>
<text text-anchor="middle" x="1159" y="-14.3" font-family="Arial" font-size="14.00">Student accurately places fish and animals in a natural setting</text>
</g>
<!-- n3&#45;&gt;n8 -->
<g id="edge8" class="edge">
<title>n3&#45;&gt;n8</title>
<path fill="none" stroke="black" d="M1129.9,-121.81C1135.5,-102.02 1144.8,-69.29 1151.3,-46.08"/>
<polygon fill="black" stroke="black" points="1154.75,-46.74 1154.1,-36.16 1148.01,-44.83 1154.75,-46.74"/>
</g>
<!-- n9 -->
<g id="node10" class="node">
<title>n9</title>
<path fill="palegreen" stroke="black" d="M1665,-36C1665,-36 1457,-36 1457,-36 1451,-36 1445,-30 1445,-24 1445,-24 1445,-12 1445,-12 1445,-6 1451,0 1457,0 1457,0 1665,0 1665,0 1671,0 1677,-6 1677,-12 1677,-12 1677,-24 1677,-24 1677,-30 1671,-36 1665,-36"/>
<text text-anchor="middle" x="1561" y="-14.3" font-family="Arial" font-size="14.00">Water bodies are identified correctly</text>
</g>
<!-- n4&#45;&gt;n9 -->
<g id="edge9" class="edge">
<title>n4&#45;&gt;n9</title>
<path fill="none" stroke="black" d="M1561,-121.81C1561,-102.11 1561,-69.58 1561,-46.39"/>
<polygon fill="black" stroke="black" points="1564.5,-46.16 1561,-36.16 1557.5,-46.16 1564.5,-46.16"/>
</g>
<!-- n10 -->
<g id="node11" class="node">
<title>n10</title>
<path fill="palegreen" stroke="black" d="M2107.5,-36C2107.5,-36 1872.5,-36 1872.5,-36 1866.5,-36 1860.5,-30 1860.5,-24 1860.5,-24 1860.5,-12 1860.5,-12 1860.5,-6 1866.5,0 1872.5,0 1872.5,0 2107.5,0 2107.5,0 2113.5,0 2119.5,-6 2119.5,-12 2119.5,-12 2119.5,-24 2119.5,-24 2119.5,-30 2113.5,-36 2107.5,-36"/>
<text text-anchor="middle" x="1990" y="-14.3" font-family="Arial" font-size="14.00">Illustrates food and oxygen as resources</text>
</g>
<!-- n5&#45;&gt;n10 -->
<g id="edge10" class="edge">
<title>n5&#45;&gt;n10</title>
<path fill="none" stroke="black" d="M1990,-121.81C1990,-102.11 1990,-69.58 1990,-46.39"/>
<polygon fill="black" stroke="black" points="1993.5,-46.16 1990,-36.16 1986.5,-46.16 1993.5,-46.16"/>
</g>
<!-- n11 -->
<g id="node12" class="node">
<title>n11</title>
<path fill="palegreen" stroke="black" d="M2477.5,-36C2477.5,-36 2232.5,-36 2232.5,-36 2226.5,-36 2220.5,-30 2220.5,-24 2220.5,-24 2220.5,-12 2220.5,-12 2220.5,-6 2226.5,0 2232.5,0 2232.5,0 2477.5,0 2477.5,0 2483.5,0 2489.5,-6 2489.5,-12 2489.5,-12 2489.5,-24 2489.5,-24 2489.5,-30 2483.5,-36 2477.5,-36"/>
<text text-anchor="middle" x="2355" y="-14.3" font-family="Arial" font-size="14.00">Labels rocks as habitat elements correctly</text>
</g>
<!-- n6&#45;&gt;n11 -->
<g id="edge11" class="edge">
<title>n6&#45;&gt;n11</title>
<path fill="none" stroke="black" d="M2355,-121.81C2355,-102.11 2355,-69.58 2355,-46.39"/>
<polygon fill="black" stroke="black" points="2358.5,-46.16 2355,-36.16 2351.5,-46.16 2358.5,-46.16"/>
</g>
</g>
</svg>
