<?xml version="1.0" encoding="UTF-8" standalone="no"?>
<!DOCTYPE svg PUBLIC "-//W3C//DTD SVG 1.1//EN"
 "http://www.w3.org/Graphics/SVG/1.1/DTD/svg11.dtd">
<!-- Generated by graphviz version 2.43.0 (0)
 -->
<!-- Pages: 1 -->
<svg width="1691pt" height="532pt"
 viewBox="0.00 0.00 1690.55 532.00" xmlns="http://www.w3.org/2000/svg" xmlns:xlink="http://www.w3.org/1999/xlink">
<g id="graph0" class="graph" transform="scale(1 1) rotate(0) translate(4 528)">
<polygon fill="white" stroke="transparent" points="-4,4 -4,-528 1686.55,-528 1686.55,4 -4,4"/>
<!-- n1 -->
<g id="node1" class="node">
<title>n1</title>
<polygon fill="lightblue" stroke="black" points="1080.32,-506 957.91,-524 713.09,-524 590.68,-506 713.09,-488 957.91,-488 1080.32,-506"/>
<text text-anchor="middle" x="835.5" y="-502.3" font-family="Arial" font-size="14.00">Draw a habitat and the different living things in each</text>
</g>
<!-- n2 -->
<g id="node2" class="node">
<title>n2</title>
<polygon fill="#fffdd0" stroke="black" points="922.5,-402 748.5,-402 748.5,-366 922.5,-366 922.5,-402"/>
<text text-anchor="middle" x="835.5" y="-380.3" font-family="Arial" font-size="14.00">Drawing of a forest habitat</text>
</g>
<!-- n1&#45;&gt;n2 -->
<g id="edge1" class="edge">
<title>n1&#45;&gt;n2</title>
<path fill="none" stroke="black" d="M835.5,-487.81C835.5,-468.11 835.5,-435.58 835.5,-412.39"/>
<polygon fill="black" stroke="black" points="839,-412.16 835.5,-402.16 832,-412.16 839,-412.16"/>
</g>
<!-- n3 -->
<g id="node3" class="node">
<title>n3</title>
<polygon fill="#fffdd0" stroke="black" points="273,-280 66,-280 66,-244 273,-244 273,-280"/>
<text text-anchor="middle" x="169.5" y="-258.3" font-family="Arial" font-size="14.00">Trees with branches and leaves</text>
</g>
<!-- n2&#45;&gt;n3 -->
<g id="edge2" class="edge">
<title>n2&#45;&gt;n3</title>
<path fill="none" stroke="black" d="M748.43,-367.31C626.44,-345.33 404.96,-305.42 274.15,-281.86"/>
<polygon fill="black" stroke="black" points="274.57,-278.38 264.11,-280.05 273.33,-285.27 274.57,-278.38"/>
</g>
<!-- n4 -->
<g id="node4" class="node">
<title>n4</title>
<polygon fill="#fffdd0" stroke="black" points="586,-280 345,-280 345,-244 586,-244 586,-280"/>
<text text-anchor="middle" x="465.5" y="-258.3" font-family="Arial" font-size="14.00">Small, simplified drawing of a squirrel</text>
</g>
<!-- n2&#45;&gt;n4 -->
<g id="edge3" class="edge">
<title>n2&#45;&gt;n4</title>
<path fill="none" stroke="black" d="M782.88,-365.93C715.62,-344.12 599.32,-306.4 527.73,-283.18"/>
<polygon fill="black" stroke="black" points="528.53,-279.76 517.94,-280.01 526.38,-286.42 528.53,-279.76"/>
</g>
<!-- n5 -->
<g id="node5" class="node">
<title>n5</title>
<polygon fill="#fffdd0" stroke="black" points="988,-280 885,-280 885,-244 988,-244 988,-280"/>
<text text-anchor="middle" x="936.5" y="-258.3" font-family="Arial" font-size="14.00">Patch of grass</text>
</g>
<!-- n2&#45;&gt;n5 -->
<g id="edge4" class="edge">
<title>n2&#45;&gt;n5</title>
<path fill="none" stroke="black" d="M849.97,-365.81C867.15,-345.4 895.92,-311.21 915.54,-287.91"/>
<polygon fill="black" stroke="black" points="918.3,-290.07 922.06,-280.16 912.94,-285.56 918.3,-290.07"/>
</g>
<!-- n6 -->
<g id="node6" class="node">
<title>n6</title>
<polygon fill="#fffdd0" stroke="black" points="826.5,-280 644.5,-280 644.5,-244 826.5,-244 826.5,-280"/>
<text text-anchor="middle" x="735.5" y="-258.3" font-family="Arial" font-size="14.00">Small outline of a flying bird</text>
</g>
<!-- n2&#45;&gt;n6 -->
<g id="edge5" class="edge">
<title>n2&#45;&gt;n6</title>
<path fill="none" stroke="black" d="M821.17,-365.81C804.17,-345.4 775.68,-311.21 756.26,-287.91"/>
<polygon fill="black" stroke="black" points="758.89,-285.6 749.8,-280.16 753.51,-290.08 758.89,-285.6"/>
</g>
<!-- n7 -->
<g id="node7" class="node">
<title>n7</title>
<polygon fill="#fffdd0" stroke="black" points="1216.5,-280 1046.5,-280 1046.5,-244 1216.5,-244 1216.5,-280"/>
<text text-anchor="middle" x="1131.5" y="-258.3" font-family="Arial" font-size="14.00">Labels: &#39;Tree&#39; and &#39;Grass&#39;</text>
</g>
<!-- n2&#45;&gt;n7 -->
<g id="edge6" class="edge">
<title>n2&#45;&gt;n7</title>
<path fill="none" stroke="black" d="M877.6,-365.93C930.86,-344.34 1022.5,-307.17 1079.9,-283.9"/>
<polygon fill="black" stroke="black" points="1081.55,-287.01 1089.5,-280.01 1078.92,-280.52 1081.55,-287.01"/>
</g>
<!-- n11 -->
<g id="node8" class="node">
<title>n11</title>
<polygon fill="lightcoral" stroke="black" points="1478.5,-280 1274.39,-262 1478.5,-244 1682.61,-262 1478.5,-280"/>
<text text-anchor="middle" x="1478.5" y="-258.3" font-family="Arial" font-size="14.00">Limited diversity shown in drawing</text>
</g>
<!-- n2&#45;&gt;n11 -->
<g id="edge7" class="edge">
<title>n2&#45;&gt;n11</title>
<path fill="none" stroke="black" d="M922.55,-366.75C1050.6,-342.86 1287.3,-298.69 1406.2,-276.49"/>
<polygon fill="black" stroke="black" points="1407.11,-279.88 1416.3,-274.6 1405.83,-273 1407.11,-279.88"/>
</g>
<!-- n8 -->
<g id="node9" class="node">
<title>n8</title>
<path fill="palegreen" stroke="black" d="M269,-158C269,-158 12,-158 12,-158 6,-158 0,-152 0,-146 0,-146 0,-134 0,-134 0,-128 6,-122 12,-122 12,-122 269,-122 269,-122 275,-122 281,-128 281,-134 281,-134 281,-146 281,-146 281,-152 275,-158 269,-158"/>
<text text-anchor="middle" x="140.5" y="-136.3" font-family="Arial" font-size="14.00">Makes correct connection with forest habitat</text>
</g>
<!-- n3&#45;&gt;n8 -->
<g id="edge8" class="edge">
<title>n3&#45;&gt;n8</title>
<path fill="none" stroke="black" d="M165.35,-243.81C160.56,-224.02 152.65,-191.29 147.04,-168.08"/>
<polygon fill="black" stroke="black" points="150.39,-167.06 144.65,-158.16 143.59,-168.7 150.39,-167.06"/>
</g>
<!-- n10 -->
<g id="node10" class="node">
<title>n10</title>
<polygon fill="lightcoral" stroke="black" points="544.5,-158 338.5,-140 544.5,-122 750.5,-140 544.5,-158"/>
<text text-anchor="middle" x="544.5" y="-136.3" font-family="Arial" font-size="14.00">Some uncertainty labeling animals</text>
</g>
<!-- n4&#45;&gt;n10 -->
<g id="edge9" class="edge">
<title>n4&#45;&gt;n10</title>
<path fill="none" stroke="black" d="M476.82,-243.81C490.23,-223.44 512.68,-189.34 528.01,-166.04"/>
<polygon fill="black" stroke="black" points="531.13,-167.67 533.71,-157.39 525.29,-163.81 531.13,-167.67"/>
</g>
<!-- n9 -->
<g id="node11" class="node">
<title>n9</title>
<path fill="palegreen" stroke="black" d="M1082.5,-158C1082.5,-158 820.5,-158 820.5,-158 814.5,-158 808.5,-152 808.5,-146 808.5,-146 808.5,-134 808.5,-134 808.5,-128 814.5,-122 820.5,-122 820.5,-122 1082.5,-122 1082.5,-122 1088.5,-122 1094.5,-128 1094.5,-134 1094.5,-134 1094.5,-146 1094.5,-146 1094.5,-152 1088.5,-158 1082.5,-158"/>
<text text-anchor="middle" x="951.5" y="-136.3" font-family="Arial" font-size="14.00">Identifies basic elements like trees and grass</text>
</g>
<!-- n5&#45;&gt;n9 -->
<g id="edge10" class="edge">
<title>n5&#45;&gt;n9</title>
<path fill="none" stroke="black" d="M938.65,-243.81C941.11,-224.11 945.18,-191.58 948.08,-168.39"/>
<polygon fill="black" stroke="black" points="951.59,-168.52 949.35,-158.16 944.64,-167.65 951.59,-168.52"/>
</g>
<!-- n6&#45;&gt;n10 -->
<g id="edge11" class="edge">
<title>n6&#45;&gt;n10</title>
<path fill="none" stroke="black" d="M708.13,-243.81C673.62,-222.12 614.32,-184.86 577.38,-161.66"/>
<polygon fill="black" stroke="black" points="578.83,-158.44 568.5,-156.08 575.1,-164.36 578.83,-158.44"/>
</g>
<!-- n13 -->
<g id="node12" class="node">
<title>n13</title>
<polygon fill="#f28e8e" stroke="black" points="1656,-158 1301,-158 1301,-122 1656,-122 1656,-158"/>
<text text-anchor="middle" x="1478.5" y="-136.3" font-family="Arial" font-size="14.00">Include more diverse living things in drawings of habitats</text>
</g>
<!-- n11&#45;&gt;n13 -->
<g id="edge12" class="edge">
<title>n11&#45;&gt;n13</title>
<path fill="none" stroke="black" d="M1478.5,-243.81C1478.5,-224.11 1478.5,-191.58 1478.5,-168.39"/>
<polygon fill="black" stroke="black" points="1482,-168.16 1478.5,-158.16 1475,-168.16 1482,-168.16"/>
</g>
<!-- n12 -->
<g id="node13" class="node">
<title>n12</title>
<polygon fill="#f28e8e" stroke="black" points="710,-36 379,-36 379,0 710,0 710,-36"/>
<text text-anchor="middle" x="544.5" y="-14.3" font-family="Arial" font-size="14.00">Encourage labeling animals to improve classification</text>
</g>
<!-- n10&#45;&gt;n12 -->
<g id="edge13" class="edge">
<title>n10&#45;&gt;n12</title>
<path fill="none" stroke="black" d="M544.5,-121.81C544.5,-102.11 544.5,-69.58 544.5,-46.39"/>
<polygon fill="black" stroke="black" points="548,-46.16 544.5,-36.16 541,-46.16 548,-46.16"/>
</g>
</g>
</svg>
