<?xml version="1.0" encoding="UTF-8" standalone="no"?>
<!DOCTYPE svg PUBLIC "-//W3C//DTD SVG 1.1//EN"
 "http://www.w3.org/Graphics/SVG/1.1/DTD/svg11.dtd">
<!-- Generated by graphviz version 2.43.0 (0)
 -->
<!-- Pages: 1 -->
<svg width="1542pt" height="410pt"
 viewBox="0.00 0.00 1541.50 410.00" xmlns="http://www.w3.org/2000/svg" xmlns:xlink="http://www.w3.org/1999/xlink">
<g id="graph0" class="graph" transform="scale(1 1) rotate(0) translate(4 406)">
<polygon fill="white" stroke="transparent" points="-4,4 -4,-406 1537.5,-406 1537.5,4 -4,4"/>
<!-- n1 -->
<g id="node1" class="node">
<title>n1</title>
<polygon fill="lightblue" stroke="black" points="1095,-384 964.75,-402 704.25,-402 574,-384 704.25,-366 964.75,-366 1095,-384"/>
<text text-anchor="middle" x="834.5" y="-380.3" font-family="Arial" font-size="14.00">Draw two habitats and the different living things in each</text>
</g>
<!-- n2 -->
<g id="node2" class="node">
<title>n2</title>
<polygon fill="#fffdd0" stroke="black" points="798.5,-280 622.5,-280 622.5,-244 798.5,-244 798.5,-280"/>
<text text-anchor="middle" x="710.5" y="-258.3" font-family="Arial" font-size="14.00">Garden with Tree and Bird</text>
</g>
<!-- n1&#45;&gt;n2 -->
<g id="edge1" class="edge">
<title>n1&#45;&gt;n2</title>
<path fill="none" stroke="black" d="M816.73,-365.81C795.46,-345.22 759.7,-310.61 735.61,-287.3"/>
<polygon fill="black" stroke="black" points="737.85,-284.6 728.23,-280.16 732.98,-289.63 737.85,-284.6"/>
</g>
<!-- n3 -->
<g id="node3" class="node">
<title>n3</title>
<polygon fill="#fffdd0" stroke="black" points="1062.5,-280 856.5,-280 856.5,-244 1062.5,-244 1062.5,-280"/>
<text text-anchor="middle" x="959.5" y="-258.3" font-family="Arial" font-size="14.00">Pond with Fish and Water Plant</text>
</g>
<!-- n1&#45;&gt;n3 -->
<g id="edge2" class="edge">
<title>n1&#45;&gt;n3</title>
<path fill="none" stroke="black" d="M852.41,-365.81C873.85,-345.22 909.9,-310.61 934.19,-287.3"/>
<polygon fill="black" stroke="black" points="936.83,-289.61 941.62,-280.16 931.98,-284.57 936.83,-289.61"/>
</g>
<!-- n4 -->
<g id="node4" class="node">
<title>n4</title>
<path fill="palegreen" stroke="black" d="M1155,-158C1155,-158 928,-158 928,-158 922,-158 916,-152 916,-146 916,-146 916,-134 916,-134 916,-128 922,-122 928,-122 928,-122 1155,-122 1155,-122 1161,-122 1167,-128 1167,-134 1167,-134 1167,-146 1167,-146 1167,-152 1161,-158 1155,-158"/>
<text text-anchor="middle" x="1041.5" y="-136.3" font-family="Arial" font-size="14.00">Identifies land habitat and water habitat</text>
</g>
<!-- n2&#45;&gt;n4 -->
<g id="edge3" class="edge">
<title>n2&#45;&gt;n4</title>
<path fill="none" stroke="black" d="M757.57,-243.93C817.5,-222.21 920.93,-184.71 985.04,-161.47"/>
<polygon fill="black" stroke="black" points="986.38,-164.71 994.59,-158.01 984,-158.13 986.38,-164.71"/>
</g>
<!-- n5 -->
<g id="node5" class="node">
<title>n5</title>
<path fill="palegreen" stroke="black" d="M1521.5,-158C1521.5,-158 1237.5,-158 1237.5,-158 1231.5,-158 1225.5,-152 1225.5,-146 1225.5,-146 1225.5,-134 1225.5,-134 1225.5,-128 1231.5,-122 1237.5,-122 1237.5,-122 1521.5,-122 1521.5,-122 1527.5,-122 1533.5,-128 1533.5,-134 1533.5,-134 1533.5,-146 1533.5,-146 1533.5,-152 1527.5,-158 1521.5,-158"/>
<text text-anchor="middle" x="1379.5" y="-136.3" font-family="Arial" font-size="14.00">Draws different living things: tree, bird, fish, plant</text>
</g>
<!-- n2&#45;&gt;n5 -->
<g id="edge4" class="edge">
<title>n2&#45;&gt;n5</title>
<path fill="none" stroke="black" d="M798.65,-245.19C921.41,-223.17 1143.5,-183.33 1274.6,-159.81"/>
<polygon fill="black" stroke="black" points="1275.47,-163.21 1284.7,-158.01 1274.24,-156.32 1275.47,-163.21"/>
</g>
<!-- n6 -->
<g id="node6" class="node">
<title>n6</title>
<path fill="palegreen" stroke="black" d="M331,-158C331,-158 12,-158 12,-158 6,-158 0,-152 0,-146 0,-146 0,-134 0,-134 0,-128 6,-122 12,-122 12,-122 331,-122 331,-122 337,-122 343,-128 343,-134 343,-134 343,-146 343,-146 343,-152 337,-158 331,-158"/>
<text text-anchor="middle" x="171.5" y="-136.3" font-family="Arial" font-size="14.00">Shows biodiversity: different organisms in each habitat</text>
</g>
<!-- n2&#45;&gt;n6 -->
<g id="edge5" class="edge">
<title>n2&#45;&gt;n6</title>
<path fill="none" stroke="black" d="M634.13,-244C534.82,-221.89 361.79,-183.37 257.82,-160.22"/>
<polygon fill="black" stroke="black" points="258.5,-156.79 247.98,-158.03 256.98,-163.62 258.5,-156.79"/>
</g>
<!-- n7 -->
<g id="node7" class="node">
<title>n7</title>
<polygon fill="lightcoral" stroke="black" points="629.5,-158 400.5,-140 629.5,-122 858.5,-140 629.5,-158"/>
<text text-anchor="middle" x="629.5" y="-136.3" font-family="Arial" font-size="14.00">Inaccurate or unclear labels placement</text>
</g>
<!-- n2&#45;&gt;n7 -->
<g id="edge6" class="edge">
<title>n2&#45;&gt;n7</title>
<path fill="none" stroke="black" d="M698.89,-243.81C685.09,-223.35 661.93,-189.04 646.19,-165.73"/>
<polygon fill="black" stroke="black" points="649.06,-163.72 640.56,-157.39 643.25,-167.64 649.06,-163.72"/>
</g>
<!-- n3&#45;&gt;n4 -->
<g id="edge7" class="edge">
<title>n3&#45;&gt;n4</title>
<path fill="none" stroke="black" d="M971.25,-243.81C985.07,-223.58 1008.1,-189.81 1024.1,-166.52"/>
<polygon fill="black" stroke="black" points="1027.06,-168.39 1029.8,-158.16 1021.27,-164.45 1027.06,-168.39"/>
</g>
<!-- n3&#45;&gt;n5 -->
<g id="edge8" class="edge">
<title>n3&#45;&gt;n5</title>
<path fill="none" stroke="black" d="M1019.2,-243.93C1096.1,-221.99 1229.2,-183.94 1310.3,-160.76"/>
<polygon fill="black" stroke="black" points="1311.33,-164.1 1320,-158.01 1309.42,-157.37 1311.33,-164.1"/>
</g>
<!-- n3&#45;&gt;n6 -->
<g id="edge9" class="edge">
<title>n3&#45;&gt;n6</title>
<path fill="none" stroke="black" d="M856.48,-245.31C711.57,-223.24 447.98,-183.1 293.46,-159.57"/>
<polygon fill="black" stroke="black" points="293.86,-156.09 283.45,-158.05 292.81,-163.01 293.86,-156.09"/>
</g>
<!-- n3&#45;&gt;n7 -->
<g id="edge10" class="edge">
<title>n3&#45;&gt;n7</title>
<path fill="none" stroke="black" d="M912.57,-243.93C850.24,-221.27 740.72,-181.44 677.74,-158.54"/>
<polygon fill="black" stroke="black" points="678.63,-155.14 668.04,-155.02 676.25,-161.72 678.63,-155.14"/>
</g>
<!-- n8 -->
<g id="node8" class="node">
<title>n8</title>
<polygon fill="#f28e8e" stroke="black" points="744.5,-36 514.5,-36 514.5,0 744.5,0 744.5,-36"/>
<text text-anchor="middle" x="629.5" y="-14.3" font-family="Arial" font-size="14.00">Improve label clarity and placement</text>
</g>
<!-- n7&#45;&gt;n8 -->
<g id="edge11" class="edge">
<title>n7&#45;&gt;n8</title>
<path fill="none" stroke="black" d="M629.5,-121.81C629.5,-102.11 629.5,-69.58 629.5,-46.39"/>
<polygon fill="black" stroke="black" points="633,-46.16 629.5,-36.16 626,-46.16 633,-46.16"/>
</g>
</g>
</svg>
