<?xml version="1.0" encoding="UTF-8" standalone="no"?>
<!DOCTYPE svg PUBLIC "-//W3C//DTD SVG 1.1//EN"
 "http://www.w3.org/Graphics/SVG/1.1/DTD/svg11.dtd">
<!-- Generated by graphviz version 2.43.0 (0)
 -->
<!-- Pages: 1 -->
<svg width="1579pt" height="410pt"
 viewBox="0.00 0.00 1578.50 410.00" xmlns="http://www.w3.org/2000/svg" xmlns:xlink="http://www.w3.org/1999/xlink">
<g id="graph0" class="graph" transform="scale(1 1) rotate(0) translate(4 406)">
<polygon fill="white" stroke="transparent" points="-4,4 -4,-406 1574.5,-406 1574.5,4 -4,4"/>
<!-- n1 -->
<g id="node1" class="node">
<title>n1</title>
<polygon fill="lightblue" stroke="black" points="766,-384 674.75,-402 492.25,-402 401,-384 492.25,-366 674.75,-366 766,-384"/>
<text text-anchor="middle" x="583.5" y="-380.3" font-family="Arial" font-size="14.00">Draw reversible changes (ice melting)</text>
</g>
<!-- n2 -->
<g id="node2" class="node">
<title>n2</title>
<polygon fill="#fffdd0" stroke="black" points="257,-280 42,-280 42,-244 257,-244 257,-280"/>
<text text-anchor="middle" x="149.5" y="-258.3" font-family="Arial" font-size="14.00">Ice block drawn in blue (solid ice)</text>
</g>
<!-- n1&#45;&gt;n2 -->
<g id="edge1" class="edge">
<title>n1&#45;&gt;n2</title>
<path fill="none" stroke="black" d="M521.78,-365.93C442.32,-343.96 304.51,-305.86 220.7,-282.69"/>
<polygon fill="black" stroke="black" points="221.58,-279.3 211.01,-280.01 219.72,-286.05 221.58,-279.3"/>
</g>
<!-- n3 -->
<g id="node3" class="node">
<title>n3</title>
<polygon fill="#fffdd0" stroke="black" points="577,-280 318,-280 318,-244 577,-244 577,-280"/>
<text text-anchor="middle" x="447.5" y="-258.3" font-family="Arial" font-size="14.00">Wavy line drawing of water (liquid water)</text>
</g>
<!-- n1&#45;&gt;n3 -->
<g id="edge2" class="edge">
<title>n1&#45;&gt;n3</title>
<path fill="none" stroke="black" d="M564.01,-365.81C540.58,-345.13 501.12,-310.31 474.7,-287"/>
<polygon fill="black" stroke="black" points="476.76,-284.15 466.95,-280.16 472.13,-289.4 476.76,-284.15"/>
</g>
<!-- n4 -->
<g id="node4" class="node">
<title>n4</title>
<polygon fill="#fffdd0" stroke="black" points="885,-280 714,-280 714,-244 885,-244 885,-280"/>
<text text-anchor="middle" x="799.5" y="-258.3" font-family="Arial" font-size="14.00">Arrow indicating transition</text>
</g>
<!-- n1&#45;&gt;n4 -->
<g id="edge3" class="edge">
<title>n1&#45;&gt;n4</title>
<path fill="none" stroke="black" d="M614.45,-365.81C652.7,-344.55 717.87,-308.35 759.78,-285.07"/>
<polygon fill="black" stroke="black" points="761.57,-288.08 768.61,-280.16 758.17,-281.96 761.57,-288.08"/>
</g>
<!-- n5 -->
<g id="node5" class="node">
<title>n5</title>
<polygon fill="#fffdd0" stroke="black" points="1303.5,-280 1121.5,-280 1121.5,-244 1303.5,-244 1303.5,-280"/>
<text text-anchor="middle" x="1212.5" y="-258.3" font-family="Arial" font-size="14.00">&#39;freezes back&#39; and an arrow</text>
</g>
<!-- n1&#45;&gt;n5 -->
<g id="edge4" class="edge">
<title>n1&#45;&gt;n5</title>
<path fill="none" stroke="black" d="M672.62,-366C788.98,-343.8 992.07,-305.05 1113.2,-281.94"/>
<polygon fill="black" stroke="black" points="1114.12,-285.33 1123.3,-280.03 1112.82,-278.45 1114.12,-285.33"/>
</g>
<!-- n6 -->
<g id="node6" class="node">
<title>n6</title>
<path fill="palegreen" stroke="black" d="M201,-158C201,-158 12,-158 12,-158 6,-158 0,-152 0,-146 0,-146 0,-134 0,-134 0,-128 6,-122 12,-122 12,-122 201,-122 201,-122 207,-122 213,-128 213,-134 213,-134 213,-146 213,-146 213,-152 207,-158 201,-158"/>
<text text-anchor="middle" x="106.5" y="-136.3" font-family="Arial" font-size="14.00">Understands ice melts into water</text>
</g>
<!-- n2&#45;&gt;n6 -->
<g id="edge5" class="edge">
<title>n2&#45;&gt;n6</title>
<path fill="none" stroke="black" d="M143.34,-243.81C136.22,-223.94 124.41,-190.99 116.09,-167.76"/>
<polygon fill="black" stroke="black" points="119.32,-166.39 112.65,-158.16 112.73,-168.75 119.32,-166.39"/>
</g>
<!-- n7 -->
<g id="node7" class="node">
<title>n7</title>
<path fill="palegreen" stroke="black" d="M534,-158C534,-158 283,-158 283,-158 277,-158 271,-152 271,-146 271,-146 271,-134 271,-134 271,-128 277,-122 283,-122 283,-122 534,-122 534,-122 540,-122 546,-128 546,-134 546,-134 546,-146 546,-146 546,-152 540,-158 534,-158"/>
<text text-anchor="middle" x="408.5" y="-136.3" font-family="Arial" font-size="14.00">Understands water can freeze back into ice</text>
</g>
<!-- n3&#45;&gt;n7 -->
<g id="edge6" class="edge">
<title>n3&#45;&gt;n7</title>
<path fill="none" stroke="black" d="M441.91,-243.81C435.45,-223.94 424.75,-190.99 417.2,-167.76"/>
<polygon fill="black" stroke="black" points="420.5,-166.59 414.08,-158.16 413.84,-168.75 420.5,-166.59"/>
</g>
<!-- n8 -->
<g id="node8" class="node">
<title>n8</title>
<polygon fill="lightcoral" stroke="black" points="839.5,-158 604,-140 839.5,-122 1075,-140 839.5,-158"/>
<text text-anchor="middle" x="839.5" y="-136.3" font-family="Arial" font-size="14.00">Misunderstands the direction of process</text>
</g>
<!-- n4&#45;&gt;n8 -->
<g id="edge7" class="edge">
<title>n4&#45;&gt;n8</title>
<path fill="none" stroke="black" d="M805.23,-243.81C811.89,-223.82 822.96,-190.62 830.71,-167.37"/>
<polygon fill="black" stroke="black" points="834.07,-168.36 833.91,-157.77 827.43,-166.15 834.07,-168.36"/>
</g>
<!-- n9 -->
<g id="node9" class="node">
<title>n9</title>
<polygon fill="lightcoral" stroke="black" points="1351.5,-158 1132.5,-140 1351.5,-122 1570.5,-140 1351.5,-158"/>
<text text-anchor="middle" x="1351.5" y="-136.3" font-family="Arial" font-size="14.00">Incorrect/incomplete cycle illustration</text>
</g>
<!-- n5&#45;&gt;n9 -->
<g id="edge8" class="edge">
<title>n5&#45;&gt;n9</title>
<path fill="none" stroke="black" d="M1232.4,-243.81C1256.9,-222.66 1298.5,-186.72 1325.5,-163.43"/>
<polygon fill="black" stroke="black" points="1328.1,-165.81 1333.4,-156.63 1323.54,-160.5 1328.1,-165.81"/>
</g>
<!-- n10 -->
<g id="node10" class="node">
<title>n10</title>
<polygon fill="#f28e8e" stroke="black" points="975,-36 704,-36 704,0 975,0 975,-36"/>
<text text-anchor="middle" x="839.5" y="-14.3" font-family="Arial" font-size="14.00">Clarify heating/cooling effects on materials</text>
</g>
<!-- n8&#45;&gt;n10 -->
<g id="edge9" class="edge">
<title>n8&#45;&gt;n10</title>
<path fill="none" stroke="black" d="M839.5,-121.81C839.5,-102.11 839.5,-69.58 839.5,-46.39"/>
<polygon fill="black" stroke="black" points="843,-46.16 839.5,-36.16 836,-46.16 843,-46.16"/>
</g>
<!-- n11 -->
<g id="node11" class="node">
<title>n11</title>
<polygon fill="#f28e8e" stroke="black" points="1468.5,-36 1234.5,-36 1234.5,0 1468.5,0 1468.5,-36"/>
<text text-anchor="middle" x="1351.5" y="-14.3" font-family="Arial" font-size="14.00">Illustrate non&#45;reversible changes too</text>
</g>
<!-- n9&#45;&gt;n11 -->
<g id="edge10" class="edge">
<title>n9&#45;&gt;n11</title>
<path fill="none" stroke="black" d="M1351.5,-121.81C1351.5,-102.11 1351.5,-69.58 1351.5,-46.39"/>
<polygon fill="black" stroke="black" points="1355,-46.16 1351.5,-36.16 1348,-46.16 1355,-46.16"/>
</g>
</g>
</svg>
