<?xml version="1.0" encoding="UTF-8" standalone="no"?>
<!DOCTYPE svg PUBLIC "-//W3C//DTD SVG 1.1//EN"
 "http://www.w3.org/Graphics/SVG/1.1/DTD/svg11.dtd">
<!-- Generated by graphviz version 2.43.0 (0)
 -->
<!-- Pages: 1 -->
<svg width="2074pt" height="410pt"
 viewBox="0.00 0.00 2074.00 410.00" xmlns="http://www.w3.org/2000/svg" xmlns:xlink="http://www.w3.org/1999/xlink">
<g id="graph0" class="graph" transform="scale(1 1) rotate(0) translate(4 406)">
<polygon fill="white" stroke="transparent" points="-4,4 -4,-406 2070,-406 2070,4 -4,4"/>
<!-- n1 -->
<g id="node1" class="node">
<title>n1</title>
<polygon fill="lightblue" stroke="black" points="1097.82,-384 975.41,-402 730.59,-402 608.18,-384 730.59,-366 975.41,-366 1097.82,-384"/>
<text text-anchor="middle" x="853" y="-380.3" font-family="Arial" font-size="14.00">Draw a habitat and the different living things in each</text>
</g>
<!-- n2 -->
<g id="node2" class="node">
<title>n2</title>
<polygon fill="#fffdd0" stroke="black" points="561,-280 191,-280 191,-244 561,-244 561,-280"/>
<text text-anchor="middle" x="376" y="-258.3" font-family="Arial" font-size="14.00">Illustration of a forest with trees, deer, robins, fish in stream</text>
</g>
<!-- n1&#45;&gt;n2 -->
<g id="edge1" class="edge">
<title>n1&#45;&gt;n2</title>
<path fill="none" stroke="black" d="M785.42,-366C697.88,-343.98 545.63,-305.68 453.51,-282.5"/>
<polygon fill="black" stroke="black" points="454.23,-279.07 443.68,-280.03 452.53,-285.86 454.23,-279.07"/>
</g>
<!-- n3 -->
<g id="node3" class="node">
<title>n3</title>
<polygon fill="#fffdd0" stroke="black" points="1084.5,-280 621.5,-280 621.5,-244 1084.5,-244 1084.5,-280"/>
<text text-anchor="middle" x="853" y="-258.3" font-family="Arial" font-size="14.00">Illustration of a pond with lily pads, ducks, frogs, dragonflies, reeds, cattails</text>
</g>
<!-- n1&#45;&gt;n3 -->
<g id="edge2" class="edge">
<title>n1&#45;&gt;n3</title>
<path fill="none" stroke="black" d="M853,-365.81C853,-346.11 853,-313.58 853,-290.39"/>
<polygon fill="black" stroke="black" points="856.5,-290.16 853,-280.16 849.5,-290.16 856.5,-290.16"/>
</g>
<!-- n4 -->
<g id="node4" class="node">
<title>n4</title>
<polygon fill="#fffdd0" stroke="black" points="1939,-280 1495,-280 1495,-244 1939,-244 1939,-280"/>
<text text-anchor="middle" x="1717" y="-258.3" font-family="Arial" font-size="14.00">Illustration of a garden with flowers, bees, butterflies, earthworms in soil</text>
</g>
<!-- n1&#45;&gt;n4 -->
<g id="edge3" class="edge">
<title>n1&#45;&gt;n4</title>
<path fill="none" stroke="black" d="M975.41,-366C1136.4,-343.64 1418.1,-304.51 1584.1,-281.45"/>
<polygon fill="black" stroke="black" points="1584.97,-284.86 1594.4,-280.03 1584.02,-277.93 1584.97,-284.86"/>
</g>
<!-- n5 -->
<g id="node5" class="node">
<title>n5</title>
<path fill="palegreen" stroke="black" d="M382,-158C382,-158 12,-158 12,-158 6,-158 0,-152 0,-146 0,-146 0,-134 0,-134 0,-128 6,-122 12,-122 12,-122 382,-122 382,-122 388,-122 394,-128 394,-134 394,-134 394,-146 394,-146 394,-152 388,-158 382,-158"/>
<text text-anchor="middle" x="197" y="-136.3" font-family="Arial" font-size="14.00">Correct depiction of diverse plants and animals in forest habitat</text>
</g>
<!-- n2&#45;&gt;n5 -->
<g id="edge4" class="edge">
<title>n2&#45;&gt;n5</title>
<path fill="none" stroke="black" d="M350.35,-243.81C318.98,-222.78 265.78,-187.11 231.01,-163.8"/>
<polygon fill="black" stroke="black" points="232.85,-160.82 222.6,-158.16 228.96,-166.64 232.85,-160.82"/>
</g>
<!-- n6 -->
<g id="node6" class="node">
<title>n6</title>
<path fill="palegreen" stroke="black" d="M889.5,-158C889.5,-158 464.5,-158 464.5,-158 458.5,-158 452.5,-152 452.5,-146 452.5,-146 452.5,-134 452.5,-134 452.5,-128 458.5,-122 464.5,-122 464.5,-122 889.5,-122 889.5,-122 895.5,-122 901.5,-128 901.5,-134 901.5,-134 901.5,-146 901.5,-146 901.5,-152 895.5,-158 889.5,-158"/>
<text text-anchor="middle" x="677" y="-136.3" font-family="Arial" font-size="14.00">Correct depiction of diverse aquatic life and surroundings in pond habitat</text>
</g>
<!-- n3&#45;&gt;n6 -->
<g id="edge5" class="edge">
<title>n3&#45;&gt;n6</title>
<path fill="none" stroke="black" d="M827.78,-243.81C796.94,-222.78 744.62,-187.11 710.44,-163.8"/>
<polygon fill="black" stroke="black" points="712.4,-160.9 702.17,-158.16 708.46,-166.69 712.4,-160.9"/>
</g>
<!-- n8 -->
<g id="node7" class="node">
<title>n8</title>
<polygon fill="lightcoral" stroke="black" points="1312,-158 959.93,-140 1312,-122 1664.07,-140 1312,-158"/>
<text text-anchor="middle" x="1312" y="-136.3" font-family="Arial" font-size="14.00">Potential mislabeling of pond vegetation as reeds and cattails</text>
</g>
<!-- n3&#45;&gt;n8 -->
<g id="edge6" class="edge">
<title>n3&#45;&gt;n8</title>
<path fill="none" stroke="black" d="M918.28,-243.93C1005.9,-221.04 1160.4,-180.62 1247.6,-157.84"/>
<polygon fill="black" stroke="black" points="1248.6,-161.2 1257.4,-155.29 1246.84,-154.42 1248.6,-161.2"/>
</g>
<!-- n7 -->
<g id="node8" class="node">
<title>n7</title>
<path fill="palegreen" stroke="black" d="M2054,-158C2054,-158 1734,-158 1734,-158 1728,-158 1722,-152 1722,-146 1722,-146 1722,-134 1722,-134 1722,-128 1728,-122 1734,-122 1734,-122 2054,-122 2054,-122 2060,-122 2066,-128 2066,-134 2066,-134 2066,-146 2066,-146 2066,-152 2060,-158 2054,-158"/>
<text text-anchor="middle" x="1894" y="-136.3" font-family="Arial" font-size="14.00">Correct depiction of diverse life forms in garden habitat</text>
</g>
<!-- n4&#45;&gt;n7 -->
<g id="edge7" class="edge">
<title>n4&#45;&gt;n7</title>
<path fill="none" stroke="black" d="M1742.4,-243.81C1773.4,-222.78 1826,-187.11 1860.4,-163.8"/>
<polygon fill="black" stroke="black" points="1862.4,-166.68 1868.7,-158.16 1858.46,-160.89 1862.4,-166.68"/>
</g>
<!-- n9 -->
<g id="node9" class="node">
<title>n9</title>
<polygon fill="#f28e8e" stroke="black" points="1457,-36 1167,-36 1167,0 1457,0 1457,-36"/>
<text text-anchor="middle" x="1312" y="-14.3" font-family="Arial" font-size="14.00">Verify correct identification of reeds vs cattails</text>
</g>
<!-- n8&#45;&gt;n9 -->
<g id="edge8" class="edge">
<title>n8&#45;&gt;n9</title>
<path fill="none" stroke="black" d="M1312,-121.81C1312,-102.11 1312,-69.58 1312,-46.39"/>
<polygon fill="black" stroke="black" points="1315.5,-46.16 1312,-36.16 1308.5,-46.16 1315.5,-46.16"/>
</g>
</g>
</svg>
