<?xml version="1.0" encoding="UTF-8" standalone="no"?>
<!DOCTYPE svg PUBLIC "-//W3C//DTD SVG 1.1//EN"
 "http://www.w3.org/Graphics/SVG/1.1/DTD/svg11.dtd">
<!-- Generated by graphviz version 2.43.0 (0)
 -->
<!-- Pages: 1 -->
<svg width="1380pt" height="410pt"
 viewBox="0.00 0.00 1379.72 410.00" xmlns="http://www.w3.org/2000/svg" xmlns:xlink="http://www.w3.org/1999/xlink">
<g id="graph0" class="graph" transform="scale(1 1) rotate(0) translate(4 406)">
<polygon fill="white" stroke="transparent" points="-4,4 -4,-406 1375.72,-406 1375.72,4 -4,4"/>
<!-- n1 -->
<g id="node1" class="node">
<title>n1</title>
<polygon fill="lightblue" stroke="black" points="690,-384 559.75,-402 299.25,-402 169,-384 299.25,-366 559.75,-366 690,-384"/>
<text text-anchor="middle" x="429.5" y="-380.3" font-family="Arial" font-size="14.00">Draw two habitats and the different living things in each</text>
</g>
<!-- n2 -->
<g id="node2" class="node">
<title>n2</title>
<polygon fill="#fffdd0" stroke="black" points="412,-280 123,-280 123,-244 412,-244 412,-280"/>
<text text-anchor="middle" x="267.5" y="-258.3" font-family="Arial" font-size="14.00">Vibrant forest with diverse plants and animals</text>
</g>
<!-- n1&#45;&gt;n2 -->
<g id="edge1" class="edge">
<title>n1&#45;&gt;n2</title>
<path fill="none" stroke="black" d="M406.29,-365.81C378.14,-344.96 330.56,-309.71 299.09,-286.4"/>
<polygon fill="black" stroke="black" points="300.79,-283.3 290.67,-280.16 296.62,-288.93 300.79,-283.3"/>
</g>
<!-- n3 -->
<g id="node3" class="node">
<title>n3</title>
<polygon fill="#fffdd0" stroke="black" points="713,-280 470,-280 470,-244 713,-244 713,-280"/>
<text text-anchor="middle" x="591.5" y="-258.3" font-family="Arial" font-size="14.00">Ocean habitat with various marine life</text>
</g>
<!-- n1&#45;&gt;n3 -->
<g id="edge2" class="edge">
<title>n1&#45;&gt;n3</title>
<path fill="none" stroke="black" d="M452.71,-365.81C480.86,-344.96 528.44,-309.71 559.91,-286.4"/>
<polygon fill="black" stroke="black" points="562.38,-288.93 568.33,-280.16 558.21,-283.3 562.38,-288.93"/>
</g>
<!-- n4 -->
<g id="node4" class="node">
<title>n4</title>
<path fill="palegreen" stroke="black" d="M239,-158C239,-158 12,-158 12,-158 6,-158 0,-152 0,-146 0,-146 0,-134 0,-134 0,-128 6,-122 12,-122 12,-122 239,-122 239,-122 245,-122 251,-128 251,-134 251,-134 251,-146 251,-146 251,-152 245,-158 239,-158"/>
<text text-anchor="middle" x="125.5" y="-136.3" font-family="Arial" font-size="14.00">Identification of land and water habitats</text>
</g>
<!-- n2&#45;&gt;n4 -->
<g id="edge3" class="edge">
<title>n2&#45;&gt;n4</title>
<path fill="none" stroke="black" d="M247.15,-243.81C222.59,-223.04 181.13,-188.01 153.54,-164.7"/>
<polygon fill="black" stroke="black" points="155.7,-161.95 145.81,-158.16 151.18,-167.29 155.7,-161.95"/>
</g>
<!-- n5 -->
<g id="node5" class="node">
<title>n5</title>
<path fill="palegreen" stroke="black" d="M557.5,-158C557.5,-158 321.5,-158 321.5,-158 315.5,-158 309.5,-152 309.5,-146 309.5,-146 309.5,-134 309.5,-134 309.5,-128 315.5,-122 321.5,-122 321.5,-122 557.5,-122 557.5,-122 563.5,-122 569.5,-128 569.5,-134 569.5,-134 569.5,-146 569.5,-146 569.5,-152 563.5,-158 557.5,-158"/>
<text text-anchor="middle" x="439.5" y="-136.3" font-family="Arial" font-size="14.00">Including diverse living things per habitat</text>
</g>
<!-- n2&#45;&gt;n5 -->
<g id="edge4" class="edge">
<title>n2&#45;&gt;n5</title>
<path fill="none" stroke="black" d="M292.14,-243.81C322.16,-222.87 372.98,-187.41 406.39,-164.1"/>
<polygon fill="black" stroke="black" points="408.7,-166.75 414.9,-158.16 404.7,-161.01 408.7,-166.75"/>
</g>
<!-- n3&#45;&gt;n4 -->
<g id="edge5" class="edge">
<title>n3&#45;&gt;n4</title>
<path fill="none" stroke="black" d="M525.23,-243.93C439.73,-221.92 291.34,-183.71 201.4,-160.55"/>
<polygon fill="black" stroke="black" points="202.1,-157.12 191.54,-158.01 200.35,-163.89 202.1,-157.12"/>
</g>
<!-- n3&#45;&gt;n5 -->
<g id="edge6" class="edge">
<title>n3&#45;&gt;n5</title>
<path fill="none" stroke="black" d="M569.72,-243.81C543.31,-222.96 498.67,-187.71 469.14,-164.4"/>
<polygon fill="black" stroke="black" points="471.26,-161.61 461.24,-158.16 466.92,-167.1 471.26,-161.61"/>
</g>
<!-- n6 -->
<g id="node6" class="node">
<title>n6</title>
<path fill="palegreen" stroke="black" d="M829.5,-158C829.5,-158 639.5,-158 639.5,-158 633.5,-158 627.5,-152 627.5,-146 627.5,-146 627.5,-134 627.5,-134 627.5,-128 633.5,-122 639.5,-122 639.5,-122 829.5,-122 829.5,-122 835.5,-122 841.5,-128 841.5,-134 841.5,-134 841.5,-146 841.5,-146 841.5,-152 835.5,-158 829.5,-158"/>
<text text-anchor="middle" x="734.5" y="-136.3" font-family="Arial" font-size="14.00">Correct labelling and observation</text>
</g>
<!-- n3&#45;&gt;n6 -->
<g id="edge7" class="edge">
<title>n3&#45;&gt;n6</title>
<path fill="none" stroke="black" d="M611.99,-243.81C636.73,-223.04 678.48,-188.01 706.26,-164.7"/>
<polygon fill="black" stroke="black" points="708.64,-167.27 714.05,-158.16 704.14,-161.91 708.64,-167.27"/>
</g>
<!-- n7 -->
<g id="node7" class="node">
<title>n7</title>
<polygon fill="lightcoral" stroke="black" points="1135.5,-158 899.05,-140 1135.5,-122 1371.95,-140 1135.5,-158"/>
<text text-anchor="middle" x="1135.5" y="-136.3" font-family="Arial" font-size="14.00">Potential incorrect labeling or placement</text>
</g>
<!-- n3&#45;&gt;n7 -->
<g id="edge8" class="edge">
<title>n3&#45;&gt;n7</title>
<path fill="none" stroke="black" d="M668.58,-244C775.38,-220.44 966.64,-178.25 1068.1,-155.88"/>
<polygon fill="black" stroke="black" points="1068.89,-159.29 1077.9,-153.71 1067.38,-152.45 1068.89,-159.29"/>
</g>
<!-- n8 -->
<g id="node8" class="node">
<title>n8</title>
<polygon fill="#f28e8e" stroke="black" points="1287.5,-36 983.5,-36 983.5,0 1287.5,0 1287.5,-36"/>
<text text-anchor="middle" x="1135.5" y="-14.3" font-family="Arial" font-size="14.00">Ensure species are correctly labeled and placed</text>
</g>
<!-- n7&#45;&gt;n8 -->
<g id="edge9" class="edge">
<title>n7&#45;&gt;n8</title>
<path fill="none" stroke="black" d="M1135.5,-121.81C1135.5,-102.11 1135.5,-69.58 1135.5,-46.39"/>
<polygon fill="black" stroke="black" points="1139,-46.16 1135.5,-36.16 1132,-46.16 1139,-46.16"/>
</g>
</g>
</svg>
