<?xml version="1.0" encoding="UTF-8" standalone="no"?>
<!DOCTYPE svg PUBLIC "-//W3C//DTD SVG 1.1//EN"
 "http://www.w3.org/Graphics/SVG/1.1/DTD/svg11.dtd">
<!-- Generated by graphviz version 2.43.0 (0)
 -->
<!-- Pages: 1 -->
<svg width="1782pt" height="410pt"
 viewBox="0.00 0.00 1782.00 410.00" xmlns="http://www.w3.org/2000/svg" xmlns:xlink="http://www.w3.org/1999/xlink">
<g id="graph0" class="graph" transform="scale(1 1) rotate(0) translate(4 406)">
<polygon fill="white" stroke="transparent" points="-4,4 -4,-406 1778,-406 1778,4 -4,4"/>
<!-- n1 -->
<g id="node1" class="node">
<title>n1</title>
<polygon fill="lightblue" stroke="black" points="1121,-384 1029.75,-402 847.25,-402 756,-384 847.25,-366 1029.75,-366 1121,-384"/>
<text text-anchor="middle" x="938.5" y="-380.3" font-family="Arial" font-size="14.00">Draw reversible changes (ice melting)</text>
</g>
<!-- n2 -->
<g id="node2" class="node">
<title>n2</title>
<polygon fill="#fffdd0" stroke="black" points="251,-280 0,-280 0,-244 251,-244 251,-280"/>
<text text-anchor="middle" x="125.5" y="-258.3" font-family="Arial" font-size="14.00">Illustration of ice cube with texture lines</text>
</g>
<!-- n1&#45;&gt;n2 -->
<g id="edge1" class="edge">
<title>n1&#45;&gt;n2</title>
<path fill="none" stroke="black" d="M836.77,-367.98C688.09,-346.04 411.7,-305.24 250.73,-281.48"/>
<polygon fill="black" stroke="black" points="251.17,-278.01 240.77,-280.01 250.15,-284.93 251.17,-278.01"/>
</g>
<!-- n3 -->
<g id="node3" class="node">
<title>n3</title>
<polygon fill="#fffdd0" stroke="black" points="568,-280 309,-280 309,-244 568,-244 568,-280"/>
<text text-anchor="middle" x="438.5" y="-258.3" font-family="Arial" font-size="14.00">Arrows and droplets showing ice melting</text>
</g>
<!-- n1&#45;&gt;n3 -->
<g id="edge2" class="edge">
<title>n1&#45;&gt;n3</title>
<path fill="none" stroke="black" d="M867.66,-366C775.81,-343.95 615.99,-305.6 519.45,-282.43"/>
<polygon fill="black" stroke="black" points="519.98,-278.96 509.44,-280.03 518.35,-285.77 519.98,-278.96"/>
</g>
<!-- n4 -->
<g id="node4" class="node">
<title>n4</title>
<polygon fill="#fffdd0" stroke="black" points="940.5,-280 626.5,-280 626.5,-244 940.5,-244 940.5,-280"/>
<text text-anchor="middle" x="783.5" y="-258.3" font-family="Arial" font-size="14.00">Arcuate arrow showing water turning back into ice</text>
</g>
<!-- n1&#45;&gt;n4 -->
<g id="edge3" class="edge">
<title>n1&#45;&gt;n4</title>
<path fill="none" stroke="black" d="M916.29,-365.81C889.36,-344.96 843.84,-309.71 813.72,-286.4"/>
<polygon fill="black" stroke="black" points="815.72,-283.52 805.67,-280.16 811.43,-289.05 815.72,-283.52"/>
</g>
<!-- n5 -->
<g id="node5" class="node">
<title>n5</title>
<polygon fill="#fffdd0" stroke="black" points="1190,-280 999,-280 999,-244 1190,-244 1190,-280"/>
<text text-anchor="middle" x="1094.5" y="-258.3" font-family="Arial" font-size="14.00">Annotated reversible process</text>
</g>
<!-- n1&#45;&gt;n5 -->
<g id="edge4" class="edge">
<title>n1&#45;&gt;n5</title>
<path fill="none" stroke="black" d="M960.85,-365.81C987.96,-344.96 1033.8,-309.71 1064.1,-286.4"/>
<polygon fill="black" stroke="black" points="1066.41,-289.04 1072.2,-280.16 1062.14,-283.49 1066.41,-289.04"/>
</g>
<!-- n6 -->
<g id="node6" class="node">
<title>n6</title>
<polygon fill="#fffdd0" stroke="black" points="1385,-280 1248,-280 1248,-244 1385,-244 1385,-280"/>
<text text-anchor="middle" x="1316.5" y="-258.3" font-family="Arial" font-size="14.00">Fried egg with red X</text>
</g>
<!-- n1&#45;&gt;n6 -->
<g id="edge5" class="edge">
<title>n1&#45;&gt;n6</title>
<path fill="none" stroke="black" d="M992.26,-365.93C1061.1,-344.07 1180.3,-306.25 1253.4,-283.04"/>
<polygon fill="black" stroke="black" points="1254.44,-286.38 1262.9,-280.01 1252.31,-279.71 1254.44,-286.38"/>
</g>
<!-- n7 -->
<g id="node7" class="node">
<title>n7</title>
<polygon fill="#fffdd0" stroke="black" points="1680,-280 1443,-280 1443,-244 1680,-244 1680,-280"/>
<text text-anchor="middle" x="1561.5" y="-258.3" font-family="Arial" font-size="14.00">Labels of &#39;heat&#39;, &#39;cooling&#39;, and effects</text>
</g>
<!-- n1&#45;&gt;n7 -->
<g id="edge6" class="edge">
<title>n1&#45;&gt;n7</title>
<path fill="none" stroke="black" d="M1026.8,-366C1142,-343.8 1343.2,-305.05 1463.2,-281.94"/>
<polygon fill="black" stroke="black" points="1463.94,-285.36 1473.1,-280.03 1462.62,-278.49 1463.94,-285.36"/>
</g>
<!-- n8 -->
<g id="node8" class="node">
<title>n8</title>
<path fill="palegreen" stroke="black" d="M413,-158C413,-158 130,-158 130,-158 124,-158 118,-152 118,-146 118,-146 118,-134 118,-134 118,-128 124,-122 130,-122 130,-122 413,-122 413,-122 419,-122 425,-128 425,-134 425,-134 425,-146 425,-146 425,-152 419,-158 413,-158"/>
<text text-anchor="middle" x="271.5" y="-136.3" font-family="Arial" font-size="14.00">Understanding of reversible change: Ice to water</text>
</g>
<!-- n2&#45;&gt;n8 -->
<g id="edge7" class="edge">
<title>n2&#45;&gt;n8</title>
<path fill="none" stroke="black" d="M146.42,-243.81C171.68,-223.04 214.3,-188.01 242.67,-164.7"/>
<polygon fill="black" stroke="black" points="245.12,-167.22 250.62,-158.16 240.67,-161.81 245.12,-167.22"/>
</g>
<!-- n3&#45;&gt;n8 -->
<g id="edge8" class="edge">
<title>n3&#45;&gt;n8</title>
<path fill="none" stroke="black" d="M414.57,-243.81C385.43,-222.87 336.09,-187.41 303.65,-164.1"/>
<polygon fill="black" stroke="black" points="305.54,-161.15 295.38,-158.16 301.46,-166.84 305.54,-161.15"/>
</g>
<!-- n9 -->
<g id="node9" class="node">
<title>n9</title>
<path fill="palegreen" stroke="black" d="M926,-158C926,-158 641,-158 641,-158 635,-158 629,-152 629,-146 629,-146 629,-134 629,-134 629,-128 635,-122 641,-122 641,-122 926,-122 926,-122 932,-122 938,-128 938,-134 938,-134 938,-146 938,-146 938,-152 932,-158 926,-158"/>
<text text-anchor="middle" x="783.5" y="-136.3" font-family="Arial" font-size="14.00">Understanding of reversible change: Water to ice</text>
</g>
<!-- n4&#45;&gt;n9 -->
<g id="edge9" class="edge">
<title>n4&#45;&gt;n9</title>
<path fill="none" stroke="black" d="M783.5,-243.81C783.5,-224.11 783.5,-191.58 783.5,-168.39"/>
<polygon fill="black" stroke="black" points="787,-168.16 783.5,-158.16 780,-168.16 787,-168.16"/>
</g>
<!-- n10 -->
<g id="node10" class="node">
<title>n10</title>
<path fill="palegreen" stroke="black" d="M1266,-158C1266,-158 1021,-158 1021,-158 1015,-158 1009,-152 1009,-146 1009,-146 1009,-134 1009,-134 1009,-128 1015,-122 1021,-122 1021,-122 1266,-122 1266,-122 1272,-122 1278,-128 1278,-134 1278,-134 1278,-146 1278,-146 1278,-152 1272,-158 1266,-158"/>
<text text-anchor="middle" x="1143.5" y="-136.3" font-family="Arial" font-size="14.00">Understanding of reversible vs irreversible</text>
</g>
<!-- n5&#45;&gt;n10 -->
<g id="edge10" class="edge">
<title>n5&#45;&gt;n10</title>
<path fill="none" stroke="black" d="M1101.5,-243.81C1109.7,-223.85 1123.2,-190.7 1132.7,-167.45"/>
<polygon fill="black" stroke="black" points="1135.95,-168.74 1136.5,-158.16 1129.47,-166.09 1135.95,-168.74"/>
</g>
<!-- n6&#45;&gt;n10 -->
<g id="edge11" class="edge">
<title>n6&#45;&gt;n10</title>
<path fill="none" stroke="black" d="M1291.7,-243.81C1261.5,-222.87 1210.4,-187.41 1176.8,-164.1"/>
<polygon fill="black" stroke="black" points="1178.42,-160.96 1168.2,-158.16 1174.44,-166.72 1178.42,-160.96"/>
</g>
<!-- n11 -->
<g id="node11" class="node">
<title>n11</title>
<polygon fill="lightcoral" stroke="black" points="1561.5,-158 1349,-140 1561.5,-122 1774,-140 1561.5,-158"/>
<text text-anchor="middle" x="1561.5" y="-136.3" font-family="Arial" font-size="14.00">Full labeling of processes is needed</text>
</g>
<!-- n7&#45;&gt;n11 -->
<g id="edge12" class="edge">
<title>n7&#45;&gt;n11</title>
<path fill="none" stroke="black" d="M1561.5,-243.81C1561.5,-224.11 1561.5,-191.58 1561.5,-168.39"/>
<polygon fill="black" stroke="black" points="1565,-168.16 1561.5,-158.16 1558,-168.16 1565,-168.16"/>
</g>
<!-- n12 -->
<g id="node12" class="node">
<title>n12</title>
<polygon fill="#f28e8e" stroke="black" points="1717,-36 1406,-36 1406,0 1717,0 1717,-36"/>
<text text-anchor="middle" x="1561.5" y="-14.3" font-family="Arial" font-size="14.00">Ensure labels are accurate and consistently used</text>
</g>
<!-- n11&#45;&gt;n12 -->
<g id="edge13" class="edge">
<title>n11&#45;&gt;n12</title>
<path fill="none" stroke="black" d="M1561.5,-121.81C1561.5,-102.11 1561.5,-69.58 1561.5,-46.39"/>
<polygon fill="black" stroke="black" points="1565,-46.16 1561.5,-36.16 1558,-46.16 1565,-46.16"/>
</g>
</g>
</svg>
