<?xml version="1.0" encoding="UTF-8" standalone="no"?>
<!DOCTYPE svg PUBLIC "-//W3C//DTD SVG 1.1//EN"
 "http://www.w3.org/Graphics/SVG/1.1/DTD/svg11.dtd">
<!-- Generated by graphviz version 2.43.0 (0)
 -->
<!-- Pages: 1 -->
<svg width="1245pt" height="410pt"
 viewBox="0.00 0.00 1244.50 410.00" xmlns="http://www.w3.org/2000/svg" xmlns:xlink="http://www.w3.org/1999/xlink">
<g id="graph0" class="graph" transform="scale(1 1) rotate(0) translate(4 406)">
<polygon fill="white" stroke="transparent" points="-4,4 -4,-406 1240.5,-406 1240.5,4 -4,4"/>
<!-- n1 -->
<g id="node1" class="node">
<title>n1</title>
<polygon fill="lightblue" stroke="black" points="700.24,-384 607.12,-402 420.88,-402 327.76,-384 420.88,-366 607.12,-366 700.24,-384"/>
<text text-anchor="middle" x="514" y="-380.3" font-family="Arial" font-size="14.00">Illustrate plants with and without water.</text>
</g>
<!-- n2 -->
<g id="node2" class="node">
<title>n2</title>
<polygon fill="#fffdd0" stroke="black" points="304,-280 0,-280 0,-244 304,-244 304,-280"/>
<text text-anchor="middle" x="152" y="-258.3" font-family="Arial" font-size="14.00">Draws healthy plant with green stem and leaves</text>
</g>
<!-- n1&#45;&gt;n2 -->
<g id="edge1" class="edge">
<title>n1&#45;&gt;n2</title>
<path fill="none" stroke="black" d="M462.52,-365.93C396.71,-344.12 282.93,-306.4 212.89,-283.18"/>
<polygon fill="black" stroke="black" points="213.89,-279.83 203.3,-280.01 211.7,-286.47 213.89,-279.83"/>
</g>
<!-- n3 -->
<g id="node3" class="node">
<title>n3</title>
<polygon fill="#fffdd0" stroke="black" points="665.5,-280 362.5,-280 362.5,-244 665.5,-244 665.5,-280"/>
<text text-anchor="middle" x="514" y="-258.3" font-family="Arial" font-size="14.00">Draws unhealthy plant with brown, wilted leaves</text>
</g>
<!-- n1&#45;&gt;n3 -->
<g id="edge2" class="edge">
<title>n1&#45;&gt;n3</title>
<path fill="none" stroke="black" d="M514,-365.81C514,-346.11 514,-313.58 514,-290.39"/>
<polygon fill="black" stroke="black" points="517.5,-290.16 514,-280.16 510.5,-290.16 517.5,-290.16"/>
</g>
<!-- n4 -->
<g id="node4" class="node">
<title>n4</title>
<polygon fill="#fffdd0" stroke="black" points="982,-280 764,-280 764,-244 982,-244 982,-280"/>
<text text-anchor="middle" x="873" y="-258.3" font-family="Arial" font-size="14.00">Draws butterfly near healthy plant</text>
</g>
<!-- n1&#45;&gt;n4 -->
<g id="edge3" class="edge">
<title>n1&#45;&gt;n4</title>
<path fill="none" stroke="black" d="M565.05,-365.93C630.32,-344.12 743.16,-306.4 812.62,-283.18"/>
<polygon fill="black" stroke="black" points="813.74,-286.5 822.12,-280.01 811.53,-279.86 813.74,-286.5"/>
</g>
<!-- n5 -->
<g id="node5" class="node">
<title>n5</title>
<path fill="palegreen" stroke="black" d="M264,-158C264,-158 40,-158 40,-158 34,-158 28,-152 28,-146 28,-146 28,-134 28,-134 28,-128 34,-122 40,-122 40,-122 264,-122 264,-122 270,-122 276,-128 276,-134 276,-134 276,-146 276,-146 276,-152 270,-158 264,-158"/>
<text text-anchor="middle" x="152" y="-136.3" font-family="Arial" font-size="14.00">Recognizes water&#39;s role in plant health</text>
</g>
<!-- n2&#45;&gt;n5 -->
<g id="edge4" class="edge">
<title>n2&#45;&gt;n5</title>
<path fill="none" stroke="black" d="M152,-243.81C152,-224.11 152,-191.58 152,-168.39"/>
<polygon fill="black" stroke="black" points="155.5,-168.16 152,-158.16 148.5,-168.16 155.5,-168.16"/>
</g>
<!-- n6 -->
<g id="node6" class="node">
<title>n6</title>
<path fill="palegreen" stroke="black" d="M585.5,-158C585.5,-158 378.5,-158 378.5,-158 372.5,-158 366.5,-152 366.5,-146 366.5,-146 366.5,-134 366.5,-134 366.5,-128 372.5,-122 378.5,-122 378.5,-122 585.5,-122 585.5,-122 591.5,-122 597.5,-128 597.5,-134 597.5,-134 597.5,-146 597.5,-146 597.5,-152 591.5,-158 585.5,-158"/>
<text text-anchor="middle" x="482" y="-136.3" font-family="Arial" font-size="14.00">Understands effects of lack of water</text>
</g>
<!-- n3&#45;&gt;n6 -->
<g id="edge5" class="edge">
<title>n3&#45;&gt;n6</title>
<path fill="none" stroke="black" d="M509.42,-243.81C504.14,-224.02 495.41,-191.29 489.22,-168.08"/>
<polygon fill="black" stroke="black" points="492.53,-166.92 486.58,-158.16 485.77,-168.72 492.53,-166.92"/>
</g>
<!-- n7 -->
<g id="node7" class="node">
<title>n7</title>
<polygon fill="lightcoral" stroke="black" points="946,-158 655.5,-140 946,-122 1236.5,-140 946,-158"/>
<text text-anchor="middle" x="946" y="-136.3" font-family="Arial" font-size="14.00">Limited understanding of plant&#45;animal interactions</text>
</g>
<!-- n4&#45;&gt;n7 -->
<g id="edge6" class="edge">
<title>n4&#45;&gt;n7</title>
<path fill="none" stroke="black" d="M883.46,-243.81C895.85,-223.44 916.59,-189.34 930.77,-166.04"/>
<polygon fill="black" stroke="black" points="933.82,-167.75 936.03,-157.39 927.84,-164.12 933.82,-167.75"/>
</g>
<!-- n8 -->
<g id="node8" class="node">
<title>n8</title>
<polygon fill="#f28e8e" stroke="black" points="1095,-36 797,-36 797,0 1095,0 1095,-36"/>
<text text-anchor="middle" x="946" y="-14.3" font-family="Arial" font-size="14.00">Include more explicit animal&#45;plant relationships</text>
</g>
<!-- n7&#45;&gt;n8 -->
<g id="edge7" class="edge">
<title>n7&#45;&gt;n8</title>
<path fill="none" stroke="black" d="M946,-121.81C946,-102.11 946,-69.58 946,-46.39"/>
<polygon fill="black" stroke="black" points="949.5,-46.16 946,-36.16 942.5,-46.16 949.5,-46.16"/>
</g>
</g>
</svg>
