<?xml version="1.0" encoding="UTF-8" standalone="no"?>
<!DOCTYPE svg PUBLIC "-//W3C//DTD SVG 1.1//EN"
 "http://www.w3.org/Graphics/SVG/1.1/DTD/svg11.dtd">
<!-- Generated by graphviz version 2.43.0 (0)
 -->
<!-- Pages: 1 -->
<svg width="1204pt" height="410pt"
 viewBox="0.00 0.00 1203.50 410.00" xmlns="http://www.w3.org/2000/svg" xmlns:xlink="http://www.w3.org/1999/xlink">
<g id="graph0" class="graph" transform="scale(1 1) rotate(0) translate(4 406)">
<polygon fill="white" stroke="transparent" points="-4,4 -4,-406 1199.5,-406 1199.5,4 -4,4"/>
<!-- n1 -->
<g id="node1" class="node">
<title>n1</title>
<polygon fill="lightblue" stroke="black" points="1003,-384 839,-402 511,-402 347,-384 511,-366 839,-366 1003,-384"/>
<text text-anchor="middle" x="675" y="-380.3" font-family="Arial" font-size="14.00">Draw reversible and irreversible changes (ice melting vs. egg cooking)</text>
</g>
<!-- n2 -->
<g id="node2" class="node">
<title>n2</title>
<polygon fill="#fffdd0" stroke="black" points="634.5,-280 489.5,-280 489.5,-244 634.5,-244 634.5,-280"/>
<text text-anchor="middle" x="562" y="-258.3" font-family="Arial" font-size="14.00">Ice melting into water</text>
</g>
<!-- n1&#45;&gt;n2 -->
<g id="edge1" class="edge">
<title>n1&#45;&gt;n2</title>
<path fill="none" stroke="black" d="M658.81,-365.81C639.51,-345.31 607.12,-310.91 585.17,-287.6"/>
<polygon fill="black" stroke="black" points="587.57,-285.04 578.16,-280.16 582.47,-289.84 587.57,-285.04"/>
</g>
<!-- n3 -->
<g id="node3" class="node">
<title>n3</title>
<polygon fill="#fffdd0" stroke="black" points="1016,-280 826,-280 826,-244 1016,-244 1016,-280"/>
<text text-anchor="middle" x="921" y="-258.3" font-family="Arial" font-size="14.00">Egg cooking into cooked egg</text>
</g>
<!-- n1&#45;&gt;n3 -->
<g id="edge2" class="edge">
<title>n1&#45;&gt;n3</title>
<path fill="none" stroke="black" d="M709.98,-365.93C753.88,-344.52 829.19,-307.78 876.97,-284.48"/>
<polygon fill="black" stroke="black" points="878.68,-287.54 886.14,-280.01 875.62,-281.25 878.68,-287.54"/>
</g>
<!-- n4 -->
<g id="node4" class="node">
<title>n4</title>
<path fill="palegreen" stroke="black" d="M198,-158C198,-158 12,-158 12,-158 6,-158 0,-152 0,-146 0,-146 0,-134 0,-134 0,-128 6,-122 12,-122 12,-122 198,-122 198,-122 204,-122 210,-128 210,-134 210,-134 210,-146 210,-146 210,-152 204,-158 198,-158"/>
<text text-anchor="middle" x="105" y="-136.3" font-family="Arial" font-size="14.00">Reversible change (ice to water)</text>
</g>
<!-- n2&#45;&gt;n4 -->
<g id="edge3" class="edge">
<title>n2&#45;&gt;n4</title>
<path fill="none" stroke="black" d="M497.01,-243.93C413.25,-221.94 267.93,-183.78 179.71,-160.62"/>
<polygon fill="black" stroke="black" points="180.33,-157.16 169.77,-158.01 178.55,-163.93 180.33,-157.16"/>
</g>
<!-- n6 -->
<g id="node5" class="node">
<title>n6</title>
<polygon fill="lightcoral" stroke="black" points="562,-158 267.74,-140 562,-122 856.26,-140 562,-158"/>
<text text-anchor="middle" x="562" y="-136.3" font-family="Arial" font-size="14.00">Inaccurate depiction of water freezing back into ice</text>
</g>
<!-- n2&#45;&gt;n6 -->
<g id="edge4" class="edge">
<title>n2&#45;&gt;n6</title>
<path fill="none" stroke="black" d="M562,-243.81C562,-224.11 562,-191.58 562,-168.39"/>
<polygon fill="black" stroke="black" points="565.5,-168.16 562,-158.16 558.5,-168.16 565.5,-168.16"/>
</g>
<!-- n5 -->
<g id="node6" class="node">
<title>n5</title>
<path fill="palegreen" stroke="black" d="M1183.5,-158C1183.5,-158 926.5,-158 926.5,-158 920.5,-158 914.5,-152 914.5,-146 914.5,-146 914.5,-134 914.5,-134 914.5,-128 920.5,-122 926.5,-122 926.5,-122 1183.5,-122 1183.5,-122 1189.5,-122 1195.5,-128 1195.5,-134 1195.5,-134 1195.5,-146 1195.5,-146 1195.5,-152 1189.5,-158 1183.5,-158"/>
<text text-anchor="middle" x="1055" y="-136.3" font-family="Arial" font-size="14.00">Irreversible change (raw egg to cooked egg)</text>
</g>
<!-- n3&#45;&gt;n5 -->
<g id="edge5" class="edge">
<title>n3&#45;&gt;n5</title>
<path fill="none" stroke="black" d="M940.2,-243.81C963.28,-223.13 1002.2,-188.31 1028.2,-165"/>
<polygon fill="black" stroke="black" points="1030.71,-167.45 1035.8,-158.16 1026.03,-162.25 1030.71,-167.45"/>
</g>
<!-- n7 -->
<g id="node7" class="node">
<title>n7</title>
<polygon fill="#f28e8e" stroke="black" points="509.5,-36 324.5,-36 324.5,0 509.5,0 509.5,-36"/>
<text text-anchor="middle" x="417" y="-14.3" font-family="Arial" font-size="14.00">Show water freezing into ice</text>
</g>
<!-- n6&#45;&gt;n7 -->
<g id="edge6" class="edge">
<title>n6&#45;&gt;n7</title>
<path fill="none" stroke="black" d="M542.75,-123.06C517.92,-102.52 474.55,-66.62 445.8,-42.83"/>
<polygon fill="black" stroke="black" points="447.68,-39.84 437.74,-36.17 443.22,-45.24 447.68,-39.84"/>
</g>
<!-- n8 -->
<g id="node8" class="node">
<title>n8</title>
<polygon fill="#f28e8e" stroke="black" points="846.5,-36 567.5,-36 567.5,0 846.5,0 846.5,-36"/>
<text text-anchor="middle" x="707" y="-14.3" font-family="Arial" font-size="14.00">Show clearer arrows and labels for changes</text>
</g>
<!-- n6&#45;&gt;n8 -->
<g id="edge7" class="edge">
<title>n6&#45;&gt;n8</title>
<path fill="none" stroke="black" d="M581.25,-123.06C606.08,-102.52 649.45,-66.62 678.2,-42.83"/>
<polygon fill="black" stroke="black" points="680.78,-45.24 686.26,-36.17 676.32,-39.84 680.78,-45.24"/>
</g>
</g>
</svg>
