<?xml version="1.0" encoding="UTF-8" standalone="no"?>
<!DOCTYPE svg PUBLIC "-//W3C//DTD SVG 1.1//EN"
 "http://www.w3.org/Graphics/SVG/1.1/DTD/svg11.dtd">
<!-- Generated by graphviz version 2.43.0 (0)
 -->
<!-- Pages: 1 -->
<svg width="1209pt" height="410pt"
 viewBox="0.00 0.00 1209.00 410.00" xmlns="http://www.w3.org/2000/svg" xmlns:xlink="http://www.w3.org/1999/xlink">
<g id="graph0" class="graph" transform="scale(1 1) rotate(0) translate(4 406)">
<polygon fill="white" stroke="transparent" points="-4,4 -4,-406 1205,-406 1205,4 -4,4"/>
<!-- n1 -->
<g id="node1" class="node">
<title>n1</title>
<polygon fill="lightblue" stroke="black" points="748,-384 656.75,-402 474.25,-402 383,-384 474.25,-366 656.75,-366 748,-384"/>
<text text-anchor="middle" x="565.5" y="-380.3" font-family="Arial" font-size="14.00">Draw a fish in their habitat with labels.</text>
</g>
<!-- n2 -->
<g id="node2" class="node">
<title>n2</title>
<polygon fill="#fffdd0" stroke="black" points="266.5,-280 102.5,-280 102.5,-244 266.5,-244 266.5,-280"/>
<text text-anchor="middle" x="184.5" y="-258.3" font-family="Arial" font-size="14.00">Simple drawing of a fish.</text>
</g>
<!-- n1&#45;&gt;n2 -->
<g id="edge1" class="edge">
<title>n1&#45;&gt;n2</title>
<path fill="none" stroke="black" d="M511.32,-365.93C441.91,-344.07 321.81,-306.25 248.13,-283.04"/>
<polygon fill="black" stroke="black" points="249.09,-279.67 238.5,-280.01 246.99,-286.35 249.09,-279.67"/>
</g>
<!-- n3 -->
<g id="node3" class="node">
<title>n3</title>
<polygon fill="#fffdd0" stroke="black" points="546.5,-280 366.5,-280 366.5,-244 546.5,-244 546.5,-280"/>
<text text-anchor="middle" x="456.5" y="-258.3" font-family="Arial" font-size="14.00">Scattered letters like &#39;ABC&#39;.</text>
</g>
<!-- n1&#45;&gt;n3 -->
<g id="edge2" class="edge">
<title>n1&#45;&gt;n3</title>
<path fill="none" stroke="black" d="M549.88,-365.81C531.27,-345.31 500.02,-310.91 478.85,-287.6"/>
<polygon fill="black" stroke="black" points="481.41,-285.21 472.09,-280.16 476.22,-289.91 481.41,-285.21"/>
</g>
<!-- n4 -->
<g id="node4" class="node">
<title>n4</title>
<polygon fill="#fffdd0" stroke="black" points="771,-280 630,-280 630,-244 771,-244 771,-280"/>
<text text-anchor="middle" x="700.5" y="-258.3" font-family="Arial" font-size="14.00">Wavy lines for water.</text>
</g>
<!-- n1&#45;&gt;n4 -->
<g id="edge3" class="edge">
<title>n1&#45;&gt;n4</title>
<path fill="none" stroke="black" d="M584.84,-365.81C608.1,-345.13 647.27,-310.31 673.5,-287"/>
<polygon fill="black" stroke="black" points="676.04,-289.42 681.19,-280.16 671.39,-284.19 676.04,-289.42"/>
</g>
<!-- n5 -->
<g id="node5" class="node">
<title>n5</title>
<polygon fill="#fffdd0" stroke="black" points="1074.5,-280 886.5,-280 886.5,-244 1074.5,-244 1074.5,-280"/>
<text text-anchor="middle" x="980.5" y="-258.3" font-family="Arial" font-size="14.00">Random elements: car, tree.</text>
</g>
<!-- n1&#45;&gt;n5 -->
<g id="edge4" class="edge">
<title>n1&#45;&gt;n5</title>
<path fill="none" stroke="black" d="M624.52,-365.93C700.27,-344.03 831.47,-306.09 911.68,-282.9"/>
<polygon fill="black" stroke="black" points="913.04,-286.15 921.68,-280.01 911.1,-279.42 913.04,-286.15"/>
</g>
<!-- n6 -->
<g id="node6" class="node">
<title>n6</title>
<path fill="palegreen" stroke="black" d="M245,-158C245,-158 12,-158 12,-158 6,-158 0,-152 0,-146 0,-146 0,-134 0,-134 0,-128 6,-122 12,-122 12,-122 245,-122 245,-122 251,-122 257,-128 257,-134 257,-134 257,-146 257,-146 257,-152 251,-158 245,-158"/>
<text text-anchor="middle" x="128.5" y="-136.3" font-family="Arial" font-size="14.00">Fish shape correctly identified but basic.</text>
</g>
<!-- n2&#45;&gt;n6 -->
<g id="edge5" class="edge">
<title>n2&#45;&gt;n6</title>
<path fill="none" stroke="black" d="M176.48,-243.81C167.16,-223.85 151.69,-190.7 140.84,-167.45"/>
<polygon fill="black" stroke="black" points="143.91,-165.75 136.51,-158.16 137.56,-168.7 143.91,-165.75"/>
</g>
<!-- n7 -->
<g id="node7" class="node">
<title>n7</title>
<polygon fill="lightcoral" stroke="black" points="443.5,-158 314.64,-140 443.5,-122 572.36,-140 443.5,-158"/>
<text text-anchor="middle" x="443.5" y="-136.3" font-family="Arial" font-size="14.00">Attempts at labeling.</text>
</g>
<!-- n3&#45;&gt;n7 -->
<g id="edge6" class="edge">
<title>n3&#45;&gt;n7</title>
<path fill="none" stroke="black" d="M454.64,-243.81C452.49,-224 448.94,-191.21 446.42,-168"/>
<polygon fill="black" stroke="black" points="449.87,-167.34 445.32,-157.77 442.91,-168.09 449.87,-167.34"/>
</g>
<!-- n8 -->
<g id="node8" class="node">
<title>n8</title>
<path fill="palegreen" stroke="black" d="M785,-158C785,-158 642,-158 642,-158 636,-158 630,-152 630,-146 630,-146 630,-134 630,-134 630,-128 636,-122 642,-122 642,-122 785,-122 785,-122 791,-122 797,-128 797,-134 797,-134 797,-146 797,-146 797,-152 791,-158 785,-158"/>
<text text-anchor="middle" x="713.5" y="-136.3" font-family="Arial" font-size="14.00">Correctly identifies water.</text>
</g>
<!-- n4&#45;&gt;n8 -->
<g id="edge7" class="edge">
<title>n4&#45;&gt;n8</title>
<path fill="none" stroke="black" d="M702.36,-243.81C704.5,-224.11 708.02,-191.58 710.53,-168.39"/>
<polygon fill="black" stroke="black" points="714.04,-168.48 711.64,-158.16 707.08,-167.72 714.04,-168.48"/>
</g>
<!-- n9 -->
<g id="node9" class="node">
<title>n9</title>
<polygon fill="lightcoral" stroke="black" points="1025.5,-158 855.41,-140 1025.5,-122 1195.59,-140 1025.5,-158"/>
<text text-anchor="middle" x="1025.5" y="-136.3" font-family="Arial" font-size="14.00">Misunderstands fish habitat.</text>
</g>
<!-- n5&#45;&gt;n9 -->
<g id="edge8" class="edge">
<title>n5&#45;&gt;n9</title>
<path fill="none" stroke="black" d="M986.95,-243.81C994.48,-223.71 1007,-190.24 1015.8,-166.97"/>
<polygon fill="black" stroke="black" points="1019.16,-167.98 1019.4,-157.39 1012.61,-165.52 1019.16,-167.98"/>
</g>
<!-- n10 -->
<g id="node10" class="node">
<title>n10</title>
<polygon fill="#f28e8e" stroke="black" points="625,-36 262,-36 262,0 625,0 625,-36"/>
<text text-anchor="middle" x="443.5" y="-14.3" font-family="Arial" font-size="14.00">Use specific labels for parts of habitat (e.g., water, plants).</text>
</g>
<!-- n7&#45;&gt;n10 -->
<g id="edge9" class="edge">
<title>n7&#45;&gt;n10</title>
<path fill="none" stroke="black" d="M443.5,-121.81C443.5,-102.11 443.5,-69.58 443.5,-46.39"/>
<polygon fill="black" stroke="black" points="447,-46.16 443.5,-36.16 440,-46.16 447,-46.16"/>
</g>
<!-- n11 -->
<g id="node11" class="node">
<title>n11</title>
<polygon fill="#f28e8e" stroke="black" points="1201,-36 850,-36 850,0 1201,0 1201,-36"/>
<text text-anchor="middle" x="1025.5" y="-14.3" font-family="Arial" font-size="14.00">Include habitat components only (e.g., no cars or trees).</text>
</g>
<!-- n9&#45;&gt;n11 -->
<g id="edge10" class="edge">
<title>n9&#45;&gt;n11</title>
<path fill="none" stroke="black" d="M1025.5,-121.81C1025.5,-102.11 1025.5,-69.58 1025.5,-46.39"/>
<polygon fill="black" stroke="black" points="1029,-46.16 1025.5,-36.16 1022,-46.16 1029,-46.16"/>
</g>
</g>
</svg>
