<?xml version="1.0" encoding="UTF-8" standalone="no"?>
<!DOCTYPE svg PUBLIC "-//W3C//DTD SVG 1.1//EN"
 "http://www.w3.org/Graphics/SVG/1.1/DTD/svg11.dtd">
<!-- Generated by graphviz version 2.43.0 (0)
 -->
<!-- Pages: 1 -->
<svg width="1280pt" height="410pt"
 viewBox="0.00 0.00 1280.00 410.00" xmlns="http://www.w3.org/2000/svg" xmlns:xlink="http://www.w3.org/1999/xlink">
<g id="graph0" class="graph" transform="scale(1 1) rotate(0) translate(4 406)">
<polygon fill="white" stroke="transparent" points="-4,4 -4,-406 1276,-406 1276,4 -4,4"/>
<!-- n1 -->
<g id="node1" class="node">
<title>n1</title>
<polygon fill="lightblue" stroke="black" points="839,-384 675,-402 347,-402 183,-384 347,-366 675,-366 839,-384"/>
<text text-anchor="middle" x="511" y="-380.3" font-family="Arial" font-size="14.00">Draw reversible and irreversible changes (ice melting vs. egg cooking)</text>
</g>
<!-- n2 -->
<g id="node2" class="node">
<title>n2</title>
<polygon fill="#fffdd0" stroke="black" points="455,-280 273,-280 273,-244 455,-244 455,-280"/>
<text text-anchor="middle" x="364" y="-258.3" font-family="Arial" font-size="14.00">Blue square with wavy lines</text>
</g>
<!-- n1&#45;&gt;n2 -->
<g id="edge1" class="edge">
<title>n1&#45;&gt;n2</title>
<path fill="none" stroke="black" d="M489.94,-365.81C464.5,-345.04 421.59,-310.01 393.03,-286.7"/>
<polygon fill="black" stroke="black" points="394.98,-283.77 385.02,-280.16 390.55,-289.2 394.98,-283.77"/>
</g>
<!-- n3 -->
<g id="node3" class="node">
<title>n3</title>
<polygon fill="#fffdd0" stroke="black" points="934,-280 642,-280 642,-244 934,-244 934,-280"/>
<text text-anchor="middle" x="788" y="-258.3" font-family="Arial" font-size="14.00">Yellow oval with red and orange squiggly lines</text>
</g>
<!-- n1&#45;&gt;n3 -->
<g id="edge2" class="edge">
<title>n1&#45;&gt;n3</title>
<path fill="none" stroke="black" d="M550.39,-365.93C600.13,-344.39 685.68,-307.32 739.42,-284.04"/>
<polygon fill="black" stroke="black" points="740.95,-287.19 748.74,-280.01 738.17,-280.77 740.95,-287.19"/>
</g>
<!-- n4 -->
<g id="node4" class="node">
<title>n4</title>
<path fill="palegreen" stroke="black" d="M152,-158C152,-158 12,-158 12,-158 6,-158 0,-152 0,-146 0,-146 0,-134 0,-134 0,-128 6,-122 12,-122 12,-122 152,-122 152,-122 158,-122 164,-128 164,-134 164,-134 164,-146 164,-146 164,-152 158,-158 152,-158"/>
<text text-anchor="middle" x="82" y="-136.3" font-family="Arial" font-size="14.00">Basic shape for ice cube</text>
</g>
<!-- n2&#45;&gt;n4 -->
<g id="edge3" class="edge">
<title>n2&#45;&gt;n4</title>
<path fill="none" stroke="black" d="M323.9,-243.93C273.26,-222.39 186.16,-185.32 131.45,-162.04"/>
<polygon fill="black" stroke="black" points="132.54,-158.7 121.97,-158.01 129.8,-165.14 132.54,-158.7"/>
</g>
<!-- n5 -->
<g id="node5" class="node">
<title>n5</title>
<polygon fill="lightcoral" stroke="black" points="364,-158 221.5,-140 364,-122 506.5,-140 364,-158"/>
<text text-anchor="middle" x="364" y="-136.3" font-family="Arial" font-size="14.00">Represents ice melting</text>
</g>
<!-- n2&#45;&gt;n5 -->
<g id="edge4" class="edge">
<title>n2&#45;&gt;n5</title>
<path fill="none" stroke="black" d="M364,-243.81C364,-224.11 364,-191.58 364,-168.39"/>
<polygon fill="black" stroke="black" points="367.5,-168.16 364,-158.16 360.5,-168.16 367.5,-168.16"/>
</g>
<!-- n6 -->
<g id="node6" class="node">
<title>n6</title>
<polygon fill="lightcoral" stroke="black" points="918,-158 564,-140 918,-122 1272,-140 918,-158"/>
<text text-anchor="middle" x="918" y="-136.3" font-family="Arial" font-size="14.00">Shows egg with change, lacks clear understanding of cooking</text>
</g>
<!-- n3&#45;&gt;n6 -->
<g id="edge5" class="edge">
<title>n3&#45;&gt;n6</title>
<path fill="none" stroke="black" d="M806.63,-243.81C829.28,-222.9 867.6,-187.52 892.86,-164.21"/>
<polygon fill="black" stroke="black" points="895.27,-166.75 900.24,-157.39 890.52,-161.61 895.27,-166.75"/>
</g>
<!-- n7 -->
<g id="node7" class="node">
<title>n7</title>
<polygon fill="#f28e8e" stroke="black" points="496.5,-36 231.5,-36 231.5,0 496.5,0 496.5,-36"/>
<text text-anchor="middle" x="364" y="-14.3" font-family="Arial" font-size="14.00">Lack of clear depiction of melting process</text>
</g>
<!-- n5&#45;&gt;n7 -->
<g id="edge6" class="edge">
<title>n5&#45;&gt;n7</title>
<path fill="none" stroke="black" d="M364,-121.81C364,-102.11 364,-69.58 364,-46.39"/>
<polygon fill="black" stroke="black" points="367.5,-46.16 364,-36.16 360.5,-46.16 367.5,-46.16"/>
</g>
<!-- n8 -->
<g id="node8" class="node">
<title>n8</title>
<polygon fill="#f28e8e" stroke="black" points="1099,-36 737,-36 737,0 1099,0 1099,-36"/>
<text text-anchor="middle" x="918" y="-14.3" font-family="Arial" font-size="14.00">Include labels to show reversible and irreversible changes</text>
</g>
<!-- n6&#45;&gt;n8 -->
<g id="edge7" class="edge">
<title>n6&#45;&gt;n8</title>
<path fill="none" stroke="black" d="M918,-121.81C918,-102.11 918,-69.58 918,-46.39"/>
<polygon fill="black" stroke="black" points="921.5,-46.16 918,-36.16 914.5,-46.16 921.5,-46.16"/>
</g>
</g>
</svg>
