<?xml version="1.0" encoding="UTF-8" standalone="no"?>
<!DOCTYPE svg PUBLIC "-//W3C//DTD SVG 1.1//EN"
 "http://www.w3.org/Graphics/SVG/1.1/DTD/svg11.dtd">
<!-- Generated by graphviz version 2.43.0 (0)
 -->
<!-- Pages: 1 -->
<svg width="1630pt" height="410pt"
 viewBox="0.00 0.00 1629.50 410.00" xmlns="http://www.w3.org/2000/svg" xmlns:xlink="http://www.w3.org/1999/xlink">
<g id="graph0" class="graph" transform="scale(1 1) rotate(0) translate(4 406)">
<polygon fill="white" stroke="transparent" points="-4,4 -4,-406 1625.5,-406 1625.5,4 -4,4"/>
<!-- n1 -->
<g id="node1" class="node">
<title>n1</title>
<polygon fill="lightblue" stroke="black" points="825.5,-384 714,-402 491,-402 379.5,-384 491,-366 714,-366 825.5,-384"/>
<text text-anchor="middle" x="602.5" y="-380.3" font-family="Arial" font-size="14.00">Draw a string telephone between two students.</text>
</g>
<!-- n2 -->
<g id="node2" class="node">
<title>n2</title>
<polygon fill="#fffdd0" stroke="black" points="243,-280 0,-280 0,-244 243,-244 243,-280"/>
<text text-anchor="middle" x="121.5" y="-258.3" font-family="Arial" font-size="14.00">Two students using a string telephone</text>
</g>
<!-- n1&#45;&gt;n2 -->
<g id="edge1" class="edge">
<title>n1&#45;&gt;n2</title>
<path fill="none" stroke="black" d="M534.35,-366C446.08,-343.98 292.56,-305.68 199.66,-282.5"/>
<polygon fill="black" stroke="black" points="200.3,-279.05 189.75,-280.03 198.61,-285.84 200.3,-279.05"/>
</g>
<!-- n3 -->
<g id="node3" class="node">
<title>n3</title>
<polygon fill="#fffdd0" stroke="black" points="567.5,-280 301.5,-280 301.5,-244 567.5,-244 567.5,-280"/>
<text text-anchor="middle" x="434.5" y="-258.3" font-family="Arial" font-size="14.00">Paper cups connected by a taut red string</text>
</g>
<!-- n1&#45;&gt;n3 -->
<g id="edge2" class="edge">
<title>n1&#45;&gt;n3</title>
<path fill="none" stroke="black" d="M578.43,-365.81C549.11,-344.87 499.47,-309.41 466.84,-286.1"/>
<polygon fill="black" stroke="black" points="468.7,-283.13 458.53,-280.16 464.63,-288.82 468.7,-283.13"/>
</g>
<!-- n4 -->
<g id="node4" class="node">
<title>n4</title>
<polygon fill="#fffdd0" stroke="black" points="917,-280 626,-280 626,-244 917,-244 917,-280"/>
<text text-anchor="middle" x="771.5" y="-258.3" font-family="Arial" font-size="14.00">Arrows and wavy lines depicting sound waves</text>
</g>
<!-- n1&#45;&gt;n4 -->
<g id="edge3" class="edge">
<title>n1&#45;&gt;n4</title>
<path fill="none" stroke="black" d="M626.71,-365.81C656.21,-344.87 706.14,-309.41 738.97,-286.1"/>
<polygon fill="black" stroke="black" points="741.21,-288.81 747.33,-280.16 737.15,-283.1 741.21,-288.81"/>
</g>
<!-- n5 -->
<g id="node5" class="node">
<title>n5</title>
<polygon fill="#fffdd0" stroke="black" points="1290.5,-280 974.5,-280 974.5,-244 1290.5,-244 1290.5,-280"/>
<text text-anchor="middle" x="1132.5" y="-258.3" font-family="Arial" font-size="14.00">Students&#39; enjoyment and effective communication</text>
</g>
<!-- n1&#45;&gt;n5 -->
<g id="edge4" class="edge">
<title>n1&#45;&gt;n5</title>
<path fill="none" stroke="black" d="M677.59,-366C775.15,-343.91 945.04,-305.44 1047.3,-282.29"/>
<polygon fill="black" stroke="black" points="1048.32,-285.65 1057.3,-280.03 1046.77,-278.82 1048.32,-285.65"/>
</g>
<!-- n6 -->
<g id="node6" class="node">
<title>n6</title>
<path fill="palegreen" stroke="black" d="M405,-158C405,-158 150,-158 150,-158 144,-158 138,-152 138,-146 138,-146 138,-134 138,-134 138,-128 144,-122 150,-122 150,-122 405,-122 405,-122 411,-122 417,-128 417,-134 417,-134 417,-146 417,-146 417,-152 411,-158 405,-158"/>
<text text-anchor="middle" x="277.5" y="-136.3" font-family="Arial" font-size="14.00">Device allows communication over distance</text>
</g>
<!-- n2&#45;&gt;n6 -->
<g id="edge5" class="edge">
<title>n2&#45;&gt;n6</title>
<path fill="none" stroke="black" d="M143.85,-243.81C170.96,-222.96 216.78,-187.71 247.08,-164.4"/>
<polygon fill="black" stroke="black" points="249.4,-167.03 255.19,-158.16 245.13,-161.48 249.4,-167.03"/>
</g>
<!-- n3&#45;&gt;n6 -->
<g id="edge6" class="edge">
<title>n3&#45;&gt;n6</title>
<path fill="none" stroke="black" d="M412.01,-243.81C384.72,-222.96 338.61,-187.71 308.11,-164.4"/>
<polygon fill="black" stroke="black" points="310.02,-161.45 299.95,-158.16 305.77,-167.01 310.02,-161.45"/>
</g>
<!-- n7 -->
<g id="node7" class="node">
<title>n7</title>
<path fill="palegreen" stroke="black" d="M817,-158C817,-158 566,-158 566,-158 560,-158 554,-152 554,-146 554,-146 554,-134 554,-134 554,-128 560,-122 566,-122 566,-122 817,-122 817,-122 823,-122 829,-128 829,-134 829,-134 829,-146 829,-146 829,-152 823,-158 817,-158"/>
<text text-anchor="middle" x="691.5" y="-136.3" font-family="Arial" font-size="14.00">Understanding of sound wave transmission</text>
</g>
<!-- n3&#45;&gt;n7 -->
<g id="edge7" class="edge">
<title>n3&#45;&gt;n7</title>
<path fill="none" stroke="black" d="M471.05,-243.93C517.01,-222.48 595.91,-185.63 645.81,-162.33"/>
<polygon fill="black" stroke="black" points="647.49,-165.41 655.08,-158.01 644.54,-159.06 647.49,-165.41"/>
</g>
<!-- n4&#45;&gt;n7 -->
<g id="edge8" class="edge">
<title>n4&#45;&gt;n7</title>
<path fill="none" stroke="black" d="M760.04,-243.81C746.55,-223.58 724.04,-189.81 708.51,-166.52"/>
<polygon fill="black" stroke="black" points="711.4,-164.54 702.94,-158.16 705.57,-168.42 711.4,-164.54"/>
</g>
<!-- n8 -->
<g id="node8" class="node">
<title>n8</title>
<path fill="palegreen" stroke="black" d="M1184,-158C1184,-158 959,-158 959,-158 953,-158 947,-152 947,-146 947,-146 947,-134 947,-134 947,-128 953,-122 959,-122 959,-122 1184,-122 1184,-122 1190,-122 1196,-128 1196,-134 1196,-134 1196,-146 1196,-146 1196,-152 1190,-158 1184,-158"/>
<text text-anchor="middle" x="1071.5" y="-136.3" font-family="Arial" font-size="14.00">Device solves communication problem</text>
</g>
<!-- n5&#45;&gt;n8 -->
<g id="edge9" class="edge">
<title>n5&#45;&gt;n8</title>
<path fill="none" stroke="black" d="M1123.8,-243.81C1113.6,-223.76 1096.6,-190.4 1084.8,-167.14"/>
<polygon fill="black" stroke="black" points="1087.87,-165.46 1080.2,-158.16 1081.64,-168.66 1087.87,-165.46"/>
</g>
<!-- n9 -->
<g id="node9" class="node">
<title>n9</title>
<polygon fill="lightcoral" stroke="black" points="1437.5,-158 1253.5,-140 1437.5,-122 1621.5,-140 1437.5,-158"/>
<text text-anchor="middle" x="1437.5" y="-136.3" font-family="Arial" font-size="14.00">May not have labeled the cups</text>
</g>
<!-- n5&#45;&gt;n9 -->
<g id="edge10" class="edge">
<title>n5&#45;&gt;n9</title>
<path fill="none" stroke="black" d="M1175.9,-243.93C1233.6,-221.24 1335,-181.34 1393.1,-158.45"/>
<polygon fill="black" stroke="black" points="1394.76,-161.56 1402.8,-154.66 1392.21,-155.04 1394.76,-161.56"/>
</g>
<!-- n10 -->
<g id="node10" class="node">
<title>n10</title>
<polygon fill="#f28e8e" stroke="black" points="1563.5,-36 1311.5,-36 1311.5,0 1563.5,0 1563.5,-36"/>
<text text-anchor="middle" x="1437.5" y="-14.3" font-family="Arial" font-size="14.00">Consider labeling all parts of the device</text>
</g>
<!-- n9&#45;&gt;n10 -->
<g id="edge11" class="edge">
<title>n9&#45;&gt;n10</title>
<path fill="none" stroke="black" d="M1437.5,-121.81C1437.5,-102.11 1437.5,-69.58 1437.5,-46.39"/>
<polygon fill="black" stroke="black" points="1441,-46.16 1437.5,-36.16 1434,-46.16 1441,-46.16"/>
</g>
</g>
</svg>
