<?xml version="1.0" encoding="UTF-8" standalone="no"?>
<!DOCTYPE svg PUBLIC "-//W3C//DTD SVG 1.1//EN"
 "http://www.w3.org/Graphics/SVG/1.1/DTD/svg11.dtd">
<!-- Generated by graphviz version 2.43.0 (0)
 -->
<!-- Pages: 1 -->
<svg width="1207pt" height="410pt"
 viewBox="0.00 0.00 1206.50 410.00" xmlns="http://www.w3.org/2000/svg" xmlns:xlink="http://www.w3.org/1999/xlink">
<g id="graph0" class="graph" transform="scale(1 1) rotate(0) translate(4 406)">
<polygon fill="white" stroke="transparent" points="-4,4 -4,-406 1202.5,-406 1202.5,4 -4,4"/>
<!-- n1 -->
<g id="node1" class="node">
<title>n1</title>
<polygon fill="lightblue" stroke="black" points="620,-384 508.5,-402 285.5,-402 174,-384 285.5,-366 508.5,-366 620,-384"/>
<text text-anchor="middle" x="397" y="-380.3" font-family="Arial" font-size="14.00">Draw a string telephone between two students.</text>
</g>
<!-- n2 -->
<g id="node2" class="node">
<title>n2</title>
<polygon fill="#fffdd0" stroke="black" points="164,-280 0,-280 0,-244 164,-244 164,-280"/>
<text text-anchor="middle" x="82" y="-258.3" font-family="Arial" font-size="14.00">Two stick figure students</text>
</g>
<!-- n1&#45;&gt;n2 -->
<g id="edge1" class="edge">
<title>n1&#45;&gt;n2</title>
<path fill="none" stroke="black" d="M352.2,-365.93C295.29,-344.25 197.14,-306.86 136.11,-283.61"/>
<polygon fill="black" stroke="black" points="137.23,-280.29 126.64,-280.01 134.74,-286.84 137.23,-280.29"/>
</g>
<!-- n3 -->
<g id="node3" class="node">
<title>n3</title>
<polygon fill="#fffdd0" stroke="black" points="366,-280 222,-280 222,-244 366,-244 366,-280"/>
<text text-anchor="middle" x="294" y="-258.3" font-family="Arial" font-size="14.00">Cups at mouth or ear</text>
</g>
<!-- n1&#45;&gt;n3 -->
<g id="edge2" class="edge">
<title>n1&#45;&gt;n3</title>
<path fill="none" stroke="black" d="M382.24,-365.81C364.73,-345.4 335.38,-311.21 315.38,-287.91"/>
<polygon fill="black" stroke="black" points="317.9,-285.47 308.73,-280.16 312.59,-290.03 317.9,-285.47"/>
</g>
<!-- n4 -->
<g id="node4" class="node">
<title>n4</title>
<polygon fill="#fffdd0" stroke="black" points="577.5,-280 424.5,-280 424.5,-244 577.5,-244 577.5,-280"/>
<text text-anchor="middle" x="501" y="-258.3" font-family="Arial" font-size="14.00">String connecting cups</text>
</g>
<!-- n1&#45;&gt;n4 -->
<g id="edge3" class="edge">
<title>n1&#45;&gt;n4</title>
<path fill="none" stroke="black" d="M411.9,-365.81C429.59,-345.4 459.22,-311.21 479.41,-287.91"/>
<polygon fill="black" stroke="black" points="482.22,-290.01 486.13,-280.16 476.93,-285.42 482.22,-290.01"/>
</g>
<!-- n5 -->
<g id="node5" class="node">
<title>n5</title>
<polygon fill="#fffdd0" stroke="black" points="844.5,-280 635.5,-280 635.5,-244 844.5,-244 844.5,-280"/>
<text text-anchor="middle" x="740" y="-258.3" font-family="Arial" font-size="14.00">Outdoor scene with green grass</text>
</g>
<!-- n1&#45;&gt;n5 -->
<g id="edge4" class="edge">
<title>n1&#45;&gt;n5</title>
<path fill="none" stroke="black" d="M445.78,-365.93C508.01,-344.16 615.5,-306.56 681.9,-283.33"/>
<polygon fill="black" stroke="black" points="683.11,-286.62 691.39,-280.01 680.8,-280.01 683.11,-286.62"/>
</g>
<!-- n6 -->
<g id="node6" class="node">
<title>n6</title>
<path fill="palegreen" stroke="black" d="M258.5,-158C258.5,-158 65.5,-158 65.5,-158 59.5,-158 53.5,-152 53.5,-146 53.5,-146 53.5,-134 53.5,-134 53.5,-128 59.5,-122 65.5,-122 65.5,-122 258.5,-122 258.5,-122 264.5,-122 270.5,-128 270.5,-134 270.5,-134 270.5,-146 270.5,-146 270.5,-152 264.5,-158 258.5,-158"/>
<text text-anchor="middle" x="162" y="-136.3" font-family="Arial" font-size="14.00">Aligns with use of string and cups</text>
</g>
<!-- n2&#45;&gt;n6 -->
<g id="edge5" class="edge">
<title>n2&#45;&gt;n6</title>
<path fill="none" stroke="black" d="M93.46,-243.81C106.95,-223.58 129.46,-189.81 144.99,-166.52"/>
<polygon fill="black" stroke="black" points="147.93,-168.42 150.56,-158.16 142.1,-164.54 147.93,-168.42"/>
</g>
<!-- n3&#45;&gt;n6 -->
<g id="edge6" class="edge">
<title>n3&#45;&gt;n6</title>
<path fill="none" stroke="black" d="M275.09,-243.81C252.35,-223.13 214.04,-188.31 188.4,-165"/>
<polygon fill="black" stroke="black" points="190.63,-162.3 180.88,-158.16 185.92,-167.48 190.63,-162.3"/>
</g>
<!-- n4&#45;&gt;n6 -->
<g id="edge7" class="edge">
<title>n4&#45;&gt;n6</title>
<path fill="none" stroke="black" d="M452.79,-243.93C391.41,-222.21 285.48,-184.71 219.83,-161.47"/>
<polygon fill="black" stroke="black" points="220.63,-158.04 210.04,-158.01 218.3,-164.64 220.63,-158.04"/>
</g>
<!-- n7 -->
<g id="node7" class="node">
<title>n7</title>
<polygon fill="lightcoral" stroke="black" points="501,-158 328,-140 501,-122 674,-140 501,-158"/>
<text text-anchor="middle" x="501" y="-136.3" font-family="Arial" font-size="14.00">Does not show sound waves</text>
</g>
<!-- n4&#45;&gt;n7 -->
<g id="edge8" class="edge">
<title>n4&#45;&gt;n7</title>
<path fill="none" stroke="black" d="M501,-243.81C501,-224.11 501,-191.58 501,-168.39"/>
<polygon fill="black" stroke="black" points="504.5,-168.16 501,-158.16 497.5,-168.16 504.5,-168.16"/>
</g>
<!-- n8 -->
<g id="node8" class="node">
<title>n8</title>
<polygon fill="lightcoral" stroke="black" points="965,-158 731.5,-140 965,-122 1198.5,-140 965,-158"/>
<text text-anchor="middle" x="965" y="-136.3" font-family="Arial" font-size="14.00">No depiction of communication process</text>
</g>
<!-- n4&#45;&gt;n8 -->
<g id="edge9" class="edge">
<title>n4&#45;&gt;n8</title>
<path fill="none" stroke="black" d="M566.99,-243.93C657.09,-220.63 817.35,-179.19 904.5,-156.65"/>
<polygon fill="black" stroke="black" points="905.44,-160.02 914.24,-154.13 903.68,-153.25 905.44,-160.02"/>
</g>
<!-- n9 -->
<g id="node9" class="node">
<title>n9</title>
<polygon fill="#f28e8e" stroke="black" points="616,-36 386,-36 386,0 616,0 616,-36"/>
<text text-anchor="middle" x="501" y="-14.3" font-family="Arial" font-size="14.00">Needs illustration of sound traveling</text>
</g>
<!-- n7&#45;&gt;n9 -->
<g id="edge10" class="edge">
<title>n7&#45;&gt;n9</title>
<path fill="none" stroke="black" d="M501,-121.81C501,-102.11 501,-69.58 501,-46.39"/>
<polygon fill="black" stroke="black" points="504.5,-46.16 501,-36.16 497.5,-46.16 504.5,-46.16"/>
</g>
<!-- n10 -->
<g id="node10" class="node">
<title>n10</title>
<polygon fill="#f28e8e" stroke="black" points="1118,-36 812,-36 812,0 1118,0 1118,-36"/>
<text text-anchor="middle" x="965" y="-14.3" font-family="Arial" font-size="14.00">Needs demonstration of communication method</text>
</g>
<!-- n8&#45;&gt;n10 -->
<g id="edge11" class="edge">
<title>n8&#45;&gt;n10</title>
<path fill="none" stroke="black" d="M965,-121.81C965,-102.11 965,-69.58 965,-46.39"/>
<polygon fill="black" stroke="black" points="968.5,-46.16 965,-36.16 961.5,-46.16 968.5,-46.16"/>
</g>
</g>
</svg>
