<?xml version="1.0" encoding="UTF-8" standalone="no"?>
<!DOCTYPE svg PUBLIC "-//W3C//DTD SVG 1.1//EN"
 "http://www.w3.org/Graphics/SVG/1.1/DTD/svg11.dtd">
<!-- Generated by graphviz version 2.43.0 (0)
 -->
<!-- Pages: 1 -->
<svg width="1218pt" height="410pt"
 viewBox="0.00 0.00 1218.00 410.00" xmlns="http://www.w3.org/2000/svg" xmlns:xlink="http://www.w3.org/1999/xlink">
<g id="graph0" class="graph" transform="scale(1 1) rotate(0) translate(4 406)">
<polygon fill="white" stroke="transparent" points="-4,4 -4,-406 1214,-406 1214,4 -4,4"/>
<!-- n1 -->
<g id="node1" class="node">
<title>n1</title>
<polygon fill="lightblue" stroke="black" points="1070,-384 906,-402 578,-402 414,-384 578,-366 906,-366 1070,-384"/>
<text text-anchor="middle" x="742" y="-380.3" font-family="Arial" font-size="14.00">Draw reversible and irreversible changes (ice melting vs. egg cooking)</text>
</g>
<!-- n2 -->
<g id="node2" class="node">
<title>n2</title>
<polygon fill="#fffdd0" stroke="black" points="649,-280 481,-280 481,-244 649,-244 649,-280"/>
<text text-anchor="middle" x="565" y="-258.3" font-family="Arial" font-size="14.00">Ice block and liquid water</text>
</g>
<!-- n1&#45;&gt;n2 -->
<g id="edge1" class="edge">
<title>n1&#45;&gt;n2</title>
<path fill="none" stroke="black" d="M716.64,-365.81C685.62,-344.78 633.01,-309.11 598.63,-285.8"/>
<polygon fill="black" stroke="black" points="600.55,-282.87 590.31,-280.16 596.62,-288.67 600.55,-282.87"/>
</g>
<!-- n3 -->
<g id="node3" class="node">
<title>n3</title>
<polygon fill="#fffdd0" stroke="black" points="1004,-280 834,-280 834,-244 1004,-244 1004,-280"/>
<text text-anchor="middle" x="919" y="-258.3" font-family="Arial" font-size="14.00">Raw egg and cooked egg</text>
</g>
<!-- n1&#45;&gt;n3 -->
<g id="edge2" class="edge">
<title>n1&#45;&gt;n3</title>
<path fill="none" stroke="black" d="M767.36,-365.81C798.38,-344.78 850.99,-309.11 885.37,-285.8"/>
<polygon fill="black" stroke="black" points="887.38,-288.67 893.69,-280.16 883.45,-282.87 887.38,-288.67"/>
</g>
<!-- n4 -->
<g id="node4" class="node">
<title>n4</title>
<path fill="palegreen" stroke="black" d="M234,-158C234,-158 12,-158 12,-158 6,-158 0,-152 0,-146 0,-146 0,-134 0,-134 0,-128 6,-122 12,-122 12,-122 234,-122 234,-122 240,-122 246,-128 246,-134 246,-134 246,-146 246,-146 246,-152 240,-158 234,-158"/>
<text text-anchor="middle" x="123" y="-136.3" font-family="Arial" font-size="14.00">Understands: Ice to water is reversible</text>
</g>
<!-- n2&#45;&gt;n4 -->
<g id="edge3" class="edge">
<title>n2&#45;&gt;n4</title>
<path fill="none" stroke="black" d="M502.14,-243.93C421.21,-221.96 280.87,-183.86 195.51,-160.69"/>
<polygon fill="black" stroke="black" points="196.21,-157.25 185.64,-158.01 194.37,-164.01 196.21,-157.25"/>
</g>
<!-- n5 -->
<g id="node5" class="node">
<title>n5</title>
<polygon fill="lightcoral" stroke="black" points="565,-158 303.92,-140 565,-122 826.08,-140 565,-158"/>
<text text-anchor="middle" x="565" y="-136.3" font-family="Arial" font-size="14.00">Misunderstands: Does not clarify reversibility</text>
</g>
<!-- n2&#45;&gt;n5 -->
<g id="edge4" class="edge">
<title>n2&#45;&gt;n5</title>
<path fill="none" stroke="black" d="M565,-243.81C565,-224.11 565,-191.58 565,-168.39"/>
<polygon fill="black" stroke="black" points="568.5,-168.16 565,-158.16 561.5,-168.16 568.5,-168.16"/>
</g>
<!-- n6 -->
<g id="node6" class="node">
<title>n6</title>
<path fill="palegreen" stroke="black" d="M1198,-158C1198,-158 896,-158 896,-158 890,-158 884,-152 884,-146 884,-146 884,-134 884,-134 884,-128 890,-122 896,-122 896,-122 1198,-122 1198,-122 1204,-122 1210,-128 1210,-134 1210,-134 1210,-146 1210,-146 1210,-152 1204,-158 1198,-158"/>
<text text-anchor="middle" x="1047" y="-136.3" font-family="Arial" font-size="14.00">Understands: Raw egg to cooked egg is irreversible</text>
</g>
<!-- n3&#45;&gt;n6 -->
<g id="edge5" class="edge">
<title>n3&#45;&gt;n6</title>
<path fill="none" stroke="black" d="M937.34,-243.81C959.3,-223.22 996.21,-188.61 1021.1,-165.3"/>
<polygon fill="black" stroke="black" points="1023.81,-167.56 1028.7,-158.16 1019.02,-162.46 1023.81,-167.56"/>
</g>
<!-- n7 -->
<g id="node7" class="node">
<title>n7</title>
<polygon fill="#f28e8e" stroke="black" points="738.5,-36 391.5,-36 391.5,0 738.5,0 738.5,-36"/>
<text text-anchor="middle" x="565" y="-14.3" font-family="Arial" font-size="14.00">Feedback: Clarify evidence of reversible vs. irreversible</text>
</g>
<!-- n5&#45;&gt;n7 -->
<g id="edge6" class="edge">
<title>n5&#45;&gt;n7</title>
<path fill="none" stroke="black" d="M565,-121.81C565,-102.11 565,-69.58 565,-46.39"/>
<polygon fill="black" stroke="black" points="568.5,-46.16 565,-36.16 561.5,-46.16 568.5,-46.16"/>
</g>
</g>
</svg>
