<?xml version="1.0" encoding="UTF-8" standalone="no"?>
<!DOCTYPE svg PUBLIC "-//W3C//DTD SVG 1.1//EN"
 "http://www.w3.org/Graphics/SVG/1.1/DTD/svg11.dtd">
<!-- Generated by graphviz version 2.43.0 (0)
 -->
<!-- Pages: 1 -->
<svg width="1947pt" height="288pt"
 viewBox="0.00 0.00 1946.50 288.00" xmlns="http://www.w3.org/2000/svg" xmlns:xlink="http://www.w3.org/1999/xlink">
<g id="graph0" class="graph" transform="scale(1 1) rotate(0) translate(4 284)">
<polygon fill="white" stroke="transparent" points="-4,4 -4,-284 1942.5,-284 1942.5,4 -4,4"/>
<!-- n1 -->
<g id="node1" class="node">
<title>n1</title>
<polygon fill="lightblue" stroke="black" points="1216,-262 1102.25,-280 874.75,-280 761,-262 874.75,-244 1102.25,-244 1216,-262"/>
<text text-anchor="middle" x="988.5" y="-258.3" font-family="Arial" font-size="14.00">Illustrate plants with and without water and light.</text>
</g>
<!-- n2 -->
<g id="node2" class="node">
<title>n2</title>
<polygon fill="#fffdd0" stroke="black" points="479,-158 0,-158 0,-122 479,-122 479,-158"/>
<text text-anchor="middle" x="239.5" y="-136.3" font-family="Arial" font-size="14.00">Healthy plant with vibrant green leaves in dark, moist soil, and visible sunlight</text>
</g>
<!-- n1&#45;&gt;n2 -->
<g id="edge1" class="edge">
<title>n1&#45;&gt;n2</title>
<path fill="none" stroke="black" d="M882.38,-244C743.26,-221.71 500.04,-182.74 355.97,-159.66"/>
<polygon fill="black" stroke="black" points="356.2,-156.15 345.77,-158.03 355.09,-163.06 356.2,-156.15"/>
</g>
<!-- n3 -->
<g id="node3" class="node">
<title>n3</title>
<polygon fill="#fffdd0" stroke="black" points="950,-158 537,-158 537,-122 950,-122 950,-158"/>
<text text-anchor="middle" x="743.5" y="-136.3" font-family="Arial" font-size="14.00">Wilted plant with brown leaves in dry, cracked soil, and no sunlight</text>
</g>
<!-- n1&#45;&gt;n3 -->
<g id="edge2" class="edge">
<title>n1&#45;&gt;n3</title>
<path fill="none" stroke="black" d="M953.66,-243.93C909.94,-222.52 834.93,-185.78 787.36,-162.48"/>
<polygon fill="black" stroke="black" points="788.74,-159.26 778.22,-158.01 785.67,-165.55 788.74,-159.26"/>
</g>
<!-- n4 -->
<g id="node4" class="node">
<title>n4</title>
<polygon fill="#fffdd0" stroke="black" points="1458.5,-158 1008.5,-158 1008.5,-122 1458.5,-122 1458.5,-158"/>
<text text-anchor="middle" x="1233.5" y="-136.3" font-family="Arial" font-size="14.00">Plant in light with robust growth vs. plant in darkness with stunted growth</text>
</g>
<!-- n1&#45;&gt;n4 -->
<g id="edge3" class="edge">
<title>n1&#45;&gt;n4</title>
<path fill="none" stroke="black" d="M1023.3,-243.93C1067.1,-222.52 1142.1,-185.78 1189.6,-162.48"/>
<polygon fill="black" stroke="black" points="1191.34,-165.53 1198.8,-158.01 1188.28,-159.23 1191.34,-165.53"/>
</g>
<!-- n5 -->
<g id="node5" class="node">
<title>n5</title>
<polygon fill="#fffdd0" stroke="black" points="1938.5,-158 1516.5,-158 1516.5,-122 1938.5,-122 1938.5,-158"/>
<text text-anchor="middle" x="1727.5" y="-136.3" font-family="Arial" font-size="14.00">Sequence of plant growth stages illustrating need for water and light</text>
</g>
<!-- n1&#45;&gt;n5 -->
<g id="edge4" class="edge">
<title>n1&#45;&gt;n5</title>
<path fill="none" stroke="black" d="M1093.2,-244C1230.5,-221.71 1470.4,-182.74 1612.6,-159.66"/>
<polygon fill="black" stroke="black" points="1613.29,-163.09 1622.6,-158.03 1612.17,-156.18 1613.29,-163.09"/>
</g>
<!-- n6 -->
<g id="node6" class="node">
<title>n6</title>
<path fill="palegreen" stroke="black" d="M408,-36C408,-36 71,-36 71,-36 65,-36 59,-30 59,-24 59,-24 59,-12 59,-12 59,-6 65,0 71,0 71,0 408,0 408,0 414,0 420,-6 420,-12 420,-12 420,-24 420,-24 420,-30 414,-36 408,-36"/>
<text text-anchor="middle" x="239.5" y="-14.3" font-family="Arial" font-size="14.00">Understands healthy plants need water and light to thrive.</text>
</g>
<!-- n2&#45;&gt;n6 -->
<g id="edge5" class="edge">
<title>n2&#45;&gt;n6</title>
<path fill="none" stroke="black" d="M239.5,-121.81C239.5,-102.11 239.5,-69.58 239.5,-46.39"/>
<polygon fill="black" stroke="black" points="243,-46.16 239.5,-36.16 236,-46.16 243,-46.16"/>
</g>
<!-- n7 -->
<g id="node7" class="node">
<title>n7</title>
<path fill="palegreen" stroke="black" d="M923.5,-36C923.5,-36 563.5,-36 563.5,-36 557.5,-36 551.5,-30 551.5,-24 551.5,-24 551.5,-12 551.5,-12 551.5,-6 557.5,0 563.5,0 563.5,0 923.5,0 923.5,0 929.5,0 935.5,-6 935.5,-12 935.5,-12 935.5,-24 935.5,-24 935.5,-30 929.5,-36 923.5,-36"/>
<text text-anchor="middle" x="743.5" y="-14.3" font-family="Arial" font-size="14.00">Understands lack of water and light leads to unhealthy plants.</text>
</g>
<!-- n3&#45;&gt;n7 -->
<g id="edge6" class="edge">
<title>n3&#45;&gt;n7</title>
<path fill="none" stroke="black" d="M743.5,-121.81C743.5,-102.11 743.5,-69.58 743.5,-46.39"/>
<polygon fill="black" stroke="black" points="747,-46.16 743.5,-36.16 740,-46.16 747,-46.16"/>
</g>
<!-- n8 -->
<g id="node8" class="node">
<title>n8</title>
<path fill="palegreen" stroke="black" d="M1403.5,-36C1403.5,-36 1063.5,-36 1063.5,-36 1057.5,-36 1051.5,-30 1051.5,-24 1051.5,-24 1051.5,-12 1051.5,-12 1051.5,-6 1057.5,0 1063.5,0 1063.5,0 1403.5,0 1403.5,0 1409.5,0 1415.5,-6 1415.5,-12 1415.5,-12 1415.5,-24 1415.5,-24 1415.5,-30 1409.5,-36 1403.5,-36"/>
<text text-anchor="middle" x="1233.5" y="-14.3" font-family="Arial" font-size="14.00">Recognizes the impact of light on plant growth and health.</text>
</g>
<!-- n4&#45;&gt;n8 -->
<g id="edge7" class="edge">
<title>n4&#45;&gt;n8</title>
<path fill="none" stroke="black" d="M1233.5,-121.81C1233.5,-102.11 1233.5,-69.58 1233.5,-46.39"/>
<polygon fill="black" stroke="black" points="1237,-46.16 1233.5,-36.16 1230,-46.16 1237,-46.16"/>
</g>
<!-- n9 -->
<g id="node9" class="node">
<title>n9</title>
<path fill="palegreen" stroke="black" d="M1888,-36C1888,-36 1567,-36 1567,-36 1561,-36 1555,-30 1555,-24 1555,-24 1555,-12 1555,-12 1555,-6 1561,0 1567,0 1567,0 1888,0 1888,0 1894,0 1900,-6 1900,-12 1900,-12 1900,-24 1900,-24 1900,-30 1894,-36 1888,-36"/>
<text text-anchor="middle" x="1727.5" y="-14.3" font-family="Arial" font-size="14.00">Demonstrates growth patterns needing water and light.</text>
</g>
<!-- n5&#45;&gt;n9 -->
<g id="edge8" class="edge">
<title>n5&#45;&gt;n9</title>
<path fill="none" stroke="black" d="M1727.5,-121.81C1727.5,-102.11 1727.5,-69.58 1727.5,-46.39"/>
<polygon fill="black" stroke="black" points="1731,-46.16 1727.5,-36.16 1724,-46.16 1731,-46.16"/>
</g>
</g>
</svg>
