<?xml version="1.0" encoding="UTF-8" standalone="no"?>
<!DOCTYPE svg PUBLIC "-//W3C//DTD SVG 1.1//EN"
 "http://www.w3.org/Graphics/SVG/1.1/DTD/svg11.dtd">
<!-- Generated by graphviz version 2.43.0 (0)
 -->
<!-- Pages: 1 -->
<svg width="1495pt" height="410pt"
 viewBox="0.00 0.00 1495.00 410.00" xmlns="http://www.w3.org/2000/svg" xmlns:xlink="http://www.w3.org/1999/xlink">
<g id="graph0" class="graph" transform="scale(1 1) rotate(0) translate(4 406)">
<polygon fill="white" stroke="transparent" points="-4,4 -4,-406 1491,-406 1491,4 -4,4"/>
<!-- n1 -->
<g id="node1" class="node">
<title>n1</title>
<polygon fill="lightblue" stroke="black" points="686.24,-384 593.12,-402 406.88,-402 313.76,-384 406.88,-366 593.12,-366 686.24,-384"/>
<text text-anchor="middle" x="500" y="-380.3" font-family="Arial" font-size="14.00">Illustrate plants with and without water.</text>
</g>
<!-- n2 -->
<g id="node2" class="node">
<title>n2</title>
<polygon fill="#fffdd0" stroke="black" points="460,-280 12,-280 12,-244 460,-244 460,-280"/>
<text text-anchor="middle" x="236" y="-258.3" font-family="Arial" font-size="14.00">Healthy plant with water and sunlight, bright green leaves, upright stems</text>
</g>
<!-- n1&#45;&gt;n2 -->
<g id="edge1" class="edge">
<title>n1&#45;&gt;n2</title>
<path fill="none" stroke="black" d="M462.46,-365.93C415.15,-344.43 333.85,-307.48 282.62,-284.19"/>
<polygon fill="black" stroke="black" points="283.96,-280.96 273.41,-280.01 281.07,-287.33 283.96,-280.96"/>
</g>
<!-- n3 -->
<g id="node3" class="node">
<title>n3</title>
<polygon fill="#fffdd0" stroke="black" points="1018.5,-280 527.5,-280 527.5,-244 1018.5,-244 1018.5,-280"/>
<text text-anchor="middle" x="773" y="-258.3" font-family="Arial" font-size="14.00">Unhealthy plant, no water and no sunlight, wilted brown leaves, drooping stems</text>
</g>
<!-- n1&#45;&gt;n3 -->
<g id="edge2" class="edge">
<title>n1&#45;&gt;n3</title>
<path fill="none" stroke="black" d="M538.82,-365.93C587.85,-344.39 672.16,-307.32 725.12,-284.04"/>
<polygon fill="black" stroke="black" points="726.56,-287.23 734.31,-280.01 723.75,-280.82 726.56,-287.23"/>
</g>
<!-- n4 -->
<g id="node4" class="node">
<title>n4</title>
<path fill="palegreen" stroke="black" d="M440,-158C440,-158 12,-158 12,-158 6,-158 0,-152 0,-146 0,-146 0,-134 0,-134 0,-128 6,-122 12,-122 12,-122 440,-122 440,-122 446,-122 452,-128 452,-134 452,-134 452,-146 452,-146 452,-152 446,-158 440,-158"/>
<text text-anchor="middle" x="226" y="-136.3" font-family="Arial" font-size="14.00">Understands that plants are healthy and growing with water and sunlight.</text>
</g>
<!-- n2&#45;&gt;n4 -->
<g id="edge3" class="edge">
<title>n2&#45;&gt;n4</title>
<path fill="none" stroke="black" d="M234.57,-243.81C232.93,-224.11 230.22,-191.58 228.28,-168.39"/>
<polygon fill="black" stroke="black" points="231.75,-167.84 227.43,-158.16 224.77,-168.42 231.75,-167.84"/>
</g>
<!-- n5 -->
<g id="node5" class="node">
<title>n5</title>
<path fill="palegreen" stroke="black" d="M1023.5,-158C1023.5,-158 522.5,-158 522.5,-158 516.5,-158 510.5,-152 510.5,-146 510.5,-146 510.5,-134 510.5,-134 510.5,-128 516.5,-122 522.5,-122 522.5,-122 1023.5,-122 1023.5,-122 1029.5,-122 1035.5,-128 1035.5,-134 1035.5,-134 1035.5,-146 1035.5,-146 1035.5,-152 1029.5,-158 1023.5,-158"/>
<text text-anchor="middle" x="773" y="-136.3" font-family="Arial" font-size="14.00">Understands that lack of water and sunlight makes plants unhealthy and not growing.</text>
</g>
<!-- n3&#45;&gt;n5 -->
<g id="edge4" class="edge">
<title>n3&#45;&gt;n5</title>
<path fill="none" stroke="black" d="M773,-243.81C773,-224.11 773,-191.58 773,-168.39"/>
<polygon fill="black" stroke="black" points="776.5,-168.16 773,-158.16 769.5,-168.16 776.5,-168.16"/>
</g>
<!-- n6 -->
<g id="node6" class="node">
<title>n6</title>
<polygon fill="lightcoral" stroke="black" points="1269,-158 1093.38,-140 1269,-122 1444.62,-140 1269,-158"/>
<text text-anchor="middle" x="1269" y="-136.3" font-family="Arial" font-size="14.00">Did not label the light source.</text>
</g>
<!-- n3&#45;&gt;n6 -->
<g id="edge5" class="edge">
<title>n3&#45;&gt;n6</title>
<path fill="none" stroke="black" d="M843.28,-244C941.29,-220.29 1117.3,-177.7 1209.3,-155.44"/>
<polygon fill="black" stroke="black" points="1210.4,-158.77 1219.3,-153.02 1208.76,-151.97 1210.4,-158.77"/>
</g>
<!-- n7 -->
<g id="node7" class="node">
<title>n7</title>
<polygon fill="#f28e8e" stroke="black" points="1487,-36 1051,-36 1051,0 1487,0 1487,-36"/>
<text text-anchor="middle" x="1269" y="-14.3" font-family="Arial" font-size="14.00">Add label for sunlight source to improve understanding of plant needs.</text>
</g>
<!-- n6&#45;&gt;n7 -->
<g id="edge6" class="edge">
<title>n6&#45;&gt;n7</title>
<path fill="none" stroke="black" d="M1269,-121.81C1269,-102.11 1269,-69.58 1269,-46.39"/>
<polygon fill="black" stroke="black" points="1272.5,-46.16 1269,-36.16 1265.5,-46.16 1272.5,-46.16"/>
</g>
</g>
</svg>
