<?xml version="1.0" encoding="UTF-8" standalone="no"?>
<!DOCTYPE svg PUBLIC "-//W3C//DTD SVG 1.1//EN"
 "http://www.w3.org/Graphics/SVG/1.1/DTD/svg11.dtd">
<!-- Generated by graphviz version 2.43.0 (0)
 -->
<!-- Pages: 1 -->
<svg width="1537pt" height="532pt"
 viewBox="0.00 0.00 1536.50 532.00" xmlns="http://www.w3.org/2000/svg" xmlns:xlink="http://www.w3.org/1999/xlink">
<g id="graph0" class="graph" transform="scale(1 1) rotate(0) translate(4 528)">
<polygon fill="white" stroke="transparent" points="-4,4 -4,-528 1532.5,-528 1532.5,4 -4,4"/>
<!-- n1 -->
<g id="node1" class="node">
<title>n1</title>
<polygon fill="lightblue" stroke="black" points="1085,-506 921,-524 593,-524 429,-506 593,-488 921,-488 1085,-506"/>
<text text-anchor="middle" x="757" y="-502.3" font-family="Arial" font-size="14.00">Draw reversible and irreversible changes (ice melting vs. egg cooking)</text>
</g>
<!-- n2 -->
<g id="node2" class="node">
<title>n2</title>
<polygon fill="#fffdd0" stroke="black" points="899,-402 615,-402 615,-366 899,-366 899,-402"/>
<text text-anchor="middle" x="757" y="-380.3" font-family="Arial" font-size="14.00">Split image with ice melting and egg cooking</text>
</g>
<!-- n1&#45;&gt;n2 -->
<g id="edge1" class="edge">
<title>n1&#45;&gt;n2</title>
<path fill="none" stroke="black" d="M757,-487.81C757,-468.11 757,-435.58 757,-412.39"/>
<polygon fill="black" stroke="black" points="760.5,-412.16 757,-402.16 753.5,-412.16 760.5,-412.16"/>
</g>
<!-- n3 -->
<g id="node3" class="node">
<title>n3</title>
<polygon fill="#fffdd0" stroke="black" points="730,-280 428,-280 428,-244 730,-244 730,-280"/>
<text text-anchor="middle" x="579" y="-258.3" font-family="Arial" font-size="14.00">Ice melting: Arrows indicating reversible change</text>
</g>
<!-- n2&#45;&gt;n3 -->
<g id="edge2" class="edge">
<title>n2&#45;&gt;n3</title>
<path fill="none" stroke="black" d="M731.5,-365.81C700.3,-344.78 647.39,-309.11 612.82,-285.8"/>
<polygon fill="black" stroke="black" points="614.71,-282.85 604.46,-280.16 610.79,-288.65 614.71,-282.85"/>
</g>
<!-- n4 -->
<g id="node4" class="node">
<title>n4</title>
<polygon fill="#fffdd0" stroke="black" points="1198.5,-280 905.5,-280 905.5,-244 1198.5,-244 1198.5,-280"/>
<text text-anchor="middle" x="1052" y="-258.3" font-family="Arial" font-size="14.00">Egg cooking: Arrows indicating reversal to raw</text>
</g>
<!-- n2&#45;&gt;n4 -->
<g id="edge3" class="edge">
<title>n2&#45;&gt;n4</title>
<path fill="none" stroke="black" d="M798.95,-365.93C852.03,-344.34 943.41,-307.17 1000.6,-283.9"/>
<polygon fill="black" stroke="black" points="1002.25,-287.01 1010.2,-280.01 999.62,-280.52 1002.25,-287.01"/>
</g>
<!-- n5 -->
<g id="node5" class="node">
<title>n5</title>
<path fill="palegreen" stroke="black" d="M334,-158C334,-158 12,-158 12,-158 6,-158 0,-152 0,-146 0,-146 0,-134 0,-134 0,-128 6,-122 12,-122 12,-122 334,-122 334,-122 340,-122 346,-128 346,-134 346,-134 346,-146 346,-146 346,-152 340,-158 334,-158"/>
<text text-anchor="middle" x="173" y="-136.3" font-family="Arial" font-size="14.00">Understands reversible changes: Ice to water and back</text>
</g>
<!-- n3&#45;&gt;n5 -->
<g id="edge4" class="edge">
<title>n3&#45;&gt;n5</title>
<path fill="none" stroke="black" d="M521.26,-243.93C447.15,-222.03 318.8,-184.09 240.33,-160.9"/>
<polygon fill="black" stroke="black" points="241.12,-157.48 230.54,-158.01 239.14,-164.2 241.12,-157.48"/>
</g>
<!-- n7 -->
<g id="node6" class="node">
<title>n7</title>
<path fill="palegreen" stroke="black" d="M741.5,-158C741.5,-158 416.5,-158 416.5,-158 410.5,-158 404.5,-152 404.5,-146 404.5,-146 404.5,-134 404.5,-134 404.5,-128 410.5,-122 416.5,-122 416.5,-122 741.5,-122 741.5,-122 747.5,-122 753.5,-128 753.5,-134 753.5,-134 753.5,-146 753.5,-146 753.5,-152 747.5,-158 741.5,-158"/>
<text text-anchor="middle" x="579" y="-136.3" font-family="Arial" font-size="14.00">Correct understanding: Some changes can be reversed</text>
</g>
<!-- n3&#45;&gt;n7 -->
<g id="edge5" class="edge">
<title>n3&#45;&gt;n7</title>
<path fill="none" stroke="black" d="M579,-243.81C579,-224.11 579,-191.58 579,-168.39"/>
<polygon fill="black" stroke="black" points="582.5,-168.16 579,-158.16 575.5,-168.16 582.5,-168.16"/>
</g>
<!-- n6 -->
<g id="node7" class="node">
<title>n6</title>
<polygon fill="lightcoral" stroke="black" points="1170,-158 811.5,-140 1170,-122 1528.5,-140 1170,-158"/>
<text text-anchor="middle" x="1170" y="-136.3" font-family="Arial" font-size="14.00">Misunderstands irreversible changes: Cooked egg back to raw</text>
</g>
<!-- n4&#45;&gt;n6 -->
<g id="edge6" class="edge">
<title>n4&#45;&gt;n6</title>
<path fill="none" stroke="black" d="M1068.9,-243.81C1089.3,-223.08 1123.7,-188.13 1146.6,-164.81"/>
<polygon fill="black" stroke="black" points="1149.38,-166.97 1153.9,-157.39 1144.39,-162.06 1149.38,-166.97"/>
</g>
<!-- n8 -->
<g id="node8" class="node">
<title>n8</title>
<polygon fill="#f28e8e" stroke="black" points="1335.5,-36 1004.5,-36 1004.5,0 1335.5,0 1335.5,-36"/>
<text text-anchor="middle" x="1170" y="-14.3" font-family="Arial" font-size="14.00">Feedback: Explain irreversible nature of egg cooking</text>
</g>
<!-- n6&#45;&gt;n8 -->
<g id="edge7" class="edge">
<title>n6&#45;&gt;n8</title>
<path fill="none" stroke="black" d="M1170,-121.81C1170,-102.11 1170,-69.58 1170,-46.39"/>
<polygon fill="black" stroke="black" points="1173.5,-46.16 1170,-36.16 1166.5,-46.16 1173.5,-46.16"/>
</g>
</g>
</svg>
