<?xml version="1.0" encoding="UTF-8" standalone="no"?>
<!DOCTYPE svg PUBLIC "-//W3C//DTD SVG 1.1//EN"
 "http://www.w3.org/Graphics/SVG/1.1/DTD/svg11.dtd">
<!-- Generated by graphviz version 2.43.0 (0)
 -->
<!-- Pages: 1 -->
<svg width="1879pt" height="410pt"
 viewBox="0.00 0.00 1878.50 410.00" xmlns="http://www.w3.org/2000/svg" xmlns:xlink="http://www.w3.org/1999/xlink">
<g id="graph0" class="graph" transform="scale(1 1) rotate(0) translate(4 406)">
<polygon fill="white" stroke="transparent" points="-4,4 -4,-406 1874.5,-406 1874.5,4 -4,4"/>
<!-- n1 -->
<g id="node1" class="node">
<title>n1</title>
<polygon fill="lightblue" stroke="black" points="770,-384 680.25,-402 500.75,-402 411,-384 500.75,-366 680.25,-366 770,-384"/>
<text text-anchor="middle" x="590.5" y="-380.3" font-family="Arial" font-size="14.00">Draw a fish in their habitat with labels</text>
</g>
<!-- n2 -->
<g id="node2" class="node">
<title>n2</title>
<polygon fill="#fffdd0" stroke="black" points="267.5,-280 7.5,-280 7.5,-244 267.5,-244 267.5,-280"/>
<text text-anchor="middle" x="137.5" y="-258.3" font-family="Arial" font-size="14.00">A long&#45;shaped fish with fins, tail, and eye</text>
</g>
<!-- n1&#45;&gt;n2 -->
<g id="edge1" class="edge">
<title>n1&#45;&gt;n2</title>
<path fill="none" stroke="black" d="M526.08,-365.93C443.05,-343.94 299.01,-305.78 211.55,-282.62"/>
<polygon fill="black" stroke="black" points="212.26,-279.19 201.7,-280.01 210.47,-285.95 212.26,-279.19"/>
</g>
<!-- n3 -->
<g id="node3" class="node">
<title>n3</title>
<polygon fill="#fffdd0" stroke="black" points="571,-280 326,-280 326,-244 571,-244 571,-280"/>
<text text-anchor="middle" x="448.5" y="-258.3" font-family="Arial" font-size="14.00">Colorful fish with bright reds and blues</text>
</g>
<!-- n1&#45;&gt;n3 -->
<g id="edge2" class="edge">
<title>n1&#45;&gt;n3</title>
<path fill="none" stroke="black" d="M570.15,-365.81C545.59,-345.04 504.13,-310.01 476.54,-286.7"/>
<polygon fill="black" stroke="black" points="478.7,-283.95 468.81,-280.16 474.18,-289.29 478.7,-283.95"/>
</g>
<!-- n4 -->
<g id="node4" class="node">
<title>n4</title>
<polygon fill="#fffdd0" stroke="black" points="838,-280 629,-280 629,-244 838,-244 838,-280"/>
<text text-anchor="middle" x="733.5" y="-258.3" font-family="Arial" font-size="14.00">Absence of water in the drawing</text>
</g>
<!-- n1&#45;&gt;n4 -->
<g id="edge3" class="edge">
<title>n1&#45;&gt;n4</title>
<path fill="none" stroke="black" d="M610.99,-365.81C635.73,-345.04 677.48,-310.01 705.26,-286.7"/>
<polygon fill="black" stroke="black" points="707.64,-289.27 713.05,-280.16 703.14,-283.91 707.64,-289.27"/>
</g>
<!-- n5 -->
<g id="node5" class="node">
<title>n5</title>
<polygon fill="#fffdd0" stroke="black" points="1385.5,-280 1137.5,-280 1137.5,-244 1385.5,-244 1385.5,-280"/>
<text text-anchor="middle" x="1261.5" y="-258.3" font-family="Arial" font-size="14.00">Absence of other living things or plants</text>
</g>
<!-- n1&#45;&gt;n5 -->
<g id="edge4" class="edge">
<title>n1&#45;&gt;n5</title>
<path fill="none" stroke="black" d="M682.74,-366.5C806.59,-344.35 1026.1,-305.1 1156.2,-281.82"/>
<polygon fill="black" stroke="black" points="1156.97,-285.24 1166.2,-280.04 1155.74,-278.35 1156.97,-285.24"/>
</g>
<!-- n6 -->
<g id="node6" class="node">
<title>n6</title>
<path fill="palegreen" stroke="black" d="M263,-158C263,-158 12,-158 12,-158 6,-158 0,-152 0,-146 0,-146 0,-134 0,-134 0,-128 6,-122 12,-122 12,-122 263,-122 263,-122 269,-122 275,-128 275,-134 275,-134 275,-146 275,-146 275,-152 269,-158 263,-158"/>
<text text-anchor="middle" x="137.5" y="-136.3" font-family="Arial" font-size="14.00">Accurate representation of fish appearance</text>
</g>
<!-- n2&#45;&gt;n6 -->
<g id="edge5" class="edge">
<title>n2&#45;&gt;n6</title>
<path fill="none" stroke="black" d="M137.5,-243.81C137.5,-224.11 137.5,-191.58 137.5,-168.39"/>
<polygon fill="black" stroke="black" points="141,-168.16 137.5,-158.16 134,-168.16 141,-168.16"/>
</g>
<!-- n7 -->
<g id="node7" class="node">
<title>n7</title>
<polygon fill="lightcoral" stroke="black" points="655.5,-158 411,-140 655.5,-122 900,-140 655.5,-158"/>
<text text-anchor="middle" x="655.5" y="-136.3" font-family="Arial" font-size="14.00">Lack of understanding of the fish&#39;s habitat</text>
</g>
<!-- n4&#45;&gt;n7 -->
<g id="edge6" class="edge">
<title>n4&#45;&gt;n7</title>
<path fill="none" stroke="black" d="M722.32,-243.81C709.09,-223.44 686.92,-189.34 671.78,-166.04"/>
<polygon fill="black" stroke="black" points="674.54,-163.86 666.15,-157.39 668.67,-167.68 674.54,-163.86"/>
</g>
<!-- n8 -->
<g id="node8" class="node">
<title>n8</title>
<polygon fill="lightcoral" stroke="black" points="1261.5,-158 958,-140 1261.5,-122 1565,-140 1261.5,-158"/>
<text text-anchor="middle" x="1261.5" y="-136.3" font-family="Arial" font-size="14.00">Incomplete representation of ecosystem interactions</text>
</g>
<!-- n5&#45;&gt;n8 -->
<g id="edge7" class="edge">
<title>n5&#45;&gt;n8</title>
<path fill="none" stroke="black" d="M1261.5,-243.81C1261.5,-224.11 1261.5,-191.58 1261.5,-168.39"/>
<polygon fill="black" stroke="black" points="1265,-168.16 1261.5,-158.16 1258,-168.16 1265,-168.16"/>
</g>
<!-- n10 -->
<g id="node9" class="node">
<title>n10</title>
<polygon fill="#f28e8e" stroke="black" points="1870.5,-158 1622.5,-158 1622.5,-122 1870.5,-122 1870.5,-158"/>
<text text-anchor="middle" x="1746.5" y="-136.3" font-family="Arial" font-size="14.00">Include plants or other aquatic animals</text>
</g>
<!-- n5&#45;&gt;n10 -->
<g id="edge8" class="edge">
<title>n5&#45;&gt;n10</title>
<path fill="none" stroke="black" d="M1330.2,-244C1419.2,-221.98 1574,-183.68 1667.7,-160.5"/>
<polygon fill="black" stroke="black" points="1668.83,-163.83 1677.7,-158.03 1667.15,-157.03 1668.83,-163.83"/>
</g>
<!-- n9 -->
<g id="node10" class="node">
<title>n9</title>
<polygon fill="#f28e8e" stroke="black" points="797,-36 514,-36 514,0 797,0 797,-36"/>
<text text-anchor="middle" x="655.5" y="-14.3" font-family="Arial" font-size="14.00">Add water in the background to show habitat</text>
</g>
<!-- n7&#45;&gt;n9 -->
<g id="edge9" class="edge">
<title>n7&#45;&gt;n9</title>
<path fill="none" stroke="black" d="M655.5,-121.81C655.5,-102.11 655.5,-69.58 655.5,-46.39"/>
<polygon fill="black" stroke="black" points="659,-46.16 655.5,-36.16 652,-46.16 659,-46.16"/>
</g>
<!-- n11 -->
<g id="node11" class="node">
<title>n11</title>
<polygon fill="#f28e8e" stroke="black" points="1441,-36 1082,-36 1082,0 1441,0 1441,-36"/>
<text text-anchor="middle" x="1261.5" y="-14.3" font-family="Arial" font-size="14.00">Use labels to connect fish with water and essential needs</text>
</g>
<!-- n8&#45;&gt;n11 -->
<g id="edge10" class="edge">
<title>n8&#45;&gt;n11</title>
<path fill="none" stroke="black" d="M1261.5,-121.81C1261.5,-102.11 1261.5,-69.58 1261.5,-46.39"/>
<polygon fill="black" stroke="black" points="1265,-46.16 1261.5,-36.16 1258,-46.16 1265,-46.16"/>
</g>
</g>
</svg>
