<?xml version="1.0" encoding="UTF-8" standalone="no"?>
<!DOCTYPE svg PUBLIC "-//W3C//DTD SVG 1.1//EN"
 "http://www.w3.org/Graphics/SVG/1.1/DTD/svg11.dtd">
<!-- Generated by graphviz version 2.43.0 (0)
 -->
<!-- Pages: 1 -->
<svg width="1407pt" height="410pt"
 viewBox="0.00 0.00 1406.50 410.00" xmlns="http://www.w3.org/2000/svg" xmlns:xlink="http://www.w3.org/1999/xlink">
<g id="graph0" class="graph" transform="scale(1 1) rotate(0) translate(4 406)">
<polygon fill="white" stroke="transparent" points="-4,4 -4,-406 1402.5,-406 1402.5,4 -4,4"/>
<!-- n1 -->
<g id="node1" class="node">
<title>n1</title>
<polygon fill="lightblue" stroke="black" points="749.5,-384 619.25,-402 358.75,-402 228.5,-384 358.75,-366 619.25,-366 749.5,-384"/>
<text text-anchor="middle" x="489" y="-380.3" font-family="Arial" font-size="14.00">Draw two habitats and the different living things in each</text>
</g>
<!-- n2 -->
<g id="node2" class="node">
<title>n2</title>
<polygon fill="#fffdd0" stroke="black" points="459,-280 229,-280 229,-244 459,-244 459,-280"/>
<text text-anchor="middle" x="344" y="-258.3" font-family="Arial" font-size="14.00">Land habitat with trees and animals</text>
</g>
<!-- n1&#45;&gt;n2 -->
<g id="edge1" class="edge">
<title>n1&#45;&gt;n2</title>
<path fill="none" stroke="black" d="M468.23,-365.81C443.14,-345.04 400.81,-310.01 372.63,-286.7"/>
<polygon fill="black" stroke="black" points="374.67,-283.85 364.74,-280.16 370.21,-289.24 374.67,-283.85"/>
</g>
<!-- n3 -->
<g id="node3" class="node">
<title>n3</title>
<polygon fill="#fffdd0" stroke="black" points="844.5,-280 611.5,-280 611.5,-244 844.5,-244 844.5,-280"/>
<text text-anchor="middle" x="728" y="-258.3" font-family="Arial" font-size="14.00">Water habitat with fish and seaweed</text>
</g>
<!-- n1&#45;&gt;n3 -->
<g id="edge2" class="edge">
<title>n1&#45;&gt;n3</title>
<path fill="none" stroke="black" d="M522.99,-365.93C565.55,-344.57 638.5,-307.94 684.93,-284.63"/>
<polygon fill="black" stroke="black" points="686.76,-287.63 694.13,-280.01 683.62,-281.37 686.76,-287.63"/>
</g>
<!-- n4 -->
<g id="node4" class="node">
<title>n4</title>
<path fill="palegreen" stroke="black" d="M202,-158C202,-158 12,-158 12,-158 6,-158 0,-152 0,-146 0,-146 0,-134 0,-134 0,-128 6,-122 12,-122 12,-122 202,-122 202,-122 208,-122 214,-128 214,-134 214,-134 214,-146 214,-146 214,-152 208,-158 202,-158"/>
<text text-anchor="middle" x="107" y="-136.3" font-family="Arial" font-size="14.00">Bird correctly placed on a branch</text>
</g>
<!-- n2&#45;&gt;n4 -->
<g id="edge3" class="edge">
<title>n2&#45;&gt;n4</title>
<path fill="none" stroke="black" d="M310.3,-243.93C268.09,-222.57 195.75,-185.94 149.71,-162.63"/>
<polygon fill="black" stroke="black" points="151.09,-159.41 140.59,-158.01 147.93,-165.65 151.09,-159.41"/>
</g>
<!-- n5 -->
<g id="node5" class="node">
<title>n5</title>
<path fill="palegreen" stroke="black" d="M403.5,-158C403.5,-158 284.5,-158 284.5,-158 278.5,-158 272.5,-152 272.5,-146 272.5,-146 272.5,-134 272.5,-134 272.5,-128 278.5,-122 284.5,-122 284.5,-122 403.5,-122 403.5,-122 409.5,-122 415.5,-128 415.5,-134 415.5,-134 415.5,-146 415.5,-146 415.5,-152 409.5,-158 403.5,-158"/>
<text text-anchor="middle" x="344" y="-136.3" font-family="Arial" font-size="14.00">Rabbit on the ground</text>
</g>
<!-- n2&#45;&gt;n5 -->
<g id="edge4" class="edge">
<title>n2&#45;&gt;n5</title>
<path fill="none" stroke="black" d="M344,-243.81C344,-224.11 344,-191.58 344,-168.39"/>
<polygon fill="black" stroke="black" points="347.5,-168.16 344,-158.16 340.5,-168.16 347.5,-168.16"/>
</g>
<!-- n6 -->
<g id="node6" class="node">
<title>n6</title>
<path fill="palegreen" stroke="black" d="M620,-158C620,-158 486,-158 486,-158 480,-158 474,-152 474,-146 474,-146 474,-134 474,-134 474,-128 480,-122 486,-122 486,-122 620,-122 620,-122 626,-122 632,-128 632,-134 632,-134 632,-146 632,-146 632,-152 626,-158 620,-158"/>
<text text-anchor="middle" x="553" y="-136.3" font-family="Arial" font-size="14.00">Fish swimming in water</text>
</g>
<!-- n3&#45;&gt;n6 -->
<g id="edge5" class="edge">
<title>n3&#45;&gt;n6</title>
<path fill="none" stroke="black" d="M702.93,-243.81C672.39,-222.87 620.68,-187.41 586.69,-164.1"/>
<polygon fill="black" stroke="black" points="588.26,-160.93 578.03,-158.16 584.3,-166.7 588.26,-160.93"/>
</g>
<!-- n7 -->
<g id="node7" class="node">
<title>n7</title>
<path fill="palegreen" stroke="black" d="M941.5,-158C941.5,-158 702.5,-158 702.5,-158 696.5,-158 690.5,-152 690.5,-146 690.5,-146 690.5,-134 690.5,-134 690.5,-128 696.5,-122 702.5,-122 702.5,-122 941.5,-122 941.5,-122 947.5,-122 953.5,-128 953.5,-134 953.5,-134 953.5,-146 953.5,-146 953.5,-152 947.5,-158 941.5,-158"/>
<text text-anchor="middle" x="822" y="-136.3" font-family="Arial" font-size="14.00">Green seaweed correctly in water habitat</text>
</g>
<!-- n3&#45;&gt;n7 -->
<g id="edge6" class="edge">
<title>n3&#45;&gt;n7</title>
<path fill="none" stroke="black" d="M741.47,-243.81C757.38,-223.49 784,-189.51 802.25,-166.21"/>
<polygon fill="black" stroke="black" points="805.15,-168.19 808.56,-158.16 799.64,-163.87 805.15,-168.19"/>
</g>
<!-- n8 -->
<g id="node8" class="node">
<title>n8</title>
<polygon fill="lightcoral" stroke="black" points="1195,-158 1011,-140 1195,-122 1379,-140 1195,-158"/>
<text text-anchor="middle" x="1195" y="-136.3" font-family="Arial" font-size="14.00">Misplaced tree in water habitat</text>
</g>
<!-- n3&#45;&gt;n8 -->
<g id="edge7" class="edge">
<title>n3&#45;&gt;n8</title>
<path fill="none" stroke="black" d="M794.41,-243.93C886.19,-220.35 1050.3,-178.19 1137.2,-155.84"/>
<polygon fill="black" stroke="black" points="1138.08,-159.23 1146.9,-153.35 1136.34,-152.45 1138.08,-159.23"/>
</g>
<!-- n9 -->
<g id="node9" class="node">
<title>n9</title>
<polygon fill="#f28e8e" stroke="black" points="1398.5,-36 991.5,-36 991.5,0 1398.5,0 1398.5,-36"/>
<text text-anchor="middle" x="1195" y="-14.3" font-family="Arial" font-size="14.00">Trees are typically found in land habitats, not submerged in water</text>
</g>
<!-- n8&#45;&gt;n9 -->
<g id="edge8" class="edge">
<title>n8&#45;&gt;n9</title>
<path fill="none" stroke="black" d="M1195,-121.81C1195,-102.11 1195,-69.58 1195,-46.39"/>
<polygon fill="black" stroke="black" points="1198.5,-46.16 1195,-36.16 1191.5,-46.16 1198.5,-46.16"/>
</g>
</g>
</svg>
