<?xml version="1.0" encoding="UTF-8" standalone="no"?>
<!DOCTYPE svg PUBLIC "-//W3C//DTD SVG 1.1//EN"
 "http://www.w3.org/Graphics/SVG/1.1/DTD/svg11.dtd">
<!-- Generated by graphviz version 2.43.0 (0)
 -->
<!-- Pages: 1 -->
<svg width="1478pt" height="410pt"
 viewBox="0.00 0.00 1477.50 410.00" xmlns="http://www.w3.org/2000/svg" xmlns:xlink="http://www.w3.org/1999/xlink">
<g id="graph0" class="graph" transform="scale(1 1) rotate(0) translate(4 406)">
<polygon fill="white" stroke="transparent" points="-4,4 -4,-406 1473.5,-406 1473.5,4 -4,4"/>
<!-- n1 -->
<g id="node1" class="node">
<title>n1</title>
<polygon fill="lightblue" stroke="black" points="989.5,-384 825.5,-402 497.5,-402 333.5,-384 497.5,-366 825.5,-366 989.5,-384"/>
<text text-anchor="middle" x="661.5" y="-380.3" font-family="Arial" font-size="14.00">Draw reversible and irreversible changes (ice melting vs. egg cooking)</text>
</g>
<!-- n2 -->
<g id="node2" class="node">
<title>n2</title>
<polygon fill="#fffdd0" stroke="black" points="661,-280 236,-280 236,-244 661,-244 661,-280"/>
<text text-anchor="middle" x="448.5" y="-258.3" font-family="Arial" font-size="14.00">big blue rectangular block representing ice, with smaller blue chunks</text>
</g>
<!-- n1&#45;&gt;n2 -->
<g id="edge1" class="edge">
<title>n1&#45;&gt;n2</title>
<path fill="none" stroke="black" d="M630.98,-365.81C593.34,-344.6 529.27,-308.5 487.93,-285.21"/>
<polygon fill="black" stroke="black" points="489.39,-282.02 478.96,-280.16 485.96,-288.12 489.39,-282.02"/>
</g>
<!-- n3 -->
<g id="node3" class="node">
<title>n3</title>
<polygon fill="#fffdd0" stroke="black" points="1032,-280 719,-280 719,-244 1032,-244 1032,-280"/>
<text text-anchor="middle" x="875.5" y="-258.3" font-family="Arial" font-size="14.00">unlabelled drawing of an egg shape colored white</text>
</g>
<!-- n1&#45;&gt;n3 -->
<g id="edge2" class="edge">
<title>n1&#45;&gt;n3</title>
<path fill="none" stroke="black" d="M692.16,-365.81C730.06,-344.55 794.62,-308.35 836.15,-285.07"/>
<polygon fill="black" stroke="black" points="837.89,-288.11 844.9,-280.16 834.47,-282 837.89,-288.11"/>
</g>
<!-- n4 -->
<g id="node4" class="node">
<title>n4</title>
<path fill="palegreen" stroke="black" d="M179,-158C179,-158 12,-158 12,-158 6,-158 0,-152 0,-146 0,-146 0,-134 0,-134 0,-128 6,-122 12,-122 12,-122 179,-122 179,-122 185,-122 191,-128 191,-134 191,-134 191,-146 191,-146 191,-152 185,-158 179,-158"/>
<text text-anchor="middle" x="95.5" y="-136.3" font-family="Arial" font-size="14.00">Recognizes initial state of ice</text>
</g>
<!-- n2&#45;&gt;n4 -->
<g id="edge3" class="edge">
<title>n2&#45;&gt;n4</title>
<path fill="none" stroke="black" d="M398.3,-243.93C334.26,-222.16 223.63,-184.56 155.29,-161.33"/>
<polygon fill="black" stroke="black" points="156.12,-157.92 145.53,-158.01 153.87,-164.54 156.12,-157.92"/>
</g>
<!-- n5 -->
<g id="node5" class="node">
<title>n5</title>
<polygon fill="lightcoral" stroke="black" points="463.5,-158 249.17,-140 463.5,-122 677.83,-140 463.5,-158"/>
<text text-anchor="middle" x="463.5" y="-136.3" font-family="Arial" font-size="14.00">Misunderstands ice melting process</text>
</g>
<!-- n2&#45;&gt;n5 -->
<g id="edge4" class="edge">
<title>n2&#45;&gt;n5</title>
<path fill="none" stroke="black" d="M450.65,-243.81C453.11,-224.11 457.18,-191.58 460.08,-168.39"/>
<polygon fill="black" stroke="black" points="463.59,-168.52 461.35,-158.16 456.64,-167.65 463.59,-168.52"/>
</g>
<!-- n6 -->
<g id="node6" class="node">
<title>n6</title>
<path fill="palegreen" stroke="black" d="M947.5,-158C947.5,-158 775.5,-158 775.5,-158 769.5,-158 763.5,-152 763.5,-146 763.5,-146 763.5,-134 763.5,-134 763.5,-128 769.5,-122 775.5,-122 775.5,-122 947.5,-122 947.5,-122 953.5,-122 959.5,-128 959.5,-134 959.5,-134 959.5,-146 959.5,-146 959.5,-152 953.5,-158 947.5,-158"/>
<text text-anchor="middle" x="861.5" y="-136.3" font-family="Arial" font-size="14.00">Recognizes initial state of egg</text>
</g>
<!-- n3&#45;&gt;n6 -->
<g id="edge5" class="edge">
<title>n3&#45;&gt;n6</title>
<path fill="none" stroke="black" d="M873.49,-243.81C871.2,-224.11 867.4,-191.58 864.7,-168.39"/>
<polygon fill="black" stroke="black" points="868.14,-167.68 863.5,-158.16 861.19,-168.5 868.14,-167.68"/>
</g>
<!-- n7 -->
<g id="node7" class="node">
<title>n7</title>
<polygon fill="lightcoral" stroke="black" points="1237.5,-158 1017.64,-140 1237.5,-122 1457.36,-140 1237.5,-158"/>
<text text-anchor="middle" x="1237.5" y="-136.3" font-family="Arial" font-size="14.00">Confuses raw and cooked egg states</text>
</g>
<!-- n3&#45;&gt;n7 -->
<g id="edge6" class="edge">
<title>n3&#45;&gt;n7</title>
<path fill="none" stroke="black" d="M926.98,-243.93C996.01,-221.05 1117.8,-180.68 1186.6,-157.89"/>
<polygon fill="black" stroke="black" points="1187.92,-161.14 1196.3,-154.66 1185.71,-154.5 1187.92,-161.14"/>
</g>
<!-- n8 -->
<g id="node8" class="node">
<title>n8</title>
<polygon fill="#f28e8e" stroke="black" points="650.5,-36 276.5,-36 276.5,0 650.5,0 650.5,-36"/>
<text text-anchor="middle" x="463.5" y="-14.3" font-family="Arial" font-size="14.00">Add labels and arrows to show melting and refreezing of ice</text>
</g>
<!-- n5&#45;&gt;n8 -->
<g id="edge7" class="edge">
<title>n5&#45;&gt;n8</title>
<path fill="none" stroke="black" d="M463.5,-121.81C463.5,-102.11 463.5,-69.58 463.5,-46.39"/>
<polygon fill="black" stroke="black" points="467,-46.16 463.5,-36.16 460,-46.16 467,-46.16"/>
</g>
<!-- n9 -->
<g id="node9" class="node">
<title>n9</title>
<polygon fill="#f28e8e" stroke="black" points="1469.5,-36 1005.5,-36 1005.5,0 1469.5,0 1469.5,-36"/>
<text text-anchor="middle" x="1237.5" y="-14.3" font-family="Arial" font-size="14.00">Explain differences between reversible (ice) and irreversible (egg) changes</text>
</g>
<!-- n7&#45;&gt;n9 -->
<g id="edge8" class="edge">
<title>n7&#45;&gt;n9</title>
<path fill="none" stroke="black" d="M1237.5,-121.81C1237.5,-102.11 1237.5,-69.58 1237.5,-46.39"/>
<polygon fill="black" stroke="black" points="1241,-46.16 1237.5,-36.16 1234,-46.16 1241,-46.16"/>
</g>
</g>
</svg>
