<?xml version="1.0" encoding="UTF-8" standalone="no"?>
<!DOCTYPE svg PUBLIC "-//W3C//DTD SVG 1.1//EN"
 "http://www.w3.org/Graphics/SVG/1.1/DTD/svg11.dtd">
<!-- Generated by graphviz version 2.43.0 (0)
 -->
<!-- Pages: 1 -->
<svg width="1359pt" height="410pt"
 viewBox="0.00 0.00 1359.00 410.00" xmlns="http://www.w3.org/2000/svg" xmlns:xlink="http://www.w3.org/1999/xlink">
<g id="graph0" class="graph" transform="scale(1 1) rotate(0) translate(4 406)">
<polygon fill="white" stroke="transparent" points="-4,4 -4,-406 1355,-406 1355,4 -4,4"/>
<!-- n1 -->
<g id="node1" class="node">
<title>n1</title>
<polygon fill="lightblue" stroke="black" points="853.32,-384 730.91,-402 486.09,-402 363.68,-384 486.09,-366 730.91,-366 853.32,-384"/>
<text text-anchor="middle" x="608.5" y="-380.3" font-family="Arial" font-size="14.00">Draw a habitat and the different living things in each</text>
</g>
<!-- n2 -->
<g id="node2" class="node">
<title>n2</title>
<polygon fill="#fffdd0" stroke="black" points="1020.5,-280 754.5,-280 754.5,-244 1020.5,-244 1020.5,-280"/>
<text text-anchor="middle" x="887.5" y="-258.3" font-family="Arial" font-size="14.00">Forest habitat with trees, bushes, grasses</text>
</g>
<!-- n1&#45;&gt;n2 -->
<g id="edge1" class="edge">
<title>n1&#45;&gt;n2</title>
<path fill="none" stroke="black" d="M648.18,-365.93C698.28,-344.39 784.45,-307.32 838.57,-284.04"/>
<polygon fill="black" stroke="black" points="840.15,-287.17 847.96,-280.01 837.39,-280.74 840.15,-287.17"/>
</g>
<!-- n3 -->
<g id="node3" class="node">
<title>n3</title>
<polygon fill="#fffdd0" stroke="black" points="197,-280 0,-280 0,-244 197,-244 197,-280"/>
<text text-anchor="middle" x="98.5" y="-258.3" font-family="Arial" font-size="14.00">Squirrels, ants, lizard included</text>
</g>
<!-- n1&#45;&gt;n3 -->
<g id="edge2" class="edge">
<title>n1&#45;&gt;n3</title>
<path fill="none" stroke="black" d="M536.24,-366C442.46,-343.93 279.21,-305.52 180.77,-282.36"/>
<polygon fill="black" stroke="black" points="181.4,-278.91 170.86,-280.03 179.79,-285.73 181.4,-278.91"/>
</g>
<!-- n4 -->
<g id="node4" class="node">
<title>n4</title>
<polygon fill="#fffdd0" stroke="black" points="462,-280 255,-280 255,-244 462,-244 462,-280"/>
<text text-anchor="middle" x="358.5" y="-258.3" font-family="Arial" font-size="14.00">Pond habitat with aquatic plants</text>
</g>
<!-- n1&#45;&gt;n4 -->
<g id="edge3" class="edge">
<title>n1&#45;&gt;n4</title>
<path fill="none" stroke="black" d="M572.95,-365.93C528.24,-344.48 451.48,-307.63 402.95,-284.33"/>
<polygon fill="black" stroke="black" points="404.46,-281.17 393.93,-280.01 401.44,-287.49 404.46,-281.17"/>
</g>
<!-- n5 -->
<g id="node5" class="node">
<title>n5</title>
<polygon fill="#fffdd0" stroke="black" points="696.5,-280 520.5,-280 520.5,-244 696.5,-244 696.5,-280"/>
<text text-anchor="middle" x="608.5" y="-258.3" font-family="Arial" font-size="14.00">Fish, frogs, snails included</text>
</g>
<!-- n1&#45;&gt;n5 -->
<g id="edge4" class="edge">
<title>n1&#45;&gt;n5</title>
<path fill="none" stroke="black" d="M608.5,-365.81C608.5,-346.11 608.5,-313.58 608.5,-290.39"/>
<polygon fill="black" stroke="black" points="612,-290.16 608.5,-280.16 605,-290.16 612,-290.16"/>
</g>
<!-- n6 -->
<g id="node6" class="node">
<title>n6</title>
<polygon fill="#fffdd0" stroke="black" points="1311,-280 1130,-280 1130,-244 1311,-244 1311,-280"/>
<text text-anchor="middle" x="1220.5" y="-258.3" font-family="Arial" font-size="14.00">Biodiversity patterns shown</text>
</g>
<!-- n1&#45;&gt;n6 -->
<g id="edge5" class="edge">
<title>n1&#45;&gt;n6</title>
<path fill="none" stroke="black" d="M695.21,-366C808.31,-343.82 1005.6,-305.13 1123.6,-282.01"/>
<polygon fill="black" stroke="black" points="1124.56,-285.39 1133.7,-280.03 1123.21,-278.52 1124.56,-285.39"/>
</g>
<!-- n7 -->
<g id="node7" class="node">
<title>n7</title>
<path fill="palegreen" stroke="black" d="M528.5,-158C528.5,-158 322.5,-158 322.5,-158 316.5,-158 310.5,-152 310.5,-146 310.5,-146 310.5,-134 310.5,-134 310.5,-128 316.5,-122 322.5,-122 322.5,-122 528.5,-122 528.5,-122 534.5,-122 540.5,-128 540.5,-134 540.5,-134 540.5,-146 540.5,-146 540.5,-152 534.5,-158 528.5,-158"/>
<text text-anchor="middle" x="425.5" y="-136.3" font-family="Arial" font-size="14.00">Uses correct labeling for most parts</text>
</g>
<!-- n2&#45;&gt;n7 -->
<g id="edge6" class="edge">
<title>n2&#45;&gt;n7</title>
<path fill="none" stroke="black" d="M821.8,-243.93C737.04,-221.92 589.92,-183.71 500.75,-160.55"/>
<polygon fill="black" stroke="black" points="501.54,-157.14 490.98,-158.01 499.78,-163.91 501.54,-157.14"/>
</g>
<!-- n9 -->
<g id="node8" class="node">
<title>n9</title>
<polygon fill="lightcoral" stroke="black" points="861.5,-158 639,-140 861.5,-122 1084,-140 861.5,-158"/>
<text text-anchor="middle" x="861.5" y="-136.3" font-family="Arial" font-size="14.00">Mislabeling of bush as flowering plant</text>
</g>
<!-- n2&#45;&gt;n9 -->
<g id="edge7" class="edge">
<title>n2&#45;&gt;n9</title>
<path fill="none" stroke="black" d="M883.77,-243.81C879.46,-223.91 872.32,-190.92 867.28,-167.68"/>
<polygon fill="black" stroke="black" points="870.67,-166.8 865.13,-157.77 863.83,-168.28 870.67,-166.8"/>
</g>
<!-- n3&#45;&gt;n7 -->
<g id="edge8" class="edge">
<title>n3&#45;&gt;n7</title>
<path fill="none" stroke="black" d="M145,-243.93C204.21,-222.21 306.39,-184.71 369.72,-161.47"/>
<polygon fill="black" stroke="black" points="370.98,-164.74 379.16,-158.01 368.57,-158.17 370.98,-164.74"/>
</g>
<!-- n4&#45;&gt;n7 -->
<g id="edge9" class="edge">
<title>n4&#45;&gt;n7</title>
<path fill="none" stroke="black" d="M368.1,-243.81C379.29,-223.76 397.92,-190.4 410.91,-167.14"/>
<polygon fill="black" stroke="black" points="414.1,-168.6 415.92,-158.16 407.99,-165.19 414.1,-168.6"/>
</g>
<!-- n5&#45;&gt;n7 -->
<g id="edge10" class="edge">
<title>n5&#45;&gt;n7</title>
<path fill="none" stroke="black" d="M582.28,-243.81C550.21,-222.78 495.81,-187.11 460.27,-163.8"/>
<polygon fill="black" stroke="black" points="461.95,-160.72 451.67,-158.16 458.11,-166.57 461.95,-160.72"/>
</g>
<!-- n8 -->
<g id="node9" class="node">
<title>n8</title>
<path fill="palegreen" stroke="black" d="M1339,-158C1339,-158 1154,-158 1154,-158 1148,-158 1142,-152 1142,-146 1142,-146 1142,-134 1142,-134 1142,-128 1148,-122 1154,-122 1154,-122 1339,-122 1339,-122 1345,-122 1351,-128 1351,-134 1351,-134 1351,-146 1351,-146 1351,-152 1345,-158 1339,-158"/>
<text text-anchor="middle" x="1246.5" y="-136.3" font-family="Arial" font-size="14.00">Clustering noted in ants and fish</text>
</g>
<!-- n6&#45;&gt;n8 -->
<g id="edge11" class="edge">
<title>n6&#45;&gt;n8</title>
<path fill="none" stroke="black" d="M1224.2,-243.81C1228.5,-224.02 1235.6,-191.29 1240.6,-168.08"/>
<polygon fill="black" stroke="black" points="1244.05,-168.68 1242.8,-158.16 1237.22,-167.16 1244.05,-168.68"/>
</g>
<!-- n10 -->
<g id="node10" class="node">
<title>n10</title>
<polygon fill="#f28e8e" stroke="black" points="967.5,-36 755.5,-36 755.5,0 967.5,0 967.5,-36"/>
<text text-anchor="middle" x="861.5" y="-14.3" font-family="Arial" font-size="14.00">Consider double&#45;checking labels</text>
</g>
<!-- n9&#45;&gt;n10 -->
<g id="edge12" class="edge">
<title>n9&#45;&gt;n10</title>
<path fill="none" stroke="black" d="M861.5,-121.81C861.5,-102.11 861.5,-69.58 861.5,-46.39"/>
<polygon fill="black" stroke="black" points="865,-46.16 861.5,-36.16 858,-46.16 865,-46.16"/>
</g>
</g>
</svg>
