<?xml version="1.0" encoding="UTF-8" standalone="no"?>
<!DOCTYPE svg PUBLIC "-//W3C//DTD SVG 1.1//EN"
 "http://www.w3.org/Graphics/SVG/1.1/DTD/svg11.dtd">
<!-- Generated by graphviz version 2.43.0 (0)
 -->
<!-- Pages: 1 -->
<svg width="1452pt" height="410pt"
 viewBox="0.00 0.00 1452.00 410.00" xmlns="http://www.w3.org/2000/svg" xmlns:xlink="http://www.w3.org/1999/xlink">
<g id="graph0" class="graph" transform="scale(1 1) rotate(0) translate(4 406)">
<polygon fill="white" stroke="transparent" points="-4,4 -4,-406 1448,-406 1448,4 -4,4"/>
<!-- n1 -->
<g id="node1" class="node">
<title>n1</title>
<polygon fill="lightblue" stroke="black" points="956,-384 844.5,-402 621.5,-402 510,-384 621.5,-366 844.5,-366 956,-384"/>
<text text-anchor="middle" x="733" y="-380.3" font-family="Arial" font-size="14.00">Draw a string telephone between two students.</text>
</g>
<!-- n2 -->
<g id="node2" class="node">
<title>n2</title>
<polygon fill="#fffdd0" stroke="black" points="438.5,-280 21.5,-280 21.5,-244 438.5,-244 438.5,-280"/>
<text text-anchor="middle" x="230" y="-258.3" font-family="Arial" font-size="14.00">Two children stand apart holding paper cups connected by a string.</text>
</g>
<!-- n1&#45;&gt;n2 -->
<g id="edge1" class="edge">
<title>n1&#45;&gt;n2</title>
<path fill="none" stroke="black" d="M661.73,-366C569.24,-343.93 408.23,-305.52 311.14,-282.36"/>
<polygon fill="black" stroke="black" points="311.91,-278.95 301.37,-280.03 310.29,-285.75 311.91,-278.95"/>
</g>
<!-- n3 -->
<g id="node3" class="node">
<title>n3</title>
<polygon fill="#fffdd0" stroke="black" points="890,-280 576,-280 576,-244 890,-244 890,-280"/>
<text text-anchor="middle" x="733" y="-258.3" font-family="Arial" font-size="14.00">Arrows indicate sound direction, only on one side.</text>
</g>
<!-- n1&#45;&gt;n3 -->
<g id="edge2" class="edge">
<title>n1&#45;&gt;n3</title>
<path fill="none" stroke="black" d="M733,-365.81C733,-346.11 733,-313.58 733,-290.39"/>
<polygon fill="black" stroke="black" points="736.5,-290.16 733,-280.16 729.5,-290.16 736.5,-290.16"/>
</g>
<!-- n4 -->
<g id="node4" class="node">
<title>n4</title>
<polygon fill="#fffdd0" stroke="black" points="1331,-280 1057,-280 1057,-244 1331,-244 1331,-280"/>
<text text-anchor="middle" x="1194" y="-258.3" font-family="Arial" font-size="14.00">Wavy lines symbolize sound from one cup.</text>
</g>
<!-- n1&#45;&gt;n4 -->
<g id="edge3" class="edge">
<title>n1&#45;&gt;n4</title>
<path fill="none" stroke="black" d="M798.56,-365.93C883.14,-343.92 1029.9,-305.71 1118.9,-282.55"/>
<polygon fill="black" stroke="black" points="1119.9,-285.91 1128.7,-280.01 1118.14,-279.13 1119.9,-285.91"/>
</g>
<!-- n5 -->
<g id="node5" class="node">
<title>n5</title>
<path fill="palegreen" stroke="black" d="M290,-158C290,-158 12,-158 12,-158 6,-158 0,-152 0,-146 0,-146 0,-134 0,-134 0,-128 6,-122 12,-122 12,-122 290,-122 290,-122 296,-122 302,-128 302,-134 302,-134 302,-146 302,-146 302,-152 296,-158 290,-158"/>
<text text-anchor="middle" x="151" y="-136.3" font-family="Arial" font-size="14.00">Shows understanding of string telephone setup.</text>
</g>
<!-- n2&#45;&gt;n5 -->
<g id="edge4" class="edge">
<title>n2&#45;&gt;n5</title>
<path fill="none" stroke="black" d="M218.68,-243.81C205.36,-223.58 183.13,-189.81 167.8,-166.52"/>
<polygon fill="black" stroke="black" points="170.72,-164.59 162.3,-158.16 164.87,-168.44 170.72,-164.59"/>
</g>
<!-- n6 -->
<g id="node6" class="node">
<title>n6</title>
<polygon fill="lightcoral" stroke="black" points="733,-158 359.64,-140 733,-122 1106.36,-140 733,-158"/>
<text text-anchor="middle" x="733" y="-136.3" font-family="Arial" font-size="14.00">Understands sound direction partially; incomplete representation.</text>
</g>
<!-- n3&#45;&gt;n6 -->
<g id="edge5" class="edge">
<title>n3&#45;&gt;n6</title>
<path fill="none" stroke="black" d="M733,-243.81C733,-224.11 733,-191.58 733,-168.39"/>
<polygon fill="black" stroke="black" points="736.5,-168.16 733,-158.16 729.5,-168.16 736.5,-168.16"/>
</g>
<!-- n7 -->
<g id="node7" class="node">
<title>n7</title>
<path fill="palegreen" stroke="black" d="M1432,-158C1432,-158 1176,-158 1176,-158 1170,-158 1164,-152 1164,-146 1164,-146 1164,-134 1164,-134 1164,-128 1170,-122 1176,-122 1176,-122 1432,-122 1432,-122 1438,-122 1444,-128 1444,-134 1444,-134 1444,-146 1444,-146 1444,-152 1438,-158 1432,-158"/>
<text text-anchor="middle" x="1304" y="-136.3" font-family="Arial" font-size="14.00">Depicts communication using sound waves.</text>
</g>
<!-- n4&#45;&gt;n7 -->
<g id="edge6" class="edge">
<title>n4&#45;&gt;n7</title>
<path fill="none" stroke="black" d="M1209.8,-243.81C1228.5,-223.31 1260.1,-188.91 1281.4,-165.6"/>
<polygon fill="black" stroke="black" points="1284.07,-167.87 1288.3,-158.16 1278.93,-163.11 1284.07,-167.87"/>
</g>
<!-- n8 -->
<g id="node8" class="node">
<title>n8</title>
<polygon fill="#f28e8e" stroke="black" points="921.5,-36 544.5,-36 544.5,0 921.5,0 921.5,-36"/>
<text text-anchor="middle" x="733" y="-14.3" font-family="Arial" font-size="14.00">Label all parts and ensure arrows show correct sound travel.</text>
</g>
<!-- n6&#45;&gt;n8 -->
<g id="edge7" class="edge">
<title>n6&#45;&gt;n8</title>
<path fill="none" stroke="black" d="M733,-121.81C733,-102.11 733,-69.58 733,-46.39"/>
<polygon fill="black" stroke="black" points="736.5,-46.16 733,-36.16 729.5,-46.16 736.5,-46.16"/>
</g>
</g>
</svg>
