<?xml version="1.0" encoding="UTF-8" standalone="no"?>
<!DOCTYPE svg PUBLIC "-//W3C//DTD SVG 1.1//EN"
 "http://www.w3.org/Graphics/SVG/1.1/DTD/svg11.dtd">
<!-- Generated by graphviz version 2.43.0 (0)
 -->
<!-- Pages: 1 -->
<svg width="1070pt" height="410pt"
 viewBox="0.00 0.00 1069.50 410.00" xmlns="http://www.w3.org/2000/svg" xmlns:xlink="http://www.w3.org/1999/xlink">
<g id="graph0" class="graph" transform="scale(1 1) rotate(0) translate(4 406)">
<polygon fill="white" stroke="transparent" points="-4,4 -4,-406 1065.5,-406 1065.5,4 -4,4"/>
<!-- n1 -->
<g id="node1" class="node">
<title>n1</title>
<polygon fill="lightblue" stroke="black" points="840.5,-384 749.25,-402 566.75,-402 475.5,-384 566.75,-366 749.25,-366 840.5,-384"/>
<text text-anchor="middle" x="658" y="-380.3" font-family="Arial" font-size="14.00">Draw reversible changes (ice melting)</text>
</g>
<!-- n2 -->
<g id="node2" class="node">
<title>n2</title>
<polygon fill="#fffdd0" stroke="black" points="400.5,-280 259.5,-280 259.5,-244 400.5,-244 400.5,-280"/>
<text text-anchor="middle" x="330" y="-258.3" font-family="Arial" font-size="14.00">Ice cube (solid state)</text>
</g>
<!-- n1&#45;&gt;n2 -->
<g id="edge1" class="edge">
<title>n1&#45;&gt;n2</title>
<path fill="none" stroke="black" d="M611.35,-365.93C551.97,-344.21 449.47,-306.71 385.95,-283.47"/>
<polygon fill="black" stroke="black" points="387.08,-280.16 376.49,-280.01 384.68,-286.73 387.08,-280.16"/>
</g>
<!-- n3 -->
<g id="node3" class="node">
<title>n3</title>
<polygon fill="#fffdd0" stroke="black" points="635.5,-280 458.5,-280 458.5,-244 635.5,-244 635.5,-280"/>
<text text-anchor="middle" x="547" y="-258.3" font-family="Arial" font-size="14.00">Liquid water (after melting)</text>
</g>
<!-- n1&#45;&gt;n3 -->
<g id="edge2" class="edge">
<title>n1&#45;&gt;n3</title>
<path fill="none" stroke="black" d="M642.1,-365.81C623.14,-345.31 591.32,-310.91 569.76,-287.6"/>
<polygon fill="black" stroke="black" points="572.23,-285.12 562.87,-280.16 567.1,-289.88 572.23,-285.12"/>
</g>
<!-- n4 -->
<g id="node4" class="node">
<title>n4</title>
<polygon fill="#fffdd0" stroke="black" points="846.5,-280 693.5,-280 693.5,-244 846.5,-244 846.5,-280"/>
<text text-anchor="middle" x="770" y="-258.3" font-family="Arial" font-size="14.00">Arrow showing melting</text>
</g>
<!-- n1&#45;&gt;n4 -->
<g id="edge3" class="edge">
<title>n1&#45;&gt;n4</title>
<path fill="none" stroke="black" d="M674.05,-365.81C693.18,-345.31 725.28,-310.91 747.04,-287.6"/>
<polygon fill="black" stroke="black" points="749.72,-289.86 753.98,-280.16 744.6,-285.09 749.72,-289.86"/>
</g>
<!-- n5 -->
<g id="node5" class="node">
<title>n5</title>
<polygon fill="#fffdd0" stroke="black" points="1061.5,-280 904.5,-280 904.5,-244 1061.5,-244 1061.5,-280"/>
<text text-anchor="middle" x="983" y="-258.3" font-family="Arial" font-size="14.00">Arrow showing freezing</text>
</g>
<!-- n1&#45;&gt;n5 -->
<g id="edge4" class="edge">
<title>n1&#45;&gt;n5</title>
<path fill="none" stroke="black" d="M704.22,-365.93C762.94,-344.25 864.2,-306.86 927.17,-283.61"/>
<polygon fill="black" stroke="black" points="928.77,-286.75 936.94,-280.01 926.35,-280.18 928.77,-286.75"/>
</g>
<!-- n6 -->
<g id="node6" class="node">
<title>n6</title>
<path fill="palegreen" stroke="black" d="M182,-158C182,-158 12,-158 12,-158 6,-158 0,-152 0,-146 0,-146 0,-134 0,-134 0,-128 6,-122 12,-122 12,-122 182,-122 182,-122 188,-122 194,-128 194,-134 194,-134 194,-146 194,-146 194,-152 188,-158 182,-158"/>
<text text-anchor="middle" x="97" y="-136.3" font-family="Arial" font-size="14.00">Ice melts to water (reversible)</text>
</g>
<!-- n2&#45;&gt;n6 -->
<g id="edge5" class="edge">
<title>n2&#45;&gt;n6</title>
<path fill="none" stroke="black" d="M296.62,-243.81C255.18,-222.47 184.47,-186.05 139.28,-162.77"/>
<polygon fill="black" stroke="black" points="140.81,-159.62 130.32,-158.16 137.61,-165.85 140.81,-159.62"/>
</g>
<!-- n8 -->
<g id="node7" class="node">
<title>n8</title>
<polygon fill="lightcoral" stroke="black" points="439,-158 252.32,-140 439,-122 625.68,-140 439,-158"/>
<text text-anchor="middle" x="439" y="-136.3" font-family="Arial" font-size="14.00">Incomplete labeling of changes</text>
</g>
<!-- n2&#45;&gt;n8 -->
<g id="edge6" class="edge">
<title>n2&#45;&gt;n8</title>
<path fill="none" stroke="black" d="M345.62,-243.81C364.57,-222.94 396.63,-187.65 417.8,-164.34"/>
<polygon fill="black" stroke="black" points="420.67,-166.39 424.8,-156.63 415.49,-161.68 420.67,-166.39"/>
</g>
<!-- n3&#45;&gt;n8 -->
<g id="edge7" class="edge">
<title>n3&#45;&gt;n8</title>
<path fill="none" stroke="black" d="M531.53,-243.81C512.85,-223.05 481.34,-188.04 460.35,-164.73"/>
<polygon fill="black" stroke="black" points="462.7,-162.11 453.41,-157.01 457.49,-166.79 462.7,-162.11"/>
</g>
<!-- n7 -->
<g id="node8" class="node">
<title>n7</title>
<path fill="palegreen" stroke="black" d="M912,-158C912,-158 696,-158 696,-158 690,-158 684,-152 684,-146 684,-146 684,-134 684,-134 684,-128 690,-122 696,-122 696,-122 912,-122 912,-122 918,-122 924,-128 924,-134 924,-134 924,-146 924,-146 924,-152 918,-158 912,-158"/>
<text text-anchor="middle" x="804" y="-136.3" font-family="Arial" font-size="14.00">Water freezes back to ice (reversible)</text>
</g>
<!-- n3&#45;&gt;n7 -->
<g id="edge8" class="edge">
<title>n3&#45;&gt;n7</title>
<path fill="none" stroke="black" d="M583.55,-243.93C629.51,-222.48 708.41,-185.63 758.31,-162.33"/>
<polygon fill="black" stroke="black" points="759.99,-165.41 767.58,-158.01 757.04,-159.06 759.99,-165.41"/>
</g>
<!-- n9 -->
<g id="node9" class="node">
<title>n9</title>
<polygon fill="#f28e8e" stroke="black" points="594.5,-36 283.5,-36 283.5,0 594.5,0 594.5,-36"/>
<text text-anchor="middle" x="439" y="-14.3" font-family="Arial" font-size="14.00">Ensure all states and changes are labeled clearly</text>
</g>
<!-- n8&#45;&gt;n9 -->
<g id="edge9" class="edge">
<title>n8&#45;&gt;n9</title>
<path fill="none" stroke="black" d="M439,-121.81C439,-102.11 439,-69.58 439,-46.39"/>
<polygon fill="black" stroke="black" points="442.5,-46.16 439,-36.16 435.5,-46.16 442.5,-46.16"/>
</g>
</g>
</svg>
