<?xml version="1.0" encoding="UTF-8" standalone="no"?>
<!DOCTYPE svg PUBLIC "-//W3C//DTD SVG 1.1//EN"
 "http://www.w3.org/Graphics/SVG/1.1/DTD/svg11.dtd">
<!-- Generated by graphviz version 2.43.0 (0)
 -->
<!-- Pages: 1 -->
<svg width="1859pt" height="288pt"
 viewBox="0.00 0.00 1858.50 288.00" xmlns="http://www.w3.org/2000/svg" xmlns:xlink="http://www.w3.org/1999/xlink">
<g id="graph0" class="graph" transform="scale(1 1) rotate(0) translate(4 284)">
<polygon fill="white" stroke="transparent" points="-4,4 -4,-284 1854.5,-284 1854.5,4 -4,4"/>
<!-- n1 -->
<g id="node1" class="node">
<title>n1</title>
<polygon fill="lightblue" stroke="black" points="1122.5,-262 1031.25,-280 848.75,-280 757.5,-262 848.75,-244 1031.25,-244 1122.5,-262"/>
<text text-anchor="middle" x="940" y="-258.3" font-family="Arial" font-size="14.00">Draw reversible changes (ice melting)</text>
</g>
<!-- n2 -->
<g id="node2" class="node">
<title>n2</title>
<polygon fill="#fffdd0" stroke="black" points="362,-158 0,-158 0,-122 362,-122 362,-158"/>
<text text-anchor="middle" x="181" y="-136.3" font-family="Arial" font-size="14.00">Light blue square with white streaks representing solid ice</text>
</g>
<!-- n1&#45;&gt;n2 -->
<g id="edge1" class="edge">
<title>n1&#45;&gt;n2</title>
<path fill="none" stroke="black" d="M841.55,-245.44C702.26,-223.41 448.04,-183.22 298.88,-159.64"/>
<polygon fill="black" stroke="black" points="299.18,-156.14 288.76,-158.04 298.09,-163.06 299.18,-156.14"/>
</g>
<!-- n3 -->
<g id="node3" class="node">
<title>n3</title>
<polygon fill="#fffdd0" stroke="black" points="728,-158 420,-158 420,-122 728,-122 728,-158"/>
<text text-anchor="middle" x="574" y="-136.3" font-family="Arial" font-size="14.00">Dark blue irregular shape depicting melted water</text>
</g>
<!-- n1&#45;&gt;n3 -->
<g id="edge2" class="edge">
<title>n1&#45;&gt;n3</title>
<path fill="none" stroke="black" d="M887.95,-243.93C821.41,-222.12 706.37,-184.4 635.56,-161.18"/>
<polygon fill="black" stroke="black" points="636.46,-157.79 625.87,-158.01 634.29,-164.45 636.46,-157.79"/>
</g>
<!-- n4 -->
<g id="node4" class="node">
<title>n4</title>
<polygon fill="#fffdd0" stroke="black" points="1094,-158 786,-158 786,-122 1094,-122 1094,-158"/>
<text text-anchor="middle" x="940" y="-136.3" font-family="Arial" font-size="14.00">Light blue square with white lines for refrozen ice</text>
</g>
<!-- n1&#45;&gt;n4 -->
<g id="edge3" class="edge">
<title>n1&#45;&gt;n4</title>
<path fill="none" stroke="black" d="M940,-243.81C940,-224.11 940,-191.58 940,-168.39"/>
<polygon fill="black" stroke="black" points="943.5,-168.16 940,-158.16 936.5,-168.16 943.5,-168.16"/>
</g>
<!-- n5 -->
<g id="node5" class="node">
<title>n5</title>
<polygon fill="#fffdd0" stroke="black" points="1542,-158 1152,-158 1152,-122 1542,-122 1542,-158"/>
<text text-anchor="middle" x="1347" y="-136.3" font-family="Arial" font-size="14.00">Curved arrows indicating process direction (reversible change)</text>
</g>
<!-- n1&#45;&gt;n5 -->
<g id="edge4" class="edge">
<title>n1&#45;&gt;n5</title>
<path fill="none" stroke="black" d="M997.88,-243.93C1072.2,-222.03 1200.8,-184.09 1279.5,-160.9"/>
<polygon fill="black" stroke="black" points="1280.7,-164.2 1289.3,-158.01 1278.72,-157.48 1280.7,-164.2"/>
</g>
<!-- n6 -->
<g id="node6" class="node">
<title>n6</title>
<polygon fill="#fffdd0" stroke="black" points="1838,-158 1600,-158 1600,-122 1838,-122 1838,-158"/>
<text text-anchor="middle" x="1719" y="-136.3" font-family="Arial" font-size="14.00">Caption explaining reversible change</text>
</g>
<!-- n1&#45;&gt;n6 -->
<g id="edge5" class="edge">
<title>n1&#45;&gt;n6</title>
<path fill="none" stroke="black" d="M1039.8,-245.62C1182.7,-223.62 1444.9,-183.22 1598.4,-159.58"/>
<polygon fill="black" stroke="black" points="1598.95,-163.04 1608.3,-158.05 1597.88,-156.12 1598.95,-163.04"/>
</g>
<!-- n7 -->
<g id="node7" class="node">
<title>n7</title>
<path fill="palegreen" stroke="black" d="M473,-36C473,-36 283,-36 283,-36 277,-36 271,-30 271,-24 271,-24 271,-12 271,-12 271,-6 277,0 283,0 283,0 473,0 473,0 479,0 485,-6 485,-12 485,-12 485,-24 485,-24 485,-30 479,-36 473,-36"/>
<text text-anchor="middle" x="378" y="-14.3" font-family="Arial" font-size="14.00">Understands ice to water melting</text>
</g>
<!-- n2&#45;&gt;n7 -->
<g id="edge6" class="edge">
<title>n2&#45;&gt;n7</title>
<path fill="none" stroke="black" d="M209.23,-121.81C243.9,-100.69 302.8,-64.81 341.05,-41.51"/>
<polygon fill="black" stroke="black" points="343.11,-44.35 349.83,-36.16 339.47,-38.37 343.11,-44.35"/>
</g>
<!-- n3&#45;&gt;n7 -->
<g id="edge7" class="edge">
<title>n3&#45;&gt;n7</title>
<path fill="none" stroke="black" d="M545.92,-121.81C511.42,-100.69 452.82,-64.81 414.76,-41.51"/>
<polygon fill="black" stroke="black" points="416.39,-38.4 406.03,-36.16 412.73,-44.37 416.39,-38.4"/>
</g>
<!-- n8 -->
<g id="node8" class="node">
<title>n8</title>
<path fill="palegreen" stroke="black" d="M1043,-36C1043,-36 837,-36 837,-36 831,-36 825,-30 825,-24 825,-24 825,-12 825,-12 825,-6 831,0 837,0 837,0 1043,0 1043,0 1049,0 1055,-6 1055,-12 1055,-12 1055,-24 1055,-24 1055,-30 1049,-36 1043,-36"/>
<text text-anchor="middle" x="940" y="-14.3" font-family="Arial" font-size="14.00">Understands water to ice refreezing</text>
</g>
<!-- n4&#45;&gt;n8 -->
<g id="edge8" class="edge">
<title>n4&#45;&gt;n8</title>
<path fill="none" stroke="black" d="M940,-121.81C940,-102.11 940,-69.58 940,-46.39"/>
<polygon fill="black" stroke="black" points="943.5,-46.16 940,-36.16 936.5,-46.16 943.5,-46.16"/>
</g>
<!-- n9 -->
<g id="node9" class="node">
<title>n9</title>
<path fill="palegreen" stroke="black" d="M1462,-36C1462,-36 1232,-36 1232,-36 1226,-36 1220,-30 1220,-24 1220,-24 1220,-12 1220,-12 1220,-6 1226,0 1232,0 1232,0 1462,0 1462,0 1468,0 1474,-6 1474,-12 1474,-12 1474,-24 1474,-24 1474,-30 1468,-36 1462,-36"/>
<text text-anchor="middle" x="1347" y="-14.3" font-family="Arial" font-size="14.00">Understands reversible change process</text>
</g>
<!-- n5&#45;&gt;n9 -->
<g id="edge9" class="edge">
<title>n5&#45;&gt;n9</title>
<path fill="none" stroke="black" d="M1347,-121.81C1347,-102.11 1347,-69.58 1347,-46.39"/>
<polygon fill="black" stroke="black" points="1350.5,-46.16 1347,-36.16 1343.5,-46.16 1350.5,-46.16"/>
</g>
<!-- n10 -->
<g id="node10" class="node">
<title>n10</title>
<path fill="palegreen" stroke="black" d="M1838.5,-36C1838.5,-36 1599.5,-36 1599.5,-36 1593.5,-36 1587.5,-30 1587.5,-24 1587.5,-24 1587.5,-12 1587.5,-12 1587.5,-6 1593.5,0 1599.5,0 1599.5,0 1838.5,0 1838.5,0 1844.5,0 1850.5,-6 1850.5,-12 1850.5,-12 1850.5,-24 1850.5,-24 1850.5,-30 1844.5,-36 1838.5,-36"/>
<text text-anchor="middle" x="1719" y="-14.3" font-family="Arial" font-size="14.00">Correctly uses caption to explain process</text>
</g>
<!-- n6&#45;&gt;n10 -->
<g id="edge10" class="edge">
<title>n6&#45;&gt;n10</title>
<path fill="none" stroke="black" d="M1719,-121.81C1719,-102.11 1719,-69.58 1719,-46.39"/>
<polygon fill="black" stroke="black" points="1722.5,-46.16 1719,-36.16 1715.5,-46.16 1722.5,-46.16"/>
</g>
</g>
</svg>
