<?xml version="1.0" encoding="UTF-8" standalone="no"?>
<!DOCTYPE svg PUBLIC "-//W3C//DTD SVG 1.1//EN"
 "http://www.w3.org/Graphics/SVG/1.1/DTD/svg11.dtd">
<!-- Generated by graphviz version 2.43.0 (0)
 -->
<!-- Pages: 1 -->
<svg width="1383pt" height="410pt"
 viewBox="0.00 0.00 1383.12 410.00" xmlns="http://www.w3.org/2000/svg" xmlns:xlink="http://www.w3.org/1999/xlink">
<g id="graph0" class="graph" transform="scale(1 1) rotate(0) translate(4 406)">
<polygon fill="white" stroke="transparent" points="-4,4 -4,-406 1379.12,-406 1379.12,4 -4,4"/>
<!-- n1 -->
<g id="node1" class="node">
<title>n1</title>
<polygon fill="lightblue" stroke="black" points="766.5,-384 655,-402 432,-402 320.5,-384 432,-366 655,-366 766.5,-384"/>
<text text-anchor="middle" x="543.5" y="-380.3" font-family="Arial" font-size="14.00">Draw a string telephone between two students.</text>
</g>
<!-- n2 -->
<g id="node2" class="node">
<title>n2</title>
<polygon fill="#fffdd0" stroke="black" points="372,-280 111,-280 111,-244 372,-244 372,-280"/>
<text text-anchor="middle" x="241.5" y="-258.3" font-family="Arial" font-size="14.00">Two stick&#45;figure students communicating</text>
</g>
<!-- n1&#45;&gt;n2 -->
<g id="edge1" class="edge">
<title>n1&#45;&gt;n2</title>
<path fill="none" stroke="black" d="M500.55,-365.93C446.1,-344.3 352.28,-307.02 293.74,-283.76"/>
<polygon fill="black" stroke="black" points="294.89,-280.45 284.3,-280.01 292.3,-286.95 294.89,-280.45"/>
</g>
<!-- n3 -->
<g id="node3" class="node">
<title>n3</title>
<polygon fill="#fffdd0" stroke="black" points="651,-280 436,-280 436,-244 651,-244 651,-280"/>
<text text-anchor="middle" x="543.5" y="-258.3" font-family="Arial" font-size="14.00">Cup with string between students</text>
</g>
<!-- n1&#45;&gt;n3 -->
<g id="edge2" class="edge">
<title>n1&#45;&gt;n3</title>
<path fill="none" stroke="black" d="M543.5,-365.81C543.5,-346.11 543.5,-313.58 543.5,-290.39"/>
<polygon fill="black" stroke="black" points="547,-290.16 543.5,-280.16 540,-290.16 547,-290.16"/>
</g>
<!-- n4 -->
<g id="node4" class="node">
<title>n4</title>
<polygon fill="#fffdd0" stroke="black" points="1135,-280 964,-280 964,-244 1135,-244 1135,-280"/>
<text text-anchor="middle" x="1049.5" y="-258.3" font-family="Arial" font-size="14.00">Lines/arrows on the string</text>
</g>
<!-- n1&#45;&gt;n4 -->
<g id="edge3" class="edge">
<title>n1&#45;&gt;n4</title>
<path fill="none" stroke="black" d="M615.19,-366C708.24,-343.93 870.21,-305.52 967.87,-282.36"/>
<polygon fill="black" stroke="black" points="968.78,-285.74 977.7,-280.03 967.16,-278.93 968.78,-285.74"/>
</g>
<!-- n5 -->
<g id="node5" class="node">
<title>n5</title>
<path fill="palegreen" stroke="black" d="M203,-158C203,-158 12,-158 12,-158 6,-158 0,-152 0,-146 0,-146 0,-134 0,-134 0,-128 6,-122 12,-122 12,-122 203,-122 203,-122 209,-122 215,-128 215,-134 215,-134 215,-146 215,-146 215,-152 209,-158 203,-158"/>
<text text-anchor="middle" x="107.5" y="-136.3" font-family="Arial" font-size="14.00">Students actively communicating</text>
</g>
<!-- n2&#45;&gt;n5 -->
<g id="edge4" class="edge">
<title>n2&#45;&gt;n5</title>
<path fill="none" stroke="black" d="M222.3,-243.81C199.22,-223.13 160.33,-188.31 134.3,-165"/>
<polygon fill="black" stroke="black" points="136.44,-162.22 126.66,-158.16 131.78,-167.44 136.44,-162.22"/>
</g>
<!-- n6 -->
<g id="node6" class="node">
<title>n6</title>
<path fill="palegreen" stroke="black" d="M545.5,-158C545.5,-158 285.5,-158 285.5,-158 279.5,-158 273.5,-152 273.5,-146 273.5,-146 273.5,-134 273.5,-134 273.5,-128 279.5,-122 285.5,-122 285.5,-122 545.5,-122 545.5,-122 551.5,-122 557.5,-128 557.5,-134 557.5,-134 557.5,-146 557.5,-146 557.5,-152 551.5,-158 545.5,-158"/>
<text text-anchor="middle" x="415.5" y="-136.3" font-family="Arial" font-size="14.00">Basic concept of sound traveling along string</text>
</g>
<!-- n3&#45;&gt;n6 -->
<g id="edge5" class="edge">
<title>n3&#45;&gt;n6</title>
<path fill="none" stroke="black" d="M525.16,-243.81C503.2,-223.22 466.29,-188.61 441.42,-165.3"/>
<polygon fill="black" stroke="black" points="443.5,-162.45 433.81,-158.16 438.71,-167.55 443.5,-162.45"/>
</g>
<!-- n8 -->
<g id="node7" class="node">
<title>n8</title>
<polygon fill="lightcoral" stroke="black" points="768.5,-158 615,-140 768.5,-122 922,-140 768.5,-158"/>
<text text-anchor="middle" x="768.5" y="-136.3" font-family="Arial" font-size="14.00">Use of ordinary materials</text>
</g>
<!-- n3&#45;&gt;n8 -->
<g id="edge6" class="edge">
<title>n3&#45;&gt;n8</title>
<path fill="none" stroke="black" d="M575.74,-243.81C617.51,-221.53 690.09,-182.82 733.27,-159.79"/>
<polygon fill="black" stroke="black" points="735.11,-162.78 742.28,-154.98 731.81,-156.6 735.11,-162.78"/>
</g>
<!-- n7 -->
<g id="node8" class="node">
<title>n7</title>
<polygon fill="lightcoral" stroke="black" points="1177.5,-158 979.76,-140 1177.5,-122 1375.24,-140 1177.5,-158"/>
<text text-anchor="middle" x="1177.5" y="-136.3" font-family="Arial" font-size="14.00">Sound transmission is too simple</text>
</g>
<!-- n4&#45;&gt;n7 -->
<g id="edge7" class="edge">
<title>n4&#45;&gt;n7</title>
<path fill="none" stroke="black" d="M1067.8,-243.81C1090.3,-222.75 1128.4,-187.03 1153.3,-163.73"/>
<polygon fill="black" stroke="black" points="1155.94,-166.05 1160.8,-156.63 1151.13,-160.96 1155.94,-166.05"/>
</g>
<!-- n10 -->
<g id="node9" class="node">
<title>n10</title>
<polygon fill="#f28e8e" stroke="black" points="889.5,-36 647.5,-36 647.5,0 889.5,0 889.5,-36"/>
<text text-anchor="middle" x="768.5" y="-14.3" font-family="Arial" font-size="14.00">Include labels to show materials used</text>
</g>
<!-- n8&#45;&gt;n10 -->
<g id="edge8" class="edge">
<title>n8&#45;&gt;n10</title>
<path fill="none" stroke="black" d="M768.5,-121.81C768.5,-102.11 768.5,-69.58 768.5,-46.39"/>
<polygon fill="black" stroke="black" points="772,-46.16 768.5,-36.16 765,-46.16 772,-46.16"/>
</g>
<!-- n9 -->
<g id="node10" class="node">
<title>n9</title>
<polygon fill="#f28e8e" stroke="black" points="1301.5,-36 1053.5,-36 1053.5,0 1301.5,0 1301.5,-36"/>
<text text-anchor="middle" x="1177.5" y="-14.3" font-family="Arial" font-size="14.00">Explore more about how sound travels</text>
</g>
<!-- n7&#45;&gt;n9 -->
<g id="edge9" class="edge">
<title>n7&#45;&gt;n9</title>
<path fill="none" stroke="black" d="M1177.5,-121.81C1177.5,-102.11 1177.5,-69.58 1177.5,-46.39"/>
<polygon fill="black" stroke="black" points="1181,-46.16 1177.5,-36.16 1174,-46.16 1181,-46.16"/>
</g>
</g>
</svg>
