<?xml version="1.0" encoding="UTF-8" standalone="no"?>
<!DOCTYPE svg PUBLIC "-//W3C//DTD SVG 1.1//EN"
 "http://www.w3.org/Graphics/SVG/1.1/DTD/svg11.dtd">
<!-- Generated by graphviz version 2.43.0 (0)
 -->
<!-- Pages: 1 -->
<svg width="1418pt" height="410pt"
 viewBox="0.00 0.00 1418.08 410.00" xmlns="http://www.w3.org/2000/svg" xmlns:xlink="http://www.w3.org/1999/xlink">
<g id="graph0" class="graph" transform="scale(1 1) rotate(0) translate(4 406)">
<polygon fill="white" stroke="transparent" points="-4,4 -4,-406 1414.08,-406 1414.08,4 -4,4"/>
<!-- n1 -->
<g id="node1" class="node">
<title>n1</title>
<polygon fill="lightblue" stroke="black" points="754.5,-384 643,-402 420,-402 308.5,-384 420,-366 643,-366 754.5,-384"/>
<text text-anchor="middle" x="531.5" y="-380.3" font-family="Arial" font-size="14.00">Draw a string telephone between two students.</text>
</g>
<!-- n2 -->
<g id="node2" class="node">
<title>n2</title>
<polygon fill="#fffdd0" stroke="black" points="299.5,-280 99.5,-280 99.5,-244 299.5,-244 299.5,-280"/>
<text text-anchor="middle" x="199.5" y="-258.3" font-family="Arial" font-size="14.00">Two children facing each other</text>
</g>
<!-- n1&#45;&gt;n2 -->
<g id="edge1" class="edge">
<title>n1&#45;&gt;n2</title>
<path fill="none" stroke="black" d="M484.29,-365.93C424.18,-344.21 320.43,-306.71 256.13,-283.47"/>
<polygon fill="black" stroke="black" points="257.14,-280.12 246.55,-280.01 254.77,-286.7 257.14,-280.12"/>
</g>
<!-- n3 -->
<g id="node3" class="node">
<title>n3</title>
<polygon fill="#fffdd0" stroke="black" points="483.5,-280 405.5,-280 405.5,-244 483.5,-244 483.5,-280"/>
<text text-anchor="middle" x="444.5" y="-258.3" font-family="Arial" font-size="14.00">Paper cup</text>
</g>
<!-- n1&#45;&gt;n3 -->
<g id="edge2" class="edge">
<title>n1&#45;&gt;n3</title>
<path fill="none" stroke="black" d="M519.04,-365.81C504.37,-345.58 479.89,-311.81 463,-288.52"/>
<polygon fill="black" stroke="black" points="465.64,-286.2 456.94,-280.16 459.98,-290.31 465.64,-286.2"/>
</g>
<!-- n4 -->
<g id="node4" class="node">
<title>n4</title>
<polygon fill="#fffdd0" stroke="black" points="766,-280 613,-280 613,-244 766,-244 766,-280"/>
<text text-anchor="middle" x="689.5" y="-258.3" font-family="Arial" font-size="14.00">String connecting cups</text>
</g>
<!-- n1&#45;&gt;n4 -->
<g id="edge3" class="edge">
<title>n1&#45;&gt;n4</title>
<path fill="none" stroke="black" d="M554.14,-365.81C581.59,-344.96 628,-309.71 658.69,-286.4"/>
<polygon fill="black" stroke="black" points="661.06,-289 666.9,-280.16 656.82,-283.42 661.06,-289"/>
</g>
<!-- n5 -->
<g id="node5" class="node">
<title>n5</title>
<polygon fill="#fffdd0" stroke="black" points="1110.5,-280 980.5,-280 980.5,-244 1110.5,-244 1110.5,-280"/>
<text text-anchor="middle" x="1045.5" y="-258.3" font-family="Arial" font-size="14.00">Basic labels added</text>
</g>
<!-- n1&#45;&gt;n5 -->
<g id="edge4" class="edge">
<title>n1&#45;&gt;n5</title>
<path fill="none" stroke="black" d="M604.33,-366C701.38,-343.34 872.28,-303.44 970.45,-280.52"/>
<polygon fill="black" stroke="black" points="971.36,-283.9 980.3,-278.22 969.77,-277.09 971.36,-283.9"/>
</g>
<!-- n6 -->
<g id="node6" class="node">
<title>n6</title>
<path fill="palegreen" stroke="black" d="M221,-158C221,-158 12,-158 12,-158 6,-158 0,-152 0,-146 0,-146 0,-134 0,-134 0,-128 6,-122 12,-122 12,-122 221,-122 221,-122 227,-122 233,-128 233,-134 233,-134 233,-146 233,-146 233,-152 227,-158 221,-158"/>
<text text-anchor="middle" x="116.5" y="-136.3" font-family="Arial" font-size="14.00">Understands people communicating</text>
</g>
<!-- n2&#45;&gt;n6 -->
<g id="edge5" class="edge">
<title>n2&#45;&gt;n6</title>
<path fill="none" stroke="black" d="M187.61,-243.81C173.62,-223.58 150.26,-189.81 134.15,-166.52"/>
<polygon fill="black" stroke="black" points="136.94,-164.4 128.37,-158.16 131.18,-168.38 136.94,-164.4"/>
</g>
<!-- n7 -->
<g id="node7" class="node">
<title>n7</title>
<path fill="palegreen" stroke="black" d="M515.5,-158C515.5,-158 303.5,-158 303.5,-158 297.5,-158 291.5,-152 291.5,-146 291.5,-146 291.5,-134 291.5,-134 291.5,-128 297.5,-122 303.5,-122 303.5,-122 515.5,-122 515.5,-122 521.5,-122 527.5,-128 527.5,-134 527.5,-134 527.5,-146 527.5,-146 527.5,-152 521.5,-158 515.5,-158"/>
<text text-anchor="middle" x="409.5" y="-136.3" font-family="Arial" font-size="14.00">Understands use of simple materials</text>
</g>
<!-- n3&#45;&gt;n7 -->
<g id="edge6" class="edge">
<title>n3&#45;&gt;n7</title>
<path fill="none" stroke="black" d="M439.49,-243.81C433.69,-223.94 424.08,-190.99 417.31,-167.76"/>
<polygon fill="black" stroke="black" points="420.67,-166.78 414.51,-158.16 413.95,-168.74 420.67,-166.78"/>
</g>
<!-- n8 -->
<g id="node8" class="node">
<title>n8</title>
<polygon fill="lightcoral" stroke="black" points="725.5,-158 585.58,-140 725.5,-122 865.42,-140 725.5,-158"/>
<text text-anchor="middle" x="725.5" y="-136.3" font-family="Arial" font-size="14.00">Attempts to label parts</text>
</g>
<!-- n4&#45;&gt;n8 -->
<g id="edge7" class="edge">
<title>n4&#45;&gt;n8</title>
<path fill="none" stroke="black" d="M694.66,-243.81C700.69,-223.71 710.73,-190.24 717.71,-166.97"/>
<polygon fill="black" stroke="black" points="721.06,-167.97 720.58,-157.39 714.36,-165.96 721.06,-167.97"/>
</g>
<!-- n9 -->
<g id="node9" class="node">
<title>n9</title>
<polygon fill="lightcoral" stroke="black" points="1166.5,-158 922.85,-140 1166.5,-122 1410.15,-140 1166.5,-158"/>
<text text-anchor="middle" x="1166.5" y="-136.3" font-family="Arial" font-size="14.00">Incomplete understanding of sound travel</text>
</g>
<!-- n5&#45;&gt;n9 -->
<g id="edge8" class="edge">
<title>n5&#45;&gt;n9</title>
<path fill="none" stroke="black" d="M1062.8,-243.81C1083.9,-222.87 1119.7,-187.43 1143.2,-164.12"/>
<polygon fill="black" stroke="black" points="1145.74,-166.53 1150.4,-157.01 1140.83,-161.55 1145.74,-166.53"/>
</g>
<!-- n10 -->
<g id="node10" class="node">
<title>n10</title>
<polygon fill="#f28e8e" stroke="black" points="1075.5,-36 815.5,-36 815.5,0 1075.5,0 1075.5,-36"/>
<text text-anchor="middle" x="945.5" y="-14.3" font-family="Arial" font-size="14.00">Explain how sound travels through string</text>
</g>
<!-- n8&#45;&gt;n10 -->
<g id="edge9" class="edge">
<title>n8&#45;&gt;n10</title>
<path fill="none" stroke="black" d="M750.74,-125.23C788.54,-104.62 860.23,-65.51 905.29,-40.93"/>
<polygon fill="black" stroke="black" points="907.1,-43.93 914.21,-36.07 903.75,-37.78 907.1,-43.93"/>
</g>
<!-- n9&#45;&gt;n10 -->
<g id="edge10" class="edge">
<title>n9&#45;&gt;n10</title>
<path fill="none" stroke="black" d="M1138.5,-123.8C1099.9,-102.84 1030.1,-64.93 985.85,-40.91"/>
<polygon fill="black" stroke="black" points="987.28,-37.7 976.82,-36.01 983.94,-43.85 987.28,-37.7"/>
</g>
</g>
</svg>
