<?xml version="1.0" encoding="UTF-8" standalone="no"?>
<!DOCTYPE svg PUBLIC "-//W3C//DTD SVG 1.1//EN"
 "http://www.w3.org/Graphics/SVG/1.1/DTD/svg11.dtd">
<!-- Generated by graphviz version 2.43.0 (0)
 -->
<!-- Pages: 1 -->
<svg width="594pt" height="410pt"
 viewBox="0.00 0.00 593.73 410.00" xmlns="http://www.w3.org/2000/svg" xmlns:xlink="http://www.w3.org/1999/xlink">
<g id="graph0" class="graph" transform="scale(1 1) rotate(0) translate(4 406)">
<polygon fill="white" stroke="transparent" points="-4,4 -4,-406 589.73,-406 589.73,4 -4,4"/>
<!-- n1 -->
<g id="node1" class="node">
<title>n1</title>
<polygon fill="lightblue" stroke="black" points="403.24,-384 310.12,-402 123.88,-402 30.76,-384 123.88,-366 310.12,-366 403.24,-384"/>
<text text-anchor="middle" x="217" y="-380.3" font-family="Arial" font-size="14.00">Illustrate plants with and without water.</text>
</g>
<!-- n2 -->
<g id="node2" class="node">
<title>n2</title>
<polygon fill="#fffdd0" stroke="black" points="345.5,-280 88.5,-280 88.5,-244 345.5,-244 345.5,-280"/>
<text text-anchor="middle" x="217" y="-258.3" font-family="Arial" font-size="14.00">Two plants with green stems and leaves</text>
</g>
<!-- n1&#45;&gt;n2 -->
<g id="edge1" class="edge">
<title>n1&#45;&gt;n2</title>
<path fill="none" stroke="black" d="M217,-365.81C217,-346.11 217,-313.58 217,-290.39"/>
<polygon fill="black" stroke="black" points="220.5,-290.16 217,-280.16 213.5,-290.16 220.5,-290.16"/>
</g>
<!-- n3 -->
<g id="node3" class="node">
<title>n3</title>
<path fill="palegreen" stroke="black" d="M100,-158C100,-158 12,-158 12,-158 6,-158 0,-152 0,-146 0,-146 0,-134 0,-134 0,-128 6,-122 12,-122 12,-122 100,-122 100,-122 106,-122 112,-128 112,-134 112,-134 112,-146 112,-146 112,-152 106,-158 100,-158"/>
<text text-anchor="middle" x="56" y="-136.3" font-family="Arial" font-size="14.00">Plant with water</text>
</g>
<!-- n2&#45;&gt;n3 -->
<g id="edge2" class="edge">
<title>n2&#45;&gt;n3</title>
<path fill="none" stroke="black" d="M193.93,-243.81C165.96,-222.96 118.67,-187.71 87.39,-164.4"/>
<polygon fill="black" stroke="black" points="89.13,-161.33 79.03,-158.16 84.95,-166.94 89.13,-161.33"/>
</g>
<!-- n4 -->
<g id="node4" class="node">
<title>n4</title>
<polygon fill="lightcoral" stroke="black" points="378,-158 170.04,-140 378,-122 585.96,-140 378,-158"/>
<text text-anchor="middle" x="378" y="-136.3" font-family="Arial" font-size="14.00">No visible difference in plant health</text>
</g>
<!-- n2&#45;&gt;n4 -->
<g id="edge3" class="edge">
<title>n2&#45;&gt;n4</title>
<path fill="none" stroke="black" d="M240.07,-243.81C268.84,-222.36 318.03,-185.7 349.23,-162.44"/>
<polygon fill="black" stroke="black" points="351.59,-165.04 357.52,-156.26 347.41,-159.43 351.59,-165.04"/>
</g>
<!-- n5 -->
<g id="node5" class="node">
<title>n5</title>
<polygon fill="#f28e8e" stroke="black" points="491.5,-36 264.5,-36 264.5,0 491.5,0 491.5,-36"/>
<text text-anchor="middle" x="378" y="-14.3" font-family="Arial" font-size="14.00">Add wilted leaves or drooping stem</text>
</g>
<!-- n4&#45;&gt;n5 -->
<g id="edge4" class="edge">
<title>n4&#45;&gt;n5</title>
<path fill="none" stroke="black" d="M378,-121.81C378,-102.11 378,-69.58 378,-46.39"/>
<polygon fill="black" stroke="black" points="381.5,-46.16 378,-36.16 374.5,-46.16 381.5,-46.16"/>
</g>
</g>
</svg>
