<?xml version="1.0" encoding="UTF-8" standalone="no"?>
<!DOCTYPE svg PUBLIC "-//W3C//DTD SVG 1.1//EN"
 "http://www.w3.org/Graphics/SVG/1.1/DTD/svg11.dtd">
<!-- Generated by graphviz version 2.43.0 (0)
 -->
<!-- Pages: 1 -->
<svg width="1957pt" height="410pt"
 viewBox="0.00 0.00 1956.50 410.00" xmlns="http://www.w3.org/2000/svg" xmlns:xlink="http://www.w3.org/1999/xlink">
<g id="graph0" class="graph" transform="scale(1 1) rotate(0) translate(4 406)">
<polygon fill="white" stroke="transparent" points="-4,4 -4,-406 1952.5,-406 1952.5,4 -4,4"/>
<!-- n1 -->
<g id="node1" class="node">
<title>n1</title>
<polygon fill="lightblue" stroke="black" points="1242.5,-384 1132.5,-402 912.5,-402 802.5,-384 912.5,-366 1132.5,-366 1242.5,-384"/>
<text text-anchor="middle" x="1022.5" y="-380.3" font-family="Arial" font-size="14.00">Draw a string telephone between two students</text>
</g>
<!-- n2 -->
<g id="node2" class="node">
<title>n2</title>
<polygon fill="#fffdd0" stroke="black" points="524.5,-280 348.5,-280 348.5,-244 524.5,-244 524.5,-280"/>
<text text-anchor="middle" x="436.5" y="-258.3" font-family="Arial" font-size="14.00">Two children with red cups</text>
</g>
<!-- n1&#45;&gt;n2 -->
<g id="edge1" class="edge">
<title>n1&#45;&gt;n2</title>
<path fill="none" stroke="black" d="M939.47,-366C831.28,-343.84 642.62,-305.21 529.66,-282.08"/>
<polygon fill="black" stroke="black" points="530.15,-278.61 519.65,-280.03 528.74,-285.47 530.15,-278.61"/>
</g>
<!-- n3 -->
<g id="node3" class="node">
<title>n3</title>
<polygon fill="#fffdd0" stroke="black" points="976,-280 857,-280 857,-244 976,-244 976,-280"/>
<text text-anchor="middle" x="916.5" y="-258.3" font-family="Arial" font-size="14.00">Long black string</text>
</g>
<!-- n1&#45;&gt;n3 -->
<g id="edge2" class="edge">
<title>n1&#45;&gt;n3</title>
<path fill="none" stroke="black" d="M1007.3,-365.81C989.29,-345.4 959.09,-311.21 938.5,-287.91"/>
<polygon fill="black" stroke="black" points="940.9,-285.34 931.66,-280.16 935.65,-289.97 940.9,-285.34"/>
</g>
<!-- n4 -->
<g id="node4" class="node">
<title>n4</title>
<polygon fill="#fffdd0" stroke="black" points="1329,-280 1140,-280 1140,-244 1329,-244 1329,-280"/>
<text text-anchor="middle" x="1234.5" y="-258.3" font-family="Arial" font-size="14.00">Arrows showing sound travel</text>
</g>
<!-- n1&#45;&gt;n4 -->
<g id="edge3" class="edge">
<title>n1&#45;&gt;n4</title>
<path fill="none" stroke="black" d="M1052.9,-365.81C1090.3,-344.6 1154.1,-308.5 1195.3,-285.21"/>
<polygon fill="black" stroke="black" points="1197.23,-288.14 1204.2,-280.16 1193.78,-282.05 1197.23,-288.14"/>
</g>
<!-- n5 -->
<g id="node5" class="node">
<title>n5</title>
<polygon fill="#fffdd0" stroke="black" points="1721,-280 1564,-280 1564,-244 1721,-244 1721,-280"/>
<text text-anchor="middle" x="1642.5" y="-258.3" font-family="Arial" font-size="14.00">Labels &#39;cup&#39; and &#39;string&#39;</text>
</g>
<!-- n1&#45;&gt;n5 -->
<g id="edge4" class="edge">
<title>n1&#45;&gt;n5</title>
<path fill="none" stroke="black" d="M1110.3,-366C1228,-343.22 1435.6,-303.04 1553.8,-280.18"/>
<polygon fill="black" stroke="black" points="1554.75,-283.56 1563.9,-278.22 1553.42,-276.69 1554.75,-283.56"/>
</g>
<!-- n6 -->
<g id="node6" class="node">
<title>n6</title>
<path fill="palegreen" stroke="black" d="M271,-158C271,-158 12,-158 12,-158 6,-158 0,-152 0,-146 0,-146 0,-134 0,-134 0,-128 6,-122 12,-122 12,-122 271,-122 271,-122 277,-122 283,-128 283,-134 283,-134 283,-146 283,-146 283,-152 277,-158 271,-158"/>
<text text-anchor="middle" x="141.5" y="-136.3" font-family="Arial" font-size="14.00">Children are communicating from a distance</text>
</g>
<!-- n2&#45;&gt;n6 -->
<g id="edge5" class="edge">
<title>n2&#45;&gt;n6</title>
<path fill="none" stroke="black" d="M394.55,-243.93C341.47,-222.34 250.09,-185.17 192.88,-161.9"/>
<polygon fill="black" stroke="black" points="193.89,-158.53 183.31,-158.01 191.26,-165.02 193.89,-158.53"/>
</g>
<!-- n9 -->
<g id="node7" class="node">
<title>n9</title>
<path fill="palegreen" stroke="black" d="M520,-158C520,-158 353,-158 353,-158 347,-158 341,-152 341,-146 341,-146 341,-134 341,-134 341,-128 347,-122 353,-122 353,-122 520,-122 520,-122 526,-122 532,-128 532,-134 532,-134 532,-146 532,-146 532,-152 526,-158 520,-158"/>
<text text-anchor="middle" x="436.5" y="-136.3" font-family="Arial" font-size="14.00">Includes necessary materials</text>
</g>
<!-- n2&#45;&gt;n9 -->
<g id="edge6" class="edge">
<title>n2&#45;&gt;n9</title>
<path fill="none" stroke="black" d="M436.5,-243.81C436.5,-224.11 436.5,-191.58 436.5,-168.39"/>
<polygon fill="black" stroke="black" points="440,-168.16 436.5,-158.16 433,-168.16 440,-168.16"/>
</g>
<!-- n7 -->
<g id="node8" class="node">
<title>n7</title>
<path fill="palegreen" stroke="black" d="M773,-158C773,-158 602,-158 602,-158 596,-158 590,-152 590,-146 590,-146 590,-134 590,-134 590,-128 596,-122 602,-122 602,-122 773,-122 773,-122 779,-122 785,-128 785,-134 785,-134 785,-146 785,-146 785,-152 779,-158 773,-158"/>
<text text-anchor="middle" x="687.5" y="-136.3" font-family="Arial" font-size="14.00">Sound travels along the string</text>
</g>
<!-- n3&#45;&gt;n7 -->
<g id="edge7" class="edge">
<title>n3&#45;&gt;n7</title>
<path fill="none" stroke="black" d="M883.69,-243.81C843.05,-222.51 773.75,-186.2 729.33,-162.92"/>
<polygon fill="black" stroke="black" points="730.73,-159.7 720.25,-158.16 727.48,-165.9 730.73,-159.7"/>
</g>
<!-- n8 -->
<g id="node9" class="node">
<title>n8</title>
<path fill="palegreen" stroke="black" d="M978,-158C978,-158 855,-158 855,-158 849,-158 843,-152 843,-146 843,-146 843,-134 843,-134 843,-128 849,-122 855,-122 855,-122 978,-122 978,-122 984,-122 990,-128 990,-134 990,-134 990,-146 990,-146 990,-152 984,-158 978,-158"/>
<text text-anchor="middle" x="916.5" y="-136.3" font-family="Arial" font-size="14.00">String is a key feature</text>
</g>
<!-- n3&#45;&gt;n8 -->
<g id="edge8" class="edge">
<title>n3&#45;&gt;n8</title>
<path fill="none" stroke="black" d="M916.5,-243.81C916.5,-224.11 916.5,-191.58 916.5,-168.39"/>
<polygon fill="black" stroke="black" points="920,-168.16 916.5,-158.16 913,-168.16 920,-168.16"/>
</g>
<!-- n10 -->
<g id="node10" class="node">
<title>n10</title>
<polygon fill="lightcoral" stroke="black" points="1341.5,-158 1048.08,-140 1341.5,-122 1634.92,-140 1341.5,-158"/>
<text text-anchor="middle" x="1341.5" y="-136.3" font-family="Arial" font-size="14.00">Arrows suggest sound travel but not fully complete</text>
</g>
<!-- n4&#45;&gt;n10 -->
<g id="edge9" class="edge">
<title>n4&#45;&gt;n10</title>
<path fill="none" stroke="black" d="M1249.8,-243.81C1268.2,-223.17 1299.2,-188.43 1320,-165.12"/>
<polygon fill="black" stroke="black" points="1322.85,-167.18 1326.9,-157.39 1317.63,-162.52 1322.85,-167.18"/>
</g>
<!-- n11 -->
<g id="node11" class="node">
<title>n11</title>
<polygon fill="lightcoral" stroke="black" points="1820.5,-158 1692.5,-140 1820.5,-122 1948.5,-140 1820.5,-158"/>
<text text-anchor="middle" x="1820.5" y="-136.3" font-family="Arial" font-size="14.00">Inconsistent labeling</text>
</g>
<!-- n5&#45;&gt;n11 -->
<g id="edge10" class="edge">
<title>n5&#45;&gt;n11</title>
<path fill="none" stroke="black" d="M1668,-243.81C1700.5,-221.91 1756.5,-184.16 1790.8,-161"/>
<polygon fill="black" stroke="black" points="1793.15,-163.64 1799.5,-155.16 1789.25,-157.83 1793.15,-163.64"/>
</g>
<!-- n12 -->
<g id="node12" class="node">
<title>n12</title>
<polygon fill="#f28e8e" stroke="black" points="1919,-36 1722,-36 1722,0 1919,0 1919,-36"/>
<text text-anchor="middle" x="1820.5" y="-14.3" font-family="Arial" font-size="14.00">Add complete labels for clarity</text>
</g>
<!-- n11&#45;&gt;n12 -->
<g id="edge11" class="edge">
<title>n11&#45;&gt;n12</title>
<path fill="none" stroke="black" d="M1820.5,-121.81C1820.5,-102.11 1820.5,-69.58 1820.5,-46.39"/>
<polygon fill="black" stroke="black" points="1824,-46.16 1820.5,-36.16 1817,-46.16 1824,-46.16"/>
</g>
</g>
</svg>
