<?xml version="1.0" encoding="UTF-8" standalone="no"?>
<!DOCTYPE svg PUBLIC "-//W3C//DTD SVG 1.1//EN"
 "http://www.w3.org/Graphics/SVG/1.1/DTD/svg11.dtd">
<!-- Generated by graphviz version 2.43.0 (0)
 -->
<!-- Pages: 1 -->
<svg width="2049pt" height="410pt"
 viewBox="0.00 0.00 2049.00 410.00" xmlns="http://www.w3.org/2000/svg" xmlns:xlink="http://www.w3.org/1999/xlink">
<g id="graph0" class="graph" transform="scale(1 1) rotate(0) translate(4 406)">
<polygon fill="white" stroke="transparent" points="-4,4 -4,-406 2045,-406 2045,4 -4,4"/>
<!-- n1 -->
<g id="node1" class="node">
<title>n1</title>
<polygon fill="lightblue" stroke="black" points="918,-384 808,-402 588,-402 478,-384 588,-366 808,-366 918,-384"/>
<text text-anchor="middle" x="698" y="-380.3" font-family="Arial" font-size="14.00">Draw a string telephone between two students</text>
</g>
<!-- n2 -->
<g id="node2" class="node">
<title>n2</title>
<polygon fill="#fffdd0" stroke="black" points="340,-280 224,-280 224,-244 340,-244 340,-280"/>
<text text-anchor="middle" x="282" y="-258.3" font-family="Arial" font-size="14.00">Two stick figures</text>
</g>
<!-- n1&#45;&gt;n2 -->
<g id="edge1" class="edge">
<title>n1&#45;&gt;n2</title>
<path fill="none" stroke="black" d="M638.84,-365.93C562.69,-343.97 430.64,-305.88 350.3,-282.7"/>
<polygon fill="black" stroke="black" points="350.87,-279.22 340.29,-279.81 348.93,-285.95 350.87,-279.22"/>
</g>
<!-- n3 -->
<g id="node3" class="node">
<title>n3</title>
<polygon fill="#fffdd0" stroke="black" points="673.5,-280 490.5,-280 490.5,-244 673.5,-244 673.5,-280"/>
<text text-anchor="middle" x="582" y="-258.3" font-family="Arial" font-size="14.00">Unconnected horizontal line</text>
</g>
<!-- n1&#45;&gt;n3 -->
<g id="edge2" class="edge">
<title>n1&#45;&gt;n3</title>
<path fill="none" stroke="black" d="M681.38,-365.81C661.57,-345.31 628.32,-310.91 605.78,-287.6"/>
<polygon fill="black" stroke="black" points="608.06,-284.92 598.59,-280.16 603.02,-289.78 608.06,-284.92"/>
</g>
<!-- n4 -->
<g id="node4" class="node">
<title>n4</title>
<polygon fill="#fffdd0" stroke="black" points="1047,-280 883,-280 883,-244 1047,-244 1047,-280"/>
<text text-anchor="middle" x="965" y="-258.3" font-family="Arial" font-size="14.00">Small circles near hands</text>
</g>
<!-- n1&#45;&gt;n4 -->
<g id="edge3" class="edge">
<title>n1&#45;&gt;n4</title>
<path fill="none" stroke="black" d="M735.97,-365.93C783.82,-344.43 866.04,-307.48 917.85,-284.19"/>
<polygon fill="black" stroke="black" points="919.47,-287.3 927.16,-280.01 916.6,-280.91 919.47,-287.3"/>
</g>
<!-- n5 -->
<g id="node5" class="node">
<title>n5</title>
<polygon fill="#fffdd0" stroke="black" points="1580,-280 1392,-280 1392,-244 1580,-244 1580,-280"/>
<text text-anchor="middle" x="1486" y="-258.3" font-family="Arial" font-size="14.00">Short wavy lines near circles</text>
</g>
<!-- n1&#45;&gt;n5 -->
<g id="edge4" class="edge">
<title>n1&#45;&gt;n5</title>
<path fill="none" stroke="black" d="M808.81,-366.12C961.1,-342.93 1233.1,-301.52 1381.8,-278.87"/>
<polygon fill="black" stroke="black" points="1382.54,-282.3 1391.9,-277.34 1381.49,-275.38 1382.54,-282.3"/>
</g>
<!-- n6 -->
<g id="node6" class="node">
<title>n6</title>
<path fill="palegreen" stroke="black" d="M214,-158C214,-158 12,-158 12,-158 6,-158 0,-152 0,-146 0,-146 0,-134 0,-134 0,-128 6,-122 12,-122 12,-122 214,-122 214,-122 220,-122 226,-128 226,-134 226,-134 226,-146 226,-146 226,-152 220,-158 214,-158"/>
<text text-anchor="middle" x="113" y="-136.3" font-family="Arial" font-size="14.00">Basic ability to draw human figures</text>
</g>
<!-- n2&#45;&gt;n6 -->
<g id="edge5" class="edge">
<title>n2&#45;&gt;n6</title>
<path fill="none" stroke="black" d="M257.79,-243.81C228.29,-222.87 178.36,-187.41 145.53,-164.1"/>
<polygon fill="black" stroke="black" points="147.35,-161.1 137.17,-158.16 143.29,-166.81 147.35,-161.1"/>
</g>
<!-- n7 -->
<g id="node7" class="node">
<title>n7</title>
<polygon fill="lightcoral" stroke="black" points="506,-158 283.5,-140 506,-122 728.5,-140 506,-158"/>
<text text-anchor="middle" x="506" y="-136.3" font-family="Arial" font-size="14.00">Misunderstanding of function of string</text>
</g>
<!-- n3&#45;&gt;n7 -->
<g id="edge6" class="edge">
<title>n3&#45;&gt;n7</title>
<path fill="none" stroke="black" d="M571.11,-243.81C558.21,-223.44 536.62,-189.34 521.86,-166.04"/>
<polygon fill="black" stroke="black" points="524.69,-163.96 516.38,-157.39 518.78,-167.71 524.69,-163.96"/>
</g>
<!-- n8 -->
<g id="node8" class="node">
<title>n8</title>
<polygon fill="lightcoral" stroke="black" points="1041,-158 786.29,-140 1041,-122 1295.71,-140 1041,-158"/>
<text text-anchor="middle" x="1041" y="-136.3" font-family="Arial" font-size="14.00">Attempt to show connection not understood</text>
</g>
<!-- n4&#45;&gt;n8 -->
<g id="edge7" class="edge">
<title>n4&#45;&gt;n8</title>
<path fill="none" stroke="black" d="M975.89,-243.81C988.79,-223.44 1010.4,-189.34 1025.1,-166.04"/>
<polygon fill="black" stroke="black" points="1028.19,-167.71 1030.6,-157.39 1022.28,-163.95 1028.19,-167.71"/>
</g>
<!-- n9 -->
<g id="node9" class="node">
<title>n9</title>
<polygon fill="lightcoral" stroke="black" points="1697,-158 1353,-140 1697,-122 2041,-140 1697,-158"/>
<text text-anchor="middle" x="1697" y="-136.3" font-family="Arial" font-size="14.00">Misinterpretation of sound representation through vibrations</text>
</g>
<!-- n5&#45;&gt;n9 -->
<g id="edge8" class="edge">
<title>n5&#45;&gt;n9</title>
<path fill="none" stroke="black" d="M1516.2,-243.81C1554.4,-222.12 1619.9,-184.85 1660.7,-161.65"/>
<polygon fill="black" stroke="black" points="1662.55,-164.63 1669.5,-156.63 1659.08,-158.54 1662.55,-164.63"/>
</g>
<!-- n10 -->
<g id="node10" class="node">
<title>n10</title>
<polygon fill="#f28e8e" stroke="black" points="644,-36 368,-36 368,0 644,0 644,-36"/>
<text text-anchor="middle" x="506" y="-14.3" font-family="Arial" font-size="14.00">Connect string solidly between cups/figures</text>
</g>
<!-- n7&#45;&gt;n10 -->
<g id="edge9" class="edge">
<title>n7&#45;&gt;n10</title>
<path fill="none" stroke="black" d="M506,-121.81C506,-102.11 506,-69.58 506,-46.39"/>
<polygon fill="black" stroke="black" points="509.5,-46.16 506,-36.16 502.5,-46.16 509.5,-46.16"/>
</g>
<!-- n11 -->
<g id="node11" class="node">
<title>n11</title>
<polygon fill="#f28e8e" stroke="black" points="1860.5,-36 1533.5,-36 1533.5,0 1860.5,0 1860.5,-36"/>
<text text-anchor="middle" x="1697" y="-14.3" font-family="Arial" font-size="14.00">Represent vibrations with clearer symbols or arrows</text>
</g>
<!-- n9&#45;&gt;n11 -->
<g id="edge10" class="edge">
<title>n9&#45;&gt;n11</title>
<path fill="none" stroke="black" d="M1697,-121.81C1697,-102.11 1697,-69.58 1697,-46.39"/>
<polygon fill="black" stroke="black" points="1700.5,-46.16 1697,-36.16 1693.5,-46.16 1700.5,-46.16"/>
</g>
</g>
</svg>
