<?xml version="1.0" encoding="UTF-8" standalone="no"?>
<!DOCTYPE svg PUBLIC "-//W3C//DTD SVG 1.1//EN"
 "http://www.w3.org/Graphics/SVG/1.1/DTD/svg11.dtd">
<!-- Generated by graphviz version 2.43.0 (0)
 -->
<!-- Pages: 1 -->
<svg width="1096pt" height="410pt"
 viewBox="0.00 0.00 1096.00 410.00" xmlns="http://www.w3.org/2000/svg" xmlns:xlink="http://www.w3.org/1999/xlink">
<g id="graph0" class="graph" transform="scale(1 1) rotate(0) translate(4 406)">
<polygon fill="white" stroke="transparent" points="-4,4 -4,-406 1092,-406 1092,4 -4,4"/>
<!-- n1 -->
<g id="node1" class="node">
<title>n1</title>
<polygon fill="lightblue" stroke="black" points="806.5,-384 676.25,-402 415.75,-402 285.5,-384 415.75,-366 676.25,-366 806.5,-384"/>
<text text-anchor="middle" x="546" y="-380.3" font-family="Arial" font-size="14.00">Draw two habitats and the different living things in each</text>
</g>
<!-- n2 -->
<g id="node2" class="node">
<title>n2</title>
<polygon fill="#fffdd0" stroke="black" points="532.5,-280 249.5,-280 249.5,-244 532.5,-244 532.5,-280"/>
<text text-anchor="middle" x="391" y="-258.3" font-family="Arial" font-size="14.00">Left side: Forest with trees, bird, and squirrel</text>
</g>
<!-- n1&#45;&gt;n2 -->
<g id="edge1" class="edge">
<title>n1&#45;&gt;n2</title>
<path fill="none" stroke="black" d="M523.79,-365.81C496.86,-344.96 451.34,-309.71 421.22,-286.4"/>
<polygon fill="black" stroke="black" points="423.22,-283.52 413.17,-280.16 418.93,-289.05 423.22,-283.52"/>
</g>
<!-- n3 -->
<g id="node3" class="node">
<title>n3</title>
<polygon fill="#fffdd0" stroke="black" points="811.5,-280 590.5,-280 590.5,-244 811.5,-244 811.5,-280"/>
<text text-anchor="middle" x="701" y="-258.3" font-family="Arial" font-size="14.00">Right side: Pond with fish and frog</text>
</g>
<!-- n1&#45;&gt;n3 -->
<g id="edge2" class="edge">
<title>n1&#45;&gt;n3</title>
<path fill="none" stroke="black" d="M568.21,-365.81C595.14,-344.96 640.66,-309.71 670.78,-286.4"/>
<polygon fill="black" stroke="black" points="673.07,-289.05 678.83,-280.16 668.78,-283.52 673.07,-289.05"/>
</g>
<!-- n4 -->
<g id="node4" class="node">
<title>n4</title>
<path fill="palegreen" stroke="black" d="M256,-158C256,-158 12,-158 12,-158 6,-158 0,-152 0,-146 0,-146 0,-134 0,-134 0,-128 6,-122 12,-122 12,-122 256,-122 256,-122 262,-122 268,-128 268,-134 268,-134 268,-146 268,-146 268,-152 262,-158 256,-158"/>
<text text-anchor="middle" x="134" y="-136.3" font-family="Arial" font-size="14.00">Correct placement of animals in the forest</text>
</g>
<!-- n2&#45;&gt;n4 -->
<g id="edge3" class="edge">
<title>n2&#45;&gt;n4</title>
<path fill="none" stroke="black" d="M354.45,-243.93C308.49,-222.48 229.59,-185.63 179.69,-162.33"/>
<polygon fill="black" stroke="black" points="180.96,-159.06 170.42,-158.01 178.01,-165.41 180.96,-159.06"/>
</g>
<!-- n6 -->
<g id="node5" class="node">
<title>n6</title>
<polygon fill="lightcoral" stroke="black" points="546,-158 326.14,-140 546,-122 765.86,-140 546,-158"/>
<text text-anchor="middle" x="546" y="-136.3" font-family="Arial" font-size="14.00">Some plants and animals not labeled</text>
</g>
<!-- n2&#45;&gt;n6 -->
<g id="edge4" class="edge">
<title>n2&#45;&gt;n6</title>
<path fill="none" stroke="black" d="M413.21,-243.81C440.75,-222.48 487.74,-186.1 517.81,-162.83"/>
<polygon fill="black" stroke="black" points="520.05,-165.52 525.81,-156.63 515.76,-159.99 520.05,-165.52"/>
</g>
<!-- n3&#45;&gt;n6 -->
<g id="edge5" class="edge">
<title>n3&#45;&gt;n6</title>
<path fill="none" stroke="black" d="M678.79,-243.81C651.25,-222.48 604.26,-186.1 574.19,-162.83"/>
<polygon fill="black" stroke="black" points="576.24,-159.99 566.19,-156.63 571.95,-165.52 576.24,-159.99"/>
</g>
<!-- n5 -->
<g id="node6" class="node">
<title>n5</title>
<path fill="palegreen" stroke="black" d="M1076,-158C1076,-158 836,-158 836,-158 830,-158 824,-152 824,-146 824,-146 824,-134 824,-134 824,-128 830,-122 836,-122 836,-122 1076,-122 1076,-122 1082,-122 1088,-128 1088,-134 1088,-134 1088,-146 1088,-146 1088,-152 1082,-158 1076,-158"/>
<text text-anchor="middle" x="956" y="-136.3" font-family="Arial" font-size="14.00">Correct placement of animals in the pond</text>
</g>
<!-- n3&#45;&gt;n5 -->
<g id="edge6" class="edge">
<title>n3&#45;&gt;n5</title>
<path fill="none" stroke="black" d="M737.26,-243.93C782.86,-222.48 861.16,-185.63 910.66,-162.33"/>
<polygon fill="black" stroke="black" points="912.3,-165.43 919.86,-158.01 909.32,-159.09 912.3,-165.43"/>
</g>
<!-- n7 -->
<g id="node7" class="node">
<title>n7</title>
<polygon fill="#f28e8e" stroke="black" points="686,-36 406,-36 406,0 686,0 686,-36"/>
<text text-anchor="middle" x="546" y="-14.3" font-family="Arial" font-size="14.00">Ensure all living things are labeled for clarity</text>
</g>
<!-- n6&#45;&gt;n7 -->
<g id="edge7" class="edge">
<title>n6&#45;&gt;n7</title>
<path fill="none" stroke="black" d="M546,-121.81C546,-102.11 546,-69.58 546,-46.39"/>
<polygon fill="black" stroke="black" points="549.5,-46.16 546,-36.16 542.5,-46.16 549.5,-46.16"/>
</g>
</g>
</svg>
