<?xml version="1.0" encoding="UTF-8" standalone="no"?>
<!DOCTYPE svg PUBLIC "-//W3C//DTD SVG 1.1//EN"
 "http://www.w3.org/Graphics/SVG/1.1/DTD/svg11.dtd">
<!-- Generated by graphviz version 2.43.0 (0)
 -->
<!-- Pages: 1 -->
<svg width="1994pt" height="410pt"
 viewBox="0.00 0.00 1994.01 410.00" xmlns="http://www.w3.org/2000/svg" xmlns:xlink="http://www.w3.org/1999/xlink">
<g id="graph0" class="graph" transform="scale(1 1) rotate(0) translate(4 406)">
<polygon fill="white" stroke="transparent" points="-4,4 -4,-406 1990.01,-406 1990.01,4 -4,4"/>
<!-- n1 -->
<g id="node1" class="node">
<title>n1</title>
<polygon fill="lightblue" stroke="black" points="1384.51,-384 1293.26,-402 1110.76,-402 1019.51,-384 1110.76,-366 1293.26,-366 1384.51,-384"/>
<text text-anchor="middle" x="1202.01" y="-380.3" font-family="Arial" font-size="14.00">Draw a fish in their habitat with labels.</text>
</g>
<!-- n2 -->
<g id="node2" class="node">
<title>n2</title>
<polygon fill="#fffdd0" stroke="black" points="414,-280 226,-280 226,-244 414,-244 414,-280"/>
<text text-anchor="middle" x="320" y="-258.3" font-family="Arial" font-size="14.00">Fish drawn in aquatic habitat</text>
</g>
<!-- n1&#45;&gt;n2 -->
<g id="edge1" class="edge">
<title>n1&#45;&gt;n2</title>
<path fill="none" stroke="black" d="M1096.91,-368.7C926.85,-345.56 593.27,-300.18 423.93,-277.14"/>
<polygon fill="black" stroke="black" points="424.39,-273.67 414.01,-275.79 423.45,-280.61 424.39,-273.67"/>
</g>
<!-- n3 -->
<g id="node3" class="node">
<title>n3</title>
<polygon fill="#fffdd0" stroke="black" points="762,-280 562,-280 562,-244 762,-244 762,-280"/>
<text text-anchor="middle" x="662" y="-258.3" font-family="Arial" font-size="14.00">Labeled fish parts: fin, tail, gills</text>
</g>
<!-- n1&#45;&gt;n3 -->
<g id="edge2" class="edge">
<title>n1&#45;&gt;n3</title>
<path fill="none" stroke="black" d="M1125.51,-366C1026.01,-343.89 852.64,-305.37 748.48,-282.22"/>
<polygon fill="black" stroke="black" points="749.14,-278.78 738.62,-280.03 747.62,-285.62 749.14,-278.78"/>
</g>
<!-- n4 -->
<g id="node4" class="node">
<title>n4</title>
<polygon fill="#fffdd0" stroke="black" points="1044,-280 820,-280 820,-244 1044,-244 1044,-280"/>
<text text-anchor="middle" x="932" y="-258.3" font-family="Arial" font-size="14.00">Water indicated by wavy blue lines</text>
</g>
<!-- n1&#45;&gt;n4 -->
<g id="edge3" class="edge">
<title>n1&#45;&gt;n4</title>
<path fill="none" stroke="black" d="M1163.61,-365.93C1115.21,-344.43 1032.11,-307.48 979.68,-284.19"/>
<polygon fill="black" stroke="black" points="980.82,-280.87 970.26,-280.01 977.98,-287.27 980.82,-280.87"/>
</g>
<!-- n5 -->
<g id="node5" class="node">
<title>n5</title>
<polygon fill="#fffdd0" stroke="black" points="1302.01,-280 1102.01,-280 1102.01,-244 1302.01,-244 1302.01,-280"/>
<text text-anchor="middle" x="1202.01" y="-258.3" font-family="Arial" font-size="14.00">Green seaweed plants labeled</text>
</g>
<!-- n1&#45;&gt;n5 -->
<g id="edge4" class="edge">
<title>n1&#45;&gt;n5</title>
<path fill="none" stroke="black" d="M1202.01,-365.81C1202.01,-346.11 1202.01,-313.58 1202.01,-290.39"/>
<polygon fill="black" stroke="black" points="1205.51,-290.16 1202.01,-280.16 1198.51,-290.16 1205.51,-290.16"/>
</g>
<!-- n6 -->
<g id="node6" class="node">
<title>n6</title>
<polygon fill="#fffdd0" stroke="black" points="1553.51,-280 1360.51,-280 1360.51,-244 1553.51,-244 1553.51,-280"/>
<text text-anchor="middle" x="1457.01" y="-258.3" font-family="Arial" font-size="14.00">Smaller fish and snail labeled</text>
</g>
<!-- n1&#45;&gt;n6 -->
<g id="edge5" class="edge">
<title>n1&#45;&gt;n6</title>
<path fill="none" stroke="black" d="M1238.31,-365.93C1283.91,-344.48 1362.11,-307.63 1411.71,-284.33"/>
<polygon fill="black" stroke="black" points="1413.28,-287.46 1420.81,-280.01 1410.28,-281.14 1413.28,-287.46"/>
</g>
<!-- n7 -->
<g id="node7" class="node">
<title>n7</title>
<polygon fill="#fffdd0" stroke="black" points="1758.01,-280 1612.01,-280 1612.01,-244 1758.01,-244 1758.01,-280"/>
<text text-anchor="middle" x="1685.01" y="-258.3" font-family="Arial" font-size="14.00">Sun labeled in habitat</text>
</g>
<!-- n1&#45;&gt;n7 -->
<g id="edge6" class="edge">
<title>n1&#45;&gt;n7</title>
<path fill="none" stroke="black" d="M1270.41,-366C1359.11,-343.98 1513.21,-305.68 1606.51,-282.5"/>
<polygon fill="black" stroke="black" points="1607.64,-285.83 1616.51,-280.03 1605.96,-279.03 1607.64,-285.83"/>
</g>
<!-- n8 -->
<g id="node8" class="node">
<title>n8</title>
<polygon fill="#fffdd0" stroke="black" points="1986.01,-280 1816.01,-280 1816.01,-244 1986.01,-244 1986.01,-280"/>
<text text-anchor="middle" x="1901.01" y="-258.3" font-family="Arial" font-size="14.00">Round gray rocks labeled</text>
</g>
<!-- n1&#45;&gt;n8 -->
<g id="edge7" class="edge">
<title>n1&#45;&gt;n8</title>
<path fill="none" stroke="black" d="M1297.01,-366.69C1430.41,-343.79 1671.91,-302.33 1805.61,-279.38"/>
<polygon fill="black" stroke="black" points="1806.55,-282.77 1815.81,-277.63 1805.36,-275.87 1806.55,-282.77"/>
</g>
<!-- n13 -->
<g id="node9" class="node">
<title>n13</title>
<polygon fill="lightcoral" stroke="black" points="230,-158 0,-140 230,-122 460,-140 230,-158"/>
<text text-anchor="middle" x="230" y="-136.3" font-family="Arial" font-size="14.00">No interconnections between elements</text>
</g>
<!-- n2&#45;&gt;n13 -->
<g id="edge8" class="edge">
<title>n2&#45;&gt;n13</title>
<path fill="none" stroke="black" d="M307.1,-243.81C291.69,-223.26 265.8,-188.74 248.32,-165.42"/>
<polygon fill="black" stroke="black" points="251.09,-163.28 242.29,-157.39 245.5,-167.49 251.09,-163.28"/>
</g>
<!-- n9 -->
<g id="node10" class="node">
<title>n9</title>
<path fill="palegreen" stroke="black" d="M794.5,-158C794.5,-158 529.5,-158 529.5,-158 523.5,-158 517.5,-152 517.5,-146 517.5,-146 517.5,-134 517.5,-134 517.5,-128 523.5,-122 529.5,-122 529.5,-122 794.5,-122 794.5,-122 800.5,-122 806.5,-128 806.5,-134 806.5,-134 806.5,-146 806.5,-146 806.5,-152 800.5,-158 794.5,-158"/>
<text text-anchor="middle" x="662" y="-136.3" font-family="Arial" font-size="14.00">Understands labeling important parts of a fish</text>
</g>
<!-- n3&#45;&gt;n9 -->
<g id="edge9" class="edge">
<title>n3&#45;&gt;n9</title>
<path fill="none" stroke="black" d="M662,-243.81C662,-224.11 662,-191.58 662,-168.39"/>
<polygon fill="black" stroke="black" points="665.5,-168.16 662,-158.16 658.5,-168.16 665.5,-168.16"/>
</g>
<!-- n10 -->
<g id="node11" class="node">
<title>n10</title>
<path fill="palegreen" stroke="black" d="M1053,-158C1053,-158 877,-158 877,-158 871,-158 865,-152 865,-146 865,-146 865,-134 865,-134 865,-128 871,-122 877,-122 877,-122 1053,-122 1053,-122 1059,-122 1065,-128 1065,-134 1065,-134 1065,-146 1065,-146 1065,-152 1059,-158 1053,-158"/>
<text text-anchor="middle" x="965" y="-136.3" font-family="Arial" font-size="14.00">Understands fish lives in water</text>
</g>
<!-- n4&#45;&gt;n10 -->
<g id="edge10" class="edge">
<title>n4&#45;&gt;n10</title>
<path fill="none" stroke="black" d="M936.73,-243.81C942.17,-224.02 951.17,-191.29 957.55,-168.08"/>
<polygon fill="black" stroke="black" points="961,-168.73 960.28,-158.16 954.25,-166.87 961,-168.73"/>
</g>
<!-- n11 -->
<g id="node12" class="node">
<title>n11</title>
<path fill="palegreen" stroke="black" d="M1443.01,-158C1443.01,-158 1199.01,-158 1199.01,-158 1193.01,-158 1187.01,-152 1187.01,-146 1187.01,-146 1187.01,-134 1187.01,-134 1187.01,-128 1193.01,-122 1199.01,-122 1199.01,-122 1443.01,-122 1443.01,-122 1449.01,-122 1455.01,-128 1455.01,-134 1455.01,-134 1455.01,-146 1455.01,-146 1455.01,-152 1449.01,-158 1443.01,-158"/>
<text text-anchor="middle" x="1321.01" y="-136.3" font-family="Arial" font-size="14.00">Recognizes coexisting animals and plants</text>
</g>
<!-- n5&#45;&gt;n11 -->
<g id="edge11" class="edge">
<title>n5&#45;&gt;n11</title>
<path fill="none" stroke="black" d="M1219.01,-243.81C1239.51,-223.22 1273.81,-188.61 1296.91,-165.3"/>
<polygon fill="black" stroke="black" points="1299.44,-167.72 1304.01,-158.16 1294.48,-162.78 1299.44,-167.72"/>
</g>
<!-- n6&#45;&gt;n11 -->
<g id="edge12" class="edge">
<title>n6&#45;&gt;n11</title>
<path fill="none" stroke="black" d="M1437.51,-243.81C1414.11,-223.13 1374.61,-188.31 1348.21,-165"/>
<polygon fill="black" stroke="black" points="1350.24,-162.12 1340.41,-158.16 1345.62,-167.38 1350.24,-162.12"/>
</g>
<!-- n12 -->
<g id="node13" class="node">
<title>n12</title>
<path fill="palegreen" stroke="black" d="M1781.51,-158C1781.51,-158 1588.51,-158 1588.51,-158 1582.51,-158 1576.51,-152 1576.51,-146 1576.51,-146 1576.51,-134 1576.51,-134 1576.51,-128 1582.51,-122 1588.51,-122 1588.51,-122 1781.51,-122 1781.51,-122 1787.51,-122 1793.51,-128 1793.51,-134 1793.51,-134 1793.51,-146 1793.51,-146 1793.51,-152 1787.51,-158 1781.51,-158"/>
<text text-anchor="middle" x="1685.01" y="-136.3" font-family="Arial" font-size="14.00">Recognizes sun as part of habitat</text>
</g>
<!-- n7&#45;&gt;n12 -->
<g id="edge13" class="edge">
<title>n7&#45;&gt;n12</title>
<path fill="none" stroke="black" d="M1685.01,-243.81C1685.01,-224.11 1685.01,-191.58 1685.01,-168.39"/>
<polygon fill="black" stroke="black" points="1688.51,-168.16 1685.01,-158.16 1681.51,-168.16 1688.51,-168.16"/>
</g>
<!-- n14 -->
<g id="node14" class="node">
<title>n14</title>
<polygon fill="#f28e8e" stroke="black" points="407,-36 53,-36 53,0 407,0 407,-36"/>
<text text-anchor="middle" x="230" y="-14.3" font-family="Arial" font-size="14.00">Include interactions: fish eating plants, effects of sunlight</text>
</g>
<!-- n13&#45;&gt;n14 -->
<g id="edge14" class="edge">
<title>n13&#45;&gt;n14</title>
<path fill="none" stroke="black" d="M230,-121.81C230,-102.11 230,-69.58 230,-46.39"/>
<polygon fill="black" stroke="black" points="233.5,-46.16 230,-36.16 226.5,-46.16 233.5,-46.16"/>
</g>
</g>
</svg>
