<?xml version="1.0" encoding="UTF-8" standalone="no"?>
<!DOCTYPE svg PUBLIC "-//W3C//DTD SVG 1.1//EN"
 "http://www.w3.org/Graphics/SVG/1.1/DTD/svg11.dtd">
<!-- Generated by graphviz version 2.43.0 (0)
 -->
<!-- Pages: 1 -->
<svg width="1848pt" height="410pt"
 viewBox="0.00 0.00 1848.22 410.00" xmlns="http://www.w3.org/2000/svg" xmlns:xlink="http://www.w3.org/1999/xlink">
<g id="graph0" class="graph" transform="scale(1 1) rotate(0) translate(4 406)">
<polygon fill="white" stroke="transparent" points="-4,4 -4,-406 1844.22,-406 1844.22,4 -4,4"/>
<!-- n1 -->
<g id="node1" class="node">
<title>n1</title>
<polygon fill="lightblue" stroke="black" points="789,-384 625,-402 297,-402 133,-384 297,-366 625,-366 789,-384"/>
<text text-anchor="middle" x="461" y="-380.3" font-family="Arial" font-size="14.00">Draw reversible and irreversible changes (ice melting vs. egg cooking)</text>
</g>
<!-- n2 -->
<g id="node2" class="node">
<title>n2</title>
<polygon fill="#fffdd0" stroke="black" points="423,-280 183,-280 183,-244 423,-244 423,-280"/>
<text text-anchor="middle" x="303" y="-258.3" font-family="Arial" font-size="14.00">Ice cube and water puddle with arrow</text>
</g>
<!-- n1&#45;&gt;n2 -->
<g id="edge1" class="edge">
<title>n1&#45;&gt;n2</title>
<path fill="none" stroke="black" d="M438.36,-365.81C410.91,-344.96 364.5,-309.71 333.81,-286.4"/>
<polygon fill="black" stroke="black" points="335.68,-283.42 325.6,-280.16 331.44,-289 335.68,-283.42"/>
</g>
<!-- n3 -->
<g id="node3" class="node">
<title>n3</title>
<polygon fill="#fffdd0" stroke="black" points="892,-280 616,-280 616,-244 892,-244 892,-280"/>
<text text-anchor="middle" x="754" y="-258.3" font-family="Arial" font-size="14.00">Raw egg and sunny&#45;side&#45;up egg with arrow</text>
</g>
<!-- n1&#45;&gt;n3 -->
<g id="edge2" class="edge">
<title>n1&#45;&gt;n3</title>
<path fill="none" stroke="black" d="M502.67,-365.93C555.39,-344.34 646.15,-307.17 702.97,-283.9"/>
<polygon fill="black" stroke="black" points="704.55,-287.04 712.48,-280.01 701.9,-280.56 704.55,-287.04"/>
</g>
<!-- n4 -->
<g id="node4" class="node">
<title>n4</title>
<path fill="palegreen" stroke="black" d="M310,-158C310,-158 24,-158 24,-158 18,-158 12,-152 12,-146 12,-146 12,-134 12,-134 12,-128 18,-122 24,-122 24,-122 310,-122 310,-122 316,-122 322,-128 322,-134 322,-134 322,-146 322,-146 322,-152 316,-158 310,-158"/>
<text text-anchor="middle" x="167" y="-136.3" font-family="Arial" font-size="14.00">Illustrates reversible change: Ice melting to water</text>
</g>
<!-- n2&#45;&gt;n4 -->
<g id="edge3" class="edge">
<title>n2&#45;&gt;n4</title>
<path fill="none" stroke="black" d="M283.51,-243.81C260.08,-223.13 220.62,-188.31 194.2,-165"/>
<polygon fill="black" stroke="black" points="196.26,-162.15 186.45,-158.16 191.63,-167.4 196.26,-162.15"/>
</g>
<!-- n5 -->
<g id="node5" class="node">
<title>n5</title>
<polygon fill="lightcoral" stroke="black" points="754,-158 379.81,-140 754,-122 1128.19,-140 754,-158"/>
<text text-anchor="middle" x="754" y="-136.3" font-family="Arial" font-size="14.00">Misunderstands irreversible change: Cooked egg reverting to raw</text>
</g>
<!-- n3&#45;&gt;n5 -->
<g id="edge4" class="edge">
<title>n3&#45;&gt;n5</title>
<path fill="none" stroke="black" d="M754,-243.81C754,-224.11 754,-191.58 754,-168.39"/>
<polygon fill="black" stroke="black" points="757.5,-168.16 754,-158.16 750.5,-168.16 757.5,-168.16"/>
</g>
<!-- n6 -->
<g id="node6" class="node">
<title>n6</title>
<polygon fill="lightcoral" stroke="black" points="1513,-158 1185.56,-140 1513,-122 1840.44,-140 1513,-158"/>
<text text-anchor="middle" x="1513" y="-136.3" font-family="Arial" font-size="14.00">Confusion about cause and effect in irreversible changes</text>
</g>
<!-- n3&#45;&gt;n6 -->
<g id="edge5" class="edge">
<title>n3&#45;&gt;n6</title>
<path fill="none" stroke="black" d="M861.54,-244C1011.9,-220.22 1282.4,-177.45 1422.9,-155.25"/>
<polygon fill="black" stroke="black" points="1423.87,-158.64 1433.2,-153.62 1422.78,-151.73 1423.87,-158.64"/>
</g>
<!-- n7 -->
<g id="node7" class="node">
<title>n7</title>
<polygon fill="#f28e8e" stroke="black" points="334,-36 0,-36 0,0 334,0 334,-36"/>
<text text-anchor="middle" x="167" y="-14.3" font-family="Arial" font-size="14.00">Illustrate water refreezing to demonstrate reversibility</text>
</g>
<!-- n4&#45;&gt;n7 -->
<g id="edge6" class="edge">
<title>n4&#45;&gt;n7</title>
<path fill="none" stroke="black" d="M167,-121.81C167,-102.11 167,-69.58 167,-46.39"/>
<polygon fill="black" stroke="black" points="170.5,-46.16 167,-36.16 163.5,-46.16 170.5,-46.16"/>
</g>
<!-- n8 -->
<g id="node8" class="node">
<title>n8</title>
<polygon fill="#f28e8e" stroke="black" points="929,-36 579,-36 579,0 929,0 929,-36"/>
<text text-anchor="middle" x="754" y="-14.3" font-family="Arial" font-size="14.00">Explain why a cooked egg cannot revert; it&#39;s irreversible</text>
</g>
<!-- n5&#45;&gt;n8 -->
<g id="edge7" class="edge">
<title>n5&#45;&gt;n8</title>
<path fill="none" stroke="black" d="M754,-121.81C754,-102.11 754,-69.58 754,-46.39"/>
<polygon fill="black" stroke="black" points="757.5,-46.16 754,-36.16 750.5,-46.16 757.5,-46.16"/>
</g>
</g>
</svg>
