<?xml version="1.0" encoding="UTF-8" standalone="no"?>
<!DOCTYPE svg PUBLIC "-//W3C//DTD SVG 1.1//EN"
 "http://www.w3.org/Graphics/SVG/1.1/DTD/svg11.dtd">
<!-- Generated by graphviz version 2.43.0 (0)
 -->
<!-- Pages: 1 -->
<svg width="1418pt" height="288pt"
 viewBox="0.00 0.00 1417.50 288.00" xmlns="http://www.w3.org/2000/svg" xmlns:xlink="http://www.w3.org/1999/xlink">
<g id="graph0" class="graph" transform="scale(1 1) rotate(0) translate(4 284)">
<polygon fill="white" stroke="transparent" points="-4,4 -4,-284 1413.5,-284 1413.5,4 -4,4"/>
<!-- n1 -->
<g id="node1" class="node">
<title>n1</title>
<polygon fill="lightblue" stroke="black" points="904,-262 792.5,-280 569.5,-280 458,-262 569.5,-244 792.5,-244 904,-262"/>
<text text-anchor="middle" x="681" y="-258.3" font-family="Arial" font-size="14.00">Draw a string telephone between two students.</text>
</g>
<!-- n2 -->
<g id="node2" class="node">
<title>n2</title>
<polygon fill="#fffdd0" stroke="black" points="287.5,-158 136.5,-158 136.5,-122 287.5,-122 287.5,-158"/>
<text text-anchor="middle" x="212" y="-136.3" font-family="Arial" font-size="14.00">Two students depicted</text>
</g>
<!-- n1&#45;&gt;n2 -->
<g id="edge1" class="edge">
<title>n1&#45;&gt;n2</title>
<path fill="none" stroke="black" d="M614.3,-243.93C528.26,-221.92 378.91,-183.71 288.39,-160.55"/>
<polygon fill="black" stroke="black" points="289.03,-157.1 278.47,-158.01 287.29,-163.88 289.03,-157.1"/>
</g>
<!-- n3 -->
<g id="node3" class="node">
<title>n3</title>
<polygon fill="#fffdd0" stroke="black" points="546,-158 416,-158 416,-122 546,-122 546,-158"/>
<text text-anchor="middle" x="481" y="-136.3" font-family="Arial" font-size="14.00">Use of plastic cups</text>
</g>
<!-- n1&#45;&gt;n3 -->
<g id="edge2" class="edge">
<title>n1&#45;&gt;n3</title>
<path fill="none" stroke="black" d="M652.34,-243.81C617.15,-222.69 557.34,-186.81 518.51,-163.51"/>
<polygon fill="black" stroke="black" points="519.97,-160.31 509.6,-158.16 516.37,-166.31 519.97,-160.31"/>
</g>
<!-- n4 -->
<g id="node4" class="node">
<title>n4</title>
<polygon fill="#fffdd0" stroke="black" points="757.5,-158 604.5,-158 604.5,-122 757.5,-122 757.5,-158"/>
<text text-anchor="middle" x="681" y="-136.3" font-family="Arial" font-size="14.00">String connecting cups</text>
</g>
<!-- n1&#45;&gt;n4 -->
<g id="edge3" class="edge">
<title>n1&#45;&gt;n4</title>
<path fill="none" stroke="black" d="M681,-243.81C681,-224.11 681,-191.58 681,-168.39"/>
<polygon fill="black" stroke="black" points="684.5,-168.16 681,-158.16 677.5,-168.16 684.5,-168.16"/>
</g>
<!-- n5 -->
<g id="node5" class="node">
<title>n5</title>
<polygon fill="#fffdd0" stroke="black" points="1098.5,-158 815.5,-158 815.5,-122 1098.5,-122 1098.5,-158"/>
<text text-anchor="middle" x="957" y="-136.3" font-family="Arial" font-size="14.00">Smiling students engaged in communication</text>
</g>
<!-- n1&#45;&gt;n5 -->
<g id="edge4" class="edge">
<title>n1&#45;&gt;n5</title>
<path fill="none" stroke="black" d="M720.25,-243.93C769.81,-222.39 855.05,-185.32 908.6,-162.04"/>
<polygon fill="black" stroke="black" points="910.1,-165.2 917.88,-158.01 907.31,-158.78 910.1,-165.2"/>
</g>
<!-- n6 -->
<g id="node6" class="node">
<title>n6</title>
<polygon fill="#fffdd0" stroke="black" points="1401,-158 1157,-158 1157,-122 1401,-122 1401,-158"/>
<text text-anchor="middle" x="1279" y="-136.3" font-family="Arial" font-size="14.00">Importance of string tension for sound</text>
</g>
<!-- n1&#45;&gt;n6 -->
<g id="edge5" class="edge">
<title>n1&#45;&gt;n6</title>
<path fill="none" stroke="black" d="M765.73,-244C876.24,-221.82 1069,-183.13 1184.3,-160.01"/>
<polygon fill="black" stroke="black" points="1185.08,-163.42 1194.2,-158.03 1183.71,-156.56 1185.08,-163.42"/>
</g>
<!-- n7 -->
<g id="node7" class="node">
<title>n7</title>
<path fill="palegreen" stroke="black" d="M272,-36C272,-36 12,-36 12,-36 6,-36 0,-30 0,-24 0,-24 0,-12 0,-12 0,-6 6,0 12,0 12,0 272,0 272,0 278,0 284,-6 284,-12 284,-12 284,-24 284,-24 284,-30 278,-36 272,-36"/>
<text text-anchor="middle" x="142" y="-14.3" font-family="Arial" font-size="14.00">Understanding communication over distance</text>
</g>
<!-- n2&#45;&gt;n7 -->
<g id="edge6" class="edge">
<title>n2&#45;&gt;n7</title>
<path fill="none" stroke="black" d="M201.97,-121.81C190.22,-101.67 170.64,-68.1 157.07,-44.83"/>
<polygon fill="black" stroke="black" points="160.07,-43.03 152.01,-36.16 154.03,-46.56 160.07,-43.03"/>
</g>
<!-- n9 -->
<g id="node8" class="node">
<title>n9</title>
<path fill="palegreen" stroke="black" d="M607.5,-36C607.5,-36 354.5,-36 354.5,-36 348.5,-36 342.5,-30 342.5,-24 342.5,-24 342.5,-12 342.5,-12 342.5,-6 348.5,0 354.5,0 354.5,0 607.5,0 607.5,0 613.5,0 619.5,-6 619.5,-12 619.5,-12 619.5,-24 619.5,-24 619.5,-30 613.5,-36 607.5,-36"/>
<text text-anchor="middle" x="481" y="-14.3" font-family="Arial" font-size="14.00">Understanding homemade materials usage</text>
</g>
<!-- n3&#45;&gt;n9 -->
<g id="edge7" class="edge">
<title>n3&#45;&gt;n9</title>
<path fill="none" stroke="black" d="M481,-121.81C481,-102.11 481,-69.58 481,-46.39"/>
<polygon fill="black" stroke="black" points="484.5,-46.16 481,-36.16 477.5,-46.16 484.5,-46.16"/>
</g>
<!-- n8 -->
<g id="node9" class="node">
<title>n8</title>
<path fill="palegreen" stroke="black" d="M854,-36C854,-36 690,-36 690,-36 684,-36 678,-30 678,-24 678,-24 678,-12 678,-12 678,-6 684,0 690,0 690,0 854,0 854,0 860,0 866,-6 866,-12 866,-12 866,-24 866,-24 866,-30 860,-36 854,-36"/>
<text text-anchor="middle" x="772" y="-14.3" font-family="Arial" font-size="14.00">Using string as sound carrier</text>
</g>
<!-- n4&#45;&gt;n8 -->
<g id="edge8" class="edge">
<title>n4&#45;&gt;n8</title>
<path fill="none" stroke="black" d="M694.04,-121.81C709.45,-101.49 735.21,-67.51 752.88,-44.22"/>
<polygon fill="black" stroke="black" points="755.73,-46.24 758.99,-36.16 750.16,-42.01 755.73,-46.24"/>
</g>
<!-- n10 -->
<g id="node10" class="node">
<title>n10</title>
<path fill="palegreen" stroke="black" d="M1397.5,-36C1397.5,-36 1160.5,-36 1160.5,-36 1154.5,-36 1148.5,-30 1148.5,-24 1148.5,-24 1148.5,-12 1148.5,-12 1148.5,-6 1154.5,0 1160.5,0 1160.5,0 1397.5,0 1397.5,0 1403.5,0 1409.5,-6 1409.5,-12 1409.5,-12 1409.5,-24 1409.5,-24 1409.5,-30 1403.5,-36 1397.5,-36"/>
<text text-anchor="middle" x="1279" y="-14.3" font-family="Arial" font-size="14.00">Recognizing importance of string tension</text>
</g>
<!-- n6&#45;&gt;n10 -->
<g id="edge9" class="edge">
<title>n6&#45;&gt;n10</title>
<path fill="none" stroke="black" d="M1279,-121.81C1279,-102.11 1279,-69.58 1279,-46.39"/>
<polygon fill="black" stroke="black" points="1282.5,-46.16 1279,-36.16 1275.5,-46.16 1282.5,-46.16"/>
</g>
</g>
</svg>
