<?xml version="1.0" encoding="UTF-8" standalone="no"?>
<!DOCTYPE svg PUBLIC "-//W3C//DTD SVG 1.1//EN"
 "http://www.w3.org/Graphics/SVG/1.1/DTD/svg11.dtd">
<!-- Generated by graphviz version 2.43.0 (0)
 -->
<!-- Pages: 1 -->
<svg width="1402pt" height="410pt"
 viewBox="0.00 0.00 1402.00 410.00" xmlns="http://www.w3.org/2000/svg" xmlns:xlink="http://www.w3.org/1999/xlink">
<g id="graph0" class="graph" transform="scale(1 1) rotate(0) translate(4 406)">
<polygon fill="white" stroke="transparent" points="-4,4 -4,-406 1398,-406 1398,4 -4,4"/>
<!-- n1 -->
<g id="node1" class="node">
<title>n1</title>
<polygon fill="lightblue" stroke="black" points="813,-384 701.5,-402 478.5,-402 367,-384 478.5,-366 701.5,-366 813,-384"/>
<text text-anchor="middle" x="590" y="-380.3" font-family="Arial" font-size="14.00">Draw a string telephone between two students.</text>
</g>
<!-- n2 -->
<g id="node2" class="node">
<title>n2</title>
<polygon fill="#fffdd0" stroke="black" points="302,-280 138,-280 138,-244 302,-244 302,-280"/>
<text text-anchor="middle" x="220" y="-258.3" font-family="Arial" font-size="14.00">Two stick figure students</text>
</g>
<!-- n1&#45;&gt;n2 -->
<g id="edge1" class="edge">
<title>n1&#45;&gt;n2</title>
<path fill="none" stroke="black" d="M537.38,-365.93C470.12,-344.12 353.82,-306.4 282.23,-283.18"/>
<polygon fill="black" stroke="black" points="283.03,-279.76 272.44,-280.01 280.88,-286.42 283.03,-279.76"/>
</g>
<!-- n3 -->
<g id="node3" class="node">
<title>n3</title>
<polygon fill="#fffdd0" stroke="black" points="553,-280 437,-280 437,-244 553,-244 553,-280"/>
<text text-anchor="middle" x="495" y="-258.3" font-family="Arial" font-size="14.00">Red plastic cups</text>
</g>
<!-- n1&#45;&gt;n3 -->
<g id="edge2" class="edge">
<title>n1&#45;&gt;n3</title>
<path fill="none" stroke="black" d="M576.39,-365.81C560.3,-345.49 533.4,-311.51 514.96,-288.21"/>
<polygon fill="black" stroke="black" points="517.54,-285.83 508.59,-280.16 512.05,-290.17 517.54,-285.83"/>
</g>
<!-- n4 -->
<g id="node4" class="node">
<title>n4</title>
<polygon fill="#fffdd0" stroke="black" points="760.5,-280 611.5,-280 611.5,-244 760.5,-244 760.5,-280"/>
<text text-anchor="middle" x="686" y="-258.3" font-family="Arial" font-size="14.00">Black string with slack</text>
</g>
<!-- n1&#45;&gt;n4 -->
<g id="edge3" class="edge">
<title>n1&#45;&gt;n4</title>
<path fill="none" stroke="black" d="M603.75,-365.81C620.01,-345.49 647.19,-311.51 665.83,-288.21"/>
<polygon fill="black" stroke="black" points="668.76,-290.16 672.27,-280.16 663.29,-285.78 668.76,-290.16"/>
</g>
<!-- n5 -->
<g id="node5" class="node">
<title>n5</title>
<polygon fill="#fffdd0" stroke="black" points="977.5,-280 818.5,-280 818.5,-244 977.5,-244 977.5,-280"/>
<text text-anchor="middle" x="898" y="-258.3" font-family="Arial" font-size="14.00">Sunny day environment</text>
</g>
<!-- n1&#45;&gt;n5 -->
<g id="edge4" class="edge">
<title>n1&#45;&gt;n5</title>
<path fill="none" stroke="black" d="M633.8,-365.93C689.34,-344.3 785.02,-307.02 844.73,-283.76"/>
<polygon fill="black" stroke="black" points="846.3,-286.9 854.35,-280.01 843.76,-280.38 846.3,-286.9"/>
</g>
<!-- n6 -->
<g id="node6" class="node">
<title>n6</title>
<path fill="palegreen" stroke="black" d="M272,-158C272,-158 12,-158 12,-158 6,-158 0,-152 0,-146 0,-146 0,-134 0,-134 0,-128 6,-122 12,-122 12,-122 272,-122 272,-122 278,-122 284,-128 284,-134 284,-134 284,-146 284,-146 284,-152 278,-158 272,-158"/>
<text text-anchor="middle" x="142" y="-136.3" font-family="Arial" font-size="14.00">Shows two students using a string telephone</text>
</g>
<!-- n2&#45;&gt;n6 -->
<g id="edge5" class="edge">
<title>n2&#45;&gt;n6</title>
<path fill="none" stroke="black" d="M208.82,-243.81C195.73,-223.67 173.92,-190.1 158.79,-166.83"/>
<polygon fill="black" stroke="black" points="161.54,-164.63 153.15,-158.16 155.67,-168.45 161.54,-164.63"/>
</g>
<!-- n7 -->
<g id="node7" class="node">
<title>n7</title>
<path fill="palegreen" stroke="black" d="M636,-158C636,-158 354,-158 354,-158 348,-158 342,-152 342,-146 342,-146 342,-134 342,-134 342,-128 348,-122 354,-122 354,-122 636,-122 636,-122 642,-122 648,-128 648,-134 648,-134 648,-146 648,-146 648,-152 642,-158 636,-158"/>
<text text-anchor="middle" x="495" y="-136.3" font-family="Arial" font-size="14.00">Includes basic components of a string telephone</text>
</g>
<!-- n3&#45;&gt;n7 -->
<g id="edge6" class="edge">
<title>n3&#45;&gt;n7</title>
<path fill="none" stroke="black" d="M495,-243.81C495,-224.11 495,-191.58 495,-168.39"/>
<polygon fill="black" stroke="black" points="498.5,-168.16 495,-158.16 491.5,-168.16 498.5,-168.16"/>
</g>
<!-- n8 -->
<g id="node8" class="node">
<title>n8</title>
<polygon fill="lightcoral" stroke="black" points="1050,-158 706,-140 1050,-122 1394,-140 1050,-158"/>
<text text-anchor="middle" x="1050" y="-136.3" font-family="Arial" font-size="14.00">Understanding that the string telephone helps communicate</text>
</g>
<!-- n4&#45;&gt;n8 -->
<g id="edge7" class="edge">
<title>n4&#45;&gt;n8</title>
<path fill="none" stroke="black" d="M737.77,-243.93C806.05,-221.42 925.69,-181.98 995.38,-159.01"/>
<polygon fill="black" stroke="black" points="996.9,-162.19 1005.3,-155.74 994.71,-155.55 996.9,-162.19"/>
</g>
<!-- n9 -->
<g id="node9" class="node">
<title>n9</title>
<polygon fill="#f28e8e" stroke="black" points="1214,-36 886,-36 886,0 1214,0 1214,-36"/>
<text text-anchor="middle" x="1050" y="-14.3" font-family="Arial" font-size="14.00">String needs to be taut for sound to travel effectively</text>
</g>
<!-- n8&#45;&gt;n9 -->
<g id="edge8" class="edge">
<title>n8&#45;&gt;n9</title>
<path fill="none" stroke="black" d="M1050,-121.81C1050,-102.11 1050,-69.58 1050,-46.39"/>
<polygon fill="black" stroke="black" points="1053.5,-46.16 1050,-36.16 1046.5,-46.16 1053.5,-46.16"/>
</g>
</g>
</svg>
