<?xml version="1.0" encoding="UTF-8" standalone="no"?>
<!DOCTYPE svg PUBLIC "-//W3C//DTD SVG 1.1//EN"
 "http://www.w3.org/Graphics/SVG/1.1/DTD/svg11.dtd">
<!-- Generated by graphviz version 2.43.0 (0)
 -->
<!-- Pages: 1 -->
<svg width="2209pt" height="410pt"
 viewBox="0.00 0.00 2209.25 410.00" xmlns="http://www.w3.org/2000/svg" xmlns:xlink="http://www.w3.org/1999/xlink">
<g id="graph0" class="graph" transform="scale(1 1) rotate(0) translate(4 406)">
<polygon fill="white" stroke="transparent" points="-4,4 -4,-406 2205.25,-406 2205.25,4 -4,4"/>
<!-- n1 -->
<g id="node1" class="node">
<title>n1</title>
<polygon fill="lightblue" stroke="black" points="1251,-384 1139.5,-402 916.5,-402 805,-384 916.5,-366 1139.5,-366 1251,-384"/>
<text text-anchor="middle" x="1028" y="-380.3" font-family="Arial" font-size="14.00">Draw a string telephone between two students.</text>
</g>
<!-- n2 -->
<g id="node2" class="node">
<title>n2</title>
<polygon fill="#fffdd0" stroke="black" points="846.5,-280 641.5,-280 641.5,-244 846.5,-244 846.5,-280"/>
<text text-anchor="middle" x="744" y="-258.3" font-family="Arial" font-size="14.00">Two stick figure students drawn</text>
</g>
<!-- n1&#45;&gt;n2 -->
<g id="edge1" class="edge">
<title>n1&#45;&gt;n2</title>
<path fill="none" stroke="black" d="M987.61,-365.93C936.51,-344.34 848.54,-307.17 793.46,-283.9"/>
<polygon fill="black" stroke="black" points="794.82,-280.68 784.25,-280.01 792.1,-287.13 794.82,-280.68"/>
</g>
<!-- n3 -->
<g id="node3" class="node">
<title>n3</title>
<polygon fill="#fffdd0" stroke="black" points="1438,-280 1188,-280 1188,-244 1438,-244 1438,-280"/>
<text text-anchor="middle" x="1313" y="-258.3" font-family="Arial" font-size="14.00">Single line connecting the two students</text>
</g>
<!-- n1&#45;&gt;n3 -->
<g id="edge2" class="edge">
<title>n1&#45;&gt;n3</title>
<path fill="none" stroke="black" d="M1068.5,-365.93C1119.8,-344.34 1208.1,-307.17 1263.4,-283.9"/>
<polygon fill="black" stroke="black" points="1264.75,-287.13 1272.6,-280.01 1262.03,-280.68 1264.75,-287.13"/>
</g>
<!-- n4 -->
<g id="node4" class="node">
<title>n4</title>
<path fill="palegreen" stroke="black" d="M316,-158C316,-158 12,-158 12,-158 6,-158 0,-152 0,-146 0,-146 0,-134 0,-134 0,-128 6,-122 12,-122 12,-122 316,-122 316,-122 322,-122 328,-128 328,-134 328,-134 328,-146 328,-146 328,-152 322,-158 316,-158"/>
<text text-anchor="middle" x="164" y="-136.3" font-family="Arial" font-size="14.00">Represents two students who need to communicate</text>
</g>
<!-- n2&#45;&gt;n4 -->
<g id="edge3" class="edge">
<title>n2&#45;&gt;n4</title>
<path fill="none" stroke="black" d="M661.82,-244C554.74,-221.84 368.01,-183.21 256.21,-160.08"/>
<polygon fill="black" stroke="black" points="256.79,-156.63 246.29,-158.03 255.37,-163.48 256.79,-156.63"/>
</g>
<!-- n6 -->
<g id="node5" class="node">
<title>n6</title>
<polygon fill="lightcoral" stroke="black" points="744,-158 386.4,-140 744,-122 1101.6,-140 744,-158"/>
<text text-anchor="middle" x="744" y="-136.3" font-family="Arial" font-size="14.00">Lacks representation of string telephone (no cups, no labeling)</text>
</g>
<!-- n2&#45;&gt;n6 -->
<g id="edge4" class="edge">
<title>n2&#45;&gt;n6</title>
<path fill="none" stroke="black" d="M744,-243.81C744,-224.11 744,-191.58 744,-168.39"/>
<polygon fill="black" stroke="black" points="747.5,-168.16 744,-158.16 740.5,-168.16 747.5,-168.16"/>
</g>
<!-- n5 -->
<g id="node6" class="node">
<title>n5</title>
<path fill="palegreen" stroke="black" d="M1454.5,-158C1454.5,-158 1171.5,-158 1171.5,-158 1165.5,-158 1159.5,-152 1159.5,-146 1159.5,-146 1159.5,-134 1159.5,-134 1159.5,-128 1165.5,-122 1171.5,-122 1171.5,-122 1454.5,-122 1454.5,-122 1460.5,-122 1466.5,-128 1466.5,-134 1466.5,-134 1466.5,-146 1466.5,-146 1466.5,-152 1460.5,-158 1454.5,-158"/>
<text text-anchor="middle" x="1313" y="-136.3" font-family="Arial" font-size="14.00">Represents string connection for communication</text>
</g>
<!-- n3&#45;&gt;n5 -->
<g id="edge5" class="edge">
<title>n3&#45;&gt;n5</title>
<path fill="none" stroke="black" d="M1313,-243.81C1313,-224.11 1313,-191.58 1313,-168.39"/>
<polygon fill="black" stroke="black" points="1316.5,-168.16 1313,-158.16 1309.5,-168.16 1316.5,-168.16"/>
</g>
<!-- n8 -->
<g id="node7" class="node">
<title>n8</title>
<polygon fill="lightcoral" stroke="black" points="1863,-158 1524.5,-140 1863,-122 2201.5,-140 1863,-158"/>
<text text-anchor="middle" x="1863" y="-136.3" font-family="Arial" font-size="14.00">Does not demonstrate how sound works in communication</text>
</g>
<!-- n3&#45;&gt;n8 -->
<g id="edge6" class="edge">
<title>n3&#45;&gt;n8</title>
<path fill="none" stroke="black" d="M1390.9,-244C1497.3,-220.78 1686.6,-179.48 1790.3,-156.87"/>
<polygon fill="black" stroke="black" points="1791.29,-160.24 1800.3,-154.67 1789.78,-153.4 1791.29,-160.24"/>
</g>
<!-- n7 -->
<g id="node8" class="node">
<title>n7</title>
<polygon fill="#f28e8e" stroke="black" points="933.5,-36 554.5,-36 554.5,0 933.5,0 933.5,-36"/>
<text text-anchor="middle" x="744" y="-14.3" font-family="Arial" font-size="14.00">Explain the use of cups to illustrate a proper string telephone</text>
</g>
<!-- n6&#45;&gt;n7 -->
<g id="edge7" class="edge">
<title>n6&#45;&gt;n7</title>
<path fill="none" stroke="black" d="M744,-121.81C744,-102.11 744,-69.58 744,-46.39"/>
<polygon fill="black" stroke="black" points="747.5,-46.16 744,-36.16 740.5,-46.16 747.5,-46.16"/>
</g>
<!-- n9 -->
<g id="node9" class="node">
<title>n9</title>
<polygon fill="#f28e8e" stroke="black" points="2088,-36 1638,-36 1638,0 2088,0 2088,-36"/>
<text text-anchor="middle" x="1863" y="-14.3" font-family="Arial" font-size="14.00">Introduce sound wave illustration or labeling to show sound transmission</text>
</g>
<!-- n8&#45;&gt;n9 -->
<g id="edge8" class="edge">
<title>n8&#45;&gt;n9</title>
<path fill="none" stroke="black" d="M1863,-121.81C1863,-102.11 1863,-69.58 1863,-46.39"/>
<polygon fill="black" stroke="black" points="1866.5,-46.16 1863,-36.16 1859.5,-46.16 1866.5,-46.16"/>
</g>
</g>
</svg>
