<?xml version="1.0" encoding="UTF-8" standalone="no"?>
<!DOCTYPE svg PUBLIC "-//W3C//DTD SVG 1.1//EN"
 "http://www.w3.org/Graphics/SVG/1.1/DTD/svg11.dtd">
<!-- Generated by graphviz version 2.43.0 (0)
 -->
<!-- Pages: 1 -->
<svg width="2280pt" height="410pt"
 viewBox="0.00 0.00 2279.50 410.00" xmlns="http://www.w3.org/2000/svg" xmlns:xlink="http://www.w3.org/1999/xlink">
<g id="graph0" class="graph" transform="scale(1 1) rotate(0) translate(4 406)">
<polygon fill="white" stroke="transparent" points="-4,4 -4,-406 2275.5,-406 2275.5,4 -4,4"/>
<!-- n1 -->
<g id="node1" class="node">
<title>n1</title>
<polygon fill="lightblue" stroke="black" points="1154.5,-384 1043,-402 820,-402 708.5,-384 820,-366 1043,-366 1154.5,-384"/>
<text text-anchor="middle" x="931.5" y="-380.3" font-family="Arial" font-size="14.00">Draw a string telephone between two students.</text>
</g>
<!-- n2 -->
<g id="node2" class="node">
<title>n2</title>
<polygon fill="#fffdd0" stroke="black" points="560,-280 397,-280 397,-244 560,-244 560,-280"/>
<text text-anchor="middle" x="478.5" y="-258.3" font-family="Arial" font-size="14.00">Two smiling stick figures</text>
</g>
<!-- n1&#45;&gt;n2 -->
<g id="edge1" class="edge">
<title>n1&#45;&gt;n2</title>
<path fill="none" stroke="black" d="M867.08,-365.93C784.05,-343.94 640.01,-305.78 552.55,-282.62"/>
<polygon fill="black" stroke="black" points="553.26,-279.19 542.7,-280.01 551.47,-285.95 553.26,-279.19"/>
</g>
<!-- n3 -->
<g id="node3" class="node">
<title>n3</title>
<polygon fill="#fffdd0" stroke="black" points="1019.5,-280 843.5,-280 843.5,-244 1019.5,-244 1019.5,-280"/>
<text text-anchor="middle" x="931.5" y="-258.3" font-family="Arial" font-size="14.00">Floating open&#45;topped cups</text>
</g>
<!-- n1&#45;&gt;n3 -->
<g id="edge2" class="edge">
<title>n1&#45;&gt;n3</title>
<path fill="none" stroke="black" d="M931.5,-365.81C931.5,-346.11 931.5,-313.58 931.5,-290.39"/>
<polygon fill="black" stroke="black" points="935,-290.16 931.5,-280.16 928,-290.16 935,-290.16"/>
</g>
<!-- n4 -->
<g id="node4" class="node">
<title>n4</title>
<polygon fill="#fffdd0" stroke="black" points="1588.5,-280 1398.5,-280 1398.5,-244 1588.5,-244 1588.5,-280"/>
<text text-anchor="middle" x="1493.5" y="-258.3" font-family="Arial" font-size="14.00">Slack and slightly curved line</text>
</g>
<!-- n1&#45;&gt;n4 -->
<g id="edge3" class="edge">
<title>n1&#45;&gt;n4</title>
<path fill="none" stroke="black" d="M1011.1,-366C1114.8,-343.87 1295.5,-305.29 1403.8,-282.15"/>
<polygon fill="black" stroke="black" points="1404.74,-285.53 1413.8,-280.03 1403.29,-278.68 1404.74,-285.53"/>
</g>
<!-- n5 -->
<g id="node5" class="node">
<title>n5</title>
<path fill="palegreen" stroke="black" d="M493,-158C493,-158 12,-158 12,-158 6,-158 0,-152 0,-146 0,-146 0,-134 0,-134 0,-128 6,-122 12,-122 12,-122 493,-122 493,-122 499,-122 505,-128 505,-134 505,-134 505,-146 505,-146 505,-152 499,-158 493,-158"/>
<text text-anchor="middle" x="252.5" y="-136.3" font-family="Arial" font-size="14.00">Student demonstrates understanding of two students attempting to communicate.</text>
</g>
<!-- n2&#45;&gt;n5 -->
<g id="edge4" class="edge">
<title>n2&#45;&gt;n5</title>
<path fill="none" stroke="black" d="M446.12,-243.81C406.01,-222.51 337.62,-186.2 293.78,-162.92"/>
<polygon fill="black" stroke="black" points="295.29,-159.76 284.82,-158.16 292.01,-165.94 295.29,-159.76"/>
</g>
<!-- n6 -->
<g id="node6" class="node">
<title>n6</title>
<polygon fill="lightcoral" stroke="black" points="931.5,-158 562.84,-140 931.5,-122 1300.16,-140 931.5,-158"/>
<text text-anchor="middle" x="931.5" y="-136.3" font-family="Arial" font-size="14.00">Student illustrates device use of cups but placement is incorrect.</text>
</g>
<!-- n3&#45;&gt;n6 -->
<g id="edge5" class="edge">
<title>n3&#45;&gt;n6</title>
<path fill="none" stroke="black" d="M931.5,-243.81C931.5,-224.11 931.5,-191.58 931.5,-168.39"/>
<polygon fill="black" stroke="black" points="935,-168.16 931.5,-158.16 928,-168.16 935,-168.16"/>
</g>
<!-- n7 -->
<g id="node7" class="node">
<title>n7</title>
<polygon fill="lightcoral" stroke="black" points="1814.5,-158 1357.5,-140 1814.5,-122 2271.5,-140 1814.5,-158"/>
<text text-anchor="middle" x="1814.5" y="-136.3" font-family="Arial" font-size="14.00">Student misunderstands the role of the string in communication (should be taut).</text>
</g>
<!-- n4&#45;&gt;n7 -->
<g id="edge6" class="edge">
<title>n4&#45;&gt;n7</title>
<path fill="none" stroke="black" d="M1539.2,-243.93C1598.5,-221.76 1701.7,-183.16 1763.5,-160.05"/>
<polygon fill="black" stroke="black" points="1764.95,-163.25 1773.1,-156.48 1762.51,-156.69 1764.95,-163.25"/>
</g>
<!-- n8 -->
<g id="node8" class="node">
<title>n8</title>
<polygon fill="#f28e8e" stroke="black" points="1198,-36 665,-36 665,0 1198,0 1198,-36"/>
<text text-anchor="middle" x="931.5" y="-14.3" font-family="Arial" font-size="14.00">Explain that cups should be connected firmly to the ears and mouth for sound transfer.</text>
</g>
<!-- n6&#45;&gt;n8 -->
<g id="edge7" class="edge">
<title>n6&#45;&gt;n8</title>
<path fill="none" stroke="black" d="M931.5,-121.81C931.5,-102.11 931.5,-69.58 931.5,-46.39"/>
<polygon fill="black" stroke="black" points="935,-46.16 931.5,-36.16 928,-46.16 935,-46.16"/>
</g>
<!-- n9 -->
<g id="node9" class="node">
<title>n9</title>
<polygon fill="#f28e8e" stroke="black" points="2030,-36 1599,-36 1599,0 2030,0 2030,-36"/>
<text text-anchor="middle" x="1814.5" y="-14.3" font-family="Arial" font-size="14.00">Teach that string must be tight to transfer sound vibrations effectively.</text>
</g>
<!-- n7&#45;&gt;n9 -->
<g id="edge8" class="edge">
<title>n7&#45;&gt;n9</title>
<path fill="none" stroke="black" d="M1814.5,-121.81C1814.5,-102.11 1814.5,-69.58 1814.5,-46.39"/>
<polygon fill="black" stroke="black" points="1818,-46.16 1814.5,-36.16 1811,-46.16 1818,-46.16"/>
</g>
</g>
</svg>
