<?xml version="1.0" encoding="UTF-8" standalone="no"?>
<!DOCTYPE svg PUBLIC "-//W3C//DTD SVG 1.1//EN"
 "http://www.w3.org/Graphics/SVG/1.1/DTD/svg11.dtd">
<!-- Generated by graphviz version 2.43.0 (0)
 -->
<!-- Pages: 1 -->
<svg width="1435pt" height="288pt"
 viewBox="0.00 0.00 1435.00 288.00" xmlns="http://www.w3.org/2000/svg" xmlns:xlink="http://www.w3.org/1999/xlink">
<g id="graph0" class="graph" transform="scale(1 1) rotate(0) translate(4 284)">
<polygon fill="white" stroke="transparent" points="-4,4 -4,-284 1431,-284 1431,4 -4,4"/>
<!-- n1 -->
<g id="node1" class="node">
<title>n1</title>
<polygon fill="lightblue" stroke="black" points="954.37,-262 811.69,-280 526.31,-280 383.63,-262 526.31,-244 811.69,-244 954.37,-262"/>
<text text-anchor="middle" x="669" y="-258.3" font-family="Arial" font-size="14.00">Draw animals in their habitats with labels (e.g., fish in water).</text>
</g>
<!-- n2 -->
<g id="node2" class="node">
<title>n2</title>
<polygon fill="#fffdd0" stroke="black" points="222.5,-158 129.5,-158 129.5,-122 222.5,-122 222.5,-158"/>
<text text-anchor="middle" x="176" y="-136.3" font-family="Arial" font-size="14.00">Fish in water</text>
</g>
<!-- n1&#45;&gt;n2 -->
<g id="edge1" class="edge">
<title>n1&#45;&gt;n2</title>
<path fill="none" stroke="black" d="M599.15,-244C500.71,-220.04 323.07,-176.8 232.47,-154.74"/>
<polygon fill="black" stroke="black" points="233.19,-151.31 222.65,-152.36 231.54,-158.12 233.19,-151.31"/>
</g>
<!-- n3 -->
<g id="node3" class="node">
<title>n3</title>
<polygon fill="#fffdd0" stroke="black" points="421,-158 323,-158 323,-122 421,-122 421,-158"/>
<text text-anchor="middle" x="372" y="-136.3" font-family="Arial" font-size="14.00">Deer in forest</text>
</g>
<!-- n1&#45;&gt;n3 -->
<g id="edge2" class="edge">
<title>n1&#45;&gt;n3</title>
<path fill="none" stroke="black" d="M626.76,-243.93C573.21,-222.3 480.94,-185.02 423.37,-161.76"/>
<polygon fill="black" stroke="black" points="424.67,-158.51 414.09,-158.01 422.05,-165 424.67,-158.51"/>
</g>
<!-- n4 -->
<g id="node4" class="node">
<title>n4</title>
<polygon fill="#fffdd0" stroke="black" points="624,-158 550,-158 550,-122 624,-122 624,-158"/>
<text text-anchor="middle" x="587" y="-136.3" font-family="Arial" font-size="14.00">Bird in air</text>
</g>
<!-- n1&#45;&gt;n4 -->
<g id="edge3" class="edge">
<title>n1&#45;&gt;n4</title>
<path fill="none" stroke="black" d="M657.25,-243.81C643.43,-223.58 620.35,-189.81 604.44,-166.52"/>
<polygon fill="black" stroke="black" points="607.26,-164.44 598.73,-158.16 601.48,-168.39 607.26,-164.44"/>
</g>
<!-- n5 -->
<g id="node5" class="node">
<title>n5</title>
<polygon fill="#fffdd0" stroke="black" points="869,-158 729,-158 729,-122 869,-122 869,-158"/>
<text text-anchor="middle" x="799" y="-136.3" font-family="Arial" font-size="14.00">Beaver building dam</text>
</g>
<!-- n1&#45;&gt;n5 -->
<g id="edge4" class="edge">
<title>n1&#45;&gt;n5</title>
<path fill="none" stroke="black" d="M687.63,-243.81C710.02,-223.13 747.74,-188.31 773,-165"/>
<polygon fill="black" stroke="black" points="775.44,-167.51 780.41,-158.16 770.69,-162.37 775.44,-167.51"/>
</g>
<!-- n6 -->
<g id="node6" class="node">
<title>n6</title>
<polygon fill="#fffdd0" stroke="black" points="1124.5,-158 987.5,-158 987.5,-122 1124.5,-122 1124.5,-158"/>
<text text-anchor="middle" x="1056" y="-136.3" font-family="Arial" font-size="14.00">Trees using sunlight</text>
</g>
<!-- n1&#45;&gt;n6 -->
<g id="edge5" class="edge">
<title>n1&#45;&gt;n6</title>
<path fill="none" stroke="black" d="M724.04,-243.93C794.54,-222.07 916.53,-184.25 991.37,-161.04"/>
<polygon fill="black" stroke="black" points="992.67,-164.3 1001.2,-158.01 990.61,-157.61 992.67,-164.3"/>
</g>
<!-- n7 -->
<g id="node7" class="node">
<title>n7</title>
<polygon fill="#fffdd0" stroke="black" points="1371,-158 1237,-158 1237,-122 1371,-122 1371,-158"/>
<text text-anchor="middle" x="1304" y="-136.3" font-family="Arial" font-size="14.00">Deer drinking water</text>
</g>
<!-- n1&#45;&gt;n7 -->
<g id="edge6" class="edge">
<title>n1&#45;&gt;n7</title>
<path fill="none" stroke="black" d="M758.97,-244C884.14,-220.34 1108.7,-177.91 1226.7,-155.61"/>
<polygon fill="black" stroke="black" points="1227.62,-159 1236.8,-153.71 1226.33,-152.12 1227.62,-159"/>
</g>
<!-- n8 -->
<g id="node8" class="node">
<title>n8</title>
<path fill="palegreen" stroke="black" d="M162,-36C162,-36 12,-36 12,-36 6,-36 0,-30 0,-24 0,-24 0,-12 0,-12 0,-6 6,0 12,0 12,0 162,0 162,0 168,0 174,-6 174,-12 174,-12 174,-24 174,-24 174,-30 168,-36 162,-36"/>
<text text-anchor="middle" x="87" y="-14.3" font-family="Arial" font-size="14.00">Fish need water to survive</text>
</g>
<!-- n2&#45;&gt;n8 -->
<g id="edge7" class="edge">
<title>n2&#45;&gt;n8</title>
<path fill="none" stroke="black" d="M163.25,-121.81C148.18,-101.49 122.98,-67.51 105.7,-44.22"/>
<polygon fill="black" stroke="black" points="108.5,-42.11 99.73,-36.16 102.87,-46.28 108.5,-42.11"/>
</g>
<!-- n9 -->
<g id="node9" class="node">
<title>n9</title>
<path fill="palegreen" stroke="black" d="M408,-36C408,-36 244,-36 244,-36 238,-36 232,-30 232,-24 232,-24 232,-12 232,-12 232,-6 238,0 244,0 244,0 408,0 408,0 414,0 420,-6 420,-12 420,-12 420,-24 420,-24 420,-30 414,-36 408,-36"/>
<text text-anchor="middle" x="326" y="-14.3" font-family="Arial" font-size="14.00">Deer need forests for habitat</text>
</g>
<!-- n3&#45;&gt;n9 -->
<g id="edge8" class="edge">
<title>n3&#45;&gt;n9</title>
<path fill="none" stroke="black" d="M365.41,-121.81C357.79,-101.94 345.16,-68.99 336.26,-45.76"/>
<polygon fill="black" stroke="black" points="339.43,-44.25 332.58,-36.16 332.89,-46.75 339.43,-44.25"/>
</g>
<!-- n10 -->
<g id="node10" class="node">
<title>n10</title>
<path fill="palegreen" stroke="black" d="M635.5,-36C635.5,-36 490.5,-36 490.5,-36 484.5,-36 478.5,-30 478.5,-24 478.5,-24 478.5,-12 478.5,-12 478.5,-6 484.5,0 490.5,0 490.5,0 635.5,0 635.5,0 641.5,0 647.5,-6 647.5,-12 647.5,-12 647.5,-24 647.5,-24 647.5,-30 641.5,-36 635.5,-36"/>
<text text-anchor="middle" x="563" y="-14.3" font-family="Arial" font-size="14.00">Birds need air and can fly</text>
</g>
<!-- n4&#45;&gt;n10 -->
<g id="edge9" class="edge">
<title>n4&#45;&gt;n10</title>
<path fill="none" stroke="black" d="M583.56,-121.81C579.6,-102.02 573.06,-69.29 568.42,-46.08"/>
<polygon fill="black" stroke="black" points="571.83,-45.28 566.43,-36.16 564.97,-46.65 571.83,-45.28"/>
</g>
<!-- n11 -->
<g id="node11" class="node">
<title>n11</title>
<path fill="palegreen" stroke="black" d="M928.5,-36C928.5,-36 717.5,-36 717.5,-36 711.5,-36 705.5,-30 705.5,-24 705.5,-24 705.5,-12 705.5,-12 705.5,-6 711.5,0 717.5,0 717.5,0 928.5,0 928.5,0 934.5,0 940.5,-6 940.5,-12 940.5,-12 940.5,-24 940.5,-24 940.5,-30 934.5,-36 928.5,-36"/>
<text text-anchor="middle" x="823" y="-14.3" font-family="Arial" font-size="14.00">Beavers build dams using resources</text>
</g>
<!-- n5&#45;&gt;n11 -->
<g id="edge10" class="edge">
<title>n5&#45;&gt;n11</title>
<path fill="none" stroke="black" d="M802.44,-121.81C806.4,-102.02 812.94,-69.29 817.58,-46.08"/>
<polygon fill="black" stroke="black" points="821.03,-46.65 819.57,-36.16 814.17,-45.28 821.03,-46.65"/>
</g>
<!-- n12 -->
<g id="node12" class="node">
<title>n12</title>
<path fill="palegreen" stroke="black" d="M1173,-36C1173,-36 1011,-36 1011,-36 1005,-36 999,-30 999,-24 999,-24 999,-12 999,-12 999,-6 1005,0 1011,0 1011,0 1173,0 1173,0 1179,0 1185,-6 1185,-12 1185,-12 1185,-24 1185,-24 1185,-30 1179,-36 1173,-36"/>
<text text-anchor="middle" x="1092" y="-14.3" font-family="Arial" font-size="14.00">Plants need sunlight to grow</text>
</g>
<!-- n6&#45;&gt;n12 -->
<g id="edge11" class="edge">
<title>n6&#45;&gt;n12</title>
<path fill="none" stroke="black" d="M1061.2,-121.81C1067.1,-101.94 1077,-68.99 1084,-45.76"/>
<polygon fill="black" stroke="black" points="1087.36,-46.75 1086.9,-36.16 1080.66,-44.72 1087.36,-46.75"/>
</g>
<!-- n13 -->
<g id="node13" class="node">
<title>n13</title>
<path fill="palegreen" stroke="black" d="M1415,-36C1415,-36 1255,-36 1255,-36 1249,-36 1243,-30 1243,-24 1243,-24 1243,-12 1243,-12 1243,-6 1249,0 1255,0 1255,0 1415,0 1415,0 1421,0 1427,-6 1427,-12 1427,-12 1427,-24 1427,-24 1427,-30 1421,-36 1415,-36"/>
<text text-anchor="middle" x="1335" y="-14.3" font-family="Arial" font-size="14.00">Animals need water to drink</text>
</g>
<!-- n7&#45;&gt;n13 -->
<g id="edge12" class="edge">
<title>n7&#45;&gt;n13</title>
<path fill="none" stroke="black" d="M1308.4,-121.81C1313.6,-102.02 1322,-69.29 1328,-46.08"/>
<polygon fill="black" stroke="black" points="1331.45,-46.72 1330.6,-36.16 1324.68,-44.95 1331.45,-46.72"/>
</g>
</g>
</svg>
