<?xml version="1.0" encoding="UTF-8" standalone="no"?>
<!DOCTYPE svg PUBLIC "-//W3C//DTD SVG 1.1//EN"
 "http://www.w3.org/Graphics/SVG/1.1/DTD/svg11.dtd">
<!-- Generated by graphviz version 2.43.0 (0)
 -->
<!-- Pages: 1 -->
<svg width="1174pt" height="532pt"
 viewBox="0.00 0.00 1174.00 532.00" xmlns="http://www.w3.org/2000/svg" xmlns:xlink="http://www.w3.org/1999/xlink">
<g id="graph0" class="graph" transform="scale(1 1) rotate(0) translate(4 528)">
<polygon fill="white" stroke="transparent" points="-4,4 -4,-528 1170,-528 1170,4 -4,4"/>
<!-- n1 -->
<g id="node1" class="node">
<title>n1</title>
<polygon fill="lightblue" stroke="black" points="521,-506 407.25,-524 179.75,-524 66,-506 179.75,-488 407.25,-488 521,-506"/>
<text text-anchor="middle" x="293.5" y="-502.3" font-family="Arial" font-size="14.00">Illustrate plants with and without water and light.</text>
</g>
<!-- n2 -->
<g id="node2" class="node">
<title>n2</title>
<polygon fill="#fffdd0" stroke="black" points="465.5,-402 121.5,-402 121.5,-366 465.5,-366 465.5,-402"/>
<text text-anchor="middle" x="293.5" y="-380.3" font-family="Arial" font-size="14.00">Two small potted plants side by side on a simple table.</text>
</g>
<!-- n1&#45;&gt;n2 -->
<g id="edge1" class="edge">
<title>n1&#45;&gt;n2</title>
<path fill="none" stroke="black" d="M293.5,-487.81C293.5,-468.11 293.5,-435.58 293.5,-412.39"/>
<polygon fill="black" stroke="black" points="297,-412.16 293.5,-402.16 290,-412.16 297,-412.16"/>
</g>
<!-- n3 -->
<g id="node3" class="node">
<title>n3</title>
<polygon fill="#fffdd0" stroke="black" points="257,-280 8,-280 8,-244 257,-244 257,-280"/>
<text text-anchor="middle" x="132.5" y="-258.3" font-family="Arial" font-size="14.00">First plant is healthy with green leaves.</text>
</g>
<!-- n2&#45;&gt;n3 -->
<g id="edge2" class="edge">
<title>n2&#45;&gt;n3</title>
<path fill="none" stroke="black" d="M270.43,-365.81C242.46,-344.96 195.17,-309.71 163.89,-286.4"/>
<polygon fill="black" stroke="black" points="165.63,-283.33 155.52,-280.16 161.45,-288.94 165.63,-283.33"/>
</g>
<!-- n4 -->
<g id="node4" class="node">
<title>n4</title>
<polygon fill="#fffdd0" stroke="black" points="596,-280 315,-280 315,-244 596,-244 596,-280"/>
<text text-anchor="middle" x="455.5" y="-258.3" font-family="Arial" font-size="14.00">Second plant is wilting with drooping leaves.</text>
</g>
<!-- n2&#45;&gt;n4 -->
<g id="edge3" class="edge">
<title>n2&#45;&gt;n4</title>
<path fill="none" stroke="black" d="M316.71,-365.81C344.86,-344.96 392.44,-309.71 423.91,-286.4"/>
<polygon fill="black" stroke="black" points="426.38,-288.93 432.33,-280.16 422.21,-283.3 426.38,-288.93"/>
</g>
<!-- n5 -->
<g id="node5" class="node">
<title>n5</title>
<path fill="palegreen" stroke="black" d="M253,-158C253,-158 12,-158 12,-158 6,-158 0,-152 0,-146 0,-146 0,-134 0,-134 0,-128 6,-122 12,-122 12,-122 253,-122 253,-122 259,-122 265,-128 265,-134 265,-134 265,-146 265,-146 265,-152 259,-158 253,-158"/>
<text text-anchor="middle" x="132.5" y="-136.3" font-family="Arial" font-size="14.00">Healthy plant has enough water and light.</text>
</g>
<!-- n3&#45;&gt;n5 -->
<g id="edge4" class="edge">
<title>n3&#45;&gt;n5</title>
<path fill="none" stroke="black" d="M132.5,-243.81C132.5,-224.11 132.5,-191.58 132.5,-168.39"/>
<polygon fill="black" stroke="black" points="136,-168.16 132.5,-158.16 129,-168.16 136,-168.16"/>
</g>
<!-- n6 -->
<g id="node6" class="node">
<title>n6</title>
<path fill="palegreen" stroke="black" d="M537.5,-158C537.5,-158 347.5,-158 347.5,-158 341.5,-158 335.5,-152 335.5,-146 335.5,-146 335.5,-134 335.5,-134 335.5,-128 341.5,-122 347.5,-122 347.5,-122 537.5,-122 537.5,-122 543.5,-122 549.5,-128 549.5,-134 549.5,-134 549.5,-146 549.5,-146 549.5,-152 543.5,-158 537.5,-158"/>
<text text-anchor="middle" x="442.5" y="-136.3" font-family="Arial" font-size="14.00">Wilting plant lacks enough water.</text>
</g>
<!-- n4&#45;&gt;n6 -->
<g id="edge5" class="edge">
<title>n4&#45;&gt;n6</title>
<path fill="none" stroke="black" d="M453.64,-243.81C451.5,-224.11 447.98,-191.58 445.47,-168.39"/>
<polygon fill="black" stroke="black" points="448.92,-167.72 444.36,-158.16 441.96,-168.48 448.92,-167.72"/>
</g>
<!-- n7 -->
<g id="node7" class="node">
<title>n7</title>
<polygon fill="lightcoral" stroke="black" points="886.5,-158 607,-140 886.5,-122 1166,-140 886.5,-158"/>
<text text-anchor="middle" x="886.5" y="-136.3" font-family="Arial" font-size="14.00">Wilting plant may appear to have sufficient light.</text>
</g>
<!-- n4&#45;&gt;n7 -->
<g id="edge6" class="edge">
<title>n4&#45;&gt;n7</title>
<path fill="none" stroke="black" d="M516.79,-243.93C599.26,-220.97 744.98,-180.4 826.68,-157.65"/>
<polygon fill="black" stroke="black" points="828.1,-160.89 836.8,-154.84 826.23,-154.14 828.1,-160.89"/>
</g>
<!-- n8 -->
<g id="node8" class="node">
<title>n8</title>
<polygon fill="#f28e8e" stroke="black" points="1097.5,-36 675.5,-36 675.5,0 1097.5,0 1097.5,-36"/>
<text text-anchor="middle" x="886.5" y="-14.3" font-family="Arial" font-size="14.00">Ensure visualization shows distinct lack of light for the second plant.</text>
</g>
<!-- n7&#45;&gt;n8 -->
<g id="edge7" class="edge">
<title>n7&#45;&gt;n8</title>
<path fill="none" stroke="black" d="M886.5,-121.81C886.5,-102.11 886.5,-69.58 886.5,-46.39"/>
<polygon fill="black" stroke="black" points="890,-46.16 886.5,-36.16 883,-46.16 890,-46.16"/>
</g>
</g>
</svg>
