<?xml version="1.0" encoding="UTF-8" standalone="no"?>
<!DOCTYPE svg PUBLIC "-//W3C//DTD SVG 1.1//EN"
 "http://www.w3.org/Graphics/SVG/1.1/DTD/svg11.dtd">
<!-- Generated by graphviz version 2.43.0 (0)
 -->
<!-- Pages: 1 -->
<svg width="1987pt" height="410pt"
 viewBox="0.00 0.00 1987.00 410.00" xmlns="http://www.w3.org/2000/svg" xmlns:xlink="http://www.w3.org/1999/xlink">
<g id="graph0" class="graph" transform="scale(1 1) rotate(0) translate(4 406)">
<polygon fill="white" stroke="transparent" points="-4,4 -4,-406 1983,-406 1983,4 -4,4"/>
<!-- n1 -->
<g id="node1" class="node">
<title>n1</title>
<polygon fill="lightblue" stroke="black" points="1054,-384 942.5,-402 719.5,-402 608,-384 719.5,-366 942.5,-366 1054,-384"/>
<text text-anchor="middle" x="831" y="-380.3" font-family="Arial" font-size="14.00">Draw a string telephone between two students.</text>
</g>
<!-- n2 -->
<g id="node2" class="node">
<title>n2</title>
<polygon fill="#fffdd0" stroke="black" points="250,-280 0,-280 0,-244 250,-244 250,-280"/>
<text text-anchor="middle" x="125" y="-258.3" font-family="Arial" font-size="14.00">Two smiling students facing each other</text>
</g>
<!-- n1&#45;&gt;n2 -->
<g id="edge1" class="edge">
<title>n1&#45;&gt;n2</title>
<path fill="none" stroke="black" d="M730.97,-366C599.97,-343.73 371.04,-304.82 235.19,-281.73"/>
<polygon fill="black" stroke="black" points="235.61,-278.25 225.17,-280.03 234.44,-285.15 235.61,-278.25"/>
</g>
<!-- n3 -->
<g id="node3" class="node">
<title>n3</title>
<polygon fill="#fffdd0" stroke="black" points="439.5,-280 308.5,-280 308.5,-244 439.5,-244 439.5,-280"/>
<text text-anchor="middle" x="374" y="-258.3" font-family="Arial" font-size="14.00">Each holding a cup</text>
</g>
<!-- n1&#45;&gt;n3 -->
<g id="edge2" class="edge">
<title>n1&#45;&gt;n3</title>
<path fill="none" stroke="black" d="M766.01,-365.93C682.25,-343.94 536.93,-305.78 448.71,-282.62"/>
<polygon fill="black" stroke="black" points="449.33,-279.16 438.77,-280.01 447.55,-285.93 449.33,-279.16"/>
</g>
<!-- n4 -->
<g id="node4" class="node">
<title>n4</title>
<polygon fill="#fffdd0" stroke="black" points="1823,-280 1585,-280 1585,-244 1823,-244 1823,-280"/>
<text text-anchor="middle" x="1704" y="-258.3" font-family="Arial" font-size="14.00">Connected by a taut, unbroken string</text>
</g>
<!-- n1&#45;&gt;n4 -->
<g id="edge3" class="edge">
<title>n1&#45;&gt;n4</title>
<path fill="none" stroke="black" d="M948.28,-366.88C1111.4,-344.46 1405.7,-304 1574.9,-280.75"/>
<polygon fill="black" stroke="black" points="1575.47,-284.21 1584.9,-279.38 1574.52,-277.27 1575.47,-284.21"/>
</g>
<!-- n5 -->
<g id="node5" class="node">
<title>n5</title>
<polygon fill="#fffdd0" stroke="black" points="652.5,-280 497.5,-280 497.5,-244 652.5,-244 652.5,-280"/>
<text text-anchor="middle" x="575" y="-258.3" font-family="Arial" font-size="14.00">Arrows along the string</text>
</g>
<!-- n1&#45;&gt;n5 -->
<g id="edge4" class="edge">
<title>n1&#45;&gt;n5</title>
<path fill="none" stroke="black" d="M794.59,-365.93C748.82,-344.48 670.21,-307.63 620.51,-284.33"/>
<polygon fill="black" stroke="black" points="621.82,-281.08 611.28,-280.01 618.85,-287.42 621.82,-281.08"/>
</g>
<!-- n6 -->
<g id="node6" class="node">
<title>n6</title>
<polygon fill="#fffdd0" stroke="black" points="951,-280 711,-280 711,-244 951,-244 951,-280"/>
<text text-anchor="middle" x="831" y="-258.3" font-family="Arial" font-size="14.00">Cups and string labeled appropriately</text>
</g>
<!-- n1&#45;&gt;n6 -->
<g id="edge5" class="edge">
<title>n1&#45;&gt;n6</title>
<path fill="none" stroke="black" d="M831,-365.81C831,-346.11 831,-313.58 831,-290.39"/>
<polygon fill="black" stroke="black" points="834.5,-290.16 831,-280.16 827.5,-290.16 834.5,-290.16"/>
</g>
<!-- n7 -->
<g id="node7" class="node">
<title>n7</title>
<polygon fill="#fffdd0" stroke="black" points="1260.5,-280 1009.5,-280 1009.5,-244 1260.5,-244 1260.5,-280"/>
<text text-anchor="middle" x="1135" y="-258.3" font-family="Arial" font-size="14.00">Soundwave lines depicted on the string</text>
</g>
<!-- n1&#45;&gt;n7 -->
<g id="edge6" class="edge">
<title>n1&#45;&gt;n7</title>
<path fill="none" stroke="black" d="M874.23,-365.93C929.05,-344.3 1023.5,-307.02 1082.4,-283.76"/>
<polygon fill="black" stroke="black" points="1083.88,-286.94 1091.9,-280.01 1081.31,-280.43 1083.88,-286.94"/>
</g>
<!-- n8 -->
<g id="node8" class="node">
<title>n8</title>
<polygon fill="#fffdd0" stroke="black" points="1527,-280 1319,-280 1319,-244 1527,-244 1527,-280"/>
<text text-anchor="middle" x="1423" y="-258.3" font-family="Arial" font-size="14.00">Sound travels through the string</text>
</g>
<!-- n1&#45;&gt;n8 -->
<g id="edge7" class="edge">
<title>n1&#45;&gt;n8</title>
<path fill="none" stroke="black" d="M914.88,-366C1024.2,-343.84 1214.8,-305.21 1328.9,-282.08"/>
<polygon fill="black" stroke="black" points="1329.9,-285.45 1339,-280.03 1328.5,-278.59 1329.9,-285.45"/>
</g>
<!-- n9 -->
<g id="node9" class="node">
<title>n9</title>
<path fill="palegreen" stroke="black" d="M968,-158C968,-158 694,-158 694,-158 688,-158 682,-152 682,-146 682,-146 682,-134 682,-134 682,-128 688,-122 694,-122 694,-122 968,-122 968,-122 974,-122 980,-128 980,-134 980,-134 980,-146 980,-146 980,-152 974,-158 968,-158"/>
<text text-anchor="middle" x="831" y="-136.3" font-family="Arial" font-size="14.00">Understanding of sound transmission via string</text>
</g>
<!-- n2&#45;&gt;n9 -->
<g id="edge8" class="edge">
<title>n2&#45;&gt;n9</title>
<path fill="none" stroke="black" d="M225.03,-244C356.03,-221.73 584.96,-182.82 720.81,-159.73"/>
<polygon fill="black" stroke="black" points="721.56,-163.15 730.83,-158.03 720.39,-156.25 721.56,-163.15"/>
</g>
<!-- n3&#45;&gt;n9 -->
<g id="edge9" class="edge">
<title>n3&#45;&gt;n9</title>
<path fill="none" stroke="black" d="M438.99,-243.93C522.75,-221.94 668.07,-183.78 756.29,-160.62"/>
<polygon fill="black" stroke="black" points="757.45,-163.93 766.23,-158.01 755.67,-157.16 757.45,-163.93"/>
</g>
<!-- n4&#45;&gt;n9 -->
<g id="edge10" class="edge">
<title>n4&#45;&gt;n9</title>
<path fill="none" stroke="black" d="M1584.9,-244.63C1423,-222.37 1134.1,-182.67 964.85,-159.4"/>
<polygon fill="black" stroke="black" points="965.26,-155.92 954.88,-158.03 964.31,-162.86 965.26,-155.92"/>
</g>
<!-- n10 -->
<g id="node10" class="node">
<title>n10</title>
<polygon fill="lightcoral" stroke="black" points="1704,-158 1429,-140 1704,-122 1979,-140 1704,-158"/>
<text text-anchor="middle" x="1704" y="-136.3" font-family="Arial" font-size="14.00">Limited understanding of environmental factors</text>
</g>
<!-- n4&#45;&gt;n10 -->
<g id="edge11" class="edge">
<title>n4&#45;&gt;n10</title>
<path fill="none" stroke="black" d="M1704,-243.81C1704,-224.11 1704,-191.58 1704,-168.39"/>
<polygon fill="black" stroke="black" points="1707.5,-168.16 1704,-158.16 1700.5,-168.16 1707.5,-168.16"/>
</g>
<!-- n5&#45;&gt;n9 -->
<g id="edge12" class="edge">
<title>n5&#45;&gt;n9</title>
<path fill="none" stroke="black" d="M611.41,-243.93C657.18,-222.48 735.79,-185.63 785.49,-162.33"/>
<polygon fill="black" stroke="black" points="787.15,-165.42 794.72,-158.01 784.18,-159.08 787.15,-165.42"/>
</g>
<!-- n6&#45;&gt;n9 -->
<g id="edge13" class="edge">
<title>n6&#45;&gt;n9</title>
<path fill="none" stroke="black" d="M831,-243.81C831,-224.11 831,-191.58 831,-168.39"/>
<polygon fill="black" stroke="black" points="834.5,-168.16 831,-158.16 827.5,-168.16 834.5,-168.16"/>
</g>
<!-- n7&#45;&gt;n9 -->
<g id="edge14" class="edge">
<title>n7&#45;&gt;n9</title>
<path fill="none" stroke="black" d="M1091.8,-243.93C1037,-222.3 942.51,-185.02 883.58,-161.76"/>
<polygon fill="black" stroke="black" points="884.67,-158.43 874.08,-158.01 882.1,-164.94 884.67,-158.43"/>
</g>
<!-- n8&#45;&gt;n9 -->
<g id="edge15" class="edge">
<title>n8&#45;&gt;n9</title>
<path fill="none" stroke="black" d="M1339.1,-244C1229.8,-221.84 1039.2,-183.21 925.12,-160.08"/>
<polygon fill="black" stroke="black" points="925.5,-156.59 915,-158.03 924.11,-163.45 925.5,-156.59"/>
</g>
<!-- n11 -->
<g id="node11" class="node">
<title>n11</title>
<polygon fill="#f28e8e" stroke="black" points="1883,-36 1525,-36 1525,0 1883,0 1883,-36"/>
<text text-anchor="middle" x="1704" y="-14.3" font-family="Arial" font-size="14.00">Suggest explanation of speed of sound in different media</text>
</g>
<!-- n10&#45;&gt;n11 -->
<g id="edge16" class="edge">
<title>n10&#45;&gt;n11</title>
<path fill="none" stroke="black" d="M1704,-121.81C1704,-102.11 1704,-69.58 1704,-46.39"/>
<polygon fill="black" stroke="black" points="1707.5,-46.16 1704,-36.16 1700.5,-46.16 1707.5,-46.16"/>
</g>
</g>
</svg>
