<?xml version="1.0" encoding="UTF-8" standalone="no"?>
<!DOCTYPE svg PUBLIC "-//W3C//DTD SVG 1.1//EN"
 "http://www.w3.org/Graphics/SVG/1.1/DTD/svg11.dtd">
<!-- Generated by graphviz version 2.43.0 (0)
 -->
<!-- Pages: 1 -->
<svg width="1985pt" height="410pt"
 viewBox="0.00 0.00 1984.72 410.00" xmlns="http://www.w3.org/2000/svg" xmlns:xlink="http://www.w3.org/1999/xlink">
<g id="graph0" class="graph" transform="scale(1 1) rotate(0) translate(4 406)">
<polygon fill="white" stroke="transparent" points="-4,4 -4,-406 1980.72,-406 1980.72,4 -4,4"/>
<!-- n1 -->
<g id="node1" class="node">
<title>n1</title>
<polygon fill="lightblue" stroke="black" points="1364.37,-384 1223.18,-402 940.82,-402 799.63,-384 940.82,-366 1223.18,-366 1364.37,-384"/>
<text text-anchor="middle" x="1082" y="-380.3" font-family="Arial" font-size="14.00">Draw animals in their habitats with labels (e.g., fish in water)</text>
</g>
<!-- n2 -->
<g id="node2" class="node">
<title>n2</title>
<polygon fill="#fffdd0" stroke="black" points="723.5,-280 416.5,-280 416.5,-244 723.5,-244 723.5,-280"/>
<text text-anchor="middle" x="570" y="-258.3" font-family="Arial" font-size="14.00">Circular shape with triangle tail above wavy lines</text>
</g>
<!-- n1&#45;&gt;n2 -->
<g id="edge1" class="edge">
<title>n1&#45;&gt;n2</title>
<path fill="none" stroke="black" d="M1009.5,-366C915.31,-343.93 751.42,-305.52 652.59,-282.36"/>
<polygon fill="black" stroke="black" points="653.18,-278.9 642.65,-280.03 651.59,-285.72 653.18,-278.9"/>
</g>
<!-- n3 -->
<g id="node3" class="node">
<title>n3</title>
<polygon fill="#fffdd0" stroke="black" points="1182,-280 982,-280 982,-244 1182,-244 1182,-280"/>
<text text-anchor="middle" x="1082" y="-258.3" font-family="Arial" font-size="14.00">&#39;V&#39;&#45;shaped figure high on page</text>
</g>
<!-- n1&#45;&gt;n3 -->
<g id="edge2" class="edge">
<title>n1&#45;&gt;n3</title>
<path fill="none" stroke="black" d="M1082,-365.81C1082,-346.11 1082,-313.58 1082,-290.39"/>
<polygon fill="black" stroke="black" points="1085.5,-290.16 1082,-280.16 1078.5,-290.16 1085.5,-290.16"/>
</g>
<!-- n4 -->
<g id="node4" class="node">
<title>n4</title>
<polygon fill="#fffdd0" stroke="black" points="1476,-280 1240,-280 1240,-244 1476,-244 1476,-280"/>
<text text-anchor="middle" x="1358" y="-258.3" font-family="Arial" font-size="14.00">Tall rectangle with lines labeled &#39;tree&#39;</text>
</g>
<!-- n1&#45;&gt;n4 -->
<g id="edge3" class="edge">
<title>n1&#45;&gt;n4</title>
<path fill="none" stroke="black" d="M1121.3,-365.93C1170.8,-344.39 1256.1,-307.32 1309.6,-284.04"/>
<polygon fill="black" stroke="black" points="1311.12,-287.2 1318.9,-280.01 1308.33,-280.77 1311.12,-287.2"/>
</g>
<!-- n5 -->
<g id="node5" class="node">
<title>n5</title>
<path fill="palegreen" stroke="black" d="M188,-158C188,-158 12,-158 12,-158 6,-158 0,-152 0,-146 0,-146 0,-134 0,-134 0,-128 6,-122 12,-122 12,-122 188,-122 188,-122 194,-122 200,-128 200,-134 200,-134 200,-146 200,-146 200,-152 194,-158 188,-158"/>
<text text-anchor="middle" x="100" y="-136.3" font-family="Arial" font-size="14.00">Circle and triangle tail as a fish</text>
</g>
<!-- n2&#45;&gt;n5 -->
<g id="edge4" class="edge">
<title>n2&#45;&gt;n5</title>
<path fill="none" stroke="black" d="M503.16,-243.93C416.93,-221.92 267.27,-183.71 176.56,-160.55"/>
<polygon fill="black" stroke="black" points="177.17,-157.09 166.61,-158.01 175.43,-163.87 177.17,-157.09"/>
</g>
<!-- n6 -->
<g id="node6" class="node">
<title>n6</title>
<path fill="palegreen" stroke="black" d="M383.5,-158C383.5,-158 270.5,-158 270.5,-158 264.5,-158 258.5,-152 258.5,-146 258.5,-146 258.5,-134 258.5,-134 258.5,-128 264.5,-122 270.5,-122 270.5,-122 383.5,-122 383.5,-122 389.5,-122 395.5,-128 395.5,-134 395.5,-134 395.5,-146 395.5,-146 395.5,-152 389.5,-158 383.5,-158"/>
<text text-anchor="middle" x="327" y="-136.3" font-family="Arial" font-size="14.00">Wavy lines as water</text>
</g>
<!-- n2&#45;&gt;n6 -->
<g id="edge5" class="edge">
<title>n2&#45;&gt;n6</title>
<path fill="none" stroke="black" d="M535.44,-243.93C492.08,-222.52 417.69,-185.78 370.5,-162.48"/>
<polygon fill="black" stroke="black" points="371.96,-159.3 361.44,-158.01 368.86,-165.57 371.96,-159.3"/>
</g>
<!-- n7 -->
<g id="node7" class="node">
<title>n7</title>
<polygon fill="lightcoral" stroke="black" points="731,-158 453.33,-140 731,-122 1008.67,-140 731,-158"/>
<text text-anchor="middle" x="731" y="-136.3" font-family="Arial" font-size="14.00">Lack of label for fish or clear habitat relationship</text>
</g>
<!-- n2&#45;&gt;n7 -->
<g id="edge6" class="edge">
<title>n2&#45;&gt;n7</title>
<path fill="none" stroke="black" d="M593.07,-243.81C621.6,-222.54 670.22,-186.3 701.45,-163.02"/>
<polygon fill="black" stroke="black" points="703.84,-165.6 709.77,-156.82 699.66,-159.99 703.84,-165.6"/>
</g>
<!-- n9 -->
<g id="node8" class="node">
<title>n9</title>
<path fill="palegreen" stroke="black" d="M1171,-158C1171,-158 1079,-158 1079,-158 1073,-158 1067,-152 1067,-146 1067,-146 1067,-134 1067,-134 1067,-128 1073,-122 1079,-122 1079,-122 1171,-122 1171,-122 1177,-122 1183,-128 1183,-134 1183,-134 1183,-146 1183,-146 1183,-152 1177,-158 1171,-158"/>
<text text-anchor="middle" x="1125" y="-136.3" font-family="Arial" font-size="14.00">Bird flying above</text>
</g>
<!-- n3&#45;&gt;n9 -->
<g id="edge7" class="edge">
<title>n3&#45;&gt;n9</title>
<path fill="none" stroke="black" d="M1088.2,-243.81C1095.3,-223.94 1107.1,-190.99 1115.4,-167.76"/>
<polygon fill="black" stroke="black" points="1118.76,-168.75 1118.9,-158.16 1112.19,-166.36 1118.76,-168.75"/>
</g>
<!-- n10 -->
<g id="node9" class="node">
<title>n10</title>
<path fill="palegreen" stroke="black" d="M1377,-158C1377,-158 1255,-158 1255,-158 1249,-158 1243,-152 1243,-146 1243,-146 1243,-134 1243,-134 1243,-128 1249,-122 1255,-122 1255,-122 1377,-122 1377,-122 1383,-122 1389,-128 1389,-134 1389,-134 1389,-146 1389,-146 1389,-152 1383,-158 1377,-158"/>
<text text-anchor="middle" x="1316" y="-136.3" font-family="Arial" font-size="14.00">Tree labeled correctly</text>
</g>
<!-- n4&#45;&gt;n10 -->
<g id="edge8" class="edge">
<title>n4&#45;&gt;n10</title>
<path fill="none" stroke="black" d="M1352,-243.81C1345,-223.94 1333.5,-190.99 1325.4,-167.76"/>
<polygon fill="black" stroke="black" points="1328.64,-166.42 1322,-158.16 1322.04,-168.75 1328.64,-166.42"/>
</g>
<!-- n11 -->
<g id="node10" class="node">
<title>n11</title>
<polygon fill="lightcoral" stroke="black" points="1712,-158 1447.07,-140 1712,-122 1976.93,-140 1712,-158"/>
<text text-anchor="middle" x="1712" y="-136.3" font-family="Arial" font-size="14.00">Person next to tree, no habitat relation shown</text>
</g>
<!-- n4&#45;&gt;n11 -->
<g id="edge9" class="edge">
<title>n4&#45;&gt;n11</title>
<path fill="none" stroke="black" d="M1408.3,-243.93C1475.3,-221.24 1593,-181.33 1660.5,-158.45"/>
<polygon fill="black" stroke="black" points="1661.75,-161.72 1670.1,-155.2 1659.51,-155.09 1661.75,-161.72"/>
</g>
<!-- n8 -->
<g id="node11" class="node">
<title>n8</title>
<polygon fill="#f28e8e" stroke="black" points="866,-36 596,-36 596,0 866,0 866,-36"/>
<text text-anchor="middle" x="731" y="-14.3" font-family="Arial" font-size="14.00">Feedback: Label fish and connect to water</text>
</g>
<!-- n7&#45;&gt;n8 -->
<g id="edge10" class="edge">
<title>n7&#45;&gt;n8</title>
<path fill="none" stroke="black" d="M731,-121.81C731,-102.11 731,-69.58 731,-46.39"/>
<polygon fill="black" stroke="black" points="734.5,-46.16 731,-36.16 727.5,-46.16 734.5,-46.16"/>
</g>
<!-- n12 -->
<g id="node12" class="node">
<title>n12</title>
<polygon fill="#f28e8e" stroke="black" points="1851,-36 1573,-36 1573,0 1851,0 1851,-36"/>
<text text-anchor="middle" x="1712" y="-14.3" font-family="Arial" font-size="14.00">Feedback: Connect person to habitat needs</text>
</g>
<!-- n11&#45;&gt;n12 -->
<g id="edge11" class="edge">
<title>n11&#45;&gt;n12</title>
<path fill="none" stroke="black" d="M1712,-121.81C1712,-102.11 1712,-69.58 1712,-46.39"/>
<polygon fill="black" stroke="black" points="1715.5,-46.16 1712,-36.16 1708.5,-46.16 1715.5,-46.16"/>
</g>
</g>
</svg>
