<?xml version="1.0" encoding="UTF-8" standalone="no"?>
<!DOCTYPE svg PUBLIC "-//W3C//DTD SVG 1.1//EN"
 "http://www.w3.org/Graphics/SVG/1.1/DTD/svg11.dtd">
<!-- Generated by graphviz version 2.43.0 (0)
 -->
<!-- Pages: 1 -->
<svg width="2052pt" height="410pt"
 viewBox="0.00 0.00 2051.73 410.00" xmlns="http://www.w3.org/2000/svg" xmlns:xlink="http://www.w3.org/1999/xlink">
<g id="graph0" class="graph" transform="scale(1 1) rotate(0) translate(4 406)">
<polygon fill="white" stroke="transparent" points="-4,4 -4,-406 2047.73,-406 2047.73,4 -4,4"/>
<!-- n1 -->
<g id="node1" class="node">
<title>n1</title>
<polygon fill="lightblue" stroke="black" points="917.5,-384 826.25,-402 643.75,-402 552.5,-384 643.75,-366 826.25,-366 917.5,-384"/>
<text text-anchor="middle" x="735" y="-380.3" font-family="Arial" font-size="14.00">Draw reversible changes (ice melting)</text>
</g>
<!-- n2 -->
<g id="node2" class="node">
<title>n2</title>
<polygon fill="#fffdd0" stroke="black" points="239.5,-280 38.5,-280 38.5,-244 239.5,-244 239.5,-280"/>
<text text-anchor="middle" x="139" y="-258.3" font-family="Arial" font-size="14.00">Solid block of ice with blue hue</text>
</g>
<!-- n1&#45;&gt;n2 -->
<g id="edge1" class="edge">
<title>n1&#45;&gt;n2</title>
<path fill="none" stroke="black" d="M650.56,-366C540.41,-343.82 348.26,-305.13 233.41,-282.01"/>
<polygon fill="black" stroke="black" points="234.05,-278.57 223.56,-280.03 232.67,-285.43 234.05,-278.57"/>
</g>
<!-- n3 -->
<g id="node3" class="node">
<title>n3</title>
<polygon fill="#fffdd0" stroke="black" points="558.5,-280 333.5,-280 333.5,-244 558.5,-244 558.5,-280"/>
<text text-anchor="middle" x="446" y="-258.3" font-family="Arial" font-size="14.00">Arrow labeled &#39;melts to form water&#39;</text>
</g>
<!-- n1&#45;&gt;n3 -->
<g id="edge2" class="edge">
<title>n1&#45;&gt;n3</title>
<path fill="none" stroke="black" d="M693.9,-365.93C641.9,-344.34 552.38,-307.17 496.33,-283.9"/>
<polygon fill="black" stroke="black" points="497.54,-280.61 486.96,-280.01 494.85,-287.08 497.54,-280.61"/>
</g>
<!-- n4 -->
<g id="node4" class="node">
<title>n4</title>
<polygon fill="#fffdd0" stroke="black" points="835.5,-280 634.5,-280 634.5,-244 835.5,-244 835.5,-280"/>
<text text-anchor="middle" x="735" y="-258.3" font-family="Arial" font-size="14.00">Pooled water colored light blue</text>
</g>
<!-- n1&#45;&gt;n4 -->
<g id="edge3" class="edge">
<title>n1&#45;&gt;n4</title>
<path fill="none" stroke="black" d="M735,-365.81C735,-346.11 735,-313.58 735,-290.39"/>
<polygon fill="black" stroke="black" points="738.5,-290.16 735,-280.16 731.5,-290.16 738.5,-290.16"/>
</g>
<!-- n5 -->
<g id="node5" class="node">
<title>n5</title>
<polygon fill="#fffdd0" stroke="black" points="1145.5,-280 924.5,-280 924.5,-244 1145.5,-244 1145.5,-280"/>
<text text-anchor="middle" x="1035" y="-258.3" font-family="Arial" font-size="14.00">Arrow labeled &#39;freezes to form ice&#39;</text>
</g>
<!-- n1&#45;&gt;n5 -->
<g id="edge4" class="edge">
<title>n1&#45;&gt;n5</title>
<path fill="none" stroke="black" d="M777.66,-365.93C831.76,-344.3 924.96,-307.02 983.11,-283.76"/>
<polygon fill="black" stroke="black" points="984.5,-286.98 992.48,-280.01 981.9,-280.48 984.5,-286.98"/>
</g>
<!-- n6 -->
<g id="node6" class="node">
<title>n6</title>
<polygon fill="#fffdd0" stroke="black" points="1463,-280 1377,-280 1377,-244 1463,-244 1463,-280"/>
<text text-anchor="middle" x="1420" y="-258.3" font-family="Arial" font-size="14.00">Block of ice</text>
</g>
<!-- n1&#45;&gt;n6 -->
<g id="edge5" class="edge">
<title>n1&#45;&gt;n6</title>
<path fill="none" stroke="black" d="M829.17,-366.5C975.12,-340.94 1251.2,-292.58 1366.9,-272.31"/>
<polygon fill="black" stroke="black" points="1367.66,-275.73 1376.9,-270.55 1366.44,-268.84 1367.66,-275.73"/>
</g>
<!-- n7 -->
<g id="node7" class="node">
<title>n7</title>
<path fill="palegreen" stroke="black" d="M230,-158C230,-158 12,-158 12,-158 6,-158 0,-152 0,-146 0,-146 0,-134 0,-134 0,-128 6,-122 12,-122 12,-122 230,-122 230,-122 236,-122 242,-128 242,-134 242,-134 242,-146 242,-146 242,-152 236,-158 230,-158"/>
<text text-anchor="middle" x="121" y="-136.3" font-family="Arial" font-size="14.00">Correctly illustrates ice before melting</text>
</g>
<!-- n2&#45;&gt;n7 -->
<g id="edge6" class="edge">
<title>n2&#45;&gt;n7</title>
<path fill="none" stroke="black" d="M136.42,-243.81C133.45,-224.02 128.54,-191.29 125.06,-168.08"/>
<polygon fill="black" stroke="black" points="128.52,-167.53 123.57,-158.16 121.59,-168.57 128.52,-167.53"/>
</g>
<!-- n8 -->
<g id="node8" class="node">
<title>n8</title>
<path fill="palegreen" stroke="black" d="M537.5,-158C537.5,-158 312.5,-158 312.5,-158 306.5,-158 300.5,-152 300.5,-146 300.5,-146 300.5,-134 300.5,-134 300.5,-128 306.5,-122 312.5,-122 312.5,-122 537.5,-122 537.5,-122 543.5,-122 549.5,-128 549.5,-134 549.5,-134 549.5,-146 549.5,-146 549.5,-152 543.5,-158 537.5,-158"/>
<text text-anchor="middle" x="425" y="-136.3" font-family="Arial" font-size="14.00">Correctly shows the process of melting</text>
</g>
<!-- n3&#45;&gt;n8 -->
<g id="edge7" class="edge">
<title>n3&#45;&gt;n8</title>
<path fill="none" stroke="black" d="M442.99,-243.81C439.53,-224.02 433.8,-191.29 429.74,-168.08"/>
<polygon fill="black" stroke="black" points="433.18,-167.4 428,-158.16 426.28,-168.61 433.18,-167.4"/>
</g>
<!-- n9 -->
<g id="node9" class="node">
<title>n9</title>
<path fill="palegreen" stroke="black" d="M850,-158C850,-158 620,-158 620,-158 614,-158 608,-152 608,-146 608,-146 608,-134 608,-134 608,-128 614,-122 620,-122 620,-122 850,-122 850,-122 856,-122 862,-128 862,-134 862,-134 862,-146 862,-146 862,-152 856,-158 850,-158"/>
<text text-anchor="middle" x="735" y="-136.3" font-family="Arial" font-size="14.00">Successfully depicts water after melting</text>
</g>
<!-- n4&#45;&gt;n9 -->
<g id="edge8" class="edge">
<title>n4&#45;&gt;n9</title>
<path fill="none" stroke="black" d="M735,-243.81C735,-224.11 735,-191.58 735,-168.39"/>
<polygon fill="black" stroke="black" points="738.5,-168.16 735,-158.16 731.5,-168.16 738.5,-168.16"/>
</g>
<!-- n10 -->
<g id="node10" class="node">
<title>n10</title>
<path fill="palegreen" stroke="black" d="M1200,-158C1200,-158 932,-158 932,-158 926,-158 920,-152 920,-146 920,-146 920,-134 920,-134 920,-128 926,-122 932,-122 932,-122 1200,-122 1200,-122 1206,-122 1212,-128 1212,-134 1212,-134 1212,-146 1212,-146 1212,-152 1206,-158 1200,-158"/>
<text text-anchor="middle" x="1066" y="-136.3" font-family="Arial" font-size="14.00">Demonstrates the freezing process accurately</text>
</g>
<!-- n5&#45;&gt;n10 -->
<g id="edge9" class="edge">
<title>n5&#45;&gt;n10</title>
<path fill="none" stroke="black" d="M1039.4,-243.81C1044.6,-224.02 1053,-191.29 1059,-168.08"/>
<polygon fill="black" stroke="black" points="1062.45,-168.72 1061.6,-158.16 1055.68,-166.95 1062.45,-168.72"/>
</g>
<!-- n11 -->
<g id="node11" class="node">
<title>n11</title>
<path fill="palegreen" stroke="black" d="M1558,-158C1558,-158 1282,-158 1282,-158 1276,-158 1270,-152 1270,-146 1270,-146 1270,-134 1270,-134 1270,-128 1276,-122 1282,-122 1282,-122 1558,-122 1558,-122 1564,-122 1570,-128 1570,-134 1570,-134 1570,-146 1570,-146 1570,-152 1564,-158 1558,-158"/>
<text text-anchor="middle" x="1420" y="-136.3" font-family="Arial" font-size="14.00">Sequence shows reversible changes effectively</text>
</g>
<!-- n6&#45;&gt;n11 -->
<g id="edge10" class="edge">
<title>n6&#45;&gt;n11</title>
<path fill="none" stroke="black" d="M1420,-243.81C1420,-224.11 1420,-191.58 1420,-168.39"/>
<polygon fill="black" stroke="black" points="1423.5,-168.16 1420,-158.16 1416.5,-168.16 1423.5,-168.16"/>
</g>
<!-- n12 -->
<g id="node12" class="node">
<title>n12</title>
<polygon fill="lightcoral" stroke="black" points="1836,-158 1628.04,-140 1836,-122 2043.96,-140 1836,-158"/>
<text text-anchor="middle" x="1836" y="-136.3" font-family="Arial" font-size="14.00">Inconsistent sizing of ice and water</text>
</g>
<!-- n6&#45;&gt;n12 -->
<g id="edge11" class="edge">
<title>n6&#45;&gt;n12</title>
<path fill="none" stroke="black" d="M1463.3,-248.5C1539.4,-226.55 1696.9,-181.13 1780.7,-156.95"/>
<polygon fill="black" stroke="black" points="1781.95,-160.23 1790.6,-154.11 1780.02,-153.5 1781.95,-160.23"/>
</g>
<!-- n13 -->
<g id="node13" class="node">
<title>n13</title>
<polygon fill="#f28e8e" stroke="black" points="1993,-36 1679,-36 1679,0 1993,0 1993,-36"/>
<text text-anchor="middle" x="1836" y="-14.3" font-family="Arial" font-size="14.00">Focus on consistency in size to improve accuracy</text>
</g>
<!-- n12&#45;&gt;n13 -->
<g id="edge12" class="edge">
<title>n12&#45;&gt;n13</title>
<path fill="none" stroke="black" d="M1836,-121.81C1836,-102.11 1836,-69.58 1836,-46.39"/>
<polygon fill="black" stroke="black" points="1839.5,-46.16 1836,-36.16 1832.5,-46.16 1839.5,-46.16"/>
</g>
</g>
</svg>
