<?xml version="1.0" encoding="UTF-8" standalone="no"?>
<!DOCTYPE svg PUBLIC "-//W3C//DTD SVG 1.1//EN"
 "http://www.w3.org/Graphics/SVG/1.1/DTD/svg11.dtd">
<!-- Generated by graphviz version 2.43.0 (0)
 -->
<!-- Pages: 1 -->
<svg width="1297pt" height="410pt"
 viewBox="0.00 0.00 1297.00 410.00" xmlns="http://www.w3.org/2000/svg" xmlns:xlink="http://www.w3.org/1999/xlink">
<g id="graph0" class="graph" transform="scale(1 1) rotate(0) translate(4 406)">
<polygon fill="white" stroke="transparent" points="-4,4 -4,-406 1293,-406 1293,4 -4,4"/>
<!-- n1 -->
<g id="node1" class="node">
<title>n1</title>
<polygon fill="lightblue" stroke="black" points="967.5,-384 837.25,-402 576.75,-402 446.5,-384 576.75,-366 837.25,-366 967.5,-384"/>
<text text-anchor="middle" x="707" y="-380.3" font-family="Arial" font-size="14.00">Draw two habitats and the different living things in each</text>
</g>
<!-- n2 -->
<g id="node2" class="node">
<title>n2</title>
<polygon fill="#fffdd0" stroke="black" points="393.5,-280 130.5,-280 130.5,-244 393.5,-244 393.5,-280"/>
<text text-anchor="middle" x="262" y="-258.3" font-family="Arial" font-size="14.00">Land habitat with tree, bushes, and grass</text>
</g>
<!-- n1&#45;&gt;n2 -->
<g id="edge1" class="edge">
<title>n1&#45;&gt;n2</title>
<path fill="none" stroke="black" d="M643.71,-365.93C562.15,-343.94 420.66,-305.78 334.75,-282.62"/>
<polygon fill="black" stroke="black" points="335.64,-279.23 325.07,-280.01 333.81,-285.99 335.64,-279.23"/>
</g>
<!-- n3 -->
<g id="node3" class="node">
<title>n3</title>
<polygon fill="#fffdd0" stroke="black" points="688.5,-280 451.5,-280 451.5,-244 688.5,-244 688.5,-280"/>
<text text-anchor="middle" x="570" y="-258.3" font-family="Arial" font-size="14.00">Water habitat with pond and lily pads</text>
</g>
<!-- n1&#45;&gt;n3 -->
<g id="edge2" class="edge">
<title>n1&#45;&gt;n3</title>
<path fill="none" stroke="black" d="M687.37,-365.81C663.77,-345.13 624.02,-310.31 597.4,-287"/>
<polygon fill="black" stroke="black" points="599.42,-284.12 589.59,-280.16 594.81,-289.38 599.42,-284.12"/>
</g>
<!-- n4 -->
<g id="node4" class="node">
<title>n4</title>
<polygon fill="#fffdd0" stroke="black" points="943.5,-280 746.5,-280 746.5,-244 943.5,-244 943.5,-280"/>
<text text-anchor="middle" x="845" y="-258.3" font-family="Arial" font-size="14.00">Squirrel on tree, lizard on rock</text>
</g>
<!-- n1&#45;&gt;n4 -->
<g id="edge3" class="edge">
<title>n1&#45;&gt;n4</title>
<path fill="none" stroke="black" d="M726.77,-365.81C750.55,-345.13 790.59,-310.31 817.4,-287"/>
<polygon fill="black" stroke="black" points="820.01,-289.36 825.26,-280.16 815.42,-284.08 820.01,-289.36"/>
</g>
<!-- n5 -->
<g id="node5" class="node">
<title>n5</title>
<polygon fill="#fffdd0" stroke="black" points="1190,-280 1002,-280 1002,-244 1190,-244 1190,-280"/>
<text text-anchor="middle" x="1096" y="-258.3" font-family="Arial" font-size="14.00">Fish in pond, clam at bottom</text>
</g>
<!-- n1&#45;&gt;n5 -->
<g id="edge4" class="edge">
<title>n1&#45;&gt;n5</title>
<path fill="none" stroke="black" d="M762.32,-365.93C833.18,-344.07 955.81,-306.25 1031,-283.04"/>
<polygon fill="black" stroke="black" points="1032.36,-286.28 1040.9,-280.01 1030.31,-279.59 1032.36,-286.28"/>
</g>
<!-- n6 -->
<g id="node6" class="node">
<title>n6</title>
<path fill="palegreen" stroke="black" d="M214,-158C214,-158 12,-158 12,-158 6,-158 0,-152 0,-146 0,-146 0,-134 0,-134 0,-128 6,-122 12,-122 12,-122 214,-122 214,-122 220,-122 226,-128 226,-134 226,-134 226,-146 226,-146 226,-152 220,-158 214,-158"/>
<text text-anchor="middle" x="113" y="-136.3" font-family="Arial" font-size="14.00">Understands different habitat types</text>
</g>
<!-- n2&#45;&gt;n6 -->
<g id="edge5" class="edge">
<title>n2&#45;&gt;n6</title>
<path fill="none" stroke="black" d="M240.65,-243.81C214.87,-223.04 171.37,-188.01 142.42,-164.7"/>
<polygon fill="black" stroke="black" points="144.29,-161.71 134.31,-158.16 139.9,-167.16 144.29,-161.71"/>
</g>
<!-- n7 -->
<g id="node7" class="node">
<title>n7</title>
<path fill="palegreen" stroke="black" d="M517.5,-158C517.5,-158 296.5,-158 296.5,-158 290.5,-158 284.5,-152 284.5,-146 284.5,-146 284.5,-134 284.5,-134 284.5,-128 290.5,-122 296.5,-122 296.5,-122 517.5,-122 517.5,-122 523.5,-122 529.5,-128 529.5,-134 529.5,-134 529.5,-146 529.5,-146 529.5,-152 523.5,-158 517.5,-158"/>
<text text-anchor="middle" x="407" y="-136.3" font-family="Arial" font-size="14.00">Understands plant diversity in habitats</text>
</g>
<!-- n2&#45;&gt;n7 -->
<g id="edge6" class="edge">
<title>n2&#45;&gt;n7</title>
<path fill="none" stroke="black" d="M282.77,-243.81C307.86,-223.04 350.19,-188.01 378.37,-164.7"/>
<polygon fill="black" stroke="black" points="380.79,-167.24 386.26,-158.16 376.33,-161.85 380.79,-167.24"/>
</g>
<!-- n9 -->
<g id="node8" class="node">
<title>n9</title>
<polygon fill="lightcoral" stroke="black" points="781,-158 587,-140 781,-122 975,-140 781,-158"/>
<text text-anchor="middle" x="781" y="-136.3" font-family="Arial" font-size="14.00">Struggles with labeling elements</text>
</g>
<!-- n2&#45;&gt;n9 -->
<g id="edge7" class="edge">
<title>n2&#45;&gt;n9</title>
<path fill="none" stroke="black" d="M335.53,-244C438.03,-220.3 622.07,-177.75 718.37,-155.48"/>
<polygon fill="black" stroke="black" points="719.31,-158.86 728.26,-153.19 717.73,-152.04 719.31,-158.86"/>
</g>
<!-- n3&#45;&gt;n6 -->
<g id="edge8" class="edge">
<title>n3&#45;&gt;n6</title>
<path fill="none" stroke="black" d="M505.01,-243.93C421.25,-221.94 275.93,-183.78 187.71,-160.62"/>
<polygon fill="black" stroke="black" points="188.33,-157.16 177.77,-158.01 186.55,-163.93 188.33,-157.16"/>
</g>
<!-- n3&#45;&gt;n7 -->
<g id="edge9" class="edge">
<title>n3&#45;&gt;n7</title>
<path fill="none" stroke="black" d="M546.65,-243.81C518.2,-222.87 470.04,-187.41 438.38,-164.1"/>
<polygon fill="black" stroke="black" points="440.44,-161.27 430.31,-158.16 436.29,-166.91 440.44,-161.27"/>
</g>
<!-- n3&#45;&gt;n9 -->
<g id="edge10" class="edge">
<title>n3&#45;&gt;n9</title>
<path fill="none" stroke="black" d="M600.23,-243.81C638.9,-221.82 705.72,-183.82 746.38,-160.69"/>
<polygon fill="black" stroke="black" points="748.18,-163.69 755.14,-155.71 744.72,-157.61 748.18,-163.69"/>
</g>
<!-- n4&#45;&gt;n9 -->
<g id="edge11" class="edge">
<title>n4&#45;&gt;n9</title>
<path fill="none" stroke="black" d="M835.83,-243.81C825.02,-223.53 806.94,-189.64 794.52,-166.35"/>
<polygon fill="black" stroke="black" points="797.54,-164.57 789.74,-157.39 791.36,-167.86 797.54,-164.57"/>
</g>
<!-- n8 -->
<g id="node9" class="node">
<title>n8</title>
<path fill="palegreen" stroke="black" d="M1277,-158C1277,-158 1045,-158 1045,-158 1039,-158 1033,-152 1033,-146 1033,-146 1033,-134 1033,-134 1033,-128 1039,-122 1045,-122 1045,-122 1277,-122 1277,-122 1283,-122 1289,-128 1289,-134 1289,-134 1289,-146 1289,-146 1289,-152 1283,-158 1277,-158"/>
<text text-anchor="middle" x="1161" y="-136.3" font-family="Arial" font-size="14.00">Understands animal diversity in habitats</text>
</g>
<!-- n4&#45;&gt;n8 -->
<g id="edge12" class="edge">
<title>n4&#45;&gt;n8</title>
<path fill="none" stroke="black" d="M889.94,-243.93C947.03,-222.25 1045.5,-184.86 1106.7,-161.61"/>
<polygon fill="black" stroke="black" points="1108.09,-164.83 1116.2,-158.01 1105.61,-158.28 1108.09,-164.83"/>
</g>
<!-- n5&#45;&gt;n9 -->
<g id="edge13" class="edge">
<title>n5&#45;&gt;n9</title>
<path fill="none" stroke="black" d="M1051.2,-243.93C991.67,-221.26 887.03,-181.39 826.93,-158.5"/>
<polygon fill="black" stroke="black" points="827.91,-155.13 817.32,-154.84 825.42,-161.67 827.91,-155.13"/>
</g>
<!-- n5&#45;&gt;n8 -->
<g id="edge14" class="edge">
<title>n5&#45;&gt;n8</title>
<path fill="none" stroke="black" d="M1105.3,-243.81C1116.2,-223.76 1134.2,-190.4 1146.8,-167.14"/>
<polygon fill="black" stroke="black" points="1149.98,-168.61 1151.7,-158.16 1143.84,-165.26 1149.98,-168.61"/>
</g>
<!-- n10 -->
<g id="node10" class="node">
<title>n10</title>
<polygon fill="#f28e8e" stroke="black" points="913,-36 649,-36 649,0 913,0 913,-36"/>
<text text-anchor="middle" x="781" y="-14.3" font-family="Arial" font-size="14.00">Practice labeling all elements in drawings</text>
</g>
<!-- n9&#45;&gt;n10 -->
<g id="edge15" class="edge">
<title>n9&#45;&gt;n10</title>
<path fill="none" stroke="black" d="M781,-121.81C781,-102.11 781,-69.58 781,-46.39"/>
<polygon fill="black" stroke="black" points="784.5,-46.16 781,-36.16 777.5,-46.16 784.5,-46.16"/>
</g>
</g>
</svg>
