<?xml version="1.0" encoding="UTF-8" standalone="no"?>
<!DOCTYPE svg PUBLIC "-//W3C//DTD SVG 1.1//EN"
 "http://www.w3.org/Graphics/SVG/1.1/DTD/svg11.dtd">
<!-- Generated by graphviz version 2.43.0 (0)
 -->
<!-- Pages: 1 -->
<svg width="1232pt" height="288pt"
 viewBox="0.00 0.00 1231.50 288.00" xmlns="http://www.w3.org/2000/svg" xmlns:xlink="http://www.w3.org/1999/xlink">
<g id="graph0" class="graph" transform="scale(1 1) rotate(0) translate(4 284)">
<polygon fill="white" stroke="transparent" points="-4,4 -4,-284 1227.5,-284 1227.5,4 -4,4"/>
<!-- n1 -->
<g id="node1" class="node">
<title>n1</title>
<polygon fill="lightblue" stroke="black" points="925,-262 813.5,-280 590.5,-280 479,-262 590.5,-244 813.5,-244 925,-262"/>
<text text-anchor="middle" x="702" y="-258.3" font-family="Arial" font-size="14.00">Draw a string telephone between two students.</text>
</g>
<!-- n2 -->
<g id="node2" class="node">
<title>n2</title>
<polygon fill="#fffdd0" stroke="black" points="423.5,-158 232.5,-158 232.5,-122 423.5,-122 423.5,-158"/>
<text text-anchor="middle" x="328" y="-136.3" font-family="Arial" font-size="14.00">Two kids holding paper cups.</text>
</g>
<!-- n1&#45;&gt;n2 -->
<g id="edge1" class="edge">
<title>n1&#45;&gt;n2</title>
<path fill="none" stroke="black" d="M648.81,-243.93C580.82,-222.12 463.27,-184.4 390.91,-161.18"/>
<polygon fill="black" stroke="black" points="391.59,-157.72 381,-158.01 389.46,-164.39 391.59,-157.72"/>
</g>
<!-- n3 -->
<g id="node3" class="node">
<title>n3</title>
<polygon fill="#fffdd0" stroke="black" points="667,-158 523,-158 523,-122 667,-122 667,-158"/>
<text text-anchor="middle" x="595" y="-136.3" font-family="Arial" font-size="14.00">Loosely drawn string.</text>
</g>
<!-- n1&#45;&gt;n3 -->
<g id="edge2" class="edge">
<title>n1&#45;&gt;n3</title>
<path fill="none" stroke="black" d="M686.67,-243.81C668.47,-223.4 637.99,-189.21 617.21,-165.91"/>
<polygon fill="black" stroke="black" points="619.57,-163.29 610.3,-158.16 614.34,-167.95 619.57,-163.29"/>
</g>
<!-- n4 -->
<g id="node4" class="node">
<title>n4</title>
<polygon fill="#fffdd0" stroke="black" points="895,-158 725,-158 725,-122 895,-122 895,-158"/>
<text text-anchor="middle" x="810" y="-136.3" font-family="Arial" font-size="14.00">Standing a few feet apart.</text>
</g>
<!-- n1&#45;&gt;n4 -->
<g id="edge3" class="edge">
<title>n1&#45;&gt;n4</title>
<path fill="none" stroke="black" d="M717.47,-243.81C735.92,-223.31 766.88,-188.91 787.86,-165.6"/>
<polygon fill="black" stroke="black" points="790.47,-167.94 794.55,-158.16 785.26,-163.26 790.47,-167.94"/>
</g>
<!-- n5 -->
<g id="node5" class="node">
<title>n5</title>
<polygon fill="#fffdd0" stroke="black" points="1197,-158 1035,-158 1035,-122 1197,-122 1197,-158"/>
<text text-anchor="middle" x="1116" y="-136.3" font-family="Arial" font-size="14.00">Outside on a sunny day.</text>
</g>
<!-- n1&#45;&gt;n5 -->
<g id="edge4" class="edge">
<title>n1&#45;&gt;n5</title>
<path fill="none" stroke="black" d="M760.88,-243.93C836.45,-222.03 967.33,-184.09 1047.3,-160.9"/>
<polygon fill="black" stroke="black" points="1048.66,-164.15 1057.3,-158.01 1046.72,-157.42 1048.66,-164.15"/>
</g>
<!-- n6 -->
<g id="node6" class="node">
<title>n6</title>
<path fill="palegreen" stroke="black" d="M186,-36C186,-36 12,-36 12,-36 6,-36 0,-30 0,-24 0,-24 0,-12 0,-12 0,-6 6,0 12,0 12,0 186,0 186,0 192,0 198,-6 198,-12 198,-12 198,-24 198,-24 198,-30 192,-36 186,-36"/>
<text text-anchor="middle" x="99" y="-14.3" font-family="Arial" font-size="14.00">Holding a cup to mouth or ear.</text>
</g>
<!-- n2&#45;&gt;n6 -->
<g id="edge5" class="edge">
<title>n2&#45;&gt;n6</title>
<path fill="none" stroke="black" d="M295.19,-121.81C254.55,-100.51 185.25,-64.2 140.83,-40.92"/>
<polygon fill="black" stroke="black" points="142.23,-37.7 131.75,-36.16 138.98,-43.9 142.23,-37.7"/>
</g>
<!-- n9 -->
<g id="node7" class="node">
<title>n9</title>
<path fill="palegreen" stroke="black" d="M388,-36C388,-36 268,-36 268,-36 262,-36 256,-30 256,-24 256,-24 256,-12 256,-12 256,-6 262,0 268,0 268,0 388,0 388,0 394,0 400,-6 400,-12 400,-12 400,-24 400,-24 400,-30 394,-36 388,-36"/>
<text text-anchor="middle" x="328" y="-14.3" font-family="Arial" font-size="14.00">Friendly expressions.</text>
</g>
<!-- n2&#45;&gt;n9 -->
<g id="edge6" class="edge">
<title>n2&#45;&gt;n9</title>
<path fill="none" stroke="black" d="M328,-121.81C328,-102.11 328,-69.58 328,-46.39"/>
<polygon fill="black" stroke="black" points="331.5,-46.16 328,-36.16 324.5,-46.16 331.5,-46.16"/>
</g>
<!-- n7 -->
<g id="node8" class="node">
<title>n7</title>
<polygon fill="lightcoral" stroke="black" points="554,-36 458.32,-18 554,0 649.68,-18 554,-36"/>
<text text-anchor="middle" x="554" y="-14.3" font-family="Arial" font-size="14.00">String is slack.</text>
</g>
<!-- n3&#45;&gt;n7 -->
<g id="edge7" class="edge">
<title>n3&#45;&gt;n7</title>
<path fill="none" stroke="black" d="M589.13,-121.81C582.22,-101.6 570.7,-67.87 562.74,-44.58"/>
<polygon fill="black" stroke="black" points="566.01,-43.34 559.47,-35.01 559.39,-45.61 566.01,-43.34"/>
</g>
<!-- n10 -->
<g id="node9" class="node">
<title>n10</title>
<polygon fill="#f28e8e" stroke="black" points="1032,-36 708,-36 708,0 1032,0 1032,-36"/>
<text text-anchor="middle" x="870" y="-14.3" font-family="Arial" font-size="14.00">Hold string taut to transmit sound waves effectively.</text>
</g>
<!-- n3&#45;&gt;n10 -->
<g id="edge8" class="edge">
<title>n3&#45;&gt;n10</title>
<path fill="none" stroke="black" d="M634.11,-121.93C683.49,-100.39 768.42,-63.33 821.77,-40.05"/>
<polygon fill="black" stroke="black" points="823.26,-43.21 831.03,-36.01 820.46,-36.8 823.26,-43.21"/>
</g>
<!-- n8 -->
<g id="node10" class="node">
<title>n8</title>
<path fill="palegreen" stroke="black" d="M1211.5,-36C1211.5,-36 1102.5,-36 1102.5,-36 1096.5,-36 1090.5,-30 1090.5,-24 1090.5,-24 1090.5,-12 1090.5,-12 1090.5,-6 1096.5,0 1102.5,0 1102.5,0 1211.5,0 1211.5,0 1217.5,0 1223.5,-6 1223.5,-12 1223.5,-12 1223.5,-24 1223.5,-24 1223.5,-30 1217.5,-36 1211.5,-36"/>
<text text-anchor="middle" x="1157" y="-14.3" font-family="Arial" font-size="14.00">Sunny background.</text>
</g>
<!-- n5&#45;&gt;n8 -->
<g id="edge9" class="edge">
<title>n5&#45;&gt;n8</title>
<path fill="none" stroke="black" d="M1121.9,-121.81C1128.7,-101.94 1139.9,-68.99 1147.9,-45.76"/>
<polygon fill="black" stroke="black" points="1151.26,-46.75 1151.1,-36.16 1144.62,-44.54 1151.26,-46.75"/>
</g>
</g>
</svg>
