<?xml version="1.0" encoding="UTF-8" standalone="no"?>
<!DOCTYPE svg PUBLIC "-//W3C//DTD SVG 1.1//EN"
 "http://www.w3.org/Graphics/SVG/1.1/DTD/svg11.dtd">
<!-- Generated by graphviz version 2.43.0 (0)
 -->
<!-- Pages: 1 -->
<svg width="1198pt" height="410pt"
 viewBox="0.00 0.00 1197.50 410.00" xmlns="http://www.w3.org/2000/svg" xmlns:xlink="http://www.w3.org/1999/xlink">
<g id="graph0" class="graph" transform="scale(1 1) rotate(0) translate(4 406)">
<polygon fill="white" stroke="transparent" points="-4,4 -4,-406 1193.5,-406 1193.5,4 -4,4"/>
<!-- n1 -->
<g id="node1" class="node">
<title>n1</title>
<polygon fill="lightblue" stroke="black" points="846.32,-384 723.91,-402 479.09,-402 356.68,-384 479.09,-366 723.91,-366 846.32,-384"/>
<text text-anchor="middle" x="601.5" y="-380.3" font-family="Arial" font-size="14.00">Draw a habitat and the different living things in each</text>
</g>
<!-- n2 -->
<g id="node2" class="node">
<title>n2</title>
<polygon fill="#fffdd0" stroke="black" points="584.5,-280 382.5,-280 382.5,-244 584.5,-244 584.5,-280"/>
<text text-anchor="middle" x="483.5" y="-258.3" font-family="Arial" font-size="14.00">Forest with trees and a squirrel</text>
</g>
<!-- n1&#45;&gt;n2 -->
<g id="edge1" class="edge">
<title>n1&#45;&gt;n2</title>
<path fill="none" stroke="black" d="M584.59,-365.81C564.35,-345.22 530.32,-310.61 507.4,-287.3"/>
<polygon fill="black" stroke="black" points="509.89,-284.84 500.38,-280.16 504.9,-289.74 509.89,-284.84"/>
</g>
<!-- n3 -->
<g id="node3" class="node">
<title>n3</title>
<polygon fill="#fffdd0" stroke="black" points="796.5,-280 642.5,-280 642.5,-244 796.5,-244 796.5,-280"/>
<text text-anchor="middle" x="719.5" y="-258.3" font-family="Arial" font-size="14.00">Pond with fish and frog</text>
</g>
<!-- n1&#45;&gt;n3 -->
<g id="edge2" class="edge">
<title>n1&#45;&gt;n3</title>
<path fill="none" stroke="black" d="M618.41,-365.81C638.65,-345.22 672.68,-310.61 695.6,-287.3"/>
<polygon fill="black" stroke="black" points="698.1,-289.74 702.62,-280.16 693.11,-284.84 698.1,-289.74"/>
</g>
<!-- n4 -->
<g id="node4" class="node">
<title>n4</title>
<path fill="palegreen" stroke="black" d="M331,-158C331,-158 12,-158 12,-158 6,-158 0,-152 0,-146 0,-146 0,-134 0,-134 0,-128 6,-122 12,-122 12,-122 331,-122 331,-122 337,-122 343,-128 343,-134 343,-134 343,-146 343,-146 343,-152 337,-158 331,-158"/>
<text text-anchor="middle" x="171.5" y="-136.3" font-family="Arial" font-size="14.00">Basic understanding of terrestrial habitat and residents</text>
</g>
<!-- n2&#45;&gt;n4 -->
<g id="edge3" class="edge">
<title>n2&#45;&gt;n4</title>
<path fill="none" stroke="black" d="M439.13,-243.93C382.76,-222.25 285.55,-184.86 225.09,-161.61"/>
<polygon fill="black" stroke="black" points="226.31,-158.33 215.72,-158.01 223.8,-164.86 226.31,-158.33"/>
</g>
<!-- n6 -->
<g id="node5" class="node">
<title>n6</title>
<polygon fill="lightcoral" stroke="black" points="601.5,-158 401,-140 601.5,-122 802,-140 601.5,-158"/>
<text text-anchor="middle" x="601.5" y="-136.3" font-family="Arial" font-size="14.00">Sparse labels, potential confusion</text>
</g>
<!-- n2&#45;&gt;n6 -->
<g id="edge4" class="edge">
<title>n2&#45;&gt;n6</title>
<path fill="none" stroke="black" d="M500.41,-243.81C521.02,-222.85 555.93,-187.34 578.85,-164.03"/>
<polygon fill="black" stroke="black" points="581.61,-166.21 586.13,-156.63 576.62,-161.3 581.61,-166.21"/>
</g>
<!-- n3&#45;&gt;n6 -->
<g id="edge5" class="edge">
<title>n3&#45;&gt;n6</title>
<path fill="none" stroke="black" d="M702.59,-243.81C681.98,-222.85 647.07,-187.34 624.15,-164.03"/>
<polygon fill="black" stroke="black" points="626.38,-161.3 616.87,-156.63 621.39,-166.21 626.38,-161.3"/>
</g>
<!-- n5 -->
<g id="node6" class="node">
<title>n5</title>
<path fill="palegreen" stroke="black" d="M1177.5,-158C1177.5,-158 871.5,-158 871.5,-158 865.5,-158 859.5,-152 859.5,-146 859.5,-146 859.5,-134 859.5,-134 859.5,-128 865.5,-122 871.5,-122 871.5,-122 1177.5,-122 1177.5,-122 1183.5,-122 1189.5,-128 1189.5,-134 1189.5,-134 1189.5,-146 1189.5,-146 1189.5,-152 1183.5,-158 1177.5,-158"/>
<text text-anchor="middle" x="1024.5" y="-136.3" font-family="Arial" font-size="14.00">Basic understanding of aquatic habitat and residents</text>
</g>
<!-- n3&#45;&gt;n5 -->
<g id="edge6" class="edge">
<title>n3&#45;&gt;n5</title>
<path fill="none" stroke="black" d="M762.88,-243.93C817.87,-222.3 912.62,-185.02 971.74,-161.76"/>
<polygon fill="black" stroke="black" points="973.25,-164.93 981.27,-158.01 970.68,-158.41 973.25,-164.93"/>
</g>
<!-- n7 -->
<g id="node7" class="node">
<title>n7</title>
<polygon fill="#f28e8e" stroke="black" points="714.5,-36 488.5,-36 488.5,0 714.5,0 714.5,-36"/>
<text text-anchor="middle" x="601.5" y="-14.3" font-family="Arial" font-size="14.00">Improve label clarity and specificity</text>
</g>
<!-- n6&#45;&gt;n7 -->
<g id="edge7" class="edge">
<title>n6&#45;&gt;n7</title>
<path fill="none" stroke="black" d="M601.5,-121.81C601.5,-102.11 601.5,-69.58 601.5,-46.39"/>
<polygon fill="black" stroke="black" points="605,-46.16 601.5,-36.16 598,-46.16 605,-46.16"/>
</g>
</g>
</svg>
