<?xml version="1.0" encoding="UTF-8" standalone="no"?>
<!DOCTYPE svg PUBLIC "-//W3C//DTD SVG 1.1//EN"
 "http://www.w3.org/Graphics/SVG/1.1/DTD/svg11.dtd">
<!-- Generated by graphviz version 2.43.0 (0)
 -->
<!-- Pages: 1 -->
<svg width="1731pt" height="410pt"
 viewBox="0.00 0.00 1731.00 410.00" xmlns="http://www.w3.org/2000/svg" xmlns:xlink="http://www.w3.org/1999/xlink">
<g id="graph0" class="graph" transform="scale(1 1) rotate(0) translate(4 406)">
<polygon fill="white" stroke="transparent" points="-4,4 -4,-406 1727,-406 1727,4 -4,4"/>
<!-- n1 -->
<g id="node1" class="node">
<title>n1</title>
<polygon fill="lightblue" stroke="black" points="964,-384 833.75,-402 573.25,-402 443,-384 573.25,-366 833.75,-366 964,-384"/>
<text text-anchor="middle" x="703.5" y="-380.3" font-family="Arial" font-size="14.00">Draw two habitats and the different living things in each</text>
</g>
<!-- n2 -->
<g id="node2" class="node">
<title>n2</title>
<polygon fill="#fffdd0" stroke="black" points="371,-280 166,-280 166,-244 371,-244 371,-280"/>
<text text-anchor="middle" x="268.5" y="-258.3" font-family="Arial" font-size="14.00">Forest with uneven tree shapes</text>
</g>
<!-- n1&#45;&gt;n2 -->
<g id="edge1" class="edge">
<title>n1&#45;&gt;n2</title>
<path fill="none" stroke="black" d="M641.64,-365.93C561.99,-343.96 423.87,-305.86 339.87,-282.69"/>
<polygon fill="black" stroke="black" points="340.72,-279.29 330.15,-280.01 338.86,-286.04 340.72,-279.29"/>
</g>
<!-- n3 -->
<g id="node3" class="node">
<title>n3</title>
<polygon fill="#fffdd0" stroke="black" points="674.5,-280 496.5,-280 496.5,-244 674.5,-244 674.5,-280"/>
<text text-anchor="middle" x="585.5" y="-258.3" font-family="Arial" font-size="14.00">Water scene with blue lake</text>
</g>
<!-- n1&#45;&gt;n3 -->
<g id="edge2" class="edge">
<title>n1&#45;&gt;n3</title>
<path fill="none" stroke="black" d="M686.59,-365.81C666.35,-345.22 632.32,-310.61 609.4,-287.3"/>
<polygon fill="black" stroke="black" points="611.89,-284.84 602.38,-280.16 606.9,-289.74 611.89,-284.84"/>
</g>
<!-- n4 -->
<g id="node4" class="node">
<title>n4</title>
<polygon fill="#fffdd0" stroke="black" points="910.5,-280 732.5,-280 732.5,-244 910.5,-244 910.5,-280"/>
<text text-anchor="middle" x="821.5" y="-258.3" font-family="Arial" font-size="14.00">Fish drawn in both habitats</text>
</g>
<!-- n1&#45;&gt;n4 -->
<g id="edge3" class="edge">
<title>n1&#45;&gt;n4</title>
<path fill="none" stroke="black" d="M720.41,-365.81C740.65,-345.22 774.68,-310.61 797.6,-287.3"/>
<polygon fill="black" stroke="black" points="800.1,-289.74 804.62,-280.16 795.11,-284.84 800.1,-289.74"/>
</g>
<!-- n5 -->
<g id="node5" class="node">
<title>n5</title>
<polygon fill="#fffdd0" stroke="black" points="1357.5,-280 1181.5,-280 1181.5,-244 1357.5,-244 1357.5,-280"/>
<text text-anchor="middle" x="1269.5" y="-258.3" font-family="Arial" font-size="14.00">Bird drawn in both habitats</text>
</g>
<!-- n1&#45;&gt;n5 -->
<g id="edge4" class="edge">
<title>n1&#45;&gt;n5</title>
<path fill="none" stroke="black" d="M783.69,-366C888.09,-343.87 1070,-305.29 1179.2,-282.15"/>
<polygon fill="black" stroke="black" points="1180.14,-285.53 1189.2,-280.03 1178.69,-278.68 1180.14,-285.53"/>
</g>
<!-- n6 -->
<g id="node6" class="node">
<title>n6</title>
<path fill="palegreen" stroke="black" d="M389,-158C389,-158 12,-158 12,-158 6,-158 0,-152 0,-146 0,-146 0,-134 0,-134 0,-128 6,-122 12,-122 12,-122 389,-122 389,-122 395,-122 401,-128 401,-134 401,-134 401,-146 401,-146 401,-152 395,-158 389,-158"/>
<text text-anchor="middle" x="200.5" y="-136.3" font-family="Arial" font-size="14.00">Simplified shapes show basic understanding of different habitats</text>
</g>
<!-- n2&#45;&gt;n6 -->
<g id="edge5" class="edge">
<title>n2&#45;&gt;n6</title>
<path fill="none" stroke="black" d="M258.76,-243.81C247.4,-223.76 228.49,-190.4 215.31,-167.14"/>
<polygon fill="black" stroke="black" points="218.2,-165.13 210.22,-158.16 212.11,-168.59 218.2,-165.13"/>
</g>
<!-- n7 -->
<g id="node7" class="node">
<title>n7</title>
<polygon fill="lightcoral" stroke="black" points="821.5,-158 459.2,-140 821.5,-122 1183.8,-140 821.5,-158"/>
<text text-anchor="middle" x="821.5" y="-136.3" font-family="Arial" font-size="14.00">Placement of fish in forest shows confusion about habitat types</text>
</g>
<!-- n4&#45;&gt;n7 -->
<g id="edge6" class="edge">
<title>n4&#45;&gt;n7</title>
<path fill="none" stroke="black" d="M821.5,-243.81C821.5,-224.11 821.5,-191.58 821.5,-168.39"/>
<polygon fill="black" stroke="black" points="825,-168.16 821.5,-158.16 818,-168.16 825,-168.16"/>
</g>
<!-- n9 -->
<g id="node8" class="node">
<title>n9</title>
<path fill="palegreen" stroke="black" d="M1711,-158C1711,-158 1254,-158 1254,-158 1248,-158 1242,-152 1242,-146 1242,-146 1242,-134 1242,-134 1242,-128 1248,-122 1254,-122 1254,-122 1711,-122 1711,-122 1717,-122 1723,-128 1723,-134 1723,-134 1723,-146 1723,-146 1723,-152 1717,-158 1711,-158"/>
<text text-anchor="middle" x="1482.5" y="-136.3" font-family="Arial" font-size="14.00">Consistent bird use indicates recognition of some living things in both habitats</text>
</g>
<!-- n5&#45;&gt;n9 -->
<g id="edge7" class="edge">
<title>n5&#45;&gt;n9</title>
<path fill="none" stroke="black" d="M1300,-243.81C1337.7,-222.6 1401.7,-186.5 1443.1,-163.21"/>
<polygon fill="black" stroke="black" points="1445.03,-166.14 1452,-158.16 1441.58,-160.05 1445.03,-166.14"/>
</g>
<!-- n8 -->
<g id="node9" class="node">
<title>n8</title>
<polygon fill="#f28e8e" stroke="black" points="1039,-36 604,-36 604,0 1039,0 1039,-36"/>
<text text-anchor="middle" x="821.5" y="-14.3" font-family="Arial" font-size="14.00">Place water animals in the water habitat to show correct habitat types.</text>
</g>
<!-- n7&#45;&gt;n8 -->
<g id="edge8" class="edge">
<title>n7&#45;&gt;n8</title>
<path fill="none" stroke="black" d="M821.5,-121.81C821.5,-102.11 821.5,-69.58 821.5,-46.39"/>
<polygon fill="black" stroke="black" points="825,-46.16 821.5,-36.16 818,-46.16 825,-46.16"/>
</g>
</g>
</svg>
