<?xml version="1.0" encoding="UTF-8" standalone="no"?>
<!DOCTYPE svg PUBLIC "-//W3C//DTD SVG 1.1//EN"
 "http://www.w3.org/Graphics/SVG/1.1/DTD/svg11.dtd">
<!-- Generated by graphviz version 2.43.0 (0)
 -->
<!-- Pages: 1 -->
<svg width="2010pt" height="410pt"
 viewBox="0.00 0.00 2009.50 410.00" xmlns="http://www.w3.org/2000/svg" xmlns:xlink="http://www.w3.org/1999/xlink">
<g id="graph0" class="graph" transform="scale(1 1) rotate(0) translate(4 406)">
<polygon fill="white" stroke="transparent" points="-4,4 -4,-406 2005.5,-406 2005.5,4 -4,4"/>
<!-- n1 -->
<g id="node1" class="node">
<title>n1</title>
<polygon fill="lightblue" stroke="black" points="1270,-384 1178.75,-402 996.25,-402 905,-384 996.25,-366 1178.75,-366 1270,-384"/>
<text text-anchor="middle" x="1087.5" y="-380.3" font-family="Arial" font-size="14.00">Draw reversible changes (ice melting)</text>
</g>
<!-- n2 -->
<g id="node2" class="node">
<title>n2</title>
<polygon fill="#fffdd0" stroke="black" points="1196.5,-280 444.5,-280 444.5,-244 1196.5,-244 1196.5,-280"/>
<text text-anchor="middle" x="820.5" y="-258.3" font-family="Arial" font-size="14.00">Child&#39;s drawing shows: a square block labeled ‘ice’, wavy lines labeled ‘water’, arrows misdirected or incorrectly sequenced</text>
</g>
<!-- n1&#45;&gt;n2 -->
<g id="edge1" class="edge">
<title>n1&#45;&gt;n2</title>
<path fill="none" stroke="black" d="M1049.5,-365.93C1001.7,-344.43 919.46,-307.48 867.65,-284.19"/>
<polygon fill="black" stroke="black" points="868.9,-280.91 858.34,-280.01 866.03,-287.3 868.9,-280.91"/>
</g>
<!-- n3 -->
<g id="node3" class="node">
<title>n3</title>
<polygon fill="#fffdd0" stroke="black" points="1697.5,-280 1497.5,-280 1497.5,-244 1697.5,-244 1697.5,-280"/>
<text text-anchor="middle" x="1597.5" y="-258.3" font-family="Arial" font-size="14.00">Titles drawing with &#39;Water Fun&#39;</text>
</g>
<!-- n1&#45;&gt;n3 -->
<g id="edge2" class="edge">
<title>n1&#45;&gt;n3</title>
<path fill="none" stroke="black" d="M1159.8,-366C1253.5,-343.93 1416.8,-305.52 1515.2,-282.36"/>
<polygon fill="black" stroke="black" points="1516.17,-285.73 1525.1,-280.03 1514.56,-278.91 1516.17,-285.73"/>
</g>
<!-- n4 -->
<g id="node4" class="node">
<title>n4</title>
<path fill="palegreen" stroke="black" d="M197,-158C197,-158 12,-158 12,-158 6,-158 0,-152 0,-146 0,-146 0,-134 0,-134 0,-128 6,-122 12,-122 12,-122 197,-122 197,-122 203,-122 209,-128 209,-134 209,-134 209,-146 209,-146 209,-152 203,-158 197,-158"/>
<text text-anchor="middle" x="104.5" y="-136.3" font-family="Arial" font-size="14.00">Correctly represents ice as solid</text>
</g>
<!-- n2&#45;&gt;n4 -->
<g id="edge3" class="edge">
<title>n2&#45;&gt;n4</title>
<path fill="none" stroke="black" d="M719.05,-244C586.2,-221.73 354.03,-182.82 216.25,-159.73"/>
<polygon fill="black" stroke="black" points="216.53,-156.23 206.09,-158.03 215.38,-163.13 216.53,-156.23"/>
</g>
<!-- n5 -->
<g id="node5" class="node">
<title>n5</title>
<path fill="palegreen" stroke="black" d="M483.5,-158C483.5,-158 279.5,-158 279.5,-158 273.5,-158 267.5,-152 267.5,-146 267.5,-146 267.5,-134 267.5,-134 267.5,-128 273.5,-122 279.5,-122 279.5,-122 483.5,-122 483.5,-122 489.5,-122 495.5,-128 495.5,-134 495.5,-134 495.5,-146 495.5,-146 495.5,-152 489.5,-158 483.5,-158"/>
<text text-anchor="middle" x="381.5" y="-136.3" font-family="Arial" font-size="14.00">Correctly represents water as liquid</text>
</g>
<!-- n2&#45;&gt;n5 -->
<g id="edge4" class="edge">
<title>n2&#45;&gt;n5</title>
<path fill="none" stroke="black" d="M758.07,-243.93C677.69,-221.96 538.3,-183.86 453.52,-160.69"/>
<polygon fill="black" stroke="black" points="454.29,-157.27 443.72,-158.01 452.44,-164.02 454.29,-157.27"/>
</g>
<!-- n6 -->
<g id="node6" class="node">
<title>n6</title>
<polygon fill="lightcoral" stroke="black" points="820.5,-158 553.89,-140 820.5,-122 1087.11,-140 820.5,-158"/>
<text text-anchor="middle" x="820.5" y="-136.3" font-family="Arial" font-size="14.00">Misdirected or incorrect sequencing of arrows</text>
</g>
<!-- n2&#45;&gt;n6 -->
<g id="edge5" class="edge">
<title>n2&#45;&gt;n6</title>
<path fill="none" stroke="black" d="M820.5,-243.81C820.5,-224.11 820.5,-191.58 820.5,-168.39"/>
<polygon fill="black" stroke="black" points="824,-168.16 820.5,-158.16 817,-168.16 824,-168.16"/>
</g>
<!-- n7 -->
<g id="node7" class="node">
<title>n7</title>
<polygon fill="lightcoral" stroke="black" points="1384.5,-158 1145.5,-140 1384.5,-122 1623.5,-140 1384.5,-158"/>
<text text-anchor="middle" x="1384.5" y="-136.3" font-family="Arial" font-size="14.00">Incorrect/missing labeling of cooling step</text>
</g>
<!-- n2&#45;&gt;n7 -->
<g id="edge6" class="edge">
<title>n2&#45;&gt;n7</title>
<path fill="none" stroke="black" d="M900.41,-244C1011.4,-220.38 1210.4,-178.05 1315.3,-155.72"/>
<polygon fill="black" stroke="black" points="1316.14,-159.12 1325.2,-153.62 1314.69,-152.27 1316.14,-159.12"/>
</g>
<!-- n10 -->
<g id="node8" class="node">
<title>n10</title>
<polygon fill="#f28e8e" stroke="black" points="2001.5,-158 1681.5,-158 1681.5,-122 2001.5,-122 2001.5,-158"/>
<text text-anchor="middle" x="1841.5" y="-136.3" font-family="Arial" font-size="14.00">Explain that the change is reversible with a caption</text>
</g>
<!-- n3&#45;&gt;n10 -->
<g id="edge7" class="edge">
<title>n3&#45;&gt;n10</title>
<path fill="none" stroke="black" d="M1632.2,-243.93C1675.7,-222.52 1750.4,-185.78 1797.8,-162.48"/>
<polygon fill="black" stroke="black" points="1799.47,-165.56 1806.9,-158.01 1796.38,-159.28 1799.47,-165.56"/>
</g>
<!-- n8 -->
<g id="node9" class="node">
<title>n8</title>
<polygon fill="#f28e8e" stroke="black" points="1013.5,-36 627.5,-36 627.5,0 1013.5,0 1013.5,-36"/>
<text text-anchor="middle" x="820.5" y="-14.3" font-family="Arial" font-size="14.00">Clarify arrows to show the process from ice to water and back</text>
</g>
<!-- n6&#45;&gt;n8 -->
<g id="edge8" class="edge">
<title>n6&#45;&gt;n8</title>
<path fill="none" stroke="black" d="M820.5,-121.81C820.5,-102.11 820.5,-69.58 820.5,-46.39"/>
<polygon fill="black" stroke="black" points="824,-46.16 820.5,-36.16 817,-46.16 824,-46.16"/>
</g>
<!-- n9 -->
<g id="node10" class="node">
<title>n9</title>
<polygon fill="#f28e8e" stroke="black" points="1526.5,-36 1242.5,-36 1242.5,0 1526.5,0 1526.5,-36"/>
<text text-anchor="middle" x="1384.5" y="-14.3" font-family="Arial" font-size="14.00">Add labels for cooling step to complete cycle</text>
</g>
<!-- n7&#45;&gt;n9 -->
<g id="edge9" class="edge">
<title>n7&#45;&gt;n9</title>
<path fill="none" stroke="black" d="M1384.5,-121.81C1384.5,-102.11 1384.5,-69.58 1384.5,-46.39"/>
<polygon fill="black" stroke="black" points="1388,-46.16 1384.5,-36.16 1381,-46.16 1388,-46.16"/>
</g>
</g>
</svg>
