<?xml version="1.0" encoding="UTF-8" standalone="no"?>
<!DOCTYPE svg PUBLIC "-//W3C//DTD SVG 1.1//EN"
 "http://www.w3.org/Graphics/SVG/1.1/DTD/svg11.dtd">
<!-- Generated by graphviz version 2.43.0 (0)
 -->
<!-- Pages: 1 -->
<svg width="1725pt" height="288pt"
 viewBox="0.00 0.00 1725.00 288.00" xmlns="http://www.w3.org/2000/svg" xmlns:xlink="http://www.w3.org/1999/xlink">
<g id="graph0" class="graph" transform="scale(1 1) rotate(0) translate(4 284)">
<polygon fill="white" stroke="transparent" points="-4,4 -4,-284 1721,-284 1721,4 -4,4"/>
<!-- n1 -->
<g id="node1" class="node">
<title>n1</title>
<polygon fill="lightblue" stroke="black" points="1406.5,-262 1315.25,-280 1132.75,-280 1041.5,-262 1132.75,-244 1315.25,-244 1406.5,-262"/>
<text text-anchor="middle" x="1224" y="-258.3" font-family="Arial" font-size="14.00">Draw a fish in their habitat with labels.</text>
</g>
<!-- n2 -->
<g id="node2" class="node">
<title>n2</title>
<polygon fill="#fffdd0" stroke="black" points="577.5,-158 502.5,-158 502.5,-122 577.5,-122 577.5,-158"/>
<text text-anchor="middle" x="540" y="-136.3" font-family="Arial" font-size="14.00">Clownfish</text>
</g>
<!-- n1&#45;&gt;n2 -->
<g id="edge1" class="edge">
<title>n1&#45;&gt;n2</title>
<path fill="none" stroke="black" d="M1130,-244.5C981.89,-218.53 699.71,-169.02 587.62,-149.35"/>
<polygon fill="black" stroke="black" points="588.08,-145.88 577.63,-147.6 586.88,-152.77 588.08,-145.88"/>
</g>
<!-- n3 -->
<g id="node3" class="node">
<title>n3</title>
<polygon fill="#fffdd0" stroke="black" points="1083,-158 981,-158 981,-122 1083,-122 1083,-158"/>
<text text-anchor="middle" x="1032" y="-136.3" font-family="Arial" font-size="14.00">Sea Anemone</text>
</g>
<!-- n1&#45;&gt;n3 -->
<g id="edge2" class="edge">
<title>n1&#45;&gt;n3</title>
<path fill="none" stroke="black" d="M1196.5,-243.81C1162.7,-222.69 1105.3,-186.81 1068,-163.51"/>
<polygon fill="black" stroke="black" points="1069.83,-160.52 1059.5,-158.16 1066.1,-166.45 1069.83,-160.52"/>
</g>
<!-- n4 -->
<g id="node4" class="node">
<title>n4</title>
<polygon fill="#fffdd0" stroke="black" points="923,-158 869,-158 869,-122 923,-122 923,-158"/>
<text text-anchor="middle" x="896" y="-136.3" font-family="Arial" font-size="14.00">Water</text>
</g>
<!-- n1&#45;&gt;n4 -->
<g id="edge3" class="edge">
<title>n1&#45;&gt;n4</title>
<path fill="none" stroke="black" d="M1177.4,-243.93C1111.5,-219.85 992.67,-176.37 932.71,-154.43"/>
<polygon fill="black" stroke="black" points="933.86,-151.13 923.27,-150.98 931.46,-157.7 933.86,-151.13"/>
</g>
<!-- n5 -->
<g id="node5" class="node">
<title>n5</title>
<polygon fill="#fffdd0" stroke="black" points="1195,-158 1141,-158 1141,-122 1195,-122 1195,-158"/>
<text text-anchor="middle" x="1168" y="-136.3" font-family="Arial" font-size="14.00">Food</text>
</g>
<!-- n1&#45;&gt;n5 -->
<g id="edge4" class="edge">
<title>n1&#45;&gt;n5</title>
<path fill="none" stroke="black" d="M1216,-243.81C1206.7,-223.85 1191.2,-190.7 1180.3,-167.45"/>
<polygon fill="black" stroke="black" points="1183.38,-165.76 1176,-158.16 1177.02,-168.71 1183.38,-165.76"/>
</g>
<!-- n6 -->
<g id="node6" class="node">
<title>n6</title>
<polygon fill="#fffdd0" stroke="black" points="1307,-158 1253,-158 1253,-122 1307,-122 1307,-158"/>
<text text-anchor="middle" x="1280" y="-136.3" font-family="Arial" font-size="14.00">Algae</text>
</g>
<!-- n1&#45;&gt;n6 -->
<g id="edge5" class="edge">
<title>n1&#45;&gt;n6</title>
<path fill="none" stroke="black" d="M1232,-243.81C1241.3,-223.85 1256.8,-190.7 1267.7,-167.45"/>
<polygon fill="black" stroke="black" points="1270.98,-168.71 1272,-158.16 1264.62,-165.76 1270.98,-168.71"/>
</g>
<!-- n7 -->
<g id="node7" class="node">
<title>n7</title>
<polygon fill="#fffdd0" stroke="black" points="1419,-158 1365,-158 1365,-122 1419,-122 1419,-158"/>
<text text-anchor="middle" x="1392" y="-136.3" font-family="Arial" font-size="14.00">Crab</text>
</g>
<!-- n1&#45;&gt;n7 -->
<g id="edge6" class="edge">
<title>n1&#45;&gt;n7</title>
<path fill="none" stroke="black" d="M1248.1,-243.81C1277.4,-222.87 1327,-187.41 1359.7,-164.1"/>
<polygon fill="black" stroke="black" points="1361.9,-166.83 1368,-158.16 1357.83,-161.13 1361.9,-166.83"/>
</g>
<!-- n8 -->
<g id="node8" class="node">
<title>n8</title>
<polygon fill="#fffdd0" stroke="black" points="1539,-158 1477,-158 1477,-122 1539,-122 1539,-158"/>
<text text-anchor="middle" x="1508" y="-136.3" font-family="Arial" font-size="14.00">Starfish</text>
</g>
<!-- n1&#45;&gt;n8 -->
<g id="edge7" class="edge">
<title>n1&#45;&gt;n8</title>
<path fill="none" stroke="black" d="M1264.4,-243.93C1318.4,-221.1 1413.7,-180.86 1467.7,-158.04"/>
<polygon fill="black" stroke="black" points="1469.07,-161.26 1476.9,-154.13 1466.33,-154.82 1469.07,-161.26"/>
</g>
<!-- n9 -->
<g id="node9" class="node">
<title>n9</title>
<polygon fill="#fffdd0" stroke="black" points="1677,-158 1597,-158 1597,-122 1677,-122 1677,-158"/>
<text text-anchor="middle" x="1637" y="-136.3" font-family="Arial" font-size="14.00">Swimming</text>
</g>
<!-- n1&#45;&gt;n9 -->
<g id="edge8" class="edge">
<title>n1&#45;&gt;n9</title>
<path fill="none" stroke="black" d="M1282.7,-243.93C1364.3,-220.25 1510.3,-177.81 1586.9,-155.55"/>
<polygon fill="black" stroke="black" points="1588.18,-158.82 1596.8,-152.67 1586.22,-152.1 1588.18,-158.82"/>
</g>
<!-- n10 -->
<g id="node10" class="node">
<title>n10</title>
<path fill="palegreen" stroke="black" d="M132,-36C132,-36 12,-36 12,-36 6,-36 0,-30 0,-24 0,-24 0,-12 0,-12 0,-6 6,0 12,0 12,0 132,0 132,0 138,0 144,-6 144,-12 144,-12 144,-24 144,-24 144,-30 138,-36 132,-36"/>
<text text-anchor="middle" x="72" y="-14.3" font-family="Arial" font-size="14.00">Fish labeled correctly</text>
</g>
<!-- n2&#45;&gt;n10 -->
<g id="edge9" class="edge">
<title>n2&#45;&gt;n10</title>
<path fill="none" stroke="black" d="M502.49,-129.38C425.87,-109.74 250.07,-64.66 148.41,-38.59"/>
<polygon fill="black" stroke="black" points="149.06,-35.14 138.5,-36.05 147.32,-41.92 149.06,-35.14"/>
</g>
<!-- n13 -->
<g id="node11" class="node">
<title>n13</title>
<polygon fill="lightcoral" stroke="black" points="989,-36 743.5,-18 989,0 1234.5,-18 989,-36"/>
<text text-anchor="middle" x="989" y="-14.3" font-family="Arial" font-size="14.00">Identifies environment but not interactions</text>
</g>
<!-- n2&#45;&gt;n13 -->
<g id="edge10" class="edge">
<title>n2&#45;&gt;n13</title>
<path fill="none" stroke="black" d="M577.51,-128.98C655.29,-108.19 834.74,-60.23 928.87,-35.07"/>
<polygon fill="black" stroke="black" points="930.06,-38.37 938.82,-32.41 928.26,-31.61 930.06,-38.37"/>
</g>
<!-- n14 -->
<g id="node12" class="node">
<title>n14</title>
<polygon fill="#f28e8e" stroke="black" points="411.5,-36 202.5,-36 202.5,0 411.5,0 411.5,-36"/>
<text text-anchor="middle" x="307" y="-14.3" font-family="Arial" font-size="14.00">Explain sea anemone as shelter</text>
</g>
<!-- n2&#45;&gt;n14 -->
<g id="edge11" class="edge">
<title>n2&#45;&gt;n14</title>
<path fill="none" stroke="black" d="M506.62,-121.81C465.18,-100.47 394.47,-64.05 349.28,-40.77"/>
<polygon fill="black" stroke="black" points="350.81,-37.63 340.32,-36.16 347.61,-43.85 350.81,-37.63"/>
</g>
<!-- n3&#45;&gt;n13 -->
<g id="edge12" class="edge">
<title>n3&#45;&gt;n13</title>
<path fill="none" stroke="black" d="M1025.8,-121.81C1018.7,-101.82 1006.8,-68.62 998.45,-45.37"/>
<polygon fill="black" stroke="black" points="1001.68,-44.01 995.01,-35.77 995.09,-46.37 1001.68,-44.01"/>
</g>
<!-- n11 -->
<g id="node13" class="node">
<title>n11</title>
<path fill="palegreen" stroke="black" d="M1479.5,-36C1479.5,-36 1304.5,-36 1304.5,-36 1298.5,-36 1292.5,-30 1292.5,-24 1292.5,-24 1292.5,-12 1292.5,-12 1292.5,-6 1298.5,0 1304.5,0 1304.5,0 1479.5,0 1479.5,0 1485.5,0 1491.5,-6 1491.5,-12 1491.5,-12 1491.5,-24 1491.5,-24 1491.5,-30 1485.5,-36 1479.5,-36"/>
<text text-anchor="middle" x="1392" y="-14.3" font-family="Arial" font-size="14.00">Includes cohabiting organisms</text>
</g>
<!-- n3&#45;&gt;n11 -->
<g id="edge13" class="edge">
<title>n3&#45;&gt;n11</title>
<path fill="none" stroke="black" d="M1083.2,-121.93C1148.6,-100.12 1261.8,-62.4 1331.4,-39.18"/>
<polygon fill="black" stroke="black" points="1332.61,-42.47 1341,-36.01 1330.41,-35.83 1332.61,-42.47"/>
</g>
<!-- n4&#45;&gt;n13 -->
<g id="edge14" class="edge">
<title>n4&#45;&gt;n13</title>
<path fill="none" stroke="black" d="M909.32,-121.81C925.25,-101.26 952.01,-66.73 970.07,-43.42"/>
<polygon fill="black" stroke="black" points="972.94,-45.44 976.3,-35.39 967.41,-41.15 972.94,-45.44"/>
</g>
<!-- n4&#45;&gt;n11 -->
<g id="edge15" class="edge">
<title>n4&#45;&gt;n11</title>
<path fill="none" stroke="black" d="M923.24,-130.34C932.35,-127.55 942.58,-124.53 952,-122 1072.5,-89.64 1213.1,-57.74 1302.3,-38.21"/>
<polygon fill="black" stroke="black" points="1303.08,-41.62 1312.1,-36.07 1301.58,-34.78 1303.08,-41.62"/>
</g>
<!-- n15 -->
<g id="node14" class="node">
<title>n15</title>
<polygon fill="#f28e8e" stroke="black" points="686,-36 470,-36 470,0 686,0 686,-36"/>
<text text-anchor="middle" x="578" y="-14.3" font-family="Arial" font-size="14.00">Show oxygen&#45;related interactions</text>
</g>
<!-- n4&#45;&gt;n15 -->
<g id="edge16" class="edge">
<title>n4&#45;&gt;n15</title>
<path fill="none" stroke="black" d="M868.89,-128.77C816.67,-109.06 701.25,-65.51 632.54,-39.58"/>
<polygon fill="black" stroke="black" points="633.75,-36.3 623.16,-36.04 631.28,-42.85 633.75,-36.3"/>
</g>
<!-- n5&#45;&gt;n13 -->
<g id="edge17" class="edge">
<title>n5&#45;&gt;n13</title>
<path fill="none" stroke="black" d="M1142.4,-121.81C1110.2,-100.24 1055,-63.27 1020.4,-40.04"/>
<polygon fill="black" stroke="black" points="1022.26,-37.08 1012,-34.45 1018.38,-42.9 1022.26,-37.08"/>
</g>
<!-- n5&#45;&gt;n11 -->
<g id="edge18" class="edge">
<title>n5&#45;&gt;n11</title>
<path fill="none" stroke="black" d="M1195,-124.53C1233.9,-103.71 1305.9,-65.14 1351.2,-40.85"/>
<polygon fill="black" stroke="black" points="1353.03,-43.84 1360.2,-36.04 1349.73,-37.66 1353.03,-43.84"/>
</g>
<!-- n6&#45;&gt;n11 -->
<g id="edge19" class="edge">
<title>n6&#45;&gt;n11</title>
<path fill="none" stroke="black" d="M1296,-121.81C1315.2,-101.31 1347.3,-66.91 1369,-43.6"/>
<polygon fill="black" stroke="black" points="1371.7,-45.84 1376,-36.16 1366.6,-41.05 1371.7,-45.84"/>
</g>
<!-- n7&#45;&gt;n11 -->
<g id="edge20" class="edge">
<title>n7&#45;&gt;n11</title>
<path fill="none" stroke="black" d="M1392,-121.81C1392,-102.11 1392,-69.58 1392,-46.39"/>
<polygon fill="black" stroke="black" points="1395.5,-46.16 1392,-36.16 1388.5,-46.16 1395.5,-46.16"/>
</g>
<!-- n8&#45;&gt;n11 -->
<g id="edge21" class="edge">
<title>n8&#45;&gt;n11</title>
<path fill="none" stroke="black" d="M1491.4,-121.81C1471.6,-101.31 1438.3,-66.91 1415.8,-43.6"/>
<polygon fill="black" stroke="black" points="1418.07,-40.91 1408.6,-36.16 1413.04,-45.78 1418.07,-40.91"/>
</g>
<!-- n12 -->
<g id="node15" class="node">
<title>n12</title>
<path fill="palegreen" stroke="black" d="M1705,-36C1705,-36 1569,-36 1569,-36 1563,-36 1557,-30 1557,-24 1557,-24 1557,-12 1557,-12 1557,-6 1563,0 1569,0 1569,0 1705,0 1705,0 1711,0 1717,-6 1717,-12 1717,-12 1717,-24 1717,-24 1717,-30 1711,-36 1705,-36"/>
<text text-anchor="middle" x="1637" y="-14.3" font-family="Arial" font-size="14.00">Shows fish&#39;s movement</text>
</g>
<!-- n9&#45;&gt;n12 -->
<g id="edge22" class="edge">
<title>n9&#45;&gt;n12</title>
<path fill="none" stroke="black" d="M1637,-121.81C1637,-102.11 1637,-69.58 1637,-46.39"/>
<polygon fill="black" stroke="black" points="1640.5,-46.16 1637,-36.16 1633.5,-46.16 1640.5,-46.16"/>
</g>
</g>
</svg>
