<?xml version="1.0" encoding="UTF-8" standalone="no"?>
<!DOCTYPE svg PUBLIC "-//W3C//DTD SVG 1.1//EN"
 "http://www.w3.org/Graphics/SVG/1.1/DTD/svg11.dtd">
<!-- Generated by graphviz version 2.43.0 (0)
 -->
<!-- Pages: 1 -->
<svg width="1304pt" height="532pt"
 viewBox="0.00 0.00 1304.00 532.00" xmlns="http://www.w3.org/2000/svg" xmlns:xlink="http://www.w3.org/1999/xlink">
<g id="graph0" class="graph" transform="scale(1 1) rotate(0) translate(4 528)">
<polygon fill="white" stroke="transparent" points="-4,4 -4,-528 1300,-528 1300,4 -4,4"/>
<!-- n1 -->
<g id="node1" class="node">
<title>n1</title>
<polygon fill="lightblue" stroke="black" points="904.5,-506 774.25,-524 513.75,-524 383.5,-506 513.75,-488 774.25,-488 904.5,-506"/>
<text text-anchor="middle" x="644" y="-502.3" font-family="Arial" font-size="14.00">Draw two habitats and the different living things in each</text>
</g>
<!-- n2 -->
<g id="node2" class="node">
<title>n2</title>
<polygon fill="#fffdd0" stroke="black" points="651.5,-402 246.5,-402 246.5,-366 651.5,-366 651.5,-402"/>
<text text-anchor="middle" x="449" y="-380.3" font-family="Arial" font-size="14.00">Land habitat: Deciduous tree, bushes, grass, squirrel, lizard, ants</text>
</g>
<!-- n1&#45;&gt;n2 -->
<g id="edge1" class="edge">
<title>n1&#45;&gt;n2</title>
<path fill="none" stroke="black" d="M616.06,-487.81C581.74,-466.69 523.43,-430.81 485.57,-407.51"/>
<polygon fill="black" stroke="black" points="487.24,-404.43 476.89,-402.16 483.57,-410.39 487.24,-404.43"/>
</g>
<!-- n3 -->
<g id="node3" class="node">
<title>n3</title>
<polygon fill="#fffdd0" stroke="black" points="968,-402 710,-402 710,-366 968,-366 968,-402"/>
<text text-anchor="middle" x="839" y="-380.3" font-family="Arial" font-size="14.00">Water habitat: Lake, cattails, algae, trout</text>
</g>
<!-- n1&#45;&gt;n3 -->
<g id="edge2" class="edge">
<title>n1&#45;&gt;n3</title>
<path fill="none" stroke="black" d="M671.94,-487.81C706.26,-466.69 764.57,-430.81 802.43,-407.51"/>
<polygon fill="black" stroke="black" points="804.43,-410.39 811.11,-402.16 800.76,-404.43 804.43,-410.39"/>
</g>
<!-- n4 -->
<g id="node4" class="node">
<title>n4</title>
<path fill="palegreen" stroke="black" d="M368,-280C368,-280 12,-280 12,-280 6,-280 0,-274 0,-268 0,-268 0,-256 0,-256 0,-250 6,-244 12,-244 12,-244 368,-244 368,-244 374,-244 380,-250 380,-256 380,-256 380,-268 380,-268 380,-274 374,-280 368,-280"/>
<text text-anchor="middle" x="190" y="-258.3" font-family="Arial" font-size="14.00">Correctly identifies and draws a land habitat with living things</text>
</g>
<!-- n2&#45;&gt;n4 -->
<g id="edge3" class="edge">
<title>n2&#45;&gt;n4</title>
<path fill="none" stroke="black" d="M412.17,-365.93C365.85,-344.48 286.33,-307.63 236.05,-284.33"/>
<polygon fill="black" stroke="black" points="237.26,-281.03 226.71,-280.01 234.32,-287.38 237.26,-281.03"/>
</g>
<!-- n6 -->
<g id="node5" class="node">
<title>n6</title>
<path fill="palegreen" stroke="black" d="M838,-280C838,-280 450,-280 450,-280 444,-280 438,-274 438,-268 438,-268 438,-256 438,-256 438,-250 444,-244 450,-244 450,-244 838,-244 838,-244 844,-244 850,-250 850,-256 850,-256 850,-268 850,-268 850,-274 844,-280 838,-280"/>
<text text-anchor="middle" x="644" y="-258.3" font-family="Arial" font-size="14.00">Illustrates similarities and differences in plant life between habitats</text>
</g>
<!-- n2&#45;&gt;n6 -->
<g id="edge4" class="edge">
<title>n2&#45;&gt;n6</title>
<path fill="none" stroke="black" d="M476.94,-365.81C511.26,-344.69 569.57,-308.81 607.43,-285.51"/>
<polygon fill="black" stroke="black" points="609.43,-288.39 616.11,-280.16 605.76,-282.43 609.43,-288.39"/>
</g>
<!-- n3&#45;&gt;n6 -->
<g id="edge5" class="edge">
<title>n3&#45;&gt;n6</title>
<path fill="none" stroke="black" d="M811.06,-365.81C776.74,-344.69 718.43,-308.81 680.57,-285.51"/>
<polygon fill="black" stroke="black" points="682.24,-282.43 671.89,-280.16 678.57,-288.39 682.24,-282.43"/>
</g>
<!-- n5 -->
<g id="node6" class="node">
<title>n5</title>
<path fill="palegreen" stroke="black" d="M1284,-280C1284,-280 920,-280 920,-280 914,-280 908,-274 908,-268 908,-268 908,-256 908,-256 908,-250 914,-244 920,-244 920,-244 1284,-244 1284,-244 1290,-244 1296,-250 1296,-256 1296,-256 1296,-268 1296,-268 1296,-274 1290,-280 1284,-280"/>
<text text-anchor="middle" x="1102" y="-258.3" font-family="Arial" font-size="14.00">Correctly identifies and draws a water habitat with living things</text>
</g>
<!-- n3&#45;&gt;n5 -->
<g id="edge6" class="edge">
<title>n3&#45;&gt;n5</title>
<path fill="none" stroke="black" d="M876.4,-365.93C923.53,-344.43 1004.5,-307.48 1055.6,-284.19"/>
<polygon fill="black" stroke="black" points="1057.07,-287.36 1064.7,-280.01 1054.15,-281 1057.07,-287.36"/>
</g>
<!-- n7 -->
<g id="node7" class="node">
<title>n7</title>
<polygon fill="lightcoral" stroke="black" points="644,-158 325.94,-140 644,-122 962.06,-140 644,-158"/>
<text text-anchor="middle" x="644" y="-136.3" font-family="Arial" font-size="14.00">May need further labeling of species and size accuracy</text>
</g>
<!-- n6&#45;&gt;n7 -->
<g id="edge7" class="edge">
<title>n6&#45;&gt;n7</title>
<path fill="none" stroke="black" d="M644,-243.81C644,-224.11 644,-191.58 644,-168.39"/>
<polygon fill="black" stroke="black" points="647.5,-168.16 644,-158.16 640.5,-168.16 647.5,-168.16"/>
</g>
<!-- n8 -->
<g id="node8" class="node">
<title>n8</title>
<polygon fill="#f28e8e" stroke="black" points="868,-36 420,-36 420,0 868,0 868,-36"/>
<text text-anchor="middle" x="644" y="-14.3" font-family="Arial" font-size="14.00">Consider more detailed species labels and accurate sizes for organisms</text>
</g>
<!-- n7&#45;&gt;n8 -->
<g id="edge8" class="edge">
<title>n7&#45;&gt;n8</title>
<path fill="none" stroke="black" d="M644,-121.81C644,-102.11 644,-69.58 644,-46.39"/>
<polygon fill="black" stroke="black" points="647.5,-46.16 644,-36.16 640.5,-46.16 647.5,-46.16"/>
</g>
</g>
</svg>
