<?xml version="1.0" encoding="UTF-8" standalone="no"?>
<!DOCTYPE svg PUBLIC "-//W3C//DTD SVG 1.1//EN"
 "http://www.w3.org/Graphics/SVG/1.1/DTD/svg11.dtd">
<!-- Generated by graphviz version 2.43.0 (0)
 -->
<!-- Pages: 1 -->
<svg width="1152pt" height="410pt"
 viewBox="0.00 0.00 1152.00 410.00" xmlns="http://www.w3.org/2000/svg" xmlns:xlink="http://www.w3.org/1999/xlink">
<g id="graph0" class="graph" transform="scale(1 1) rotate(0) translate(4 406)">
<polygon fill="white" stroke="transparent" points="-4,4 -4,-406 1148,-406 1148,4 -4,4"/>
<!-- n1 -->
<g id="node1" class="node">
<title>n1</title>
<polygon fill="lightblue" stroke="black" points="619.5,-384 528.25,-402 345.75,-402 254.5,-384 345.75,-366 528.25,-366 619.5,-384"/>
<text text-anchor="middle" x="437" y="-380.3" font-family="Arial" font-size="14.00">Draw a fish in their habitat with labels.</text>
</g>
<!-- n2 -->
<g id="node2" class="node">
<title>n2</title>
<polygon fill="#fffdd0" stroke="black" points="395,-280 219,-280 219,-244 395,-244 395,-280"/>
<text text-anchor="middle" x="307" y="-258.3" font-family="Arial" font-size="14.00">Trout in blue body of water</text>
</g>
<!-- n1&#45;&gt;n2 -->
<g id="edge1" class="edge">
<title>n1&#45;&gt;n2</title>
<path fill="none" stroke="black" d="M418.37,-365.81C395.98,-345.13 358.26,-310.31 333,-287"/>
<polygon fill="black" stroke="black" points="335.31,-284.37 325.59,-280.16 330.56,-289.51 335.31,-284.37"/>
</g>
<!-- n3 -->
<g id="node3" class="node">
<title>n3</title>
<polygon fill="#fffdd0" stroke="black" points="158.5,-280 63.5,-280 63.5,-244 158.5,-244 158.5,-280"/>
<text text-anchor="middle" x="111" y="-258.3" font-family="Arial" font-size="14.00">Green plants</text>
</g>
<!-- n1&#45;&gt;n3 -->
<g id="edge2" class="edge">
<title>n1&#45;&gt;n3</title>
<path fill="none" stroke="black" d="M390.64,-365.93C331.62,-344.21 229.74,-306.71 166.61,-283.47"/>
<polygon fill="black" stroke="black" points="167.79,-280.18 157.2,-280.01 165.38,-286.75 167.79,-280.18"/>
</g>
<!-- n4 -->
<g id="node4" class="node">
<title>n4</title>
<polygon fill="#fffdd0" stroke="black" points="1043.5,-280 906.5,-280 906.5,-244 1043.5,-244 1043.5,-280"/>
<text text-anchor="middle" x="975" y="-258.3" font-family="Arial" font-size="14.00">Small fish or insects</text>
</g>
<!-- n1&#45;&gt;n4 -->
<g id="edge3" class="edge">
<title>n1&#45;&gt;n4</title>
<path fill="none" stroke="black" d="M513.23,-366C614.78,-343.35 793.56,-303.47 896.33,-280.55"/>
<polygon fill="black" stroke="black" points="897.35,-283.91 906.34,-278.31 895.82,-277.08 897.35,-283.91"/>
</g>
<!-- n5 -->
<g id="node5" class="node">
<title>n5</title>
<polygon fill="#fffdd0" stroke="black" points="738.5,-280 511.5,-280 511.5,-244 738.5,-244 738.5,-280"/>
<text text-anchor="middle" x="625" y="-258.3" font-family="Arial" font-size="14.00">Labels: &#39;fish&#39;, &#39;water&#39;, &#39;plants&#39;, &#39;food&#39;</text>
</g>
<!-- n1&#45;&gt;n5 -->
<g id="edge4" class="edge">
<title>n1&#45;&gt;n5</title>
<path fill="none" stroke="black" d="M463.94,-365.81C496.88,-344.78 552.76,-309.11 589.27,-285.8"/>
<polygon fill="black" stroke="black" points="591.56,-288.49 598.11,-280.16 587.8,-282.59 591.56,-288.49"/>
</g>
<!-- n6 -->
<g id="node6" class="node">
<title>n6</title>
<path fill="palegreen" stroke="black" d="M328,-158C328,-158 228,-158 228,-158 222,-158 216,-152 216,-146 216,-146 216,-134 216,-134 216,-128 222,-122 228,-122 228,-122 328,-122 328,-122 334,-122 340,-128 340,-134 340,-134 340,-146 340,-146 340,-152 334,-158 328,-158"/>
<text text-anchor="middle" x="278" y="-136.3" font-family="Arial" font-size="14.00">Fish lives in water</text>
</g>
<!-- n2&#45;&gt;n6 -->
<g id="edge5" class="edge">
<title>n2&#45;&gt;n6</title>
<path fill="none" stroke="black" d="M302.85,-243.81C298.06,-224.02 290.15,-191.29 284.54,-168.08"/>
<polygon fill="black" stroke="black" points="287.89,-167.06 282.15,-158.16 281.09,-168.7 287.89,-167.06"/>
</g>
<!-- n7 -->
<g id="node7" class="node">
<title>n7</title>
<path fill="palegreen" stroke="black" d="M146,-158C146,-158 12,-158 12,-158 6,-158 0,-152 0,-146 0,-146 0,-134 0,-134 0,-128 6,-122 12,-122 12,-122 146,-122 146,-122 152,-122 158,-128 158,-134 158,-134 158,-146 158,-146 158,-152 152,-158 146,-158"/>
<text text-anchor="middle" x="79" y="-136.3" font-family="Arial" font-size="14.00">Plants as part of habitat</text>
</g>
<!-- n3&#45;&gt;n7 -->
<g id="edge6" class="edge">
<title>n3&#45;&gt;n7</title>
<path fill="none" stroke="black" d="M106.42,-243.81C101.14,-224.02 92.41,-191.29 86.22,-168.08"/>
<polygon fill="black" stroke="black" points="89.53,-166.92 83.58,-158.16 82.77,-168.72 89.53,-166.92"/>
</g>
<!-- n8 -->
<g id="node8" class="node">
<title>n8</title>
<path fill="palegreen" stroke="black" d="M1132,-158C1132,-158 980,-158 980,-158 974,-158 968,-152 968,-146 968,-146 968,-134 968,-134 968,-128 974,-122 980,-122 980,-122 1132,-122 1132,-122 1138,-122 1144,-128 1144,-134 1144,-134 1144,-146 1144,-146 1144,-152 1138,-158 1132,-158"/>
<text text-anchor="middle" x="1056" y="-136.3" font-family="Arial" font-size="14.00">Fish needs food and water</text>
</g>
<!-- n4&#45;&gt;n8 -->
<g id="edge7" class="edge">
<title>n4&#45;&gt;n8</title>
<path fill="none" stroke="black" d="M986.61,-243.81C1000.3,-223.58 1023.1,-189.81 1038.8,-166.52"/>
<polygon fill="black" stroke="black" points="1041.74,-168.42 1044.4,-158.16 1035.93,-164.52 1041.74,-168.42"/>
</g>
<!-- n5&#45;&gt;n6 -->
<g id="edge8" class="edge">
<title>n5&#45;&gt;n6</title>
<path fill="none" stroke="black" d="M575.65,-243.93C512.7,-222.16 403.95,-184.56 336.78,-161.33"/>
<polygon fill="black" stroke="black" points="337.77,-157.97 327.18,-158.01 335.49,-164.59 337.77,-157.97"/>
</g>
<!-- n5&#45;&gt;n8 -->
<g id="edge9" class="edge">
<title>n5&#45;&gt;n8</title>
<path fill="none" stroke="black" d="M686.29,-243.93C765.13,-221.99 901.78,-183.94 985.04,-160.76"/>
<polygon fill="black" stroke="black" points="986.22,-164.06 994.92,-158.01 984.35,-157.32 986.22,-164.06"/>
</g>
<!-- n9 -->
<g id="node9" class="node">
<title>n9</title>
<polygon fill="lightcoral" stroke="black" points="654,-158 398.45,-140 654,-122 909.55,-140 654,-158"/>
<text text-anchor="middle" x="654" y="-136.3" font-family="Arial" font-size="14.00">Incomplete: Specific water body not labeled</text>
</g>
<!-- n5&#45;&gt;n9 -->
<g id="edge10" class="edge">
<title>n5&#45;&gt;n9</title>
<path fill="none" stroke="black" d="M629.15,-243.81C633.96,-223.91 641.94,-190.92 647.55,-167.68"/>
<polygon fill="black" stroke="black" points="651,-168.31 649.95,-157.77 644.19,-166.67 651,-168.31"/>
</g>
<!-- n10 -->
<g id="node10" class="node">
<title>n10</title>
<polygon fill="#f28e8e" stroke="black" points="735.5,-36 572.5,-36 572.5,0 735.5,0 735.5,-36"/>
<text text-anchor="middle" x="654" y="-14.3" font-family="Arial" font-size="14.00">Add label: &#39;river&#39; or &#39;lake&#39;</text>
</g>
<!-- n9&#45;&gt;n10 -->
<g id="edge11" class="edge">
<title>n9&#45;&gt;n10</title>
<path fill="none" stroke="black" d="M654,-121.81C654,-102.11 654,-69.58 654,-46.39"/>
<polygon fill="black" stroke="black" points="657.5,-46.16 654,-36.16 650.5,-46.16 657.5,-46.16"/>
</g>
</g>
</svg>
