<?xml version="1.0" encoding="UTF-8" standalone="no"?>
<!DOCTYPE svg PUBLIC "-//W3C//DTD SVG 1.1//EN"
 "http://www.w3.org/Graphics/SVG/1.1/DTD/svg11.dtd">
<!-- Generated by graphviz version 2.43.0 (0)
 -->
<!-- Pages: 1 -->
<svg width="2024pt" height="410pt"
 viewBox="0.00 0.00 2023.50 410.00" xmlns="http://www.w3.org/2000/svg" xmlns:xlink="http://www.w3.org/1999/xlink">
<g id="graph0" class="graph" transform="scale(1 1) rotate(0) translate(4 406)">
<polygon fill="white" stroke="transparent" points="-4,4 -4,-406 2019.5,-406 2019.5,4 -4,4"/>
<!-- n1 -->
<g id="node1" class="node">
<title>n1</title>
<polygon fill="lightblue" stroke="black" points="1061,-384 969.75,-402 787.25,-402 696,-384 787.25,-366 969.75,-366 1061,-384"/>
<text text-anchor="middle" x="878.5" y="-380.3" font-family="Arial" font-size="14.00">Draw a fish in their habitat with labels.</text>
</g>
<!-- n2 -->
<g id="node2" class="node">
<title>n2</title>
<polygon fill="#fffdd0" stroke="black" points="355,-280 86,-280 86,-244 355,-244 355,-280"/>
<text text-anchor="middle" x="220.5" y="-258.3" font-family="Arial" font-size="14.00">Fish drawn as simple oval with triangle tail</text>
</g>
<!-- n1&#45;&gt;n2 -->
<g id="edge1" class="edge">
<title>n1&#45;&gt;n2</title>
<path fill="none" stroke="black" d="M786.32,-366.19C664.67,-344 451.13,-305.06 324.05,-281.88"/>
<polygon fill="black" stroke="black" points="324.38,-278.38 313.92,-280.04 323.13,-285.27 324.38,-278.38"/>
</g>
<!-- n3 -->
<g id="node3" class="node">
<title>n3</title>
<polygon fill="#fffdd0" stroke="black" points="633.5,-280 437.5,-280 437.5,-244 633.5,-244 633.5,-280"/>
<text text-anchor="middle" x="535.5" y="-258.3" font-family="Arial" font-size="14.00">Background is solid blue color</text>
</g>
<!-- n1&#45;&gt;n3 -->
<g id="edge2" class="edge">
<title>n1&#45;&gt;n3</title>
<path fill="none" stroke="black" d="M829.72,-365.93C767.49,-344.16 660,-306.56 593.6,-283.33"/>
<polygon fill="black" stroke="black" points="594.7,-280.01 584.11,-280.01 592.39,-286.62 594.7,-280.01"/>
</g>
<!-- n4 -->
<g id="node4" class="node">
<title>n4</title>
<polygon fill="#fffdd0" stroke="black" points="969.5,-280 787.5,-280 787.5,-244 969.5,-244 969.5,-280"/>
<text text-anchor="middle" x="878.5" y="-258.3" font-family="Arial" font-size="14.00">Label &#39;skies&#39; points to water</text>
</g>
<!-- n1&#45;&gt;n4 -->
<g id="edge3" class="edge">
<title>n1&#45;&gt;n4</title>
<path fill="none" stroke="black" d="M878.5,-365.81C878.5,-346.11 878.5,-313.58 878.5,-290.39"/>
<polygon fill="black" stroke="black" points="882,-290.16 878.5,-280.16 875,-290.16 882,-290.16"/>
</g>
<!-- n5 -->
<g id="node5" class="node">
<title>n5</title>
<polygon fill="#fffdd0" stroke="black" points="1318,-280 1117,-280 1117,-244 1318,-244 1318,-280"/>
<text text-anchor="middle" x="1217.5" y="-258.3" font-family="Arial" font-size="14.00">Water depicted with wavy lines</text>
</g>
<!-- n1&#45;&gt;n5 -->
<g id="edge4" class="edge">
<title>n1&#45;&gt;n5</title>
<path fill="none" stroke="black" d="M926.71,-365.93C988.09,-344.21 1094,-306.71 1159.7,-283.47"/>
<polygon fill="black" stroke="black" points="1161.24,-286.64 1169.5,-280.01 1158.91,-280.04 1161.24,-286.64"/>
</g>
<!-- n6 -->
<g id="node6" class="node">
<title>n6</title>
<polygon fill="#fffdd0" stroke="black" points="1735.5,-280 1523.5,-280 1523.5,-244 1735.5,-244 1735.5,-280"/>
<text text-anchor="middle" x="1629.5" y="-258.3" font-family="Arial" font-size="14.00">No other habitat elements drawn</text>
</g>
<!-- n1&#45;&gt;n6 -->
<g id="edge5" class="edge">
<title>n1&#45;&gt;n6</title>
<path fill="none" stroke="black" d="M976.68,-367.31C1114.8,-345.23 1366.2,-305.07 1513.4,-281.54"/>
<polygon fill="black" stroke="black" points="1514.07,-284.98 1523.4,-279.95 1512.97,-278.06 1514.07,-284.98"/>
</g>
<!-- n7 -->
<g id="node7" class="node">
<title>n7</title>
<path fill="palegreen" stroke="black" d="M189,-158C189,-158 12,-158 12,-158 6,-158 0,-152 0,-146 0,-146 0,-134 0,-134 0,-128 6,-122 12,-122 12,-122 189,-122 189,-122 195,-122 201,-128 201,-134 201,-134 201,-146 201,-146 201,-152 195,-158 189,-158"/>
<text text-anchor="middle" x="100.5" y="-136.3" font-family="Arial" font-size="14.00">Can draw basic shape of a fish</text>
</g>
<!-- n2&#45;&gt;n7 -->
<g id="edge6" class="edge">
<title>n2&#45;&gt;n7</title>
<path fill="none" stroke="black" d="M203.31,-243.81C182.72,-223.22 148.11,-188.61 124.8,-165.3"/>
<polygon fill="black" stroke="black" points="127.21,-162.76 117.66,-158.16 122.26,-167.71 127.21,-162.76"/>
</g>
<!-- n8 -->
<g id="node8" class="node">
<title>n8</title>
<polygon fill="lightcoral" stroke="black" points="440.5,-158 258.5,-140 440.5,-122 622.5,-140 440.5,-158"/>
<text text-anchor="middle" x="440.5" y="-136.3" font-family="Arial" font-size="14.00">Blue meant to represent water</text>
</g>
<!-- n3&#45;&gt;n8 -->
<g id="edge7" class="edge">
<title>n3&#45;&gt;n8</title>
<path fill="none" stroke="black" d="M521.89,-243.81C505.53,-223.14 477.98,-188.35 459.53,-165.03"/>
<polygon fill="black" stroke="black" points="462.13,-162.68 453.18,-157.01 456.64,-167.02 462.13,-162.68"/>
</g>
<!-- n9 -->
<g id="node9" class="node">
<title>n9</title>
<polygon fill="lightcoral" stroke="black" points="878.5,-158 680.76,-140 878.5,-122 1076.24,-140 878.5,-158"/>
<text text-anchor="middle" x="878.5" y="-136.3" font-family="Arial" font-size="14.00">Misunderstanding of habitat label</text>
</g>
<!-- n4&#45;&gt;n9 -->
<g id="edge8" class="edge">
<title>n4&#45;&gt;n9</title>
<path fill="none" stroke="black" d="M878.5,-243.81C878.5,-224.11 878.5,-191.58 878.5,-168.39"/>
<polygon fill="black" stroke="black" points="882,-168.16 878.5,-158.16 875,-168.16 882,-168.16"/>
</g>
<!-- n10 -->
<g id="node10" class="node">
<title>n10</title>
<polygon fill="lightcoral" stroke="black" points="1306.5,-158 1133.5,-140 1306.5,-122 1479.5,-140 1306.5,-158"/>
<text text-anchor="middle" x="1306.5" y="-136.3" font-family="Arial" font-size="14.00">Attempted depiction of water</text>
</g>
<!-- n5&#45;&gt;n10 -->
<g id="edge9" class="edge">
<title>n5&#45;&gt;n10</title>
<path fill="none" stroke="black" d="M1230.3,-243.81C1245.5,-223.23 1271.2,-188.65 1288.4,-165.34"/>
<polygon fill="black" stroke="black" points="1291.44,-167.12 1294.6,-157.01 1285.82,-162.94 1291.44,-167.12"/>
</g>
<!-- n11 -->
<g id="node11" class="node">
<title>n11</title>
<polygon fill="lightcoral" stroke="black" points="1776.5,-158 1537.5,-140 1776.5,-122 2015.5,-140 1776.5,-158"/>
<text text-anchor="middle" x="1776.5" y="-136.3" font-family="Arial" font-size="14.00">Lacks understanding of habitat elements</text>
</g>
<!-- n6&#45;&gt;n11 -->
<g id="edge10" class="edge">
<title>n6&#45;&gt;n11</title>
<path fill="none" stroke="black" d="M1650.6,-243.81C1676.6,-222.57 1720.9,-186.41 1749.4,-163.13"/>
<polygon fill="black" stroke="black" points="1751.8,-165.69 1757.3,-156.63 1747.35,-160.28 1751.8,-165.69"/>
</g>
<!-- n13 -->
<g id="node12" class="node">
<title>n13</title>
<polygon fill="#f28e8e" stroke="black" points="575,-36 306,-36 306,0 575,0 575,-36"/>
<text text-anchor="middle" x="440.5" y="-14.3" font-family="Arial" font-size="14.00">Use varied colors to differentiate elements</text>
</g>
<!-- n8&#45;&gt;n13 -->
<g id="edge11" class="edge">
<title>n8&#45;&gt;n13</title>
<path fill="none" stroke="black" d="M440.5,-121.81C440.5,-102.11 440.5,-69.58 440.5,-46.39"/>
<polygon fill="black" stroke="black" points="444,-46.16 440.5,-36.16 437,-46.16 444,-46.16"/>
</g>
<!-- n12 -->
<g id="node13" class="node">
<title>n12</title>
<polygon fill="#f28e8e" stroke="black" points="1174,-36 1011,-36 1011,0 1174,0 1174,-36"/>
<text text-anchor="middle" x="1092.5" y="-14.3" font-family="Arial" font-size="14.00">Correct labeling of water</text>
</g>
<!-- n9&#45;&gt;n12 -->
<g id="edge12" class="edge">
<title>n9&#45;&gt;n12</title>
<path fill="none" stroke="black" d="M904.74,-124.29C941.84,-103.48 1009.9,-65.32 1053.1,-41.11"/>
<polygon fill="black" stroke="black" points="1054.9,-44.11 1061.9,-36.16 1051.47,-38.01 1054.9,-44.11"/>
</g>
<!-- n10&#45;&gt;n12 -->
<g id="edge13" class="edge">
<title>n10&#45;&gt;n12</title>
<path fill="none" stroke="black" d="M1280.7,-124.53C1243.6,-103.75 1175.1,-65.31 1131.7,-41"/>
<polygon fill="black" stroke="black" points="1133.33,-37.9 1122.9,-36.04 1129.89,-44 1133.33,-37.9"/>
</g>
<!-- n14 -->
<g id="node14" class="node">
<title>n14</title>
<polygon fill="#f28e8e" stroke="black" points="1744,-36 1547,-36 1547,0 1744,0 1744,-36"/>
<text text-anchor="middle" x="1645.5" y="-14.3" font-family="Arial" font-size="14.00">Label parts of habitat correctly</text>
</g>
<!-- n11&#45;&gt;n14 -->
<g id="edge14" class="edge">
<title>n11&#45;&gt;n14</title>
<path fill="none" stroke="black" d="M1759.1,-123.06C1736.8,-102.61 1697.8,-66.93 1671.9,-43.14"/>
<polygon fill="black" stroke="black" points="1673.96,-40.28 1664.2,-36.17 1669.26,-45.47 1673.96,-40.28"/>
</g>
<!-- n15 -->
<g id="node15" class="node">
<title>n15</title>
<polygon fill="#f28e8e" stroke="black" points="2013,-36 1802,-36 1802,0 2013,0 2013,-36"/>
<text text-anchor="middle" x="1907.5" y="-14.3" font-family="Arial" font-size="14.00">Learn about habitat components</text>
</g>
<!-- n11&#45;&gt;n15 -->
<g id="edge15" class="edge">
<title>n11&#45;&gt;n15</title>
<path fill="none" stroke="black" d="M1793.9,-123.06C1816.2,-102.61 1855.2,-66.93 1881.1,-43.14"/>
<polygon fill="black" stroke="black" points="1883.74,-45.47 1888.8,-36.17 1879.04,-40.28 1883.74,-45.47"/>
</g>
</g>
</svg>
