<?xml version="1.0" encoding="UTF-8" standalone="no"?>
<!DOCTYPE svg PUBLIC "-//W3C//DTD SVG 1.1//EN"
 "http://www.w3.org/Graphics/SVG/1.1/DTD/svg11.dtd">
<!-- Generated by graphviz version 2.43.0 (0)
 -->
<!-- Pages: 1 -->
<svg width="1646pt" height="410pt"
 viewBox="0.00 0.00 1646.18 410.00" xmlns="http://www.w3.org/2000/svg" xmlns:xlink="http://www.w3.org/1999/xlink">
<g id="graph0" class="graph" transform="scale(1 1) rotate(0) translate(4 406)">
<polygon fill="white" stroke="transparent" points="-4,4 -4,-406 1642.18,-406 1642.18,4 -4,4"/>
<!-- n1 -->
<g id="node1" class="node">
<title>n1</title>
<polygon fill="lightblue" stroke="black" points="1244,-384 1131.75,-402 907.25,-402 795,-384 907.25,-366 1131.75,-366 1244,-384"/>
<text text-anchor="middle" x="1019.5" y="-380.3" font-family="Arial" font-size="14.00">Illustrate plants with and without water and light</text>
</g>
<!-- n2 -->
<g id="node2" class="node">
<title>n2</title>
<polygon fill="#fffdd0" stroke="black" points="678.5,-280 462.5,-280 462.5,-244 678.5,-244 678.5,-280"/>
<text text-anchor="middle" x="570.5" y="-258.3" font-family="Arial" font-size="14.00">Plant with green stem and leaves</text>
</g>
<!-- n1&#45;&gt;n2 -->
<g id="edge1" class="edge">
<title>n1&#45;&gt;n2</title>
<path fill="none" stroke="black" d="M955.65,-365.93C873.35,-343.94 730.58,-305.78 643.9,-282.62"/>
<polygon fill="black" stroke="black" points="644.69,-279.21 634.13,-280.01 642.89,-285.97 644.69,-279.21"/>
</g>
<!-- n3 -->
<g id="node3" class="node">
<title>n3</title>
<polygon fill="#fffdd0" stroke="black" points="1119.5,-280 919.5,-280 919.5,-244 1119.5,-244 1119.5,-280"/>
<text text-anchor="middle" x="1019.5" y="-258.3" font-family="Arial" font-size="14.00">Bright yellow sun drawn above</text>
</g>
<!-- n1&#45;&gt;n3 -->
<g id="edge2" class="edge">
<title>n1&#45;&gt;n3</title>
<path fill="none" stroke="black" d="M1019.5,-365.81C1019.5,-346.11 1019.5,-313.58 1019.5,-290.39"/>
<polygon fill="black" stroke="black" points="1023,-290.16 1019.5,-280.16 1016,-290.16 1023,-290.16"/>
</g>
<!-- n4 -->
<g id="node4" class="node">
<title>n4</title>
<polygon fill="#fffdd0" stroke="black" points="1420.5,-280 1256.5,-280 1256.5,-244 1420.5,-244 1420.5,-280"/>
<text text-anchor="middle" x="1338.5" y="-258.3" font-family="Arial" font-size="14.00">Water droplets scattered</text>
</g>
<!-- n1&#45;&gt;n4 -->
<g id="edge3" class="edge">
<title>n1&#45;&gt;n4</title>
<path fill="none" stroke="black" d="M1064.9,-365.93C1122.5,-344.25 1221.9,-306.86 1283.7,-283.61"/>
<polygon fill="black" stroke="black" points="1285.17,-286.8 1293.3,-280.01 1282.71,-280.24 1285.17,-286.8"/>
</g>
<!-- n5 -->
<g id="node5" class="node">
<title>n5</title>
<path fill="palegreen" stroke="black" d="M231,-158C231,-158 12,-158 12,-158 6,-158 0,-152 0,-146 0,-146 0,-134 0,-134 0,-128 6,-122 12,-122 12,-122 231,-122 231,-122 237,-122 243,-128 243,-134 243,-134 243,-146 243,-146 243,-152 237,-158 231,-158"/>
<text text-anchor="middle" x="121.5" y="-136.3" font-family="Arial" font-size="14.00">Basic understanding of plant structure</text>
</g>
<!-- n2&#45;&gt;n5 -->
<g id="edge4" class="edge">
<title>n2&#45;&gt;n5</title>
<path fill="none" stroke="black" d="M506.65,-243.93C424.35,-221.94 281.58,-183.78 194.9,-160.62"/>
<polygon fill="black" stroke="black" points="195.69,-157.21 185.13,-158.01 193.89,-163.97 195.69,-157.21"/>
</g>
<!-- n8 -->
<g id="node6" class="node">
<title>n8</title>
<polygon fill="lightcoral" stroke="black" points="570.5,-158 301,-140 570.5,-122 840,-140 570.5,-158"/>
<text text-anchor="middle" x="570.5" y="-136.3" font-family="Arial" font-size="14.00">No visualization of cause&#45;effect with water/sun</text>
</g>
<!-- n2&#45;&gt;n8 -->
<g id="edge5" class="edge">
<title>n2&#45;&gt;n8</title>
<path fill="none" stroke="black" d="M570.5,-243.81C570.5,-224.11 570.5,-191.58 570.5,-168.39"/>
<polygon fill="black" stroke="black" points="574,-168.16 570.5,-158.16 567,-168.16 574,-168.16"/>
</g>
<!-- n6 -->
<g id="node7" class="node">
<title>n6</title>
<path fill="palegreen" stroke="black" d="M1129,-158C1129,-158 910,-158 910,-158 904,-158 898,-152 898,-146 898,-146 898,-134 898,-134 898,-128 904,-122 910,-122 910,-122 1129,-122 1129,-122 1135,-122 1141,-128 1141,-134 1141,-134 1141,-146 1141,-146 1141,-152 1135,-158 1129,-158"/>
<text text-anchor="middle" x="1019.5" y="-136.3" font-family="Arial" font-size="14.00">Understanding that sunlight is needed</text>
</g>
<!-- n3&#45;&gt;n6 -->
<g id="edge6" class="edge">
<title>n3&#45;&gt;n6</title>
<path fill="none" stroke="black" d="M1019.5,-243.81C1019.5,-224.11 1019.5,-191.58 1019.5,-168.39"/>
<polygon fill="black" stroke="black" points="1023,-168.16 1019.5,-158.16 1016,-168.16 1023,-168.16"/>
</g>
<!-- n7 -->
<g id="node8" class="node">
<title>n7</title>
<polygon fill="lightcoral" stroke="black" points="1418.5,-158 1198.64,-140 1418.5,-122 1638.36,-140 1418.5,-158"/>
<text text-anchor="middle" x="1418.5" y="-136.3" font-family="Arial" font-size="14.00">Incomplete depiction of water&#39;s effect</text>
</g>
<!-- n4&#45;&gt;n7 -->
<g id="edge7" class="edge">
<title>n4&#45;&gt;n7</title>
<path fill="none" stroke="black" d="M1350,-243.81C1363.6,-223.35 1386.5,-189.04 1402,-165.73"/>
<polygon fill="black" stroke="black" points="1404.93,-167.64 1407.6,-157.39 1399.12,-163.74 1404.93,-167.64"/>
</g>
<!-- n10 -->
<g id="node9" class="node">
<title>n10</title>
<polygon fill="#f28e8e" stroke="black" points="674.5,-36 466.5,-36 466.5,0 674.5,0 674.5,-36"/>
<text text-anchor="middle" x="570.5" y="-14.3" font-family="Arial" font-size="14.00">Show differences in plant health</text>
</g>
<!-- n8&#45;&gt;n10 -->
<g id="edge8" class="edge">
<title>n8&#45;&gt;n10</title>
<path fill="none" stroke="black" d="M570.5,-121.81C570.5,-102.11 570.5,-69.58 570.5,-46.39"/>
<polygon fill="black" stroke="black" points="574,-46.16 570.5,-36.16 567,-46.16 574,-46.16"/>
</g>
<!-- n9 -->
<g id="node10" class="node">
<title>n9</title>
<polygon fill="#f28e8e" stroke="black" points="1549.5,-36 1287.5,-36 1287.5,0 1549.5,0 1549.5,-36"/>
<text text-anchor="middle" x="1418.5" y="-14.3" font-family="Arial" font-size="14.00">Include examples of wilting without water</text>
</g>
<!-- n7&#45;&gt;n9 -->
<g id="edge9" class="edge">
<title>n7&#45;&gt;n9</title>
<path fill="none" stroke="black" d="M1418.5,-121.81C1418.5,-102.11 1418.5,-69.58 1418.5,-46.39"/>
<polygon fill="black" stroke="black" points="1422,-46.16 1418.5,-36.16 1415,-46.16 1422,-46.16"/>
</g>
</g>
</svg>
