<?xml version="1.0" encoding="UTF-8" standalone="no"?>
<!DOCTYPE svg PUBLIC "-//W3C//DTD SVG 1.1//EN"
 "http://www.w3.org/Graphics/SVG/1.1/DTD/svg11.dtd">
<!-- Generated by graphviz version 2.43.0 (0)
 -->
<!-- Pages: 1 -->
<svg width="1812pt" height="410pt"
 viewBox="0.00 0.00 1812.00 410.00" xmlns="http://www.w3.org/2000/svg" xmlns:xlink="http://www.w3.org/1999/xlink">
<g id="graph0" class="graph" transform="scale(1 1) rotate(0) translate(4 406)">
<polygon fill="white" stroke="transparent" points="-4,4 -4,-406 1808,-406 1808,4 -4,4"/>
<!-- n1 -->
<g id="node1" class="node">
<title>n1</title>
<polygon fill="lightblue" stroke="black" points="1168.5,-384 1077.25,-402 894.75,-402 803.5,-384 894.75,-366 1077.25,-366 1168.5,-384"/>
<text text-anchor="middle" x="986" y="-380.3" font-family="Arial" font-size="14.00">Draw a fish in their habitat with labels.</text>
</g>
<!-- n2 -->
<g id="node2" class="node">
<title>n2</title>
<polygon fill="#fffdd0" stroke="black" points="422,-280 302,-280 302,-244 422,-244 422,-280"/>
<text text-anchor="middle" x="362" y="-258.3" font-family="Arial" font-size="14.00">Fish labeled &#39;fish&#39;</text>
</g>
<!-- n1&#45;&gt;n2 -->
<g id="edge1" class="edge">
<title>n1&#45;&gt;n2</title>
<path fill="none" stroke="black" d="M897.59,-366C772.59,-341.96 546.73,-298.52 432.38,-276.54"/>
<polygon fill="black" stroke="black" points="432.82,-273.06 422.34,-274.6 431.49,-279.93 432.82,-273.06"/>
</g>
<!-- n3 -->
<g id="node3" class="node">
<title>n3</title>
<polygon fill="#fffdd0" stroke="black" points="735.5,-280 600.5,-280 600.5,-244 735.5,-244 735.5,-280"/>
<text text-anchor="middle" x="668" y="-258.3" font-family="Arial" font-size="14.00">Area labeled &#39;water&#39;</text>
</g>
<!-- n1&#45;&gt;n3 -->
<g id="edge2" class="edge">
<title>n1&#45;&gt;n3</title>
<path fill="none" stroke="black" d="M940.78,-365.93C883.32,-344.25 784.24,-306.86 722.62,-283.61"/>
<polygon fill="black" stroke="black" points="723.66,-280.26 713.07,-280.01 721.19,-286.81 723.66,-280.26"/>
</g>
<!-- n4 -->
<g id="node4" class="node">
<title>n4</title>
<polygon fill="#fffdd0" stroke="black" points="1051,-280 921,-280 921,-244 1051,-244 1051,-280"/>
<text text-anchor="middle" x="986" y="-258.3" font-family="Arial" font-size="14.00">Rock labeled &#39;rock&#39;</text>
</g>
<!-- n1&#45;&gt;n4 -->
<g id="edge3" class="edge">
<title>n1&#45;&gt;n4</title>
<path fill="none" stroke="black" d="M986,-365.81C986,-346.11 986,-313.58 986,-290.39"/>
<polygon fill="black" stroke="black" points="989.5,-290.16 986,-280.16 982.5,-290.16 989.5,-290.16"/>
</g>
<!-- n5 -->
<g id="node5" class="node">
<title>n5</title>
<polygon fill="#fffdd0" stroke="black" points="1305,-280 1171,-280 1171,-244 1305,-244 1305,-280"/>
<text text-anchor="middle" x="1238" y="-258.3" font-family="Arial" font-size="14.00">Plant labeled &#39;plant&#39;</text>
</g>
<!-- n1&#45;&gt;n5 -->
<g id="edge4" class="edge">
<title>n1&#45;&gt;n5</title>
<path fill="none" stroke="black" d="M1021.8,-365.93C1066.9,-344.48 1144.3,-307.63 1193.2,-284.33"/>
<polygon fill="black" stroke="black" points="1194.77,-287.46 1202.3,-280.01 1191.77,-281.14 1194.77,-287.46"/>
</g>
<!-- n6 -->
<g id="node6" class="node">
<title>n6</title>
<polygon fill="#fffdd0" stroke="black" points="1660,-280 1450,-280 1450,-244 1660,-244 1660,-280"/>
<text text-anchor="middle" x="1555" y="-258.3" font-family="Arial" font-size="14.00">Bubbles around the fish&#39;s mouth</text>
</g>
<!-- n1&#45;&gt;n6 -->
<g id="edge5" class="edge">
<title>n1&#45;&gt;n6</title>
<path fill="none" stroke="black" d="M1066.6,-366C1171.6,-343.87 1354.5,-305.29 1464.2,-282.15"/>
<polygon fill="black" stroke="black" points="1465.23,-285.51 1474.3,-280.03 1463.79,-278.66 1465.23,-285.51"/>
</g>
<!-- n7 -->
<g id="node7" class="node">
<title>n7</title>
<path fill="palegreen" stroke="black" d="M218,-158C218,-158 12,-158 12,-158 6,-158 0,-152 0,-146 0,-146 0,-134 0,-134 0,-128 6,-122 12,-122 12,-122 218,-122 218,-122 224,-122 230,-128 230,-134 230,-134 230,-146 230,-146 230,-152 224,-158 218,-158"/>
<text text-anchor="middle" x="115" y="-136.3" font-family="Arial" font-size="14.00">Correctly identifies a fish with labels</text>
</g>
<!-- n2&#45;&gt;n7 -->
<g id="edge6" class="edge">
<title>n2&#45;&gt;n7</title>
<path fill="none" stroke="black" d="M326.87,-243.93C282.8,-222.52 207.18,-185.78 159.21,-162.48"/>
<polygon fill="black" stroke="black" points="160.53,-159.23 150.01,-158.01 157.47,-165.53 160.53,-159.23"/>
</g>
<!-- n8 -->
<g id="node8" class="node">
<title>n8</title>
<polygon fill="lightcoral" stroke="black" points="541,-158 288,-140 541,-122 794,-140 541,-158"/>
<text text-anchor="middle" x="541" y="-136.3" font-family="Arial" font-size="14.00">Identifies water but not specific habitat type</text>
</g>
<!-- n3&#45;&gt;n8 -->
<g id="edge7" class="edge">
<title>n3&#45;&gt;n8</title>
<path fill="none" stroke="black" d="M649.8,-243.81C627.65,-222.87 590.14,-187.43 565.47,-164.12"/>
<polygon fill="black" stroke="black" points="567.61,-161.33 557.94,-157.01 562.81,-166.42 567.61,-161.33"/>
</g>
<!-- n9 -->
<g id="node9" class="node">
<title>n9</title>
<path fill="palegreen" stroke="black" d="M1108,-158C1108,-158 864,-158 864,-158 858,-158 852,-152 852,-146 852,-146 852,-134 852,-134 852,-128 858,-122 864,-122 864,-122 1108,-122 1108,-122 1114,-122 1120,-128 1120,-134 1120,-134 1120,-146 1120,-146 1120,-152 1114,-158 1108,-158"/>
<text text-anchor="middle" x="986" y="-136.3" font-family="Arial" font-size="14.00">Recognizes non&#45;living elements like rocks</text>
</g>
<!-- n4&#45;&gt;n9 -->
<g id="edge8" class="edge">
<title>n4&#45;&gt;n9</title>
<path fill="none" stroke="black" d="M986,-243.81C986,-224.11 986,-191.58 986,-168.39"/>
<polygon fill="black" stroke="black" points="989.5,-168.16 986,-158.16 982.5,-168.16 989.5,-168.16"/>
</g>
<!-- n10 -->
<g id="node10" class="node">
<title>n10</title>
<path fill="palegreen" stroke="black" d="M1411.5,-158C1411.5,-158 1190.5,-158 1190.5,-158 1184.5,-158 1178.5,-152 1178.5,-146 1178.5,-146 1178.5,-134 1178.5,-134 1178.5,-128 1184.5,-122 1190.5,-122 1190.5,-122 1411.5,-122 1411.5,-122 1417.5,-122 1423.5,-128 1423.5,-134 1423.5,-134 1423.5,-146 1423.5,-146 1423.5,-152 1417.5,-158 1411.5,-158"/>
<text text-anchor="middle" x="1301" y="-136.3" font-family="Arial" font-size="14.00">Recognizes living elements like plants</text>
</g>
<!-- n5&#45;&gt;n10 -->
<g id="edge9" class="edge">
<title>n5&#45;&gt;n10</title>
<path fill="none" stroke="black" d="M1247,-243.81C1257.6,-223.76 1275.1,-190.4 1287.3,-167.14"/>
<polygon fill="black" stroke="black" points="1290.46,-168.64 1292,-158.16 1284.26,-165.4 1290.46,-168.64"/>
</g>
<!-- n11 -->
<g id="node11" class="node">
<title>n11</title>
<path fill="palegreen" stroke="black" d="M1792,-158C1792,-158 1494,-158 1494,-158 1488,-158 1482,-152 1482,-146 1482,-146 1482,-134 1482,-134 1482,-128 1488,-122 1494,-122 1494,-122 1792,-122 1792,-122 1798,-122 1804,-128 1804,-134 1804,-134 1804,-146 1804,-146 1804,-152 1798,-158 1792,-158"/>
<text text-anchor="middle" x="1643" y="-136.3" font-family="Arial" font-size="14.00">Shows understanding of breathing through bubbles</text>
</g>
<!-- n6&#45;&gt;n11 -->
<g id="edge10" class="edge">
<title>n6&#45;&gt;n11</title>
<path fill="none" stroke="black" d="M1567.6,-243.81C1582.4,-223.58 1607.2,-189.81 1624.3,-166.52"/>
<polygon fill="black" stroke="black" points="1627.33,-168.3 1630.4,-158.16 1621.68,-164.18 1627.33,-168.3"/>
</g>
<!-- n12 -->
<g id="node12" class="node">
<title>n12</title>
<polygon fill="#f28e8e" stroke="black" points="691.5,-36 390.5,-36 390.5,0 691.5,0 691.5,-36"/>
<text text-anchor="middle" x="541" y="-14.3" font-family="Arial" font-size="14.00">Label specific habitat types like lakes or oceans</text>
</g>
<!-- n8&#45;&gt;n12 -->
<g id="edge11" class="edge">
<title>n8&#45;&gt;n12</title>
<path fill="none" stroke="black" d="M541,-121.81C541,-102.11 541,-69.58 541,-46.39"/>
<polygon fill="black" stroke="black" points="544.5,-46.16 541,-36.16 537.5,-46.16 544.5,-46.16"/>
</g>
</g>
</svg>
