<?xml version="1.0" encoding="UTF-8" standalone="no"?>
<!DOCTYPE svg PUBLIC "-//W3C//DTD SVG 1.1//EN"
 "http://www.w3.org/Graphics/SVG/1.1/DTD/svg11.dtd">
<!-- Generated by graphviz version 2.43.0 (0)
 -->
<!-- Pages: 1 -->
<svg width="1549pt" height="288pt"
 viewBox="0.00 0.00 1548.50 288.00" xmlns="http://www.w3.org/2000/svg" xmlns:xlink="http://www.w3.org/1999/xlink">
<g id="graph0" class="graph" transform="scale(1 1) rotate(0) translate(4 284)">
<polygon fill="white" stroke="transparent" points="-4,4 -4,-284 1544.5,-284 1544.5,4 -4,4"/>
<!-- n1 -->
<g id="node1" class="node">
<title>n1</title>
<polygon fill="lightblue" stroke="black" points="1216.5,-262 1052.5,-280 724.5,-280 560.5,-262 724.5,-244 1052.5,-244 1216.5,-262"/>
<text text-anchor="middle" x="888.5" y="-258.3" font-family="Arial" font-size="14.00">Draw reversible and irreversible changes (ice melting vs. egg cooking)</text>
</g>
<!-- n2 -->
<g id="node2" class="node">
<title>n2</title>
<polygon fill="#fffdd0" stroke="black" points="471,-158 0,-158 0,-122 471,-122 471,-158"/>
<text text-anchor="middle" x="235.5" y="-136.3" font-family="Arial" font-size="14.00">Ice cube labeled &#39;ice&#39;, arrow to water labeled &#39;water&#39;, with heat source above</text>
</g>
<!-- n1&#45;&gt;n2 -->
<g id="edge1" class="edge">
<title>n1&#45;&gt;n2</title>
<path fill="none" stroke="black" d="M795.98,-244C675.06,-221.78 463.92,-182.98 338.18,-159.87"/>
<polygon fill="black" stroke="black" points="338.62,-156.39 328.15,-158.03 337.35,-163.28 338.62,-156.39"/>
</g>
<!-- n3 -->
<g id="node3" class="node">
<title>n3</title>
<polygon fill="#fffdd0" stroke="black" points="850,-158 529,-158 529,-122 850,-122 850,-158"/>
<text text-anchor="middle" x="689.5" y="-136.3" font-family="Arial" font-size="14.00">Arrow from &#39;water&#39; back to &#39;ice&#39;, showing refreezing</text>
</g>
<!-- n1&#45;&gt;n3 -->
<g id="edge2" class="edge">
<title>n1&#45;&gt;n3</title>
<path fill="none" stroke="black" d="M859.99,-243.81C824.97,-222.69 765.46,-186.81 726.83,-163.51"/>
<polygon fill="black" stroke="black" points="728.33,-160.33 717.96,-158.16 724.72,-166.32 728.33,-160.33"/>
</g>
<!-- n4 -->
<g id="node4" class="node">
<title>n4</title>
<polygon fill="#fffdd0" stroke="black" points="1266.5,-158 908.5,-158 908.5,-122 1266.5,-122 1266.5,-158"/>
<text text-anchor="middle" x="1087.5" y="-136.3" font-family="Arial" font-size="14.00">Raw egg in frying pan labeled &#39;raw egg&#39;, with heat source</text>
</g>
<!-- n1&#45;&gt;n4 -->
<g id="edge3" class="edge">
<title>n1&#45;&gt;n4</title>
<path fill="none" stroke="black" d="M917.01,-243.81C952.03,-222.69 1011.5,-186.81 1050.2,-163.51"/>
<polygon fill="black" stroke="black" points="1052.27,-166.35 1059,-158.16 1048.64,-160.36 1052.27,-166.35"/>
</g>
<!-- n5 -->
<g id="node5" class="node">
<title>n5</title>
<polygon fill="#fffdd0" stroke="black" points="1540.5,-158 1324.5,-158 1324.5,-122 1540.5,-122 1540.5,-158"/>
<text text-anchor="middle" x="1432.5" y="-136.3" font-family="Arial" font-size="14.00">Cooked egg labeled &#39;cooked egg&#39;</text>
</g>
<!-- n1&#45;&gt;n5 -->
<g id="edge4" class="edge">
<title>n1&#45;&gt;n5</title>
<path fill="none" stroke="black" d="M965.58,-244C1065.8,-221.89 1240.4,-183.37 1345.4,-160.22"/>
<polygon fill="black" stroke="black" points="1346.29,-163.61 1355.3,-158.03 1344.78,-156.77 1346.29,-163.61"/>
</g>
<!-- n6 -->
<g id="node6" class="node">
<title>n6</title>
<path fill="palegreen" stroke="black" d="M732.5,-36C732.5,-36 398.5,-36 398.5,-36 392.5,-36 386.5,-30 386.5,-24 386.5,-24 386.5,-12 386.5,-12 386.5,-6 392.5,0 398.5,0 398.5,0 732.5,0 732.5,0 738.5,0 744.5,-6 744.5,-12 744.5,-12 744.5,-24 744.5,-24 744.5,-30 738.5,-36 732.5,-36"/>
<text text-anchor="middle" x="565.5" y="-14.3" font-family="Arial" font-size="14.00">Understands reversible change: Water freezes and melts</text>
</g>
<!-- n2&#45;&gt;n6 -->
<g id="edge5" class="edge">
<title>n2&#45;&gt;n6</title>
<path fill="none" stroke="black" d="M282.43,-121.93C342.18,-100.21 445.3,-62.71 509.21,-39.47"/>
<polygon fill="black" stroke="black" points="510.53,-42.71 518.73,-36.01 508.14,-36.14 510.53,-42.71"/>
</g>
<!-- n3&#45;&gt;n6 -->
<g id="edge6" class="edge">
<title>n3&#45;&gt;n6</title>
<path fill="none" stroke="black" d="M671.73,-121.81C650.46,-101.22 614.7,-66.61 590.61,-43.3"/>
<polygon fill="black" stroke="black" points="592.85,-40.6 583.23,-36.16 587.98,-45.63 592.85,-40.6"/>
</g>
<!-- n7 -->
<g id="node7" class="node">
<title>n7</title>
<path fill="palegreen" stroke="black" d="M1400.5,-36C1400.5,-36 1020.5,-36 1020.5,-36 1014.5,-36 1008.5,-30 1008.5,-24 1008.5,-24 1008.5,-12 1008.5,-12 1008.5,-6 1014.5,0 1020.5,0 1020.5,0 1400.5,0 1400.5,0 1406.5,0 1412.5,-6 1412.5,-12 1412.5,-12 1412.5,-24 1412.5,-24 1412.5,-30 1406.5,-36 1400.5,-36"/>
<text text-anchor="middle" x="1210.5" y="-14.3" font-family="Arial" font-size="14.00">Understands irreversible change: Cooked egg can&#39;t be raw again</text>
</g>
<!-- n4&#45;&gt;n7 -->
<g id="edge7" class="edge">
<title>n4&#45;&gt;n7</title>
<path fill="none" stroke="black" d="M1105.1,-121.81C1126.2,-101.22 1161.7,-66.61 1185.6,-43.3"/>
<polygon fill="black" stroke="black" points="1188.2,-45.66 1192.9,-36.16 1183.3,-40.65 1188.2,-45.66"/>
</g>
<!-- n5&#45;&gt;n7 -->
<g id="edge8" class="edge">
<title>n5&#45;&gt;n7</title>
<path fill="none" stroke="black" d="M1400.7,-121.81C1361.3,-100.51 1294.1,-64.2 1251.1,-40.92"/>
<polygon fill="black" stroke="black" points="1252.67,-37.79 1242.2,-36.16 1249.37,-43.96 1252.67,-37.79"/>
</g>
</g>
</svg>
