<?xml version="1.0" encoding="UTF-8" standalone="no"?>
<!DOCTYPE svg PUBLIC "-//W3C//DTD SVG 1.1//EN"
 "http://www.w3.org/Graphics/SVG/1.1/DTD/svg11.dtd">
<!-- Generated by graphviz version 2.43.0 (0)
 -->
<!-- Pages: 1 -->
<svg width="1336pt" height="288pt"
 viewBox="0.00 0.00 1335.50 288.00" xmlns="http://www.w3.org/2000/svg" xmlns:xlink="http://www.w3.org/1999/xlink">
<g id="graph0" class="graph" transform="scale(1 1) rotate(0) translate(4 284)">
<polygon fill="white" stroke="transparent" points="-4,4 -4,-284 1331.5,-284 1331.5,4 -4,4"/>
<!-- n1 -->
<g id="node1" class="node">
<title>n1</title>
<polygon fill="lightblue" stroke="black" points="886.5,-262 795.25,-280 612.75,-280 521.5,-262 612.75,-244 795.25,-244 886.5,-262"/>
<text text-anchor="middle" x="704" y="-258.3" font-family="Arial" font-size="14.00">Draw a fish in their habitat with labels.</text>
</g>
<!-- n2 -->
<g id="node2" class="node">
<title>n2</title>
<polygon fill="#fffdd0" stroke="black" points="248,-158 0,-158 0,-122 248,-122 248,-158"/>
<text text-anchor="middle" x="124" y="-136.3" font-family="Arial" font-size="14.00">Large, colorful fish with scales and fins</text>
</g>
<!-- n1&#45;&gt;n2 -->
<g id="edge1" class="edge">
<title>n1&#45;&gt;n2</title>
<path fill="none" stroke="black" d="M621.82,-244C514.74,-221.84 328.01,-183.21 216.21,-160.08"/>
<polygon fill="black" stroke="black" points="216.79,-156.63 206.29,-158.03 215.37,-163.48 216.79,-156.63"/>
</g>
<!-- n3 -->
<g id="node3" class="node">
<title>n3</title>
<polygon fill="#fffdd0" stroke="black" points="527.5,-158 306.5,-158 306.5,-122 527.5,-122 527.5,-158"/>
<text text-anchor="middle" x="417" y="-136.3" font-family="Arial" font-size="14.00">Fish swimming in clear blue water</text>
</g>
<!-- n1&#45;&gt;n3 -->
<g id="edge2" class="edge">
<title>n1&#45;&gt;n3</title>
<path fill="none" stroke="black" d="M663.18,-243.93C611.54,-222.34 522.64,-185.17 466.99,-161.9"/>
<polygon fill="black" stroke="black" points="468.25,-158.63 457.67,-158.01 465.55,-165.09 468.25,-158.63"/>
</g>
<!-- n4 -->
<g id="node4" class="node">
<title>n4</title>
<polygon fill="#fffdd0" stroke="black" points="822,-158 586,-158 586,-122 822,-122 822,-158"/>
<text text-anchor="middle" x="704" y="-136.3" font-family="Arial" font-size="14.00">Seaweed plants with sunlight beams</text>
</g>
<!-- n1&#45;&gt;n4 -->
<g id="edge3" class="edge">
<title>n1&#45;&gt;n4</title>
<path fill="none" stroke="black" d="M704,-243.81C704,-224.11 704,-191.58 704,-168.39"/>
<polygon fill="black" stroke="black" points="707.5,-168.16 704,-158.16 700.5,-168.16 707.5,-168.16"/>
</g>
<!-- n5 -->
<g id="node5" class="node">
<title>n5</title>
<polygon fill="#fffdd0" stroke="black" points="1020,-158 880,-158 880,-122 1020,-122 1020,-158"/>
<text text-anchor="middle" x="950" y="-136.3" font-family="Arial" font-size="14.00">Small fish and snails</text>
</g>
<!-- n1&#45;&gt;n5 -->
<g id="edge4" class="edge">
<title>n1&#45;&gt;n5</title>
<path fill="none" stroke="black" d="M738.98,-243.93C782.88,-222.52 858.19,-185.78 905.97,-162.48"/>
<polygon fill="black" stroke="black" points="907.68,-165.54 915.14,-158.01 904.62,-159.25 907.68,-165.54"/>
</g>
<!-- n6 -->
<g id="node6" class="node">
<title>n6</title>
<polygon fill="#fffdd0" stroke="black" points="1281,-158 1115,-158 1115,-122 1281,-122 1281,-158"/>
<text text-anchor="middle" x="1198" y="-136.3" font-family="Arial" font-size="14.00">Rocks and sandy bottom</text>
</g>
<!-- n1&#45;&gt;n6 -->
<g id="edge5" class="edge">
<title>n1&#45;&gt;n6</title>
<path fill="none" stroke="black" d="M773.99,-244C864.74,-221.95 1022.6,-183.6 1118,-160.43"/>
<polygon fill="black" stroke="black" points="1119.01,-163.79 1127.9,-158.03 1117.36,-156.98 1119.01,-163.79"/>
</g>
<!-- n7 -->
<g id="node7" class="node">
<title>n7</title>
<path fill="palegreen" stroke="black" d="M218,-36C218,-36 30,-36 30,-36 24,-36 18,-30 18,-24 18,-24 18,-12 18,-12 18,-6 24,0 30,0 30,0 218,0 218,0 224,0 230,-6 230,-12 230,-12 230,-24 230,-24 230,-30 224,-36 218,-36"/>
<text text-anchor="middle" x="124" y="-14.3" font-family="Arial" font-size="14.00">Accurate labeling of fish features</text>
</g>
<!-- n2&#45;&gt;n7 -->
<g id="edge6" class="edge">
<title>n2&#45;&gt;n7</title>
<path fill="none" stroke="black" d="M124,-121.81C124,-102.11 124,-69.58 124,-46.39"/>
<polygon fill="black" stroke="black" points="127.5,-46.16 124,-36.16 120.5,-46.16 127.5,-46.16"/>
</g>
<!-- n8 -->
<g id="node8" class="node">
<title>n8</title>
<path fill="palegreen" stroke="black" d="M490,-36C490,-36 344,-36 344,-36 338,-36 332,-30 332,-24 332,-24 332,-12 332,-12 332,-6 338,0 344,0 344,0 490,0 490,0 496,0 502,-6 502,-12 502,-12 502,-24 502,-24 502,-30 496,-36 490,-36"/>
<text text-anchor="middle" x="417" y="-14.3" font-family="Arial" font-size="14.00">Fish needs water to swim</text>
</g>
<!-- n3&#45;&gt;n8 -->
<g id="edge7" class="edge">
<title>n3&#45;&gt;n8</title>
<path fill="none" stroke="black" d="M417,-121.81C417,-102.11 417,-69.58 417,-46.39"/>
<polygon fill="black" stroke="black" points="420.5,-46.16 417,-36.16 413.5,-46.16 420.5,-46.16"/>
</g>
<!-- n9 -->
<g id="node9" class="node">
<title>n9</title>
<path fill="palegreen" stroke="black" d="M746,-36C746,-36 596,-36 596,-36 590,-36 584,-30 584,-24 584,-24 584,-12 584,-12 584,-6 590,0 596,0 596,0 746,0 746,0 752,0 758,-6 758,-12 758,-12 758,-24 758,-24 758,-30 752,-36 746,-36"/>
<text text-anchor="middle" x="671" y="-14.3" font-family="Arial" font-size="14.00">Sunlight helps plants grow</text>
</g>
<!-- n4&#45;&gt;n9 -->
<g id="edge8" class="edge">
<title>n4&#45;&gt;n9</title>
<path fill="none" stroke="black" d="M699.27,-121.81C693.83,-102.02 684.83,-69.29 678.45,-46.08"/>
<polygon fill="black" stroke="black" points="681.75,-44.87 675.72,-36.16 675,-46.73 681.75,-44.87"/>
</g>
<!-- n10 -->
<g id="node10" class="node">
<title>n10</title>
<path fill="palegreen" stroke="black" d="M1072,-36C1072,-36 828,-36 828,-36 822,-36 816,-30 816,-24 816,-24 816,-12 816,-12 816,-6 822,0 828,0 828,0 1072,0 1072,0 1078,0 1084,-6 1084,-12 1084,-12 1084,-24 1084,-24 1084,-30 1078,-36 1072,-36"/>
<text text-anchor="middle" x="950" y="-14.3" font-family="Arial" font-size="14.00">Understanding of ecosystem relationships</text>
</g>
<!-- n5&#45;&gt;n10 -->
<g id="edge9" class="edge">
<title>n5&#45;&gt;n10</title>
<path fill="none" stroke="black" d="M950,-121.81C950,-102.11 950,-69.58 950,-46.39"/>
<polygon fill="black" stroke="black" points="953.5,-46.16 950,-36.16 946.5,-46.16 953.5,-46.16"/>
</g>
<!-- n11 -->
<g id="node11" class="node">
<title>n11</title>
<path fill="palegreen" stroke="black" d="M1315.5,-36C1315.5,-36 1154.5,-36 1154.5,-36 1148.5,-36 1142.5,-30 1142.5,-24 1142.5,-24 1142.5,-12 1142.5,-12 1142.5,-6 1148.5,0 1154.5,0 1154.5,0 1315.5,0 1315.5,0 1321.5,0 1327.5,-6 1327.5,-12 1327.5,-12 1327.5,-24 1327.5,-24 1327.5,-30 1321.5,-36 1315.5,-36"/>
<text text-anchor="middle" x="1235" y="-14.3" font-family="Arial" font-size="14.00">Simple ecosystem depiction</text>
</g>
<!-- n6&#45;&gt;n11 -->
<g id="edge10" class="edge">
<title>n6&#45;&gt;n11</title>
<path fill="none" stroke="black" d="M1203.3,-121.81C1209.4,-101.94 1219.6,-68.99 1226.7,-45.76"/>
<polygon fill="black" stroke="black" points="1230.06,-46.75 1229.7,-36.16 1223.38,-44.66 1230.06,-46.75"/>
</g>
</g>
</svg>
