<?xml version="1.0" encoding="UTF-8" standalone="no"?>
<!DOCTYPE svg PUBLIC "-//W3C//DTD SVG 1.1//EN"
 "http://www.w3.org/Graphics/SVG/1.1/DTD/svg11.dtd">
<!-- Generated by graphviz version 2.43.0 (0)
 -->
<!-- Pages: 1 -->
<svg width="1755pt" height="410pt"
 viewBox="0.00 0.00 1755.00 410.00" xmlns="http://www.w3.org/2000/svg" xmlns:xlink="http://www.w3.org/1999/xlink">
<g id="graph0" class="graph" transform="scale(1 1) rotate(0) translate(4 406)">
<polygon fill="white" stroke="transparent" points="-4,4 -4,-406 1751,-406 1751,4 -4,4"/>
<!-- n1 -->
<g id="node1" class="node">
<title>n1</title>
<polygon fill="lightblue" stroke="black" points="756.5,-384 665.25,-402 482.75,-402 391.5,-384 482.75,-366 665.25,-366 756.5,-384"/>
<text text-anchor="middle" x="574" y="-380.3" font-family="Arial" font-size="14.00">Draw reversible changes (ice melting)</text>
</g>
<!-- n2 -->
<g id="node2" class="node">
<title>n2</title>
<polygon fill="#fffdd0" stroke="black" points="226,-280 0,-280 0,-244 226,-244 226,-280"/>
<text text-anchor="middle" x="113" y="-258.3" font-family="Arial" font-size="14.00">Large blue ice cubes labeled &#39;solid&#39;</text>
</g>
<!-- n1&#45;&gt;n2 -->
<g id="edge1" class="edge">
<title>n1&#45;&gt;n2</title>
<path fill="none" stroke="black" d="M508.44,-365.93C423.86,-343.92 277.06,-305.71 188.09,-282.55"/>
<polygon fill="black" stroke="black" points="188.89,-279.14 178.33,-280.01 187.13,-285.92 188.89,-279.14"/>
</g>
<!-- n3 -->
<g id="node3" class="node">
<title>n3</title>
<polygon fill="#fffdd0" stroke="black" points="541.5,-280 284.5,-280 284.5,-244 541.5,-244 541.5,-280"/>
<text text-anchor="middle" x="413" y="-258.3" font-family="Arial" font-size="14.00">Puddle of light blue water labeled &#39;liquid&#39;</text>
</g>
<!-- n1&#45;&gt;n3 -->
<g id="edge2" class="edge">
<title>n1&#45;&gt;n3</title>
<path fill="none" stroke="black" d="M550.93,-365.81C522.96,-344.96 475.67,-309.71 444.39,-286.4"/>
<polygon fill="black" stroke="black" points="446.13,-283.33 436.02,-280.16 441.95,-288.94 446.13,-283.33"/>
</g>
<!-- n4 -->
<g id="node4" class="node">
<title>n4</title>
<polygon fill="#fffdd0" stroke="black" points="872,-280 600,-280 600,-244 872,-244 872,-280"/>
<text text-anchor="middle" x="736" y="-258.3" font-family="Arial" font-size="14.00">Word &#39;melting&#39; with arrow from ice to water</text>
</g>
<!-- n1&#45;&gt;n4 -->
<g id="edge3" class="edge">
<title>n1&#45;&gt;n4</title>
<path fill="none" stroke="black" d="M597.21,-365.81C625.36,-344.96 672.94,-309.71 704.41,-286.4"/>
<polygon fill="black" stroke="black" points="706.88,-288.93 712.83,-280.16 702.71,-283.3 706.88,-288.93"/>
</g>
<!-- n5 -->
<g id="node5" class="node">
<title>n5</title>
<polygon fill="#fffdd0" stroke="black" points="1195.5,-280 930.5,-280 930.5,-244 1195.5,-244 1195.5,-280"/>
<text text-anchor="middle" x="1063" y="-258.3" font-family="Arial" font-size="14.00">Word &#39;reversible&#39; between solid and liquid</text>
</g>
<!-- n1&#45;&gt;n5 -->
<g id="edge4" class="edge">
<title>n1&#45;&gt;n5</title>
<path fill="none" stroke="black" d="M643.28,-366C733.11,-343.95 889.41,-305.6 983.83,-282.43"/>
<polygon fill="black" stroke="black" points="984.74,-285.81 993.62,-280.03 983.07,-279.01 984.74,-285.81"/>
</g>
<!-- n6 -->
<g id="node6" class="node">
<title>n6</title>
<path fill="palegreen" stroke="black" d="M528.5,-158C528.5,-158 297.5,-158 297.5,-158 291.5,-158 285.5,-152 285.5,-146 285.5,-146 285.5,-134 285.5,-134 285.5,-128 291.5,-122 297.5,-122 297.5,-122 528.5,-122 528.5,-122 534.5,-122 540.5,-128 540.5,-134 540.5,-134 540.5,-146 540.5,-146 540.5,-152 534.5,-158 528.5,-158"/>
<text text-anchor="middle" x="413" y="-136.3" font-family="Arial" font-size="14.00">Correct: Understanding melting process</text>
</g>
<!-- n2&#45;&gt;n6 -->
<g id="edge5" class="edge">
<title>n2&#45;&gt;n6</title>
<path fill="none" stroke="black" d="M155.66,-243.93C209.76,-222.3 302.96,-185.02 361.11,-161.76"/>
<polygon fill="black" stroke="black" points="362.5,-164.98 370.48,-158.01 359.9,-158.48 362.5,-164.98"/>
</g>
<!-- n3&#45;&gt;n6 -->
<g id="edge6" class="edge">
<title>n3&#45;&gt;n6</title>
<path fill="none" stroke="black" d="M413,-243.81C413,-224.11 413,-191.58 413,-168.39"/>
<polygon fill="black" stroke="black" points="416.5,-168.16 413,-158.16 409.5,-168.16 416.5,-168.16"/>
</g>
<!-- n4&#45;&gt;n6 -->
<g id="edge7" class="edge">
<title>n4&#45;&gt;n6</title>
<path fill="none" stroke="black" d="M690.07,-243.93C631.71,-222.25 531.07,-184.86 468.48,-161.61"/>
<polygon fill="black" stroke="black" points="469.37,-158.21 458.78,-158.01 466.94,-164.77 469.37,-158.21"/>
</g>
<!-- n7 -->
<g id="node7" class="node">
<title>n7</title>
<path fill="palegreen" stroke="black" d="M1021,-158C1021,-158 775,-158 775,-158 769,-158 763,-152 763,-146 763,-146 763,-134 763,-134 763,-128 769,-122 775,-122 775,-122 1021,-122 1021,-122 1027,-122 1033,-128 1033,-134 1033,-134 1033,-146 1033,-146 1033,-152 1027,-158 1021,-158"/>
<text text-anchor="middle" x="898" y="-136.3" font-family="Arial" font-size="14.00">Correct: Labeling the change as reversible</text>
</g>
<!-- n5&#45;&gt;n7 -->
<g id="edge8" class="edge">
<title>n5&#45;&gt;n7</title>
<path fill="none" stroke="black" d="M1039.4,-243.81C1010.6,-222.87 961.81,-187.41 929.76,-164.1"/>
<polygon fill="black" stroke="black" points="931.74,-161.22 921.6,-158.16 927.62,-166.87 931.74,-161.22"/>
</g>
<!-- n8 -->
<g id="node8" class="node">
<title>n8</title>
<polygon fill="lightcoral" stroke="black" points="1325,-158 1090.5,-140 1325,-122 1559.5,-140 1325,-158"/>
<text text-anchor="middle" x="1325" y="-136.3" font-family="Arial" font-size="14.00">Partial: No depiction of freezing process</text>
</g>
<!-- n5&#45;&gt;n8 -->
<g id="edge9" class="edge">
<title>n5&#45;&gt;n8</title>
<path fill="none" stroke="black" d="M1100.3,-243.93C1148.8,-221.69 1233.5,-182.9 1283.9,-159.82"/>
<polygon fill="black" stroke="black" points="1285.57,-162.91 1293.2,-155.56 1282.65,-156.54 1285.57,-162.91"/>
</g>
<!-- n9 -->
<g id="node9" class="node">
<title>n9</title>
<polygon fill="#f28e8e" stroke="black" points="1290.5,-36 913.5,-36 913.5,0 1290.5,0 1290.5,-36"/>
<text text-anchor="middle" x="1102" y="-14.3" font-family="Arial" font-size="14.00">Connection between reversible change and freezing needed</text>
</g>
<!-- n8&#45;&gt;n9 -->
<g id="edge10" class="edge">
<title>n8&#45;&gt;n9</title>
<path fill="none" stroke="black" d="M1297.2,-124.04C1258.3,-103.12 1187.4,-64.97 1142.6,-40.86"/>
<polygon fill="black" stroke="black" points="1144.17,-37.73 1133.7,-36.08 1140.86,-43.89 1144.17,-37.73"/>
</g>
<!-- n10 -->
<g id="node10" class="node">
<title>n10</title>
<polygon fill="#f28e8e" stroke="black" points="1747,-36 1349,-36 1349,0 1747,0 1747,-36"/>
<text text-anchor="middle" x="1548" y="-14.3" font-family="Arial" font-size="14.00">Explanation of conditions for reversibility (temperature changes)</text>
</g>
<!-- n8&#45;&gt;n10 -->
<g id="edge11" class="edge">
<title>n8&#45;&gt;n10</title>
<path fill="none" stroke="black" d="M1352.8,-124.04C1391.7,-103.12 1462.6,-64.97 1507.4,-40.86"/>
<polygon fill="black" stroke="black" points="1509.14,-43.89 1516.3,-36.08 1505.83,-37.73 1509.14,-43.89"/>
</g>
</g>
</svg>
