<?xml version="1.0" encoding="UTF-8" standalone="no"?>
<!DOCTYPE svg PUBLIC "-//W3C//DTD SVG 1.1//EN"
 "http://www.w3.org/Graphics/SVG/1.1/DTD/svg11.dtd">
<!-- Generated by graphviz version 2.43.0 (0)
 -->
<!-- Pages: 1 -->
<svg width="1344pt" height="410pt"
 viewBox="0.00 0.00 1344.00 410.00" xmlns="http://www.w3.org/2000/svg" xmlns:xlink="http://www.w3.org/1999/xlink">
<g id="graph0" class="graph" transform="scale(1 1) rotate(0) translate(4 406)">
<polygon fill="white" stroke="transparent" points="-4,4 -4,-406 1340,-406 1340,4 -4,4"/>
<!-- n1 -->
<g id="node1" class="node">
<title>n1</title>
<polygon fill="lightblue" stroke="black" points="1088.5,-384 958.25,-402 697.75,-402 567.5,-384 697.75,-366 958.25,-366 1088.5,-384"/>
<text text-anchor="middle" x="828" y="-380.3" font-family="Arial" font-size="14.00">Draw two habitats and the different living things in each</text>
</g>
<!-- n2 -->
<g id="node2" class="node">
<title>n2</title>
<polygon fill="#fffdd0" stroke="black" points="788,-280 594,-280 594,-244 788,-244 788,-280"/>
<text text-anchor="middle" x="691" y="-258.3" font-family="Arial" font-size="14.00">Forest with trees and animals</text>
</g>
<!-- n1&#45;&gt;n2 -->
<g id="edge1" class="edge">
<title>n1&#45;&gt;n2</title>
<path fill="none" stroke="black" d="M808.37,-365.81C784.77,-345.13 745.02,-310.31 718.4,-287"/>
<polygon fill="black" stroke="black" points="720.42,-284.12 710.59,-280.16 715.81,-289.38 720.42,-284.12"/>
</g>
<!-- n3 -->
<g id="node3" class="node">
<title>n3</title>
<polygon fill="#fffdd0" stroke="black" points="1191,-280 951,-280 951,-244 1191,-244 1191,-280"/>
<text text-anchor="middle" x="1071" y="-258.3" font-family="Arial" font-size="14.00">Pond with aquatic plants and animals</text>
</g>
<!-- n1&#45;&gt;n3 -->
<g id="edge2" class="edge">
<title>n1&#45;&gt;n3</title>
<path fill="none" stroke="black" d="M862.56,-365.93C905.92,-344.52 980.31,-307.78 1027.5,-284.48"/>
<polygon fill="black" stroke="black" points="1029.17,-287.56 1036.6,-280.01 1026.08,-281.28 1029.17,-287.56"/>
</g>
<!-- n4 -->
<g id="node4" class="node">
<title>n4</title>
<path fill="palegreen" stroke="black" d="M354,-158C354,-158 12,-158 12,-158 6,-158 0,-152 0,-146 0,-146 0,-134 0,-134 0,-128 6,-122 12,-122 12,-122 354,-122 354,-122 360,-122 366,-128 366,-134 366,-134 366,-146 366,-146 366,-152 360,-158 354,-158"/>
<text text-anchor="middle" x="183" y="-136.3" font-family="Arial" font-size="14.00">Understands biodiversity: more terrestrial animals in forest</text>
</g>
<!-- n2&#45;&gt;n4 -->
<g id="edge3" class="edge">
<title>n2&#45;&gt;n4</title>
<path fill="none" stroke="black" d="M619.02,-244C525.61,-221.93 363,-183.52 264.95,-160.36"/>
<polygon fill="black" stroke="black" points="265.62,-156.92 255.08,-158.03 264.01,-163.73 265.62,-156.92"/>
</g>
<!-- n6 -->
<g id="node5" class="node">
<title>n6</title>
<polygon fill="lightcoral" stroke="black" points="691,-158 424.39,-140 691,-122 957.61,-140 691,-158"/>
<text text-anchor="middle" x="691" y="-136.3" font-family="Arial" font-size="14.00">Missing labels for some elements (e.g., clam)</text>
</g>
<!-- n2&#45;&gt;n6 -->
<g id="edge4" class="edge">
<title>n2&#45;&gt;n6</title>
<path fill="none" stroke="black" d="M691,-243.81C691,-224.11 691,-191.58 691,-168.39"/>
<polygon fill="black" stroke="black" points="694.5,-168.16 691,-158.16 687.5,-168.16 694.5,-168.16"/>
</g>
<!-- n5 -->
<g id="node6" class="node">
<title>n5</title>
<path fill="palegreen" stroke="black" d="M1324,-158C1324,-158 1028,-158 1028,-158 1022,-158 1016,-152 1016,-146 1016,-146 1016,-134 1016,-134 1016,-128 1022,-122 1028,-122 1028,-122 1324,-122 1324,-122 1330,-122 1336,-128 1336,-134 1336,-134 1336,-146 1336,-146 1336,-152 1330,-158 1324,-158"/>
<text text-anchor="middle" x="1176" y="-136.3" font-family="Arial" font-size="14.00">Understands biodiversity: more aquatic life in pond</text>
</g>
<!-- n3&#45;&gt;n5 -->
<g id="edge5" class="edge">
<title>n3&#45;&gt;n5</title>
<path fill="none" stroke="black" d="M1086,-243.81C1103.9,-223.4 1133.8,-189.21 1154.2,-165.91"/>
<polygon fill="black" stroke="black" points="1157.04,-167.99 1161,-158.16 1151.77,-163.37 1157.04,-167.99"/>
</g>
<!-- n7 -->
<g id="node7" class="node">
<title>n7</title>
<polygon fill="#f28e8e" stroke="black" points="860.5,-36 521.5,-36 521.5,0 860.5,0 860.5,-36"/>
<text text-anchor="middle" x="691" y="-14.3" font-family="Arial" font-size="14.00">Add missing labels: ensure every element is identified</text>
</g>
<!-- n6&#45;&gt;n7 -->
<g id="edge6" class="edge">
<title>n6&#45;&gt;n7</title>
<path fill="none" stroke="black" d="M691,-121.81C691,-102.11 691,-69.58 691,-46.39"/>
<polygon fill="black" stroke="black" points="694.5,-46.16 691,-36.16 687.5,-46.16 694.5,-46.16"/>
</g>
</g>
</svg>
