<?xml version="1.0" encoding="UTF-8" standalone="no"?>
<!DOCTYPE svg PUBLIC "-//W3C//DTD SVG 1.1//EN"
 "http://www.w3.org/Graphics/SVG/1.1/DTD/svg11.dtd">
<!-- Generated by graphviz version 2.43.0 (0)
 -->
<!-- Pages: 1 -->
<svg width="1105pt" height="410pt"
 viewBox="0.00 0.00 1104.55 410.00" xmlns="http://www.w3.org/2000/svg" xmlns:xlink="http://www.w3.org/1999/xlink">
<g id="graph0" class="graph" transform="scale(1 1) rotate(0) translate(4 406)">
<polygon fill="white" stroke="transparent" points="-4,4 -4,-406 1100.55,-406 1100.55,4 -4,4"/>
<!-- n1 -->
<g id="node1" class="node">
<title>n1</title>
<polygon fill="lightblue" stroke="black" points="638.5,-384 547.25,-402 364.75,-402 273.5,-384 364.75,-366 547.25,-366 638.5,-384"/>
<text text-anchor="middle" x="456" y="-380.3" font-family="Arial" font-size="14.00">Draw reversible changes (ice melting)</text>
</g>
<!-- n2 -->
<g id="node2" class="node">
<title>n2</title>
<polygon fill="#fffdd0" stroke="black" points="272,-280 0,-280 0,-244 272,-244 272,-280"/>
<text text-anchor="middle" x="136" y="-258.3" font-family="Arial" font-size="14.00">Light blue square representing an ice cube</text>
</g>
<!-- n1&#45;&gt;n2 -->
<g id="edge1" class="edge">
<title>n1&#45;&gt;n2</title>
<path fill="none" stroke="black" d="M410.49,-365.93C352.67,-344.25 252.97,-306.86 190.97,-283.61"/>
<polygon fill="black" stroke="black" points="191.94,-280.24 181.35,-280.01 189.49,-286.79 191.94,-280.24"/>
</g>
<!-- n3 -->
<g id="node3" class="node">
<title>n3</title>
<polygon fill="#fffdd0" stroke="black" points="581.5,-280 330.5,-280 330.5,-244 581.5,-244 581.5,-280"/>
<text text-anchor="middle" x="456" y="-258.3" font-family="Arial" font-size="14.00">Darker blue puddle next to the ice cube</text>
</g>
<!-- n1&#45;&gt;n3 -->
<g id="edge2" class="edge">
<title>n1&#45;&gt;n3</title>
<path fill="none" stroke="black" d="M456,-365.81C456,-346.11 456,-313.58 456,-290.39"/>
<polygon fill="black" stroke="black" points="459.5,-290.16 456,-280.16 452.5,-290.16 459.5,-290.16"/>
</g>
<!-- n4 -->
<g id="node4" class="node">
<title>n4</title>
<polygon fill="#fffdd0" stroke="black" points="955,-280 677,-280 677,-244 955,-244 955,-280"/>
<text text-anchor="middle" x="816" y="-258.3" font-family="Arial" font-size="14.00">Arrows above the puddle, representing heat</text>
</g>
<!-- n1&#45;&gt;n4 -->
<g id="edge3" class="edge">
<title>n1&#45;&gt;n4</title>
<path fill="none" stroke="black" d="M507.2,-365.93C572.64,-344.12 685.8,-306.4 755.45,-283.18"/>
<polygon fill="black" stroke="black" points="756.6,-286.49 764.98,-280.01 754.39,-279.85 756.6,-286.49"/>
</g>
<!-- n5 -->
<g id="node5" class="node">
<title>n5</title>
<path fill="palegreen" stroke="black" d="M239,-158C239,-158 33,-158 33,-158 27,-158 21,-152 21,-146 21,-146 21,-134 21,-134 21,-128 27,-122 33,-122 33,-122 239,-122 239,-122 245,-122 251,-128 251,-134 251,-134 251,-146 251,-146 251,-152 245,-158 239,-158"/>
<text text-anchor="middle" x="136" y="-136.3" font-family="Arial" font-size="14.00">Understands ice cube as solid state</text>
</g>
<!-- n2&#45;&gt;n5 -->
<g id="edge4" class="edge">
<title>n2&#45;&gt;n5</title>
<path fill="none" stroke="black" d="M136,-243.81C136,-224.11 136,-191.58 136,-168.39"/>
<polygon fill="black" stroke="black" points="139.5,-168.16 136,-158.16 132.5,-168.16 139.5,-168.16"/>
</g>
<!-- n6 -->
<g id="node6" class="node">
<title>n6</title>
<path fill="palegreen" stroke="black" d="M561,-158C561,-158 331,-158 331,-158 325,-158 319,-152 319,-146 319,-146 319,-134 319,-134 319,-128 325,-122 331,-122 331,-122 561,-122 561,-122 567,-122 573,-128 573,-134 573,-134 573,-146 573,-146 573,-152 567,-158 561,-158"/>
<text text-anchor="middle" x="446" y="-136.3" font-family="Arial" font-size="14.00">Understands change from solid to liquid</text>
</g>
<!-- n3&#45;&gt;n6 -->
<g id="edge5" class="edge">
<title>n3&#45;&gt;n6</title>
<path fill="none" stroke="black" d="M454.57,-243.81C452.93,-224.11 450.22,-191.58 448.28,-168.39"/>
<polygon fill="black" stroke="black" points="451.75,-167.84 447.43,-158.16 444.77,-168.42 451.75,-167.84"/>
</g>
<!-- n7 -->
<g id="node7" class="node">
<title>n7</title>
<polygon fill="lightcoral" stroke="black" points="864,-158 631.41,-140 864,-122 1096.59,-140 864,-158"/>
<text text-anchor="middle" x="864" y="-136.3" font-family="Arial" font-size="14.00">Struggles with complete cycle depiction</text>
</g>
<!-- n4&#45;&gt;n7 -->
<g id="edge6" class="edge">
<title>n4&#45;&gt;n7</title>
<path fill="none" stroke="black" d="M822.88,-243.81C830.87,-223.82 844.15,-190.62 853.45,-167.37"/>
<polygon fill="black" stroke="black" points="856.83,-168.35 857.29,-157.77 850.33,-165.75 856.83,-168.35"/>
</g>
<!-- n8 -->
<g id="node8" class="node">
<title>n8</title>
<polygon fill="#f28e8e" stroke="black" points="1001.5,-36 726.5,-36 726.5,0 1001.5,0 1001.5,-36"/>
<text text-anchor="middle" x="864" y="-14.3" font-family="Arial" font-size="14.00">Use labels for heating and cooling changes</text>
</g>
<!-- n7&#45;&gt;n8 -->
<g id="edge7" class="edge">
<title>n7&#45;&gt;n8</title>
<path fill="none" stroke="black" d="M864,-121.81C864,-102.11 864,-69.58 864,-46.39"/>
<polygon fill="black" stroke="black" points="867.5,-46.16 864,-36.16 860.5,-46.16 867.5,-46.16"/>
</g>
</g>
</svg>
