<?xml version="1.0" encoding="UTF-8" standalone="no"?>
<!DOCTYPE svg PUBLIC "-//W3C//DTD SVG 1.1//EN"
 "http://www.w3.org/Graphics/SVG/1.1/DTD/svg11.dtd">
<!-- Generated by graphviz version 2.43.0 (0)
 -->
<!-- Pages: 1 -->
<svg width="1288pt" height="410pt"
 viewBox="0.00 0.00 1287.50 410.00" xmlns="http://www.w3.org/2000/svg" xmlns:xlink="http://www.w3.org/1999/xlink">
<g id="graph0" class="graph" transform="scale(1 1) rotate(0) translate(4 406)">
<polygon fill="white" stroke="transparent" points="-4,4 -4,-406 1283.5,-406 1283.5,4 -4,4"/>
<!-- n1 -->
<g id="node1" class="node">
<title>n1</title>
<polygon fill="lightblue" stroke="black" points="672,-384 580.75,-402 398.25,-402 307,-384 398.25,-366 580.75,-366 672,-384"/>
<text text-anchor="middle" x="489.5" y="-380.3" font-family="Arial" font-size="14.00">Draw a fish in their habitat with labels.</text>
</g>
<!-- n2 -->
<g id="node2" class="node">
<title>n2</title>
<polygon fill="#fffdd0" stroke="black" points="152.5,-280 76.5,-280 76.5,-244 152.5,-244 152.5,-280"/>
<text text-anchor="middle" x="114.5" y="-258.3" font-family="Arial" font-size="14.00">Large fish</text>
</g>
<!-- n1&#45;&gt;n2 -->
<g id="edge1" class="edge">
<title>n1&#45;&gt;n2</title>
<path fill="none" stroke="black" d="M436.17,-365.93C363.03,-342.53 232.69,-300.82 162.47,-278.35"/>
<polygon fill="black" stroke="black" points="163.15,-274.89 152.56,-275.18 161.02,-281.56 163.15,-274.89"/>
</g>
<!-- n3 -->
<g id="node3" class="node">
<title>n3</title>
<polygon fill="#fffdd0" stroke="black" points="257.5,-158 177.5,-158 177.5,-122 257.5,-122 257.5,-158"/>
<text text-anchor="middle" x="217.5" y="-136.3" font-family="Arial" font-size="14.00">Blue water</text>
</g>
<!-- n1&#45;&gt;n3 -->
<g id="edge2" class="edge">
<title>n1&#45;&gt;n3</title>
<path fill="none" stroke="black" d="M470.37,-365.98C422.89,-323.74 299.49,-213.95 244.56,-165.08"/>
<polygon fill="black" stroke="black" points="246.77,-162.36 236.97,-158.32 242.11,-167.58 246.77,-162.36"/>
</g>
<!-- n4 -->
<g id="node4" class="node">
<title>n4</title>
<polygon fill="#fffdd0" stroke="black" points="555,-280 424,-280 424,-244 555,-244 555,-280"/>
<text text-anchor="middle" x="489.5" y="-258.3" font-family="Arial" font-size="14.00">Bubbles above fish</text>
</g>
<!-- n1&#45;&gt;n4 -->
<g id="edge3" class="edge">
<title>n1&#45;&gt;n4</title>
<path fill="none" stroke="black" d="M489.5,-365.81C489.5,-346.11 489.5,-313.58 489.5,-290.39"/>
<polygon fill="black" stroke="black" points="493,-290.16 489.5,-280.16 486,-290.16 493,-290.16"/>
</g>
<!-- n5 -->
<g id="node5" class="node">
<title>n5</title>
<polygon fill="#fffdd0" stroke="black" points="755.5,-280 613.5,-280 613.5,-244 755.5,-244 755.5,-280"/>
<text text-anchor="middle" x="684.5" y="-258.3" font-family="Arial" font-size="14.00">Green aquatic plants</text>
</g>
<!-- n1&#45;&gt;n5 -->
<g id="edge4" class="edge">
<title>n1&#45;&gt;n5</title>
<path fill="none" stroke="black" d="M517.44,-365.81C551.76,-344.69 610.07,-308.81 647.93,-285.51"/>
<polygon fill="black" stroke="black" points="649.93,-288.39 656.61,-280.16 646.26,-282.43 649.93,-288.39"/>
</g>
<!-- n6 -->
<g id="node6" class="node">
<title>n6</title>
<polygon fill="#fffdd0" stroke="black" points="921,-280 814,-280 814,-244 921,-244 921,-280"/>
<text text-anchor="middle" x="867.5" y="-258.3" font-family="Arial" font-size="14.00">Rock with snail</text>
</g>
<!-- n1&#45;&gt;n6 -->
<g id="edge5" class="edge">
<title>n1&#45;&gt;n6</title>
<path fill="none" stroke="black" d="M543.26,-365.93C612.12,-344.07 731.27,-306.25 804.37,-283.04"/>
<polygon fill="black" stroke="black" points="805.45,-286.37 813.93,-280.01 803.34,-279.69 805.45,-286.37"/>
</g>
<!-- n7 -->
<g id="node7" class="node">
<title>n7</title>
<path fill="palegreen" stroke="black" d="M107,-158C107,-158 12,-158 12,-158 6,-158 0,-152 0,-146 0,-146 0,-134 0,-134 0,-128 6,-122 12,-122 12,-122 107,-122 107,-122 113,-122 119,-128 119,-134 119,-134 119,-146 119,-146 119,-152 113,-158 107,-158"/>
<text text-anchor="middle" x="59.5" y="-136.3" font-family="Arial" font-size="14.00">Fish needs water</text>
</g>
<!-- n2&#45;&gt;n7 -->
<g id="edge6" class="edge">
<title>n2&#45;&gt;n7</title>
<path fill="none" stroke="black" d="M106.62,-243.81C97.47,-223.85 82.28,-190.7 71.62,-167.45"/>
<polygon fill="black" stroke="black" points="74.71,-165.79 67.37,-158.16 68.35,-168.71 74.71,-165.79"/>
</g>
<!-- n10 -->
<g id="node8" class="node">
<title>n10</title>
<path fill="palegreen" stroke="black" d="M241.5,-36C241.5,-36 23.5,-36 23.5,-36 17.5,-36 11.5,-30 11.5,-24 11.5,-24 11.5,-12 11.5,-12 11.5,-6 17.5,0 23.5,0 23.5,0 241.5,0 241.5,0 247.5,0 253.5,-6 253.5,-12 253.5,-12 253.5,-24 253.5,-24 253.5,-30 247.5,-36 241.5,-36"/>
<text text-anchor="middle" x="132.5" y="-14.3" font-family="Arial" font-size="14.00">Habitat provides necessary resources</text>
</g>
<!-- n3&#45;&gt;n10 -->
<g id="edge7" class="edge">
<title>n3&#45;&gt;n10</title>
<path fill="none" stroke="black" d="M205.32,-121.81C190.99,-101.58 167.07,-67.81 150.58,-44.52"/>
<polygon fill="black" stroke="black" points="153.3,-42.3 144.66,-36.16 147.58,-46.34 153.3,-42.3"/>
</g>
<!-- n8 -->
<g id="node9" class="node">
<title>n8</title>
<polygon fill="lightcoral" stroke="black" points="529.5,-158 315.17,-140 529.5,-122 743.83,-140 529.5,-158"/>
<text text-anchor="middle" x="529.5" y="-136.3" font-family="Arial" font-size="14.00">Fish breathes using oxygen in water</text>
</g>
<!-- n4&#45;&gt;n8 -->
<g id="edge8" class="edge">
<title>n4&#45;&gt;n8</title>
<path fill="none" stroke="black" d="M495.23,-243.81C501.89,-223.82 512.96,-190.62 520.71,-167.37"/>
<polygon fill="black" stroke="black" points="524.07,-168.36 523.91,-157.77 517.43,-166.15 524.07,-168.36"/>
</g>
<!-- n9 -->
<g id="node10" class="node">
<title>n9</title>
<polygon fill="lightcoral" stroke="black" points="1040.5,-158 801.5,-140 1040.5,-122 1279.5,-140 1040.5,-158"/>
<text text-anchor="middle" x="1040.5" y="-136.3" font-family="Arial" font-size="14.00">Plants need sunlight and provide oxygen</text>
</g>
<!-- n5&#45;&gt;n9 -->
<g id="edge9" class="edge">
<title>n5&#45;&gt;n9</title>
<path fill="none" stroke="black" d="M735.13,-243.93C802.73,-221.15 921.82,-181.01 989.57,-158.17"/>
<polygon fill="black" stroke="black" points="990.83,-161.44 999.19,-154.93 988.6,-154.8 990.83,-161.44"/>
</g>
<!-- n7&#45;&gt;n10 -->
<g id="edge10" class="edge">
<title>n7&#45;&gt;n10</title>
<path fill="none" stroke="black" d="M69.96,-121.81C82.21,-101.67 102.63,-68.1 116.79,-44.83"/>
<polygon fill="black" stroke="black" points="119.86,-46.52 122.06,-36.16 113.87,-42.89 119.86,-46.52"/>
</g>
<!-- n12 -->
<g id="node11" class="node">
<title>n12</title>
<polygon fill="#f28e8e" stroke="black" points="674,-36 385,-36 385,0 674,0 674,-36"/>
<text text-anchor="middle" x="529.5" y="-14.3" font-family="Arial" font-size="14.00">Explain the fish&#39;s use of bubbles for breathing</text>
</g>
<!-- n8&#45;&gt;n12 -->
<g id="edge11" class="edge">
<title>n8&#45;&gt;n12</title>
<path fill="none" stroke="black" d="M529.5,-121.81C529.5,-102.11 529.5,-69.58 529.5,-46.39"/>
<polygon fill="black" stroke="black" points="533,-46.16 529.5,-36.16 526,-46.16 533,-46.16"/>
</g>
<!-- n11 -->
<g id="node12" class="node">
<title>n11</title>
<polygon fill="#f28e8e" stroke="black" points="1202,-36 879,-36 879,0 1202,0 1202,-36"/>
<text text-anchor="middle" x="1040.5" y="-14.3" font-family="Arial" font-size="14.00">Label how plants provide oxygen and need sunlight</text>
</g>
<!-- n9&#45;&gt;n11 -->
<g id="edge12" class="edge">
<title>n9&#45;&gt;n11</title>
<path fill="none" stroke="black" d="M1040.5,-121.81C1040.5,-102.11 1040.5,-69.58 1040.5,-46.39"/>
<polygon fill="black" stroke="black" points="1044,-46.16 1040.5,-36.16 1037,-46.16 1044,-46.16"/>
</g>
</g>
</svg>
