<?xml version="1.0" encoding="UTF-8" standalone="no"?>
<!DOCTYPE svg PUBLIC "-//W3C//DTD SVG 1.1//EN"
 "http://www.w3.org/Graphics/SVG/1.1/DTD/svg11.dtd">
<!-- Generated by graphviz version 2.43.0 (0)
 -->
<!-- Pages: 1 -->
<svg width="1563pt" height="410pt"
 viewBox="0.00 0.00 1562.50 410.00" xmlns="http://www.w3.org/2000/svg" xmlns:xlink="http://www.w3.org/1999/xlink">
<g id="graph0" class="graph" transform="scale(1 1) rotate(0) translate(4 406)">
<polygon fill="white" stroke="transparent" points="-4,4 -4,-406 1558.5,-406 1558.5,4 -4,4"/>
<!-- n1 -->
<g id="node1" class="node">
<title>n1</title>
<polygon fill="lightblue" stroke="black" points="812.87,-384 671.68,-402 389.32,-402 248.13,-384 389.32,-366 671.68,-366 812.87,-384"/>
<text text-anchor="middle" x="530.5" y="-380.3" font-family="Arial" font-size="14.00">Draw animals in their habitats with labels (e.g., fish in water)</text>
</g>
<!-- n2 -->
<g id="node2" class="node">
<title>n2</title>
<polygon fill="#fffdd0" stroke="black" points="305,-280 0,-280 0,-244 305,-244 305,-280"/>
<text text-anchor="middle" x="152.5" y="-258.3" font-family="Arial" font-size="14.00">Fish swimming in water labeled &#39;fish&#39; and &#39;water&#39;</text>
</g>
<!-- n1&#45;&gt;n2 -->
<g id="edge1" class="edge">
<title>n1&#45;&gt;n2</title>
<path fill="none" stroke="black" d="M476.74,-365.93C407.88,-344.07 288.73,-306.25 215.63,-283.04"/>
<polygon fill="black" stroke="black" points="216.66,-279.69 206.07,-280.01 214.55,-286.37 216.66,-279.69"/>
</g>
<!-- n3 -->
<g id="node3" class="node">
<title>n3</title>
<polygon fill="#fffdd0" stroke="black" points="697.5,-280 363.5,-280 363.5,-244 697.5,-244 697.5,-280"/>
<text text-anchor="middle" x="530.5" y="-258.3" font-family="Arial" font-size="14.00">Deer standing among trees labeled &#39;deer&#39; and &#39;forest&#39;</text>
</g>
<!-- n1&#45;&gt;n3 -->
<g id="edge2" class="edge">
<title>n1&#45;&gt;n3</title>
<path fill="none" stroke="black" d="M530.5,-365.81C530.5,-346.11 530.5,-313.58 530.5,-290.39"/>
<polygon fill="black" stroke="black" points="534,-290.16 530.5,-280.16 527,-290.16 534,-290.16"/>
</g>
<!-- n4 -->
<g id="node4" class="node">
<title>n4</title>
<polygon fill="#fffdd0" stroke="black" points="939,-280 756,-280 756,-244 939,-244 939,-280"/>
<text text-anchor="middle" x="847.5" y="-258.3" font-family="Arial" font-size="14.00">Bird flying missing label &#39;air&#39;</text>
</g>
<!-- n1&#45;&gt;n4 -->
<g id="edge3" class="edge">
<title>n1&#45;&gt;n4</title>
<path fill="none" stroke="black" d="M575.58,-365.93C632.86,-344.25 731.63,-306.86 793.05,-283.61"/>
<polygon fill="black" stroke="black" points="794.45,-286.82 802.57,-280.01 791.98,-280.27 794.45,-286.82"/>
</g>
<!-- n5 -->
<g id="node5" class="node">
<title>n5</title>
<path fill="palegreen" stroke="black" d="M383,-158C383,-158 162,-158 162,-158 156,-158 150,-152 150,-146 150,-146 150,-134 150,-134 150,-128 156,-122 162,-122 162,-122 383,-122 383,-122 389,-122 395,-128 395,-134 395,-134 395,-146 395,-146 395,-152 389,-158 383,-158"/>
<text text-anchor="middle" x="272.5" y="-136.3" font-family="Arial" font-size="14.00">Animals shown in appropriate habitats</text>
</g>
<!-- n2&#45;&gt;n5 -->
<g id="edge4" class="edge">
<title>n2&#45;&gt;n5</title>
<path fill="none" stroke="black" d="M169.69,-243.81C190.28,-223.22 224.89,-188.61 248.2,-165.3"/>
<polygon fill="black" stroke="black" points="250.74,-167.71 255.34,-158.16 245.79,-162.76 250.74,-167.71"/>
</g>
<!-- n3&#45;&gt;n5 -->
<g id="edge5" class="edge">
<title>n3&#45;&gt;n5</title>
<path fill="none" stroke="black" d="M493.81,-243.93C447.67,-222.48 368.46,-185.63 318.37,-162.33"/>
<polygon fill="black" stroke="black" points="319.6,-159.04 309.06,-158.01 316.66,-165.39 319.6,-159.04"/>
</g>
<!-- n6 -->
<g id="node6" class="node">
<title>n6</title>
<polygon fill="lightcoral" stroke="black" points="786.5,-158 512.5,-140 786.5,-122 1060.5,-140 786.5,-158"/>
<text text-anchor="middle" x="786.5" y="-136.3" font-family="Arial" font-size="14.00">Lack of interaction between animals and plants</text>
</g>
<!-- n4&#45;&gt;n6 -->
<g id="edge6" class="edge">
<title>n4&#45;&gt;n6</title>
<path fill="none" stroke="black" d="M838.76,-243.81C828.51,-223.64 811.42,-190.02 799.59,-166.74"/>
<polygon fill="black" stroke="black" points="802.68,-165.1 795.03,-157.77 796.44,-168.27 802.68,-165.1"/>
</g>
<!-- n7 -->
<g id="node7" class="node">
<title>n7</title>
<polygon fill="lightcoral" stroke="black" points="1336.5,-158 1118.5,-140 1336.5,-122 1554.5,-140 1336.5,-158"/>
<text text-anchor="middle" x="1336.5" y="-136.3" font-family="Arial" font-size="14.00">Most resources not labeled (e.g., air)</text>
</g>
<!-- n4&#45;&gt;n7 -->
<g id="edge7" class="edge">
<title>n4&#45;&gt;n7</title>
<path fill="none" stroke="black" d="M916.78,-244C1012.3,-220.57 1182.9,-178.7 1274.4,-156.24"/>
<polygon fill="black" stroke="black" points="1275.51,-159.57 1284.4,-153.8 1273.86,-152.77 1275.51,-159.57"/>
</g>
<!-- n8 -->
<g id="node8" class="node">
<title>n8</title>
<polygon fill="#f28e8e" stroke="black" points="978,-36 595,-36 595,0 978,0 978,-36"/>
<text text-anchor="middle" x="786.5" y="-14.3" font-family="Arial" font-size="14.00">Add interactions between animals and plants to show system</text>
</g>
<!-- n6&#45;&gt;n8 -->
<g id="edge8" class="edge">
<title>n6&#45;&gt;n8</title>
<path fill="none" stroke="black" d="M786.5,-121.81C786.5,-102.11 786.5,-69.58 786.5,-46.39"/>
<polygon fill="black" stroke="black" points="790,-46.16 786.5,-36.16 783,-46.16 790,-46.16"/>
</g>
<!-- n9 -->
<g id="node9" class="node">
<title>n9</title>
<polygon fill="#f28e8e" stroke="black" points="1458.5,-36 1214.5,-36 1214.5,0 1458.5,0 1458.5,-36"/>
<text text-anchor="middle" x="1336.5" y="-14.3" font-family="Arial" font-size="14.00">Label all necessary resources like &#39;air&#39;</text>
</g>
<!-- n7&#45;&gt;n9 -->
<g id="edge9" class="edge">
<title>n7&#45;&gt;n9</title>
<path fill="none" stroke="black" d="M1336.5,-121.81C1336.5,-102.11 1336.5,-69.58 1336.5,-46.39"/>
<polygon fill="black" stroke="black" points="1340,-46.16 1336.5,-36.16 1333,-46.16 1340,-46.16"/>
</g>
</g>
</svg>
