<?xml version="1.0" encoding="UTF-8" standalone="no"?>
<!DOCTYPE svg PUBLIC "-//W3C//DTD SVG 1.1//EN"
 "http://www.w3.org/Graphics/SVG/1.1/DTD/svg11.dtd">
<!-- Generated by graphviz version 2.43.0 (0)
 -->
<!-- Pages: 1 -->
<svg width="1007pt" height="288pt"
 viewBox="0.00 0.00 1006.50 288.00" xmlns="http://www.w3.org/2000/svg" xmlns:xlink="http://www.w3.org/1999/xlink">
<g id="graph0" class="graph" transform="scale(1 1) rotate(0) translate(4 284)">
<polygon fill="white" stroke="transparent" points="-4,4 -4,-284 1002.5,-284 1002.5,4 -4,4"/>
<!-- n1 -->
<g id="node1" class="node">
<title>n1</title>
<polygon fill="lightblue" stroke="black" points="753.5,-262 639.75,-280 412.25,-280 298.5,-262 412.25,-244 639.75,-244 753.5,-262"/>
<text text-anchor="middle" x="526" y="-258.3" font-family="Arial" font-size="14.00">Illustrate plants with and without water and light.</text>
</g>
<!-- n2 -->
<g id="node2" class="node">
<title>n2</title>
<polygon fill="#fffdd0" stroke="black" points="326,-158 0,-158 0,-122 326,-122 326,-158"/>
<text text-anchor="middle" x="163" y="-136.3" font-family="Arial" font-size="14.00">Healthy plant with dark green leaves and new buds.</text>
</g>
<!-- n1&#45;&gt;n2 -->
<g id="edge1" class="edge">
<title>n1&#45;&gt;n2</title>
<path fill="none" stroke="black" d="M474.38,-243.93C408.38,-222.12 294.29,-184.4 224.06,-161.18"/>
<polygon fill="black" stroke="black" points="225.04,-157.82 214.45,-158.01 222.85,-164.47 225.04,-157.82"/>
</g>
<!-- n3 -->
<g id="node3" class="node">
<title>n3</title>
<polygon fill="#fffdd0" stroke="black" points="667.5,-158 384.5,-158 384.5,-122 667.5,-122 667.5,-158"/>
<text text-anchor="middle" x="526" y="-136.3" font-family="Arial" font-size="14.00">Unhealthy plant with drooping, wilted leaves.</text>
</g>
<!-- n1&#45;&gt;n3 -->
<g id="edge2" class="edge">
<title>n1&#45;&gt;n3</title>
<path fill="none" stroke="black" d="M526,-243.81C526,-224.11 526,-191.58 526,-168.39"/>
<polygon fill="black" stroke="black" points="529.5,-168.16 526,-158.16 522.5,-168.16 529.5,-168.16"/>
</g>
<!-- n4 -->
<g id="node4" class="node">
<title>n4</title>
<polygon fill="#fffdd0" stroke="black" points="998.5,-158 725.5,-158 725.5,-122 998.5,-122 998.5,-158"/>
<text text-anchor="middle" x="862" y="-136.3" font-family="Arial" font-size="14.00">Unhealthy plant with pale yellowing leaves.</text>
</g>
<!-- n1&#45;&gt;n4 -->
<g id="edge3" class="edge">
<title>n1&#45;&gt;n4</title>
<path fill="none" stroke="black" d="M573.78,-243.93C634.62,-222.21 739.61,-184.71 804.69,-161.47"/>
<polygon fill="black" stroke="black" points="806.14,-164.67 814.38,-158.01 803.79,-158.08 806.14,-164.67"/>
</g>
<!-- n5 -->
<g id="node5" class="node">
<title>n5</title>
<path fill="palegreen" stroke="black" d="M282.5,-36C282.5,-36 43.5,-36 43.5,-36 37.5,-36 31.5,-30 31.5,-24 31.5,-24 31.5,-12 31.5,-12 31.5,-6 37.5,0 43.5,0 43.5,0 282.5,0 282.5,0 288.5,0 294.5,-6 294.5,-12 294.5,-12 294.5,-24 294.5,-24 294.5,-30 288.5,-36 282.5,-36"/>
<text text-anchor="middle" x="163" y="-14.3" font-family="Arial" font-size="14.00">Plants need water and light to be healthy.</text>
</g>
<!-- n2&#45;&gt;n5 -->
<g id="edge4" class="edge">
<title>n2&#45;&gt;n5</title>
<path fill="none" stroke="black" d="M163,-121.81C163,-102.11 163,-69.58 163,-46.39"/>
<polygon fill="black" stroke="black" points="166.5,-46.16 163,-36.16 159.5,-46.16 166.5,-46.16"/>
</g>
<!-- n6 -->
<g id="node6" class="node">
<title>n6</title>
<path fill="palegreen" stroke="black" d="M626.5,-36C626.5,-36 425.5,-36 425.5,-36 419.5,-36 413.5,-30 413.5,-24 413.5,-24 413.5,-12 413.5,-12 413.5,-6 419.5,0 425.5,0 425.5,0 626.5,0 626.5,0 632.5,0 638.5,-6 638.5,-12 638.5,-12 638.5,-24 638.5,-24 638.5,-30 632.5,-36 626.5,-36"/>
<text text-anchor="middle" x="526" y="-14.3" font-family="Arial" font-size="14.00">Lack of water causes plants to wilt.</text>
</g>
<!-- n3&#45;&gt;n6 -->
<g id="edge5" class="edge">
<title>n3&#45;&gt;n6</title>
<path fill="none" stroke="black" d="M526,-121.81C526,-102.11 526,-69.58 526,-46.39"/>
<polygon fill="black" stroke="black" points="529.5,-46.16 526,-36.16 522.5,-46.16 529.5,-46.16"/>
</g>
<!-- n7 -->
<g id="node7" class="node">
<title>n7</title>
<path fill="palegreen" stroke="black" d="M967,-36C967,-36 757,-36 757,-36 751,-36 745,-30 745,-24 745,-24 745,-12 745,-12 745,-6 751,0 757,0 757,0 967,0 967,0 973,0 979,-6 979,-12 979,-12 979,-24 979,-24 979,-30 973,-36 967,-36"/>
<text text-anchor="middle" x="862" y="-14.3" font-family="Arial" font-size="14.00">Lack of light causes plants to yellow.</text>
</g>
<!-- n4&#45;&gt;n7 -->
<g id="edge6" class="edge">
<title>n4&#45;&gt;n7</title>
<path fill="none" stroke="black" d="M862,-121.81C862,-102.11 862,-69.58 862,-46.39"/>
<polygon fill="black" stroke="black" points="865.5,-46.16 862,-36.16 858.5,-46.16 865.5,-46.16"/>
</g>
</g>
</svg>
