<?xml version="1.0" encoding="UTF-8" standalone="no"?>
<!DOCTYPE svg PUBLIC "-//W3C//DTD SVG 1.1//EN"
 "http://www.w3.org/Graphics/SVG/1.1/DTD/svg11.dtd">
<!-- Generated by graphviz version 2.43.0 (0)
 -->
<!-- Pages: 1 -->
<svg width="1637pt" height="410pt"
 viewBox="0.00 0.00 1636.50 410.00" xmlns="http://www.w3.org/2000/svg" xmlns:xlink="http://www.w3.org/1999/xlink">
<g id="graph0" class="graph" transform="scale(1 1) rotate(0) translate(4 406)">
<polygon fill="white" stroke="transparent" points="-4,4 -4,-406 1632.5,-406 1632.5,4 -4,4"/>
<!-- n1 -->
<g id="node1" class="node">
<title>n1</title>
<polygon fill="lightblue" stroke="black" points="1005.5,-384 894,-402 671,-402 559.5,-384 671,-366 894,-366 1005.5,-384"/>
<text text-anchor="middle" x="782.5" y="-380.3" font-family="Arial" font-size="14.00">Draw a string telephone between two students.</text>
</g>
<!-- n2 -->
<g id="node2" class="node">
<title>n2</title>
<polygon fill="#fffdd0" stroke="black" points="404.5,-280 212.5,-280 212.5,-244 404.5,-244 404.5,-280"/>
<text text-anchor="middle" x="308.5" y="-258.3" font-family="Arial" font-size="14.00">Two kids with cups and string</text>
</g>
<!-- n1&#45;&gt;n2 -->
<g id="edge1" class="edge">
<title>n1&#45;&gt;n2</title>
<path fill="none" stroke="black" d="M715.34,-366C628.36,-343.98 477.07,-305.68 385.52,-282.5"/>
<polygon fill="black" stroke="black" points="386.3,-279.09 375.75,-280.03 384.59,-285.87 386.3,-279.09"/>
</g>
<!-- n3 -->
<g id="node3" class="node">
<title>n3</title>
<polygon fill="#fffdd0" stroke="black" points="750,-280 573,-280 573,-244 750,-244 750,-280"/>
<text text-anchor="middle" x="661.5" y="-258.3" font-family="Arial" font-size="14.00">Loose string between cups</text>
</g>
<!-- n1&#45;&gt;n3 -->
<g id="edge2" class="edge">
<title>n1&#45;&gt;n3</title>
<path fill="none" stroke="black" d="M765.16,-365.81C744.41,-345.22 709.51,-310.61 686,-287.3"/>
<polygon fill="black" stroke="black" points="688.37,-284.72 678.8,-280.16 683.44,-289.69 688.37,-284.72"/>
</g>
<!-- n4 -->
<g id="node4" class="node">
<title>n4</title>
<polygon fill="#fffdd0" stroke="black" points="1099.5,-280 907.5,-280 907.5,-244 1099.5,-244 1099.5,-280"/>
<text text-anchor="middle" x="1003.5" y="-258.3" font-family="Arial" font-size="14.00">Sound lines coming from cup</text>
</g>
<!-- n1&#45;&gt;n4 -->
<g id="edge3" class="edge">
<title>n1&#45;&gt;n4</title>
<path fill="none" stroke="black" d="M814.16,-365.81C853.3,-344.55 919.98,-308.35 962.86,-285.07"/>
<polygon fill="black" stroke="black" points="964.78,-288.01 971.89,-280.16 961.43,-281.86 964.78,-288.01"/>
</g>
<!-- n5 -->
<g id="node5" class="node">
<title>n5</title>
<polygon fill="#fffdd0" stroke="black" points="1429.5,-280 1283.5,-280 1283.5,-244 1429.5,-244 1429.5,-280"/>
<text text-anchor="middle" x="1356.5" y="-258.3" font-family="Arial" font-size="14.00">Unrelated street lamp</text>
</g>
<!-- n1&#45;&gt;n5 -->
<g id="edge4" class="edge">
<title>n1&#45;&gt;n5</title>
<path fill="none" stroke="black" d="M863.83,-366C972.39,-343.3 1163.7,-303.31 1273.2,-280.41"/>
<polygon fill="black" stroke="black" points="1274.13,-283.79 1283.2,-278.31 1272.69,-276.94 1274.13,-283.79"/>
</g>
<!-- n6 -->
<g id="node6" class="node">
<title>n6</title>
<path fill="palegreen" stroke="black" d="M287,-158C287,-158 12,-158 12,-158 6,-158 0,-152 0,-146 0,-146 0,-134 0,-134 0,-128 6,-122 12,-122 12,-122 287,-122 287,-122 293,-122 299,-128 299,-134 299,-134 299,-146 299,-146 299,-152 293,-158 287,-158"/>
<text text-anchor="middle" x="149.5" y="-136.3" font-family="Arial" font-size="14.00">Attempt to represent string telephone elements</text>
</g>
<!-- n2&#45;&gt;n6 -->
<g id="edge5" class="edge">
<title>n2&#45;&gt;n6</title>
<path fill="none" stroke="black" d="M285.72,-243.81C258.09,-222.96 211.39,-187.71 180.5,-164.4"/>
<polygon fill="black" stroke="black" points="182.33,-161.4 172.24,-158.16 178.11,-166.98 182.33,-161.4"/>
</g>
<!-- n7 -->
<g id="node7" class="node">
<title>n7</title>
<polygon fill="lightcoral" stroke="black" points="612.5,-158 356.95,-140 612.5,-122 868.05,-140 612.5,-158"/>
<text text-anchor="middle" x="612.5" y="-136.3" font-family="Arial" font-size="14.00">Misunderstanding of taut string requirement</text>
</g>
<!-- n3&#45;&gt;n7 -->
<g id="edge6" class="edge">
<title>n3&#45;&gt;n7</title>
<path fill="none" stroke="black" d="M654.48,-243.81C646.28,-223.73 632.64,-190.32 623.14,-167.06"/>
<polygon fill="black" stroke="black" points="626.37,-165.71 619.35,-157.77 619.89,-168.35 626.37,-165.71"/>
</g>
<!-- n8 -->
<g id="node8" class="node">
<title>n8</title>
<path fill="palegreen" stroke="black" d="M1168.5,-158C1168.5,-158 938.5,-158 938.5,-158 932.5,-158 926.5,-152 926.5,-146 926.5,-146 926.5,-134 926.5,-134 926.5,-128 932.5,-122 938.5,-122 938.5,-122 1168.5,-122 1168.5,-122 1174.5,-122 1180.5,-128 1180.5,-134 1180.5,-134 1180.5,-146 1180.5,-146 1180.5,-152 1174.5,-158 1168.5,-158"/>
<text text-anchor="middle" x="1053.5" y="-136.3" font-family="Arial" font-size="14.00">Correct depiction of sound transmission</text>
</g>
<!-- n4&#45;&gt;n8 -->
<g id="edge7" class="edge">
<title>n4&#45;&gt;n8</title>
<path fill="none" stroke="black" d="M1010.7,-243.81C1019,-223.85 1032.8,-190.7 1042.5,-167.45"/>
<polygon fill="black" stroke="black" points="1045.75,-168.74 1046.3,-158.16 1039.27,-166.09 1045.75,-168.74"/>
</g>
<!-- n9 -->
<g id="node9" class="node">
<title>n9</title>
<polygon fill="lightcoral" stroke="black" points="1433.5,-158 1238.5,-140 1433.5,-122 1628.5,-140 1433.5,-158"/>
<text text-anchor="middle" x="1433.5" y="-136.3" font-family="Arial" font-size="14.00">Non&#45;essential elements included</text>
</g>
<!-- n5&#45;&gt;n9 -->
<g id="edge8" class="edge">
<title>n5&#45;&gt;n9</title>
<path fill="none" stroke="black" d="M1367.5,-243.81C1380.6,-223.44 1402.5,-189.34 1417.4,-166.04"/>
<polygon fill="black" stroke="black" points="1420.5,-167.69 1423,-157.39 1414.63,-163.88 1420.5,-167.69"/>
</g>
<!-- n10 -->
<g id="node10" class="node">
<title>n10</title>
<polygon fill="#f28e8e" stroke="black" points="749.5,-36 475.5,-36 475.5,0 749.5,0 749.5,-36"/>
<text text-anchor="middle" x="612.5" y="-14.3" font-family="Arial" font-size="14.00">Keep the string taut for sound transmission</text>
</g>
<!-- n7&#45;&gt;n10 -->
<g id="edge9" class="edge">
<title>n7&#45;&gt;n10</title>
<path fill="none" stroke="black" d="M612.5,-121.81C612.5,-102.11 612.5,-69.58 612.5,-46.39"/>
<polygon fill="black" stroke="black" points="616,-46.16 612.5,-36.16 609,-46.16 616,-46.16"/>
</g>
<!-- n11 -->
<g id="node11" class="node">
<title>n11</title>
<polygon fill="#f28e8e" stroke="black" points="1585,-36 1282,-36 1282,0 1585,0 1585,-36"/>
<text text-anchor="middle" x="1433.5" y="-14.3" font-family="Arial" font-size="14.00">Focus on relevant elements to illustrate concept</text>
</g>
<!-- n9&#45;&gt;n11 -->
<g id="edge10" class="edge">
<title>n9&#45;&gt;n11</title>
<path fill="none" stroke="black" d="M1433.5,-121.81C1433.5,-102.11 1433.5,-69.58 1433.5,-46.39"/>
<polygon fill="black" stroke="black" points="1437,-46.16 1433.5,-36.16 1430,-46.16 1437,-46.16"/>
</g>
</g>
</svg>
