<?xml version="1.0" encoding="UTF-8" standalone="no"?>
<!DOCTYPE svg PUBLIC "-//W3C//DTD SVG 1.1//EN"
 "http://www.w3.org/Graphics/SVG/1.1/DTD/svg11.dtd">
<!-- Generated by graphviz version 2.43.0 (0)
 -->
<!-- Pages: 1 -->
<svg width="1465pt" height="410pt"
 viewBox="0.00 0.00 1464.50 410.00" xmlns="http://www.w3.org/2000/svg" xmlns:xlink="http://www.w3.org/1999/xlink">
<g id="graph0" class="graph" transform="scale(1 1) rotate(0) translate(4 406)">
<polygon fill="white" stroke="transparent" points="-4,4 -4,-406 1460.5,-406 1460.5,4 -4,4"/>
<!-- n1 -->
<g id="node1" class="node">
<title>n1</title>
<polygon fill="lightblue" stroke="black" points="781.5,-384 671.5,-402 451.5,-402 341.5,-384 451.5,-366 671.5,-366 781.5,-384"/>
<text text-anchor="middle" x="561.5" y="-380.3" font-family="Arial" font-size="14.00">Draw a string telephone between two students</text>
</g>
<!-- n2 -->
<g id="node2" class="node">
<title>n2</title>
<polygon fill="#fffdd0" stroke="black" points="185,-280 0,-280 0,-244 185,-244 185,-280"/>
<text text-anchor="middle" x="92.5" y="-258.3" font-family="Arial" font-size="14.00">Two students standing apart</text>
</g>
<!-- n1&#45;&gt;n2 -->
<g id="edge1" class="edge">
<title>n1&#45;&gt;n2</title>
<path fill="none" stroke="black" d="M494.8,-365.93C408.76,-343.92 259.41,-305.71 168.89,-282.55"/>
<polygon fill="black" stroke="black" points="169.53,-279.1 158.97,-280.01 167.79,-285.88 169.53,-279.1"/>
</g>
<!-- n3 -->
<g id="node3" class="node">
<title>n3</title>
<polygon fill="#fffdd0" stroke="black" points="398,-280 243,-280 243,-244 398,-244 398,-280"/>
<text text-anchor="middle" x="320.5" y="-258.3" font-family="Arial" font-size="14.00">Each holding a red cup</text>
</g>
<!-- n1&#45;&gt;n3 -->
<g id="edge2" class="edge">
<title>n1&#45;&gt;n3</title>
<path fill="none" stroke="black" d="M527.23,-365.93C484.22,-344.52 410.44,-307.78 363.64,-284.48"/>
<polygon fill="black" stroke="black" points="365.17,-281.33 354.66,-280.01 362.05,-287.6 365.17,-281.33"/>
</g>
<!-- n4 -->
<g id="node4" class="node">
<title>n4</title>
<polygon fill="#fffdd0" stroke="black" points="666.5,-280 456.5,-280 456.5,-244 666.5,-244 666.5,-280"/>
<text text-anchor="middle" x="561.5" y="-258.3" font-family="Arial" font-size="14.00">Black string connecting the cups</text>
</g>
<!-- n1&#45;&gt;n4 -->
<g id="edge3" class="edge">
<title>n1&#45;&gt;n4</title>
<path fill="none" stroke="black" d="M561.5,-365.81C561.5,-346.11 561.5,-313.58 561.5,-290.39"/>
<polygon fill="black" stroke="black" points="565,-290.16 561.5,-280.16 558,-290.16 565,-290.16"/>
</g>
<!-- n5 -->
<g id="node5" class="node">
<title>n5</title>
<polygon fill="#fffdd0" stroke="black" points="956,-280 725,-280 725,-244 956,-244 956,-280"/>
<text text-anchor="middle" x="840.5" y="-258.3" font-family="Arial" font-size="14.00">Blue arrows represent sound waves</text>
</g>
<!-- n1&#45;&gt;n5 -->
<g id="edge4" class="edge">
<title>n1&#45;&gt;n5</title>
<path fill="none" stroke="black" d="M601.18,-365.93C651.28,-344.39 737.45,-307.32 791.57,-284.04"/>
<polygon fill="black" stroke="black" points="793.15,-287.17 800.96,-280.01 790.39,-280.74 793.15,-287.17"/>
</g>
<!-- n6 -->
<g id="node6" class="node">
<title>n6</title>
<polygon fill="#fffdd0" stroke="black" points="1266,-280 1121,-280 1121,-244 1266,-244 1266,-280"/>
<text text-anchor="middle" x="1193.5" y="-258.3" font-family="Arial" font-size="14.00">Students are cheerful</text>
</g>
<!-- n1&#45;&gt;n6 -->
<g id="edge5" class="edge">
<title>n1&#45;&gt;n6</title>
<path fill="none" stroke="black" d="M651.04,-366C773.47,-342.75 991.43,-301.37 1110.4,-278.78"/>
<polygon fill="black" stroke="black" points="1111.33,-282.16 1120.5,-276.85 1110.02,-275.29 1111.33,-282.16"/>
</g>
<!-- n7 -->
<g id="node7" class="node">
<title>n7</title>
<path fill="palegreen" stroke="black" d="M288.5,-158C288.5,-158 70.5,-158 70.5,-158 64.5,-158 58.5,-152 58.5,-146 58.5,-146 58.5,-134 58.5,-134 58.5,-128 64.5,-122 70.5,-122 70.5,-122 288.5,-122 288.5,-122 294.5,-122 300.5,-128 300.5,-134 300.5,-134 300.5,-146 300.5,-146 300.5,-152 294.5,-158 288.5,-158"/>
<text text-anchor="middle" x="179.5" y="-136.3" font-family="Arial" font-size="14.00">Demonstrates use of string telephone</text>
</g>
<!-- n2&#45;&gt;n7 -->
<g id="edge6" class="edge">
<title>n2&#45;&gt;n7</title>
<path fill="none" stroke="black" d="M104.96,-243.81C119.63,-223.58 144.11,-189.81 161,-166.52"/>
<polygon fill="black" stroke="black" points="164.02,-168.31 167.06,-158.16 158.36,-164.2 164.02,-168.31"/>
</g>
<!-- n3&#45;&gt;n7 -->
<g id="edge7" class="edge">
<title>n3&#45;&gt;n7</title>
<path fill="none" stroke="black" d="M300.3,-243.81C275.9,-223.04 234.74,-188.01 207.35,-164.7"/>
<polygon fill="black" stroke="black" points="209.55,-161.97 199.66,-158.16 205.01,-167.3 209.55,-161.97"/>
</g>
<!-- n8 -->
<g id="node8" class="node">
<title>n8</title>
<path fill="palegreen" stroke="black" d="M602,-158C602,-158 415,-158 415,-158 409,-158 403,-152 403,-146 403,-146 403,-134 403,-134 403,-128 409,-122 415,-122 415,-122 602,-122 602,-122 608,-122 614,-128 614,-134 614,-134 614,-146 614,-146 614,-152 608,-158 602,-158"/>
<text text-anchor="middle" x="508.5" y="-136.3" font-family="Arial" font-size="14.00">Shows clear sound transmission</text>
</g>
<!-- n4&#45;&gt;n8 -->
<g id="edge8" class="edge">
<title>n4&#45;&gt;n8</title>
<path fill="none" stroke="black" d="M553.91,-243.81C545.09,-223.85 530.45,-190.7 520.18,-167.45"/>
<polygon fill="black" stroke="black" points="523.32,-165.9 516.08,-158.16 516.92,-168.72 523.32,-165.9"/>
</g>
<!-- n9 -->
<g id="node9" class="node">
<title>n9</title>
<path fill="palegreen" stroke="black" d="M908.5,-158C908.5,-158 684.5,-158 684.5,-158 678.5,-158 672.5,-152 672.5,-146 672.5,-146 672.5,-134 672.5,-134 672.5,-128 678.5,-122 684.5,-122 684.5,-122 908.5,-122 908.5,-122 914.5,-122 920.5,-128 920.5,-134 920.5,-134 920.5,-146 920.5,-146 920.5,-152 914.5,-158 908.5,-158"/>
<text text-anchor="middle" x="796.5" y="-136.3" font-family="Arial" font-size="14.00">Sound waves illustrate communication</text>
</g>
<!-- n5&#45;&gt;n9 -->
<g id="edge9" class="edge">
<title>n5&#45;&gt;n9</title>
<path fill="none" stroke="black" d="M834.2,-243.81C826.91,-223.94 814.83,-190.99 806.31,-167.76"/>
<polygon fill="black" stroke="black" points="809.52,-166.34 802.79,-158.16 802.95,-168.75 809.52,-166.34"/>
</g>
<!-- n11 -->
<g id="node10" class="node">
<title>n11</title>
<polygon fill="lightcoral" stroke="black" points="1076.5,-158 978,-140 1076.5,-122 1175,-140 1076.5,-158"/>
<text text-anchor="middle" x="1076.5" y="-136.3" font-family="Arial" font-size="14.00">Labels missing</text>
</g>
<!-- n5&#45;&gt;n11 -->
<g id="edge10" class="edge">
<title>n5&#45;&gt;n11</title>
<path fill="none" stroke="black" d="M874.06,-243.93C918.85,-221.16 997.73,-181.05 1042.7,-158.21"/>
<polygon fill="black" stroke="black" points="1044.39,-161.28 1051.7,-153.61 1041.2,-155.04 1044.39,-161.28"/>
</g>
<!-- n10 -->
<g id="node11" class="node">
<title>n10</title>
<path fill="palegreen" stroke="black" d="M1444.5,-158C1444.5,-158 1244.5,-158 1244.5,-158 1238.5,-158 1232.5,-152 1232.5,-146 1232.5,-146 1232.5,-134 1232.5,-134 1232.5,-128 1238.5,-122 1244.5,-122 1244.5,-122 1444.5,-122 1444.5,-122 1450.5,-122 1456.5,-128 1456.5,-134 1456.5,-134 1456.5,-146 1456.5,-146 1456.5,-152 1450.5,-158 1444.5,-158"/>
<text text-anchor="middle" x="1344.5" y="-136.3" font-family="Arial" font-size="14.00">Illustrates effective communication</text>
</g>
<!-- n6&#45;&gt;n10 -->
<g id="edge11" class="edge">
<title>n6&#45;&gt;n10</title>
<path fill="none" stroke="black" d="M1215.1,-243.81C1241.4,-222.96 1285.7,-187.71 1315.1,-164.4"/>
<polygon fill="black" stroke="black" points="1317.28,-167.14 1322.9,-158.16 1312.9,-161.67 1317.28,-167.14"/>
</g>
<!-- n12 -->
<g id="node12" class="node">
<title>n12</title>
<polygon fill="#f28e8e" stroke="black" points="1155.5,-36 997.5,-36 997.5,0 1155.5,0 1155.5,-36"/>
<text text-anchor="middle" x="1076.5" y="-14.3" font-family="Arial" font-size="14.00">Include labels for clarity</text>
</g>
<!-- n11&#45;&gt;n12 -->
<g id="edge12" class="edge">
<title>n11&#45;&gt;n12</title>
<path fill="none" stroke="black" d="M1076.5,-121.81C1076.5,-102.11 1076.5,-69.58 1076.5,-46.39"/>
<polygon fill="black" stroke="black" points="1080,-46.16 1076.5,-36.16 1073,-46.16 1080,-46.16"/>
</g>
</g>
</svg>
