<?xml version="1.0" encoding="UTF-8" standalone="no"?>
<!DOCTYPE svg PUBLIC "-//W3C//DTD SVG 1.1//EN"
 "http://www.w3.org/Graphics/SVG/1.1/DTD/svg11.dtd">
<!-- Generated by graphviz version 2.43.0 (0)
 -->
<!-- Pages: 1 -->
<svg width="1107pt" height="288pt"
 viewBox="0.00 0.00 1106.50 288.00" xmlns="http://www.w3.org/2000/svg" xmlns:xlink="http://www.w3.org/1999/xlink">
<g id="graph0" class="graph" transform="scale(1 1) rotate(0) translate(4 284)">
<polygon fill="white" stroke="transparent" points="-4,4 -4,-284 1102.5,-284 1102.5,4 -4,4"/>
<!-- n1 -->
<g id="node1" class="node">
<title>n1</title>
<polygon fill="lightblue" stroke="black" points="871,-262 740.75,-280 480.25,-280 350,-262 480.25,-244 740.75,-244 871,-262"/>
<text text-anchor="middle" x="610.5" y="-258.3" font-family="Arial" font-size="14.00">Draw two habitats and the different living things in each</text>
</g>
<!-- n2 -->
<g id="node2" class="node">
<title>n2</title>
<polygon fill="#fffdd0" stroke="black" points="613.5,-158 269.5,-158 269.5,-122 613.5,-122 613.5,-158"/>
<text text-anchor="middle" x="441.5" y="-136.3" font-family="Arial" font-size="14.00">Land habitat with tree, grass, squirrel, lizard, ant tunnel</text>
</g>
<!-- n1&#45;&gt;n2 -->
<g id="edge1" class="edge">
<title>n1&#45;&gt;n2</title>
<path fill="none" stroke="black" d="M586.29,-243.81C556.79,-222.87 506.86,-187.41 474.03,-164.1"/>
<polygon fill="black" stroke="black" points="475.85,-161.1 465.67,-158.16 471.79,-166.81 475.85,-161.1"/>
</g>
<!-- n3 -->
<g id="node3" class="node">
<title>n3</title>
<polygon fill="#fffdd0" stroke="black" points="887,-158 672,-158 672,-122 887,-122 887,-158"/>
<text text-anchor="middle" x="779.5" y="-136.3" font-family="Arial" font-size="14.00">Water habitat with fish and clams</text>
</g>
<!-- n1&#45;&gt;n3 -->
<g id="edge2" class="edge">
<title>n1&#45;&gt;n3</title>
<path fill="none" stroke="black" d="M634.71,-243.81C664.21,-222.87 714.14,-187.41 746.97,-164.1"/>
<polygon fill="black" stroke="black" points="749.21,-166.81 755.33,-158.16 745.15,-161.1 749.21,-166.81"/>
</g>
<!-- n4 -->
<g id="node4" class="node">
<title>n4</title>
<path fill="palegreen" stroke="black" d="M403,-36C403,-36 12,-36 12,-36 6,-36 0,-30 0,-24 0,-24 0,-12 0,-12 0,-6 6,0 12,0 12,0 403,0 403,0 409,0 415,-6 415,-12 415,-12 415,-24 415,-24 415,-30 409,-36 403,-36"/>
<text text-anchor="middle" x="207.5" y="-14.3" font-family="Arial" font-size="14.00">Understands land and water habitats can have distinct living things</text>
</g>
<!-- n2&#45;&gt;n4 -->
<g id="edge3" class="edge">
<title>n2&#45;&gt;n4</title>
<path fill="none" stroke="black" d="M407.97,-121.81C366.36,-100.47 295.34,-64.05 249.96,-40.77"/>
<polygon fill="black" stroke="black" points="251.46,-37.61 240.96,-36.16 248.26,-43.84 251.46,-37.61"/>
</g>
<!-- n5 -->
<g id="node5" class="node">
<title>n5</title>
<path fill="palegreen" stroke="black" d="M736,-36C736,-36 485,-36 485,-36 479,-36 473,-30 473,-24 473,-24 473,-12 473,-12 473,-6 479,0 485,0 485,0 736,0 736,0 742,0 748,-6 748,-12 748,-12 748,-24 748,-24 748,-30 742,-36 736,-36"/>
<text text-anchor="middle" x="610.5" y="-14.3" font-family="Arial" font-size="14.00">Correctly labels living things in each habitat</text>
</g>
<!-- n2&#45;&gt;n5 -->
<g id="edge4" class="edge">
<title>n2&#45;&gt;n5</title>
<path fill="none" stroke="black" d="M465.71,-121.81C495.21,-100.87 545.14,-65.41 577.97,-42.1"/>
<polygon fill="black" stroke="black" points="580.2,-44.81 586.33,-36.16 576.15,-39.1 580.2,-44.81"/>
</g>
<!-- n6 -->
<g id="node6" class="node">
<title>n6</title>
<path fill="palegreen" stroke="black" d="M1086.5,-36C1086.5,-36 818.5,-36 818.5,-36 812.5,-36 806.5,-30 806.5,-24 806.5,-24 806.5,-12 806.5,-12 806.5,-6 812.5,0 818.5,0 818.5,0 1086.5,0 1086.5,0 1092.5,0 1098.5,-6 1098.5,-12 1098.5,-12 1098.5,-24 1098.5,-24 1098.5,-30 1092.5,-36 1086.5,-36"/>
<text text-anchor="middle" x="952.5" y="-14.3" font-family="Arial" font-size="14.00">Basic understanding of habitat flora and fauna</text>
</g>
<!-- n2&#45;&gt;n6 -->
<g id="edge5" class="edge">
<title>n2&#45;&gt;n6</title>
<path fill="none" stroke="black" d="M513.9,-122C607.86,-99.93 771.43,-61.52 870.07,-38.36"/>
<polygon fill="black" stroke="black" points="871.06,-41.72 880,-36.03 869.46,-34.91 871.06,-41.72"/>
</g>
<!-- n3&#45;&gt;n4 -->
<g id="edge6" class="edge">
<title>n3&#45;&gt;n4</title>
<path fill="none" stroke="black" d="M698.46,-122C592.96,-99.86 409.07,-61.29 298.77,-38.15"/>
<polygon fill="black" stroke="black" points="299.17,-34.65 288.66,-36.03 297.73,-41.51 299.17,-34.65"/>
</g>
<!-- n3&#45;&gt;n5 -->
<g id="edge7" class="edge">
<title>n3&#45;&gt;n5</title>
<path fill="none" stroke="black" d="M755.29,-121.81C725.79,-100.87 675.86,-65.41 643.03,-42.1"/>
<polygon fill="black" stroke="black" points="644.85,-39.1 634.67,-36.16 640.8,-44.81 644.85,-39.1"/>
</g>
<!-- n3&#45;&gt;n6 -->
<g id="edge8" class="edge">
<title>n3&#45;&gt;n6</title>
<path fill="none" stroke="black" d="M804.29,-121.81C834.48,-100.87 885.59,-65.41 919.2,-42.1"/>
<polygon fill="black" stroke="black" points="921.54,-44.74 927.76,-36.16 917.55,-38.99 921.54,-44.74"/>
</g>
</g>
</svg>
