<?xml version="1.0" encoding="UTF-8" standalone="no"?>
<!DOCTYPE svg PUBLIC "-//W3C//DTD SVG 1.1//EN"
 "http://www.w3.org/Graphics/SVG/1.1/DTD/svg11.dtd">
<!-- Generated by graphviz version 2.43.0 (0)
 -->
<!-- Pages: 1 -->
<svg width="917pt" height="288pt"
 viewBox="0.00 0.00 916.50 288.00" xmlns="http://www.w3.org/2000/svg" xmlns:xlink="http://www.w3.org/1999/xlink">
<g id="graph0" class="graph" transform="scale(1 1) rotate(0) translate(4 284)">
<polygon fill="white" stroke="transparent" points="-4,4 -4,-284 912.5,-284 912.5,4 -4,4"/>
<!-- n1 -->
<g id="node1" class="node">
<title>n1</title>
<polygon fill="lightblue" stroke="black" points="614,-262 522.75,-280 340.25,-280 249,-262 340.25,-244 522.75,-244 614,-262"/>
<text text-anchor="middle" x="431.5" y="-258.3" font-family="Arial" font-size="14.00">Draw reversible changes (ice melting)</text>
</g>
<!-- n2 -->
<g id="node2" class="node">
<title>n2</title>
<polygon fill="#fffdd0" stroke="black" points="243,-158 0,-158 0,-122 243,-122 243,-158"/>
<text text-anchor="middle" x="121.5" y="-136.3" font-family="Arial" font-size="14.00">Cube representing solid ice on the left</text>
</g>
<!-- n1&#45;&gt;n2 -->
<g id="edge1" class="edge">
<title>n1&#45;&gt;n2</title>
<path fill="none" stroke="black" d="M387.41,-243.93C331.52,-222.3 235.21,-185.02 175.12,-161.76"/>
<polygon fill="black" stroke="black" points="176.02,-158.36 165.43,-158.01 173.49,-164.88 176.02,-158.36"/>
</g>
<!-- n3 -->
<g id="node3" class="node">
<title>n3</title>
<polygon fill="#fffdd0" stroke="black" points="558.5,-158 304.5,-158 304.5,-122 558.5,-122 558.5,-158"/>
<text text-anchor="middle" x="431.5" y="-136.3" font-family="Arial" font-size="14.00">Wavy lines for liquid water in the middle</text>
</g>
<!-- n1&#45;&gt;n3 -->
<g id="edge2" class="edge">
<title>n1&#45;&gt;n3</title>
<path fill="none" stroke="black" d="M431.5,-243.81C431.5,-224.11 431.5,-191.58 431.5,-168.39"/>
<polygon fill="black" stroke="black" points="435,-168.16 431.5,-158.16 428,-168.16 435,-168.16"/>
</g>
<!-- n4 -->
<g id="node4" class="node">
<title>n4</title>
<polygon fill="#fffdd0" stroke="black" points="877,-158 632,-158 632,-122 877,-122 877,-158"/>
<text text-anchor="middle" x="754.5" y="-136.3" font-family="Arial" font-size="14.00">Another cube for ice again on the right</text>
</g>
<!-- n1&#45;&gt;n4 -->
<g id="edge3" class="edge">
<title>n1&#45;&gt;n4</title>
<path fill="none" stroke="black" d="M477.43,-243.93C535.79,-222.25 636.43,-184.86 699.02,-161.61"/>
<polygon fill="black" stroke="black" points="700.56,-164.77 708.72,-158.01 698.13,-158.21 700.56,-164.77"/>
</g>
<!-- n5 -->
<g id="node5" class="node">
<title>n5</title>
<path fill="palegreen" stroke="black" d="M220.5,-36C220.5,-36 16.5,-36 16.5,-36 10.5,-36 4.5,-30 4.5,-24 4.5,-24 4.5,-12 4.5,-12 4.5,-6 10.5,0 16.5,0 16.5,0 220.5,0 220.5,0 226.5,0 232.5,-6 232.5,-12 232.5,-12 232.5,-24 232.5,-24 232.5,-30 226.5,-36 220.5,-36"/>
<text text-anchor="middle" x="118.5" y="-14.3" font-family="Arial" font-size="14.00">Understands initial state of solid ice</text>
</g>
<!-- n2&#45;&gt;n5 -->
<g id="edge4" class="edge">
<title>n2&#45;&gt;n5</title>
<path fill="none" stroke="black" d="M121.07,-121.81C120.58,-102.11 119.76,-69.58 119.18,-46.39"/>
<polygon fill="black" stroke="black" points="122.67,-46.07 118.93,-36.16 115.68,-46.24 122.67,-46.07"/>
</g>
<!-- n6 -->
<g id="node6" class="node">
<title>n6</title>
<path fill="palegreen" stroke="black" d="M560,-36C560,-36 303,-36 303,-36 297,-36 291,-30 291,-24 291,-24 291,-12 291,-12 291,-6 297,0 303,0 303,0 560,0 560,0 566,0 572,-6 572,-12 572,-12 572,-24 572,-24 572,-30 566,-36 560,-36"/>
<text text-anchor="middle" x="431.5" y="-14.3" font-family="Arial" font-size="14.00">Understands change from ice to liquid water</text>
</g>
<!-- n3&#45;&gt;n6 -->
<g id="edge5" class="edge">
<title>n3&#45;&gt;n6</title>
<path fill="none" stroke="black" d="M431.5,-121.81C431.5,-102.11 431.5,-69.58 431.5,-46.39"/>
<polygon fill="black" stroke="black" points="435,-46.16 431.5,-36.16 428,-46.16 435,-46.16"/>
</g>
<!-- n7 -->
<g id="node7" class="node">
<title>n7</title>
<path fill="palegreen" stroke="black" d="M896.5,-36C896.5,-36 642.5,-36 642.5,-36 636.5,-36 630.5,-30 630.5,-24 630.5,-24 630.5,-12 630.5,-12 630.5,-6 636.5,0 642.5,0 642.5,0 896.5,0 896.5,0 902.5,0 908.5,-6 908.5,-12 908.5,-12 908.5,-24 908.5,-24 908.5,-30 902.5,-36 896.5,-36"/>
<text text-anchor="middle" x="769.5" y="-14.3" font-family="Arial" font-size="14.00">Understands change from water back to ice</text>
</g>
<!-- n4&#45;&gt;n7 -->
<g id="edge6" class="edge">
<title>n4&#45;&gt;n7</title>
<path fill="none" stroke="black" d="M756.65,-121.81C759.11,-102.11 763.18,-69.58 766.08,-46.39"/>
<polygon fill="black" stroke="black" points="769.59,-46.52 767.35,-36.16 762.64,-45.65 769.59,-46.52"/>
</g>
</g>
</svg>
