<?xml version="1.0" encoding="UTF-8" standalone="no"?>
<!DOCTYPE svg PUBLIC "-//W3C//DTD SVG 1.1//EN"
 "http://www.w3.org/Graphics/SVG/1.1/DTD/svg11.dtd">
<!-- Generated by graphviz version 2.43.0 (0)
 -->
<!-- Pages: 1 -->
<svg width="1147pt" height="288pt"
 viewBox="0.00 0.00 1146.50 288.00" xmlns="http://www.w3.org/2000/svg" xmlns:xlink="http://www.w3.org/1999/xlink">
<g id="graph0" class="graph" transform="scale(1 1) rotate(0) translate(4 284)">
<polygon fill="white" stroke="transparent" points="-4,4 -4,-284 1142.5,-284 1142.5,4 -4,4"/>
<!-- n1 -->
<g id="node1" class="node">
<title>n1</title>
<polygon fill="lightblue" stroke="black" points="713,-262 621.75,-280 439.25,-280 348,-262 439.25,-244 621.75,-244 713,-262"/>
<text text-anchor="middle" x="530.5" y="-258.3" font-family="Arial" font-size="14.00">Draw reversible changes (ice melting)</text>
</g>
<!-- n2 -->
<g id="node2" class="node">
<title>n2</title>
<polygon fill="#fffdd0" stroke="black" points="408,-158 305,-158 305,-122 408,-122 408,-158"/>
<text text-anchor="middle" x="356.5" y="-136.3" font-family="Arial" font-size="14.00">Solid Ice &#45; 0°C</text>
</g>
<!-- n1&#45;&gt;n2 -->
<g id="edge1" class="edge">
<title>n1&#45;&gt;n2</title>
<path fill="none" stroke="black" d="M505.57,-243.81C475.21,-222.87 423.79,-187.41 390,-164.1"/>
<polygon fill="black" stroke="black" points="391.6,-160.95 381.38,-158.16 387.63,-166.72 391.6,-160.95"/>
</g>
<!-- n3 -->
<g id="node3" class="node">
<title>n3</title>
<polygon fill="#fffdd0" stroke="black" points="594.5,-158 466.5,-158 466.5,-122 594.5,-122 594.5,-158"/>
<text text-anchor="middle" x="530.5" y="-136.3" font-family="Arial" font-size="14.00">Water &#45; above 0°C</text>
</g>
<!-- n1&#45;&gt;n3 -->
<g id="edge2" class="edge">
<title>n1&#45;&gt;n3</title>
<path fill="none" stroke="black" d="M530.5,-243.81C530.5,-224.11 530.5,-191.58 530.5,-168.39"/>
<polygon fill="black" stroke="black" points="534,-168.16 530.5,-158.16 527,-168.16 534,-168.16"/>
</g>
<!-- n4 -->
<g id="node4" class="node">
<title>n4</title>
<polygon fill="#fffdd0" stroke="black" points="778,-158 653,-158 653,-122 778,-122 778,-158"/>
<text text-anchor="middle" x="715.5" y="-136.3" font-family="Arial" font-size="14.00">Freezing Solid Ice</text>
</g>
<!-- n1&#45;&gt;n4 -->
<g id="edge3" class="edge">
<title>n1&#45;&gt;n4</title>
<path fill="none" stroke="black" d="M557.01,-243.81C589.43,-222.78 644.42,-187.11 680.34,-163.8"/>
<polygon fill="black" stroke="black" points="682.55,-166.54 689.04,-158.16 678.75,-160.66 682.55,-166.54"/>
</g>
<!-- n5 -->
<g id="node5" class="node">
<title>n5</title>
<path fill="palegreen" stroke="black" d="M267,-36C267,-36 12,-36 12,-36 6,-36 0,-30 0,-24 0,-24 0,-12 0,-12 0,-6 6,0 12,0 12,0 267,0 267,0 273,0 279,-6 279,-12 279,-12 279,-24 279,-24 279,-30 273,-36 267,-36"/>
<text text-anchor="middle" x="139.5" y="-14.3" font-family="Arial" font-size="14.00">Correctly identifies solid ice as starting point</text>
</g>
<!-- n2&#45;&gt;n5 -->
<g id="edge4" class="edge">
<title>n2&#45;&gt;n5</title>
<path fill="none" stroke="black" d="M325.41,-121.81C286.98,-100.55 221.51,-64.35 179.4,-41.07"/>
<polygon fill="black" stroke="black" points="180.97,-37.94 170.53,-36.16 177.59,-44.06 180.97,-37.94"/>
</g>
<!-- n8 -->
<g id="node6" class="node">
<title>n8</title>
<path fill="palegreen" stroke="black" d="M538,-36C538,-36 349,-36 349,-36 343,-36 337,-30 337,-24 337,-24 337,-12 337,-12 337,-6 343,0 349,0 349,0 538,0 538,0 544,0 550,-6 550,-12 550,-12 550,-24 550,-24 550,-30 544,-36 538,-36"/>
<text text-anchor="middle" x="443.5" y="-14.3" font-family="Arial" font-size="14.00">Arrows indicate reversible nature</text>
</g>
<!-- n2&#45;&gt;n8 -->
<g id="edge5" class="edge">
<title>n2&#45;&gt;n8</title>
<path fill="none" stroke="black" d="M368.96,-121.81C383.63,-101.58 408.11,-67.81 425,-44.52"/>
<polygon fill="black" stroke="black" points="428.03,-46.31 431.06,-36.16 422.36,-42.2 428.03,-46.31"/>
</g>
<!-- n3&#45;&gt;n8 -->
<g id="edge6" class="edge">
<title>n3&#45;&gt;n8</title>
<path fill="none" stroke="black" d="M518.04,-121.81C503.37,-101.58 478.89,-67.81 462,-44.52"/>
<polygon fill="black" stroke="black" points="464.64,-42.2 455.94,-36.16 458.97,-46.31 464.64,-42.2"/>
</g>
<!-- n6 -->
<g id="node7" class="node">
<title>n6</title>
<path fill="palegreen" stroke="black" d="M808.5,-36C808.5,-36 620.5,-36 620.5,-36 614.5,-36 608.5,-30 608.5,-24 608.5,-24 608.5,-12 608.5,-12 608.5,-6 614.5,0 620.5,0 620.5,0 808.5,0 808.5,0 814.5,0 820.5,-6 820.5,-12 820.5,-12 820.5,-24 820.5,-24 820.5,-30 814.5,-36 808.5,-36"/>
<text text-anchor="middle" x="714.5" y="-14.3" font-family="Arial" font-size="14.00">Correctly shows melting process</text>
</g>
<!-- n3&#45;&gt;n6 -->
<g id="edge7" class="edge">
<title>n3&#45;&gt;n6</title>
<path fill="none" stroke="black" d="M556.86,-121.81C589.11,-100.78 643.8,-65.11 679.54,-41.8"/>
<polygon fill="black" stroke="black" points="681.73,-44.56 688.19,-36.16 677.9,-38.69 681.73,-44.56"/>
</g>
<!-- n4&#45;&gt;n8 -->
<g id="edge8" class="edge">
<title>n4&#45;&gt;n8</title>
<path fill="none" stroke="black" d="M676.82,-121.93C627.98,-100.39 543.97,-63.33 491.2,-40.05"/>
<polygon fill="black" stroke="black" points="492.61,-36.84 482.05,-36.01 489.79,-43.25 492.61,-36.84"/>
</g>
<!-- n7 -->
<g id="node8" class="node">
<title>n7</title>
<path fill="palegreen" stroke="black" d="M1126.5,-36C1126.5,-36 890.5,-36 890.5,-36 884.5,-36 878.5,-30 878.5,-24 878.5,-24 878.5,-12 878.5,-12 878.5,-6 884.5,0 890.5,0 890.5,0 1126.5,0 1126.5,0 1132.5,0 1138.5,-6 1138.5,-12 1138.5,-12 1138.5,-24 1138.5,-24 1138.5,-30 1132.5,-36 1126.5,-36"/>
<text text-anchor="middle" x="1008.5" y="-14.3" font-family="Arial" font-size="14.00">Correctly demonstrates freezing process</text>
</g>
<!-- n4&#45;&gt;n7 -->
<g id="edge9" class="edge">
<title>n4&#45;&gt;n7</title>
<path fill="none" stroke="black" d="M757.17,-121.93C809.89,-100.34 900.65,-63.17 957.47,-39.9"/>
<polygon fill="black" stroke="black" points="959.05,-43.03 966.98,-36.01 956.4,-36.56 959.05,-43.03"/>
</g>
</g>
</svg>
