<?xml version="1.0" encoding="UTF-8" standalone="no"?>
<!DOCTYPE svg PUBLIC "-//W3C//DTD SVG 1.1//EN"
 "http://www.w3.org/Graphics/SVG/1.1/DTD/svg11.dtd">
<!-- Generated by graphviz version 2.43.0 (0)
 -->
<!-- Pages: 1 -->
<svg width="1105pt" height="288pt"
 viewBox="0.00 0.00 1104.50 288.00" xmlns="http://www.w3.org/2000/svg" xmlns:xlink="http://www.w3.org/1999/xlink">
<g id="graph0" class="graph" transform="scale(1 1) rotate(0) translate(4 284)">
<polygon fill="white" stroke="transparent" points="-4,4 -4,-284 1100.5,-284 1100.5,4 -4,4"/>
<!-- n1 -->
<g id="node1" class="node">
<title>n1</title>
<polygon fill="lightblue" stroke="black" points="786,-262 672.25,-280 444.75,-280 331,-262 444.75,-244 672.25,-244 786,-262"/>
<text text-anchor="middle" x="558.5" y="-258.3" font-family="Arial" font-size="14.00">Illustrate plants with and without water and light.</text>
</g>
<!-- n2 -->
<g id="node2" class="node">
<title>n2</title>
<polygon fill="#fffdd0" stroke="black" points="379,-158 0,-158 0,-122 379,-122 379,-158"/>
<text text-anchor="middle" x="189.5" y="-136.3" font-family="Arial" font-size="14.00">Healthy plant with green leaves, strong stem, sun, and water</text>
</g>
<!-- n1&#45;&gt;n2 -->
<g id="edge1" class="edge">
<title>n1&#45;&gt;n2</title>
<path fill="none" stroke="black" d="M506.02,-243.93C438.94,-222.12 322.96,-184.4 251.56,-161.18"/>
<polygon fill="black" stroke="black" points="252.39,-157.77 241.8,-158.01 250.23,-164.43 252.39,-157.77"/>
</g>
<!-- n3 -->
<g id="node3" class="node">
<title>n3</title>
<polygon fill="#fffdd0" stroke="black" points="680,-158 437,-158 437,-122 680,-122 680,-158"/>
<text text-anchor="middle" x="558.5" y="-136.3" font-family="Arial" font-size="14.00">Plant without water, droopy and wilted</text>
</g>
<!-- n1&#45;&gt;n3 -->
<g id="edge2" class="edge">
<title>n1&#45;&gt;n3</title>
<path fill="none" stroke="black" d="M558.5,-243.81C558.5,-224.11 558.5,-191.58 558.5,-168.39"/>
<polygon fill="black" stroke="black" points="562,-168.16 558.5,-158.16 555,-168.16 562,-168.16"/>
</g>
<!-- n4 -->
<g id="node4" class="node">
<title>n4</title>
<polygon fill="#fffdd0" stroke="black" points="996,-158 769,-158 769,-122 996,-122 996,-158"/>
<text text-anchor="middle" x="882.5" y="-136.3" font-family="Arial" font-size="14.00">Plant without light, pale and droopy</text>
</g>
<!-- n1&#45;&gt;n4 -->
<g id="edge3" class="edge">
<title>n1&#45;&gt;n4</title>
<path fill="none" stroke="black" d="M604.58,-243.93C663.12,-222.25 764.07,-184.86 826.85,-161.61"/>
<polygon fill="black" stroke="black" points="828.42,-164.76 836.58,-158.01 825.99,-158.2 828.42,-164.76"/>
</g>
<!-- n5 -->
<g id="node5" class="node">
<title>n5</title>
<path fill="palegreen" stroke="black" d="M347,-36C347,-36 32,-36 32,-36 26,-36 20,-30 20,-24 20,-24 20,-12 20,-12 20,-6 26,0 32,0 32,0 347,0 347,0 353,0 359,-6 359,-12 359,-12 359,-24 359,-24 359,-30 353,-36 347,-36"/>
<text text-anchor="middle" x="189.5" y="-14.3" font-family="Arial" font-size="14.00">Understands plants need water and light to be healthy</text>
</g>
<!-- n2&#45;&gt;n5 -->
<g id="edge4" class="edge">
<title>n2&#45;&gt;n5</title>
<path fill="none" stroke="black" d="M189.5,-121.81C189.5,-102.11 189.5,-69.58 189.5,-46.39"/>
<polygon fill="black" stroke="black" points="193,-46.16 189.5,-36.16 186,-46.16 193,-46.16"/>
</g>
<!-- n6 -->
<g id="node6" class="node">
<title>n6</title>
<path fill="palegreen" stroke="black" d="M670.5,-36C670.5,-36 434.5,-36 434.5,-36 428.5,-36 422.5,-30 422.5,-24 422.5,-24 422.5,-12 422.5,-12 422.5,-6 428.5,0 434.5,0 434.5,0 670.5,0 670.5,0 676.5,0 682.5,-6 682.5,-12 682.5,-12 682.5,-24 682.5,-24 682.5,-30 676.5,-36 670.5,-36"/>
<text text-anchor="middle" x="552.5" y="-14.3" font-family="Arial" font-size="14.00">Understands lack of water causes wilting</text>
</g>
<!-- n3&#45;&gt;n6 -->
<g id="edge5" class="edge">
<title>n3&#45;&gt;n6</title>
<path fill="none" stroke="black" d="M557.64,-121.81C556.66,-102.11 555.03,-69.58 553.87,-46.39"/>
<polygon fill="black" stroke="black" points="557.35,-45.97 553.36,-36.16 550.36,-46.32 557.35,-45.97"/>
</g>
<!-- n7 -->
<g id="node7" class="node">
<title>n7</title>
<path fill="palegreen" stroke="black" d="M1084.5,-36C1084.5,-36 752.5,-36 752.5,-36 746.5,-36 740.5,-30 740.5,-24 740.5,-24 740.5,-12 740.5,-12 740.5,-6 746.5,0 752.5,0 752.5,0 1084.5,0 1084.5,0 1090.5,0 1096.5,-6 1096.5,-12 1096.5,-12 1096.5,-24 1096.5,-24 1096.5,-30 1090.5,-36 1084.5,-36"/>
<text text-anchor="middle" x="918.5" y="-14.3" font-family="Arial" font-size="14.00">Understands lack of light causes pale color and drooping</text>
</g>
<!-- n4&#45;&gt;n7 -->
<g id="edge6" class="edge">
<title>n4&#45;&gt;n7</title>
<path fill="none" stroke="black" d="M887.66,-121.81C893.62,-101.94 903.5,-68.99 910.47,-45.76"/>
<polygon fill="black" stroke="black" points="913.83,-46.74 913.35,-36.16 907.12,-44.73 913.83,-46.74"/>
</g>
</g>
</svg>
