<?xml version="1.0" encoding="UTF-8" standalone="no"?>
<!DOCTYPE svg PUBLIC "-//W3C//DTD SVG 1.1//EN"
 "http://www.w3.org/Graphics/SVG/1.1/DTD/svg11.dtd">
<!-- Generated by graphviz version 2.43.0 (0)
 -->
<!-- Pages: 1 -->
<svg width="1402pt" height="410pt"
 viewBox="0.00 0.00 1401.50 410.00" xmlns="http://www.w3.org/2000/svg" xmlns:xlink="http://www.w3.org/1999/xlink">
<g id="graph0" class="graph" transform="scale(1 1) rotate(0) translate(4 406)">
<polygon fill="white" stroke="transparent" points="-4,4 -4,-406 1397.5,-406 1397.5,4 -4,4"/>
<!-- n1 -->
<g id="node1" class="node">
<title>n1</title>
<polygon fill="lightblue" stroke="black" points="1248,-384 1084,-402 756,-402 592,-384 756,-366 1084,-366 1248,-384"/>
<text text-anchor="middle" x="920" y="-380.3" font-family="Arial" font-size="14.00">Draw reversible and irreversible changes (ice melting vs. egg cooking)</text>
</g>
<!-- n2 -->
<g id="node2" class="node">
<title>n2</title>
<polygon fill="#fffdd0" stroke="black" points="876.5,-280 475.5,-280 475.5,-244 876.5,-244 876.5,-280"/>
<text text-anchor="middle" x="676" y="-258.3" font-family="Arial" font-size="14.00">Clear blue ice cube turning into water with droplets and a puddle</text>
</g>
<!-- n1&#45;&gt;n2 -->
<g id="edge1" class="edge">
<title>n1&#45;&gt;n2</title>
<path fill="none" stroke="black" d="M885.3,-365.93C841.76,-344.52 767.06,-307.78 719.68,-284.48"/>
<polygon fill="black" stroke="black" points="721.1,-281.28 710.58,-280.01 718.01,-287.56 721.1,-281.28"/>
</g>
<!-- n3 -->
<g id="node3" class="node">
<title>n3</title>
<polygon fill="#fffdd0" stroke="black" points="1393.5,-280 936.5,-280 936.5,-244 1393.5,-244 1393.5,-280"/>
<text text-anchor="middle" x="1165" y="-258.3" font-family="Arial" font-size="14.00">Raw egg with liquid inside and fragile shell turning into a solid cooked egg</text>
</g>
<!-- n1&#45;&gt;n3 -->
<g id="edge2" class="edge">
<title>n1&#45;&gt;n3</title>
<path fill="none" stroke="black" d="M954.84,-365.93C998.56,-344.52 1073.6,-307.78 1121.1,-284.48"/>
<polygon fill="black" stroke="black" points="1122.84,-287.53 1130.3,-280.01 1119.78,-281.23 1122.84,-287.53"/>
</g>
<!-- n4 -->
<g id="node4" class="node">
<title>n4</title>
<path fill="palegreen" stroke="black" d="M304,-158C304,-158 12,-158 12,-158 6,-158 0,-152 0,-146 0,-146 0,-134 0,-134 0,-128 6,-122 12,-122 12,-122 304,-122 304,-122 310,-122 316,-128 316,-134 316,-134 316,-146 316,-146 316,-152 310,-158 304,-158"/>
<text text-anchor="middle" x="158" y="-136.3" font-family="Arial" font-size="14.00">Water cooling back into ice is a reversible process</text>
</g>
<!-- n2&#45;&gt;n4 -->
<g id="edge3" class="edge">
<title>n2&#45;&gt;n4</title>
<path fill="none" stroke="black" d="M602.61,-244C507.26,-221.91 341.21,-183.44 241.26,-160.29"/>
<polygon fill="black" stroke="black" points="242.03,-156.88 231.5,-158.03 240.45,-163.7 242.03,-156.88"/>
</g>
<!-- n6 -->
<g id="node5" class="node">
<title>n6</title>
<polygon fill="lightcoral" stroke="black" points="676,-158 373.5,-140 676,-122 978.5,-140 676,-158"/>
<text text-anchor="middle" x="676" y="-136.3" font-family="Arial" font-size="14.00">Illustration lacks some labels during the cooling step</text>
</g>
<!-- n2&#45;&gt;n6 -->
<g id="edge4" class="edge">
<title>n2&#45;&gt;n6</title>
<path fill="none" stroke="black" d="M676,-243.81C676,-224.11 676,-191.58 676,-168.39"/>
<polygon fill="black" stroke="black" points="679.5,-168.16 676,-158.16 672.5,-168.16 679.5,-168.16"/>
</g>
<!-- n5 -->
<g id="node6" class="node">
<title>n5</title>
<path fill="palegreen" stroke="black" d="M1288,-158C1288,-158 1048,-158 1048,-158 1042,-158 1036,-152 1036,-146 1036,-146 1036,-134 1036,-134 1036,-128 1042,-122 1048,-122 1048,-122 1288,-122 1288,-122 1294,-122 1300,-128 1300,-134 1300,-134 1300,-146 1300,-146 1300,-152 1294,-158 1288,-158"/>
<text text-anchor="middle" x="1168" y="-136.3" font-family="Arial" font-size="14.00">Cooking an egg is an irreversible process</text>
</g>
<!-- n3&#45;&gt;n5 -->
<g id="edge5" class="edge">
<title>n3&#45;&gt;n5</title>
<path fill="none" stroke="black" d="M1165.4,-243.81C1165.9,-224.11 1166.7,-191.58 1167.3,-168.39"/>
<polygon fill="black" stroke="black" points="1170.81,-168.26 1167.6,-158.16 1163.81,-168.05 1170.81,-168.26"/>
</g>
<!-- n7 -->
<g id="node7" class="node">
<title>n7</title>
<polygon fill="#f28e8e" stroke="black" points="849.5,-36 502.5,-36 502.5,0 849.5,0 849.5,-36"/>
<text text-anchor="middle" x="676" y="-14.3" font-family="Arial" font-size="14.00">Add labels during the cooling step to clarify the process</text>
</g>
<!-- n6&#45;&gt;n7 -->
<g id="edge6" class="edge">
<title>n6&#45;&gt;n7</title>
<path fill="none" stroke="black" d="M676,-121.81C676,-102.11 676,-69.58 676,-46.39"/>
<polygon fill="black" stroke="black" points="679.5,-46.16 676,-36.16 672.5,-46.16 679.5,-46.16"/>
</g>
</g>
</svg>
