<?xml version="1.0" encoding="UTF-8" standalone="no"?>
<!DOCTYPE svg PUBLIC "-//W3C//DTD SVG 1.1//EN"
 "http://www.w3.org/Graphics/SVG/1.1/DTD/svg11.dtd">
<!-- Generated by graphviz version 2.43.0 (0)
 -->
<!-- Pages: 1 -->
<svg width="1745pt" height="410pt"
 viewBox="0.00 0.00 1744.50 410.00" xmlns="http://www.w3.org/2000/svg" xmlns:xlink="http://www.w3.org/1999/xlink">
<g id="graph0" class="graph" transform="scale(1 1) rotate(0) translate(4 406)">
<polygon fill="white" stroke="transparent" points="-4,4 -4,-406 1740.5,-406 1740.5,4 -4,4"/>
<!-- n1 -->
<g id="node1" class="node">
<title>n1</title>
<polygon fill="lightblue" stroke="black" points="865,-384 753.5,-402 530.5,-402 419,-384 530.5,-366 753.5,-366 865,-384"/>
<text text-anchor="middle" x="642" y="-380.3" font-family="Arial" font-size="14.00">Draw a string telephone between two students.</text>
</g>
<!-- n2 -->
<g id="node2" class="node">
<title>n2</title>
<polygon fill="#fffdd0" stroke="black" points="334.5,-280 107.5,-280 107.5,-244 334.5,-244 334.5,-280"/>
<text text-anchor="middle" x="221" y="-258.3" font-family="Arial" font-size="14.00">Two children with cups and a string</text>
</g>
<!-- n1&#45;&gt;n2 -->
<g id="edge1" class="edge">
<title>n1&#45;&gt;n2</title>
<path fill="none" stroke="black" d="M582.13,-365.93C505.12,-343.99 371.64,-305.94 290.32,-282.76"/>
<polygon fill="black" stroke="black" points="291.25,-279.38 280.67,-280.01 289.33,-286.12 291.25,-279.38"/>
</g>
<!-- n3 -->
<g id="node3" class="node">
<title>n3</title>
<polygon fill="#fffdd0" stroke="black" points="600,-280 430,-280 430,-244 600,-244 600,-280"/>
<text text-anchor="middle" x="515" y="-258.3" font-family="Arial" font-size="14.00">Basic labels: &#39;cup&#39;, &#39;string&#39;</text>
</g>
<!-- n1&#45;&gt;n3 -->
<g id="edge2" class="edge">
<title>n1&#45;&gt;n3</title>
<path fill="none" stroke="black" d="M623.8,-365.81C602.02,-345.22 565.39,-310.61 540.72,-287.3"/>
<polygon fill="black" stroke="black" points="542.83,-284.48 533.16,-280.16 538.03,-289.57 542.83,-284.48"/>
</g>
<!-- n4 -->
<g id="node4" class="node">
<title>n4</title>
<polygon fill="#fffdd0" stroke="black" points="959.5,-280 738.5,-280 738.5,-244 959.5,-244 959.5,-280"/>
<text text-anchor="middle" x="849" y="-258.3" font-family="Arial" font-size="14.00">Arrows showing sound movement</text>
</g>
<!-- n1&#45;&gt;n4 -->
<g id="edge3" class="edge">
<title>n1&#45;&gt;n4</title>
<path fill="none" stroke="black" d="M671.66,-365.81C708.24,-344.6 770.51,-308.5 810.68,-285.21"/>
<polygon fill="black" stroke="black" points="812.5,-288.2 819.4,-280.16 808.99,-282.14 812.5,-288.2"/>
</g>
<!-- n5 -->
<g id="node5" class="node">
<title>n5</title>
<polygon fill="#fffdd0" stroke="black" points="1379.5,-280 1214.5,-280 1214.5,-244 1379.5,-244 1379.5,-280"/>
<text text-anchor="middle" x="1297" y="-258.3" font-family="Arial" font-size="14.00">Children drawn too close</text>
</g>
<!-- n1&#45;&gt;n5 -->
<g id="edge4" class="edge">
<title>n1&#45;&gt;n5</title>
<path fill="none" stroke="black" d="M734.8,-366C859.53,-343.15 1080,-302.76 1204.5,-279.94"/>
<polygon fill="black" stroke="black" points="1205.19,-283.37 1214.4,-278.13 1203.93,-276.49 1205.19,-283.37"/>
</g>
<!-- n6 -->
<g id="node6" class="node">
<title>n6</title>
<path fill="palegreen" stroke="black" d="M276,-158C276,-158 12,-158 12,-158 6,-158 0,-152 0,-146 0,-146 0,-134 0,-134 0,-128 6,-122 12,-122 12,-122 276,-122 276,-122 282,-122 288,-128 288,-134 288,-134 288,-146 288,-146 288,-152 282,-158 276,-158"/>
<text text-anchor="middle" x="144" y="-136.3" font-family="Arial" font-size="14.00">Demonstrates basic setup of string telephone</text>
</g>
<!-- n2&#45;&gt;n6 -->
<g id="edge5" class="edge">
<title>n2&#45;&gt;n6</title>
<path fill="none" stroke="black" d="M209.97,-243.81C197.05,-223.67 175.51,-190.1 160.57,-166.83"/>
<polygon fill="black" stroke="black" points="163.35,-164.69 155.01,-158.16 157.46,-168.47 163.35,-164.69"/>
</g>
<!-- n7 -->
<g id="node7" class="node">
<title>n7</title>
<path fill="palegreen" stroke="black" d="M591.5,-158C591.5,-158 358.5,-158 358.5,-158 352.5,-158 346.5,-152 346.5,-146 346.5,-146 346.5,-134 346.5,-134 346.5,-128 352.5,-122 358.5,-122 358.5,-122 591.5,-122 591.5,-122 597.5,-122 603.5,-128 603.5,-134 603.5,-134 603.5,-146 603.5,-146 603.5,-152 597.5,-158 591.5,-158"/>
<text text-anchor="middle" x="475" y="-136.3" font-family="Arial" font-size="14.00">Understands need for parts: cups, string</text>
</g>
<!-- n3&#45;&gt;n7 -->
<g id="edge6" class="edge">
<title>n3&#45;&gt;n7</title>
<path fill="none" stroke="black" d="M509.27,-243.81C502.65,-223.94 491.66,-190.99 483.92,-167.76"/>
<polygon fill="black" stroke="black" points="487.2,-166.54 480.72,-158.16 480.56,-168.75 487.2,-166.54"/>
</g>
<!-- n8 -->
<g id="node8" class="node">
<title>n8</title>
<polygon fill="lightcoral" stroke="black" points="889,-158 661.94,-140 889,-122 1116.06,-140 889,-158"/>
<text text-anchor="middle" x="889" y="-136.3" font-family="Arial" font-size="14.00">Confusion about sound travel direction</text>
</g>
<!-- n4&#45;&gt;n8 -->
<g id="edge7" class="edge">
<title>n4&#45;&gt;n8</title>
<path fill="none" stroke="black" d="M854.73,-243.81C861.39,-223.82 872.46,-190.62 880.21,-167.37"/>
<polygon fill="black" stroke="black" points="883.57,-168.36 883.41,-157.77 876.93,-166.15 883.57,-168.36"/>
</g>
<!-- n9 -->
<g id="node9" class="node">
<title>n9</title>
<polygon fill="lightcoral" stroke="black" points="1455,-158 1173.5,-140 1455,-122 1736.5,-140 1455,-158"/>
<text text-anchor="middle" x="1455" y="-136.3" font-family="Arial" font-size="14.00">Lacks understanding of communication distance</text>
</g>
<!-- n5&#45;&gt;n9 -->
<g id="edge8" class="edge">
<title>n5&#45;&gt;n9</title>
<path fill="none" stroke="black" d="M1319.6,-243.81C1347.6,-222.54 1395.3,-186.3 1426,-163.02"/>
<polygon fill="black" stroke="black" points="1428.33,-165.64 1434.2,-156.82 1424.11,-160.06 1428.33,-165.64"/>
</g>
<!-- n10 -->
<g id="node10" class="node">
<title>n10</title>
<polygon fill="#f28e8e" stroke="black" points="1048,-36 730,-36 730,0 1048,0 1048,-36"/>
<text text-anchor="middle" x="889" y="-14.3" font-family="Arial" font-size="14.00">Place arrows along the string to show sound travel</text>
</g>
<!-- n8&#45;&gt;n10 -->
<g id="edge9" class="edge">
<title>n8&#45;&gt;n10</title>
<path fill="none" stroke="black" d="M889,-121.81C889,-102.11 889,-69.58 889,-46.39"/>
<polygon fill="black" stroke="black" points="892.5,-46.16 889,-36.16 885.5,-46.16 892.5,-46.16"/>
</g>
<!-- n11 -->
<g id="node11" class="node">
<title>n11</title>
<polygon fill="#f28e8e" stroke="black" points="1592,-36 1318,-36 1318,0 1592,0 1592,-36"/>
<text text-anchor="middle" x="1455" y="-14.3" font-family="Arial" font-size="14.00">Draw people further apart to show distance</text>
</g>
<!-- n9&#45;&gt;n11 -->
<g id="edge10" class="edge">
<title>n9&#45;&gt;n11</title>
<path fill="none" stroke="black" d="M1455,-121.81C1455,-102.11 1455,-69.58 1455,-46.39"/>
<polygon fill="black" stroke="black" points="1458.5,-46.16 1455,-36.16 1451.5,-46.16 1458.5,-46.16"/>
</g>
</g>
</svg>
