<?xml version="1.0" encoding="UTF-8" standalone="no"?>
<!DOCTYPE svg PUBLIC "-//W3C//DTD SVG 1.1//EN"
 "http://www.w3.org/Graphics/SVG/1.1/DTD/svg11.dtd">
<!-- Generated by graphviz version 2.43.0 (0)
 -->
<!-- Pages: 1 -->
<svg width="2852pt" height="288pt"
 viewBox="0.00 0.00 2851.73 288.00" xmlns="http://www.w3.org/2000/svg" xmlns:xlink="http://www.w3.org/1999/xlink">
<g id="graph0" class="graph" transform="scale(1 1) rotate(0) translate(4 284)">
<polygon fill="white" stroke="transparent" points="-4,4 -4,-284 2847.73,-284 2847.73,4 -4,4"/>
<!-- n1 -->
<g id="node1" class="node">
<title>n1</title>
<polygon fill="lightblue" stroke="black" points="1728.32,-262 1605.91,-280 1361.09,-280 1238.68,-262 1361.09,-244 1605.91,-244 1728.32,-262"/>
<text text-anchor="middle" x="1483.5" y="-258.3" font-family="Arial" font-size="14.00">Draw a habitat and the different living things in each</text>
</g>
<!-- n2 -->
<g id="node2" class="node">
<title>n2</title>
<polygon fill="#fffdd0" stroke="black" points="913,-158 630,-158 630,-122 913,-122 913,-158"/>
<text text-anchor="middle" x="771.5" y="-136.3" font-family="Arial" font-size="14.00">Garden habitat with a tree and some flowers</text>
</g>
<!-- n1&#45;&gt;n2 -->
<g id="edge1" class="edge">
<title>n1&#45;&gt;n2</title>
<path fill="none" stroke="black" d="M1382.6,-244C1250.5,-221.73 1019.6,-182.82 882.63,-159.73"/>
<polygon fill="black" stroke="black" points="882.96,-156.24 872.52,-158.03 881.8,-163.14 882.96,-156.24"/>
</g>
<!-- n3 -->
<g id="node3" class="node">
<title>n3</title>
<polygon fill="#fffdd0" stroke="black" points="1307.5,-158 1059.5,-158 1059.5,-122 1307.5,-122 1307.5,-158"/>
<text text-anchor="middle" x="1183.5" y="-136.3" font-family="Arial" font-size="14.00">Simple bird on a branch (labeled &#39;bird&#39;)</text>
</g>
<!-- n1&#45;&gt;n3 -->
<g id="edge2" class="edge">
<title>n1&#45;&gt;n3</title>
<path fill="none" stroke="black" d="M1440.8,-243.93C1386.7,-222.3 1293.5,-185.02 1235.4,-161.76"/>
<polygon fill="black" stroke="black" points="1236.59,-158.46 1226,-158.01 1233.99,-164.97 1236.59,-158.46"/>
</g>
<!-- n4 -->
<g id="node4" class="node">
<title>n4</title>
<polygon fill="#fffdd0" stroke="black" points="1881,-158 1660,-158 1660,-122 1881,-122 1881,-158"/>
<text text-anchor="middle" x="1770.5" y="-136.3" font-family="Arial" font-size="14.00">Butterfly hovering near the flowers</text>
</g>
<!-- n1&#45;&gt;n4 -->
<g id="edge3" class="edge">
<title>n1&#45;&gt;n4</title>
<path fill="none" stroke="black" d="M1524.3,-243.93C1576,-222.34 1664.9,-185.17 1720.5,-161.9"/>
<polygon fill="black" stroke="black" points="1721.93,-165.1 1729.8,-158.01 1719.22,-158.64 1721.93,-165.1"/>
</g>
<!-- n5 -->
<g id="node5" class="node">
<title>n5</title>
<polygon fill="#fffdd0" stroke="black" points="1601.5,-158 1365.5,-158 1365.5,-122 1601.5,-122 1601.5,-158"/>
<text text-anchor="middle" x="1483.5" y="-136.3" font-family="Arial" font-size="14.00">Small pond with a fish (labeled &#39;fish&#39;)</text>
</g>
<!-- n1&#45;&gt;n5 -->
<g id="edge4" class="edge">
<title>n1&#45;&gt;n5</title>
<path fill="none" stroke="black" d="M1483.5,-243.81C1483.5,-224.11 1483.5,-191.58 1483.5,-168.39"/>
<polygon fill="black" stroke="black" points="1487,-168.16 1483.5,-158.16 1480,-168.16 1487,-168.16"/>
</g>
<!-- n11 -->
<g id="node6" class="node">
<title>n11</title>
<polygon fill="lightcoral" stroke="black" points="2391.5,-158 1939.05,-140 2391.5,-122 2843.95,-140 2391.5,-158"/>
<text text-anchor="middle" x="2391.5" y="-136.3" font-family="Arial" font-size="14.00">Limited variety in organisms might indicate struggle with biodiversity complexity</text>
</g>
<!-- n1&#45;&gt;n11 -->
<g id="edge5" class="edge">
<title>n1&#45;&gt;n11</title>
<path fill="none" stroke="black" d="M1609.3,-244.38C1788.2,-220.73 2113.2,-177.79 2282.4,-155.42"/>
<polygon fill="black" stroke="black" points="2282.85,-158.89 2292.3,-154.1 2281.93,-151.95 2282.85,-158.89"/>
</g>
<!-- n6 -->
<g id="node7" class="node">
<title>n6</title>
<path fill="palegreen" stroke="black" d="M361,-36C361,-36 12,-36 12,-36 6,-36 0,-30 0,-24 0,-24 0,-12 0,-12 0,-6 6,0 12,0 12,0 361,0 361,0 367,0 373,-6 373,-12 373,-12 373,-24 373,-24 373,-30 367,-36 361,-36"/>
<text text-anchor="middle" x="186.5" y="-14.3" font-family="Arial" font-size="14.00">Understands the concept of land habitats, such as a garden</text>
</g>
<!-- n2&#45;&gt;n6 -->
<g id="edge6" class="edge">
<title>n2&#45;&gt;n6</title>
<path fill="none" stroke="black" d="M688.62,-122C580.61,-99.84 392.27,-61.21 279.5,-38.08"/>
<polygon fill="black" stroke="black" points="280,-34.61 269.5,-36.03 278.59,-41.46 280,-34.61"/>
</g>
<!-- n7 -->
<g id="node8" class="node">
<title>n7</title>
<path fill="palegreen" stroke="black" d="M811.5,-36C811.5,-36 443.5,-36 443.5,-36 437.5,-36 431.5,-30 431.5,-24 431.5,-24 431.5,-12 431.5,-12 431.5,-6 437.5,0 443.5,0 443.5,0 811.5,0 811.5,0 817.5,0 823.5,-6 823.5,-12 823.5,-12 823.5,-24 823.5,-24 823.5,-30 817.5,-36 811.5,-36"/>
<text text-anchor="middle" x="627.5" y="-14.3" font-family="Arial" font-size="14.00">Identifies common living things in these habitats: trees, flowers</text>
</g>
<!-- n2&#45;&gt;n7 -->
<g id="edge7" class="edge">
<title>n2&#45;&gt;n7</title>
<path fill="none" stroke="black" d="M750.87,-121.81C725.95,-101.04 683.91,-66.01 655.94,-42.7"/>
<polygon fill="black" stroke="black" points="658.01,-39.87 648.09,-36.16 653.53,-45.25 658.01,-39.87"/>
</g>
<!-- n8 -->
<g id="node9" class="node">
<title>n8</title>
<path fill="palegreen" stroke="black" d="M1203.5,-36C1203.5,-36 893.5,-36 893.5,-36 887.5,-36 881.5,-30 881.5,-24 881.5,-24 881.5,-12 881.5,-12 881.5,-6 887.5,0 893.5,0 893.5,0 1203.5,0 1203.5,0 1209.5,0 1215.5,-6 1215.5,-12 1215.5,-12 1215.5,-24 1215.5,-24 1215.5,-30 1209.5,-36 1203.5,-36"/>
<text text-anchor="middle" x="1048.5" y="-14.3" font-family="Arial" font-size="14.00">Organizes drawing to suggest patterns in biodiversity</text>
</g>
<!-- n2&#45;&gt;n8 -->
<g id="edge8" class="edge">
<title>n2&#45;&gt;n8</title>
<path fill="none" stroke="black" d="M810.89,-121.93C860.63,-100.39 946.18,-63.33 999.92,-40.05"/>
<polygon fill="black" stroke="black" points="1001.43,-43.21 1009.2,-36.01 998.63,-36.79 1001.43,-43.21"/>
</g>
<!-- n9 -->
<g id="node10" class="node">
<title>n9</title>
<path fill="palegreen" stroke="black" d="M1571.5,-36C1571.5,-36 1285.5,-36 1285.5,-36 1279.5,-36 1273.5,-30 1273.5,-24 1273.5,-24 1273.5,-12 1273.5,-12 1273.5,-6 1279.5,0 1285.5,0 1285.5,0 1571.5,0 1571.5,0 1577.5,0 1583.5,-6 1583.5,-12 1583.5,-12 1583.5,-24 1583.5,-24 1583.5,-30 1577.5,-36 1571.5,-36"/>
<text text-anchor="middle" x="1428.5" y="-14.3" font-family="Arial" font-size="14.00">Labels plants and animals, aiding in identification</text>
</g>
<!-- n3&#45;&gt;n9 -->
<g id="edge9" class="edge">
<title>n3&#45;&gt;n9</title>
<path fill="none" stroke="black" d="M1218.3,-121.93C1262.1,-100.52 1337.1,-63.78 1384.6,-40.48"/>
<polygon fill="black" stroke="black" points="1386.34,-43.53 1393.8,-36.01 1383.28,-37.23 1386.34,-43.53"/>
</g>
<!-- n4&#45;&gt;n9 -->
<g id="edge10" class="edge">
<title>n4&#45;&gt;n9</title>
<path fill="none" stroke="black" d="M1721.9,-121.93C1659.8,-100.16 1552.6,-62.56 1486.4,-39.33"/>
<polygon fill="black" stroke="black" points="1487.59,-36.04 1477,-36.01 1485.26,-42.64 1487.59,-36.04"/>
</g>
<!-- n10 -->
<g id="node11" class="node">
<title>n10</title>
<path fill="palegreen" stroke="black" d="M1999,-36C1999,-36 1654,-36 1654,-36 1648,-36 1642,-30 1642,-24 1642,-24 1642,-12 1642,-12 1642,-6 1648,0 1654,0 1654,0 1999,0 1999,0 2005,0 2011,-6 2011,-12 2011,-12 2011,-24 2011,-24 2011,-30 2005,-36 1999,-36"/>
<text text-anchor="middle" x="1826.5" y="-14.3" font-family="Arial" font-size="14.00">Inclusion of both a bird and a fish shows visual comparison</text>
</g>
<!-- n4&#45;&gt;n10 -->
<g id="edge11" class="edge">
<title>n4&#45;&gt;n10</title>
<path fill="none" stroke="black" d="M1778.5,-121.81C1787.8,-101.85 1803.3,-68.7 1814.2,-45.45"/>
<polygon fill="black" stroke="black" points="1817.48,-46.71 1818.5,-36.16 1811.12,-43.77 1817.48,-46.71"/>
</g>
<!-- n5&#45;&gt;n9 -->
<g id="edge12" class="edge">
<title>n5&#45;&gt;n9</title>
<path fill="none" stroke="black" d="M1475.6,-121.81C1466.5,-101.85 1451.3,-68.7 1440.6,-45.45"/>
<polygon fill="black" stroke="black" points="1443.71,-43.83 1436.4,-36.16 1437.33,-46.71 1443.71,-43.83"/>
</g>
<!-- n5&#45;&gt;n10 -->
<g id="edge13" class="edge">
<title>n5&#45;&gt;n10</title>
<path fill="none" stroke="black" d="M1532.3,-121.93C1594.5,-100.16 1702,-62.56 1768.4,-39.33"/>
<polygon fill="black" stroke="black" points="1769.61,-42.61 1777.9,-36.01 1767.31,-36 1769.61,-42.61"/>
</g>
<!-- n12 -->
<g id="node12" class="node">
<title>n12</title>
<polygon fill="#f28e8e" stroke="black" points="2603,-36 2180,-36 2180,0 2603,0 2603,-36"/>
<text text-anchor="middle" x="2391.5" y="-14.3" font-family="Arial" font-size="14.00">Consider introducing more varied organisms to highlight biodiversity</text>
</g>
<!-- n11&#45;&gt;n12 -->
<g id="edge14" class="edge">
<title>n11&#45;&gt;n12</title>
<path fill="none" stroke="black" d="M2391.5,-121.81C2391.5,-102.11 2391.5,-69.58 2391.5,-46.39"/>
<polygon fill="black" stroke="black" points="2395,-46.16 2391.5,-36.16 2388,-46.16 2395,-46.16"/>
</g>
</g>
</svg>
