<?xml version="1.0" encoding="UTF-8" standalone="no"?>
<!DOCTYPE svg PUBLIC "-//W3C//DTD SVG 1.1//EN"
 "http://www.w3.org/Graphics/SVG/1.1/DTD/svg11.dtd">
<!-- Generated by graphviz version 2.43.0 (0)
 -->
<!-- Pages: 1 -->
<svg width="1526pt" height="288pt"
 viewBox="0.00 0.00 1526.00 288.00" xmlns="http://www.w3.org/2000/svg" xmlns:xlink="http://www.w3.org/1999/xlink">
<g id="graph0" class="graph" transform="scale(1 1) rotate(0) translate(4 284)">
<polygon fill="white" stroke="transparent" points="-4,4 -4,-284 1522,-284 1522,4 -4,4"/>
<!-- n1 -->
<g id="node1" class="node">
<title>n1</title>
<polygon fill="lightblue" stroke="black" points="968.5,-262 857,-280 634,-280 522.5,-262 634,-244 857,-244 968.5,-262"/>
<text text-anchor="middle" x="745.5" y="-258.3" font-family="Arial" font-size="14.00">Draw a string telephone between two students.</text>
</g>
<!-- n2 -->
<g id="node2" class="node">
<title>n2</title>
<polygon fill="#fffdd0" stroke="black" points="253.5,-158 53.5,-158 53.5,-122 253.5,-122 253.5,-158"/>
<text text-anchor="middle" x="153.5" y="-136.3" font-family="Arial" font-size="14.00">Two children facing each other</text>
</g>
<!-- n1&#45;&gt;n2 -->
<g id="edge1" class="edge">
<title>n1&#45;&gt;n2</title>
<path fill="none" stroke="black" d="M661.62,-244C552.33,-221.84 361.73,-183.21 247.62,-160.08"/>
<polygon fill="black" stroke="black" points="248,-156.59 237.5,-158.03 246.61,-163.45 248,-156.59"/>
</g>
<!-- n3 -->
<g id="node3" class="node">
<title>n3</title>
<polygon fill="#fffdd0" stroke="black" points="487.5,-158 335.5,-158 335.5,-122 487.5,-122 487.5,-158"/>
<text text-anchor="middle" x="411.5" y="-136.3" font-family="Arial" font-size="14.00">Each child holds a cup</text>
</g>
<!-- n1&#45;&gt;n3 -->
<g id="edge2" class="edge">
<title>n1&#45;&gt;n3</title>
<path fill="none" stroke="black" d="M698,-243.93C637.53,-222.21 533.16,-184.71 468.47,-161.47"/>
<polygon fill="black" stroke="black" points="469.43,-158.1 458.84,-158.01 467.07,-164.69 469.43,-158.1"/>
</g>
<!-- n4 -->
<g id="node4" class="node">
<title>n4</title>
<polygon fill="#fffdd0" stroke="black" points="721.5,-158 545.5,-158 545.5,-122 721.5,-122 721.5,-158"/>
<text text-anchor="middle" x="633.5" y="-136.3" font-family="Arial" font-size="14.00">String connecting the cups</text>
</g>
<!-- n1&#45;&gt;n4 -->
<g id="edge3" class="edge">
<title>n1&#45;&gt;n4</title>
<path fill="none" stroke="black" d="M729.45,-243.81C710.32,-223.31 678.22,-188.91 656.46,-165.6"/>
<polygon fill="black" stroke="black" points="658.9,-163.09 649.52,-158.16 653.78,-167.86 658.9,-163.09"/>
</g>
<!-- n5 -->
<g id="node5" class="node">
<title>n5</title>
<polygon fill="#fffdd0" stroke="black" points="935,-158 780,-158 780,-122 935,-122 935,-158"/>
<text text-anchor="middle" x="857.5" y="-136.3" font-family="Arial" font-size="14.00">Arrows along the string</text>
</g>
<!-- n1&#45;&gt;n5 -->
<g id="edge4" class="edge">
<title>n1&#45;&gt;n5</title>
<path fill="none" stroke="black" d="M761.55,-243.81C780.68,-223.31 812.78,-188.91 834.54,-165.6"/>
<polygon fill="black" stroke="black" points="837.22,-167.86 841.48,-158.16 832.1,-163.09 837.22,-167.86"/>
</g>
<!-- n6 -->
<g id="node6" class="node">
<title>n6</title>
<polygon fill="#fffdd0" stroke="black" points="1256,-158 993,-158 993,-122 1256,-122 1256,-158"/>
<text text-anchor="middle" x="1124.5" y="-136.3" font-family="Arial" font-size="14.00">Wavy lines coming in and out of the cups</text>
</g>
<!-- n1&#45;&gt;n6 -->
<g id="edge5" class="edge">
<title>n1&#45;&gt;n6</title>
<path fill="none" stroke="black" d="M799.4,-243.93C868.44,-222.07 987.91,-184.25 1061.2,-161.04"/>
<polygon fill="black" stroke="black" points="1062.32,-164.36 1070.8,-158.01 1060.21,-157.68 1062.32,-164.36"/>
</g>
<!-- n7 -->
<g id="node7" class="node">
<title>n7</title>
<polygon fill="#fffdd0" stroke="black" points="1451,-158 1314,-158 1314,-122 1451,-122 1451,-158"/>
<text text-anchor="middle" x="1382.5" y="-136.3" font-family="Arial" font-size="14.00">Children are smiling</text>
</g>
<!-- n1&#45;&gt;n7 -->
<g id="edge6" class="edge">
<title>n1&#45;&gt;n7</title>
<path fill="none" stroke="black" d="M835.75,-244C960.81,-220.44 1184.8,-178.25 1303.5,-155.87"/>
<polygon fill="black" stroke="black" points="1304.51,-159.24 1313.7,-153.97 1303.23,-152.36 1304.51,-159.24"/>
</g>
<!-- n8 -->
<g id="node8" class="node">
<title>n8</title>
<path fill="palegreen" stroke="black" d="M247,-36C247,-36 12,-36 12,-36 6,-36 0,-30 0,-24 0,-24 0,-12 0,-12 0,-6 6,0 12,0 12,0 247,0 247,0 253,0 259,-6 259,-12 259,-12 259,-24 259,-24 259,-30 253,-36 247,-36"/>
<text text-anchor="middle" x="129.5" y="-14.3" font-family="Arial" font-size="14.00">Shows communication between children</text>
</g>
<!-- n2&#45;&gt;n8 -->
<g id="edge7" class="edge">
<title>n2&#45;&gt;n8</title>
<path fill="none" stroke="black" d="M150.06,-121.81C146.1,-102.02 139.56,-69.29 134.92,-46.08"/>
<polygon fill="black" stroke="black" points="138.33,-45.28 132.93,-36.16 131.47,-46.65 138.33,-45.28"/>
</g>
<!-- n9 -->
<g id="node9" class="node">
<title>n9</title>
<path fill="palegreen" stroke="black" d="M494,-36C494,-36 329,-36 329,-36 323,-36 317,-30 317,-24 317,-24 317,-12 317,-12 317,-6 323,0 329,0 329,0 494,0 494,0 500,0 506,-6 506,-12 506,-12 506,-24 506,-24 506,-30 500,-36 494,-36"/>
<text text-anchor="middle" x="411.5" y="-14.3" font-family="Arial" font-size="14.00">Illustrates basic device setup</text>
</g>
<!-- n3&#45;&gt;n9 -->
<g id="edge8" class="edge">
<title>n3&#45;&gt;n9</title>
<path fill="none" stroke="black" d="M411.5,-121.81C411.5,-102.11 411.5,-69.58 411.5,-46.39"/>
<polygon fill="black" stroke="black" points="415,-46.16 411.5,-36.16 408,-46.16 415,-46.16"/>
</g>
<!-- n10 -->
<g id="node10" class="node">
<title>n10</title>
<path fill="palegreen" stroke="black" d="M819,-36C819,-36 576,-36 576,-36 570,-36 564,-30 564,-24 564,-24 564,-12 564,-12 564,-6 570,0 576,0 576,0 819,0 819,0 825,0 831,-6 831,-12 831,-12 831,-24 831,-24 831,-30 825,-36 819,-36"/>
<text text-anchor="middle" x="697.5" y="-14.3" font-family="Arial" font-size="14.00">Represents sound traveling through string</text>
</g>
<!-- n4&#45;&gt;n10 -->
<g id="edge9" class="edge">
<title>n4&#45;&gt;n10</title>
<path fill="none" stroke="black" d="M642.67,-121.81C653.36,-101.76 671.15,-68.4 683.56,-45.14"/>
<polygon fill="black" stroke="black" points="686.73,-46.63 688.35,-36.16 680.56,-43.34 686.73,-46.63"/>
</g>
<!-- n11 -->
<g id="node11" class="node">
<title>n11</title>
<path fill="palegreen" stroke="black" d="M1131.5,-36C1131.5,-36 947.5,-36 947.5,-36 941.5,-36 935.5,-30 935.5,-24 935.5,-24 935.5,-12 935.5,-12 935.5,-6 941.5,0 947.5,0 947.5,0 1131.5,0 1131.5,0 1137.5,0 1143.5,-6 1143.5,-12 1143.5,-12 1143.5,-24 1143.5,-24 1143.5,-30 1137.5,-36 1131.5,-36"/>
<text text-anchor="middle" x="1039.5" y="-14.3" font-family="Arial" font-size="14.00">Depicts sound waves effectively</text>
</g>
<!-- n5&#45;&gt;n11 -->
<g id="edge10" class="edge">
<title>n5&#45;&gt;n11</title>
<path fill="none" stroke="black" d="M883.58,-121.81C915.47,-100.78 969.57,-65.11 1004.9,-41.8"/>
<polygon fill="black" stroke="black" points="1007.06,-44.57 1013.5,-36.16 1003.22,-38.72 1007.06,-44.57"/>
</g>
<!-- n6&#45;&gt;n11 -->
<g id="edge11" class="edge">
<title>n6&#45;&gt;n11</title>
<path fill="none" stroke="black" d="M1112.3,-121.81C1098,-101.58 1074.1,-67.81 1057.6,-44.52"/>
<polygon fill="black" stroke="black" points="1060.33,-42.31 1051.7,-36.16 1054.61,-46.35 1060.33,-42.31"/>
</g>
<!-- n12 -->
<g id="node12" class="node">
<title>n12</title>
<path fill="palegreen" stroke="black" d="M1506,-36C1506,-36 1259,-36 1259,-36 1253,-36 1247,-30 1247,-24 1247,-24 1247,-12 1247,-12 1247,-6 1253,0 1259,0 1259,0 1506,0 1506,0 1512,0 1518,-6 1518,-12 1518,-12 1518,-24 1518,-24 1518,-30 1512,-36 1506,-36"/>
<text text-anchor="middle" x="1382.5" y="-14.3" font-family="Arial" font-size="14.00">Indicates successful information exchange</text>
</g>
<!-- n7&#45;&gt;n12 -->
<g id="edge12" class="edge">
<title>n7&#45;&gt;n12</title>
<path fill="none" stroke="black" d="M1382.5,-121.81C1382.5,-102.11 1382.5,-69.58 1382.5,-46.39"/>
<polygon fill="black" stroke="black" points="1386,-46.16 1382.5,-36.16 1379,-46.16 1386,-46.16"/>
</g>
</g>
</svg>
