<?xml version="1.0" encoding="UTF-8" standalone="no"?>
<!DOCTYPE svg PUBLIC "-//W3C//DTD SVG 1.1//EN"
 "http://www.w3.org/Graphics/SVG/1.1/DTD/svg11.dtd">
<!-- Generated by graphviz version 2.43.0 (0)
 -->
<!-- Pages: 1 -->
<svg width="1202pt" height="410pt"
 viewBox="0.00 0.00 1202.00 410.00" xmlns="http://www.w3.org/2000/svg" xmlns:xlink="http://www.w3.org/1999/xlink">
<g id="graph0" class="graph" transform="scale(1 1) rotate(0) translate(4 406)">
<polygon fill="white" stroke="transparent" points="-4,4 -4,-406 1198,-406 1198,4 -4,4"/>
<!-- n1 -->
<g id="node1" class="node">
<title>n1</title>
<polygon fill="lightblue" stroke="black" points="557,-384 445.5,-402 222.5,-402 111,-384 222.5,-366 445.5,-366 557,-384"/>
<text text-anchor="middle" x="334" y="-380.3" font-family="Arial" font-size="14.00">Draw a string telephone between two students.</text>
</g>
<!-- n2 -->
<g id="node2" class="node">
<title>n2</title>
<polygon fill="#fffdd0" stroke="black" points="308,-280 132,-280 132,-244 308,-244 308,-280"/>
<text text-anchor="middle" x="220" y="-258.3" font-family="Arial" font-size="14.00">Two students holding cups</text>
</g>
<!-- n1&#45;&gt;n2 -->
<g id="edge1" class="edge">
<title>n1&#45;&gt;n2</title>
<path fill="none" stroke="black" d="M317.67,-365.81C298.2,-345.31 265.52,-310.91 243.37,-287.6"/>
<polygon fill="black" stroke="black" points="245.73,-285 236.3,-280.16 240.65,-289.82 245.73,-285"/>
</g>
<!-- n3 -->
<g id="node3" class="node">
<title>n3</title>
<polygon fill="#fffdd0" stroke="black" points="619,-280 453,-280 453,-244 619,-244 619,-280"/>
<text text-anchor="middle" x="536" y="-258.3" font-family="Arial" font-size="14.00">Line connecting the cups</text>
</g>
<!-- n1&#45;&gt;n3 -->
<g id="edge2" class="edge">
<title>n1&#45;&gt;n3</title>
<path fill="none" stroke="black" d="M362.94,-365.81C398.49,-344.69 458.89,-308.81 498.11,-285.51"/>
<polygon fill="black" stroke="black" points="500.3,-288.28 507.11,-280.16 496.73,-282.26 500.3,-288.28"/>
</g>
<!-- n4 -->
<g id="node4" class="node">
<title>n4</title>
<path fill="palegreen" stroke="black" d="M254,-158C254,-158 12,-158 12,-158 6,-158 0,-152 0,-146 0,-146 0,-134 0,-134 0,-128 6,-122 12,-122 12,-122 254,-122 254,-122 260,-122 266,-128 266,-134 266,-134 266,-146 266,-146 266,-152 260,-158 254,-158"/>
<text text-anchor="middle" x="133" y="-136.3" font-family="Arial" font-size="14.00">Two students communicate over distance</text>
</g>
<!-- n2&#45;&gt;n4 -->
<g id="edge3" class="edge">
<title>n2&#45;&gt;n4</title>
<path fill="none" stroke="black" d="M207.54,-243.81C192.87,-223.58 168.39,-189.81 151.5,-166.52"/>
<polygon fill="black" stroke="black" points="154.14,-164.2 145.44,-158.16 148.48,-168.31 154.14,-164.2"/>
</g>
<!-- n5 -->
<g id="node5" class="node">
<title>n5</title>
<polygon fill="lightcoral" stroke="black" points="536,-158 323.5,-140 536,-122 748.5,-140 536,-158"/>
<text text-anchor="middle" x="536" y="-136.3" font-family="Arial" font-size="14.00">Device uses sound to communicate</text>
</g>
<!-- n3&#45;&gt;n5 -->
<g id="edge4" class="edge">
<title>n3&#45;&gt;n5</title>
<path fill="none" stroke="black" d="M536,-243.81C536,-224.11 536,-191.58 536,-168.39"/>
<polygon fill="black" stroke="black" points="539.5,-168.16 536,-158.16 532.5,-168.16 539.5,-168.16"/>
</g>
<!-- n6 -->
<g id="node6" class="node">
<title>n6</title>
<polygon fill="lightcoral" stroke="black" points="1000,-158 806,-140 1000,-122 1194,-140 1000,-158"/>
<text text-anchor="middle" x="1000" y="-136.3" font-family="Arial" font-size="14.00">String is not taut for sound travel</text>
</g>
<!-- n3&#45;&gt;n6 -->
<g id="edge5" class="edge">
<title>n3&#45;&gt;n6</title>
<path fill="none" stroke="black" d="M601.99,-243.93C692.84,-220.44 855.02,-178.49 941.66,-156.09"/>
<polygon fill="black" stroke="black" points="942.79,-159.41 951.59,-153.52 941.03,-152.64 942.79,-159.41"/>
</g>
<!-- n7 -->
<g id="node7" class="node">
<title>n7</title>
<polygon fill="#f28e8e" stroke="black" points="679.5,-36 392.5,-36 392.5,0 679.5,0 679.5,-36"/>
<text text-anchor="middle" x="536" y="-14.3" font-family="Arial" font-size="14.00">Include arrows to show sound travel direction</text>
</g>
<!-- n5&#45;&gt;n7 -->
<g id="edge6" class="edge">
<title>n5&#45;&gt;n7</title>
<path fill="none" stroke="black" d="M536,-121.81C536,-102.11 536,-69.58 536,-46.39"/>
<polygon fill="black" stroke="black" points="539.5,-46.16 536,-36.16 532.5,-46.16 539.5,-46.16"/>
</g>
<!-- n8 -->
<g id="node8" class="node">
<title>n8</title>
<polygon fill="#f28e8e" stroke="black" points="1104,-36 896,-36 896,0 1104,0 1104,-36"/>
<text text-anchor="middle" x="1000" y="-14.3" font-family="Arial" font-size="14.00">Keep string taut for sound travel</text>
</g>
<!-- n6&#45;&gt;n8 -->
<g id="edge7" class="edge">
<title>n6&#45;&gt;n8</title>
<path fill="none" stroke="black" d="M1000,-121.81C1000,-102.11 1000,-69.58 1000,-46.39"/>
<polygon fill="black" stroke="black" points="1003.5,-46.16 1000,-36.16 996.5,-46.16 1003.5,-46.16"/>
</g>
</g>
</svg>
