<?xml version="1.0" encoding="UTF-8" standalone="no"?>
<!DOCTYPE svg PUBLIC "-//W3C//DTD SVG 1.1//EN"
 "http://www.w3.org/Graphics/SVG/1.1/DTD/svg11.dtd">
<!-- Generated by graphviz version 2.43.0 (0)
 -->
<!-- Pages: 1 -->
<svg width="1871pt" height="410pt"
 viewBox="0.00 0.00 1871.12 410.00" xmlns="http://www.w3.org/2000/svg" xmlns:xlink="http://www.w3.org/1999/xlink">
<g id="graph0" class="graph" transform="scale(1 1) rotate(0) translate(4 406)">
<polygon fill="white" stroke="transparent" points="-4,4 -4,-406 1867.12,-406 1867.12,4 -4,4"/>
<!-- n1 -->
<g id="node1" class="node">
<title>n1</title>
<polygon fill="lightblue" stroke="black" points="889.32,-384 766.91,-402 522.09,-402 399.68,-384 522.09,-366 766.91,-366 889.32,-384"/>
<text text-anchor="middle" x="644.5" y="-380.3" font-family="Arial" font-size="14.00">Draw a habitat and the different living things in each</text>
</g>
<!-- n2 -->
<g id="node2" class="node">
<title>n2</title>
<polygon fill="#fffdd0" stroke="black" points="305.5,-280 145.5,-280 145.5,-244 305.5,-244 305.5,-280"/>
<text text-anchor="middle" x="225.5" y="-258.3" font-family="Arial" font-size="14.00">Green rectangle (grass)</text>
</g>
<!-- n1&#45;&gt;n2 -->
<g id="edge1" class="edge">
<title>n1&#45;&gt;n2</title>
<path fill="none" stroke="black" d="M584.91,-365.93C508.43,-344.03 375.97,-306.09 294.98,-282.9"/>
<polygon fill="black" stroke="black" points="295.46,-279.4 284.88,-280.01 293.53,-286.13 295.46,-279.4"/>
</g>
<!-- n3 -->
<g id="node3" class="node">
<title>n3</title>
<polygon fill="#fffdd0" stroke="black" points="639,-280 382,-280 382,-244 639,-244 639,-280"/>
<text text-anchor="middle" x="510.5" y="-258.3" font-family="Arial" font-size="14.00">Brown tree with sparse green dots (tree)</text>
</g>
<!-- n1&#45;&gt;n3 -->
<g id="edge2" class="edge">
<title>n1&#45;&gt;n3</title>
<path fill="none" stroke="black" d="M625.3,-365.81C602.22,-345.13 563.33,-310.31 537.3,-287"/>
<polygon fill="black" stroke="black" points="539.44,-284.22 529.66,-280.16 534.78,-289.44 539.44,-284.22"/>
</g>
<!-- n4 -->
<g id="node4" class="node">
<title>n4</title>
<polygon fill="#fffdd0" stroke="black" points="869,-280 706,-280 706,-244 869,-244 869,-280"/>
<text text-anchor="middle" x="787.5" y="-258.3" font-family="Arial" font-size="14.00">Stick figure dog (animal)</text>
</g>
<!-- n1&#45;&gt;n4 -->
<g id="edge3" class="edge">
<title>n1&#45;&gt;n4</title>
<path fill="none" stroke="black" d="M664.99,-365.81C689.73,-345.04 731.48,-310.01 759.26,-286.7"/>
<polygon fill="black" stroke="black" points="761.64,-289.27 767.05,-280.16 757.14,-283.91 761.64,-289.27"/>
</g>
<!-- n5 -->
<g id="node5" class="node">
<title>n5</title>
<polygon fill="#fffdd0" stroke="black" points="1337.5,-280 1199.5,-280 1199.5,-244 1337.5,-244 1337.5,-280"/>
<text text-anchor="middle" x="1268.5" y="-258.3" font-family="Arial" font-size="14.00">Yellow sun with rays</text>
</g>
<!-- n1&#45;&gt;n5 -->
<g id="edge4" class="edge">
<title>n1&#45;&gt;n5</title>
<path fill="none" stroke="black" d="M732.91,-366C854.77,-342.56 1072.5,-300.69 1189.3,-278.23"/>
<polygon fill="black" stroke="black" points="1190.04,-281.65 1199.2,-276.32 1188.72,-274.78 1190.04,-281.65"/>
</g>
<!-- n6 -->
<g id="node6" class="node">
<title>n6</title>
<path fill="palegreen" stroke="black" d="M365,-158C365,-158 12,-158 12,-158 6,-158 0,-152 0,-146 0,-146 0,-134 0,-134 0,-128 6,-122 12,-122 12,-122 365,-122 365,-122 371,-122 377,-128 377,-134 377,-134 377,-146 377,-146 377,-152 371,-158 365,-158"/>
<text text-anchor="middle" x="188.5" y="-136.3" font-family="Arial" font-size="14.00">Understands basic shapes representing habitat components</text>
</g>
<!-- n2&#45;&gt;n6 -->
<g id="edge5" class="edge">
<title>n2&#45;&gt;n6</title>
<path fill="none" stroke="black" d="M220.2,-243.81C214.07,-223.94 203.91,-190.99 196.75,-167.76"/>
<polygon fill="black" stroke="black" points="200.08,-166.68 193.79,-158.16 193.39,-168.75 200.08,-166.68"/>
</g>
<!-- n3&#45;&gt;n6 -->
<g id="edge6" class="edge">
<title>n3&#45;&gt;n6</title>
<path fill="none" stroke="black" d="M464.71,-243.93C406.53,-222.25 306.2,-184.86 243.81,-161.61"/>
<polygon fill="black" stroke="black" points="244.72,-158.22 234.13,-158.01 242.28,-164.78 244.72,-158.22"/>
</g>
<!-- n7 -->
<g id="node7" class="node">
<title>n7</title>
<polygon fill="lightcoral" stroke="black" points="797.5,-158 435.2,-140 797.5,-122 1159.8,-140 797.5,-158"/>
<text text-anchor="middle" x="797.5" y="-136.3" font-family="Arial" font-size="14.00">Misplacemement of habitat elements (e.g., dog on playground)</text>
</g>
<!-- n4&#45;&gt;n7 -->
<g id="edge7" class="edge">
<title>n4&#45;&gt;n7</title>
<path fill="none" stroke="black" d="M788.93,-243.81C790.57,-224.11 793.28,-191.58 795.22,-168.39"/>
<polygon fill="black" stroke="black" points="798.73,-168.42 796.07,-158.16 791.75,-167.84 798.73,-168.42"/>
</g>
<!-- n8 -->
<g id="node8" class="node">
<title>n8</title>
<polygon fill="lightcoral" stroke="black" points="1540.5,-158 1217.75,-140 1540.5,-122 1863.25,-140 1540.5,-158"/>
<text text-anchor="middle" x="1540.5" y="-136.3" font-family="Arial" font-size="14.00">Limited diversity and specificity in representing a habitat</text>
</g>
<!-- n5&#45;&gt;n8 -->
<g id="edge8" class="edge">
<title>n5&#45;&gt;n8</title>
<path fill="none" stroke="black" d="M1307.2,-243.93C1357.3,-221.82 1444.5,-183.37 1496.9,-160.24"/>
<polygon fill="black" stroke="black" points="1498.48,-163.37 1506.2,-156.11 1495.64,-156.97 1498.48,-163.37"/>
</g>
<!-- n9 -->
<g id="node9" class="node">
<title>n9</title>
<polygon fill="#f28e8e" stroke="black" points="986,-36 609,-36 609,0 986,0 986,-36"/>
<text text-anchor="middle" x="797.5" y="-14.3" font-family="Arial" font-size="14.00">Explore different habitats and their unique plant &amp; animal life</text>
</g>
<!-- n7&#45;&gt;n9 -->
<g id="edge9" class="edge">
<title>n7&#45;&gt;n9</title>
<path fill="none" stroke="black" d="M797.5,-121.81C797.5,-102.11 797.5,-69.58 797.5,-46.39"/>
<polygon fill="black" stroke="black" points="801,-46.16 797.5,-36.16 794,-46.16 801,-46.16"/>
</g>
<!-- n10 -->
<g id="node10" class="node">
<title>n10</title>
<polygon fill="#f28e8e" stroke="black" points="1746,-36 1335,-36 1335,0 1746,0 1746,-36"/>
<text text-anchor="middle" x="1540.5" y="-14.3" font-family="Arial" font-size="14.00">Provide examples of animal&#45;plant relationships in specific habitats</text>
</g>
<!-- n8&#45;&gt;n10 -->
<g id="edge10" class="edge">
<title>n8&#45;&gt;n10</title>
<path fill="none" stroke="black" d="M1540.5,-121.81C1540.5,-102.11 1540.5,-69.58 1540.5,-46.39"/>
<polygon fill="black" stroke="black" points="1544,-46.16 1540.5,-36.16 1537,-46.16 1544,-46.16"/>
</g>
</g>
</svg>
