<?xml version="1.0" encoding="UTF-8" standalone="no"?>
<!DOCTYPE svg PUBLIC "-//W3C//DTD SVG 1.1//EN"
 "http://www.w3.org/Graphics/SVG/1.1/DTD/svg11.dtd">
<!-- Generated by graphviz version 2.43.0 (0)
 -->
<!-- Pages: 1 -->
<svg width="1866pt" height="532pt"
 viewBox="0.00 0.00 1865.70 532.00" xmlns="http://www.w3.org/2000/svg" xmlns:xlink="http://www.w3.org/1999/xlink">
<g id="graph0" class="graph" transform="scale(1 1) rotate(0) translate(4 528)">
<polygon fill="white" stroke="transparent" points="-4,4 -4,-528 1861.7,-528 1861.7,4 -4,4"/>
<!-- n1 -->
<g id="node1" class="node">
<title>n1</title>
<polygon fill="lightblue" stroke="black" points="1204.2,-506 1073.95,-524 813.45,-524 683.2,-506 813.45,-488 1073.95,-488 1204.2,-506"/>
<text text-anchor="middle" x="943.7" y="-502.3" font-family="Arial" font-size="14.00">Draw two habitats and the different living things in each</text>
</g>
<!-- n2 -->
<g id="node2" class="node">
<title>n2</title>
<polygon fill="#fffdd0" stroke="black" points="1047.7,-402 839.7,-402 839.7,-366 1047.7,-366 1047.7,-402"/>
<text text-anchor="middle" x="943.7" y="-380.3" font-family="Arial" font-size="14.00">Detailed drawing of two habitats</text>
</g>
<!-- n1&#45;&gt;n2 -->
<g id="edge1" class="edge">
<title>n1&#45;&gt;n2</title>
<path fill="none" stroke="black" d="M943.7,-487.81C943.7,-468.11 943.7,-435.58 943.7,-412.39"/>
<polygon fill="black" stroke="black" points="947.2,-412.16 943.7,-402.16 940.2,-412.16 947.2,-412.16"/>
</g>
<!-- n3 -->
<g id="node3" class="node">
<title>n3</title>
<polygon fill="#fffdd0" stroke="black" points="1369.7,-280 979.7,-280 979.7,-244 1369.7,-244 1369.7,-280"/>
<text text-anchor="middle" x="1174.7" y="-258.3" font-family="Arial" font-size="14.00">Forest habitat with trees, grass, squirrel, lizard, birds, and deer</text>
</g>
<!-- n2&#45;&gt;n3 -->
<g id="edge2" class="edge">
<title>n2&#45;&gt;n3</title>
<path fill="none" stroke="black" d="M976.79,-365.81C1017.9,-344.47 1088,-308.05 1132.8,-284.77"/>
<polygon fill="black" stroke="black" points="1134.43,-287.87 1141.7,-280.16 1131.21,-281.65 1134.43,-287.87"/>
</g>
<!-- n4 -->
<g id="node4" class="node">
<title>n4</title>
<polygon fill="#fffdd0" stroke="black" points="921.2,-280 504.2,-280 504.2,-244 921.2,-244 921.2,-280"/>
<text text-anchor="middle" x="712.7" y="-258.3" font-family="Arial" font-size="14.00">Aquatic habitat with water, seaweed, aquatic plants, fish, frog, duck</text>
</g>
<!-- n2&#45;&gt;n4 -->
<g id="edge3" class="edge">
<title>n2&#45;&gt;n4</title>
<path fill="none" stroke="black" d="M910.6,-365.81C869.52,-344.47 799.41,-308.05 754.61,-284.77"/>
<polygon fill="black" stroke="black" points="756.21,-281.66 745.73,-280.16 752.99,-287.87 756.21,-281.66"/>
</g>
<!-- n5 -->
<g id="node5" class="node">
<title>n5</title>
<path fill="palegreen" stroke="black" d="M881.7,-158C881.7,-158 645.7,-158 645.7,-158 639.7,-158 633.7,-152 633.7,-146 633.7,-146 633.7,-134 633.7,-134 633.7,-128 639.7,-122 645.7,-122 645.7,-122 881.7,-122 881.7,-122 887.7,-122 893.7,-128 893.7,-134 893.7,-134 893.7,-146 893.7,-146 893.7,-152 887.7,-158 881.7,-158"/>
<text text-anchor="middle" x="763.7" y="-136.3" font-family="Arial" font-size="14.00">Student understands diversity of habitats</text>
</g>
<!-- n3&#45;&gt;n5 -->
<g id="edge4" class="edge">
<title>n3&#45;&gt;n5</title>
<path fill="none" stroke="black" d="M1116.2,-243.93C1041.2,-222.03 911.29,-184.09 831.85,-160.9"/>
<polygon fill="black" stroke="black" points="832.52,-157.45 821.94,-158.01 830.56,-164.17 832.52,-157.45"/>
</g>
<!-- n6 -->
<g id="node6" class="node">
<title>n6</title>
<path fill="palegreen" stroke="black" d="M1283.7,-158C1283.7,-158 963.7,-158 963.7,-158 957.7,-158 951.7,-152 951.7,-146 951.7,-146 951.7,-134 951.7,-134 951.7,-128 957.7,-122 963.7,-122 963.7,-122 1283.7,-122 1283.7,-122 1289.7,-122 1295.7,-128 1295.7,-134 1295.7,-134 1295.7,-146 1295.7,-146 1295.7,-152 1289.7,-158 1283.7,-158"/>
<text text-anchor="middle" x="1123.7" y="-136.3" font-family="Arial" font-size="14.00">Understanding of plant and animal inclusion in habitats</text>
</g>
<!-- n3&#45;&gt;n6 -->
<g id="edge5" class="edge">
<title>n3&#45;&gt;n6</title>
<path fill="none" stroke="black" d="M1167.4,-243.81C1158.9,-223.85 1144.8,-190.7 1134.9,-167.45"/>
<polygon fill="black" stroke="black" points="1138.09,-166.03 1131,-158.16 1131.64,-168.74 1138.09,-166.03"/>
</g>
<!-- n7 -->
<g id="node7" class="node">
<title>n7</title>
<polygon fill="lightcoral" stroke="black" points="1605.7,-158 1353.7,-140 1605.7,-122 1857.7,-140 1605.7,-158"/>
<text text-anchor="middle" x="1605.7" y="-136.3" font-family="Arial" font-size="14.00">Misunderstanding: Lack of specific labeling</text>
</g>
<!-- n3&#45;&gt;n7 -->
<g id="edge6" class="edge">
<title>n3&#45;&gt;n7</title>
<path fill="none" stroke="black" d="M1236,-243.93C1318.8,-220.88 1465.4,-180.07 1546.9,-157.38"/>
<polygon fill="black" stroke="black" points="1548.3,-160.62 1557,-154.57 1546.42,-153.88 1548.3,-160.62"/>
</g>
<!-- n4&#45;&gt;n5 -->
<g id="edge7" class="edge">
<title>n4&#45;&gt;n5</title>
<path fill="none" stroke="black" d="M720,-243.81C728.49,-223.85 742.57,-190.7 752.45,-167.45"/>
<polygon fill="black" stroke="black" points="755.7,-168.73 756.4,-158.16 749.26,-165.99 755.7,-168.73"/>
</g>
<!-- n4&#45;&gt;n6 -->
<g id="edge8" class="edge">
<title>n4&#45;&gt;n6</title>
<path fill="none" stroke="black" d="M771.15,-243.93C846.17,-222.03 976.1,-184.09 1055.5,-160.9"/>
<polygon fill="black" stroke="black" points="1056.78,-164.17 1065.4,-158.01 1054.82,-157.45 1056.78,-164.17"/>
</g>
<!-- n8 -->
<g id="node8" class="node">
<title>n8</title>
<polygon fill="lightcoral" stroke="black" points="287.7,-158 -0.2,-140 287.7,-122 575.59,-140 287.7,-158"/>
<text text-anchor="middle" x="287.7" y="-136.3" font-family="Arial" font-size="14.00">Misunderstanding: Absence of smaller organisms</text>
</g>
<!-- n4&#45;&gt;n8 -->
<g id="edge9" class="edge">
<title>n4&#45;&gt;n8</title>
<path fill="none" stroke="black" d="M652.26,-243.93C571.05,-221.01 427.63,-180.51 347.01,-157.75"/>
<polygon fill="black" stroke="black" points="347.59,-154.28 337.02,-154.93 345.69,-161.02 347.59,-154.28"/>
</g>
<!-- n9 -->
<g id="node9" class="node">
<title>n9</title>
<polygon fill="#f28e8e" stroke="black" points="1758.7,-36 1452.7,-36 1452.7,0 1758.7,0 1758.7,-36"/>
<text text-anchor="middle" x="1605.7" y="-14.3" font-family="Arial" font-size="14.00">Suggestion: Encourage labeling of all organisms</text>
</g>
<!-- n7&#45;&gt;n9 -->
<g id="edge10" class="edge">
<title>n7&#45;&gt;n9</title>
<path fill="none" stroke="black" d="M1605.7,-121.81C1605.7,-102.11 1605.7,-69.58 1605.7,-46.39"/>
<polygon fill="black" stroke="black" points="1609.2,-46.16 1605.7,-36.16 1602.2,-46.16 1609.2,-46.16"/>
</g>
<!-- n10 -->
<g id="node10" class="node">
<title>n10</title>
<polygon fill="#f28e8e" stroke="black" points="457.7,-36 117.7,-36 117.7,0 457.7,0 457.7,-36"/>
<text text-anchor="middle" x="287.7" y="-14.3" font-family="Arial" font-size="14.00">Suggestion: Introduce examples of smaller organisms</text>
</g>
<!-- n8&#45;&gt;n10 -->
<g id="edge11" class="edge">
<title>n8&#45;&gt;n10</title>
<path fill="none" stroke="black" d="M287.7,-121.81C287.7,-102.11 287.7,-69.58 287.7,-46.39"/>
<polygon fill="black" stroke="black" points="291.2,-46.16 287.7,-36.16 284.2,-46.16 291.2,-46.16"/>
</g>
</g>
</svg>
