<?xml version="1.0" encoding="UTF-8" standalone="no"?>
<!DOCTYPE svg PUBLIC "-//W3C//DTD SVG 1.1//EN"
 "http://www.w3.org/Graphics/SVG/1.1/DTD/svg11.dtd">
<!-- Generated by graphviz version 2.43.0 (0)
 -->
<!-- Pages: 1 -->
<svg width="1228pt" height="410pt"
 viewBox="0.00 0.00 1227.54 410.00" xmlns="http://www.w3.org/2000/svg" xmlns:xlink="http://www.w3.org/1999/xlink">
<g id="graph0" class="graph" transform="scale(1 1) rotate(0) translate(4 406)">
<polygon fill="white" stroke="transparent" points="-4,4 -4,-406 1223.54,-406 1223.54,4 -4,4"/>
<!-- n1 -->
<g id="node1" class="node">
<title>n1</title>
<polygon fill="lightblue" stroke="black" points="529.5,-384 418,-402 195,-402 83.5,-384 195,-366 418,-366 529.5,-384"/>
<text text-anchor="middle" x="306.5" y="-380.3" font-family="Arial" font-size="14.00">Draw a string telephone between two students.</text>
</g>
<!-- n2 -->
<g id="node2" class="node">
<title>n2</title>
<polygon fill="#fffdd0" stroke="black" points="258.5,-280 94.5,-280 94.5,-244 258.5,-244 258.5,-280"/>
<text text-anchor="middle" x="176.5" y="-258.3" font-family="Arial" font-size="14.00">Two stick figure students</text>
</g>
<!-- n1&#45;&gt;n2 -->
<g id="edge1" class="edge">
<title>n1&#45;&gt;n2</title>
<path fill="none" stroke="black" d="M287.87,-365.81C265.48,-345.13 227.76,-310.31 202.5,-287"/>
<polygon fill="black" stroke="black" points="204.81,-284.37 195.09,-280.16 200.06,-289.51 204.81,-284.37"/>
</g>
<!-- n3 -->
<g id="node3" class="node">
<title>n3</title>
<polygon fill="#fffdd0" stroke="black" points="602.5,-280 360.5,-280 360.5,-244 602.5,-244 602.5,-280"/>
<text text-anchor="middle" x="481.5" y="-258.3" font-family="Arial" font-size="14.00">Black line connecting students&#39; hands</text>
</g>
<!-- n1&#45;&gt;n3 -->
<g id="edge2" class="edge">
<title>n1&#45;&gt;n3</title>
<path fill="none" stroke="black" d="M331.57,-365.81C362.11,-344.87 413.82,-309.41 447.81,-286.1"/>
<polygon fill="black" stroke="black" points="450.2,-288.7 456.47,-280.16 446.24,-282.93 450.2,-288.7"/>
</g>
<!-- n4 -->
<g id="node4" class="node">
<title>n4</title>
<path fill="palegreen" stroke="black" d="M253,-158C253,-158 12,-158 12,-158 6,-158 0,-152 0,-146 0,-146 0,-134 0,-134 0,-128 6,-122 12,-122 12,-122 253,-122 253,-122 259,-122 265,-128 265,-134 265,-134 265,-146 265,-146 265,-152 259,-158 253,-158"/>
<text text-anchor="middle" x="132.5" y="-136.3" font-family="Arial" font-size="14.00">Basic understanding of a string telephone</text>
</g>
<!-- n2&#45;&gt;n4 -->
<g id="edge3" class="edge">
<title>n2&#45;&gt;n4</title>
<path fill="none" stroke="black" d="M170.2,-243.81C162.91,-223.94 150.83,-190.99 142.31,-167.76"/>
<polygon fill="black" stroke="black" points="145.52,-166.34 138.79,-158.16 138.95,-168.75 145.52,-166.34"/>
</g>
<!-- n5 -->
<g id="node5" class="node">
<title>n5</title>
<polygon fill="lightcoral" stroke="black" points="481.5,-158 323.31,-140 481.5,-122 639.69,-140 481.5,-158"/>
<text text-anchor="middle" x="481.5" y="-136.3" font-family="Arial" font-size="14.00">Omission of sound waves</text>
</g>
<!-- n3&#45;&gt;n5 -->
<g id="edge4" class="edge">
<title>n3&#45;&gt;n5</title>
<path fill="none" stroke="black" d="M481.5,-243.81C481.5,-224.11 481.5,-191.58 481.5,-168.39"/>
<polygon fill="black" stroke="black" points="485,-168.16 481.5,-158.16 478,-168.16 485,-168.16"/>
</g>
<!-- n6 -->
<g id="node6" class="node">
<title>n6</title>
<polygon fill="lightcoral" stroke="black" points="958.5,-158 697.42,-140 958.5,-122 1219.58,-140 958.5,-158"/>
<text text-anchor="middle" x="958.5" y="-136.3" font-family="Arial" font-size="14.00">Lack of labels or captions explaining function</text>
</g>
<!-- n3&#45;&gt;n6 -->
<g id="edge5" class="edge">
<title>n3&#45;&gt;n6</title>
<path fill="none" stroke="black" d="M549.08,-244C641.36,-220.78 805.55,-179.48 895.42,-156.87"/>
<polygon fill="black" stroke="black" points="896.36,-160.24 905.2,-154.41 894.65,-153.46 896.36,-160.24"/>
</g>
<!-- n7 -->
<g id="node7" class="node">
<title>n7</title>
<polygon fill="#f28e8e" stroke="black" points="632,-36 331,-36 331,0 632,0 632,-36"/>
<text text-anchor="middle" x="481.5" y="-14.3" font-family="Arial" font-size="14.00">Add visuals or text showing sound transmission</text>
</g>
<!-- n5&#45;&gt;n7 -->
<g id="edge6" class="edge">
<title>n5&#45;&gt;n7</title>
<path fill="none" stroke="black" d="M481.5,-121.81C481.5,-102.11 481.5,-69.58 481.5,-46.39"/>
<polygon fill="black" stroke="black" points="485,-46.16 481.5,-36.16 478,-46.16 485,-46.16"/>
</g>
<!-- n8 -->
<g id="node8" class="node">
<title>n8</title>
<polygon fill="#f28e8e" stroke="black" points="1112.5,-36 804.5,-36 804.5,0 1112.5,0 1112.5,-36"/>
<text text-anchor="middle" x="958.5" y="-14.3" font-family="Arial" font-size="14.00">Include labels to explain communication function</text>
</g>
<!-- n6&#45;&gt;n8 -->
<g id="edge7" class="edge">
<title>n6&#45;&gt;n8</title>
<path fill="none" stroke="black" d="M958.5,-121.81C958.5,-102.11 958.5,-69.58 958.5,-46.39"/>
<polygon fill="black" stroke="black" points="962,-46.16 958.5,-36.16 955,-46.16 962,-46.16"/>
</g>
</g>
</svg>
