<?xml version="1.0" encoding="UTF-8" standalone="no"?>
<!DOCTYPE svg PUBLIC "-//W3C//DTD SVG 1.1//EN"
 "http://www.w3.org/Graphics/SVG/1.1/DTD/svg11.dtd">
<!-- Generated by graphviz version 2.43.0 (0)
 -->
<!-- Pages: 1 -->
<svg width="1793pt" height="410pt"
 viewBox="0.00 0.00 1793.20 410.00" xmlns="http://www.w3.org/2000/svg" xmlns:xlink="http://www.w3.org/1999/xlink">
<g id="graph0" class="graph" transform="scale(1 1) rotate(0) translate(4 406)">
<polygon fill="white" stroke="transparent" points="-4,4 -4,-406 1789.2,-406 1789.2,4 -4,4"/>
<!-- n1 -->
<g id="node1" class="node">
<title>n1</title>
<polygon fill="lightblue" stroke="black" points="1034.55,-384 891.86,-402 606.49,-402 463.8,-384 606.49,-366 891.86,-366 1034.55,-384"/>
<text text-anchor="middle" x="749.18" y="-380.3" font-family="Arial" font-size="14.00">Draw animals in their habitats with labels (e.g., fish in water).</text>
</g>
<!-- n2 -->
<g id="node2" class="node">
<title>n2</title>
<polygon fill="#fffdd0" stroke="black" points="1272.7,-280 963.7,-280 963.7,-244 1272.7,-244 1272.7,-280"/>
<text text-anchor="middle" x="1118.2" y="-258.3" font-family="Arial" font-size="14.00">Circle with lines labeled &#39;dog&#39; on grassy scribbles</text>
</g>
<!-- n1&#45;&gt;n2 -->
<g id="edge1" class="edge">
<title>n1&#45;&gt;n2</title>
<path fill="none" stroke="black" d="M801.65,-365.93C868.74,-344.12 984.72,-306.4 1056.1,-283.18"/>
<polygon fill="black" stroke="black" points="1057.46,-286.42 1065.9,-280.01 1055.3,-279.76 1057.46,-286.42"/>
</g>
<!-- n3 -->
<g id="node3" class="node">
<title>n3</title>
<polygon fill="#fffdd0" stroke="black" points="905.68,-280 592.68,-280 592.68,-244 905.68,-244 905.68,-280"/>
<text text-anchor="middle" x="749.18" y="-258.3" font-family="Arial" font-size="14.00">Fish&#45;shaped oval labeled &#39;fish&#39; above a single line</text>
</g>
<!-- n1&#45;&gt;n3 -->
<g id="edge2" class="edge">
<title>n1&#45;&gt;n3</title>
<path fill="none" stroke="black" d="M749.18,-365.81C749.18,-346.11 749.18,-313.58 749.18,-290.39"/>
<polygon fill="black" stroke="black" points="752.68,-290.16 749.18,-280.16 745.68,-290.16 752.68,-290.16"/>
</g>
<!-- n4 -->
<g id="node4" class="node">
<title>n4</title>
<polygon fill="#fffdd0" stroke="black" points="534.68,-280 295.68,-280 295.68,-244 534.68,-244 534.68,-280"/>
<text text-anchor="middle" x="415.18" y="-258.3" font-family="Arial" font-size="14.00">Circle with triangle beak labeled &#39;bird&#39;</text>
</g>
<!-- n1&#45;&gt;n4 -->
<g id="edge3" class="edge">
<title>n1&#45;&gt;n4</title>
<path fill="none" stroke="black" d="M701.68,-365.93C641.21,-344.21 536.83,-306.71 472.15,-283.47"/>
<polygon fill="black" stroke="black" points="473.1,-280.09 462.51,-280.01 470.74,-286.68 473.1,-280.09"/>
</g>
<!-- n5 -->
<g id="node5" class="node">
<title>n5</title>
<path fill="palegreen" stroke="black" d="M600.18,-158C600.18,-158 384.18,-158 384.18,-158 378.18,-158 372.18,-152 372.18,-146 372.18,-146 372.18,-134 372.18,-134 372.18,-128 378.18,-122 384.18,-122 384.18,-122 600.18,-122 600.18,-122 606.18,-122 612.18,-128 612.18,-134 612.18,-134 612.18,-146 612.18,-146 612.18,-152 606.18,-158 600.18,-158"/>
<text text-anchor="middle" x="492.18" y="-136.3" font-family="Arial" font-size="14.00">Identifies and draws different animals</text>
</g>
<!-- n2&#45;&gt;n5 -->
<g id="edge4" class="edge">
<title>n2&#45;&gt;n5</title>
<path fill="none" stroke="black" d="M1029.5,-244C913.67,-221.8 711.56,-183.05 590.97,-159.94"/>
<polygon fill="black" stroke="black" points="591.48,-156.47 581,-158.03 590.16,-163.35 591.48,-156.47"/>
</g>
<!-- n6 -->
<g id="node6" class="node">
<title>n6</title>
<path fill="palegreen" stroke="black" d="M816.18,-158C816.18,-158 682.18,-158 682.18,-158 676.18,-158 670.18,-152 670.18,-146 670.18,-146 670.18,-134 670.18,-134 670.18,-128 676.18,-122 682.18,-122 682.18,-122 816.18,-122 816.18,-122 822.18,-122 828.18,-128 828.18,-134 828.18,-134 828.18,-146 828.18,-146 828.18,-152 822.18,-158 816.18,-158"/>
<text text-anchor="middle" x="749.18" y="-136.3" font-family="Arial" font-size="14.00">Basic labeling is correct</text>
</g>
<!-- n2&#45;&gt;n6 -->
<g id="edge5" class="edge">
<title>n2&#45;&gt;n6</title>
<path fill="none" stroke="black" d="M1065.7,-243.93C998.62,-222.12 882.64,-184.4 811.24,-161.18"/>
<polygon fill="black" stroke="black" points="812.06,-157.77 801.47,-158.01 809.9,-164.43 812.06,-157.77"/>
</g>
<!-- n7 -->
<g id="node7" class="node">
<title>n7</title>
<polygon fill="lightcoral" stroke="black" points="1563.2,-158 1346.2,-140 1563.2,-122 1780.2,-140 1563.2,-158"/>
<text text-anchor="middle" x="1563.2" y="-136.3" font-family="Arial" font-size="14.00">Incomplete depiction of dog&#39;s habitat</text>
</g>
<!-- n2&#45;&gt;n7 -->
<g id="edge6" class="edge">
<title>n2&#45;&gt;n7</title>
<path fill="none" stroke="black" d="M1181.5,-243.93C1267.8,-220.65 1421.4,-179.24 1505,-156.69"/>
<polygon fill="black" stroke="black" points="1506.06,-160.03 1514.8,-154.04 1504.23,-153.27 1506.06,-160.03"/>
</g>
<!-- n3&#45;&gt;n5 -->
<g id="edge7" class="edge">
<title>n3&#45;&gt;n5</title>
<path fill="none" stroke="black" d="M712.63,-243.93C666.67,-222.48 587.76,-185.63 537.87,-162.33"/>
<polygon fill="black" stroke="black" points="539.14,-159.06 528.6,-158.01 536.18,-165.41 539.14,-159.06"/>
</g>
<!-- n3&#45;&gt;n6 -->
<g id="edge8" class="edge">
<title>n3&#45;&gt;n6</title>
<path fill="none" stroke="black" d="M749.18,-243.81C749.18,-224.11 749.18,-191.58 749.18,-168.39"/>
<polygon fill="black" stroke="black" points="752.68,-168.16 749.18,-158.16 745.68,-168.16 752.68,-168.16"/>
</g>
<!-- n8 -->
<g id="node8" class="node">
<title>n8</title>
<polygon fill="lightcoral" stroke="black" points="1087.2,-158 885.7,-140 1087.2,-122 1288.7,-140 1087.2,-158"/>
<text text-anchor="middle" x="1087.2" y="-136.3" font-family="Arial" font-size="14.00">Fish partially represented in water</text>
</g>
<!-- n3&#45;&gt;n8 -->
<g id="edge9" class="edge">
<title>n3&#45;&gt;n8</title>
<path fill="none" stroke="black" d="M797.24,-243.93C861.56,-221.1 974.95,-180.84 1039.2,-158.03"/>
<polygon fill="black" stroke="black" points="1040.44,-161.3 1048.7,-154.66 1038.1,-154.7 1040.44,-161.3"/>
</g>
<!-- n4&#45;&gt;n5 -->
<g id="edge10" class="edge">
<title>n4&#45;&gt;n5</title>
<path fill="none" stroke="black" d="M426.21,-243.81C439.13,-223.67 460.67,-190.1 475.6,-166.83"/>
<polygon fill="black" stroke="black" points="478.7,-168.47 481.16,-158.16 472.81,-164.69 478.7,-168.47"/>
</g>
<!-- n4&#45;&gt;n6 -->
<g id="edge11" class="edge">
<title>n4&#45;&gt;n6</title>
<path fill="none" stroke="black" d="M462.68,-243.93C523.15,-222.21 627.52,-184.71 692.2,-161.47"/>
<polygon fill="black" stroke="black" points="693.61,-164.68 701.84,-158.01 691.24,-158.09 693.61,-164.68"/>
</g>
<!-- n9 -->
<g id="node9" class="node">
<title>n9</title>
<polygon fill="lightcoral" stroke="black" points="157.18,-158 -0.18,-140 157.18,-122 314.53,-140 157.18,-158"/>
<text text-anchor="middle" x="157.18" y="-136.3" font-family="Arial" font-size="14.00">No habitat context for bird</text>
</g>
<!-- n4&#45;&gt;n9 -->
<g id="edge12" class="edge">
<title>n4&#45;&gt;n9</title>
<path fill="none" stroke="black" d="M378.48,-243.93C330,-221.38 244.97,-181.83 195.62,-158.88"/>
<polygon fill="black" stroke="black" points="197.08,-155.7 186.54,-154.66 194.13,-162.05 197.08,-155.7"/>
</g>
<!-- n10 -->
<g id="node10" class="node">
<title>n10</title>
<polygon fill="#f28e8e" stroke="black" points="1785.2,-36 1341.2,-36 1341.2,0 1785.2,0 1785.2,-36"/>
<text text-anchor="middle" x="1563.2" y="-14.3" font-family="Arial" font-size="14.00">Add more details of grass, such as flowers or trees, to represent habitat</text>
</g>
<!-- n7&#45;&gt;n10 -->
<g id="edge13" class="edge">
<title>n7&#45;&gt;n10</title>
<path fill="none" stroke="black" d="M1563.2,-121.81C1563.2,-102.11 1563.2,-69.58 1563.2,-46.39"/>
<polygon fill="black" stroke="black" points="1566.7,-46.16 1563.2,-36.16 1559.7,-46.16 1566.7,-46.16"/>
</g>
<!-- n11 -->
<g id="node11" class="node">
<title>n11</title>
<polygon fill="#f28e8e" stroke="black" points="1238.2,-36 936.2,-36 936.2,0 1238.2,0 1238.2,-36"/>
<text text-anchor="middle" x="1087.2" y="-14.3" font-family="Arial" font-size="14.00">Show more water details, like waves or bubbles</text>
</g>
<!-- n8&#45;&gt;n11 -->
<g id="edge14" class="edge">
<title>n8&#45;&gt;n11</title>
<path fill="none" stroke="black" d="M1087.2,-121.81C1087.2,-102.11 1087.2,-69.58 1087.2,-46.39"/>
<polygon fill="black" stroke="black" points="1090.7,-46.16 1087.2,-36.16 1083.7,-46.16 1090.7,-46.16"/>
</g>
<!-- n12 -->
<g id="node12" class="node">
<title>n12</title>
<polygon fill="#f28e8e" stroke="black" points="273.68,-36 40.68,-36 40.68,0 273.68,0 273.68,-36"/>
<text text-anchor="middle" x="157.18" y="-14.3" font-family="Arial" font-size="14.00">Include trees or sky for bird&#39;s habitat</text>
</g>
<!-- n9&#45;&gt;n12 -->
<g id="edge15" class="edge">
<title>n9&#45;&gt;n12</title>
<path fill="none" stroke="black" d="M157.18,-121.81C157.18,-102.11 157.18,-69.58 157.18,-46.39"/>
<polygon fill="black" stroke="black" points="160.68,-46.16 157.18,-36.16 153.68,-46.16 160.68,-46.16"/>
</g>
</g>
</svg>
