<?xml version="1.0" encoding="UTF-8" standalone="no"?>
<!DOCTYPE svg PUBLIC "-//W3C//DTD SVG 1.1//EN"
 "http://www.w3.org/Graphics/SVG/1.1/DTD/svg11.dtd">
<!-- Generated by graphviz version 2.43.0 (0)
 -->
<!-- Pages: 1 -->
<svg width="2317pt" height="410pt"
 viewBox="0.00 0.00 2316.50 410.00" xmlns="http://www.w3.org/2000/svg" xmlns:xlink="http://www.w3.org/1999/xlink">
<g id="graph0" class="graph" transform="scale(1 1) rotate(0) translate(4 406)">
<polygon fill="white" stroke="transparent" points="-4,4 -4,-406 2312.5,-406 2312.5,4 -4,4"/>
<!-- n1 -->
<g id="node1" class="node">
<title>n1</title>
<polygon fill="lightblue" stroke="black" points="1659.37,-384 1516.69,-402 1231.31,-402 1088.63,-384 1231.31,-366 1516.69,-366 1659.37,-384"/>
<text text-anchor="middle" x="1374" y="-380.3" font-family="Arial" font-size="14.00">Draw animals in their habitats with labels (e.g., fish in water).</text>
</g>
<!-- n2 -->
<g id="node2" class="node">
<title>n2</title>
<polygon fill="#fffdd0" stroke="black" points="786.5,-280 521.5,-280 521.5,-244 786.5,-244 786.5,-280"/>
<text text-anchor="middle" x="654" y="-258.3" font-family="Arial" font-size="14.00">A lake with fish swimming labeled &#39;water&#39;.</text>
</g>
<!-- n1&#45;&gt;n2 -->
<g id="edge1" class="edge">
<title>n1&#45;&gt;n2</title>
<path fill="none" stroke="black" d="M1272,-366C1138.4,-343.73 904.92,-304.82 766.38,-281.73"/>
<polygon fill="black" stroke="black" points="766.6,-278.22 756.16,-280.03 765.45,-285.12 766.6,-278.22"/>
</g>
<!-- n3 -->
<g id="node3" class="node">
<title>n3</title>
<polygon fill="#fffdd0" stroke="black" points="1330.5,-280 1031.5,-280 1031.5,-244 1330.5,-244 1330.5,-280"/>
<text text-anchor="middle" x="1181" y="-258.3" font-family="Arial" font-size="14.00">A forest with a deer among trees labeled &#39;food&#39;.</text>
</g>
<!-- n1&#45;&gt;n3 -->
<g id="edge2" class="edge">
<title>n1&#45;&gt;n3</title>
<path fill="none" stroke="black" d="M1346.3,-365.81C1312.4,-344.69 1254.7,-308.81 1217.2,-285.51"/>
<polygon fill="black" stroke="black" points="1218.94,-282.47 1208.6,-280.16 1215.24,-288.41 1218.94,-282.47"/>
</g>
<!-- n4 -->
<g id="node4" class="node">
<title>n4</title>
<polygon fill="#fffdd0" stroke="black" points="1760.5,-280 1401.5,-280 1401.5,-244 1760.5,-244 1760.5,-280"/>
<text text-anchor="middle" x="1581" y="-258.3" font-family="Arial" font-size="14.00">An urban setting with humans and buildings labeled &#39;city&#39;.</text>
</g>
<!-- n1&#45;&gt;n4 -->
<g id="edge3" class="edge">
<title>n1&#45;&gt;n4</title>
<path fill="none" stroke="black" d="M1403.7,-365.81C1440.2,-344.6 1502.5,-308.5 1542.7,-285.21"/>
<polygon fill="black" stroke="black" points="1544.51,-288.21 1551.4,-280.16 1540.99,-282.15 1544.51,-288.21"/>
</g>
<!-- n5 -->
<g id="node5" class="node">
<title>n5</title>
<polygon fill="#fffdd0" stroke="black" points="2152.5,-280 1871.5,-280 1871.5,-244 2152.5,-244 2152.5,-280"/>
<text text-anchor="middle" x="2012" y="-258.3" font-family="Arial" font-size="14.00">Birds are in both the forest and urban areas.</text>
</g>
<!-- n1&#45;&gt;n5 -->
<g id="edge4" class="edge">
<title>n1&#45;&gt;n5</title>
<path fill="none" stroke="black" d="M1464.4,-366C1582.4,-343.8 1788.4,-305.05 1911.3,-281.94"/>
<polygon fill="black" stroke="black" points="1912.32,-285.31 1921.5,-280.03 1911.03,-278.43 1912.32,-285.31"/>
</g>
<!-- n6 -->
<g id="node6" class="node">
<title>n6</title>
<path fill="palegreen" stroke="black" d="M314,-158C314,-158 12,-158 12,-158 6,-158 0,-152 0,-146 0,-146 0,-134 0,-134 0,-128 6,-122 12,-122 12,-122 314,-122 314,-122 320,-122 326,-128 326,-134 326,-134 326,-146 326,-146 326,-152 320,-158 314,-158"/>
<text text-anchor="middle" x="163" y="-136.3" font-family="Arial" font-size="14.00">Fish live in lakes, understanding of aquatic habitats.</text>
</g>
<!-- n2&#45;&gt;n6 -->
<g id="edge5" class="edge">
<title>n2&#45;&gt;n6</title>
<path fill="none" stroke="black" d="M584.43,-244C494.24,-221.95 337.3,-183.6 242.49,-160.43"/>
<polygon fill="black" stroke="black" points="243.22,-157 232.67,-158.03 241.55,-163.8 243.22,-157"/>
</g>
<!-- n10 -->
<g id="node7" class="node">
<title>n10</title>
<polygon fill="lightcoral" stroke="black" points="654,-158 383.54,-140 654,-122 924.46,-140 654,-158"/>
<text text-anchor="middle" x="654" y="-136.3" font-family="Arial" font-size="14.00">Minor label issues, e.g., possible misspellings.</text>
</g>
<!-- n2&#45;&gt;n10 -->
<g id="edge6" class="edge">
<title>n2&#45;&gt;n10</title>
<path fill="none" stroke="black" d="M654,-243.81C654,-224.11 654,-191.58 654,-168.39"/>
<polygon fill="black" stroke="black" points="657.5,-168.16 654,-158.16 650.5,-168.16 657.5,-168.16"/>
</g>
<!-- n7 -->
<g id="node8" class="node">
<title>n7</title>
<path fill="palegreen" stroke="black" d="M1354,-158C1354,-158 994,-158 994,-158 988,-158 982,-152 982,-146 982,-146 982,-134 982,-134 982,-128 988,-122 994,-122 994,-122 1354,-122 1354,-122 1360,-122 1366,-128 1366,-134 1366,-134 1366,-146 1366,-146 1366,-152 1360,-158 1354,-158"/>
<text text-anchor="middle" x="1174" y="-136.3" font-family="Arial" font-size="14.00">Deer are correctly shown to rely on forest resources like food.</text>
</g>
<!-- n3&#45;&gt;n7 -->
<g id="edge7" class="edge">
<title>n3&#45;&gt;n7</title>
<path fill="none" stroke="black" d="M1180,-243.81C1178.8,-224.11 1177,-191.58 1175.6,-168.39"/>
<polygon fill="black" stroke="black" points="1179.08,-167.94 1175,-158.16 1172.09,-168.35 1179.08,-167.94"/>
</g>
<!-- n8 -->
<g id="node9" class="node">
<title>n8</title>
<path fill="palegreen" stroke="black" d="M1739.5,-158C1739.5,-158 1436.5,-158 1436.5,-158 1430.5,-158 1424.5,-152 1424.5,-146 1424.5,-146 1424.5,-134 1424.5,-134 1424.5,-128 1430.5,-122 1436.5,-122 1436.5,-122 1739.5,-122 1739.5,-122 1745.5,-122 1751.5,-128 1751.5,-134 1751.5,-134 1751.5,-146 1751.5,-146 1751.5,-152 1745.5,-158 1739.5,-158"/>
<text text-anchor="middle" x="1588" y="-136.3" font-family="Arial" font-size="14.00">Humans live in varied environments including cities.</text>
</g>
<!-- n4&#45;&gt;n8 -->
<g id="edge8" class="edge">
<title>n4&#45;&gt;n8</title>
<path fill="none" stroke="black" d="M1582,-243.81C1583.2,-224.11 1585,-191.58 1586.4,-168.39"/>
<polygon fill="black" stroke="black" points="1589.91,-168.35 1587,-158.16 1582.92,-167.94 1589.91,-168.35"/>
</g>
<!-- n9 -->
<g id="node10" class="node">
<title>n9</title>
<path fill="palegreen" stroke="black" d="M2296.5,-158C2296.5,-158 1821.5,-158 1821.5,-158 1815.5,-158 1809.5,-152 1809.5,-146 1809.5,-146 1809.5,-134 1809.5,-134 1809.5,-128 1815.5,-122 1821.5,-122 1821.5,-122 2296.5,-122 2296.5,-122 2302.5,-122 2308.5,-128 2308.5,-134 2308.5,-134 2308.5,-146 2308.5,-146 2308.5,-152 2302.5,-158 2296.5,-158"/>
<text text-anchor="middle" x="2059" y="-136.3" font-family="Arial" font-size="14.00">Understanding of ecosystem interconnection with birds in multiple environments.</text>
</g>
<!-- n5&#45;&gt;n9 -->
<g id="edge9" class="edge">
<title>n5&#45;&gt;n9</title>
<path fill="none" stroke="black" d="M2018.7,-243.81C2026.5,-223.94 2039.4,-190.99 2048.5,-167.76"/>
<polygon fill="black" stroke="black" points="2051.87,-168.75 2052.3,-158.16 2045.37,-166.17 2051.87,-168.75"/>
</g>
<!-- n11 -->
<g id="node11" class="node">
<title>n11</title>
<polygon fill="#f28e8e" stroke="black" points="773.5,-36 534.5,-36 534.5,0 773.5,0 773.5,-36"/>
<text text-anchor="middle" x="654" y="-14.3" font-family="Arial" font-size="14.00">Check spelling of labels for accuracy.</text>
</g>
<!-- n10&#45;&gt;n11 -->
<g id="edge10" class="edge">
<title>n10&#45;&gt;n11</title>
<path fill="none" stroke="black" d="M654,-121.81C654,-102.11 654,-69.58 654,-46.39"/>
<polygon fill="black" stroke="black" points="657.5,-46.16 654,-36.16 650.5,-46.16 657.5,-46.16"/>
</g>
</g>
</svg>
