<?xml version="1.0" encoding="UTF-8" standalone="no"?>
<!DOCTYPE svg PUBLIC "-//W3C//DTD SVG 1.1//EN"
 "http://www.w3.org/Graphics/SVG/1.1/DTD/svg11.dtd">
<!-- Generated by graphviz version 2.43.0 (0)
 -->
<!-- Pages: 1 -->
<svg width="1096pt" height="410pt"
 viewBox="0.00 0.00 1096.00 410.00" xmlns="http://www.w3.org/2000/svg" xmlns:xlink="http://www.w3.org/1999/xlink">
<g id="graph0" class="graph" transform="scale(1 1) rotate(0) translate(4 406)">
<polygon fill="white" stroke="transparent" points="-4,4 -4,-406 1092,-406 1092,4 -4,4"/>
<!-- n1 -->
<g id="node1" class="node">
<title>n1</title>
<polygon fill="lightblue" stroke="black" points="691,-384 577.25,-402 349.75,-402 236,-384 349.75,-366 577.25,-366 691,-384"/>
<text text-anchor="middle" x="463.5" y="-380.3" font-family="Arial" font-size="14.00">Illustrate plants with and without water and light.</text>
</g>
<!-- n2 -->
<g id="node2" class="node">
<title>n2</title>
<polygon fill="#fffdd0" stroke="black" points="435,-280 112,-280 112,-244 435,-244 435,-280"/>
<text text-anchor="middle" x="273.5" y="-258.3" font-family="Arial" font-size="14.00">First plant with upright, green leaves and bright sun</text>
</g>
<!-- n1&#45;&gt;n2 -->
<g id="edge1" class="edge">
<title>n1&#45;&gt;n2</title>
<path fill="none" stroke="black" d="M436.28,-365.81C402.84,-344.69 346.03,-308.81 309.14,-285.51"/>
<polygon fill="black" stroke="black" points="310.99,-282.54 300.67,-280.16 307.26,-288.46 310.99,-282.54"/>
</g>
<!-- n3 -->
<g id="node3" class="node">
<title>n3</title>
<polygon fill="#fffdd0" stroke="black" points="864,-280 541,-280 541,-244 864,-244 864,-280"/>
<text text-anchor="middle" x="702.5" y="-258.3" font-family="Arial" font-size="14.00">Second plant with droopy, green leaves and no sun</text>
</g>
<!-- n1&#45;&gt;n3 -->
<g id="edge2" class="edge">
<title>n1&#45;&gt;n3</title>
<path fill="none" stroke="black" d="M497.49,-365.93C540.05,-344.57 613,-307.94 659.43,-284.63"/>
<polygon fill="black" stroke="black" points="661.26,-287.63 668.63,-280.01 658.12,-281.37 661.26,-287.63"/>
</g>
<!-- n4 -->
<g id="node4" class="node">
<title>n4</title>
<path fill="palegreen" stroke="black" d="M343,-158C343,-158 12,-158 12,-158 6,-158 0,-152 0,-146 0,-146 0,-134 0,-134 0,-128 6,-122 12,-122 12,-122 343,-122 343,-122 349,-122 355,-128 355,-134 355,-134 355,-146 355,-146 355,-152 349,-158 343,-158"/>
<text text-anchor="middle" x="177.5" y="-136.3" font-family="Arial" font-size="14.00">Understands that water and sunlight help plant grow well</text>
</g>
<!-- n2&#45;&gt;n4 -->
<g id="edge3" class="edge">
<title>n2&#45;&gt;n4</title>
<path fill="none" stroke="black" d="M259.75,-243.81C243.49,-223.49 216.31,-189.51 197.67,-166.21"/>
<polygon fill="black" stroke="black" points="200.21,-163.78 191.23,-158.16 194.74,-168.16 200.21,-163.78"/>
</g>
<!-- n5 -->
<g id="node5" class="node">
<title>n5</title>
<polygon fill="lightcoral" stroke="black" points="750.5,-158 413,-140 750.5,-122 1088,-140 750.5,-158"/>
<text text-anchor="middle" x="750.5" y="-136.3" font-family="Arial" font-size="14.00">Does not understand that lack of sunlight causes yellowing</text>
</g>
<!-- n3&#45;&gt;n5 -->
<g id="edge4" class="edge">
<title>n3&#45;&gt;n5</title>
<path fill="none" stroke="black" d="M709.38,-243.81C717.37,-223.82 730.65,-190.62 739.95,-167.37"/>
<polygon fill="black" stroke="black" points="743.33,-168.35 743.79,-157.77 736.83,-165.75 743.33,-168.35"/>
</g>
<!-- n6 -->
<g id="node6" class="node">
<title>n6</title>
<polygon fill="#f28e8e" stroke="black" points="914,-36 587,-36 587,0 914,0 914,-36"/>
<text text-anchor="middle" x="750.5" y="-14.3" font-family="Arial" font-size="14.00">Include yellowing leaves under no sunlight condition</text>
</g>
<!-- n5&#45;&gt;n6 -->
<g id="edge5" class="edge">
<title>n5&#45;&gt;n6</title>
<path fill="none" stroke="black" d="M750.5,-121.81C750.5,-102.11 750.5,-69.58 750.5,-46.39"/>
<polygon fill="black" stroke="black" points="754,-46.16 750.5,-36.16 747,-46.16 754,-46.16"/>
</g>
</g>
</svg>
