<?xml version="1.0" encoding="UTF-8" standalone="no"?>
<!DOCTYPE svg PUBLIC "-//W3C//DTD SVG 1.1//EN"
 "http://www.w3.org/Graphics/SVG/1.1/DTD/svg11.dtd">
<!-- Generated by graphviz version 2.43.0 (0)
 -->
<!-- Pages: 1 -->
<svg width="2060pt" height="410pt"
 viewBox="0.00 0.00 2059.50 410.00" xmlns="http://www.w3.org/2000/svg" xmlns:xlink="http://www.w3.org/1999/xlink">
<g id="graph0" class="graph" transform="scale(1 1) rotate(0) translate(4 406)">
<polygon fill="white" stroke="transparent" points="-4,4 -4,-406 2055.5,-406 2055.5,4 -4,4"/>
<!-- n1 -->
<g id="node1" class="node">
<title>n1</title>
<polygon fill="lightblue" stroke="black" points="874,-384 782.75,-402 600.25,-402 509,-384 600.25,-366 782.75,-366 874,-384"/>
<text text-anchor="middle" x="691.5" y="-380.3" font-family="Arial" font-size="14.00">Draw a fish in their habitat with labels.</text>
</g>
<!-- n2 -->
<g id="node2" class="node">
<title>n2</title>
<polygon fill="#fffdd0" stroke="black" points="324.5,-280 94.5,-280 94.5,-244 324.5,-244 324.5,-280"/>
<text text-anchor="middle" x="209.5" y="-258.3" font-family="Arial" font-size="14.00">Blob&#45;like shape in blue labeled &#39;fish&#39;</text>
</g>
<!-- n1&#45;&gt;n2 -->
<g id="edge1" class="edge">
<title>n1&#45;&gt;n2</title>
<path fill="none" stroke="black" d="M623.21,-366C534.76,-343.98 380.91,-305.68 287.82,-282.5"/>
<polygon fill="black" stroke="black" points="288.44,-279.05 277.89,-280.03 286.75,-285.84 288.44,-279.05"/>
</g>
<!-- n3 -->
<g id="node3" class="node">
<title>n3</title>
<polygon fill="#fffdd0" stroke="black" points="663,-280 436,-280 436,-244 663,-244 663,-280"/>
<text text-anchor="middle" x="549.5" y="-258.3" font-family="Arial" font-size="14.00">Wavy blue lines representing water</text>
</g>
<!-- n1&#45;&gt;n3 -->
<g id="edge2" class="edge">
<title>n1&#45;&gt;n3</title>
<path fill="none" stroke="black" d="M671.15,-365.81C646.59,-345.04 605.13,-310.01 577.54,-286.7"/>
<polygon fill="black" stroke="black" points="579.7,-283.95 569.81,-280.16 575.18,-289.29 579.7,-283.95"/>
</g>
<!-- n4 -->
<g id="node4" class="node">
<title>n4</title>
<polygon fill="#fffdd0" stroke="black" points="973,-280 748,-280 748,-244 973,-244 973,-280"/>
<text text-anchor="middle" x="860.5" y="-258.3" font-family="Arial" font-size="14.00">Random triangle and circle shapes</text>
</g>
<!-- n1&#45;&gt;n4 -->
<g id="edge3" class="edge">
<title>n1&#45;&gt;n4</title>
<path fill="none" stroke="black" d="M715.71,-365.81C745.21,-344.87 795.14,-309.41 827.97,-286.1"/>
<polygon fill="black" stroke="black" points="830.21,-288.81 836.33,-280.16 826.15,-283.1 830.21,-288.81"/>
</g>
<!-- n5 -->
<g id="node5" class="node">
<title>n5</title>
<polygon fill="#fffdd0" stroke="black" points="1498.5,-280 1304.5,-280 1304.5,-244 1498.5,-244 1498.5,-280"/>
<text text-anchor="middle" x="1401.5" y="-258.3" font-family="Arial" font-size="14.00">&#39;Home&#39; label above the scene</text>
</g>
<!-- n1&#45;&gt;n5 -->
<g id="edge4" class="edge">
<title>n1&#45;&gt;n5</title>
<path fill="none" stroke="black" d="M787.25,-366.82C919.27,-344.5 1156.5,-304.42 1294.3,-281.12"/>
<polygon fill="black" stroke="black" points="1295.12,-284.53 1304.4,-279.41 1293.96,-277.63 1295.12,-284.53"/>
</g>
<!-- n6 -->
<g id="node6" class="node">
<title>n6</title>
<path fill="palegreen" stroke="black" d="M193,-158C193,-158 12,-158 12,-158 6,-158 0,-152 0,-146 0,-146 0,-134 0,-134 0,-128 6,-122 12,-122 12,-122 193,-122 193,-122 199,-122 205,-128 205,-134 205,-134 205,-146 205,-146 205,-152 199,-158 193,-158"/>
<text text-anchor="middle" x="102.5" y="-136.3" font-family="Arial" font-size="14.00">Fish correctly identified by label</text>
</g>
<!-- n2&#45;&gt;n6 -->
<g id="edge5" class="edge">
<title>n2&#45;&gt;n6</title>
<path fill="none" stroke="black" d="M194.17,-243.81C175.97,-223.4 145.49,-189.21 124.71,-165.91"/>
<polygon fill="black" stroke="black" points="127.07,-163.29 117.8,-158.16 121.84,-167.95 127.07,-163.29"/>
</g>
<!-- n7 -->
<g id="node7" class="node">
<title>n7</title>
<path fill="palegreen" stroke="black" d="M463.5,-158C463.5,-158 275.5,-158 275.5,-158 269.5,-158 263.5,-152 263.5,-146 263.5,-146 263.5,-134 263.5,-134 263.5,-128 269.5,-122 275.5,-122 275.5,-122 463.5,-122 463.5,-122 469.5,-122 475.5,-128 475.5,-134 475.5,-134 475.5,-146 475.5,-146 475.5,-152 469.5,-158 463.5,-158"/>
<text text-anchor="middle" x="369.5" y="-136.3" font-family="Arial" font-size="14.00">Water depicted as part of habitat</text>
</g>
<!-- n3&#45;&gt;n7 -->
<g id="edge6" class="edge">
<title>n3&#45;&gt;n7</title>
<path fill="none" stroke="black" d="M523.71,-243.81C492.17,-222.78 438.66,-187.11 403.7,-163.8"/>
<polygon fill="black" stroke="black" points="405.5,-160.79 395.24,-158.16 401.62,-166.62 405.5,-160.79"/>
</g>
<!-- n8 -->
<g id="node8" class="node">
<title>n8</title>
<polygon fill="lightcoral" stroke="black" points="887.5,-158 533.5,-140 887.5,-122 1241.5,-140 887.5,-158"/>
<text text-anchor="middle" x="887.5" y="-136.3" font-family="Arial" font-size="14.00">Random shapes do not depict habitat or ecosystem elements</text>
</g>
<!-- n4&#45;&gt;n8 -->
<g id="edge7" class="edge">
<title>n4&#45;&gt;n8</title>
<path fill="none" stroke="black" d="M864.37,-243.81C868.82,-224.02 876.19,-191.29 881.41,-168.08"/>
<polygon fill="black" stroke="black" points="884.86,-168.68 883.64,-158.16 878.03,-167.15 884.86,-168.68"/>
</g>
<!-- n9 -->
<g id="node9" class="node">
<title>n9</title>
<polygon fill="lightcoral" stroke="black" points="1675.5,-158 1299.5,-140 1675.5,-122 2051.5,-140 1675.5,-158"/>
<text text-anchor="middle" x="1675.5" y="-136.3" font-family="Arial" font-size="14.00">General &#39;home&#39; label shows lack of specific habitat understanding</text>
</g>
<!-- n5&#45;&gt;n9 -->
<g id="edge8" class="edge">
<title>n5&#45;&gt;n9</title>
<path fill="none" stroke="black" d="M1440.5,-243.93C1490.7,-221.94 1577.8,-183.8 1630.7,-160.63"/>
<polygon fill="black" stroke="black" points="1632.37,-163.72 1640.1,-156.48 1629.54,-157.32 1632.37,-163.72"/>
</g>
<!-- n10 -->
<g id="node10" class="node">
<title>n10</title>
<polygon fill="#f28e8e" stroke="black" points="1068.5,-36 706.5,-36 706.5,0 1068.5,0 1068.5,-36"/>
<text text-anchor="middle" x="887.5" y="-14.3" font-family="Arial" font-size="14.00">Consider adding other habitat elements like plants or food</text>
</g>
<!-- n8&#45;&gt;n10 -->
<g id="edge9" class="edge">
<title>n8&#45;&gt;n10</title>
<path fill="none" stroke="black" d="M887.5,-121.81C887.5,-102.11 887.5,-69.58 887.5,-46.39"/>
<polygon fill="black" stroke="black" points="891,-46.16 887.5,-36.16 884,-46.16 891,-46.16"/>
</g>
<!-- n11 -->
<g id="node11" class="node">
<title>n11</title>
<polygon fill="#f28e8e" stroke="black" points="1807,-36 1544,-36 1544,0 1807,0 1807,-36"/>
<text text-anchor="middle" x="1675.5" y="-14.3" font-family="Arial" font-size="14.00">Label specific habitats like ocean or pond</text>
</g>
<!-- n9&#45;&gt;n11 -->
<g id="edge10" class="edge">
<title>n9&#45;&gt;n11</title>
<path fill="none" stroke="black" d="M1675.5,-121.81C1675.5,-102.11 1675.5,-69.58 1675.5,-46.39"/>
<polygon fill="black" stroke="black" points="1679,-46.16 1675.5,-36.16 1672,-46.16 1679,-46.16"/>
</g>
</g>
</svg>
