<?xml version="1.0" encoding="UTF-8" standalone="no"?>
<!DOCTYPE svg PUBLIC "-//W3C//DTD SVG 1.1//EN"
 "http://www.w3.org/Graphics/SVG/1.1/DTD/svg11.dtd">
<!-- Generated by graphviz version 2.43.0 (0)
 -->
<!-- Pages: 1 -->
<svg width="1980pt" height="410pt"
 viewBox="0.00 0.00 1980.00 410.00" xmlns="http://www.w3.org/2000/svg" xmlns:xlink="http://www.w3.org/1999/xlink">
<g id="graph0" class="graph" transform="scale(1 1) rotate(0) translate(4 406)">
<polygon fill="white" stroke="transparent" points="-4,4 -4,-406 1976,-406 1976,4 -4,4"/>
<!-- n1 -->
<g id="node1" class="node">
<title>n1</title>
<polygon fill="lightblue" stroke="black" points="1272.82,-384 1150.41,-402 905.59,-402 783.18,-384 905.59,-366 1150.41,-366 1272.82,-384"/>
<text text-anchor="middle" x="1028" y="-380.3" font-family="Arial" font-size="14.00">Draw a habitat and the different living things in each</text>
</g>
<!-- n2 -->
<g id="node2" class="node">
<title>n2</title>
<polygon fill="#fffdd0" stroke="black" points="579,-280 365,-280 365,-244 579,-244 579,-280"/>
<text text-anchor="middle" x="472" y="-258.3" font-family="Arial" font-size="14.00">Pond with frog, fish, and lily pads</text>
</g>
<!-- n1&#45;&gt;n2 -->
<g id="edge1" class="edge">
<title>n1&#45;&gt;n2</title>
<path fill="none" stroke="black" d="M949.22,-366C846.68,-343.87 667.93,-305.29 560.72,-282.15"/>
<polygon fill="black" stroke="black" points="561.4,-278.72 550.89,-280.03 559.93,-285.56 561.4,-278.72"/>
</g>
<!-- n3 -->
<g id="node3" class="node">
<title>n3</title>
<polygon fill="#fffdd0" stroke="black" points="1016.5,-280 731.5,-280 731.5,-244 1016.5,-244 1016.5,-280"/>
<text text-anchor="middle" x="874" y="-258.3" font-family="Arial" font-size="14.00">Forest scene with trees, squirrel, and bushes</text>
</g>
<!-- n1&#45;&gt;n3 -->
<g id="edge2" class="edge">
<title>n1&#45;&gt;n3</title>
<path fill="none" stroke="black" d="M1005.9,-365.81C979.18,-344.96 933.95,-309.71 904.03,-286.4"/>
<polygon fill="black" stroke="black" points="906.06,-283.54 896.02,-280.16 901.76,-289.07 906.06,-283.54"/>
</g>
<!-- n4 -->
<g id="node4" class="node">
<title>n4</title>
<polygon fill="#fffdd0" stroke="black" points="1374.5,-280 1159.5,-280 1159.5,-244 1374.5,-244 1374.5,-280"/>
<text text-anchor="middle" x="1267" y="-258.3" font-family="Arial" font-size="14.00">Garden with flowers and butterfly</text>
</g>
<!-- n1&#45;&gt;n4 -->
<g id="edge3" class="edge">
<title>n1&#45;&gt;n4</title>
<path fill="none" stroke="black" d="M1062,-365.93C1104.5,-344.57 1177.5,-307.94 1223.9,-284.63"/>
<polygon fill="black" stroke="black" points="1225.73,-287.63 1233.1,-280.01 1222.59,-281.37 1225.73,-287.63"/>
</g>
<!-- n5 -->
<g id="node5" class="node">
<title>n5</title>
<polygon fill="#fffdd0" stroke="black" points="1647.5,-280 1432.5,-280 1432.5,-244 1647.5,-244 1647.5,-280"/>
<text text-anchor="middle" x="1540" y="-258.3" font-family="Arial" font-size="14.00">Playground with ants in the grass</text>
</g>
<!-- n1&#45;&gt;n5 -->
<g id="edge4" class="edge">
<title>n1&#45;&gt;n5</title>
<path fill="none" stroke="black" d="M1100.5,-366C1194.7,-343.93 1358.6,-305.52 1457.4,-282.36"/>
<polygon fill="black" stroke="black" points="1458.46,-285.71 1467.4,-280.03 1456.87,-278.89 1458.46,-285.71"/>
</g>
<!-- n6 -->
<g id="node6" class="node">
<title>n6</title>
<path fill="palegreen" stroke="black" d="M218,-158C218,-158 12,-158 12,-158 6,-158 0,-152 0,-146 0,-146 0,-134 0,-134 0,-128 6,-122 12,-122 12,-122 218,-122 218,-122 224,-122 230,-128 230,-134 230,-134 230,-146 230,-146 230,-152 224,-158 218,-158"/>
<text text-anchor="middle" x="115" y="-136.3" font-family="Arial" font-size="14.00">Understands pond habitat elements</text>
</g>
<!-- n2&#45;&gt;n6 -->
<g id="edge5" class="edge">
<title>n2&#45;&gt;n6</title>
<path fill="none" stroke="black" d="M421.23,-243.93C356.46,-222.16 244.58,-184.56 175.47,-161.33"/>
<polygon fill="black" stroke="black" points="176.19,-157.88 165.6,-158.01 173.96,-164.52 176.19,-157.88"/>
</g>
<!-- n9 -->
<g id="node7" class="node">
<title>n9</title>
<polygon fill="lightcoral" stroke="black" points="472,-158 288,-140 472,-122 656,-140 472,-158"/>
<text text-anchor="middle" x="472" y="-136.3" font-family="Arial" font-size="14.00">Omits labels for some animals</text>
</g>
<!-- n2&#45;&gt;n9 -->
<g id="edge6" class="edge">
<title>n2&#45;&gt;n9</title>
<path fill="none" stroke="black" d="M472,-243.81C472,-224.11 472,-191.58 472,-168.39"/>
<polygon fill="black" stroke="black" points="475.5,-168.16 472,-158.16 468.5,-168.16 475.5,-168.16"/>
</g>
<!-- n7 -->
<g id="node8" class="node">
<title>n7</title>
<path fill="palegreen" stroke="black" d="M936,-158C936,-158 726,-158 726,-158 720,-158 714,-152 714,-146 714,-146 714,-134 714,-134 714,-128 720,-122 726,-122 726,-122 936,-122 936,-122 942,-122 948,-128 948,-134 948,-134 948,-146 948,-146 948,-152 942,-158 936,-158"/>
<text text-anchor="middle" x="831" y="-136.3" font-family="Arial" font-size="14.00">Understands forest habitat elements</text>
</g>
<!-- n3&#45;&gt;n7 -->
<g id="edge7" class="edge">
<title>n3&#45;&gt;n7</title>
<path fill="none" stroke="black" d="M867.84,-243.81C860.72,-223.94 848.91,-190.99 840.59,-167.76"/>
<polygon fill="black" stroke="black" points="843.82,-166.39 837.15,-158.16 837.23,-168.75 843.82,-166.39"/>
</g>
<!-- n8 -->
<g id="node9" class="node">
<title>n8</title>
<polygon fill="lightcoral" stroke="black" points="1310,-158 1005.52,-140 1310,-122 1614.48,-140 1310,-158"/>
<text text-anchor="middle" x="1310" y="-136.3" font-family="Arial" font-size="14.00">Incomplete understanding of garden habitat diversity</text>
</g>
<!-- n4&#45;&gt;n8 -->
<g id="edge8" class="edge">
<title>n4&#45;&gt;n8</title>
<path fill="none" stroke="black" d="M1273.2,-243.81C1280.3,-223.82 1292.2,-190.62 1300.6,-167.37"/>
<polygon fill="black" stroke="black" points="1303.96,-168.36 1304,-157.77 1297.36,-166.03 1303.96,-168.36"/>
</g>
<!-- n10 -->
<g id="node10" class="node">
<title>n10</title>
<polygon fill="#f28e8e" stroke="black" points="1972,-158 1672,-158 1672,-122 1972,-122 1972,-158"/>
<text text-anchor="middle" x="1822" y="-136.3" font-family="Arial" font-size="14.00">Feedback: Add more flower types in the garden</text>
</g>
<!-- n4&#45;&gt;n10 -->
<g id="edge9" class="edge">
<title>n4&#45;&gt;n10</title>
<path fill="none" stroke="black" d="M1345.6,-244C1448,-221.87 1626.4,-183.29 1733.4,-160.15"/>
<polygon fill="black" stroke="black" points="1734.25,-163.55 1743.3,-158.03 1732.79,-156.7 1734.25,-163.55"/>
</g>
<!-- n11 -->
<g id="node11" class="node">
<title>n11</title>
<polygon fill="#f28e8e" stroke="black" points="604.5,-36 339.5,-36 339.5,0 604.5,0 604.5,-36"/>
<text text-anchor="middle" x="472" y="-14.3" font-family="Arial" font-size="14.00">Feedback: Ensure all animals are labeled</text>
</g>
<!-- n9&#45;&gt;n11 -->
<g id="edge10" class="edge">
<title>n9&#45;&gt;n11</title>
<path fill="none" stroke="black" d="M472,-121.81C472,-102.11 472,-69.58 472,-46.39"/>
<polygon fill="black" stroke="black" points="475.5,-46.16 472,-36.16 468.5,-46.16 475.5,-46.16"/>
</g>
</g>
</svg>
