<?xml version="1.0" encoding="UTF-8" standalone="no"?>
<!DOCTYPE svg PUBLIC "-//W3C//DTD SVG 1.1//EN"
 "http://www.w3.org/Graphics/SVG/1.1/DTD/svg11.dtd">
<!-- Generated by graphviz version 2.43.0 (0)
 -->
<!-- Pages: 1 -->
<svg width="1294pt" height="410pt"
 viewBox="0.00 0.00 1294.46 410.00" xmlns="http://www.w3.org/2000/svg" xmlns:xlink="http://www.w3.org/1999/xlink">
<g id="graph0" class="graph" transform="scale(1 1) rotate(0) translate(4 406)">
<polygon fill="white" stroke="transparent" points="-4,4 -4,-406 1290.46,-406 1290.46,4 -4,4"/>
<!-- n1 -->
<g id="node1" class="node">
<title>n1</title>
<polygon fill="lightblue" stroke="black" points="930,-384 838.75,-402 656.25,-402 565,-384 656.25,-366 838.75,-366 930,-384"/>
<text text-anchor="middle" x="747.5" y="-380.3" font-family="Arial" font-size="14.00">Draw reversible changes (ice melting)</text>
</g>
<!-- n2 -->
<g id="node2" class="node">
<title>n2</title>
<polygon fill="#fffdd0" stroke="black" points="512,-280 261,-280 261,-244 512,-244 512,-280"/>
<text text-anchor="middle" x="386.5" y="-258.3" font-family="Arial" font-size="14.00">Blue rectangles representing ice blocks</text>
</g>
<!-- n1&#45;&gt;n2 -->
<g id="edge1" class="edge">
<title>n1&#45;&gt;n2</title>
<path fill="none" stroke="black" d="M696.17,-365.93C630.54,-344.12 517.07,-306.4 447.22,-283.18"/>
<polygon fill="black" stroke="black" points="448.26,-279.84 437.67,-280.01 446.06,-286.48 448.26,-279.84"/>
</g>
<!-- n3 -->
<g id="node3" class="node">
<title>n3</title>
<polygon fill="#fffdd0" stroke="black" points="860,-280 635,-280 635,-244 860,-244 860,-280"/>
<text text-anchor="middle" x="747.5" y="-258.3" font-family="Arial" font-size="14.00">Blue wavy lines representing water</text>
</g>
<!-- n1&#45;&gt;n3 -->
<g id="edge2" class="edge">
<title>n1&#45;&gt;n3</title>
<path fill="none" stroke="black" d="M747.5,-365.81C747.5,-346.11 747.5,-313.58 747.5,-290.39"/>
<polygon fill="black" stroke="black" points="751,-290.16 747.5,-280.16 744,-290.16 751,-290.16"/>
</g>
<!-- n4 -->
<g id="node4" class="node">
<title>n4</title>
<polygon fill="#fffdd0" stroke="black" points="1286.46,-280 918.46,-280 918.46,-244 1286.46,-244 1286.46,-280"/>
<text text-anchor="middle" x="1102.46" y="-258.3" font-family="Arial" font-size="14.00">Attempt to depict melting with an ice cream cone and drips</text>
</g>
<!-- n1&#45;&gt;n4 -->
<g id="edge3" class="edge">
<title>n1&#45;&gt;n4</title>
<path fill="none" stroke="black" d="M797.99,-365.93C862.4,-344.16 973.65,-306.56 1042.36,-283.33"/>
<polygon fill="black" stroke="black" points="1043.81,-286.53 1052.16,-280.01 1041.57,-279.9 1043.81,-286.53"/>
</g>
<!-- n5 -->
<g id="node5" class="node">
<title>n5</title>
<polygon fill="lightcoral" stroke="black" points="256.5,-158 0,-140 256.5,-122 513,-140 256.5,-158"/>
<text text-anchor="middle" x="256.5" y="-136.3" font-family="Arial" font-size="14.00">Attempts to show reversible change visually</text>
</g>
<!-- n2&#45;&gt;n5 -->
<g id="edge4" class="edge">
<title>n2&#45;&gt;n5</title>
<path fill="none" stroke="black" d="M367.88,-243.81C345.1,-222.78 306.47,-187.12 281.22,-163.82"/>
<polygon fill="black" stroke="black" points="283.57,-161.23 273.85,-157.01 278.82,-166.37 283.57,-161.23"/>
</g>
<!-- n6 -->
<g id="node6" class="node">
<title>n6</title>
<polygon fill="lightcoral" stroke="black" points="813.5,-158 570.68,-140 813.5,-122 1056.32,-140 813.5,-158"/>
<text text-anchor="middle" x="813.5" y="-136.3" font-family="Arial" font-size="14.00">Focuses on ice melting but not refreezing</text>
</g>
<!-- n3&#45;&gt;n6 -->
<g id="edge5" class="edge">
<title>n3&#45;&gt;n6</title>
<path fill="none" stroke="black" d="M756.96,-243.81C768.11,-223.53 786.75,-189.64 799.56,-166.35"/>
<polygon fill="black" stroke="black" points="802.74,-167.84 804.49,-157.39 796.6,-164.46 802.74,-167.84"/>
</g>
<!-- n7 -->
<g id="node7" class="node">
<title>n7</title>
<polygon fill="#f28e8e" stroke="black" points="458.5,-36 54.5,-36 54.5,0 458.5,0 458.5,-36"/>
<text text-anchor="middle" x="256.5" y="-14.3" font-family="Arial" font-size="14.00">Clarify reversible change by showing water freezing back into ice</text>
</g>
<!-- n5&#45;&gt;n7 -->
<g id="edge6" class="edge">
<title>n5&#45;&gt;n7</title>
<path fill="none" stroke="black" d="M256.5,-121.81C256.5,-102.11 256.5,-69.58 256.5,-46.39"/>
<polygon fill="black" stroke="black" points="260,-46.16 256.5,-36.16 253,-46.16 260,-46.16"/>
</g>
<!-- n8 -->
<g id="node8" class="node">
<title>n8</title>
<polygon fill="#f28e8e" stroke="black" points="1007.5,-36 619.5,-36 619.5,0 1007.5,0 1007.5,-36"/>
<text text-anchor="middle" x="813.5" y="-14.3" font-family="Arial" font-size="14.00">Explain heating and cooling using elements like sun or freezer</text>
</g>
<!-- n6&#45;&gt;n8 -->
<g id="edge7" class="edge">
<title>n6&#45;&gt;n8</title>
<path fill="none" stroke="black" d="M813.5,-121.81C813.5,-102.11 813.5,-69.58 813.5,-46.39"/>
<polygon fill="black" stroke="black" points="817,-46.16 813.5,-36.16 810,-46.16 817,-46.16"/>
</g>
</g>
</svg>
