<?xml version="1.0" encoding="UTF-8" standalone="no"?>
<!DOCTYPE svg PUBLIC "-//W3C//DTD SVG 1.1//EN"
 "http://www.w3.org/Graphics/SVG/1.1/DTD/svg11.dtd">
<!-- Generated by graphviz version 2.43.0 (0)
 -->
<!-- Pages: 1 -->
<svg width="2630pt" height="410pt"
 viewBox="0.00 0.00 2630.00 410.00" xmlns="http://www.w3.org/2000/svg" xmlns:xlink="http://www.w3.org/1999/xlink">
<g id="graph0" class="graph" transform="scale(1 1) rotate(0) translate(4 406)">
<polygon fill="white" stroke="transparent" points="-4,4 -4,-406 2626,-406 2626,4 -4,4"/>
<!-- n1 -->
<g id="node1" class="node">
<title>n1</title>
<polygon fill="lightblue" stroke="black" points="1842,-384 1678,-402 1350,-402 1186,-384 1350,-366 1678,-366 1842,-384"/>
<text text-anchor="middle" x="1514" y="-380.3" font-family="Arial" font-size="14.00">Draw reversible and irreversible changes (ice melting vs. egg cooking)</text>
</g>
<!-- n2 -->
<g id="node2" class="node">
<title>n2</title>
<polygon fill="#fffdd0" stroke="black" points="839,-280 585,-280 585,-244 839,-244 839,-280"/>
<text text-anchor="middle" x="712" y="-258.3" font-family="Arial" font-size="14.00">Simple blue ice cube with squiggly lines</text>
</g>
<!-- n1&#45;&gt;n2 -->
<g id="edge1" class="edge">
<title>n1&#45;&gt;n2</title>
<path fill="none" stroke="black" d="M1400.4,-366C1251.1,-343.66 989.94,-304.59 835.79,-281.52"/>
<polygon fill="black" stroke="black" points="836.2,-278.04 825.79,-280.03 835.16,-284.97 836.2,-278.04"/>
</g>
<!-- n3 -->
<g id="node3" class="node">
<title>n3</title>
<polygon fill="#fffdd0" stroke="black" points="1629,-280 1399,-280 1399,-244 1629,-244 1629,-280"/>
<text text-anchor="middle" x="1514" y="-258.3" font-family="Arial" font-size="14.00">Egg with yellow yolk and wavy lines</text>
</g>
<!-- n1&#45;&gt;n3 -->
<g id="edge2" class="edge">
<title>n1&#45;&gt;n3</title>
<path fill="none" stroke="black" d="M1514,-365.81C1514,-346.11 1514,-313.58 1514,-290.39"/>
<polygon fill="black" stroke="black" points="1517.5,-290.16 1514,-280.16 1510.5,-290.16 1517.5,-290.16"/>
</g>
<!-- n4 -->
<g id="node4" class="node">
<title>n4</title>
<polygon fill="#fffdd0" stroke="black" points="2309,-280 2117,-280 2117,-244 2309,-244 2309,-280"/>
<text text-anchor="middle" x="2213" y="-258.3" font-family="Arial" font-size="14.00">Arrows present but unlabeled</text>
</g>
<!-- n1&#45;&gt;n4 -->
<g id="edge3" class="edge">
<title>n1&#45;&gt;n4</title>
<path fill="none" stroke="black" d="M1613,-366C1743.7,-343.56 1972.9,-304.21 2107,-281.19"/>
<polygon fill="black" stroke="black" points="2107.63,-284.63 2116.9,-279.5 2106.45,-277.73 2107.63,-284.63"/>
</g>
<!-- n5 -->
<g id="node5" class="node">
<title>n5</title>
<path fill="palegreen" stroke="black" d="M378,-158C378,-158 12,-158 12,-158 6,-158 0,-152 0,-146 0,-146 0,-134 0,-134 0,-128 6,-122 12,-122 12,-122 378,-122 378,-122 384,-122 390,-128 390,-134 390,-134 390,-146 390,-146 390,-152 384,-158 378,-158"/>
<text text-anchor="middle" x="195" y="-136.3" font-family="Arial" font-size="14.00">Attempts to show change with squiggly lines indicating heating</text>
</g>
<!-- n2&#45;&gt;n5 -->
<g id="edge4" class="edge">
<title>n2&#45;&gt;n5</title>
<path fill="none" stroke="black" d="M638.75,-244C543.59,-221.91 377.86,-183.44 278.1,-160.29"/>
<polygon fill="black" stroke="black" points="278.89,-156.88 268.36,-158.03 277.31,-163.7 278.89,-156.88"/>
</g>
<!-- n7 -->
<g id="node6" class="node">
<title>n7</title>
<polygon fill="lightcoral" stroke="black" points="712,-158 448,-140 712,-122 976,-140 712,-158"/>
<text text-anchor="middle" x="712" y="-136.3" font-family="Arial" font-size="14.00">Lacks indication of reversibility for ice melting</text>
</g>
<!-- n2&#45;&gt;n7 -->
<g id="edge5" class="edge">
<title>n2&#45;&gt;n7</title>
<path fill="none" stroke="black" d="M712,-243.81C712,-224.11 712,-191.58 712,-168.39"/>
<polygon fill="black" stroke="black" points="715.5,-168.16 712,-158.16 708.5,-168.16 715.5,-168.16"/>
</g>
<!-- n6 -->
<g id="node7" class="node">
<title>n6</title>
<polygon fill="lightcoral" stroke="black" points="1299,-158 1033.23,-140 1299,-122 1564.77,-140 1299,-158"/>
<text text-anchor="middle" x="1299" y="-136.3" font-family="Arial" font-size="14.00">Does not effectively depict changes over time</text>
</g>
<!-- n3&#45;&gt;n6 -->
<g id="edge6" class="edge">
<title>n3&#45;&gt;n6</title>
<path fill="none" stroke="black" d="M1483.2,-243.81C1444.1,-222 1376.8,-184.44 1335.3,-161.26"/>
<polygon fill="black" stroke="black" points="1336.74,-158.06 1326.3,-156.26 1333.34,-164.18 1336.74,-158.06"/>
</g>
<!-- n8 -->
<g id="node8" class="node">
<title>n8</title>
<polygon fill="lightcoral" stroke="black" points="1900,-158 1622.33,-140 1900,-122 2177.67,-140 1900,-158"/>
<text text-anchor="middle" x="1900" y="-136.3" font-family="Arial" font-size="14.00">Lacks indication of irreversibility for egg cooking</text>
</g>
<!-- n3&#45;&gt;n8 -->
<g id="edge7" class="edge">
<title>n3&#45;&gt;n8</title>
<path fill="none" stroke="black" d="M1568.9,-243.93C1642.1,-221.16 1771.1,-181.06 1844.6,-158.21"/>
<polygon fill="black" stroke="black" points="1846.08,-161.41 1854.6,-155.11 1844.01,-154.73 1846.08,-161.41"/>
</g>
<!-- n9 -->
<g id="node9" class="node">
<title>n9</title>
<polygon fill="#f28e8e" stroke="black" points="2622,-158 2236,-158 2236,-122 2622,-122 2622,-158"/>
<text text-anchor="middle" x="2429" y="-136.3" font-family="Arial" font-size="14.00">Arrows are meant to show change or direction but are unclear</text>
</g>
<!-- n4&#45;&gt;n9 -->
<g id="edge8" class="edge">
<title>n4&#45;&gt;n9</title>
<path fill="none" stroke="black" d="M2243.9,-243.81C2282.2,-222.55 2347.4,-186.35 2389.3,-163.07"/>
<polygon fill="black" stroke="black" points="2391.07,-166.09 2398.1,-158.16 2387.66,-159.98 2391.07,-166.09"/>
</g>
<!-- n11 -->
<g id="node10" class="node">
<title>n11</title>
<polygon fill="#f28e8e" stroke="black" points="892.5,-36 531.5,-36 531.5,0 892.5,0 892.5,-36"/>
<text text-anchor="middle" x="712" y="-14.3" font-family="Arial" font-size="14.00">Show that ice can be refrozen to demonstrate reversibility</text>
</g>
<!-- n7&#45;&gt;n11 -->
<g id="edge9" class="edge">
<title>n7&#45;&gt;n11</title>
<path fill="none" stroke="black" d="M712,-121.81C712,-102.11 712,-69.58 712,-46.39"/>
<polygon fill="black" stroke="black" points="715.5,-46.16 712,-36.16 708.5,-46.16 715.5,-46.16"/>
</g>
<!-- n10 -->
<g id="node11" class="node">
<title>n10</title>
<polygon fill="#f28e8e" stroke="black" points="1474,-36 1124,-36 1124,0 1474,0 1474,-36"/>
<text text-anchor="middle" x="1299" y="-14.3" font-family="Arial" font-size="14.00">Add clear labels and depiction of before and after states</text>
</g>
<!-- n6&#45;&gt;n10 -->
<g id="edge10" class="edge">
<title>n6&#45;&gt;n10</title>
<path fill="none" stroke="black" d="M1299,-121.81C1299,-102.11 1299,-69.58 1299,-46.39"/>
<polygon fill="black" stroke="black" points="1302.5,-46.16 1299,-36.16 1295.5,-46.16 1302.5,-46.16"/>
</g>
<!-- n12 -->
<g id="node12" class="node">
<title>n12</title>
<polygon fill="#f28e8e" stroke="black" points="2106.5,-36 1693.5,-36 1693.5,0 2106.5,0 2106.5,-36"/>
<text text-anchor="middle" x="1900" y="-14.3" font-family="Arial" font-size="14.00">Show eggs cannot return to raw state to demonstrate irreversibility</text>
</g>
<!-- n8&#45;&gt;n12 -->
<g id="edge11" class="edge">
<title>n8&#45;&gt;n12</title>
<path fill="none" stroke="black" d="M1900,-121.81C1900,-102.11 1900,-69.58 1900,-46.39"/>
<polygon fill="black" stroke="black" points="1903.5,-46.16 1900,-36.16 1896.5,-46.16 1903.5,-46.16"/>
</g>
</g>
</svg>
