<?xml version="1.0" encoding="UTF-8" standalone="no"?>
<!DOCTYPE svg PUBLIC "-//W3C//DTD SVG 1.1//EN"
 "http://www.w3.org/Graphics/SVG/1.1/DTD/svg11.dtd">
<!-- Generated by graphviz version 2.43.0 (0)
 -->
<!-- Pages: 1 -->
<svg width="1084pt" height="410pt"
 viewBox="0.00 0.00 1084.00 410.00" xmlns="http://www.w3.org/2000/svg" xmlns:xlink="http://www.w3.org/1999/xlink">
<g id="graph0" class="graph" transform="scale(1 1) rotate(0) translate(4 406)">
<polygon fill="white" stroke="transparent" points="-4,4 -4,-406 1080,-406 1080,4 -4,4"/>
<!-- n1 -->
<g id="node1" class="node">
<title>n1</title>
<polygon fill="lightblue" stroke="black" points="932.37,-384 789.69,-402 504.31,-402 361.63,-384 504.31,-366 789.69,-366 932.37,-384"/>
<text text-anchor="middle" x="647" y="-380.3" font-family="Arial" font-size="14.00">Draw animals in their habitats with labels (e.g., fish in water).</text>
</g>
<!-- n2 -->
<g id="node2" class="node">
<title>n2</title>
<polygon fill="#fffdd0" stroke="black" points="618.5,-280 451.5,-280 451.5,-244 618.5,-244 618.5,-280"/>
<text text-anchor="middle" x="535" y="-258.3" font-family="Arial" font-size="14.00">Fish swimming in a pond</text>
</g>
<!-- n1&#45;&gt;n2 -->
<g id="edge1" class="edge">
<title>n1&#45;&gt;n2</title>
<path fill="none" stroke="black" d="M630.95,-365.81C611.82,-345.31 579.72,-310.91 557.96,-287.6"/>
<polygon fill="black" stroke="black" points="560.4,-285.09 551.02,-280.16 555.28,-289.86 560.4,-285.09"/>
</g>
<!-- n3 -->
<g id="node3" class="node">
<title>n3</title>
<polygon fill="#fffdd0" stroke="black" points="936,-280 772,-280 772,-244 936,-244 936,-280"/>
<text text-anchor="middle" x="854" y="-258.3" font-family="Arial" font-size="14.00">Deer standing in a forest</text>
</g>
<!-- n1&#45;&gt;n3 -->
<g id="edge2" class="edge">
<title>n1&#45;&gt;n3</title>
<path fill="none" stroke="black" d="M676.66,-365.81C713.24,-344.6 775.51,-308.5 815.68,-285.21"/>
<polygon fill="black" stroke="black" points="817.5,-288.2 824.4,-280.16 813.99,-282.14 817.5,-288.2"/>
</g>
<!-- n4 -->
<g id="node4" class="node">
<title>n4</title>
<path fill="palegreen" stroke="black" d="M236,-158C236,-158 12,-158 12,-158 6,-158 0,-152 0,-146 0,-146 0,-134 0,-134 0,-128 6,-122 12,-122 12,-122 236,-122 236,-122 242,-122 248,-128 248,-134 248,-134 248,-146 248,-146 248,-152 242,-158 236,-158"/>
<text text-anchor="middle" x="124" y="-136.3" font-family="Arial" font-size="14.00">Correctly identifies fish in water habitat</text>
</g>
<!-- n2&#45;&gt;n4 -->
<g id="edge3" class="edge">
<title>n2&#45;&gt;n4</title>
<path fill="none" stroke="black" d="M476.55,-243.93C401.53,-222.03 271.59,-184.09 192.16,-160.9"/>
<polygon fill="black" stroke="black" points="192.83,-157.45 182.25,-158.01 190.87,-164.17 192.83,-157.45"/>
</g>
<!-- n6 -->
<g id="node5" class="node">
<title>n6</title>
<polygon fill="lightcoral" stroke="black" points="535,-158 306,-140 535,-122 764,-140 535,-158"/>
<text text-anchor="middle" x="535" y="-136.3" font-family="Arial" font-size="14.00">Omission/Mislabeling of smaller plants</text>
</g>
<!-- n2&#45;&gt;n6 -->
<g id="edge4" class="edge">
<title>n2&#45;&gt;n6</title>
<path fill="none" stroke="black" d="M535,-243.81C535,-224.11 535,-191.58 535,-168.39"/>
<polygon fill="black" stroke="black" points="538.5,-168.16 535,-158.16 531.5,-168.16 538.5,-168.16"/>
</g>
<!-- n5 -->
<g id="node6" class="node">
<title>n5</title>
<path fill="palegreen" stroke="black" d="M1064,-158C1064,-158 834,-158 834,-158 828,-158 822,-152 822,-146 822,-146 822,-134 822,-134 822,-128 828,-122 834,-122 834,-122 1064,-122 1064,-122 1070,-122 1076,-128 1076,-134 1076,-134 1076,-146 1076,-146 1076,-152 1070,-158 1064,-158"/>
<text text-anchor="middle" x="949" y="-136.3" font-family="Arial" font-size="14.00">Correctly identifies deer in forest habitat</text>
</g>
<!-- n3&#45;&gt;n5 -->
<g id="edge5" class="edge">
<title>n3&#45;&gt;n5</title>
<path fill="none" stroke="black" d="M867.61,-243.81C883.7,-223.49 910.6,-189.51 929.04,-166.21"/>
<polygon fill="black" stroke="black" points="931.95,-168.17 935.41,-158.16 926.46,-163.83 931.95,-168.17"/>
</g>
<!-- n7 -->
<g id="node7" class="node">
<title>n7</title>
<polygon fill="#f28e8e" stroke="black" points="714.5,-36 355.5,-36 355.5,0 714.5,0 714.5,-36"/>
<text text-anchor="middle" x="535" y="-14.3" font-family="Arial" font-size="14.00">Ensure all elements, including smaller plants, are labeled</text>
</g>
<!-- n6&#45;&gt;n7 -->
<g id="edge6" class="edge">
<title>n6&#45;&gt;n7</title>
<path fill="none" stroke="black" d="M535,-121.81C535,-102.11 535,-69.58 535,-46.39"/>
<polygon fill="black" stroke="black" points="538.5,-46.16 535,-36.16 531.5,-46.16 538.5,-46.16"/>
</g>
</g>
</svg>
