<?xml version="1.0" encoding="UTF-8" standalone="no"?>
<!DOCTYPE svg PUBLIC "-//W3C//DTD SVG 1.1//EN"
 "http://www.w3.org/Graphics/SVG/1.1/DTD/svg11.dtd">
<!-- Generated by graphviz version 2.43.0 (0)
 -->
<!-- Pages: 1 -->
<svg width="1161pt" height="288pt"
 viewBox="0.00 0.00 1160.50 288.00" xmlns="http://www.w3.org/2000/svg" xmlns:xlink="http://www.w3.org/1999/xlink">
<g id="graph0" class="graph" transform="scale(1 1) rotate(0) translate(4 284)">
<polygon fill="white" stroke="transparent" points="-4,4 -4,-284 1156.5,-284 1156.5,4 -4,4"/>
<!-- n1 -->
<g id="node1" class="node">
<title>n1</title>
<polygon fill="lightblue" stroke="black" points="775,-262 662.75,-280 438.25,-280 326,-262 438.25,-244 662.75,-244 775,-262"/>
<text text-anchor="middle" x="550.5" y="-258.3" font-family="Arial" font-size="14.00">Illustrate plants with and without water and light</text>
</g>
<!-- n2 -->
<g id="node2" class="node">
<title>n2</title>
<polygon fill="#fffdd0" stroke="black" points="508,-158 275,-158 275,-122 508,-122 508,-158"/>
<text text-anchor="middle" x="391.5" y="-136.3" font-family="Arial" font-size="14.00">Vibrant plant with water and sunlight</text>
</g>
<!-- n1&#45;&gt;n2 -->
<g id="edge1" class="edge">
<title>n1&#45;&gt;n2</title>
<path fill="none" stroke="black" d="M527.72,-243.81C500.09,-222.96 453.39,-187.71 422.5,-164.4"/>
<polygon fill="black" stroke="black" points="424.33,-161.4 414.24,-158.16 420.11,-166.98 424.33,-161.4"/>
</g>
<!-- n3 -->
<g id="node3" class="node">
<title>n3</title>
<polygon fill="#fffdd0" stroke="black" points="833.5,-158 585.5,-158 585.5,-122 833.5,-122 833.5,-158"/>
<text text-anchor="middle" x="709.5" y="-136.3" font-family="Arial" font-size="14.00">Wilted plant without water and sunlight</text>
</g>
<!-- n1&#45;&gt;n3 -->
<g id="edge2" class="edge">
<title>n1&#45;&gt;n3</title>
<path fill="none" stroke="black" d="M573.28,-243.81C600.91,-222.96 647.61,-187.71 678.5,-164.4"/>
<polygon fill="black" stroke="black" points="680.89,-166.98 686.76,-158.16 676.67,-161.4 680.89,-166.98"/>
</g>
<!-- n4 -->
<g id="node4" class="node">
<title>n4</title>
<path fill="palegreen" stroke="black" d="M207,-36C207,-36 12,-36 12,-36 6,-36 0,-30 0,-24 0,-24 0,-12 0,-12 0,-6 6,0 12,0 12,0 207,0 207,0 213,0 219,-6 219,-12 219,-12 219,-24 219,-24 219,-30 213,-36 207,-36"/>
<text text-anchor="middle" x="109.5" y="-14.3" font-family="Arial" font-size="14.00">Plant receiving water and growing</text>
</g>
<!-- n2&#45;&gt;n4 -->
<g id="edge3" class="edge">
<title>n2&#45;&gt;n4</title>
<path fill="none" stroke="black" d="M351.4,-121.93C300.76,-100.39 213.66,-63.33 158.95,-40.05"/>
<polygon fill="black" stroke="black" points="160.04,-36.71 149.47,-36.01 157.3,-43.15 160.04,-36.71"/>
</g>
<!-- n5 -->
<g id="node5" class="node">
<title>n5</title>
<path fill="palegreen" stroke="black" d="M494,-36C494,-36 289,-36 289,-36 283,-36 277,-30 277,-24 277,-24 277,-12 277,-12 277,-6 283,0 289,0 289,0 494,0 494,0 500,0 506,-6 506,-12 506,-12 506,-24 506,-24 506,-30 500,-36 494,-36"/>
<text text-anchor="middle" x="391.5" y="-14.3" font-family="Arial" font-size="14.00">Plant receiving sunlight and thriving</text>
</g>
<!-- n2&#45;&gt;n5 -->
<g id="edge4" class="edge">
<title>n2&#45;&gt;n5</title>
<path fill="none" stroke="black" d="M391.5,-121.81C391.5,-102.11 391.5,-69.58 391.5,-46.39"/>
<polygon fill="black" stroke="black" points="395,-46.16 391.5,-36.16 388,-46.16 395,-46.16"/>
</g>
<!-- n6 -->
<g id="node6" class="node">
<title>n6</title>
<path fill="palegreen" stroke="black" d="M843,-36C843,-36 576,-36 576,-36 570,-36 564,-30 564,-24 564,-24 564,-12 564,-12 564,-6 570,0 576,0 576,0 843,0 843,0 849,0 855,-6 855,-12 855,-12 855,-24 855,-24 855,-30 849,-36 843,-36"/>
<text text-anchor="middle" x="709.5" y="-14.3" font-family="Arial" font-size="14.00">Plant not receiving water and not growing well</text>
</g>
<!-- n3&#45;&gt;n6 -->
<g id="edge5" class="edge">
<title>n3&#45;&gt;n6</title>
<path fill="none" stroke="black" d="M709.5,-121.81C709.5,-102.11 709.5,-69.58 709.5,-46.39"/>
<polygon fill="black" stroke="black" points="713,-46.16 709.5,-36.16 706,-46.16 713,-46.16"/>
</g>
<!-- n7 -->
<g id="node7" class="node">
<title>n7</title>
<path fill="palegreen" stroke="black" d="M1140.5,-36C1140.5,-36 924.5,-36 924.5,-36 918.5,-36 912.5,-30 912.5,-24 912.5,-24 912.5,-12 912.5,-12 912.5,-6 918.5,0 924.5,0 924.5,0 1140.5,0 1140.5,0 1146.5,0 1152.5,-6 1152.5,-12 1152.5,-12 1152.5,-24 1152.5,-24 1152.5,-30 1146.5,-36 1140.5,-36"/>
<text text-anchor="middle" x="1032.5" y="-14.3" font-family="Arial" font-size="14.00">Plant without sunlight and not thriving</text>
</g>
<!-- n3&#45;&gt;n7 -->
<g id="edge6" class="edge">
<title>n3&#45;&gt;n7</title>
<path fill="none" stroke="black" d="M755.43,-121.93C813.79,-100.25 914.43,-62.86 977.02,-39.61"/>
<polygon fill="black" stroke="black" points="978.57,-42.77 986.72,-36.01 976.13,-36.21 978.57,-42.77"/>
</g>
</g>
</svg>
