<?xml version="1.0" encoding="UTF-8" standalone="no"?>
<!DOCTYPE svg PUBLIC "-//W3C//DTD SVG 1.1//EN"
 "http://www.w3.org/Graphics/SVG/1.1/DTD/svg11.dtd">
<!-- Generated by graphviz version 2.43.0 (0)
 -->
<!-- Pages: 1 -->
<svg width="1702pt" height="410pt"
 viewBox="0.00 0.00 1701.57 410.00" xmlns="http://www.w3.org/2000/svg" xmlns:xlink="http://www.w3.org/1999/xlink">
<g id="graph0" class="graph" transform="scale(1 1) rotate(0) translate(4 406)">
<polygon fill="white" stroke="transparent" points="-4,4 -4,-406 1697.57,-406 1697.57,4 -4,4"/>
<!-- n1 -->
<g id="node1" class="node">
<title>n1</title>
<polygon fill="lightblue" stroke="black" points="826.5,-384 715,-402 492,-402 380.5,-384 492,-366 715,-366 826.5,-384"/>
<text text-anchor="middle" x="603.5" y="-380.3" font-family="Arial" font-size="14.00">Draw a string telephone between two students.</text>
</g>
<!-- n2 -->
<g id="node2" class="node">
<title>n2</title>
<polygon fill="#fffdd0" stroke="black" points="324,-280 139,-280 139,-244 324,-244 324,-280"/>
<text text-anchor="middle" x="231.5" y="-258.3" font-family="Arial" font-size="14.00">Stick figures of two students</text>
</g>
<!-- n1&#45;&gt;n2 -->
<g id="edge1" class="edge">
<title>n1&#45;&gt;n2</title>
<path fill="none" stroke="black" d="M550.6,-365.93C482.97,-344.12 366.04,-306.4 294.07,-283.18"/>
<polygon fill="black" stroke="black" points="294.81,-279.74 284.22,-280.01 292.67,-286.41 294.81,-279.74"/>
</g>
<!-- n3 -->
<g id="node3" class="node">
<title>n3</title>
<polygon fill="#fffdd0" stroke="black" points="714,-280 493,-280 493,-244 714,-244 714,-280"/>
<text text-anchor="middle" x="603.5" y="-258.3" font-family="Arial" font-size="14.00">A string&#45;like line between students</text>
</g>
<!-- n1&#45;&gt;n3 -->
<g id="edge2" class="edge">
<title>n1&#45;&gt;n3</title>
<path fill="none" stroke="black" d="M603.5,-365.81C603.5,-346.11 603.5,-313.58 603.5,-290.39"/>
<polygon fill="black" stroke="black" points="607,-290.16 603.5,-280.16 600,-290.16 607,-290.16"/>
</g>
<!-- n4 -->
<g id="node4" class="node">
<title>n4</title>
<polygon fill="#fffdd0" stroke="black" points="1289,-280 972,-280 972,-244 1289,-244 1289,-280"/>
<text text-anchor="middle" x="1130.5" y="-258.3" font-family="Arial" font-size="14.00">No cups or elements identifying a string telephone</text>
</g>
<!-- n1&#45;&gt;n4 -->
<g id="edge3" class="edge">
<title>n1&#45;&gt;n4</title>
<path fill="none" stroke="black" d="M678.17,-366C775.17,-343.91 944.11,-305.44 1045.8,-282.29"/>
<polygon fill="black" stroke="black" points="1046.73,-285.67 1055.7,-280.03 1045.17,-278.84 1046.73,-285.67"/>
</g>
<!-- n5 -->
<g id="node5" class="node">
<title>n5</title>
<path fill="palegreen" stroke="black" d="M227,-158C227,-158 12,-158 12,-158 6,-158 0,-152 0,-146 0,-146 0,-134 0,-134 0,-128 6,-122 12,-122 12,-122 227,-122 227,-122 233,-122 239,-128 239,-134 239,-134 239,-146 239,-146 239,-152 233,-158 227,-158"/>
<text text-anchor="middle" x="119.5" y="-136.3" font-family="Arial" font-size="14.00">Students communicate using a string</text>
</g>
<!-- n2&#45;&gt;n5 -->
<g id="edge4" class="edge">
<title>n2&#45;&gt;n5</title>
<path fill="none" stroke="black" d="M215.45,-243.81C196.32,-223.31 164.22,-188.91 142.46,-165.6"/>
<polygon fill="black" stroke="black" points="144.9,-163.09 135.52,-158.16 139.78,-167.86 144.9,-163.09"/>
</g>
<!-- n6 -->
<g id="node6" class="node">
<title>n6</title>
<polygon fill="lightcoral" stroke="black" points="603.5,-158 297.34,-140 603.5,-122 909.66,-140 603.5,-158"/>
<text text-anchor="middle" x="603.5" y="-136.3" font-family="Arial" font-size="14.00">Misunderstanding how sound travels through the line</text>
</g>
<!-- n3&#45;&gt;n6 -->
<g id="edge5" class="edge">
<title>n3&#45;&gt;n6</title>
<path fill="none" stroke="black" d="M603.5,-243.81C603.5,-224.11 603.5,-191.58 603.5,-168.39"/>
<polygon fill="black" stroke="black" points="607,-168.16 603.5,-158.16 600,-168.16 607,-168.16"/>
</g>
<!-- n7 -->
<g id="node7" class="node">
<title>n7</title>
<polygon fill="lightcoral" stroke="black" points="1330.5,-158 967.37,-140 1330.5,-122 1693.63,-140 1330.5,-158"/>
<text text-anchor="middle" x="1330.5" y="-136.3" font-family="Arial" font-size="14.00">Lack of understanding: Necessary elements for communication</text>
</g>
<!-- n4&#45;&gt;n7 -->
<g id="edge6" class="edge">
<title>n4&#45;&gt;n7</title>
<path fill="none" stroke="black" d="M1159.2,-243.81C1195.1,-222.27 1256.5,-185.37 1295.3,-162.13"/>
<polygon fill="black" stroke="black" points="1297.35,-164.98 1304.1,-156.82 1293.73,-158.99 1297.35,-164.98"/>
</g>
<!-- n9 -->
<g id="node8" class="node">
<title>n9</title>
<polygon fill="#f28e8e" stroke="black" points="778.5,-36 428.5,-36 428.5,0 778.5,0 778.5,-36"/>
<text text-anchor="middle" x="603.5" y="-14.3" font-family="Arial" font-size="14.00">Demonstrate sound traveling by showing lines or waves</text>
</g>
<!-- n6&#45;&gt;n9 -->
<g id="edge7" class="edge">
<title>n6&#45;&gt;n9</title>
<path fill="none" stroke="black" d="M603.5,-121.81C603.5,-102.11 603.5,-69.58 603.5,-46.39"/>
<polygon fill="black" stroke="black" points="607,-46.16 603.5,-36.16 600,-46.16 607,-46.16"/>
</g>
<!-- n8 -->
<g id="node9" class="node">
<title>n8</title>
<polygon fill="#f28e8e" stroke="black" points="1531,-36 1130,-36 1130,0 1531,0 1531,-36"/>
<text text-anchor="middle" x="1330.5" y="-14.3" font-family="Arial" font-size="14.00">Include cups at each end of the string to complete the telephone</text>
</g>
<!-- n7&#45;&gt;n8 -->
<g id="edge8" class="edge">
<title>n7&#45;&gt;n8</title>
<path fill="none" stroke="black" d="M1330.5,-121.81C1330.5,-102.11 1330.5,-69.58 1330.5,-46.39"/>
<polygon fill="black" stroke="black" points="1334,-46.16 1330.5,-36.16 1327,-46.16 1334,-46.16"/>
</g>
</g>
</svg>
