<?xml version="1.0" encoding="UTF-8" standalone="no"?>
<!DOCTYPE svg PUBLIC "-//W3C//DTD SVG 1.1//EN"
 "http://www.w3.org/Graphics/SVG/1.1/DTD/svg11.dtd">
<!-- Generated by graphviz version 2.43.0 (0)
 -->
<!-- Pages: 1 -->
<svg width="1459pt" height="288pt"
 viewBox="0.00 0.00 1458.50 288.00" xmlns="http://www.w3.org/2000/svg" xmlns:xlink="http://www.w3.org/1999/xlink">
<g id="graph0" class="graph" transform="scale(1 1) rotate(0) translate(4 284)">
<polygon fill="white" stroke="transparent" points="-4,4 -4,-284 1454.5,-284 1454.5,4 -4,4"/>
<!-- n1 -->
<g id="node1" class="node">
<title>n1</title>
<polygon fill="lightblue" stroke="black" points="857.5,-262 766.25,-280 583.75,-280 492.5,-262 583.75,-244 766.25,-244 857.5,-262"/>
<text text-anchor="middle" x="675" y="-258.3" font-family="Arial" font-size="14.00">Draw reversible changes (ice melting)</text>
</g>
<!-- n2 -->
<g id="node2" class="node">
<title>n2</title>
<polygon fill="#fffdd0" stroke="black" points="188,-158 0,-158 0,-122 188,-122 188,-158"/>
<text text-anchor="middle" x="94" y="-136.3" font-family="Arial" font-size="14.00">Glass with labeled &#39;Ice&#39; cube</text>
</g>
<!-- n1&#45;&gt;n2 -->
<g id="edge1" class="edge">
<title>n1&#45;&gt;n2</title>
<path fill="none" stroke="black" d="M592.68,-244C485.41,-221.84 298.37,-183.21 186.37,-160.08"/>
<polygon fill="black" stroke="black" points="186.94,-156.62 176.44,-158.03 185.53,-163.48 186.94,-156.62"/>
</g>
<!-- n3 -->
<g id="node3" class="node">
<title>n3</title>
<polygon fill="#fffdd0" stroke="black" points="498,-158 246,-158 246,-122 498,-122 498,-158"/>
<text text-anchor="middle" x="372" y="-136.3" font-family="Arial" font-size="14.00">Arrow labeled &#39;Melting&#39; leading to water</text>
</g>
<!-- n1&#45;&gt;n3 -->
<g id="edge2" class="edge">
<title>n1&#45;&gt;n3</title>
<path fill="none" stroke="black" d="M631.91,-243.93C577.28,-222.3 483.14,-185.02 424.41,-161.76"/>
<polygon fill="black" stroke="black" points="425.53,-158.44 414.94,-158.01 422.95,-164.95 425.53,-158.44"/>
</g>
<!-- n4 -->
<g id="node4" class="node">
<title>n4</title>
<polygon fill="#fffdd0" stroke="black" points="794,-158 556,-158 556,-122 794,-122 794,-158"/>
<text text-anchor="middle" x="675" y="-136.3" font-family="Arial" font-size="14.00">Pool of &#39;Water&#39; at the bottom of glass</text>
</g>
<!-- n1&#45;&gt;n4 -->
<g id="edge3" class="edge">
<title>n1&#45;&gt;n4</title>
<path fill="none" stroke="black" d="M675,-243.81C675,-224.11 675,-191.58 675,-168.39"/>
<polygon fill="black" stroke="black" points="678.5,-168.16 675,-158.16 671.5,-168.16 678.5,-168.16"/>
</g>
<!-- n5 -->
<g id="node5" class="node">
<title>n5</title>
<polygon fill="#fffdd0" stroke="black" points="1129.5,-158 852.5,-158 852.5,-122 1129.5,-122 1129.5,-158"/>
<text text-anchor="middle" x="991" y="-136.3" font-family="Arial" font-size="14.00">Arrow labeled &#39;Freezing&#39; leading back to ice</text>
</g>
<!-- n1&#45;&gt;n5 -->
<g id="edge4" class="edge">
<title>n1&#45;&gt;n5</title>
<path fill="none" stroke="black" d="M719.94,-243.93C777.03,-222.25 875.49,-184.86 936.72,-161.61"/>
<polygon fill="black" stroke="black" points="938.11,-164.83 946.22,-158.01 935.63,-158.28 938.11,-164.83"/>
</g>
<!-- n6 -->
<g id="node6" class="node">
<title>n6</title>
<polygon fill="#fffdd0" stroke="black" points="1450.5,-158 1187.5,-158 1187.5,-122 1450.5,-122 1450.5,-158"/>
<text text-anchor="middle" x="1319" y="-136.3" font-family="Arial" font-size="14.00">Text &#39;Reversible Change&#39; near the arrows</text>
</g>
<!-- n1&#45;&gt;n6 -->
<g id="edge5" class="edge">
<title>n1&#45;&gt;n6</title>
<path fill="none" stroke="black" d="M766.24,-244C885.5,-221.78 1093.7,-182.98 1217.7,-159.87"/>
<polygon fill="black" stroke="black" points="1218.41,-163.3 1227.6,-158.03 1217.13,-156.42 1218.41,-163.3"/>
</g>
<!-- n7 -->
<g id="node7" class="node">
<title>n7</title>
<path fill="palegreen" stroke="black" d="M411,-36C411,-36 165,-36 165,-36 159,-36 153,-30 153,-24 153,-24 153,-12 153,-12 153,-6 159,0 165,0 165,0 411,0 411,0 417,0 423,-6 423,-12 423,-12 423,-24 423,-24 423,-30 417,-36 411,-36"/>
<text text-anchor="middle" x="288" y="-14.3" font-family="Arial" font-size="14.00">Understands ice melts into water (heating)</text>
</g>
<!-- n2&#45;&gt;n7 -->
<g id="edge6" class="edge">
<title>n2&#45;&gt;n7</title>
<path fill="none" stroke="black" d="M121.8,-121.81C155.94,-100.69 213.95,-64.81 251.61,-41.51"/>
<polygon fill="black" stroke="black" points="253.59,-44.4 260.26,-36.16 249.91,-38.44 253.59,-44.4"/>
</g>
<!-- n3&#45;&gt;n7 -->
<g id="edge7" class="edge">
<title>n3&#45;&gt;n7</title>
<path fill="none" stroke="black" d="M359.96,-121.81C345.81,-101.58 322.16,-67.81 305.87,-44.52"/>
<polygon fill="black" stroke="black" points="308.62,-42.34 300.01,-36.16 302.88,-46.36 308.62,-42.34"/>
</g>
<!-- n8 -->
<g id="node8" class="node">
<title>n8</title>
<path fill="palegreen" stroke="black" d="M911.5,-36C911.5,-36 604.5,-36 604.5,-36 598.5,-36 592.5,-30 592.5,-24 592.5,-24 592.5,-12 592.5,-12 592.5,-6 598.5,0 604.5,0 604.5,0 911.5,0 911.5,0 917.5,0 923.5,-6 923.5,-12 923.5,-12 923.5,-24 923.5,-24 923.5,-30 917.5,-36 911.5,-36"/>
<text text-anchor="middle" x="758" y="-14.3" font-family="Arial" font-size="14.00">Understands water can freeze back into ice (cooling)</text>
</g>
<!-- n4&#45;&gt;n8 -->
<g id="edge8" class="edge">
<title>n4&#45;&gt;n8</title>
<path fill="none" stroke="black" d="M686.89,-121.81C700.88,-101.58 724.24,-67.81 740.35,-44.52"/>
<polygon fill="black" stroke="black" points="743.32,-46.38 746.13,-36.16 737.56,-42.4 743.32,-46.38"/>
</g>
<!-- n5&#45;&gt;n8 -->
<g id="edge9" class="edge">
<title>n5&#45;&gt;n8</title>
<path fill="none" stroke="black" d="M957.62,-121.81C916.18,-100.47 845.47,-64.05 800.28,-40.77"/>
<polygon fill="black" stroke="black" points="801.81,-37.63 791.32,-36.16 798.61,-43.85 801.81,-37.63"/>
</g>
<!-- n9 -->
<g id="node9" class="node">
<title>n9</title>
<path fill="palegreen" stroke="black" d="M1430.5,-36C1430.5,-36 1207.5,-36 1207.5,-36 1201.5,-36 1195.5,-30 1195.5,-24 1195.5,-24 1195.5,-12 1195.5,-12 1195.5,-6 1201.5,0 1207.5,0 1207.5,0 1430.5,0 1430.5,0 1436.5,0 1442.5,-6 1442.5,-12 1442.5,-12 1442.5,-24 1442.5,-24 1442.5,-30 1436.5,-36 1430.5,-36"/>
<text text-anchor="middle" x="1319" y="-14.3" font-family="Arial" font-size="14.00">Understands the process as reversible</text>
</g>
<!-- n6&#45;&gt;n9 -->
<g id="edge10" class="edge">
<title>n6&#45;&gt;n9</title>
<path fill="none" stroke="black" d="M1319,-121.81C1319,-102.11 1319,-69.58 1319,-46.39"/>
<polygon fill="black" stroke="black" points="1322.5,-46.16 1319,-36.16 1315.5,-46.16 1322.5,-46.16"/>
</g>
</g>
</svg>
