<?xml version="1.0" encoding="UTF-8" standalone="no"?>
<!DOCTYPE svg PUBLIC "-//W3C//DTD SVG 1.1//EN"
 "http://www.w3.org/Graphics/SVG/1.1/DTD/svg11.dtd">
<!-- Generated by graphviz version 2.43.0 (0)
 -->
<!-- Pages: 1 -->
<svg width="1372pt" height="410pt"
 viewBox="0.00 0.00 1372.21 410.00" xmlns="http://www.w3.org/2000/svg" xmlns:xlink="http://www.w3.org/1999/xlink">
<g id="graph0" class="graph" transform="scale(1 1) rotate(0) translate(4 406)">
<polygon fill="white" stroke="transparent" points="-4,4 -4,-406 1368.21,-406 1368.21,4 -4,4"/>
<!-- n1 -->
<g id="node1" class="node">
<title>n1</title>
<polygon fill="lightblue" stroke="black" points="883.37,-384 740.69,-402 455.31,-402 312.63,-384 455.31,-366 740.69,-366 883.37,-384"/>
<text text-anchor="middle" x="598" y="-380.3" font-family="Arial" font-size="14.00">Draw animals in their habitats with labels (e.g., fish in water).</text>
</g>
<!-- n2 -->
<g id="node2" class="node">
<title>n2</title>
<polygon fill="#fffdd0" stroke="black" points="351.5,-280 120.5,-280 120.5,-244 351.5,-244 351.5,-280"/>
<text text-anchor="middle" x="236" y="-258.3" font-family="Arial" font-size="14.00">Fish with blue waves labeled &#39;water&#39;</text>
</g>
<!-- n1&#45;&gt;n2 -->
<g id="edge1" class="edge">
<title>n1&#45;&gt;n2</title>
<path fill="none" stroke="black" d="M546.52,-365.93C480.71,-344.12 366.93,-306.4 296.89,-283.18"/>
<polygon fill="black" stroke="black" points="297.89,-279.83 287.3,-280.01 295.7,-286.47 297.89,-279.83"/>
</g>
<!-- n3 -->
<g id="node3" class="node">
<title>n3</title>
<polygon fill="#fffdd0" stroke="black" points="668,-280 528,-280 528,-244 668,-244 668,-280"/>
<text text-anchor="middle" x="598" y="-258.3" font-family="Arial" font-size="14.00">Deer on green grass</text>
</g>
<!-- n1&#45;&gt;n3 -->
<g id="edge2" class="edge">
<title>n1&#45;&gt;n3</title>
<path fill="none" stroke="black" d="M598,-365.81C598,-346.11 598,-313.58 598,-290.39"/>
<polygon fill="black" stroke="black" points="601.5,-290.16 598,-280.16 594.5,-290.16 601.5,-290.16"/>
</g>
<!-- n4 -->
<g id="node4" class="node">
<title>n4</title>
<polygon fill="#fffdd0" stroke="black" points="1051.5,-280 908.5,-280 908.5,-244 1051.5,-244 1051.5,-280"/>
<text text-anchor="middle" x="980" y="-258.3" font-family="Arial" font-size="14.00">Bird on a tree branch</text>
</g>
<!-- n1&#45;&gt;n4 -->
<g id="edge3" class="edge">
<title>n1&#45;&gt;n4</title>
<path fill="none" stroke="black" d="M652.33,-365.93C721.91,-344.07 842.33,-306.25 916.2,-283.04"/>
<polygon fill="black" stroke="black" points="917.37,-286.34 925.86,-280.01 915.27,-279.66 917.37,-286.34"/>
</g>
<!-- n5 -->
<g id="node5" class="node">
<title>n5</title>
<path fill="palegreen" stroke="black" d="M224,-158C224,-158 12,-158 12,-158 6,-158 0,-152 0,-146 0,-146 0,-134 0,-134 0,-128 6,-122 12,-122 12,-122 224,-122 224,-122 230,-122 236,-128 236,-134 236,-134 236,-146 236,-146 236,-152 230,-158 224,-158"/>
<text text-anchor="middle" x="118" y="-136.3" font-family="Arial" font-size="14.00">Correct association of fish with water</text>
</g>
<!-- n2&#45;&gt;n5 -->
<g id="edge4" class="edge">
<title>n2&#45;&gt;n5</title>
<path fill="none" stroke="black" d="M219.09,-243.81C198.85,-223.22 164.82,-188.61 141.9,-165.3"/>
<polygon fill="black" stroke="black" points="144.39,-162.84 134.88,-158.16 139.4,-167.74 144.39,-162.84"/>
</g>
<!-- n6 -->
<g id="node6" class="node">
<title>n6</title>
<polygon fill="lightcoral" stroke="black" points="598,-158 293.52,-140 598,-122 902.48,-140 598,-158"/>
<text text-anchor="middle" x="598" y="-136.3" font-family="Arial" font-size="14.00">Basic but incomplete understanding of deer&#39;s habitat</text>
</g>
<!-- n3&#45;&gt;n6 -->
<g id="edge5" class="edge">
<title>n3&#45;&gt;n6</title>
<path fill="none" stroke="black" d="M598,-243.81C598,-224.11 598,-191.58 598,-168.39"/>
<polygon fill="black" stroke="black" points="601.5,-168.16 598,-158.16 594.5,-168.16 601.5,-168.16"/>
</g>
<!-- n7 -->
<g id="node7" class="node">
<title>n7</title>
<polygon fill="lightcoral" stroke="black" points="1162,-158 959.57,-140 1162,-122 1364.43,-140 1162,-158"/>
<text text-anchor="middle" x="1162" y="-136.3" font-family="Arial" font-size="14.00">Partial recognition of bird&#39;s habitat</text>
</g>
<!-- n4&#45;&gt;n7 -->
<g id="edge6" class="edge">
<title>n4&#45;&gt;n7</title>
<path fill="none" stroke="black" d="M1006.1,-243.81C1039,-222.12 1095.5,-184.86 1130.7,-161.66"/>
<polygon fill="black" stroke="black" points="1132.71,-164.53 1139.1,-156.08 1128.83,-158.7 1132.71,-164.53"/>
</g>
<!-- n8 -->
<g id="node8" class="node">
<title>n8</title>
<polygon fill="#f28e8e" stroke="black" points="749,-36 447,-36 447,0 749,0 749,-36"/>
<text text-anchor="middle" x="598" y="-14.3" font-family="Arial" font-size="14.00">Explain the importance of forest habitat for deer</text>
</g>
<!-- n6&#45;&gt;n8 -->
<g id="edge7" class="edge">
<title>n6&#45;&gt;n8</title>
<path fill="none" stroke="black" d="M598,-121.81C598,-102.11 598,-69.58 598,-46.39"/>
<polygon fill="black" stroke="black" points="601.5,-46.16 598,-36.16 594.5,-46.16 601.5,-46.16"/>
</g>
<!-- n9 -->
<g id="node9" class="node">
<title>n9</title>
<polygon fill="#f28e8e" stroke="black" points="1304.5,-36 1019.5,-36 1019.5,0 1304.5,0 1304.5,-36"/>
<text text-anchor="middle" x="1162" y="-14.3" font-family="Arial" font-size="14.00">Emphasize bird&#39;s need for the tree as habitat</text>
</g>
<!-- n7&#45;&gt;n9 -->
<g id="edge8" class="edge">
<title>n7&#45;&gt;n9</title>
<path fill="none" stroke="black" d="M1162,-121.81C1162,-102.11 1162,-69.58 1162,-46.39"/>
<polygon fill="black" stroke="black" points="1165.5,-46.16 1162,-36.16 1158.5,-46.16 1165.5,-46.16"/>
</g>
</g>
</svg>
