<?xml version="1.0" encoding="UTF-8" standalone="no"?>
<!DOCTYPE svg PUBLIC "-//W3C//DTD SVG 1.1//EN"
 "http://www.w3.org/Graphics/SVG/1.1/DTD/svg11.dtd">
<!-- Generated by graphviz version 2.43.0 (0)
 -->
<!-- Pages: 1 -->
<svg width="943pt" height="410pt"
 viewBox="0.00 0.00 943.00 410.00" xmlns="http://www.w3.org/2000/svg" xmlns:xlink="http://www.w3.org/1999/xlink">
<g id="graph0" class="graph" transform="scale(1 1) rotate(0) translate(4 406)">
<polygon fill="white" stroke="transparent" points="-4,4 -4,-406 939,-406 939,4 -4,4"/>
<!-- n1 -->
<g id="node1" class="node">
<title>n1</title>
<polygon fill="lightblue" stroke="black" points="935,-384 771,-402 443,-402 279,-384 443,-366 771,-366 935,-384"/>
<text text-anchor="middle" x="607" y="-380.3" font-family="Arial" font-size="14.00">Draw reversible and irreversible changes (ice melting vs. egg cooking)</text>
</g>
<!-- n2 -->
<g id="node2" class="node">
<title>n2</title>
<polygon fill="#fffdd0" stroke="black" points="569,-280 315,-280 315,-244 569,-244 569,-280"/>
<text text-anchor="middle" x="442" y="-258.3" font-family="Arial" font-size="14.00">Blue square with wavy lines underneath</text>
</g>
<!-- n1&#45;&gt;n2 -->
<g id="edge1" class="edge">
<title>n1&#45;&gt;n2</title>
<path fill="none" stroke="black" d="M583.36,-365.81C554.57,-344.87 505.81,-309.41 473.76,-286.1"/>
<polygon fill="black" stroke="black" points="475.74,-283.22 465.6,-280.16 471.62,-288.87 475.74,-283.22"/>
</g>
<!-- n3 -->
<g id="node3" class="node">
<title>n3</title>
<polygon fill="#fffdd0" stroke="black" points="929.5,-280 638.5,-280 638.5,-244 929.5,-244 929.5,-280"/>
<text text-anchor="middle" x="784" y="-258.3" font-family="Arial" font-size="14.00">Oval shape next to a squiggly circle with a dot</text>
</g>
<!-- n1&#45;&gt;n3 -->
<g id="edge2" class="edge">
<title>n1&#45;&gt;n3</title>
<path fill="none" stroke="black" d="M632.36,-365.81C663.38,-344.78 715.99,-309.11 750.37,-285.8"/>
<polygon fill="black" stroke="black" points="752.38,-288.67 758.69,-280.16 748.45,-282.87 752.38,-288.67"/>
</g>
<!-- n4 -->
<g id="node4" class="node">
<title>n4</title>
<path fill="palegreen" stroke="black" d="M206,-158C206,-158 12,-158 12,-158 6,-158 0,-152 0,-146 0,-146 0,-134 0,-134 0,-128 6,-122 12,-122 12,-122 206,-122 206,-122 212,-122 218,-128 218,-134 218,-134 218,-146 218,-146 218,-152 212,-158 206,-158"/>
<text text-anchor="middle" x="109" y="-136.3" font-family="Arial" font-size="14.00">Correct depiction of ice and water</text>
</g>
<!-- n2&#45;&gt;n4 -->
<g id="edge3" class="edge">
<title>n2&#45;&gt;n4</title>
<path fill="none" stroke="black" d="M394.64,-243.93C334.35,-222.21 230.29,-184.71 165.8,-161.47"/>
<polygon fill="black" stroke="black" points="166.78,-158.1 156.19,-158.01 164.41,-164.69 166.78,-158.1"/>
</g>
<!-- n6 -->
<g id="node5" class="node">
<title>n6</title>
<polygon fill="lightcoral" stroke="black" points="442,-158 275.5,-140 442,-122 608.5,-140 442,-158"/>
<text text-anchor="middle" x="442" y="-136.3" font-family="Arial" font-size="14.00">No indication of reversibility</text>
</g>
<!-- n2&#45;&gt;n6 -->
<g id="edge4" class="edge">
<title>n2&#45;&gt;n6</title>
<path fill="none" stroke="black" d="M442,-243.81C442,-224.11 442,-191.58 442,-168.39"/>
<polygon fill="black" stroke="black" points="445.5,-168.16 442,-158.16 438.5,-168.16 445.5,-168.16"/>
</g>
<!-- n5 -->
<g id="node6" class="node">
<title>n5</title>
<path fill="palegreen" stroke="black" d="M913.5,-158C913.5,-158 678.5,-158 678.5,-158 672.5,-158 666.5,-152 666.5,-146 666.5,-146 666.5,-134 666.5,-134 666.5,-128 672.5,-122 678.5,-122 678.5,-122 913.5,-122 913.5,-122 919.5,-122 925.5,-128 925.5,-134 925.5,-134 925.5,-146 925.5,-146 925.5,-152 919.5,-158 913.5,-158"/>
<text text-anchor="middle" x="796" y="-136.3" font-family="Arial" font-size="14.00">Correct depiction of raw and cooked egg</text>
</g>
<!-- n3&#45;&gt;n5 -->
<g id="edge5" class="edge">
<title>n3&#45;&gt;n5</title>
<path fill="none" stroke="black" d="M785.72,-243.81C787.69,-224.11 790.94,-191.58 793.26,-168.39"/>
<polygon fill="black" stroke="black" points="796.77,-168.46 794.28,-158.16 789.81,-167.76 796.77,-168.46"/>
</g>
<!-- n7 -->
<g id="node7" class="node">
<title>n7</title>
<polygon fill="#f28e8e" stroke="black" points="681.5,-36 202.5,-36 202.5,0 681.5,0 681.5,-36"/>
<text text-anchor="middle" x="442" y="-14.3" font-family="Arial" font-size="14.00">Feedback: Add arrows to indicate reversibility for ice and irreversibility for egg</text>
</g>
<!-- n6&#45;&gt;n7 -->
<g id="edge6" class="edge">
<title>n6&#45;&gt;n7</title>
<path fill="none" stroke="black" d="M442,-121.81C442,-102.11 442,-69.58 442,-46.39"/>
<polygon fill="black" stroke="black" points="445.5,-46.16 442,-36.16 438.5,-46.16 445.5,-46.16"/>
</g>
</g>
</svg>
