<?xml version="1.0" encoding="UTF-8" standalone="no"?>
<!DOCTYPE svg PUBLIC "-//W3C//DTD SVG 1.1//EN"
 "http://www.w3.org/Graphics/SVG/1.1/DTD/svg11.dtd">
<!-- Generated by graphviz version 2.43.0 (0)
 -->
<!-- Pages: 1 -->
<svg width="1885pt" height="288pt"
 viewBox="0.00 0.00 1885.00 288.00" xmlns="http://www.w3.org/2000/svg" xmlns:xlink="http://www.w3.org/1999/xlink">
<g id="graph0" class="graph" transform="scale(1 1) rotate(0) translate(4 284)">
<polygon fill="white" stroke="transparent" points="-4,4 -4,-284 1881,-284 1881,4 -4,4"/>
<!-- n1 -->
<g id="node1" class="node">
<title>n1</title>
<polygon fill="lightblue" stroke="black" points="1130,-262 1038.75,-280 856.25,-280 765,-262 856.25,-244 1038.75,-244 1130,-262"/>
<text text-anchor="middle" x="947.5" y="-258.3" font-family="Arial" font-size="14.00">Draw a fish in their habitat with labels.</text>
</g>
<!-- n2 -->
<g id="node2" class="node">
<title>n2</title>
<polygon fill="#fffdd0" stroke="black" points="425,-158 0,-158 0,-122 425,-122 425,-158"/>
<text text-anchor="middle" x="212.5" y="-136.3" font-family="Arial" font-size="14.00">A fish with defined fins, scales, and eye, colored in blues and silvers.</text>
</g>
<!-- n1&#45;&gt;n2 -->
<g id="edge1" class="edge">
<title>n1&#45;&gt;n2</title>
<path fill="none" stroke="black" d="M850.28,-245.13C715.11,-223.06 470.87,-183.18 327.04,-159.7"/>
<polygon fill="black" stroke="black" points="327.29,-156.2 316.86,-158.04 326.17,-163.1 327.29,-156.2"/>
</g>
<!-- n3 -->
<g id="node3" class="node">
<title>n3</title>
<polygon fill="#fffdd0" stroke="black" points="911.5,-158 483.5,-158 483.5,-122 911.5,-122 911.5,-158"/>
<text text-anchor="middle" x="697.5" y="-136.3" font-family="Arial" font-size="14.00">Various green aquatic plants labeled as seaweed and other plant life.</text>
</g>
<!-- n1&#45;&gt;n3 -->
<g id="edge2" class="edge">
<title>n1&#45;&gt;n3</title>
<path fill="none" stroke="black" d="M911.95,-243.93C867.24,-222.48 790.48,-185.63 741.95,-162.33"/>
<polygon fill="black" stroke="black" points="743.46,-159.17 732.93,-158.01 740.44,-165.49 743.46,-159.17"/>
</g>
<!-- n4 -->
<g id="node4" class="node">
<title>n4</title>
<polygon fill="#fffdd0" stroke="black" points="1427.5,-158 969.5,-158 969.5,-122 1427.5,-122 1427.5,-158"/>
<text text-anchor="middle" x="1198.5" y="-136.3" font-family="Arial" font-size="14.00">Smaller fish in different colors and a crab near brown rocks and driftwood.</text>
</g>
<!-- n1&#45;&gt;n4 -->
<g id="edge3" class="edge">
<title>n1&#45;&gt;n4</title>
<path fill="none" stroke="black" d="M983.2,-243.93C1028.1,-222.48 1105.1,-185.63 1153.9,-162.33"/>
<polygon fill="black" stroke="black" points="1155.4,-165.49 1162.9,-158.01 1152.37,-159.18 1155.4,-165.49"/>
</g>
<!-- n5 -->
<g id="node5" class="node">
<title>n5</title>
<polygon fill="#fffdd0" stroke="black" points="1877,-158 1486,-158 1486,-122 1877,-122 1877,-158"/>
<text text-anchor="middle" x="1681.5" y="-136.3" font-family="Arial" font-size="14.00">&#39;Water&#39; with wavy blue lines indicating a dynamic environment.</text>
</g>
<!-- n1&#45;&gt;n5 -->
<g id="edge4" class="edge">
<title>n1&#45;&gt;n5</title>
<path fill="none" stroke="black" d="M1044.6,-245.13C1179.6,-223.06 1423.5,-183.18 1567.1,-159.7"/>
<polygon fill="black" stroke="black" points="1567.99,-163.1 1577.3,-158.04 1566.87,-156.19 1567.99,-163.1"/>
</g>
<!-- n6 -->
<g id="node6" class="node">
<title>n6</title>
<path fill="palegreen" stroke="black" d="M385,-36C385,-36 40,-36 40,-36 34,-36 28,-30 28,-24 28,-24 28,-12 28,-12 28,-6 34,0 40,0 40,0 385,0 385,0 391,0 397,-6 397,-12 397,-12 397,-24 397,-24 397,-30 391,-36 385,-36"/>
<text text-anchor="middle" x="212.5" y="-14.3" font-family="Arial" font-size="14.00">The student understands fish anatomy and its appearance.</text>
</g>
<!-- n2&#45;&gt;n6 -->
<g id="edge5" class="edge">
<title>n2&#45;&gt;n6</title>
<path fill="none" stroke="black" d="M212.5,-121.81C212.5,-102.11 212.5,-69.58 212.5,-46.39"/>
<polygon fill="black" stroke="black" points="216,-46.16 212.5,-36.16 209,-46.16 216,-46.16"/>
</g>
<!-- n7 -->
<g id="node7" class="node">
<title>n7</title>
<path fill="palegreen" stroke="black" d="M882.5,-36C882.5,-36 512.5,-36 512.5,-36 506.5,-36 500.5,-30 500.5,-24 500.5,-24 500.5,-12 500.5,-12 500.5,-6 506.5,0 512.5,0 512.5,0 882.5,0 882.5,0 888.5,0 894.5,-6 894.5,-12 894.5,-12 894.5,-24 894.5,-24 894.5,-30 888.5,-36 882.5,-36"/>
<text text-anchor="middle" x="697.5" y="-14.3" font-family="Arial" font-size="14.00">The student understands identification and labeling of plant life.</text>
</g>
<!-- n3&#45;&gt;n7 -->
<g id="edge6" class="edge">
<title>n3&#45;&gt;n7</title>
<path fill="none" stroke="black" d="M697.5,-121.81C697.5,-102.11 697.5,-69.58 697.5,-46.39"/>
<polygon fill="black" stroke="black" points="701,-46.16 697.5,-36.16 694,-46.16 701,-46.16"/>
</g>
<!-- n8 -->
<g id="node8" class="node">
<title>n8</title>
<path fill="palegreen" stroke="black" d="M1381.5,-36C1381.5,-36 1015.5,-36 1015.5,-36 1009.5,-36 1003.5,-30 1003.5,-24 1003.5,-24 1003.5,-12 1003.5,-12 1003.5,-6 1009.5,0 1015.5,0 1015.5,0 1381.5,0 1381.5,0 1387.5,0 1393.5,-6 1393.5,-12 1393.5,-12 1393.5,-24 1393.5,-24 1393.5,-30 1387.5,-36 1381.5,-36"/>
<text text-anchor="middle" x="1198.5" y="-14.3" font-family="Arial" font-size="14.00">Correct inclusion of other organisms to indicate an ecosystem.</text>
</g>
<!-- n4&#45;&gt;n8 -->
<g id="edge7" class="edge">
<title>n4&#45;&gt;n8</title>
<path fill="none" stroke="black" d="M1198.5,-121.81C1198.5,-102.11 1198.5,-69.58 1198.5,-46.39"/>
<polygon fill="black" stroke="black" points="1202,-46.16 1198.5,-36.16 1195,-46.16 1202,-46.16"/>
</g>
<!-- n9 -->
<g id="node9" class="node">
<title>n9</title>
<path fill="palegreen" stroke="black" d="M1809.5,-36C1809.5,-36 1553.5,-36 1553.5,-36 1547.5,-36 1541.5,-30 1541.5,-24 1541.5,-24 1541.5,-12 1541.5,-12 1541.5,-6 1547.5,0 1553.5,0 1553.5,0 1809.5,0 1809.5,0 1815.5,0 1821.5,-6 1821.5,-12 1821.5,-12 1821.5,-24 1821.5,-24 1821.5,-30 1815.5,-36 1809.5,-36"/>
<text text-anchor="middle" x="1681.5" y="-14.3" font-family="Arial" font-size="14.00">Correct representation of water as a habitat.</text>
</g>
<!-- n5&#45;&gt;n9 -->
<g id="edge8" class="edge">
<title>n5&#45;&gt;n9</title>
<path fill="none" stroke="black" d="M1681.5,-121.81C1681.5,-102.11 1681.5,-69.58 1681.5,-46.39"/>
<polygon fill="black" stroke="black" points="1685,-46.16 1681.5,-36.16 1678,-46.16 1685,-46.16"/>
</g>
</g>
</svg>
