<?xml version="1.0" encoding="UTF-8" standalone="no"?>
<!DOCTYPE svg PUBLIC "-//W3C//DTD SVG 1.1//EN"
 "http://www.w3.org/Graphics/SVG/1.1/DTD/svg11.dtd">
<!-- Generated by graphviz version 2.43.0 (0)
 -->
<!-- Pages: 1 -->
<svg width="1724pt" height="410pt"
 viewBox="0.00 0.00 1723.50 410.00" xmlns="http://www.w3.org/2000/svg" xmlns:xlink="http://www.w3.org/1999/xlink">
<g id="graph0" class="graph" transform="scale(1 1) rotate(0) translate(4 406)">
<polygon fill="white" stroke="transparent" points="-4,4 -4,-406 1719.5,-406 1719.5,4 -4,4"/>
<!-- n1 -->
<g id="node1" class="node">
<title>n1</title>
<polygon fill="lightblue" stroke="black" points="1096,-384 983.75,-402 759.25,-402 647,-384 759.25,-366 983.75,-366 1096,-384"/>
<text text-anchor="middle" x="871.5" y="-380.3" font-family="Arial" font-size="14.00">Illustrate plants with and without water and light</text>
</g>
<!-- n2 -->
<g id="node2" class="node">
<title>n2</title>
<polygon fill="#fffdd0" stroke="black" points="640,-280 365,-280 365,-244 640,-244 640,-280"/>
<text text-anchor="middle" x="502.5" y="-258.3" font-family="Arial" font-size="14.00">Healthy green plant with sunlight and water</text>
</g>
<!-- n1&#45;&gt;n2 -->
<g id="edge1" class="edge">
<title>n1&#45;&gt;n2</title>
<path fill="none" stroke="black" d="M819.02,-365.93C751.94,-344.12 635.96,-306.4 564.56,-283.18"/>
<polygon fill="black" stroke="black" points="565.39,-279.77 554.8,-280.01 563.23,-286.43 565.39,-279.77"/>
</g>
<!-- n3 -->
<g id="node3" class="node">
<title>n3</title>
<polygon fill="#fffdd0" stroke="black" points="1028.5,-280 714.5,-280 714.5,-244 1028.5,-244 1028.5,-280"/>
<text text-anchor="middle" x="871.5" y="-258.3" font-family="Arial" font-size="14.00">Struggling plant with droopy leaves (lack of water)</text>
</g>
<!-- n1&#45;&gt;n3 -->
<g id="edge2" class="edge">
<title>n1&#45;&gt;n3</title>
<path fill="none" stroke="black" d="M871.5,-365.81C871.5,-346.11 871.5,-313.58 871.5,-290.39"/>
<polygon fill="black" stroke="black" points="875,-290.16 871.5,-280.16 868,-290.16 875,-290.16"/>
</g>
<!-- n4 -->
<g id="node4" class="node">
<title>n4</title>
<polygon fill="#fffdd0" stroke="black" points="1463.5,-280 1173.5,-280 1173.5,-244 1463.5,-244 1463.5,-280"/>
<text text-anchor="middle" x="1318.5" y="-258.3" font-family="Arial" font-size="14.00">Struggling plant with pale leaves (lack of light)</text>
</g>
<!-- n1&#45;&gt;n4 -->
<g id="edge3" class="edge">
<title>n1&#45;&gt;n4</title>
<path fill="none" stroke="black" d="M935.07,-365.93C1017,-343.94 1159.1,-305.78 1245.4,-282.62"/>
<polygon fill="black" stroke="black" points="1246.35,-285.99 1255.1,-280.01 1244.53,-279.23 1246.35,-285.99"/>
</g>
<!-- n5 -->
<g id="node5" class="node">
<title>n5</title>
<path fill="palegreen" stroke="black" d="M287,-158C287,-158 12,-158 12,-158 6,-158 0,-152 0,-146 0,-146 0,-134 0,-134 0,-128 6,-122 12,-122 12,-122 287,-122 287,-122 293,-122 299,-128 299,-134 299,-134 299,-146 299,-146 299,-152 293,-158 287,-158"/>
<text text-anchor="middle" x="149.5" y="-136.3" font-family="Arial" font-size="14.00">Understands that water leads to a healthy plant</text>
</g>
<!-- n2&#45;&gt;n5 -->
<g id="edge4" class="edge">
<title>n2&#45;&gt;n5</title>
<path fill="none" stroke="black" d="M452.3,-243.93C388.26,-222.16 277.63,-184.56 209.29,-161.33"/>
<polygon fill="black" stroke="black" points="210.12,-157.92 199.53,-158.01 207.87,-164.54 210.12,-157.92"/>
</g>
<!-- n6 -->
<g id="node6" class="node">
<title>n6</title>
<path fill="palegreen" stroke="black" d="M635.5,-158C635.5,-158 369.5,-158 369.5,-158 363.5,-158 357.5,-152 357.5,-146 357.5,-146 357.5,-134 357.5,-134 357.5,-128 363.5,-122 369.5,-122 369.5,-122 635.5,-122 635.5,-122 641.5,-122 647.5,-128 647.5,-134 647.5,-134 647.5,-146 647.5,-146 647.5,-152 641.5,-158 635.5,-158"/>
<text text-anchor="middle" x="502.5" y="-136.3" font-family="Arial" font-size="14.00">Understands that light leads to a healthy plant</text>
</g>
<!-- n2&#45;&gt;n6 -->
<g id="edge5" class="edge">
<title>n2&#45;&gt;n6</title>
<path fill="none" stroke="black" d="M502.5,-243.81C502.5,-224.11 502.5,-191.58 502.5,-168.39"/>
<polygon fill="black" stroke="black" points="506,-168.16 502.5,-158.16 499,-168.16 506,-168.16"/>
</g>
<!-- n7 -->
<g id="node7" class="node">
<title>n7</title>
<path fill="palegreen" stroke="black" d="M1025.5,-158C1025.5,-158 717.5,-158 717.5,-158 711.5,-158 705.5,-152 705.5,-146 705.5,-146 705.5,-134 705.5,-134 705.5,-128 711.5,-122 717.5,-122 717.5,-122 1025.5,-122 1025.5,-122 1031.5,-122 1037.5,-128 1037.5,-134 1037.5,-134 1037.5,-146 1037.5,-146 1037.5,-152 1031.5,-158 1025.5,-158"/>
<text text-anchor="middle" x="871.5" y="-136.3" font-family="Arial" font-size="14.00">Understands impact of lack of water on plant posture</text>
</g>
<!-- n3&#45;&gt;n7 -->
<g id="edge6" class="edge">
<title>n3&#45;&gt;n7</title>
<path fill="none" stroke="black" d="M871.5,-243.81C871.5,-224.11 871.5,-191.58 871.5,-168.39"/>
<polygon fill="black" stroke="black" points="875,-168.16 871.5,-158.16 868,-168.16 875,-168.16"/>
</g>
<!-- n8 -->
<g id="node8" class="node">
<title>n8</title>
<polygon fill="lightcoral" stroke="black" points="1405.5,-158 1095.5,-140 1405.5,-122 1715.5,-140 1405.5,-158"/>
<text text-anchor="middle" x="1405.5" y="-136.3" font-family="Arial" font-size="14.00">Misunderstands impact of lack of light (plant not pale)</text>
</g>
<!-- n4&#45;&gt;n8 -->
<g id="edge7" class="edge">
<title>n4&#45;&gt;n8</title>
<path fill="none" stroke="black" d="M1331,-243.81C1345.8,-223.35 1370.7,-189.04 1387.6,-165.73"/>
<polygon fill="black" stroke="black" points="1390.6,-167.55 1393.6,-157.39 1384.92,-163.46 1390.6,-167.55"/>
</g>
<!-- n9 -->
<g id="node9" class="node">
<title>n9</title>
<polygon fill="#f28e8e" stroke="black" points="1591,-36 1220,-36 1220,0 1591,0 1591,-36"/>
<text text-anchor="middle" x="1405.5" y="-14.3" font-family="Arial" font-size="14.00">Consider showing the plant paler to indicate light deficiency</text>
</g>
<!-- n8&#45;&gt;n9 -->
<g id="edge8" class="edge">
<title>n8&#45;&gt;n9</title>
<path fill="none" stroke="black" d="M1405.5,-121.81C1405.5,-102.11 1405.5,-69.58 1405.5,-46.39"/>
<polygon fill="black" stroke="black" points="1409,-46.16 1405.5,-36.16 1402,-46.16 1409,-46.16"/>
</g>
</g>
</svg>
