<?xml version="1.0" encoding="UTF-8" standalone="no"?>
<!DOCTYPE svg PUBLIC "-//W3C//DTD SVG 1.1//EN"
 "http://www.w3.org/Graphics/SVG/1.1/DTD/svg11.dtd">
<!-- Generated by graphviz version 2.43.0 (0)
 -->
<!-- Pages: 1 -->
<svg width="1608pt" height="410pt"
 viewBox="0.00 0.00 1607.50 410.00" xmlns="http://www.w3.org/2000/svg" xmlns:xlink="http://www.w3.org/1999/xlink">
<g id="graph0" class="graph" transform="scale(1 1) rotate(0) translate(4 406)">
<polygon fill="white" stroke="transparent" points="-4,4 -4,-406 1603.5,-406 1603.5,4 -4,4"/>
<!-- n1 -->
<g id="node1" class="node">
<title>n1</title>
<polygon fill="lightblue" stroke="black" points="902.5,-384 772.25,-402 511.75,-402 381.5,-384 511.75,-366 772.25,-366 902.5,-384"/>
<text text-anchor="middle" x="642" y="-380.3" font-family="Arial" font-size="14.00">Draw two habitats and the different living things in each</text>
</g>
<!-- n2 -->
<g id="node2" class="node">
<title>n2</title>
<polygon fill="#fffdd0" stroke="black" points="170,-280 0,-280 0,-244 170,-244 170,-280"/>
<text text-anchor="middle" x="85" y="-258.3" font-family="Arial" font-size="14.00">Blue blob shape for water</text>
</g>
<!-- n1&#45;&gt;n2 -->
<g id="edge1" class="edge">
<title>n1&#45;&gt;n2</title>
<path fill="none" stroke="black" d="M563.08,-366C460.35,-343.87 281.28,-305.29 173.88,-282.15"/>
<polygon fill="black" stroke="black" points="174.54,-278.71 164.03,-280.03 173.07,-285.56 174.54,-278.71"/>
</g>
<!-- n3 -->
<g id="node3" class="node">
<title>n3</title>
<polygon fill="#fffdd0" stroke="black" points="385.5,-280 228.5,-280 228.5,-244 385.5,-244 385.5,-280"/>
<text text-anchor="middle" x="307" y="-258.3" font-family="Arial" font-size="14.00">Flat green area for land</text>
</g>
<!-- n1&#45;&gt;n3 -->
<g id="edge2" class="edge">
<title>n1&#45;&gt;n3</title>
<path fill="none" stroke="black" d="M594.36,-365.93C533.71,-344.21 429.02,-306.71 364.14,-283.47"/>
<polygon fill="black" stroke="black" points="365.07,-280.09 354.48,-280.01 362.71,-286.68 365.07,-280.09"/>
</g>
<!-- n4 -->
<g id="node4" class="node">
<title>n4</title>
<polygon fill="#fffdd0" stroke="black" points="604,-280 444,-280 444,-244 604,-244 604,-280"/>
<text text-anchor="middle" x="524" y="-258.3" font-family="Arial" font-size="14.00">Oval representing a fish</text>
</g>
<!-- n1&#45;&gt;n4 -->
<g id="edge3" class="edge">
<title>n1&#45;&gt;n4</title>
<path fill="none" stroke="black" d="M625.09,-365.81C604.85,-345.22 570.82,-310.61 547.9,-287.3"/>
<polygon fill="black" stroke="black" points="550.39,-284.84 540.88,-280.16 545.4,-289.74 550.39,-284.84"/>
</g>
<!-- n5 -->
<g id="node5" class="node">
<title>n5</title>
<polygon fill="#fffdd0" stroke="black" points="857.5,-280 662.5,-280 662.5,-244 857.5,-244 857.5,-280"/>
<text text-anchor="middle" x="760" y="-258.3" font-family="Arial" font-size="14.00">Green squiggly line as a plant</text>
</g>
<!-- n1&#45;&gt;n5 -->
<g id="edge4" class="edge">
<title>n1&#45;&gt;n5</title>
<path fill="none" stroke="black" d="M658.91,-365.81C679.15,-345.22 713.18,-310.61 736.1,-287.3"/>
<polygon fill="black" stroke="black" points="738.6,-289.74 743.12,-280.16 733.61,-284.84 738.6,-289.74"/>
</g>
<!-- n6 -->
<g id="node6" class="node">
<title>n6</title>
<polygon fill="#fffdd0" stroke="black" points="1228.5,-280 915.5,-280 915.5,-244 1228.5,-244 1228.5,-280"/>
<text text-anchor="middle" x="1072" y="-258.3" font-family="Arial" font-size="14.00">Simple tree with brown rectangle and green circle</text>
</g>
<!-- n1&#45;&gt;n6 -->
<g id="edge5" class="edge">
<title>n1&#45;&gt;n6</title>
<path fill="none" stroke="black" d="M703.15,-365.93C781.8,-343.99 918.14,-305.94 1001.2,-282.76"/>
<polygon fill="black" stroke="black" points="1002.4,-286.06 1011.1,-280.01 1000.53,-279.31 1002.4,-286.06"/>
</g>
<!-- n7 -->
<g id="node7" class="node">
<title>n7</title>
<polygon fill="#fffdd0" stroke="black" points="1599.5,-280 1286.5,-280 1286.5,-244 1599.5,-244 1599.5,-280"/>
<text text-anchor="middle" x="1443" y="-258.3" font-family="Arial" font-size="14.00">Round shape with sticks for legs as a land animal</text>
</g>
<!-- n1&#45;&gt;n7 -->
<g id="edge6" class="edge">
<title>n1&#45;&gt;n7</title>
<path fill="none" stroke="black" d="M755.49,-366C904.56,-343.66 1165.4,-304.59 1319.4,-281.52"/>
<polygon fill="black" stroke="black" points="1319.93,-284.98 1329.3,-280.03 1318.89,-278.06 1319.93,-284.98"/>
</g>
<!-- n8 -->
<g id="node8" class="node">
<title>n8</title>
<path fill="palegreen" stroke="black" d="M347.5,-158C347.5,-158 140.5,-158 140.5,-158 134.5,-158 128.5,-152 128.5,-146 128.5,-146 128.5,-134 128.5,-134 128.5,-128 134.5,-122 140.5,-122 140.5,-122 347.5,-122 347.5,-122 353.5,-122 359.5,-128 359.5,-134 359.5,-134 359.5,-146 359.5,-146 359.5,-152 353.5,-158 347.5,-158"/>
<text text-anchor="middle" x="244" y="-136.3" font-family="Arial" font-size="14.00">Understands water vs. land habitats</text>
</g>
<!-- n2&#45;&gt;n8 -->
<g id="edge7" class="edge">
<title>n2&#45;&gt;n8</title>
<path fill="none" stroke="black" d="M107.78,-243.81C135.41,-222.96 182.11,-187.71 213,-164.4"/>
<polygon fill="black" stroke="black" points="215.39,-166.98 221.26,-158.16 211.17,-161.4 215.39,-166.98"/>
</g>
<!-- n3&#45;&gt;n8 -->
<g id="edge8" class="edge">
<title>n3&#45;&gt;n8</title>
<path fill="none" stroke="black" d="M297.97,-243.81C287.45,-223.76 269.94,-190.4 257.72,-167.14"/>
<polygon fill="black" stroke="black" points="260.75,-165.39 253.01,-158.16 254.56,-168.64 260.75,-165.39"/>
</g>
<!-- n9 -->
<g id="node9" class="node">
<title>n9</title>
<polygon fill="lightcoral" stroke="black" points="822,-158 513,-140 822,-122 1131,-140 822,-158"/>
<text text-anchor="middle" x="822" y="-136.3" font-family="Arial" font-size="14.00">Struggles with diversity in plant/animal representation</text>
</g>
<!-- n4&#45;&gt;n9 -->
<g id="edge9" class="edge">
<title>n4&#45;&gt;n9</title>
<path fill="none" stroke="black" d="M566.38,-243.93C621.67,-221.67 718.1,-182.84 775.4,-159.77"/>
<polygon fill="black" stroke="black" points="776.96,-162.91 784.93,-155.93 774.35,-156.42 776.96,-162.91"/>
</g>
<!-- n5&#45;&gt;n9 -->
<g id="edge10" class="edge">
<title>n5&#45;&gt;n9</title>
<path fill="none" stroke="black" d="M768.88,-243.81C779.3,-223.64 796.67,-190.02 808.7,-166.74"/>
<polygon fill="black" stroke="black" points="811.85,-168.26 813.33,-157.77 805.63,-165.05 811.85,-168.26"/>
</g>
<!-- n6&#45;&gt;n9 -->
<g id="edge11" class="edge">
<title>n6&#45;&gt;n9</title>
<path fill="none" stroke="black" d="M1036.4,-243.93C990.7,-221.97 911.38,-183.9 863.09,-160.72"/>
<polygon fill="black" stroke="black" points="864.4,-157.47 853.87,-156.3 861.37,-163.78 864.4,-157.47"/>
</g>
<!-- n7&#45;&gt;n9 -->
<g id="edge12" class="edge">
<title>n7&#45;&gt;n9</title>
<path fill="none" stroke="black" d="M1355,-244C1233.4,-220.5 1015.9,-178.47 899.9,-156.05"/>
<polygon fill="black" stroke="black" points="900.5,-152.6 890.02,-154.14 899.17,-159.47 900.5,-152.6"/>
</g>
<!-- n10 -->
<g id="node10" class="node">
<title>n10</title>
<polygon fill="#f28e8e" stroke="black" points="786.5,-36 571.5,-36 571.5,0 786.5,0 786.5,-36"/>
<text text-anchor="middle" x="679" y="-14.3" font-family="Arial" font-size="14.00">More detailed labeling of habitats</text>
</g>
<!-- n9&#45;&gt;n10 -->
<g id="edge13" class="edge">
<title>n9&#45;&gt;n10</title>
<path fill="none" stroke="black" d="M803.01,-123.06C778.53,-102.52 735.75,-66.62 707.4,-42.83"/>
<polygon fill="black" stroke="black" points="709.37,-39.92 699.46,-36.17 704.87,-45.28 709.37,-39.92"/>
</g>
<!-- n11 -->
<g id="node11" class="node">
<title>n11</title>
<polygon fill="#f28e8e" stroke="black" points="1085.5,-36 844.5,-36 844.5,0 1085.5,0 1085.5,-36"/>
<text text-anchor="middle" x="965" y="-14.3" font-family="Arial" font-size="14.00">Add variety of plant and animal forms</text>
</g>
<!-- n9&#45;&gt;n11 -->
<g id="edge14" class="edge">
<title>n9&#45;&gt;n11</title>
<path fill="none" stroke="black" d="M840.99,-123.06C865.47,-102.52 908.25,-66.62 936.6,-42.83"/>
<polygon fill="black" stroke="black" points="939.13,-45.28 944.54,-36.17 934.63,-39.92 939.13,-45.28"/>
</g>
</g>
</svg>
