<?xml version="1.0" encoding="UTF-8" standalone="no"?>
<!DOCTYPE svg PUBLIC "-//W3C//DTD SVG 1.1//EN"
 "http://www.w3.org/Graphics/SVG/1.1/DTD/svg11.dtd">
<!-- Generated by graphviz version 2.43.0 (0)
 -->
<!-- Pages: 1 -->
<svg width="1969pt" height="410pt"
 viewBox="0.00 0.00 1969.00 410.00" xmlns="http://www.w3.org/2000/svg" xmlns:xlink="http://www.w3.org/1999/xlink">
<g id="graph0" class="graph" transform="scale(1 1) rotate(0) translate(4 406)">
<polygon fill="white" stroke="transparent" points="-4,4 -4,-406 1965,-406 1965,4 -4,4"/>
<!-- n1 -->
<g id="node1" class="node">
<title>n1</title>
<polygon fill="lightblue" stroke="black" points="1050.37,-384 907.69,-402 622.31,-402 479.63,-384 622.31,-366 907.69,-366 1050.37,-384"/>
<text text-anchor="middle" x="765" y="-380.3" font-family="Arial" font-size="14.00">Draw animals in their habitats with labels (e.g., fish in water).</text>
</g>
<!-- n2 -->
<g id="node2" class="node">
<title>n2</title>
<polygon fill="#fffdd0" stroke="black" points="260,-280 0,-280 0,-244 260,-244 260,-280"/>
<text text-anchor="middle" x="130" y="-258.3" font-family="Arial" font-size="14.00">Blue ocean with a labeled fish swimming</text>
</g>
<!-- n1&#45;&gt;n2 -->
<g id="edge1" class="edge">
<title>n1&#45;&gt;n2</title>
<path fill="none" stroke="black" d="M675.03,-366C557.56,-343.8 352.54,-305.05 230.21,-281.94"/>
<polygon fill="black" stroke="black" points="230.58,-278.45 220.1,-280.03 229.28,-285.33 230.58,-278.45"/>
</g>
<!-- n4 -->
<g id="node3" class="node">
<title>n4</title>
<polygon fill="#fffdd0" stroke="black" points="829.5,-280 328.5,-280 328.5,-244 829.5,-244 829.5,-280"/>
<text text-anchor="middle" x="579" y="-258.3" font-family="Arial" font-size="14.00">Green forest with trees, a labeled deer on the ground, and a labeled bird in a tree</text>
</g>
<!-- n1&#45;&gt;n4 -->
<g id="edge2" class="edge">
<title>n1&#45;&gt;n4</title>
<path fill="none" stroke="black" d="M738.35,-365.81C705.75,-344.78 650.47,-309.11 614.35,-285.8"/>
<polygon fill="black" stroke="black" points="615.9,-282.64 605.6,-280.16 612.11,-288.52 615.9,-282.64"/>
</g>
<!-- n7 -->
<g id="node4" class="node">
<title>n7</title>
<polygon fill="#fffdd0" stroke="black" points="1014,-280 888,-280 888,-244 1014,-244 1014,-280"/>
<text text-anchor="middle" x="951" y="-258.3" font-family="Arial" font-size="14.00">Brown soil labeled</text>
</g>
<!-- n1&#45;&gt;n7 -->
<g id="edge3" class="edge">
<title>n1&#45;&gt;n7</title>
<path fill="none" stroke="black" d="M791.65,-365.81C824.25,-344.78 879.53,-309.11 915.65,-285.8"/>
<polygon fill="black" stroke="black" points="917.89,-288.52 924.4,-280.16 914.1,-282.64 917.89,-288.52"/>
</g>
<!-- n9 -->
<g id="node5" class="node">
<title>n9</title>
<polygon fill="#fffdd0" stroke="black" points="1659,-280 1143,-280 1143,-244 1659,-244 1659,-280"/>
<text text-anchor="middle" x="1401" y="-258.3" font-family="Arial" font-size="14.00">Desert scene with orange and red sand, a labeled cactus, and sun labeled &#39;sunlight&#39;</text>
</g>
<!-- n1&#45;&gt;n9 -->
<g id="edge4" class="edge">
<title>n1&#45;&gt;n9</title>
<path fill="none" stroke="black" d="M855.11,-366C972.77,-343.8 1178.1,-305.05 1300.6,-281.94"/>
<polygon fill="black" stroke="black" points="1301.62,-285.31 1310.8,-280.03 1300.33,-278.43 1301.62,-285.31"/>
</g>
<!-- n3 -->
<g id="node6" class="node">
<title>n3</title>
<path fill="palegreen" stroke="black" d="M202.5,-158C202.5,-158 35.5,-158 35.5,-158 29.5,-158 23.5,-152 23.5,-146 23.5,-146 23.5,-134 23.5,-134 23.5,-128 29.5,-122 35.5,-122 35.5,-122 202.5,-122 202.5,-122 208.5,-122 214.5,-128 214.5,-134 214.5,-134 214.5,-146 214.5,-146 214.5,-152 208.5,-158 202.5,-158"/>
<text text-anchor="middle" x="119" y="-136.3" font-family="Arial" font-size="14.00">Fish correctly shown in water</text>
</g>
<!-- n2&#45;&gt;n3 -->
<g id="edge5" class="edge">
<title>n2&#45;&gt;n3</title>
<path fill="none" stroke="black" d="M128.42,-243.81C126.62,-224.11 123.64,-191.58 121.51,-168.39"/>
<polygon fill="black" stroke="black" points="124.97,-167.8 120.57,-158.16 118,-168.44 124.97,-167.8"/>
</g>
<!-- n5 -->
<g id="node7" class="node">
<title>n5</title>
<path fill="palegreen" stroke="black" d="M479,-158C479,-158 285,-158 285,-158 279,-158 273,-152 273,-146 273,-146 273,-134 273,-134 273,-128 279,-122 285,-122 285,-122 479,-122 479,-122 485,-122 491,-128 491,-134 491,-134 491,-146 491,-146 491,-152 485,-158 479,-158"/>
<text text-anchor="middle" x="382" y="-136.3" font-family="Arial" font-size="14.00">Deer correctly shown in the forest</text>
</g>
<!-- n4&#45;&gt;n5 -->
<g id="edge6" class="edge">
<title>n4&#45;&gt;n5</title>
<path fill="none" stroke="black" d="M550.77,-243.81C516.1,-222.69 457.2,-186.81 418.95,-163.51"/>
<polygon fill="black" stroke="black" points="420.53,-160.37 410.17,-158.16 416.89,-166.35 420.53,-160.37"/>
</g>
<!-- n6 -->
<g id="node8" class="node">
<title>n6</title>
<path fill="palegreen" stroke="black" d="M723,-158C723,-158 561,-158 561,-158 555,-158 549,-152 549,-146 549,-146 549,-134 549,-134 549,-128 555,-122 561,-122 561,-122 723,-122 723,-122 729,-122 735,-128 735,-134 735,-134 735,-146 735,-146 735,-152 729,-158 723,-158"/>
<text text-anchor="middle" x="642" y="-136.3" font-family="Arial" font-size="14.00">Bird correctly shown in trees</text>
</g>
<!-- n4&#45;&gt;n6 -->
<g id="edge7" class="edge">
<title>n4&#45;&gt;n6</title>
<path fill="none" stroke="black" d="M588.03,-243.81C598.55,-223.76 616.06,-190.4 628.28,-167.14"/>
<polygon fill="black" stroke="black" points="631.44,-168.64 632.99,-158.16 625.25,-165.39 631.44,-168.64"/>
</g>
<!-- n8 -->
<g id="node9" class="node">
<title>n8</title>
<path fill="palegreen" stroke="black" d="M1096.5,-158C1096.5,-158 805.5,-158 805.5,-158 799.5,-158 793.5,-152 793.5,-146 793.5,-146 793.5,-134 793.5,-134 793.5,-128 799.5,-122 805.5,-122 805.5,-122 1096.5,-122 1096.5,-122 1102.5,-122 1108.5,-128 1108.5,-134 1108.5,-134 1108.5,-146 1108.5,-146 1108.5,-152 1102.5,-158 1096.5,-158"/>
<text text-anchor="middle" x="951" y="-136.3" font-family="Arial" font-size="14.00">Correctly labels soil as necessary ground element</text>
</g>
<!-- n7&#45;&gt;n8 -->
<g id="edge8" class="edge">
<title>n7&#45;&gt;n8</title>
<path fill="none" stroke="black" d="M951,-243.81C951,-224.11 951,-191.58 951,-168.39"/>
<polygon fill="black" stroke="black" points="954.5,-168.16 951,-158.16 947.5,-168.16 954.5,-168.16"/>
</g>
<!-- n10 -->
<g id="node10" class="node">
<title>n10</title>
<polygon fill="lightcoral" stroke="black" points="1401,-158 1166.5,-140 1401,-122 1635.5,-140 1401,-158"/>
<text text-anchor="middle" x="1401" y="-136.3" font-family="Arial" font-size="14.00">Mislabels sand instead of soil for cactus</text>
</g>
<!-- n9&#45;&gt;n10 -->
<g id="edge9" class="edge">
<title>n9&#45;&gt;n10</title>
<path fill="none" stroke="black" d="M1401,-243.81C1401,-224.11 1401,-191.58 1401,-168.39"/>
<polygon fill="black" stroke="black" points="1404.5,-168.16 1401,-158.16 1397.5,-168.16 1404.5,-168.16"/>
</g>
<!-- n12 -->
<g id="node11" class="node">
<title>n12</title>
<path fill="palegreen" stroke="black" d="M1949,-158C1949,-158 1705,-158 1705,-158 1699,-158 1693,-152 1693,-146 1693,-146 1693,-134 1693,-134 1693,-128 1699,-122 1705,-122 1705,-122 1949,-122 1949,-122 1955,-122 1961,-128 1961,-134 1961,-134 1961,-146 1961,-146 1961,-152 1955,-158 1949,-158"/>
<text text-anchor="middle" x="1827" y="-136.3" font-family="Arial" font-size="14.00">Correctly illustrates plant need for sunlight</text>
</g>
<!-- n9&#45;&gt;n12 -->
<g id="edge10" class="edge">
<title>n9&#45;&gt;n12</title>
<path fill="none" stroke="black" d="M1461.6,-243.93C1539.5,-221.99 1674.6,-183.94 1756.9,-160.76"/>
<polygon fill="black" stroke="black" points="1757.93,-164.1 1766.6,-158.01 1756.02,-157.37 1757.93,-164.1"/>
</g>
<!-- n11 -->
<g id="node12" class="node">
<title>n11</title>
<polygon fill="#f28e8e" stroke="black" points="1582,-36 1220,-36 1220,0 1582,0 1582,-36"/>
<text text-anchor="middle" x="1401" y="-14.3" font-family="Arial" font-size="14.00">Remember to label soil in desert scenes for plant habitats</text>
</g>
<!-- n10&#45;&gt;n11 -->
<g id="edge11" class="edge">
<title>n10&#45;&gt;n11</title>
<path fill="none" stroke="black" d="M1401,-121.81C1401,-102.11 1401,-69.58 1401,-46.39"/>
<polygon fill="black" stroke="black" points="1404.5,-46.16 1401,-36.16 1397.5,-46.16 1404.5,-46.16"/>
</g>
</g>
</svg>
