<?xml version="1.0" encoding="UTF-8" standalone="no"?>
<!DOCTYPE svg PUBLIC "-//W3C//DTD SVG 1.1//EN"
 "http://www.w3.org/Graphics/SVG/1.1/DTD/svg11.dtd">
<!-- Generated by graphviz version 2.43.0 (0)
 -->
<!-- Pages: 1 -->
<svg width="2585pt" height="410pt"
 viewBox="0.00 0.00 2584.50 410.00" xmlns="http://www.w3.org/2000/svg" xmlns:xlink="http://www.w3.org/1999/xlink">
<g id="graph0" class="graph" transform="scale(1 1) rotate(0) translate(4 406)">
<polygon fill="white" stroke="transparent" points="-4,4 -4,-406 2580.5,-406 2580.5,4 -4,4"/>
<!-- n1 -->
<g id="node1" class="node">
<title>n1</title>
<polygon fill="lightblue" stroke="black" points="1513,-384 1421.75,-402 1239.25,-402 1148,-384 1239.25,-366 1421.75,-366 1513,-384"/>
<text text-anchor="middle" x="1330.5" y="-380.3" font-family="Arial" font-size="14.00">Draw a fish in their habitat with labels.</text>
</g>
<!-- n2 -->
<g id="node2" class="node">
<title>n2</title>
<polygon fill="#fffdd0" stroke="black" points="360,-280 163,-280 163,-244 360,-244 360,-280"/>
<text text-anchor="middle" x="261.5" y="-258.3" font-family="Arial" font-size="14.00">Fish with gills, fins, and scales</text>
</g>
<!-- n1&#45;&gt;n2 -->
<g id="edge1" class="edge">
<title>n1&#45;&gt;n2</title>
<path fill="none" stroke="black" d="M1217.4,-370.3C1010.5,-347.08 573.76,-298.05 370.2,-275.2"/>
<polygon fill="black" stroke="black" points="370.43,-271.7 360.1,-274.07 369.65,-278.66 370.43,-271.7"/>
</g>
<!-- n3 -->
<g id="node3" class="node">
<title>n3</title>
<polygon fill="#fffdd0" stroke="black" points="651,-280 462,-280 462,-244 651,-244 651,-280"/>
<text text-anchor="middle" x="556.5" y="-258.3" font-family="Arial" font-size="14.00">Underwater plants and algae</text>
</g>
<!-- n1&#45;&gt;n3 -->
<g id="edge2" class="edge">
<title>n1&#45;&gt;n3</title>
<path fill="none" stroke="black" d="M1230.9,-367.56C1084.1,-344.8 810.99,-302.46 661.3,-279.25"/>
<polygon fill="black" stroke="black" points="661.6,-275.75 651.18,-277.68 660.53,-282.67 661.6,-275.75"/>
</g>
<!-- n4 -->
<g id="node4" class="node">
<title>n4</title>
<polygon fill="#fffdd0" stroke="black" points="1090.5,-280 870.5,-280 870.5,-244 1090.5,-244 1090.5,-280"/>
<text text-anchor="middle" x="980.5" y="-258.3" font-family="Arial" font-size="14.00">Rocks labeled as food and shelter</text>
</g>
<!-- n1&#45;&gt;n4 -->
<g id="edge3" class="edge">
<title>n1&#45;&gt;n4</title>
<path fill="none" stroke="black" d="M1280.7,-365.93C1217.2,-344.16 1107.5,-306.56 1039.8,-283.33"/>
<polygon fill="black" stroke="black" points="1040.69,-279.94 1030.1,-280.01 1038.43,-286.56 1040.69,-279.94"/>
</g>
<!-- n5 -->
<g id="node5" class="node">
<title>n5</title>
<polygon fill="#fffdd0" stroke="black" points="1427.5,-280 1233.5,-280 1233.5,-244 1427.5,-244 1427.5,-280"/>
<text text-anchor="middle" x="1330.5" y="-258.3" font-family="Arial" font-size="14.00">Water surface with wavy lines</text>
</g>
<!-- n1&#45;&gt;n5 -->
<g id="edge4" class="edge">
<title>n1&#45;&gt;n5</title>
<path fill="none" stroke="black" d="M1330.5,-365.81C1330.5,-346.11 1330.5,-313.58 1330.5,-290.39"/>
<polygon fill="black" stroke="black" points="1334,-290.16 1330.5,-280.16 1327,-290.16 1334,-290.16"/>
</g>
<!-- n6 -->
<g id="node6" class="node">
<title>n6</title>
<polygon fill="#fffdd0" stroke="black" points="1777,-280 1536,-280 1536,-244 1777,-244 1777,-280"/>
<text text-anchor="middle" x="1656.5" y="-258.3" font-family="Arial" font-size="14.00">Overhanging branches casting shade</text>
</g>
<!-- n1&#45;&gt;n6 -->
<g id="edge5" class="edge">
<title>n1&#45;&gt;n6</title>
<path fill="none" stroke="black" d="M1376.9,-365.93C1435.9,-344.21 1537.8,-306.71 1600.9,-283.47"/>
<polygon fill="black" stroke="black" points="1602.12,-286.75 1610.3,-280.01 1599.71,-280.18 1602.12,-286.75"/>
</g>
<!-- n7 -->
<g id="node7" class="node">
<title>n7</title>
<polygon fill="#fffdd0" stroke="black" points="2102.5,-280 1904.5,-280 1904.5,-244 2102.5,-244 2102.5,-280"/>
<text text-anchor="middle" x="2003.5" y="-258.3" font-family="Arial" font-size="14.00">Smaller fish swimming nearby</text>
</g>
<!-- n1&#45;&gt;n7 -->
<g id="edge6" class="edge">
<title>n1&#45;&gt;n7</title>
<path fill="none" stroke="black" d="M1423.7,-366.38C1548.1,-344.21 1767.6,-305.07 1897.9,-281.83"/>
<polygon fill="black" stroke="black" points="1898.67,-285.25 1907.9,-280.05 1897.44,-278.36 1898.67,-285.25"/>
</g>
<!-- n8 -->
<g id="node8" class="node">
<title>n8</title>
<polygon fill="#fffdd0" stroke="black" points="2434,-280 2249,-280 2249,-244 2434,-244 2434,-280"/>
<text text-anchor="middle" x="2341.5" y="-258.3" font-family="Arial" font-size="14.00">Insects on the water surface</text>
</g>
<!-- n1&#45;&gt;n8 -->
<g id="edge7" class="edge">
<title>n1&#45;&gt;n8</title>
<path fill="none" stroke="black" d="M1441.6,-369.81C1638.9,-346.4 2047.6,-297.89 2238.7,-275.2"/>
<polygon fill="black" stroke="black" points="2239.28,-278.66 2248.8,-274 2238.46,-271.7 2239.28,-278.66"/>
</g>
<!-- n9 -->
<g id="node9" class="node">
<title>n9</title>
<path fill="palegreen" stroke="black" d="M269,-158C269,-158 12,-158 12,-158 6,-158 0,-152 0,-146 0,-146 0,-134 0,-134 0,-128 6,-122 12,-122 12,-122 269,-122 269,-122 275,-122 281,-128 281,-134 281,-134 281,-146 281,-146 281,-152 275,-158 269,-158"/>
<text text-anchor="middle" x="140.5" y="-136.3" font-family="Arial" font-size="14.00">Fish accurately placed in water environment</text>
</g>
<!-- n2&#45;&gt;n9 -->
<g id="edge8" class="edge">
<title>n2&#45;&gt;n9</title>
<path fill="none" stroke="black" d="M244.16,-243.81C223.41,-223.22 188.51,-188.61 165,-165.3"/>
<polygon fill="black" stroke="black" points="167.37,-162.72 157.8,-158.16 162.44,-167.69 167.37,-162.72"/>
</g>
<!-- n10 -->
<g id="node10" class="node">
<title>n10</title>
<path fill="palegreen" stroke="black" d="M610,-158C610,-158 351,-158 351,-158 345,-158 339,-152 339,-146 339,-146 339,-134 339,-134 339,-128 345,-122 351,-122 351,-122 610,-122 610,-122 616,-122 622,-128 622,-134 622,-134 622,-146 622,-146 622,-152 616,-158 610,-158"/>
<text text-anchor="middle" x="480.5" y="-136.3" font-family="Arial" font-size="14.00">Plants and algae provide oxygen and habitat</text>
</g>
<!-- n3&#45;&gt;n10 -->
<g id="edge9" class="edge">
<title>n3&#45;&gt;n10</title>
<path fill="none" stroke="black" d="M545.61,-243.81C532.86,-223.67 511.6,-190.1 496.86,-166.83"/>
<polygon fill="black" stroke="black" points="499.68,-164.74 491.37,-158.16 493.76,-168.48 499.68,-164.74"/>
</g>
<!-- n11 -->
<g id="node11" class="node">
<title>n11</title>
<polygon fill="lightcoral" stroke="black" points="895.5,-158 680.33,-140 895.5,-122 1110.67,-140 895.5,-158"/>
<text text-anchor="middle" x="895.5" y="-136.3" font-family="Arial" font-size="14.00">Rocks indicating shelter but not food</text>
</g>
<!-- n4&#45;&gt;n11 -->
<g id="edge10" class="edge">
<title>n4&#45;&gt;n11</title>
<path fill="none" stroke="black" d="M968.32,-243.81C953.83,-223.35 929.53,-189.04 913.02,-165.73"/>
<polygon fill="black" stroke="black" points="915.75,-163.53 907.11,-157.39 910.04,-167.57 915.75,-163.53"/>
</g>
<!-- n13 -->
<g id="node12" class="node">
<title>n13</title>
<path fill="palegreen" stroke="black" d="M1480,-158C1480,-158 1181,-158 1181,-158 1175,-158 1169,-152 1169,-146 1169,-146 1169,-134 1169,-134 1169,-128 1175,-122 1181,-122 1181,-122 1480,-122 1480,-122 1486,-122 1492,-128 1492,-134 1492,-134 1492,-146 1492,-146 1492,-152 1486,-158 1480,-158"/>
<text text-anchor="middle" x="1330.5" y="-136.3" font-family="Arial" font-size="14.00">Water surface detail shows environment interaction</text>
</g>
<!-- n5&#45;&gt;n13 -->
<g id="edge11" class="edge">
<title>n5&#45;&gt;n13</title>
<path fill="none" stroke="black" d="M1330.5,-243.81C1330.5,-224.11 1330.5,-191.58 1330.5,-168.39"/>
<polygon fill="black" stroke="black" points="1334,-168.16 1330.5,-158.16 1327,-168.16 1334,-168.16"/>
</g>
<!-- n14 -->
<g id="node13" class="node">
<title>n14</title>
<path fill="palegreen" stroke="black" d="M1851,-158C1851,-158 1562,-158 1562,-158 1556,-158 1550,-152 1550,-146 1550,-146 1550,-134 1550,-134 1550,-128 1556,-122 1562,-122 1562,-122 1851,-122 1851,-122 1857,-122 1863,-128 1863,-134 1863,-134 1863,-146 1863,-146 1863,-152 1857,-158 1851,-158"/>
<text text-anchor="middle" x="1706.5" y="-136.3" font-family="Arial" font-size="14.00">Shaded areas demonstrate understanding of light</text>
</g>
<!-- n6&#45;&gt;n14 -->
<g id="edge12" class="edge">
<title>n6&#45;&gt;n14</title>
<path fill="none" stroke="black" d="M1663.7,-243.81C1672,-223.85 1685.8,-190.7 1695.5,-167.45"/>
<polygon fill="black" stroke="black" points="1698.75,-168.74 1699.3,-158.16 1692.27,-166.09 1698.75,-168.74"/>
</g>
<!-- n15 -->
<g id="node14" class="node">
<title>n15</title>
<path fill="palegreen" stroke="black" d="M2214,-158C2214,-158 1933,-158 1933,-158 1927,-158 1921,-152 1921,-146 1921,-146 1921,-134 1921,-134 1921,-128 1927,-122 1933,-122 1933,-122 2214,-122 2214,-122 2220,-122 2226,-128 2226,-134 2226,-134 2226,-146 2226,-146 2226,-152 2220,-158 2214,-158"/>
<text text-anchor="middle" x="2073.5" y="-136.3" font-family="Arial" font-size="14.00">Other fish show understanding of shared habitat</text>
</g>
<!-- n7&#45;&gt;n15 -->
<g id="edge13" class="edge">
<title>n7&#45;&gt;n15</title>
<path fill="none" stroke="black" d="M2013.5,-243.81C2025.3,-223.67 2044.9,-190.1 2058.4,-166.83"/>
<polygon fill="black" stroke="black" points="2061.45,-168.55 2063.5,-158.16 2055.41,-165 2061.45,-168.55"/>
</g>
<!-- n16 -->
<g id="node15" class="node">
<title>n16</title>
<path fill="palegreen" stroke="black" d="M2564.5,-158C2564.5,-158 2296.5,-158 2296.5,-158 2290.5,-158 2284.5,-152 2284.5,-146 2284.5,-146 2284.5,-134 2284.5,-134 2284.5,-128 2290.5,-122 2296.5,-122 2296.5,-122 2564.5,-122 2564.5,-122 2570.5,-122 2576.5,-128 2576.5,-134 2576.5,-134 2576.5,-146 2576.5,-146 2576.5,-152 2570.5,-158 2564.5,-158"/>
<text text-anchor="middle" x="2430.5" y="-136.3" font-family="Arial" font-size="14.00">Insects reflect an understanding of ecosystem</text>
</g>
<!-- n8&#45;&gt;n16 -->
<g id="edge14" class="edge">
<title>n8&#45;&gt;n16</title>
<path fill="none" stroke="black" d="M2354.3,-243.81C2369.3,-223.49 2394.5,-189.51 2411.8,-166.21"/>
<polygon fill="black" stroke="black" points="2414.63,-168.27 2417.8,-158.16 2409.02,-164.09 2414.63,-168.27"/>
</g>
<!-- n12 -->
<g id="node16" class="node">
<title>n12</title>
<polygon fill="#f28e8e" stroke="black" points="1032,-36 759,-36 759,0 1032,0 1032,-36"/>
<text text-anchor="middle" x="895.5" y="-14.3" font-family="Arial" font-size="14.00">Suggest: Explain rocks for shelter, not food</text>
</g>
<!-- n11&#45;&gt;n12 -->
<g id="edge15" class="edge">
<title>n11&#45;&gt;n12</title>
<path fill="none" stroke="black" d="M895.5,-121.81C895.5,-102.11 895.5,-69.58 895.5,-46.39"/>
<polygon fill="black" stroke="black" points="899,-46.16 895.5,-36.16 892,-46.16 899,-46.16"/>
</g>
</g>
</svg>
