<?xml version="1.0" encoding="UTF-8" standalone="no"?>
<!DOCTYPE svg PUBLIC "-//W3C//DTD SVG 1.1//EN"
 "http://www.w3.org/Graphics/SVG/1.1/DTD/svg11.dtd">
<!-- Generated by graphviz version 2.43.0 (0)
 -->
<!-- Pages: 1 -->
<svg width="1818pt" height="410pt"
 viewBox="0.00 0.00 1817.50 410.00" xmlns="http://www.w3.org/2000/svg" xmlns:xlink="http://www.w3.org/1999/xlink">
<g id="graph0" class="graph" transform="scale(1 1) rotate(0) translate(4 406)">
<polygon fill="white" stroke="transparent" points="-4,4 -4,-406 1813.5,-406 1813.5,4 -4,4"/>
<!-- n1 -->
<g id="node1" class="node">
<title>n1</title>
<polygon fill="lightblue" stroke="black" points="1071,-384 979.75,-402 797.25,-402 706,-384 797.25,-366 979.75,-366 1071,-384"/>
<text text-anchor="middle" x="888.5" y="-380.3" font-family="Arial" font-size="14.00">Draw reversible changes (ice melting)</text>
</g>
<!-- n2 -->
<g id="node2" class="node">
<title>n2</title>
<polygon fill="#fffdd0" stroke="black" points="391,-280 0,-280 0,-244 391,-244 391,-280"/>
<text text-anchor="middle" x="195.5" y="-258.3" font-family="Arial" font-size="14.00">Large cube of ice, shaded light blue, with sharp, straight edges</text>
</g>
<!-- n1&#45;&gt;n2 -->
<g id="edge1" class="edge">
<title>n1&#45;&gt;n2</title>
<path fill="none" stroke="black" d="M793.96,-366.63C666.04,-344.48 438.4,-305.06 303.77,-281.75"/>
<polygon fill="black" stroke="black" points="304.29,-278.29 293.84,-280.03 303.1,-285.19 304.29,-278.29"/>
</g>
<!-- n3 -->
<g id="node3" class="node">
<title>n3</title>
<polygon fill="#fffdd0" stroke="black" points="743.5,-280 449.5,-280 449.5,-244 743.5,-244 743.5,-280"/>
<text text-anchor="middle" x="596.5" y="-258.3" font-family="Arial" font-size="14.00">Wavy lines representing water in a darker blue</text>
</g>
<!-- n1&#45;&gt;n3 -->
<g id="edge2" class="edge">
<title>n1&#45;&gt;n3</title>
<path fill="none" stroke="black" d="M846.97,-365.93C794.43,-344.34 703.98,-307.17 647.36,-283.9"/>
<polygon fill="black" stroke="black" points="648.46,-280.57 637.88,-280.01 645.8,-287.04 648.46,-280.57"/>
</g>
<!-- n4 -->
<g id="node4" class="node">
<title>n4</title>
<polygon fill="#fffdd0" stroke="black" points="975.5,-280 801.5,-280 801.5,-244 975.5,-244 975.5,-280"/>
<text text-anchor="middle" x="888.5" y="-258.3" font-family="Arial" font-size="14.00">Second light blue ice cube</text>
</g>
<!-- n1&#45;&gt;n4 -->
<g id="edge3" class="edge">
<title>n1&#45;&gt;n4</title>
<path fill="none" stroke="black" d="M888.5,-365.81C888.5,-346.11 888.5,-313.58 888.5,-290.39"/>
<polygon fill="black" stroke="black" points="892,-290.16 888.5,-280.16 885,-290.16 892,-290.16"/>
</g>
<!-- n5 -->
<g id="node5" class="node">
<title>n5</title>
<polygon fill="#fffdd0" stroke="black" points="1277.5,-280 1083.5,-280 1083.5,-244 1277.5,-244 1277.5,-280"/>
<text text-anchor="middle" x="1180.5" y="-258.3" font-family="Arial" font-size="14.00">&#39;Melting&#39; and &#39;Freezing&#39; labels</text>
</g>
<!-- n1&#45;&gt;n5 -->
<g id="edge4" class="edge">
<title>n1&#45;&gt;n5</title>
<path fill="none" stroke="black" d="M930.03,-365.93C982.57,-344.34 1073,-307.17 1129.6,-283.9"/>
<polygon fill="black" stroke="black" points="1131.17,-287.04 1139.1,-280.01 1128.52,-280.56 1131.17,-287.04"/>
</g>
<!-- n6 -->
<g id="node6" class="node">
<title>n6</title>
<polygon fill="#fffdd0" stroke="black" points="1732,-280 1413,-280 1413,-244 1732,-244 1732,-280"/>
<text text-anchor="middle" x="1572.5" y="-258.3" font-family="Arial" font-size="14.00">Arrows colored red for heating and blue for cooling</text>
</g>
<!-- n1&#45;&gt;n6 -->
<g id="edge5" class="edge">
<title>n1&#45;&gt;n6</title>
<path fill="none" stroke="black" d="M982.53,-366.5C1108.8,-344.35 1332.5,-305.1 1465.2,-281.82"/>
<polygon fill="black" stroke="black" points="1466.15,-285.21 1475.4,-280.04 1464.95,-278.31 1466.15,-285.21"/>
</g>
<!-- n7 -->
<g id="node7" class="node">
<title>n7</title>
<path fill="palegreen" stroke="black" d="M320.5,-158C320.5,-158 70.5,-158 70.5,-158 64.5,-158 58.5,-152 58.5,-146 58.5,-146 58.5,-134 58.5,-134 58.5,-128 64.5,-122 70.5,-122 70.5,-122 320.5,-122 320.5,-122 326.5,-122 332.5,-128 332.5,-134 332.5,-134 332.5,-146 332.5,-146 332.5,-152 326.5,-158 320.5,-158"/>
<text text-anchor="middle" x="195.5" y="-136.3" font-family="Arial" font-size="14.00">Understanding of solid state characteristics</text>
</g>
<!-- n2&#45;&gt;n7 -->
<g id="edge6" class="edge">
<title>n2&#45;&gt;n7</title>
<path fill="none" stroke="black" d="M195.5,-243.81C195.5,-224.11 195.5,-191.58 195.5,-168.39"/>
<polygon fill="black" stroke="black" points="199,-168.16 195.5,-158.16 192,-168.16 199,-168.16"/>
</g>
<!-- n8 -->
<g id="node8" class="node">
<title>n8</title>
<path fill="palegreen" stroke="black" d="M673.5,-158C673.5,-158 431.5,-158 431.5,-158 425.5,-158 419.5,-152 419.5,-146 419.5,-146 419.5,-134 419.5,-134 419.5,-128 425.5,-122 431.5,-122 431.5,-122 673.5,-122 673.5,-122 679.5,-122 685.5,-128 685.5,-134 685.5,-134 685.5,-146 685.5,-146 685.5,-152 679.5,-158 673.5,-158"/>
<text text-anchor="middle" x="552.5" y="-136.3" font-family="Arial" font-size="14.00">Understanding of liquid state after melting</text>
</g>
<!-- n3&#45;&gt;n8 -->
<g id="edge7" class="edge">
<title>n3&#45;&gt;n8</title>
<path fill="none" stroke="black" d="M590.2,-243.81C582.91,-223.94 570.83,-190.99 562.31,-167.76"/>
<polygon fill="black" stroke="black" points="565.52,-166.34 558.79,-158.16 558.95,-168.75 565.52,-166.34"/>
</g>
<!-- n9 -->
<g id="node9" class="node">
<title>n9</title>
<path fill="palegreen" stroke="black" d="M961.5,-158C961.5,-158 755.5,-158 755.5,-158 749.5,-158 743.5,-152 743.5,-146 743.5,-146 743.5,-134 743.5,-134 743.5,-128 749.5,-122 755.5,-122 755.5,-122 961.5,-122 961.5,-122 967.5,-122 973.5,-128 973.5,-134 973.5,-134 973.5,-146 973.5,-146 973.5,-152 967.5,-158 961.5,-158"/>
<text text-anchor="middle" x="858.5" y="-136.3" font-family="Arial" font-size="14.00">Understanding of reversible change</text>
</g>
<!-- n4&#45;&gt;n9 -->
<g id="edge8" class="edge">
<title>n4&#45;&gt;n9</title>
<path fill="none" stroke="black" d="M884.2,-243.81C879.26,-224.02 871.07,-191.29 865.27,-168.08"/>
<polygon fill="black" stroke="black" points="868.61,-167.01 862.79,-158.16 861.82,-168.71 868.61,-167.01"/>
</g>
<!-- n10 -->
<g id="node10" class="node">
<title>n10</title>
<polygon fill="lightcoral" stroke="black" points="1260.5,-158 1031.5,-140 1260.5,-122 1489.5,-140 1260.5,-158"/>
<text text-anchor="middle" x="1260.5" y="-136.3" font-family="Arial" font-size="14.00">Correct labeling and process indication</text>
</g>
<!-- n5&#45;&gt;n10 -->
<g id="edge9" class="edge">
<title>n5&#45;&gt;n10</title>
<path fill="none" stroke="black" d="M1192,-243.81C1205.6,-223.35 1228.5,-189.04 1244,-165.73"/>
<polygon fill="black" stroke="black" points="1246.93,-167.64 1249.6,-157.39 1241.12,-163.74 1246.93,-167.64"/>
</g>
<!-- n11 -->
<g id="node11" class="node">
<title>n11</title>
<path fill="palegreen" stroke="black" d="M1797.5,-158C1797.5,-158 1559.5,-158 1559.5,-158 1553.5,-158 1547.5,-152 1547.5,-146 1547.5,-146 1547.5,-134 1547.5,-134 1547.5,-128 1553.5,-122 1559.5,-122 1559.5,-122 1797.5,-122 1797.5,-122 1803.5,-122 1809.5,-128 1809.5,-134 1809.5,-134 1809.5,-146 1809.5,-146 1809.5,-152 1803.5,-158 1797.5,-158"/>
<text text-anchor="middle" x="1678.5" y="-136.3" font-family="Arial" font-size="14.00">Correct use of arrows to indicate process</text>
</g>
<!-- n6&#45;&gt;n11 -->
<g id="edge10" class="edge">
<title>n6&#45;&gt;n11</title>
<path fill="none" stroke="black" d="M1587.7,-243.81C1605.7,-223.4 1635.9,-189.21 1656.5,-165.91"/>
<polygon fill="black" stroke="black" points="1659.34,-167.99 1663.3,-158.16 1654.07,-163.37 1659.34,-167.99"/>
</g>
<!-- n12 -->
<g id="node12" class="node">
<title>n12</title>
<polygon fill="#f28e8e" stroke="black" points="1386,-36 1135,-36 1135,0 1386,0 1386,-36"/>
<text text-anchor="middle" x="1260.5" y="-14.3" font-family="Arial" font-size="14.00">Review label accuracy and consistency</text>
</g>
<!-- n10&#45;&gt;n12 -->
<g id="edge11" class="edge">
<title>n10&#45;&gt;n12</title>
<path fill="none" stroke="black" d="M1260.5,-121.81C1260.5,-102.11 1260.5,-69.58 1260.5,-46.39"/>
<polygon fill="black" stroke="black" points="1264,-46.16 1260.5,-36.16 1257,-46.16 1264,-46.16"/>
</g>
</g>
</svg>
