<?xml version="1.0" encoding="UTF-8" standalone="no"?>
<!DOCTYPE svg PUBLIC "-//W3C//DTD SVG 1.1//EN"
 "http://www.w3.org/Graphics/SVG/1.1/DTD/svg11.dtd">
<!-- Generated by graphviz version 2.43.0 (0)
 -->
<!-- Pages: 1 -->
<svg width="1792pt" height="410pt"
 viewBox="0.00 0.00 1791.50 410.00" xmlns="http://www.w3.org/2000/svg" xmlns:xlink="http://www.w3.org/1999/xlink">
<g id="graph0" class="graph" transform="scale(1 1) rotate(0) translate(4 406)">
<polygon fill="white" stroke="transparent" points="-4,4 -4,-406 1787.5,-406 1787.5,4 -4,4"/>
<!-- n1 -->
<g id="node1" class="node">
<title>n1</title>
<polygon fill="lightblue" stroke="black" points="915,-384 823.75,-402 641.25,-402 550,-384 641.25,-366 823.75,-366 915,-384"/>
<text text-anchor="middle" x="732.5" y="-380.3" font-family="Arial" font-size="14.00">Draw a fish in their habitat with labels.</text>
</g>
<!-- n2 -->
<g id="node2" class="node">
<title>n2</title>
<polygon fill="#fffdd0" stroke="black" points="271.5,-280 139.5,-280 139.5,-244 271.5,-244 271.5,-280"/>
<text text-anchor="middle" x="205.5" y="-258.3" font-family="Arial" font-size="14.00">A fish labeled &#39;Fish&#39;</text>
</g>
<!-- n1&#45;&gt;n2 -->
<g id="edge1" class="edge">
<title>n1&#45;&gt;n2</title>
<path fill="none" stroke="black" d="M657.83,-366C557.94,-343.25 381.78,-303.14 281.31,-280.26"/>
<polygon fill="black" stroke="black" points="282.06,-276.84 271.53,-278.04 280.51,-283.67 282.06,-276.84"/>
</g>
<!-- n3 -->
<g id="node3" class="node">
<title>n3</title>
<polygon fill="#fffdd0" stroke="black" points="540,-280 379,-280 379,-244 540,-244 540,-280"/>
<text text-anchor="middle" x="459.5" y="-258.3" font-family="Arial" font-size="14.00">Blue watery background</text>
</g>
<!-- n1&#45;&gt;n3 -->
<g id="edge2" class="edge">
<title>n1&#45;&gt;n3</title>
<path fill="none" stroke="black" d="M693.68,-365.93C644.65,-344.39 560.34,-307.32 507.38,-284.04"/>
<polygon fill="black" stroke="black" points="508.75,-280.82 498.19,-280.01 505.94,-287.23 508.75,-280.82"/>
</g>
<!-- n4 -->
<g id="node4" class="node">
<title>n4</title>
<polygon fill="#fffdd0" stroke="black" points="836,-280 629,-280 629,-244 836,-244 836,-280"/>
<text text-anchor="middle" x="732.5" y="-258.3" font-family="Arial" font-size="14.00">Green seaweed labeled &#39;Plants&#39;</text>
</g>
<!-- n1&#45;&gt;n4 -->
<g id="edge3" class="edge">
<title>n1&#45;&gt;n4</title>
<path fill="none" stroke="black" d="M732.5,-365.81C732.5,-346.11 732.5,-313.58 732.5,-290.39"/>
<polygon fill="black" stroke="black" points="736,-290.16 732.5,-280.16 729,-290.16 736,-290.16"/>
</g>
<!-- n5 -->
<g id="node5" class="node">
<title>n5</title>
<polygon fill="#fffdd0" stroke="black" points="1145.5,-280 973.5,-280 973.5,-244 1145.5,-244 1145.5,-280"/>
<text text-anchor="middle" x="1059.5" y="-258.3" font-family="Arial" font-size="14.00">Light brown sandy bottom</text>
</g>
<!-- n1&#45;&gt;n5 -->
<g id="edge4" class="edge">
<title>n1&#45;&gt;n5</title>
<path fill="none" stroke="black" d="M779,-365.93C838.21,-344.21 940.39,-306.71 1003.7,-283.47"/>
<polygon fill="black" stroke="black" points="1005,-286.72 1013.2,-280.01 1002.61,-280.14 1005,-286.72"/>
</g>
<!-- n6 -->
<g id="node6" class="node">
<title>n6</title>
<polygon fill="#fffdd0" stroke="black" points="1577.5,-280 1343.5,-280 1343.5,-244 1577.5,-244 1577.5,-280"/>
<text text-anchor="middle" x="1460.5" y="-258.3" font-family="Arial" font-size="14.00">Smaller fish and a crab (not labeled)</text>
</g>
<!-- n1&#45;&gt;n6 -->
<g id="edge5" class="edge">
<title>n1&#45;&gt;n6</title>
<path fill="none" stroke="black" d="M829.17,-367.06C963.17,-344.98 1204.9,-305.14 1347.2,-281.68"/>
<polygon fill="black" stroke="black" points="1348,-285.1 1357.3,-280.02 1346.86,-278.19 1348,-285.1"/>
</g>
<!-- n7 -->
<g id="node7" class="node">
<title>n7</title>
<path fill="palegreen" stroke="black" d="M239,-158C239,-158 12,-158 12,-158 6,-158 0,-152 0,-146 0,-146 0,-134 0,-134 0,-128 6,-122 12,-122 12,-122 239,-122 239,-122 245,-122 251,-128 251,-134 251,-134 251,-146 251,-146 251,-152 245,-158 239,-158"/>
<text text-anchor="middle" x="125.5" y="-136.3" font-family="Arial" font-size="14.00">Draws a fish and labels it as an animal.</text>
</g>
<!-- n2&#45;&gt;n7 -->
<g id="edge6" class="edge">
<title>n2&#45;&gt;n7</title>
<path fill="none" stroke="black" d="M194.04,-243.81C180.55,-223.58 158.04,-189.81 142.51,-166.52"/>
<polygon fill="black" stroke="black" points="145.4,-164.54 136.94,-158.16 139.57,-168.42 145.4,-164.54"/>
</g>
<!-- n8 -->
<g id="node8" class="node">
<title>n8</title>
<path fill="palegreen" stroke="black" d="M536,-158C536,-158 321,-158 321,-158 315,-158 309,-152 309,-146 309,-146 309,-134 309,-134 309,-128 315,-122 321,-122 321,-122 536,-122 536,-122 542,-122 548,-128 548,-134 548,-134 548,-146 548,-146 548,-152 542,-158 536,-158"/>
<text text-anchor="middle" x="428.5" y="-136.3" font-family="Arial" font-size="14.00">Draws and labels parts of the habitat.</text>
</g>
<!-- n3&#45;&gt;n8 -->
<g id="edge7" class="edge">
<title>n3&#45;&gt;n8</title>
<path fill="none" stroke="black" d="M455.06,-243.81C449.95,-224.02 441.49,-191.29 435.49,-168.08"/>
<polygon fill="black" stroke="black" points="438.82,-166.97 432.93,-158.16 432.04,-168.72 438.82,-166.97"/>
</g>
<!-- n9 -->
<g id="node9" class="node">
<title>n9</title>
<path fill="palegreen" stroke="black" d="M847,-158C847,-158 618,-158 618,-158 612,-158 606,-152 606,-146 606,-146 606,-134 606,-134 606,-128 612,-122 618,-122 618,-122 847,-122 847,-122 853,-122 859,-128 859,-134 859,-134 859,-146 859,-146 859,-152 853,-158 847,-158"/>
<text text-anchor="middle" x="732.5" y="-136.3" font-family="Arial" font-size="14.00">Draws living components of the habitat.</text>
</g>
<!-- n4&#45;&gt;n9 -->
<g id="edge8" class="edge">
<title>n4&#45;&gt;n9</title>
<path fill="none" stroke="black" d="M732.5,-243.81C732.5,-224.11 732.5,-191.58 732.5,-168.39"/>
<polygon fill="black" stroke="black" points="736,-168.16 732.5,-158.16 729,-168.16 736,-168.16"/>
</g>
<!-- n11 -->
<g id="node10" class="node">
<title>n11</title>
<polygon fill="lightcoral" stroke="black" points="1139.5,-158 917,-140 1139.5,-122 1362,-140 1139.5,-158"/>
<text text-anchor="middle" x="1139.5" y="-136.3" font-family="Arial" font-size="14.00">Lacks details on fish&#39;s survival needs.</text>
</g>
<!-- n5&#45;&gt;n11 -->
<g id="edge9" class="edge">
<title>n5&#45;&gt;n11</title>
<path fill="none" stroke="black" d="M1071,-243.81C1084.6,-223.35 1107.5,-189.04 1123,-165.73"/>
<polygon fill="black" stroke="black" points="1125.93,-167.64 1128.6,-157.39 1120.12,-163.74 1125.93,-167.64"/>
</g>
<!-- n10 -->
<g id="node11" class="node">
<title>n10</title>
<polygon fill="lightcoral" stroke="black" points="1601.5,-158 1419.5,-140 1601.5,-122 1783.5,-140 1601.5,-158"/>
<text text-anchor="middle" x="1601.5" y="-136.3" font-family="Arial" font-size="14.00">Does not label all living things.</text>
</g>
<!-- n6&#45;&gt;n10 -->
<g id="edge10" class="edge">
<title>n6&#45;&gt;n10</title>
<path fill="none" stroke="black" d="M1480.7,-243.81C1505.7,-222.55 1548.2,-186.32 1575.6,-163.04"/>
<polygon fill="black" stroke="black" points="1578.23,-165.4 1583.6,-156.26 1573.71,-160.06 1578.23,-165.4"/>
</g>
<!-- n13 -->
<g id="node12" class="node">
<title>n13</title>
<polygon fill="#f28e8e" stroke="black" points="1265.5,-36 1013.5,-36 1013.5,0 1265.5,0 1265.5,-36"/>
<text text-anchor="middle" x="1139.5" y="-14.3" font-family="Arial" font-size="14.00">Include details on how a fish finds food.</text>
</g>
<!-- n11&#45;&gt;n13 -->
<g id="edge11" class="edge">
<title>n11&#45;&gt;n13</title>
<path fill="none" stroke="black" d="M1139.5,-121.81C1139.5,-102.11 1139.5,-69.58 1139.5,-46.39"/>
<polygon fill="black" stroke="black" points="1143,-46.16 1139.5,-36.16 1136,-46.16 1143,-46.16"/>
</g>
<!-- n12 -->
<g id="node13" class="node">
<title>n12</title>
<polygon fill="#f28e8e" stroke="black" points="1709.5,-36 1493.5,-36 1493.5,0 1709.5,0 1709.5,-36"/>
<text text-anchor="middle" x="1601.5" y="-14.3" font-family="Arial" font-size="14.00">Consider labeling all living things.</text>
</g>
<!-- n10&#45;&gt;n12 -->
<g id="edge12" class="edge">
<title>n10&#45;&gt;n12</title>
<path fill="none" stroke="black" d="M1601.5,-121.81C1601.5,-102.11 1601.5,-69.58 1601.5,-46.39"/>
<polygon fill="black" stroke="black" points="1605,-46.16 1601.5,-36.16 1598,-46.16 1605,-46.16"/>
</g>
</g>
</svg>
