<?xml version="1.0" encoding="UTF-8" standalone="no"?>
<!DOCTYPE svg PUBLIC "-//W3C//DTD SVG 1.1//EN"
 "http://www.w3.org/Graphics/SVG/1.1/DTD/svg11.dtd">
<!-- Generated by graphviz version 2.43.0 (0)
 -->
<!-- Pages: 1 -->
<svg width="1600pt" height="410pt"
 viewBox="0.00 0.00 1599.50 410.00" xmlns="http://www.w3.org/2000/svg" xmlns:xlink="http://www.w3.org/1999/xlink">
<g id="graph0" class="graph" transform="scale(1 1) rotate(0) translate(4 406)">
<polygon fill="white" stroke="transparent" points="-4,4 -4,-406 1595.5,-406 1595.5,4 -4,4"/>
<!-- n1 -->
<g id="node1" class="node">
<title>n1</title>
<polygon fill="lightblue" stroke="black" points="776.32,-384 653.91,-402 409.09,-402 286.68,-384 409.09,-366 653.91,-366 776.32,-384"/>
<text text-anchor="middle" x="531.5" y="-380.3" font-family="Arial" font-size="14.00">Draw a habitat and the different living things in each</text>
</g>
<!-- n2 -->
<g id="node2" class="node">
<title>n2</title>
<polygon fill="#fffdd0" stroke="black" points="175,-280 0,-280 0,-244 175,-244 175,-280"/>
<text text-anchor="middle" x="87.5" y="-258.3" font-family="Arial" font-size="14.00">Forest habitat &#45; large trees</text>
</g>
<!-- n1&#45;&gt;n2 -->
<g id="edge1" class="edge">
<title>n1&#45;&gt;n2</title>
<path fill="none" stroke="black" d="M468.36,-365.93C386.98,-343.94 245.8,-305.78 160.08,-282.62"/>
<polygon fill="black" stroke="black" points="161,-279.24 150.43,-280.01 159.17,-286 161,-279.24"/>
</g>
<!-- n3 -->
<g id="node3" class="node">
<title>n3</title>
<polygon fill="#fffdd0" stroke="black" points="1071.5,-280 839.5,-280 839.5,-244 1071.5,-244 1071.5,-280"/>
<text text-anchor="middle" x="955.5" y="-258.3" font-family="Arial" font-size="14.00">Forest habitat &#45; squirrels, birds, ants</text>
</g>
<!-- n1&#45;&gt;n3 -->
<g id="edge2" class="edge">
<title>n1&#45;&gt;n3</title>
<path fill="none" stroke="black" d="M591.8,-365.93C669.35,-343.99 803.79,-305.94 885.69,-282.76"/>
<polygon fill="black" stroke="black" points="886.74,-286.1 895.41,-280.01 884.83,-279.36 886.74,-286.1"/>
</g>
<!-- n4 -->
<g id="node4" class="node">
<title>n4</title>
<polygon fill="#fffdd0" stroke="black" points="527.5,-280 233.5,-280 233.5,-244 527.5,-244 527.5,-280"/>
<text text-anchor="middle" x="380.5" y="-258.3" font-family="Arial" font-size="14.00">Garden habitat &#45; flowers, grass, water fountain</text>
</g>
<!-- n1&#45;&gt;n4 -->
<g id="edge3" class="edge">
<title>n1&#45;&gt;n4</title>
<path fill="none" stroke="black" d="M509.87,-365.81C483.63,-344.96 439.28,-309.71 409.94,-286.4"/>
<polygon fill="black" stroke="black" points="412.1,-283.64 402.09,-280.16 407.74,-289.12 412.1,-283.64"/>
</g>
<!-- n5 -->
<g id="node5" class="node">
<title>n5</title>
<polygon fill="#fffdd0" stroke="black" points="781.5,-280 585.5,-280 585.5,-244 781.5,-244 781.5,-280"/>
<text text-anchor="middle" x="683.5" y="-258.3" font-family="Arial" font-size="14.00">Garden habitat &#45; butterfly, bee</text>
</g>
<!-- n1&#45;&gt;n5 -->
<g id="edge4" class="edge">
<title>n1&#45;&gt;n5</title>
<path fill="none" stroke="black" d="M553.28,-365.81C579.69,-344.96 624.33,-309.71 653.86,-286.4"/>
<polygon fill="black" stroke="black" points="656.08,-289.1 661.76,-280.16 651.74,-283.61 656.08,-289.1"/>
</g>
<!-- n6 -->
<g id="node6" class="node">
<title>n6</title>
<path fill="palegreen" stroke="black" d="M349,-158C349,-158 26,-158 26,-158 20,-158 14,-152 14,-146 14,-146 14,-134 14,-134 14,-128 20,-122 26,-122 26,-122 349,-122 349,-122 355,-122 361,-128 361,-134 361,-134 361,-146 361,-146 361,-152 355,-158 349,-158"/>
<text text-anchor="middle" x="187.5" y="-136.3" font-family="Arial" font-size="14.00">Correct understanding of diverse plant types in habitats</text>
</g>
<!-- n2&#45;&gt;n6 -->
<g id="edge5" class="edge">
<title>n2&#45;&gt;n6</title>
<path fill="none" stroke="black" d="M101.83,-243.81C118.83,-223.4 147.32,-189.21 166.74,-165.91"/>
<polygon fill="black" stroke="black" points="169.49,-168.08 173.2,-158.16 164.11,-163.6 169.49,-168.08"/>
</g>
<!-- n7 -->
<g id="node7" class="node">
<title>n7</title>
<path fill="palegreen" stroke="black" d="M835.5,-158C835.5,-158 531.5,-158 531.5,-158 525.5,-158 519.5,-152 519.5,-146 519.5,-146 519.5,-134 519.5,-134 519.5,-128 525.5,-122 531.5,-122 531.5,-122 835.5,-122 835.5,-122 841.5,-122 847.5,-128 847.5,-134 847.5,-134 847.5,-146 847.5,-146 847.5,-152 841.5,-158 835.5,-158"/>
<text text-anchor="middle" x="683.5" y="-136.3" font-family="Arial" font-size="14.00">Correct understanding of animal diversity in habitats</text>
</g>
<!-- n3&#45;&gt;n7 -->
<g id="edge6" class="edge">
<title>n3&#45;&gt;n7</title>
<path fill="none" stroke="black" d="M916.82,-243.93C867.98,-222.39 783.97,-185.32 731.2,-162.04"/>
<polygon fill="black" stroke="black" points="732.61,-158.84 722.05,-158.01 729.79,-165.24 732.61,-158.84"/>
</g>
<!-- n8 -->
<g id="node8" class="node">
<title>n8</title>
<polygon fill="lightcoral" stroke="black" points="1248.5,-158 905.5,-140 1248.5,-122 1591.5,-140 1248.5,-158"/>
<text text-anchor="middle" x="1248.5" y="-136.3" font-family="Arial" font-size="14.00">Incomplete representation of interactions (e.g., food chains)</text>
</g>
<!-- n3&#45;&gt;n8 -->
<g id="edge7" class="edge">
<title>n3&#45;&gt;n8</title>
<path fill="none" stroke="black" d="M997.17,-243.93C1051.4,-221.73 1145.8,-183.05 1202.2,-159.96"/>
<polygon fill="black" stroke="black" points="1203.67,-163.14 1211.6,-156.11 1201.02,-156.66 1203.67,-163.14"/>
</g>
<!-- n4&#45;&gt;n6 -->
<g id="edge8" class="edge">
<title>n4&#45;&gt;n6</title>
<path fill="none" stroke="black" d="M352.85,-243.81C318.88,-222.69 261.17,-186.81 223.7,-163.51"/>
<polygon fill="black" stroke="black" points="225.44,-160.47 215.1,-158.16 221.74,-166.41 225.44,-160.47"/>
</g>
<!-- n5&#45;&gt;n7 -->
<g id="edge9" class="edge">
<title>n5&#45;&gt;n7</title>
<path fill="none" stroke="black" d="M683.5,-243.81C683.5,-224.11 683.5,-191.58 683.5,-168.39"/>
<polygon fill="black" stroke="black" points="687,-168.16 683.5,-158.16 680,-168.16 687,-168.16"/>
</g>
<!-- n9 -->
<g id="node9" class="node">
<title>n9</title>
<polygon fill="#f28e8e" stroke="black" points="1464,-36 1033,-36 1033,0 1464,0 1464,-36"/>
<text text-anchor="middle" x="1248.5" y="-14.3" font-family="Arial" font-size="14.00">Include more interactions among organisms (e.g., insects on flowers)</text>
</g>
<!-- n8&#45;&gt;n9 -->
<g id="edge10" class="edge">
<title>n8&#45;&gt;n9</title>
<path fill="none" stroke="black" d="M1248.5,-121.81C1248.5,-102.11 1248.5,-69.58 1248.5,-46.39"/>
<polygon fill="black" stroke="black" points="1252,-46.16 1248.5,-36.16 1245,-46.16 1252,-46.16"/>
</g>
</g>
</svg>
