<?xml version="1.0" encoding="UTF-8" standalone="no"?>
<!DOCTYPE svg PUBLIC "-//W3C//DTD SVG 1.1//EN"
 "http://www.w3.org/Graphics/SVG/1.1/DTD/svg11.dtd">
<!-- Generated by graphviz version 2.43.0 (0)
 -->
<!-- Pages: 1 -->
<svg width="1640pt" height="410pt"
 viewBox="0.00 0.00 1639.50 410.00" xmlns="http://www.w3.org/2000/svg" xmlns:xlink="http://www.w3.org/1999/xlink">
<g id="graph0" class="graph" transform="scale(1 1) rotate(0) translate(4 406)">
<polygon fill="white" stroke="transparent" points="-4,4 -4,-406 1635.5,-406 1635.5,4 -4,4"/>
<!-- n1 -->
<g id="node1" class="node">
<title>n1</title>
<polygon fill="lightblue" stroke="black" points="861,-384 769.75,-402 587.25,-402 496,-384 587.25,-366 769.75,-366 861,-384"/>
<text text-anchor="middle" x="678.5" y="-380.3" font-family="Arial" font-size="14.00">Draw reversible changes (ice melting)</text>
</g>
<!-- n2 -->
<g id="node2" class="node">
<title>n2</title>
<polygon fill="#fffdd0" stroke="black" points="287,-280 0,-280 0,-244 287,-244 287,-280"/>
<text text-anchor="middle" x="143.5" y="-258.3" font-family="Arial" font-size="14.00">Child&#39;s drawing shows a cube labeled as &#39;ice&#39;</text>
</g>
<!-- n1&#45;&gt;n2 -->
<g id="edge1" class="edge">
<title>n1&#45;&gt;n2</title>
<path fill="none" stroke="black" d="M602.7,-366C504.12,-343.89 332.38,-305.37 229.18,-282.22"/>
<polygon fill="black" stroke="black" points="229.93,-278.8 219.41,-280.03 228.4,-285.63 229.93,-278.8"/>
</g>
<!-- n4 -->
<g id="node3" class="node">
<title>n4</title>
<polygon fill="#fffdd0" stroke="black" points="674,-280 345,-280 345,-244 674,-244 674,-280"/>
<text text-anchor="middle" x="509.5" y="-258.3" font-family="Arial" font-size="14.00">Child&#39;s drawing shows water droplets labeled &#39;waetr&#39;</text>
</g>
<!-- n1&#45;&gt;n4 -->
<g id="edge2" class="edge">
<title>n1&#45;&gt;n4</title>
<path fill="none" stroke="black" d="M654.29,-365.81C624.79,-344.87 574.86,-309.41 542.03,-286.1"/>
<polygon fill="black" stroke="black" points="543.85,-283.1 533.67,-280.16 539.79,-288.81 543.85,-283.1"/>
</g>
<!-- n6 -->
<g id="node4" class="node">
<title>n6</title>
<polygon fill="#fffdd0" stroke="black" points="965,-280 732,-280 732,-244 965,-244 965,-280"/>
<text text-anchor="middle" x="848.5" y="-258.3" font-family="Arial" font-size="14.00">Arrows missing or incorrectly placed</text>
</g>
<!-- n1&#45;&gt;n6 -->
<g id="edge3" class="edge">
<title>n1&#45;&gt;n6</title>
<path fill="none" stroke="black" d="M702.86,-365.81C732.52,-344.87 782.75,-309.41 815.77,-286.1"/>
<polygon fill="black" stroke="black" points="818.04,-288.78 824.19,-280.16 814,-283.06 818.04,-288.78"/>
</g>
<!-- n9 -->
<g id="node5" class="node">
<title>n9</title>
<polygon fill="#fffdd0" stroke="black" points="1345,-280 1138,-280 1138,-244 1345,-244 1345,-280"/>
<text text-anchor="middle" x="1241.5" y="-258.3" font-family="Arial" font-size="14.00">No depiction of refreezing water</text>
</g>
<!-- n1&#45;&gt;n9 -->
<g id="edge4" class="edge">
<title>n1&#45;&gt;n9</title>
<path fill="none" stroke="black" d="M758.27,-366C862.11,-343.87 1043.1,-305.29 1151.7,-282.15"/>
<polygon fill="black" stroke="black" points="1152.55,-285.55 1161.6,-280.03 1151.09,-278.7 1152.55,-285.55"/>
</g>
<!-- n3 -->
<g id="node6" class="node">
<title>n3</title>
<path fill="palegreen" stroke="black" d="M229,-158C229,-158 58,-158 58,-158 52,-158 46,-152 46,-146 46,-146 46,-134 46,-134 46,-128 52,-122 58,-122 58,-122 229,-122 229,-122 235,-122 241,-128 241,-134 241,-134 241,-146 241,-146 241,-152 235,-158 229,-158"/>
<text text-anchor="middle" x="143.5" y="-136.3" font-family="Arial" font-size="14.00">Cube represented as solid ice</text>
</g>
<!-- n2&#45;&gt;n3 -->
<g id="edge5" class="edge">
<title>n2&#45;&gt;n3</title>
<path fill="none" stroke="black" d="M143.5,-243.81C143.5,-224.11 143.5,-191.58 143.5,-168.39"/>
<polygon fill="black" stroke="black" points="147,-168.16 143.5,-158.16 140,-168.16 147,-168.16"/>
</g>
<!-- n5 -->
<g id="node7" class="node">
<title>n5</title>
<path fill="palegreen" stroke="black" d="M601,-158C601,-158 394,-158 394,-158 388,-158 382,-152 382,-146 382,-146 382,-134 382,-134 382,-128 388,-122 394,-122 394,-122 601,-122 601,-122 607,-122 613,-128 613,-134 613,-134 613,-146 613,-146 613,-152 607,-158 601,-158"/>
<text text-anchor="middle" x="497.5" y="-136.3" font-family="Arial" font-size="14.00">Water droplets represent melted ice</text>
</g>
<!-- n4&#45;&gt;n5 -->
<g id="edge6" class="edge">
<title>n4&#45;&gt;n5</title>
<path fill="none" stroke="black" d="M507.78,-243.81C505.81,-224.11 502.56,-191.58 500.24,-168.39"/>
<polygon fill="black" stroke="black" points="503.69,-167.76 499.22,-158.16 496.73,-168.46 503.69,-167.76"/>
</g>
<!-- n7 -->
<g id="node8" class="node">
<title>n7</title>
<polygon fill="lightcoral" stroke="black" points="848.5,-158 671,-140 848.5,-122 1026,-140 848.5,-158"/>
<text text-anchor="middle" x="848.5" y="-136.3" font-family="Arial" font-size="14.00">Incorrect depiction of process</text>
</g>
<!-- n6&#45;&gt;n7 -->
<g id="edge7" class="edge">
<title>n6&#45;&gt;n7</title>
<path fill="none" stroke="black" d="M848.5,-243.81C848.5,-224.11 848.5,-191.58 848.5,-168.39"/>
<polygon fill="black" stroke="black" points="852,-168.16 848.5,-158.16 845,-168.16 852,-168.16"/>
</g>
<!-- n10 -->
<g id="node9" class="node">
<title>n10</title>
<polygon fill="lightcoral" stroke="black" points="1357.5,-158 1083.5,-140 1357.5,-122 1631.5,-140 1357.5,-158"/>
<text text-anchor="middle" x="1357.5" y="-136.3" font-family="Arial" font-size="14.00">Incomplete understanding of reversible change</text>
</g>
<!-- n9&#45;&gt;n10 -->
<g id="edge8" class="edge">
<title>n9&#45;&gt;n10</title>
<path fill="none" stroke="black" d="M1258.1,-243.81C1278.3,-222.96 1312.3,-187.74 1334.9,-164.42"/>
<polygon fill="black" stroke="black" points="1337.61,-166.65 1342,-157.01 1332.55,-161.81 1337.61,-166.65"/>
</g>
<!-- n8 -->
<g id="node10" class="node">
<title>n8</title>
<polygon fill="#f28e8e" stroke="black" points="996.5,-36 700.5,-36 700.5,0 996.5,0 996.5,-36"/>
<text text-anchor="middle" x="848.5" y="-14.3" font-family="Arial" font-size="14.00">Add arrows to show reversible melting process</text>
</g>
<!-- n7&#45;&gt;n8 -->
<g id="edge9" class="edge">
<title>n7&#45;&gt;n8</title>
<path fill="none" stroke="black" d="M848.5,-121.81C848.5,-102.11 848.5,-69.58 848.5,-46.39"/>
<polygon fill="black" stroke="black" points="852,-46.16 848.5,-36.16 845,-46.16 852,-46.16"/>
</g>
<!-- n11 -->
<g id="node11" class="node">
<title>n11</title>
<polygon fill="#f28e8e" stroke="black" points="1485.5,-36 1229.5,-36 1229.5,0 1485.5,0 1485.5,-36"/>
<text text-anchor="middle" x="1357.5" y="-14.3" font-family="Arial" font-size="14.00">Introduce concept of freezing in drawing</text>
</g>
<!-- n10&#45;&gt;n11 -->
<g id="edge10" class="edge">
<title>n10&#45;&gt;n11</title>
<path fill="none" stroke="black" d="M1357.5,-121.81C1357.5,-102.11 1357.5,-69.58 1357.5,-46.39"/>
<polygon fill="black" stroke="black" points="1361,-46.16 1357.5,-36.16 1354,-46.16 1361,-46.16"/>
</g>
</g>
</svg>
