<?xml version="1.0" encoding="UTF-8" standalone="no"?>
<!DOCTYPE svg PUBLIC "-//W3C//DTD SVG 1.1//EN"
 "http://www.w3.org/Graphics/SVG/1.1/DTD/svg11.dtd">
<!-- Generated by graphviz version 2.43.0 (0)
 -->
<!-- Pages: 1 -->
<svg width="2197pt" height="410pt"
 viewBox="0.00 0.00 2197.00 410.00" xmlns="http://www.w3.org/2000/svg" xmlns:xlink="http://www.w3.org/1999/xlink">
<g id="graph0" class="graph" transform="scale(1 1) rotate(0) translate(4 406)">
<polygon fill="white" stroke="transparent" points="-4,4 -4,-406 2193,-406 2193,4 -4,4"/>
<!-- n1 -->
<g id="node1" class="node">
<title>n1</title>
<polygon fill="lightblue" stroke="black" points="1465,-384 1353.5,-402 1130.5,-402 1019,-384 1130.5,-366 1353.5,-366 1465,-384"/>
<text text-anchor="middle" x="1242" y="-380.3" font-family="Arial" font-size="14.00">Draw a string telephone between two students.</text>
</g>
<!-- n2 -->
<g id="node2" class="node">
<title>n2</title>
<polygon fill="#fffdd0" stroke="black" points="811,-280 503,-280 503,-244 811,-244 811,-280"/>
<text text-anchor="middle" x="657" y="-258.3" font-family="Arial" font-size="14.00">Two children holding plastic cups to their mouths</text>
</g>
<!-- n1&#45;&gt;n2 -->
<g id="edge1" class="edge">
<title>n1&#45;&gt;n2</title>
<path fill="none" stroke="black" d="M1159.1,-366C1051.1,-343.84 862.77,-305.21 750,-282.08"/>
<polygon fill="black" stroke="black" points="750.5,-278.61 740,-280.03 749.09,-285.47 750.5,-278.61"/>
</g>
<!-- n3 -->
<g id="node3" class="node">
<title>n3</title>
<polygon fill="#fffdd0" stroke="black" points="1200.5,-280 979.5,-280 979.5,-244 1200.5,-244 1200.5,-280"/>
<text text-anchor="middle" x="1090" y="-258.3" font-family="Arial" font-size="14.00">String loosely connecting the cups</text>
</g>
<!-- n1&#45;&gt;n3 -->
<g id="edge2" class="edge">
<title>n1&#45;&gt;n3</title>
<path fill="none" stroke="black" d="M1220.2,-365.81C1193.8,-344.96 1149.2,-309.71 1119.6,-286.4"/>
<polygon fill="black" stroke="black" points="1121.72,-283.61 1111.7,-280.16 1117.38,-289.1 1121.72,-283.61"/>
</g>
<!-- n4 -->
<g id="node4" class="node">
<title>n4</title>
<polygon fill="#fffdd0" stroke="black" points="1529,-280 1259,-280 1259,-244 1529,-244 1529,-280"/>
<text text-anchor="middle" x="1394" y="-258.3" font-family="Arial" font-size="14.00">Children are smiling and facing each other</text>
</g>
<!-- n1&#45;&gt;n4 -->
<g id="edge3" class="edge">
<title>n1&#45;&gt;n4</title>
<path fill="none" stroke="black" d="M1263.8,-365.81C1290.2,-344.96 1334.8,-309.71 1364.4,-286.4"/>
<polygon fill="black" stroke="black" points="1366.62,-289.1 1372.3,-280.16 1362.28,-283.61 1366.62,-289.1"/>
</g>
<!-- n5 -->
<g id="node5" class="node">
<title>n5</title>
<polygon fill="#fffdd0" stroke="black" points="1925,-280 1587,-280 1587,-244 1925,-244 1925,-280"/>
<text text-anchor="middle" x="1756" y="-258.3" font-family="Arial" font-size="14.00">Colorful outdoor setting with green grass and blue sky</text>
</g>
<!-- n1&#45;&gt;n5 -->
<g id="edge4" class="edge">
<title>n1&#45;&gt;n5</title>
<path fill="none" stroke="black" d="M1314.8,-366C1409.3,-343.93 1573.9,-305.52 1673.1,-282.36"/>
<polygon fill="black" stroke="black" points="1674.16,-285.71 1683.1,-280.03 1672.57,-278.89 1674.16,-285.71"/>
</g>
<!-- n6 -->
<g id="node6" class="node">
<title>n6</title>
<path fill="palegreen" stroke="black" d="M382,-158C382,-158 12,-158 12,-158 6,-158 0,-152 0,-146 0,-146 0,-134 0,-134 0,-128 6,-122 12,-122 12,-122 382,-122 382,-122 388,-122 394,-128 394,-134 394,-134 394,-146 394,-146 394,-152 388,-158 382,-158"/>
<text text-anchor="middle" x="197" y="-136.3" font-family="Arial" font-size="14.00">Demonstrates two children communicating via string telephone</text>
</g>
<!-- n2&#45;&gt;n6 -->
<g id="edge5" class="edge">
<title>n2&#45;&gt;n6</title>
<path fill="none" stroke="black" d="M591.58,-243.93C507.19,-221.92 360.71,-183.71 271.93,-160.55"/>
<polygon fill="black" stroke="black" points="272.75,-157.15 262.19,-158.01 270.98,-163.92 272.75,-157.15"/>
</g>
<!-- n7 -->
<g id="node7" class="node">
<title>n7</title>
<polygon fill="lightcoral" stroke="black" points="740,-158 452.11,-140 740,-122 1027.89,-140 740,-158"/>
<text text-anchor="middle" x="740" y="-136.3" font-family="Arial" font-size="14.00">String should be tight for effective communication</text>
</g>
<!-- n3&#45;&gt;n7 -->
<g id="edge6" class="edge">
<title>n3&#45;&gt;n7</title>
<path fill="none" stroke="black" d="M1040.2,-243.93C974.3,-221.33 858.58,-181.66 791.7,-158.73"/>
<polygon fill="black" stroke="black" points="792.79,-155.41 782.2,-155.47 790.52,-162.03 792.79,-155.41"/>
</g>
<!-- n9 -->
<g id="node8" class="node">
<title>n9</title>
<polygon fill="lightcoral" stroke="black" points="1440,-158 1085,-140 1440,-122 1795,-140 1440,-158"/>
<text text-anchor="middle" x="1440" y="-136.3" font-family="Arial" font-size="14.00">Understanding tension&#39;s role in sound transmission is missing</text>
</g>
<!-- n3&#45;&gt;n9 -->
<g id="edge7" class="edge">
<title>n3&#45;&gt;n9</title>
<path fill="none" stroke="black" d="M1139.8,-243.93C1205.3,-221.45 1320.2,-182.09 1387.2,-159.1"/>
<polygon fill="black" stroke="black" points="1388.38,-162.39 1396.7,-155.83 1386.11,-155.78 1388.38,-162.39"/>
</g>
<!-- n8 -->
<g id="node9" class="node">
<title>n8</title>
<path fill="palegreen" stroke="black" d="M2177,-158C2177,-158 1865,-158 1865,-158 1859,-158 1853,-152 1853,-146 1853,-146 1853,-134 1853,-134 1853,-128 1859,-122 1865,-122 1865,-122 2177,-122 2177,-122 2183,-122 2189,-128 2189,-134 2189,-134 2189,-146 2189,-146 2189,-152 2183,-158 2177,-158"/>
<text text-anchor="middle" x="2021" y="-136.3" font-family="Arial" font-size="14.00">Illustrates communication without modern technology</text>
</g>
<!-- n4&#45;&gt;n8 -->
<g id="edge8" class="edge">
<title>n4&#45;&gt;n8</title>
<path fill="none" stroke="black" d="M1482.8,-244C1598.8,-221.8 1801.3,-183.05 1922,-159.94"/>
<polygon fill="black" stroke="black" points="1922.83,-163.34 1932,-158.03 1921.52,-156.47 1922.83,-163.34"/>
</g>
<!-- n10 -->
<g id="node10" class="node">
<title>n10</title>
<polygon fill="#f28e8e" stroke="black" points="1300.5,-36 879.5,-36 879.5,0 1300.5,0 1300.5,-36"/>
<text text-anchor="middle" x="1090" y="-14.3" font-family="Arial" font-size="14.00">Consider tightening the string to show effective sound transmission.</text>
</g>
<!-- n7&#45;&gt;n10 -->
<g id="edge9" class="edge">
<title>n7&#45;&gt;n10</title>
<path fill="none" stroke="black" d="M782.22,-124.53C844.21,-103.27 960.13,-63.53 1030.7,-39.34"/>
<polygon fill="black" stroke="black" points="1031.98,-42.6 1040.3,-36.04 1029.71,-35.99 1031.98,-42.6"/>
</g>
<!-- n9&#45;&gt;n10 -->
<g id="edge10" class="edge">
<title>n9&#45;&gt;n10</title>
<path fill="none" stroke="black" d="M1396.7,-124.17C1334.5,-102.81 1219.4,-63.35 1149.2,-39.31"/>
<polygon fill="black" stroke="black" points="1150.29,-35.99 1139.7,-36.02 1148.01,-42.6 1150.29,-35.99"/>
</g>
</g>
</svg>
