<?xml version="1.0" encoding="UTF-8" standalone="no"?>
<!DOCTYPE svg PUBLIC "-//W3C//DTD SVG 1.1//EN"
 "http://www.w3.org/Graphics/SVG/1.1/DTD/svg11.dtd">
<!-- Generated by graphviz version 2.43.0 (0)
 -->
<!-- Pages: 1 -->
<svg width="2032pt" height="410pt"
 viewBox="0.00 0.00 2031.50 410.00" xmlns="http://www.w3.org/2000/svg" xmlns:xlink="http://www.w3.org/1999/xlink">
<g id="graph0" class="graph" transform="scale(1 1) rotate(0) translate(4 406)">
<polygon fill="white" stroke="transparent" points="-4,4 -4,-406 2027.5,-406 2027.5,4 -4,4"/>
<!-- n1 -->
<g id="node1" class="node">
<title>n1</title>
<polygon fill="lightblue" stroke="black" points="1393.5,-384 1229.5,-402 901.5,-402 737.5,-384 901.5,-366 1229.5,-366 1393.5,-384"/>
<text text-anchor="middle" x="1065.5" y="-380.3" font-family="Arial" font-size="14.00">Draw reversible and irreversible changes (ice melting vs. egg cooking)</text>
</g>
<!-- n2 -->
<g id="node2" class="node">
<title>n2</title>
<polygon fill="#fffdd0" stroke="black" points="1033.5,-280 609.5,-280 609.5,-244 1033.5,-244 1033.5,-280"/>
<text text-anchor="middle" x="821.5" y="-258.3" font-family="Arial" font-size="14.00">Panel 1: Solid ice with arrow to melted water; arrow back to solid ice</text>
</g>
<!-- n1&#45;&gt;n2 -->
<g id="edge1" class="edge">
<title>n1&#45;&gt;n2</title>
<path fill="none" stroke="black" d="M1030.8,-365.93C987.26,-344.52 912.56,-307.78 865.18,-284.48"/>
<polygon fill="black" stroke="black" points="866.6,-281.28 856.08,-280.01 863.51,-287.56 866.6,-281.28"/>
</g>
<!-- n3 -->
<g id="node3" class="node">
<title>n3</title>
<polygon fill="#fffdd0" stroke="black" points="1582.5,-280 1144.5,-280 1144.5,-244 1582.5,-244 1582.5,-280"/>
<text text-anchor="middle" x="1363.5" y="-258.3" font-family="Arial" font-size="14.00">Panel 2: Raw egg with arrow to cooked egg; &#39;cannot be reversed&#39; label</text>
</g>
<!-- n1&#45;&gt;n3 -->
<g id="edge2" class="edge">
<title>n1&#45;&gt;n3</title>
<path fill="none" stroke="black" d="M1107.9,-365.93C1161.6,-344.3 1254.2,-307.02 1312,-283.76"/>
<polygon fill="black" stroke="black" points="1313.33,-287 1321.3,-280.01 1310.72,-280.5 1313.33,-287"/>
</g>
<!-- n4 -->
<g id="node4" class="node">
<title>n4</title>
<path fill="palegreen" stroke="black" d="M387,-158C387,-158 12,-158 12,-158 6,-158 0,-152 0,-146 0,-146 0,-134 0,-134 0,-128 6,-122 12,-122 12,-122 387,-122 387,-122 393,-122 399,-128 399,-134 399,-134 399,-146 399,-146 399,-152 393,-158 387,-158"/>
<text text-anchor="middle" x="199.5" y="-136.3" font-family="Arial" font-size="14.00">Accurately shows reversible change &#45; ice melting and refreezing</text>
</g>
<!-- n2&#45;&gt;n4 -->
<g id="edge3" class="edge">
<title>n2&#45;&gt;n4</title>
<path fill="none" stroke="black" d="M733.37,-244C618.3,-221.8 417.48,-183.05 297.66,-159.94"/>
<polygon fill="black" stroke="black" points="298.23,-156.49 287.75,-158.03 296.91,-163.36 298.23,-156.49"/>
</g>
<!-- n6 -->
<g id="node5" class="node">
<title>n6</title>
<path fill="palegreen" stroke="black" d="M1579,-158C1579,-158 1148,-158 1148,-158 1142,-158 1136,-152 1136,-146 1136,-146 1136,-134 1136,-134 1136,-128 1142,-122 1148,-122 1148,-122 1579,-122 1579,-122 1585,-122 1591,-128 1591,-134 1591,-134 1591,-146 1591,-146 1591,-152 1585,-158 1579,-158"/>
<text text-anchor="middle" x="1363.5" y="-136.3" font-family="Arial" font-size="14.00">Label usage reflects understanding of reversible and irreversible changes</text>
</g>
<!-- n2&#45;&gt;n6 -->
<g id="edge4" class="edge">
<title>n2&#45;&gt;n6</title>
<path fill="none" stroke="black" d="M898.29,-244C998.16,-221.89 1172.2,-183.37 1276.7,-160.22"/>
<polygon fill="black" stroke="black" points="1277.59,-163.61 1286.6,-158.03 1276.08,-156.77 1277.59,-163.61"/>
</g>
<!-- n7 -->
<g id="node6" class="node">
<title>n7</title>
<polygon fill="lightcoral" stroke="black" points="767.5,-158 456.65,-140 767.5,-122 1078.35,-140 767.5,-158"/>
<text text-anchor="middle" x="767.5" y="-136.3" font-family="Arial" font-size="14.00">Calls water state &#39;melted ice&#39; instead of &#39;melted water&#39;</text>
</g>
<!-- n2&#45;&gt;n7 -->
<g id="edge5" class="edge">
<title>n2&#45;&gt;n7</title>
<path fill="none" stroke="black" d="M813.76,-243.81C804.73,-223.73 789.69,-190.32 779.22,-167.06"/>
<polygon fill="black" stroke="black" points="782.34,-165.46 775.05,-157.77 775.95,-168.33 782.34,-165.46"/>
</g>
<!-- n3&#45;&gt;n6 -->
<g id="edge6" class="edge">
<title>n3&#45;&gt;n6</title>
<path fill="none" stroke="black" d="M1363.5,-243.81C1363.5,-224.11 1363.5,-191.58 1363.5,-168.39"/>
<polygon fill="black" stroke="black" points="1367,-168.16 1363.5,-158.16 1360,-168.16 1367,-168.16"/>
</g>
<!-- n5 -->
<g id="node7" class="node">
<title>n5</title>
<path fill="palegreen" stroke="black" d="M2011.5,-158C2011.5,-158 1661.5,-158 1661.5,-158 1655.5,-158 1649.5,-152 1649.5,-146 1649.5,-146 1649.5,-134 1649.5,-134 1649.5,-128 1655.5,-122 1661.5,-122 1661.5,-122 2011.5,-122 2011.5,-122 2017.5,-122 2023.5,-128 2023.5,-134 2023.5,-134 2023.5,-146 2023.5,-146 2023.5,-152 2017.5,-158 2011.5,-158"/>
<text text-anchor="middle" x="1836.5" y="-136.3" font-family="Arial" font-size="14.00">Correct depiction of irreversible change &#45; raw to cooked egg</text>
</g>
<!-- n3&#45;&gt;n5 -->
<g id="edge7" class="edge">
<title>n3&#45;&gt;n5</title>
<path fill="none" stroke="black" d="M1430.5,-244C1517.3,-221.98 1668.3,-183.68 1759.6,-160.5"/>
<polygon fill="black" stroke="black" points="1760.56,-163.87 1769.4,-158.03 1758.85,-157.08 1760.56,-163.87"/>
</g>
<!-- n8 -->
<g id="node8" class="node">
<title>n8</title>
<polygon fill="#f28e8e" stroke="black" points="959,-36 576,-36 576,0 959,0 959,-36"/>
<text text-anchor="middle" x="767.5" y="-14.3" font-family="Arial" font-size="14.00">Clarify terminology: Use &#39;melted water&#39; instead of &#39;melted ice&#39;</text>
</g>
<!-- n7&#45;&gt;n8 -->
<g id="edge8" class="edge">
<title>n7&#45;&gt;n8</title>
<path fill="none" stroke="black" d="M767.5,-121.81C767.5,-102.11 767.5,-69.58 767.5,-46.39"/>
<polygon fill="black" stroke="black" points="771,-46.16 767.5,-36.16 764,-46.16 771,-46.16"/>
</g>
</g>
</svg>
