<?xml version="1.0" encoding="UTF-8" standalone="no"?>
<!DOCTYPE svg PUBLIC "-//W3C//DTD SVG 1.1//EN"
 "http://www.w3.org/Graphics/SVG/1.1/DTD/svg11.dtd">
<!-- Generated by graphviz version 2.43.0 (0)
 -->
<!-- Pages: 1 -->
<svg width="1048pt" height="410pt"
 viewBox="0.00 0.00 1048.00 410.00" xmlns="http://www.w3.org/2000/svg" xmlns:xlink="http://www.w3.org/1999/xlink">
<g id="graph0" class="graph" transform="scale(1 1) rotate(0) translate(4 406)">
<polygon fill="white" stroke="transparent" points="-4,4 -4,-406 1044,-406 1044,4 -4,4"/>
<!-- n1 -->
<g id="node1" class="node">
<title>n1</title>
<polygon fill="lightblue" stroke="black" points="493.5,-384 401.5,-402 217.5,-402 125.5,-384 217.5,-366 401.5,-366 493.5,-384"/>
<text text-anchor="middle" x="309.5" y="-380.3" font-family="Arial" font-size="14.00">Illustrate plants with and without water</text>
</g>
<!-- n2 -->
<g id="node2" class="node">
<title>n2</title>
<polygon fill="#fffdd0" stroke="black" points="524.5,-280 334.5,-280 334.5,-244 524.5,-244 524.5,-280"/>
<text text-anchor="middle" x="429.5" y="-258.3" font-family="Arial" font-size="14.00">Two plants with green leaves</text>
</g>
<!-- n1&#45;&gt;n2 -->
<g id="edge1" class="edge">
<title>n1&#45;&gt;n2</title>
<path fill="none" stroke="black" d="M326.69,-365.81C347.27,-345.22 381.88,-310.61 405.2,-287.3"/>
<polygon fill="black" stroke="black" points="407.74,-289.71 412.34,-280.16 402.79,-284.76 407.74,-289.71"/>
</g>
<!-- n3 -->
<g id="node3" class="node">
<title>n3</title>
<polygon fill="#fffdd0" stroke="black" points="276,-280 103,-280 103,-244 276,-244 276,-280"/>
<text text-anchor="middle" x="189.5" y="-258.3" font-family="Arial" font-size="14.00">No water elements shown</text>
</g>
<!-- n1&#45;&gt;n3 -->
<g id="edge2" class="edge">
<title>n1&#45;&gt;n3</title>
<path fill="none" stroke="black" d="M292.3,-365.81C271.72,-345.22 237.11,-310.61 213.8,-287.3"/>
<polygon fill="black" stroke="black" points="216.21,-284.76 206.66,-280.16 211.26,-289.71 216.21,-284.76"/>
</g>
<!-- n4 -->
<g id="node4" class="node">
<title>n4</title>
<polygon fill="lightcoral" stroke="black" points="189.5,-158 0,-140 189.5,-122 379,-140 189.5,-158"/>
<text text-anchor="middle" x="189.5" y="-136.3" font-family="Arial" font-size="14.00">Plants need water to be healthy</text>
</g>
<!-- n2&#45;&gt;n4 -->
<g id="edge3" class="edge">
<title>n2&#45;&gt;n4</title>
<path fill="none" stroke="black" d="M395.37,-243.93C350.93,-221.72 273.51,-183.01 227.33,-159.92"/>
<polygon fill="black" stroke="black" points="228.76,-156.72 218.25,-155.38 225.63,-162.98 228.76,-156.72"/>
</g>
<!-- n5 -->
<g id="node5" class="node">
<title>n5</title>
<polygon fill="lightcoral" stroke="black" points="738.5,-158 437,-140 738.5,-122 1040,-140 738.5,-158"/>
<text text-anchor="middle" x="738.5" y="-136.3" font-family="Arial" font-size="14.00">No distinction between healthy and unhealthy plants</text>
</g>
<!-- n2&#45;&gt;n5 -->
<g id="edge4" class="edge">
<title>n2&#45;&gt;n5</title>
<path fill="none" stroke="black" d="M473.44,-243.93C531.05,-221.56 631.72,-182.46 691.03,-159.43"/>
<polygon fill="black" stroke="black" points="692.48,-162.62 700.53,-155.74 689.94,-156.1 692.48,-162.62"/>
</g>
<!-- n3&#45;&gt;n4 -->
<g id="edge5" class="edge">
<title>n3&#45;&gt;n4</title>
<path fill="none" stroke="black" d="M189.5,-243.81C189.5,-224.11 189.5,-191.58 189.5,-168.39"/>
<polygon fill="black" stroke="black" points="193,-168.16 189.5,-158.16 186,-168.16 193,-168.16"/>
</g>
<!-- n6 -->
<g id="node6" class="node">
<title>n6</title>
<polygon fill="#f28e8e" stroke="black" points="325.5,-36 53.5,-36 53.5,0 325.5,0 325.5,-36"/>
<text text-anchor="middle" x="189.5" y="-14.3" font-family="Arial" font-size="14.00">Include wilted or brown leaves for no water</text>
</g>
<!-- n4&#45;&gt;n6 -->
<g id="edge6" class="edge">
<title>n4&#45;&gt;n6</title>
<path fill="none" stroke="black" d="M189.5,-121.81C189.5,-102.11 189.5,-69.58 189.5,-46.39"/>
<polygon fill="black" stroke="black" points="193,-46.16 189.5,-36.16 186,-46.16 193,-46.16"/>
</g>
<!-- n7 -->
<g id="node7" class="node">
<title>n7</title>
<polygon fill="#f28e8e" stroke="black" points="901.5,-36 575.5,-36 575.5,0 901.5,0 901.5,-36"/>
<text text-anchor="middle" x="738.5" y="-14.3" font-family="Arial" font-size="14.00">Use water indicators like raindrops or watering cans</text>
</g>
<!-- n5&#45;&gt;n7 -->
<g id="edge7" class="edge">
<title>n5&#45;&gt;n7</title>
<path fill="none" stroke="black" d="M738.5,-121.81C738.5,-102.11 738.5,-69.58 738.5,-46.39"/>
<polygon fill="black" stroke="black" points="742,-46.16 738.5,-36.16 735,-46.16 742,-46.16"/>
</g>
</g>
</svg>
