<?xml version="1.0" encoding="UTF-8" standalone="no"?>
<!DOCTYPE svg PUBLIC "-//W3C//DTD SVG 1.1//EN"
 "http://www.w3.org/Graphics/SVG/1.1/DTD/svg11.dtd">
<!-- Generated by graphviz version 2.43.0 (0)
 -->
<!-- Pages: 1 -->
<svg width="1847pt" height="410pt"
 viewBox="0.00 0.00 1847.00 410.00" xmlns="http://www.w3.org/2000/svg" xmlns:xlink="http://www.w3.org/1999/xlink">
<g id="graph0" class="graph" transform="scale(1 1) rotate(0) translate(4 406)">
<polygon fill="white" stroke="transparent" points="-4,4 -4,-406 1843,-406 1843,4 -4,4"/>
<!-- n1 -->
<g id="node1" class="node">
<title>n1</title>
<polygon fill="lightblue" stroke="black" points="1367,-384 1257,-402 1037,-402 927,-384 1037,-366 1257,-366 1367,-384"/>
<text text-anchor="middle" x="1147" y="-380.3" font-family="Arial" font-size="14.00">Draw a string telephone between two students</text>
</g>
<!-- n2 -->
<g id="node2" class="node">
<title>n2</title>
<polygon fill="#fffdd0" stroke="black" points="436,-280 244,-280 244,-244 436,-244 436,-280"/>
<text text-anchor="middle" x="340" y="-258.3" font-family="Arial" font-size="14.00">Two students communicating</text>
</g>
<!-- n1&#45;&gt;n2 -->
<g id="edge1" class="edge">
<title>n1&#45;&gt;n2</title>
<path fill="none" stroke="black" d="M1034.8,-366.31C878.99,-343.15 599.14,-301.53 446.46,-278.83"/>
<polygon fill="black" stroke="black" points="446.55,-275.3 436.14,-277.3 445.52,-282.23 446.55,-275.3"/>
</g>
<!-- n3 -->
<g id="node3" class="node">
<title>n3</title>
<polygon fill="#fffdd0" stroke="black" points="880,-280 722,-280 722,-244 880,-244 880,-280"/>
<text text-anchor="middle" x="801" y="-258.3" font-family="Arial" font-size="14.00">String telephone device</text>
</g>
<!-- n1&#45;&gt;n3 -->
<g id="edge2" class="edge">
<title>n1&#45;&gt;n3</title>
<path fill="none" stroke="black" d="M1097.8,-365.93C1035,-344.16 926.59,-306.56 859.61,-283.33"/>
<polygon fill="black" stroke="black" points="860.63,-279.98 850.04,-280.01 858.34,-286.59 860.63,-279.98"/>
</g>
<!-- n4 -->
<g id="node4" class="node">
<title>n4</title>
<polygon fill="#fffdd0" stroke="black" points="1259,-280 1035,-280 1035,-244 1259,-244 1259,-280"/>
<text text-anchor="middle" x="1147" y="-258.3" font-family="Arial" font-size="14.00">Sound waves shown as wavy lines</text>
</g>
<!-- n1&#45;&gt;n4 -->
<g id="edge3" class="edge">
<title>n1&#45;&gt;n4</title>
<path fill="none" stroke="black" d="M1147,-365.81C1147,-346.11 1147,-313.58 1147,-290.39"/>
<polygon fill="black" stroke="black" points="1150.5,-290.16 1147,-280.16 1143.5,-290.16 1150.5,-290.16"/>
</g>
<!-- n5 -->
<g id="node5" class="node">
<title>n5</title>
<polygon fill="#fffdd0" stroke="black" points="1545,-280 1317,-280 1317,-244 1545,-244 1545,-280"/>
<text text-anchor="middle" x="1431" y="-258.3" font-family="Arial" font-size="14.00">Materials labeled &#45; &#39;cup&#39; and &#39;string&#39;</text>
</g>
<!-- n1&#45;&gt;n5 -->
<g id="edge4" class="edge">
<title>n1&#45;&gt;n5</title>
<path fill="none" stroke="black" d="M1187.4,-365.93C1238.5,-344.34 1326.5,-307.17 1381.5,-283.9"/>
<polygon fill="black" stroke="black" points="1382.93,-287.1 1390.8,-280.01 1380.22,-280.64 1382.93,-287.1"/>
</g>
<!-- n6 -->
<g id="node6" class="node">
<title>n6</title>
<polygon fill="#fffdd0" stroke="black" points="1820.5,-280 1605.5,-280 1605.5,-244 1820.5,-244 1820.5,-280"/>
<text text-anchor="middle" x="1713" y="-258.3" font-family="Arial" font-size="14.00">Outdoor setting with bright colors</text>
</g>
<!-- n1&#45;&gt;n6 -->
<g id="edge5" class="edge">
<title>n1&#45;&gt;n6</title>
<path fill="none" stroke="black" d="M1227.2,-366C1331.6,-343.87 1513.5,-305.29 1622.7,-282.15"/>
<polygon fill="black" stroke="black" points="1623.64,-285.53 1632.7,-280.03 1622.19,-278.68 1623.64,-285.53"/>
</g>
<!-- n7 -->
<g id="node7" class="node">
<title>n7</title>
<path fill="palegreen" stroke="black" d="M212,-158C212,-158 12,-158 12,-158 6,-158 0,-152 0,-146 0,-146 0,-134 0,-134 0,-128 6,-122 12,-122 12,-122 212,-122 212,-122 218,-122 224,-128 224,-134 224,-134 224,-146 224,-146 224,-152 218,-158 212,-158"/>
<text text-anchor="middle" x="112" y="-136.3" font-family="Arial" font-size="14.00">Illustrates distance communication</text>
</g>
<!-- n2&#45;&gt;n7 -->
<g id="edge6" class="edge">
<title>n2&#45;&gt;n7</title>
<path fill="none" stroke="black" d="M307.33,-243.81C266.87,-222.51 197.88,-186.2 153.65,-162.92"/>
<polygon fill="black" stroke="black" points="155.09,-159.72 144.61,-158.16 151.83,-165.92 155.09,-159.72"/>
</g>
<!-- n8 -->
<g id="node8" class="node">
<title>n8</title>
<path fill="palegreen" stroke="black" d="M516,-158C516,-158 294,-158 294,-158 288,-158 282,-152 282,-146 282,-146 282,-134 282,-134 282,-128 288,-122 294,-122 294,-122 516,-122 516,-122 522,-122 528,-128 528,-134 528,-134 528,-146 528,-146 528,-152 522,-158 516,-158"/>
<text text-anchor="middle" x="405" y="-136.3" font-family="Arial" font-size="14.00">Shows mechanism of string telephone</text>
</g>
<!-- n3&#45;&gt;n8 -->
<g id="edge7" class="edge">
<title>n3&#45;&gt;n8</title>
<path fill="none" stroke="black" d="M744.68,-243.93C672.55,-222.07 547.72,-184.25 471.14,-161.04"/>
<polygon fill="black" stroke="black" points="471.71,-157.55 461.12,-158.01 469.68,-164.25 471.71,-157.55"/>
</g>
<!-- n12 -->
<g id="node9" class="node">
<title>n12</title>
<polygon fill="lightcoral" stroke="black" points="801,-158 585.83,-140 801,-122 1016.17,-140 801,-158"/>
<text text-anchor="middle" x="801" y="-136.3" font-family="Arial" font-size="14.00">Lacks indication of tautness of string</text>
</g>
<!-- n3&#45;&gt;n12 -->
<g id="edge8" class="edge">
<title>n3&#45;&gt;n12</title>
<path fill="none" stroke="black" d="M801,-243.81C801,-224.11 801,-191.58 801,-168.39"/>
<polygon fill="black" stroke="black" points="804.5,-168.16 801,-158.16 797.5,-168.16 804.5,-168.16"/>
</g>
<!-- n9 -->
<g id="node10" class="node">
<title>n9</title>
<path fill="palegreen" stroke="black" d="M1259.5,-158C1259.5,-158 1086.5,-158 1086.5,-158 1080.5,-158 1074.5,-152 1074.5,-146 1074.5,-146 1074.5,-134 1074.5,-134 1074.5,-128 1080.5,-122 1086.5,-122 1086.5,-122 1259.5,-122 1259.5,-122 1265.5,-122 1271.5,-128 1271.5,-134 1271.5,-134 1271.5,-146 1271.5,-146 1271.5,-152 1265.5,-158 1259.5,-158"/>
<text text-anchor="middle" x="1173" y="-136.3" font-family="Arial" font-size="14.00">Sound traveling through string</text>
</g>
<!-- n4&#45;&gt;n9 -->
<g id="edge9" class="edge">
<title>n4&#45;&gt;n9</title>
<path fill="none" stroke="black" d="M1150.7,-243.81C1155,-224.02 1162.1,-191.29 1167.1,-168.08"/>
<polygon fill="black" stroke="black" points="1170.55,-168.68 1169.3,-158.16 1163.72,-167.16 1170.55,-168.68"/>
</g>
<!-- n10 -->
<g id="node11" class="node">
<title>n10</title>
<path fill="palegreen" stroke="black" d="M1520.5,-158C1520.5,-158 1341.5,-158 1341.5,-158 1335.5,-158 1329.5,-152 1329.5,-146 1329.5,-146 1329.5,-134 1329.5,-134 1329.5,-128 1335.5,-122 1341.5,-122 1341.5,-122 1520.5,-122 1520.5,-122 1526.5,-122 1532.5,-128 1532.5,-134 1532.5,-134 1532.5,-146 1532.5,-146 1532.5,-152 1526.5,-158 1520.5,-158"/>
<text text-anchor="middle" x="1431" y="-136.3" font-family="Arial" font-size="14.00">Understands labeling materials</text>
</g>
<!-- n5&#45;&gt;n10 -->
<g id="edge10" class="edge">
<title>n5&#45;&gt;n10</title>
<path fill="none" stroke="black" d="M1431,-243.81C1431,-224.11 1431,-191.58 1431,-168.39"/>
<polygon fill="black" stroke="black" points="1434.5,-168.16 1431,-158.16 1427.5,-168.16 1434.5,-168.16"/>
</g>
<!-- n11 -->
<g id="node12" class="node">
<title>n11</title>
<path fill="palegreen" stroke="black" d="M1827,-158C1827,-158 1603,-158 1603,-158 1597,-158 1591,-152 1591,-146 1591,-146 1591,-134 1591,-134 1591,-128 1597,-122 1603,-122 1603,-122 1827,-122 1827,-122 1833,-122 1839,-128 1839,-134 1839,-134 1839,-146 1839,-146 1839,-152 1833,-158 1827,-158"/>
<text text-anchor="middle" x="1715" y="-136.3" font-family="Arial" font-size="14.00">Engaging illustration enhances interest</text>
</g>
<!-- n6&#45;&gt;n11 -->
<g id="edge11" class="edge">
<title>n6&#45;&gt;n11</title>
<path fill="none" stroke="black" d="M1713.3,-243.81C1713.6,-224.11 1714.2,-191.58 1714.5,-168.39"/>
<polygon fill="black" stroke="black" points="1718,-168.23 1714.7,-158.16 1711.01,-168.09 1718,-168.23"/>
</g>
<!-- n13 -->
<g id="node13" class="node">
<title>n13</title>
<polygon fill="#f28e8e" stroke="black" points="891.5,-36 710.5,-36 710.5,0 891.5,0 891.5,-36"/>
<text text-anchor="middle" x="801" y="-14.3" font-family="Arial" font-size="14.00">Include tension in the string</text>
</g>
<!-- n12&#45;&gt;n13 -->
<g id="edge12" class="edge">
<title>n12&#45;&gt;n13</title>
<path fill="none" stroke="black" d="M801,-121.81C801,-102.11 801,-69.58 801,-46.39"/>
<polygon fill="black" stroke="black" points="804.5,-46.16 801,-36.16 797.5,-46.16 804.5,-46.16"/>
</g>
</g>
</svg>
