<?xml version="1.0" encoding="UTF-8" standalone="no"?>
<!DOCTYPE svg PUBLIC "-//W3C//DTD SVG 1.1//EN"
 "http://www.w3.org/Graphics/SVG/1.1/DTD/svg11.dtd">
<!-- Generated by graphviz version 2.43.0 (0)
 -->
<!-- Pages: 1 -->
<svg width="1305pt" height="288pt"
 viewBox="0.00 0.00 1305.00 288.00" xmlns="http://www.w3.org/2000/svg" xmlns:xlink="http://www.w3.org/1999/xlink">
<g id="graph0" class="graph" transform="scale(1 1) rotate(0) translate(4 284)">
<polygon fill="white" stroke="transparent" points="-4,4 -4,-284 1301,-284 1301,4 -4,4"/>
<!-- n1 -->
<g id="node1" class="node">
<title>n1</title>
<polygon fill="lightblue" stroke="black" points="953,-262 840.75,-280 616.25,-280 504,-262 616.25,-244 840.75,-244 953,-262"/>
<text text-anchor="middle" x="728.5" y="-258.3" font-family="Arial" font-size="14.00">Illustrate plants with and without water and light</text>
</g>
<!-- n2 -->
<g id="node2" class="node">
<title>n2</title>
<polygon fill="#fffdd0" stroke="black" points="485,-158 0,-158 0,-122 485,-122 485,-158"/>
<text text-anchor="middle" x="242.5" y="-136.3" font-family="Arial" font-size="14.00">Healthy plants with bright green leaves and colorful flowers under sun and rain</text>
</g>
<!-- n1&#45;&gt;n2 -->
<g id="edge1" class="edge">
<title>n1&#45;&gt;n2</title>
<path fill="none" stroke="black" d="M659.64,-244C570.37,-221.95 415.02,-183.6 321.18,-160.43"/>
<polygon fill="black" stroke="black" points="322.01,-157.03 311.46,-158.03 320.33,-163.83 322.01,-157.03"/>
</g>
<!-- n3 -->
<g id="node3" class="node">
<title>n3</title>
<polygon fill="#fffdd0" stroke="black" points="914,-158 543,-158 543,-122 914,-122 914,-158"/>
<text text-anchor="middle" x="728.5" y="-136.3" font-family="Arial" font-size="14.00">Wilted plants with drooping stems and brown&#45;edged leaves</text>
</g>
<!-- n1&#45;&gt;n3 -->
<g id="edge2" class="edge">
<title>n1&#45;&gt;n3</title>
<path fill="none" stroke="black" d="M728.5,-243.81C728.5,-224.11 728.5,-191.58 728.5,-168.39"/>
<polygon fill="black" stroke="black" points="732,-168.16 728.5,-158.16 725,-168.16 732,-168.16"/>
</g>
<!-- n4 -->
<g id="node4" class="node">
<title>n4</title>
<polygon fill="#fffdd0" stroke="black" points="1297,-158 972,-158 972,-122 1297,-122 1297,-158"/>
<text text-anchor="middle" x="1134.5" y="-136.3" font-family="Arial" font-size="14.00">Plants with pale yellow leaves and elongated stems</text>
</g>
<!-- n1&#45;&gt;n4 -->
<g id="edge3" class="edge">
<title>n1&#45;&gt;n4</title>
<path fill="none" stroke="black" d="M786.24,-243.93C860.35,-222.03 988.7,-184.09 1067.2,-160.9"/>
<polygon fill="black" stroke="black" points="1068.4,-164.2 1077,-158.01 1066.42,-157.48 1068.4,-164.2"/>
</g>
<!-- n5 -->
<g id="node5" class="node">
<title>n5</title>
<path fill="palegreen" stroke="black" d="M408.5,-36C408.5,-36 76.5,-36 76.5,-36 70.5,-36 64.5,-30 64.5,-24 64.5,-24 64.5,-12 64.5,-12 64.5,-6 70.5,0 76.5,0 76.5,0 408.5,0 408.5,0 414.5,0 420.5,-6 420.5,-12 420.5,-12 420.5,-24 420.5,-24 420.5,-30 414.5,-36 408.5,-36"/>
<text text-anchor="middle" x="242.5" y="-14.3" font-family="Arial" font-size="14.00">Represents healthy growth with adequate light and water</text>
</g>
<!-- n2&#45;&gt;n5 -->
<g id="edge4" class="edge">
<title>n2&#45;&gt;n5</title>
<path fill="none" stroke="black" d="M242.5,-121.81C242.5,-102.11 242.5,-69.58 242.5,-46.39"/>
<polygon fill="black" stroke="black" points="246,-46.16 242.5,-36.16 239,-46.16 246,-46.16"/>
</g>
<!-- n6 -->
<g id="node6" class="node">
<title>n6</title>
<path fill="palegreen" stroke="black" d="M876.5,-36C876.5,-36 580.5,-36 580.5,-36 574.5,-36 568.5,-30 568.5,-24 568.5,-24 568.5,-12 568.5,-12 568.5,-6 574.5,0 580.5,0 580.5,0 876.5,0 876.5,0 882.5,0 888.5,-6 888.5,-12 888.5,-12 888.5,-24 888.5,-24 888.5,-30 882.5,-36 876.5,-36"/>
<text text-anchor="middle" x="728.5" y="-14.3" font-family="Arial" font-size="14.00">Understands plants&#39; struggle without enough water</text>
</g>
<!-- n3&#45;&gt;n6 -->
<g id="edge5" class="edge">
<title>n3&#45;&gt;n6</title>
<path fill="none" stroke="black" d="M728.5,-121.81C728.5,-102.11 728.5,-69.58 728.5,-46.39"/>
<polygon fill="black" stroke="black" points="732,-46.16 728.5,-36.16 725,-46.16 732,-46.16"/>
</g>
<!-- n7 -->
<g id="node7" class="node">
<title>n7</title>
<path fill="palegreen" stroke="black" d="M1278,-36C1278,-36 991,-36 991,-36 985,-36 979,-30 979,-24 979,-24 979,-12 979,-12 979,-6 985,0 991,0 991,0 1278,0 1278,0 1284,0 1290,-6 1290,-12 1290,-12 1290,-24 1290,-24 1290,-30 1284,-36 1278,-36"/>
<text text-anchor="middle" x="1134.5" y="-14.3" font-family="Arial" font-size="14.00">Understands plants&#39; struggle without enough light</text>
</g>
<!-- n4&#45;&gt;n7 -->
<g id="edge6" class="edge">
<title>n4&#45;&gt;n7</title>
<path fill="none" stroke="black" d="M1134.5,-121.81C1134.5,-102.11 1134.5,-69.58 1134.5,-46.39"/>
<polygon fill="black" stroke="black" points="1138,-46.16 1134.5,-36.16 1131,-46.16 1138,-46.16"/>
</g>
</g>
</svg>
