<?xml version="1.0" encoding="UTF-8" standalone="no"?>
<!DOCTYPE svg PUBLIC "-//W3C//DTD SVG 1.1//EN"
 "http://www.w3.org/Graphics/SVG/1.1/DTD/svg11.dtd">
<!-- Generated by graphviz version 2.43.0 (0)
 -->
<!-- Pages: 1 -->
<svg width="2036pt" height="410pt"
 viewBox="0.00 0.00 2035.50 410.00" xmlns="http://www.w3.org/2000/svg" xmlns:xlink="http://www.w3.org/1999/xlink">
<g id="graph0" class="graph" transform="scale(1 1) rotate(0) translate(4 406)">
<polygon fill="white" stroke="transparent" points="-4,4 -4,-406 2031.5,-406 2031.5,4 -4,4"/>
<!-- n1 -->
<g id="node1" class="node">
<title>n1</title>
<polygon fill="lightblue" stroke="black" points="680.5,-384 566.75,-402 339.25,-402 225.5,-384 339.25,-366 566.75,-366 680.5,-384"/>
<text text-anchor="middle" x="453" y="-380.3" font-family="Arial" font-size="14.00">Illustrate plants with and without water and light.</text>
</g>
<!-- n2 -->
<g id="node2" class="node">
<title>n2</title>
<polygon fill="#fffdd0" stroke="black" points="460,-280 96,-280 96,-244 460,-244 460,-280"/>
<text text-anchor="middle" x="278" y="-258.3" font-family="Arial" font-size="14.00">Healthy plant with straight, green stem and vibrant leaves.</text>
</g>
<!-- n1&#45;&gt;n2 -->
<g id="edge1" class="edge">
<title>n1&#45;&gt;n2</title>
<path fill="none" stroke="black" d="M427.93,-365.81C397.39,-344.87 345.68,-309.41 311.69,-286.1"/>
<polygon fill="black" stroke="black" points="313.26,-282.93 303.03,-280.16 309.3,-288.7 313.26,-282.93"/>
</g>
<!-- n3 -->
<g id="node3" class="node">
<title>n3</title>
<polygon fill="#fffdd0" stroke="black" points="862.5,-280 641.5,-280 641.5,-244 862.5,-244 862.5,-280"/>
<text text-anchor="middle" x="752" y="-258.3" font-family="Arial" font-size="14.00">Wilting plant with drooping leaves.</text>
</g>
<!-- n1&#45;&gt;n3 -->
<g id="edge2" class="edge">
<title>n1&#45;&gt;n3</title>
<path fill="none" stroke="black" d="M495.52,-365.93C549.43,-344.3 642.32,-307.02 700.28,-283.76"/>
<polygon fill="black" stroke="black" points="701.64,-286.98 709.62,-280.01 699.04,-280.49 701.64,-286.98"/>
</g>
<!-- n4 -->
<g id="node4" class="node">
<title>n4</title>
<path fill="palegreen" stroke="black" d="M296,-158C296,-158 12,-158 12,-158 6,-158 0,-152 0,-146 0,-146 0,-134 0,-134 0,-128 6,-122 12,-122 12,-122 296,-122 296,-122 302,-122 308,-128 308,-134 308,-134 308,-146 308,-146 308,-152 302,-158 296,-158"/>
<text text-anchor="middle" x="154" y="-136.3" font-family="Arial" font-size="14.00">Understands healthy growth with water and light.</text>
</g>
<!-- n2&#45;&gt;n4 -->
<g id="edge3" class="edge">
<title>n2&#45;&gt;n4</title>
<path fill="none" stroke="black" d="M260.23,-243.81C238.96,-223.22 203.2,-188.61 179.11,-165.3"/>
<polygon fill="black" stroke="black" points="181.35,-162.6 171.73,-158.16 176.48,-167.63 181.35,-162.6"/>
</g>
<!-- n5 -->
<g id="node5" class="node">
<title>n5</title>
<polygon fill="lightcoral" stroke="black" points="752,-158 365.91,-140 752,-122 1138.09,-140 752,-158"/>
<text text-anchor="middle" x="752" y="-136.3" font-family="Arial" font-size="14.00">Misunderstanding light&#39;s effect; did not clearly show light difference.</text>
</g>
<!-- n3&#45;&gt;n5 -->
<g id="edge4" class="edge">
<title>n3&#45;&gt;n5</title>
<path fill="none" stroke="black" d="M752,-243.81C752,-224.11 752,-191.58 752,-168.39"/>
<polygon fill="black" stroke="black" points="755.5,-168.16 752,-158.16 748.5,-168.16 755.5,-168.16"/>
</g>
<!-- n6 -->
<g id="node6" class="node">
<title>n6</title>
<polygon fill="lightcoral" stroke="black" points="1612,-158 1196.5,-140 1612,-122 2027.5,-140 1612,-158"/>
<text text-anchor="middle" x="1612" y="-136.3" font-family="Arial" font-size="14.00">Misunderstanding water&#39;s effect; correct on wilting but lacks water clarity.</text>
</g>
<!-- n3&#45;&gt;n6 -->
<g id="edge5" class="edge">
<title>n3&#45;&gt;n6</title>
<path fill="none" stroke="black" d="M862.67,-245.56C1030.2,-222.18 1345.8,-178.14 1508.8,-155.4"/>
<polygon fill="black" stroke="black" points="1509.48,-158.84 1518.9,-154 1508.51,-151.91 1509.48,-158.84"/>
</g>
<!-- n7 -->
<g id="node7" class="node">
<title>n7</title>
<polygon fill="#f28e8e" stroke="black" points="912.5,-36 591.5,-36 591.5,0 912.5,0 912.5,-36"/>
<text text-anchor="middle" x="752" y="-14.3" font-family="Arial" font-size="14.00">Use shading to show light differences more clearly.</text>
</g>
<!-- n5&#45;&gt;n7 -->
<g id="edge6" class="edge">
<title>n5&#45;&gt;n7</title>
<path fill="none" stroke="black" d="M752,-121.81C752,-102.11 752,-69.58 752,-46.39"/>
<polygon fill="black" stroke="black" points="755.5,-46.16 752,-36.16 748.5,-46.16 755.5,-46.16"/>
</g>
<!-- n8 -->
<g id="node8" class="node">
<title>n8</title>
<polygon fill="#f28e8e" stroke="black" points="1769,-36 1455,-36 1455,0 1769,0 1769,-36"/>
<text text-anchor="middle" x="1612" y="-14.3" font-family="Arial" font-size="14.00">Add more details to show water difference clearly.</text>
</g>
<!-- n6&#45;&gt;n8 -->
<g id="edge7" class="edge">
<title>n6&#45;&gt;n8</title>
<path fill="none" stroke="black" d="M1612,-121.81C1612,-102.11 1612,-69.58 1612,-46.39"/>
<polygon fill="black" stroke="black" points="1615.5,-46.16 1612,-36.16 1608.5,-46.16 1615.5,-46.16"/>
</g>
</g>
</svg>
