<?xml version="1.0" encoding="UTF-8" standalone="no"?>
<!DOCTYPE svg PUBLIC "-//W3C//DTD SVG 1.1//EN"
 "http://www.w3.org/Graphics/SVG/1.1/DTD/svg11.dtd">
<!-- Generated by graphviz version 2.43.0 (0)
 -->
<!-- Pages: 1 -->
<svg width="1824pt" height="410pt"
 viewBox="0.00 0.00 1824.00 410.00" xmlns="http://www.w3.org/2000/svg" xmlns:xlink="http://www.w3.org/1999/xlink">
<g id="graph0" class="graph" transform="scale(1 1) rotate(0) translate(4 406)">
<polygon fill="white" stroke="transparent" points="-4,4 -4,-406 1820,-406 1820,4 -4,4"/>
<!-- n1 -->
<g id="node1" class="node">
<title>n1</title>
<polygon fill="lightblue" stroke="black" points="1128,-384 1016.5,-402 793.5,-402 682,-384 793.5,-366 1016.5,-366 1128,-384"/>
<text text-anchor="middle" x="905" y="-380.3" font-family="Arial" font-size="14.00">Draw a string telephone between two students.</text>
</g>
<!-- n2 -->
<g id="node2" class="node">
<title>n2</title>
<polygon fill="#fffdd0" stroke="black" points="312,-280 0,-280 0,-244 312,-244 312,-280"/>
<text text-anchor="middle" x="156" y="-258.3" font-family="Arial" font-size="14.00">Two happy stick figure students facing each other</text>
</g>
<!-- n1&#45;&gt;n2 -->
<g id="edge1" class="edge">
<title>n1&#45;&gt;n2</title>
<path fill="none" stroke="black" d="M798.88,-366C659.76,-343.71 416.54,-304.74 272.47,-281.66"/>
<polygon fill="black" stroke="black" points="272.7,-278.15 262.27,-280.03 271.59,-285.06 272.7,-278.15"/>
</g>
<!-- n3 -->
<g id="node3" class="node">
<title>n3</title>
<polygon fill="#fffdd0" stroke="black" points="1038,-280 772,-280 772,-244 1038,-244 1038,-280"/>
<text text-anchor="middle" x="905" y="-258.3" font-family="Arial" font-size="14.00">Each student is holding a white paper cup</text>
</g>
<!-- n1&#45;&gt;n3 -->
<g id="edge2" class="edge">
<title>n1&#45;&gt;n3</title>
<path fill="none" stroke="black" d="M905,-365.81C905,-346.11 905,-313.58 905,-290.39"/>
<polygon fill="black" stroke="black" points="908.5,-290.16 905,-280.16 901.5,-290.16 908.5,-290.16"/>
</g>
<!-- n4 -->
<g id="node4" class="node">
<title>n4</title>
<polygon fill="#fffdd0" stroke="black" points="714,-280 370,-280 370,-244 714,-244 714,-280"/>
<text text-anchor="middle" x="542" y="-258.3" font-family="Arial" font-size="14.00">Cups connected by straight red line representing string</text>
</g>
<!-- n1&#45;&gt;n4 -->
<g id="edge3" class="edge">
<title>n1&#45;&gt;n4</title>
<path fill="none" stroke="black" d="M853.38,-365.93C787.38,-344.12 673.29,-306.4 603.06,-283.18"/>
<polygon fill="black" stroke="black" points="604.04,-279.82 593.45,-280.01 601.85,-286.47 604.04,-279.82"/>
</g>
<!-- n5 -->
<g id="node5" class="node">
<title>n5</title>
<polygon fill="#fffdd0" stroke="black" points="1473.5,-280 1096.5,-280 1096.5,-244 1473.5,-244 1473.5,-280"/>
<text text-anchor="middle" x="1285" y="-258.3" font-family="Arial" font-size="14.00">Sound waves depicted as curved lines from student&#39;s mouth</text>
</g>
<!-- n1&#45;&gt;n5 -->
<g id="edge4" class="edge">
<title>n1&#45;&gt;n5</title>
<path fill="none" stroke="black" d="M959.04,-365.93C1028.3,-344.07 1148.1,-306.25 1221.5,-283.04"/>
<polygon fill="black" stroke="black" points="1222.62,-286.36 1231.1,-280.01 1220.51,-279.68 1222.62,-286.36"/>
</g>
<!-- n6 -->
<g id="node6" class="node">
<title>n6</title>
<polygon fill="#fffdd0" stroke="black" points="1735.5,-280 1542.5,-280 1542.5,-244 1735.5,-244 1735.5,-280"/>
<text text-anchor="middle" x="1639" y="-258.3" font-family="Arial" font-size="14.00">Labels on the cups and string</text>
</g>
<!-- n1&#45;&gt;n6 -->
<g id="edge5" class="edge">
<title>n1&#45;&gt;n6</title>
<path fill="none" stroke="black" d="M1009,-366C1147.8,-343.3 1392.5,-303.3 1532.6,-280.4"/>
<polygon fill="black" stroke="black" points="1533.2,-283.85 1542.5,-278.78 1532.07,-276.94 1533.2,-283.85"/>
</g>
<!-- n7 -->
<g id="node7" class="node">
<title>n7</title>
<path fill="palegreen" stroke="black" d="M475,-158C475,-158 223,-158 223,-158 217,-158 211,-152 211,-146 211,-146 211,-134 211,-134 211,-128 217,-122 223,-122 223,-122 475,-122 475,-122 481,-122 487,-128 487,-134 487,-134 487,-146 487,-146 487,-152 481,-158 475,-158"/>
<text text-anchor="middle" x="349" y="-136.3" font-family="Arial" font-size="14.00">Students can communicate over a distance</text>
</g>
<!-- n2&#45;&gt;n7 -->
<g id="edge6" class="edge">
<title>n2&#45;&gt;n7</title>
<path fill="none" stroke="black" d="M183.65,-243.81C217.62,-222.69 275.33,-186.81 312.8,-163.51"/>
<polygon fill="black" stroke="black" points="314.76,-166.41 321.4,-158.16 311.06,-160.47 314.76,-166.41"/>
</g>
<!-- n8 -->
<g id="node8" class="node">
<title>n8</title>
<path fill="palegreen" stroke="black" d="M989.5,-158C989.5,-158 820.5,-158 820.5,-158 814.5,-158 808.5,-152 808.5,-146 808.5,-146 808.5,-134 808.5,-134 808.5,-128 814.5,-122 820.5,-122 820.5,-122 989.5,-122 989.5,-122 995.5,-122 1001.5,-128 1001.5,-134 1001.5,-134 1001.5,-146 1001.5,-146 1001.5,-152 995.5,-158 989.5,-158"/>
<text text-anchor="middle" x="905" y="-136.3" font-family="Arial" font-size="14.00">Only provided materials used</text>
</g>
<!-- n3&#45;&gt;n8 -->
<g id="edge7" class="edge">
<title>n3&#45;&gt;n8</title>
<path fill="none" stroke="black" d="M905,-243.81C905,-224.11 905,-191.58 905,-168.39"/>
<polygon fill="black" stroke="black" points="908.5,-168.16 905,-158.16 901.5,-168.16 908.5,-168.16"/>
</g>
<!-- n4&#45;&gt;n7 -->
<g id="edge8" class="edge">
<title>n4&#45;&gt;n7</title>
<path fill="none" stroke="black" d="M514.35,-243.81C480.38,-222.69 422.67,-186.81 385.2,-163.51"/>
<polygon fill="black" stroke="black" points="386.94,-160.47 376.6,-158.16 383.24,-166.41 386.94,-160.47"/>
</g>
<!-- n9 -->
<g id="node9" class="node">
<title>n9</title>
<path fill="palegreen" stroke="black" d="M1402.5,-158C1402.5,-158 1155.5,-158 1155.5,-158 1149.5,-158 1143.5,-152 1143.5,-146 1143.5,-146 1143.5,-134 1143.5,-134 1143.5,-128 1149.5,-122 1155.5,-122 1155.5,-122 1402.5,-122 1402.5,-122 1408.5,-122 1414.5,-128 1414.5,-134 1414.5,-134 1414.5,-146 1414.5,-146 1414.5,-152 1408.5,-158 1402.5,-158"/>
<text text-anchor="middle" x="1279" y="-136.3" font-family="Arial" font-size="14.00">Use of sound waves to convey information</text>
</g>
<!-- n5&#45;&gt;n9 -->
<g id="edge9" class="edge">
<title>n5&#45;&gt;n9</title>
<path fill="none" stroke="black" d="M1284.1,-243.81C1283.2,-224.11 1281.5,-191.58 1280.4,-168.39"/>
<polygon fill="black" stroke="black" points="1283.88,-167.98 1279.9,-158.16 1276.89,-168.32 1283.88,-167.98"/>
</g>
<!-- n10 -->
<g id="node10" class="node">
<title>n10</title>
<polygon fill="lightcoral" stroke="black" points="1644,-158 1472,-140 1644,-122 1816,-140 1644,-158"/>
<text text-anchor="middle" x="1644" y="-136.3" font-family="Arial" font-size="14.00">Potential for unclear labeling</text>
</g>
<!-- n6&#45;&gt;n10 -->
<g id="edge10" class="edge">
<title>n6&#45;&gt;n10</title>
<path fill="none" stroke="black" d="M1639.7,-243.81C1640.5,-224.11 1641.9,-191.58 1642.9,-168.39"/>
<polygon fill="black" stroke="black" points="1646.41,-168.29 1643.3,-158.16 1639.41,-168.02 1646.41,-168.29"/>
</g>
<!-- n11 -->
<g id="node11" class="node">
<title>n11</title>
<polygon fill="#f28e8e" stroke="black" points="1813,-36 1475,-36 1475,0 1813,0 1813,-36"/>
<text text-anchor="middle" x="1644" y="-14.3" font-family="Arial" font-size="14.00">Ensure labels are clear and accurate to show function</text>
</g>
<!-- n10&#45;&gt;n11 -->
<g id="edge11" class="edge">
<title>n10&#45;&gt;n11</title>
<path fill="none" stroke="black" d="M1644,-121.81C1644,-102.11 1644,-69.58 1644,-46.39"/>
<polygon fill="black" stroke="black" points="1647.5,-46.16 1644,-36.16 1640.5,-46.16 1647.5,-46.16"/>
</g>
</g>
</svg>
