<?xml version="1.0" encoding="UTF-8" standalone="no"?>
<!DOCTYPE svg PUBLIC "-//W3C//DTD SVG 1.1//EN"
 "http://www.w3.org/Graphics/SVG/1.1/DTD/svg11.dtd">
<!-- Generated by graphviz version 2.43.0 (0)
 -->
<!-- Pages: 1 -->
<svg width="1685pt" height="410pt"
 viewBox="0.00 0.00 1685.00 410.00" xmlns="http://www.w3.org/2000/svg" xmlns:xlink="http://www.w3.org/1999/xlink">
<g id="graph0" class="graph" transform="scale(1 1) rotate(0) translate(4 406)">
<polygon fill="white" stroke="transparent" points="-4,4 -4,-406 1681,-406 1681,4 -4,4"/>
<!-- n1 -->
<g id="node1" class="node">
<title>n1</title>
<polygon fill="lightblue" stroke="black" points="1054.5,-384 943,-402 720,-402 608.5,-384 720,-366 943,-366 1054.5,-384"/>
<text text-anchor="middle" x="831.5" y="-380.3" font-family="Arial" font-size="14.00">Draw a string telephone between two students.</text>
</g>
<!-- n2 -->
<g id="node2" class="node">
<title>n2</title>
<polygon fill="#fffdd0" stroke="black" points="410,-280 99,-280 99,-244 410,-244 410,-280"/>
<text text-anchor="middle" x="254.5" y="-258.3" font-family="Arial" font-size="14.00">Two students standing with cups and a taut string</text>
</g>
<!-- n1&#45;&gt;n2 -->
<g id="edge1" class="edge">
<title>n1&#45;&gt;n2</title>
<path fill="none" stroke="black" d="M749.75,-366C643.22,-343.84 457.46,-305.21 346.23,-282.08"/>
<polygon fill="black" stroke="black" points="346.87,-278.64 336.37,-280.03 345.45,-285.49 346.87,-278.64"/>
</g>
<!-- n3 -->
<g id="node3" class="node">
<title>n3</title>
<polygon fill="#fffdd0" stroke="black" points="833.5,-280 495.5,-280 495.5,-244 833.5,-244 833.5,-280"/>
<text text-anchor="middle" x="664.5" y="-258.3" font-family="Arial" font-size="14.00">Arrows or lines along the string showing sound waves</text>
</g>
<!-- n1&#45;&gt;n3 -->
<g id="edge2" class="edge">
<title>n1&#45;&gt;n3</title>
<path fill="none" stroke="black" d="M807.57,-365.81C778.43,-344.87 729.09,-309.41 696.65,-286.1"/>
<polygon fill="black" stroke="black" points="698.54,-283.15 688.38,-280.16 694.46,-288.84 698.54,-283.15"/>
</g>
<!-- n4 -->
<g id="node4" class="node">
<title>n4</title>
<polygon fill="#fffdd0" stroke="black" points="1185.5,-280 969.5,-280 969.5,-244 1185.5,-244 1185.5,-280"/>
<text text-anchor="middle" x="1077.5" y="-258.3" font-family="Arial" font-size="14.00">Labels for each part of the device</text>
</g>
<!-- n1&#45;&gt;n4 -->
<g id="edge3" class="edge">
<title>n1&#45;&gt;n4</title>
<path fill="none" stroke="black" d="M866.48,-365.93C910.38,-344.52 985.69,-307.78 1033.5,-284.48"/>
<polygon fill="black" stroke="black" points="1035.17,-287.56 1042.6,-280.01 1032.08,-281.28 1035.17,-287.56"/>
</g>
<!-- n5 -->
<g id="node5" class="node">
<title>n5</title>
<polygon fill="#fffdd0" stroke="black" points="1608,-280 1351,-280 1351,-244 1608,-244 1608,-280"/>
<text text-anchor="middle" x="1479.5" y="-258.3" font-family="Arial" font-size="14.00">Use of simple materials: cups and string</text>
</g>
<!-- n1&#45;&gt;n5 -->
<g id="edge4" class="edge">
<title>n1&#45;&gt;n5</title>
<path fill="none" stroke="black" d="M923.31,-366C1043.3,-343.78 1252.8,-304.98 1377.6,-281.87"/>
<polygon fill="black" stroke="black" points="1378.4,-285.28 1387.6,-280.03 1377.13,-278.4 1378.4,-285.28"/>
</g>
<!-- n6 -->
<g id="node6" class="node">
<title>n6</title>
<path fill="palegreen" stroke="black" d="M365,-158C365,-158 12,-158 12,-158 6,-158 0,-152 0,-146 0,-146 0,-134 0,-134 0,-128 6,-122 12,-122 12,-122 365,-122 365,-122 371,-122 377,-128 377,-134 377,-134 377,-146 377,-146 377,-152 371,-158 365,-158"/>
<text text-anchor="middle" x="188.5" y="-136.3" font-family="Arial" font-size="14.00">Demonstrates string telephone sending and receiving sound</text>
</g>
<!-- n2&#45;&gt;n6 -->
<g id="edge5" class="edge">
<title>n2&#45;&gt;n6</title>
<path fill="none" stroke="black" d="M245.04,-243.81C234.02,-223.76 215.67,-190.4 202.88,-167.14"/>
<polygon fill="black" stroke="black" points="205.83,-165.23 197.94,-158.16 199.69,-168.61 205.83,-165.23"/>
</g>
<!-- n7 -->
<g id="node7" class="node">
<title>n7</title>
<path fill="palegreen" stroke="black" d="M803.5,-158C803.5,-158 447.5,-158 447.5,-158 441.5,-158 435.5,-152 435.5,-146 435.5,-146 435.5,-134 435.5,-134 435.5,-128 441.5,-122 447.5,-122 447.5,-122 803.5,-122 803.5,-122 809.5,-122 815.5,-128 815.5,-134 815.5,-134 815.5,-146 815.5,-146 815.5,-152 809.5,-158 803.5,-158"/>
<text text-anchor="middle" x="625.5" y="-136.3" font-family="Arial" font-size="14.00">Indicates the use of sound waves traveling through the string</text>
</g>
<!-- n3&#45;&gt;n7 -->
<g id="edge6" class="edge">
<title>n3&#45;&gt;n7</title>
<path fill="none" stroke="black" d="M658.91,-243.81C652.45,-223.94 641.75,-190.99 634.2,-167.76"/>
<polygon fill="black" stroke="black" points="637.5,-166.59 631.08,-158.16 630.84,-168.75 637.5,-166.59"/>
</g>
<!-- n8 -->
<g id="node8" class="node">
<title>n8</title>
<polygon fill="lightcoral" stroke="black" points="1117.5,-158 873,-140 1117.5,-122 1362,-140 1117.5,-158"/>
<text text-anchor="middle" x="1117.5" y="-136.3" font-family="Arial" font-size="14.00">Possible minor inconsistencies in labeling</text>
</g>
<!-- n4&#45;&gt;n8 -->
<g id="edge7" class="edge">
<title>n4&#45;&gt;n8</title>
<path fill="none" stroke="black" d="M1083.2,-243.81C1089.9,-223.82 1101,-190.62 1108.7,-167.37"/>
<polygon fill="black" stroke="black" points="1112.06,-168.36 1111.9,-157.77 1105.42,-166.15 1112.06,-168.36"/>
</g>
<!-- n9 -->
<g id="node9" class="node">
<title>n9</title>
<path fill="palegreen" stroke="black" d="M1665,-158C1665,-158 1432,-158 1432,-158 1426,-158 1420,-152 1420,-146 1420,-146 1420,-134 1420,-134 1420,-128 1426,-122 1432,-122 1432,-122 1665,-122 1665,-122 1671,-122 1677,-128 1677,-134 1677,-134 1677,-146 1677,-146 1677,-152 1671,-158 1665,-158"/>
<text text-anchor="middle" x="1548.5" y="-136.3" font-family="Arial" font-size="14.00">Accurately shows use of cups and string</text>
</g>
<!-- n5&#45;&gt;n9 -->
<g id="edge8" class="edge">
<title>n5&#45;&gt;n9</title>
<path fill="none" stroke="black" d="M1489.4,-243.81C1501,-223.67 1520.3,-190.1 1533.6,-166.83"/>
<polygon fill="black" stroke="black" points="1536.64,-168.57 1538.6,-158.16 1530.57,-165.07 1536.64,-168.57"/>
</g>
<!-- n10 -->
<g id="node10" class="node">
<title>n10</title>
<polygon fill="#f28e8e" stroke="black" points="1263.5,-36 971.5,-36 971.5,0 1263.5,0 1263.5,-36"/>
<text text-anchor="middle" x="1117.5" y="-14.3" font-family="Arial" font-size="14.00">Ensure labels clarify each part and its function</text>
</g>
<!-- n8&#45;&gt;n10 -->
<g id="edge9" class="edge">
<title>n8&#45;&gt;n10</title>
<path fill="none" stroke="black" d="M1117.5,-121.81C1117.5,-102.11 1117.5,-69.58 1117.5,-46.39"/>
<polygon fill="black" stroke="black" points="1121,-46.16 1117.5,-36.16 1114,-46.16 1121,-46.16"/>
</g>
</g>
</svg>
