<?xml version="1.0" encoding="UTF-8" standalone="no"?>
<!DOCTYPE svg PUBLIC "-//W3C//DTD SVG 1.1//EN"
 "http://www.w3.org/Graphics/SVG/1.1/DTD/svg11.dtd">
<!-- Generated by graphviz version 2.43.0 (0)
 -->
<!-- Pages: 1 -->
<svg width="1080pt" height="288pt"
 viewBox="0.00 0.00 1080.00 288.00" xmlns="http://www.w3.org/2000/svg" xmlns:xlink="http://www.w3.org/1999/xlink">
<g id="graph0" class="graph" transform="scale(1 1) rotate(0) translate(4 284)">
<polygon fill="white" stroke="transparent" points="-4,4 -4,-284 1076,-284 1076,4 -4,4"/>
<!-- n1 -->
<g id="node1" class="node">
<title>n1</title>
<polygon fill="lightblue" stroke="black" points="770.5,-262 658.25,-280 433.75,-280 321.5,-262 433.75,-244 658.25,-244 770.5,-262"/>
<text text-anchor="middle" x="546" y="-258.3" font-family="Arial" font-size="14.00">Illustrate plants with and without water and light</text>
</g>
<!-- n2 -->
<g id="node2" class="node">
<title>n2</title>
<polygon fill="#fffdd0" stroke="black" points="308,-158 0,-158 0,-122 308,-122 308,-158"/>
<text text-anchor="middle" x="154" y="-136.3" font-family="Arial" font-size="14.00">Healthy Plant: lush green leaves, colorful flowers</text>
</g>
<!-- n1&#45;&gt;n2 -->
<g id="edge1" class="edge">
<title>n1&#45;&gt;n2</title>
<path fill="none" stroke="black" d="M490.25,-243.93C418.84,-222.07 295.27,-184.25 219.47,-161.04"/>
<polygon fill="black" stroke="black" points="220.15,-157.59 209.56,-158.01 218.1,-164.28 220.15,-157.59"/>
</g>
<!-- n3 -->
<g id="node3" class="node">
<title>n3</title>
<polygon fill="#fffdd0" stroke="black" points="726,-158 366,-158 366,-122 726,-122 726,-158"/>
<text text-anchor="middle" x="546" y="-136.3" font-family="Arial" font-size="14.00">No Water: wilted, brownish droopy leaves, sagging stems</text>
</g>
<!-- n1&#45;&gt;n3 -->
<g id="edge2" class="edge">
<title>n1&#45;&gt;n3</title>
<path fill="none" stroke="black" d="M546,-243.81C546,-224.11 546,-191.58 546,-168.39"/>
<polygon fill="black" stroke="black" points="549.5,-168.16 546,-158.16 542.5,-168.16 549.5,-168.16"/>
</g>
<!-- n4 -->
<g id="node4" class="node">
<title>n4</title>
<polygon fill="#fffdd0" stroke="black" points="1072,-158 784,-158 784,-122 1072,-122 1072,-158"/>
<text text-anchor="middle" x="928" y="-136.3" font-family="Arial" font-size="14.00">No Light: yellowed, spindly leaves, no flowers</text>
</g>
<!-- n1&#45;&gt;n4 -->
<g id="edge3" class="edge">
<title>n1&#45;&gt;n4</title>
<path fill="none" stroke="black" d="M600.33,-243.93C669.91,-222.07 790.33,-184.25 864.2,-161.04"/>
<polygon fill="black" stroke="black" points="865.37,-164.34 873.86,-158.01 863.27,-157.66 865.37,-164.34"/>
</g>
<!-- n5 -->
<g id="node5" class="node">
<title>n5</title>
<path fill="palegreen" stroke="black" d="M294.5,-36C294.5,-36 13.5,-36 13.5,-36 7.5,-36 1.5,-30 1.5,-24 1.5,-24 1.5,-12 1.5,-12 1.5,-6 7.5,0 13.5,0 13.5,0 294.5,0 294.5,0 300.5,0 306.5,-6 306.5,-12 306.5,-12 306.5,-24 306.5,-24 306.5,-30 300.5,-36 294.5,-36"/>
<text text-anchor="middle" x="154" y="-14.3" font-family="Arial" font-size="14.00">Understands healthy plants have water and light</text>
</g>
<!-- n2&#45;&gt;n5 -->
<g id="edge4" class="edge">
<title>n2&#45;&gt;n5</title>
<path fill="none" stroke="black" d="M154,-121.81C154,-102.11 154,-69.58 154,-46.39"/>
<polygon fill="black" stroke="black" points="157.5,-46.16 154,-36.16 150.5,-46.16 157.5,-46.16"/>
</g>
<!-- n6 -->
<g id="node6" class="node">
<title>n6</title>
<path fill="palegreen" stroke="black" d="M666.5,-36C666.5,-36 425.5,-36 425.5,-36 419.5,-36 413.5,-30 413.5,-24 413.5,-24 413.5,-12 413.5,-12 413.5,-6 419.5,0 425.5,0 425.5,0 666.5,0 666.5,0 672.5,0 678.5,-6 678.5,-12 678.5,-12 678.5,-24 678.5,-24 678.5,-30 672.5,-36 666.5,-36"/>
<text text-anchor="middle" x="546" y="-14.3" font-family="Arial" font-size="14.00">Understands lack of water leads to wilting</text>
</g>
<!-- n3&#45;&gt;n6 -->
<g id="edge5" class="edge">
<title>n3&#45;&gt;n6</title>
<path fill="none" stroke="black" d="M546,-121.81C546,-102.11 546,-69.58 546,-46.39"/>
<polygon fill="black" stroke="black" points="549.5,-46.16 546,-36.16 542.5,-46.16 549.5,-46.16"/>
</g>
<!-- n7 -->
<g id="node7" class="node">
<title>n7</title>
<path fill="palegreen" stroke="black" d="M1048,-36C1048,-36 808,-36 808,-36 802,-36 796,-30 796,-24 796,-24 796,-12 796,-12 796,-6 802,0 808,0 808,0 1048,0 1048,0 1054,0 1060,-6 1060,-12 1060,-12 1060,-24 1060,-24 1060,-30 1054,-36 1048,-36"/>
<text text-anchor="middle" x="928" y="-14.3" font-family="Arial" font-size="14.00">Understands lack of light prevents growth</text>
</g>
<!-- n4&#45;&gt;n7 -->
<g id="edge6" class="edge">
<title>n4&#45;&gt;n7</title>
<path fill="none" stroke="black" d="M928,-121.81C928,-102.11 928,-69.58 928,-46.39"/>
<polygon fill="black" stroke="black" points="931.5,-46.16 928,-36.16 924.5,-46.16 931.5,-46.16"/>
</g>
</g>
</svg>
