<?xml version="1.0" encoding="UTF-8" standalone="no"?>
<!DOCTYPE svg PUBLIC "-//W3C//DTD SVG 1.1//EN"
 "http://www.w3.org/Graphics/SVG/1.1/DTD/svg11.dtd">
<!-- Generated by graphviz version 2.43.0 (0)
 -->
<!-- Pages: 1 -->
<svg width="1299pt" height="410pt"
 viewBox="0.00 0.00 1299.00 410.00" xmlns="http://www.w3.org/2000/svg" xmlns:xlink="http://www.w3.org/1999/xlink">
<g id="graph0" class="graph" transform="scale(1 1) rotate(0) translate(4 406)">
<polygon fill="white" stroke="transparent" points="-4,4 -4,-406 1295,-406 1295,4 -4,4"/>
<!-- n1 -->
<g id="node1" class="node">
<title>n1</title>
<polygon fill="lightblue" stroke="black" points="776,-384 664.5,-402 441.5,-402 330,-384 441.5,-366 664.5,-366 776,-384"/>
<text text-anchor="middle" x="553" y="-380.3" font-family="Arial" font-size="14.00">Draw a string telephone between two students.</text>
</g>
<!-- n2 -->
<g id="node2" class="node">
<title>n2</title>
<polygon fill="#fffdd0" stroke="black" points="274,-280 74,-280 74,-244 274,-244 274,-280"/>
<text text-anchor="middle" x="174" y="-258.3" font-family="Arial" font-size="14.00">Two children facing each other</text>
</g>
<!-- n1&#45;&gt;n2 -->
<g id="edge1" class="edge">
<title>n1&#45;&gt;n2</title>
<path fill="none" stroke="black" d="M499.1,-365.93C430.06,-344.07 310.59,-306.25 237.3,-283.04"/>
<polygon fill="black" stroke="black" points="238.3,-279.69 227.71,-280.01 236.19,-286.36 238.3,-279.69"/>
</g>
<!-- n3 -->
<g id="node3" class="node">
<title>n3</title>
<polygon fill="#fffdd0" stroke="black" points="520.5,-280 357.5,-280 357.5,-244 520.5,-244 520.5,-280"/>
<text text-anchor="middle" x="439" y="-258.3" font-family="Arial" font-size="14.00">Each child holding a cup</text>
</g>
<!-- n1&#45;&gt;n3 -->
<g id="edge2" class="edge">
<title>n1&#45;&gt;n3</title>
<path fill="none" stroke="black" d="M536.67,-365.81C517.2,-345.31 484.52,-310.91 462.37,-287.6"/>
<polygon fill="black" stroke="black" points="464.73,-285 455.3,-280.16 459.65,-289.82 464.73,-285"/>
</g>
<!-- n4 -->
<g id="node4" class="node">
<title>n4</title>
<polygon fill="#fffdd0" stroke="black" points="770,-280 594,-280 594,-244 770,-244 770,-280"/>
<text text-anchor="middle" x="682" y="-258.3" font-family="Arial" font-size="14.00">String connecting the cups</text>
</g>
<!-- n1&#45;&gt;n4 -->
<g id="edge3" class="edge">
<title>n1&#45;&gt;n4</title>
<path fill="none" stroke="black" d="M571.48,-365.81C593.71,-345.13 631.14,-310.31 656.2,-287"/>
<polygon fill="black" stroke="black" points="658.61,-289.53 663.55,-280.16 653.85,-284.41 658.61,-289.53"/>
</g>
<!-- n5 -->
<g id="node5" class="node">
<title>n5</title>
<polygon fill="#fffdd0" stroke="black" points="1082,-280 912,-280 912,-244 1082,-244 1082,-280"/>
<text text-anchor="middle" x="997" y="-258.3" font-family="Arial" font-size="14.00">Sound waves near mouth</text>
</g>
<!-- n1&#45;&gt;n5 -->
<g id="edge4" class="edge">
<title>n1&#45;&gt;n5</title>
<path fill="none" stroke="black" d="M616.14,-365.93C697.52,-343.94 838.7,-305.78 924.42,-282.62"/>
<polygon fill="black" stroke="black" points="925.33,-286 934.07,-280.01 923.5,-279.24 925.33,-286"/>
</g>
<!-- n6 -->
<g id="node6" class="node">
<title>n6</title>
<path fill="palegreen" stroke="black" d="M272,-158C272,-158 12,-158 12,-158 6,-158 0,-152 0,-146 0,-146 0,-134 0,-134 0,-128 6,-122 12,-122 12,-122 272,-122 272,-122 278,-122 284,-128 284,-134 284,-134 284,-146 284,-146 284,-152 278,-158 272,-158"/>
<text text-anchor="middle" x="142" y="-136.3" font-family="Arial" font-size="14.00">Understanding communication over distance</text>
</g>
<!-- n2&#45;&gt;n6 -->
<g id="edge5" class="edge">
<title>n2&#45;&gt;n6</title>
<path fill="none" stroke="black" d="M169.42,-243.81C164.14,-224.02 155.41,-191.29 149.22,-168.08"/>
<polygon fill="black" stroke="black" points="152.53,-166.92 146.58,-158.16 145.77,-168.72 152.53,-166.92"/>
</g>
<!-- n7 -->
<g id="node7" class="node">
<title>n7</title>
<path fill="palegreen" stroke="black" d="M510,-158C510,-158 354,-158 354,-158 348,-158 342,-152 342,-146 342,-146 342,-134 342,-134 342,-128 348,-122 354,-122 354,-122 510,-122 510,-122 516,-122 522,-128 522,-134 522,-134 522,-146 522,-146 522,-152 516,-158 510,-158"/>
<text text-anchor="middle" x="432" y="-136.3" font-family="Arial" font-size="14.00">Cups as parts of the device</text>
</g>
<!-- n3&#45;&gt;n7 -->
<g id="edge6" class="edge">
<title>n3&#45;&gt;n7</title>
<path fill="none" stroke="black" d="M438,-243.81C436.85,-224.11 434.95,-191.58 433.6,-168.39"/>
<polygon fill="black" stroke="black" points="437.08,-167.94 433,-158.16 430.09,-168.35 437.08,-167.94"/>
</g>
<!-- n8 -->
<g id="node8" class="node">
<title>n8</title>
<path fill="palegreen" stroke="black" d="M787.5,-158C787.5,-158 592.5,-158 592.5,-158 586.5,-158 580.5,-152 580.5,-146 580.5,-146 580.5,-134 580.5,-134 580.5,-128 586.5,-122 592.5,-122 592.5,-122 787.5,-122 787.5,-122 793.5,-122 799.5,-128 799.5,-134 799.5,-134 799.5,-146 799.5,-146 799.5,-152 793.5,-158 787.5,-158"/>
<text text-anchor="middle" x="690" y="-136.3" font-family="Arial" font-size="14.00">Taut string for sound transmission</text>
</g>
<!-- n4&#45;&gt;n8 -->
<g id="edge7" class="edge">
<title>n4&#45;&gt;n8</title>
<path fill="none" stroke="black" d="M683.15,-243.81C684.46,-224.11 686.63,-191.58 688.17,-168.39"/>
<polygon fill="black" stroke="black" points="691.68,-168.37 688.86,-158.16 684.69,-167.9 691.68,-168.37"/>
</g>
<!-- n9 -->
<g id="node9" class="node">
<title>n9</title>
<polygon fill="lightcoral" stroke="black" points="1074,-158 857,-140 1074,-122 1291,-140 1074,-158"/>
<text text-anchor="middle" x="1074" y="-136.3" font-family="Arial" font-size="14.00">Sound wave representation incorrect</text>
</g>
<!-- n5&#45;&gt;n9 -->
<g id="edge8" class="edge">
<title>n5&#45;&gt;n9</title>
<path fill="none" stroke="black" d="M1008,-243.81C1021.1,-223.44 1043,-189.34 1057.9,-166.04"/>
<polygon fill="black" stroke="black" points="1061,-167.69 1063.5,-157.39 1055.13,-163.88 1061,-167.69"/>
</g>
<!-- n10 -->
<g id="node10" class="node">
<title>n10</title>
<polygon fill="#f28e8e" stroke="black" points="1195,-36 953,-36 953,0 1195,0 1195,-36"/>
<text text-anchor="middle" x="1074" y="-14.3" font-family="Arial" font-size="14.00">Explain sound traveling through string</text>
</g>
<!-- n9&#45;&gt;n10 -->
<g id="edge9" class="edge">
<title>n9&#45;&gt;n10</title>
<path fill="none" stroke="black" d="M1074,-121.81C1074,-102.11 1074,-69.58 1074,-46.39"/>
<polygon fill="black" stroke="black" points="1077.5,-46.16 1074,-36.16 1070.5,-46.16 1077.5,-46.16"/>
</g>
</g>
</svg>
