<?xml version="1.0" encoding="UTF-8" standalone="no"?>
<!DOCTYPE svg PUBLIC "-//W3C//DTD SVG 1.1//EN"
 "http://www.w3.org/Graphics/SVG/1.1/DTD/svg11.dtd">
<!-- Generated by graphviz version 2.43.0 (0)
 -->
<!-- Pages: 1 -->
<svg width="3352pt" height="288pt"
 viewBox="0.00 0.00 3351.50 288.00" xmlns="http://www.w3.org/2000/svg" xmlns:xlink="http://www.w3.org/1999/xlink">
<g id="graph0" class="graph" transform="scale(1 1) rotate(0) translate(4 284)">
<polygon fill="white" stroke="transparent" points="-4,4 -4,-284 3347.5,-284 3347.5,4 -4,4"/>
<!-- n1 -->
<g id="node1" class="node">
<title>n1</title>
<polygon fill="lightblue" stroke="black" points="1876,-262 1786.25,-280 1606.75,-280 1517,-262 1606.75,-244 1786.25,-244 1876,-262"/>
<text text-anchor="middle" x="1696.5" y="-258.3" font-family="Arial" font-size="14.00">Draw a fish in their habitat with labels</text>
</g>
<!-- n2 -->
<g id="node2" class="node">
<title>n2</title>
<polygon fill="#fffdd0" stroke="black" points="1034.5,-158 980.5,-158 980.5,-122 1034.5,-122 1034.5,-158"/>
<text text-anchor="middle" x="1007.5" y="-136.3" font-family="Arial" font-size="14.00">Fish</text>
</g>
<!-- n1&#45;&gt;n2 -->
<g id="edge1" class="edge">
<title>n1&#45;&gt;n2</title>
<path fill="none" stroke="black" d="M1602.9,-244.69C1449,-217.9 1149.4,-165.71 1044.7,-147.47"/>
<polygon fill="black" stroke="black" points="1045.05,-143.98 1034.6,-145.72 1043.86,-150.88 1045.05,-143.98"/>
</g>
<!-- n3 -->
<g id="node3" class="node">
<title>n3</title>
<polygon fill="#fffdd0" stroke="black" points="1736.5,-158 1656.5,-158 1656.5,-122 1736.5,-122 1736.5,-158"/>
<text text-anchor="middle" x="1696.5" y="-136.3" font-family="Arial" font-size="14.00">Small Fish</text>
</g>
<!-- n1&#45;&gt;n3 -->
<g id="edge2" class="edge">
<title>n1&#45;&gt;n3</title>
<path fill="none" stroke="black" d="M1696.5,-243.81C1696.5,-224.11 1696.5,-191.58 1696.5,-168.39"/>
<polygon fill="black" stroke="black" points="1700,-168.16 1696.5,-158.16 1693,-168.16 1700,-168.16"/>
</g>
<!-- n4 -->
<g id="node4" class="node">
<title>n4</title>
<polygon fill="#fffdd0" stroke="black" points="1439,-158 1366,-158 1366,-122 1439,-122 1439,-158"/>
<text text-anchor="middle" x="1402.5" y="-136.3" font-family="Arial" font-size="14.00">Seaweed</text>
</g>
<!-- n1&#45;&gt;n4 -->
<g id="edge3" class="edge">
<title>n1&#45;&gt;n4</title>
<path fill="none" stroke="black" d="M1654.7,-243.93C1600.1,-221.67 1505,-182.84 1448.5,-159.77"/>
<polygon fill="black" stroke="black" points="1449.68,-156.47 1439.1,-155.93 1447.03,-162.95 1449.68,-156.47"/>
</g>
<!-- n5 -->
<g id="node5" class="node">
<title>n5</title>
<polygon fill="#fffdd0" stroke="black" points="2378.5,-158 2250.5,-158 2250.5,-122 2378.5,-122 2378.5,-158"/>
<text text-anchor="middle" x="2314.5" y="-136.3" font-family="Arial" font-size="14.00">Bubbles = Oxygen</text>
</g>
<!-- n1&#45;&gt;n5 -->
<g id="edge4" class="edge">
<title>n1&#45;&gt;n5</title>
<path fill="none" stroke="black" d="M1784.1,-244C1906.2,-220.27 2125.7,-177.65 2240.3,-155.41"/>
<polygon fill="black" stroke="black" points="2241.25,-158.79 2250.4,-153.45 2239.92,-151.92 2241.25,-158.79"/>
</g>
<!-- n6 -->
<g id="node6" class="node">
<title>n6</title>
<polygon fill="#fffdd0" stroke="black" points="2718.5,-158 2664.5,-158 2664.5,-122 2718.5,-122 2718.5,-158"/>
<text text-anchor="middle" x="2691.5" y="-136.3" font-family="Arial" font-size="14.00">Water</text>
</g>
<!-- n1&#45;&gt;n6 -->
<g id="edge5" class="edge">
<title>n1&#45;&gt;n6</title>
<path fill="none" stroke="black" d="M1805.8,-247.81C2026.5,-221.2 2515.9,-162.18 2654.4,-145.48"/>
<polygon fill="black" stroke="black" points="2654.99,-148.93 2664.5,-144.26 2654.15,-141.98 2654.99,-148.93"/>
</g>
<!-- n7 -->
<g id="node7" class="node">
<title>n7</title>
<path fill="palegreen" stroke="black" d="M1237.5,-36C1237.5,-36 777.5,-36 777.5,-36 771.5,-36 765.5,-30 765.5,-24 765.5,-24 765.5,-12 765.5,-12 765.5,-6 771.5,0 777.5,0 777.5,0 1237.5,0 1237.5,0 1243.5,0 1249.5,-6 1249.5,-12 1249.5,-12 1249.5,-24 1249.5,-24 1249.5,-30 1243.5,-36 1237.5,-36"/>
<text text-anchor="middle" x="1007.5" y="-14.3" font-family="Arial" font-size="14.00">The student can include different plants and animals, showing where they live.</text>
</g>
<!-- n2&#45;&gt;n7 -->
<g id="edge6" class="edge">
<title>n2&#45;&gt;n7</title>
<path fill="none" stroke="black" d="M1007.5,-121.81C1007.5,-102.11 1007.5,-69.58 1007.5,-46.39"/>
<polygon fill="black" stroke="black" points="1011,-46.16 1007.5,-36.16 1004,-46.16 1011,-46.16"/>
</g>
<!-- n11 -->
<g id="node8" class="node">
<title>n11</title>
<path fill="palegreen" stroke="black" d="M695,-36C695,-36 12,-36 12,-36 6,-36 0,-30 0,-24 0,-24 0,-12 0,-12 0,-6 6,0 12,0 12,0 695,0 695,0 701,0 707,-6 707,-12 707,-12 707,-24 707,-24 707,-30 701,-36 695,-36"/>
<text text-anchor="middle" x="353.5" y="-14.3" font-family="Arial" font-size="14.00">The student can represent how the fish&#39;s habitat provides the resources it needs to survive, such as water and food.</text>
</g>
<!-- n2&#45;&gt;n11 -->
<g id="edge7" class="edge">
<title>n2&#45;&gt;n11</title>
<path fill="none" stroke="black" d="M980.23,-134C891.88,-117.79 610.32,-66.12 456.4,-37.88"/>
<polygon fill="black" stroke="black" points="456.92,-34.42 446.45,-36.05 455.65,-41.3 456.92,-34.42"/>
</g>
<!-- n9 -->
<g id="node9" class="node">
<title>n9</title>
<path fill="palegreen" stroke="black" d="M1845,-36C1845,-36 1320,-36 1320,-36 1314,-36 1308,-30 1308,-24 1308,-24 1308,-12 1308,-12 1308,-6 1314,0 1320,0 1320,0 1845,0 1845,0 1851,0 1857,-6 1857,-12 1857,-12 1857,-24 1857,-24 1857,-30 1851,-36 1845,-36"/>
<text text-anchor="middle" x="1582.5" y="-14.3" font-family="Arial" font-size="14.00">The student can illustrate and label the relationship between the fish and its environment.</text>
</g>
<!-- n3&#45;&gt;n9 -->
<g id="edge8" class="edge">
<title>n3&#45;&gt;n9</title>
<path fill="none" stroke="black" d="M1680.2,-121.81C1660.7,-101.31 1628,-66.91 1605.9,-43.6"/>
<polygon fill="black" stroke="black" points="1608.23,-40.98 1598.8,-36.16 1603.17,-45.81 1608.23,-40.98"/>
</g>
<!-- n12 -->
<g id="node10" class="node">
<title>n12</title>
<path fill="palegreen" stroke="black" d="M2462,-36C2462,-36 1927,-36 1927,-36 1921,-36 1915,-30 1915,-24 1915,-24 1915,-12 1915,-12 1915,-6 1921,0 1927,0 1927,0 2462,0 2462,0 2468,0 2474,-6 2474,-12 2474,-12 2474,-24 2474,-24 2474,-30 2468,-36 2462,-36"/>
<text text-anchor="middle" x="2194.5" y="-14.3" font-family="Arial" font-size="14.00">The student can show how the fish is part of a system with its habitat and other organisms.</text>
</g>
<!-- n3&#45;&gt;n12 -->
<g id="edge9" class="edge">
<title>n3&#45;&gt;n12</title>
<path fill="none" stroke="black" d="M1736.8,-129.28C1818.8,-109.53 2006.2,-64.38 2114,-38.39"/>
<polygon fill="black" stroke="black" points="2114.99,-41.75 2123.9,-36.02 2113.36,-34.95 2114.99,-41.75"/>
</g>
<!-- n4&#45;&gt;n7 -->
<g id="edge10" class="edge">
<title>n4&#45;&gt;n7</title>
<path fill="none" stroke="black" d="M1365.7,-127.82C1298.9,-107.53 1157,-64.4 1073.2,-38.96"/>
<polygon fill="black" stroke="black" points="1074.09,-35.57 1063.5,-36.02 1072.06,-42.27 1074.09,-35.57"/>
</g>
<!-- n8 -->
<g id="node11" class="node">
<title>n8</title>
<path fill="palegreen" stroke="black" d="M3068.5,-36C3068.5,-36 2544.5,-36 2544.5,-36 2538.5,-36 2532.5,-30 2532.5,-24 2532.5,-24 2532.5,-12 2532.5,-12 2532.5,-6 2538.5,0 2544.5,0 2544.5,0 3068.5,0 3068.5,0 3074.5,0 3080.5,-6 3080.5,-12 3080.5,-12 3080.5,-24 3080.5,-24 3080.5,-30 3074.5,-36 3068.5,-36"/>
<text text-anchor="middle" x="2806.5" y="-14.3" font-family="Arial" font-size="14.00">The student can draw and label the needs of the fish in its habitat, like water and oxygen.</text>
</g>
<!-- n5&#45;&gt;n8 -->
<g id="edge11" class="edge">
<title>n5&#45;&gt;n8</title>
<path fill="none" stroke="black" d="M2378.6,-123.37C2467.9,-101.59 2629.7,-62.11 2726.8,-38.45"/>
<polygon fill="black" stroke="black" points="2727.62,-41.85 2736.5,-36.07 2725.95,-35.05 2727.62,-41.85"/>
</g>
<!-- n6&#45;&gt;n8 -->
<g id="edge12" class="edge">
<title>n6&#45;&gt;n8</title>
<path fill="none" stroke="black" d="M2708,-121.81C2727.6,-101.31 2760.6,-66.91 2782.9,-43.6"/>
<polygon fill="black" stroke="black" points="2785.66,-45.78 2790.1,-36.16 2780.63,-40.91 2785.66,-45.78"/>
</g>
<!-- n10 -->
<g id="node12" class="node">
<title>n10</title>
<polygon fill="#f28e8e" stroke="black" points="3296.5,-158 2776.5,-158 2776.5,-122 3296.5,-122 3296.5,-158"/>
<text text-anchor="middle" x="3036.5" y="-136.3" font-family="Arial" font-size="14.00">Student shows various elements of habitat but may need help with accurate labeling</text>
</g>
<!-- n13 -->
<g id="node13" class="node">
<title>n13</title>
<polygon fill="lightcoral" stroke="black" points="3036.5,-280 2729.5,-262 3036.5,-244 3343.5,-262 3036.5,-280"/>
<text text-anchor="middle" x="3036.5" y="-258.3" font-family="Arial" font-size="14.00">Labels are slightly misplaced or inconsistently placed</text>
</g>
<!-- n13&#45;&gt;n10 -->
<g id="edge13" class="edge">
<title>n13&#45;&gt;n10</title>
<path fill="none" stroke="black" d="M3036.5,-243.81C3036.5,-224.11 3036.5,-191.58 3036.5,-168.39"/>
<polygon fill="black" stroke="black" points="3040,-168.16 3036.5,-158.16 3033,-168.16 3040,-168.16"/>
</g>
</g>
</svg>
