<?xml version="1.0" encoding="UTF-8" standalone="no"?>
<!DOCTYPE svg PUBLIC "-//W3C//DTD SVG 1.1//EN"
 "http://www.w3.org/Graphics/SVG/1.1/DTD/svg11.dtd">
<!-- Generated by graphviz version 2.43.0 (0)
 -->
<!-- Pages: 1 -->
<svg width="1335pt" height="410pt"
 viewBox="0.00 0.00 1334.50 410.00" xmlns="http://www.w3.org/2000/svg" xmlns:xlink="http://www.w3.org/1999/xlink">
<g id="graph0" class="graph" transform="scale(1 1) rotate(0) translate(4 406)">
<polygon fill="white" stroke="transparent" points="-4,4 -4,-406 1330.5,-406 1330.5,4 -4,4"/>
<!-- n1 -->
<g id="node1" class="node">
<title>n1</title>
<polygon fill="lightblue" stroke="black" points="874,-384 762.5,-402 539.5,-402 428,-384 539.5,-366 762.5,-366 874,-384"/>
<text text-anchor="middle" x="651" y="-380.3" font-family="Arial" font-size="14.00">Draw a string telephone between two students.</text>
</g>
<!-- n2 -->
<g id="node2" class="node">
<title>n2</title>
<polygon fill="#fffdd0" stroke="black" points="436,-280 218,-280 218,-244 436,-244 436,-280"/>
<text text-anchor="middle" x="327" y="-258.3" font-family="Arial" font-size="14.00">Two stick figures labeled &#39;student&#39;</text>
</g>
<!-- n1&#45;&gt;n2 -->
<g id="edge1" class="edge">
<title>n1&#45;&gt;n2</title>
<path fill="none" stroke="black" d="M604.92,-365.93C546.38,-344.25 445.43,-306.86 382.65,-283.61"/>
<polygon fill="black" stroke="black" points="383.51,-280.2 372.92,-280.01 381.08,-286.76 383.51,-280.2"/>
</g>
<!-- n3 -->
<g id="node3" class="node">
<title>n3</title>
<polygon fill="#fffdd0" stroke="black" points="745,-280 557,-280 557,-244 745,-244 745,-280"/>
<text text-anchor="middle" x="651" y="-258.3" font-family="Arial" font-size="14.00">A straight line labeled &#39;string&#39;</text>
</g>
<!-- n1&#45;&gt;n3 -->
<g id="edge2" class="edge">
<title>n1&#45;&gt;n3</title>
<path fill="none" stroke="black" d="M651,-365.81C651,-346.11 651,-313.58 651,-290.39"/>
<polygon fill="black" stroke="black" points="654.5,-290.16 651,-280.16 647.5,-290.16 654.5,-290.16"/>
</g>
<!-- n4 -->
<g id="node4" class="node">
<title>n4</title>
<polygon fill="#fffdd0" stroke="black" points="1107.5,-280 950.5,-280 950.5,-244 1107.5,-244 1107.5,-280"/>
<text text-anchor="middle" x="1029" y="-258.3" font-family="Arial" font-size="14.00">Cups held near mouths</text>
</g>
<!-- n1&#45;&gt;n4 -->
<g id="edge3" class="edge">
<title>n1&#45;&gt;n4</title>
<path fill="none" stroke="black" d="M704.76,-365.93C773.62,-344.07 892.77,-306.25 965.87,-283.04"/>
<polygon fill="black" stroke="black" points="966.95,-286.37 975.43,-280.01 964.84,-279.69 966.95,-286.37"/>
</g>
<!-- n5 -->
<g id="node5" class="node">
<title>n5</title>
<path fill="palegreen" stroke="black" d="M390,-158C390,-158 12,-158 12,-158 6,-158 0,-152 0,-146 0,-146 0,-134 0,-134 0,-128 6,-122 12,-122 12,-122 390,-122 390,-122 396,-122 402,-128 402,-134 402,-134 402,-146 402,-146 402,-152 396,-158 390,-158"/>
<text text-anchor="middle" x="201" y="-136.3" font-family="Arial" font-size="14.00">Understand that string connects two students for communication</text>
</g>
<!-- n2&#45;&gt;n5 -->
<g id="edge4" class="edge">
<title>n2&#45;&gt;n5</title>
<path fill="none" stroke="black" d="M308.95,-243.81C287.33,-223.22 250.99,-188.61 226.52,-165.3"/>
<polygon fill="black" stroke="black" points="228.68,-162.52 219.02,-158.16 223.85,-167.59 228.68,-162.52"/>
</g>
<!-- n3&#45;&gt;n5 -->
<g id="edge5" class="edge">
<title>n3&#45;&gt;n5</title>
<path fill="none" stroke="black" d="M587,-243.93C504.53,-221.94 361.44,-183.78 274.56,-160.62"/>
<polygon fill="black" stroke="black" points="275.34,-157.21 264.78,-158.01 273.54,-163.97 275.34,-157.21"/>
</g>
<!-- n6 -->
<g id="node6" class="node">
<title>n6</title>
<polygon fill="lightcoral" stroke="black" points="715,-158 460.29,-140 715,-122 969.71,-140 715,-158"/>
<text text-anchor="middle" x="715" y="-136.3" font-family="Arial" font-size="14.00">Did not include sound waves or explanation</text>
</g>
<!-- n3&#45;&gt;n6 -->
<g id="edge6" class="edge">
<title>n3&#45;&gt;n6</title>
<path fill="none" stroke="black" d="M660.17,-243.81C670.98,-223.53 689.06,-189.64 701.48,-166.35"/>
<polygon fill="black" stroke="black" points="704.64,-167.86 706.26,-157.39 698.46,-164.57 704.64,-167.86"/>
</g>
<!-- n7 -->
<g id="node7" class="node">
<title>n7</title>
<path fill="palegreen" stroke="black" d="M1314.5,-158C1314.5,-158 1039.5,-158 1039.5,-158 1033.5,-158 1027.5,-152 1027.5,-146 1027.5,-146 1027.5,-134 1027.5,-134 1027.5,-128 1033.5,-122 1039.5,-122 1039.5,-122 1314.5,-122 1314.5,-122 1320.5,-122 1326.5,-128 1326.5,-134 1326.5,-134 1326.5,-146 1326.5,-146 1326.5,-152 1320.5,-158 1314.5,-158"/>
<text text-anchor="middle" x="1177" y="-136.3" font-family="Arial" font-size="14.00">Label the cups and string as parts of the device</text>
</g>
<!-- n4&#45;&gt;n7 -->
<g id="edge7" class="edge">
<title>n4&#45;&gt;n7</title>
<path fill="none" stroke="black" d="M1050.2,-243.81C1075.8,-223.04 1119,-188.01 1147.8,-164.7"/>
<polygon fill="black" stroke="black" points="1150.27,-167.2 1155.8,-158.16 1145.84,-161.78 1150.27,-167.2"/>
</g>
<!-- n8 -->
<g id="node8" class="node">
<title>n8</title>
<polygon fill="#f28e8e" stroke="black" points="681,-36 407,-36 407,0 681,0 681,-36"/>
<text text-anchor="middle" x="544" y="-14.3" font-family="Arial" font-size="14.00">Add sound waves traveling along the string</text>
</g>
<!-- n6&#45;&gt;n8 -->
<g id="edge8" class="edge">
<title>n6&#45;&gt;n8</title>
<path fill="none" stroke="black" d="M692.64,-123.31C663.02,-102.52 610.53,-65.69 576.52,-41.82"/>
<polygon fill="black" stroke="black" points="578.49,-38.92 568.29,-36.05 574.47,-44.66 578.49,-38.92"/>
</g>
<!-- n9 -->
<g id="node9" class="node">
<title>n9</title>
<polygon fill="#f28e8e" stroke="black" points="1032.5,-36 739.5,-36 739.5,0 1032.5,0 1032.5,-36"/>
<text text-anchor="middle" x="886" y="-14.3" font-family="Arial" font-size="14.00">Explain how the design allows communication</text>
</g>
<!-- n6&#45;&gt;n9 -->
<g id="edge9" class="edge">
<title>n6&#45;&gt;n9</title>
<path fill="none" stroke="black" d="M737.36,-123.31C766.98,-102.52 819.47,-65.69 853.48,-41.82"/>
<polygon fill="black" stroke="black" points="855.53,-44.66 861.71,-36.05 851.51,-38.92 855.53,-44.66"/>
</g>
</g>
</svg>
