<?xml version="1.0" encoding="UTF-8" standalone="no"?>
<!DOCTYPE svg PUBLIC "-//W3C//DTD SVG 1.1//EN"
 "http://www.w3.org/Graphics/SVG/1.1/DTD/svg11.dtd">
<!-- Generated by graphviz version 2.43.0 (0)
 -->
<!-- Pages: 1 -->
<svg width="1460pt" height="410pt"
 viewBox="0.00 0.00 1459.50 410.00" xmlns="http://www.w3.org/2000/svg" xmlns:xlink="http://www.w3.org/1999/xlink">
<g id="graph0" class="graph" transform="scale(1 1) rotate(0) translate(4 406)">
<polygon fill="white" stroke="transparent" points="-4,4 -4,-406 1455.5,-406 1455.5,4 -4,4"/>
<!-- n1 -->
<g id="node1" class="node">
<title>n1</title>
<polygon fill="lightblue" stroke="black" points="944.5,-384 833,-402 610,-402 498.5,-384 610,-366 833,-366 944.5,-384"/>
<text text-anchor="middle" x="721.5" y="-380.3" font-family="Arial" font-size="14.00">Draw a string telephone between two students.</text>
</g>
<!-- n2 -->
<g id="node2" class="node">
<title>n2</title>
<polygon fill="#fffdd0" stroke="black" points="443.5,-280 135.5,-280 135.5,-244 443.5,-244 443.5,-280"/>
<text text-anchor="middle" x="289.5" y="-258.3" font-family="Arial" font-size="14.00">Two students holding cups connected by a string</text>
</g>
<!-- n1&#45;&gt;n2 -->
<g id="edge1" class="edge">
<title>n1&#45;&gt;n2</title>
<path fill="none" stroke="black" d="M660.06,-365.93C580.97,-343.96 443.8,-305.86 360.37,-282.69"/>
<polygon fill="black" stroke="black" points="361.29,-279.31 350.72,-280.01 359.42,-286.06 361.29,-279.31"/>
</g>
<!-- n3 -->
<g id="node3" class="node">
<title>n3</title>
<polygon fill="#fffdd0" stroke="black" points="862.5,-280 580.5,-280 580.5,-244 862.5,-244 862.5,-280"/>
<text text-anchor="middle" x="721.5" y="-258.3" font-family="Arial" font-size="14.00">Arrows along the string to show sound travel</text>
</g>
<!-- n1&#45;&gt;n3 -->
<g id="edge2" class="edge">
<title>n1&#45;&gt;n3</title>
<path fill="none" stroke="black" d="M721.5,-365.81C721.5,-346.11 721.5,-313.58 721.5,-290.39"/>
<polygon fill="black" stroke="black" points="725,-290.16 721.5,-280.16 718,-290.16 725,-290.16"/>
</g>
<!-- n4 -->
<g id="node4" class="node">
<title>n4</title>
<polygon fill="#fffdd0" stroke="black" points="1323,-280 998,-280 998,-244 1323,-244 1323,-280"/>
<text text-anchor="middle" x="1160.5" y="-258.3" font-family="Arial" font-size="14.00">Emphasis on cups and string with plain background</text>
</g>
<!-- n1&#45;&gt;n4 -->
<g id="edge3" class="edge">
<title>n1&#45;&gt;n4</title>
<path fill="none" stroke="black" d="M783.93,-365.93C864.31,-343.96 1003.7,-305.86 1088.5,-282.69"/>
<polygon fill="black" stroke="black" points="1089.58,-286.02 1098.3,-280.01 1087.73,-279.27 1089.58,-286.02"/>
</g>
<!-- n5 -->
<g id="node5" class="node">
<title>n5</title>
<path fill="palegreen" stroke="black" d="M407,-158C407,-158 12,-158 12,-158 6,-158 0,-152 0,-146 0,-146 0,-134 0,-134 0,-128 6,-122 12,-122 12,-122 407,-122 407,-122 413,-122 419,-128 419,-134 419,-134 419,-146 419,-146 419,-152 413,-158 407,-158"/>
<text text-anchor="middle" x="209.5" y="-136.3" font-family="Arial" font-size="14.00">String telephone uses a string and two cups to communicate sound</text>
</g>
<!-- n2&#45;&gt;n5 -->
<g id="edge4" class="edge">
<title>n2&#45;&gt;n5</title>
<path fill="none" stroke="black" d="M278.04,-243.81C264.55,-223.58 242.04,-189.81 226.51,-166.52"/>
<polygon fill="black" stroke="black" points="229.4,-164.54 220.94,-158.16 223.57,-168.42 229.4,-164.54"/>
</g>
<!-- n6 -->
<g id="node6" class="node">
<title>n6</title>
<polygon fill="lightcoral" stroke="black" points="721.5,-158 477,-140 721.5,-122 966,-140 721.5,-158"/>
<text text-anchor="middle" x="721.5" y="-136.3" font-family="Arial" font-size="14.00">Inadequate representation of sound travel</text>
</g>
<!-- n3&#45;&gt;n6 -->
<g id="edge5" class="edge">
<title>n3&#45;&gt;n6</title>
<path fill="none" stroke="black" d="M721.5,-243.81C721.5,-224.11 721.5,-191.58 721.5,-168.39"/>
<polygon fill="black" stroke="black" points="725,-168.16 721.5,-158.16 718,-168.16 725,-168.16"/>
</g>
<!-- n7 -->
<g id="node7" class="node">
<title>n7</title>
<path fill="palegreen" stroke="black" d="M1439.5,-158C1439.5,-158 1035.5,-158 1035.5,-158 1029.5,-158 1023.5,-152 1023.5,-146 1023.5,-146 1023.5,-134 1023.5,-134 1023.5,-128 1029.5,-122 1035.5,-122 1035.5,-122 1439.5,-122 1439.5,-122 1445.5,-122 1451.5,-128 1451.5,-134 1451.5,-134 1451.5,-146 1451.5,-146 1451.5,-152 1445.5,-158 1439.5,-158"/>
<text text-anchor="middle" x="1237.5" y="-136.3" font-family="Arial" font-size="14.00">Correctly uses provided resources like string and cups, avoids extras</text>
</g>
<!-- n4&#45;&gt;n7 -->
<g id="edge6" class="edge">
<title>n4&#45;&gt;n7</title>
<path fill="none" stroke="black" d="M1171.5,-243.81C1184.5,-223.67 1206,-190.1 1220.9,-166.83"/>
<polygon fill="black" stroke="black" points="1224.01,-168.46 1226.5,-158.16 1218.13,-164.66 1224.01,-168.46"/>
</g>
<!-- n8 -->
<g id="node8" class="node">
<title>n8</title>
<polygon fill="#f28e8e" stroke="black" points="881,-36 562,-36 562,0 881,0 881,-36"/>
<text text-anchor="middle" x="721.5" y="-14.3" font-family="Arial" font-size="14.00">Clarify how sound vibration moves along the string</text>
</g>
<!-- n6&#45;&gt;n8 -->
<g id="edge7" class="edge">
<title>n6&#45;&gt;n8</title>
<path fill="none" stroke="black" d="M721.5,-121.81C721.5,-102.11 721.5,-69.58 721.5,-46.39"/>
<polygon fill="black" stroke="black" points="725,-46.16 721.5,-36.16 718,-46.16 725,-46.16"/>
</g>
</g>
</svg>
