<?xml version="1.0" encoding="UTF-8" standalone="no"?>
<!DOCTYPE svg PUBLIC "-//W3C//DTD SVG 1.1//EN"
 "http://www.w3.org/Graphics/SVG/1.1/DTD/svg11.dtd">
<!-- Generated by graphviz version 2.43.0 (0)
 -->
<!-- Pages: 1 -->
<svg width="1493pt" height="410pt"
 viewBox="0.00 0.00 1492.50 410.00" xmlns="http://www.w3.org/2000/svg" xmlns:xlink="http://www.w3.org/1999/xlink">
<g id="graph0" class="graph" transform="scale(1 1) rotate(0) translate(4 406)">
<polygon fill="white" stroke="transparent" points="-4,4 -4,-406 1488.5,-406 1488.5,4 -4,4"/>
<!-- n1 -->
<g id="node1" class="node">
<title>n1</title>
<polygon fill="lightblue" stroke="black" points="1004,-384 873.75,-402 613.25,-402 483,-384 613.25,-366 873.75,-366 1004,-384"/>
<text text-anchor="middle" x="743.5" y="-380.3" font-family="Arial" font-size="14.00">Draw two habitats and the different living things in each</text>
</g>
<!-- n2 -->
<g id="node2" class="node">
<title>n2</title>
<polygon fill="#fffdd0" stroke="black" points="720.5,-280 454.5,-280 454.5,-244 720.5,-244 720.5,-280"/>
<text text-anchor="middle" x="587.5" y="-258.3" font-family="Arial" font-size="14.00">Forest with trees, grasses, birds, squirrels</text>
</g>
<!-- n1&#45;&gt;n2 -->
<g id="edge1" class="edge">
<title>n1&#45;&gt;n2</title>
<path fill="none" stroke="black" d="M721.15,-365.81C694.04,-344.96 648.22,-309.71 617.92,-286.4"/>
<polygon fill="black" stroke="black" points="619.87,-283.48 609.81,-280.16 615.6,-289.03 619.87,-283.48"/>
</g>
<!-- n3 -->
<g id="node3" class="node">
<title>n3</title>
<polygon fill="#fffdd0" stroke="black" points="1020,-280 779,-280 779,-244 1020,-244 1020,-280"/>
<text text-anchor="middle" x="899.5" y="-258.3" font-family="Arial" font-size="14.00">Pond with aquatic plants, fish, insects</text>
</g>
<!-- n1&#45;&gt;n3 -->
<g id="edge2" class="edge">
<title>n1&#45;&gt;n3</title>
<path fill="none" stroke="black" d="M765.85,-365.81C792.96,-344.96 838.78,-309.71 869.08,-286.4"/>
<polygon fill="black" stroke="black" points="871.4,-289.03 877.19,-280.16 867.13,-283.48 871.4,-289.03"/>
</g>
<!-- n4 -->
<g id="node4" class="node">
<title>n4</title>
<path fill="palegreen" stroke="black" d="M407,-158C407,-158 12,-158 12,-158 6,-158 0,-152 0,-146 0,-146 0,-134 0,-134 0,-128 6,-122 12,-122 12,-122 407,-122 407,-122 413,-122 419,-128 419,-134 419,-134 419,-146 419,-146 419,-152 413,-158 407,-158"/>
<text text-anchor="middle" x="209.5" y="-136.3" font-family="Arial" font-size="14.00">Understands the diversity of plant and animal life in a forest habitat.</text>
</g>
<!-- n2&#45;&gt;n4 -->
<g id="edge3" class="edge">
<title>n2&#45;&gt;n4</title>
<path fill="none" stroke="black" d="M533.74,-243.93C464.88,-222.07 345.73,-184.25 272.63,-161.04"/>
<polygon fill="black" stroke="black" points="273.66,-157.69 263.07,-158.01 271.55,-164.37 273.66,-157.69"/>
</g>
<!-- n6 -->
<g id="node5" class="node">
<title>n6</title>
<polygon fill="lightcoral" stroke="black" points="743.5,-158 476.89,-140 743.5,-122 1010.11,-140 743.5,-158"/>
<text text-anchor="middle" x="743.5" y="-136.3" font-family="Arial" font-size="14.00">Misses some labels or simplifies background.</text>
</g>
<!-- n2&#45;&gt;n6 -->
<g id="edge4" class="edge">
<title>n2&#45;&gt;n6</title>
<path fill="none" stroke="black" d="M609.85,-243.81C637.57,-222.48 684.87,-186.1 715.12,-162.83"/>
<polygon fill="black" stroke="black" points="717.39,-165.5 723.18,-156.63 713.12,-159.95 717.39,-165.5"/>
</g>
<!-- n3&#45;&gt;n6 -->
<g id="edge5" class="edge">
<title>n3&#45;&gt;n6</title>
<path fill="none" stroke="black" d="M877.15,-243.81C849.43,-222.48 802.13,-186.1 771.88,-162.83"/>
<polygon fill="black" stroke="black" points="773.88,-159.95 763.82,-156.63 769.61,-165.5 773.88,-159.95"/>
</g>
<!-- n5 -->
<g id="node6" class="node">
<title>n5</title>
<path fill="palegreen" stroke="black" d="M1472.5,-158C1472.5,-158 1080.5,-158 1080.5,-158 1074.5,-158 1068.5,-152 1068.5,-146 1068.5,-146 1068.5,-134 1068.5,-134 1068.5,-128 1074.5,-122 1080.5,-122 1080.5,-122 1472.5,-122 1472.5,-122 1478.5,-122 1484.5,-128 1484.5,-134 1484.5,-134 1484.5,-146 1484.5,-146 1484.5,-152 1478.5,-158 1472.5,-158"/>
<text text-anchor="middle" x="1276.5" y="-136.3" font-family="Arial" font-size="14.00">Understands the diversity of plant and animal life in a pond habitat.</text>
</g>
<!-- n3&#45;&gt;n5 -->
<g id="edge6" class="edge">
<title>n3&#45;&gt;n5</title>
<path fill="none" stroke="black" d="M953.11,-243.93C1021.8,-222.07 1140.6,-184.25 1213.5,-161.04"/>
<polygon fill="black" stroke="black" points="1214.62,-164.36 1223.1,-158.01 1212.51,-157.68 1214.62,-164.36"/>
</g>
<!-- n7 -->
<g id="node7" class="node">
<title>n7</title>
<polygon fill="#f28e8e" stroke="black" points="996,-36 491,-36 491,0 996,0 996,-36"/>
<text text-anchor="middle" x="743.5" y="-14.3" font-family="Arial" font-size="14.00">Ensure all elements are consistently labeled and background details are included.</text>
</g>
<!-- n6&#45;&gt;n7 -->
<g id="edge7" class="edge">
<title>n6&#45;&gt;n7</title>
<path fill="none" stroke="black" d="M743.5,-121.81C743.5,-102.11 743.5,-69.58 743.5,-46.39"/>
<polygon fill="black" stroke="black" points="747,-46.16 743.5,-36.16 740,-46.16 747,-46.16"/>
</g>
</g>
</svg>
