<?xml version="1.0" encoding="UTF-8" standalone="no"?>
<!DOCTYPE svg PUBLIC "-//W3C//DTD SVG 1.1//EN"
 "http://www.w3.org/Graphics/SVG/1.1/DTD/svg11.dtd">
<!-- Generated by graphviz version 2.43.0 (0)
 -->
<!-- Pages: 1 -->
<svg width="2019pt" height="410pt"
 viewBox="0.00 0.00 2018.50 410.00" xmlns="http://www.w3.org/2000/svg" xmlns:xlink="http://www.w3.org/1999/xlink">
<g id="graph0" class="graph" transform="scale(1 1) rotate(0) translate(4 406)">
<polygon fill="white" stroke="transparent" points="-4,4 -4,-406 2014.5,-406 2014.5,4 -4,4"/>
<!-- n1 -->
<g id="node1" class="node">
<title>n1</title>
<polygon fill="lightblue" stroke="black" points="1274.32,-384 1151.91,-402 907.09,-402 784.68,-384 907.09,-366 1151.91,-366 1274.32,-384"/>
<text text-anchor="middle" x="1029.5" y="-380.3" font-family="Arial" font-size="14.00">Draw a habitat and the different living things in each</text>
</g>
<!-- n2 -->
<g id="node2" class="node">
<title>n2</title>
<polygon fill="#fffdd0" stroke="black" points="1001,-280 720,-280 720,-244 1001,-244 1001,-280"/>
<text text-anchor="middle" x="860.5" y="-258.3" font-family="Arial" font-size="14.00">Forest scene with trees, grass, and squirrels</text>
</g>
<!-- n1&#45;&gt;n2 -->
<g id="edge1" class="edge">
<title>n1&#45;&gt;n2</title>
<path fill="none" stroke="black" d="M1005.3,-365.81C975.79,-344.87 925.86,-309.41 893.03,-286.1"/>
<polygon fill="black" stroke="black" points="894.85,-283.1 884.67,-280.16 890.79,-288.81 894.85,-283.1"/>
</g>
<!-- n3 -->
<g id="node3" class="node">
<title>n3</title>
<polygon fill="#fffdd0" stroke="black" points="1340,-280 1059,-280 1059,-244 1340,-244 1340,-280"/>
<text text-anchor="middle" x="1199.5" y="-258.3" font-family="Arial" font-size="14.00">Pond scene with water, fish, frog, and plants</text>
</g>
<!-- n1&#45;&gt;n3 -->
<g id="edge2" class="edge">
<title>n1&#45;&gt;n3</title>
<path fill="none" stroke="black" d="M1053.9,-365.81C1083.5,-344.87 1133.8,-309.41 1166.8,-286.1"/>
<polygon fill="black" stroke="black" points="1169.06,-288.79 1175.2,-280.16 1165.01,-283.08 1169.06,-288.79"/>
</g>
<!-- n4 -->
<g id="node4" class="node">
<title>n4</title>
<path fill="palegreen" stroke="black" d="M1998.5,-158C1998.5,-158 1668.5,-158 1668.5,-158 1662.5,-158 1656.5,-152 1656.5,-146 1656.5,-146 1656.5,-134 1656.5,-134 1656.5,-128 1662.5,-122 1668.5,-122 1668.5,-122 1998.5,-122 1998.5,-122 2004.5,-122 2010.5,-128 2010.5,-134 2010.5,-134 2010.5,-146 2010.5,-146 2010.5,-152 2004.5,-158 1998.5,-158"/>
<text text-anchor="middle" x="1833.5" y="-136.3" font-family="Arial" font-size="14.00">Understands different types of habitats (forest and pond)</text>
</g>
<!-- n2&#45;&gt;n4 -->
<g id="edge3" class="edge">
<title>n2&#45;&gt;n4</title>
<path fill="none" stroke="black" d="M998.36,-244C1180.1,-221.59 1498.5,-182.31 1685.3,-159.28"/>
<polygon fill="black" stroke="black" points="1685.91,-162.73 1695.4,-158.03 1685.05,-155.78 1685.91,-162.73"/>
</g>
<!-- n5 -->
<g id="node5" class="node">
<title>n5</title>
<path fill="palegreen" stroke="black" d="M289,-158C289,-158 12,-158 12,-158 6,-158 0,-152 0,-146 0,-146 0,-134 0,-134 0,-128 6,-122 12,-122 12,-122 289,-122 289,-122 295,-122 301,-128 301,-134 301,-134 301,-146 301,-146 301,-152 295,-158 289,-158"/>
<text text-anchor="middle" x="150.5" y="-136.3" font-family="Arial" font-size="14.00">Understands diversity of living things in habitats</text>
</g>
<!-- n2&#45;&gt;n5 -->
<g id="edge4" class="edge">
<title>n2&#45;&gt;n5</title>
<path fill="none" stroke="black" d="M759.9,-244C628.16,-221.73 397.94,-182.82 261.32,-159.73"/>
<polygon fill="black" stroke="black" points="261.68,-156.24 251.24,-158.03 260.52,-163.14 261.68,-156.24"/>
</g>
<!-- n6 -->
<g id="node6" class="node">
<title>n6</title>
<polygon fill="lightcoral" stroke="black" points="629.5,-158 359.04,-140 629.5,-122 899.96,-140 629.5,-158"/>
<text text-anchor="middle" x="629.5" y="-136.3" font-family="Arial" font-size="14.00">Limited by representing only visible organisms</text>
</g>
<!-- n2&#45;&gt;n6 -->
<g id="edge5" class="edge">
<title>n2&#45;&gt;n6</title>
<path fill="none" stroke="black" d="M827.4,-243.81C785.13,-221.84 712.11,-183.91 667.57,-160.78"/>
<polygon fill="black" stroke="black" points="669.01,-157.58 658.52,-156.08 665.78,-163.8 669.01,-157.58"/>
</g>
<!-- n8 -->
<g id="node7" class="node">
<title>n8</title>
<path fill="palegreen" stroke="black" d="M1091,-158C1091,-158 970,-158 970,-158 964,-158 958,-152 958,-146 958,-146 958,-134 958,-134 958,-128 964,-122 970,-122 970,-122 1091,-122 1091,-122 1097,-122 1103,-128 1103,-134 1103,-134 1103,-146 1103,-146 1103,-152 1097,-158 1091,-158"/>
<text text-anchor="middle" x="1030.5" y="-136.3" font-family="Arial" font-size="14.00">Labels mostly correct</text>
</g>
<!-- n2&#45;&gt;n8 -->
<g id="edge6" class="edge">
<title>n2&#45;&gt;n8</title>
<path fill="none" stroke="black" d="M884.86,-243.81C914.52,-222.87 964.75,-187.41 997.77,-164.1"/>
<polygon fill="black" stroke="black" points="1000.04,-166.78 1006.2,-158.16 996.01,-161.06 1000.04,-166.78"/>
</g>
<!-- n9 -->
<g id="node8" class="node">
<title>n9</title>
<polygon fill="lightcoral" stroke="black" points="1379.5,-158 1160.5,-140 1379.5,-122 1598.5,-140 1379.5,-158"/>
<text text-anchor="middle" x="1379.5" y="-136.3" font-family="Arial" font-size="14.00">Occasional mislabeling of organisms</text>
</g>
<!-- n2&#45;&gt;n9 -->
<g id="edge7" class="edge">
<title>n2&#45;&gt;n9</title>
<path fill="none" stroke="black" d="M934.03,-244C1036,-220.42 1218.6,-178.2 1315.3,-155.83"/>
<polygon fill="black" stroke="black" points="1316.33,-159.18 1325.3,-153.54 1314.77,-152.36 1316.33,-159.18"/>
</g>
<!-- n3&#45;&gt;n4 -->
<g id="edge8" class="edge">
<title>n3&#45;&gt;n4</title>
<path fill="none" stroke="black" d="M1289.3,-244C1406.6,-221.8 1611.3,-183.05 1733.4,-159.94"/>
<polygon fill="black" stroke="black" points="1734.32,-163.33 1743.5,-158.03 1733.02,-156.45 1734.32,-163.33"/>
</g>
<!-- n3&#45;&gt;n5 -->
<g id="edge9" class="edge">
<title>n3&#45;&gt;n5</title>
<path fill="none" stroke="black" d="M1058.8,-244.91C864.13,-222.64 513.46,-182.52 309.48,-159.19"/>
<polygon fill="black" stroke="black" points="309.6,-155.68 299.27,-158.02 308.81,-162.64 309.6,-155.68"/>
</g>
<!-- n3&#45;&gt;n6 -->
<g id="edge10" class="edge">
<title>n3&#45;&gt;n6</title>
<path fill="none" stroke="black" d="M1118.7,-244C1007.2,-220.51 807.62,-178.5 701.11,-156.08"/>
<polygon fill="black" stroke="black" points="701.61,-152.61 691.1,-153.97 700.16,-159.46 701.61,-152.61"/>
</g>
<!-- n3&#45;&gt;n8 -->
<g id="edge11" class="edge">
<title>n3&#45;&gt;n8</title>
<path fill="none" stroke="black" d="M1175.3,-243.81C1145.8,-222.87 1095.9,-187.41 1063,-164.1"/>
<polygon fill="black" stroke="black" points="1064.87,-161.13 1054.7,-158.16 1060.8,-166.83 1064.87,-161.13"/>
</g>
<!-- n3&#45;&gt;n9 -->
<g id="edge12" class="edge">
<title>n3&#45;&gt;n9</title>
<path fill="none" stroke="black" d="M1225.3,-243.81C1257.7,-222.18 1313.4,-185.07 1348.2,-161.85"/>
<polygon fill="black" stroke="black" points="1350.21,-164.71 1356.6,-156.26 1346.34,-158.89 1350.21,-164.71"/>
</g>
<!-- n7 -->
<g id="node9" class="node">
<title>n7</title>
<polygon fill="#f28e8e" stroke="black" points="840,-36 419,-36 419,0 840,0 840,-36"/>
<text text-anchor="middle" x="629.5" y="-14.3" font-family="Arial" font-size="14.00">Suggest exploring hidden biodiversity (e.g., insects, underwater life)</text>
</g>
<!-- n6&#45;&gt;n7 -->
<g id="edge13" class="edge">
<title>n6&#45;&gt;n7</title>
<path fill="none" stroke="black" d="M629.5,-121.81C629.5,-102.11 629.5,-69.58 629.5,-46.39"/>
<polygon fill="black" stroke="black" points="633,-46.16 629.5,-36.16 626,-46.16 633,-46.16"/>
</g>
<!-- n10 -->
<g id="node10" class="node">
<title>n10</title>
<polygon fill="#f28e8e" stroke="black" points="1484,-36 1275,-36 1275,0 1484,0 1484,-36"/>
<text text-anchor="middle" x="1379.5" y="-14.3" font-family="Arial" font-size="14.00">Encourage precise use of labels</text>
</g>
<!-- n9&#45;&gt;n10 -->
<g id="edge14" class="edge">
<title>n9&#45;&gt;n10</title>
<path fill="none" stroke="black" d="M1379.5,-121.81C1379.5,-102.11 1379.5,-69.58 1379.5,-46.39"/>
<polygon fill="black" stroke="black" points="1383,-46.16 1379.5,-36.16 1376,-46.16 1383,-46.16"/>
</g>
</g>
</svg>
