<?xml version="1.0" encoding="UTF-8" standalone="no"?>
<!DOCTYPE svg PUBLIC "-//W3C//DTD SVG 1.1//EN"
 "http://www.w3.org/Graphics/SVG/1.1/DTD/svg11.dtd">
<!-- Generated by graphviz version 2.43.0 (0)
 -->
<!-- Pages: 1 -->
<svg width="1053pt" height="410pt"
 viewBox="0.00 0.00 1053.00 410.00" xmlns="http://www.w3.org/2000/svg" xmlns:xlink="http://www.w3.org/1999/xlink">
<g id="graph0" class="graph" transform="scale(1 1) rotate(0) translate(4 406)">
<polygon fill="white" stroke="transparent" points="-4,4 -4,-406 1049,-406 1049,4 -4,4"/>
<!-- n1 -->
<g id="node1" class="node">
<title>n1</title>
<polygon fill="lightblue" stroke="black" points="628,-384 536,-402 352,-402 260,-384 352,-366 536,-366 628,-384"/>
<text text-anchor="middle" x="444" y="-380.3" font-family="Arial" font-size="14.00">Illustrate plants with and without water</text>
</g>
<!-- n2 -->
<g id="node2" class="node">
<title>n2</title>
<polygon fill="#fffdd0" stroke="black" points="270,-280 80,-280 80,-244 270,-244 270,-280"/>
<text text-anchor="middle" x="175" y="-258.3" font-family="Arial" font-size="14.00">Two plants with green leaves</text>
</g>
<!-- n1&#45;&gt;n2 -->
<g id="edge1" class="edge">
<title>n1&#45;&gt;n2</title>
<path fill="none" stroke="black" d="M405.74,-365.93C357.54,-344.43 274.71,-307.48 222.5,-284.19"/>
<polygon fill="black" stroke="black" points="223.68,-280.88 213.12,-280.01 220.83,-287.28 223.68,-280.88"/>
</g>
<!-- n3 -->
<g id="node3" class="node">
<title>n3</title>
<polygon fill="#fffdd0" stroke="black" points="560,-280 328,-280 328,-244 560,-244 560,-280"/>
<text text-anchor="middle" x="444" y="-258.3" font-family="Arial" font-size="14.00">Bright blue sky and large yellow sun</text>
</g>
<!-- n1&#45;&gt;n3 -->
<g id="edge2" class="edge">
<title>n1&#45;&gt;n3</title>
<path fill="none" stroke="black" d="M444,-365.81C444,-346.11 444,-313.58 444,-290.39"/>
<polygon fill="black" stroke="black" points="447.5,-290.16 444,-280.16 440.5,-290.16 447.5,-290.16"/>
</g>
<!-- n4 -->
<g id="node4" class="node">
<title>n4</title>
<polygon fill="#fffdd0" stroke="black" points="922,-280 618,-280 618,-244 922,-244 922,-280"/>
<text text-anchor="middle" x="770" y="-258.3" font-family="Arial" font-size="14.00">No visible difference between left and right plant</text>
</g>
<!-- n1&#45;&gt;n4 -->
<g id="edge3" class="edge">
<title>n1&#45;&gt;n4</title>
<path fill="none" stroke="black" d="M490.36,-365.93C549.38,-344.21 651.26,-306.71 714.39,-283.47"/>
<polygon fill="black" stroke="black" points="715.62,-286.75 723.8,-280.01 713.21,-280.18 715.62,-286.75"/>
</g>
<!-- n5 -->
<g id="node5" class="node">
<title>n5</title>
<path fill="palegreen" stroke="black" d="M338,-158C338,-158 12,-158 12,-158 6,-158 0,-152 0,-146 0,-146 0,-134 0,-134 0,-128 6,-122 12,-122 12,-122 338,-122 338,-122 344,-122 350,-128 350,-134 350,-134 350,-146 350,-146 350,-152 344,-158 338,-158"/>
<text text-anchor="middle" x="175" y="-136.3" font-family="Arial" font-size="14.00">Basic understanding of plant environment (sun and sky)</text>
</g>
<!-- n2&#45;&gt;n5 -->
<g id="edge4" class="edge">
<title>n2&#45;&gt;n5</title>
<path fill="none" stroke="black" d="M175,-243.81C175,-224.11 175,-191.58 175,-168.39"/>
<polygon fill="black" stroke="black" points="178.5,-168.16 175,-158.16 171.5,-168.16 178.5,-168.16"/>
</g>
<!-- n6 -->
<g id="node6" class="node">
<title>n6</title>
<polygon fill="lightcoral" stroke="black" points="770,-158 495,-140 770,-122 1045,-140 770,-158"/>
<text text-anchor="middle" x="770" y="-136.3" font-family="Arial" font-size="14.00">Misunderstanding of water&#39;s role in plant health</text>
</g>
<!-- n4&#45;&gt;n6 -->
<g id="edge5" class="edge">
<title>n4&#45;&gt;n6</title>
<path fill="none" stroke="black" d="M770,-243.81C770,-224.11 770,-191.58 770,-168.39"/>
<polygon fill="black" stroke="black" points="773.5,-168.16 770,-158.16 766.5,-168.16 773.5,-168.16"/>
</g>
<!-- n7 -->
<g id="node7" class="node">
<title>n7</title>
<polygon fill="#f28e8e" stroke="black" points="914,-36 626,-36 626,0 914,0 914,-36"/>
<text text-anchor="middle" x="770" y="-14.3" font-family="Arial" font-size="14.00">Include signs of wilting to show water scarcity</text>
</g>
<!-- n6&#45;&gt;n7 -->
<g id="edge6" class="edge">
<title>n6&#45;&gt;n7</title>
<path fill="none" stroke="black" d="M770,-121.81C770,-102.11 770,-69.58 770,-46.39"/>
<polygon fill="black" stroke="black" points="773.5,-46.16 770,-36.16 766.5,-46.16 773.5,-46.16"/>
</g>
</g>
</svg>
