<?xml version="1.0" encoding="UTF-8" standalone="no"?>
<!DOCTYPE svg PUBLIC "-//W3C//DTD SVG 1.1//EN"
 "http://www.w3.org/Graphics/SVG/1.1/DTD/svg11.dtd">
<!-- Generated by graphviz version 2.43.0 (0)
 -->
<!-- Pages: 1 -->
<svg width="2262pt" height="410pt"
 viewBox="0.00 0.00 2262.00 410.00" xmlns="http://www.w3.org/2000/svg" xmlns:xlink="http://www.w3.org/1999/xlink">
<g id="graph0" class="graph" transform="scale(1 1) rotate(0) translate(4 406)">
<polygon fill="white" stroke="transparent" points="-4,4 -4,-406 2258,-406 2258,4 -4,4"/>
<!-- n1 -->
<g id="node1" class="node">
<title>n1</title>
<polygon fill="lightblue" stroke="black" points="912.5,-384 821.25,-402 638.75,-402 547.5,-384 638.75,-366 821.25,-366 912.5,-384"/>
<text text-anchor="middle" x="730" y="-380.3" font-family="Arial" font-size="14.00">Draw reversible changes (ice melting)</text>
</g>
<!-- n2 -->
<g id="node2" class="node">
<title>n2</title>
<polygon fill="#fffdd0" stroke="black" points="222,-280 0,-280 0,-244 222,-244 222,-280"/>
<text text-anchor="middle" x="111" y="-258.3" font-family="Arial" font-size="14.00">Block of ice labeled &#39;ice&#39; with &#39;cold&#39;</text>
</g>
<!-- n1&#45;&gt;n2 -->
<g id="edge1" class="edge">
<title>n1&#45;&gt;n2</title>
<path fill="none" stroke="black" d="M642.3,-366C527.78,-343.8 327.93,-305.05 208.69,-281.94"/>
<polygon fill="black" stroke="black" points="209.31,-278.5 198.83,-280.03 207.98,-285.37 209.31,-278.5"/>
</g>
<!-- n3 -->
<g id="node3" class="node">
<title>n3</title>
<polygon fill="#fffdd0" stroke="black" points="539.5,-280 280.5,-280 280.5,-244 539.5,-244 539.5,-280"/>
<text text-anchor="middle" x="410" y="-258.3" font-family="Arial" font-size="14.00">Puddle of water labeled &#39;water&#39; with &#39;wet&#39;</text>
</g>
<!-- n1&#45;&gt;n3 -->
<g id="edge2" class="edge">
<title>n1&#45;&gt;n3</title>
<path fill="none" stroke="black" d="M684.49,-365.93C626.67,-344.25 526.97,-306.86 464.97,-283.61"/>
<polygon fill="black" stroke="black" points="465.94,-280.24 455.35,-280.01 463.49,-286.79 465.94,-280.24"/>
</g>
<!-- n4 -->
<g id="node4" class="node">
<title>n4</title>
<polygon fill="#fffdd0" stroke="black" points="862.5,-280 597.5,-280 597.5,-244 862.5,-244 862.5,-280"/>
<text text-anchor="middle" x="730" y="-258.3" font-family="Arial" font-size="14.00">Arrow indicating melting from ice to water</text>
</g>
<!-- n1&#45;&gt;n4 -->
<g id="edge3" class="edge">
<title>n1&#45;&gt;n4</title>
<path fill="none" stroke="black" d="M730,-365.81C730,-346.11 730,-313.58 730,-290.39"/>
<polygon fill="black" stroke="black" points="733.5,-290.16 730,-280.16 726.5,-290.16 733.5,-290.16"/>
</g>
<!-- n5 -->
<g id="node5" class="node">
<title>n5</title>
<polygon fill="#fffdd0" stroke="black" points="1254.5,-280 953.5,-280 953.5,-244 1254.5,-244 1254.5,-280"/>
<text text-anchor="middle" x="1104" y="-258.3" font-family="Arial" font-size="14.00">Arrow indicating freezing from water back to ice</text>
</g>
<!-- n1&#45;&gt;n5 -->
<g id="edge4" class="edge">
<title>n1&#45;&gt;n5</title>
<path fill="none" stroke="black" d="M783.19,-365.93C851.18,-344.12 968.73,-306.4 1041.1,-283.18"/>
<polygon fill="black" stroke="black" points="1042.54,-286.39 1051,-280.01 1040.41,-279.73 1042.54,-286.39"/>
</g>
<!-- n6 -->
<g id="node6" class="node">
<title>n6</title>
<polygon fill="#fffdd0" stroke="black" points="1876.5,-280 1679.5,-280 1679.5,-244 1876.5,-244 1876.5,-280"/>
<text text-anchor="middle" x="1778" y="-258.3" font-family="Arial" font-size="14.00">Sun symbol indicating heating</text>
</g>
<!-- n1&#45;&gt;n6 -->
<g id="edge5" class="edge">
<title>n1&#45;&gt;n6</title>
<path fill="none" stroke="black" d="M842.65,-370.1C1045.4,-346.88 1469.4,-298.34 1669.3,-275.45"/>
<polygon fill="black" stroke="black" points="1669.96,-278.9 1679.5,-274.28 1669.17,-271.94 1669.96,-278.9"/>
</g>
<!-- n7 -->
<g id="node7" class="node">
<title>n7</title>
<path fill="palegreen" stroke="black" d="M206,-158C206,-158 16,-158 16,-158 10,-158 4,-152 4,-146 4,-146 4,-134 4,-134 4,-128 10,-122 16,-122 16,-122 206,-122 206,-122 212,-122 218,-128 218,-134 218,-134 218,-146 218,-146 218,-152 212,-158 206,-158"/>
<text text-anchor="middle" x="111" y="-136.3" font-family="Arial" font-size="14.00">Understands ice is solid and cold</text>
</g>
<!-- n2&#45;&gt;n7 -->
<g id="edge6" class="edge">
<title>n2&#45;&gt;n7</title>
<path fill="none" stroke="black" d="M111,-243.81C111,-224.11 111,-191.58 111,-168.39"/>
<polygon fill="black" stroke="black" points="114.5,-168.16 111,-158.16 107.5,-168.16 114.5,-168.16"/>
</g>
<!-- n8 -->
<g id="node8" class="node">
<title>n8</title>
<path fill="palegreen" stroke="black" d="M497,-158C497,-158 291,-158 291,-158 285,-158 279,-152 279,-146 279,-146 279,-134 279,-134 279,-128 285,-122 291,-122 291,-122 497,-122 497,-122 503,-122 509,-128 509,-134 509,-134 509,-146 509,-146 509,-152 503,-158 497,-158"/>
<text text-anchor="middle" x="394" y="-136.3" font-family="Arial" font-size="14.00">Understands water is liquid and wet</text>
</g>
<!-- n3&#45;&gt;n8 -->
<g id="edge7" class="edge">
<title>n3&#45;&gt;n8</title>
<path fill="none" stroke="black" d="M407.71,-243.81C405.07,-224.02 400.71,-191.29 397.61,-168.08"/>
<polygon fill="black" stroke="black" points="401.08,-167.61 396.29,-158.16 394.14,-168.53 401.08,-167.61"/>
</g>
<!-- n9 -->
<g id="node9" class="node">
<title>n9</title>
<path fill="palegreen" stroke="black" d="M875,-158C875,-158 579,-158 579,-158 573,-158 567,-152 567,-146 567,-146 567,-134 567,-134 567,-128 573,-122 579,-122 579,-122 875,-122 875,-122 881,-122 887,-128 887,-134 887,-134 887,-146 887,-146 887,-152 881,-158 875,-158"/>
<text text-anchor="middle" x="727" y="-136.3" font-family="Arial" font-size="14.00">Understands melting as change from solid to liquid</text>
</g>
<!-- n4&#45;&gt;n9 -->
<g id="edge8" class="edge">
<title>n4&#45;&gt;n9</title>
<path fill="none" stroke="black" d="M729.57,-243.81C729.08,-224.11 728.26,-191.58 727.68,-168.39"/>
<polygon fill="black" stroke="black" points="731.17,-168.07 727.43,-158.16 724.18,-168.24 731.17,-168.07"/>
</g>
<!-- n10 -->
<g id="node10" class="node">
<title>n10</title>
<path fill="palegreen" stroke="black" d="M1250.5,-158C1250.5,-158 957.5,-158 957.5,-158 951.5,-158 945.5,-152 945.5,-146 945.5,-146 945.5,-134 945.5,-134 945.5,-128 951.5,-122 957.5,-122 957.5,-122 1250.5,-122 1250.5,-122 1256.5,-122 1262.5,-128 1262.5,-134 1262.5,-134 1262.5,-146 1262.5,-146 1262.5,-152 1256.5,-158 1250.5,-158"/>
<text text-anchor="middle" x="1104" y="-136.3" font-family="Arial" font-size="14.00">Understand freezing as change from liquid to solid</text>
</g>
<!-- n5&#45;&gt;n10 -->
<g id="edge9" class="edge">
<title>n5&#45;&gt;n10</title>
<path fill="none" stroke="black" d="M1104,-243.81C1104,-224.11 1104,-191.58 1104,-168.39"/>
<polygon fill="black" stroke="black" points="1107.5,-168.16 1104,-158.16 1100.5,-168.16 1107.5,-168.16"/>
</g>
<!-- n12 -->
<g id="node11" class="node">
<title>n12</title>
<polygon fill="lightcoral" stroke="black" points="1650,-158 1320,-140 1650,-122 1980,-140 1650,-158"/>
<text text-anchor="middle" x="1650" y="-136.3" font-family="Arial" font-size="14.00">Incomplete depiction of full stage sequencing and cooling</text>
</g>
<!-- n5&#45;&gt;n12 -->
<g id="edge10" class="edge">
<title>n5&#45;&gt;n12</title>
<path fill="none" stroke="black" d="M1181.4,-244C1287,-220.78 1474.9,-179.48 1577.8,-156.87"/>
<polygon fill="black" stroke="black" points="1578.79,-160.24 1587.8,-154.67 1577.28,-153.4 1578.79,-160.24"/>
</g>
<!-- n11 -->
<g id="node12" class="node">
<title>n11</title>
<path fill="palegreen" stroke="black" d="M2242,-158C2242,-158 2050,-158 2050,-158 2044,-158 2038,-152 2038,-146 2038,-146 2038,-134 2038,-134 2038,-128 2044,-122 2050,-122 2050,-122 2242,-122 2242,-122 2248,-122 2254,-128 2254,-134 2254,-134 2254,-146 2254,-146 2254,-152 2248,-158 2242,-158"/>
<text text-anchor="middle" x="2146" y="-136.3" font-family="Arial" font-size="14.00">Recognize heating in the process</text>
</g>
<!-- n6&#45;&gt;n11 -->
<g id="edge11" class="edge">
<title>n6&#45;&gt;n11</title>
<path fill="none" stroke="black" d="M1830.3,-243.93C1897.2,-222.12 2012.9,-184.4 2084.1,-161.18"/>
<polygon fill="black" stroke="black" points="2085.38,-164.44 2093.8,-158.01 2083.21,-157.79 2085.38,-164.44"/>
</g>
<!-- n13 -->
<g id="node13" class="node">
<title>n13</title>
<polygon fill="#f28e8e" stroke="black" points="1833,-36 1467,-36 1467,0 1833,0 1833,-36"/>
<text text-anchor="middle" x="1650" y="-14.3" font-family="Arial" font-size="14.00">Consider adding a cooling symbol and sequence drawings</text>
</g>
<!-- n12&#45;&gt;n13 -->
<g id="edge12" class="edge">
<title>n12&#45;&gt;n13</title>
<path fill="none" stroke="black" d="M1650,-121.81C1650,-102.11 1650,-69.58 1650,-46.39"/>
<polygon fill="black" stroke="black" points="1653.5,-46.16 1650,-36.16 1646.5,-46.16 1653.5,-46.16"/>
</g>
</g>
</svg>
