<?xml version="1.0" encoding="UTF-8" standalone="no"?>
<!DOCTYPE svg PUBLIC "-//W3C//DTD SVG 1.1//EN"
 "http://www.w3.org/Graphics/SVG/1.1/DTD/svg11.dtd">
<!-- Generated by graphviz version 2.43.0 (0)
 -->
<!-- Pages: 1 -->
<svg width="1957pt" height="410pt"
 viewBox="0.00 0.00 1957.00 410.00" xmlns="http://www.w3.org/2000/svg" xmlns:xlink="http://www.w3.org/1999/xlink">
<g id="graph0" class="graph" transform="scale(1 1) rotate(0) translate(4 406)">
<polygon fill="white" stroke="transparent" points="-4,4 -4,-406 1953,-406 1953,4 -4,4"/>
<!-- n1 -->
<g id="node1" class="node">
<title>n1</title>
<polygon fill="lightblue" stroke="black" points="1141,-384 1049.75,-402 867.25,-402 776,-384 867.25,-366 1049.75,-366 1141,-384"/>
<text text-anchor="middle" x="958.5" y="-380.3" font-family="Arial" font-size="14.00">Draw reversible changes (ice melting)</text>
</g>
<!-- n2 -->
<g id="node2" class="node">
<title>n2</title>
<polygon fill="#fffdd0" stroke="black" points="423,-280 0,-280 0,-244 423,-244 423,-280"/>
<text text-anchor="middle" x="211.5" y="-258.3" font-family="Arial" font-size="14.00">Solid ice block with frost and thermometer showing low temperature</text>
</g>
<!-- n1&#45;&gt;n2 -->
<g id="edge1" class="edge">
<title>n1&#45;&gt;n2</title>
<path fill="none" stroke="black" d="M860.46,-367.25C723.1,-345.18 473.81,-305.14 327.43,-281.62"/>
<polygon fill="black" stroke="black" points="327.93,-278.16 317.5,-280.03 326.82,-285.07 327.93,-278.16"/>
</g>
<!-- n3 -->
<g id="node3" class="node">
<title>n3</title>
<polygon fill="#fffdd0" stroke="black" points="747.5,-280 481.5,-280 481.5,-244 747.5,-244 747.5,-280"/>
<text text-anchor="middle" x="614.5" y="-258.3" font-family="Arial" font-size="14.00">Arrows indicating ice melting into droplets</text>
</g>
<!-- n1&#45;&gt;n3 -->
<g id="edge2" class="edge">
<title>n1&#45;&gt;n3</title>
<path fill="none" stroke="black" d="M909.58,-365.93C847.17,-344.16 739.36,-306.56 672.77,-283.33"/>
<polygon fill="black" stroke="black" points="673.84,-280 663.25,-280.01 671.54,-286.61 673.84,-280"/>
</g>
<!-- n4 -->
<g id="node4" class="node">
<title>n4</title>
<polygon fill="#fffdd0" stroke="black" points="1111,-280 806,-280 806,-244 1111,-244 1111,-280"/>
<text text-anchor="middle" x="958.5" y="-258.3" font-family="Arial" font-size="14.00">Puddle of water with thermometer reading lower</text>
</g>
<!-- n1&#45;&gt;n4 -->
<g id="edge3" class="edge">
<title>n1&#45;&gt;n4</title>
<path fill="none" stroke="black" d="M958.5,-365.81C958.5,-346.11 958.5,-313.58 958.5,-290.39"/>
<polygon fill="black" stroke="black" points="962,-290.16 958.5,-280.16 955,-290.16 962,-290.16"/>
</g>
<!-- n5 -->
<g id="node5" class="node">
<title>n5</title>
<polygon fill="#fffdd0" stroke="black" points="1545.5,-280 1169.5,-280 1169.5,-244 1545.5,-244 1545.5,-280"/>
<text text-anchor="middle" x="1357.5" y="-258.3" font-family="Arial" font-size="14.00">Arrows and snowflakes showing water freezing back into ice</text>
</g>
<!-- n1&#45;&gt;n5 -->
<g id="edge4" class="edge">
<title>n1&#45;&gt;n5</title>
<path fill="none" stroke="black" d="M1015.2,-365.93C1088.1,-344.03 1214.2,-306.09 1291.3,-282.9"/>
<polygon fill="black" stroke="black" points="1292.42,-286.22 1301,-280.01 1290.42,-279.51 1292.42,-286.22"/>
</g>
<!-- n6 -->
<g id="node6" class="node">
<title>n6</title>
<polygon fill="#fffdd0" stroke="black" points="1921,-280 1604,-280 1604,-244 1921,-244 1921,-280"/>
<text text-anchor="middle" x="1762.5" y="-258.3" font-family="Arial" font-size="14.00">Depiction of burning candle for irreversible change</text>
</g>
<!-- n1&#45;&gt;n6 -->
<g id="edge5" class="edge">
<title>n1&#45;&gt;n6</title>
<path fill="none" stroke="black" d="M1059.5,-367.92C1206.4,-346 1478.8,-305.34 1638,-281.58"/>
<polygon fill="black" stroke="black" points="1638.93,-284.98 1648.3,-280.04 1637.89,-278.06 1638.93,-284.98"/>
</g>
<!-- n7 -->
<g id="node7" class="node">
<title>n7</title>
<path fill="palegreen" stroke="black" d="M351.5,-158C351.5,-158 71.5,-158 71.5,-158 65.5,-158 59.5,-152 59.5,-146 59.5,-146 59.5,-134 59.5,-134 59.5,-128 65.5,-122 71.5,-122 71.5,-122 351.5,-122 351.5,-122 357.5,-122 363.5,-128 363.5,-134 363.5,-134 363.5,-146 363.5,-146 363.5,-152 357.5,-158 351.5,-158"/>
<text text-anchor="middle" x="211.5" y="-136.3" font-family="Arial" font-size="14.00">Understands ice is solid and cold before melting</text>
</g>
<!-- n2&#45;&gt;n7 -->
<g id="edge6" class="edge">
<title>n2&#45;&gt;n7</title>
<path fill="none" stroke="black" d="M211.5,-243.81C211.5,-224.11 211.5,-191.58 211.5,-168.39"/>
<polygon fill="black" stroke="black" points="215,-168.16 211.5,-158.16 208,-168.16 215,-168.16"/>
</g>
<!-- n8 -->
<g id="node8" class="node">
<title>n8</title>
<path fill="palegreen" stroke="black" d="M767.5,-158C767.5,-158 461.5,-158 461.5,-158 455.5,-158 449.5,-152 449.5,-146 449.5,-146 449.5,-134 449.5,-134 449.5,-128 455.5,-122 461.5,-122 461.5,-122 767.5,-122 767.5,-122 773.5,-122 779.5,-128 779.5,-134 779.5,-134 779.5,-146 779.5,-146 779.5,-152 773.5,-158 767.5,-158"/>
<text text-anchor="middle" x="614.5" y="-136.3" font-family="Arial" font-size="14.00">Understands heat causes ice to turn into liquid water</text>
</g>
<!-- n3&#45;&gt;n8 -->
<g id="edge7" class="edge">
<title>n3&#45;&gt;n8</title>
<path fill="none" stroke="black" d="M614.5,-243.81C614.5,-224.11 614.5,-191.58 614.5,-168.39"/>
<polygon fill="black" stroke="black" points="618,-168.16 614.5,-158.16 611,-168.16 618,-168.16"/>
</g>
<!-- n9 -->
<g id="node9" class="node">
<title>n9</title>
<path fill="palegreen" stroke="black" d="M1344,-158C1344,-158 1013,-158 1013,-158 1007,-158 1001,-152 1001,-146 1001,-146 1001,-134 1001,-134 1001,-128 1007,-122 1013,-122 1013,-122 1344,-122 1344,-122 1350,-122 1356,-128 1356,-134 1356,-134 1356,-146 1356,-146 1356,-152 1350,-158 1344,-158"/>
<text text-anchor="middle" x="1178.5" y="-136.3" font-family="Arial" font-size="14.00">Understands water can freeze back into ice when cooled</text>
</g>
<!-- n4&#45;&gt;n9 -->
<g id="edge8" class="edge">
<title>n4&#45;&gt;n9</title>
<path fill="none" stroke="black" d="M990.02,-243.81C1029,-222.55 1095.4,-186.35 1138,-163.07"/>
<polygon fill="black" stroke="black" points="1139.9,-166.02 1147,-158.16 1136.55,-159.88 1139.9,-166.02"/>
</g>
<!-- n5&#45;&gt;n9 -->
<g id="edge9" class="edge">
<title>n5&#45;&gt;n9</title>
<path fill="none" stroke="black" d="M1331.9,-243.81C1300.5,-222.78 1247.3,-187.11 1212.5,-163.8"/>
<polygon fill="black" stroke="black" points="1214.35,-160.83 1204.1,-158.16 1210.45,-166.64 1214.35,-160.83"/>
</g>
<!-- n10 -->
<g id="node10" class="node">
<title>n10</title>
<path fill="palegreen" stroke="black" d="M1937,-158C1937,-158 1588,-158 1588,-158 1582,-158 1576,-152 1576,-146 1576,-146 1576,-134 1576,-134 1576,-128 1582,-122 1588,-122 1588,-122 1937,-122 1937,-122 1943,-122 1949,-128 1949,-134 1949,-134 1949,-146 1949,-146 1949,-152 1943,-158 1937,-158"/>
<text text-anchor="middle" x="1762.5" y="-136.3" font-family="Arial" font-size="14.00">Correctly acknowledges reversible and irreversible changes</text>
</g>
<!-- n6&#45;&gt;n10 -->
<g id="edge10" class="edge">
<title>n6&#45;&gt;n10</title>
<path fill="none" stroke="black" d="M1762.5,-243.81C1762.5,-224.11 1762.5,-191.58 1762.5,-168.39"/>
<polygon fill="black" stroke="black" points="1766,-168.16 1762.5,-158.16 1759,-168.16 1766,-168.16"/>
</g>
<!-- n11 -->
<g id="node11" class="node">
<title>n11</title>
<polygon fill="#f28e8e" stroke="black" points="1943,-36 1582,-36 1582,0 1943,0 1943,-36"/>
<text text-anchor="middle" x="1762.5" y="-14.3" font-family="Arial" font-size="14.00">Drawings could be more colorful and tack error in spelling</text>
</g>
<!-- n10&#45;&gt;n11 -->
<g id="edge11" class="edge">
<title>n10&#45;&gt;n11</title>
<path fill="none" stroke="black" d="M1762.5,-121.81C1762.5,-102.11 1762.5,-69.58 1762.5,-46.39"/>
<polygon fill="black" stroke="black" points="1766,-46.16 1762.5,-36.16 1759,-46.16 1766,-46.16"/>
</g>
</g>
</svg>
