<?xml version="1.0" encoding="UTF-8" standalone="no"?>
<!DOCTYPE svg PUBLIC "-//W3C//DTD SVG 1.1//EN"
 "http://www.w3.org/Graphics/SVG/1.1/DTD/svg11.dtd">
<!-- Generated by graphviz version 2.43.0 (0)
 -->
<!-- Pages: 1 -->
<svg width="1549pt" height="410pt"
 viewBox="0.00 0.00 1549.00 410.00" xmlns="http://www.w3.org/2000/svg" xmlns:xlink="http://www.w3.org/1999/xlink">
<g id="graph0" class="graph" transform="scale(1 1) rotate(0) translate(4 406)">
<polygon fill="white" stroke="transparent" points="-4,4 -4,-406 1545,-406 1545,4 -4,4"/>
<!-- n1 -->
<g id="node1" class="node">
<title>n1</title>
<polygon fill="lightblue" stroke="black" points="1012.82,-384 890.41,-402 645.59,-402 523.18,-384 645.59,-366 890.41,-366 1012.82,-384"/>
<text text-anchor="middle" x="768" y="-380.3" font-family="Arial" font-size="14.00">Draw a habitat and the different living things in each</text>
</g>
<!-- n2 -->
<g id="node2" class="node">
<title>n2</title>
<polygon fill="#fffdd0" stroke="black" points="351.5,-280 224.5,-280 224.5,-244 351.5,-244 351.5,-280"/>
<text text-anchor="middle" x="288" y="-258.3" font-family="Arial" font-size="14.00">Large, green trees</text>
</g>
<!-- n1&#45;&gt;n2 -->
<g id="edge1" class="edge">
<title>n1&#45;&gt;n2</title>
<path fill="none" stroke="black" d="M699.99,-366C610.41,-343.6 453.47,-304.37 361.32,-281.33"/>
<polygon fill="black" stroke="black" points="362.06,-277.91 351.51,-278.88 360.36,-284.7 362.06,-277.91"/>
</g>
<!-- n3 -->
<g id="node3" class="node">
<title>n3</title>
<polygon fill="#fffdd0" stroke="black" points="600.5,-280 483.5,-280 483.5,-244 600.5,-244 600.5,-280"/>
<text text-anchor="middle" x="542" y="-258.3" font-family="Arial" font-size="14.00">Patches of grass</text>
</g>
<!-- n1&#45;&gt;n3 -->
<g id="edge2" class="edge">
<title>n1&#45;&gt;n3</title>
<path fill="none" stroke="black" d="M735.62,-365.81C695.51,-344.51 627.12,-308.2 583.28,-284.92"/>
<polygon fill="black" stroke="black" points="584.79,-281.76 574.32,-280.16 581.51,-287.94 584.79,-281.76"/>
</g>
<!-- n4 -->
<g id="node4" class="node">
<title>n4</title>
<polygon fill="#fffdd0" stroke="black" points="799.5,-280 736.5,-280 736.5,-244 799.5,-244 799.5,-280"/>
<text text-anchor="middle" x="768" y="-258.3" font-family="Arial" font-size="14.00">Squirrel</text>
</g>
<!-- n1&#45;&gt;n4 -->
<g id="edge3" class="edge">
<title>n1&#45;&gt;n4</title>
<path fill="none" stroke="black" d="M768,-365.81C768,-346.11 768,-313.58 768,-290.39"/>
<polygon fill="black" stroke="black" points="771.5,-290.16 768,-280.16 764.5,-290.16 771.5,-290.16"/>
</g>
<!-- n5 -->
<g id="node5" class="node">
<title>n5</title>
<polygon fill="#fffdd0" stroke="black" points="996,-280 942,-280 942,-244 996,-244 996,-280"/>
<text text-anchor="middle" x="969" y="-258.3" font-family="Arial" font-size="14.00">Bird</text>
</g>
<!-- n1&#45;&gt;n5 -->
<g id="edge4" class="edge">
<title>n1&#45;&gt;n5</title>
<path fill="none" stroke="black" d="M796.8,-365.81C832.68,-344.39 893.99,-307.78 932.95,-284.52"/>
<polygon fill="black" stroke="black" points="935.07,-287.33 941.86,-279.2 931.48,-281.32 935.07,-287.33"/>
</g>
<!-- n6 -->
<g id="node6" class="node">
<title>n6</title>
<polygon fill="#fffdd0" stroke="black" points="1291.5,-280 1190.5,-280 1190.5,-244 1291.5,-244 1291.5,-280"/>
<text text-anchor="middle" x="1241" y="-258.3" font-family="Arial" font-size="14.00">Pond with fish</text>
</g>
<!-- n1&#45;&gt;n6 -->
<g id="edge5" class="edge">
<title>n1&#45;&gt;n6</title>
<path fill="none" stroke="black" d="M835.02,-366C927.16,-342.62 1091.6,-300.9 1180.3,-278.4"/>
<polygon fill="black" stroke="black" points="1181.37,-281.74 1190.2,-275.88 1179.65,-274.96 1181.37,-281.74"/>
</g>
<!-- n7 -->
<g id="node7" class="node">
<title>n7</title>
<path fill="palegreen" stroke="black" d="M262,-158C262,-158 12,-158 12,-158 6,-158 0,-152 0,-146 0,-146 0,-134 0,-134 0,-128 6,-122 12,-122 12,-122 262,-122 262,-122 268,-122 274,-128 274,-134 274,-134 274,-146 274,-146 274,-152 268,-158 262,-158"/>
<text text-anchor="middle" x="137" y="-136.3" font-family="Arial" font-size="14.00">Understands trees are part of forest habitat</text>
</g>
<!-- n2&#45;&gt;n7 -->
<g id="edge6" class="edge">
<title>n2&#45;&gt;n7</title>
<path fill="none" stroke="black" d="M266.37,-243.81C240.13,-222.96 195.78,-187.71 166.44,-164.4"/>
<polygon fill="black" stroke="black" points="168.6,-161.64 158.59,-158.16 164.24,-167.12 168.6,-161.64"/>
</g>
<!-- n8 -->
<g id="node8" class="node">
<title>n8</title>
<path fill="palegreen" stroke="black" d="M586,-158C586,-158 344,-158 344,-158 338,-158 332,-152 332,-146 332,-146 332,-134 332,-134 332,-128 338,-122 344,-122 344,-122 586,-122 586,-122 592,-122 598,-128 598,-134 598,-134 598,-146 598,-146 598,-152 592,-158 586,-158"/>
<text text-anchor="middle" x="465" y="-136.3" font-family="Arial" font-size="14.00">Understands grass is part of land habitats</text>
</g>
<!-- n3&#45;&gt;n8 -->
<g id="edge7" class="edge">
<title>n3&#45;&gt;n8</title>
<path fill="none" stroke="black" d="M530.97,-243.81C518.05,-223.67 496.51,-190.1 481.57,-166.83"/>
<polygon fill="black" stroke="black" points="484.35,-164.69 476.01,-158.16 478.46,-168.47 484.35,-164.69"/>
</g>
<!-- n9 -->
<g id="node9" class="node">
<title>n9</title>
<path fill="palegreen" stroke="black" d="M868,-158C868,-158 668,-158 668,-158 662,-158 656,-152 656,-146 656,-146 656,-134 656,-134 656,-128 662,-122 668,-122 668,-122 868,-122 868,-122 874,-122 880,-128 880,-134 880,-134 880,-146 880,-146 880,-152 874,-158 868,-158"/>
<text text-anchor="middle" x="768" y="-136.3" font-family="Arial" font-size="14.00">Knows squirrels are forest animals</text>
</g>
<!-- n4&#45;&gt;n9 -->
<g id="edge8" class="edge">
<title>n4&#45;&gt;n9</title>
<path fill="none" stroke="black" d="M768,-243.81C768,-224.11 768,-191.58 768,-168.39"/>
<polygon fill="black" stroke="black" points="771.5,-168.16 768,-158.16 764.5,-168.16 771.5,-168.16"/>
</g>
<!-- n10 -->
<g id="node10" class="node">
<title>n10</title>
<path fill="palegreen" stroke="black" d="M1156,-158C1156,-158 950,-158 950,-158 944,-158 938,-152 938,-146 938,-146 938,-134 938,-134 938,-128 944,-122 950,-122 950,-122 1156,-122 1156,-122 1162,-122 1168,-128 1168,-134 1168,-134 1168,-146 1168,-146 1168,-152 1162,-158 1156,-158"/>
<text text-anchor="middle" x="1053" y="-136.3" font-family="Arial" font-size="14.00">Knows birds can be found in forests</text>
</g>
<!-- n5&#45;&gt;n10 -->
<g id="edge9" class="edge">
<title>n5&#45;&gt;n10</title>
<path fill="none" stroke="black" d="M981.04,-243.81C995.19,-223.58 1018.8,-189.81 1035.1,-166.52"/>
<polygon fill="black" stroke="black" points="1038.09,-168.35 1041,-158.16 1032.37,-164.31 1038.09,-168.35"/>
</g>
<!-- n11 -->
<g id="node11" class="node">
<title>n11</title>
<polygon fill="lightcoral" stroke="black" points="1377,-158 1226.02,-140 1377,-122 1527.98,-140 1377,-158"/>
<text text-anchor="middle" x="1377" y="-136.3" font-family="Arial" font-size="14.00">Mix&#45;up of fish placement</text>
</g>
<!-- n6&#45;&gt;n11 -->
<g id="edge10" class="edge">
<title>n6&#45;&gt;n11</title>
<path fill="none" stroke="black" d="M1260.5,-243.81C1284.6,-222.55 1325.6,-186.32 1352,-163.04"/>
<polygon fill="black" stroke="black" points="1354.51,-165.5 1359.7,-156.26 1349.88,-160.24 1354.51,-165.5"/>
</g>
<!-- n12 -->
<g id="node12" class="node">
<title>n12</title>
<polygon fill="#f28e8e" stroke="black" points="1541,-36 1213,-36 1213,0 1541,0 1541,-36"/>
<text text-anchor="middle" x="1377" y="-14.3" font-family="Arial" font-size="14.00">Place water elements farther from land components</text>
</g>
<!-- n11&#45;&gt;n12 -->
<g id="edge11" class="edge">
<title>n11&#45;&gt;n12</title>
<path fill="none" stroke="black" d="M1377,-121.81C1377,-102.11 1377,-69.58 1377,-46.39"/>
<polygon fill="black" stroke="black" points="1380.5,-46.16 1377,-36.16 1373.5,-46.16 1380.5,-46.16"/>
</g>
</g>
</svg>
