<?xml version="1.0" encoding="UTF-8" standalone="no"?>
<!DOCTYPE svg PUBLIC "-//W3C//DTD SVG 1.1//EN"
 "http://www.w3.org/Graphics/SVG/1.1/DTD/svg11.dtd">
<!-- Generated by graphviz version 2.43.0 (0)
 -->
<!-- Pages: 1 -->
<svg width="2392pt" height="410pt"
 viewBox="0.00 0.00 2391.76 410.00" xmlns="http://www.w3.org/2000/svg" xmlns:xlink="http://www.w3.org/1999/xlink">
<g id="graph0" class="graph" transform="scale(1 1) rotate(0) translate(4 406)">
<polygon fill="white" stroke="transparent" points="-4,4 -4,-406 2387.76,-406 2387.76,4 -4,4"/>
<!-- n1 -->
<g id="node1" class="node">
<title>n1</title>
<polygon fill="lightblue" stroke="black" points="1823.7,-384 1731.7,-402 1547.7,-402 1455.7,-384 1547.7,-366 1731.7,-366 1823.7,-384"/>
<text text-anchor="middle" x="1639.7" y="-380.3" font-family="Arial" font-size="14.00">Illustrate plants with and without water</text>
</g>
<!-- n2 -->
<g id="node2" class="node">
<title>n2</title>
<polygon fill="#fffdd0" stroke="black" points="945.18,-280 772.18,-280 772.18,-244 945.18,-244 945.18,-280"/>
<text text-anchor="middle" x="858.68" y="-258.3" font-family="Arial" font-size="14.00">Two identical green plants</text>
</g>
<!-- n1&#45;&gt;n2 -->
<g id="edge1" class="edge">
<title>n1&#45;&gt;n2</title>
<path fill="none" stroke="black" d="M1539.2,-367.56C1388.1,-344.34 1104.2,-300.72 955.34,-277.85"/>
<polygon fill="black" stroke="black" points="955.71,-274.37 945.3,-276.31 954.65,-281.29 955.71,-274.37"/>
</g>
<!-- n3 -->
<g id="node3" class="node">
<title>n3</title>
<polygon fill="#fffdd0" stroke="black" points="1725.2,-280 1554.2,-280 1554.2,-244 1725.2,-244 1725.2,-280"/>
<text text-anchor="middle" x="1639.7" y="-258.3" font-family="Arial" font-size="14.00">Green grass and blue sky</text>
</g>
<!-- n1&#45;&gt;n3 -->
<g id="edge2" class="edge">
<title>n1&#45;&gt;n3</title>
<path fill="none" stroke="black" d="M1639.7,-365.81C1639.7,-346.11 1639.7,-313.58 1639.7,-290.39"/>
<polygon fill="black" stroke="black" points="1643.2,-290.16 1639.7,-280.16 1636.2,-290.16 1643.2,-290.16"/>
</g>
<!-- n4 -->
<g id="node4" class="node">
<title>n4</title>
<polygon fill="#fffdd0" stroke="black" points="2084.7,-280 1924.7,-280 1924.7,-244 2084.7,-244 2084.7,-280"/>
<text text-anchor="middle" x="2004.7" y="-258.3" font-family="Arial" font-size="14.00">Yellow sun in the corner</text>
</g>
<!-- n1&#45;&gt;n4 -->
<g id="edge3" class="edge">
<title>n1&#45;&gt;n4</title>
<path fill="none" stroke="black" d="M1691.6,-365.93C1757.9,-344.12 1872.7,-306.4 1943.3,-283.18"/>
<polygon fill="black" stroke="black" points="1944.5,-286.47 1952.9,-280.01 1942.31,-279.82 1944.5,-286.47"/>
</g>
<!-- n5 -->
<g id="node5" class="node">
<title>n5</title>
<polygon fill="lightcoral" stroke="black" points="219.68,-158 -0.18,-140 219.68,-122 439.54,-140 219.68,-158"/>
<text text-anchor="middle" x="219.68" y="-136.3" font-family="Arial" font-size="14.00">No visible differences between plants</text>
</g>
<!-- n2&#45;&gt;n5 -->
<g id="edge4" class="edge">
<title>n2&#45;&gt;n5</title>
<path fill="none" stroke="black" d="M772.17,-244.75C645.45,-220.96 411.57,-177.04 292.88,-154.75"/>
<polygon fill="black" stroke="black" points="293.27,-151.26 282.8,-152.85 291.98,-158.14 293.27,-151.26"/>
</g>
<!-- n6 -->
<g id="node6" class="node">
<title>n6</title>
<path fill="palegreen" stroke="black" d="M741.68,-158C741.68,-158 509.68,-158 509.68,-158 503.68,-158 497.68,-152 497.68,-146 497.68,-146 497.68,-134 497.68,-134 497.68,-128 503.68,-122 509.68,-122 509.68,-122 741.68,-122 741.68,-122 747.68,-122 753.68,-128 753.68,-134 753.68,-134 753.68,-146 753.68,-146 753.68,-152 747.68,-158 741.68,-158"/>
<text text-anchor="middle" x="625.68" y="-136.3" font-family="Arial" font-size="14.00">Shows basic knowledge of plant shapes</text>
</g>
<!-- n2&#45;&gt;n6 -->
<g id="edge5" class="edge">
<title>n2&#45;&gt;n6</title>
<path fill="none" stroke="black" d="M825.3,-243.81C783.86,-222.47 713.14,-186.05 667.96,-162.77"/>
<polygon fill="black" stroke="black" points="669.49,-159.62 659,-158.16 666.29,-165.85 669.49,-159.62"/>
</g>
<!-- n7 -->
<g id="node7" class="node">
<title>n7</title>
<polygon fill="lightcoral" stroke="black" points="1091.7,-158 811.2,-140 1091.7,-122 1372.2,-140 1091.7,-158"/>
<text text-anchor="middle" x="1091.7" y="-136.3" font-family="Arial" font-size="14.00">Lacks understanding of water&#39;s effects on plants</text>
</g>
<!-- n2&#45;&gt;n7 -->
<g id="edge6" class="edge">
<title>n2&#45;&gt;n7</title>
<path fill="none" stroke="black" d="M892.06,-243.81C934.59,-221.9 1007.9,-184.12 1052.9,-160.97"/>
<polygon fill="black" stroke="black" points="1054.73,-163.97 1062,-156.26 1051.51,-157.75 1054.73,-163.97"/>
</g>
<!-- n8 -->
<g id="node8" class="node">
<title>n8</title>
<polygon fill="lightcoral" stroke="black" points="1639.7,-158 1430.06,-140 1639.7,-122 1849.33,-140 1639.7,-158"/>
<text text-anchor="middle" x="1639.7" y="-136.3" font-family="Arial" font-size="14.00">Does not depict water&#39;s importance</text>
</g>
<!-- n3&#45;&gt;n8 -->
<g id="edge7" class="edge">
<title>n3&#45;&gt;n8</title>
<path fill="none" stroke="black" d="M1639.7,-243.81C1639.7,-224.11 1639.7,-191.58 1639.7,-168.39"/>
<polygon fill="black" stroke="black" points="1643.2,-168.16 1639.7,-158.16 1636.2,-168.16 1643.2,-168.16"/>
</g>
<!-- n9 -->
<g id="node9" class="node">
<title>n9</title>
<polygon fill="lightcoral" stroke="black" points="2145.7,-158 1907.58,-140 2145.7,-122 2383.82,-140 2145.7,-158"/>
<text text-anchor="middle" x="2145.7" y="-136.3" font-family="Arial" font-size="14.00">Does not show sun&#39;s role in plant growth</text>
</g>
<!-- n4&#45;&gt;n9 -->
<g id="edge8" class="edge">
<title>n4&#45;&gt;n9</title>
<path fill="none" stroke="black" d="M2024.9,-243.81C2049.8,-222.57 2092.3,-186.41 2119.7,-163.13"/>
<polygon fill="black" stroke="black" points="2121.97,-165.79 2127.3,-156.63 2117.42,-160.47 2121.97,-165.79"/>
</g>
<!-- n10 -->
<g id="node10" class="node">
<title>n10</title>
<polygon fill="#f28e8e" stroke="black" points="349.18,-36 90.18,-36 90.18,0 349.18,0 349.18,-36"/>
<text text-anchor="middle" x="219.68" y="-14.3" font-family="Arial" font-size="14.00">Add droopy or brown leaves to one plant</text>
</g>
<!-- n5&#45;&gt;n10 -->
<g id="edge9" class="edge">
<title>n5&#45;&gt;n10</title>
<path fill="none" stroke="black" d="M219.68,-121.81C219.68,-102.11 219.68,-69.58 219.68,-46.39"/>
<polygon fill="black" stroke="black" points="223.18,-46.16 219.68,-36.16 216.18,-46.16 223.18,-46.16"/>
</g>
<!-- n11 -->
<g id="node11" class="node">
<title>n11</title>
<polygon fill="#f28e8e" stroke="black" points="1230.7,-36 952.7,-36 952.7,0 1230.7,0 1230.7,-36"/>
<text text-anchor="middle" x="1091.7" y="-14.3" font-family="Arial" font-size="14.00">Label parts showing water&#39;s effect on plants</text>
</g>
<!-- n7&#45;&gt;n11 -->
<g id="edge10" class="edge">
<title>n7&#45;&gt;n11</title>
<path fill="none" stroke="black" d="M1091.7,-121.81C1091.7,-102.11 1091.7,-69.58 1091.7,-46.39"/>
<polygon fill="black" stroke="black" points="1095.2,-46.16 1091.7,-36.16 1088.2,-46.16 1095.2,-46.16"/>
</g>
<!-- n12 -->
<g id="node12" class="node">
<title>n12</title>
<polygon fill="#f28e8e" stroke="black" points="2278.7,-36 2012.7,-36 2012.7,0 2278.7,0 2278.7,-36"/>
<text text-anchor="middle" x="2145.7" y="-14.3" font-family="Arial" font-size="14.00">Illustrate sun&#39;s importance by adding rays</text>
</g>
<!-- n9&#45;&gt;n12 -->
<g id="edge11" class="edge">
<title>n9&#45;&gt;n12</title>
<path fill="none" stroke="black" d="M2145.7,-121.81C2145.7,-102.11 2145.7,-69.58 2145.7,-46.39"/>
<polygon fill="black" stroke="black" points="2149.2,-46.16 2145.7,-36.16 2142.2,-46.16 2149.2,-46.16"/>
</g>
</g>
</svg>
