<?xml version="1.0" encoding="UTF-8" standalone="no"?>
<!DOCTYPE svg PUBLIC "-//W3C//DTD SVG 1.1//EN"
 "http://www.w3.org/Graphics/SVG/1.1/DTD/svg11.dtd">
<!-- Generated by graphviz version 2.43.0 (0)
 -->
<!-- Pages: 1 -->
<svg width="2104pt" height="410pt"
 viewBox="0.00 0.00 2104.00 410.00" xmlns="http://www.w3.org/2000/svg" xmlns:xlink="http://www.w3.org/1999/xlink">
<g id="graph0" class="graph" transform="scale(1 1) rotate(0) translate(4 406)">
<polygon fill="white" stroke="transparent" points="-4,4 -4,-406 2100,-406 2100,4 -4,4"/>
<!-- n1 -->
<g id="node1" class="node">
<title>n1</title>
<polygon fill="lightblue" stroke="black" points="1357,-384 1226.75,-402 966.25,-402 836,-384 966.25,-366 1226.75,-366 1357,-384"/>
<text text-anchor="middle" x="1096.5" y="-380.3" font-family="Arial" font-size="14.00">Draw two habitats and the different living things in each</text>
</g>
<!-- n2 -->
<g id="node2" class="node">
<title>n2</title>
<polygon fill="#fffdd0" stroke="black" points="331,-280 0,-280 0,-244 331,-244 331,-280"/>
<text text-anchor="middle" x="165.5" y="-258.3" font-family="Arial" font-size="14.00">Garden with green grass, tree, and flowering bushes</text>
</g>
<!-- n1&#45;&gt;n2 -->
<g id="edge1" class="edge">
<title>n1&#45;&gt;n2</title>
<path fill="none" stroke="black" d="M965.09,-366.06C791.43,-343.68 486.68,-304.4 307.76,-281.34"/>
<polygon fill="black" stroke="black" points="308.12,-277.86 297.75,-280.05 307.22,-284.8 308.12,-277.86"/>
</g>
<!-- n3 -->
<g id="node3" class="node">
<title>n3</title>
<polygon fill="#fffdd0" stroke="black" points="1291.5,-280 1133.5,-280 1133.5,-244 1291.5,-244 1291.5,-280"/>
<text text-anchor="middle" x="1212.5" y="-258.3" font-family="Arial" font-size="14.00">Labeled squirrel on tree</text>
</g>
<!-- n1&#45;&gt;n3 -->
<g id="edge2" class="edge">
<title>n1&#45;&gt;n3</title>
<path fill="none" stroke="black" d="M1113.1,-365.81C1132.9,-345.31 1166.2,-310.91 1188.7,-287.6"/>
<polygon fill="black" stroke="black" points="1191.46,-289.78 1195.9,-280.16 1186.43,-284.91 1191.46,-289.78"/>
</g>
<!-- n4 -->
<g id="node4" class="node">
<title>n4</title>
<polygon fill="#fffdd0" stroke="black" points="1537.5,-280 1349.5,-280 1349.5,-244 1537.5,-244 1537.5,-280"/>
<text text-anchor="middle" x="1443.5" y="-258.3" font-family="Arial" font-size="14.00">Labeled lizard on the ground</text>
</g>
<!-- n1&#45;&gt;n4 -->
<g id="edge3" class="edge">
<title>n1&#45;&gt;n4</title>
<path fill="none" stroke="black" d="M1145.8,-365.93C1208.8,-344.16 1317.6,-306.56 1384.7,-283.33"/>
<polygon fill="black" stroke="black" points="1385.99,-286.59 1394.3,-280.01 1383.71,-279.97 1385.99,-286.59"/>
</g>
<!-- n5 -->
<g id="node5" class="node">
<title>n5</title>
<polygon fill="#fffdd0" stroke="black" points="1833,-280 1596,-280 1596,-244 1833,-244 1833,-280"/>
<text text-anchor="middle" x="1714.5" y="-258.3" font-family="Arial" font-size="14.00">Water habitat with pond and lily pads</text>
</g>
<!-- n1&#45;&gt;n5 -->
<g id="edge4" class="edge">
<title>n1&#45;&gt;n5</title>
<path fill="none" stroke="black" d="M1184.1,-366C1298.4,-343.8 1497.9,-305.05 1617,-281.94"/>
<polygon fill="black" stroke="black" points="1617.65,-285.38 1626.8,-280.03 1616.32,-278.51 1617.65,-285.38"/>
</g>
<!-- n6 -->
<g id="node6" class="node">
<title>n6</title>
<polygon fill="#fffdd0" stroke="black" points="829,-280 626,-280 626,-244 829,-244 829,-280"/>
<text text-anchor="middle" x="727.5" y="-258.3" font-family="Arial" font-size="14.00">Labeled fish swimming in pond</text>
</g>
<!-- n1&#45;&gt;n6 -->
<g id="edge5" class="edge">
<title>n1&#45;&gt;n6</title>
<path fill="none" stroke="black" d="M1044,-365.93C976.94,-344.12 860.96,-306.4 789.56,-283.18"/>
<polygon fill="black" stroke="black" points="790.39,-279.77 779.8,-280.01 788.23,-286.43 790.39,-279.77"/>
</g>
<!-- n7 -->
<g id="node7" class="node">
<title>n7</title>
<polygon fill="#fffdd0" stroke="black" points="567.5,-280 389.5,-280 389.5,-244 567.5,-244 567.5,-280"/>
<text text-anchor="middle" x="478.5" y="-258.3" font-family="Arial" font-size="14.00">Forest above with tall trees</text>
</g>
<!-- n1&#45;&gt;n7 -->
<g id="edge6" class="edge">
<title>n1&#45;&gt;n7</title>
<path fill="none" stroke="black" d="M1008.9,-366C894.61,-343.8 695.08,-305.05 576.03,-281.94"/>
<polygon fill="black" stroke="black" points="576.67,-278.5 566.19,-280.03 575.34,-285.37 576.67,-278.5"/>
</g>
<!-- n8 -->
<g id="node8" class="node">
<title>n8</title>
<polygon fill="#fffdd0" stroke="black" points="2096,-280 1891,-280 1891,-244 2096,-244 2096,-280"/>
<text text-anchor="middle" x="1993.5" y="-258.3" font-family="Arial" font-size="14.00">Stream below with flowing lines</text>
</g>
<!-- n1&#45;&gt;n8 -->
<g id="edge7" class="edge">
<title>n1&#45;&gt;n8</title>
<path fill="none" stroke="black" d="M1223.6,-366C1399.2,-342.51 1713.3,-300.49 1880.9,-278.07"/>
<polygon fill="black" stroke="black" points="1881.55,-281.51 1891,-276.72 1880.62,-274.58 1881.55,-281.51"/>
</g>
<!-- n9 -->
<g id="node9" class="node">
<title>n9</title>
<polygon fill="#fffdd0" stroke="black" points="1075.5,-280 887.5,-280 887.5,-244 1075.5,-244 1075.5,-280"/>
<text text-anchor="middle" x="981.5" y="-258.3" font-family="Arial" font-size="14.00">Larger fish labeled in stream</text>
</g>
<!-- n1&#45;&gt;n9 -->
<g id="edge8" class="edge">
<title>n1&#45;&gt;n9</title>
<path fill="none" stroke="black" d="M1080,-365.81C1060.4,-345.31 1027.4,-310.91 1005.1,-287.6"/>
<polygon fill="black" stroke="black" points="1007.4,-284.95 997.95,-280.16 1002.36,-289.8 1007.4,-284.95"/>
</g>
<!-- n10 -->
<g id="node10" class="node">
<title>n10</title>
<path fill="palegreen" stroke="black" d="M396.5,-158C396.5,-158 90.5,-158 90.5,-158 84.5,-158 78.5,-152 78.5,-146 78.5,-146 78.5,-134 78.5,-134 78.5,-128 84.5,-122 90.5,-122 90.5,-122 396.5,-122 396.5,-122 402.5,-122 408.5,-128 408.5,-134 408.5,-134 408.5,-146 408.5,-146 408.5,-152 402.5,-158 396.5,-158"/>
<text text-anchor="middle" x="243.5" y="-136.3" font-family="Arial" font-size="14.00">Understands different land habitats (Garden, Forest)</text>
</g>
<!-- n2&#45;&gt;n10 -->
<g id="edge9" class="edge">
<title>n2&#45;&gt;n10</title>
<path fill="none" stroke="black" d="M176.68,-243.81C189.77,-223.67 211.58,-190.1 226.71,-166.83"/>
<polygon fill="black" stroke="black" points="229.83,-168.45 232.35,-158.16 223.96,-164.63 229.83,-168.45"/>
</g>
<!-- n13 -->
<g id="node11" class="node">
<title>n13</title>
<polygon fill="lightcoral" stroke="black" points="756.5,-158 514.52,-140 756.5,-122 998.48,-140 756.5,-158"/>
<text text-anchor="middle" x="756.5" y="-136.3" font-family="Arial" font-size="14.00">Inconsistently labeled plants and animals</text>
</g>
<!-- n2&#45;&gt;n13 -->
<g id="edge10" class="edge">
<title>n2&#45;&gt;n13</title>
<path fill="none" stroke="black" d="M249.24,-244C365.96,-220.3 575.55,-177.74 685.21,-155.47"/>
<polygon fill="black" stroke="black" points="686.07,-158.87 695.18,-153.45 684.68,-152.01 686.07,-158.87"/>
</g>
<!-- n3&#45;&gt;n13 -->
<g id="edge11" class="edge">
<title>n3&#45;&gt;n13</title>
<path fill="none" stroke="black" d="M1147.7,-243.93C1059.4,-220.72 902.77,-179.49 816.91,-156.9"/>
<polygon fill="black" stroke="black" points="817.62,-153.47 807.06,-154.3 815.84,-160.24 817.62,-153.47"/>
</g>
<!-- n12 -->
<g id="node12" class="node">
<title>n12</title>
<path fill="palegreen" stroke="black" d="M1451,-158C1451,-158 1068,-158 1068,-158 1062,-158 1056,-152 1056,-146 1056,-146 1056,-134 1056,-134 1056,-128 1062,-122 1068,-122 1068,-122 1451,-122 1451,-122 1457,-122 1463,-128 1463,-134 1463,-134 1463,-146 1463,-146 1463,-152 1457,-158 1451,-158"/>
<text text-anchor="middle" x="1259.5" y="-136.3" font-family="Arial" font-size="14.00">Correctly identifies land and water animals (Squirrel, Lizard, Fish)</text>
</g>
<!-- n3&#45;&gt;n12 -->
<g id="edge12" class="edge">
<title>n3&#45;&gt;n12</title>
<path fill="none" stroke="black" d="M1219.2,-243.81C1227,-223.94 1239.9,-190.99 1249,-167.76"/>
<polygon fill="black" stroke="black" points="1252.37,-168.75 1252.8,-158.16 1245.87,-166.17 1252.37,-168.75"/>
</g>
<!-- n4&#45;&gt;n13 -->
<g id="edge13" class="edge">
<title>n4&#45;&gt;n13</title>
<path fill="none" stroke="black" d="M1349.4,-244.57C1212.9,-220.72 962.41,-176.97 835.16,-154.74"/>
<polygon fill="black" stroke="black" points="835.55,-151.26 825.1,-152.98 834.35,-158.15 835.55,-151.26"/>
</g>
<!-- n4&#45;&gt;n12 -->
<g id="edge14" class="edge">
<title>n4&#45;&gt;n12</title>
<path fill="none" stroke="black" d="M1417.1,-243.81C1384.9,-222.78 1330.2,-187.11 1294.5,-163.8"/>
<polygon fill="black" stroke="black" points="1296.09,-160.66 1285.8,-158.16 1292.29,-166.54 1296.09,-160.66"/>
</g>
<!-- n5&#45;&gt;n13 -->
<g id="edge15" class="edge">
<title>n5&#45;&gt;n13</title>
<path fill="none" stroke="black" d="M1595.6,-246.1C1403.3,-222.01 1027.8,-174.98 851.8,-152.94"/>
<polygon fill="black" stroke="black" points="852.14,-149.46 841.78,-151.68 851.27,-156.4 852.14,-149.46"/>
</g>
<!-- n11 -->
<g id="node13" class="node">
<title>n11</title>
<path fill="palegreen" stroke="black" d="M2006,-158C2006,-158 1701,-158 1701,-158 1695,-158 1689,-152 1689,-146 1689,-146 1689,-134 1689,-134 1689,-128 1695,-122 1701,-122 1701,-122 2006,-122 2006,-122 2012,-122 2018,-128 2018,-134 2018,-134 2018,-146 2018,-146 2018,-152 2012,-158 2006,-158"/>
<text text-anchor="middle" x="1853.5" y="-136.3" font-family="Arial" font-size="14.00">Understands different water habitats (Pond, Stream)</text>
</g>
<!-- n5&#45;&gt;n11 -->
<g id="edge16" class="edge">
<title>n5&#45;&gt;n11</title>
<path fill="none" stroke="black" d="M1734.4,-243.81C1758.5,-223.04 1799,-188.01 1826,-164.7"/>
<polygon fill="black" stroke="black" points="1828.3,-167.34 1833.6,-158.16 1823.74,-162.03 1828.3,-167.34"/>
</g>
<!-- n6&#45;&gt;n13 -->
<g id="edge17" class="edge">
<title>n6&#45;&gt;n13</title>
<path fill="none" stroke="black" d="M731.65,-243.81C736.46,-223.91 744.44,-190.92 750.05,-167.68"/>
<polygon fill="black" stroke="black" points="753.5,-168.31 752.45,-157.77 746.69,-166.67 753.5,-168.31"/>
</g>
<!-- n6&#45;&gt;n12 -->
<g id="edge18" class="edge">
<title>n6&#45;&gt;n12</title>
<path fill="none" stroke="black" d="M802.88,-244C900.8,-221.91 1071.3,-183.44 1174,-160.29"/>
<polygon fill="black" stroke="black" points="1175.02,-163.65 1184,-158.03 1173.47,-156.82 1175.02,-163.65"/>
</g>
<!-- n7&#45;&gt;n10 -->
<g id="edge19" class="edge">
<title>n7&#45;&gt;n10</title>
<path fill="none" stroke="black" d="M444.83,-243.81C403.04,-222.47 331.72,-186.05 286.14,-162.77"/>
<polygon fill="black" stroke="black" points="287.61,-159.59 277.11,-158.16 284.43,-165.82 287.61,-159.59"/>
</g>
<!-- n7&#45;&gt;n13 -->
<g id="edge20" class="edge">
<title>n7&#45;&gt;n13</title>
<path fill="none" stroke="black" d="M518.04,-243.93C569.79,-221.59 660.19,-182.57 713.57,-159.53"/>
<polygon fill="black" stroke="black" points="714.98,-162.74 722.77,-155.56 712.2,-156.31 714.98,-162.74"/>
</g>
<!-- n8&#45;&gt;n13 -->
<g id="edge21" class="edge">
<title>n8&#45;&gt;n13</title>
<path fill="none" stroke="black" d="M1890.9,-247.33C1881.3,-246.16 1871.7,-245.03 1862.5,-244 1504.2,-204.08 1079.3,-167.53 876.22,-150.72"/>
<polygon fill="black" stroke="black" points="876.38,-147.22 866.13,-149.89 875.81,-154.2 876.38,-147.22"/>
</g>
<!-- n8&#45;&gt;n11 -->
<g id="edge22" class="edge">
<title>n8&#45;&gt;n11</title>
<path fill="none" stroke="black" d="M1973.4,-243.81C1949.2,-223.04 1908.3,-188.01 1881.1,-164.7"/>
<polygon fill="black" stroke="black" points="1883.36,-162.03 1873.5,-158.16 1878.8,-167.34 1883.36,-162.03"/>
</g>
<!-- n9&#45;&gt;n13 -->
<g id="edge23" class="edge">
<title>n9&#45;&gt;n13</title>
<path fill="none" stroke="black" d="M949.26,-243.81C908.17,-221.89 837.26,-184.07 793.86,-160.92"/>
<polygon fill="black" stroke="black" points="795.24,-157.69 784.77,-156.08 791.95,-163.87 795.24,-157.69"/>
</g>
<!-- n9&#45;&gt;n12 -->
<g id="edge24" class="edge">
<title>n9&#45;&gt;n12</title>
<path fill="none" stroke="black" d="M1021,-243.93C1071,-222.39 1156.8,-185.32 1210.7,-162.04"/>
<polygon fill="black" stroke="black" points="1212.29,-165.17 1220.1,-158.01 1209.53,-158.73 1212.29,-165.17"/>
</g>
<!-- n14 -->
<g id="node14" class="node">
<title>n14</title>
<polygon fill="#f28e8e" stroke="black" points="918,-36 595,-36 595,0 918,0 918,-36"/>
<text text-anchor="middle" x="756.5" y="-14.3" font-family="Arial" font-size="14.00">Ensure all plants and animals are labeled for clarity</text>
</g>
<!-- n13&#45;&gt;n14 -->
<g id="edge25" class="edge">
<title>n13&#45;&gt;n14</title>
<path fill="none" stroke="black" d="M756.5,-121.81C756.5,-102.11 756.5,-69.58 756.5,-46.39"/>
<polygon fill="black" stroke="black" points="760,-46.16 756.5,-36.16 753,-46.16 760,-46.16"/>
</g>
</g>
</svg>
