<?xml version="1.0" encoding="UTF-8" standalone="no"?>
<!DOCTYPE svg PUBLIC "-//W3C//DTD SVG 1.1//EN"
 "http://www.w3.org/Graphics/SVG/1.1/DTD/svg11.dtd">
<!-- Generated by graphviz version 2.43.0 (0)
 -->
<!-- Pages: 1 -->
<svg width="1829pt" height="410pt"
 viewBox="0.00 0.00 1829.00 410.00" xmlns="http://www.w3.org/2000/svg" xmlns:xlink="http://www.w3.org/1999/xlink">
<g id="graph0" class="graph" transform="scale(1 1) rotate(0) translate(4 406)">
<polygon fill="white" stroke="transparent" points="-4,4 -4,-406 1825,-406 1825,4 -4,4"/>
<!-- n1 -->
<g id="node1" class="node">
<title>n1</title>
<polygon fill="lightblue" stroke="black" points="1365,-384 1234.75,-402 974.25,-402 844,-384 974.25,-366 1234.75,-366 1365,-384"/>
<text text-anchor="middle" x="1104.5" y="-380.3" font-family="Arial" font-size="14.00">Draw two habitats and the different living things in each</text>
</g>
<!-- n2 -->
<g id="node2" class="node">
<title>n2</title>
<polygon fill="#fffdd0" stroke="black" points="601,-280 422,-280 422,-244 601,-244 601,-280"/>
<text text-anchor="middle" x="511.5" y="-258.3" font-family="Arial" font-size="14.00">Forest with trees and grass</text>
</g>
<!-- n1&#45;&gt;n2 -->
<g id="edge1" class="edge">
<title>n1&#45;&gt;n2</title>
<path fill="none" stroke="black" d="M1020.5,-366C911,-343.84 720.09,-305.21 605.78,-282.08"/>
<polygon fill="black" stroke="black" points="606.14,-278.58 595.64,-280.03 604.75,-285.44 606.14,-278.58"/>
</g>
<!-- n3 -->
<g id="node3" class="node">
<title>n3</title>
<polygon fill="#fffdd0" stroke="black" points="916,-280 659,-280 659,-244 916,-244 916,-280"/>
<text text-anchor="middle" x="787.5" y="-258.3" font-family="Arial" font-size="14.00">Water&#45;based habitat with fish and clams</text>
</g>
<!-- n1&#45;&gt;n3 -->
<g id="edge2" class="edge">
<title>n1&#45;&gt;n3</title>
<path fill="none" stroke="black" d="M1059.4,-365.93C1002.1,-344.25 903.37,-306.86 841.95,-283.61"/>
<polygon fill="black" stroke="black" points="843.02,-280.27 832.43,-280.01 840.55,-286.82 843.02,-280.27"/>
</g>
<!-- n4 -->
<g id="node4" class="node">
<title>n4</title>
<polygon fill="#fffdd0" stroke="black" points="1234.5,-280 974.5,-280 974.5,-244 1234.5,-244 1234.5,-280"/>
<text text-anchor="middle" x="1104.5" y="-258.3" font-family="Arial" font-size="14.00">Some elements labeled (e.g., trees, fish)</text>
</g>
<!-- n1&#45;&gt;n4 -->
<g id="edge3" class="edge">
<title>n1&#45;&gt;n4</title>
<path fill="none" stroke="black" d="M1104.5,-365.81C1104.5,-346.11 1104.5,-313.58 1104.5,-290.39"/>
<polygon fill="black" stroke="black" points="1108,-290.16 1104.5,-280.16 1101,-290.16 1108,-290.16"/>
</g>
<!-- n5 -->
<g id="node5" class="node">
<title>n5</title>
<polygon fill="#fffdd0" stroke="black" points="1504,-280 1293,-280 1293,-244 1504,-244 1504,-280"/>
<text text-anchor="middle" x="1398.5" y="-258.3" font-family="Arial" font-size="14.00">Squirrels present but not labeled</text>
</g>
<!-- n1&#45;&gt;n5 -->
<g id="edge4" class="edge">
<title>n1&#45;&gt;n5</title>
<path fill="none" stroke="black" d="M1146.3,-365.93C1199.2,-344.34 1290.3,-307.17 1347.3,-283.9"/>
<polygon fill="black" stroke="black" points="1348.87,-287.04 1356.8,-280.01 1346.22,-280.56 1348.87,-287.04"/>
</g>
<!-- n6 -->
<g id="node6" class="node">
<title>n6</title>
<polygon fill="#fffdd0" stroke="black" points="1821,-280 1562,-280 1562,-244 1821,-244 1821,-280"/>
<text text-anchor="middle" x="1691.5" y="-258.3" font-family="Arial" font-size="14.00">Aquatic plants present but labeled &#39;plant&#39;</text>
</g>
<!-- n1&#45;&gt;n6 -->
<g id="edge5" class="edge">
<title>n1&#45;&gt;n6</title>
<path fill="none" stroke="black" d="M1187.7,-366C1296,-343.84 1485,-305.21 1598.2,-282.08"/>
<polygon fill="black" stroke="black" points="1599.11,-285.47 1608.2,-280.03 1597.7,-278.61 1599.11,-285.47"/>
</g>
<!-- n7 -->
<g id="node7" class="node">
<title>n7</title>
<path fill="palegreen" stroke="black" d="M293,-158C293,-158 12,-158 12,-158 6,-158 0,-152 0,-146 0,-146 0,-134 0,-134 0,-128 6,-122 12,-122 12,-122 293,-122 293,-122 299,-122 305,-128 305,-134 305,-134 305,-146 305,-146 305,-152 299,-158 293,-158"/>
<text text-anchor="middle" x="152.5" y="-136.3" font-family="Arial" font-size="14.00">Correctly identifies terrestrial plants and animals</text>
</g>
<!-- n2&#45;&gt;n7 -->
<g id="edge6" class="edge">
<title>n2&#45;&gt;n7</title>
<path fill="none" stroke="black" d="M460.45,-243.93C395.18,-222.12 282.34,-184.4 212.88,-161.18"/>
<polygon fill="black" stroke="black" points="213.97,-157.86 203.38,-158.01 211.76,-164.5 213.97,-157.86"/>
</g>
<!-- n9 -->
<g id="node8" class="node">
<title>n9</title>
<path fill="palegreen" stroke="black" d="M728,-158C728,-158 375,-158 375,-158 369,-158 363,-152 363,-146 363,-146 363,-134 363,-134 363,-128 369,-122 375,-122 375,-122 728,-122 728,-122 734,-122 740,-128 740,-134 740,-134 740,-146 740,-146 740,-152 734,-158 728,-158"/>
<text text-anchor="middle" x="551.5" y="-136.3" font-family="Arial" font-size="14.00">Understands the difference between land and water habitats</text>
</g>
<!-- n2&#45;&gt;n9 -->
<g id="edge7" class="edge">
<title>n2&#45;&gt;n9</title>
<path fill="none" stroke="black" d="M517.23,-243.81C523.85,-223.94 534.84,-190.99 542.58,-167.76"/>
<polygon fill="black" stroke="black" points="545.94,-168.75 545.78,-158.16 539.3,-166.54 545.94,-168.75"/>
</g>
<!-- n3&#45;&gt;n9 -->
<g id="edge8" class="edge">
<title>n3&#45;&gt;n9</title>
<path fill="none" stroke="black" d="M753.94,-243.93C711.91,-222.57 639.88,-185.94 594.03,-162.63"/>
<polygon fill="black" stroke="black" points="595.45,-159.43 584.95,-158.01 592.28,-165.66 595.45,-159.43"/>
</g>
<!-- n8 -->
<g id="node9" class="node">
<title>n8</title>
<path fill="palegreen" stroke="black" d="M1078.5,-158C1078.5,-158 810.5,-158 810.5,-158 804.5,-158 798.5,-152 798.5,-146 798.5,-146 798.5,-134 798.5,-134 798.5,-128 804.5,-122 810.5,-122 810.5,-122 1078.5,-122 1078.5,-122 1084.5,-122 1090.5,-128 1090.5,-134 1090.5,-134 1090.5,-146 1090.5,-146 1090.5,-152 1084.5,-158 1078.5,-158"/>
<text text-anchor="middle" x="944.5" y="-136.3" font-family="Arial" font-size="14.00">Correctly identifies aquatic plants and animals</text>
</g>
<!-- n3&#45;&gt;n8 -->
<g id="edge9" class="edge">
<title>n3&#45;&gt;n8</title>
<path fill="none" stroke="black" d="M809.99,-243.81C837.28,-222.96 883.39,-187.71 913.89,-164.4"/>
<polygon fill="black" stroke="black" points="916.23,-167.01 922.05,-158.16 911.98,-161.45 916.23,-167.01"/>
</g>
<!-- n10 -->
<g id="node10" class="node">
<title>n10</title>
<polygon fill="lightcoral" stroke="black" points="1398.5,-158 1187,-140 1398.5,-122 1610,-140 1398.5,-158"/>
<text text-anchor="middle" x="1398.5" y="-136.3" font-family="Arial" font-size="14.00">Inconsistent or non&#45;specific labeling</text>
</g>
<!-- n4&#45;&gt;n10 -->
<g id="edge10" class="edge">
<title>n4&#45;&gt;n10</title>
<path fill="none" stroke="black" d="M1146.3,-243.93C1201.5,-221.42 1298.1,-181.98 1354.4,-159.01"/>
<polygon fill="black" stroke="black" points="1355.77,-162.23 1363.7,-155.2 1353.12,-155.75 1355.77,-162.23"/>
</g>
<!-- n5&#45;&gt;n10 -->
<g id="edge11" class="edge">
<title>n5&#45;&gt;n10</title>
<path fill="none" stroke="black" d="M1398.5,-243.81C1398.5,-224.11 1398.5,-191.58 1398.5,-168.39"/>
<polygon fill="black" stroke="black" points="1402,-168.16 1398.5,-158.16 1395,-168.16 1402,-168.16"/>
</g>
<!-- n6&#45;&gt;n10 -->
<g id="edge12" class="edge">
<title>n6&#45;&gt;n10</title>
<path fill="none" stroke="black" d="M1649.8,-243.93C1594.9,-221.42 1498.6,-181.98 1442.5,-159.01"/>
<polygon fill="black" stroke="black" points="1443.78,-155.75 1433.2,-155.2 1441.13,-162.23 1443.78,-155.75"/>
</g>
<!-- n11 -->
<g id="node11" class="node">
<title>n11</title>
<polygon fill="#f28e8e" stroke="black" points="1597.5,-36 1199.5,-36 1199.5,0 1597.5,0 1597.5,-36"/>
<text text-anchor="middle" x="1398.5" y="-14.3" font-family="Arial" font-size="14.00">Ensure all elements are labeled with specific terms for accuracy</text>
</g>
<!-- n10&#45;&gt;n11 -->
<g id="edge13" class="edge">
<title>n10&#45;&gt;n11</title>
<path fill="none" stroke="black" d="M1398.5,-121.81C1398.5,-102.11 1398.5,-69.58 1398.5,-46.39"/>
<polygon fill="black" stroke="black" points="1402,-46.16 1398.5,-36.16 1395,-46.16 1402,-46.16"/>
</g>
</g>
</svg>
