<?xml version="1.0" encoding="UTF-8" standalone="no"?>
<!DOCTYPE svg PUBLIC "-//W3C//DTD SVG 1.1//EN"
 "http://www.w3.org/Graphics/SVG/1.1/DTD/svg11.dtd">
<!-- Generated by graphviz version 2.43.0 (0)
 -->
<!-- Pages: 1 -->
<svg width="2250pt" height="288pt"
 viewBox="0.00 0.00 2249.50 288.00" xmlns="http://www.w3.org/2000/svg" xmlns:xlink="http://www.w3.org/1999/xlink">
<g id="graph0" class="graph" transform="scale(1 1) rotate(0) translate(4 284)">
<polygon fill="white" stroke="transparent" points="-4,4 -4,-284 2245.5,-284 2245.5,4 -4,4"/>
<!-- n1 -->
<g id="node1" class="node">
<title>n1</title>
<polygon fill="lightblue" stroke="black" points="1263.5,-262 1172.25,-280 989.75,-280 898.5,-262 989.75,-244 1172.25,-244 1263.5,-262"/>
<text text-anchor="middle" x="1081" y="-258.3" font-family="Arial" font-size="14.00">Draw a fish in their habitat with labels.</text>
</g>
<!-- n2 -->
<g id="node2" class="node">
<title>n2</title>
<polygon fill="#fffdd0" stroke="black" points="351,-158 81,-158 81,-122 351,-122 351,-158"/>
<text text-anchor="middle" x="216" y="-136.3" font-family="Arial" font-size="14.00">A fish with &#39;fins&#39;, &#39;gills&#39;, and &#39;scales&#39; labeled</text>
</g>
<!-- n1&#45;&gt;n2 -->
<g id="edge1" class="edge">
<title>n1&#45;&gt;n2</title>
<path fill="none" stroke="black" d="M976.66,-246.53C819.3,-224.69 521.34,-183.36 348.73,-159.41"/>
<polygon fill="black" stroke="black" points="349.21,-155.94 338.82,-158.04 348.25,-162.88 349.21,-155.94"/>
</g>
<!-- n3 -->
<g id="node3" class="node">
<title>n3</title>
<polygon fill="#fffdd0" stroke="black" points="714,-158 428,-158 428,-122 714,-122 714,-158"/>
<text text-anchor="middle" x="571" y="-136.3" font-family="Arial" font-size="14.00">Underwater scene with labeled ocean habitat</text>
</g>
<!-- n1&#45;&gt;n3 -->
<g id="edge2" class="edge">
<title>n1&#45;&gt;n3</title>
<path fill="none" stroke="black" d="M1008.7,-244C914.96,-221.93 751.71,-183.52 653.27,-160.36"/>
<polygon fill="black" stroke="black" points="653.9,-156.91 643.36,-158.03 652.29,-163.73 653.9,-156.91"/>
</g>
<!-- n4 -->
<g id="node4" class="node">
<title>n4</title>
<polygon fill="#fffdd0" stroke="black" points="1059,-158 803,-158 803,-122 1059,-122 1059,-158"/>
<text text-anchor="middle" x="931" y="-136.3" font-family="Arial" font-size="14.00">Seabed with labeled seagrass and coral</text>
</g>
<!-- n1&#45;&gt;n4 -->
<g id="edge3" class="edge">
<title>n1&#45;&gt;n4</title>
<path fill="none" stroke="black" d="M1059.5,-243.81C1033.6,-223.04 989.77,-188.01 960.62,-164.7"/>
<polygon fill="black" stroke="black" points="962.44,-161.68 952.45,-158.16 958.07,-167.14 962.44,-161.68"/>
</g>
<!-- n5 -->
<g id="node5" class="node">
<title>n5</title>
<polygon fill="#fffdd0" stroke="black" points="1389.5,-158 1160.5,-158 1160.5,-122 1389.5,-122 1389.5,-158"/>
<text text-anchor="middle" x="1275" y="-136.3" font-family="Arial" font-size="14.00">Small crab and another fish labeled</text>
</g>
<!-- n1&#45;&gt;n5 -->
<g id="edge4" class="edge">
<title>n1&#45;&gt;n5</title>
<path fill="none" stroke="black" d="M1108.8,-243.81C1142.9,-222.69 1200.9,-186.81 1238.6,-163.51"/>
<polygon fill="black" stroke="black" points="1240.62,-166.38 1247.3,-158.16 1236.95,-160.42 1240.62,-166.38"/>
</g>
<!-- n6 -->
<g id="node6" class="node">
<title>n6</title>
<polygon fill="#fffdd0" stroke="black" points="1823.5,-158 1478.5,-158 1478.5,-122 1823.5,-122 1823.5,-158"/>
<text text-anchor="middle" x="1651" y="-136.3" font-family="Arial" font-size="14.00">Arrows indicating interdependence between organisms</text>
</g>
<!-- n1&#45;&gt;n6 -->
<g id="edge5" class="edge">
<title>n1&#45;&gt;n6</title>
<path fill="none" stroke="black" d="M1161.8,-244C1266.9,-221.87 1450.1,-183.29 1560,-160.15"/>
<polygon fill="black" stroke="black" points="1561.03,-163.51 1570.1,-158.03 1559.59,-156.66 1561.03,-163.51"/>
</g>
<!-- n7 -->
<g id="node7" class="node">
<title>n7</title>
<polygon fill="#fffdd0" stroke="black" points="2204.5,-158 1899.5,-158 1899.5,-122 2204.5,-122 2204.5,-158"/>
<text text-anchor="middle" x="2052" y="-136.3" font-family="Arial" font-size="14.00">Labels for &#39;water&#39; and &#39;food&#39; near a school of fish</text>
</g>
<!-- n1&#45;&gt;n7 -->
<g id="edge6" class="edge">
<title>n1&#45;&gt;n7</title>
<path fill="none" stroke="black" d="M1190,-247.53C1364.7,-225.94 1707.6,-183.56 1904.2,-159.26"/>
<polygon fill="black" stroke="black" points="1904.81,-162.71 1914.3,-158.01 1903.95,-155.76 1904.81,-162.71"/>
</g>
<!-- n8 -->
<g id="node8" class="node">
<title>n8</title>
<path fill="palegreen" stroke="black" d="M338,-36C338,-36 12,-36 12,-36 6,-36 0,-30 0,-24 0,-24 0,-12 0,-12 0,-6 6,0 12,0 12,0 338,0 338,0 344,0 350,-6 350,-12 350,-12 350,-24 350,-24 350,-30 344,-36 338,-36"/>
<text text-anchor="middle" x="175" y="-14.3" font-family="Arial" font-size="14.00">Student understands fish anatomy (&#39;fins&#39;, &#39;gills&#39;, &#39;scales&#39;)</text>
</g>
<!-- n2&#45;&gt;n8 -->
<g id="edge7" class="edge">
<title>n2&#45;&gt;n8</title>
<path fill="none" stroke="black" d="M210.13,-121.81C203.34,-101.94 192.08,-68.99 184.14,-45.76"/>
<polygon fill="black" stroke="black" points="187.4,-44.49 180.86,-36.16 180.78,-46.76 187.4,-44.49"/>
</g>
<!-- n9 -->
<g id="node9" class="node">
<title>n9</title>
<path fill="palegreen" stroke="black" d="M678,-36C678,-36 420,-36 420,-36 414,-36 408,-30 408,-24 408,-24 408,-12 408,-12 408,-6 414,0 420,0 420,0 678,0 678,0 684,0 690,-6 690,-12 690,-12 690,-24 690,-24 690,-30 684,-36 678,-36"/>
<text text-anchor="middle" x="549" y="-14.3" font-family="Arial" font-size="14.00">Student correctly illustrates an ocean habitat</text>
</g>
<!-- n3&#45;&gt;n9 -->
<g id="edge8" class="edge">
<title>n3&#45;&gt;n9</title>
<path fill="none" stroke="black" d="M567.85,-121.81C564.22,-102.02 558.22,-69.29 553.96,-46.08"/>
<polygon fill="black" stroke="black" points="557.39,-45.37 552.15,-36.16 550.5,-46.63 557.39,-45.37"/>
</g>
<!-- n10 -->
<g id="node10" class="node">
<title>n10</title>
<path fill="palegreen" stroke="black" d="M1084,-36C1084,-36 760,-36 760,-36 754,-36 748,-30 748,-24 748,-24 748,-12 748,-12 748,-6 754,0 760,0 760,0 1084,0 1084,0 1090,0 1096,-6 1096,-12 1096,-12 1096,-24 1096,-24 1096,-30 1090,-36 1084,-36"/>
<text text-anchor="middle" x="922" y="-14.3" font-family="Arial" font-size="14.00">Student recognizes the existence of seagrass and coral</text>
</g>
<!-- n4&#45;&gt;n10 -->
<g id="edge9" class="edge">
<title>n4&#45;&gt;n10</title>
<path fill="none" stroke="black" d="M929.71,-121.81C928.23,-102.11 925.79,-69.58 924.05,-46.39"/>
<polygon fill="black" stroke="black" points="927.52,-45.87 923.29,-36.16 920.54,-46.39 927.52,-45.87"/>
</g>
<!-- n11 -->
<g id="node11" class="node">
<title>n11</title>
<path fill="palegreen" stroke="black" d="M1453.5,-36C1453.5,-36 1166.5,-36 1166.5,-36 1160.5,-36 1154.5,-30 1154.5,-24 1154.5,-24 1154.5,-12 1154.5,-12 1154.5,-6 1160.5,0 1166.5,0 1166.5,0 1453.5,0 1453.5,0 1459.5,0 1465.5,-6 1465.5,-12 1465.5,-12 1465.5,-24 1465.5,-24 1465.5,-30 1459.5,-36 1453.5,-36"/>
<text text-anchor="middle" x="1310" y="-14.3" font-family="Arial" font-size="14.00">Understanding of basic marine organism labeling</text>
</g>
<!-- n5&#45;&gt;n11 -->
<g id="edge10" class="edge">
<title>n5&#45;&gt;n11</title>
<path fill="none" stroke="black" d="M1280,-121.81C1285.8,-101.94 1295.4,-68.99 1302.2,-45.76"/>
<polygon fill="black" stroke="black" points="1305.56,-46.74 1305,-36.16 1298.84,-44.78 1305.56,-46.74"/>
</g>
<!-- n12 -->
<g id="node12" class="node">
<title>n12</title>
<path fill="palegreen" stroke="black" d="M1812.5,-36C1812.5,-36 1535.5,-36 1535.5,-36 1529.5,-36 1523.5,-30 1523.5,-24 1523.5,-24 1523.5,-12 1523.5,-12 1523.5,-6 1529.5,0 1535.5,0 1535.5,0 1812.5,0 1812.5,0 1818.5,0 1824.5,-6 1824.5,-12 1824.5,-12 1824.5,-24 1824.5,-24 1824.5,-30 1818.5,-36 1812.5,-36"/>
<text text-anchor="middle" x="1674" y="-14.3" font-family="Arial" font-size="14.00">Comprehension of ecosystem interdependence</text>
</g>
<!-- n6&#45;&gt;n12 -->
<g id="edge11" class="edge">
<title>n6&#45;&gt;n12</title>
<path fill="none" stroke="black" d="M1654.3,-121.81C1658.1,-102.02 1664.4,-69.29 1668.8,-46.08"/>
<polygon fill="black" stroke="black" points="1672.26,-46.64 1670.7,-36.16 1665.38,-45.32 1672.26,-46.64"/>
</g>
<!-- n13 -->
<g id="node13" class="node">
<title>n13</title>
<path fill="palegreen" stroke="black" d="M2229.5,-36C2229.5,-36 1894.5,-36 1894.5,-36 1888.5,-36 1882.5,-30 1882.5,-24 1882.5,-24 1882.5,-12 1882.5,-12 1882.5,-6 1888.5,0 1894.5,0 1894.5,0 2229.5,0 2229.5,0 2235.5,0 2241.5,-6 2241.5,-12 2241.5,-12 2241.5,-24 2241.5,-24 2241.5,-30 2235.5,-36 2229.5,-36"/>
<text text-anchor="middle" x="2062" y="-14.3" font-family="Arial" font-size="14.00">Demonstrates knowledge of food and water as resources</text>
</g>
<!-- n7&#45;&gt;n13 -->
<g id="edge12" class="edge">
<title>n7&#45;&gt;n13</title>
<path fill="none" stroke="black" d="M2053.4,-121.81C2055.1,-102.11 2057.8,-69.58 2059.7,-46.39"/>
<polygon fill="black" stroke="black" points="2063.21,-46.43 2060.6,-36.16 2056.24,-45.82 2063.21,-46.43"/>
</g>
</g>
</svg>
