<?xml version="1.0" encoding="UTF-8" standalone="no"?>
<!DOCTYPE svg PUBLIC "-//W3C//DTD SVG 1.1//EN"
 "http://www.w3.org/Graphics/SVG/1.1/DTD/svg11.dtd">
<!-- Generated by graphviz version 2.43.0 (0)
 -->
<!-- Pages: 1 -->
<svg width="1392pt" height="410pt"
 viewBox="0.00 0.00 1392.00 410.00" xmlns="http://www.w3.org/2000/svg" xmlns:xlink="http://www.w3.org/1999/xlink">
<g id="graph0" class="graph" transform="scale(1 1) rotate(0) translate(4 406)">
<polygon fill="white" stroke="transparent" points="-4,4 -4,-406 1388,-406 1388,4 -4,4"/>
<!-- n1 -->
<g id="node1" class="node">
<title>n1</title>
<polygon fill="lightblue" stroke="black" points="1034.87,-384 893.68,-402 611.32,-402 470.13,-384 611.32,-366 893.68,-366 1034.87,-384"/>
<text text-anchor="middle" x="752.5" y="-380.3" font-family="Arial" font-size="14.00">Draw animals in their habitats with labels (e.g., fish in water)</text>
</g>
<!-- n2 -->
<g id="node2" class="node">
<title>n2</title>
<polygon fill="#fffdd0" stroke="black" points="573,-280 184,-280 184,-244 573,-244 573,-280"/>
<text text-anchor="middle" x="378.5" y="-258.3" font-family="Arial" font-size="14.00">Blue area representing water with a fish inside, labeled as &#39;fsh&#39;</text>
</g>
<!-- n1&#45;&gt;n2 -->
<g id="edge1" class="edge">
<title>n1&#45;&gt;n2</title>
<path fill="none" stroke="black" d="M699.31,-365.93C631.32,-344.12 513.77,-306.4 441.41,-283.18"/>
<polygon fill="black" stroke="black" points="442.09,-279.72 431.5,-280.01 439.96,-286.39 442.09,-279.72"/>
</g>
<!-- n3 -->
<g id="node3" class="node">
<title>n3</title>
<polygon fill="#fffdd0" stroke="black" points="861.5,-280 643.5,-280 643.5,-244 861.5,-244 861.5,-280"/>
<text text-anchor="middle" x="752.5" y="-258.3" font-family="Arial" font-size="14.00">Tree with a bird in it, label unclear</text>
</g>
<!-- n1&#45;&gt;n3 -->
<g id="edge2" class="edge">
<title>n1&#45;&gt;n3</title>
<path fill="none" stroke="black" d="M752.5,-365.81C752.5,-346.11 752.5,-313.58 752.5,-290.39"/>
<polygon fill="black" stroke="black" points="756,-290.16 752.5,-280.16 749,-290.16 756,-290.16"/>
</g>
<!-- n4 -->
<g id="node4" class="node">
<title>n4</title>
<polygon fill="#fffdd0" stroke="black" points="1189,-280 1010,-280 1010,-244 1189,-244 1189,-280"/>
<text text-anchor="middle" x="1099.5" y="-258.3" font-family="Arial" font-size="14.00">Green grass on the ground</text>
</g>
<!-- n1&#45;&gt;n4 -->
<g id="edge3" class="edge">
<title>n1&#45;&gt;n4</title>
<path fill="none" stroke="black" d="M801.85,-365.93C864.8,-344.16 973.55,-306.56 1040.7,-283.33"/>
<polygon fill="black" stroke="black" points="1041.99,-286.59 1050.3,-280.01 1039.71,-279.97 1041.99,-286.59"/>
</g>
<!-- n5 -->
<g id="node5" class="node">
<title>n5</title>
<path fill="palegreen" stroke="black" d="M179,-158C179,-158 12,-158 12,-158 6,-158 0,-152 0,-146 0,-146 0,-134 0,-134 0,-128 6,-122 12,-122 12,-122 179,-122 179,-122 185,-122 191,-128 191,-134 191,-134 191,-146 191,-146 191,-152 185,-158 179,-158"/>
<text text-anchor="middle" x="95.5" y="-136.3" font-family="Arial" font-size="14.00">Fish shown in water correctly</text>
</g>
<!-- n2&#45;&gt;n5 -->
<g id="edge4" class="edge">
<title>n2&#45;&gt;n5</title>
<path fill="none" stroke="black" d="M338.25,-243.93C287.44,-222.39 200.03,-185.32 145.13,-162.04"/>
<polygon fill="black" stroke="black" points="146.18,-158.69 135.61,-158.01 143.45,-165.13 146.18,-158.69"/>
</g>
<!-- n6 -->
<g id="node6" class="node">
<title>n6</title>
<polygon fill="lightcoral" stroke="black" points="378.5,-158 248.8,-140 378.5,-122 508.2,-140 378.5,-158"/>
<text text-anchor="middle" x="378.5" y="-136.3" font-family="Arial" font-size="14.00">Misspelled label &#39;fsh&#39;</text>
</g>
<!-- n2&#45;&gt;n6 -->
<g id="edge5" class="edge">
<title>n2&#45;&gt;n6</title>
<path fill="none" stroke="black" d="M378.5,-243.81C378.5,-224.11 378.5,-191.58 378.5,-168.39"/>
<polygon fill="black" stroke="black" points="382,-168.16 378.5,-158.16 375,-168.16 382,-168.16"/>
</g>
<!-- n7 -->
<g id="node7" class="node">
<title>n7</title>
<polygon fill="lightcoral" stroke="black" points="752.5,-158 565.82,-140 752.5,-122 939.18,-140 752.5,-158"/>
<text text-anchor="middle" x="752.5" y="-136.3" font-family="Arial" font-size="14.00">Bird in tree but unclear labeling</text>
</g>
<!-- n3&#45;&gt;n7 -->
<g id="edge6" class="edge">
<title>n3&#45;&gt;n7</title>
<path fill="none" stroke="black" d="M752.5,-243.81C752.5,-224.11 752.5,-191.58 752.5,-168.39"/>
<polygon fill="black" stroke="black" points="756,-168.16 752.5,-158.16 749,-168.16 756,-168.16"/>
</g>
<!-- n8 -->
<g id="node8" class="node">
<title>n8</title>
<path fill="palegreen" stroke="black" d="M1372,-158C1372,-158 1009,-158 1009,-158 1003,-158 997,-152 997,-146 997,-146 997,-134 997,-134 997,-128 1003,-122 1009,-122 1009,-122 1372,-122 1372,-122 1378,-122 1384,-128 1384,-134 1384,-134 1384,-146 1384,-146 1384,-152 1378,-158 1372,-158"/>
<text text-anchor="middle" x="1190.5" y="-136.3" font-family="Arial" font-size="14.00">Correct depiction of habitat for grass (ground level placement)</text>
</g>
<!-- n4&#45;&gt;n8 -->
<g id="edge7" class="edge">
<title>n4&#45;&gt;n8</title>
<path fill="none" stroke="black" d="M1112.5,-243.81C1127.9,-223.49 1153.7,-189.51 1171.4,-166.21"/>
<polygon fill="black" stroke="black" points="1174.25,-168.24 1177.5,-158.16 1168.67,-164.02 1174.25,-168.24"/>
</g>
<!-- n9 -->
<g id="node9" class="node">
<title>n9</title>
<polygon fill="#f28e8e" stroke="black" points="510,-36 247,-36 247,0 510,0 510,-36"/>
<text text-anchor="middle" x="378.5" y="-14.3" font-family="Arial" font-size="14.00">Ensure correct spelling of labels like &#39;fish&#39;</text>
</g>
<!-- n6&#45;&gt;n9 -->
<g id="edge8" class="edge">
<title>n6&#45;&gt;n9</title>
<path fill="none" stroke="black" d="M378.5,-121.81C378.5,-102.11 378.5,-69.58 378.5,-46.39"/>
<polygon fill="black" stroke="black" points="382,-46.16 378.5,-36.16 375,-46.16 382,-46.16"/>
</g>
<!-- n10 -->
<g id="node10" class="node">
<title>n10</title>
<polygon fill="#f28e8e" stroke="black" points="890.5,-36 614.5,-36 614.5,0 890.5,0 890.5,-36"/>
<text text-anchor="middle" x="752.5" y="-14.3" font-family="Arial" font-size="14.00">Place labels closer to the animals for clarity</text>
</g>
<!-- n7&#45;&gt;n10 -->
<g id="edge9" class="edge">
<title>n7&#45;&gt;n10</title>
<path fill="none" stroke="black" d="M752.5,-121.81C752.5,-102.11 752.5,-69.58 752.5,-46.39"/>
<polygon fill="black" stroke="black" points="756,-46.16 752.5,-36.16 749,-46.16 756,-46.16"/>
</g>
</g>
</svg>
