<?xml version="1.0" encoding="UTF-8" standalone="no"?>
<!DOCTYPE svg PUBLIC "-//W3C//DTD SVG 1.1//EN"
 "http://www.w3.org/Graphics/SVG/1.1/DTD/svg11.dtd">
<!-- Generated by graphviz version 2.43.0 (0)
 -->
<!-- Pages: 1 -->
<svg width="1098pt" height="410pt"
 viewBox="0.00 0.00 1098.00 410.00" xmlns="http://www.w3.org/2000/svg" xmlns:xlink="http://www.w3.org/1999/xlink">
<g id="graph0" class="graph" transform="scale(1 1) rotate(0) translate(4 406)">
<polygon fill="white" stroke="transparent" points="-4,4 -4,-406 1094,-406 1094,4 -4,4"/>
<!-- n1 -->
<g id="node1" class="node">
<title>n1</title>
<polygon fill="lightblue" stroke="black" points="638.5,-384 547.25,-402 364.75,-402 273.5,-384 364.75,-366 547.25,-366 638.5,-384"/>
<text text-anchor="middle" x="456" y="-380.3" font-family="Arial" font-size="14.00">Draw a fish in their habitat with labels.</text>
</g>
<!-- n2 -->
<g id="node2" class="node">
<title>n2</title>
<polygon fill="#fffdd0" stroke="black" points="299,-280 27,-280 27,-244 299,-244 299,-280"/>
<text text-anchor="middle" x="163" y="-258.3" font-family="Arial" font-size="14.00">Large oval fish with triangle tail and an eye</text>
</g>
<!-- n1&#45;&gt;n2 -->
<g id="edge1" class="edge">
<title>n1&#45;&gt;n2</title>
<path fill="none" stroke="black" d="M414.33,-365.93C361.61,-344.34 270.85,-307.17 214.03,-283.9"/>
<polygon fill="black" stroke="black" points="215.1,-280.56 204.52,-280.01 212.45,-287.04 215.1,-280.56"/>
</g>
<!-- n3 -->
<g id="node3" class="node">
<title>n3</title>
<polygon fill="#fffdd0" stroke="black" points="821.5,-280 626.5,-280 626.5,-244 821.5,-244 821.5,-280"/>
<text text-anchor="middle" x="724" y="-258.3" font-family="Arial" font-size="14.00">Blue blob surrounding the fish</text>
</g>
<!-- n1&#45;&gt;n3 -->
<g id="edge2" class="edge">
<title>n1&#45;&gt;n3</title>
<path fill="none" stroke="black" d="M494.11,-365.93C542.14,-344.43 624.67,-307.48 676.68,-284.19"/>
<polygon fill="black" stroke="black" points="678.32,-287.29 686.02,-280.01 675.46,-280.9 678.32,-287.29"/>
</g>
<!-- n4 -->
<g id="node4" class="node">
<title>n4</title>
<polygon fill="#fffdd0" stroke="black" points="555,-280 357,-280 357,-244 555,-244 555,-280"/>
<text text-anchor="middle" x="456" y="-258.3" font-family="Arial" font-size="14.00">Label &#39;fish&#39; next to the drawing</text>
</g>
<!-- n1&#45;&gt;n4 -->
<g id="edge3" class="edge">
<title>n1&#45;&gt;n4</title>
<path fill="none" stroke="black" d="M456,-365.81C456,-346.11 456,-313.58 456,-290.39"/>
<polygon fill="black" stroke="black" points="459.5,-290.16 456,-280.16 452.5,-290.16 459.5,-290.16"/>
</g>
<!-- n5 -->
<g id="node5" class="node">
<title>n5</title>
<path fill="palegreen" stroke="black" d="M314,-158C314,-158 12,-158 12,-158 6,-158 0,-152 0,-146 0,-146 0,-134 0,-134 0,-128 6,-122 12,-122 12,-122 314,-122 314,-122 320,-122 326,-128 326,-134 326,-134 326,-146 326,-146 326,-152 320,-158 314,-158"/>
<text text-anchor="middle" x="163" y="-136.3" font-family="Arial" font-size="14.00">Student can identify and label a fish as a living thing</text>
</g>
<!-- n2&#45;&gt;n5 -->
<g id="edge4" class="edge">
<title>n2&#45;&gt;n5</title>
<path fill="none" stroke="black" d="M163,-243.81C163,-224.11 163,-191.58 163,-168.39"/>
<polygon fill="black" stroke="black" points="166.5,-168.16 163,-158.16 159.5,-168.16 166.5,-168.16"/>
</g>
<!-- n6 -->
<g id="node6" class="node">
<title>n6</title>
<polygon fill="lightcoral" stroke="black" points="737,-158 384,-140 737,-122 1090,-140 737,-158"/>
<text text-anchor="middle" x="737" y="-136.3" font-family="Arial" font-size="14.00">Lacks detail in depicting the fish&#39;s environment or interactions</text>
</g>
<!-- n3&#45;&gt;n6 -->
<g id="edge5" class="edge">
<title>n3&#45;&gt;n6</title>
<path fill="none" stroke="black" d="M725.86,-243.81C728,-224.11 731.52,-191.58 734.03,-168.39"/>
<polygon fill="black" stroke="black" points="737.54,-168.48 735.14,-158.16 730.58,-167.72 737.54,-168.48"/>
</g>
<!-- n4&#45;&gt;n5 -->
<g id="edge6" class="edge">
<title>n4&#45;&gt;n5</title>
<path fill="none" stroke="black" d="M414.33,-243.93C361.61,-222.34 270.85,-185.17 214.03,-161.9"/>
<polygon fill="black" stroke="black" points="215.1,-158.56 204.52,-158.01 212.45,-165.04 215.1,-158.56"/>
</g>
<!-- n7 -->
<g id="node7" class="node">
<title>n7</title>
<polygon fill="#f28e8e" stroke="black" points="937.5,-36 536.5,-36 536.5,0 937.5,0 937.5,-36"/>
<text text-anchor="middle" x="737" y="-14.3" font-family="Arial" font-size="14.00">Student will benefit from exploring other ecosystem components</text>
</g>
<!-- n6&#45;&gt;n7 -->
<g id="edge7" class="edge">
<title>n6&#45;&gt;n7</title>
<path fill="none" stroke="black" d="M737,-121.81C737,-102.11 737,-69.58 737,-46.39"/>
<polygon fill="black" stroke="black" points="740.5,-46.16 737,-36.16 733.5,-46.16 740.5,-46.16"/>
</g>
</g>
</svg>
