<?xml version="1.0" encoding="UTF-8" standalone="no"?>
<!DOCTYPE svg PUBLIC "-//W3C//DTD SVG 1.1//EN"
 "http://www.w3.org/Graphics/SVG/1.1/DTD/svg11.dtd">
<!-- Generated by graphviz version 2.43.0 (0)
 -->
<!-- Pages: 1 -->
<svg width="2821pt" height="410pt"
 viewBox="0.00 0.00 2821.00 410.00" xmlns="http://www.w3.org/2000/svg" xmlns:xlink="http://www.w3.org/1999/xlink">
<g id="graph0" class="graph" transform="scale(1 1) rotate(0) translate(4 406)">
<polygon fill="white" stroke="transparent" points="-4,4 -4,-406 2817,-406 2817,4 -4,4"/>
<!-- n1 -->
<g id="node1" class="node">
<title>n1</title>
<polygon fill="lightblue" stroke="black" points="2003.32,-384 1880.91,-402 1636.09,-402 1513.68,-384 1636.09,-366 1880.91,-366 2003.32,-384"/>
<text text-anchor="middle" x="1758.5" y="-380.3" font-family="Arial" font-size="14.00">Draw a habitat and the different living things in each</text>
</g>
<!-- n2 -->
<g id="node2" class="node">
<title>n2</title>
<polygon fill="#fffdd0" stroke="black" points="712,-280 529,-280 529,-244 712,-244 712,-280"/>
<text text-anchor="middle" x="620.5" y="-258.3" font-family="Arial" font-size="14.00">Pond with wavy blue outline</text>
</g>
<!-- n1&#45;&gt;n2 -->
<g id="edge1" class="edge">
<title>n1&#45;&gt;n2</title>
<path fill="none" stroke="black" d="M1619.8,-368.38C1388,-343.93 927.15,-295.34 722.5,-273.76"/>
<polygon fill="black" stroke="black" points="722.67,-270.26 712.36,-272.69 721.94,-277.22 722.67,-270.26"/>
</g>
<!-- n3 -->
<g id="node3" class="node">
<title>n3</title>
<polygon fill="#fffdd0" stroke="black" points="1206,-280 1053,-280 1053,-244 1206,-244 1206,-280"/>
<text text-anchor="middle" x="1129.5" y="-258.3" font-family="Arial" font-size="14.00">Colorful fish swimming</text>
</g>
<!-- n1&#45;&gt;n3 -->
<g id="edge2" class="edge">
<title>n1&#45;&gt;n3</title>
<path fill="none" stroke="black" d="M1669.4,-366C1548.9,-343.01 1335.4,-302.29 1216.2,-279.54"/>
<polygon fill="black" stroke="black" points="1216.88,-276.11 1206.4,-277.67 1215.57,-282.98 1216.88,-276.11"/>
</g>
<!-- n4 -->
<g id="node4" class="node">
<title>n4</title>
<polygon fill="#fffdd0" stroke="black" points="1495.5,-280 1285.5,-280 1285.5,-244 1495.5,-244 1495.5,-280"/>
<text text-anchor="middle" x="1390.5" y="-258.3" font-family="Arial" font-size="14.00">Green lily pads with pink flowers</text>
</g>
<!-- n1&#45;&gt;n4 -->
<g id="edge3" class="edge">
<title>n1&#45;&gt;n4</title>
<path fill="none" stroke="black" d="M1706.2,-365.93C1639.3,-344.12 1523.6,-306.4 1452.4,-283.18"/>
<polygon fill="black" stroke="black" points="1453.29,-279.79 1442.7,-280.01 1451.12,-286.44 1453.29,-279.79"/>
</g>
<!-- n5 -->
<g id="node5" class="node">
<title>n5</title>
<polygon fill="#fffdd0" stroke="black" points="1711.5,-280 1565.5,-280 1565.5,-244 1711.5,-244 1711.5,-280"/>
<text text-anchor="middle" x="1638.5" y="-258.3" font-family="Arial" font-size="14.00">Green frog on lily pad</text>
</g>
<!-- n1&#45;&gt;n5 -->
<g id="edge4" class="edge">
<title>n1&#45;&gt;n5</title>
<path fill="none" stroke="black" d="M1741.3,-365.81C1720.7,-345.22 1686.1,-310.61 1662.8,-287.3"/>
<polygon fill="black" stroke="black" points="1665.23,-284.78 1655.7,-280.16 1660.27,-289.72 1665.23,-284.78"/>
</g>
<!-- n6 -->
<g id="node6" class="node">
<title>n6</title>
<polygon fill="#fffdd0" stroke="black" points="1997.5,-280 1779.5,-280 1779.5,-244 1997.5,-244 1997.5,-280"/>
<text text-anchor="middle" x="1888.5" y="-258.3" font-family="Arial" font-size="14.00">Tall green grasses at pond&#39;s edge</text>
</g>
<!-- n1&#45;&gt;n6 -->
<g id="edge5" class="edge">
<title>n1&#45;&gt;n6</title>
<path fill="none" stroke="black" d="M1777.1,-365.81C1799.5,-345.13 1837.2,-310.31 1862.5,-287"/>
<polygon fill="black" stroke="black" points="1864.93,-289.52 1869.9,-280.16 1860.18,-284.38 1864.93,-289.52"/>
</g>
<!-- n7 -->
<g id="node7" class="node">
<title>n7</title>
<polygon fill="#fffdd0" stroke="black" points="2231.5,-280 2073.5,-280 2073.5,-244 2231.5,-244 2231.5,-280"/>
<text text-anchor="middle" x="2152.5" y="-258.3" font-family="Arial" font-size="14.00">Blue dragonfly hovering</text>
</g>
<!-- n1&#45;&gt;n7 -->
<g id="edge6" class="edge">
<title>n1&#45;&gt;n7</title>
<path fill="none" stroke="black" d="M1814.5,-365.93C1886.3,-344.07 2010.5,-306.25 2086.7,-283.04"/>
<polygon fill="black" stroke="black" points="2088.14,-286.26 2096.7,-280.01 2086.11,-279.56 2088.14,-286.26"/>
</g>
<!-- n8 -->
<g id="node8" class="node">
<title>n8</title>
<polygon fill="#fffdd0" stroke="black" points="2475,-280 2330,-280 2330,-244 2475,-244 2475,-280"/>
<text text-anchor="middle" x="2402.5" y="-258.3" font-family="Arial" font-size="14.00">Brown bird on branch</text>
</g>
<!-- n1&#45;&gt;n8 -->
<g id="edge7" class="edge">
<title>n1&#45;&gt;n8</title>
<path fill="none" stroke="black" d="M1849.7,-366C1975.1,-342.63 2198.8,-300.95 2319.7,-278.44"/>
<polygon fill="black" stroke="black" points="2320.41,-281.87 2329.6,-276.59 2319.13,-274.99 2320.41,-281.87"/>
</g>
<!-- n9 -->
<g id="node9" class="node">
<title>n9</title>
<polygon fill="#fffdd0" stroke="black" points="2774.5,-280 2574.5,-280 2574.5,-244 2774.5,-244 2774.5,-280"/>
<text text-anchor="middle" x="2674.5" y="-258.3" font-family="Arial" font-size="14.00">Small green bush beside pond</text>
</g>
<!-- n1&#45;&gt;n9 -->
<g id="edge8" class="edge">
<title>n1&#45;&gt;n9</title>
<path fill="none" stroke="black" d="M1884.4,-366.5C2064.6,-342.9 2393.1,-299.87 2564.2,-277.45"/>
<polygon fill="black" stroke="black" points="2564.74,-280.91 2574.2,-276.14 2563.83,-273.97 2564.74,-280.91"/>
</g>
<!-- n10 -->
<g id="node10" class="node">
<title>n10</title>
<path fill="palegreen" stroke="black" d="M219,-158C219,-158 12,-158 12,-158 6,-158 0,-152 0,-146 0,-146 0,-134 0,-134 0,-128 6,-122 12,-122 12,-122 219,-122 219,-122 225,-122 231,-128 231,-134 231,-134 231,-146 231,-146 231,-152 225,-158 219,-158"/>
<text text-anchor="middle" x="115.5" y="-136.3" font-family="Arial" font-size="14.00">Recognizes pond as a water habitat</text>
</g>
<!-- n2&#45;&gt;n10 -->
<g id="edge9" class="edge">
<title>n2&#45;&gt;n10</title>
<path fill="none" stroke="black" d="M548.95,-244C456.09,-221.93 294.44,-183.52 196.96,-160.36"/>
<polygon fill="black" stroke="black" points="197.69,-156.94 187.15,-158.03 196.07,-163.75 197.69,-156.94"/>
</g>
<!-- n18 -->
<g id="node11" class="node">
<title>n18</title>
<polygon fill="lightcoral" stroke="black" points="620.5,-158 288.5,-140 620.5,-122 952.5,-140 620.5,-158"/>
<text text-anchor="middle" x="620.5" y="-136.3" font-family="Arial" font-size="14.00">May lack understanding of underwater animals like clams</text>
</g>
<!-- n2&#45;&gt;n18 -->
<g id="edge10" class="edge">
<title>n2&#45;&gt;n18</title>
<path fill="none" stroke="black" d="M620.5,-243.81C620.5,-224.11 620.5,-191.58 620.5,-168.39"/>
<polygon fill="black" stroke="black" points="624,-168.16 620.5,-158.16 617,-168.16 624,-168.16"/>
</g>
<!-- n11 -->
<g id="node12" class="node">
<title>n11</title>
<path fill="palegreen" stroke="black" d="M1208.5,-158C1208.5,-158 1022.5,-158 1022.5,-158 1016.5,-158 1010.5,-152 1010.5,-146 1010.5,-146 1010.5,-134 1010.5,-134 1010.5,-128 1016.5,-122 1022.5,-122 1022.5,-122 1208.5,-122 1208.5,-122 1214.5,-122 1220.5,-128 1220.5,-134 1220.5,-134 1220.5,-146 1220.5,-146 1220.5,-152 1214.5,-158 1208.5,-158"/>
<text text-anchor="middle" x="1115.5" y="-136.3" font-family="Arial" font-size="14.00">Fish are part of pond ecosystem</text>
</g>
<!-- n3&#45;&gt;n11 -->
<g id="edge11" class="edge">
<title>n3&#45;&gt;n11</title>
<path fill="none" stroke="black" d="M1127.5,-243.81C1125.2,-224.11 1121.4,-191.58 1118.7,-168.39"/>
<polygon fill="black" stroke="black" points="1122.14,-167.68 1117.5,-158.16 1115.19,-168.5 1122.14,-167.68"/>
</g>
<!-- n12 -->
<g id="node13" class="node">
<title>n12</title>
<path fill="palegreen" stroke="black" d="M1476.5,-158C1476.5,-158 1290.5,-158 1290.5,-158 1284.5,-158 1278.5,-152 1278.5,-146 1278.5,-146 1278.5,-134 1278.5,-134 1278.5,-128 1284.5,-122 1290.5,-122 1290.5,-122 1476.5,-122 1476.5,-122 1482.5,-122 1488.5,-128 1488.5,-134 1488.5,-134 1488.5,-146 1488.5,-146 1488.5,-152 1482.5,-158 1476.5,-158"/>
<text text-anchor="middle" x="1383.5" y="-136.3" font-family="Arial" font-size="14.00">Plants grow in and around water</text>
</g>
<!-- n4&#45;&gt;n12 -->
<g id="edge12" class="edge">
<title>n4&#45;&gt;n12</title>
<path fill="none" stroke="black" d="M1389.5,-243.81C1388.3,-224.11 1386.5,-191.58 1385.1,-168.39"/>
<polygon fill="black" stroke="black" points="1388.58,-167.94 1384.5,-158.16 1381.59,-168.35 1388.58,-167.94"/>
</g>
<!-- n13 -->
<g id="node14" class="node">
<title>n13</title>
<path fill="palegreen" stroke="black" d="M1708.5,-158C1708.5,-158 1558.5,-158 1558.5,-158 1552.5,-158 1546.5,-152 1546.5,-146 1546.5,-146 1546.5,-134 1546.5,-134 1546.5,-128 1552.5,-122 1558.5,-122 1558.5,-122 1708.5,-122 1708.5,-122 1714.5,-122 1720.5,-128 1720.5,-134 1720.5,-134 1720.5,-146 1720.5,-146 1720.5,-152 1714.5,-158 1708.5,-158"/>
<text text-anchor="middle" x="1633.5" y="-136.3" font-family="Arial" font-size="14.00">Frogs live in pond habitats</text>
</g>
<!-- n5&#45;&gt;n13 -->
<g id="edge13" class="edge">
<title>n5&#45;&gt;n13</title>
<path fill="none" stroke="black" d="M1637.8,-243.81C1637,-224.11 1635.6,-191.58 1634.6,-168.39"/>
<polygon fill="black" stroke="black" points="1638.09,-168.02 1634.2,-158.16 1631.09,-168.29 1638.09,-168.02"/>
</g>
<!-- n14 -->
<g id="node15" class="node">
<title>n14</title>
<path fill="palegreen" stroke="black" d="M1996.5,-158C1996.5,-158 1790.5,-158 1790.5,-158 1784.5,-158 1778.5,-152 1778.5,-146 1778.5,-146 1778.5,-134 1778.5,-134 1778.5,-128 1784.5,-122 1790.5,-122 1790.5,-122 1996.5,-122 1996.5,-122 2002.5,-122 2008.5,-128 2008.5,-134 2008.5,-134 2008.5,-146 2008.5,-146 2008.5,-152 2002.5,-158 1996.5,-158"/>
<text text-anchor="middle" x="1893.5" y="-136.3" font-family="Arial" font-size="14.00">Identifies grasses as wetland plants</text>
</g>
<!-- n6&#45;&gt;n14 -->
<g id="edge14" class="edge">
<title>n6&#45;&gt;n14</title>
<path fill="none" stroke="black" d="M1889.2,-243.81C1890,-224.11 1891.4,-191.58 1892.4,-168.39"/>
<polygon fill="black" stroke="black" points="1895.91,-168.29 1892.8,-158.16 1888.91,-168.02 1895.91,-168.29"/>
</g>
<!-- n15 -->
<g id="node16" class="node">
<title>n15</title>
<path fill="palegreen" stroke="black" d="M2254.5,-158C2254.5,-158 2078.5,-158 2078.5,-158 2072.5,-158 2066.5,-152 2066.5,-146 2066.5,-146 2066.5,-134 2066.5,-134 2066.5,-128 2072.5,-122 2078.5,-122 2078.5,-122 2254.5,-122 2254.5,-122 2260.5,-122 2266.5,-128 2266.5,-134 2266.5,-134 2266.5,-146 2266.5,-146 2266.5,-152 2260.5,-158 2254.5,-158"/>
<text text-anchor="middle" x="2166.5" y="-136.3" font-family="Arial" font-size="14.00">Dragonflies inhabit pond areas</text>
</g>
<!-- n7&#45;&gt;n15 -->
<g id="edge15" class="edge">
<title>n7&#45;&gt;n15</title>
<path fill="none" stroke="black" d="M2154.5,-243.81C2156.8,-224.11 2160.6,-191.58 2163.3,-168.39"/>
<polygon fill="black" stroke="black" points="2166.81,-168.5 2164.5,-158.16 2159.86,-167.68 2166.81,-168.5"/>
</g>
<!-- n16 -->
<g id="node17" class="node">
<title>n16</title>
<path fill="palegreen" stroke="black" d="M2538,-158C2538,-158 2337,-158 2337,-158 2331,-158 2325,-152 2325,-146 2325,-146 2325,-134 2325,-134 2325,-128 2331,-122 2337,-122 2337,-122 2538,-122 2538,-122 2544,-122 2550,-128 2550,-134 2550,-134 2550,-146 2550,-146 2550,-152 2544,-158 2538,-158"/>
<text text-anchor="middle" x="2437.5" y="-136.3" font-family="Arial" font-size="14.00">Birds are part of habitat&#39;s food web</text>
</g>
<!-- n8&#45;&gt;n16 -->
<g id="edge16" class="edge">
<title>n8&#45;&gt;n16</title>
<path fill="none" stroke="black" d="M2407.5,-243.81C2413.3,-223.94 2422.9,-190.99 2429.7,-167.76"/>
<polygon fill="black" stroke="black" points="2433.06,-168.74 2432.5,-158.16 2426.34,-166.78 2433.06,-168.74"/>
</g>
<!-- n17 -->
<g id="node18" class="node">
<title>n17</title>
<path fill="palegreen" stroke="black" d="M2801,-158C2801,-158 2620,-158 2620,-158 2614,-158 2608,-152 2608,-146 2608,-146 2608,-134 2608,-134 2608,-128 2614,-122 2620,-122 2620,-122 2801,-122 2801,-122 2807,-122 2813,-128 2813,-134 2813,-134 2813,-146 2813,-146 2813,-152 2807,-158 2801,-158"/>
<text text-anchor="middle" x="2710.5" y="-136.3" font-family="Arial" font-size="14.00">Understands shrubs near water</text>
</g>
<!-- n9&#45;&gt;n17 -->
<g id="edge17" class="edge">
<title>n9&#45;&gt;n17</title>
<path fill="none" stroke="black" d="M2679.7,-243.81C2685.6,-223.94 2695.5,-190.99 2702.5,-167.76"/>
<polygon fill="black" stroke="black" points="2705.86,-168.74 2705.4,-158.16 2699.16,-166.72 2705.86,-168.74"/>
</g>
<!-- n19 -->
<g id="node19" class="node">
<title>n19</title>
<polygon fill="#f28e8e" stroke="black" points="801.5,-36 439.5,-36 439.5,0 801.5,0 801.5,-36"/>
<text text-anchor="middle" x="620.5" y="-14.3" font-family="Arial" font-size="14.00">Consider adding labels for clearer identification of species</text>
</g>
<!-- n18&#45;&gt;n19 -->
<g id="edge18" class="edge">
<title>n18&#45;&gt;n19</title>
<path fill="none" stroke="black" d="M620.5,-121.81C620.5,-102.11 620.5,-69.58 620.5,-46.39"/>
<polygon fill="black" stroke="black" points="624,-46.16 620.5,-36.16 617,-46.16 624,-46.16"/>
</g>
</g>
</svg>
