<?xml version="1.0" encoding="UTF-8" standalone="no"?>
<!DOCTYPE svg PUBLIC "-//W3C//DTD SVG 1.1//EN"
 "http://www.w3.org/Graphics/SVG/1.1/DTD/svg11.dtd">
<!-- Generated by graphviz version 2.43.0 (0)
 -->
<!-- Pages: 1 -->
<svg width="1957pt" height="410pt"
 viewBox="0.00 0.00 1956.50 410.00" xmlns="http://www.w3.org/2000/svg" xmlns:xlink="http://www.w3.org/1999/xlink">
<g id="graph0" class="graph" transform="scale(1 1) rotate(0) translate(4 406)">
<polygon fill="white" stroke="transparent" points="-4,4 -4,-406 1952.5,-406 1952.5,4 -4,4"/>
<!-- n1 -->
<g id="node1" class="node">
<title>n1</title>
<polygon fill="lightblue" stroke="black" points="1150,-384 1019.75,-402 759.25,-402 629,-384 759.25,-366 1019.75,-366 1150,-384"/>
<text text-anchor="middle" x="889.5" y="-380.3" font-family="Arial" font-size="14.00">Draw two habitats and the different living things in each</text>
</g>
<!-- n2 -->
<g id="node2" class="node">
<title>n2</title>
<polygon fill="#fffdd0" stroke="black" points="1275.5,-280 971.5,-280 971.5,-244 1275.5,-244 1275.5,-280"/>
<text text-anchor="middle" x="1123.5" y="-258.3" font-family="Arial" font-size="14.00">Drawing of a forest with trees, a deer, and a bird</text>
</g>
<!-- n1&#45;&gt;n2 -->
<g id="edge1" class="edge">
<title>n1&#45;&gt;n2</title>
<path fill="none" stroke="black" d="M923.03,-365.81C964.64,-344.47 1035.7,-308.05 1081,-284.77"/>
<polygon fill="black" stroke="black" points="1082.7,-287.83 1090,-280.16 1079.5,-281.6 1082.7,-287.83"/>
</g>
<!-- n3 -->
<g id="node3" class="node">
<title>n3</title>
<polygon fill="#fffdd0" stroke="black" points="865,-280 544,-280 544,-244 865,-244 865,-280"/>
<text text-anchor="middle" x="704.5" y="-258.3" font-family="Arial" font-size="14.00">Drawing of an ocean with waves, a fish, and a crab</text>
</g>
<!-- n1&#45;&gt;n3 -->
<g id="edge2" class="edge">
<title>n1&#45;&gt;n3</title>
<path fill="none" stroke="black" d="M862.99,-365.81C830.57,-344.78 775.58,-309.11 739.66,-285.8"/>
<polygon fill="black" stroke="black" points="741.25,-282.66 730.96,-280.16 737.45,-288.54 741.25,-282.66"/>
</g>
<!-- n4 -->
<g id="node4" class="node">
<title>n4</title>
<path fill="palegreen" stroke="black" d="M764,-158C764,-158 455,-158 455,-158 449,-158 443,-152 443,-146 443,-146 443,-134 443,-134 443,-128 449,-122 455,-122 455,-122 764,-122 764,-122 770,-122 776,-128 776,-134 776,-134 776,-146 776,-146 776,-152 770,-158 764,-158"/>
<text text-anchor="middle" x="609.5" y="-136.3" font-family="Arial" font-size="14.00">Student understands the concept of different habitats</text>
</g>
<!-- n2&#45;&gt;n4 -->
<g id="edge3" class="edge">
<title>n2&#45;&gt;n4</title>
<path fill="none" stroke="black" d="M1050.7,-244C956.16,-221.93 791.63,-183.52 692.42,-160.36"/>
<polygon fill="black" stroke="black" points="692.96,-156.89 682.43,-158.03 691.37,-163.71 692.96,-156.89"/>
</g>
<!-- n5 -->
<g id="node5" class="node">
<title>n5</title>
<path fill="palegreen" stroke="black" d="M1936.5,-158C1936.5,-158 1578.5,-158 1578.5,-158 1572.5,-158 1566.5,-152 1566.5,-146 1566.5,-146 1566.5,-134 1566.5,-134 1566.5,-128 1572.5,-122 1578.5,-122 1578.5,-122 1936.5,-122 1936.5,-122 1942.5,-122 1948.5,-128 1948.5,-134 1948.5,-134 1948.5,-146 1948.5,-146 1948.5,-152 1942.5,-158 1936.5,-158"/>
<text text-anchor="middle" x="1757.5" y="-136.3" font-family="Arial" font-size="14.00">Correctly includes and labels living things in the forest habitat</text>
</g>
<!-- n2&#45;&gt;n5 -->
<g id="edge4" class="edge">
<title>n2&#45;&gt;n5</title>
<path fill="none" stroke="black" d="M1213.3,-244C1330.6,-221.8 1535.3,-183.05 1657.4,-159.94"/>
<polygon fill="black" stroke="black" points="1658.32,-163.33 1667.5,-158.03 1657.02,-156.45 1658.32,-163.33"/>
</g>
<!-- n7 -->
<g id="node6" class="node">
<title>n7</title>
<polygon fill="lightcoral" stroke="black" points="1171.5,-158 834,-140 1171.5,-122 1509,-140 1171.5,-158"/>
<text text-anchor="middle" x="1171.5" y="-136.3" font-family="Arial" font-size="14.00">Lacks detailed characteristics or patterns between habitats</text>
</g>
<!-- n2&#45;&gt;n7 -->
<g id="edge5" class="edge">
<title>n2&#45;&gt;n7</title>
<path fill="none" stroke="black" d="M1130.4,-243.81C1138.4,-223.82 1151.7,-190.62 1161,-167.37"/>
<polygon fill="black" stroke="black" points="1164.37,-168.36 1164.8,-157.77 1157.87,-165.78 1164.37,-168.36"/>
</g>
<!-- n3&#45;&gt;n4 -->
<g id="edge6" class="edge">
<title>n3&#45;&gt;n4</title>
<path fill="none" stroke="black" d="M690.89,-243.81C674.8,-223.49 647.9,-189.51 629.46,-166.21"/>
<polygon fill="black" stroke="black" points="632.04,-163.83 623.09,-158.16 626.55,-168.17 632.04,-163.83"/>
</g>
<!-- n3&#45;&gt;n7 -->
<g id="edge7" class="edge">
<title>n3&#45;&gt;n7</title>
<path fill="none" stroke="black" d="M770.91,-243.93C860.26,-220.97 1018.2,-180.4 1106.7,-157.65"/>
<polygon fill="black" stroke="black" points="1107.78,-160.99 1116.6,-155.11 1106.04,-154.21 1107.78,-160.99"/>
</g>
<!-- n6 -->
<g id="node7" class="node">
<title>n6</title>
<path fill="palegreen" stroke="black" d="M373,-158C373,-158 12,-158 12,-158 6,-158 0,-152 0,-146 0,-146 0,-134 0,-134 0,-128 6,-122 12,-122 12,-122 373,-122 373,-122 379,-122 385,-128 385,-134 385,-134 385,-146 385,-146 385,-152 379,-158 373,-158"/>
<text text-anchor="middle" x="192.5" y="-136.3" font-family="Arial" font-size="14.00">Correctly includes and labels living things in the ocean habitat</text>
</g>
<!-- n3&#45;&gt;n6 -->
<g id="edge8" class="edge">
<title>n3&#45;&gt;n6</title>
<path fill="none" stroke="black" d="M631.96,-244C537.81,-221.93 373.92,-183.52 275.09,-160.36"/>
<polygon fill="black" stroke="black" points="275.68,-156.9 265.15,-158.03 274.09,-163.72 275.68,-156.9"/>
</g>
<!-- n8 -->
<g id="node8" class="node">
<title>n8</title>
<polygon fill="#f28e8e" stroke="black" points="1404.5,-36 938.5,-36 938.5,0 1404.5,0 1404.5,-36"/>
<text text-anchor="middle" x="1171.5" y="-14.3" font-family="Arial" font-size="14.00">Encourage adding more characteristics and patterns (e.g., common plants)</text>
</g>
<!-- n7&#45;&gt;n8 -->
<g id="edge9" class="edge">
<title>n7&#45;&gt;n8</title>
<path fill="none" stroke="black" d="M1171.5,-121.81C1171.5,-102.11 1171.5,-69.58 1171.5,-46.39"/>
<polygon fill="black" stroke="black" points="1175,-46.16 1171.5,-36.16 1168,-46.16 1175,-46.16"/>
</g>
</g>
</svg>
