<?xml version="1.0" encoding="UTF-8" standalone="no"?>
<!DOCTYPE svg PUBLIC "-//W3C//DTD SVG 1.1//EN"
 "http://www.w3.org/Graphics/SVG/1.1/DTD/svg11.dtd">
<!-- Generated by graphviz version 2.43.0 (0)
 -->
<!-- Pages: 1 -->
<svg width="1516pt" height="288pt"
 viewBox="0.00 0.00 1515.50 288.00" xmlns="http://www.w3.org/2000/svg" xmlns:xlink="http://www.w3.org/1999/xlink">
<g id="graph0" class="graph" transform="scale(1 1) rotate(0) translate(4 284)">
<polygon fill="white" stroke="transparent" points="-4,4 -4,-284 1511.5,-284 1511.5,4 -4,4"/>
<!-- n1 -->
<g id="node1" class="node">
<title>n1</title>
<polygon fill="lightblue" stroke="black" points="913,-262 821.75,-280 639.25,-280 548,-262 639.25,-244 821.75,-244 913,-262"/>
<text text-anchor="middle" x="730.5" y="-258.3" font-family="Arial" font-size="14.00">Draw reversible changes (ice melting)</text>
</g>
<!-- n2 -->
<g id="node2" class="node">
<title>n2</title>
<polygon fill="#fffdd0" stroke="black" points="261.5,-158 117.5,-158 117.5,-122 261.5,-122 261.5,-158"/>
<text text-anchor="middle" x="189.5" y="-136.3" font-family="Arial" font-size="14.00">Ice cube &#45; solid water</text>
</g>
<!-- n1&#45;&gt;n2 -->
<g id="edge1" class="edge">
<title>n1&#45;&gt;n2</title>
<path fill="none" stroke="black" d="M653.85,-244C552.61,-221.54 375.07,-182.16 271.31,-159.15"/>
<polygon fill="black" stroke="black" points="272.03,-155.73 261.51,-156.97 270.51,-162.56 272.03,-155.73"/>
</g>
<!-- n3 -->
<g id="node3" class="node">
<title>n3</title>
<polygon fill="#fffdd0" stroke="black" points="537,-158 366,-158 366,-122 537,-122 537,-158"/>
<text text-anchor="middle" x="451.5" y="-136.3" font-family="Arial" font-size="14.00">Melted water &#45; liquid state</text>
</g>
<!-- n1&#45;&gt;n3 -->
<g id="edge2" class="edge">
<title>n1&#45;&gt;n3</title>
<path fill="none" stroke="black" d="M690.82,-243.93C640.72,-222.39 554.55,-185.32 500.43,-162.04"/>
<polygon fill="black" stroke="black" points="501.61,-158.74 491.04,-158.01 498.85,-165.17 501.61,-158.74"/>
</g>
<!-- n4 -->
<g id="node4" class="node">
<title>n4</title>
<polygon fill="#fffdd0" stroke="black" points="838,-158 623,-158 623,-122 838,-122 838,-158"/>
<text text-anchor="middle" x="730.5" y="-136.3" font-family="Arial" font-size="14.00">Cooled back into ice &#45; solid water</text>
</g>
<!-- n1&#45;&gt;n4 -->
<g id="edge3" class="edge">
<title>n1&#45;&gt;n4</title>
<path fill="none" stroke="black" d="M730.5,-243.81C730.5,-224.11 730.5,-191.58 730.5,-168.39"/>
<polygon fill="black" stroke="black" points="734,-168.16 730.5,-158.16 727,-168.16 734,-168.16"/>
</g>
<!-- n5 -->
<g id="node5" class="node">
<title>n5</title>
<polygon fill="#fffdd0" stroke="black" points="1172,-158 915,-158 915,-122 1172,-122 1172,-158"/>
<text text-anchor="middle" x="1043.5" y="-136.3" font-family="Arial" font-size="14.00">Arrows indicating melting and refreezing</text>
</g>
<!-- n1&#45;&gt;n5 -->
<g id="edge4" class="edge">
<title>n1&#45;&gt;n5</title>
<path fill="none" stroke="black" d="M775.01,-243.93C831.57,-222.25 929.09,-184.86 989.74,-161.61"/>
<polygon fill="black" stroke="black" points="991.05,-164.86 999.14,-158.01 988.55,-158.32 991.05,-164.86"/>
</g>
<!-- n6 -->
<g id="node6" class="node">
<title>n6</title>
<polygon fill="#fffdd0" stroke="black" points="1451,-158 1266,-158 1266,-122 1451,-122 1451,-158"/>
<text text-anchor="middle" x="1358.5" y="-136.3" font-family="Arial" font-size="14.00">Sun and snowflake symbols</text>
</g>
<!-- n1&#45;&gt;n6 -->
<g id="edge5" class="edge">
<title>n1&#45;&gt;n6</title>
<path fill="none" stroke="black" d="M819.48,-244C935.66,-221.8 1138.4,-183.05 1259.4,-159.94"/>
<polygon fill="black" stroke="black" points="1260.23,-163.34 1269.4,-158.03 1258.92,-156.47 1260.23,-163.34"/>
</g>
<!-- n7 -->
<g id="node7" class="node">
<title>n7</title>
<path fill="palegreen" stroke="black" d="M221,-36C221,-36 12,-36 12,-36 6,-36 0,-30 0,-24 0,-24 0,-12 0,-12 0,-6 6,0 12,0 12,0 221,0 221,0 227,0 233,-6 233,-12 233,-12 233,-24 233,-24 233,-30 227,-36 221,-36"/>
<text text-anchor="middle" x="116.5" y="-14.3" font-family="Arial" font-size="14.00">Understands initial state: solid water</text>
</g>
<!-- n2&#45;&gt;n7 -->
<g id="edge6" class="edge">
<title>n2&#45;&gt;n7</title>
<path fill="none" stroke="black" d="M179.04,-121.81C166.79,-101.67 146.37,-68.1 132.21,-44.83"/>
<polygon fill="black" stroke="black" points="135.13,-42.89 126.94,-36.16 129.14,-46.52 135.13,-42.89"/>
</g>
<!-- n8 -->
<g id="node8" class="node">
<title>n8</title>
<path fill="palegreen" stroke="black" d="M545.5,-36C545.5,-36 303.5,-36 303.5,-36 297.5,-36 291.5,-30 291.5,-24 291.5,-24 291.5,-12 291.5,-12 291.5,-6 297.5,0 303.5,0 303.5,0 545.5,0 545.5,0 551.5,0 557.5,-6 557.5,-12 557.5,-12 557.5,-24 557.5,-24 557.5,-30 551.5,-36 545.5,-36"/>
<text text-anchor="middle" x="424.5" y="-14.3" font-family="Arial" font-size="14.00">Understanding of liquid state post&#45;heating</text>
</g>
<!-- n3&#45;&gt;n8 -->
<g id="edge7" class="edge">
<title>n3&#45;&gt;n8</title>
<path fill="none" stroke="black" d="M447.63,-121.81C443.18,-102.02 435.81,-69.29 430.59,-46.08"/>
<polygon fill="black" stroke="black" points="433.97,-45.15 428.36,-36.16 427.14,-46.69 433.97,-45.15"/>
</g>
<!-- n9 -->
<g id="node9" class="node">
<title>n9</title>
<path fill="palegreen" stroke="black" d="M833.5,-36C833.5,-36 627.5,-36 627.5,-36 621.5,-36 615.5,-30 615.5,-24 615.5,-24 615.5,-12 615.5,-12 615.5,-6 621.5,0 627.5,0 627.5,0 833.5,0 833.5,0 839.5,0 845.5,-6 845.5,-12 845.5,-12 845.5,-24 845.5,-24 845.5,-30 839.5,-36 833.5,-36"/>
<text text-anchor="middle" x="730.5" y="-14.3" font-family="Arial" font-size="14.00">Understanding of refreezing to solid</text>
</g>
<!-- n4&#45;&gt;n9 -->
<g id="edge8" class="edge">
<title>n4&#45;&gt;n9</title>
<path fill="none" stroke="black" d="M730.5,-121.81C730.5,-102.11 730.5,-69.58 730.5,-46.39"/>
<polygon fill="black" stroke="black" points="734,-46.16 730.5,-36.16 727,-46.16 734,-46.16"/>
</g>
<!-- n10 -->
<g id="node10" class="node">
<title>n10</title>
<path fill="palegreen" stroke="black" d="M1211,-36C1211,-36 916,-36 916,-36 910,-36 904,-30 904,-24 904,-24 904,-12 904,-12 904,-6 910,0 916,0 916,0 1211,0 1211,0 1217,0 1223,-6 1223,-12 1223,-12 1223,-24 1223,-24 1223,-30 1217,-36 1211,-36"/>
<text text-anchor="middle" x="1063.5" y="-14.3" font-family="Arial" font-size="14.00">Demonstrates understanding of reversible process</text>
</g>
<!-- n5&#45;&gt;n10 -->
<g id="edge9" class="edge">
<title>n5&#45;&gt;n10</title>
<path fill="none" stroke="black" d="M1046.4,-121.81C1049.7,-102.02 1055.1,-69.29 1059,-46.08"/>
<polygon fill="black" stroke="black" points="1062.46,-46.59 1060.6,-36.16 1055.55,-45.48 1062.46,-46.59"/>
</g>
<!-- n11 -->
<g id="node11" class="node">
<title>n11</title>
<path fill="palegreen" stroke="black" d="M1495.5,-36C1495.5,-36 1293.5,-36 1293.5,-36 1287.5,-36 1281.5,-30 1281.5,-24 1281.5,-24 1281.5,-12 1281.5,-12 1281.5,-6 1287.5,0 1293.5,0 1293.5,0 1495.5,0 1495.5,0 1501.5,0 1507.5,-6 1507.5,-12 1507.5,-12 1507.5,-24 1507.5,-24 1507.5,-30 1501.5,-36 1495.5,-36"/>
<text text-anchor="middle" x="1394.5" y="-14.3" font-family="Arial" font-size="14.00">Visual cues for heating and cooling</text>
</g>
<!-- n6&#45;&gt;n11 -->
<g id="edge10" class="edge">
<title>n6&#45;&gt;n11</title>
<path fill="none" stroke="black" d="M1363.7,-121.81C1369.6,-101.94 1379.5,-68.99 1386.5,-45.76"/>
<polygon fill="black" stroke="black" points="1389.86,-46.75 1389.4,-36.16 1383.16,-44.72 1389.86,-46.75"/>
</g>
</g>
</svg>
