<?xml version="1.0" encoding="UTF-8" standalone="no"?>
<!DOCTYPE svg PUBLIC "-//W3C//DTD SVG 1.1//EN"
 "http://www.w3.org/Graphics/SVG/1.1/DTD/svg11.dtd">
<!-- Generated by graphviz version 2.43.0 (0)
 -->
<!-- Pages: 1 -->
<svg width="1940pt" height="410pt"
 viewBox="0.00 0.00 1939.50 410.00" xmlns="http://www.w3.org/2000/svg" xmlns:xlink="http://www.w3.org/1999/xlink">
<g id="graph0" class="graph" transform="scale(1 1) rotate(0) translate(4 406)">
<polygon fill="white" stroke="transparent" points="-4,4 -4,-406 1935.5,-406 1935.5,4 -4,4"/>
<!-- n1 -->
<g id="node1" class="node">
<title>n1</title>
<polygon fill="lightblue" stroke="black" points="1261.37,-384 1118.69,-402 833.31,-402 690.63,-384 833.31,-366 1118.69,-366 1261.37,-384"/>
<text text-anchor="middle" x="976" y="-380.3" font-family="Arial" font-size="14.00">Draw animals in their habitats with labels (e.g., fish in water).</text>
</g>
<!-- n2 -->
<g id="node2" class="node">
<title>n2</title>
<polygon fill="#fffdd0" stroke="black" points="647.5,-280 514.5,-280 514.5,-244 647.5,-244 647.5,-280"/>
<text text-anchor="middle" x="581" y="-258.3" font-family="Arial" font-size="14.00">Fish with label &#39;fish&#39;</text>
</g>
<!-- n1&#45;&gt;n2 -->
<g id="edge1" class="edge">
<title>n1&#45;&gt;n2</title>
<path fill="none" stroke="black" d="M919.83,-365.93C847.87,-344.07 723.36,-306.25 646.97,-283.04"/>
<polygon fill="black" stroke="black" points="647.57,-279.56 636.98,-280.01 645.53,-286.26 647.57,-279.56"/>
</g>
<!-- n3 -->
<g id="node3" class="node">
<title>n3</title>
<polygon fill="#fffdd0" stroke="black" points="950.5,-280 795.5,-280 795.5,-244 950.5,-244 950.5,-280"/>
<text text-anchor="middle" x="873" y="-258.3" font-family="Arial" font-size="14.00">Water with label &#39;water&#39;</text>
</g>
<!-- n1&#45;&gt;n3 -->
<g id="edge2" class="edge">
<title>n1&#45;&gt;n3</title>
<path fill="none" stroke="black" d="M961.24,-365.81C943.73,-345.4 914.38,-311.21 894.38,-287.91"/>
<polygon fill="black" stroke="black" points="896.9,-285.47 887.73,-280.16 891.59,-290.03 896.9,-285.47"/>
</g>
<!-- n4 -->
<g id="node4" class="node">
<title>n4</title>
<polygon fill="#fffdd0" stroke="black" points="1151.5,-280 1008.5,-280 1008.5,-244 1151.5,-244 1151.5,-280"/>
<text text-anchor="middle" x="1080" y="-258.3" font-family="Arial" font-size="14.00">Deer with label &#39;deer&#39;</text>
</g>
<!-- n1&#45;&gt;n4 -->
<g id="edge3" class="edge">
<title>n1&#45;&gt;n4</title>
<path fill="none" stroke="black" d="M990.9,-365.81C1008.6,-345.4 1038.2,-311.21 1058.4,-287.91"/>
<polygon fill="black" stroke="black" points="1061.21,-290.01 1065.1,-280.16 1055.91,-285.44 1061.21,-290.01"/>
</g>
<!-- n5 -->
<g id="node5" class="node">
<title>n5</title>
<polygon fill="#fffdd0" stroke="black" points="1366,-280 1210,-280 1210,-244 1366,-244 1366,-280"/>
<text text-anchor="middle" x="1288" y="-258.3" font-family="Arial" font-size="14.00">Grass with label &#39;grass&#39;</text>
</g>
<!-- n1&#45;&gt;n5 -->
<g id="edge4" class="edge">
<title>n1&#45;&gt;n5</title>
<path fill="none" stroke="black" d="M1020.4,-365.93C1076.7,-344.25 1174,-306.86 1234.4,-283.61"/>
<polygon fill="black" stroke="black" points="1235.71,-286.86 1243.8,-280.01 1233.21,-280.32 1235.71,-286.86"/>
</g>
<!-- n6 -->
<g id="node6" class="node">
<title>n6</title>
<path fill="palegreen" stroke="black" d="M442,-158C442,-158 12,-158 12,-158 6,-158 0,-152 0,-146 0,-146 0,-134 0,-134 0,-128 6,-122 12,-122 12,-122 442,-122 442,-122 448,-122 454,-128 454,-134 454,-134 454,-146 454,-146 454,-152 448,-158 442,-158"/>
<text text-anchor="middle" x="227" y="-136.3" font-family="Arial" font-size="14.00">Understands that animals need to be drawn and labeled (e.g., fish, deer).</text>
</g>
<!-- n2&#45;&gt;n6 -->
<g id="edge5" class="edge">
<title>n2&#45;&gt;n6</title>
<path fill="none" stroke="black" d="M530.66,-243.93C466.43,-222.16 355.49,-184.56 286.96,-161.33"/>
<polygon fill="black" stroke="black" points="287.76,-157.91 277.17,-158.01 285.52,-164.54 287.76,-157.91"/>
</g>
<!-- n7 -->
<g id="node7" class="node">
<title>n7</title>
<path fill="palegreen" stroke="black" d="M696,-158C696,-158 524,-158 524,-158 518,-158 512,-152 512,-146 512,-146 512,-134 512,-134 512,-128 518,-122 524,-122 524,-122 696,-122 696,-122 702,-122 708,-128 708,-134 708,-134 708,-146 708,-146 708,-152 702,-158 696,-158"/>
<text text-anchor="middle" x="610" y="-136.3" font-family="Arial" font-size="14.00">Understands fish live in water.</text>
</g>
<!-- n3&#45;&gt;n7 -->
<g id="edge6" class="edge">
<title>n3&#45;&gt;n7</title>
<path fill="none" stroke="black" d="M835.6,-243.93C788.47,-222.43 707.48,-185.48 656.44,-162.19"/>
<polygon fill="black" stroke="black" points="657.82,-158.97 647.27,-158.01 654.92,-165.34 657.82,-158.97"/>
</g>
<!-- n8 -->
<g id="node8" class="node">
<title>n8</title>
<polygon fill="lightcoral" stroke="black" points="1137,-158 765.5,-140 1137,-122 1508.5,-140 1137,-158"/>
<text text-anchor="middle" x="1137" y="-136.3" font-family="Arial" font-size="14.00">Incomplete understanding of overall habitat needs (e.g., air, soil).</text>
</g>
<!-- n3&#45;&gt;n8 -->
<g id="edge7" class="edge">
<title>n3&#45;&gt;n8</title>
<path fill="none" stroke="black" d="M910.54,-243.93C958.92,-221.94 1042.9,-183.8 1093.8,-160.63"/>
<polygon fill="black" stroke="black" points="1095.25,-163.81 1102.9,-156.48 1092.35,-157.44 1095.25,-163.81"/>
</g>
<!-- n10 -->
<g id="node9" class="node">
<title>n10</title>
<path fill="palegreen" stroke="black" d="M1919.5,-158C1919.5,-158 1578.5,-158 1578.5,-158 1572.5,-158 1566.5,-152 1566.5,-146 1566.5,-146 1566.5,-134 1566.5,-134 1566.5,-128 1572.5,-122 1578.5,-122 1578.5,-122 1919.5,-122 1919.5,-122 1925.5,-122 1931.5,-128 1931.5,-134 1931.5,-134 1931.5,-146 1931.5,-146 1931.5,-152 1925.5,-158 1919.5,-158"/>
<text text-anchor="middle" x="1749" y="-136.3" font-family="Arial" font-size="14.00">Understands animals&#39; habitat elements like grass for deer.</text>
</g>
<!-- n4&#45;&gt;n10 -->
<g id="edge8" class="edge">
<title>n4&#45;&gt;n10</title>
<path fill="none" stroke="black" d="M1151.6,-248.16C1269.9,-226.94 1506.7,-184.46 1644,-159.84"/>
<polygon fill="black" stroke="black" points="1644.88,-163.24 1654.1,-158.02 1643.64,-156.35 1644.88,-163.24"/>
</g>
<!-- n9 -->
<g id="node10" class="node">
<title>n9</title>
<polygon fill="#f28e8e" stroke="black" points="1329.5,-36 944.5,-36 944.5,0 1329.5,0 1329.5,-36"/>
<text text-anchor="middle" x="1137" y="-14.3" font-family="Arial" font-size="14.00">Suggest expounding on elements like air and soil for habitats.</text>
</g>
<!-- n8&#45;&gt;n9 -->
<g id="edge9" class="edge">
<title>n8&#45;&gt;n9</title>
<path fill="none" stroke="black" d="M1137,-121.81C1137,-102.11 1137,-69.58 1137,-46.39"/>
<polygon fill="black" stroke="black" points="1140.5,-46.16 1137,-36.16 1133.5,-46.16 1140.5,-46.16"/>
</g>
</g>
</svg>
