<?xml version="1.0" encoding="UTF-8" standalone="no"?>
<!DOCTYPE svg PUBLIC "-//W3C//DTD SVG 1.1//EN"
 "http://www.w3.org/Graphics/SVG/1.1/DTD/svg11.dtd">
<!-- Generated by graphviz version 2.43.0 (0)
 -->
<!-- Pages: 1 -->
<svg width="1801pt" height="410pt"
 viewBox="0.00 0.00 1801.00 410.00" xmlns="http://www.w3.org/2000/svg" xmlns:xlink="http://www.w3.org/1999/xlink">
<g id="graph0" class="graph" transform="scale(1 1) rotate(0) translate(4 406)">
<polygon fill="white" stroke="transparent" points="-4,4 -4,-406 1797,-406 1797,4 -4,4"/>
<!-- n1 -->
<g id="node1" class="node">
<title>n1</title>
<polygon fill="lightblue" stroke="black" points="1235,-384 1123.5,-402 900.5,-402 789,-384 900.5,-366 1123.5,-366 1235,-384"/>
<text text-anchor="middle" x="1012" y="-380.3" font-family="Arial" font-size="14.00">Draw a string telephone between two students.</text>
</g>
<!-- n2 -->
<g id="node2" class="node">
<title>n2</title>
<polygon fill="#fffdd0" stroke="black" points="411,-280 139,-280 139,-244 411,-244 411,-280"/>
<text text-anchor="middle" x="275" y="-258.3" font-family="Arial" font-size="14.00">Two stick figure students facing each other</text>
</g>
<!-- n1&#45;&gt;n2 -->
<g id="edge1" class="edge">
<title>n1&#45;&gt;n2</title>
<path fill="none" stroke="black" d="M907.58,-366C770.69,-343.71 531.37,-304.74 389.61,-281.66"/>
<polygon fill="black" stroke="black" points="390,-278.18 379.57,-280.03 388.88,-285.09 390,-278.18"/>
</g>
<!-- n3 -->
<g id="node3" class="node">
<title>n3</title>
<polygon fill="#fffdd0" stroke="black" points="847,-280 623,-280 623,-244 847,-244 847,-280"/>
<text text-anchor="middle" x="735" y="-258.3" font-family="Arial" font-size="14.00">Each holding a red cup with an ear</text>
</g>
<!-- n1&#45;&gt;n3 -->
<g id="edge2" class="edge">
<title>n1&#45;&gt;n3</title>
<path fill="none" stroke="black" d="M972.61,-365.93C922.87,-344.39 837.32,-307.32 783.58,-284.04"/>
<polygon fill="black" stroke="black" points="784.83,-280.77 774.26,-280.01 782.05,-287.19 784.83,-280.77"/>
</g>
<!-- n4 -->
<g id="node4" class="node">
<title>n4</title>
<polygon fill="#fffdd0" stroke="black" points="1100.5,-280 923.5,-280 923.5,-244 1100.5,-244 1100.5,-280"/>
<text text-anchor="middle" x="1012" y="-258.3" font-family="Arial" font-size="14.00">Connected by a blue string</text>
</g>
<!-- n1&#45;&gt;n4 -->
<g id="edge3" class="edge">
<title>n1&#45;&gt;n4</title>
<path fill="none" stroke="black" d="M1012,-365.81C1012,-346.11 1012,-313.58 1012,-290.39"/>
<polygon fill="black" stroke="black" points="1015.5,-290.16 1012,-280.16 1008.5,-290.16 1015.5,-290.16"/>
</g>
<!-- n5 -->
<g id="node5" class="node">
<title>n5</title>
<polygon fill="#fffdd0" stroke="black" points="1389,-280 1159,-280 1159,-244 1389,-244 1389,-280"/>
<text text-anchor="middle" x="1274" y="-258.3" font-family="Arial" font-size="14.00">String is taut with wavy lines/arrows</text>
</g>
<!-- n1&#45;&gt;n5 -->
<g id="edge4" class="edge">
<title>n1&#45;&gt;n5</title>
<path fill="none" stroke="black" d="M1049.3,-365.93C1096.2,-344.43 1176.9,-307.48 1227.7,-284.19"/>
<polygon fill="black" stroke="black" points="1229.24,-287.33 1236.9,-280.01 1226.35,-280.96 1229.24,-287.33"/>
</g>
<!-- n6 -->
<g id="node6" class="node">
<title>n6</title>
<polygon fill="#fffdd0" stroke="black" points="1727,-280 1497,-280 1497,-244 1727,-244 1727,-280"/>
<text text-anchor="middle" x="1612" y="-258.3" font-family="Arial" font-size="14.00">Students are about one meter apart</text>
</g>
<!-- n1&#45;&gt;n6 -->
<g id="edge5" class="edge">
<title>n1&#45;&gt;n6</title>
<path fill="none" stroke="black" d="M1097,-366C1207.9,-343.82 1401.3,-305.13 1517,-282.01"/>
<polygon fill="black" stroke="black" points="1517.78,-285.42 1526.9,-280.03 1516.41,-278.56 1517.78,-285.42"/>
</g>
<!-- n7 -->
<g id="node7" class="node">
<title>n7</title>
<path fill="palegreen" stroke="black" d="M228,-158C228,-158 12,-158 12,-158 6,-158 0,-152 0,-146 0,-146 0,-134 0,-134 0,-128 6,-122 12,-122 12,-122 228,-122 228,-122 234,-122 240,-128 240,-134 240,-134 240,-146 240,-146 240,-152 234,-158 228,-158"/>
<text text-anchor="middle" x="120" y="-136.3" font-family="Arial" font-size="14.00">Displays communication using sound</text>
</g>
<!-- n2&#45;&gt;n7 -->
<g id="edge6" class="edge">
<title>n2&#45;&gt;n7</title>
<path fill="none" stroke="black" d="M252.79,-243.81C225.86,-222.96 180.34,-187.71 150.22,-164.4"/>
<polygon fill="black" stroke="black" points="152.22,-161.52 142.17,-158.16 147.93,-167.05 152.22,-161.52"/>
</g>
<!-- n8 -->
<g id="node8" class="node">
<title>n8</title>
<path fill="palegreen" stroke="black" d="M547.5,-158C547.5,-158 310.5,-158 310.5,-158 304.5,-158 298.5,-152 298.5,-146 298.5,-146 298.5,-134 298.5,-134 298.5,-128 304.5,-122 310.5,-122 310.5,-122 547.5,-122 547.5,-122 553.5,-122 559.5,-128 559.5,-134 559.5,-134 559.5,-146 559.5,-146 559.5,-152 553.5,-158 547.5,-158"/>
<text text-anchor="middle" x="429" y="-136.3" font-family="Arial" font-size="14.00">Uses provided materials: cups and string</text>
</g>
<!-- n3&#45;&gt;n8 -->
<g id="edge7" class="edge">
<title>n3&#45;&gt;n8</title>
<path fill="none" stroke="black" d="M691.48,-243.93C636.31,-222.3 541.24,-185.02 481.93,-161.76"/>
<polygon fill="black" stroke="black" points="482.96,-158.4 472.37,-158.01 480.4,-164.92 482.96,-158.4"/>
</g>
<!-- n12 -->
<g id="node9" class="node">
<title>n12</title>
<polygon fill="lightcoral" stroke="black" points="735,-158 617.2,-140 735,-122 852.8,-140 735,-158"/>
<text text-anchor="middle" x="735" y="-136.3" font-family="Arial" font-size="14.00">Omission of labels</text>
</g>
<!-- n3&#45;&gt;n12 -->
<g id="edge8" class="edge">
<title>n3&#45;&gt;n12</title>
<path fill="none" stroke="black" d="M735,-243.81C735,-224.11 735,-191.58 735,-168.39"/>
<polygon fill="black" stroke="black" points="738.5,-168.16 735,-158.16 731.5,-168.16 738.5,-168.16"/>
</g>
<!-- n9 -->
<g id="node10" class="node">
<title>n9</title>
<path fill="palegreen" stroke="black" d="M1137.5,-158C1137.5,-158 922.5,-158 922.5,-158 916.5,-158 910.5,-152 910.5,-146 910.5,-146 910.5,-134 910.5,-134 910.5,-128 916.5,-122 922.5,-122 922.5,-122 1137.5,-122 1137.5,-122 1143.5,-122 1149.5,-128 1149.5,-134 1149.5,-134 1149.5,-146 1149.5,-146 1149.5,-152 1143.5,-158 1137.5,-158"/>
<text text-anchor="middle" x="1030" y="-136.3" font-family="Arial" font-size="14.00">Shows sound traveling through string</text>
</g>
<!-- n4&#45;&gt;n9 -->
<g id="edge9" class="edge">
<title>n4&#45;&gt;n9</title>
<path fill="none" stroke="black" d="M1014.6,-243.81C1017.5,-224.02 1022.5,-191.29 1025.9,-168.08"/>
<polygon fill="black" stroke="black" points="1029.37,-168.57 1027.4,-158.16 1022.44,-167.52 1029.37,-168.57"/>
</g>
<!-- n5&#45;&gt;n9 -->
<g id="edge10" class="edge">
<title>n5&#45;&gt;n9</title>
<path fill="none" stroke="black" d="M1239.3,-243.93C1195.8,-222.52 1121.1,-185.78 1073.7,-162.48"/>
<polygon fill="black" stroke="black" points="1075.12,-159.28 1064.6,-158.01 1072.03,-165.56 1075.12,-159.28"/>
</g>
<!-- n11 -->
<g id="node11" class="node">
<title>n11</title>
<path fill="palegreen" stroke="black" d="M1462.5,-158C1462.5,-158 1219.5,-158 1219.5,-158 1213.5,-158 1207.5,-152 1207.5,-146 1207.5,-146 1207.5,-134 1207.5,-134 1207.5,-128 1213.5,-122 1219.5,-122 1219.5,-122 1462.5,-122 1462.5,-122 1468.5,-122 1474.5,-128 1474.5,-134 1474.5,-134 1474.5,-146 1474.5,-146 1474.5,-152 1468.5,-158 1462.5,-158"/>
<text text-anchor="middle" x="1341" y="-136.3" font-family="Arial" font-size="14.00">Highlights sound communication, not light</text>
</g>
<!-- n5&#45;&gt;n11 -->
<g id="edge11" class="edge">
<title>n5&#45;&gt;n11</title>
<path fill="none" stroke="black" d="M1283.6,-243.81C1294.8,-223.76 1313.4,-190.4 1326.4,-167.14"/>
<polygon fill="black" stroke="black" points="1329.59,-168.6 1331.4,-158.16 1323.48,-165.19 1329.59,-168.6"/>
</g>
<!-- n10 -->
<g id="node12" class="node">
<title>n10</title>
<path fill="palegreen" stroke="black" d="M1781,-158C1781,-158 1545,-158 1545,-158 1539,-158 1533,-152 1533,-146 1533,-146 1533,-134 1533,-134 1533,-128 1539,-122 1545,-122 1545,-122 1781,-122 1781,-122 1787,-122 1793,-128 1793,-134 1793,-134 1793,-146 1793,-146 1793,-152 1787,-158 1781,-158"/>
<text text-anchor="middle" x="1663" y="-136.3" font-family="Arial" font-size="14.00">Understands purpose of string telephone</text>
</g>
<!-- n6&#45;&gt;n10 -->
<g id="edge12" class="edge">
<title>n6&#45;&gt;n10</title>
<path fill="none" stroke="black" d="M1619.3,-243.81C1627.8,-223.85 1641.9,-190.7 1651.8,-167.45"/>
<polygon fill="black" stroke="black" points="1655.06,-168.74 1655.7,-158.16 1648.6,-166.03 1655.06,-168.74"/>
</g>
<!-- n13 -->
<g id="node13" class="node">
<title>n13</title>
<polygon fill="#f28e8e" stroke="black" points="841,-36 629,-36 629,0 841,0 841,-36"/>
<text text-anchor="middle" x="735" y="-14.3" font-family="Arial" font-size="14.00">Consider adding labels for clarity</text>
</g>
<!-- n12&#45;&gt;n13 -->
<g id="edge13" class="edge">
<title>n12&#45;&gt;n13</title>
<path fill="none" stroke="black" d="M735,-121.81C735,-102.11 735,-69.58 735,-46.39"/>
<polygon fill="black" stroke="black" points="738.5,-46.16 735,-36.16 731.5,-46.16 738.5,-46.16"/>
</g>
</g>
</svg>
