<?xml version="1.0" encoding="UTF-8" standalone="no"?>
<!DOCTYPE svg PUBLIC "-//W3C//DTD SVG 1.1//EN"
 "http://www.w3.org/Graphics/SVG/1.1/DTD/svg11.dtd">
<!-- Generated by graphviz version 2.43.0 (0)
 -->
<!-- Pages: 1 -->
<svg width="895pt" height="288pt"
 viewBox="0.00 0.00 895.00 288.00" xmlns="http://www.w3.org/2000/svg" xmlns:xlink="http://www.w3.org/1999/xlink">
<g id="graph0" class="graph" transform="scale(1 1) rotate(0) translate(4 284)">
<polygon fill="white" stroke="transparent" points="-4,4 -4,-284 891,-284 891,4 -4,4"/>
<!-- n1 -->
<g id="node1" class="node">
<title>n1</title>
<polygon fill="lightblue" stroke="black" points="768,-262 654.25,-280 426.75,-280 313,-262 426.75,-244 654.25,-244 768,-262"/>
<text text-anchor="middle" x="540.5" y="-258.3" font-family="Arial" font-size="14.00">Illustrate plants with and without water and light.</text>
</g>
<!-- n2 -->
<g id="node2" class="node">
<title>n2</title>
<polygon fill="#fffdd0" stroke="black" points="528.5,-158 164.5,-158 164.5,-122 528.5,-122 528.5,-158"/>
<text text-anchor="middle" x="346.5" y="-136.3" font-family="Arial" font-size="14.00">Healthy green plant in moist soil under light and rain cloud</text>
</g>
<!-- n1&#45;&gt;n2 -->
<g id="edge1" class="edge">
<title>n1&#45;&gt;n2</title>
<path fill="none" stroke="black" d="M512.7,-243.81C478.56,-222.69 420.55,-186.81 382.89,-163.51"/>
<polygon fill="black" stroke="black" points="384.59,-160.44 374.24,-158.16 380.9,-166.4 384.59,-160.44"/>
</g>
<!-- n3 -->
<g id="node3" class="node">
<title>n3</title>
<polygon fill="#fffdd0" stroke="black" points="882,-158 587,-158 587,-122 882,-122 882,-158"/>
<text text-anchor="middle" x="734.5" y="-136.3" font-family="Arial" font-size="14.00">Drooping plant with yellowing leaves in dry soil</text>
</g>
<!-- n1&#45;&gt;n3 -->
<g id="edge2" class="edge">
<title>n1&#45;&gt;n3</title>
<path fill="none" stroke="black" d="M568.3,-243.81C602.44,-222.69 660.45,-186.81 698.11,-163.51"/>
<polygon fill="black" stroke="black" points="700.1,-166.4 706.76,-158.16 696.41,-160.44 700.1,-166.4"/>
</g>
<!-- n4 -->
<g id="node4" class="node">
<title>n4</title>
<path fill="palegreen" stroke="black" d="M203,-36C203,-36 12,-36 12,-36 6,-36 0,-30 0,-24 0,-24 0,-12 0,-12 0,-6 6,0 12,0 12,0 203,0 203,0 209,0 215,-6 215,-12 215,-12 215,-24 215,-24 215,-30 209,-36 203,-36"/>
<text text-anchor="middle" x="107.5" y="-14.3" font-family="Arial" font-size="14.00">Plants need water to stay healthy</text>
</g>
<!-- n2&#45;&gt;n4 -->
<g id="edge3" class="edge">
<title>n2&#45;&gt;n4</title>
<path fill="none" stroke="black" d="M312.51,-121.93C269.95,-100.57 197,-63.94 150.57,-40.63"/>
<polygon fill="black" stroke="black" points="151.88,-37.37 141.37,-36.01 148.74,-43.62 151.88,-37.37"/>
</g>
<!-- n5 -->
<g id="node5" class="node">
<title>n5</title>
<path fill="palegreen" stroke="black" d="M478,-36C478,-36 285,-36 285,-36 279,-36 273,-30 273,-24 273,-24 273,-12 273,-12 273,-6 279,0 285,0 285,0 478,0 478,0 484,0 490,-6 490,-12 490,-12 490,-24 490,-24 490,-30 484,-36 478,-36"/>
<text text-anchor="middle" x="381.5" y="-14.3" font-family="Arial" font-size="14.00">Plants need light to grow properly</text>
</g>
<!-- n2&#45;&gt;n5 -->
<g id="edge4" class="edge">
<title>n2&#45;&gt;n5</title>
<path fill="none" stroke="black" d="M351.51,-121.81C357.31,-101.94 366.92,-68.99 373.69,-45.76"/>
<polygon fill="black" stroke="black" points="377.05,-46.74 376.49,-36.16 370.33,-44.78 377.05,-46.74"/>
</g>
<!-- n6 -->
<g id="node6" class="node">
<title>n6</title>
<path fill="palegreen" stroke="black" d="M875,-36C875,-36 594,-36 594,-36 588,-36 582,-30 582,-24 582,-24 582,-12 582,-12 582,-6 588,0 594,0 594,0 875,0 875,0 881,0 887,-6 887,-12 887,-12 887,-24 887,-24 887,-30 881,-36 875,-36"/>
<text text-anchor="middle" x="734.5" y="-14.3" font-family="Arial" font-size="14.00">Plants without water or light wilt and do not grow</text>
</g>
<!-- n3&#45;&gt;n6 -->
<g id="edge5" class="edge">
<title>n3&#45;&gt;n6</title>
<path fill="none" stroke="black" d="M734.5,-121.81C734.5,-102.11 734.5,-69.58 734.5,-46.39"/>
<polygon fill="black" stroke="black" points="738,-46.16 734.5,-36.16 731,-46.16 738,-46.16"/>
</g>
</g>
</svg>
