<?xml version="1.0" encoding="UTF-8" standalone="no"?>
<!DOCTYPE svg PUBLIC "-//W3C//DTD SVG 1.1//EN"
 "http://www.w3.org/Graphics/SVG/1.1/DTD/svg11.dtd">
<!-- Generated by graphviz version 2.43.0 (0)
 -->
<!-- Pages: 1 -->
<svg width="1767pt" height="410pt"
 viewBox="0.00 0.00 1767.00 410.00" xmlns="http://www.w3.org/2000/svg" xmlns:xlink="http://www.w3.org/1999/xlink">
<g id="graph0" class="graph" transform="scale(1 1) rotate(0) translate(4 406)">
<polygon fill="white" stroke="transparent" points="-4,4 -4,-406 1763,-406 1763,4 -4,4"/>
<!-- n1 -->
<g id="node1" class="node">
<title>n1</title>
<polygon fill="lightblue" stroke="black" points="785.5,-384 674,-402 451,-402 339.5,-384 451,-366 674,-366 785.5,-384"/>
<text text-anchor="middle" x="562.5" y="-380.3" font-family="Arial" font-size="14.00">Draw a string telephone between two students.</text>
</g>
<!-- n2 -->
<g id="node2" class="node">
<title>n2</title>
<polygon fill="#fffdd0" stroke="black" points="250.5,-280 154.5,-280 154.5,-244 250.5,-244 250.5,-280"/>
<text text-anchor="middle" x="202.5" y="-258.3" font-family="Arial" font-size="14.00">Two students</text>
</g>
<!-- n1&#45;&gt;n2 -->
<g id="edge1" class="edge">
<title>n1&#45;&gt;n2</title>
<path fill="none" stroke="black" d="M511.3,-365.93C445.07,-343.86 329.96,-305.49 260.54,-282.35"/>
<polygon fill="black" stroke="black" points="261.23,-278.89 250.64,-279.05 259.02,-285.53 261.23,-278.89"/>
</g>
<!-- n3 -->
<g id="node3" class="node">
<title>n3</title>
<polygon fill="#fffdd0" stroke="black" points="479,-280 368,-280 368,-244 479,-244 479,-280"/>
<text text-anchor="middle" x="423.5" y="-258.3" font-family="Arial" font-size="14.00">Cups and string</text>
</g>
<!-- n1&#45;&gt;n3 -->
<g id="edge2" class="edge">
<title>n1&#45;&gt;n3</title>
<path fill="none" stroke="black" d="M542.58,-365.81C518.53,-345.04 477.96,-310.01 450.95,-286.7"/>
<polygon fill="black" stroke="black" points="453.24,-284.05 443.38,-280.16 448.66,-289.35 453.24,-284.05"/>
</g>
<!-- n4 -->
<g id="node4" class="node">
<title>n4</title>
<polygon fill="#fffdd0" stroke="black" points="748,-280 577,-280 577,-244 748,-244 748,-280"/>
<text text-anchor="middle" x="662.5" y="-258.3" font-family="Arial" font-size="14.00">Sound waves along string</text>
</g>
<!-- n1&#45;&gt;n4 -->
<g id="edge3" class="edge">
<title>n1&#45;&gt;n4</title>
<path fill="none" stroke="black" d="M576.83,-365.81C593.83,-345.4 622.32,-311.21 641.74,-287.91"/>
<polygon fill="black" stroke="black" points="644.49,-290.08 648.2,-280.16 639.11,-285.6 644.49,-290.08"/>
</g>
<!-- n5 -->
<g id="node5" class="node">
<title>n5</title>
<polygon fill="#fffdd0" stroke="black" points="1279,-280 1112,-280 1112,-244 1279,-244 1279,-280"/>
<text text-anchor="middle" x="1195.5" y="-258.3" font-family="Arial" font-size="14.00">Labels: &#39;cups&#39; and &#39;string&#39;</text>
</g>
<!-- n1&#45;&gt;n5 -->
<g id="edge4" class="edge">
<title>n1&#45;&gt;n5</title>
<path fill="none" stroke="black" d="M652.19,-366C771.28,-343.42 980.64,-303.73 1101.7,-280.77"/>
<polygon fill="black" stroke="black" points="1102.52,-284.18 1111.7,-278.88 1101.22,-277.3 1102.52,-284.18"/>
</g>
<!-- n6 -->
<g id="node6" class="node">
<title>n6</title>
<path fill="palegreen" stroke="black" d="M195,-158C195,-158 12,-158 12,-158 6,-158 0,-152 0,-146 0,-146 0,-134 0,-134 0,-128 6,-122 12,-122 12,-122 195,-122 195,-122 201,-122 207,-128 207,-134 207,-134 207,-146 207,-146 207,-152 201,-158 195,-158"/>
<text text-anchor="middle" x="103.5" y="-136.3" font-family="Arial" font-size="14.00">Communicating over a distance</text>
</g>
<!-- n2&#45;&gt;n6 -->
<g id="edge5" class="edge">
<title>n2&#45;&gt;n6</title>
<path fill="none" stroke="black" d="M188.32,-243.81C171.48,-223.4 143.27,-189.21 124.05,-165.91"/>
<polygon fill="black" stroke="black" points="126.72,-163.65 117.66,-158.16 121.32,-168.1 126.72,-163.65"/>
</g>
<!-- n7 -->
<g id="node7" class="node">
<title>n7</title>
<path fill="palegreen" stroke="black" d="M492,-158C492,-158 277,-158 277,-158 271,-158 265,-152 265,-146 265,-146 265,-134 265,-134 265,-128 271,-122 277,-122 277,-122 492,-122 492,-122 498,-122 504,-128 504,-134 504,-134 504,-146 504,-146 504,-152 498,-158 492,-158"/>
<text text-anchor="middle" x="384.5" y="-136.3" font-family="Arial" font-size="14.00">Using cups to receive/transmit sound</text>
</g>
<!-- n3&#45;&gt;n7 -->
<g id="edge6" class="edge">
<title>n3&#45;&gt;n7</title>
<path fill="none" stroke="black" d="M417.91,-243.81C411.45,-223.94 400.75,-190.99 393.2,-167.76"/>
<polygon fill="black" stroke="black" points="396.5,-166.59 390.08,-158.16 389.84,-168.75 396.5,-166.59"/>
</g>
<!-- n8 -->
<g id="node8" class="node">
<title>n8</title>
<path fill="palegreen" stroke="black" d="M751,-158C751,-158 574,-158 574,-158 568,-158 562,-152 562,-146 562,-146 562,-134 562,-134 562,-128 568,-122 574,-122 574,-122 751,-122 751,-122 757,-122 763,-128 763,-134 763,-134 763,-146 763,-146 763,-152 757,-158 751,-158"/>
<text text-anchor="middle" x="662.5" y="-136.3" font-family="Arial" font-size="14.00">Sound needs medium to travel</text>
</g>
<!-- n4&#45;&gt;n8 -->
<g id="edge7" class="edge">
<title>n4&#45;&gt;n8</title>
<path fill="none" stroke="black" d="M662.5,-243.81C662.5,-224.11 662.5,-191.58 662.5,-168.39"/>
<polygon fill="black" stroke="black" points="666,-168.16 662.5,-158.16 659,-168.16 666,-168.16"/>
</g>
<!-- n9 -->
<g id="node9" class="node">
<title>n9</title>
<polygon fill="lightcoral" stroke="black" points="1003.5,-158 820.5,-140 1003.5,-122 1186.5,-140 1003.5,-158"/>
<text text-anchor="middle" x="1003.5" y="-136.3" font-family="Arial" font-size="14.00">Not consistently touching cups</text>
</g>
<!-- n4&#45;&gt;n9 -->
<g id="edge8" class="edge">
<title>n4&#45;&gt;n9</title>
<path fill="none" stroke="black" d="M710.99,-243.93C776.23,-220.98 891.51,-180.41 956.15,-157.66"/>
<polygon fill="black" stroke="black" points="957.42,-160.92 965.69,-154.3 955.1,-154.32 957.42,-160.92"/>
</g>
<!-- n11 -->
<g id="node10" class="node">
<title>n11</title>
<polygon fill="lightcoral" stroke="black" points="1501.5,-158 1244,-140 1501.5,-122 1759,-140 1501.5,-158"/>
<text text-anchor="middle" x="1501.5" y="-136.3" font-family="Arial" font-size="14.00">Partial understanding of sound transmission</text>
</g>
<!-- n5&#45;&gt;n11 -->
<g id="edge9" class="edge">
<title>n5&#45;&gt;n11</title>
<path fill="none" stroke="black" d="M1239,-243.93C1296.2,-221.5 1396.3,-182.25 1455,-159.24"/>
<polygon fill="black" stroke="black" points="1456.36,-162.46 1464.4,-155.56 1453.81,-155.95 1456.36,-162.46"/>
</g>
<!-- n10 -->
<g id="node11" class="node">
<title>n10</title>
<polygon fill="#f28e8e" stroke="black" points="1127.5,-36 879.5,-36 879.5,0 1127.5,0 1127.5,-36"/>
<text text-anchor="middle" x="1003.5" y="-14.3" font-family="Arial" font-size="14.00">Sound waves should start/stop at cups</text>
</g>
<!-- n9&#45;&gt;n10 -->
<g id="edge10" class="edge">
<title>n9&#45;&gt;n10</title>
<path fill="none" stroke="black" d="M1003.5,-121.81C1003.5,-102.11 1003.5,-69.58 1003.5,-46.39"/>
<polygon fill="black" stroke="black" points="1007,-46.16 1003.5,-36.16 1000,-46.16 1007,-46.16"/>
</g>
<!-- n12 -->
<g id="node12" class="node">
<title>n12</title>
<polygon fill="#f28e8e" stroke="black" points="1617,-36 1386,-36 1386,0 1617,0 1617,-36"/>
<text text-anchor="middle" x="1501.5" y="-14.3" font-family="Arial" font-size="14.00">Explain importance of string tension</text>
</g>
<!-- n11&#45;&gt;n12 -->
<g id="edge11" class="edge">
<title>n11&#45;&gt;n12</title>
<path fill="none" stroke="black" d="M1501.5,-121.81C1501.5,-102.11 1501.5,-69.58 1501.5,-46.39"/>
<polygon fill="black" stroke="black" points="1505,-46.16 1501.5,-36.16 1498,-46.16 1505,-46.16"/>
</g>
</g>
</svg>
