<?xml version="1.0" encoding="UTF-8" standalone="no"?>
<!DOCTYPE svg PUBLIC "-//W3C//DTD SVG 1.1//EN"
 "http://www.w3.org/Graphics/SVG/1.1/DTD/svg11.dtd">
<!-- Generated by graphviz version 2.43.0 (0)
 -->
<!-- Pages: 1 -->
<svg width="1199pt" height="410pt"
 viewBox="0.00 0.00 1198.50 410.00" xmlns="http://www.w3.org/2000/svg" xmlns:xlink="http://www.w3.org/1999/xlink">
<g id="graph0" class="graph" transform="scale(1 1) rotate(0) translate(4 406)">
<polygon fill="white" stroke="transparent" points="-4,4 -4,-406 1194.5,-406 1194.5,4 -4,4"/>
<!-- n1 -->
<g id="node1" class="node">
<title>n1</title>
<polygon fill="lightblue" stroke="black" points="828,-384 736.75,-402 554.25,-402 463,-384 554.25,-366 736.75,-366 828,-384"/>
<text text-anchor="middle" x="645.5" y="-380.3" font-family="Arial" font-size="14.00">Draw a fish in their habitat with labels.</text>
</g>
<!-- n2 -->
<g id="node2" class="node">
<title>n2</title>
<polygon fill="#fffdd0" stroke="black" points="237,-280 30,-280 30,-244 237,-244 237,-280"/>
<text text-anchor="middle" x="133.5" y="-258.3" font-family="Arial" font-size="14.00">Bright blue aquatic environment</text>
</g>
<!-- n1&#45;&gt;n2 -->
<g id="edge1" class="edge">
<title>n1&#45;&gt;n2</title>
<path fill="none" stroke="black" d="M572.96,-366C478.81,-343.93 314.92,-305.52 216.09,-282.36"/>
<polygon fill="black" stroke="black" points="216.68,-278.9 206.15,-280.03 215.09,-285.72 216.68,-278.9"/>
</g>
<!-- n3 -->
<g id="node3" class="node">
<title>n3</title>
<polygon fill="#fffdd0" stroke="black" points="488,-280 295,-280 295,-244 488,-244 488,-280"/>
<text text-anchor="middle" x="391.5" y="-258.3" font-family="Arial" font-size="14.00">Big&#45;bellied fish with pointy tail</text>
</g>
<!-- n1&#45;&gt;n3 -->
<g id="edge2" class="edge">
<title>n1&#45;&gt;n3</title>
<path fill="none" stroke="black" d="M609.38,-365.93C563.96,-344.48 485.97,-307.63 436.66,-284.33"/>
<polygon fill="black" stroke="black" points="438.04,-281.11 427.5,-280.01 435.05,-287.44 438.04,-281.11"/>
</g>
<!-- n4 -->
<g id="node4" class="node">
<title>n4</title>
<polygon fill="#fffdd0" stroke="black" points="745,-280 546,-280 546,-244 745,-244 745,-280"/>
<text text-anchor="middle" x="645.5" y="-258.3" font-family="Arial" font-size="14.00">Green seaweed labeled &#39;plant&#39;</text>
</g>
<!-- n1&#45;&gt;n4 -->
<g id="edge3" class="edge">
<title>n1&#45;&gt;n4</title>
<path fill="none" stroke="black" d="M645.5,-365.81C645.5,-346.11 645.5,-313.58 645.5,-290.39"/>
<polygon fill="black" stroke="black" points="649,-290.16 645.5,-280.16 642,-290.16 649,-290.16"/>
</g>
<!-- n5 -->
<g id="node5" class="node">
<title>n5</title>
<polygon fill="#fffdd0" stroke="black" points="962,-280 803,-280 803,-244 962,-244 962,-280"/>
<text text-anchor="middle" x="882.5" y="-258.3" font-family="Arial" font-size="14.00">Small fish labeled &#39;food&#39;</text>
</g>
<!-- n1&#45;&gt;n5 -->
<g id="edge4" class="edge">
<title>n1&#45;&gt;n5</title>
<path fill="none" stroke="black" d="M679.2,-365.93C721.41,-344.57 793.75,-307.94 839.79,-284.63"/>
<polygon fill="black" stroke="black" points="841.57,-287.65 848.91,-280.01 838.41,-281.41 841.57,-287.65"/>
</g>
<!-- n6 -->
<g id="node6" class="node">
<title>n6</title>
<polygon fill="#fffdd0" stroke="black" points="1190.5,-280 1020.5,-280 1020.5,-244 1190.5,-244 1190.5,-280"/>
<text text-anchor="middle" x="1105.5" y="-258.3" font-family="Arial" font-size="14.00">Blue water labeled &#39;water&#39;</text>
</g>
<!-- n1&#45;&gt;n6 -->
<g id="edge5" class="edge">
<title>n1&#45;&gt;n6</title>
<path fill="none" stroke="black" d="M710.92,-365.93C795.31,-343.92 941.79,-305.71 1030.6,-282.55"/>
<polygon fill="black" stroke="black" points="1031.51,-285.93 1040.3,-280.01 1029.74,-279.16 1031.51,-285.93"/>
</g>
<!-- n7 -->
<g id="node7" class="node">
<title>n7</title>
<path fill="palegreen" stroke="black" d="M205,-158C205,-158 12,-158 12,-158 6,-158 0,-152 0,-146 0,-146 0,-134 0,-134 0,-128 6,-122 12,-122 12,-122 205,-122 205,-122 211,-122 217,-128 217,-134 217,-134 217,-146 217,-146 217,-152 211,-158 205,-158"/>
<text text-anchor="middle" x="108.5" y="-136.3" font-family="Arial" font-size="14.00">Student understands fish in water</text>
</g>
<!-- n2&#45;&gt;n7 -->
<g id="edge6" class="edge">
<title>n2&#45;&gt;n7</title>
<path fill="none" stroke="black" d="M129.92,-243.81C125.8,-224.02 118.98,-191.29 114.14,-168.08"/>
<polygon fill="black" stroke="black" points="117.54,-167.24 112.08,-158.16 110.69,-168.66 117.54,-167.24"/>
</g>
<!-- n8 -->
<g id="node8" class="node">
<title>n8</title>
<path fill="palegreen" stroke="black" d="M514,-158C514,-158 287,-158 287,-158 281,-158 275,-152 275,-146 275,-146 275,-134 275,-134 275,-128 281,-122 287,-122 287,-122 514,-122 514,-122 520,-122 526,-128 526,-134 526,-134 526,-146 526,-146 526,-152 520,-158 514,-158"/>
<text text-anchor="middle" x="400.5" y="-136.3" font-family="Arial" font-size="14.00">Student understands labeling elements</text>
</g>
<!-- n3&#45;&gt;n8 -->
<g id="edge7" class="edge">
<title>n3&#45;&gt;n8</title>
<path fill="none" stroke="black" d="M392.79,-243.81C394.27,-224.11 396.71,-191.58 398.45,-168.39"/>
<polygon fill="black" stroke="black" points="401.96,-168.39 399.21,-158.16 394.98,-167.87 401.96,-168.39"/>
</g>
<!-- n9 -->
<g id="node9" class="node">
<title>n9</title>
<polygon fill="lightcoral" stroke="black" points="874.5,-158 600.5,-140 874.5,-122 1148.5,-140 874.5,-158"/>
<text text-anchor="middle" x="874.5" y="-136.3" font-family="Arial" font-size="14.00">Incomplete understanding of habitat interaction</text>
</g>
<!-- n4&#45;&gt;n9 -->
<g id="edge8" class="edge">
<title>n4&#45;&gt;n9</title>
<path fill="none" stroke="black" d="M678.31,-243.81C720.11,-221.9 792.21,-184.12 836.39,-160.97"/>
<polygon fill="black" stroke="black" points="838.15,-164 845.38,-156.26 834.9,-157.8 838.15,-164"/>
</g>
<!-- n5&#45;&gt;n9 -->
<g id="edge9" class="edge">
<title>n5&#45;&gt;n9</title>
<path fill="none" stroke="black" d="M881.35,-243.81C880.04,-224.11 877.87,-191.58 876.33,-168.39"/>
<polygon fill="black" stroke="black" points="879.81,-167.9 875.64,-158.16 872.82,-168.37 879.81,-167.9"/>
</g>
<!-- n10 -->
<g id="node10" class="node">
<title>n10</title>
<polygon fill="#f28e8e" stroke="black" points="1000.5,-36 748.5,-36 748.5,0 1000.5,0 1000.5,-36"/>
<text text-anchor="middle" x="874.5" y="-14.3" font-family="Arial" font-size="14.00">Feedback: Explain plant&#45;fish interaction</text>
</g>
<!-- n9&#45;&gt;n10 -->
<g id="edge10" class="edge">
<title>n9&#45;&gt;n10</title>
<path fill="none" stroke="black" d="M874.5,-121.81C874.5,-102.11 874.5,-69.58 874.5,-46.39"/>
<polygon fill="black" stroke="black" points="878,-46.16 874.5,-36.16 871,-46.16 878,-46.16"/>
</g>
</g>
</svg>
