<?xml version="1.0" encoding="UTF-8" standalone="no"?>
<!DOCTYPE svg PUBLIC "-//W3C//DTD SVG 1.1//EN"
 "http://www.w3.org/Graphics/SVG/1.1/DTD/svg11.dtd">
<!-- Generated by graphviz version 2.43.0 (0)
 -->
<!-- Pages: 1 -->
<svg width="2369pt" height="410pt"
 viewBox="0.00 0.00 2369.00 410.00" xmlns="http://www.w3.org/2000/svg" xmlns:xlink="http://www.w3.org/1999/xlink">
<g id="graph0" class="graph" transform="scale(1 1) rotate(0) translate(4 406)">
<polygon fill="white" stroke="transparent" points="-4,4 -4,-406 2365,-406 2365,4 -4,4"/>
<!-- n1 -->
<g id="node1" class="node">
<title>n1</title>
<polygon fill="lightblue" stroke="black" points="1323.5,-384 1232.25,-402 1049.75,-402 958.5,-384 1049.75,-366 1232.25,-366 1323.5,-384"/>
<text text-anchor="middle" x="1141" y="-380.3" font-family="Arial" font-size="14.00">Draw a fish in their habitat with labels.</text>
</g>
<!-- n2 -->
<g id="node2" class="node">
<title>n2</title>
<polygon fill="#fffdd0" stroke="black" points="514.5,-280 239.5,-280 239.5,-244 514.5,-244 514.5,-280"/>
<text text-anchor="middle" x="377" y="-258.3" font-family="Arial" font-size="14.00">Simple fish shape with oval and triangle tail</text>
</g>
<!-- n1&#45;&gt;n2 -->
<g id="edge1" class="edge">
<title>n1&#45;&gt;n2</title>
<path fill="none" stroke="black" d="M1042.3,-367.5C902.11,-345.48 645.73,-305.21 495.47,-281.61"/>
<polygon fill="black" stroke="black" points="495.7,-278.1 485.28,-280.01 494.62,-285.02 495.7,-278.1"/>
</g>
<!-- n3 -->
<g id="node3" class="node">
<title>n3</title>
<polygon fill="#fffdd0" stroke="black" points="832.5,-280 659.5,-280 659.5,-244 832.5,-244 832.5,-280"/>
<text text-anchor="middle" x="746" y="-258.3" font-family="Arial" font-size="14.00">Partial blue color for water</text>
</g>
<!-- n1&#45;&gt;n3 -->
<g id="edge2" class="edge">
<title>n1&#45;&gt;n3</title>
<path fill="none" stroke="black" d="M1084.8,-365.93C1012.9,-344.07 888.36,-306.25 811.97,-283.04"/>
<polygon fill="black" stroke="black" points="812.57,-279.56 801.98,-280.01 810.53,-286.26 812.57,-279.56"/>
</g>
<!-- n4 -->
<g id="node4" class="node">
<title>n4</title>
<polygon fill="#fffdd0" stroke="black" points="1215.5,-280 1066.5,-280 1066.5,-244 1215.5,-244 1215.5,-280"/>
<text text-anchor="middle" x="1141" y="-258.3" font-family="Arial" font-size="14.00">Randomly placed tree</text>
</g>
<!-- n1&#45;&gt;n4 -->
<g id="edge3" class="edge">
<title>n1&#45;&gt;n4</title>
<path fill="none" stroke="black" d="M1141,-365.81C1141,-346.11 1141,-313.58 1141,-290.39"/>
<polygon fill="black" stroke="black" points="1144.5,-290.16 1141,-280.16 1137.5,-290.16 1144.5,-290.16"/>
</g>
<!-- n5 -->
<g id="node5" class="node">
<title>n5</title>
<polygon fill="#fffdd0" stroke="black" points="1611.5,-280 1456.5,-280 1456.5,-244 1611.5,-244 1611.5,-280"/>
<text text-anchor="middle" x="1534" y="-258.3" font-family="Arial" font-size="14.00">Sun with a smiling face</text>
</g>
<!-- n1&#45;&gt;n5 -->
<g id="edge4" class="edge">
<title>n1&#45;&gt;n5</title>
<path fill="none" stroke="black" d="M1196.9,-365.93C1268.5,-344.07 1392.4,-306.25 1468.4,-283.04"/>
<polygon fill="black" stroke="black" points="1469.76,-286.28 1478.3,-280.01 1467.71,-279.59 1469.76,-286.28"/>
</g>
<!-- n6 -->
<g id="node6" class="node">
<title>n6</title>
<polygon fill="#fffdd0" stroke="black" points="1979,-280 1899,-280 1899,-244 1979,-244 1979,-280"/>
<text text-anchor="middle" x="1939" y="-258.3" font-family="Arial" font-size="14.00">Label ‘fish’</text>
</g>
<!-- n1&#45;&gt;n6 -->
<g id="edge5" class="edge">
<title>n1&#45;&gt;n6</title>
<path fill="none" stroke="black" d="M1241.7,-367.86C1414,-341.94 1759.6,-289.98 1888.7,-270.56"/>
<polygon fill="black" stroke="black" points="1889.43,-273.99 1898.8,-269.05 1888.39,-267.07 1889.43,-273.99"/>
</g>
<!-- n7 -->
<g id="node7" class="node">
<title>n7</title>
<path fill="palegreen" stroke="black" d="M218,-158C218,-158 12,-158 12,-158 6,-158 0,-152 0,-146 0,-146 0,-134 0,-134 0,-128 6,-122 12,-122 12,-122 218,-122 218,-122 224,-122 230,-128 230,-134 230,-134 230,-146 230,-146 230,-152 224,-158 218,-158"/>
<text text-anchor="middle" x="115" y="-136.3" font-family="Arial" font-size="14.00">Understanding of basic fish drawing</text>
</g>
<!-- n2&#45;&gt;n7 -->
<g id="edge6" class="edge">
<title>n2&#45;&gt;n7</title>
<path fill="none" stroke="black" d="M339.74,-243.93C292.79,-222.43 212.11,-185.48 161.26,-162.19"/>
<polygon fill="black" stroke="black" points="162.68,-158.99 152.13,-158.01 159.77,-165.36 162.68,-158.99"/>
</g>
<!-- n8 -->
<g id="node8" class="node">
<title>n8</title>
<polygon fill="lightcoral" stroke="black" points="571,-158 287.8,-140 571,-122 854.2,-140 571,-158"/>
<text text-anchor="middle" x="571" y="-136.3" font-family="Arial" font-size="14.00">Incomplete understanding of fish in water habitat</text>
</g>
<!-- n3&#45;&gt;n8 -->
<g id="edge7" class="edge">
<title>n3&#45;&gt;n8</title>
<path fill="none" stroke="black" d="M720.93,-243.81C689.69,-222.39 636.32,-185.79 602.4,-162.53"/>
<polygon fill="black" stroke="black" points="604.03,-159.4 593.8,-156.63 600.07,-165.17 604.03,-159.4"/>
</g>
<!-- n9 -->
<g id="node9" class="node">
<title>n9</title>
<polygon fill="lightcoral" stroke="black" points="1141,-158 912,-140 1141,-122 1370,-140 1141,-158"/>
<text text-anchor="middle" x="1141" y="-136.3" font-family="Arial" font-size="14.00">Misplacement of tree in aquatic habitat</text>
</g>
<!-- n4&#45;&gt;n9 -->
<g id="edge8" class="edge">
<title>n4&#45;&gt;n9</title>
<path fill="none" stroke="black" d="M1141,-243.81C1141,-224.11 1141,-191.58 1141,-168.39"/>
<polygon fill="black" stroke="black" points="1144.5,-168.16 1141,-158.16 1137.5,-168.16 1144.5,-168.16"/>
</g>
<!-- n10 -->
<g id="node10" class="node">
<title>n10</title>
<polygon fill="lightcoral" stroke="black" points="1718,-158 1427.5,-140 1718,-122 2008.5,-140 1718,-158"/>
<text text-anchor="middle" x="1718" y="-136.3" font-family="Arial" font-size="14.00">Irrelevant addition of sun disconnected from water</text>
</g>
<!-- n5&#45;&gt;n10 -->
<g id="edge9" class="edge">
<title>n5&#45;&gt;n10</title>
<path fill="none" stroke="black" d="M1560.4,-243.81C1593.3,-222.3 1649.8,-185.48 1685.4,-162.23"/>
<polygon fill="black" stroke="black" points="1687.53,-165.02 1694,-156.63 1683.71,-159.15 1687.53,-165.02"/>
</g>
<!-- n11 -->
<g id="node11" class="node">
<title>n11</title>
<polygon fill="lightcoral" stroke="black" points="2168,-158 2065.95,-140 2168,-122 2270.05,-140 2168,-158"/>
<text text-anchor="middle" x="2168" y="-136.3" font-family="Arial" font-size="14.00">Limited labeling</text>
</g>
<!-- n6&#45;&gt;n11 -->
<g id="edge10" class="edge">
<title>n6&#45;&gt;n11</title>
<path fill="none" stroke="black" d="M1971.8,-243.81C2015.1,-221.11 2091,-181.34 2134.6,-158.49"/>
<polygon fill="black" stroke="black" points="2136.45,-161.47 2143.7,-153.75 2133.21,-155.27 2136.45,-161.47"/>
</g>
<!-- n12 -->
<g id="node12" class="node">
<title>n12</title>
<polygon fill="#f28e8e" stroke="black" points="725,-36 417,-36 417,0 725,0 725,-36"/>
<text text-anchor="middle" x="571" y="-14.3" font-family="Arial" font-size="14.00">Draw the fish within a clearly defined water body.</text>
</g>
<!-- n8&#45;&gt;n12 -->
<g id="edge11" class="edge">
<title>n8&#45;&gt;n12</title>
<path fill="none" stroke="black" d="M571,-121.81C571,-102.11 571,-69.58 571,-46.39"/>
<polygon fill="black" stroke="black" points="574.5,-46.16 571,-36.16 567.5,-46.16 574.5,-46.16"/>
</g>
<!-- n13 -->
<g id="node13" class="node">
<title>n13</title>
<polygon fill="#f28e8e" stroke="black" points="1303.5,-36 978.5,-36 978.5,0 1303.5,0 1303.5,-36"/>
<text text-anchor="middle" x="1141" y="-14.3" font-family="Arial" font-size="14.00">Place plants and objects relevant to aquatic habitat.</text>
</g>
<!-- n9&#45;&gt;n13 -->
<g id="edge12" class="edge">
<title>n9&#45;&gt;n13</title>
<path fill="none" stroke="black" d="M1141,-121.81C1141,-102.11 1141,-69.58 1141,-46.39"/>
<polygon fill="black" stroke="black" points="1144.5,-46.16 1141,-36.16 1137.5,-46.16 1144.5,-46.16"/>
</g>
<!-- n14 -->
<g id="node14" class="node">
<title>n14</title>
<polygon fill="#f28e8e" stroke="black" points="1914.5,-36 1521.5,-36 1521.5,0 1914.5,0 1914.5,-36"/>
<text text-anchor="middle" x="1718" y="-14.3" font-family="Arial" font-size="14.00">Connect sun with aquatic habitat needs, like sunlight for plants.</text>
</g>
<!-- n10&#45;&gt;n14 -->
<g id="edge13" class="edge">
<title>n10&#45;&gt;n14</title>
<path fill="none" stroke="black" d="M1718,-121.81C1718,-102.11 1718,-69.58 1718,-46.39"/>
<polygon fill="black" stroke="black" points="1721.5,-46.16 1718,-36.16 1714.5,-46.16 1721.5,-46.16"/>
</g>
<!-- n15 -->
<g id="node15" class="node">
<title>n15</title>
<polygon fill="#f28e8e" stroke="black" points="2361,-36 1975,-36 1975,0 2361,0 2361,-36"/>
<text text-anchor="middle" x="2168" y="-14.3" font-family="Arial" font-size="14.00">Include labels for both fish and other environmental elements.</text>
</g>
<!-- n11&#45;&gt;n15 -->
<g id="edge14" class="edge">
<title>n11&#45;&gt;n15</title>
<path fill="none" stroke="black" d="M2168,-121.81C2168,-102.11 2168,-69.58 2168,-46.39"/>
<polygon fill="black" stroke="black" points="2171.5,-46.16 2168,-36.16 2164.5,-46.16 2171.5,-46.16"/>
</g>
</g>
</svg>
