<?xml version="1.0" encoding="UTF-8" standalone="no"?>
<!DOCTYPE svg PUBLIC "-//W3C//DTD SVG 1.1//EN"
 "http://www.w3.org/Graphics/SVG/1.1/DTD/svg11.dtd">
<!-- Generated by graphviz version 2.43.0 (0)
 -->
<!-- Pages: 1 -->
<svg width="1508pt" height="288pt"
 viewBox="0.00 0.00 1507.72 288.00" xmlns="http://www.w3.org/2000/svg" xmlns:xlink="http://www.w3.org/1999/xlink">
<g id="graph0" class="graph" transform="scale(1 1) rotate(0) translate(4 284)">
<polygon fill="white" stroke="transparent" points="-4,4 -4,-284 1503.72,-284 1503.72,4 -4,4"/>
<!-- n1 -->
<g id="node1" class="node">
<title>n1</title>
<polygon fill="lightblue" stroke="black" points="992.87,-262 850.19,-280 564.81,-280 422.13,-262 564.81,-244 850.19,-244 992.87,-262"/>
<text text-anchor="middle" x="707.5" y="-258.3" font-family="Arial" font-size="14.00">Draw animals in their habitats with labels (e.g., fish in water).</text>
</g>
<!-- n2 -->
<g id="node2" class="node">
<title>n2</title>
<polygon fill="#fffdd0" stroke="black" points="301.5,-158 35.5,-158 35.5,-122 301.5,-122 301.5,-158"/>
<text text-anchor="middle" x="168.5" y="-136.3" font-family="Arial" font-size="14.00">Blue pond with a sleek fish labeled &#39;water&#39;</text>
</g>
<!-- n1&#45;&gt;n2 -->
<g id="edge1" class="edge">
<title>n1&#45;&gt;n2</title>
<path fill="none" stroke="black" d="M631.13,-244C531.82,-221.89 358.79,-183.37 254.82,-160.22"/>
<polygon fill="black" stroke="black" points="255.5,-156.79 244.98,-158.03 253.98,-163.62 255.5,-156.79"/>
</g>
<!-- n3 -->
<g id="node3" class="node">
<title>n3</title>
<polygon fill="#fffdd0" stroke="black" points="722.5,-158 368.5,-158 368.5,-122 722.5,-122 722.5,-158"/>
<text text-anchor="middle" x="545.5" y="-136.3" font-family="Arial" font-size="14.00">Forest with green trees and a brown deer labeled &#39;forest&#39;</text>
</g>
<!-- n1&#45;&gt;n3 -->
<g id="edge2" class="edge">
<title>n1&#45;&gt;n3</title>
<path fill="none" stroke="black" d="M684.29,-243.81C656.14,-222.96 608.56,-187.71 577.09,-164.4"/>
<polygon fill="black" stroke="black" points="578.79,-161.3 568.67,-158.16 574.62,-166.93 578.79,-161.3"/>
</g>
<!-- n4 -->
<g id="node4" class="node">
<title>n4</title>
<polygon fill="#fffdd0" stroke="black" points="965,-158 786,-158 786,-122 965,-122 965,-158"/>
<text text-anchor="middle" x="875.5" y="-136.3" font-family="Arial" font-size="14.00">Bright yellow sun in the sky</text>
</g>
<!-- n1&#45;&gt;n4 -->
<g id="edge3" class="edge">
<title>n1&#45;&gt;n4</title>
<path fill="none" stroke="black" d="M731.57,-243.81C760.89,-222.87 810.53,-187.41 843.16,-164.1"/>
<polygon fill="black" stroke="black" points="845.37,-166.82 851.47,-158.16 841.3,-161.13 845.37,-166.82"/>
</g>
<!-- n8 -->
<g id="node5" class="node">
<title>n8</title>
<polygon fill="lightcoral" stroke="black" points="1263.5,-158 1027.05,-140 1263.5,-122 1499.95,-140 1263.5,-158"/>
<text text-anchor="middle" x="1263.5" y="-136.3" font-family="Arial" font-size="14.00">Does not label air or show food systems</text>
</g>
<!-- n1&#45;&gt;n8 -->
<g id="edge4" class="edge">
<title>n1&#45;&gt;n8</title>
<path fill="none" stroke="black" d="M786.28,-244C895.58,-220.41 1091.4,-178.14 1195,-155.79"/>
<polygon fill="black" stroke="black" points="1195.97,-159.16 1205,-153.62 1194.49,-152.32 1195.97,-159.16"/>
</g>
<!-- n5 -->
<g id="node6" class="node">
<title>n5</title>
<path fill="palegreen" stroke="black" d="M289,-36C289,-36 12,-36 12,-36 6,-36 0,-30 0,-24 0,-24 0,-12 0,-12 0,-6 6,0 12,0 12,0 289,0 289,0 295,0 301,-6 301,-12 301,-12 301,-24 301,-24 301,-30 295,-36 289,-36"/>
<text text-anchor="middle" x="150.5" y="-14.3" font-family="Arial" font-size="14.00">Fish needs water to survive; correct association</text>
</g>
<!-- n2&#45;&gt;n5 -->
<g id="edge5" class="edge">
<title>n2&#45;&gt;n5</title>
<path fill="none" stroke="black" d="M165.92,-121.81C162.95,-102.02 158.04,-69.29 154.56,-46.08"/>
<polygon fill="black" stroke="black" points="158.02,-45.53 153.07,-36.16 151.1,-46.57 158.02,-45.53"/>
</g>
<!-- n6 -->
<g id="node7" class="node">
<title>n6</title>
<path fill="palegreen" stroke="black" d="M647.5,-36C647.5,-36 371.5,-36 371.5,-36 365.5,-36 359.5,-30 359.5,-24 359.5,-24 359.5,-12 359.5,-12 359.5,-6 365.5,0 371.5,0 371.5,0 647.5,0 647.5,0 653.5,0 659.5,-6 659.5,-12 659.5,-12 659.5,-24 659.5,-24 659.5,-30 653.5,-36 647.5,-36"/>
<text text-anchor="middle" x="509.5" y="-14.3" font-family="Arial" font-size="14.00">Deer needs the forest/trees; correct association</text>
</g>
<!-- n3&#45;&gt;n6 -->
<g id="edge6" class="edge">
<title>n3&#45;&gt;n6</title>
<path fill="none" stroke="black" d="M540.34,-121.81C534.38,-101.94 524.5,-68.99 517.53,-45.76"/>
<polygon fill="black" stroke="black" points="520.88,-44.73 514.65,-36.16 514.17,-46.74 520.88,-44.73"/>
</g>
<!-- n7 -->
<g id="node8" class="node">
<title>n7</title>
<path fill="palegreen" stroke="black" d="M1031.5,-36C1031.5,-36 729.5,-36 729.5,-36 723.5,-36 717.5,-30 717.5,-24 717.5,-24 717.5,-12 717.5,-12 717.5,-6 723.5,0 729.5,0 729.5,0 1031.5,0 1031.5,0 1037.5,0 1043.5,-6 1043.5,-12 1043.5,-12 1043.5,-24 1043.5,-24 1043.5,-30 1037.5,-36 1031.5,-36"/>
<text text-anchor="middle" x="880.5" y="-14.3" font-family="Arial" font-size="14.00">Sunlight is a resource for plants; correct association</text>
</g>
<!-- n4&#45;&gt;n7 -->
<g id="edge7" class="edge">
<title>n4&#45;&gt;n7</title>
<path fill="none" stroke="black" d="M876.22,-121.81C877.04,-102.11 878.39,-69.58 879.36,-46.39"/>
<polygon fill="black" stroke="black" points="882.87,-46.3 879.78,-36.16 875.87,-46.01 882.87,-46.3"/>
</g>
<!-- n9 -->
<g id="node9" class="node">
<title>n9</title>
<polygon fill="#f28e8e" stroke="black" points="1435.5,-36 1101.5,-36 1101.5,0 1435.5,0 1435.5,-36"/>
<text text-anchor="middle" x="1268.5" y="-14.3" font-family="Arial" font-size="14.00">Consider labeling air for birds or showing food chains</text>
</g>
<!-- n8&#45;&gt;n9 -->
<g id="edge8" class="edge">
<title>n8&#45;&gt;n9</title>
<path fill="none" stroke="black" d="M1264.2,-121.81C1265,-102.11 1266.4,-69.58 1267.4,-46.39"/>
<polygon fill="black" stroke="black" points="1270.91,-46.29 1267.8,-36.16 1263.91,-46.02 1270.91,-46.29"/>
</g>
</g>
</svg>
