<?xml version="1.0" encoding="UTF-8" standalone="no"?>
<!DOCTYPE svg PUBLIC "-//W3C//DTD SVG 1.1//EN"
 "http://www.w3.org/Graphics/SVG/1.1/DTD/svg11.dtd">
<!-- Generated by graphviz version 2.43.0 (0)
 -->
<!-- Pages: 1 -->
<svg width="1795pt" height="410pt"
 viewBox="0.00 0.00 1794.57 410.00" xmlns="http://www.w3.org/2000/svg" xmlns:xlink="http://www.w3.org/1999/xlink">
<g id="graph0" class="graph" transform="scale(1 1) rotate(0) translate(4 406)">
<polygon fill="white" stroke="transparent" points="-4,4 -4,-406 1790.57,-406 1790.57,4 -4,4"/>
<!-- n1 -->
<g id="node1" class="node">
<title>n1</title>
<polygon fill="lightblue" stroke="black" points="796,-384 683.75,-402 459.25,-402 347,-384 459.25,-366 683.75,-366 796,-384"/>
<text text-anchor="middle" x="571.5" y="-380.3" font-family="Arial" font-size="14.00">Illustrate plants with and without water and light</text>
</g>
<!-- n2 -->
<g id="node2" class="node">
<title>n2</title>
<polygon fill="#fffdd0" stroke="black" points="285,-280 0,-280 0,-244 285,-244 285,-280"/>
<text text-anchor="middle" x="142.5" y="-258.3" font-family="Arial" font-size="14.00">Healthy plant with green leaves and tall stem</text>
</g>
<!-- n1&#45;&gt;n2 -->
<g id="edge1" class="edge">
<title>n1&#45;&gt;n2</title>
<path fill="none" stroke="black" d="M510.49,-365.93C432.02,-343.99 296,-305.94 213.13,-282.76"/>
<polygon fill="black" stroke="black" points="213.87,-279.33 203.3,-280.01 211.99,-286.07 213.87,-279.33"/>
</g>
<!-- n3 -->
<g id="node3" class="node">
<title>n3</title>
<polygon fill="#fffdd0" stroke="black" points="784.5,-280 608.5,-280 608.5,-244 784.5,-244 784.5,-280"/>
<text text-anchor="middle" x="696.5" y="-258.3" font-family="Arial" font-size="14.00">Sun with bright yellow rays</text>
</g>
<!-- n1&#45;&gt;n3 -->
<g id="edge2" class="edge">
<title>n1&#45;&gt;n3</title>
<path fill="none" stroke="black" d="M589.41,-365.81C610.85,-345.22 646.9,-310.61 671.19,-287.3"/>
<polygon fill="black" stroke="black" points="673.83,-289.61 678.62,-280.16 668.98,-284.57 673.83,-289.61"/>
</g>
<!-- n4 -->
<g id="node4" class="node">
<title>n4</title>
<polygon fill="#fffdd0" stroke="black" points="550,-280 343,-280 343,-244 550,-244 550,-280"/>
<text text-anchor="middle" x="446.5" y="-258.3" font-family="Arial" font-size="14.00">Red watering can pouring water</text>
</g>
<!-- n1&#45;&gt;n4 -->
<g id="edge3" class="edge">
<title>n1&#45;&gt;n4</title>
<path fill="none" stroke="black" d="M553.59,-365.81C532.15,-345.22 496.1,-310.61 471.81,-287.3"/>
<polygon fill="black" stroke="black" points="474.02,-284.57 464.38,-280.16 469.17,-289.61 474.02,-284.57"/>
</g>
<!-- n5 -->
<g id="node5" class="node">
<title>n5</title>
<polygon fill="#fffdd0" stroke="black" points="1152,-280 893,-280 893,-244 1152,-244 1152,-280"/>
<text text-anchor="middle" x="1022.5" y="-258.3" font-family="Arial" font-size="14.00">Droopy, wilted plant with no sun or water</text>
</g>
<!-- n1&#45;&gt;n5 -->
<g id="edge4" class="edge">
<title>n1&#45;&gt;n5</title>
<path fill="none" stroke="black" d="M635.64,-365.93C718.3,-343.94 861.71,-305.78 948.77,-282.62"/>
<polygon fill="black" stroke="black" points="949.82,-285.96 958.58,-280.01 948.02,-279.2 949.82,-285.96"/>
</g>
<!-- n6 -->
<g id="node6" class="node">
<title>n6</title>
<path fill="palegreen" stroke="black" d="M350,-158C350,-158 75,-158 75,-158 69,-158 63,-152 63,-146 63,-146 63,-134 63,-134 63,-128 69,-122 75,-122 75,-122 350,-122 350,-122 356,-122 362,-128 362,-134 362,-134 362,-146 362,-146 362,-152 356,-158 350,-158"/>
<text text-anchor="middle" x="212.5" y="-136.3" font-family="Arial" font-size="14.00">Understands healthy plants need water to grow</text>
</g>
<!-- n2&#45;&gt;n6 -->
<g id="edge5" class="edge">
<title>n2&#45;&gt;n6</title>
<path fill="none" stroke="black" d="M152.53,-243.81C164.28,-223.67 183.86,-190.1 197.43,-166.83"/>
<polygon fill="black" stroke="black" points="200.47,-168.56 202.49,-158.16 194.43,-165.03 200.47,-168.56"/>
</g>
<!-- n7 -->
<g id="node7" class="node">
<title>n7</title>
<path fill="palegreen" stroke="black" d="M790.5,-158C790.5,-158 502.5,-158 502.5,-158 496.5,-158 490.5,-152 490.5,-146 490.5,-146 490.5,-134 490.5,-134 490.5,-128 496.5,-122 502.5,-122 502.5,-122 790.5,-122 790.5,-122 796.5,-122 802.5,-128 802.5,-134 802.5,-134 802.5,-146 802.5,-146 802.5,-152 796.5,-158 790.5,-158"/>
<text text-anchor="middle" x="646.5" y="-136.3" font-family="Arial" font-size="14.00">Understands healthy plants need sunlight to grow</text>
</g>
<!-- n3&#45;&gt;n7 -->
<g id="edge6" class="edge">
<title>n3&#45;&gt;n7</title>
<path fill="none" stroke="black" d="M689.34,-243.81C681.02,-223.85 667.21,-190.7 657.52,-167.45"/>
<polygon fill="black" stroke="black" points="660.73,-166.05 653.65,-158.16 654.26,-168.74 660.73,-166.05"/>
</g>
<!-- n4&#45;&gt;n6 -->
<g id="edge7" class="edge">
<title>n4&#45;&gt;n6</title>
<path fill="none" stroke="black" d="M412.97,-243.81C371.36,-222.47 300.34,-186.05 254.96,-162.77"/>
<polygon fill="black" stroke="black" points="256.46,-159.6 245.96,-158.16 253.26,-165.83 256.46,-159.6"/>
</g>
<!-- n8 -->
<g id="node8" class="node">
<title>n8</title>
<path fill="palegreen" stroke="black" d="M1172,-158C1172,-158 873,-158 873,-158 867,-158 861,-152 861,-146 861,-146 861,-134 861,-134 861,-128 867,-122 873,-122 873,-122 1172,-122 1172,-122 1178,-122 1184,-128 1184,-134 1184,-134 1184,-146 1184,-146 1184,-152 1178,-158 1172,-158"/>
<text text-anchor="middle" x="1022.5" y="-136.3" font-family="Arial" font-size="14.00">Understands lack of water or sunlight affects health</text>
</g>
<!-- n5&#45;&gt;n8 -->
<g id="edge8" class="edge">
<title>n5&#45;&gt;n8</title>
<path fill="none" stroke="black" d="M1022.5,-243.81C1022.5,-224.11 1022.5,-191.58 1022.5,-168.39"/>
<polygon fill="black" stroke="black" points="1026,-168.16 1022.5,-158.16 1019,-168.16 1026,-168.16"/>
</g>
<!-- n9 -->
<g id="node9" class="node">
<title>n9</title>
<polygon fill="lightcoral" stroke="black" points="1514.5,-158 1242.36,-140 1514.5,-122 1786.64,-140 1514.5,-158"/>
<text text-anchor="middle" x="1514.5" y="-136.3" font-family="Arial" font-size="14.00">May not consistently label elements accurately</text>
</g>
<!-- n5&#45;&gt;n9 -->
<g id="edge9" class="edge">
<title>n5&#45;&gt;n9</title>
<path fill="none" stroke="black" d="M1092.2,-244C1187.5,-220.76 1357.1,-179.39 1449.7,-156.8"/>
<polygon fill="black" stroke="black" points="1450.61,-160.18 1459.5,-154.41 1448.96,-153.38 1450.61,-160.18"/>
</g>
<!-- n10 -->
<g id="node10" class="node">
<title>n10</title>
<polygon fill="#f28e8e" stroke="black" points="1638,-36 1391,-36 1391,0 1638,0 1638,-36"/>
<text text-anchor="middle" x="1514.5" y="-14.3" font-family="Arial" font-size="14.00">Practice labeling elements in drawings</text>
</g>
<!-- n9&#45;&gt;n10 -->
<g id="edge10" class="edge">
<title>n9&#45;&gt;n10</title>
<path fill="none" stroke="black" d="M1514.5,-121.81C1514.5,-102.11 1514.5,-69.58 1514.5,-46.39"/>
<polygon fill="black" stroke="black" points="1518,-46.16 1514.5,-36.16 1511,-46.16 1518,-46.16"/>
</g>
</g>
</svg>
