<?xml version="1.0" encoding="UTF-8" standalone="no"?>
<!DOCTYPE svg PUBLIC "-//W3C//DTD SVG 1.1//EN"
 "http://www.w3.org/Graphics/SVG/1.1/DTD/svg11.dtd">
<!-- Generated by graphviz version 2.43.0 (0)
 -->
<!-- Pages: 1 -->
<svg width="1550pt" height="410pt"
 viewBox="0.00 0.00 1550.04 410.00" xmlns="http://www.w3.org/2000/svg" xmlns:xlink="http://www.w3.org/1999/xlink">
<g id="graph0" class="graph" transform="scale(1 1) rotate(0) translate(4 406)">
<polygon fill="white" stroke="transparent" points="-4,4 -4,-406 1546.04,-406 1546.04,4 -4,4"/>
<!-- n1 -->
<g id="node1" class="node">
<title>n1</title>
<polygon fill="lightblue" stroke="black" points="1045.82,-384 923.41,-402 678.59,-402 556.18,-384 678.59,-366 923.41,-366 1045.82,-384"/>
<text text-anchor="middle" x="801" y="-380.3" font-family="Arial" font-size="14.00">Draw a habitat and the different living things in each</text>
</g>
<!-- n2 -->
<g id="node2" class="node">
<title>n2</title>
<polygon fill="#fffdd0" stroke="black" points="509.5,-280 260.5,-280 260.5,-244 509.5,-244 509.5,-280"/>
<text text-anchor="middle" x="385" y="-258.3" font-family="Arial" font-size="14.00">Land habitat with grass, tree, and bush</text>
</g>
<!-- n1&#45;&gt;n2 -->
<g id="edge1" class="edge">
<title>n1&#45;&gt;n2</title>
<path fill="none" stroke="black" d="M741.84,-365.93C665.9,-344.03 534.39,-306.09 453.98,-282.9"/>
<polygon fill="black" stroke="black" points="454.54,-279.42 443.96,-280.01 452.6,-286.14 454.54,-279.42"/>
</g>
<!-- n3 -->
<g id="node3" class="node">
<title>n3</title>
<polygon fill="#fffdd0" stroke="black" points="726,-280 568,-280 568,-244 726,-244 726,-280"/>
<text text-anchor="middle" x="647" y="-258.3" font-family="Arial" font-size="14.00">Water habitat with pond</text>
</g>
<!-- n1&#45;&gt;n3 -->
<g id="edge2" class="edge">
<title>n1&#45;&gt;n3</title>
<path fill="none" stroke="black" d="M778.94,-365.81C752.18,-344.96 706.95,-309.71 677.03,-286.4"/>
<polygon fill="black" stroke="black" points="679.06,-283.54 669.02,-280.16 674.76,-289.07 679.06,-283.54"/>
</g>
<!-- n4 -->
<g id="node4" class="node">
<title>n4</title>
<polygon fill="#fffdd0" stroke="black" points="927.5,-280 784.5,-280 784.5,-244 927.5,-244 927.5,-280"/>
<text text-anchor="middle" x="856" y="-258.3" font-family="Arial" font-size="14.00">Squirrel near the tree</text>
</g>
<!-- n1&#45;&gt;n4 -->
<g id="edge3" class="edge">
<title>n1&#45;&gt;n4</title>
<path fill="none" stroke="black" d="M808.88,-365.81C818.03,-345.85 833.22,-312.7 843.88,-289.45"/>
<polygon fill="black" stroke="black" points="847.15,-290.71 848.13,-280.16 840.79,-287.8 847.15,-290.71"/>
</g>
<!-- n5 -->
<g id="node5" class="node">
<title>n5</title>
<polygon fill="#fffdd0" stroke="black" points="1112.5,-280 985.5,-280 985.5,-244 1112.5,-244 1112.5,-280"/>
<text text-anchor="middle" x="1049" y="-258.3" font-family="Arial" font-size="14.00">Fishes in the pond</text>
</g>
<!-- n1&#45;&gt;n5 -->
<g id="edge4" class="edge">
<title>n1&#45;&gt;n5</title>
<path fill="none" stroke="black" d="M836.27,-365.93C880.52,-344.52 956.45,-307.78 1004.6,-284.48"/>
<polygon fill="black" stroke="black" points="1006.4,-287.5 1013.9,-280.01 1003.37,-281.19 1006.4,-287.5"/>
</g>
<!-- n6 -->
<g id="node6" class="node">
<title>n6</title>
<path fill="palegreen" stroke="black" d="M773.5,-158C773.5,-158 548.5,-158 548.5,-158 542.5,-158 536.5,-152 536.5,-146 536.5,-146 536.5,-134 536.5,-134 536.5,-128 542.5,-122 548.5,-122 548.5,-122 773.5,-122 773.5,-122 779.5,-122 785.5,-128 785.5,-134 785.5,-134 785.5,-146 785.5,-146 785.5,-152 779.5,-158 773.5,-158"/>
<text text-anchor="middle" x="661" y="-136.3" font-family="Arial" font-size="14.00">Identifies basic land and water habitats</text>
</g>
<!-- n2&#45;&gt;n6 -->
<g id="edge5" class="edge">
<title>n2&#45;&gt;n6</title>
<path fill="none" stroke="black" d="M424.25,-243.93C473.81,-222.39 559.05,-185.32 612.6,-162.04"/>
<polygon fill="black" stroke="black" points="614.1,-165.2 621.88,-158.01 611.31,-158.78 614.1,-165.2"/>
</g>
<!-- n8 -->
<g id="node7" class="node">
<title>n8</title>
<polygon fill="lightcoral" stroke="black" points="244,-158 9.5,-140 244,-122 478.5,-140 244,-158"/>
<text text-anchor="middle" x="244" y="-136.3" font-family="Arial" font-size="14.00">Limited variety of living things illustrated</text>
</g>
<!-- n2&#45;&gt;n8 -->
<g id="edge6" class="edge">
<title>n2&#45;&gt;n8</title>
<path fill="none" stroke="black" d="M364.8,-243.81C339.85,-222.57 297.36,-186.41 270,-163.13"/>
<polygon fill="black" stroke="black" points="272.25,-160.45 262.37,-156.63 267.71,-165.78 272.25,-160.45"/>
</g>
<!-- n3&#45;&gt;n6 -->
<g id="edge7" class="edge">
<title>n3&#45;&gt;n6</title>
<path fill="none" stroke="black" d="M649.01,-243.81C651.3,-224.11 655.1,-191.58 657.8,-168.39"/>
<polygon fill="black" stroke="black" points="661.31,-168.5 659,-158.16 654.36,-167.68 661.31,-168.5"/>
</g>
<!-- n3&#45;&gt;n8 -->
<g id="edge8" class="edge">
<title>n3&#45;&gt;n8</title>
<path fill="none" stroke="black" d="M589.69,-243.93C512.43,-220.93 375.78,-180.24 299.47,-157.52"/>
<polygon fill="black" stroke="black" points="300.15,-154.07 289.57,-154.57 298.15,-160.78 300.15,-154.07"/>
</g>
<!-- n7 -->
<g id="node8" class="node">
<title>n7</title>
<path fill="palegreen" stroke="black" d="M1186,-158C1186,-158 884,-158 884,-158 878,-158 872,-152 872,-146 872,-146 872,-134 872,-134 872,-128 878,-122 884,-122 884,-122 1186,-122 1186,-122 1192,-122 1198,-128 1198,-134 1198,-134 1198,-146 1198,-146 1198,-152 1192,-158 1186,-158"/>
<text text-anchor="middle" x="1035" y="-136.3" font-family="Arial" font-size="14.00">Recognizes common plants and animals in habitats</text>
</g>
<!-- n4&#45;&gt;n7 -->
<g id="edge9" class="edge">
<title>n4&#45;&gt;n7</title>
<path fill="none" stroke="black" d="M881.65,-243.81C913.02,-222.78 966.22,-187.11 1001,-163.8"/>
<polygon fill="black" stroke="black" points="1003.05,-166.64 1009.4,-158.16 999.15,-160.83 1003.05,-166.64"/>
</g>
<!-- n5&#45;&gt;n7 -->
<g id="edge10" class="edge">
<title>n5&#45;&gt;n7</title>
<path fill="none" stroke="black" d="M1047,-243.81C1044.7,-224.11 1040.9,-191.58 1038.2,-168.39"/>
<polygon fill="black" stroke="black" points="1041.64,-167.68 1037,-158.16 1034.69,-168.5 1041.64,-167.68"/>
</g>
<!-- n9 -->
<g id="node9" class="node">
<title>n9</title>
<polygon fill="#f28e8e" stroke="black" points="488,-36 0,-36 0,0 488,0 488,-36"/>
<text text-anchor="middle" x="244" y="-14.3" font-family="Arial" font-size="14.00">Add more diverse plants (e.g., flowering plants) and animals (e.g., ants, clams)</text>
</g>
<!-- n8&#45;&gt;n9 -->
<g id="edge11" class="edge">
<title>n8&#45;&gt;n9</title>
<path fill="none" stroke="black" d="M244,-121.81C244,-102.11 244,-69.58 244,-46.39"/>
<polygon fill="black" stroke="black" points="247.5,-46.16 244,-36.16 240.5,-46.16 247.5,-46.16"/>
</g>
<!-- n10 -->
<g id="node10" class="node">
<title>n10</title>
<polygon fill="lightcoral" stroke="black" points="1372,-402 1201.91,-384 1372,-366 1542.09,-384 1372,-402"/>
<text text-anchor="middle" x="1372" y="-380.3" font-family="Arial" font-size="14.00">Minimal labeling or captions</text>
</g>
<!-- n11 -->
<g id="node11" class="node">
<title>n11</title>
<polygon fill="#f28e8e" stroke="black" points="1518,-280 1226,-280 1226,-244 1518,-244 1518,-280"/>
<text text-anchor="middle" x="1372" y="-258.3" font-family="Arial" font-size="14.00">Include labels or captions to describe diversity</text>
</g>
<!-- n10&#45;&gt;n11 -->
<g id="edge12" class="edge">
<title>n10&#45;&gt;n11</title>
<path fill="none" stroke="black" d="M1372,-365.81C1372,-346.11 1372,-313.58 1372,-290.39"/>
<polygon fill="black" stroke="black" points="1375.5,-290.16 1372,-280.16 1368.5,-290.16 1375.5,-290.16"/>
</g>
</g>
</svg>
