<?xml version="1.0" encoding="UTF-8" standalone="no"?>
<!DOCTYPE svg PUBLIC "-//W3C//DTD SVG 1.1//EN"
 "http://www.w3.org/Graphics/SVG/1.1/DTD/svg11.dtd">
<!-- Generated by graphviz version 2.43.0 (0)
 -->
<!-- Pages: 1 -->
<svg width="1714pt" height="410pt"
 viewBox="0.00 0.00 1713.50 410.00" xmlns="http://www.w3.org/2000/svg" xmlns:xlink="http://www.w3.org/1999/xlink">
<g id="graph0" class="graph" transform="scale(1 1) rotate(0) translate(4 406)">
<polygon fill="white" stroke="transparent" points="-4,4 -4,-406 1709.5,-406 1709.5,4 -4,4"/>
<!-- n1 -->
<g id="node1" class="node">
<title>n1</title>
<polygon fill="lightblue" stroke="black" points="1092.32,-384 969.91,-402 725.09,-402 602.68,-384 725.09,-366 969.91,-366 1092.32,-384"/>
<text text-anchor="middle" x="847.5" y="-380.3" font-family="Arial" font-size="14.00">Draw a habitat and the different living things in each</text>
</g>
<!-- n2 -->
<g id="node2" class="node">
<title>n2</title>
<polygon fill="#fffdd0" stroke="black" points="378.5,-280 144.5,-280 144.5,-244 378.5,-244 378.5,-280"/>
<text text-anchor="middle" x="261.5" y="-258.3" font-family="Arial" font-size="14.00">Forest with trees, bushes, and grass</text>
</g>
<!-- n1&#45;&gt;n2 -->
<g id="edge1" class="edge">
<title>n1&#45;&gt;n2</title>
<path fill="none" stroke="black" d="M764.47,-366C656.28,-343.84 467.62,-305.21 354.66,-282.08"/>
<polygon fill="black" stroke="black" points="355.15,-278.61 344.65,-280.03 353.74,-285.47 355.15,-278.61"/>
</g>
<!-- n3 -->
<g id="node3" class="node">
<title>n3</title>
<polygon fill="#fffdd0" stroke="black" points="634,-280 475,-280 475,-244 634,-244 634,-280"/>
<text text-anchor="middle" x="554.5" y="-258.3" font-family="Arial" font-size="14.00">Pond with fish and duck</text>
</g>
<!-- n1&#45;&gt;n3 -->
<g id="edge2" class="edge">
<title>n1&#45;&gt;n3</title>
<path fill="none" stroke="black" d="M805.83,-365.93C753.11,-344.34 662.35,-307.17 605.53,-283.9"/>
<polygon fill="black" stroke="black" points="606.6,-280.56 596.02,-280.01 603.95,-287.04 606.6,-280.56"/>
</g>
<!-- n4 -->
<g id="node4" class="node">
<title>n4</title>
<polygon fill="#fffdd0" stroke="black" points="916.5,-280 778.5,-280 778.5,-244 916.5,-244 916.5,-280"/>
<text text-anchor="middle" x="847.5" y="-258.3" font-family="Arial" font-size="14.00">Squirrel on a branch</text>
</g>
<!-- n1&#45;&gt;n4 -->
<g id="edge3" class="edge">
<title>n1&#45;&gt;n4</title>
<path fill="none" stroke="black" d="M847.5,-365.81C847.5,-346.11 847.5,-313.58 847.5,-290.39"/>
<polygon fill="black" stroke="black" points="851,-290.16 847.5,-280.16 844,-290.16 851,-290.16"/>
</g>
<!-- n5 -->
<g id="node5" class="node">
<title>n5</title>
<polygon fill="#fffdd0" stroke="black" points="1202.5,-280 1066.5,-280 1066.5,-244 1202.5,-244 1202.5,-280"/>
<text text-anchor="middle" x="1134.5" y="-258.3" font-family="Arial" font-size="14.00">Bird flying overhead</text>
</g>
<!-- n1&#45;&gt;n5 -->
<g id="edge4" class="edge">
<title>n1&#45;&gt;n5</title>
<path fill="none" stroke="black" d="M888.32,-365.93C939.96,-344.34 1028.9,-307.17 1084.5,-283.9"/>
<polygon fill="black" stroke="black" points="1085.93,-287.1 1093.8,-280.01 1083.22,-280.64 1085.93,-287.1"/>
</g>
<!-- n6 -->
<g id="node6" class="node">
<title>n6</title>
<polygon fill="#fffdd0" stroke="black" points="1511,-280 1380,-280 1380,-244 1511,-244 1511,-280"/>
<text text-anchor="middle" x="1445.5" y="-258.3" font-family="Arial" font-size="14.00">Ants on the ground</text>
</g>
<!-- n1&#45;&gt;n6 -->
<g id="edge5" class="edge">
<title>n1&#45;&gt;n6</title>
<path fill="none" stroke="black" d="M932.23,-366C1049.2,-342.52 1258.4,-300.55 1370.1,-278.12"/>
<polygon fill="black" stroke="black" points="1370.88,-281.53 1380,-276.14 1369.51,-274.67 1370.88,-281.53"/>
</g>
<!-- n7 -->
<g id="node7" class="node">
<title>n7</title>
<path fill="palegreen" stroke="black" d="M263,-158C263,-158 12,-158 12,-158 6,-158 0,-152 0,-146 0,-146 0,-134 0,-134 0,-128 6,-122 12,-122 12,-122 263,-122 263,-122 269,-122 275,-128 275,-134 275,-134 275,-146 275,-146 275,-152 269,-158 263,-158"/>
<text text-anchor="middle" x="137.5" y="-136.3" font-family="Arial" font-size="14.00">Correctly identifies and draws forest habitat</text>
</g>
<!-- n2&#45;&gt;n7 -->
<g id="edge6" class="edge">
<title>n2&#45;&gt;n7</title>
<path fill="none" stroke="black" d="M243.73,-243.81C222.46,-223.22 186.7,-188.61 162.61,-165.3"/>
<polygon fill="black" stroke="black" points="164.85,-162.6 155.23,-158.16 159.98,-167.63 164.85,-162.6"/>
</g>
<!-- n8 -->
<g id="node8" class="node">
<title>n8</title>
<path fill="palegreen" stroke="black" d="M593.5,-158C593.5,-158 345.5,-158 345.5,-158 339.5,-158 333.5,-152 333.5,-146 333.5,-146 333.5,-134 333.5,-134 333.5,-128 339.5,-122 345.5,-122 345.5,-122 593.5,-122 593.5,-122 599.5,-122 605.5,-128 605.5,-134 605.5,-134 605.5,-146 605.5,-146 605.5,-152 599.5,-158 593.5,-158"/>
<text text-anchor="middle" x="469.5" y="-136.3" font-family="Arial" font-size="14.00">Correctly identifies and draws pond habitat</text>
</g>
<!-- n3&#45;&gt;n8 -->
<g id="edge7" class="edge">
<title>n3&#45;&gt;n8</title>
<path fill="none" stroke="black" d="M542.32,-243.81C527.99,-223.58 504.07,-189.81 487.58,-166.52"/>
<polygon fill="black" stroke="black" points="490.3,-164.3 481.66,-158.16 484.58,-168.34 490.3,-164.3"/>
</g>
<!-- n9 -->
<g id="node9" class="node">
<title>n9</title>
<path fill="palegreen" stroke="black" d="M1019.5,-158C1019.5,-158 675.5,-158 675.5,-158 669.5,-158 663.5,-152 663.5,-146 663.5,-146 663.5,-134 663.5,-134 663.5,-128 669.5,-122 675.5,-122 675.5,-122 1019.5,-122 1019.5,-122 1025.5,-122 1031.5,-128 1031.5,-134 1031.5,-134 1031.5,-146 1031.5,-146 1031.5,-152 1025.5,-158 1019.5,-158"/>
<text text-anchor="middle" x="847.5" y="-136.3" font-family="Arial" font-size="14.00">Demonstrates understanding of animal placement in forest</text>
</g>
<!-- n4&#45;&gt;n9 -->
<g id="edge8" class="edge">
<title>n4&#45;&gt;n9</title>
<path fill="none" stroke="black" d="M847.5,-243.81C847.5,-224.11 847.5,-191.58 847.5,-168.39"/>
<polygon fill="black" stroke="black" points="851,-168.16 847.5,-158.16 844,-168.16 851,-168.16"/>
</g>
<!-- n10 -->
<g id="node10" class="node">
<title>n10</title>
<path fill="palegreen" stroke="black" d="M1353.5,-158C1353.5,-158 1101.5,-158 1101.5,-158 1095.5,-158 1089.5,-152 1089.5,-146 1089.5,-146 1089.5,-134 1089.5,-134 1089.5,-128 1095.5,-122 1101.5,-122 1101.5,-122 1353.5,-122 1353.5,-122 1359.5,-122 1365.5,-128 1365.5,-134 1365.5,-134 1365.5,-146 1365.5,-146 1365.5,-152 1359.5,-158 1353.5,-158"/>
<text text-anchor="middle" x="1227.5" y="-136.3" font-family="Arial" font-size="14.00">Demonstrates understanding of bird habitat</text>
</g>
<!-- n5&#45;&gt;n10 -->
<g id="edge9" class="edge">
<title>n5&#45;&gt;n10</title>
<path fill="none" stroke="black" d="M1147.8,-243.81C1163.6,-223.49 1189.9,-189.51 1208,-166.21"/>
<polygon fill="black" stroke="black" points="1210.87,-168.22 1214.2,-158.16 1205.33,-163.95 1210.87,-168.22"/>
</g>
<!-- n11 -->
<g id="node11" class="node">
<title>n11</title>
<path fill="palegreen" stroke="black" d="M1693.5,-158C1693.5,-158 1435.5,-158 1435.5,-158 1429.5,-158 1423.5,-152 1423.5,-146 1423.5,-146 1423.5,-134 1423.5,-134 1423.5,-128 1429.5,-122 1435.5,-122 1435.5,-122 1693.5,-122 1693.5,-122 1699.5,-122 1705.5,-128 1705.5,-134 1705.5,-134 1705.5,-146 1705.5,-146 1705.5,-152 1699.5,-158 1693.5,-158"/>
<text text-anchor="middle" x="1564.5" y="-136.3" font-family="Arial" font-size="14.00">Demonstrates understanding of ants&#39; habitat</text>
</g>
<!-- n6&#45;&gt;n11 -->
<g id="edge10" class="edge">
<title>n6&#45;&gt;n11</title>
<path fill="none" stroke="black" d="M1462.5,-243.81C1483,-223.22 1517.3,-188.61 1540.4,-165.3"/>
<polygon fill="black" stroke="black" points="1542.93,-167.72 1547.5,-158.16 1537.97,-162.78 1542.93,-167.72"/>
</g>
<!-- n12 -->
<g id="node12" class="node">
<title>n12</title>
<polygon fill="#f28e8e" stroke="black" points="494.5,-36 112.5,-36 112.5,0 494.5,0 494.5,-36"/>
<text text-anchor="middle" x="303.5" y="-14.3" font-family="Arial" font-size="14.00">Could include more types of plants or animals for biodiversity</text>
</g>
<!-- n7&#45;&gt;n12 -->
<g id="edge11" class="edge">
<title>n7&#45;&gt;n12</title>
<path fill="none" stroke="black" d="M161.28,-121.81C190.25,-100.87 239.3,-65.41 271.54,-42.1"/>
<polygon fill="black" stroke="black" points="273.7,-44.85 279.76,-36.16 269.6,-39.18 273.7,-44.85"/>
</g>
<!-- n8&#45;&gt;n12 -->
<g id="edge12" class="edge">
<title>n8&#45;&gt;n12</title>
<path fill="none" stroke="black" d="M445.72,-121.81C416.75,-100.87 367.7,-65.41 335.46,-42.1"/>
<polygon fill="black" stroke="black" points="337.4,-39.18 327.24,-36.16 333.3,-44.85 337.4,-39.18"/>
</g>
</g>
</svg>
