<?xml version="1.0" encoding="UTF-8" standalone="no"?>
<!DOCTYPE svg PUBLIC "-//W3C//DTD SVG 1.1//EN"
 "http://www.w3.org/Graphics/SVG/1.1/DTD/svg11.dtd">
<!-- Generated by graphviz version 2.43.0 (0)
 -->
<!-- Pages: 1 -->
<svg width="1207pt" height="410pt"
 viewBox="0.00 0.00 1206.50 410.00" xmlns="http://www.w3.org/2000/svg" xmlns:xlink="http://www.w3.org/1999/xlink">
<g id="graph0" class="graph" transform="scale(1 1) rotate(0) translate(4 406)">
<polygon fill="white" stroke="transparent" points="-4,4 -4,-406 1202.5,-406 1202.5,4 -4,4"/>
<!-- n1 -->
<g id="node1" class="node">
<title>n1</title>
<polygon fill="lightblue" stroke="black" points="901,-384 770.75,-402 510.25,-402 380,-384 510.25,-366 770.75,-366 901,-384"/>
<text text-anchor="middle" x="640.5" y="-380.3" font-family="Arial" font-size="14.00">Draw two habitats and the different living things in each</text>
</g>
<!-- n2 -->
<g id="node2" class="node">
<title>n2</title>
<polygon fill="#fffdd0" stroke="black" points="418.5,-280 150.5,-280 150.5,-244 418.5,-244 418.5,-280"/>
<text text-anchor="middle" x="284.5" y="-258.3" font-family="Arial" font-size="14.00">Land habitat with a tree and some shapes</text>
</g>
<!-- n1&#45;&gt;n2 -->
<g id="edge1" class="edge">
<title>n1&#45;&gt;n2</title>
<path fill="none" stroke="black" d="M589.87,-365.93C525.29,-344.16 413.72,-306.56 344.8,-283.33"/>
<polygon fill="black" stroke="black" points="345.54,-279.89 334.95,-280.01 343.31,-286.52 345.54,-279.89"/>
</g>
<!-- n3 -->
<g id="node3" class="node">
<title>n3</title>
<polygon fill="#fffdd0" stroke="black" points="741,-280 540,-280 540,-244 741,-244 741,-280"/>
<text text-anchor="middle" x="640.5" y="-258.3" font-family="Arial" font-size="14.00">Water habitat with a fish shape</text>
</g>
<!-- n1&#45;&gt;n3 -->
<g id="edge2" class="edge">
<title>n1&#45;&gt;n3</title>
<path fill="none" stroke="black" d="M640.5,-365.81C640.5,-346.11 640.5,-313.58 640.5,-290.39"/>
<polygon fill="black" stroke="black" points="644,-290.16 640.5,-280.16 637,-290.16 644,-290.16"/>
</g>
<!-- n4 -->
<g id="node4" class="node">
<title>n4</title>
<polygon fill="#fffdd0" stroke="black" points="1081.5,-280 863.5,-280 863.5,-244 1081.5,-244 1081.5,-280"/>
<text text-anchor="middle" x="972.5" y="-258.3" font-family="Arial" font-size="14.00">Incorrect placement of bird shape</text>
</g>
<!-- n1&#45;&gt;n4 -->
<g id="edge3" class="edge">
<title>n1&#45;&gt;n4</title>
<path fill="none" stroke="black" d="M687.71,-365.93C747.82,-344.21 851.57,-306.71 915.87,-283.47"/>
<polygon fill="black" stroke="black" points="917.23,-286.7 925.45,-280.01 914.86,-280.12 917.23,-286.7"/>
</g>
<!-- n5 -->
<g id="node5" class="node">
<title>n5</title>
<polygon fill="lightcoral" stroke="black" points="220.5,-158 36.5,-140 220.5,-122 404.5,-140 220.5,-158"/>
<text text-anchor="middle" x="220.5" y="-136.3" font-family="Arial" font-size="14.00">Uses basic shapes for habitats</text>
</g>
<!-- n2&#45;&gt;n5 -->
<g id="edge4" class="edge">
<title>n2&#45;&gt;n5</title>
<path fill="none" stroke="black" d="M275.33,-243.81C264.52,-223.53 246.44,-189.64 234.02,-166.35"/>
<polygon fill="black" stroke="black" points="237.04,-164.57 229.24,-157.39 230.86,-167.86 237.04,-164.57"/>
</g>
<!-- n6 -->
<g id="node6" class="node">
<title>n6</title>
<polygon fill="lightcoral" stroke="black" points="640.5,-158 462,-140 640.5,-122 819,-140 640.5,-158"/>
<text text-anchor="middle" x="640.5" y="-136.3" font-family="Arial" font-size="14.00">Limited variety of living things</text>
</g>
<!-- n3&#45;&gt;n6 -->
<g id="edge5" class="edge">
<title>n3&#45;&gt;n6</title>
<path fill="none" stroke="black" d="M640.5,-243.81C640.5,-224.11 640.5,-191.58 640.5,-168.39"/>
<polygon fill="black" stroke="black" points="644,-168.16 640.5,-158.16 637,-168.16 644,-168.16"/>
</g>
<!-- n7 -->
<g id="node7" class="node">
<title>n7</title>
<polygon fill="lightcoral" stroke="black" points="1037.5,-158 876.5,-140 1037.5,-122 1198.5,-140 1037.5,-158"/>
<text text-anchor="middle" x="1037.5" y="-136.3" font-family="Arial" font-size="14.00">Minimal or incorrect labels</text>
</g>
<!-- n4&#45;&gt;n7 -->
<g id="edge6" class="edge">
<title>n4&#45;&gt;n7</title>
<path fill="none" stroke="black" d="M981.81,-243.81C992.8,-223.53 1011.2,-189.64 1023.8,-166.35"/>
<polygon fill="black" stroke="black" points="1026.96,-167.86 1028.6,-157.39 1020.79,-164.55 1026.96,-167.86"/>
</g>
<!-- n8 -->
<g id="node8" class="node">
<title>n8</title>
<polygon fill="#f28e8e" stroke="black" points="441,-36 0,-36 0,0 441,0 441,-36"/>
<text text-anchor="middle" x="220.5" y="-14.3" font-family="Arial" font-size="14.00">Use more detailed and varied elements to distinguish between habitats</text>
</g>
<!-- n5&#45;&gt;n8 -->
<g id="edge7" class="edge">
<title>n5&#45;&gt;n8</title>
<path fill="none" stroke="black" d="M220.5,-121.81C220.5,-102.11 220.5,-69.58 220.5,-46.39"/>
<polygon fill="black" stroke="black" points="224,-46.16 220.5,-36.16 217,-46.16 224,-46.16"/>
</g>
<!-- n9 -->
<g id="node9" class="node">
<title>n9</title>
<polygon fill="#f28e8e" stroke="black" points="758.5,-36 522.5,-36 522.5,0 758.5,0 758.5,-36"/>
<text text-anchor="middle" x="640.5" y="-14.3" font-family="Arial" font-size="14.00">Include more species in each habitat</text>
</g>
<!-- n6&#45;&gt;n9 -->
<g id="edge8" class="edge">
<title>n6&#45;&gt;n9</title>
<path fill="none" stroke="black" d="M640.5,-121.81C640.5,-102.11 640.5,-69.58 640.5,-46.39"/>
<polygon fill="black" stroke="black" points="644,-46.16 640.5,-36.16 637,-46.16 644,-46.16"/>
</g>
<!-- n10 -->
<g id="node10" class="node">
<title>n10</title>
<polygon fill="#f28e8e" stroke="black" points="1174.5,-36 900.5,-36 900.5,0 1174.5,0 1174.5,-36"/>
<text text-anchor="middle" x="1037.5" y="-14.3" font-family="Arial" font-size="14.00">Ensure labels are accurate and informative</text>
</g>
<!-- n7&#45;&gt;n10 -->
<g id="edge9" class="edge">
<title>n7&#45;&gt;n10</title>
<path fill="none" stroke="black" d="M1037.5,-121.81C1037.5,-102.11 1037.5,-69.58 1037.5,-46.39"/>
<polygon fill="black" stroke="black" points="1041,-46.16 1037.5,-36.16 1034,-46.16 1041,-46.16"/>
</g>
</g>
</svg>
