<?xml version="1.0" encoding="UTF-8" standalone="no"?>
<!DOCTYPE svg PUBLIC "-//W3C//DTD SVG 1.1//EN"
 "http://www.w3.org/Graphics/SVG/1.1/DTD/svg11.dtd">
<!-- Generated by graphviz version 2.43.0 (0)
 -->
<!-- Pages: 1 -->
<svg width="2060pt" height="410pt"
 viewBox="0.00 0.00 2060.00 410.00" xmlns="http://www.w3.org/2000/svg" xmlns:xlink="http://www.w3.org/1999/xlink">
<g id="graph0" class="graph" transform="scale(1 1) rotate(0) translate(4 406)">
<polygon fill="white" stroke="transparent" points="-4,4 -4,-406 2056,-406 2056,4 -4,4"/>
<!-- n1 -->
<g id="node1" class="node">
<title>n1</title>
<polygon fill="lightblue" stroke="black" points="1365,-384 1273.75,-402 1091.25,-402 1000,-384 1091.25,-366 1273.75,-366 1365,-384"/>
<text text-anchor="middle" x="1182.5" y="-380.3" font-family="Arial" font-size="14.00">Draw a fish in their habitat with labels.</text>
</g>
<!-- n2 -->
<g id="node2" class="node">
<title>n2</title>
<polygon fill="#fffdd0" stroke="black" points="892,-280 611,-280 611,-244 892,-244 892,-280"/>
<text text-anchor="middle" x="751.5" y="-258.3" font-family="Arial" font-size="14.00">Fish with labeled parts (body, fins, tail, eyes)</text>
</g>
<!-- n1&#45;&gt;n2 -->
<g id="edge1" class="edge">
<title>n1&#45;&gt;n2</title>
<path fill="none" stroke="black" d="M1121.2,-365.93C1042.4,-343.99 905.72,-305.94 822.46,-282.76"/>
<polygon fill="black" stroke="black" points="823.15,-279.32 812.58,-280.01 821.28,-286.06 823.15,-279.32"/>
</g>
<!-- n3 -->
<g id="node3" class="node">
<title>n3</title>
<polygon fill="#fffdd0" stroke="black" points="1282.5,-280 1082.5,-280 1082.5,-244 1282.5,-244 1282.5,-280"/>
<text text-anchor="middle" x="1182.5" y="-258.3" font-family="Arial" font-size="14.00">Aquatic plants labeled in water</text>
</g>
<!-- n1&#45;&gt;n3 -->
<g id="edge2" class="edge">
<title>n1&#45;&gt;n3</title>
<path fill="none" stroke="black" d="M1182.5,-365.81C1182.5,-346.11 1182.5,-313.58 1182.5,-290.39"/>
<polygon fill="black" stroke="black" points="1186,-290.16 1182.5,-280.16 1179,-290.16 1186,-290.16"/>
</g>
<!-- n4 -->
<g id="node4" class="node">
<title>n4</title>
<polygon fill="#fffdd0" stroke="black" points="416.5,-280 242.5,-280 242.5,-244 416.5,-244 416.5,-280"/>
<text text-anchor="middle" x="329.5" y="-258.3" font-family="Arial" font-size="14.00">Another fish drawn nearby</text>
</g>
<!-- n1&#45;&gt;n4 -->
<g id="edge3" class="edge">
<title>n1&#45;&gt;n4</title>
<path fill="none" stroke="black" d="M1078.8,-368.41C912.52,-345.02 588.74,-299.47 426.73,-276.68"/>
<polygon fill="black" stroke="black" points="427.16,-273.21 416.77,-275.28 426.19,-280.14 427.16,-273.21"/>
</g>
<!-- n5 -->
<g id="node5" class="node">
<title>n5</title>
<polygon fill="#fffdd0" stroke="black" points="1490.5,-280 1340.5,-280 1340.5,-244 1490.5,-244 1490.5,-280"/>
<text text-anchor="middle" x="1415.5" y="-258.3" font-family="Arial" font-size="14.00">Rocks on the lake bed</text>
</g>
<!-- n1&#45;&gt;n5 -->
<g id="edge4" class="edge">
<title>n1&#45;&gt;n5</title>
<path fill="none" stroke="black" d="M1215.9,-365.81C1257.3,-344.47 1328,-308.05 1373.2,-284.77"/>
<polygon fill="black" stroke="black" points="1374.9,-287.83 1382.2,-280.16 1371.7,-281.6 1374.9,-287.83"/>
</g>
<!-- n11 -->
<g id="node6" class="node">
<title>n11</title>
<polygon fill="lightcoral" stroke="black" points="1829.5,-280 1614.33,-262 1829.5,-244 2044.67,-262 1829.5,-280"/>
<text text-anchor="middle" x="1829.5" y="-258.3" font-family="Arial" font-size="14.00">No predator&#45;prey interactions shown</text>
</g>
<!-- n1&#45;&gt;n11 -->
<g id="edge5" class="edge">
<title>n1&#45;&gt;n11</title>
<path fill="none" stroke="black" d="M1274.2,-366C1403.6,-342 1637.2,-298.66 1755.9,-276.64"/>
<polygon fill="black" stroke="black" points="1756.8,-280.03 1766,-274.77 1755.53,-273.15 1756.8,-280.03"/>
</g>
<!-- n6 -->
<g id="node7" class="node">
<title>n6</title>
<path fill="palegreen" stroke="black" d="M532.5,-36C532.5,-36 314.5,-36 314.5,-36 308.5,-36 302.5,-30 302.5,-24 302.5,-24 302.5,-12 302.5,-12 302.5,-6 308.5,0 314.5,0 314.5,0 532.5,0 532.5,0 538.5,0 544.5,-6 544.5,-12 544.5,-12 544.5,-24 544.5,-24 544.5,-30 538.5,-36 532.5,-36"/>
<text text-anchor="middle" x="423.5" y="-14.3" font-family="Arial" font-size="14.00">Fish needs water to swim and survive</text>
</g>
<!-- n2&#45;&gt;n6 -->
<g id="edge6" class="edge">
<title>n2&#45;&gt;n6</title>
<path fill="none" stroke="black" d="M743.95,-243.75C730.56,-214.96 700.13,-156.86 658.5,-122 611.19,-82.39 546.28,-55.49 496.66,-39.14"/>
<polygon fill="black" stroke="black" points="497.54,-35.75 486.95,-36.01 495.39,-42.41 497.54,-35.75"/>
</g>
<!-- n7 -->
<g id="node8" class="node">
<title>n7</title>
<path fill="palegreen" stroke="black" d="M618,-158C618,-158 391,-158 391,-158 385,-158 379,-152 379,-146 379,-146 379,-134 379,-134 379,-128 385,-122 391,-122 391,-122 618,-122 618,-122 624,-122 630,-128 630,-134 630,-134 630,-146 630,-146 630,-152 624,-158 618,-158"/>
<text text-anchor="middle" x="504.5" y="-136.3" font-family="Arial" font-size="14.00">Understands fish anatomy and labeling</text>
</g>
<!-- n2&#45;&gt;n7 -->
<g id="edge7" class="edge">
<title>n2&#45;&gt;n7</title>
<path fill="none" stroke="black" d="M716.37,-243.93C672.3,-222.52 596.68,-185.78 548.71,-162.48"/>
<polygon fill="black" stroke="black" points="550.03,-159.23 539.51,-158.01 546.97,-165.53 550.03,-159.23"/>
</g>
<!-- n10 -->
<g id="node9" class="node">
<title>n10</title>
<polygon fill="lightcoral" stroke="black" points="1020.5,-158 806.17,-140 1020.5,-122 1234.83,-140 1020.5,-158"/>
<text text-anchor="middle" x="1020.5" y="-136.3" font-family="Arial" font-size="14.00">Lack of specific fish species labeling</text>
</g>
<!-- n2&#45;&gt;n10 -->
<g id="edge8" class="edge">
<title>n2&#45;&gt;n10</title>
<path fill="none" stroke="black" d="M789.76,-243.93C839.87,-221.58 927.42,-182.52 979.06,-159.48"/>
<polygon fill="black" stroke="black" points="980.56,-162.64 988.27,-155.38 977.71,-156.25 980.56,-162.64"/>
</g>
<!-- n8 -->
<g id="node10" class="node">
<title>n8</title>
<path fill="palegreen" stroke="black" d="M1604.5,-158C1604.5,-158 1304.5,-158 1304.5,-158 1298.5,-158 1292.5,-152 1292.5,-146 1292.5,-146 1292.5,-134 1292.5,-134 1292.5,-128 1298.5,-122 1304.5,-122 1304.5,-122 1604.5,-122 1604.5,-122 1610.5,-122 1616.5,-128 1616.5,-134 1616.5,-134 1616.5,-146 1616.5,-146 1616.5,-152 1610.5,-158 1604.5,-158"/>
<text text-anchor="middle" x="1454.5" y="-136.3" font-family="Arial" font-size="14.00">Understands aquatic plants are part of environment</text>
</g>
<!-- n3&#45;&gt;n8 -->
<g id="edge9" class="edge">
<title>n3&#45;&gt;n8</title>
<path fill="none" stroke="black" d="M1221.2,-243.93C1270,-222.39 1354,-185.32 1406.8,-162.04"/>
<polygon fill="black" stroke="black" points="1408.24,-165.23 1416,-158.01 1405.44,-158.82 1408.24,-165.23"/>
</g>
<!-- n9 -->
<g id="node11" class="node">
<title>n9</title>
<path fill="palegreen" stroke="black" d="M309,-158C309,-158 12,-158 12,-158 6,-158 0,-152 0,-146 0,-146 0,-134 0,-134 0,-128 6,-122 12,-122 12,-122 309,-122 309,-122 315,-122 321,-128 321,-134 321,-134 321,-146 321,-146 321,-152 315,-158 309,-158"/>
<text text-anchor="middle" x="160.5" y="-136.3" font-family="Arial" font-size="14.00">Resources necessary for fish survival are identified</text>
</g>
<!-- n4&#45;&gt;n9 -->
<g id="edge10" class="edge">
<title>n4&#45;&gt;n9</title>
<path fill="none" stroke="black" d="M305.29,-243.81C275.79,-222.87 225.86,-187.41 193.03,-164.1"/>
<polygon fill="black" stroke="black" points="194.85,-161.1 184.67,-158.16 190.79,-166.81 194.85,-161.1"/>
</g>
<!-- n13 -->
<g id="node12" class="node">
<title>n13</title>
<polygon fill="#f28e8e" stroke="black" points="2052,-158 1675,-158 1675,-122 2052,-122 2052,-158"/>
<text text-anchor="middle" x="1863.5" y="-136.3" font-family="Arial" font-size="14.00">Include predator&#45;prey interactions for a complete ecosystem</text>
</g>
<!-- n11&#45;&gt;n13 -->
<g id="edge11" class="edge">
<title>n11&#45;&gt;n13</title>
<path fill="none" stroke="black" d="M1834.2,-244.31C1839.8,-224.57 1849.2,-191.42 1855.8,-168"/>
<polygon fill="black" stroke="black" points="1859.18,-168.9 1858.6,-158.32 1852.46,-166.95 1859.18,-168.9"/>
</g>
<!-- n12 -->
<g id="node13" class="node">
<title>n12</title>
<polygon fill="#f28e8e" stroke="black" points="1176.5,-36 864.5,-36 864.5,0 1176.5,0 1176.5,-36"/>
<text text-anchor="middle" x="1020.5" y="-14.3" font-family="Arial" font-size="14.00">Future drawing could include specific fish species</text>
</g>
<!-- n10&#45;&gt;n12 -->
<g id="edge12" class="edge">
<title>n10&#45;&gt;n12</title>
<path fill="none" stroke="black" d="M1020.5,-121.81C1020.5,-102.11 1020.5,-69.58 1020.5,-46.39"/>
<polygon fill="black" stroke="black" points="1024,-46.16 1020.5,-36.16 1017,-46.16 1024,-46.16"/>
</g>
<!-- n9&#45;&gt;n6 -->
<g id="edge13" class="edge">
<title>n9&#45;&gt;n6</title>
<path fill="none" stroke="black" d="M197.9,-121.93C245.03,-100.43 326.02,-63.48 377.06,-40.19"/>
<polygon fill="black" stroke="black" points="378.58,-43.34 386.23,-36.01 375.68,-36.97 378.58,-43.34"/>
</g>
</g>
</svg>
