<?xml version="1.0" encoding="UTF-8" standalone="no"?>
<!DOCTYPE svg PUBLIC "-//W3C//DTD SVG 1.1//EN"
 "http://www.w3.org/Graphics/SVG/1.1/DTD/svg11.dtd">
<!-- Generated by graphviz version 2.43.0 (0)
 -->
<!-- Pages: 1 -->
<svg width="1388pt" height="410pt"
 viewBox="0.00 0.00 1388.00 410.00" xmlns="http://www.w3.org/2000/svg" xmlns:xlink="http://www.w3.org/1999/xlink">
<g id="graph0" class="graph" transform="scale(1 1) rotate(0) translate(4 406)">
<polygon fill="white" stroke="transparent" points="-4,4 -4,-406 1384,-406 1384,4 -4,4"/>
<!-- n1 -->
<g id="node1" class="node">
<title>n1</title>
<polygon fill="lightblue" stroke="black" points="836,-384 705.75,-402 445.25,-402 315,-384 445.25,-366 705.75,-366 836,-384"/>
<text text-anchor="middle" x="575.5" y="-380.3" font-family="Arial" font-size="14.00">Draw two habitats and the different living things in each</text>
</g>
<!-- n2 -->
<g id="node2" class="node">
<title>n2</title>
<polygon fill="#fffdd0" stroke="black" points="539,-280 324,-280 324,-244 539,-244 539,-280"/>
<text text-anchor="middle" x="431.5" y="-258.3" font-family="Arial" font-size="14.00">Forest Scene with Tree and Deer</text>
</g>
<!-- n1&#45;&gt;n2 -->
<g id="edge1" class="edge">
<title>n1&#45;&gt;n2</title>
<path fill="none" stroke="black" d="M554.87,-365.81C529.95,-345.04 487.91,-310.01 459.94,-286.7"/>
<polygon fill="black" stroke="black" points="462.01,-283.87 452.09,-280.16 457.53,-289.25 462.01,-283.87"/>
</g>
<!-- n3 -->
<g id="node3" class="node">
<title>n3</title>
<polygon fill="#fffdd0" stroke="black" points="802,-280 597,-280 597,-244 802,-244 802,-280"/>
<text text-anchor="middle" x="699.5" y="-258.3" font-family="Arial" font-size="14.00">Pond Scene with Fish and Frog</text>
</g>
<!-- n1&#45;&gt;n3 -->
<g id="edge2" class="edge">
<title>n1&#45;&gt;n3</title>
<path fill="none" stroke="black" d="M593.27,-365.81C614.54,-345.22 650.3,-310.61 674.39,-287.3"/>
<polygon fill="black" stroke="black" points="677.02,-289.63 681.77,-280.16 672.15,-284.6 677.02,-289.63"/>
</g>
<!-- n4 -->
<g id="node4" class="node">
<title>n4</title>
<path fill="palegreen" stroke="black" d="M395,-158C395,-158 12,-158 12,-158 6,-158 0,-152 0,-146 0,-146 0,-134 0,-134 0,-128 6,-122 12,-122 12,-122 395,-122 395,-122 401,-122 407,-128 407,-134 407,-134 407,-146 407,-146 407,-152 401,-158 395,-158"/>
<text text-anchor="middle" x="203.5" y="-136.3" font-family="Arial" font-size="14.00">Inside the forest: Three different plants/animals (Tree, Deer, Bird)</text>
</g>
<!-- n2&#45;&gt;n4 -->
<g id="edge3" class="edge">
<title>n2&#45;&gt;n4</title>
<path fill="none" stroke="black" d="M398.83,-243.81C358.37,-222.51 289.38,-186.2 245.15,-162.92"/>
<polygon fill="black" stroke="black" points="246.59,-159.72 236.11,-158.16 243.33,-165.92 246.59,-159.72"/>
</g>
<!-- n7 -->
<g id="node5" class="node">
<title>n7</title>
<path fill="palegreen" stroke="black" d="M653.5,-158C653.5,-158 477.5,-158 477.5,-158 471.5,-158 465.5,-152 465.5,-146 465.5,-146 465.5,-134 465.5,-134 465.5,-128 471.5,-122 477.5,-122 477.5,-122 653.5,-122 653.5,-122 659.5,-122 665.5,-128 665.5,-134 665.5,-134 665.5,-146 665.5,-146 665.5,-152 659.5,-158 653.5,-158"/>
<text text-anchor="middle" x="565.5" y="-136.3" font-family="Arial" font-size="14.00">Shows diversity within habitats</text>
</g>
<!-- n2&#45;&gt;n7 -->
<g id="edge4" class="edge">
<title>n2&#45;&gt;n7</title>
<path fill="none" stroke="black" d="M450.7,-243.81C473.78,-223.13 512.67,-188.31 538.7,-165"/>
<polygon fill="black" stroke="black" points="541.22,-167.44 546.34,-158.16 536.56,-162.22 541.22,-167.44"/>
</g>
<!-- n3&#45;&gt;n7 -->
<g id="edge5" class="edge">
<title>n3&#45;&gt;n7</title>
<path fill="none" stroke="black" d="M680.3,-243.81C657.22,-223.13 618.33,-188.31 592.3,-165"/>
<polygon fill="black" stroke="black" points="594.44,-162.22 584.66,-158.16 589.78,-167.44 594.44,-162.22"/>
</g>
<!-- n5 -->
<g id="node6" class="node">
<title>n5</title>
<polygon fill="lightcoral" stroke="black" points="1045.5,-158 723.59,-140 1045.5,-122 1367.41,-140 1045.5,-158"/>
<text text-anchor="middle" x="1045.5" y="-136.3" font-family="Arial" font-size="14.00">Inside the pond: Fish and Frog labeled, but not the duck</text>
</g>
<!-- n3&#45;&gt;n5 -->
<g id="edge6" class="edge">
<title>n3&#45;&gt;n5</title>
<path fill="none" stroke="black" d="M748.71,-243.93C813.57,-221.44 927.18,-182.03 993.44,-159.06"/>
<polygon fill="black" stroke="black" points="994.99,-162.23 1003.3,-155.65 992.71,-155.61 994.99,-162.23"/>
</g>
<!-- n8 -->
<g id="node7" class="node">
<title>n8</title>
<polygon fill="#f28e8e" stroke="black" points="1159.5,-36 931.5,-36 931.5,0 1159.5,0 1159.5,-36"/>
<text text-anchor="middle" x="1045.5" y="-14.3" font-family="Arial" font-size="14.00">Add labels to all animals in habitats</text>
</g>
<!-- n5&#45;&gt;n8 -->
<g id="edge7" class="edge">
<title>n5&#45;&gt;n8</title>
<path fill="none" stroke="black" d="M1045.5,-121.81C1045.5,-102.11 1045.5,-69.58 1045.5,-46.39"/>
<polygon fill="black" stroke="black" points="1049,-46.16 1045.5,-36.16 1042,-46.16 1049,-46.16"/>
</g>
<!-- n6 -->
<g id="node8" class="node">
<title>n6</title>
<polygon fill="lightcoral" stroke="black" points="1146.5,-402 913,-384 1146.5,-366 1380,-384 1146.5,-402"/>
<text text-anchor="middle" x="1146.5" y="-380.3" font-family="Arial" font-size="14.00">Compare and contrast different habitats</text>
</g>
<!-- n9 -->
<g id="node9" class="node">
<title>n9</title>
<polygon fill="#f28e8e" stroke="black" points="1308.5,-280 984.5,-280 984.5,-244 1308.5,-244 1308.5,-280"/>
<text text-anchor="middle" x="1146.5" y="-258.3" font-family="Arial" font-size="14.00">Draw patterns in biodiversity by labeling differences</text>
</g>
<!-- n6&#45;&gt;n9 -->
<g id="edge8" class="edge">
<title>n6&#45;&gt;n9</title>
<path fill="none" stroke="black" d="M1146.5,-365.81C1146.5,-346.11 1146.5,-313.58 1146.5,-290.39"/>
<polygon fill="black" stroke="black" points="1150,-290.16 1146.5,-280.16 1143,-290.16 1150,-290.16"/>
</g>
</g>
</svg>
