<?xml version="1.0" encoding="UTF-8" standalone="no"?>
<!DOCTYPE svg PUBLIC "-//W3C//DTD SVG 1.1//EN"
 "http://www.w3.org/Graphics/SVG/1.1/DTD/svg11.dtd">
<!-- Generated by graphviz version 2.43.0 (0)
 -->
<!-- Pages: 1 -->
<svg width="1136pt" height="288pt"
 viewBox="0.00 0.00 1135.50 288.00" xmlns="http://www.w3.org/2000/svg" xmlns:xlink="http://www.w3.org/1999/xlink">
<g id="graph0" class="graph" transform="scale(1 1) rotate(0) translate(4 284)">
<polygon fill="white" stroke="transparent" points="-4,4 -4,-284 1131.5,-284 1131.5,4 -4,4"/>
<!-- n1 -->
<g id="node1" class="node">
<title>n1</title>
<polygon fill="lightblue" stroke="black" points="692,-262 600.75,-280 418.25,-280 327,-262 418.25,-244 600.75,-244 692,-262"/>
<text text-anchor="middle" x="509.5" y="-258.3" font-family="Arial" font-size="14.00">Draw reversible changes (ice melting)</text>
</g>
<!-- n2 -->
<g id="node2" class="node">
<title>n2</title>
<polygon fill="#fffdd0" stroke="black" points="235,-158 158,-158 158,-122 235,-122 235,-158"/>
<text text-anchor="middle" x="196.5" y="-136.3" font-family="Arial" font-size="14.00">Ice &#45; Solid</text>
</g>
<!-- n1&#45;&gt;n2 -->
<g id="edge1" class="edge">
<title>n1&#45;&gt;n2</title>
<path fill="none" stroke="black" d="M464.99,-243.93C406.79,-221.62 305.21,-182.68 245.08,-159.62"/>
<polygon fill="black" stroke="black" points="246.02,-156.23 235.43,-155.93 243.52,-162.77 246.02,-156.23"/>
</g>
<!-- n3 -->
<g id="node3" class="node">
<title>n3</title>
<polygon fill="#fffdd0" stroke="black" points="488.5,-158 354.5,-158 354.5,-122 488.5,-122 488.5,-158"/>
<text text-anchor="middle" x="421.5" y="-136.3" font-family="Arial" font-size="14.00">Melting due to Heat</text>
</g>
<!-- n1&#45;&gt;n3 -->
<g id="edge2" class="edge">
<title>n1&#45;&gt;n3</title>
<path fill="none" stroke="black" d="M496.89,-243.81C482.06,-223.58 457.29,-189.81 440.22,-166.52"/>
<polygon fill="black" stroke="black" points="442.82,-164.15 434.08,-158.16 437.18,-168.29 442.82,-164.15"/>
</g>
<!-- n4 -->
<g id="node4" class="node">
<title>n4</title>
<polygon fill="#fffdd0" stroke="black" points="708,-158 607,-158 607,-122 708,-122 708,-158"/>
<text text-anchor="middle" x="657.5" y="-136.3" font-family="Arial" font-size="14.00">Water &#45; Liquid</text>
</g>
<!-- n1&#45;&gt;n4 -->
<g id="edge3" class="edge">
<title>n1&#45;&gt;n4</title>
<path fill="none" stroke="black" d="M530.7,-243.81C556.31,-223.04 599.52,-188.01 628.27,-164.7"/>
<polygon fill="black" stroke="black" points="630.77,-167.18 636.33,-158.16 626.36,-161.74 630.77,-167.18"/>
</g>
<!-- n5 -->
<g id="node5" class="node">
<title>n5</title>
<polygon fill="#fffdd0" stroke="black" points="1014.5,-158 854.5,-158 854.5,-122 1014.5,-122 1014.5,-158"/>
<text text-anchor="middle" x="934.5" y="-136.3" font-family="Arial" font-size="14.00">Freezing due to Cooling</text>
</g>
<!-- n1&#45;&gt;n5 -->
<g id="edge4" class="edge">
<title>n1&#45;&gt;n5</title>
<path fill="none" stroke="black" d="M569.94,-243.93C647.68,-221.99 782.43,-183.94 864.52,-160.76"/>
<polygon fill="black" stroke="black" points="865.6,-164.09 874.27,-158.01 863.7,-157.36 865.6,-164.09"/>
</g>
<!-- n6 -->
<g id="node6" class="node">
<title>n6</title>
<path fill="palegreen" stroke="black" d="M197,-36C197,-36 12,-36 12,-36 6,-36 0,-30 0,-24 0,-24 0,-12 0,-12 0,-6 6,0 12,0 12,0 197,0 197,0 203,0 209,-6 209,-12 209,-12 209,-24 209,-24 209,-30 203,-36 197,-36"/>
<text text-anchor="middle" x="104.5" y="-14.3" font-family="Arial" font-size="14.00">Correct drawing of ice as a solid</text>
</g>
<!-- n2&#45;&gt;n6 -->
<g id="edge5" class="edge">
<title>n2&#45;&gt;n6</title>
<path fill="none" stroke="black" d="M183.32,-121.81C167.74,-101.49 141.69,-67.51 123.83,-44.22"/>
<polygon fill="black" stroke="black" points="126.52,-41.97 117.66,-36.16 120.96,-46.23 126.52,-41.97"/>
</g>
<!-- n7 -->
<g id="node7" class="node">
<title>n7</title>
<path fill="palegreen" stroke="black" d="M503.5,-36C503.5,-36 279.5,-36 279.5,-36 273.5,-36 267.5,-30 267.5,-24 267.5,-24 267.5,-12 267.5,-12 267.5,-6 273.5,0 279.5,0 279.5,0 503.5,0 503.5,0 509.5,0 515.5,-6 515.5,-12 515.5,-12 515.5,-24 515.5,-24 515.5,-30 509.5,-36 503.5,-36"/>
<text text-anchor="middle" x="391.5" y="-14.3" font-family="Arial" font-size="14.00">Understanding of heat causing melting</text>
</g>
<!-- n3&#45;&gt;n7 -->
<g id="edge6" class="edge">
<title>n3&#45;&gt;n7</title>
<path fill="none" stroke="black" d="M417.2,-121.81C412.26,-102.02 404.07,-69.29 398.27,-46.08"/>
<polygon fill="black" stroke="black" points="401.61,-45.01 395.79,-36.16 394.82,-46.71 401.61,-45.01"/>
</g>
<!-- n8 -->
<g id="node8" class="node">
<title>n8</title>
<path fill="palegreen" stroke="black" d="M789.5,-36C789.5,-36 585.5,-36 585.5,-36 579.5,-36 573.5,-30 573.5,-24 573.5,-24 573.5,-12 573.5,-12 573.5,-6 579.5,0 585.5,0 585.5,0 789.5,0 789.5,0 795.5,0 801.5,-6 801.5,-12 801.5,-12 801.5,-24 801.5,-24 801.5,-30 795.5,-36 789.5,-36"/>
<text text-anchor="middle" x="687.5" y="-14.3" font-family="Arial" font-size="14.00">Correct drawing of water as a liquid</text>
</g>
<!-- n4&#45;&gt;n8 -->
<g id="edge7" class="edge">
<title>n4&#45;&gt;n8</title>
<path fill="none" stroke="black" d="M661.8,-121.81C666.74,-102.02 674.93,-69.29 680.73,-46.08"/>
<polygon fill="black" stroke="black" points="684.18,-46.71 683.21,-36.16 677.39,-45.01 684.18,-46.71"/>
</g>
<!-- n9 -->
<g id="node9" class="node">
<title>n9</title>
<path fill="palegreen" stroke="black" d="M1115.5,-36C1115.5,-36 871.5,-36 871.5,-36 865.5,-36 859.5,-30 859.5,-24 859.5,-24 859.5,-12 859.5,-12 859.5,-6 865.5,0 871.5,0 871.5,0 1115.5,0 1115.5,0 1121.5,0 1127.5,-6 1127.5,-12 1127.5,-12 1127.5,-24 1127.5,-24 1127.5,-30 1121.5,-36 1115.5,-36"/>
<text text-anchor="middle" x="993.5" y="-14.3" font-family="Arial" font-size="14.00">Understanding of cooling causing freezing</text>
</g>
<!-- n5&#45;&gt;n9 -->
<g id="edge8" class="edge">
<title>n5&#45;&gt;n9</title>
<path fill="none" stroke="black" d="M942.95,-121.81C952.81,-101.76 969.21,-68.4 980.65,-45.14"/>
<polygon fill="black" stroke="black" points="983.79,-46.68 985.06,-36.16 977.51,-43.59 983.79,-46.68"/>
</g>
</g>
</svg>
