<?xml version="1.0" encoding="UTF-8" standalone="no"?>
<!DOCTYPE svg PUBLIC "-//W3C//DTD SVG 1.1//EN"
 "http://www.w3.org/Graphics/SVG/1.1/DTD/svg11.dtd">
<!-- Generated by graphviz version 2.43.0 (0)
 -->
<!-- Pages: 1 -->
<svg width="1943pt" height="410pt"
 viewBox="0.00 0.00 1943.00 410.00" xmlns="http://www.w3.org/2000/svg" xmlns:xlink="http://www.w3.org/1999/xlink">
<g id="graph0" class="graph" transform="scale(1 1) rotate(0) translate(4 406)">
<polygon fill="white" stroke="transparent" points="-4,4 -4,-406 1939,-406 1939,4 -4,4"/>
<!-- n1 -->
<g id="node1" class="node">
<title>n1</title>
<polygon fill="lightblue" stroke="black" points="1260,-384 1129.75,-402 869.25,-402 739,-384 869.25,-366 1129.75,-366 1260,-384"/>
<text text-anchor="middle" x="999.5" y="-380.3" font-family="Arial" font-size="14.00">Draw two habitats and the different living things in each</text>
</g>
<!-- n2 -->
<g id="node2" class="node">
<title>n2</title>
<polygon fill="#fffdd0" stroke="black" points="650,-280 459,-280 459,-244 650,-244 650,-280"/>
<text text-anchor="middle" x="554.5" y="-258.3" font-family="Arial" font-size="14.00">Forest Habitat with Tall Trees</text>
</g>
<!-- n1&#45;&gt;n2 -->
<g id="edge1" class="edge">
<title>n1&#45;&gt;n2</title>
<path fill="none" stroke="black" d="M936.21,-365.93C854.65,-343.94 713.16,-305.78 627.25,-282.62"/>
<polygon fill="black" stroke="black" points="628.14,-279.23 617.57,-280.01 626.31,-285.99 628.14,-279.23"/>
</g>
<!-- n3 -->
<g id="node3" class="node">
<title>n3</title>
<polygon fill="#fffdd0" stroke="black" points="935,-280 708,-280 708,-244 935,-244 935,-280"/>
<text text-anchor="middle" x="821.5" y="-258.3" font-family="Arial" font-size="14.00">Pond Habitat with Aquatic Features</text>
</g>
<!-- n1&#45;&gt;n3 -->
<g id="edge2" class="edge">
<title>n1&#45;&gt;n3</title>
<path fill="none" stroke="black" d="M974,-365.81C942.8,-344.78 889.89,-309.11 855.32,-285.8"/>
<polygon fill="black" stroke="black" points="857.21,-282.85 846.96,-280.16 853.29,-288.65 857.21,-282.85"/>
</g>
<!-- n4 -->
<g id="node4" class="node">
<title>n4</title>
<polygon fill="#fffdd0" stroke="black" points="1352,-280 1155,-280 1155,-244 1352,-244 1352,-280"/>
<text text-anchor="middle" x="1253.5" y="-258.3" font-family="Arial" font-size="14.00">Squirrel, Bird, Rabbit in Forest</text>
</g>
<!-- n1&#45;&gt;n4 -->
<g id="edge3" class="edge">
<title>n1&#45;&gt;n4</title>
<path fill="none" stroke="black" d="M1035.6,-365.93C1081,-344.48 1159,-307.63 1208.3,-284.33"/>
<polygon fill="black" stroke="black" points="1209.94,-287.43 1217.5,-280.01 1206.96,-281.09 1209.94,-287.43"/>
</g>
<!-- n5 -->
<g id="node5" class="node">
<title>n5</title>
<polygon fill="#fffdd0" stroke="black" points="1575,-280 1410,-280 1410,-244 1575,-244 1575,-280"/>
<text text-anchor="middle" x="1492.5" y="-258.3" font-family="Arial" font-size="14.00">Duck, Fish, Frog in Pond</text>
</g>
<!-- n1&#45;&gt;n5 -->
<g id="edge4" class="edge">
<title>n1&#45;&gt;n5</title>
<path fill="none" stroke="black" d="M1069.4,-366C1159.9,-343.95 1317.5,-305.6 1412.7,-282.43"/>
<polygon fill="black" stroke="black" points="1413.62,-285.81 1422.5,-280.03 1411.95,-279.01 1413.62,-285.81"/>
</g>
<!-- n6 -->
<g id="node6" class="node">
<title>n6</title>
<path fill="palegreen" stroke="black" d="M345,-158C345,-158 12,-158 12,-158 6,-158 0,-152 0,-146 0,-146 0,-134 0,-134 0,-128 6,-122 12,-122 12,-122 345,-122 345,-122 351,-122 357,-128 357,-134 357,-134 357,-146 357,-146 357,-152 351,-158 345,-158"/>
<text text-anchor="middle" x="178.5" y="-136.3" font-family="Arial" font-size="14.00">Identifies and illustrates different habitats: land and water</text>
</g>
<!-- n2&#45;&gt;n6 -->
<g id="edge5" class="edge">
<title>n2&#45;&gt;n6</title>
<path fill="none" stroke="black" d="M501.03,-243.93C432.67,-222.12 314.49,-184.4 241.74,-161.18"/>
<polygon fill="black" stroke="black" points="242.38,-157.71 231.79,-158.01 240.26,-164.38 242.38,-157.71"/>
</g>
<!-- n9 -->
<g id="node7" class="node">
<title>n9</title>
<polygon fill="lightcoral" stroke="black" points="778.5,-158 415.37,-140 778.5,-122 1141.63,-140 778.5,-158"/>
<text text-anchor="middle" x="778.5" y="-136.3" font-family="Arial" font-size="14.00">Incomplete labeling and missing smaller organisms like insects</text>
</g>
<!-- n2&#45;&gt;n9 -->
<g id="edge6" class="edge">
<title>n2&#45;&gt;n9</title>
<path fill="none" stroke="black" d="M586.59,-243.81C627.17,-222.07 696.93,-184.7 740.23,-161.5"/>
<polygon fill="black" stroke="black" points="742.16,-164.44 749.32,-156.63 738.85,-158.27 742.16,-164.44"/>
</g>
<!-- n3&#45;&gt;n6 -->
<g id="edge7" class="edge">
<title>n3&#45;&gt;n6</title>
<path fill="none" stroke="black" d="M730.4,-244C611.33,-221.78 403.42,-182.98 279.6,-159.87"/>
<polygon fill="black" stroke="black" points="280.2,-156.42 269.73,-158.03 278.92,-163.3 280.2,-156.42"/>
</g>
<!-- n3&#45;&gt;n9 -->
<g id="edge8" class="edge">
<title>n3&#45;&gt;n9</title>
<path fill="none" stroke="black" d="M815.34,-243.81C808.18,-223.82 796.28,-190.62 787.95,-167.37"/>
<polygon fill="black" stroke="black" points="791.18,-166 784.51,-157.77 784.59,-168.36 791.18,-166"/>
</g>
<!-- n7 -->
<g id="node8" class="node">
<title>n7</title>
<path fill="palegreen" stroke="black" d="M1535.5,-158C1535.5,-158 1211.5,-158 1211.5,-158 1205.5,-158 1199.5,-152 1199.5,-146 1199.5,-146 1199.5,-134 1199.5,-134 1199.5,-128 1205.5,-122 1211.5,-122 1211.5,-122 1535.5,-122 1535.5,-122 1541.5,-122 1547.5,-128 1547.5,-134 1547.5,-134 1547.5,-146 1547.5,-146 1547.5,-152 1541.5,-158 1535.5,-158"/>
<text text-anchor="middle" x="1373.5" y="-136.3" font-family="Arial" font-size="14.00">Draws various types of living things: plants and animals</text>
</g>
<!-- n4&#45;&gt;n7 -->
<g id="edge9" class="edge">
<title>n4&#45;&gt;n7</title>
<path fill="none" stroke="black" d="M1270.7,-243.81C1291.3,-223.22 1325.9,-188.61 1349.2,-165.3"/>
<polygon fill="black" stroke="black" points="1351.73,-167.72 1356.3,-158.16 1346.77,-162.78 1351.73,-167.72"/>
</g>
<!-- n8 -->
<g id="node9" class="node">
<title>n8</title>
<path fill="palegreen" stroke="black" d="M1923,-158C1923,-158 1618,-158 1618,-158 1612,-158 1606,-152 1606,-146 1606,-146 1606,-134 1606,-134 1606,-128 1612,-122 1618,-122 1618,-122 1923,-122 1923,-122 1929,-122 1935,-128 1935,-134 1935,-134 1935,-146 1935,-146 1935,-152 1929,-158 1923,-158"/>
<text text-anchor="middle" x="1770.5" y="-136.3" font-family="Arial" font-size="14.00">Understands diversity of life across different habitats</text>
</g>
<!-- n4&#45;&gt;n8 -->
<g id="edge10" class="edge">
<title>n4&#45;&gt;n8</title>
<path fill="none" stroke="black" d="M1326.8,-244C1421.9,-221.91 1587.6,-183.44 1687.4,-160.29"/>
<polygon fill="black" stroke="black" points="1688.16,-163.71 1697.1,-158.03 1686.57,-156.89 1688.16,-163.71"/>
</g>
<!-- n5&#45;&gt;n7 -->
<g id="edge11" class="edge">
<title>n5&#45;&gt;n7</title>
<path fill="none" stroke="black" d="M1475.5,-243.81C1455,-223.22 1420.7,-188.61 1397.6,-165.3"/>
<polygon fill="black" stroke="black" points="1400.03,-162.78 1390.5,-158.16 1395.07,-167.72 1400.03,-162.78"/>
</g>
<!-- n5&#45;&gt;n8 -->
<g id="edge12" class="edge">
<title>n5&#45;&gt;n8</title>
<path fill="none" stroke="black" d="M1532,-243.93C1582,-222.39 1667.8,-185.32 1721.7,-162.04"/>
<polygon fill="black" stroke="black" points="1723.29,-165.17 1731.1,-158.01 1720.53,-158.73 1723.29,-165.17"/>
</g>
<!-- n10 -->
<g id="node10" class="node">
<title>n10</title>
<polygon fill="#f28e8e" stroke="black" points="984.5,-36 572.5,-36 572.5,0 984.5,0 984.5,-36"/>
<text text-anchor="middle" x="778.5" y="-14.3" font-family="Arial" font-size="14.00">Include more diversity, such as insects, and label more organisms</text>
</g>
<!-- n9&#45;&gt;n10 -->
<g id="edge13" class="edge">
<title>n9&#45;&gt;n10</title>
<path fill="none" stroke="black" d="M778.5,-121.81C778.5,-102.11 778.5,-69.58 778.5,-46.39"/>
<polygon fill="black" stroke="black" points="782,-46.16 778.5,-36.16 775,-46.16 782,-46.16"/>
</g>
</g>
</svg>
