<?xml version="1.0" encoding="UTF-8" standalone="no"?>
<!DOCTYPE svg PUBLIC "-//W3C//DTD SVG 1.1//EN"
 "http://www.w3.org/Graphics/SVG/1.1/DTD/svg11.dtd">
<!-- Generated by graphviz version 2.43.0 (0)
 -->
<!-- Pages: 1 -->
<svg width="1888pt" height="288pt"
 viewBox="0.00 0.00 1887.50 288.00" xmlns="http://www.w3.org/2000/svg" xmlns:xlink="http://www.w3.org/1999/xlink">
<g id="graph0" class="graph" transform="scale(1 1) rotate(0) translate(4 284)">
<polygon fill="white" stroke="transparent" points="-4,4 -4,-284 1883.5,-284 1883.5,4 -4,4"/>
<!-- n1 -->
<g id="node1" class="node">
<title>n1</title>
<polygon fill="lightblue" stroke="black" points="1144.5,-262 1053.25,-280 870.75,-280 779.5,-262 870.75,-244 1053.25,-244 1144.5,-262"/>
<text text-anchor="middle" x="962" y="-258.3" font-family="Arial" font-size="14.00">Draw a fish in their habitat with labels.</text>
</g>
<!-- n2 -->
<g id="node2" class="node">
<title>n2</title>
<polygon fill="#fffdd0" stroke="black" points="312,-158 0,-158 0,-122 312,-122 312,-158"/>
<text text-anchor="middle" x="156" y="-136.3" font-family="Arial" font-size="14.00">Orange clownfish with labeled fins, tail, and eyes.</text>
</g>
<!-- n1&#45;&gt;n2 -->
<g id="edge1" class="edge">
<title>n1&#45;&gt;n2</title>
<path fill="none" stroke="black" d="M860.74,-245.92C713.45,-224 440.36,-183.34 280.83,-159.58"/>
<polygon fill="black" stroke="black" points="280.89,-156.05 270.48,-158.04 279.86,-162.97 280.89,-156.05"/>
</g>
<!-- n3 -->
<g id="node3" class="node">
<title>n3</title>
<polygon fill="#fffdd0" stroke="black" points="563.5,-158 370.5,-158 370.5,-122 563.5,-122 563.5,-158"/>
<text text-anchor="middle" x="467" y="-136.3" font-family="Arial" font-size="14.00">Green aquatic plants labeled.</text>
</g>
<!-- n1&#45;&gt;n3 -->
<g id="edge2" class="edge">
<title>n1&#45;&gt;n3</title>
<path fill="none" stroke="black" d="M891.87,-244C800.94,-221.95 642.72,-183.6 547.14,-160.43"/>
<polygon fill="black" stroke="black" points="547.77,-156.98 537.23,-158.03 546.13,-163.79 547.77,-156.98"/>
</g>
<!-- n4 -->
<g id="node4" class="node">
<title>n4</title>
<polygon fill="#fffdd0" stroke="black" points="800,-158 622,-158 622,-122 800,-122 800,-158"/>
<text text-anchor="middle" x="711" y="-136.3" font-family="Arial" font-size="14.00">Snail included and labeled.</text>
</g>
<!-- n1&#45;&gt;n4 -->
<g id="edge3" class="edge">
<title>n1&#45;&gt;n4</title>
<path fill="none" stroke="black" d="M926.3,-243.93C881.42,-222.48 804.35,-185.63 755.62,-162.33"/>
<polygon fill="black" stroke="black" points="757.1,-159.16 746.57,-158.01 754.09,-165.48 757.1,-159.16"/>
</g>
<!-- n5 -->
<g id="node5" class="node">
<title>n5</title>
<polygon fill="#fffdd0" stroke="black" points="1065.5,-158 858.5,-158 858.5,-122 1065.5,-122 1065.5,-158"/>
<text text-anchor="middle" x="962" y="-136.3" font-family="Arial" font-size="14.00">Small fish included and labeled.</text>
</g>
<!-- n1&#45;&gt;n5 -->
<g id="edge4" class="edge">
<title>n1&#45;&gt;n5</title>
<path fill="none" stroke="black" d="M962,-243.81C962,-224.11 962,-191.58 962,-168.39"/>
<polygon fill="black" stroke="black" points="965.5,-168.16 962,-158.16 958.5,-168.16 965.5,-168.16"/>
</g>
<!-- n6 -->
<g id="node6" class="node">
<title>n6</title>
<polygon fill="#fffdd0" stroke="black" points="1312,-158 1124,-158 1124,-122 1312,-122 1312,-158"/>
<text text-anchor="middle" x="1218" y="-136.3" font-family="Arial" font-size="14.00">Bubbles labeled as &#39;oxygen&#39;.</text>
</g>
<!-- n1&#45;&gt;n6 -->
<g id="edge5" class="edge">
<title>n1&#45;&gt;n6</title>
<path fill="none" stroke="black" d="M998.41,-243.93C1044.2,-222.48 1122.8,-185.63 1172.5,-162.33"/>
<polygon fill="black" stroke="black" points="1174.14,-165.43 1181.7,-158.01 1171.16,-159.09 1174.14,-165.43"/>
</g>
<!-- n7 -->
<g id="node7" class="node">
<title>n7</title>
<polygon fill="#fffdd0" stroke="black" points="1563.5,-158 1370.5,-158 1370.5,-122 1563.5,-122 1563.5,-158"/>
<text text-anchor="middle" x="1467" y="-136.3" font-family="Arial" font-size="14.00">Fish interacting: eating algae.</text>
</g>
<!-- n1&#45;&gt;n7 -->
<g id="edge6" class="edge">
<title>n1&#45;&gt;n7</title>
<path fill="none" stroke="black" d="M1033.6,-244C1126.4,-221.93 1288.1,-183.52 1385.5,-160.36"/>
<polygon fill="black" stroke="black" points="1386.38,-163.75 1395.3,-158.03 1384.76,-156.94 1386.38,-163.75"/>
</g>
<!-- n8 -->
<g id="node8" class="node">
<title>n8</title>
<polygon fill="#fffdd0" stroke="black" points="1852,-158 1622,-158 1622,-122 1852,-122 1852,-158"/>
<text text-anchor="middle" x="1737" y="-136.3" font-family="Arial" font-size="14.00">Water layers depicted with shading.</text>
</g>
<!-- n1&#45;&gt;n8 -->
<g id="edge7" class="edge">
<title>n1&#45;&gt;n8</title>
<path fill="none" stroke="black" d="M1061.3,-245.62C1203.4,-223.62 1464.3,-183.22 1617,-159.58"/>
<polygon fill="black" stroke="black" points="1617.55,-163.04 1626.9,-158.05 1616.48,-156.12 1617.55,-163.04"/>
</g>
<!-- n9 -->
<g id="node9" class="node">
<title>n9</title>
<path fill="palegreen" stroke="black" d="M258,-36C258,-36 54,-36 54,-36 48,-36 42,-30 42,-24 42,-24 42,-12 42,-12 42,-6 48,0 54,0 54,0 258,0 258,0 264,0 270,-6 270,-12 270,-12 270,-24 270,-24 270,-30 264,-36 258,-36"/>
<text text-anchor="middle" x="156" y="-14.3" font-family="Arial" font-size="14.00">Understands fish anatomy labeling.</text>
</g>
<!-- n2&#45;&gt;n9 -->
<g id="edge8" class="edge">
<title>n2&#45;&gt;n9</title>
<path fill="none" stroke="black" d="M156,-121.81C156,-102.11 156,-69.58 156,-46.39"/>
<polygon fill="black" stroke="black" points="159.5,-46.16 156,-36.16 152.5,-46.16 159.5,-46.16"/>
</g>
<!-- n10 -->
<g id="node10" class="node">
<title>n10</title>
<path fill="palegreen" stroke="black" d="M857.5,-36C857.5,-36 564.5,-36 564.5,-36 558.5,-36 552.5,-30 552.5,-24 552.5,-24 552.5,-12 552.5,-12 552.5,-6 558.5,0 564.5,0 564.5,0 857.5,0 857.5,0 863.5,0 869.5,-6 869.5,-12 869.5,-12 869.5,-24 869.5,-24 869.5,-30 863.5,-36 857.5,-36"/>
<text text-anchor="middle" x="711" y="-14.3" font-family="Arial" font-size="14.00">Understands presence of other habitat organisms.</text>
</g>
<!-- n3&#45;&gt;n10 -->
<g id="edge9" class="edge">
<title>n3&#45;&gt;n10</title>
<path fill="none" stroke="black" d="M501.7,-121.93C545.24,-100.52 619.94,-63.78 667.32,-40.48"/>
<polygon fill="black" stroke="black" points="668.99,-43.56 676.42,-36.01 665.9,-37.28 668.99,-43.56"/>
</g>
<!-- n4&#45;&gt;n10 -->
<g id="edge10" class="edge">
<title>n4&#45;&gt;n10</title>
<path fill="none" stroke="black" d="M711,-121.81C711,-102.11 711,-69.58 711,-46.39"/>
<polygon fill="black" stroke="black" points="714.5,-46.16 711,-36.16 707.5,-46.16 714.5,-46.16"/>
</g>
<!-- n5&#45;&gt;n10 -->
<g id="edge11" class="edge">
<title>n5&#45;&gt;n10</title>
<path fill="none" stroke="black" d="M926.3,-121.93C881.42,-100.48 804.35,-63.63 755.62,-40.34"/>
<polygon fill="black" stroke="black" points="757.1,-37.16 746.57,-36.01 754.08,-43.48 757.1,-37.16"/>
</g>
<!-- n11 -->
<g id="node11" class="node">
<title>n11</title>
<path fill="palegreen" stroke="black" d="M1431,-36C1431,-36 1189,-36 1189,-36 1183,-36 1177,-30 1177,-24 1177,-24 1177,-12 1177,-12 1177,-6 1183,0 1189,0 1189,0 1431,0 1431,0 1437,0 1443,-6 1443,-12 1443,-12 1443,-24 1443,-24 1443,-30 1437,-36 1431,-36"/>
<text text-anchor="middle" x="1310" y="-14.3" font-family="Arial" font-size="14.00">Understands fish needs oxygen and food.</text>
</g>
<!-- n6&#45;&gt;n11 -->
<g id="edge12" class="edge">
<title>n6&#45;&gt;n11</title>
<path fill="none" stroke="black" d="M1231.2,-121.81C1246.8,-101.49 1272.8,-67.51 1290.7,-44.22"/>
<polygon fill="black" stroke="black" points="1293.55,-46.25 1296.8,-36.16 1287.97,-42.02 1293.55,-46.25"/>
</g>
<!-- n7&#45;&gt;n11 -->
<g id="edge13" class="edge">
<title>n7&#45;&gt;n11</title>
<path fill="none" stroke="black" d="M1444.5,-121.81C1417.2,-100.96 1371.1,-65.71 1340.6,-42.4"/>
<polygon fill="black" stroke="black" points="1342.56,-39.49 1332.5,-36.16 1338.29,-45.04 1342.56,-39.49"/>
</g>
<!-- n12 -->
<g id="node12" class="node">
<title>n12</title>
<path fill="palegreen" stroke="black" d="M1867.5,-36C1867.5,-36 1606.5,-36 1606.5,-36 1600.5,-36 1594.5,-30 1594.5,-24 1594.5,-24 1594.5,-12 1594.5,-12 1594.5,-6 1600.5,0 1606.5,0 1606.5,0 1867.5,0 1867.5,0 1873.5,0 1879.5,-6 1879.5,-12 1879.5,-12 1879.5,-24 1879.5,-24 1879.5,-30 1873.5,-36 1867.5,-36"/>
<text text-anchor="middle" x="1737" y="-14.3" font-family="Arial" font-size="14.00">Understands habitat as a system with layers.</text>
</g>
<!-- n8&#45;&gt;n12 -->
<g id="edge14" class="edge">
<title>n8&#45;&gt;n12</title>
<path fill="none" stroke="black" d="M1737,-121.81C1737,-102.11 1737,-69.58 1737,-46.39"/>
<polygon fill="black" stroke="black" points="1740.5,-46.16 1737,-36.16 1733.5,-46.16 1740.5,-46.16"/>
</g>
</g>
</svg>
