<?xml version="1.0" encoding="UTF-8" standalone="no"?>
<!DOCTYPE svg PUBLIC "-//W3C//DTD SVG 1.1//EN"
 "http://www.w3.org/Graphics/SVG/1.1/DTD/svg11.dtd">
<!-- Generated by graphviz version 2.43.0 (0)
 -->
<!-- Pages: 1 -->
<svg width="1310pt" height="410pt"
 viewBox="0.00 0.00 1310.00 410.00" xmlns="http://www.w3.org/2000/svg" xmlns:xlink="http://www.w3.org/1999/xlink">
<g id="graph0" class="graph" transform="scale(1 1) rotate(0) translate(4 406)">
<polygon fill="white" stroke="transparent" points="-4,4 -4,-406 1306,-406 1306,4 -4,4"/>
<!-- n1 -->
<g id="node1" class="node">
<title>n1</title>
<polygon fill="lightblue" stroke="black" points="808.5,-384 717.25,-402 534.75,-402 443.5,-384 534.75,-366 717.25,-366 808.5,-384"/>
<text text-anchor="middle" x="626" y="-380.3" font-family="Arial" font-size="14.00">Draw reversible changes (ice melting)</text>
</g>
<!-- n2 -->
<g id="node2" class="node">
<title>n2</title>
<polygon fill="#fffdd0" stroke="black" points="305.5,-280 66.5,-280 66.5,-244 305.5,-244 305.5,-280"/>
<text text-anchor="middle" x="186" y="-258.3" font-family="Arial" font-size="14.00">Solid ice depicted with defined edges</text>
</g>
<!-- n1&#45;&gt;n2 -->
<g id="edge1" class="edge">
<title>n1&#45;&gt;n2</title>
<path fill="none" stroke="black" d="M563.43,-365.93C482.86,-343.96 343.16,-305.86 258.19,-282.69"/>
<polygon fill="black" stroke="black" points="258.93,-279.26 248.36,-280.01 257.09,-286.02 258.93,-279.26"/>
</g>
<!-- n3 -->
<g id="node3" class="node">
<title>n3</title>
<polygon fill="#fffdd0" stroke="black" points="605,-280 385,-280 385,-244 605,-244 605,-280"/>
<text text-anchor="middle" x="495" y="-258.3" font-family="Arial" font-size="14.00">Melting shown with dripping water</text>
</g>
<!-- n1&#45;&gt;n3 -->
<g id="edge2" class="edge">
<title>n1&#45;&gt;n3</title>
<path fill="none" stroke="black" d="M607.23,-365.81C584.66,-345.13 546.65,-310.31 521.2,-287"/>
<polygon fill="black" stroke="black" points="523.47,-284.33 513.73,-280.16 518.74,-289.49 523.47,-284.33"/>
</g>
<!-- n4 -->
<g id="node4" class="node">
<title>n4</title>
<polygon fill="#fffdd0" stroke="black" points="902,-280 714,-280 714,-244 902,-244 902,-280"/>
<text text-anchor="middle" x="808" y="-258.3" font-family="Arial" font-size="14.00">Puddle of water (liquid state)</text>
</g>
<!-- n1&#45;&gt;n4 -->
<g id="edge3" class="edge">
<title>n1&#45;&gt;n4</title>
<path fill="none" stroke="black" d="M652.08,-365.81C683.97,-344.78 738.07,-309.11 773.42,-285.8"/>
<polygon fill="black" stroke="black" points="775.55,-288.59 781.97,-280.16 771.7,-282.74 775.55,-288.59"/>
</g>
<!-- n5 -->
<g id="node5" class="node">
<title>n5</title>
<polygon fill="#fffdd0" stroke="black" points="1244,-280 1032,-280 1032,-244 1244,-244 1244,-280"/>
<text text-anchor="middle" x="1138" y="-258.3" font-family="Arial" font-size="14.00">Water refreezing into ice crystals</text>
</g>
<!-- n1&#45;&gt;n5 -->
<g id="edge4" class="edge">
<title>n1&#45;&gt;n5</title>
<path fill="none" stroke="black" d="M698.54,-366C792.69,-343.93 956.58,-305.52 1055.4,-282.36"/>
<polygon fill="black" stroke="black" points="1056.46,-285.71 1065.4,-280.03 1054.87,-278.89 1056.46,-285.71"/>
</g>
<!-- n6 -->
<g id="node6" class="node">
<title>n6</title>
<path fill="palegreen" stroke="black" d="M266,-158C266,-158 12,-158 12,-158 6,-158 0,-152 0,-146 0,-146 0,-134 0,-134 0,-128 6,-122 12,-122 12,-122 266,-122 266,-122 272,-122 278,-128 278,-134 278,-134 278,-146 278,-146 278,-152 272,-158 266,-158"/>
<text text-anchor="middle" x="139" y="-136.3" font-family="Arial" font-size="14.00">Understands solid state (ice) before heating</text>
</g>
<!-- n2&#45;&gt;n6 -->
<g id="edge5" class="edge">
<title>n2&#45;&gt;n6</title>
<path fill="none" stroke="black" d="M179.27,-243.81C171.48,-223.94 158.58,-190.99 149.48,-167.76"/>
<polygon fill="black" stroke="black" points="152.63,-166.19 145.72,-158.16 146.11,-168.75 152.63,-166.19"/>
</g>
<!-- n7 -->
<g id="node7" class="node">
<title>n7</title>
<path fill="palegreen" stroke="black" d="M590,-158C590,-158 348,-158 348,-158 342,-158 336,-152 336,-146 336,-146 336,-134 336,-134 336,-128 342,-122 348,-122 348,-122 590,-122 590,-122 596,-122 602,-128 602,-134 602,-134 602,-146 602,-146 602,-152 596,-158 590,-158"/>
<text text-anchor="middle" x="469" y="-136.3" font-family="Arial" font-size="14.00">Understands melting process and heating</text>
</g>
<!-- n3&#45;&gt;n7 -->
<g id="edge6" class="edge">
<title>n3&#45;&gt;n7</title>
<path fill="none" stroke="black" d="M491.27,-243.81C486.99,-224.02 479.9,-191.29 474.87,-168.08"/>
<polygon fill="black" stroke="black" points="478.26,-167.19 472.72,-158.16 471.42,-168.67 478.26,-167.19"/>
</g>
<!-- n8 -->
<g id="node8" class="node">
<title>n8</title>
<polygon fill="lightcoral" stroke="black" points="834,-158 660.06,-140 834,-122 1007.94,-140 834,-158"/>
<text text-anchor="middle" x="834" y="-136.3" font-family="Arial" font-size="14.00">Misses &#39;liquid&#39; label for water</text>
</g>
<!-- n4&#45;&gt;n8 -->
<g id="edge7" class="edge">
<title>n4&#45;&gt;n8</title>
<path fill="none" stroke="black" d="M811.73,-243.81C816.04,-223.91 823.18,-190.92 828.22,-167.68"/>
<polygon fill="black" stroke="black" points="831.67,-168.28 830.37,-157.77 824.83,-166.8 831.67,-168.28"/>
</g>
<!-- n9 -->
<g id="node9" class="node">
<title>n9</title>
<path fill="palegreen" stroke="black" d="M1290,-158C1290,-158 1078,-158 1078,-158 1072,-158 1066,-152 1066,-146 1066,-146 1066,-134 1066,-134 1066,-128 1072,-122 1078,-122 1078,-122 1290,-122 1290,-122 1296,-122 1302,-128 1302,-134 1302,-134 1302,-146 1302,-146 1302,-152 1296,-158 1290,-158"/>
<text text-anchor="middle" x="1184" y="-136.3" font-family="Arial" font-size="14.00">Labels freezing and cooling correctly</text>
</g>
<!-- n5&#45;&gt;n9 -->
<g id="edge8" class="edge">
<title>n5&#45;&gt;n9</title>
<path fill="none" stroke="black" d="M1144.6,-243.81C1152.2,-223.94 1164.8,-190.99 1173.7,-167.76"/>
<polygon fill="black" stroke="black" points="1177.07,-168.75 1177.4,-158.16 1170.54,-166.23 1177.07,-168.75"/>
</g>
<!-- n10 -->
<g id="node10" class="node">
<title>n10</title>
<polygon fill="#f28e8e" stroke="black" points="942.5,-36 725.5,-36 725.5,0 942.5,0 942.5,-36"/>
<text text-anchor="middle" x="834" y="-14.3" font-family="Arial" font-size="14.00">Consider labeling water as &#39;liquid&#39;</text>
</g>
<!-- n8&#45;&gt;n10 -->
<g id="edge9" class="edge">
<title>n8&#45;&gt;n10</title>
<path fill="none" stroke="black" d="M834,-121.81C834,-102.11 834,-69.58 834,-46.39"/>
<polygon fill="black" stroke="black" points="837.5,-46.16 834,-36.16 830.5,-46.16 837.5,-46.16"/>
</g>
</g>
</svg>
