<?xml version="1.0" encoding="UTF-8" standalone="no"?>
<!DOCTYPE svg PUBLIC "-//W3C//DTD SVG 1.1//EN"
 "http://www.w3.org/Graphics/SVG/1.1/DTD/svg11.dtd">
<!-- Generated by graphviz version 2.43.0 (0)
 -->
<!-- Pages: 1 -->
<svg width="1221pt" height="410pt"
 viewBox="0.00 0.00 1220.50 410.00" xmlns="http://www.w3.org/2000/svg" xmlns:xlink="http://www.w3.org/1999/xlink">
<g id="graph0" class="graph" transform="scale(1 1) rotate(0) translate(4 406)">
<polygon fill="white" stroke="transparent" points="-4,4 -4,-406 1216.5,-406 1216.5,4 -4,4"/>
<!-- n1 -->
<g id="node1" class="node">
<title>n1</title>
<polygon fill="lightblue" stroke="black" points="776,-384 645.75,-402 385.25,-402 255,-384 385.25,-366 645.75,-366 776,-384"/>
<text text-anchor="middle" x="515.5" y="-380.3" font-family="Arial" font-size="14.00">Draw two habitats and the different living things in each</text>
</g>
<!-- n2 -->
<g id="node2" class="node">
<title>n2</title>
<polygon fill="#fffdd0" stroke="black" points="203,-280 0,-280 0,-244 203,-244 203,-280"/>
<text text-anchor="middle" x="101.5" y="-258.3" font-family="Arial" font-size="14.00">A green tree with a brown trunk</text>
</g>
<!-- n1&#45;&gt;n2 -->
<g id="edge1" class="edge">
<title>n1&#45;&gt;n2</title>
<path fill="none" stroke="black" d="M456.62,-365.93C381.05,-344.03 250.17,-306.09 170.15,-282.9"/>
<polygon fill="black" stroke="black" points="170.75,-279.43 160.17,-280.01 168.8,-286.15 170.75,-279.43"/>
</g>
<!-- n3 -->
<g id="node3" class="node">
<title>n3</title>
<polygon fill="#fffdd0" stroke="black" points="491.5,-280 261.5,-280 261.5,-244 491.5,-244 491.5,-280"/>
<text text-anchor="middle" x="376.5" y="-258.3" font-family="Arial" font-size="14.00">A small brown squirrel near the tree</text>
</g>
<!-- n1&#45;&gt;n3 -->
<g id="edge2" class="edge">
<title>n1&#45;&gt;n3</title>
<path fill="none" stroke="black" d="M495.58,-365.81C471.53,-345.04 430.96,-310.01 403.95,-286.7"/>
<polygon fill="black" stroke="black" points="406.24,-284.05 396.38,-280.16 401.66,-289.35 406.24,-284.05"/>
</g>
<!-- n4 -->
<g id="node4" class="node">
<title>n4</title>
<polygon fill="#fffdd0" stroke="black" points="761.5,-280 549.5,-280 549.5,-244 761.5,-244 761.5,-280"/>
<text text-anchor="middle" x="655.5" y="-258.3" font-family="Arial" font-size="14.00">Blue wavy water with a large fish</text>
</g>
<!-- n1&#45;&gt;n4 -->
<g id="edge3" class="edge">
<title>n1&#45;&gt;n4</title>
<path fill="none" stroke="black" d="M535.56,-365.81C559.78,-345.04 600.65,-310.01 627.85,-286.7"/>
<polygon fill="black" stroke="black" points="630.17,-289.33 635.48,-280.16 625.61,-284.01 630.17,-289.33"/>
</g>
<!-- n5 -->
<g id="node5" class="node">
<title>n5</title>
<polygon fill="#fffdd0" stroke="black" points="1075.5,-280 879.5,-280 879.5,-244 1075.5,-244 1075.5,-280"/>
<text text-anchor="middle" x="977.5" y="-258.3" font-family="Arial" font-size="14.00">Tree inclusion in both habitats</text>
</g>
<!-- n1&#45;&gt;n5 -->
<g id="edge4" class="edge">
<title>n1&#45;&gt;n5</title>
<path fill="none" stroke="black" d="M581.2,-365.93C665.96,-343.92 813.08,-305.71 902.25,-282.55"/>
<polygon fill="black" stroke="black" points="903.22,-285.91 912.02,-280.01 901.46,-279.14 903.22,-285.91"/>
</g>
<!-- n6 -->
<g id="node6" class="node">
<title>n6</title>
<path fill="palegreen" stroke="black" d="M358.5,-158C358.5,-158 62.5,-158 62.5,-158 56.5,-158 50.5,-152 50.5,-146 50.5,-146 50.5,-134 50.5,-134 50.5,-128 56.5,-122 62.5,-122 62.5,-122 358.5,-122 358.5,-122 364.5,-122 370.5,-128 370.5,-134 370.5,-134 370.5,-146 370.5,-146 370.5,-152 364.5,-158 358.5,-158"/>
<text text-anchor="middle" x="210.5" y="-136.3" font-family="Arial" font-size="14.00">Understanding land habitat with trees and squirrels</text>
</g>
<!-- n2&#45;&gt;n6 -->
<g id="edge5" class="edge">
<title>n2&#45;&gt;n6</title>
<path fill="none" stroke="black" d="M117.12,-243.81C135.73,-223.31 166.98,-188.91 188.15,-165.6"/>
<polygon fill="black" stroke="black" points="190.78,-167.91 194.91,-158.16 185.59,-163.21 190.78,-167.91"/>
</g>
<!-- n3&#45;&gt;n6 -->
<g id="edge6" class="edge">
<title>n3&#45;&gt;n6</title>
<path fill="none" stroke="black" d="M352.72,-243.81C323.75,-222.87 274.7,-187.41 242.46,-164.1"/>
<polygon fill="black" stroke="black" points="244.4,-161.18 234.24,-158.16 240.3,-166.85 244.4,-161.18"/>
</g>
<!-- n7 -->
<g id="node7" class="node">
<title>n7</title>
<path fill="palegreen" stroke="black" d="M732.5,-158C732.5,-158 518.5,-158 518.5,-158 512.5,-158 506.5,-152 506.5,-146 506.5,-146 506.5,-134 506.5,-134 506.5,-128 512.5,-122 518.5,-122 518.5,-122 732.5,-122 732.5,-122 738.5,-122 744.5,-128 744.5,-134 744.5,-134 744.5,-146 744.5,-146 744.5,-152 738.5,-158 732.5,-158"/>
<text text-anchor="middle" x="625.5" y="-136.3" font-family="Arial" font-size="14.00">Understanding water habitat with fish</text>
</g>
<!-- n4&#45;&gt;n7 -->
<g id="edge7" class="edge">
<title>n4&#45;&gt;n7</title>
<path fill="none" stroke="black" d="M651.2,-243.81C646.26,-224.02 638.07,-191.29 632.27,-168.08"/>
<polygon fill="black" stroke="black" points="635.61,-167.01 629.79,-158.16 628.82,-168.71 635.61,-167.01"/>
</g>
<!-- n8 -->
<g id="node8" class="node">
<title>n8</title>
<polygon fill="lightcoral" stroke="black" points="1007.5,-158 802.5,-140 1007.5,-122 1212.5,-140 1007.5,-158"/>
<text text-anchor="middle" x="1007.5" y="-136.3" font-family="Arial" font-size="14.00">Inconsistent habitat representation</text>
</g>
<!-- n5&#45;&gt;n8 -->
<g id="edge8" class="edge">
<title>n5&#45;&gt;n8</title>
<path fill="none" stroke="black" d="M981.8,-243.81C986.77,-223.91 995.02,-190.92 1000.8,-167.68"/>
<polygon fill="black" stroke="black" points="1004.25,-168.32 1003.3,-157.77 997.46,-166.61 1004.25,-168.32"/>
</g>
<!-- n9 -->
<g id="node9" class="node">
<title>n9</title>
<polygon fill="#f28e8e" stroke="black" points="1133,-36 882,-36 882,0 1133,0 1133,-36"/>
<text text-anchor="middle" x="1007.5" y="-14.3" font-family="Arial" font-size="14.00">Consider unique plants for each habitat</text>
</g>
<!-- n8&#45;&gt;n9 -->
<g id="edge9" class="edge">
<title>n8&#45;&gt;n9</title>
<path fill="none" stroke="black" d="M1007.5,-121.81C1007.5,-102.11 1007.5,-69.58 1007.5,-46.39"/>
<polygon fill="black" stroke="black" points="1011,-46.16 1007.5,-36.16 1004,-46.16 1011,-46.16"/>
</g>
</g>
</svg>
