<?xml version="1.0" encoding="UTF-8" standalone="no"?>
<!DOCTYPE svg PUBLIC "-//W3C//DTD SVG 1.1//EN"
 "http://www.w3.org/Graphics/SVG/1.1/DTD/svg11.dtd">
<!-- Generated by graphviz version 2.43.0 (0)
 -->
<!-- Pages: 1 -->
<svg width="1671pt" height="410pt"
 viewBox="0.00 0.00 1671.00 410.00" xmlns="http://www.w3.org/2000/svg" xmlns:xlink="http://www.w3.org/1999/xlink">
<g id="graph0" class="graph" transform="scale(1 1) rotate(0) translate(4 406)">
<polygon fill="white" stroke="transparent" points="-4,4 -4,-406 1667,-406 1667,4 -4,4"/>
<!-- n1 -->
<g id="node1" class="node">
<title>n1</title>
<polygon fill="lightblue" stroke="black" points="998,-384 834,-402 506,-402 342,-384 506,-366 834,-366 998,-384"/>
<text text-anchor="middle" x="670" y="-380.3" font-family="Arial" font-size="14.00">Draw reversible and irreversible changes (ice melting vs. egg cooking)</text>
</g>
<!-- n2 -->
<g id="node2" class="node">
<title>n2</title>
<polygon fill="#fffdd0" stroke="black" points="618,-280 298,-280 298,-244 618,-244 618,-280"/>
<text text-anchor="middle" x="458" y="-258.3" font-family="Arial" font-size="14.00">Blue square labeled &#39;Ice&#39; and water labeled &#39;Water&#39;</text>
</g>
<!-- n1&#45;&gt;n2 -->
<g id="edge1" class="edge">
<title>n1&#45;&gt;n2</title>
<path fill="none" stroke="black" d="M639.63,-365.81C602.16,-344.6 538.39,-308.5 497.24,-285.21"/>
<polygon fill="black" stroke="black" points="498.75,-282.04 488.32,-280.16 495.3,-288.13 498.75,-282.04"/>
</g>
<!-- n3 -->
<g id="node3" class="node">
<title>n3</title>
<polygon fill="#fffdd0" stroke="black" points="1089.5,-280 676.5,-280 676.5,-244 1089.5,-244 1089.5,-280"/>
<text text-anchor="middle" x="883" y="-258.3" font-family="Arial" font-size="14.00">Oval labeled &#39;Egg&#39; with wavy lines and brown oval indicating a pan</text>
</g>
<!-- n1&#45;&gt;n3 -->
<g id="edge2" class="edge">
<title>n1&#45;&gt;n3</title>
<path fill="none" stroke="black" d="M700.52,-365.81C738.16,-344.6 802.23,-308.5 843.57,-285.21"/>
<polygon fill="black" stroke="black" points="845.54,-288.12 852.54,-280.16 842.11,-282.02 845.54,-288.12"/>
</g>
<!-- n4 -->
<g id="node4" class="node">
<title>n4</title>
<path fill="palegreen" stroke="black" d="M224,-158C224,-158 12,-158 12,-158 6,-158 0,-152 0,-146 0,-146 0,-134 0,-134 0,-128 6,-122 12,-122 12,-122 224,-122 224,-122 230,-122 236,-128 236,-134 236,-134 236,-146 236,-146 236,-152 230,-158 224,-158"/>
<text text-anchor="middle" x="118" y="-136.3" font-family="Arial" font-size="14.00">Ice and water correctly show melting</text>
</g>
<!-- n2&#45;&gt;n4 -->
<g id="edge3" class="edge">
<title>n2&#45;&gt;n4</title>
<path fill="none" stroke="black" d="M409.65,-243.93C348.09,-222.21 241.84,-184.71 176,-161.47"/>
<polygon fill="black" stroke="black" points="176.78,-158.04 166.19,-158.01 174.46,-164.64 176.78,-158.04"/>
</g>
<!-- n5 -->
<g id="node5" class="node">
<title>n5</title>
<polygon fill="lightcoral" stroke="black" points="483,-158 293.5,-140 483,-122 672.5,-140 483,-158"/>
<text text-anchor="middle" x="483" y="-136.3" font-family="Arial" font-size="14.00">Reversible change not depicted</text>
</g>
<!-- n2&#45;&gt;n5 -->
<g id="edge4" class="edge">
<title>n2&#45;&gt;n5</title>
<path fill="none" stroke="black" d="M461.58,-243.81C465.73,-223.91 472.6,-190.92 477.44,-167.68"/>
<polygon fill="black" stroke="black" points="480.89,-168.27 479.51,-157.77 474.04,-166.84 480.89,-168.27"/>
</g>
<!-- n6 -->
<g id="node6" class="node">
<title>n6</title>
<path fill="palegreen" stroke="black" d="M973.5,-158C973.5,-158 742.5,-158 742.5,-158 736.5,-158 730.5,-152 730.5,-146 730.5,-146 730.5,-134 730.5,-134 730.5,-128 736.5,-122 742.5,-122 742.5,-122 973.5,-122 973.5,-122 979.5,-122 985.5,-128 985.5,-134 985.5,-134 985.5,-146 985.5,-146 985.5,-152 979.5,-158 973.5,-158"/>
<text text-anchor="middle" x="858" y="-136.3" font-family="Arial" font-size="14.00">Egg cooking implies irreversible change</text>
</g>
<!-- n3&#45;&gt;n6 -->
<g id="edge5" class="edge">
<title>n3&#45;&gt;n6</title>
<path fill="none" stroke="black" d="M879.42,-243.81C875.3,-224.02 868.48,-191.29 863.64,-168.08"/>
<polygon fill="black" stroke="black" points="867.04,-167.24 861.58,-158.16 860.19,-168.66 867.04,-167.24"/>
</g>
<!-- n7 -->
<g id="node7" class="node">
<title>n7</title>
<polygon fill="lightcoral" stroke="black" points="1353,-158 1043,-140 1353,-122 1663,-140 1353,-158"/>
<text text-anchor="middle" x="1353" y="-136.3" font-family="Arial" font-size="14.00">Misunderstanding reversible and irreversible changes</text>
</g>
<!-- n3&#45;&gt;n7 -->
<g id="edge6" class="edge">
<title>n3&#45;&gt;n7</title>
<path fill="none" stroke="black" d="M949.84,-243.93C1040.1,-220.89 1199.9,-180.1 1288.8,-157.4"/>
<polygon fill="black" stroke="black" points="1289.67,-160.79 1298.5,-154.93 1287.95,-154.01 1289.67,-160.79"/>
</g>
<!-- n8 -->
<g id="node8" class="node">
<title>n8</title>
<polygon fill="#f28e8e" stroke="black" points="1120.5,-36 715.5,-36 715.5,0 1120.5,0 1120.5,-36"/>
<text text-anchor="middle" x="918" y="-14.3" font-family="Arial" font-size="14.00">Use arrows or different panels to show transitions and label them</text>
</g>
<!-- n5&#45;&gt;n8 -->
<g id="edge7" class="edge">
<title>n5&#45;&gt;n8</title>
<path fill="none" stroke="black" d="M529.14,-126.27C605.01,-105.34 756.65,-63.51 846.51,-38.72"/>
<polygon fill="black" stroke="black" points="847.64,-42.04 856.35,-36.01 845.78,-35.29 847.64,-42.04"/>
</g>
<!-- n7&#45;&gt;n8 -->
<g id="edge8" class="edge">
<title>n7&#45;&gt;n8</title>
<path fill="none" stroke="black" d="M1301.8,-124.88C1224.5,-103.55 1077.7,-63.04 989.72,-38.78"/>
<polygon fill="black" stroke="black" points="990.39,-35.34 979.82,-36.05 988.53,-42.09 990.39,-35.34"/>
</g>
</g>
</svg>
