<?xml version="1.0" encoding="UTF-8" standalone="no"?>
<!DOCTYPE svg PUBLIC "-//W3C//DTD SVG 1.1//EN"
 "http://www.w3.org/Graphics/SVG/1.1/DTD/svg11.dtd">
<!-- Generated by graphviz version 2.43.0 (0)
 -->
<!-- Pages: 1 -->
<svg width="1527pt" height="410pt"
 viewBox="0.00 0.00 1527.00 410.00" xmlns="http://www.w3.org/2000/svg" xmlns:xlink="http://www.w3.org/1999/xlink">
<g id="graph0" class="graph" transform="scale(1 1) rotate(0) translate(4 406)">
<polygon fill="white" stroke="transparent" points="-4,4 -4,-406 1523,-406 1523,4 -4,4"/>
<!-- n1 -->
<g id="node1" class="node">
<title>n1</title>
<polygon fill="lightblue" stroke="black" points="1254.5,-384 1090.5,-402 762.5,-402 598.5,-384 762.5,-366 1090.5,-366 1254.5,-384"/>
<text text-anchor="middle" x="926.5" y="-380.3" font-family="Arial" font-size="14.00">Draw reversible and irreversible changes (ice melting vs. egg cooking)</text>
</g>
<!-- n2 -->
<g id="node2" class="node">
<title>n2</title>
<polygon fill="#fffdd0" stroke="black" points="905.5,-280 669.5,-280 669.5,-244 905.5,-244 905.5,-280"/>
<text text-anchor="middle" x="787.5" y="-258.3" font-family="Arial" font-size="14.00">Solid ice, liquid water, solid ice again</text>
</g>
<!-- n1&#45;&gt;n2 -->
<g id="edge1" class="edge">
<title>n1&#45;&gt;n2</title>
<path fill="none" stroke="black" d="M906.58,-365.81C882.53,-345.04 841.96,-310.01 814.95,-286.7"/>
<polygon fill="black" stroke="black" points="817.24,-284.05 807.38,-280.16 812.66,-289.35 817.24,-284.05"/>
</g>
<!-- n3 -->
<g id="node3" class="node">
<title>n3</title>
<polygon fill="#fffdd0" stroke="black" points="1318,-280 1113,-280 1113,-244 1318,-244 1318,-280"/>
<text text-anchor="middle" x="1215.5" y="-258.3" font-family="Arial" font-size="14.00">Raw egg, cracking, cooked egg</text>
</g>
<!-- n1&#45;&gt;n3 -->
<g id="edge2" class="edge">
<title>n1&#45;&gt;n3</title>
<path fill="none" stroke="black" d="M967.6,-365.93C1019.6,-344.34 1109.1,-307.17 1165.2,-283.9"/>
<polygon fill="black" stroke="black" points="1166.63,-287.1 1174.5,-280.01 1163.92,-280.64 1166.63,-287.1"/>
</g>
<!-- n4 -->
<g id="node4" class="node">
<title>n4</title>
<path fill="palegreen" stroke="black" d="M353,-158C353,-158 12,-158 12,-158 6,-158 0,-152 0,-146 0,-146 0,-134 0,-134 0,-128 6,-122 12,-122 12,-122 353,-122 353,-122 359,-122 365,-128 365,-134 365,-134 365,-146 365,-146 365,-152 359,-158 353,-158"/>
<text text-anchor="middle" x="182.5" y="-136.3" font-family="Arial" font-size="14.00">Understanding that ice melting and refreezing is reversible</text>
</g>
<!-- n2&#45;&gt;n4 -->
<g id="edge3" class="edge">
<title>n2&#45;&gt;n4</title>
<path fill="none" stroke="black" d="M701.78,-244C589.97,-221.82 394.92,-183.13 278.33,-160.01"/>
<polygon fill="black" stroke="black" points="278.83,-156.54 268.34,-158.03 277.47,-163.41 278.83,-156.54"/>
</g>
<!-- n6 -->
<g id="node5" class="node">
<title>n6</title>
<polygon fill="lightcoral" stroke="black" points="787.5,-158 422.5,-140 787.5,-122 1152.5,-140 787.5,-158"/>
<text text-anchor="middle" x="787.5" y="-136.3" font-family="Arial" font-size="14.00">Potential confusion between stages, ensure clarity of transitions</text>
</g>
<!-- n2&#45;&gt;n6 -->
<g id="edge4" class="edge">
<title>n2&#45;&gt;n6</title>
<path fill="none" stroke="black" d="M787.5,-243.81C787.5,-224.11 787.5,-191.58 787.5,-168.39"/>
<polygon fill="black" stroke="black" points="791,-168.16 787.5,-158.16 784,-168.16 791,-168.16"/>
</g>
<!-- n5 -->
<g id="node6" class="node">
<title>n5</title>
<path fill="palegreen" stroke="black" d="M1507,-158C1507,-158 1222,-158 1222,-158 1216,-158 1210,-152 1210,-146 1210,-146 1210,-134 1210,-134 1210,-128 1216,-122 1222,-122 1222,-122 1507,-122 1507,-122 1513,-122 1519,-128 1519,-134 1519,-134 1519,-146 1519,-146 1519,-152 1513,-158 1507,-158"/>
<text text-anchor="middle" x="1364.5" y="-136.3" font-family="Arial" font-size="14.00">Understanding that cooking an egg is irreversible</text>
</g>
<!-- n3&#45;&gt;n5 -->
<g id="edge5" class="edge">
<title>n3&#45;&gt;n5</title>
<path fill="none" stroke="black" d="M1236.8,-243.81C1262.6,-223.04 1306.1,-188.01 1335.1,-164.7"/>
<polygon fill="black" stroke="black" points="1337.62,-167.17 1343.2,-158.16 1333.22,-161.72 1337.62,-167.17"/>
</g>
<!-- n7 -->
<g id="node7" class="node">
<title>n7</title>
<polygon fill="#f28e8e" stroke="black" points="948,-36 627,-36 627,0 948,0 948,-36"/>
<text text-anchor="middle" x="787.5" y="-14.3" font-family="Arial" font-size="14.00">Clarify stages with additional arrows or annotations</text>
</g>
<!-- n6&#45;&gt;n7 -->
<g id="edge6" class="edge">
<title>n6&#45;&gt;n7</title>
<path fill="none" stroke="black" d="M787.5,-121.81C787.5,-102.11 787.5,-69.58 787.5,-46.39"/>
<polygon fill="black" stroke="black" points="791,-46.16 787.5,-36.16 784,-46.16 791,-46.16"/>
</g>
</g>
</svg>
