<?xml version="1.0" encoding="UTF-8" standalone="no"?>
<!DOCTYPE svg PUBLIC "-//W3C//DTD SVG 1.1//EN"
 "http://www.w3.org/Graphics/SVG/1.1/DTD/svg11.dtd">
<!-- Generated by graphviz version 2.43.0 (0)
 -->
<!-- Pages: 1 -->
<svg width="3486pt" height="288pt"
 viewBox="0.00 0.00 3486.00 288.00" xmlns="http://www.w3.org/2000/svg" xmlns:xlink="http://www.w3.org/1999/xlink">
<g id="graph0" class="graph" transform="scale(1 1) rotate(0) translate(4 284)">
<polygon fill="white" stroke="transparent" points="-4,4 -4,-284 3482,-284 3482,4 -4,4"/>
<!-- n1 -->
<g id="node1" class="node">
<title>n1</title>
<polygon fill="lightblue" stroke="black" points="1895.32,-262 1772.91,-280 1528.09,-280 1405.68,-262 1528.09,-244 1772.91,-244 1895.32,-262"/>
<text text-anchor="middle" x="1650.5" y="-258.3" font-family="Arial" font-size="14.00">Draw a habitat and the different living things in each</text>
</g>
<!-- n2 -->
<g id="node2" class="node">
<title>n2</title>
<polygon fill="#fffdd0" stroke="black" points="561,-158 380,-158 380,-122 561,-122 561,-158"/>
<text text-anchor="middle" x="470.5" y="-136.3" font-family="Arial" font-size="14.00">Green land area with a tree</text>
</g>
<!-- n1&#45;&gt;n2 -->
<g id="edge1" class="edge">
<title>n1&#45;&gt;n2</title>
<path fill="none" stroke="black" d="M1509.6,-246.67C1268.4,-222.14 781.91,-172.67 571.39,-151.26"/>
<polygon fill="black" stroke="black" points="571.57,-147.76 561.27,-150.23 570.86,-154.72 571.57,-147.76"/>
</g>
<!-- n3 -->
<g id="node3" class="node">
<title>n3</title>
<polygon fill="#fffdd0" stroke="black" points="1102,-158 965,-158 965,-122 1102,-122 1102,-158"/>
<text text-anchor="middle" x="1033.5" y="-136.3" font-family="Arial" font-size="14.00">Three identical lions</text>
</g>
<!-- n1&#45;&gt;n3 -->
<g id="edge2" class="edge">
<title>n1&#45;&gt;n3</title>
<path fill="none" stroke="black" d="M1563.1,-244C1442.8,-220.6 1227.9,-178.81 1112.3,-156.32"/>
<polygon fill="black" stroke="black" points="1112.88,-152.87 1102.4,-154.41 1111.56,-159.74 1112.88,-152.87"/>
</g>
<!-- n4 -->
<g id="node4" class="node">
<title>n4</title>
<polygon fill="#fffdd0" stroke="black" points="1535.5,-158 1329.5,-158 1329.5,-122 1535.5,-122 1535.5,-158"/>
<text text-anchor="middle" x="1432.5" y="-136.3" font-family="Arial" font-size="14.00">Wavy blue lines depicting water</text>
</g>
<!-- n1&#45;&gt;n4 -->
<g id="edge3" class="edge">
<title>n1&#45;&gt;n4</title>
<path fill="none" stroke="black" d="M1619.3,-243.81C1580.7,-222.55 1514.9,-186.35 1472.6,-163.07"/>
<polygon fill="black" stroke="black" points="1474.15,-159.93 1463.7,-158.16 1470.77,-166.06 1474.15,-159.93"/>
</g>
<!-- n5 -->
<g id="node5" class="node">
<title>n5</title>
<polygon fill="#fffdd0" stroke="black" points="1852,-158 1691,-158 1691,-122 1852,-122 1852,-158"/>
<text text-anchor="middle" x="1771.5" y="-136.3" font-family="Arial" font-size="14.00">Fish on land next to tree</text>
</g>
<!-- n1&#45;&gt;n5 -->
<g id="edge4" class="edge">
<title>n1&#45;&gt;n5</title>
<path fill="none" stroke="black" d="M1667.8,-243.81C1688.6,-223.22 1723.5,-188.61 1747,-165.3"/>
<polygon fill="black" stroke="black" points="1749.56,-167.69 1754.2,-158.16 1744.63,-162.72 1749.56,-167.69"/>
</g>
<!-- n6 -->
<g id="node6" class="node">
<title>n6</title>
<polygon fill="#fffdd0" stroke="black" points="2326.5,-158 2220.5,-158 2220.5,-122 2326.5,-122 2326.5,-158"/>
<text text-anchor="middle" x="2273.5" y="-136.3" font-family="Arial" font-size="14.00">A crab in water</text>
</g>
<!-- n1&#45;&gt;n6 -->
<g id="edge5" class="edge">
<title>n1&#45;&gt;n6</title>
<path fill="none" stroke="black" d="M1738.8,-244C1866.2,-219.45 2098.7,-174.68 2210.3,-153.17"/>
<polygon fill="black" stroke="black" points="2211.24,-156.55 2220.4,-151.22 2209.92,-149.68 2211.24,-156.55"/>
</g>
<!-- n7 -->
<g id="node7" class="node">
<title>n7</title>
<polygon fill="#fffdd0" stroke="black" points="2996.5,-158 2888.5,-158 2888.5,-122 2996.5,-122 2996.5,-158"/>
<text text-anchor="middle" x="2942.5" y="-136.3" font-family="Arial" font-size="14.00">Flower in water</text>
</g>
<!-- n1&#45;&gt;n7 -->
<g id="edge6" class="edge">
<title>n1&#45;&gt;n7</title>
<path fill="none" stroke="black" d="M1796.5,-247.44C2076.7,-221.41 2679.8,-165.4 2878,-146.99"/>
<polygon fill="black" stroke="black" points="2878.57,-150.45 2888.2,-146.04 2877.92,-143.48 2878.57,-150.45"/>
</g>
<!-- n8 -->
<g id="node8" class="node">
<title>n8</title>
<path fill="palegreen" stroke="black" d="M235,-36C235,-36 12,-36 12,-36 6,-36 0,-30 0,-24 0,-24 0,-12 0,-12 0,-6 6,0 12,0 12,0 235,0 235,0 241,0 247,-6 247,-12 247,-12 247,-24 247,-24 247,-30 241,-36 235,-36"/>
<text text-anchor="middle" x="123.5" y="-14.3" font-family="Arial" font-size="14.00">Colorful drawing showing basic habitat</text>
</g>
<!-- n2&#45;&gt;n8 -->
<g id="edge7" class="edge">
<title>n2&#45;&gt;n8</title>
<path fill="none" stroke="black" d="M421.15,-121.93C358.2,-100.16 249.45,-62.56 182.28,-39.33"/>
<polygon fill="black" stroke="black" points="183.27,-35.97 172.68,-36.01 180.99,-42.58 183.27,-35.97"/>
</g>
<!-- n9 -->
<g id="node9" class="node">
<title>n9</title>
<polygon fill="lightcoral" stroke="black" points="568.5,-36 304.5,-18 568.5,0 832.5,-18 568.5,-36"/>
<text text-anchor="middle" x="568.5" y="-14.3" font-family="Arial" font-size="14.00">Repetitive use of lions shows lack of diversity</text>
</g>
<!-- n3&#45;&gt;n9 -->
<g id="edge8" class="edge">
<title>n3&#45;&gt;n9</title>
<path fill="none" stroke="black" d="M967.37,-121.93C877.56,-98.76 718.19,-57.63 630.54,-35.01"/>
<polygon fill="black" stroke="black" points="631.3,-31.59 620.74,-32.48 629.55,-38.37 631.3,-31.59"/>
</g>
<!-- n14 -->
<g id="node10" class="node">
<title>n14</title>
<polygon fill="#f28e8e" stroke="black" points="1177,-36 890,-36 890,0 1177,0 1177,-36"/>
<text text-anchor="middle" x="1033.5" y="-14.3" font-family="Arial" font-size="14.00">Consider adding a higher diversity of animals</text>
</g>
<!-- n3&#45;&gt;n14 -->
<g id="edge9" class="edge">
<title>n3&#45;&gt;n14</title>
<path fill="none" stroke="black" d="M1033.5,-121.81C1033.5,-102.11 1033.5,-69.58 1033.5,-46.39"/>
<polygon fill="black" stroke="black" points="1037,-46.16 1033.5,-36.16 1030,-46.16 1037,-46.16"/>
</g>
<!-- n10 -->
<g id="node11" class="node">
<title>n10</title>
<path fill="palegreen" stroke="black" d="M1423.5,-36C1423.5,-36 1247.5,-36 1247.5,-36 1241.5,-36 1235.5,-30 1235.5,-24 1235.5,-24 1235.5,-12 1235.5,-12 1235.5,-6 1241.5,0 1247.5,0 1247.5,0 1423.5,0 1423.5,0 1429.5,0 1435.5,-6 1435.5,-12 1435.5,-12 1435.5,-24 1435.5,-24 1435.5,-30 1429.5,-36 1423.5,-36"/>
<text text-anchor="middle" x="1335.5" y="-14.3" font-family="Arial" font-size="14.00">Water and land areas depicted</text>
</g>
<!-- n4&#45;&gt;n10 -->
<g id="edge10" class="edge">
<title>n4&#45;&gt;n10</title>
<path fill="none" stroke="black" d="M1418.6,-121.81C1402.2,-101.49 1374.7,-67.51 1355.9,-44.22"/>
<polygon fill="black" stroke="black" points="1358.4,-41.74 1349.4,-36.16 1352.96,-46.14 1358.4,-41.74"/>
</g>
<!-- n11 -->
<g id="node12" class="node">
<title>n11</title>
<polygon fill="lightcoral" stroke="black" points="1771.5,-36 1493.83,-18 1771.5,0 2049.17,-18 1771.5,-36"/>
<text text-anchor="middle" x="1771.5" y="-14.3" font-family="Arial" font-size="14.00">Misplaced fish on land; shows habitat confusion</text>
</g>
<!-- n5&#45;&gt;n11 -->
<g id="edge11" class="edge">
<title>n5&#45;&gt;n11</title>
<path fill="none" stroke="black" d="M1771.5,-121.81C1771.5,-102.11 1771.5,-69.58 1771.5,-46.39"/>
<polygon fill="black" stroke="black" points="1775,-46.16 1771.5,-36.16 1768,-46.16 1775,-46.16"/>
</g>
<!-- n15 -->
<g id="node13" class="node">
<title>n15</title>
<polygon fill="#f28e8e" stroke="black" points="2412,-36 2107,-36 2107,0 2412,0 2412,-36"/>
<text text-anchor="middle" x="2259.5" y="-14.3" font-family="Arial" font-size="14.00">Ensure animals match their appropriate habitats</text>
</g>
<!-- n5&#45;&gt;n15 -->
<g id="edge12" class="edge">
<title>n5&#45;&gt;n15</title>
<path fill="none" stroke="black" d="M1840.6,-122C1930.3,-99.95 2086.3,-61.6 2180.5,-38.43"/>
<polygon fill="black" stroke="black" points="2181.42,-41.81 2190.3,-36.03 2179.75,-35.01 2181.42,-41.81"/>
</g>
<!-- n12 -->
<g id="node14" class="node">
<title>n12</title>
<path fill="palegreen" stroke="black" d="M2682.5,-36C2682.5,-36 2482.5,-36 2482.5,-36 2476.5,-36 2470.5,-30 2470.5,-24 2470.5,-24 2470.5,-12 2470.5,-12 2470.5,-6 2476.5,0 2482.5,0 2482.5,0 2682.5,0 2682.5,0 2688.5,0 2694.5,-6 2694.5,-12 2694.5,-12 2694.5,-24 2694.5,-24 2694.5,-30 2688.5,-36 2682.5,-36"/>
<text text-anchor="middle" x="2582.5" y="-14.3" font-family="Arial" font-size="14.00">Correct placement of crab in water</text>
</g>
<!-- n6&#45;&gt;n12 -->
<g id="edge13" class="edge">
<title>n6&#45;&gt;n12</title>
<path fill="none" stroke="black" d="M2317.4,-121.93C2373.2,-100.3 2469.2,-63.02 2529.1,-39.76"/>
<polygon fill="black" stroke="black" points="2530.66,-42.9 2538.7,-36.01 2528.11,-36.38 2530.66,-42.9"/>
</g>
<!-- n13 -->
<g id="node15" class="node">
<title>n13</title>
<polygon fill="lightcoral" stroke="black" points="2942.5,-36 2752,-18 2942.5,0 3133,-18 2942.5,-36"/>
<text text-anchor="middle" x="2942.5" y="-14.3" font-family="Arial" font-size="14.00">Misplacement of flower in water</text>
</g>
<!-- n7&#45;&gt;n13 -->
<g id="edge14" class="edge">
<title>n7&#45;&gt;n13</title>
<path fill="none" stroke="black" d="M2942.5,-121.81C2942.5,-102.11 2942.5,-69.58 2942.5,-46.39"/>
<polygon fill="black" stroke="black" points="2946,-46.16 2942.5,-36.16 2939,-46.16 2946,-46.16"/>
</g>
<!-- n16 -->
<g id="node16" class="node">
<title>n16</title>
<polygon fill="#f28e8e" stroke="black" points="3478,-36 3191,-36 3191,0 3478,0 3478,-36"/>
<text text-anchor="middle" x="3334.5" y="-14.3" font-family="Arial" font-size="14.00">Learn about land and water plants placement</text>
</g>
<!-- n7&#45;&gt;n16 -->
<g id="edge15" class="edge">
<title>n7&#45;&gt;n16</title>
<path fill="none" stroke="black" d="M2996.6,-122.44C3067.7,-100.69 3192.3,-62.52 3268.8,-39.13"/>
<polygon fill="black" stroke="black" points="3270.18,-42.36 3278.7,-36.07 3268.11,-35.68 3270.18,-42.36"/>
</g>
</g>
</svg>
