<?xml version="1.0" encoding="UTF-8" standalone="no"?>
<!DOCTYPE svg PUBLIC "-//W3C//DTD SVG 1.1//EN"
 "http://www.w3.org/Graphics/SVG/1.1/DTD/svg11.dtd">
<!-- Generated by graphviz version 2.43.0 (0)
 -->
<!-- Pages: 1 -->
<svg width="1032pt" height="532pt"
 viewBox="0.00 0.00 1031.50 532.00" xmlns="http://www.w3.org/2000/svg" xmlns:xlink="http://www.w3.org/1999/xlink">
<g id="graph0" class="graph" transform="scale(1 1) rotate(0) translate(4 528)">
<polygon fill="white" stroke="transparent" points="-4,4 -4,-528 1027.5,-528 1027.5,4 -4,4"/>
<!-- n1 -->
<g id="node1" class="node">
<title>n1</title>
<polygon fill="lightblue" stroke="black" points="669,-506 577,-524 393,-524 301,-506 393,-488 577,-488 669,-506"/>
<text text-anchor="middle" x="485" y="-502.3" font-family="Arial" font-size="14.00">Illustrate plants with and without water</text>
</g>
<!-- n2 -->
<g id="node2" class="node">
<title>n2</title>
<polygon fill="#fffdd0" stroke="black" points="564,-402 406,-402 406,-366 564,-366 564,-402"/>
<text text-anchor="middle" x="485" y="-380.3" font-family="Arial" font-size="14.00">Two side&#45;by&#45;side plants</text>
</g>
<!-- n1&#45;&gt;n2 -->
<g id="edge1" class="edge">
<title>n1&#45;&gt;n2</title>
<path fill="none" stroke="black" d="M485,-487.81C485,-468.11 485,-435.58 485,-412.39"/>
<polygon fill="black" stroke="black" points="488.5,-412.16 485,-402.16 481.5,-412.16 488.5,-412.16"/>
</g>
<!-- n3 -->
<g id="node3" class="node">
<title>n3</title>
<polygon fill="#fffdd0" stroke="black" points="344,-402 0,-402 0,-366 344,-366 344,-402"/>
<text text-anchor="middle" x="172" y="-380.3" font-family="Arial" font-size="14.00">Healthy plant with bright green leaves and small flower</text>
</g>
<!-- n1&#45;&gt;n3 -->
<g id="edge2" class="edge">
<title>n1&#45;&gt;n3</title>
<path fill="none" stroke="black" d="M440.49,-487.93C383.93,-466.25 286.41,-428.86 225.76,-405.61"/>
<polygon fill="black" stroke="black" points="226.95,-402.32 216.36,-402.01 224.45,-408.86 226.95,-402.32"/>
</g>
<!-- n4 -->
<g id="node4" class="node">
<title>n4</title>
<polygon fill="#fffdd0" stroke="black" points="1023.5,-402 622.5,-402 622.5,-366 1023.5,-366 1023.5,-402"/>
<text text-anchor="middle" x="823" y="-380.3" font-family="Arial" font-size="14.00">Thirsty plant with brown&#45;edged, wilted leaves and drooping stem</text>
</g>
<!-- n1&#45;&gt;n4 -->
<g id="edge3" class="edge">
<title>n1&#45;&gt;n4</title>
<path fill="none" stroke="black" d="M533.07,-487.93C594.26,-466.21 699.88,-428.71 765.35,-405.47"/>
<polygon fill="black" stroke="black" points="766.85,-408.65 775.1,-402.01 764.51,-402.06 766.85,-408.65"/>
</g>
<!-- n5 -->
<g id="node5" class="node">
<title>n5</title>
<path fill="palegreen" stroke="black" d="M324,-280C324,-280 12,-280 12,-280 6,-280 0,-274 0,-268 0,-268 0,-256 0,-256 0,-250 6,-244 12,-244 12,-244 324,-244 324,-244 330,-244 336,-250 336,-256 336,-256 336,-268 336,-268 336,-274 330,-280 324,-280"/>
<text text-anchor="middle" x="168" y="-258.3" font-family="Arial" font-size="14.00">Student can illustrate healthy plant with enough water</text>
</g>
<!-- n2&#45;&gt;n5 -->
<g id="edge4" class="edge">
<title>n2&#45;&gt;n5</title>
<path fill="none" stroke="black" d="M439.92,-365.93C382.64,-344.25 283.87,-306.86 222.45,-283.61"/>
<polygon fill="black" stroke="black" points="223.52,-280.27 212.93,-280.01 221.05,-286.82 223.52,-280.27"/>
</g>
<!-- n6 -->
<g id="node6" class="node">
<title>n6</title>
<path fill="palegreen" stroke="black" d="M940,-280C940,-280 706,-280 706,-280 700,-280 694,-274 694,-268 694,-268 694,-256 694,-256 694,-250 700,-244 706,-244 706,-244 940,-244 940,-244 946,-244 952,-250 952,-256 952,-256 952,-268 952,-268 952,-274 946,-280 940,-280"/>
<text text-anchor="middle" x="823" y="-258.3" font-family="Arial" font-size="14.00">Student can illustrate plant lacking water</text>
</g>
<!-- n2&#45;&gt;n6 -->
<g id="edge5" class="edge">
<title>n2&#45;&gt;n6</title>
<path fill="none" stroke="black" d="M533.07,-365.93C594.26,-344.21 699.88,-306.71 765.35,-283.47"/>
<polygon fill="black" stroke="black" points="766.85,-286.65 775.1,-280.01 764.51,-280.06 766.85,-286.65"/>
</g>
<!-- n7 -->
<g id="node7" class="node">
<title>n7</title>
<path fill="palegreen" stroke="black" d="M624,-280C624,-280 406,-280 406,-280 400,-280 394,-274 394,-268 394,-268 394,-256 394,-256 394,-250 400,-244 406,-244 406,-244 624,-244 624,-244 630,-244 636,-250 636,-256 636,-256 636,-268 636,-268 636,-274 630,-280 624,-280"/>
<text text-anchor="middle" x="515" y="-258.3" font-family="Arial" font-size="14.00">Comparison of healthy vs thirsty plant</text>
</g>
<!-- n2&#45;&gt;n7 -->
<g id="edge6" class="edge">
<title>n2&#45;&gt;n7</title>
<path fill="none" stroke="black" d="M489.3,-365.81C494.24,-346.02 502.43,-313.29 508.23,-290.08"/>
<polygon fill="black" stroke="black" points="511.68,-290.71 510.71,-280.16 504.89,-289.01 511.68,-290.71"/>
</g>
<!-- n3&#45;&gt;n5 -->
<g id="edge7" class="edge">
<title>n3&#45;&gt;n5</title>
<path fill="none" stroke="black" d="M171.43,-365.81C170.77,-346.11 169.69,-313.58 168.91,-290.39"/>
<polygon fill="black" stroke="black" points="172.4,-290.04 168.57,-280.16 165.4,-290.27 172.4,-290.04"/>
</g>
<!-- n4&#45;&gt;n6 -->
<g id="edge8" class="edge">
<title>n4&#45;&gt;n6</title>
<path fill="none" stroke="black" d="M823,-365.81C823,-346.11 823,-313.58 823,-290.39"/>
<polygon fill="black" stroke="black" points="826.5,-290.16 823,-280.16 819.5,-290.16 826.5,-290.16"/>
</g>
<!-- n8 -->
<g id="node8" class="node">
<title>n8</title>
<polygon fill="lightcoral" stroke="black" points="495,-158 264.08,-140 495,-122 725.92,-140 495,-158"/>
<text text-anchor="middle" x="495" y="-136.3" font-family="Arial" font-size="14.00">No illustration of roots or growth stages</text>
</g>
<!-- n5&#45;&gt;n8 -->
<g id="edge9" class="edge">
<title>n5&#45;&gt;n8</title>
<path fill="none" stroke="black" d="M214.5,-243.93C276.1,-221.33 384.21,-181.66 446.69,-158.73"/>
<polygon fill="black" stroke="black" points="448.14,-161.93 456.32,-155.2 445.73,-155.36 448.14,-161.93"/>
</g>
<!-- n6&#45;&gt;n8 -->
<g id="edge10" class="edge">
<title>n6&#45;&gt;n8</title>
<path fill="none" stroke="black" d="M776.35,-243.93C714.4,-221.27 605.54,-181.44 542.94,-158.54"/>
<polygon fill="black" stroke="black" points="543.9,-155.17 533.31,-155.02 541.5,-161.74 543.9,-155.17"/>
</g>
<!-- n9 -->
<g id="node9" class="node">
<title>n9</title>
<polygon fill="#f28e8e" stroke="black" points="635.5,-36 354.5,-36 354.5,0 635.5,0 635.5,-36"/>
<text text-anchor="middle" x="495" y="-14.3" font-family="Arial" font-size="14.00">Include labels for roots and stages of growth</text>
</g>
<!-- n8&#45;&gt;n9 -->
<g id="edge11" class="edge">
<title>n8&#45;&gt;n9</title>
<path fill="none" stroke="black" d="M495,-121.81C495,-102.11 495,-69.58 495,-46.39"/>
<polygon fill="black" stroke="black" points="498.5,-46.16 495,-36.16 491.5,-46.16 498.5,-46.16"/>
</g>
</g>
</svg>
