<?xml version="1.0" encoding="UTF-8" standalone="no"?>
<!DOCTYPE svg PUBLIC "-//W3C//DTD SVG 1.1//EN"
 "http://www.w3.org/Graphics/SVG/1.1/DTD/svg11.dtd">
<!-- Generated by graphviz version 2.43.0 (0)
 -->
<!-- Pages: 1 -->
<svg width="2159pt" height="410pt"
 viewBox="0.00 0.00 2158.58 410.00" xmlns="http://www.w3.org/2000/svg" xmlns:xlink="http://www.w3.org/1999/xlink">
<g id="graph0" class="graph" transform="scale(1 1) rotate(0) translate(4 406)">
<polygon fill="white" stroke="transparent" points="-4,4 -4,-406 2154.58,-406 2154.58,4 -4,4"/>
<!-- n1 -->
<g id="node1" class="node">
<title>n1</title>
<polygon fill="lightblue" stroke="black" points="1204.5,-384 1094.5,-402 874.5,-402 764.5,-384 874.5,-366 1094.5,-366 1204.5,-384"/>
<text text-anchor="middle" x="984.5" y="-380.3" font-family="Arial" font-size="14.00">Draw a string telephone between two students</text>
</g>
<!-- n2 -->
<g id="node2" class="node">
<title>n2</title>
<polygon fill="#fffdd0" stroke="black" points="352.5,-280 120.5,-280 120.5,-244 352.5,-244 352.5,-280"/>
<text text-anchor="middle" x="236.5" y="-258.3" font-family="Arial" font-size="14.00">Two students using string telephone</text>
</g>
<!-- n1&#45;&gt;n2 -->
<g id="edge1" class="edge">
<title>n1&#45;&gt;n2</title>
<path fill="none" stroke="black" d="M878.52,-366C739.59,-343.71 496.7,-304.74 352.82,-281.66"/>
<polygon fill="black" stroke="black" points="353.06,-278.15 342.63,-280.03 351.95,-285.07 353.06,-278.15"/>
</g>
<!-- n3 -->
<g id="node3" class="node">
<title>n3</title>
<polygon fill="#fffdd0" stroke="black" points="662.5,-280 450.5,-280 450.5,-244 662.5,-244 662.5,-280"/>
<text text-anchor="middle" x="556.5" y="-258.3" font-family="Arial" font-size="14.00">Student speaking into a blue cup</text>
</g>
<!-- n1&#45;&gt;n3 -->
<g id="edge2" class="edge">
<title>n1&#45;&gt;n3</title>
<path fill="none" stroke="black" d="M923.63,-365.93C845.35,-343.99 709.65,-305.94 626.97,-282.76"/>
<polygon fill="black" stroke="black" points="627.73,-279.34 617.16,-280.01 625.84,-286.08 627.73,-279.34"/>
</g>
<!-- n4 -->
<g id="node4" class="node">
<title>n4</title>
<polygon fill="#fffdd0" stroke="black" points="964.5,-280 736.5,-280 736.5,-244 964.5,-244 964.5,-280"/>
<text text-anchor="middle" x="850.5" y="-258.3" font-family="Arial" font-size="14.00">Student listening from a similar cup</text>
</g>
<!-- n1&#45;&gt;n4 -->
<g id="edge3" class="edge">
<title>n1&#45;&gt;n4</title>
<path fill="none" stroke="black" d="M965.3,-365.81C942.22,-345.13 903.33,-310.31 877.3,-287"/>
<polygon fill="black" stroke="black" points="879.44,-284.22 869.66,-280.16 874.78,-289.44 879.44,-284.22"/>
</g>
<!-- n5 -->
<g id="node5" class="node">
<title>n5</title>
<polygon fill="#fffdd0" stroke="black" points="1214,-280 1023,-280 1023,-244 1214,-244 1214,-280"/>
<text text-anchor="middle" x="1118.5" y="-258.3" font-family="Arial" font-size="14.00">Red string connects the cups</text>
</g>
<!-- n1&#45;&gt;n5 -->
<g id="edge4" class="edge">
<title>n1&#45;&gt;n5</title>
<path fill="none" stroke="black" d="M1003.7,-365.81C1026.8,-345.13 1065.7,-310.31 1091.7,-287"/>
<polygon fill="black" stroke="black" points="1094.21,-289.45 1099.3,-280.16 1089.53,-284.25 1094.21,-289.45"/>
</g>
<!-- n6 -->
<g id="node6" class="node">
<title>n6</title>
<polygon fill="#fffdd0" stroke="black" points="1558.5,-280 1272.5,-280 1272.5,-244 1558.5,-244 1558.5,-280"/>
<text text-anchor="middle" x="1415.5" y="-258.3" font-family="Arial" font-size="14.00">Sound waves near speaking student&#39;s mouth</text>
</g>
<!-- n1&#45;&gt;n6 -->
<g id="edge5" class="edge">
<title>n1&#45;&gt;n6</title>
<path fill="none" stroke="black" d="M1045.8,-365.93C1124.6,-343.99 1261.3,-305.94 1344.5,-282.76"/>
<polygon fill="black" stroke="black" points="1345.7,-286.06 1354.4,-280.01 1343.83,-279.31 1345.7,-286.06"/>
</g>
<!-- n7 -->
<g id="node7" class="node">
<title>n7</title>
<polygon fill="#fffdd0" stroke="black" points="1846.5,-280 1616.5,-280 1616.5,-244 1846.5,-244 1846.5,-280"/>
<text text-anchor="middle" x="1731.5" y="-258.3" font-family="Arial" font-size="14.00">Includes labeled parts: &#39;cup&#39;, &#39;string&#39;</text>
</g>
<!-- n1&#45;&gt;n7 -->
<g id="edge6" class="edge">
<title>n1&#45;&gt;n7</title>
<path fill="none" stroke="black" d="M1090.3,-366C1229.1,-343.71 1471.7,-304.74 1615.3,-281.66"/>
<polygon fill="black" stroke="black" points="1616.18,-285.06 1625.5,-280.03 1615.07,-278.15 1616.18,-285.06"/>
</g>
<!-- n8 -->
<g id="node8" class="node">
<title>n8</title>
<path fill="palegreen" stroke="black" d="M363,-158C363,-158 12,-158 12,-158 6,-158 0,-152 0,-146 0,-146 0,-134 0,-134 0,-128 6,-122 12,-122 12,-122 363,-122 363,-122 369,-122 375,-128 375,-134 375,-134 375,-146 375,-146 375,-152 369,-158 363,-158"/>
<text text-anchor="middle" x="187.5" y="-136.3" font-family="Arial" font-size="14.00">Students communicate over distance using string telephone</text>
</g>
<!-- n2&#45;&gt;n8 -->
<g id="edge7" class="edge">
<title>n2&#45;&gt;n8</title>
<path fill="none" stroke="black" d="M229.48,-243.81C221.33,-223.85 207.79,-190.7 198.3,-167.45"/>
<polygon fill="black" stroke="black" points="201.53,-166.1 194.51,-158.16 195.05,-168.74 201.53,-166.1"/>
</g>
<!-- n9 -->
<g id="node9" class="node">
<title>n9</title>
<path fill="palegreen" stroke="black" d="M652,-158C652,-158 445,-158 445,-158 439,-158 433,-152 433,-146 433,-146 433,-134 433,-134 433,-128 439,-122 445,-122 445,-122 652,-122 652,-122 658,-122 664,-128 664,-134 664,-134 664,-146 664,-146 664,-152 658,-158 652,-158"/>
<text text-anchor="middle" x="548.5" y="-136.3" font-family="Arial" font-size="14.00">Device uses sound to communicate</text>
</g>
<!-- n3&#45;&gt;n9 -->
<g id="edge8" class="edge">
<title>n3&#45;&gt;n9</title>
<path fill="none" stroke="black" d="M555.35,-243.81C554.04,-224.11 551.87,-191.58 550.33,-168.39"/>
<polygon fill="black" stroke="black" points="553.81,-167.9 549.64,-158.16 546.82,-168.37 553.81,-167.9"/>
</g>
<!-- n10 -->
<g id="node10" class="node">
<title>n10</title>
<path fill="palegreen" stroke="black" d="M983,-158C983,-158 734,-158 734,-158 728,-158 722,-152 722,-146 722,-146 722,-134 722,-134 722,-128 728,-122 734,-122 734,-122 983,-122 983,-122 989,-122 995,-128 995,-134 995,-134 995,-146 995,-146 995,-152 989,-158 983,-158"/>
<text text-anchor="middle" x="858.5" y="-136.3" font-family="Arial" font-size="14.00">Illustration of sending/receiving information</text>
</g>
<!-- n4&#45;&gt;n10 -->
<g id="edge9" class="edge">
<title>n4&#45;&gt;n10</title>
<path fill="none" stroke="black" d="M851.65,-243.81C852.96,-224.11 855.13,-191.58 856.67,-168.39"/>
<polygon fill="black" stroke="black" points="860.18,-168.37 857.36,-158.16 853.19,-167.9 860.18,-168.37"/>
</g>
<!-- n11 -->
<g id="node11" class="node">
<title>n11</title>
<path fill="palegreen" stroke="black" d="M1226,-158C1226,-158 1065,-158 1065,-158 1059,-158 1053,-152 1053,-146 1053,-146 1053,-134 1053,-134 1053,-128 1059,-122 1065,-122 1065,-122 1226,-122 1226,-122 1232,-122 1238,-128 1238,-134 1238,-134 1238,-146 1238,-146 1238,-152 1232,-158 1226,-158"/>
<text text-anchor="middle" x="1145.5" y="-136.3" font-family="Arial" font-size="14.00">String allows sound to travel</text>
</g>
<!-- n5&#45;&gt;n11 -->
<g id="edge10" class="edge">
<title>n5&#45;&gt;n11</title>
<path fill="none" stroke="black" d="M1122.4,-243.81C1126.8,-224.02 1134.2,-191.29 1139.4,-168.08"/>
<polygon fill="black" stroke="black" points="1142.85,-168.68 1141.6,-158.16 1136.02,-167.16 1142.85,-168.68"/>
</g>
<!-- n12 -->
<g id="node12" class="node">
<title>n12</title>
<path fill="palegreen" stroke="black" d="M1650.5,-158C1650.5,-158 1470.5,-158 1470.5,-158 1464.5,-158 1458.5,-152 1458.5,-146 1458.5,-146 1458.5,-134 1458.5,-134 1458.5,-128 1464.5,-122 1470.5,-122 1470.5,-122 1650.5,-122 1650.5,-122 1656.5,-122 1662.5,-128 1662.5,-134 1662.5,-134 1662.5,-146 1662.5,-146 1662.5,-152 1656.5,-158 1650.5,-158"/>
<text text-anchor="middle" x="1560.5" y="-136.3" font-family="Arial" font-size="14.00">Function of each part is labeled</text>
</g>
<!-- n7&#45;&gt;n12 -->
<g id="edge11" class="edge">
<title>n7&#45;&gt;n12</title>
<path fill="none" stroke="black" d="M1707,-243.81C1677.2,-222.87 1626.6,-187.41 1593.4,-164.1"/>
<polygon fill="black" stroke="black" points="1595.19,-161.08 1585,-158.16 1591.14,-166.79 1595.19,-161.08"/>
</g>
<!-- n13 -->
<g id="node13" class="node">
<title>n13</title>
<polygon fill="lightcoral" stroke="black" points="1935.5,-158 1720.33,-140 1935.5,-122 2150.67,-140 1935.5,-158"/>
<text text-anchor="middle" x="1935.5" y="-136.3" font-family="Arial" font-size="14.00">May occasionally miss a minor label</text>
</g>
<!-- n7&#45;&gt;n13 -->
<g id="edge12" class="edge">
<title>n7&#45;&gt;n13</title>
<path fill="none" stroke="black" d="M1760.7,-243.81C1797.9,-221.97 1861.8,-184.34 1901.2,-161.17"/>
<polygon fill="black" stroke="black" points="1903.35,-163.97 1910.2,-155.89 1899.8,-157.93 1903.35,-163.97"/>
</g>
<!-- n14 -->
<g id="node14" class="node">
<title>n14</title>
<polygon fill="#f28e8e" stroke="black" points="2055,-36 1816,-36 1816,0 2055,0 2055,-36"/>
<text text-anchor="middle" x="1935.5" y="-14.3" font-family="Arial" font-size="14.00">Ensure all parts are labeled for clarity</text>
</g>
<!-- n13&#45;&gt;n14 -->
<g id="edge13" class="edge">
<title>n13&#45;&gt;n14</title>
<path fill="none" stroke="black" d="M1935.5,-121.81C1935.5,-102.11 1935.5,-69.58 1935.5,-46.39"/>
<polygon fill="black" stroke="black" points="1939,-46.16 1935.5,-36.16 1932,-46.16 1939,-46.16"/>
</g>
</g>
</svg>
