<?xml version="1.0" encoding="UTF-8" standalone="no"?>
<!DOCTYPE svg PUBLIC "-//W3C//DTD SVG 1.1//EN"
 "http://www.w3.org/Graphics/SVG/1.1/DTD/svg11.dtd">
<!-- Generated by graphviz version 2.43.0 (0)
 -->
<!-- Pages: 1 -->
<svg width="1779pt" height="410pt"
 viewBox="0.00 0.00 1778.50 410.00" xmlns="http://www.w3.org/2000/svg" xmlns:xlink="http://www.w3.org/1999/xlink">
<g id="graph0" class="graph" transform="scale(1 1) rotate(0) translate(4 406)">
<polygon fill="white" stroke="transparent" points="-4,4 -4,-406 1774.5,-406 1774.5,4 -4,4"/>
<!-- n1 -->
<g id="node1" class="node">
<title>n1</title>
<polygon fill="lightblue" stroke="black" points="987.5,-384 823.5,-402 495.5,-402 331.5,-384 495.5,-366 823.5,-366 987.5,-384"/>
<text text-anchor="middle" x="659.5" y="-380.3" font-family="Arial" font-size="14.00">Draw reversible and irreversible changes (ice melting vs. egg cooking)</text>
</g>
<!-- n2 -->
<g id="node2" class="node">
<title>n2</title>
<polygon fill="#fffdd0" stroke="black" points="348,-280 79,-280 79,-244 348,-244 348,-280"/>
<text text-anchor="middle" x="213.5" y="-258.3" font-family="Arial" font-size="14.00">Roughly drawn square labeled &#39;ice&#39; in blue</text>
</g>
<!-- n1&#45;&gt;n2 -->
<g id="edge1" class="edge">
<title>n1&#45;&gt;n2</title>
<path fill="none" stroke="black" d="M596.07,-365.93C514.33,-343.94 372.51,-305.78 286.41,-282.62"/>
<polygon fill="black" stroke="black" points="287.28,-279.23 276.71,-280.01 285.46,-285.99 287.28,-279.23"/>
</g>
<!-- n3 -->
<g id="node3" class="node">
<title>n3</title>
<polygon fill="#fffdd0" stroke="black" points="613,-280 412,-280 412,-244 613,-244 613,-280"/>
<text text-anchor="middle" x="512.5" y="-258.3" font-family="Arial" font-size="14.00">Wavy blue lines labeled &#39;water&#39;</text>
</g>
<!-- n1&#45;&gt;n3 -->
<g id="edge2" class="edge">
<title>n1&#45;&gt;n3</title>
<path fill="none" stroke="black" d="M638.44,-365.81C613,-345.04 570.09,-310.01 541.53,-286.7"/>
<polygon fill="black" stroke="black" points="543.48,-283.77 533.52,-280.16 539.05,-289.2 543.48,-283.77"/>
</g>
<!-- n4 -->
<g id="node4" class="node">
<title>n4</title>
<polygon fill="#fffdd0" stroke="black" points="941.5,-280 671.5,-280 671.5,-244 941.5,-244 941.5,-280"/>
<text text-anchor="middle" x="806.5" y="-258.3" font-family="Arial" font-size="14.00">Roughly drawn oval labeled &#39;egg&#39; in yellow</text>
</g>
<!-- n1&#45;&gt;n4 -->
<g id="edge3" class="edge">
<title>n1&#45;&gt;n4</title>
<path fill="none" stroke="black" d="M680.56,-365.81C706,-345.04 748.91,-310.01 777.47,-286.7"/>
<polygon fill="black" stroke="black" points="779.95,-289.2 785.48,-280.16 775.52,-283.77 779.95,-289.2"/>
</g>
<!-- n5 -->
<g id="node5" class="node">
<title>n5</title>
<polygon fill="#fffdd0" stroke="black" points="1271.5,-280 999.5,-280 999.5,-244 1271.5,-244 1271.5,-280"/>
<text text-anchor="middle" x="1135.5" y="-258.3" font-family="Arial" font-size="14.00">Oval with squiggly lines illustrating cooking</text>
</g>
<!-- n1&#45;&gt;n5 -->
<g id="edge4" class="edge">
<title>n1&#45;&gt;n5</title>
<path fill="none" stroke="black" d="M726.94,-366C814.29,-343.98 966.22,-305.68 1058.2,-282.5"/>
<polygon fill="black" stroke="black" points="1059.16,-285.87 1068,-280.03 1057.45,-279.08 1059.16,-285.87"/>
</g>
<!-- n6 -->
<g id="node6" class="node">
<title>n6</title>
<path fill="palegreen" stroke="black" d="M243,-158C243,-158 12,-158 12,-158 6,-158 0,-152 0,-146 0,-146 0,-134 0,-134 0,-128 6,-122 12,-122 12,-122 243,-122 243,-122 249,-122 255,-128 255,-134 255,-134 255,-146 255,-146 255,-152 249,-158 243,-158"/>
<text text-anchor="middle" x="127.5" y="-136.3" font-family="Arial" font-size="14.00">Understands that ice can turn into water</text>
</g>
<!-- n2&#45;&gt;n6 -->
<g id="edge5" class="edge">
<title>n2&#45;&gt;n6</title>
<path fill="none" stroke="black" d="M201.18,-243.81C186.68,-223.58 162.48,-189.81 145.79,-166.52"/>
<polygon fill="black" stroke="black" points="148.47,-164.25 139.8,-158.16 142.78,-168.33 148.47,-164.25"/>
</g>
<!-- n3&#45;&gt;n6 -->
<g id="edge6" class="edge">
<title>n3&#45;&gt;n6</title>
<path fill="none" stroke="black" d="M457.75,-243.93C387.61,-222.07 266.25,-184.25 191.8,-161.04"/>
<polygon fill="black" stroke="black" points="192.65,-157.64 182.06,-158.01 190.57,-164.32 192.65,-157.64"/>
</g>
<!-- n8 -->
<g id="node7" class="node">
<title>n8</title>
<polygon fill="lightcoral" stroke="black" points="591.5,-158 312.99,-140 591.5,-122 870.01,-140 591.5,-158"/>
<text text-anchor="middle" x="591.5" y="-136.3" font-family="Arial" font-size="14.00">Does not show refreezing or explain reversibility</text>
</g>
<!-- n3&#45;&gt;n8 -->
<g id="edge7" class="edge">
<title>n3&#45;&gt;n8</title>
<path fill="none" stroke="black" d="M523.82,-243.81C537.23,-223.44 559.68,-189.34 575.01,-166.04"/>
<polygon fill="black" stroke="black" points="578.13,-167.67 580.71,-157.39 572.29,-163.81 578.13,-167.67"/>
</g>
<!-- n7 -->
<g id="node8" class="node">
<title>n7</title>
<path fill="palegreen" stroke="black" d="M1173,-158C1173,-158 940,-158 940,-158 934,-158 928,-152 928,-146 928,-146 928,-134 928,-134 928,-128 934,-122 940,-122 940,-122 1173,-122 1173,-122 1179,-122 1185,-128 1185,-134 1185,-134 1185,-146 1185,-146 1185,-152 1179,-158 1173,-158"/>
<text text-anchor="middle" x="1056.5" y="-136.3" font-family="Arial" font-size="14.00">Understands egg changes when cooked</text>
</g>
<!-- n4&#45;&gt;n7 -->
<g id="edge8" class="edge">
<title>n4&#45;&gt;n7</title>
<path fill="none" stroke="black" d="M842.05,-243.93C886.76,-222.48 963.52,-185.63 1012.1,-162.33"/>
<polygon fill="black" stroke="black" points="1013.6,-165.49 1021.1,-158.01 1010.57,-159.18 1013.6,-165.49"/>
</g>
<!-- n5&#45;&gt;n7 -->
<g id="edge9" class="edge">
<title>n5&#45;&gt;n7</title>
<path fill="none" stroke="black" d="M1124.2,-243.81C1110.9,-223.58 1088.6,-189.81 1073.3,-166.52"/>
<polygon fill="black" stroke="black" points="1076.22,-164.59 1067.8,-158.16 1070.37,-168.44 1076.22,-164.59"/>
</g>
<!-- n9 -->
<g id="node9" class="node">
<title>n9</title>
<polygon fill="lightcoral" stroke="black" points="1506.5,-158 1242.5,-140 1506.5,-122 1770.5,-140 1506.5,-158"/>
<text text-anchor="middle" x="1506.5" y="-136.3" font-family="Arial" font-size="14.00">Does not clearly illustrate irreversible cooking</text>
</g>
<!-- n5&#45;&gt;n9 -->
<g id="edge10" class="edge">
<title>n5&#45;&gt;n9</title>
<path fill="none" stroke="black" d="M1188.3,-243.93C1258.7,-221.16 1382.7,-181.06 1453.3,-158.21"/>
<polygon fill="black" stroke="black" points="1454.46,-161.51 1462.9,-155.11 1452.31,-154.85 1454.46,-161.51"/>
</g>
<!-- n10 -->
<g id="node10" class="node">
<title>n10</title>
<polygon fill="#f28e8e" stroke="black" points="724.5,-36 458.5,-36 458.5,0 724.5,0 724.5,-36"/>
<text text-anchor="middle" x="591.5" y="-14.3" font-family="Arial" font-size="14.00">Include ice refreezing to show reversibility</text>
</g>
<!-- n8&#45;&gt;n10 -->
<g id="edge11" class="edge">
<title>n8&#45;&gt;n10</title>
<path fill="none" stroke="black" d="M591.5,-121.81C591.5,-102.11 591.5,-69.58 591.5,-46.39"/>
<polygon fill="black" stroke="black" points="595,-46.16 591.5,-36.16 588,-46.16 595,-46.16"/>
</g>
<!-- n11 -->
<g id="node11" class="node">
<title>n11</title>
<polygon fill="#f28e8e" stroke="black" points="1680,-36 1333,-36 1333,0 1680,0 1680,-36"/>
<text text-anchor="middle" x="1506.5" y="-14.3" font-family="Arial" font-size="14.00">Explain why a cooked egg cannot return to its raw state</text>
</g>
<!-- n9&#45;&gt;n11 -->
<g id="edge12" class="edge">
<title>n9&#45;&gt;n11</title>
<path fill="none" stroke="black" d="M1506.5,-121.81C1506.5,-102.11 1506.5,-69.58 1506.5,-46.39"/>
<polygon fill="black" stroke="black" points="1510,-46.16 1506.5,-36.16 1503,-46.16 1510,-46.16"/>
</g>
</g>
</svg>
