<?xml version="1.0" encoding="UTF-8" standalone="no"?>
<!DOCTYPE svg PUBLIC "-//W3C//DTD SVG 1.1//EN"
 "http://www.w3.org/Graphics/SVG/1.1/DTD/svg11.dtd">
<!-- Generated by graphviz version 2.43.0 (0)
 -->
<!-- Pages: 1 -->
<svg width="893pt" height="532pt"
 viewBox="0.00 0.00 893.00 532.00" xmlns="http://www.w3.org/2000/svg" xmlns:xlink="http://www.w3.org/1999/xlink">
<g id="graph0" class="graph" transform="scale(1 1) rotate(0) translate(4 528)">
<polygon fill="white" stroke="transparent" points="-4,4 -4,-528 889,-528 889,4 -4,4"/>
<!-- n1 -->
<g id="node1" class="node">
<title>n1</title>
<polygon fill="lightblue" stroke="black" points="631.74,-506 538.62,-524 352.38,-524 259.26,-506 352.38,-488 538.62,-488 631.74,-506"/>
<text text-anchor="middle" x="445.5" y="-502.3" font-family="Arial" font-size="14.00">Illustrate plants with and without water.</text>
</g>
<!-- n2 -->
<g id="node2" class="node">
<title>n2</title>
<polygon fill="#fffdd0" stroke="black" points="432.5,-402 108.5,-402 108.5,-366 432.5,-366 432.5,-402"/>
<text text-anchor="middle" x="270.5" y="-380.3" font-family="Arial" font-size="14.00">Healthy plant with green leaves and colorful flowers</text>
</g>
<!-- n1&#45;&gt;n2 -->
<g id="edge1" class="edge">
<title>n1&#45;&gt;n2</title>
<path fill="none" stroke="black" d="M420.43,-487.81C389.89,-466.87 338.18,-431.41 304.19,-408.1"/>
<polygon fill="black" stroke="black" points="305.76,-404.93 295.53,-402.16 301.8,-410.7 305.76,-404.93"/>
</g>
<!-- n3 -->
<g id="node3" class="node">
<title>n3</title>
<polygon fill="#fffdd0" stroke="black" points="750,-402 491,-402 491,-366 750,-366 750,-402"/>
<text text-anchor="middle" x="620.5" y="-380.3" font-family="Arial" font-size="14.00">Wilted plant with drooping, brown leaves</text>
</g>
<!-- n1&#45;&gt;n3 -->
<g id="edge2" class="edge">
<title>n1&#45;&gt;n3</title>
<path fill="none" stroke="black" d="M470.57,-487.81C501.11,-466.87 552.82,-431.41 586.81,-408.1"/>
<polygon fill="black" stroke="black" points="589.2,-410.7 595.47,-402.16 585.24,-404.93 589.2,-410.7"/>
</g>
<!-- n4 -->
<g id="node4" class="node">
<title>n4</title>
<path fill="palegreen" stroke="black" d="M575.5,-280C575.5,-280 321.5,-280 321.5,-280 315.5,-280 309.5,-274 309.5,-268 309.5,-268 309.5,-256 309.5,-256 309.5,-250 315.5,-244 321.5,-244 321.5,-244 575.5,-244 575.5,-244 581.5,-244 587.5,-250 587.5,-256 587.5,-256 587.5,-268 587.5,-268 587.5,-274 581.5,-280 575.5,-280"/>
<text text-anchor="middle" x="448.5" y="-258.3" font-family="Arial" font-size="14.00">Plants need water and light to live and grow</text>
</g>
<!-- n2&#45;&gt;n4 -->
<g id="edge3" class="edge">
<title>n2&#45;&gt;n4</title>
<path fill="none" stroke="black" d="M296,-365.81C327.2,-344.78 380.11,-309.11 414.68,-285.8"/>
<polygon fill="black" stroke="black" points="416.71,-288.65 423.04,-280.16 412.79,-282.85 416.71,-288.65"/>
</g>
<!-- n5 -->
<g id="node5" class="node">
<title>n5</title>
<path fill="palegreen" stroke="black" d="M239,-280C239,-280 12,-280 12,-280 6,-280 0,-274 0,-268 0,-268 0,-256 0,-256 0,-250 6,-244 12,-244 12,-244 239,-244 239,-244 245,-244 251,-250 251,-256 251,-256 251,-268 251,-268 251,-274 245,-280 239,-280"/>
<text text-anchor="middle" x="125.5" y="-258.3" font-family="Arial" font-size="14.00">Understands healthy plants need water</text>
</g>
<!-- n2&#45;&gt;n5 -->
<g id="edge4" class="edge">
<title>n2&#45;&gt;n5</title>
<path fill="none" stroke="black" d="M249.73,-365.81C224.64,-345.04 182.31,-310.01 154.13,-286.7"/>
<polygon fill="black" stroke="black" points="156.17,-283.85 146.24,-280.16 151.71,-289.24 156.17,-283.85"/>
</g>
<!-- n3&#45;&gt;n4 -->
<g id="edge5" class="edge">
<title>n3&#45;&gt;n4</title>
<path fill="none" stroke="black" d="M595.86,-365.81C565.84,-344.87 515.02,-309.41 481.61,-286.1"/>
<polygon fill="black" stroke="black" points="483.3,-283.01 473.1,-280.16 479.3,-288.75 483.3,-283.01"/>
</g>
<!-- n6 -->
<g id="node6" class="node">
<title>n6</title>
<path fill="palegreen" stroke="black" d="M873,-280C873,-280 658,-280 658,-280 652,-280 646,-274 646,-268 646,-268 646,-256 646,-256 646,-250 652,-244 658,-244 658,-244 873,-244 873,-244 879,-244 885,-250 885,-256 885,-256 885,-268 885,-268 885,-274 879,-280 873,-280"/>
<text text-anchor="middle" x="765.5" y="-258.3" font-family="Arial" font-size="14.00">Understands plants without water wilt</text>
</g>
<!-- n3&#45;&gt;n6 -->
<g id="edge6" class="edge">
<title>n3&#45;&gt;n6</title>
<path fill="none" stroke="black" d="M641.27,-365.81C666.36,-345.04 708.69,-310.01 736.87,-286.7"/>
<polygon fill="black" stroke="black" points="739.29,-289.24 744.76,-280.16 734.83,-283.85 739.29,-289.24"/>
</g>
<!-- n7 -->
<g id="node7" class="node">
<title>n7</title>
<polygon fill="lightcoral" stroke="black" points="448.5,-158 186.5,-140 448.5,-122 710.5,-140 448.5,-158"/>
<text text-anchor="middle" x="448.5" y="-136.3" font-family="Arial" font-size="14.00">Sometimes forgets to represent water or rain</text>
</g>
<!-- n4&#45;&gt;n7 -->
<g id="edge7" class="edge">
<title>n4&#45;&gt;n7</title>
<path fill="none" stroke="black" d="M448.5,-243.81C448.5,-224.11 448.5,-191.58 448.5,-168.39"/>
<polygon fill="black" stroke="black" points="452,-168.16 448.5,-158.16 445,-168.16 452,-168.16"/>
</g>
<!-- n8 -->
<g id="node8" class="node">
<title>n8</title>
<polygon fill="#f28e8e" stroke="black" points="624,-36 273,-36 273,0 624,0 624,-36"/>
<text text-anchor="middle" x="448.5" y="-14.3" font-family="Arial" font-size="14.00">Remember to represent water explicitly (e.g., raindrops)</text>
</g>
<!-- n7&#45;&gt;n8 -->
<g id="edge8" class="edge">
<title>n7&#45;&gt;n8</title>
<path fill="none" stroke="black" d="M448.5,-121.81C448.5,-102.11 448.5,-69.58 448.5,-46.39"/>
<polygon fill="black" stroke="black" points="452,-46.16 448.5,-36.16 445,-46.16 452,-46.16"/>
</g>
</g>
</svg>
