<?xml version="1.0" encoding="UTF-8" standalone="no"?>
<!DOCTYPE svg PUBLIC "-//W3C//DTD SVG 1.1//EN"
 "http://www.w3.org/Graphics/SVG/1.1/DTD/svg11.dtd">
<!-- Generated by graphviz version 2.43.0 (0)
 -->
<!-- Pages: 1 -->
<svg width="1373pt" height="410pt"
 viewBox="0.00 0.00 1373.00 410.00" xmlns="http://www.w3.org/2000/svg" xmlns:xlink="http://www.w3.org/1999/xlink">
<g id="graph0" class="graph" transform="scale(1 1) rotate(0) translate(4 406)">
<polygon fill="white" stroke="transparent" points="-4,4 -4,-406 1369,-406 1369,4 -4,4"/>
<!-- n1 -->
<g id="node1" class="node">
<title>n1</title>
<polygon fill="lightblue" stroke="black" points="789.5,-384 675.75,-402 448.25,-402 334.5,-384 448.25,-366 675.75,-366 789.5,-384"/>
<text text-anchor="middle" x="562" y="-380.3" font-family="Arial" font-size="14.00">Illustrate plants with and without water and light.</text>
</g>
<!-- n2 -->
<g id="node2" class="node">
<title>n2</title>
<polygon fill="#fffdd0" stroke="black" points="361,-280 77,-280 77,-244 361,-244 361,-280"/>
<text text-anchor="middle" x="219" y="-258.3" font-family="Arial" font-size="14.00">Healthy, vibrant green plant with small flower</text>
</g>
<!-- n1&#45;&gt;n2 -->
<g id="edge1" class="edge">
<title>n1&#45;&gt;n2</title>
<path fill="none" stroke="black" d="M513.22,-365.93C450.99,-344.16 343.5,-306.56 277.1,-283.33"/>
<polygon fill="black" stroke="black" points="278.2,-280.01 267.61,-280.01 275.89,-286.62 278.2,-280.01"/>
</g>
<!-- n3 -->
<g id="node3" class="node">
<title>n3</title>
<polygon fill="#fffdd0" stroke="black" points="675,-280 449,-280 449,-244 675,-244 675,-280"/>
<text text-anchor="middle" x="562" y="-258.3" font-family="Arial" font-size="14.00">Plant with wilting, dull green leaves</text>
</g>
<!-- n1&#45;&gt;n3 -->
<g id="edge2" class="edge">
<title>n1&#45;&gt;n3</title>
<path fill="none" stroke="black" d="M562,-365.81C562,-346.11 562,-313.58 562,-290.39"/>
<polygon fill="black" stroke="black" points="565.5,-290.16 562,-280.16 558.5,-290.16 565.5,-290.16"/>
</g>
<!-- n4 -->
<g id="node4" class="node">
<title>n4</title>
<polygon fill="#fffdd0" stroke="black" points="1064,-280 838,-280 838,-244 1064,-244 1064,-280"/>
<text text-anchor="middle" x="951" y="-258.3" font-family="Arial" font-size="14.00">Plant with yellow and brown leaves</text>
</g>
<!-- n1&#45;&gt;n4 -->
<g id="edge3" class="edge">
<title>n1&#45;&gt;n4</title>
<path fill="none" stroke="black" d="M617.32,-365.93C688.18,-344.07 810.81,-306.25 886.03,-283.04"/>
<polygon fill="black" stroke="black" points="887.34,-286.3 895.87,-280.01 885.28,-279.61 887.34,-286.3"/>
</g>
<!-- n5 -->
<g id="node5" class="node">
<title>n5</title>
<path fill="palegreen" stroke="black" d="M364,-158C364,-158 12,-158 12,-158 6,-158 0,-152 0,-146 0,-146 0,-134 0,-134 0,-128 6,-122 12,-122 12,-122 364,-122 364,-122 370,-122 376,-128 376,-134 376,-134 376,-146 376,-146 376,-152 370,-158 364,-158"/>
<text text-anchor="middle" x="188" y="-136.3" font-family="Arial" font-size="14.00">Correctly identifies healthy plant with enough water and light</text>
</g>
<!-- n2&#45;&gt;n5 -->
<g id="edge4" class="edge">
<title>n2&#45;&gt;n5</title>
<path fill="none" stroke="black" d="M214.56,-243.81C209.45,-224.02 200.99,-191.29 194.99,-168.08"/>
<polygon fill="black" stroke="black" points="198.32,-166.97 192.43,-158.16 191.54,-168.72 198.32,-166.97"/>
</g>
<!-- n6 -->
<g id="node6" class="node">
<title>n6</title>
<path fill="palegreen" stroke="black" d="M677.5,-158C677.5,-158 446.5,-158 446.5,-158 440.5,-158 434.5,-152 434.5,-146 434.5,-146 434.5,-134 434.5,-134 434.5,-128 440.5,-122 446.5,-122 446.5,-122 677.5,-122 677.5,-122 683.5,-122 689.5,-128 689.5,-134 689.5,-134 689.5,-146 689.5,-146 689.5,-152 683.5,-158 677.5,-158"/>
<text text-anchor="middle" x="562" y="-136.3" font-family="Arial" font-size="14.00">Understands wilting due to lack of water</text>
</g>
<!-- n3&#45;&gt;n6 -->
<g id="edge5" class="edge">
<title>n3&#45;&gt;n6</title>
<path fill="none" stroke="black" d="M562,-243.81C562,-224.11 562,-191.58 562,-168.39"/>
<polygon fill="black" stroke="black" points="565.5,-168.16 562,-158.16 558.5,-168.16 565.5,-168.16"/>
</g>
<!-- n7 -->
<g id="node7" class="node">
<title>n7</title>
<polygon fill="lightcoral" stroke="black" points="1056,-158 747,-140 1056,-122 1365,-140 1056,-158"/>
<text text-anchor="middle" x="1056" y="-136.3" font-family="Arial" font-size="14.00">Incomplete distinction between lack of light and water</text>
</g>
<!-- n4&#45;&gt;n7 -->
<g id="edge6" class="edge">
<title>n4&#45;&gt;n7</title>
<path fill="none" stroke="black" d="M966.04,-243.81C984.1,-223.17 1014.5,-188.43 1034.9,-165.12"/>
<polygon fill="black" stroke="black" points="1037.72,-167.21 1041.7,-157.39 1032.47,-162.59 1037.72,-167.21"/>
</g>
<!-- n8 -->
<g id="node8" class="node">
<title>n8</title>
<polygon fill="#f28e8e" stroke="black" points="1299,-36 813,-36 813,0 1299,0 1299,-36"/>
<text text-anchor="middle" x="1056" y="-14.3" font-family="Arial" font-size="14.00">Use more specific differences between symptoms of light and water deficiency</text>
</g>
<!-- n7&#45;&gt;n8 -->
<g id="edge7" class="edge">
<title>n7&#45;&gt;n8</title>
<path fill="none" stroke="black" d="M1056,-121.81C1056,-102.11 1056,-69.58 1056,-46.39"/>
<polygon fill="black" stroke="black" points="1059.5,-46.16 1056,-36.16 1052.5,-46.16 1059.5,-46.16"/>
</g>
</g>
</svg>
