<?xml version="1.0" encoding="UTF-8" standalone="no"?>
<!DOCTYPE svg PUBLIC "-//W3C//DTD SVG 1.1//EN"
 "http://www.w3.org/Graphics/SVG/1.1/DTD/svg11.dtd">
<!-- Generated by graphviz version 2.43.0 (0)
 -->
<!-- Pages: 1 -->
<svg width="2386pt" height="410pt"
 viewBox="0.00 0.00 2385.50 410.00" xmlns="http://www.w3.org/2000/svg" xmlns:xlink="http://www.w3.org/1999/xlink">
<g id="graph0" class="graph" transform="scale(1 1) rotate(0) translate(4 406)">
<polygon fill="white" stroke="transparent" points="-4,4 -4,-406 2381.5,-406 2381.5,4 -4,4"/>
<!-- n1 -->
<g id="node1" class="node">
<title>n1</title>
<polygon fill="lightblue" stroke="black" points="1741,-384 1577,-402 1249,-402 1085,-384 1249,-366 1577,-366 1741,-384"/>
<text text-anchor="middle" x="1413" y="-380.3" font-family="Arial" font-size="14.00">Draw reversible and irreversible changes (ice melting vs. egg cooking)</text>
</g>
<!-- n2 -->
<g id="node2" class="node">
<title>n2</title>
<polygon fill="#fffdd0" stroke="black" points="1421,-280 993,-280 993,-244 1421,-244 1421,-280"/>
<text text-anchor="middle" x="1207" y="-258.3" font-family="Arial" font-size="14.00">An ice cube partially melted into a puddle of water under a bright sun</text>
</g>
<!-- n1&#45;&gt;n2 -->
<g id="edge1" class="edge">
<title>n1&#45;&gt;n2</title>
<path fill="none" stroke="black" d="M1383.5,-365.81C1347.1,-344.6 1285.1,-308.5 1245.1,-285.21"/>
<polygon fill="black" stroke="black" points="1246.9,-282.21 1236.5,-280.16 1243.35,-288.24 1246.9,-282.21"/>
</g>
<!-- n3 -->
<g id="node3" class="node">
<title>n3</title>
<polygon fill="#fffdd0" stroke="black" points="2055,-280 1773,-280 1773,-244 2055,-244 2055,-280"/>
<text text-anchor="middle" x="1914" y="-258.3" font-family="Arial" font-size="14.00">A frying pan on a stovetop with an egg frying</text>
</g>
<!-- n1&#45;&gt;n3 -->
<g id="edge2" class="edge">
<title>n1&#45;&gt;n3</title>
<path fill="none" stroke="black" d="M1484,-366C1576.1,-343.93 1736.5,-305.52 1833.2,-282.36"/>
<polygon fill="black" stroke="black" points="1833.99,-285.77 1842.9,-280.03 1832.36,-278.96 1833.99,-285.77"/>
</g>
<!-- n4 -->
<g id="node4" class="node">
<title>n4</title>
<path fill="palegreen" stroke="black" d="M372,-158C372,-158 12,-158 12,-158 6,-158 0,-152 0,-146 0,-146 0,-134 0,-134 0,-128 6,-122 12,-122 12,-122 372,-122 372,-122 378,-122 384,-128 384,-134 384,-134 384,-146 384,-146 384,-152 378,-158 372,-158"/>
<text text-anchor="middle" x="192" y="-136.3" font-family="Arial" font-size="14.00">Heating and cooling can be reversed: ice melts and refreezes</text>
</g>
<!-- n2&#45;&gt;n4 -->
<g id="edge3" class="edge">
<title>n2&#45;&gt;n4</title>
<path fill="none" stroke="black" d="M1063.2,-244C873.44,-221.56 540.78,-182.24 346.05,-159.21"/>
<polygon fill="black" stroke="black" points="346.36,-155.72 336.02,-158.03 345.54,-162.67 346.36,-155.72"/>
</g>
<!-- n6 -->
<g id="node5" class="node">
<title>n6</title>
<polygon fill="lightcoral" stroke="black" points="808,-158 442,-140 808,-122 1174,-140 808,-158"/>
<text text-anchor="middle" x="808" y="-136.3" font-family="Arial" font-size="14.00">Lacks explicit labeling of processes (e.g., reversible/irreversible)</text>
</g>
<!-- n2&#45;&gt;n6 -->
<g id="edge4" class="edge">
<title>n2&#45;&gt;n6</title>
<path fill="none" stroke="black" d="M1150.3,-243.93C1075,-221.3 942.82,-181.55 866.63,-158.63"/>
<polygon fill="black" stroke="black" points="867.29,-155.18 856.71,-155.65 865.28,-161.88 867.29,-155.18"/>
</g>
<!-- n8 -->
<g id="node6" class="node">
<title>n8</title>
<polygon fill="lightcoral" stroke="black" points="1606,-158 1231.81,-140 1606,-122 1980.19,-140 1606,-158"/>
<text text-anchor="middle" x="1606" y="-136.3" font-family="Arial" font-size="14.00">Insufficient explanation of causes (e.g., sun or heat source effect)</text>
</g>
<!-- n2&#45;&gt;n8 -->
<g id="edge5" class="edge">
<title>n2&#45;&gt;n8</title>
<path fill="none" stroke="black" d="M1263.7,-243.93C1338.9,-221.33 1470.8,-181.66 1547.1,-158.73"/>
<polygon fill="black" stroke="black" points="1548.44,-161.98 1557,-155.74 1546.42,-155.28 1548.44,-161.98"/>
</g>
<!-- n5 -->
<g id="node7" class="node">
<title>n5</title>
<path fill="palegreen" stroke="black" d="M2365.5,-158C2365.5,-158 2050.5,-158 2050.5,-158 2044.5,-158 2038.5,-152 2038.5,-146 2038.5,-146 2038.5,-134 2038.5,-134 2038.5,-128 2044.5,-122 2050.5,-122 2050.5,-122 2365.5,-122 2365.5,-122 2371.5,-122 2377.5,-128 2377.5,-134 2377.5,-134 2377.5,-146 2377.5,-146 2377.5,-152 2371.5,-158 2365.5,-158"/>
<text text-anchor="middle" x="2208" y="-136.3" font-family="Arial" font-size="14.00">Cooking an egg is permanent and cannot be reversed</text>
</g>
<!-- n3&#45;&gt;n5 -->
<g id="edge6" class="edge">
<title>n3&#45;&gt;n5</title>
<path fill="none" stroke="black" d="M1955.8,-243.93C2008.7,-222.34 2099.8,-185.17 2156.8,-161.9"/>
<polygon fill="black" stroke="black" points="2158.37,-165.04 2166.3,-158.01 2155.72,-158.56 2158.37,-165.04"/>
</g>
<!-- n7 -->
<g id="node8" class="node">
<title>n7</title>
<polygon fill="#f28e8e" stroke="black" points="1019.5,-36 596.5,-36 596.5,0 1019.5,0 1019.5,-36"/>
<text text-anchor="middle" x="808" y="-14.3" font-family="Arial" font-size="14.00">Add labels to indicate reversible (ice) and irreversible (egg) changes</text>
</g>
<!-- n6&#45;&gt;n7 -->
<g id="edge7" class="edge">
<title>n6&#45;&gt;n7</title>
<path fill="none" stroke="black" d="M808,-121.81C808,-102.11 808,-69.58 808,-46.39"/>
<polygon fill="black" stroke="black" points="811.5,-46.16 808,-36.16 804.5,-46.16 811.5,-46.16"/>
</g>
<!-- n9 -->
<g id="node9" class="node">
<title>n9</title>
<polygon fill="#f28e8e" stroke="black" points="1829.5,-36 1382.5,-36 1382.5,0 1829.5,0 1829.5,-36"/>
<text text-anchor="middle" x="1606" y="-14.3" font-family="Arial" font-size="14.00">Include notes or arrows showing cause (sun melts ice, stove cooks egg)</text>
</g>
<!-- n8&#45;&gt;n9 -->
<g id="edge8" class="edge">
<title>n8&#45;&gt;n9</title>
<path fill="none" stroke="black" d="M1606,-121.81C1606,-102.11 1606,-69.58 1606,-46.39"/>
<polygon fill="black" stroke="black" points="1609.5,-46.16 1606,-36.16 1602.5,-46.16 1609.5,-46.16"/>
</g>
</g>
</svg>
