<?xml version="1.0" encoding="UTF-8" standalone="no"?>
<!DOCTYPE svg PUBLIC "-//W3C//DTD SVG 1.1//EN"
 "http://www.w3.org/Graphics/SVG/1.1/DTD/svg11.dtd">
<!-- Generated by graphviz version 2.43.0 (0)
 -->
<!-- Pages: 1 -->
<svg width="1287pt" height="288pt"
 viewBox="0.00 0.00 1286.50 288.00" xmlns="http://www.w3.org/2000/svg" xmlns:xlink="http://www.w3.org/1999/xlink">
<g id="graph0" class="graph" transform="scale(1 1) rotate(0) translate(4 284)">
<polygon fill="white" stroke="transparent" points="-4,4 -4,-284 1282.5,-284 1282.5,4 -4,4"/>
<!-- n1 -->
<g id="node1" class="node">
<title>n1</title>
<polygon fill="lightblue" stroke="black" points="882.5,-262 768.75,-280 541.25,-280 427.5,-262 541.25,-244 768.75,-244 882.5,-262"/>
<text text-anchor="middle" x="655" y="-258.3" font-family="Arial" font-size="14.00">Illustrate plants with and without water and light.</text>
</g>
<!-- n2 -->
<g id="node2" class="node">
<title>n2</title>
<polygon fill="#fffdd0" stroke="black" points="410,-158 50,-158 50,-122 410,-122 410,-158"/>
<text text-anchor="middle" x="230" y="-136.3" font-family="Arial" font-size="14.00">Healthy plant with vibrant green leaves and upright stems</text>
</g>
<!-- n1&#45;&gt;n2 -->
<g id="edge1" class="edge">
<title>n1&#45;&gt;n2</title>
<path fill="none" stroke="black" d="M594.56,-243.93C516.82,-221.99 382.07,-183.94 299.98,-160.76"/>
<polygon fill="black" stroke="black" points="300.8,-157.36 290.23,-158.01 298.9,-164.09 300.8,-157.36"/>
</g>
<!-- n3 -->
<g id="node3" class="node">
<title>n3</title>
<polygon fill="#fffdd0" stroke="black" points="816.5,-158 493.5,-158 493.5,-122 816.5,-122 816.5,-158"/>
<text text-anchor="middle" x="655" y="-136.3" font-family="Arial" font-size="14.00">Wilting plant with drooping leaves and dried out pot</text>
</g>
<!-- n1&#45;&gt;n3 -->
<g id="edge2" class="edge">
<title>n1&#45;&gt;n3</title>
<path fill="none" stroke="black" d="M655,-243.81C655,-224.11 655,-191.58 655,-168.39"/>
<polygon fill="black" stroke="black" points="658.5,-168.16 655,-158.16 651.5,-168.16 658.5,-168.16"/>
</g>
<!-- n4 -->
<g id="node4" class="node">
<title>n4</title>
<polygon fill="#fffdd0" stroke="black" points="1252.5,-158 891.5,-158 891.5,-122 1252.5,-122 1252.5,-158"/>
<text text-anchor="middle" x="1072" y="-136.3" font-family="Arial" font-size="14.00">Spindly plant with pale or yellowish leaves in shaded area</text>
</g>
<!-- n1&#45;&gt;n4 -->
<g id="edge3" class="edge">
<title>n1&#45;&gt;n4</title>
<path fill="none" stroke="black" d="M714.3,-243.93C790.42,-222.03 922.25,-184.09 1002.8,-160.9"/>
<polygon fill="black" stroke="black" points="1004.25,-164.13 1012.9,-158.01 1002.32,-157.4 1004.25,-164.13"/>
</g>
<!-- n5 -->
<g id="node5" class="node">
<title>n5</title>
<path fill="palegreen" stroke="black" d="M398,-36C398,-36 12,-36 12,-36 6,-36 0,-30 0,-24 0,-24 0,-12 0,-12 0,-6 6,0 12,0 12,0 398,0 398,0 404,0 410,-6 410,-12 410,-12 410,-24 410,-24 410,-30 404,-36 398,-36"/>
<text text-anchor="middle" x="205" y="-14.3" font-family="Arial" font-size="14.00">Understands that sufficient water and light result in a healthy plant</text>
</g>
<!-- n2&#45;&gt;n5 -->
<g id="edge4" class="edge">
<title>n2&#45;&gt;n5</title>
<path fill="none" stroke="black" d="M226.42,-121.81C222.3,-102.02 215.48,-69.29 210.64,-46.08"/>
<polygon fill="black" stroke="black" points="214.04,-45.24 208.58,-36.16 207.19,-46.66 214.04,-45.24"/>
</g>
<!-- n6 -->
<g id="node6" class="node">
<title>n6</title>
<path fill="palegreen" stroke="black" d="M830,-36C830,-36 480,-36 480,-36 474,-36 468,-30 468,-24 468,-24 468,-12 468,-12 468,-6 474,0 480,0 480,0 830,0 830,0 836,0 842,-6 842,-12 842,-12 842,-24 842,-24 842,-30 836,-36 830,-36"/>
<text text-anchor="middle" x="655" y="-14.3" font-family="Arial" font-size="14.00">Understands that lack of water leads to wilting and drooping</text>
</g>
<!-- n3&#45;&gt;n6 -->
<g id="edge5" class="edge">
<title>n3&#45;&gt;n6</title>
<path fill="none" stroke="black" d="M655,-121.81C655,-102.11 655,-69.58 655,-46.39"/>
<polygon fill="black" stroke="black" points="658.5,-46.16 655,-36.16 651.5,-46.16 658.5,-46.16"/>
</g>
<!-- n7 -->
<g id="node7" class="node">
<title>n7</title>
<path fill="palegreen" stroke="black" d="M1266.5,-36C1266.5,-36 911.5,-36 911.5,-36 905.5,-36 899.5,-30 899.5,-24 899.5,-24 899.5,-12 899.5,-12 899.5,-6 905.5,0 911.5,0 911.5,0 1266.5,0 1266.5,0 1272.5,0 1278.5,-6 1278.5,-12 1278.5,-12 1278.5,-24 1278.5,-24 1278.5,-30 1272.5,-36 1266.5,-36"/>
<text text-anchor="middle" x="1089" y="-14.3" font-family="Arial" font-size="14.00">Understands that lack of light results in weak and pale plants</text>
</g>
<!-- n4&#45;&gt;n7 -->
<g id="edge6" class="edge">
<title>n4&#45;&gt;n7</title>
<path fill="none" stroke="black" d="M1074.4,-121.81C1077.2,-102.02 1081.9,-69.29 1085.2,-46.08"/>
<polygon fill="black" stroke="black" points="1088.67,-46.55 1086.6,-36.16 1081.74,-45.57 1088.67,-46.55"/>
</g>
</g>
</svg>
