<?xml version="1.0" encoding="UTF-8" standalone="no"?>
<!DOCTYPE svg PUBLIC "-//W3C//DTD SVG 1.1//EN"
 "http://www.w3.org/Graphics/SVG/1.1/DTD/svg11.dtd">
<!-- Generated by graphviz version 2.43.0 (0)
 -->
<!-- Pages: 1 -->
<svg width="1901pt" height="410pt"
 viewBox="0.00 0.00 1900.50 410.00" xmlns="http://www.w3.org/2000/svg" xmlns:xlink="http://www.w3.org/1999/xlink">
<g id="graph0" class="graph" transform="scale(1 1) rotate(0) translate(4 406)">
<polygon fill="white" stroke="transparent" points="-4,4 -4,-406 1896.5,-406 1896.5,4 -4,4"/>
<!-- n1 -->
<g id="node1" class="node">
<title>n1</title>
<polygon fill="lightblue" stroke="black" points="1157,-384 1045.5,-402 822.5,-402 711,-384 822.5,-366 1045.5,-366 1157,-384"/>
<text text-anchor="middle" x="934" y="-380.3" font-family="Arial" font-size="14.00">Draw a string telephone between two students.</text>
</g>
<!-- n2 -->
<g id="node2" class="node">
<title>n2</title>
<polygon fill="#fffdd0" stroke="black" points="260,-280 0,-280 0,-244 260,-244 260,-280"/>
<text text-anchor="middle" x="130" y="-258.3" font-family="Arial" font-size="14.00">Two smiling students about 10 feet apart</text>
</g>
<!-- n1&#45;&gt;n2 -->
<g id="edge1" class="edge">
<title>n1&#45;&gt;n2</title>
<path fill="none" stroke="black" d="M821.36,-366.19C671.98,-343.89 409.18,-304.67 254.2,-281.54"/>
<polygon fill="black" stroke="black" points="254.56,-278.05 244.15,-280.04 253.52,-284.98 254.56,-278.05"/>
</g>
<!-- n3 -->
<g id="node3" class="node">
<title>n3</title>
<polygon fill="#fffdd0" stroke="black" points="638,-280 318,-280 318,-244 638,-244 638,-280"/>
<text text-anchor="middle" x="478" y="-258.3" font-family="Arial" font-size="14.00">Students holding paper cups connected by a string</text>
</g>
<!-- n1&#45;&gt;n3 -->
<g id="edge2" class="edge">
<title>n1&#45;&gt;n3</title>
<path fill="none" stroke="black" d="M869.15,-365.93C785.57,-343.94 640.58,-305.78 552.54,-282.62"/>
<polygon fill="black" stroke="black" points="553.19,-279.17 542.63,-280.01 551.41,-285.94 553.19,-279.17"/>
</g>
<!-- n4 -->
<g id="node4" class="node">
<title>n4</title>
<polygon fill="#fffdd0" stroke="black" points="905.5,-280 696.5,-280 696.5,-244 905.5,-244 905.5,-280"/>
<text text-anchor="middle" x="801" y="-258.3" font-family="Arial" font-size="14.00">The scene is colorful and playful</text>
</g>
<!-- n1&#45;&gt;n4 -->
<g id="edge3" class="edge">
<title>n1&#45;&gt;n4</title>
<path fill="none" stroke="black" d="M914.94,-365.81C892.03,-345.13 853.44,-310.31 827.6,-287"/>
<polygon fill="black" stroke="black" points="829.79,-284.26 820.02,-280.16 825.1,-289.46 829.79,-284.26"/>
</g>
<!-- n5 -->
<g id="node5" class="node">
<title>n5</title>
<polygon fill="#fffdd0" stroke="black" points="1170,-280 964,-280 964,-244 1170,-244 1170,-280"/>
<text text-anchor="middle" x="1067" y="-258.3" font-family="Arial" font-size="14.00">Label on one cup and the string</text>
</g>
<!-- n1&#45;&gt;n5 -->
<g id="edge4" class="edge">
<title>n1&#45;&gt;n5</title>
<path fill="none" stroke="black" d="M953.06,-365.81C975.97,-345.13 1014.6,-310.31 1040.4,-287"/>
<polygon fill="black" stroke="black" points="1042.91,-289.45 1048,-280.16 1038.23,-284.25 1042.91,-289.45"/>
</g>
<!-- n6 -->
<g id="node6" class="node">
<title>n6</title>
<polygon fill="#fffdd0" stroke="black" points="1545.5,-280 1270.5,-280 1270.5,-244 1545.5,-244 1545.5,-280"/>
<text text-anchor="middle" x="1408" y="-258.3" font-family="Arial" font-size="14.00">Arrows on the string indicating sound travel</text>
</g>
<!-- n1&#45;&gt;n6 -->
<g id="edge5" class="edge">
<title>n1&#45;&gt;n6</title>
<path fill="none" stroke="black" d="M1001.2,-366C1088.1,-343.98 1239.4,-305.68 1331,-282.5"/>
<polygon fill="black" stroke="black" points="1331.87,-285.89 1340.7,-280.03 1330.15,-279.11 1331.87,-285.89"/>
</g>
<!-- n7 -->
<g id="node7" class="node">
<title>n7</title>
<polygon fill="#fffdd0" stroke="black" points="1859.5,-280 1624.5,-280 1624.5,-244 1859.5,-244 1859.5,-280"/>
<text text-anchor="middle" x="1742" y="-258.3" font-family="Arial" font-size="14.00">Scene in a park with grass and trees</text>
</g>
<!-- n1&#45;&gt;n7 -->
<g id="edge6" class="edge">
<title>n1&#45;&gt;n7</title>
<path fill="none" stroke="black" d="M1047.2,-366.19C1197.3,-343.89 1461.4,-304.67 1617.2,-281.54"/>
<polygon fill="black" stroke="black" points="1617.92,-284.97 1627.3,-280.04 1616.89,-278.05 1617.92,-284.97"/>
</g>
<!-- n8 -->
<g id="node8" class="node">
<title>n8</title>
<path fill="palegreen" stroke="black" d="M341.5,-158C341.5,-158 64.5,-158 64.5,-158 58.5,-158 52.5,-152 52.5,-146 52.5,-146 52.5,-134 52.5,-134 52.5,-128 58.5,-122 64.5,-122 64.5,-122 341.5,-122 341.5,-122 347.5,-122 353.5,-128 353.5,-134 353.5,-134 353.5,-146 353.5,-146 353.5,-152 347.5,-158 341.5,-158"/>
<text text-anchor="middle" x="203" y="-136.3" font-family="Arial" font-size="14.00">Understands communication using simple tools</text>
</g>
<!-- n2&#45;&gt;n8 -->
<g id="edge7" class="edge">
<title>n2&#45;&gt;n8</title>
<path fill="none" stroke="black" d="M140.46,-243.81C152.71,-223.67 173.13,-190.1 187.29,-166.83"/>
<polygon fill="black" stroke="black" points="190.36,-168.52 192.56,-158.16 184.37,-164.89 190.36,-168.52"/>
</g>
<!-- n3&#45;&gt;n8 -->
<g id="edge8" class="edge">
<title>n3&#45;&gt;n8</title>
<path fill="none" stroke="black" d="M438.89,-243.93C389.51,-222.39 304.58,-185.32 251.23,-162.04"/>
<polygon fill="black" stroke="black" points="252.54,-158.79 241.97,-158.01 249.74,-165.21 252.54,-158.79"/>
</g>
<!-- n10 -->
<g id="node9" class="node">
<title>n10</title>
<path fill="palegreen" stroke="black" d="M767.5,-158C767.5,-158 486.5,-158 486.5,-158 480.5,-158 474.5,-152 474.5,-146 474.5,-146 474.5,-134 474.5,-134 474.5,-128 480.5,-122 486.5,-122 486.5,-122 767.5,-122 767.5,-122 773.5,-122 779.5,-128 779.5,-134 779.5,-134 779.5,-146 779.5,-146 779.5,-152 773.5,-158 767.5,-158"/>
<text text-anchor="middle" x="627" y="-136.3" font-family="Arial" font-size="14.00">Scene conveys joy and effective communication</text>
</g>
<!-- n4&#45;&gt;n10 -->
<g id="edge9" class="edge">
<title>n4&#45;&gt;n10</title>
<path fill="none" stroke="black" d="M776.07,-243.81C745.71,-222.87 694.29,-187.41 660.5,-164.1"/>
<polygon fill="black" stroke="black" points="662.1,-160.95 651.88,-158.16 658.13,-166.72 662.1,-160.95"/>
</g>
<!-- n11 -->
<g id="node10" class="node">
<title>n11</title>
<polygon fill="lightcoral" stroke="black" points="1056,-158 837,-140 1056,-122 1275,-140 1056,-158"/>
<text text-anchor="middle" x="1056" y="-136.3" font-family="Arial" font-size="14.00">Incomplete understanding of labeling</text>
</g>
<!-- n5&#45;&gt;n11 -->
<g id="edge10" class="edge">
<title>n5&#45;&gt;n11</title>
<path fill="none" stroke="black" d="M1065.4,-243.81C1063.6,-224.11 1060.6,-191.58 1058.5,-168.39"/>
<polygon fill="black" stroke="black" points="1061.96,-167.81 1057.6,-158.16 1054.99,-168.43 1061.96,-167.81"/>
</g>
<!-- n9 -->
<g id="node11" class="node">
<title>n9</title>
<path fill="palegreen" stroke="black" d="M1541.5,-158C1541.5,-158 1344.5,-158 1344.5,-158 1338.5,-158 1332.5,-152 1332.5,-146 1332.5,-146 1332.5,-134 1332.5,-134 1332.5,-128 1338.5,-122 1344.5,-122 1344.5,-122 1541.5,-122 1541.5,-122 1547.5,-122 1553.5,-128 1553.5,-134 1553.5,-134 1553.5,-146 1553.5,-146 1553.5,-152 1547.5,-158 1541.5,-158"/>
<text text-anchor="middle" x="1443" y="-136.3" font-family="Arial" font-size="14.00">Understands sound travel concept</text>
</g>
<!-- n6&#45;&gt;n9 -->
<g id="edge11" class="edge">
<title>n6&#45;&gt;n9</title>
<path fill="none" stroke="black" d="M1413,-243.81C1418.8,-223.94 1428.4,-190.99 1435.2,-167.76"/>
<polygon fill="black" stroke="black" points="1438.56,-168.74 1438,-158.16 1431.84,-166.78 1438.56,-168.74"/>
</g>
<!-- n12 -->
<g id="node12" class="node">
<title>n12</title>
<path fill="palegreen" stroke="black" d="M1880.5,-158C1880.5,-158 1623.5,-158 1623.5,-158 1617.5,-158 1611.5,-152 1611.5,-146 1611.5,-146 1611.5,-134 1611.5,-134 1611.5,-128 1617.5,-122 1623.5,-122 1623.5,-122 1880.5,-122 1880.5,-122 1886.5,-122 1892.5,-128 1892.5,-134 1892.5,-134 1892.5,-146 1892.5,-146 1892.5,-152 1886.5,-158 1880.5,-158"/>
<text text-anchor="middle" x="1752" y="-136.3" font-family="Arial" font-size="14.00">Realistic setting for communication scenario</text>
</g>
<!-- n7&#45;&gt;n12 -->
<g id="edge12" class="edge">
<title>n7&#45;&gt;n12</title>
<path fill="none" stroke="black" d="M1743.4,-243.81C1745.1,-224.11 1747.8,-191.58 1749.7,-168.39"/>
<polygon fill="black" stroke="black" points="1753.21,-168.43 1750.6,-158.16 1746.24,-167.81 1753.21,-168.43"/>
</g>
<!-- n13 -->
<g id="node13" class="node">
<title>n13</title>
<polygon fill="#f28e8e" stroke="black" points="1191,-36 921,-36 921,0 1191,0 1191,-36"/>
<text text-anchor="middle" x="1056" y="-14.3" font-family="Arial" font-size="14.00">Include consistent labeling on all elements</text>
</g>
<!-- n11&#45;&gt;n13 -->
<g id="edge13" class="edge">
<title>n11&#45;&gt;n13</title>
<path fill="none" stroke="black" d="M1056,-121.81C1056,-102.11 1056,-69.58 1056,-46.39"/>
<polygon fill="black" stroke="black" points="1059.5,-46.16 1056,-36.16 1052.5,-46.16 1059.5,-46.16"/>
</g>
</g>
</svg>
