<?xml version="1.0" encoding="UTF-8" standalone="no"?>
<!DOCTYPE svg PUBLIC "-//W3C//DTD SVG 1.1//EN"
 "http://www.w3.org/Graphics/SVG/1.1/DTD/svg11.dtd">
<!-- Generated by graphviz version 2.43.0 (0)
 -->
<!-- Pages: 1 -->
<svg width="934pt" height="410pt"
 viewBox="0.00 0.00 934.00 410.00" xmlns="http://www.w3.org/2000/svg" xmlns:xlink="http://www.w3.org/1999/xlink">
<g id="graph0" class="graph" transform="scale(1 1) rotate(0) translate(4 406)">
<polygon fill="white" stroke="transparent" points="-4,4 -4,-406 930,-406 930,4 -4,4"/>
<!-- n1 -->
<g id="node1" class="node">
<title>n1</title>
<polygon fill="lightblue" stroke="black" points="758.5,-384 647,-402 424,-402 312.5,-384 424,-366 647,-366 758.5,-384"/>
<text text-anchor="middle" x="535.5" y="-380.3" font-family="Arial" font-size="14.00">Draw a string telephone between two students.</text>
</g>
<!-- n2 -->
<g id="node2" class="node">
<title>n2</title>
<polygon fill="#fffdd0" stroke="black" points="334,-280 115,-280 115,-244 334,-244 334,-280"/>
<text text-anchor="middle" x="224.5" y="-258.3" font-family="Arial" font-size="14.00">Two students with cans and string</text>
</g>
<!-- n1&#45;&gt;n2 -->
<g id="edge1" class="edge">
<title>n1&#45;&gt;n2</title>
<path fill="none" stroke="black" d="M491.27,-365.93C435.08,-344.25 338.18,-306.86 277.92,-283.61"/>
<polygon fill="black" stroke="black" points="279.17,-280.34 268.58,-280.01 276.65,-286.87 279.17,-280.34"/>
</g>
<!-- n3 -->
<g id="node3" class="node">
<title>n3</title>
<polygon fill="#fffdd0" stroke="black" points="648.5,-280 422.5,-280 422.5,-244 648.5,-244 648.5,-280"/>
<text text-anchor="middle" x="535.5" y="-258.3" font-family="Arial" font-size="14.00">Sound waves depicted along string</text>
</g>
<!-- n1&#45;&gt;n3 -->
<g id="edge2" class="edge">
<title>n1&#45;&gt;n3</title>
<path fill="none" stroke="black" d="M535.5,-365.81C535.5,-346.11 535.5,-313.58 535.5,-290.39"/>
<polygon fill="black" stroke="black" points="539,-290.16 535.5,-280.16 532,-290.16 539,-290.16"/>
</g>
<!-- n4 -->
<g id="node4" class="node">
<title>n4</title>
<polygon fill="#fffdd0" stroke="black" points="926,-280 707,-280 707,-244 926,-244 926,-280"/>
<text text-anchor="middle" x="816.5" y="-258.3" font-family="Arial" font-size="14.00">Students interacting, one listening</text>
</g>
<!-- n1&#45;&gt;n4 -->
<g id="edge3" class="edge">
<title>n1&#45;&gt;n4</title>
<path fill="none" stroke="black" d="M575.46,-365.93C625.92,-344.39 712.71,-307.32 767.22,-284.04"/>
<polygon fill="black" stroke="black" points="768.85,-287.15 776.68,-280.01 766.11,-280.71 768.85,-287.15"/>
</g>
<!-- n5 -->
<g id="node5" class="node">
<title>n5</title>
<path fill="palegreen" stroke="black" d="M317,-158C317,-158 12,-158 12,-158 6,-158 0,-152 0,-146 0,-146 0,-134 0,-134 0,-128 6,-122 12,-122 12,-122 317,-122 317,-122 323,-122 329,-128 329,-134 329,-134 329,-146 329,-146 329,-152 323,-158 317,-158"/>
<text text-anchor="middle" x="164.5" y="-136.3" font-family="Arial" font-size="14.00">Cans and string used to communicate over distance</text>
</g>
<!-- n2&#45;&gt;n5 -->
<g id="edge4" class="edge">
<title>n2&#45;&gt;n5</title>
<path fill="none" stroke="black" d="M215.9,-243.81C205.88,-223.76 189.2,-190.4 177.57,-167.14"/>
<polygon fill="black" stroke="black" points="180.68,-165.54 173.08,-158.16 174.42,-168.67 180.68,-165.54"/>
</g>
<!-- n6 -->
<g id="node6" class="node">
<title>n6</title>
<polygon fill="lightcoral" stroke="black" points="566.5,-158 387.03,-140 566.5,-122 745.97,-140 566.5,-158"/>
<text text-anchor="middle" x="566.5" y="-136.3" font-family="Arial" font-size="14.00">Sound waves not fully labeled</text>
</g>
<!-- n3&#45;&gt;n6 -->
<g id="edge5" class="edge">
<title>n3&#45;&gt;n6</title>
<path fill="none" stroke="black" d="M539.94,-243.81C545.08,-223.91 553.61,-190.92 559.61,-167.68"/>
<polygon fill="black" stroke="black" points="563.06,-168.33 562.17,-157.77 556.28,-166.58 563.06,-168.33"/>
</g>
<!-- n7 -->
<g id="node7" class="node">
<title>n7</title>
<polygon fill="#f28e8e" stroke="black" points="716,-36 417,-36 417,0 716,0 716,-36"/>
<text text-anchor="middle" x="566.5" y="-14.3" font-family="Arial" font-size="14.00">Handling labeling of sound waves and direction</text>
</g>
<!-- n6&#45;&gt;n7 -->
<g id="edge6" class="edge">
<title>n6&#45;&gt;n7</title>
<path fill="none" stroke="black" d="M566.5,-121.81C566.5,-102.11 566.5,-69.58 566.5,-46.39"/>
<polygon fill="black" stroke="black" points="570,-46.16 566.5,-36.16 563,-46.16 570,-46.16"/>
</g>
</g>
</svg>
