<?xml version="1.0" encoding="UTF-8" standalone="no"?>
<!DOCTYPE svg PUBLIC "-//W3C//DTD SVG 1.1//EN"
 "http://www.w3.org/Graphics/SVG/1.1/DTD/svg11.dtd">
<!-- Generated by graphviz version 2.43.0 (0)
 -->
<!-- Pages: 1 -->
<svg width="1238pt" height="532pt"
 viewBox="0.00 0.00 1237.50 532.00" xmlns="http://www.w3.org/2000/svg" xmlns:xlink="http://www.w3.org/1999/xlink">
<g id="graph0" class="graph" transform="scale(1 1) rotate(0) translate(4 528)">
<polygon fill="white" stroke="transparent" points="-4,4 -4,-528 1233.5,-528 1233.5,4 -4,4"/>
<!-- n1 -->
<g id="node1" class="node">
<title>n1</title>
<polygon fill="lightblue" stroke="black" points="544.5,-506 452.5,-524 268.5,-524 176.5,-506 268.5,-488 452.5,-488 544.5,-506"/>
<text text-anchor="middle" x="360.5" y="-502.3" font-family="Arial" font-size="14.00">Illustrate plants with and without water</text>
</g>
<!-- n2 -->
<g id="node2" class="node">
<title>n2</title>
<polygon fill="#fffdd0" stroke="black" points="438.5,-402 282.5,-402 282.5,-366 438.5,-366 438.5,-402"/>
<text text-anchor="middle" x="360.5" y="-380.3" font-family="Arial" font-size="14.00">Two plants side by side</text>
</g>
<!-- n1&#45;&gt;n2 -->
<g id="edge1" class="edge">
<title>n1&#45;&gt;n2</title>
<path fill="none" stroke="black" d="M360.5,-487.81C360.5,-468.11 360.5,-435.58 360.5,-412.39"/>
<polygon fill="black" stroke="black" points="364,-412.16 360.5,-402.16 357,-412.16 364,-412.16"/>
</g>
<!-- n3 -->
<g id="node3" class="node">
<title>n3</title>
<polygon fill="#fffdd0" stroke="black" points="323,-280 0,-280 0,-244 323,-244 323,-280"/>
<text text-anchor="middle" x="161.5" y="-258.3" font-family="Arial" font-size="14.00">Healthy plant with green leaves, raindrops, and sun</text>
</g>
<!-- n1&#45;&gt;n3 -->
<g id="edge2" class="edge">
<title>n1&#45;&gt;n3</title>
<path fill="none" stroke="black" d="M340.28,-487.95C317.75,-468.43 280.9,-434.89 253.5,-402 222.75,-365.08 193.19,-317.58 176.21,-288.76"/>
<polygon fill="black" stroke="black" points="179.21,-286.96 171.15,-280.09 173.17,-290.49 179.21,-286.96"/>
</g>
<!-- n4 -->
<g id="node4" class="node">
<title>n4</title>
<polygon fill="#fffdd0" stroke="black" points="695.5,-280 381.5,-280 381.5,-244 695.5,-244 695.5,-280"/>
<text text-anchor="middle" x="538.5" y="-258.3" font-family="Arial" font-size="14.00">Wilted plant with brown leaves, clouds, and moon</text>
</g>
<!-- n1&#45;&gt;n4 -->
<g id="edge3" class="edge">
<title>n1&#45;&gt;n4</title>
<path fill="none" stroke="black" d="M382.26,-487.81C405.48,-468.68 442.3,-435.96 467.5,-402 494.08,-366.18 515.83,-318.96 527.97,-289.81"/>
<polygon fill="black" stroke="black" points="531.31,-290.88 531.86,-280.3 524.83,-288.23 531.31,-290.88"/>
</g>
<!-- n2&#45;&gt;n3 -->
<g id="edge4" class="edge">
<title>n2&#45;&gt;n3</title>
<path fill="none" stroke="black" d="M331.99,-365.81C296.97,-344.69 237.46,-308.81 198.83,-285.51"/>
<polygon fill="black" stroke="black" points="200.33,-282.33 189.96,-280.16 196.72,-288.32 200.33,-282.33"/>
</g>
<!-- n2&#45;&gt;n4 -->
<g id="edge5" class="edge">
<title>n2&#45;&gt;n4</title>
<path fill="none" stroke="black" d="M386,-365.81C417.2,-344.78 470.11,-309.11 504.68,-285.8"/>
<polygon fill="black" stroke="black" points="506.71,-288.65 513.04,-280.16 502.79,-282.85 506.71,-288.65"/>
</g>
<!-- n5 -->
<g id="node5" class="node">
<title>n5</title>
<path fill="palegreen" stroke="black" d="M256.5,-158C256.5,-158 66.5,-158 66.5,-158 60.5,-158 54.5,-152 54.5,-146 54.5,-146 54.5,-134 54.5,-134 54.5,-128 60.5,-122 66.5,-122 66.5,-122 256.5,-122 256.5,-122 262.5,-122 268.5,-128 268.5,-134 268.5,-134 268.5,-146 268.5,-146 268.5,-152 262.5,-158 256.5,-158"/>
<text text-anchor="middle" x="161.5" y="-136.3" font-family="Arial" font-size="14.00">Water and light help plant growth</text>
</g>
<!-- n3&#45;&gt;n5 -->
<g id="edge6" class="edge">
<title>n3&#45;&gt;n5</title>
<path fill="none" stroke="black" d="M161.5,-243.81C161.5,-224.11 161.5,-191.58 161.5,-168.39"/>
<polygon fill="black" stroke="black" points="165,-168.16 161.5,-158.16 158,-168.16 165,-168.16"/>
</g>
<!-- n6 -->
<g id="node6" class="node">
<title>n6</title>
<path fill="palegreen" stroke="black" d="M636,-158C636,-158 373,-158 373,-158 367,-158 361,-152 361,-146 361,-146 361,-134 361,-134 361,-128 367,-122 373,-122 373,-122 636,-122 636,-122 642,-122 648,-128 648,-134 648,-134 648,-146 648,-146 648,-152 642,-158 636,-158"/>
<text text-anchor="middle" x="504.5" y="-136.3" font-family="Arial" font-size="14.00">Plant is shown unhealthy due to lack of water</text>
</g>
<!-- n4&#45;&gt;n6 -->
<g id="edge7" class="edge">
<title>n4&#45;&gt;n6</title>
<path fill="none" stroke="black" d="M533.63,-243.81C528.02,-224.02 518.75,-191.29 512.17,-168.08"/>
<polygon fill="black" stroke="black" points="515.45,-166.83 509.36,-158.16 508.72,-168.74 515.45,-166.83"/>
</g>
<!-- n7 -->
<g id="node7" class="node">
<title>n7</title>
<polygon fill="lightcoral" stroke="black" points="967.5,-158 705.5,-140 967.5,-122 1229.5,-140 967.5,-158"/>
<text text-anchor="middle" x="967.5" y="-136.3" font-family="Arial" font-size="14.00">Clouds and moon suggest misunderstanding</text>
</g>
<!-- n4&#45;&gt;n7 -->
<g id="edge8" class="edge">
<title>n4&#45;&gt;n7</title>
<path fill="none" stroke="black" d="M599.51,-243.93C681.81,-220.91 827.42,-180.18 908.62,-157.47"/>
<polygon fill="black" stroke="black" points="909.98,-160.72 918.67,-154.66 908.1,-153.98 909.98,-160.72"/>
</g>
<!-- n8 -->
<g id="node8" class="node">
<title>n8</title>
<polygon fill="#f28e8e" stroke="black" points="1130,-36 805,-36 805,0 1130,0 1130,-36"/>
<text text-anchor="middle" x="967.5" y="-14.3" font-family="Arial" font-size="14.00">Use rain instead of clouds, and no moon in daytime</text>
</g>
<!-- n7&#45;&gt;n8 -->
<g id="edge9" class="edge">
<title>n7&#45;&gt;n8</title>
<path fill="none" stroke="black" d="M967.5,-121.81C967.5,-102.11 967.5,-69.58 967.5,-46.39"/>
<polygon fill="black" stroke="black" points="971,-46.16 967.5,-36.16 964,-46.16 971,-46.16"/>
</g>
</g>
</svg>
