<?xml version="1.0" encoding="UTF-8" standalone="no"?>
<!DOCTYPE svg PUBLIC "-//W3C//DTD SVG 1.1//EN"
 "http://www.w3.org/Graphics/SVG/1.1/DTD/svg11.dtd">
<!-- Generated by graphviz version 2.43.0 (0)
 -->
<!-- Pages: 1 -->
<svg width="1934pt" height="410pt"
 viewBox="0.00 0.00 1934.00 410.00" xmlns="http://www.w3.org/2000/svg" xmlns:xlink="http://www.w3.org/1999/xlink">
<g id="graph0" class="graph" transform="scale(1 1) rotate(0) translate(4 406)">
<polygon fill="white" stroke="transparent" points="-4,4 -4,-406 1930,-406 1930,4 -4,4"/>
<!-- n1 -->
<g id="node1" class="node">
<title>n1</title>
<polygon fill="lightblue" stroke="black" points="588.5,-384 477,-402 254,-402 142.5,-384 254,-366 477,-366 588.5,-384"/>
<text text-anchor="middle" x="365.5" y="-380.3" font-family="Arial" font-size="14.00">Draw a string telephone between two students.</text>
</g>
<!-- n2 -->
<g id="node2" class="node">
<title>n2</title>
<polygon fill="#fffdd0" stroke="black" points="217.5,-280 53.5,-280 53.5,-244 217.5,-244 217.5,-280"/>
<text text-anchor="middle" x="135.5" y="-258.3" font-family="Arial" font-size="14.00">Two stick figure students</text>
</g>
<!-- n1&#45;&gt;n2 -->
<g id="edge1" class="edge">
<title>n1&#45;&gt;n2</title>
<path fill="none" stroke="black" d="M332.55,-365.81C291.73,-344.51 222.13,-308.2 177.51,-284.92"/>
<polygon fill="black" stroke="black" points="178.87,-281.68 168.39,-280.16 175.64,-287.89 178.87,-281.68"/>
</g>
<!-- n3 -->
<g id="node3" class="node">
<title>n3</title>
<polygon fill="#fffdd0" stroke="black" points="455,-280 276,-280 276,-244 455,-244 455,-280"/>
<text text-anchor="middle" x="365.5" y="-258.3" font-family="Arial" font-size="14.00">Each student holding a cup</text>
</g>
<!-- n1&#45;&gt;n3 -->
<g id="edge2" class="edge">
<title>n1&#45;&gt;n3</title>
<path fill="none" stroke="black" d="M365.5,-365.81C365.5,-346.11 365.5,-313.58 365.5,-290.39"/>
<polygon fill="black" stroke="black" points="369,-290.16 365.5,-280.16 362,-290.16 369,-290.16"/>
</g>
<!-- n4 -->
<g id="node4" class="node">
<title>n4</title>
<polygon fill="#fffdd0" stroke="black" points="1001,-280 826,-280 826,-244 1001,-244 1001,-280"/>
<text text-anchor="middle" x="913.5" y="-258.3" font-family="Arial" font-size="14.00">Straight line between cups</text>
</g>
<!-- n1&#45;&gt;n4 -->
<g id="edge3" class="edge">
<title>n1&#45;&gt;n4</title>
<path fill="none" stroke="black" d="M443.14,-366C544.11,-343.89 720.03,-305.37 825.74,-282.22"/>
<polygon fill="black" stroke="black" points="826.73,-285.59 835.75,-280.03 825.23,-278.75 826.73,-285.59"/>
</g>
<!-- n5 -->
<g id="node5" class="node">
<title>n5</title>
<path fill="palegreen" stroke="black" d="M259,-158C259,-158 12,-158 12,-158 6,-158 0,-152 0,-146 0,-146 0,-134 0,-134 0,-128 6,-122 12,-122 12,-122 259,-122 259,-122 265,-122 271,-128 271,-134 271,-134 271,-146 271,-146 271,-152 265,-158 259,-158"/>
<text text-anchor="middle" x="135.5" y="-136.3" font-family="Arial" font-size="14.00">Identifies basic components: cups and line</text>
</g>
<!-- n2&#45;&gt;n5 -->
<g id="edge4" class="edge">
<title>n2&#45;&gt;n5</title>
<path fill="none" stroke="black" d="M135.5,-243.81C135.5,-224.11 135.5,-191.58 135.5,-168.39"/>
<polygon fill="black" stroke="black" points="139,-168.16 135.5,-158.16 132,-168.16 139,-168.16"/>
</g>
<!-- n3&#45;&gt;n5 -->
<g id="edge5" class="edge">
<title>n3&#45;&gt;n5</title>
<path fill="none" stroke="black" d="M332.55,-243.81C291.73,-222.51 222.13,-186.2 177.51,-162.92"/>
<polygon fill="black" stroke="black" points="178.87,-159.68 168.39,-158.16 175.64,-165.89 178.87,-159.68"/>
</g>
<!-- n6 -->
<g id="node6" class="node">
<title>n6</title>
<polygon fill="lightcoral" stroke="black" points="620.5,-158 329,-140 620.5,-122 912,-140 620.5,-158"/>
<text text-anchor="middle" x="620.5" y="-136.3" font-family="Arial" font-size="14.00">String acts as a medium for sound not understood</text>
</g>
<!-- n4&#45;&gt;n6 -->
<g id="edge6" class="edge">
<title>n4&#45;&gt;n6</title>
<path fill="none" stroke="black" d="M871.83,-243.93C817.47,-221.67 722.66,-182.84 666.32,-159.77"/>
<polygon fill="black" stroke="black" points="667.52,-156.48 656.94,-155.93 664.87,-162.96 667.52,-156.48"/>
</g>
<!-- n7 -->
<g id="node7" class="node">
<title>n7</title>
<polygon fill="lightcoral" stroke="black" points="1207.5,-158 970.21,-140 1207.5,-122 1444.79,-140 1207.5,-158"/>
<text text-anchor="middle" x="1207.5" y="-136.3" font-family="Arial" font-size="14.00">No labels explaining sound transmission</text>
</g>
<!-- n4&#45;&gt;n7 -->
<g id="edge7" class="edge">
<title>n4&#45;&gt;n7</title>
<path fill="none" stroke="black" d="M955.31,-243.93C1010.3,-221.49 1106.6,-182.2 1162.9,-159.2"/>
<polygon fill="black" stroke="black" points="1164.35,-162.39 1172.3,-155.38 1161.72,-155.9 1164.35,-162.39"/>
</g>
<!-- n8 -->
<g id="node8" class="node">
<title>n8</title>
<polygon fill="lightcoral" stroke="black" points="1714.5,-158 1503,-140 1714.5,-122 1926,-140 1714.5,-158"/>
<text text-anchor="middle" x="1714.5" y="-136.3" font-family="Arial" font-size="14.00">Misses depicting how sound travels</text>
</g>
<!-- n4&#45;&gt;n8 -->
<g id="edge8" class="edge">
<title>n4&#45;&gt;n8</title>
<path fill="none" stroke="black" d="M1001.1,-247.87C1156.9,-224.54 1479.8,-176.16 1631.9,-153.38"/>
<polygon fill="black" stroke="black" points="1632.73,-156.79 1642.1,-151.85 1631.69,-149.87 1632.73,-156.79"/>
</g>
<!-- n9 -->
<g id="node9" class="node">
<title>n9</title>
<polygon fill="#f28e8e" stroke="black" points="798,-36 443,-36 443,0 798,0 798,-36"/>
<text text-anchor="middle" x="620.5" y="-14.3" font-family="Arial" font-size="14.00">Add labels to show how sound travels through the string.</text>
</g>
<!-- n6&#45;&gt;n9 -->
<g id="edge9" class="edge">
<title>n6&#45;&gt;n9</title>
<path fill="none" stroke="black" d="M620.5,-121.81C620.5,-102.11 620.5,-69.58 620.5,-46.39"/>
<polygon fill="black" stroke="black" points="624,-46.16 620.5,-36.16 617,-46.16 624,-46.16"/>
</g>
<!-- n10 -->
<g id="node10" class="node">
<title>n10</title>
<polygon fill="#f28e8e" stroke="black" points="1882.5,-36 1546.5,-36 1546.5,0 1882.5,0 1882.5,-36"/>
<text text-anchor="middle" x="1714.5" y="-14.3" font-family="Arial" font-size="14.00">Include elements showing sound waves or vibrations.</text>
</g>
<!-- n8&#45;&gt;n10 -->
<g id="edge10" class="edge">
<title>n8&#45;&gt;n10</title>
<path fill="none" stroke="black" d="M1714.5,-121.81C1714.5,-102.11 1714.5,-69.58 1714.5,-46.39"/>
<polygon fill="black" stroke="black" points="1718,-46.16 1714.5,-36.16 1711,-46.16 1718,-46.16"/>
</g>
</g>
</svg>
