<?xml version="1.0" encoding="UTF-8" standalone="no"?>
<!DOCTYPE svg PUBLIC "-//W3C//DTD SVG 1.1//EN"
 "http://www.w3.org/Graphics/SVG/1.1/DTD/svg11.dtd">
<!-- Generated by graphviz version 2.43.0 (0)
 -->
<!-- Pages: 1 -->
<svg width="934pt" height="288pt"
 viewBox="0.00 0.00 934.19 288.00" xmlns="http://www.w3.org/2000/svg" xmlns:xlink="http://www.w3.org/1999/xlink">
<g id="graph0" class="graph" transform="scale(1 1) rotate(0) translate(4 284)">
<polygon fill="white" stroke="transparent" points="-4,4 -4,-284 930.19,-284 930.19,4 -4,4"/>
<!-- n1 -->
<g id="node1" class="node">
<title>n1</title>
<polygon fill="lightblue" stroke="black" points="570.56,-262 427.87,-280 142.5,-280 -0.19,-262 142.5,-244 427.87,-244 570.56,-262"/>
<text text-anchor="middle" x="285.19" y="-258.3" font-family="Arial" font-size="14.00">Draw animals in their habitats with labels (e.g., fish in water).</text>
</g>
<!-- n2 -->
<g id="node2" class="node">
<title>n2</title>
<polygon fill="#fffdd0" stroke="black" points="257.69,-158 164.69,-158 164.69,-122 257.69,-122 257.69,-158"/>
<text text-anchor="middle" x="211.19" y="-136.3" font-family="Arial" font-size="14.00">Fish in water</text>
</g>
<!-- n1&#45;&gt;n2 -->
<g id="edge1" class="edge">
<title>n1&#45;&gt;n2</title>
<path fill="none" stroke="black" d="M274.58,-243.81C262.16,-223.67 241.47,-190.1 227.11,-166.83"/>
<polygon fill="black" stroke="black" points="229.99,-164.84 221.77,-158.16 224.03,-168.51 229.99,-164.84"/>
</g>
<!-- n3 -->
<g id="node3" class="node">
<title>n3</title>
<polygon fill="#fffdd0" stroke="black" points="479.19,-158 393.19,-158 393.19,-122 479.19,-122 479.19,-158"/>
<text text-anchor="middle" x="436.19" y="-136.3" font-family="Arial" font-size="14.00">Bird on tree</text>
</g>
<!-- n1&#45;&gt;n3 -->
<g id="edge2" class="edge">
<title>n1&#45;&gt;n3</title>
<path fill="none" stroke="black" d="M306.82,-243.81C333.06,-222.96 377.41,-187.71 406.74,-164.4"/>
<polygon fill="black" stroke="black" points="408.94,-167.12 414.59,-158.16 404.58,-161.64 408.94,-167.12"/>
</g>
<!-- n4 -->
<g id="node4" class="node">
<title>n4</title>
<path fill="palegreen" stroke="black" d="M255.69,-36C255.69,-36 12.69,-36 12.69,-36 6.69,-36 0.69,-30 0.69,-24 0.69,-24 0.69,-12 0.69,-12 0.69,-6 6.69,0 12.69,0 12.69,0 255.69,0 255.69,0 261.69,0 267.69,-6 267.69,-12 267.69,-12 267.69,-24 267.69,-24 267.69,-30 261.69,-36 255.69,-36"/>
<text text-anchor="middle" x="134.19" y="-14.3" font-family="Arial" font-size="14.00">Student understands that fish live in water</text>
</g>
<!-- n2&#45;&gt;n4 -->
<g id="edge3" class="edge">
<title>n2&#45;&gt;n4</title>
<path fill="none" stroke="black" d="M200.15,-121.81C187.23,-101.67 165.69,-68.1 150.76,-44.83"/>
<polygon fill="black" stroke="black" points="153.54,-42.69 145.2,-36.16 147.65,-46.47 153.54,-42.69"/>
</g>
<!-- n5 -->
<g id="node5" class="node">
<title>n5</title>
<path fill="palegreen" stroke="black" d="M534.19,-36C534.19,-36 338.19,-36 338.19,-36 332.19,-36 326.19,-30 326.19,-24 326.19,-24 326.19,-12 326.19,-12 326.19,-6 332.19,0 338.19,0 338.19,0 534.19,0 534.19,0 540.19,0 546.19,-6 546.19,-12 546.19,-12 546.19,-24 546.19,-24 546.19,-30 540.19,-36 534.19,-36"/>
<text text-anchor="middle" x="436.19" y="-14.3" font-family="Arial" font-size="14.00">Student relates bird to tree habitat</text>
</g>
<!-- n3&#45;&gt;n5 -->
<g id="edge4" class="edge">
<title>n3&#45;&gt;n5</title>
<path fill="none" stroke="black" d="M436.19,-121.81C436.19,-102.11 436.19,-69.58 436.19,-46.39"/>
<polygon fill="black" stroke="black" points="439.69,-46.16 436.19,-36.16 432.69,-46.16 439.69,-46.16"/>
</g>
<!-- n6 -->
<g id="node6" class="node">
<title>n6</title>
<path fill="palegreen" stroke="black" d="M914.19,-36C914.19,-36 616.19,-36 616.19,-36 610.19,-36 604.19,-30 604.19,-24 604.19,-24 604.19,-12 604.19,-12 604.19,-6 610.19,0 616.19,0 616.19,0 914.19,0 914.19,0 920.19,0 926.19,-6 926.19,-12 926.19,-12 926.19,-24 926.19,-24 926.19,-30 920.19,-36 914.19,-36"/>
<text text-anchor="middle" x="765.19" y="-14.3" font-family="Arial" font-size="14.00">Student represents basic needs like bird with worm</text>
</g>
<!-- n3&#45;&gt;n6 -->
<g id="edge5" class="edge">
<title>n3&#45;&gt;n6</title>
<path fill="none" stroke="black" d="M479.2,-123.31C538.01,-101.86 643.64,-63.33 708.75,-39.58"/>
<polygon fill="black" stroke="black" points="710.25,-42.76 718.45,-36.05 707.85,-36.18 710.25,-42.76"/>
</g>
</g>
</svg>
