<?xml version="1.0" encoding="UTF-8" standalone="no"?>
<!DOCTYPE svg PUBLIC "-//W3C//DTD SVG 1.1//EN"
 "http://www.w3.org/Graphics/SVG/1.1/DTD/svg11.dtd">
<!-- Generated by graphviz version 2.43.0 (0)
 -->
<!-- Pages: 1 -->
<svg width="1517pt" height="410pt"
 viewBox="0.00 0.00 1517.00 410.00" xmlns="http://www.w3.org/2000/svg" xmlns:xlink="http://www.w3.org/1999/xlink">
<g id="graph0" class="graph" transform="scale(1 1) rotate(0) translate(4 406)">
<polygon fill="white" stroke="transparent" points="-4,4 -4,-406 1513,-406 1513,4 -4,4"/>
<!-- n1 -->
<g id="node1" class="node">
<title>n1</title>
<polygon fill="lightblue" stroke="black" points="1248.24,-384 1155.12,-402 968.88,-402 875.76,-384 968.88,-366 1155.12,-366 1248.24,-384"/>
<text text-anchor="middle" x="1062" y="-380.3" font-family="Arial" font-size="14.00">Illustrate plants with and without water.</text>
</g>
<!-- n2 -->
<g id="node2" class="node">
<title>n2</title>
<polygon fill="#fffdd0" stroke="black" points="732,-280 296,-280 296,-244 732,-244 732,-280"/>
<text text-anchor="middle" x="514" y="-258.3" font-family="Arial" font-size="14.00">Two plants side by side: one with green leaves, one with brown leaves</text>
</g>
<!-- n1&#45;&gt;n2 -->
<g id="edge1" class="edge">
<title>n1&#45;&gt;n2</title>
<path fill="none" stroke="black" d="M984.36,-366C883.39,-343.89 707.47,-305.37 601.76,-282.22"/>
<polygon fill="black" stroke="black" points="602.27,-278.75 591.75,-280.03 600.77,-285.59 602.27,-278.75"/>
</g>
<!-- n3 -->
<g id="node3" class="node">
<title>n3</title>
<polygon fill="#fffdd0" stroke="black" points="1172.5,-280 951.5,-280 951.5,-244 1172.5,-244 1172.5,-280"/>
<text text-anchor="middle" x="1062" y="-258.3" font-family="Arial" font-size="14.00">Bright yellow sun above the plants</text>
</g>
<!-- n1&#45;&gt;n3 -->
<g id="edge2" class="edge">
<title>n1&#45;&gt;n3</title>
<path fill="none" stroke="black" d="M1062,-365.81C1062,-346.11 1062,-313.58 1062,-290.39"/>
<polygon fill="black" stroke="black" points="1065.5,-290.16 1062,-280.16 1058.5,-290.16 1065.5,-290.16"/>
</g>
<!-- n4 -->
<g id="node4" class="node">
<title>n4</title>
<polygon fill="#fffdd0" stroke="black" points="1509,-280 1231,-280 1231,-244 1509,-244 1509,-280"/>
<text text-anchor="middle" x="1370" y="-258.3" font-family="Arial" font-size="14.00">Animals: rabbit and butterfly near the plants</text>
</g>
<!-- n1&#45;&gt;n4 -->
<g id="edge3" class="edge">
<title>n1&#45;&gt;n4</title>
<path fill="none" stroke="black" d="M1105.8,-365.93C1161.3,-344.3 1257,-307.02 1316.7,-283.76"/>
<polygon fill="black" stroke="black" points="1318.26,-286.91 1326.3,-280.01 1315.71,-280.39 1318.26,-286.91"/>
</g>
<!-- n5 -->
<g id="node5" class="node">
<title>n5</title>
<path fill="palegreen" stroke="black" d="M194,-158C194,-158 12,-158 12,-158 6,-158 0,-152 0,-146 0,-146 0,-134 0,-134 0,-128 6,-122 12,-122 12,-122 194,-122 194,-122 200,-122 206,-128 206,-134 206,-134 206,-146 206,-146 206,-152 200,-158 194,-158"/>
<text text-anchor="middle" x="103" y="-136.3" font-family="Arial" font-size="14.00">Healthy plant has enough water</text>
</g>
<!-- n2&#45;&gt;n5 -->
<g id="edge4" class="edge">
<title>n2&#45;&gt;n5</title>
<path fill="none" stroke="black" d="M455.55,-243.93C380.53,-222.03 250.59,-184.09 171.16,-160.9"/>
<polygon fill="black" stroke="black" points="171.83,-157.45 161.25,-158.01 169.87,-164.17 171.83,-157.45"/>
</g>
<!-- n6 -->
<g id="node6" class="node">
<title>n6</title>
<path fill="palegreen" stroke="black" d="M428,-158C428,-158 276,-158 276,-158 270,-158 264,-152 264,-146 264,-146 264,-134 264,-134 264,-128 270,-122 276,-122 276,-122 428,-122 428,-122 434,-122 440,-128 440,-134 440,-134 440,-146 440,-146 440,-152 434,-158 428,-158"/>
<text text-anchor="middle" x="352" y="-136.3" font-family="Arial" font-size="14.00">Drooping plant lacks water</text>
</g>
<!-- n2&#45;&gt;n6 -->
<g id="edge5" class="edge">
<title>n2&#45;&gt;n6</title>
<path fill="none" stroke="black" d="M490.79,-243.81C462.64,-222.96 415.06,-187.71 383.59,-164.4"/>
<polygon fill="black" stroke="black" points="385.29,-161.3 375.17,-158.16 381.12,-166.93 385.29,-161.3"/>
</g>
<!-- n9 -->
<g id="node7" class="node">
<title>n9</title>
<polygon fill="lightcoral" stroke="black" points="703,-158 498,-140 703,-122 908,-140 703,-158"/>
<text text-anchor="middle" x="703" y="-136.3" font-family="Arial" font-size="14.00">Simplified ground lacks soil details</text>
</g>
<!-- n2&#45;&gt;n9 -->
<g id="edge6" class="edge">
<title>n2&#45;&gt;n9</title>
<path fill="none" stroke="black" d="M541.08,-243.81C575.24,-222.12 633.91,-184.86 670.47,-161.66"/>
<polygon fill="black" stroke="black" points="672.69,-164.39 679.26,-156.08 668.94,-158.48 672.69,-164.39"/>
</g>
<!-- n7 -->
<g id="node8" class="node">
<title>n7</title>
<path fill="palegreen" stroke="black" d="M1174.5,-158C1174.5,-158 977.5,-158 977.5,-158 971.5,-158 965.5,-152 965.5,-146 965.5,-146 965.5,-134 965.5,-134 965.5,-128 971.5,-122 977.5,-122 977.5,-122 1174.5,-122 1174.5,-122 1180.5,-122 1186.5,-128 1186.5,-134 1186.5,-134 1186.5,-146 1186.5,-146 1186.5,-152 1180.5,-158 1174.5,-158"/>
<text text-anchor="middle" x="1076" y="-136.3" font-family="Arial" font-size="14.00">Sun provides light for plant growth</text>
</g>
<!-- n3&#45;&gt;n7 -->
<g id="edge7" class="edge">
<title>n3&#45;&gt;n7</title>
<path fill="none" stroke="black" d="M1064,-243.81C1066.3,-224.11 1070.1,-191.58 1072.8,-168.39"/>
<polygon fill="black" stroke="black" points="1076.31,-168.5 1074,-158.16 1069.36,-167.68 1076.31,-168.5"/>
</g>
<!-- n8 -->
<g id="node9" class="node">
<title>n8</title>
<path fill="palegreen" stroke="black" d="M1469,-158C1469,-158 1271,-158 1271,-158 1265,-158 1259,-152 1259,-146 1259,-146 1259,-134 1259,-134 1259,-128 1265,-122 1271,-122 1271,-122 1469,-122 1469,-122 1475,-122 1481,-128 1481,-134 1481,-134 1481,-146 1481,-146 1481,-152 1475,-158 1469,-158"/>
<text text-anchor="middle" x="1370" y="-136.3" font-family="Arial" font-size="14.00">Animals depend on plants for food</text>
</g>
<!-- n4&#45;&gt;n8 -->
<g id="edge8" class="edge">
<title>n4&#45;&gt;n8</title>
<path fill="none" stroke="black" d="M1370,-243.81C1370,-224.11 1370,-191.58 1370,-168.39"/>
<polygon fill="black" stroke="black" points="1373.5,-168.16 1370,-158.16 1366.5,-168.16 1373.5,-168.16"/>
</g>
<!-- n10 -->
<g id="node10" class="node">
<title>n10</title>
<polygon fill="#f28e8e" stroke="black" points="875,-36 531,-36 531,0 875,0 875,-36"/>
<text text-anchor="middle" x="703" y="-14.3" font-family="Arial" font-size="14.00">Consider adding soil details to show plant environment</text>
</g>
<!-- n9&#45;&gt;n10 -->
<g id="edge9" class="edge">
<title>n9&#45;&gt;n10</title>
<path fill="none" stroke="black" d="M703,-121.81C703,-102.11 703,-69.58 703,-46.39"/>
<polygon fill="black" stroke="black" points="706.5,-46.16 703,-36.16 699.5,-46.16 706.5,-46.16"/>
</g>
</g>
</svg>
