<?xml version="1.0" encoding="UTF-8" standalone="no"?>
<!DOCTYPE svg PUBLIC "-//W3C//DTD SVG 1.1//EN"
 "http://www.w3.org/Graphics/SVG/1.1/DTD/svg11.dtd">
<!-- Generated by graphviz version 2.43.0 (0)
 -->
<!-- Pages: 1 -->
<svg width="1393pt" height="410pt"
 viewBox="0.00 0.00 1393.00 410.00" xmlns="http://www.w3.org/2000/svg" xmlns:xlink="http://www.w3.org/1999/xlink">
<g id="graph0" class="graph" transform="scale(1 1) rotate(0) translate(4 406)">
<polygon fill="white" stroke="transparent" points="-4,4 -4,-406 1389,-406 1389,4 -4,4"/>
<!-- n1 -->
<g id="node1" class="node">
<title>n1</title>
<polygon fill="lightblue" stroke="black" points="860.5,-384 769.25,-402 586.75,-402 495.5,-384 586.75,-366 769.25,-366 860.5,-384"/>
<text text-anchor="middle" x="678" y="-380.3" font-family="Arial" font-size="14.00">Draw reversible changes (ice melting)</text>
</g>
<!-- n2 -->
<g id="node2" class="node">
<title>n2</title>
<polygon fill="#fffdd0" stroke="black" points="824,-280 532,-280 532,-244 824,-244 824,-280"/>
<text text-anchor="middle" x="678" y="-258.3" font-family="Arial" font-size="14.00">Ice labeled &#39;ice&#39;, arrow to water labeled &#39;water&#39;</text>
</g>
<!-- n1&#45;&gt;n2 -->
<g id="edge1" class="edge">
<title>n1&#45;&gt;n2</title>
<path fill="none" stroke="black" d="M678,-365.81C678,-346.11 678,-313.58 678,-290.39"/>
<polygon fill="black" stroke="black" points="681.5,-290.16 678,-280.16 674.5,-290.16 681.5,-290.16"/>
</g>
<!-- n3 -->
<g id="node3" class="node">
<title>n3</title>
<path fill="palegreen" stroke="black" d="M284,-158C284,-158 12,-158 12,-158 6,-158 0,-152 0,-146 0,-146 0,-134 0,-134 0,-128 6,-122 12,-122 12,-122 284,-122 284,-122 290,-122 296,-128 296,-134 296,-134 296,-146 296,-146 296,-152 290,-158 284,-158"/>
<text text-anchor="middle" x="148" y="-136.3" font-family="Arial" font-size="14.00">Correct understanding of ice melting into water</text>
</g>
<!-- n2&#45;&gt;n3 -->
<g id="edge2" class="edge">
<title>n2&#45;&gt;n3</title>
<path fill="none" stroke="black" d="M602.91,-244C505.35,-221.91 335.46,-183.44 233.19,-160.29"/>
<polygon fill="black" stroke="black" points="233.73,-156.82 223.2,-158.03 232.18,-163.65 233.73,-156.82"/>
</g>
<!-- n4 -->
<g id="node4" class="node">
<title>n4</title>
<polygon fill="lightcoral" stroke="black" points="678,-158 354.41,-140 678,-122 1001.59,-140 678,-158"/>
<text text-anchor="middle" x="678" y="-136.3" font-family="Arial" font-size="14.00">Omission of reverse change (water freezing back to ice)</text>
</g>
<!-- n2&#45;&gt;n4 -->
<g id="edge3" class="edge">
<title>n2&#45;&gt;n4</title>
<path fill="none" stroke="black" d="M678,-243.81C678,-224.11 678,-191.58 678,-168.39"/>
<polygon fill="black" stroke="black" points="681.5,-168.16 678,-158.16 674.5,-168.16 681.5,-168.16"/>
</g>
<!-- n6 -->
<g id="node5" class="node">
<title>n6</title>
<polygon fill="lightcoral" stroke="black" points="1208,-158 1059,-140 1208,-122 1357,-140 1208,-158"/>
<text text-anchor="middle" x="1208" y="-136.3" font-family="Arial" font-size="14.00">Basic labeling and detail</text>
</g>
<!-- n2&#45;&gt;n6 -->
<g id="edge4" class="edge">
<title>n2&#45;&gt;n6</title>
<path fill="none" stroke="black" d="M753.09,-244C859.55,-219.89 1052.2,-176.28 1149,-154.35"/>
<polygon fill="black" stroke="black" points="1149.92,-157.73 1158.9,-152.11 1148.37,-150.9 1149.92,-157.73"/>
</g>
<!-- n5 -->
<g id="node6" class="node">
<title>n5</title>
<polygon fill="#f28e8e" stroke="black" points="829,-36 527,-36 527,0 829,0 829,-36"/>
<text text-anchor="middle" x="678" y="-14.3" font-family="Arial" font-size="14.00">Consider illustrating freezing with arrows, labels</text>
</g>
<!-- n4&#45;&gt;n5 -->
<g id="edge5" class="edge">
<title>n4&#45;&gt;n5</title>
<path fill="none" stroke="black" d="M678,-121.81C678,-102.11 678,-69.58 678,-46.39"/>
<polygon fill="black" stroke="black" points="681.5,-46.16 678,-36.16 674.5,-46.16 681.5,-46.16"/>
</g>
<!-- n7 -->
<g id="node7" class="node">
<title>n7</title>
<polygon fill="#f28e8e" stroke="black" points="1385,-36 1031,-36 1031,0 1385,0 1385,-36"/>
<text text-anchor="middle" x="1208" y="-14.3" font-family="Arial" font-size="14.00">Add more detailed labels &#45; describe temperature change</text>
</g>
<!-- n6&#45;&gt;n7 -->
<g id="edge6" class="edge">
<title>n6&#45;&gt;n7</title>
<path fill="none" stroke="black" d="M1208,-121.81C1208,-102.11 1208,-69.58 1208,-46.39"/>
<polygon fill="black" stroke="black" points="1211.5,-46.16 1208,-36.16 1204.5,-46.16 1211.5,-46.16"/>
</g>
</g>
</svg>
