<?xml version="1.0" encoding="UTF-8" standalone="no"?>
<!DOCTYPE svg PUBLIC "-//W3C//DTD SVG 1.1//EN"
 "http://www.w3.org/Graphics/SVG/1.1/DTD/svg11.dtd">
<!-- Generated by graphviz version 2.43.0 (0)
 -->
<!-- Pages: 1 -->
<svg width="1508pt" height="410pt"
 viewBox="0.00 0.00 1508.00 410.00" xmlns="http://www.w3.org/2000/svg" xmlns:xlink="http://www.w3.org/1999/xlink">
<g id="graph0" class="graph" transform="scale(1 1) rotate(0) translate(4 406)">
<polygon fill="white" stroke="transparent" points="-4,4 -4,-406 1504,-406 1504,4 -4,4"/>
<!-- n1 -->
<g id="node1" class="node">
<title>n1</title>
<polygon fill="lightblue" stroke="black" points="606.5,-384 515.25,-402 332.75,-402 241.5,-384 332.75,-366 515.25,-366 606.5,-384"/>
<text text-anchor="middle" x="424" y="-380.3" font-family="Arial" font-size="14.00">Draw reversible changes (ice melting)</text>
</g>
<!-- n2 -->
<g id="node2" class="node">
<title>n2</title>
<polygon fill="#fffdd0" stroke="black" points="228,-280 0,-280 0,-244 228,-244 228,-280"/>
<text text-anchor="middle" x="114" y="-258.3" font-family="Arial" font-size="14.00">Cluster of blue ice cubes with shine</text>
</g>
<!-- n1&#45;&gt;n2 -->
<g id="edge1" class="edge">
<title>n1&#45;&gt;n2</title>
<path fill="none" stroke="black" d="M379.91,-365.93C324.02,-344.3 227.71,-307.02 167.62,-283.76"/>
<polygon fill="black" stroke="black" points="168.52,-280.36 157.93,-280.01 165.99,-286.88 168.52,-280.36"/>
</g>
<!-- n3 -->
<g id="node3" class="node">
<title>n3</title>
<polygon fill="#fffdd0" stroke="black" points="561.5,-280 286.5,-280 286.5,-244 561.5,-244 561.5,-280"/>
<text text-anchor="middle" x="424" y="-258.3" font-family="Arial" font-size="14.00">Ice turning into a clear blue puddle of water</text>
</g>
<!-- n1&#45;&gt;n3 -->
<g id="edge2" class="edge">
<title>n1&#45;&gt;n3</title>
<path fill="none" stroke="black" d="M424,-365.81C424,-346.11 424,-313.58 424,-290.39"/>
<polygon fill="black" stroke="black" points="427.5,-290.16 424,-280.16 420.5,-290.16 427.5,-290.16"/>
</g>
<!-- n4 -->
<g id="node4" class="node">
<title>n4</title>
<polygon fill="#fffdd0" stroke="black" points="934,-280 620,-280 620,-244 934,-244 934,-280"/>
<text text-anchor="middle" x="777" y="-258.3" font-family="Arial" font-size="14.00">Empty space indicating confusion about reversing</text>
</g>
<!-- n1&#45;&gt;n4 -->
<g id="edge3" class="edge">
<title>n1&#45;&gt;n4</title>
<path fill="none" stroke="black" d="M474.2,-365.93C538.24,-344.16 648.87,-306.56 717.21,-283.33"/>
<polygon fill="black" stroke="black" points="718.63,-286.54 726.97,-280.01 716.38,-279.92 718.63,-286.54"/>
</g>
<!-- n5 -->
<g id="node5" class="node">
<title>n5</title>
<path fill="palegreen" stroke="black" d="M315.5,-158C315.5,-158 126.5,-158 126.5,-158 120.5,-158 114.5,-152 114.5,-146 114.5,-146 114.5,-134 114.5,-134 114.5,-128 120.5,-122 126.5,-122 126.5,-122 315.5,-122 315.5,-122 321.5,-122 327.5,-128 327.5,-134 327.5,-134 327.5,-146 327.5,-146 327.5,-152 321.5,-158 315.5,-158"/>
<text text-anchor="middle" x="221" y="-136.3" font-family="Arial" font-size="14.00">Understands ice melts into water</text>
</g>
<!-- n2&#45;&gt;n5 -->
<g id="edge4" class="edge">
<title>n2&#45;&gt;n5</title>
<path fill="none" stroke="black" d="M129.33,-243.81C147.53,-223.4 178.01,-189.21 198.79,-165.91"/>
<polygon fill="black" stroke="black" points="201.66,-167.95 205.7,-158.16 196.43,-163.29 201.66,-167.95"/>
</g>
<!-- n3&#45;&gt;n5 -->
<g id="edge5" class="edge">
<title>n3&#45;&gt;n5</title>
<path fill="none" stroke="black" d="M394.92,-243.81C359.19,-222.69 298.49,-186.81 259.08,-163.51"/>
<polygon fill="black" stroke="black" points="260.42,-160.24 250.03,-158.16 256.86,-166.26 260.42,-160.24"/>
</g>
<!-- n6 -->
<g id="node6" class="node">
<title>n6</title>
<polygon fill="lightcoral" stroke="black" points="723,-158 438,-140 723,-122 1008,-140 723,-158"/>
<text text-anchor="middle" x="723" y="-136.3" font-family="Arial" font-size="14.00">Does not understand water can turn back into ice</text>
</g>
<!-- n4&#45;&gt;n6 -->
<g id="edge6" class="edge">
<title>n4&#45;&gt;n6</title>
<path fill="none" stroke="black" d="M769.26,-243.81C760.23,-223.73 745.19,-190.32 734.72,-167.06"/>
<polygon fill="black" stroke="black" points="737.84,-165.46 730.55,-157.77 731.45,-168.33 737.84,-165.46"/>
</g>
<!-- n7 -->
<g id="node7" class="node">
<title>n7</title>
<polygon fill="lightcoral" stroke="black" points="1283,-158 1066,-140 1283,-122 1500,-140 1283,-158"/>
<text text-anchor="middle" x="1283" y="-136.3" font-family="Arial" font-size="14.00">No examples of irreversible changes</text>
</g>
<!-- n4&#45;&gt;n7 -->
<g id="edge7" class="edge">
<title>n4&#45;&gt;n7</title>
<path fill="none" stroke="black" d="M848.69,-244C947.86,-220.48 1125.3,-178.39 1219.8,-155.99"/>
<polygon fill="black" stroke="black" points="1220.88,-159.33 1229.8,-153.62 1219.26,-152.52 1220.88,-159.33"/>
</g>
<!-- n8 -->
<g id="node8" class="node">
<title>n8</title>
<polygon fill="#f28e8e" stroke="black" points="864,-36 582,-36 582,0 864,0 864,-36"/>
<text text-anchor="middle" x="723" y="-14.3" font-family="Arial" font-size="14.00">Include the cooling process to show reversal</text>
</g>
<!-- n6&#45;&gt;n8 -->
<g id="edge8" class="edge">
<title>n6&#45;&gt;n8</title>
<path fill="none" stroke="black" d="M723,-121.81C723,-102.11 723,-69.58 723,-46.39"/>
<polygon fill="black" stroke="black" points="726.5,-46.16 723,-36.16 719.5,-46.16 726.5,-46.16"/>
</g>
<!-- n9 -->
<g id="node9" class="node">
<title>n9</title>
<polygon fill="#f28e8e" stroke="black" points="1450,-36 1116,-36 1116,0 1450,0 1450,-36"/>
<text text-anchor="middle" x="1283" y="-14.3" font-family="Arial" font-size="14.00">Add examples like a cooked egg or melted chocolate</text>
</g>
<!-- n7&#45;&gt;n9 -->
<g id="edge9" class="edge">
<title>n7&#45;&gt;n9</title>
<path fill="none" stroke="black" d="M1283,-121.81C1283,-102.11 1283,-69.58 1283,-46.39"/>
<polygon fill="black" stroke="black" points="1286.5,-46.16 1283,-36.16 1279.5,-46.16 1286.5,-46.16"/>
</g>
</g>
</svg>
