<?xml version="1.0" encoding="UTF-8" standalone="no"?>
<!DOCTYPE svg PUBLIC "-//W3C//DTD SVG 1.1//EN"
 "http://www.w3.org/Graphics/SVG/1.1/DTD/svg11.dtd">
<!-- Generated by graphviz version 2.43.0 (0)
 -->
<!-- Pages: 1 -->
<svg width="1221pt" height="410pt"
 viewBox="0.00 0.00 1220.50 410.00" xmlns="http://www.w3.org/2000/svg" xmlns:xlink="http://www.w3.org/1999/xlink">
<g id="graph0" class="graph" transform="scale(1 1) rotate(0) translate(4 406)">
<polygon fill="white" stroke="transparent" points="-4,4 -4,-406 1216.5,-406 1216.5,4 -4,4"/>
<!-- n1 -->
<g id="node1" class="node">
<title>n1</title>
<polygon fill="lightblue" stroke="black" points="790.37,-384 647.69,-402 362.31,-402 219.63,-384 362.31,-366 647.69,-366 790.37,-384"/>
<text text-anchor="middle" x="505" y="-380.3" font-family="Arial" font-size="14.00">Draw animals in their habitats with labels (e.g., fish in water).</text>
</g>
<!-- n2 -->
<g id="node2" class="node">
<title>n2</title>
<polygon fill="#fffdd0" stroke="black" points="297.5,-280 208.5,-280 208.5,-244 297.5,-244 297.5,-280"/>
<text text-anchor="middle" x="253" y="-258.3" font-family="Arial" font-size="14.00">fish in water</text>
</g>
<!-- n1&#45;&gt;n2 -->
<g id="edge1" class="edge">
<title>n1&#45;&gt;n2</title>
<path fill="none" stroke="black" d="M469.16,-365.93C424.1,-344.48 346.73,-307.63 297.8,-284.33"/>
<polygon fill="black" stroke="black" points="299.24,-281.14 288.71,-280.01 296.24,-287.46 299.24,-281.14"/>
</g>
<!-- n3 -->
<g id="node3" class="node">
<title>n3</title>
<polygon fill="#fffdd0" stroke="black" points="552.5,-280 457.5,-280 457.5,-244 552.5,-244 552.5,-280"/>
<text text-anchor="middle" x="505" y="-258.3" font-family="Arial" font-size="14.00">deer in forest</text>
</g>
<!-- n1&#45;&gt;n3 -->
<g id="edge2" class="edge">
<title>n1&#45;&gt;n3</title>
<path fill="none" stroke="black" d="M505,-365.81C505,-346.11 505,-313.58 505,-290.39"/>
<polygon fill="black" stroke="black" points="508.5,-290.16 505,-280.16 501.5,-290.16 508.5,-290.16"/>
</g>
<!-- n4 -->
<g id="node4" class="node">
<title>n4</title>
<polygon fill="#fffdd0" stroke="black" points="821,-280 767,-280 767,-244 821,-244 821,-280"/>
<text text-anchor="middle" x="794" y="-258.3" font-family="Arial" font-size="14.00">sun</text>
</g>
<!-- n1&#45;&gt;n4 -->
<g id="edge3" class="edge">
<title>n1&#45;&gt;n4</title>
<path fill="none" stroke="black" d="M546.1,-365.93C602.58,-342.48 703.32,-300.65 757.36,-278.21"/>
<polygon fill="black" stroke="black" points="758.98,-281.33 766.88,-274.26 756.3,-274.86 758.98,-281.33"/>
</g>
<!-- n5 -->
<g id="node5" class="node">
<title>n5</title>
<path fill="palegreen" stroke="black" d="M290,-158C290,-158 12,-158 12,-158 6,-158 0,-152 0,-146 0,-146 0,-134 0,-134 0,-128 6,-122 12,-122 12,-122 290,-122 290,-122 296,-122 302,-128 302,-134 302,-134 302,-146 302,-146 302,-152 296,-158 290,-158"/>
<text text-anchor="middle" x="151" y="-136.3" font-family="Arial" font-size="14.00">Correctly labeled fish living in an aquatic habitat</text>
</g>
<!-- n2&#45;&gt;n5 -->
<g id="edge4" class="edge">
<title>n2&#45;&gt;n5</title>
<path fill="none" stroke="black" d="M238.39,-243.81C221.04,-223.4 191.98,-189.21 172.17,-165.91"/>
<polygon fill="black" stroke="black" points="174.73,-163.52 165.59,-158.16 169.39,-168.05 174.73,-163.52"/>
</g>
<!-- n6 -->
<g id="node6" class="node">
<title>n6</title>
<path fill="palegreen" stroke="black" d="M638,-158C638,-158 372,-158 372,-158 366,-158 360,-152 360,-146 360,-146 360,-134 360,-134 360,-128 366,-122 372,-122 372,-122 638,-122 638,-122 644,-122 650,-128 650,-134 650,-134 650,-146 650,-146 650,-152 644,-158 638,-158"/>
<text text-anchor="middle" x="505" y="-136.3" font-family="Arial" font-size="14.00">Correctly labeled deer living in a forest habitat</text>
</g>
<!-- n3&#45;&gt;n6 -->
<g id="edge5" class="edge">
<title>n3&#45;&gt;n6</title>
<path fill="none" stroke="black" d="M505,-243.81C505,-224.11 505,-191.58 505,-168.39"/>
<polygon fill="black" stroke="black" points="508.5,-168.16 505,-158.16 501.5,-168.16 508.5,-168.16"/>
</g>
<!-- n7 -->
<g id="node7" class="node">
<title>n7</title>
<polygon fill="lightcoral" stroke="black" points="950,-158 708.02,-140 950,-122 1191.98,-140 950,-158"/>
<text text-anchor="middle" x="950" y="-136.3" font-family="Arial" font-size="14.00">Basic understanding of sunlight presence</text>
</g>
<!-- n4&#45;&gt;n7 -->
<g id="edge6" class="edge">
<title>n4&#45;&gt;n7</title>
<path fill="none" stroke="black" d="M816.35,-243.81C844.07,-222.48 891.37,-186.1 921.62,-162.83"/>
<polygon fill="black" stroke="black" points="923.89,-165.5 929.68,-156.63 919.62,-159.95 923.89,-165.5"/>
</g>
<!-- n8 -->
<g id="node8" class="node">
<title>n8</title>
<polygon fill="#f28e8e" stroke="black" points="1212.5,-36 687.5,-36 687.5,0 1212.5,0 1212.5,-36"/>
<text text-anchor="middle" x="950" y="-14.3" font-family="Arial" font-size="14.00">Include more detailed ecological interactions, like how sun affects plants and habitats</text>
</g>
<!-- n7&#45;&gt;n8 -->
<g id="edge7" class="edge">
<title>n7&#45;&gt;n8</title>
<path fill="none" stroke="black" d="M950,-121.81C950,-102.11 950,-69.58 950,-46.39"/>
<polygon fill="black" stroke="black" points="953.5,-46.16 950,-36.16 946.5,-46.16 953.5,-46.16"/>
</g>
</g>
</svg>
