<?xml version="1.0" encoding="UTF-8" standalone="no"?>
<!DOCTYPE svg PUBLIC "-//W3C//DTD SVG 1.1//EN"
 "http://www.w3.org/Graphics/SVG/1.1/DTD/svg11.dtd">
<!-- Generated by graphviz version 2.43.0 (0)
 -->
<!-- Pages: 1 -->
<svg width="1209pt" height="288pt"
 viewBox="0.00 0.00 1208.50 288.00" xmlns="http://www.w3.org/2000/svg" xmlns:xlink="http://www.w3.org/1999/xlink">
<g id="graph0" class="graph" transform="scale(1 1) rotate(0) translate(4 284)">
<polygon fill="white" stroke="transparent" points="-4,4 -4,-284 1204.5,-284 1204.5,4 -4,4"/>
<!-- n1 -->
<g id="node1" class="node">
<title>n1</title>
<polygon fill="lightblue" stroke="black" points="725.5,-262 614,-280 391,-280 279.5,-262 391,-244 614,-244 725.5,-262"/>
<text text-anchor="middle" x="502.5" y="-258.3" font-family="Arial" font-size="14.00">Draw a string telephone between two students.</text>
</g>
<!-- n2 -->
<g id="node2" class="node">
<title>n2</title>
<polygon fill="#fffdd0" stroke="black" points="232,-158 19,-158 19,-122 232,-122 232,-158"/>
<text text-anchor="middle" x="125.5" y="-136.3" font-family="Arial" font-size="14.00">Two students each holding a cup</text>
</g>
<!-- n1&#45;&gt;n2 -->
<g id="edge1" class="edge">
<title>n1&#45;&gt;n2</title>
<path fill="none" stroke="black" d="M448.89,-243.93C380.21,-222.07 261.37,-184.25 188.46,-161.04"/>
<polygon fill="black" stroke="black" points="189.52,-157.7 178.93,-158.01 187.4,-164.38 189.52,-157.7"/>
</g>
<!-- n3 -->
<g id="node3" class="node">
<title>n3</title>
<polygon fill="#fffdd0" stroke="black" points="486.5,-158 310.5,-158 310.5,-122 486.5,-122 486.5,-158"/>
<text text-anchor="middle" x="398.5" y="-136.3" font-family="Arial" font-size="14.00">String connecting the cups</text>
</g>
<!-- n1&#45;&gt;n3 -->
<g id="edge2" class="edge">
<title>n1&#45;&gt;n3</title>
<path fill="none" stroke="black" d="M487.6,-243.81C469.91,-223.4 440.28,-189.21 420.09,-165.91"/>
<polygon fill="black" stroke="black" points="422.57,-163.42 413.37,-158.16 417.28,-168.01 422.57,-163.42"/>
</g>
<!-- n4 -->
<g id="node4" class="node">
<title>n4</title>
<polygon fill="#fffdd0" stroke="black" points="668,-158 545,-158 545,-122 668,-122 668,-158"/>
<text text-anchor="middle" x="606.5" y="-136.3" font-family="Arial" font-size="14.00">Cup labeled &#39;Cup&#39;</text>
</g>
<!-- n1&#45;&gt;n4 -->
<g id="edge3" class="edge">
<title>n1&#45;&gt;n4</title>
<path fill="none" stroke="black" d="M517.4,-243.81C535.09,-223.4 564.72,-189.21 584.91,-165.91"/>
<polygon fill="black" stroke="black" points="587.72,-168.01 591.63,-158.16 582.43,-163.42 587.72,-168.01"/>
</g>
<!-- n5 -->
<g id="node5" class="node">
<title>n5</title>
<polygon fill="#fffdd0" stroke="black" points="1200.5,-158 726.5,-158 726.5,-122 1200.5,-122 1200.5,-158"/>
<text text-anchor="middle" x="963.5" y="-136.3" font-family="Arial" font-size="14.00">Explanation: &#39;When you talk, sound goes through the string to the other cup.&#39;</text>
</g>
<!-- n1&#45;&gt;n5 -->
<g id="edge4" class="edge">
<title>n1&#45;&gt;n5</title>
<path fill="none" stroke="black" d="M568.06,-243.93C652.64,-221.92 799.44,-183.71 888.41,-160.55"/>
<polygon fill="black" stroke="black" points="889.37,-163.92 898.17,-158.01 887.61,-157.14 889.37,-163.92"/>
</g>
<!-- n6 -->
<g id="node6" class="node">
<title>n6</title>
<path fill="palegreen" stroke="black" d="M199,-36C199,-36 12,-36 12,-36 6,-36 0,-30 0,-24 0,-24 0,-12 0,-12 0,-6 6,0 12,0 12,0 199,0 199,0 205,0 211,-6 211,-12 211,-12 211,-24 211,-24 211,-30 205,-36 199,-36"/>
<text text-anchor="middle" x="105.5" y="-14.3" font-family="Arial" font-size="14.00">Illustrates sound communication</text>
</g>
<!-- n2&#45;&gt;n6 -->
<g id="edge5" class="edge">
<title>n2&#45;&gt;n6</title>
<path fill="none" stroke="black" d="M122.63,-121.81C119.34,-102.02 113.88,-69.29 110.01,-46.08"/>
<polygon fill="black" stroke="black" points="113.45,-45.45 108.36,-36.16 106.55,-46.6 113.45,-45.45"/>
</g>
<!-- n7 -->
<g id="node7" class="node">
<title>n7</title>
<path fill="palegreen" stroke="black" d="M516,-36C516,-36 281,-36 281,-36 275,-36 269,-30 269,-24 269,-24 269,-12 269,-12 269,-6 275,0 281,0 281,0 516,0 516,0 522,0 528,-6 528,-12 528,-12 528,-24 528,-24 528,-30 522,-36 516,-36"/>
<text text-anchor="middle" x="398.5" y="-14.3" font-family="Arial" font-size="14.00">Visualizes sound traveling through string</text>
</g>
<!-- n3&#45;&gt;n7 -->
<g id="edge6" class="edge">
<title>n3&#45;&gt;n7</title>
<path fill="none" stroke="black" d="M398.5,-121.81C398.5,-102.11 398.5,-69.58 398.5,-46.39"/>
<polygon fill="black" stroke="black" points="402,-46.16 398.5,-36.16 395,-46.16 402,-46.16"/>
</g>
<!-- n8 -->
<g id="node8" class="node">
<title>n8</title>
<path fill="palegreen" stroke="black" d="M734.5,-36C734.5,-36 598.5,-36 598.5,-36 592.5,-36 586.5,-30 586.5,-24 586.5,-24 586.5,-12 586.5,-12 586.5,-6 592.5,0 598.5,0 598.5,0 734.5,0 734.5,0 740.5,0 746.5,-6 746.5,-12 746.5,-12 746.5,-24 746.5,-24 746.5,-30 740.5,-36 734.5,-36"/>
<text text-anchor="middle" x="666.5" y="-14.3" font-family="Arial" font-size="14.00">Correct labeling of parts</text>
</g>
<!-- n4&#45;&gt;n8 -->
<g id="edge7" class="edge">
<title>n4&#45;&gt;n8</title>
<path fill="none" stroke="black" d="M615.1,-121.81C625.12,-101.76 641.8,-68.4 653.43,-45.14"/>
<polygon fill="black" stroke="black" points="656.58,-46.67 657.92,-36.16 650.32,-43.54 656.58,-46.67"/>
</g>
<!-- n9 -->
<g id="node9" class="node">
<title>n9</title>
<path fill="palegreen" stroke="black" d="M1045.5,-36C1045.5,-36 881.5,-36 881.5,-36 875.5,-36 869.5,-30 869.5,-24 869.5,-24 869.5,-12 869.5,-12 869.5,-6 875.5,0 881.5,0 881.5,0 1045.5,0 1045.5,0 1051.5,0 1057.5,-6 1057.5,-12 1057.5,-12 1057.5,-24 1057.5,-24 1057.5,-30 1051.5,-36 1045.5,-36"/>
<text text-anchor="middle" x="963.5" y="-14.3" font-family="Arial" font-size="14.00">Explains sound transmission</text>
</g>
<!-- n5&#45;&gt;n9 -->
<g id="edge8" class="edge">
<title>n5&#45;&gt;n9</title>
<path fill="none" stroke="black" d="M963.5,-121.81C963.5,-102.11 963.5,-69.58 963.5,-46.39"/>
<polygon fill="black" stroke="black" points="967,-46.16 963.5,-36.16 960,-46.16 967,-46.16"/>
</g>
</g>
</svg>
