<?xml version="1.0" encoding="UTF-8" standalone="no"?>
<!DOCTYPE svg PUBLIC "-//W3C//DTD SVG 1.1//EN"
 "http://www.w3.org/Graphics/SVG/1.1/DTD/svg11.dtd">
<!-- Generated by graphviz version 2.43.0 (0)
 -->
<!-- Pages: 1 -->
<svg width="1077pt" height="410pt"
 viewBox="0.00 0.00 1076.50 410.00" xmlns="http://www.w3.org/2000/svg" xmlns:xlink="http://www.w3.org/1999/xlink">
<g id="graph0" class="graph" transform="scale(1 1) rotate(0) translate(4 406)">
<polygon fill="white" stroke="transparent" points="-4,4 -4,-406 1072.5,-406 1072.5,4 -4,4"/>
<!-- n1 -->
<g id="node1" class="node">
<title>n1</title>
<polygon fill="lightblue" stroke="black" points="664.37,-384 521.69,-402 236.31,-402 93.63,-384 236.31,-366 521.69,-366 664.37,-384"/>
<text text-anchor="middle" x="379" y="-380.3" font-family="Arial" font-size="14.00">Draw animals in their habitats with labels (e.g., fish in water).</text>
</g>
<!-- n2 -->
<g id="node2" class="node">
<title>n2</title>
<polygon fill="#fffdd0" stroke="black" points="216,-280 0,-280 0,-244 216,-244 216,-280"/>
<text text-anchor="middle" x="108" y="-258.3" font-family="Arial" font-size="14.00">Simple, childlike drawing of a fish</text>
</g>
<!-- n1&#45;&gt;n2 -->
<g id="edge1" class="edge">
<title>n1&#45;&gt;n2</title>
<path fill="none" stroke="black" d="M340.46,-365.93C291.9,-344.43 208.45,-307.48 155.85,-284.19"/>
<polygon fill="black" stroke="black" points="156.97,-280.86 146.41,-280.01 154.14,-287.26 156.97,-280.86"/>
</g>
<!-- n3 -->
<g id="node3" class="node">
<title>n3</title>
<polygon fill="#fffdd0" stroke="black" points="483.5,-280 274.5,-280 274.5,-244 483.5,-244 483.5,-280"/>
<text text-anchor="middle" x="379" y="-258.3" font-family="Arial" font-size="14.00">Wavy blue lines represent water</text>
</g>
<!-- n1&#45;&gt;n3 -->
<g id="edge2" class="edge">
<title>n1&#45;&gt;n3</title>
<path fill="none" stroke="black" d="M379,-365.81C379,-346.11 379,-313.58 379,-290.39"/>
<polygon fill="black" stroke="black" points="382.5,-290.16 379,-280.16 375.5,-290.16 382.5,-290.16"/>
</g>
<!-- n4 -->
<g id="node4" class="node">
<title>n4</title>
<polygon fill="#fffdd0" stroke="black" points="796.5,-280 635.5,-280 635.5,-244 796.5,-244 796.5,-280"/>
<text text-anchor="middle" x="716" y="-258.3" font-family="Arial" font-size="14.00">No labels in the drawing</text>
</g>
<!-- n1&#45;&gt;n4 -->
<g id="edge3" class="edge">
<title>n1&#45;&gt;n4</title>
<path fill="none" stroke="black" d="M426.93,-365.93C487.94,-344.21 593.25,-306.71 658.52,-283.47"/>
<polygon fill="black" stroke="black" points="659.99,-286.66 668.24,-280.01 657.65,-280.07 659.99,-286.66"/>
</g>
<!-- n5 -->
<g id="node5" class="node">
<title>n5</title>
<path fill="palegreen" stroke="black" d="M193.5,-158C193.5,-158 20.5,-158 20.5,-158 14.5,-158 8.5,-152 8.5,-146 8.5,-146 8.5,-134 8.5,-134 8.5,-128 14.5,-122 20.5,-122 20.5,-122 193.5,-122 193.5,-122 199.5,-122 205.5,-128 205.5,-134 205.5,-134 205.5,-146 205.5,-146 205.5,-152 199.5,-158 193.5,-158"/>
<text text-anchor="middle" x="107" y="-136.3" font-family="Arial" font-size="14.00">Can draw an animal like a fish</text>
</g>
<!-- n2&#45;&gt;n5 -->
<g id="edge4" class="edge">
<title>n2&#45;&gt;n5</title>
<path fill="none" stroke="black" d="M107.86,-243.81C107.69,-224.11 107.42,-191.58 107.23,-168.39"/>
<polygon fill="black" stroke="black" points="110.73,-168.13 107.14,-158.16 103.73,-168.19 110.73,-168.13"/>
</g>
<!-- n6 -->
<g id="node6" class="node">
<title>n6</title>
<path fill="palegreen" stroke="black" d="M482,-158C482,-158 276,-158 276,-158 270,-158 264,-152 264,-146 264,-146 264,-134 264,-134 264,-128 270,-122 276,-122 276,-122 482,-122 482,-122 488,-122 494,-128 494,-134 494,-134 494,-146 494,-146 494,-152 488,-158 482,-158"/>
<text text-anchor="middle" x="379" y="-136.3" font-family="Arial" font-size="14.00">Attempts to depict habitat as &#39;water&#39;</text>
</g>
<!-- n3&#45;&gt;n6 -->
<g id="edge5" class="edge">
<title>n3&#45;&gt;n6</title>
<path fill="none" stroke="black" d="M379,-243.81C379,-224.11 379,-191.58 379,-168.39"/>
<polygon fill="black" stroke="black" points="382.5,-168.16 379,-158.16 375.5,-168.16 382.5,-168.16"/>
</g>
<!-- n7 -->
<g id="node7" class="node">
<title>n7</title>
<polygon fill="lightcoral" stroke="black" points="810,-158 551.5,-140 810,-122 1068.5,-140 810,-158"/>
<text text-anchor="middle" x="810" y="-136.3" font-family="Arial" font-size="14.00">Avoids labeling due to lack of understanding</text>
</g>
<!-- n4&#45;&gt;n7 -->
<g id="edge6" class="edge">
<title>n4&#45;&gt;n7</title>
<path fill="none" stroke="black" d="M729.47,-243.81C745.56,-223.26 772.61,-188.74 790.87,-165.42"/>
<polygon fill="black" stroke="black" points="793.75,-167.42 797.16,-157.39 788.24,-163.1 793.75,-167.42"/>
</g>
<!-- n8 -->
<g id="node8" class="node">
<title>n8</title>
<polygon fill="#f28e8e" stroke="black" points="1005.5,-36 614.5,-36 614.5,0 1005.5,0 1005.5,-36"/>
<text text-anchor="middle" x="810" y="-14.3" font-family="Arial" font-size="14.00">Encourage using simple words for labels, like &#39;fish&#39; and &#39;water&#39;.</text>
</g>
<!-- n7&#45;&gt;n8 -->
<g id="edge7" class="edge">
<title>n7&#45;&gt;n8</title>
<path fill="none" stroke="black" d="M810,-121.81C810,-102.11 810,-69.58 810,-46.39"/>
<polygon fill="black" stroke="black" points="813.5,-46.16 810,-36.16 806.5,-46.16 813.5,-46.16"/>
</g>
</g>
</svg>
