<?xml version="1.0" encoding="UTF-8" standalone="no"?>
<!DOCTYPE svg PUBLIC "-//W3C//DTD SVG 1.1//EN"
 "http://www.w3.org/Graphics/SVG/1.1/DTD/svg11.dtd">
<!-- Generated by graphviz version 2.43.0 (0)
 -->
<!-- Pages: 1 -->
<svg width="1347pt" height="288pt"
 viewBox="0.00 0.00 1346.72 288.00" xmlns="http://www.w3.org/2000/svg" xmlns:xlink="http://www.w3.org/1999/xlink">
<g id="graph0" class="graph" transform="scale(1 1) rotate(0) translate(4 284)">
<polygon fill="white" stroke="transparent" points="-4,4 -4,-284 1342.72,-284 1342.72,4 -4,4"/>
<!-- n1 -->
<g id="node1" class="node">
<title>n1</title>
<polygon fill="lightblue" stroke="black" points="787,-262 695,-280 511,-280 419,-262 511,-244 695,-244 787,-262"/>
<text text-anchor="middle" x="603" y="-258.3" font-family="Arial" font-size="14.00">Illustrate plants with and without water</text>
</g>
<!-- n2 -->
<g id="node2" class="node">
<title>n2</title>
<polygon fill="#fffdd0" stroke="black" points="396,-158 0,-158 0,-122 396,-122 396,-158"/>
<text text-anchor="middle" x="198" y="-136.3" font-family="Arial" font-size="14.00">Plant with straight green stem and leaves with raindrops/puddle</text>
</g>
<!-- n1&#45;&gt;n2 -->
<g id="edge1" class="edge">
<title>n1&#45;&gt;n2</title>
<path fill="none" stroke="black" d="M545.4,-243.93C471.48,-222.03 343.44,-184.09 265.16,-160.9"/>
<polygon fill="black" stroke="black" points="265.98,-157.49 255.4,-158.01 263.99,-164.21 265.98,-157.49"/>
</g>
<!-- n3 -->
<g id="node3" class="node">
<title>n3</title>
<polygon fill="#fffdd0" stroke="black" points="751.5,-158 454.5,-158 454.5,-122 751.5,-122 751.5,-158"/>
<text text-anchor="middle" x="603" y="-136.3" font-family="Arial" font-size="14.00">Plant with drooped leaves and no water source</text>
</g>
<!-- n1&#45;&gt;n3 -->
<g id="edge2" class="edge">
<title>n1&#45;&gt;n3</title>
<path fill="none" stroke="black" d="M603,-243.81C603,-224.11 603,-191.58 603,-168.39"/>
<polygon fill="black" stroke="black" points="606.5,-168.16 603,-158.16 599.5,-168.16 606.5,-168.16"/>
</g>
<!-- n6 -->
<g id="node4" class="node">
<title>n6</title>
<polygon fill="lightcoral" stroke="black" points="1074,-158 809.07,-140 1074,-122 1338.93,-140 1074,-158"/>
<text text-anchor="middle" x="1074" y="-136.3" font-family="Arial" font-size="14.00">Misunderstanding: No distinction in sun&#39;s role</text>
</g>
<!-- n1&#45;&gt;n6 -->
<g id="edge3" class="edge">
<title>n1&#45;&gt;n6</title>
<path fill="none" stroke="black" d="M669.98,-243.93C760.95,-220.76 922.38,-179.63 1011.2,-157.01"/>
<polygon fill="black" stroke="black" points="1012.28,-160.35 1021.1,-154.48 1010.54,-153.57 1012.28,-160.35"/>
</g>
<!-- n4 -->
<g id="node5" class="node">
<title>n4</title>
<path fill="palegreen" stroke="black" d="M322.5,-36C322.5,-36 73.5,-36 73.5,-36 67.5,-36 61.5,-30 61.5,-24 61.5,-24 61.5,-12 61.5,-12 61.5,-6 67.5,0 73.5,0 73.5,0 322.5,0 322.5,0 328.5,0 334.5,-6 334.5,-12 334.5,-12 334.5,-24 334.5,-24 334.5,-30 328.5,-36 322.5,-36"/>
<text text-anchor="middle" x="198" y="-14.3" font-family="Arial" font-size="14.00">Understands plants look healthy with water</text>
</g>
<!-- n2&#45;&gt;n4 -->
<g id="edge4" class="edge">
<title>n2&#45;&gt;n4</title>
<path fill="none" stroke="black" d="M198,-121.81C198,-102.11 198,-69.58 198,-46.39"/>
<polygon fill="black" stroke="black" points="201.5,-46.16 198,-36.16 194.5,-46.16 201.5,-46.16"/>
</g>
<!-- n5 -->
<g id="node6" class="node">
<title>n5</title>
<path fill="palegreen" stroke="black" d="M732.5,-36C732.5,-36 473.5,-36 473.5,-36 467.5,-36 461.5,-30 461.5,-24 461.5,-24 461.5,-12 461.5,-12 461.5,-6 467.5,0 473.5,0 473.5,0 732.5,0 732.5,0 738.5,0 744.5,-6 744.5,-12 744.5,-12 744.5,-24 744.5,-24 744.5,-30 738.5,-36 732.5,-36"/>
<text text-anchor="middle" x="603" y="-14.3" font-family="Arial" font-size="14.00">Understands plants look wilted without water</text>
</g>
<!-- n3&#45;&gt;n5 -->
<g id="edge5" class="edge">
<title>n3&#45;&gt;n5</title>
<path fill="none" stroke="black" d="M603,-121.81C603,-102.11 603,-69.58 603,-46.39"/>
<polygon fill="black" stroke="black" points="606.5,-46.16 603,-36.16 599.5,-46.16 606.5,-46.16"/>
</g>
<!-- n7 -->
<g id="node7" class="node">
<title>n7</title>
<polygon fill="#f28e8e" stroke="black" points="1203.5,-36 944.5,-36 944.5,0 1203.5,0 1203.5,-36"/>
<text text-anchor="middle" x="1074" y="-14.3" font-family="Arial" font-size="14.00">Add sunlight association for plant growth</text>
</g>
<!-- n6&#45;&gt;n7 -->
<g id="edge6" class="edge">
<title>n6&#45;&gt;n7</title>
<path fill="none" stroke="black" d="M1074,-121.81C1074,-102.11 1074,-69.58 1074,-46.39"/>
<polygon fill="black" stroke="black" points="1077.5,-46.16 1074,-36.16 1070.5,-46.16 1077.5,-46.16"/>
</g>
</g>
</svg>
