<?xml version="1.0" encoding="UTF-8" standalone="no"?>
<!DOCTYPE svg PUBLIC "-//W3C//DTD SVG 1.1//EN"
 "http://www.w3.org/Graphics/SVG/1.1/DTD/svg11.dtd">
<!-- Generated by graphviz version 2.43.0 (0)
 -->
<!-- Pages: 1 -->
<svg width="2085pt" height="532pt"
 viewBox="0.00 0.00 2084.53 532.00" xmlns="http://www.w3.org/2000/svg" xmlns:xlink="http://www.w3.org/1999/xlink">
<g id="graph0" class="graph" transform="scale(1 1) rotate(0) translate(4 528)">
<polygon fill="white" stroke="transparent" points="-4,4 -4,-528 2080.53,-528 2080.53,4 -4,4"/>
<!-- n1 -->
<g id="node1" class="node">
<title>n1</title>
<polygon fill="lightblue" stroke="black" points="1291.53,-506 1180.03,-524 957.03,-524 845.53,-506 957.03,-488 1180.03,-488 1291.53,-506"/>
<text text-anchor="middle" x="1068.53" y="-502.3" font-family="Arial" font-size="14.00">Draw a string telephone between two students.</text>
</g>
<!-- n2 -->
<g id="node2" class="node">
<title>n2</title>
<polygon fill="#fffdd0" stroke="black" points="569,-402 384,-402 384,-366 569,-366 569,-402"/>
<text text-anchor="middle" x="476.5" y="-380.3" font-family="Arial" font-size="14.00">Two students standing apart</text>
</g>
<!-- n1&#45;&gt;n2 -->
<g id="edge1" class="edge">
<title>n1&#45;&gt;n2</title>
<path fill="none" stroke="black" d="M984.63,-488C875.33,-465.84 684.74,-427.21 570.62,-404.08"/>
<polygon fill="black" stroke="black" points="571,-400.59 560.5,-402.03 569.61,-407.45 571,-400.59"/>
</g>
<!-- n3 -->
<g id="node3" class="node">
<title>n3</title>
<polygon fill="#fffdd0" stroke="black" points="838.5,-402 716.5,-402 716.5,-366 838.5,-366 838.5,-402"/>
<text text-anchor="middle" x="777.5" y="-380.3" font-family="Arial" font-size="14.00">Cups held to ears</text>
</g>
<!-- n1&#45;&gt;n3 -->
<g id="edge2" class="edge">
<title>n1&#45;&gt;n3</title>
<path fill="none" stroke="black" d="M1027.13,-487.93C974.76,-466.34 884.62,-429.17 828.19,-405.9"/>
<polygon fill="black" stroke="black" points="829.32,-402.58 818.74,-402.01 826.65,-409.05 829.32,-402.58"/>
</g>
<!-- n4 -->
<g id="node4" class="node">
<title>n4</title>
<polygon fill="#fffdd0" stroke="black" points="1145.03,-402 992.03,-402 992.03,-366 1145.03,-366 1145.03,-402"/>
<text text-anchor="middle" x="1068.53" y="-380.3" font-family="Arial" font-size="14.00">String connecting cups</text>
</g>
<!-- n1&#45;&gt;n4 -->
<g id="edge3" class="edge">
<title>n1&#45;&gt;n4</title>
<path fill="none" stroke="black" d="M1068.53,-487.81C1068.53,-468.11 1068.53,-435.58 1068.53,-412.39"/>
<polygon fill="black" stroke="black" points="1072.03,-412.16 1068.53,-402.16 1065.03,-412.16 1072.03,-412.16"/>
</g>
<!-- n5 -->
<g id="node5" class="node">
<title>n5</title>
<polygon fill="#fffdd0" stroke="black" points="1512.03,-402 1315.03,-402 1315.03,-366 1512.03,-366 1512.03,-402"/>
<text text-anchor="middle" x="1413.53" y="-380.3" font-family="Arial" font-size="14.00">Arrows indicating sound travel</text>
</g>
<!-- n1&#45;&gt;n5 -->
<g id="edge4" class="edge">
<title>n1&#45;&gt;n5</title>
<path fill="none" stroke="black" d="M1117.53,-487.93C1180.13,-466.16 1288.33,-428.56 1355.03,-405.33"/>
<polygon fill="black" stroke="black" points="1356.32,-408.59 1364.63,-402.01 1354.04,-401.97 1356.32,-408.59"/>
</g>
<!-- n6 -->
<g id="node6" class="node">
<title>n6</title>
<polygon fill="#fffdd0" stroke="black" points="1829.53,-402 1719.53,-402 1719.53,-366 1829.53,-366 1829.53,-402"/>
<text text-anchor="middle" x="1774.53" y="-380.3" font-family="Arial" font-size="14.00">Student smiling</text>
</g>
<!-- n1&#45;&gt;n6 -->
<g id="edge5" class="edge">
<title>n1&#45;&gt;n6</title>
<path fill="none" stroke="black" d="M1168.53,-488C1315.43,-463.03 1585.43,-417.14 1709.33,-396.09"/>
<polygon fill="black" stroke="black" points="1710.07,-399.51 1719.33,-394.37 1708.88,-392.62 1710.07,-399.51"/>
</g>
<!-- n7 -->
<g id="node7" class="node">
<title>n7</title>
<path fill="palegreen" stroke="black" d="M498.5,-280C498.5,-280 84.5,-280 84.5,-280 78.5,-280 72.5,-274 72.5,-268 72.5,-268 72.5,-256 72.5,-256 72.5,-250 78.5,-244 84.5,-244 84.5,-244 498.5,-244 498.5,-244 504.5,-244 510.5,-250 510.5,-256 510.5,-256 510.5,-268 510.5,-268 510.5,-274 504.5,-280 498.5,-280"/>
<text text-anchor="middle" x="291.5" y="-258.3" font-family="Arial" font-size="14.00">Two students understand the problem of communicating over distance</text>
</g>
<!-- n2&#45;&gt;n7 -->
<g id="edge6" class="edge">
<title>n2&#45;&gt;n7</title>
<path fill="none" stroke="black" d="M450,-365.81C417.58,-344.78 362.59,-309.11 326.66,-285.8"/>
<polygon fill="black" stroke="black" points="328.25,-282.66 317.96,-280.16 324.45,-288.54 328.25,-282.66"/>
</g>
<!-- n8 -->
<g id="node8" class="node">
<title>n8</title>
<path fill="palegreen" stroke="black" d="M784.5,-280C784.5,-280 580.5,-280 580.5,-280 574.5,-280 568.5,-274 568.5,-268 568.5,-268 568.5,-256 568.5,-256 568.5,-250 574.5,-244 580.5,-244 580.5,-244 784.5,-244 784.5,-244 790.5,-244 796.5,-250 796.5,-256 796.5,-256 796.5,-268 796.5,-268 796.5,-274 790.5,-280 784.5,-280"/>
<text text-anchor="middle" x="682.5" y="-258.3" font-family="Arial" font-size="14.00">Use of cups for sound transmission</text>
</g>
<!-- n3&#45;&gt;n8 -->
<g id="edge7" class="edge">
<title>n3&#45;&gt;n8</title>
<path fill="none" stroke="black" d="M763.89,-365.81C747.81,-345.49 720.91,-311.51 702.46,-288.21"/>
<polygon fill="black" stroke="black" points="705.04,-285.83 696.09,-280.16 699.55,-290.17 705.04,-285.83"/>
</g>
<!-- n9 -->
<g id="node9" class="node">
<title>n9</title>
<polygon fill="lightcoral" stroke="black" points="1068.53,-280 854.2,-262 1068.53,-244 1282.86,-262 1068.53,-280"/>
<text text-anchor="middle" x="1068.53" y="-258.3" font-family="Arial" font-size="14.00">String is mistakenly labeled as &#39;wire&#39;</text>
</g>
<!-- n4&#45;&gt;n9 -->
<g id="edge8" class="edge">
<title>n4&#45;&gt;n9</title>
<path fill="none" stroke="black" d="M1068.53,-365.81C1068.53,-346.11 1068.53,-313.58 1068.53,-290.39"/>
<polygon fill="black" stroke="black" points="1072.03,-290.16 1068.53,-280.16 1065.03,-290.16 1072.03,-290.16"/>
</g>
<!-- n10 -->
<g id="node10" class="node">
<title>n10</title>
<path fill="palegreen" stroke="black" d="M1700.03,-280C1700.03,-280 1353.03,-280 1353.03,-280 1347.03,-280 1341.03,-274 1341.03,-268 1341.03,-268 1341.03,-256 1341.03,-256 1341.03,-250 1347.03,-244 1353.03,-244 1353.03,-244 1700.03,-244 1700.03,-244 1706.03,-244 1712.03,-250 1712.03,-256 1712.03,-256 1712.03,-268 1712.03,-268 1712.03,-274 1706.03,-280 1700.03,-280"/>
<text text-anchor="middle" x="1526.53" y="-258.3" font-family="Arial" font-size="14.00">Shows understanding of sound traveling through a medium</text>
</g>
<!-- n5&#45;&gt;n10 -->
<g id="edge9" class="edge">
<title>n5&#45;&gt;n10</title>
<path fill="none" stroke="black" d="M1429.73,-365.81C1449.03,-345.31 1481.43,-310.91 1503.33,-287.6"/>
<polygon fill="black" stroke="black" points="1506.03,-289.84 1510.33,-280.16 1500.93,-285.04 1506.03,-289.84"/>
</g>
<!-- n12 -->
<g id="node11" class="node">
<title>n12</title>
<path fill="palegreen" stroke="black" d="M2064.53,-280C2064.53,-280 1782.53,-280 1782.53,-280 1776.53,-280 1770.53,-274 1770.53,-268 1770.53,-268 1770.53,-256 1770.53,-256 1770.53,-250 1776.53,-244 1782.53,-244 1782.53,-244 2064.53,-244 2064.53,-244 2070.53,-244 2076.53,-250 2076.53,-256 2076.53,-256 2076.53,-268 2076.53,-268 2076.53,-274 2070.53,-280 2064.53,-280"/>
<text text-anchor="middle" x="1923.53" y="-258.3" font-family="Arial" font-size="14.00">Emphasizes positive communication experience</text>
</g>
<!-- n6&#45;&gt;n12 -->
<g id="edge10" class="edge">
<title>n6&#45;&gt;n12</title>
<path fill="none" stroke="black" d="M1795.83,-365.81C1821.63,-345.04 1865.13,-310.01 1894.03,-286.7"/>
<polygon fill="black" stroke="black" points="1896.59,-289.13 1902.23,-280.16 1892.23,-283.66 1896.59,-289.13"/>
</g>
<!-- n11 -->
<g id="node12" class="node">
<title>n11</title>
<polygon fill="lightcoral" stroke="black" points="291.5,-158 0,-140 291.5,-122 583,-140 291.5,-158"/>
<text text-anchor="middle" x="291.5" y="-136.3" font-family="Arial" font-size="14.00">Simplified explanation of speaking over a distance</text>
</g>
<!-- n7&#45;&gt;n11 -->
<g id="edge11" class="edge">
<title>n7&#45;&gt;n11</title>
<path fill="none" stroke="black" d="M291.5,-243.81C291.5,-224.11 291.5,-191.58 291.5,-168.39"/>
<polygon fill="black" stroke="black" points="295,-168.16 291.5,-158.16 288,-168.16 295,-168.16"/>
</g>
<!-- n13 -->
<g id="node13" class="node">
<title>n13</title>
<polygon fill="#f28e8e" stroke="black" points="1249.53,-158 887.53,-158 887.53,-122 1249.53,-122 1249.53,-158"/>
<text text-anchor="middle" x="1068.53" y="-136.3" font-family="Arial" font-size="14.00">Consider correct labeling of the string as &#39;string&#39; not &#39;wire&#39;.</text>
</g>
<!-- n9&#45;&gt;n13 -->
<g id="edge12" class="edge">
<title>n9&#45;&gt;n13</title>
<path fill="none" stroke="black" d="M1068.53,-243.81C1068.53,-224.11 1068.53,-191.58 1068.53,-168.39"/>
<polygon fill="black" stroke="black" points="1072.03,-168.16 1068.53,-158.16 1065.03,-168.16 1072.03,-168.16"/>
</g>
<!-- n14 -->
<g id="node14" class="node">
<title>n14</title>
<polygon fill="#f28e8e" stroke="black" points="469.5,-36 113.5,-36 113.5,0 469.5,0 469.5,-36"/>
<text text-anchor="middle" x="291.5" y="-14.3" font-family="Arial" font-size="14.00">Provide a more detailed explanation of sound properties.</text>
</g>
<!-- n11&#45;&gt;n14 -->
<g id="edge13" class="edge">
<title>n11&#45;&gt;n14</title>
<path fill="none" stroke="black" d="M291.5,-121.81C291.5,-102.11 291.5,-69.58 291.5,-46.39"/>
<polygon fill="black" stroke="black" points="295,-46.16 291.5,-36.16 288,-46.16 295,-46.16"/>
</g>
</g>
</svg>
