<?xml version="1.0" encoding="UTF-8" standalone="no"?>
<!DOCTYPE svg PUBLIC "-//W3C//DTD SVG 1.1//EN"
 "http://www.w3.org/Graphics/SVG/1.1/DTD/svg11.dtd">
<!-- Generated by graphviz version 2.43.0 (0)
 -->
<!-- Pages: 1 -->
<svg width="1165pt" height="410pt"
 viewBox="0.00 0.00 1165.00 410.00" xmlns="http://www.w3.org/2000/svg" xmlns:xlink="http://www.w3.org/1999/xlink">
<g id="graph0" class="graph" transform="scale(1 1) rotate(0) translate(4 406)">
<polygon fill="white" stroke="transparent" points="-4,4 -4,-406 1161,-406 1161,4 -4,4"/>
<!-- n1 -->
<g id="node1" class="node">
<title>n1</title>
<polygon fill="lightblue" stroke="black" points="829.01,-384 717.51,-402 494.51,-402 383.01,-384 494.51,-366 717.51,-366 829.01,-384"/>
<text text-anchor="middle" x="606.01" y="-380.3" font-family="Arial" font-size="14.00">Draw a string telephone between two students.</text>
</g>
<!-- n2 -->
<g id="node2" class="node">
<title>n2</title>
<polygon fill="#fffdd0" stroke="black" points="718.01,-280 494.01,-280 494.01,-244 718.01,-244 718.01,-280"/>
<text text-anchor="middle" x="606.01" y="-258.3" font-family="Arial" font-size="14.00">Two stick figures facing each other</text>
</g>
<!-- n1&#45;&gt;n2 -->
<g id="edge1" class="edge">
<title>n1&#45;&gt;n2</title>
<path fill="none" stroke="black" d="M606.01,-365.81C606.01,-346.11 606.01,-313.58 606.01,-290.39"/>
<polygon fill="black" stroke="black" points="609.51,-290.16 606.01,-280.16 602.51,-290.16 609.51,-290.16"/>
</g>
<!-- n3 -->
<g id="node3" class="node">
<title>n3</title>
<polygon fill="#fffdd0" stroke="black" points="436.01,-280 230.01,-280 230.01,-244 436.01,-244 436.01,-280"/>
<text text-anchor="middle" x="333.01" y="-258.3" font-family="Arial" font-size="14.00">Each figure holds a rough circle</text>
</g>
<!-- n1&#45;&gt;n3 -->
<g id="edge2" class="edge">
<title>n1&#45;&gt;n3</title>
<path fill="none" stroke="black" d="M567.19,-365.93C518.17,-344.39 433.85,-307.32 380.89,-284.04"/>
<polygon fill="black" stroke="black" points="382.27,-280.82 371.7,-280.01 379.46,-287.23 382.27,-280.82"/>
</g>
<!-- n4 -->
<g id="node4" class="node">
<title>n4</title>
<polygon fill="#fffdd0" stroke="black" points="966.01,-280 776.01,-280 776.01,-244 966.01,-244 966.01,-280"/>
<text text-anchor="middle" x="871.01" y="-258.3" font-family="Arial" font-size="14.00">Single line connecting circles</text>
</g>
<!-- n1&#45;&gt;n4 -->
<g id="edge3" class="edge">
<title>n1&#45;&gt;n4</title>
<path fill="none" stroke="black" d="M643.7,-365.93C691.19,-344.43 772.79,-307.48 824.22,-284.19"/>
<polygon fill="black" stroke="black" points="825.8,-287.32 833.46,-280.01 822.91,-280.94 825.8,-287.32"/>
</g>
<!-- n5 -->
<g id="node5" class="node">
<title>n5</title>
<path fill="palegreen" stroke="black" d="M505.51,-158C505.51,-158 388.51,-158 388.51,-158 382.51,-158 376.51,-152 376.51,-146 376.51,-146 376.51,-134 376.51,-134 376.51,-128 382.51,-122 388.51,-122 388.51,-122 505.51,-122 505.51,-122 511.51,-122 517.51,-128 517.51,-134 517.51,-134 517.51,-146 517.51,-146 517.51,-152 511.51,-158 505.51,-158"/>
<text text-anchor="middle" x="447.01" y="-136.3" font-family="Arial" font-size="14.00">Figures holding cups</text>
</g>
<!-- n2&#45;&gt;n5 -->
<g id="edge4" class="edge">
<title>n2&#45;&gt;n5</title>
<path fill="none" stroke="black" d="M583.23,-243.81C555.61,-222.96 508.91,-187.71 478.02,-164.4"/>
<polygon fill="black" stroke="black" points="479.84,-161.39 469.75,-158.16 475.63,-166.98 479.84,-161.39"/>
</g>
<!-- n7 -->
<g id="node6" class="node">
<title>n7</title>
<polygon fill="lightcoral" stroke="black" points="757.01,-158 575.01,-140 757.01,-122 939.01,-140 757.01,-158"/>
<text text-anchor="middle" x="757.01" y="-136.3" font-family="Arial" font-size="14.00">Lack of sound travel indication</text>
</g>
<!-- n2&#45;&gt;n7 -->
<g id="edge5" class="edge">
<title>n2&#45;&gt;n7</title>
<path fill="none" stroke="black" d="M627.65,-243.81C654.52,-222.45 700.38,-186.01 729.66,-162.74"/>
<polygon fill="black" stroke="black" points="732.17,-165.22 737.81,-156.26 727.81,-159.74 732.17,-165.22"/>
</g>
<!-- n3&#45;&gt;n5 -->
<g id="edge6" class="edge">
<title>n3&#45;&gt;n5</title>
<path fill="none" stroke="black" d="M349.35,-243.81C368.82,-223.31 401.5,-188.91 423.64,-165.6"/>
<polygon fill="black" stroke="black" points="426.36,-167.82 430.71,-158.16 421.29,-163 426.36,-167.82"/>
</g>
<!-- n8 -->
<g id="node7" class="node">
<title>n8</title>
<polygon fill="lightcoral" stroke="black" points="159.01,-158 -0.01,-140 159.01,-122 318.04,-140 159.01,-158"/>
<text text-anchor="middle" x="159.01" y="-136.3" font-family="Arial" font-size="14.00">Lack of labels/annotations</text>
</g>
<!-- n3&#45;&gt;n8 -->
<g id="edge7" class="edge">
<title>n3&#45;&gt;n8</title>
<path fill="none" stroke="black" d="M308.08,-243.81C276.6,-222.09 222.48,-184.77 188.84,-161.57"/>
<polygon fill="black" stroke="black" points="190.56,-158.5 180.34,-155.71 186.59,-164.27 190.56,-158.5"/>
</g>
<!-- n4&#45;&gt;n7 -->
<g id="edge8" class="edge">
<title>n4&#45;&gt;n7</title>
<path fill="none" stroke="black" d="M854.68,-243.81C834.77,-222.85 801.04,-187.34 778.9,-164.03"/>
<polygon fill="black" stroke="black" points="781.3,-161.47 771.87,-156.63 776.22,-166.29 781.3,-161.47"/>
</g>
<!-- n6 -->
<g id="node8" class="node">
<title>n6</title>
<path fill="palegreen" stroke="black" d="M1145,-158C1145,-158 1009,-158 1009,-158 1003,-158 997,-152 997,-146 997,-146 997,-134 997,-134 997,-128 1003,-122 1009,-122 1009,-122 1145,-122 1145,-122 1151,-122 1157,-128 1157,-134 1157,-134 1157,-146 1157,-146 1157,-152 1151,-158 1145,-158"/>
<text text-anchor="middle" x="1077" y="-136.3" font-family="Arial" font-size="14.00">Representation of string</text>
</g>
<!-- n4&#45;&gt;n6 -->
<g id="edge9" class="edge">
<title>n4&#45;&gt;n6</title>
<path fill="none" stroke="black" d="M900.53,-243.81C936.94,-222.6 998.9,-186.5 1038.9,-163.21"/>
<polygon fill="black" stroke="black" points="1040.71,-166.21 1047.6,-158.16 1037.2,-160.15 1040.71,-166.21"/>
</g>
<!-- n9 -->
<g id="node9" class="node">
<title>n9</title>
<polygon fill="#f28e8e" stroke="black" points="888.01,-36 626.01,-36 626.01,0 888.01,0 888.01,-36"/>
<text text-anchor="middle" x="757.01" y="-14.3" font-family="Arial" font-size="14.00">Add arrows/lines to show sound traveling</text>
</g>
<!-- n7&#45;&gt;n9 -->
<g id="edge10" class="edge">
<title>n7&#45;&gt;n9</title>
<path fill="none" stroke="black" d="M757.01,-121.81C757.01,-102.11 757.01,-69.58 757.01,-46.39"/>
<polygon fill="black" stroke="black" points="760.51,-46.16 757.01,-36.16 753.51,-46.16 760.51,-46.16"/>
</g>
<!-- n10 -->
<g id="node10" class="node">
<title>n10</title>
<polygon fill="#f28e8e" stroke="black" points="252.01,-36 66.01,-36 66.01,0 252.01,0 252.01,-36"/>
<text text-anchor="middle" x="159.01" y="-14.3" font-family="Arial" font-size="14.00">Add labels to clarify features</text>
</g>
<!-- n8&#45;&gt;n10 -->
<g id="edge11" class="edge">
<title>n8&#45;&gt;n10</title>
<path fill="none" stroke="black" d="M159.01,-121.81C159.01,-102.11 159.01,-69.58 159.01,-46.39"/>
<polygon fill="black" stroke="black" points="162.51,-46.16 159.01,-36.16 155.51,-46.16 162.51,-46.16"/>
</g>
</g>
</svg>
