<?xml version="1.0" encoding="UTF-8" standalone="no"?>
<!DOCTYPE svg PUBLIC "-//W3C//DTD SVG 1.1//EN"
 "http://www.w3.org/Graphics/SVG/1.1/DTD/svg11.dtd">
<!-- Generated by graphviz version 2.43.0 (0)
 -->
<!-- Pages: 1 -->
<svg width="1664pt" height="410pt"
 viewBox="0.00 0.00 1664.00 410.00" xmlns="http://www.w3.org/2000/svg" xmlns:xlink="http://www.w3.org/1999/xlink">
<g id="graph0" class="graph" transform="scale(1 1) rotate(0) translate(4 406)">
<polygon fill="white" stroke="transparent" points="-4,4 -4,-406 1660,-406 1660,4 -4,4"/>
<!-- n1 -->
<g id="node1" class="node">
<title>n1</title>
<polygon fill="lightblue" stroke="black" points="1138,-384 1026.5,-402 803.5,-402 692,-384 803.5,-366 1026.5,-366 1138,-384"/>
<text text-anchor="middle" x="915" y="-380.3" font-family="Arial" font-size="14.00">Draw a string telephone between two students.</text>
</g>
<!-- n2 -->
<g id="node2" class="node">
<title>n2</title>
<polygon fill="#fffdd0" stroke="black" points="611,-280 413,-280 413,-244 611,-244 611,-280"/>
<text text-anchor="middle" x="512" y="-258.3" font-family="Arial" font-size="14.00">Two stick&#45;figure kids with cups</text>
</g>
<!-- n1&#45;&gt;n2 -->
<g id="edge1" class="edge">
<title>n1&#45;&gt;n2</title>
<path fill="none" stroke="black" d="M857.69,-365.93C784.12,-344.03 656.72,-306.09 578.83,-282.9"/>
<polygon fill="black" stroke="black" points="579.69,-279.51 569.11,-280.01 577.7,-286.21 579.69,-279.51"/>
</g>
<!-- n3 -->
<g id="node3" class="node">
<title>n3</title>
<polygon fill="#fffdd0" stroke="black" points="1017,-280 813,-280 813,-244 1017,-244 1017,-280"/>
<text text-anchor="middle" x="915" y="-258.3" font-family="Arial" font-size="14.00">Wavy, loose line connects cups</text>
</g>
<!-- n1&#45;&gt;n3 -->
<g id="edge2" class="edge">
<title>n1&#45;&gt;n3</title>
<path fill="none" stroke="black" d="M915,-365.81C915,-346.11 915,-313.58 915,-290.39"/>
<polygon fill="black" stroke="black" points="918.5,-290.16 915,-280.16 911.5,-290.16 918.5,-290.16"/>
</g>
<!-- n4 -->
<g id="node4" class="node">
<title>n4</title>
<polygon fill="#fffdd0" stroke="black" points="1420,-280 1188,-280 1188,-244 1420,-244 1420,-280"/>
<text text-anchor="middle" x="1304" y="-258.3" font-family="Arial" font-size="14.00">Arrows showing sound near mouths</text>
</g>
<!-- n1&#45;&gt;n4 -->
<g id="edge3" class="edge">
<title>n1&#45;&gt;n4</title>
<path fill="none" stroke="black" d="M970.32,-365.93C1041.2,-344.07 1163.8,-306.25 1239,-283.04"/>
<polygon fill="black" stroke="black" points="1240.36,-286.28 1248.9,-280.01 1238.31,-279.59 1240.36,-286.28"/>
</g>
<!-- n5 -->
<g id="node5" class="node">
<title>n5</title>
<path fill="palegreen" stroke="black" d="M302,-158C302,-158 12,-158 12,-158 6,-158 0,-152 0,-146 0,-146 0,-134 0,-134 0,-128 6,-122 12,-122 12,-122 302,-122 302,-122 308,-122 314,-128 314,-134 314,-134 314,-146 314,-146 314,-152 308,-158 302,-158"/>
<text text-anchor="middle" x="157" y="-136.3" font-family="Arial" font-size="14.00">Representation of communication over a distance</text>
</g>
<!-- n2&#45;&gt;n5 -->
<g id="edge4" class="edge">
<title>n2&#45;&gt;n5</title>
<path fill="none" stroke="black" d="M461.51,-243.93C397.11,-222.16 285.85,-184.56 217.13,-161.33"/>
<polygon fill="black" stroke="black" points="217.9,-157.9 207.31,-158.01 215.66,-164.53 217.9,-157.9"/>
</g>
<!-- n6 -->
<g id="node6" class="node">
<title>n6</title>
<path fill="palegreen" stroke="black" d="M640,-158C640,-158 384,-158 384,-158 378,-158 372,-152 372,-146 372,-146 372,-134 372,-134 372,-128 378,-122 384,-122 384,-122 640,-122 640,-122 646,-122 652,-128 652,-134 652,-134 652,-146 652,-146 652,-152 646,-158 640,-158"/>
<text text-anchor="middle" x="512" y="-136.3" font-family="Arial" font-size="14.00">Correct depiction of cups in string telephone</text>
</g>
<!-- n2&#45;&gt;n6 -->
<g id="edge5" class="edge">
<title>n2&#45;&gt;n6</title>
<path fill="none" stroke="black" d="M512,-243.81C512,-224.11 512,-191.58 512,-168.39"/>
<polygon fill="black" stroke="black" points="515.5,-168.16 512,-158.16 508.5,-168.16 515.5,-168.16"/>
</g>
<!-- n7 -->
<g id="node7" class="node">
<title>n7</title>
<polygon fill="lightcoral" stroke="black" points="915,-158 710,-140 915,-122 1120,-140 915,-158"/>
<text text-anchor="middle" x="915" y="-136.3" font-family="Arial" font-size="14.00">Misunderstanding of string tension</text>
</g>
<!-- n3&#45;&gt;n7 -->
<g id="edge6" class="edge">
<title>n3&#45;&gt;n7</title>
<path fill="none" stroke="black" d="M915,-243.81C915,-224.11 915,-191.58 915,-168.39"/>
<polygon fill="black" stroke="black" points="918.5,-168.16 915,-158.16 911.5,-168.16 918.5,-168.16"/>
</g>
<!-- n8 -->
<g id="node8" class="node">
<title>n8</title>
<polygon fill="lightcoral" stroke="black" points="1417,-158 1178,-140 1417,-122 1656,-140 1417,-158"/>
<text text-anchor="middle" x="1417" y="-136.3" font-family="Arial" font-size="14.00">Misunderstanding of sound transmission</text>
</g>
<!-- n4&#45;&gt;n8 -->
<g id="edge7" class="edge">
<title>n4&#45;&gt;n8</title>
<path fill="none" stroke="black" d="M1320.2,-243.81C1339.8,-222.96 1373,-187.74 1394.9,-164.42"/>
<polygon fill="black" stroke="black" points="1397.58,-166.68 1401.9,-157.01 1392.49,-161.88 1397.58,-166.68"/>
</g>
<!-- n9 -->
<g id="node9" class="node">
<title>n9</title>
<polygon fill="#f28e8e" stroke="black" points="1032,-36 798,-36 798,0 1032,0 1032,-36"/>
<text text-anchor="middle" x="915" y="-14.3" font-family="Arial" font-size="14.00">Tension needed for string to function</text>
</g>
<!-- n7&#45;&gt;n9 -->
<g id="edge8" class="edge">
<title>n7&#45;&gt;n9</title>
<path fill="none" stroke="black" d="M915,-121.81C915,-102.11 915,-69.58 915,-46.39"/>
<polygon fill="black" stroke="black" points="918.5,-46.16 915,-36.16 911.5,-46.16 918.5,-46.16"/>
</g>
<!-- n10 -->
<g id="node10" class="node">
<title>n10</title>
<polygon fill="#f28e8e" stroke="black" points="1532,-36 1302,-36 1302,0 1532,0 1532,-36"/>
<text text-anchor="middle" x="1417" y="-14.3" font-family="Arial" font-size="14.00">Sound travels through string, not air</text>
</g>
<!-- n8&#45;&gt;n10 -->
<g id="edge9" class="edge">
<title>n8&#45;&gt;n10</title>
<path fill="none" stroke="black" d="M1417,-121.81C1417,-102.11 1417,-69.58 1417,-46.39"/>
<polygon fill="black" stroke="black" points="1420.5,-46.16 1417,-36.16 1413.5,-46.16 1420.5,-46.16"/>
</g>
</g>
</svg>
