<?xml version="1.0" encoding="UTF-8" standalone="no"?>
<!DOCTYPE svg PUBLIC "-//W3C//DTD SVG 1.1//EN"
 "http://www.w3.org/Graphics/SVG/1.1/DTD/svg11.dtd">
<!-- Generated by graphviz version 2.43.0 (0)
 -->
<!-- Pages: 1 -->
<svg width="1168pt" height="410pt"
 viewBox="0.00 0.00 1168.20 410.00" xmlns="http://www.w3.org/2000/svg" xmlns:xlink="http://www.w3.org/1999/xlink">
<g id="graph0" class="graph" transform="scale(1 1) rotate(0) translate(4 406)">
<polygon fill="white" stroke="transparent" points="-4,4 -4,-406 1164.2,-406 1164.2,4 -4,4"/>
<!-- n1 -->
<g id="node1" class="node">
<title>n1</title>
<polygon fill="lightblue" stroke="black" points="940.87,-384 798.19,-402 512.81,-402 370.13,-384 512.81,-366 798.19,-366 940.87,-384"/>
<text text-anchor="middle" x="655.5" y="-380.3" font-family="Arial" font-size="14.00">Draw animals in their habitats with labels (e.g., fish in water).</text>
</g>
<!-- n2 -->
<g id="node2" class="node">
<title>n2</title>
<polygon fill="#fffdd0" stroke="black" points="415,-280 290,-280 290,-244 415,-244 415,-280"/>
<text text-anchor="middle" x="352.5" y="-258.3" font-family="Arial" font-size="14.00">Fish next to a tree</text>
</g>
<!-- n1&#45;&gt;n2 -->
<g id="edge1" class="edge">
<title>n1&#45;&gt;n2</title>
<path fill="none" stroke="black" d="M612.41,-365.93C557.78,-344.3 463.64,-307.02 404.91,-283.76"/>
<polygon fill="black" stroke="black" points="406.03,-280.44 395.44,-280.01 403.45,-286.95 406.03,-280.44"/>
</g>
<!-- n3 -->
<g id="node3" class="node">
<title>n3</title>
<polygon fill="#fffdd0" stroke="black" points="709,-280 602,-280 602,-244 709,-244 709,-280"/>
<text text-anchor="middle" x="655.5" y="-258.3" font-family="Arial" font-size="14.00">Deer in the sky</text>
</g>
<!-- n1&#45;&gt;n3 -->
<g id="edge2" class="edge">
<title>n1&#45;&gt;n3</title>
<path fill="none" stroke="black" d="M655.5,-365.81C655.5,-346.11 655.5,-313.58 655.5,-290.39"/>
<polygon fill="black" stroke="black" points="659,-290.16 655.5,-280.16 652,-290.16 659,-290.16"/>
</g>
<!-- n10 -->
<g id="node4" class="node">
<title>n10</title>
<polygon fill="#f28e8e" stroke="black" points="959.5,-280 767.5,-280 767.5,-244 959.5,-244 959.5,-280"/>
<text text-anchor="middle" x="863.5" y="-258.3" font-family="Arial" font-size="14.00">Include more habitat features</text>
</g>
<!-- n1&#45;&gt;n10 -->
<g id="edge3" class="edge">
<title>n1&#45;&gt;n10</title>
<path fill="none" stroke="black" d="M685.3,-365.81C722.06,-344.6 784.63,-308.5 825,-285.21"/>
<polygon fill="black" stroke="black" points="826.84,-288.19 833.75,-280.16 823.34,-282.13 826.84,-288.19"/>
</g>
<!-- n4 -->
<g id="node5" class="node">
<title>n4</title>
<path fill="palegreen" stroke="black" d="M91,-158C91,-158 12,-158 12,-158 6,-158 0,-152 0,-146 0,-146 0,-134 0,-134 0,-128 6,-122 12,-122 12,-122 91,-122 91,-122 97,-122 103,-128 103,-134 103,-134 103,-146 103,-146 103,-152 97,-158 91,-158"/>
<text text-anchor="middle" x="51.5" y="-136.3" font-family="Arial" font-size="14.00">Fish is labeled</text>
</g>
<!-- n2&#45;&gt;n4 -->
<g id="edge4" class="edge">
<title>n2&#45;&gt;n4</title>
<path fill="none" stroke="black" d="M309.69,-243.93C255.42,-222.3 161.91,-185.02 103.56,-161.76"/>
<polygon fill="black" stroke="black" points="104.74,-158.46 94.16,-158.01 102.15,-164.97 104.74,-158.46"/>
</g>
<!-- n6 -->
<g id="node6" class="node">
<title>n6</title>
<polygon fill="lightcoral" stroke="black" points="352.5,-158 161.13,-140 352.5,-122 543.87,-140 352.5,-158"/>
<text text-anchor="middle" x="352.5" y="-136.3" font-family="Arial" font-size="14.00">Misunderstanding of fish habitat</text>
</g>
<!-- n2&#45;&gt;n6 -->
<g id="edge5" class="edge">
<title>n2&#45;&gt;n6</title>
<path fill="none" stroke="black" d="M352.5,-243.81C352.5,-224.11 352.5,-191.58 352.5,-168.39"/>
<polygon fill="black" stroke="black" points="356,-168.16 352.5,-158.16 349,-168.16 356,-168.16"/>
</g>
<!-- n5 -->
<g id="node7" class="node">
<title>n5</title>
<path fill="palegreen" stroke="black" d="M697,-158C697,-158 614,-158 614,-158 608,-158 602,-152 602,-146 602,-146 602,-134 602,-134 602,-128 608,-122 614,-122 614,-122 697,-122 697,-122 703,-122 709,-128 709,-134 709,-134 709,-146 709,-146 709,-152 703,-158 697,-158"/>
<text text-anchor="middle" x="655.5" y="-136.3" font-family="Arial" font-size="14.00">Deer is labeled</text>
</g>
<!-- n3&#45;&gt;n5 -->
<g id="edge6" class="edge">
<title>n3&#45;&gt;n5</title>
<path fill="none" stroke="black" d="M655.5,-243.81C655.5,-224.11 655.5,-191.58 655.5,-168.39"/>
<polygon fill="black" stroke="black" points="659,-168.16 655.5,-158.16 652,-168.16 659,-168.16"/>
</g>
<!-- n7 -->
<g id="node8" class="node">
<title>n7</title>
<polygon fill="lightcoral" stroke="black" points="963.5,-158 766.6,-140 963.5,-122 1160.4,-140 963.5,-158"/>
<text text-anchor="middle" x="963.5" y="-136.3" font-family="Arial" font-size="14.00">Misunderstanding of deer habitat</text>
</g>
<!-- n3&#45;&gt;n7 -->
<g id="edge7" class="edge">
<title>n3&#45;&gt;n7</title>
<path fill="none" stroke="black" d="M699.3,-243.93C757.51,-221.26 859.83,-181.39 918.59,-158.5"/>
<polygon fill="black" stroke="black" points="919.94,-161.73 927.99,-154.84 917.4,-155.21 919.94,-161.73"/>
</g>
<!-- n8 -->
<g id="node9" class="node">
<title>n8</title>
<polygon fill="#f28e8e" stroke="black" points="455,-36 250,-36 250,0 455,0 455,-36"/>
<text text-anchor="middle" x="352.5" y="-14.3" font-family="Arial" font-size="14.00">Show fish in water environment</text>
</g>
<!-- n6&#45;&gt;n8 -->
<g id="edge8" class="edge">
<title>n6&#45;&gt;n8</title>
<path fill="none" stroke="black" d="M352.5,-121.81C352.5,-102.11 352.5,-69.58 352.5,-46.39"/>
<polygon fill="black" stroke="black" points="356,-46.16 352.5,-36.16 349,-46.16 356,-46.16"/>
</g>
<!-- n9 -->
<g id="node10" class="node">
<title>n9</title>
<polygon fill="#f28e8e" stroke="black" points="1082.5,-36 844.5,-36 844.5,0 1082.5,0 1082.5,-36"/>
<text text-anchor="middle" x="963.5" y="-14.3" font-family="Arial" font-size="14.00">Show deer on land (forest/grassland)</text>
</g>
<!-- n7&#45;&gt;n9 -->
<g id="edge9" class="edge">
<title>n7&#45;&gt;n9</title>
<path fill="none" stroke="black" d="M963.5,-121.81C963.5,-102.11 963.5,-69.58 963.5,-46.39"/>
<polygon fill="black" stroke="black" points="967,-46.16 963.5,-36.16 960,-46.16 967,-46.16"/>
</g>
</g>
</svg>
