<?xml version="1.0" encoding="UTF-8" standalone="no"?>
<!DOCTYPE svg PUBLIC "-//W3C//DTD SVG 1.1//EN"
 "http://www.w3.org/Graphics/SVG/1.1/DTD/svg11.dtd">
<!-- Generated by graphviz version 2.43.0 (0)
 -->
<!-- Pages: 1 -->
<svg width="1726pt" height="288pt"
 viewBox="0.00 0.00 1725.67 288.00" xmlns="http://www.w3.org/2000/svg" xmlns:xlink="http://www.w3.org/1999/xlink">
<g id="graph0" class="graph" transform="scale(1 1) rotate(0) translate(4 284)">
<polygon fill="white" stroke="transparent" points="-4,4 -4,-284 1721.67,-284 1721.67,4 -4,4"/>
<!-- n1 -->
<g id="node1" class="node">
<title>n1</title>
<polygon fill="lightblue" stroke="black" points="797,-262 685.5,-280 462.5,-280 351,-262 462.5,-244 685.5,-244 797,-262"/>
<text text-anchor="middle" x="574" y="-258.3" font-family="Arial" font-size="14.00">Draw a string telephone between two students.</text>
</g>
<!-- n2 -->
<g id="node2" class="node">
<title>n2</title>
<polygon fill="#fffdd0" stroke="black" points="236,-158 0,-158 0,-122 236,-122 236,-158"/>
<text text-anchor="middle" x="118" y="-136.3" font-family="Arial" font-size="14.00">Student holding red paper cup to ear</text>
</g>
<!-- n1&#45;&gt;n2 -->
<g id="edge1" class="edge">
<title>n1&#45;&gt;n2</title>
<path fill="none" stroke="black" d="M509.15,-243.93C425.57,-221.94 280.58,-183.78 192.54,-160.62"/>
<polygon fill="black" stroke="black" points="193.19,-157.17 182.63,-158.01 191.41,-163.94 193.19,-157.17"/>
</g>
<!-- n3 -->
<g id="node3" class="node">
<title>n3</title>
<polygon fill="#fffdd0" stroke="black" points="533.5,-158 294.5,-158 294.5,-122 533.5,-122 533.5,-158"/>
<text text-anchor="middle" x="414" y="-136.3" font-family="Arial" font-size="14.00">Student speaking into blue paper cup</text>
</g>
<!-- n1&#45;&gt;n3 -->
<g id="edge2" class="edge">
<title>n1&#45;&gt;n3</title>
<path fill="none" stroke="black" d="M551.08,-243.81C523.27,-222.96 476.28,-187.71 445.2,-164.4"/>
<polygon fill="black" stroke="black" points="446.98,-161.36 436.88,-158.16 442.78,-166.96 446.98,-161.36"/>
</g>
<!-- n4 -->
<g id="node4" class="node">
<title>n4</title>
<polygon fill="#fffdd0" stroke="black" points="1207,-158 935,-158 935,-122 1207,-122 1207,-158"/>
<text text-anchor="middle" x="1071" y="-136.3" font-family="Arial" font-size="14.00">Tight, straight white string connecting cups</text>
</g>
<!-- n1&#45;&gt;n4 -->
<g id="edge3" class="edge">
<title>n1&#45;&gt;n4</title>
<path fill="none" stroke="black" d="M644.42,-244C735.71,-221.95 894.57,-183.6 990.54,-160.43"/>
<polygon fill="black" stroke="black" points="991.6,-163.78 1000.5,-158.03 989.96,-156.97 991.6,-163.78"/>
</g>
<!-- n5 -->
<g id="node5" class="node">
<title>n5</title>
<polygon fill="#fffdd0" stroke="black" points="876.5,-158 591.5,-158 591.5,-122 876.5,-122 876.5,-158"/>
<text text-anchor="middle" x="734" y="-136.3" font-family="Arial" font-size="14.00">Sound waves drawn as wavy lines near cups</text>
</g>
<!-- n1&#45;&gt;n5 -->
<g id="edge4" class="edge">
<title>n1&#45;&gt;n5</title>
<path fill="none" stroke="black" d="M596.92,-243.81C624.73,-222.96 671.72,-187.71 702.8,-164.4"/>
<polygon fill="black" stroke="black" points="705.22,-166.96 711.12,-158.16 701.02,-161.36 705.22,-166.96"/>
</g>
<!-- n6 -->
<g id="node6" class="node">
<title>n6</title>
<path fill="palegreen" stroke="black" d="M387.5,-36C387.5,-36 56.5,-36 56.5,-36 50.5,-36 44.5,-30 44.5,-24 44.5,-24 44.5,-12 44.5,-12 44.5,-6 50.5,0 56.5,0 56.5,0 387.5,0 387.5,0 393.5,0 399.5,-6 399.5,-12 399.5,-12 399.5,-24 399.5,-24 399.5,-30 393.5,-36 387.5,-36"/>
<text text-anchor="middle" x="222" y="-14.3" font-family="Arial" font-size="14.00">Representation of communication using string telephone</text>
</g>
<!-- n2&#45;&gt;n6 -->
<g id="edge5" class="edge">
<title>n2&#45;&gt;n6</title>
<path fill="none" stroke="black" d="M132.9,-121.81C150.59,-101.4 180.22,-67.21 200.41,-43.91"/>
<polygon fill="black" stroke="black" points="203.22,-46.01 207.13,-36.16 197.93,-41.42 203.22,-46.01"/>
</g>
<!-- n3&#45;&gt;n6 -->
<g id="edge6" class="edge">
<title>n3&#45;&gt;n6</title>
<path fill="none" stroke="black" d="M386.49,-121.81C352.7,-100.69 295.29,-64.81 258.01,-41.51"/>
<polygon fill="black" stroke="black" points="259.79,-38.5 249.46,-36.16 256.08,-44.43 259.79,-38.5"/>
</g>
<!-- n7 -->
<g id="node7" class="node">
<title>n7</title>
<path fill="palegreen" stroke="black" d="M894,-36C894,-36 574,-36 574,-36 568,-36 562,-30 562,-24 562,-24 562,-12 562,-12 562,-6 568,0 574,0 574,0 894,0 894,0 900,0 906,-6 906,-12 906,-12 906,-24 906,-24 906,-30 900,-36 894,-36"/>
<text text-anchor="middle" x="734" y="-14.3" font-family="Arial" font-size="14.00">Understanding of sound travel using physical elements</text>
</g>
<!-- n4&#45;&gt;n7 -->
<g id="edge7" class="edge">
<title>n4&#45;&gt;n7</title>
<path fill="none" stroke="black" d="M1023.1,-121.93C962.06,-100.21 856.75,-62.71 791.48,-39.47"/>
<polygon fill="black" stroke="black" points="792.35,-36.07 781.76,-36.01 790.01,-42.66 792.35,-36.07"/>
</g>
<!-- n8 -->
<g id="node8" class="node">
<title>n8</title>
<path fill="palegreen" stroke="black" d="M1294,-36C1294,-36 976,-36 976,-36 970,-36 964,-30 964,-24 964,-24 964,-12 964,-12 964,-6 970,0 976,0 976,0 1294,0 1294,0 1300,0 1306,-6 1306,-12 1306,-12 1306,-24 1306,-24 1306,-30 1300,-36 1294,-36"/>
<text text-anchor="middle" x="1135" y="-14.3" font-family="Arial" font-size="14.00">Understanding role of technology in connecting people</text>
</g>
<!-- n4&#45;&gt;n8 -->
<g id="edge8" class="edge">
<title>n4&#45;&gt;n8</title>
<path fill="none" stroke="black" d="M1080.2,-121.81C1090.9,-101.76 1108.7,-68.4 1121.1,-45.14"/>
<polygon fill="black" stroke="black" points="1124.26,-46.64 1125.8,-36.16 1118.06,-43.4 1124.26,-46.64"/>
</g>
<!-- n5&#45;&gt;n7 -->
<g id="edge9" class="edge">
<title>n5&#45;&gt;n7</title>
<path fill="none" stroke="black" d="M734,-121.81C734,-102.11 734,-69.58 734,-46.39"/>
<polygon fill="black" stroke="black" points="737.5,-46.16 734,-36.16 730.5,-46.16 737.5,-46.16"/>
</g>
<!-- n9 -->
<g id="node9" class="node">
<title>n9</title>
<polygon fill="lightcoral" stroke="black" points="1441,-280 1164.17,-262 1441,-244 1717.83,-262 1441,-280"/>
<text text-anchor="middle" x="1441" y="-258.3" font-family="Arial" font-size="14.00">Minor errors in labeling or sound wave direction</text>
</g>
<!-- n10 -->
<g id="node10" class="node">
<title>n10</title>
<polygon fill="#f28e8e" stroke="black" points="1616.5,-158 1265.5,-158 1265.5,-122 1616.5,-122 1616.5,-158"/>
<text text-anchor="middle" x="1441" y="-136.3" font-family="Arial" font-size="14.00">Label the sound waves and ensure directionality is clear</text>
</g>
<!-- n9&#45;&gt;n10 -->
<g id="edge10" class="edge">
<title>n9&#45;&gt;n10</title>
<path fill="none" stroke="black" d="M1441,-243.81C1441,-224.11 1441,-191.58 1441,-168.39"/>
<polygon fill="black" stroke="black" points="1444.5,-168.16 1441,-158.16 1437.5,-168.16 1444.5,-168.16"/>
</g>
</g>
</svg>
