<?xml version="1.0" encoding="UTF-8" standalone="no"?>
<!DOCTYPE svg PUBLIC "-//W3C//DTD SVG 1.1//EN"
 "http://www.w3.org/Graphics/SVG/1.1/DTD/svg11.dtd">
<!-- Generated by graphviz version 2.43.0 (0)
 -->
<!-- Pages: 1 -->
<svg width="1883pt" height="410pt"
 viewBox="0.00 0.00 1883.12 410.00" xmlns="http://www.w3.org/2000/svg" xmlns:xlink="http://www.w3.org/1999/xlink">
<g id="graph0" class="graph" transform="scale(1 1) rotate(0) translate(4 406)">
<polygon fill="white" stroke="transparent" points="-4,4 -4,-406 1879.12,-406 1879.12,4 -4,4"/>
<!-- n1 -->
<g id="node1" class="node">
<title>n1</title>
<polygon fill="lightblue" stroke="black" points="1176.5,-384 1012.5,-402 684.5,-402 520.5,-384 684.5,-366 1012.5,-366 1176.5,-384"/>
<text text-anchor="middle" x="848.5" y="-380.3" font-family="Arial" font-size="14.00">Draw reversible and irreversible changes (ice melting vs. egg cooking)</text>
</g>
<!-- n2 -->
<g id="node2" class="node">
<title>n2</title>
<polygon fill="#fffdd0" stroke="black" points="821.5,-280 407.5,-280 407.5,-244 821.5,-244 821.5,-280"/>
<text text-anchor="middle" x="614.5" y="-258.3" font-family="Arial" font-size="14.00">Blue square for ice, blue wavy lines for melting, blue blob for water</text>
</g>
<!-- n1&#45;&gt;n2 -->
<g id="edge1" class="edge">
<title>n1&#45;&gt;n2</title>
<path fill="none" stroke="black" d="M814.97,-365.81C773.36,-344.47 702.34,-308.05 656.96,-284.77"/>
<polygon fill="black" stroke="black" points="658.46,-281.6 647.96,-280.16 655.26,-287.83 658.46,-281.6"/>
</g>
<!-- n6 -->
<g id="node3" class="node">
<title>n6</title>
<polygon fill="#fffdd0" stroke="black" points="1287,-280 880,-280 880,-244 1287,-244 1287,-280"/>
<text text-anchor="middle" x="1083.5" y="-258.3" font-family="Arial" font-size="14.00">Large round yellow shape for egg, identical shape for cooked egg</text>
</g>
<!-- n1&#45;&gt;n6 -->
<g id="edge2" class="edge">
<title>n1&#45;&gt;n6</title>
<path fill="none" stroke="black" d="M882.17,-365.81C923.96,-344.47 995.28,-308.05 1040.9,-284.77"/>
<polygon fill="black" stroke="black" points="1042.6,-287.83 1049.9,-280.16 1039.4,-281.6 1042.6,-287.83"/>
</g>
<!-- n3 -->
<g id="node4" class="node">
<title>n3</title>
<path fill="palegreen" stroke="black" d="M275,-158C275,-158 12,-158 12,-158 6,-158 0,-152 0,-146 0,-146 0,-134 0,-134 0,-128 6,-122 12,-122 12,-122 275,-122 275,-122 281,-122 287,-128 287,-134 287,-134 287,-146 287,-146 287,-152 281,-158 275,-158"/>
<text text-anchor="middle" x="143.5" y="-136.3" font-family="Arial" font-size="14.00">Ice melting into water, refreezing is reversible</text>
</g>
<!-- n2&#45;&gt;n3 -->
<g id="edge3" class="edge">
<title>n2&#45;&gt;n3</title>
<path fill="none" stroke="black" d="M547.52,-243.93C461.02,-221.9 310.82,-183.63 219.94,-160.48"/>
<polygon fill="black" stroke="black" points="220.8,-157.09 210.25,-158.01 219.08,-163.87 220.8,-157.09"/>
</g>
<!-- n4 -->
<g id="node5" class="node">
<title>n4</title>
<polygon fill="lightcoral" stroke="black" points="623.5,-158 344.99,-140 623.5,-122 902.01,-140 623.5,-158"/>
<text text-anchor="middle" x="623.5" y="-136.3" font-family="Arial" font-size="14.00">Blue color for ice and water, no transition shown</text>
</g>
<!-- n2&#45;&gt;n4 -->
<g id="edge4" class="edge">
<title>n2&#45;&gt;n4</title>
<path fill="none" stroke="black" d="M615.79,-243.81C617.27,-224.11 619.71,-191.58 621.45,-168.39"/>
<polygon fill="black" stroke="black" points="624.96,-168.39 622.21,-158.16 617.98,-167.87 624.96,-168.39"/>
</g>
<!-- n7 -->
<g id="node6" class="node">
<title>n7</title>
<path fill="palegreen" stroke="black" d="M1159.5,-158C1159.5,-158 989.5,-158 989.5,-158 983.5,-158 977.5,-152 977.5,-146 977.5,-146 977.5,-134 977.5,-134 977.5,-128 983.5,-122 989.5,-122 989.5,-122 1159.5,-122 1159.5,-122 1165.5,-122 1171.5,-128 1171.5,-134 1171.5,-134 1171.5,-146 1171.5,-146 1171.5,-152 1165.5,-158 1159.5,-158"/>
<text text-anchor="middle" x="1074.5" y="-136.3" font-family="Arial" font-size="14.00">Cooking an egg is irreversible</text>
</g>
<!-- n6&#45;&gt;n7 -->
<g id="edge5" class="edge">
<title>n6&#45;&gt;n7</title>
<path fill="none" stroke="black" d="M1082.2,-243.81C1080.7,-224.11 1078.3,-191.58 1076.6,-168.39"/>
<polygon fill="black" stroke="black" points="1080.07,-167.86 1075.8,-158.16 1073.09,-168.4 1080.07,-167.86"/>
</g>
<!-- n8 -->
<g id="node7" class="node">
<title>n8</title>
<polygon fill="lightcoral" stroke="black" points="1552.5,-158 1229.75,-140 1552.5,-122 1875.25,-140 1552.5,-158"/>
<text text-anchor="middle" x="1552.5" y="-136.3" font-family="Arial" font-size="14.00">No change in appearance between raw and cooked egg</text>
</g>
<!-- n6&#45;&gt;n8 -->
<g id="edge6" class="edge">
<title>n6&#45;&gt;n8</title>
<path fill="none" stroke="black" d="M1150.2,-243.93C1240.1,-220.94 1398.9,-180.29 1487.8,-157.56"/>
<polygon fill="black" stroke="black" points="1488.88,-160.9 1497.7,-155.02 1487.14,-154.12 1488.88,-160.9"/>
</g>
<!-- n5 -->
<g id="node8" class="node">
<title>n5</title>
<polygon fill="#f28e8e" stroke="black" points="792.5,-36 454.5,-36 454.5,0 792.5,0 792.5,-36"/>
<text text-anchor="middle" x="623.5" y="-14.3" font-family="Arial" font-size="14.00">Include arrows or changes to show transition of states</text>
</g>
<!-- n4&#45;&gt;n5 -->
<g id="edge7" class="edge">
<title>n4&#45;&gt;n5</title>
<path fill="none" stroke="black" d="M623.5,-121.81C623.5,-102.11 623.5,-69.58 623.5,-46.39"/>
<polygon fill="black" stroke="black" points="627,-46.16 623.5,-36.16 620,-46.16 627,-46.16"/>
</g>
<!-- n9 -->
<g id="node9" class="node">
<title>n9</title>
<polygon fill="#f28e8e" stroke="black" points="1760.5,-36 1344.5,-36 1344.5,0 1760.5,0 1760.5,-36"/>
<text text-anchor="middle" x="1552.5" y="-14.3" font-family="Arial" font-size="14.00">Show distinct changes (e.g., color change) when the egg is cooked</text>
</g>
<!-- n8&#45;&gt;n9 -->
<g id="edge8" class="edge">
<title>n8&#45;&gt;n9</title>
<path fill="none" stroke="black" d="M1552.5,-121.81C1552.5,-102.11 1552.5,-69.58 1552.5,-46.39"/>
<polygon fill="black" stroke="black" points="1556,-46.16 1552.5,-36.16 1549,-46.16 1556,-46.16"/>
</g>
</g>
</svg>
