<?xml version="1.0" encoding="UTF-8" standalone="no"?>
<!DOCTYPE svg PUBLIC "-//W3C//DTD SVG 1.1//EN"
 "http://www.w3.org/Graphics/SVG/1.1/DTD/svg11.dtd">
<!-- Generated by graphviz version 2.43.0 (0)
 -->
<!-- Pages: 1 -->
<svg width="2128pt" height="410pt"
 viewBox="0.00 0.00 2127.59 410.00" xmlns="http://www.w3.org/2000/svg" xmlns:xlink="http://www.w3.org/1999/xlink">
<g id="graph0" class="graph" transform="scale(1 1) rotate(0) translate(4 406)">
<polygon fill="white" stroke="transparent" points="-4,4 -4,-406 2123.59,-406 2123.59,4 -4,4"/>
<!-- n1 -->
<g id="node1" class="node">
<title>n1</title>
<polygon fill="lightblue" stroke="black" points="1162.5,-384 1071.25,-402 888.75,-402 797.5,-384 888.75,-366 1071.25,-366 1162.5,-384"/>
<text text-anchor="middle" x="980" y="-380.3" font-family="Arial" font-size="14.00">Draw reversible changes (ice melting)</text>
</g>
<!-- n2 -->
<g id="node2" class="node">
<title>n2</title>
<polygon fill="#fffdd0" stroke="black" points="614,-280 0,-280 0,-244 614,-244 614,-280"/>
<text text-anchor="middle" x="307" y="-258.3" font-family="Arial" font-size="14.00">A clear blue ice block labeled &#39;ice&#39; with an arrow pointing to a pool of blue liquid water labeled &#39;water&#39;</text>
</g>
<!-- n1&#45;&gt;n2 -->
<g id="edge1" class="edge">
<title>n1&#45;&gt;n2</title>
<path fill="none" stroke="black" d="M886.78,-366.38C762.44,-344.21 542.92,-305.07 412.61,-281.83"/>
<polygon fill="black" stroke="black" points="413.07,-278.36 402.61,-280.05 411.84,-285.25 413.07,-278.36"/>
</g>
<!-- n3 -->
<g id="node3" class="node">
<title>n3</title>
<polygon fill="#fffdd0" stroke="black" points="936,-280 672,-280 672,-244 936,-244 936,-280"/>
<text text-anchor="middle" x="804" y="-258.3" font-family="Arial" font-size="14.00">An arrow with a sun icon signifies heating</text>
</g>
<!-- n1&#45;&gt;n3 -->
<g id="edge2" class="edge">
<title>n1&#45;&gt;n3</title>
<path fill="none" stroke="black" d="M954.78,-365.81C923.94,-344.78 871.62,-309.11 837.44,-285.8"/>
<polygon fill="black" stroke="black" points="839.4,-282.9 829.17,-280.16 835.46,-288.69 839.4,-282.9"/>
</g>
<!-- n4 -->
<g id="node4" class="node">
<title>n4</title>
<polygon fill="#fffdd0" stroke="black" points="1320,-280 994,-280 994,-244 1320,-244 1320,-280"/>
<text text-anchor="middle" x="1157" y="-258.3" font-family="Arial" font-size="14.00">An arrow with a snowflake icon indicating refreezing</text>
</g>
<!-- n1&#45;&gt;n4 -->
<g id="edge3" class="edge">
<title>n1&#45;&gt;n4</title>
<path fill="none" stroke="black" d="M1005.4,-365.81C1036.4,-344.78 1089,-309.11 1123.4,-285.8"/>
<polygon fill="black" stroke="black" points="1125.4,-288.68 1131.7,-280.16 1121.46,-282.89 1125.4,-288.68"/>
</g>
<!-- n5 -->
<g id="node5" class="node">
<title>n5</title>
<polygon fill="#fffdd0" stroke="black" points="1846,-280 1448,-280 1448,-244 1846,-244 1846,-280"/>
<text text-anchor="middle" x="1647" y="-258.3" font-family="Arial" font-size="14.00">Attempt to sketch an irreversible change with an egg being fried</text>
</g>
<!-- n1&#45;&gt;n5 -->
<g id="edge4" class="edge">
<title>n1&#45;&gt;n5</title>
<path fill="none" stroke="black" d="M1072.7,-366.31C1196.1,-344.13 1413.4,-305.02 1542.5,-281.81"/>
<polygon fill="black" stroke="black" points="1543.18,-285.24 1552.4,-280.03 1541.94,-278.35 1543.18,-285.24"/>
</g>
<!-- n6 -->
<g id="node6" class="node">
<title>n6</title>
<path fill="palegreen" stroke="black" d="M468,-158C468,-158 146,-158 146,-158 140,-158 134,-152 134,-146 134,-146 134,-134 134,-134 134,-128 140,-122 146,-122 146,-122 468,-122 468,-122 474,-122 480,-128 480,-134 480,-134 480,-146 480,-146 480,-152 474,-158 468,-158"/>
<text text-anchor="middle" x="307" y="-136.3" font-family="Arial" font-size="14.00">Understands ice melts into water and refreezes into ice</text>
</g>
<!-- n2&#45;&gt;n6 -->
<g id="edge5" class="edge">
<title>n2&#45;&gt;n6</title>
<path fill="none" stroke="black" d="M307,-243.81C307,-224.11 307,-191.58 307,-168.39"/>
<polygon fill="black" stroke="black" points="310.5,-168.16 307,-158.16 303.5,-168.16 310.5,-168.16"/>
</g>
<!-- n7 -->
<g id="node7" class="node">
<title>n7</title>
<path fill="palegreen" stroke="black" d="M910,-158C910,-158 698,-158 698,-158 692,-158 686,-152 686,-146 686,-146 686,-134 686,-134 686,-128 692,-122 698,-122 698,-122 910,-122 910,-122 916,-122 922,-128 922,-134 922,-134 922,-146 922,-146 922,-152 916,-158 910,-158"/>
<text text-anchor="middle" x="804" y="-136.3" font-family="Arial" font-size="14.00">Understands heating causes melting</text>
</g>
<!-- n3&#45;&gt;n7 -->
<g id="edge6" class="edge">
<title>n3&#45;&gt;n7</title>
<path fill="none" stroke="black" d="M804,-243.81C804,-224.11 804,-191.58 804,-168.39"/>
<polygon fill="black" stroke="black" points="807.5,-168.16 804,-158.16 800.5,-168.16 807.5,-168.16"/>
</g>
<!-- n8 -->
<g id="node8" class="node">
<title>n8</title>
<path fill="palegreen" stroke="black" d="M1244,-158C1244,-158 1018,-158 1018,-158 1012,-158 1006,-152 1006,-146 1006,-146 1006,-134 1006,-134 1006,-128 1012,-122 1018,-122 1018,-122 1244,-122 1244,-122 1250,-122 1256,-128 1256,-134 1256,-134 1256,-146 1256,-146 1256,-152 1250,-158 1244,-158"/>
<text text-anchor="middle" x="1131" y="-136.3" font-family="Arial" font-size="14.00">Understands cooling causes refreezing</text>
</g>
<!-- n4&#45;&gt;n8 -->
<g id="edge7" class="edge">
<title>n4&#45;&gt;n8</title>
<path fill="none" stroke="black" d="M1153.3,-243.81C1149,-224.02 1141.9,-191.29 1136.9,-168.08"/>
<polygon fill="black" stroke="black" points="1140.28,-167.16 1134.7,-158.16 1133.45,-168.68 1140.28,-167.16"/>
</g>
<!-- n9 -->
<g id="node9" class="node">
<title>n9</title>
<polygon fill="lightcoral" stroke="black" points="1717,-158 1314.32,-140 1717,-122 2119.68,-140 1717,-158"/>
<text text-anchor="middle" x="1717" y="-136.3" font-family="Arial" font-size="14.00">Misunderstanding or incomplete understanding of irreversible changes</text>
</g>
<!-- n5&#45;&gt;n9 -->
<g id="edge8" class="edge">
<title>n5&#45;&gt;n9</title>
<path fill="none" stroke="black" d="M1657,-243.81C1668.8,-223.55 1688.6,-189.72 1702.2,-166.43"/>
<polygon fill="black" stroke="black" points="1705.23,-168.18 1707.2,-157.77 1699.17,-164.68 1705.23,-168.18"/>
</g>
<!-- n10 -->
<g id="node10" class="node">
<title>n10</title>
<polygon fill="#f28e8e" stroke="black" points="1973,-36 1461,-36 1461,0 1973,0 1973,-36"/>
<text text-anchor="middle" x="1717" y="-14.3" font-family="Arial" font-size="14.00">Clarify that the fried egg cannot turn back into a raw egg; it&#39;s an irreversible change</text>
</g>
<!-- n9&#45;&gt;n10 -->
<g id="edge9" class="edge">
<title>n9&#45;&gt;n10</title>
<path fill="none" stroke="black" d="M1717,-121.81C1717,-102.11 1717,-69.58 1717,-46.39"/>
<polygon fill="black" stroke="black" points="1720.5,-46.16 1717,-36.16 1713.5,-46.16 1720.5,-46.16"/>
</g>
</g>
</svg>
