<?xml version="1.0" encoding="UTF-8" standalone="no"?>
<!DOCTYPE svg PUBLIC "-//W3C//DTD SVG 1.1//EN"
 "http://www.w3.org/Graphics/SVG/1.1/DTD/svg11.dtd">
<!-- Generated by graphviz version 2.43.0 (0)
 -->
<!-- Pages: 1 -->
<svg width="1913pt" height="410pt"
 viewBox="0.00 0.00 1913.21 410.00" xmlns="http://www.w3.org/2000/svg" xmlns:xlink="http://www.w3.org/1999/xlink">
<g id="graph0" class="graph" transform="scale(1 1) rotate(0) translate(4 406)">
<polygon fill="white" stroke="transparent" points="-4,4 -4,-406 1909.21,-406 1909.21,4 -4,4"/>
<!-- n1 -->
<g id="node1" class="node">
<title>n1</title>
<polygon fill="lightblue" stroke="black" points="824.5,-384 733.25,-402 550.75,-402 459.5,-384 550.75,-366 733.25,-366 824.5,-384"/>
<text text-anchor="middle" x="642" y="-380.3" font-family="Arial" font-size="14.00">Draw a fish in their habitat with labels.</text>
</g>
<!-- n2 -->
<g id="node2" class="node">
<title>n2</title>
<polygon fill="#fffdd0" stroke="black" points="210,-280 0,-280 0,-244 210,-244 210,-280"/>
<text text-anchor="middle" x="105" y="-258.3" font-family="Arial" font-size="14.00">Detailed drawing of pond habitat</text>
</g>
<!-- n1&#45;&gt;n2 -->
<g id="edge1" class="edge">
<title>n1&#45;&gt;n2</title>
<path fill="none" stroke="black" d="M565.92,-366C466.97,-343.89 294.58,-305.37 191,-282.22"/>
<polygon fill="black" stroke="black" points="191.71,-278.79 181.19,-280.03 190.19,-285.62 191.71,-278.79"/>
</g>
<!-- n3 -->
<g id="node3" class="node">
<title>n3</title>
<polygon fill="#fffdd0" stroke="black" points="574,-280 436,-280 436,-244 574,-244 574,-280"/>
<text text-anchor="middle" x="505" y="-258.3" font-family="Arial" font-size="14.00">Fish labeled as &#39;fish&#39;</text>
</g>
<!-- n1&#45;&gt;n3 -->
<g id="edge2" class="edge">
<title>n1&#45;&gt;n3</title>
<path fill="none" stroke="black" d="M622.37,-365.81C598.77,-345.13 559.02,-310.31 532.4,-287"/>
<polygon fill="black" stroke="black" points="534.42,-284.12 524.59,-280.16 529.81,-289.38 534.42,-284.12"/>
</g>
<!-- n4 -->
<g id="node4" class="node">
<title>n4</title>
<polygon fill="#fffdd0" stroke="black" points="1487,-280 1299,-280 1299,-244 1487,-244 1487,-280"/>
<text text-anchor="middle" x="1393" y="-258.3" font-family="Arial" font-size="14.00">Aquatic plants (reeds, algae)</text>
</g>
<!-- n1&#45;&gt;n4 -->
<g id="edge3" class="edge">
<title>n1&#45;&gt;n4</title>
<path fill="none" stroke="black" d="M740.18,-367.31C882.09,-344.64 1143.4,-302.88 1288.7,-279.67"/>
<polygon fill="black" stroke="black" points="1289.58,-283.07 1298.9,-278.03 1288.47,-276.16 1289.58,-283.07"/>
</g>
<!-- n5 -->
<g id="node5" class="node">
<title>n5</title>
<polygon fill="#fffdd0" stroke="black" points="377.5,-280 268.5,-280 268.5,-244 377.5,-244 377.5,-280"/>
<text text-anchor="middle" x="323" y="-258.3" font-family="Arial" font-size="14.00">Frog on lily pad</text>
</g>
<!-- n1&#45;&gt;n5 -->
<g id="edge4" class="edge">
<title>n1&#45;&gt;n5</title>
<path fill="none" stroke="black" d="M596.63,-365.93C539,-344.25 439.6,-306.86 377.79,-283.61"/>
<polygon fill="black" stroke="black" points="378.8,-280.25 368.21,-280.01 376.34,-286.8 378.8,-280.25"/>
</g>
<!-- n6 -->
<g id="node6" class="node">
<title>n6</title>
<polygon fill="#fffdd0" stroke="black" points="923.5,-280 632.5,-280 632.5,-244 923.5,-244 923.5,-280"/>
<text text-anchor="middle" x="778" y="-258.3" font-family="Arial" font-size="14.00">Water with ripples and bubbles labeled &#39;water&#39;</text>
</g>
<!-- n1&#45;&gt;n6 -->
<g id="edge5" class="edge">
<title>n1&#45;&gt;n6</title>
<path fill="none" stroke="black" d="M661.49,-365.81C684.92,-345.13 724.38,-310.31 750.8,-287"/>
<polygon fill="black" stroke="black" points="753.37,-289.4 758.55,-280.16 748.74,-284.15 753.37,-289.4"/>
</g>
<!-- n7 -->
<g id="node7" class="node">
<title>n7</title>
<polygon fill="#fffdd0" stroke="black" points="1240.5,-280 981.5,-280 981.5,-244 1240.5,-244 1240.5,-280"/>
<text text-anchor="middle" x="1111" y="-258.3" font-family="Arial" font-size="14.00">Arrow from water to fish (need for water)</text>
</g>
<!-- n1&#45;&gt;n7 -->
<g id="edge6" class="edge">
<title>n1&#45;&gt;n7</title>
<path fill="none" stroke="black" d="M708.7,-365.93C794.74,-343.92 944.09,-305.71 1034.6,-282.55"/>
<polygon fill="black" stroke="black" points="1035.68,-285.89 1044.5,-280.01 1033.94,-279.11 1035.68,-285.89"/>
</g>
<!-- n9 -->
<g id="node8" class="node">
<title>n9</title>
<path fill="palegreen" stroke="black" d="M282.5,-158C282.5,-158 145.5,-158 145.5,-158 139.5,-158 133.5,-152 133.5,-146 133.5,-146 133.5,-134 133.5,-134 133.5,-128 139.5,-122 145.5,-122 145.5,-122 282.5,-122 282.5,-122 288.5,-122 294.5,-128 294.5,-134 294.5,-134 294.5,-146 294.5,-146 294.5,-152 288.5,-158 282.5,-158"/>
<text text-anchor="middle" x="214" y="-136.3" font-family="Arial" font-size="14.00">Fish and habitat interact</text>
</g>
<!-- n2&#45;&gt;n9 -->
<g id="edge7" class="edge">
<title>n2&#45;&gt;n9</title>
<path fill="none" stroke="black" d="M120.62,-243.81C139.23,-223.31 170.48,-188.91 191.65,-165.6"/>
<polygon fill="black" stroke="black" points="194.28,-167.91 198.41,-158.16 189.09,-163.21 194.28,-167.91"/>
</g>
<!-- n8 -->
<g id="node9" class="node">
<title>n8</title>
<path fill="palegreen" stroke="black" d="M856.5,-158C856.5,-158 699.5,-158 699.5,-158 693.5,-158 687.5,-152 687.5,-146 687.5,-146 687.5,-134 687.5,-134 687.5,-128 693.5,-122 699.5,-122 699.5,-122 856.5,-122 856.5,-122 862.5,-122 868.5,-128 868.5,-134 868.5,-134 868.5,-146 868.5,-146 868.5,-152 862.5,-158 856.5,-158"/>
<text text-anchor="middle" x="778" y="-136.3" font-family="Arial" font-size="14.00">Fish needs water to survive</text>
</g>
<!-- n3&#45;&gt;n8 -->
<g id="edge8" class="edge">
<title>n3&#45;&gt;n8</title>
<path fill="none" stroke="black" d="M543.82,-243.93C592.85,-222.39 677.16,-185.32 730.12,-162.04"/>
<polygon fill="black" stroke="black" points="731.56,-165.23 739.31,-158.01 728.75,-158.82 731.56,-165.23"/>
</g>
<!-- n10 -->
<g id="node10" class="node">
<title>n10</title>
<polygon fill="lightcoral" stroke="black" points="1393,-158 1187,-140 1393,-122 1599,-140 1393,-158"/>
<text text-anchor="middle" x="1393" y="-136.3" font-family="Arial" font-size="14.00">Aquatic plants provide food for fish</text>
</g>
<!-- n4&#45;&gt;n10 -->
<g id="edge9" class="edge">
<title>n4&#45;&gt;n10</title>
<path fill="none" stroke="black" d="M1393,-243.81C1393,-224.11 1393,-191.58 1393,-168.39"/>
<polygon fill="black" stroke="black" points="1396.5,-168.16 1393,-158.16 1389.5,-168.16 1396.5,-168.16"/>
</g>
<!-- n5&#45;&gt;n9 -->
<g id="edge10" class="edge">
<title>n5&#45;&gt;n9</title>
<path fill="none" stroke="black" d="M307.38,-243.81C288.77,-223.31 257.52,-188.91 236.35,-165.6"/>
<polygon fill="black" stroke="black" points="238.91,-163.21 229.59,-158.16 233.72,-167.91 238.91,-163.21"/>
</g>
<!-- n6&#45;&gt;n8 -->
<g id="edge11" class="edge">
<title>n6&#45;&gt;n8</title>
<path fill="none" stroke="black" d="M778,-243.81C778,-224.11 778,-191.58 778,-168.39"/>
<polygon fill="black" stroke="black" points="781.5,-168.16 778,-158.16 774.5,-168.16 781.5,-168.16"/>
</g>
<!-- n7&#45;&gt;n8 -->
<g id="edge12" class="edge">
<title>n7&#45;&gt;n8</title>
<path fill="none" stroke="black" d="M1063.6,-243.93C1003.4,-222.21 899.29,-184.71 834.8,-161.47"/>
<polygon fill="black" stroke="black" points="835.78,-158.1 825.19,-158.01 833.41,-164.69 835.78,-158.1"/>
</g>
<!-- n11 -->
<g id="node11" class="node">
<title>n11</title>
<polygon fill="#f28e8e" stroke="black" points="1526,-36 1260,-36 1260,0 1526,0 1526,-36"/>
<text text-anchor="middle" x="1393" y="-14.3" font-family="Arial" font-size="14.00">Label aquatic plant as food source for fish</text>
</g>
<!-- n10&#45;&gt;n11 -->
<g id="edge13" class="edge">
<title>n10&#45;&gt;n11</title>
<path fill="none" stroke="black" d="M1393,-121.81C1393,-102.11 1393,-69.58 1393,-46.39"/>
<polygon fill="black" stroke="black" points="1396.5,-46.16 1393,-36.16 1389.5,-46.16 1396.5,-46.16"/>
</g>
<!-- n12 -->
<g id="node12" class="node">
<title>n12</title>
<polygon fill="lightcoral" stroke="black" points="1703,-402 1500.57,-384 1703,-366 1905.43,-384 1703,-402"/>
<text text-anchor="middle" x="1703" y="-380.3" font-family="Arial" font-size="14.00">Unlabeled elements: clouds, birds</text>
</g>
<!-- n13 -->
<g id="node13" class="node">
<title>n13</title>
<polygon fill="#f28e8e" stroke="black" points="1860.5,-280 1545.5,-280 1545.5,-244 1860.5,-244 1860.5,-280"/>
<text text-anchor="middle" x="1703" y="-258.3" font-family="Arial" font-size="14.00">Consider labeling important non&#45;aquatic elements</text>
</g>
<!-- n12&#45;&gt;n13 -->
<g id="edge14" class="edge">
<title>n12&#45;&gt;n13</title>
<path fill="none" stroke="black" d="M1703,-365.81C1703,-346.11 1703,-313.58 1703,-290.39"/>
<polygon fill="black" stroke="black" points="1706.5,-290.16 1703,-280.16 1699.5,-290.16 1706.5,-290.16"/>
</g>
</g>
</svg>
