<?xml version="1.0" encoding="UTF-8" standalone="no"?>
<!DOCTYPE svg PUBLIC "-//W3C//DTD SVG 1.1//EN"
 "http://www.w3.org/Graphics/SVG/1.1/DTD/svg11.dtd">
<!-- Generated by graphviz version 2.43.0 (0)
 -->
<!-- Pages: 1 -->
<svg width="2884pt" height="410pt"
 viewBox="0.00 0.00 2884.00 410.00" xmlns="http://www.w3.org/2000/svg" xmlns:xlink="http://www.w3.org/1999/xlink">
<g id="graph0" class="graph" transform="scale(1 1) rotate(0) translate(4 406)">
<polygon fill="white" stroke="transparent" points="-4,4 -4,-406 2880,-406 2880,4 -4,4"/>
<!-- n1 -->
<g id="node1" class="node">
<title>n1</title>
<polygon fill="lightblue" stroke="black" points="1237.87,-384 1095.19,-402 809.81,-402 667.13,-384 809.81,-366 1095.19,-366 1237.87,-384"/>
<text text-anchor="middle" x="952.5" y="-380.3" font-family="Arial" font-size="14.00">Draw animals in their habitats with labels (e.g., fish in water).</text>
</g>
<!-- n2 -->
<g id="node2" class="node">
<title>n2</title>
<polygon fill="#fffdd0" stroke="black" points="482,-280 177,-280 177,-244 482,-244 482,-280"/>
<text text-anchor="middle" x="329.5" y="-258.3" font-family="Arial" font-size="14.00">Fish next to a wavy blue line representing water.</text>
</g>
<!-- n1&#45;&gt;n2 -->
<g id="edge1" class="edge">
<title>n1&#45;&gt;n2</title>
<path fill="none" stroke="black" d="M864.23,-366C748.98,-343.8 547.83,-305.05 427.82,-281.94"/>
<polygon fill="black" stroke="black" points="428.38,-278.48 417.9,-280.03 427.06,-285.36 428.38,-278.48"/>
</g>
<!-- n3 -->
<g id="node3" class="node">
<title>n3</title>
<polygon fill="#fffdd0" stroke="black" points="927.5,-280 659.5,-280 659.5,-244 927.5,-244 927.5,-280"/>
<text text-anchor="middle" x="793.5" y="-258.3" font-family="Arial" font-size="14.00">Tree with green leaves in the background.</text>
</g>
<!-- n1&#45;&gt;n3 -->
<g id="edge2" class="edge">
<title>n1&#45;&gt;n3</title>
<path fill="none" stroke="black" d="M929.72,-365.81C902.09,-344.96 855.39,-309.71 824.5,-286.4"/>
<polygon fill="black" stroke="black" points="826.33,-283.4 816.24,-280.16 822.11,-288.98 826.33,-283.4"/>
</g>
<!-- n4 -->
<g id="node4" class="node">
<title>n4</title>
<polygon fill="#fffdd0" stroke="black" points="1532.5,-280 1278.5,-280 1278.5,-244 1532.5,-244 1532.5,-280"/>
<text text-anchor="middle" x="1405.5" y="-258.3" font-family="Arial" font-size="14.00">Bird scribbled in the sky next to a cloud.</text>
</g>
<!-- n1&#45;&gt;n4 -->
<g id="edge3" class="edge">
<title>n1&#45;&gt;n4</title>
<path fill="none" stroke="black" d="M1016.9,-365.93C1099.9,-343.94 1244,-305.78 1331.4,-282.62"/>
<polygon fill="black" stroke="black" points="1332.52,-285.94 1341.3,-280.01 1330.74,-279.17 1332.52,-285.94"/>
</g>
<!-- n5 -->
<g id="node5" class="node">
<title>n5</title>
<polygon fill="#fffdd0" stroke="black" points="2253,-280 2030,-280 2030,-244 2253,-244 2253,-280"/>
<text text-anchor="middle" x="2141.5" y="-258.3" font-family="Arial" font-size="14.00">Labels like &#39;fish&#39; and &#39;tree&#39; present.</text>
</g>
<!-- n1&#45;&gt;n5 -->
<g id="edge4" class="edge">
<title>n1&#45;&gt;n5</title>
<path fill="none" stroke="black" d="M1106.7,-367.44C1345.9,-343.29 1801.5,-297.31 2019.5,-275.32"/>
<polygon fill="black" stroke="black" points="2020.1,-278.78 2029.7,-274.29 2019.4,-271.81 2020.1,-278.78"/>
</g>
<!-- n6 -->
<g id="node6" class="node">
<title>n6</title>
<path fill="palegreen" stroke="black" d="M115,-158C115,-158 12,-158 12,-158 6,-158 0,-152 0,-146 0,-146 0,-134 0,-134 0,-128 6,-122 12,-122 12,-122 115,-122 115,-122 121,-122 127,-128 127,-134 127,-134 127,-146 127,-146 127,-152 121,-158 115,-158"/>
<text text-anchor="middle" x="63.5" y="-136.3" font-family="Arial" font-size="14.00">Fish lives in water.</text>
</g>
<!-- n2&#45;&gt;n6 -->
<g id="edge5" class="edge">
<title>n2&#45;&gt;n6</title>
<path fill="none" stroke="black" d="M291.67,-243.93C244.01,-222.43 162.09,-185.48 110.47,-162.19"/>
<polygon fill="black" stroke="black" points="111.75,-158.93 101.2,-158.01 108.88,-165.31 111.75,-158.93"/>
</g>
<!-- n7 -->
<g id="node7" class="node">
<title>n7</title>
<polygon fill="lightcoral" stroke="black" points="647.5,-158 185,-140 647.5,-122 1110,-140 647.5,-158"/>
<text text-anchor="middle" x="647.5" y="-136.3" font-family="Arial" font-size="14.00">Tree may suggest animals like deer live there, but lacks clear ecosystem context.</text>
</g>
<!-- n3&#45;&gt;n7 -->
<g id="edge6" class="edge">
<title>n3&#45;&gt;n7</title>
<path fill="none" stroke="black" d="M772.58,-243.81C747.03,-222.81 703.73,-187.21 675.37,-163.91"/>
<polygon fill="black" stroke="black" points="677.39,-161.04 667.44,-157.39 672.94,-166.44 677.39,-161.04"/>
</g>
<!-- n8 -->
<g id="node8" class="node">
<title>n8</title>
<polygon fill="lightcoral" stroke="black" points="1552.5,-158 1167.25,-140 1552.5,-122 1937.75,-140 1552.5,-158"/>
<text text-anchor="middle" x="1552.5" y="-136.3" font-family="Arial" font-size="14.00">Bird in sky is correct, but lacks complex understanding of its needs.</text>
</g>
<!-- n4&#45;&gt;n8 -->
<g id="edge7" class="edge">
<title>n4&#45;&gt;n8</title>
<path fill="none" stroke="black" d="M1426.6,-243.81C1452.3,-222.81 1495.9,-187.21 1524.4,-163.91"/>
<polygon fill="black" stroke="black" points="1526.86,-166.42 1532.4,-157.39 1522.44,-160.99 1526.86,-166.42"/>
</g>
<!-- n9 -->
<g id="node9" class="node">
<title>n9</title>
<polygon fill="lightcoral" stroke="black" points="2435.5,-158 1995,-140 2435.5,-122 2876,-140 2435.5,-158"/>
<text text-anchor="middle" x="2435.5" y="-136.3" font-family="Arial" font-size="14.00">Labels indicate awareness of naming but miss resources needed for survival.</text>
</g>
<!-- n5&#45;&gt;n9 -->
<g id="edge8" class="edge">
<title>n5&#45;&gt;n9</title>
<path fill="none" stroke="black" d="M2183.3,-243.93C2237.4,-221.85 2331.4,-183.48 2388.1,-160.34"/>
<polygon fill="black" stroke="black" points="2389.65,-163.49 2397.6,-156.48 2387.02,-157 2389.65,-163.49"/>
</g>
<!-- n10 -->
<g id="node10" class="node">
<title>n10</title>
<polygon fill="#f28e8e" stroke="black" points="830,-36 465,-36 465,0 830,0 830,-36"/>
<text text-anchor="middle" x="647.5" y="-14.3" font-family="Arial" font-size="14.00">Teach about ecosystem interactions (e.g., deer and trees).</text>
</g>
<!-- n7&#45;&gt;n10 -->
<g id="edge9" class="edge">
<title>n7&#45;&gt;n10</title>
<path fill="none" stroke="black" d="M647.5,-121.81C647.5,-102.11 647.5,-69.58 647.5,-46.39"/>
<polygon fill="black" stroke="black" points="651,-46.16 647.5,-36.16 644,-46.16 651,-46.16"/>
</g>
<!-- n11 -->
<g id="node11" class="node">
<title>n11</title>
<polygon fill="#f28e8e" stroke="black" points="1694,-36 1411,-36 1411,0 1694,0 1694,-36"/>
<text text-anchor="middle" x="1552.5" y="-14.3" font-family="Arial" font-size="14.00">Expand on bird habitats and needs like food.</text>
</g>
<!-- n8&#45;&gt;n11 -->
<g id="edge10" class="edge">
<title>n8&#45;&gt;n11</title>
<path fill="none" stroke="black" d="M1552.5,-121.81C1552.5,-102.11 1552.5,-69.58 1552.5,-46.39"/>
<polygon fill="black" stroke="black" points="1556,-46.16 1552.5,-36.16 1549,-46.16 1556,-46.16"/>
</g>
<!-- n12 -->
<g id="node12" class="node">
<title>n12</title>
<polygon fill="#f28e8e" stroke="black" points="2616.5,-36 2254.5,-36 2254.5,0 2616.5,0 2616.5,-36"/>
<text text-anchor="middle" x="2435.5" y="-14.3" font-family="Arial" font-size="14.00">Introduce resources for survival such as sunlight for trees.</text>
</g>
<!-- n9&#45;&gt;n12 -->
<g id="edge11" class="edge">
<title>n9&#45;&gt;n12</title>
<path fill="none" stroke="black" d="M2435.5,-121.81C2435.5,-102.11 2435.5,-69.58 2435.5,-46.39"/>
<polygon fill="black" stroke="black" points="2439,-46.16 2435.5,-36.16 2432,-46.16 2439,-46.16"/>
</g>
</g>
</svg>
