<?xml version="1.0" encoding="UTF-8" standalone="no"?>
<!DOCTYPE svg PUBLIC "-//W3C//DTD SVG 1.1//EN"
 "http://www.w3.org/Graphics/SVG/1.1/DTD/svg11.dtd">
<!-- Generated by graphviz version 2.43.0 (0)
 -->
<!-- Pages: 1 -->
<svg width="1651pt" height="410pt"
 viewBox="0.00 0.00 1651.00 410.00" xmlns="http://www.w3.org/2000/svg" xmlns:xlink="http://www.w3.org/1999/xlink">
<g id="graph0" class="graph" transform="scale(1 1) rotate(0) translate(4 406)">
<polygon fill="white" stroke="transparent" points="-4,4 -4,-406 1647,-406 1647,4 -4,4"/>
<!-- n1 -->
<g id="node1" class="node">
<title>n1</title>
<polygon fill="lightblue" stroke="black" points="632.5,-384 521,-402 298,-402 186.5,-384 298,-366 521,-366 632.5,-384"/>
<text text-anchor="middle" x="409.5" y="-380.3" font-family="Arial" font-size="14.00">Draw a string telephone between two students.</text>
</g>
<!-- n2 -->
<g id="node2" class="node">
<title>n2</title>
<polygon fill="#fffdd0" stroke="black" points="374.5,-280 44.5,-280 44.5,-244 374.5,-244 374.5,-280"/>
<text text-anchor="middle" x="209.5" y="-258.3" font-family="Arial" font-size="14.00">Two students standing separately, facing each other.</text>
</g>
<!-- n1&#45;&gt;n2 -->
<g id="edge1" class="edge">
<title>n1&#45;&gt;n2</title>
<path fill="none" stroke="black" d="M380.84,-365.81C345.65,-344.69 285.84,-308.81 247.01,-285.51"/>
<polygon fill="black" stroke="black" points="248.47,-282.31 238.1,-280.16 244.87,-288.31 248.47,-282.31"/>
</g>
<!-- n3 -->
<g id="node3" class="node">
<title>n3</title>
<polygon fill="#fffdd0" stroke="black" points="840,-280 487,-280 487,-244 840,-244 840,-280"/>
<text text-anchor="middle" x="663.5" y="-258.3" font-family="Arial" font-size="14.00">Random, wavy lines in various colors between students.</text>
</g>
<!-- n1&#45;&gt;n3 -->
<g id="edge2" class="edge">
<title>n1&#45;&gt;n3</title>
<path fill="none" stroke="black" d="M445.62,-365.93C491.04,-344.48 569.03,-307.63 618.34,-284.33"/>
<polygon fill="black" stroke="black" points="619.95,-287.44 627.5,-280.01 616.96,-281.11 619.95,-287.44"/>
</g>
<!-- n4 -->
<g id="node4" class="node">
<title>n4</title>
<path fill="palegreen" stroke="black" d="M299,-158C299,-158 12,-158 12,-158 6,-158 0,-152 0,-146 0,-146 0,-134 0,-134 0,-128 6,-122 12,-122 12,-122 299,-122 299,-122 305,-122 311,-128 311,-134 311,-134 311,-146 311,-146 311,-152 305,-158 299,-158"/>
<text text-anchor="middle" x="155.5" y="-136.3" font-family="Arial" font-size="14.00">Basic understanding of involving two participants.</text>
</g>
<!-- n2&#45;&gt;n4 -->
<g id="edge3" class="edge">
<title>n2&#45;&gt;n4</title>
<path fill="none" stroke="black" d="M201.76,-243.81C192.78,-223.85 177.86,-190.7 167.4,-167.45"/>
<polygon fill="black" stroke="black" points="170.52,-165.84 163.22,-158.16 164.13,-168.72 170.52,-165.84"/>
</g>
<!-- n5 -->
<g id="node5" class="node">
<title>n5</title>
<polygon fill="lightcoral" stroke="black" points="663.5,-158 369.24,-140 663.5,-122 957.76,-140 663.5,-158"/>
<text text-anchor="middle" x="663.5" y="-136.3" font-family="Arial" font-size="14.00">Misunderstanding of how string connects the cups.</text>
</g>
<!-- n3&#45;&gt;n5 -->
<g id="edge4" class="edge">
<title>n3&#45;&gt;n5</title>
<path fill="none" stroke="black" d="M663.5,-243.81C663.5,-224.11 663.5,-191.58 663.5,-168.39"/>
<polygon fill="black" stroke="black" points="667,-168.16 663.5,-158.16 660,-168.16 667,-168.16"/>
</g>
<!-- n6 -->
<g id="node6" class="node">
<title>n6</title>
<polygon fill="lightcoral" stroke="black" points="1329.5,-158 1016,-140 1329.5,-122 1643,-140 1329.5,-158"/>
<text text-anchor="middle" x="1329.5" y="-136.3" font-family="Arial" font-size="14.00">Misunderstanding of how sound travels through string.</text>
</g>
<!-- n3&#45;&gt;n6 -->
<g id="edge5" class="edge">
<title>n3&#45;&gt;n6</title>
<path fill="none" stroke="black" d="M757.86,-244C888.75,-220.41 1123.3,-178.16 1247.3,-155.81"/>
<polygon fill="black" stroke="black" points="1248.28,-159.19 1257.5,-153.97 1247.04,-152.3 1248.28,-159.19"/>
</g>
<!-- n7 -->
<g id="node7" class="node">
<title>n7</title>
<polygon fill="#f28e8e" stroke="black" points="840,-36 487,-36 487,0 840,0 840,-36"/>
<text text-anchor="middle" x="663.5" y="-14.3" font-family="Arial" font-size="14.00">Consider accurately drawing string connecting two cups.</text>
</g>
<!-- n5&#45;&gt;n7 -->
<g id="edge6" class="edge">
<title>n5&#45;&gt;n7</title>
<path fill="none" stroke="black" d="M663.5,-121.81C663.5,-102.11 663.5,-69.58 663.5,-46.39"/>
<polygon fill="black" stroke="black" points="667,-46.16 663.5,-36.16 660,-46.16 667,-46.16"/>
</g>
<!-- n8 -->
<g id="node8" class="node">
<title>n8</title>
<polygon fill="#f28e8e" stroke="black" points="1482,-36 1177,-36 1177,0 1482,0 1482,-36"/>
<text text-anchor="middle" x="1329.5" y="-14.3" font-family="Arial" font-size="14.00">Illustrate sound waves traveling along the string.</text>
</g>
<!-- n6&#45;&gt;n8 -->
<g id="edge7" class="edge">
<title>n6&#45;&gt;n8</title>
<path fill="none" stroke="black" d="M1329.5,-121.81C1329.5,-102.11 1329.5,-69.58 1329.5,-46.39"/>
<polygon fill="black" stroke="black" points="1333,-46.16 1329.5,-36.16 1326,-46.16 1333,-46.16"/>
</g>
</g>
</svg>
