<?xml version="1.0" encoding="UTF-8" standalone="no"?>
<!DOCTYPE svg PUBLIC "-//W3C//DTD SVG 1.1//EN"
 "http://www.w3.org/Graphics/SVG/1.1/DTD/svg11.dtd">
<!-- Generated by graphviz version 2.43.0 (0)
 -->
<!-- Pages: 1 -->
<svg width="2171pt" height="410pt"
 viewBox="0.00 0.00 2171.00 410.00" xmlns="http://www.w3.org/2000/svg" xmlns:xlink="http://www.w3.org/1999/xlink">
<g id="graph0" class="graph" transform="scale(1 1) rotate(0) translate(4 406)">
<polygon fill="white" stroke="transparent" points="-4,4 -4,-406 2167,-406 2167,4 -4,4"/>
<!-- n1 -->
<g id="node1" class="node">
<title>n1</title>
<polygon fill="lightblue" stroke="black" points="1185.5,-384 1074,-402 851,-402 739.5,-384 851,-366 1074,-366 1185.5,-384"/>
<text text-anchor="middle" x="962.5" y="-380.3" font-family="Arial" font-size="14.00">Draw a string telephone between two students.</text>
</g>
<!-- n2 -->
<g id="node2" class="node">
<title>n2</title>
<polygon fill="#fffdd0" stroke="black" points="403.5,-280 329.5,-280 329.5,-244 403.5,-244 403.5,-280"/>
<text text-anchor="middle" x="366.5" y="-258.3" font-family="Arial" font-size="14.00">Two cups</text>
</g>
<!-- n1&#45;&gt;n2 -->
<g id="edge1" class="edge">
<title>n1&#45;&gt;n2</title>
<path fill="none" stroke="black" d="M878.06,-366C750.77,-340.37 513.96,-292.69 413.5,-272.46"/>
<polygon fill="black" stroke="black" points="414.13,-269.02 403.64,-270.48 412.76,-275.88 414.13,-269.02"/>
</g>
<!-- n3 -->
<g id="node3" class="node">
<title>n3</title>
<polygon fill="#fffdd0" stroke="black" points="711,-280 600,-280 600,-244 711,-244 711,-280"/>
<text text-anchor="middle" x="655.5" y="-258.3" font-family="Arial" font-size="14.00">Wavy/loose line</text>
</g>
<!-- n1&#45;&gt;n3 -->
<g id="edge2" class="edge">
<title>n1&#45;&gt;n3</title>
<path fill="none" stroke="black" d="M918.84,-365.93C863.49,-344.3 768.11,-307.02 708.6,-283.76"/>
<polygon fill="black" stroke="black" points="709.6,-280.39 699.01,-280.01 707.05,-286.91 709.6,-280.39"/>
</g>
<!-- n4 -->
<g id="node4" class="node">
<title>n4</title>
<polygon fill="#fffdd0" stroke="black" points="1065,-280 860,-280 860,-244 1065,-244 1065,-280"/>
<text text-anchor="middle" x="962.5" y="-258.3" font-family="Arial" font-size="14.00">Two cartoon&#45;like human figures</text>
</g>
<!-- n1&#45;&gt;n4 -->
<g id="edge3" class="edge">
<title>n1&#45;&gt;n4</title>
<path fill="none" stroke="black" d="M962.5,-365.81C962.5,-346.11 962.5,-313.58 962.5,-290.39"/>
<polygon fill="black" stroke="black" points="966,-290.16 962.5,-280.16 959,-290.16 966,-290.16"/>
</g>
<!-- n5 -->
<g id="node5" class="node">
<title>n5</title>
<polygon fill="#fffdd0" stroke="black" points="1426,-280 1217,-280 1217,-244 1426,-244 1426,-280"/>
<text text-anchor="middle" x="1321.5" y="-258.3" font-family="Arial" font-size="14.00">Arrows pointing away from cups</text>
</g>
<!-- n1&#45;&gt;n5 -->
<g id="edge4" class="edge">
<title>n1&#45;&gt;n5</title>
<path fill="none" stroke="black" d="M1013.6,-365.93C1078.8,-344.12 1191.7,-306.4 1261.1,-283.18"/>
<polygon fill="black" stroke="black" points="1262.22,-286.5 1270.6,-280.01 1260.01,-279.86 1262.22,-286.5"/>
</g>
<!-- n6 -->
<g id="node6" class="node">
<title>n6</title>
<polygon fill="#fffdd0" stroke="black" points="1925,-280 1656,-280 1656,-244 1925,-244 1925,-280"/>
<text text-anchor="middle" x="1790.5" y="-258.3" font-family="Arial" font-size="14.00">Random additional elements like a battery</text>
</g>
<!-- n1&#45;&gt;n6 -->
<g id="edge5" class="edge">
<title>n1&#45;&gt;n6</title>
<path fill="none" stroke="black" d="M1076.8,-366.44C1230.5,-344.16 1503,-304.66 1663.2,-281.45"/>
<polygon fill="black" stroke="black" points="1663.7,-284.91 1673.1,-280.02 1662.7,-277.99 1663.7,-284.91"/>
</g>
<!-- n7 -->
<g id="node7" class="node">
<title>n7</title>
<path fill="palegreen" stroke="black" d="M263,-158C263,-158 12,-158 12,-158 6,-158 0,-152 0,-146 0,-146 0,-134 0,-134 0,-128 6,-122 12,-122 12,-122 263,-122 263,-122 269,-122 275,-128 275,-134 275,-134 275,-146 275,-146 275,-152 269,-158 263,-158"/>
<text text-anchor="middle" x="137.5" y="-136.3" font-family="Arial" font-size="14.00">Understands the concept of using two cups</text>
</g>
<!-- n2&#45;&gt;n7 -->
<g id="edge6" class="edge">
<title>n2&#45;&gt;n7</title>
<path fill="none" stroke="black" d="M333.69,-243.81C293.05,-222.51 223.75,-186.2 179.33,-162.92"/>
<polygon fill="black" stroke="black" points="180.73,-159.7 170.25,-158.16 177.48,-165.9 180.73,-159.7"/>
</g>
<!-- n8 -->
<g id="node8" class="node">
<title>n8</title>
<polygon fill="lightcoral" stroke="black" points="565.5,-158 332.91,-140 565.5,-122 798.09,-140 565.5,-158"/>
<text text-anchor="middle" x="565.5" y="-136.3" font-family="Arial" font-size="14.00">Misunderstands string needs to be tight</text>
</g>
<!-- n3&#45;&gt;n8 -->
<g id="edge7" class="edge">
<title>n3&#45;&gt;n8</title>
<path fill="none" stroke="black" d="M642.61,-243.81C627.19,-223.26 601.3,-188.74 583.82,-165.42"/>
<polygon fill="black" stroke="black" points="586.59,-163.28 577.79,-157.39 581,-167.49 586.59,-163.28"/>
</g>
<!-- n9 -->
<g id="node9" class="node">
<title>n9</title>
<path fill="palegreen" stroke="black" d="M1056.5,-158C1056.5,-158 868.5,-158 868.5,-158 862.5,-158 856.5,-152 856.5,-146 856.5,-146 856.5,-134 856.5,-134 856.5,-128 862.5,-122 868.5,-122 868.5,-122 1056.5,-122 1056.5,-122 1062.5,-122 1068.5,-128 1068.5,-134 1068.5,-134 1068.5,-146 1068.5,-146 1068.5,-152 1062.5,-158 1056.5,-158"/>
<text text-anchor="middle" x="962.5" y="-136.3" font-family="Arial" font-size="14.00">Peers are present in the drawing</text>
</g>
<!-- n4&#45;&gt;n9 -->
<g id="edge8" class="edge">
<title>n4&#45;&gt;n9</title>
<path fill="none" stroke="black" d="M962.5,-243.81C962.5,-224.11 962.5,-191.58 962.5,-168.39"/>
<polygon fill="black" stroke="black" points="966,-168.16 962.5,-158.16 959,-168.16 966,-168.16"/>
</g>
<!-- n10 -->
<g id="node10" class="node">
<title>n10</title>
<polygon fill="lightcoral" stroke="black" points="1415.5,-158 1126.77,-140 1415.5,-122 1704.23,-140 1415.5,-158"/>
<text text-anchor="middle" x="1415.5" y="-136.3" font-family="Arial" font-size="14.00">Misunderstands sound transmission and direction</text>
</g>
<!-- n5&#45;&gt;n10 -->
<g id="edge9" class="edge">
<title>n5&#45;&gt;n10</title>
<path fill="none" stroke="black" d="M1335,-243.81C1351.1,-223.26 1378.1,-188.74 1396.4,-165.42"/>
<polygon fill="black" stroke="black" points="1399.28,-167.42 1402.7,-157.39 1393.77,-163.1 1399.28,-167.42"/>
</g>
<!-- n11 -->
<g id="node11" class="node">
<title>n11</title>
<polygon fill="lightcoral" stroke="black" points="1962.5,-158 1762,-140 1962.5,-122 2163,-140 1962.5,-158"/>
<text text-anchor="middle" x="1962.5" y="-136.3" font-family="Arial" font-size="14.00">Introduces unrelated components</text>
</g>
<!-- n6&#45;&gt;n11 -->
<g id="edge10" class="edge">
<title>n6&#45;&gt;n11</title>
<path fill="none" stroke="black" d="M1815.1,-243.81C1846.1,-222.21 1899.2,-185.18 1932.5,-161.95"/>
<polygon fill="black" stroke="black" points="1934.71,-164.68 1940.9,-156.08 1930.7,-158.94 1934.71,-164.68"/>
</g>
<!-- n12 -->
<g id="node12" class="node">
<title>n12</title>
<polygon fill="#f28e8e" stroke="black" points="701.5,-36 429.5,-36 429.5,0 701.5,0 701.5,-36"/>
<text text-anchor="middle" x="565.5" y="-14.3" font-family="Arial" font-size="14.00">Make the string taut to enable sound travel</text>
</g>
<!-- n8&#45;&gt;n12 -->
<g id="edge11" class="edge">
<title>n8&#45;&gt;n12</title>
<path fill="none" stroke="black" d="M565.5,-121.81C565.5,-102.11 565.5,-69.58 565.5,-46.39"/>
<polygon fill="black" stroke="black" points="569,-46.16 565.5,-36.16 562,-46.16 569,-46.16"/>
</g>
<!-- n13 -->
<g id="node13" class="node">
<title>n13</title>
<polygon fill="#f28e8e" stroke="black" points="1585,-36 1246,-36 1246,0 1585,0 1585,-36"/>
<text text-anchor="middle" x="1415.5" y="-14.3" font-family="Arial" font-size="14.00">Use arrows to show sound traveling through the string</text>
</g>
<!-- n10&#45;&gt;n13 -->
<g id="edge12" class="edge">
<title>n10&#45;&gt;n13</title>
<path fill="none" stroke="black" d="M1415.5,-121.81C1415.5,-102.11 1415.5,-69.58 1415.5,-46.39"/>
<polygon fill="black" stroke="black" points="1419,-46.16 1415.5,-36.16 1412,-46.16 1419,-46.16"/>
</g>
<!-- n14 -->
<g id="node14" class="node">
<title>n14</title>
<polygon fill="#f28e8e" stroke="black" points="2106,-36 1819,-36 1819,0 2106,0 2106,-36"/>
<text text-anchor="middle" x="1962.5" y="-14.3" font-family="Arial" font-size="14.00">Remove unnecessary elements like batteries</text>
</g>
<!-- n11&#45;&gt;n14 -->
<g id="edge13" class="edge">
<title>n11&#45;&gt;n14</title>
<path fill="none" stroke="black" d="M1962.5,-121.81C1962.5,-102.11 1962.5,-69.58 1962.5,-46.39"/>
<polygon fill="black" stroke="black" points="1966,-46.16 1962.5,-36.16 1959,-46.16 1966,-46.16"/>
</g>
</g>
</svg>
