<?xml version="1.0" encoding="UTF-8" standalone="no"?>
<!DOCTYPE svg PUBLIC "-//W3C//DTD SVG 1.1//EN"
 "http://www.w3.org/Graphics/SVG/1.1/DTD/svg11.dtd">
<!-- Generated by graphviz version 2.43.0 (0)
 -->
<!-- Pages: 1 -->
<svg width="1570pt" height="288pt"
 viewBox="0.00 0.00 1570.00 288.00" xmlns="http://www.w3.org/2000/svg" xmlns:xlink="http://www.w3.org/1999/xlink">
<g id="graph0" class="graph" transform="scale(1 1) rotate(0) translate(4 284)">
<polygon fill="white" stroke="transparent" points="-4,4 -4,-284 1566,-284 1566,4 -4,4"/>
<!-- n1 -->
<g id="node1" class="node">
<title>n1</title>
<polygon fill="lightblue" stroke="black" points="682,-262 590.75,-280 408.25,-280 317,-262 408.25,-244 590.75,-244 682,-262"/>
<text text-anchor="middle" x="499.5" y="-258.3" font-family="Arial" font-size="14.00">Draw reversible changes (ice melting)</text>
</g>
<!-- n2 -->
<g id="node2" class="node">
<title>n2</title>
<polygon fill="#fffdd0" stroke="black" points="218.5,-158 0.5,-158 0.5,-122 218.5,-122 218.5,-158"/>
<text text-anchor="middle" x="109.5" y="-136.3" font-family="Arial" font-size="14.00">Solid block of ice on a flat surface</text>
</g>
<!-- n1&#45;&gt;n2 -->
<g id="edge1" class="edge">
<title>n1&#45;&gt;n2</title>
<path fill="none" stroke="black" d="M444.04,-243.93C372.99,-222.07 250.05,-184.25 174.63,-161.04"/>
<polygon fill="black" stroke="black" points="175.36,-157.6 164.77,-158.01 173.3,-164.29 175.36,-157.6"/>
</g>
<!-- n3 -->
<g id="node3" class="node">
<title>n3</title>
<polygon fill="#fffdd0" stroke="black" points="467.5,-158 283.5,-158 283.5,-122 467.5,-122 467.5,-158"/>
<text text-anchor="middle" x="375.5" y="-136.3" font-family="Arial" font-size="14.00">Melted water where ice was</text>
</g>
<!-- n1&#45;&gt;n3 -->
<g id="edge2" class="edge">
<title>n1&#45;&gt;n3</title>
<path fill="none" stroke="black" d="M481.73,-243.81C460.46,-223.22 424.7,-188.61 400.61,-165.3"/>
<polygon fill="black" stroke="black" points="402.85,-162.6 393.23,-158.16 397.98,-167.63 402.85,-162.6"/>
</g>
<!-- n4 -->
<g id="node4" class="node">
<title>n4</title>
<polygon fill="#fffdd0" stroke="black" points="725,-158 530,-158 530,-122 725,-122 725,-158"/>
<text text-anchor="middle" x="627.5" y="-136.3" font-family="Arial" font-size="14.00">Water refreezing back into ice</text>
</g>
<!-- n1&#45;&gt;n4 -->
<g id="edge3" class="edge">
<title>n1&#45;&gt;n4</title>
<path fill="none" stroke="black" d="M517.84,-243.81C539.8,-223.22 576.71,-188.61 601.58,-165.3"/>
<polygon fill="black" stroke="black" points="604.29,-167.55 609.19,-158.16 599.5,-162.45 604.29,-167.55"/>
</g>
<!-- n8 -->
<g id="node5" class="node">
<title>n8</title>
<polygon fill="lightcoral" stroke="black" points="1135.5,-158 834,-140 1135.5,-122 1437,-140 1135.5,-158"/>
<text text-anchor="middle" x="1135.5" y="-136.3" font-family="Arial" font-size="14.00">Does not show irreversible changes like cooked egg</text>
</g>
<!-- n1&#45;&gt;n8 -->
<g id="edge4" class="edge">
<title>n1&#45;&gt;n8</title>
<path fill="none" stroke="black" d="M589.61,-244C714.48,-220.44 938.1,-178.25 1056.7,-155.87"/>
<polygon fill="black" stroke="black" points="1057.62,-159.26 1066.8,-153.97 1056.33,-152.38 1057.62,-159.26"/>
</g>
<!-- n5 -->
<g id="node6" class="node">
<title>n5</title>
<path fill="palegreen" stroke="black" d="M179,-36C179,-36 12,-36 12,-36 6,-36 0,-30 0,-24 0,-24 0,-12 0,-12 0,-6 6,0 12,0 12,0 179,0 179,0 185,0 191,-6 191,-12 191,-12 191,-24 191,-24 191,-30 185,-36 179,-36"/>
<text text-anchor="middle" x="95.5" y="-14.3" font-family="Arial" font-size="14.00">Illustrates original state of ice</text>
</g>
<!-- n2&#45;&gt;n5 -->
<g id="edge5" class="edge">
<title>n2&#45;&gt;n5</title>
<path fill="none" stroke="black" d="M107.49,-121.81C105.2,-102.11 101.4,-69.58 98.69,-46.39"/>
<polygon fill="black" stroke="black" points="102.14,-45.69 97.5,-36.16 95.18,-46.5 102.14,-45.69"/>
</g>
<!-- n6 -->
<g id="node7" class="node">
<title>n6</title>
<path fill="palegreen" stroke="black" d="M440,-36C440,-36 261,-36 261,-36 255,-36 249,-30 249,-24 249,-24 249,-12 249,-12 249,-6 255,0 261,0 261,0 440,0 440,0 446,0 452,-6 452,-12 452,-12 452,-24 452,-24 452,-30 446,-36 440,-36"/>
<text text-anchor="middle" x="350.5" y="-14.3" font-family="Arial" font-size="14.00">Illustrates ice turning into water</text>
</g>
<!-- n3&#45;&gt;n6 -->
<g id="edge6" class="edge">
<title>n3&#45;&gt;n6</title>
<path fill="none" stroke="black" d="M371.92,-121.81C367.8,-102.02 360.98,-69.29 356.14,-46.08"/>
<polygon fill="black" stroke="black" points="359.54,-45.24 354.08,-36.16 352.69,-46.66 359.54,-45.24"/>
</g>
<!-- n7 -->
<g id="node8" class="node">
<title>n7</title>
<path fill="palegreen" stroke="black" d="M740.5,-36C740.5,-36 522.5,-36 522.5,-36 516.5,-36 510.5,-30 510.5,-24 510.5,-24 510.5,-12 510.5,-12 510.5,-6 516.5,0 522.5,0 522.5,0 740.5,0 740.5,0 746.5,0 752.5,-6 752.5,-12 752.5,-12 752.5,-24 752.5,-24 752.5,-30 746.5,-36 740.5,-36"/>
<text text-anchor="middle" x="631.5" y="-14.3" font-family="Arial" font-size="14.00">Illustrates water freezing back into ice</text>
</g>
<!-- n4&#45;&gt;n7 -->
<g id="edge7" class="edge">
<title>n4&#45;&gt;n7</title>
<path fill="none" stroke="black" d="M628.07,-121.81C628.73,-102.11 629.81,-69.58 630.59,-46.39"/>
<polygon fill="black" stroke="black" points="634.1,-46.27 630.93,-36.16 627.1,-46.04 634.1,-46.27"/>
</g>
<!-- n9 -->
<g id="node9" class="node">
<title>n9</title>
<polygon fill="#f28e8e" stroke="black" points="1562,-36 811,-36 811,0 1562,0 1562,-36"/>
<text text-anchor="middle" x="1186.5" y="-14.3" font-family="Arial" font-size="14.00">Consider illustrating an irreversible change, such as a cooked egg, to enhance understanding of different types of changes.</text>
</g>
<!-- n8&#45;&gt;n9 -->
<g id="edge8" class="edge">
<title>n8&#45;&gt;n9</title>
<path fill="none" stroke="black" d="M1142.6,-122.31C1151,-102.48 1165.2,-69.12 1175.2,-45.69"/>
<polygon fill="black" stroke="black" points="1178.49,-46.9 1179.1,-36.32 1172.03,-44.21 1178.49,-46.9"/>
</g>
</g>
</svg>
