<?xml version="1.0" encoding="UTF-8" standalone="no"?>
<!DOCTYPE svg PUBLIC "-//W3C//DTD SVG 1.1//EN"
 "http://www.w3.org/Graphics/SVG/1.1/DTD/svg11.dtd">
<!-- Generated by graphviz version 2.43.0 (0)
 -->
<!-- Pages: 1 -->
<svg width="1783pt" height="410pt"
 viewBox="0.00 0.00 1783.00 410.00" xmlns="http://www.w3.org/2000/svg" xmlns:xlink="http://www.w3.org/1999/xlink">
<g id="graph0" class="graph" transform="scale(1 1) rotate(0) translate(4 406)">
<polygon fill="white" stroke="transparent" points="-4,4 -4,-406 1779,-406 1779,4 -4,4"/>
<!-- n1 -->
<g id="node1" class="node">
<title>n1</title>
<polygon fill="lightblue" stroke="black" points="1656.37,-384 1513.69,-402 1228.31,-402 1085.63,-384 1228.31,-366 1513.69,-366 1656.37,-384"/>
<text text-anchor="middle" x="1371" y="-380.3" font-family="Arial" font-size="14.00">Draw animals in their habitats with labels (e.g., fish in water).</text>
</g>
<!-- n2 -->
<g id="node2" class="node">
<title>n2</title>
<polygon fill="#fffdd0" stroke="black" points="825,-280 599,-280 599,-244 825,-244 825,-280"/>
<text text-anchor="middle" x="712" y="-258.3" font-family="Arial" font-size="14.00">Blue area with fish&#45;shaped outlines</text>
</g>
<!-- n1&#45;&gt;n2 -->
<g id="edge1" class="edge">
<title>n1&#45;&gt;n2</title>
<path fill="none" stroke="black" d="M1277.6,-366C1155.6,-343.78 942.52,-304.98 815.62,-281.87"/>
<polygon fill="black" stroke="black" points="815.96,-278.38 805.5,-280.03 814.71,-285.26 815.96,-278.38"/>
</g>
<!-- n3 -->
<g id="node3" class="node">
<title>n3</title>
<polygon fill="#fffdd0" stroke="black" points="1494,-280 1248,-280 1248,-244 1494,-244 1494,-280"/>
<text text-anchor="middle" x="1371" y="-258.3" font-family="Arial" font-size="14.00">Green shapes resembling trees/plants</text>
</g>
<!-- n1&#45;&gt;n3 -->
<g id="edge2" class="edge">
<title>n1&#45;&gt;n3</title>
<path fill="none" stroke="black" d="M1371,-365.81C1371,-346.11 1371,-313.58 1371,-290.39"/>
<polygon fill="black" stroke="black" points="1374.5,-290.16 1371,-280.16 1367.5,-290.16 1374.5,-290.16"/>
</g>
<!-- n4 -->
<g id="node4" class="node">
<title>n4</title>
<polygon fill="#fffdd0" stroke="black" points="1738,-280 1558,-280 1558,-244 1738,-244 1738,-280"/>
<text text-anchor="middle" x="1648" y="-258.3" font-family="Arial" font-size="14.00">Brown mountain&#45;like shape</text>
</g>
<!-- n1&#45;&gt;n4 -->
<g id="edge3" class="edge">
<title>n1&#45;&gt;n4</title>
<path fill="none" stroke="black" d="M1410.4,-365.93C1460.1,-344.39 1545.7,-307.32 1599.4,-284.04"/>
<polygon fill="black" stroke="black" points="1600.92,-287.2 1608.7,-280.01 1598.13,-280.77 1600.92,-287.2"/>
</g>
<!-- n5 -->
<g id="node5" class="node">
<title>n5</title>
<path fill="palegreen" stroke="black" d="M236,-158C236,-158 12,-158 12,-158 6,-158 0,-152 0,-146 0,-146 0,-134 0,-134 0,-128 6,-122 12,-122 12,-122 236,-122 236,-122 242,-122 248,-128 248,-134 248,-134 248,-146 248,-146 248,-152 242,-158 236,-158"/>
<text text-anchor="middle" x="124" y="-136.3" font-family="Arial" font-size="14.00">Fish in water shows habitat awareness</text>
</g>
<!-- n2&#45;&gt;n5 -->
<g id="edge4" class="edge">
<title>n2&#45;&gt;n5</title>
<path fill="none" stroke="black" d="M628.69,-244C520.13,-221.84 330.83,-183.21 217.48,-160.08"/>
<polygon fill="black" stroke="black" points="217.93,-156.6 207.43,-158.03 216.53,-163.46 217.93,-156.6"/>
</g>
<!-- n8 -->
<g id="node6" class="node">
<title>n8</title>
<polygon fill="lightcoral" stroke="black" points="472,-158 305.5,-140 472,-122 638.5,-140 472,-158"/>
<text text-anchor="middle" x="472" y="-136.3" font-family="Arial" font-size="14.00">Lack of meaningful labeling</text>
</g>
<!-- n2&#45;&gt;n8 -->
<g id="edge5" class="edge">
<title>n2&#45;&gt;n8</title>
<path fill="none" stroke="black" d="M677.87,-243.93C633.19,-221.6 555.17,-182.59 509.08,-159.54"/>
<polygon fill="black" stroke="black" points="510.54,-156.36 500.03,-155.02 507.41,-162.62 510.54,-156.36"/>
</g>
<!-- n9 -->
<g id="node7" class="node">
<title>n9</title>
<polygon fill="lightcoral" stroke="black" points="952,-158 696.45,-140 952,-122 1207.55,-140 952,-158"/>
<text text-anchor="middle" x="952" y="-136.3" font-family="Arial" font-size="14.00">No depiction of resources like sunlight or air</text>
</g>
<!-- n2&#45;&gt;n9 -->
<g id="edge6" class="edge">
<title>n2&#45;&gt;n9</title>
<path fill="none" stroke="black" d="M746.13,-243.93C790.2,-221.9 866.72,-183.64 913.03,-160.49"/>
<polygon fill="black" stroke="black" points="914.77,-163.53 922.15,-155.93 911.64,-157.27 914.77,-163.53"/>
</g>
<!-- n6 -->
<g id="node8" class="node">
<title>n6</title>
<path fill="palegreen" stroke="black" d="M1464.5,-158C1464.5,-158 1277.5,-158 1277.5,-158 1271.5,-158 1265.5,-152 1265.5,-146 1265.5,-146 1265.5,-134 1265.5,-134 1265.5,-128 1271.5,-122 1277.5,-122 1277.5,-122 1464.5,-122 1464.5,-122 1470.5,-122 1476.5,-128 1476.5,-134 1476.5,-134 1476.5,-146 1476.5,-146 1476.5,-152 1470.5,-158 1464.5,-158"/>
<text text-anchor="middle" x="1371" y="-136.3" font-family="Arial" font-size="14.00">Effort to depict plants near water</text>
</g>
<!-- n3&#45;&gt;n6 -->
<g id="edge7" class="edge">
<title>n3&#45;&gt;n6</title>
<path fill="none" stroke="black" d="M1371,-243.81C1371,-224.11 1371,-191.58 1371,-168.39"/>
<polygon fill="black" stroke="black" points="1374.5,-168.16 1371,-158.16 1367.5,-168.16 1374.5,-168.16"/>
</g>
<!-- n7 -->
<g id="node9" class="node">
<title>n7</title>
<path fill="palegreen" stroke="black" d="M1763,-158C1763,-158 1547,-158 1547,-158 1541,-158 1535,-152 1535,-146 1535,-146 1535,-134 1535,-134 1535,-128 1541,-122 1547,-122 1547,-122 1763,-122 1763,-122 1769,-122 1775,-128 1775,-134 1775,-134 1775,-146 1775,-146 1775,-152 1769,-158 1763,-158"/>
<text text-anchor="middle" x="1655" y="-136.3" font-family="Arial" font-size="14.00">Attempt to convey a complete habitat</text>
</g>
<!-- n4&#45;&gt;n7 -->
<g id="edge8" class="edge">
<title>n4&#45;&gt;n7</title>
<path fill="none" stroke="black" d="M1649,-243.81C1650.2,-224.11 1652,-191.58 1653.4,-168.39"/>
<polygon fill="black" stroke="black" points="1656.91,-168.35 1654,-158.16 1649.92,-167.94 1656.91,-168.35"/>
</g>
<!-- n10 -->
<g id="node10" class="node">
<title>n10</title>
<polygon fill="#f28e8e" stroke="black" points="701.5,-36 242.5,-36 242.5,0 701.5,0 701.5,-36"/>
<text text-anchor="middle" x="472" y="-14.3" font-family="Arial" font-size="14.00">Label animals and plants to show understanding of their names and roles.</text>
</g>
<!-- n8&#45;&gt;n10 -->
<g id="edge9" class="edge">
<title>n8&#45;&gt;n10</title>
<path fill="none" stroke="black" d="M472,-121.81C472,-102.11 472,-69.58 472,-46.39"/>
<polygon fill="black" stroke="black" points="475.5,-46.16 472,-36.16 468.5,-46.16 475.5,-46.16"/>
</g>
<!-- n11 -->
<g id="node11" class="node">
<title>n11</title>
<polygon fill="#f28e8e" stroke="black" points="1143.5,-36 760.5,-36 760.5,0 1143.5,0 1143.5,-36"/>
<text text-anchor="middle" x="952" y="-14.3" font-family="Arial" font-size="14.00">Include resources like sunlight, air for a complete ecosystem.</text>
</g>
<!-- n9&#45;&gt;n11 -->
<g id="edge10" class="edge">
<title>n9&#45;&gt;n11</title>
<path fill="none" stroke="black" d="M952,-121.81C952,-102.11 952,-69.58 952,-46.39"/>
<polygon fill="black" stroke="black" points="955.5,-46.16 952,-36.16 948.5,-46.16 955.5,-46.16"/>
</g>
</g>
</svg>
