<?xml version="1.0" encoding="UTF-8" standalone="no"?>
<!DOCTYPE svg PUBLIC "-//W3C//DTD SVG 1.1//EN"
 "http://www.w3.org/Graphics/SVG/1.1/DTD/svg11.dtd">
<!-- Generated by graphviz version 2.43.0 (0)
 -->
<!-- Pages: 1 -->
<svg width="1049pt" height="288pt"
 viewBox="0.00 0.00 1048.50 288.00" xmlns="http://www.w3.org/2000/svg" xmlns:xlink="http://www.w3.org/1999/xlink">
<g id="graph0" class="graph" transform="scale(1 1) rotate(0) translate(4 284)">
<polygon fill="white" stroke="transparent" points="-4,4 -4,-284 1044.5,-284 1044.5,4 -4,4"/>
<!-- n1 -->
<g id="node1" class="node">
<title>n1</title>
<polygon fill="lightblue" stroke="black" points="653,-262 561.75,-280 379.25,-280 288,-262 379.25,-244 561.75,-244 653,-262"/>
<text text-anchor="middle" x="470.5" y="-258.3" font-family="Arial" font-size="14.00">Draw reversible changes (ice melting)</text>
</g>
<!-- n2 -->
<g id="node2" class="node">
<title>n2</title>
<polygon fill="#fffdd0" stroke="black" points="231,-158 0,-158 0,-122 231,-122 231,-158"/>
<text text-anchor="middle" x="115.5" y="-136.3" font-family="Arial" font-size="14.00">Diagram with ice, water, and arrows</text>
</g>
<!-- n1&#45;&gt;n2 -->
<g id="edge1" class="edge">
<title>n1&#45;&gt;n2</title>
<path fill="none" stroke="black" d="M420.01,-243.93C355.61,-222.16 244.35,-184.56 175.63,-161.33"/>
<polygon fill="black" stroke="black" points="176.4,-157.9 165.81,-158.01 174.16,-164.53 176.4,-157.9"/>
</g>
<!-- n3 -->
<g id="node3" class="node">
<title>n3</title>
<polygon fill="#fffdd0" stroke="black" points="652,-158 289,-158 289,-122 652,-122 652,-158"/>
<text text-anchor="middle" x="470.5" y="-136.3" font-family="Arial" font-size="14.00">Labels: &#39;heating causes melting&#39;, &#39;cooling causes freezing&#39;</text>
</g>
<!-- n1&#45;&gt;n3 -->
<g id="edge2" class="edge">
<title>n1&#45;&gt;n3</title>
<path fill="none" stroke="black" d="M470.5,-243.81C470.5,-224.11 470.5,-191.58 470.5,-168.39"/>
<polygon fill="black" stroke="black" points="474,-168.16 470.5,-158.16 467,-168.16 474,-168.16"/>
</g>
<!-- n4 -->
<g id="node4" class="node">
<title>n4</title>
<polygon fill="#fffdd0" stroke="black" points="1040.5,-158 710.5,-158 710.5,-122 1040.5,-122 1040.5,-158"/>
<text text-anchor="middle" x="875.5" y="-136.3" font-family="Arial" font-size="14.00">Arrows indicating change from ice to water and back</text>
</g>
<!-- n1&#45;&gt;n4 -->
<g id="edge3" class="edge">
<title>n1&#45;&gt;n4</title>
<path fill="none" stroke="black" d="M528.1,-243.93C602.02,-222.03 730.06,-184.09 808.34,-160.9"/>
<polygon fill="black" stroke="black" points="809.51,-164.21 818.1,-158.01 807.52,-157.49 809.51,-164.21"/>
</g>
<!-- n5 -->
<g id="node5" class="node">
<title>n5</title>
<path fill="palegreen" stroke="black" d="M215,-36C215,-36 16,-36 16,-36 10,-36 4,-30 4,-24 4,-24 4,-12 4,-12 4,-6 10,0 16,0 16,0 215,0 215,0 221,0 227,-6 227,-12 227,-12 227,-24 227,-24 227,-30 221,-36 215,-36"/>
<text text-anchor="middle" x="115.5" y="-14.3" font-family="Arial" font-size="14.00">Correctly shows reversible change</text>
</g>
<!-- n2&#45;&gt;n5 -->
<g id="edge4" class="edge">
<title>n2&#45;&gt;n5</title>
<path fill="none" stroke="black" d="M115.5,-121.81C115.5,-102.11 115.5,-69.58 115.5,-46.39"/>
<polygon fill="black" stroke="black" points="119,-46.16 115.5,-36.16 112,-46.16 119,-46.16"/>
</g>
<!-- n6 -->
<g id="node6" class="node">
<title>n6</title>
<path fill="palegreen" stroke="black" d="M611,-36C611,-36 330,-36 330,-36 324,-36 318,-30 318,-24 318,-24 318,-12 318,-12 318,-6 324,0 330,0 330,0 611,0 611,0 617,0 623,-6 623,-12 623,-12 623,-24 623,-24 623,-30 617,-36 611,-36"/>
<text text-anchor="middle" x="470.5" y="-14.3" font-family="Arial" font-size="14.00">Correct cause and effect of melting and freezing</text>
</g>
<!-- n3&#45;&gt;n6 -->
<g id="edge5" class="edge">
<title>n3&#45;&gt;n6</title>
<path fill="none" stroke="black" d="M470.5,-121.81C470.5,-102.11 470.5,-69.58 470.5,-46.39"/>
<polygon fill="black" stroke="black" points="474,-46.16 470.5,-36.16 467,-46.16 474,-46.16"/>
</g>
<!-- n7 -->
<g id="node7" class="node">
<title>n7</title>
<path fill="palegreen" stroke="black" d="M984,-36C984,-36 767,-36 767,-36 761,-36 755,-30 755,-24 755,-24 755,-12 755,-12 755,-6 761,0 767,0 767,0 984,0 984,0 990,0 996,-6 996,-12 996,-12 996,-24 996,-24 996,-30 990,-36 984,-36"/>
<text text-anchor="middle" x="875.5" y="-14.3" font-family="Arial" font-size="14.00">Use of arrows to show transformation</text>
</g>
<!-- n4&#45;&gt;n7 -->
<g id="edge6" class="edge">
<title>n4&#45;&gt;n7</title>
<path fill="none" stroke="black" d="M875.5,-121.81C875.5,-102.11 875.5,-69.58 875.5,-46.39"/>
<polygon fill="black" stroke="black" points="879,-46.16 875.5,-36.16 872,-46.16 879,-46.16"/>
</g>
</g>
</svg>
