<?xml version="1.0" encoding="UTF-8" standalone="no"?>
<!DOCTYPE svg PUBLIC "-//W3C//DTD SVG 1.1//EN"
 "http://www.w3.org/Graphics/SVG/1.1/DTD/svg11.dtd">
<!-- Generated by graphviz version 2.43.0 (0)
 -->
<!-- Pages: 1 -->
<svg width="2309pt" height="410pt"
 viewBox="0.00 0.00 2308.61 410.00" xmlns="http://www.w3.org/2000/svg" xmlns:xlink="http://www.w3.org/1999/xlink">
<g id="graph0" class="graph" transform="scale(1 1) rotate(0) translate(4 406)">
<polygon fill="white" stroke="transparent" points="-4,4 -4,-406 2304.61,-406 2304.61,4 -4,4"/>
<!-- n1 -->
<g id="node1" class="node">
<title>n1</title>
<polygon fill="lightblue" stroke="black" points="1222.5,-384 1058.5,-402 730.5,-402 566.5,-384 730.5,-366 1058.5,-366 1222.5,-384"/>
<text text-anchor="middle" x="894.5" y="-380.3" font-family="Arial" font-size="14.00">Draw reversible and irreversible changes (ice melting vs. egg cooking)</text>
</g>
<!-- n2 -->
<g id="node2" class="node">
<title>n2</title>
<polygon fill="#fffdd0" stroke="black" points="422.5,-280 60.5,-280 60.5,-244 422.5,-244 422.5,-280"/>
<text text-anchor="middle" x="241.5" y="-258.3" font-family="Arial" font-size="14.00">Block of blue ice with arrow to puddle labeled &#39;ice melting&#39;</text>
</g>
<!-- n1&#45;&gt;n2 -->
<g id="edge1" class="edge">
<title>n1&#45;&gt;n2</title>
<path fill="none" stroke="black" d="M801.98,-366C681.06,-343.78 469.92,-304.98 344.18,-281.87"/>
<polygon fill="black" stroke="black" points="344.62,-278.39 334.15,-280.03 343.35,-285.28 344.62,-278.39"/>
</g>
<!-- n3 -->
<g id="node3" class="node">
<title>n3</title>
<polygon fill="#fffdd0" stroke="black" points="850.5,-280 506.5,-280 506.5,-244 850.5,-244 850.5,-280"/>
<text text-anchor="middle" x="678.5" y="-258.3" font-family="Arial" font-size="14.00">Arrow from blue puddle back to block labeled &#39;freezing&#39;</text>
</g>
<!-- n1&#45;&gt;n3 -->
<g id="edge2" class="edge">
<title>n1&#45;&gt;n3</title>
<path fill="none" stroke="black" d="M863.55,-365.81C825.3,-344.55 760.13,-308.35 718.22,-285.07"/>
<polygon fill="black" stroke="black" points="719.83,-281.96 709.39,-280.16 716.43,-288.08 719.83,-281.96"/>
</g>
<!-- n4 -->
<g id="node4" class="node">
<title>n4</title>
<polygon fill="#fffdd0" stroke="black" points="1356.5,-280 952.5,-280 952.5,-244 1356.5,-244 1356.5,-280"/>
<text text-anchor="middle" x="1154.5" y="-258.3" font-family="Arial" font-size="14.00">Brown and white raw egg with arrow to pan labeled &#39;egg cooking&#39;</text>
</g>
<!-- n1&#45;&gt;n4 -->
<g id="edge3" class="edge">
<title>n1&#45;&gt;n4</title>
<path fill="none" stroke="black" d="M931.48,-365.93C977.97,-344.48 1057.8,-307.63 1108.3,-284.33"/>
<polygon fill="black" stroke="black" points="1110.08,-287.37 1117.7,-280.01 1107.15,-281.01 1110.08,-287.37"/>
</g>
<!-- n5 -->
<g id="node5" class="node">
<title>n5</title>
<polygon fill="#fffdd0" stroke="black" points="1937,-280 1574,-280 1574,-244 1937,-244 1937,-280"/>
<text text-anchor="middle" x="1755.5" y="-258.3" font-family="Arial" font-size="14.00">Arrow to cooked egg outside the pan labeled &#39;cooked egg&#39;</text>
</g>
<!-- n1&#45;&gt;n5 -->
<g id="edge4" class="edge">
<title>n1&#45;&gt;n5</title>
<path fill="none" stroke="black" d="M1016.5,-366C1176.9,-343.64 1457.7,-304.51 1623.1,-281.45"/>
<polygon fill="black" stroke="black" points="1623.88,-284.88 1633.3,-280.03 1622.91,-277.94 1623.88,-284.88"/>
</g>
<!-- n6 -->
<g id="node6" class="node">
<title>n6</title>
<path fill="palegreen" stroke="black" d="M373,-158C373,-158 12,-158 12,-158 6,-158 0,-152 0,-146 0,-146 0,-134 0,-134 0,-128 6,-122 12,-122 12,-122 373,-122 373,-122 379,-122 385,-128 385,-134 385,-134 385,-146 385,-146 385,-152 379,-158 373,-158"/>
<text text-anchor="middle" x="192.5" y="-136.3" font-family="Arial" font-size="14.00">Understands reversible changes with ice melting and freezing</text>
</g>
<!-- n2&#45;&gt;n6 -->
<g id="edge5" class="edge">
<title>n2&#45;&gt;n6</title>
<path fill="none" stroke="black" d="M234.48,-243.81C226.33,-223.85 212.79,-190.7 203.3,-167.45"/>
<polygon fill="black" stroke="black" points="206.53,-166.1 199.51,-158.16 200.05,-168.74 206.53,-166.1"/>
</g>
<!-- n7 -->
<g id="node7" class="node">
<title>n7</title>
<path fill="palegreen" stroke="black" d="M858,-158C858,-158 455,-158 455,-158 449,-158 443,-152 443,-146 443,-146 443,-134 443,-134 443,-128 449,-122 455,-122 455,-122 858,-122 858,-122 864,-122 870,-128 870,-134 870,-134 870,-146 870,-146 870,-152 864,-158 858,-158"/>
<text text-anchor="middle" x="656.5" y="-136.3" font-family="Arial" font-size="14.00">Correctly represents reversible change of water to ice and vice versa</text>
</g>
<!-- n3&#45;&gt;n7 -->
<g id="edge6" class="edge">
<title>n3&#45;&gt;n7</title>
<path fill="none" stroke="black" d="M675.35,-243.81C671.72,-224.02 665.72,-191.29 661.46,-168.08"/>
<polygon fill="black" stroke="black" points="664.89,-167.37 659.65,-158.16 658,-168.63 664.89,-167.37"/>
</g>
<!-- n8 -->
<g id="node8" class="node">
<title>n8</title>
<polygon fill="lightcoral" stroke="black" points="1177.5,-158 928.32,-140 1177.5,-122 1426.68,-140 1177.5,-158"/>
<text text-anchor="middle" x="1177.5" y="-136.3" font-family="Arial" font-size="14.00">Cooks an egg but may imply it&#39;s reversible</text>
</g>
<!-- n4&#45;&gt;n8 -->
<g id="edge7" class="edge">
<title>n4&#45;&gt;n8</title>
<path fill="none" stroke="black" d="M1157.8,-243.81C1161.6,-223.91 1167.9,-190.92 1172.4,-167.68"/>
<polygon fill="black" stroke="black" points="1175.85,-168.25 1174.3,-157.77 1168.98,-166.93 1175.85,-168.25"/>
</g>
<!-- n9 -->
<g id="node9" class="node">
<title>n9</title>
<polygon fill="lightcoral" stroke="black" points="1892.5,-158 1484.29,-140 1892.5,-122 2300.71,-140 1892.5,-158"/>
<text text-anchor="middle" x="1892.5" y="-136.3" font-family="Arial" font-size="14.00">Misunderstanding: Egg cooking is shown but might suggest reversibility</text>
</g>
<!-- n5&#45;&gt;n9 -->
<g id="edge8" class="edge">
<title>n5&#45;&gt;n9</title>
<path fill="none" stroke="black" d="M1775.1,-243.81C1799,-222.9 1839.4,-187.52 1866,-164.21"/>
<polygon fill="black" stroke="black" points="1868.58,-166.61 1873.8,-157.39 1863.97,-161.34 1868.58,-166.61"/>
</g>
<!-- n10 -->
<g id="node10" class="node">
<title>n10</title>
<polygon fill="#f28e8e" stroke="black" points="1358,-36 997,-36 997,0 1358,0 1358,-36"/>
<text text-anchor="middle" x="1177.5" y="-14.3" font-family="Arial" font-size="14.00">Clarify that cooked eggs do not revert to raw when cooled</text>
</g>
<!-- n8&#45;&gt;n10 -->
<g id="edge9" class="edge">
<title>n8&#45;&gt;n10</title>
<path fill="none" stroke="black" d="M1177.5,-121.81C1177.5,-102.11 1177.5,-69.58 1177.5,-46.39"/>
<polygon fill="black" stroke="black" points="1181,-46.16 1177.5,-36.16 1174,-46.16 1181,-46.16"/>
</g>
<!-- n11 -->
<g id="node11" class="node">
<title>n11</title>
<polygon fill="#f28e8e" stroke="black" points="2037,-36 1748,-36 1748,0 2037,0 2037,-36"/>
<text text-anchor="middle" x="1892.5" y="-14.3" font-family="Arial" font-size="14.00">Suggest clear labeling of irreversible changes</text>
</g>
<!-- n9&#45;&gt;n11 -->
<g id="edge10" class="edge">
<title>n9&#45;&gt;n11</title>
<path fill="none" stroke="black" d="M1892.5,-121.81C1892.5,-102.11 1892.5,-69.58 1892.5,-46.39"/>
<polygon fill="black" stroke="black" points="1896,-46.16 1892.5,-36.16 1889,-46.16 1896,-46.16"/>
</g>
</g>
</svg>
