<?xml version="1.0" encoding="UTF-8" standalone="no"?>
<!DOCTYPE svg PUBLIC "-//W3C//DTD SVG 1.1//EN"
 "http://www.w3.org/Graphics/SVG/1.1/DTD/svg11.dtd">
<!-- Generated by graphviz version 2.43.0 (0)
 -->
<!-- Pages: 1 -->
<svg width="1614pt" height="410pt"
 viewBox="0.00 0.00 1613.50 410.00" xmlns="http://www.w3.org/2000/svg" xmlns:xlink="http://www.w3.org/1999/xlink">
<g id="graph0" class="graph" transform="scale(1 1) rotate(0) translate(4 406)">
<polygon fill="white" stroke="transparent" points="-4,4 -4,-406 1609.5,-406 1609.5,4 -4,4"/>
<!-- n1 -->
<g id="node1" class="node">
<title>n1</title>
<polygon fill="lightblue" stroke="black" points="866.82,-384 744.41,-402 499.59,-402 377.18,-384 499.59,-366 744.41,-366 866.82,-384"/>
<text text-anchor="middle" x="622" y="-380.3" font-family="Arial" font-size="14.00">Draw a habitat and the different living things in each</text>
</g>
<!-- n2 -->
<g id="node2" class="node">
<title>n2</title>
<polygon fill="#fffdd0" stroke="black" points="1234,-280 858,-280 858,-244 1234,-244 1234,-280"/>
<text text-anchor="middle" x="1046" y="-258.3" font-family="Arial" font-size="14.00">Lush forest with green pine trees, bushes, squirrel, and deer</text>
</g>
<!-- n1&#45;&gt;n2 -->
<g id="edge1" class="edge">
<title>n1&#45;&gt;n2</title>
<path fill="none" stroke="black" d="M682.3,-365.93C759.85,-343.99 894.29,-305.94 976.19,-282.76"/>
<polygon fill="black" stroke="black" points="977.24,-286.1 985.91,-280.01 975.33,-279.36 977.24,-286.1"/>
</g>
<!-- n3 -->
<g id="node3" class="node">
<title>n3</title>
<polygon fill="#fffdd0" stroke="black" points="800,-280 444,-280 444,-244 800,-244 800,-280"/>
<text text-anchor="middle" x="622" y="-258.3" font-family="Arial" font-size="14.00">Vibrant blue pond with cattails, lily pad, frog, and goldfish</text>
</g>
<!-- n1&#45;&gt;n3 -->
<g id="edge2" class="edge">
<title>n1&#45;&gt;n3</title>
<path fill="none" stroke="black" d="M622,-365.81C622,-346.11 622,-313.58 622,-290.39"/>
<polygon fill="black" stroke="black" points="625.5,-290.16 622,-280.16 618.5,-290.16 625.5,-290.16"/>
</g>
<!-- n4 -->
<g id="node4" class="node">
<title>n4</title>
<polygon fill="#fffdd0" stroke="black" points="386,-280 0,-280 0,-244 386,-244 386,-280"/>
<text text-anchor="middle" x="193" y="-258.3" font-family="Arial" font-size="14.00">Sunny playground with grass, swing set, flowers, and butterfly</text>
</g>
<!-- n1&#45;&gt;n4 -->
<g id="edge3" class="edge">
<title>n1&#45;&gt;n4</title>
<path fill="none" stroke="black" d="M560.99,-365.93C482.52,-343.99 346.5,-305.94 263.63,-282.76"/>
<polygon fill="black" stroke="black" points="264.37,-279.33 253.8,-280.01 262.49,-286.07 264.37,-279.33"/>
</g>
<!-- n5 -->
<g id="node5" class="node">
<title>n5</title>
<path fill="palegreen" stroke="black" d="M366.5,-158C366.5,-158 93.5,-158 93.5,-158 87.5,-158 81.5,-152 81.5,-146 81.5,-146 81.5,-134 81.5,-134 81.5,-128 87.5,-122 93.5,-122 93.5,-122 366.5,-122 366.5,-122 372.5,-122 378.5,-128 378.5,-134 378.5,-134 378.5,-146 378.5,-146 378.5,-152 372.5,-158 366.5,-158"/>
<text text-anchor="middle" x="230" y="-136.3" font-family="Arial" font-size="14.00">Correctly identifies and draws different habitats</text>
</g>
<!-- n2&#45;&gt;n5 -->
<g id="edge4" class="edge">
<title>n2&#45;&gt;n5</title>
<path fill="none" stroke="black" d="M930.39,-244C778.52,-221.66 512.79,-182.59 355.95,-159.52"/>
<polygon fill="black" stroke="black" points="356.18,-156.02 345.78,-158.03 355.17,-162.94 356.18,-156.02"/>
</g>
<!-- n6 -->
<g id="node6" class="node">
<title>n6</title>
<path fill="palegreen" stroke="black" d="M721.5,-158C721.5,-158 448.5,-158 448.5,-158 442.5,-158 436.5,-152 436.5,-146 436.5,-146 436.5,-134 436.5,-134 436.5,-128 442.5,-122 448.5,-122 448.5,-122 721.5,-122 721.5,-122 727.5,-122 733.5,-128 733.5,-134 733.5,-134 733.5,-146 733.5,-146 733.5,-152 727.5,-158 721.5,-158"/>
<text text-anchor="middle" x="585" y="-136.3" font-family="Arial" font-size="14.00">Correctly illustrates living things in each habitat</text>
</g>
<!-- n2&#45;&gt;n6 -->
<g id="edge5" class="edge">
<title>n2&#45;&gt;n6</title>
<path fill="none" stroke="black" d="M980.44,-243.93C895.86,-221.92 749.06,-183.71 660.09,-160.55"/>
<polygon fill="black" stroke="black" points="660.89,-157.14 650.33,-158.01 659.13,-163.92 660.89,-157.14"/>
</g>
<!-- n7 -->
<g id="node7" class="node">
<title>n7</title>
<path fill="palegreen" stroke="black" d="M1040.5,-158C1040.5,-158 803.5,-158 803.5,-158 797.5,-158 791.5,-152 791.5,-146 791.5,-146 791.5,-134 791.5,-134 791.5,-128 797.5,-122 803.5,-122 803.5,-122 1040.5,-122 1040.5,-122 1046.5,-122 1052.5,-128 1052.5,-134 1052.5,-134 1052.5,-146 1052.5,-146 1052.5,-152 1046.5,-158 1040.5,-158"/>
<text text-anchor="middle" x="922" y="-136.3" font-family="Arial" font-size="14.00">Illustrates comparisons between habitats</text>
</g>
<!-- n2&#45;&gt;n7 -->
<g id="edge6" class="edge">
<title>n2&#45;&gt;n7</title>
<path fill="none" stroke="black" d="M1028.2,-243.81C1007,-223.22 971.2,-188.61 947.11,-165.3"/>
<polygon fill="black" stroke="black" points="949.35,-162.6 939.73,-158.16 944.48,-167.63 949.35,-162.6"/>
</g>
<!-- n8 -->
<g id="node8" class="node">
<title>n8</title>
<polygon fill="lightcoral" stroke="black" points="1358,-158 1110.5,-140 1358,-122 1605.5,-140 1358,-158"/>
<text text-anchor="middle" x="1358" y="-136.3" font-family="Arial" font-size="14.00">Potential oversight in labeling all elements</text>
</g>
<!-- n2&#45;&gt;n8 -->
<g id="edge7" class="edge">
<title>n2&#45;&gt;n8</title>
<path fill="none" stroke="black" d="M1090.4,-243.93C1148.9,-221.44 1251.3,-182.04 1311.1,-159.06"/>
<polygon fill="black" stroke="black" points="1312.54,-162.26 1320.6,-155.38 1310.01,-155.73 1312.54,-162.26"/>
</g>
<!-- n3&#45;&gt;n5 -->
<g id="edge8" class="edge">
<title>n3&#45;&gt;n5</title>
<path fill="none" stroke="black" d="M566.25,-243.93C494.84,-222.07 371.27,-184.25 295.47,-161.04"/>
<polygon fill="black" stroke="black" points="296.15,-157.59 285.56,-158.01 294.1,-164.28 296.15,-157.59"/>
</g>
<!-- n3&#45;&gt;n6 -->
<g id="edge9" class="edge">
<title>n3&#45;&gt;n6</title>
<path fill="none" stroke="black" d="M616.7,-243.81C610.57,-223.94 600.41,-190.99 593.25,-167.76"/>
<polygon fill="black" stroke="black" points="596.58,-166.68 590.29,-158.16 589.89,-168.75 596.58,-166.68"/>
</g>
<!-- n3&#45;&gt;n7 -->
<g id="edge10" class="edge">
<title>n3&#45;&gt;n7</title>
<path fill="none" stroke="black" d="M664.66,-243.93C718.76,-222.3 811.96,-185.02 870.11,-161.76"/>
<polygon fill="black" stroke="black" points="871.5,-164.98 879.48,-158.01 868.9,-158.48 871.5,-164.98"/>
</g>
<!-- n4&#45;&gt;n5 -->
<g id="edge11" class="edge">
<title>n4&#45;&gt;n5</title>
<path fill="none" stroke="black" d="M198.3,-243.81C204.43,-223.94 214.59,-190.99 221.75,-167.76"/>
<polygon fill="black" stroke="black" points="225.11,-168.75 224.71,-158.16 218.42,-166.68 225.11,-168.75"/>
</g>
<!-- n4&#45;&gt;n6 -->
<g id="edge12" class="edge">
<title>n4&#45;&gt;n6</title>
<path fill="none" stroke="black" d="M248.75,-243.93C320.16,-222.07 443.73,-184.25 519.53,-161.04"/>
<polygon fill="black" stroke="black" points="520.9,-164.28 529.44,-158.01 518.85,-157.59 520.9,-164.28"/>
</g>
<!-- n4&#45;&gt;n7 -->
<g id="edge13" class="edge">
<title>n4&#45;&gt;n7</title>
<path fill="none" stroke="black" d="M296.29,-244C431.69,-221.71 668.41,-182.74 808.64,-159.66"/>
<polygon fill="black" stroke="black" points="809.26,-163.11 818.56,-158.03 808.12,-156.2 809.26,-163.11"/>
</g>
<!-- n9 -->
<g id="node9" class="node">
<title>n9</title>
<polygon fill="#f28e8e" stroke="black" points="1490.5,-36 1225.5,-36 1225.5,0 1490.5,0 1490.5,-36"/>
<text text-anchor="middle" x="1358" y="-14.3" font-family="Arial" font-size="14.00">Ensure all elements are labeled for clarity</text>
</g>
<!-- n8&#45;&gt;n9 -->
<g id="edge14" class="edge">
<title>n8&#45;&gt;n9</title>
<path fill="none" stroke="black" d="M1358,-121.81C1358,-102.11 1358,-69.58 1358,-46.39"/>
<polygon fill="black" stroke="black" points="1361.5,-46.16 1358,-36.16 1354.5,-46.16 1361.5,-46.16"/>
</g>
</g>
</svg>
