<?xml version="1.0" encoding="UTF-8" standalone="no"?>
<!DOCTYPE svg PUBLIC "-//W3C//DTD SVG 1.1//EN"
 "http://www.w3.org/Graphics/SVG/1.1/DTD/svg11.dtd">
<!-- Generated by graphviz version 2.43.0 (0)
 -->
<!-- Pages: 1 -->
<svg width="1498pt" height="410pt"
 viewBox="0.00 0.00 1497.50 410.00" xmlns="http://www.w3.org/2000/svg" xmlns:xlink="http://www.w3.org/1999/xlink">
<g id="graph0" class="graph" transform="scale(1 1) rotate(0) translate(4 406)">
<polygon fill="white" stroke="transparent" points="-4,4 -4,-406 1493.5,-406 1493.5,4 -4,4"/>
<!-- n1 -->
<g id="node1" class="node">
<title>n1</title>
<polygon fill="lightblue" stroke="black" points="1124.82,-384 1002.41,-402 757.59,-402 635.18,-384 757.59,-366 1002.41,-366 1124.82,-384"/>
<text text-anchor="middle" x="880" y="-380.3" font-family="Arial" font-size="14.00">Draw a habitat and the different living things in each</text>
</g>
<!-- n2 -->
<g id="node2" class="node">
<title>n2</title>
<polygon fill="#fffdd0" stroke="black" points="664.5,-280 419.5,-280 419.5,-244 664.5,-244 664.5,-280"/>
<text text-anchor="middle" x="542" y="-258.3" font-family="Arial" font-size="14.00">Garden habitat with a tree and flowers</text>
</g>
<!-- n1&#45;&gt;n2 -->
<g id="edge1" class="edge">
<title>n1&#45;&gt;n2</title>
<path fill="none" stroke="black" d="M831.93,-365.93C770.74,-344.21 665.12,-306.71 599.65,-283.47"/>
<polygon fill="black" stroke="black" points="600.49,-280.06 589.9,-280.01 598.15,-286.65 600.49,-280.06"/>
</g>
<!-- n3 -->
<g id="node3" class="node">
<title>n3</title>
<polygon fill="#fffdd0" stroke="black" points="958,-280 802,-280 802,-244 958,-244 958,-280"/>
<text text-anchor="middle" x="880" y="-258.3" font-family="Arial" font-size="14.00">Pond habitat with a fish</text>
</g>
<!-- n1&#45;&gt;n3 -->
<g id="edge2" class="edge">
<title>n1&#45;&gt;n3</title>
<path fill="none" stroke="black" d="M880,-365.81C880,-346.11 880,-313.58 880,-290.39"/>
<polygon fill="black" stroke="black" points="883.5,-290.16 880,-280.16 876.5,-290.16 883.5,-290.16"/>
</g>
<!-- n4 -->
<g id="node4" class="node">
<title>n4</title>
<polygon fill="#fffdd0" stroke="black" points="1291.5,-280 1122.5,-280 1122.5,-244 1291.5,-244 1291.5,-280"/>
<text text-anchor="middle" x="1207" y="-258.3" font-family="Arial" font-size="14.00">Bird seen in both habitats</text>
</g>
<!-- n1&#45;&gt;n4 -->
<g id="edge3" class="edge">
<title>n1&#45;&gt;n4</title>
<path fill="none" stroke="black" d="M926.5,-365.93C985.71,-344.21 1087.9,-306.71 1151.2,-283.47"/>
<polygon fill="black" stroke="black" points="1152.5,-286.72 1160.7,-280.01 1150.11,-280.14 1152.5,-286.72"/>
</g>
<!-- n5 -->
<g id="node5" class="node">
<title>n5</title>
<path fill="palegreen" stroke="black" d="M230,-158C230,-158 12,-158 12,-158 6,-158 0,-152 0,-146 0,-146 0,-134 0,-134 0,-128 6,-122 12,-122 12,-122 230,-122 230,-122 236,-122 242,-128 242,-134 242,-134 242,-146 242,-146 242,-152 236,-158 230,-158"/>
<text text-anchor="middle" x="121" y="-136.3" font-family="Arial" font-size="14.00">Understands garden as a land habitat</text>
</g>
<!-- n2&#45;&gt;n5 -->
<g id="edge4" class="edge">
<title>n2&#45;&gt;n5</title>
<path fill="none" stroke="black" d="M482.13,-243.93C405.12,-221.99 271.64,-183.94 190.32,-160.76"/>
<polygon fill="black" stroke="black" points="191.25,-157.38 180.67,-158.01 189.33,-164.12 191.25,-157.38"/>
</g>
<!-- n8 -->
<g id="node6" class="node">
<title>n8</title>
<polygon fill="lightcoral" stroke="black" points="542,-158 300.02,-140 542,-122 783.98,-140 542,-158"/>
<text text-anchor="middle" x="542" y="-136.3" font-family="Arial" font-size="14.00">Limited diversity in habitat representation</text>
</g>
<!-- n2&#45;&gt;n8 -->
<g id="edge5" class="edge">
<title>n2&#45;&gt;n8</title>
<path fill="none" stroke="black" d="M542,-243.81C542,-224.11 542,-191.58 542,-168.39"/>
<polygon fill="black" stroke="black" points="545.5,-168.16 542,-158.16 538.5,-168.16 545.5,-168.16"/>
</g>
<!-- n3&#45;&gt;n8 -->
<g id="edge6" class="edge">
<title>n3&#45;&gt;n8</title>
<path fill="none" stroke="black" d="M831.93,-243.93C768.05,-221.25 655.75,-181.39 591.27,-158.49"/>
<polygon fill="black" stroke="black" points="592.32,-155.15 581.73,-155.11 589.99,-161.75 592.32,-155.15"/>
</g>
<!-- n6 -->
<g id="node7" class="node">
<title>n6</title>
<path fill="palegreen" stroke="black" d="M1066.5,-158C1066.5,-158 853.5,-158 853.5,-158 847.5,-158 841.5,-152 841.5,-146 841.5,-146 841.5,-134 841.5,-134 841.5,-128 847.5,-122 853.5,-122 853.5,-122 1066.5,-122 1066.5,-122 1072.5,-122 1078.5,-128 1078.5,-134 1078.5,-134 1078.5,-146 1078.5,-146 1078.5,-152 1072.5,-158 1066.5,-158"/>
<text text-anchor="middle" x="960" y="-136.3" font-family="Arial" font-size="14.00">Understands pond as a water habitat</text>
</g>
<!-- n3&#45;&gt;n6 -->
<g id="edge7" class="edge">
<title>n3&#45;&gt;n6</title>
<path fill="none" stroke="black" d="M891.46,-243.81C904.95,-223.58 927.46,-189.81 942.99,-166.52"/>
<polygon fill="black" stroke="black" points="945.93,-168.42 948.56,-158.16 940.1,-164.54 945.93,-168.42"/>
</g>
<!-- n7 -->
<g id="node8" class="node">
<title>n7</title>
<path fill="palegreen" stroke="black" d="M1477.5,-158C1477.5,-158 1148.5,-158 1148.5,-158 1142.5,-158 1136.5,-152 1136.5,-146 1136.5,-146 1136.5,-134 1136.5,-134 1136.5,-128 1142.5,-122 1148.5,-122 1148.5,-122 1477.5,-122 1477.5,-122 1483.5,-122 1489.5,-128 1489.5,-134 1489.5,-134 1489.5,-146 1489.5,-146 1489.5,-152 1483.5,-158 1477.5,-158"/>
<text text-anchor="middle" x="1313" y="-136.3" font-family="Arial" font-size="14.00">Understands some living things exist in multiple habitats</text>
</g>
<!-- n4&#45;&gt;n7 -->
<g id="edge8" class="edge">
<title>n4&#45;&gt;n7</title>
<path fill="none" stroke="black" d="M1222.2,-243.81C1240.2,-223.4 1270.4,-189.21 1291,-165.91"/>
<polygon fill="black" stroke="black" points="1293.84,-167.99 1297.8,-158.16 1288.57,-163.37 1293.84,-167.99"/>
</g>
<!-- n9 -->
<g id="node9" class="node">
<title>n9</title>
<polygon fill="#f28e8e" stroke="black" points="675.5,-36 408.5,-36 408.5,0 675.5,0 675.5,-36"/>
<text text-anchor="middle" x="542" y="-14.3" font-family="Arial" font-size="14.00">Consider adding more plants and animals</text>
</g>
<!-- n8&#45;&gt;n9 -->
<g id="edge9" class="edge">
<title>n8&#45;&gt;n9</title>
<path fill="none" stroke="black" d="M542,-121.81C542,-102.11 542,-69.58 542,-46.39"/>
<polygon fill="black" stroke="black" points="545.5,-46.16 542,-36.16 538.5,-46.16 545.5,-46.16"/>
</g>
</g>
</svg>
