<?xml version="1.0" encoding="UTF-8" standalone="no"?>
<!DOCTYPE svg PUBLIC "-//W3C//DTD SVG 1.1//EN"
 "http://www.w3.org/Graphics/SVG/1.1/DTD/svg11.dtd">
<!-- Generated by graphviz version 2.43.0 (0)
 -->
<!-- Pages: 1 -->
<svg width="1122pt" height="288pt"
 viewBox="0.00 0.00 1122.00 288.00" xmlns="http://www.w3.org/2000/svg" xmlns:xlink="http://www.w3.org/1999/xlink">
<g id="graph0" class="graph" transform="scale(1 1) rotate(0) translate(4 284)">
<polygon fill="white" stroke="transparent" points="-4,4 -4,-284 1118,-284 1118,4 -4,4"/>
<!-- n1 -->
<g id="node1" class="node">
<title>n1</title>
<polygon fill="lightblue" stroke="black" points="882,-262 718,-280 390,-280 226,-262 390,-244 718,-244 882,-262"/>
<text text-anchor="middle" x="554" y="-258.3" font-family="Arial" font-size="14.00">Draw reversible and irreversible changes (ice melting vs. egg cooking)</text>
</g>
<!-- n2 -->
<g id="node2" class="node">
<title>n2</title>
<polygon fill="#fffdd0" stroke="black" points="330,-158 0,-158 0,-122 330,-122 330,-158"/>
<text text-anchor="middle" x="165" y="-136.3" font-family="Arial" font-size="14.00">Ice cube with arrow labeled &#39;heating&#39; to water puddle</text>
</g>
<!-- n1&#45;&gt;n2 -->
<g id="edge1" class="edge">
<title>n1&#45;&gt;n2</title>
<path fill="none" stroke="black" d="M498.68,-243.93C427.82,-222.07 305.19,-184.25 229.97,-161.04"/>
<polygon fill="black" stroke="black" points="230.72,-157.61 220.13,-158.01 228.66,-164.3 230.72,-157.61"/>
</g>
<!-- n3 -->
<g id="node3" class="node">
<title>n3</title>
<polygon fill="#fffdd0" stroke="black" points="719.5,-158 388.5,-158 388.5,-122 719.5,-122 719.5,-158"/>
<text text-anchor="middle" x="554" y="-136.3" font-family="Arial" font-size="14.00">Water puddle with arrow labeled &#39;cooling&#39; to ice cube</text>
</g>
<!-- n1&#45;&gt;n3 -->
<g id="edge2" class="edge">
<title>n1&#45;&gt;n3</title>
<path fill="none" stroke="black" d="M554,-243.81C554,-224.11 554,-191.58 554,-168.39"/>
<polygon fill="black" stroke="black" points="557.5,-168.16 554,-158.16 550.5,-168.16 557.5,-168.16"/>
</g>
<!-- n4 -->
<g id="node4" class="node">
<title>n4</title>
<polygon fill="#fffdd0" stroke="black" points="1114,-158 778,-158 778,-122 1114,-122 1114,-158"/>
<text text-anchor="middle" x="946" y="-136.3" font-family="Arial" font-size="14.00">Raw egg with arrow labeled &#39;heating&#39; to a cooked egg</text>
</g>
<!-- n1&#45;&gt;n4 -->
<g id="edge3" class="edge">
<title>n1&#45;&gt;n4</title>
<path fill="none" stroke="black" d="M609.75,-243.93C681.16,-222.07 804.73,-184.25 880.53,-161.04"/>
<polygon fill="black" stroke="black" points="881.9,-164.28 890.44,-158.01 879.85,-157.59 881.9,-164.28"/>
</g>
<!-- n5 -->
<g id="node5" class="node">
<title>n5</title>
<path fill="palegreen" stroke="black" d="M533,-36C533,-36 177,-36 177,-36 171,-36 165,-30 165,-24 165,-24 165,-12 165,-12 165,-6 171,0 177,0 177,0 533,0 533,0 539,0 545,-6 545,-12 545,-12 545,-24 545,-24 545,-30 539,-36 533,-36"/>
<text text-anchor="middle" x="355" y="-14.3" font-family="Arial" font-size="14.00">Understands reversible process of ice melting and refreezing</text>
</g>
<!-- n2&#45;&gt;n5 -->
<g id="edge4" class="edge">
<title>n2&#45;&gt;n5</title>
<path fill="none" stroke="black" d="M192.22,-121.81C225.66,-100.69 282.47,-64.81 319.36,-41.51"/>
<polygon fill="black" stroke="black" points="321.24,-44.46 327.83,-36.16 317.51,-38.54 321.24,-44.46"/>
</g>
<!-- n3&#45;&gt;n5 -->
<g id="edge5" class="edge">
<title>n3&#45;&gt;n5</title>
<path fill="none" stroke="black" d="M525.49,-121.81C490.47,-100.69 430.96,-64.81 392.33,-41.51"/>
<polygon fill="black" stroke="black" points="393.83,-38.33 383.46,-36.16 390.22,-44.32 393.83,-38.33"/>
</g>
<!-- n6 -->
<g id="node6" class="node">
<title>n6</title>
<path fill="palegreen" stroke="black" d="M1086.5,-36C1086.5,-36 805.5,-36 805.5,-36 799.5,-36 793.5,-30 793.5,-24 793.5,-24 793.5,-12 793.5,-12 793.5,-6 799.5,0 805.5,0 805.5,0 1086.5,0 1086.5,0 1092.5,0 1098.5,-6 1098.5,-12 1098.5,-12 1098.5,-24 1098.5,-24 1098.5,-30 1092.5,-36 1086.5,-36"/>
<text text-anchor="middle" x="946" y="-14.3" font-family="Arial" font-size="14.00">Understands irreversible process of egg cooking</text>
</g>
<!-- n4&#45;&gt;n6 -->
<g id="edge6" class="edge">
<title>n4&#45;&gt;n6</title>
<path fill="none" stroke="black" d="M946,-121.81C946,-102.11 946,-69.58 946,-46.39"/>
<polygon fill="black" stroke="black" points="949.5,-46.16 946,-36.16 942.5,-46.16 949.5,-46.16"/>
</g>
</g>
</svg>
