<?xml version="1.0" encoding="UTF-8" standalone="no"?>
<!DOCTYPE svg PUBLIC "-//W3C//DTD SVG 1.1//EN"
 "http://www.w3.org/Graphics/SVG/1.1/DTD/svg11.dtd">
<!-- Generated by graphviz version 2.43.0 (0)
 -->
<!-- Pages: 1 -->
<svg width="923pt" height="410pt"
 viewBox="0.00 0.00 922.50 410.00" xmlns="http://www.w3.org/2000/svg" xmlns:xlink="http://www.w3.org/1999/xlink">
<g id="graph0" class="graph" transform="scale(1 1) rotate(0) translate(4 406)">
<polygon fill="white" stroke="transparent" points="-4,4 -4,-406 918.5,-406 918.5,4 -4,4"/>
<!-- n1 -->
<g id="node1" class="node">
<title>n1</title>
<polygon fill="lightblue" stroke="black" points="752,-384 588,-402 260,-402 96,-384 260,-366 588,-366 752,-384"/>
<text text-anchor="middle" x="424" y="-380.3" font-family="Arial" font-size="14.00">Draw reversible and irreversible changes (ice melting vs. egg cooking)</text>
</g>
<!-- n2 -->
<g id="node2" class="node">
<title>n2</title>
<polygon fill="#fffdd0" stroke="black" points="504.5,-280 343.5,-280 343.5,-244 504.5,-244 504.5,-280"/>
<text text-anchor="middle" x="424" y="-258.3" font-family="Arial" font-size="14.00">Ice cube and egg drawn</text>
</g>
<!-- n1&#45;&gt;n2 -->
<g id="edge1" class="edge">
<title>n1&#45;&gt;n2</title>
<path fill="none" stroke="black" d="M424,-365.81C424,-346.11 424,-313.58 424,-290.39"/>
<polygon fill="black" stroke="black" points="427.5,-290.16 424,-280.16 420.5,-290.16 427.5,-290.16"/>
</g>
<!-- n3 -->
<g id="node3" class="node">
<title>n3</title>
<path fill="palegreen" stroke="black" d="M350,-158C350,-158 12,-158 12,-158 6,-158 0,-152 0,-146 0,-146 0,-134 0,-134 0,-128 6,-122 12,-122 12,-122 350,-122 350,-122 356,-122 362,-128 362,-134 362,-134 362,-146 362,-146 362,-152 356,-158 350,-158"/>
<text text-anchor="middle" x="181" y="-136.3" font-family="Arial" font-size="14.00">Understands ice changes state when melted and refrozen</text>
</g>
<!-- n2&#45;&gt;n3 -->
<g id="edge2" class="edge">
<title>n2&#45;&gt;n3</title>
<path fill="none" stroke="black" d="M389.44,-243.93C346.08,-222.52 271.69,-185.78 224.5,-162.48"/>
<polygon fill="black" stroke="black" points="225.96,-159.3 215.44,-158.01 222.86,-165.57 225.96,-159.3"/>
</g>
<!-- n4 -->
<g id="node4" class="node">
<title>n4</title>
<polygon fill="lightcoral" stroke="black" points="667,-158 419.5,-140 667,-122 914.5,-140 667,-158"/>
<text text-anchor="middle" x="667" y="-136.3" font-family="Arial" font-size="14.00">Misunderstands egg cooking as reversible</text>
</g>
<!-- n2&#45;&gt;n4 -->
<g id="edge3" class="edge">
<title>n2&#45;&gt;n4</title>
<path fill="none" stroke="black" d="M458.56,-243.93C503.18,-221.9 580.65,-183.64 627.54,-160.49"/>
<polygon fill="black" stroke="black" points="629.35,-163.5 636.77,-155.93 626.25,-157.22 629.35,-163.5"/>
</g>
<!-- n5 -->
<g id="node5" class="node">
<title>n5</title>
<polygon fill="#f28e8e" stroke="black" points="877,-36 457,-36 457,0 877,0 877,-36"/>
<text text-anchor="middle" x="667" y="-14.3" font-family="Arial" font-size="14.00">Clarify that cooking an egg is irreversible; cannot return to raw state</text>
</g>
<!-- n4&#45;&gt;n5 -->
<g id="edge4" class="edge">
<title>n4&#45;&gt;n5</title>
<path fill="none" stroke="black" d="M667,-121.81C667,-102.11 667,-69.58 667,-46.39"/>
<polygon fill="black" stroke="black" points="670.5,-46.16 667,-36.16 663.5,-46.16 670.5,-46.16"/>
</g>
</g>
</svg>
