<?xml version="1.0" encoding="UTF-8" standalone="no"?>
<!DOCTYPE svg PUBLIC "-//W3C//DTD SVG 1.1//EN"
 "http://www.w3.org/Graphics/SVG/1.1/DTD/svg11.dtd">
<!-- Generated by graphviz version 2.43.0 (0)
 -->
<!-- Pages: 1 -->
<svg width="1617pt" height="288pt"
 viewBox="0.00 0.00 1617.00 288.00" xmlns="http://www.w3.org/2000/svg" xmlns:xlink="http://www.w3.org/1999/xlink">
<g id="graph0" class="graph" transform="scale(1 1) rotate(0) translate(4 284)">
<polygon fill="white" stroke="transparent" points="-4,4 -4,-284 1613,-284 1613,4 -4,4"/>
<!-- n1 -->
<g id="node1" class="node">
<title>n1</title>
<polygon fill="lightblue" stroke="black" points="1068.5,-262 976.5,-280 792.5,-280 700.5,-262 792.5,-244 976.5,-244 1068.5,-262"/>
<text text-anchor="middle" x="884.5" y="-258.3" font-family="Arial" font-size="14.00">Illustrate plants with and without water</text>
</g>
<!-- n2 -->
<g id="node2" class="node">
<title>n2</title>
<polygon fill="#fffdd0" stroke="black" points="305,-158 0,-158 0,-122 305,-122 305,-158"/>
<text text-anchor="middle" x="152.5" y="-136.3" font-family="Arial" font-size="14.00">Healthy plant with strong stem and green leaves</text>
</g>
<!-- n1&#45;&gt;n2 -->
<g id="edge1" class="edge">
<title>n1&#45;&gt;n2</title>
<path fill="none" stroke="black" d="M786.92,-245C652.17,-222.91 409.59,-183.15 266.61,-159.71"/>
<polygon fill="black" stroke="black" points="266.92,-156.21 256.49,-158.05 265.79,-163.12 266.92,-156.21"/>
</g>
<!-- n3 -->
<g id="node3" class="node">
<title>n3</title>
<polygon fill="#fffdd0" stroke="black" points="734,-158 363,-158 363,-122 734,-122 734,-158"/>
<text text-anchor="middle" x="548.5" y="-136.3" font-family="Arial" font-size="14.00">Unhealthy plant with brown, wilting leaves and droopy stem</text>
</g>
<!-- n1&#45;&gt;n3 -->
<g id="edge2" class="edge">
<title>n1&#45;&gt;n3</title>
<path fill="none" stroke="black" d="M836.72,-243.93C775.88,-222.21 670.89,-184.71 605.81,-161.47"/>
<polygon fill="black" stroke="black" points="606.71,-158.08 596.12,-158.01 604.36,-164.67 606.71,-158.08"/>
</g>
<!-- n4 -->
<g id="node4" class="node">
<title>n4</title>
<polygon fill="#fffdd0" stroke="black" points="976.5,-158 792.5,-158 792.5,-122 976.5,-122 976.5,-158"/>
<text text-anchor="middle" x="884.5" y="-136.3" font-family="Arial" font-size="14.00">Bright sun shining overhead</text>
</g>
<!-- n1&#45;&gt;n4 -->
<g id="edge3" class="edge">
<title>n1&#45;&gt;n4</title>
<path fill="none" stroke="black" d="M884.5,-243.81C884.5,-224.11 884.5,-191.58 884.5,-168.39"/>
<polygon fill="black" stroke="black" points="888,-168.16 884.5,-158.16 881,-168.16 888,-168.16"/>
</g>
<!-- n5 -->
<g id="node5" class="node">
<title>n5</title>
<polygon fill="#fffdd0" stroke="black" points="1224,-158 1035,-158 1035,-122 1224,-122 1224,-158"/>
<text text-anchor="middle" x="1129.5" y="-136.3" font-family="Arial" font-size="14.00">Roots extending into rich soil</text>
</g>
<!-- n1&#45;&gt;n5 -->
<g id="edge4" class="edge">
<title>n1&#45;&gt;n5</title>
<path fill="none" stroke="black" d="M919.34,-243.93C963.06,-222.52 1038.1,-185.78 1085.6,-162.48"/>
<polygon fill="black" stroke="black" points="1087.34,-165.53 1094.8,-158.01 1084.28,-159.23 1087.34,-165.53"/>
</g>
<!-- n6 -->
<g id="node6" class="node">
<title>n6</title>
<polygon fill="#fffdd0" stroke="black" points="1533,-158 1308,-158 1308,-122 1533,-122 1533,-158"/>
<text text-anchor="middle" x="1420.5" y="-136.3" font-family="Arial" font-size="14.00">Vitality shown with colorful crayons</text>
</g>
<!-- n1&#45;&gt;n6 -->
<g id="edge5" class="edge">
<title>n1&#45;&gt;n6</title>
<path fill="none" stroke="black" d="M960.44,-244C1059.2,-221.89 1231.3,-183.37 1334.7,-160.22"/>
<polygon fill="black" stroke="black" points="1335.42,-163.65 1344.4,-158.03 1333.87,-156.82 1335.42,-163.65"/>
</g>
<!-- n7 -->
<g id="node7" class="node">
<title>n7</title>
<path fill="palegreen" stroke="black" d="M243.5,-36C243.5,-36 61.5,-36 61.5,-36 55.5,-36 49.5,-30 49.5,-24 49.5,-24 49.5,-12 49.5,-12 49.5,-6 55.5,0 61.5,0 61.5,0 243.5,0 243.5,0 249.5,0 255.5,-6 255.5,-12 255.5,-12 255.5,-24 255.5,-24 255.5,-30 249.5,-36 243.5,-36"/>
<text text-anchor="middle" x="152.5" y="-14.3" font-family="Arial" font-size="14.00">Healthy plant has enough water</text>
</g>
<!-- n2&#45;&gt;n7 -->
<g id="edge6" class="edge">
<title>n2&#45;&gt;n7</title>
<path fill="none" stroke="black" d="M152.5,-121.81C152.5,-102.11 152.5,-69.58 152.5,-46.39"/>
<polygon fill="black" stroke="black" points="156,-46.16 152.5,-36.16 149,-46.16 156,-46.16"/>
</g>
<!-- n8 -->
<g id="node8" class="node">
<title>n8</title>
<path fill="palegreen" stroke="black" d="M627.5,-36C627.5,-36 469.5,-36 469.5,-36 463.5,-36 457.5,-30 457.5,-24 457.5,-24 457.5,-12 457.5,-12 457.5,-6 463.5,0 469.5,0 469.5,0 627.5,0 627.5,0 633.5,0 639.5,-6 639.5,-12 639.5,-12 639.5,-24 639.5,-24 639.5,-30 633.5,-36 627.5,-36"/>
<text text-anchor="middle" x="548.5" y="-14.3" font-family="Arial" font-size="14.00">Unhealthy plant lacks water</text>
</g>
<!-- n3&#45;&gt;n8 -->
<g id="edge7" class="edge">
<title>n3&#45;&gt;n8</title>
<path fill="none" stroke="black" d="M548.5,-121.81C548.5,-102.11 548.5,-69.58 548.5,-46.39"/>
<polygon fill="black" stroke="black" points="552,-46.16 548.5,-36.16 545,-46.16 552,-46.16"/>
</g>
<!-- n9 -->
<g id="node9" class="node">
<title>n9</title>
<path fill="palegreen" stroke="black" d="M964.5,-36C964.5,-36 802.5,-36 802.5,-36 796.5,-36 790.5,-30 790.5,-24 790.5,-24 790.5,-12 790.5,-12 790.5,-6 796.5,0 802.5,0 802.5,0 964.5,0 964.5,0 970.5,0 976.5,-6 976.5,-12 976.5,-12 976.5,-24 976.5,-24 976.5,-30 970.5,-36 964.5,-36"/>
<text text-anchor="middle" x="883.5" y="-14.3" font-family="Arial" font-size="14.00">Plants need sunlight to grow</text>
</g>
<!-- n4&#45;&gt;n9 -->
<g id="edge8" class="edge">
<title>n4&#45;&gt;n9</title>
<path fill="none" stroke="black" d="M884.36,-121.81C884.19,-102.11 883.92,-69.58 883.73,-46.39"/>
<polygon fill="black" stroke="black" points="887.23,-46.13 883.64,-36.16 880.23,-46.19 887.23,-46.13"/>
</g>
<!-- n10 -->
<g id="node10" class="node">
<title>n10</title>
<path fill="palegreen" stroke="black" d="M1212,-36C1212,-36 1047,-36 1047,-36 1041,-36 1035,-30 1035,-24 1035,-24 1035,-12 1035,-12 1035,-6 1041,0 1047,0 1047,0 1212,0 1212,0 1218,0 1224,-6 1224,-12 1224,-12 1224,-24 1224,-24 1224,-30 1218,-36 1212,-36"/>
<text text-anchor="middle" x="1129.5" y="-14.3" font-family="Arial" font-size="14.00">Roots absorb water from soil</text>
</g>
<!-- n5&#45;&gt;n10 -->
<g id="edge9" class="edge">
<title>n5&#45;&gt;n10</title>
<path fill="none" stroke="black" d="M1129.5,-121.81C1129.5,-102.11 1129.5,-69.58 1129.5,-46.39"/>
<polygon fill="black" stroke="black" points="1133,-46.16 1129.5,-36.16 1126,-46.16 1133,-46.16"/>
</g>
<!-- n11 -->
<g id="node11" class="node">
<title>n11</title>
<path fill="palegreen" stroke="black" d="M1597,-36C1597,-36 1294,-36 1294,-36 1288,-36 1282,-30 1282,-24 1282,-24 1282,-12 1282,-12 1282,-6 1288,0 1294,0 1294,0 1597,0 1597,0 1603,0 1609,-6 1609,-12 1609,-12 1609,-24 1609,-24 1609,-30 1603,-36 1597,-36"/>
<text text-anchor="middle" x="1445.5" y="-14.3" font-family="Arial" font-size="14.00">Variations in plant growth with different water supply</text>
</g>
<!-- n6&#45;&gt;n11 -->
<g id="edge10" class="edge">
<title>n6&#45;&gt;n11</title>
<path fill="none" stroke="black" d="M1424.1,-121.81C1428.2,-102.02 1435,-69.29 1439.9,-46.08"/>
<polygon fill="black" stroke="black" points="1443.35,-46.66 1441.9,-36.16 1436.49,-45.27 1443.35,-46.66"/>
</g>
</g>
</svg>
