<?xml version="1.0" encoding="UTF-8" standalone="no"?>
<!DOCTYPE svg PUBLIC "-//W3C//DTD SVG 1.1//EN"
 "http://www.w3.org/Graphics/SVG/1.1/DTD/svg11.dtd">
<!-- Generated by graphviz version 2.43.0 (0)
 -->
<!-- Pages: 1 -->
<svg width="1329pt" height="410pt"
 viewBox="0.00 0.00 1329.00 410.00" xmlns="http://www.w3.org/2000/svg" xmlns:xlink="http://www.w3.org/1999/xlink">
<g id="graph0" class="graph" transform="scale(1 1) rotate(0) translate(4 406)">
<polygon fill="white" stroke="transparent" points="-4,4 -4,-406 1325,-406 1325,4 -4,4"/>
<!-- n1 -->
<g id="node1" class="node">
<title>n1</title>
<polygon fill="lightblue" stroke="black" points="951,-384 820.75,-402 560.25,-402 430,-384 560.25,-366 820.75,-366 951,-384"/>
<text text-anchor="middle" x="690.5" y="-380.3" font-family="Arial" font-size="14.00">Draw two habitats and the different living things in each</text>
</g>
<!-- n2 -->
<g id="node2" class="node">
<title>n2</title>
<polygon fill="#fffdd0" stroke="black" points="409,-280 200,-280 200,-244 409,-244 409,-280"/>
<text text-anchor="middle" x="304.5" y="-258.3" font-family="Arial" font-size="14.00">Land habitat with tree and grass</text>
</g>
<!-- n1&#45;&gt;n2 -->
<g id="edge1" class="edge">
<title>n1&#45;&gt;n2</title>
<path fill="none" stroke="black" d="M635.61,-365.93C565.29,-344.07 443.62,-306.25 368.97,-283.04"/>
<polygon fill="black" stroke="black" points="369.8,-279.63 359.21,-280.01 367.72,-286.32 369.8,-279.63"/>
</g>
<!-- n3 -->
<g id="node3" class="node">
<title>n3</title>
<polygon fill="#fffdd0" stroke="black" points="679.5,-280 467.5,-280 467.5,-244 679.5,-244 679.5,-280"/>
<text text-anchor="middle" x="573.5" y="-258.3" font-family="Arial" font-size="14.00">Water habitat with aquatic plants</text>
</g>
<!-- n1&#45;&gt;n3 -->
<g id="edge2" class="edge">
<title>n1&#45;&gt;n3</title>
<path fill="none" stroke="black" d="M673.74,-365.81C653.76,-345.31 620.22,-310.91 597.49,-287.6"/>
<polygon fill="black" stroke="black" points="599.73,-284.88 590.24,-280.16 594.71,-289.76 599.73,-284.88"/>
</g>
<!-- n4 -->
<g id="node4" class="node">
<title>n4</title>
<polygon fill="#fffdd0" stroke="black" points="879,-280 738,-280 738,-244 879,-244 879,-280"/>
<text text-anchor="middle" x="808.5" y="-258.3" font-family="Arial" font-size="14.00">Lizard in land habitat</text>
</g>
<!-- n1&#45;&gt;n4 -->
<g id="edge3" class="edge">
<title>n1&#45;&gt;n4</title>
<path fill="none" stroke="black" d="M707.41,-365.81C727.65,-345.22 761.69,-310.61 784.61,-287.3"/>
<polygon fill="black" stroke="black" points="787.11,-289.74 791.63,-280.16 782.12,-284.84 787.11,-289.74"/>
</g>
<!-- n5 -->
<g id="node5" class="node">
<title>n5</title>
<polygon fill="#fffdd0" stroke="black" points="1074,-280 937,-280 937,-244 1074,-244 1074,-280"/>
<text text-anchor="middle" x="1005.5" y="-258.3" font-family="Arial" font-size="14.00">Fish in water habitat</text>
</g>
<!-- n1&#45;&gt;n5 -->
<g id="edge4" class="edge">
<title>n1&#45;&gt;n5</title>
<path fill="none" stroke="black" d="M735.3,-365.93C792.22,-344.25 890.36,-306.86 951.4,-283.61"/>
<polygon fill="black" stroke="black" points="952.76,-286.84 960.86,-280.01 950.27,-280.3 952.76,-286.84"/>
</g>
<!-- n6 -->
<g id="node6" class="node">
<title>n6</title>
<path fill="palegreen" stroke="black" d="M760,-158C760,-158 541,-158 541,-158 535,-158 529,-152 529,-146 529,-146 529,-134 529,-134 529,-128 535,-122 541,-122 541,-122 760,-122 760,-122 766,-122 772,-128 772,-134 772,-134 772,-146 772,-146 772,-152 766,-158 760,-158"/>
<text text-anchor="middle" x="650.5" y="-136.3" font-family="Arial" font-size="14.00">Understands basic habitat distinctions</text>
</g>
<!-- n2&#45;&gt;n6 -->
<g id="edge5" class="edge">
<title>n2&#45;&gt;n6</title>
<path fill="none" stroke="black" d="M353.71,-243.93C416.48,-222.16 524.92,-184.56 591.9,-161.33"/>
<polygon fill="black" stroke="black" points="593.17,-164.59 601.47,-158.01 590.88,-157.98 593.17,-164.59"/>
</g>
<!-- n7 -->
<g id="node7" class="node">
<title>n7</title>
<polygon fill="lightcoral" stroke="black" points="235.5,-158 0,-140 235.5,-122 471,-140 235.5,-158"/>
<text text-anchor="middle" x="235.5" y="-136.3" font-family="Arial" font-size="14.00">Emerging understanding of plant variety</text>
</g>
<!-- n2&#45;&gt;n7 -->
<g id="edge6" class="edge">
<title>n2&#45;&gt;n7</title>
<path fill="none" stroke="black" d="M294.62,-243.81C282.96,-223.53 263.47,-189.64 250.08,-166.35"/>
<polygon fill="black" stroke="black" points="252.95,-164.32 244.93,-157.39 246.88,-167.8 252.95,-164.32"/>
</g>
<!-- n3&#45;&gt;n6 -->
<g id="edge7" class="edge">
<title>n3&#45;&gt;n6</title>
<path fill="none" stroke="black" d="M584.54,-243.81C597.46,-223.67 619,-190.1 633.93,-166.83"/>
<polygon fill="black" stroke="black" points="637.04,-168.47 639.49,-158.16 631.15,-164.69 637.04,-168.47"/>
</g>
<!-- n3&#45;&gt;n7 -->
<g id="edge8" class="edge">
<title>n3&#45;&gt;n7</title>
<path fill="none" stroke="black" d="M525.44,-243.93C461.47,-221.22 348.95,-181.28 284.51,-158.4"/>
<polygon fill="black" stroke="black" points="285.57,-155.06 274.98,-155.02 283.23,-161.66 285.57,-155.06"/>
</g>
<!-- n4&#45;&gt;n6 -->
<g id="edge9" class="edge">
<title>n4&#45;&gt;n6</title>
<path fill="none" stroke="black" d="M785.87,-243.81C758.41,-222.96 712.01,-187.71 681.31,-164.4"/>
<polygon fill="black" stroke="black" points="683.18,-161.42 673.1,-158.16 678.94,-167 683.18,-161.42"/>
</g>
<!-- n8 -->
<g id="node8" class="node">
<title>n8</title>
<polygon fill="lightcoral" stroke="black" points="1075.5,-158 830,-140 1075.5,-122 1321,-140 1075.5,-158"/>
<text text-anchor="middle" x="1075.5" y="-136.3" font-family="Arial" font-size="14.00">Emerging understanding of animal variety</text>
</g>
<!-- n4&#45;&gt;n8 -->
<g id="edge10" class="edge">
<title>n4&#45;&gt;n8</title>
<path fill="none" stroke="black" d="M846.48,-243.93C895.95,-221.7 982.17,-182.95 1033.5,-159.86"/>
<polygon fill="black" stroke="black" points="1035,-163.02 1042.7,-155.74 1032.14,-156.63 1035,-163.02"/>
</g>
<!-- n5&#45;&gt;n6 -->
<g id="edge11" class="edge">
<title>n5&#45;&gt;n6</title>
<path fill="none" stroke="black" d="M955.02,-243.93C890.61,-222.16 779.36,-184.56 710.64,-161.33"/>
<polygon fill="black" stroke="black" points="711.41,-157.9 700.82,-158.01 709.17,-164.53 711.41,-157.9"/>
</g>
<!-- n5&#45;&gt;n8 -->
<g id="edge12" class="edge">
<title>n5&#45;&gt;n8</title>
<path fill="none" stroke="black" d="M1015.5,-243.81C1027.4,-223.44 1047.3,-189.34 1060.9,-166.04"/>
<polygon fill="black" stroke="black" points="1063.93,-167.8 1065.9,-157.39 1057.87,-164.3 1063.93,-167.8"/>
</g>
<!-- n9 -->
<g id="node9" class="node">
<title>n9</title>
<polygon fill="#f28e8e" stroke="black" points="394.5,-36 76.5,-36 76.5,0 394.5,0 394.5,-36"/>
<text text-anchor="middle" x="235.5" y="-14.3" font-family="Arial" font-size="14.00">Consider adding more types of plants and animals</text>
</g>
<!-- n7&#45;&gt;n9 -->
<g id="edge13" class="edge">
<title>n7&#45;&gt;n9</title>
<path fill="none" stroke="black" d="M235.5,-121.81C235.5,-102.11 235.5,-69.58 235.5,-46.39"/>
<polygon fill="black" stroke="black" points="239,-46.16 235.5,-36.16 232,-46.16 239,-46.16"/>
</g>
<!-- n10 -->
<g id="node10" class="node">
<title>n10</title>
<polygon fill="#f28e8e" stroke="black" points="1232,-36 919,-36 919,0 1232,0 1232,-36"/>
<text text-anchor="middle" x="1075.5" y="-14.3" font-family="Arial" font-size="14.00">Consider the distinct features of each habitat type</text>
</g>
<!-- n8&#45;&gt;n10 -->
<g id="edge14" class="edge">
<title>n8&#45;&gt;n10</title>
<path fill="none" stroke="black" d="M1075.5,-121.81C1075.5,-102.11 1075.5,-69.58 1075.5,-46.39"/>
<polygon fill="black" stroke="black" points="1079,-46.16 1075.5,-36.16 1072,-46.16 1079,-46.16"/>
</g>
</g>
</svg>
