<?xml version="1.0" encoding="UTF-8" standalone="no"?>
<!DOCTYPE svg PUBLIC "-//W3C//DTD SVG 1.1//EN"
 "http://www.w3.org/Graphics/SVG/1.1/DTD/svg11.dtd">
<!-- Generated by graphviz version 2.43.0 (0)
 -->
<!-- Pages: 1 -->
<svg width="991pt" height="410pt"
 viewBox="0.00 0.00 990.50 410.00" xmlns="http://www.w3.org/2000/svg" xmlns:xlink="http://www.w3.org/1999/xlink">
<g id="graph0" class="graph" transform="scale(1 1) rotate(0) translate(4 406)">
<polygon fill="white" stroke="transparent" points="-4,4 -4,-406 986.5,-406 986.5,4 -4,4"/>
<!-- n1 -->
<g id="node1" class="node">
<title>n1</title>
<polygon fill="lightblue" stroke="black" points="673,-384 542.75,-402 282.25,-402 152,-384 282.25,-366 542.75,-366 673,-384"/>
<text text-anchor="middle" x="412.5" y="-380.3" font-family="Arial" font-size="14.00">Draw two habitats and the different living things in each</text>
</g>
<!-- n2 -->
<g id="node2" class="node">
<title>n2</title>
<polygon fill="#fffdd0" stroke="black" points="322.5,-280 102.5,-280 102.5,-244 322.5,-244 322.5,-280"/>
<text text-anchor="middle" x="212.5" y="-258.3" font-family="Arial" font-size="14.00">Land habitat with a tree and grass</text>
</g>
<!-- n1&#45;&gt;n2 -->
<g id="edge1" class="edge">
<title>n1&#45;&gt;n2</title>
<path fill="none" stroke="black" d="M383.84,-365.81C348.65,-344.69 288.84,-308.81 250.01,-285.51"/>
<polygon fill="black" stroke="black" points="251.47,-282.31 241.1,-280.16 247.87,-288.31 251.47,-282.31"/>
</g>
<!-- n3 -->
<g id="node3" class="node">
<title>n3</title>
<polygon fill="#fffdd0" stroke="black" points="724.5,-280 500.5,-280 500.5,-244 724.5,-244 724.5,-280"/>
<text text-anchor="middle" x="612.5" y="-258.3" font-family="Arial" font-size="14.00">Water habitat with a fish and water</text>
</g>
<!-- n1&#45;&gt;n3 -->
<g id="edge2" class="edge">
<title>n1&#45;&gt;n3</title>
<path fill="none" stroke="black" d="M441.16,-365.81C476.35,-344.69 536.16,-308.81 574.99,-285.51"/>
<polygon fill="black" stroke="black" points="577.13,-288.31 583.9,-280.16 573.53,-282.31 577.13,-288.31"/>
</g>
<!-- n4 -->
<g id="node4" class="node">
<title>n4</title>
<path fill="palegreen" stroke="black" d="M293,-158C293,-158 12,-158 12,-158 6,-158 0,-152 0,-146 0,-146 0,-134 0,-134 0,-128 6,-122 12,-122 12,-122 293,-122 293,-122 299,-122 305,-128 305,-134 305,-134 305,-146 305,-146 305,-152 299,-158 293,-158"/>
<text text-anchor="middle" x="152.5" y="-136.3" font-family="Arial" font-size="14.00">Basic understanding of land habitat components</text>
</g>
<!-- n2&#45;&gt;n4 -->
<g id="edge3" class="edge">
<title>n2&#45;&gt;n4</title>
<path fill="none" stroke="black" d="M203.9,-243.81C193.88,-223.76 177.2,-190.4 165.57,-167.14"/>
<polygon fill="black" stroke="black" points="168.68,-165.54 161.08,-158.16 162.42,-168.67 168.68,-165.54"/>
</g>
<!-- n5 -->
<g id="node5" class="node">
<title>n5</title>
<polygon fill="lightcoral" stroke="black" points="672.5,-158 362.5,-140 672.5,-122 982.5,-140 672.5,-158"/>
<text text-anchor="middle" x="672.5" y="-136.3" font-family="Arial" font-size="14.00">Incomplete representation of diversity in water habitat</text>
</g>
<!-- n3&#45;&gt;n5 -->
<g id="edge4" class="edge">
<title>n3&#45;&gt;n5</title>
<path fill="none" stroke="black" d="M621.1,-243.81C631.18,-223.64 647.99,-190.02 659.63,-166.74"/>
<polygon fill="black" stroke="black" points="662.77,-168.28 664.11,-157.77 656.51,-165.15 662.77,-168.28"/>
</g>
<!-- n6 -->
<g id="node6" class="node">
<title>n6</title>
<polygon fill="#f28e8e" stroke="black" points="867.5,-36 477.5,-36 477.5,0 867.5,0 867.5,-36"/>
<text text-anchor="middle" x="672.5" y="-14.3" font-family="Arial" font-size="14.00">Introduce more variety: include aquatic plants or other animals</text>
</g>
<!-- n5&#45;&gt;n6 -->
<g id="edge5" class="edge">
<title>n5&#45;&gt;n6</title>
<path fill="none" stroke="black" d="M672.5,-121.81C672.5,-102.11 672.5,-69.58 672.5,-46.39"/>
<polygon fill="black" stroke="black" points="676,-46.16 672.5,-36.16 669,-46.16 676,-46.16"/>
</g>
</g>
</svg>
