<?xml version="1.0" encoding="UTF-8" standalone="no"?>
<!DOCTYPE svg PUBLIC "-//W3C//DTD SVG 1.1//EN"
 "http://www.w3.org/Graphics/SVG/1.1/DTD/svg11.dtd">
<!-- Generated by graphviz version 2.43.0 (0)
 -->
<!-- Pages: 1 -->
<svg width="1485pt" height="410pt"
 viewBox="0.00 0.00 1484.67 410.00" xmlns="http://www.w3.org/2000/svg" xmlns:xlink="http://www.w3.org/1999/xlink">
<g id="graph0" class="graph" transform="scale(1 1) rotate(0) translate(4 406)">
<polygon fill="white" stroke="transparent" points="-4,4 -4,-406 1480.67,-406 1480.67,4 -4,4"/>
<!-- n1 -->
<g id="node1" class="node">
<title>n1</title>
<polygon fill="lightblue" stroke="black" points="1026,-384 912.25,-402 684.75,-402 571,-384 684.75,-366 912.25,-366 1026,-384"/>
<text text-anchor="middle" x="798.5" y="-380.3" font-family="Arial" font-size="14.00">Illustrate plants with and without water and light.</text>
</g>
<!-- n2 -->
<g id="node2" class="node">
<title>n2</title>
<polygon fill="#fffdd0" stroke="black" points="798.5,-280 442.5,-280 442.5,-244 798.5,-244 798.5,-280"/>
<text text-anchor="middle" x="620.5" y="-258.3" font-family="Arial" font-size="14.00">Healthy plant with green leaves, sun, and water droplets.</text>
</g>
<!-- n1&#45;&gt;n2 -->
<g id="edge1" class="edge">
<title>n1&#45;&gt;n2</title>
<path fill="none" stroke="black" d="M773,-365.81C741.8,-344.78 688.89,-309.11 654.32,-285.8"/>
<polygon fill="black" stroke="black" points="656.21,-282.85 645.96,-280.16 652.29,-288.65 656.21,-282.85"/>
</g>
<!-- n3 -->
<g id="node3" class="node">
<title>n3</title>
<polygon fill="#fffdd0" stroke="black" points="1223,-280 982,-280 982,-244 1223,-244 1223,-280"/>
<text text-anchor="middle" x="1102.5" y="-258.3" font-family="Arial" font-size="14.00">Unhealthy plant with drooping leaves.</text>
</g>
<!-- n1&#45;&gt;n3 -->
<g id="edge2" class="edge">
<title>n1&#45;&gt;n3</title>
<path fill="none" stroke="black" d="M841.73,-365.93C896.55,-344.3 990.99,-307.02 1049.9,-283.76"/>
<polygon fill="black" stroke="black" points="1051.38,-286.94 1059.4,-280.01 1048.81,-280.43 1051.38,-286.94"/>
</g>
<!-- n4 -->
<g id="node4" class="node">
<title>n4</title>
<path fill="palegreen" stroke="black" d="M249,-158C249,-158 12,-158 12,-158 6,-158 0,-152 0,-146 0,-146 0,-134 0,-134 0,-128 6,-122 12,-122 12,-122 249,-122 249,-122 255,-122 261,-128 261,-134 261,-134 261,-146 261,-146 261,-152 255,-158 249,-158"/>
<text text-anchor="middle" x="130.5" y="-136.3" font-family="Arial" font-size="14.00">Recognizes plants need water for health.</text>
</g>
<!-- n2&#45;&gt;n4 -->
<g id="edge3" class="edge">
<title>n2&#45;&gt;n4</title>
<path fill="none" stroke="black" d="M551.07,-244C461.06,-221.95 304.44,-183.6 209.83,-160.43"/>
<polygon fill="black" stroke="black" points="210.57,-157.01 200.02,-158.03 208.9,-163.81 210.57,-157.01"/>
</g>
<!-- n5 -->
<g id="node5" class="node">
<title>n5</title>
<polygon fill="lightcoral" stroke="black" points="620.5,-158 319,-140 620.5,-122 922,-140 620.5,-158"/>
<text text-anchor="middle" x="620.5" y="-136.3" font-family="Arial" font-size="14.00">Ingredients for plant health not clearly linked to light.</text>
</g>
<!-- n2&#45;&gt;n5 -->
<g id="edge4" class="edge">
<title>n2&#45;&gt;n5</title>
<path fill="none" stroke="black" d="M620.5,-243.81C620.5,-224.11 620.5,-191.58 620.5,-168.39"/>
<polygon fill="black" stroke="black" points="624,-168.16 620.5,-158.16 617,-168.16 624,-168.16"/>
</g>
<!-- n6 -->
<g id="node6" class="node">
<title>n6</title>
<polygon fill="lightcoral" stroke="black" points="1228.5,-158 980.15,-140 1228.5,-122 1476.85,-140 1228.5,-158"/>
<text text-anchor="middle" x="1228.5" y="-136.3" font-family="Arial" font-size="14.00">Uncertain about effects of insufficient light.</text>
</g>
<!-- n3&#45;&gt;n6 -->
<g id="edge5" class="edge">
<title>n3&#45;&gt;n6</title>
<path fill="none" stroke="black" d="M1120.6,-243.81C1142.5,-222.87 1179.7,-187.43 1204.2,-164.12"/>
<polygon fill="black" stroke="black" points="1206.85,-166.43 1211.7,-157.01 1202.03,-161.35 1206.85,-166.43"/>
</g>
<!-- n8 -->
<g id="node7" class="node">
<title>n8</title>
<polygon fill="#f28e8e" stroke="black" points="807.5,-36 433.5,-36 433.5,0 807.5,0 807.5,-36"/>
<text text-anchor="middle" x="620.5" y="-14.3" font-family="Arial" font-size="14.00">Clarify the role of light in plant health using arrows or labels.</text>
</g>
<!-- n5&#45;&gt;n8 -->
<g id="edge6" class="edge">
<title>n5&#45;&gt;n8</title>
<path fill="none" stroke="black" d="M620.5,-121.81C620.5,-102.11 620.5,-69.58 620.5,-46.39"/>
<polygon fill="black" stroke="black" points="624,-46.16 620.5,-36.16 617,-46.16 624,-46.16"/>
</g>
<!-- n7 -->
<g id="node8" class="node">
<title>n7</title>
<polygon fill="#f28e8e" stroke="black" points="1418.5,-36 1038.5,-36 1038.5,0 1418.5,0 1418.5,-36"/>
<text text-anchor="middle" x="1228.5" y="-14.3" font-family="Arial" font-size="14.00">Use color changes like yellowing leaves to show lack of light.</text>
</g>
<!-- n6&#45;&gt;n7 -->
<g id="edge7" class="edge">
<title>n6&#45;&gt;n7</title>
<path fill="none" stroke="black" d="M1228.5,-121.81C1228.5,-102.11 1228.5,-69.58 1228.5,-46.39"/>
<polygon fill="black" stroke="black" points="1232,-46.16 1228.5,-36.16 1225,-46.16 1232,-46.16"/>
</g>
</g>
</svg>
