<?xml version="1.0" encoding="UTF-8" standalone="no"?>
<!DOCTYPE svg PUBLIC "-//W3C//DTD SVG 1.1//EN"
 "http://www.w3.org/Graphics/SVG/1.1/DTD/svg11.dtd">
<!-- Generated by graphviz version 2.43.0 (0)
 -->
<!-- Pages: 1 -->
<svg width="1943pt" height="410pt"
 viewBox="0.00 0.00 1942.50 410.00" xmlns="http://www.w3.org/2000/svg" xmlns:xlink="http://www.w3.org/1999/xlink">
<g id="graph0" class="graph" transform="scale(1 1) rotate(0) translate(4 406)">
<polygon fill="white" stroke="transparent" points="-4,4 -4,-406 1938.5,-406 1938.5,4 -4,4"/>
<!-- n1 -->
<g id="node1" class="node">
<title>n1</title>
<polygon fill="lightblue" stroke="black" points="1293,-384 1201.75,-402 1019.25,-402 928,-384 1019.25,-366 1201.75,-366 1293,-384"/>
<text text-anchor="middle" x="1110.5" y="-380.3" font-family="Arial" font-size="14.00">Draw a fish in their habitat with labels.</text>
</g>
<!-- n2 -->
<g id="node2" class="node">
<title>n2</title>
<polygon fill="#fffdd0" stroke="black" points="277,-280 122,-280 122,-244 277,-244 277,-280"/>
<text text-anchor="middle" x="199.5" y="-258.3" font-family="Arial" font-size="14.00">Fish in clear blue water</text>
</g>
<!-- n1&#45;&gt;n2 -->
<g id="edge1" class="edge">
<title>n1&#45;&gt;n2</title>
<path fill="none" stroke="black" d="M1003.8,-368.94C821.89,-344.98 455.31,-296.7 287.27,-274.56"/>
<polygon fill="black" stroke="black" points="287.6,-271.07 277.23,-273.24 286.69,-278.01 287.6,-271.07"/>
</g>
<!-- n3 -->
<g id="node3" class="node">
<title>n3</title>
<polygon fill="#fffdd0" stroke="black" points="608,-280 465,-280 465,-244 608,-244 608,-280"/>
<text text-anchor="middle" x="536.5" y="-258.3" font-family="Arial" font-size="14.00">Labeled gills and fins</text>
</g>
<!-- n1&#45;&gt;n3 -->
<g id="edge2" class="edge">
<title>n1&#45;&gt;n3</title>
<path fill="none" stroke="black" d="M1029.2,-366C920.16,-343.21 727.73,-302.98 618.41,-280.12"/>
<polygon fill="black" stroke="black" points="618.92,-276.65 608.42,-278.04 617.5,-283.5 618.92,-276.65"/>
</g>
<!-- n4 -->
<g id="node4" class="node">
<title>n4</title>
<polygon fill="#fffdd0" stroke="black" points="925,-280 696,-280 696,-244 925,-244 925,-280"/>
<text text-anchor="middle" x="810.5" y="-258.3" font-family="Arial" font-size="14.00">Green plants like seaweed or algae</text>
</g>
<!-- n1&#45;&gt;n4 -->
<g id="edge3" class="edge">
<title>n1&#45;&gt;n4</title>
<path fill="none" stroke="black" d="M1067.8,-365.93C1013.7,-344.3 920.54,-307.02 862.39,-283.76"/>
<polygon fill="black" stroke="black" points="863.6,-280.48 853.02,-280.01 861,-286.98 863.6,-280.48"/>
</g>
<!-- n5 -->
<g id="node5" class="node">
<title>n5</title>
<polygon fill="#fffdd0" stroke="black" points="1238,-280 983,-280 983,-244 1238,-244 1238,-280"/>
<text text-anchor="middle" x="1110.5" y="-258.3" font-family="Arial" font-size="14.00">Other animals like minnow fish and frog</text>
</g>
<!-- n1&#45;&gt;n5 -->
<g id="edge4" class="edge">
<title>n1&#45;&gt;n5</title>
<path fill="none" stroke="black" d="M1110.5,-365.81C1110.5,-346.11 1110.5,-313.58 1110.5,-290.39"/>
<polygon fill="black" stroke="black" points="1114,-290.16 1110.5,-280.16 1107,-290.16 1114,-290.16"/>
</g>
<!-- n6 -->
<g id="node6" class="node">
<title>n6</title>
<polygon fill="#fffdd0" stroke="black" points="1482.5,-280 1296.5,-280 1296.5,-244 1482.5,-244 1482.5,-280"/>
<text text-anchor="middle" x="1389.5" y="-258.3" font-family="Arial" font-size="14.00">Birds or insects above water</text>
</g>
<!-- n1&#45;&gt;n6 -->
<g id="edge5" class="edge">
<title>n1&#45;&gt;n6</title>
<path fill="none" stroke="black" d="M1150.2,-365.93C1200.3,-344.39 1286.4,-307.32 1340.6,-284.04"/>
<polygon fill="black" stroke="black" points="1342.19,-287.17 1350,-280.01 1339.43,-280.73 1342.19,-287.17"/>
</g>
<!-- n7 -->
<g id="node7" class="node">
<title>n7</title>
<polygon fill="#fffdd0" stroke="black" points="1726,-280 1541,-280 1541,-244 1726,-244 1726,-280"/>
<text text-anchor="middle" x="1633.5" y="-258.3" font-family="Arial" font-size="14.00">Riverbed with small pebbles</text>
</g>
<!-- n1&#45;&gt;n7 -->
<g id="edge6" class="edge">
<title>n1&#45;&gt;n7</title>
<path fill="none" stroke="black" d="M1184.6,-366C1280.9,-343.91 1448.5,-305.44 1549.4,-282.29"/>
<polygon fill="black" stroke="black" points="1550.33,-285.67 1559.3,-280.03 1548.77,-278.84 1550.33,-285.67"/>
</g>
<!-- n8 -->
<g id="node8" class="node">
<title>n8</title>
<polygon fill="#fffdd0" stroke="black" points="1934.5,-280 1784.5,-280 1784.5,-244 1934.5,-244 1934.5,-280"/>
<text text-anchor="middle" x="1859.5" y="-258.3" font-family="Arial" font-size="14.00">Water essential for life</text>
</g>
<!-- n1&#45;&gt;n8 -->
<g id="edge7" class="edge">
<title>n1&#45;&gt;n8</title>
<path fill="none" stroke="black" d="M1208.9,-367.41C1335.4,-347.33 1561.8,-311.29 1755.5,-280 1761.6,-279.01 1767.9,-277.99 1774.3,-276.96"/>
<polygon fill="black" stroke="black" points="1774.9,-280.41 1784.2,-275.34 1773.77,-273.5 1774.9,-280.41"/>
</g>
<!-- n9 -->
<g id="node9" class="node">
<title>n9</title>
<path fill="palegreen" stroke="black" d="M125,-158C125,-158 12,-158 12,-158 6,-158 0,-152 0,-146 0,-146 0,-134 0,-134 0,-128 6,-122 12,-122 12,-122 125,-122 125,-122 131,-122 137,-128 137,-134 137,-134 137,-146 137,-146 137,-152 131,-158 125,-158"/>
<text text-anchor="middle" x="68.5" y="-136.3" font-family="Arial" font-size="14.00">Fish in water habitat</text>
</g>
<!-- n2&#45;&gt;n9 -->
<g id="edge8" class="edge">
<title>n2&#45;&gt;n9</title>
<path fill="none" stroke="black" d="M180.73,-243.81C158.16,-223.13 120.15,-188.31 94.7,-165"/>
<polygon fill="black" stroke="black" points="96.97,-162.34 87.23,-158.16 92.24,-167.5 96.97,-162.34"/>
</g>
<!-- n10 -->
<g id="node10" class="node">
<title>n10</title>
<path fill="palegreen" stroke="black" d="M321.5,-158C321.5,-158 207.5,-158 207.5,-158 201.5,-158 195.5,-152 195.5,-146 195.5,-146 195.5,-134 195.5,-134 195.5,-128 201.5,-122 207.5,-122 207.5,-122 321.5,-122 321.5,-122 327.5,-122 333.5,-128 333.5,-134 333.5,-134 333.5,-146 333.5,-146 333.5,-152 327.5,-158 321.5,-158"/>
<text text-anchor="middle" x="264.5" y="-136.3" font-family="Arial" font-size="14.00">Labeled parts of fish</text>
</g>
<!-- n3&#45;&gt;n10 -->
<g id="edge9" class="edge">
<title>n3&#45;&gt;n10</title>
<path fill="none" stroke="black" d="M497.82,-243.93C448.98,-222.39 364.97,-185.32 312.2,-162.04"/>
<polygon fill="black" stroke="black" points="313.61,-158.84 303.05,-158.01 310.79,-165.24 313.61,-158.84"/>
</g>
<!-- n15 -->
<g id="node11" class="node">
<title>n15</title>
<polygon fill="lightcoral" stroke="black" points="536.5,-158 391.05,-140 536.5,-122 681.95,-140 536.5,-158"/>
<text text-anchor="middle" x="536.5" y="-136.3" font-family="Arial" font-size="14.00">Lack of oxygen labeling</text>
</g>
<!-- n3&#45;&gt;n15 -->
<g id="edge10" class="edge">
<title>n3&#45;&gt;n15</title>
<path fill="none" stroke="black" d="M536.5,-243.81C536.5,-224.11 536.5,-191.58 536.5,-168.39"/>
<polygon fill="black" stroke="black" points="540,-168.16 536.5,-158.16 533,-168.16 540,-168.16"/>
</g>
<!-- n11 -->
<g id="node12" class="node">
<title>n11</title>
<path fill="palegreen" stroke="black" d="M933,-158C933,-158 752,-158 752,-158 746,-158 740,-152 740,-146 740,-146 740,-134 740,-134 740,-128 746,-122 752,-122 752,-122 933,-122 933,-122 939,-122 945,-128 945,-134 945,-134 945,-146 945,-146 945,-152 939,-158 933,-158"/>
<text text-anchor="middle" x="842.5" y="-136.3" font-family="Arial" font-size="14.00">Correctly identified water plants</text>
</g>
<!-- n4&#45;&gt;n11 -->
<g id="edge11" class="edge">
<title>n4&#45;&gt;n11</title>
<path fill="none" stroke="black" d="M815.08,-243.81C820.36,-224.02 829.09,-191.29 835.28,-168.08"/>
<polygon fill="black" stroke="black" points="838.73,-168.72 837.92,-158.16 831.97,-166.92 838.73,-168.72"/>
</g>
<!-- n12 -->
<g id="node13" class="node">
<title>n12</title>
<path fill="palegreen" stroke="black" d="M1206,-158C1206,-158 1015,-158 1015,-158 1009,-158 1003,-152 1003,-146 1003,-146 1003,-134 1003,-134 1003,-128 1009,-122 1015,-122 1015,-122 1206,-122 1206,-122 1212,-122 1218,-128 1218,-134 1218,-134 1218,-146 1218,-146 1218,-152 1212,-158 1206,-158"/>
<text text-anchor="middle" x="1110.5" y="-136.3" font-family="Arial" font-size="14.00">Identified other animals in habitat</text>
</g>
<!-- n5&#45;&gt;n12 -->
<g id="edge12" class="edge">
<title>n5&#45;&gt;n12</title>
<path fill="none" stroke="black" d="M1110.5,-243.81C1110.5,-224.11 1110.5,-191.58 1110.5,-168.39"/>
<polygon fill="black" stroke="black" points="1114,-168.16 1110.5,-158.16 1107,-168.16 1114,-168.16"/>
</g>
<!-- n13 -->
<g id="node14" class="node">
<title>n13</title>
<path fill="palegreen" stroke="black" d="M1491,-158C1491,-158 1288,-158 1288,-158 1282,-158 1276,-152 1276,-146 1276,-146 1276,-134 1276,-134 1276,-128 1282,-122 1288,-122 1288,-122 1491,-122 1491,-122 1497,-122 1503,-128 1503,-134 1503,-134 1503,-146 1503,-146 1503,-152 1497,-158 1491,-158"/>
<text text-anchor="middle" x="1389.5" y="-136.3" font-family="Arial" font-size="14.00">Identified birds/insects above water</text>
</g>
<!-- n6&#45;&gt;n13 -->
<g id="edge13" class="edge">
<title>n6&#45;&gt;n13</title>
<path fill="none" stroke="black" d="M1389.5,-243.81C1389.5,-224.11 1389.5,-191.58 1389.5,-168.39"/>
<polygon fill="black" stroke="black" points="1393,-168.16 1389.5,-158.16 1386,-168.16 1393,-168.16"/>
</g>
<!-- n14 -->
<g id="node15" class="node">
<title>n14</title>
<path fill="palegreen" stroke="black" d="M1823.5,-158C1823.5,-158 1681.5,-158 1681.5,-158 1675.5,-158 1669.5,-152 1669.5,-146 1669.5,-146 1669.5,-134 1669.5,-134 1669.5,-128 1675.5,-122 1681.5,-122 1681.5,-122 1823.5,-122 1823.5,-122 1829.5,-122 1835.5,-128 1835.5,-134 1835.5,-134 1835.5,-146 1835.5,-146 1835.5,-152 1829.5,-158 1823.5,-158"/>
<text text-anchor="middle" x="1752.5" y="-136.3" font-family="Arial" font-size="14.00">Illustrated nonliving parts</text>
</g>
<!-- n7&#45;&gt;n14 -->
<g id="edge14" class="edge">
<title>n7&#45;&gt;n14</title>
<path fill="none" stroke="black" d="M1650.5,-243.81C1671,-223.22 1705.3,-188.61 1728.4,-165.3"/>
<polygon fill="black" stroke="black" points="1730.93,-167.72 1735.5,-158.16 1725.97,-162.78 1730.93,-167.72"/>
</g>
<!-- n8&#45;&gt;n14 -->
<g id="edge15" class="edge">
<title>n8&#45;&gt;n14</title>
<path fill="none" stroke="black" d="M1844.2,-243.81C1826,-223.4 1795.5,-189.21 1774.7,-165.91"/>
<polygon fill="black" stroke="black" points="1777.06,-163.3 1767.8,-158.16 1771.84,-167.96 1777.06,-163.3"/>
</g>
<!-- n16 -->
<g id="node16" class="node">
<title>n16</title>
<polygon fill="#f28e8e" stroke="black" points="632,-36 441,-36 441,0 632,0 632,-36"/>
<text text-anchor="middle" x="536.5" y="-14.3" font-family="Arial" font-size="14.00">Label oxygen for fish survival</text>
</g>
<!-- n15&#45;&gt;n16 -->
<g id="edge16" class="edge">
<title>n15&#45;&gt;n16</title>
<path fill="none" stroke="black" d="M536.5,-121.81C536.5,-102.11 536.5,-69.58 536.5,-46.39"/>
<polygon fill="black" stroke="black" points="540,-46.16 536.5,-36.16 533,-46.16 540,-46.16"/>
</g>
</g>
</svg>
