<?xml version="1.0" encoding="UTF-8" standalone="no"?>
<!DOCTYPE svg PUBLIC "-//W3C//DTD SVG 1.1//EN"
 "http://www.w3.org/Graphics/SVG/1.1/DTD/svg11.dtd">
<!-- Generated by graphviz version 2.43.0 (0)
 -->
<!-- Pages: 1 -->
<svg width="1390pt" height="410pt"
 viewBox="0.00 0.00 1390.00 410.00" xmlns="http://www.w3.org/2000/svg" xmlns:xlink="http://www.w3.org/1999/xlink">
<g id="graph0" class="graph" transform="scale(1 1) rotate(0) translate(4 406)">
<polygon fill="white" stroke="transparent" points="-4,4 -4,-406 1386,-406 1386,4 -4,4"/>
<!-- n1 -->
<g id="node1" class="node">
<title>n1</title>
<polygon fill="lightblue" stroke="black" points="704.74,-384 611.62,-402 425.38,-402 332.26,-384 425.38,-366 611.62,-366 704.74,-384"/>
<text text-anchor="middle" x="518.5" y="-380.3" font-family="Arial" font-size="14.00">Illustrate plants with and without water.</text>
</g>
<!-- n2 -->
<g id="node2" class="node">
<title>n2</title>
<polygon fill="#fffdd0" stroke="black" points="295,-280 0,-280 0,-244 295,-244 295,-280"/>
<text text-anchor="middle" x="147.5" y="-258.3" font-family="Arial" font-size="14.00">Healthy plant with green leaves and moist soil.</text>
</g>
<!-- n1&#45;&gt;n2 -->
<g id="edge1" class="edge">
<title>n1&#45;&gt;n2</title>
<path fill="none" stroke="black" d="M465.74,-365.93C398.29,-344.12 281.68,-306.4 209.9,-283.18"/>
<polygon fill="black" stroke="black" points="210.67,-279.75 200.08,-280.01 208.52,-286.41 210.67,-279.75"/>
</g>
<!-- n3 -->
<g id="node3" class="node">
<title>n3</title>
<polygon fill="#fffdd0" stroke="black" points="667.5,-280 369.5,-280 369.5,-244 667.5,-244 667.5,-280"/>
<text text-anchor="middle" x="518.5" y="-258.3" font-family="Arial" font-size="14.00">Unhealthy plant with brown leaves and dry soil.</text>
</g>
<!-- n1&#45;&gt;n3 -->
<g id="edge2" class="edge">
<title>n1&#45;&gt;n3</title>
<path fill="none" stroke="black" d="M518.5,-365.81C518.5,-346.11 518.5,-313.58 518.5,-290.39"/>
<polygon fill="black" stroke="black" points="522,-290.16 518.5,-280.16 515,-290.16 522,-290.16"/>
</g>
<!-- n4 -->
<g id="node4" class="node">
<title>n4</title>
<polygon fill="#fffdd0" stroke="black" points="1049.5,-280 861.5,-280 861.5,-244 1049.5,-244 1049.5,-280"/>
<text text-anchor="middle" x="955.5" y="-258.3" font-family="Arial" font-size="14.00">Small bird nearby the plants.</text>
</g>
<!-- n1&#45;&gt;n4 -->
<g id="edge3" class="edge">
<title>n1&#45;&gt;n4</title>
<path fill="none" stroke="black" d="M580.65,-365.93C660.66,-343.96 799.42,-305.86 883.81,-282.69"/>
<polygon fill="black" stroke="black" points="884.85,-286.03 893.57,-280.01 883,-279.28 884.85,-286.03"/>
</g>
<!-- n5 -->
<g id="node5" class="node">
<title>n5</title>
<path fill="palegreen" stroke="black" d="M224,-158C224,-158 39,-158 39,-158 33,-158 27,-152 27,-146 27,-146 27,-134 27,-134 27,-128 33,-122 39,-122 39,-122 224,-122 224,-122 230,-122 236,-128 236,-134 236,-134 236,-146 236,-146 236,-152 230,-158 224,-158"/>
<text text-anchor="middle" x="131.5" y="-136.3" font-family="Arial" font-size="14.00">Plants need water to be healthy.</text>
</g>
<!-- n2&#45;&gt;n5 -->
<g id="edge4" class="edge">
<title>n2&#45;&gt;n5</title>
<path fill="none" stroke="black" d="M145.21,-243.81C142.57,-224.02 138.21,-191.29 135.11,-168.08"/>
<polygon fill="black" stroke="black" points="138.58,-167.61 133.79,-158.16 131.64,-168.53 138.58,-167.61"/>
</g>
<!-- n6 -->
<g id="node6" class="node">
<title>n6</title>
<path fill="palegreen" stroke="black" d="M731,-158C731,-158 306,-158 306,-158 300,-158 294,-152 294,-146 294,-146 294,-134 294,-134 294,-128 300,-122 306,-122 306,-122 731,-122 731,-122 737,-122 743,-128 743,-134 743,-134 743,-146 743,-146 743,-152 737,-158 731,-158"/>
<text text-anchor="middle" x="518.5" y="-136.3" font-family="Arial" font-size="14.00">Illustrates difference between healthy and unhealthy plants due to water.</text>
</g>
<!-- n3&#45;&gt;n6 -->
<g id="edge5" class="edge">
<title>n3&#45;&gt;n6</title>
<path fill="none" stroke="black" d="M518.5,-243.81C518.5,-224.11 518.5,-191.58 518.5,-168.39"/>
<polygon fill="black" stroke="black" points="522,-168.16 518.5,-158.16 515,-168.16 522,-168.16"/>
</g>
<!-- n7 -->
<g id="node7" class="node">
<title>n7</title>
<polygon fill="lightcoral" stroke="black" points="1091.5,-158 801,-140 1091.5,-122 1382,-140 1091.5,-158"/>
<text text-anchor="middle" x="1091.5" y="-136.3" font-family="Arial" font-size="14.00">Some understanding that animals need water too.</text>
</g>
<!-- n4&#45;&gt;n7 -->
<g id="edge6" class="edge">
<title>n4&#45;&gt;n7</title>
<path fill="none" stroke="black" d="M974.99,-243.81C998.81,-222.78 1039.2,-187.12 1065.6,-163.82"/>
<polygon fill="black" stroke="black" points="1068.17,-166.22 1073.4,-157.01 1063.57,-160.95 1068.17,-166.22"/>
</g>
<!-- n8 -->
<g id="node8" class="node">
<title>n8</title>
<polygon fill="#f28e8e" stroke="black" points="1292.5,-36 890.5,-36 890.5,0 1292.5,0 1292.5,-36"/>
<text text-anchor="middle" x="1091.5" y="-14.3" font-family="Arial" font-size="14.00">Include clearer representation of water&#39;s importance for animals.</text>
</g>
<!-- n7&#45;&gt;n8 -->
<g id="edge7" class="edge">
<title>n7&#45;&gt;n8</title>
<path fill="none" stroke="black" d="M1091.5,-121.81C1091.5,-102.11 1091.5,-69.58 1091.5,-46.39"/>
<polygon fill="black" stroke="black" points="1095,-46.16 1091.5,-36.16 1088,-46.16 1095,-46.16"/>
</g>
</g>
</svg>
