<?xml version="1.0" encoding="UTF-8" standalone="no"?>
<!DOCTYPE svg PUBLIC "-//W3C//DTD SVG 1.1//EN"
 "http://www.w3.org/Graphics/SVG/1.1/DTD/svg11.dtd">
<!-- Generated by graphviz version 2.43.0 (0)
 -->
<!-- Pages: 1 -->
<svg width="1668pt" height="410pt"
 viewBox="0.00 0.00 1668.25 410.00" xmlns="http://www.w3.org/2000/svg" xmlns:xlink="http://www.w3.org/1999/xlink">
<g id="graph0" class="graph" transform="scale(1 1) rotate(0) translate(4 406)">
<polygon fill="white" stroke="transparent" points="-4,4 -4,-406 1664.25,-406 1664.25,4 -4,4"/>
<!-- n1 -->
<g id="node1" class="node">
<title>n1</title>
<polygon fill="lightblue" stroke="black" points="926.06,-384 795.81,-402 535.31,-402 405.06,-384 535.31,-366 795.81,-366 926.06,-384"/>
<text text-anchor="middle" x="665.56" y="-380.3" font-family="Arial" font-size="14.00">Draw two habitats and the different living things in each</text>
</g>
<!-- n2 -->
<g id="node2" class="node">
<title>n2</title>
<polygon fill="#fffdd0" stroke="black" points="1212.1,-280 1027.1,-280 1027.1,-244 1212.1,-244 1212.1,-280"/>
<text text-anchor="middle" x="1119.6" y="-258.3" font-family="Arial" font-size="14.00">Two large undefined shapes</text>
</g>
<!-- n1&#45;&gt;n2 -->
<g id="edge1" class="edge">
<title>n1&#45;&gt;n2</title>
<path fill="none" stroke="black" d="M730.12,-365.93C813.33,-343.94 957.69,-305.78 1045.3,-282.62"/>
<polygon fill="black" stroke="black" points="1046.42,-285.94 1055.2,-280.01 1044.63,-279.17 1046.42,-285.94"/>
</g>
<!-- n3 -->
<g id="node3" class="node">
<title>n3</title>
<polygon fill="#fffdd0" stroke="black" points="393.56,-280 139.56,-280 139.56,-244 393.56,-244 393.56,-280"/>
<text text-anchor="middle" x="266.56" y="-258.3" font-family="Arial" font-size="14.00">Tree with brown trunk and green leaves</text>
</g>
<!-- n1&#45;&gt;n3 -->
<g id="edge2" class="edge">
<title>n1&#45;&gt;n3</title>
<path fill="none" stroke="black" d="M608.81,-365.93C535.98,-344.03 409.84,-306.09 332.72,-282.9"/>
<polygon fill="black" stroke="black" points="333.68,-279.54 323.1,-280.01 331.67,-286.24 333.68,-279.54"/>
</g>
<!-- n4 -->
<g id="node4" class="node">
<title>n4</title>
<polygon fill="#fffdd0" stroke="black" points="599.56,-280 451.56,-280 451.56,-244 599.56,-244 599.56,-280"/>
<text text-anchor="middle" x="525.56" y="-258.3" font-family="Arial" font-size="14.00">Fish colored light blue</text>
</g>
<!-- n1&#45;&gt;n4 -->
<g id="edge3" class="edge">
<title>n1&#45;&gt;n4</title>
<path fill="none" stroke="black" d="M645.5,-365.81C621.27,-345.04 580.4,-310.01 553.2,-286.7"/>
<polygon fill="black" stroke="black" points="555.44,-284.02 545.58,-280.16 550.88,-289.33 555.44,-284.02"/>
</g>
<!-- n5 -->
<g id="node5" class="node">
<title>n5</title>
<polygon fill="#fffdd0" stroke="black" points="953.56,-280 657.56,-280 657.56,-244 953.56,-244 953.56,-280"/>
<text text-anchor="middle" x="805.56" y="-258.3" font-family="Arial" font-size="14.00">Large flower with yellow center and pink petals</text>
</g>
<!-- n1&#45;&gt;n5 -->
<g id="edge4" class="edge">
<title>n1&#45;&gt;n5</title>
<path fill="none" stroke="black" d="M685.61,-365.81C709.84,-345.04 750.71,-310.01 777.91,-286.7"/>
<polygon fill="black" stroke="black" points="780.22,-289.33 785.53,-280.16 775.66,-284.02 780.22,-289.33"/>
</g>
<!-- n6 -->
<g id="node6" class="node">
<title>n6</title>
<path fill="palegreen" stroke="black" d="M833.56,-158C833.56,-158 603.56,-158 603.56,-158 597.56,-158 591.56,-152 591.56,-146 591.56,-146 591.56,-134 591.56,-134 591.56,-128 597.56,-122 603.56,-122 603.56,-122 833.56,-122 833.56,-122 839.56,-122 845.56,-128 845.56,-134 845.56,-134 845.56,-146 845.56,-146 845.56,-152 839.56,-158 833.56,-158"/>
<text text-anchor="middle" x="718.56" y="-136.3" font-family="Arial" font-size="14.00">Understands basic elements of habitats</text>
</g>
<!-- n2&#45;&gt;n6 -->
<g id="edge5" class="edge">
<title>n2&#45;&gt;n6</title>
<path fill="none" stroke="black" d="M1062.5,-243.93C989.33,-222.03 862.56,-184.09 785.05,-160.9"/>
<polygon fill="black" stroke="black" points="785.97,-157.52 775.39,-158.01 783.96,-164.23 785.97,-157.52"/>
</g>
<!-- n7 -->
<g id="node7" class="node">
<title>n7</title>
<polygon fill="lightcoral" stroke="black" points="1135.6,-158 903.84,-140 1135.6,-122 1367.35,-140 1135.6,-158"/>
<text text-anchor="middle" x="1135.6" y="-136.3" font-family="Arial" font-size="14.00">No distinct separation between habitats</text>
</g>
<!-- n2&#45;&gt;n7 -->
<g id="edge6" class="edge">
<title>n2&#45;&gt;n7</title>
<path fill="none" stroke="black" d="M1121.8,-243.81C1124.5,-224.02 1128.9,-191.29 1131.9,-168.08"/>
<polygon fill="black" stroke="black" points="1135.36,-168.55 1133.3,-158.16 1128.43,-167.57 1135.36,-168.55"/>
</g>
<!-- n9 -->
<g id="node8" class="node">
<title>n9</title>
<polygon fill="lightcoral" stroke="black" points="1542.6,-158 1424.79,-140 1542.6,-122 1660.4,-140 1542.6,-158"/>
<text text-anchor="middle" x="1542.6" y="-136.3" font-family="Arial" font-size="14.00">No labels provided</text>
</g>
<!-- n2&#45;&gt;n9 -->
<g id="edge7" class="edge">
<title>n2&#45;&gt;n9</title>
<path fill="none" stroke="black" d="M1179.7,-243.93C1264,-220.03 1415.5,-177.04 1493.4,-154.94"/>
<polygon fill="black" stroke="black" points="1494.73,-158.2 1503.4,-152.1 1492.82,-151.47 1494.73,-158.2"/>
</g>
<!-- n3&#45;&gt;n6 -->
<g id="edge8" class="edge">
<title>n3&#45;&gt;n6</title>
<path fill="none" stroke="black" d="M330.84,-243.93C413.68,-221.94 557.4,-183.78 644.67,-160.62"/>
<polygon fill="black" stroke="black" points="645.73,-163.96 654.5,-158.01 643.93,-157.19 645.73,-163.96"/>
</g>
<!-- n8 -->
<g id="node9" class="node">
<title>n8</title>
<polygon fill="lightcoral" stroke="black" points="266.56,-158 -0.06,-140 266.56,-122 533.17,-140 266.56,-158"/>
<text text-anchor="middle" x="266.56" y="-136.3" font-family="Arial" font-size="14.00">Lack of variety in depicted plants and animals</text>
</g>
<!-- n3&#45;&gt;n8 -->
<g id="edge9" class="edge">
<title>n3&#45;&gt;n8</title>
<path fill="none" stroke="black" d="M266.56,-243.81C266.56,-224.11 266.56,-191.58 266.56,-168.39"/>
<polygon fill="black" stroke="black" points="270.06,-168.16 266.56,-158.16 263.06,-168.16 270.06,-168.16"/>
</g>
<!-- n4&#45;&gt;n6 -->
<g id="edge10" class="edge">
<title>n4&#45;&gt;n6</title>
<path fill="none" stroke="black" d="M553.21,-243.81C587.17,-222.69 644.89,-186.81 682.36,-163.51"/>
<polygon fill="black" stroke="black" points="684.31,-166.42 690.95,-158.16 680.61,-160.48 684.31,-166.42"/>
</g>
<!-- n4&#45;&gt;n8 -->
<g id="edge11" class="edge">
<title>n4&#45;&gt;n8</title>
<path fill="none" stroke="black" d="M488.72,-243.93C440.96,-221.81 357.9,-183.32 307.99,-160.2"/>
<polygon fill="black" stroke="black" points="309.31,-156.96 298.77,-155.93 306.37,-163.31 309.31,-156.96"/>
</g>
<!-- n5&#45;&gt;n6 -->
<g id="edge12" class="edge">
<title>n5&#45;&gt;n6</title>
<path fill="none" stroke="black" d="M793.09,-243.81C778.43,-223.58 753.94,-189.81 737.06,-166.52"/>
<polygon fill="black" stroke="black" points="739.7,-164.2 731,-158.16 734.03,-168.31 739.7,-164.2"/>
</g>
<!-- n5&#45;&gt;n8 -->
<g id="edge13" class="edge">
<title>n5&#45;&gt;n8</title>
<path fill="none" stroke="black" d="M729.19,-244C623.93,-220.56 435.87,-178.7 334.98,-156.23"/>
<polygon fill="black" stroke="black" points="335.72,-152.81 325.2,-154.06 334.2,-159.64 335.72,-152.81"/>
</g>
<!-- n10 -->
<g id="node10" class="node">
<title>n10</title>
<polygon fill="#f28e8e" stroke="black" points="1313.6,-36 957.6,-36 957.6,0 1313.6,0 1313.6,-36"/>
<text text-anchor="middle" x="1135.6" y="-14.3" font-family="Arial" font-size="14.00">Discuss different types of habitats and related organisms</text>
</g>
<!-- n7&#45;&gt;n10 -->
<g id="edge14" class="edge">
<title>n7&#45;&gt;n10</title>
<path fill="none" stroke="black" d="M1135.6,-121.81C1135.6,-102.11 1135.6,-69.58 1135.6,-46.39"/>
<polygon fill="black" stroke="black" points="1139.1,-46.16 1135.6,-36.16 1132.1,-46.16 1139.1,-46.16"/>
</g>
<!-- n12 -->
<g id="node11" class="node">
<title>n12</title>
<polygon fill="#f28e8e" stroke="black" points="1657.6,-36 1427.6,-36 1427.6,0 1657.6,0 1657.6,-36"/>
<text text-anchor="middle" x="1542.6" y="-14.3" font-family="Arial" font-size="14.00">Teach labeling techniques for clarity</text>
</g>
<!-- n9&#45;&gt;n12 -->
<g id="edge15" class="edge">
<title>n9&#45;&gt;n12</title>
<path fill="none" stroke="black" d="M1542.6,-121.81C1542.6,-102.11 1542.6,-69.58 1542.6,-46.39"/>
<polygon fill="black" stroke="black" points="1546.1,-46.16 1542.6,-36.16 1539.1,-46.16 1546.1,-46.16"/>
</g>
<!-- n11 -->
<g id="node12" class="node">
<title>n11</title>
<polygon fill="#f28e8e" stroke="black" points="418.56,-36 114.56,-36 114.56,0 418.56,0 418.56,-36"/>
<text text-anchor="middle" x="266.56" y="-14.3" font-family="Arial" font-size="14.00">Encourage use of diverse examples in drawings</text>
</g>
<!-- n8&#45;&gt;n11 -->
<g id="edge16" class="edge">
<title>n8&#45;&gt;n11</title>
<path fill="none" stroke="black" d="M266.56,-121.81C266.56,-102.11 266.56,-69.58 266.56,-46.39"/>
<polygon fill="black" stroke="black" points="270.06,-46.16 266.56,-36.16 263.06,-46.16 270.06,-46.16"/>
</g>
</g>
</svg>
