<?xml version="1.0" encoding="UTF-8" standalone="no"?>
<!DOCTYPE svg PUBLIC "-//W3C//DTD SVG 1.1//EN"
 "http://www.w3.org/Graphics/SVG/1.1/DTD/svg11.dtd">
<!-- Generated by graphviz version 2.43.0 (0)
 -->
<!-- Pages: 1 -->
<svg width="2672pt" height="410pt"
 viewBox="0.00 0.00 2672.05 410.00" xmlns="http://www.w3.org/2000/svg" xmlns:xlink="http://www.w3.org/1999/xlink">
<g id="graph0" class="graph" transform="scale(1 1) rotate(0) translate(4 406)">
<polygon fill="white" stroke="transparent" points="-4,4 -4,-406 2668.05,-406 2668.05,4 -4,4"/>
<!-- n1 -->
<g id="node1" class="node">
<title>n1</title>
<polygon fill="lightblue" stroke="black" points="1208,-384 1098,-402 878,-402 768,-384 878,-366 1098,-366 1208,-384"/>
<text text-anchor="middle" x="988" y="-380.3" font-family="Arial" font-size="14.00">Draw a string telephone between two students</text>
</g>
<!-- n2 -->
<g id="node2" class="node">
<title>n2</title>
<polygon fill="#fffdd0" stroke="black" points="292.5,-280 89.5,-280 89.5,-244 292.5,-244 292.5,-280"/>
<text text-anchor="middle" x="191" y="-258.3" font-family="Arial" font-size="14.00">Two students facing each other</text>
</g>
<!-- n1&#45;&gt;n2 -->
<g id="edge1" class="edge">
<title>n1&#45;&gt;n2</title>
<path fill="none" stroke="black" d="M876.34,-366.19C724.64,-343.35 454.95,-302.74 303.04,-279.87"/>
<polygon fill="black" stroke="black" points="303.17,-276.35 292.76,-278.32 302.13,-283.27 303.17,-276.35"/>
</g>
<!-- n3 -->
<g id="node3" class="node">
<title>n3</title>
<polygon fill="#fffdd0" stroke="black" points="613.5,-280 350.5,-280 350.5,-244 613.5,-244 613.5,-280"/>
<text text-anchor="middle" x="482" y="-258.3" font-family="Arial" font-size="14.00">Each holding a cup connected by a string</text>
</g>
<!-- n1&#45;&gt;n3 -->
<g id="edge2" class="edge">
<title>n1&#45;&gt;n3</title>
<path fill="none" stroke="black" d="M916.31,-366C823.26,-343.93 661.29,-305.52 563.63,-282.36"/>
<polygon fill="black" stroke="black" points="564.34,-278.93 553.8,-280.03 562.72,-285.74 564.34,-278.93"/>
</g>
<!-- n4 -->
<g id="node4" class="node">
<title>n4</title>
<polygon fill="#fffdd0" stroke="black" points="838.5,-280 671.5,-280 671.5,-244 838.5,-244 838.5,-280"/>
<text text-anchor="middle" x="755" y="-258.3" font-family="Arial" font-size="14.00">String is depicted as tight</text>
</g>
<!-- n1&#45;&gt;n4 -->
<g id="edge3" class="edge">
<title>n1&#45;&gt;n4</title>
<path fill="none" stroke="black" d="M954.62,-365.81C913.18,-344.47 842.47,-308.05 797.28,-284.77"/>
<polygon fill="black" stroke="black" points="798.81,-281.62 788.32,-280.16 795.61,-287.85 798.81,-281.62"/>
</g>
<!-- n5 -->
<g id="node5" class="node">
<title>n5</title>
<polygon fill="#fffdd0" stroke="black" points="1079.5,-280 896.5,-280 896.5,-244 1079.5,-244 1079.5,-280"/>
<text text-anchor="middle" x="988" y="-258.3" font-family="Arial" font-size="14.00">Labels: &#39;Sound travels here&#39;</text>
</g>
<!-- n1&#45;&gt;n5 -->
<g id="edge4" class="edge">
<title>n1&#45;&gt;n5</title>
<path fill="none" stroke="black" d="M988,-365.81C988,-346.11 988,-313.58 988,-290.39"/>
<polygon fill="black" stroke="black" points="991.5,-290.16 988,-280.16 984.5,-290.16 991.5,-290.16"/>
</g>
<!-- n6 -->
<g id="node6" class="node">
<title>n6</title>
<polygon fill="#fffdd0" stroke="black" points="1384.5,-280 1165.5,-280 1165.5,-244 1384.5,-244 1384.5,-280"/>
<text text-anchor="middle" x="1275" y="-258.3" font-family="Arial" font-size="14.00">Arrows indicate direction of sound</text>
</g>
<!-- n1&#45;&gt;n6 -->
<g id="edge5" class="edge">
<title>n1&#45;&gt;n6</title>
<path fill="none" stroke="black" d="M1028.8,-365.93C1080.5,-344.34 1169.4,-307.17 1225,-283.9"/>
<polygon fill="black" stroke="black" points="1226.43,-287.1 1234.3,-280.01 1223.72,-280.64 1226.43,-287.1"/>
</g>
<!-- n7 -->
<g id="node7" class="node">
<title>n7</title>
<polygon fill="#fffdd0" stroke="black" points="1774,-280 1600,-280 1600,-244 1774,-244 1774,-280"/>
<text text-anchor="middle" x="1687" y="-258.3" font-family="Arial" font-size="14.00">Park&#45;like setting with trees</text>
</g>
<!-- n1&#45;&gt;n7 -->
<g id="edge6" class="edge">
<title>n1&#45;&gt;n7</title>
<path fill="none" stroke="black" d="M1087,-366C1220.6,-343.06 1457.1,-302.46 1589.8,-279.69"/>
<polygon fill="black" stroke="black" points="1590.74,-283.08 1600,-277.94 1589.55,-276.18 1590.74,-283.08"/>
</g>
<!-- n8 -->
<g id="node8" class="node">
<title>n8</title>
<polygon fill="#fffdd0" stroke="black" points="2284,-280 2100,-280 2100,-244 2284,-244 2284,-280"/>
<text text-anchor="middle" x="2192" y="-258.3" font-family="Arial" font-size="14.00">Mobile phone drawn nearby</text>
</g>
<!-- n1&#45;&gt;n8 -->
<g id="edge7" class="edge">
<title>n1&#45;&gt;n8</title>
<path fill="none" stroke="black" d="M1120.9,-369.76C1363.2,-345.61 1871.9,-294.9 2089.6,-273.2"/>
<polygon fill="black" stroke="black" points="2090.19,-276.66 2099.8,-272.19 2089.5,-269.69 2090.19,-276.66"/>
</g>
<!-- n9 -->
<g id="node9" class="node">
<title>n9</title>
<path fill="palegreen" stroke="black" d="M370,-158C370,-158 12,-158 12,-158 6,-158 0,-152 0,-146 0,-146 0,-134 0,-134 0,-128 6,-122 12,-122 12,-122 370,-122 370,-122 376,-122 382,-128 382,-134 382,-134 382,-146 382,-146 382,-152 376,-158 370,-158"/>
<text text-anchor="middle" x="191" y="-136.3" font-family="Arial" font-size="14.00">Understanding of using a string telephone for communication</text>
</g>
<!-- n2&#45;&gt;n9 -->
<g id="edge8" class="edge">
<title>n2&#45;&gt;n9</title>
<path fill="none" stroke="black" d="M191,-243.81C191,-224.11 191,-191.58 191,-168.39"/>
<polygon fill="black" stroke="black" points="194.5,-168.16 191,-158.16 187.5,-168.16 194.5,-168.16"/>
</g>
<!-- n3&#45;&gt;n9 -->
<g id="edge9" class="edge">
<title>n3&#45;&gt;n9</title>
<path fill="none" stroke="black" d="M440.62,-243.93C388.25,-222.34 298.12,-185.17 241.68,-161.9"/>
<polygon fill="black" stroke="black" points="242.82,-158.58 232.24,-158.01 240.15,-165.06 242.82,-158.58"/>
</g>
<!-- n10 -->
<g id="node10" class="node">
<title>n10</title>
<path fill="palegreen" stroke="black" d="M773.5,-158C773.5,-158 452.5,-158 452.5,-158 446.5,-158 440.5,-152 440.5,-146 440.5,-146 440.5,-134 440.5,-134 440.5,-128 446.5,-122 452.5,-122 452.5,-122 773.5,-122 773.5,-122 779.5,-122 785.5,-128 785.5,-134 785.5,-134 785.5,-146 785.5,-146 785.5,-152 779.5,-158 773.5,-158"/>
<text text-anchor="middle" x="613" y="-136.3" font-family="Arial" font-size="14.00">Demonstrates effective communication with tight string</text>
</g>
<!-- n4&#45;&gt;n10 -->
<g id="edge10" class="edge">
<title>n4&#45;&gt;n10</title>
<path fill="none" stroke="black" d="M734.65,-243.81C710.09,-223.04 668.63,-188.01 641.04,-164.7"/>
<polygon fill="black" stroke="black" points="643.2,-161.95 633.31,-158.16 638.68,-167.29 643.2,-161.95"/>
</g>
<!-- n11 -->
<g id="node11" class="node">
<title>n11</title>
<path fill="palegreen" stroke="black" d="M1104,-158C1104,-158 856,-158 856,-158 850,-158 844,-152 844,-146 844,-146 844,-134 844,-134 844,-128 850,-122 856,-122 856,-122 1104,-122 1104,-122 1110,-122 1116,-128 1116,-134 1116,-134 1116,-146 1116,-146 1116,-152 1110,-158 1104,-158"/>
<text text-anchor="middle" x="980" y="-136.3" font-family="Arial" font-size="14.00">Correct use of labels to depict sound travel</text>
</g>
<!-- n5&#45;&gt;n11 -->
<g id="edge11" class="edge">
<title>n5&#45;&gt;n11</title>
<path fill="none" stroke="black" d="M986.85,-243.81C985.54,-224.11 983.37,-191.58 981.83,-168.39"/>
<polygon fill="black" stroke="black" points="985.31,-167.9 981.14,-158.16 978.32,-168.37 985.31,-167.9"/>
</g>
<!-- n12 -->
<g id="node12" class="node">
<title>n12</title>
<path fill="palegreen" stroke="black" d="M1422,-158C1422,-158 1186,-158 1186,-158 1180,-158 1174,-152 1174,-146 1174,-146 1174,-134 1174,-134 1174,-128 1180,-122 1186,-122 1186,-122 1422,-122 1422,-122 1428,-122 1434,-128 1434,-134 1434,-134 1434,-146 1434,-146 1434,-152 1428,-158 1422,-158"/>
<text text-anchor="middle" x="1304" y="-136.3" font-family="Arial" font-size="14.00">Correct use of arrows for sound direction</text>
</g>
<!-- n6&#45;&gt;n12 -->
<g id="edge12" class="edge">
<title>n6&#45;&gt;n12</title>
<path fill="none" stroke="black" d="M1279.2,-243.81C1283.9,-224.02 1291.8,-191.29 1297.5,-168.08"/>
<polygon fill="black" stroke="black" points="1300.95,-168.7 1299.9,-158.16 1294.15,-167.06 1300.95,-168.7"/>
</g>
<!-- n13 -->
<g id="node13" class="node">
<title>n13</title>
<polygon fill="lightcoral" stroke="black" points="1845,-158 1492,-140 1845,-122 2198,-140 1845,-158"/>
<text text-anchor="middle" x="1845" y="-136.3" font-family="Arial" font-size="14.00">Setting does not explicitly show communication over distance</text>
</g>
<!-- n7&#45;&gt;n13 -->
<g id="edge13" class="edge">
<title>n7&#45;&gt;n13</title>
<path fill="none" stroke="black" d="M1709.6,-243.81C1737.6,-222.6 1785.1,-186.51 1815.7,-163.22"/>
<polygon fill="black" stroke="black" points="1818.04,-165.84 1823.9,-157.01 1813.82,-160.26 1818.04,-165.84"/>
</g>
<!-- n14 -->
<g id="node14" class="node">
<title>n14</title>
<polygon fill="lightcoral" stroke="black" points="2460,-158 2255.89,-140 2460,-122 2664.11,-140 2460,-158"/>
<text text-anchor="middle" x="2460" y="-136.3" font-family="Arial" font-size="14.00">Mobile phone relevance is unclear</text>
</g>
<!-- n8&#45;&gt;n14 -->
<g id="edge14" class="edge">
<title>n8&#45;&gt;n14</title>
<path fill="none" stroke="black" d="M2230.1,-243.93C2280,-221.58 2367.3,-182.52 2418.7,-159.48"/>
<polygon fill="black" stroke="black" points="2420.19,-162.65 2427.9,-155.38 2417.34,-156.25 2420.19,-162.65"/>
</g>
<!-- n15 -->
<g id="node15" class="node">
<title>n15</title>
<polygon fill="#f28e8e" stroke="black" points="2018.5,-36 1671.5,-36 1671.5,0 2018.5,0 2018.5,-36"/>
<text text-anchor="middle" x="1845" y="-14.3" font-family="Arial" font-size="14.00">Include clearer depiction of distance, e.g., larger setting</text>
</g>
<!-- n13&#45;&gt;n15 -->
<g id="edge15" class="edge">
<title>n13&#45;&gt;n15</title>
<path fill="none" stroke="black" d="M1845,-121.81C1845,-102.11 1845,-69.58 1845,-46.39"/>
<polygon fill="black" stroke="black" points="1848.5,-46.16 1845,-36.16 1841.5,-46.16 1848.5,-46.16"/>
</g>
<!-- n16 -->
<g id="node16" class="node">
<title>n16</title>
<polygon fill="#f28e8e" stroke="black" points="2622,-36 2298,-36 2298,0 2622,0 2622,-36"/>
<text text-anchor="middle" x="2460" y="-14.3" font-family="Arial" font-size="14.00">Explain or remove mobile phone to avoid confusion</text>
</g>
<!-- n14&#45;&gt;n16 -->
<g id="edge16" class="edge">
<title>n14&#45;&gt;n16</title>
<path fill="none" stroke="black" d="M2460,-121.81C2460,-102.11 2460,-69.58 2460,-46.39"/>
<polygon fill="black" stroke="black" points="2463.5,-46.16 2460,-36.16 2456.5,-46.16 2463.5,-46.16"/>
</g>
</g>
</svg>
