<?xml version="1.0" encoding="UTF-8" standalone="no"?>
<!DOCTYPE svg PUBLIC "-//W3C//DTD SVG 1.1//EN"
 "http://www.w3.org/Graphics/SVG/1.1/DTD/svg11.dtd">
<!-- Generated by graphviz version 2.43.0 (0)
 -->
<!-- Pages: 1 -->
<svg width="1429pt" height="410pt"
 viewBox="0.00 0.00 1428.59 410.00" xmlns="http://www.w3.org/2000/svg" xmlns:xlink="http://www.w3.org/1999/xlink">
<g id="graph0" class="graph" transform="scale(1 1) rotate(0) translate(4 406)">
<polygon fill="white" stroke="transparent" points="-4,4 -4,-406 1424.59,-406 1424.59,4 -4,4"/>
<!-- n1 -->
<g id="node1" class="node">
<title>n1</title>
<polygon fill="lightblue" stroke="black" points="1020.5,-384 909,-402 686,-402 574.5,-384 686,-366 909,-366 1020.5,-384"/>
<text text-anchor="middle" x="797.5" y="-380.3" font-family="Arial" font-size="14.00">Draw a string telephone between two students.</text>
</g>
<!-- n2 -->
<g id="node2" class="node">
<title>n2</title>
<polygon fill="#fffdd0" stroke="black" points="650,-280 431,-280 431,-244 650,-244 650,-280"/>
<text text-anchor="middle" x="540.5" y="-258.3" font-family="Arial" font-size="14.00">Two stick figures holding red cups</text>
</g>
<!-- n1&#45;&gt;n2 -->
<g id="edge1" class="edge">
<title>n1&#45;&gt;n2</title>
<path fill="none" stroke="black" d="M760.95,-365.93C714.99,-344.48 636.09,-307.63 586.19,-284.33"/>
<polygon fill="black" stroke="black" points="587.46,-281.06 576.92,-280.01 584.51,-287.41 587.46,-281.06"/>
</g>
<!-- n3 -->
<g id="node3" class="node">
<title>n3</title>
<polygon fill="#fffdd0" stroke="black" points="886.5,-280 708.5,-280 708.5,-244 886.5,-244 886.5,-280"/>
<text text-anchor="middle" x="797.5" y="-258.3" font-family="Arial" font-size="14.00">Straight black line as string</text>
</g>
<!-- n1&#45;&gt;n3 -->
<g id="edge2" class="edge">
<title>n1&#45;&gt;n3</title>
<path fill="none" stroke="black" d="M797.5,-365.81C797.5,-346.11 797.5,-313.58 797.5,-290.39"/>
<polygon fill="black" stroke="black" points="801,-290.16 797.5,-280.16 794,-290.16 801,-290.16"/>
</g>
<!-- n4 -->
<g id="node4" class="node">
<title>n4</title>
<polygon fill="#fffdd0" stroke="black" points="1232,-280 945,-280 945,-244 1232,-244 1232,-280"/>
<text text-anchor="middle" x="1088.5" y="-258.3" font-family="Arial" font-size="14.00">Cups are labeled &#39;cups&#39;, string labeled &#39;string&#39;</text>
</g>
<!-- n1&#45;&gt;n4 -->
<g id="edge3" class="edge">
<title>n1&#45;&gt;n4</title>
<path fill="none" stroke="black" d="M838.88,-365.93C891.25,-344.34 981.38,-307.17 1037.8,-283.9"/>
<polygon fill="black" stroke="black" points="1039.37,-287.04 1047.3,-280.01 1036.72,-280.56 1039.37,-287.04"/>
</g>
<!-- n5 -->
<g id="node5" class="node">
<title>n5</title>
<path fill="palegreen" stroke="black" d="M359,-158C359,-158 12,-158 12,-158 6,-158 0,-152 0,-146 0,-146 0,-134 0,-134 0,-128 6,-122 12,-122 12,-122 359,-122 359,-122 365,-122 371,-128 371,-134 371,-134 371,-146 371,-146 371,-152 365,-158 359,-158"/>
<text text-anchor="middle" x="185.5" y="-136.3" font-family="Arial" font-size="14.00">Student shows communication device between two people.</text>
</g>
<!-- n2&#45;&gt;n5 -->
<g id="edge4" class="edge">
<title>n2&#45;&gt;n5</title>
<path fill="none" stroke="black" d="M490.01,-243.93C425.61,-222.16 314.35,-184.56 245.63,-161.33"/>
<polygon fill="black" stroke="black" points="246.4,-157.9 235.81,-158.01 244.16,-164.53 246.4,-157.9"/>
</g>
<!-- n6 -->
<g id="node6" class="node">
<title>n6</title>
<path fill="palegreen" stroke="black" d="M655.5,-158C655.5,-158 441.5,-158 441.5,-158 435.5,-158 429.5,-152 429.5,-146 429.5,-146 429.5,-134 429.5,-134 429.5,-128 435.5,-122 441.5,-122 441.5,-122 655.5,-122 655.5,-122 661.5,-122 667.5,-128 667.5,-134 667.5,-134 667.5,-146 667.5,-146 667.5,-152 661.5,-158 655.5,-158"/>
<text text-anchor="middle" x="548.5" y="-136.3" font-family="Arial" font-size="14.00">Student depicts necessary materials.</text>
</g>
<!-- n2&#45;&gt;n6 -->
<g id="edge5" class="edge">
<title>n2&#45;&gt;n6</title>
<path fill="none" stroke="black" d="M541.65,-243.81C542.96,-224.11 545.13,-191.58 546.67,-168.39"/>
<polygon fill="black" stroke="black" points="550.18,-168.37 547.36,-158.16 543.19,-167.9 550.18,-168.37"/>
</g>
<!-- n7 -->
<g id="node7" class="node">
<title>n7</title>
<polygon fill="lightcoral" stroke="black" points="1080.5,-158 740.32,-140 1080.5,-122 1420.68,-140 1080.5,-158"/>
<text text-anchor="middle" x="1080.5" y="-136.3" font-family="Arial" font-size="14.00">Incomplete understanding of sound transmission via string.</text>
</g>
<!-- n3&#45;&gt;n7 -->
<g id="edge6" class="edge">
<title>n3&#45;&gt;n7</title>
<path fill="none" stroke="black" d="M837.75,-243.93C889.86,-221.84 980.45,-183.42 1035,-160.29"/>
<polygon fill="black" stroke="black" points="1036.56,-163.43 1044.4,-156.3 1033.83,-156.99 1036.56,-163.43"/>
</g>
<!-- n4&#45;&gt;n7 -->
<g id="edge7" class="edge">
<title>n4&#45;&gt;n7</title>
<path fill="none" stroke="black" d="M1087.4,-243.81C1086,-224.11 1083.9,-191.58 1082.3,-168.39"/>
<polygon fill="black" stroke="black" points="1085.77,-167.9 1081.6,-158.16 1078.79,-168.38 1085.77,-167.9"/>
</g>
<!-- n8 -->
<g id="node8" class="node">
<title>n8</title>
<polygon fill="#f28e8e" stroke="black" points="1271.5,-36 889.5,-36 889.5,0 1271.5,0 1271.5,-36"/>
<text text-anchor="middle" x="1080.5" y="-14.3" font-family="Arial" font-size="14.00">Add instructional details about sound traveling through string.</text>
</g>
<!-- n7&#45;&gt;n8 -->
<g id="edge8" class="edge">
<title>n7&#45;&gt;n8</title>
<path fill="none" stroke="black" d="M1080.5,-121.81C1080.5,-102.11 1080.5,-69.58 1080.5,-46.39"/>
<polygon fill="black" stroke="black" points="1084,-46.16 1080.5,-36.16 1077,-46.16 1084,-46.16"/>
</g>
</g>
</svg>
