<?xml version="1.0" encoding="UTF-8" standalone="no"?>
<!DOCTYPE svg PUBLIC "-//W3C//DTD SVG 1.1//EN"
 "http://www.w3.org/Graphics/SVG/1.1/DTD/svg11.dtd">
<!-- Generated by graphviz version 2.43.0 (0)
 -->
<!-- Pages: 1 -->
<svg width="1596pt" height="410pt"
 viewBox="0.00 0.00 1596.47 410.00" xmlns="http://www.w3.org/2000/svg" xmlns:xlink="http://www.w3.org/1999/xlink">
<g id="graph0" class="graph" transform="scale(1 1) rotate(0) translate(4 406)">
<polygon fill="white" stroke="transparent" points="-4,4 -4,-406 1592.47,-406 1592.47,4 -4,4"/>
<!-- n1 -->
<g id="node1" class="node">
<title>n1</title>
<polygon fill="lightblue" stroke="black" points="1251.87,-384 1110.68,-402 828.32,-402 687.13,-384 828.32,-366 1110.68,-366 1251.87,-384"/>
<text text-anchor="middle" x="969.5" y="-380.3" font-family="Arial" font-size="14.00">Draw animals in their habitats with labels (e.g., fish in water)</text>
</g>
<!-- n2 -->
<g id="node2" class="node">
<title>n2</title>
<polygon fill="#fffdd0" stroke="black" points="686.5,-280 486.5,-280 486.5,-244 686.5,-244 686.5,-280"/>
<text text-anchor="middle" x="586.5" y="-258.3" font-family="Arial" font-size="14.00">Oval shape representing a fish</text>
</g>
<!-- n1&#45;&gt;n2 -->
<g id="edge1" class="edge">
<title>n1&#45;&gt;n2</title>
<path fill="none" stroke="black" d="M915.03,-365.93C845.26,-344.07 724.53,-306.25 650.47,-283.04"/>
<polygon fill="black" stroke="black" points="651.37,-279.65 640.78,-280.01 649.28,-286.33 651.37,-279.65"/>
</g>
<!-- n3 -->
<g id="node3" class="node">
<title>n3</title>
<polygon fill="#fffdd0" stroke="black" points="946.5,-280 744.5,-280 744.5,-244 946.5,-244 946.5,-280"/>
<text text-anchor="middle" x="845.5" y="-258.3" font-family="Arial" font-size="14.00">Large circle representing water</text>
</g>
<!-- n1&#45;&gt;n3 -->
<g id="edge2" class="edge">
<title>n1&#45;&gt;n3</title>
<path fill="none" stroke="black" d="M951.74,-365.81C930.47,-345.22 894.7,-310.61 870.61,-287.3"/>
<polygon fill="black" stroke="black" points="872.86,-284.6 863.24,-280.16 867.99,-289.63 872.86,-284.6"/>
</g>
<!-- n4 -->
<g id="node4" class="node">
<title>n4</title>
<polygon fill="#fffdd0" stroke="black" points="1186.47,-280 1006.47,-280 1006.47,-244 1186.47,-244 1186.47,-280"/>
<text text-anchor="middle" x="1096.47" y="-258.3" font-family="Arial" font-size="14.00">Label &#39;fish&#39; near oval shape</text>
</g>
<!-- n1&#45;&gt;n4 -->
<g id="edge3" class="edge">
<title>n1&#45;&gt;n4</title>
<path fill="none" stroke="black" d="M987.7,-365.81C1009.47,-345.22 1046.07,-310.61 1070.77,-287.3"/>
<polygon fill="black" stroke="black" points="1073.48,-289.56 1078.37,-280.16 1068.69,-284.46 1073.48,-289.56"/>
</g>
<!-- n5 -->
<g id="node5" class="node">
<title>n5</title>
<polygon fill="#fffdd0" stroke="black" points="1403.47,-280 1245.47,-280 1245.47,-244 1403.47,-244 1403.47,-280"/>
<text text-anchor="middle" x="1324.47" y="-258.3" font-family="Arial" font-size="14.00">Label &#39;water&#39; near circle</text>
</g>
<!-- n1&#45;&gt;n5 -->
<g id="edge4" class="edge">
<title>n1&#45;&gt;n5</title>
<path fill="none" stroke="black" d="M1019.97,-365.93C1084.37,-344.16 1195.67,-306.56 1264.37,-283.33"/>
<polygon fill="black" stroke="black" points="1265.82,-286.53 1274.17,-280.01 1263.58,-279.9 1265.82,-286.53"/>
</g>
<!-- n6 -->
<g id="node6" class="node">
<title>n6</title>
<path fill="palegreen" stroke="black" d="M992.5,-158C992.5,-158 696.5,-158 696.5,-158 690.5,-158 684.5,-152 684.5,-146 684.5,-146 684.5,-134 684.5,-134 684.5,-128 690.5,-122 696.5,-122 696.5,-122 992.5,-122 992.5,-122 998.5,-122 1004.5,-128 1004.5,-134 1004.5,-134 1004.5,-146 1004.5,-146 1004.5,-152 998.5,-158 992.5,-158"/>
<text text-anchor="middle" x="844.5" y="-136.3" font-family="Arial" font-size="14.00">Attempts to locate animals in habitat (fish in water)</text>
</g>
<!-- n2&#45;&gt;n6 -->
<g id="edge5" class="edge">
<title>n2&#45;&gt;n6</title>
<path fill="none" stroke="black" d="M623.19,-243.93C669.33,-222.48 748.55,-185.63 798.63,-162.33"/>
<polygon fill="black" stroke="black" points="800.34,-165.39 807.94,-158.01 797.4,-159.04 800.34,-165.39"/>
</g>
<!-- n8 -->
<g id="node7" class="node">
<title>n8</title>
<polygon fill="lightcoral" stroke="black" points="313.5,-158 0,-140 313.5,-122 627,-140 313.5,-158"/>
<text text-anchor="middle" x="313.5" y="-136.3" font-family="Arial" font-size="14.00">Missing details about resources necessary for survival</text>
</g>
<!-- n2&#45;&gt;n8 -->
<g id="edge6" class="edge">
<title>n2&#45;&gt;n8</title>
<path fill="none" stroke="black" d="M547.68,-243.93C497.37,-221.82 409.9,-183.37 357.28,-160.24"/>
<polygon fill="black" stroke="black" points="358.44,-156.93 347.88,-156.11 355.63,-163.34 358.44,-156.93"/>
</g>
<!-- n3&#45;&gt;n6 -->
<g id="edge7" class="edge">
<title>n3&#45;&gt;n6</title>
<path fill="none" stroke="black" d="M845.36,-243.81C845.2,-224.11 844.92,-191.58 844.73,-168.39"/>
<polygon fill="black" stroke="black" points="848.23,-168.13 844.65,-158.16 841.23,-168.19 848.23,-168.13"/>
</g>
<!-- n3&#45;&gt;n8 -->
<g id="edge8" class="edge">
<title>n3&#45;&gt;n8</title>
<path fill="none" stroke="black" d="M770.13,-244C667.17,-220.78 483.96,-179.45 383.75,-156.85"/>
<polygon fill="black" stroke="black" points="384.26,-153.38 373.73,-154.59 382.71,-160.2 384.26,-153.38"/>
</g>
<!-- n7 -->
<g id="node8" class="node">
<title>n7</title>
<polygon fill="lightcoral" stroke="black" points="1325.47,-158 1062.47,-140 1325.47,-122 1588.47,-140 1325.47,-158"/>
<text text-anchor="middle" x="1325.47" y="-136.3" font-family="Arial" font-size="14.00">Minimal features and simple label placement</text>
</g>
<!-- n4&#45;&gt;n7 -->
<g id="edge9" class="edge">
<title>n4&#45;&gt;n7</title>
<path fill="none" stroke="black" d="M1129.27,-243.81C1171.27,-221.84 1243.57,-183.91 1287.77,-160.78"/>
<polygon fill="black" stroke="black" points="1289.53,-163.81 1296.77,-156.08 1286.29,-157.61 1289.53,-163.81"/>
</g>
<!-- n5&#45;&gt;n7 -->
<g id="edge10" class="edge">
<title>n5&#45;&gt;n7</title>
<path fill="none" stroke="black" d="M1324.67,-243.81C1324.77,-224.11 1325.07,-191.58 1325.27,-168.39"/>
<polygon fill="black" stroke="black" points="1328.77,-168.19 1325.37,-158.16 1321.77,-168.13 1328.77,-168.19"/>
</g>
<!-- n10 -->
<g id="node9" class="node">
<title>n10</title>
<polygon fill="#f28e8e" stroke="black" points="520.5,-36 106.5,-36 106.5,0 520.5,0 520.5,-36"/>
<text text-anchor="middle" x="313.5" y="-14.3" font-family="Arial" font-size="14.00">Discuss resources like water and how they support animal survival</text>
</g>
<!-- n8&#45;&gt;n10 -->
<g id="edge11" class="edge">
<title>n8&#45;&gt;n10</title>
<path fill="none" stroke="black" d="M313.5,-121.81C313.5,-102.11 313.5,-69.58 313.5,-46.39"/>
<polygon fill="black" stroke="black" points="317,-46.16 313.5,-36.16 310,-46.16 317,-46.16"/>
</g>
<!-- n9 -->
<g id="node10" class="node">
<title>n9</title>
<polygon fill="#f28e8e" stroke="black" points="1545.47,-36 1105.47,-36 1105.47,0 1545.47,0 1545.47,-36"/>
<text text-anchor="middle" x="1325.47" y="-14.3" font-family="Arial" font-size="14.00">Provide more distinctive features of the fish and clarify label placement</text>
</g>
<!-- n7&#45;&gt;n9 -->
<g id="edge12" class="edge">
<title>n7&#45;&gt;n9</title>
<path fill="none" stroke="black" d="M1325.47,-121.81C1325.47,-102.11 1325.47,-69.58 1325.47,-46.39"/>
<polygon fill="black" stroke="black" points="1328.97,-46.16 1325.47,-36.16 1321.97,-46.16 1328.97,-46.16"/>
</g>
</g>
</svg>
