<?xml version="1.0" encoding="UTF-8" standalone="no"?>
<!DOCTYPE svg PUBLIC "-//W3C//DTD SVG 1.1//EN"
 "http://www.w3.org/Graphics/SVG/1.1/DTD/svg11.dtd">
<!-- Generated by graphviz version 2.43.0 (0)
 -->
<!-- Pages: 1 -->
<svg width="3074pt" height="410pt"
 viewBox="0.00 0.00 3074.00 410.00" xmlns="http://www.w3.org/2000/svg" xmlns:xlink="http://www.w3.org/1999/xlink">
<g id="graph0" class="graph" transform="scale(1 1) rotate(0) translate(4 406)">
<polygon fill="white" stroke="transparent" points="-4,4 -4,-406 3070,-406 3070,4 -4,4"/>
<!-- n1 -->
<g id="node1" class="node">
<title>n1</title>
<polygon fill="lightblue" stroke="black" points="2038.5,-384 1908.25,-402 1647.75,-402 1517.5,-384 1647.75,-366 1908.25,-366 2038.5,-384"/>
<text text-anchor="middle" x="1778" y="-380.3" font-family="Arial" font-size="14.00">Draw two habitats and the different living things in each</text>
</g>
<!-- n2 -->
<g id="node2" class="node">
<title>n2</title>
<polygon fill="#fffdd0" stroke="black" points="904,-280 572,-280 572,-244 904,-244 904,-280"/>
<text text-anchor="middle" x="738" y="-258.3" font-family="Arial" font-size="14.00">Forest with trees, grass, birds, a squirrel, and insects</text>
</g>
<!-- n1&#45;&gt;n2 -->
<g id="edge1" class="edge">
<title>n1&#45;&gt;n2</title>
<path fill="none" stroke="black" d="M1639.9,-367.06C1447.1,-344.82 1098.3,-304.58 895.64,-281.19"/>
<polygon fill="black" stroke="black" points="895.84,-277.69 885.5,-280.02 895.03,-284.64 895.84,-277.69"/>
</g>
<!-- n3 -->
<g id="node3" class="node">
<title>n3</title>
<polygon fill="#fffdd0" stroke="black" points="1897.5,-280 1658.5,-280 1658.5,-244 1897.5,-244 1897.5,-280"/>
<text text-anchor="middle" x="1778" y="-258.3" font-family="Arial" font-size="14.00">Pond with water lilies, fish, and a frog</text>
</g>
<!-- n1&#45;&gt;n3 -->
<g id="edge2" class="edge">
<title>n1&#45;&gt;n3</title>
<path fill="none" stroke="black" d="M1778,-365.81C1778,-346.11 1778,-313.58 1778,-290.39"/>
<polygon fill="black" stroke="black" points="1781.5,-290.16 1778,-280.16 1774.5,-290.16 1781.5,-290.16"/>
</g>
<!-- n4 -->
<g id="node4" class="node">
<title>n4</title>
<polygon fill="#fffdd0" stroke="black" points="2608.5,-280 2399.5,-280 2399.5,-244 2608.5,-244 2608.5,-280"/>
<text text-anchor="middle" x="2504" y="-258.3" font-family="Arial" font-size="14.00">Fish eating insect near the pond</text>
</g>
<!-- n1&#45;&gt;n4 -->
<g id="edge3" class="edge">
<title>n1&#45;&gt;n4</title>
<path fill="none" stroke="black" d="M1880.9,-366C2015.7,-343.71 2251.5,-304.74 2391.1,-281.66"/>
<polygon fill="black" stroke="black" points="2391.7,-285.11 2401,-280.03 2390.56,-278.2 2391.7,-285.11"/>
</g>
<!-- n5 -->
<g id="node5" class="node">
<title>n5</title>
<path fill="palegreen" stroke="black" d="M268,-158C268,-158 12,-158 12,-158 6,-158 0,-152 0,-146 0,-146 0,-134 0,-134 0,-128 6,-122 12,-122 12,-122 268,-122 268,-122 274,-122 280,-128 280,-134 280,-134 280,-146 280,-146 280,-152 274,-158 268,-158"/>
<text text-anchor="middle" x="140" y="-136.3" font-family="Arial" font-size="14.00">Identifies and draws land and water habitats</text>
</g>
<!-- n2&#45;&gt;n5 -->
<g id="edge4" class="edge">
<title>n2&#45;&gt;n5</title>
<path fill="none" stroke="black" d="M653.27,-244C542.76,-221.82 349.96,-183.13 234.72,-160.01"/>
<polygon fill="black" stroke="black" points="235.34,-156.57 224.85,-158.03 233.97,-163.43 235.34,-156.57"/>
</g>
<!-- n6 -->
<g id="node6" class="node">
<title>n6</title>
<path fill="palegreen" stroke="black" d="M682,-158C682,-158 350,-158 350,-158 344,-158 338,-152 338,-146 338,-146 338,-134 338,-134 338,-128 344,-122 350,-122 350,-122 682,-122 682,-122 688,-122 694,-128 694,-134 694,-134 694,-146 694,-146 694,-152 688,-158 682,-158"/>
<text text-anchor="middle" x="516" y="-136.3" font-family="Arial" font-size="14.00">Draws and labels diverse plants (trees, grasses) in forest</text>
</g>
<!-- n2&#45;&gt;n6 -->
<g id="edge5" class="edge">
<title>n2&#45;&gt;n6</title>
<path fill="none" stroke="black" d="M706.19,-243.81C666.79,-222.51 599.62,-186.2 556.55,-162.92"/>
<polygon fill="black" stroke="black" points="558.21,-159.84 547.75,-158.16 554.88,-166 558.21,-159.84"/>
</g>
<!-- n8 -->
<g id="node7" class="node">
<title>n8</title>
<path fill="palegreen" stroke="black" d="M1153.5,-158C1153.5,-158 764.5,-158 764.5,-158 758.5,-158 752.5,-152 752.5,-146 752.5,-146 752.5,-134 752.5,-134 752.5,-128 758.5,-122 764.5,-122 764.5,-122 1153.5,-122 1153.5,-122 1159.5,-122 1165.5,-128 1165.5,-134 1165.5,-134 1165.5,-146 1165.5,-146 1165.5,-152 1159.5,-158 1153.5,-158"/>
<text text-anchor="middle" x="959" y="-136.3" font-family="Arial" font-size="14.00">Draws and labels diverse animals (birds, squirrel, insects) in forest</text>
</g>
<!-- n2&#45;&gt;n8 -->
<g id="edge6" class="edge">
<title>n2&#45;&gt;n8</title>
<path fill="none" stroke="black" d="M769.66,-243.81C808.8,-222.55 875.48,-186.35 918.36,-163.07"/>
<polygon fill="black" stroke="black" points="920.28,-166.01 927.39,-158.16 916.93,-159.86 920.28,-166.01"/>
</g>
<!-- n7 -->
<g id="node8" class="node">
<title>n7</title>
<path fill="palegreen" stroke="black" d="M1542.5,-158C1542.5,-158 1235.5,-158 1235.5,-158 1229.5,-158 1223.5,-152 1223.5,-146 1223.5,-146 1223.5,-134 1223.5,-134 1223.5,-128 1229.5,-122 1235.5,-122 1235.5,-122 1542.5,-122 1542.5,-122 1548.5,-122 1554.5,-128 1554.5,-134 1554.5,-134 1554.5,-146 1554.5,-146 1554.5,-152 1548.5,-158 1542.5,-158"/>
<text text-anchor="middle" x="1389" y="-136.3" font-family="Arial" font-size="14.00">Draws and labels diverse plants (water lilies) in pond</text>
</g>
<!-- n3&#45;&gt;n7 -->
<g id="edge7" class="edge">
<title>n3&#45;&gt;n7</title>
<path fill="none" stroke="black" d="M1722.7,-243.93C1651.8,-222.07 1529.2,-184.25 1454,-161.04"/>
<polygon fill="black" stroke="black" points="1454.69,-157.59 1444.1,-158.01 1452.64,-164.28 1454.69,-157.59"/>
</g>
<!-- n9 -->
<g id="node9" class="node">
<title>n9</title>
<path fill="palegreen" stroke="black" d="M1931.5,-158C1931.5,-158 1624.5,-158 1624.5,-158 1618.5,-158 1612.5,-152 1612.5,-146 1612.5,-146 1612.5,-134 1612.5,-134 1612.5,-128 1618.5,-122 1624.5,-122 1624.5,-122 1931.5,-122 1931.5,-122 1937.5,-122 1943.5,-128 1943.5,-134 1943.5,-134 1943.5,-146 1943.5,-146 1943.5,-152 1937.5,-158 1931.5,-158"/>
<text text-anchor="middle" x="1778" y="-136.3" font-family="Arial" font-size="14.00">Draws and labels diverse animals (fish, frog) in pond</text>
</g>
<!-- n3&#45;&gt;n9 -->
<g id="edge8" class="edge">
<title>n3&#45;&gt;n9</title>
<path fill="none" stroke="black" d="M1778,-243.81C1778,-224.11 1778,-191.58 1778,-168.39"/>
<polygon fill="black" stroke="black" points="1781.5,-168.16 1778,-158.16 1774.5,-168.16 1781.5,-168.16"/>
</g>
<!-- n11 -->
<g id="node10" class="node">
<title>n11</title>
<polygon fill="lightcoral" stroke="black" points="2387,-158 2001.75,-140 2387,-122 2772.25,-140 2387,-158"/>
<text text-anchor="middle" x="2387" y="-136.3" font-family="Arial" font-size="14.00">Shows patterns of diversity (more trees in forest, more fish in pond)</text>
</g>
<!-- n3&#45;&gt;n11 -->
<g id="edge9" class="edge">
<title>n3&#45;&gt;n11</title>
<path fill="none" stroke="black" d="M1864.3,-244C1982.3,-220.74 2192.4,-179.34 2307,-156.76"/>
<polygon fill="black" stroke="black" points="2308.06,-160.12 2317.2,-154.76 2306.71,-153.25 2308.06,-160.12"/>
</g>
<!-- n10 -->
<g id="node11" class="node">
<title>n10</title>
<path fill="palegreen" stroke="black" d="M3054,-158C3054,-158 2842,-158 2842,-158 2836,-158 2830,-152 2830,-146 2830,-146 2830,-134 2830,-134 2830,-128 2836,-122 2842,-122 2842,-122 3054,-122 3054,-122 3060,-122 3066,-128 3066,-134 3066,-134 3066,-146 3066,-146 3066,-152 3060,-158 3054,-158"/>
<text text-anchor="middle" x="2948" y="-136.3" font-family="Arial" font-size="14.00">Uses arrows to indicate relationships</text>
</g>
<!-- n4&#45;&gt;n10 -->
<g id="edge10" class="edge">
<title>n4&#45;&gt;n10</title>
<path fill="none" stroke="black" d="M2567.1,-243.93C2648.5,-221.94 2789.7,-183.78 2875.4,-160.62"/>
<polygon fill="black" stroke="black" points="2876.35,-163.99 2885.1,-158.01 2874.53,-157.23 2876.35,-163.99"/>
</g>
<!-- n12 -->
<g id="node12" class="node">
<title>n12</title>
<polygon fill="#f28e8e" stroke="black" points="2551,-36 2223,-36 2223,0 2551,0 2551,-36"/>
<text text-anchor="middle" x="2387" y="-14.3" font-family="Arial" font-size="14.00">Label all elements and compare diversity accurately</text>
</g>
<!-- n11&#45;&gt;n12 -->
<g id="edge11" class="edge">
<title>n11&#45;&gt;n12</title>
<path fill="none" stroke="black" d="M2387,-121.81C2387,-102.11 2387,-69.58 2387,-46.39"/>
<polygon fill="black" stroke="black" points="2390.5,-46.16 2387,-36.16 2383.5,-46.16 2390.5,-46.16"/>
</g>
</g>
</svg>
