<?xml version="1.0" encoding="UTF-8" standalone="no"?>
<!DOCTYPE svg PUBLIC "-//W3C//DTD SVG 1.1//EN"
 "http://www.w3.org/Graphics/SVG/1.1/DTD/svg11.dtd">
<!-- Generated by graphviz version 2.43.0 (0)
 -->
<!-- Pages: 1 -->
<svg width="1366pt" height="410pt"
 viewBox="0.00 0.00 1365.50 410.00" xmlns="http://www.w3.org/2000/svg" xmlns:xlink="http://www.w3.org/1999/xlink">
<g id="graph0" class="graph" transform="scale(1 1) rotate(0) translate(4 406)">
<polygon fill="white" stroke="transparent" points="-4,4 -4,-406 1361.5,-406 1361.5,4 -4,4"/>
<!-- n1 -->
<g id="node1" class="node">
<title>n1</title>
<polygon fill="lightblue" stroke="black" points="998.5,-384 907.25,-402 724.75,-402 633.5,-384 724.75,-366 907.25,-366 998.5,-384"/>
<text text-anchor="middle" x="816" y="-380.3" font-family="Arial" font-size="14.00">Draw a fish in their habitat with labels.</text>
</g>
<!-- n2 -->
<g id="node2" class="node">
<title>n2</title>
<polygon fill="#fffdd0" stroke="black" points="779.5,-280 618.5,-280 618.5,-244 779.5,-244 779.5,-280"/>
<text text-anchor="middle" x="699" y="-258.3" font-family="Arial" font-size="14.00">Simple drawing of a fish</text>
</g>
<!-- n1&#45;&gt;n2 -->
<g id="edge1" class="edge">
<title>n1&#45;&gt;n2</title>
<path fill="none" stroke="black" d="M799.24,-365.81C779.26,-345.31 745.72,-310.91 722.99,-287.6"/>
<polygon fill="black" stroke="black" points="725.22,-284.87 715.73,-280.16 720.21,-289.76 725.22,-284.87"/>
</g>
<!-- n3 -->
<g id="node3" class="node">
<title>n3</title>
<polygon fill="#fffdd0" stroke="black" points="1098,-280 908,-280 908,-244 1098,-244 1098,-280"/>
<text text-anchor="middle" x="1003" y="-258.3" font-family="Arial" font-size="14.00">Wavy lines labeled as &#39;water&#39;</text>
</g>
<!-- n1&#45;&gt;n3 -->
<g id="edge2" class="edge">
<title>n1&#45;&gt;n3</title>
<path fill="none" stroke="black" d="M842.79,-365.81C875.57,-344.78 931.15,-309.11 967.47,-285.8"/>
<polygon fill="black" stroke="black" points="969.73,-288.51 976.26,-280.16 965.95,-282.61 969.73,-288.51"/>
</g>
<!-- n4 -->
<g id="node4" class="node">
<title>n4</title>
<path fill="palegreen" stroke="black" d="M1084,-158C1084,-158 922,-158 922,-158 916,-158 910,-152 910,-146 910,-146 910,-134 910,-134 910,-128 916,-122 922,-122 922,-122 1084,-122 1084,-122 1090,-122 1096,-128 1096,-134 1096,-134 1096,-146 1096,-146 1096,-152 1090,-158 1084,-158"/>
<text text-anchor="middle" x="1003" y="-136.3" font-family="Arial" font-size="14.00">Fish shape and water drawn</text>
</g>
<!-- n2&#45;&gt;n4 -->
<g id="edge3" class="edge">
<title>n2&#45;&gt;n4</title>
<path fill="none" stroke="black" d="M742.23,-243.93C797.05,-222.3 891.49,-185.02 950.42,-161.76"/>
<polygon fill="black" stroke="black" points="951.9,-164.94 959.92,-158.01 949.33,-158.43 951.9,-164.94"/>
</g>
<!-- n5 -->
<g id="node5" class="node">
<title>n5</title>
<polygon fill="lightcoral" stroke="black" points="173,-158 0,-140 173,-122 346,-140 173,-158"/>
<text text-anchor="middle" x="173" y="-136.3" font-family="Arial" font-size="14.00">Fish placed above water line</text>
</g>
<!-- n2&#45;&gt;n5 -->
<g id="edge4" class="edge">
<title>n2&#45;&gt;n5</title>
<path fill="none" stroke="black" d="M624.48,-244C519.78,-220.11 331.12,-177.07 234.17,-154.96"/>
<polygon fill="black" stroke="black" points="234.76,-151.5 224.23,-152.69 233.2,-158.33 234.76,-151.5"/>
</g>
<!-- n6 -->
<g id="node6" class="node">
<title>n6</title>
<polygon fill="lightcoral" stroke="black" points="628,-158 403.5,-140 628,-122 852.5,-140 628,-158"/>
<text text-anchor="middle" x="628" y="-136.3" font-family="Arial" font-size="14.00">No other habitat details (plants, rocks)</text>
</g>
<!-- n2&#45;&gt;n6 -->
<g id="edge5" class="edge">
<title>n2&#45;&gt;n6</title>
<path fill="none" stroke="black" d="M688.83,-243.81C676.78,-223.44 656.6,-189.34 642.82,-166.04"/>
<polygon fill="black" stroke="black" points="645.81,-164.21 637.7,-157.39 639.78,-167.78 645.81,-164.21"/>
</g>
<!-- n3&#45;&gt;n4 -->
<g id="edge6" class="edge">
<title>n3&#45;&gt;n4</title>
<path fill="none" stroke="black" d="M1003,-243.81C1003,-224.11 1003,-191.58 1003,-168.39"/>
<polygon fill="black" stroke="black" points="1006.5,-168.16 1003,-158.16 999.5,-168.16 1006.5,-168.16"/>
</g>
<!-- n7 -->
<g id="node7" class="node">
<title>n7</title>
<path fill="palegreen" stroke="black" d="M1345.5,-158C1345.5,-158 1166.5,-158 1166.5,-158 1160.5,-158 1154.5,-152 1154.5,-146 1154.5,-146 1154.5,-134 1154.5,-134 1154.5,-128 1160.5,-122 1166.5,-122 1166.5,-122 1345.5,-122 1345.5,-122 1351.5,-122 1357.5,-128 1357.5,-134 1357.5,-134 1357.5,-146 1357.5,-146 1357.5,-152 1351.5,-158 1345.5,-158"/>
<text text-anchor="middle" x="1256" y="-136.3" font-family="Arial" font-size="14.00">Fish live in water environments</text>
</g>
<!-- n3&#45;&gt;n7 -->
<g id="edge7" class="edge">
<title>n3&#45;&gt;n7</title>
<path fill="none" stroke="black" d="M1039,-243.93C1084.2,-222.48 1161.9,-185.63 1211,-162.33"/>
<polygon fill="black" stroke="black" points="1212.57,-165.46 1220.1,-158.01 1209.57,-159.14 1212.57,-165.46"/>
</g>
<!-- n8 -->
<g id="node8" class="node">
<title>n8</title>
<polygon fill="#f28e8e" stroke="black" points="325,-36 21,-36 21,0 325,0 325,-36"/>
<text text-anchor="middle" x="173" y="-14.3" font-family="Arial" font-size="14.00">Fish need water to swim/live; should be in water</text>
</g>
<!-- n5&#45;&gt;n8 -->
<g id="edge8" class="edge">
<title>n5&#45;&gt;n8</title>
<path fill="none" stroke="black" d="M173,-121.81C173,-102.11 173,-69.58 173,-46.39"/>
<polygon fill="black" stroke="black" points="176.5,-46.16 173,-36.16 169.5,-46.16 176.5,-46.16"/>
</g>
<!-- n9 -->
<g id="node9" class="node">
<title>n9</title>
<polygon fill="#f28e8e" stroke="black" points="771.5,-36 484.5,-36 484.5,0 771.5,0 771.5,-36"/>
<text text-anchor="middle" x="628" y="-14.3" font-family="Arial" font-size="14.00">Include labels for plants, rocks, other animals</text>
</g>
<!-- n6&#45;&gt;n9 -->
<g id="edge9" class="edge">
<title>n6&#45;&gt;n9</title>
<path fill="none" stroke="black" d="M628,-121.81C628,-102.11 628,-69.58 628,-46.39"/>
<polygon fill="black" stroke="black" points="631.5,-46.16 628,-36.16 624.5,-46.16 631.5,-46.16"/>
</g>
</g>
</svg>
