<?xml version="1.0" encoding="UTF-8" standalone="no"?>
<!DOCTYPE svg PUBLIC "-//W3C//DTD SVG 1.1//EN"
 "http://www.w3.org/Graphics/SVG/1.1/DTD/svg11.dtd">
<!-- Generated by graphviz version 2.43.0 (0)
 -->
<!-- Pages: 1 -->
<svg width="1005pt" height="532pt"
 viewBox="0.00 0.00 1004.50 532.00" xmlns="http://www.w3.org/2000/svg" xmlns:xlink="http://www.w3.org/1999/xlink">
<g id="graph0" class="graph" transform="scale(1 1) rotate(0) translate(4 528)">
<polygon fill="white" stroke="transparent" points="-4,4 -4,-528 1000.5,-528 1000.5,4 -4,4"/>
<!-- n1 -->
<g id="node1" class="node">
<title>n1</title>
<polygon fill="lightblue" stroke="black" points="604,-506 512,-524 328,-524 236,-506 328,-488 512,-488 604,-506"/>
<text text-anchor="middle" x="420" y="-502.3" font-family="Arial" font-size="14.00">Illustrate plants with and without water</text>
</g>
<!-- n2 -->
<g id="node2" class="node">
<title>n2</title>
<polygon fill="#fffdd0" stroke="black" points="156,-402 0,-402 0,-366 156,-366 156,-402"/>
<text text-anchor="middle" x="78" y="-380.3" font-family="Arial" font-size="14.00">Two plants side by side</text>
</g>
<!-- n1&#45;&gt;n2 -->
<g id="edge1" class="edge">
<title>n1&#45;&gt;n2</title>
<path fill="none" stroke="black" d="M371.36,-487.93C309.32,-466.16 202.13,-428.56 135.93,-405.33"/>
<polygon fill="black" stroke="black" points="137.06,-402.02 126.47,-402.01 134.75,-408.62 137.06,-402.02"/>
</g>
<!-- n3 -->
<g id="node3" class="node">
<title>n3</title>
<polygon fill="#fffdd0" stroke="black" points="385.5,-402 214.5,-402 214.5,-366 385.5,-366 385.5,-402"/>
<text text-anchor="middle" x="300" y="-380.3" font-family="Arial" font-size="14.00">Plant on the left is healthy</text>
</g>
<!-- n1&#45;&gt;n3 -->
<g id="edge2" class="edge">
<title>n1&#45;&gt;n3</title>
<path fill="none" stroke="black" d="M402.81,-487.81C382.22,-467.22 347.61,-432.61 324.3,-409.3"/>
<polygon fill="black" stroke="black" points="326.71,-406.76 317.16,-402.16 321.76,-411.71 326.71,-406.76"/>
</g>
<!-- n4 -->
<g id="node4" class="node">
<title>n4</title>
<polygon fill="#fffdd0" stroke="black" points="638,-402 444,-402 444,-366 638,-366 638,-402"/>
<text text-anchor="middle" x="541" y="-380.3" font-family="Arial" font-size="14.00">Plant on the right is unhealthy</text>
</g>
<!-- n1&#45;&gt;n4 -->
<g id="edge3" class="edge">
<title>n1&#45;&gt;n4</title>
<path fill="none" stroke="black" d="M437.34,-487.81C458.09,-467.22 492.99,-432.61 516.5,-409.3"/>
<polygon fill="black" stroke="black" points="519.06,-411.69 523.7,-402.16 514.13,-406.72 519.06,-411.69"/>
</g>
<!-- n5 -->
<g id="node5" class="node">
<title>n5</title>
<polygon fill="#fffdd0" stroke="black" points="940,-402 740,-402 740,-366 940,-366 940,-402"/>
<text text-anchor="middle" x="840" y="-380.3" font-family="Arial" font-size="14.00">Sunlight is visible above plants</text>
</g>
<!-- n1&#45;&gt;n5 -->
<g id="edge4" class="edge">
<title>n1&#45;&gt;n5</title>
<path fill="none" stroke="black" d="M479.73,-487.93C556.55,-465.99 689.72,-427.94 770.85,-404.76"/>
<polygon fill="black" stroke="black" points="771.83,-408.12 780.48,-402.01 769.9,-401.39 771.83,-408.12"/>
</g>
<!-- n6 -->
<g id="node6" class="node">
<title>n6</title>
<path fill="palegreen" stroke="black" d="M296,-280C296,-280 20,-280 20,-280 14,-280 8,-274 8,-268 8,-268 8,-256 8,-256 8,-250 14,-244 20,-244 20,-244 296,-244 296,-244 302,-244 308,-250 308,-256 308,-256 308,-268 308,-268 308,-274 302,-280 296,-280"/>
<text text-anchor="middle" x="158" y="-258.3" font-family="Arial" font-size="14.00">Includes green healthy leaves and upright stem</text>
</g>
<!-- n2&#45;&gt;n6 -->
<g id="edge5" class="edge">
<title>n2&#45;&gt;n6</title>
<path fill="none" stroke="black" d="M89.46,-365.81C102.95,-345.58 125.46,-311.81 140.99,-288.52"/>
<polygon fill="black" stroke="black" points="143.93,-290.42 146.56,-280.16 138.1,-286.54 143.93,-290.42"/>
</g>
<!-- n3&#45;&gt;n6 -->
<g id="edge6" class="edge">
<title>n3&#45;&gt;n6</title>
<path fill="none" stroke="black" d="M279.65,-365.81C255.09,-345.04 213.63,-310.01 186.04,-286.7"/>
<polygon fill="black" stroke="black" points="188.2,-283.95 178.31,-280.16 183.68,-289.29 188.2,-283.95"/>
</g>
<!-- n7 -->
<g id="node7" class="node">
<title>n7</title>
<path fill="palegreen" stroke="black" d="M657.5,-280C657.5,-280 378.5,-280 378.5,-280 372.5,-280 366.5,-274 366.5,-268 366.5,-268 366.5,-256 366.5,-256 366.5,-250 372.5,-244 378.5,-244 378.5,-244 657.5,-244 657.5,-244 663.5,-244 669.5,-250 669.5,-256 669.5,-256 669.5,-268 669.5,-268 669.5,-274 663.5,-280 657.5,-280"/>
<text text-anchor="middle" x="518" y="-258.3" font-family="Arial" font-size="14.00">Includes wilted and drooping leaves, weak stem</text>
</g>
<!-- n4&#45;&gt;n7 -->
<g id="edge7" class="edge">
<title>n4&#45;&gt;n7</title>
<path fill="none" stroke="black" d="M537.7,-365.81C533.91,-346.02 527.64,-313.29 523.19,-290.08"/>
<polygon fill="black" stroke="black" points="526.61,-289.32 521.29,-280.16 519.73,-290.64 526.61,-289.32"/>
</g>
<!-- n8 -->
<g id="node8" class="node">
<title>n8</title>
<path fill="palegreen" stroke="black" d="M984.5,-280C984.5,-280 739.5,-280 739.5,-280 733.5,-280 727.5,-274 727.5,-268 727.5,-268 727.5,-256 727.5,-256 727.5,-250 733.5,-244 739.5,-244 739.5,-244 984.5,-244 984.5,-244 990.5,-244 996.5,-250 996.5,-256 996.5,-256 996.5,-268 996.5,-268 996.5,-274 990.5,-280 984.5,-280"/>
<text text-anchor="middle" x="862" y="-258.3" font-family="Arial" font-size="14.00">Understands sunlight is needed for growth</text>
</g>
<!-- n5&#45;&gt;n8 -->
<g id="edge8" class="edge">
<title>n5&#45;&gt;n8</title>
<path fill="none" stroke="black" d="M843.15,-365.81C846.78,-346.02 852.78,-313.29 857.04,-290.08"/>
<polygon fill="black" stroke="black" points="860.5,-290.63 858.85,-280.16 853.61,-289.37 860.5,-290.63"/>
</g>
<!-- n9 -->
<g id="node9" class="node">
<title>n9</title>
<polygon fill="lightcoral" stroke="black" points="338,-158 122.83,-140 338,-122 553.17,-140 338,-158"/>
<text text-anchor="middle" x="338" y="-136.3" font-family="Arial" font-size="14.00">Labels might be missing or incorrect</text>
</g>
<!-- n6&#45;&gt;n9 -->
<g id="edge9" class="edge">
<title>n6&#45;&gt;n9</title>
<path fill="none" stroke="black" d="M183.79,-243.81C216.23,-222.18 271.9,-185.07 306.73,-161.85"/>
<polygon fill="black" stroke="black" points="308.73,-164.72 315.11,-156.26 304.85,-158.9 308.73,-164.72"/>
</g>
<!-- n7&#45;&gt;n9 -->
<g id="edge10" class="edge">
<title>n7&#45;&gt;n9</title>
<path fill="none" stroke="black" d="M492.21,-243.81C459.77,-222.18 404.1,-185.07 369.27,-161.85"/>
<polygon fill="black" stroke="black" points="371.15,-158.9 360.89,-156.26 367.27,-164.72 371.15,-158.9"/>
</g>
<!-- n10 -->
<g id="node10" class="node">
<title>n10</title>
<polygon fill="#f28e8e" stroke="black" points="458.5,-36 217.5,-36 217.5,0 458.5,0 458.5,-36"/>
<text text-anchor="middle" x="338" y="-14.3" font-family="Arial" font-size="14.00">Clarify labels for better understanding</text>
</g>
<!-- n9&#45;&gt;n10 -->
<g id="edge11" class="edge">
<title>n9&#45;&gt;n10</title>
<path fill="none" stroke="black" d="M338,-121.81C338,-102.11 338,-69.58 338,-46.39"/>
<polygon fill="black" stroke="black" points="341.5,-46.16 338,-36.16 334.5,-46.16 341.5,-46.16"/>
</g>
</g>
</svg>
