<?xml version="1.0" encoding="UTF-8" standalone="no"?>
<!DOCTYPE svg PUBLIC "-//W3C//DTD SVG 1.1//EN"
 "http://www.w3.org/Graphics/SVG/1.1/DTD/svg11.dtd">
<!-- Generated by graphviz version 2.43.0 (0)
 -->
<!-- Pages: 1 -->
<svg width="1556pt" height="410pt"
 viewBox="0.00 0.00 1555.50 410.00" xmlns="http://www.w3.org/2000/svg" xmlns:xlink="http://www.w3.org/1999/xlink">
<g id="graph0" class="graph" transform="scale(1 1) rotate(0) translate(4 406)">
<polygon fill="white" stroke="transparent" points="-4,4 -4,-406 1551.5,-406 1551.5,4 -4,4"/>
<!-- n1 -->
<g id="node1" class="node">
<title>n1</title>
<polygon fill="lightblue" stroke="black" points="906,-384 792.25,-402 564.75,-402 451,-384 564.75,-366 792.25,-366 906,-384"/>
<text text-anchor="middle" x="678.5" y="-380.3" font-family="Arial" font-size="14.00">Illustrate plants with and without water and light.</text>
</g>
<!-- n2 -->
<g id="node2" class="node">
<title>n2</title>
<polygon fill="#fffdd0" stroke="black" points="365,-280 0,-280 0,-244 365,-244 365,-280"/>
<text text-anchor="middle" x="182.5" y="-258.3" font-family="Arial" font-size="14.00">Three simple plants drawn with brown stem and green top</text>
</g>
<!-- n1&#45;&gt;n2 -->
<g id="edge1" class="edge">
<title>n1&#45;&gt;n2</title>
<path fill="none" stroke="black" d="M608.22,-366C517.11,-343.95 358.57,-305.6 262.8,-282.43"/>
<polygon fill="black" stroke="black" points="263.42,-278.98 252.88,-280.03 261.78,-285.78 263.42,-278.98"/>
</g>
<!-- n3 -->
<g id="node3" class="node">
<title>n3</title>
<polygon fill="#fffdd0" stroke="black" points="605.5,-280 423.5,-280 423.5,-244 605.5,-244 605.5,-280"/>
<text text-anchor="middle" x="514.5" y="-258.3" font-family="Arial" font-size="14.00">Yellow sun in the top corner</text>
</g>
<!-- n1&#45;&gt;n3 -->
<g id="edge2" class="edge">
<title>n1&#45;&gt;n3</title>
<path fill="none" stroke="black" d="M655,-365.81C626.38,-344.87 577.93,-309.41 546.07,-286.1"/>
<polygon fill="black" stroke="black" points="548.09,-283.24 537.95,-280.16 543.95,-288.89 548.09,-283.24"/>
</g>
<!-- n4 -->
<g id="node4" class="node">
<title>n4</title>
<polygon fill="#fffdd0" stroke="black" points="1021,-280 664,-280 664,-244 1021,-244 1021,-280"/>
<text text-anchor="middle" x="842.5" y="-258.3" font-family="Arial" font-size="14.00">Scattered blue raindrop shapes around the leftmost plant</text>
</g>
<!-- n1&#45;&gt;n4 -->
<g id="edge3" class="edge">
<title>n1&#45;&gt;n4</title>
<path fill="none" stroke="black" d="M702,-365.81C730.62,-344.87 779.07,-309.41 810.93,-286.1"/>
<polygon fill="black" stroke="black" points="813.05,-288.89 819.05,-280.16 808.91,-283.24 813.05,-288.89"/>
</g>
<!-- n5 -->
<g id="node5" class="node">
<title>n5</title>
<polygon fill="#fffdd0" stroke="black" points="1306,-280 1079,-280 1079,-244 1306,-244 1306,-280"/>
<text text-anchor="middle" x="1192.5" y="-258.3" font-family="Arial" font-size="14.00">All plants look healthy and identical</text>
</g>
<!-- n1&#45;&gt;n5 -->
<g id="edge4" class="edge">
<title>n1&#45;&gt;n5</title>
<path fill="none" stroke="black" d="M751.33,-366C845.84,-343.93 1010.4,-305.52 1109.6,-282.36"/>
<polygon fill="black" stroke="black" points="1110.66,-285.71 1119.6,-280.03 1109.07,-278.89 1110.66,-285.71"/>
</g>
<!-- n6 -->
<g id="node6" class="node">
<title>n6</title>
<path fill="palegreen" stroke="black" d="M353,-158C353,-158 12,-158 12,-158 6,-158 0,-152 0,-146 0,-146 0,-134 0,-134 0,-128 6,-122 12,-122 12,-122 353,-122 353,-122 359,-122 365,-128 365,-134 365,-134 365,-146 365,-146 365,-152 359,-158 353,-158"/>
<text text-anchor="middle" x="182.5" y="-136.3" font-family="Arial" font-size="14.00">Understands plants have water and light elements present</text>
</g>
<!-- n2&#45;&gt;n6 -->
<g id="edge5" class="edge">
<title>n2&#45;&gt;n6</title>
<path fill="none" stroke="black" d="M182.5,-243.81C182.5,-224.11 182.5,-191.58 182.5,-168.39"/>
<polygon fill="black" stroke="black" points="186,-168.16 182.5,-158.16 179,-168.16 186,-168.16"/>
</g>
<!-- n7 -->
<g id="node7" class="node">
<title>n7</title>
<polygon fill="lightcoral" stroke="black" points="1192.5,-158 837.5,-140 1192.5,-122 1547.5,-140 1192.5,-158"/>
<text text-anchor="middle" x="1192.5" y="-136.3" font-family="Arial" font-size="14.00">Misunderstanding of plants&#39; health with and without resources</text>
</g>
<!-- n5&#45;&gt;n7 -->
<g id="edge6" class="edge">
<title>n5&#45;&gt;n7</title>
<path fill="none" stroke="black" d="M1192.5,-243.81C1192.5,-224.11 1192.5,-191.58 1192.5,-168.39"/>
<polygon fill="black" stroke="black" points="1196,-168.16 1192.5,-158.16 1189,-168.16 1196,-168.16"/>
</g>
<!-- n8 -->
<g id="node8" class="node">
<title>n8</title>
<polygon fill="#f28e8e" stroke="black" points="1396.5,-36 988.5,-36 988.5,0 1396.5,0 1396.5,-36"/>
<text text-anchor="middle" x="1192.5" y="-14.3" font-family="Arial" font-size="14.00">Correction: Show how plants appear unhealthy without water/light</text>
</g>
<!-- n7&#45;&gt;n8 -->
<g id="edge7" class="edge">
<title>n7&#45;&gt;n8</title>
<path fill="none" stroke="black" d="M1192.5,-121.81C1192.5,-102.11 1192.5,-69.58 1192.5,-46.39"/>
<polygon fill="black" stroke="black" points="1196,-46.16 1192.5,-36.16 1189,-46.16 1196,-46.16"/>
</g>
</g>
</svg>
