<?xml version="1.0" encoding="UTF-8" standalone="no"?>
<!DOCTYPE svg PUBLIC "-//W3C//DTD SVG 1.1//EN"
 "http://www.w3.org/Graphics/SVG/1.1/DTD/svg11.dtd">
<!-- Generated by graphviz version 2.43.0 (0)
 -->
<!-- Pages: 1 -->
<svg width="1514pt" height="410pt"
 viewBox="0.00 0.00 1514.00 410.00" xmlns="http://www.w3.org/2000/svg" xmlns:xlink="http://www.w3.org/1999/xlink">
<g id="graph0" class="graph" transform="scale(1 1) rotate(0) translate(4 406)">
<polygon fill="white" stroke="transparent" points="-4,4 -4,-406 1510,-406 1510,4 -4,4"/>
<!-- n1 -->
<g id="node1" class="node">
<title>n1</title>
<polygon fill="lightblue" stroke="black" points="752.5,-384 640.25,-402 415.75,-402 303.5,-384 415.75,-366 640.25,-366 752.5,-384"/>
<text text-anchor="middle" x="528" y="-380.3" font-family="Arial" font-size="14.00">Illustrate plants with and without water and light</text>
</g>
<!-- n2 -->
<g id="node2" class="node">
<title>n2</title>
<polygon fill="#fffdd0" stroke="black" points="287.5,-280 44.5,-280 44.5,-244 287.5,-244 287.5,-280"/>
<text text-anchor="middle" x="166" y="-258.3" font-family="Arial" font-size="14.00">Two simple plant outlines side by side</text>
</g>
<!-- n1&#45;&gt;n2 -->
<g id="edge1" class="edge">
<title>n1&#45;&gt;n2</title>
<path fill="none" stroke="black" d="M476.52,-365.93C410.71,-344.12 296.93,-306.4 226.89,-283.18"/>
<polygon fill="black" stroke="black" points="227.89,-279.83 217.3,-280.01 225.7,-286.47 227.89,-279.83"/>
</g>
<!-- n3 -->
<g id="node3" class="node">
<title>n3</title>
<polygon fill="#fffdd0" stroke="black" points="1032.5,-280 729.5,-280 729.5,-244 1032.5,-244 1032.5,-280"/>
<text text-anchor="middle" x="881" y="-258.3" font-family="Arial" font-size="14.00">Plants have green leaves with random scribbles</text>
</g>
<!-- n1&#45;&gt;n3 -->
<g id="edge2" class="edge">
<title>n1&#45;&gt;n3</title>
<path fill="none" stroke="black" d="M578.2,-365.93C642.24,-344.16 752.87,-306.56 821.21,-283.33"/>
<polygon fill="black" stroke="black" points="822.63,-286.54 830.97,-280.01 820.38,-279.92 822.63,-286.54"/>
</g>
<!-- n4 -->
<g id="node4" class="node">
<title>n4</title>
<polygon fill="#fffdd0" stroke="black" points="671,-280 385,-280 385,-244 671,-244 671,-280"/>
<text text-anchor="middle" x="528" y="-258.3" font-family="Arial" font-size="14.00">Plants look identical with no health difference</text>
</g>
<!-- n1&#45;&gt;n4 -->
<g id="edge3" class="edge">
<title>n1&#45;&gt;n4</title>
<path fill="none" stroke="black" d="M528,-365.81C528,-346.11 528,-313.58 528,-290.39"/>
<polygon fill="black" stroke="black" points="531.5,-290.16 528,-280.16 524.5,-290.16 531.5,-290.16"/>
</g>
<!-- n5 -->
<g id="node5" class="node">
<title>n5</title>
<path fill="palegreen" stroke="black" d="M166,-158C166,-158 12,-158 12,-158 6,-158 0,-152 0,-146 0,-146 0,-134 0,-134 0,-128 6,-122 12,-122 12,-122 166,-122 166,-122 172,-122 178,-128 178,-134 178,-134 178,-146 178,-146 178,-152 172,-158 166,-158"/>
<text text-anchor="middle" x="89" y="-136.3" font-family="Arial" font-size="14.00">Belief that plants are green</text>
</g>
<!-- n2&#45;&gt;n5 -->
<g id="edge4" class="edge">
<title>n2&#45;&gt;n5</title>
<path fill="none" stroke="black" d="M154.97,-243.81C142.05,-223.67 120.51,-190.1 105.57,-166.83"/>
<polygon fill="black" stroke="black" points="108.35,-164.69 100.01,-158.16 102.46,-168.47 108.35,-164.69"/>
</g>
<!-- n6 -->
<g id="node6" class="node">
<title>n6</title>
<polygon fill="lightcoral" stroke="black" points="567,-158 236,-140 567,-122 898,-140 567,-158"/>
<text text-anchor="middle" x="567" y="-136.3" font-family="Arial" font-size="14.00">Struggle to depict differences due to watering and lighting</text>
</g>
<!-- n3&#45;&gt;n6 -->
<g id="edge5" class="edge">
<title>n3&#45;&gt;n6</title>
<path fill="none" stroke="black" d="M836.34,-243.93C777.96,-221.62 676.06,-182.68 615.73,-159.62"/>
<polygon fill="black" stroke="black" points="616.65,-156.23 606.06,-155.93 614.16,-162.77 616.65,-156.23"/>
</g>
<!-- n7 -->
<g id="node7" class="node">
<title>n7</title>
<polygon fill="lightcoral" stroke="black" points="1231,-158 956,-140 1231,-122 1506,-140 1231,-158"/>
<text text-anchor="middle" x="1231" y="-136.3" font-family="Arial" font-size="14.00">Attempts differentiation using random scribbles</text>
</g>
<!-- n3&#45;&gt;n7 -->
<g id="edge6" class="edge">
<title>n3&#45;&gt;n7</title>
<path fill="none" stroke="black" d="M930.77,-243.93C996.88,-221.27 1113.1,-181.44 1179.8,-158.54"/>
<polygon fill="black" stroke="black" points="1180.97,-161.84 1189.3,-155.29 1178.71,-155.22 1180.97,-161.84"/>
</g>
<!-- n4&#45;&gt;n6 -->
<g id="edge7" class="edge">
<title>n4&#45;&gt;n6</title>
<path fill="none" stroke="black" d="M533.59,-243.81C540.08,-223.82 550.87,-190.62 558.43,-167.37"/>
<polygon fill="black" stroke="black" points="561.79,-168.36 561.55,-157.77 555.13,-166.2 561.79,-168.36"/>
</g>
<!-- n8 -->
<g id="node8" class="node">
<title>n8</title>
<polygon fill="#f28e8e" stroke="black" points="819,-36 315,-36 315,0 819,0 819,-36"/>
<text text-anchor="middle" x="567" y="-14.3" font-family="Arial" font-size="14.00">Explain why plants need water and light, using cues like wilted leaves or paleness</text>
</g>
<!-- n6&#45;&gt;n8 -->
<g id="edge8" class="edge">
<title>n6&#45;&gt;n8</title>
<path fill="none" stroke="black" d="M567,-121.81C567,-102.11 567,-69.58 567,-46.39"/>
<polygon fill="black" stroke="black" points="570.5,-46.16 567,-36.16 563.5,-46.16 570.5,-46.16"/>
</g>
<!-- n9 -->
<g id="node9" class="node">
<title>n9</title>
<polygon fill="#f28e8e" stroke="black" points="1397,-36 1065,-36 1065,0 1397,0 1397,-36"/>
<text text-anchor="middle" x="1231" y="-14.3" font-family="Arial" font-size="14.00">Draw differences in plant health through visible signs</text>
</g>
<!-- n7&#45;&gt;n9 -->
<g id="edge9" class="edge">
<title>n7&#45;&gt;n9</title>
<path fill="none" stroke="black" d="M1231,-121.81C1231,-102.11 1231,-69.58 1231,-46.39"/>
<polygon fill="black" stroke="black" points="1234.5,-46.16 1231,-36.16 1227.5,-46.16 1234.5,-46.16"/>
</g>
</g>
</svg>
