<?xml version="1.0" encoding="UTF-8" standalone="no"?>
<!DOCTYPE svg PUBLIC "-//W3C//DTD SVG 1.1//EN"
 "http://www.w3.org/Graphics/SVG/1.1/DTD/svg11.dtd">
<!-- Generated by graphviz version 2.43.0 (0)
 -->
<!-- Pages: 1 -->
<svg width="2265pt" height="288pt"
 viewBox="0.00 0.00 2265.14 288.00" xmlns="http://www.w3.org/2000/svg" xmlns:xlink="http://www.w3.org/1999/xlink">
<g id="graph0" class="graph" transform="scale(1 1) rotate(0) translate(4 284)">
<polygon fill="white" stroke="transparent" points="-4,4 -4,-284 2261.14,-284 2261.14,4 -4,4"/>
<!-- n1 -->
<g id="node1" class="node">
<title>n1</title>
<polygon fill="lightblue" stroke="black" points="1189,-262 1097.75,-280 915.25,-280 824,-262 915.25,-244 1097.75,-244 1189,-262"/>
<text text-anchor="middle" x="1006.5" y="-258.3" font-family="Arial" font-size="14.00">Draw a fish in their habitat with labels.</text>
</g>
<!-- n2 -->
<g id="node2" class="node">
<title>n2</title>
<polygon fill="#fffdd0" stroke="black" points="265,-158 98,-158 98,-122 265,-122 265,-158"/>
<text text-anchor="middle" x="181.5" y="-136.3" font-family="Arial" font-size="14.00">Underwater ocean scene</text>
</g>
<!-- n1&#45;&gt;n2 -->
<g id="edge1" class="edge">
<title>n1&#45;&gt;n2</title>
<path fill="none" stroke="black" d="M903.45,-246.35C764.78,-226.58 510.47,-190.14 293.5,-158 287.64,-157.13 281.61,-156.23 275.53,-155.32"/>
<polygon fill="black" stroke="black" points="275.69,-151.8 265.28,-153.78 274.65,-158.73 275.69,-151.8"/>
</g>
<!-- n3 -->
<g id="node3" class="node">
<title>n3</title>
<polygon fill="#fffdd0" stroke="black" points="794.5,-158 576.5,-158 576.5,-122 794.5,-122 794.5,-158"/>
<text text-anchor="middle" x="685.5" y="-136.3" font-family="Arial" font-size="14.00">Accurately drawn and labeled fish</text>
</g>
<!-- n1&#45;&gt;n3 -->
<g id="edge2" class="edge">
<title>n1&#45;&gt;n3</title>
<path fill="none" stroke="black" d="M960.85,-243.93C902.85,-222.25 802.84,-184.86 740.64,-161.61"/>
<polygon fill="black" stroke="black" points="741.58,-158.23 730.99,-158.01 739.14,-164.78 741.58,-158.23"/>
</g>
<!-- n4 -->
<g id="node4" class="node">
<title>n4</title>
<polygon fill="#fffdd0" stroke="black" points="1160.5,-158 852.5,-158 852.5,-122 1160.5,-122 1160.5,-158"/>
<text text-anchor="middle" x="1006.5" y="-136.3" font-family="Arial" font-size="14.00">Underwater plants labeled as seaweed and coral</text>
</g>
<!-- n1&#45;&gt;n4 -->
<g id="edge3" class="edge">
<title>n1&#45;&gt;n4</title>
<path fill="none" stroke="black" d="M1006.5,-243.81C1006.5,-224.11 1006.5,-191.58 1006.5,-168.39"/>
<polygon fill="black" stroke="black" points="1010,-168.16 1006.5,-158.16 1003,-168.16 1010,-168.16"/>
</g>
<!-- n5 -->
<g id="node5" class="node">
<title>n5</title>
<polygon fill="#fffdd0" stroke="black" points="518,-158 323,-158 323,-122 518,-122 518,-158"/>
<text text-anchor="middle" x="420.5" y="-136.3" font-family="Arial" font-size="14.00">Blue ocean water background</text>
</g>
<!-- n1&#45;&gt;n5 -->
<g id="edge4" class="edge">
<title>n1&#45;&gt;n5</title>
<path fill="none" stroke="black" d="M923.47,-244C815.28,-221.84 626.62,-183.21 513.66,-160.08"/>
<polygon fill="black" stroke="black" points="514.15,-156.61 503.65,-158.03 512.74,-163.47 514.15,-156.61"/>
</g>
<!-- n6 -->
<g id="node6" class="node">
<title>n6</title>
<polygon fill="#fffdd0" stroke="black" points="1434,-158 1219,-158 1219,-122 1434,-122 1434,-158"/>
<text text-anchor="middle" x="1326.5" y="-136.3" font-family="Arial" font-size="14.00">Small fish labeled as food source</text>
</g>
<!-- n1&#45;&gt;n6 -->
<g id="edge5" class="edge">
<title>n1&#45;&gt;n6</title>
<path fill="none" stroke="black" d="M1052,-243.93C1109.8,-222.25 1209.5,-184.86 1271.5,-161.61"/>
<polygon fill="black" stroke="black" points="1272.97,-164.8 1281.1,-158.01 1270.51,-158.24 1272.97,-164.8"/>
</g>
<!-- n7 -->
<g id="node7" class="node">
<title>n7</title>
<polygon fill="#fffdd0" stroke="black" points="1673,-158 1492,-158 1492,-122 1673,-122 1673,-158"/>
<text text-anchor="middle" x="1582.5" y="-136.3" font-family="Arial" font-size="14.00">Starfish and shrimp labeled</text>
</g>
<!-- n1&#45;&gt;n7 -->
<g id="edge6" class="edge">
<title>n1&#45;&gt;n7</title>
<path fill="none" stroke="black" d="M1088.1,-244C1194.5,-221.84 1379.9,-183.21 1490.9,-160.08"/>
<polygon fill="black" stroke="black" points="1491.72,-163.49 1500.8,-158.03 1490.3,-156.63 1491.72,-163.49"/>
</g>
<!-- n8 -->
<g id="node8" class="node">
<title>n8</title>
<polygon fill="#fffdd0" stroke="black" points="1852,-158 1731,-158 1731,-122 1852,-122 1852,-158"/>
<text text-anchor="middle" x="1791.5" y="-136.3" font-family="Arial" font-size="14.00">Bubbles near fish</text>
</g>
<!-- n1&#45;&gt;n8 -->
<g id="edge7" class="edge">
<title>n1&#45;&gt;n8</title>
<path fill="none" stroke="black" d="M1111.8,-246.72C1248.1,-227.92 1493,-193.13 1701.5,-158 1707.7,-156.96 1714.1,-155.84 1720.5,-154.68"/>
<polygon fill="black" stroke="black" points="1721.38,-158.08 1730.6,-152.85 1720.14,-151.19 1721.38,-158.08"/>
</g>
<!-- n9 -->
<g id="node9" class="node">
<title>n9</title>
<path fill="palegreen" stroke="black" d="M545.5,-36C545.5,-36 295.5,-36 295.5,-36 289.5,-36 283.5,-30 283.5,-24 283.5,-24 283.5,-12 283.5,-12 283.5,-6 289.5,0 295.5,0 295.5,0 545.5,0 545.5,0 551.5,0 557.5,-6 557.5,-12 557.5,-12 557.5,-24 557.5,-24 557.5,-30 551.5,-36 545.5,-36"/>
<text text-anchor="middle" x="420.5" y="-14.3" font-family="Arial" font-size="14.00">Understanding of fish in water environment</text>
</g>
<!-- n2&#45;&gt;n9 -->
<g id="edge8" class="edge">
<title>n2&#45;&gt;n9</title>
<path fill="none" stroke="black" d="M215.49,-121.93C258.05,-100.57 331,-63.94 377.43,-40.63"/>
<polygon fill="black" stroke="black" points="379.26,-43.62 386.63,-36.01 376.12,-37.37 379.26,-43.62"/>
</g>
<!-- n13 -->
<g id="node10" class="node">
<title>n13</title>
<path fill="palegreen" stroke="black" d="M213,-36C213,-36 12,-36 12,-36 6,-36 0,-30 0,-24 0,-24 0,-12 0,-12 0,-6 6,0 12,0 12,0 213,0 213,0 219,0 225,-6 225,-12 225,-12 225,-24 225,-24 225,-30 219,-36 213,-36"/>
<text text-anchor="middle" x="112.5" y="-14.3" font-family="Arial" font-size="14.00">Represents interconnected system</text>
</g>
<!-- n2&#45;&gt;n13 -->
<g id="edge9" class="edge">
<title>n2&#45;&gt;n13</title>
<path fill="none" stroke="black" d="M171.61,-121.81C160.03,-101.67 140.74,-68.1 127.35,-44.83"/>
<polygon fill="black" stroke="black" points="130.39,-43.09 122.37,-36.16 124.32,-46.58 130.39,-43.09"/>
</g>
<!-- n10 -->
<g id="node11" class="node">
<title>n10</title>
<path fill="palegreen" stroke="black" d="M962.5,-36C962.5,-36 768.5,-36 768.5,-36 762.5,-36 756.5,-30 756.5,-24 756.5,-24 756.5,-12 756.5,-12 756.5,-6 762.5,0 768.5,0 768.5,0 962.5,0 962.5,0 968.5,0 974.5,-6 974.5,-12 974.5,-12 974.5,-24 974.5,-24 974.5,-30 968.5,-36 962.5,-36"/>
<text text-anchor="middle" x="865.5" y="-14.3" font-family="Arial" font-size="14.00">Identifies fish habitat components</text>
</g>
<!-- n3&#45;&gt;n10 -->
<g id="edge10" class="edge">
<title>n3&#45;&gt;n10</title>
<path fill="none" stroke="black" d="M711.29,-121.81C742.83,-100.78 796.34,-65.11 831.3,-41.8"/>
<polygon fill="black" stroke="black" points="833.38,-44.62 839.76,-36.16 829.5,-38.8 833.38,-44.62"/>
</g>
<!-- n4&#45;&gt;n10 -->
<g id="edge11" class="edge">
<title>n4&#45;&gt;n10</title>
<path fill="none" stroke="black" d="M986.3,-121.81C961.9,-101.04 920.74,-66.01 893.35,-42.7"/>
<polygon fill="black" stroke="black" points="895.55,-39.97 885.66,-36.16 891.01,-45.3 895.55,-39.97"/>
</g>
<!-- n5&#45;&gt;n9 -->
<g id="edge12" class="edge">
<title>n5&#45;&gt;n9</title>
<path fill="none" stroke="black" d="M420.5,-121.81C420.5,-102.11 420.5,-69.58 420.5,-46.39"/>
<polygon fill="black" stroke="black" points="424,-46.16 420.5,-36.16 417,-46.16 424,-46.16"/>
</g>
<!-- n11 -->
<g id="node12" class="node">
<title>n11</title>
<path fill="palegreen" stroke="black" d="M1537,-36C1537,-36 1304,-36 1304,-36 1298,-36 1292,-30 1292,-24 1292,-24 1292,-12 1292,-12 1292,-6 1298,0 1304,0 1304,0 1537,0 1537,0 1543,0 1549,-6 1549,-12 1549,-12 1549,-24 1549,-24 1549,-30 1543,-36 1537,-36"/>
<text text-anchor="middle" x="1420.5" y="-14.3" font-family="Arial" font-size="14.00">Demonstrates interactions in ecosystem</text>
</g>
<!-- n6&#45;&gt;n11 -->
<g id="edge13" class="edge">
<title>n6&#45;&gt;n11</title>
<path fill="none" stroke="black" d="M1340,-121.81C1355.9,-101.49 1382.5,-67.51 1400.7,-44.22"/>
<polygon fill="black" stroke="black" points="1403.62,-46.17 1407.1,-36.16 1398.14,-41.81 1403.62,-46.17"/>
</g>
<!-- n7&#45;&gt;n11 -->
<g id="edge14" class="edge">
<title>n7&#45;&gt;n11</title>
<path fill="none" stroke="black" d="M1559.3,-121.81C1531.1,-100.96 1483.6,-65.71 1452.1,-42.4"/>
<polygon fill="black" stroke="black" points="1453.82,-39.31 1443.7,-36.16 1449.64,-44.93 1453.82,-39.31"/>
</g>
<!-- n12 -->
<g id="node13" class="node">
<title>n12</title>
<path fill="palegreen" stroke="black" d="M1869,-36C1869,-36 1714,-36 1714,-36 1708,-36 1702,-30 1702,-24 1702,-24 1702,-12 1702,-12 1702,-6 1708,0 1714,0 1714,0 1869,0 1869,0 1875,0 1881,-6 1881,-12 1881,-12 1881,-24 1881,-24 1881,-30 1875,-36 1869,-36"/>
<text text-anchor="middle" x="1791.5" y="-14.3" font-family="Arial" font-size="14.00">Shows resources in habitat</text>
</g>
<!-- n8&#45;&gt;n12 -->
<g id="edge15" class="edge">
<title>n8&#45;&gt;n12</title>
<path fill="none" stroke="black" d="M1791.5,-121.81C1791.5,-102.11 1791.5,-69.58 1791.5,-46.39"/>
<polygon fill="black" stroke="black" points="1795,-46.16 1791.5,-36.16 1788,-46.16 1795,-46.16"/>
</g>
<!-- n14 -->
<g id="node14" class="node">
<title>n14</title>
<polygon fill="lightcoral" stroke="black" points="2082.5,-280 1907.72,-262 2082.5,-244 2257.28,-262 2082.5,-280"/>
<text text-anchor="middle" x="2082.5" y="-258.3" font-family="Arial" font-size="14.00">Minor omission of algae type</text>
</g>
<!-- n15 -->
<g id="node15" class="node">
<title>n15</title>
<polygon fill="#f28e8e" stroke="black" points="2254.5,-158 1910.5,-158 1910.5,-122 2254.5,-122 2254.5,-158"/>
<text text-anchor="middle" x="2082.5" y="-136.3" font-family="Arial" font-size="14.00">Consider adding specific algae types for completeness</text>
</g>
<!-- n14&#45;&gt;n15 -->
<g id="edge16" class="edge">
<title>n14&#45;&gt;n15</title>
<path fill="none" stroke="black" d="M2082.5,-243.81C2082.5,-224.11 2082.5,-191.58 2082.5,-168.39"/>
<polygon fill="black" stroke="black" points="2086,-168.16 2082.5,-158.16 2079,-168.16 2086,-168.16"/>
</g>
</g>
</svg>
