<?xml version="1.0" encoding="UTF-8" standalone="no"?>
<!DOCTYPE svg PUBLIC "-//W3C//DTD SVG 1.1//EN"
 "http://www.w3.org/Graphics/SVG/1.1/DTD/svg11.dtd">
<!-- Generated by graphviz version 2.43.0 (0)
 -->
<!-- Pages: 1 -->
<svg width="2201pt" height="410pt"
 viewBox="0.00 0.00 2201.19 410.00" xmlns="http://www.w3.org/2000/svg" xmlns:xlink="http://www.w3.org/1999/xlink">
<g id="graph0" class="graph" transform="scale(1 1) rotate(0) translate(4 406)">
<polygon fill="white" stroke="transparent" points="-4,4 -4,-406 2197.19,-406 2197.19,4 -4,4"/>
<!-- n1 -->
<g id="node1" class="node">
<title>n1</title>
<polygon fill="lightblue" stroke="black" points="958.5,-384 844.75,-402 617.25,-402 503.5,-384 617.25,-366 844.75,-366 958.5,-384"/>
<text text-anchor="middle" x="731" y="-380.3" font-family="Arial" font-size="14.00">Illustrate plants with and without water and light.</text>
</g>
<!-- n2 -->
<g id="node2" class="node">
<title>n2</title>
<polygon fill="#fffdd0" stroke="black" points="405.5,-280 190.5,-280 190.5,-244 405.5,-244 405.5,-280"/>
<text text-anchor="middle" x="298" y="-258.3" font-family="Arial" font-size="14.00">Healthy plant with water and light</text>
</g>
<!-- n1&#45;&gt;n2 -->
<g id="edge1" class="edge">
<title>n1&#45;&gt;n2</title>
<path fill="none" stroke="black" d="M669.42,-365.93C590.14,-343.96 452.66,-305.86 369.04,-282.69"/>
<polygon fill="black" stroke="black" points="369.94,-279.31 359.37,-280.01 368.07,-286.05 369.94,-279.31"/>
</g>
<!-- n3 -->
<g id="node3" class="node">
<title>n3</title>
<polygon fill="#fffdd0" stroke="black" points="658.5,-280 527.5,-280 527.5,-244 658.5,-244 658.5,-280"/>
<text text-anchor="middle" x="593" y="-258.3" font-family="Arial" font-size="14.00">Plant without water</text>
</g>
<!-- n1&#45;&gt;n3 -->
<g id="edge2" class="edge">
<title>n1&#45;&gt;n3</title>
<path fill="none" stroke="black" d="M711.23,-365.81C687.45,-345.13 647.41,-310.31 620.6,-287"/>
<polygon fill="black" stroke="black" points="622.58,-284.08 612.74,-280.16 617.99,-289.36 622.58,-284.08"/>
</g>
<!-- n4 -->
<g id="node4" class="node">
<title>n4</title>
<polygon fill="#fffdd0" stroke="black" points="1121.5,-280 816.5,-280 816.5,-244 1121.5,-244 1121.5,-280"/>
<text text-anchor="middle" x="969" y="-258.3" font-family="Arial" font-size="14.00">Plant with light but no water (no clear difference)</text>
</g>
<!-- n1&#45;&gt;n4 -->
<g id="edge3" class="edge">
<title>n1&#45;&gt;n4</title>
<path fill="none" stroke="black" d="M764.85,-365.93C807.23,-344.57 879.87,-307.94 926.11,-284.63"/>
<polygon fill="black" stroke="black" points="927.92,-287.64 935.27,-280.01 924.77,-281.39 927.92,-287.64"/>
</g>
<!-- n5 -->
<g id="node5" class="node">
<title>n5</title>
<polygon fill="#fffdd0" stroke="black" points="1599,-280 1477,-280 1477,-244 1599,-244 1599,-280"/>
<text text-anchor="middle" x="1538" y="-258.3" font-family="Arial" font-size="14.00">Plant without light</text>
</g>
<!-- n1&#45;&gt;n5 -->
<g id="edge4" class="edge">
<title>n1&#45;&gt;n5</title>
<path fill="none" stroke="black" d="M845.34,-366C1014.5,-340.85 1326.5,-294.46 1466.6,-273.62"/>
<polygon fill="black" stroke="black" points="1467.43,-277.04 1476.8,-272.1 1466.39,-270.11 1467.43,-277.04"/>
</g>
<!-- n6 -->
<g id="node6" class="node">
<title>n6</title>
<path fill="palegreen" stroke="black" d="M356,-158C356,-158 12,-158 12,-158 6,-158 0,-152 0,-146 0,-146 0,-134 0,-134 0,-128 6,-122 12,-122 12,-122 356,-122 356,-122 362,-122 368,-128 368,-134 368,-134 368,-146 368,-146 368,-152 362,-158 356,-158"/>
<text text-anchor="middle" x="184" y="-136.3" font-family="Arial" font-size="14.00">Understands importance of water and light for plant growth</text>
</g>
<!-- n2&#45;&gt;n6 -->
<g id="edge5" class="edge">
<title>n2&#45;&gt;n6</title>
<path fill="none" stroke="black" d="M281.67,-243.81C262.2,-223.31 229.52,-188.91 207.37,-165.6"/>
<polygon fill="black" stroke="black" points="209.73,-163 200.3,-158.16 204.65,-167.82 209.73,-163"/>
</g>
<!-- n7 -->
<g id="node7" class="node">
<title>n7</title>
<path fill="palegreen" stroke="black" d="M647.5,-158C647.5,-158 438.5,-158 438.5,-158 432.5,-158 426.5,-152 426.5,-146 426.5,-146 426.5,-134 426.5,-134 426.5,-128 432.5,-122 438.5,-122 438.5,-122 647.5,-122 647.5,-122 653.5,-122 659.5,-128 659.5,-134 659.5,-134 659.5,-146 659.5,-146 659.5,-152 653.5,-158 647.5,-158"/>
<text text-anchor="middle" x="543" y="-136.3" font-family="Arial" font-size="14.00">Basic understanding of lack of water</text>
</g>
<!-- n3&#45;&gt;n7 -->
<g id="edge6" class="edge">
<title>n3&#45;&gt;n7</title>
<path fill="none" stroke="black" d="M585.84,-243.81C577.52,-223.85 563.71,-190.7 554.02,-167.45"/>
<polygon fill="black" stroke="black" points="557.23,-166.05 550.15,-158.16 550.76,-168.74 557.23,-166.05"/>
</g>
<!-- n8 -->
<g id="node8" class="node">
<title>n8</title>
<polygon fill="lightcoral" stroke="black" points="1019,-158 717.5,-140 1019,-122 1320.5,-140 1019,-158"/>
<text text-anchor="middle" x="1019" y="-136.3" font-family="Arial" font-size="14.00">Misunderstanding: Light&#39;s effect not shown distinctly</text>
</g>
<!-- n4&#45;&gt;n8 -->
<g id="edge7" class="edge">
<title>n4&#45;&gt;n8</title>
<path fill="none" stroke="black" d="M976.16,-243.81C984.53,-223.73 998.45,-190.32 1008.1,-167.06"/>
<polygon fill="black" stroke="black" points="1011.36,-168.35 1012,-157.77 1004.9,-165.64 1011.36,-168.35"/>
</g>
<!-- n9 -->
<g id="node9" class="node">
<title>n9</title>
<polygon fill="lightcoral" stroke="black" points="1786,-158 1378.63,-140 1786,-122 2193.37,-140 1786,-158"/>
<text text-anchor="middle" x="1786" y="-136.3" font-family="Arial" font-size="14.00">Misunderstanding: Lack of light gives similar symptoms to lack of water</text>
</g>
<!-- n5&#45;&gt;n9 -->
<g id="edge8" class="edge">
<title>n5&#45;&gt;n9</title>
<path fill="none" stroke="black" d="M1573.3,-243.93C1618.4,-222.1 1696.5,-184.32 1744.4,-161.11"/>
<polygon fill="black" stroke="black" points="1746.12,-164.17 1753.6,-156.67 1743.07,-157.86 1746.12,-164.17"/>
</g>
<!-- n10 -->
<g id="node10" class="node">
<title>n10</title>
<polygon fill="#f28e8e" stroke="black" points="1198.5,-36 839.5,-36 839.5,0 1198.5,0 1198.5,-36"/>
<text text-anchor="middle" x="1019" y="-14.3" font-family="Arial" font-size="14.00">Feedback: Clearly show differences lack of water vs. light</text>
</g>
<!-- n8&#45;&gt;n10 -->
<g id="edge9" class="edge">
<title>n8&#45;&gt;n10</title>
<path fill="none" stroke="black" d="M1019,-121.81C1019,-102.11 1019,-69.58 1019,-46.39"/>
<polygon fill="black" stroke="black" points="1022.5,-46.16 1019,-36.16 1015.5,-46.16 1022.5,-46.16"/>
</g>
<!-- n11 -->
<g id="node11" class="node">
<title>n11</title>
<polygon fill="#f28e8e" stroke="black" points="1951.5,-36 1620.5,-36 1620.5,0 1951.5,0 1951.5,-36"/>
<text text-anchor="middle" x="1786" y="-14.3" font-family="Arial" font-size="14.00">Feedback: Use more distinct signs of light deficiency</text>
</g>
<!-- n9&#45;&gt;n11 -->
<g id="edge10" class="edge">
<title>n9&#45;&gt;n11</title>
<path fill="none" stroke="black" d="M1786,-121.81C1786,-102.11 1786,-69.58 1786,-46.39"/>
<polygon fill="black" stroke="black" points="1789.5,-46.16 1786,-36.16 1782.5,-46.16 1789.5,-46.16"/>
</g>
</g>
</svg>
