<?xml version="1.0" encoding="UTF-8" standalone="no"?>
<!DOCTYPE svg PUBLIC "-//W3C//DTD SVG 1.1//EN"
 "http://www.w3.org/Graphics/SVG/1.1/DTD/svg11.dtd">
<!-- Generated by graphviz version 2.43.0 (0)
 -->
<!-- Pages: 1 -->
<svg width="1545pt" height="410pt"
 viewBox="0.00 0.00 1545.02 410.00" xmlns="http://www.w3.org/2000/svg" xmlns:xlink="http://www.w3.org/1999/xlink">
<g id="graph0" class="graph" transform="scale(1 1) rotate(0) translate(4 406)">
<polygon fill="white" stroke="transparent" points="-4,4 -4,-406 1541.02,-406 1541.02,4 -4,4"/>
<!-- n1 -->
<g id="node1" class="node">
<title>n1</title>
<polygon fill="lightblue" stroke="black" points="835,-384 722.75,-402 498.25,-402 386,-384 498.25,-366 722.75,-366 835,-384"/>
<text text-anchor="middle" x="610.5" y="-380.3" font-family="Arial" font-size="14.00">Illustrate plants with and without water and light</text>
</g>
<!-- n2 -->
<g id="node2" class="node">
<title>n2</title>
<polygon fill="#fffdd0" stroke="black" points="374.5,-280 62.5,-280 62.5,-244 374.5,-244 374.5,-280"/>
<text text-anchor="middle" x="218.5" y="-258.3" font-family="Arial" font-size="14.00">Healthy plant with straight stem and green leaves</text>
</g>
<!-- n1&#45;&gt;n2 -->
<g id="edge1" class="edge">
<title>n1&#45;&gt;n2</title>
<path fill="none" stroke="black" d="M554.75,-365.93C483.34,-344.07 359.77,-306.25 283.97,-283.04"/>
<polygon fill="black" stroke="black" points="284.65,-279.59 274.06,-280.01 282.6,-286.28 284.65,-279.59"/>
</g>
<!-- n3 -->
<g id="node3" class="node">
<title>n3</title>
<polygon fill="#fffdd0" stroke="black" points="758.5,-280 462.5,-280 462.5,-244 758.5,-244 758.5,-280"/>
<text text-anchor="middle" x="610.5" y="-258.3" font-family="Arial" font-size="14.00">Plant without water with drooping green leaves</text>
</g>
<!-- n1&#45;&gt;n3 -->
<g id="edge2" class="edge">
<title>n1&#45;&gt;n3</title>
<path fill="none" stroke="black" d="M610.5,-365.81C610.5,-346.11 610.5,-313.58 610.5,-290.39"/>
<polygon fill="black" stroke="black" points="614,-290.16 610.5,-280.16 607,-290.16 614,-290.16"/>
</g>
<!-- n4 -->
<g id="node4" class="node">
<title>n4</title>
<polygon fill="#fffdd0" stroke="black" points="1219,-280 932,-280 932,-244 1219,-244 1219,-280"/>
<text text-anchor="middle" x="1075.5" y="-258.3" font-family="Arial" font-size="14.00">Plant without light with drooping green leaves</text>
</g>
<!-- n1&#45;&gt;n4 -->
<g id="edge3" class="edge">
<title>n1&#45;&gt;n4</title>
<path fill="none" stroke="black" d="M676.63,-365.93C761.94,-343.92 910.01,-305.71 999.76,-282.55"/>
<polygon fill="black" stroke="black" points="1000.79,-285.9 1009.6,-280.01 999.04,-279.12 1000.79,-285.9"/>
</g>
<!-- n5 -->
<g id="node5" class="node">
<title>n5</title>
<path fill="palegreen" stroke="black" d="M365,-158C365,-158 12,-158 12,-158 6,-158 0,-152 0,-146 0,-146 0,-134 0,-134 0,-128 6,-122 12,-122 12,-122 365,-122 365,-122 371,-122 377,-128 377,-134 377,-134 377,-146 377,-146 377,-152 371,-158 365,-158"/>
<text text-anchor="middle" x="188.5" y="-136.3" font-family="Arial" font-size="14.00">Understands that a healthy plant has enough water and light</text>
</g>
<!-- n2&#45;&gt;n5 -->
<g id="edge4" class="edge">
<title>n2&#45;&gt;n5</title>
<path fill="none" stroke="black" d="M214.2,-243.81C209.26,-224.02 201.07,-191.29 195.27,-168.08"/>
<polygon fill="black" stroke="black" points="198.61,-167.01 192.79,-158.16 191.82,-168.71 198.61,-167.01"/>
</g>
<!-- n6 -->
<g id="node6" class="node">
<title>n6</title>
<path fill="palegreen" stroke="black" d="M773.5,-158C773.5,-158 447.5,-158 447.5,-158 441.5,-158 435.5,-152 435.5,-146 435.5,-146 435.5,-134 435.5,-134 435.5,-128 441.5,-122 447.5,-122 447.5,-122 773.5,-122 773.5,-122 779.5,-122 785.5,-128 785.5,-134 785.5,-134 785.5,-146 785.5,-146 785.5,-152 779.5,-158 773.5,-158"/>
<text text-anchor="middle" x="610.5" y="-136.3" font-family="Arial" font-size="14.00">Understands the effect of lack of water: drooping leaves</text>
</g>
<!-- n3&#45;&gt;n6 -->
<g id="edge5" class="edge">
<title>n3&#45;&gt;n6</title>
<path fill="none" stroke="black" d="M610.5,-243.81C610.5,-224.11 610.5,-191.58 610.5,-168.39"/>
<polygon fill="black" stroke="black" points="614,-168.16 610.5,-158.16 607,-168.16 614,-168.16"/>
</g>
<!-- n7 -->
<g id="node7" class="node">
<title>n7</title>
<polygon fill="lightcoral" stroke="black" points="1190.5,-158 843.96,-140 1190.5,-122 1537.04,-140 1190.5,-158"/>
<text text-anchor="middle" x="1190.5" y="-136.3" font-family="Arial" font-size="14.00">Misunderstands effects of lack of light: uses drooping leaves</text>
</g>
<!-- n4&#45;&gt;n7 -->
<g id="edge6" class="edge">
<title>n4&#45;&gt;n7</title>
<path fill="none" stroke="black" d="M1092,-243.81C1111.8,-223.08 1145.3,-188.13 1167.7,-164.81"/>
<polygon fill="black" stroke="black" points="1170.42,-167.03 1174.8,-157.39 1165.36,-162.2 1170.42,-167.03"/>
</g>
<!-- n8 -->
<g id="node8" class="node">
<title>n8</title>
<polygon fill="#f28e8e" stroke="black" points="1345.5,-36 1035.5,-36 1035.5,0 1345.5,0 1345.5,-36"/>
<text text-anchor="middle" x="1190.5" y="-14.3" font-family="Arial" font-size="14.00">Use elongated stems or yellowing for lack of light</text>
</g>
<!-- n7&#45;&gt;n8 -->
<g id="edge7" class="edge">
<title>n7&#45;&gt;n8</title>
<path fill="none" stroke="black" d="M1190.5,-121.81C1190.5,-102.11 1190.5,-69.58 1190.5,-46.39"/>
<polygon fill="black" stroke="black" points="1194,-46.16 1190.5,-36.16 1187,-46.16 1194,-46.16"/>
</g>
</g>
</svg>
