<?xml version="1.0" encoding="UTF-8" standalone="no"?>
<!DOCTYPE svg PUBLIC "-//W3C//DTD SVG 1.1//EN"
 "http://www.w3.org/Graphics/SVG/1.1/DTD/svg11.dtd">
<!-- Generated by graphviz version 2.43.0 (0)
 -->
<!-- Pages: 1 -->
<svg width="2396pt" height="288pt"
 viewBox="0.00 0.00 2395.50 288.00" xmlns="http://www.w3.org/2000/svg" xmlns:xlink="http://www.w3.org/1999/xlink">
<g id="graph0" class="graph" transform="scale(1 1) rotate(0) translate(4 284)">
<polygon fill="white" stroke="transparent" points="-4,4 -4,-284 2391.5,-284 2391.5,4 -4,4"/>
<!-- n1 -->
<g id="node1" class="node">
<title>n1</title>
<polygon fill="lightblue" stroke="black" points="1265.37,-262 1122.69,-280 837.31,-280 694.63,-262 837.31,-244 1122.69,-244 1265.37,-262"/>
<text text-anchor="middle" x="980" y="-258.3" font-family="Arial" font-size="14.00">Draw animals in their habitats with labels (e.g., fish in water).</text>
</g>
<!-- n2 -->
<g id="node2" class="node">
<title>n2</title>
<polygon fill="#fffdd0" stroke="black" points="237.5,-158 40.5,-158 40.5,-122 237.5,-122 237.5,-158"/>
<text text-anchor="middle" x="139" y="-136.3" font-family="Arial" font-size="14.00">Green trees with brown trunks</text>
</g>
<!-- n1&#45;&gt;n2 -->
<g id="edge1" class="edge">
<title>n1&#45;&gt;n2</title>
<path fill="none" stroke="black" d="M860.84,-244C697.34,-220.67 405.78,-179.07 247.86,-156.53"/>
<polygon fill="black" stroke="black" points="248.05,-153.02 237.66,-155.08 247.07,-159.95 248.05,-153.02"/>
</g>
<!-- n3 -->
<g id="node3" class="node">
<title>n3</title>
<polygon fill="#fffdd0" stroke="black" points="442,-158 310,-158 310,-122 442,-122 442,-158"/>
<text text-anchor="middle" x="376" y="-136.3" font-family="Arial" font-size="14.00">Deer labeled &#39;Deer&#39;</text>
</g>
<!-- n1&#45;&gt;n3 -->
<g id="edge2" class="edge">
<title>n1&#45;&gt;n3</title>
<path fill="none" stroke="black" d="M894.42,-244C776.28,-220.52 565.03,-178.55 452.11,-156.12"/>
<polygon fill="black" stroke="black" points="452.65,-152.66 442.16,-154.14 451.28,-159.52 452.65,-152.66"/>
</g>
<!-- n4 -->
<g id="node4" class="node">
<title>n4</title>
<polygon fill="#fffdd0" stroke="black" points="718.5,-158 571.5,-158 571.5,-122 718.5,-122 718.5,-158"/>
<text text-anchor="middle" x="645" y="-136.3" font-family="Arial" font-size="14.00">Grass labeled &#39;Grass&#39;</text>
</g>
<!-- n1&#45;&gt;n4 -->
<g id="edge3" class="edge">
<title>n1&#45;&gt;n4</title>
<path fill="none" stroke="black" d="M932.36,-243.93C871.71,-222.21 767.02,-184.71 702.14,-161.47"/>
<polygon fill="black" stroke="black" points="703.07,-158.09 692.48,-158.01 700.71,-164.68 703.07,-158.09"/>
</g>
<!-- n5 -->
<g id="node5" class="node">
<title>n5</title>
<polygon fill="#fffdd0" stroke="black" points="948,-158 834,-158 834,-122 948,-122 948,-158"/>
<text text-anchor="middle" x="891" y="-136.3" font-family="Arial" font-size="14.00">Small blue pond</text>
</g>
<!-- n1&#45;&gt;n5 -->
<g id="edge4" class="edge">
<title>n1&#45;&gt;n5</title>
<path fill="none" stroke="black" d="M967.25,-243.81C952.18,-223.49 926.98,-189.51 909.7,-166.21"/>
<polygon fill="black" stroke="black" points="912.5,-164.11 903.73,-158.16 906.88,-168.28 912.5,-164.11"/>
</g>
<!-- n6 -->
<g id="node6" class="node">
<title>n6</title>
<polygon fill="#fffdd0" stroke="black" points="1191.5,-158 1066.5,-158 1066.5,-122 1191.5,-122 1191.5,-158"/>
<text text-anchor="middle" x="1129" y="-136.3" font-family="Arial" font-size="14.00">Fish labeled &#39;Fish&#39;</text>
</g>
<!-- n1&#45;&gt;n6 -->
<g id="edge5" class="edge">
<title>n1&#45;&gt;n6</title>
<path fill="none" stroke="black" d="M1001.3,-243.81C1027.1,-223.04 1070.6,-188.01 1099.6,-164.7"/>
<polygon fill="black" stroke="black" points="1102.12,-167.17 1107.7,-158.16 1097.72,-161.72 1102.12,-167.17"/>
</g>
<!-- n7 -->
<g id="node7" class="node">
<title>n7</title>
<polygon fill="#fffdd0" stroke="black" points="1503,-158 1351,-158 1351,-122 1503,-122 1503,-158"/>
<text text-anchor="middle" x="1427" y="-136.3" font-family="Arial" font-size="14.00">Reeds labeled &#39;Reeds&#39;</text>
</g>
<!-- n1&#45;&gt;n7 -->
<g id="edge6" class="edge">
<title>n1&#45;&gt;n7</title>
<path fill="none" stroke="black" d="M1043.6,-243.93C1125.5,-221.94 1267.6,-183.78 1353.9,-160.62"/>
<polygon fill="black" stroke="black" points="1354.85,-163.99 1363.6,-158.01 1353.03,-157.23 1354.85,-163.99"/>
</g>
<!-- n8 -->
<g id="node8" class="node">
<title>n8</title>
<polygon fill="#fffdd0" stroke="black" points="1859,-158 1635,-158 1635,-122 1859,-122 1859,-158"/>
<text text-anchor="middle" x="1747" y="-136.3" font-family="Arial" font-size="14.00">Bright yellow sun labeled &#39;Sunlight&#39;</text>
</g>
<!-- n1&#45;&gt;n8 -->
<g id="edge7" class="edge">
<title>n1&#45;&gt;n8</title>
<path fill="none" stroke="black" d="M1088.7,-244C1231.3,-221.69 1480.7,-182.66 1628.2,-159.59"/>
<polygon fill="black" stroke="black" points="1628.86,-163.03 1638.2,-158.03 1627.78,-156.11 1628.86,-163.03"/>
</g>
<!-- n16 -->
<g id="node9" class="node">
<title>n16</title>
<polygon fill="lightcoral" stroke="black" points="2164,-158 1953.5,-140 2164,-122 2374.5,-140 2164,-158"/>
<text text-anchor="middle" x="2164" y="-136.3" font-family="Arial" font-size="14.00">Lacks depiction of air as a resource</text>
</g>
<!-- n1&#45;&gt;n16 -->
<g id="edge8" class="edge">
<title>n1&#45;&gt;n16</title>
<path fill="none" stroke="black" d="M1133.9,-245.4C1379.9,-220.47 1855.3,-172.29 2062.9,-151.25"/>
<polygon fill="black" stroke="black" points="2063.3,-154.73 2072.9,-150.24 2062.6,-147.76 2063.3,-154.73"/>
</g>
<!-- n9 -->
<g id="node10" class="node">
<title>n9</title>
<path fill="palegreen" stroke="black" d="M172,-36C172,-36 12,-36 12,-36 6,-36 0,-30 0,-24 0,-24 0,-12 0,-12 0,-6 6,0 12,0 12,0 172,0 172,0 178,0 184,-6 184,-12 184,-12 184,-24 184,-24 184,-30 178,-36 172,-36"/>
<text text-anchor="middle" x="92" y="-14.3" font-family="Arial" font-size="14.00">Trees depict a forest habitat</text>
</g>
<!-- n2&#45;&gt;n9 -->
<g id="edge9" class="edge">
<title>n2&#45;&gt;n9</title>
<path fill="none" stroke="black" d="M132.27,-121.81C124.48,-101.94 111.58,-68.99 102.48,-45.76"/>
<polygon fill="black" stroke="black" points="105.63,-44.2 98.72,-36.16 99.11,-46.75 105.63,-44.2"/>
</g>
<!-- n10 -->
<g id="node11" class="node">
<title>n10</title>
<path fill="palegreen" stroke="black" d="M434,-36C434,-36 254,-36 254,-36 248,-36 242,-30 242,-24 242,-24 242,-12 242,-12 242,-6 248,0 254,0 254,0 434,0 434,0 440,0 446,-6 446,-12 446,-12 446,-24 446,-24 446,-30 440,-36 434,-36"/>
<text text-anchor="middle" x="344" y="-14.3" font-family="Arial" font-size="14.00">Deer in its natural forest habitat</text>
</g>
<!-- n3&#45;&gt;n10 -->
<g id="edge10" class="edge">
<title>n3&#45;&gt;n10</title>
<path fill="none" stroke="black" d="M371.42,-121.81C366.14,-102.02 357.41,-69.29 351.22,-46.08"/>
<polygon fill="black" stroke="black" points="354.54,-44.92 348.58,-36.16 347.77,-46.72 354.54,-44.92"/>
</g>
<!-- n11 -->
<g id="node12" class="node">
<title>n11</title>
<path fill="palegreen" stroke="black" d="M698,-36C698,-36 516,-36 516,-36 510,-36 504,-30 504,-24 504,-24 504,-12 504,-12 504,-6 510,0 516,0 516,0 698,0 698,0 704,0 710,-6 710,-12 710,-12 710,-24 710,-24 710,-30 704,-36 698,-36"/>
<text text-anchor="middle" x="607" y="-14.3" font-family="Arial" font-size="14.00">Grass represents a food source</text>
</g>
<!-- n4&#45;&gt;n11 -->
<g id="edge11" class="edge">
<title>n4&#45;&gt;n11</title>
<path fill="none" stroke="black" d="M639.56,-121.81C633.26,-101.94 622.83,-68.99 615.47,-45.76"/>
<polygon fill="black" stroke="black" points="618.79,-44.64 612.43,-36.16 612.11,-46.75 618.79,-44.64"/>
</g>
<!-- n12 -->
<g id="node13" class="node">
<title>n12</title>
<path fill="palegreen" stroke="black" d="M963.5,-36C963.5,-36 780.5,-36 780.5,-36 774.5,-36 768.5,-30 768.5,-24 768.5,-24 768.5,-12 768.5,-12 768.5,-6 774.5,0 780.5,0 780.5,0 963.5,0 963.5,0 969.5,0 975.5,-6 975.5,-12 975.5,-12 975.5,-24 975.5,-24 975.5,-30 969.5,-36 963.5,-36"/>
<text text-anchor="middle" x="872" y="-14.3" font-family="Arial" font-size="14.00">Pond represents aquatic habitat</text>
</g>
<!-- n5&#45;&gt;n12 -->
<g id="edge12" class="edge">
<title>n5&#45;&gt;n12</title>
<path fill="none" stroke="black" d="M888.28,-121.81C885.15,-102.02 879.96,-69.29 876.29,-46.08"/>
<polygon fill="black" stroke="black" points="879.74,-45.49 874.72,-36.16 872.83,-46.59 879.74,-45.49"/>
</g>
<!-- n13 -->
<g id="node14" class="node">
<title>n13</title>
<path fill="palegreen" stroke="black" d="M1296,-36C1296,-36 1046,-36 1046,-36 1040,-36 1034,-30 1034,-24 1034,-24 1034,-12 1034,-12 1034,-6 1040,0 1046,0 1046,0 1296,0 1296,0 1302,0 1308,-6 1308,-12 1308,-12 1308,-24 1308,-24 1308,-30 1302,-36 1296,-36"/>
<text text-anchor="middle" x="1171" y="-14.3" font-family="Arial" font-size="14.00">Fish correctly associated with water habitat</text>
</g>
<!-- n6&#45;&gt;n13 -->
<g id="edge13" class="edge">
<title>n6&#45;&gt;n13</title>
<path fill="none" stroke="black" d="M1135,-121.81C1142,-101.94 1153.5,-68.99 1161.6,-45.76"/>
<polygon fill="black" stroke="black" points="1164.96,-46.76 1165,-36.16 1158.36,-44.42 1164.96,-46.76"/>
</g>
<!-- n14 -->
<g id="node15" class="node">
<title>n14</title>
<path fill="palegreen" stroke="black" d="M1639.5,-36C1639.5,-36 1378.5,-36 1378.5,-36 1372.5,-36 1366.5,-30 1366.5,-24 1366.5,-24 1366.5,-12 1366.5,-12 1366.5,-6 1372.5,0 1378.5,0 1378.5,0 1639.5,0 1639.5,0 1645.5,0 1651.5,-6 1651.5,-12 1651.5,-12 1651.5,-24 1651.5,-24 1651.5,-30 1645.5,-36 1639.5,-36"/>
<text text-anchor="middle" x="1509" y="-14.3" font-family="Arial" font-size="14.00">Reeds show plant life in aquatic environment</text>
</g>
<!-- n7&#45;&gt;n14 -->
<g id="edge14" class="edge">
<title>n7&#45;&gt;n14</title>
<path fill="none" stroke="black" d="M1438.7,-121.81C1452.6,-101.58 1475.6,-67.81 1491.6,-44.52"/>
<polygon fill="black" stroke="black" points="1494.56,-46.4 1497.3,-36.16 1488.78,-42.45 1494.56,-46.4"/>
</g>
<!-- n15 -->
<g id="node16" class="node">
<title>n15</title>
<path fill="palegreen" stroke="black" d="M1908.5,-36C1908.5,-36 1721.5,-36 1721.5,-36 1715.5,-36 1709.5,-30 1709.5,-24 1709.5,-24 1709.5,-12 1709.5,-12 1709.5,-6 1715.5,0 1721.5,0 1721.5,0 1908.5,0 1908.5,0 1914.5,0 1920.5,-6 1920.5,-12 1920.5,-12 1920.5,-24 1920.5,-24 1920.5,-30 1914.5,-36 1908.5,-36"/>
<text text-anchor="middle" x="1815" y="-14.3" font-family="Arial" font-size="14.00">Sun provides necessary sunlight</text>
</g>
<!-- n8&#45;&gt;n15 -->
<g id="edge15" class="edge">
<title>n8&#45;&gt;n15</title>
<path fill="none" stroke="black" d="M1756.7,-121.81C1768.1,-101.76 1787,-68.4 1800.2,-45.14"/>
<polygon fill="black" stroke="black" points="1803.4,-46.58 1805.3,-36.16 1797.32,-43.13 1803.4,-46.58"/>
</g>
<!-- n17 -->
<g id="node17" class="node">
<title>n17</title>
<polygon fill="#f28e8e" stroke="black" points="2387.5,-36 1978.5,-36 1978.5,0 2387.5,0 2387.5,-36"/>
<text text-anchor="middle" x="2183" y="-14.3" font-family="Arial" font-size="14.00">Include elements like air to show comprehensive resource needs.</text>
</g>
<!-- n16&#45;&gt;n17 -->
<g id="edge16" class="edge">
<title>n16&#45;&gt;n17</title>
<path fill="none" stroke="black" d="M2166.7,-122.06C2169.8,-102.34 2175,-69.5 2178.7,-46.2"/>
<polygon fill="black" stroke="black" points="2182.17,-46.67 2180.3,-36.24 2175.26,-45.56 2182.17,-46.67"/>
</g>
</g>
</svg>
