<?xml version="1.0" encoding="UTF-8" standalone="no"?>
<!DOCTYPE svg PUBLIC "-//W3C//DTD SVG 1.1//EN"
 "http://www.w3.org/Graphics/SVG/1.1/DTD/svg11.dtd">
<!-- Generated by graphviz version 2.43.0 (0)
 -->
<!-- Pages: 1 -->
<svg width="1160pt" height="410pt"
 viewBox="0.00 0.00 1160.00 410.00" xmlns="http://www.w3.org/2000/svg" xmlns:xlink="http://www.w3.org/1999/xlink">
<g id="graph0" class="graph" transform="scale(1 1) rotate(0) translate(4 406)">
<polygon fill="white" stroke="transparent" points="-4,4 -4,-406 1156,-406 1156,4 -4,4"/>
<!-- n1 -->
<g id="node1" class="node">
<title>n1</title>
<polygon fill="lightblue" stroke="black" points="830.5,-384 666.5,-402 338.5,-402 174.5,-384 338.5,-366 666.5,-366 830.5,-384"/>
<text text-anchor="middle" x="502.5" y="-380.3" font-family="Arial" font-size="14.00">Draw reversible and irreversible changes (ice melting vs. egg cooking)</text>
</g>
<!-- n2 -->
<g id="node2" class="node">
<title>n2</title>
<polygon fill="#fffdd0" stroke="black" points="291,-280 0,-280 0,-244 291,-244 291,-280"/>
<text text-anchor="middle" x="145.5" y="-258.3" font-family="Arial" font-size="14.00">Light blue square labeled &#39;ice&#39;, slightly melting</text>
</g>
<!-- n1&#45;&gt;n2 -->
<g id="edge1" class="edge">
<title>n1&#45;&gt;n2</title>
<path fill="none" stroke="black" d="M451.73,-365.93C386.96,-344.16 275.08,-306.56 205.97,-283.33"/>
<polygon fill="black" stroke="black" points="206.69,-279.88 196.1,-280.01 204.46,-286.52 206.69,-279.88"/>
</g>
<!-- n3 -->
<g id="node3" class="node">
<title>n3</title>
<polygon fill="#fffdd0" stroke="black" points="656,-280 349,-280 349,-244 656,-244 656,-280"/>
<text text-anchor="middle" x="502.5" y="-258.3" font-family="Arial" font-size="14.00">Oval shape representing an egg, with wavy lines</text>
</g>
<!-- n1&#45;&gt;n3 -->
<g id="edge2" class="edge">
<title>n1&#45;&gt;n3</title>
<path fill="none" stroke="black" d="M502.5,-365.81C502.5,-346.11 502.5,-313.58 502.5,-290.39"/>
<polygon fill="black" stroke="black" points="506,-290.16 502.5,-280.16 499,-290.16 506,-290.16"/>
</g>
<!-- n4 -->
<g id="node4" class="node">
<title>n4</title>
<polygon fill="#fffdd0" stroke="black" points="978.5,-280 746.5,-280 746.5,-244 978.5,-244 978.5,-280"/>
<text text-anchor="middle" x="862.5" y="-258.3" font-family="Arial" font-size="14.00">Arrow above &#39;ice&#39;, incorrectly placed</text>
</g>
<!-- n1&#45;&gt;n4 -->
<g id="edge3" class="edge">
<title>n1&#45;&gt;n4</title>
<path fill="none" stroke="black" d="M553.7,-365.93C619.14,-344.12 732.3,-306.4 801.95,-283.18"/>
<polygon fill="black" stroke="black" points="803.1,-286.49 811.48,-280.01 800.89,-279.85 803.1,-286.49"/>
</g>
<!-- n5 -->
<g id="node5" class="node">
<title>n5</title>
<path fill="palegreen" stroke="black" d="M241.5,-158C241.5,-158 49.5,-158 49.5,-158 43.5,-158 37.5,-152 37.5,-146 37.5,-146 37.5,-134 37.5,-134 37.5,-128 43.5,-122 49.5,-122 49.5,-122 241.5,-122 241.5,-122 247.5,-122 253.5,-128 253.5,-134 253.5,-134 253.5,-146 253.5,-146 253.5,-152 247.5,-158 241.5,-158"/>
<text text-anchor="middle" x="145.5" y="-136.3" font-family="Arial" font-size="14.00">Ice starts solid and melts to liquid</text>
</g>
<!-- n2&#45;&gt;n5 -->
<g id="edge4" class="edge">
<title>n2&#45;&gt;n5</title>
<path fill="none" stroke="black" d="M145.5,-243.81C145.5,-224.11 145.5,-191.58 145.5,-168.39"/>
<polygon fill="black" stroke="black" points="149,-168.16 145.5,-158.16 142,-168.16 149,-168.16"/>
</g>
<!-- n6 -->
<g id="node6" class="node">
<title>n6</title>
<path fill="palegreen" stroke="black" d="M548,-158C548,-158 423,-158 423,-158 417,-158 411,-152 411,-146 411,-146 411,-134 411,-134 411,-128 417,-122 423,-122 423,-122 548,-122 548,-122 554,-122 560,-128 560,-134 560,-134 560,-146 560,-146 560,-152 554,-158 548,-158"/>
<text text-anchor="middle" x="485.5" y="-136.3" font-family="Arial" font-size="14.00">Egg cooks irreversibly</text>
</g>
<!-- n3&#45;&gt;n6 -->
<g id="edge5" class="edge">
<title>n3&#45;&gt;n6</title>
<path fill="none" stroke="black" d="M500.06,-243.81C497.26,-224.02 492.62,-191.29 489.34,-168.08"/>
<polygon fill="black" stroke="black" points="492.8,-167.57 487.93,-158.16 485.87,-168.55 492.8,-167.57"/>
</g>
<!-- n7 -->
<g id="node7" class="node">
<title>n7</title>
<polygon fill="lightcoral" stroke="black" points="879.5,-158 618.42,-140 879.5,-122 1140.58,-140 879.5,-158"/>
<text text-anchor="middle" x="879.5" y="-136.3" font-family="Arial" font-size="14.00">Misplaced arrow suggests misunderstanding</text>
</g>
<!-- n4&#45;&gt;n7 -->
<g id="edge6" class="edge">
<title>n4&#45;&gt;n7</title>
<path fill="none" stroke="black" d="M864.94,-243.81C867.74,-224.02 872.38,-191.29 875.66,-168.08"/>
<polygon fill="black" stroke="black" points="879.13,-168.55 877.07,-158.16 872.2,-167.57 879.13,-168.55"/>
</g>
<!-- n8 -->
<g id="node8" class="node">
<title>n8</title>
<polygon fill="#f28e8e" stroke="black" points="1152,-36 607,-36 607,0 1152,0 1152,-36"/>
<text text-anchor="middle" x="879.5" y="-14.3" font-family="Arial" font-size="14.00">Use arrows to indicate correct direction of change (e.g., melting ice downwards to water)</text>
</g>
<!-- n7&#45;&gt;n8 -->
<g id="edge7" class="edge">
<title>n7&#45;&gt;n8</title>
<path fill="none" stroke="black" d="M879.5,-121.81C879.5,-102.11 879.5,-69.58 879.5,-46.39"/>
<polygon fill="black" stroke="black" points="883,-46.16 879.5,-36.16 876,-46.16 883,-46.16"/>
</g>
</g>
</svg>
