<?xml version="1.0" encoding="UTF-8" standalone="no"?>
<!DOCTYPE svg PUBLIC "-//W3C//DTD SVG 1.1//EN"
 "http://www.w3.org/Graphics/SVG/1.1/DTD/svg11.dtd">
<!-- Generated by graphviz version 2.43.0 (0)
 -->
<!-- Pages: 1 -->
<svg width="1802pt" height="410pt"
 viewBox="0.00 0.00 1801.50 410.00" xmlns="http://www.w3.org/2000/svg" xmlns:xlink="http://www.w3.org/1999/xlink">
<g id="graph0" class="graph" transform="scale(1 1) rotate(0) translate(4 406)">
<polygon fill="white" stroke="transparent" points="-4,4 -4,-406 1797.5,-406 1797.5,4 -4,4"/>
<!-- n1 -->
<g id="node1" class="node">
<title>n1</title>
<polygon fill="lightblue" stroke="black" points="1308.87,-384 1166.19,-402 880.81,-402 738.13,-384 880.81,-366 1166.19,-366 1308.87,-384"/>
<text text-anchor="middle" x="1023.5" y="-380.3" font-family="Arial" font-size="14.00">Draw animals in their habitats with labels (e.g., fish in water).</text>
</g>
<!-- n2 -->
<g id="node2" class="node">
<title>n2</title>
<polygon fill="#fffdd0" stroke="black" points="382.5,-280 134.5,-280 134.5,-244 382.5,-244 382.5,-280"/>
<text text-anchor="middle" x="258.5" y="-258.3" font-family="Arial" font-size="14.00">Fish swimming in ocean with seaweed</text>
</g>
<!-- n1&#45;&gt;n2 -->
<g id="edge1" class="edge">
<title>n1&#45;&gt;n2</title>
<path fill="none" stroke="black" d="M915.11,-366C772.88,-343.69 524.11,-304.66 377.02,-281.59"/>
<polygon fill="black" stroke="black" points="377.46,-278.12 367.04,-280.03 376.38,-285.03 377.46,-278.12"/>
</g>
<!-- n3 -->
<g id="node3" class="node">
<title>n3</title>
<polygon fill="#fffdd0" stroke="black" points="812.5,-280 594.5,-280 594.5,-244 812.5,-244 812.5,-280"/>
<text text-anchor="middle" x="703.5" y="-258.3" font-family="Arial" font-size="14.00">Deer in green forest with tall trees</text>
</g>
<!-- n1&#45;&gt;n3 -->
<g id="edge2" class="edge">
<title>n1&#45;&gt;n3</title>
<path fill="none" stroke="black" d="M977.99,-365.93C920.17,-344.25 820.47,-306.86 758.47,-283.61"/>
<polygon fill="black" stroke="black" points="759.44,-280.24 748.85,-280.01 756.99,-286.79 759.44,-280.24"/>
</g>
<!-- n4 -->
<g id="node4" class="node">
<title>n4</title>
<polygon fill="#fffdd0" stroke="black" points="1176,-280 871,-280 871,-244 1176,-244 1176,-280"/>
<text text-anchor="middle" x="1023.5" y="-258.3" font-family="Arial" font-size="14.00">Human in urban setting with buildings and roads</text>
</g>
<!-- n1&#45;&gt;n4 -->
<g id="edge3" class="edge">
<title>n1&#45;&gt;n4</title>
<path fill="none" stroke="black" d="M1023.5,-365.81C1023.5,-346.11 1023.5,-313.58 1023.5,-290.39"/>
<polygon fill="black" stroke="black" points="1027,-290.16 1023.5,-280.16 1020,-290.16 1027,-290.16"/>
</g>
<!-- n5 -->
<g id="node5" class="node">
<title>n5</title>
<polygon fill="#fffdd0" stroke="black" points="1495,-280 1234,-280 1234,-244 1495,-244 1495,-280"/>
<text text-anchor="middle" x="1364.5" y="-258.3" font-family="Arial" font-size="14.00">Camels in yellow desert with sand dunes</text>
</g>
<!-- n1&#45;&gt;n5 -->
<g id="edge4" class="edge">
<title>n1&#45;&gt;n5</title>
<path fill="none" stroke="black" d="M1072,-365.93C1133.7,-344.21 1240.3,-306.71 1306.3,-283.47"/>
<polygon fill="black" stroke="black" points="1307.91,-286.61 1316.2,-280.01 1305.61,-280.01 1307.91,-286.61"/>
</g>
<!-- n6 -->
<g id="node6" class="node">
<title>n6</title>
<polygon fill="#fffdd0" stroke="black" points="1792,-280 1553,-280 1553,-244 1792,-244 1792,-280"/>
<text text-anchor="middle" x="1672.5" y="-258.3" font-family="Arial" font-size="14.00">Polar bear on icy floe with ice chunks</text>
</g>
<!-- n1&#45;&gt;n6 -->
<g id="edge5" class="edge">
<title>n1&#45;&gt;n6</title>
<path fill="none" stroke="black" d="M1115.5,-366C1235.6,-343.78 1445.5,-304.98 1570.5,-281.87"/>
<polygon fill="black" stroke="black" points="1571.21,-285.3 1580.4,-280.03 1569.93,-278.42 1571.21,-285.3"/>
</g>
<!-- n7 -->
<g id="node7" class="node">
<title>n7</title>
<path fill="palegreen" stroke="black" d="M151,-158C151,-158 12,-158 12,-158 6,-158 0,-152 0,-146 0,-146 0,-134 0,-134 0,-128 6,-122 12,-122 12,-122 151,-122 151,-122 157,-122 163,-128 163,-134 163,-134 163,-146 163,-146 163,-152 157,-158 151,-158"/>
<text text-anchor="middle" x="81.5" y="-136.3" font-family="Arial" font-size="14.00">Fish need water to swim</text>
</g>
<!-- n2&#45;&gt;n7 -->
<g id="edge6" class="edge">
<title>n2&#45;&gt;n7</title>
<path fill="none" stroke="black" d="M233.14,-243.81C202.12,-222.78 149.51,-187.11 115.13,-163.8"/>
<polygon fill="black" stroke="black" points="117.05,-160.87 106.81,-158.16 113.12,-166.67 117.05,-160.87"/>
</g>
<!-- n8 -->
<g id="node8" class="node">
<title>n8</title>
<path fill="palegreen" stroke="black" d="M502,-158C502,-158 233,-158 233,-158 227,-158 221,-152 221,-146 221,-146 221,-134 221,-134 221,-128 227,-122 233,-122 233,-122 502,-122 502,-122 508,-122 514,-128 514,-134 514,-134 514,-146 514,-146 514,-152 508,-158 502,-158"/>
<text text-anchor="middle" x="367.5" y="-136.3" font-family="Arial" font-size="14.00">Deer need forest environments with resources</text>
</g>
<!-- n3&#45;&gt;n8 -->
<g id="edge7" class="edge">
<title>n3&#45;&gt;n8</title>
<path fill="none" stroke="black" d="M655.72,-243.93C594.88,-222.21 489.89,-184.71 424.81,-161.47"/>
<polygon fill="black" stroke="black" points="425.71,-158.08 415.12,-158.01 423.36,-164.67 425.71,-158.08"/>
</g>
<!-- n12 -->
<g id="node9" class="node">
<title>n12</title>
<polygon fill="lightcoral" stroke="black" points="725.5,-158 572,-140 725.5,-122 879,-140 725.5,-158"/>
<text text-anchor="middle" x="725.5" y="-136.3" font-family="Arial" font-size="14.00">Type of tree not specified</text>
</g>
<!-- n3&#45;&gt;n12 -->
<g id="edge8" class="edge">
<title>n3&#45;&gt;n12</title>
<path fill="none" stroke="black" d="M706.65,-243.81C710.3,-223.91 716.35,-190.92 720.61,-167.68"/>
<polygon fill="black" stroke="black" points="724.07,-168.24 722.42,-157.77 717.18,-166.98 724.07,-168.24"/>
</g>
<!-- n9 -->
<g id="node10" class="node">
<title>n9</title>
<path fill="palegreen" stroke="black" d="M1168.5,-158C1168.5,-158 948.5,-158 948.5,-158 942.5,-158 936.5,-152 936.5,-146 936.5,-146 936.5,-134 936.5,-134 936.5,-128 942.5,-122 948.5,-122 948.5,-122 1168.5,-122 1168.5,-122 1174.5,-122 1180.5,-128 1180.5,-134 1180.5,-134 1180.5,-146 1180.5,-146 1180.5,-152 1174.5,-158 1168.5,-158"/>
<text text-anchor="middle" x="1058.5" y="-136.3" font-family="Arial" font-size="14.00">Humans adapt to urban environments</text>
</g>
<!-- n4&#45;&gt;n9 -->
<g id="edge9" class="edge">
<title>n4&#45;&gt;n9</title>
<path fill="none" stroke="black" d="M1028.5,-243.81C1034.3,-223.94 1043.9,-190.99 1050.7,-167.76"/>
<polygon fill="black" stroke="black" points="1054.06,-168.74 1053.5,-158.16 1047.34,-166.78 1054.06,-168.74"/>
</g>
<!-- n10 -->
<g id="node11" class="node">
<title>n10</title>
<path fill="palegreen" stroke="black" d="M1456,-158C1456,-158 1273,-158 1273,-158 1267,-158 1261,-152 1261,-146 1261,-146 1261,-134 1261,-134 1261,-128 1267,-122 1273,-122 1273,-122 1456,-122 1456,-122 1462,-122 1468,-128 1468,-134 1468,-134 1468,-146 1468,-146 1468,-152 1462,-158 1456,-158"/>
<text text-anchor="middle" x="1364.5" y="-136.3" font-family="Arial" font-size="14.00">Camels need desert for survival</text>
</g>
<!-- n5&#45;&gt;n10 -->
<g id="edge10" class="edge">
<title>n5&#45;&gt;n10</title>
<path fill="none" stroke="black" d="M1364.5,-243.81C1364.5,-224.11 1364.5,-191.58 1364.5,-168.39"/>
<polygon fill="black" stroke="black" points="1368,-168.16 1364.5,-158.16 1361,-168.16 1368,-168.16"/>
</g>
<!-- n11 -->
<g id="node12" class="node">
<title>n11</title>
<path fill="palegreen" stroke="black" d="M1781.5,-158C1781.5,-158 1563.5,-158 1563.5,-158 1557.5,-158 1551.5,-152 1551.5,-146 1551.5,-146 1551.5,-134 1551.5,-134 1551.5,-128 1557.5,-122 1563.5,-122 1563.5,-122 1781.5,-122 1781.5,-122 1787.5,-122 1793.5,-128 1793.5,-134 1793.5,-134 1793.5,-146 1793.5,-146 1793.5,-152 1787.5,-158 1781.5,-158"/>
<text text-anchor="middle" x="1672.5" y="-136.3" font-family="Arial" font-size="14.00">Polar bears need Arctic environments</text>
</g>
<!-- n6&#45;&gt;n11 -->
<g id="edge11" class="edge">
<title>n6&#45;&gt;n11</title>
<path fill="none" stroke="black" d="M1672.5,-243.81C1672.5,-224.11 1672.5,-191.58 1672.5,-168.39"/>
<polygon fill="black" stroke="black" points="1676,-168.16 1672.5,-158.16 1669,-168.16 1676,-168.16"/>
</g>
<!-- n13 -->
<g id="node13" class="node">
<title>n13</title>
<polygon fill="#f28e8e" stroke="black" points="957,-36 494,-36 494,0 957,0 957,-36"/>
<text text-anchor="middle" x="725.5" y="-14.3" font-family="Arial" font-size="14.00">Consider specifying tree types to enhance understanding of forest diversity</text>
</g>
<!-- n12&#45;&gt;n13 -->
<g id="edge12" class="edge">
<title>n12&#45;&gt;n13</title>
<path fill="none" stroke="black" d="M725.5,-121.81C725.5,-102.11 725.5,-69.58 725.5,-46.39"/>
<polygon fill="black" stroke="black" points="729,-46.16 725.5,-36.16 722,-46.16 729,-46.16"/>
</g>
</g>
</svg>
