<?xml version="1.0" encoding="UTF-8" standalone="no"?>
<!DOCTYPE svg PUBLIC "-//W3C//DTD SVG 1.1//EN"
 "http://www.w3.org/Graphics/SVG/1.1/DTD/svg11.dtd">
<!-- Generated by graphviz version 2.43.0 (0)
 -->
<!-- Pages: 1 -->
<svg width="1899pt" height="410pt"
 viewBox="0.00 0.00 1899.16 410.00" xmlns="http://www.w3.org/2000/svg" xmlns:xlink="http://www.w3.org/1999/xlink">
<g id="graph0" class="graph" transform="scale(1 1) rotate(0) translate(4 406)">
<polygon fill="white" stroke="transparent" points="-4,4 -4,-406 1895.16,-406 1895.16,4 -4,4"/>
<!-- n1 -->
<g id="node1" class="node">
<title>n1</title>
<polygon fill="lightblue" stroke="black" points="934,-384 822.5,-402 599.5,-402 488,-384 599.5,-366 822.5,-366 934,-384"/>
<text text-anchor="middle" x="711" y="-380.3" font-family="Arial" font-size="14.00">Draw a string telephone between two students.</text>
</g>
<!-- n2 -->
<g id="node2" class="node">
<title>n2</title>
<polygon fill="#fffdd0" stroke="black" points="200,-280 0,-280 0,-244 200,-244 200,-280"/>
<text text-anchor="middle" x="100" y="-258.3" font-family="Arial" font-size="14.00">Two children facing each other</text>
</g>
<!-- n1&#45;&gt;n2 -->
<g id="edge1" class="edge">
<title>n1&#45;&gt;n2</title>
<path fill="none" stroke="black" d="M624.43,-366C511.51,-343.82 314.52,-305.13 196.78,-282.01"/>
<polygon fill="black" stroke="black" points="197.18,-278.52 186.69,-280.03 195.83,-285.39 197.18,-278.52"/>
</g>
<!-- n3 -->
<g id="node3" class="node">
<title>n3</title>
<polygon fill="#fffdd0" stroke="black" points="392,-280 258,-280 258,-244 392,-244 392,-280"/>
<text text-anchor="middle" x="325" y="-258.3" font-family="Arial" font-size="14.00">Child with blue shirt</text>
</g>
<!-- n1&#45;&gt;n3 -->
<g id="edge2" class="edge">
<title>n1&#45;&gt;n3</title>
<path fill="none" stroke="black" d="M656.11,-365.93C585.79,-344.07 464.11,-306.25 389.47,-283.04"/>
<polygon fill="black" stroke="black" points="390.3,-279.63 379.71,-280.01 388.22,-286.32 390.3,-279.63"/>
</g>
<!-- n4 -->
<g id="node4" class="node">
<title>n4</title>
<polygon fill="#fffdd0" stroke="black" points="578,-280 450,-280 450,-244 578,-244 578,-280"/>
<text text-anchor="middle" x="514" y="-258.3" font-family="Arial" font-size="14.00">Child with red shirt</text>
</g>
<!-- n1&#45;&gt;n4 -->
<g id="edge3" class="edge">
<title>n1&#45;&gt;n4</title>
<path fill="none" stroke="black" d="M682.77,-365.81C648.1,-344.69 589.2,-308.81 550.95,-285.51"/>
<polygon fill="black" stroke="black" points="552.53,-282.37 542.17,-280.16 548.89,-288.35 552.53,-282.37"/>
</g>
<!-- n5 -->
<g id="node5" class="node">
<title>n5</title>
<polygon fill="#fffdd0" stroke="black" points="785.5,-280 636.5,-280 636.5,-244 785.5,-244 785.5,-280"/>
<text text-anchor="middle" x="711" y="-258.3" font-family="Arial" font-size="14.00">Cup attached to string</text>
</g>
<!-- n1&#45;&gt;n5 -->
<g id="edge4" class="edge">
<title>n1&#45;&gt;n5</title>
<path fill="none" stroke="black" d="M711,-365.81C711,-346.11 711,-313.58 711,-290.39"/>
<polygon fill="black" stroke="black" points="714.5,-290.16 711,-280.16 707.5,-290.16 714.5,-290.16"/>
</g>
<!-- n6 -->
<g id="node6" class="node">
<title>n6</title>
<polygon fill="#fffdd0" stroke="black" points="1052,-280 844,-280 844,-244 1052,-244 1052,-280"/>
<text text-anchor="middle" x="948" y="-258.3" font-family="Arial" font-size="14.00">String shown taut between cups</text>
</g>
<!-- n1&#45;&gt;n6 -->
<g id="edge5" class="edge">
<title>n1&#45;&gt;n6</title>
<path fill="none" stroke="black" d="M744.7,-365.93C786.91,-344.57 859.25,-307.94 905.29,-284.63"/>
<polygon fill="black" stroke="black" points="907.07,-287.65 914.41,-280.01 903.91,-281.41 907.07,-287.65"/>
</g>
<!-- n7 -->
<g id="node7" class="node">
<title>n7</title>
<polygon fill="#fffdd0" stroke="black" points="1199.5,-280 1110.5,-280 1110.5,-244 1199.5,-244 1199.5,-280"/>
<text text-anchor="middle" x="1155" y="-258.3" font-family="Arial" font-size="14.00">Grassy field</text>
</g>
<!-- n1&#45;&gt;n7 -->
<g id="edge6" class="edge">
<title>n1&#45;&gt;n7</title>
<path fill="none" stroke="black" d="M774.14,-365.93C861.57,-342.31 1018,-300.02 1100.6,-277.71"/>
<polygon fill="black" stroke="black" points="1101.56,-281.08 1110.3,-275.09 1099.73,-274.32 1101.56,-281.08"/>
</g>
<!-- n8 -->
<g id="node8" class="node">
<title>n8</title>
<polygon fill="#fffdd0" stroke="black" points="1643.5,-280 1392.5,-280 1392.5,-244 1643.5,-244 1643.5,-280"/>
<text text-anchor="middle" x="1518" y="-258.3" font-family="Arial" font-size="14.00">Notes on communication over distance</text>
</g>
<!-- n1&#45;&gt;n8 -->
<g id="edge7" class="edge">
<title>n1&#45;&gt;n8</title>
<path fill="none" stroke="black" d="M824.06,-366.19C974,-343.89 1237.8,-304.67 1393.3,-281.54"/>
<polygon fill="black" stroke="black" points="1394.02,-284.97 1403.4,-280.04 1392.99,-278.05 1394.02,-284.97"/>
</g>
<!-- n9 -->
<g id="node9" class="node">
<title>n9</title>
<path fill="palegreen" stroke="black" d="M379.5,-158C379.5,-158 132.5,-158 132.5,-158 126.5,-158 120.5,-152 120.5,-146 120.5,-146 120.5,-134 120.5,-134 120.5,-128 126.5,-122 132.5,-122 132.5,-122 379.5,-122 379.5,-122 385.5,-122 391.5,-128 391.5,-134 391.5,-134 391.5,-146 391.5,-146 391.5,-152 385.5,-158 379.5,-158"/>
<text text-anchor="middle" x="256" y="-136.3" font-family="Arial" font-size="14.00">Use of string telephone for communication</text>
</g>
<!-- n2&#45;&gt;n9 -->
<g id="edge8" class="edge">
<title>n2&#45;&gt;n9</title>
<path fill="none" stroke="black" d="M122.35,-243.81C149.46,-222.96 195.28,-187.71 225.58,-164.4"/>
<polygon fill="black" stroke="black" points="227.9,-167.03 233.69,-158.16 223.63,-161.48 227.9,-167.03"/>
</g>
<!-- n5&#45;&gt;n9 -->
<g id="edge9" class="edge">
<title>n5&#45;&gt;n9</title>
<path fill="none" stroke="black" d="M646.29,-243.93C562.9,-221.94 418.22,-183.78 330.38,-160.62"/>
<polygon fill="black" stroke="black" points="331.04,-157.17 320.48,-158.01 329.26,-163.94 331.04,-157.17"/>
</g>
<!-- n10 -->
<g id="node10" class="node">
<title>n10</title>
<polygon fill="lightcoral" stroke="black" points="880,-158 537,-140 880,-122 1223,-140 880,-158"/>
<text text-anchor="middle" x="880" y="-136.3" font-family="Arial" font-size="14.00">Understanding the importance of taut string for sound travel</text>
</g>
<!-- n6&#45;&gt;n10 -->
<g id="edge10" class="edge">
<title>n6&#45;&gt;n10</title>
<path fill="none" stroke="black" d="M938.26,-243.81C926.83,-223.64 907.78,-190.02 894.59,-166.74"/>
<polygon fill="black" stroke="black" points="897.48,-164.75 889.51,-157.77 891.39,-168.2 897.48,-164.75"/>
</g>
<!-- n11 -->
<g id="node11" class="node">
<title>n11</title>
<polygon fill="lightcoral" stroke="black" points="1586,-158 1280.68,-140 1586,-122 1891.32,-140 1586,-158"/>
<text text-anchor="middle" x="1586" y="-136.3" font-family="Arial" font-size="14.00">Understanding that technology helps communication</text>
</g>
<!-- n8&#45;&gt;n11 -->
<g id="edge11" class="edge">
<title>n8&#45;&gt;n11</title>
<path fill="none" stroke="black" d="M1527.7,-243.81C1539.2,-223.64 1558.2,-190.02 1571.4,-166.74"/>
<polygon fill="black" stroke="black" points="1574.6,-168.19 1576.5,-157.77 1568.51,-164.73 1574.6,-168.19"/>
</g>
<!-- n12 -->
<g id="node12" class="node">
<title>n12</title>
<polygon fill="#f28e8e" stroke="black" points="1067.5,-36 692.5,-36 692.5,0 1067.5,0 1067.5,-36"/>
<text text-anchor="middle" x="880" y="-14.3" font-family="Arial" font-size="14.00">Explain how sound uses a taut string to travel between cups</text>
</g>
<!-- n10&#45;&gt;n12 -->
<g id="edge12" class="edge">
<title>n10&#45;&gt;n12</title>
<path fill="none" stroke="black" d="M880,-121.81C880,-102.11 880,-69.58 880,-46.39"/>
<polygon fill="black" stroke="black" points="883.5,-46.16 880,-36.16 876.5,-46.16 883.5,-46.16"/>
</g>
<!-- n13 -->
<g id="node13" class="node">
<title>n13</title>
<polygon fill="#f28e8e" stroke="black" points="1794,-36 1378,-36 1378,0 1794,0 1794,-36"/>
<text text-anchor="middle" x="1586" y="-14.3" font-family="Arial" font-size="14.00">Add notes on how technology helps communication over distances</text>
</g>
<!-- n11&#45;&gt;n13 -->
<g id="edge13" class="edge">
<title>n11&#45;&gt;n13</title>
<path fill="none" stroke="black" d="M1586,-121.81C1586,-102.11 1586,-69.58 1586,-46.39"/>
<polygon fill="black" stroke="black" points="1589.5,-46.16 1586,-36.16 1582.5,-46.16 1589.5,-46.16"/>
</g>
</g>
</svg>
