<?xml version="1.0" encoding="UTF-8" standalone="no"?>
<!DOCTYPE svg PUBLIC "-//W3C//DTD SVG 1.1//EN"
 "http://www.w3.org/Graphics/SVG/1.1/DTD/svg11.dtd">
<!-- Generated by graphviz version 2.43.0 (0)
 -->
<!-- Pages: 1 -->
<svg width="1373pt" height="410pt"
 viewBox="0.00 0.00 1373.00 410.00" xmlns="http://www.w3.org/2000/svg" xmlns:xlink="http://www.w3.org/1999/xlink">
<g id="graph0" class="graph" transform="scale(1 1) rotate(0) translate(4 406)">
<polygon fill="white" stroke="transparent" points="-4,4 -4,-406 1369,-406 1369,4 -4,4"/>
<!-- n1 -->
<g id="node1" class="node">
<title>n1</title>
<polygon fill="lightblue" stroke="black" points="793.5,-384 682,-402 459,-402 347.5,-384 459,-366 682,-366 793.5,-384"/>
<text text-anchor="middle" x="570.5" y="-380.3" font-family="Arial" font-size="14.00">Draw a string telephone between two students.</text>
</g>
<!-- n2 -->
<g id="node2" class="node">
<title>n2</title>
<polygon fill="#fffdd0" stroke="black" points="227.5,-280 63.5,-280 63.5,-244 227.5,-244 227.5,-280"/>
<text text-anchor="middle" x="145.5" y="-258.3" font-family="Arial" font-size="14.00">Two stick figure students</text>
</g>
<!-- n1&#45;&gt;n2 -->
<g id="edge1" class="edge">
<title>n1&#45;&gt;n2</title>
<path fill="none" stroke="black" d="M510.06,-365.93C432.32,-343.99 297.57,-305.94 215.48,-282.76"/>
<polygon fill="black" stroke="black" points="216.3,-279.36 205.73,-280.01 214.4,-286.09 216.3,-279.36"/>
</g>
<!-- n3 -->
<g id="node3" class="node">
<title>n3</title>
<polygon fill="#fffdd0" stroke="black" points="545,-280 286,-280 286,-244 545,-244 545,-280"/>
<text text-anchor="middle" x="415.5" y="-258.3" font-family="Arial" font-size="14.00">Students holding cups to ears with string</text>
</g>
<!-- n1&#45;&gt;n3 -->
<g id="edge2" class="edge">
<title>n1&#45;&gt;n3</title>
<path fill="none" stroke="black" d="M548.29,-365.81C521.36,-344.96 475.84,-309.71 445.72,-286.4"/>
<polygon fill="black" stroke="black" points="447.72,-283.52 437.67,-280.16 443.43,-289.05 447.72,-283.52"/>
</g>
<!-- n4 -->
<g id="node4" class="node">
<title>n4</title>
<polygon fill="#fffdd0" stroke="black" points="1151,-280 906,-280 906,-244 1151,-244 1151,-280"/>
<text text-anchor="middle" x="1028.5" y="-258.3" font-family="Arial" font-size="14.00">Use of a blue line to represent a string</text>
</g>
<!-- n1&#45;&gt;n4 -->
<g id="edge3" class="edge">
<title>n1&#45;&gt;n4</title>
<path fill="none" stroke="black" d="M635.63,-365.93C719.66,-343.92 865.51,-305.71 953.9,-282.55"/>
<polygon fill="black" stroke="black" points="954.8,-285.93 963.59,-280.01 953.03,-279.16 954.8,-285.93"/>
</g>
<!-- n5 -->
<g id="node5" class="node">
<title>n5</title>
<polygon fill="#fffdd0" stroke="black" points="848,-280 603,-280 603,-244 848,-244 848,-280"/>
<text text-anchor="middle" x="725.5" y="-258.3" font-family="Arial" font-size="14.00">Labels explain sound travels via string</text>
</g>
<!-- n1&#45;&gt;n5 -->
<g id="edge4" class="edge">
<title>n1&#45;&gt;n5</title>
<path fill="none" stroke="black" d="M592.71,-365.81C619.64,-344.96 665.16,-309.71 695.28,-286.4"/>
<polygon fill="black" stroke="black" points="697.57,-289.05 703.33,-280.16 693.28,-283.52 697.57,-289.05"/>
</g>
<!-- n6 -->
<g id="node6" class="node">
<title>n6</title>
<path fill="palegreen" stroke="black" d="M293,-158C293,-158 12,-158 12,-158 6,-158 0,-152 0,-146 0,-146 0,-134 0,-134 0,-128 6,-122 12,-122 12,-122 293,-122 293,-122 299,-122 305,-128 305,-134 305,-134 305,-146 305,-146 305,-152 299,-158 293,-158"/>
<text text-anchor="middle" x="152.5" y="-136.3" font-family="Arial" font-size="14.00">Understanding of a basic communication device</text>
</g>
<!-- n2&#45;&gt;n6 -->
<g id="edge5" class="edge">
<title>n2&#45;&gt;n6</title>
<path fill="none" stroke="black" d="M146.5,-243.81C147.65,-224.11 149.55,-191.58 150.9,-168.39"/>
<polygon fill="black" stroke="black" points="154.41,-168.35 151.5,-158.16 147.42,-167.94 154.41,-168.35"/>
</g>
<!-- n3&#45;&gt;n6 -->
<g id="edge6" class="edge">
<title>n3&#45;&gt;n6</title>
<path fill="none" stroke="black" d="M378.1,-243.93C330.97,-222.43 249.98,-185.48 198.94,-162.19"/>
<polygon fill="black" stroke="black" points="200.32,-158.97 189.77,-158.01 197.42,-165.34 200.32,-158.97"/>
</g>
<!-- n7 -->
<g id="node7" class="node">
<title>n7</title>
<path fill="palegreen" stroke="black" d="M616,-158C616,-158 387,-158 387,-158 381,-158 375,-152 375,-146 375,-146 375,-134 375,-134 375,-128 381,-122 387,-122 387,-122 616,-122 616,-122 622,-122 628,-128 628,-134 628,-134 628,-146 628,-146 628,-152 622,-158 616,-158"/>
<text text-anchor="middle" x="501.5" y="-136.3" font-family="Arial" font-size="14.00">Recognizes the concept of sound travel</text>
</g>
<!-- n3&#45;&gt;n7 -->
<g id="edge7" class="edge">
<title>n3&#45;&gt;n7</title>
<path fill="none" stroke="black" d="M427.82,-243.81C442.32,-223.58 466.52,-189.81 483.21,-166.52"/>
<polygon fill="black" stroke="black" points="486.22,-168.33 489.2,-158.16 480.53,-164.25 486.22,-168.33"/>
</g>
<!-- n8 -->
<g id="node8" class="node">
<title>n8</title>
<polygon fill="lightcoral" stroke="black" points="1028.5,-158 692,-140 1028.5,-122 1365,-140 1028.5,-158"/>
<text text-anchor="middle" x="1028.5" y="-136.3" font-family="Arial" font-size="14.00">Slightly curved string indicates sound travel misconception</text>
</g>
<!-- n4&#45;&gt;n8 -->
<g id="edge8" class="edge">
<title>n4&#45;&gt;n8</title>
<path fill="none" stroke="black" d="M1028.5,-243.81C1028.5,-224.11 1028.5,-191.58 1028.5,-168.39"/>
<polygon fill="black" stroke="black" points="1032,-168.16 1028.5,-158.16 1025,-168.16 1032,-168.16"/>
</g>
<!-- n5&#45;&gt;n7 -->
<g id="edge9" class="edge">
<title>n5&#45;&gt;n7</title>
<path fill="none" stroke="black" d="M693.41,-243.81C653.65,-222.51 585.87,-186.2 542.42,-162.92"/>
<polygon fill="black" stroke="black" points="544,-159.79 533.53,-158.16 540.69,-165.97 544,-159.79"/>
</g>
<!-- n9 -->
<g id="node9" class="node">
<title>n9</title>
<polygon fill="#f28e8e" stroke="black" points="1171.5,-36 885.5,-36 885.5,0 1171.5,0 1171.5,-36"/>
<text text-anchor="middle" x="1028.5" y="-14.3" font-family="Arial" font-size="14.00">Consider taut string for accurate sound travel</text>
</g>
<!-- n8&#45;&gt;n9 -->
<g id="edge10" class="edge">
<title>n8&#45;&gt;n9</title>
<path fill="none" stroke="black" d="M1028.5,-121.81C1028.5,-102.11 1028.5,-69.58 1028.5,-46.39"/>
<polygon fill="black" stroke="black" points="1032,-46.16 1028.5,-36.16 1025,-46.16 1032,-46.16"/>
</g>
</g>
</svg>
