<?xml version="1.0" encoding="UTF-8" standalone="no"?>
<!DOCTYPE svg PUBLIC "-//W3C//DTD SVG 1.1//EN"
 "http://www.w3.org/Graphics/SVG/1.1/DTD/svg11.dtd">
<!-- Generated by graphviz version 2.43.0 (0)
 -->
<!-- Pages: 1 -->
<svg width="1395pt" height="410pt"
 viewBox="0.00 0.00 1395.00 410.00" xmlns="http://www.w3.org/2000/svg" xmlns:xlink="http://www.w3.org/1999/xlink">
<g id="graph0" class="graph" transform="scale(1 1) rotate(0) translate(4 406)">
<polygon fill="white" stroke="transparent" points="-4,4 -4,-406 1391,-406 1391,4 -4,4"/>
<!-- n1 -->
<g id="node1" class="node">
<title>n1</title>
<polygon fill="lightblue" stroke="black" points="745.5,-384 653.5,-402 469.5,-402 377.5,-384 469.5,-366 653.5,-366 745.5,-384"/>
<text text-anchor="middle" x="561.5" y="-380.3" font-family="Arial" font-size="14.00">Illustrate plants with and without water</text>
</g>
<!-- n2 -->
<g id="node2" class="node">
<title>n2</title>
<polygon fill="#fffdd0" stroke="black" points="197,-280 0,-280 0,-244 197,-244 197,-280"/>
<text text-anchor="middle" x="98.5" y="-258.3" font-family="Arial" font-size="14.00">Two plants drawn side by side</text>
</g>
<!-- n1&#45;&gt;n2 -->
<g id="edge1" class="edge">
<title>n1&#45;&gt;n2</title>
<path fill="none" stroke="black" d="M495.66,-365.93C410.71,-343.92 263.27,-305.71 173.92,-282.55"/>
<polygon fill="black" stroke="black" points="174.68,-279.13 164.12,-280.01 172.92,-285.91 174.68,-279.13"/>
</g>
<!-- n3 -->
<g id="node3" class="node">
<title>n3</title>
<polygon fill="#fffdd0" stroke="black" points="560,-280 255,-280 255,-244 560,-244 560,-280"/>
<text text-anchor="middle" x="407.5" y="-258.3" font-family="Arial" font-size="14.00">Healthy plant with green leaves and sturdy stem</text>
</g>
<!-- n1&#45;&gt;n3 -->
<g id="edge2" class="edge">
<title>n1&#45;&gt;n3</title>
<path fill="none" stroke="black" d="M539.44,-365.81C512.68,-344.96 467.45,-309.71 437.53,-286.4"/>
<polygon fill="black" stroke="black" points="439.56,-283.54 429.52,-280.16 435.26,-289.07 439.56,-283.54"/>
</g>
<!-- n4 -->
<g id="node4" class="node">
<title>n4</title>
<polygon fill="#fffdd0" stroke="black" points="812.5,-280 618.5,-280 618.5,-244 812.5,-244 812.5,-280"/>
<text text-anchor="middle" x="715.5" y="-258.3" font-family="Arial" font-size="14.00">Droopy plant with bent leaves</text>
</g>
<!-- n1&#45;&gt;n4 -->
<g id="edge3" class="edge">
<title>n1&#45;&gt;n4</title>
<path fill="none" stroke="black" d="M583.56,-365.81C610.32,-344.96 655.55,-309.71 685.47,-286.4"/>
<polygon fill="black" stroke="black" points="687.74,-289.07 693.48,-280.16 683.44,-283.54 687.74,-289.07"/>
</g>
<!-- n5 -->
<g id="node5" class="node">
<title>n5</title>
<polygon fill="#fffdd0" stroke="black" points="1159,-280 954,-280 954,-244 1159,-244 1159,-280"/>
<text text-anchor="middle" x="1056.5" y="-258.3" font-family="Arial" font-size="14.00">Simple sun drawn above plants</text>
</g>
<!-- n1&#45;&gt;n5 -->
<g id="edge4" class="edge">
<title>n1&#45;&gt;n5</title>
<path fill="none" stroke="black" d="M631.63,-366C722.56,-343.95 880.78,-305.6 976.36,-282.43"/>
<polygon fill="black" stroke="black" points="977.37,-285.79 986.27,-280.03 975.73,-278.98 977.37,-285.79"/>
</g>
<!-- n6 -->
<g id="node6" class="node">
<title>n6</title>
<path fill="palegreen" stroke="black" d="M521,-158C521,-158 294,-158 294,-158 288,-158 282,-152 282,-146 282,-146 282,-134 282,-134 282,-128 288,-122 294,-122 294,-122 521,-122 521,-122 527,-122 533,-128 533,-134 533,-134 533,-146 533,-146 533,-152 527,-158 521,-158"/>
<text text-anchor="middle" x="407.5" y="-136.3" font-family="Arial" font-size="14.00">Understands healthy plants need water</text>
</g>
<!-- n3&#45;&gt;n6 -->
<g id="edge5" class="edge">
<title>n3&#45;&gt;n6</title>
<path fill="none" stroke="black" d="M407.5,-243.81C407.5,-224.11 407.5,-191.58 407.5,-168.39"/>
<polygon fill="black" stroke="black" points="411,-168.16 407.5,-158.16 404,-168.16 411,-168.16"/>
</g>
<!-- n7 -->
<g id="node7" class="node">
<title>n7</title>
<path fill="palegreen" stroke="black" d="M822.5,-158C822.5,-158 604.5,-158 604.5,-158 598.5,-158 592.5,-152 592.5,-146 592.5,-146 592.5,-134 592.5,-134 592.5,-128 598.5,-122 604.5,-122 604.5,-122 822.5,-122 822.5,-122 828.5,-122 834.5,-128 834.5,-134 834.5,-134 834.5,-146 834.5,-146 834.5,-152 828.5,-158 822.5,-158"/>
<text text-anchor="middle" x="713.5" y="-136.3" font-family="Arial" font-size="14.00">Understands droopy plants lack water</text>
</g>
<!-- n4&#45;&gt;n7 -->
<g id="edge6" class="edge">
<title>n4&#45;&gt;n7</title>
<path fill="none" stroke="black" d="M715.21,-243.81C714.89,-224.11 714.34,-191.58 713.96,-168.39"/>
<polygon fill="black" stroke="black" points="717.46,-168.1 713.79,-158.16 710.46,-168.22 717.46,-168.1"/>
</g>
<!-- n8 -->
<g id="node8" class="node">
<title>n8</title>
<polygon fill="lightcoral" stroke="black" points="1139.5,-158 892,-140 1139.5,-122 1387,-140 1139.5,-158"/>
<text text-anchor="middle" x="1139.5" y="-136.3" font-family="Arial" font-size="14.00">Understands sunlight is required for plants</text>
</g>
<!-- n5&#45;&gt;n8 -->
<g id="edge7" class="edge">
<title>n5&#45;&gt;n8</title>
<path fill="none" stroke="black" d="M1068.4,-243.81C1082.5,-223.35 1106.3,-189.04 1122.4,-165.73"/>
<polygon fill="black" stroke="black" points="1125.36,-167.6 1128.2,-157.39 1119.62,-163.6 1125.36,-167.6"/>
</g>
<!-- n9 -->
<g id="node9" class="node">
<title>n9</title>
<polygon fill="#f28e8e" stroke="black" points="1315,-36 964,-36 964,0 1315,0 1315,-36"/>
<text text-anchor="middle" x="1139.5" y="-14.3" font-family="Arial" font-size="14.00">Clarify the connection between sunlight and plant health</text>
</g>
<!-- n8&#45;&gt;n9 -->
<g id="edge8" class="edge">
<title>n8&#45;&gt;n9</title>
<path fill="none" stroke="black" d="M1139.5,-121.81C1139.5,-102.11 1139.5,-69.58 1139.5,-46.39"/>
<polygon fill="black" stroke="black" points="1143,-46.16 1139.5,-36.16 1136,-46.16 1143,-46.16"/>
</g>
</g>
</svg>
