<?xml version="1.0" encoding="UTF-8" standalone="no"?>
<!DOCTYPE svg PUBLIC "-//W3C//DTD SVG 1.1//EN"
 "http://www.w3.org/Graphics/SVG/1.1/DTD/svg11.dtd">
<!-- Generated by graphviz version 2.43.0 (0)
 -->
<!-- Pages: 1 -->
<svg width="1442pt" height="410pt"
 viewBox="0.00 0.00 1441.68 410.00" xmlns="http://www.w3.org/2000/svg" xmlns:xlink="http://www.w3.org/1999/xlink">
<g id="graph0" class="graph" transform="scale(1 1) rotate(0) translate(4 406)">
<polygon fill="white" stroke="transparent" points="-4,4 -4,-406 1437.68,-406 1437.68,4 -4,4"/>
<!-- n1 -->
<g id="node1" class="node">
<title>n1</title>
<polygon fill="lightblue" stroke="black" points="840.5,-384 749.25,-402 566.75,-402 475.5,-384 566.75,-366 749.25,-366 840.5,-384"/>
<text text-anchor="middle" x="658" y="-380.3" font-family="Arial" font-size="14.00">Draw reversible changes (ice melting)</text>
</g>
<!-- n2 -->
<g id="node2" class="node">
<title>n2</title>
<polygon fill="#fffdd0" stroke="black" points="591,-280 361,-280 361,-244 591,-244 591,-280"/>
<text text-anchor="middle" x="476" y="-258.3" font-family="Arial" font-size="14.00">Rectangle resembling a block of ice</text>
</g>
<!-- n1&#45;&gt;n2 -->
<g id="edge1" class="edge">
<title>n1&#45;&gt;n2</title>
<path fill="none" stroke="black" d="M631.92,-365.81C600.03,-344.78 545.93,-309.11 510.58,-285.8"/>
<polygon fill="black" stroke="black" points="512.3,-282.74 502.03,-280.16 508.45,-288.59 512.3,-282.74"/>
</g>
<!-- n3 -->
<g id="node3" class="node">
<title>n3</title>
<polygon fill="#fffdd0" stroke="black" points="961,-280 719,-280 719,-244 961,-244 961,-280"/>
<text text-anchor="middle" x="840" y="-258.3" font-family="Arial" font-size="14.00">Wavy lines representing melted water</text>
</g>
<!-- n1&#45;&gt;n3 -->
<g id="edge2" class="edge">
<title>n1&#45;&gt;n3</title>
<path fill="none" stroke="black" d="M684.08,-365.81C715.97,-344.78 770.07,-309.11 805.42,-285.8"/>
<polygon fill="black" stroke="black" points="807.55,-288.59 813.97,-280.16 803.7,-282.74 807.55,-288.59"/>
</g>
<!-- n4 -->
<g id="node4" class="node">
<title>n4</title>
<path fill="palegreen" stroke="black" d="M196,-158C196,-158 12,-158 12,-158 6,-158 0,-152 0,-146 0,-146 0,-134 0,-134 0,-128 6,-122 12,-122 12,-122 196,-122 196,-122 202,-122 208,-128 208,-134 208,-134 208,-146 208,-146 208,-152 202,-158 196,-158"/>
<text text-anchor="middle" x="104" y="-136.3" font-family="Arial" font-size="14.00">Understands ice as a solid state</text>
</g>
<!-- n2&#45;&gt;n4 -->
<g id="edge3" class="edge">
<title>n2&#45;&gt;n4</title>
<path fill="none" stroke="black" d="M423.1,-243.93C355.47,-222.12 238.54,-184.4 166.57,-161.18"/>
<polygon fill="black" stroke="black" points="167.31,-157.74 156.72,-158.01 165.17,-164.41 167.31,-157.74"/>
</g>
<!-- n7 -->
<g id="node5" class="node">
<title>n7</title>
<polygon fill="lightcoral" stroke="black" points="476,-158 266.36,-140 476,-122 685.64,-140 476,-158"/>
<text text-anchor="middle" x="476" y="-136.3" font-family="Arial" font-size="14.00">No labels or notes about processes</text>
</g>
<!-- n2&#45;&gt;n7 -->
<g id="edge4" class="edge">
<title>n2&#45;&gt;n7</title>
<path fill="none" stroke="black" d="M476,-243.81C476,-224.11 476,-191.58 476,-168.39"/>
<polygon fill="black" stroke="black" points="479.5,-168.16 476,-158.16 472.5,-168.16 479.5,-168.16"/>
</g>
<!-- n5 -->
<g id="node6" class="node">
<title>n5</title>
<path fill="palegreen" stroke="black" d="M924,-158C924,-158 756,-158 756,-158 750,-158 744,-152 744,-146 744,-146 744,-134 744,-134 744,-128 750,-122 756,-122 756,-122 924,-122 924,-122 930,-122 936,-128 936,-134 936,-134 936,-146 936,-146 936,-152 930,-158 924,-158"/>
<text text-anchor="middle" x="840" y="-136.3" font-family="Arial" font-size="14.00">Understands melting process</text>
</g>
<!-- n3&#45;&gt;n5 -->
<g id="edge5" class="edge">
<title>n3&#45;&gt;n5</title>
<path fill="none" stroke="black" d="M840,-243.81C840,-224.11 840,-191.58 840,-168.39"/>
<polygon fill="black" stroke="black" points="843.5,-168.16 840,-158.16 836.5,-168.16 843.5,-168.16"/>
</g>
<!-- n6 -->
<g id="node7" class="node">
<title>n6</title>
<polygon fill="lightcoral" stroke="black" points="1214,-158 994.14,-140 1214,-122 1433.86,-140 1214,-158"/>
<text text-anchor="middle" x="1214" y="-136.3" font-family="Arial" font-size="14.00">Does not illustrate refreezing process</text>
</g>
<!-- n3&#45;&gt;n6 -->
<g id="edge6" class="edge">
<title>n3&#45;&gt;n6</title>
<path fill="none" stroke="black" d="M893.19,-243.93C964.74,-220.98 1091.2,-180.4 1162.1,-157.66"/>
<polygon fill="black" stroke="black" points="1163.25,-160.97 1171.7,-154.57 1161.11,-154.3 1163.25,-160.97"/>
</g>
<!-- n9 -->
<g id="node8" class="node">
<title>n9</title>
<polygon fill="#f28e8e" stroke="black" points="612.5,-36 339.5,-36 339.5,0 612.5,0 612.5,-36"/>
<text text-anchor="middle" x="476" y="-14.3" font-family="Arial" font-size="14.00">Add labels: solid, liquid, melting, refreezing</text>
</g>
<!-- n7&#45;&gt;n9 -->
<g id="edge7" class="edge">
<title>n7&#45;&gt;n9</title>
<path fill="none" stroke="black" d="M476,-121.81C476,-102.11 476,-69.58 476,-46.39"/>
<polygon fill="black" stroke="black" points="479.5,-46.16 476,-36.16 472.5,-46.16 479.5,-46.16"/>
</g>
<!-- n8 -->
<g id="node9" class="node">
<title>n8</title>
<polygon fill="#f28e8e" stroke="black" points="1329,-36 1099,-36 1099,0 1329,0 1329,-36"/>
<text text-anchor="middle" x="1214" y="-14.3" font-family="Arial" font-size="14.00">Show refreezing with labels &amp; notes</text>
</g>
<!-- n6&#45;&gt;n8 -->
<g id="edge8" class="edge">
<title>n6&#45;&gt;n8</title>
<path fill="none" stroke="black" d="M1214,-121.81C1214,-102.11 1214,-69.58 1214,-46.39"/>
<polygon fill="black" stroke="black" points="1217.5,-46.16 1214,-36.16 1210.5,-46.16 1217.5,-46.16"/>
</g>
</g>
</svg>
