<?xml version="1.0" encoding="UTF-8" standalone="no"?>
<!DOCTYPE svg PUBLIC "-//W3C//DTD SVG 1.1//EN"
 "http://www.w3.org/Graphics/SVG/1.1/DTD/svg11.dtd">
<!-- Generated by graphviz version 2.43.0 (0)
 -->
<!-- Pages: 1 -->
<svg width="1334pt" height="410pt"
 viewBox="0.00 0.00 1334.00 410.00" xmlns="http://www.w3.org/2000/svg" xmlns:xlink="http://www.w3.org/1999/xlink">
<g id="graph0" class="graph" transform="scale(1 1) rotate(0) translate(4 406)">
<polygon fill="white" stroke="transparent" points="-4,4 -4,-406 1330,-406 1330,4 -4,4"/>
<!-- n1 -->
<g id="node1" class="node">
<title>n1</title>
<polygon fill="lightblue" stroke="black" points="587,-384 495,-402 311,-402 219,-384 311,-366 495,-366 587,-384"/>
<text text-anchor="middle" x="403" y="-380.3" font-family="Arial" font-size="14.00">Illustrate plants with and without water</text>
</g>
<!-- n2 -->
<g id="node2" class="node">
<title>n2</title>
<polygon fill="#fffdd0" stroke="black" points="382.5,-280 31.5,-280 31.5,-244 382.5,-244 382.5,-280"/>
<text text-anchor="middle" x="207" y="-258.3" font-family="Arial" font-size="14.00">Drawing of a lush, healthy plant with bright green leaves</text>
</g>
<!-- n1&#45;&gt;n2 -->
<g id="edge1" class="edge">
<title>n1&#45;&gt;n2</title>
<path fill="none" stroke="black" d="M374.92,-365.81C340.42,-344.69 281.82,-308.81 243.76,-285.51"/>
<polygon fill="black" stroke="black" points="245.39,-282.4 235.03,-280.16 241.73,-288.37 245.39,-282.4"/>
</g>
<!-- n3 -->
<g id="node3" class="node">
<title>n3</title>
<polygon fill="#fffdd0" stroke="black" points="779.5,-280 460.5,-280 460.5,-244 779.5,-244 779.5,-280"/>
<text text-anchor="middle" x="620" y="-258.3" font-family="Arial" font-size="14.00">Drawing of a wilted plant with drooping, dull leaves</text>
</g>
<!-- n1&#45;&gt;n3 -->
<g id="edge2" class="edge">
<title>n1&#45;&gt;n3</title>
<path fill="none" stroke="black" d="M434.09,-365.81C472.52,-344.55 537.99,-308.35 580.1,-285.07"/>
<polygon fill="black" stroke="black" points="581.92,-288.07 588.97,-280.16 578.53,-281.94 581.92,-288.07"/>
</g>
<!-- n4 -->
<g id="node4" class="node">
<title>n4</title>
<path fill="palegreen" stroke="black" d="M360,-158C360,-158 12,-158 12,-158 6,-158 0,-152 0,-146 0,-146 0,-134 0,-134 0,-128 6,-122 12,-122 12,-122 360,-122 360,-122 366,-122 372,-128 372,-134 372,-134 372,-146 372,-146 372,-152 366,-158 360,-158"/>
<text text-anchor="middle" x="186" y="-136.3" font-family="Arial" font-size="14.00">Understands the appearance of healthy well&#45;watered plants</text>
</g>
<!-- n2&#45;&gt;n4 -->
<g id="edge3" class="edge">
<title>n2&#45;&gt;n4</title>
<path fill="none" stroke="black" d="M203.99,-243.81C200.53,-224.02 194.8,-191.29 190.74,-168.08"/>
<polygon fill="black" stroke="black" points="194.18,-167.4 189,-158.16 187.28,-168.61 194.18,-167.4"/>
</g>
<!-- n5 -->
<g id="node5" class="node">
<title>n5</title>
<path fill="palegreen" stroke="black" d="M798,-158C798,-158 442,-158 442,-158 436,-158 430,-152 430,-146 430,-146 430,-134 430,-134 430,-128 436,-122 442,-122 442,-122 798,-122 798,-122 804,-122 810,-128 810,-134 810,-134 810,-146 810,-146 810,-152 804,-158 798,-158"/>
<text text-anchor="middle" x="620" y="-136.3" font-family="Arial" font-size="14.00">Understands the appearance of wilted, water&#45;deprived plants</text>
</g>
<!-- n3&#45;&gt;n5 -->
<g id="edge4" class="edge">
<title>n3&#45;&gt;n5</title>
<path fill="none" stroke="black" d="M620,-243.81C620,-224.11 620,-191.58 620,-168.39"/>
<polygon fill="black" stroke="black" points="623.5,-168.16 620,-158.16 616.5,-168.16 623.5,-168.16"/>
</g>
<!-- n6 -->
<g id="node6" class="node">
<title>n6</title>
<polygon fill="lightcoral" stroke="black" points="1097,-158 868,-140 1097,-122 1326,-140 1097,-158"/>
<text text-anchor="middle" x="1097" y="-136.3" font-family="Arial" font-size="14.00">Explain the role of water in plant health</text>
</g>
<!-- n3&#45;&gt;n6 -->
<g id="edge5" class="edge">
<title>n3&#45;&gt;n6</title>
<path fill="none" stroke="black" d="M687.58,-244C780.48,-220.63 946.26,-178.92 1035.7,-156.42"/>
<polygon fill="black" stroke="black" points="1036.56,-159.81 1045.4,-153.97 1034.85,-153.03 1036.56,-159.81"/>
</g>
<!-- n7 -->
<g id="node7" class="node">
<title>n7</title>
<polygon fill="#f28e8e" stroke="black" points="1268.5,-36 925.5,-36 925.5,0 1268.5,0 1268.5,-36"/>
<text text-anchor="middle" x="1097" y="-14.3" font-family="Arial" font-size="14.00">Add explanation of water&#39;s importance for plant growth</text>
</g>
<!-- n6&#45;&gt;n7 -->
<g id="edge6" class="edge">
<title>n6&#45;&gt;n7</title>
<path fill="none" stroke="black" d="M1097,-121.81C1097,-102.11 1097,-69.58 1097,-46.39"/>
<polygon fill="black" stroke="black" points="1100.5,-46.16 1097,-36.16 1093.5,-46.16 1100.5,-46.16"/>
</g>
</g>
</svg>
