<?xml version="1.0" encoding="UTF-8" standalone="no"?>
<!DOCTYPE svg PUBLIC "-//W3C//DTD SVG 1.1//EN"
 "http://www.w3.org/Graphics/SVG/1.1/DTD/svg11.dtd">
<!-- Generated by graphviz version 2.43.0 (0)
 -->
<!-- Pages: 1 -->
<svg width="1417pt" height="410pt"
 viewBox="0.00 0.00 1416.50 410.00" xmlns="http://www.w3.org/2000/svg" xmlns:xlink="http://www.w3.org/1999/xlink">
<g id="graph0" class="graph" transform="scale(1 1) rotate(0) translate(4 406)">
<polygon fill="white" stroke="transparent" points="-4,4 -4,-406 1412.5,-406 1412.5,4 -4,4"/>
<!-- n1 -->
<g id="node1" class="node">
<title>n1</title>
<polygon fill="lightblue" stroke="black" points="680.37,-384 537.69,-402 252.31,-402 109.63,-384 252.31,-366 537.69,-366 680.37,-384"/>
<text text-anchor="middle" x="395" y="-380.3" font-family="Arial" font-size="14.00">Draw animals in their habitats with labels (e.g., fish in water).</text>
</g>
<!-- n2 -->
<g id="node2" class="node">
<title>n2</title>
<polygon fill="#fffdd0" stroke="black" points="139,-280 35,-280 35,-244 139,-244 139,-280"/>
<text text-anchor="middle" x="87" y="-258.3" font-family="Arial" font-size="14.00">A fish in water.</text>
</g>
<!-- n1&#45;&gt;n2 -->
<g id="edge1" class="edge">
<title>n1&#45;&gt;n2</title>
<path fill="none" stroke="black" d="M351.2,-365.93C295.66,-344.3 199.98,-307.02 140.27,-283.76"/>
<polygon fill="black" stroke="black" points="141.24,-280.38 130.65,-280.01 138.7,-286.9 141.24,-280.38"/>
</g>
<!-- n3 -->
<g id="node3" class="node">
<title>n3</title>
<polygon fill="#fffdd0" stroke="black" points="386.5,-280 197.5,-280 197.5,-244 386.5,-244 386.5,-280"/>
<text text-anchor="middle" x="292" y="-258.3" font-family="Arial" font-size="14.00">A deer in the forest on grass.</text>
</g>
<!-- n1&#45;&gt;n3 -->
<g id="edge2" class="edge">
<title>n1&#45;&gt;n3</title>
<path fill="none" stroke="black" d="M380.24,-365.81C362.73,-345.4 333.38,-311.21 313.38,-287.91"/>
<polygon fill="black" stroke="black" points="315.9,-285.47 306.73,-280.16 310.59,-290.03 315.9,-285.47"/>
</g>
<!-- n4 -->
<g id="node4" class="node">
<title>n4</title>
<polygon fill="#fffdd0" stroke="black" points="551.5,-280 444.5,-280 444.5,-244 551.5,-244 551.5,-280"/>
<text text-anchor="middle" x="498" y="-258.3" font-family="Arial" font-size="14.00">A bird in a tree.</text>
</g>
<!-- n1&#45;&gt;n4 -->
<g id="edge3" class="edge">
<title>n1&#45;&gt;n4</title>
<path fill="none" stroke="black" d="M409.76,-365.81C427.27,-345.4 456.62,-311.21 476.62,-287.91"/>
<polygon fill="black" stroke="black" points="479.41,-290.03 483.27,-280.16 474.1,-285.47 479.41,-290.03"/>
</g>
<!-- n5 -->
<g id="node5" class="node">
<title>n5</title>
<polygon fill="#fffdd0" stroke="black" points="776,-280 610,-280 610,-244 776,-244 776,-280"/>
<text text-anchor="middle" x="693" y="-258.3" font-family="Arial" font-size="14.00">A rabbit hopping on land.</text>
</g>
<!-- n1&#45;&gt;n5 -->
<g id="edge4" class="edge">
<title>n1&#45;&gt;n5</title>
<path fill="none" stroke="black" d="M437.38,-365.93C491.11,-344.3 583.69,-307.02 641.46,-283.76"/>
<polygon fill="black" stroke="black" points="642.8,-286.99 650.77,-280.01 640.19,-280.5 642.8,-286.99"/>
</g>
<!-- n6 -->
<g id="node6" class="node">
<title>n6</title>
<path fill="palegreen" stroke="black" d="M150,-158C150,-158 12,-158 12,-158 6,-158 0,-152 0,-146 0,-146 0,-134 0,-134 0,-128 6,-122 12,-122 12,-122 150,-122 150,-122 156,-122 162,-128 162,-134 162,-134 162,-146 162,-146 162,-152 156,-158 150,-158"/>
<text text-anchor="middle" x="81" y="-136.3" font-family="Arial" font-size="14.00">Fish needs water to live.</text>
</g>
<!-- n2&#45;&gt;n6 -->
<g id="edge5" class="edge">
<title>n2&#45;&gt;n6</title>
<path fill="none" stroke="black" d="M86.14,-243.81C85.16,-224.11 83.53,-191.58 82.37,-168.39"/>
<polygon fill="black" stroke="black" points="85.85,-167.97 81.86,-158.16 78.86,-168.32 85.85,-167.97"/>
</g>
<!-- n7 -->
<g id="node7" class="node">
<title>n7</title>
<path fill="palegreen" stroke="black" d="M366,-158C366,-158 232,-158 232,-158 226,-158 220,-152 220,-146 220,-146 220,-134 220,-134 220,-128 226,-122 232,-122 232,-122 366,-122 366,-122 372,-122 378,-128 378,-134 378,-134 378,-146 378,-146 378,-152 372,-158 366,-158"/>
<text text-anchor="middle" x="299" y="-136.3" font-family="Arial" font-size="14.00">Labels habitat correctly.</text>
</g>
<!-- n2&#45;&gt;n7 -->
<g id="edge6" class="edge">
<title>n2&#45;&gt;n7</title>
<path fill="none" stroke="black" d="M117.37,-243.81C154.84,-222.6 218.61,-186.5 259.76,-163.21"/>
<polygon fill="black" stroke="black" points="261.7,-166.13 268.68,-158.16 258.25,-160.04 261.7,-166.13"/>
</g>
<!-- n3&#45;&gt;n7 -->
<g id="edge7" class="edge">
<title>n3&#45;&gt;n7</title>
<path fill="none" stroke="black" d="M293,-243.81C294.15,-224.11 296.05,-191.58 297.4,-168.39"/>
<polygon fill="black" stroke="black" points="300.91,-168.35 298,-158.16 293.92,-167.94 300.91,-168.35"/>
</g>
<!-- n4&#45;&gt;n7 -->
<g id="edge8" class="edge">
<title>n4&#45;&gt;n7</title>
<path fill="none" stroke="black" d="M469.49,-243.81C434.47,-222.69 374.96,-186.81 336.33,-163.51"/>
<polygon fill="black" stroke="black" points="337.83,-160.33 327.46,-158.16 334.22,-166.32 337.83,-160.33"/>
</g>
<!-- n8 -->
<g id="node8" class="node">
<title>n8</title>
<path fill="palegreen" stroke="black" d="M755.5,-158C755.5,-158 508.5,-158 508.5,-158 502.5,-158 496.5,-152 496.5,-146 496.5,-146 496.5,-134 496.5,-134 496.5,-128 502.5,-122 508.5,-122 508.5,-122 755.5,-122 755.5,-122 761.5,-122 767.5,-128 767.5,-134 767.5,-134 767.5,-146 767.5,-146 767.5,-152 761.5,-158 755.5,-158"/>
<text text-anchor="middle" x="632" y="-136.3" font-family="Arial" font-size="14.00">Places animals in correct general habitats.</text>
</g>
<!-- n5&#45;&gt;n8 -->
<g id="edge9" class="edge">
<title>n5&#45;&gt;n8</title>
<path fill="none" stroke="black" d="M684.26,-243.81C674.07,-223.76 657.11,-190.4 645.29,-167.14"/>
<polygon fill="black" stroke="black" points="648.37,-165.48 640.72,-158.16 642.14,-168.66 648.37,-165.48"/>
</g>
<!-- n9 -->
<g id="node9" class="node">
<title>n9</title>
<polygon fill="lightcoral" stroke="black" points="1117,-158 825.5,-140 1117,-122 1408.5,-140 1117,-158"/>
<text text-anchor="middle" x="1117" y="-136.3" font-family="Arial" font-size="14.00">Inadequate representation of detailed interactions.</text>
</g>
<!-- n5&#45;&gt;n9 -->
<g id="edge10" class="edge">
<title>n5&#45;&gt;n9</title>
<path fill="none" stroke="black" d="M753.3,-243.93C834.2,-221.04 977.01,-180.62 1057.5,-157.84"/>
<polygon fill="black" stroke="black" points="1058.83,-161.1 1067.5,-155.02 1056.93,-154.37 1058.83,-161.1"/>
</g>
<!-- n10 -->
<g id="node10" class="node">
<title>n10</title>
<polygon fill="#f28e8e" stroke="black" points="1277.5,-36 956.5,-36 956.5,0 1277.5,0 1277.5,-36"/>
<text text-anchor="middle" x="1117" y="-14.3" font-family="Arial" font-size="14.00">Provide examples of food sources for each animal.</text>
</g>
<!-- n9&#45;&gt;n10 -->
<g id="edge11" class="edge">
<title>n9&#45;&gt;n10</title>
<path fill="none" stroke="black" d="M1117,-121.81C1117,-102.11 1117,-69.58 1117,-46.39"/>
<polygon fill="black" stroke="black" points="1120.5,-46.16 1117,-36.16 1113.5,-46.16 1120.5,-46.16"/>
</g>
</g>
</svg>
