<?xml version="1.0" encoding="UTF-8" standalone="no"?>
<!DOCTYPE svg PUBLIC "-//W3C//DTD SVG 1.1//EN"
 "http://www.w3.org/Graphics/SVG/1.1/DTD/svg11.dtd">
<!-- Generated by graphviz version 2.43.0 (0)
 -->
<!-- Pages: 1 -->
<svg width="1603pt" height="410pt"
 viewBox="0.00 0.00 1603.11 410.00" xmlns="http://www.w3.org/2000/svg" xmlns:xlink="http://www.w3.org/1999/xlink">
<g id="graph0" class="graph" transform="scale(1 1) rotate(0) translate(4 406)">
<polygon fill="white" stroke="transparent" points="-4,4 -4,-406 1599.11,-406 1599.11,4 -4,4"/>
<!-- n1 -->
<g id="node1" class="node">
<title>n1</title>
<polygon fill="lightblue" stroke="black" points="937.87,-384 795.19,-402 509.81,-402 367.13,-384 509.81,-366 795.19,-366 937.87,-384"/>
<text text-anchor="middle" x="652.5" y="-380.3" font-family="Arial" font-size="14.00">Draw animals in their habitats with labels (e.g., fish in water).</text>
</g>
<!-- n2 -->
<g id="node2" class="node">
<title>n2</title>
<polygon fill="#fffdd0" stroke="black" points="320,-280 9,-280 9,-244 320,-244 320,-280"/>
<text text-anchor="middle" x="164.5" y="-258.3" font-family="Arial" font-size="14.00">Fish swims under wavy blue lines labeled &#39;water&#39;.</text>
</g>
<!-- n1&#45;&gt;n2 -->
<g id="edge1" class="edge">
<title>n1&#45;&gt;n2</title>
<path fill="none" stroke="black" d="M583.36,-366C493.71,-343.95 337.73,-305.6 243.51,-282.43"/>
<polygon fill="black" stroke="black" points="244.29,-279.02 233.74,-280.03 242.62,-285.81 244.29,-279.02"/>
</g>
<!-- n3 -->
<g id="node3" class="node">
<title>n3</title>
<polygon fill="#fffdd0" stroke="black" points="607.5,-280 397.5,-280 397.5,-244 607.5,-244 607.5,-280"/>
<text text-anchor="middle" x="502.5" y="-258.3" font-family="Arial" font-size="14.00">Simple green tree labeled &#39;land&#39;.</text>
</g>
<!-- n1&#45;&gt;n3 -->
<g id="edge2" class="edge">
<title>n1&#45;&gt;n3</title>
<path fill="none" stroke="black" d="M631.01,-365.81C605.06,-345.04 561.27,-310.01 532.12,-286.7"/>
<polygon fill="black" stroke="black" points="533.94,-283.68 523.95,-280.16 529.57,-289.14 533.94,-283.68"/>
</g>
<!-- n4 -->
<g id="node4" class="node">
<title>n4</title>
<polygon fill="#fffdd0" stroke="black" points="949,-280 676,-280 676,-244 949,-244 949,-280"/>
<text text-anchor="middle" x="812.5" y="-258.3" font-family="Arial" font-size="14.00">Small bird flies in the sky (not labeled &#39;air&#39;).</text>
</g>
<!-- n1&#45;&gt;n4 -->
<g id="edge3" class="edge">
<title>n1&#45;&gt;n4</title>
<path fill="none" stroke="black" d="M675.42,-365.81C703.23,-344.96 750.22,-309.71 781.3,-286.4"/>
<polygon fill="black" stroke="black" points="783.72,-288.96 789.62,-280.16 779.52,-283.36 783.72,-288.96"/>
</g>
<!-- n5 -->
<g id="node5" class="node">
<title>n5</title>
<polygon fill="#fffdd0" stroke="black" points="1319.5,-280 1125.5,-280 1125.5,-244 1319.5,-244 1319.5,-280"/>
<text text-anchor="middle" x="1222.5" y="-258.3" font-family="Arial" font-size="14.00">Deer at the edge of the water.</text>
</g>
<!-- n1&#45;&gt;n5 -->
<g id="edge4" class="edge">
<title>n1&#45;&gt;n5</title>
<path fill="none" stroke="black" d="M733.26,-366C838.39,-343.87 1021.6,-305.29 1131.5,-282.15"/>
<polygon fill="black" stroke="black" points="1132.53,-285.51 1141.6,-280.03 1131.09,-278.66 1132.53,-285.51"/>
</g>
<!-- n6 -->
<g id="node6" class="node">
<title>n6</title>
<path fill="palegreen" stroke="black" d="M241,-158C241,-158 12,-158 12,-158 6,-158 0,-152 0,-146 0,-146 0,-134 0,-134 0,-128 6,-122 12,-122 12,-122 241,-122 241,-122 247,-122 253,-128 253,-134 253,-134 253,-146 253,-146 253,-152 247,-158 241,-158"/>
<text text-anchor="middle" x="126.5" y="-136.3" font-family="Arial" font-size="14.00">Correctly labels fish&#39;s habitat as &#39;water&#39;.</text>
</g>
<!-- n2&#45;&gt;n6 -->
<g id="edge5" class="edge">
<title>n2&#45;&gt;n6</title>
<path fill="none" stroke="black" d="M159.06,-243.81C152.76,-223.94 142.33,-190.99 134.97,-167.76"/>
<polygon fill="black" stroke="black" points="138.29,-166.64 131.93,-158.16 131.61,-168.75 138.29,-166.64"/>
</g>
<!-- n7 -->
<g id="node7" class="node">
<title>n7</title>
<path fill="palegreen" stroke="black" d="M547.5,-158C547.5,-158 323.5,-158 323.5,-158 317.5,-158 311.5,-152 311.5,-146 311.5,-146 311.5,-134 311.5,-134 311.5,-128 317.5,-122 323.5,-122 323.5,-122 547.5,-122 547.5,-122 553.5,-122 559.5,-128 559.5,-134 559.5,-134 559.5,-146 559.5,-146 559.5,-152 553.5,-158 547.5,-158"/>
<text text-anchor="middle" x="435.5" y="-136.3" font-family="Arial" font-size="14.00">Correctly labels tree&#39;s habitat as &#39;land&#39;.</text>
</g>
<!-- n3&#45;&gt;n7 -->
<g id="edge6" class="edge">
<title>n3&#45;&gt;n7</title>
<path fill="none" stroke="black" d="M492.9,-243.81C481.71,-223.76 463.08,-190.4 450.09,-167.14"/>
<polygon fill="black" stroke="black" points="453.01,-165.19 445.08,-158.16 446.9,-168.6 453.01,-165.19"/>
</g>
<!-- n8 -->
<g id="node8" class="node">
<title>n8</title>
<polygon fill="lightcoral" stroke="black" points="822.5,-158 617.5,-140 822.5,-122 1027.5,-140 822.5,-158"/>
<text text-anchor="middle" x="822.5" y="-136.3" font-family="Arial" font-size="14.00">Misses labeling bird&#39;s needed &#39;air&#39;.</text>
</g>
<!-- n4&#45;&gt;n8 -->
<g id="edge7" class="edge">
<title>n4&#45;&gt;n8</title>
<path fill="none" stroke="black" d="M813.93,-243.81C815.57,-224.11 818.28,-191.58 820.22,-168.39"/>
<polygon fill="black" stroke="black" points="823.73,-168.42 821.07,-158.16 816.75,-167.84 823.73,-168.42"/>
</g>
<!-- n9 -->
<g id="node9" class="node">
<title>n9</title>
<polygon fill="lightcoral" stroke="black" points="1340.5,-158 1085.79,-140 1340.5,-122 1595.21,-140 1340.5,-158"/>
<text text-anchor="middle" x="1340.5" y="-136.3" font-family="Arial" font-size="14.00">Misses detailing deer&#39;s environment needs.</text>
</g>
<!-- n5&#45;&gt;n9 -->
<g id="edge8" class="edge">
<title>n5&#45;&gt;n9</title>
<path fill="none" stroke="black" d="M1239.4,-243.81C1259.9,-222.96 1294.5,-187.74 1317.5,-164.42"/>
<polygon fill="black" stroke="black" points="1320.28,-166.59 1324.8,-157.01 1315.29,-161.68 1320.28,-166.59"/>
</g>
<!-- n10 -->
<g id="node10" class="node">
<title>n10</title>
<polygon fill="#f28e8e" stroke="black" points="977.5,-36 667.5,-36 667.5,0 977.5,0 977.5,-36"/>
<text text-anchor="middle" x="822.5" y="-14.3" font-family="Arial" font-size="14.00">Label air for the bird and describe its importance.</text>
</g>
<!-- n8&#45;&gt;n10 -->
<g id="edge9" class="edge">
<title>n8&#45;&gt;n10</title>
<path fill="none" stroke="black" d="M822.5,-121.81C822.5,-102.11 822.5,-69.58 822.5,-46.39"/>
<polygon fill="black" stroke="black" points="826,-46.16 822.5,-36.16 819,-46.16 826,-46.16"/>
</g>
<!-- n11 -->
<g id="node11" class="node">
<title>n11</title>
<polygon fill="#f28e8e" stroke="black" points="1475,-36 1206,-36 1206,0 1475,0 1475,-36"/>
<text text-anchor="middle" x="1340.5" y="-14.3" font-family="Arial" font-size="14.00">Add details like grass or trees for the deer.</text>
</g>
<!-- n9&#45;&gt;n11 -->
<g id="edge10" class="edge">
<title>n9&#45;&gt;n11</title>
<path fill="none" stroke="black" d="M1340.5,-121.81C1340.5,-102.11 1340.5,-69.58 1340.5,-46.39"/>
<polygon fill="black" stroke="black" points="1344,-46.16 1340.5,-36.16 1337,-46.16 1344,-46.16"/>
</g>
</g>
</svg>
