<?xml version="1.0" encoding="UTF-8" standalone="no"?>
<!DOCTYPE svg PUBLIC "-//W3C//DTD SVG 1.1//EN"
 "http://www.w3.org/Graphics/SVG/1.1/DTD/svg11.dtd">
<!-- Generated by graphviz version 2.43.0 (0)
 -->
<!-- Pages: 1 -->
<svg width="2071pt" height="288pt"
 viewBox="0.00 0.00 2071.00 288.00" xmlns="http://www.w3.org/2000/svg" xmlns:xlink="http://www.w3.org/1999/xlink">
<g id="graph0" class="graph" transform="scale(1 1) rotate(0) translate(4 284)">
<polygon fill="white" stroke="transparent" points="-4,4 -4,-284 2067,-284 2067,4 -4,4"/>
<!-- n1 -->
<g id="node1" class="node">
<title>n1</title>
<polygon fill="lightblue" stroke="black" points="1200,-262 1088.5,-280 865.5,-280 754,-262 865.5,-244 1088.5,-244 1200,-262"/>
<text text-anchor="middle" x="977" y="-258.3" font-family="Arial" font-size="14.00">Draw a string telephone between two students.</text>
</g>
<!-- n2 -->
<g id="node2" class="node">
<title>n2</title>
<polygon fill="#fffdd0" stroke="black" points="393.5,-158 116.5,-158 116.5,-122 393.5,-122 393.5,-158"/>
<text text-anchor="middle" x="255" y="-136.3" font-family="Arial" font-size="14.00">Two students with cups connected by string</text>
</g>
<!-- n1&#45;&gt;n2 -->
<g id="edge1" class="edge">
<title>n1&#45;&gt;n2</title>
<path fill="none" stroke="black" d="M874.7,-244C740.73,-221.73 506.62,-182.82 367.69,-159.73"/>
<polygon fill="black" stroke="black" points="367.88,-156.21 357.44,-158.03 366.73,-163.12 367.88,-156.21"/>
</g>
<!-- n3 -->
<g id="node3" class="node">
<title>n3</title>
<polygon fill="#fffdd0" stroke="black" points="785.5,-158 484.5,-158 484.5,-122 785.5,-122 785.5,-158"/>
<text text-anchor="middle" x="635" y="-136.3" font-family="Arial" font-size="14.00">Arrows indicating sound traveling through string</text>
</g>
<!-- n1&#45;&gt;n3 -->
<g id="edge2" class="edge">
<title>n1&#45;&gt;n3</title>
<path fill="none" stroke="black" d="M928.36,-243.93C866.32,-222.16 759.13,-184.56 692.93,-161.33"/>
<polygon fill="black" stroke="black" points="694.06,-158.02 683.47,-158.01 691.75,-164.62 694.06,-158.02"/>
</g>
<!-- n4 -->
<g id="node4" class="node">
<title>n4</title>
<polygon fill="#fffdd0" stroke="black" points="1093.5,-158 860.5,-158 860.5,-122 1093.5,-122 1093.5,-158"/>
<text text-anchor="middle" x="977" y="-136.3" font-family="Arial" font-size="14.00">Labels on cups, string, and students</text>
</g>
<!-- n1&#45;&gt;n4 -->
<g id="edge3" class="edge">
<title>n1&#45;&gt;n4</title>
<path fill="none" stroke="black" d="M977,-243.81C977,-224.11 977,-191.58 977,-168.39"/>
<polygon fill="black" stroke="black" points="980.5,-168.16 977,-158.16 973.5,-168.16 980.5,-168.16"/>
</g>
<!-- n5 -->
<g id="node5" class="node">
<title>n5</title>
<polygon fill="#fffdd0" stroke="black" points="1464,-158 1202,-158 1202,-122 1464,-122 1464,-158"/>
<text text-anchor="middle" x="1333" y="-136.3" font-family="Arial" font-size="14.00">Additional communication devices drawn</text>
</g>
<!-- n1&#45;&gt;n5 -->
<g id="edge4" class="edge">
<title>n1&#45;&gt;n5</title>
<path fill="none" stroke="black" d="M1027.6,-243.93C1092.2,-222.16 1203.8,-184.56 1272.7,-161.33"/>
<polygon fill="black" stroke="black" points="1274.15,-164.53 1282.5,-158.01 1271.91,-157.9 1274.15,-164.53"/>
</g>
<!-- n6 -->
<g id="node6" class="node">
<title>n6</title>
<polygon fill="#fffdd0" stroke="black" points="1938.5,-158 1603.5,-158 1603.5,-122 1938.5,-122 1938.5,-158"/>
<text text-anchor="middle" x="1771" y="-136.3" font-family="Arial" font-size="14.00">Students have expressions indicating communication</text>
</g>
<!-- n1&#45;&gt;n6 -->
<g id="edge5" class="edge">
<title>n1&#45;&gt;n6</title>
<path fill="none" stroke="black" d="M1089.1,-244.06C1236.7,-221.75 1495.5,-182.63 1648.3,-159.54"/>
<polygon fill="black" stroke="black" points="1648.83,-163 1658.2,-158.05 1647.79,-156.08 1648.83,-163"/>
</g>
<!-- n7 -->
<g id="node7" class="node">
<title>n7</title>
<path fill="palegreen" stroke="black" d="M396,-36C396,-36 12,-36 12,-36 6,-36 0,-30 0,-24 0,-24 0,-12 0,-12 0,-6 6,0 12,0 12,0 396,0 396,0 402,0 408,-6 408,-12 408,-12 408,-24 408,-24 408,-30 402,-36 396,-36"/>
<text text-anchor="middle" x="204" y="-14.3" font-family="Arial" font-size="14.00">Understanding: Communicate over distance with string telephone</text>
</g>
<!-- n2&#45;&gt;n7 -->
<g id="edge6" class="edge">
<title>n2&#45;&gt;n7</title>
<path fill="none" stroke="black" d="M247.69,-121.81C239.21,-101.85 225.12,-68.7 215.24,-45.45"/>
<polygon fill="black" stroke="black" points="218.42,-43.99 211.29,-36.16 211.98,-46.73 218.42,-43.99"/>
</g>
<!-- n8 -->
<g id="node8" class="node">
<title>n8</title>
<path fill="palegreen" stroke="black" d="M757.5,-36C757.5,-36 478.5,-36 478.5,-36 472.5,-36 466.5,-30 466.5,-24 466.5,-24 466.5,-12 466.5,-12 466.5,-6 472.5,0 478.5,0 478.5,0 757.5,0 757.5,0 763.5,0 769.5,-6 769.5,-12 769.5,-12 769.5,-24 769.5,-24 769.5,-30 763.5,-36 757.5,-36"/>
<text text-anchor="middle" x="618" y="-14.3" font-family="Arial" font-size="14.00">Understanding: Sound travels through the string</text>
</g>
<!-- n3&#45;&gt;n8 -->
<g id="edge7" class="edge">
<title>n3&#45;&gt;n8</title>
<path fill="none" stroke="black" d="M632.56,-121.81C629.76,-102.02 625.12,-69.29 621.84,-46.08"/>
<polygon fill="black" stroke="black" points="625.3,-45.57 620.43,-36.16 618.37,-46.55 625.3,-45.57"/>
</g>
<!-- n9 -->
<g id="node9" class="node">
<title>n9</title>
<path fill="palegreen" stroke="black" d="M1114.5,-36C1114.5,-36 839.5,-36 839.5,-36 833.5,-36 827.5,-30 827.5,-24 827.5,-24 827.5,-12 827.5,-12 827.5,-6 833.5,0 839.5,0 839.5,0 1114.5,0 1114.5,0 1120.5,0 1126.5,-6 1126.5,-12 1126.5,-12 1126.5,-24 1126.5,-24 1126.5,-30 1120.5,-36 1114.5,-36"/>
<text text-anchor="middle" x="977" y="-14.3" font-family="Arial" font-size="14.00">Understanding: Correct labeling of components</text>
</g>
<!-- n4&#45;&gt;n9 -->
<g id="edge8" class="edge">
<title>n4&#45;&gt;n9</title>
<path fill="none" stroke="black" d="M977,-121.81C977,-102.11 977,-69.58 977,-46.39"/>
<polygon fill="black" stroke="black" points="980.5,-46.16 977,-36.16 973.5,-46.16 980.5,-46.16"/>
</g>
<!-- n10 -->
<g id="node10" class="node">
<title>n10</title>
<path fill="palegreen" stroke="black" d="M1571,-36C1571,-36 1197,-36 1197,-36 1191,-36 1185,-30 1185,-24 1185,-24 1185,-12 1185,-12 1185,-6 1191,0 1197,0 1197,0 1571,0 1571,0 1577,0 1583,-6 1583,-12 1583,-12 1583,-24 1583,-24 1583,-30 1577,-36 1571,-36"/>
<text text-anchor="middle" x="1384" y="-14.3" font-family="Arial" font-size="14.00">Understanding: Recognizes modern communication technology</text>
</g>
<!-- n5&#45;&gt;n10 -->
<g id="edge9" class="edge">
<title>n5&#45;&gt;n10</title>
<path fill="none" stroke="black" d="M1340.3,-121.81C1348.8,-101.85 1362.9,-68.7 1372.8,-45.45"/>
<polygon fill="black" stroke="black" points="1376.06,-46.74 1376.7,-36.16 1369.6,-44.03 1376.06,-46.74"/>
</g>
<!-- n11 -->
<g id="node11" class="node">
<title>n11</title>
<path fill="palegreen" stroke="black" d="M2051,-36C2051,-36 1653,-36 1653,-36 1647,-36 1641,-30 1641,-24 1641,-24 1641,-12 1641,-12 1641,-6 1647,0 1653,0 1653,0 2051,0 2051,0 2057,0 2063,-6 2063,-12 2063,-12 2063,-24 2063,-24 2063,-30 2057,-36 2051,-36"/>
<text text-anchor="middle" x="1852" y="-14.3" font-family="Arial" font-size="14.00">Understanding: Expression in illustrations communicates interaction</text>
</g>
<!-- n6&#45;&gt;n11 -->
<g id="edge10" class="edge">
<title>n6&#45;&gt;n11</title>
<path fill="none" stroke="black" d="M1782.6,-121.81C1796.3,-101.58 1819.1,-67.81 1834.8,-44.52"/>
<polygon fill="black" stroke="black" points="1837.74,-46.42 1840.4,-36.16 1831.93,-42.52 1837.74,-46.42"/>
</g>
</g>
</svg>
