<?xml version="1.0" encoding="UTF-8" standalone="no"?>
<!DOCTYPE svg PUBLIC "-//W3C//DTD SVG 1.1//EN"
 "http://www.w3.org/Graphics/SVG/1.1/DTD/svg11.dtd">
<!-- Generated by graphviz version 2.43.0 (0)
 -->
<!-- Pages: 1 -->
<svg width="1192pt" height="410pt"
 viewBox="0.00 0.00 1191.50 410.00" xmlns="http://www.w3.org/2000/svg" xmlns:xlink="http://www.w3.org/1999/xlink">
<g id="graph0" class="graph" transform="scale(1 1) rotate(0) translate(4 406)">
<polygon fill="white" stroke="transparent" points="-4,4 -4,-406 1187.5,-406 1187.5,4 -4,4"/>
<!-- n1 -->
<g id="node1" class="node">
<title>n1</title>
<polygon fill="lightblue" stroke="black" points="634,-384 522.5,-402 299.5,-402 188,-384 299.5,-366 522.5,-366 634,-384"/>
<text text-anchor="middle" x="411" y="-380.3" font-family="Arial" font-size="14.00">Draw a string telephone between two students.</text>
</g>
<!-- n2 -->
<g id="node2" class="node">
<title>n2</title>
<polygon fill="#fffdd0" stroke="black" points="164,-280 0,-280 0,-244 164,-244 164,-280"/>
<text text-anchor="middle" x="82" y="-258.3" font-family="Arial" font-size="14.00">Two stick figure students</text>
</g>
<!-- n1&#45;&gt;n2 -->
<g id="edge1" class="edge">
<title>n1&#45;&gt;n2</title>
<path fill="none" stroke="black" d="M364.21,-365.93C304.65,-344.21 201.84,-306.71 138.12,-283.47"/>
<polygon fill="black" stroke="black" points="139.22,-280.15 128.63,-280.01 136.83,-286.72 139.22,-280.15"/>
</g>
<!-- n3 -->
<g id="node3" class="node">
<title>n3</title>
<polygon fill="#fffdd0" stroke="black" points="592.5,-280 443.5,-280 443.5,-244 592.5,-244 592.5,-280"/>
<text text-anchor="middle" x="518" y="-258.3" font-family="Arial" font-size="14.00">Students holding cups</text>
</g>
<!-- n1&#45;&gt;n3 -->
<g id="edge2" class="edge">
<title>n1&#45;&gt;n3</title>
<path fill="none" stroke="black" d="M426.33,-365.81C444.53,-345.4 475.01,-311.21 495.79,-287.91"/>
<polygon fill="black" stroke="black" points="498.66,-289.95 502.7,-280.16 493.43,-285.29 498.66,-289.95"/>
</g>
<!-- n4 -->
<g id="node4" class="node">
<title>n4</title>
<polygon fill="#fffdd0" stroke="black" points="385.5,-280 222.5,-280 222.5,-244 385.5,-244 385.5,-280"/>
<text text-anchor="middle" x="304" y="-258.3" font-family="Arial" font-size="14.00">Straight blue line (string)</text>
</g>
<!-- n1&#45;&gt;n4 -->
<g id="edge3" class="edge">
<title>n1&#45;&gt;n4</title>
<path fill="none" stroke="black" d="M395.67,-365.81C377.47,-345.4 346.99,-311.21 326.21,-287.91"/>
<polygon fill="black" stroke="black" points="328.57,-285.29 319.3,-280.16 323.34,-289.95 328.57,-285.29"/>
</g>
<!-- n5 -->
<g id="node5" class="node">
<title>n5</title>
<polygon fill="#fffdd0" stroke="black" points="913,-280 699,-280 699,-244 913,-244 913,-280"/>
<text text-anchor="middle" x="806" y="-258.3" font-family="Arial" font-size="14.00">Green curvy lines (sound waves)</text>
</g>
<!-- n1&#45;&gt;n5 -->
<g id="edge4" class="edge">
<title>n1&#45;&gt;n5</title>
<path fill="none" stroke="black" d="M467.17,-365.93C539.13,-344.07 663.64,-306.25 740.03,-283.04"/>
<polygon fill="black" stroke="black" points="741.47,-286.26 750.02,-280.01 739.43,-279.56 741.47,-286.26"/>
</g>
<!-- n6 -->
<g id="node6" class="node">
<title>n6</title>
<path fill="palegreen" stroke="black" d="M254.5,-158C254.5,-158 41.5,-158 41.5,-158 35.5,-158 29.5,-152 29.5,-146 29.5,-146 29.5,-134 29.5,-134 29.5,-128 35.5,-122 41.5,-122 41.5,-122 254.5,-122 254.5,-122 260.5,-122 266.5,-128 266.5,-134 266.5,-134 266.5,-146 266.5,-146 266.5,-152 260.5,-158 254.5,-158"/>
<text text-anchor="middle" x="148" y="-136.3" font-family="Arial" font-size="14.00">Shows communication over distance</text>
</g>
<!-- n2&#45;&gt;n6 -->
<g id="edge5" class="edge">
<title>n2&#45;&gt;n6</title>
<path fill="none" stroke="black" d="M91.46,-243.81C102.48,-223.76 120.83,-190.4 133.62,-167.14"/>
<polygon fill="black" stroke="black" points="136.81,-168.61 138.56,-158.16 130.67,-165.23 136.81,-168.61"/>
</g>
<!-- n7 -->
<g id="node7" class="node">
<title>n7</title>
<path fill="palegreen" stroke="black" d="M600.5,-158C600.5,-158 369.5,-158 369.5,-158 363.5,-158 357.5,-152 357.5,-146 357.5,-146 357.5,-134 357.5,-134 357.5,-128 363.5,-122 369.5,-122 369.5,-122 600.5,-122 600.5,-122 606.5,-122 612.5,-128 612.5,-134 612.5,-134 612.5,-146 612.5,-146 612.5,-152 606.5,-158 600.5,-158"/>
<text text-anchor="middle" x="485" y="-136.3" font-family="Arial" font-size="14.00">Use of everyday materials (cups, string)</text>
</g>
<!-- n3&#45;&gt;n7 -->
<g id="edge6" class="edge">
<title>n3&#45;&gt;n7</title>
<path fill="none" stroke="black" d="M513.27,-243.81C507.83,-224.02 498.83,-191.29 492.45,-168.08"/>
<polygon fill="black" stroke="black" points="495.75,-166.87 489.72,-158.16 489,-168.73 495.75,-166.87"/>
</g>
<!-- n4&#45;&gt;n6 -->
<g id="edge7" class="edge">
<title>n4&#45;&gt;n6</title>
<path fill="none" stroke="black" d="M281.65,-243.81C254.54,-222.96 208.72,-187.71 178.42,-164.4"/>
<polygon fill="black" stroke="black" points="180.37,-161.48 170.31,-158.16 176.1,-167.03 180.37,-161.48"/>
</g>
<!-- n8 -->
<g id="node8" class="node">
<title>n8</title>
<polygon fill="lightcoral" stroke="black" points="887,-158 670,-140 887,-122 1104,-140 887,-158"/>
<text text-anchor="middle" x="887" y="-136.3" font-family="Arial" font-size="14.00">Illustrates sound waves incompletely</text>
</g>
<!-- n5&#45;&gt;n8 -->
<g id="edge8" class="edge">
<title>n5&#45;&gt;n8</title>
<path fill="none" stroke="black" d="M817.61,-243.81C831.41,-223.35 854.57,-189.04 870.31,-165.73"/>
<polygon fill="black" stroke="black" points="873.25,-167.64 875.94,-157.39 867.44,-163.72 873.25,-167.64"/>
</g>
<!-- n9 -->
<g id="node9" class="node">
<title>n9</title>
<polygon fill="#f28e8e" stroke="black" points="1183.5,-36 590.5,-36 590.5,0 1183.5,0 1183.5,-36"/>
<text text-anchor="middle" x="887" y="-14.3" font-family="Arial" font-size="14.00">Include clear labeling of components; ensure sound waves are shown reaching the right student.</text>
</g>
<!-- n8&#45;&gt;n9 -->
<g id="edge9" class="edge">
<title>n8&#45;&gt;n9</title>
<path fill="none" stroke="black" d="M887,-121.81C887,-102.11 887,-69.58 887,-46.39"/>
<polygon fill="black" stroke="black" points="890.5,-46.16 887,-36.16 883.5,-46.16 890.5,-46.16"/>
</g>
</g>
</svg>
