<?xml version="1.0" encoding="UTF-8" standalone="no"?>
<!DOCTYPE svg PUBLIC "-//W3C//DTD SVG 1.1//EN"
 "http://www.w3.org/Graphics/SVG/1.1/DTD/svg11.dtd">
<!-- Generated by graphviz version 2.43.0 (0)
 -->
<!-- Pages: 1 -->
<svg width="1939pt" height="288pt"
 viewBox="0.00 0.00 1938.50 288.00" xmlns="http://www.w3.org/2000/svg" xmlns:xlink="http://www.w3.org/1999/xlink">
<g id="graph0" class="graph" transform="scale(1 1) rotate(0) translate(4 284)">
<polygon fill="white" stroke="transparent" points="-4,4 -4,-284 1934.5,-284 1934.5,4 -4,4"/>
<!-- n1 -->
<g id="node1" class="node">
<title>n1</title>
<polygon fill="lightblue" stroke="black" points="1139,-262 1047.75,-280 865.25,-280 774,-262 865.25,-244 1047.75,-244 1139,-262"/>
<text text-anchor="middle" x="956.5" y="-258.3" font-family="Arial" font-size="14.00">Draw a fish in their habitat with labels.</text>
</g>
<!-- n2 -->
<g id="node2" class="node">
<title>n2</title>
<polygon fill="#fffdd0" stroke="black" points="425,-158 0,-158 0,-122 425,-122 425,-158"/>
<text text-anchor="middle" x="212.5" y="-136.3" font-family="Arial" font-size="14.00">A colorful, detailed drawing of a fish with labeled parts: fins, tail, gills.</text>
</g>
<!-- n1&#45;&gt;n2 -->
<g id="edge1" class="edge">
<title>n1&#45;&gt;n2</title>
<path fill="none" stroke="black" d="M858.85,-245.25C722.04,-223.18 473.76,-183.14 327.96,-159.62"/>
<polygon fill="black" stroke="black" points="328.51,-156.16 318.08,-158.03 327.4,-163.07 328.51,-156.16"/>
</g>
<!-- n3 -->
<g id="node3" class="node">
<title>n3</title>
<polygon fill="#fffdd0" stroke="black" points="750,-158 483,-158 483,-122 750,-122 750,-158"/>
<text text-anchor="middle" x="616.5" y="-136.3" font-family="Arial" font-size="14.00">River habitat illustrated with flowing water.</text>
</g>
<!-- n1&#45;&gt;n3 -->
<g id="edge2" class="edge">
<title>n1&#45;&gt;n3</title>
<path fill="none" stroke="black" d="M908.15,-243.93C846.59,-222.21 740.34,-184.71 674.5,-161.47"/>
<polygon fill="black" stroke="black" points="675.28,-158.04 664.69,-158.01 672.96,-164.64 675.28,-158.04"/>
</g>
<!-- n4 -->
<g id="node4" class="node">
<title>n4</title>
<polygon fill="#fffdd0" stroke="black" points="1105,-158 808,-158 808,-122 1105,-122 1105,-158"/>
<text text-anchor="middle" x="956.5" y="-136.3" font-family="Arial" font-size="14.00">Labeled elements: green seaweed, gray rocks.</text>
</g>
<!-- n1&#45;&gt;n4 -->
<g id="edge3" class="edge">
<title>n1&#45;&gt;n4</title>
<path fill="none" stroke="black" d="M956.5,-243.81C956.5,-224.11 956.5,-191.58 956.5,-168.39"/>
<polygon fill="black" stroke="black" points="960,-168.16 956.5,-158.16 953,-168.16 960,-168.16"/>
</g>
<!-- n5 -->
<g id="node5" class="node">
<title>n5</title>
<polygon fill="#fffdd0" stroke="black" points="1442.5,-158 1206.5,-158 1206.5,-122 1442.5,-122 1442.5,-158"/>
<text text-anchor="middle" x="1324.5" y="-136.3" font-family="Arial" font-size="14.00">Interactions with small fish and snail.</text>
</g>
<!-- n1&#45;&gt;n5 -->
<g id="edge4" class="edge">
<title>n1&#45;&gt;n5</title>
<path fill="none" stroke="black" d="M1008.8,-243.93C1075.7,-222.12 1191.4,-184.4 1262.6,-161.18"/>
<polygon fill="black" stroke="black" points="1263.88,-164.44 1272.3,-158.01 1261.71,-157.79 1263.88,-164.44"/>
</g>
<!-- n6 -->
<g id="node6" class="node">
<title>n6</title>
<polygon fill="#fffdd0" stroke="black" points="1895,-158 1540,-158 1540,-122 1895,-122 1895,-158"/>
<text text-anchor="middle" x="1717.5" y="-136.3" font-family="Arial" font-size="14.00">Fish positioned to show swimming and hiding behaviors.</text>
</g>
<!-- n1&#45;&gt;n6 -->
<g id="edge5" class="edge">
<title>n1&#45;&gt;n6</title>
<path fill="none" stroke="black" d="M1055.2,-245.44C1194.9,-223.41 1449.8,-183.22 1599.3,-159.64"/>
<polygon fill="black" stroke="black" points="1600.16,-163.05 1609.5,-158.04 1599.08,-156.13 1600.16,-163.05"/>
</g>
<!-- n7 -->
<g id="node7" class="node">
<title>n7</title>
<path fill="palegreen" stroke="black" d="M331.5,-36C331.5,-36 93.5,-36 93.5,-36 87.5,-36 81.5,-30 81.5,-24 81.5,-24 81.5,-12 81.5,-12 81.5,-6 87.5,0 93.5,0 93.5,0 331.5,0 331.5,0 337.5,0 343.5,-6 343.5,-12 343.5,-12 343.5,-24 343.5,-24 343.5,-30 337.5,-36 331.5,-36"/>
<text text-anchor="middle" x="212.5" y="-14.3" font-family="Arial" font-size="14.00">Understands fish anatomy: fins, tail, gills.</text>
</g>
<!-- n2&#45;&gt;n7 -->
<g id="edge6" class="edge">
<title>n2&#45;&gt;n7</title>
<path fill="none" stroke="black" d="M212.5,-121.81C212.5,-102.11 212.5,-69.58 212.5,-46.39"/>
<polygon fill="black" stroke="black" points="216,-46.16 212.5,-36.16 209,-46.16 216,-46.16"/>
</g>
<!-- n8 -->
<g id="node8" class="node">
<title>n8</title>
<path fill="palegreen" stroke="black" d="M689,-36C689,-36 414,-36 414,-36 408,-36 402,-30 402,-24 402,-24 402,-12 402,-12 402,-6 408,0 414,0 414,0 689,0 689,0 695,0 701,-6 701,-12 701,-12 701,-24 701,-24 701,-30 695,-36 689,-36"/>
<text text-anchor="middle" x="551.5" y="-14.3" font-family="Arial" font-size="14.00">Illustrates and understands river as fish habitat.</text>
</g>
<!-- n3&#45;&gt;n8 -->
<g id="edge7" class="edge">
<title>n3&#45;&gt;n8</title>
<path fill="none" stroke="black" d="M607.19,-121.81C596.33,-101.76 578.26,-68.4 565.66,-45.14"/>
<polygon fill="black" stroke="black" points="568.64,-43.29 560.8,-36.16 562.48,-46.62 568.64,-43.29"/>
</g>
<!-- n9 -->
<g id="node9" class="node">
<title>n9</title>
<path fill="palegreen" stroke="black" d="M1140,-36C1140,-36 771,-36 771,-36 765,-36 759,-30 759,-24 759,-24 759,-12 759,-12 759,-6 765,0 771,0 771,0 1140,0 1140,0 1146,0 1152,-6 1152,-12 1152,-12 1152,-24 1152,-24 1152,-30 1146,-36 1140,-36"/>
<text text-anchor="middle" x="955.5" y="-14.3" font-family="Arial" font-size="14.00">Understands and illustrates habitat elements: plants and rocks.</text>
</g>
<!-- n4&#45;&gt;n9 -->
<g id="edge8" class="edge">
<title>n4&#45;&gt;n9</title>
<path fill="none" stroke="black" d="M956.36,-121.81C956.19,-102.11 955.92,-69.58 955.73,-46.39"/>
<polygon fill="black" stroke="black" points="959.23,-46.13 955.64,-36.16 952.23,-46.19 959.23,-46.13"/>
</g>
<!-- n10 -->
<g id="node10" class="node">
<title>n10</title>
<path fill="palegreen" stroke="black" d="M1512.5,-36C1512.5,-36 1222.5,-36 1222.5,-36 1216.5,-36 1210.5,-30 1210.5,-24 1210.5,-24 1210.5,-12 1210.5,-12 1210.5,-6 1216.5,0 1222.5,0 1222.5,0 1512.5,0 1512.5,0 1518.5,0 1524.5,-6 1524.5,-12 1524.5,-12 1524.5,-24 1524.5,-24 1524.5,-30 1518.5,-36 1512.5,-36"/>
<text text-anchor="middle" x="1367.5" y="-14.3" font-family="Arial" font-size="14.00">Shows interaction and relationships in the habitat.</text>
</g>
<!-- n5&#45;&gt;n10 -->
<g id="edge9" class="edge">
<title>n5&#45;&gt;n10</title>
<path fill="none" stroke="black" d="M1330.7,-121.81C1337.8,-101.94 1349.6,-68.99 1357.9,-45.76"/>
<polygon fill="black" stroke="black" points="1361.26,-46.75 1361.4,-36.16 1354.69,-44.36 1361.26,-46.75"/>
</g>
<!-- n11 -->
<g id="node11" class="node">
<title>n11</title>
<path fill="palegreen" stroke="black" d="M1918.5,-36C1918.5,-36 1594.5,-36 1594.5,-36 1588.5,-36 1582.5,-30 1582.5,-24 1582.5,-24 1582.5,-12 1582.5,-12 1582.5,-6 1588.5,0 1594.5,0 1594.5,0 1918.5,0 1918.5,0 1924.5,0 1930.5,-6 1930.5,-12 1930.5,-12 1930.5,-24 1930.5,-24 1930.5,-30 1924.5,-36 1918.5,-36"/>
<text text-anchor="middle" x="1756.5" y="-14.3" font-family="Arial" font-size="14.00">Demonstrates understanding of fish behavior in habitat.</text>
</g>
<!-- n6&#45;&gt;n11 -->
<g id="edge10" class="edge">
<title>n6&#45;&gt;n11</title>
<path fill="none" stroke="black" d="M1723.1,-121.81C1729.5,-101.94 1740.3,-68.99 1747.8,-45.76"/>
<polygon fill="black" stroke="black" points="1751.16,-46.75 1750.9,-36.16 1744.5,-44.6 1751.16,-46.75"/>
</g>
</g>
</svg>
