<?xml version="1.0" encoding="UTF-8" standalone="no"?>
<!DOCTYPE svg PUBLIC "-//W3C//DTD SVG 1.1//EN"
 "http://www.w3.org/Graphics/SVG/1.1/DTD/svg11.dtd">
<!-- Generated by graphviz version 2.43.0 (0)
 -->
<!-- Pages: 1 -->
<svg width="2125pt" height="532pt"
 viewBox="0.00 0.00 2125.00 532.00" xmlns="http://www.w3.org/2000/svg" xmlns:xlink="http://www.w3.org/1999/xlink">
<g id="graph0" class="graph" transform="scale(1 1) rotate(0) translate(4 528)">
<polygon fill="white" stroke="transparent" points="-4,4 -4,-528 2121,-528 2121,4 -4,4"/>
<!-- n1 -->
<g id="node1" class="node">
<title>n1</title>
<polygon fill="lightblue" stroke="black" points="1460.5,-506 1346.75,-524 1119.25,-524 1005.5,-506 1119.25,-488 1346.75,-488 1460.5,-506"/>
<text text-anchor="middle" x="1233" y="-502.3" font-family="Arial" font-size="14.00">Illustrate plants with and without water and light.</text>
</g>
<!-- n2 -->
<g id="node2" class="node">
<title>n2</title>
<polygon fill="#fffdd0" stroke="black" points="704,-402 486,-402 486,-366 704,-366 704,-402"/>
<text text-anchor="middle" x="595" y="-380.3" font-family="Arial" font-size="14.00">Two identical plants, both healthy.</text>
</g>
<!-- n1&#45;&gt;n2 -->
<g id="edge1" class="edge">
<title>n1&#45;&gt;n2</title>
<path fill="none" stroke="black" d="M1142.6,-488C1024.6,-465.8 818.59,-427.05 695.69,-403.94"/>
<polygon fill="black" stroke="black" points="695.99,-400.44 685.52,-402.03 694.7,-407.32 695.99,-400.44"/>
</g>
<!-- n3 -->
<g id="node3" class="node">
<title>n3</title>
<polygon fill="#fffdd0" stroke="black" points="1346.5,-402 1119.5,-402 1119.5,-366 1346.5,-366 1346.5,-402"/>
<text text-anchor="middle" x="1233" y="-380.3" font-family="Arial" font-size="14.00">Raindrop shapes around one plant.</text>
</g>
<!-- n1&#45;&gt;n3 -->
<g id="edge2" class="edge">
<title>n1&#45;&gt;n3</title>
<path fill="none" stroke="black" d="M1233,-487.81C1233,-468.11 1233,-435.58 1233,-412.39"/>
<polygon fill="black" stroke="black" points="1236.5,-412.16 1233,-402.16 1229.5,-412.16 1236.5,-412.16"/>
</g>
<!-- n4 -->
<g id="node4" class="node">
<title>n4</title>
<polygon fill="#fffdd0" stroke="black" points="1792.5,-402 1559.5,-402 1559.5,-366 1792.5,-366 1792.5,-402"/>
<text text-anchor="middle" x="1676" y="-380.3" font-family="Arial" font-size="14.00">Same sun drawn above both plants.</text>
</g>
<!-- n1&#45;&gt;n4 -->
<g id="edge3" class="edge">
<title>n1&#45;&gt;n4</title>
<path fill="none" stroke="black" d="M1296,-487.93C1377.1,-465.96 1517.8,-427.86 1603.3,-404.69"/>
<polygon fill="black" stroke="black" points="1604.46,-408 1613.2,-402.01 1602.63,-401.24 1604.46,-408"/>
</g>
<!-- n5 -->
<g id="node5" class="node">
<title>n5</title>
<path fill="palegreen" stroke="black" d="M206,-280C206,-280 12,-280 12,-280 6,-280 0,-274 0,-268 0,-268 0,-256 0,-256 0,-250 6,-244 12,-244 12,-244 206,-244 206,-244 212,-244 218,-250 218,-256 218,-256 218,-268 218,-268 218,-274 212,-280 206,-280"/>
<text text-anchor="middle" x="109" y="-258.3" font-family="Arial" font-size="14.00">Plant needs water to stay healthy.</text>
</g>
<!-- n2&#45;&gt;n5 -->
<g id="edge4" class="edge">
<title>n2&#45;&gt;n5</title>
<path fill="none" stroke="black" d="M526.14,-366C436.87,-343.95 281.52,-305.6 187.68,-282.43"/>
<polygon fill="black" stroke="black" points="188.51,-279.03 177.96,-280.03 186.83,-285.83 188.51,-279.03"/>
</g>
<!-- n6 -->
<g id="node6" class="node">
<title>n6</title>
<polygon fill="lightcoral" stroke="black" points="595,-280 276,-262 595,-244 914,-262 595,-280"/>
<text text-anchor="middle" x="595" y="-258.3" font-family="Arial" font-size="14.00">No visible difference in plant appearance without water.</text>
</g>
<!-- n2&#45;&gt;n6 -->
<g id="edge5" class="edge">
<title>n2&#45;&gt;n6</title>
<path fill="none" stroke="black" d="M595,-365.81C595,-346.11 595,-313.58 595,-290.39"/>
<polygon fill="black" stroke="black" points="598.5,-290.16 595,-280.16 591.5,-290.16 598.5,-290.16"/>
</g>
<!-- n7 -->
<g id="node7" class="node">
<title>n7</title>
<polygon fill="lightcoral" stroke="black" points="1233,-280 971.92,-262 1233,-244 1494.08,-262 1233,-280"/>
<text text-anchor="middle" x="1233" y="-258.3" font-family="Arial" font-size="14.00">Plants with and without water look the same.</text>
</g>
<!-- n3&#45;&gt;n7 -->
<g id="edge6" class="edge">
<title>n3&#45;&gt;n7</title>
<path fill="none" stroke="black" d="M1233,-365.81C1233,-346.11 1233,-313.58 1233,-290.39"/>
<polygon fill="black" stroke="black" points="1236.5,-290.16 1233,-280.16 1229.5,-290.16 1236.5,-290.16"/>
</g>
<!-- n8 -->
<g id="node8" class="node">
<title>n8</title>
<polygon fill="lightcoral" stroke="black" points="1831,-280 1552.49,-262 1831,-244 2109.51,-262 1831,-280"/>
<text text-anchor="middle" x="1831" y="-258.3" font-family="Arial" font-size="14.00">Misunderstanding of water&#39;s role in plant health.</text>
</g>
<!-- n4&#45;&gt;n8 -->
<g id="edge7" class="edge">
<title>n4&#45;&gt;n8</title>
<path fill="none" stroke="black" d="M1698.2,-365.81C1725.6,-344.6 1772.2,-308.51 1802.3,-285.22"/>
<polygon fill="black" stroke="black" points="1804.55,-287.91 1810.3,-279.01 1800.25,-282.38 1804.55,-287.91"/>
</g>
<!-- n9 -->
<g id="node9" class="node">
<title>n9</title>
<polygon fill="#f28e8e" stroke="black" points="742.5,-158 447.5,-158 447.5,-122 742.5,-122 742.5,-158"/>
<text text-anchor="middle" x="595" y="-136.3" font-family="Arial" font-size="14.00">Include signs of wilting when plant lacks water.</text>
</g>
<!-- n6&#45;&gt;n9 -->
<g id="edge8" class="edge">
<title>n6&#45;&gt;n9</title>
<path fill="none" stroke="black" d="M595,-243.81C595,-224.11 595,-191.58 595,-168.39"/>
<polygon fill="black" stroke="black" points="598.5,-168.16 595,-158.16 591.5,-168.16 598.5,-168.16"/>
</g>
<!-- n10 -->
<g id="node10" class="node">
<title>n10</title>
<polygon fill="lightcoral" stroke="black" points="1831,-158 1545,-140 1831,-122 2117,-140 1831,-158"/>
<text text-anchor="middle" x="1831" y="-136.3" font-family="Arial" font-size="14.00">Different plant appearance when kept in the dark.</text>
</g>
<!-- n8&#45;&gt;n10 -->
<g id="edge9" class="edge">
<title>n8&#45;&gt;n10</title>
<path fill="none" stroke="black" d="M1831,-243.81C1831,-224.11 1831,-191.58 1831,-168.39"/>
<polygon fill="black" stroke="black" points="1834.5,-168.16 1831,-158.16 1827.5,-168.16 1834.5,-168.16"/>
</g>
<!-- n11 -->
<g id="node11" class="node">
<title>n11</title>
<polygon fill="#f28e8e" stroke="black" points="1994,-36 1668,-36 1668,0 1994,0 1994,-36"/>
<text text-anchor="middle" x="1831" y="-14.3" font-family="Arial" font-size="14.00">Include a demonstration of light&#39;s impact on growth.</text>
</g>
<!-- n10&#45;&gt;n11 -->
<g id="edge10" class="edge">
<title>n10&#45;&gt;n11</title>
<path fill="none" stroke="black" d="M1831,-121.81C1831,-102.11 1831,-69.58 1831,-46.39"/>
<polygon fill="black" stroke="black" points="1834.5,-46.16 1831,-36.16 1827.5,-46.16 1834.5,-46.16"/>
</g>
</g>
</svg>
