<?xml version="1.0" encoding="UTF-8" standalone="no"?>
<!DOCTYPE svg PUBLIC "-//W3C//DTD SVG 1.1//EN"
 "http://www.w3.org/Graphics/SVG/1.1/DTD/svg11.dtd">
<!-- Generated by graphviz version 2.43.0 (0)
 -->
<!-- Pages: 1 -->
<svg width="1942pt" height="410pt"
 viewBox="0.00 0.00 1942.24 410.00" xmlns="http://www.w3.org/2000/svg" xmlns:xlink="http://www.w3.org/1999/xlink">
<g id="graph0" class="graph" transform="scale(1 1) rotate(0) translate(4 406)">
<polygon fill="white" stroke="transparent" points="-4,4 -4,-406 1938.24,-406 1938.24,4 -4,4"/>
<!-- n1 -->
<g id="node1" class="node">
<title>n1</title>
<polygon fill="lightblue" stroke="black" points="1156.32,-384 1033.91,-402 789.09,-402 666.68,-384 789.09,-366 1033.91,-366 1156.32,-384"/>
<text text-anchor="middle" x="911.5" y="-380.3" font-family="Arial" font-size="14.00">Draw a habitat and the different living things in each</text>
</g>
<!-- n2 -->
<g id="node2" class="node">
<title>n2</title>
<polygon fill="#fffdd0" stroke="black" points="748.5,-280 518.5,-280 518.5,-244 748.5,-244 748.5,-280"/>
<text text-anchor="middle" x="633.5" y="-258.3" font-family="Arial" font-size="14.00">Forest with a single tree and a bush</text>
</g>
<!-- n1&#45;&gt;n2 -->
<g id="edge1" class="edge">
<title>n1&#45;&gt;n2</title>
<path fill="none" stroke="black" d="M871.96,-365.93C822.05,-344.39 736.19,-307.32 682.25,-284.04"/>
<polygon fill="black" stroke="black" points="683.47,-280.75 672.9,-280.01 680.7,-287.18 683.47,-280.75"/>
</g>
<!-- n3 -->
<g id="node3" class="node">
<title>n3</title>
<polygon fill="#fffdd0" stroke="black" points="1280.5,-280 1098.5,-280 1098.5,-244 1280.5,-244 1280.5,-280"/>
<text text-anchor="middle" x="1189.5" y="-258.3" font-family="Arial" font-size="14.00">Pond with a fish and a duck</text>
</g>
<!-- n1&#45;&gt;n3 -->
<g id="edge2" class="edge">
<title>n1&#45;&gt;n3</title>
<path fill="none" stroke="black" d="M951.04,-365.93C1001,-344.39 1086.8,-307.32 1140.7,-284.04"/>
<polygon fill="black" stroke="black" points="1142.29,-287.17 1150.1,-280.01 1139.53,-280.73 1142.29,-287.17"/>
</g>
<!-- n4 -->
<g id="node4" class="node">
<title>n4</title>
<path fill="palegreen" stroke="black" d="M269,-158C269,-158 12,-158 12,-158 6,-158 0,-152 0,-146 0,-146 0,-134 0,-134 0,-128 6,-122 12,-122 12,-122 269,-122 269,-122 275,-122 281,-128 281,-134 281,-134 281,-146 281,-146 281,-152 275,-158 269,-158"/>
<text text-anchor="middle" x="140.5" y="-136.3" font-family="Arial" font-size="14.00">Understands different habitats (forest, pond)</text>
</g>
<!-- n2&#45;&gt;n4 -->
<g id="edge3" class="edge">
<title>n2&#45;&gt;n4</title>
<path fill="none" stroke="black" d="M563.65,-244C473.09,-221.95 315.51,-183.6 220.32,-160.43"/>
<polygon fill="black" stroke="black" points="220.99,-156.99 210.45,-158.03 219.34,-163.79 220.99,-156.99"/>
</g>
<!-- n6 -->
<g id="node5" class="node">
<title>n6</title>
<polygon fill="lightcoral" stroke="black" points="633.5,-158 339.24,-140 633.5,-122 927.76,-140 633.5,-158"/>
<text text-anchor="middle" x="633.5" y="-136.3" font-family="Arial" font-size="14.00">Misunderstands habitat diversity; limited examples</text>
</g>
<!-- n2&#45;&gt;n6 -->
<g id="edge4" class="edge">
<title>n2&#45;&gt;n6</title>
<path fill="none" stroke="black" d="M633.5,-243.81C633.5,-224.11 633.5,-191.58 633.5,-168.39"/>
<polygon fill="black" stroke="black" points="637,-168.16 633.5,-158.16 630,-168.16 637,-168.16"/>
</g>
<!-- n5 -->
<g id="node6" class="node">
<title>n5</title>
<path fill="palegreen" stroke="black" d="M1381,-158C1381,-158 998,-158 998,-158 992,-158 986,-152 986,-146 986,-146 986,-134 986,-134 986,-128 992,-122 998,-122 998,-122 1381,-122 1381,-122 1387,-122 1393,-128 1393,-134 1393,-134 1393,-146 1393,-146 1393,-152 1387,-158 1381,-158"/>
<text text-anchor="middle" x="1189.5" y="-136.3" font-family="Arial" font-size="14.00">Understands some living things in habitats (tree, bush, fish, duck)</text>
</g>
<!-- n3&#45;&gt;n5 -->
<g id="edge5" class="edge">
<title>n3&#45;&gt;n5</title>
<path fill="none" stroke="black" d="M1189.5,-243.81C1189.5,-224.11 1189.5,-191.58 1189.5,-168.39"/>
<polygon fill="black" stroke="black" points="1193,-168.16 1189.5,-158.16 1186,-168.16 1193,-168.16"/>
</g>
<!-- n7 -->
<g id="node7" class="node">
<title>n7</title>
<polygon fill="lightcoral" stroke="black" points="1692.5,-158 1450.52,-140 1692.5,-122 1934.48,-140 1692.5,-158"/>
<text text-anchor="middle" x="1692.5" y="-136.3" font-family="Arial" font-size="14.00">Difficulty separating and defining habitats</text>
</g>
<!-- n3&#45;&gt;n7 -->
<g id="edge6" class="edge">
<title>n3&#45;&gt;n7</title>
<path fill="none" stroke="black" d="M1260.8,-244C1358.8,-220.6 1533.9,-178.84 1628.2,-156.35"/>
<polygon fill="black" stroke="black" points="1629.2,-159.71 1638.1,-153.97 1627.56,-152.9 1629.2,-159.71"/>
</g>
<!-- n8 -->
<g id="node8" class="node">
<title>n8</title>
<polygon fill="#f28e8e" stroke="black" points="805.5,-36 461.5,-36 461.5,0 805.5,0 805.5,-36"/>
<text text-anchor="middle" x="633.5" y="-14.3" font-family="Arial" font-size="14.00">Provide more examples of different plants and animals</text>
</g>
<!-- n6&#45;&gt;n8 -->
<g id="edge7" class="edge">
<title>n6&#45;&gt;n8</title>
<path fill="none" stroke="black" d="M633.5,-121.81C633.5,-102.11 633.5,-69.58 633.5,-46.39"/>
<polygon fill="black" stroke="black" points="637,-46.16 633.5,-36.16 630,-46.16 637,-46.16"/>
</g>
<!-- n9 -->
<g id="node9" class="node">
<title>n9</title>
<polygon fill="#f28e8e" stroke="black" points="1822.5,-36 1562.5,-36 1562.5,0 1822.5,0 1822.5,-36"/>
<text text-anchor="middle" x="1692.5" y="-14.3" font-family="Arial" font-size="14.00">Encourage clearer separation of habitats</text>
</g>
<!-- n7&#45;&gt;n9 -->
<g id="edge8" class="edge">
<title>n7&#45;&gt;n9</title>
<path fill="none" stroke="black" d="M1692.5,-121.81C1692.5,-102.11 1692.5,-69.58 1692.5,-46.39"/>
<polygon fill="black" stroke="black" points="1696,-46.16 1692.5,-36.16 1689,-46.16 1696,-46.16"/>
</g>
</g>
</svg>
