<?xml version="1.0" encoding="UTF-8" standalone="no"?>
<!DOCTYPE svg PUBLIC "-//W3C//DTD SVG 1.1//EN"
 "http://www.w3.org/Graphics/SVG/1.1/DTD/svg11.dtd">
<!-- Generated by graphviz version 2.43.0 (0)
 -->
<!-- Pages: 1 -->
<svg width="1237pt" height="410pt"
 viewBox="0.00 0.00 1236.50 410.00" xmlns="http://www.w3.org/2000/svg" xmlns:xlink="http://www.w3.org/1999/xlink">
<g id="graph0" class="graph" transform="scale(1 1) rotate(0) translate(4 406)">
<polygon fill="white" stroke="transparent" points="-4,4 -4,-406 1232.5,-406 1232.5,4 -4,4"/>
<!-- n1 -->
<g id="node1" class="node">
<title>n1</title>
<polygon fill="lightblue" stroke="black" points="747,-384 616.75,-402 356.25,-402 226,-384 356.25,-366 616.75,-366 747,-384"/>
<text text-anchor="middle" x="486.5" y="-380.3" font-family="Arial" font-size="14.00">Draw two habitats and the different living things in each</text>
</g>
<!-- n2 -->
<g id="node2" class="node">
<title>n2</title>
<polygon fill="#fffdd0" stroke="black" points="433,-280 272,-280 272,-244 433,-244 433,-280"/>
<text text-anchor="middle" x="352.5" y="-258.3" font-family="Arial" font-size="14.00">Forest habitat with trees</text>
</g>
<!-- n1&#45;&gt;n2 -->
<g id="edge1" class="edge">
<title>n1&#45;&gt;n2</title>
<path fill="none" stroke="black" d="M467.3,-365.81C444.22,-345.13 405.33,-310.31 379.3,-287"/>
<polygon fill="black" stroke="black" points="381.44,-284.22 371.66,-280.16 376.78,-289.44 381.44,-284.22"/>
</g>
<!-- n3 -->
<g id="node3" class="node">
<title>n3</title>
<polygon fill="#fffdd0" stroke="black" points="749.5,-280 491.5,-280 491.5,-244 749.5,-244 749.5,-280"/>
<text text-anchor="middle" x="620.5" y="-258.3" font-family="Arial" font-size="14.00">Aquatic pond habitat with fish and plants</text>
</g>
<!-- n1&#45;&gt;n3 -->
<g id="edge2" class="edge">
<title>n1&#45;&gt;n3</title>
<path fill="none" stroke="black" d="M505.7,-365.81C528.78,-345.13 567.67,-310.31 593.7,-287"/>
<polygon fill="black" stroke="black" points="596.22,-289.44 601.34,-280.16 591.56,-284.22 596.22,-289.44"/>
</g>
<!-- n4 -->
<g id="node4" class="node">
<title>n4</title>
<path fill="palegreen" stroke="black" d="M177,-158C177,-158 12,-158 12,-158 6,-158 0,-152 0,-146 0,-146 0,-134 0,-134 0,-128 6,-122 12,-122 12,-122 177,-122 177,-122 183,-122 189,-128 189,-134 189,-134 189,-146 189,-146 189,-152 183,-158 177,-158"/>
<text text-anchor="middle" x="94.5" y="-136.3" font-family="Arial" font-size="14.00">Identification of forest habitat</text>
</g>
<!-- n2&#45;&gt;n4 -->
<g id="edge3" class="edge">
<title>n2&#45;&gt;n4</title>
<path fill="none" stroke="black" d="M315.81,-243.93C269.67,-222.48 190.46,-185.63 140.37,-162.33"/>
<polygon fill="black" stroke="black" points="141.6,-159.04 131.06,-158.01 138.66,-165.39 141.6,-159.04"/>
</g>
<!-- n6 -->
<g id="node5" class="node">
<title>n6</title>
<path fill="palegreen" stroke="black" d="M458,-158C458,-158 259,-158 259,-158 253,-158 247,-152 247,-146 247,-146 247,-134 247,-134 247,-128 253,-122 259,-122 259,-122 458,-122 458,-122 464,-122 470,-128 470,-134 470,-134 470,-146 470,-146 470,-152 464,-158 458,-158"/>
<text text-anchor="middle" x="358.5" y="-136.3" font-family="Arial" font-size="14.00">Diversity of living things in habitats</text>
</g>
<!-- n2&#45;&gt;n6 -->
<g id="edge4" class="edge">
<title>n2&#45;&gt;n6</title>
<path fill="none" stroke="black" d="M353.36,-243.81C354.34,-224.11 355.97,-191.58 357.13,-168.39"/>
<polygon fill="black" stroke="black" points="360.64,-168.32 357.64,-158.16 353.65,-167.97 360.64,-168.32"/>
</g>
<!-- n3&#45;&gt;n6 -->
<g id="edge5" class="edge">
<title>n3&#45;&gt;n6</title>
<path fill="none" stroke="black" d="M583.24,-243.93C536.29,-222.43 455.61,-185.48 404.76,-162.19"/>
<polygon fill="black" stroke="black" points="406.18,-158.99 395.63,-158.01 403.27,-165.36 406.18,-158.99"/>
</g>
<!-- n5 -->
<g id="node6" class="node">
<title>n5</title>
<path fill="palegreen" stroke="black" d="M701,-158C701,-158 540,-158 540,-158 534,-158 528,-152 528,-146 528,-146 528,-134 528,-134 528,-128 534,-122 540,-122 540,-122 701,-122 701,-122 707,-122 713,-128 713,-134 713,-134 713,-146 713,-146 713,-152 707,-158 701,-158"/>
<text text-anchor="middle" x="620.5" y="-136.3" font-family="Arial" font-size="14.00">Identification of pond habitat</text>
</g>
<!-- n3&#45;&gt;n5 -->
<g id="edge6" class="edge">
<title>n3&#45;&gt;n5</title>
<path fill="none" stroke="black" d="M620.5,-243.81C620.5,-224.11 620.5,-191.58 620.5,-168.39"/>
<polygon fill="black" stroke="black" points="624,-168.16 620.5,-158.16 617,-168.16 624,-168.16"/>
</g>
<!-- n7 -->
<g id="node7" class="node">
<title>n7</title>
<polygon fill="lightcoral" stroke="black" points="999.5,-158 770.5,-140 999.5,-122 1228.5,-140 999.5,-158"/>
<text text-anchor="middle" x="999.5" y="-136.3" font-family="Arial" font-size="14.00">Proportion inaccuracies (e.g., fish size)</text>
</g>
<!-- n3&#45;&gt;n7 -->
<g id="edge7" class="edge">
<title>n3&#45;&gt;n7</title>
<path fill="none" stroke="black" d="M674.4,-243.93C746.81,-221.01 874.7,-180.51 946.6,-157.75"/>
<polygon fill="black" stroke="black" points="947.88,-161.02 956.36,-154.66 945.77,-154.34 947.88,-161.02"/>
</g>
<!-- n8 -->
<g id="node8" class="node">
<title>n8</title>
<polygon fill="#f28e8e" stroke="black" points="1117.5,-36 881.5,-36 881.5,0 1117.5,0 1117.5,-36"/>
<text text-anchor="middle" x="999.5" y="-14.3" font-family="Arial" font-size="14.00">Use proportion guides to correct size</text>
</g>
<!-- n7&#45;&gt;n8 -->
<g id="edge8" class="edge">
<title>n7&#45;&gt;n8</title>
<path fill="none" stroke="black" d="M999.5,-121.81C999.5,-102.11 999.5,-69.58 999.5,-46.39"/>
<polygon fill="black" stroke="black" points="1003,-46.16 999.5,-36.16 996,-46.16 1003,-46.16"/>
</g>
</g>
</svg>
