<?xml version="1.0" encoding="UTF-8" standalone="no"?>
<!DOCTYPE svg PUBLIC "-//W3C//DTD SVG 1.1//EN"
 "http://www.w3.org/Graphics/SVG/1.1/DTD/svg11.dtd">
<!-- Generated by graphviz version 2.43.0 (0)
 -->
<!-- Pages: 1 -->
<svg width="1813pt" height="410pt"
 viewBox="0.00 0.00 1812.50 410.00" xmlns="http://www.w3.org/2000/svg" xmlns:xlink="http://www.w3.org/1999/xlink">
<g id="graph0" class="graph" transform="scale(1 1) rotate(0) translate(4 406)">
<polygon fill="white" stroke="transparent" points="-4,4 -4,-406 1808.5,-406 1808.5,4 -4,4"/>
<!-- n1 -->
<g id="node1" class="node">
<title>n1</title>
<polygon fill="lightblue" stroke="black" points="780,-384 688.75,-402 506.25,-402 415,-384 506.25,-366 688.75,-366 780,-384"/>
<text text-anchor="middle" x="597.5" y="-380.3" font-family="Arial" font-size="14.00">Draw a fish in their habitat with labels.</text>
</g>
<!-- n2 -->
<g id="node2" class="node">
<title>n2</title>
<polygon fill="#fffdd0" stroke="black" points="285.5,-280 109.5,-280 109.5,-244 285.5,-244 285.5,-280"/>
<text text-anchor="middle" x="197.5" y="-258.3" font-family="Arial" font-size="14.00">Fish (oval with triangle tail)</text>
</g>
<!-- n1&#45;&gt;n2 -->
<g id="edge1" class="edge">
<title>n1&#45;&gt;n2</title>
<path fill="none" stroke="black" d="M540.61,-365.93C467.6,-344.03 341.14,-306.09 263.83,-282.9"/>
<polygon fill="black" stroke="black" points="264.77,-279.53 254.19,-280.01 262.76,-286.23 264.77,-279.53"/>
</g>
<!-- n3 -->
<g id="node3" class="node">
<title>n3</title>
<polygon fill="#fffdd0" stroke="black" points="556,-280 399,-280 399,-244 556,-244 556,-280"/>
<text text-anchor="middle" x="477.5" y="-258.3" font-family="Arial" font-size="14.00">Water (wavy blue lines)</text>
</g>
<!-- n1&#45;&gt;n3 -->
<g id="edge2" class="edge">
<title>n1&#45;&gt;n3</title>
<path fill="none" stroke="black" d="M580.31,-365.81C559.72,-345.22 525.11,-310.61 501.8,-287.3"/>
<polygon fill="black" stroke="black" points="504.21,-284.76 494.66,-280.16 499.26,-289.71 504.21,-284.76"/>
</g>
<!-- n4 -->
<g id="node4" class="node">
<title>n4</title>
<polygon fill="#fffdd0" stroke="black" points="844.5,-280 636.5,-280 636.5,-244 844.5,-244 844.5,-280"/>
<text text-anchor="middle" x="740.5" y="-258.3" font-family="Arial" font-size="14.00">Plant (green with zigzag leaves)</text>
</g>
<!-- n1&#45;&gt;n4 -->
<g id="edge3" class="edge">
<title>n1&#45;&gt;n4</title>
<path fill="none" stroke="black" d="M617.99,-365.81C642.73,-345.04 684.48,-310.01 712.26,-286.7"/>
<polygon fill="black" stroke="black" points="714.64,-289.27 720.05,-280.16 710.14,-283.91 714.64,-289.27"/>
</g>
<!-- n5 -->
<g id="node5" class="node">
<title>n5</title>
<polygon fill="#fffdd0" stroke="black" points="1245.5,-280 1091.5,-280 1091.5,-244 1245.5,-244 1245.5,-280"/>
<text text-anchor="middle" x="1168.5" y="-258.3" font-family="Arial" font-size="14.00">Rocks (gray at bottom)</text>
</g>
<!-- n1&#45;&gt;n5 -->
<g id="edge4" class="edge">
<title>n1&#45;&gt;n5</title>
<path fill="none" stroke="black" d="M678.4,-366C784.91,-343.61 971.45,-304.41 1081.1,-281.37"/>
<polygon fill="black" stroke="black" points="1082.04,-284.75 1091.1,-279.26 1080.59,-277.9 1082.04,-284.75"/>
</g>
<!-- n6 -->
<g id="node6" class="node">
<title>n6</title>
<path fill="palegreen" stroke="black" d="M251,-158C251,-158 12,-158 12,-158 6,-158 0,-152 0,-146 0,-146 0,-134 0,-134 0,-128 6,-122 12,-122 12,-122 251,-122 251,-122 257,-122 263,-128 263,-134 263,-134 263,-146 263,-146 263,-152 257,-158 251,-158"/>
<text text-anchor="middle" x="131.5" y="-136.3" font-family="Arial" font-size="14.00">Correctly identifies fish in its environment</text>
</g>
<!-- n2&#45;&gt;n6 -->
<g id="edge5" class="edge">
<title>n2&#45;&gt;n6</title>
<path fill="none" stroke="black" d="M188.04,-243.81C177.02,-223.76 158.67,-190.4 145.88,-167.14"/>
<polygon fill="black" stroke="black" points="148.83,-165.23 140.94,-158.16 142.69,-168.61 148.83,-165.23"/>
</g>
<!-- n7 -->
<g id="node7" class="node">
<title>n7</title>
<path fill="palegreen" stroke="black" d="M600,-158C600,-158 333,-158 333,-158 327,-158 321,-152 321,-146 321,-146 321,-134 321,-134 321,-128 327,-122 333,-122 333,-122 600,-122 600,-122 606,-122 612,-128 612,-134 612,-134 612,-146 612,-146 612,-152 606,-158 600,-158"/>
<text text-anchor="middle" x="466.5" y="-136.3" font-family="Arial" font-size="14.00">Correctly identifies water as part of the habitat</text>
</g>
<!-- n3&#45;&gt;n7 -->
<g id="edge6" class="edge">
<title>n3&#45;&gt;n7</title>
<path fill="none" stroke="black" d="M475.92,-243.81C474.12,-224.11 471.14,-191.58 469.01,-168.39"/>
<polygon fill="black" stroke="black" points="472.47,-167.8 468.07,-158.16 465.5,-168.44 472.47,-167.8"/>
</g>
<!-- n8 -->
<g id="node8" class="node">
<title>n8</title>
<path fill="palegreen" stroke="black" d="M820.5,-158C820.5,-158 682.5,-158 682.5,-158 676.5,-158 670.5,-152 670.5,-146 670.5,-146 670.5,-134 670.5,-134 670.5,-128 676.5,-122 682.5,-122 682.5,-122 820.5,-122 820.5,-122 826.5,-122 832.5,-128 832.5,-134 832.5,-134 832.5,-146 832.5,-146 832.5,-152 826.5,-158 820.5,-158"/>
<text text-anchor="middle" x="751.5" y="-136.3" font-family="Arial" font-size="14.00">Identifies plant in habitat</text>
</g>
<!-- n4&#45;&gt;n8 -->
<g id="edge7" class="edge">
<title>n4&#45;&gt;n8</title>
<path fill="none" stroke="black" d="M742.08,-243.81C743.88,-224.11 746.86,-191.58 748.99,-168.39"/>
<polygon fill="black" stroke="black" points="752.5,-168.44 749.93,-158.16 745.53,-167.8 752.5,-168.44"/>
</g>
<!-- n9 -->
<g id="node9" class="node">
<title>n9</title>
<polygon fill="lightcoral" stroke="black" points="1347.5,-158 890.5,-140 1347.5,-122 1804.5,-140 1347.5,-158"/>
<text text-anchor="middle" x="1347.5" y="-136.3" font-family="Arial" font-size="14.00">Misunderstood or incomplete: Rocks are labeled but relationship to fish not clear</text>
</g>
<!-- n5&#45;&gt;n9 -->
<g id="edge8" class="edge">
<title>n5&#45;&gt;n9</title>
<path fill="none" stroke="black" d="M1194.1,-243.81C1226,-222.48 1280.2,-186.09 1315,-162.82"/>
<polygon fill="black" stroke="black" points="1316.98,-165.7 1323.3,-157.2 1313.06,-159.91 1316.98,-165.7"/>
</g>
<!-- n10 -->
<g id="node10" class="node">
<title>n10</title>
<polygon fill="#f28e8e" stroke="black" points="1615.5,-36 1079.5,-36 1079.5,0 1615.5,0 1615.5,-36"/>
<text text-anchor="middle" x="1347.5" y="-14.3" font-family="Arial" font-size="14.00">Consider adding more about how rocks might provide shelter or impact water condition</text>
</g>
<!-- n9&#45;&gt;n10 -->
<g id="edge9" class="edge">
<title>n9&#45;&gt;n10</title>
<path fill="none" stroke="black" d="M1347.5,-121.81C1347.5,-102.11 1347.5,-69.58 1347.5,-46.39"/>
<polygon fill="black" stroke="black" points="1351,-46.16 1347.5,-36.16 1344,-46.16 1351,-46.16"/>
</g>
</g>
</svg>
