<?xml version="1.0" encoding="UTF-8" standalone="no"?>
<!DOCTYPE svg PUBLIC "-//W3C//DTD SVG 1.1//EN"
 "http://www.w3.org/Graphics/SVG/1.1/DTD/svg11.dtd">
<!-- Generated by graphviz version 2.43.0 (0)
 -->
<!-- Pages: 1 -->
<svg width="2127pt" height="410pt"
 viewBox="0.00 0.00 2127.00 410.00" xmlns="http://www.w3.org/2000/svg" xmlns:xlink="http://www.w3.org/1999/xlink">
<g id="graph0" class="graph" transform="scale(1 1) rotate(0) translate(4 406)">
<polygon fill="white" stroke="transparent" points="-4,4 -4,-406 2123,-406 2123,4 -4,4"/>
<!-- n1 -->
<g id="node1" class="node">
<title>n1</title>
<polygon fill="lightblue" stroke="black" points="1238.32,-384 1115.91,-402 871.09,-402 748.68,-384 871.09,-366 1115.91,-366 1238.32,-384"/>
<text text-anchor="middle" x="993.5" y="-380.3" font-family="Arial" font-size="14.00">Draw a habitat and the different living things in each</text>
</g>
<!-- n2 -->
<g id="node2" class="node">
<title>n2</title>
<polygon fill="#fffdd0" stroke="black" points="303,-280 106,-280 106,-244 303,-244 303,-280"/>
<text text-anchor="middle" x="204.5" y="-258.3" font-family="Arial" font-size="14.00">Forest with oak and pine trees</text>
</g>
<!-- n1&#45;&gt;n2 -->
<g id="edge1" class="edge">
<title>n1&#45;&gt;n2</title>
<path fill="none" stroke="black" d="M881.71,-366C730.55,-343.01 462.72,-302.27 313.18,-279.53"/>
<polygon fill="black" stroke="black" points="313.47,-276.03 303.06,-277.99 312.42,-282.95 313.47,-276.03"/>
</g>
<!-- n3 -->
<g id="node3" class="node">
<title>n3</title>
<polygon fill="#fffdd0" stroke="black" points="789.5,-280 651.5,-280 651.5,-244 789.5,-244 789.5,-280"/>
<text text-anchor="middle" x="720.5" y="-258.3" font-family="Arial" font-size="14.00">Squirrel on a branch</text>
</g>
<!-- n1&#45;&gt;n3 -->
<g id="edge2" class="edge">
<title>n1&#45;&gt;n3</title>
<path fill="none" stroke="black" d="M954.68,-365.93C905.65,-344.39 821.34,-307.32 768.38,-284.04"/>
<polygon fill="black" stroke="black" points="769.75,-280.82 759.19,-280.01 766.94,-287.23 769.75,-280.82"/>
</g>
<!-- n4 -->
<g id="node4" class="node">
<title>n4</title>
<polygon fill="#fffdd0" stroke="black" points="536,-280 397,-280 397,-244 536,-244 536,-280"/>
<text text-anchor="middle" x="466.5" y="-258.3" font-family="Arial" font-size="14.00">Deer among bushes</text>
</g>
<!-- n1&#45;&gt;n4 -->
<g id="edge3" class="edge">
<title>n1&#45;&gt;n4</title>
<path fill="none" stroke="black" d="M918.83,-366C820.18,-343.53 647.13,-304.13 546.08,-281.12"/>
<polygon fill="black" stroke="black" points="546.76,-277.68 536.23,-278.88 545.2,-284.51 546.76,-277.68"/>
</g>
<!-- n5 -->
<g id="node5" class="node">
<title>n5</title>
<polygon fill="#fffdd0" stroke="black" points="1435.5,-280 1251.5,-280 1251.5,-244 1435.5,-244 1435.5,-280"/>
<text text-anchor="middle" x="1343.5" y="-258.3" font-family="Arial" font-size="14.00">Garden with various flowers</text>
</g>
<!-- n1&#45;&gt;n5 -->
<g id="edge4" class="edge">
<title>n1&#45;&gt;n5</title>
<path fill="none" stroke="black" d="M1043.3,-365.93C1106.8,-344.16 1216.5,-306.56 1284.2,-283.33"/>
<polygon fill="black" stroke="black" points="1285.57,-286.56 1293.9,-280.01 1283.31,-279.94 1285.57,-286.56"/>
</g>
<!-- n6 -->
<g id="node6" class="node">
<title>n6</title>
<polygon fill="#fffdd0" stroke="black" points="1699,-280 1562,-280 1562,-244 1699,-244 1699,-280"/>
<text text-anchor="middle" x="1630.5" y="-258.3" font-family="Arial" font-size="14.00">Bees and a butterfly</text>
</g>
<!-- n1&#45;&gt;n6 -->
<g id="edge5" class="edge">
<title>n1&#45;&gt;n6</title>
<path fill="none" stroke="black" d="M1083.8,-366C1208.8,-342.44 1432.8,-300.25 1551.5,-277.87"/>
<polygon fill="black" stroke="black" points="1552.51,-281.24 1561.7,-275.97 1551.23,-274.36 1552.51,-281.24"/>
</g>
<!-- n7 -->
<g id="node7" class="node">
<title>n7</title>
<polygon fill="#fffdd0" stroke="black" points="1965,-280 1852,-280 1852,-244 1965,-244 1965,-280"/>
<text text-anchor="middle" x="1908.5" y="-258.3" font-family="Arial" font-size="14.00">Pond with water</text>
</g>
<!-- n1&#45;&gt;n7 -->
<g id="edge6" class="edge">
<title>n1&#45;&gt;n7</title>
<path fill="none" stroke="black" d="M1119.8,-366.44C1316.6,-340.62 1689.8,-291.68 1841.7,-271.76"/>
<polygon fill="black" stroke="black" points="1842.34,-275.21 1851.8,-270.44 1841.43,-268.27 1842.34,-275.21"/>
</g>
<!-- n8 -->
<g id="node8" class="node">
<title>n8</title>
<polygon fill="#fffdd0" stroke="black" points="961,-280 848,-280 848,-244 961,-244 961,-280"/>
<text text-anchor="middle" x="904.5" y="-258.3" font-family="Arial" font-size="14.00">Fish in the pond</text>
</g>
<!-- n1&#45;&gt;n8 -->
<g id="edge7" class="edge">
<title>n1&#45;&gt;n8</title>
<path fill="none" stroke="black" d="M980.75,-365.81C965.68,-345.49 940.48,-311.51 923.2,-288.21"/>
<polygon fill="black" stroke="black" points="926,-286.11 917.23,-280.16 920.38,-290.28 926,-286.11"/>
</g>
<!-- n9 -->
<g id="node9" class="node">
<title>n9</title>
<polygon fill="#fffdd0" stroke="black" points="1148,-280 1019,-280 1019,-244 1148,-244 1148,-280"/>
<text text-anchor="middle" x="1083.5" y="-258.3" font-family="Arial" font-size="14.00">Lily pad with a frog</text>
</g>
<!-- n1&#45;&gt;n9 -->
<g id="edge8" class="edge">
<title>n1&#45;&gt;n9</title>
<path fill="none" stroke="black" d="M1006.4,-365.81C1021.6,-345.49 1047.1,-311.51 1064.6,-288.21"/>
<polygon fill="black" stroke="black" points="1067.43,-290.27 1070.6,-280.16 1061.82,-286.09 1067.43,-290.27"/>
</g>
<!-- n10 -->
<g id="node10" class="node">
<title>n10</title>
<path fill="palegreen" stroke="black" d="M255,-158C255,-158 12,-158 12,-158 6,-158 0,-152 0,-146 0,-146 0,-134 0,-134 0,-128 6,-122 12,-122 12,-122 255,-122 255,-122 261,-122 267,-128 267,-134 267,-134 267,-146 267,-146 267,-152 261,-158 255,-158"/>
<text text-anchor="middle" x="133.5" y="-136.3" font-family="Arial" font-size="14.00">Correctly identifies and draws land habitat</text>
</g>
<!-- n2&#45;&gt;n10 -->
<g id="edge9" class="edge">
<title>n2&#45;&gt;n10</title>
<path fill="none" stroke="black" d="M194.33,-243.81C182.41,-223.67 162.55,-190.1 148.78,-166.83"/>
<polygon fill="black" stroke="black" points="151.75,-164.98 143.65,-158.16 145.73,-168.55 151.75,-164.98"/>
</g>
<!-- n11 -->
<g id="node11" class="node">
<title>n11</title>
<path fill="palegreen" stroke="black" d="M526,-158C526,-158 337,-158 337,-158 331,-158 325,-152 325,-146 325,-146 325,-134 325,-134 325,-128 331,-122 337,-122 337,-122 526,-122 526,-122 532,-122 538,-128 538,-134 538,-134 538,-146 538,-146 538,-152 532,-158 526,-158"/>
<text text-anchor="middle" x="431.5" y="-136.3" font-family="Arial" font-size="14.00">Identifies animals in forest scene</text>
</g>
<!-- n3&#45;&gt;n11 -->
<g id="edge10" class="edge">
<title>n3&#45;&gt;n11</title>
<path fill="none" stroke="black" d="M679.4,-243.93C627.4,-222.34 537.88,-185.17 481.83,-161.9"/>
<polygon fill="black" stroke="black" points="483.04,-158.61 472.46,-158.01 480.35,-165.08 483.04,-158.61"/>
</g>
<!-- n16 -->
<g id="node12" class="node">
<title>n16</title>
<polygon fill="lightcoral" stroke="black" points="747.5,-158 595.68,-140 747.5,-122 899.32,-140 747.5,-158"/>
<text text-anchor="middle" x="747.5" y="-136.3" font-family="Arial" font-size="14.00">Some labels are missing</text>
</g>
<!-- n3&#45;&gt;n16 -->
<g id="edge11" class="edge">
<title>n3&#45;&gt;n16</title>
<path fill="none" stroke="black" d="M724.37,-243.81C728.84,-223.91 736.27,-190.92 741.5,-167.68"/>
<polygon fill="black" stroke="black" points="744.95,-168.29 743.73,-157.77 738.12,-166.76 744.95,-168.29"/>
</g>
<!-- n4&#45;&gt;n11 -->
<g id="edge12" class="edge">
<title>n4&#45;&gt;n11</title>
<path fill="none" stroke="black" d="M461.49,-243.81C455.69,-223.94 446.08,-190.99 439.31,-167.76"/>
<polygon fill="black" stroke="black" points="442.67,-166.78 436.51,-158.16 435.95,-168.74 442.67,-166.78"/>
</g>
<!-- n12 -->
<g id="node13" class="node">
<title>n12</title>
<path fill="palegreen" stroke="black" d="M1496.5,-158C1496.5,-158 1236.5,-158 1236.5,-158 1230.5,-158 1224.5,-152 1224.5,-146 1224.5,-146 1224.5,-134 1224.5,-134 1224.5,-128 1230.5,-122 1236.5,-122 1236.5,-122 1496.5,-122 1496.5,-122 1502.5,-122 1508.5,-128 1508.5,-134 1508.5,-134 1508.5,-146 1508.5,-146 1508.5,-152 1502.5,-158 1496.5,-158"/>
<text text-anchor="middle" x="1366.5" y="-136.3" font-family="Arial" font-size="14.00">Correctly identifies and draws garden habitat</text>
</g>
<!-- n5&#45;&gt;n12 -->
<g id="edge13" class="edge">
<title>n5&#45;&gt;n12</title>
<path fill="none" stroke="black" d="M1346.8,-243.81C1350.6,-224.02 1356.9,-191.29 1361.3,-168.08"/>
<polygon fill="black" stroke="black" points="1364.76,-168.64 1363.2,-158.16 1357.88,-167.32 1364.76,-168.64"/>
</g>
<!-- n13 -->
<g id="node14" class="node">
<title>n13</title>
<path fill="palegreen" stroke="black" d="M1774,-158C1774,-158 1579,-158 1579,-158 1573,-158 1567,-152 1567,-146 1567,-146 1567,-134 1567,-134 1567,-128 1573,-122 1579,-122 1579,-122 1774,-122 1774,-122 1780,-122 1786,-128 1786,-134 1786,-134 1786,-146 1786,-146 1786,-152 1780,-158 1774,-158"/>
<text text-anchor="middle" x="1676.5" y="-136.3" font-family="Arial" font-size="14.00">Shows variety of life in the garden</text>
</g>
<!-- n6&#45;&gt;n13 -->
<g id="edge14" class="edge">
<title>n6&#45;&gt;n13</title>
<path fill="none" stroke="black" d="M1637.1,-243.81C1644.7,-223.94 1657.3,-190.99 1666.2,-167.76"/>
<polygon fill="black" stroke="black" points="1669.57,-168.75 1669.9,-158.16 1663.04,-166.23 1669.57,-168.75"/>
</g>
<!-- n14 -->
<g id="node15" class="node">
<title>n14</title>
<path fill="palegreen" stroke="black" d="M2107,-158C2107,-158 1856,-158 1856,-158 1850,-158 1844,-152 1844,-146 1844,-146 1844,-134 1844,-134 1844,-128 1850,-122 1856,-122 1856,-122 2107,-122 2107,-122 2113,-122 2119,-128 2119,-134 2119,-134 2119,-146 2119,-146 2119,-152 2113,-158 2107,-158"/>
<text text-anchor="middle" x="1981.5" y="-136.3" font-family="Arial" font-size="14.00">Correctly identifies and draws water habitat</text>
</g>
<!-- n7&#45;&gt;n14 -->
<g id="edge15" class="edge">
<title>n7&#45;&gt;n14</title>
<path fill="none" stroke="black" d="M1919,-243.81C1931.2,-223.67 1951.6,-190.1 1965.8,-166.83"/>
<polygon fill="black" stroke="black" points="1968.87,-168.52 1971.1,-158.16 1962.9,-164.87 1968.87,-168.52"/>
</g>
<!-- n8&#45;&gt;n16 -->
<g id="edge16" class="edge">
<title>n8&#45;&gt;n16</title>
<path fill="none" stroke="black" d="M882.01,-243.81C853.79,-222.24 805.45,-185.29 775.05,-162.06"/>
<polygon fill="black" stroke="black" points="777.05,-159.18 766.98,-155.89 772.8,-164.74 777.05,-159.18"/>
</g>
<!-- n15 -->
<g id="node16" class="node">
<title>n15</title>
<path fill="palegreen" stroke="black" d="M1154,-158C1154,-158 969,-158 969,-158 963,-158 957,-152 957,-146 957,-146 957,-134 957,-134 957,-128 963,-122 969,-122 969,-122 1154,-122 1154,-122 1160,-122 1166,-128 1166,-134 1166,-134 1166,-146 1166,-146 1166,-152 1160,-158 1154,-158"/>
<text text-anchor="middle" x="1061.5" y="-136.3" font-family="Arial" font-size="14.00">Identifies animals in pond scene</text>
</g>
<!-- n8&#45;&gt;n15 -->
<g id="edge17" class="edge">
<title>n8&#45;&gt;n15</title>
<path fill="none" stroke="black" d="M926.99,-243.81C954.28,-222.96 1000.4,-187.71 1030.9,-164.4"/>
<polygon fill="black" stroke="black" points="1033.21,-167.04 1039,-158.16 1028.94,-161.49 1033.21,-167.04"/>
</g>
<!-- n9&#45;&gt;n15 -->
<g id="edge18" class="edge">
<title>n9&#45;&gt;n15</title>
<path fill="none" stroke="black" d="M1080.3,-243.81C1076.7,-224.02 1070.7,-191.29 1066.5,-168.08"/>
<polygon fill="black" stroke="black" points="1069.92,-167.32 1064.6,-158.16 1063.04,-168.64 1069.92,-167.32"/>
</g>
<!-- n17 -->
<g id="node17" class="node">
<title>n17</title>
<polygon fill="#f28e8e" stroke="black" points="902,-36 593,-36 593,0 902,0 902,-36"/>
<text text-anchor="middle" x="747.5" y="-14.3" font-family="Arial" font-size="14.00">Ensure each species is labeled to improve clarity</text>
</g>
<!-- n16&#45;&gt;n17 -->
<g id="edge19" class="edge">
<title>n16&#45;&gt;n17</title>
<path fill="none" stroke="black" d="M747.5,-121.81C747.5,-102.11 747.5,-69.58 747.5,-46.39"/>
<polygon fill="black" stroke="black" points="751,-46.16 747.5,-36.16 744,-46.16 751,-46.16"/>
</g>
</g>
</svg>
