<?xml version="1.0" encoding="UTF-8" standalone="no"?>
<!DOCTYPE svg PUBLIC "-//W3C//DTD SVG 1.1//EN"
 "http://www.w3.org/Graphics/SVG/1.1/DTD/svg11.dtd">
<!-- Generated by graphviz version 2.43.0 (0)
 -->
<!-- Pages: 1 -->
<svg width="1253pt" height="410pt"
 viewBox="0.00 0.00 1253.00 410.00" xmlns="http://www.w3.org/2000/svg" xmlns:xlink="http://www.w3.org/1999/xlink">
<g id="graph0" class="graph" transform="scale(1 1) rotate(0) translate(4 406)">
<polygon fill="white" stroke="transparent" points="-4,4 -4,-406 1249,-406 1249,4 -4,4"/>
<!-- n1 -->
<g id="node1" class="node">
<title>n1</title>
<polygon fill="lightblue" stroke="black" points="613,-384 499.25,-402 271.75,-402 158,-384 271.75,-366 499.25,-366 613,-384"/>
<text text-anchor="middle" x="385.5" y="-380.3" font-family="Arial" font-size="14.00">Illustrate plants with and without water and light.</text>
</g>
<!-- n2 -->
<g id="node2" class="node">
<title>n2</title>
<polygon fill="#fffdd0" stroke="black" points="339.5,-280 1.5,-280 1.5,-244 339.5,-244 339.5,-280"/>
<text text-anchor="middle" x="170.5" y="-258.3" font-family="Arial" font-size="14.00">Healthy plant with big, green leaves under bright light.</text>
</g>
<!-- n1&#45;&gt;n2 -->
<g id="edge1" class="edge">
<title>n1&#45;&gt;n2</title>
<path fill="none" stroke="black" d="M354.7,-365.81C316.62,-344.55 251.75,-308.35 210.04,-285.07"/>
<polygon fill="black" stroke="black" points="211.69,-281.98 201.25,-280.16 208.27,-288.09 211.69,-281.98"/>
</g>
<!-- n3 -->
<g id="node3" class="node">
<title>n3</title>
<polygon fill="#fffdd0" stroke="black" points="803,-280 398,-280 398,-244 803,-244 803,-280"/>
<text text-anchor="middle" x="600.5" y="-258.3" font-family="Arial" font-size="14.00">Wilting plant with droopy, browning leaves in unclear lack of light.</text>
</g>
<!-- n1&#45;&gt;n3 -->
<g id="edge2" class="edge">
<title>n1&#45;&gt;n3</title>
<path fill="none" stroke="black" d="M416.3,-365.81C454.38,-344.55 519.25,-308.35 560.96,-285.07"/>
<polygon fill="black" stroke="black" points="562.73,-288.09 569.75,-280.16 559.31,-281.98 562.73,-288.09"/>
</g>
<!-- n4 -->
<g id="node4" class="node">
<title>n4</title>
<path fill="palegreen" stroke="black" d="M329,-158C329,-158 12,-158 12,-158 6,-158 0,-152 0,-146 0,-146 0,-134 0,-134 0,-128 6,-122 12,-122 12,-122 329,-122 329,-122 335,-122 341,-128 341,-134 341,-134 341,-146 341,-146 341,-152 335,-158 329,-158"/>
<text text-anchor="middle" x="170.5" y="-136.3" font-family="Arial" font-size="14.00">Shows understanding that plants need water and light.</text>
</g>
<!-- n2&#45;&gt;n4 -->
<g id="edge3" class="edge">
<title>n2&#45;&gt;n4</title>
<path fill="none" stroke="black" d="M170.5,-243.81C170.5,-224.11 170.5,-191.58 170.5,-168.39"/>
<polygon fill="black" stroke="black" points="174,-168.16 170.5,-158.16 167,-168.16 174,-168.16"/>
</g>
<!-- n5 -->
<g id="node5" class="node">
<title>n5</title>
<path fill="palegreen" stroke="black" d="M680,-158C680,-158 447,-158 447,-158 441,-158 435,-152 435,-146 435,-146 435,-134 435,-134 435,-128 441,-122 447,-122 447,-122 680,-122 680,-122 686,-122 692,-128 692,-134 692,-134 692,-146 692,-146 692,-152 686,-158 680,-158"/>
<text text-anchor="middle" x="563.5" y="-136.3" font-family="Arial" font-size="14.00">Understands water deprivation in plants.</text>
</g>
<!-- n3&#45;&gt;n5 -->
<g id="edge4" class="edge">
<title>n3&#45;&gt;n5</title>
<path fill="none" stroke="black" d="M595.2,-243.81C589.07,-223.94 578.91,-190.99 571.75,-167.76"/>
<polygon fill="black" stroke="black" points="575.08,-166.68 568.79,-158.16 568.39,-168.75 575.08,-166.68"/>
</g>
<!-- n6 -->
<g id="node6" class="node">
<title>n6</title>
<polygon fill="lightcoral" stroke="black" points="997.5,-158 750,-140 997.5,-122 1245,-140 997.5,-158"/>
<text text-anchor="middle" x="997.5" y="-136.3" font-family="Arial" font-size="14.00">Difficulty depicting light deprivation clearly.</text>
</g>
<!-- n3&#45;&gt;n6 -->
<g id="edge5" class="edge">
<title>n3&#45;&gt;n6</title>
<path fill="none" stroke="black" d="M656.96,-243.93C732.86,-220.99 866.96,-180.46 942.25,-157.7"/>
<polygon fill="black" stroke="black" points="943.46,-160.99 952.02,-154.75 941.44,-154.29 943.46,-160.99"/>
</g>
<!-- n7 -->
<g id="node7" class="node">
<title>n7</title>
<polygon fill="#f28e8e" stroke="black" points="1243,-36 752,-36 752,0 1243,0 1243,-36"/>
<text text-anchor="middle" x="997.5" y="-14.3" font-family="Arial" font-size="14.00">Improve depiction of light deprivation using clearer shadows or more grayscale.</text>
</g>
<!-- n6&#45;&gt;n7 -->
<g id="edge6" class="edge">
<title>n6&#45;&gt;n7</title>
<path fill="none" stroke="black" d="M997.5,-121.81C997.5,-102.11 997.5,-69.58 997.5,-46.39"/>
<polygon fill="black" stroke="black" points="1001,-46.16 997.5,-36.16 994,-46.16 1001,-46.16"/>
</g>
</g>
</svg>
