<?xml version="1.0" encoding="UTF-8" standalone="no"?>
<!DOCTYPE svg PUBLIC "-//W3C//DTD SVG 1.1//EN"
 "http://www.w3.org/Graphics/SVG/1.1/DTD/svg11.dtd">
<!-- Generated by graphviz version 2.43.0 (0)
 -->
<!-- Pages: 1 -->
<svg width="1122pt" height="410pt"
 viewBox="0.00 0.00 1122.00 410.00" xmlns="http://www.w3.org/2000/svg" xmlns:xlink="http://www.w3.org/1999/xlink">
<g id="graph0" class="graph" transform="scale(1 1) rotate(0) translate(4 406)">
<polygon fill="white" stroke="transparent" points="-4,4 -4,-406 1118,-406 1118,4 -4,4"/>
<!-- n1 -->
<g id="node1" class="node">
<title>n1</title>
<polygon fill="lightblue" stroke="black" points="720.82,-384 598.41,-402 353.59,-402 231.18,-384 353.59,-366 598.41,-366 720.82,-384"/>
<text text-anchor="middle" x="476" y="-380.3" font-family="Arial" font-size="14.00">Draw a habitat and the different living things in each</text>
</g>
<!-- n2 -->
<g id="node2" class="node">
<title>n2</title>
<polygon fill="#fffdd0" stroke="black" points="233.5,-280 128.5,-280 128.5,-244 233.5,-244 233.5,-280"/>
<text text-anchor="middle" x="181" y="-258.3" font-family="Arial" font-size="14.00">Water with fish</text>
</g>
<!-- n1&#45;&gt;n2 -->
<g id="edge1" class="edge">
<title>n1&#45;&gt;n2</title>
<path fill="none" stroke="black" d="M434.05,-365.93C380.97,-344.34 289.59,-307.17 232.38,-283.9"/>
<polygon fill="black" stroke="black" points="233.39,-280.53 222.81,-280.01 230.76,-287.02 233.39,-280.53"/>
</g>
<!-- n3 -->
<g id="node3" class="node">
<title>n3</title>
<polygon fill="#fffdd0" stroke="black" points="446,-280 338,-280 338,-244 446,-244 446,-280"/>
<text text-anchor="middle" x="392" y="-258.3" font-family="Arial" font-size="14.00">Land with trees</text>
</g>
<!-- n1&#45;&gt;n3 -->
<g id="edge2" class="edge">
<title>n1&#45;&gt;n3</title>
<path fill="none" stroke="black" d="M463.96,-365.81C449.81,-345.58 426.16,-311.81 409.87,-288.52"/>
<polygon fill="black" stroke="black" points="412.62,-286.34 404.01,-280.16 406.88,-290.36 412.62,-286.34"/>
</g>
<!-- n4 -->
<g id="node4" class="node">
<title>n4</title>
<polygon fill="#fffdd0" stroke="black" points="701,-280 587,-280 587,-244 701,-244 701,-280"/>
<text text-anchor="middle" x="644" y="-258.3" font-family="Arial" font-size="14.00">Squirrel in water</text>
</g>
<!-- n1&#45;&gt;n4 -->
<g id="edge3" class="edge">
<title>n1&#45;&gt;n4</title>
<path fill="none" stroke="black" d="M500.07,-365.81C529.39,-344.87 579.03,-309.41 611.66,-286.1"/>
<polygon fill="black" stroke="black" points="613.87,-288.82 619.97,-280.16 609.8,-283.13 613.87,-288.82"/>
</g>
<!-- n5 -->
<g id="node5" class="node">
<title>n5</title>
<polygon fill="#fffdd0" stroke="black" points="964,-280 888,-280 888,-244 964,-244 964,-280"/>
<text text-anchor="middle" x="926" y="-258.3" font-family="Arial" font-size="14.00">Bird flying</text>
</g>
<!-- n1&#45;&gt;n5 -->
<g id="edge4" class="edge">
<title>n1&#45;&gt;n5</title>
<path fill="none" stroke="black" d="M540,-365.93C631.1,-341.64 796.15,-297.63 877.71,-275.88"/>
<polygon fill="black" stroke="black" points="878.95,-279.17 887.71,-273.21 877.15,-272.41 878.95,-279.17"/>
</g>
<!-- n6 -->
<g id="node6" class="node">
<title>n6</title>
<path fill="palegreen" stroke="black" d="M174,-158C174,-158 12,-158 12,-158 6,-158 0,-152 0,-146 0,-146 0,-134 0,-134 0,-128 6,-122 12,-122 12,-122 174,-122 174,-122 180,-122 186,-128 186,-134 186,-134 186,-146 186,-146 186,-152 180,-158 174,-158"/>
<text text-anchor="middle" x="93" y="-136.3" font-family="Arial" font-size="14.00">Recognizes fish are in water</text>
</g>
<!-- n2&#45;&gt;n6 -->
<g id="edge5" class="edge">
<title>n2&#45;&gt;n6</title>
<path fill="none" stroke="black" d="M168.39,-243.81C153.56,-223.58 128.79,-189.81 111.72,-166.52"/>
<polygon fill="black" stroke="black" points="114.32,-164.15 105.58,-158.16 108.68,-168.29 114.32,-164.15"/>
</g>
<!-- n7 -->
<g id="node7" class="node">
<title>n7</title>
<path fill="palegreen" stroke="black" d="M446,-158C446,-158 256,-158 256,-158 250,-158 244,-152 244,-146 244,-146 244,-134 244,-134 244,-128 250,-122 256,-122 256,-122 446,-122 446,-122 452,-122 458,-128 458,-134 458,-134 458,-146 458,-146 458,-152 452,-158 446,-158"/>
<text text-anchor="middle" x="351" y="-136.3" font-family="Arial" font-size="14.00">Recognizes trees as land feature</text>
</g>
<!-- n3&#45;&gt;n7 -->
<g id="edge6" class="edge">
<title>n3&#45;&gt;n7</title>
<path fill="none" stroke="black" d="M386.13,-243.81C379.34,-223.94 368.08,-190.99 360.14,-167.76"/>
<polygon fill="black" stroke="black" points="363.41,-166.49 356.86,-158.16 356.78,-168.75 363.41,-166.49"/>
</g>
<!-- n8 -->
<g id="node8" class="node">
<title>n8</title>
<polygon fill="lightcoral" stroke="black" points="686,-158 515.91,-140 686,-122 856.09,-140 686,-158"/>
<text text-anchor="middle" x="686" y="-136.3" font-family="Arial" font-size="14.00">Misplaced squirrel in habitat</text>
</g>
<!-- n4&#45;&gt;n8 -->
<g id="edge7" class="edge">
<title>n4&#45;&gt;n8</title>
<path fill="none" stroke="black" d="M650.02,-243.81C657.01,-223.82 668.63,-190.62 676.77,-167.37"/>
<polygon fill="black" stroke="black" points="680.13,-168.36 680.13,-157.77 673.52,-166.05 680.13,-168.36"/>
</g>
<!-- n10 -->
<g id="node9" class="node">
<title>n10</title>
<path fill="palegreen" stroke="black" d="M1102,-158C1102,-158 926,-158 926,-158 920,-158 914,-152 914,-146 914,-146 914,-134 914,-134 914,-128 920,-122 926,-122 926,-122 1102,-122 1102,-122 1108,-122 1114,-128 1114,-134 1114,-134 1114,-146 1114,-146 1114,-152 1108,-158 1102,-158"/>
<text text-anchor="middle" x="1014" y="-136.3" font-family="Arial" font-size="14.00">Correctly places bird in the sky</text>
</g>
<!-- n5&#45;&gt;n10 -->
<g id="edge8" class="edge">
<title>n5&#45;&gt;n10</title>
<path fill="none" stroke="black" d="M938.61,-243.81C953.44,-223.58 978.21,-189.81 995.28,-166.52"/>
<polygon fill="black" stroke="black" points="998.32,-168.3 1001.4,-158.16 992.67,-164.16 998.32,-168.3"/>
</g>
<!-- n9 -->
<g id="node10" class="node">
<title>n9</title>
<polygon fill="#f28e8e" stroke="black" points="820.5,-36 551.5,-36 551.5,0 820.5,0 820.5,-36"/>
<text text-anchor="middle" x="686" y="-14.3" font-family="Arial" font-size="14.00">Squirrels live on land or in trees, not water</text>
</g>
<!-- n8&#45;&gt;n9 -->
<g id="edge9" class="edge">
<title>n8&#45;&gt;n9</title>
<path fill="none" stroke="black" d="M686,-121.81C686,-102.11 686,-69.58 686,-46.39"/>
<polygon fill="black" stroke="black" points="689.5,-46.16 686,-36.16 682.5,-46.16 689.5,-46.16"/>
</g>
</g>
</svg>
