<?xml version="1.0" encoding="UTF-8" standalone="no"?>
<!DOCTYPE svg PUBLIC "-//W3C//DTD SVG 1.1//EN"
 "http://www.w3.org/Graphics/SVG/1.1/DTD/svg11.dtd">
<!-- Generated by graphviz version 2.43.0 (0)
 -->
<!-- Pages: 1 -->
<svg width="1759pt" height="410pt"
 viewBox="0.00 0.00 1759.00 410.00" xmlns="http://www.w3.org/2000/svg" xmlns:xlink="http://www.w3.org/1999/xlink">
<g id="graph0" class="graph" transform="scale(1 1) rotate(0) translate(4 406)">
<polygon fill="white" stroke="transparent" points="-4,4 -4,-406 1755,-406 1755,4 -4,4"/>
<!-- n1 -->
<g id="node1" class="node">
<title>n1</title>
<polygon fill="lightblue" stroke="black" points="1373.5,-384 1209.5,-402 881.5,-402 717.5,-384 881.5,-366 1209.5,-366 1373.5,-384"/>
<text text-anchor="middle" x="1045.5" y="-380.3" font-family="Arial" font-size="14.00">Draw reversible and irreversible changes (ice melting vs. egg cooking)</text>
</g>
<!-- n2 -->
<g id="node2" class="node">
<title>n2</title>
<polygon fill="#fffdd0" stroke="black" points="1038,-280 739,-280 739,-244 1038,-244 1038,-280"/>
<text text-anchor="middle" x="888.5" y="-258.3" font-family="Arial" font-size="14.00">Ice labeled &#39;Ice, solid&#39; changes to &#39;Water, liquid&#39;</text>
</g>
<!-- n1&#45;&gt;n2 -->
<g id="edge1" class="edge">
<title>n1&#45;&gt;n2</title>
<path fill="none" stroke="black" d="M1023,-365.81C995.72,-344.96 949.61,-309.71 919.11,-286.4"/>
<polygon fill="black" stroke="black" points="921.02,-283.45 910.95,-280.16 916.77,-289.01 921.02,-283.45"/>
</g>
<!-- n3 -->
<g id="node3" class="node">
<title>n3</title>
<polygon fill="#fffdd0" stroke="black" points="1506,-280 1293,-280 1293,-244 1506,-244 1506,-280"/>
<text text-anchor="middle" x="1399.5" y="-258.3" font-family="Arial" font-size="14.00">Raw egg changes to cooked egg</text>
</g>
<!-- n1&#45;&gt;n3 -->
<g id="edge2" class="edge">
<title>n1&#45;&gt;n3</title>
<path fill="none" stroke="black" d="M1095.8,-365.93C1160.1,-344.16 1271,-306.56 1339.5,-283.33"/>
<polygon fill="black" stroke="black" points="1340.95,-286.53 1349.3,-280.01 1338.71,-279.9 1340.95,-286.53"/>
</g>
<!-- n4 -->
<g id="node4" class="node">
<title>n4</title>
<path fill="palegreen" stroke="black" d="M323,-158C323,-158 12,-158 12,-158 6,-158 0,-152 0,-146 0,-146 0,-134 0,-134 0,-128 6,-122 12,-122 12,-122 323,-122 323,-122 329,-122 335,-128 335,-134 335,-134 335,-146 335,-146 335,-152 329,-158 323,-158"/>
<text text-anchor="middle" x="167.5" y="-136.3" font-family="Arial" font-size="14.00">Understanding that ice melting is a reversible change</text>
</g>
<!-- n2&#45;&gt;n4 -->
<g id="edge3" class="edge">
<title>n2&#45;&gt;n4</title>
<path fill="none" stroke="black" d="M786.35,-244C652.56,-221.73 418.77,-182.82 280.03,-159.73"/>
<polygon fill="black" stroke="black" points="280.24,-156.22 269.8,-158.03 279.09,-163.12 280.24,-156.22"/>
</g>
<!-- n5 -->
<g id="node5" class="node">
<title>n5</title>
<polygon fill="lightcoral" stroke="black" points="888.5,-158 393,-140 888.5,-122 1384,-140 888.5,-158"/>
<text text-anchor="middle" x="888.5" y="-136.3" font-family="Arial" font-size="14.00">Misunderstanding in labeling transitions correctly and showing reversible change for ice</text>
</g>
<!-- n2&#45;&gt;n5 -->
<g id="edge4" class="edge">
<title>n2&#45;&gt;n5</title>
<path fill="none" stroke="black" d="M888.5,-243.81C888.5,-224.11 888.5,-191.58 888.5,-168.39"/>
<polygon fill="black" stroke="black" points="892,-168.16 888.5,-158.16 885,-168.16 892,-168.16"/>
</g>
<!-- n6 -->
<g id="node6" class="node">
<title>n6</title>
<path fill="palegreen" stroke="black" d="M1739,-158C1739,-158 1454,-158 1454,-158 1448,-158 1442,-152 1442,-146 1442,-146 1442,-134 1442,-134 1442,-128 1448,-122 1454,-122 1454,-122 1739,-122 1739,-122 1745,-122 1751,-128 1751,-134 1751,-134 1751,-146 1751,-146 1751,-152 1745,-158 1739,-158"/>
<text text-anchor="middle" x="1596.5" y="-136.3" font-family="Arial" font-size="14.00">Understanding that cooking an egg is irreversible</text>
</g>
<!-- n3&#45;&gt;n6 -->
<g id="edge5" class="edge">
<title>n3&#45;&gt;n6</title>
<path fill="none" stroke="black" d="M1427.7,-243.81C1462.4,-222.69 1521.3,-186.81 1559.5,-163.51"/>
<polygon fill="black" stroke="black" points="1561.57,-166.35 1568.3,-158.16 1557.94,-160.36 1561.57,-166.35"/>
</g>
<!-- n7 -->
<g id="node7" class="node">
<title>n7</title>
<polygon fill="#f28e8e" stroke="black" points="1109.5,-36 667.5,-36 667.5,0 1109.5,0 1109.5,-36"/>
<text text-anchor="middle" x="888.5" y="-14.3" font-family="Arial" font-size="14.00">Inconsistency in labeling phases and indicating reversible nature for ice</text>
</g>
<!-- n5&#45;&gt;n7 -->
<g id="edge6" class="edge">
<title>n5&#45;&gt;n7</title>
<path fill="none" stroke="black" d="M888.5,-121.81C888.5,-102.11 888.5,-69.58 888.5,-46.39"/>
<polygon fill="black" stroke="black" points="892,-46.16 888.5,-36.16 885,-46.16 892,-46.16"/>
</g>
</g>
</svg>
