<?xml version="1.0" encoding="UTF-8" standalone="no"?>
<!DOCTYPE svg PUBLIC "-//W3C//DTD SVG 1.1//EN"
 "http://www.w3.org/Graphics/SVG/1.1/DTD/svg11.dtd">
<!-- Generated by graphviz version 2.43.0 (0)
 -->
<!-- Pages: 1 -->
<svg width="1750pt" height="410pt"
 viewBox="0.00 0.00 1750.23 410.00" xmlns="http://www.w3.org/2000/svg" xmlns:xlink="http://www.w3.org/1999/xlink">
<g id="graph0" class="graph" transform="scale(1 1) rotate(0) translate(4 406)">
<polygon fill="white" stroke="transparent" points="-4,4 -4,-406 1746.23,-406 1746.23,4 -4,4"/>
<!-- n1 -->
<g id="node1" class="node">
<title>n1</title>
<polygon fill="lightblue" stroke="black" points="835.5,-384 721.75,-402 494.25,-402 380.5,-384 494.25,-366 721.75,-366 835.5,-384"/>
<text text-anchor="middle" x="608" y="-380.3" font-family="Arial" font-size="14.00">Illustrate plants with and without water and light.</text>
</g>
<!-- n2 -->
<g id="node2" class="node">
<title>n2</title>
<polygon fill="#fffdd0" stroke="black" points="229,-280 69,-280 69,-244 229,-244 229,-280"/>
<text text-anchor="middle" x="149" y="-258.3" font-family="Arial" font-size="14.00">Two plants, side by side</text>
</g>
<!-- n1&#45;&gt;n2 -->
<g id="edge1" class="edge">
<title>n1&#45;&gt;n2</title>
<path fill="none" stroke="black" d="M542.72,-365.93C458.51,-343.92 312.35,-305.71 223.76,-282.55"/>
<polygon fill="black" stroke="black" points="224.61,-279.15 214.05,-280.01 222.84,-285.93 224.61,-279.15"/>
</g>
<!-- n3 -->
<g id="node3" class="node">
<title>n3</title>
<polygon fill="#fffdd0" stroke="black" points="448,-280 308,-280 308,-244 448,-244 448,-280"/>
<text text-anchor="middle" x="378" y="-258.3" font-family="Arial" font-size="14.00">Sun above one plant</text>
</g>
<!-- n1&#45;&gt;n3 -->
<g id="edge2" class="edge">
<title>n1&#45;&gt;n3</title>
<path fill="none" stroke="black" d="M575.05,-365.81C534.23,-344.51 464.63,-308.2 420.01,-284.92"/>
<polygon fill="black" stroke="black" points="421.37,-281.68 410.89,-280.16 418.14,-287.89 421.37,-281.68"/>
</g>
<!-- n4 -->
<g id="node4" class="node">
<title>n4</title>
<polygon fill="#fffdd0" stroke="black" points="710,-280 506,-280 506,-244 710,-244 710,-280"/>
<text text-anchor="middle" x="608" y="-258.3" font-family="Arial" font-size="14.00">Blue dot near base of one plant</text>
</g>
<!-- n1&#45;&gt;n4 -->
<g id="edge3" class="edge">
<title>n1&#45;&gt;n4</title>
<path fill="none" stroke="black" d="M608,-365.81C608,-346.11 608,-313.58 608,-290.39"/>
<polygon fill="black" stroke="black" points="611.5,-290.16 608,-280.16 604.5,-290.16 611.5,-290.16"/>
</g>
<!-- n5 -->
<g id="node5" class="node">
<title>n5</title>
<polygon fill="#fffdd0" stroke="black" points="1011.5,-280 768.5,-280 768.5,-244 1011.5,-244 1011.5,-280"/>
<text text-anchor="middle" x="890" y="-258.3" font-family="Arial" font-size="14.00">No sun and no blue dot for other plant</text>
</g>
<!-- n1&#45;&gt;n5 -->
<g id="edge4" class="edge">
<title>n1&#45;&gt;n5</title>
<path fill="none" stroke="black" d="M648.1,-365.93C698.74,-344.39 785.84,-307.32 840.55,-284.04"/>
<polygon fill="black" stroke="black" points="842.2,-287.14 850.03,-280.01 839.46,-280.7 842.2,-287.14"/>
</g>
<!-- n6 -->
<g id="node6" class="node">
<title>n6</title>
<polygon fill="#fffdd0" stroke="black" points="1427.5,-280 1218.5,-280 1218.5,-244 1427.5,-244 1427.5,-280"/>
<text text-anchor="middle" x="1323" y="-258.3" font-family="Arial" font-size="14.00">Attempts to label light and water</text>
</g>
<!-- n1&#45;&gt;n6 -->
<g id="edge5" class="edge">
<title>n1&#45;&gt;n6</title>
<path fill="none" stroke="black" d="M709.3,-366C841.97,-343.73 1073.8,-304.82 1211.4,-281.73"/>
<polygon fill="black" stroke="black" points="1212.31,-285.13 1221.6,-280.03 1211.16,-278.22 1212.31,-285.13"/>
</g>
<!-- n7 -->
<g id="node7" class="node">
<title>n7</title>
<path fill="palegreen" stroke="black" d="M244,-158C244,-158 12,-158 12,-158 6,-158 0,-152 0,-146 0,-146 0,-134 0,-134 0,-128 6,-122 12,-122 12,-122 244,-122 244,-122 250,-122 256,-128 256,-134 256,-134 256,-146 256,-146 256,-152 250,-158 244,-158"/>
<text text-anchor="middle" x="128" y="-136.3" font-family="Arial" font-size="14.00">Understands necessity of light for plants</text>
</g>
<!-- n2&#45;&gt;n7 -->
<g id="edge6" class="edge">
<title>n2&#45;&gt;n7</title>
<path fill="none" stroke="black" d="M145.99,-243.81C142.53,-224.02 136.8,-191.29 132.74,-168.08"/>
<polygon fill="black" stroke="black" points="136.18,-167.4 131,-158.16 129.28,-168.61 136.18,-167.4"/>
</g>
<!-- n8 -->
<g id="node8" class="node">
<title>n8</title>
<path fill="palegreen" stroke="black" d="M566,-158C566,-158 326,-158 326,-158 320,-158 314,-152 314,-146 314,-146 314,-134 314,-134 314,-128 320,-122 326,-122 326,-122 566,-122 566,-122 572,-122 578,-128 578,-134 578,-134 578,-146 578,-146 578,-152 572,-158 566,-158"/>
<text text-anchor="middle" x="446" y="-136.3" font-family="Arial" font-size="14.00">Understands necessity of water for plants</text>
</g>
<!-- n3&#45;&gt;n8 -->
<g id="edge7" class="edge">
<title>n3&#45;&gt;n8</title>
<path fill="none" stroke="black" d="M387.74,-243.81C399.1,-223.76 418.01,-190.4 431.19,-167.14"/>
<polygon fill="black" stroke="black" points="434.39,-168.59 436.28,-158.16 428.3,-165.13 434.39,-168.59"/>
</g>
<!-- n4&#45;&gt;n8 -->
<g id="edge8" class="edge">
<title>n4&#45;&gt;n8</title>
<path fill="none" stroke="black" d="M584.79,-243.81C556.64,-222.96 509.06,-187.71 477.59,-164.4"/>
<polygon fill="black" stroke="black" points="479.29,-161.3 469.17,-158.16 475.12,-166.93 479.29,-161.3"/>
</g>
<!-- n9 -->
<g id="node9" class="node">
<title>n9</title>
<polygon fill="lightcoral" stroke="black" points="890,-158 636.13,-140 890,-122 1143.87,-140 890,-158"/>
<text text-anchor="middle" x="890" y="-136.3" font-family="Arial" font-size="14.00">Plants look healthy regardless of conditions</text>
</g>
<!-- n5&#45;&gt;n9 -->
<g id="edge9" class="edge">
<title>n5&#45;&gt;n9</title>
<path fill="none" stroke="black" d="M890,-243.81C890,-224.11 890,-191.58 890,-168.39"/>
<polygon fill="black" stroke="black" points="893.5,-168.16 890,-158.16 886.5,-168.16 893.5,-168.16"/>
</g>
<!-- n10 -->
<g id="node10" class="node">
<title>n10</title>
<polygon fill="lightcoral" stroke="black" points="1472,-158 1201.54,-140 1472,-122 1742.46,-140 1472,-158"/>
<text text-anchor="middle" x="1472" y="-136.3" font-family="Arial" font-size="14.00">Confusion in labeling or representing concepts</text>
</g>
<!-- n6&#45;&gt;n10 -->
<g id="edge10" class="edge">
<title>n6&#45;&gt;n10</title>
<path fill="none" stroke="black" d="M1344.3,-243.81C1370.6,-222.69 1415.1,-186.81 1444,-163.52"/>
<polygon fill="black" stroke="black" points="1446.5,-166 1452.1,-157.01 1442.11,-160.55 1446.5,-166"/>
</g>
<!-- n11 -->
<g id="node11" class="node">
<title>n11</title>
<polygon fill="#f28e8e" stroke="black" points="1077,-36 703,-36 703,0 1077,0 1077,-36"/>
<text text-anchor="middle" x="890" y="-14.3" font-family="Arial" font-size="14.00">Show differences in plant health with/without light and water</text>
</g>
<!-- n9&#45;&gt;n11 -->
<g id="edge11" class="edge">
<title>n9&#45;&gt;n11</title>
<path fill="none" stroke="black" d="M890,-121.81C890,-102.11 890,-69.58 890,-46.39"/>
<polygon fill="black" stroke="black" points="893.5,-46.16 890,-36.16 886.5,-46.16 893.5,-46.16"/>
</g>
<!-- n12 -->
<g id="node12" class="node">
<title>n12</title>
<polygon fill="#f28e8e" stroke="black" points="1636.5,-36 1307.5,-36 1307.5,0 1636.5,0 1636.5,-36"/>
<text text-anchor="middle" x="1472" y="-14.3" font-family="Arial" font-size="14.00">Clarify labels and symbols for clearer representation</text>
</g>
<!-- n10&#45;&gt;n12 -->
<g id="edge12" class="edge">
<title>n10&#45;&gt;n12</title>
<path fill="none" stroke="black" d="M1472,-121.81C1472,-102.11 1472,-69.58 1472,-46.39"/>
<polygon fill="black" stroke="black" points="1475.5,-46.16 1472,-36.16 1468.5,-46.16 1475.5,-46.16"/>
</g>
</g>
</svg>
