<?xml version="1.0" encoding="UTF-8" standalone="no"?>
<!DOCTYPE svg PUBLIC "-//W3C//DTD SVG 1.1//EN"
 "http://www.w3.org/Graphics/SVG/1.1/DTD/svg11.dtd">
<!-- Generated by graphviz version 2.43.0 (0)
 -->
<!-- Pages: 1 -->
<svg width="2098pt" height="410pt"
 viewBox="0.00 0.00 2098.00 410.00" xmlns="http://www.w3.org/2000/svg" xmlns:xlink="http://www.w3.org/1999/xlink">
<g id="graph0" class="graph" transform="scale(1 1) rotate(0) translate(4 406)">
<polygon fill="white" stroke="transparent" points="-4,4 -4,-406 2094,-406 2094,4 -4,4"/>
<!-- n1 -->
<g id="node1" class="node">
<title>n1</title>
<polygon fill="lightblue" stroke="black" points="1143.5,-384 1053.75,-402 874.25,-402 784.5,-384 874.25,-366 1053.75,-366 1143.5,-384"/>
<text text-anchor="middle" x="964" y="-380.3" font-family="Arial" font-size="14.00">Draw a fish in their habitat with labels</text>
</g>
<!-- n2 -->
<g id="node2" class="node">
<title>n2</title>
<polygon fill="#fffdd0" stroke="black" points="332,-280 130,-280 130,-244 332,-244 332,-280"/>
<text text-anchor="middle" x="231" y="-258.3" font-family="Arial" font-size="14.00">Fish swimming in ocean scene</text>
</g>
<!-- n1&#45;&gt;n2 -->
<g id="edge1" class="edge">
<title>n1&#45;&gt;n2</title>
<path fill="none" stroke="black" d="M867.8,-367.25C732.19,-345.05 485.44,-304.65 342.16,-281.2"/>
<polygon fill="black" stroke="black" points="342.46,-277.7 332.03,-279.54 341.33,-284.61 342.46,-277.7"/>
</g>
<!-- n3 -->
<g id="node3" class="node">
<title>n3</title>
<polygon fill="#fffdd0" stroke="black" points="605,-280 437,-280 437,-244 605,-244 605,-280"/>
<text text-anchor="middle" x="521" y="-258.3" font-family="Arial" font-size="14.00">Aquatic plants with labels</text>
</g>
<!-- n1&#45;&gt;n3 -->
<g id="edge2" class="edge">
<title>n1&#45;&gt;n3</title>
<path fill="none" stroke="black" d="M901,-365.93C819.89,-343.96 679.23,-305.86 593.68,-282.69"/>
<polygon fill="black" stroke="black" points="594.35,-279.24 583.78,-280.01 592.52,-286 594.35,-279.24"/>
</g>
<!-- n4 -->
<g id="node4" class="node">
<title>n4</title>
<polygon fill="#fffdd0" stroke="black" points="918.5,-280 747.5,-280 747.5,-244 918.5,-244 918.5,-280"/>
<text text-anchor="middle" x="833" y="-258.3" font-family="Arial" font-size="14.00">Labeled fins, gills, and tail</text>
</g>
<!-- n1&#45;&gt;n4 -->
<g id="edge3" class="edge">
<title>n1&#45;&gt;n4</title>
<path fill="none" stroke="black" d="M945.23,-365.81C922.66,-345.13 884.65,-310.31 859.2,-287"/>
<polygon fill="black" stroke="black" points="861.47,-284.33 851.73,-280.16 856.74,-289.49 861.47,-284.33"/>
</g>
<!-- n5 -->
<g id="node5" class="node">
<title>n5</title>
<polygon fill="#fffdd0" stroke="black" points="1290.5,-280 1051.5,-280 1051.5,-244 1290.5,-244 1290.5,-280"/>
<text text-anchor="middle" x="1171" y="-258.3" font-family="Arial" font-size="14.00">Includes rocks and sandy ocean floor</text>
</g>
<!-- n1&#45;&gt;n5 -->
<g id="edge4" class="edge">
<title>n1&#45;&gt;n5</title>
<path fill="none" stroke="black" d="M993.66,-365.81C1030.2,-344.6 1092.5,-308.5 1132.7,-285.21"/>
<polygon fill="black" stroke="black" points="1134.51,-288.21 1141.4,-280.16 1130.99,-282.15 1134.51,-288.21"/>
</g>
<!-- n6 -->
<g id="node6" class="node">
<title>n6</title>
<polygon fill="#fffdd0" stroke="black" points="1644,-280 1452,-280 1452,-244 1644,-244 1644,-280"/>
<text text-anchor="middle" x="1548" y="-258.3" font-family="Arial" font-size="14.00">Bubbles indicating interaction</text>
</g>
<!-- n1&#45;&gt;n6 -->
<g id="edge5" class="edge">
<title>n1&#45;&gt;n6</title>
<path fill="none" stroke="black" d="M1046.7,-366C1154.6,-343.84 1342.6,-305.21 1455.2,-282.08"/>
<polygon fill="black" stroke="black" points="1456.02,-285.49 1465.1,-280.03 1454.6,-278.63 1456.02,-285.49"/>
</g>
<!-- n7 -->
<g id="node7" class="node">
<title>n7</title>
<polygon fill="#fffdd0" stroke="black" points="2019.5,-280 1778.5,-280 1778.5,-244 2019.5,-244 2019.5,-280"/>
<text text-anchor="middle" x="1899" y="-258.3" font-family="Arial" font-size="14.00">Shows small fish and crab with labels</text>
</g>
<!-- n1&#45;&gt;n7 -->
<g id="edge6" class="edge">
<title>n1&#45;&gt;n7</title>
<path fill="none" stroke="black" d="M1070.3,-369.35C1242.5,-347.26 1581.6,-303.73 1768.3,-279.78"/>
<polygon fill="black" stroke="black" points="1768.93,-283.23 1778.4,-278.48 1768.03,-276.29 1768.93,-283.23"/>
</g>
<!-- n8 -->
<g id="node8" class="node">
<title>n8</title>
<path fill="palegreen" stroke="black" d="M264,-158C264,-158 12,-158 12,-158 6,-158 0,-152 0,-146 0,-146 0,-134 0,-134 0,-128 6,-122 12,-122 12,-122 264,-122 264,-122 270,-122 276,-128 276,-134 276,-134 276,-146 276,-146 276,-152 270,-158 264,-158"/>
<text text-anchor="middle" x="138" y="-136.3" font-family="Arial" font-size="14.00">Understands fish can be drawn and labeled</text>
</g>
<!-- n2&#45;&gt;n8 -->
<g id="edge7" class="edge">
<title>n2&#45;&gt;n8</title>
<path fill="none" stroke="black" d="M217.68,-243.81C201.93,-223.49 175.59,-189.51 157.54,-166.21"/>
<polygon fill="black" stroke="black" points="160.19,-163.92 151.3,-158.16 154.66,-168.21 160.19,-163.92"/>
</g>
<!-- n9 -->
<g id="node9" class="node">
<title>n9</title>
<path fill="palegreen" stroke="black" d="M603.5,-158C603.5,-158 346.5,-158 346.5,-158 340.5,-158 334.5,-152 334.5,-146 334.5,-146 334.5,-134 334.5,-134 334.5,-128 340.5,-122 346.5,-122 346.5,-122 603.5,-122 603.5,-122 609.5,-122 615.5,-128 615.5,-134 615.5,-134 615.5,-146 615.5,-146 615.5,-152 609.5,-158 603.5,-158"/>
<text text-anchor="middle" x="475" y="-136.3" font-family="Arial" font-size="14.00">Understands labeling the water environment</text>
</g>
<!-- n3&#45;&gt;n9 -->
<g id="edge8" class="edge">
<title>n3&#45;&gt;n9</title>
<path fill="none" stroke="black" d="M514.41,-243.81C506.79,-223.94 494.16,-190.99 485.26,-167.76"/>
<polygon fill="black" stroke="black" points="488.43,-166.24 481.58,-158.16 481.89,-168.75 488.43,-166.24"/>
</g>
<!-- n10 -->
<g id="node10" class="node">
<title>n10</title>
<path fill="palegreen" stroke="black" d="M906,-158C906,-158 686,-158 686,-158 680,-158 674,-152 674,-146 674,-146 674,-134 674,-134 674,-128 680,-122 686,-122 686,-122 906,-122 906,-122 912,-122 918,-128 918,-134 918,-134 918,-146 918,-146 918,-152 912,-158 906,-158"/>
<text text-anchor="middle" x="796" y="-136.3" font-family="Arial" font-size="14.00">Understands the role of aquatic plants</text>
</g>
<!-- n4&#45;&gt;n10 -->
<g id="edge9" class="edge">
<title>n4&#45;&gt;n10</title>
<path fill="none" stroke="black" d="M827.7,-243.81C821.57,-223.94 811.41,-190.99 804.25,-167.76"/>
<polygon fill="black" stroke="black" points="807.58,-166.68 801.29,-158.16 800.89,-168.75 807.58,-166.68"/>
</g>
<!-- n11 -->
<g id="node11" class="node">
<title>n11</title>
<polygon fill="lightcoral" stroke="black" points="1209,-158 975.5,-140 1209,-122 1442.5,-140 1209,-158"/>
<text text-anchor="middle" x="1209" y="-136.3" font-family="Arial" font-size="14.00">Incomplete understanding: role of rocks</text>
</g>
<!-- n5&#45;&gt;n11 -->
<g id="edge10" class="edge">
<title>n5&#45;&gt;n11</title>
<path fill="none" stroke="black" d="M1176.4,-243.81C1182.8,-223.82 1193.3,-190.62 1200.7,-167.37"/>
<polygon fill="black" stroke="black" points="1204.06,-168.36 1203.7,-157.77 1197.38,-166.27 1204.06,-168.36"/>
</g>
<!-- n13 -->
<g id="node12" class="node">
<title>n13</title>
<path fill="palegreen" stroke="black" d="M1716,-158C1716,-158 1512,-158 1512,-158 1506,-158 1500,-152 1500,-146 1500,-146 1500,-134 1500,-134 1500,-128 1506,-122 1512,-122 1512,-122 1716,-122 1716,-122 1722,-122 1728,-128 1728,-134 1728,-134 1728,-146 1728,-146 1728,-152 1722,-158 1716,-158"/>
<text text-anchor="middle" x="1614" y="-136.3" font-family="Arial" font-size="14.00">Understands fish habitat interaction</text>
</g>
<!-- n6&#45;&gt;n13 -->
<g id="edge11" class="edge">
<title>n6&#45;&gt;n13</title>
<path fill="none" stroke="black" d="M1557.5,-243.81C1568.5,-223.76 1586.8,-190.4 1599.6,-167.14"/>
<polygon fill="black" stroke="black" points="1602.79,-168.6 1604.6,-158.16 1596.68,-165.19 1602.79,-168.6"/>
</g>
<!-- n14 -->
<g id="node13" class="node">
<title>n14</title>
<path fill="palegreen" stroke="black" d="M2078,-158C2078,-158 1798,-158 1798,-158 1792,-158 1786,-152 1786,-146 1786,-146 1786,-134 1786,-134 1786,-128 1792,-122 1798,-122 1798,-122 2078,-122 2078,-122 2084,-122 2090,-128 2090,-134 2090,-134 2090,-146 2090,-146 2090,-152 2084,-158 2078,-158"/>
<text text-anchor="middle" x="1938" y="-136.3" font-family="Arial" font-size="14.00">Understands interaction with small fish and crab</text>
</g>
<!-- n7&#45;&gt;n14 -->
<g id="edge12" class="edge">
<title>n7&#45;&gt;n14</title>
<path fill="none" stroke="black" d="M1904.6,-243.81C1911,-223.94 1921.8,-190.99 1929.3,-167.76"/>
<polygon fill="black" stroke="black" points="1932.66,-168.75 1932.4,-158.16 1926,-166.6 1932.66,-168.75"/>
</g>
<!-- n12 -->
<g id="node14" class="node">
<title>n12</title>
<polygon fill="#f28e8e" stroke="black" points="1364.5,-36 1053.5,-36 1053.5,0 1364.5,0 1364.5,-36"/>
<text text-anchor="middle" x="1209" y="-14.3" font-family="Arial" font-size="14.00">Feedback: Explain elements not explicitly labeled</text>
</g>
<!-- n11&#45;&gt;n12 -->
<g id="edge13" class="edge">
<title>n11&#45;&gt;n12</title>
<path fill="none" stroke="black" d="M1209,-121.81C1209,-102.11 1209,-69.58 1209,-46.39"/>
<polygon fill="black" stroke="black" points="1212.5,-46.16 1209,-36.16 1205.5,-46.16 1212.5,-46.16"/>
</g>
</g>
</svg>
