<?xml version="1.0" encoding="UTF-8" standalone="no"?>
<!DOCTYPE svg PUBLIC "-//W3C//DTD SVG 1.1//EN"
 "http://www.w3.org/Graphics/SVG/1.1/DTD/svg11.dtd">
<!-- Generated by graphviz version 2.43.0 (0)
 -->
<!-- Pages: 1 -->
<svg width="1772pt" height="410pt"
 viewBox="0.00 0.00 1771.52 410.00" xmlns="http://www.w3.org/2000/svg" xmlns:xlink="http://www.w3.org/1999/xlink">
<g id="graph0" class="graph" transform="scale(1 1) rotate(0) translate(4 406)">
<polygon fill="white" stroke="transparent" points="-4,4 -4,-406 1767.52,-406 1767.52,4 -4,4"/>
<!-- n1 -->
<g id="node1" class="node">
<title>n1</title>
<polygon fill="lightblue" stroke="black" points="945.5,-384 853.5,-402 669.5,-402 577.5,-384 669.5,-366 853.5,-366 945.5,-384"/>
<text text-anchor="middle" x="761.5" y="-380.3" font-family="Arial" font-size="14.00">Illustrate plants with and without water</text>
</g>
<!-- n2 -->
<g id="node2" class="node">
<title>n2</title>
<polygon fill="#fffdd0" stroke="black" points="356,-280 9,-280 9,-244 356,-244 356,-280"/>
<text text-anchor="middle" x="182.5" y="-258.3" font-family="Arial" font-size="14.00">Healthy plant with green leaves, sturdy stem, moist soil</text>
</g>
<!-- n1&#45;&gt;n2 -->
<g id="edge1" class="edge">
<title>n1&#45;&gt;n2</title>
<path fill="none" stroke="black" d="M679.47,-366C572.57,-343.84 386.16,-305.21 274.55,-282.08"/>
<polygon fill="black" stroke="black" points="275.15,-278.63 264.65,-280.03 273.73,-285.49 275.15,-278.63"/>
</g>
<!-- n3 -->
<g id="node3" class="node">
<title>n3</title>
<polygon fill="#fffdd0" stroke="black" points="739.5,-280 419.5,-280 419.5,-244 739.5,-244 739.5,-280"/>
<text text-anchor="middle" x="579.5" y="-258.3" font-family="Arial" font-size="14.00">Unhealthy plant with droopy, brown leaves, dry soil</text>
</g>
<!-- n1&#45;&gt;n3 -->
<g id="edge2" class="edge">
<title>n1&#45;&gt;n3</title>
<path fill="none" stroke="black" d="M735.42,-365.81C703.53,-344.78 649.43,-309.11 614.08,-285.8"/>
<polygon fill="black" stroke="black" points="615.8,-282.74 605.53,-280.16 611.95,-288.59 615.8,-282.74"/>
</g>
<!-- n4 -->
<g id="node4" class="node">
<title>n4</title>
<polygon fill="#fffdd0" stroke="black" points="1108,-280 815,-280 815,-244 1108,-244 1108,-280"/>
<text text-anchor="middle" x="961.5" y="-258.3" font-family="Arial" font-size="14.00">Sun and raindrops symbolizing light and water</text>
</g>
<!-- n1&#45;&gt;n4 -->
<g id="edge3" class="edge">
<title>n1&#45;&gt;n4</title>
<path fill="none" stroke="black" d="M790.16,-365.81C825.35,-344.69 885.16,-308.81 923.99,-285.51"/>
<polygon fill="black" stroke="black" points="926.13,-288.31 932.9,-280.16 922.53,-282.31 926.13,-288.31"/>
</g>
<!-- n5 -->
<g id="node5" class="node">
<title>n5</title>
<polygon fill="#fffdd0" stroke="black" points="1491.5,-280 1271.5,-280 1271.5,-244 1491.5,-244 1491.5,-280"/>
<text text-anchor="middle" x="1381.5" y="-258.3" font-family="Arial" font-size="14.00">Labeled parts: roots, stem, leaves</text>
</g>
<!-- n1&#45;&gt;n5 -->
<g id="edge4" class="edge">
<title>n1&#45;&gt;n5</title>
<path fill="none" stroke="black" d="M849.34,-366C964.04,-343.8 1164.2,-305.05 1283.7,-281.94"/>
<polygon fill="black" stroke="black" points="1284.35,-285.38 1293.5,-280.03 1283.02,-278.51 1284.35,-285.38"/>
</g>
<!-- n6 -->
<g id="node6" class="node">
<title>n6</title>
<path fill="palegreen" stroke="black" d="M327,-158C327,-158 12,-158 12,-158 6,-158 0,-152 0,-146 0,-146 0,-134 0,-134 0,-128 6,-122 12,-122 12,-122 327,-122 327,-122 333,-122 339,-128 339,-134 339,-134 339,-146 339,-146 339,-152 333,-158 327,-158"/>
<text text-anchor="middle" x="169.5" y="-136.3" font-family="Arial" font-size="14.00">Understands plants need water and light to be healthy</text>
</g>
<!-- n2&#45;&gt;n6 -->
<g id="edge5" class="edge">
<title>n2&#45;&gt;n6</title>
<path fill="none" stroke="black" d="M180.64,-243.81C178.5,-224.11 174.98,-191.58 172.47,-168.39"/>
<polygon fill="black" stroke="black" points="175.92,-167.72 171.36,-158.16 168.96,-168.48 175.92,-167.72"/>
</g>
<!-- n7 -->
<g id="node7" class="node">
<title>n7</title>
<path fill="palegreen" stroke="black" d="M733.5,-158C733.5,-158 409.5,-158 409.5,-158 403.5,-158 397.5,-152 397.5,-146 397.5,-146 397.5,-134 397.5,-134 397.5,-128 403.5,-122 409.5,-122 409.5,-122 733.5,-122 733.5,-122 739.5,-122 745.5,-128 745.5,-134 745.5,-134 745.5,-146 745.5,-146 745.5,-152 739.5,-158 733.5,-158"/>
<text text-anchor="middle" x="571.5" y="-136.3" font-family="Arial" font-size="14.00">Understands lack of water causes plant to be unhealthy</text>
</g>
<!-- n3&#45;&gt;n7 -->
<g id="edge6" class="edge">
<title>n3&#45;&gt;n7</title>
<path fill="none" stroke="black" d="M578.35,-243.81C577.04,-224.11 574.87,-191.58 573.33,-168.39"/>
<polygon fill="black" stroke="black" points="576.81,-167.9 572.64,-158.16 569.82,-168.37 576.81,-167.9"/>
</g>
<!-- n8 -->
<g id="node8" class="node">
<title>n8</title>
<path fill="palegreen" stroke="black" d="M1125.5,-158C1125.5,-158 815.5,-158 815.5,-158 809.5,-158 803.5,-152 803.5,-146 803.5,-146 803.5,-134 803.5,-134 803.5,-128 809.5,-122 815.5,-122 815.5,-122 1125.5,-122 1125.5,-122 1131.5,-122 1137.5,-128 1137.5,-134 1137.5,-134 1137.5,-146 1137.5,-146 1137.5,-152 1131.5,-158 1125.5,-158"/>
<text text-anchor="middle" x="970.5" y="-136.3" font-family="Arial" font-size="14.00">Understands that sun and water symbols are needed</text>
</g>
<!-- n4&#45;&gt;n8 -->
<g id="edge7" class="edge">
<title>n4&#45;&gt;n8</title>
<path fill="none" stroke="black" d="M962.79,-243.81C964.27,-224.11 966.71,-191.58 968.45,-168.39"/>
<polygon fill="black" stroke="black" points="971.96,-168.39 969.21,-158.16 964.98,-167.87 971.96,-168.39"/>
</g>
<!-- n9 -->
<g id="node9" class="node">
<title>n9</title>
<polygon fill="lightcoral" stroke="black" points="1479.5,-158 1195.46,-140 1479.5,-122 1763.54,-140 1479.5,-158"/>
<text text-anchor="middle" x="1479.5" y="-136.3" font-family="Arial" font-size="14.00">Correctly labels parts but misses leaf vein details</text>
</g>
<!-- n5&#45;&gt;n9 -->
<g id="edge8" class="edge">
<title>n5&#45;&gt;n9</title>
<path fill="none" stroke="black" d="M1395.5,-243.81C1412.3,-223.26 1440.5,-188.74 1459.6,-165.42"/>
<polygon fill="black" stroke="black" points="1462.53,-167.36 1466.1,-157.39 1457.09,-162.96 1462.53,-167.36"/>
</g>
<!-- n10 -->
<g id="node10" class="node">
<title>n10</title>
<polygon fill="#f28e8e" stroke="black" points="1617,-36 1342,-36 1342,0 1617,0 1617,-36"/>
<text text-anchor="middle" x="1479.5" y="-14.3" font-family="Arial" font-size="14.00">Add details like leaf veins for completeness</text>
</g>
<!-- n9&#45;&gt;n10 -->
<g id="edge9" class="edge">
<title>n9&#45;&gt;n10</title>
<path fill="none" stroke="black" d="M1479.5,-121.81C1479.5,-102.11 1479.5,-69.58 1479.5,-46.39"/>
<polygon fill="black" stroke="black" points="1483,-46.16 1479.5,-36.16 1476,-46.16 1483,-46.16"/>
</g>
</g>
</svg>
