<?xml version="1.0" encoding="UTF-8" standalone="no"?>
<!DOCTYPE svg PUBLIC "-//W3C//DTD SVG 1.1//EN"
 "http://www.w3.org/Graphics/SVG/1.1/DTD/svg11.dtd">
<!-- Generated by graphviz version 2.43.0 (0)
 -->
<!-- Pages: 1 -->
<svg width="1511pt" height="410pt"
 viewBox="0.00 0.00 1511.00 410.00" xmlns="http://www.w3.org/2000/svg" xmlns:xlink="http://www.w3.org/1999/xlink">
<g id="graph0" class="graph" transform="scale(1 1) rotate(0) translate(4 406)">
<polygon fill="white" stroke="transparent" points="-4,4 -4,-406 1507,-406 1507,4 -4,4"/>
<!-- n1 -->
<g id="node1" class="node">
<title>n1</title>
<polygon fill="lightblue" stroke="black" points="964.82,-384 842.41,-402 597.59,-402 475.18,-384 597.59,-366 842.41,-366 964.82,-384"/>
<text text-anchor="middle" x="720" y="-380.3" font-family="Arial" font-size="14.00">Draw a habitat and the different living things in each</text>
</g>
<!-- n2 -->
<g id="node2" class="node">
<title>n2</title>
<polygon fill="#fffdd0" stroke="black" points="802,-280 638,-280 638,-244 802,-244 802,-280"/>
<text text-anchor="middle" x="720" y="-258.3" font-family="Arial" font-size="14.00">Pond with water and fish</text>
</g>
<!-- n1&#45;&gt;n2 -->
<g id="edge1" class="edge">
<title>n1&#45;&gt;n2</title>
<path fill="none" stroke="black" d="M720,-365.81C720,-346.11 720,-313.58 720,-290.39"/>
<polygon fill="black" stroke="black" points="723.5,-290.16 720,-280.16 716.5,-290.16 723.5,-290.16"/>
</g>
<!-- n3 -->
<g id="node3" class="node">
<title>n3</title>
<polygon fill="#fffdd0" stroke="black" points="1388.5,-280 1243.5,-280 1243.5,-244 1388.5,-244 1388.5,-280"/>
<text text-anchor="middle" x="1316" y="-258.3" font-family="Arial" font-size="14.00">Frog next to the pond</text>
</g>
<!-- n1&#45;&gt;n3 -->
<g id="edge2" class="edge">
<title>n1&#45;&gt;n3</title>
<path fill="none" stroke="black" d="M804.44,-366C918.38,-343.06 1120.1,-302.45 1233.2,-279.68"/>
<polygon fill="black" stroke="black" points="1234,-283.09 1243.1,-277.67 1232.6,-276.23 1234,-283.09"/>
</g>
<!-- n4 -->
<g id="node4" class="node">
<title>n4</title>
<polygon fill="#fffdd0" stroke="black" points="580,-280 400,-280 400,-244 580,-244 580,-280"/>
<text text-anchor="middle" x="490" y="-258.3" font-family="Arial" font-size="14.00">Garden with tree and grass</text>
</g>
<!-- n1&#45;&gt;n4 -->
<g id="edge3" class="edge">
<title>n1&#45;&gt;n4</title>
<path fill="none" stroke="black" d="M687.05,-365.81C646.23,-344.51 576.63,-308.2 532.01,-284.92"/>
<polygon fill="black" stroke="black" points="533.37,-281.68 522.89,-280.16 530.14,-287.89 533.37,-281.68"/>
</g>
<!-- n5 -->
<g id="node5" class="node">
<title>n5</title>
<polygon fill="#fffdd0" stroke="black" points="1124.5,-280 981.5,-280 981.5,-244 1124.5,-244 1124.5,-280"/>
<text text-anchor="middle" x="1053" y="-258.3" font-family="Arial" font-size="14.00">Squirrel near the tree</text>
</g>
<!-- n1&#45;&gt;n5 -->
<g id="edge4" class="edge">
<title>n1&#45;&gt;n5</title>
<path fill="none" stroke="black" d="M767.36,-365.93C827.65,-344.21 931.71,-306.71 996.2,-283.47"/>
<polygon fill="black" stroke="black" points="997.58,-286.69 1005.8,-280.01 995.21,-280.11 997.58,-286.69"/>
</g>
<!-- n6 -->
<g id="node6" class="node">
<title>n6</title>
<polygon fill="#fffdd0" stroke="black" points="274,-280 96,-280 96,-244 274,-244 274,-280"/>
<text text-anchor="middle" x="185" y="-258.3" font-family="Arial" font-size="14.00">Large flowers near the tree</text>
</g>
<!-- n1&#45;&gt;n6 -->
<g id="edge5" class="edge">
<title>n1&#45;&gt;n6</title>
<path fill="none" stroke="black" d="M644.2,-366C545.62,-343.89 373.88,-305.37 270.68,-282.22"/>
<polygon fill="black" stroke="black" points="271.43,-278.8 260.91,-280.03 269.9,-285.63 271.43,-278.8"/>
</g>
<!-- n7 -->
<g id="node7" class="node">
<title>n7</title>
<path fill="palegreen" stroke="black" d="M220,-158C220,-158 12,-158 12,-158 6,-158 0,-152 0,-146 0,-146 0,-134 0,-134 0,-128 6,-122 12,-122 12,-122 220,-122 220,-122 226,-122 232,-128 232,-134 232,-134 232,-146 232,-146 232,-152 226,-158 220,-158"/>
<text text-anchor="middle" x="116" y="-136.3" font-family="Arial" font-size="14.00">Understands basic habitat elements</text>
</g>
<!-- n2&#45;&gt;n7 -->
<g id="edge6" class="edge">
<title>n2&#45;&gt;n7</title>
<path fill="none" stroke="black" d="M637.91,-244.69C526.96,-222.65 329.53,-183.42 211.89,-160.05"/>
<polygon fill="black" stroke="black" points="212.3,-156.56 201.81,-158.05 210.94,-163.43 212.3,-156.56"/>
</g>
<!-- n9 -->
<g id="node8" class="node">
<title>n9</title>
<polygon fill="lightcoral" stroke="black" points="490,-158 289.5,-140 490,-122 690.5,-140 490,-158"/>
<text text-anchor="middle" x="490" y="-136.3" font-family="Arial" font-size="14.00">Lacks diversity in plant/animal life</text>
</g>
<!-- n2&#45;&gt;n9 -->
<g id="edge7" class="edge">
<title>n2&#45;&gt;n9</title>
<path fill="none" stroke="black" d="M687.05,-243.81C644.6,-221.66 571.05,-183.29 526.81,-160.21"/>
<polygon fill="black" stroke="black" points="528.32,-157.05 517.84,-155.53 525.09,-163.26 528.32,-157.05"/>
</g>
<!-- n10 -->
<g id="node9" class="node">
<title>n10</title>
<polygon fill="lightcoral" stroke="black" points="971,-158 748.5,-140 971,-122 1193.5,-140 971,-158"/>
<text text-anchor="middle" x="971" y="-136.3" font-family="Arial" font-size="14.00">Struggles with connections in habitats</text>
</g>
<!-- n2&#45;&gt;n10 -->
<g id="edge8" class="edge">
<title>n2&#45;&gt;n10</title>
<path fill="none" stroke="black" d="M755.7,-243.93C802.14,-221.73 883.03,-183.06 931.34,-159.96"/>
<polygon fill="black" stroke="black" points="933.04,-163.03 940.55,-155.56 930.02,-156.71 933.04,-163.03"/>
</g>
<!-- n8 -->
<g id="node10" class="node">
<title>n8</title>
<path fill="palegreen" stroke="black" d="M1491,-158C1491,-158 1263,-158 1263,-158 1257,-158 1251,-152 1251,-146 1251,-146 1251,-134 1251,-134 1251,-128 1257,-122 1263,-122 1263,-122 1491,-122 1491,-122 1497,-122 1503,-128 1503,-134 1503,-134 1503,-146 1503,-146 1503,-152 1497,-158 1491,-158"/>
<text text-anchor="middle" x="1377" y="-136.3" font-family="Arial" font-size="14.00">Recognizes specific animals in habitats</text>
</g>
<!-- n3&#45;&gt;n8 -->
<g id="edge9" class="edge">
<title>n3&#45;&gt;n8</title>
<path fill="none" stroke="black" d="M1324.7,-243.81C1334.9,-223.76 1351.9,-190.4 1363.7,-167.14"/>
<polygon fill="black" stroke="black" points="1366.86,-168.66 1368.3,-158.16 1360.63,-165.46 1366.86,-168.66"/>
</g>
<!-- n4&#45;&gt;n7 -->
<g id="edge10" class="edge">
<title>n4&#45;&gt;n7</title>
<path fill="none" stroke="black" d="M436.81,-243.93C368.82,-222.12 251.27,-184.4 178.91,-161.18"/>
<polygon fill="black" stroke="black" points="179.59,-157.72 169,-158.01 177.46,-164.39 179.59,-157.72"/>
</g>
<!-- n4&#45;&gt;n9 -->
<g id="edge11" class="edge">
<title>n4&#45;&gt;n9</title>
<path fill="none" stroke="black" d="M490,-243.81C490,-224.11 490,-191.58 490,-168.39"/>
<polygon fill="black" stroke="black" points="493.5,-168.16 490,-158.16 486.5,-168.16 493.5,-168.16"/>
</g>
<!-- n4&#45;&gt;n10 -->
<g id="edge12" class="edge">
<title>n4&#45;&gt;n10</title>
<path fill="none" stroke="black" d="M558.15,-244C651.95,-220.6 819.44,-178.81 909.56,-156.33"/>
<polygon fill="black" stroke="black" points="910.52,-159.7 919.37,-153.88 908.82,-152.91 910.52,-159.7"/>
</g>
<!-- n5&#45;&gt;n8 -->
<g id="edge13" class="edge">
<title>n5&#45;&gt;n8</title>
<path fill="none" stroke="black" d="M1099.1,-243.93C1157.6,-222.25 1258.6,-184.86 1321.3,-161.61"/>
<polygon fill="black" stroke="black" points="1322.92,-164.74 1331.1,-158.01 1320.51,-158.17 1322.92,-164.74"/>
</g>
<!-- n6&#45;&gt;n7 -->
<g id="edge14" class="edge">
<title>n6&#45;&gt;n7</title>
<path fill="none" stroke="black" d="M175.11,-243.81C163.53,-223.67 144.24,-190.1 130.85,-166.83"/>
<polygon fill="black" stroke="black" points="133.89,-165.09 125.87,-158.16 127.82,-168.57 133.89,-165.09"/>
</g>
<!-- n11 -->
<g id="node11" class="node">
<title>n11</title>
<polygon fill="#f28e8e" stroke="black" points="618.5,-36 361.5,-36 361.5,0 618.5,0 618.5,-36"/>
<text text-anchor="middle" x="490" y="-14.3" font-family="Arial" font-size="14.00">Include a wider variety of plants/animals</text>
</g>
<!-- n9&#45;&gt;n11 -->
<g id="edge15" class="edge">
<title>n9&#45;&gt;n11</title>
<path fill="none" stroke="black" d="M490,-121.81C490,-102.11 490,-69.58 490,-46.39"/>
<polygon fill="black" stroke="black" points="493.5,-46.16 490,-36.16 486.5,-46.16 493.5,-46.16"/>
</g>
<!-- n12 -->
<g id="node12" class="node">
<title>n12</title>
<polygon fill="#f28e8e" stroke="black" points="1080.5,-36 861.5,-36 861.5,0 1080.5,0 1080.5,-36"/>
<text text-anchor="middle" x="971" y="-14.3" font-family="Arial" font-size="14.00">Show relationships within habitats</text>
</g>
<!-- n10&#45;&gt;n12 -->
<g id="edge16" class="edge">
<title>n10&#45;&gt;n12</title>
<path fill="none" stroke="black" d="M971,-121.81C971,-102.11 971,-69.58 971,-46.39"/>
<polygon fill="black" stroke="black" points="974.5,-46.16 971,-36.16 967.5,-46.16 974.5,-46.16"/>
</g>
</g>
</svg>
