<?xml version="1.0" encoding="UTF-8" standalone="no"?>
<!DOCTYPE svg PUBLIC "-//W3C//DTD SVG 1.1//EN"
 "http://www.w3.org/Graphics/SVG/1.1/DTD/svg11.dtd">
<!-- Generated by graphviz version 2.43.0 (0)
 -->
<!-- Pages: 1 -->
<svg width="2041pt" height="288pt"
 viewBox="0.00 0.00 2040.50 288.00" xmlns="http://www.w3.org/2000/svg" xmlns:xlink="http://www.w3.org/1999/xlink">
<g id="graph0" class="graph" transform="scale(1 1) rotate(0) translate(4 284)">
<polygon fill="white" stroke="transparent" points="-4,4 -4,-284 2036.5,-284 2036.5,4 -4,4"/>
<!-- n1 -->
<g id="node1" class="node">
<title>n1</title>
<polygon fill="lightblue" stroke="black" points="1341.5,-262 1230,-280 1007,-280 895.5,-262 1007,-244 1230,-244 1341.5,-262"/>
<text text-anchor="middle" x="1118.5" y="-258.3" font-family="Arial" font-size="14.00">Draw a string telephone between two students.</text>
</g>
<!-- n2 -->
<g id="node2" class="node">
<title>n2</title>
<polygon fill="#fffdd0" stroke="black" points="599,-158 330,-158 330,-122 599,-122 599,-158"/>
<text text-anchor="middle" x="464.5" y="-136.3" font-family="Arial" font-size="14.00">Student on the left speaking into a red cup</text>
</g>
<!-- n1&#45;&gt;n2 -->
<g id="edge1" class="edge">
<title>n1&#45;&gt;n2</title>
<path fill="none" stroke="black" d="M1025.8,-244C904.73,-221.78 693.27,-182.98 567.33,-159.87"/>
<polygon fill="black" stroke="black" points="567.76,-156.39 557.29,-158.03 566.5,-163.28 567.76,-156.39"/>
</g>
<!-- n3 -->
<g id="node3" class="node">
<title>n3</title>
<polygon fill="#fffdd0" stroke="black" points="938,-158 657,-158 657,-122 938,-122 938,-158"/>
<text text-anchor="middle" x="797.5" y="-136.3" font-family="Arial" font-size="14.00">Student on the right listening with a blue cup</text>
</g>
<!-- n1&#45;&gt;n3 -->
<g id="edge2" class="edge">
<title>n1&#45;&gt;n3</title>
<path fill="none" stroke="black" d="M1072.8,-243.93C1014.9,-222.25 914.84,-184.86 852.64,-161.61"/>
<polygon fill="black" stroke="black" points="853.58,-158.23 842.99,-158.01 851.14,-164.78 853.58,-158.23"/>
</g>
<!-- n4 -->
<g id="node4" class="node">
<title>n4</title>
<polygon fill="#fffdd0" stroke="black" points="1241,-158 996,-158 996,-122 1241,-122 1241,-158"/>
<text text-anchor="middle" x="1118.5" y="-136.3" font-family="Arial" font-size="14.00">Taut, straight line represents the string</text>
</g>
<!-- n1&#45;&gt;n4 -->
<g id="edge3" class="edge">
<title>n1&#45;&gt;n4</title>
<path fill="none" stroke="black" d="M1118.5,-243.81C1118.5,-224.11 1118.5,-191.58 1118.5,-168.39"/>
<polygon fill="black" stroke="black" points="1122,-168.16 1118.5,-158.16 1115,-168.16 1122,-168.16"/>
</g>
<!-- n5 -->
<g id="node5" class="node">
<title>n5</title>
<polygon fill="#fffdd0" stroke="black" points="1568,-158 1299,-158 1299,-122 1568,-122 1568,-158"/>
<text text-anchor="middle" x="1433.5" y="-136.3" font-family="Arial" font-size="14.00">Arrows on the string indicate sound waves</text>
</g>
<!-- n1&#45;&gt;n5 -->
<g id="edge4" class="edge">
<title>n1&#45;&gt;n5</title>
<path fill="none" stroke="black" d="M1163.3,-243.93C1220.2,-222.25 1318.4,-184.86 1379.4,-161.61"/>
<polygon fill="black" stroke="black" points="1380.79,-164.83 1388.9,-158.01 1378.31,-158.28 1380.79,-164.83"/>
</g>
<!-- n6 -->
<g id="node6" class="node">
<title>n6</title>
<polygon fill="#fffdd0" stroke="black" points="2032.5,-158 1630.5,-158 1630.5,-122 2032.5,-122 2032.5,-158"/>
<text text-anchor="middle" x="1831.5" y="-136.3" font-family="Arial" font-size="14.00">Caption explains sound travels through string for communication</text>
</g>
<!-- n1&#45;&gt;n6 -->
<g id="edge5" class="edge">
<title>n1&#45;&gt;n6</title>
<path fill="none" stroke="black" d="M1219.5,-244C1351.8,-221.73 1583,-182.82 1720.2,-159.73"/>
<polygon fill="black" stroke="black" points="1721.02,-163.14 1730.3,-158.03 1719.86,-156.24 1721.02,-163.14"/>
</g>
<!-- n7 -->
<g id="node7" class="node">
<title>n7</title>
<path fill="palegreen" stroke="black" d="M311,-36C311,-36 12,-36 12,-36 6,-36 0,-30 0,-24 0,-24 0,-12 0,-12 0,-6 6,0 12,0 12,0 311,0 311,0 317,0 323,-6 323,-12 323,-12 323,-24 323,-24 323,-30 317,-36 311,-36"/>
<text text-anchor="middle" x="161.5" y="-14.3" font-family="Arial" font-size="14.00">Understanding that sound travels through the string</text>
</g>
<!-- n2&#45;&gt;n7 -->
<g id="edge6" class="edge">
<title>n2&#45;&gt;n7</title>
<path fill="none" stroke="black" d="M421.41,-121.93C366.78,-100.3 272.64,-63.02 213.91,-39.76"/>
<polygon fill="black" stroke="black" points="215.03,-36.43 204.44,-36.01 212.45,-42.94 215.03,-36.43"/>
</g>
<!-- n11 -->
<g id="node8" class="node">
<title>n11</title>
<path fill="palegreen" stroke="black" d="M1167.5,-36C1167.5,-36 845.5,-36 845.5,-36 839.5,-36 833.5,-30 833.5,-24 833.5,-24 833.5,-12 833.5,-12 833.5,-6 839.5,0 845.5,0 845.5,0 1167.5,0 1167.5,0 1173.5,0 1179.5,-6 1179.5,-12 1179.5,-12 1179.5,-24 1179.5,-24 1179.5,-30 1173.5,-36 1167.5,-36"/>
<text text-anchor="middle" x="1006.5" y="-14.3" font-family="Arial" font-size="14.00">Understanding use of bright colors and labels for clarity</text>
</g>
<!-- n2&#45;&gt;n11 -->
<g id="edge7" class="edge">
<title>n2&#45;&gt;n11</title>
<path fill="none" stroke="black" d="M541.29,-122C641.16,-99.89 815.15,-61.37 919.7,-38.22"/>
<polygon fill="black" stroke="black" points="920.59,-41.61 929.6,-36.03 919.08,-34.77 920.59,-41.61"/>
</g>
<!-- n3&#45;&gt;n11 -->
<g id="edge8" class="edge">
<title>n3&#45;&gt;n11</title>
<path fill="none" stroke="black" d="M827.44,-121.81C864.38,-100.6 927.25,-64.5 967.81,-41.21"/>
<polygon fill="black" stroke="black" points="969.68,-44.18 976.61,-36.16 966.19,-38.1 969.68,-44.18"/>
</g>
<!-- n8 -->
<g id="node9" class="node">
<title>n8</title>
<path fill="palegreen" stroke="black" d="M763.5,-36C763.5,-36 393.5,-36 393.5,-36 387.5,-36 381.5,-30 381.5,-24 381.5,-24 381.5,-12 381.5,-12 381.5,-6 387.5,0 393.5,0 393.5,0 763.5,0 763.5,0 769.5,0 775.5,-6 775.5,-12 775.5,-12 775.5,-24 775.5,-24 775.5,-30 769.5,-36 763.5,-36"/>
<text text-anchor="middle" x="578.5" y="-14.3" font-family="Arial" font-size="14.00">Understanding communication between students over distance</text>
</g>
<!-- n3&#45;&gt;n8 -->
<g id="edge9" class="edge">
<title>n3&#45;&gt;n8</title>
<path fill="none" stroke="black" d="M766.12,-121.81C727.34,-100.55 661.26,-64.35 618.77,-41.07"/>
<polygon fill="black" stroke="black" points="620.27,-37.9 609.82,-36.16 616.91,-44.04 620.27,-37.9"/>
</g>
<!-- n4&#45;&gt;n11 -->
<g id="edge10" class="edge">
<title>n4&#45;&gt;n11</title>
<path fill="none" stroke="black" d="M1102.5,-121.81C1083.3,-101.31 1051.2,-66.91 1029.5,-43.6"/>
<polygon fill="black" stroke="black" points="1031.9,-41.05 1022.5,-36.16 1026.8,-45.84 1031.9,-41.05"/>
</g>
<!-- n9 -->
<g id="node10" class="node">
<title>n9</title>
<path fill="palegreen" stroke="black" d="M1613.5,-36C1613.5,-36 1249.5,-36 1249.5,-36 1243.5,-36 1237.5,-30 1237.5,-24 1237.5,-24 1237.5,-12 1237.5,-12 1237.5,-6 1243.5,0 1249.5,0 1249.5,0 1613.5,0 1613.5,0 1619.5,0 1625.5,-6 1625.5,-12 1625.5,-12 1625.5,-24 1625.5,-24 1625.5,-30 1619.5,-36 1613.5,-36"/>
<text text-anchor="middle" x="1431.5" y="-14.3" font-family="Arial" font-size="14.00">Complete understanding of sound wave indication with arrows</text>
</g>
<!-- n4&#45;&gt;n9 -->
<g id="edge11" class="edge">
<title>n4&#45;&gt;n9</title>
<path fill="none" stroke="black" d="M1163,-121.93C1219.6,-100.25 1317.1,-62.86 1377.7,-39.61"/>
<polygon fill="black" stroke="black" points="1379.02,-42.86 1387.1,-36.01 1376.51,-36.32 1379.02,-42.86"/>
</g>
<!-- n5&#45;&gt;n9 -->
<g id="edge12" class="edge">
<title>n5&#45;&gt;n9</title>
<path fill="none" stroke="black" d="M1433.2,-121.81C1432.9,-102.11 1432.3,-69.58 1432,-46.39"/>
<polygon fill="black" stroke="black" points="1435.49,-46.09 1431.8,-36.16 1428.5,-46.23 1435.49,-46.09"/>
</g>
<!-- n10 -->
<g id="node11" class="node">
<title>n10</title>
<path fill="palegreen" stroke="black" d="M1971.5,-36C1971.5,-36 1695.5,-36 1695.5,-36 1689.5,-36 1683.5,-30 1683.5,-24 1683.5,-24 1683.5,-12 1683.5,-12 1683.5,-6 1689.5,0 1695.5,0 1695.5,0 1971.5,0 1971.5,0 1977.5,0 1983.5,-6 1983.5,-12 1983.5,-12 1983.5,-24 1983.5,-24 1983.5,-30 1977.5,-36 1971.5,-36"/>
<text text-anchor="middle" x="1833.5" y="-14.3" font-family="Arial" font-size="14.00">Complete understanding of explanatory caption</text>
</g>
<!-- n6&#45;&gt;n10 -->
<g id="edge13" class="edge">
<title>n6&#45;&gt;n10</title>
<path fill="none" stroke="black" d="M1831.8,-121.81C1832.1,-102.11 1832.7,-69.58 1833,-46.39"/>
<polygon fill="black" stroke="black" points="1836.5,-46.23 1833.2,-36.16 1829.51,-46.09 1836.5,-46.23"/>
</g>
</g>
</svg>
