<?xml version="1.0" encoding="UTF-8" standalone="no"?>
<!DOCTYPE svg PUBLIC "-//W3C//DTD SVG 1.1//EN"
 "http://www.w3.org/Graphics/SVG/1.1/DTD/svg11.dtd">
<!-- Generated by graphviz version 2.43.0 (0)
 -->
<!-- Pages: 1 -->
<svg width="1278pt" height="410pt"
 viewBox="0.00 0.00 1277.50 410.00" xmlns="http://www.w3.org/2000/svg" xmlns:xlink="http://www.w3.org/1999/xlink">
<g id="graph0" class="graph" transform="scale(1 1) rotate(0) translate(4 406)">
<polygon fill="white" stroke="transparent" points="-4,4 -4,-406 1273.5,-406 1273.5,4 -4,4"/>
<!-- n1 -->
<g id="node1" class="node">
<title>n1</title>
<polygon fill="lightblue" stroke="black" points="826.5,-384 716.5,-402 496.5,-402 386.5,-384 496.5,-366 716.5,-366 826.5,-384"/>
<text text-anchor="middle" x="606.5" y="-380.3" font-family="Arial" font-size="14.00">Draw a string telephone between two students</text>
</g>
<!-- n2 -->
<g id="node2" class="node">
<title>n2</title>
<polygon fill="#fffdd0" stroke="black" points="276,-280 63,-280 63,-244 276,-244 276,-280"/>
<text text-anchor="middle" x="169.5" y="-258.3" font-family="Arial" font-size="14.00">Two students each holding a cup</text>
</g>
<!-- n1&#45;&gt;n2 -->
<g id="edge1" class="edge">
<title>n1&#45;&gt;n2</title>
<path fill="none" stroke="black" d="M544.35,-365.93C464.34,-343.96 325.58,-305.86 241.19,-282.69"/>
<polygon fill="black" stroke="black" points="242,-279.28 231.43,-280.01 240.15,-286.03 242,-279.28"/>
</g>
<!-- n3 -->
<g id="node3" class="node">
<title>n3</title>
<polygon fill="#fffdd0" stroke="black" points="592,-280 353,-280 353,-244 592,-244 592,-280"/>
<text text-anchor="middle" x="472.5" y="-258.3" font-family="Arial" font-size="14.00">Tightly stretched string between cups</text>
</g>
<!-- n1&#45;&gt;n3 -->
<g id="edge2" class="edge">
<title>n1&#45;&gt;n3</title>
<path fill="none" stroke="black" d="M587.3,-365.81C564.22,-345.13 525.33,-310.31 499.3,-287"/>
<polygon fill="black" stroke="black" points="501.44,-284.22 491.66,-280.16 496.78,-289.44 501.44,-284.22"/>
</g>
<!-- n4 -->
<g id="node4" class="node">
<title>n4</title>
<polygon fill="#fffdd0" stroke="black" points="841,-280 660,-280 660,-244 841,-244 841,-280"/>
<text text-anchor="middle" x="750.5" y="-258.3" font-family="Arial" font-size="14.00">Wave&#45;like lines along string</text>
</g>
<!-- n1&#45;&gt;n4 -->
<g id="edge3" class="edge">
<title>n1&#45;&gt;n4</title>
<path fill="none" stroke="black" d="M627.13,-365.81C652.05,-345.04 694.09,-310.01 722.06,-286.7"/>
<polygon fill="black" stroke="black" points="724.47,-289.25 729.91,-280.16 719.99,-283.87 724.47,-289.25"/>
</g>
<!-- n5 -->
<g id="node5" class="node">
<title>n5</title>
<polygon fill="#fffdd0" stroke="black" points="1141,-280 980,-280 980,-244 1141,-244 1141,-280"/>
<text text-anchor="middle" x="1060.5" y="-258.3" font-family="Arial" font-size="14.00">Labels: &#39;cup&#39; and &#39;string&#39;</text>
</g>
<!-- n1&#45;&gt;n5 -->
<g id="edge4" class="edge">
<title>n1&#45;&gt;n5</title>
<path fill="none" stroke="black" d="M671.06,-365.93C754.28,-343.94 898.64,-305.78 986.28,-282.62"/>
<polygon fill="black" stroke="black" points="987.39,-285.95 996.16,-280.01 985.6,-279.18 987.39,-285.95"/>
</g>
<!-- n6 -->
<g id="node6" class="node">
<title>n6</title>
<path fill="palegreen" stroke="black" d="M249,-158C249,-158 12,-158 12,-158 6,-158 0,-152 0,-146 0,-146 0,-134 0,-134 0,-128 6,-122 12,-122 12,-122 249,-122 249,-122 255,-122 261,-128 261,-134 261,-134 261,-146 261,-146 261,-152 255,-158 249,-158"/>
<text text-anchor="middle" x="130.5" y="-136.3" font-family="Arial" font-size="14.00">Communication through string telephone</text>
</g>
<!-- n2&#45;&gt;n6 -->
<g id="edge5" class="edge">
<title>n2&#45;&gt;n6</title>
<path fill="none" stroke="black" d="M163.91,-243.81C157.45,-223.94 146.75,-190.99 139.2,-167.76"/>
<polygon fill="black" stroke="black" points="142.5,-166.59 136.08,-158.16 135.84,-168.75 142.5,-166.59"/>
</g>
<!-- n7 -->
<g id="node7" class="node">
<title>n7</title>
<path fill="palegreen" stroke="black" d="M495.5,-158C495.5,-158 331.5,-158 331.5,-158 325.5,-158 319.5,-152 319.5,-146 319.5,-146 319.5,-134 319.5,-134 319.5,-128 325.5,-122 331.5,-122 331.5,-122 495.5,-122 495.5,-122 501.5,-122 507.5,-128 507.5,-134 507.5,-134 507.5,-146 507.5,-146 507.5,-152 501.5,-158 495.5,-158"/>
<text text-anchor="middle" x="413.5" y="-136.3" font-family="Arial" font-size="14.00">String conveys sound waves</text>
</g>
<!-- n3&#45;&gt;n7 -->
<g id="edge6" class="edge">
<title>n3&#45;&gt;n7</title>
<path fill="none" stroke="black" d="M464.05,-243.81C454.19,-223.76 437.79,-190.4 426.35,-167.14"/>
<polygon fill="black" stroke="black" points="429.49,-165.59 421.94,-158.16 423.21,-168.68 429.49,-165.59"/>
</g>
<!-- n8 -->
<g id="node8" class="node">
<title>n8</title>
<polygon fill="lightcoral" stroke="black" points="760.5,-158 565.5,-140 760.5,-122 955.5,-140 760.5,-158"/>
<text text-anchor="middle" x="760.5" y="-136.3" font-family="Arial" font-size="14.00">Sound wave direction inaccurate</text>
</g>
<!-- n4&#45;&gt;n8 -->
<g id="edge7" class="edge">
<title>n4&#45;&gt;n8</title>
<path fill="none" stroke="black" d="M751.93,-243.81C753.57,-224.11 756.28,-191.58 758.22,-168.39"/>
<polygon fill="black" stroke="black" points="761.73,-168.42 759.07,-158.16 754.75,-167.84 761.73,-168.42"/>
</g>
<!-- n9 -->
<g id="node9" class="node">
<title>n9</title>
<polygon fill="lightcoral" stroke="black" points="1141.5,-158 1013.5,-140 1141.5,-122 1269.5,-140 1141.5,-158"/>
<text text-anchor="middle" x="1141.5" y="-136.3" font-family="Arial" font-size="14.00">Inconsistent labeling</text>
</g>
<!-- n5&#45;&gt;n9 -->
<g id="edge8" class="edge">
<title>n5&#45;&gt;n9</title>
<path fill="none" stroke="black" d="M1072.1,-243.81C1086.1,-223.12 1109.6,-188.27 1125.3,-164.95"/>
<polygon fill="black" stroke="black" points="1128.22,-166.88 1130.9,-156.63 1122.41,-162.97 1128.22,-166.88"/>
</g>
<!-- n10 -->
<g id="node10" class="node">
<title>n10</title>
<polygon fill="#f28e8e" stroke="black" points="919,-36 602,-36 602,0 919,0 919,-36"/>
<text text-anchor="middle" x="760.5" y="-14.3" font-family="Arial" font-size="14.00">Show how sound waves should move directionally</text>
</g>
<!-- n8&#45;&gt;n10 -->
<g id="edge9" class="edge">
<title>n8&#45;&gt;n10</title>
<path fill="none" stroke="black" d="M760.5,-121.81C760.5,-102.11 760.5,-69.58 760.5,-46.39"/>
<polygon fill="black" stroke="black" points="764,-46.16 760.5,-36.16 757,-46.16 764,-46.16"/>
</g>
<!-- n11 -->
<g id="node11" class="node">
<title>n11</title>
<polygon fill="#f28e8e" stroke="black" points="1243,-36 1040,-36 1040,0 1243,0 1243,-36"/>
<text text-anchor="middle" x="1141.5" y="-14.3" font-family="Arial" font-size="14.00">Use consistent labels for clarity</text>
</g>
<!-- n9&#45;&gt;n11 -->
<g id="edge10" class="edge">
<title>n9&#45;&gt;n11</title>
<path fill="none" stroke="black" d="M1141.5,-121.81C1141.5,-102.11 1141.5,-69.58 1141.5,-46.39"/>
<polygon fill="black" stroke="black" points="1145,-46.16 1141.5,-36.16 1138,-46.16 1145,-46.16"/>
</g>
</g>
</svg>
