<?xml version="1.0" encoding="UTF-8" standalone="no"?>
<!DOCTYPE svg PUBLIC "-//W3C//DTD SVG 1.1//EN"
 "http://www.w3.org/Graphics/SVG/1.1/DTD/svg11.dtd">
<!-- Generated by graphviz version 2.43.0 (0)
 -->
<!-- Pages: 1 -->
<svg width="787pt" height="532pt"
 viewBox="0.00 0.00 786.50 532.00" xmlns="http://www.w3.org/2000/svg" xmlns:xlink="http://www.w3.org/1999/xlink">
<g id="graph0" class="graph" transform="scale(1 1) rotate(0) translate(4 528)">
<polygon fill="white" stroke="transparent" points="-4,4 -4,-528 782.5,-528 782.5,4 -4,4"/>
<!-- n1 -->
<g id="node1" class="node">
<title>n1</title>
<polygon fill="lightblue" stroke="black" points="520,-506 428,-524 244,-524 152,-506 244,-488 428,-488 520,-506"/>
<text text-anchor="middle" x="336" y="-502.3" font-family="Arial" font-size="14.00">Illustrate plants with and without water</text>
</g>
<!-- n2 -->
<g id="node2" class="node">
<title>n2</title>
<polygon fill="#fffdd0" stroke="black" points="417.5,-402 254.5,-402 254.5,-366 417.5,-366 417.5,-402"/>
<text text-anchor="middle" x="336" y="-380.3" font-family="Arial" font-size="14.00">Two potted plants drawn</text>
</g>
<!-- n1&#45;&gt;n2 -->
<g id="edge1" class="edge">
<title>n1&#45;&gt;n2</title>
<path fill="none" stroke="black" d="M336,-487.81C336,-468.11 336,-435.58 336,-412.39"/>
<polygon fill="black" stroke="black" points="339.5,-412.16 336,-402.16 332.5,-412.16 339.5,-412.16"/>
</g>
<!-- n3 -->
<g id="node3" class="node">
<title>n3</title>
<polygon fill="#fffdd0" stroke="black" points="295,-280 35,-280 35,-244 295,-244 295,-280"/>
<text text-anchor="middle" x="165" y="-258.3" font-family="Arial" font-size="14.00">Vibrant green plant with extended leaves</text>
</g>
<!-- n2&#45;&gt;n3 -->
<g id="edge2" class="edge">
<title>n2&#45;&gt;n3</title>
<path fill="none" stroke="black" d="M311.5,-365.81C281.66,-344.87 231.13,-309.41 197.92,-286.1"/>
<polygon fill="black" stroke="black" points="199.65,-283.04 189.45,-280.16 195.63,-288.77 199.65,-283.04"/>
</g>
<!-- n4 -->
<g id="node4" class="node">
<title>n4</title>
<polygon fill="#fffdd0" stroke="black" points="660.5,-280 353.5,-280 353.5,-244 660.5,-244 660.5,-280"/>
<text text-anchor="middle" x="507" y="-258.3" font-family="Arial" font-size="14.00">Mix of green and brown plant with droopy leaves</text>
</g>
<!-- n2&#45;&gt;n4 -->
<g id="edge3" class="edge">
<title>n2&#45;&gt;n4</title>
<path fill="none" stroke="black" d="M360.5,-365.81C390.34,-344.87 440.87,-309.41 474.08,-286.1"/>
<polygon fill="black" stroke="black" points="476.37,-288.77 482.55,-280.16 472.35,-283.04 476.37,-288.77"/>
</g>
<!-- n5 -->
<g id="node5" class="node">
<title>n5</title>
<path fill="palegreen" stroke="black" d="M242,-158C242,-158 12,-158 12,-158 6,-158 0,-152 0,-146 0,-146 0,-134 0,-134 0,-128 6,-122 12,-122 12,-122 242,-122 242,-122 248,-122 254,-128 254,-134 254,-134 254,-146 254,-146 254,-152 248,-158 242,-158"/>
<text text-anchor="middle" x="127" y="-136.3" font-family="Arial" font-size="14.00">Understands water&#39;s role in plant health</text>
</g>
<!-- n3&#45;&gt;n5 -->
<g id="edge4" class="edge">
<title>n3&#45;&gt;n5</title>
<path fill="none" stroke="black" d="M159.56,-243.81C153.26,-223.94 142.83,-190.99 135.47,-167.76"/>
<polygon fill="black" stroke="black" points="138.79,-166.64 132.43,-158.16 132.11,-168.75 138.79,-166.64"/>
</g>
<!-- n6 -->
<g id="node6" class="node">
<title>n6</title>
<polygon fill="lightcoral" stroke="black" points="545,-158 311.5,-140 545,-122 778.5,-140 545,-158"/>
<text text-anchor="middle" x="545" y="-136.3" font-family="Arial" font-size="14.00">Inadequate representation of light&#39;s role</text>
</g>
<!-- n3&#45;&gt;n6 -->
<g id="edge5" class="edge">
<title>n3&#45;&gt;n6</title>
<path fill="none" stroke="black" d="M219.04,-243.93C291.55,-221.04 419.53,-180.62 491.67,-157.84"/>
<polygon fill="black" stroke="black" points="492.99,-161.1 501.47,-154.75 490.88,-154.42 492.99,-161.1"/>
</g>
<!-- n4&#45;&gt;n5 -->
<g id="edge6" class="edge">
<title>n4&#45;&gt;n5</title>
<path fill="none" stroke="black" d="M452.96,-243.93C383.74,-222.07 263.95,-184.25 190.46,-161.04"/>
<polygon fill="black" stroke="black" points="191.44,-157.68 180.85,-158.01 189.33,-164.36 191.44,-157.68"/>
</g>
<!-- n4&#45;&gt;n6 -->
<g id="edge7" class="edge">
<title>n4&#45;&gt;n6</title>
<path fill="none" stroke="black" d="M512.44,-243.81C518.77,-223.82 529.29,-190.62 536.65,-167.37"/>
<polygon fill="black" stroke="black" points="540.01,-168.36 539.69,-157.77 533.33,-166.25 540.01,-168.36"/>
</g>
<!-- n7 -->
<g id="node7" class="node">
<title>n7</title>
<polygon fill="#f28e8e" stroke="black" points="685.5,-36 404.5,-36 404.5,0 685.5,0 685.5,-36"/>
<text text-anchor="middle" x="545" y="-14.3" font-family="Arial" font-size="14.00">Could improve by illustrating sunlight effects</text>
</g>
<!-- n6&#45;&gt;n7 -->
<g id="edge8" class="edge">
<title>n6&#45;&gt;n7</title>
<path fill="none" stroke="black" d="M545,-121.81C545,-102.11 545,-69.58 545,-46.39"/>
<polygon fill="black" stroke="black" points="548.5,-46.16 545,-36.16 541.5,-46.16 548.5,-46.16"/>
</g>
</g>
</svg>
