<?xml version="1.0" encoding="UTF-8" standalone="no"?>
<!DOCTYPE svg PUBLIC "-//W3C//DTD SVG 1.1//EN"
 "http://www.w3.org/Graphics/SVG/1.1/DTD/svg11.dtd">
<!-- Generated by graphviz version 2.43.0 (0)
 -->
<!-- Pages: 1 -->
<svg width="1714pt" height="410pt"
 viewBox="0.00 0.00 1713.50 410.00" xmlns="http://www.w3.org/2000/svg" xmlns:xlink="http://www.w3.org/1999/xlink">
<g id="graph0" class="graph" transform="scale(1 1) rotate(0) translate(4 406)">
<polygon fill="white" stroke="transparent" points="-4,4 -4,-406 1709.5,-406 1709.5,4 -4,4"/>
<!-- n1 -->
<g id="node1" class="node">
<title>n1</title>
<polygon fill="lightblue" stroke="black" points="1414.5,-384 1300.75,-402 1073.25,-402 959.5,-384 1073.25,-366 1300.75,-366 1414.5,-384"/>
<text text-anchor="middle" x="1187" y="-380.3" font-family="Arial" font-size="14.00">Illustrate plants with and without water and light.</text>
</g>
<!-- n2 -->
<g id="node2" class="node">
<title>n2</title>
<polygon fill="#fffdd0" stroke="black" points="827.5,-280 550.5,-280 550.5,-244 827.5,-244 827.5,-280"/>
<text text-anchor="middle" x="689" y="-258.3" font-family="Arial" font-size="14.00">Healthy plant with green leaves and flowers</text>
</g>
<!-- n1&#45;&gt;n2 -->
<g id="edge1" class="edge">
<title>n1&#45;&gt;n2</title>
<path fill="none" stroke="black" d="M1116.4,-366C1025,-343.95 865.78,-305.6 769.63,-282.43"/>
<polygon fill="black" stroke="black" points="770.2,-278.97 759.66,-280.03 768.56,-285.77 770.2,-278.97"/>
</g>
<!-- n3 -->
<g id="node3" class="node">
<title>n3</title>
<polygon fill="#fffdd0" stroke="black" points="1344,-280 1030,-280 1030,-244 1344,-244 1344,-280"/>
<text text-anchor="middle" x="1187" y="-258.3" font-family="Arial" font-size="14.00">Wilting plant with droopy brown and yellow leaves</text>
</g>
<!-- n1&#45;&gt;n3 -->
<g id="edge2" class="edge">
<title>n1&#45;&gt;n3</title>
<path fill="none" stroke="black" d="M1187,-365.81C1187,-346.11 1187,-313.58 1187,-290.39"/>
<polygon fill="black" stroke="black" points="1190.5,-290.16 1187,-280.16 1183.5,-290.16 1190.5,-290.16"/>
</g>
<!-- n4 -->
<g id="node4" class="node">
<title>n4</title>
<polygon fill="#fffdd0" stroke="black" points="1617,-280 1429,-280 1429,-244 1617,-244 1617,-280"/>
<text text-anchor="middle" x="1523" y="-258.3" font-family="Arial" font-size="14.00">Plant with pale yellow leaves</text>
</g>
<!-- n1&#45;&gt;n4 -->
<g id="edge3" class="edge">
<title>n1&#45;&gt;n4</title>
<path fill="none" stroke="black" d="M1234.8,-365.93C1295.6,-344.21 1400.6,-306.71 1465.7,-283.47"/>
<polygon fill="black" stroke="black" points="1467.16,-286.67 1475.4,-280.01 1464.81,-280.07 1467.16,-286.67"/>
</g>
<!-- n5 -->
<g id="node5" class="node">
<title>n5</title>
<path fill="palegreen" stroke="black" d="M328,-158C328,-158 12,-158 12,-158 6,-158 0,-152 0,-146 0,-146 0,-134 0,-134 0,-128 6,-122 12,-122 12,-122 328,-122 328,-122 334,-122 340,-128 340,-134 340,-134 340,-146 340,-146 340,-152 334,-158 328,-158"/>
<text text-anchor="middle" x="170" y="-136.3" font-family="Arial" font-size="14.00">Understands that water and light make a plant healthy</text>
</g>
<!-- n2&#45;&gt;n5 -->
<g id="edge4" class="edge">
<title>n2&#45;&gt;n5</title>
<path fill="none" stroke="black" d="M615.47,-244C519.93,-221.91 353.56,-183.44 253.42,-160.29"/>
<polygon fill="black" stroke="black" points="254.17,-156.87 243.64,-158.03 252.6,-163.69 254.17,-156.87"/>
</g>
<!-- n8 -->
<g id="node6" class="node">
<title>n8</title>
<polygon fill="lightcoral" stroke="black" points="689,-158 397.5,-140 689,-122 980.5,-140 689,-158"/>
<text text-anchor="middle" x="689" y="-136.3" font-family="Arial" font-size="14.00">Limited details of roots show partial understanding</text>
</g>
<!-- n2&#45;&gt;n8 -->
<g id="edge5" class="edge">
<title>n2&#45;&gt;n8</title>
<path fill="none" stroke="black" d="M689,-243.81C689,-224.11 689,-191.58 689,-168.39"/>
<polygon fill="black" stroke="black" points="692.5,-168.16 689,-158.16 685.5,-168.16 692.5,-168.16"/>
</g>
<!-- n6 -->
<g id="node7" class="node">
<title>n6</title>
<path fill="palegreen" stroke="black" d="M1324,-158C1324,-158 1050,-158 1050,-158 1044,-158 1038,-152 1038,-146 1038,-146 1038,-134 1038,-134 1038,-128 1044,-122 1050,-122 1050,-122 1324,-122 1324,-122 1330,-122 1336,-128 1336,-134 1336,-134 1336,-146 1336,-146 1336,-152 1330,-158 1324,-158"/>
<text text-anchor="middle" x="1187" y="-136.3" font-family="Arial" font-size="14.00">Understands that a lack of water causes wilting</text>
</g>
<!-- n3&#45;&gt;n6 -->
<g id="edge6" class="edge">
<title>n3&#45;&gt;n6</title>
<path fill="none" stroke="black" d="M1187,-243.81C1187,-224.11 1187,-191.58 1187,-168.39"/>
<polygon fill="black" stroke="black" points="1190.5,-168.16 1187,-158.16 1183.5,-168.16 1190.5,-168.16"/>
</g>
<!-- n7 -->
<g id="node8" class="node">
<title>n7</title>
<path fill="palegreen" stroke="black" d="M1693.5,-158C1693.5,-158 1406.5,-158 1406.5,-158 1400.5,-158 1394.5,-152 1394.5,-146 1394.5,-146 1394.5,-134 1394.5,-134 1394.5,-128 1400.5,-122 1406.5,-122 1406.5,-122 1693.5,-122 1693.5,-122 1699.5,-122 1705.5,-128 1705.5,-134 1705.5,-134 1705.5,-146 1705.5,-146 1705.5,-152 1699.5,-158 1693.5,-158"/>
<text text-anchor="middle" x="1550" y="-136.3" font-family="Arial" font-size="14.00">Understands that a lack of light causes pale color</text>
</g>
<!-- n4&#45;&gt;n7 -->
<g id="edge7" class="edge">
<title>n4&#45;&gt;n7</title>
<path fill="none" stroke="black" d="M1526.9,-243.81C1531.3,-224.02 1538.7,-191.29 1543.9,-168.08"/>
<polygon fill="black" stroke="black" points="1547.35,-168.68 1546.1,-158.16 1540.52,-167.16 1547.35,-168.68"/>
</g>
<!-- n9 -->
<g id="node9" class="node">
<title>n9</title>
<polygon fill="#f28e8e" stroke="black" points="862,-36 516,-36 516,0 862,0 862,-36"/>
<text text-anchor="middle" x="689" y="-14.3" font-family="Arial" font-size="14.00">Could enhance drawing by adding detailed root system</text>
</g>
<!-- n8&#45;&gt;n9 -->
<g id="edge8" class="edge">
<title>n8&#45;&gt;n9</title>
<path fill="none" stroke="black" d="M689,-121.81C689,-102.11 689,-69.58 689,-46.39"/>
<polygon fill="black" stroke="black" points="692.5,-46.16 689,-36.16 685.5,-46.16 692.5,-46.16"/>
</g>
</g>
</svg>
