<?xml version="1.0" encoding="UTF-8" standalone="no"?>
<!DOCTYPE svg PUBLIC "-//W3C//DTD SVG 1.1//EN"
 "http://www.w3.org/Graphics/SVG/1.1/DTD/svg11.dtd">
<!-- Generated by graphviz version 2.43.0 (0)
 -->
<!-- Pages: 1 -->
<svg width="1884pt" height="410pt"
 viewBox="0.00 0.00 1884.23 410.00" xmlns="http://www.w3.org/2000/svg" xmlns:xlink="http://www.w3.org/1999/xlink">
<g id="graph0" class="graph" transform="scale(1 1) rotate(0) translate(4 406)">
<polygon fill="white" stroke="transparent" points="-4,4 -4,-406 1880.23,-406 1880.23,4 -4,4"/>
<!-- n1 -->
<g id="node1" class="node">
<title>n1</title>
<polygon fill="lightblue" stroke="black" points="960,-384 848.5,-402 625.5,-402 514,-384 625.5,-366 848.5,-366 960,-384"/>
<text text-anchor="middle" x="737" y="-380.3" font-family="Arial" font-size="14.00">Draw a string telephone between two students.</text>
</g>
<!-- n2 -->
<g id="node2" class="node">
<title>n2</title>
<polygon fill="#fffdd0" stroke="black" points="397,-280 233,-280 233,-244 397,-244 397,-280"/>
<text text-anchor="middle" x="315" y="-258.3" font-family="Arial" font-size="14.00">Two stick figure students</text>
</g>
<!-- n1&#45;&gt;n2 -->
<g id="edge1" class="edge">
<title>n1&#45;&gt;n2</title>
<path fill="none" stroke="black" d="M676.99,-365.93C599.8,-343.99 466,-305.94 384.48,-282.76"/>
<polygon fill="black" stroke="black" points="385.39,-279.38 374.81,-280.01 383.47,-286.11 385.39,-279.38"/>
</g>
<!-- n3 -->
<g id="node3" class="node">
<title>n3</title>
<polygon fill="#fffdd0" stroke="black" points="687,-280 537,-280 537,-244 687,-244 687,-280"/>
<text text-anchor="middle" x="612" y="-258.3" font-family="Arial" font-size="14.00">Cups held by students</text>
</g>
<!-- n1&#45;&gt;n3 -->
<g id="edge2" class="edge">
<title>n1&#45;&gt;n3</title>
<path fill="none" stroke="black" d="M719.09,-365.81C697.65,-345.22 661.6,-310.61 637.31,-287.3"/>
<polygon fill="black" stroke="black" points="639.52,-284.57 629.88,-280.16 634.67,-289.61 639.52,-284.57"/>
</g>
<!-- n4 -->
<g id="node4" class="node">
<title>n4</title>
<polygon fill="#fffdd0" stroke="black" points="1083.5,-280 848.5,-280 848.5,-244 1083.5,-244 1083.5,-280"/>
<text text-anchor="middle" x="966" y="-258.3" font-family="Arial" font-size="14.00">Slightly wavy line representing string</text>
</g>
<!-- n1&#45;&gt;n4 -->
<g id="edge3" class="edge">
<title>n1&#45;&gt;n4</title>
<path fill="none" stroke="black" d="M769.81,-365.81C810.45,-344.51 879.75,-308.2 924.17,-284.92"/>
<polygon fill="black" stroke="black" points="926.02,-287.9 933.25,-280.16 922.77,-281.7 926.02,-287.9"/>
</g>
<!-- n5 -->
<g id="node5" class="node">
<title>n5</title>
<polygon fill="#fffdd0" stroke="black" points="1606.5,-280 1329.5,-280 1329.5,-244 1606.5,-244 1606.5,-280"/>
<text text-anchor="middle" x="1468" y="-258.3" font-family="Arial" font-size="14.00">Arrows and musical notes around the string</text>
</g>
<!-- n1&#45;&gt;n5 -->
<g id="edge4" class="edge">
<title>n1&#45;&gt;n5</title>
<path fill="none" stroke="black" d="M840.57,-366C976.35,-343.71 1213.7,-304.74 1354.3,-281.66"/>
<polygon fill="black" stroke="black" points="1354.99,-285.09 1364.3,-280.03 1353.87,-278.18 1354.99,-285.09"/>
</g>
<!-- n6 -->
<g id="node6" class="node">
<title>n6</title>
<path fill="palegreen" stroke="black" d="M352,-158C352,-158 12,-158 12,-158 6,-158 0,-152 0,-146 0,-146 0,-134 0,-134 0,-128 6,-122 12,-122 12,-122 352,-122 352,-122 358,-122 364,-128 364,-134 364,-134 364,-146 364,-146 364,-152 358,-158 352,-158"/>
<text text-anchor="middle" x="182" y="-136.3" font-family="Arial" font-size="14.00">Understands idea of two students using a string telephone</text>
</g>
<!-- n2&#45;&gt;n6 -->
<g id="edge5" class="edge">
<title>n2&#45;&gt;n6</title>
<path fill="none" stroke="black" d="M295.94,-243.81C273.03,-223.13 234.44,-188.31 208.6,-165"/>
<polygon fill="black" stroke="black" points="210.79,-162.26 201.02,-158.16 206.1,-167.46 210.79,-162.26"/>
</g>
<!-- n7 -->
<g id="node7" class="node">
<title>n7</title>
<path fill="palegreen" stroke="black" d="M687.5,-158C687.5,-158 434.5,-158 434.5,-158 428.5,-158 422.5,-152 422.5,-146 422.5,-146 422.5,-134 422.5,-134 422.5,-128 428.5,-122 434.5,-122 434.5,-122 687.5,-122 687.5,-122 693.5,-122 699.5,-128 699.5,-134 699.5,-134 699.5,-146 699.5,-146 699.5,-152 693.5,-158 687.5,-158"/>
<text text-anchor="middle" x="561" y="-136.3" font-family="Arial" font-size="14.00">Identifies materials used in string telephone</text>
</g>
<!-- n3&#45;&gt;n7 -->
<g id="edge6" class="edge">
<title>n3&#45;&gt;n7</title>
<path fill="none" stroke="black" d="M604.69,-243.81C596.21,-223.85 582.12,-190.7 572.24,-167.45"/>
<polygon fill="black" stroke="black" points="575.42,-165.99 568.29,-158.16 568.98,-168.73 575.42,-165.99"/>
</g>
<!-- n8 -->
<g id="node8" class="node">
<title>n8</title>
<polygon fill="lightcoral" stroke="black" points="1018,-158 757.76,-140 1018,-122 1278.24,-140 1018,-158"/>
<text text-anchor="middle" x="1018" y="-136.3" font-family="Arial" font-size="14.00">Misunderstands importance of string tension</text>
</g>
<!-- n4&#45;&gt;n8 -->
<g id="edge7" class="edge">
<title>n4&#45;&gt;n8</title>
<path fill="none" stroke="black" d="M973.45,-243.81C982.15,-223.73 996.63,-190.32 1006.7,-167.06"/>
<polygon fill="black" stroke="black" points="1009.96,-168.34 1010.7,-157.77 1003.53,-165.57 1009.96,-168.34"/>
</g>
<!-- n9 -->
<g id="node9" class="node">
<title>n9</title>
<polygon fill="lightcoral" stroke="black" points="1606,-158 1335.54,-140 1606,-122 1876.46,-140 1606,-158"/>
<text text-anchor="middle" x="1606" y="-136.3" font-family="Arial" font-size="14.00">Incorrect understanding of sound transmission</text>
</g>
<!-- n5&#45;&gt;n9 -->
<g id="edge8" class="edge">
<title>n5&#45;&gt;n9</title>
<path fill="none" stroke="black" d="M1487.8,-243.81C1512,-222.78 1553,-187.12 1579.8,-163.82"/>
<polygon fill="black" stroke="black" points="1582.37,-166.22 1587.6,-157.01 1577.77,-160.95 1582.37,-166.22"/>
</g>
<!-- n10 -->
<g id="node10" class="node">
<title>n10</title>
<polygon fill="#f28e8e" stroke="black" points="1183,-36 853,-36 853,0 1183,0 1183,-36"/>
<text text-anchor="middle" x="1018" y="-14.3" font-family="Arial" font-size="14.00">Ensure string is taut for effective sound transmission</text>
</g>
<!-- n8&#45;&gt;n10 -->
<g id="edge9" class="edge">
<title>n8&#45;&gt;n10</title>
<path fill="none" stroke="black" d="M1018,-121.81C1018,-102.11 1018,-69.58 1018,-46.39"/>
<polygon fill="black" stroke="black" points="1021.5,-46.16 1018,-36.16 1014.5,-46.16 1021.5,-46.16"/>
</g>
<!-- n11 -->
<g id="node11" class="node">
<title>n11</title>
<polygon fill="#f28e8e" stroke="black" points="1741,-36 1471,-36 1471,0 1741,0 1741,-36"/>
<text text-anchor="middle" x="1606" y="-14.3" font-family="Arial" font-size="14.00">Clarify sound waves travel along the string</text>
</g>
<!-- n9&#45;&gt;n11 -->
<g id="edge10" class="edge">
<title>n9&#45;&gt;n11</title>
<path fill="none" stroke="black" d="M1606,-121.81C1606,-102.11 1606,-69.58 1606,-46.39"/>
<polygon fill="black" stroke="black" points="1609.5,-46.16 1606,-36.16 1602.5,-46.16 1609.5,-46.16"/>
</g>
</g>
</svg>
