<?xml version="1.0" encoding="UTF-8" standalone="no"?>
<!DOCTYPE svg PUBLIC "-//W3C//DTD SVG 1.1//EN"
 "http://www.w3.org/Graphics/SVG/1.1/DTD/svg11.dtd">
<!-- Generated by graphviz version 2.43.0 (0)
 -->
<!-- Pages: 1 -->
<svg width="1798pt" height="288pt"
 viewBox="0.00 0.00 1798.08 288.00" xmlns="http://www.w3.org/2000/svg" xmlns:xlink="http://www.w3.org/1999/xlink">
<g id="graph0" class="graph" transform="scale(1 1) rotate(0) translate(4 284)">
<polygon fill="white" stroke="transparent" points="-4,4 -4,-284 1794.08,-284 1794.08,4 -4,4"/>
<!-- n1 -->
<g id="node1" class="node">
<title>n1</title>
<polygon fill="lightblue" stroke="black" points="960.24,-262 867.12,-280 680.88,-280 587.76,-262 680.88,-244 867.12,-244 960.24,-262"/>
<text text-anchor="middle" x="774" y="-258.3" font-family="Arial" font-size="14.00">Illustrate plants with and without water.</text>
</g>
<!-- n2 -->
<g id="node2" class="node">
<title>n2</title>
<polygon fill="#fffdd0" stroke="black" points="402,-158 0,-158 0,-122 402,-122 402,-158"/>
<text text-anchor="middle" x="201" y="-136.3" font-family="Arial" font-size="14.00">Healthy plant: Upright, large green leaves and bright red flowers.</text>
</g>
<!-- n1&#45;&gt;n2 -->
<g id="edge1" class="edge">
<title>n1&#45;&gt;n2</title>
<path fill="none" stroke="black" d="M692.82,-244C587.02,-221.84 402.55,-183.21 292.1,-160.08"/>
<polygon fill="black" stroke="black" points="292.8,-156.65 282.3,-158.03 291.37,-163.5 292.8,-156.65"/>
</g>
<!-- n3 -->
<g id="node3" class="node">
<title>n3</title>
<polygon fill="#fffdd0" stroke="black" points="708,-158 460,-158 460,-122 708,-122 708,-158"/>
<text text-anchor="middle" x="584" y="-136.3" font-family="Arial" font-size="14.00">Soil is dark brown, indicating moisture.</text>
</g>
<!-- n1&#45;&gt;n3 -->
<g id="edge2" class="edge">
<title>n1&#45;&gt;n3</title>
<path fill="none" stroke="black" d="M746.78,-243.81C713.34,-222.69 656.53,-186.81 619.64,-163.51"/>
<polygon fill="black" stroke="black" points="621.49,-160.54 611.17,-158.16 617.76,-166.46 621.49,-160.54"/>
</g>
<!-- n4 -->
<g id="node4" class="node">
<title>n4</title>
<polygon fill="#fffdd0" stroke="black" points="1162,-158 766,-158 766,-122 1162,-122 1162,-158"/>
<text text-anchor="middle" x="964" y="-136.3" font-family="Arial" font-size="14.00">Wilted plant: Drooping, slightly brown leaves and faded flowers.</text>
</g>
<!-- n1&#45;&gt;n4 -->
<g id="edge3" class="edge">
<title>n1&#45;&gt;n4</title>
<path fill="none" stroke="black" d="M801.22,-243.81C834.66,-222.69 891.47,-186.81 928.36,-163.51"/>
<polygon fill="black" stroke="black" points="930.24,-166.46 936.83,-158.16 926.51,-160.54 930.24,-166.46"/>
</g>
<!-- n5 -->
<g id="node5" class="node">
<title>n5</title>
<polygon fill="#fffdd0" stroke="black" points="1393.5,-158 1220.5,-158 1220.5,-122 1393.5,-122 1393.5,-158"/>
<text text-anchor="middle" x="1307" y="-136.3" font-family="Arial" font-size="14.00">Soil is light brown and dry.</text>
</g>
<!-- n1&#45;&gt;n5 -->
<g id="edge4" class="edge">
<title>n1&#45;&gt;n5</title>
<path fill="none" stroke="black" d="M849.52,-244C947.63,-221.91 1118.5,-183.44 1221.3,-160.29"/>
<polygon fill="black" stroke="black" points="1222.41,-163.63 1231.4,-158.03 1220.88,-156.8 1222.41,-163.63"/>
</g>
<!-- n6 -->
<g id="node6" class="node">
<title>n6</title>
<path fill="palegreen" stroke="black" d="M434.5,-36C434.5,-36 191.5,-36 191.5,-36 185.5,-36 179.5,-30 179.5,-24 179.5,-24 179.5,-12 179.5,-12 179.5,-6 185.5,0 191.5,0 191.5,0 434.5,0 434.5,0 440.5,0 446.5,-6 446.5,-12 446.5,-12 446.5,-24 446.5,-24 446.5,-30 440.5,-36 434.5,-36"/>
<text text-anchor="middle" x="313" y="-14.3" font-family="Arial" font-size="14.00">Correctly shows healthy plants with water.</text>
</g>
<!-- n2&#45;&gt;n6 -->
<g id="edge5" class="edge">
<title>n2&#45;&gt;n6</title>
<path fill="none" stroke="black" d="M217.05,-121.81C236.18,-101.31 268.28,-66.91 290.04,-43.6"/>
<polygon fill="black" stroke="black" points="292.72,-45.86 296.98,-36.16 287.6,-41.09 292.72,-45.86"/>
</g>
<!-- n8 -->
<g id="node7" class="node">
<title>n8</title>
<path fill="palegreen" stroke="black" d="M797,-36C797,-36 543,-36 543,-36 537,-36 531,-30 531,-24 531,-24 531,-12 531,-12 531,-6 537,0 543,0 543,0 797,0 797,0 803,0 809,-6 809,-12 809,-12 809,-24 809,-24 809,-30 803,-36 797,-36"/>
<text text-anchor="middle" x="670" y="-14.3" font-family="Arial" font-size="14.00">Visual comparison of plants&#39; need for water.</text>
</g>
<!-- n2&#45;&gt;n8 -->
<g id="edge6" class="edge">
<title>n2&#45;&gt;n8</title>
<path fill="none" stroke="black" d="M267.7,-121.93C353.74,-99.92 503.09,-61.71 593.61,-38.55"/>
<polygon fill="black" stroke="black" points="594.71,-41.88 603.53,-36.01 592.97,-35.1 594.71,-41.88"/>
</g>
<!-- n3&#45;&gt;n6 -->
<g id="edge7" class="edge">
<title>n3&#45;&gt;n6</title>
<path fill="none" stroke="black" d="M545.46,-121.93C496.9,-100.43 413.45,-63.48 360.85,-40.19"/>
<polygon fill="black" stroke="black" points="361.97,-36.86 351.41,-36.01 359.14,-43.26 361.97,-36.86"/>
</g>
<!-- n3&#45;&gt;n8 -->
<g id="edge8" class="edge">
<title>n3&#45;&gt;n8</title>
<path fill="none" stroke="black" d="M596.32,-121.81C610.82,-101.58 635.02,-67.81 651.71,-44.52"/>
<polygon fill="black" stroke="black" points="654.72,-46.33 657.7,-36.16 649.03,-42.25 654.72,-46.33"/>
</g>
<!-- n4&#45;&gt;n8 -->
<g id="edge9" class="edge">
<title>n4&#45;&gt;n8</title>
<path fill="none" stroke="black" d="M922.19,-121.93C869.29,-100.34 778.22,-63.17 721.21,-39.9"/>
<polygon fill="black" stroke="black" points="722.25,-36.54 711.67,-36.01 719.61,-43.03 722.25,-36.54"/>
</g>
<!-- n7 -->
<g id="node8" class="node">
<title>n7</title>
<path fill="palegreen" stroke="black" d="M1392,-36C1392,-36 1050,-36 1050,-36 1044,-36 1038,-30 1038,-24 1038,-24 1038,-12 1038,-12 1038,-6 1044,0 1050,0 1050,0 1392,0 1392,0 1398,0 1404,-6 1404,-12 1404,-12 1404,-24 1404,-24 1404,-30 1398,-36 1392,-36"/>
<text text-anchor="middle" x="1221" y="-14.3" font-family="Arial" font-size="14.00">Correctly depicts plant appearance changes without water.</text>
</g>
<!-- n4&#45;&gt;n7 -->
<g id="edge10" class="edge">
<title>n4&#45;&gt;n7</title>
<path fill="none" stroke="black" d="M1000.5,-121.93C1046.5,-100.48 1125.4,-63.63 1175.3,-40.34"/>
<polygon fill="black" stroke="black" points="1177.01,-43.4 1184.6,-36.01 1174.06,-37.05 1177.01,-43.4"/>
</g>
<!-- n5&#45;&gt;n8 -->
<g id="edge11" class="edge">
<title>n5&#45;&gt;n8</title>
<path fill="none" stroke="black" d="M1220.4,-122.69C1103.2,-100.6 894.36,-61.27 770.38,-37.91"/>
<polygon fill="black" stroke="black" points="770.98,-34.46 760.5,-36.05 769.68,-41.34 770.98,-34.46"/>
</g>
<!-- n5&#45;&gt;n7 -->
<g id="edge12" class="edge">
<title>n5&#45;&gt;n7</title>
<path fill="none" stroke="black" d="M1294.7,-121.81C1280.2,-101.58 1256,-67.81 1239.3,-44.52"/>
<polygon fill="black" stroke="black" points="1241.97,-42.24 1233.3,-36.16 1236.29,-46.33 1241.97,-42.24"/>
</g>
<!-- n9 -->
<g id="node9" class="node">
<title>n9</title>
<polygon fill="lightcoral" stroke="black" points="1575,-280 1359.83,-262 1575,-244 1790.17,-262 1575,-280"/>
<text text-anchor="middle" x="1575" y="-258.3" font-family="Arial" font-size="14.00">Potential oversight in label inclusion.</text>
</g>
<!-- n10 -->
<g id="node10" class="node">
<title>n10</title>
<polygon fill="#f28e8e" stroke="black" points="1698,-158 1452,-158 1452,-122 1698,-122 1698,-158"/>
<text text-anchor="middle" x="1575" y="-136.3" font-family="Arial" font-size="14.00">Add labels to clarify each plant&#39;s state.</text>
</g>
<!-- n9&#45;&gt;n10 -->
<g id="edge13" class="edge">
<title>n9&#45;&gt;n10</title>
<path fill="none" stroke="black" d="M1575,-243.81C1575,-224.11 1575,-191.58 1575,-168.39"/>
<polygon fill="black" stroke="black" points="1578.5,-168.16 1575,-158.16 1571.5,-168.16 1578.5,-168.16"/>
</g>
</g>
</svg>
