<?xml version="1.0" encoding="UTF-8" standalone="no"?>
<!DOCTYPE svg PUBLIC "-//W3C//DTD SVG 1.1//EN"
 "http://www.w3.org/Graphics/SVG/1.1/DTD/svg11.dtd">
<!-- Generated by graphviz version 2.43.0 (0)
 -->
<!-- Pages: 1 -->
<svg width="1606pt" height="288pt"
 viewBox="0.00 0.00 1606.00 288.00" xmlns="http://www.w3.org/2000/svg" xmlns:xlink="http://www.w3.org/1999/xlink">
<g id="graph0" class="graph" transform="scale(1 1) rotate(0) translate(4 284)">
<polygon fill="white" stroke="transparent" points="-4,4 -4,-284 1602,-284 1602,4 -4,4"/>
<!-- n1 -->
<g id="node1" class="node">
<title>n1</title>
<polygon fill="lightblue" stroke="black" points="1053.5,-262 942,-280 719,-280 607.5,-262 719,-244 942,-244 1053.5,-262"/>
<text text-anchor="middle" x="830.5" y="-258.3" font-family="Arial" font-size="14.00">Draw a string telephone between two students.</text>
</g>
<!-- n2 -->
<g id="node2" class="node">
<title>n2</title>
<polygon fill="#fffdd0" stroke="black" points="357,-158 130,-158 130,-122 357,-122 357,-158"/>
<text text-anchor="middle" x="243.5" y="-136.3" font-family="Arial" font-size="14.00">Two children standing at a distance</text>
</g>
<!-- n1&#45;&gt;n2 -->
<g id="edge1" class="edge">
<title>n1&#45;&gt;n2</title>
<path fill="none" stroke="black" d="M747.33,-244C638.96,-221.84 449.98,-183.21 336.82,-160.08"/>
<polygon fill="black" stroke="black" points="337.29,-156.6 326.79,-158.03 335.89,-163.46 337.29,-156.6"/>
</g>
<!-- n3 -->
<g id="node3" class="node">
<title>n3</title>
<polygon fill="#fffdd0" stroke="black" points="620.5,-158 458.5,-158 458.5,-122 620.5,-122 620.5,-158"/>
<text text-anchor="middle" x="539.5" y="-136.3" font-family="Arial" font-size="14.00">Using a string telephone</text>
</g>
<!-- n1&#45;&gt;n3 -->
<g id="edge2" class="edge">
<title>n1&#45;&gt;n3</title>
<path fill="none" stroke="black" d="M789.12,-243.93C736.75,-222.34 646.62,-185.17 590.18,-161.9"/>
<polygon fill="black" stroke="black" points="591.32,-158.58 580.74,-158.01 588.65,-165.06 591.32,-158.58"/>
</g>
<!-- n4 -->
<g id="node4" class="node">
<title>n4</title>
<polygon fill="#fffdd0" stroke="black" points="913,-158 748,-158 748,-122 913,-122 913,-158"/>
<text text-anchor="middle" x="830.5" y="-136.3" font-family="Arial" font-size="14.00">Cups and string included</text>
</g>
<!-- n1&#45;&gt;n4 -->
<g id="edge3" class="edge">
<title>n1&#45;&gt;n4</title>
<path fill="none" stroke="black" d="M830.5,-243.81C830.5,-224.11 830.5,-191.58 830.5,-168.39"/>
<polygon fill="black" stroke="black" points="834,-168.16 830.5,-158.16 827,-168.16 834,-168.16"/>
</g>
<!-- n5 -->
<g id="node5" class="node">
<title>n5</title>
<polygon fill="#fffdd0" stroke="black" points="1245,-158 988,-158 988,-122 1245,-122 1245,-158"/>
<text text-anchor="middle" x="1116.5" y="-136.3" font-family="Arial" font-size="14.00">Labeled arrows showing sound direction</text>
</g>
<!-- n1&#45;&gt;n5 -->
<g id="edge4" class="edge">
<title>n1&#45;&gt;n5</title>
<path fill="none" stroke="black" d="M871.17,-243.93C922.63,-222.34 1011.2,-185.17 1066.7,-161.9"/>
<polygon fill="black" stroke="black" points="1068.13,-165.1 1076,-158.01 1065.42,-158.64 1068.13,-165.1"/>
</g>
<!-- n6 -->
<g id="node6" class="node">
<title>n6</title>
<polygon fill="#fffdd0" stroke="black" points="1517.5,-158 1323.5,-158 1323.5,-122 1517.5,-122 1517.5,-158"/>
<text text-anchor="middle" x="1420.5" y="-136.3" font-family="Arial" font-size="14.00">Focus on communication tool</text>
</g>
<!-- n1&#45;&gt;n6 -->
<g id="edge5" class="edge">
<title>n1&#45;&gt;n6</title>
<path fill="none" stroke="black" d="M914.09,-244C1023,-221.84 1213,-183.21 1326.7,-160.08"/>
<polygon fill="black" stroke="black" points="1327.7,-163.45 1336.8,-158.03 1326.3,-156.59 1327.7,-163.45"/>
</g>
<!-- n7 -->
<g id="node7" class="node">
<title>n7</title>
<path fill="palegreen" stroke="black" d="M249,-36C249,-36 12,-36 12,-36 6,-36 0,-30 0,-24 0,-24 0,-12 0,-12 0,-6 6,0 12,0 12,0 249,0 249,0 255,0 261,-6 261,-12 261,-12 261,-24 261,-24 261,-30 255,-36 249,-36"/>
<text text-anchor="middle" x="130.5" y="-14.3" font-family="Arial" font-size="14.00">Illustrates need to talk over long distance</text>
</g>
<!-- n2&#45;&gt;n7 -->
<g id="edge6" class="edge">
<title>n2&#45;&gt;n7</title>
<path fill="none" stroke="black" d="M227.31,-121.81C208.01,-101.31 175.62,-66.91 153.67,-43.6"/>
<polygon fill="black" stroke="black" points="156.06,-41.04 146.66,-36.16 150.97,-45.84 156.06,-41.04"/>
</g>
<!-- n8 -->
<g id="node8" class="node">
<title>n8</title>
<path fill="palegreen" stroke="black" d="M609.5,-36C609.5,-36 331.5,-36 331.5,-36 325.5,-36 319.5,-30 319.5,-24 319.5,-24 319.5,-12 319.5,-12 319.5,-6 325.5,0 331.5,0 331.5,0 609.5,0 609.5,0 615.5,0 621.5,-6 621.5,-12 621.5,-12 621.5,-24 621.5,-24 621.5,-30 615.5,-36 609.5,-36"/>
<text text-anchor="middle" x="470.5" y="-14.3" font-family="Arial" font-size="14.00">Shows how device uses sound to communicate</text>
</g>
<!-- n3&#45;&gt;n8 -->
<g id="edge7" class="edge">
<title>n3&#45;&gt;n8</title>
<path fill="none" stroke="black" d="M529.61,-121.81C518.03,-101.67 498.74,-68.1 485.35,-44.83"/>
<polygon fill="black" stroke="black" points="488.39,-43.09 480.37,-36.16 482.32,-46.58 488.39,-43.09"/>
</g>
<!-- n9 -->
<g id="node9" class="node">
<title>n9</title>
<path fill="palegreen" stroke="black" d="M969.5,-36C969.5,-36 691.5,-36 691.5,-36 685.5,-36 679.5,-30 679.5,-24 679.5,-24 679.5,-12 679.5,-12 679.5,-6 685.5,0 691.5,0 691.5,0 969.5,0 969.5,0 975.5,0 981.5,-6 981.5,-12 981.5,-12 981.5,-24 981.5,-24 981.5,-30 975.5,-36 969.5,-36"/>
<text text-anchor="middle" x="830.5" y="-14.3" font-family="Arial" font-size="14.00">Correctly shows materials used for sound travel</text>
</g>
<!-- n4&#45;&gt;n9 -->
<g id="edge8" class="edge">
<title>n4&#45;&gt;n9</title>
<path fill="none" stroke="black" d="M830.5,-121.81C830.5,-102.11 830.5,-69.58 830.5,-46.39"/>
<polygon fill="black" stroke="black" points="834,-46.16 830.5,-36.16 827,-46.16 834,-46.16"/>
</g>
<!-- n10 -->
<g id="node10" class="node">
<title>n10</title>
<path fill="palegreen" stroke="black" d="M1215,-36C1215,-36 1052,-36 1052,-36 1046,-36 1040,-30 1040,-24 1040,-24 1040,-12 1040,-12 1040,-6 1046,0 1052,0 1052,0 1215,0 1215,0 1221,0 1227,-6 1227,-12 1227,-12 1227,-24 1227,-24 1227,-30 1221,-36 1215,-36"/>
<text text-anchor="middle" x="1133.5" y="-14.3" font-family="Arial" font-size="14.00">Illustrates how sound travels</text>
</g>
<!-- n5&#45;&gt;n10 -->
<g id="edge9" class="edge">
<title>n5&#45;&gt;n10</title>
<path fill="none" stroke="black" d="M1118.9,-121.81C1121.7,-102.02 1126.4,-69.29 1129.7,-46.08"/>
<polygon fill="black" stroke="black" points="1133.17,-46.55 1131.1,-36.16 1126.24,-45.57 1133.17,-46.55"/>
</g>
<!-- n11 -->
<g id="node11" class="node">
<title>n11</title>
<path fill="palegreen" stroke="black" d="M1586,-36C1586,-36 1297,-36 1297,-36 1291,-36 1285,-30 1285,-24 1285,-24 1285,-12 1285,-12 1285,-6 1291,0 1297,0 1297,0 1586,0 1586,0 1592,0 1598,-6 1598,-12 1598,-12 1598,-24 1598,-24 1598,-30 1592,-36 1586,-36"/>
<text text-anchor="middle" x="1441.5" y="-14.3" font-family="Arial" font-size="14.00">Depicts communication over distance importance</text>
</g>
<!-- n6&#45;&gt;n11 -->
<g id="edge10" class="edge">
<title>n6&#45;&gt;n11</title>
<path fill="none" stroke="black" d="M1423.5,-121.81C1427,-102.02 1432.7,-69.29 1436.8,-46.08"/>
<polygon fill="black" stroke="black" points="1440.26,-46.61 1438.5,-36.16 1433.36,-45.43 1440.26,-46.61"/>
</g>
</g>
</svg>
