<?xml version="1.0" encoding="UTF-8" standalone="no"?>
<!DOCTYPE svg PUBLIC "-//W3C//DTD SVG 1.1//EN"
 "http://www.w3.org/Graphics/SVG/1.1/DTD/svg11.dtd">
<!-- Generated by graphviz version 2.43.0 (0)
 -->
<!-- Pages: 1 -->
<svg width="1665pt" height="410pt"
 viewBox="0.00 0.00 1664.50 410.00" xmlns="http://www.w3.org/2000/svg" xmlns:xlink="http://www.w3.org/1999/xlink">
<g id="graph0" class="graph" transform="scale(1 1) rotate(0) translate(4 406)">
<polygon fill="white" stroke="transparent" points="-4,4 -4,-406 1660.5,-406 1660.5,4 -4,4"/>
<!-- n1 -->
<g id="node1" class="node">
<title>n1</title>
<polygon fill="lightblue" stroke="black" points="1021.5,-384 910,-402 687,-402 575.5,-384 687,-366 910,-366 1021.5,-384"/>
<text text-anchor="middle" x="798.5" y="-380.3" font-family="Arial" font-size="14.00">Draw a string telephone between two students.</text>
</g>
<!-- n2 -->
<g id="node2" class="node">
<title>n2</title>
<polygon fill="#fffdd0" stroke="black" points="507,-280 244,-280 244,-244 507,-244 507,-280"/>
<text text-anchor="middle" x="375.5" y="-258.3" font-family="Arial" font-size="14.00">Two students facing each other with cups</text>
</g>
<!-- n1&#45;&gt;n2 -->
<g id="edge1" class="edge">
<title>n1&#45;&gt;n2</title>
<path fill="none" stroke="black" d="M738.34,-365.93C660.97,-343.99 526.86,-305.94 445.15,-282.76"/>
<polygon fill="black" stroke="black" points="446.03,-279.37 435.45,-280.01 444.12,-286.1 446.03,-279.37"/>
</g>
<!-- n3 -->
<g id="node3" class="node">
<title>n3</title>
<polygon fill="#fffdd0" stroke="black" points="924.5,-280 672.5,-280 672.5,-244 924.5,-244 924.5,-280"/>
<text text-anchor="middle" x="798.5" y="-258.3" font-family="Arial" font-size="14.00">Loose, slightly curved connecting string</text>
</g>
<!-- n1&#45;&gt;n3 -->
<g id="edge2" class="edge">
<title>n1&#45;&gt;n3</title>
<path fill="none" stroke="black" d="M798.5,-365.81C798.5,-346.11 798.5,-313.58 798.5,-290.39"/>
<polygon fill="black" stroke="black" points="802,-290.16 798.5,-280.16 795,-290.16 802,-290.16"/>
</g>
<!-- n4 -->
<g id="node4" class="node">
<title>n4</title>
<polygon fill="#fffdd0" stroke="black" points="1370,-280 1165,-280 1165,-244 1370,-244 1370,-280"/>
<text text-anchor="middle" x="1267.5" y="-258.3" font-family="Arial" font-size="14.00">Lines/waves from mouth to cup</text>
</g>
<!-- n1&#45;&gt;n4 -->
<g id="edge3" class="edge">
<title>n1&#45;&gt;n4</title>
<path fill="none" stroke="black" d="M865.2,-365.93C951.24,-343.92 1100.6,-305.71 1191.1,-282.55"/>
<polygon fill="black" stroke="black" points="1192.18,-285.89 1201,-280.01 1190.44,-279.11 1192.18,-285.89"/>
</g>
<!-- n5 -->
<g id="node5" class="node">
<title>n5</title>
<path fill="palegreen" stroke="black" d="M341,-158C341,-158 12,-158 12,-158 6,-158 0,-152 0,-146 0,-146 0,-134 0,-134 0,-128 6,-122 12,-122 12,-122 341,-122 341,-122 347,-122 353,-128 353,-134 353,-134 353,-146 353,-146 353,-152 347,-158 341,-158"/>
<text text-anchor="middle" x="176.5" y="-136.3" font-family="Arial" font-size="14.00">Illustrates the use of string telephone for communication</text>
</g>
<!-- n2&#45;&gt;n5 -->
<g id="edge4" class="edge">
<title>n2&#45;&gt;n5</title>
<path fill="none" stroke="black" d="M346.99,-243.81C311.97,-222.69 252.46,-186.81 213.83,-163.51"/>
<polygon fill="black" stroke="black" points="215.33,-160.33 204.96,-158.16 211.72,-166.32 215.33,-160.33"/>
</g>
<!-- n6 -->
<g id="node6" class="node">
<title>n6</title>
<polygon fill="lightcoral" stroke="black" points="707.5,-158 410.5,-140 707.5,-122 1004.5,-140 707.5,-158"/>
<text text-anchor="middle" x="707.5" y="-136.3" font-family="Arial" font-size="14.00">Incorrect: Loose string doesn’t support sound travel</text>
</g>
<!-- n3&#45;&gt;n6 -->
<g id="edge5" class="edge">
<title>n3&#45;&gt;n6</title>
<path fill="none" stroke="black" d="M785.46,-243.81C769.88,-223.26 743.7,-188.74 726.02,-165.42"/>
<polygon fill="black" stroke="black" points="728.76,-163.24 719.93,-157.39 723.18,-167.47 728.76,-163.24"/>
</g>
<!-- n7 -->
<g id="node7" class="node">
<title>n7</title>
<polygon fill="lightcoral" stroke="black" points="1359.5,-158 1062.5,-140 1359.5,-122 1656.5,-140 1359.5,-158"/>
<text text-anchor="middle" x="1359.5" y="-136.3" font-family="Arial" font-size="14.00">Shows attempt to communicate, but lacks direction</text>
</g>
<!-- n3&#45;&gt;n7 -->
<g id="edge6" class="edge">
<title>n3&#45;&gt;n7</title>
<path fill="none" stroke="black" d="M877.98,-244C987.21,-220.63 1182.1,-178.95 1287.3,-156.44"/>
<polygon fill="black" stroke="black" points="1288.15,-159.84 1297.2,-154.32 1286.69,-152.99 1288.15,-159.84"/>
</g>
<!-- n4&#45;&gt;n7 -->
<g id="edge7" class="edge">
<title>n4&#45;&gt;n7</title>
<path fill="none" stroke="black" d="M1280.7,-243.81C1296.4,-223.26 1322.9,-188.74 1340.8,-165.42"/>
<polygon fill="black" stroke="black" points="1343.64,-167.47 1346.9,-157.39 1338.06,-163.24 1343.64,-167.47"/>
</g>
<!-- n8 -->
<g id="node8" class="node">
<title>n8</title>
<polygon fill="#f28e8e" stroke="black" points="865,-36 550,-36 550,0 865,0 865,-36"/>
<text text-anchor="middle" x="707.5" y="-14.3" font-family="Arial" font-size="14.00">String should be tight to transmit sound effectively</text>
</g>
<!-- n6&#45;&gt;n8 -->
<g id="edge8" class="edge">
<title>n6&#45;&gt;n8</title>
<path fill="none" stroke="black" d="M707.5,-121.81C707.5,-102.11 707.5,-69.58 707.5,-46.39"/>
<polygon fill="black" stroke="black" points="711,-46.16 707.5,-36.16 704,-46.16 711,-46.16"/>
</g>
<!-- n9 -->
<g id="node9" class="node">
<title>n9</title>
<polygon fill="#f28e8e" stroke="black" points="1485,-36 1234,-36 1234,0 1485,0 1485,-36"/>
<text text-anchor="middle" x="1359.5" y="-14.3" font-family="Arial" font-size="14.00">Add direction to sound waves for clarity</text>
</g>
<!-- n7&#45;&gt;n9 -->
<g id="edge9" class="edge">
<title>n7&#45;&gt;n9</title>
<path fill="none" stroke="black" d="M1359.5,-121.81C1359.5,-102.11 1359.5,-69.58 1359.5,-46.39"/>
<polygon fill="black" stroke="black" points="1363,-46.16 1359.5,-36.16 1356,-46.16 1363,-46.16"/>
</g>
</g>
</svg>
