<?xml version="1.0" encoding="UTF-8" standalone="no"?>
<!DOCTYPE svg PUBLIC "-//W3C//DTD SVG 1.1//EN"
 "http://www.w3.org/Graphics/SVG/1.1/DTD/svg11.dtd">
<!-- Generated by graphviz version 2.43.0 (0)
 -->
<!-- Pages: 1 -->
<svg width="1538pt" height="410pt"
 viewBox="0.00 0.00 1538.00 410.00" xmlns="http://www.w3.org/2000/svg" xmlns:xlink="http://www.w3.org/1999/xlink">
<g id="graph0" class="graph" transform="scale(1 1) rotate(0) translate(4 406)">
<polygon fill="white" stroke="transparent" points="-4,4 -4,-406 1534,-406 1534,4 -4,4"/>
<!-- n1 -->
<g id="node1" class="node">
<title>n1</title>
<polygon fill="lightblue" stroke="black" points="967.5,-384 837.25,-402 576.75,-402 446.5,-384 576.75,-366 837.25,-366 967.5,-384"/>
<text text-anchor="middle" x="707" y="-380.3" font-family="Arial" font-size="14.00">Draw two habitats and the different living things in each</text>
</g>
<!-- n2 -->
<g id="node2" class="node">
<title>n2</title>
<polygon fill="#fffdd0" stroke="black" points="239.5,-280 82.5,-280 82.5,-244 239.5,-244 239.5,-280"/>
<text text-anchor="middle" x="161" y="-258.3" font-family="Arial" font-size="14.00">Land habitat with a tree</text>
</g>
<!-- n1&#45;&gt;n2 -->
<g id="edge1" class="edge">
<title>n1&#45;&gt;n2</title>
<path fill="none" stroke="black" d="M629.64,-366C529.04,-343.89 353.76,-305.37 248.44,-282.22"/>
<polygon fill="black" stroke="black" points="248.99,-278.76 238.47,-280.03 247.49,-285.59 248.99,-278.76"/>
</g>
<!-- n3 -->
<g id="node3" class="node">
<title>n3</title>
<polygon fill="#fffdd0" stroke="black" points="468.5,-280 297.5,-280 297.5,-244 468.5,-244 468.5,-280"/>
<text text-anchor="middle" x="383" y="-258.3" font-family="Arial" font-size="14.00">Ocean habitat with waves</text>
</g>
<!-- n1&#45;&gt;n3 -->
<g id="edge2" class="edge">
<title>n1&#45;&gt;n3</title>
<path fill="none" stroke="black" d="M660.92,-365.93C602.38,-344.25 501.43,-306.86 438.65,-283.61"/>
<polygon fill="black" stroke="black" points="439.51,-280.2 428.92,-280.01 437.08,-286.76 439.51,-280.2"/>
</g>
<!-- n4 -->
<g id="node4" class="node">
<title>n4</title>
<polygon fill="#fffdd0" stroke="black" points="896,-280 732,-280 732,-244 896,-244 896,-280"/>
<text text-anchor="middle" x="814" y="-258.3" font-family="Arial" font-size="14.00">Squirrel and bird present</text>
</g>
<!-- n1&#45;&gt;n4 -->
<g id="edge3" class="edge">
<title>n1&#45;&gt;n4</title>
<path fill="none" stroke="black" d="M722.33,-365.81C740.53,-345.4 771.01,-311.21 791.79,-287.91"/>
<polygon fill="black" stroke="black" points="794.66,-289.95 798.7,-280.16 789.43,-285.29 794.66,-289.95"/>
</g>
<!-- n5 -->
<g id="node5" class="node">
<title>n5</title>
<polygon fill="#fffdd0" stroke="black" points="673.5,-280 526.5,-280 526.5,-244 673.5,-244 673.5,-280"/>
<text text-anchor="middle" x="600" y="-258.3" font-family="Arial" font-size="14.00">Fish and crab present</text>
</g>
<!-- n1&#45;&gt;n5 -->
<g id="edge4" class="edge">
<title>n1&#45;&gt;n5</title>
<path fill="none" stroke="black" d="M691.67,-365.81C673.47,-345.4 642.99,-311.21 622.21,-287.91"/>
<polygon fill="black" stroke="black" points="624.57,-285.29 615.3,-280.16 619.34,-289.95 624.57,-285.29"/>
</g>
<!-- n6 -->
<g id="node6" class="node">
<title>n6</title>
<polygon fill="#fffdd0" stroke="black" points="1201.5,-280 978.5,-280 978.5,-244 1201.5,-244 1201.5,-280"/>
<text text-anchor="middle" x="1090" y="-258.3" font-family="Arial" font-size="14.00">Basic plants like grass and flowers</text>
</g>
<!-- n1&#45;&gt;n6 -->
<g id="edge5" class="edge">
<title>n1&#45;&gt;n6</title>
<path fill="none" stroke="black" d="M761.47,-365.93C831.24,-344.07 951.97,-306.25 1026,-283.04"/>
<polygon fill="black" stroke="black" points="1027.2,-286.33 1035.7,-280.01 1025.11,-279.65 1027.2,-286.33"/>
</g>
<!-- n7 -->
<g id="node7" class="node">
<title>n7</title>
<polygon fill="#fffdd0" stroke="black" points="1466,-280 1272,-280 1272,-244 1466,-244 1466,-280"/>
<text text-anchor="middle" x="1369" y="-258.3" font-family="Arial" font-size="14.00">Seaweed in the ocean habitat</text>
</g>
<!-- n1&#45;&gt;n7 -->
<g id="edge6" class="edge">
<title>n1&#45;&gt;n7</title>
<path fill="none" stroke="black" d="M800.79,-366C923.39,-343.78 1137.4,-304.98 1264.9,-281.87"/>
<polygon fill="black" stroke="black" points="1265.88,-285.25 1275.1,-280.03 1264.64,-278.36 1265.88,-285.25"/>
</g>
<!-- n8 -->
<g id="node8" class="node">
<title>n8</title>
<path fill="palegreen" stroke="black" d="M310,-158C310,-158 12,-158 12,-158 6,-158 0,-152 0,-146 0,-146 0,-134 0,-134 0,-128 6,-122 12,-122 12,-122 310,-122 310,-122 316,-122 322,-128 322,-134 322,-134 322,-146 322,-146 322,-152 316,-158 310,-158"/>
<text text-anchor="middle" x="161" y="-136.3" font-family="Arial" font-size="14.00">Understands different habitat types: land and water</text>
</g>
<!-- n2&#45;&gt;n8 -->
<g id="edge7" class="edge">
<title>n2&#45;&gt;n8</title>
<path fill="none" stroke="black" d="M161,-243.81C161,-224.11 161,-191.58 161,-168.39"/>
<polygon fill="black" stroke="black" points="164.5,-168.16 161,-158.16 157.5,-168.16 164.5,-168.16"/>
</g>
<!-- n3&#45;&gt;n8 -->
<g id="edge8" class="edge">
<title>n3&#45;&gt;n8</title>
<path fill="none" stroke="black" d="M351.19,-243.81C311.79,-222.51 244.62,-186.2 201.55,-162.92"/>
<polygon fill="black" stroke="black" points="203.21,-159.84 192.75,-158.16 199.88,-166 203.21,-159.84"/>
</g>
<!-- n9 -->
<g id="node9" class="node">
<title>n9</title>
<path fill="palegreen" stroke="black" d="M678,-158C678,-158 392,-158 392,-158 386,-158 380,-152 380,-146 380,-146 380,-134 380,-134 380,-128 386,-122 392,-122 392,-122 678,-122 678,-122 684,-122 690,-128 690,-134 690,-134 690,-146 690,-146 690,-152 684,-158 678,-158"/>
<text text-anchor="middle" x="535" y="-136.3" font-family="Arial" font-size="14.00">Correct understanding of habitat&#45;specific animals</text>
</g>
<!-- n4&#45;&gt;n9 -->
<g id="edge9" class="edge">
<title>n4&#45;&gt;n9</title>
<path fill="none" stroke="black" d="M774.32,-243.93C724.22,-222.39 638.05,-185.32 583.93,-162.04"/>
<polygon fill="black" stroke="black" points="585.11,-158.74 574.54,-158.01 582.35,-165.17 585.11,-158.74"/>
</g>
<!-- n11 -->
<g id="node10" class="node">
<title>n11</title>
<polygon fill="lightcoral" stroke="black" points="962,-158 747.67,-140 962,-122 1176.33,-140 962,-158"/>
<text text-anchor="middle" x="962" y="-136.3" font-family="Arial" font-size="14.00">Misplacement of bird near the water</text>
</g>
<!-- n4&#45;&gt;n11 -->
<g id="edge10" class="edge">
<title>n4&#45;&gt;n11</title>
<path fill="none" stroke="black" d="M835.2,-243.81C861.39,-222.57 905.99,-186.41 934.71,-163.13"/>
<polygon fill="black" stroke="black" points="937.16,-165.65 942.72,-156.63 932.75,-160.21 937.16,-165.65"/>
</g>
<!-- n5&#45;&gt;n9 -->
<g id="edge11" class="edge">
<title>n5&#45;&gt;n9</title>
<path fill="none" stroke="black" d="M590.69,-243.81C579.83,-223.76 561.76,-190.4 549.16,-167.14"/>
<polygon fill="black" stroke="black" points="552.14,-165.29 544.3,-158.16 545.98,-168.62 552.14,-165.29"/>
</g>
<!-- n10 -->
<g id="node11" class="node">
<title>n10</title>
<path fill="palegreen" stroke="black" d="M1518,-158C1518,-158 1246,-158 1246,-158 1240,-158 1234,-152 1234,-146 1234,-146 1234,-134 1234,-134 1234,-128 1240,-122 1246,-122 1246,-122 1518,-122 1518,-122 1524,-122 1530,-128 1530,-134 1530,-134 1530,-146 1530,-146 1530,-152 1524,-158 1518,-158"/>
<text text-anchor="middle" x="1382" y="-136.3" font-family="Arial" font-size="14.00">Correct placement of specific plants in habitats</text>
</g>
<!-- n6&#45;&gt;n10 -->
<g id="edge12" class="edge">
<title>n6&#45;&gt;n10</title>
<path fill="none" stroke="black" d="M1131.5,-243.93C1184.1,-222.34 1274.5,-185.17 1331.1,-161.9"/>
<polygon fill="black" stroke="black" points="1332.67,-165.04 1340.6,-158.01 1330.02,-158.56 1332.67,-165.04"/>
</g>
<!-- n7&#45;&gt;n10 -->
<g id="edge13" class="edge">
<title>n7&#45;&gt;n10</title>
<path fill="none" stroke="black" d="M1370.9,-243.81C1373,-224.11 1376.5,-191.58 1379,-168.39"/>
<polygon fill="black" stroke="black" points="1382.51,-168.48 1380.1,-158.16 1375.55,-167.73 1382.51,-168.48"/>
</g>
<!-- n12 -->
<g id="node12" class="node">
<title>n12</title>
<polygon fill="#f28e8e" stroke="black" points="1137,-36 787,-36 787,0 1137,0 1137,-36"/>
<text text-anchor="middle" x="962" y="-14.3" font-family="Arial" font-size="14.00">Ensure correct placement of species in specific habitats</text>
</g>
<!-- n11&#45;&gt;n12 -->
<g id="edge14" class="edge">
<title>n11&#45;&gt;n12</title>
<path fill="none" stroke="black" d="M962,-121.81C962,-102.11 962,-69.58 962,-46.39"/>
<polygon fill="black" stroke="black" points="965.5,-46.16 962,-36.16 958.5,-46.16 965.5,-46.16"/>
</g>
</g>
</svg>
