<?xml version="1.0" encoding="UTF-8" standalone="no"?>
<!DOCTYPE svg PUBLIC "-//W3C//DTD SVG 1.1//EN"
 "http://www.w3.org/Graphics/SVG/1.1/DTD/svg11.dtd">
<!-- Generated by graphviz version 2.43.0 (0)
 -->
<!-- Pages: 1 -->
<svg width="1446pt" height="410pt"
 viewBox="0.00 0.00 1445.50 410.00" xmlns="http://www.w3.org/2000/svg" xmlns:xlink="http://www.w3.org/1999/xlink">
<g id="graph0" class="graph" transform="scale(1 1) rotate(0) translate(4 406)">
<polygon fill="white" stroke="transparent" points="-4,4 -4,-406 1441.5,-406 1441.5,4 -4,4"/>
<!-- n1 -->
<g id="node1" class="node">
<title>n1</title>
<polygon fill="lightblue" stroke="black" points="1037.5,-384 873.5,-402 545.5,-402 381.5,-384 545.5,-366 873.5,-366 1037.5,-384"/>
<text text-anchor="middle" x="709.5" y="-380.3" font-family="Arial" font-size="14.00">Draw reversible and irreversible changes (ice melting vs. egg cooking)</text>
</g>
<!-- n2 -->
<g id="node2" class="node">
<title>n2</title>
<polygon fill="#fffdd0" stroke="black" points="705,-280 320,-280 320,-244 705,-244 705,-280"/>
<text text-anchor="middle" x="512.5" y="-258.3" font-family="Arial" font-size="14.00">Ice cube and water puddle with arrows &#39;melting&#39; and &#39;freezing&#39;</text>
</g>
<!-- n1&#45;&gt;n2 -->
<g id="edge1" class="edge">
<title>n1&#45;&gt;n2</title>
<path fill="none" stroke="black" d="M681.27,-365.81C646.6,-344.69 587.7,-308.81 549.45,-285.51"/>
<polygon fill="black" stroke="black" points="551.03,-282.37 540.67,-280.16 547.39,-288.35 551.03,-282.37"/>
</g>
<!-- n3 -->
<g id="node3" class="node">
<title>n3</title>
<polygon fill="#fffdd0" stroke="black" points="1049.5,-280 763.5,-280 763.5,-244 1049.5,-244 1049.5,-280"/>
<text text-anchor="middle" x="906.5" y="-258.3" font-family="Arial" font-size="14.00">Raw egg and cooked egg with arrow &#39;heated&#39;</text>
</g>
<!-- n1&#45;&gt;n3 -->
<g id="edge2" class="edge">
<title>n1&#45;&gt;n3</title>
<path fill="none" stroke="black" d="M737.73,-365.81C772.4,-344.69 831.3,-308.81 869.55,-285.51"/>
<polygon fill="black" stroke="black" points="871.61,-288.35 878.33,-280.16 867.97,-282.37 871.61,-288.35"/>
</g>
<!-- n4 -->
<g id="node4" class="node">
<title>n4</title>
<path fill="palegreen" stroke="black" d="M349,-158C349,-158 12,-158 12,-158 6,-158 0,-152 0,-146 0,-146 0,-134 0,-134 0,-128 6,-122 12,-122 12,-122 349,-122 349,-122 355,-122 361,-128 361,-134 361,-134 361,-146 361,-146 361,-152 355,-158 349,-158"/>
<text text-anchor="middle" x="180.5" y="-136.3" font-family="Arial" font-size="14.00">Understands reversible changes: ice melting and freezing</text>
</g>
<!-- n2&#45;&gt;n4 -->
<g id="edge3" class="edge">
<title>n2&#45;&gt;n4</title>
<path fill="none" stroke="black" d="M465.29,-243.93C405.18,-222.21 301.43,-184.71 237.13,-161.47"/>
<polygon fill="black" stroke="black" points="238.14,-158.12 227.55,-158.01 235.77,-164.7 238.14,-158.12"/>
</g>
<!-- n6 -->
<g id="node5" class="node">
<title>n6</title>
<polygon fill="lightcoral" stroke="black" points="709.5,-158 419,-140 709.5,-122 1000,-140 709.5,-158"/>
<text text-anchor="middle" x="709.5" y="-136.3" font-family="Arial" font-size="14.00">Incomplete annotation detail for full understanding</text>
</g>
<!-- n2&#45;&gt;n6 -->
<g id="edge4" class="edge">
<title>n2&#45;&gt;n6</title>
<path fill="none" stroke="black" d="M540.73,-243.81C576.28,-222.15 637.33,-184.96 675.44,-161.75"/>
<polygon fill="black" stroke="black" points="677.42,-164.64 684.14,-156.45 673.78,-158.66 677.42,-164.64"/>
</g>
<!-- n3&#45;&gt;n6 -->
<g id="edge5" class="edge">
<title>n3&#45;&gt;n6</title>
<path fill="none" stroke="black" d="M878.27,-243.81C842.72,-222.15 781.67,-184.96 743.56,-161.75"/>
<polygon fill="black" stroke="black" points="745.22,-158.66 734.86,-156.45 741.58,-164.64 745.22,-158.66"/>
</g>
<!-- n5 -->
<g id="node6" class="node">
<title>n5</title>
<path fill="palegreen" stroke="black" d="M1425.5,-158C1425.5,-158 1069.5,-158 1069.5,-158 1063.5,-158 1057.5,-152 1057.5,-146 1057.5,-146 1057.5,-134 1057.5,-134 1057.5,-128 1063.5,-122 1069.5,-122 1069.5,-122 1425.5,-122 1425.5,-122 1431.5,-122 1437.5,-128 1437.5,-134 1437.5,-134 1437.5,-146 1437.5,-146 1437.5,-152 1431.5,-158 1425.5,-158"/>
<text text-anchor="middle" x="1247.5" y="-136.3" font-family="Arial" font-size="14.00">Understands irreversible changes: egg cooking is permanent</text>
</g>
<!-- n3&#45;&gt;n5 -->
<g id="edge6" class="edge">
<title>n3&#45;&gt;n5</title>
<path fill="none" stroke="black" d="M954.99,-243.93C1016.7,-222.21 1123.3,-184.71 1189.3,-161.47"/>
<polygon fill="black" stroke="black" points="1190.91,-164.61 1199.2,-158.01 1188.61,-158.01 1190.91,-164.61"/>
</g>
<!-- n7 -->
<g id="node7" class="node">
<title>n7</title>
<polygon fill="#f28e8e" stroke="black" points="923,-36 496,-36 496,0 923,0 923,-36"/>
<text text-anchor="middle" x="709.5" y="-14.3" font-family="Arial" font-size="14.00">Add more annotations to clarify reversible and irreversible processes</text>
</g>
<!-- n6&#45;&gt;n7 -->
<g id="edge7" class="edge">
<title>n6&#45;&gt;n7</title>
<path fill="none" stroke="black" d="M709.5,-121.81C709.5,-102.11 709.5,-69.58 709.5,-46.39"/>
<polygon fill="black" stroke="black" points="713,-46.16 709.5,-36.16 706,-46.16 713,-46.16"/>
</g>
</g>
</svg>
