<?xml version="1.0" encoding="UTF-8" standalone="no"?>
<!DOCTYPE svg PUBLIC "-//W3C//DTD SVG 1.1//EN"
 "http://www.w3.org/Graphics/SVG/1.1/DTD/svg11.dtd">
<!-- Generated by graphviz version 2.43.0 (0)
 -->
<!-- Pages: 1 -->
<svg width="977pt" height="288pt"
 viewBox="0.00 0.00 976.50 288.00" xmlns="http://www.w3.org/2000/svg" xmlns:xlink="http://www.w3.org/1999/xlink">
<g id="graph0" class="graph" transform="scale(1 1) rotate(0) translate(4 284)">
<polygon fill="white" stroke="transparent" points="-4,4 -4,-284 972.5,-284 972.5,4 -4,4"/>
<!-- n1 -->
<g id="node1" class="node">
<title>n1</title>
<polygon fill="lightblue" stroke="black" points="659,-262 495,-280 167,-280 3,-262 167,-244 495,-244 659,-262"/>
<text text-anchor="middle" x="331" y="-258.3" font-family="Arial" font-size="14.00">Draw reversible and irreversible changes (ice melting vs. egg cooking)</text>
</g>
<!-- n2 -->
<g id="node2" class="node">
<title>n2</title>
<polygon fill="#fffdd0" stroke="black" points="302,-158 0,-158 0,-122 302,-122 302,-158"/>
<text text-anchor="middle" x="151" y="-136.3" font-family="Arial" font-size="14.00">Ice &#45; Solid, Water &#45; Liquid with reversible arrows</text>
</g>
<!-- n1&#45;&gt;n2 -->
<g id="edge1" class="edge">
<title>n1&#45;&gt;n2</title>
<path fill="none" stroke="black" d="M305.21,-243.81C273.67,-222.78 220.16,-187.11 185.2,-163.8"/>
<polygon fill="black" stroke="black" points="187,-160.79 176.74,-158.16 183.12,-166.62 187,-160.79"/>
</g>
<!-- n3 -->
<g id="node3" class="node">
<title>n3</title>
<polygon fill="#fffdd0" stroke="black" points="664,-158 360,-158 360,-122 664,-122 664,-158"/>
<text text-anchor="middle" x="512" y="-136.3" font-family="Arial" font-size="14.00">Egg &#45; Raw, Egg &#45; Cooked with irreversible arrow</text>
</g>
<!-- n1&#45;&gt;n3 -->
<g id="edge2" class="edge">
<title>n1&#45;&gt;n3</title>
<path fill="none" stroke="black" d="M356.93,-243.81C388.65,-222.78 442.45,-187.11 477.61,-163.8"/>
<polygon fill="black" stroke="black" points="479.72,-166.6 486.12,-158.16 475.85,-160.77 479.72,-166.6"/>
</g>
<!-- n4 -->
<g id="node4" class="node">
<title>n4</title>
<path fill="palegreen" stroke="black" d="M264.5,-36C264.5,-36 37.5,-36 37.5,-36 31.5,-36 25.5,-30 25.5,-24 25.5,-24 25.5,-12 25.5,-12 25.5,-6 31.5,0 37.5,0 37.5,0 264.5,0 264.5,0 270.5,0 276.5,-6 276.5,-12 276.5,-12 276.5,-24 276.5,-24 276.5,-30 270.5,-36 264.5,-36"/>
<text text-anchor="middle" x="151" y="-14.3" font-family="Arial" font-size="14.00">Correct illustration of reversible change</text>
</g>
<!-- n2&#45;&gt;n4 -->
<g id="edge3" class="edge">
<title>n2&#45;&gt;n4</title>
<path fill="none" stroke="black" d="M151,-121.81C151,-102.11 151,-69.58 151,-46.39"/>
<polygon fill="black" stroke="black" points="154.5,-46.16 151,-36.16 147.5,-46.16 154.5,-46.16"/>
</g>
<!-- n5 -->
<g id="node5" class="node">
<title>n5</title>
<path fill="palegreen" stroke="black" d="M605,-36C605,-36 371,-36 371,-36 365,-36 359,-30 359,-24 359,-24 359,-12 359,-12 359,-6 365,0 371,0 371,0 605,0 605,0 611,0 617,-6 617,-12 617,-12 617,-24 617,-24 617,-30 611,-36 605,-36"/>
<text text-anchor="middle" x="488" y="-14.3" font-family="Arial" font-size="14.00">Correct illustration of irreversible change</text>
</g>
<!-- n3&#45;&gt;n5 -->
<g id="edge4" class="edge">
<title>n3&#45;&gt;n5</title>
<path fill="none" stroke="black" d="M508.56,-121.81C504.6,-102.02 498.06,-69.29 493.42,-46.08"/>
<polygon fill="black" stroke="black" points="496.83,-45.28 491.43,-36.16 489.97,-46.65 496.83,-45.28"/>
</g>
<!-- n6 -->
<g id="node6" class="node">
<title>n6</title>
<polygon fill="#f28e8e" stroke="black" points="968.5,-36 675.5,-36 675.5,0 968.5,0 968.5,-36"/>
<text text-anchor="middle" x="822" y="-14.3" font-family="Arial" font-size="14.00">Consider adding temperature details for clarity</text>
</g>
<!-- n3&#45;&gt;n6 -->
<g id="edge5" class="edge">
<title>n3&#45;&gt;n6</title>
<path fill="none" stroke="black" d="M556.09,-121.93C611.98,-100.3 708.29,-63.02 768.38,-39.76"/>
<polygon fill="black" stroke="black" points="770.01,-42.88 778.07,-36.01 767.48,-36.35 770.01,-42.88"/>
</g>
</g>
</svg>
