<?xml version="1.0" encoding="UTF-8" standalone="no"?>
<!DOCTYPE svg PUBLIC "-//W3C//DTD SVG 1.1//EN"
 "http://www.w3.org/Graphics/SVG/1.1/DTD/svg11.dtd">
<!-- Generated by graphviz version 2.43.0 (0)
 -->
<!-- Pages: 1 -->
<svg width="1260pt" height="410pt"
 viewBox="0.00 0.00 1260.13 410.00" xmlns="http://www.w3.org/2000/svg" xmlns:xlink="http://www.w3.org/1999/xlink">
<g id="graph0" class="graph" transform="scale(1 1) rotate(0) translate(4 406)">
<polygon fill="white" stroke="transparent" points="-4,4 -4,-406 1256.13,-406 1256.13,4 -4,4"/>
<!-- n1 -->
<g id="node1" class="node">
<title>n1</title>
<polygon fill="lightblue" stroke="black" points="722.5,-384 631.25,-402 448.75,-402 357.5,-384 448.75,-366 631.25,-366 722.5,-384"/>
<text text-anchor="middle" x="540" y="-380.3" font-family="Arial" font-size="14.00">Draw reversible changes (ice melting)</text>
</g>
<!-- n2 -->
<g id="node2" class="node">
<title>n2</title>
<polygon fill="#fffdd0" stroke="black" points="464.5,-280 301.5,-280 301.5,-244 464.5,-244 464.5,-280"/>
<text text-anchor="middle" x="383" y="-258.3" font-family="Arial" font-size="14.00">Blue square labeled &#39;ice&#39;</text>
</g>
<!-- n1&#45;&gt;n2 -->
<g id="edge1" class="edge">
<title>n1&#45;&gt;n2</title>
<path fill="none" stroke="black" d="M517.51,-365.81C490.22,-344.96 444.11,-309.71 413.61,-286.4"/>
<polygon fill="black" stroke="black" points="415.52,-283.45 405.45,-280.16 411.27,-289.01 415.52,-283.45"/>
</g>
<!-- n3 -->
<g id="node3" class="node">
<title>n3</title>
<polygon fill="#fffdd0" stroke="black" points="810.5,-280 583.5,-280 583.5,-244 810.5,-244 810.5,-280"/>
<text text-anchor="middle" x="697" y="-258.3" font-family="Arial" font-size="14.00">Blue irregular shape labeled &#39;water&#39;</text>
</g>
<!-- n1&#45;&gt;n3 -->
<g id="edge2" class="edge">
<title>n1&#45;&gt;n3</title>
<path fill="none" stroke="black" d="M562.49,-365.81C589.78,-344.96 635.89,-309.71 666.39,-286.4"/>
<polygon fill="black" stroke="black" points="668.73,-289.01 674.55,-280.16 664.48,-283.45 668.73,-289.01"/>
</g>
<!-- n4 -->
<g id="node4" class="node">
<title>n4</title>
<path fill="palegreen" stroke="black" d="M148,-158C148,-158 12,-158 12,-158 6,-158 0,-152 0,-146 0,-146 0,-134 0,-134 0,-128 6,-122 12,-122 12,-122 148,-122 148,-122 154,-122 160,-128 160,-134 160,-134 160,-146 160,-146 160,-152 154,-158 148,-158"/>
<text text-anchor="middle" x="80" y="-136.3" font-family="Arial" font-size="14.00">Ice represented as solid</text>
</g>
<!-- n2&#45;&gt;n4 -->
<g id="edge3" class="edge">
<title>n2&#45;&gt;n4</title>
<path fill="none" stroke="black" d="M339.91,-243.93C285.28,-222.3 191.14,-185.02 132.41,-161.76"/>
<polygon fill="black" stroke="black" points="133.53,-158.44 122.94,-158.01 130.95,-164.95 133.53,-158.44"/>
</g>
<!-- n6 -->
<g id="node5" class="node">
<title>n6</title>
<polygon fill="lightcoral" stroke="black" points="383,-158 218.44,-140 383,-122 547.56,-140 383,-158"/>
<text text-anchor="middle" x="383" y="-136.3" font-family="Arial" font-size="14.00">No transition stages shown</text>
</g>
<!-- n2&#45;&gt;n6 -->
<g id="edge4" class="edge">
<title>n2&#45;&gt;n6</title>
<path fill="none" stroke="black" d="M383,-243.81C383,-224.11 383,-191.58 383,-168.39"/>
<polygon fill="black" stroke="black" points="386.5,-168.16 383,-158.16 379.5,-168.16 386.5,-168.16"/>
</g>
<!-- n5 -->
<g id="node6" class="node">
<title>n5</title>
<path fill="palegreen" stroke="black" d="M776,-158C776,-158 618,-158 618,-158 612,-158 606,-152 606,-146 606,-146 606,-134 606,-134 606,-128 612,-122 618,-122 618,-122 776,-122 776,-122 782,-122 788,-128 788,-134 788,-134 788,-146 788,-146 788,-152 782,-158 776,-158"/>
<text text-anchor="middle" x="697" y="-136.3" font-family="Arial" font-size="14.00">Water represented as liquid</text>
</g>
<!-- n3&#45;&gt;n5 -->
<g id="edge5" class="edge">
<title>n3&#45;&gt;n5</title>
<path fill="none" stroke="black" d="M697,-243.81C697,-224.11 697,-191.58 697,-168.39"/>
<polygon fill="black" stroke="black" points="700.5,-168.16 697,-158.16 693.5,-168.16 700.5,-168.16"/>
</g>
<!-- n7 -->
<g id="node7" class="node">
<title>n7</title>
<polygon fill="lightcoral" stroke="black" points="1049,-158 845.73,-140 1049,-122 1252.27,-140 1049,-158"/>
<text text-anchor="middle" x="1049" y="-136.3" font-family="Arial" font-size="14.00">Lack of reversible change concept</text>
</g>
<!-- n3&#45;&gt;n7 -->
<g id="edge6" class="edge">
<title>n3&#45;&gt;n7</title>
<path fill="none" stroke="black" d="M747.06,-243.93C814.27,-221.02 932.93,-180.57 999.73,-157.8"/>
<polygon fill="black" stroke="black" points="1000.87,-161.11 1009.2,-154.57 998.61,-154.49 1000.87,-161.11"/>
</g>
<!-- n8 -->
<g id="node8" class="node">
<title>n8</title>
<polygon fill="#f28e8e" stroke="black" points="480,-36 286,-36 286,0 480,0 480,-36"/>
<text text-anchor="middle" x="383" y="-14.3" font-family="Arial" font-size="14.00">Illustrate melting and freezing</text>
</g>
<!-- n6&#45;&gt;n8 -->
<g id="edge7" class="edge">
<title>n6&#45;&gt;n8</title>
<path fill="none" stroke="black" d="M383,-121.81C383,-102.11 383,-69.58 383,-46.39"/>
<polygon fill="black" stroke="black" points="386.5,-46.16 383,-36.16 379.5,-46.16 386.5,-46.16"/>
</g>
<!-- n9 -->
<g id="node9" class="node">
<title>n9</title>
<polygon fill="#f28e8e" stroke="black" points="1158.5,-36 939.5,-36 939.5,0 1158.5,0 1158.5,-36"/>
<text text-anchor="middle" x="1049" y="-14.3" font-family="Arial" font-size="14.00">Label images to show reversibility</text>
</g>
<!-- n7&#45;&gt;n9 -->
<g id="edge8" class="edge">
<title>n7&#45;&gt;n9</title>
<path fill="none" stroke="black" d="M1049,-121.81C1049,-102.11 1049,-69.58 1049,-46.39"/>
<polygon fill="black" stroke="black" points="1052.5,-46.16 1049,-36.16 1045.5,-46.16 1052.5,-46.16"/>
</g>
</g>
</svg>
