<?xml version="1.0" encoding="UTF-8" standalone="no"?>
<!DOCTYPE svg PUBLIC "-//W3C//DTD SVG 1.1//EN"
 "http://www.w3.org/Graphics/SVG/1.1/DTD/svg11.dtd">
<!-- Generated by graphviz version 2.43.0 (0)
 -->
<!-- Pages: 1 -->
<svg width="1131pt" height="532pt"
 viewBox="0.00 0.00 1130.70 532.00" xmlns="http://www.w3.org/2000/svg" xmlns:xlink="http://www.w3.org/1999/xlink">
<g id="graph0" class="graph" transform="scale(1 1) rotate(0) translate(4 528)">
<polygon fill="white" stroke="transparent" points="-4,4 -4,-528 1126.7,-528 1126.7,4 -4,4"/>
<!-- n1 -->
<g id="node1" class="node">
<title>n1</title>
<polygon fill="lightblue" stroke="black" points="930.96,-506 837.84,-524 651.6,-524 558.48,-506 651.6,-488 837.84,-488 930.96,-506"/>
<text text-anchor="middle" x="744.72" y="-502.3" font-family="Arial" font-size="14.00">Illustrate plants with and without water.</text>
</g>
<!-- n2 -->
<g id="node2" class="node">
<title>n2</title>
<polygon fill="#fffdd0" stroke="black" points="731.72,-402 417.72,-402 417.72,-366 731.72,-366 731.72,-402"/>
<text text-anchor="middle" x="574.72" y="-380.3" font-family="Arial" font-size="14.00">Two identical green plants with stems and leaves.</text>
</g>
<!-- n1&#45;&gt;n2 -->
<g id="edge1" class="edge">
<title>n1&#45;&gt;n2</title>
<path fill="none" stroke="black" d="M720.36,-487.81C690.7,-466.87 640.47,-431.41 607.44,-408.1"/>
<polygon fill="black" stroke="black" points="609.22,-405.07 599.03,-402.16 605.18,-410.79 609.22,-405.07"/>
</g>
<!-- n3 -->
<g id="node3" class="node">
<title>n3</title>
<polygon fill="#fffdd0" stroke="black" points="1086.22,-402 837.22,-402 837.22,-366 1086.22,-366 1086.22,-402"/>
<text text-anchor="middle" x="961.72" y="-380.3" font-family="Arial" font-size="14.00">Yellow sun and blue raindrops present.</text>
</g>
<!-- n1&#45;&gt;n3 -->
<g id="edge2" class="edge">
<title>n1&#45;&gt;n3</title>
<path fill="none" stroke="black" d="M775.81,-487.81C814.24,-466.55 879.71,-430.35 921.82,-407.07"/>
<polygon fill="black" stroke="black" points="923.64,-410.07 930.69,-402.16 920.25,-403.94 923.64,-410.07"/>
</g>
<!-- n4 -->
<g id="node4" class="node">
<title>n4</title>
<polygon fill="lightcoral" stroke="black" points="480.72,-280 123.11,-262 480.72,-244 838.32,-262 480.72,-280"/>
<text text-anchor="middle" x="480.72" y="-258.3" font-family="Arial" font-size="14.00">No differentiation between well&#45;watered and unwatered plants.</text>
</g>
<!-- n2&#45;&gt;n4 -->
<g id="edge3" class="edge">
<title>n2&#45;&gt;n4</title>
<path fill="none" stroke="black" d="M561.25,-365.81C545.16,-345.26 518.11,-310.74 499.85,-287.42"/>
<polygon fill="black" stroke="black" points="502.48,-285.1 493.56,-279.39 496.97,-289.42 502.48,-285.1"/>
</g>
<!-- n5 -->
<g id="node5" class="node">
<title>n5</title>
<path fill="palegreen" stroke="black" d="M1110.7,-280C1110.7,-280 908.7,-280 908.7,-280 902.7,-280 896.7,-274 896.7,-268 896.7,-268 896.7,-256 896.7,-256 896.7,-250 902.7,-244 908.7,-244 908.7,-244 1110.7,-244 1110.7,-244 1116.7,-244 1122.7,-250 1122.7,-256 1122.7,-256 1122.7,-268 1122.7,-268 1122.7,-274 1116.7,-280 1110.7,-280"/>
<text text-anchor="middle" x="1009.7" y="-258.3" font-family="Arial" font-size="14.00">Plants need water to live and grow.</text>
</g>
<!-- n3&#45;&gt;n5 -->
<g id="edge4" class="edge">
<title>n3&#45;&gt;n5</title>
<path fill="none" stroke="black" d="M968.6,-365.81C976.58,-345.85 989.84,-312.7 999.14,-289.45"/>
<polygon fill="black" stroke="black" points="1002.39,-290.74 1002.9,-280.16 995.9,-288.12 1002.39,-290.74"/>
</g>
<!-- n6 -->
<g id="node6" class="node">
<title>n6</title>
<polygon fill="lightcoral" stroke="black" points="480.72,-158 -0.22,-140 480.72,-122 961.66,-140 480.72,-158"/>
<text text-anchor="middle" x="480.72" y="-136.3" font-family="Arial" font-size="14.00">Misunderstanding: Only presence of the sun and water is shown, no effect on plants.</text>
</g>
<!-- n4&#45;&gt;n6 -->
<g id="edge5" class="edge">
<title>n4&#45;&gt;n6</title>
<path fill="none" stroke="black" d="M480.72,-243.81C480.72,-224.11 480.72,-191.58 480.72,-168.39"/>
<polygon fill="black" stroke="black" points="484.22,-168.16 480.72,-158.16 477.22,-168.16 484.22,-168.16"/>
</g>
<!-- n7 -->
<g id="node7" class="node">
<title>n7</title>
<polygon fill="#f28e8e" stroke="black" points="661.22,-36 300.22,-36 300.22,0 661.22,0 661.22,-36"/>
<text text-anchor="middle" x="480.72" y="-14.3" font-family="Arial" font-size="14.00">Provide visual cues: Show one plant wilting without water.</text>
</g>
<!-- n6&#45;&gt;n7 -->
<g id="edge6" class="edge">
<title>n6&#45;&gt;n7</title>
<path fill="none" stroke="black" d="M480.72,-121.81C480.72,-102.11 480.72,-69.58 480.72,-46.39"/>
<polygon fill="black" stroke="black" points="484.22,-46.16 480.72,-36.16 477.22,-46.16 484.22,-46.16"/>
</g>
</g>
</svg>
