<?xml version="1.0" encoding="UTF-8" standalone="no"?>
<!DOCTYPE svg PUBLIC "-//W3C//DTD SVG 1.1//EN"
 "http://www.w3.org/Graphics/SVG/1.1/DTD/svg11.dtd">
<!-- Generated by graphviz version 2.43.0 (0)
 -->
<!-- Pages: 1 -->
<svg width="1087pt" height="532pt"
 viewBox="0.00 0.00 1087.00 532.00" xmlns="http://www.w3.org/2000/svg" xmlns:xlink="http://www.w3.org/1999/xlink">
<g id="graph0" class="graph" transform="scale(1 1) rotate(0) translate(4 528)">
<polygon fill="white" stroke="transparent" points="-4,4 -4,-528 1083,-528 1083,4 -4,4"/>
<!-- n1 -->
<g id="node1" class="node">
<title>n1</title>
<polygon fill="lightblue" stroke="black" points="710.24,-506 617.12,-524 430.88,-524 337.76,-506 430.88,-488 617.12,-488 710.24,-506"/>
<text text-anchor="middle" x="524" y="-502.3" font-family="Arial" font-size="14.00">Illustrate plants with and without water.</text>
</g>
<!-- n2 -->
<g id="node2" class="node">
<title>n2</title>
<polygon fill="#fffdd0" stroke="black" points="682,-402 366,-402 366,-366 682,-366 682,-402"/>
<text text-anchor="middle" x="524" y="-380.3" font-family="Arial" font-size="14.00">Two plants side by side: watered and not watered.</text>
</g>
<!-- n1&#45;&gt;n2 -->
<g id="edge1" class="edge">
<title>n1&#45;&gt;n2</title>
<path fill="none" stroke="black" d="M524,-487.81C524,-468.11 524,-435.58 524,-412.39"/>
<polygon fill="black" stroke="black" points="527.5,-412.16 524,-402.16 520.5,-412.16 527.5,-412.16"/>
</g>
<!-- n3 -->
<g id="node3" class="node">
<title>n3</title>
<polygon fill="#fffdd0" stroke="black" points="272,-280 0,-280 0,-244 272,-244 272,-280"/>
<text text-anchor="middle" x="136" y="-258.3" font-family="Arial" font-size="14.00">Watered plant looks healthy; green leaves.</text>
</g>
<!-- n2&#45;&gt;n3 -->
<g id="edge2" class="edge">
<title>n2&#45;&gt;n3</title>
<path fill="none" stroke="black" d="M468.82,-365.93C398.14,-344.07 275.83,-306.25 200.8,-283.04"/>
<polygon fill="black" stroke="black" points="201.58,-279.62 190.99,-280.01 199.51,-286.31 201.58,-279.62"/>
</g>
<!-- n4 -->
<g id="node4" class="node">
<title>n4</title>
<polygon fill="#fffdd0" stroke="black" points="718,-280 330,-280 330,-244 718,-244 718,-280"/>
<text text-anchor="middle" x="524" y="-258.3" font-family="Arial" font-size="14.00">Unwatered plant looks wilted; droopy leaves with brown spots.</text>
</g>
<!-- n2&#45;&gt;n4 -->
<g id="edge3" class="edge">
<title>n2&#45;&gt;n4</title>
<path fill="none" stroke="black" d="M524,-365.81C524,-346.11 524,-313.58 524,-290.39"/>
<polygon fill="black" stroke="black" points="527.5,-290.16 524,-280.16 520.5,-290.16 527.5,-290.16"/>
</g>
<!-- n5 -->
<g id="node5" class="node">
<title>n5</title>
<polygon fill="#fffdd0" stroke="black" points="1017,-280 793,-280 793,-244 1017,-244 1017,-280"/>
<text text-anchor="middle" x="905" y="-258.3" font-family="Arial" font-size="14.00">Sunlight placement is inconsistent.</text>
</g>
<!-- n2&#45;&gt;n5 -->
<g id="edge4" class="edge">
<title>n2&#45;&gt;n5</title>
<path fill="none" stroke="black" d="M578.18,-365.93C647.59,-344.07 767.69,-306.25 841.37,-283.04"/>
<polygon fill="black" stroke="black" points="842.51,-286.35 851,-280.01 840.41,-279.67 842.51,-286.35"/>
</g>
<!-- n6 -->
<g id="node6" class="node">
<title>n6</title>
<path fill="palegreen" stroke="black" d="M233,-158C233,-158 39,-158 39,-158 33,-158 27,-152 27,-146 27,-146 27,-134 27,-134 27,-128 33,-122 39,-122 39,-122 233,-122 233,-122 239,-122 245,-128 245,-134 245,-134 245,-146 245,-146 245,-152 239,-158 233,-158"/>
<text text-anchor="middle" x="136" y="-136.3" font-family="Arial" font-size="14.00">Plants need water to stay healthy.</text>
</g>
<!-- n3&#45;&gt;n6 -->
<g id="edge5" class="edge">
<title>n3&#45;&gt;n6</title>
<path fill="none" stroke="black" d="M136,-243.81C136,-224.11 136,-191.58 136,-168.39"/>
<polygon fill="black" stroke="black" points="139.5,-168.16 136,-158.16 132.5,-168.16 139.5,-168.16"/>
</g>
<!-- n7 -->
<g id="node7" class="node">
<title>n7</title>
<path fill="palegreen" stroke="black" d="M683.5,-158C683.5,-158 346.5,-158 346.5,-158 340.5,-158 334.5,-152 334.5,-146 334.5,-146 334.5,-134 334.5,-134 334.5,-128 340.5,-122 346.5,-122 346.5,-122 683.5,-122 683.5,-122 689.5,-122 695.5,-128 695.5,-134 695.5,-134 695.5,-146 695.5,-146 695.5,-152 689.5,-158 683.5,-158"/>
<text text-anchor="middle" x="515" y="-136.3" font-family="Arial" font-size="14.00">Watered plant appears healthy while unwatered does not.</text>
</g>
<!-- n4&#45;&gt;n7 -->
<g id="edge6" class="edge">
<title>n4&#45;&gt;n7</title>
<path fill="none" stroke="black" d="M522.71,-243.81C521.23,-224.11 518.79,-191.58 517.05,-168.39"/>
<polygon fill="black" stroke="black" points="520.52,-167.87 516.29,-158.16 513.54,-168.39 520.52,-167.87"/>
</g>
<!-- n8 -->
<g id="node8" class="node">
<title>n8</title>
<polygon fill="lightcoral" stroke="black" points="913,-158 753,-140 913,-122 1073,-140 913,-158"/>
<text text-anchor="middle" x="913" y="-136.3" font-family="Arial" font-size="14.00">Role of sunlight is unclear.</text>
</g>
<!-- n5&#45;&gt;n8 -->
<g id="edge7" class="edge">
<title>n5&#45;&gt;n8</title>
<path fill="none" stroke="black" d="M906.15,-243.81C907.46,-224.11 909.63,-191.58 911.17,-168.39"/>
<polygon fill="black" stroke="black" points="914.68,-168.37 911.86,-158.16 907.69,-167.9 914.68,-168.37"/>
</g>
<!-- n9 -->
<g id="node9" class="node">
<title>n9</title>
<polygon fill="#f28e8e" stroke="black" points="1079,-36 747,-36 747,0 1079,0 1079,-36"/>
<text text-anchor="middle" x="913" y="-14.3" font-family="Arial" font-size="14.00">Show sunlight consistently to indicate its importance.</text>
</g>
<!-- n8&#45;&gt;n9 -->
<g id="edge8" class="edge">
<title>n8&#45;&gt;n9</title>
<path fill="none" stroke="black" d="M913,-121.81C913,-102.11 913,-69.58 913,-46.39"/>
<polygon fill="black" stroke="black" points="916.5,-46.16 913,-36.16 909.5,-46.16 916.5,-46.16"/>
</g>
</g>
</svg>
