<?xml version="1.0" encoding="UTF-8" standalone="no"?>
<!DOCTYPE svg PUBLIC "-//W3C//DTD SVG 1.1//EN"
 "http://www.w3.org/Graphics/SVG/1.1/DTD/svg11.dtd">
<!-- Generated by graphviz version 2.43.0 (0)
 -->
<!-- Pages: 1 -->
<svg width="1288pt" height="410pt"
 viewBox="0.00 0.00 1288.00 410.00" xmlns="http://www.w3.org/2000/svg" xmlns:xlink="http://www.w3.org/1999/xlink">
<g id="graph0" class="graph" transform="scale(1 1) rotate(0) translate(4 406)">
<polygon fill="white" stroke="transparent" points="-4,4 -4,-406 1284,-406 1284,4 -4,4"/>
<!-- n1 -->
<g id="node1" class="node">
<title>n1</title>
<polygon fill="lightblue" stroke="black" points="590,-384 498.75,-402 316.25,-402 225,-384 316.25,-366 498.75,-366 590,-384"/>
<text text-anchor="middle" x="407.5" y="-380.3" font-family="Arial" font-size="14.00">Draw reversible changes (ice melting)</text>
</g>
<!-- n2 -->
<g id="node2" class="node">
<title>n2</title>
<polygon fill="#fffdd0" stroke="black" points="149,-280 0,-280 0,-244 149,-244 149,-280"/>
<text text-anchor="middle" x="74.5" y="-258.3" font-family="Arial" font-size="14.00">Ice cube drawn on left</text>
</g>
<!-- n1&#45;&gt;n2 -->
<g id="edge1" class="edge">
<title>n1&#45;&gt;n2</title>
<path fill="none" stroke="black" d="M360.14,-365.93C299.85,-344.21 195.79,-306.71 131.3,-283.47"/>
<polygon fill="black" stroke="black" points="132.28,-280.1 121.69,-280.01 129.91,-286.69 132.28,-280.1"/>
</g>
<!-- n3 -->
<g id="node3" class="node">
<title>n3</title>
<polygon fill="#fffdd0" stroke="black" points="383.5,-280 207.5,-280 207.5,-244 383.5,-244 383.5,-280"/>
<text text-anchor="middle" x="295.5" y="-258.3" font-family="Arial" font-size="14.00">Wavy blue shape for water</text>
</g>
<!-- n1&#45;&gt;n3 -->
<g id="edge2" class="edge">
<title>n1&#45;&gt;n3</title>
<path fill="none" stroke="black" d="M391.45,-365.81C372.32,-345.31 340.22,-310.91 318.46,-287.6"/>
<polygon fill="black" stroke="black" points="320.9,-285.09 311.52,-280.16 315.78,-289.86 320.9,-285.09"/>
</g>
<!-- n4 -->
<g id="node4" class="node">
<title>n4</title>
<polygon fill="#fffdd0" stroke="black" points="599,-280 442,-280 442,-244 599,-244 599,-280"/>
<text text-anchor="middle" x="520.5" y="-258.3" font-family="Arial" font-size="14.00">Ice cube drawn on right</text>
</g>
<!-- n1&#45;&gt;n4 -->
<g id="edge3" class="edge">
<title>n1&#45;&gt;n4</title>
<path fill="none" stroke="black" d="M423.69,-365.81C442.99,-345.31 475.38,-310.91 497.33,-287.6"/>
<polygon fill="black" stroke="black" points="500.03,-289.84 504.34,-280.16 494.93,-285.04 500.03,-289.84"/>
</g>
<!-- n5 -->
<g id="node5" class="node">
<title>n5</title>
<polygon fill="#fffdd0" stroke="black" points="941.5,-280 697.5,-280 697.5,-244 941.5,-244 941.5,-280"/>
<text text-anchor="middle" x="819.5" y="-258.3" font-family="Arial" font-size="14.00">Arrows labeled &#39;melting&#39; and &#39;freezing&#39;</text>
</g>
<!-- n1&#45;&gt;n5 -->
<g id="edge4" class="edge">
<title>n1&#45;&gt;n5</title>
<path fill="none" stroke="black" d="M466.09,-365.93C541.3,-344.03 671.55,-306.09 751.18,-282.9"/>
<polygon fill="black" stroke="black" points="752.49,-286.17 761.11,-280.01 750.53,-279.44 752.49,-286.17"/>
</g>
<!-- n6 -->
<g id="node6" class="node">
<title>n6</title>
<path fill="palegreen" stroke="black" d="M223.5,-158C223.5,-158 13.5,-158 13.5,-158 7.5,-158 1.5,-152 1.5,-146 1.5,-146 1.5,-134 1.5,-134 1.5,-128 7.5,-122 13.5,-122 13.5,-122 223.5,-122 223.5,-122 229.5,-122 235.5,-128 235.5,-134 235.5,-134 235.5,-146 235.5,-146 235.5,-152 229.5,-158 223.5,-158"/>
<text text-anchor="middle" x="118.5" y="-136.3" font-family="Arial" font-size="14.00">Understands ice transforms to water</text>
</g>
<!-- n2&#45;&gt;n6 -->
<g id="edge5" class="edge">
<title>n2&#45;&gt;n6</title>
<path fill="none" stroke="black" d="M80.8,-243.81C88.09,-223.94 100.17,-190.99 108.69,-167.76"/>
<polygon fill="black" stroke="black" points="112.05,-168.75 112.21,-158.16 105.48,-166.34 112.05,-168.75"/>
</g>
<!-- n3&#45;&gt;n6 -->
<g id="edge6" class="edge">
<title>n3&#45;&gt;n6</title>
<path fill="none" stroke="black" d="M270.14,-243.81C239.12,-222.78 186.51,-187.11 152.13,-163.8"/>
<polygon fill="black" stroke="black" points="154.05,-160.87 143.81,-158.16 150.12,-166.67 154.05,-160.87"/>
</g>
<!-- n7 -->
<g id="node7" class="node">
<title>n7</title>
<path fill="palegreen" stroke="black" d="M610,-158C610,-158 349,-158 349,-158 343,-158 337,-152 337,-146 337,-146 337,-134 337,-134 337,-128 343,-122 349,-122 349,-122 610,-122 610,-122 616,-122 622,-128 622,-134 622,-134 622,-146 622,-146 622,-152 616,-158 610,-158"/>
<text text-anchor="middle" x="479.5" y="-136.3" font-family="Arial" font-size="14.00">Understands water can transform back to ice</text>
</g>
<!-- n4&#45;&gt;n7 -->
<g id="edge7" class="edge">
<title>n4&#45;&gt;n7</title>
<path fill="none" stroke="black" d="M514.63,-243.81C507.84,-223.94 496.58,-190.99 488.64,-167.76"/>
<polygon fill="black" stroke="black" points="491.91,-166.49 485.36,-158.16 485.28,-168.75 491.91,-166.49"/>
</g>
<!-- n8 -->
<g id="node8" class="node">
<title>n8</title>
<polygon fill="lightcoral" stroke="black" points="819.5,-158 679.58,-140 819.5,-122 959.42,-140 819.5,-158"/>
<text text-anchor="middle" x="819.5" y="-136.3" font-family="Arial" font-size="14.00">Inconsistent arrow use</text>
</g>
<!-- n5&#45;&gt;n8 -->
<g id="edge8" class="edge">
<title>n5&#45;&gt;n8</title>
<path fill="none" stroke="black" d="M819.5,-243.81C819.5,-224.11 819.5,-191.58 819.5,-168.39"/>
<polygon fill="black" stroke="black" points="823,-168.16 819.5,-158.16 816,-168.16 823,-168.16"/>
</g>
<!-- n9 -->
<g id="node9" class="node">
<title>n9</title>
<polygon fill="lightcoral" stroke="black" points="1148.5,-158 1017,-140 1148.5,-122 1280,-140 1148.5,-158"/>
<text text-anchor="middle" x="1148.5" y="-136.3" font-family="Arial" font-size="14.00">Missing/partial labels</text>
</g>
<!-- n5&#45;&gt;n9 -->
<g id="edge9" class="edge">
<title>n5&#45;&gt;n9</title>
<path fill="none" stroke="black" d="M866.29,-243.93C929.94,-220.72 1043,-179.49 1104.9,-156.9"/>
<polygon fill="black" stroke="black" points="1106.2,-160.15 1114.4,-153.44 1103.81,-153.57 1106.2,-160.15"/>
</g>
<!-- n10 -->
<g id="node10" class="node">
<title>n10</title>
<polygon fill="#f28e8e" stroke="black" points="957,-36 682,-36 682,0 957,0 957,-36"/>
<text text-anchor="middle" x="819.5" y="-14.3" font-family="Arial" font-size="14.00">Ensure clear and consistent arrow direction</text>
</g>
<!-- n8&#45;&gt;n10 -->
<g id="edge10" class="edge">
<title>n8&#45;&gt;n10</title>
<path fill="none" stroke="black" d="M819.5,-121.81C819.5,-102.11 819.5,-69.58 819.5,-46.39"/>
<polygon fill="black" stroke="black" points="823,-46.16 819.5,-36.16 816,-46.16 823,-46.16"/>
</g>
<!-- n11 -->
<g id="node11" class="node">
<title>n11</title>
<polygon fill="#f28e8e" stroke="black" points="1256,-36 1041,-36 1041,0 1256,0 1256,-36"/>
<text text-anchor="middle" x="1148.5" y="-14.3" font-family="Arial" font-size="14.00">Add complete labels for all states</text>
</g>
<!-- n9&#45;&gt;n11 -->
<g id="edge11" class="edge">
<title>n9&#45;&gt;n11</title>
<path fill="none" stroke="black" d="M1148.5,-121.81C1148.5,-102.11 1148.5,-69.58 1148.5,-46.39"/>
<polygon fill="black" stroke="black" points="1152,-46.16 1148.5,-36.16 1145,-46.16 1152,-46.16"/>
</g>
</g>
</svg>
