<?xml version="1.0" encoding="UTF-8" standalone="no"?>
<!DOCTYPE svg PUBLIC "-//W3C//DTD SVG 1.1//EN"
 "http://www.w3.org/Graphics/SVG/1.1/DTD/svg11.dtd">
<!-- Generated by graphviz version 2.43.0 (0)
 -->
<!-- Pages: 1 -->
<svg width="2382pt" height="410pt"
 viewBox="0.00 0.00 2382.00 410.00" xmlns="http://www.w3.org/2000/svg" xmlns:xlink="http://www.w3.org/1999/xlink">
<g id="graph0" class="graph" transform="scale(1 1) rotate(0) translate(4 406)">
<polygon fill="white" stroke="transparent" points="-4,4 -4,-406 2378,-406 2378,4 -4,4"/>
<!-- n1 -->
<g id="node1" class="node">
<title>n1</title>
<polygon fill="lightblue" stroke="black" points="1062.5,-384 971.25,-402 788.75,-402 697.5,-384 788.75,-366 971.25,-366 1062.5,-384"/>
<text text-anchor="middle" x="880" y="-380.3" font-family="Arial" font-size="14.00">Draw reversible changes (ice melting)</text>
</g>
<!-- n2 -->
<g id="node2" class="node">
<title>n2</title>
<polygon fill="#fffdd0" stroke="black" points="356,-280 18,-280 18,-244 356,-244 356,-280"/>
<text text-anchor="middle" x="187" y="-258.3" font-family="Arial" font-size="14.00">Block of ice on the left, colored blue, with a sun above</text>
</g>
<!-- n1&#45;&gt;n2 -->
<g id="edge1" class="edge">
<title>n1&#45;&gt;n2</title>
<path fill="none" stroke="black" d="M785.46,-366.63C657.54,-344.48 429.9,-305.06 295.27,-281.75"/>
<polygon fill="black" stroke="black" points="295.79,-278.29 285.34,-280.03 294.6,-285.19 295.79,-278.29"/>
</g>
<!-- n3 -->
<g id="node3" class="node">
<title>n3</title>
<polygon fill="#fffdd0" stroke="black" points="699.5,-280 414.5,-280 414.5,-244 699.5,-244 699.5,-280"/>
<text text-anchor="middle" x="557" y="-258.3" font-family="Arial" font-size="14.00">Puddle of water with wavy edges in light blue</text>
</g>
<!-- n1&#45;&gt;n3 -->
<g id="edge2" class="edge">
<title>n1&#45;&gt;n3</title>
<path fill="none" stroke="black" d="M834.07,-365.93C775.71,-344.25 675.07,-306.86 612.48,-283.61"/>
<polygon fill="black" stroke="black" points="613.37,-280.21 602.78,-280.01 610.94,-286.77 613.37,-280.21"/>
</g>
<!-- n4 -->
<g id="node4" class="node">
<title>n4</title>
<polygon fill="#fffdd0" stroke="black" points="1002.5,-280 757.5,-280 757.5,-244 1002.5,-244 1002.5,-280"/>
<text text-anchor="middle" x="880" y="-258.3" font-family="Arial" font-size="14.00">Another block of ice further to the right</text>
</g>
<!-- n1&#45;&gt;n4 -->
<g id="edge3" class="edge">
<title>n1&#45;&gt;n4</title>
<path fill="none" stroke="black" d="M880,-365.81C880,-346.11 880,-313.58 880,-290.39"/>
<polygon fill="black" stroke="black" points="883.5,-290.16 880,-280.16 876.5,-290.16 883.5,-290.16"/>
</g>
<!-- n5 -->
<g id="node5" class="node">
<title>n5</title>
<polygon fill="#fffdd0" stroke="black" points="1413.5,-280 1060.5,-280 1060.5,-244 1413.5,-244 1413.5,-280"/>
<text text-anchor="middle" x="1237" y="-258.3" font-family="Arial" font-size="14.00">Arrows between ice and water with no direction or labels</text>
</g>
<!-- n1&#45;&gt;n5 -->
<g id="edge4" class="edge">
<title>n1&#45;&gt;n5</title>
<path fill="none" stroke="black" d="M930.77,-365.93C995.54,-344.16 1107.4,-306.56 1176.5,-283.33"/>
<polygon fill="black" stroke="black" points="1178.03,-286.51 1186.4,-280.01 1175.81,-279.87 1178.03,-286.51"/>
</g>
<!-- n6 -->
<g id="node6" class="node">
<title>n6</title>
<polygon fill="#fffdd0" stroke="black" points="1909,-280 1685,-280 1685,-244 1909,-244 1909,-280"/>
<text text-anchor="middle" x="1797" y="-258.3" font-family="Arial" font-size="14.00">A cooked egg becoming a raw egg</text>
</g>
<!-- n1&#45;&gt;n6 -->
<g id="edge5" class="edge">
<title>n1&#45;&gt;n6</title>
<path fill="none" stroke="black" d="M986.99,-369C1158.5,-346.55 1494.2,-302.62 1674.9,-278.98"/>
<polygon fill="black" stroke="black" points="1675.54,-282.43 1685,-277.66 1674.63,-275.49 1675.54,-282.43"/>
</g>
<!-- n7 -->
<g id="node7" class="node">
<title>n7</title>
<path fill="palegreen" stroke="black" d="M362,-158C362,-158 12,-158 12,-158 6,-158 0,-152 0,-146 0,-146 0,-134 0,-134 0,-128 6,-122 12,-122 12,-122 362,-122 362,-122 368,-122 374,-128 374,-134 374,-134 374,-146 374,-146 374,-152 368,-158 362,-158"/>
<text text-anchor="middle" x="187" y="-136.3" font-family="Arial" font-size="14.00">Understanding of ice melting due to sun (heating) into water</text>
</g>
<!-- n2&#45;&gt;n7 -->
<g id="edge6" class="edge">
<title>n2&#45;&gt;n7</title>
<path fill="none" stroke="black" d="M187,-243.81C187,-224.11 187,-191.58 187,-168.39"/>
<polygon fill="black" stroke="black" points="190.5,-168.16 187,-158.16 183.5,-168.16 190.5,-168.16"/>
</g>
<!-- n8 -->
<g id="node8" class="node">
<title>n8</title>
<path fill="palegreen" stroke="black" d="M815.5,-158C815.5,-158 486.5,-158 486.5,-158 480.5,-158 474.5,-152 474.5,-146 474.5,-146 474.5,-134 474.5,-134 474.5,-128 480.5,-122 486.5,-122 486.5,-122 815.5,-122 815.5,-122 821.5,-122 827.5,-128 827.5,-134 827.5,-134 827.5,-146 827.5,-146 827.5,-152 821.5,-158 815.5,-158"/>
<text text-anchor="middle" x="651" y="-136.3" font-family="Arial" font-size="14.00">Understanding of water turning back into ice (refreezing)</text>
</g>
<!-- n4&#45;&gt;n8 -->
<g id="edge7" class="edge">
<title>n4&#45;&gt;n8</title>
<path fill="none" stroke="black" d="M847.19,-243.81C806.55,-222.51 737.25,-186.2 692.83,-162.92"/>
<polygon fill="black" stroke="black" points="694.23,-159.7 683.75,-158.16 690.98,-165.9 694.23,-159.7"/>
</g>
<!-- n9 -->
<g id="node9" class="node">
<title>n9</title>
<polygon fill="lightcoral" stroke="black" points="1237,-158 885.76,-140 1237,-122 1588.24,-140 1237,-158"/>
<text text-anchor="middle" x="1237" y="-136.3" font-family="Arial" font-size="14.00">Misunderstanding: Arrows do not indicate direction of change</text>
</g>
<!-- n5&#45;&gt;n9 -->
<g id="edge8" class="edge">
<title>n5&#45;&gt;n9</title>
<path fill="none" stroke="black" d="M1237,-243.81C1237,-224.11 1237,-191.58 1237,-168.39"/>
<polygon fill="black" stroke="black" points="1240.5,-168.16 1237,-158.16 1233.5,-168.16 1240.5,-168.16"/>
</g>
<!-- n10 -->
<g id="node10" class="node">
<title>n10</title>
<polygon fill="lightcoral" stroke="black" points="2010,-158 1646,-140 2010,-122 2374,-140 2010,-158"/>
<text text-anchor="middle" x="2010" y="-136.3" font-family="Arial" font-size="14.00">Misunderstanding: Cooked egg cannot turn back into a raw egg</text>
</g>
<!-- n6&#45;&gt;n10 -->
<g id="edge9" class="edge">
<title>n6&#45;&gt;n10</title>
<path fill="none" stroke="black" d="M1827.5,-243.81C1866,-222.12 1932.2,-184.85 1973.4,-161.65"/>
<polygon fill="black" stroke="black" points="1975.25,-164.63 1982.2,-156.63 1971.78,-158.54 1975.25,-164.63"/>
</g>
<!-- n11 -->
<g id="node11" class="node">
<title>n11</title>
<polygon fill="#f28e8e" stroke="black" points="1503.5,-36 970.5,-36 970.5,0 1503.5,0 1503.5,-36"/>
<text text-anchor="middle" x="1237" y="-14.3" font-family="Arial" font-size="14.00">Clarify arrows to show direction and labels indicating change (e.g., melting, refreezing)</text>
</g>
<!-- n9&#45;&gt;n11 -->
<g id="edge10" class="edge">
<title>n9&#45;&gt;n11</title>
<path fill="none" stroke="black" d="M1237,-121.81C1237,-102.11 1237,-69.58 1237,-46.39"/>
<polygon fill="black" stroke="black" points="1240.5,-46.16 1237,-36.16 1233.5,-46.16 1240.5,-46.16"/>
</g>
<!-- n12 -->
<g id="node12" class="node">
<title>n12</title>
<polygon fill="#f28e8e" stroke="black" points="2277,-36 1743,-36 1743,0 2277,0 2277,-36"/>
<text text-anchor="middle" x="2010" y="-14.3" font-family="Arial" font-size="14.00">Explain reversible vs non&#45;reversible changes clearly, differentiate cooking from melting</text>
</g>
<!-- n10&#45;&gt;n12 -->
<g id="edge11" class="edge">
<title>n10&#45;&gt;n12</title>
<path fill="none" stroke="black" d="M2010,-121.81C2010,-102.11 2010,-69.58 2010,-46.39"/>
<polygon fill="black" stroke="black" points="2013.5,-46.16 2010,-36.16 2006.5,-46.16 2013.5,-46.16"/>
</g>
</g>
</svg>
