<?xml version="1.0" encoding="UTF-8" standalone="no"?>
<!DOCTYPE svg PUBLIC "-//W3C//DTD SVG 1.1//EN"
 "http://www.w3.org/Graphics/SVG/1.1/DTD/svg11.dtd">
<!-- Generated by graphviz version 2.43.0 (0)
 -->
<!-- Pages: 1 -->
<svg width="1497pt" height="410pt"
 viewBox="0.00 0.00 1497.00 410.00" xmlns="http://www.w3.org/2000/svg" xmlns:xlink="http://www.w3.org/1999/xlink">
<g id="graph0" class="graph" transform="scale(1 1) rotate(0) translate(4 406)">
<polygon fill="white" stroke="transparent" points="-4,4 -4,-406 1493,-406 1493,4 -4,4"/>
<!-- n1 -->
<g id="node1" class="node">
<title>n1</title>
<polygon fill="lightblue" stroke="black" points="559.5,-384 469.75,-402 290.25,-402 200.5,-384 290.25,-366 469.75,-366 559.5,-384"/>
<text text-anchor="middle" x="380" y="-380.3" font-family="Arial" font-size="14.00">Draw a fish in their habitat with labels</text>
</g>
<!-- n2 -->
<g id="node2" class="node">
<title>n2</title>
<polygon fill="#fffdd0" stroke="black" points="216,-280 34,-280 34,-244 216,-244 216,-280"/>
<text text-anchor="middle" x="125" y="-258.3" font-family="Arial" font-size="14.00">Fish with simple oval shape</text>
</g>
<!-- n1&#45;&gt;n2 -->
<g id="edge1" class="edge">
<title>n1&#45;&gt;n2</title>
<path fill="none" stroke="black" d="M343.74,-365.93C298.14,-344.48 219.84,-307.63 170.34,-284.33"/>
<polygon fill="black" stroke="black" points="171.68,-281.09 161.14,-280.01 168.7,-287.43 171.68,-281.09"/>
</g>
<!-- n3 -->
<g id="node3" class="node">
<title>n3</title>
<polygon fill="#fffdd0" stroke="black" points="460.5,-280 299.5,-280 299.5,-244 460.5,-244 460.5,-280"/>
<text text-anchor="middle" x="380" y="-258.3" font-family="Arial" font-size="14.00">Water labeled as &#39;water&#39;</text>
</g>
<!-- n1&#45;&gt;n3 -->
<g id="edge2" class="edge">
<title>n1&#45;&gt;n3</title>
<path fill="none" stroke="black" d="M380,-365.81C380,-346.11 380,-313.58 380,-290.39"/>
<polygon fill="black" stroke="black" points="383.5,-290.16 380,-280.16 376.5,-290.16 383.5,-290.16"/>
</g>
<!-- n4 -->
<g id="node4" class="node">
<title>n4</title>
<polygon fill="#fffdd0" stroke="black" points="882.5,-280 671.5,-280 671.5,-244 882.5,-244 882.5,-280"/>
<text text-anchor="middle" x="777" y="-258.3" font-family="Arial" font-size="14.00">Small circular dots labeled &#39;food&#39;</text>
</g>
<!-- n1&#45;&gt;n4 -->
<g id="edge3" class="edge">
<title>n1&#45;&gt;n4</title>
<path fill="none" stroke="black" d="M436.46,-365.93C508.78,-344.07 633.92,-306.25 710.7,-283.04"/>
<polygon fill="black" stroke="black" points="712.18,-286.25 720.74,-280.01 710.16,-279.55 712.18,-286.25"/>
</g>
<!-- n5 -->
<g id="node5" class="node">
<title>n5</title>
<path fill="palegreen" stroke="black" d="M188,-158C188,-158 12,-158 12,-158 6,-158 0,-152 0,-146 0,-146 0,-134 0,-134 0,-128 6,-122 12,-122 12,-122 188,-122 188,-122 194,-122 200,-128 200,-134 200,-134 200,-146 200,-146 200,-152 194,-158 188,-158"/>
<text text-anchor="middle" x="100" y="-136.3" font-family="Arial" font-size="14.00">Understands fish lives in water</text>
</g>
<!-- n2&#45;&gt;n5 -->
<g id="edge4" class="edge">
<title>n2&#45;&gt;n5</title>
<path fill="none" stroke="black" d="M121.42,-243.81C117.3,-224.02 110.48,-191.29 105.64,-168.08"/>
<polygon fill="black" stroke="black" points="109.04,-167.24 103.58,-158.16 102.19,-168.66 109.04,-167.24"/>
</g>
<!-- n6 -->
<g id="node6" class="node">
<title>n6</title>
<path fill="palegreen" stroke="black" d="M489.5,-158C489.5,-158 270.5,-158 270.5,-158 264.5,-158 258.5,-152 258.5,-146 258.5,-146 258.5,-134 258.5,-134 258.5,-128 264.5,-122 270.5,-122 270.5,-122 489.5,-122 489.5,-122 495.5,-122 501.5,-128 501.5,-134 501.5,-134 501.5,-146 501.5,-146 501.5,-152 495.5,-158 489.5,-158"/>
<text text-anchor="middle" x="380" y="-136.3" font-family="Arial" font-size="14.00">Recognizes water as the fish&#39;s habitat</text>
</g>
<!-- n3&#45;&gt;n6 -->
<g id="edge5" class="edge">
<title>n3&#45;&gt;n6</title>
<path fill="none" stroke="black" d="M380,-243.81C380,-224.11 380,-191.58 380,-168.39"/>
<polygon fill="black" stroke="black" points="383.5,-168.16 380,-158.16 376.5,-168.16 383.5,-168.16"/>
</g>
<!-- n7 -->
<g id="node7" class="node">
<title>n7</title>
<polygon fill="lightcoral" stroke="black" points="777,-158 559,-140 777,-122 995,-140 777,-158"/>
<text text-anchor="middle" x="777" y="-136.3" font-family="Arial" font-size="14.00">Incomplete depiction of food sources</text>
</g>
<!-- n4&#45;&gt;n7 -->
<g id="edge6" class="edge">
<title>n4&#45;&gt;n7</title>
<path fill="none" stroke="black" d="M777,-243.81C777,-224.11 777,-191.58 777,-168.39"/>
<polygon fill="black" stroke="black" points="780.5,-168.16 777,-158.16 773.5,-168.16 780.5,-168.16"/>
</g>
<!-- n9 -->
<g id="node8" class="node">
<title>n9</title>
<polygon fill="lightcoral" stroke="black" points="1271,-158 1053,-140 1271,-122 1489,-140 1271,-158"/>
<text text-anchor="middle" x="1271" y="-136.3" font-family="Arial" font-size="14.00">No depiction of ecosystem dynamics</text>
</g>
<!-- n4&#45;&gt;n9 -->
<g id="edge7" class="edge">
<title>n4&#45;&gt;n9</title>
<path fill="none" stroke="black" d="M846.99,-244C943.68,-220.51 1116.6,-178.5 1208.9,-156.08"/>
<polygon fill="black" stroke="black" points="1209.8,-159.46 1218.7,-153.71 1208.16,-152.66 1209.8,-159.46"/>
</g>
<!-- n8 -->
<g id="node9" class="node">
<title>n8</title>
<polygon fill="#f28e8e" stroke="black" points="939.5,-36 614.5,-36 614.5,0 939.5,0 939.5,-36"/>
<text text-anchor="middle" x="777" y="-14.3" font-family="Arial" font-size="14.00">Consider adding more elements like plants or rocks</text>
</g>
<!-- n7&#45;&gt;n8 -->
<g id="edge8" class="edge">
<title>n7&#45;&gt;n8</title>
<path fill="none" stroke="black" d="M777,-121.81C777,-102.11 777,-69.58 777,-46.39"/>
<polygon fill="black" stroke="black" points="780.5,-46.16 777,-36.16 773.5,-46.16 780.5,-46.16"/>
</g>
<!-- n10 -->
<g id="node10" class="node">
<title>n10</title>
<polygon fill="#f28e8e" stroke="black" points="1420.5,-36 1121.5,-36 1121.5,0 1420.5,0 1420.5,-36"/>
<text text-anchor="middle" x="1271" y="-14.3" font-family="Arial" font-size="14.00">Add details on how fish interacts with its habitat</text>
</g>
<!-- n9&#45;&gt;n10 -->
<g id="edge9" class="edge">
<title>n9&#45;&gt;n10</title>
<path fill="none" stroke="black" d="M1271,-121.81C1271,-102.11 1271,-69.58 1271,-46.39"/>
<polygon fill="black" stroke="black" points="1274.5,-46.16 1271,-36.16 1267.5,-46.16 1274.5,-46.16"/>
</g>
</g>
</svg>
