<?xml version="1.0" encoding="UTF-8" standalone="no"?>
<!DOCTYPE svg PUBLIC "-//W3C//DTD SVG 1.1//EN"
 "http://www.w3.org/Graphics/SVG/1.1/DTD/svg11.dtd">
<!-- Generated by graphviz version 2.43.0 (0)
 -->
<!-- Pages: 1 -->
<svg width="1404pt" height="410pt"
 viewBox="0.00 0.00 1403.50 410.00" xmlns="http://www.w3.org/2000/svg" xmlns:xlink="http://www.w3.org/1999/xlink">
<g id="graph0" class="graph" transform="scale(1 1) rotate(0) translate(4 406)">
<polygon fill="white" stroke="transparent" points="-4,4 -4,-406 1399.5,-406 1399.5,4 -4,4"/>
<!-- n1 -->
<g id="node1" class="node">
<title>n1</title>
<polygon fill="lightblue" stroke="black" points="1156.82,-384 1034.41,-402 789.59,-402 667.18,-384 789.59,-366 1034.41,-366 1156.82,-384"/>
<text text-anchor="middle" x="912" y="-380.3" font-family="Arial" font-size="14.00">Draw a habitat and the different living things in each</text>
</g>
<!-- n2 -->
<g id="node2" class="node">
<title>n2</title>
<polygon fill="#fffdd0" stroke="black" points="519.5,-280 254.5,-280 254.5,-244 519.5,-244 519.5,-280"/>
<text text-anchor="middle" x="387" y="-258.3" font-family="Arial" font-size="14.00">Land habitat with trees, bushes, fallen log</text>
</g>
<!-- n1&#45;&gt;n2 -->
<g id="edge1" class="edge">
<title>n1&#45;&gt;n2</title>
<path fill="none" stroke="black" d="M837.62,-366C740.98,-343.91 572.69,-305.44 471.38,-282.29"/>
<polygon fill="black" stroke="black" points="472.02,-278.85 461.49,-280.03 470.46,-285.67 472.02,-278.85"/>
</g>
<!-- n3 -->
<g id="node3" class="node">
<title>n3</title>
<polygon fill="#fffdd0" stroke="black" points="897,-280 643,-280 643,-244 897,-244 897,-280"/>
<text text-anchor="middle" x="770" y="-258.3" font-family="Arial" font-size="14.00">Water habitat with fish, clams, seaweed</text>
</g>
<!-- n1&#45;&gt;n3 -->
<g id="edge2" class="edge">
<title>n1&#45;&gt;n3</title>
<path fill="none" stroke="black" d="M891.65,-365.81C867.09,-345.04 825.63,-310.01 798.04,-286.7"/>
<polygon fill="black" stroke="black" points="800.2,-283.95 790.31,-280.16 795.68,-289.29 800.2,-283.95"/>
</g>
<!-- n4 -->
<g id="node4" class="node">
<title>n4</title>
<polygon fill="#fffdd0" stroke="black" points="1152.5,-280 955.5,-280 955.5,-244 1152.5,-244 1152.5,-280"/>
<text text-anchor="middle" x="1054" y="-258.3" font-family="Arial" font-size="14.00">Animals: lizards, squirrel, ants</text>
</g>
<!-- n1&#45;&gt;n4 -->
<g id="edge3" class="edge">
<title>n1&#45;&gt;n4</title>
<path fill="none" stroke="black" d="M932.35,-365.81C956.91,-345.04 998.37,-310.01 1026,-286.7"/>
<polygon fill="black" stroke="black" points="1028.34,-289.3 1033.7,-280.16 1023.81,-283.97 1028.34,-289.3"/>
</g>
<!-- n5 -->
<g id="node5" class="node">
<title>n5</title>
<polygon fill="#fffdd0" stroke="black" points="1395.5,-280 1210.5,-280 1210.5,-244 1395.5,-244 1395.5,-280"/>
<text text-anchor="middle" x="1303" y="-258.3" font-family="Arial" font-size="14.00">Animals: colorful fish, clams</text>
</g>
<!-- n1&#45;&gt;n5 -->
<g id="edge4" class="edge">
<title>n1&#45;&gt;n5</title>
<path fill="none" stroke="black" d="M967.61,-365.93C1038.8,-344.07 1162.1,-306.25 1237.7,-283.04"/>
<polygon fill="black" stroke="black" points="1239.06,-286.28 1247.6,-280.01 1237.01,-279.59 1239.06,-286.28"/>
</g>
<!-- n6 -->
<g id="node6" class="node">
<title>n6</title>
<path fill="palegreen" stroke="black" d="M414,-158C414,-158 228,-158 228,-158 222,-158 216,-152 216,-146 216,-146 216,-134 216,-134 216,-128 222,-122 228,-122 228,-122 414,-122 414,-122 420,-122 426,-128 426,-134 426,-134 426,-146 426,-146 426,-152 420,-158 414,-158"/>
<text text-anchor="middle" x="321" y="-136.3" font-family="Arial" font-size="14.00">Diversity of habitats and species</text>
</g>
<!-- n2&#45;&gt;n6 -->
<g id="edge5" class="edge">
<title>n2&#45;&gt;n6</title>
<path fill="none" stroke="black" d="M377.54,-243.81C366.52,-223.76 348.17,-190.4 335.38,-167.14"/>
<polygon fill="black" stroke="black" points="338.33,-165.23 330.44,-158.16 332.19,-168.61 338.33,-165.23"/>
</g>
<!-- n7 -->
<g id="node7" class="node">
<title>n7</title>
<path fill="palegreen" stroke="black" d="M146,-158C146,-158 12,-158 12,-158 6,-158 0,-152 0,-146 0,-146 0,-134 0,-134 0,-128 6,-122 12,-122 12,-122 146,-122 146,-122 152,-122 158,-128 158,-134 158,-134 158,-146 158,-146 158,-152 152,-158 146,-158"/>
<text text-anchor="middle" x="79" y="-136.3" font-family="Arial" font-size="14.00">Identified plant diversity</text>
</g>
<!-- n2&#45;&gt;n7 -->
<g id="edge6" class="edge">
<title>n2&#45;&gt;n7</title>
<path fill="none" stroke="black" d="M343.2,-243.93C287.66,-222.3 191.98,-185.02 132.27,-161.76"/>
<polygon fill="black" stroke="black" points="133.24,-158.38 122.65,-158.01 130.7,-164.9 133.24,-158.38"/>
</g>
<!-- n9 -->
<g id="node8" class="node">
<title>n9</title>
<polygon fill="lightcoral" stroke="black" points="821,-158 483.5,-140 821,-122 1158.5,-140 821,-158"/>
<text text-anchor="middle" x="821" y="-136.3" font-family="Arial" font-size="14.00">Difficulty in labeling specific names or distinguishing plants</text>
</g>
<!-- n2&#45;&gt;n9 -->
<g id="edge7" class="edge">
<title>n2&#45;&gt;n9</title>
<path fill="none" stroke="black" d="M448.72,-243.93C531.36,-221.08 677.11,-180.79 759.59,-157.98"/>
<polygon fill="black" stroke="black" points="760.62,-161.33 769.33,-155.29 758.76,-154.58 760.62,-161.33"/>
</g>
<!-- n3&#45;&gt;n6 -->
<g id="edge8" class="edge">
<title>n3&#45;&gt;n6</title>
<path fill="none" stroke="black" d="M706.15,-243.93C623.85,-221.94 481.08,-183.78 394.4,-160.62"/>
<polygon fill="black" stroke="black" points="395.19,-157.21 384.63,-158.01 393.39,-163.97 395.19,-157.21"/>
</g>
<!-- n3&#45;&gt;n9 -->
<g id="edge9" class="edge">
<title>n3&#45;&gt;n9</title>
<path fill="none" stroke="black" d="M777.31,-243.81C785.84,-223.73 800.04,-190.32 809.93,-167.06"/>
<polygon fill="black" stroke="black" points="813.19,-168.34 813.87,-157.77 806.74,-165.61 813.19,-168.34"/>
</g>
<!-- n8 -->
<g id="node9" class="node">
<title>n8</title>
<path fill="palegreen" stroke="black" d="M1377.5,-158C1377.5,-158 1228.5,-158 1228.5,-158 1222.5,-158 1216.5,-152 1216.5,-146 1216.5,-146 1216.5,-134 1216.5,-134 1216.5,-128 1222.5,-122 1228.5,-122 1228.5,-122 1377.5,-122 1377.5,-122 1383.5,-122 1389.5,-128 1389.5,-134 1389.5,-134 1389.5,-146 1389.5,-146 1389.5,-152 1383.5,-158 1377.5,-158"/>
<text text-anchor="middle" x="1303" y="-136.3" font-family="Arial" font-size="14.00">Illustrated animal diversity</text>
</g>
<!-- n3&#45;&gt;n8 -->
<g id="edge10" class="edge">
<title>n3&#45;&gt;n8</title>
<path fill="none" stroke="black" d="M845.52,-244C943.63,-221.91 1114.5,-183.44 1217.3,-160.29"/>
<polygon fill="black" stroke="black" points="1218.41,-163.63 1227.4,-158.03 1216.88,-156.8 1218.41,-163.63"/>
</g>
<!-- n4&#45;&gt;n9 -->
<g id="edge11" class="edge">
<title>n4&#45;&gt;n9</title>
<path fill="none" stroke="black" d="M1020.6,-243.81C978.21,-221.97 905.14,-184.33 860.15,-161.16"/>
<polygon fill="black" stroke="black" points="861.48,-157.91 850.99,-156.45 858.28,-164.14 861.48,-157.91"/>
</g>
<!-- n4&#45;&gt;n8 -->
<g id="edge12" class="edge">
<title>n4&#45;&gt;n8</title>
<path fill="none" stroke="black" d="M1089.4,-243.93C1133.8,-222.52 1210.1,-185.78 1258.4,-162.48"/>
<polygon fill="black" stroke="black" points="1260.2,-165.5 1267.7,-158.01 1257.17,-159.19 1260.2,-165.5"/>
</g>
<!-- n5&#45;&gt;n8 -->
<g id="edge13" class="edge">
<title>n5&#45;&gt;n8</title>
<path fill="none" stroke="black" d="M1303,-243.81C1303,-224.11 1303,-191.58 1303,-168.39"/>
<polygon fill="black" stroke="black" points="1306.5,-168.16 1303,-158.16 1299.5,-168.16 1306.5,-168.16"/>
</g>
<!-- n10 -->
<g id="node10" class="node">
<title>n10</title>
<polygon fill="#f28e8e" stroke="black" points="1000.5,-36 641.5,-36 641.5,0 1000.5,0 1000.5,-36"/>
<text text-anchor="middle" x="821" y="-14.3" font-family="Arial" font-size="14.00">Practice identifying and labeling plant and animal species</text>
</g>
<!-- n9&#45;&gt;n10 -->
<g id="edge14" class="edge">
<title>n9&#45;&gt;n10</title>
<path fill="none" stroke="black" d="M821,-121.81C821,-102.11 821,-69.58 821,-46.39"/>
<polygon fill="black" stroke="black" points="824.5,-46.16 821,-36.16 817.5,-46.16 824.5,-46.16"/>
</g>
</g>
</svg>
