<?xml version="1.0" encoding="UTF-8" standalone="no"?>
<!DOCTYPE svg PUBLIC "-//W3C//DTD SVG 1.1//EN"
 "http://www.w3.org/Graphics/SVG/1.1/DTD/svg11.dtd">
<!-- Generated by graphviz version 2.43.0 (0)
 -->
<!-- Pages: 1 -->
<svg width="1451pt" height="288pt"
 viewBox="0.00 0.00 1450.50 288.00" xmlns="http://www.w3.org/2000/svg" xmlns:xlink="http://www.w3.org/1999/xlink">
<g id="graph0" class="graph" transform="scale(1 1) rotate(0) translate(4 284)">
<polygon fill="white" stroke="transparent" points="-4,4 -4,-284 1446.5,-284 1446.5,4 -4,4"/>
<!-- n1 -->
<g id="node1" class="node">
<title>n1</title>
<polygon fill="lightblue" stroke="black" points="893,-262 801.75,-280 619.25,-280 528,-262 619.25,-244 801.75,-244 893,-262"/>
<text text-anchor="middle" x="710.5" y="-258.3" font-family="Arial" font-size="14.00">Draw a fish in their habitat with labels.</text>
</g>
<!-- n2 -->
<g id="node2" class="node">
<title>n2</title>
<polygon fill="#fffdd0" stroke="black" points="575.5,-158 289.5,-158 289.5,-122 575.5,-122 575.5,-158"/>
<text text-anchor="middle" x="432.5" y="-136.3" font-family="Arial" font-size="14.00">Fish with big eyes outlined in blue and yellow</text>
</g>
<!-- n1&#45;&gt;n2 -->
<g id="edge1" class="edge">
<title>n1&#45;&gt;n2</title>
<path fill="none" stroke="black" d="M670.96,-243.93C621.05,-222.39 535.19,-185.32 481.25,-162.04"/>
<polygon fill="black" stroke="black" points="482.47,-158.75 471.9,-158.01 479.7,-165.18 482.47,-158.75"/>
</g>
<!-- n3 -->
<g id="node3" class="node">
<title>n3</title>
<polygon fill="#fffdd0" stroke="black" points="231,-158 0,-158 0,-122 231,-122 231,-158"/>
<text text-anchor="middle" x="115.5" y="-136.3" font-family="Arial" font-size="14.00">Light blue wavy lines labeled &#39;water&#39;</text>
</g>
<!-- n1&#45;&gt;n3 -->
<g id="edge2" class="edge">
<title>n1&#45;&gt;n3</title>
<path fill="none" stroke="black" d="M626.2,-244C516.24,-221.82 324.4,-183.13 209.75,-160.01"/>
<polygon fill="black" stroke="black" points="210.41,-156.57 199.92,-158.03 209.03,-163.44 210.41,-156.57"/>
</g>
<!-- n4 -->
<g id="node4" class="node">
<title>n4</title>
<polygon fill="#fffdd0" stroke="black" points="1357.5,-158 1125.5,-158 1125.5,-122 1357.5,-122 1357.5,-158"/>
<text text-anchor="middle" x="1241.5" y="-136.3" font-family="Arial" font-size="14.00">Green wavy lines labeled &#39;seaweed&#39;</text>
</g>
<!-- n1&#45;&gt;n4 -->
<g id="edge3" class="edge">
<title>n1&#45;&gt;n4</title>
<path fill="none" stroke="black" d="M785.73,-244C883.47,-221.91 1053.7,-183.44 1156.2,-160.29"/>
<polygon fill="black" stroke="black" points="1157.22,-163.65 1166.2,-158.03 1155.67,-156.82 1157.22,-163.65"/>
</g>
<!-- n5 -->
<g id="node5" class="node">
<title>n5</title>
<polygon fill="#fffdd0" stroke="black" points="787.5,-158 633.5,-158 633.5,-122 787.5,-122 787.5,-158"/>
<text text-anchor="middle" x="710.5" y="-136.3" font-family="Arial" font-size="14.00">Small fish labeled &#39;fish&#39;</text>
</g>
<!-- n1&#45;&gt;n5 -->
<g id="edge4" class="edge">
<title>n1&#45;&gt;n5</title>
<path fill="none" stroke="black" d="M710.5,-243.81C710.5,-224.11 710.5,-191.58 710.5,-168.39"/>
<polygon fill="black" stroke="black" points="714,-168.16 710.5,-158.16 707,-168.16 714,-168.16"/>
</g>
<!-- n6 -->
<g id="node6" class="node">
<title>n6</title>
<polygon fill="#fffdd0" stroke="black" points="1067.5,-158 845.5,-158 845.5,-122 1067.5,-122 1067.5,-158"/>
<text text-anchor="middle" x="956.5" y="-136.3" font-family="Arial" font-size="14.00">Grey snail on a rock labeled &#39;snail&#39;</text>
</g>
<!-- n1&#45;&gt;n6 -->
<g id="edge5" class="edge">
<title>n1&#45;&gt;n6</title>
<path fill="none" stroke="black" d="M745.48,-243.93C789.38,-222.52 864.69,-185.78 912.47,-162.48"/>
<polygon fill="black" stroke="black" points="914.18,-165.54 921.64,-158.01 911.12,-159.25 914.18,-165.54"/>
</g>
<!-- n7 -->
<g id="node7" class="node">
<title>n7</title>
<path fill="palegreen" stroke="black" d="M315,-36C315,-36 234,-36 234,-36 228,-36 222,-30 222,-24 222,-24 222,-12 222,-12 222,-6 228,0 234,0 234,0 315,0 315,0 321,0 327,-6 327,-12 327,-12 327,-24 327,-24 327,-30 321,-36 315,-36"/>
<text text-anchor="middle" x="274.5" y="-14.3" font-family="Arial" font-size="14.00">Fish and water</text>
</g>
<!-- n2&#45;&gt;n7 -->
<g id="edge6" class="edge">
<title>n2&#45;&gt;n7</title>
<path fill="none" stroke="black" d="M409.86,-121.81C382.41,-100.96 336,-65.71 305.31,-42.4"/>
<polygon fill="black" stroke="black" points="307.18,-39.42 297.1,-36.16 302.95,-45 307.18,-39.42"/>
</g>
<!-- n9 -->
<g id="node8" class="node">
<title>n9</title>
<path fill="palegreen" stroke="black" d="M775.5,-36C775.5,-36 645.5,-36 645.5,-36 639.5,-36 633.5,-30 633.5,-24 633.5,-24 633.5,-12 633.5,-12 633.5,-6 639.5,0 645.5,0 645.5,0 775.5,0 775.5,0 781.5,0 787.5,-6 787.5,-12 787.5,-12 787.5,-24 787.5,-24 787.5,-30 781.5,-36 775.5,-36"/>
<text text-anchor="middle" x="710.5" y="-14.3" font-family="Arial" font-size="14.00">Fish and other animals</text>
</g>
<!-- n2&#45;&gt;n9 -->
<g id="edge7" class="edge">
<title>n2&#45;&gt;n9</title>
<path fill="none" stroke="black" d="M472.04,-121.93C521.95,-100.39 607.81,-63.33 661.75,-40.05"/>
<polygon fill="black" stroke="black" points="663.31,-43.18 671.1,-36.01 660.53,-36.76 663.31,-43.18"/>
</g>
<!-- n3&#45;&gt;n7 -->
<g id="edge8" class="edge">
<title>n3&#45;&gt;n7</title>
<path fill="none" stroke="black" d="M138.28,-121.81C165.91,-100.96 212.61,-65.71 243.5,-42.4"/>
<polygon fill="black" stroke="black" points="245.89,-44.98 251.76,-36.16 241.67,-39.39 245.89,-44.98"/>
</g>
<!-- n8 -->
<g id="node9" class="node">
<title>n8</title>
<polygon fill="lightcoral" stroke="black" points="1116.5,-36 1000.5,-18 1116.5,0 1232.5,-18 1116.5,-36"/>
<text text-anchor="middle" x="1116.5" y="-14.3" font-family="Arial" font-size="14.00">Fish and seaweed</text>
</g>
<!-- n4&#45;&gt;n8 -->
<g id="edge9" class="edge">
<title>n4&#45;&gt;n8</title>
<path fill="none" stroke="black" d="M1223.6,-121.81C1201.4,-100.52 1163.6,-64.24 1139.4,-40.96"/>
<polygon fill="black" stroke="black" points="1141.65,-38.27 1132,-33.89 1136.82,-43.33 1141.65,-38.27"/>
</g>
<!-- n10 -->
<g id="node10" class="node">
<title>n10</title>
<polygon fill="#f28e8e" stroke="black" points="1442.5,-36 1290.5,-36 1290.5,0 1442.5,0 1442.5,-36"/>
<text text-anchor="middle" x="1366.5" y="-14.3" font-family="Arial" font-size="14.00">Label plants as shelter</text>
</g>
<!-- n4&#45;&gt;n10 -->
<g id="edge10" class="edge">
<title>n4&#45;&gt;n10</title>
<path fill="none" stroke="black" d="M1259.4,-121.81C1280.9,-101.22 1316.9,-66.61 1341.2,-43.3"/>
<polygon fill="black" stroke="black" points="1343.83,-45.62 1348.6,-36.16 1338.97,-40.59 1343.83,-45.62"/>
</g>
<!-- n5&#45;&gt;n9 -->
<g id="edge11" class="edge">
<title>n5&#45;&gt;n9</title>
<path fill="none" stroke="black" d="M710.5,-121.81C710.5,-102.11 710.5,-69.58 710.5,-46.39"/>
<polygon fill="black" stroke="black" points="714,-46.16 710.5,-36.16 707,-46.16 714,-46.16"/>
</g>
<!-- n6&#45;&gt;n9 -->
<g id="edge12" class="edge">
<title>n6&#45;&gt;n9</title>
<path fill="none" stroke="black" d="M921.52,-121.93C877.62,-100.52 802.31,-63.78 754.53,-40.48"/>
<polygon fill="black" stroke="black" points="755.88,-37.25 745.36,-36.01 752.81,-43.54 755.88,-37.25"/>
</g>
</g>
</svg>
