<?xml version="1.0" encoding="UTF-8" standalone="no"?>
<!DOCTYPE svg PUBLIC "-//W3C//DTD SVG 1.1//EN"
 "http://www.w3.org/Graphics/SVG/1.1/DTD/svg11.dtd">
<!-- Generated by graphviz version 2.43.0 (0)
 -->
<!-- Pages: 1 -->
<svg width="1703pt" height="410pt"
 viewBox="0.00 0.00 1702.50 410.00" xmlns="http://www.w3.org/2000/svg" xmlns:xlink="http://www.w3.org/1999/xlink">
<g id="graph0" class="graph" transform="scale(1 1) rotate(0) translate(4 406)">
<polygon fill="white" stroke="transparent" points="-4,4 -4,-406 1698.5,-406 1698.5,4 -4,4"/>
<!-- n1 -->
<g id="node1" class="node">
<title>n1</title>
<polygon fill="lightblue" stroke="black" points="1158,-384 1066.75,-402 884.25,-402 793,-384 884.25,-366 1066.75,-366 1158,-384"/>
<text text-anchor="middle" x="975.5" y="-380.3" font-family="Arial" font-size="14.00">Draw a fish in their habitat with labels.</text>
</g>
<!-- n2 -->
<g id="node2" class="node">
<title>n2</title>
<polygon fill="#fffdd0" stroke="black" points="439.5,-280 311.5,-280 311.5,-244 439.5,-244 439.5,-280"/>
<text text-anchor="middle" x="375.5" y="-258.3" font-family="Arial" font-size="14.00">A fish labeled &#39;fish&#39;</text>
</g>
<!-- n1&#45;&gt;n2 -->
<g id="edge1" class="edge">
<title>n1&#45;&gt;n2</title>
<path fill="none" stroke="black" d="M890.49,-366C772.65,-342.43 561.59,-300.22 449.76,-277.85"/>
<polygon fill="black" stroke="black" points="450.4,-274.41 439.91,-275.88 449.03,-281.27 450.4,-274.41"/>
</g>
<!-- n3 -->
<g id="node3" class="node">
<title>n3</title>
<polygon fill="#fffdd0" stroke="black" points="952,-280 747,-280 747,-244 952,-244 952,-280"/>
<text text-anchor="middle" x="849.5" y="-258.3" font-family="Arial" font-size="14.00">Clear blue water labeled &#39;water&#39;</text>
</g>
<!-- n1&#45;&gt;n3 -->
<g id="edge2" class="edge">
<title>n1&#45;&gt;n3</title>
<path fill="none" stroke="black" d="M957.45,-365.81C935.83,-345.22 899.49,-310.61 875.02,-287.3"/>
<polygon fill="black" stroke="black" points="877.18,-284.52 867.52,-280.16 872.35,-289.59 877.18,-284.52"/>
</g>
<!-- n4 -->
<g id="node4" class="node">
<title>n4</title>
<polygon fill="#fffdd0" stroke="black" points="1301.5,-280 1117.5,-280 1117.5,-244 1301.5,-244 1301.5,-280"/>
<text text-anchor="middle" x="1209.5" y="-258.3" font-family="Arial" font-size="14.00">Seaweed labeled &#39;seaweed&#39;</text>
</g>
<!-- n1&#45;&gt;n4 -->
<g id="edge3" class="edge">
<title>n1&#45;&gt;n4</title>
<path fill="none" stroke="black" d="M1009,-365.81C1050.6,-344.47 1121.7,-308.05 1167,-284.77"/>
<polygon fill="black" stroke="black" points="1168.7,-287.83 1176,-280.16 1165.5,-281.6 1168.7,-287.83"/>
</g>
<!-- n5 -->
<g id="node5" class="node">
<title>n5</title>
<polygon fill="#fffdd0" stroke="black" points="1601,-280 1432,-280 1432,-244 1601,-244 1601,-280"/>
<text text-anchor="middle" x="1516.5" y="-258.3" font-family="Arial" font-size="14.00">Sunlight labeled &#39;sunlight&#39;</text>
</g>
<!-- n1&#45;&gt;n5 -->
<g id="edge4" class="edge">
<title>n1&#45;&gt;n5</title>
<path fill="none" stroke="black" d="M1052.2,-366C1151.8,-343.89 1325.5,-305.37 1429.9,-282.22"/>
<polygon fill="black" stroke="black" points="1430.7,-285.63 1439.7,-280.03 1429.18,-278.8 1430.7,-285.63"/>
</g>
<!-- n6 -->
<g id="node6" class="node">
<title>n6</title>
<path fill="palegreen" stroke="black" d="M239,-158C239,-158 12,-158 12,-158 6,-158 0,-152 0,-146 0,-146 0,-134 0,-134 0,-128 6,-122 12,-122 12,-122 239,-122 239,-122 245,-122 251,-128 251,-134 251,-134 251,-146 251,-146 251,-152 245,-158 239,-158"/>
<text text-anchor="middle" x="125.5" y="-136.3" font-family="Arial" font-size="14.00">Fish as part of the aquatic environment</text>
</g>
<!-- n2&#45;&gt;n6 -->
<g id="edge5" class="edge">
<title>n2&#45;&gt;n6</title>
<path fill="none" stroke="black" d="M339.95,-243.93C295.24,-222.48 218.48,-185.63 169.95,-162.33"/>
<polygon fill="black" stroke="black" points="171.46,-159.17 160.93,-158.01 168.44,-165.49 171.46,-159.17"/>
</g>
<!-- n7 -->
<g id="node7" class="node">
<title>n7</title>
<path fill="palegreen" stroke="black" d="M479.5,-158C479.5,-158 321.5,-158 321.5,-158 315.5,-158 309.5,-152 309.5,-146 309.5,-146 309.5,-134 309.5,-134 309.5,-128 315.5,-122 321.5,-122 321.5,-122 479.5,-122 479.5,-122 485.5,-122 491.5,-128 491.5,-134 491.5,-134 491.5,-146 491.5,-146 491.5,-152 485.5,-158 479.5,-158"/>
<text text-anchor="middle" x="400.5" y="-136.3" font-family="Arial" font-size="14.00">Water as a resource for fish</text>
</g>
<!-- n3&#45;&gt;n7 -->
<g id="edge6" class="edge">
<title>n3&#45;&gt;n7</title>
<path fill="none" stroke="black" d="M785.65,-243.93C703.35,-221.94 560.58,-183.78 473.9,-160.62"/>
<polygon fill="black" stroke="black" points="474.69,-157.21 464.13,-158.01 472.89,-163.97 474.69,-157.21"/>
</g>
<!-- n10 -->
<g id="node8" class="node">
<title>n10</title>
<polygon fill="lightcoral" stroke="black" points="849.5,-158 549.71,-140 849.5,-122 1149.29,-140 849.5,-158"/>
<text text-anchor="middle" x="849.5" y="-136.3" font-family="Arial" font-size="14.00">Omission of specific plant species and rock labeling</text>
</g>
<!-- n3&#45;&gt;n10 -->
<g id="edge7" class="edge">
<title>n3&#45;&gt;n10</title>
<path fill="none" stroke="black" d="M849.5,-243.81C849.5,-224.11 849.5,-191.58 849.5,-168.39"/>
<polygon fill="black" stroke="black" points="853,-168.16 849.5,-158.16 846,-168.16 853,-168.16"/>
</g>
<!-- n8 -->
<g id="node9" class="node">
<title>n8</title>
<path fill="palegreen" stroke="black" d="M1414,-158C1414,-158 1219,-158 1219,-158 1213,-158 1207,-152 1207,-146 1207,-146 1207,-134 1207,-134 1207,-128 1213,-122 1219,-122 1219,-122 1414,-122 1414,-122 1420,-122 1426,-128 1426,-134 1426,-134 1426,-146 1426,-146 1426,-152 1420,-158 1414,-158"/>
<text text-anchor="middle" x="1316.5" y="-136.3" font-family="Arial" font-size="14.00">Plants like seaweed in fish habitat</text>
</g>
<!-- n4&#45;&gt;n8 -->
<g id="edge8" class="edge">
<title>n4&#45;&gt;n8</title>
<path fill="none" stroke="black" d="M1224.8,-243.81C1243,-223.4 1273.5,-189.21 1294.3,-165.91"/>
<polygon fill="black" stroke="black" points="1297.16,-167.96 1301.2,-158.16 1291.94,-163.3 1297.16,-167.96"/>
</g>
<!-- n9 -->
<g id="node10" class="node">
<title>n9</title>
<path fill="palegreen" stroke="black" d="M1682.5,-158C1682.5,-158 1496.5,-158 1496.5,-158 1490.5,-158 1484.5,-152 1484.5,-146 1484.5,-146 1484.5,-134 1484.5,-134 1484.5,-128 1490.5,-122 1496.5,-122 1496.5,-122 1682.5,-122 1682.5,-122 1688.5,-122 1694.5,-128 1694.5,-134 1694.5,-134 1694.5,-146 1694.5,-146 1694.5,-152 1688.5,-158 1682.5,-158"/>
<text text-anchor="middle" x="1589.5" y="-136.3" font-family="Arial" font-size="14.00">Sunlight as a resource for plants</text>
</g>
<!-- n5&#45;&gt;n9 -->
<g id="edge9" class="edge">
<title>n5&#45;&gt;n9</title>
<path fill="none" stroke="black" d="M1527,-243.81C1539.2,-223.67 1559.6,-190.1 1573.8,-166.83"/>
<polygon fill="black" stroke="black" points="1576.87,-168.52 1579.1,-158.16 1570.9,-164.87 1576.87,-168.52"/>
</g>
<!-- n11 -->
<g id="node11" class="node">
<title>n11</title>
<polygon fill="#f28e8e" stroke="black" points="1012.5,-36 686.5,-36 686.5,0 1012.5,0 1012.5,-36"/>
<text text-anchor="middle" x="849.5" y="-14.3" font-family="Arial" font-size="14.00">Consider labeling specific types of plants and rocks.</text>
</g>
<!-- n10&#45;&gt;n11 -->
<g id="edge10" class="edge">
<title>n10&#45;&gt;n11</title>
<path fill="none" stroke="black" d="M849.5,-121.81C849.5,-102.11 849.5,-69.58 849.5,-46.39"/>
<polygon fill="black" stroke="black" points="853,-46.16 849.5,-36.16 846,-46.16 853,-46.16"/>
</g>
</g>
</svg>
