<?xml version="1.0" encoding="UTF-8" standalone="no"?>
<!DOCTYPE svg PUBLIC "-//W3C//DTD SVG 1.1//EN"
 "http://www.w3.org/Graphics/SVG/1.1/DTD/svg11.dtd">
<!-- Generated by graphviz version 2.43.0 (0)
 -->
<!-- Pages: 1 -->
<svg width="2825pt" height="410pt"
 viewBox="0.00 0.00 2824.50 410.00" xmlns="http://www.w3.org/2000/svg" xmlns:xlink="http://www.w3.org/1999/xlink">
<g id="graph0" class="graph" transform="scale(1 1) rotate(0) translate(4 406)">
<polygon fill="white" stroke="transparent" points="-4,4 -4,-406 2820.5,-406 2820.5,4 -4,4"/>
<!-- n1 -->
<g id="node1" class="node">
<title>n1</title>
<polygon fill="lightblue" stroke="black" points="1641.74,-384 1548.62,-402 1362.38,-402 1269.26,-384 1362.38,-366 1548.62,-366 1641.74,-384"/>
<text text-anchor="middle" x="1455.5" y="-380.3" font-family="Arial" font-size="14.00">Illustrate plants with and without water.</text>
</g>
<!-- n2 -->
<g id="node2" class="node">
<title>n2</title>
<polygon fill="#fffdd0" stroke="black" points="1254,-280 905,-280 905,-244 1254,-244 1254,-280"/>
<text text-anchor="middle" x="1079.5" y="-258.3" font-family="Arial" font-size="14.00">Potted plant with a few green leaves and upright stems.</text>
</g>
<!-- n1&#45;&gt;n2 -->
<g id="edge1" class="edge">
<title>n1&#45;&gt;n2</title>
<path fill="none" stroke="black" d="M1402,-365.93C1333.7,-344.12 1215.5,-306.4 1142.7,-283.18"/>
<polygon fill="black" stroke="black" points="1143.39,-279.73 1132.8,-280.01 1141.26,-286.39 1143.39,-279.73"/>
</g>
<!-- n3 -->
<g id="node3" class="node">
<title>n3</title>
<polygon fill="#fffdd0" stroke="black" points="2001.5,-280 1663.5,-280 1663.5,-244 2001.5,-244 2001.5,-280"/>
<text text-anchor="middle" x="1832.5" y="-258.3" font-family="Arial" font-size="14.00">Potted plant with droopy stems and dull green leaves.</text>
</g>
<!-- n1&#45;&gt;n3 -->
<g id="edge2" class="edge">
<title>n1&#45;&gt;n3</title>
<path fill="none" stroke="black" d="M1509.1,-365.93C1577.8,-344.07 1696.6,-306.25 1769.5,-283.04"/>
<polygon fill="black" stroke="black" points="1770.62,-286.36 1779.1,-280.01 1768.51,-279.68 1770.62,-286.36"/>
</g>
<!-- n4 -->
<g id="node4" class="node">
<title>n4</title>
<path fill="palegreen" stroke="black" d="M509,-158C509,-158 12,-158 12,-158 6,-158 0,-152 0,-146 0,-146 0,-134 0,-134 0,-128 6,-122 12,-122 12,-122 509,-122 509,-122 515,-122 521,-128 521,-134 521,-134 521,-146 521,-146 521,-152 515,-158 509,-158"/>
<text text-anchor="middle" x="260.5" y="-136.3" font-family="Arial" font-size="14.00">Understands that water contributes to plants having green leaves and upright stems.</text>
</g>
<!-- n2&#45;&gt;n4 -->
<g id="edge3" class="edge">
<title>n2&#45;&gt;n4</title>
<path fill="none" stroke="black" d="M963.46,-244C811.04,-221.66 544.33,-182.59 386.91,-159.52"/>
<polygon fill="black" stroke="black" points="387.11,-156.01 376.71,-158.03 386.1,-162.94 387.11,-156.01"/>
</g>
<!-- n6 -->
<g id="node5" class="node">
<title>n6</title>
<polygon fill="lightcoral" stroke="black" points="1079.5,-158 578.5,-140 1079.5,-122 1580.5,-140 1079.5,-158"/>
<text text-anchor="middle" x="1079.5" y="-136.3" font-family="Arial" font-size="14.00">Did not illustrate complete signs of healthy growth such as flowers or fully vibrant leaves.</text>
</g>
<!-- n2&#45;&gt;n6 -->
<g id="edge4" class="edge">
<title>n2&#45;&gt;n6</title>
<path fill="none" stroke="black" d="M1079.5,-243.81C1079.5,-224.11 1079.5,-191.58 1079.5,-168.39"/>
<polygon fill="black" stroke="black" points="1083,-168.16 1079.5,-158.16 1076,-168.16 1083,-168.16"/>
</g>
<!-- n5 -->
<g id="node6" class="node">
<title>n5</title>
<path fill="palegreen" stroke="black" d="M2015,-158C2015,-158 1650,-158 1650,-158 1644,-158 1638,-152 1638,-146 1638,-146 1638,-134 1638,-134 1638,-128 1644,-122 1650,-122 1650,-122 2015,-122 2015,-122 2021,-122 2027,-128 2027,-134 2027,-134 2027,-146 2027,-146 2027,-152 2021,-158 2015,-158"/>
<text text-anchor="middle" x="1832.5" y="-136.3" font-family="Arial" font-size="14.00">Understands that lack of water leads to wilting and dull leaves.</text>
</g>
<!-- n3&#45;&gt;n5 -->
<g id="edge5" class="edge">
<title>n3&#45;&gt;n5</title>
<path fill="none" stroke="black" d="M1832.5,-243.81C1832.5,-224.11 1832.5,-191.58 1832.5,-168.39"/>
<polygon fill="black" stroke="black" points="1836,-168.16 1832.5,-158.16 1829,-168.16 1836,-168.16"/>
</g>
<!-- n8 -->
<g id="node7" class="node">
<title>n8</title>
<polygon fill="lightcoral" stroke="black" points="2423.5,-158 2085,-140 2423.5,-122 2762,-140 2423.5,-158"/>
<text text-anchor="middle" x="2423.5" y="-136.3" font-family="Arial" font-size="14.00">Did not illustrate brown spots or specific dehydration signs.</text>
</g>
<!-- n3&#45;&gt;n8 -->
<g id="edge6" class="edge">
<title>n3&#45;&gt;n8</title>
<path fill="none" stroke="black" d="M1916.2,-244C2031.1,-220.67 2235.9,-179.09 2346.9,-156.55"/>
<polygon fill="black" stroke="black" points="2347.9,-159.92 2357,-154.5 2346.5,-153.06 2347.9,-159.92"/>
</g>
<!-- n7 -->
<g id="node8" class="node">
<title>n7</title>
<polygon fill="#f28e8e" stroke="black" points="1427,-36 732,-36 732,0 1427,0 1427,-36"/>
<text text-anchor="middle" x="1079.5" y="-14.3" font-family="Arial" font-size="14.00">Feedback: Consider adding more signs of healthy growth, like flowers or vibrant leaves, to the drawing with water.</text>
</g>
<!-- n6&#45;&gt;n7 -->
<g id="edge7" class="edge">
<title>n6&#45;&gt;n7</title>
<path fill="none" stroke="black" d="M1079.5,-121.81C1079.5,-102.11 1079.5,-69.58 1079.5,-46.39"/>
<polygon fill="black" stroke="black" points="1083,-46.16 1079.5,-36.16 1076,-46.16 1083,-46.16"/>
</g>
<!-- n9 -->
<g id="node9" class="node">
<title>n9</title>
<polygon fill="#f28e8e" stroke="black" points="2816.5,-36 2030.5,-36 2030.5,0 2816.5,0 2816.5,-36"/>
<text text-anchor="middle" x="2423.5" y="-14.3" font-family="Arial" font-size="14.00">Feedback: Include signs of dehydration, such as brown spots, to show more detailed understanding of plant health without water.</text>
</g>
<!-- n8&#45;&gt;n9 -->
<g id="edge8" class="edge">
<title>n8&#45;&gt;n9</title>
<path fill="none" stroke="black" d="M2423.5,-121.81C2423.5,-102.11 2423.5,-69.58 2423.5,-46.39"/>
<polygon fill="black" stroke="black" points="2427,-46.16 2423.5,-36.16 2420,-46.16 2427,-46.16"/>
</g>
</g>
</svg>
