<?xml version="1.0" encoding="UTF-8" standalone="no"?>
<!DOCTYPE svg PUBLIC "-//W3C//DTD SVG 1.1//EN"
 "http://www.w3.org/Graphics/SVG/1.1/DTD/svg11.dtd">
<!-- Generated by graphviz version 2.43.0 (0)
 -->
<!-- Pages: 1 -->
<svg width="1632pt" height="410pt"
 viewBox="0.00 0.00 1631.50 410.00" xmlns="http://www.w3.org/2000/svg" xmlns:xlink="http://www.w3.org/1999/xlink">
<g id="graph0" class="graph" transform="scale(1 1) rotate(0) translate(4 406)">
<polygon fill="white" stroke="transparent" points="-4,4 -4,-406 1627.5,-406 1627.5,4 -4,4"/>
<!-- n1 -->
<g id="node1" class="node">
<title>n1</title>
<polygon fill="lightblue" stroke="black" points="1205.37,-384 1062.69,-402 777.31,-402 634.63,-384 777.31,-366 1062.69,-366 1205.37,-384"/>
<text text-anchor="middle" x="920" y="-380.3" font-family="Arial" font-size="14.00">Draw animals in their habitats with labels (e.g., fish in water).</text>
</g>
<!-- n2 -->
<g id="node2" class="node">
<title>n2</title>
<polygon fill="#fffdd0" stroke="black" points="312,-280 132,-280 132,-244 312,-244 312,-280"/>
<text text-anchor="middle" x="222" y="-258.3" font-family="Arial" font-size="14.00">Fish in pond labeled &#39;water&#39;</text>
</g>
<!-- n1&#45;&gt;n2 -->
<g id="edge1" class="edge">
<title>n1&#45;&gt;n2</title>
<path fill="none" stroke="black" d="M821.1,-366C688.79,-343.25 455.42,-303.13 322.36,-280.25"/>
<polygon fill="black" stroke="black" points="322.62,-276.74 312.17,-278.5 321.43,-283.64 322.62,-276.74"/>
</g>
<!-- n3 -->
<g id="node3" class="node">
<title>n3</title>
<polygon fill="#fffdd0" stroke="black" points="684.5,-280 439.5,-280 439.5,-244 684.5,-244 684.5,-280"/>
<text text-anchor="middle" x="562" y="-258.3" font-family="Arial" font-size="14.00">Bird on tree labeled &#39;tree&#39;, missing &#39;air&#39;</text>
</g>
<!-- n1&#45;&gt;n3 -->
<g id="edge2" class="edge">
<title>n1&#45;&gt;n3</title>
<path fill="none" stroke="black" d="M869.09,-365.93C804.14,-344.16 691.94,-306.56 622.64,-283.33"/>
<polygon fill="black" stroke="black" points="623.33,-279.87 612.74,-280.01 621.11,-286.51 623.33,-279.87"/>
</g>
<!-- n4 -->
<g id="node4" class="node">
<title>n4</title>
<polygon fill="#fffdd0" stroke="black" points="1046,-280 794,-280 794,-244 1046,-244 1046,-280"/>
<text text-anchor="middle" x="920" y="-258.3" font-family="Arial" font-size="14.00">Polar bear near trees (incorrect habitat)</text>
</g>
<!-- n1&#45;&gt;n4 -->
<g id="edge3" class="edge">
<title>n1&#45;&gt;n4</title>
<path fill="none" stroke="black" d="M920,-365.81C920,-346.11 920,-313.58 920,-290.39"/>
<polygon fill="black" stroke="black" points="923.5,-290.16 920,-280.16 916.5,-290.16 923.5,-290.16"/>
</g>
<!-- n5 -->
<g id="node5" class="node">
<title>n5</title>
<polygon fill="#fffdd0" stroke="black" points="1298,-280 1104,-280 1104,-244 1298,-244 1298,-280"/>
<text text-anchor="middle" x="1201" y="-258.3" font-family="Arial" font-size="14.00">Rabbit on land labeled &#39;grass&#39;</text>
</g>
<!-- n1&#45;&gt;n5 -->
<g id="edge4" class="edge">
<title>n1&#45;&gt;n5</title>
<path fill="none" stroke="black" d="M959.96,-365.93C1010.4,-344.39 1097.2,-307.32 1151.7,-284.04"/>
<polygon fill="black" stroke="black" points="1153.36,-287.14 1161.2,-280.01 1150.63,-280.69 1153.36,-287.14"/>
</g>
<!-- n6 -->
<g id="node6" class="node">
<title>n6</title>
<polygon fill="#fffdd0" stroke="black" points="1525,-280 1381,-280 1381,-244 1525,-244 1525,-280"/>
<text text-anchor="middle" x="1453" y="-258.3" font-family="Arial" font-size="14.00">Sun labeled &#39;sunlight&#39;</text>
</g>
<!-- n1&#45;&gt;n6 -->
<g id="edge5" class="edge">
<title>n1&#45;&gt;n6</title>
<path fill="none" stroke="black" d="M995.52,-366C1094.7,-343.66 1268.4,-304.57 1370.8,-281.51"/>
<polygon fill="black" stroke="black" points="1371.81,-284.87 1380.8,-279.26 1370.28,-278.04 1371.81,-284.87"/>
</g>
<!-- n7 -->
<g id="node7" class="node">
<title>n7</title>
<path fill="palegreen" stroke="black" d="M266,-158C266,-158 12,-158 12,-158 6,-158 0,-152 0,-146 0,-146 0,-134 0,-134 0,-128 6,-122 12,-122 12,-122 266,-122 266,-122 272,-122 278,-128 278,-134 278,-134 278,-146 278,-146 278,-152 272,-158 266,-158"/>
<text text-anchor="middle" x="139" y="-136.3" font-family="Arial" font-size="14.00">Correct understanding of fish needing water</text>
</g>
<!-- n2&#45;&gt;n7 -->
<g id="edge6" class="edge">
<title>n2&#45;&gt;n7</title>
<path fill="none" stroke="black" d="M210.11,-243.81C196.12,-223.58 172.76,-189.81 156.65,-166.52"/>
<polygon fill="black" stroke="black" points="159.44,-164.4 150.87,-158.16 153.68,-168.38 159.44,-164.4"/>
</g>
<!-- n9 -->
<g id="node8" class="node">
<title>n9</title>
<polygon fill="lightcoral" stroke="black" points="549,-158 335.51,-140 549,-122 762.49,-140 549,-158"/>
<text text-anchor="middle" x="549" y="-136.3" font-family="Arial" font-size="14.00">Missing concept of bird needing &#39;air&#39;</text>
</g>
<!-- n3&#45;&gt;n9 -->
<g id="edge7" class="edge">
<title>n3&#45;&gt;n9</title>
<path fill="none" stroke="black" d="M560.14,-243.81C558,-224.11 554.48,-191.58 551.97,-168.39"/>
<polygon fill="black" stroke="black" points="555.42,-167.72 550.86,-158.16 548.46,-168.48 555.42,-167.72"/>
</g>
<!-- n10 -->
<g id="node9" class="node">
<title>n10</title>
<polygon fill="lightcoral" stroke="black" points="1035,-158 819.83,-140 1035,-122 1250.17,-140 1035,-158"/>
<text text-anchor="middle" x="1035" y="-136.3" font-family="Arial" font-size="14.00">Polar bear habitat misunderstanding</text>
</g>
<!-- n4&#45;&gt;n10 -->
<g id="edge8" class="edge">
<title>n4&#45;&gt;n10</title>
<path fill="none" stroke="black" d="M936.48,-243.81C956.45,-222.96 990.21,-187.74 1012.6,-164.42"/>
<polygon fill="black" stroke="black" points="1015.31,-166.65 1019.7,-157.01 1010.25,-161.81 1015.31,-166.65"/>
</g>
<!-- n8 -->
<g id="node10" class="node">
<title>n8</title>
<path fill="palegreen" stroke="black" d="M1611.5,-158C1611.5,-158 1320.5,-158 1320.5,-158 1314.5,-158 1308.5,-152 1308.5,-146 1308.5,-146 1308.5,-134 1308.5,-134 1308.5,-128 1314.5,-122 1320.5,-122 1320.5,-122 1611.5,-122 1611.5,-122 1617.5,-122 1623.5,-128 1623.5,-134 1623.5,-134 1623.5,-146 1623.5,-146 1623.5,-152 1617.5,-158 1611.5,-158"/>
<text text-anchor="middle" x="1466" y="-136.3" font-family="Arial" font-size="14.00">Correct understanding of labeling sun as &#39;sunlight&#39;</text>
</g>
<!-- n6&#45;&gt;n8 -->
<g id="edge9" class="edge">
<title>n6&#45;&gt;n8</title>
<path fill="none" stroke="black" d="M1454.9,-243.81C1457,-224.11 1460.5,-191.58 1463,-168.39"/>
<polygon fill="black" stroke="black" points="1466.51,-168.48 1464.1,-158.16 1459.55,-167.73 1466.51,-168.48"/>
</g>
<!-- n11 -->
<g id="node11" class="node">
<title>n11</title>
<polygon fill="#f28e8e" stroke="black" points="663,-36 435,-36 435,0 663,0 663,-36"/>
<text text-anchor="middle" x="549" y="-14.3" font-family="Arial" font-size="14.00">Clarify that birds need air to survive</text>
</g>
<!-- n9&#45;&gt;n11 -->
<g id="edge10" class="edge">
<title>n9&#45;&gt;n11</title>
<path fill="none" stroke="black" d="M549,-121.81C549,-102.11 549,-69.58 549,-46.39"/>
<polygon fill="black" stroke="black" points="552.5,-46.16 549,-36.16 545.5,-46.16 552.5,-46.16"/>
</g>
<!-- n12 -->
<g id="node12" class="node">
<title>n12</title>
<polygon fill="#f28e8e" stroke="black" points="1155.5,-36 914.5,-36 914.5,0 1155.5,0 1155.5,-36"/>
<text text-anchor="middle" x="1035" y="-14.3" font-family="Arial" font-size="14.00">Explain correct habitat for polar bears</text>
</g>
<!-- n10&#45;&gt;n12 -->
<g id="edge11" class="edge">
<title>n10&#45;&gt;n12</title>
<path fill="none" stroke="black" d="M1035,-121.81C1035,-102.11 1035,-69.58 1035,-46.39"/>
<polygon fill="black" stroke="black" points="1038.5,-46.16 1035,-36.16 1031.5,-46.16 1038.5,-46.16"/>
</g>
</g>
</svg>
