<?xml version="1.0" encoding="UTF-8" standalone="no"?>
<!DOCTYPE svg PUBLIC "-//W3C//DTD SVG 1.1//EN"
 "http://www.w3.org/Graphics/SVG/1.1/DTD/svg11.dtd">
<!-- Generated by graphviz version 2.43.0 (0)
 -->
<!-- Pages: 1 -->
<svg width="1581pt" height="288pt"
 viewBox="0.00 0.00 1580.50 288.00" xmlns="http://www.w3.org/2000/svg" xmlns:xlink="http://www.w3.org/1999/xlink">
<g id="graph0" class="graph" transform="scale(1 1) rotate(0) translate(4 284)">
<polygon fill="white" stroke="transparent" points="-4,4 -4,-284 1576.5,-284 1576.5,4 -4,4"/>
<!-- n1 -->
<g id="node1" class="node">
<title>n1</title>
<polygon fill="lightblue" stroke="black" points="1065.5,-262 973.5,-280 789.5,-280 697.5,-262 789.5,-244 973.5,-244 1065.5,-262"/>
<text text-anchor="middle" x="881.5" y="-258.3" font-family="Arial" font-size="14.00">Illustrate plants with and without water</text>
</g>
<!-- n2 -->
<g id="node2" class="node">
<title>n2</title>
<polygon fill="#fffdd0" stroke="black" points="558,-158 241,-158 241,-122 558,-122 558,-158"/>
<text text-anchor="middle" x="399.5" y="-136.3" font-family="Arial" font-size="14.00">Well&#45;watered Plant with vibrant leaves and flowers</text>
</g>
<!-- n1&#45;&gt;n2 -->
<g id="edge1" class="edge">
<title>n1&#45;&gt;n2</title>
<path fill="none" stroke="black" d="M813.21,-244C724.76,-221.98 570.91,-183.68 477.82,-160.5"/>
<polygon fill="black" stroke="black" points="478.44,-157.05 467.89,-158.03 476.75,-163.84 478.44,-157.05"/>
</g>
<!-- n3 -->
<g id="node3" class="node">
<title>n3</title>
<polygon fill="#fffdd0" stroke="black" points="855,-158 616,-158 616,-122 855,-122 855,-158"/>
<text text-anchor="middle" x="735.5" y="-136.3" font-family="Arial" font-size="14.00">Dry Plant with drooping brown leaves</text>
</g>
<!-- n1&#45;&gt;n3 -->
<g id="edge2" class="edge">
<title>n1&#45;&gt;n3</title>
<path fill="none" stroke="black" d="M860.58,-243.81C835.32,-223.04 792.7,-188.01 764.33,-164.7"/>
<polygon fill="black" stroke="black" points="766.33,-161.81 756.38,-158.16 761.88,-167.22 766.33,-161.81"/>
</g>
<!-- n4 -->
<g id="node4" class="node">
<title>n4</title>
<polygon fill="#fffdd0" stroke="black" points="1175,-158 946,-158 946,-122 1175,-122 1175,-158"/>
<text text-anchor="middle" x="1060.5" y="-136.3" font-family="Arial" font-size="14.00">Moist soil under Well&#45;watered Plant</text>
</g>
<!-- n1&#45;&gt;n4 -->
<g id="edge3" class="edge">
<title>n1&#45;&gt;n4</title>
<path fill="none" stroke="black" d="M907.15,-243.81C938.52,-222.78 991.72,-187.11 1026.5,-163.8"/>
<polygon fill="black" stroke="black" points="1028.55,-166.64 1034.9,-158.16 1024.65,-160.83 1028.55,-166.64"/>
</g>
<!-- n5 -->
<g id="node5" class="node">
<title>n5</title>
<polygon fill="#fffdd0" stroke="black" points="1453,-158 1294,-158 1294,-122 1453,-122 1453,-158"/>
<text text-anchor="middle" x="1373.5" y="-136.3" font-family="Arial" font-size="14.00">Dry soil under Dry Plant</text>
</g>
<!-- n1&#45;&gt;n5 -->
<g id="edge4" class="edge">
<title>n1&#45;&gt;n5</title>
<path fill="none" stroke="black" d="M951.21,-244C1041.6,-221.95 1198.8,-183.6 1293.8,-160.43"/>
<polygon fill="black" stroke="black" points="1294.81,-163.79 1303.7,-158.03 1293.16,-156.98 1294.81,-163.79"/>
</g>
<!-- n6 -->
<g id="node6" class="node">
<title>n6</title>
<path fill="palegreen" stroke="black" d="M211,-36C211,-36 12,-36 12,-36 6,-36 0,-30 0,-24 0,-24 0,-12 0,-12 0,-6 6,0 12,0 12,0 211,0 211,0 217,0 223,-6 223,-12 223,-12 223,-24 223,-24 223,-30 217,-36 211,-36"/>
<text text-anchor="middle" x="111.5" y="-14.3" font-family="Arial" font-size="14.00">Plants need water to live and grow</text>
</g>
<!-- n2&#45;&gt;n6 -->
<g id="edge5" class="edge">
<title>n2&#45;&gt;n6</title>
<path fill="none" stroke="black" d="M358.54,-121.93C306.72,-100.34 217.51,-63.17 161.66,-39.9"/>
<polygon fill="black" stroke="black" points="162.9,-36.62 152.32,-36.01 160.2,-43.08 162.9,-36.62"/>
</g>
<!-- n8 -->
<g id="node7" class="node">
<title>n8</title>
<path fill="palegreen" stroke="black" d="M508,-36C508,-36 293,-36 293,-36 287,-36 281,-30 281,-24 281,-24 281,-12 281,-12 281,-6 287,0 293,0 293,0 508,0 508,0 514,0 520,-6 520,-12 520,-12 520,-24 520,-24 520,-30 514,-36 508,-36"/>
<text text-anchor="middle" x="400.5" y="-14.3" font-family="Arial" font-size="14.00">Visual difference shows water impact</text>
</g>
<!-- n2&#45;&gt;n8 -->
<g id="edge6" class="edge">
<title>n2&#45;&gt;n8</title>
<path fill="none" stroke="black" d="M399.64,-121.81C399.81,-102.11 400.08,-69.58 400.27,-46.39"/>
<polygon fill="black" stroke="black" points="403.77,-46.19 400.36,-36.16 396.77,-46.13 403.77,-46.19"/>
</g>
<!-- n3&#45;&gt;n8 -->
<g id="edge7" class="edge">
<title>n3&#45;&gt;n8</title>
<path fill="none" stroke="black" d="M687.86,-121.93C627.21,-100.21 522.52,-62.71 457.64,-39.47"/>
<polygon fill="black" stroke="black" points="458.57,-36.09 447.98,-36.01 456.21,-42.68 458.57,-36.09"/>
</g>
<!-- n7 -->
<g id="node8" class="node">
<title>n7</title>
<path fill="palegreen" stroke="black" d="M880.5,-36C880.5,-36 590.5,-36 590.5,-36 584.5,-36 578.5,-30 578.5,-24 578.5,-24 578.5,-12 578.5,-12 578.5,-6 584.5,0 590.5,0 590.5,0 880.5,0 880.5,0 886.5,0 892.5,-6 892.5,-12 892.5,-12 892.5,-24 892.5,-24 892.5,-30 886.5,-36 880.5,-36"/>
<text text-anchor="middle" x="735.5" y="-14.3" font-family="Arial" font-size="14.00">Understanding that plants are healthier with water</text>
</g>
<!-- n3&#45;&gt;n7 -->
<g id="edge8" class="edge">
<title>n3&#45;&gt;n7</title>
<path fill="none" stroke="black" d="M735.5,-121.81C735.5,-102.11 735.5,-69.58 735.5,-46.39"/>
<polygon fill="black" stroke="black" points="739,-46.16 735.5,-36.16 732,-46.16 739,-46.16"/>
</g>
<!-- n9 -->
<g id="node9" class="node">
<title>n9</title>
<path fill="palegreen" stroke="black" d="M1226,-36C1226,-36 963,-36 963,-36 957,-36 951,-30 951,-24 951,-24 951,-12 951,-12 951,-6 957,0 963,0 963,0 1226,0 1226,0 1232,0 1238,-6 1238,-12 1238,-12 1238,-24 1238,-24 1238,-30 1232,-36 1226,-36"/>
<text text-anchor="middle" x="1094.5" y="-14.3" font-family="Arial" font-size="14.00">Representation of healthy plant with moisture</text>
</g>
<!-- n4&#45;&gt;n9 -->
<g id="edge9" class="edge">
<title>n4&#45;&gt;n9</title>
<path fill="none" stroke="black" d="M1065.4,-121.81C1071,-102.02 1080.3,-69.29 1086.8,-46.08"/>
<polygon fill="black" stroke="black" points="1090.25,-46.74 1089.6,-36.16 1083.51,-44.83 1090.25,-46.74"/>
</g>
<!-- n10 -->
<g id="node10" class="node">
<title>n10</title>
<path fill="palegreen" stroke="black" d="M1560.5,-36C1560.5,-36 1308.5,-36 1308.5,-36 1302.5,-36 1296.5,-30 1296.5,-24 1296.5,-24 1296.5,-12 1296.5,-12 1296.5,-6 1302.5,0 1308.5,0 1308.5,0 1560.5,0 1560.5,0 1566.5,0 1572.5,-6 1572.5,-12 1572.5,-12 1572.5,-24 1572.5,-24 1572.5,-30 1566.5,-36 1560.5,-36"/>
<text text-anchor="middle" x="1434.5" y="-14.3" font-family="Arial" font-size="14.00">Representation of wilting plant with dryness</text>
</g>
<!-- n5&#45;&gt;n10 -->
<g id="edge10" class="edge">
<title>n5&#45;&gt;n10</title>
<path fill="none" stroke="black" d="M1382.2,-121.81C1392.4,-101.76 1409.4,-68.4 1421.2,-45.14"/>
<polygon fill="black" stroke="black" points="1424.36,-46.66 1425.8,-36.16 1418.13,-43.47 1424.36,-46.66"/>
</g>
</g>
</svg>
