<?xml version="1.0" encoding="UTF-8" standalone="no"?>
<!DOCTYPE svg PUBLIC "-//W3C//DTD SVG 1.1//EN"
 "http://www.w3.org/Graphics/SVG/1.1/DTD/svg11.dtd">
<!-- Generated by graphviz version 2.43.0 (0)
 -->
<!-- Pages: 1 -->
<svg width="2688pt" height="410pt"
 viewBox="0.00 0.00 2687.70 410.00" xmlns="http://www.w3.org/2000/svg" xmlns:xlink="http://www.w3.org/1999/xlink">
<g id="graph0" class="graph" transform="scale(1 1) rotate(0) translate(4 406)">
<polygon fill="white" stroke="transparent" points="-4,4 -4,-406 2683.7,-406 2683.7,4 -4,4"/>
<!-- n1 -->
<g id="node1" class="node">
<title>n1</title>
<polygon fill="lightblue" stroke="black" points="2006.57,-384 1863.89,-402 1578.52,-402 1435.83,-384 1578.52,-366 1863.89,-366 2006.57,-384"/>
<text text-anchor="middle" x="1721.2" y="-380.3" font-family="Arial" font-size="14.00">Draw animals in their habitats with labels (e.g., fish in water).</text>
</g>
<!-- n2 -->
<g id="node2" class="node">
<title>n2</title>
<polygon fill="#fffdd0" stroke="black" points="1049.15,-280 607.15,-280 607.15,-244 1049.15,-244 1049.15,-280"/>
<text text-anchor="middle" x="828.15" y="-258.3" font-family="Arial" font-size="14.00">Fish partially submerged in blue water, but water placed above the fish.</text>
</g>
<!-- n1&#45;&gt;n2 -->
<g id="edge1" class="edge">
<title>n1&#45;&gt;n2</title>
<path fill="none" stroke="black" d="M1594.6,-366C1428.1,-343.62 1136.5,-304.43 964.96,-281.38"/>
<polygon fill="black" stroke="black" points="965.24,-277.89 954.86,-280.03 964.31,-284.82 965.24,-277.89"/>
</g>
<!-- n3 -->
<g id="node3" class="node">
<title>n3</title>
<polygon fill="#fffdd0" stroke="black" points="1732.7,-280 1375.7,-280 1375.7,-244 1732.7,-244 1732.7,-280"/>
<text text-anchor="middle" x="1554.2" y="-258.3" font-family="Arial" font-size="14.00">Basic bird shape in the sky with a separate patch of blue.</text>
</g>
<!-- n1&#45;&gt;n3 -->
<g id="edge2" class="edge">
<title>n1&#45;&gt;n3</title>
<path fill="none" stroke="black" d="M1697.2,-365.81C1668.1,-344.87 1618.7,-309.41 1586.3,-286.1"/>
<polygon fill="black" stroke="black" points="1588.17,-283.13 1578,-280.16 1584.1,-288.83 1588.17,-283.13"/>
</g>
<!-- n4 -->
<g id="node4" class="node">
<title>n4</title>
<polygon fill="#fffdd0" stroke="black" points="2153.7,-280 1956.7,-280 1956.7,-244 2153.7,-244 2153.7,-280"/>
<text text-anchor="middle" x="2055.2" y="-258.3" font-family="Arial" font-size="14.00">Green and brown tree nearby.</text>
</g>
<!-- n1&#45;&gt;n4 -->
<g id="edge3" class="edge">
<title>n1&#45;&gt;n4</title>
<path fill="none" stroke="black" d="M1768.7,-365.93C1829.1,-344.21 1933.5,-306.71 1998.2,-283.47"/>
<polygon fill="black" stroke="black" points="1999.58,-286.69 2007.8,-280.01 1997.21,-280.11 1999.58,-286.69"/>
</g>
<!-- n5 -->
<g id="node5" class="node">
<title>n5</title>
<polygon fill="#fffdd0" stroke="black" points="2545.2,-280 2357.2,-280 2357.2,-244 2545.2,-244 2545.2,-280"/>
<text text-anchor="middle" x="2451.2" y="-258.3" font-family="Arial" font-size="14.00">Wavy lines around for grass.</text>
</g>
<!-- n1&#45;&gt;n5 -->
<g id="edge4" class="edge">
<title>n1&#45;&gt;n5</title>
<path fill="none" stroke="black" d="M1824.6,-366C1963.2,-343.21 2207.9,-302.99 2346.9,-280.14"/>
<polygon fill="black" stroke="black" points="2347.81,-283.54 2357.1,-278.45 2346.67,-276.63 2347.81,-283.54"/>
</g>
<!-- n6 -->
<g id="node6" class="node">
<title>n6</title>
<polygon fill="lightcoral" stroke="black" points="487.15,-158 -0.15,-140 487.15,-122 974.46,-140 487.15,-158"/>
<text text-anchor="middle" x="487.15" y="-136.3" font-family="Arial" font-size="14.00">Incorrect placement of water relative to fish indicates misunderstanding of fish habitat.</text>
</g>
<!-- n2&#45;&gt;n6 -->
<g id="edge5" class="edge">
<title>n2&#45;&gt;n6</title>
<path fill="none" stroke="black" d="M779.66,-243.93C716.43,-221.69 606.2,-182.89 540.62,-159.82"/>
<polygon fill="black" stroke="black" points="541.49,-156.41 530.89,-156.39 539.16,-163.02 541.49,-156.41"/>
</g>
<!-- n7 -->
<g id="node7" class="node">
<title>n7</title>
<polygon fill="lightcoral" stroke="black" points="1481.2,-158 1032.61,-140 1481.2,-122 1929.8,-140 1481.2,-158"/>
<text text-anchor="middle" x="1481.2" y="-136.3" font-family="Arial" font-size="14.00">Understanding that birds are in the sky but no connection to resources needed.</text>
</g>
<!-- n3&#45;&gt;n7 -->
<g id="edge6" class="edge">
<title>n3&#45;&gt;n7</title>
<path fill="none" stroke="black" d="M1543.7,-243.81C1531.4,-223.55 1510.8,-189.72 1496.6,-166.43"/>
<polygon fill="black" stroke="black" points="1499.55,-164.54 1491.4,-157.77 1493.55,-168.14 1499.55,-164.54"/>
</g>
<!-- n8 -->
<g id="node8" class="node">
<title>n8</title>
<path fill="palegreen" stroke="black" d="M2298.7,-158C2298.7,-158 1999.7,-158 1999.7,-158 1993.7,-158 1987.7,-152 1987.7,-146 1987.7,-146 1987.7,-134 1987.7,-134 1987.7,-128 1993.7,-122 1999.7,-122 1999.7,-122 2298.7,-122 2298.7,-122 2304.7,-122 2310.7,-128 2310.7,-134 2310.7,-134 2310.7,-146 2310.7,-146 2310.7,-152 2304.7,-158 2298.7,-158"/>
<text text-anchor="middle" x="2149.2" y="-136.3" font-family="Arial" font-size="14.00">Correct representation of plants by including a tree.</text>
</g>
<!-- n4&#45;&gt;n8 -->
<g id="edge7" class="edge">
<title>n4&#45;&gt;n8</title>
<path fill="none" stroke="black" d="M2068.6,-243.81C2084.5,-223.49 2111.2,-189.51 2129.4,-166.21"/>
<polygon fill="black" stroke="black" points="2132.3,-168.19 2135.7,-158.16 2126.78,-163.88 2132.3,-168.19"/>
</g>
<!-- n9 -->
<g id="node9" class="node">
<title>n9</title>
<path fill="palegreen" stroke="black" d="M2667.7,-158C2667.7,-158 2380.7,-158 2380.7,-158 2374.7,-158 2368.7,-152 2368.7,-146 2368.7,-146 2368.7,-134 2368.7,-134 2368.7,-128 2374.7,-122 2380.7,-122 2380.7,-122 2667.7,-122 2667.7,-122 2673.7,-122 2679.7,-128 2679.7,-134 2679.7,-134 2679.7,-146 2679.7,-146 2679.7,-152 2673.7,-158 2667.7,-158"/>
<text text-anchor="middle" x="2524.2" y="-136.3" font-family="Arial" font-size="14.00">Correct representation of grass as part of habitat.</text>
</g>
<!-- n5&#45;&gt;n9 -->
<g id="edge8" class="edge">
<title>n5&#45;&gt;n9</title>
<path fill="none" stroke="black" d="M2461.6,-243.81C2473.9,-223.67 2494.3,-190.1 2508.4,-166.83"/>
<polygon fill="black" stroke="black" points="2511.47,-168.52 2513.7,-158.16 2505.5,-164.87 2511.47,-168.52"/>
</g>
<!-- n10 -->
<g id="node10" class="node">
<title>n10</title>
<polygon fill="#f28e8e" stroke="black" points="661.15,-36 313.15,-36 313.15,0 661.15,0 661.15,-36"/>
<text text-anchor="middle" x="487.15" y="-14.3" font-family="Arial" font-size="14.00">Fish need water to survive; ensure it surrounds the fish.</text>
</g>
<!-- n6&#45;&gt;n10 -->
<g id="edge9" class="edge">
<title>n6&#45;&gt;n10</title>
<path fill="none" stroke="black" d="M487.15,-121.81C487.15,-102.11 487.15,-69.58 487.15,-46.39"/>
<polygon fill="black" stroke="black" points="490.65,-46.16 487.15,-36.16 483.65,-46.16 490.65,-46.16"/>
</g>
<!-- n11 -->
<g id="node11" class="node">
<title>n11</title>
<polygon fill="#f28e8e" stroke="black" points="1699.7,-36 1262.7,-36 1262.7,0 1699.7,0 1699.7,-36"/>
<text text-anchor="middle" x="1481.2" y="-14.3" font-family="Arial" font-size="14.00">Explain that birds need air and food sources not shown in the drawing.</text>
</g>
<!-- n7&#45;&gt;n11 -->
<g id="edge10" class="edge">
<title>n7&#45;&gt;n11</title>
<path fill="none" stroke="black" d="M1481.2,-121.81C1481.2,-102.11 1481.2,-69.58 1481.2,-46.39"/>
<polygon fill="black" stroke="black" points="1484.7,-46.16 1481.2,-36.16 1477.7,-46.16 1484.7,-46.16"/>
</g>
</g>
</svg>
