<?xml version="1.0" encoding="UTF-8" standalone="no"?>
<!DOCTYPE svg PUBLIC "-//W3C//DTD SVG 1.1//EN"
 "http://www.w3.org/Graphics/SVG/1.1/DTD/svg11.dtd">
<!-- Generated by graphviz version 2.43.0 (0)
 -->
<!-- Pages: 1 -->
<svg width="1357pt" height="410pt"
 viewBox="0.00 0.00 1356.67 410.00" xmlns="http://www.w3.org/2000/svg" xmlns:xlink="http://www.w3.org/1999/xlink">
<g id="graph0" class="graph" transform="scale(1 1) rotate(0) translate(4 406)">
<polygon fill="white" stroke="transparent" points="-4,4 -4,-406 1352.67,-406 1352.67,4 -4,4"/>
<!-- n1 -->
<g id="node1" class="node">
<title>n1</title>
<polygon fill="lightblue" stroke="black" points="823.5,-384 731.5,-402 547.5,-402 455.5,-384 547.5,-366 731.5,-366 823.5,-384"/>
<text text-anchor="middle" x="639.5" y="-380.3" font-family="Arial" font-size="14.00">Illustrate plants with and without water</text>
</g>
<!-- n2 -->
<g id="node2" class="node">
<title>n2</title>
<polygon fill="#fffdd0" stroke="black" points="394,-280 297,-280 297,-244 394,-244 394,-280"/>
<text text-anchor="middle" x="345.5" y="-258.3" font-family="Arial" font-size="14.00">Healthy Plant</text>
</g>
<!-- n1&#45;&gt;n2 -->
<g id="edge1" class="edge">
<title>n1&#45;&gt;n2</title>
<path fill="none" stroke="black" d="M597.69,-365.93C544.79,-344.34 453.72,-307.17 396.71,-283.9"/>
<polygon fill="black" stroke="black" points="397.75,-280.54 387.17,-280.01 395.11,-287.03 397.75,-280.54"/>
</g>
<!-- n3 -->
<g id="node3" class="node">
<title>n3</title>
<polygon fill="#fffdd0" stroke="black" points="695.5,-280 583.5,-280 583.5,-244 695.5,-244 695.5,-280"/>
<text text-anchor="middle" x="639.5" y="-258.3" font-family="Arial" font-size="14.00">Unhealthy Plant</text>
</g>
<!-- n1&#45;&gt;n3 -->
<g id="edge2" class="edge">
<title>n1&#45;&gt;n3</title>
<path fill="none" stroke="black" d="M639.5,-365.81C639.5,-346.11 639.5,-313.58 639.5,-290.39"/>
<polygon fill="black" stroke="black" points="643,-290.16 639.5,-280.16 636,-290.16 643,-290.16"/>
</g>
<!-- n4 -->
<g id="node4" class="node">
<title>n4</title>
<polygon fill="#fffdd0" stroke="black" points="967.5,-280 913.5,-280 913.5,-244 967.5,-244 967.5,-280"/>
<text text-anchor="middle" x="940.5" y="-258.3" font-family="Arial" font-size="14.00">Sun</text>
</g>
<!-- n1&#45;&gt;n4 -->
<g id="edge3" class="edge">
<title>n1&#45;&gt;n4</title>
<path fill="none" stroke="black" d="M682.31,-365.93C741.71,-342.25 848.14,-299.82 903.99,-277.56"/>
<polygon fill="black" stroke="black" points="905.49,-280.73 913.48,-273.77 902.9,-274.23 905.49,-280.73"/>
</g>
<!-- n5 -->
<g id="node5" class="node">
<title>n5</title>
<path fill="palegreen" stroke="black" d="M415,-158C415,-158 12,-158 12,-158 6,-158 0,-152 0,-146 0,-146 0,-134 0,-134 0,-128 6,-122 12,-122 12,-122 415,-122 415,-122 421,-122 427,-128 427,-134 427,-134 427,-146 427,-146 427,-152 421,-158 415,-158"/>
<text text-anchor="middle" x="213.5" y="-136.3" font-family="Arial" font-size="14.00">Bright green leaves and healthy appearance indicates enough water.</text>
</g>
<!-- n2&#45;&gt;n5 -->
<g id="edge4" class="edge">
<title>n2&#45;&gt;n5</title>
<path fill="none" stroke="black" d="M326.59,-243.81C303.85,-223.13 265.54,-188.31 239.9,-165"/>
<polygon fill="black" stroke="black" points="242.13,-162.3 232.38,-158.16 237.42,-167.48 242.13,-162.3"/>
</g>
<!-- n6 -->
<g id="node6" class="node">
<title>n6</title>
<path fill="palegreen" stroke="black" d="M782,-158C782,-158 497,-158 497,-158 491,-158 485,-152 485,-146 485,-146 485,-134 485,-134 485,-128 491,-122 497,-122 497,-122 782,-122 782,-122 788,-122 794,-128 794,-134 794,-134 794,-146 794,-146 794,-152 788,-158 782,-158"/>
<text text-anchor="middle" x="639.5" y="-136.3" font-family="Arial" font-size="14.00">Wilted or drooping leaves indicates lack of water.</text>
</g>
<!-- n3&#45;&gt;n6 -->
<g id="edge5" class="edge">
<title>n3&#45;&gt;n6</title>
<path fill="none" stroke="black" d="M639.5,-243.81C639.5,-224.11 639.5,-191.58 639.5,-168.39"/>
<polygon fill="black" stroke="black" points="643,-168.16 639.5,-158.16 636,-168.16 643,-168.16"/>
</g>
<!-- n7 -->
<g id="node7" class="node">
<title>n7</title>
<polygon fill="lightcoral" stroke="black" points="1100.5,-158 852.15,-140 1100.5,-122 1348.85,-140 1100.5,-158"/>
<text text-anchor="middle" x="1100.5" y="-136.3" font-family="Arial" font-size="14.00">Sunlight is necessary but not emphasized.</text>
</g>
<!-- n4&#45;&gt;n7 -->
<g id="edge6" class="edge">
<title>n4&#45;&gt;n7</title>
<path fill="none" stroke="black" d="M963.42,-243.81C991.86,-222.48 1040.4,-186.1 1071.4,-162.83"/>
<polygon fill="black" stroke="black" points="1073.78,-165.42 1079.7,-156.63 1069.59,-159.81 1073.78,-165.42"/>
</g>
<!-- n8 -->
<g id="node8" class="node">
<title>n8</title>
<polygon fill="#f28e8e" stroke="black" points="1244.5,-36 956.5,-36 956.5,0 1244.5,0 1244.5,-36"/>
<text text-anchor="middle" x="1100.5" y="-14.3" font-family="Arial" font-size="14.00">Label sunlight and emphasize its importance.</text>
</g>
<!-- n7&#45;&gt;n8 -->
<g id="edge7" class="edge">
<title>n7&#45;&gt;n8</title>
<path fill="none" stroke="black" d="M1100.5,-121.81C1100.5,-102.11 1100.5,-69.58 1100.5,-46.39"/>
<polygon fill="black" stroke="black" points="1104,-46.16 1100.5,-36.16 1097,-46.16 1104,-46.16"/>
</g>
</g>
</svg>
