<?xml version="1.0" encoding="UTF-8" standalone="no"?>
<!DOCTYPE svg PUBLIC "-//W3C//DTD SVG 1.1//EN"
 "http://www.w3.org/Graphics/SVG/1.1/DTD/svg11.dtd">
<!-- Generated by graphviz version 2.43.0 (0)
 -->
<!-- Pages: 1 -->
<svg width="1103pt" height="410pt"
 viewBox="0.00 0.00 1102.50 410.00" xmlns="http://www.w3.org/2000/svg" xmlns:xlink="http://www.w3.org/1999/xlink">
<g id="graph0" class="graph" transform="scale(1 1) rotate(0) translate(4 406)">
<polygon fill="white" stroke="transparent" points="-4,4 -4,-406 1098.5,-406 1098.5,4 -4,4"/>
<!-- n1 -->
<g id="node1" class="node">
<title>n1</title>
<polygon fill="lightblue" stroke="black" points="936.87,-384 795.68,-402 513.32,-402 372.13,-384 513.32,-366 795.68,-366 936.87,-384"/>
<text text-anchor="middle" x="654.5" y="-380.3" font-family="Arial" font-size="14.00">Draw animals in their habitats with labels (e.g., fish in water)</text>
</g>
<!-- n2 -->
<g id="node2" class="node">
<title>n2</title>
<polygon fill="#fffdd0" stroke="black" points="456.5,-280 214.5,-280 214.5,-244 456.5,-244 456.5,-280"/>
<text text-anchor="middle" x="335.5" y="-258.3" font-family="Arial" font-size="14.00">Simple fish and bird drawn separately</text>
</g>
<!-- n1&#45;&gt;n2 -->
<g id="edge1" class="edge">
<title>n1&#45;&gt;n2</title>
<path fill="none" stroke="black" d="M609.14,-365.93C551.5,-344.25 452.11,-306.86 390.3,-283.61"/>
<polygon fill="black" stroke="black" points="391.3,-280.25 380.71,-280.01 388.84,-286.8 391.3,-280.25"/>
</g>
<!-- n3 -->
<g id="node3" class="node">
<title>n3</title>
<polygon fill="#fffdd0" stroke="black" points="714.5,-280 594.5,-280 594.5,-244 714.5,-244 714.5,-280"/>
<text text-anchor="middle" x="654.5" y="-258.3" font-family="Arial" font-size="14.00">Fish labeled &#39;fish&#39;</text>
</g>
<!-- n1&#45;&gt;n3 -->
<g id="edge2" class="edge">
<title>n1&#45;&gt;n3</title>
<path fill="none" stroke="black" d="M654.5,-365.81C654.5,-346.11 654.5,-313.58 654.5,-290.39"/>
<polygon fill="black" stroke="black" points="658,-290.16 654.5,-280.16 651,-290.16 658,-290.16"/>
</g>
<!-- n4 -->
<g id="node4" class="node">
<title>n4</title>
<polygon fill="#fffdd0" stroke="black" points="892.5,-280 772.5,-280 772.5,-244 892.5,-244 892.5,-280"/>
<text text-anchor="middle" x="832.5" y="-258.3" font-family="Arial" font-size="14.00">Bird labeled &#39;bird&#39;</text>
</g>
<!-- n1&#45;&gt;n4 -->
<g id="edge3" class="edge">
<title>n1&#45;&gt;n4</title>
<path fill="none" stroke="black" d="M680.01,-365.81C711.2,-344.78 764.11,-309.11 798.68,-285.8"/>
<polygon fill="black" stroke="black" points="800.71,-288.65 807.05,-280.16 796.8,-282.85 800.71,-288.65"/>
</g>
<!-- n5 -->
<g id="node5" class="node">
<title>n5</title>
<polygon fill="lightcoral" stroke="black" points="256.5,-158 0,-140 256.5,-122 513,-140 256.5,-158"/>
<text text-anchor="middle" x="256.5" y="-136.3" font-family="Arial" font-size="14.00">Lack of environmental context or integration</text>
</g>
<!-- n2&#45;&gt;n5 -->
<g id="edge4" class="edge">
<title>n2&#45;&gt;n5</title>
<path fill="none" stroke="black" d="M324.19,-243.81C310.78,-223.44 288.33,-189.34 272.99,-166.04"/>
<polygon fill="black" stroke="black" points="275.72,-163.82 267.3,-157.39 269.87,-167.67 275.72,-163.82"/>
</g>
<!-- n6 -->
<g id="node6" class="node">
<title>n6</title>
<polygon fill="lightcoral" stroke="black" points="832.5,-158 570.5,-140 832.5,-122 1094.5,-140 832.5,-158"/>
<text text-anchor="middle" x="832.5" y="-136.3" font-family="Arial" font-size="14.00">Attempts to label but lacks clarity on purpose</text>
</g>
<!-- n3&#45;&gt;n6 -->
<g id="edge5" class="edge">
<title>n3&#45;&gt;n6</title>
<path fill="none" stroke="black" d="M680.01,-243.81C712,-222.24 766.83,-185.27 801.29,-162.04"/>
<polygon fill="black" stroke="black" points="803.25,-164.94 809.59,-156.45 799.34,-159.13 803.25,-164.94"/>
</g>
<!-- n4&#45;&gt;n6 -->
<g id="edge6" class="edge">
<title>n4&#45;&gt;n6</title>
<path fill="none" stroke="black" d="M832.5,-243.81C832.5,-224.11 832.5,-191.58 832.5,-168.39"/>
<polygon fill="black" stroke="black" points="836,-168.16 832.5,-158.16 829,-168.16 836,-168.16"/>
</g>
<!-- n7 -->
<g id="node7" class="node">
<title>n7</title>
<polygon fill="#f28e8e" stroke="black" points="453,-36 60,-36 60,0 453,0 453,-36"/>
<text text-anchor="middle" x="256.5" y="-14.3" font-family="Arial" font-size="14.00">Include water around the fish and a tree, air, or nest for the bird</text>
</g>
<!-- n5&#45;&gt;n7 -->
<g id="edge7" class="edge">
<title>n5&#45;&gt;n7</title>
<path fill="none" stroke="black" d="M256.5,-121.81C256.5,-102.11 256.5,-69.58 256.5,-46.39"/>
<polygon fill="black" stroke="black" points="260,-46.16 256.5,-36.16 253,-46.16 260,-46.16"/>
</g>
<!-- n8 -->
<g id="node8" class="node">
<title>n8</title>
<polygon fill="#f28e8e" stroke="black" points="1018,-36 647,-36 647,0 1018,0 1018,-36"/>
<text text-anchor="middle" x="832.5" y="-14.3" font-family="Arial" font-size="14.00">Explain the relationship between habitat and survival needs</text>
</g>
<!-- n6&#45;&gt;n8 -->
<g id="edge8" class="edge">
<title>n6&#45;&gt;n8</title>
<path fill="none" stroke="black" d="M832.5,-121.81C832.5,-102.11 832.5,-69.58 832.5,-46.39"/>
<polygon fill="black" stroke="black" points="836,-46.16 832.5,-36.16 829,-46.16 836,-46.16"/>
</g>
</g>
</svg>
