<?xml version="1.0" encoding="UTF-8" standalone="no"?>
<!DOCTYPE svg PUBLIC "-//W3C//DTD SVG 1.1//EN"
 "http://www.w3.org/Graphics/SVG/1.1/DTD/svg11.dtd">
<!-- Generated by graphviz version 2.43.0 (0)
 -->
<!-- Pages: 1 -->
<svg width="1664pt" height="410pt"
 viewBox="0.00 0.00 1664.01 410.00" xmlns="http://www.w3.org/2000/svg" xmlns:xlink="http://www.w3.org/1999/xlink">
<g id="graph0" class="graph" transform="scale(1 1) rotate(0) translate(4 406)">
<polygon fill="white" stroke="transparent" points="-4,4 -4,-406 1660.01,-406 1660.01,4 -4,4"/>
<!-- n1 -->
<g id="node1" class="node">
<title>n1</title>
<polygon fill="lightblue" stroke="black" points="798.5,-384 707.25,-402 524.75,-402 433.5,-384 524.75,-366 707.25,-366 798.5,-384"/>
<text text-anchor="middle" x="616" y="-380.3" font-family="Arial" font-size="14.00">Draw a fish in their habitat with labels.</text>
</g>
<!-- n2 -->
<g id="node2" class="node">
<title>n2</title>
<polygon fill="#fffdd0" stroke="black" points="264.5,-280 37.5,-280 37.5,-244 264.5,-244 264.5,-280"/>
<text text-anchor="middle" x="151" y="-258.3" font-family="Arial" font-size="14.00">Fish with orange body labeled &#39;fish&#39;</text>
</g>
<!-- n1&#45;&gt;n2 -->
<g id="edge1" class="edge">
<title>n1&#45;&gt;n2</title>
<path fill="none" stroke="black" d="M549.87,-365.93C464.56,-343.92 316.49,-305.71 226.74,-282.55"/>
<polygon fill="black" stroke="black" points="227.46,-279.12 216.9,-280.01 225.71,-285.9 227.46,-279.12"/>
</g>
<!-- n3 -->
<g id="node3" class="node">
<title>n3</title>
<polygon fill="#fffdd0" stroke="black" points="590,-280 324,-280 324,-244 590,-244 590,-280"/>
<text text-anchor="middle" x="457" y="-258.3" font-family="Arial" font-size="14.00">Water with blue wavy lines labeled &#39;water&#39;</text>
</g>
<!-- n1&#45;&gt;n3 -->
<g id="edge2" class="edge">
<title>n1&#45;&gt;n3</title>
<path fill="none" stroke="black" d="M593.22,-365.81C565.59,-344.96 518.89,-309.71 488,-286.4"/>
<polygon fill="black" stroke="black" points="489.83,-283.4 479.74,-280.16 485.61,-288.98 489.83,-283.4"/>
</g>
<!-- n4 -->
<g id="node4" class="node">
<title>n4</title>
<polygon fill="#fffdd0" stroke="black" points="957,-280 701,-280 701,-244 957,-244 957,-280"/>
<text text-anchor="middle" x="829" y="-258.3" font-family="Arial" font-size="14.00">Green leafy seaweed labeled &#39;seaweed&#39;</text>
</g>
<!-- n1&#45;&gt;n4 -->
<g id="edge3" class="edge">
<title>n1&#45;&gt;n4</title>
<path fill="none" stroke="black" d="M646.52,-365.81C684.16,-344.6 748.23,-308.5 789.57,-285.21"/>
<polygon fill="black" stroke="black" points="791.54,-288.12 798.54,-280.16 788.11,-282.02 791.54,-288.12"/>
</g>
<!-- n5 -->
<g id="node5" class="node">
<title>n5</title>
<polygon fill="#fffdd0" stroke="black" points="1179,-280 1015,-280 1015,-244 1179,-244 1179,-280"/>
<text text-anchor="middle" x="1097" y="-258.3" font-family="Arial" font-size="14.00">Gray rock (without label)</text>
</g>
<!-- n1&#45;&gt;n5 -->
<g id="edge4" class="edge">
<title>n1&#45;&gt;n5</title>
<path fill="none" stroke="black" d="M684.15,-366C772.42,-343.98 925.94,-305.68 1018.8,-282.5"/>
<polygon fill="black" stroke="black" points="1019.93,-285.83 1028.8,-280.03 1018.25,-279.03 1019.93,-285.83"/>
</g>
<!-- n6 -->
<g id="node6" class="node">
<title>n6</title>
<path fill="palegreen" stroke="black" d="M236,-158C236,-158 12,-158 12,-158 6,-158 0,-152 0,-146 0,-146 0,-134 0,-134 0,-128 6,-122 12,-122 12,-122 236,-122 236,-122 242,-122 248,-128 248,-134 248,-134 248,-146 248,-146 248,-152 242,-158 236,-158"/>
<text text-anchor="middle" x="124" y="-136.3" font-family="Arial" font-size="14.00">Understands need for labeling habitats</text>
</g>
<!-- n2&#45;&gt;n6 -->
<g id="edge5" class="edge">
<title>n2&#45;&gt;n6</title>
<path fill="none" stroke="black" d="M147.13,-243.81C142.68,-224.02 135.31,-191.29 130.09,-168.08"/>
<polygon fill="black" stroke="black" points="133.47,-167.15 127.86,-158.16 126.64,-168.68 133.47,-167.15"/>
</g>
<!-- n7 -->
<g id="node7" class="node">
<title>n7</title>
<path fill="palegreen" stroke="black" d="M544,-158C544,-158 318,-158 318,-158 312,-158 306,-152 306,-146 306,-146 306,-134 306,-134 306,-128 312,-122 318,-122 318,-122 544,-122 544,-122 550,-122 556,-128 556,-134 556,-134 556,-146 556,-146 556,-152 550,-158 544,-158"/>
<text text-anchor="middle" x="431" y="-136.3" font-family="Arial" font-size="14.00">Understands fish need water to survive</text>
</g>
<!-- n3&#45;&gt;n7 -->
<g id="edge6" class="edge">
<title>n3&#45;&gt;n7</title>
<path fill="none" stroke="black" d="M453.27,-243.81C448.99,-224.02 441.9,-191.29 436.87,-168.08"/>
<polygon fill="black" stroke="black" points="440.26,-167.19 434.72,-158.16 433.42,-168.67 440.26,-167.19"/>
</g>
<!-- n8 -->
<g id="node8" class="node">
<title>n8</title>
<polygon fill="lightcoral" stroke="black" points="856,-158 614.02,-140 856,-122 1097.98,-140 856,-158"/>
<text text-anchor="middle" x="856" y="-136.3" font-family="Arial" font-size="14.00">Partial understanding of habitat elements</text>
</g>
<!-- n4&#45;&gt;n8 -->
<g id="edge7" class="edge">
<title>n4&#45;&gt;n8</title>
<path fill="none" stroke="black" d="M832.87,-243.81C837.34,-223.91 844.77,-190.92 850,-167.68"/>
<polygon fill="black" stroke="black" points="853.45,-168.29 852.23,-157.77 846.62,-166.76 853.45,-168.29"/>
</g>
<!-- n10 -->
<g id="node9" class="node">
<title>n10</title>
<polygon fill="lightcoral" stroke="black" points="1406,-158 1155.98,-140 1406,-122 1656.02,-140 1406,-158"/>
<text text-anchor="middle" x="1406" y="-136.3" font-family="Arial" font-size="14.00">Incomplete understanding of seaweed role</text>
</g>
<!-- n4&#45;&gt;n10 -->
<g id="edge8" class="edge">
<title>n4&#45;&gt;n10</title>
<path fill="none" stroke="black" d="M910.75,-244C1024.1,-220.42 1227.3,-178.16 1334.8,-155.81"/>
<polygon fill="black" stroke="black" points="1335.82,-159.17 1344.9,-153.71 1334.4,-152.32 1335.82,-159.17"/>
</g>
<!-- n9 -->
<g id="node10" class="node">
<title>n9</title>
<polygon fill="#f28e8e" stroke="black" points="999,-36 713,-36 713,0 999,0 999,-36"/>
<text text-anchor="middle" x="856" y="-14.3" font-family="Arial" font-size="14.00">Label additional habitat details for full context</text>
</g>
<!-- n8&#45;&gt;n9 -->
<g id="edge9" class="edge">
<title>n8&#45;&gt;n9</title>
<path fill="none" stroke="black" d="M856,-121.81C856,-102.11 856,-69.58 856,-46.39"/>
<polygon fill="black" stroke="black" points="859.5,-46.16 856,-36.16 852.5,-46.16 859.5,-46.16"/>
</g>
<!-- n11 -->
<g id="node11" class="node">
<title>n11</title>
<polygon fill="#f28e8e" stroke="black" points="1537.5,-36 1274.5,-36 1274.5,0 1537.5,0 1537.5,-36"/>
<text text-anchor="middle" x="1406" y="-14.3" font-family="Arial" font-size="14.00">Include role of seaweed in oxygen supply</text>
</g>
<!-- n10&#45;&gt;n11 -->
<g id="edge10" class="edge">
<title>n10&#45;&gt;n11</title>
<path fill="none" stroke="black" d="M1406,-121.81C1406,-102.11 1406,-69.58 1406,-46.39"/>
<polygon fill="black" stroke="black" points="1409.5,-46.16 1406,-36.16 1402.5,-46.16 1409.5,-46.16"/>
</g>
</g>
</svg>
