<?xml version="1.0" encoding="UTF-8" standalone="no"?>
<!DOCTYPE svg PUBLIC "-//W3C//DTD SVG 1.1//EN"
 "http://www.w3.org/Graphics/SVG/1.1/DTD/svg11.dtd">
<!-- Generated by graphviz version 2.43.0 (0)
 -->
<!-- Pages: 1 -->
<svg width="1082pt" height="288pt"
 viewBox="0.00 0.00 1081.50 288.00" xmlns="http://www.w3.org/2000/svg" xmlns:xlink="http://www.w3.org/1999/xlink">
<g id="graph0" class="graph" transform="scale(1 1) rotate(0) translate(4 284)">
<polygon fill="white" stroke="transparent" points="-4,4 -4,-284 1077.5,-284 1077.5,4 -4,4"/>
<!-- n1 -->
<g id="node1" class="node">
<title>n1</title>
<polygon fill="lightblue" stroke="black" points="416.5,-262 324.5,-280 140.5,-280 48.5,-262 140.5,-244 324.5,-244 416.5,-262"/>
<text text-anchor="middle" x="232.5" y="-258.3" font-family="Arial" font-size="14.00">Illustrate plants with and without water</text>
</g>
<!-- n2 -->
<g id="node2" class="node">
<title>n2</title>
<polygon fill="#fffdd0" stroke="black" points="199,-158 14,-158 14,-122 199,-122 199,-158"/>
<text text-anchor="middle" x="106.5" y="-136.3" font-family="Arial" font-size="14.00">Vibrant plant labeled &#39;Water&#39;</text>
</g>
<!-- n1&#45;&gt;n2 -->
<g id="edge1" class="edge">
<title>n1&#45;&gt;n2</title>
<path fill="none" stroke="black" d="M214.45,-243.81C192.83,-223.22 156.49,-188.61 132.02,-165.3"/>
<polygon fill="black" stroke="black" points="134.18,-162.52 124.52,-158.16 129.35,-167.59 134.18,-162.52"/>
</g>
<!-- n3 -->
<g id="node3" class="node">
<title>n3</title>
<polygon fill="#fffdd0" stroke="black" points="488,-158 283,-158 283,-122 488,-122 488,-158"/>
<text text-anchor="middle" x="385.5" y="-136.3" font-family="Arial" font-size="14.00">Wilting plant labeled &#39;No Water&#39;</text>
</g>
<!-- n1&#45;&gt;n3 -->
<g id="edge2" class="edge">
<title>n1&#45;&gt;n3</title>
<path fill="none" stroke="black" d="M254.42,-243.81C281.01,-222.96 325.94,-187.71 355.67,-164.4"/>
<polygon fill="black" stroke="black" points="357.91,-167.09 363.62,-158.16 353.59,-161.58 357.91,-167.09"/>
</g>
<!-- n4 -->
<g id="node4" class="node">
<title>n4</title>
<path fill="palegreen" stroke="black" d="M149,-36C149,-36 12,-36 12,-36 6,-36 0,-30 0,-24 0,-24 0,-12 0,-12 0,-6 6,0 12,0 12,0 149,0 149,0 155,0 161,-6 161,-12 161,-12 161,-24 161,-24 161,-30 155,-36 149,-36"/>
<text text-anchor="middle" x="80.5" y="-14.3" font-family="Arial" font-size="14.00">Water helps plants grow</text>
</g>
<!-- n2&#45;&gt;n4 -->
<g id="edge3" class="edge">
<title>n2&#45;&gt;n4</title>
<path fill="none" stroke="black" d="M102.77,-121.81C98.49,-102.02 91.4,-69.29 86.37,-46.08"/>
<polygon fill="black" stroke="black" points="89.76,-45.19 84.22,-36.16 82.91,-46.68 89.76,-45.19"/>
</g>
<!-- n5 -->
<g id="node5" class="node">
<title>n5</title>
<path fill="palegreen" stroke="black" d="M539.5,-36C539.5,-36 231.5,-36 231.5,-36 225.5,-36 219.5,-30 219.5,-24 219.5,-24 219.5,-12 219.5,-12 219.5,-6 225.5,0 231.5,0 231.5,0 539.5,0 539.5,0 545.5,0 551.5,-6 551.5,-12 551.5,-12 551.5,-24 551.5,-24 551.5,-30 545.5,-36 539.5,-36"/>
<text text-anchor="middle" x="385.5" y="-14.3" font-family="Arial" font-size="14.00">Student understands plant needs water to be healthy</text>
</g>
<!-- n3&#45;&gt;n5 -->
<g id="edge4" class="edge">
<title>n3&#45;&gt;n5</title>
<path fill="none" stroke="black" d="M385.5,-121.81C385.5,-102.11 385.5,-69.58 385.5,-46.39"/>
<polygon fill="black" stroke="black" points="389,-46.16 385.5,-36.16 382,-46.16 389,-46.16"/>
</g>
<!-- n6 -->
<g id="node6" class="node">
<title>n6</title>
<path fill="palegreen" stroke="black" d="M1061.5,-36C1061.5,-36 621.5,-36 621.5,-36 615.5,-36 609.5,-30 609.5,-24 609.5,-24 609.5,-12 609.5,-12 609.5,-6 615.5,0 621.5,0 621.5,0 1061.5,0 1061.5,0 1067.5,0 1073.5,-6 1073.5,-12 1073.5,-12 1073.5,-24 1073.5,-24 1073.5,-30 1067.5,-36 1061.5,-36"/>
<text text-anchor="middle" x="841.5" y="-14.3" font-family="Arial" font-size="14.00">Student understands difference between hydrated and non&#45;hydrated plants</text>
</g>
<!-- n3&#45;&gt;n6 -->
<g id="edge5" class="edge">
<title>n3&#45;&gt;n6</title>
<path fill="none" stroke="black" d="M450.35,-121.93C533.93,-99.94 678.92,-61.78 766.96,-38.62"/>
<polygon fill="black" stroke="black" points="768.09,-41.94 776.87,-36.01 766.31,-35.17 768.09,-41.94"/>
</g>
</g>
</svg>
