<?xml version="1.0" encoding="UTF-8" standalone="no"?>
<!DOCTYPE svg PUBLIC "-//W3C//DTD SVG 1.1//EN"
 "http://www.w3.org/Graphics/SVG/1.1/DTD/svg11.dtd">
<!-- Generated by graphviz version 2.43.0 (0)
 -->
<!-- Pages: 1 -->
<svg width="1230pt" height="410pt"
 viewBox="0.00 0.00 1229.50 410.00" xmlns="http://www.w3.org/2000/svg" xmlns:xlink="http://www.w3.org/1999/xlink">
<g id="graph0" class="graph" transform="scale(1 1) rotate(0) translate(4 406)">
<polygon fill="white" stroke="transparent" points="-4,4 -4,-406 1225.5,-406 1225.5,4 -4,4"/>
<!-- n1 -->
<g id="node1" class="node">
<title>n1</title>
<polygon fill="lightblue" stroke="black" points="672.5,-384 581.25,-402 398.75,-402 307.5,-384 398.75,-366 581.25,-366 672.5,-384"/>
<text text-anchor="middle" x="490" y="-380.3" font-family="Arial" font-size="14.00">Draw reversible changes (ice melting)</text>
</g>
<!-- n2 -->
<g id="node2" class="node">
<title>n2</title>
<polygon fill="#fffdd0" stroke="black" points="325.5,-280 166.5,-280 166.5,-244 325.5,-244 325.5,-280"/>
<text text-anchor="middle" x="246" y="-258.3" font-family="Arial" font-size="14.00">Block of ice (solid state)</text>
</g>
<!-- n1&#45;&gt;n2 -->
<g id="edge1" class="edge">
<title>n1&#45;&gt;n2</title>
<path fill="none" stroke="black" d="M455.3,-365.93C411.76,-344.52 337.06,-307.78 289.68,-284.48"/>
<polygon fill="black" stroke="black" points="291.1,-281.28 280.58,-280.01 288.01,-287.56 291.1,-281.28"/>
</g>
<!-- n3 -->
<g id="node3" class="node">
<title>n3</title>
<polygon fill="#fffdd0" stroke="black" points="584,-280 396,-280 396,-244 584,-244 584,-280"/>
<text text-anchor="middle" x="490" y="-258.3" font-family="Arial" font-size="14.00">Puddle of water (liquid state)</text>
</g>
<!-- n1&#45;&gt;n3 -->
<g id="edge2" class="edge">
<title>n1&#45;&gt;n3</title>
<path fill="none" stroke="black" d="M490,-365.81C490,-346.11 490,-313.58 490,-290.39"/>
<polygon fill="black" stroke="black" points="493.5,-290.16 490,-280.16 486.5,-290.16 493.5,-290.16"/>
</g>
<!-- n4 -->
<g id="node4" class="node">
<title>n4</title>
<polygon fill="#fffdd0" stroke="black" points="1037,-280 913,-280 913,-244 1037,-244 1037,-280"/>
<text text-anchor="middle" x="975" y="-258.3" font-family="Arial" font-size="14.00">Sun (heat source)</text>
</g>
<!-- n1&#45;&gt;n4 -->
<g id="edge3" class="edge">
<title>n1&#45;&gt;n4</title>
<path fill="none" stroke="black" d="M558.72,-366C649.86,-343.45 810.01,-303.82 902.85,-280.85"/>
<polygon fill="black" stroke="black" points="903.86,-284.21 912.73,-278.41 902.18,-277.41 903.86,-284.21"/>
</g>
<!-- n5 -->
<g id="node5" class="node">
<title>n5</title>
<path fill="palegreen" stroke="black" d="M182,-158C182,-158 12,-158 12,-158 6,-158 0,-152 0,-146 0,-146 0,-134 0,-134 0,-128 6,-122 12,-122 12,-122 182,-122 182,-122 188,-122 194,-128 194,-134 194,-134 194,-146 194,-146 194,-152 188,-158 182,-158"/>
<text text-anchor="middle" x="97" y="-136.3" font-family="Arial" font-size="14.00">Correctly shows ice as a solid</text>
</g>
<!-- n2&#45;&gt;n5 -->
<g id="edge4" class="edge">
<title>n2&#45;&gt;n5</title>
<path fill="none" stroke="black" d="M224.65,-243.81C198.87,-223.04 155.37,-188.01 126.42,-164.7"/>
<polygon fill="black" stroke="black" points="128.29,-161.71 118.31,-158.16 123.9,-167.16 128.29,-161.71"/>
</g>
<!-- n6 -->
<g id="node6" class="node">
<title>n6</title>
<path fill="palegreen" stroke="black" d="M443.5,-158C443.5,-158 264.5,-158 264.5,-158 258.5,-158 252.5,-152 252.5,-146 252.5,-146 252.5,-134 252.5,-134 252.5,-128 258.5,-122 264.5,-122 264.5,-122 443.5,-122 443.5,-122 449.5,-122 455.5,-128 455.5,-134 455.5,-134 455.5,-146 455.5,-146 455.5,-152 449.5,-158 443.5,-158"/>
<text text-anchor="middle" x="354" y="-136.3" font-family="Arial" font-size="14.00">Correctly shows water as liquid</text>
</g>
<!-- n3&#45;&gt;n6 -->
<g id="edge5" class="edge">
<title>n3&#45;&gt;n6</title>
<path fill="none" stroke="black" d="M470.51,-243.81C447.08,-223.13 407.62,-188.31 381.2,-165"/>
<polygon fill="black" stroke="black" points="383.26,-162.15 373.45,-158.16 378.63,-167.4 383.26,-162.15"/>
</g>
<!-- n8 -->
<g id="node7" class="node">
<title>n8</title>
<polygon fill="lightcoral" stroke="black" points="728,-158 513.67,-140 728,-122 942.33,-140 728,-158"/>
<text text-anchor="middle" x="728" y="-136.3" font-family="Arial" font-size="14.00">Missing depiction of cooling process</text>
</g>
<!-- n3&#45;&gt;n8 -->
<g id="edge6" class="edge">
<title>n3&#45;&gt;n8</title>
<path fill="none" stroke="black" d="M523.85,-243.93C567.67,-221.84 643.85,-183.43 689.73,-160.3"/>
<polygon fill="black" stroke="black" points="691.41,-163.37 698.76,-155.74 688.26,-157.12 691.41,-163.37"/>
</g>
<!-- n7 -->
<g id="node8" class="node">
<title>n7</title>
<path fill="palegreen" stroke="black" d="M1209.5,-158C1209.5,-158 1012.5,-158 1012.5,-158 1006.5,-158 1000.5,-152 1000.5,-146 1000.5,-146 1000.5,-134 1000.5,-134 1000.5,-128 1006.5,-122 1012.5,-122 1012.5,-122 1209.5,-122 1209.5,-122 1215.5,-122 1221.5,-128 1221.5,-134 1221.5,-134 1221.5,-146 1221.5,-146 1221.5,-152 1215.5,-158 1209.5,-158"/>
<text text-anchor="middle" x="1111" y="-136.3" font-family="Arial" font-size="14.00">Identifies heat as cause of melting</text>
</g>
<!-- n4&#45;&gt;n7 -->
<g id="edge7" class="edge">
<title>n4&#45;&gt;n7</title>
<path fill="none" stroke="black" d="M994.49,-243.81C1017.9,-223.13 1057.4,-188.31 1083.8,-165"/>
<polygon fill="black" stroke="black" points="1086.39,-167.38 1091.6,-158.16 1081.77,-162.12 1086.39,-167.38"/>
</g>
<!-- n9 -->
<g id="node9" class="node">
<title>n9</title>
<polygon fill="#f28e8e" stroke="black" points="894,-36 562,-36 562,0 894,0 894,-36"/>
<text text-anchor="middle" x="728" y="-14.3" font-family="Arial" font-size="14.00">Include cooling process (water back to ice) with label</text>
</g>
<!-- n8&#45;&gt;n9 -->
<g id="edge8" class="edge">
<title>n8&#45;&gt;n9</title>
<path fill="none" stroke="black" d="M728,-121.81C728,-102.11 728,-69.58 728,-46.39"/>
<polygon fill="black" stroke="black" points="731.5,-46.16 728,-36.16 724.5,-46.16 731.5,-46.16"/>
</g>
</g>
</svg>
