<?xml version="1.0" encoding="UTF-8" standalone="no"?>
<!DOCTYPE svg PUBLIC "-//W3C//DTD SVG 1.1//EN"
 "http://www.w3.org/Graphics/SVG/1.1/DTD/svg11.dtd">
<!-- Generated by graphviz version 2.43.0 (0)
 -->
<!-- Pages: 1 -->
<svg width="1170pt" height="532pt"
 viewBox="0.00 0.00 1169.50 532.00" xmlns="http://www.w3.org/2000/svg" xmlns:xlink="http://www.w3.org/1999/xlink">
<g id="graph0" class="graph" transform="scale(1 1) rotate(0) translate(4 528)">
<polygon fill="white" stroke="transparent" points="-4,4 -4,-528 1165.5,-528 1165.5,4 -4,4"/>
<!-- n1 -->
<g id="node1" class="node">
<title>n1</title>
<polygon fill="lightblue" stroke="black" points="855,-506 763.75,-524 581.25,-524 490,-506 581.25,-488 763.75,-488 855,-506"/>
<text text-anchor="middle" x="672.5" y="-502.3" font-family="Arial" font-size="14.00">Draw reversible changes (ice melting)</text>
</g>
<!-- n2 -->
<g id="node2" class="node">
<title>n2</title>
<polygon fill="#fffdd0" stroke="black" points="290,-402 111,-402 111,-366 290,-366 290,-402"/>
<text text-anchor="middle" x="200.5" y="-380.3" font-family="Arial" font-size="14.00">Illustration of solid ice cube</text>
</g>
<!-- n1&#45;&gt;n2 -->
<g id="edge1" class="edge">
<title>n1&#45;&gt;n2</title>
<path fill="none" stroke="black" d="M605.38,-487.93C518.69,-465.9 368.17,-427.63 277.11,-404.48"/>
<polygon fill="black" stroke="black" points="277.94,-401.08 267.39,-402.01 276.22,-407.87 277.94,-401.08"/>
</g>
<!-- n3 -->
<g id="node3" class="node">
<title>n3</title>
<polygon fill="#fffdd0" stroke="black" points="604.5,-402 390.5,-402 390.5,-366 604.5,-366 604.5,-402"/>
<text text-anchor="middle" x="497.5" y="-380.3" font-family="Arial" font-size="14.00">Illustration of melting ice to water</text>
</g>
<!-- n1&#45;&gt;n3 -->
<g id="edge2" class="edge">
<title>n1&#45;&gt;n3</title>
<path fill="none" stroke="black" d="M647.43,-487.81C616.89,-466.87 565.18,-431.41 531.19,-408.1"/>
<polygon fill="black" stroke="black" points="532.76,-404.93 522.53,-402.16 528.8,-410.7 532.76,-404.93"/>
</g>
<!-- n4 -->
<g id="node4" class="node">
<title>n4</title>
<polygon fill="#fffdd0" stroke="black" points="938,-402 677,-402 677,-366 938,-366 938,-402"/>
<text text-anchor="middle" x="807.5" y="-380.3" font-family="Arial" font-size="14.00">Illustration of refreezing water to solid ice</text>
</g>
<!-- n1&#45;&gt;n4 -->
<g id="edge3" class="edge">
<title>n1&#45;&gt;n4</title>
<path fill="none" stroke="black" d="M691.84,-487.81C715.1,-467.13 754.27,-432.31 780.5,-409"/>
<polygon fill="black" stroke="black" points="783.04,-411.42 788.19,-402.16 778.39,-406.19 783.04,-411.42"/>
</g>
<!-- n5 -->
<g id="node5" class="node">
<title>n5</title>
<polygon fill="#fffdd0" stroke="black" points="1161.5,-158 873.5,-158 873.5,-122 1161.5,-122 1161.5,-158"/>
<text text-anchor="middle" x="1017.5" y="-136.3" font-family="Arial" font-size="14.00">Illustration of irreversible change: cooked egg</text>
</g>
<!-- n1&#45;&gt;n5 -->
<g id="edge4" class="edge">
<title>n1&#45;&gt;n5</title>
<path fill="none" stroke="black" d="M776.4,-490.47C838.57,-476.94 915.37,-451.09 967.5,-402 1032.9,-340.45 1027.7,-221.67 1021.5,-168.22"/>
<polygon fill="black" stroke="black" points="1024.96,-167.67 1020.3,-158.15 1018.01,-168.49 1024.96,-167.67"/>
</g>
<!-- n6 -->
<g id="node6" class="node">
<title>n6</title>
<path fill="palegreen" stroke="black" d="M275,-280C275,-280 12,-280 12,-280 6,-280 0,-274 0,-268 0,-268 0,-256 0,-256 0,-250 6,-244 12,-244 12,-244 275,-244 275,-244 281,-244 287,-250 287,-256 287,-256 287,-268 287,-268 287,-274 281,-280 275,-280"/>
<text text-anchor="middle" x="143.5" y="-258.3" font-family="Arial" font-size="14.00">Understands that ice is a solid before heating</text>
</g>
<!-- n2&#45;&gt;n6 -->
<g id="edge5" class="edge">
<title>n2&#45;&gt;n6</title>
<path fill="none" stroke="black" d="M192.33,-365.81C182.85,-345.85 167.11,-312.7 156.06,-289.45"/>
<polygon fill="black" stroke="black" points="159.1,-287.69 151.65,-280.16 152.78,-290.69 159.1,-287.69"/>
</g>
<!-- n7 -->
<g id="node7" class="node">
<title>n7</title>
<path fill="palegreen" stroke="black" d="M609.5,-280C609.5,-280 357.5,-280 357.5,-280 351.5,-280 345.5,-274 345.5,-268 345.5,-268 345.5,-256 345.5,-256 345.5,-250 351.5,-244 357.5,-244 357.5,-244 609.5,-244 609.5,-244 615.5,-244 621.5,-250 621.5,-256 621.5,-256 621.5,-268 621.5,-268 621.5,-274 615.5,-280 609.5,-280"/>
<text text-anchor="middle" x="483.5" y="-258.3" font-family="Arial" font-size="14.00">Understands melting is a reversible change</text>
</g>
<!-- n3&#45;&gt;n7 -->
<g id="edge6" class="edge">
<title>n3&#45;&gt;n7</title>
<path fill="none" stroke="black" d="M495.49,-365.81C493.2,-346.11 489.4,-313.58 486.7,-290.39"/>
<polygon fill="black" stroke="black" points="490.14,-289.68 485.5,-280.16 483.19,-290.5 490.14,-289.68"/>
</g>
<!-- n8 -->
<g id="node8" class="node">
<title>n8</title>
<path fill="palegreen" stroke="black" d="M977,-280C977,-280 692,-280 692,-280 686,-280 680,-274 680,-268 680,-268 680,-256 680,-256 680,-250 686,-244 692,-244 692,-244 977,-244 977,-244 983,-244 989,-250 989,-256 989,-256 989,-268 989,-268 989,-274 983,-280 977,-280"/>
<text text-anchor="middle" x="834.5" y="-258.3" font-family="Arial" font-size="14.00">Understands refreezing as the reverse of melting</text>
</g>
<!-- n4&#45;&gt;n8 -->
<g id="edge7" class="edge">
<title>n4&#45;&gt;n8</title>
<path fill="none" stroke="black" d="M811.37,-365.81C815.82,-346.02 823.19,-313.29 828.41,-290.08"/>
<polygon fill="black" stroke="black" points="831.86,-290.68 830.64,-280.16 825.03,-289.15 831.86,-290.68"/>
</g>
<!-- n9 -->
<g id="node9" class="node">
<title>n9</title>
<path fill="palegreen" stroke="black" d="M903.5,-36C903.5,-36 655.5,-36 655.5,-36 649.5,-36 643.5,-30 643.5,-24 643.5,-24 643.5,-12 643.5,-12 643.5,-6 649.5,0 655.5,0 655.5,0 903.5,0 903.5,0 909.5,0 915.5,-6 915.5,-12 915.5,-12 915.5,-24 915.5,-24 915.5,-30 909.5,-36 903.5,-36"/>
<text text-anchor="middle" x="779.5" y="-14.3" font-family="Arial" font-size="14.00">Understands cooking an egg is irreversible</text>
</g>
<!-- n5&#45;&gt;n9 -->
<g id="edge8" class="edge">
<title>n5&#45;&gt;n9</title>
<path fill="none" stroke="black" d="M983.65,-121.93C941.27,-100.57 868.63,-63.94 822.39,-40.63"/>
<polygon fill="black" stroke="black" points="823.73,-37.38 813.23,-36.01 820.58,-43.63 823.73,-37.38"/>
</g>
<!-- n10 -->
<g id="node10" class="node">
<title>n10</title>
<polygon fill="#f28e8e" stroke="black" points="756.5,-158 446.5,-158 446.5,-122 756.5,-122 756.5,-158"/>
<text text-anchor="middle" x="601.5" y="-136.3" font-family="Arial" font-size="14.00">Clear and accurate labeling needed for all stages</text>
</g>
<!-- n6&#45;&gt;n10 -->
<g id="edge9" class="edge">
<title>n6&#45;&gt;n10</title>
<path fill="none" stroke="black" d="M208.63,-243.93C292.66,-221.92 438.51,-183.71 526.9,-160.55"/>
<polygon fill="black" stroke="black" points="527.8,-163.93 536.59,-158.01 526.03,-157.16 527.8,-163.93"/>
</g>
<!-- n7&#45;&gt;n10 -->
<g id="edge10" class="edge">
<title>n7&#45;&gt;n10</title>
<path fill="none" stroke="black" d="M500.41,-243.81C520.65,-223.22 554.68,-188.61 577.6,-165.3"/>
<polygon fill="black" stroke="black" points="580.1,-167.74 584.62,-158.16 575.11,-162.84 580.1,-167.74"/>
</g>
<!-- n8&#45;&gt;n10 -->
<g id="edge11" class="edge">
<title>n8&#45;&gt;n10</title>
<path fill="none" stroke="black" d="M801.12,-243.81C759.68,-222.47 688.97,-186.05 643.78,-162.77"/>
<polygon fill="black" stroke="black" points="645.31,-159.62 634.82,-158.16 642.11,-165.85 645.31,-159.62"/>
</g>
<!-- n10&#45;&gt;n9 -->
<g id="edge12" class="edge">
<title>n10&#45;&gt;n9</title>
<path fill="none" stroke="black" d="M627,-121.81C658.2,-100.78 711.11,-65.11 745.68,-41.8"/>
<polygon fill="black" stroke="black" points="747.71,-44.66 754.04,-36.16 743.79,-38.85 747.71,-44.66"/>
</g>
</g>
</svg>
