<?xml version="1.0" encoding="UTF-8" standalone="no"?>
<!DOCTYPE svg PUBLIC "-//W3C//DTD SVG 1.1//EN"
 "http://www.w3.org/Graphics/SVG/1.1/DTD/svg11.dtd">
<!-- Generated by graphviz version 2.43.0 (0)
 -->
<!-- Pages: 1 -->
<svg width="1663pt" height="410pt"
 viewBox="0.00 0.00 1663.00 410.00" xmlns="http://www.w3.org/2000/svg" xmlns:xlink="http://www.w3.org/1999/xlink">
<g id="graph0" class="graph" transform="scale(1 1) rotate(0) translate(4 406)">
<polygon fill="white" stroke="transparent" points="-4,4 -4,-406 1659,-406 1659,4 -4,4"/>
<!-- n1 -->
<g id="node1" class="node">
<title>n1</title>
<polygon fill="lightblue" stroke="black" points="703,-384 572.75,-402 312.25,-402 182,-384 312.25,-366 572.75,-366 703,-384"/>
<text text-anchor="middle" x="442.5" y="-380.3" font-family="Arial" font-size="14.00">Draw two habitats and the different living things in each</text>
</g>
<!-- n2 -->
<g id="node2" class="node">
<title>n2</title>
<polygon fill="#fffdd0" stroke="black" points="399.5,-280 207.5,-280 207.5,-244 399.5,-244 399.5,-280"/>
<text text-anchor="middle" x="303.5" y="-258.3" font-family="Arial" font-size="14.00">Land Habitat: Tree, Bird, Dog</text>
</g>
<!-- n1&#45;&gt;n2 -->
<g id="edge1" class="edge">
<title>n1&#45;&gt;n2</title>
<path fill="none" stroke="black" d="M422.58,-365.81C398.53,-345.04 357.96,-310.01 330.95,-286.7"/>
<polygon fill="black" stroke="black" points="333.24,-284.05 323.38,-280.16 328.66,-289.35 333.24,-284.05"/>
</g>
<!-- n3 -->
<g id="node3" class="node">
<title>n3</title>
<polygon fill="#fffdd0" stroke="black" points="810,-280 561,-280 561,-244 810,-244 810,-280"/>
<text text-anchor="middle" x="685.5" y="-258.3" font-family="Arial" font-size="14.00">Water Habitat: Fish, Dolphin, Cat, Tree</text>
</g>
<!-- n1&#45;&gt;n3 -->
<g id="edge2" class="edge">
<title>n1&#45;&gt;n3</title>
<path fill="none" stroke="black" d="M477.06,-365.93C520.42,-344.52 594.81,-307.78 642,-284.48"/>
<polygon fill="black" stroke="black" points="643.64,-287.57 651.06,-280.01 640.54,-281.3 643.64,-287.57"/>
</g>
<!-- n4 -->
<g id="node4" class="node">
<title>n4</title>
<path fill="palegreen" stroke="black" d="M181,-158C181,-158 12,-158 12,-158 6,-158 0,-152 0,-146 0,-146 0,-134 0,-134 0,-128 6,-122 12,-122 12,-122 181,-122 181,-122 187,-122 193,-128 193,-134 193,-134 193,-146 193,-146 193,-152 187,-158 181,-158"/>
<text text-anchor="middle" x="96.5" y="-136.3" font-family="Arial" font-size="14.00">Identifies tree in both habitats</text>
</g>
<!-- n2&#45;&gt;n4 -->
<g id="edge3" class="edge">
<title>n2&#45;&gt;n4</title>
<path fill="none" stroke="black" d="M273.84,-243.81C237.26,-222.6 174.99,-186.5 134.82,-163.21"/>
<polygon fill="black" stroke="black" points="136.51,-160.14 126.1,-158.16 133,-166.2 136.51,-160.14"/>
</g>
<!-- n5 -->
<g id="node5" class="node">
<title>n5</title>
<path fill="palegreen" stroke="black" d="M469.5,-158C469.5,-158 263.5,-158 263.5,-158 257.5,-158 251.5,-152 251.5,-146 251.5,-146 251.5,-134 251.5,-134 251.5,-128 257.5,-122 263.5,-122 263.5,-122 469.5,-122 469.5,-122 475.5,-122 481.5,-128 481.5,-134 481.5,-134 481.5,-146 481.5,-146 481.5,-152 475.5,-158 469.5,-158"/>
<text text-anchor="middle" x="366.5" y="-136.3" font-family="Arial" font-size="14.00">Correct placement of water animals</text>
</g>
<!-- n3&#45;&gt;n5 -->
<g id="edge4" class="edge">
<title>n3&#45;&gt;n5</title>
<path fill="none" stroke="black" d="M640.13,-243.93C582.5,-222.25 483.1,-184.86 421.29,-161.61"/>
<polygon fill="black" stroke="black" points="422.3,-158.25 411.71,-158.01 419.84,-164.8 422.3,-158.25"/>
</g>
<!-- n6 -->
<g id="node6" class="node">
<title>n6</title>
<polygon fill="lightcoral" stroke="black" points="789.5,-158 539.48,-140 789.5,-122 1039.52,-140 789.5,-158"/>
<text text-anchor="middle" x="789.5" y="-136.3" font-family="Arial" font-size="14.00">Misplacement of land animal (cat) in water</text>
</g>
<!-- n3&#45;&gt;n6 -->
<g id="edge5" class="edge">
<title>n3&#45;&gt;n6</title>
<path fill="none" stroke="black" d="M700.4,-243.81C718.39,-223.05 748.73,-188.04 768.94,-164.73"/>
<polygon fill="black" stroke="black" points="771.72,-166.86 775.62,-157.01 766.43,-162.28 771.72,-166.86"/>
</g>
<!-- n7 -->
<g id="node7" class="node">
<title>n7</title>
<polygon fill="lightcoral" stroke="black" points="1376.5,-158 1097.99,-140 1376.5,-122 1655.01,-140 1376.5,-158"/>
<text text-anchor="middle" x="1376.5" y="-136.3" font-family="Arial" font-size="14.00">Reuse of trees in both habitats shows confusion</text>
</g>
<!-- n3&#45;&gt;n7 -->
<g id="edge6" class="edge">
<title>n3&#45;&gt;n7</title>
<path fill="none" stroke="black" d="M783.4,-244C920.43,-220.2 1166.9,-177.4 1294.7,-155.21"/>
<polygon fill="black" stroke="black" points="1295.55,-158.61 1304.8,-153.45 1294.35,-151.72 1295.55,-158.61"/>
</g>
<!-- n8 -->
<g id="node8" class="node">
<title>n8</title>
<polygon fill="#f28e8e" stroke="black" points="967,-36 612,-36 612,0 967,0 967,-36"/>
<text text-anchor="middle" x="789.5" y="-14.3" font-family="Arial" font-size="14.00">Ensure animals are habitat&#45;specific: Cats belong on land</text>
</g>
<!-- n6&#45;&gt;n8 -->
<g id="edge7" class="edge">
<title>n6&#45;&gt;n8</title>
<path fill="none" stroke="black" d="M789.5,-121.81C789.5,-102.11 789.5,-69.58 789.5,-46.39"/>
<polygon fill="black" stroke="black" points="793,-46.16 789.5,-36.16 786,-46.16 793,-46.16"/>
</g>
<!-- n9 -->
<g id="node9" class="node">
<title>n9</title>
<polygon fill="#f28e8e" stroke="black" points="1543.5,-36 1209.5,-36 1209.5,0 1543.5,0 1543.5,-36"/>
<text text-anchor="middle" x="1376.5" y="-14.3" font-family="Arial" font-size="14.00">Clarify habitat distinction with different plants/animals</text>
</g>
<!-- n7&#45;&gt;n9 -->
<g id="edge8" class="edge">
<title>n7&#45;&gt;n9</title>
<path fill="none" stroke="black" d="M1376.5,-121.81C1376.5,-102.11 1376.5,-69.58 1376.5,-46.39"/>
<polygon fill="black" stroke="black" points="1380,-46.16 1376.5,-36.16 1373,-46.16 1380,-46.16"/>
</g>
</g>
</svg>
