<?xml version="1.0" encoding="UTF-8" standalone="no"?>
<!DOCTYPE svg PUBLIC "-//W3C//DTD SVG 1.1//EN"
 "http://www.w3.org/Graphics/SVG/1.1/DTD/svg11.dtd">
<!-- Generated by graphviz version 2.43.0 (0)
 -->
<!-- Pages: 1 -->
<svg width="1724pt" height="410pt"
 viewBox="0.00 0.00 1724.00 410.00" xmlns="http://www.w3.org/2000/svg" xmlns:xlink="http://www.w3.org/1999/xlink">
<g id="graph0" class="graph" transform="scale(1 1) rotate(0) translate(4 406)">
<polygon fill="white" stroke="transparent" points="-4,4 -4,-406 1720,-406 1720,4 -4,4"/>
<!-- n1 -->
<g id="node1" class="node">
<title>n1</title>
<polygon fill="lightblue" stroke="black" points="1189.32,-384 1066.91,-402 822.09,-402 699.68,-384 822.09,-366 1066.91,-366 1189.32,-384"/>
<text text-anchor="middle" x="944.5" y="-380.3" font-family="Arial" font-size="14.00">Draw a habitat and the different living things in each</text>
</g>
<!-- n2 -->
<g id="node2" class="node">
<title>n2</title>
<polygon fill="#fffdd0" stroke="black" points="538,-280 285,-280 285,-244 538,-244 538,-280"/>
<text text-anchor="middle" x="411.5" y="-258.3" font-family="Arial" font-size="14.00">Two distinct habitats: Garden and Pond</text>
</g>
<!-- n1&#45;&gt;n2 -->
<g id="edge1" class="edge">
<title>n1&#45;&gt;n2</title>
<path fill="none" stroke="black" d="M868.98,-366C770.87,-343.91 600.02,-305.44 497.17,-282.29"/>
<polygon fill="black" stroke="black" points="497.65,-278.81 487.13,-280.03 496.12,-285.64 497.65,-278.81"/>
</g>
<!-- n3 -->
<g id="node3" class="node">
<title>n3</title>
<polygon fill="#fffdd0" stroke="black" points="919,-280 602,-280 602,-244 919,-244 919,-280"/>
<text text-anchor="middle" x="760.5" y="-258.3" font-family="Arial" font-size="14.00">Garden: Tall green trees, red roses, yellow daisies</text>
</g>
<!-- n1&#45;&gt;n3 -->
<g id="edge2" class="edge">
<title>n1&#45;&gt;n3</title>
<path fill="none" stroke="black" d="M918.14,-365.81C885.89,-344.78 831.2,-309.11 795.46,-285.8"/>
<polygon fill="black" stroke="black" points="797.1,-282.69 786.81,-280.16 793.28,-288.55 797.1,-282.69"/>
</g>
<!-- n4 -->
<g id="node4" class="node">
<title>n4</title>
<polygon fill="#fffdd0" stroke="black" points="1282,-280 977,-280 977,-244 1282,-244 1282,-280"/>
<text text-anchor="middle" x="1129.5" y="-258.3" font-family="Arial" font-size="14.00">Pond: Blue water, green lilypads, fish, frog, clam</text>
</g>
<!-- n1&#45;&gt;n4 -->
<g id="edge3" class="edge">
<title>n1&#45;&gt;n4</title>
<path fill="none" stroke="black" d="M971.01,-365.81C1003.4,-344.78 1058.4,-309.11 1094.3,-285.8"/>
<polygon fill="black" stroke="black" points="1096.51,-288.54 1103,-280.16 1092.71,-282.66 1096.51,-288.54"/>
</g>
<!-- n5 -->
<g id="node5" class="node">
<title>n5</title>
<polygon fill="#fffdd0" stroke="black" points="1483,-280 1340,-280 1340,-244 1483,-244 1483,-280"/>
<text text-anchor="middle" x="1411.5" y="-258.3" font-family="Arial" font-size="14.00">Squirrels, ants, lizard</text>
</g>
<!-- n1&#45;&gt;n5 -->
<g id="edge4" class="edge">
<title>n1&#45;&gt;n5</title>
<path fill="none" stroke="black" d="M1010.9,-365.93C1096.6,-343.92 1245.3,-305.71 1335.4,-282.55"/>
<polygon fill="black" stroke="black" points="1336.48,-285.89 1345.3,-280.01 1334.74,-279.11 1336.48,-285.89"/>
</g>
<!-- n6 -->
<g id="node6" class="node">
<title>n6</title>
<path fill="palegreen" stroke="black" d="M295,-158C295,-158 12,-158 12,-158 6,-158 0,-152 0,-146 0,-146 0,-134 0,-134 0,-128 6,-122 12,-122 12,-122 295,-122 295,-122 301,-122 307,-128 307,-134 307,-134 307,-146 307,-146 307,-152 301,-158 295,-158"/>
<text text-anchor="middle" x="153.5" y="-136.3" font-family="Arial" font-size="14.00">Garden and Pond depict land and water habitats</text>
</g>
<!-- n2&#45;&gt;n6 -->
<g id="edge5" class="edge">
<title>n2&#45;&gt;n6</title>
<path fill="none" stroke="black" d="M374.81,-243.93C328.67,-222.48 249.46,-185.63 199.37,-162.33"/>
<polygon fill="black" stroke="black" points="200.6,-159.04 190.06,-158.01 197.66,-165.39 200.6,-159.04"/>
</g>
<!-- n7 -->
<g id="node7" class="node">
<title>n7</title>
<path fill="palegreen" stroke="black" d="M640,-158C640,-158 377,-158 377,-158 371,-158 365,-152 365,-146 365,-146 365,-134 365,-134 365,-128 371,-122 377,-122 377,-122 640,-122 640,-122 646,-122 652,-128 652,-134 652,-134 652,-146 652,-146 652,-152 646,-158 640,-158"/>
<text text-anchor="middle" x="508.5" y="-136.3" font-family="Arial" font-size="14.00">Diverse plants: Trees, roses, daisies, lilypads</text>
</g>
<!-- n3&#45;&gt;n7 -->
<g id="edge6" class="edge">
<title>n3&#45;&gt;n7</title>
<path fill="none" stroke="black" d="M724.66,-243.93C679.6,-222.48 602.23,-185.63 553.3,-162.33"/>
<polygon fill="black" stroke="black" points="554.74,-159.14 544.21,-158.01 551.74,-165.46 554.74,-159.14"/>
</g>
<!-- n9 -->
<g id="node8" class="node">
<title>n9</title>
<polygon fill="lightcoral" stroke="black" points="1012.5,-158 710,-140 1012.5,-122 1315,-140 1012.5,-158"/>
<text text-anchor="middle" x="1012.5" y="-136.3" font-family="Arial" font-size="14.00">Possible struggle with labeling less prominent plants</text>
</g>
<!-- n3&#45;&gt;n9 -->
<g id="edge7" class="edge">
<title>n3&#45;&gt;n9</title>
<path fill="none" stroke="black" d="M796.34,-243.93C842.58,-221.91 922.85,-183.69 971.48,-160.53"/>
<polygon fill="black" stroke="black" points="973.24,-163.57 980.77,-156.11 970.24,-157.25 973.24,-163.57"/>
</g>
<!-- n8 -->
<g id="node9" class="node">
<title>n8</title>
<path fill="palegreen" stroke="black" d="M1704,-158C1704,-158 1385,-158 1385,-158 1379,-158 1373,-152 1373,-146 1373,-146 1373,-134 1373,-134 1373,-128 1379,-122 1385,-122 1385,-122 1704,-122 1704,-122 1710,-122 1716,-128 1716,-134 1716,-134 1716,-146 1716,-146 1716,-152 1710,-158 1704,-158"/>
<text text-anchor="middle" x="1544.5" y="-136.3" font-family="Arial" font-size="14.00">Diverse animals: Squirrels, ants, lizard, fish, frog, clam</text>
</g>
<!-- n4&#45;&gt;n8 -->
<g id="edge8" class="edge">
<title>n4&#45;&gt;n8</title>
<path fill="none" stroke="black" d="M1188.5,-243.93C1264.3,-222.03 1395.5,-184.09 1475.7,-160.9"/>
<polygon fill="black" stroke="black" points="1477.06,-164.15 1485.7,-158.01 1475.12,-157.42 1477.06,-164.15"/>
</g>
<!-- n10 -->
<g id="node10" class="node">
<title>n10</title>
<polygon fill="#f28e8e" stroke="black" points="1189,-36 836,-36 836,0 1189,0 1189,-36"/>
<text text-anchor="middle" x="1012.5" y="-14.3" font-family="Arial" font-size="14.00">Ensure all plants, even less prominent ones, are labeled</text>
</g>
<!-- n9&#45;&gt;n10 -->
<g id="edge9" class="edge">
<title>n9&#45;&gt;n10</title>
<path fill="none" stroke="black" d="M1012.5,-121.81C1012.5,-102.11 1012.5,-69.58 1012.5,-46.39"/>
<polygon fill="black" stroke="black" points="1016,-46.16 1012.5,-36.16 1009,-46.16 1016,-46.16"/>
</g>
</g>
</svg>
