<?xml version="1.0" encoding="UTF-8" standalone="no"?>
<!DOCTYPE svg PUBLIC "-//W3C//DTD SVG 1.1//EN"
 "http://www.w3.org/Graphics/SVG/1.1/DTD/svg11.dtd">
<!-- Generated by graphviz version 2.43.0 (0)
 -->
<!-- Pages: 1 -->
<svg width="1823pt" height="410pt"
 viewBox="0.00 0.00 1822.50 410.00" xmlns="http://www.w3.org/2000/svg" xmlns:xlink="http://www.w3.org/1999/xlink">
<g id="graph0" class="graph" transform="scale(1 1) rotate(0) translate(4 406)">
<polygon fill="white" stroke="transparent" points="-4,4 -4,-406 1818.5,-406 1818.5,4 -4,4"/>
<!-- n1 -->
<g id="node1" class="node">
<title>n1</title>
<polygon fill="lightblue" stroke="black" points="873.82,-384 751.41,-402 506.59,-402 384.18,-384 506.59,-366 751.41,-366 873.82,-384"/>
<text text-anchor="middle" x="629" y="-380.3" font-family="Arial" font-size="14.00">Draw a habitat and the different living things in each</text>
</g>
<!-- n2 -->
<g id="node2" class="node">
<title>n2</title>
<polygon fill="#fffdd0" stroke="black" points="342.5,-280 151.5,-280 151.5,-244 342.5,-244 342.5,-280"/>
<text text-anchor="middle" x="247" y="-258.3" font-family="Arial" font-size="14.00">Simple land and water scene</text>
</g>
<!-- n1&#45;&gt;n2 -->
<g id="edge1" class="edge">
<title>n1&#45;&gt;n2</title>
<path fill="none" stroke="black" d="M574.67,-365.93C505.09,-344.07 384.67,-306.25 310.8,-283.04"/>
<polygon fill="black" stroke="black" points="311.73,-279.66 301.14,-280.01 309.63,-286.34 311.73,-279.66"/>
</g>
<!-- n3 -->
<g id="node3" class="node">
<title>n3</title>
<polygon fill="#fffdd0" stroke="black" points="1059,-280 823,-280 823,-244 1059,-244 1059,-280"/>
<text text-anchor="middle" x="941" y="-258.3" font-family="Arial" font-size="14.00">Circles representing animals on land</text>
</g>
<!-- n1&#45;&gt;n3 -->
<g id="edge2" class="edge">
<title>n1&#45;&gt;n3</title>
<path fill="none" stroke="black" d="M673.37,-365.93C729.74,-344.25 826.95,-306.86 887.41,-283.61"/>
<polygon fill="black" stroke="black" points="888.7,-286.86 896.78,-280.01 886.19,-280.33 888.7,-286.86"/>
</g>
<!-- n4 -->
<g id="node4" class="node">
<title>n4</title>
<polygon fill="#fffdd0" stroke="black" points="765,-280 493,-280 493,-244 765,-244 765,-280"/>
<text text-anchor="middle" x="629" y="-258.3" font-family="Arial" font-size="14.00">Blob shapes representing animals in water</text>
</g>
<!-- n1&#45;&gt;n4 -->
<g id="edge3" class="edge">
<title>n1&#45;&gt;n4</title>
<path fill="none" stroke="black" d="M629,-365.81C629,-346.11 629,-313.58 629,-290.39"/>
<polygon fill="black" stroke="black" points="632.5,-290.16 629,-280.16 625.5,-290.16 632.5,-290.16"/>
</g>
<!-- n5 -->
<g id="node5" class="node">
<title>n5</title>
<path fill="palegreen" stroke="black" d="M298,-158C298,-158 12,-158 12,-158 6,-158 0,-152 0,-146 0,-146 0,-134 0,-134 0,-128 6,-122 12,-122 12,-122 298,-122 298,-122 304,-122 310,-128 310,-134 310,-134 310,-146 310,-146 310,-152 304,-158 298,-158"/>
<text text-anchor="middle" x="155" y="-136.3" font-family="Arial" font-size="14.00">Basic understanding of land and water distinction</text>
</g>
<!-- n2&#45;&gt;n5 -->
<g id="edge4" class="edge">
<title>n2&#45;&gt;n5</title>
<path fill="none" stroke="black" d="M233.82,-243.81C218.24,-223.49 192.19,-189.51 174.33,-166.21"/>
<polygon fill="black" stroke="black" points="177.02,-163.97 168.16,-158.16 171.47,-168.23 177.02,-163.97"/>
</g>
<!-- n6 -->
<g id="node6" class="node">
<title>n6</title>
<polygon fill="lightcoral" stroke="black" points="1264,-158 947.62,-140 1264,-122 1580.38,-140 1264,-158"/>
<text text-anchor="middle" x="1264" y="-136.3" font-family="Arial" font-size="14.00">Lacks detailed labels and proper placement of animals</text>
</g>
<!-- n3&#45;&gt;n6 -->
<g id="edge5" class="edge">
<title>n3&#45;&gt;n6</title>
<path fill="none" stroke="black" d="M986.93,-243.93C1047.1,-221.58 1152.2,-182.52 1214.3,-159.48"/>
<polygon fill="black" stroke="black" points="1215.66,-162.71 1223.8,-155.93 1213.21,-156.15 1215.66,-162.71"/>
</g>
<!-- n7 -->
<g id="node7" class="node">
<title>n7</title>
<polygon fill="lightcoral" stroke="black" points="629,-158 367.92,-140 629,-122 890.08,-140 629,-158"/>
<text text-anchor="middle" x="629" y="-136.3" font-family="Arial" font-size="14.00">Does not accurately distinguish habitat types</text>
</g>
<!-- n3&#45;&gt;n7 -->
<g id="edge6" class="edge">
<title>n3&#45;&gt;n7</title>
<path fill="none" stroke="black" d="M896.63,-243.93C838.3,-221.5 736.25,-182.25 676.44,-159.24"/>
<polygon fill="black" stroke="black" points="677.44,-155.87 666.85,-155.56 674.93,-162.41 677.44,-155.87"/>
</g>
<!-- n4&#45;&gt;n6 -->
<g id="edge7" class="edge">
<title>n4&#45;&gt;n6</title>
<path fill="none" stroke="black" d="M718.97,-244C843.31,-220.5 1065.7,-178.47 1184.3,-156.05"/>
<polygon fill="black" stroke="black" points="1185.22,-159.44 1194.4,-154.14 1183.92,-152.56 1185.22,-159.44"/>
</g>
<!-- n4&#45;&gt;n7 -->
<g id="edge8" class="edge">
<title>n4&#45;&gt;n7</title>
<path fill="none" stroke="black" d="M629,-243.81C629,-224.11 629,-191.58 629,-168.39"/>
<polygon fill="black" stroke="black" points="632.5,-168.16 629,-158.16 625.5,-168.16 632.5,-168.16"/>
</g>
<!-- n8 -->
<g id="node8" class="node">
<title>n8</title>
<polygon fill="#f28e8e" stroke="black" points="1379,-36 1005,-36 1005,0 1379,0 1379,-36"/>
<text text-anchor="middle" x="1192" y="-14.3" font-family="Arial" font-size="14.00">Include labels for specific land habitats (e.g., forest, garden)</text>
</g>
<!-- n6&#45;&gt;n8 -->
<g id="edge9" class="edge">
<title>n6&#45;&gt;n8</title>
<path fill="none" stroke="black" d="M1254,-122.31C1242,-102.3 1221.7,-68.52 1207.6,-45.06"/>
<polygon fill="black" stroke="black" points="1210.52,-43.13 1202.4,-36.32 1204.5,-46.7 1210.52,-43.13"/>
</g>
<!-- n9 -->
<g id="node9" class="node">
<title>n9</title>
<polygon fill="#f28e8e" stroke="black" points="1814.5,-36 1437.5,-36 1437.5,0 1814.5,0 1814.5,-36"/>
<text text-anchor="middle" x="1626" y="-14.3" font-family="Arial" font-size="14.00">Include labels for specific water habitats (e.g., pond, stream)</text>
</g>
<!-- n6&#45;&gt;n9 -->
<g id="edge10" class="edge">
<title>n6&#45;&gt;n9</title>
<path fill="none" stroke="black" d="M1308,-124.41C1372.4,-103.07 1492.5,-63.27 1565.2,-39.15"/>
<polygon fill="black" stroke="black" points="1566.31,-42.47 1574.7,-36 1564.11,-35.83 1566.31,-42.47"/>
</g>
<!-- n10 -->
<g id="node10" class="node">
<title>n10</title>
<polygon fill="#f28e8e" stroke="black" points="538,-36 208,-36 208,0 538,0 538,-36"/>
<text text-anchor="middle" x="373" y="-14.3" font-family="Arial" font-size="14.00">Illustrate specific animals and plants for each habitat</text>
</g>
<!-- n7&#45;&gt;n10 -->
<g id="edge11" class="edge">
<title>n7&#45;&gt;n10</title>
<path fill="none" stroke="black" d="M597.35,-124.17C552.52,-103.15 470.25,-64.59 418.77,-40.45"/>
<polygon fill="black" stroke="black" points="420.07,-37.2 409.53,-36.12 417.1,-43.54 420.07,-37.2"/>
</g>
<!-- n11 -->
<g id="node11" class="node">
<title>n11</title>
<polygon fill="#f28e8e" stroke="black" points="804,-36 596,-36 596,0 804,0 804,-36"/>
<text text-anchor="middle" x="700" y="-14.3" font-family="Arial" font-size="14.00">Highlight patterns of biodiversity</text>
</g>
<!-- n7&#45;&gt;n11 -->
<g id="edge12" class="edge">
<title>n7&#45;&gt;n11</title>
<path fill="none" stroke="black" d="M638.87,-122.31C650.71,-102.3 670.7,-68.52 684.58,-45.06"/>
<polygon fill="black" stroke="black" points="687.67,-46.71 689.75,-36.32 681.65,-43.15 687.67,-46.71"/>
</g>
</g>
</svg>
