<?xml version="1.0" encoding="UTF-8" standalone="no"?>
<!DOCTYPE svg PUBLIC "-//W3C//DTD SVG 1.1//EN"
 "http://www.w3.org/Graphics/SVG/1.1/DTD/svg11.dtd">
<!-- Generated by graphviz version 2.43.0 (0)
 -->
<!-- Pages: 1 -->
<svg width="1453pt" height="410pt"
 viewBox="0.00 0.00 1452.50 410.00" xmlns="http://www.w3.org/2000/svg" xmlns:xlink="http://www.w3.org/1999/xlink">
<g id="graph0" class="graph" transform="scale(1 1) rotate(0) translate(4 406)">
<polygon fill="white" stroke="transparent" points="-4,4 -4,-406 1448.5,-406 1448.5,4 -4,4"/>
<!-- n1 -->
<g id="node1" class="node">
<title>n1</title>
<polygon fill="lightblue" stroke="black" points="1025,-384 861,-402 533,-402 369,-384 533,-366 861,-366 1025,-384"/>
<text text-anchor="middle" x="697" y="-380.3" font-family="Arial" font-size="14.00">Draw reversible and irreversible changes (ice melting vs. egg cooking)</text>
</g>
<!-- n2 -->
<g id="node2" class="node">
<title>n2</title>
<polygon fill="#fffdd0" stroke="black" points="637,-280 395,-280 395,-244 637,-244 637,-280"/>
<text text-anchor="middle" x="516" y="-258.3" font-family="Arial" font-size="14.00">Ice as a blue cube with water dripping</text>
</g>
<!-- n1&#45;&gt;n2 -->
<g id="edge1" class="edge">
<title>n1&#45;&gt;n2</title>
<path fill="none" stroke="black" d="M671.07,-365.81C639.35,-344.78 585.55,-309.11 550.39,-285.8"/>
<polygon fill="black" stroke="black" points="552.15,-282.77 541.88,-280.16 548.28,-288.6 552.15,-282.77"/>
</g>
<!-- n3 -->
<g id="node3" class="node">
<title>n3</title>
<polygon fill="#fffdd0" stroke="black" points="1008.5,-280 749.5,-280 749.5,-244 1008.5,-244 1008.5,-280"/>
<text text-anchor="middle" x="879" y="-258.3" font-family="Arial" font-size="14.00">Raw egg in a pan with flame underneath</text>
</g>
<!-- n1&#45;&gt;n3 -->
<g id="edge2" class="edge">
<title>n1&#45;&gt;n3</title>
<path fill="none" stroke="black" d="M723.08,-365.81C754.97,-344.78 809.07,-309.11 844.42,-285.8"/>
<polygon fill="black" stroke="black" points="846.55,-288.59 852.97,-280.16 842.7,-282.74 846.55,-288.59"/>
</g>
<!-- n4 -->
<g id="node4" class="node">
<title>n4</title>
<path fill="palegreen" stroke="black" d="M250,-158C250,-158 12,-158 12,-158 6,-158 0,-152 0,-146 0,-146 0,-134 0,-134 0,-128 6,-122 12,-122 12,-122 250,-122 250,-122 256,-122 262,-128 262,-134 262,-134 262,-146 262,-146 262,-152 256,-158 250,-158"/>
<text text-anchor="middle" x="131" y="-136.3" font-family="Arial" font-size="14.00">Water dripping from ice indicates melting</text>
</g>
<!-- n2&#45;&gt;n4 -->
<g id="edge3" class="edge">
<title>n2&#45;&gt;n4</title>
<path fill="none" stroke="black" d="M461.25,-243.93C391.11,-222.07 269.75,-184.25 195.3,-161.04"/>
<polygon fill="black" stroke="black" points="196.15,-157.64 185.56,-158.01 194.07,-164.32 196.15,-157.64"/>
</g>
<!-- n6 -->
<g id="node5" class="node">
<title>n6</title>
<polygon fill="lightcoral" stroke="black" points="516,-158 320,-140 516,-122 712,-140 516,-158"/>
<text text-anchor="middle" x="516" y="-136.3" font-family="Arial" font-size="14.00">Reversible change (ice → water)</text>
</g>
<!-- n2&#45;&gt;n6 -->
<g id="edge4" class="edge">
<title>n2&#45;&gt;n6</title>
<path fill="none" stroke="black" d="M516,-243.81C516,-224.11 516,-191.58 516,-168.39"/>
<polygon fill="black" stroke="black" points="519.5,-168.16 516,-158.16 512.5,-168.16 519.5,-168.16"/>
</g>
<!-- n5 -->
<g id="node6" class="node">
<title>n5</title>
<path fill="palegreen" stroke="black" d="M976,-158C976,-158 782,-158 782,-158 776,-158 770,-152 770,-146 770,-146 770,-134 770,-134 770,-128 776,-122 782,-122 782,-122 976,-122 976,-122 982,-122 988,-128 988,-134 988,-134 988,-146 988,-146 988,-152 982,-158 976,-158"/>
<text text-anchor="middle" x="879" y="-136.3" font-family="Arial" font-size="14.00">Heat causing egg to change state</text>
</g>
<!-- n3&#45;&gt;n5 -->
<g id="edge5" class="edge">
<title>n3&#45;&gt;n5</title>
<path fill="none" stroke="black" d="M879,-243.81C879,-224.11 879,-191.58 879,-168.39"/>
<polygon fill="black" stroke="black" points="882.5,-168.16 879,-158.16 875.5,-168.16 882.5,-168.16"/>
</g>
<!-- n7 -->
<g id="node7" class="node">
<title>n7</title>
<polygon fill="lightcoral" stroke="black" points="1245,-158 1045.5,-140 1245,-122 1444.5,-140 1245,-158"/>
<text text-anchor="middle" x="1245" y="-136.3" font-family="Arial" font-size="14.00">Irreversible change (egg cooking)</text>
</g>
<!-- n3&#45;&gt;n7 -->
<g id="edge6" class="edge">
<title>n3&#45;&gt;n7</title>
<path fill="none" stroke="black" d="M931.05,-243.93C1001.1,-220.96 1125,-180.35 1194.3,-157.61"/>
<polygon fill="black" stroke="black" points="1195.77,-160.81 1204.2,-154.39 1193.61,-154.15 1195.77,-160.81"/>
</g>
<!-- n8 -->
<g id="node8" class="node">
<title>n8</title>
<polygon fill="#f28e8e" stroke="black" points="627,-36 405,-36 405,0 627,0 627,-36"/>
<text text-anchor="middle" x="516" y="-14.3" font-family="Arial" font-size="14.00">Show water can freeze back to ice</text>
</g>
<!-- n6&#45;&gt;n8 -->
<g id="edge7" class="edge">
<title>n6&#45;&gt;n8</title>
<path fill="none" stroke="black" d="M516,-121.81C516,-102.11 516,-69.58 516,-46.39"/>
<polygon fill="black" stroke="black" points="519.5,-46.16 516,-36.16 512.5,-46.16 519.5,-46.16"/>
</g>
<!-- n9 -->
<g id="node9" class="node">
<title>n9</title>
<polygon fill="#f28e8e" stroke="black" points="1391.5,-36 1098.5,-36 1098.5,0 1391.5,0 1391.5,-36"/>
<text text-anchor="middle" x="1245" y="-14.3" font-family="Arial" font-size="14.00">Explain cooked egg cannot become raw again</text>
</g>
<!-- n7&#45;&gt;n9 -->
<g id="edge8" class="edge">
<title>n7&#45;&gt;n9</title>
<path fill="none" stroke="black" d="M1245,-121.81C1245,-102.11 1245,-69.58 1245,-46.39"/>
<polygon fill="black" stroke="black" points="1248.5,-46.16 1245,-36.16 1241.5,-46.16 1248.5,-46.16"/>
</g>
</g>
</svg>
