<?xml version="1.0" encoding="UTF-8" standalone="no"?>
<!DOCTYPE svg PUBLIC "-//W3C//DTD SVG 1.1//EN"
 "http://www.w3.org/Graphics/SVG/1.1/DTD/svg11.dtd">
<!-- Generated by graphviz version 2.43.0 (0)
 -->
<!-- Pages: 1 -->
<svg width="2211pt" height="410pt"
 viewBox="0.00 0.00 2210.53 410.00" xmlns="http://www.w3.org/2000/svg" xmlns:xlink="http://www.w3.org/1999/xlink">
<g id="graph0" class="graph" transform="scale(1 1) rotate(0) translate(4 406)">
<polygon fill="white" stroke="transparent" points="-4,4 -4,-406 2206.53,-406 2206.53,4 -4,4"/>
<!-- n1 -->
<g id="node1" class="node">
<title>n1</title>
<polygon fill="lightblue" stroke="black" points="1362.37,-384 1219.69,-402 934.31,-402 791.63,-384 934.31,-366 1219.69,-366 1362.37,-384"/>
<text text-anchor="middle" x="1077" y="-380.3" font-family="Arial" font-size="14.00">Draw animals in their habitats with labels (e.g., fish in water).</text>
</g>
<!-- n2 -->
<g id="node2" class="node">
<title>n2</title>
<polygon fill="#fffdd0" stroke="black" points="830.5,-280 503.5,-280 503.5,-244 830.5,-244 830.5,-280"/>
<text text-anchor="middle" x="667" y="-258.3" font-family="Arial" font-size="14.00">Drawing of a fish labeled &#39;fish&#39; with no water present</text>
</g>
<!-- n1&#45;&gt;n2 -->
<g id="edge1" class="edge">
<title>n1&#45;&gt;n2</title>
<path fill="none" stroke="black" d="M1018.7,-365.93C943.85,-344.03 814.23,-306.09 734.99,-282.9"/>
<polygon fill="black" stroke="black" points="735.68,-279.46 725.1,-280.01 733.72,-286.17 735.68,-279.46"/>
</g>
<!-- n3 -->
<g id="node3" class="node">
<title>n3</title>
<polygon fill="#fffdd0" stroke="black" points="1247,-280 907,-280 907,-244 1247,-244 1247,-280"/>
<text text-anchor="middle" x="1077" y="-258.3" font-family="Arial" font-size="14.00">Drawing of a deer labeled &#39;deer&#39; with no forest present</text>
</g>
<!-- n1&#45;&gt;n3 -->
<g id="edge2" class="edge">
<title>n1&#45;&gt;n3</title>
<path fill="none" stroke="black" d="M1077,-365.81C1077,-346.11 1077,-313.58 1077,-290.39"/>
<polygon fill="black" stroke="black" points="1080.5,-290.16 1077,-280.16 1073.5,-290.16 1080.5,-290.16"/>
</g>
<!-- n4 -->
<g id="node4" class="node">
<title>n4</title>
<polygon fill="#fffdd0" stroke="black" points="1860,-280 1464,-280 1464,-244 1860,-244 1860,-280"/>
<text text-anchor="middle" x="1662" y="-258.3" font-family="Arial" font-size="14.00">Drawing of colorful, simple flowers not associated with a habitat</text>
</g>
<!-- n1&#45;&gt;n4 -->
<g id="edge3" class="edge">
<title>n1&#45;&gt;n4</title>
<path fill="none" stroke="black" d="M1159.9,-366C1267.9,-343.84 1456.2,-305.21 1569,-282.08"/>
<polygon fill="black" stroke="black" points="1569.91,-285.47 1579,-280.03 1568.5,-278.61 1569.91,-285.47"/>
</g>
<!-- n5 -->
<g id="node5" class="node">
<title>n5</title>
<path fill="palegreen" stroke="black" d="M736,-158C736,-158 598,-158 598,-158 592,-158 586,-152 586,-146 586,-146 586,-134 586,-134 586,-128 592,-122 598,-122 598,-122 736,-122 736,-122 742,-122 748,-128 748,-134 748,-134 748,-146 748,-146 748,-152 742,-158 736,-158"/>
<text text-anchor="middle" x="667" y="-136.3" font-family="Arial" font-size="14.00">Labels animals correctly</text>
</g>
<!-- n2&#45;&gt;n5 -->
<g id="edge4" class="edge">
<title>n2&#45;&gt;n5</title>
<path fill="none" stroke="black" d="M667,-243.81C667,-224.11 667,-191.58 667,-168.39"/>
<polygon fill="black" stroke="black" points="670.5,-168.16 667,-158.16 663.5,-168.16 670.5,-168.16"/>
</g>
<!-- n6 -->
<g id="node6" class="node">
<title>n6</title>
<polygon fill="lightcoral" stroke="black" points="264,-158 0,-140 264,-122 528,-140 264,-158"/>
<text text-anchor="middle" x="264" y="-136.3" font-family="Arial" font-size="14.00">Misunderstanding: Fish is not shown in water</text>
</g>
<!-- n2&#45;&gt;n6 -->
<g id="edge5" class="edge">
<title>n2&#45;&gt;n6</title>
<path fill="none" stroke="black" d="M609.69,-243.93C532.74,-221.02 396.88,-180.57 320.4,-157.79"/>
<polygon fill="black" stroke="black" points="321.05,-154.33 310.47,-154.84 319.06,-161.04 321.05,-154.33"/>
</g>
<!-- n3&#45;&gt;n5 -->
<g id="edge6" class="edge">
<title>n3&#45;&gt;n5</title>
<path fill="none" stroke="black" d="M1018.7,-243.93C943.85,-222.03 814.23,-184.09 734.99,-160.9"/>
<polygon fill="black" stroke="black" points="735.68,-157.46 725.1,-158.01 733.72,-164.17 735.68,-157.46"/>
</g>
<!-- n7 -->
<g id="node7" class="node">
<title>n7</title>
<polygon fill="lightcoral" stroke="black" points="1095,-158 806.27,-140 1095,-122 1383.73,-140 1095,-158"/>
<text text-anchor="middle" x="1095" y="-136.3" font-family="Arial" font-size="14.00">Misunderstanding: Deer is not shown in the forest</text>
</g>
<!-- n3&#45;&gt;n7 -->
<g id="edge7" class="edge">
<title>n3&#45;&gt;n7</title>
<path fill="none" stroke="black" d="M1079.6,-243.81C1082.5,-224.02 1087.5,-191.29 1090.9,-168.08"/>
<polygon fill="black" stroke="black" points="1094.37,-168.57 1092.4,-158.16 1087.44,-167.52 1094.37,-168.57"/>
</g>
<!-- n8 -->
<g id="node8" class="node">
<title>n8</title>
<polygon fill="lightcoral" stroke="black" points="1822,-158 1441.44,-140 1822,-122 2202.56,-140 1822,-158"/>
<text text-anchor="middle" x="1822" y="-136.3" font-family="Arial" font-size="14.00">Misunderstanding: Flowers are not shown in context of their needs</text>
</g>
<!-- n4&#45;&gt;n8 -->
<g id="edge8" class="edge">
<title>n4&#45;&gt;n8</title>
<path fill="none" stroke="black" d="M1684.9,-243.81C1713.2,-222.6 1761.3,-186.51 1792.4,-163.22"/>
<polygon fill="black" stroke="black" points="1794.79,-165.8 1800.7,-157.01 1790.6,-160.2 1794.79,-165.8"/>
</g>
<!-- n9 -->
<g id="node9" class="node">
<title>n9</title>
<polygon fill="#f28e8e" stroke="black" points="433,-36 95,-36 95,0 433,0 433,-36"/>
<text text-anchor="middle" x="264" y="-14.3" font-family="Arial" font-size="14.00">Include water to show where a fish lives and its needs</text>
</g>
<!-- n6&#45;&gt;n9 -->
<g id="edge9" class="edge">
<title>n6&#45;&gt;n9</title>
<path fill="none" stroke="black" d="M264,-121.81C264,-102.11 264,-69.58 264,-46.39"/>
<polygon fill="black" stroke="black" points="267.5,-46.16 264,-36.16 260.5,-46.16 267.5,-46.16"/>
</g>
<!-- n10 -->
<g id="node10" class="node">
<title>n10</title>
<polygon fill="#f28e8e" stroke="black" points="1273,-36 917,-36 917,0 1273,0 1273,-36"/>
<text text-anchor="middle" x="1095" y="-14.3" font-family="Arial" font-size="14.00">Include a forest to show where a deer lives and its needs</text>
</g>
<!-- n7&#45;&gt;n10 -->
<g id="edge10" class="edge">
<title>n7&#45;&gt;n10</title>
<path fill="none" stroke="black" d="M1095,-121.81C1095,-102.11 1095,-69.58 1095,-46.39"/>
<polygon fill="black" stroke="black" points="1098.5,-46.16 1095,-36.16 1091.5,-46.16 1098.5,-46.16"/>
</g>
<!-- n11 -->
<g id="node11" class="node">
<title>n11</title>
<polygon fill="#f28e8e" stroke="black" points="1991,-36 1653,-36 1653,0 1991,0 1991,-36"/>
<text text-anchor="middle" x="1822" y="-14.3" font-family="Arial" font-size="14.00">Connect flowers with their need for sunlight and water</text>
</g>
<!-- n8&#45;&gt;n11 -->
<g id="edge11" class="edge">
<title>n8&#45;&gt;n11</title>
<path fill="none" stroke="black" d="M1822,-121.81C1822,-102.11 1822,-69.58 1822,-46.39"/>
<polygon fill="black" stroke="black" points="1825.5,-46.16 1822,-36.16 1818.5,-46.16 1825.5,-46.16"/>
</g>
</g>
</svg>
