<?xml version="1.0" encoding="UTF-8" standalone="no"?>
<!DOCTYPE svg PUBLIC "-//W3C//DTD SVG 1.1//EN"
 "http://www.w3.org/Graphics/SVG/1.1/DTD/svg11.dtd">
<!-- Generated by graphviz version 2.43.0 (0)
 -->
<!-- Pages: 1 -->
<svg width="1193pt" height="532pt"
 viewBox="0.00 0.00 1193.00 532.00" xmlns="http://www.w3.org/2000/svg" xmlns:xlink="http://www.w3.org/1999/xlink">
<g id="graph0" class="graph" transform="scale(1 1) rotate(0) translate(4 528)">
<polygon fill="white" stroke="transparent" points="-4,4 -4,-528 1189,-528 1189,4 -4,4"/>
<!-- n1 -->
<g id="node1" class="node">
<title>n1</title>
<polygon fill="lightblue" stroke="black" points="853,-506 722.75,-524 462.25,-524 332,-506 462.25,-488 722.75,-488 853,-506"/>
<text text-anchor="middle" x="592.5" y="-502.3" font-family="Arial" font-size="14.00">Draw two habitats and the different living things in each</text>
</g>
<!-- n2 -->
<g id="node2" class="node">
<title>n2</title>
<polygon fill="#fffdd0" stroke="black" points="518.5,-402 160.5,-402 160.5,-366 518.5,-366 518.5,-402"/>
<text text-anchor="middle" x="339.5" y="-380.3" font-family="Arial" font-size="14.00">Forest with tall green trees, grassy floor, and small plants</text>
</g>
<!-- n1&#45;&gt;n2 -->
<g id="edge1" class="edge">
<title>n1&#45;&gt;n2</title>
<path fill="none" stroke="black" d="M556.52,-487.93C511.28,-466.48 433.6,-429.63 384.48,-406.33"/>
<polygon fill="black" stroke="black" points="385.9,-403.13 375.36,-402.01 382.9,-409.45 385.9,-403.13"/>
</g>
<!-- n3 -->
<g id="node3" class="node">
<title>n3</title>
<polygon fill="#fffdd0" stroke="black" points="1116,-402 577,-402 577,-366 1116,-366 1116,-402"/>
<text text-anchor="middle" x="846.5" y="-380.3" font-family="Arial" font-size="14.00">Pond with blue water, lily pads, frog sitting on a pad, fish under water, turtle on the edge</text>
</g>
<!-- n1&#45;&gt;n3 -->
<g id="edge2" class="edge">
<title>n1&#45;&gt;n3</title>
<path fill="none" stroke="black" d="M628.62,-487.93C674.04,-466.48 752.03,-429.63 801.34,-406.33"/>
<polygon fill="black" stroke="black" points="802.95,-409.44 810.5,-402.01 799.96,-403.11 802.95,-409.44"/>
</g>
<!-- n4 -->
<g id="node4" class="node">
<title>n4</title>
<path fill="palegreen" stroke="black" d="M317,-280C317,-280 12,-280 12,-280 6,-280 0,-274 0,-268 0,-268 0,-256 0,-256 0,-250 6,-244 12,-244 12,-244 317,-244 317,-244 323,-244 329,-250 329,-256 329,-256 329,-268 329,-268 329,-274 323,-280 317,-280"/>
<text text-anchor="middle" x="164.5" y="-258.3" font-family="Arial" font-size="14.00">Includes various living things found in forest habitats</text>
</g>
<!-- n2&#45;&gt;n4 -->
<g id="edge3" class="edge">
<title>n2&#45;&gt;n4</title>
<path fill="none" stroke="black" d="M314.43,-365.81C283.89,-344.87 232.18,-309.41 198.19,-286.1"/>
<polygon fill="black" stroke="black" points="199.76,-282.93 189.53,-280.16 195.8,-288.7 199.76,-282.93"/>
</g>
<!-- n8 -->
<g id="node5" class="node">
<title>n8</title>
<path fill="palegreen" stroke="black" d="M789.5,-280C789.5,-280 399.5,-280 399.5,-280 393.5,-280 387.5,-274 387.5,-268 387.5,-268 387.5,-256 387.5,-256 387.5,-250 393.5,-244 399.5,-244 399.5,-244 789.5,-244 789.5,-244 795.5,-244 801.5,-250 801.5,-256 801.5,-256 801.5,-268 801.5,-268 801.5,-274 795.5,-280 789.5,-280"/>
<text text-anchor="middle" x="594.5" y="-258.3" font-family="Arial" font-size="14.00">Demonstrates understanding of habitat differentiation and diversity</text>
</g>
<!-- n2&#45;&gt;n8 -->
<g id="edge4" class="edge">
<title>n2&#45;&gt;n8</title>
<path fill="none" stroke="black" d="M375.76,-365.93C421.36,-344.48 499.66,-307.63 549.16,-284.33"/>
<polygon fill="black" stroke="black" points="550.8,-287.43 558.36,-280.01 547.82,-281.09 550.8,-287.43"/>
</g>
<!-- n3&#45;&gt;n8 -->
<g id="edge5" class="edge">
<title>n3&#45;&gt;n8</title>
<path fill="none" stroke="black" d="M810.66,-365.93C765.6,-344.48 688.23,-307.63 639.3,-284.33"/>
<polygon fill="black" stroke="black" points="640.74,-281.14 630.21,-280.01 637.74,-287.46 640.74,-281.14"/>
</g>
<!-- n5 -->
<g id="node6" class="node">
<title>n5</title>
<path fill="palegreen" stroke="black" d="M1173,-280C1173,-280 872,-280 872,-280 866,-280 860,-274 860,-268 860,-268 860,-256 860,-256 860,-250 866,-244 872,-244 872,-244 1173,-244 1173,-244 1179,-244 1185,-250 1185,-256 1185,-256 1185,-268 1185,-268 1185,-274 1179,-280 1173,-280"/>
<text text-anchor="middle" x="1022.5" y="-258.3" font-family="Arial" font-size="14.00">Includes various living things found in pond habitats</text>
</g>
<!-- n3&#45;&gt;n5 -->
<g id="edge6" class="edge">
<title>n3&#45;&gt;n5</title>
<path fill="none" stroke="black" d="M871.72,-365.81C902.56,-344.78 954.88,-309.11 989.06,-285.8"/>
<polygon fill="black" stroke="black" points="991.04,-288.69 997.33,-280.16 987.1,-282.9 991.04,-288.69"/>
</g>
<!-- n6 -->
<g id="node7" class="node">
<title>n6</title>
<polygon fill="lightcoral" stroke="black" points="594.5,-158 369.11,-140 594.5,-122 819.89,-140 594.5,-158"/>
<text text-anchor="middle" x="594.5" y="-136.3" font-family="Arial" font-size="14.00">Labeling lacks specific species names</text>
</g>
<!-- n8&#45;&gt;n6 -->
<g id="edge7" class="edge">
<title>n8&#45;&gt;n6</title>
<path fill="none" stroke="black" d="M594.5,-243.81C594.5,-224.11 594.5,-191.58 594.5,-168.39"/>
<polygon fill="black" stroke="black" points="598,-168.16 594.5,-158.16 591,-168.16 598,-168.16"/>
</g>
<!-- n7 -->
<g id="node8" class="node">
<title>n7</title>
<polygon fill="#f28e8e" stroke="black" points="748.5,-36 440.5,-36 440.5,0 748.5,0 748.5,-36"/>
<text text-anchor="middle" x="594.5" y="-14.3" font-family="Arial" font-size="14.00">Consider using specific species names for clarity</text>
</g>
<!-- n6&#45;&gt;n7 -->
<g id="edge8" class="edge">
<title>n6&#45;&gt;n7</title>
<path fill="none" stroke="black" d="M594.5,-121.81C594.5,-102.11 594.5,-69.58 594.5,-46.39"/>
<polygon fill="black" stroke="black" points="598,-46.16 594.5,-36.16 591,-46.16 598,-46.16"/>
</g>
</g>
</svg>
