<?xml version="1.0" encoding="UTF-8" standalone="no"?>
<!DOCTYPE svg PUBLIC "-//W3C//DTD SVG 1.1//EN"
 "http://www.w3.org/Graphics/SVG/1.1/DTD/svg11.dtd">
<!-- Generated by graphviz version 2.43.0 (0)
 -->
<!-- Pages: 1 -->
<svg width="1401pt" height="410pt"
 viewBox="0.00 0.00 1401.18 410.00" xmlns="http://www.w3.org/2000/svg" xmlns:xlink="http://www.w3.org/1999/xlink">
<g id="graph0" class="graph" transform="scale(1 1) rotate(0) translate(4 406)">
<polygon fill="white" stroke="transparent" points="-4,4 -4,-406 1397.18,-406 1397.18,4 -4,4"/>
<!-- n1 -->
<g id="node1" class="node">
<title>n1</title>
<polygon fill="lightblue" stroke="black" points="733.5,-384 622,-402 399,-402 287.5,-384 399,-366 622,-366 733.5,-384"/>
<text text-anchor="middle" x="510.5" y="-380.3" font-family="Arial" font-size="14.00">Draw a string telephone between two students.</text>
</g>
<!-- n2 -->
<g id="node2" class="node">
<title>n2</title>
<polygon fill="#fffdd0" stroke="black" points="307,-280 40,-280 40,-244 307,-244 307,-280"/>
<text text-anchor="middle" x="173.5" y="-258.3" font-family="Arial" font-size="14.00">Two stick figure students at opposite ends</text>
</g>
<!-- n1&#45;&gt;n2 -->
<g id="edge1" class="edge">
<title>n1&#45;&gt;n2</title>
<path fill="none" stroke="black" d="M462.57,-365.93C401.56,-344.21 296.25,-306.71 230.98,-283.47"/>
<polygon fill="black" stroke="black" points="231.85,-280.07 221.26,-280.01 229.51,-286.66 231.85,-280.07"/>
</g>
<!-- n3 -->
<g id="node3" class="node">
<title>n3</title>
<polygon fill="#fffdd0" stroke="black" points="651,-280 370,-280 370,-244 651,-244 651,-280"/>
<text text-anchor="middle" x="510.5" y="-258.3" font-family="Arial" font-size="14.00">Small pastel&#45;colored cups held to mouth/ear</text>
</g>
<!-- n1&#45;&gt;n3 -->
<g id="edge2" class="edge">
<title>n1&#45;&gt;n3</title>
<path fill="none" stroke="black" d="M510.5,-365.81C510.5,-346.11 510.5,-313.58 510.5,-290.39"/>
<polygon fill="black" stroke="black" points="514,-290.16 510.5,-280.16 507,-290.16 514,-290.16"/>
</g>
<!-- n4 -->
<g id="node4" class="node">
<title>n4</title>
<polygon fill="#fffdd0" stroke="black" points="1073,-280 814,-280 814,-244 1073,-244 1073,-280"/>
<text text-anchor="middle" x="943.5" y="-258.3" font-family="Arial" font-size="14.00">String slightly slack, connecting the cups</text>
</g>
<!-- n1&#45;&gt;n4 -->
<g id="edge3" class="edge">
<title>n1&#45;&gt;n4</title>
<path fill="none" stroke="black" d="M572.08,-365.93C651.36,-343.96 788.84,-305.86 872.46,-282.69"/>
<polygon fill="black" stroke="black" points="873.43,-286.05 882.13,-280.01 871.56,-279.31 873.43,-286.05"/>
</g>
<!-- n5 -->
<g id="node5" class="node">
<title>n5</title>
<path fill="palegreen" stroke="black" d="M315,-158C315,-158 12,-158 12,-158 6,-158 0,-152 0,-146 0,-146 0,-134 0,-134 0,-128 6,-122 12,-122 12,-122 315,-122 315,-122 321,-122 327,-128 327,-134 327,-134 327,-146 327,-146 327,-152 321,-158 315,-158"/>
<text text-anchor="middle" x="163.5" y="-136.3" font-family="Arial" font-size="14.00">Device shows communication using cups and string</text>
</g>
<!-- n2&#45;&gt;n5 -->
<g id="edge4" class="edge">
<title>n2&#45;&gt;n5</title>
<path fill="none" stroke="black" d="M172.07,-243.81C170.43,-224.11 167.72,-191.58 165.78,-168.39"/>
<polygon fill="black" stroke="black" points="169.25,-167.84 164.93,-158.16 162.27,-168.42 169.25,-167.84"/>
</g>
<!-- n3&#45;&gt;n5 -->
<g id="edge5" class="edge">
<title>n3&#45;&gt;n5</title>
<path fill="none" stroke="black" d="M461.15,-243.93C398.2,-222.16 289.45,-184.56 222.28,-161.33"/>
<polygon fill="black" stroke="black" points="223.27,-157.97 212.68,-158.01 220.99,-164.59 223.27,-157.97"/>
</g>
<!-- n6 -->
<g id="node6" class="node">
<title>n6</title>
<path fill="palegreen" stroke="black" d="M633.5,-158C633.5,-158 397.5,-158 397.5,-158 391.5,-158 385.5,-152 385.5,-146 385.5,-146 385.5,-134 385.5,-134 385.5,-128 391.5,-122 397.5,-122 397.5,-122 633.5,-122 633.5,-122 639.5,-122 645.5,-128 645.5,-134 645.5,-134 645.5,-146 645.5,-146 645.5,-152 639.5,-158 633.5,-158"/>
<text text-anchor="middle" x="515.5" y="-136.3" font-family="Arial" font-size="14.00">People using the device to communicate</text>
</g>
<!-- n3&#45;&gt;n6 -->
<g id="edge6" class="edge">
<title>n3&#45;&gt;n6</title>
<path fill="none" stroke="black" d="M511.22,-243.81C512.04,-224.11 513.39,-191.58 514.36,-168.39"/>
<polygon fill="black" stroke="black" points="517.87,-168.3 514.78,-158.16 510.87,-168.01 517.87,-168.3"/>
</g>
<!-- n7 -->
<g id="node7" class="node">
<title>n7</title>
<polygon fill="lightcoral" stroke="black" points="1048.5,-158 703.63,-140 1048.5,-122 1393.37,-140 1048.5,-158"/>
<text text-anchor="middle" x="1048.5" y="-136.3" font-family="Arial" font-size="14.00">Misunderstanding of tension needed for sound transmission</text>
</g>
<!-- n4&#45;&gt;n7 -->
<g id="edge7" class="edge">
<title>n4&#45;&gt;n7</title>
<path fill="none" stroke="black" d="M958.54,-243.81C976.6,-223.17 1007,-188.43 1027.4,-165.12"/>
<polygon fill="black" stroke="black" points="1030.22,-167.21 1034.2,-157.39 1024.97,-162.59 1030.22,-167.21"/>
</g>
<!-- n8 -->
<g id="node8" class="node">
<title>n8</title>
<polygon fill="#f28e8e" stroke="black" points="1243,-36 854,-36 854,0 1243,0 1243,-36"/>
<text text-anchor="middle" x="1048.5" y="-14.3" font-family="Arial" font-size="14.00">Explain importance of taut string for better sound transmission</text>
</g>
<!-- n7&#45;&gt;n8 -->
<g id="edge8" class="edge">
<title>n7&#45;&gt;n8</title>
<path fill="none" stroke="black" d="M1048.5,-121.81C1048.5,-102.11 1048.5,-69.58 1048.5,-46.39"/>
<polygon fill="black" stroke="black" points="1052,-46.16 1048.5,-36.16 1045,-46.16 1052,-46.16"/>
</g>
</g>
</svg>
