<?xml version="1.0" encoding="UTF-8" standalone="no"?>
<!DOCTYPE svg PUBLIC "-//W3C//DTD SVG 1.1//EN"
 "http://www.w3.org/Graphics/SVG/1.1/DTD/svg11.dtd">
<!-- Generated by graphviz version 2.43.0 (0)
 -->
<!-- Pages: 1 -->
<svg width="1606pt" height="410pt"
 viewBox="0.00 0.00 1606.00 410.00" xmlns="http://www.w3.org/2000/svg" xmlns:xlink="http://www.w3.org/1999/xlink">
<g id="graph0" class="graph" transform="scale(1 1) rotate(0) translate(4 406)">
<polygon fill="white" stroke="transparent" points="-4,4 -4,-406 1602,-406 1602,4 -4,4"/>
<!-- n1 -->
<g id="node1" class="node">
<title>n1</title>
<polygon fill="lightblue" stroke="black" points="1201.5,-384 1071.25,-402 810.75,-402 680.5,-384 810.75,-366 1071.25,-366 1201.5,-384"/>
<text text-anchor="middle" x="941" y="-380.3" font-family="Arial" font-size="14.00">Draw two habitats and the different living things in each</text>
</g>
<!-- n2 -->
<g id="node2" class="node">
<title>n2</title>
<polygon fill="#fffdd0" stroke="black" points="913,-280 675,-280 675,-244 913,-244 913,-280"/>
<text text-anchor="middle" x="794" y="-258.3" font-family="Arial" font-size="14.00">Land habitat with tree, grass, squirrel</text>
</g>
<!-- n1&#45;&gt;n2 -->
<g id="edge1" class="edge">
<title>n1&#45;&gt;n2</title>
<path fill="none" stroke="black" d="M919.94,-365.81C894.5,-345.04 851.59,-310.01 823.03,-286.7"/>
<polygon fill="black" stroke="black" points="824.98,-283.77 815.02,-280.16 820.55,-289.2 824.98,-283.77"/>
</g>
<!-- n3 -->
<g id="node3" class="node">
<title>n3</title>
<polygon fill="#fffdd0" stroke="black" points="1400.5,-280 1167.5,-280 1167.5,-244 1400.5,-244 1400.5,-280"/>
<text text-anchor="middle" x="1284" y="-258.3" font-family="Arial" font-size="14.00">Water habitat with fish, aquatic plant</text>
</g>
<!-- n1&#45;&gt;n3 -->
<g id="edge2" class="edge">
<title>n1&#45;&gt;n3</title>
<path fill="none" stroke="black" d="M989.78,-365.93C1052,-344.16 1159.5,-306.56 1225.9,-283.33"/>
<polygon fill="black" stroke="black" points="1227.11,-286.61 1235.4,-280.01 1224.81,-280.01 1227.11,-286.61"/>
</g>
<!-- n4 -->
<g id="node4" class="node">
<title>n4</title>
<path fill="palegreen" stroke="black" d="M216,-158C216,-158 12,-158 12,-158 6,-158 0,-152 0,-146 0,-146 0,-134 0,-134 0,-128 6,-122 12,-122 12,-122 216,-122 216,-122 222,-122 228,-128 228,-134 228,-134 228,-146 228,-146 228,-152 222,-158 216,-158"/>
<text text-anchor="middle" x="114" y="-136.3" font-family="Arial" font-size="14.00">Correct identification of land habitat</text>
</g>
<!-- n2&#45;&gt;n4 -->
<g id="edge3" class="edge">
<title>n2&#45;&gt;n4</title>
<path fill="none" stroke="black" d="M697.66,-244C571.6,-221.75 351.42,-182.9 220.53,-159.8"/>
<polygon fill="black" stroke="black" points="220.94,-156.32 210.48,-158.03 219.72,-163.21 220.94,-156.32"/>
</g>
<!-- n6 -->
<g id="node5" class="node">
<title>n6</title>
<polygon fill="lightcoral" stroke="black" points="525,-158 286,-140 525,-122 764,-140 525,-158"/>
<text text-anchor="middle" x="525" y="-136.3" font-family="Arial" font-size="14.00">Misplacement of squirrel in water habitat</text>
</g>
<!-- n2&#45;&gt;n6 -->
<g id="edge4" class="edge">
<title>n2&#45;&gt;n6</title>
<path fill="none" stroke="black" d="M755.74,-243.93C705.77,-221.64 618.56,-182.74 566.86,-159.67"/>
<polygon fill="black" stroke="black" points="568.2,-156.43 557.64,-155.56 565.35,-162.83 568.2,-156.43"/>
</g>
<!-- n7 -->
<g id="node6" class="node">
<title>n7</title>
<polygon fill="lightcoral" stroke="black" points="1063,-158 822,-140 1063,-122 1304,-140 1063,-158"/>
<text text-anchor="middle" x="1063" y="-136.3" font-family="Arial" font-size="14.00">Use of similar colors for different habitats</text>
</g>
<!-- n2&#45;&gt;n7 -->
<g id="edge5" class="edge">
<title>n2&#45;&gt;n7</title>
<path fill="none" stroke="black" d="M832.26,-243.93C882.23,-221.64 969.44,-182.74 1021.1,-159.67"/>
<polygon fill="black" stroke="black" points="1022.67,-162.8 1030.4,-155.56 1019.84,-156.4 1022.67,-162.8"/>
</g>
<!-- n5 -->
<g id="node7" class="node">
<title>n5</title>
<path fill="palegreen" stroke="black" d="M1586,-158C1586,-158 1374,-158 1374,-158 1368,-158 1362,-152 1362,-146 1362,-146 1362,-134 1362,-134 1362,-128 1368,-122 1374,-122 1374,-122 1586,-122 1586,-122 1592,-122 1598,-128 1598,-134 1598,-134 1598,-146 1598,-146 1598,-152 1592,-158 1586,-158"/>
<text text-anchor="middle" x="1480" y="-136.3" font-family="Arial" font-size="14.00">Correct identification of water habitat</text>
</g>
<!-- n3&#45;&gt;n5 -->
<g id="edge6" class="edge">
<title>n3&#45;&gt;n5</title>
<path fill="none" stroke="black" d="M1312.1,-243.81C1346.6,-222.69 1405.2,-186.81 1443.2,-163.51"/>
<polygon fill="black" stroke="black" points="1445.27,-166.35 1452,-158.16 1441.64,-160.36 1445.27,-166.35"/>
</g>
<!-- n8 -->
<g id="node8" class="node">
<title>n8</title>
<polygon fill="#f28e8e" stroke="black" points="665.5,-36 384.5,-36 384.5,0 665.5,0 665.5,-36"/>
<text text-anchor="middle" x="525" y="-14.3" font-family="Arial" font-size="14.00">Ensure correct animal placement in habitats</text>
</g>
<!-- n6&#45;&gt;n8 -->
<g id="edge7" class="edge">
<title>n6&#45;&gt;n8</title>
<path fill="none" stroke="black" d="M525,-121.81C525,-102.11 525,-69.58 525,-46.39"/>
<polygon fill="black" stroke="black" points="528.5,-46.16 525,-36.16 521.5,-46.16 528.5,-46.16"/>
</g>
<!-- n9 -->
<g id="node9" class="node">
<title>n9</title>
<polygon fill="#f28e8e" stroke="black" points="1187.5,-36 938.5,-36 938.5,0 1187.5,0 1187.5,-36"/>
<text text-anchor="middle" x="1063" y="-14.3" font-family="Arial" font-size="14.00">Use distinct colors to compare habitats</text>
</g>
<!-- n7&#45;&gt;n9 -->
<g id="edge8" class="edge">
<title>n7&#45;&gt;n9</title>
<path fill="none" stroke="black" d="M1063,-121.81C1063,-102.11 1063,-69.58 1063,-46.39"/>
<polygon fill="black" stroke="black" points="1066.5,-46.16 1063,-36.16 1059.5,-46.16 1066.5,-46.16"/>
</g>
</g>
</svg>
