<?xml version="1.0" encoding="UTF-8" standalone="no"?>
<!DOCTYPE svg PUBLIC "-//W3C//DTD SVG 1.1//EN"
 "http://www.w3.org/Graphics/SVG/1.1/DTD/svg11.dtd">
<!-- Generated by graphviz version 2.43.0 (0)
 -->
<!-- Pages: 1 -->
<svg width="945pt" height="410pt"
 viewBox="0.00 0.00 944.50 410.00" xmlns="http://www.w3.org/2000/svg" xmlns:xlink="http://www.w3.org/1999/xlink">
<g id="graph0" class="graph" transform="scale(1 1) rotate(0) translate(4 406)">
<polygon fill="white" stroke="transparent" points="-4,4 -4,-406 940.5,-406 940.5,4 -4,4"/>
<!-- n1 -->
<g id="node1" class="node">
<title>n1</title>
<polygon fill="lightblue" stroke="black" points="775,-384 683.75,-402 501.25,-402 410,-384 501.25,-366 683.75,-366 775,-384"/>
<text text-anchor="middle" x="592.5" y="-380.3" font-family="Arial" font-size="14.00">Draw reversible changes (ice melting)</text>
</g>
<!-- n2 -->
<g id="node2" class="node">
<title>n2</title>
<polygon fill="#fffdd0" stroke="black" points="524,-280 373,-280 373,-244 524,-244 524,-280"/>
<text text-anchor="middle" x="448.5" y="-258.3" font-family="Arial" font-size="14.00">Two rough blue circles</text>
</g>
<!-- n1&#45;&gt;n2 -->
<g id="edge1" class="edge">
<title>n1&#45;&gt;n2</title>
<path fill="none" stroke="black" d="M571.86,-365.81C546.95,-345.04 504.91,-310.01 476.93,-286.7"/>
<polygon fill="black" stroke="black" points="479.01,-283.88 469.09,-280.16 474.53,-289.25 479.01,-283.88"/>
</g>
<!-- n3 -->
<g id="node3" class="node">
<title>n3</title>
<polygon fill="#fffdd0" stroke="black" points="893,-280 582,-280 582,-244 893,-244 893,-280"/>
<text text-anchor="middle" x="737.5" y="-258.3" font-family="Arial" font-size="14.00">Short lines beneath one circle suggesting change</text>
</g>
<!-- n1&#45;&gt;n3 -->
<g id="edge2" class="edge">
<title>n1&#45;&gt;n3</title>
<path fill="none" stroke="black" d="M613.27,-365.81C638.36,-345.04 680.69,-310.01 708.86,-286.7"/>
<polygon fill="black" stroke="black" points="711.29,-289.23 716.76,-280.16 706.83,-283.84 711.29,-289.23"/>
</g>
<!-- n4 -->
<g id="node4" class="node">
<title>n4</title>
<polygon fill="lightcoral" stroke="black" points="200.5,-158 0,-140 200.5,-122 401,-140 200.5,-158"/>
<text text-anchor="middle" x="200.5" y="-136.3" font-family="Arial" font-size="14.00">Ice and water as separate entities</text>
</g>
<!-- n2&#45;&gt;n4 -->
<g id="edge3" class="edge">
<title>n2&#45;&gt;n4</title>
<path fill="none" stroke="black" d="M413.23,-243.93C367.22,-221.67 286.98,-182.85 239.29,-159.77"/>
<polygon fill="black" stroke="black" points="240.74,-156.58 230.21,-155.38 237.69,-162.88 240.74,-156.58"/>
</g>
<!-- n5 -->
<g id="node5" class="node">
<title>n5</title>
<polygon fill="lightcoral" stroke="black" points="697.5,-158 458.5,-140 697.5,-122 936.5,-140 697.5,-158"/>
<text text-anchor="middle" x="697.5" y="-136.3" font-family="Arial" font-size="14.00">Lack of transformation process depiction</text>
</g>
<!-- n2&#45;&gt;n5 -->
<g id="edge4" class="edge">
<title>n2&#45;&gt;n5</title>
<path fill="none" stroke="black" d="M483.91,-243.93C529.85,-221.79 609.79,-183.27 657.76,-160.15"/>
<polygon fill="black" stroke="black" points="659.42,-163.23 666.91,-155.74 656.38,-156.93 659.42,-163.23"/>
</g>
<!-- n6 -->
<g id="node6" class="node">
<title>n6</title>
<polygon fill="#f28e8e" stroke="black" points="378.5,-36 22.5,-36 22.5,0 378.5,0 378.5,-36"/>
<text text-anchor="middle" x="200.5" y="-14.3" font-family="Arial" font-size="14.00">Use arrows to show transition from ice to water and back</text>
</g>
<!-- n4&#45;&gt;n6 -->
<g id="edge5" class="edge">
<title>n4&#45;&gt;n6</title>
<path fill="none" stroke="black" d="M200.5,-121.81C200.5,-102.11 200.5,-69.58 200.5,-46.39"/>
<polygon fill="black" stroke="black" points="204,-46.16 200.5,-36.16 197,-46.16 204,-46.16"/>
</g>
<!-- n7 -->
<g id="node7" class="node">
<title>n7</title>
<polygon fill="#f28e8e" stroke="black" points="853,-36 542,-36 542,0 853,0 853,-36"/>
<text text-anchor="middle" x="697.5" y="-14.3" font-family="Arial" font-size="14.00">Add elements like drips or melting to show states</text>
</g>
<!-- n5&#45;&gt;n7 -->
<g id="edge6" class="edge">
<title>n5&#45;&gt;n7</title>
<path fill="none" stroke="black" d="M697.5,-121.81C697.5,-102.11 697.5,-69.58 697.5,-46.39"/>
<polygon fill="black" stroke="black" points="701,-46.16 697.5,-36.16 694,-46.16 701,-46.16"/>
</g>
</g>
</svg>
