<?xml version="1.0" encoding="UTF-8" standalone="no"?>
<!DOCTYPE svg PUBLIC "-//W3C//DTD SVG 1.1//EN"
 "http://www.w3.org/Graphics/SVG/1.1/DTD/svg11.dtd">
<!-- Generated by graphviz version 2.43.0 (0)
 -->
<!-- Pages: 1 -->
<svg width="1859pt" height="410pt"
 viewBox="0.00 0.00 1859.00 410.00" xmlns="http://www.w3.org/2000/svg" xmlns:xlink="http://www.w3.org/1999/xlink">
<g id="graph0" class="graph" transform="scale(1 1) rotate(0) translate(4 406)">
<polygon fill="white" stroke="transparent" points="-4,4 -4,-406 1855,-406 1855,4 -4,4"/>
<!-- n1 -->
<g id="node1" class="node">
<title>n1</title>
<polygon fill="lightblue" stroke="black" points="1252.5,-384 1141,-402 918,-402 806.5,-384 918,-366 1141,-366 1252.5,-384"/>
<text text-anchor="middle" x="1029.5" y="-380.3" font-family="Arial" font-size="14.00">Draw a string telephone between two students.</text>
</g>
<!-- n2 -->
<g id="node2" class="node">
<title>n2</title>
<polygon fill="#fffdd0" stroke="black" points="611,-280 336,-280 336,-244 611,-244 611,-280"/>
<text text-anchor="middle" x="473.5" y="-258.3" font-family="Arial" font-size="14.00">Girl with long hair speaking into yellow cup.</text>
</g>
<!-- n1&#45;&gt;n2 -->
<g id="edge1" class="edge">
<title>n1&#45;&gt;n2</title>
<path fill="none" stroke="black" d="M950.72,-366C848.17,-343.87 669.43,-305.29 562.21,-282.15"/>
<polygon fill="black" stroke="black" points="562.9,-278.72 552.39,-280.03 561.43,-285.56 562.9,-278.72"/>
</g>
<!-- n3 -->
<g id="node3" class="node">
<title>n3</title>
<polygon fill="#fffdd0" stroke="black" points="1325,-280 1092,-280 1092,-244 1325,-244 1325,-280"/>
<text text-anchor="middle" x="1208.5" y="-258.3" font-family="Arial" font-size="14.00">Boy with short hair holding blue cup.</text>
</g>
<!-- n1&#45;&gt;n3 -->
<g id="edge2" class="edge">
<title>n1&#45;&gt;n3</title>
<path fill="none" stroke="black" d="M1055.1,-365.81C1086.5,-344.78 1139.7,-309.11 1174.5,-285.8"/>
<polygon fill="black" stroke="black" points="1176.55,-288.64 1182.9,-280.16 1172.65,-282.83 1176.55,-288.64"/>
</g>
<!-- n4 -->
<g id="node4" class="node">
<title>n4</title>
<polygon fill="#fffdd0" stroke="black" points="1727.5,-280 1447.5,-280 1447.5,-244 1727.5,-244 1727.5,-280"/>
<text text-anchor="middle" x="1587.5" y="-258.3" font-family="Arial" font-size="14.00">Tight, straight pink string connects the cups.</text>
</g>
<!-- n1&#45;&gt;n4 -->
<g id="edge3" class="edge">
<title>n1&#45;&gt;n4</title>
<path fill="none" stroke="black" d="M1108.6,-366C1211.5,-343.87 1390.9,-305.29 1498.5,-282.15"/>
<polygon fill="black" stroke="black" points="1499.27,-285.57 1508.3,-280.03 1497.79,-278.72 1499.27,-285.57"/>
</g>
<!-- n5 -->
<g id="node5" class="node">
<title>n5</title>
<polygon fill="#fffdd0" stroke="black" points="1034,-280 669,-280 669,-244 1034,-244 1034,-280"/>
<text text-anchor="middle" x="851.5" y="-258.3" font-family="Arial" font-size="14.00">Arrows from girl&#39;s cup to boy&#39;s ear for sound transmission.</text>
</g>
<!-- n1&#45;&gt;n5 -->
<g id="edge4" class="edge">
<title>n1&#45;&gt;n5</title>
<path fill="none" stroke="black" d="M1004,-365.81C972.8,-344.78 919.89,-309.11 885.32,-285.8"/>
<polygon fill="black" stroke="black" points="887.2,-282.85 876.95,-280.16 883.29,-288.65 887.2,-282.85"/>
</g>
<!-- n6 -->
<g id="node6" class="node">
<title>n6</title>
<path fill="palegreen" stroke="black" d="M952.5,-158C952.5,-158 558.5,-158 558.5,-158 552.5,-158 546.5,-152 546.5,-146 546.5,-146 546.5,-134 546.5,-134 546.5,-128 552.5,-122 558.5,-122 558.5,-122 952.5,-122 952.5,-122 958.5,-122 964.5,-128 964.5,-134 964.5,-134 964.5,-146 964.5,-146 964.5,-152 958.5,-158 952.5,-158"/>
<text text-anchor="middle" x="755.5" y="-136.3" font-family="Arial" font-size="14.00">Correct understanding of how sound travels in the string telephone.</text>
</g>
<!-- n2&#45;&gt;n6 -->
<g id="edge5" class="edge">
<title>n2&#45;&gt;n6</title>
<path fill="none" stroke="black" d="M513.6,-243.93C564.24,-222.39 651.33,-185.32 706.04,-162.04"/>
<polygon fill="black" stroke="black" points="707.69,-165.14 715.53,-158.01 704.96,-158.7 707.69,-165.14"/>
</g>
<!-- n9 -->
<g id="node7" class="node">
<title>n9</title>
<polygon fill="lightcoral" stroke="black" points="244.5,-158 0,-140 244.5,-122 489,-140 244.5,-158"/>
<text text-anchor="middle" x="244.5" y="-136.3" font-family="Arial" font-size="14.00">Labels missing or incomplete on all parts.</text>
</g>
<!-- n2&#45;&gt;n9 -->
<g id="edge6" class="edge">
<title>n2&#45;&gt;n9</title>
<path fill="none" stroke="black" d="M440.69,-243.81C398.77,-221.84 326.39,-183.91 282.24,-160.78"/>
<polygon fill="black" stroke="black" points="283.75,-157.62 273.27,-156.08 280.5,-163.82 283.75,-157.62"/>
</g>
<!-- n7 -->
<g id="node8" class="node">
<title>n7</title>
<path fill="palegreen" stroke="black" d="M1382.5,-158C1382.5,-158 1034.5,-158 1034.5,-158 1028.5,-158 1022.5,-152 1022.5,-146 1022.5,-146 1022.5,-134 1022.5,-134 1022.5,-128 1028.5,-122 1034.5,-122 1034.5,-122 1382.5,-122 1382.5,-122 1388.5,-122 1394.5,-128 1394.5,-134 1394.5,-134 1394.5,-146 1394.5,-146 1394.5,-152 1388.5,-158 1382.5,-158"/>
<text text-anchor="middle" x="1208.5" y="-136.3" font-family="Arial" font-size="14.00">Sound can be sent and received using the string telephone.</text>
</g>
<!-- n3&#45;&gt;n7 -->
<g id="edge7" class="edge">
<title>n3&#45;&gt;n7</title>
<path fill="none" stroke="black" d="M1208.5,-243.81C1208.5,-224.11 1208.5,-191.58 1208.5,-168.39"/>
<polygon fill="black" stroke="black" points="1212,-168.16 1208.5,-158.16 1205,-168.16 1212,-168.16"/>
</g>
<!-- n8 -->
<g id="node9" class="node">
<title>n8</title>
<path fill="palegreen" stroke="black" d="M1839,-158C1839,-158 1464,-158 1464,-158 1458,-158 1452,-152 1452,-146 1452,-146 1452,-134 1452,-134 1452,-128 1458,-122 1464,-122 1464,-122 1839,-122 1839,-122 1845,-122 1851,-128 1851,-134 1851,-134 1851,-146 1851,-146 1851,-152 1845,-158 1839,-158"/>
<text text-anchor="middle" x="1651.5" y="-136.3" font-family="Arial" font-size="14.00">Understanding of the role of a tight string in sound transmission.</text>
</g>
<!-- n4&#45;&gt;n8 -->
<g id="edge8" class="edge">
<title>n4&#45;&gt;n8</title>
<path fill="none" stroke="black" d="M1596.7,-243.81C1607.4,-223.76 1625.1,-190.4 1637.6,-167.14"/>
<polygon fill="black" stroke="black" points="1640.76,-168.64 1642.3,-158.16 1634.56,-165.4 1640.76,-168.64"/>
</g>
<!-- n5&#45;&gt;n6 -->
<g id="edge9" class="edge">
<title>n5&#45;&gt;n6</title>
<path fill="none" stroke="black" d="M837.74,-243.81C821.49,-223.49 794.3,-189.51 775.67,-166.21"/>
<polygon fill="black" stroke="black" points="778.2,-163.78 769.22,-158.16 772.74,-168.15 778.2,-163.78"/>
</g>
<!-- n10 -->
<g id="node10" class="node">
<title>n10</title>
<polygon fill="#f28e8e" stroke="black" points="444.5,-36 44.5,-36 44.5,0 444.5,0 444.5,-36"/>
<text text-anchor="middle" x="244.5" y="-14.3" font-family="Arial" font-size="14.00">Ensure all parts, including string and cups, are distinctly labeled.</text>
</g>
<!-- n9&#45;&gt;n10 -->
<g id="edge10" class="edge">
<title>n9&#45;&gt;n10</title>
<path fill="none" stroke="black" d="M244.5,-121.81C244.5,-102.11 244.5,-69.58 244.5,-46.39"/>
<polygon fill="black" stroke="black" points="248,-46.16 244.5,-36.16 241,-46.16 248,-46.16"/>
</g>
</g>
</svg>
