<?xml version="1.0" encoding="UTF-8" standalone="no"?>
<!DOCTYPE svg PUBLIC "-//W3C//DTD SVG 1.1//EN"
 "http://www.w3.org/Graphics/SVG/1.1/DTD/svg11.dtd">
<!-- Generated by graphviz version 2.43.0 (0)
 -->
<!-- Pages: 1 -->
<svg width="1893pt" height="410pt"
 viewBox="0.00 0.00 1892.50 410.00" xmlns="http://www.w3.org/2000/svg" xmlns:xlink="http://www.w3.org/1999/xlink">
<g id="graph0" class="graph" transform="scale(1 1) rotate(0) translate(4 406)">
<polygon fill="white" stroke="transparent" points="-4,4 -4,-406 1888.5,-406 1888.5,4 -4,4"/>
<!-- n1 -->
<g id="node1" class="node">
<title>n1</title>
<polygon fill="lightblue" stroke="black" points="1439.5,-384 1329.5,-402 1109.5,-402 999.5,-384 1109.5,-366 1329.5,-366 1439.5,-384"/>
<text text-anchor="middle" x="1219.5" y="-380.3" font-family="Arial" font-size="14.00">Draw a string telephone between two students</text>
</g>
<!-- n2 -->
<g id="node2" class="node">
<title>n2</title>
<polygon fill="#fffdd0" stroke="black" points="842.5,-280 382.5,-280 382.5,-244 842.5,-244 842.5,-280"/>
<text text-anchor="middle" x="612.5" y="-258.3" font-family="Arial" font-size="14.00">Two students standing in a grassy field holding cups connected by a string</text>
</g>
<!-- n1&#45;&gt;n2 -->
<g id="edge1" class="edge">
<title>n1&#45;&gt;n2</title>
<path fill="none" stroke="black" d="M1133.5,-366C1021.3,-343.82 825.62,-305.13 708.65,-282.01"/>
<polygon fill="black" stroke="black" points="709.12,-278.54 698.63,-280.03 707.76,-285.4 709.12,-278.54"/>
</g>
<!-- n3 -->
<g id="node3" class="node">
<title>n3</title>
<polygon fill="#fffdd0" stroke="black" points="1157.5,-280 915.5,-280 915.5,-244 1157.5,-244 1157.5,-280"/>
<text text-anchor="middle" x="1036.5" y="-258.3" font-family="Arial" font-size="14.00">Expressions of speaking and listening</text>
</g>
<!-- n1&#45;&gt;n3 -->
<g id="edge2" class="edge">
<title>n1&#45;&gt;n3</title>
<path fill="none" stroke="black" d="M1193.3,-365.81C1161.2,-344.78 1106.8,-309.11 1071.3,-285.8"/>
<polygon fill="black" stroke="black" points="1072.98,-282.72 1062.7,-280.16 1069.14,-288.57 1072.98,-282.72"/>
</g>
<!-- n4 -->
<g id="node4" class="node">
<title>n4</title>
<polygon fill="#fffdd0" stroke="black" points="1591.5,-280 1215.5,-280 1215.5,-244 1591.5,-244 1591.5,-280"/>
<text text-anchor="middle" x="1403.5" y="-258.3" font-family="Arial" font-size="14.00">Wavy lines indicating sound waves traveling along the string</text>
</g>
<!-- n1&#45;&gt;n4 -->
<g id="edge3" class="edge">
<title>n1&#45;&gt;n4</title>
<path fill="none" stroke="black" d="M1245.9,-365.81C1278.1,-344.78 1332.8,-309.11 1368.5,-285.8"/>
<polygon fill="black" stroke="black" points="1370.71,-288.54 1377.2,-280.16 1366.91,-282.66 1370.71,-288.54"/>
</g>
<!-- n5 -->
<g id="node5" class="node">
<title>n5</title>
<polygon fill="#fffdd0" stroke="black" points="1865.5,-280 1649.5,-280 1649.5,-244 1865.5,-244 1865.5,-280"/>
<text text-anchor="middle" x="1757.5" y="-258.3" font-family="Arial" font-size="14.00">Colorful scene with sun and trees</text>
</g>
<!-- n1&#45;&gt;n5 -->
<g id="edge4" class="edge">
<title>n1&#45;&gt;n5</title>
<path fill="none" stroke="black" d="M1295.7,-366C1394.9,-343.89 1567.6,-305.37 1671.3,-282.22"/>
<polygon fill="black" stroke="black" points="1672.19,-285.61 1681.2,-280.03 1670.68,-278.77 1672.19,-285.61"/>
</g>
<!-- n8 -->
<g id="node6" class="node">
<title>n8</title>
<path fill="palegreen" stroke="black" d="M265,-158C265,-158 12,-158 12,-158 6,-158 0,-152 0,-146 0,-146 0,-134 0,-134 0,-128 6,-122 12,-122 12,-122 265,-122 265,-122 271,-122 277,-128 277,-134 277,-134 277,-146 277,-146 277,-152 271,-158 265,-158"/>
<text text-anchor="middle" x="138.5" y="-136.3" font-family="Arial" font-size="14.00">Simple materials (cups and string) depicted</text>
</g>
<!-- n2&#45;&gt;n8 -->
<g id="edge5" class="edge">
<title>n2&#45;&gt;n8</title>
<path fill="none" stroke="black" d="M545.34,-244C458.36,-221.98 307.07,-183.68 215.52,-160.5"/>
<polygon fill="black" stroke="black" points="216.3,-157.09 205.75,-158.03 214.59,-163.87 216.3,-157.09"/>
</g>
<!-- n10 -->
<g id="node7" class="node">
<title>n10</title>
<polygon fill="lightcoral" stroke="black" points="612.5,-158 334.83,-140 612.5,-122 890.17,-140 612.5,-158"/>
<text text-anchor="middle" x="612.5" y="-136.3" font-family="Arial" font-size="14.00">Minor elements missing, like exact string length</text>
</g>
<!-- n2&#45;&gt;n10 -->
<g id="edge6" class="edge">
<title>n2&#45;&gt;n10</title>
<path fill="none" stroke="black" d="M612.5,-243.81C612.5,-224.11 612.5,-191.58 612.5,-168.39"/>
<polygon fill="black" stroke="black" points="616,-168.16 612.5,-158.16 609,-168.16 616,-168.16"/>
</g>
<!-- n7 -->
<g id="node8" class="node">
<title>n7</title>
<path fill="palegreen" stroke="black" d="M1143,-158C1143,-158 960,-158 960,-158 954,-158 948,-152 948,-146 948,-146 948,-134 948,-134 948,-128 954,-122 960,-122 960,-122 1143,-122 1143,-122 1149,-122 1155,-128 1155,-134 1155,-134 1155,-146 1155,-146 1155,-152 1149,-158 1143,-158"/>
<text text-anchor="middle" x="1051.5" y="-136.3" font-family="Arial" font-size="14.00">Communication over a distance</text>
</g>
<!-- n3&#45;&gt;n7 -->
<g id="edge7" class="edge">
<title>n3&#45;&gt;n7</title>
<path fill="none" stroke="black" d="M1038.6,-243.81C1041.1,-224.11 1045.2,-191.58 1048.1,-168.39"/>
<polygon fill="black" stroke="black" points="1051.61,-168.52 1049.4,-158.16 1044.67,-167.64 1051.61,-168.52"/>
</g>
<!-- n6 -->
<g id="node9" class="node">
<title>n6</title>
<path fill="palegreen" stroke="black" d="M1550.5,-158C1550.5,-158 1256.5,-158 1256.5,-158 1250.5,-158 1244.5,-152 1244.5,-146 1244.5,-146 1244.5,-134 1244.5,-134 1244.5,-128 1250.5,-122 1256.5,-122 1256.5,-122 1550.5,-122 1550.5,-122 1556.5,-122 1562.5,-128 1562.5,-134 1562.5,-134 1562.5,-146 1562.5,-146 1562.5,-152 1556.5,-158 1550.5,-158"/>
<text text-anchor="middle" x="1403.5" y="-136.3" font-family="Arial" font-size="14.00">Device uses sound to send and receive messages</text>
</g>
<!-- n4&#45;&gt;n6 -->
<g id="edge8" class="edge">
<title>n4&#45;&gt;n6</title>
<path fill="none" stroke="black" d="M1403.5,-243.81C1403.5,-224.11 1403.5,-191.58 1403.5,-168.39"/>
<polygon fill="black" stroke="black" points="1407,-168.16 1403.5,-158.16 1400,-168.16 1407,-168.16"/>
</g>
<!-- n9 -->
<g id="node10" class="node">
<title>n9</title>
<path fill="palegreen" stroke="black" d="M1872.5,-158C1872.5,-158 1642.5,-158 1642.5,-158 1636.5,-158 1630.5,-152 1630.5,-146 1630.5,-146 1630.5,-134 1630.5,-134 1630.5,-128 1636.5,-122 1642.5,-122 1642.5,-122 1872.5,-122 1872.5,-122 1878.5,-122 1884.5,-128 1884.5,-134 1884.5,-134 1884.5,-146 1884.5,-146 1884.5,-152 1878.5,-158 1872.5,-158"/>
<text text-anchor="middle" x="1757.5" y="-136.3" font-family="Arial" font-size="14.00">Problem&#45;solving implied through setting</text>
</g>
<!-- n5&#45;&gt;n9 -->
<g id="edge9" class="edge">
<title>n5&#45;&gt;n9</title>
<path fill="none" stroke="black" d="M1757.5,-243.81C1757.5,-224.11 1757.5,-191.58 1757.5,-168.39"/>
<polygon fill="black" stroke="black" points="1761,-168.16 1757.5,-158.16 1754,-168.16 1761,-168.16"/>
</g>
<!-- n11 -->
<g id="node11" class="node">
<title>n11</title>
<polygon fill="#f28e8e" stroke="black" points="752,-36 473,-36 473,0 752,0 752,-36"/>
<text text-anchor="middle" x="612.5" y="-14.3" font-family="Arial" font-size="14.00">Consider detailing string length for accuracy</text>
</g>
<!-- n10&#45;&gt;n11 -->
<g id="edge10" class="edge">
<title>n10&#45;&gt;n11</title>
<path fill="none" stroke="black" d="M612.5,-121.81C612.5,-102.11 612.5,-69.58 612.5,-46.39"/>
<polygon fill="black" stroke="black" points="616,-46.16 612.5,-36.16 609,-46.16 616,-46.16"/>
</g>
</g>
</svg>
