<?xml version="1.0" encoding="UTF-8" standalone="no"?>
<!DOCTYPE svg PUBLIC "-//W3C//DTD SVG 1.1//EN"
 "http://www.w3.org/Graphics/SVG/1.1/DTD/svg11.dtd">
<!-- Generated by graphviz version 2.43.0 (0)
 -->
<!-- Pages: 1 -->
<svg width="1143pt" height="410pt"
 viewBox="0.00 0.00 1143.00 410.00" xmlns="http://www.w3.org/2000/svg" xmlns:xlink="http://www.w3.org/1999/xlink">
<g id="graph0" class="graph" transform="scale(1 1) rotate(0) translate(4 406)">
<polygon fill="white" stroke="transparent" points="-4,4 -4,-406 1139,-406 1139,4 -4,4"/>
<!-- n1 -->
<g id="node1" class="node">
<title>n1</title>
<polygon fill="lightblue" stroke="black" points="1063.5,-384 899.5,-402 571.5,-402 407.5,-384 571.5,-366 899.5,-366 1063.5,-384"/>
<text text-anchor="middle" x="735.5" y="-380.3" font-family="Arial" font-size="14.00">Draw reversible and irreversible changes (ice melting vs. egg cooking)</text>
</g>
<!-- n2 -->
<g id="node2" class="node">
<title>n2</title>
<polygon fill="#fffdd0" stroke="black" points="707,-280 444,-280 444,-244 707,-244 707,-280"/>
<text text-anchor="middle" x="575.5" y="-258.3" font-family="Arial" font-size="14.00">Ice cube with an arrow to puddle of water</text>
</g>
<!-- n1&#45;&gt;n2 -->
<g id="edge1" class="edge">
<title>n1&#45;&gt;n2</title>
<path fill="none" stroke="black" d="M712.58,-365.81C684.77,-344.96 637.78,-309.71 606.7,-286.4"/>
<polygon fill="black" stroke="black" points="608.48,-283.36 598.38,-280.16 604.28,-288.96 608.48,-283.36"/>
</g>
<!-- n3 -->
<g id="node3" class="node">
<title>n3</title>
<polygon fill="#fffdd0" stroke="black" points="1083.5,-280 821.5,-280 821.5,-244 1083.5,-244 1083.5,-280"/>
<text text-anchor="middle" x="952.5" y="-258.3" font-family="Arial" font-size="14.00">Raw egg with an arrow to scrambled egg</text>
</g>
<!-- n1&#45;&gt;n3 -->
<g id="edge2" class="edge">
<title>n1&#45;&gt;n3</title>
<path fill="none" stroke="black" d="M766.59,-365.81C805.02,-344.55 870.49,-308.35 912.6,-285.07"/>
<polygon fill="black" stroke="black" points="914.42,-288.07 921.47,-280.16 911.03,-281.94 914.42,-288.07"/>
</g>
<!-- n4 -->
<g id="node4" class="node">
<title>n4</title>
<path fill="palegreen" stroke="black" d="M255,-158C255,-158 12,-158 12,-158 6,-158 0,-152 0,-146 0,-146 0,-134 0,-134 0,-128 6,-122 12,-122 12,-122 255,-122 255,-122 261,-122 267,-128 267,-134 267,-134 267,-146 267,-146 267,-152 261,-158 255,-158"/>
<text text-anchor="middle" x="133.5" y="-136.3" font-family="Arial" font-size="14.00">Understands melting to liquid is reversible</text>
</g>
<!-- n2&#45;&gt;n4 -->
<g id="edge3" class="edge">
<title>n2&#45;&gt;n4</title>
<path fill="none" stroke="black" d="M512.64,-243.93C431.71,-221.96 291.37,-183.86 206.01,-160.69"/>
<polygon fill="black" stroke="black" points="206.71,-157.25 196.14,-158.01 204.87,-164.01 206.71,-157.25"/>
</g>
<!-- n6 -->
<g id="node5" class="node">
<title>n6</title>
<polygon fill="lightcoral" stroke="black" points="575.5,-158 325.48,-140 575.5,-122 825.52,-140 575.5,-158"/>
<text text-anchor="middle" x="575.5" y="-136.3" font-family="Arial" font-size="14.00">Lacks representation of refreezing process</text>
</g>
<!-- n2&#45;&gt;n6 -->
<g id="edge4" class="edge">
<title>n2&#45;&gt;n6</title>
<path fill="none" stroke="black" d="M575.5,-243.81C575.5,-224.11 575.5,-191.58 575.5,-168.39"/>
<polygon fill="black" stroke="black" points="579,-168.16 575.5,-158.16 572,-168.16 579,-168.16"/>
</g>
<!-- n5 -->
<g id="node6" class="node">
<title>n5</title>
<path fill="palegreen" stroke="black" d="M1123,-158C1123,-158 896,-158 896,-158 890,-158 884,-152 884,-146 884,-146 884,-134 884,-134 884,-128 890,-122 896,-122 896,-122 1123,-122 1123,-122 1129,-122 1135,-128 1135,-134 1135,-134 1135,-146 1135,-146 1135,-152 1129,-158 1123,-158"/>
<text text-anchor="middle" x="1009.5" y="-136.3" font-family="Arial" font-size="14.00">Recognizes egg cooking as irreversible</text>
</g>
<!-- n3&#45;&gt;n5 -->
<g id="edge5" class="edge">
<title>n3&#45;&gt;n5</title>
<path fill="none" stroke="black" d="M960.67,-243.81C970.15,-223.85 985.89,-190.7 996.94,-167.45"/>
<polygon fill="black" stroke="black" points="1000.22,-168.7 1001.3,-158.16 993.88,-165.73 1000.22,-168.7"/>
</g>
<!-- n7 -->
<g id="node7" class="node">
<title>n7</title>
<polygon fill="#f28e8e" stroke="black" points="720.5,-36 430.5,-36 430.5,0 720.5,0 720.5,-36"/>
<text text-anchor="middle" x="575.5" y="-14.3" font-family="Arial" font-size="14.00">Use arrows back to ice to indicate reversibility</text>
</g>
<!-- n6&#45;&gt;n7 -->
<g id="edge6" class="edge">
<title>n6&#45;&gt;n7</title>
<path fill="none" stroke="black" d="M575.5,-121.81C575.5,-102.11 575.5,-69.58 575.5,-46.39"/>
<polygon fill="black" stroke="black" points="579,-46.16 575.5,-36.16 572,-46.16 579,-46.16"/>
</g>
</g>
</svg>
