<?xml version="1.0" encoding="UTF-8" standalone="no"?>
<!DOCTYPE svg PUBLIC "-//W3C//DTD SVG 1.1//EN"
 "http://www.w3.org/Graphics/SVG/1.1/DTD/svg11.dtd">
<!-- Generated by graphviz version 2.43.0 (0)
 -->
<!-- Pages: 1 -->
<svg width="1571pt" height="410pt"
 viewBox="0.00 0.00 1570.53 410.00" xmlns="http://www.w3.org/2000/svg" xmlns:xlink="http://www.w3.org/1999/xlink">
<g id="graph0" class="graph" transform="scale(1 1) rotate(0) translate(4 406)">
<polygon fill="white" stroke="transparent" points="-4,4 -4,-406 1566.53,-406 1566.53,4 -4,4"/>
<!-- n1 -->
<g id="node1" class="node">
<title>n1</title>
<polygon fill="lightblue" stroke="black" points="760.82,-384 638.41,-402 393.59,-402 271.18,-384 393.59,-366 638.41,-366 760.82,-384"/>
<text text-anchor="middle" x="516" y="-380.3" font-family="Arial" font-size="14.00">Draw a habitat and the different living things in each</text>
</g>
<!-- n2 -->
<g id="node2" class="node">
<title>n2</title>
<polygon fill="#fffdd0" stroke="black" points="288,-280 96,-280 96,-244 288,-244 288,-280"/>
<text text-anchor="middle" x="192" y="-258.3" font-family="Arial" font-size="14.00">Forest: Trees with round tops</text>
</g>
<!-- n1&#45;&gt;n2 -->
<g id="edge1" class="edge">
<title>n1&#45;&gt;n2</title>
<path fill="none" stroke="black" d="M469.92,-365.93C411.38,-344.25 310.43,-306.86 247.65,-283.61"/>
<polygon fill="black" stroke="black" points="248.51,-280.2 237.92,-280.01 246.08,-286.76 248.51,-280.2"/>
</g>
<!-- n3 -->
<g id="node3" class="node">
<title>n3</title>
<polygon fill="#fffdd0" stroke="black" points="496,-280 346,-280 346,-244 496,-244 496,-280"/>
<text text-anchor="middle" x="421" y="-258.3" font-family="Arial" font-size="14.00">Pond: Wavy blue lines</text>
</g>
<!-- n1&#45;&gt;n3 -->
<g id="edge2" class="edge">
<title>n1&#45;&gt;n3</title>
<path fill="none" stroke="black" d="M502.39,-365.81C486.3,-345.49 459.4,-311.51 440.96,-288.21"/>
<polygon fill="black" stroke="black" points="443.54,-285.83 434.59,-280.16 438.05,-290.17 443.54,-285.83"/>
</g>
<!-- n4 -->
<g id="node4" class="node">
<title>n4</title>
<polygon fill="#fffdd0" stroke="black" points="669.5,-280 554.5,-280 554.5,-244 669.5,-244 669.5,-280"/>
<text text-anchor="middle" x="612" y="-258.3" font-family="Arial" font-size="14.00">Garden: Bushes</text>
</g>
<!-- n1&#45;&gt;n4 -->
<g id="edge3" class="edge">
<title>n1&#45;&gt;n4</title>
<path fill="none" stroke="black" d="M529.75,-365.81C546.01,-345.49 573.19,-311.51 591.83,-288.21"/>
<polygon fill="black" stroke="black" points="594.76,-290.16 598.27,-280.16 589.29,-285.78 594.76,-290.16"/>
</g>
<!-- n5 -->
<g id="node5" class="node">
<title>n5</title>
<polygon fill="#fffdd0" stroke="black" points="1173.5,-280 964.5,-280 964.5,-244 1173.5,-244 1173.5,-280"/>
<text text-anchor="middle" x="1069" y="-258.3" font-family="Arial" font-size="14.00">Animals: Squirrel, Fish, Butterfly</text>
</g>
<!-- n1&#45;&gt;n5 -->
<g id="edge4" class="edge">
<title>n1&#45;&gt;n5</title>
<path fill="none" stroke="black" d="M594.35,-366C696.35,-343.87 874.13,-305.29 980.76,-282.15"/>
<polygon fill="black" stroke="black" points="981.51,-285.57 990.54,-280.03 980.03,-278.73 981.51,-285.57"/>
</g>
<!-- n6 -->
<g id="node6" class="node">
<title>n6</title>
<path fill="palegreen" stroke="black" d="M278,-158C278,-158 12,-158 12,-158 6,-158 0,-152 0,-146 0,-146 0,-134 0,-134 0,-128 6,-122 12,-122 12,-122 278,-122 278,-122 284,-122 290,-128 290,-134 290,-134 290,-146 290,-146 290,-152 284,-158 278,-158"/>
<text text-anchor="middle" x="145" y="-136.3" font-family="Arial" font-size="14.00">Identifies basic habitats (forest, pond, garden)</text>
</g>
<!-- n2&#45;&gt;n6 -->
<g id="edge5" class="edge">
<title>n2&#45;&gt;n6</title>
<path fill="none" stroke="black" d="M185.27,-243.81C177.48,-223.94 164.58,-190.99 155.48,-167.76"/>
<polygon fill="black" stroke="black" points="158.63,-166.19 151.72,-158.16 152.11,-168.75 158.63,-166.19"/>
</g>
<!-- n7 -->
<g id="node7" class="node">
<title>n7</title>
<path fill="palegreen" stroke="black" d="M578,-158C578,-158 360,-158 360,-158 354,-158 348,-152 348,-146 348,-146 348,-134 348,-134 348,-128 354,-122 360,-122 360,-122 578,-122 578,-122 584,-122 590,-128 590,-134 590,-134 590,-146 590,-146 590,-152 584,-158 578,-158"/>
<text text-anchor="middle" x="469" y="-136.3" font-family="Arial" font-size="14.00">Uses simple shapes and bright colors</text>
</g>
<!-- n2&#45;&gt;n7 -->
<g id="edge6" class="edge">
<title>n2&#45;&gt;n7</title>
<path fill="none" stroke="black" d="M231.39,-243.93C281.13,-222.39 366.68,-185.32 420.42,-162.04"/>
<polygon fill="black" stroke="black" points="421.95,-165.19 429.74,-158.01 419.17,-158.77 421.95,-165.19"/>
</g>
<!-- n3&#45;&gt;n6 -->
<g id="edge7" class="edge">
<title>n3&#45;&gt;n6</title>
<path fill="none" stroke="black" d="M381.75,-243.93C332.19,-222.39 246.95,-185.32 193.4,-162.04"/>
<polygon fill="black" stroke="black" points="194.69,-158.78 184.12,-158.01 191.9,-165.2 194.69,-158.78"/>
</g>
<!-- n3&#45;&gt;n7 -->
<g id="edge8" class="edge">
<title>n3&#45;&gt;n7</title>
<path fill="none" stroke="black" d="M427.88,-243.81C435.86,-223.85 449.12,-190.7 458.42,-167.45"/>
<polygon fill="black" stroke="black" points="461.67,-168.74 462.14,-158.16 455.17,-166.14 461.67,-168.74"/>
</g>
<!-- n4&#45;&gt;n6 -->
<g id="edge9" class="edge">
<title>n4&#45;&gt;n6</title>
<path fill="none" stroke="black" d="M554.27,-246.17C470.33,-224.6 314.46,-184.54 221.19,-160.58"/>
<polygon fill="black" stroke="black" points="221.81,-157.12 211.25,-158.02 220.06,-163.9 221.81,-157.12"/>
</g>
<!-- n4&#45;&gt;n7 -->
<g id="edge10" class="edge">
<title>n4&#45;&gt;n7</title>
<path fill="none" stroke="black" d="M591.51,-243.81C566.77,-223.04 525.02,-188.01 497.24,-164.7"/>
<polygon fill="black" stroke="black" points="499.36,-161.91 489.45,-158.16 494.86,-167.27 499.36,-161.91"/>
</g>
<!-- n9 -->
<g id="node8" class="node">
<title>n9</title>
<polygon fill="lightcoral" stroke="black" points="821,-158 648,-140 821,-122 994,-140 821,-158"/>
<text text-anchor="middle" x="821" y="-136.3" font-family="Arial" font-size="14.00">Struggles with plant diversity</text>
</g>
<!-- n4&#45;&gt;n9 -->
<g id="edge11" class="edge">
<title>n4&#45;&gt;n9</title>
<path fill="none" stroke="black" d="M641.94,-243.81C680.27,-221.8 746.51,-183.77 786.79,-160.64"/>
<polygon fill="black" stroke="black" points="788.77,-163.54 795.7,-155.53 785.28,-157.47 788.77,-163.54"/>
</g>
<!-- n8 -->
<g id="node9" class="node">
<title>n8</title>
<polygon fill="lightcoral" stroke="black" points="1307,-158 1051.45,-140 1307,-122 1562.55,-140 1307,-158"/>
<text text-anchor="middle" x="1307" y="-136.3" font-family="Arial" font-size="14.00">Misunderstands habitat&#45;specific biodiversity</text>
</g>
<!-- n5&#45;&gt;n8 -->
<g id="edge12" class="edge">
<title>n5&#45;&gt;n8</title>
<path fill="none" stroke="black" d="M1102.8,-243.93C1146.5,-221.9 1222.4,-183.64 1268.4,-160.49"/>
<polygon fill="black" stroke="black" points="1270.06,-163.57 1277.4,-155.93 1266.9,-157.33 1270.06,-163.57"/>
</g>
<!-- n11 -->
<g id="node10" class="node">
<title>n11</title>
<polygon fill="#f28e8e" stroke="black" points="964.5,-36 677.5,-36 677.5,0 964.5,0 964.5,-36"/>
<text text-anchor="middle" x="821" y="-14.3" font-family="Arial" font-size="14.00">Include detailed vegetation variety in gardens</text>
</g>
<!-- n9&#45;&gt;n11 -->
<g id="edge13" class="edge">
<title>n9&#45;&gt;n11</title>
<path fill="none" stroke="black" d="M821,-121.81C821,-102.11 821,-69.58 821,-46.39"/>
<polygon fill="black" stroke="black" points="824.5,-46.16 821,-36.16 817.5,-46.16 824.5,-46.16"/>
</g>
<!-- n10 -->
<g id="node11" class="node">
<title>n10</title>
<polygon fill="#f28e8e" stroke="black" points="1463.5,-36 1150.5,-36 1150.5,0 1463.5,0 1463.5,-36"/>
<text text-anchor="middle" x="1307" y="-14.3" font-family="Arial" font-size="14.00">Identify unique animals and plants in each habitat</text>
</g>
<!-- n8&#45;&gt;n10 -->
<g id="edge14" class="edge">
<title>n8&#45;&gt;n10</title>
<path fill="none" stroke="black" d="M1307,-121.81C1307,-102.11 1307,-69.58 1307,-46.39"/>
<polygon fill="black" stroke="black" points="1310.5,-46.16 1307,-36.16 1303.5,-46.16 1310.5,-46.16"/>
</g>
</g>
</svg>
