<?xml version="1.0" encoding="UTF-8" standalone="no"?>
<!DOCTYPE svg PUBLIC "-//W3C//DTD SVG 1.1//EN"
 "http://www.w3.org/Graphics/SVG/1.1/DTD/svg11.dtd">
<!-- Generated by graphviz version 2.43.0 (0)
 -->
<!-- Pages: 1 -->
<svg width="1383pt" height="532pt"
 viewBox="0.00 0.00 1382.50 532.00" xmlns="http://www.w3.org/2000/svg" xmlns:xlink="http://www.w3.org/1999/xlink">
<g id="graph0" class="graph" transform="scale(1 1) rotate(0) translate(4 528)">
<polygon fill="white" stroke="transparent" points="-4,4 -4,-528 1378.5,-528 1378.5,4 -4,4"/>
<!-- n1 -->
<g id="node1" class="node">
<title>n1</title>
<polygon fill="lightblue" stroke="black" points="584.24,-506 491.12,-524 304.88,-524 211.76,-506 304.88,-488 491.12,-488 584.24,-506"/>
<text text-anchor="middle" x="398" y="-502.3" font-family="Arial" font-size="14.00">Illustrate plants with and without water.</text>
</g>
<!-- n2 -->
<g id="node2" class="node">
<title>n2</title>
<polygon fill="#fffdd0" stroke="black" points="485.5,-402 310.5,-402 310.5,-366 485.5,-366 485.5,-402"/>
<text text-anchor="middle" x="398" y="-380.3" font-family="Arial" font-size="14.00">Two simple plant sketches</text>
</g>
<!-- n1&#45;&gt;n2 -->
<g id="edge1" class="edge">
<title>n1&#45;&gt;n2</title>
<path fill="none" stroke="black" d="M398,-487.81C398,-468.11 398,-435.58 398,-412.39"/>
<polygon fill="black" stroke="black" points="401.5,-412.16 398,-402.16 394.5,-412.16 401.5,-412.16"/>
</g>
<!-- n3 -->
<g id="node3" class="node">
<title>n3</title>
<polygon fill="#fffdd0" stroke="black" points="368,-280 204,-280 204,-244 368,-244 368,-280"/>
<text text-anchor="middle" x="286" y="-258.3" font-family="Arial" font-size="14.00">Plant with green patches</text>
</g>
<!-- n2&#45;&gt;n3 -->
<g id="edge2" class="edge">
<title>n2&#45;&gt;n3</title>
<path fill="none" stroke="black" d="M381.95,-365.81C362.82,-345.31 330.72,-310.91 308.96,-287.6"/>
<polygon fill="black" stroke="black" points="311.4,-285.09 302.02,-280.16 306.28,-289.86 311.4,-285.09"/>
</g>
<!-- n4 -->
<g id="node4" class="node">
<title>n4</title>
<polygon fill="#fffdd0" stroke="black" points="719.5,-280 552.5,-280 552.5,-244 719.5,-244 719.5,-280"/>
<text text-anchor="middle" x="636" y="-258.3" font-family="Arial" font-size="14.00">Plant with brown patches</text>
</g>
<!-- n2&#45;&gt;n4 -->
<g id="edge3" class="edge">
<title>n2&#45;&gt;n4</title>
<path fill="none" stroke="black" d="M431.85,-365.93C474.23,-344.57 546.87,-307.94 593.11,-284.63"/>
<polygon fill="black" stroke="black" points="594.92,-287.64 602.27,-280.01 591.77,-281.39 594.92,-287.64"/>
</g>
<!-- n5 -->
<g id="node5" class="node">
<title>n5</title>
<path fill="palegreen" stroke="black" d="M308,-158C308,-158 12,-158 12,-158 6,-158 0,-152 0,-146 0,-146 0,-134 0,-134 0,-128 6,-122 12,-122 12,-122 308,-122 308,-122 314,-122 320,-128 320,-134 320,-134 320,-146 320,-146 320,-152 314,-158 308,-158"/>
<text text-anchor="middle" x="160" y="-136.3" font-family="Arial" font-size="14.00">Understands green leaves indicate a watered plant</text>
</g>
<!-- n3&#45;&gt;n5 -->
<g id="edge4" class="edge">
<title>n3&#45;&gt;n5</title>
<path fill="none" stroke="black" d="M267.95,-243.81C246.33,-223.22 209.99,-188.61 185.52,-165.3"/>
<polygon fill="black" stroke="black" points="187.68,-162.52 178.02,-158.16 182.85,-167.59 187.68,-162.52"/>
</g>
<!-- n6 -->
<g id="node6" class="node">
<title>n6</title>
<polygon fill="lightcoral" stroke="black" points="636,-158 377.5,-140 636,-122 894.5,-140 636,-158"/>
<text text-anchor="middle" x="636" y="-136.3" font-family="Arial" font-size="14.00">Has a misconception about the role of water</text>
</g>
<!-- n4&#45;&gt;n6 -->
<g id="edge5" class="edge">
<title>n4&#45;&gt;n6</title>
<path fill="none" stroke="black" d="M636,-243.81C636,-224.11 636,-191.58 636,-168.39"/>
<polygon fill="black" stroke="black" points="639.5,-168.16 636,-158.16 632.5,-168.16 639.5,-168.16"/>
</g>
<!-- n8 -->
<g id="node7" class="node">
<title>n8</title>
<polygon fill="lightcoral" stroke="black" points="1141,-158 952.5,-140 1141,-122 1329.5,-140 1141,-158"/>
<text text-anchor="middle" x="1141" y="-136.3" font-family="Arial" font-size="14.00">Misunderstands the role of light</text>
</g>
<!-- n4&#45;&gt;n8 -->
<g id="edge6" class="edge">
<title>n4&#45;&gt;n8</title>
<path fill="none" stroke="black" d="M707.55,-244C807.18,-220.32 985.99,-177.83 1079.8,-155.55"/>
<polygon fill="black" stroke="black" points="1080.78,-158.91 1089.7,-153.19 1079.16,-152.1 1080.78,-158.91"/>
</g>
<!-- n7 -->
<g id="node8" class="node">
<title>n7</title>
<polygon fill="#f28e8e" stroke="black" points="813,-36 459,-36 459,0 813,0 813,-36"/>
<text text-anchor="middle" x="636" y="-14.3" font-family="Arial" font-size="14.00">Correct feedback: Water keeps plants healthy and green</text>
</g>
<!-- n6&#45;&gt;n7 -->
<g id="edge7" class="edge">
<title>n6&#45;&gt;n7</title>
<path fill="none" stroke="black" d="M636,-121.81C636,-102.11 636,-69.58 636,-46.39"/>
<polygon fill="black" stroke="black" points="639.5,-46.16 636,-36.16 632.5,-46.16 639.5,-46.16"/>
</g>
<!-- n9 -->
<g id="node9" class="node">
<title>n9</title>
<polygon fill="#f28e8e" stroke="black" points="1374.5,-36 907.5,-36 907.5,0 1374.5,0 1374.5,-36"/>
<text text-anchor="middle" x="1141" y="-14.3" font-family="Arial" font-size="14.00">Instructional suggestion: Plants need both water and light to remain healthy</text>
</g>
<!-- n8&#45;&gt;n9 -->
<g id="edge8" class="edge">
<title>n8&#45;&gt;n9</title>
<path fill="none" stroke="black" d="M1141,-121.81C1141,-102.11 1141,-69.58 1141,-46.39"/>
<polygon fill="black" stroke="black" points="1144.5,-46.16 1141,-36.16 1137.5,-46.16 1144.5,-46.16"/>
</g>
</g>
</svg>
