<?xml version="1.0" encoding="UTF-8" standalone="no"?>
<!DOCTYPE svg PUBLIC "-//W3C//DTD SVG 1.1//EN"
 "http://www.w3.org/Graphics/SVG/1.1/DTD/svg11.dtd">
<!-- Generated by graphviz version 2.43.0 (0)
 -->
<!-- Pages: 1 -->
<svg width="1216pt" height="410pt"
 viewBox="0.00 0.00 1216.00 410.00" xmlns="http://www.w3.org/2000/svg" xmlns:xlink="http://www.w3.org/1999/xlink">
<g id="graph0" class="graph" transform="scale(1 1) rotate(0) translate(4 406)">
<polygon fill="white" stroke="transparent" points="-4,4 -4,-406 1212,-406 1212,4 -4,4"/>
<!-- n1 -->
<g id="node1" class="node">
<title>n1</title>
<polygon fill="lightblue" stroke="black" points="910.82,-384 788.41,-402 543.59,-402 421.18,-384 543.59,-366 788.41,-366 910.82,-384"/>
<text text-anchor="middle" x="666" y="-380.3" font-family="Arial" font-size="14.00">Draw a habitat and the different living things in each</text>
</g>
<!-- n2 -->
<g id="node2" class="node">
<title>n2</title>
<polygon fill="#fffdd0" stroke="black" points="562,-280 418,-280 418,-244 562,-244 562,-280"/>
<text text-anchor="middle" x="490" y="-258.3" font-family="Arial" font-size="14.00">Several generic trees</text>
</g>
<!-- n1&#45;&gt;n2 -->
<g id="edge1" class="edge">
<title>n1&#45;&gt;n2</title>
<path fill="none" stroke="black" d="M640.78,-365.81C609.94,-344.78 557.62,-309.11 523.44,-285.8"/>
<polygon fill="black" stroke="black" points="525.4,-282.9 515.17,-280.16 521.46,-288.69 525.4,-282.9"/>
</g>
<!-- n3 -->
<g id="node3" class="node">
<title>n3</title>
<polygon fill="#fffdd0" stroke="black" points="943,-280 743,-280 743,-244 943,-244 943,-280"/>
<text text-anchor="middle" x="843" y="-258.3" font-family="Arial" font-size="14.00">A single bird perched on a tree</text>
</g>
<!-- n1&#45;&gt;n3 -->
<g id="edge2" class="edge">
<title>n1&#45;&gt;n3</title>
<path fill="none" stroke="black" d="M691.36,-365.81C722.38,-344.78 774.99,-309.11 809.37,-285.8"/>
<polygon fill="black" stroke="black" points="811.38,-288.67 817.69,-280.16 807.45,-282.87 811.38,-288.67"/>
</g>
<!-- n4 -->
<g id="node4" class="node">
<title>n4</title>
<path fill="palegreen" stroke="black" d="M242,-158C242,-158 12,-158 12,-158 6,-158 0,-152 0,-146 0,-146 0,-134 0,-134 0,-128 6,-122 12,-122 12,-122 242,-122 242,-122 248,-122 254,-128 254,-134 254,-134 254,-146 254,-146 254,-152 248,-158 242,-158"/>
<text text-anchor="middle" x="127" y="-136.3" font-family="Arial" font-size="14.00">General understanding of a land habitat</text>
</g>
<!-- n2&#45;&gt;n4 -->
<g id="edge3" class="edge">
<title>n2&#45;&gt;n4</title>
<path fill="none" stroke="black" d="M438.38,-243.93C372.38,-222.12 258.29,-184.4 188.06,-161.18"/>
<polygon fill="black" stroke="black" points="189.04,-157.82 178.45,-158.01 186.85,-164.47 189.04,-157.82"/>
</g>
<!-- n5 -->
<g id="node5" class="node">
<title>n5</title>
<polygon fill="lightcoral" stroke="black" points="490,-158 311.5,-140 490,-122 668.5,-140 490,-158"/>
<text text-anchor="middle" x="490" y="-136.3" font-family="Arial" font-size="14.00">Lacks diversity of living things</text>
</g>
<!-- n2&#45;&gt;n5 -->
<g id="edge4" class="edge">
<title>n2&#45;&gt;n5</title>
<path fill="none" stroke="black" d="M490,-243.81C490,-224.11 490,-191.58 490,-168.39"/>
<polygon fill="black" stroke="black" points="493.5,-168.16 490,-158.16 486.5,-168.16 493.5,-168.16"/>
</g>
<!-- n6 -->
<g id="node6" class="node">
<title>n6</title>
<polygon fill="lightcoral" stroke="black" points="967,-158 726,-140 967,-122 1208,-140 967,-158"/>
<text text-anchor="middle" x="967" y="-136.3" font-family="Arial" font-size="14.00">Doesn&#39;t show spatial distribution patterns</text>
</g>
<!-- n3&#45;&gt;n6 -->
<g id="edge5" class="edge">
<title>n3&#45;&gt;n6</title>
<path fill="none" stroke="black" d="M860.77,-243.81C882.4,-222.87 919.02,-187.43 943.11,-164.12"/>
<polygon fill="black" stroke="black" points="945.71,-166.48 950.46,-157.01 940.84,-161.45 945.71,-166.48"/>
</g>
<!-- n7 -->
<g id="node7" class="node">
<title>n7</title>
<polygon fill="#f28e8e" stroke="black" points="692.5,-36 287.5,-36 287.5,0 692.5,0 692.5,-36"/>
<text text-anchor="middle" x="490" y="-14.3" font-family="Arial" font-size="14.00">Include more types of living things like bushes or flowering plants</text>
</g>
<!-- n5&#45;&gt;n7 -->
<g id="edge6" class="edge">
<title>n5&#45;&gt;n7</title>
<path fill="none" stroke="black" d="M490,-121.81C490,-102.11 490,-69.58 490,-46.39"/>
<polygon fill="black" stroke="black" points="493.5,-46.16 490,-36.16 486.5,-46.16 493.5,-46.16"/>
</g>
<!-- n8 -->
<g id="node8" class="node">
<title>n8</title>
<polygon fill="#f28e8e" stroke="black" points="1093.5,-36 840.5,-36 840.5,0 1093.5,0 1093.5,-36"/>
<text text-anchor="middle" x="967" y="-14.3" font-family="Arial" font-size="14.00">Show distribution patterns in the habitat</text>
</g>
<!-- n6&#45;&gt;n8 -->
<g id="edge7" class="edge">
<title>n6&#45;&gt;n8</title>
<path fill="none" stroke="black" d="M967,-121.81C967,-102.11 967,-69.58 967,-46.39"/>
<polygon fill="black" stroke="black" points="970.5,-46.16 967,-36.16 963.5,-46.16 970.5,-46.16"/>
</g>
</g>
</svg>
