<?xml version="1.0" encoding="UTF-8" standalone="no"?>
<!DOCTYPE svg PUBLIC "-//W3C//DTD SVG 1.1//EN"
 "http://www.w3.org/Graphics/SVG/1.1/DTD/svg11.dtd">
<!-- Generated by graphviz version 2.43.0 (0)
 -->
<!-- Pages: 1 -->
<svg width="1517pt" height="410pt"
 viewBox="0.00 0.00 1516.61 410.00" xmlns="http://www.w3.org/2000/svg" xmlns:xlink="http://www.w3.org/1999/xlink">
<g id="graph0" class="graph" transform="scale(1 1) rotate(0) translate(4 406)">
<polygon fill="white" stroke="transparent" points="-4,4 -4,-406 1512.61,-406 1512.61,4 -4,4"/>
<!-- n1 -->
<g id="node1" class="node">
<title>n1</title>
<polygon fill="lightblue" stroke="black" points="656,-384 564.75,-402 382.25,-402 291,-384 382.25,-366 564.75,-366 656,-384"/>
<text text-anchor="middle" x="473.5" y="-380.3" font-family="Arial" font-size="14.00">Draw reversible changes (ice melting)</text>
</g>
<!-- n2 -->
<g id="node2" class="node">
<title>n2</title>
<polygon fill="#fffdd0" stroke="black" points="227,-280 72,-280 72,-244 227,-244 227,-280"/>
<text text-anchor="middle" x="149.5" y="-258.3" font-family="Arial" font-size="14.00">&#39;Ice&#39; large white square</text>
</g>
<!-- n1&#45;&gt;n2 -->
<g id="edge1" class="edge">
<title>n1&#45;&gt;n2</title>
<path fill="none" stroke="black" d="M427.42,-365.93C368.88,-344.25 267.93,-306.86 205.15,-283.61"/>
<polygon fill="black" stroke="black" points="206.01,-280.2 195.42,-280.01 203.58,-286.76 206.01,-280.2"/>
</g>
<!-- n3 -->
<g id="node3" class="node">
<title>n3</title>
<polygon fill="#fffdd0" stroke="black" points="447,-280 300,-280 300,-244 447,-244 447,-280"/>
<text text-anchor="middle" x="373.5" y="-258.3" font-family="Arial" font-size="14.00">&#39;Water&#39; wavy blue line</text>
</g>
<!-- n1&#45;&gt;n3 -->
<g id="edge2" class="edge">
<title>n1&#45;&gt;n3</title>
<path fill="none" stroke="black" d="M459.17,-365.81C442.17,-345.4 413.68,-311.21 394.26,-287.91"/>
<polygon fill="black" stroke="black" points="396.89,-285.6 387.8,-280.16 391.51,-290.08 396.89,-285.6"/>
</g>
<!-- n4 -->
<g id="node4" class="node">
<title>n4</title>
<polygon fill="#fffdd0" stroke="black" points="691,-280 554,-280 554,-244 691,-244 691,-280"/>
<text text-anchor="middle" x="622.5" y="-258.3" font-family="Arial" font-size="14.00">Abstract gray shape</text>
</g>
<!-- n1&#45;&gt;n4 -->
<g id="edge3" class="edge">
<title>n1&#45;&gt;n4</title>
<path fill="none" stroke="black" d="M494.85,-365.81C520.63,-345.04 564.13,-310.01 593.08,-286.7"/>
<polygon fill="black" stroke="black" points="595.6,-289.16 601.19,-280.16 591.21,-283.71 595.6,-289.16"/>
</g>
<!-- n5 -->
<g id="node5" class="node">
<title>n5</title>
<polygon fill="#fffdd0" stroke="black" points="1129.5,-280 933.5,-280 933.5,-244 1129.5,-244 1129.5,-280"/>
<text text-anchor="middle" x="1031.5" y="-258.3" font-family="Arial" font-size="14.00">Egg shape labeled &#39;Reverse?&#39;</text>
</g>
<!-- n1&#45;&gt;n5 -->
<g id="edge4" class="edge">
<title>n1&#45;&gt;n5</title>
<path fill="none" stroke="black" d="M552.56,-366C655.48,-343.87 834.86,-305.29 942.46,-282.15"/>
<polygon fill="black" stroke="black" points="943.29,-285.55 952.33,-280.03 941.82,-278.71 943.29,-285.55"/>
</g>
<!-- n6 -->
<g id="node6" class="node">
<title>n6</title>
<path fill="palegreen" stroke="black" d="M209,-158C209,-158 12,-158 12,-158 6,-158 0,-152 0,-146 0,-146 0,-134 0,-134 0,-128 6,-122 12,-122 12,-122 209,-122 209,-122 215,-122 221,-128 221,-134 221,-134 221,-146 221,-146 221,-152 215,-158 209,-158"/>
<text text-anchor="middle" x="110.5" y="-136.3" font-family="Arial" font-size="14.00">Ice as a solid block before melting</text>
</g>
<!-- n2&#45;&gt;n6 -->
<g id="edge5" class="edge">
<title>n2&#45;&gt;n6</title>
<path fill="none" stroke="black" d="M143.91,-243.81C137.45,-223.94 126.75,-190.99 119.2,-167.76"/>
<polygon fill="black" stroke="black" points="122.5,-166.59 116.08,-158.16 115.84,-168.75 122.5,-166.59"/>
</g>
<!-- n7 -->
<g id="node7" class="node">
<title>n7</title>
<path fill="palegreen" stroke="black" d="M408,-158C408,-158 291,-158 291,-158 285,-158 279,-152 279,-146 279,-146 279,-134 279,-134 279,-128 285,-122 291,-122 291,-122 408,-122 408,-122 414,-122 420,-128 420,-134 420,-134 420,-146 420,-146 420,-152 414,-158 408,-158"/>
<text text-anchor="middle" x="349.5" y="-136.3" font-family="Arial" font-size="14.00">Water after ice melts</text>
</g>
<!-- n3&#45;&gt;n7 -->
<g id="edge6" class="edge">
<title>n3&#45;&gt;n7</title>
<path fill="none" stroke="black" d="M370.06,-243.81C366.1,-224.02 359.56,-191.29 354.92,-168.08"/>
<polygon fill="black" stroke="black" points="358.33,-167.28 352.93,-158.16 351.47,-168.65 358.33,-167.28"/>
</g>
<!-- n8 -->
<g id="node8" class="node">
<title>n8</title>
<polygon fill="lightcoral" stroke="black" points="647.5,-158 478.25,-140 647.5,-122 816.75,-140 647.5,-158"/>
<text text-anchor="middle" x="647.5" y="-136.3" font-family="Arial" font-size="14.00">Struggles with ice reforming</text>
</g>
<!-- n4&#45;&gt;n8 -->
<g id="edge7" class="edge">
<title>n4&#45;&gt;n8</title>
<path fill="none" stroke="black" d="M626.08,-243.81C630.23,-223.91 637.1,-190.92 641.94,-167.68"/>
<polygon fill="black" stroke="black" points="645.39,-168.27 644.01,-157.77 638.54,-166.84 645.39,-168.27"/>
</g>
<!-- n9 -->
<g id="node9" class="node">
<title>n9</title>
<polygon fill="lightcoral" stroke="black" points="1191.5,-158 874.28,-140 1191.5,-122 1508.72,-140 1191.5,-158"/>
<text text-anchor="middle" x="1191.5" y="-136.3" font-family="Arial" font-size="14.00">Confusion between reversible and irreversible changes</text>
</g>
<!-- n5&#45;&gt;n9 -->
<g id="edge8" class="edge">
<title>n5&#45;&gt;n9</title>
<path fill="none" stroke="black" d="M1054.4,-243.81C1082.8,-222.54 1131.1,-186.3 1162.1,-163.02"/>
<polygon fill="black" stroke="black" points="1164.48,-165.61 1170.4,-156.82 1160.29,-160 1164.48,-165.61"/>
</g>
<!-- n10 -->
<g id="node10" class="node">
<title>n10</title>
<polygon fill="#f28e8e" stroke="black" points="783.5,-36 511.5,-36 511.5,0 783.5,0 783.5,-36"/>
<text text-anchor="middle" x="647.5" y="-14.3" font-family="Arial" font-size="14.00">Explain ice reforming process more clearly</text>
</g>
<!-- n8&#45;&gt;n10 -->
<g id="edge9" class="edge">
<title>n8&#45;&gt;n10</title>
<path fill="none" stroke="black" d="M647.5,-121.81C647.5,-102.11 647.5,-69.58 647.5,-46.39"/>
<polygon fill="black" stroke="black" points="651,-46.16 647.5,-36.16 644,-46.16 651,-46.16"/>
</g>
<!-- n11 -->
<g id="node11" class="node">
<title>n11</title>
<polygon fill="#f28e8e" stroke="black" points="1321,-36 1062,-36 1062,0 1321,0 1321,-36"/>
<text text-anchor="middle" x="1191.5" y="-14.3" font-family="Arial" font-size="14.00">Clarify reversible vs irreversible changes</text>
</g>
<!-- n9&#45;&gt;n11 -->
<g id="edge10" class="edge">
<title>n9&#45;&gt;n11</title>
<path fill="none" stroke="black" d="M1191.5,-121.81C1191.5,-102.11 1191.5,-69.58 1191.5,-46.39"/>
<polygon fill="black" stroke="black" points="1195,-46.16 1191.5,-36.16 1188,-46.16 1195,-46.16"/>
</g>
</g>
</svg>
