<?xml version="1.0" encoding="UTF-8" standalone="no"?>
<!DOCTYPE svg PUBLIC "-//W3C//DTD SVG 1.1//EN"
 "http://www.w3.org/Graphics/SVG/1.1/DTD/svg11.dtd">
<!-- Generated by graphviz version 2.43.0 (0)
 -->
<!-- Pages: 1 -->
<svg width="1305pt" height="410pt"
 viewBox="0.00 0.00 1305.00 410.00" xmlns="http://www.w3.org/2000/svg" xmlns:xlink="http://www.w3.org/1999/xlink">
<g id="graph0" class="graph" transform="scale(1 1) rotate(0) translate(4 406)">
<polygon fill="white" stroke="transparent" points="-4,4 -4,-406 1301,-406 1301,4 -4,4"/>
<!-- n1 -->
<g id="node1" class="node">
<title>n1</title>
<polygon fill="lightblue" stroke="black" points="840.32,-384 717.91,-402 473.09,-402 350.68,-384 473.09,-366 717.91,-366 840.32,-384"/>
<text text-anchor="middle" x="595.5" y="-380.3" font-family="Arial" font-size="14.00">Draw a habitat and the different living things in each</text>
</g>
<!-- n2 -->
<g id="node2" class="node">
<title>n2</title>
<polygon fill="#fffdd0" stroke="black" points="251,-280 0,-280 0,-244 251,-244 251,-280"/>
<text text-anchor="middle" x="125.5" y="-258.3" font-family="Arial" font-size="14.00">Garden with trees, bushes, and flowers</text>
</g>
<!-- n1&#45;&gt;n2 -->
<g id="edge1" class="edge">
<title>n1&#45;&gt;n2</title>
<path fill="none" stroke="black" d="M528.66,-365.93C442.43,-343.92 292.77,-305.71 202.06,-282.55"/>
<polygon fill="black" stroke="black" points="202.67,-279.09 192.11,-280.01 200.93,-285.87 202.67,-279.09"/>
</g>
<!-- n3 -->
<g id="node3" class="node">
<title>n3</title>
<polygon fill="#fffdd0" stroke="black" points="572,-280 309,-280 309,-244 572,-244 572,-280"/>
<text text-anchor="middle" x="440.5" y="-258.3" font-family="Arial" font-size="14.00">Pond with fish, lily pads, and water plants</text>
</g>
<!-- n1&#45;&gt;n3 -->
<g id="edge2" class="edge">
<title>n1&#45;&gt;n3</title>
<path fill="none" stroke="black" d="M573.29,-365.81C546.36,-344.96 500.84,-309.71 470.72,-286.4"/>
<polygon fill="black" stroke="black" points="472.72,-283.52 462.67,-280.16 468.43,-289.05 472.72,-283.52"/>
</g>
<!-- n4 -->
<g id="node4" class="node">
<title>n4</title>
<polygon fill="#fffdd0" stroke="black" points="873,-280 630,-280 630,-244 873,-244 873,-280"/>
<text text-anchor="middle" x="751.5" y="-258.3" font-family="Arial" font-size="14.00">Squirrel, bird, and rabbit in the garden</text>
</g>
<!-- n1&#45;&gt;n4 -->
<g id="edge3" class="edge">
<title>n1&#45;&gt;n4</title>
<path fill="none" stroke="black" d="M617.85,-365.81C644.96,-344.96 690.78,-309.71 721.08,-286.4"/>
<polygon fill="black" stroke="black" points="723.4,-289.03 729.19,-280.16 719.13,-283.48 723.4,-289.03"/>
</g>
<!-- n5 -->
<g id="node5" class="node">
<title>n5</title>
<polygon fill="#fffdd0" stroke="black" points="1143.5,-280 961.5,-280 961.5,-244 1143.5,-244 1143.5,-280"/>
<text text-anchor="middle" x="1052.5" y="-258.3" font-family="Arial" font-size="14.00">Frogs and turtle at the pond</text>
</g>
<!-- n1&#45;&gt;n5 -->
<g id="edge4" class="edge">
<title>n1&#45;&gt;n5</title>
<path fill="none" stroke="black" d="M660.49,-365.93C744.25,-343.94 889.57,-305.78 977.79,-282.62"/>
<polygon fill="black" stroke="black" points="978.95,-285.93 987.73,-280.01 977.17,-279.16 978.95,-285.93"/>
</g>
<!-- n7 -->
<g id="node6" class="node">
<title>n7</title>
<path fill="palegreen" stroke="black" d="M244.5,-158C244.5,-158 12.5,-158 12.5,-158 6.5,-158 0.5,-152 0.5,-146 0.5,-146 0.5,-134 0.5,-134 0.5,-128 6.5,-122 12.5,-122 12.5,-122 244.5,-122 244.5,-122 250.5,-122 256.5,-128 256.5,-134 256.5,-134 256.5,-146 256.5,-146 256.5,-152 250.5,-158 244.5,-158"/>
<text text-anchor="middle" x="128.5" y="-136.3" font-family="Arial" font-size="14.00">Diverse organisms in the garden habitat</text>
</g>
<!-- n2&#45;&gt;n7 -->
<g id="edge5" class="edge">
<title>n2&#45;&gt;n7</title>
<path fill="none" stroke="black" d="M125.93,-243.81C126.42,-224.11 127.24,-191.58 127.82,-168.39"/>
<polygon fill="black" stroke="black" points="131.32,-168.24 128.07,-158.16 124.33,-168.07 131.32,-168.24"/>
</g>
<!-- n8 -->
<g id="node7" class="node">
<title>n8</title>
<path fill="palegreen" stroke="black" d="M548.5,-158C548.5,-158 328.5,-158 328.5,-158 322.5,-158 316.5,-152 316.5,-146 316.5,-146 316.5,-134 316.5,-134 316.5,-128 322.5,-122 328.5,-122 328.5,-122 548.5,-122 548.5,-122 554.5,-122 560.5,-128 560.5,-134 560.5,-134 560.5,-146 560.5,-146 560.5,-152 554.5,-158 548.5,-158"/>
<text text-anchor="middle" x="438.5" y="-136.3" font-family="Arial" font-size="14.00">Diverse organisms in the pond habitat</text>
</g>
<!-- n3&#45;&gt;n8 -->
<g id="edge6" class="edge">
<title>n3&#45;&gt;n8</title>
<path fill="none" stroke="black" d="M440.21,-243.81C439.89,-224.11 439.34,-191.58 438.96,-168.39"/>
<polygon fill="black" stroke="black" points="442.46,-168.1 438.79,-158.16 435.46,-168.22 442.46,-168.1"/>
</g>
<!-- n6 -->
<g id="node8" class="node">
<title>n6</title>
<path fill="palegreen" stroke="black" d="M804,-158C804,-158 631,-158 631,-158 625,-158 619,-152 619,-146 619,-146 619,-134 619,-134 619,-128 625,-122 631,-122 631,-122 804,-122 804,-122 810,-122 816,-128 816,-134 816,-134 816,-146 816,-146 816,-152 810,-158 804,-158"/>
<text text-anchor="middle" x="717.5" y="-136.3" font-family="Arial" font-size="14.00">Birds in both garden and pond</text>
</g>
<!-- n4&#45;&gt;n6 -->
<g id="edge7" class="edge">
<title>n4&#45;&gt;n6</title>
<path fill="none" stroke="black" d="M746.63,-243.81C741.02,-224.02 731.75,-191.29 725.17,-168.08"/>
<polygon fill="black" stroke="black" points="728.45,-166.83 722.36,-158.16 721.72,-168.74 728.45,-166.83"/>
</g>
<!-- n9 -->
<g id="node9" class="node">
<title>n9</title>
<polygon fill="lightcoral" stroke="black" points="1085.5,-158 874,-140 1085.5,-122 1297,-140 1085.5,-158"/>
<text text-anchor="middle" x="1085.5" y="-136.3" font-family="Arial" font-size="14.00">Fish swimming beneath the surface</text>
</g>
<!-- n5&#45;&gt;n9 -->
<g id="edge8" class="edge">
<title>n5&#45;&gt;n9</title>
<path fill="none" stroke="black" d="M1057.2,-243.81C1062.7,-223.91 1071.8,-190.92 1078.2,-167.68"/>
<polygon fill="black" stroke="black" points="1081.65,-168.34 1080.9,-157.77 1074.89,-166.5 1081.65,-168.34"/>
</g>
<!-- n11 -->
<g id="node10" class="node">
<title>n11</title>
<path fill="palegreen" stroke="black" d="M550.5,-36C550.5,-36 326.5,-36 326.5,-36 320.5,-36 314.5,-30 314.5,-24 314.5,-24 314.5,-12 314.5,-12 314.5,-6 320.5,0 326.5,0 326.5,0 550.5,0 550.5,0 556.5,0 562.5,-6 562.5,-12 562.5,-12 562.5,-24 562.5,-24 562.5,-30 556.5,-36 550.5,-36"/>
<text text-anchor="middle" x="438.5" y="-14.3" font-family="Arial" font-size="14.00">Diversity comparison between habitats</text>
</g>
<!-- n7&#45;&gt;n11 -->
<g id="edge9" class="edge">
<title>n7&#45;&gt;n11</title>
<path fill="none" stroke="black" d="M172.59,-121.93C228.48,-100.3 324.79,-63.02 384.88,-39.76"/>
<polygon fill="black" stroke="black" points="386.51,-42.88 394.57,-36.01 383.98,-36.35 386.51,-42.88"/>
</g>
<!-- n8&#45;&gt;n11 -->
<g id="edge10" class="edge">
<title>n8&#45;&gt;n11</title>
<path fill="none" stroke="black" d="M438.5,-121.81C438.5,-102.11 438.5,-69.58 438.5,-46.39"/>
<polygon fill="black" stroke="black" points="442,-46.16 438.5,-36.16 435,-46.16 442,-46.16"/>
</g>
<!-- n6&#45;&gt;n11 -->
<g id="edge11" class="edge">
<title>n6&#45;&gt;n11</title>
<path fill="none" stroke="black" d="M677.82,-121.93C627.72,-100.39 541.55,-63.33 487.43,-40.05"/>
<polygon fill="black" stroke="black" points="488.61,-36.74 478.04,-36.01 485.84,-43.17 488.61,-36.74"/>
</g>
<!-- n10 -->
<g id="node11" class="node">
<title>n10</title>
<polygon fill="#f28e8e" stroke="black" points="1240.5,-36 930.5,-36 930.5,0 1240.5,0 1240.5,-36"/>
<text text-anchor="middle" x="1085.5" y="-14.3" font-family="Arial" font-size="14.00">Label fish as water dwellers, not surface dwellers</text>
</g>
<!-- n9&#45;&gt;n10 -->
<g id="edge12" class="edge">
<title>n9&#45;&gt;n10</title>
<path fill="none" stroke="black" d="M1085.5,-121.81C1085.5,-102.11 1085.5,-69.58 1085.5,-46.39"/>
<polygon fill="black" stroke="black" points="1089,-46.16 1085.5,-36.16 1082,-46.16 1089,-46.16"/>
</g>
</g>
</svg>
