<?xml version="1.0" encoding="UTF-8" standalone="no"?>
<!DOCTYPE svg PUBLIC "-//W3C//DTD SVG 1.1//EN"
 "http://www.w3.org/Graphics/SVG/1.1/DTD/svg11.dtd">
<!-- Generated by graphviz version 2.43.0 (0)
 -->
<!-- Pages: 1 -->
<svg width="1784pt" height="410pt"
 viewBox="0.00 0.00 1783.73 410.00" xmlns="http://www.w3.org/2000/svg" xmlns:xlink="http://www.w3.org/1999/xlink">
<g id="graph0" class="graph" transform="scale(1 1) rotate(0) translate(4 406)">
<polygon fill="white" stroke="transparent" points="-4,4 -4,-406 1779.73,-406 1779.73,4 -4,4"/>
<!-- n1 -->
<g id="node1" class="node">
<title>n1</title>
<polygon fill="lightblue" stroke="black" points="1042.5,-384 928.75,-402 701.25,-402 587.5,-384 701.25,-366 928.75,-366 1042.5,-384"/>
<text text-anchor="middle" x="815" y="-380.3" font-family="Arial" font-size="14.00">Illustrate plants with and without water and light.</text>
</g>
<!-- n2 -->
<g id="node2" class="node">
<title>n2</title>
<polygon fill="#fffdd0" stroke="black" points="501,-280 277,-280 277,-244 501,-244 501,-280"/>
<text text-anchor="middle" x="389" y="-258.3" font-family="Arial" font-size="14.00">A healthy plant with sun and water.</text>
</g>
<!-- n1&#45;&gt;n2 -->
<g id="edge1" class="edge">
<title>n1&#45;&gt;n2</title>
<path fill="none" stroke="black" d="M754.42,-365.93C676.5,-343.99 541.43,-305.94 459.14,-282.76"/>
<polygon fill="black" stroke="black" points="459.94,-279.35 449.37,-280.01 458.05,-286.09 459.94,-279.35"/>
</g>
<!-- n3 -->
<g id="node3" class="node">
<title>n3</title>
<polygon fill="#fffdd0" stroke="black" points="909,-280 721,-280 721,-244 909,-244 909,-280"/>
<text text-anchor="middle" x="815" y="-258.3" font-family="Arial" font-size="14.00">A plant with drooping leaves.</text>
</g>
<!-- n1&#45;&gt;n3 -->
<g id="edge2" class="edge">
<title>n1&#45;&gt;n3</title>
<path fill="none" stroke="black" d="M815,-365.81C815,-346.11 815,-313.58 815,-290.39"/>
<polygon fill="black" stroke="black" points="818.5,-290.16 815,-280.16 811.5,-290.16 818.5,-290.16"/>
</g>
<!-- n4 -->
<g id="node4" class="node">
<title>n4</title>
<polygon fill="#fffdd0" stroke="black" points="1346,-280 1180,-280 1180,-244 1346,-244 1346,-280"/>
<text text-anchor="middle" x="1263" y="-258.3" font-family="Arial" font-size="14.00">A plant in a shaded area.</text>
</g>
<!-- n1&#45;&gt;n4 -->
<g id="edge3" class="edge">
<title>n1&#45;&gt;n4</title>
<path fill="none" stroke="black" d="M878.71,-365.93C960.82,-343.94 1103.3,-305.78 1189.8,-282.62"/>
<polygon fill="black" stroke="black" points="1190.75,-285.99 1199.5,-280.01 1188.93,-279.23 1190.75,-285.99"/>
</g>
<!-- n5 -->
<g id="node5" class="node">
<title>n5</title>
<path fill="palegreen" stroke="black" d="M440,-158C440,-158 12,-158 12,-158 6,-158 0,-152 0,-146 0,-146 0,-134 0,-134 0,-128 6,-122 12,-122 12,-122 440,-122 440,-122 446,-122 452,-128 452,-134 452,-134 452,-146 452,-146 452,-152 446,-158 440,-158"/>
<text text-anchor="middle" x="226" y="-136.3" font-family="Arial" font-size="14.00">Understands that the plant is healthy when it has enough water and light.</text>
</g>
<!-- n2&#45;&gt;n5 -->
<g id="edge4" class="edge">
<title>n2&#45;&gt;n5</title>
<path fill="none" stroke="black" d="M365.65,-243.81C337.2,-222.87 289.04,-187.41 257.38,-164.1"/>
<polygon fill="black" stroke="black" points="259.44,-161.27 249.31,-158.16 255.29,-166.91 259.44,-161.27"/>
</g>
<!-- n6 -->
<g id="node6" class="node">
<title>n6</title>
<polygon fill="lightcoral" stroke="black" points="815,-158 509.68,-140 815,-122 1120.32,-140 815,-158"/>
<text text-anchor="middle" x="815" y="-136.3" font-family="Arial" font-size="14.00">Incomplete understanding of impact of lacking water.</text>
</g>
<!-- n3&#45;&gt;n6 -->
<g id="edge5" class="edge">
<title>n3&#45;&gt;n6</title>
<path fill="none" stroke="black" d="M815,-243.81C815,-224.11 815,-191.58 815,-168.39"/>
<polygon fill="black" stroke="black" points="818.5,-168.16 815,-158.16 811.5,-168.16 818.5,-168.16"/>
</g>
<!-- n7 -->
<g id="node7" class="node">
<title>n7</title>
<polygon fill="lightcoral" stroke="black" points="1477,-158 1178.05,-140 1477,-122 1775.95,-140 1477,-158"/>
<text text-anchor="middle" x="1477" y="-136.3" font-family="Arial" font-size="14.00">Incomplete understanding of impact of lacking light.</text>
</g>
<!-- n4&#45;&gt;n7 -->
<g id="edge6" class="edge">
<title>n4&#45;&gt;n7</title>
<path fill="none" stroke="black" d="M1293.7,-243.81C1332.4,-222.06 1399.2,-184.65 1440.5,-161.45"/>
<polygon fill="black" stroke="black" points="1442.46,-164.37 1449.5,-156.45 1439.06,-158.25 1442.46,-164.37"/>
</g>
<!-- n8 -->
<g id="node8" class="node">
<title>n8</title>
<polygon fill="#f28e8e" stroke="black" points="1075,-36 555,-36 555,0 1075,0 1075,-36"/>
<text text-anchor="middle" x="815" y="-14.3" font-family="Arial" font-size="14.00">Consider drawing a wilted plant with brown or drooping leaves to show lack of water.</text>
</g>
<!-- n6&#45;&gt;n8 -->
<g id="edge7" class="edge">
<title>n6&#45;&gt;n8</title>
<path fill="none" stroke="black" d="M815,-121.81C815,-102.11 815,-69.58 815,-46.39"/>
<polygon fill="black" stroke="black" points="818.5,-46.16 815,-36.16 811.5,-46.16 818.5,-46.16"/>
</g>
<!-- n9 -->
<g id="node9" class="node">
<title>n9</title>
<polygon fill="#f28e8e" stroke="black" points="1748,-36 1206,-36 1206,0 1748,0 1748,-36"/>
<text text-anchor="middle" x="1477" y="-14.3" font-family="Arial" font-size="14.00">Show a smaller plant or one with less vibrant colors in the shade to indicate lack of light.</text>
</g>
<!-- n7&#45;&gt;n9 -->
<g id="edge8" class="edge">
<title>n7&#45;&gt;n9</title>
<path fill="none" stroke="black" d="M1477,-121.81C1477,-102.11 1477,-69.58 1477,-46.39"/>
<polygon fill="black" stroke="black" points="1480.5,-46.16 1477,-36.16 1473.5,-46.16 1480.5,-46.16"/>
</g>
</g>
</svg>
