<?xml version="1.0" encoding="UTF-8" standalone="no"?>
<!DOCTYPE svg PUBLIC "-//W3C//DTD SVG 1.1//EN"
 "http://www.w3.org/Graphics/SVG/1.1/DTD/svg11.dtd">
<!-- Generated by graphviz version 2.43.0 (0)
 -->
<!-- Pages: 1 -->
<svg width="1404pt" height="410pt"
 viewBox="0.00 0.00 1403.50 410.00" xmlns="http://www.w3.org/2000/svg" xmlns:xlink="http://www.w3.org/1999/xlink">
<g id="graph0" class="graph" transform="scale(1 1) rotate(0) translate(4 406)">
<polygon fill="white" stroke="transparent" points="-4,4 -4,-406 1399.5,-406 1399.5,4 -4,4"/>
<!-- n1 -->
<g id="node1" class="node">
<title>n1</title>
<polygon fill="lightblue" stroke="black" points="972,-384 860.5,-402 637.5,-402 526,-384 637.5,-366 860.5,-366 972,-384"/>
<text text-anchor="middle" x="749" y="-380.3" font-family="Arial" font-size="14.00">Draw a string telephone between two students.</text>
</g>
<!-- n2 -->
<g id="node2" class="node">
<title>n2</title>
<polygon fill="#fffdd0" stroke="black" points="286.5,-280 47.5,-280 47.5,-244 286.5,-244 286.5,-280"/>
<text text-anchor="middle" x="167" y="-258.3" font-family="Arial" font-size="14.00">Two students holding cups and string</text>
</g>
<!-- n1&#45;&gt;n2 -->
<g id="edge1" class="edge">
<title>n1&#45;&gt;n2</title>
<path fill="none" stroke="black" d="M666.54,-366C559.09,-343.84 371.72,-305.21 259.53,-282.08"/>
<polygon fill="black" stroke="black" points="260.08,-278.62 249.58,-280.03 258.67,-285.48 260.08,-278.62"/>
</g>
<!-- n3 -->
<g id="node3" class="node">
<title>n3</title>
<polygon fill="#fffdd0" stroke="black" points="542,-280 366,-280 366,-244 542,-244 542,-280"/>
<text text-anchor="middle" x="454" y="-258.3" font-family="Arial" font-size="14.00">String connecting the cups</text>
</g>
<!-- n1&#45;&gt;n3 -->
<g id="edge2" class="edge">
<title>n1&#45;&gt;n3</title>
<path fill="none" stroke="black" d="M707.05,-365.93C653.97,-344.34 562.59,-307.17 505.38,-283.9"/>
<polygon fill="black" stroke="black" points="506.39,-280.53 495.81,-280.01 503.76,-287.02 506.39,-280.53"/>
</g>
<!-- n4 -->
<g id="node4" class="node">
<title>n4</title>
<polygon fill="#fffdd0" stroke="black" points="861,-280 637,-280 637,-244 861,-244 861,-280"/>
<text text-anchor="middle" x="749" y="-258.3" font-family="Arial" font-size="14.00">Label included for &#39;cup&#39; and &#39;string&#39;</text>
</g>
<!-- n1&#45;&gt;n4 -->
<g id="edge3" class="edge">
<title>n1&#45;&gt;n4</title>
<path fill="none" stroke="black" d="M749,-365.81C749,-346.11 749,-313.58 749,-290.39"/>
<polygon fill="black" stroke="black" points="752.5,-290.16 749,-280.16 745.5,-290.16 752.5,-290.16"/>
</g>
<!-- n5 -->
<g id="node5" class="node">
<title>n5</title>
<polygon fill="#fffdd0" stroke="black" points="1116.5,-280 919.5,-280 919.5,-244 1116.5,-244 1116.5,-280"/>
<text text-anchor="middle" x="1018" y="-258.3" font-family="Arial" font-size="14.00">Arrows indicating sound travel</text>
</g>
<!-- n1&#45;&gt;n5 -->
<g id="edge4" class="edge">
<title>n1&#45;&gt;n5</title>
<path fill="none" stroke="black" d="M787.26,-365.93C835.46,-344.43 918.29,-307.48 970.5,-284.19"/>
<polygon fill="black" stroke="black" points="972.17,-287.28 979.88,-280.01 969.32,-280.88 972.17,-287.28"/>
</g>
<!-- n6 -->
<g id="node6" class="node">
<title>n6</title>
<polygon fill="#fffdd0" stroke="black" points="1395.5,-280 1174.5,-280 1174.5,-244 1395.5,-244 1395.5,-280"/>
<text text-anchor="middle" x="1285" y="-258.3" font-family="Arial" font-size="14.00">Outdoor setting with tree or bench</text>
</g>
<!-- n1&#45;&gt;n6 -->
<g id="edge5" class="edge">
<title>n1&#45;&gt;n6</title>
<path fill="none" stroke="black" d="M824.94,-366C923.7,-343.89 1095.8,-305.37 1199.2,-282.22"/>
<polygon fill="black" stroke="black" points="1199.92,-285.65 1208.9,-280.03 1198.37,-278.82 1199.92,-285.65"/>
</g>
<!-- n7 -->
<g id="node7" class="node">
<title>n7</title>
<path fill="palegreen" stroke="black" d="M242,-158C242,-158 12,-158 12,-158 6,-158 0,-152 0,-146 0,-146 0,-134 0,-134 0,-128 6,-122 12,-122 12,-122 242,-122 242,-122 248,-122 254,-128 254,-134 254,-134 254,-146 254,-146 254,-152 248,-158 242,-158"/>
<text text-anchor="middle" x="127" y="-136.3" font-family="Arial" font-size="14.00">Illustrates communication over distance</text>
</g>
<!-- n2&#45;&gt;n7 -->
<g id="edge6" class="edge">
<title>n2&#45;&gt;n7</title>
<path fill="none" stroke="black" d="M161.27,-243.81C154.65,-223.94 143.66,-190.99 135.92,-167.76"/>
<polygon fill="black" stroke="black" points="139.2,-166.54 132.72,-158.16 132.56,-168.75 139.2,-166.54"/>
</g>
<!-- n8 -->
<g id="node8" class="node">
<title>n8</title>
<path fill="palegreen" stroke="black" d="M545.5,-158C545.5,-158 324.5,-158 324.5,-158 318.5,-158 312.5,-152 312.5,-146 312.5,-146 312.5,-134 312.5,-134 312.5,-128 318.5,-122 324.5,-122 324.5,-122 545.5,-122 545.5,-122 551.5,-122 557.5,-128 557.5,-134 557.5,-134 557.5,-146 557.5,-146 557.5,-152 551.5,-158 545.5,-158"/>
<text text-anchor="middle" x="435" y="-136.3" font-family="Arial" font-size="14.00">Correctly shows how the device works</text>
</g>
<!-- n3&#45;&gt;n8 -->
<g id="edge7" class="edge">
<title>n3&#45;&gt;n8</title>
<path fill="none" stroke="black" d="M451.28,-243.81C448.15,-224.02 442.96,-191.29 439.29,-168.08"/>
<polygon fill="black" stroke="black" points="442.74,-167.49 437.72,-158.16 435.83,-168.58 442.74,-167.49"/>
</g>
<!-- n9 -->
<g id="node9" class="node">
<title>n9</title>
<polygon fill="lightcoral" stroke="black" points="768,-158 615.34,-140 768,-122 920.66,-140 768,-158"/>
<text text-anchor="middle" x="768" y="-136.3" font-family="Arial" font-size="14.00">Minor labeling omissions</text>
</g>
<!-- n4&#45;&gt;n9 -->
<g id="edge8" class="edge">
<title>n4&#45;&gt;n9</title>
<path fill="none" stroke="black" d="M751.72,-243.81C754.87,-223.91 760.1,-190.92 763.78,-167.68"/>
<polygon fill="black" stroke="black" points="767.24,-168.19 765.34,-157.77 760.33,-167.1 767.24,-168.19"/>
</g>
<!-- n10 -->
<g id="node10" class="node">
<title>n10</title>
<polygon fill="lightcoral" stroke="black" points="1182,-158 978.73,-140 1182,-122 1385.27,-140 1182,-158"/>
<text text-anchor="middle" x="1182" y="-136.3" font-family="Arial" font-size="14.00">Sound waves are overly simplified</text>
</g>
<!-- n5&#45;&gt;n10 -->
<g id="edge9" class="edge">
<title>n5&#45;&gt;n10</title>
<path fill="none" stroke="black" d="M1041.5,-243.81C1070.8,-222.36 1120.9,-185.7 1152.7,-162.44"/>
<polygon fill="black" stroke="black" points="1155.12,-165.01 1161.1,-156.26 1150.97,-159.37 1155.12,-165.01"/>
</g>
<!-- n11 -->
<g id="node11" class="node">
<title>n11</title>
<polygon fill="#f28e8e" stroke="black" points="859.5,-36 676.5,-36 676.5,0 859.5,0 859.5,-36"/>
<text text-anchor="middle" x="768" y="-14.3" font-family="Arial" font-size="14.00">Consider labeling both cups</text>
</g>
<!-- n9&#45;&gt;n11 -->
<g id="edge10" class="edge">
<title>n9&#45;&gt;n11</title>
<path fill="none" stroke="black" d="M768,-121.81C768,-102.11 768,-69.58 768,-46.39"/>
<polygon fill="black" stroke="black" points="771.5,-46.16 768,-36.16 764.5,-46.16 771.5,-46.16"/>
</g>
<!-- n12 -->
<g id="node12" class="node">
<title>n12</title>
<polygon fill="#f28e8e" stroke="black" points="1341,-36 1023,-36 1023,0 1341,0 1341,-36"/>
<text text-anchor="middle" x="1182" y="-14.3" font-family="Arial" font-size="14.00">Introduce more complex depiction of sound waves</text>
</g>
<!-- n10&#45;&gt;n12 -->
<g id="edge11" class="edge">
<title>n10&#45;&gt;n12</title>
<path fill="none" stroke="black" d="M1182,-121.81C1182,-102.11 1182,-69.58 1182,-46.39"/>
<polygon fill="black" stroke="black" points="1185.5,-46.16 1182,-36.16 1178.5,-46.16 1185.5,-46.16"/>
</g>
</g>
</svg>
