<?xml version="1.0" encoding="UTF-8" standalone="no"?>
<!DOCTYPE svg PUBLIC "-//W3C//DTD SVG 1.1//EN"
 "http://www.w3.org/Graphics/SVG/1.1/DTD/svg11.dtd">
<!-- Generated by graphviz version 2.43.0 (0)
 -->
<!-- Pages: 1 -->
<svg width="2264pt" height="410pt"
 viewBox="0.00 0.00 2263.70 410.00" xmlns="http://www.w3.org/2000/svg" xmlns:xlink="http://www.w3.org/1999/xlink">
<g id="graph0" class="graph" transform="scale(1 1) rotate(0) translate(4 406)">
<polygon fill="white" stroke="transparent" points="-4,4 -4,-406 2259.7,-406 2259.7,4 -4,4"/>
<!-- n1 -->
<g id="node1" class="node">
<title>n1</title>
<polygon fill="lightblue" stroke="black" points="1481.7,-384 1351.45,-402 1090.95,-402 960.7,-384 1090.95,-366 1351.45,-366 1481.7,-384"/>
<text text-anchor="middle" x="1221.2" y="-380.3" font-family="Arial" font-size="14.00">Draw two habitats and the different living things in each</text>
</g>
<!-- n2 -->
<g id="node2" class="node">
<title>n2</title>
<polygon fill="#fffdd0" stroke="black" points="1216.22,-280 756.22,-280 756.22,-244 1216.22,-244 1216.22,-280"/>
<text text-anchor="middle" x="986.22" y="-258.3" font-family="Arial" font-size="14.00">Left side: Forest habitat with large green trees, squirrels, bushes, and ants</text>
</g>
<!-- n1&#45;&gt;n2 -->
<g id="edge1" class="edge">
<title>n1&#45;&gt;n2</title>
<path fill="none" stroke="black" d="M1187.6,-365.81C1145.8,-344.47 1074.4,-308.05 1028.9,-284.77"/>
<polygon fill="black" stroke="black" points="1030.3,-281.56 1019.8,-280.16 1027.14,-287.8 1030.3,-281.56"/>
</g>
<!-- n3 -->
<g id="node3" class="node">
<title>n3</title>
<polygon fill="#fffdd0" stroke="black" points="1695.2,-280 1331.2,-280 1331.2,-244 1695.2,-244 1695.2,-280"/>
<text text-anchor="middle" x="1513.2" y="-258.3" font-family="Arial" font-size="14.00">Right side: Pond habitat with blue water, fish, and lily pads</text>
</g>
<!-- n1&#45;&gt;n3 -->
<g id="edge2" class="edge">
<title>n1&#45;&gt;n3</title>
<path fill="none" stroke="black" d="M1262.7,-365.93C1315.3,-344.34 1405.7,-307.17 1462.4,-283.9"/>
<polygon fill="black" stroke="black" points="1463.9,-287.07 1471.8,-280.01 1461.22,-280.6 1463.9,-287.07"/>
</g>
<!-- n4 -->
<g id="node4" class="node">
<title>n4</title>
<path fill="palegreen" stroke="black" d="M1131.72,-158C1131.72,-158 724.72,-158 724.72,-158 718.72,-158 712.72,-152 712.72,-146 712.72,-146 712.72,-134 712.72,-134 712.72,-128 718.72,-122 724.72,-122 724.72,-122 1131.72,-122 1131.72,-122 1137.72,-122 1143.72,-128 1143.72,-134 1143.72,-134 1143.72,-146 1143.72,-146 1143.72,-152 1137.72,-158 1131.72,-158"/>
<text text-anchor="middle" x="928.22" y="-136.3" font-family="Arial" font-size="14.00">Includes different land habitat elements, like trees, squirrels, and ants</text>
</g>
<!-- n2&#45;&gt;n4 -->
<g id="edge3" class="edge">
<title>n2&#45;&gt;n4</title>
<path fill="none" stroke="black" d="M977.91,-243.81C968.26,-223.85 952.24,-190.7 941,-167.45"/>
<polygon fill="black" stroke="black" points="944.01,-165.64 936.51,-158.16 937.71,-168.69 944.01,-165.64"/>
</g>
<!-- n6 -->
<g id="node5" class="node">
<title>n6</title>
<polygon fill="lightcoral" stroke="black" points="1513.2,-158 1201.51,-140 1513.2,-122 1824.89,-140 1513.2,-158"/>
<text text-anchor="middle" x="1513.2" y="-136.3" font-family="Arial" font-size="14.00">Labels squirrels and fish but misses ants and lily pads</text>
</g>
<!-- n2&#45;&gt;n6 -->
<g id="edge4" class="edge">
<title>n2&#45;&gt;n6</title>
<path fill="none" stroke="black" d="M1060.9,-244C1162.9,-220.78 1344.4,-179.45 1443.6,-156.85"/>
<polygon fill="black" stroke="black" points="1444.62,-160.21 1453.6,-154.59 1443.07,-153.38 1444.62,-160.21"/>
</g>
<!-- n8 -->
<g id="node6" class="node">
<title>n8</title>
<polygon fill="lightcoral" stroke="black" points="327.22,-158 -0.22,-140 327.22,-122 654.66,-140 327.22,-158"/>
<text text-anchor="middle" x="327.22" y="-136.3" font-family="Arial" font-size="14.00">Basic elements are drawn, but with limited plant diversity</text>
</g>
<!-- n2&#45;&gt;n8 -->
<g id="edge5" class="edge">
<title>n2&#45;&gt;n8</title>
<path fill="none" stroke="black" d="M892.85,-244C763.68,-220.48 532.53,-178.39 409.52,-155.99"/>
<polygon fill="black" stroke="black" points="409.87,-152.5 399.4,-154.14 408.61,-159.38 409.87,-152.5"/>
</g>
<!-- n3&#45;&gt;n6 -->
<g id="edge6" class="edge">
<title>n3&#45;&gt;n6</title>
<path fill="none" stroke="black" d="M1513.2,-243.81C1513.2,-224.11 1513.2,-191.58 1513.2,-168.39"/>
<polygon fill="black" stroke="black" points="1516.7,-168.16 1513.2,-158.16 1509.7,-168.16 1516.7,-168.16"/>
</g>
<!-- n5 -->
<g id="node7" class="node">
<title>n5</title>
<path fill="palegreen" stroke="black" d="M2243.7,-158C2243.7,-158 1894.7,-158 1894.7,-158 1888.7,-158 1882.7,-152 1882.7,-146 1882.7,-146 1882.7,-134 1882.7,-134 1882.7,-128 1888.7,-122 1894.7,-122 1894.7,-122 2243.7,-122 2243.7,-122 2249.7,-122 2255.7,-128 2255.7,-134 2255.7,-134 2255.7,-146 2255.7,-146 2255.7,-152 2249.7,-158 2243.7,-158"/>
<text text-anchor="middle" x="2069.2" y="-136.3" font-family="Arial" font-size="14.00">Includes water habitat elements, like fish and aquatic plants</text>
</g>
<!-- n3&#45;&gt;n5 -->
<g id="edge7" class="edge">
<title>n3&#45;&gt;n5</title>
<path fill="none" stroke="black" d="M1592,-244C1694.5,-221.87 1873.3,-183.29 1980.5,-160.15"/>
<polygon fill="black" stroke="black" points="1981.27,-163.57 1990.3,-158.03 1979.79,-156.72 1981.27,-163.57"/>
</g>
<!-- n7 -->
<g id="node8" class="node">
<title>n7</title>
<polygon fill="#f28e8e" stroke="black" points="1671.7,-36 1354.7,-36 1354.7,0 1671.7,0 1671.7,-36"/>
<text text-anchor="middle" x="1513.2" y="-14.3" font-family="Arial" font-size="14.00">Add labels for all living elements for completeness</text>
</g>
<!-- n6&#45;&gt;n7 -->
<g id="edge8" class="edge">
<title>n6&#45;&gt;n7</title>
<path fill="none" stroke="black" d="M1513.2,-121.81C1513.2,-102.11 1513.2,-69.58 1513.2,-46.39"/>
<polygon fill="black" stroke="black" points="1516.7,-46.16 1513.2,-36.16 1509.7,-46.16 1516.7,-46.16"/>
</g>
<!-- n9 -->
<g id="node9" class="node">
<title>n9</title>
<polygon fill="#f28e8e" stroke="black" points="521.72,-36 132.72,-36 132.72,0 521.72,0 521.72,-36"/>
<text text-anchor="middle" x="327.22" y="-14.3" font-family="Arial" font-size="14.00">Try including more plant types, like grasses or flowering plants</text>
</g>
<!-- n8&#45;&gt;n9 -->
<g id="edge9" class="edge">
<title>n8&#45;&gt;n9</title>
<path fill="none" stroke="black" d="M327.22,-121.81C327.22,-102.11 327.22,-69.58 327.22,-46.39"/>
<polygon fill="black" stroke="black" points="330.72,-46.16 327.22,-36.16 323.72,-46.16 330.72,-46.16"/>
</g>
</g>
</svg>
