<?xml version="1.0" encoding="UTF-8" standalone="no"?>
<!DOCTYPE svg PUBLIC "-//W3C//DTD SVG 1.1//EN"
 "http://www.w3.org/Graphics/SVG/1.1/DTD/svg11.dtd">
<!-- Generated by graphviz version 2.43.0 (0)
 -->
<!-- Pages: 1 -->
<svg width="1893pt" height="410pt"
 viewBox="0.00 0.00 1892.50 410.00" xmlns="http://www.w3.org/2000/svg" xmlns:xlink="http://www.w3.org/1999/xlink">
<g id="graph0" class="graph" transform="scale(1 1) rotate(0) translate(4 406)">
<polygon fill="white" stroke="transparent" points="-4,4 -4,-406 1888.5,-406 1888.5,4 -4,4"/>
<!-- n1 -->
<g id="node1" class="node">
<title>n1</title>
<polygon fill="lightblue" stroke="black" points="1129,-384 1017.5,-402 794.5,-402 683,-384 794.5,-366 1017.5,-366 1129,-384"/>
<text text-anchor="middle" x="906" y="-380.3" font-family="Arial" font-size="14.00">Draw a string telephone between two students.</text>
</g>
<!-- n2 -->
<g id="node2" class="node">
<title>n2</title>
<polygon fill="#fffdd0" stroke="black" points="358.5,-280 115.5,-280 115.5,-244 358.5,-244 358.5,-280"/>
<text text-anchor="middle" x="237" y="-258.3" font-family="Arial" font-size="14.00">Two students using a string telephone</text>
</g>
<!-- n1&#45;&gt;n2 -->
<g id="edge1" class="edge">
<title>n1&#45;&gt;n2</title>
<path fill="none" stroke="black" d="M811.21,-366C687.2,-343.75 470.58,-304.9 341.81,-281.8"/>
<polygon fill="black" stroke="black" points="342.38,-278.35 331.92,-280.03 341.15,-285.24 342.38,-278.35"/>
</g>
<!-- n3 -->
<g id="node3" class="node">
<title>n3</title>
<polygon fill="#fffdd0" stroke="black" points="690,-280 458,-280 458,-244 690,-244 690,-280"/>
<text text-anchor="middle" x="574" y="-258.3" font-family="Arial" font-size="14.00">Paper cups connected by taut string</text>
</g>
<!-- n1&#45;&gt;n3 -->
<g id="edge2" class="edge">
<title>n1&#45;&gt;n3</title>
<path fill="none" stroke="black" d="M858.79,-365.93C798.68,-344.21 694.93,-306.71 630.63,-283.47"/>
<polygon fill="black" stroke="black" points="631.64,-280.12 621.05,-280.01 629.27,-286.7 631.64,-280.12"/>
</g>
<!-- n4 -->
<g id="node4" class="node">
<title>n4</title>
<polygon fill="#fffdd0" stroke="black" points="1024,-280 788,-280 788,-244 1024,-244 1024,-280"/>
<text text-anchor="middle" x="906" y="-258.3" font-family="Arial" font-size="14.00">Sound waves represented by arrows</text>
</g>
<!-- n1&#45;&gt;n4 -->
<g id="edge3" class="edge">
<title>n1&#45;&gt;n4</title>
<path fill="none" stroke="black" d="M906,-365.81C906,-346.11 906,-313.58 906,-290.39"/>
<polygon fill="black" stroke="black" points="909.5,-290.16 906,-280.16 902.5,-290.16 909.5,-290.16"/>
</g>
<!-- n5 -->
<g id="node5" class="node">
<title>n5</title>
<polygon fill="#fffdd0" stroke="black" points="1319.5,-280 1120.5,-280 1120.5,-244 1319.5,-244 1319.5,-280"/>
<text text-anchor="middle" x="1220" y="-258.3" font-family="Arial" font-size="14.00">Speech bubbles near students</text>
</g>
<!-- n1&#45;&gt;n5 -->
<g id="edge4" class="edge">
<title>n1&#45;&gt;n5</title>
<path fill="none" stroke="black" d="M950.66,-365.93C1007.4,-344.25 1105.2,-306.86 1166.1,-283.61"/>
<polygon fill="black" stroke="black" points="1167.41,-286.86 1175.5,-280.01 1164.91,-280.32 1167.41,-286.86"/>
</g>
<!-- n6 -->
<g id="node6" class="node">
<title>n6</title>
<polygon fill="#fffdd0" stroke="black" points="1633,-280 1489,-280 1489,-244 1633,-244 1633,-280"/>
<text text-anchor="middle" x="1561" y="-258.3" font-family="Arial" font-size="14.00">Labeling: cups, string</text>
</g>
<!-- n1&#45;&gt;n6 -->
<g id="edge5" class="edge">
<title>n1&#45;&gt;n6</title>
<path fill="none" stroke="black" d="M998.8,-366C1127,-342.51 1356.3,-300.5 1478.7,-278.08"/>
<polygon fill="black" stroke="black" points="1479.59,-281.47 1488.8,-276.23 1478.33,-274.59 1479.59,-281.47"/>
</g>
<!-- n7 -->
<g id="node7" class="node">
<title>n7</title>
<path fill="palegreen" stroke="black" d="M302,-158C302,-158 12,-158 12,-158 6,-158 0,-152 0,-146 0,-146 0,-134 0,-134 0,-128 6,-122 12,-122 12,-122 302,-122 302,-122 308,-122 314,-128 314,-134 314,-134 314,-146 314,-146 314,-152 308,-158 302,-158"/>
<text text-anchor="middle" x="157" y="-136.3" font-family="Arial" font-size="14.00">Illustrates basic communication device accurately</text>
</g>
<!-- n2&#45;&gt;n7 -->
<g id="edge6" class="edge">
<title>n2&#45;&gt;n7</title>
<path fill="none" stroke="black" d="M225.54,-243.81C212.05,-223.58 189.54,-189.81 174.01,-166.52"/>
<polygon fill="black" stroke="black" points="176.9,-164.54 168.44,-158.16 171.07,-168.42 176.9,-164.54"/>
</g>
<!-- n8 -->
<g id="node8" class="node">
<title>n8</title>
<path fill="palegreen" stroke="black" d="M686,-158C686,-158 384,-158 384,-158 378,-158 372,-152 372,-146 372,-146 372,-134 372,-134 372,-128 378,-122 384,-122 384,-122 686,-122 686,-122 692,-122 698,-128 698,-134 698,-134 698,-146 698,-146 698,-152 692,-158 686,-158"/>
<text text-anchor="middle" x="535" y="-136.3" font-family="Arial" font-size="14.00">Understanding of sound transmission through string</text>
</g>
<!-- n3&#45;&gt;n8 -->
<g id="edge7" class="edge">
<title>n3&#45;&gt;n8</title>
<path fill="none" stroke="black" d="M568.41,-243.81C561.95,-223.94 551.25,-190.99 543.7,-167.76"/>
<polygon fill="black" stroke="black" points="547,-166.59 540.58,-158.16 540.34,-168.75 547,-166.59"/>
</g>
<!-- n9 -->
<g id="node9" class="node">
<title>n9</title>
<path fill="palegreen" stroke="black" d="M1043.5,-158C1043.5,-158 768.5,-158 768.5,-158 762.5,-158 756.5,-152 756.5,-146 756.5,-146 756.5,-134 756.5,-134 756.5,-128 762.5,-122 768.5,-122 768.5,-122 1043.5,-122 1043.5,-122 1049.5,-122 1055.5,-128 1055.5,-134 1055.5,-134 1055.5,-146 1055.5,-146 1055.5,-152 1049.5,-158 1043.5,-158"/>
<text text-anchor="middle" x="906" y="-136.3" font-family="Arial" font-size="14.00">Concept of sound waves moving between cups</text>
</g>
<!-- n4&#45;&gt;n9 -->
<g id="edge8" class="edge">
<title>n4&#45;&gt;n9</title>
<path fill="none" stroke="black" d="M906,-243.81C906,-224.11 906,-191.58 906,-168.39"/>
<polygon fill="black" stroke="black" points="909.5,-168.16 906,-158.16 902.5,-168.16 909.5,-168.16"/>
</g>
<!-- n10 -->
<g id="node10" class="node">
<title>n10</title>
<path fill="palegreen" stroke="black" d="M1392,-158C1392,-158 1126,-158 1126,-158 1120,-158 1114,-152 1114,-146 1114,-146 1114,-134 1114,-134 1114,-128 1120,-122 1126,-122 1126,-122 1392,-122 1392,-122 1398,-122 1404,-128 1404,-134 1404,-134 1404,-146 1404,-146 1404,-152 1398,-158 1392,-158"/>
<text text-anchor="middle" x="1259" y="-136.3" font-family="Arial" font-size="14.00">Demonstrates communication through device</text>
</g>
<!-- n5&#45;&gt;n10 -->
<g id="edge9" class="edge">
<title>n5&#45;&gt;n10</title>
<path fill="none" stroke="black" d="M1225.6,-243.81C1232,-223.94 1242.8,-190.99 1250.3,-167.76"/>
<polygon fill="black" stroke="black" points="1253.66,-168.75 1253.4,-158.16 1247,-166.6 1253.66,-168.75"/>
</g>
<!-- n11 -->
<g id="node11" class="node">
<title>n11</title>
<polygon fill="lightcoral" stroke="black" points="1673,-158 1461.5,-140 1673,-122 1884.5,-140 1673,-158"/>
<text text-anchor="middle" x="1673" y="-136.3" font-family="Arial" font-size="14.00">Occasional forgetfulness in labeling</text>
</g>
<!-- n6&#45;&gt;n11 -->
<g id="edge10" class="edge">
<title>n6&#45;&gt;n11</title>
<path fill="none" stroke="black" d="M1577,-243.81C1596.5,-222.96 1629.4,-187.74 1651.1,-164.42"/>
<polygon fill="black" stroke="black" points="1653.78,-166.68 1658.1,-157.01 1648.69,-161.88 1653.78,-166.68"/>
</g>
<!-- n12 -->
<g id="node12" class="node">
<title>n12</title>
<polygon fill="#f28e8e" stroke="black" points="1789.5,-36 1556.5,-36 1556.5,0 1789.5,0 1789.5,-36"/>
<text text-anchor="middle" x="1673" y="-14.3" font-family="Arial" font-size="14.00">Ensure consistent labeling for clarity</text>
</g>
<!-- n11&#45;&gt;n12 -->
<g id="edge11" class="edge">
<title>n11&#45;&gt;n12</title>
<path fill="none" stroke="black" d="M1673,-121.81C1673,-102.11 1673,-69.58 1673,-46.39"/>
<polygon fill="black" stroke="black" points="1676.5,-46.16 1673,-36.16 1669.5,-46.16 1676.5,-46.16"/>
</g>
</g>
</svg>
