<?xml version="1.0" encoding="UTF-8" standalone="no"?>
<!DOCTYPE svg PUBLIC "-//W3C//DTD SVG 1.1//EN"
 "http://www.w3.org/Graphics/SVG/1.1/DTD/svg11.dtd">
<!-- Generated by graphviz version 2.43.0 (0)
 -->
<!-- Pages: 1 -->
<svg width="1656pt" height="410pt"
 viewBox="0.00 0.00 1655.72 410.00" xmlns="http://www.w3.org/2000/svg" xmlns:xlink="http://www.w3.org/1999/xlink">
<g id="graph0" class="graph" transform="scale(1 1) rotate(0) translate(4 406)">
<polygon fill="white" stroke="transparent" points="-4,4 -4,-406 1651.72,-406 1651.72,4 -4,4"/>
<!-- n1 -->
<g id="node1" class="node">
<title>n1</title>
<polygon fill="lightblue" stroke="black" points="952.5,-384 841,-402 618,-402 506.5,-384 618,-366 841,-366 952.5,-384"/>
<text text-anchor="middle" x="729.5" y="-380.3" font-family="Arial" font-size="14.00">Draw a string telephone between two students.</text>
</g>
<!-- n2 -->
<g id="node2" class="node">
<title>n2</title>
<polygon fill="#fffdd0" stroke="black" points="311.5,-280 135.5,-280 135.5,-244 311.5,-244 311.5,-280"/>
<text text-anchor="middle" x="223.5" y="-258.3" font-family="Arial" font-size="14.00">Two children at a distance.</text>
</g>
<!-- n1&#45;&gt;n2 -->
<g id="edge1" class="edge">
<title>n1&#45;&gt;n2</title>
<path fill="none" stroke="black" d="M657.81,-366C564.76,-343.93 402.79,-305.52 305.13,-282.36"/>
<polygon fill="black" stroke="black" points="305.84,-278.93 295.3,-280.03 304.22,-285.74 305.84,-278.93"/>
</g>
<!-- n3 -->
<g id="node3" class="node">
<title>n3</title>
<polygon fill="#fffdd0" stroke="black" points="714.5,-280 420.5,-280 420.5,-244 714.5,-244 714.5,-280"/>
<text text-anchor="middle" x="567.5" y="-258.3" font-family="Arial" font-size="14.00">String telephone with red cups and blue string.</text>
</g>
<!-- n1&#45;&gt;n3 -->
<g id="edge2" class="edge">
<title>n1&#45;&gt;n3</title>
<path fill="none" stroke="black" d="M706.29,-365.81C678.14,-344.96 630.56,-309.71 599.09,-286.4"/>
<polygon fill="black" stroke="black" points="600.79,-283.3 590.67,-280.16 596.62,-288.93 600.79,-283.3"/>
</g>
<!-- n4 -->
<g id="node4" class="node">
<title>n4</title>
<polygon fill="#fffdd0" stroke="black" points="1051.5,-280 813.5,-280 813.5,-244 1051.5,-244 1051.5,-280"/>
<text text-anchor="middle" x="932.5" y="-258.3" font-family="Arial" font-size="14.00">Sound travel indicated by wavy lines.</text>
</g>
<!-- n1&#45;&gt;n4 -->
<g id="edge3" class="edge">
<title>n1&#45;&gt;n4</title>
<path fill="none" stroke="black" d="M758.58,-365.81C794.31,-344.69 855.01,-308.81 894.42,-285.51"/>
<polygon fill="black" stroke="black" points="896.64,-288.26 903.47,-280.16 893.08,-282.24 896.64,-288.26"/>
</g>
<!-- n5 -->
<g id="node5" class="node">
<title>n5</title>
<polygon fill="#fffdd0" stroke="black" points="1384.5,-280 1232.5,-280 1232.5,-244 1384.5,-244 1384.5,-280"/>
<text text-anchor="middle" x="1308.5" y="-258.3" font-family="Arial" font-size="14.00">One cup upside down.</text>
</g>
<!-- n1&#45;&gt;n5 -->
<g id="edge4" class="edge">
<title>n1&#45;&gt;n5</title>
<path fill="none" stroke="black" d="M811.53,-366C920.4,-343.43 1111.7,-303.78 1222.5,-280.82"/>
<polygon fill="black" stroke="black" points="1223.22,-284.24 1232.3,-278.78 1221.8,-277.39 1223.22,-284.24"/>
</g>
<!-- n6 -->
<g id="node6" class="node">
<title>n6</title>
<path fill="palegreen" stroke="black" d="M291,-158C291,-158 12,-158 12,-158 6,-158 0,-152 0,-146 0,-146 0,-134 0,-134 0,-128 6,-122 12,-122 12,-122 291,-122 291,-122 297,-122 303,-128 303,-134 303,-134 303,-146 303,-146 303,-152 297,-158 291,-158"/>
<text text-anchor="middle" x="151.5" y="-136.3" font-family="Arial" font-size="14.00">Understanding of long&#45;distance communication.</text>
</g>
<!-- n2&#45;&gt;n6 -->
<g id="edge5" class="edge">
<title>n2&#45;&gt;n6</title>
<path fill="none" stroke="black" d="M213.18,-243.81C201.1,-223.67 180.96,-190.1 167,-166.83"/>
<polygon fill="black" stroke="black" points="169.95,-164.94 161.8,-158.16 163.94,-168.54 169.95,-164.94"/>
</g>
<!-- n7 -->
<g id="node7" class="node">
<title>n7</title>
<path fill="palegreen" stroke="black" d="M720,-158C720,-158 373,-158 373,-158 367,-158 361,-152 361,-146 361,-146 361,-134 361,-134 361,-128 367,-122 373,-122 373,-122 720,-122 720,-122 726,-122 732,-128 732,-134 732,-134 732,-146 732,-146 732,-152 726,-158 720,-158"/>
<text text-anchor="middle" x="546.5" y="-136.3" font-family="Arial" font-size="14.00">Understanding of device connection using string telephone.</text>
</g>
<!-- n3&#45;&gt;n7 -->
<g id="edge6" class="edge">
<title>n3&#45;&gt;n7</title>
<path fill="none" stroke="black" d="M564.49,-243.81C561.03,-224.02 555.3,-191.29 551.24,-168.08"/>
<polygon fill="black" stroke="black" points="554.68,-167.4 549.5,-158.16 547.78,-168.61 554.68,-167.4"/>
</g>
<!-- n8 -->
<g id="node8" class="node">
<title>n8</title>
<path fill="palegreen" stroke="black" d="M1105,-158C1105,-158 802,-158 802,-158 796,-158 790,-152 790,-146 790,-146 790,-134 790,-134 790,-128 796,-122 802,-122 802,-122 1105,-122 1105,-122 1111,-122 1117,-128 1117,-134 1117,-134 1117,-146 1117,-146 1117,-152 1111,-158 1105,-158"/>
<text text-anchor="middle" x="953.5" y="-136.3" font-family="Arial" font-size="14.00">Understanding that sound travels through the string.</text>
</g>
<!-- n4&#45;&gt;n8 -->
<g id="edge7" class="edge">
<title>n4&#45;&gt;n8</title>
<path fill="none" stroke="black" d="M935.51,-243.81C938.97,-224.02 944.7,-191.29 948.76,-168.08"/>
<polygon fill="black" stroke="black" points="952.22,-168.61 950.5,-158.16 945.32,-167.4 952.22,-168.61"/>
</g>
<!-- n9 -->
<g id="node9" class="node">
<title>n9</title>
<polygon fill="lightcoral" stroke="black" points="1411.5,-158 1175.05,-140 1411.5,-122 1647.95,-140 1411.5,-158"/>
<text text-anchor="middle" x="1411.5" y="-136.3" font-family="Arial" font-size="14.00">Misunderstanding about cup orientation.</text>
</g>
<!-- n5&#45;&gt;n9 -->
<g id="edge8" class="edge">
<title>n5&#45;&gt;n9</title>
<path fill="none" stroke="black" d="M1323.3,-243.81C1341.1,-223.05 1371.1,-188.04 1391.1,-164.73"/>
<polygon fill="black" stroke="black" points="1393.89,-166.86 1397.8,-157.01 1388.6,-162.27 1393.89,-166.86"/>
</g>
<!-- n10 -->
<g id="node10" class="node">
<title>n10</title>
<polygon fill="#f28e8e" stroke="black" points="1577.5,-36 1245.5,-36 1245.5,0 1577.5,0 1577.5,-36"/>
<text text-anchor="middle" x="1411.5" y="-14.3" font-family="Arial" font-size="14.00">Ensure both cups are correctly oriented for accuracy.</text>
</g>
<!-- n9&#45;&gt;n10 -->
<g id="edge9" class="edge">
<title>n9&#45;&gt;n10</title>
<path fill="none" stroke="black" d="M1411.5,-121.81C1411.5,-102.11 1411.5,-69.58 1411.5,-46.39"/>
<polygon fill="black" stroke="black" points="1415,-46.16 1411.5,-36.16 1408,-46.16 1415,-46.16"/>
</g>
</g>
</svg>
