<?xml version="1.0" encoding="UTF-8" standalone="no"?>
<!DOCTYPE svg PUBLIC "-//W3C//DTD SVG 1.1//EN"
 "http://www.w3.org/Graphics/SVG/1.1/DTD/svg11.dtd">
<!-- Generated by graphviz version 2.43.0 (0)
 -->
<!-- Pages: 1 -->
<svg width="1369pt" height="288pt"
 viewBox="0.00 0.00 1369.00 288.00" xmlns="http://www.w3.org/2000/svg" xmlns:xlink="http://www.w3.org/1999/xlink">
<g id="graph0" class="graph" transform="scale(1 1) rotate(0) translate(4 284)">
<polygon fill="white" stroke="transparent" points="-4,4 -4,-284 1365,-284 1365,4 -4,4"/>
<!-- n1 -->
<g id="node1" class="node">
<title>n1</title>
<polygon fill="lightblue" stroke="black" points="996.87,-262 854.19,-280 568.81,-280 426.13,-262 568.81,-244 854.19,-244 996.87,-262"/>
<text text-anchor="middle" x="711.5" y="-258.3" font-family="Arial" font-size="14.00">Draw animals in their habitats with labels (e.g., fish in water).</text>
</g>
<!-- n2 -->
<g id="node2" class="node">
<title>n2</title>
<polygon fill="#fffdd0" stroke="black" points="263,-158 0,-158 0,-122 263,-122 263,-158"/>
<text text-anchor="middle" x="131.5" y="-136.3" font-family="Arial" font-size="14.00">Forest scene with trees and green leaves</text>
</g>
<!-- n1&#45;&gt;n2 -->
<g id="edge1" class="edge">
<title>n1&#45;&gt;n2</title>
<path fill="none" stroke="black" d="M629.32,-244C522.24,-221.84 335.51,-183.21 223.71,-160.08"/>
<polygon fill="black" stroke="black" points="224.29,-156.63 213.79,-158.03 222.87,-163.48 224.29,-156.63"/>
</g>
<!-- n3 -->
<g id="node3" class="node">
<title>n3</title>
<polygon fill="#fffdd0" stroke="black" points="439.5,-158 321.5,-158 321.5,-122 439.5,-122 439.5,-158"/>
<text text-anchor="middle" x="380.5" y="-136.3" font-family="Arial" font-size="14.00">Deer with antlers</text>
</g>
<!-- n1&#45;&gt;n3 -->
<g id="edge2" class="edge">
<title>n1&#45;&gt;n3</title>
<path fill="none" stroke="black" d="M664.43,-243.93C604.5,-222.21 501.07,-184.71 436.96,-161.47"/>
<polygon fill="black" stroke="black" points="438,-158.13 427.41,-158.01 435.62,-164.71 438,-158.13"/>
</g>
<!-- n4 -->
<g id="node4" class="node">
<title>n4</title>
<polygon fill="#fffdd0" stroke="black" points="691,-158 498,-158 498,-122 691,-122 691,-158"/>
<text text-anchor="middle" x="594.5" y="-136.3" font-family="Arial" font-size="14.00">Pond with blue water and fish</text>
</g>
<!-- n1&#45;&gt;n4 -->
<g id="edge3" class="edge">
<title>n1&#45;&gt;n4</title>
<path fill="none" stroke="black" d="M694.74,-243.81C674.75,-223.31 641.21,-188.91 618.49,-165.6"/>
<polygon fill="black" stroke="black" points="620.72,-162.87 611.23,-158.16 615.71,-167.76 620.72,-162.87"/>
</g>
<!-- n5 -->
<g id="node5" class="node">
<title>n5</title>
<polygon fill="#fffdd0" stroke="black" points="908,-158 749,-158 749,-122 908,-122 908,-158"/>
<text text-anchor="middle" x="828.5" y="-136.3" font-family="Arial" font-size="14.00">Birds with nests in trees</text>
</g>
<!-- n1&#45;&gt;n5 -->
<g id="edge4" class="edge">
<title>n1&#45;&gt;n5</title>
<path fill="none" stroke="black" d="M728.26,-243.81C748.25,-223.31 781.79,-188.91 804.51,-165.6"/>
<polygon fill="black" stroke="black" points="807.29,-167.76 811.77,-158.16 802.28,-162.87 807.29,-167.76"/>
</g>
<!-- n6 -->
<g id="node6" class="node">
<title>n6</title>
<polygon fill="#fffdd0" stroke="black" points="1077,-158 976,-158 976,-122 1077,-122 1077,-158"/>
<text text-anchor="middle" x="1026.5" y="-136.3" font-family="Arial" font-size="14.00">Sun in the sky</text>
</g>
<!-- n1&#45;&gt;n6 -->
<g id="edge5" class="edge">
<title>n1&#45;&gt;n6</title>
<path fill="none" stroke="black" d="M756.3,-243.93C813.21,-222.25 911.36,-184.86 972.39,-161.61"/>
<polygon fill="black" stroke="black" points="973.76,-164.84 981.86,-158.01 971.27,-158.29 973.76,-164.84"/>
</g>
<!-- n7 -->
<g id="node7" class="node">
<title>n7</title>
<polygon fill="#fffdd0" stroke="black" points="1310.5,-158 1170.5,-158 1170.5,-122 1310.5,-122 1310.5,-158"/>
<text text-anchor="middle" x="1240.5" y="-136.3" font-family="Arial" font-size="14.00">Bees around flowers</text>
</g>
<!-- n1&#45;&gt;n7 -->
<g id="edge6" class="edge">
<title>n1&#45;&gt;n7</title>
<path fill="none" stroke="black" d="M786.45,-244C885.34,-221.57 1058.7,-182.24 1160.2,-159.22"/>
<polygon fill="black" stroke="black" points="1161.12,-162.6 1170.1,-156.97 1159.57,-155.77 1161.12,-162.6"/>
</g>
<!-- n8 -->
<g id="node8" class="node">
<title>n8</title>
<path fill="palegreen" stroke="black" d="M234.5,-36C234.5,-36 28.5,-36 28.5,-36 22.5,-36 16.5,-30 16.5,-24 16.5,-24 16.5,-12 16.5,-12 16.5,-6 22.5,0 28.5,0 28.5,0 234.5,0 234.5,0 240.5,0 246.5,-6 246.5,-12 246.5,-12 246.5,-24 246.5,-24 246.5,-30 240.5,-36 234.5,-36"/>
<text text-anchor="middle" x="131.5" y="-14.3" font-family="Arial" font-size="14.00">Understanding of forest as a habitat</text>
</g>
<!-- n2&#45;&gt;n8 -->
<g id="edge7" class="edge">
<title>n2&#45;&gt;n8</title>
<path fill="none" stroke="black" d="M131.5,-121.81C131.5,-102.11 131.5,-69.58 131.5,-46.39"/>
<polygon fill="black" stroke="black" points="135,-46.16 131.5,-36.16 128,-46.16 135,-46.16"/>
</g>
<!-- n9 -->
<g id="node9" class="node">
<title>n9</title>
<path fill="palegreen" stroke="black" d="M434.5,-36C434.5,-36 326.5,-36 326.5,-36 320.5,-36 314.5,-30 314.5,-24 314.5,-24 314.5,-12 314.5,-12 314.5,-6 320.5,0 326.5,0 326.5,0 434.5,0 434.5,0 440.5,0 446.5,-6 446.5,-12 446.5,-12 446.5,-24 446.5,-24 446.5,-30 440.5,-36 434.5,-36"/>
<text text-anchor="middle" x="380.5" y="-14.3" font-family="Arial" font-size="14.00">Deer living in forest</text>
</g>
<!-- n3&#45;&gt;n9 -->
<g id="edge8" class="edge">
<title>n3&#45;&gt;n9</title>
<path fill="none" stroke="black" d="M380.5,-121.81C380.5,-102.11 380.5,-69.58 380.5,-46.39"/>
<polygon fill="black" stroke="black" points="384,-46.16 380.5,-36.16 377,-46.16 384,-46.16"/>
</g>
<!-- n10 -->
<g id="node10" class="node">
<title>n10</title>
<path fill="palegreen" stroke="black" d="M633.5,-36C633.5,-36 529.5,-36 529.5,-36 523.5,-36 517.5,-30 517.5,-24 517.5,-24 517.5,-12 517.5,-12 517.5,-6 523.5,0 529.5,0 529.5,0 633.5,0 633.5,0 639.5,0 645.5,-6 645.5,-12 645.5,-12 645.5,-24 645.5,-24 645.5,-30 639.5,-36 633.5,-36"/>
<text text-anchor="middle" x="581.5" y="-14.3" font-family="Arial" font-size="14.00">Fish living in water</text>
</g>
<!-- n4&#45;&gt;n10 -->
<g id="edge9" class="edge">
<title>n4&#45;&gt;n10</title>
<path fill="none" stroke="black" d="M592.64,-121.81C590.5,-102.11 586.98,-69.58 584.47,-46.39"/>
<polygon fill="black" stroke="black" points="587.92,-45.73 583.36,-36.16 580.96,-46.48 587.92,-45.73"/>
</g>
<!-- n11 -->
<g id="node11" class="node">
<title>n11</title>
<path fill="palegreen" stroke="black" d="M873,-36C873,-36 716,-36 716,-36 710,-36 704,-30 704,-24 704,-24 704,-12 704,-12 704,-6 710,0 716,0 716,0 873,0 873,0 879,0 885,-6 885,-12 885,-12 885,-24 885,-24 885,-30 879,-36 873,-36"/>
<text text-anchor="middle" x="794.5" y="-14.3" font-family="Arial" font-size="14.00">Birds using trees for shelter</text>
</g>
<!-- n5&#45;&gt;n11 -->
<g id="edge10" class="edge">
<title>n5&#45;&gt;n11</title>
<path fill="none" stroke="black" d="M823.63,-121.81C818.02,-102.02 808.75,-69.29 802.17,-46.08"/>
<polygon fill="black" stroke="black" points="805.45,-44.83 799.36,-36.16 798.72,-46.74 805.45,-44.83"/>
</g>
<!-- n12 -->
<g id="node12" class="node">
<title>n12</title>
<path fill="palegreen" stroke="black" d="M1146,-36C1146,-36 955,-36 955,-36 949,-36 943,-30 943,-24 943,-24 943,-12 943,-12 943,-6 949,0 955,0 955,0 1146,0 1146,0 1152,0 1158,-6 1158,-12 1158,-12 1158,-24 1158,-24 1158,-30 1152,-36 1146,-36"/>
<text text-anchor="middle" x="1050.5" y="-14.3" font-family="Arial" font-size="14.00">Sunlight as an essential resource</text>
</g>
<!-- n6&#45;&gt;n12 -->
<g id="edge11" class="edge">
<title>n6&#45;&gt;n12</title>
<path fill="none" stroke="black" d="M1029.9,-121.81C1033.9,-102.02 1040.4,-69.29 1045.1,-46.08"/>
<polygon fill="black" stroke="black" points="1048.55,-46.66 1047.1,-36.16 1041.69,-45.27 1048.55,-46.66"/>
</g>
<!-- n13 -->
<g id="node13" class="node">
<title>n13</title>
<path fill="palegreen" stroke="black" d="M1349,-36C1349,-36 1228,-36 1228,-36 1222,-36 1216,-30 1216,-24 1216,-24 1216,-12 1216,-12 1216,-6 1222,0 1228,0 1228,0 1349,0 1349,0 1355,0 1361,-6 1361,-12 1361,-12 1361,-24 1361,-24 1361,-30 1355,-36 1349,-36"/>
<text text-anchor="middle" x="1288.5" y="-14.3" font-family="Arial" font-size="14.00">Pollination interaction</text>
</g>
<!-- n7&#45;&gt;n13 -->
<g id="edge12" class="edge">
<title>n7&#45;&gt;n13</title>
<path fill="none" stroke="black" d="M1247.4,-121.81C1255.4,-101.85 1268.6,-68.7 1277.9,-45.45"/>
<polygon fill="black" stroke="black" points="1281.15,-46.75 1281.6,-36.16 1274.65,-44.16 1281.15,-46.75"/>
</g>
</g>
</svg>
