<?xml version="1.0" encoding="UTF-8" standalone="no"?>
<!DOCTYPE svg PUBLIC "-//W3C//DTD SVG 1.1//EN"
 "http://www.w3.org/Graphics/SVG/1.1/DTD/svg11.dtd">
<!-- Generated by graphviz version 2.43.0 (0)
 -->
<!-- Pages: 1 -->
<svg width="1526pt" height="654pt"
 viewBox="0.00 0.00 1526.00 654.00" xmlns="http://www.w3.org/2000/svg" xmlns:xlink="http://www.w3.org/1999/xlink">
<g id="graph0" class="graph" transform="scale(1 1) rotate(0) translate(4 650)">
<polygon fill="white" stroke="transparent" points="-4,4 -4,-650 1522,-650 1522,4 -4,4"/>
<!-- n1 -->
<g id="node1" class="node">
<title>n1</title>
<polygon fill="lightblue" stroke="black" points="1216.82,-628 1094.41,-646 849.59,-646 727.18,-628 849.59,-610 1094.41,-610 1216.82,-628"/>
<text text-anchor="middle" x="972" y="-624.3" font-family="Arial" font-size="14.00">Draw a habitat and the different living things in each</text>
</g>
<!-- n2 -->
<g id="node2" class="node">
<title>n2</title>
<polygon fill="#fffdd0" stroke="black" points="888.5,-524 779.5,-524 779.5,-488 888.5,-488 888.5,-524"/>
<text text-anchor="middle" x="834" y="-502.3" font-family="Arial" font-size="14.00">Colorful garden</text>
</g>
<!-- n1&#45;&gt;n2 -->
<g id="edge1" class="edge">
<title>n1&#45;&gt;n2</title>
<path fill="none" stroke="black" d="M952.23,-609.81C928.45,-589.13 888.41,-554.31 861.6,-531"/>
<polygon fill="black" stroke="black" points="863.58,-528.08 853.74,-524.16 858.99,-533.36 863.58,-528.08"/>
</g>
<!-- n3 -->
<g id="node3" class="node">
<title>n3</title>
<polygon fill="#fffdd0" stroke="black" points="1225,-524 1099,-524 1099,-488 1225,-488 1225,-524"/>
<text text-anchor="middle" x="1162" y="-502.3" font-family="Arial" font-size="14.00">Blue&#45;shaded pond</text>
</g>
<!-- n1&#45;&gt;n3 -->
<g id="edge2" class="edge">
<title>n1&#45;&gt;n3</title>
<path fill="none" stroke="black" d="M999.22,-609.81C1032.7,-588.69 1089.5,-552.81 1126.4,-529.51"/>
<polygon fill="black" stroke="black" points="1128.25,-532.48 1134.8,-524.16 1124.49,-526.58 1128.25,-532.48"/>
</g>
<!-- n4 -->
<g id="node4" class="node">
<title>n4</title>
<polygon fill="#fffdd0" stroke="black" points="616,-402 290,-402 290,-366 616,-366 616,-402"/>
<text text-anchor="middle" x="453" y="-380.3" font-family="Arial" font-size="14.00">Tall green trees, smaller bushes, and yellow flowers</text>
</g>
<!-- n2&#45;&gt;n4 -->
<g id="edge3" class="edge">
<title>n2&#45;&gt;n4</title>
<path fill="none" stroke="black" d="M779.82,-487.93C710.41,-466.07 590.31,-428.25 516.63,-405.04"/>
<polygon fill="black" stroke="black" points="517.59,-401.67 507,-402.01 515.49,-408.35 517.59,-401.67"/>
</g>
<!-- n5 -->
<g id="node5" class="node">
<title>n5</title>
<polygon fill="#fffdd0" stroke="black" points="963,-402 705,-402 705,-366 963,-366 963,-402"/>
<text text-anchor="middle" x="834" y="-380.3" font-family="Arial" font-size="14.00">Squirrels, ants, and lizards in the garden</text>
</g>
<!-- n2&#45;&gt;n5 -->
<g id="edge4" class="edge">
<title>n2&#45;&gt;n5</title>
<path fill="none" stroke="black" d="M834,-487.81C834,-468.11 834,-435.58 834,-412.39"/>
<polygon fill="black" stroke="black" points="837.5,-412.16 834,-402.16 830.5,-412.16 837.5,-412.16"/>
</g>
<!-- n6 -->
<g id="node6" class="node">
<title>n6</title>
<polygon fill="#fffdd0" stroke="black" points="1251.5,-402 1072.5,-402 1072.5,-366 1251.5,-366 1251.5,-402"/>
<text text-anchor="middle" x="1162" y="-380.3" font-family="Arial" font-size="14.00">Fish and clams in the pond</text>
</g>
<!-- n3&#45;&gt;n6 -->
<g id="edge5" class="edge">
<title>n3&#45;&gt;n6</title>
<path fill="none" stroke="black" d="M1162,-487.81C1162,-468.11 1162,-435.58 1162,-412.39"/>
<polygon fill="black" stroke="black" points="1165.5,-412.16 1162,-402.16 1158.5,-412.16 1165.5,-412.16"/>
</g>
<!-- n7 -->
<g id="node7" class="node">
<title>n7</title>
<polygon fill="#fffdd0" stroke="black" points="1518,-402 1310,-402 1310,-366 1518,-366 1518,-402"/>
<text text-anchor="middle" x="1414" y="-380.3" font-family="Arial" font-size="14.00">Green grasses around the pond</text>
</g>
<!-- n3&#45;&gt;n7 -->
<g id="edge6" class="edge">
<title>n3&#45;&gt;n7</title>
<path fill="none" stroke="black" d="M1197.8,-487.93C1242.9,-466.48 1320.3,-429.63 1369.2,-406.33"/>
<polygon fill="black" stroke="black" points="1370.77,-409.46 1378.3,-402.01 1367.77,-403.14 1370.77,-409.46"/>
</g>
<!-- n8 -->
<g id="node8" class="node">
<title>n8</title>
<path fill="palegreen" stroke="black" d="M224,-280C224,-280 12,-280 12,-280 6,-280 0,-274 0,-268 0,-268 0,-256 0,-256 0,-250 6,-244 12,-244 12,-244 224,-244 224,-244 230,-244 236,-250 236,-256 236,-256 236,-268 236,-268 236,-274 230,-280 224,-280"/>
<text text-anchor="middle" x="118" y="-258.3" font-family="Arial" font-size="14.00">Understands land and water habitats</text>
</g>
<!-- n4&#45;&gt;n8 -->
<g id="edge7" class="edge">
<title>n4&#45;&gt;n8</title>
<path fill="none" stroke="black" d="M405.36,-365.93C344.71,-344.21 240.02,-306.71 175.14,-283.47"/>
<polygon fill="black" stroke="black" points="176.07,-280.09 165.48,-280.01 173.71,-286.68 176.07,-280.09"/>
</g>
<!-- n9 -->
<g id="node9" class="node">
<title>n9</title>
<path fill="palegreen" stroke="black" d="M600,-280C600,-280 306,-280 306,-280 300,-280 294,-274 294,-268 294,-268 294,-256 294,-256 294,-250 300,-244 306,-244 306,-244 600,-244 600,-244 606,-244 612,-250 612,-256 612,-256 612,-268 612,-268 612,-274 606,-280 600,-280"/>
<text text-anchor="middle" x="453" y="-258.3" font-family="Arial" font-size="14.00">Understands plant diversity: trees, bushes, flowers</text>
</g>
<!-- n4&#45;&gt;n9 -->
<g id="edge8" class="edge">
<title>n4&#45;&gt;n9</title>
<path fill="none" stroke="black" d="M453,-365.81C453,-346.11 453,-313.58 453,-290.39"/>
<polygon fill="black" stroke="black" points="456.5,-290.16 453,-280.16 449.5,-290.16 456.5,-290.16"/>
</g>
<!-- n10 -->
<g id="node10" class="node">
<title>n10</title>
<path fill="palegreen" stroke="black" d="M986.5,-280C986.5,-280 681.5,-280 681.5,-280 675.5,-280 669.5,-274 669.5,-268 669.5,-268 669.5,-256 669.5,-256 669.5,-250 675.5,-244 681.5,-244 681.5,-244 986.5,-244 986.5,-244 992.5,-244 998.5,-250 998.5,-256 998.5,-256 998.5,-268 998.5,-268 998.5,-274 992.5,-280 986.5,-280"/>
<text text-anchor="middle" x="834" y="-258.3" font-family="Arial" font-size="14.00">Understands animal diversity: squirrels, ants, lizards</text>
</g>
<!-- n5&#45;&gt;n10 -->
<g id="edge9" class="edge">
<title>n5&#45;&gt;n10</title>
<path fill="none" stroke="black" d="M834,-365.81C834,-346.11 834,-313.58 834,-290.39"/>
<polygon fill="black" stroke="black" points="837.5,-290.16 834,-280.16 830.5,-290.16 837.5,-290.16"/>
</g>
<!-- n11 -->
<g id="node11" class="node">
<title>n11</title>
<path fill="palegreen" stroke="black" d="M1359,-280C1359,-280 1069,-280 1069,-280 1063,-280 1057,-274 1057,-268 1057,-268 1057,-256 1057,-256 1057,-250 1063,-244 1069,-244 1069,-244 1359,-244 1359,-244 1365,-244 1371,-250 1371,-256 1371,-256 1371,-268 1371,-268 1371,-274 1365,-280 1359,-280"/>
<text text-anchor="middle" x="1214" y="-258.3" font-family="Arial" font-size="14.00">Understands animal diversity in water: fish, clams</text>
</g>
<!-- n6&#45;&gt;n11 -->
<g id="edge10" class="edge">
<title>n6&#45;&gt;n11</title>
<path fill="none" stroke="black" d="M1169.5,-365.81C1178.1,-345.85 1192.5,-312.7 1202.5,-289.45"/>
<polygon fill="black" stroke="black" points="1205.76,-290.72 1206.6,-280.16 1199.36,-287.9 1205.76,-290.72"/>
</g>
<!-- n12 -->
<g id="node12" class="node">
<title>n12</title>
<polygon fill="lightcoral" stroke="black" points="453,-158 293.97,-140 453,-122 612.03,-140 453,-158"/>
<text text-anchor="middle" x="453" y="-136.3" font-family="Arial" font-size="14.00">Mislabels bushes as trees</text>
</g>
<!-- n9&#45;&gt;n12 -->
<g id="edge11" class="edge">
<title>n9&#45;&gt;n12</title>
<path fill="none" stroke="black" d="M453,-243.81C453,-224.11 453,-191.58 453,-168.39"/>
<polygon fill="black" stroke="black" points="456.5,-168.16 453,-158.16 449.5,-168.16 456.5,-168.16"/>
</g>
<!-- n13 -->
<g id="node13" class="node">
<title>n13</title>
<polygon fill="#f28e8e" stroke="black" points="660.5,-36 245.5,-36 245.5,0 660.5,0 660.5,-36"/>
<text text-anchor="middle" x="453" y="-14.3" font-family="Arial" font-size="14.00">Consider revisiting plant identification to improve labeling accuracy</text>
</g>
<!-- n12&#45;&gt;n13 -->
<g id="edge12" class="edge">
<title>n12&#45;&gt;n13</title>
<path fill="none" stroke="black" d="M453,-121.81C453,-102.11 453,-69.58 453,-46.39"/>
<polygon fill="black" stroke="black" points="456.5,-46.16 453,-36.16 449.5,-46.16 456.5,-46.16"/>
</g>
</g>
</svg>
