<?xml version="1.0" encoding="UTF-8" standalone="no"?>
<!DOCTYPE svg PUBLIC "-//W3C//DTD SVG 1.1//EN"
 "http://www.w3.org/Graphics/SVG/1.1/DTD/svg11.dtd">
<!-- Generated by graphviz version 2.43.0 (0)
 -->
<!-- Pages: 1 -->
<svg width="1213pt" height="288pt"
 viewBox="0.00 0.00 1212.50 288.00" xmlns="http://www.w3.org/2000/svg" xmlns:xlink="http://www.w3.org/1999/xlink">
<g id="graph0" class="graph" transform="scale(1 1) rotate(0) translate(4 284)">
<polygon fill="white" stroke="transparent" points="-4,4 -4,-284 1208.5,-284 1208.5,4 -4,4"/>
<!-- n1 -->
<g id="node1" class="node">
<title>n1</title>
<polygon fill="lightblue" stroke="black" points="819.37,-262 676.69,-280 391.31,-280 248.63,-262 391.31,-244 676.69,-244 819.37,-262"/>
<text text-anchor="middle" x="534" y="-258.3" font-family="Arial" font-size="14.00">Draw animals in their habitats with labels (e.g., fish in water).</text>
</g>
<!-- n2 -->
<g id="node2" class="node">
<title>n2</title>
<polygon fill="#fffdd0" stroke="black" points="250,-158 158,-158 158,-122 250,-122 250,-158"/>
<text text-anchor="middle" x="204" y="-136.3" font-family="Arial" font-size="14.00">Fish in Pond</text>
</g>
<!-- n1&#45;&gt;n2 -->
<g id="edge1" class="edge">
<title>n1&#45;&gt;n2</title>
<path fill="none" stroke="black" d="M487.07,-243.93C427.15,-222.15 323.62,-184.5 259.75,-161.27"/>
<polygon fill="black" stroke="black" points="260.83,-157.94 250.24,-157.81 258.44,-164.52 260.83,-157.94"/>
</g>
<!-- n3 -->
<g id="node3" class="node">
<title>n3</title>
<polygon fill="#fffdd0" stroke="black" points="491,-158 389,-158 389,-122 491,-122 491,-158"/>
<text text-anchor="middle" x="440" y="-136.3" font-family="Arial" font-size="14.00">Deer in Forest</text>
</g>
<!-- n1&#45;&gt;n3 -->
<g id="edge2" class="edge">
<title>n1&#45;&gt;n3</title>
<path fill="none" stroke="black" d="M520.53,-243.81C504.62,-223.49 478,-189.51 459.75,-166.21"/>
<polygon fill="black" stroke="black" points="462.36,-163.87 453.44,-158.16 456.85,-168.19 462.36,-163.87"/>
</g>
<!-- n4 -->
<g id="node4" class="node">
<title>n4</title>
<polygon fill="#fffdd0" stroke="black" points="773.5,-158 616.5,-158 616.5,-122 773.5,-122 773.5,-158"/>
<text text-anchor="middle" x="695" y="-136.3" font-family="Arial" font-size="14.00">Birds flying above trees</text>
</g>
<!-- n1&#45;&gt;n4 -->
<g id="edge3" class="edge">
<title>n1&#45;&gt;n4</title>
<path fill="none" stroke="black" d="M557.07,-243.81C585.04,-222.96 632.33,-187.71 663.61,-164.4"/>
<polygon fill="black" stroke="black" points="666.05,-166.94 671.98,-158.16 661.87,-161.33 666.05,-166.94"/>
</g>
<!-- n5 -->
<g id="node5" class="node">
<title>n5</title>
<polygon fill="#fffdd0" stroke="black" points="1051.5,-158 920.5,-158 920.5,-122 1051.5,-122 1051.5,-158"/>
<text text-anchor="middle" x="986" y="-136.3" font-family="Arial" font-size="14.00">Grass and Flowers</text>
</g>
<!-- n1&#45;&gt;n5 -->
<g id="edge4" class="edge">
<title>n1&#45;&gt;n5</title>
<path fill="none" stroke="black" d="M598.28,-243.93C681.12,-221.94 824.85,-183.78 912.11,-160.62"/>
<polygon fill="black" stroke="black" points="913.17,-163.96 921.94,-158.01 911.38,-157.19 913.17,-163.96"/>
</g>
<!-- n6 -->
<g id="node6" class="node">
<title>n6</title>
<path fill="palegreen" stroke="black" d="M166,-36C166,-36 12,-36 12,-36 6,-36 0,-30 0,-24 0,-24 0,-12 0,-12 0,-6 6,0 12,0 12,0 166,0 166,0 172,0 178,-6 178,-12 178,-12 178,-24 178,-24 178,-30 172,-36 166,-36"/>
<text text-anchor="middle" x="89" y="-14.3" font-family="Arial" font-size="14.00">Fish need water to survive.</text>
</g>
<!-- n2&#45;&gt;n6 -->
<g id="edge5" class="edge">
<title>n2&#45;&gt;n6</title>
<path fill="none" stroke="black" d="M187.52,-121.81C167.88,-101.31 134.92,-66.91 112.58,-43.6"/>
<polygon fill="black" stroke="black" points="114.9,-40.96 105.45,-36.16 109.84,-45.8 114.9,-40.96"/>
</g>
<!-- n7 -->
<g id="node7" class="node">
<title>n7</title>
<path fill="palegreen" stroke="black" d="M566,-36C566,-36 248,-36 248,-36 242,-36 236,-30 236,-24 236,-24 236,-12 236,-12 236,-6 242,0 248,0 248,0 566,0 566,0 572,0 578,-6 578,-12 578,-12 578,-24 578,-24 578,-30 572,-36 566,-36"/>
<text text-anchor="middle" x="407" y="-14.3" font-family="Arial" font-size="14.00">Deer live in forests and need trees for food and shade.</text>
</g>
<!-- n3&#45;&gt;n7 -->
<g id="edge6" class="edge">
<title>n3&#45;&gt;n7</title>
<path fill="none" stroke="black" d="M435.27,-121.81C429.83,-102.02 420.83,-69.29 414.45,-46.08"/>
<polygon fill="black" stroke="black" points="417.75,-44.87 411.72,-36.16 411,-46.73 417.75,-44.87"/>
</g>
<!-- n8 -->
<g id="node8" class="node">
<title>n8</title>
<path fill="palegreen" stroke="black" d="M809.5,-36C809.5,-36 648.5,-36 648.5,-36 642.5,-36 636.5,-30 636.5,-24 636.5,-24 636.5,-12 636.5,-12 636.5,-6 642.5,0 648.5,0 648.5,0 809.5,0 809.5,0 815.5,0 821.5,-6 821.5,-12 821.5,-12 821.5,-24 821.5,-24 821.5,-30 815.5,-36 809.5,-36"/>
<text text-anchor="middle" x="729" y="-14.3" font-family="Arial" font-size="14.00">Birds need trees for nesting.</text>
</g>
<!-- n4&#45;&gt;n8 -->
<g id="edge7" class="edge">
<title>n4&#45;&gt;n8</title>
<path fill="none" stroke="black" d="M699.87,-121.81C705.48,-102.02 714.75,-69.29 721.33,-46.08"/>
<polygon fill="black" stroke="black" points="724.78,-46.74 724.14,-36.16 718.05,-44.83 724.78,-46.74"/>
</g>
<!-- n9 -->
<g id="node9" class="node">
<title>n9</title>
<path fill="palegreen" stroke="black" d="M1192.5,-36C1192.5,-36 891.5,-36 891.5,-36 885.5,-36 879.5,-30 879.5,-24 879.5,-24 879.5,-12 879.5,-12 879.5,-6 885.5,0 891.5,0 891.5,0 1192.5,0 1192.5,0 1198.5,0 1204.5,-6 1204.5,-12 1204.5,-12 1204.5,-24 1204.5,-24 1204.5,-30 1198.5,-36 1192.5,-36"/>
<text text-anchor="middle" x="1042" y="-14.3" font-family="Arial" font-size="14.00">Plants grow in sunny areas where they get sunlight.</text>
</g>
<!-- n5&#45;&gt;n9 -->
<g id="edge8" class="edge">
<title>n5&#45;&gt;n9</title>
<path fill="none" stroke="black" d="M994.02,-121.81C1003.3,-101.85 1018.8,-68.7 1029.7,-45.45"/>
<polygon fill="black" stroke="black" points="1032.98,-46.71 1034,-36.16 1026.62,-43.77 1032.98,-46.71"/>
</g>
</g>
</svg>
