<?xml version="1.0" encoding="UTF-8" standalone="no"?>
<!DOCTYPE svg PUBLIC "-//W3C//DTD SVG 1.1//EN"
 "http://www.w3.org/Graphics/SVG/1.1/DTD/svg11.dtd">
<!-- Generated by graphviz version 2.43.0 (0)
 -->
<!-- Pages: 1 -->
<svg width="1347pt" height="288pt"
 viewBox="0.00 0.00 1346.50 288.00" xmlns="http://www.w3.org/2000/svg" xmlns:xlink="http://www.w3.org/1999/xlink">
<g id="graph0" class="graph" transform="scale(1 1) rotate(0) translate(4 284)">
<polygon fill="white" stroke="transparent" points="-4,4 -4,-284 1342.5,-284 1342.5,4 -4,4"/>
<!-- n1 -->
<g id="node1" class="node">
<title>n1</title>
<polygon fill="lightblue" stroke="black" points="1008,-262 916,-280 732,-280 640,-262 732,-244 916,-244 1008,-262"/>
<text text-anchor="middle" x="824" y="-258.3" font-family="Arial" font-size="14.00">Illustrate plants with and without water</text>
</g>
<!-- n2 -->
<g id="node2" class="node">
<title>n2</title>
<polygon fill="#fffdd0" stroke="black" points="370.5,-158 65.5,-158 65.5,-122 370.5,-122 370.5,-158"/>
<text text-anchor="middle" x="218" y="-136.3" font-family="Arial" font-size="14.00">Healthy plant with green leaves and strong stem</text>
</g>
<!-- n1&#45;&gt;n2 -->
<g id="edge1" class="edge">
<title>n1&#45;&gt;n2</title>
<path fill="none" stroke="black" d="M738.14,-244C626.14,-221.82 430.77,-183.13 313.99,-160.01"/>
<polygon fill="black" stroke="black" points="314.47,-156.54 303.98,-158.03 313.11,-163.4 314.47,-156.54"/>
</g>
<!-- n3 -->
<g id="node3" class="node">
<title>n3</title>
<polygon fill="#fffdd0" stroke="black" points="807,-158 513,-158 513,-122 807,-122 807,-158"/>
<text text-anchor="middle" x="660" y="-136.3" font-family="Arial" font-size="14.00">Wilted plant with brown leaves and weak stem</text>
</g>
<!-- n1&#45;&gt;n3 -->
<g id="edge2" class="edge">
<title>n1&#45;&gt;n3</title>
<path fill="none" stroke="black" d="M800.5,-243.81C771.88,-222.87 723.43,-187.41 691.57,-164.1"/>
<polygon fill="black" stroke="black" points="693.59,-161.24 683.45,-158.16 689.45,-166.89 693.59,-161.24"/>
</g>
<!-- n4 -->
<g id="node4" class="node">
<title>n4</title>
<polygon fill="#fffdd0" stroke="black" points="1110.5,-158 865.5,-158 865.5,-122 1110.5,-122 1110.5,-158"/>
<text text-anchor="middle" x="988" y="-136.3" font-family="Arial" font-size="14.00">Blue watering can above healthy plant</text>
</g>
<!-- n1&#45;&gt;n4 -->
<g id="edge3" class="edge">
<title>n1&#45;&gt;n4</title>
<path fill="none" stroke="black" d="M847.5,-243.81C876.12,-222.87 924.57,-187.41 956.43,-164.1"/>
<polygon fill="black" stroke="black" points="958.55,-166.89 964.55,-158.16 954.41,-161.24 958.55,-166.89"/>
</g>
<!-- n5 -->
<g id="node5" class="node">
<title>n5</title>
<polygon fill="#fffdd0" stroke="black" points="1333,-158 1169,-158 1169,-122 1333,-122 1333,-158"/>
<text text-anchor="middle" x="1251" y="-136.3" font-family="Arial" font-size="14.00">Sunlight on healthy plant</text>
</g>
<!-- n1&#45;&gt;n5 -->
<g id="edge4" class="edge">
<title>n1&#45;&gt;n5</title>
<path fill="none" stroke="black" d="M884.73,-243.93C962.83,-221.99 1098.2,-183.94 1180.7,-160.76"/>
<polygon fill="black" stroke="black" points="1181.82,-164.08 1190.5,-158.01 1179.93,-157.34 1181.82,-164.08"/>
</g>
<!-- n6 -->
<g id="node6" class="node">
<title>n6</title>
<path fill="palegreen" stroke="black" d="M248,-36C248,-36 12,-36 12,-36 6,-36 0,-30 0,-24 0,-24 0,-12 0,-12 0,-6 6,0 12,0 12,0 248,0 248,0 254,0 260,-6 260,-12 260,-12 260,-24 260,-24 260,-30 254,-36 248,-36"/>
<text text-anchor="middle" x="130" y="-14.3" font-family="Arial" font-size="14.00">Healthy plant represents proper watering</text>
</g>
<!-- n2&#45;&gt;n6 -->
<g id="edge5" class="edge">
<title>n2&#45;&gt;n6</title>
<path fill="none" stroke="black" d="M205.39,-121.81C190.56,-101.58 165.79,-67.81 148.72,-44.52"/>
<polygon fill="black" stroke="black" points="151.32,-42.15 142.58,-36.16 145.68,-46.29 151.32,-42.15"/>
</g>
<!-- n7 -->
<g id="node7" class="node">
<title>n7</title>
<path fill="palegreen" stroke="black" d="M541.5,-36C541.5,-36 330.5,-36 330.5,-36 324.5,-36 318.5,-30 318.5,-24 318.5,-24 318.5,-12 318.5,-12 318.5,-6 324.5,0 330.5,0 330.5,0 541.5,0 541.5,0 547.5,0 553.5,-6 553.5,-12 553.5,-12 553.5,-24 553.5,-24 553.5,-30 547.5,-36 541.5,-36"/>
<text text-anchor="middle" x="436" y="-14.3" font-family="Arial" font-size="14.00">Wilted plant represents lack of water</text>
</g>
<!-- n3&#45;&gt;n7 -->
<g id="edge6" class="edge">
<title>n3&#45;&gt;n7</title>
<path fill="none" stroke="black" d="M627.91,-121.81C588.15,-100.51 520.37,-64.2 476.92,-40.92"/>
<polygon fill="black" stroke="black" points="478.5,-37.8 468.03,-36.16 475.19,-43.97 478.5,-37.8"/>
</g>
<!-- n10 -->
<g id="node8" class="node">
<title>n10</title>
<path fill="palegreen" stroke="black" d="M812,-36C812,-36 624,-36 624,-36 618,-36 612,-30 612,-24 612,-24 612,-12 612,-12 612,-6 618,0 624,0 624,0 812,0 812,0 818,0 824,-6 824,-12 824,-12 824,-24 824,-24 824,-30 818,-36 812,-36"/>
<text text-anchor="middle" x="718" y="-14.3" font-family="Arial" font-size="14.00">Shaded plant area lacks sunlight</text>
</g>
<!-- n3&#45;&gt;n10 -->
<g id="edge7" class="edge">
<title>n3&#45;&gt;n10</title>
<path fill="none" stroke="black" d="M668.31,-121.81C677.96,-101.85 693.98,-68.7 705.22,-45.45"/>
<polygon fill="black" stroke="black" points="708.51,-46.69 709.71,-36.16 702.21,-43.64 708.51,-46.69"/>
</g>
<!-- n8 -->
<g id="node9" class="node">
<title>n8</title>
<path fill="palegreen" stroke="black" d="M1090,-36C1090,-36 894,-36 894,-36 888,-36 882,-30 882,-24 882,-24 882,-12 882,-12 882,-6 888,0 894,0 894,0 1090,0 1090,0 1096,0 1102,-6 1102,-12 1102,-12 1102,-24 1102,-24 1102,-30 1096,-36 1090,-36"/>
<text text-anchor="middle" x="992" y="-14.3" font-family="Arial" font-size="14.00">Water is essential for plant growth</text>
</g>
<!-- n4&#45;&gt;n8 -->
<g id="edge8" class="edge">
<title>n4&#45;&gt;n8</title>
<path fill="none" stroke="black" d="M988.57,-121.81C989.23,-102.11 990.31,-69.58 991.09,-46.39"/>
<polygon fill="black" stroke="black" points="994.6,-46.27 991.43,-36.16 987.6,-46.04 994.6,-46.27"/>
</g>
<!-- n9 -->
<g id="node10" class="node">
<title>n9</title>
<path fill="palegreen" stroke="black" d="M1326.5,-36C1326.5,-36 1175.5,-36 1175.5,-36 1169.5,-36 1163.5,-30 1163.5,-24 1163.5,-24 1163.5,-12 1163.5,-12 1163.5,-6 1169.5,0 1175.5,0 1175.5,0 1326.5,0 1326.5,0 1332.5,0 1338.5,-6 1338.5,-12 1338.5,-12 1338.5,-24 1338.5,-24 1338.5,-30 1332.5,-36 1326.5,-36"/>
<text text-anchor="middle" x="1251" y="-14.3" font-family="Arial" font-size="14.00">Sunlight helps plant health</text>
</g>
<!-- n5&#45;&gt;n9 -->
<g id="edge9" class="edge">
<title>n5&#45;&gt;n9</title>
<path fill="none" stroke="black" d="M1251,-121.81C1251,-102.11 1251,-69.58 1251,-46.39"/>
<polygon fill="black" stroke="black" points="1254.5,-46.16 1251,-36.16 1247.5,-46.16 1254.5,-46.16"/>
</g>
</g>
</svg>
