<?xml version="1.0" encoding="UTF-8" standalone="no"?>
<!DOCTYPE svg PUBLIC "-//W3C//DTD SVG 1.1//EN"
 "http://www.w3.org/Graphics/SVG/1.1/DTD/svg11.dtd">
<!-- Generated by graphviz version 2.43.0 (0)
 -->
<!-- Pages: 1 -->
<svg width="1434pt" height="288pt"
 viewBox="0.00 0.00 1433.50 288.00" xmlns="http://www.w3.org/2000/svg" xmlns:xlink="http://www.w3.org/1999/xlink">
<g id="graph0" class="graph" transform="scale(1 1) rotate(0) translate(4 284)">
<polygon fill="white" stroke="transparent" points="-4,4 -4,-284 1429.5,-284 1429.5,4 -4,4"/>
<!-- n1 -->
<g id="node1" class="node">
<title>n1</title>
<polygon fill="lightblue" stroke="black" points="953,-262 839.25,-280 611.75,-280 498,-262 611.75,-244 839.25,-244 953,-262"/>
<text text-anchor="middle" x="725.5" y="-258.3" font-family="Arial" font-size="14.00">Illustrate plants with and without water and light.</text>
</g>
<!-- n2 -->
<g id="node2" class="node">
<title>n2</title>
<polygon fill="#fffdd0" stroke="black" points="392,-158 57,-158 57,-122 392,-122 392,-158"/>
<text text-anchor="middle" x="224.5" y="-136.3" font-family="Arial" font-size="14.00">Thriving plant with tall, green leaves under warm light</text>
</g>
<!-- n1&#45;&gt;n2 -->
<g id="edge1" class="edge">
<title>n1&#45;&gt;n2</title>
<path fill="none" stroke="black" d="M654.52,-244C562.39,-221.93 402.02,-183.52 305.32,-160.36"/>
<polygon fill="black" stroke="black" points="306.13,-156.96 295.59,-158.03 304.5,-163.76 306.13,-156.96"/>
</g>
<!-- n3 -->
<g id="node3" class="node">
<title>n3</title>
<polygon fill="#fffdd0" stroke="black" points="699,-158 476,-158 476,-122 699,-122 699,-158"/>
<text text-anchor="middle" x="587.5" y="-136.3" font-family="Arial" font-size="14.00">Wilting plant without enough water</text>
</g>
<!-- n1&#45;&gt;n3 -->
<g id="edge2" class="edge">
<title>n1&#45;&gt;n3</title>
<path fill="none" stroke="black" d="M705.73,-243.81C681.95,-223.13 641.91,-188.31 615.1,-165"/>
<polygon fill="black" stroke="black" points="617.08,-162.08 607.24,-158.16 612.49,-167.36 617.08,-162.08"/>
</g>
<!-- n4 -->
<g id="node4" class="node">
<title>n4</title>
<polygon fill="#fffdd0" stroke="black" points="1013,-158 798,-158 798,-122 1013,-122 1013,-158"/>
<text text-anchor="middle" x="905.5" y="-136.3" font-family="Arial" font-size="14.00">Wilting plant without enough light</text>
</g>
<!-- n1&#45;&gt;n4 -->
<g id="edge3" class="edge">
<title>n1&#45;&gt;n4</title>
<path fill="none" stroke="black" d="M751.29,-243.81C782.83,-222.78 836.34,-187.11 871.3,-163.8"/>
<polygon fill="black" stroke="black" points="873.38,-166.62 879.76,-158.16 869.5,-160.79 873.38,-166.62"/>
</g>
<!-- n5 -->
<g id="node5" class="node">
<title>n5</title>
<polygon fill="#fffdd0" stroke="black" points="1333.5,-158 1135.5,-158 1135.5,-122 1333.5,-122 1333.5,-158"/>
<text text-anchor="middle" x="1234.5" y="-136.3" font-family="Arial" font-size="14.00">Clear sunlight on healthy plant</text>
</g>
<!-- n1&#45;&gt;n5 -->
<g id="edge4" class="edge">
<title>n1&#45;&gt;n5</title>
<path fill="none" stroke="black" d="M797.62,-244C891.21,-221.93 1054.1,-183.52 1152.4,-160.36"/>
<polygon fill="black" stroke="black" points="1153.37,-163.73 1162.3,-158.03 1151.76,-156.91 1153.37,-163.73"/>
</g>
<!-- n6 -->
<g id="node6" class="node">
<title>n6</title>
<path fill="palegreen" stroke="black" d="M345,-36C345,-36 12,-36 12,-36 6,-36 0,-30 0,-24 0,-24 0,-12 0,-12 0,-6 6,0 12,0 12,0 345,0 345,0 351,0 357,-6 357,-12 357,-12 357,-24 357,-24 357,-30 351,-36 345,-36"/>
<text text-anchor="middle" x="178.5" y="-14.3" font-family="Arial" font-size="14.00">Student understands plants need water and light to grow.</text>
</g>
<!-- n2&#45;&gt;n6 -->
<g id="edge5" class="edge">
<title>n2&#45;&gt;n6</title>
<path fill="none" stroke="black" d="M217.91,-121.81C210.29,-101.94 197.66,-68.99 188.76,-45.76"/>
<polygon fill="black" stroke="black" points="191.93,-44.25 185.08,-36.16 185.39,-46.75 191.93,-44.25"/>
</g>
<!-- n7 -->
<g id="node7" class="node">
<title>n7</title>
<path fill="palegreen" stroke="black" d="M708,-36C708,-36 427,-36 427,-36 421,-36 415,-30 415,-24 415,-24 415,-12 415,-12 415,-6 421,0 427,0 427,0 708,0 708,0 714,0 720,-6 720,-12 720,-12 720,-24 720,-24 720,-30 714,-36 708,-36"/>
<text text-anchor="middle" x="567.5" y="-14.3" font-family="Arial" font-size="14.00">Student understands water&#39;s role in plant health.</text>
</g>
<!-- n3&#45;&gt;n7 -->
<g id="edge6" class="edge">
<title>n3&#45;&gt;n7</title>
<path fill="none" stroke="black" d="M584.63,-121.81C581.34,-102.02 575.88,-69.29 572.01,-46.08"/>
<polygon fill="black" stroke="black" points="575.45,-45.45 570.36,-36.16 568.55,-46.6 575.45,-45.45"/>
</g>
<!-- n8 -->
<g id="node8" class="node">
<title>n8</title>
<path fill="palegreen" stroke="black" d="M1063,-36C1063,-36 790,-36 790,-36 784,-36 778,-30 778,-24 778,-24 778,-12 778,-12 778,-6 784,0 790,0 790,0 1063,0 1063,0 1069,0 1075,-6 1075,-12 1075,-12 1075,-24 1075,-24 1075,-30 1069,-36 1063,-36"/>
<text text-anchor="middle" x="926.5" y="-14.3" font-family="Arial" font-size="14.00">Student understands light&#39;s role in plant health.</text>
</g>
<!-- n4&#45;&gt;n8 -->
<g id="edge7" class="edge">
<title>n4&#45;&gt;n8</title>
<path fill="none" stroke="black" d="M908.51,-121.81C911.97,-102.02 917.7,-69.29 921.76,-46.08"/>
<polygon fill="black" stroke="black" points="925.22,-46.62 923.5,-36.16 918.32,-45.41 925.22,-46.62"/>
</g>
<!-- n9 -->
<g id="node9" class="node">
<title>n9</title>
<path fill="palegreen" stroke="black" d="M1413.5,-36C1413.5,-36 1145.5,-36 1145.5,-36 1139.5,-36 1133.5,-30 1133.5,-24 1133.5,-24 1133.5,-12 1133.5,-12 1133.5,-6 1139.5,0 1145.5,0 1145.5,0 1413.5,0 1413.5,0 1419.5,0 1425.5,-6 1425.5,-12 1425.5,-12 1425.5,-24 1425.5,-24 1425.5,-30 1419.5,-36 1413.5,-36"/>
<text text-anchor="middle" x="1279.5" y="-14.3" font-family="Arial" font-size="14.00">Student shows patterns using colors and light.</text>
</g>
<!-- n5&#45;&gt;n9 -->
<g id="edge8" class="edge">
<title>n5&#45;&gt;n9</title>
<path fill="none" stroke="black" d="M1240.9,-121.81C1248.4,-101.94 1260.8,-68.99 1269.5,-45.76"/>
<polygon fill="black" stroke="black" points="1272.87,-46.75 1273.1,-36.16 1266.31,-44.3 1272.87,-46.75"/>
</g>
</g>
</svg>
