<?xml version="1.0" encoding="UTF-8" standalone="no"?>
<!DOCTYPE svg PUBLIC "-//W3C//DTD SVG 1.1//EN"
 "http://www.w3.org/Graphics/SVG/1.1/DTD/svg11.dtd">
<!-- Generated by graphviz version 2.43.0 (0)
 -->
<!-- Pages: 1 -->
<svg width="1642pt" height="410pt"
 viewBox="0.00 0.00 1642.06 410.00" xmlns="http://www.w3.org/2000/svg" xmlns:xlink="http://www.w3.org/1999/xlink">
<g id="graph0" class="graph" transform="scale(1 1) rotate(0) translate(4 406)">
<polygon fill="white" stroke="transparent" points="-4,4 -4,-406 1638.06,-406 1638.06,4 -4,4"/>
<!-- n1 -->
<g id="node1" class="node">
<title>n1</title>
<polygon fill="lightblue" stroke="black" points="980.5,-384 869,-402 646,-402 534.5,-384 646,-366 869,-366 980.5,-384"/>
<text text-anchor="middle" x="757.5" y="-380.3" font-family="Arial" font-size="14.00">Draw a string telephone between two students.</text>
</g>
<!-- n2 -->
<g id="node2" class="node">
<title>n2</title>
<polygon fill="#fffdd0" stroke="black" points="419,-280 0,-280 0,-244 419,-244 419,-280"/>
<text text-anchor="middle" x="209.5" y="-258.3" font-family="Arial" font-size="14.00">Two cartoon&#45;style children in blue outfits, each holding a paper cup.</text>
</g>
<!-- n1&#45;&gt;n2 -->
<g id="edge1" class="edge">
<title>n1&#45;&gt;n2</title>
<path fill="none" stroke="black" d="M679.86,-366C578.89,-343.89 402.97,-305.37 297.26,-282.22"/>
<polygon fill="black" stroke="black" points="297.77,-278.75 287.25,-280.03 296.27,-285.59 297.77,-278.75"/>
</g>
<!-- n3 -->
<g id="node3" class="node">
<title>n3</title>
<polygon fill="#fffdd0" stroke="black" points="733,-280 494,-280 494,-244 733,-244 733,-280"/>
<text text-anchor="middle" x="613.5" y="-258.3" font-family="Arial" font-size="14.00">Bright red string connecting the cups.</text>
</g>
<!-- n1&#45;&gt;n3 -->
<g id="edge2" class="edge">
<title>n1&#45;&gt;n3</title>
<path fill="none" stroke="black" d="M736.87,-365.81C711.95,-345.04 669.91,-310.01 641.94,-286.7"/>
<polygon fill="black" stroke="black" points="644.01,-283.87 634.09,-280.16 639.53,-289.25 644.01,-283.87"/>
</g>
<!-- n4 -->
<g id="node4" class="node">
<title>n4</title>
<polygon fill="#fffdd0" stroke="black" points="1040,-280 819,-280 819,-244 1040,-244 1040,-280"/>
<text text-anchor="middle" x="929.5" y="-258.3" font-family="Arial" font-size="14.00">Purple wavy lines along the string.</text>
</g>
<!-- n1&#45;&gt;n4 -->
<g id="edge3" class="edge">
<title>n1&#45;&gt;n4</title>
<path fill="none" stroke="black" d="M782.14,-365.81C812.16,-344.87 862.98,-309.41 896.39,-286.1"/>
<polygon fill="black" stroke="black" points="898.7,-288.75 904.9,-280.16 894.7,-283.01 898.7,-288.75"/>
</g>
<!-- n5 -->
<g id="node5" class="node">
<title>n5</title>
<polygon fill="#fffdd0" stroke="black" points="1403.5,-280 1185.5,-280 1185.5,-244 1403.5,-244 1403.5,-280"/>
<text text-anchor="middle" x="1294.5" y="-258.3" font-family="Arial" font-size="14.00">No visible holes for string in cups.</text>
</g>
<!-- n1&#45;&gt;n5 -->
<g id="edge4" class="edge">
<title>n1&#45;&gt;n5</title>
<path fill="none" stroke="black" d="M833.58,-366C932.53,-343.89 1104.9,-305.37 1208.5,-282.22"/>
<polygon fill="black" stroke="black" points="1209.3,-285.63 1218.3,-280.03 1207.78,-278.8 1209.3,-285.63"/>
</g>
<!-- n6 -->
<g id="node6" class="node">
<title>n6</title>
<path fill="palegreen" stroke="black" d="M342.5,-158C342.5,-158 12.5,-158 12.5,-158 6.5,-158 0.5,-152 0.5,-146 0.5,-146 0.5,-134 0.5,-134 0.5,-128 6.5,-122 12.5,-122 12.5,-122 342.5,-122 342.5,-122 348.5,-122 354.5,-128 354.5,-134 354.5,-134 354.5,-146 354.5,-146 354.5,-152 348.5,-158 342.5,-158"/>
<text text-anchor="middle" x="177.5" y="-136.3" font-family="Arial" font-size="14.00">Communication over distance requires talking elements.</text>
</g>
<!-- n2&#45;&gt;n6 -->
<g id="edge5" class="edge">
<title>n2&#45;&gt;n6</title>
<path fill="none" stroke="black" d="M204.92,-243.81C199.64,-224.02 190.91,-191.29 184.72,-168.08"/>
<polygon fill="black" stroke="black" points="188.03,-166.92 182.08,-158.16 181.27,-168.72 188.03,-166.92"/>
</g>
<!-- n7 -->
<g id="node7" class="node">
<title>n7</title>
<path fill="palegreen" stroke="black" d="M774,-158C774,-158 425,-158 425,-158 419,-158 413,-152 413,-146 413,-146 413,-134 413,-134 413,-128 419,-122 425,-122 425,-122 774,-122 774,-122 780,-122 786,-128 786,-134 786,-134 786,-146 786,-146 786,-152 780,-158 774,-158"/>
<text text-anchor="middle" x="599.5" y="-136.3" font-family="Arial" font-size="14.00">String adds a physical connection between communicators.</text>
</g>
<!-- n3&#45;&gt;n7 -->
<g id="edge6" class="edge">
<title>n3&#45;&gt;n7</title>
<path fill="none" stroke="black" d="M611.49,-243.81C609.2,-224.11 605.4,-191.58 602.7,-168.39"/>
<polygon fill="black" stroke="black" points="606.14,-167.68 601.5,-158.16 599.19,-168.5 606.14,-167.68"/>
</g>
<!-- n8 -->
<g id="node8" class="node">
<title>n8</title>
<path fill="palegreen" stroke="black" d="M1031,-158C1031,-158 856,-158 856,-158 850,-158 844,-152 844,-146 844,-146 844,-134 844,-134 844,-128 850,-122 856,-122 856,-122 1031,-122 1031,-122 1037,-122 1043,-128 1043,-134 1043,-134 1043,-146 1043,-146 1043,-152 1037,-158 1031,-158"/>
<text text-anchor="middle" x="943.5" y="-136.3" font-family="Arial" font-size="14.00">Sound travels along the string.</text>
</g>
<!-- n4&#45;&gt;n8 -->
<g id="edge7" class="edge">
<title>n4&#45;&gt;n8</title>
<path fill="none" stroke="black" d="M931.51,-243.81C933.8,-224.11 937.6,-191.58 940.3,-168.39"/>
<polygon fill="black" stroke="black" points="943.81,-168.5 941.5,-158.16 936.86,-167.68 943.81,-168.5"/>
</g>
<!-- n9 -->
<g id="node9" class="node">
<title>n9</title>
<polygon fill="lightcoral" stroke="black" points="1367.5,-158 1100.89,-140 1367.5,-122 1634.11,-140 1367.5,-158"/>
<text text-anchor="middle" x="1367.5" y="-136.3" font-family="Arial" font-size="14.00">Incomplete understanding of the construction.</text>
</g>
<!-- n5&#45;&gt;n9 -->
<g id="edge8" class="edge">
<title>n5&#45;&gt;n9</title>
<path fill="none" stroke="black" d="M1305,-243.81C1317.3,-223.44 1338.1,-189.34 1352.3,-166.04"/>
<polygon fill="black" stroke="black" points="1355.35,-167.76 1357.5,-157.39 1349.35,-164.16 1355.35,-167.76"/>
</g>
<!-- n10 -->
<g id="node10" class="node">
<title>n10</title>
<polygon fill="#f28e8e" stroke="black" points="1587.5,-36 1147.5,-36 1147.5,0 1587.5,0 1587.5,-36"/>
<text text-anchor="middle" x="1367.5" y="-14.3" font-family="Arial" font-size="14.00">Ensure all parts are fully represented, e.g., add holes in cups for string.</text>
</g>
<!-- n9&#45;&gt;n10 -->
<g id="edge9" class="edge">
<title>n9&#45;&gt;n10</title>
<path fill="none" stroke="black" d="M1367.5,-121.81C1367.5,-102.11 1367.5,-69.58 1367.5,-46.39"/>
<polygon fill="black" stroke="black" points="1371,-46.16 1367.5,-36.16 1364,-46.16 1371,-46.16"/>
</g>
</g>
</svg>
