<?xml version="1.0" encoding="UTF-8" standalone="no"?>
<!DOCTYPE svg PUBLIC "-//W3C//DTD SVG 1.1//EN"
 "http://www.w3.org/Graphics/SVG/1.1/DTD/svg11.dtd">
<!-- Generated by graphviz version 2.43.0 (0)
 -->
<!-- Pages: 1 -->
<svg width="1418pt" height="410pt"
 viewBox="0.00 0.00 1418.20 410.00" xmlns="http://www.w3.org/2000/svg" xmlns:xlink="http://www.w3.org/1999/xlink">
<g id="graph0" class="graph" transform="scale(1 1) rotate(0) translate(4 406)">
<polygon fill="white" stroke="transparent" points="-4,4 -4,-406 1414.2,-406 1414.2,4 -4,4"/>
<!-- n1 -->
<g id="node1" class="node">
<title>n1</title>
<polygon fill="lightblue" stroke="black" points="1022.32,-384 899.91,-402 655.09,-402 532.68,-384 655.09,-366 899.91,-366 1022.32,-384"/>
<text text-anchor="middle" x="777.5" y="-380.3" font-family="Arial" font-size="14.00">Draw a habitat and the different living things in each</text>
</g>
<!-- n2 -->
<g id="node2" class="node">
<title>n2</title>
<polygon fill="#fffdd0" stroke="black" points="507.5,-280 271.5,-280 271.5,-244 507.5,-244 507.5,-280"/>
<text text-anchor="middle" x="389.5" y="-258.3" font-family="Arial" font-size="14.00">Simple garden with trees and a bush</text>
</g>
<!-- n1&#45;&gt;n2 -->
<g id="edge1" class="edge">
<title>n1&#45;&gt;n2</title>
<path fill="none" stroke="black" d="M722.32,-365.93C651.64,-344.07 529.33,-306.25 454.3,-283.04"/>
<polygon fill="black" stroke="black" points="455.08,-279.62 444.49,-280.01 453.01,-286.31 455.08,-279.62"/>
</g>
<!-- n3 -->
<g id="node3" class="node">
<title>n3</title>
<polygon fill="#fffdd0" stroke="black" points="1147.5,-280 1035.5,-280 1035.5,-244 1147.5,-244 1147.5,-280"/>
<text text-anchor="middle" x="1091.5" y="-258.3" font-family="Arial" font-size="14.00">Pond with a fish</text>
</g>
<!-- n1&#45;&gt;n3 -->
<g id="edge2" class="edge">
<title>n1&#45;&gt;n3</title>
<path fill="none" stroke="black" d="M822.16,-365.93C878.89,-344.25 976.72,-306.86 1037.6,-283.61"/>
<polygon fill="black" stroke="black" points="1038.91,-286.86 1047,-280.01 1036.41,-280.32 1038.91,-286.86"/>
</g>
<!-- n4 -->
<g id="node4" class="node">
<title>n4</title>
<polygon fill="#fffdd0" stroke="black" points="755,-280 566,-280 566,-244 755,-244 755,-280"/>
<text text-anchor="middle" x="660.5" y="-258.3" font-family="Arial" font-size="14.00">Bird perched above the bush</text>
</g>
<!-- n1&#45;&gt;n4 -->
<g id="edge3" class="edge">
<title>n1&#45;&gt;n4</title>
<path fill="none" stroke="black" d="M760.74,-365.81C740.75,-345.31 707.21,-310.91 684.49,-287.6"/>
<polygon fill="black" stroke="black" points="686.72,-284.87 677.23,-280.16 681.71,-289.76 686.72,-284.87"/>
</g>
<!-- n5 -->
<g id="node5" class="node">
<title>n5</title>
<polygon fill="#fffdd0" stroke="black" points="977.5,-280 813.5,-280 813.5,-244 977.5,-244 977.5,-280"/>
<text text-anchor="middle" x="895.5" y="-258.3" font-family="Arial" font-size="14.00">Ant crawling on the bush</text>
</g>
<!-- n1&#45;&gt;n5 -->
<g id="edge4" class="edge">
<title>n1&#45;&gt;n5</title>
<path fill="none" stroke="black" d="M794.41,-365.81C814.65,-345.22 848.68,-310.61 871.6,-287.3"/>
<polygon fill="black" stroke="black" points="874.1,-289.74 878.62,-280.16 869.11,-284.84 874.1,-289.74"/>
</g>
<!-- n6 -->
<g id="node6" class="node">
<title>n6</title>
<path fill="palegreen" stroke="black" d="M187,-158C187,-158 12,-158 12,-158 6,-158 0,-152 0,-146 0,-146 0,-134 0,-134 0,-128 6,-122 12,-122 12,-122 187,-122 187,-122 193,-122 199,-128 199,-134 199,-134 199,-146 199,-146 199,-152 193,-158 187,-158"/>
<text text-anchor="middle" x="99.5" y="-136.3" font-family="Arial" font-size="14.00">Drawing different habitat types</text>
</g>
<!-- n2&#45;&gt;n6 -->
<g id="edge5" class="edge">
<title>n2&#45;&gt;n6</title>
<path fill="none" stroke="black" d="M348.26,-243.93C296.08,-222.34 206.25,-185.17 150.01,-161.9"/>
<polygon fill="black" stroke="black" points="151.18,-158.6 140.6,-158.01 148.5,-165.06 151.18,-158.6"/>
</g>
<!-- n8 -->
<g id="node7" class="node">
<title>n8</title>
<polygon fill="lightcoral" stroke="black" points="431.5,-158 256.72,-140 431.5,-122 606.28,-140 431.5,-158"/>
<text text-anchor="middle" x="431.5" y="-136.3" font-family="Arial" font-size="14.00">Limited diversity represented</text>
</g>
<!-- n2&#45;&gt;n8 -->
<g id="edge6" class="edge">
<title>n2&#45;&gt;n8</title>
<path fill="none" stroke="black" d="M395.52,-243.81C402.51,-223.82 414.13,-190.62 422.27,-167.37"/>
<polygon fill="black" stroke="black" points="425.63,-168.36 425.63,-157.77 419.02,-166.05 425.63,-168.36"/>
</g>
<!-- n7 -->
<g id="node8" class="node">
<title>n7</title>
<path fill="palegreen" stroke="black" d="M946.5,-158C946.5,-158 760.5,-158 760.5,-158 754.5,-158 748.5,-152 748.5,-146 748.5,-146 748.5,-134 748.5,-134 748.5,-128 754.5,-122 760.5,-122 760.5,-122 946.5,-122 946.5,-122 952.5,-122 958.5,-128 958.5,-134 958.5,-134 958.5,-146 958.5,-146 958.5,-152 952.5,-158 946.5,-158"/>
<text text-anchor="middle" x="853.5" y="-136.3" font-family="Arial" font-size="14.00">Including trees, bushes, and fish</text>
</g>
<!-- n3&#45;&gt;n7 -->
<g id="edge7" class="edge">
<title>n3&#45;&gt;n7</title>
<path fill="none" stroke="black" d="M1057.7,-243.93C1015.3,-222.57 942.63,-185.94 896.39,-162.63"/>
<polygon fill="black" stroke="black" points="897.73,-159.39 887.23,-158.01 894.58,-165.64 897.73,-159.39"/>
</g>
<!-- n9 -->
<g id="node9" class="node">
<title>n9</title>
<polygon fill="lightcoral" stroke="black" points="1213.5,-158 1016.6,-140 1213.5,-122 1410.4,-140 1213.5,-158"/>
<text text-anchor="middle" x="1213.5" y="-136.3" font-family="Arial" font-size="14.00">Habitats not clearly distinguished</text>
</g>
<!-- n3&#45;&gt;n9 -->
<g id="edge8" class="edge">
<title>n3&#45;&gt;n9</title>
<path fill="none" stroke="black" d="M1109,-243.81C1130.4,-222.75 1166.7,-187.03 1190.4,-163.73"/>
<polygon fill="black" stroke="black" points="1192.94,-166.14 1197.6,-156.63 1188.02,-161.16 1192.94,-166.14"/>
</g>
<!-- n4&#45;&gt;n7 -->
<g id="edge9" class="edge">
<title>n4&#45;&gt;n7</title>
<path fill="none" stroke="black" d="M688.15,-243.81C722.12,-222.69 779.83,-186.81 817.3,-163.51"/>
<polygon fill="black" stroke="black" points="819.26,-166.41 825.9,-158.16 815.56,-160.47 819.26,-166.41"/>
</g>
<!-- n5&#45;&gt;n7 -->
<g id="edge10" class="edge">
<title>n5&#45;&gt;n7</title>
<path fill="none" stroke="black" d="M889.48,-243.81C882.53,-223.94 871,-190.99 862.87,-167.76"/>
<polygon fill="black" stroke="black" points="866.12,-166.44 859.51,-158.16 859.51,-168.75 866.12,-166.44"/>
</g>
<!-- n10 -->
<g id="node10" class="node">
<title>n10</title>
<polygon fill="#f28e8e" stroke="black" points="585.5,-36 277.5,-36 277.5,0 585.5,0 585.5,-36"/>
<text text-anchor="middle" x="431.5" y="-14.3" font-family="Arial" font-size="14.00">Add more plant and animal types to each habitat</text>
</g>
<!-- n8&#45;&gt;n10 -->
<g id="edge11" class="edge">
<title>n8&#45;&gt;n10</title>
<path fill="none" stroke="black" d="M431.5,-121.81C431.5,-102.11 431.5,-69.58 431.5,-46.39"/>
<polygon fill="black" stroke="black" points="435,-46.16 431.5,-36.16 428,-46.16 435,-46.16"/>
</g>
<!-- n11 -->
<g id="node11" class="node">
<title>n11</title>
<polygon fill="#f28e8e" stroke="black" points="1325.5,-36 1101.5,-36 1101.5,0 1325.5,0 1325.5,-36"/>
<text text-anchor="middle" x="1213.5" y="-14.3" font-family="Arial" font-size="14.00">Differentiate habitat characteristics</text>
</g>
<!-- n9&#45;&gt;n11 -->
<g id="edge12" class="edge">
<title>n9&#45;&gt;n11</title>
<path fill="none" stroke="black" d="M1213.5,-121.81C1213.5,-102.11 1213.5,-69.58 1213.5,-46.39"/>
<polygon fill="black" stroke="black" points="1217,-46.16 1213.5,-36.16 1210,-46.16 1217,-46.16"/>
</g>
</g>
</svg>
