<?xml version="1.0" encoding="UTF-8" standalone="no"?>
<!DOCTYPE svg PUBLIC "-//W3C//DTD SVG 1.1//EN"
 "http://www.w3.org/Graphics/SVG/1.1/DTD/svg11.dtd">
<!-- Generated by graphviz version 2.43.0 (0)
 -->
<!-- Pages: 1 -->
<svg width="932pt" height="410pt"
 viewBox="0.00 0.00 932.00 410.00" xmlns="http://www.w3.org/2000/svg" xmlns:xlink="http://www.w3.org/1999/xlink">
<g id="graph0" class="graph" transform="scale(1 1) rotate(0) translate(4 406)">
<polygon fill="white" stroke="transparent" points="-4,4 -4,-406 928,-406 928,4 -4,4"/>
<!-- n1 -->
<g id="node1" class="node">
<title>n1</title>
<polygon fill="lightblue" stroke="black" points="742.37,-384 599.69,-402 314.31,-402 171.63,-384 314.31,-366 599.69,-366 742.37,-384"/>
<text text-anchor="middle" x="457" y="-380.3" font-family="Arial" font-size="14.00">Draw animals in their habitats with labels (e.g., fish in water).</text>
</g>
<!-- n2 -->
<g id="node2" class="node">
<title>n2</title>
<polygon fill="#fffdd0" stroke="black" points="224,-280 0,-280 0,-244 224,-244 224,-280"/>
<text text-anchor="middle" x="112" y="-258.3" font-family="Arial" font-size="14.00">Circle and lines representing a fish</text>
</g>
<!-- n1&#45;&gt;n2 -->
<g id="edge1" class="edge">
<title>n1&#45;&gt;n2</title>
<path fill="none" stroke="black" d="M407.94,-365.93C345.35,-344.16 237.22,-306.56 170.44,-283.33"/>
<polygon fill="black" stroke="black" points="171.48,-279.99 160.89,-280.01 169.19,-286.6 171.48,-279.99"/>
</g>
<!-- n3 -->
<g id="node3" class="node">
<title>n3</title>
<polygon fill="#fffdd0" stroke="black" points="415.5,-280 282.5,-280 282.5,-244 415.5,-244 415.5,-280"/>
<text text-anchor="middle" x="349" y="-258.3" font-family="Arial" font-size="14.00">Bird&#45;shaped outline</text>
</g>
<!-- n1&#45;&gt;n3 -->
<g id="edge2" class="edge">
<title>n1&#45;&gt;n3</title>
<path fill="none" stroke="black" d="M441.53,-365.81C423.08,-345.31 392.12,-310.91 371.14,-287.6"/>
<polygon fill="black" stroke="black" points="373.74,-285.26 364.45,-280.16 368.53,-289.94 373.74,-285.26"/>
</g>
<!-- n4 -->
<g id="node4" class="node">
<title>n4</title>
<polygon fill="#fffdd0" stroke="black" points="656,-280 474,-280 474,-244 656,-244 656,-280"/>
<text text-anchor="middle" x="565" y="-258.3" font-family="Arial" font-size="14.00">Wavy lines labeled as &#39;land&#39;</text>
</g>
<!-- n1&#45;&gt;n4 -->
<g id="edge3" class="edge">
<title>n1&#45;&gt;n4</title>
<path fill="none" stroke="black" d="M472.47,-365.81C490.92,-345.31 521.88,-310.91 542.86,-287.6"/>
<polygon fill="black" stroke="black" points="545.47,-289.94 549.55,-280.16 540.26,-285.26 545.47,-289.94"/>
</g>
<!-- n5 -->
<g id="node5" class="node">
<title>n5</title>
<polygon fill="#fffdd0" stroke="black" points="924,-280 714,-280 714,-244 924,-244 924,-280"/>
<text text-anchor="middle" x="819" y="-258.3" font-family="Arial" font-size="14.00">Area near bird labeled as &#39;water&#39;</text>
</g>
<!-- n1&#45;&gt;n5 -->
<g id="edge4" class="edge">
<title>n1&#45;&gt;n5</title>
<path fill="none" stroke="black" d="M508.48,-365.93C574.29,-344.12 688.07,-306.4 758.11,-283.18"/>
<polygon fill="black" stroke="black" points="759.3,-286.47 767.7,-280.01 757.11,-279.83 759.3,-286.47"/>
</g>
<!-- n6 -->
<g id="node6" class="node">
<title>n6</title>
<path fill="palegreen" stroke="black" d="M167,-158C167,-158 57,-158 57,-158 51,-158 45,-152 45,-146 45,-146 45,-134 45,-134 45,-128 51,-122 57,-122 57,-122 167,-122 167,-122 173,-122 179,-128 179,-134 179,-134 179,-146 179,-146 179,-152 173,-158 167,-158"/>
<text text-anchor="middle" x="112" y="-136.3" font-family="Arial" font-size="14.00">Fish drawn in water</text>
</g>
<!-- n2&#45;&gt;n6 -->
<g id="edge5" class="edge">
<title>n2&#45;&gt;n6</title>
<path fill="none" stroke="black" d="M112,-243.81C112,-224.11 112,-191.58 112,-168.39"/>
<polygon fill="black" stroke="black" points="115.5,-168.16 112,-158.16 108.5,-168.16 115.5,-168.16"/>
</g>
<!-- n7 -->
<g id="node7" class="node">
<title>n7</title>
<polygon fill="lightcoral" stroke="black" points="692,-158 504.48,-140 692,-122 879.52,-140 692,-158"/>
<text text-anchor="middle" x="692" y="-136.3" font-family="Arial" font-size="14.00">Mislabeling of &#39;land&#39; and &#39;water&#39;</text>
</g>
<!-- n4&#45;&gt;n7 -->
<g id="edge6" class="edge">
<title>n4&#45;&gt;n7</title>
<path fill="none" stroke="black" d="M583.2,-243.81C605.48,-222.75 643.28,-187.03 667.94,-163.73"/>
<polygon fill="black" stroke="black" points="670.59,-166.04 675.45,-156.63 665.78,-160.96 670.59,-166.04"/>
</g>
<!-- n5&#45;&gt;n7 -->
<g id="edge7" class="edge">
<title>n5&#45;&gt;n7</title>
<path fill="none" stroke="black" d="M800.8,-243.81C778.52,-222.75 740.72,-187.03 716.06,-163.73"/>
<polygon fill="black" stroke="black" points="718.22,-160.96 708.55,-156.63 713.41,-166.04 718.22,-160.96"/>
</g>
<!-- n8 -->
<g id="node8" class="node">
<title>n8</title>
<polygon fill="#f28e8e" stroke="black" points="915.5,-36 468.5,-36 468.5,0 915.5,0 915.5,-36"/>
<text text-anchor="middle" x="692" y="-14.3" font-family="Arial" font-size="14.00">Correctly label habitats: Wavy lines are water, area above ground is sky.</text>
</g>
<!-- n7&#45;&gt;n8 -->
<g id="edge8" class="edge">
<title>n7&#45;&gt;n8</title>
<path fill="none" stroke="black" d="M692,-121.81C692,-102.11 692,-69.58 692,-46.39"/>
<polygon fill="black" stroke="black" points="695.5,-46.16 692,-36.16 688.5,-46.16 695.5,-46.16"/>
</g>
</g>
</svg>
