<?xml version="1.0" encoding="UTF-8" standalone="no"?>
<!DOCTYPE svg PUBLIC "-//W3C//DTD SVG 1.1//EN"
 "http://www.w3.org/Graphics/SVG/1.1/DTD/svg11.dtd">
<!-- Generated by graphviz version 2.43.0 (0)
 -->
<!-- Pages: 1 -->
<svg width="1768pt" height="410pt"
 viewBox="0.00 0.00 1767.50 410.00" xmlns="http://www.w3.org/2000/svg" xmlns:xlink="http://www.w3.org/1999/xlink">
<g id="graph0" class="graph" transform="scale(1 1) rotate(0) translate(4 406)">
<polygon fill="white" stroke="transparent" points="-4,4 -4,-406 1763.5,-406 1763.5,4 -4,4"/>
<!-- n1 -->
<g id="node1" class="node">
<title>n1</title>
<polygon fill="lightblue" stroke="black" points="972,-384 808,-402 480,-402 316,-384 480,-366 808,-366 972,-384"/>
<text text-anchor="middle" x="644" y="-380.3" font-family="Arial" font-size="14.00">Draw reversible and irreversible changes (ice melting vs. egg cooking)</text>
</g>
<!-- n2 -->
<g id="node2" class="node">
<title>n2</title>
<polygon fill="#fffdd0" stroke="black" points="612.5,-280 401.5,-280 401.5,-244 612.5,-244 612.5,-280"/>
<text text-anchor="middle" x="507" y="-258.3" font-family="Arial" font-size="14.00">Ice cube melting on a sunny day</text>
</g>
<!-- n1&#45;&gt;n2 -->
<g id="edge1" class="edge">
<title>n1&#45;&gt;n2</title>
<path fill="none" stroke="black" d="M624.37,-365.81C600.77,-345.13 561.02,-310.31 534.4,-287"/>
<polygon fill="black" stroke="black" points="536.42,-284.12 526.59,-280.16 531.81,-289.38 536.42,-284.12"/>
</g>
<!-- n3 -->
<g id="node3" class="node">
<title>n3</title>
<polygon fill="#fffdd0" stroke="black" points="291.5,-280 102.5,-280 102.5,-244 291.5,-244 291.5,-280"/>
<text text-anchor="middle" x="197" y="-258.3" font-family="Arial" font-size="14.00">Puddle freezing back into ice</text>
</g>
<!-- n1&#45;&gt;n3 -->
<g id="edge2" class="edge">
<title>n1&#45;&gt;n3</title>
<path fill="none" stroke="black" d="M580.43,-365.93C498.5,-343.94 356.37,-305.78 270.07,-282.62"/>
<polygon fill="black" stroke="black" points="270.92,-279.22 260.35,-280.01 269.1,-285.98 270.92,-279.22"/>
</g>
<!-- n4 -->
<g id="node4" class="node">
<title>n4</title>
<polygon fill="#fffdd0" stroke="black" points="938.5,-280 717.5,-280 717.5,-244 938.5,-244 938.5,-280"/>
<text text-anchor="middle" x="828" y="-258.3" font-family="Arial" font-size="14.00">Raw egg in pan becoming cooked</text>
</g>
<!-- n1&#45;&gt;n4 -->
<g id="edge3" class="edge">
<title>n1&#45;&gt;n4</title>
<path fill="none" stroke="black" d="M670.36,-365.81C702.61,-344.78 757.3,-309.11 793.04,-285.8"/>
<polygon fill="black" stroke="black" points="795.22,-288.55 801.69,-280.16 791.4,-282.69 795.22,-288.55"/>
</g>
<!-- n5 -->
<g id="node5" class="node">
<title>n5</title>
<polygon fill="#fffdd0" stroke="black" points="1415.5,-280 1140.5,-280 1140.5,-244 1415.5,-244 1415.5,-280"/>
<text text-anchor="middle" x="1278" y="-258.3" font-family="Arial" font-size="14.00">Attempt to uncook egg (circle&#45;slash shown)</text>
</g>
<!-- n1&#45;&gt;n5 -->
<g id="edge4" class="edge">
<title>n1&#45;&gt;n5</title>
<path fill="none" stroke="black" d="M733.83,-366C851.12,-343.8 1055.8,-305.05 1177.9,-281.94"/>
<polygon fill="black" stroke="black" points="1178.82,-285.33 1188,-280.03 1177.52,-278.45 1178.82,-285.33"/>
</g>
<!-- n6 -->
<g id="node6" class="node">
<title>n6</title>
<path fill="palegreen" stroke="black" d="M278,-158C278,-158 12,-158 12,-158 6,-158 0,-152 0,-146 0,-146 0,-134 0,-134 0,-128 6,-122 12,-122 12,-122 278,-122 278,-122 284,-122 290,-128 290,-134 290,-134 290,-146 290,-146 290,-152 284,-158 278,-158"/>
<text text-anchor="middle" x="145" y="-136.3" font-family="Arial" font-size="14.00">Correctly illustrates reversible change with ice</text>
</g>
<!-- n2&#45;&gt;n6 -->
<g id="edge5" class="edge">
<title>n2&#45;&gt;n6</title>
<path fill="none" stroke="black" d="M455.52,-243.93C389.71,-222.12 275.93,-184.4 205.89,-161.18"/>
<polygon fill="black" stroke="black" points="206.89,-157.83 196.3,-158.01 204.7,-164.47 206.89,-157.83"/>
</g>
<!-- n8 -->
<g id="node7" class="node">
<title>n8</title>
<path fill="palegreen" stroke="black" d="M653.5,-158C653.5,-158 360.5,-158 360.5,-158 354.5,-158 348.5,-152 348.5,-146 348.5,-146 348.5,-134 348.5,-134 348.5,-128 354.5,-122 360.5,-122 360.5,-122 653.5,-122 653.5,-122 659.5,-122 665.5,-128 665.5,-134 665.5,-134 665.5,-146 665.5,-146 665.5,-152 659.5,-158 653.5,-158"/>
<text text-anchor="middle" x="507" y="-136.3" font-family="Arial" font-size="14.00">Uses arrows and labels accurately for ice changes</text>
</g>
<!-- n2&#45;&gt;n8 -->
<g id="edge6" class="edge">
<title>n2&#45;&gt;n8</title>
<path fill="none" stroke="black" d="M507,-243.81C507,-224.11 507,-191.58 507,-168.39"/>
<polygon fill="black" stroke="black" points="510.5,-168.16 507,-158.16 503.5,-168.16 510.5,-168.16"/>
</g>
<!-- n3&#45;&gt;n6 -->
<g id="edge7" class="edge">
<title>n3&#45;&gt;n6</title>
<path fill="none" stroke="black" d="M189.55,-243.81C180.9,-223.85 166.54,-190.7 156.46,-167.45"/>
<polygon fill="black" stroke="black" points="159.62,-165.95 152.44,-158.16 153.2,-168.73 159.62,-165.95"/>
</g>
<!-- n7 -->
<g id="node8" class="node">
<title>n7</title>
<path fill="palegreen" stroke="black" d="M1014.5,-158C1014.5,-158 735.5,-158 735.5,-158 729.5,-158 723.5,-152 723.5,-146 723.5,-146 723.5,-134 723.5,-134 723.5,-128 729.5,-122 735.5,-122 735.5,-122 1014.5,-122 1014.5,-122 1020.5,-122 1026.5,-128 1026.5,-134 1026.5,-134 1026.5,-146 1026.5,-146 1026.5,-152 1020.5,-158 1014.5,-158"/>
<text text-anchor="middle" x="875" y="-136.3" font-family="Arial" font-size="14.00">Correctly illustrates irreversible change with egg</text>
</g>
<!-- n4&#45;&gt;n7 -->
<g id="edge8" class="edge">
<title>n4&#45;&gt;n7</title>
<path fill="none" stroke="black" d="M834.73,-243.81C842.52,-223.94 855.42,-190.99 864.52,-167.76"/>
<polygon fill="black" stroke="black" points="867.89,-168.75 868.28,-158.16 861.37,-166.19 867.89,-168.75"/>
</g>
<!-- n9 -->
<g id="node9" class="node">
<title>n9</title>
<polygon fill="lightcoral" stroke="black" points="1422,-158 1084.5,-140 1422,-122 1759.5,-140 1422,-158"/>
<text text-anchor="middle" x="1422" y="-136.3" font-family="Arial" font-size="14.00">Misunderstanding: complete reversal for eggs not possible</text>
</g>
<!-- n5&#45;&gt;n9 -->
<g id="edge9" class="edge">
<title>n5&#45;&gt;n9</title>
<path fill="none" stroke="black" d="M1298.6,-243.81C1324,-222.69 1367,-186.81 1395,-163.52"/>
<polygon fill="black" stroke="black" points="1397.37,-166.1 1402.8,-157.01 1392.88,-160.73 1397.37,-166.1"/>
</g>
<!-- n10 -->
<g id="node10" class="node">
<title>n10</title>
<polygon fill="#f28e8e" stroke="black" points="1683,-36 1161,-36 1161,0 1683,0 1683,-36"/>
<text text-anchor="middle" x="1422" y="-14.3" font-family="Arial" font-size="14.00">Consider labeling that attempts to reverse the egg are futile, instead of partial arrows</text>
</g>
<!-- n9&#45;&gt;n10 -->
<g id="edge10" class="edge">
<title>n9&#45;&gt;n10</title>
<path fill="none" stroke="black" d="M1422,-121.81C1422,-102.11 1422,-69.58 1422,-46.39"/>
<polygon fill="black" stroke="black" points="1425.5,-46.16 1422,-36.16 1418.5,-46.16 1425.5,-46.16"/>
</g>
</g>
</svg>
