<?xml version="1.0" encoding="UTF-8" standalone="no"?>
<!DOCTYPE svg PUBLIC "-//W3C//DTD SVG 1.1//EN"
 "http://www.w3.org/Graphics/SVG/1.1/DTD/svg11.dtd">
<!-- Generated by graphviz version 2.43.0 (0)
 -->
<!-- Pages: 1 -->
<svg width="1819pt" height="410pt"
 viewBox="0.00 0.00 1819.00 410.00" xmlns="http://www.w3.org/2000/svg" xmlns:xlink="http://www.w3.org/1999/xlink">
<g id="graph0" class="graph" transform="scale(1 1) rotate(0) translate(4 406)">
<polygon fill="white" stroke="transparent" points="-4,4 -4,-406 1815,-406 1815,4 -4,4"/>
<!-- n1 -->
<g id="node1" class="node">
<title>n1</title>
<polygon fill="lightblue" stroke="black" points="829.5,-384 718,-402 495,-402 383.5,-384 495,-366 718,-366 829.5,-384"/>
<text text-anchor="middle" x="606.5" y="-380.3" font-family="Arial" font-size="14.00">Draw a string telephone between two students.</text>
</g>
<!-- n2 -->
<g id="node2" class="node">
<title>n2</title>
<polygon fill="#fffdd0" stroke="black" points="208.5,-280 36.5,-280 36.5,-244 208.5,-244 208.5,-280"/>
<text text-anchor="middle" x="122.5" y="-258.3" font-family="Arial" font-size="14.00">Two children holding cups</text>
</g>
<!-- n1&#45;&gt;n2 -->
<g id="edge1" class="edge">
<title>n1&#45;&gt;n2</title>
<path fill="none" stroke="black" d="M537.93,-366C449.11,-343.98 294.62,-305.68 201.14,-282.5"/>
<polygon fill="black" stroke="black" points="201.72,-279.04 191.17,-280.03 200.03,-285.83 201.72,-279.04"/>
</g>
<!-- n3 -->
<g id="node3" class="node">
<title>n3</title>
<polygon fill="#fffdd0" stroke="black" points="442.5,-280 266.5,-280 266.5,-244 442.5,-244 442.5,-280"/>
<text text-anchor="middle" x="354.5" y="-258.3" font-family="Arial" font-size="14.00">String connecting the cups</text>
</g>
<!-- n1&#45;&gt;n3 -->
<g id="edge2" class="edge">
<title>n1&#45;&gt;n3</title>
<path fill="none" stroke="black" d="M570.66,-365.93C525.6,-344.48 448.23,-307.63 399.3,-284.33"/>
<polygon fill="black" stroke="black" points="400.74,-281.14 390.21,-280.01 397.74,-287.46 400.74,-281.14"/>
</g>
<!-- n4 -->
<g id="node4" class="node">
<title>n4</title>
<polygon fill="#fffdd0" stroke="black" points="712,-280 501,-280 501,-244 712,-244 712,-280"/>
<text text-anchor="middle" x="606.5" y="-258.3" font-family="Arial" font-size="14.00">Arrows on string for sound travel</text>
</g>
<!-- n1&#45;&gt;n4 -->
<g id="edge3" class="edge">
<title>n1&#45;&gt;n4</title>
<path fill="none" stroke="black" d="M606.5,-365.81C606.5,-346.11 606.5,-313.58 606.5,-290.39"/>
<polygon fill="black" stroke="black" points="610,-290.16 606.5,-280.16 603,-290.16 610,-290.16"/>
</g>
<!-- n5 -->
<g id="node5" class="node">
<title>n5</title>
<polygon fill="#fffdd0" stroke="black" points="1001,-280 770,-280 770,-244 1001,-244 1001,-280"/>
<text text-anchor="middle" x="885.5" y="-258.3" font-family="Arial" font-size="14.00">Environmental obstacles (tree, wall)</text>
</g>
<!-- n1&#45;&gt;n5 -->
<g id="edge4" class="edge">
<title>n1&#45;&gt;n5</title>
<path fill="none" stroke="black" d="M646.18,-365.93C696.28,-344.39 782.45,-307.32 836.57,-284.04"/>
<polygon fill="black" stroke="black" points="838.15,-287.17 845.96,-280.01 835.39,-280.74 838.15,-287.17"/>
</g>
<!-- n6 -->
<g id="node6" class="node">
<title>n6</title>
<polygon fill="#fffdd0" stroke="black" points="1482,-280 1321,-280 1321,-244 1482,-244 1482,-280"/>
<text text-anchor="middle" x="1401.5" y="-258.3" font-family="Arial" font-size="14.00">Labels: &#39;cup&#39; and &#39;string&#39;</text>
</g>
<!-- n1&#45;&gt;n6 -->
<g id="edge5" class="edge">
<title>n1&#45;&gt;n6</title>
<path fill="none" stroke="black" d="M718.72,-366.06C877.45,-342.1 1164.4,-298.78 1310.6,-276.72"/>
<polygon fill="black" stroke="black" points="1311.53,-280.12 1320.9,-275.17 1310.49,-273.2 1311.53,-280.12"/>
</g>
<!-- n7 -->
<g id="node7" class="node">
<title>n7</title>
<path fill="palegreen" stroke="black" d="M287,-158C287,-158 12,-158 12,-158 6,-158 0,-152 0,-146 0,-146 0,-134 0,-134 0,-128 6,-122 12,-122 12,-122 287,-122 287,-122 293,-122 299,-128 299,-134 299,-134 299,-146 299,-146 299,-152 293,-158 287,-158"/>
<text text-anchor="middle" x="149.5" y="-136.3" font-family="Arial" font-size="14.00">Understanding of long&#45;distance communication</text>
</g>
<!-- n2&#45;&gt;n7 -->
<g id="edge6" class="edge">
<title>n2&#45;&gt;n7</title>
<path fill="none" stroke="black" d="M126.37,-243.81C130.82,-224.02 138.19,-191.29 143.41,-168.08"/>
<polygon fill="black" stroke="black" points="146.86,-168.68 145.64,-158.16 140.03,-167.15 146.86,-168.68"/>
</g>
<!-- n3&#45;&gt;n7 -->
<g id="edge7" class="edge">
<title>n3&#45;&gt;n7</title>
<path fill="none" stroke="black" d="M325.13,-243.81C288.9,-222.6 227.23,-186.5 187.45,-163.21"/>
<polygon fill="black" stroke="black" points="189.22,-160.19 178.82,-158.16 185.68,-166.23 189.22,-160.19"/>
</g>
<!-- n8 -->
<g id="node8" class="node">
<title>n8</title>
<path fill="palegreen" stroke="black" d="M664,-158C664,-158 383,-158 383,-158 377,-158 371,-152 371,-146 371,-146 371,-134 371,-134 371,-128 377,-122 383,-122 383,-122 664,-122 664,-122 670,-122 676,-128 676,-134 676,-134 676,-146 676,-146 676,-152 670,-158 664,-158"/>
<text text-anchor="middle" x="523.5" y="-136.3" font-family="Arial" font-size="14.00">Understanding of sound travel through the string</text>
</g>
<!-- n4&#45;&gt;n8 -->
<g id="edge8" class="edge">
<title>n4&#45;&gt;n8</title>
<path fill="none" stroke="black" d="M594.61,-243.81C580.62,-223.58 557.26,-189.81 541.15,-166.52"/>
<polygon fill="black" stroke="black" points="543.94,-164.4 535.37,-158.16 538.18,-168.38 543.94,-164.4"/>
</g>
<!-- n9 -->
<g id="node9" class="node">
<title>n9</title>
<path fill="palegreen" stroke="black" d="M997,-158C997,-158 746,-158 746,-158 740,-158 734,-152 734,-146 734,-146 734,-134 734,-134 734,-128 740,-122 746,-122 746,-122 997,-122 997,-122 1003,-122 1009,-128 1009,-134 1009,-134 1009,-146 1009,-146 1009,-152 1003,-158 997,-158"/>
<text text-anchor="middle" x="871.5" y="-136.3" font-family="Arial" font-size="14.00">Illustration of obstacles without interference</text>
</g>
<!-- n5&#45;&gt;n9 -->
<g id="edge9" class="edge">
<title>n5&#45;&gt;n9</title>
<path fill="none" stroke="black" d="M883.49,-243.81C881.2,-224.11 877.4,-191.58 874.7,-168.39"/>
<polygon fill="black" stroke="black" points="878.14,-167.68 873.5,-158.16 871.19,-168.5 878.14,-167.68"/>
</g>
<!-- n11 -->
<g id="node10" class="node">
<title>n11</title>
<polygon fill="lightcoral" stroke="black" points="1276.5,-158 1066.86,-140 1276.5,-122 1486.14,-140 1276.5,-158"/>
<text text-anchor="middle" x="1276.5" y="-136.3" font-family="Arial" font-size="14.00">Cluttered drawing can be confusing</text>
</g>
<!-- n5&#45;&gt;n11 -->
<g id="edge10" class="edge">
<title>n5&#45;&gt;n11</title>
<path fill="none" stroke="black" d="M941.11,-243.93C1016.4,-220.84 1149.7,-179.91 1223.6,-157.24"/>
<polygon fill="black" stroke="black" points="1224.66,-160.57 1233.2,-154.3 1222.61,-153.88 1224.66,-160.57"/>
</g>
<!-- n10 -->
<g id="node11" class="node">
<title>n10</title>
<path fill="palegreen" stroke="black" d="M1799,-158C1799,-158 1556,-158 1556,-158 1550,-158 1544,-152 1544,-146 1544,-146 1544,-134 1544,-134 1544,-128 1550,-122 1556,-122 1556,-122 1799,-122 1799,-122 1805,-122 1811,-128 1811,-134 1811,-134 1811,-146 1811,-146 1811,-152 1805,-158 1799,-158"/>
<text text-anchor="middle" x="1677.5" y="-136.3" font-family="Arial" font-size="14.00">Proper labeling shows awareness of parts</text>
</g>
<!-- n6&#45;&gt;n10 -->
<g id="edge11" class="edge">
<title>n6&#45;&gt;n10</title>
<path fill="none" stroke="black" d="M1440.8,-243.93C1490.3,-222.39 1575.6,-185.32 1629.1,-162.04"/>
<polygon fill="black" stroke="black" points="1630.62,-165.2 1638.4,-158.01 1627.83,-158.77 1630.62,-165.2"/>
</g>
<!-- n12 -->
<g id="node12" class="node">
<title>n12</title>
<polygon fill="#f28e8e" stroke="black" points="1363.5,-36 1189.5,-36 1189.5,0 1363.5,0 1363.5,-36"/>
<text text-anchor="middle" x="1276.5" y="-14.3" font-family="Arial" font-size="14.00">Simplify drawing for clarity</text>
</g>
<!-- n11&#45;&gt;n12 -->
<g id="edge12" class="edge">
<title>n11&#45;&gt;n12</title>
<path fill="none" stroke="black" d="M1276.5,-121.81C1276.5,-102.11 1276.5,-69.58 1276.5,-46.39"/>
<polygon fill="black" stroke="black" points="1280,-46.16 1276.5,-36.16 1273,-46.16 1280,-46.16"/>
</g>
</g>
</svg>
