<?xml version="1.0" encoding="UTF-8" standalone="no"?>
<!DOCTYPE svg PUBLIC "-//W3C//DTD SVG 1.1//EN"
 "http://www.w3.org/Graphics/SVG/1.1/DTD/svg11.dtd">
<!-- Generated by graphviz version 2.43.0 (0)
 -->
<!-- Pages: 1 -->
<svg width="1508pt" height="410pt"
 viewBox="0.00 0.00 1507.74 410.00" xmlns="http://www.w3.org/2000/svg" xmlns:xlink="http://www.w3.org/1999/xlink">
<g id="graph0" class="graph" transform="scale(1 1) rotate(0) translate(4 406)">
<polygon fill="white" stroke="transparent" points="-4,4 -4,-406 1503.74,-406 1503.74,4 -4,4"/>
<!-- n1 -->
<g id="node1" class="node">
<title>n1</title>
<polygon fill="lightblue" stroke="black" points="906,-384 794.5,-402 571.5,-402 460,-384 571.5,-366 794.5,-366 906,-384"/>
<text text-anchor="middle" x="683" y="-380.3" font-family="Arial" font-size="14.00">Draw a string telephone between two students.</text>
</g>
<!-- n2 -->
<g id="node2" class="node">
<title>n2</title>
<polygon fill="#fffdd0" stroke="black" points="405.5,-280 180.5,-280 180.5,-244 405.5,-244 405.5,-280"/>
<text text-anchor="middle" x="293" y="-258.3" font-family="Arial" font-size="14.00">Two stick figures on opposite sides</text>
</g>
<!-- n1&#45;&gt;n2 -->
<g id="edge1" class="edge">
<title>n1&#45;&gt;n2</title>
<path fill="none" stroke="black" d="M627.54,-365.93C556.49,-344.07 433.55,-306.25 358.13,-283.04"/>
<polygon fill="black" stroke="black" points="358.86,-279.6 348.27,-280.01 356.8,-286.29 358.86,-279.6"/>
</g>
<!-- n3 -->
<g id="node3" class="node">
<title>n3</title>
<polygon fill="#fffdd0" stroke="black" points="785.5,-280 580.5,-280 580.5,-244 785.5,-244 785.5,-280"/>
<text text-anchor="middle" x="683" y="-258.3" font-family="Arial" font-size="14.00">Wavy line between stick figures</text>
</g>
<!-- n1&#45;&gt;n3 -->
<g id="edge2" class="edge">
<title>n1&#45;&gt;n3</title>
<path fill="none" stroke="black" d="M683,-365.81C683,-346.11 683,-313.58 683,-290.39"/>
<polygon fill="black" stroke="black" points="686.5,-290.16 683,-280.16 679.5,-290.16 686.5,-290.16"/>
</g>
<!-- n4 -->
<g id="node4" class="node">
<title>n4</title>
<polygon fill="#fffdd0" stroke="black" points="1220.5,-280 993.5,-280 993.5,-244 1220.5,-244 1220.5,-280"/>
<text text-anchor="middle" x="1107" y="-258.3" font-family="Arial" font-size="14.00">Random round shapes (cups/cans)</text>
</g>
<!-- n1&#45;&gt;n4 -->
<g id="edge3" class="edge">
<title>n1&#45;&gt;n4</title>
<path fill="none" stroke="black" d="M743.3,-365.93C820.85,-343.99 955.29,-305.94 1037.2,-282.76"/>
<polygon fill="black" stroke="black" points="1038.23,-286.1 1046.9,-280.01 1036.32,-279.37 1038.23,-286.1"/>
</g>
<!-- n5 -->
<g id="node5" class="node">
<title>n5</title>
<path fill="palegreen" stroke="black" d="M338,-158C338,-158 12,-158 12,-158 6,-158 0,-152 0,-146 0,-146 0,-134 0,-134 0,-128 6,-122 12,-122 12,-122 338,-122 338,-122 344,-122 350,-128 350,-134 350,-134 350,-146 350,-146 350,-152 344,-158 338,-158"/>
<text text-anchor="middle" x="175" y="-136.3" font-family="Arial" font-size="14.00">Figures could represent students trying to communicate</text>
</g>
<!-- n2&#45;&gt;n5 -->
<g id="edge4" class="edge">
<title>n2&#45;&gt;n5</title>
<path fill="none" stroke="black" d="M276.09,-243.81C255.85,-223.22 221.82,-188.61 198.9,-165.3"/>
<polygon fill="black" stroke="black" points="201.39,-162.84 191.88,-158.16 196.4,-167.74 201.39,-162.84"/>
</g>
<!-- n6 -->
<g id="node6" class="node">
<title>n6</title>
<polygon fill="lightcoral" stroke="black" points="683,-158 408,-140 683,-122 958,-140 683,-158"/>
<text text-anchor="middle" x="683" y="-136.3" font-family="Arial" font-size="14.00">String concept understood but poorly illustrated</text>
</g>
<!-- n3&#45;&gt;n6 -->
<g id="edge5" class="edge">
<title>n3&#45;&gt;n6</title>
<path fill="none" stroke="black" d="M683,-243.81C683,-224.11 683,-191.58 683,-168.39"/>
<polygon fill="black" stroke="black" points="686.5,-168.16 683,-158.16 679.5,-168.16 686.5,-168.16"/>
</g>
<!-- n7 -->
<g id="node7" class="node">
<title>n7</title>
<polygon fill="lightcoral" stroke="black" points="1258,-158 1016.02,-140 1258,-122 1499.98,-140 1258,-158"/>
<text text-anchor="middle" x="1258" y="-136.3" font-family="Arial" font-size="14.00">Cups/cans not clearly connected to string</text>
</g>
<!-- n4&#45;&gt;n7 -->
<g id="edge6" class="edge">
<title>n4&#45;&gt;n7</title>
<path fill="none" stroke="black" d="M1128.6,-243.81C1155.4,-222.57 1200.9,-186.41 1230.2,-163.13"/>
<polygon fill="black" stroke="black" points="1232.69,-165.62 1238.3,-156.63 1228.31,-160.16 1232.69,-165.62"/>
</g>
<!-- n8 -->
<g id="node8" class="node">
<title>n8</title>
<polygon fill="#f28e8e" stroke="black" points="873.5,-36 492.5,-36 492.5,0 873.5,0 873.5,-36"/>
<text text-anchor="middle" x="683" y="-14.3" font-family="Arial" font-size="14.00">Include clear depiction of string telephone with attached cups</text>
</g>
<!-- n6&#45;&gt;n8 -->
<g id="edge7" class="edge">
<title>n6&#45;&gt;n8</title>
<path fill="none" stroke="black" d="M683,-121.81C683,-102.11 683,-69.58 683,-46.39"/>
<polygon fill="black" stroke="black" points="686.5,-46.16 683,-36.16 679.5,-46.16 686.5,-46.16"/>
</g>
<!-- n9 -->
<g id="node9" class="node">
<title>n9</title>
<polygon fill="#f28e8e" stroke="black" points="1400,-36 1116,-36 1116,0 1400,0 1400,-36"/>
<text text-anchor="middle" x="1258" y="-14.3" font-family="Arial" font-size="14.00">Depict sound waves to show communication</text>
</g>
<!-- n7&#45;&gt;n9 -->
<g id="edge8" class="edge">
<title>n7&#45;&gt;n9</title>
<path fill="none" stroke="black" d="M1258,-121.81C1258,-102.11 1258,-69.58 1258,-46.39"/>
<polygon fill="black" stroke="black" points="1261.5,-46.16 1258,-36.16 1254.5,-46.16 1261.5,-46.16"/>
</g>
</g>
</svg>
