<?xml version="1.0" encoding="UTF-8" standalone="no"?>
<!DOCTYPE svg PUBLIC "-//W3C//DTD SVG 1.1//EN"
 "http://www.w3.org/Graphics/SVG/1.1/DTD/svg11.dtd">
<!-- Generated by graphviz version 2.43.0 (0)
 -->
<!-- Pages: 1 -->
<svg width="1610pt" height="532pt"
 viewBox="0.00 0.00 1609.50 532.00" xmlns="http://www.w3.org/2000/svg" xmlns:xlink="http://www.w3.org/1999/xlink">
<g id="graph0" class="graph" transform="scale(1 1) rotate(0) translate(4 528)">
<polygon fill="white" stroke="transparent" points="-4,4 -4,-528 1605.5,-528 1605.5,4 -4,4"/>
<!-- n1 -->
<g id="node1" class="node">
<title>n1</title>
<polygon fill="lightblue" stroke="black" points="1045.87,-506 904.68,-524 622.32,-524 481.13,-506 622.32,-488 904.68,-488 1045.87,-506"/>
<text text-anchor="middle" x="763.5" y="-502.3" font-family="Arial" font-size="14.00">Draw animals in their habitats with labels (e.g., fish in water)</text>
</g>
<!-- n2 -->
<g id="node2" class="node">
<title>n2</title>
<polygon fill="#fffdd0" stroke="black" points="270.5,-402 58.5,-402 58.5,-366 270.5,-366 270.5,-402"/>
<text text-anchor="middle" x="164.5" y="-380.3" font-family="Arial" font-size="14.00">Fish in blue water labeled &#39;water&#39;</text>
</g>
<!-- n1&#45;&gt;n2 -->
<g id="edge1" class="edge">
<title>n1&#45;&gt;n2</title>
<path fill="none" stroke="black" d="M678.63,-488C567.93,-465.82 374.81,-427.13 259.38,-404.01"/>
<polygon fill="black" stroke="black" points="259.98,-400.56 249.49,-402.03 258.61,-407.43 259.98,-400.56"/>
</g>
<!-- n3 -->
<g id="node3" class="node">
<title>n3</title>
<polygon fill="#fffdd0" stroke="black" points="568.5,-402 338.5,-402 338.5,-366 568.5,-366 568.5,-402"/>
<text text-anchor="middle" x="453.5" y="-380.3" font-family="Arial" font-size="14.00">Deer in a green forest with tall trees</text>
</g>
<!-- n1&#45;&gt;n3 -->
<g id="edge2" class="edge">
<title>n1&#45;&gt;n3</title>
<path fill="none" stroke="black" d="M719.41,-487.93C663.52,-466.3 567.21,-429.02 507.12,-405.76"/>
<polygon fill="black" stroke="black" points="508.02,-402.36 497.43,-402.01 505.49,-408.88 508.02,-402.36"/>
</g>
<!-- n4 -->
<g id="node4" class="node">
<title>n4</title>
<polygon fill="#fffdd0" stroke="black" points="882.5,-402 644.5,-402 644.5,-366 882.5,-366 882.5,-402"/>
<text text-anchor="middle" x="763.5" y="-380.3" font-family="Arial" font-size="14.00">Bird flying in blue sky with yellow sun</text>
</g>
<!-- n1&#45;&gt;n4 -->
<g id="edge3" class="edge">
<title>n1&#45;&gt;n4</title>
<path fill="none" stroke="black" d="M763.5,-487.81C763.5,-468.11 763.5,-435.58 763.5,-412.39"/>
<polygon fill="black" stroke="black" points="767,-412.16 763.5,-402.16 760,-412.16 767,-412.16"/>
</g>
<!-- n5 -->
<g id="node5" class="node">
<title>n5</title>
<polygon fill="#fffdd0" stroke="black" points="1219.5,-402 997.5,-402 997.5,-366 1219.5,-366 1219.5,-402"/>
<text text-anchor="middle" x="1108.5" y="-380.3" font-family="Arial" font-size="14.00">Turtle in a pond with water labeled</text>
</g>
<!-- n1&#45;&gt;n5 -->
<g id="edge4" class="edge">
<title>n1&#45;&gt;n5</title>
<path fill="none" stroke="black" d="M812.56,-487.93C875.15,-466.16 983.28,-428.56 1050.1,-405.33"/>
<polygon fill="black" stroke="black" points="1051.31,-408.61 1059.6,-402.01 1049.01,-402.01 1051.31,-408.61"/>
</g>
<!-- n6 -->
<g id="node6" class="node">
<title>n6</title>
<polygon fill="#fffdd0" stroke="black" points="1560,-402 1333,-402 1333,-366 1560,-366 1560,-402"/>
<text text-anchor="middle" x="1446.5" y="-380.3" font-family="Arial" font-size="14.00">Bees hovering over colorful flowers</text>
</g>
<!-- n1&#45;&gt;n6 -->
<g id="edge5" class="edge">
<title>n1&#45;&gt;n6</title>
<path fill="none" stroke="black" d="M860.27,-488C986.88,-465.75 1208,-426.9 1339.5,-403.8"/>
<polygon fill="black" stroke="black" points="1340.35,-407.2 1349.6,-402.03 1339.15,-400.31 1340.35,-407.2"/>
</g>
<!-- n7 -->
<g id="node7" class="node">
<title>n7</title>
<path fill="palegreen" stroke="black" d="M263,-280C263,-280 12,-280 12,-280 6,-280 0,-274 0,-268 0,-268 0,-256 0,-256 0,-250 6,-244 12,-244 12,-244 263,-244 263,-244 269,-244 275,-250 275,-256 275,-256 275,-268 275,-268 275,-274 269,-280 263,-280"/>
<text text-anchor="middle" x="137.5" y="-258.3" font-family="Arial" font-size="14.00">Student understands fish need water to live</text>
</g>
<!-- n2&#45;&gt;n7 -->
<g id="edge6" class="edge">
<title>n2&#45;&gt;n7</title>
<path fill="none" stroke="black" d="M160.63,-365.81C156.18,-346.02 148.81,-313.29 143.59,-290.08"/>
<polygon fill="black" stroke="black" points="146.97,-289.15 141.36,-280.16 140.14,-290.68 146.97,-289.15"/>
</g>
<!-- n8 -->
<g id="node8" class="node">
<title>n8</title>
<path fill="palegreen" stroke="black" d="M527.5,-280C527.5,-280 345.5,-280 345.5,-280 339.5,-280 333.5,-274 333.5,-268 333.5,-268 333.5,-256 333.5,-256 333.5,-250 339.5,-244 345.5,-244 345.5,-244 527.5,-244 527.5,-244 533.5,-244 539.5,-250 539.5,-256 539.5,-256 539.5,-268 539.5,-268 539.5,-274 533.5,-280 527.5,-280"/>
<text text-anchor="middle" x="436.5" y="-258.3" font-family="Arial" font-size="14.00">Understands deer live in forests</text>
</g>
<!-- n3&#45;&gt;n8 -->
<g id="edge7" class="edge">
<title>n3&#45;&gt;n8</title>
<path fill="none" stroke="black" d="M451.06,-365.81C448.26,-346.02 443.62,-313.29 440.34,-290.08"/>
<polygon fill="black" stroke="black" points="443.8,-289.57 438.93,-280.16 436.87,-290.55 443.8,-289.57"/>
</g>
<!-- n9 -->
<g id="node9" class="node">
<title>n9</title>
<path fill="palegreen" stroke="black" d="M917,-280C917,-280 610,-280 610,-280 604,-280 598,-274 598,-268 598,-268 598,-256 598,-256 598,-250 604,-244 610,-244 610,-244 917,-244 917,-244 923,-244 929,-250 929,-256 929,-256 929,-268 929,-268 929,-274 923,-280 917,-280"/>
<text text-anchor="middle" x="763.5" y="-258.3" font-family="Arial" font-size="14.00">Understands birds need air to fly and sun for warmth</text>
</g>
<!-- n4&#45;&gt;n9 -->
<g id="edge8" class="edge">
<title>n4&#45;&gt;n9</title>
<path fill="none" stroke="black" d="M763.5,-365.81C763.5,-346.11 763.5,-313.58 763.5,-290.39"/>
<polygon fill="black" stroke="black" points="767,-290.16 763.5,-280.16 760,-290.16 767,-290.16"/>
</g>
<!-- n10 -->
<g id="node10" class="node">
<title>n10</title>
<polygon fill="lightcoral" stroke="black" points="1165.5,-280 987,-262 1165.5,-244 1344,-262 1165.5,-280"/>
<text text-anchor="middle" x="1165.5" y="-258.3" font-family="Arial" font-size="14.00">Omitted air resource for turtle</text>
</g>
<!-- n5&#45;&gt;n10 -->
<g id="edge9" class="edge">
<title>n5&#45;&gt;n10</title>
<path fill="none" stroke="black" d="M1116.7,-365.81C1126.3,-345.62 1142.3,-311.94 1153.3,-288.66"/>
<polygon fill="black" stroke="black" points="1156.57,-289.92 1157.7,-279.39 1150.25,-286.92 1156.57,-289.92"/>
</g>
<!-- n11 -->
<g id="node11" class="node">
<title>n11</title>
<path fill="palegreen" stroke="black" d="M1589.5,-280C1589.5,-280 1413.5,-280 1413.5,-280 1407.5,-280 1401.5,-274 1401.5,-268 1401.5,-268 1401.5,-256 1401.5,-256 1401.5,-250 1407.5,-244 1413.5,-244 1413.5,-244 1589.5,-244 1589.5,-244 1595.5,-244 1601.5,-250 1601.5,-256 1601.5,-256 1601.5,-268 1601.5,-268 1601.5,-274 1595.5,-280 1589.5,-280"/>
<text text-anchor="middle" x="1501.5" y="-258.3" font-family="Arial" font-size="14.00">Understands bees visit flowers</text>
</g>
<!-- n6&#45;&gt;n11 -->
<g id="edge10" class="edge">
<title>n6&#45;&gt;n11</title>
<path fill="none" stroke="black" d="M1454.4,-365.81C1463.5,-345.85 1478.7,-312.7 1489.4,-289.45"/>
<polygon fill="black" stroke="black" points="1492.67,-290.71 1493.6,-280.16 1486.29,-287.83 1492.67,-290.71"/>
</g>
<!-- n12 -->
<g id="node12" class="node">
<title>n12</title>
<polygon fill="#f28e8e" stroke="black" points="1085.5,-158 873.5,-158 873.5,-122 1085.5,-122 1085.5,-158"/>
<text text-anchor="middle" x="979.5" y="-136.3" font-family="Arial" font-size="14.00">Clarify turtles need air to breathe</text>
</g>
<!-- n10&#45;&gt;n12 -->
<g id="edge11" class="edge">
<title>n10&#45;&gt;n12</title>
<path fill="none" stroke="black" d="M1142.7,-246.29C1110.7,-225.66 1052.3,-187.96 1014.7,-163.72"/>
<polygon fill="black" stroke="black" points="1016.4,-160.65 1006.1,-158.16 1012.6,-166.53 1016.4,-160.65"/>
</g>
<!-- n13 -->
<g id="node13" class="node">
<title>n13</title>
<polygon fill="lightcoral" stroke="black" points="1352.5,-158 1143.7,-140 1352.5,-122 1561.3,-140 1352.5,-158"/>
<text text-anchor="middle" x="1352.5" y="-136.3" font-family="Arial" font-size="14.00">Missing food resources for animals</text>
</g>
<!-- n10&#45;&gt;n13 -->
<g id="edge12" class="edge">
<title>n10&#45;&gt;n13</title>
<path fill="none" stroke="black" d="M1188.4,-246.29C1221.6,-225.02 1283,-185.62 1320.5,-161.51"/>
<polygon fill="black" stroke="black" points="1322.55,-164.35 1329.1,-156.02 1318.79,-158.45 1322.55,-164.35"/>
</g>
<!-- n14 -->
<g id="node14" class="node">
<title>n14</title>
<polygon fill="#f28e8e" stroke="black" points="1488.5,-36 1216.5,-36 1216.5,0 1488.5,0 1488.5,-36"/>
<text text-anchor="middle" x="1352.5" y="-14.3" font-family="Arial" font-size="14.00">Each animal needs food resources labeled</text>
</g>
<!-- n13&#45;&gt;n14 -->
<g id="edge13" class="edge">
<title>n13&#45;&gt;n14</title>
<path fill="none" stroke="black" d="M1352.5,-121.81C1352.5,-102.11 1352.5,-69.58 1352.5,-46.39"/>
<polygon fill="black" stroke="black" points="1356,-46.16 1352.5,-36.16 1349,-46.16 1356,-46.16"/>
</g>
</g>
</svg>
