<?xml version="1.0" encoding="UTF-8" standalone="no"?>
<!DOCTYPE svg PUBLIC "-//W3C//DTD SVG 1.1//EN"
 "http://www.w3.org/Graphics/SVG/1.1/DTD/svg11.dtd">
<!-- Generated by graphviz version 2.43.0 (0)
 -->
<!-- Pages: 1 -->
<svg width="1372pt" height="410pt"
 viewBox="0.00 0.00 1372.10 410.00" xmlns="http://www.w3.org/2000/svg" xmlns:xlink="http://www.w3.org/1999/xlink">
<g id="graph0" class="graph" transform="scale(1 1) rotate(0) translate(4 406)">
<polygon fill="white" stroke="transparent" points="-4,4 -4,-406 1368.1,-406 1368.1,4 -4,4"/>
<!-- n1 -->
<g id="node1" class="node">
<title>n1</title>
<polygon fill="lightblue" stroke="black" points="911.5,-384 781.25,-402 520.75,-402 390.5,-384 520.75,-366 781.25,-366 911.5,-384"/>
<text text-anchor="middle" x="651" y="-380.3" font-family="Arial" font-size="14.00">Draw two habitats and the different living things in each</text>
</g>
<!-- n2 -->
<g id="node2" class="node">
<title>n2</title>
<polygon fill="#fffdd0" stroke="black" points="554,-280 360,-280 360,-244 554,-244 554,-280"/>
<text text-anchor="middle" x="457" y="-258.3" font-family="Arial" font-size="14.00">Green patch with cat and dog</text>
</g>
<!-- n1&#45;&gt;n2 -->
<g id="edge1" class="edge">
<title>n1&#45;&gt;n2</title>
<path fill="none" stroke="black" d="M623.2,-365.81C589.06,-344.69 531.05,-308.81 493.39,-285.51"/>
<polygon fill="black" stroke="black" points="495.09,-282.44 484.74,-280.16 491.4,-288.4 495.09,-282.44"/>
</g>
<!-- n3 -->
<g id="node3" class="node">
<title>n3</title>
<polygon fill="#fffdd0" stroke="black" points="908.5,-280 783.5,-280 783.5,-244 908.5,-244 908.5,-280"/>
<text text-anchor="middle" x="846" y="-258.3" font-family="Arial" font-size="14.00">Blue blob with fish</text>
</g>
<!-- n1&#45;&gt;n3 -->
<g id="edge2" class="edge">
<title>n1&#45;&gt;n3</title>
<path fill="none" stroke="black" d="M678.94,-365.81C713.26,-344.69 771.57,-308.81 809.43,-285.51"/>
<polygon fill="black" stroke="black" points="811.43,-288.39 818.11,-280.16 807.76,-282.43 811.43,-288.39"/>
</g>
<!-- n4 -->
<g id="node4" class="node">
<title>n4</title>
<path fill="palegreen" stroke="black" d="M132,-158C132,-158 12,-158 12,-158 6,-158 0,-152 0,-146 0,-146 0,-134 0,-134 0,-128 6,-122 12,-122 12,-122 132,-122 132,-122 138,-122 144,-128 144,-134 144,-134 144,-146 144,-146 144,-152 138,-158 132,-158"/>
<text text-anchor="middle" x="72" y="-136.3" font-family="Arial" font-size="14.00">Identifies land habitat</text>
</g>
<!-- n2&#45;&gt;n4 -->
<g id="edge3" class="edge">
<title>n2&#45;&gt;n4</title>
<path fill="none" stroke="black" d="M402.25,-243.93C332.11,-222.07 210.75,-184.25 136.3,-161.04"/>
<polygon fill="black" stroke="black" points="137.15,-157.64 126.56,-158.01 135.07,-164.32 137.15,-157.64"/>
</g>
<!-- n5 -->
<g id="node5" class="node">
<title>n5</title>
<polygon fill="lightcoral" stroke="black" points="457,-158 202.29,-140 457,-122 711.71,-140 457,-158"/>
<text text-anchor="middle" x="457" y="-136.3" font-family="Arial" font-size="14.00">Misplaces animals (cat, dog) in land habitat</text>
</g>
<!-- n2&#45;&gt;n5 -->
<g id="edge4" class="edge">
<title>n2&#45;&gt;n5</title>
<path fill="none" stroke="black" d="M457,-243.81C457,-224.11 457,-191.58 457,-168.39"/>
<polygon fill="black" stroke="black" points="460.5,-168.16 457,-158.16 453.5,-168.16 460.5,-168.16"/>
</g>
<!-- n6 -->
<g id="node6" class="node">
<title>n6</title>
<path fill="palegreen" stroke="black" d="M910,-158C910,-158 782,-158 782,-158 776,-158 770,-152 770,-146 770,-146 770,-134 770,-134 770,-128 776,-122 782,-122 782,-122 910,-122 910,-122 916,-122 922,-128 922,-134 922,-134 922,-146 922,-146 922,-152 916,-158 910,-158"/>
<text text-anchor="middle" x="846" y="-136.3" font-family="Arial" font-size="14.00">Identifies water habitat</text>
</g>
<!-- n3&#45;&gt;n6 -->
<g id="edge5" class="edge">
<title>n3&#45;&gt;n6</title>
<path fill="none" stroke="black" d="M846,-243.81C846,-224.11 846,-191.58 846,-168.39"/>
<polygon fill="black" stroke="black" points="849.5,-168.16 846,-158.16 842.5,-168.16 849.5,-168.16"/>
</g>
<!-- n7 -->
<g id="node7" class="node">
<title>n7</title>
<polygon fill="lightcoral" stroke="black" points="1172,-158 979.79,-140 1172,-122 1364.21,-140 1172,-158"/>
<text text-anchor="middle" x="1172" y="-136.3" font-family="Arial" font-size="14.00">Limited diversity in water habitat</text>
</g>
<!-- n3&#45;&gt;n7 -->
<g id="edge6" class="edge">
<title>n3&#45;&gt;n7</title>
<path fill="none" stroke="black" d="M892.36,-243.93C954.27,-221.15 1063.3,-181.01 1125.4,-158.17"/>
<polygon fill="black" stroke="black" points="1126.73,-161.41 1134.9,-154.66 1124.31,-154.84 1126.73,-161.41"/>
</g>
<!-- n8 -->
<g id="node8" class="node">
<title>n8</title>
<polygon fill="#f28e8e" stroke="black" points="596,-36 318,-36 318,0 596,0 596,-36"/>
<text text-anchor="middle" x="457" y="-14.3" font-family="Arial" font-size="14.00">Include trees, squirrels, ants for land habitat</text>
</g>
<!-- n5&#45;&gt;n8 -->
<g id="edge7" class="edge">
<title>n5&#45;&gt;n8</title>
<path fill="none" stroke="black" d="M457,-121.81C457,-102.11 457,-69.58 457,-46.39"/>
<polygon fill="black" stroke="black" points="460.5,-46.16 457,-36.16 453.5,-46.16 460.5,-46.16"/>
</g>
<!-- n9 -->
<g id="node9" class="node">
<title>n9</title>
<polygon fill="#f28e8e" stroke="black" points="1306.5,-36 1037.5,-36 1037.5,0 1306.5,0 1306.5,-36"/>
<text text-anchor="middle" x="1172" y="-14.3" font-family="Arial" font-size="14.00">Add diverse water life: clams, water plants</text>
</g>
<!-- n7&#45;&gt;n9 -->
<g id="edge8" class="edge">
<title>n7&#45;&gt;n9</title>
<path fill="none" stroke="black" d="M1172,-121.81C1172,-102.11 1172,-69.58 1172,-46.39"/>
<polygon fill="black" stroke="black" points="1175.5,-46.16 1172,-36.16 1168.5,-46.16 1175.5,-46.16"/>
</g>
</g>
</svg>
