<?xml version="1.0" encoding="UTF-8" standalone="no"?>
<!DOCTYPE svg PUBLIC "-//W3C//DTD SVG 1.1//EN"
 "http://www.w3.org/Graphics/SVG/1.1/DTD/svg11.dtd">
<!-- Generated by graphviz version 2.43.0 (0)
 -->
<!-- Pages: 1 -->
<svg width="1999pt" height="410pt"
 viewBox="0.00 0.00 1998.50 410.00" xmlns="http://www.w3.org/2000/svg" xmlns:xlink="http://www.w3.org/1999/xlink">
<g id="graph0" class="graph" transform="scale(1 1) rotate(0) translate(4 406)">
<polygon fill="white" stroke="transparent" points="-4,4 -4,-406 1994.5,-406 1994.5,4 -4,4"/>
<!-- n1 -->
<g id="node1" class="node">
<title>n1</title>
<polygon fill="lightblue" stroke="black" points="1068,-384 976.75,-402 794.25,-402 703,-384 794.25,-366 976.75,-366 1068,-384"/>
<text text-anchor="middle" x="885.5" y="-380.3" font-family="Arial" font-size="14.00">Draw reversible changes (ice melting)</text>
</g>
<!-- n2 -->
<g id="node2" class="node">
<title>n2</title>
<polygon fill="#fffdd0" stroke="black" points="237.5,-280 69.5,-280 69.5,-244 237.5,-244 237.5,-280"/>
<text text-anchor="middle" x="153.5" y="-258.3" font-family="Arial" font-size="14.00">Solid ice drawn with label</text>
</g>
<!-- n1&#45;&gt;n2 -->
<g id="edge1" class="edge">
<title>n1&#45;&gt;n2</title>
<path fill="none" stroke="black" d="M788.67,-367.13C647.66,-344.01 387.42,-301.35 247.83,-278.46"/>
<polygon fill="black" stroke="black" points="248.01,-274.94 237.58,-276.78 246.88,-281.85 248.01,-274.94"/>
</g>
<!-- n3 -->
<g id="node3" class="node">
<title>n3</title>
<polygon fill="#fffdd0" stroke="black" points="548.5,-280 312.5,-280 312.5,-244 548.5,-244 548.5,-280"/>
<text text-anchor="middle" x="430.5" y="-258.3" font-family="Arial" font-size="14.00">Arrow showing ice melting into water</text>
</g>
<!-- n1&#45;&gt;n3 -->
<g id="edge2" class="edge">
<title>n1&#45;&gt;n3</title>
<path fill="none" stroke="black" d="M820.79,-365.93C737.4,-343.94 592.72,-305.78 504.88,-282.62"/>
<polygon fill="black" stroke="black" points="505.54,-279.17 494.98,-280.01 503.76,-285.94 505.54,-279.17"/>
</g>
<!-- n4 -->
<g id="node4" class="node">
<title>n4</title>
<polygon fill="#fffdd0" stroke="black" points="841.5,-280 651.5,-280 651.5,-244 841.5,-244 841.5,-280"/>
<text text-anchor="middle" x="746.5" y="-258.3" font-family="Arial" font-size="14.00">Liquid water drawn with label</text>
</g>
<!-- n1&#45;&gt;n4 -->
<g id="edge3" class="edge">
<title>n1&#45;&gt;n4</title>
<path fill="none" stroke="black" d="M865.58,-365.81C841.53,-345.04 800.96,-310.01 773.95,-286.7"/>
<polygon fill="black" stroke="black" points="776.24,-284.05 766.38,-280.16 771.66,-289.35 776.24,-284.05"/>
</g>
<!-- n5 -->
<g id="node5" class="node">
<title>n5</title>
<polygon fill="#fffdd0" stroke="black" points="1226.5,-280 974.5,-280 974.5,-244 1226.5,-244 1226.5,-280"/>
<text text-anchor="middle" x="1100.5" y="-258.3" font-family="Arial" font-size="14.00">Arrow showing water refreezing into ice</text>
</g>
<!-- n1&#45;&gt;n5 -->
<g id="edge4" class="edge">
<title>n1&#45;&gt;n5</title>
<path fill="none" stroke="black" d="M916.3,-365.81C954.38,-344.55 1019.2,-308.35 1061,-285.07"/>
<polygon fill="black" stroke="black" points="1062.77,-288.09 1069.8,-280.16 1059.36,-281.98 1062.77,-288.09"/>
</g>
<!-- n6 -->
<g id="node6" class="node">
<title>n6</title>
<polygon fill="#fffdd0" stroke="black" points="1601.5,-280 1383.5,-280 1383.5,-244 1601.5,-244 1601.5,-280"/>
<text text-anchor="middle" x="1492.5" y="-258.3" font-family="Arial" font-size="14.00">Ice from freezing drawn with label</text>
</g>
<!-- n1&#45;&gt;n6 -->
<g id="edge5" class="edge">
<title>n1&#45;&gt;n6</title>
<path fill="none" stroke="black" d="M971.5,-366C1083.7,-343.82 1279.4,-305.13 1396.4,-282.01"/>
<polygon fill="black" stroke="black" points="1397.27,-285.41 1406.4,-280.03 1395.91,-278.54 1397.27,-285.41"/>
</g>
<!-- n7 -->
<g id="node7" class="node">
<title>n7</title>
<polygon fill="#fffdd0" stroke="black" points="1953,-280 1716,-280 1716,-244 1953,-244 1953,-280"/>
<text text-anchor="middle" x="1834.5" y="-258.3" font-family="Arial" font-size="14.00">Reversible nature shown with arrows</text>
</g>
<!-- n1&#45;&gt;n7 -->
<g id="edge6" class="edge">
<title>n1&#45;&gt;n7</title>
<path fill="none" stroke="black" d="M993.9,-369.29C1170,-347.03 1517.3,-303.11 1705.7,-279.29"/>
<polygon fill="black" stroke="black" points="1706.22,-282.75 1715.7,-278.03 1705.34,-275.81 1706.22,-282.75"/>
</g>
<!-- n8 -->
<g id="node8" class="node">
<title>n8</title>
<path fill="palegreen" stroke="black" d="M227,-158C227,-158 12,-158 12,-158 6,-158 0,-152 0,-146 0,-146 0,-134 0,-134 0,-128 6,-122 12,-122 12,-122 227,-122 227,-122 233,-122 239,-128 239,-134 239,-134 239,-146 239,-146 239,-152 233,-158 227,-158"/>
<text text-anchor="middle" x="119.5" y="-136.3" font-family="Arial" font-size="14.00">Correctly identifies solid ice and label</text>
</g>
<!-- n2&#45;&gt;n8 -->
<g id="edge7" class="edge">
<title>n2&#45;&gt;n8</title>
<path fill="none" stroke="black" d="M148.63,-243.81C143.02,-224.02 133.75,-191.29 127.17,-168.08"/>
<polygon fill="black" stroke="black" points="130.45,-166.83 124.36,-158.16 123.72,-168.74 130.45,-166.83"/>
</g>
<!-- n9 -->
<g id="node9" class="node">
<title>n9</title>
<path fill="palegreen" stroke="black" d="M519.5,-158C519.5,-158 309.5,-158 309.5,-158 303.5,-158 297.5,-152 297.5,-146 297.5,-146 297.5,-134 297.5,-134 297.5,-128 303.5,-122 309.5,-122 309.5,-122 519.5,-122 519.5,-122 525.5,-122 531.5,-128 531.5,-134 531.5,-134 531.5,-146 531.5,-146 531.5,-152 525.5,-158 519.5,-158"/>
<text text-anchor="middle" x="414.5" y="-136.3" font-family="Arial" font-size="14.00">Correct understanding of ice melting</text>
</g>
<!-- n3&#45;&gt;n9 -->
<g id="edge8" class="edge">
<title>n3&#45;&gt;n9</title>
<path fill="none" stroke="black" d="M428.21,-243.81C425.57,-224.02 421.21,-191.29 418.11,-168.08"/>
<polygon fill="black" stroke="black" points="421.58,-167.61 416.79,-158.16 414.64,-168.53 421.58,-167.61"/>
</g>
<!-- n10 -->
<g id="node10" class="node">
<title>n10</title>
<path fill="palegreen" stroke="black" d="M835.5,-158C835.5,-158 601.5,-158 601.5,-158 595.5,-158 589.5,-152 589.5,-146 589.5,-146 589.5,-134 589.5,-134 589.5,-128 595.5,-122 601.5,-122 601.5,-122 835.5,-122 835.5,-122 841.5,-122 847.5,-128 847.5,-134 847.5,-134 847.5,-146 847.5,-146 847.5,-152 841.5,-158 835.5,-158"/>
<text text-anchor="middle" x="718.5" y="-136.3" font-family="Arial" font-size="14.00">Correctly identifies liquid water and label</text>
</g>
<!-- n4&#45;&gt;n10 -->
<g id="edge9" class="edge">
<title>n4&#45;&gt;n10</title>
<path fill="none" stroke="black" d="M742.49,-243.81C737.87,-224.02 730.23,-191.29 724.82,-168.08"/>
<polygon fill="black" stroke="black" points="728.19,-167.1 722.5,-158.16 721.37,-168.69 728.19,-167.1"/>
</g>
<!-- n11 -->
<g id="node11" class="node">
<title>n11</title>
<polygon fill="lightcoral" stroke="black" points="1148.5,-158 905.68,-140 1148.5,-122 1391.32,-140 1148.5,-158"/>
<text text-anchor="middle" x="1148.5" y="-136.3" font-family="Arial" font-size="14.00">Slightly unclear refreezing arrow direction</text>
</g>
<!-- n5&#45;&gt;n11 -->
<g id="edge10" class="edge">
<title>n5&#45;&gt;n11</title>
<path fill="none" stroke="black" d="M1107.4,-243.81C1115.4,-223.82 1128.7,-190.62 1138,-167.37"/>
<polygon fill="black" stroke="black" points="1141.37,-168.36 1141.8,-157.77 1134.87,-165.78 1141.37,-168.36"/>
</g>
<!-- n12 -->
<g id="node12" class="node">
<title>n12</title>
<path fill="palegreen" stroke="black" d="M1666,-158C1666,-158 1461,-158 1461,-158 1455,-158 1449,-152 1449,-146 1449,-146 1449,-134 1449,-134 1449,-128 1455,-122 1461,-122 1461,-122 1666,-122 1666,-122 1672,-122 1678,-128 1678,-134 1678,-134 1678,-146 1678,-146 1678,-152 1672,-158 1666,-158"/>
<text text-anchor="middle" x="1563.5" y="-136.3" font-family="Arial" font-size="14.00">Correctly shows ice from refreezing</text>
</g>
<!-- n6&#45;&gt;n12 -->
<g id="edge11" class="edge">
<title>n6&#45;&gt;n12</title>
<path fill="none" stroke="black" d="M1502.7,-243.81C1514.6,-223.67 1534.4,-190.1 1548.2,-166.83"/>
<polygon fill="black" stroke="black" points="1551.25,-168.55 1553.3,-158.16 1545.21,-165 1551.25,-168.55"/>
</g>
<!-- n13 -->
<g id="node13" class="node">
<title>n13</title>
<path fill="palegreen" stroke="black" d="M1978.5,-158C1978.5,-158 1748.5,-158 1748.5,-158 1742.5,-158 1736.5,-152 1736.5,-146 1736.5,-146 1736.5,-134 1736.5,-134 1736.5,-128 1742.5,-122 1748.5,-122 1748.5,-122 1978.5,-122 1978.5,-122 1984.5,-122 1990.5,-128 1990.5,-134 1990.5,-134 1990.5,-146 1990.5,-146 1990.5,-152 1984.5,-158 1978.5,-158"/>
<text text-anchor="middle" x="1863.5" y="-136.3" font-family="Arial" font-size="14.00">Understands reversible change concept</text>
</g>
<!-- n7&#45;&gt;n13 -->
<g id="edge12" class="edge">
<title>n7&#45;&gt;n13</title>
<path fill="none" stroke="black" d="M1838.7,-243.81C1843.4,-224.02 1851.3,-191.29 1857,-168.08"/>
<polygon fill="black" stroke="black" points="1860.45,-168.7 1859.4,-158.16 1853.65,-167.06 1860.45,-168.7"/>
</g>
<!-- n14 -->
<g id="node14" class="node">
<title>n14</title>
<polygon fill="#f28e8e" stroke="black" points="1318.5,-36 978.5,-36 978.5,0 1318.5,0 1318.5,-36"/>
<text text-anchor="middle" x="1148.5" y="-14.3" font-family="Arial" font-size="14.00">Consider adding temperature labels to clarify changes</text>
</g>
<!-- n11&#45;&gt;n14 -->
<g id="edge13" class="edge">
<title>n11&#45;&gt;n14</title>
<path fill="none" stroke="black" d="M1148.5,-121.81C1148.5,-102.11 1148.5,-69.58 1148.5,-46.39"/>
<polygon fill="black" stroke="black" points="1152,-46.16 1148.5,-36.16 1145,-46.16 1152,-46.16"/>
</g>
</g>
</svg>
