<?xml version="1.0" encoding="UTF-8" standalone="no"?>
<!DOCTYPE svg PUBLIC "-//W3C//DTD SVG 1.1//EN"
 "http://www.w3.org/Graphics/SVG/1.1/DTD/svg11.dtd">
<!-- Generated by graphviz version 2.43.0 (0)
 -->
<!-- Pages: 1 -->
<svg width="1610pt" height="410pt"
 viewBox="0.00 0.00 1609.57 410.00" xmlns="http://www.w3.org/2000/svg" xmlns:xlink="http://www.w3.org/1999/xlink">
<g id="graph0" class="graph" transform="scale(1 1) rotate(0) translate(4 406)">
<polygon fill="white" stroke="transparent" points="-4,4 -4,-406 1605.57,-406 1605.57,4 -4,4"/>
<!-- n1 -->
<g id="node1" class="node">
<title>n1</title>
<polygon fill="lightblue" stroke="black" points="964.37,-384 821.69,-402 536.31,-402 393.63,-384 536.31,-366 821.69,-366 964.37,-384"/>
<text text-anchor="middle" x="679" y="-380.3" font-family="Arial" font-size="14.00">Draw animals in their habitats with labels (e.g., fish in water).</text>
</g>
<!-- n2 -->
<g id="node2" class="node">
<title>n2</title>
<polygon fill="#fffdd0" stroke="black" points="318,-280 0,-280 0,-244 318,-244 318,-280"/>
<text text-anchor="middle" x="159" y="-258.3" font-family="Arial" font-size="14.00">Simple fish shape with round body and triangle tail</text>
</g>
<!-- n1&#45;&gt;n2 -->
<g id="edge1" class="edge">
<title>n1&#45;&gt;n2</title>
<path fill="none" stroke="black" d="M605.32,-366C509.61,-343.91 342.92,-305.44 242.58,-282.29"/>
<polygon fill="black" stroke="black" points="243.31,-278.87 232.78,-280.03 241.74,-285.69 243.31,-278.87"/>
</g>
<!-- n3 -->
<g id="node3" class="node">
<title>n3</title>
<polygon fill="#fffdd0" stroke="black" points="594.5,-280 409.5,-280 409.5,-244 594.5,-244 594.5,-280"/>
<text text-anchor="middle" x="502" y="-258.3" font-family="Arial" font-size="14.00">Blue squiggly lines for water</text>
</g>
<!-- n1&#45;&gt;n3 -->
<g id="edge2" class="edge">
<title>n1&#45;&gt;n3</title>
<path fill="none" stroke="black" d="M653.64,-365.81C622.62,-344.78 570.01,-309.11 535.63,-285.8"/>
<polygon fill="black" stroke="black" points="537.55,-282.87 527.31,-280.16 533.62,-288.67 537.55,-282.87"/>
</g>
<!-- n4 -->
<g id="node4" class="node">
<title>n4</title>
<polygon fill="#fffdd0" stroke="black" points="1003.5,-280 708.5,-280 708.5,-244 1003.5,-244 1003.5,-280"/>
<text text-anchor="middle" x="856" y="-258.3" font-family="Arial" font-size="14.00">Simple tree with brown trunk and green leaves</text>
</g>
<!-- n1&#45;&gt;n4 -->
<g id="edge3" class="edge">
<title>n1&#45;&gt;n4</title>
<path fill="none" stroke="black" d="M704.36,-365.81C735.38,-344.78 787.99,-309.11 822.37,-285.8"/>
<polygon fill="black" stroke="black" points="824.38,-288.67 830.69,-280.16 820.45,-282.87 824.38,-288.67"/>
</g>
<!-- n5 -->
<g id="node5" class="node">
<title>n5</title>
<polygon fill="#fffdd0" stroke="black" points="1353.5,-280 1240.5,-280 1240.5,-244 1353.5,-244 1353.5,-280"/>
<text text-anchor="middle" x="1297" y="-258.3" font-family="Arial" font-size="14.00">Label &#39;fish&#39; used</text>
</g>
<!-- n1&#45;&gt;n5 -->
<g id="edge4" class="edge">
<title>n1&#45;&gt;n5</title>
<path fill="none" stroke="black" d="M766.56,-366C891.49,-341.74 1118.1,-297.73 1230.4,-275.94"/>
<polygon fill="black" stroke="black" points="1231.05,-279.38 1240.2,-274.03 1229.72,-272.51 1231.05,-279.38"/>
</g>
<!-- n6 -->
<g id="node6" class="node">
<title>n6</title>
<path fill="palegreen" stroke="black" d="M290.5,-158C290.5,-158 15.5,-158 15.5,-158 9.5,-158 3.5,-152 3.5,-146 3.5,-146 3.5,-134 3.5,-134 3.5,-128 9.5,-122 15.5,-122 15.5,-122 290.5,-122 290.5,-122 296.5,-122 302.5,-128 302.5,-134 302.5,-134 302.5,-146 302.5,-146 302.5,-152 296.5,-158 290.5,-158"/>
<text text-anchor="middle" x="153" y="-136.3" font-family="Arial" font-size="14.00">Understands basic shape representation of fish</text>
</g>
<!-- n2&#45;&gt;n6 -->
<g id="edge5" class="edge">
<title>n2&#45;&gt;n6</title>
<path fill="none" stroke="black" d="M158.14,-243.81C157.16,-224.11 155.53,-191.58 154.37,-168.39"/>
<polygon fill="black" stroke="black" points="157.85,-167.97 153.86,-158.16 150.86,-168.32 157.85,-167.97"/>
</g>
<!-- n7 -->
<g id="node7" class="node">
<title>n7</title>
<path fill="palegreen" stroke="black" d="M575.5,-158C575.5,-158 372.5,-158 372.5,-158 366.5,-158 360.5,-152 360.5,-146 360.5,-146 360.5,-134 360.5,-134 360.5,-128 366.5,-122 372.5,-122 372.5,-122 575.5,-122 575.5,-122 581.5,-122 587.5,-128 587.5,-134 587.5,-134 587.5,-146 587.5,-146 587.5,-152 581.5,-158 575.5,-158"/>
<text text-anchor="middle" x="474" y="-136.3" font-family="Arial" font-size="14.00">Attempts to represent water habitat</text>
</g>
<!-- n3&#45;&gt;n7 -->
<g id="edge6" class="edge">
<title>n3&#45;&gt;n7</title>
<path fill="none" stroke="black" d="M497.99,-243.81C493.37,-224.02 485.73,-191.29 480.32,-168.08"/>
<polygon fill="black" stroke="black" points="483.69,-167.1 478,-158.16 476.87,-168.69 483.69,-167.1"/>
</g>
<!-- n8 -->
<g id="node8" class="node">
<title>n8</title>
<polygon fill="lightcoral" stroke="black" points="885,-158 645,-140 885,-122 1125,-140 885,-158"/>
<text text-anchor="middle" x="885" y="-136.3" font-family="Arial" font-size="14.00">Misconception: Tree placement near fish</text>
</g>
<!-- n4&#45;&gt;n8 -->
<g id="edge7" class="edge">
<title>n4&#45;&gt;n8</title>
<path fill="none" stroke="black" d="M860.15,-243.81C864.96,-223.91 872.94,-190.92 878.55,-167.68"/>
<polygon fill="black" stroke="black" points="882,-168.31 880.95,-157.77 875.19,-166.67 882,-168.31"/>
</g>
<!-- n9 -->
<g id="node9" class="node">
<title>n9</title>
<polygon fill="lightcoral" stroke="black" points="1392,-158 1182.36,-140 1392,-122 1601.64,-140 1392,-158"/>
<text text-anchor="middle" x="1392" y="-136.3" font-family="Arial" font-size="14.00">Misconception: Incomplete labeling</text>
</g>
<!-- n5&#45;&gt;n9 -->
<g id="edge8" class="edge">
<title>n5&#45;&gt;n9</title>
<path fill="none" stroke="black" d="M1310.6,-243.81C1327,-223.14 1354.5,-188.35 1373,-165.03"/>
<polygon fill="black" stroke="black" points="1375.87,-167.04 1379.3,-157.01 1370.37,-162.71 1375.87,-167.04"/>
</g>
<!-- n10 -->
<g id="node10" class="node">
<title>n10</title>
<polygon fill="#f28e8e" stroke="black" points="1082,-36 688,-36 688,0 1082,0 1082,-36"/>
<text text-anchor="middle" x="885" y="-14.3" font-family="Arial" font-size="14.00">Clarify animal&#45;specific habitats; fish live in water, not with trees.</text>
</g>
<!-- n8&#45;&gt;n10 -->
<g id="edge9" class="edge">
<title>n8&#45;&gt;n10</title>
<path fill="none" stroke="black" d="M885,-121.81C885,-102.11 885,-69.58 885,-46.39"/>
<polygon fill="black" stroke="black" points="888.5,-46.16 885,-36.16 881.5,-46.16 888.5,-46.16"/>
</g>
<!-- n11 -->
<g id="node11" class="node">
<title>n11</title>
<polygon fill="#f28e8e" stroke="black" points="1526,-36 1258,-36 1258,0 1526,0 1526,-36"/>
<text text-anchor="middle" x="1392" y="-14.3" font-family="Arial" font-size="14.00">Label all parts; e.g., label water as &#39;water&#39;.</text>
</g>
<!-- n9&#45;&gt;n11 -->
<g id="edge10" class="edge">
<title>n9&#45;&gt;n11</title>
<path fill="none" stroke="black" d="M1392,-121.81C1392,-102.11 1392,-69.58 1392,-46.39"/>
<polygon fill="black" stroke="black" points="1395.5,-46.16 1392,-36.16 1388.5,-46.16 1395.5,-46.16"/>
</g>
</g>
</svg>
