<?xml version="1.0" encoding="UTF-8" standalone="no"?>
<!DOCTYPE svg PUBLIC "-//W3C//DTD SVG 1.1//EN"
 "http://www.w3.org/Graphics/SVG/1.1/DTD/svg11.dtd">
<!-- Generated by graphviz version 2.43.0 (0)
 -->
<!-- Pages: 1 -->
<svg width="983pt" height="410pt"
 viewBox="0.00 0.00 982.68 410.00" xmlns="http://www.w3.org/2000/svg" xmlns:xlink="http://www.w3.org/1999/xlink">
<g id="graph0" class="graph" transform="scale(1 1) rotate(0) translate(4 406)">
<polygon fill="white" stroke="transparent" points="-4,4 -4,-406 978.68,-406 978.68,4 -4,4"/>
<!-- n1 -->
<g id="node1" class="node">
<title>n1</title>
<polygon fill="lightblue" stroke="black" points="606,-384 494.5,-402 271.5,-402 160,-384 271.5,-366 494.5,-366 606,-384"/>
<text text-anchor="middle" x="383" y="-380.3" font-family="Arial" font-size="14.00">Draw a string telephone between two students.</text>
</g>
<!-- n2 -->
<g id="node2" class="node">
<title>n2</title>
<polygon fill="#fffdd0" stroke="black" points="216,-280 52,-280 52,-244 216,-244 216,-280"/>
<text text-anchor="middle" x="134" y="-258.3" font-family="Arial" font-size="14.00">Two stick figure students</text>
</g>
<!-- n1&#45;&gt;n2 -->
<g id="edge1" class="edge">
<title>n1&#45;&gt;n2</title>
<path fill="none" stroke="black" d="M347.59,-365.93C303.15,-344.52 226.93,-307.78 178.57,-284.48"/>
<polygon fill="black" stroke="black" points="179.82,-281.2 169.29,-280.01 176.78,-287.5 179.82,-281.2"/>
</g>
<!-- n3 -->
<g id="node3" class="node">
<title>n3</title>
<polygon fill="#fffdd0" stroke="black" points="474,-280 292,-280 292,-244 474,-244 474,-280"/>
<text text-anchor="middle" x="383" y="-258.3" font-family="Arial" font-size="14.00">Oval&#45;shaped objects (cups)</text>
</g>
<!-- n1&#45;&gt;n3 -->
<g id="edge2" class="edge">
<title>n1&#45;&gt;n3</title>
<path fill="none" stroke="black" d="M383,-365.81C383,-346.11 383,-313.58 383,-290.39"/>
<polygon fill="black" stroke="black" points="386.5,-290.16 383,-280.16 379.5,-290.16 386.5,-290.16"/>
</g>
<!-- n4 -->
<g id="node4" class="node">
<title>n4</title>
<polygon fill="#fffdd0" stroke="black" points="804.5,-280 589.5,-280 589.5,-244 804.5,-244 804.5,-280"/>
<text text-anchor="middle" x="697" y="-258.3" font-family="Arial" font-size="14.00">Thin line connecting cups (string)</text>
</g>
<!-- n1&#45;&gt;n4 -->
<g id="edge3" class="edge">
<title>n1&#45;&gt;n4</title>
<path fill="none" stroke="black" d="M427.66,-365.93C484.39,-344.25 582.22,-306.86 643.06,-283.61"/>
<polygon fill="black" stroke="black" points="644.4,-286.84 652.5,-280.01 641.91,-280.3 644.4,-286.84"/>
</g>
<!-- n5 -->
<g id="node5" class="node">
<title>n5</title>
<path fill="palegreen" stroke="black" d="M218,-158C218,-158 12,-158 12,-158 6,-158 0,-152 0,-146 0,-146 0,-134 0,-134 0,-128 6,-122 12,-122 12,-122 218,-122 218,-122 224,-122 230,-128 230,-134 230,-134 230,-146 230,-146 230,-152 224,-158 218,-158"/>
<text text-anchor="middle" x="115" y="-136.3" font-family="Arial" font-size="14.00">Two students need to communicate</text>
</g>
<!-- n2&#45;&gt;n5 -->
<g id="edge4" class="edge">
<title>n2&#45;&gt;n5</title>
<path fill="none" stroke="black" d="M131.28,-243.81C128.15,-224.02 122.96,-191.29 119.29,-168.08"/>
<polygon fill="black" stroke="black" points="122.74,-167.49 117.72,-158.16 115.83,-168.58 122.74,-167.49"/>
</g>
<!-- n6 -->
<g id="node6" class="node">
<title>n6</title>
<path fill="palegreen" stroke="black" d="M465.5,-158C465.5,-158 300.5,-158 300.5,-158 294.5,-158 288.5,-152 288.5,-146 288.5,-146 288.5,-134 288.5,-134 288.5,-128 294.5,-122 300.5,-122 300.5,-122 465.5,-122 465.5,-122 471.5,-122 477.5,-128 477.5,-134 477.5,-134 477.5,-146 477.5,-146 477.5,-152 471.5,-158 465.5,-158"/>
<text text-anchor="middle" x="383" y="-136.3" font-family="Arial" font-size="14.00">Cups used to transmit sound</text>
</g>
<!-- n3&#45;&gt;n6 -->
<g id="edge5" class="edge">
<title>n3&#45;&gt;n6</title>
<path fill="none" stroke="black" d="M383,-243.81C383,-224.11 383,-191.58 383,-168.39"/>
<polygon fill="black" stroke="black" points="386.5,-168.16 383,-158.16 379.5,-168.16 386.5,-168.16"/>
</g>
<!-- n7 -->
<g id="node7" class="node">
<title>n7</title>
<polygon fill="lightcoral" stroke="black" points="755,-158 535.14,-140 755,-122 974.86,-140 755,-158"/>
<text text-anchor="middle" x="755" y="-136.3" font-family="Arial" font-size="14.00">String connects cups for sound travel</text>
</g>
<!-- n4&#45;&gt;n7 -->
<g id="edge6" class="edge">
<title>n4&#45;&gt;n7</title>
<path fill="none" stroke="black" d="M705.31,-243.81C715.07,-223.62 731.34,-189.94 742.6,-166.66"/>
<polygon fill="black" stroke="black" points="745.88,-167.92 747.08,-157.39 739.58,-164.87 745.88,-167.92"/>
</g>
<!-- n8 -->
<g id="node8" class="node">
<title>n8</title>
<polygon fill="#f28e8e" stroke="black" points="915,-36 595,-36 595,0 915,0 915,-36"/>
<text text-anchor="middle" x="755" y="-14.3" font-family="Arial" font-size="14.00">Struggles to show how sound travels over distance</text>
</g>
<!-- n7&#45;&gt;n8 -->
<g id="edge7" class="edge">
<title>n7&#45;&gt;n8</title>
<path fill="none" stroke="black" d="M755,-121.81C755,-102.11 755,-69.58 755,-46.39"/>
<polygon fill="black" stroke="black" points="758.5,-46.16 755,-36.16 751.5,-46.16 758.5,-46.16"/>
</g>
</g>
</svg>
