<?xml version="1.0" encoding="UTF-8" standalone="no"?>
<!DOCTYPE svg PUBLIC "-//W3C//DTD SVG 1.1//EN"
 "http://www.w3.org/Graphics/SVG/1.1/DTD/svg11.dtd">
<!-- Generated by graphviz version 2.43.0 (0)
 -->
<!-- Pages: 1 -->
<svg width="1288pt" height="410pt"
 viewBox="0.00 0.00 1288.00 410.00" xmlns="http://www.w3.org/2000/svg" xmlns:xlink="http://www.w3.org/1999/xlink">
<g id="graph0" class="graph" transform="scale(1 1) rotate(0) translate(4 406)">
<polygon fill="white" stroke="transparent" points="-4,4 -4,-406 1284,-406 1284,4 -4,4"/>
<!-- n1 -->
<g id="node1" class="node">
<title>n1</title>
<polygon fill="lightblue" stroke="black" points="843.5,-384 732,-402 509,-402 397.5,-384 509,-366 732,-366 843.5,-384"/>
<text text-anchor="middle" x="620.5" y="-380.3" font-family="Arial" font-size="14.00">Draw a string telephone between two students.</text>
</g>
<!-- n2 -->
<g id="node2" class="node">
<title>n2</title>
<polygon fill="#fffdd0" stroke="black" points="264.5,-280 82.5,-280 82.5,-244 264.5,-244 264.5,-280"/>
<text text-anchor="middle" x="173.5" y="-258.3" font-family="Arial" font-size="14.00">Two children standing apart</text>
</g>
<!-- n1&#45;&gt;n2 -->
<g id="edge1" class="edge">
<title>n1&#45;&gt;n2</title>
<path fill="none" stroke="black" d="M556.93,-365.93C475,-343.94 332.87,-305.78 246.57,-282.62"/>
<polygon fill="black" stroke="black" points="247.42,-279.22 236.85,-280.01 245.6,-285.98 247.42,-279.22"/>
</g>
<!-- n3 -->
<g id="node3" class="node">
<title>n3</title>
<polygon fill="#fffdd0" stroke="black" points="560.5,-280 388.5,-280 388.5,-244 560.5,-244 560.5,-280"/>
<text text-anchor="middle" x="474.5" y="-258.3" font-family="Arial" font-size="14.00">Strings connected to cups</text>
</g>
<!-- n1&#45;&gt;n3 -->
<g id="edge2" class="edge">
<title>n1&#45;&gt;n3</title>
<path fill="none" stroke="black" d="M599.58,-365.81C574.32,-345.04 531.7,-310.01 503.33,-286.7"/>
<polygon fill="black" stroke="black" points="505.33,-283.81 495.38,-280.16 500.88,-289.22 505.33,-283.81"/>
</g>
<!-- n4 -->
<g id="node4" class="node">
<title>n4</title>
<polygon fill="#fffdd0" stroke="black" points="856.5,-280 678.5,-280 678.5,-244 856.5,-244 856.5,-280"/>
<text text-anchor="middle" x="767.5" y="-258.3" font-family="Arial" font-size="14.00">Wavy lines along the string</text>
</g>
<!-- n1&#45;&gt;n4 -->
<g id="edge3" class="edge">
<title>n1&#45;&gt;n4</title>
<path fill="none" stroke="black" d="M641.56,-365.81C667,-345.04 709.91,-310.01 738.47,-286.7"/>
<polygon fill="black" stroke="black" points="740.95,-289.2 746.48,-280.16 736.52,-283.77 740.95,-289.2"/>
</g>
<!-- n5 -->
<g id="node5" class="node">
<title>n5</title>
<polygon fill="#fffdd0" stroke="black" points="1224.5,-280 1034.5,-280 1034.5,-244 1224.5,-244 1224.5,-280"/>
<text text-anchor="middle" x="1129.5" y="-258.3" font-family="Arial" font-size="14.00">Happy faces and grassy field</text>
</g>
<!-- n1&#45;&gt;n5 -->
<g id="edge4" class="edge">
<title>n1&#45;&gt;n5</title>
<path fill="none" stroke="black" d="M692.62,-366C786.21,-343.93 949.14,-305.52 1047.4,-282.36"/>
<polygon fill="black" stroke="black" points="1048.37,-285.73 1057.3,-280.03 1046.76,-278.91 1048.37,-285.73"/>
</g>
<!-- n6 -->
<g id="node6" class="node">
<title>n6</title>
<path fill="palegreen" stroke="black" d="M263,-158C263,-158 12,-158 12,-158 6,-158 0,-152 0,-146 0,-146 0,-134 0,-134 0,-128 6,-122 12,-122 12,-122 263,-122 263,-122 269,-122 275,-128 275,-134 275,-134 275,-146 275,-146 275,-152 269,-158 263,-158"/>
<text text-anchor="middle" x="137.5" y="-136.3" font-family="Arial" font-size="14.00">Shows need to communicate over distance</text>
</g>
<!-- n2&#45;&gt;n6 -->
<g id="edge5" class="edge">
<title>n2&#45;&gt;n6</title>
<path fill="none" stroke="black" d="M168.34,-243.81C162.38,-223.94 152.5,-190.99 145.53,-167.76"/>
<polygon fill="black" stroke="black" points="148.88,-166.73 142.65,-158.16 142.17,-168.74 148.88,-166.73"/>
</g>
<!-- n7 -->
<g id="node7" class="node">
<title>n7</title>
<path fill="palegreen" stroke="black" d="M544,-158C544,-158 345,-158 345,-158 339,-158 333,-152 333,-146 333,-146 333,-134 333,-134 333,-128 339,-122 345,-122 345,-122 544,-122 544,-122 550,-122 556,-128 556,-134 556,-134 556,-146 556,-146 556,-152 550,-158 544,-158"/>
<text text-anchor="middle" x="444.5" y="-136.3" font-family="Arial" font-size="14.00">Demonstrates string carries sound</text>
</g>
<!-- n3&#45;&gt;n7 -->
<g id="edge6" class="edge">
<title>n3&#45;&gt;n7</title>
<path fill="none" stroke="black" d="M470.2,-243.81C465.26,-224.02 457.07,-191.29 451.27,-168.08"/>
<polygon fill="black" stroke="black" points="454.61,-167.01 448.79,-158.16 447.82,-168.71 454.61,-167.01"/>
</g>
<!-- n8 -->
<g id="node8" class="node">
<title>n8</title>
<polygon fill="lightcoral" stroke="black" points="798.5,-158 613.5,-140 798.5,-122 983.5,-140 798.5,-158"/>
<text text-anchor="middle" x="798.5" y="-136.3" font-family="Arial" font-size="14.00">Lacks clarity of sound direction</text>
</g>
<!-- n4&#45;&gt;n8 -->
<g id="edge7" class="edge">
<title>n4&#45;&gt;n8</title>
<path fill="none" stroke="black" d="M771.94,-243.81C777.08,-223.91 785.61,-190.92 791.61,-167.68"/>
<polygon fill="black" stroke="black" points="795.06,-168.33 794.17,-157.77 788.28,-166.58 795.06,-168.33"/>
</g>
<!-- n9 -->
<g id="node9" class="node">
<title>n9</title>
<path fill="palegreen" stroke="black" d="M1268,-158C1268,-158 1053,-158 1053,-158 1047,-158 1041,-152 1041,-146 1041,-146 1041,-134 1041,-134 1041,-128 1047,-122 1053,-122 1053,-122 1268,-122 1268,-122 1274,-122 1280,-128 1280,-134 1280,-134 1280,-146 1280,-146 1280,-152 1274,-158 1268,-158"/>
<text text-anchor="middle" x="1160.5" y="-136.3" font-family="Arial" font-size="14.00">Conveys a positive interaction setting</text>
</g>
<!-- n5&#45;&gt;n9 -->
<g id="edge8" class="edge">
<title>n5&#45;&gt;n9</title>
<path fill="none" stroke="black" d="M1133.9,-243.81C1139.1,-224.02 1147.5,-191.29 1153.5,-168.08"/>
<polygon fill="black" stroke="black" points="1156.95,-168.72 1156.1,-158.16 1150.18,-166.95 1156.95,-168.72"/>
</g>
<!-- n10 -->
<g id="node10" class="node">
<title>n10</title>
<polygon fill="#f28e8e" stroke="black" points="942,-36 655,-36 655,0 942,0 942,-36"/>
<text text-anchor="middle" x="798.5" y="-14.3" font-family="Arial" font-size="14.00">Consider adding arrows to show sound travel</text>
</g>
<!-- n8&#45;&gt;n10 -->
<g id="edge9" class="edge">
<title>n8&#45;&gt;n10</title>
<path fill="none" stroke="black" d="M798.5,-121.81C798.5,-102.11 798.5,-69.58 798.5,-46.39"/>
<polygon fill="black" stroke="black" points="802,-46.16 798.5,-36.16 795,-46.16 802,-46.16"/>
</g>
</g>
</svg>
