<?xml version="1.0" encoding="UTF-8" standalone="no"?>
<!DOCTYPE svg PUBLIC "-//W3C//DTD SVG 1.1//EN"
 "http://www.w3.org/Graphics/SVG/1.1/DTD/svg11.dtd">
<!-- Generated by graphviz version 2.43.0 (0)
 -->
<!-- Pages: 1 -->
<svg width="1454pt" height="410pt"
 viewBox="0.00 0.00 1453.70 410.00" xmlns="http://www.w3.org/2000/svg" xmlns:xlink="http://www.w3.org/1999/xlink">
<g id="graph0" class="graph" transform="scale(1 1) rotate(0) translate(4 406)">
<polygon fill="white" stroke="transparent" points="-4,4 -4,-406 1449.7,-406 1449.7,4 -4,4"/>
<!-- n1 -->
<g id="node1" class="node">
<title>n1</title>
<polygon fill="lightblue" stroke="black" points="589,-384 479,-402 259,-402 149,-384 259,-366 479,-366 589,-384"/>
<text text-anchor="middle" x="369" y="-380.3" font-family="Arial" font-size="14.00">Draw a string telephone between two students</text>
</g>
<!-- n2 -->
<g id="node2" class="node">
<title>n2</title>
<polygon fill="#fffdd0" stroke="black" points="347,-280 97,-280 97,-244 347,-244 347,-280"/>
<text text-anchor="middle" x="222" y="-258.3" font-family="Arial" font-size="14.00">Two stick figures representing students</text>
</g>
<!-- n1&#45;&gt;n2 -->
<g id="edge1" class="edge">
<title>n1&#45;&gt;n2</title>
<path fill="none" stroke="black" d="M347.94,-365.81C322.5,-345.04 279.59,-310.01 251.03,-286.7"/>
<polygon fill="black" stroke="black" points="252.98,-283.77 243.02,-280.16 248.55,-289.2 252.98,-283.77"/>
</g>
<!-- n3 -->
<g id="node3" class="node">
<title>n3</title>
<polygon fill="#fffdd0" stroke="black" points="699,-280 475,-280 475,-244 699,-244 699,-280"/>
<text text-anchor="middle" x="587" y="-258.3" font-family="Arial" font-size="14.00">A straight line representing a string</text>
</g>
<!-- n1&#45;&gt;n3 -->
<g id="edge2" class="edge">
<title>n1&#45;&gt;n3</title>
<path fill="none" stroke="black" d="M400.23,-365.81C438.84,-344.55 504.61,-308.35 546.91,-285.07"/>
<polygon fill="black" stroke="black" points="548.75,-288.05 555.82,-280.16 545.37,-281.92 548.75,-288.05"/>
</g>
<!-- n4 -->
<g id="node4" class="node">
<title>n4</title>
<path fill="palegreen" stroke="black" d="M292,-158C292,-158 12,-158 12,-158 6,-158 0,-152 0,-146 0,-146 0,-134 0,-134 0,-128 6,-122 12,-122 12,-122 292,-122 292,-122 298,-122 304,-128 304,-134 304,-134 304,-146 304,-146 304,-152 298,-158 292,-158"/>
<text text-anchor="middle" x="152" y="-136.3" font-family="Arial" font-size="14.00">Basic understanding of a communication device</text>
</g>
<!-- n2&#45;&gt;n4 -->
<g id="edge3" class="edge">
<title>n2&#45;&gt;n4</title>
<path fill="none" stroke="black" d="M211.97,-243.81C200.22,-223.67 180.64,-190.1 167.07,-166.83"/>
<polygon fill="black" stroke="black" points="170.07,-165.03 162.01,-158.16 164.03,-168.56 170.07,-165.03"/>
</g>
<!-- n5 -->
<g id="node5" class="node">
<title>n5</title>
<polygon fill="lightcoral" stroke="black" points="587,-158 361.61,-140 587,-122 812.39,-140 587,-158"/>
<text text-anchor="middle" x="587" y="-136.3" font-family="Arial" font-size="14.00">Misunderstanding sound transmission</text>
</g>
<!-- n3&#45;&gt;n5 -->
<g id="edge4" class="edge">
<title>n3&#45;&gt;n5</title>
<path fill="none" stroke="black" d="M587,-243.81C587,-224.11 587,-191.58 587,-168.39"/>
<polygon fill="black" stroke="black" points="590.5,-168.16 587,-158.16 583.5,-168.16 590.5,-168.16"/>
</g>
<!-- n6 -->
<g id="node6" class="node">
<title>n6</title>
<polygon fill="lightcoral" stroke="black" points="1158,-158 870.11,-140 1158,-122 1445.89,-140 1158,-158"/>
<text text-anchor="middle" x="1158" y="-136.3" font-family="Arial" font-size="14.00">No depiction of materials used or sound functions</text>
</g>
<!-- n3&#45;&gt;n6 -->
<g id="edge5" class="edge">
<title>n3&#45;&gt;n6</title>
<path fill="none" stroke="black" d="M667.9,-244C779.37,-220.57 978.5,-178.72 1085.4,-156.26"/>
<polygon fill="black" stroke="black" points="1086.43,-159.62 1095.5,-154.14 1084.99,-152.77 1086.43,-159.62"/>
</g>
<!-- n8 -->
<g id="node7" class="node">
<title>n8</title>
<polygon fill="#f28e8e" stroke="black" points="705,-36 469,-36 469,0 705,0 705,-36"/>
<text text-anchor="middle" x="587" y="-14.3" font-family="Arial" font-size="14.00">Demonstrate sound travels via string</text>
</g>
<!-- n5&#45;&gt;n8 -->
<g id="edge6" class="edge">
<title>n5&#45;&gt;n8</title>
<path fill="none" stroke="black" d="M587,-121.81C587,-102.11 587,-69.58 587,-46.39"/>
<polygon fill="black" stroke="black" points="590.5,-46.16 587,-36.16 583.5,-46.16 590.5,-46.16"/>
</g>
<!-- n7 -->
<g id="node8" class="node">
<title>n7</title>
<polygon fill="#f28e8e" stroke="black" points="1268,-36 1048,-36 1048,0 1268,0 1268,-36"/>
<text text-anchor="middle" x="1158" y="-14.3" font-family="Arial" font-size="14.00">Add cups to depict materials used</text>
</g>
<!-- n6&#45;&gt;n7 -->
<g id="edge7" class="edge">
<title>n6&#45;&gt;n7</title>
<path fill="none" stroke="black" d="M1158,-121.81C1158,-102.11 1158,-69.58 1158,-46.39"/>
<polygon fill="black" stroke="black" points="1161.5,-46.16 1158,-36.16 1154.5,-46.16 1161.5,-46.16"/>
</g>
</g>
</svg>
