<?xml version="1.0" encoding="UTF-8" standalone="no"?>
<!DOCTYPE svg PUBLIC "-//W3C//DTD SVG 1.1//EN"
 "http://www.w3.org/Graphics/SVG/1.1/DTD/svg11.dtd">
<!-- Generated by graphviz version 2.43.0 (0)
 -->
<!-- Pages: 1 -->
<svg width="1300pt" height="410pt"
 viewBox="0.00 0.00 1300.00 410.00" xmlns="http://www.w3.org/2000/svg" xmlns:xlink="http://www.w3.org/1999/xlink">
<g id="graph0" class="graph" transform="scale(1 1) rotate(0) translate(4 406)">
<polygon fill="white" stroke="transparent" points="-4,4 -4,-406 1296,-406 1296,4 -4,4"/>
<!-- n1 -->
<g id="node1" class="node">
<title>n1</title>
<polygon fill="lightblue" stroke="black" points="935,-384 804.75,-402 544.25,-402 414,-384 544.25,-366 804.75,-366 935,-384"/>
<text text-anchor="middle" x="674.5" y="-380.3" font-family="Arial" font-size="14.00">Draw two habitats and the different living things in each</text>
</g>
<!-- n2 -->
<g id="node2" class="node">
<title>n2</title>
<polygon fill="#fffdd0" stroke="black" points="367,-280 152,-280 152,-244 367,-244 367,-280"/>
<text text-anchor="middle" x="259.5" y="-258.3" font-family="Arial" font-size="14.00">Land habitat with trees and grass</text>
</g>
<!-- n1&#45;&gt;n2 -->
<g id="edge1" class="edge">
<title>n1&#45;&gt;n2</title>
<path fill="none" stroke="black" d="M615.48,-365.93C539.73,-344.03 408.53,-306.09 328.32,-282.9"/>
<polygon fill="black" stroke="black" points="328.9,-279.42 318.32,-280.01 326.96,-286.15 328.9,-279.42"/>
</g>
<!-- n3 -->
<g id="node3" class="node">
<title>n3</title>
<polygon fill="#fffdd0" stroke="black" points="658,-280 425,-280 425,-244 658,-244 658,-280"/>
<text text-anchor="middle" x="541.5" y="-258.3" font-family="Arial" font-size="14.00">Water habitat with fish and seaweed</text>
</g>
<!-- n1&#45;&gt;n3 -->
<g id="edge2" class="edge">
<title>n1&#45;&gt;n3</title>
<path fill="none" stroke="black" d="M655.44,-365.81C632.53,-345.13 593.94,-310.31 568.1,-287"/>
<polygon fill="black" stroke="black" points="570.29,-284.26 560.52,-280.16 565.6,-289.46 570.29,-284.26"/>
</g>
<!-- n4 -->
<g id="node4" class="node">
<title>n4</title>
<polygon fill="#fffdd0" stroke="black" points="901,-280 716,-280 716,-244 901,-244 901,-280"/>
<text text-anchor="middle" x="808.5" y="-258.3" font-family="Arial" font-size="14.00">Includes deer in land habitat</text>
</g>
<!-- n1&#45;&gt;n4 -->
<g id="edge3" class="edge">
<title>n1&#45;&gt;n4</title>
<path fill="none" stroke="black" d="M693.7,-365.81C716.78,-345.13 755.67,-310.31 781.7,-287"/>
<polygon fill="black" stroke="black" points="784.22,-289.44 789.34,-280.16 779.56,-284.22 784.22,-289.44"/>
</g>
<!-- n5 -->
<g id="node5" class="node">
<title>n5</title>
<polygon fill="#fffdd0" stroke="black" points="1292,-280 959,-280 959,-244 1292,-244 1292,-280"/>
<text text-anchor="middle" x="1125.5" y="-258.3" font-family="Arial" font-size="14.00">Includes fish like clownfish and shark in water habitat</text>
</g>
<!-- n1&#45;&gt;n5 -->
<g id="edge4" class="edge">
<title>n1&#45;&gt;n5</title>
<path fill="none" stroke="black" d="M738.64,-365.93C821.3,-343.94 964.71,-305.78 1051.8,-282.62"/>
<polygon fill="black" stroke="black" points="1052.84,-285.97 1061.6,-280.01 1051.04,-279.2 1052.84,-285.97"/>
</g>
<!-- n6 -->
<g id="node6" class="node">
<title>n6</title>
<path fill="palegreen" stroke="black" d="M749,-158C749,-158 452,-158 452,-158 446,-158 440,-152 440,-146 440,-146 440,-134 440,-134 440,-128 446,-122 452,-122 452,-122 749,-122 749,-122 755,-122 761,-128 761,-134 761,-134 761,-146 761,-146 761,-152 755,-158 749,-158"/>
<text text-anchor="middle" x="600.5" y="-136.3" font-family="Arial" font-size="14.00">Identifies and differentiates land and water habitats</text>
</g>
<!-- n2&#45;&gt;n6 -->
<g id="edge5" class="edge">
<title>n2&#45;&gt;n6</title>
<path fill="none" stroke="black" d="M307.99,-243.93C369.73,-222.21 476.29,-184.71 542.33,-161.47"/>
<polygon fill="black" stroke="black" points="543.9,-164.63 552.17,-158.01 541.58,-158.03 543.9,-164.63"/>
</g>
<!-- n8 -->
<g id="node7" class="node">
<title>n8</title>
<polygon fill="lightcoral" stroke="black" points="200.5,-158 18.5,-140 200.5,-122 382.5,-140 200.5,-158"/>
<text text-anchor="middle" x="200.5" y="-136.3" font-family="Arial" font-size="14.00">Does not show full biodiversity</text>
</g>
<!-- n2&#45;&gt;n8 -->
<g id="edge6" class="edge">
<title>n2&#45;&gt;n8</title>
<path fill="none" stroke="black" d="M251.05,-243.81C241.12,-223.62 224.56,-189.94 213.12,-166.66"/>
<polygon fill="black" stroke="black" points="216.11,-164.82 208.56,-157.39 209.83,-167.91 216.11,-164.82"/>
</g>
<!-- n3&#45;&gt;n6 -->
<g id="edge7" class="edge">
<title>n3&#45;&gt;n6</title>
<path fill="none" stroke="black" d="M549.95,-243.81C559.81,-223.76 576.21,-190.4 587.65,-167.14"/>
<polygon fill="black" stroke="black" points="590.79,-168.68 592.06,-158.16 584.51,-165.59 590.79,-168.68"/>
</g>
<!-- n3&#45;&gt;n8 -->
<g id="edge8" class="edge">
<title>n3&#45;&gt;n8</title>
<path fill="none" stroke="black" d="M493.01,-243.93C427.77,-220.98 312.49,-180.41 247.85,-157.66"/>
<polygon fill="black" stroke="black" points="248.9,-154.32 238.31,-154.3 246.58,-160.92 248.9,-154.32"/>
</g>
<!-- n7 -->
<g id="node8" class="node">
<title>n7</title>
<path fill="palegreen" stroke="black" d="M1110,-158C1110,-158 895,-158 895,-158 889,-158 883,-152 883,-146 883,-146 883,-134 883,-134 883,-128 889,-122 895,-122 895,-122 1110,-122 1110,-122 1116,-122 1122,-128 1122,-134 1122,-134 1122,-146 1122,-146 1122,-152 1116,-158 1110,-158"/>
<text text-anchor="middle" x="1002.5" y="-136.3" font-family="Arial" font-size="14.00">Illustrates various plants and animals</text>
</g>
<!-- n4&#45;&gt;n7 -->
<g id="edge9" class="edge">
<title>n4&#45;&gt;n7</title>
<path fill="none" stroke="black" d="M836.3,-243.81C870.44,-222.69 928.45,-186.81 966.11,-163.51"/>
<polygon fill="black" stroke="black" points="968.1,-166.4 974.76,-158.16 964.41,-160.44 968.1,-166.4"/>
</g>
<!-- n5&#45;&gt;n7 -->
<g id="edge10" class="edge">
<title>n5&#45;&gt;n7</title>
<path fill="none" stroke="black" d="M1107.9,-243.81C1086.8,-223.22 1051.3,-188.61 1027.4,-165.3"/>
<polygon fill="black" stroke="black" points="1029.7,-162.65 1020.1,-158.16 1024.8,-167.65 1029.7,-162.65"/>
</g>
<!-- n9 -->
<g id="node9" class="node">
<title>n9</title>
<polygon fill="#f28e8e" stroke="black" points="401,-36 0,-36 0,0 401,0 401,-36"/>
<text text-anchor="middle" x="200.5" y="-14.3" font-family="Arial" font-size="14.00">Provide examples like frogs, turtles, bushes to enhance diversity</text>
</g>
<!-- n8&#45;&gt;n9 -->
<g id="edge11" class="edge">
<title>n8&#45;&gt;n9</title>
<path fill="none" stroke="black" d="M200.5,-121.81C200.5,-102.11 200.5,-69.58 200.5,-46.39"/>
<polygon fill="black" stroke="black" points="204,-46.16 200.5,-36.16 197,-46.16 204,-46.16"/>
</g>
</g>
</svg>
