<?xml version="1.0" encoding="UTF-8" standalone="no"?>
<!DOCTYPE svg PUBLIC "-//W3C//DTD SVG 1.1//EN"
 "http://www.w3.org/Graphics/SVG/1.1/DTD/svg11.dtd">
<!-- Generated by graphviz version 2.43.0 (0)
 -->
<!-- Pages: 1 -->
<svg width="1262pt" height="410pt"
 viewBox="0.00 0.00 1261.50 410.00" xmlns="http://www.w3.org/2000/svg" xmlns:xlink="http://www.w3.org/1999/xlink">
<g id="graph0" class="graph" transform="scale(1 1) rotate(0) translate(4 406)">
<polygon fill="white" stroke="transparent" points="-4,4 -4,-406 1257.5,-406 1257.5,4 -4,4"/>
<!-- n1 -->
<g id="node1" class="node">
<title>n1</title>
<polygon fill="lightblue" stroke="black" points="660.5,-384 569.25,-402 386.75,-402 295.5,-384 386.75,-366 569.25,-366 660.5,-384"/>
<text text-anchor="middle" x="478" y="-380.3" font-family="Arial" font-size="14.00">Draw reversible changes (ice melting)</text>
</g>
<!-- n2 -->
<g id="node2" class="node">
<title>n2</title>
<polygon fill="#fffdd0" stroke="black" points="270,-280 46,-280 46,-244 270,-244 270,-280"/>
<text text-anchor="middle" x="158" y="-258.3" font-family="Arial" font-size="14.00">Basic, light blue square = ice block</text>
</g>
<!-- n1&#45;&gt;n2 -->
<g id="edge1" class="edge">
<title>n1&#45;&gt;n2</title>
<path fill="none" stroke="black" d="M432.49,-365.93C374.67,-344.25 274.97,-306.86 212.97,-283.61"/>
<polygon fill="black" stroke="black" points="213.94,-280.24 203.35,-280.01 211.49,-286.79 213.94,-280.24"/>
</g>
<!-- n3 -->
<g id="node3" class="node">
<title>n3</title>
<polygon fill="#fffdd0" stroke="black" points="568,-280 388,-280 388,-244 568,-244 568,-280"/>
<text text-anchor="middle" x="478" y="-258.3" font-family="Arial" font-size="14.00">Wavy pencil lines under ice</text>
</g>
<!-- n1&#45;&gt;n3 -->
<g id="edge2" class="edge">
<title>n1&#45;&gt;n3</title>
<path fill="none" stroke="black" d="M478,-365.81C478,-346.11 478,-313.58 478,-290.39"/>
<polygon fill="black" stroke="black" points="481.5,-290.16 478,-280.16 474.5,-290.16 481.5,-290.16"/>
</g>
<!-- n4 -->
<g id="node4" class="node">
<title>n4</title>
<polygon fill="#fffdd0" stroke="black" points="1018,-280 750,-280 750,-244 1018,-244 1018,-280"/>
<text text-anchor="middle" x="884" y="-258.3" font-family="Arial" font-size="14.00">Right side mostly empty/additional square</text>
</g>
<!-- n1&#45;&gt;n4 -->
<g id="edge3" class="edge">
<title>n1&#45;&gt;n4</title>
<path fill="none" stroke="black" d="M535.74,-365.93C609.85,-344.03 738.2,-306.09 816.67,-282.9"/>
<polygon fill="black" stroke="black" points="817.86,-286.2 826.46,-280.01 815.88,-279.48 817.86,-286.2"/>
</g>
<!-- n5 -->
<g id="node5" class="node">
<title>n5</title>
<path fill="palegreen" stroke="black" d="M182,-158C182,-158 12,-158 12,-158 6,-158 0,-152 0,-146 0,-146 0,-134 0,-134 0,-128 6,-122 12,-122 12,-122 182,-122 182,-122 188,-122 194,-128 194,-134 194,-134 194,-146 194,-146 194,-152 188,-158 182,-158"/>
<text text-anchor="middle" x="97" y="-136.3" font-family="Arial" font-size="14.00">Understands solid state of ice</text>
</g>
<!-- n2&#45;&gt;n5 -->
<g id="edge4" class="edge">
<title>n2&#45;&gt;n5</title>
<path fill="none" stroke="black" d="M149.26,-243.81C139.07,-223.76 122.11,-190.4 110.29,-167.14"/>
<polygon fill="black" stroke="black" points="113.37,-165.48 105.72,-158.16 107.14,-168.66 113.37,-165.48"/>
</g>
<!-- n6 -->
<g id="node6" class="node">
<title>n6</title>
<polygon fill="lightcoral" stroke="black" points="478,-158 251.77,-140 478,-122 704.23,-140 478,-158"/>
<text text-anchor="middle" x="478" y="-136.3" font-family="Arial" font-size="14.00">Lacks clarity on melting process/depth</text>
</g>
<!-- n3&#45;&gt;n6 -->
<g id="edge5" class="edge">
<title>n3&#45;&gt;n6</title>
<path fill="none" stroke="black" d="M478,-243.81C478,-224.11 478,-191.58 478,-168.39"/>
<polygon fill="black" stroke="black" points="481.5,-168.16 478,-158.16 474.5,-168.16 481.5,-168.16"/>
</g>
<!-- n7 -->
<g id="node7" class="node">
<title>n7</title>
<polygon fill="lightcoral" stroke="black" points="1008,-158 762.5,-140 1008,-122 1253.5,-140 1008,-158"/>
<text text-anchor="middle" x="1008" y="-136.3" font-family="Arial" font-size="14.00">Lacks depiction of transition &amp; reversibility</text>
</g>
<!-- n4&#45;&gt;n7 -->
<g id="edge6" class="edge">
<title>n4&#45;&gt;n7</title>
<path fill="none" stroke="black" d="M901.77,-243.81C923.4,-222.87 960.02,-187.43 984.11,-164.12"/>
<polygon fill="black" stroke="black" points="986.71,-166.48 991.46,-157.01 981.84,-161.45 986.71,-166.48"/>
</g>
<!-- n8 -->
<g id="node8" class="node">
<title>n8</title>
<polygon fill="#f28e8e" stroke="black" points="643,-36 313,-36 313,0 643,0 643,-36"/>
<text text-anchor="middle" x="478" y="-14.3" font-family="Arial" font-size="14.00">Include depiction of melting process and liquid water</text>
</g>
<!-- n6&#45;&gt;n8 -->
<g id="edge7" class="edge">
<title>n6&#45;&gt;n8</title>
<path fill="none" stroke="black" d="M478,-121.81C478,-102.11 478,-69.58 478,-46.39"/>
<polygon fill="black" stroke="black" points="481.5,-46.16 478,-36.16 474.5,-46.16 481.5,-46.16"/>
</g>
<!-- n9 -->
<g id="node9" class="node">
<title>n9</title>
<polygon fill="#f28e8e" stroke="black" points="1145,-36 871,-36 871,0 1145,0 1145,-36"/>
<text text-anchor="middle" x="1008" y="-14.3" font-family="Arial" font-size="14.00">Show freezing back process &amp; label stages</text>
</g>
<!-- n7&#45;&gt;n9 -->
<g id="edge8" class="edge">
<title>n7&#45;&gt;n9</title>
<path fill="none" stroke="black" d="M1008,-121.81C1008,-102.11 1008,-69.58 1008,-46.39"/>
<polygon fill="black" stroke="black" points="1011.5,-46.16 1008,-36.16 1004.5,-46.16 1011.5,-46.16"/>
</g>
</g>
</svg>
