<?xml version="1.0" encoding="UTF-8" standalone="no"?>
<!DOCTYPE svg PUBLIC "-//W3C//DTD SVG 1.1//EN"
 "http://www.w3.org/Graphics/SVG/1.1/DTD/svg11.dtd">
<!-- Generated by graphviz version 2.43.0 (0)
 -->
<!-- Pages: 1 -->
<svg width="1205pt" height="410pt"
 viewBox="0.00 0.00 1205.10 410.00" xmlns="http://www.w3.org/2000/svg" xmlns:xlink="http://www.w3.org/1999/xlink">
<g id="graph0" class="graph" transform="scale(1 1) rotate(0) translate(4 406)">
<polygon fill="white" stroke="transparent" points="-4,4 -4,-406 1201.1,-406 1201.1,4 -4,4"/>
<!-- n1 -->
<g id="node1" class="node">
<title>n1</title>
<polygon fill="lightblue" stroke="black" points="861.5,-384 731.25,-402 470.75,-402 340.5,-384 470.75,-366 731.25,-366 861.5,-384"/>
<text text-anchor="middle" x="601" y="-380.3" font-family="Arial" font-size="14.00">Draw two habitats and the different living things in each</text>
</g>
<!-- n2 -->
<g id="node2" class="node">
<title>n2</title>
<polygon fill="#fffdd0" stroke="black" points="587.5,-280 378.5,-280 378.5,-244 587.5,-244 587.5,-280"/>
<text text-anchor="middle" x="483" y="-258.3" font-family="Arial" font-size="14.00">Land habitat with tree and grass</text>
</g>
<!-- n1&#45;&gt;n2 -->
<g id="edge1" class="edge">
<title>n1&#45;&gt;n2</title>
<path fill="none" stroke="black" d="M584.09,-365.81C563.85,-345.22 529.82,-310.61 506.9,-287.3"/>
<polygon fill="black" stroke="black" points="509.39,-284.84 499.88,-280.16 504.4,-289.74 509.39,-284.84"/>
</g>
<!-- n3 -->
<g id="node3" class="node">
<title>n3</title>
<polygon fill="#fffdd0" stroke="black" points="794.5,-280 645.5,-280 645.5,-244 794.5,-244 794.5,-280"/>
<text text-anchor="middle" x="720" y="-258.3" font-family="Arial" font-size="14.00">Water habitat with fish</text>
</g>
<!-- n1&#45;&gt;n3 -->
<g id="edge2" class="edge">
<title>n1&#45;&gt;n3</title>
<path fill="none" stroke="black" d="M618.05,-365.81C638.46,-345.22 672.78,-310.61 695.9,-287.3"/>
<polygon fill="black" stroke="black" points="698.42,-289.73 702.98,-280.16 693.45,-284.8 698.42,-289.73"/>
</g>
<!-- n4 -->
<g id="node4" class="node">
<title>n4</title>
<path fill="palegreen" stroke="black" d="M742.5,-158C742.5,-158 461.5,-158 461.5,-158 455.5,-158 449.5,-152 449.5,-146 449.5,-146 449.5,-134 449.5,-134 449.5,-128 455.5,-122 461.5,-122 461.5,-122 742.5,-122 742.5,-122 748.5,-122 754.5,-128 754.5,-134 754.5,-134 754.5,-146 754.5,-146 754.5,-152 748.5,-158 742.5,-158"/>
<text text-anchor="middle" x="602" y="-136.3" font-family="Arial" font-size="14.00">Understands land and water are distinct habitats</text>
</g>
<!-- n2&#45;&gt;n4 -->
<g id="edge3" class="edge">
<title>n2&#45;&gt;n4</title>
<path fill="none" stroke="black" d="M500.05,-243.81C520.46,-223.22 554.78,-188.61 577.9,-165.3"/>
<polygon fill="black" stroke="black" points="580.42,-167.73 584.98,-158.16 575.45,-162.8 580.42,-167.73"/>
</g>
<!-- n5 -->
<g id="node5" class="node">
<title>n5</title>
<polygon fill="lightcoral" stroke="black" points="206,-158 20.16,-140 206,-122 391.84,-140 206,-158"/>
<text text-anchor="middle" x="206" y="-136.3" font-family="Arial" font-size="14.00">Limited diversity in land habitat</text>
</g>
<!-- n2&#45;&gt;n5 -->
<g id="edge4" class="edge">
<title>n2&#45;&gt;n5</title>
<path fill="none" stroke="black" d="M443.61,-243.93C391.72,-221.46 300.86,-182.1 247.8,-159.11"/>
<polygon fill="black" stroke="black" points="248.92,-155.78 238.35,-155.02 246.14,-162.2 248.92,-155.78"/>
</g>
<!-- n3&#45;&gt;n4 -->
<g id="edge5" class="edge">
<title>n3&#45;&gt;n4</title>
<path fill="none" stroke="black" d="M703.09,-243.81C682.85,-223.22 648.82,-188.61 625.9,-165.3"/>
<polygon fill="black" stroke="black" points="628.39,-162.84 618.88,-158.16 623.4,-167.74 628.39,-162.84"/>
</g>
<!-- n6 -->
<g id="node6" class="node">
<title>n6</title>
<polygon fill="lightcoral" stroke="black" points="1005,-158 812.79,-140 1005,-122 1197.21,-140 1005,-158"/>
<text text-anchor="middle" x="1005" y="-136.3" font-family="Arial" font-size="14.00">Limited diversity in water habitat</text>
</g>
<!-- n3&#45;&gt;n6 -->
<g id="edge6" class="edge">
<title>n3&#45;&gt;n6</title>
<path fill="none" stroke="black" d="M760.53,-243.93C814.03,-221.41 907.78,-181.93 962.33,-158.97"/>
<polygon fill="black" stroke="black" points="963.85,-162.13 971.71,-155.02 961.14,-155.68 963.85,-162.13"/>
</g>
<!-- n7 -->
<g id="node7" class="node">
<title>n7</title>
<polygon fill="#f28e8e" stroke="black" points="412,-36 0,-36 0,0 412,0 412,-36"/>
<text text-anchor="middle" x="206" y="-14.3" font-family="Arial" font-size="14.00">Include more plants and animals, such as lizards or aquatic plants</text>
</g>
<!-- n5&#45;&gt;n7 -->
<g id="edge7" class="edge">
<title>n5&#45;&gt;n7</title>
<path fill="none" stroke="black" d="M206,-121.81C206,-102.11 206,-69.58 206,-46.39"/>
<polygon fill="black" stroke="black" points="209.5,-46.16 206,-36.16 202.5,-46.16 209.5,-46.16"/>
</g>
<!-- n8 -->
<g id="node8" class="node">
<title>n8</title>
<polygon fill="#f28e8e" stroke="black" points="1175,-36 835,-36 835,0 1175,0 1175,-36"/>
<text text-anchor="middle" x="1005" y="-14.3" font-family="Arial" font-size="14.00">Add variety in water habitat, like different fish or plants</text>
</g>
<!-- n6&#45;&gt;n8 -->
<g id="edge8" class="edge">
<title>n6&#45;&gt;n8</title>
<path fill="none" stroke="black" d="M1005,-121.81C1005,-102.11 1005,-69.58 1005,-46.39"/>
<polygon fill="black" stroke="black" points="1008.5,-46.16 1005,-36.16 1001.5,-46.16 1008.5,-46.16"/>
</g>
</g>
</svg>
