<?xml version="1.0" encoding="UTF-8" standalone="no"?>
<!DOCTYPE svg PUBLIC "-//W3C//DTD SVG 1.1//EN"
 "http://www.w3.org/Graphics/SVG/1.1/DTD/svg11.dtd">
<!-- Generated by graphviz version 2.43.0 (0)
 -->
<!-- Pages: 1 -->
<svg width="1793pt" height="410pt"
 viewBox="0.00 0.00 1792.50 410.00" xmlns="http://www.w3.org/2000/svg" xmlns:xlink="http://www.w3.org/1999/xlink">
<g id="graph0" class="graph" transform="scale(1 1) rotate(0) translate(4 406)">
<polygon fill="white" stroke="transparent" points="-4,4 -4,-406 1788.5,-406 1788.5,4 -4,4"/>
<!-- n1 -->
<g id="node1" class="node">
<title>n1</title>
<polygon fill="lightblue" stroke="black" points="1408.5,-384 1296.25,-402 1071.75,-402 959.5,-384 1071.75,-366 1296.25,-366 1408.5,-384"/>
<text text-anchor="middle" x="1184" y="-380.3" font-family="Arial" font-size="14.00">Illustrate plants with and without water and light</text>
</g>
<!-- n2 -->
<g id="node2" class="node">
<title>n2</title>
<polygon fill="#fffdd0" stroke="black" points="655.5,-280 488.5,-280 488.5,-244 655.5,-244 655.5,-280"/>
<text text-anchor="middle" x="572" y="-258.3" font-family="Arial" font-size="14.00">Three plants side by side</text>
</g>
<!-- n1&#45;&gt;n2 -->
<g id="edge1" class="edge">
<title>n1&#45;&gt;n2</title>
<path fill="none" stroke="black" d="M1097.3,-366C983.22,-343.63 783.51,-304.47 665.95,-281.42"/>
<polygon fill="black" stroke="black" points="666.38,-277.94 655.89,-279.45 665.03,-284.81 666.38,-277.94"/>
</g>
<!-- n3 -->
<g id="node3" class="node">
<title>n3</title>
<polygon fill="#fffdd0" stroke="black" points="1153.5,-280 906.5,-280 906.5,-244 1153.5,-244 1153.5,-280"/>
<text text-anchor="middle" x="1030" y="-258.3" font-family="Arial" font-size="14.00">First plant with lush, dark green leaves</text>
</g>
<!-- n1&#45;&gt;n3 -->
<g id="edge2" class="edge">
<title>n1&#45;&gt;n3</title>
<path fill="none" stroke="black" d="M1161.9,-365.81C1135.2,-344.96 1089.9,-309.71 1060,-286.4"/>
<polygon fill="black" stroke="black" points="1062.04,-283.55 1052,-280.16 1057.73,-289.07 1062.04,-283.55"/>
</g>
<!-- n4 -->
<g id="node4" class="node">
<title>n4</title>
<polygon fill="#fffdd0" stroke="black" points="1465.5,-280 1212.5,-280 1212.5,-244 1465.5,-244 1465.5,-280"/>
<text text-anchor="middle" x="1339" y="-258.3" font-family="Arial" font-size="14.00">Second plant with wilted, droopy leaves</text>
</g>
<!-- n1&#45;&gt;n4 -->
<g id="edge3" class="edge">
<title>n1&#45;&gt;n4</title>
<path fill="none" stroke="black" d="M1206.2,-365.81C1233.1,-344.96 1278.7,-309.71 1308.8,-286.4"/>
<polygon fill="black" stroke="black" points="1311.07,-289.07 1316.8,-280.16 1306.76,-283.55 1311.07,-289.07"/>
</g>
<!-- n5 -->
<g id="node5" class="node">
<title>n5</title>
<polygon fill="#fffdd0" stroke="black" points="1778,-280 1524,-280 1524,-244 1778,-244 1778,-280"/>
<text text-anchor="middle" x="1651" y="-258.3" font-family="Arial" font-size="14.00">Third plant with pale or yellowish leaves</text>
</g>
<!-- n1&#45;&gt;n5 -->
<g id="edge4" class="edge">
<title>n1&#45;&gt;n5</title>
<path fill="none" stroke="black" d="M1250.4,-365.93C1336.1,-343.92 1484.8,-305.71 1574.9,-282.55"/>
<polygon fill="black" stroke="black" points="1575.98,-285.89 1584.8,-280.01 1574.24,-279.11 1575.98,-285.89"/>
</g>
<!-- n6 -->
<g id="node6" class="node">
<title>n6</title>
<path fill="palegreen" stroke="black" d="M248,-158C248,-158 12,-158 12,-158 6,-158 0,-152 0,-146 0,-146 0,-134 0,-134 0,-128 6,-122 12,-122 12,-122 248,-122 248,-122 254,-122 260,-128 260,-134 260,-134 260,-146 260,-146 260,-152 254,-158 248,-158"/>
<text text-anchor="middle" x="130" y="-136.3" font-family="Arial" font-size="14.00">Plant needs water and light to be healthy</text>
</g>
<!-- n2&#45;&gt;n6 -->
<g id="edge5" class="edge">
<title>n2&#45;&gt;n6</title>
<path fill="none" stroke="black" d="M509.14,-243.93C428.21,-221.96 287.87,-183.86 202.51,-160.69"/>
<polygon fill="black" stroke="black" points="203.21,-157.25 192.64,-158.01 201.37,-164.01 203.21,-157.25"/>
</g>
<!-- n10 -->
<g id="node7" class="node">
<title>n10</title>
<polygon fill="lightcoral" stroke="black" points="572,-158 318.13,-140 572,-122 825.87,-140 572,-158"/>
<text text-anchor="middle" x="572" y="-136.3" font-family="Arial" font-size="14.00">Missing labels in some parts of the drawing</text>
</g>
<!-- n2&#45;&gt;n10 -->
<g id="edge6" class="edge">
<title>n2&#45;&gt;n10</title>
<path fill="none" stroke="black" d="M572,-243.81C572,-224.11 572,-191.58 572,-168.39"/>
<polygon fill="black" stroke="black" points="575.5,-168.16 572,-158.16 568.5,-168.16 575.5,-168.16"/>
</g>
<!-- n7 -->
<g id="node8" class="node">
<title>n7</title>
<path fill="palegreen" stroke="black" d="M1164.5,-158C1164.5,-158 895.5,-158 895.5,-158 889.5,-158 883.5,-152 883.5,-146 883.5,-146 883.5,-134 883.5,-134 883.5,-128 889.5,-122 895.5,-122 895.5,-122 1164.5,-122 1164.5,-122 1170.5,-122 1176.5,-128 1176.5,-134 1176.5,-134 1176.5,-146 1176.5,-146 1176.5,-152 1170.5,-158 1164.5,-158"/>
<text text-anchor="middle" x="1030" y="-136.3" font-family="Arial" font-size="14.00">Lush green indicates adequate water and light</text>
</g>
<!-- n3&#45;&gt;n7 -->
<g id="edge7" class="edge">
<title>n3&#45;&gt;n7</title>
<path fill="none" stroke="black" d="M1030,-243.81C1030,-224.11 1030,-191.58 1030,-168.39"/>
<polygon fill="black" stroke="black" points="1033.5,-168.16 1030,-158.16 1026.5,-168.16 1033.5,-168.16"/>
</g>
<!-- n8 -->
<g id="node9" class="node">
<title>n8</title>
<path fill="palegreen" stroke="black" d="M1449.5,-158C1449.5,-158 1246.5,-158 1246.5,-158 1240.5,-158 1234.5,-152 1234.5,-146 1234.5,-146 1234.5,-134 1234.5,-134 1234.5,-128 1240.5,-122 1246.5,-122 1246.5,-122 1449.5,-122 1449.5,-122 1455.5,-122 1461.5,-128 1461.5,-134 1461.5,-134 1461.5,-146 1461.5,-146 1461.5,-152 1455.5,-158 1449.5,-158"/>
<text text-anchor="middle" x="1348" y="-136.3" font-family="Arial" font-size="14.00">Wilted leaves indicate lack of water</text>
</g>
<!-- n4&#45;&gt;n8 -->
<g id="edge8" class="edge">
<title>n4&#45;&gt;n8</title>
<path fill="none" stroke="black" d="M1340.3,-243.81C1341.8,-224.11 1344.2,-191.58 1345.9,-168.39"/>
<polygon fill="black" stroke="black" points="1349.41,-168.4 1346.7,-158.16 1342.43,-167.86 1349.41,-168.4"/>
</g>
<!-- n9 -->
<g id="node10" class="node">
<title>n9</title>
<path fill="palegreen" stroke="black" d="M1772.5,-158C1772.5,-158 1531.5,-158 1531.5,-158 1525.5,-158 1519.5,-152 1519.5,-146 1519.5,-146 1519.5,-134 1519.5,-134 1519.5,-128 1525.5,-122 1531.5,-122 1531.5,-122 1772.5,-122 1772.5,-122 1778.5,-122 1784.5,-128 1784.5,-134 1784.5,-134 1784.5,-146 1784.5,-146 1784.5,-152 1778.5,-158 1772.5,-158"/>
<text text-anchor="middle" x="1652" y="-136.3" font-family="Arial" font-size="14.00">Pale leaves indicate lack of sufficient light</text>
</g>
<!-- n5&#45;&gt;n9 -->
<g id="edge9" class="edge">
<title>n5&#45;&gt;n9</title>
<path fill="none" stroke="black" d="M1651.1,-243.81C1651.3,-224.11 1651.6,-191.58 1651.8,-168.39"/>
<polygon fill="black" stroke="black" points="1655.3,-168.19 1651.9,-158.16 1648.3,-168.13 1655.3,-168.19"/>
</g>
<!-- n11 -->
<g id="node11" class="node">
<title>n11</title>
<polygon fill="#f28e8e" stroke="black" points="757,-36 387,-36 387,0 757,0 757,-36"/>
<text text-anchor="middle" x="572" y="-14.3" font-family="Arial" font-size="14.00">Consider labeling all parts of the drawing to enhance clarity</text>
</g>
<!-- n10&#45;&gt;n11 -->
<g id="edge10" class="edge">
<title>n10&#45;&gt;n11</title>
<path fill="none" stroke="black" d="M572,-121.81C572,-102.11 572,-69.58 572,-46.39"/>
<polygon fill="black" stroke="black" points="575.5,-46.16 572,-36.16 568.5,-46.16 575.5,-46.16"/>
</g>
</g>
</svg>
