<?xml version="1.0" encoding="UTF-8" standalone="no"?>
<!DOCTYPE svg PUBLIC "-//W3C//DTD SVG 1.1//EN"
 "http://www.w3.org/Graphics/SVG/1.1/DTD/svg11.dtd">
<!-- Generated by graphviz version 2.43.0 (0)
 -->
<!-- Pages: 1 -->
<svg width="2166pt" height="410pt"
 viewBox="0.00 0.00 2165.50 410.00" xmlns="http://www.w3.org/2000/svg" xmlns:xlink="http://www.w3.org/1999/xlink">
<g id="graph0" class="graph" transform="scale(1 1) rotate(0) translate(4 406)">
<polygon fill="white" stroke="transparent" points="-4,4 -4,-406 2161.5,-406 2161.5,4 -4,4"/>
<!-- n1 -->
<g id="node1" class="node">
<title>n1</title>
<polygon fill="lightblue" stroke="black" points="770,-384 678.75,-402 496.25,-402 405,-384 496.25,-366 678.75,-366 770,-384"/>
<text text-anchor="middle" x="587.5" y="-380.3" font-family="Arial" font-size="14.00">Draw reversible changes (ice melting)</text>
</g>
<!-- n2 -->
<g id="node2" class="node">
<title>n2</title>
<polygon fill="#fffdd0" stroke="black" points="363.5,-280 183.5,-280 183.5,-244 363.5,-244 363.5,-280"/>
<text text-anchor="middle" x="273.5" y="-258.3" font-family="Arial" font-size="14.00">Ice cube with jagged edges</text>
</g>
<!-- n1&#45;&gt;n2 -->
<g id="edge1" class="edge">
<title>n1&#45;&gt;n2</title>
<path fill="none" stroke="black" d="M542.84,-365.93C486.11,-344.25 388.28,-306.86 327.44,-283.61"/>
<polygon fill="black" stroke="black" points="328.59,-280.3 318,-280.01 326.1,-286.84 328.59,-280.3"/>
</g>
<!-- n3 -->
<g id="node3" class="node">
<title>n3</title>
<polygon fill="#fffdd0" stroke="black" points="663.5,-280 511.5,-280 511.5,-244 663.5,-244 663.5,-280"/>
<text text-anchor="middle" x="587.5" y="-258.3" font-family="Arial" font-size="14.00">Puddle with wavy lines</text>
</g>
<!-- n1&#45;&gt;n3 -->
<g id="edge2" class="edge">
<title>n1&#45;&gt;n3</title>
<path fill="none" stroke="black" d="M587.5,-365.81C587.5,-346.11 587.5,-313.58 587.5,-290.39"/>
<polygon fill="black" stroke="black" points="591,-290.16 587.5,-280.16 584,-290.16 591,-290.16"/>
</g>
<!-- n4 -->
<g id="node4" class="node">
<title>n4</title>
<polygon fill="#fffdd0" stroke="black" points="1193,-280 1032,-280 1032,-244 1193,-244 1193,-280"/>
<text text-anchor="middle" x="1112.5" y="-258.3" font-family="Arial" font-size="14.00">Arrow indicating melting</text>
</g>
<!-- n1&#45;&gt;n4 -->
<g id="edge3" class="edge">
<title>n1&#45;&gt;n4</title>
<path fill="none" stroke="black" d="M661.88,-366C758.52,-343.91 926.81,-305.44 1028.1,-282.29"/>
<polygon fill="black" stroke="black" points="1029.03,-285.67 1038,-280.03 1027.47,-278.84 1029.03,-285.67"/>
</g>
<!-- n5 -->
<g id="node5" class="node">
<title>n5</title>
<path fill="palegreen" stroke="black" d="M355,-158C355,-158 12,-158 12,-158 6,-158 0,-152 0,-146 0,-146 0,-134 0,-134 0,-128 6,-122 12,-122 12,-122 355,-122 355,-122 361,-122 367,-128 367,-134 367,-134 367,-146 367,-146 367,-152 361,-158 355,-158"/>
<text text-anchor="middle" x="183.5" y="-136.3" font-family="Arial" font-size="14.00">Correctly understands ice characteristics (solid, cold, hard)</text>
</g>
<!-- n2&#45;&gt;n5 -->
<g id="edge4" class="edge">
<title>n2&#45;&gt;n5</title>
<path fill="none" stroke="black" d="M260.61,-243.81C245.37,-223.49 219.88,-189.51 202.41,-166.21"/>
<polygon fill="black" stroke="black" points="205.17,-164.06 196.37,-158.16 199.57,-168.26 205.17,-164.06"/>
</g>
<!-- n6 -->
<g id="node6" class="node">
<title>n6</title>
<path fill="palegreen" stroke="black" d="M738,-158C738,-158 437,-158 437,-158 431,-158 425,-152 425,-146 425,-146 425,-134 425,-134 425,-128 431,-122 437,-122 437,-122 738,-122 738,-122 744,-122 750,-128 750,-134 750,-134 750,-146 750,-146 750,-152 744,-158 738,-158"/>
<text text-anchor="middle" x="587.5" y="-136.3" font-family="Arial" font-size="14.00">Understands water characteristics (liquid, wet, fluid)</text>
</g>
<!-- n3&#45;&gt;n6 -->
<g id="edge5" class="edge">
<title>n3&#45;&gt;n6</title>
<path fill="none" stroke="black" d="M587.5,-243.81C587.5,-224.11 587.5,-191.58 587.5,-168.39"/>
<polygon fill="black" stroke="black" points="591,-168.16 587.5,-158.16 584,-168.16 591,-168.16"/>
</g>
<!-- n7 -->
<g id="node7" class="node">
<title>n7</title>
<path fill="palegreen" stroke="black" d="M1005,-158C1005,-158 820,-158 820,-158 814,-158 808,-152 808,-146 808,-146 808,-134 808,-134 808,-128 814,-122 820,-122 820,-122 1005,-122 1005,-122 1011,-122 1017,-128 1017,-134 1017,-134 1017,-146 1017,-146 1017,-152 1011,-158 1005,-158"/>
<text text-anchor="middle" x="912.5" y="-136.3" font-family="Arial" font-size="14.00">Indicates melting (solid to liquid)</text>
</g>
<!-- n4&#45;&gt;n7 -->
<g id="edge6" class="edge">
<title>n4&#45;&gt;n7</title>
<path fill="none" stroke="black" d="M1083.8,-243.81C1048.6,-222.69 988.84,-186.81 950.01,-163.51"/>
<polygon fill="black" stroke="black" points="951.47,-160.31 941.1,-158.16 947.87,-166.31 951.47,-160.31"/>
</g>
<!-- n8 -->
<g id="node8" class="node">
<title>n8</title>
<polygon fill="lightcoral" stroke="black" points="1313.5,-158 1075.38,-140 1313.5,-122 1551.62,-140 1313.5,-158"/>
<text text-anchor="middle" x="1313.5" y="-136.3" font-family="Arial" font-size="14.00">Incomplete understanding of reversibility</text>
</g>
<!-- n4&#45;&gt;n8 -->
<g id="edge7" class="edge">
<title>n4&#45;&gt;n8</title>
<path fill="none" stroke="black" d="M1141.3,-243.81C1177.7,-222.09 1240.2,-184.75 1279.1,-161.55"/>
<polygon fill="black" stroke="black" points="1281.13,-164.41 1287.9,-156.26 1277.53,-158.41 1281.13,-164.41"/>
</g>
<!-- n10 -->
<g id="node9" class="node">
<title>n10</title>
<polygon fill="lightcoral" stroke="black" points="1883.5,-158 1609.5,-140 1883.5,-122 2157.5,-140 1883.5,-158"/>
<text text-anchor="middle" x="1883.5" y="-136.3" font-family="Arial" font-size="14.00">Indicates cause and effect: heating and cooling</text>
</g>
<!-- n4&#45;&gt;n10 -->
<g id="edge8" class="edge">
<title>n4&#45;&gt;n10</title>
<path fill="none" stroke="black" d="M1193.2,-248.44C1339.2,-225.72 1646,-177.97 1796.5,-154.55"/>
<polygon fill="black" stroke="black" points="1797.26,-157.97 1806.6,-152.97 1796.18,-151.06 1797.26,-157.97"/>
</g>
<!-- n9 -->
<g id="node10" class="node">
<title>n9</title>
<polygon fill="#f28e8e" stroke="black" points="1449,-36 1178,-36 1178,0 1449,0 1449,-36"/>
<text text-anchor="middle" x="1313.5" y="-14.3" font-family="Arial" font-size="14.00">Explain cooling process for returning to ice</text>
</g>
<!-- n8&#45;&gt;n9 -->
<g id="edge9" class="edge">
<title>n8&#45;&gt;n9</title>
<path fill="none" stroke="black" d="M1313.5,-121.81C1313.5,-102.11 1313.5,-69.58 1313.5,-46.39"/>
<polygon fill="black" stroke="black" points="1317,-46.16 1313.5,-36.16 1310,-46.16 1317,-46.16"/>
</g>
<!-- n11 -->
<g id="node11" class="node">
<title>n11</title>
<polygon fill="#f28e8e" stroke="black" points="2031.5,-36 1735.5,-36 1735.5,0 2031.5,0 2031.5,-36"/>
<text text-anchor="middle" x="1883.5" y="-14.3" font-family="Arial" font-size="14.00">Explain both heating melts and cooling freezes</text>
</g>
<!-- n10&#45;&gt;n11 -->
<g id="edge10" class="edge">
<title>n10&#45;&gt;n11</title>
<path fill="none" stroke="black" d="M1883.5,-121.81C1883.5,-102.11 1883.5,-69.58 1883.5,-46.39"/>
<polygon fill="black" stroke="black" points="1887,-46.16 1883.5,-36.16 1880,-46.16 1887,-46.16"/>
</g>
</g>
</svg>
