<?xml version="1.0" encoding="UTF-8" standalone="no"?>
<!DOCTYPE svg PUBLIC "-//W3C//DTD SVG 1.1//EN"
 "http://www.w3.org/Graphics/SVG/1.1/DTD/svg11.dtd">
<!-- Generated by graphviz version 2.43.0 (0)
 -->
<!-- Pages: 1 -->
<svg width="1538pt" height="410pt"
 viewBox="0.00 0.00 1537.74 410.00" xmlns="http://www.w3.org/2000/svg" xmlns:xlink="http://www.w3.org/1999/xlink">
<g id="graph0" class="graph" transform="scale(1 1) rotate(0) translate(4 406)">
<polygon fill="white" stroke="transparent" points="-4,4 -4,-406 1533.74,-406 1533.74,4 -4,4"/>
<!-- n1 -->
<g id="node1" class="node">
<title>n1</title>
<polygon fill="lightblue" stroke="black" points="629.74,-384 536.62,-402 350.38,-402 257.26,-384 350.38,-366 536.62,-366 629.74,-384"/>
<text text-anchor="middle" x="443.5" y="-380.3" font-family="Arial" font-size="14.00">Illustrate plants with and without water.</text>
</g>
<!-- n2 -->
<g id="node2" class="node">
<title>n2</title>
<polygon fill="#fffdd0" stroke="black" points="233,-280 0,-280 0,-244 233,-244 233,-280"/>
<text text-anchor="middle" x="116.5" y="-258.3" font-family="Arial" font-size="14.00">Two plants: one healthy, one droopy</text>
</g>
<!-- n1&#45;&gt;n2 -->
<g id="edge1" class="edge">
<title>n1&#45;&gt;n2</title>
<path fill="none" stroke="black" d="M397,-365.93C337.79,-344.21 235.61,-306.71 172.28,-283.47"/>
<polygon fill="black" stroke="black" points="173.43,-280.17 162.84,-280.01 171.02,-286.74 173.43,-280.17"/>
</g>
<!-- n3 -->
<g id="node3" class="node">
<title>n3</title>
<polygon fill="#fffdd0" stroke="black" points="596,-280 291,-280 291,-244 596,-244 596,-280"/>
<text text-anchor="middle" x="443.5" y="-258.3" font-family="Arial" font-size="14.00">Healthy plant with green leaves and sturdy stem</text>
</g>
<!-- n1&#45;&gt;n3 -->
<g id="edge2" class="edge">
<title>n1&#45;&gt;n3</title>
<path fill="none" stroke="black" d="M443.5,-365.81C443.5,-346.11 443.5,-313.58 443.5,-290.39"/>
<polygon fill="black" stroke="black" points="447,-290.16 443.5,-280.16 440,-290.16 447,-290.16"/>
</g>
<!-- n4 -->
<g id="node4" class="node">
<title>n4</title>
<polygon fill="#fffdd0" stroke="black" points="946.5,-280 654.5,-280 654.5,-244 946.5,-244 946.5,-280"/>
<text text-anchor="middle" x="800.5" y="-258.3" font-family="Arial" font-size="14.00">Droopy plant with green leaves and bent stem</text>
</g>
<!-- n1&#45;&gt;n4 -->
<g id="edge3" class="edge">
<title>n1&#45;&gt;n4</title>
<path fill="none" stroke="black" d="M494.27,-365.93C559.04,-344.16 670.92,-306.56 740.03,-283.33"/>
<polygon fill="black" stroke="black" points="741.54,-286.52 749.9,-280.01 739.31,-279.88 741.54,-286.52"/>
</g>
<!-- n5 -->
<g id="node5" class="node">
<title>n5</title>
<path fill="palegreen" stroke="black" d="M420,-158C420,-158 139,-158 139,-158 133,-158 127,-152 127,-146 127,-146 127,-134 127,-134 127,-128 133,-122 139,-122 139,-122 420,-122 420,-122 426,-122 432,-128 432,-134 432,-134 432,-146 432,-146 432,-152 426,-158 420,-158"/>
<text text-anchor="middle" x="279.5" y="-136.3" font-family="Arial" font-size="14.00">Understands healthy plant needs water and light</text>
</g>
<!-- n2&#45;&gt;n5 -->
<g id="edge4" class="edge">
<title>n2&#45;&gt;n5</title>
<path fill="none" stroke="black" d="M139.85,-243.81C168.3,-222.87 216.46,-187.41 248.12,-164.1"/>
<polygon fill="black" stroke="black" points="250.21,-166.91 256.19,-158.16 246.06,-161.27 250.21,-166.91"/>
</g>
<!-- n3&#45;&gt;n5 -->
<g id="edge5" class="edge">
<title>n3&#45;&gt;n5</title>
<path fill="none" stroke="black" d="M420,-243.81C391.38,-222.87 342.93,-187.41 311.07,-164.1"/>
<polygon fill="black" stroke="black" points="313.09,-161.24 302.95,-158.16 308.95,-166.89 313.09,-161.24"/>
</g>
<!-- n6 -->
<g id="node6" class="node">
<title>n6</title>
<path fill="palegreen" stroke="black" d="M851,-158C851,-158 584,-158 584,-158 578,-158 572,-152 572,-146 572,-146 572,-134 572,-134 572,-128 578,-122 584,-122 584,-122 851,-122 851,-122 857,-122 863,-128 863,-134 863,-134 863,-146 863,-146 863,-152 857,-158 851,-158"/>
<text text-anchor="middle" x="717.5" y="-136.3" font-family="Arial" font-size="14.00">Illustrates lack of water through droopy leaves</text>
</g>
<!-- n4&#45;&gt;n6 -->
<g id="edge6" class="edge">
<title>n4&#45;&gt;n6</title>
<path fill="none" stroke="black" d="M788.61,-243.81C774.62,-223.58 751.26,-189.81 735.15,-166.52"/>
<polygon fill="black" stroke="black" points="737.94,-164.4 729.37,-158.16 732.18,-168.38 737.94,-164.4"/>
</g>
<!-- n7 -->
<g id="node7" class="node">
<title>n7</title>
<polygon fill="lightcoral" stroke="black" points="1225.5,-158 921.02,-140 1225.5,-122 1529.98,-140 1225.5,-158"/>
<text text-anchor="middle" x="1225.5" y="-136.3" font-family="Arial" font-size="14.00">Incomplete representation of water and light sources</text>
</g>
<!-- n4&#45;&gt;n7 -->
<g id="edge7" class="edge">
<title>n4&#45;&gt;n7</title>
<path fill="none" stroke="black" d="M860.94,-243.93C941.93,-221.07 1084.8,-180.73 1165.5,-157.93"/>
<polygon fill="black" stroke="black" points="1166.83,-161.19 1175.5,-155.11 1164.93,-154.46 1166.83,-161.19"/>
</g>
<!-- n8 -->
<g id="node8" class="node">
<title>n8</title>
<polygon fill="#f28e8e" stroke="black" points="1355.5,-36 1095.5,-36 1095.5,0 1355.5,0 1355.5,-36"/>
<text text-anchor="middle" x="1225.5" y="-14.3" font-family="Arial" font-size="14.00">Add sunlight and water source indicators</text>
</g>
<!-- n7&#45;&gt;n8 -->
<g id="edge8" class="edge">
<title>n7&#45;&gt;n8</title>
<path fill="none" stroke="black" d="M1225.5,-121.81C1225.5,-102.11 1225.5,-69.58 1225.5,-46.39"/>
<polygon fill="black" stroke="black" points="1229,-46.16 1225.5,-36.16 1222,-46.16 1229,-46.16"/>
</g>
</g>
</svg>
