<?xml version="1.0" encoding="UTF-8" standalone="no"?>
<!DOCTYPE svg PUBLIC "-//W3C//DTD SVG 1.1//EN"
 "http://www.w3.org/Graphics/SVG/1.1/DTD/svg11.dtd">
<!-- Generated by graphviz version 2.43.0 (0)
 -->
<!-- Pages: 1 -->
<svg width="1404pt" height="410pt"
 viewBox="0.00 0.00 1403.68 410.00" xmlns="http://www.w3.org/2000/svg" xmlns:xlink="http://www.w3.org/1999/xlink">
<g id="graph0" class="graph" transform="scale(1 1) rotate(0) translate(4 406)">
<polygon fill="white" stroke="transparent" points="-4,4 -4,-406 1399.68,-406 1399.68,4 -4,4"/>
<!-- n1 -->
<g id="node1" class="node">
<title>n1</title>
<polygon fill="lightblue" stroke="black" points="928,-384 797.75,-402 537.25,-402 407,-384 537.25,-366 797.75,-366 928,-384"/>
<text text-anchor="middle" x="667.5" y="-380.3" font-family="Arial" font-size="14.00">Draw two habitats and the different living things in each</text>
</g>
<!-- n2 -->
<g id="node2" class="node">
<title>n2</title>
<polygon fill="#fffdd0" stroke="black" points="221,-280 0,-280 0,-244 221,-244 221,-280"/>
<text text-anchor="middle" x="110.5" y="-258.3" font-family="Arial" font-size="14.00">Wavy blue shape for water habitat</text>
</g>
<!-- n1&#45;&gt;n2 -->
<g id="edge1" class="edge">
<title>n1&#45;&gt;n2</title>
<path fill="none" stroke="black" d="M588.58,-366C485.85,-343.87 306.78,-305.29 199.38,-282.15"/>
<polygon fill="black" stroke="black" points="200.04,-278.71 189.53,-280.03 198.57,-285.56 200.04,-278.71"/>
</g>
<!-- n3 -->
<g id="node3" class="node">
<title>n3</title>
<polygon fill="#fffdd0" stroke="black" points="507.5,-280 279.5,-280 279.5,-244 507.5,-244 507.5,-280"/>
<text text-anchor="middle" x="393.5" y="-258.3" font-family="Arial" font-size="14.00">Round green shape for land habitat</text>
</g>
<!-- n1&#45;&gt;n3 -->
<g id="edge2" class="edge">
<title>n1&#45;&gt;n3</title>
<path fill="none" stroke="black" d="M628.53,-365.93C579.33,-344.39 494.71,-307.32 441.55,-284.04"/>
<polygon fill="black" stroke="black" points="442.89,-280.81 432.33,-280.01 440.09,-287.22 442.89,-280.81"/>
</g>
<!-- n4 -->
<g id="node4" class="node">
<title>n4</title>
<polygon fill="#fffdd0" stroke="black" points="769,-280 566,-280 566,-244 769,-244 769,-280"/>
<text text-anchor="middle" x="667.5" y="-258.3" font-family="Arial" font-size="14.00">Fish&#45;like shape in both habitats</text>
</g>
<!-- n1&#45;&gt;n4 -->
<g id="edge3" class="edge">
<title>n1&#45;&gt;n4</title>
<path fill="none" stroke="black" d="M667.5,-365.81C667.5,-346.11 667.5,-313.58 667.5,-290.39"/>
<polygon fill="black" stroke="black" points="671,-290.16 667.5,-280.16 664,-290.16 671,-290.16"/>
</g>
<!-- n5 -->
<g id="node5" class="node">
<title>n5</title>
<polygon fill="#fffdd0" stroke="black" points="1064,-280 827,-280 827,-244 1064,-244 1064,-280"/>
<text text-anchor="middle" x="945.5" y="-258.3" font-family="Arial" font-size="14.00">Green blob resembling tree or flower</text>
</g>
<!-- n1&#45;&gt;n5 -->
<g id="edge4" class="edge">
<title>n1&#45;&gt;n5</title>
<path fill="none" stroke="black" d="M707.04,-365.93C756.95,-344.39 842.81,-307.32 896.75,-284.04"/>
<polygon fill="black" stroke="black" points="898.3,-287.18 906.1,-280.01 895.53,-280.75 898.3,-287.18"/>
</g>
<!-- n6 -->
<g id="node6" class="node">
<title>n6</title>
<polygon fill="#fffdd0" stroke="black" points="1384.5,-280 1122.5,-280 1122.5,-244 1384.5,-244 1384.5,-280"/>
<text text-anchor="middle" x="1253.5" y="-258.3" font-family="Arial" font-size="14.00">Red circle possibly a bird in both habitats</text>
</g>
<!-- n1&#45;&gt;n6 -->
<g id="edge5" class="edge">
<title>n1&#45;&gt;n6</title>
<path fill="none" stroke="black" d="M750.53,-366C858.72,-343.84 1047.4,-305.21 1160.3,-282.08"/>
<polygon fill="black" stroke="black" points="1161.3,-285.45 1170.4,-280.03 1159.9,-278.59 1161.3,-285.45"/>
</g>
<!-- n7 -->
<g id="node7" class="node">
<title>n7</title>
<path fill="palegreen" stroke="black" d="M301.5,-158C301.5,-158 35.5,-158 35.5,-158 29.5,-158 23.5,-152 23.5,-146 23.5,-146 23.5,-134 23.5,-134 23.5,-128 29.5,-122 35.5,-122 35.5,-122 301.5,-122 301.5,-122 307.5,-122 313.5,-128 313.5,-134 313.5,-134 313.5,-146 313.5,-146 313.5,-152 307.5,-158 301.5,-158"/>
<text text-anchor="middle" x="168.5" y="-136.3" font-family="Arial" font-size="14.00">Different habitats represented: land and water</text>
</g>
<!-- n2&#45;&gt;n7 -->
<g id="edge6" class="edge">
<title>n2&#45;&gt;n7</title>
<path fill="none" stroke="black" d="M118.81,-243.81C128.46,-223.85 144.48,-190.7 155.72,-167.45"/>
<polygon fill="black" stroke="black" points="159.01,-168.69 160.21,-158.16 152.71,-165.64 159.01,-168.69"/>
</g>
<!-- n3&#45;&gt;n7 -->
<g id="edge7" class="edge">
<title>n3&#45;&gt;n7</title>
<path fill="none" stroke="black" d="M361.26,-243.81C321.33,-222.51 253.25,-186.2 209.6,-162.92"/>
<polygon fill="black" stroke="black" points="211.15,-159.78 200.68,-158.16 207.85,-165.96 211.15,-159.78"/>
</g>
<!-- n8 -->
<g id="node8" class="node">
<title>n8</title>
<polygon fill="lightcoral" stroke="black" points="1204.5,-158 1013.13,-140 1204.5,-122 1395.87,-140 1204.5,-158"/>
<text text-anchor="middle" x="1204.5" y="-136.3" font-family="Arial" font-size="14.00">Same creatures in both habitats</text>
</g>
<!-- n4&#45;&gt;n8 -->
<g id="edge8" class="edge">
<title>n4&#45;&gt;n8</title>
<path fill="none" stroke="black" d="M743.58,-244C850.02,-220.21 1041.4,-177.44 1140.8,-155.24"/>
<polygon fill="black" stroke="black" points="1141.71,-158.62 1150.7,-153.02 1140.18,-151.79 1141.71,-158.62"/>
</g>
<!-- n9 -->
<g id="node9" class="node">
<title>n9</title>
<polygon fill="lightcoral" stroke="black" points="667.5,-158 428.5,-140 667.5,-122 906.5,-140 667.5,-158"/>
<text text-anchor="middle" x="667.5" y="-136.3" font-family="Arial" font-size="14.00">Inability to distinguish habitat&#45;specific life</text>
</g>
<!-- n4&#45;&gt;n9 -->
<g id="edge9" class="edge">
<title>n4&#45;&gt;n9</title>
<path fill="none" stroke="black" d="M667.5,-243.81C667.5,-224.11 667.5,-191.58 667.5,-168.39"/>
<polygon fill="black" stroke="black" points="671,-168.16 667.5,-158.16 664,-168.16 671,-168.16"/>
</g>
<!-- n6&#45;&gt;n8 -->
<g id="edge10" class="edge">
<title>n6&#45;&gt;n8</title>
<path fill="none" stroke="black" d="M1246.5,-243.81C1238.2,-223.62 1224.5,-189.94 1215,-166.66"/>
<polygon fill="black" stroke="black" points="1218.23,-165.32 1211.2,-157.39 1211.75,-167.97 1218.23,-165.32"/>
</g>
<!-- n10 -->
<g id="node10" class="node">
<title>n10</title>
<polygon fill="#f28e8e" stroke="black" points="1302,-36 1107,-36 1107,0 1302,0 1302,-36"/>
<text text-anchor="middle" x="1204.5" y="-14.3" font-family="Arial" font-size="14.00">Add labels to each living thing</text>
</g>
<!-- n8&#45;&gt;n10 -->
<g id="edge11" class="edge">
<title>n8&#45;&gt;n10</title>
<path fill="none" stroke="black" d="M1204.5,-121.81C1204.5,-102.11 1204.5,-69.58 1204.5,-46.39"/>
<polygon fill="black" stroke="black" points="1208,-46.16 1204.5,-36.16 1201,-46.16 1208,-46.16"/>
</g>
<!-- n11 -->
<g id="node11" class="node">
<title>n11</title>
<polygon fill="#f28e8e" stroke="black" points="817,-36 518,-36 518,0 817,0 817,-36"/>
<text text-anchor="middle" x="667.5" y="-14.3" font-family="Arial" font-size="14.00">Learn about habitat&#45;specific plants and animals</text>
</g>
<!-- n9&#45;&gt;n11 -->
<g id="edge12" class="edge">
<title>n9&#45;&gt;n11</title>
<path fill="none" stroke="black" d="M667.5,-121.81C667.5,-102.11 667.5,-69.58 667.5,-46.39"/>
<polygon fill="black" stroke="black" points="671,-46.16 667.5,-36.16 664,-46.16 671,-46.16"/>
</g>
</g>
</svg>
