<?xml version="1.0" encoding="UTF-8" standalone="no"?>
<!DOCTYPE svg PUBLIC "-//W3C//DTD SVG 1.1//EN"
 "http://www.w3.org/Graphics/SVG/1.1/DTD/svg11.dtd">
<!-- Generated by graphviz version 2.43.0 (0)
 -->
<!-- Pages: 1 -->
<svg width="2179pt" height="288pt"
 viewBox="0.00 0.00 2179.00 288.00" xmlns="http://www.w3.org/2000/svg" xmlns:xlink="http://www.w3.org/1999/xlink">
<g id="graph0" class="graph" transform="scale(1 1) rotate(0) translate(4 284)">
<polygon fill="white" stroke="transparent" points="-4,4 -4,-284 2175,-284 2175,4 -4,4"/>
<!-- n1 -->
<g id="node1" class="node">
<title>n1</title>
<polygon fill="lightblue" stroke="black" points="1288,-262 1176.5,-280 953.5,-280 842,-262 953.5,-244 1176.5,-244 1288,-262"/>
<text text-anchor="middle" x="1065" y="-258.3" font-family="Arial" font-size="14.00">Draw a string telephone between two students.</text>
</g>
<!-- n2 -->
<g id="node2" class="node">
<title>n2</title>
<polygon fill="#fffdd0" stroke="black" points="364,-158 158,-158 158,-122 364,-122 364,-158"/>
<text text-anchor="middle" x="261" y="-136.3" font-family="Arial" font-size="14.00">Two students facing each other.</text>
</g>
<!-- n1&#45;&gt;n2 -->
<g id="edge1" class="edge">
<title>n1&#45;&gt;n2</title>
<path fill="none" stroke="black" d="M952.36,-244.19C799.38,-221.36 527.47,-180.77 374.2,-157.9"/>
<polygon fill="black" stroke="black" points="374.69,-154.43 364.28,-156.41 373.65,-161.36 374.69,-154.43"/>
</g>
<!-- n3 -->
<g id="node3" class="node">
<title>n3</title>
<polygon fill="#fffdd0" stroke="black" points="789,-158 447,-158 447,-122 789,-122 789,-158"/>
<text text-anchor="middle" x="618" y="-136.3" font-family="Arial" font-size="14.00">Each student holds a paper cup connected by a string.</text>
</g>
<!-- n1&#45;&gt;n3 -->
<g id="edge2" class="edge">
<title>n1&#45;&gt;n3</title>
<path fill="none" stroke="black" d="M1001.4,-243.93C919.5,-221.94 777.37,-183.78 691.07,-160.62"/>
<polygon fill="black" stroke="black" points="691.92,-157.22 681.35,-158.01 690.1,-163.98 691.92,-157.22"/>
</g>
<!-- n4 -->
<g id="node4" class="node">
<title>n4</title>
<polygon fill="#fffdd0" stroke="black" points="986.5,-158 847.5,-158 847.5,-122 986.5,-122 986.5,-158"/>
<text text-anchor="middle" x="917" y="-136.3" font-family="Arial" font-size="14.00">String is mostly taut.</text>
</g>
<!-- n1&#45;&gt;n4 -->
<g id="edge3" class="edge">
<title>n1&#45;&gt;n4</title>
<path fill="none" stroke="black" d="M1043.8,-243.81C1018.2,-223.04 974.98,-188.01 946.23,-164.7"/>
<polygon fill="black" stroke="black" points="948.14,-161.74 938.17,-158.16 943.73,-167.18 948.14,-161.74"/>
</g>
<!-- n5 -->
<g id="node5" class="node">
<title>n5</title>
<polygon fill="#fffdd0" stroke="black" points="1383,-158 1045,-158 1045,-122 1383,-122 1383,-158"/>
<text text-anchor="middle" x="1214" y="-136.3" font-family="Arial" font-size="14.00">Arrows on the string indicate direction of sound travel.</text>
</g>
<!-- n1&#45;&gt;n5 -->
<g id="edge4" class="edge">
<title>n1&#45;&gt;n5</title>
<path fill="none" stroke="black" d="M1086.3,-243.81C1112.1,-223.04 1155.6,-188.01 1184.6,-164.7"/>
<polygon fill="black" stroke="black" points="1187.12,-167.17 1192.7,-158.16 1182.72,-161.72 1187.12,-167.17"/>
</g>
<!-- n6 -->
<g id="node6" class="node">
<title>n6</title>
<polygon fill="#fffdd0" stroke="black" points="1683,-158 1453,-158 1453,-122 1683,-122 1683,-158"/>
<text text-anchor="middle" x="1568" y="-136.3" font-family="Arial" font-size="14.00">Dialogue bubbles from one student.</text>
</g>
<!-- n1&#45;&gt;n6 -->
<g id="edge5" class="edge">
<title>n1&#45;&gt;n6</title>
<path fill="none" stroke="black" d="M1136.3,-244C1228.8,-221.93 1389.8,-183.52 1486.9,-160.36"/>
<polygon fill="black" stroke="black" points="1487.69,-163.77 1496.6,-158.03 1486.06,-156.96 1487.69,-163.77"/>
</g>
<!-- n7 -->
<g id="node7" class="node">
<title>n7</title>
<polygon fill="#fffdd0" stroke="black" points="2063.5,-158 1806.5,-158 1806.5,-122 2063.5,-122 2063.5,-158"/>
<text text-anchor="middle" x="1935" y="-136.3" font-family="Arial" font-size="14.00">Minimal background like grass or a tree.</text>
</g>
<!-- n1&#45;&gt;n7 -->
<g id="edge6" class="edge">
<title>n1&#45;&gt;n7</title>
<path fill="none" stroke="black" d="M1181.9,-244.88C1343,-222.66 1632.4,-182.74 1801.7,-159.38"/>
<polygon fill="black" stroke="black" points="1802.27,-162.84 1811.7,-158.01 1801.32,-155.9 1802.27,-162.84"/>
</g>
<!-- n8 -->
<g id="node8" class="node">
<title>n8</title>
<path fill="palegreen" stroke="black" d="M412,-36C412,-36 12,-36 12,-36 6,-36 0,-30 0,-24 0,-24 0,-12 0,-12 0,-6 6,0 12,0 12,0 412,0 412,0 418,0 424,-6 424,-12 424,-12 424,-24 424,-24 424,-30 418,-36 412,-36"/>
<text text-anchor="middle" x="212" y="-14.3" font-family="Arial" font-size="14.00">The student understands the basic arrangement for communication.</text>
</g>
<!-- n2&#45;&gt;n8 -->
<g id="edge7" class="edge">
<title>n2&#45;&gt;n8</title>
<path fill="none" stroke="black" d="M253.98,-121.81C245.83,-101.85 232.29,-68.7 222.8,-45.45"/>
<polygon fill="black" stroke="black" points="226.03,-44.1 219.01,-36.16 219.55,-46.74 226.03,-44.1"/>
</g>
<!-- n9 -->
<g id="node9" class="node">
<title>n9</title>
<path fill="palegreen" stroke="black" d="M872,-36C872,-36 494,-36 494,-36 488,-36 482,-30 482,-24 482,-24 482,-12 482,-12 482,-6 488,0 494,0 494,0 872,0 872,0 878,0 884,-6 884,-12 884,-12 884,-24 884,-24 884,-30 878,-36 872,-36"/>
<text text-anchor="middle" x="683" y="-14.3" font-family="Arial" font-size="14.00">The student understands how the string telephone device works.</text>
</g>
<!-- n3&#45;&gt;n9 -->
<g id="edge8" class="edge">
<title>n3&#45;&gt;n9</title>
<path fill="none" stroke="black" d="M627.31,-121.81C638.17,-101.76 656.24,-68.4 668.84,-45.14"/>
<polygon fill="black" stroke="black" points="672.02,-46.62 673.7,-36.16 665.86,-43.29 672.02,-46.62"/>
</g>
<!-- n4&#45;&gt;n9 -->
<g id="edge9" class="edge">
<title>n4&#45;&gt;n9</title>
<path fill="none" stroke="black" d="M883.47,-121.81C841.86,-100.47 770.84,-64.05 725.46,-40.77"/>
<polygon fill="black" stroke="black" points="726.96,-37.61 716.46,-36.16 723.76,-43.84 726.96,-37.61"/>
</g>
<!-- n10 -->
<g id="node10" class="node">
<title>n10</title>
<path fill="palegreen" stroke="black" d="M1321.5,-36C1321.5,-36 954.5,-36 954.5,-36 948.5,-36 942.5,-30 942.5,-24 942.5,-24 942.5,-12 942.5,-12 942.5,-6 948.5,0 954.5,0 954.5,0 1321.5,0 1321.5,0 1327.5,0 1333.5,-6 1333.5,-12 1333.5,-12 1333.5,-24 1333.5,-24 1333.5,-30 1327.5,-36 1321.5,-36"/>
<text text-anchor="middle" x="1138" y="-14.3" font-family="Arial" font-size="14.00">The student understands how sound travels through the string.</text>
</g>
<!-- n5&#45;&gt;n10 -->
<g id="edge10" class="edge">
<title>n5&#45;&gt;n10</title>
<path fill="none" stroke="black" d="M1203.1,-121.81C1190.4,-101.67 1169.1,-68.1 1154.4,-44.83"/>
<polygon fill="black" stroke="black" points="1157.21,-42.73 1148.9,-36.16 1151.3,-46.48 1157.21,-42.73"/>
</g>
<!-- n11 -->
<g id="node11" class="node">
<title>n11</title>
<path fill="palegreen" stroke="black" d="M1758.5,-36C1758.5,-36 1403.5,-36 1403.5,-36 1397.5,-36 1391.5,-30 1391.5,-24 1391.5,-24 1391.5,-12 1391.5,-12 1391.5,-6 1397.5,0 1403.5,0 1403.5,0 1758.5,0 1758.5,0 1764.5,0 1770.5,-6 1770.5,-12 1770.5,-12 1770.5,-24 1770.5,-24 1770.5,-30 1764.5,-36 1758.5,-36"/>
<text text-anchor="middle" x="1581" y="-14.3" font-family="Arial" font-size="14.00">The student demonstrates intention to show communication.</text>
</g>
<!-- n6&#45;&gt;n11 -->
<g id="edge11" class="edge">
<title>n6&#45;&gt;n11</title>
<path fill="none" stroke="black" d="M1569.9,-121.81C1572,-102.11 1575.5,-69.58 1578,-46.39"/>
<polygon fill="black" stroke="black" points="1581.51,-46.48 1579.1,-36.16 1574.55,-45.73 1581.51,-46.48"/>
</g>
<!-- n12 -->
<g id="node12" class="node">
<title>n12</title>
<path fill="palegreen" stroke="black" d="M2159,-36C2159,-36 1841,-36 1841,-36 1835,-36 1829,-30 1829,-24 1829,-24 1829,-12 1829,-12 1829,-6 1835,0 1841,0 1841,0 2159,0 2159,0 2165,0 2171,-6 2171,-12 2171,-12 2171,-24 2171,-24 2171,-30 2165,-36 2159,-36"/>
<text text-anchor="middle" x="2000" y="-14.3" font-family="Arial" font-size="14.00">The student adds environmental context appropriately.</text>
</g>
<!-- n7&#45;&gt;n12 -->
<g id="edge12" class="edge">
<title>n7&#45;&gt;n12</title>
<path fill="none" stroke="black" d="M1944.3,-121.81C1955.2,-101.76 1973.2,-68.4 1985.8,-45.14"/>
<polygon fill="black" stroke="black" points="1988.98,-46.62 1990.7,-36.16 1982.84,-43.26 1988.98,-46.62"/>
</g>
</g>
</svg>
