<?xml version="1.0" encoding="UTF-8" standalone="no"?>
<!DOCTYPE svg PUBLIC "-//W3C//DTD SVG 1.1//EN"
 "http://www.w3.org/Graphics/SVG/1.1/DTD/svg11.dtd">
<!-- Generated by graphviz version 2.43.0 (0)
 -->
<!-- Pages: 1 -->
<svg width="1874pt" height="410pt"
 viewBox="0.00 0.00 1874.00 410.00" xmlns="http://www.w3.org/2000/svg" xmlns:xlink="http://www.w3.org/1999/xlink">
<g id="graph0" class="graph" transform="scale(1 1) rotate(0) translate(4 406)">
<polygon fill="white" stroke="transparent" points="-4,4 -4,-406 1870,-406 1870,4 -4,4"/>
<!-- n1 -->
<g id="node1" class="node">
<title>n1</title>
<polygon fill="lightblue" stroke="black" points="1211.37,-384 1068.69,-402 783.31,-402 640.63,-384 783.31,-366 1068.69,-366 1211.37,-384"/>
<text text-anchor="middle" x="926" y="-380.3" font-family="Arial" font-size="14.00">Draw animals in their habitats with labels (e.g., fish in water).</text>
</g>
<!-- n2 -->
<g id="node2" class="node">
<title>n2</title>
<polygon fill="#fffdd0" stroke="black" points="413,-280 57,-280 57,-244 413,-244 413,-280"/>
<text text-anchor="middle" x="235" y="-258.3" font-family="Arial" font-size="14.00">Tall tree with squirrel and bird, labeled &#39;squirrel&#39; and &#39;bird&#39;</text>
</g>
<!-- n1&#45;&gt;n2 -->
<g id="edge1" class="edge">
<title>n1&#45;&gt;n2</title>
<path fill="none" stroke="black" d="M828.1,-366C700.01,-343.75 476.27,-304.9 343.25,-281.8"/>
<polygon fill="black" stroke="black" points="343.49,-278.29 333.04,-280.03 342.3,-285.19 343.49,-278.29"/>
</g>
<!-- n3 -->
<g id="node3" class="node">
<title>n3</title>
<polygon fill="#fffdd0" stroke="black" points="708.5,-280 495.5,-280 495.5,-244 708.5,-244 708.5,-280"/>
<text text-anchor="middle" x="602" y="-258.3" font-family="Arial" font-size="14.00">Grass with rabbit, labeled &#39;rabbit&#39;</text>
</g>
<!-- n1&#45;&gt;n3 -->
<g id="edge2" class="edge">
<title>n1&#45;&gt;n3</title>
<path fill="none" stroke="black" d="M879.92,-365.93C821.38,-344.25 720.43,-306.86 657.65,-283.61"/>
<polygon fill="black" stroke="black" points="658.51,-280.2 647.92,-280.01 656.08,-286.76 658.51,-280.2"/>
</g>
<!-- n4 -->
<g id="node4" class="node">
<title>n4</title>
<polygon fill="#fffdd0" stroke="black" points="1080.5,-280 771.5,-280 771.5,-244 1080.5,-244 1080.5,-280"/>
<text text-anchor="middle" x="926" y="-258.3" font-family="Arial" font-size="14.00">Small stream with fish, labeled &#39;stream&#39; and &#39;fish&#39;</text>
</g>
<!-- n1&#45;&gt;n4 -->
<g id="edge3" class="edge">
<title>n1&#45;&gt;n4</title>
<path fill="none" stroke="black" d="M926,-365.81C926,-346.11 926,-313.58 926,-290.39"/>
<polygon fill="black" stroke="black" points="929.5,-290.16 926,-280.16 922.5,-290.16 929.5,-290.16"/>
</g>
<!-- n5 -->
<g id="node5" class="node">
<title>n5</title>
<polygon fill="#fffdd0" stroke="black" points="1410.5,-280 1151.5,-280 1151.5,-244 1410.5,-244 1410.5,-280"/>
<text text-anchor="middle" x="1281" y="-258.3" font-family="Arial" font-size="14.00">Flowers in the meadow, labeled &#39;flowers&#39;</text>
</g>
<!-- n1&#45;&gt;n5 -->
<g id="edge4" class="edge">
<title>n1&#45;&gt;n5</title>
<path fill="none" stroke="black" d="M976.49,-365.93C1040.9,-344.16 1152.1,-306.56 1220.9,-283.33"/>
<polygon fill="black" stroke="black" points="1222.35,-286.53 1230.7,-280.01 1220.11,-279.9 1222.35,-286.53"/>
</g>
<!-- n6 -->
<g id="node6" class="node">
<title>n6</title>
<polygon fill="#fffdd0" stroke="black" points="1688.5,-280 1545.5,-280 1545.5,-244 1688.5,-244 1688.5,-280"/>
<text text-anchor="middle" x="1617" y="-258.3" font-family="Arial" font-size="14.00">Bright sun, unlabeled</text>
</g>
<!-- n1&#45;&gt;n6 -->
<g id="edge5" class="edge">
<title>n1&#45;&gt;n6</title>
<path fill="none" stroke="black" d="M1023.9,-366C1160.9,-342.2 1407.4,-299.4 1535.2,-277.21"/>
<polygon fill="black" stroke="black" points="1536.05,-280.61 1545.3,-275.45 1534.85,-273.72 1536.05,-280.61"/>
</g>
<!-- n7 -->
<g id="node7" class="node">
<title>n7</title>
<path fill="palegreen" stroke="black" d="M400,-158C400,-158 12,-158 12,-158 6,-158 0,-152 0,-146 0,-146 0,-134 0,-134 0,-128 6,-122 12,-122 12,-122 400,-122 400,-122 406,-122 412,-128 412,-134 412,-134 412,-146 412,-146 412,-152 406,-158 400,-158"/>
<text text-anchor="middle" x="206" y="-136.3" font-family="Arial" font-size="14.00">Understanding of animals and habitats: squirrel in tree, bird in tree</text>
</g>
<!-- n2&#45;&gt;n7 -->
<g id="edge6" class="edge">
<title>n2&#45;&gt;n7</title>
<path fill="none" stroke="black" d="M230.85,-243.81C226.06,-224.02 218.15,-191.29 212.54,-168.08"/>
<polygon fill="black" stroke="black" points="215.89,-167.06 210.15,-158.16 209.09,-168.7 215.89,-167.06"/>
</g>
<!-- n8 -->
<g id="node8" class="node">
<title>n8</title>
<path fill="palegreen" stroke="black" d="M714,-158C714,-158 482,-158 482,-158 476,-158 470,-152 470,-146 470,-146 470,-134 470,-134 470,-128 476,-122 482,-122 482,-122 714,-122 714,-122 720,-122 726,-128 726,-134 726,-134 726,-146 726,-146 726,-152 720,-158 714,-158"/>
<text text-anchor="middle" x="598" y="-136.3" font-family="Arial" font-size="14.00">Understanding of habitat: rabbit in grass</text>
</g>
<!-- n3&#45;&gt;n8 -->
<g id="edge7" class="edge">
<title>n3&#45;&gt;n8</title>
<path fill="none" stroke="black" d="M601.43,-243.81C600.77,-224.11 599.69,-191.58 598.91,-168.39"/>
<polygon fill="black" stroke="black" points="602.4,-168.04 598.57,-158.16 595.4,-168.27 602.4,-168.04"/>
</g>
<!-- n9 -->
<g id="node9" class="node">
<title>n9</title>
<path fill="palegreen" stroke="black" d="M1056,-158C1056,-158 796,-158 796,-158 790,-158 784,-152 784,-146 784,-146 784,-134 784,-134 784,-128 790,-122 796,-122 796,-122 1056,-122 1056,-122 1062,-122 1068,-128 1068,-134 1068,-134 1068,-146 1068,-146 1068,-152 1062,-158 1056,-158"/>
<text text-anchor="middle" x="926" y="-136.3" font-family="Arial" font-size="14.00">Understanding of ecosystems: fish in stream</text>
</g>
<!-- n4&#45;&gt;n9 -->
<g id="edge8" class="edge">
<title>n4&#45;&gt;n9</title>
<path fill="none" stroke="black" d="M926,-243.81C926,-224.11 926,-191.58 926,-168.39"/>
<polygon fill="black" stroke="black" points="929.5,-168.16 926,-158.16 922.5,-168.16 929.5,-168.16"/>
</g>
<!-- n10 -->
<g id="node10" class="node">
<title>n10</title>
<path fill="palegreen" stroke="black" d="M1452,-158C1452,-158 1138,-158 1138,-158 1132,-158 1126,-152 1126,-146 1126,-146 1126,-134 1126,-134 1126,-128 1132,-122 1138,-122 1138,-122 1452,-122 1452,-122 1458,-122 1464,-128 1464,-134 1464,-134 1464,-146 1464,-146 1464,-152 1458,-158 1452,-158"/>
<text text-anchor="middle" x="1295" y="-136.3" font-family="Arial" font-size="14.00">Understanding of plants in habitat: flowers in meadow</text>
</g>
<!-- n5&#45;&gt;n10 -->
<g id="edge9" class="edge">
<title>n5&#45;&gt;n10</title>
<path fill="none" stroke="black" d="M1283,-243.81C1285.3,-224.11 1289.1,-191.58 1291.8,-168.39"/>
<polygon fill="black" stroke="black" points="1295.31,-168.5 1293,-158.16 1288.36,-167.68 1295.31,-168.5"/>
</g>
<!-- n11 -->
<g id="node11" class="node">
<title>n11</title>
<polygon fill="lightcoral" stroke="black" points="1694,-158 1522,-140 1694,-122 1866,-140 1694,-158"/>
<text text-anchor="middle" x="1694" y="-136.3" font-family="Arial" font-size="14.00">Missed labeling of sun&#39;s role</text>
</g>
<!-- n6&#45;&gt;n11 -->
<g id="edge10" class="edge">
<title>n6&#45;&gt;n11</title>
<path fill="none" stroke="black" d="M1628,-243.81C1641.2,-223.32 1663.2,-188.96 1678.2,-165.65"/>
<polygon fill="black" stroke="black" points="1681.28,-167.33 1683.7,-157.01 1675.38,-163.57 1681.28,-167.33"/>
</g>
<!-- n12 -->
<g id="node12" class="node">
<title>n12</title>
<polygon fill="#f28e8e" stroke="black" points="1861.5,-36 1526.5,-36 1526.5,0 1861.5,0 1861.5,-36"/>
<text text-anchor="middle" x="1694" y="-14.3" font-family="Arial" font-size="14.00">Label the sunlight to show its importance for habitats.</text>
</g>
<!-- n11&#45;&gt;n12 -->
<g id="edge11" class="edge">
<title>n11&#45;&gt;n12</title>
<path fill="none" stroke="black" d="M1694,-121.81C1694,-102.11 1694,-69.58 1694,-46.39"/>
<polygon fill="black" stroke="black" points="1697.5,-46.16 1694,-36.16 1690.5,-46.16 1697.5,-46.16"/>
</g>
</g>
</svg>
