<?xml version="1.0" encoding="UTF-8" standalone="no"?>
<!DOCTYPE svg PUBLIC "-//W3C//DTD SVG 1.1//EN"
 "http://www.w3.org/Graphics/SVG/1.1/DTD/svg11.dtd">
<!-- Generated by graphviz version 2.43.0 (0)
 -->
<!-- Pages: 1 -->
<svg width="848pt" height="288pt"
 viewBox="0.00 0.00 848.00 288.00" xmlns="http://www.w3.org/2000/svg" xmlns:xlink="http://www.w3.org/1999/xlink">
<g id="graph0" class="graph" transform="scale(1 1) rotate(0) translate(4 284)">
<polygon fill="white" stroke="transparent" points="-4,4 -4,-284 844,-284 844,4 -4,4"/>
<!-- n1 -->
<g id="node1" class="node">
<title>n1</title>
<polygon fill="lightblue" stroke="black" points="711.87,-262 569.19,-280 283.81,-280 141.13,-262 283.81,-244 569.19,-244 711.87,-262"/>
<text text-anchor="middle" x="426.5" y="-258.3" font-family="Arial" font-size="14.00">Draw animals in their habitats with labels (e.g., fish in water).</text>
</g>
<!-- n2 -->
<g id="node2" class="node">
<title>n2</title>
<polygon fill="#fffdd0" stroke="black" points="409,-158 0,-158 0,-122 409,-122 409,-158"/>
<text text-anchor="middle" x="204.5" y="-136.3" font-family="Arial" font-size="14.00">Colored fish in water labeled &#39;water&#39; with bubbles labeled &#39;oxygen&#39;</text>
</g>
<!-- n1&#45;&gt;n2 -->
<g id="edge1" class="edge">
<title>n1&#45;&gt;n2</title>
<path fill="none" stroke="black" d="M394.69,-243.81C355.29,-222.51 288.12,-186.2 245.05,-162.92"/>
<polygon fill="black" stroke="black" points="246.71,-159.84 236.25,-158.16 243.38,-166 246.71,-159.84"/>
</g>
<!-- n3 -->
<g id="node3" class="node">
<title>n3</title>
<polygon fill="#fffdd0" stroke="black" points="829.5,-158 467.5,-158 467.5,-122 829.5,-122 829.5,-158"/>
<text text-anchor="middle" x="648.5" y="-136.3" font-family="Arial" font-size="14.00">Green tree labeled &#39;tree&#39; with deer underneath and &#39;grass&#39;</text>
</g>
<!-- n1&#45;&gt;n3 -->
<g id="edge2" class="edge">
<title>n1&#45;&gt;n3</title>
<path fill="none" stroke="black" d="M458.31,-243.81C497.71,-222.51 564.88,-186.2 607.95,-162.92"/>
<polygon fill="black" stroke="black" points="609.62,-166 616.75,-158.16 606.29,-159.84 609.62,-166"/>
</g>
<!-- n4 -->
<g id="node4" class="node">
<title>n4</title>
<path fill="palegreen" stroke="black" d="M371,-36C371,-36 38,-36 38,-36 32,-36 26,-30 26,-24 26,-24 26,-12 26,-12 26,-6 32,0 38,0 38,0 371,0 371,0 377,0 383,-6 383,-12 383,-12 383,-24 383,-24 383,-30 377,-36 371,-36"/>
<text text-anchor="middle" x="204.5" y="-14.3" font-family="Arial" font-size="14.00">Fish in water shows understanding of habitat and oxygen</text>
</g>
<!-- n2&#45;&gt;n4 -->
<g id="edge3" class="edge">
<title>n2&#45;&gt;n4</title>
<path fill="none" stroke="black" d="M204.5,-121.81C204.5,-102.11 204.5,-69.58 204.5,-46.39"/>
<polygon fill="black" stroke="black" points="208,-46.16 204.5,-36.16 201,-46.16 208,-46.16"/>
</g>
<!-- n5 -->
<g id="node5" class="node">
<title>n5</title>
<path fill="palegreen" stroke="black" d="M828,-36C828,-36 469,-36 469,-36 463,-36 457,-30 457,-24 457,-24 457,-12 457,-12 457,-6 463,0 469,0 469,0 828,0 828,0 834,0 840,-6 840,-12 840,-12 840,-24 840,-24 840,-30 834,-36 828,-36"/>
<text text-anchor="middle" x="648.5" y="-14.3" font-family="Arial" font-size="14.00">Deer near tree and grass shows understanding of food needs</text>
</g>
<!-- n3&#45;&gt;n5 -->
<g id="edge4" class="edge">
<title>n3&#45;&gt;n5</title>
<path fill="none" stroke="black" d="M648.5,-121.81C648.5,-102.11 648.5,-69.58 648.5,-46.39"/>
<polygon fill="black" stroke="black" points="652,-46.16 648.5,-36.16 645,-46.16 652,-46.16"/>
</g>
</g>
</svg>
