<?xml version="1.0" encoding="UTF-8" standalone="no"?>
<!DOCTYPE svg PUBLIC "-//W3C//DTD SVG 1.1//EN"
 "http://www.w3.org/Graphics/SVG/1.1/DTD/svg11.dtd">
<!-- Generated by graphviz version 2.43.0 (0)
 -->
<!-- Pages: 1 -->
<svg width="1046pt" height="410pt"
 viewBox="0.00 0.00 1045.51 410.00" xmlns="http://www.w3.org/2000/svg" xmlns:xlink="http://www.w3.org/1999/xlink">
<g id="graph0" class="graph" transform="scale(1 1) rotate(0) translate(4 406)">
<polygon fill="white" stroke="transparent" points="-4,4 -4,-406 1041.51,-406 1041.51,4 -4,4"/>
<!-- n1 -->
<g id="node1" class="node">
<title>n1</title>
<polygon fill="lightblue" stroke="black" points="608.5,-384 517.25,-402 334.75,-402 243.5,-384 334.75,-366 517.25,-366 608.5,-384"/>
<text text-anchor="middle" x="426" y="-380.3" font-family="Arial" font-size="14.00">Draw a fish in their habitat with labels.</text>
</g>
<!-- n2 -->
<g id="node2" class="node">
<title>n2</title>
<polygon fill="#fffdd0" stroke="black" points="217,-280 105,-280 105,-244 217,-244 217,-280"/>
<text text-anchor="middle" x="161" y="-258.3" font-family="Arial" font-size="14.00">Simple oval fish</text>
</g>
<!-- n1&#45;&gt;n2 -->
<g id="edge1" class="edge">
<title>n1&#45;&gt;n2</title>
<path fill="none" stroke="black" d="M388.31,-365.93C340.83,-344.43 259.22,-307.48 207.79,-284.19"/>
<polygon fill="black" stroke="black" points="209.11,-280.95 198.56,-280.01 206.23,-287.32 209.11,-280.95"/>
</g>
<!-- n3 -->
<g id="node3" class="node">
<title>n3</title>
<polygon fill="#fffdd0" stroke="black" points="510.5,-280 341.5,-280 341.5,-244 510.5,-244 510.5,-280"/>
<text text-anchor="middle" x="426" y="-258.3" font-family="Arial" font-size="14.00">Large blue patch of water</text>
</g>
<!-- n1&#45;&gt;n3 -->
<g id="edge2" class="edge">
<title>n1&#45;&gt;n3</title>
<path fill="none" stroke="black" d="M426,-365.81C426,-346.11 426,-313.58 426,-290.39"/>
<polygon fill="black" stroke="black" points="429.5,-290.16 426,-280.16 422.5,-290.16 429.5,-290.16"/>
</g>
<!-- n4 -->
<g id="node4" class="node">
<title>n4</title>
<polygon fill="#fffdd0" stroke="black" points="793,-280 681,-280 681,-244 793,-244 793,-280"/>
<text text-anchor="middle" x="737" y="-258.3" font-family="Arial" font-size="14.00">Clouds and tree</text>
</g>
<!-- n1&#45;&gt;n4 -->
<g id="edge3" class="edge">
<title>n1&#45;&gt;n4</title>
<path fill="none" stroke="black" d="M470.23,-365.93C526.42,-344.25 623.32,-306.86 683.58,-283.61"/>
<polygon fill="black" stroke="black" points="684.85,-286.87 692.92,-280.01 682.33,-280.34 684.85,-286.87"/>
</g>
<!-- n5 -->
<g id="node5" class="node">
<title>n5</title>
<path fill="palegreen" stroke="black" d="M178,-158C178,-158 12,-158 12,-158 6,-158 0,-152 0,-146 0,-146 0,-134 0,-134 0,-128 6,-122 12,-122 12,-122 178,-122 178,-122 184,-122 190,-128 190,-134 190,-134 190,-146 190,-146 190,-152 184,-158 178,-158"/>
<text text-anchor="middle" x="95" y="-136.3" font-family="Arial" font-size="14.00">Fish in basic form (no labels)</text>
</g>
<!-- n2&#45;&gt;n5 -->
<g id="edge4" class="edge">
<title>n2&#45;&gt;n5</title>
<path fill="none" stroke="black" d="M151.54,-243.81C140.52,-223.76 122.17,-190.4 109.38,-167.14"/>
<polygon fill="black" stroke="black" points="112.33,-165.23 104.44,-158.16 106.19,-168.61 112.33,-165.23"/>
</g>
<!-- n6 -->
<g id="node6" class="node">
<title>n6</title>
<polygon fill="lightcoral" stroke="black" points="426,-158 247.5,-140 426,-122 604.5,-140 426,-158"/>
<text text-anchor="middle" x="426" y="-136.3" font-family="Arial" font-size="14.00">Water as habitat (not labeled)</text>
</g>
<!-- n3&#45;&gt;n6 -->
<g id="edge5" class="edge">
<title>n3&#45;&gt;n6</title>
<path fill="none" stroke="black" d="M426,-243.81C426,-224.11 426,-191.58 426,-168.39"/>
<polygon fill="black" stroke="black" points="429.5,-168.16 426,-158.16 422.5,-168.16 429.5,-168.16"/>
</g>
<!-- n7 -->
<g id="node7" class="node">
<title>n7</title>
<polygon fill="lightcoral" stroke="black" points="850,-158 662.48,-140 850,-122 1037.52,-140 850,-158"/>
<text text-anchor="middle" x="850" y="-136.3" font-family="Arial" font-size="14.00">Inclusion of unrelated elements</text>
</g>
<!-- n4&#45;&gt;n7 -->
<g id="edge6" class="edge">
<title>n4&#45;&gt;n7</title>
<path fill="none" stroke="black" d="M753.19,-243.81C772.93,-222.85 806.36,-187.34 828.31,-164.03"/>
<polygon fill="black" stroke="black" points="830.97,-166.31 835.28,-156.63 825.88,-161.51 830.97,-166.31"/>
</g>
<!-- n8 -->
<g id="node8" class="node">
<title>n8</title>
<polygon fill="#f28e8e" stroke="black" points="508.5,-36 343.5,-36 343.5,0 508.5,0 508.5,-36"/>
<text text-anchor="middle" x="426" y="-14.3" font-family="Arial" font-size="14.00">Label water environment</text>
</g>
<!-- n6&#45;&gt;n8 -->
<g id="edge7" class="edge">
<title>n6&#45;&gt;n8</title>
<path fill="none" stroke="black" d="M426,-121.81C426,-102.11 426,-69.58 426,-46.39"/>
<polygon fill="black" stroke="black" points="429.5,-46.16 426,-36.16 422.5,-46.16 429.5,-46.16"/>
</g>
<!-- n9 -->
<g id="node9" class="node">
<title>n9</title>
<polygon fill="#f28e8e" stroke="black" points="963.5,-36 736.5,-36 736.5,0 963.5,0 963.5,-36"/>
<text text-anchor="middle" x="850" y="-14.3" font-family="Arial" font-size="14.00">Focus on relevant habitat elements</text>
</g>
<!-- n7&#45;&gt;n9 -->
<g id="edge8" class="edge">
<title>n7&#45;&gt;n9</title>
<path fill="none" stroke="black" d="M850,-121.81C850,-102.11 850,-69.58 850,-46.39"/>
<polygon fill="black" stroke="black" points="853.5,-46.16 850,-36.16 846.5,-46.16 853.5,-46.16"/>
</g>
</g>
</svg>
