<?xml version="1.0" encoding="UTF-8" standalone="no"?>
<!DOCTYPE svg PUBLIC "-//W3C//DTD SVG 1.1//EN"
 "http://www.w3.org/Graphics/SVG/1.1/DTD/svg11.dtd">
<!-- Generated by graphviz version 2.43.0 (0)
 -->
<!-- Pages: 1 -->
<svg width="1470pt" height="410pt"
 viewBox="0.00 0.00 1470.00 410.00" xmlns="http://www.w3.org/2000/svg" xmlns:xlink="http://www.w3.org/1999/xlink">
<g id="graph0" class="graph" transform="scale(1 1) rotate(0) translate(4 406)">
<polygon fill="white" stroke="transparent" points="-4,4 -4,-406 1466,-406 1466,4 -4,4"/>
<!-- n1 -->
<g id="node1" class="node">
<title>n1</title>
<polygon fill="lightblue" stroke="black" points="1178,-384 1086.75,-402 904.25,-402 813,-384 904.25,-366 1086.75,-366 1178,-384"/>
<text text-anchor="middle" x="995.5" y="-380.3" font-family="Arial" font-size="14.00">Draw a fish in their habitat with labels.</text>
</g>
<!-- n2 -->
<g id="node2" class="node">
<title>n2</title>
<polygon fill="#fffdd0" stroke="black" points="645.5,-280 425.5,-280 425.5,-244 645.5,-244 645.5,-280"/>
<text text-anchor="middle" x="535.5" y="-258.3" font-family="Arial" font-size="14.00">Fish with fins and tail labeled &#39;fish&#39;</text>
</g>
<!-- n1&#45;&gt;n2 -->
<g id="edge1" class="edge">
<title>n1&#45;&gt;n2</title>
<path fill="none" stroke="black" d="M930.08,-365.93C845.69,-343.92 699.21,-305.71 610.43,-282.55"/>
<polygon fill="black" stroke="black" points="611.25,-279.15 600.69,-280.01 609.48,-285.92 611.25,-279.15"/>
</g>
<!-- n3 -->
<g id="node3" class="node">
<title>n3</title>
<polygon fill="#fffdd0" stroke="black" points="1111.5,-280 879.5,-280 879.5,-244 1111.5,-244 1111.5,-280"/>
<text text-anchor="middle" x="995.5" y="-258.3" font-family="Arial" font-size="14.00">Blue wavy&#45;lined area labeled &#39;water&#39;</text>
</g>
<!-- n1&#45;&gt;n3 -->
<g id="edge2" class="edge">
<title>n1&#45;&gt;n3</title>
<path fill="none" stroke="black" d="M995.5,-365.81C995.5,-346.11 995.5,-313.58 995.5,-290.39"/>
<polygon fill="black" stroke="black" points="999,-290.16 995.5,-280.16 992,-290.16 999,-290.16"/>
</g>
<!-- n4 -->
<g id="node4" class="node">
<title>n4</title>
<polygon fill="#fffdd0" stroke="black" points="1451.5,-280 1179.5,-280 1179.5,-244 1451.5,-244 1451.5,-280"/>
<text text-anchor="middle" x="1315.5" y="-258.3" font-family="Arial" font-size="14.00">Green, sponge&#45;like shapes labeled &#39;plants&#39;</text>
</g>
<!-- n1&#45;&gt;n4 -->
<g id="edge3" class="edge">
<title>n1&#45;&gt;n4</title>
<path fill="none" stroke="black" d="M1041,-365.93C1098.8,-344.25 1198.5,-306.86 1260.5,-283.61"/>
<polygon fill="black" stroke="black" points="1261.97,-286.8 1270.1,-280.01 1259.51,-280.24 1261.97,-286.8"/>
</g>
<!-- n5 -->
<g id="node5" class="node">
<title>n5</title>
<path fill="palegreen" stroke="black" d="M199,-158C199,-158 12,-158 12,-158 6,-158 0,-152 0,-146 0,-146 0,-134 0,-134 0,-128 6,-122 12,-122 12,-122 199,-122 199,-122 205,-122 211,-128 211,-134 211,-134 211,-146 211,-146 211,-152 205,-158 199,-158"/>
<text text-anchor="middle" x="105.5" y="-136.3" font-family="Arial" font-size="14.00">Correctly identifies fish in habitat</text>
</g>
<!-- n2&#45;&gt;n5 -->
<g id="edge4" class="edge">
<title>n2&#45;&gt;n5</title>
<path fill="none" stroke="black" d="M474.35,-243.93C395.7,-221.99 259.36,-183.94 176.3,-160.76"/>
<polygon fill="black" stroke="black" points="177.01,-157.33 166.44,-158.01 175.13,-164.07 177.01,-157.33"/>
</g>
<!-- n8 -->
<g id="node6" class="node">
<title>n8</title>
<polygon fill="lightcoral" stroke="black" points="535.5,-158 268.89,-140 535.5,-122 802.11,-140 535.5,-158"/>
<text text-anchor="middle" x="535.5" y="-136.3" font-family="Arial" font-size="14.00">Incomplete understanding of ecosystem roles</text>
</g>
<!-- n2&#45;&gt;n8 -->
<g id="edge5" class="edge">
<title>n2&#45;&gt;n8</title>
<path fill="none" stroke="black" d="M535.5,-243.81C535.5,-224.11 535.5,-191.58 535.5,-168.39"/>
<polygon fill="black" stroke="black" points="539,-168.16 535.5,-158.16 532,-168.16 539,-168.16"/>
</g>
<!-- n6 -->
<g id="node7" class="node">
<title>n6</title>
<path fill="palegreen" stroke="black" d="M1119,-158C1119,-158 872,-158 872,-158 866,-158 860,-152 860,-146 860,-146 860,-134 860,-134 860,-128 866,-122 872,-122 872,-122 1119,-122 1119,-122 1125,-122 1131,-128 1131,-134 1131,-134 1131,-146 1131,-146 1131,-152 1125,-158 1119,-158"/>
<text text-anchor="middle" x="995.5" y="-136.3" font-family="Arial" font-size="14.00">Correctly understands water is vital for fish</text>
</g>
<!-- n3&#45;&gt;n6 -->
<g id="edge6" class="edge">
<title>n3&#45;&gt;n6</title>
<path fill="none" stroke="black" d="M995.5,-243.81C995.5,-224.11 995.5,-191.58 995.5,-168.39"/>
<polygon fill="black" stroke="black" points="999,-168.16 995.5,-158.16 992,-168.16 999,-168.16"/>
</g>
<!-- n7 -->
<g id="node8" class="node">
<title>n7</title>
<path fill="palegreen" stroke="black" d="M1450,-158C1450,-158 1201,-158 1201,-158 1195,-158 1189,-152 1189,-146 1189,-146 1189,-134 1189,-134 1189,-128 1195,-122 1201,-122 1201,-122 1450,-122 1450,-122 1456,-122 1462,-128 1462,-134 1462,-134 1462,-146 1462,-146 1462,-152 1456,-158 1450,-158"/>
<text text-anchor="middle" x="1325.5" y="-136.3" font-family="Arial" font-size="14.00">Understands plants can exist in fish habitat</text>
</g>
<!-- n4&#45;&gt;n7 -->
<g id="edge7" class="edge">
<title>n4&#45;&gt;n7</title>
<path fill="none" stroke="black" d="M1316.9,-243.81C1318.6,-224.11 1321.3,-191.58 1323.2,-168.39"/>
<polygon fill="black" stroke="black" points="1326.71,-168.43 1324.1,-158.16 1319.74,-167.81 1326.71,-168.43"/>
</g>
<!-- n9 -->
<g id="node9" class="node">
<title>n9</title>
<polygon fill="#f28e8e" stroke="black" points="838,-36 233,-36 233,0 838,0 838,-36"/>
<text text-anchor="middle" x="535.5" y="-14.3" font-family="Arial" font-size="14.00">Encourage exploring fish&#39;s interactions with plants and water system, e.g., plants providing oxygen</text>
</g>
<!-- n8&#45;&gt;n9 -->
<g id="edge8" class="edge">
<title>n8&#45;&gt;n9</title>
<path fill="none" stroke="black" d="M535.5,-121.81C535.5,-102.11 535.5,-69.58 535.5,-46.39"/>
<polygon fill="black" stroke="black" points="539,-46.16 535.5,-36.16 532,-46.16 539,-46.16"/>
</g>
</g>
</svg>
