<?xml version="1.0" encoding="UTF-8" standalone="no"?>
<!DOCTYPE svg PUBLIC "-//W3C//DTD SVG 1.1//EN"
 "http://www.w3.org/Graphics/SVG/1.1/DTD/svg11.dtd">
<!-- Generated by graphviz version 2.43.0 (0)
 -->
<!-- Pages: 1 -->
<svg width="1838pt" height="410pt"
 viewBox="0.00 0.00 1838.00 410.00" xmlns="http://www.w3.org/2000/svg" xmlns:xlink="http://www.w3.org/1999/xlink">
<g id="graph0" class="graph" transform="scale(1 1) rotate(0) translate(4 406)">
<polygon fill="white" stroke="transparent" points="-4,4 -4,-406 1834,-406 1834,4 -4,4"/>
<!-- n1 -->
<g id="node1" class="node">
<title>n1</title>
<polygon fill="lightblue" stroke="black" points="1271.5,-384 1180.25,-402 997.75,-402 906.5,-384 997.75,-366 1180.25,-366 1271.5,-384"/>
<text text-anchor="middle" x="1089" y="-380.3" font-family="Arial" font-size="14.00">Draw reversible changes (ice melting)</text>
</g>
<!-- n2 -->
<g id="node2" class="node">
<title>n2</title>
<polygon fill="#fffdd0" stroke="black" points="1042.5,-280 801.5,-280 801.5,-244 1042.5,-244 1042.5,-280"/>
<text text-anchor="middle" x="922" y="-258.3" font-family="Arial" font-size="14.00">Drawing of a blue square labeled &#39;ice&#39;</text>
</g>
<!-- n1&#45;&gt;n2 -->
<g id="edge1" class="edge">
<title>n1&#45;&gt;n2</title>
<path fill="none" stroke="black" d="M1065.1,-365.81C1035.9,-344.87 986.59,-309.41 954.15,-286.1"/>
<polygon fill="black" stroke="black" points="956.04,-283.15 945.88,-280.16 951.96,-288.84 956.04,-283.15"/>
</g>
<!-- n3 -->
<g id="node3" class="node">
<title>n3</title>
<polygon fill="#fffdd0" stroke="black" points="1650.5,-280 1339.5,-280 1339.5,-244 1650.5,-244 1650.5,-280"/>
<text text-anchor="middle" x="1495" y="-258.3" font-family="Arial" font-size="14.00">Drawing of a roundish blue puddle labeled &#39;water&#39;</text>
</g>
<!-- n1&#45;&gt;n3 -->
<g id="edge2" class="edge">
<title>n1&#45;&gt;n3</title>
<path fill="none" stroke="black" d="M1146.7,-365.93C1220.8,-344.03 1349.2,-306.09 1427.7,-282.9"/>
<polygon fill="black" stroke="black" points="1428.9,-286.2 1437.5,-280.01 1426.92,-279.48 1428.9,-286.2"/>
</g>
<!-- n4 -->
<g id="node4" class="node">
<title>n4</title>
<path fill="palegreen" stroke="black" d="M158,-158C158,-158 12,-158 12,-158 6,-158 0,-152 0,-146 0,-146 0,-134 0,-134 0,-128 6,-122 12,-122 12,-122 158,-122 158,-122 164,-122 170,-128 170,-134 170,-134 170,-146 170,-146 170,-152 164,-158 158,-158"/>
<text text-anchor="middle" x="85" y="-136.3" font-family="Arial" font-size="14.00">Understands ice is a solid</text>
</g>
<!-- n2&#45;&gt;n4 -->
<g id="edge3" class="edge">
<title>n2&#45;&gt;n4</title>
<path fill="none" stroke="black" d="M801.4,-244.06C657.84,-223.85 410.87,-188.89 199,-158 192.89,-157.11 186.6,-156.19 180.26,-155.25"/>
<polygon fill="black" stroke="black" points="180.67,-151.77 170.27,-153.78 179.65,-158.7 180.67,-151.77"/>
</g>
<!-- n6 -->
<g id="node5" class="node">
<title>n6</title>
<polygon fill="lightcoral" stroke="black" points="569,-158 227.99,-140 569,-122 910.01,-140 569,-158"/>
<text text-anchor="middle" x="569" y="-136.3" font-family="Arial" font-size="14.00">Lacks representation of transition process from ice to water</text>
</g>
<!-- n2&#45;&gt;n6 -->
<g id="edge4" class="edge">
<title>n2&#45;&gt;n6</title>
<path fill="none" stroke="black" d="M871.8,-243.93C805.58,-221.42 689.55,-181.98 621.97,-159.01"/>
<polygon fill="black" stroke="black" points="622.96,-155.65 612.37,-155.74 620.71,-162.28 622.96,-155.65"/>
</g>
<!-- n7 -->
<g id="node6" class="node">
<title>n7</title>
<polygon fill="lightcoral" stroke="black" points="1275,-158 968,-140 1275,-122 1582,-140 1275,-158"/>
<text text-anchor="middle" x="1275" y="-136.3" font-family="Arial" font-size="14.00">Minimal labels, missing concept of reversible change</text>
</g>
<!-- n2&#45;&gt;n7 -->
<g id="edge5" class="edge">
<title>n2&#45;&gt;n7</title>
<path fill="none" stroke="black" d="M972.2,-243.93C1038.6,-221.36 1155.1,-181.76 1222.6,-158.82"/>
<polygon fill="black" stroke="black" points="1223.86,-162.09 1232.2,-155.56 1221.61,-155.46 1223.86,-162.09"/>
</g>
<!-- n5 -->
<g id="node7" class="node">
<title>n5</title>
<path fill="palegreen" stroke="black" d="M1818,-158C1818,-158 1652,-158 1652,-158 1646,-158 1640,-152 1640,-146 1640,-146 1640,-134 1640,-134 1640,-128 1646,-122 1652,-122 1652,-122 1818,-122 1818,-122 1824,-122 1830,-128 1830,-134 1830,-134 1830,-146 1830,-146 1830,-152 1824,-158 1818,-158"/>
<text text-anchor="middle" x="1735" y="-136.3" font-family="Arial" font-size="14.00">Understands water is a liquid</text>
</g>
<!-- n3&#45;&gt;n5 -->
<g id="edge6" class="edge">
<title>n3&#45;&gt;n5</title>
<path fill="none" stroke="black" d="M1529.1,-243.93C1572,-222.52 1645.4,-185.78 1692,-162.48"/>
<polygon fill="black" stroke="black" points="1693.6,-165.59 1701,-158.01 1690.49,-159.32 1693.6,-165.59"/>
</g>
<!-- n8 -->
<g id="node8" class="node">
<title>n8</title>
<polygon fill="#f28e8e" stroke="black" points="738,-36 400,-36 400,0 738,0 738,-36"/>
<text text-anchor="middle" x="569" y="-14.3" font-family="Arial" font-size="14.00">Show transition: use arrows/indicators between states</text>
</g>
<!-- n6&#45;&gt;n8 -->
<g id="edge7" class="edge">
<title>n6&#45;&gt;n8</title>
<path fill="none" stroke="black" d="M569,-121.81C569,-102.11 569,-69.58 569,-46.39"/>
<polygon fill="black" stroke="black" points="572.5,-46.16 569,-36.16 565.5,-46.16 572.5,-46.16"/>
</g>
<!-- n9 -->
<g id="node9" class="node">
<title>n9</title>
<polygon fill="#f28e8e" stroke="black" points="1418,-36 1132,-36 1132,0 1418,0 1418,-36"/>
<text text-anchor="middle" x="1275" y="-14.3" font-family="Arial" font-size="14.00">Include labels indicating melting and freezing</text>
</g>
<!-- n7&#45;&gt;n9 -->
<g id="edge8" class="edge">
<title>n7&#45;&gt;n9</title>
<path fill="none" stroke="black" d="M1275,-121.81C1275,-102.11 1275,-69.58 1275,-46.39"/>
<polygon fill="black" stroke="black" points="1278.5,-46.16 1275,-36.16 1271.5,-46.16 1278.5,-46.16"/>
</g>
</g>
</svg>
