<?xml version="1.0" encoding="UTF-8" standalone="no"?>
<!DOCTYPE svg PUBLIC "-//W3C//DTD SVG 1.1//EN"
 "http://www.w3.org/Graphics/SVG/1.1/DTD/svg11.dtd">
<!-- Generated by graphviz version 2.43.0 (0)
 -->
<!-- Pages: 1 -->
<svg width="1767pt" height="410pt"
 viewBox="0.00 0.00 1766.50 410.00" xmlns="http://www.w3.org/2000/svg" xmlns:xlink="http://www.w3.org/1999/xlink">
<g id="graph0" class="graph" transform="scale(1 1) rotate(0) translate(4 406)">
<polygon fill="white" stroke="transparent" points="-4,4 -4,-406 1762.5,-406 1762.5,4 -4,4"/>
<!-- n1 -->
<g id="node1" class="node">
<title>n1</title>
<polygon fill="lightblue" stroke="black" points="883,-384 791.75,-402 609.25,-402 518,-384 609.25,-366 791.75,-366 883,-384"/>
<text text-anchor="middle" x="700.5" y="-380.3" font-family="Arial" font-size="14.00">Draw a fish in their habitat with labels.</text>
</g>
<!-- n2 -->
<g id="node2" class="node">
<title>n2</title>
<polygon fill="#fffdd0" stroke="black" points="250.5,-280 34.5,-280 34.5,-244 250.5,-244 250.5,-280"/>
<text text-anchor="middle" x="142.5" y="-258.3" font-family="Arial" font-size="14.00">A simple fish shape labeled &#39;Fish&#39;</text>
</g>
<!-- n1&#45;&gt;n2 -->
<g id="edge1" class="edge">
<title>n1&#45;&gt;n2</title>
<path fill="none" stroke="black" d="M621.44,-366C518.52,-343.87 339.14,-305.29 231.54,-282.15"/>
<polygon fill="black" stroke="black" points="232.18,-278.71 221.67,-280.03 230.71,-285.55 232.18,-278.71"/>
</g>
<!-- n3 -->
<g id="node3" class="node">
<title>n3</title>
<polygon fill="#fffdd0" stroke="black" points="698,-280 309,-280 309,-244 698,-244 698,-280"/>
<text text-anchor="middle" x="503.5" y="-258.3" font-family="Arial" font-size="14.00">Wavy blue lines indicating &#39;Water for swimming and breathing&#39;</text>
</g>
<!-- n1&#45;&gt;n3 -->
<g id="edge2" class="edge">
<title>n1&#45;&gt;n3</title>
<path fill="none" stroke="black" d="M672.27,-365.81C637.6,-344.69 578.7,-308.81 540.45,-285.51"/>
<polygon fill="black" stroke="black" points="542.03,-282.37 531.67,-280.16 538.39,-288.35 542.03,-282.37"/>
</g>
<!-- n4 -->
<g id="node4" class="node">
<title>n4</title>
<polygon fill="#fffdd0" stroke="black" points="1408.5,-280 1098.5,-280 1098.5,-244 1408.5,-244 1408.5,-280"/>
<text text-anchor="middle" x="1253.5" y="-258.3" font-family="Arial" font-size="14.00">Drawing of aquatic plants labeled &#39;Aquatic plants&#39;</text>
</g>
<!-- n1&#45;&gt;n4 -->
<g id="edge3" class="edge">
<title>n1&#45;&gt;n4</title>
<path fill="none" stroke="black" d="M778.85,-366C880.85,-343.87 1058.6,-305.29 1165.3,-282.15"/>
<polygon fill="black" stroke="black" points="1165.98,-285.58 1175,-280.03 1164.48,-278.75 1165.98,-285.58"/>
</g>
<!-- n5 -->
<g id="node5" class="node">
<title>n5</title>
<polygon fill="#fffdd0" stroke="black" points="1040.5,-280 756.5,-280 756.5,-244 1040.5,-244 1040.5,-280"/>
<text text-anchor="middle" x="898.5" y="-258.3" font-family="Arial" font-size="14.00">A smaller fish near plants labeled &#39;Small fish&#39;</text>
</g>
<!-- n1&#45;&gt;n5 -->
<g id="edge4" class="edge">
<title>n1&#45;&gt;n5</title>
<path fill="none" stroke="black" d="M728.87,-365.81C763.71,-344.69 822.92,-308.81 861.36,-285.51"/>
<polygon fill="black" stroke="black" points="863.45,-288.34 870.18,-280.16 859.81,-282.35 863.45,-288.34"/>
</g>
<!-- n6 -->
<g id="node6" class="node">
<title>n6</title>
<path fill="palegreen" stroke="black" d="M273,-158C273,-158 12,-158 12,-158 6,-158 0,-152 0,-146 0,-146 0,-134 0,-134 0,-128 6,-122 12,-122 12,-122 273,-122 273,-122 279,-122 285,-128 285,-134 285,-134 285,-146 285,-146 285,-152 279,-158 273,-158"/>
<text text-anchor="middle" x="142.5" y="-136.3" font-family="Arial" font-size="14.00">Fish correctly labeled as part of water habitat</text>
</g>
<!-- n2&#45;&gt;n6 -->
<g id="edge5" class="edge">
<title>n2&#45;&gt;n6</title>
<path fill="none" stroke="black" d="M142.5,-243.81C142.5,-224.11 142.5,-191.58 142.5,-168.39"/>
<polygon fill="black" stroke="black" points="146,-168.16 142.5,-158.16 139,-168.16 146,-168.16"/>
</g>
<!-- n7 -->
<g id="node7" class="node">
<title>n7</title>
<path fill="palegreen" stroke="black" d="M650.5,-158C650.5,-158 356.5,-158 356.5,-158 350.5,-158 344.5,-152 344.5,-146 344.5,-146 344.5,-134 344.5,-134 344.5,-128 350.5,-122 356.5,-122 356.5,-122 650.5,-122 650.5,-122 656.5,-122 662.5,-128 662.5,-134 662.5,-134 662.5,-146 662.5,-146 662.5,-152 656.5,-158 650.5,-158"/>
<text text-anchor="middle" x="503.5" y="-136.3" font-family="Arial" font-size="14.00">Student shows fish interacts with water for survival</text>
</g>
<!-- n3&#45;&gt;n7 -->
<g id="edge6" class="edge">
<title>n3&#45;&gt;n7</title>
<path fill="none" stroke="black" d="M503.5,-243.81C503.5,-224.11 503.5,-191.58 503.5,-168.39"/>
<polygon fill="black" stroke="black" points="507,-168.16 503.5,-158.16 500,-168.16 507,-168.16"/>
</g>
<!-- n8 -->
<g id="node8" class="node">
<title>n8</title>
<path fill="palegreen" stroke="black" d="M1050.5,-158C1050.5,-158 746.5,-158 746.5,-158 740.5,-158 734.5,-152 734.5,-146 734.5,-146 734.5,-134 734.5,-134 734.5,-128 740.5,-122 746.5,-122 746.5,-122 1050.5,-122 1050.5,-122 1056.5,-122 1062.5,-128 1062.5,-134 1062.5,-134 1062.5,-146 1062.5,-146 1062.5,-152 1056.5,-158 1050.5,-158"/>
<text text-anchor="middle" x="898.5" y="-136.3" font-family="Arial" font-size="14.00">Includes other habitat inhabitants (plants, small fish)</text>
</g>
<!-- n4&#45;&gt;n8 -->
<g id="edge7" class="edge">
<title>n4&#45;&gt;n8</title>
<path fill="none" stroke="black" d="M1203,-243.93C1138.6,-222.16 1027.4,-184.56 958.63,-161.33"/>
<polygon fill="black" stroke="black" points="959.4,-157.9 948.81,-158.01 957.16,-164.53 959.4,-157.9"/>
</g>
<!-- n9 -->
<g id="node9" class="node">
<title>n9</title>
<polygon fill="lightcoral" stroke="black" points="1401.5,-158 1120,-140 1401.5,-122 1683,-140 1401.5,-158"/>
<text text-anchor="middle" x="1401.5" y="-136.3" font-family="Arial" font-size="14.00">Interactions like &#39;small fish as food&#39; are indicated</text>
</g>
<!-- n4&#45;&gt;n9 -->
<g id="edge8" class="edge">
<title>n4&#45;&gt;n9</title>
<path fill="none" stroke="black" d="M1274.7,-243.81C1300.7,-222.69 1345,-186.81 1373.7,-163.52"/>
<polygon fill="black" stroke="black" points="1376.2,-166 1381.8,-157.01 1371.81,-160.55 1376.2,-166"/>
</g>
<!-- n5&#45;&gt;n8 -->
<g id="edge9" class="edge">
<title>n5&#45;&gt;n8</title>
<path fill="none" stroke="black" d="M898.5,-243.81C898.5,-224.11 898.5,-191.58 898.5,-168.39"/>
<polygon fill="black" stroke="black" points="902,-168.16 898.5,-158.16 895,-168.16 902,-168.16"/>
</g>
<!-- n10 -->
<g id="node10" class="node">
<title>n10</title>
<polygon fill="#f28e8e" stroke="black" points="1758.5,-36 1044.5,-36 1044.5,0 1758.5,0 1758.5,-36"/>
<text text-anchor="middle" x="1401.5" y="-14.3" font-family="Arial" font-size="14.00">Detailed ecosystem interactions not fully represented. Suggest learning about food chains and detailed fish anatomy.</text>
</g>
<!-- n9&#45;&gt;n10 -->
<g id="edge10" class="edge">
<title>n9&#45;&gt;n10</title>
<path fill="none" stroke="black" d="M1401.5,-121.81C1401.5,-102.11 1401.5,-69.58 1401.5,-46.39"/>
<polygon fill="black" stroke="black" points="1405,-46.16 1401.5,-36.16 1398,-46.16 1405,-46.16"/>
</g>
</g>
</svg>
