<?xml version="1.0" encoding="UTF-8" standalone="no"?>
<!DOCTYPE svg PUBLIC "-//W3C//DTD SVG 1.1//EN"
 "http://www.w3.org/Graphics/SVG/1.1/DTD/svg11.dtd">
<!-- Generated by graphviz version 2.43.0 (0)
 -->
<!-- Pages: 1 -->
<svg width="1245pt" height="532pt"
 viewBox="0.00 0.00 1244.50 532.00" xmlns="http://www.w3.org/2000/svg" xmlns:xlink="http://www.w3.org/1999/xlink">
<g id="graph0" class="graph" transform="scale(1 1) rotate(0) translate(4 528)">
<polygon fill="white" stroke="transparent" points="-4,4 -4,-528 1240.5,-528 1240.5,4 -4,4"/>
<!-- n1 -->
<g id="node1" class="node">
<title>n1</title>
<polygon fill="lightblue" stroke="black" points="724.5,-506 610.75,-524 383.25,-524 269.5,-506 383.25,-488 610.75,-488 724.5,-506"/>
<text text-anchor="middle" x="497" y="-502.3" font-family="Arial" font-size="14.00">Illustrate plants with and without water and light.</text>
</g>
<!-- n2 -->
<g id="node2" class="node">
<title>n2</title>
<polygon fill="#fffdd0" stroke="black" points="604.5,-402 389.5,-402 389.5,-366 604.5,-366 604.5,-402"/>
<text text-anchor="middle" x="497" y="-380.3" font-family="Arial" font-size="14.00">Two pairs of potted plants drawn.</text>
</g>
<!-- n1&#45;&gt;n2 -->
<g id="edge1" class="edge">
<title>n1&#45;&gt;n2</title>
<path fill="none" stroke="black" d="M497,-487.81C497,-468.11 497,-435.58 497,-412.39"/>
<polygon fill="black" stroke="black" points="500.5,-412.16 497,-402.16 493.5,-412.16 500.5,-412.16"/>
</g>
<!-- n3 -->
<g id="node3" class="node">
<title>n3</title>
<path fill="palegreen" stroke="black" d="M300,-280C300,-280 12,-280 12,-280 6,-280 0,-274 0,-268 0,-268 0,-256 0,-256 0,-250 6,-244 12,-244 12,-244 300,-244 300,-244 306,-244 312,-250 312,-256 312,-256 312,-268 312,-268 312,-274 306,-280 300,-280"/>
<text text-anchor="middle" x="156" y="-258.3" font-family="Arial" font-size="14.00">With water &amp; light: Healthy, green, upright leaves.</text>
</g>
<!-- n2&#45;&gt;n3 -->
<g id="edge2" class="edge">
<title>n2&#45;&gt;n3</title>
<path fill="none" stroke="black" d="M448.51,-365.93C386.77,-344.21 280.21,-306.71 214.17,-283.47"/>
<polygon fill="black" stroke="black" points="214.92,-280.03 204.33,-280.01 212.6,-286.63 214.92,-280.03"/>
</g>
<!-- n4 -->
<g id="node4" class="node">
<title>n4</title>
<polygon fill="#fffdd0" stroke="black" points="623.5,-280 370.5,-280 370.5,-244 623.5,-244 623.5,-280"/>
<text text-anchor="middle" x="497" y="-258.3" font-family="Arial" font-size="14.00">No water: Drooping, dry&#45;looking leaves.</text>
</g>
<!-- n2&#45;&gt;n4 -->
<g id="edge3" class="edge">
<title>n2&#45;&gt;n4</title>
<path fill="none" stroke="black" d="M497,-365.81C497,-346.11 497,-313.58 497,-290.39"/>
<polygon fill="black" stroke="black" points="500.5,-290.16 497,-280.16 493.5,-290.16 500.5,-290.16"/>
</g>
<!-- n6 -->
<g id="node5" class="node">
<title>n6</title>
<polygon fill="#fffdd0" stroke="black" points="1052.5,-280 747.5,-280 747.5,-244 1052.5,-244 1052.5,-280"/>
<text text-anchor="middle" x="900" y="-258.3" font-family="Arial" font-size="14.00">In dark: Some yellow&#45;tinted, slightly bent leaves.</text>
</g>
<!-- n2&#45;&gt;n6 -->
<g id="edge4" class="edge">
<title>n2&#45;&gt;n6</title>
<path fill="none" stroke="black" d="M554.31,-365.93C627.88,-344.03 755.28,-306.09 833.17,-282.9"/>
<polygon fill="black" stroke="black" points="834.3,-286.21 842.89,-280.01 832.31,-279.51 834.3,-286.21"/>
</g>
<!-- n5 -->
<g id="node6" class="node">
<title>n5</title>
<path fill="palegreen" stroke="black" d="M562,-158C562,-158 366,-158 366,-158 360,-158 354,-152 354,-146 354,-146 354,-134 354,-134 354,-128 360,-122 366,-122 366,-122 562,-122 562,-122 568,-122 574,-128 574,-134 574,-134 574,-146 574,-146 574,-152 568,-158 562,-158"/>
<text text-anchor="middle" x="464" y="-136.3" font-family="Arial" font-size="14.00">Draws wilting due to lack of water.</text>
</g>
<!-- n4&#45;&gt;n5 -->
<g id="edge5" class="edge">
<title>n4&#45;&gt;n5</title>
<path fill="none" stroke="black" d="M492.27,-243.81C486.83,-224.02 477.83,-191.29 471.45,-168.08"/>
<polygon fill="black" stroke="black" points="474.75,-166.87 468.72,-158.16 468,-168.73 474.75,-166.87"/>
</g>
<!-- n7 -->
<g id="node7" class="node">
<title>n7</title>
<polygon fill="lightcoral" stroke="black" points="934,-158 631.5,-140 934,-122 1236.5,-140 934,-158"/>
<text text-anchor="middle" x="934" y="-136.3" font-family="Arial" font-size="14.00">Partial understanding: Plants partially yellow in dark.</text>
</g>
<!-- n6&#45;&gt;n7 -->
<g id="edge6" class="edge">
<title>n6&#45;&gt;n7</title>
<path fill="none" stroke="black" d="M904.87,-243.81C910.51,-223.91 919.86,-190.92 926.44,-167.68"/>
<polygon fill="black" stroke="black" points="929.89,-168.35 929.25,-157.77 923.15,-166.44 929.89,-168.35"/>
</g>
<!-- n8 -->
<g id="node8" class="node">
<title>n8</title>
<polygon fill="#f28e8e" stroke="black" points="1176.5,-36 691.5,-36 691.5,0 1176.5,0 1176.5,-36"/>
<text text-anchor="middle" x="934" y="-14.3" font-family="Arial" font-size="14.00">Feedback: Ensure complete illustration of yellowing and growth issues in dark.</text>
</g>
<!-- n7&#45;&gt;n8 -->
<g id="edge7" class="edge">
<title>n7&#45;&gt;n8</title>
<path fill="none" stroke="black" d="M934,-121.81C934,-102.11 934,-69.58 934,-46.39"/>
<polygon fill="black" stroke="black" points="937.5,-46.16 934,-36.16 930.5,-46.16 937.5,-46.16"/>
</g>
</g>
</svg>
