<?xml version="1.0" encoding="UTF-8" standalone="no"?>
<!DOCTYPE svg PUBLIC "-//W3C//DTD SVG 1.1//EN"
 "http://www.w3.org/Graphics/SVG/1.1/DTD/svg11.dtd">
<!-- Generated by graphviz version 2.43.0 (0)
 -->
<!-- Pages: 1 -->
<svg width="1588pt" height="410pt"
 viewBox="0.00 0.00 1588.00 410.00" xmlns="http://www.w3.org/2000/svg" xmlns:xlink="http://www.w3.org/1999/xlink">
<g id="graph0" class="graph" transform="scale(1 1) rotate(0) translate(4 406)">
<polygon fill="white" stroke="transparent" points="-4,4 -4,-406 1584,-406 1584,4 -4,4"/>
<!-- n1 -->
<g id="node1" class="node">
<title>n1</title>
<polygon fill="lightblue" stroke="black" points="745,-384 653.75,-402 471.25,-402 380,-384 471.25,-366 653.75,-366 745,-384"/>
<text text-anchor="middle" x="562.5" y="-380.3" font-family="Arial" font-size="14.00">Draw reversible changes (ice melting)</text>
</g>
<!-- n2 -->
<g id="node2" class="node">
<title>n2</title>
<polygon fill="#fffdd0" stroke="black" points="274.5,-280 92.5,-280 92.5,-244 274.5,-244 274.5,-280"/>
<text text-anchor="middle" x="183.5" y="-258.3" font-family="Arial" font-size="14.00">Blue rectangle shape as ice</text>
</g>
<!-- n1&#45;&gt;n2 -->
<g id="edge1" class="edge">
<title>n1&#45;&gt;n2</title>
<path fill="none" stroke="black" d="M508.6,-365.93C439.56,-344.07 320.09,-306.25 246.8,-283.04"/>
<polygon fill="black" stroke="black" points="247.8,-279.69 237.21,-280.01 245.69,-286.36 247.8,-279.69"/>
</g>
<!-- n3 -->
<g id="node3" class="node">
<title>n3</title>
<polygon fill="#fffdd0" stroke="black" points="528.5,-280 362.5,-280 362.5,-244 528.5,-244 528.5,-280"/>
<text text-anchor="middle" x="445.5" y="-258.3" font-family="Arial" font-size="14.00">Wavy blue lines as water</text>
</g>
<!-- n1&#45;&gt;n3 -->
<g id="edge2" class="edge">
<title>n1&#45;&gt;n3</title>
<path fill="none" stroke="black" d="M545.74,-365.81C525.75,-345.31 492.21,-310.91 469.49,-287.6"/>
<polygon fill="black" stroke="black" points="471.72,-284.87 462.23,-280.16 466.71,-289.76 471.72,-284.87"/>
</g>
<!-- n4 -->
<g id="node4" class="node">
<title>n4</title>
<polygon fill="#fffdd0" stroke="black" points="859.5,-280 671.5,-280 671.5,-244 859.5,-244 859.5,-280"/>
<text text-anchor="middle" x="765.5" y="-258.3" font-family="Arial" font-size="14.00">Orange squiggly line as heat</text>
</g>
<!-- n1&#45;&gt;n4 -->
<g id="edge3" class="edge">
<title>n1&#45;&gt;n4</title>
<path fill="none" stroke="black" d="M591.58,-365.81C627.31,-344.69 688.01,-308.81 727.42,-285.51"/>
<polygon fill="black" stroke="black" points="729.64,-288.26 736.47,-280.16 726.08,-282.24 729.64,-288.26"/>
</g>
<!-- n5 -->
<g id="node5" class="node">
<title>n5</title>
<polygon fill="#fffdd0" stroke="black" points="1313.5,-280 1091.5,-280 1091.5,-244 1313.5,-244 1313.5,-280"/>
<text text-anchor="middle" x="1202.5" y="-258.3" font-family="Arial" font-size="14.00">Downward arrow from ice to water</text>
</g>
<!-- n1&#45;&gt;n5 -->
<g id="edge4" class="edge">
<title>n1&#45;&gt;n5</title>
<path fill="none" stroke="black" d="M653.18,-366C771.58,-343.8 978.21,-305.05 1101.5,-281.94"/>
<polygon fill="black" stroke="black" points="1102.52,-285.31 1111.7,-280.03 1101.23,-278.43 1102.52,-285.31"/>
</g>
<!-- n6 -->
<g id="node6" class="node">
<title>n6</title>
<path fill="palegreen" stroke="black" d="M211,-158C211,-158 12,-158 12,-158 6,-158 0,-152 0,-146 0,-146 0,-134 0,-134 0,-128 6,-122 12,-122 12,-122 211,-122 211,-122 217,-122 223,-128 223,-134 223,-134 223,-146 223,-146 223,-152 217,-158 211,-158"/>
<text text-anchor="middle" x="111.5" y="-136.3" font-family="Arial" font-size="14.00">Ice depicted correctly in solid state</text>
</g>
<!-- n2&#45;&gt;n6 -->
<g id="edge5" class="edge">
<title>n2&#45;&gt;n6</title>
<path fill="none" stroke="black" d="M173.18,-243.81C161.1,-223.67 140.96,-190.1 127,-166.83"/>
<polygon fill="black" stroke="black" points="129.95,-164.94 121.8,-158.16 123.94,-168.54 129.95,-164.94"/>
</g>
<!-- n7 -->
<g id="node7" class="node">
<title>n7</title>
<path fill="palegreen" stroke="black" d="M514,-158C514,-158 293,-158 293,-158 287,-158 281,-152 281,-146 281,-146 281,-134 281,-134 281,-128 287,-122 293,-122 293,-122 514,-122 514,-122 520,-122 526,-128 526,-134 526,-134 526,-146 526,-146 526,-152 520,-158 514,-158"/>
<text text-anchor="middle" x="403.5" y="-136.3" font-family="Arial" font-size="14.00">Water depicted correctly in liquid state</text>
</g>
<!-- n3&#45;&gt;n7 -->
<g id="edge6" class="edge">
<title>n3&#45;&gt;n7</title>
<path fill="none" stroke="black" d="M439.48,-243.81C432.53,-223.94 421,-190.99 412.87,-167.76"/>
<polygon fill="black" stroke="black" points="416.12,-166.44 409.51,-158.16 409.51,-168.75 416.12,-166.44"/>
</g>
<!-- n8 -->
<g id="node8" class="node">
<title>n8</title>
<polygon fill="lightcoral" stroke="black" points="808.5,-158 584,-140 808.5,-122 1033,-140 808.5,-158"/>
<text text-anchor="middle" x="808.5" y="-136.3" font-family="Arial" font-size="14.00">Confusion in showing heating process</text>
</g>
<!-- n4&#45;&gt;n8 -->
<g id="edge7" class="edge">
<title>n4&#45;&gt;n8</title>
<path fill="none" stroke="black" d="M771.66,-243.81C778.82,-223.82 790.72,-190.62 799.05,-167.37"/>
<polygon fill="black" stroke="black" points="802.41,-168.36 802.49,-157.77 795.82,-166 802.41,-168.36"/>
</g>
<!-- n9 -->
<g id="node9" class="node">
<title>n9</title>
<polygon fill="lightcoral" stroke="black" points="1335.5,-158 1091,-140 1335.5,-122 1580,-140 1335.5,-158"/>
<text text-anchor="middle" x="1335.5" y="-136.3" font-family="Arial" font-size="14.00">Incomplete depiction of reversible change</text>
</g>
<!-- n5&#45;&gt;n9 -->
<g id="edge8" class="edge">
<title>n5&#45;&gt;n9</title>
<path fill="none" stroke="black" d="M1221.6,-243.81C1244.9,-222.78 1284.4,-187.12 1310.2,-163.82"/>
<polygon fill="black" stroke="black" points="1312.69,-166.29 1317.8,-157.01 1308.02,-161.08 1312.69,-166.29"/>
</g>
<!-- n10 -->
<g id="node10" class="node">
<title>n10</title>
<polygon fill="#f28e8e" stroke="black" points="947.5,-36 669.5,-36 669.5,0 947.5,0 947.5,-36"/>
<text text-anchor="middle" x="808.5" y="-14.3" font-family="Arial" font-size="14.00">Use upward arrows or labels for reversibility</text>
</g>
<!-- n8&#45;&gt;n10 -->
<g id="edge9" class="edge">
<title>n8&#45;&gt;n10</title>
<path fill="none" stroke="black" d="M808.5,-121.81C808.5,-102.11 808.5,-69.58 808.5,-46.39"/>
<polygon fill="black" stroke="black" points="812,-46.16 808.5,-36.16 805,-46.16 812,-46.16"/>
</g>
<!-- n11 -->
<g id="node11" class="node">
<title>n11</title>
<polygon fill="#f28e8e" stroke="black" points="1495.5,-36 1175.5,-36 1175.5,0 1495.5,0 1495.5,-36"/>
<text text-anchor="middle" x="1335.5" y="-14.3" font-family="Arial" font-size="14.00">Add cooling process to show water to ice transition</text>
</g>
<!-- n9&#45;&gt;n11 -->
<g id="edge10" class="edge">
<title>n9&#45;&gt;n11</title>
<path fill="none" stroke="black" d="M1335.5,-121.81C1335.5,-102.11 1335.5,-69.58 1335.5,-46.39"/>
<polygon fill="black" stroke="black" points="1339,-46.16 1335.5,-36.16 1332,-46.16 1339,-46.16"/>
</g>
</g>
</svg>
