<?xml version="1.0" encoding="UTF-8" standalone="no"?>
<!DOCTYPE svg PUBLIC "-//W3C//DTD SVG 1.1//EN"
 "http://www.w3.org/Graphics/SVG/1.1/DTD/svg11.dtd">
<!-- Generated by graphviz version 2.43.0 (0)
 -->
<!-- Pages: 1 -->
<svg width="1128pt" height="288pt"
 viewBox="0.00 0.00 1128.00 288.00" xmlns="http://www.w3.org/2000/svg" xmlns:xlink="http://www.w3.org/1999/xlink">
<g id="graph0" class="graph" transform="scale(1 1) rotate(0) translate(4 284)">
<polygon fill="white" stroke="transparent" points="-4,4 -4,-284 1124,-284 1124,4 -4,4"/>
<!-- n1 -->
<g id="node1" class="node">
<title>n1</title>
<polygon fill="lightblue" stroke="black" points="834.5,-262 722.25,-280 497.75,-280 385.5,-262 497.75,-244 722.25,-244 834.5,-262"/>
<text text-anchor="middle" x="610" y="-258.3" font-family="Arial" font-size="14.00">Illustrate plants with and without water and light</text>
</g>
<!-- n2 -->
<g id="node2" class="node">
<title>n2</title>
<polygon fill="#fffdd0" stroke="black" points="420,-158 0,-158 0,-122 420,-122 420,-158"/>
<text text-anchor="middle" x="210" y="-136.3" font-family="Arial" font-size="14.00">Draws healthy vibrant green plant with lush leaves and bright flower</text>
</g>
<!-- n1&#45;&gt;n2 -->
<g id="edge1" class="edge">
<title>n1&#45;&gt;n2</title>
<path fill="none" stroke="black" d="M553.11,-243.93C480.1,-222.03 353.64,-184.09 276.33,-160.9"/>
<polygon fill="black" stroke="black" points="277.27,-157.53 266.69,-158.01 275.26,-164.23 277.27,-157.53"/>
</g>
<!-- n3 -->
<g id="node3" class="node">
<title>n3</title>
<polygon fill="#fffdd0" stroke="black" points="742,-158 478,-158 478,-122 742,-122 742,-158"/>
<text text-anchor="middle" x="610" y="-136.3" font-family="Arial" font-size="14.00">Draws droopy, slightly brown leaves plant</text>
</g>
<!-- n1&#45;&gt;n3 -->
<g id="edge2" class="edge">
<title>n1&#45;&gt;n3</title>
<path fill="none" stroke="black" d="M610,-243.81C610,-224.11 610,-191.58 610,-168.39"/>
<polygon fill="black" stroke="black" points="613.5,-168.16 610,-158.16 606.5,-168.16 613.5,-168.16"/>
</g>
<!-- n4 -->
<g id="node4" class="node">
<title>n4</title>
<polygon fill="#fffdd0" stroke="black" points="1120,-158 800,-158 800,-122 1120,-122 1120,-158"/>
<text text-anchor="middle" x="960" y="-136.3" font-family="Arial" font-size="14.00">Draws tall, thin plant with pale, lighter green leaves</text>
</g>
<!-- n1&#45;&gt;n4 -->
<g id="edge3" class="edge">
<title>n1&#45;&gt;n4</title>
<path fill="none" stroke="black" d="M659.77,-243.93C723.27,-222.16 832.96,-184.56 900.72,-161.33"/>
<polygon fill="black" stroke="black" points="902.08,-164.57 910.4,-158.01 899.81,-157.94 902.08,-164.57"/>
</g>
<!-- n5 -->
<g id="node5" class="node">
<title>n5</title>
<path fill="palegreen" stroke="black" d="M352.5,-36C352.5,-36 67.5,-36 67.5,-36 61.5,-36 55.5,-30 55.5,-24 55.5,-24 55.5,-12 55.5,-12 55.5,-6 61.5,0 67.5,0 67.5,0 352.5,0 352.5,0 358.5,0 364.5,-6 364.5,-12 364.5,-12 364.5,-24 364.5,-24 364.5,-30 358.5,-36 352.5,-36"/>
<text text-anchor="middle" x="210" y="-14.3" font-family="Arial" font-size="14.00">Understands plants with water &amp; light are healthy</text>
</g>
<!-- n2&#45;&gt;n5 -->
<g id="edge4" class="edge">
<title>n2&#45;&gt;n5</title>
<path fill="none" stroke="black" d="M210,-121.81C210,-102.11 210,-69.58 210,-46.39"/>
<polygon fill="black" stroke="black" points="213.5,-46.16 210,-36.16 206.5,-46.16 213.5,-46.16"/>
</g>
<!-- n6 -->
<g id="node6" class="node">
<title>n6</title>
<path fill="palegreen" stroke="black" d="M717.5,-36C717.5,-36 502.5,-36 502.5,-36 496.5,-36 490.5,-30 490.5,-24 490.5,-24 490.5,-12 490.5,-12 490.5,-6 496.5,0 502.5,0 502.5,0 717.5,0 717.5,0 723.5,0 729.5,-6 729.5,-12 729.5,-12 729.5,-24 729.5,-24 729.5,-30 723.5,-36 717.5,-36"/>
<text text-anchor="middle" x="610" y="-14.3" font-family="Arial" font-size="14.00">Understands plants without water wilt</text>
</g>
<!-- n3&#45;&gt;n6 -->
<g id="edge5" class="edge">
<title>n3&#45;&gt;n6</title>
<path fill="none" stroke="black" d="M610,-121.81C610,-102.11 610,-69.58 610,-46.39"/>
<polygon fill="black" stroke="black" points="613.5,-46.16 610,-36.16 606.5,-46.16 613.5,-46.16"/>
</g>
<!-- n7 -->
<g id="node7" class="node">
<title>n7</title>
<path fill="palegreen" stroke="black" d="M1091,-36C1091,-36 829,-36 829,-36 823,-36 817,-30 817,-24 817,-24 817,-12 817,-12 817,-6 823,0 829,0 829,0 1091,0 1091,0 1097,0 1103,-6 1103,-12 1103,-12 1103,-24 1103,-24 1103,-30 1097,-36 1091,-36"/>
<text text-anchor="middle" x="960" y="-14.3" font-family="Arial" font-size="14.00">Understands plants without light grow weakly</text>
</g>
<!-- n4&#45;&gt;n7 -->
<g id="edge6" class="edge">
<title>n4&#45;&gt;n7</title>
<path fill="none" stroke="black" d="M960,-121.81C960,-102.11 960,-69.58 960,-46.39"/>
<polygon fill="black" stroke="black" points="963.5,-46.16 960,-36.16 956.5,-46.16 963.5,-46.16"/>
</g>
</g>
</svg>
