<?xml version="1.0" encoding="UTF-8" standalone="no"?>
<!DOCTYPE svg PUBLIC "-//W3C//DTD SVG 1.1//EN"
 "http://www.w3.org/Graphics/SVG/1.1/DTD/svg11.dtd">
<!-- Generated by graphviz version 2.43.0 (0)
 -->
<!-- Pages: 1 -->
<svg width="1446pt" height="410pt"
 viewBox="0.00 0.00 1446.07 410.00" xmlns="http://www.w3.org/2000/svg" xmlns:xlink="http://www.w3.org/1999/xlink">
<g id="graph0" class="graph" transform="scale(1 1) rotate(0) translate(4 406)">
<polygon fill="white" stroke="transparent" points="-4,4 -4,-406 1442.07,-406 1442.07,4 -4,4"/>
<!-- n1 -->
<g id="node1" class="node">
<title>n1</title>
<polygon fill="lightblue" stroke="black" points="966.5,-384 802.5,-402 474.5,-402 310.5,-384 474.5,-366 802.5,-366 966.5,-384"/>
<text text-anchor="middle" x="638.5" y="-380.3" font-family="Arial" font-size="14.00">Draw reversible and irreversible changes (ice melting vs. egg cooking)</text>
</g>
<!-- n2 -->
<g id="node2" class="node">
<title>n2</title>
<polygon fill="#fffdd0" stroke="black" points="490.5,-280 254.5,-280 254.5,-244 490.5,-244 490.5,-280"/>
<text text-anchor="middle" x="372.5" y="-258.3" font-family="Arial" font-size="14.00">Ice turning into water and back to ice</text>
</g>
<!-- n1&#45;&gt;n2 -->
<g id="edge1" class="edge">
<title>n1&#45;&gt;n2</title>
<path fill="none" stroke="black" d="M600.67,-365.93C553.01,-344.43 471.09,-307.48 419.47,-284.19"/>
<polygon fill="black" stroke="black" points="420.75,-280.93 410.2,-280.01 417.88,-287.31 420.75,-280.93"/>
</g>
<!-- n3 -->
<g id="node3" class="node">
<title>n3</title>
<polygon fill="#fffdd0" stroke="black" points="1045.5,-280 763.5,-280 763.5,-244 1045.5,-244 1045.5,-280"/>
<text text-anchor="middle" x="904.5" y="-258.3" font-family="Arial" font-size="14.00">Whole egg to cracked egg to scrambled egg</text>
</g>
<!-- n1&#45;&gt;n3 -->
<g id="edge2" class="edge">
<title>n1&#45;&gt;n3</title>
<path fill="none" stroke="black" d="M676.33,-365.93C723.99,-344.43 805.91,-307.48 857.53,-284.19"/>
<polygon fill="black" stroke="black" points="859.12,-287.31 866.8,-280.01 856.25,-280.93 859.12,-287.31"/>
</g>
<!-- n4 -->
<g id="node4" class="node">
<title>n4</title>
<path fill="palegreen" stroke="black" d="M517,-158C517,-158 12,-158 12,-158 6,-158 0,-152 0,-146 0,-146 0,-134 0,-134 0,-128 6,-122 12,-122 12,-122 517,-122 517,-122 523,-122 529,-128 529,-134 529,-134 529,-146 529,-146 529,-152 523,-158 517,-158"/>
<text text-anchor="middle" x="264.5" y="-136.3" font-family="Arial" font-size="14.00">Correct understanding: Reversible change depicted with labels &#39;melting&#39; and &#39;freezing&#39;</text>
</g>
<!-- n2&#45;&gt;n4 -->
<g id="edge3" class="edge">
<title>n2&#45;&gt;n4</title>
<path fill="none" stroke="black" d="M357.03,-243.81C338.58,-223.31 307.62,-188.91 286.64,-165.6"/>
<polygon fill="black" stroke="black" points="289.24,-163.26 279.95,-158.16 284.03,-167.94 289.24,-163.26"/>
</g>
<!-- n5 -->
<g id="node5" class="node">
<title>n5</title>
<polygon fill="lightcoral" stroke="black" points="1012.5,-158 586.86,-140 1012.5,-122 1438.14,-140 1012.5,-158"/>
<text text-anchor="middle" x="1012.5" y="-136.3" font-family="Arial" font-size="14.00">Incomplete understanding: Missing label for egg cooking to scrambled egg</text>
</g>
<!-- n3&#45;&gt;n5 -->
<g id="edge4" class="edge">
<title>n3&#45;&gt;n5</title>
<path fill="none" stroke="black" d="M919.97,-243.81C938.55,-223.17 969.81,-188.43 990.79,-165.12"/>
<polygon fill="black" stroke="black" points="993.66,-167.16 997.75,-157.39 988.46,-162.48 993.66,-167.16"/>
</g>
<!-- n6 -->
<g id="node6" class="node">
<title>n6</title>
<polygon fill="#f28e8e" stroke="black" points="1274.5,-36 750.5,-36 750.5,0 1274.5,0 1274.5,-36"/>
<text text-anchor="middle" x="1012.5" y="-14.3" font-family="Arial" font-size="14.00">Suggestion: Add label &#39;cooking&#39; to arrow pointing from cracked egg to scrambled egg</text>
</g>
<!-- n5&#45;&gt;n6 -->
<g id="edge5" class="edge">
<title>n5&#45;&gt;n6</title>
<path fill="none" stroke="black" d="M1012.5,-121.81C1012.5,-102.11 1012.5,-69.58 1012.5,-46.39"/>
<polygon fill="black" stroke="black" points="1016,-46.16 1012.5,-36.16 1009,-46.16 1016,-46.16"/>
</g>
</g>
</svg>
