<?xml version="1.0" encoding="UTF-8" standalone="no"?>
<!DOCTYPE svg PUBLIC "-//W3C//DTD SVG 1.1//EN"
 "http://www.w3.org/Graphics/SVG/1.1/DTD/svg11.dtd">
<!-- Generated by graphviz version 2.43.0 (0)
 -->
<!-- Pages: 1 -->
<svg width="2684pt" height="412pt"
 viewBox="0.00 0.00 2683.50 412.00" xmlns="http://www.w3.org/2000/svg" xmlns:xlink="http://www.w3.org/1999/xlink">
<g id="graph0" class="graph" transform="scale(1 1) rotate(0) translate(4 408)">
<polygon fill="white" stroke="transparent" points="-4,4 -4,-408 2679.5,-408 2679.5,4 -4,4"/>
<!-- n1 -->
<g id="node1" class="node">
<title>n1</title>
<polygon fill="lightblue" stroke="black" points="1340.5,-386 1249.25,-404 1066.75,-404 975.5,-386 1066.75,-368 1249.25,-368 1340.5,-386"/>
<text text-anchor="middle" x="1158" y="-382.3" font-family="Arial" font-size="14.00">Draw a fish in their habitat with labels.</text>
</g>
<!-- n2 -->
<g id="node2" class="node">
<title>n2</title>
<polygon fill="#fffdd0" stroke="black" points="248,-282 30,-282 30,-246 248,-246 248,-282"/>
<text text-anchor="middle" x="139" y="-260.3" font-family="Arial" font-size="14.00">Detailed drawing of a river habitat</text>
</g>
<!-- n1&#45;&gt;n2 -->
<g id="edge1" class="edge">
<title>n1&#45;&gt;n2</title>
<path fill="none" stroke="black" d="M1046.5,-371.87C853.13,-349.1 457.13,-302.46 258.37,-279.06"/>
<polygon fill="black" stroke="black" points="258.53,-275.55 248.19,-277.86 257.71,-282.51 258.53,-275.55"/>
</g>
<!-- n3 -->
<g id="node3" class="node">
<title>n3</title>
<polygon fill="#fffdd0" stroke="black" points="627.5,-282 382.5,-282 382.5,-246 627.5,-246 627.5,-282"/>
<text text-anchor="middle" x="505" y="-260.3" font-family="Arial" font-size="14.00">Salmon with labeled fins, gills, and tail</text>
</g>
<!-- n1&#45;&gt;n3 -->
<g id="edge2" class="edge">
<title>n1&#45;&gt;n3</title>
<path fill="none" stroke="black" d="M1066.2,-368.12C945.35,-345.92 733.63,-307.01 607.65,-283.86"/>
<polygon fill="black" stroke="black" points="608.07,-280.38 597.6,-282.02 606.81,-287.26 608.07,-280.38"/>
</g>
<!-- n4 -->
<g id="node4" class="node">
<title>n4</title>
<polygon fill="#fffdd0" stroke="black" points="950.5,-282 723.5,-282 723.5,-246 950.5,-246 950.5,-282"/>
<text text-anchor="middle" x="837" y="-260.3" font-family="Arial" font-size="14.00">Vibrant blue river water with ripples</text>
</g>
<!-- n1&#45;&gt;n4 -->
<g id="edge3" class="edge">
<title>n1&#45;&gt;n4</title>
<path fill="none" stroke="black" d="M1112.3,-367.93C1054.4,-346.25 954.34,-308.86 892.14,-285.61"/>
<polygon fill="black" stroke="black" points="893.08,-282.23 882.49,-282.01 890.64,-288.78 893.08,-282.23"/>
</g>
<!-- n5 -->
<g id="node5" class="node">
<title>n5</title>
<polygon fill="#fffdd0" stroke="black" points="1288.5,-282 1027.5,-282 1027.5,-246 1288.5,-246 1288.5,-282"/>
<text text-anchor="middle" x="1158" y="-260.3" font-family="Arial" font-size="14.00">Green algae and brown rocks in riverbed</text>
</g>
<!-- n1&#45;&gt;n5 -->
<g id="edge4" class="edge">
<title>n1&#45;&gt;n5</title>
<path fill="none" stroke="black" d="M1158,-367.81C1158,-348.11 1158,-315.58 1158,-292.39"/>
<polygon fill="black" stroke="black" points="1161.5,-292.16 1158,-282.16 1154.5,-292.16 1161.5,-292.16"/>
</g>
<!-- n6 -->
<g id="node6" class="node">
<title>n6</title>
<polygon fill="#fffdd0" stroke="black" points="1850.5,-282 1643.5,-282 1643.5,-246 1850.5,-246 1850.5,-282"/>
<text text-anchor="middle" x="1747" y="-260.3" font-family="Arial" font-size="14.00">Sunlight streaming, bright effect</text>
</g>
<!-- n1&#45;&gt;n6 -->
<g id="edge5" class="edge">
<title>n1&#45;&gt;n6</title>
<path fill="none" stroke="black" d="M1241.5,-368C1350.2,-345.84 1539.8,-307.21 1653.4,-284.08"/>
<polygon fill="black" stroke="black" points="1654.31,-287.47 1663.4,-282.03 1652.9,-280.61 1654.31,-287.47"/>
</g>
<!-- n7 -->
<g id="node7" class="node">
<title>n7</title>
<polygon fill="#fffdd0" stroke="black" points="2292.5,-282 2071.5,-282 2071.5,-246 2292.5,-246 2292.5,-282"/>
<text text-anchor="middle" x="2182" y="-260.3" font-family="Arial" font-size="14.00">Small bubbles labeled as &#39;oxygen&#39;</text>
</g>
<!-- n1&#45;&gt;n7 -->
<g id="edge6" class="edge">
<title>n1&#45;&gt;n7</title>
<path fill="none" stroke="black" d="M1269.5,-371.93C1463.5,-349.2 1861.3,-302.58 2061.4,-279.13"/>
<polygon fill="black" stroke="black" points="2061.87,-282.6 2071.4,-277.96 2061.06,-275.65 2061.87,-282.6"/>
</g>
<!-- n8 -->
<g id="node8" class="node">
<title>n8</title>
<polygon fill="#fffdd0" stroke="black" points="2634.5,-282 2431.5,-282 2431.5,-246 2634.5,-246 2634.5,-282"/>
<text text-anchor="middle" x="2533" y="-260.3" font-family="Arial" font-size="14.00">Small insects on plants labeled</text>
</g>
<!-- n1&#45;&gt;n8 -->
<g id="edge7" class="edge">
<title>n1&#45;&gt;n8</title>
<path fill="none" stroke="black" d="M1280.9,-374.27C1545.8,-351.15 2167,-296.94 2421.4,-274.74"/>
<polygon fill="black" stroke="black" points="2421.74,-278.22 2431.4,-273.87 2421.13,-271.25 2421.74,-278.22"/>
</g>
<!-- n9 -->
<g id="node9" class="node">
<title>n9</title>
<path fill="palegreen" stroke="black" d="M144,-159C144,-159 12,-159 12,-159 6,-159 0,-153 0,-147 0,-147 0,-135 0,-135 0,-129 6,-123 12,-123 12,-123 144,-123 144,-123 150,-123 156,-129 156,-135 156,-135 156,-147 156,-147 156,-153 150,-159 144,-159"/>
<text text-anchor="middle" x="78" y="-137.3" font-family="Arial" font-size="14.00">Ecosystem interactions</text>
</g>
<!-- n2&#45;&gt;n9 -->
<g id="edge8" class="edge">
<title>n2&#45;&gt;n9</title>
<path fill="none" stroke="black" d="M130.39,-245.92C120.23,-225.77 103.22,-192.03 91.35,-168.48"/>
<polygon fill="black" stroke="black" points="94.39,-166.74 86.76,-159.38 88.14,-169.89 94.39,-166.74"/>
</g>
<!-- n10 -->
<g id="node10" class="node">
<title>n10</title>
<path fill="palegreen" stroke="black" d="M567.5,-159C567.5,-159 226.5,-159 226.5,-159 220.5,-159 214.5,-153 214.5,-147 214.5,-147 214.5,-135 214.5,-135 214.5,-129 220.5,-123 226.5,-123 226.5,-123 567.5,-123 567.5,-123 573.5,-123 579.5,-129 579.5,-135 579.5,-135 579.5,-147 579.5,-147 579.5,-153 573.5,-159 567.5,-159"/>
<text text-anchor="middle" x="397" y="-137.3" font-family="Arial" font-size="14.00">Salmon labeled parts show understanding of fish anatomy</text>
</g>
<!-- n3&#45;&gt;n10 -->
<g id="edge9" class="edge">
<title>n3&#45;&gt;n10</title>
<path fill="none" stroke="black" d="M489.76,-245.92C471.37,-225.32 440.31,-190.52 419.24,-166.92"/>
<polygon fill="black" stroke="black" points="421.79,-164.52 412.52,-159.38 416.56,-169.17 421.79,-164.52"/>
</g>
<!-- n11 -->
<g id="node11" class="node">
<title>n11</title>
<path fill="palegreen" stroke="black" d="M888.5,-159C888.5,-159 649.5,-159 649.5,-159 643.5,-159 637.5,-153 637.5,-147 637.5,-147 637.5,-135 637.5,-135 637.5,-129 643.5,-123 649.5,-123 649.5,-123 888.5,-123 888.5,-123 894.5,-123 900.5,-129 900.5,-135 900.5,-135 900.5,-147 900.5,-147 900.5,-153 894.5,-159 888.5,-159"/>
<text text-anchor="middle" x="769" y="-137.3" font-family="Arial" font-size="14.00">Water is seen as essential for fish habitat</text>
</g>
<!-- n4&#45;&gt;n11 -->
<g id="edge10" class="edge">
<title>n4&#45;&gt;n11</title>
<path fill="none" stroke="black" d="M827.4,-245.92C816.02,-225.68 796.94,-191.73 783.7,-168.16"/>
<polygon fill="black" stroke="black" points="786.72,-166.39 778.77,-159.38 780.61,-169.81 786.72,-166.39"/>
</g>
<!-- n12 -->
<g id="node12" class="node">
<title>n12</title>
<path fill="palegreen" stroke="black" d="M1263.5,-159C1263.5,-159 970.5,-159 970.5,-159 964.5,-159 958.5,-153 958.5,-147 958.5,-147 958.5,-135 958.5,-135 958.5,-129 964.5,-123 970.5,-123 970.5,-123 1263.5,-123 1263.5,-123 1269.5,-123 1275.5,-129 1275.5,-135 1275.5,-135 1275.5,-147 1275.5,-147 1275.5,-153 1269.5,-159 1263.5,-159"/>
<text text-anchor="middle" x="1117" y="-137.3" font-family="Arial" font-size="14.00">Understanding of non&#45;living components in habitat</text>
</g>
<!-- n5&#45;&gt;n12 -->
<g id="edge11" class="edge">
<title>n5&#45;&gt;n12</title>
<path fill="none" stroke="black" d="M1152.2,-245.92C1145.4,-225.95 1134.2,-192.62 1126.2,-169.11"/>
<polygon fill="black" stroke="black" points="1129.43,-167.73 1122.9,-159.38 1122.8,-169.97 1129.43,-167.73"/>
</g>
<!-- n16 -->
<g id="node13" class="node">
<title>n16</title>
<polygon fill="lightcoral" stroke="black" points="1572,-159 1333,-141 1572,-123 1811,-141 1572,-159"/>
<text text-anchor="middle" x="1572" y="-137.3" font-family="Arial" font-size="14.00">Might have overlooked other plant labels</text>
</g>
<!-- n5&#45;&gt;n16 -->
<g id="edge12" class="edge">
<title>n5&#45;&gt;n16</title>
<path fill="none" stroke="black" d="M1216.4,-245.92C1296.1,-222.65 1437.7,-181.26 1516,-158.37"/>
<polygon fill="black" stroke="black" points="1517.08,-161.7 1525.7,-155.54 1515.12,-154.98 1517.08,-161.7"/>
</g>
<!-- n13 -->
<g id="node14" class="node">
<title>n13</title>
<path fill="palegreen" stroke="black" d="M2125,-159C2125,-159 1881,-159 1881,-159 1875,-159 1869,-153 1869,-147 1869,-147 1869,-135 1869,-135 1869,-129 1875,-123 1881,-123 1881,-123 2125,-123 2125,-123 2131,-123 2137,-129 2137,-135 2137,-135 2137,-147 2137,-147 2137,-153 2131,-159 2125,-159"/>
<text text-anchor="middle" x="2003" y="-137.3" font-family="Arial" font-size="14.00">Awareness of sunlight&#39;s role in ecosystem</text>
</g>
<!-- n6&#45;&gt;n13 -->
<g id="edge13" class="edge">
<title>n6&#45;&gt;n13</title>
<path fill="none" stroke="black" d="M1783.1,-245.92C1828.8,-224.32 1907.6,-187.1 1957.4,-163.56"/>
<polygon fill="black" stroke="black" points="1959.07,-166.64 1966.6,-159.19 1956.07,-160.32 1959.07,-166.64"/>
</g>
<!-- n14 -->
<g id="node15" class="node">
<title>n14</title>
<path fill="palegreen" stroke="black" d="M2402.5,-159C2402.5,-159 2207.5,-159 2207.5,-159 2201.5,-159 2195.5,-153 2195.5,-147 2195.5,-147 2195.5,-135 2195.5,-135 2195.5,-129 2201.5,-123 2207.5,-123 2207.5,-123 2402.5,-123 2402.5,-123 2408.5,-123 2414.5,-129 2414.5,-135 2414.5,-135 2414.5,-147 2414.5,-147 2414.5,-153 2408.5,-159 2402.5,-159"/>
<text text-anchor="middle" x="2305" y="-137.3" font-family="Arial" font-size="14.00">Oxygen in water for fish breathing</text>
</g>
<!-- n7&#45;&gt;n14 -->
<g id="edge14" class="edge">
<title>n7&#45;&gt;n14</title>
<path fill="none" stroke="black" d="M2199.4,-245.92C2220.4,-225.23 2256,-190.22 2280,-166.61"/>
<polygon fill="black" stroke="black" points="2282.66,-168.9 2287.3,-159.38 2277.73,-163.93 2282.66,-168.9"/>
</g>
<!-- n15 -->
<g id="node16" class="node">
<title>n15</title>
<path fill="palegreen" stroke="black" d="M2663.5,-160C2663.5,-160 2484.5,-160 2484.5,-160 2478.5,-160 2472.5,-154 2472.5,-148 2472.5,-148 2472.5,-134 2472.5,-134 2472.5,-128 2478.5,-122 2484.5,-122 2484.5,-122 2663.5,-122 2663.5,-122 2669.5,-122 2675.5,-128 2675.5,-134 2675.5,-134 2675.5,-148 2675.5,-148 2675.5,-154 2669.5,-160 2663.5,-160"/>
<text text-anchor="middle" x="2574" y="-144.8" font-family="Arial" font-size="14.00">Interaction</text>
<text text-anchor="middle" x="2574" y="-129.8" font-family="Arial" font-size="14.00">fish and insects for food source</text>
</g>
<!-- n8&#45;&gt;n15 -->
<g id="edge15" class="edge">
<title>n8&#45;&gt;n15</title>
<path fill="none" stroke="black" d="M2538.8,-245.92C2545.5,-226.17 2556.6,-193.38 2564.5,-169.91"/>
<polygon fill="black" stroke="black" points="2567.9,-170.77 2567.8,-160.18 2561.27,-168.53 2567.9,-170.77"/>
</g>
<!-- n17 -->
<g id="node17" class="node">
<title>n17</title>
<polygon fill="#f28e8e" stroke="black" points="1705,-36 1439,-36 1439,0 1705,0 1705,-36"/>
<text text-anchor="middle" x="1572" y="-14.3" font-family="Arial" font-size="14.00">Ensure all plant types are labeled in detail</text>
</g>
<!-- n16&#45;&gt;n17 -->
<g id="edge16" class="edge">
<title>n16&#45;&gt;n17</title>
<path fill="none" stroke="black" d="M1572,-122.92C1572,-103.04 1572,-69.92 1572,-46.42"/>
<polygon fill="black" stroke="black" points="1575.5,-46.38 1572,-36.38 1568.5,-46.39 1575.5,-46.38"/>
</g>
</g>
</svg>
