<?xml version="1.0" encoding="UTF-8" standalone="no"?>
<!DOCTYPE svg PUBLIC "-//W3C//DTD SVG 1.1//EN"
 "http://www.w3.org/Graphics/SVG/1.1/DTD/svg11.dtd">
<!-- Generated by graphviz version 2.43.0 (0)
 -->
<!-- Pages: 1 -->
<svg width="1944pt" height="410pt"
 viewBox="0.00 0.00 1943.70 410.00" xmlns="http://www.w3.org/2000/svg" xmlns:xlink="http://www.w3.org/1999/xlink">
<g id="graph0" class="graph" transform="scale(1 1) rotate(0) translate(4 406)">
<polygon fill="white" stroke="transparent" points="-4,4 -4,-406 1939.7,-406 1939.7,4 -4,4"/>
<!-- n1 -->
<g id="node1" class="node">
<title>n1</title>
<polygon fill="lightblue" stroke="black" points="1198,-384 1086.5,-402 863.5,-402 752,-384 863.5,-366 1086.5,-366 1198,-384"/>
<text text-anchor="middle" x="975" y="-380.3" font-family="Arial" font-size="14.00">Draw a string telephone between two students.</text>
</g>
<!-- n2 -->
<g id="node2" class="node">
<title>n2</title>
<polygon fill="#fffdd0" stroke="black" points="415.5,-280 234.5,-280 234.5,-244 415.5,-244 415.5,-280"/>
<text text-anchor="middle" x="325" y="-258.3" font-family="Arial" font-size="14.00">Two students on either side</text>
</g>
<!-- n1&#45;&gt;n2 -->
<g id="edge1" class="edge">
<title>n1&#45;&gt;n2</title>
<path fill="none" stroke="black" d="M882.91,-366C762.03,-343.68 550.58,-304.65 425.61,-281.57"/>
<polygon fill="black" stroke="black" points="426.13,-278.11 415.66,-279.74 424.86,-284.99 426.13,-278.11"/>
</g>
<!-- n3 -->
<g id="node3" class="node">
<title>n3</title>
<polygon fill="#fffdd0" stroke="black" points="768.5,-280 551.5,-280 551.5,-244 768.5,-244 768.5,-280"/>
<text text-anchor="middle" x="660" y="-258.3" font-family="Arial" font-size="14.00">Paper cup in each student&#39;s hand</text>
</g>
<!-- n1&#45;&gt;n3 -->
<g id="edge2" class="edge">
<title>n1&#45;&gt;n3</title>
<path fill="none" stroke="black" d="M930.2,-365.93C873.29,-344.25 775.14,-306.86 714.11,-283.61"/>
<polygon fill="black" stroke="black" points="715.23,-280.29 704.64,-280.01 712.74,-286.84 715.23,-280.29"/>
</g>
<!-- n4 -->
<g id="node4" class="node">
<title>n4</title>
<polygon fill="#fffdd0" stroke="black" points="1065,-280 885,-280 885,-244 1065,-244 1065,-280"/>
<text text-anchor="middle" x="975" y="-258.3" font-family="Arial" font-size="14.00">Taut string connecting cups</text>
</g>
<!-- n1&#45;&gt;n4 -->
<g id="edge3" class="edge">
<title>n1&#45;&gt;n4</title>
<path fill="none" stroke="black" d="M975,-365.81C975,-346.11 975,-313.58 975,-290.39"/>
<polygon fill="black" stroke="black" points="978.5,-290.16 975,-280.16 971.5,-290.16 978.5,-290.16"/>
</g>
<!-- n5 -->
<g id="node5" class="node">
<title>n5</title>
<polygon fill="#fffdd0" stroke="black" points="1374.5,-280 1179.5,-280 1179.5,-244 1374.5,-244 1374.5,-280"/>
<text text-anchor="middle" x="1277" y="-258.3" font-family="Arial" font-size="14.00">Label &#39;sound travels&#39; on string</text>
</g>
<!-- n1&#45;&gt;n5 -->
<g id="edge4" class="edge">
<title>n1&#45;&gt;n5</title>
<path fill="none" stroke="black" d="M1017.9,-365.93C1072.4,-344.3 1166.2,-307.02 1224.8,-283.76"/>
<polygon fill="black" stroke="black" points="1226.21,-286.97 1234.2,-280.01 1223.61,-280.46 1226.21,-286.97"/>
</g>
<!-- n6 -->
<g id="node6" class="node">
<title>n6</title>
<polygon fill="#fffdd0" stroke="black" points="1715.5,-280 1542.5,-280 1542.5,-244 1715.5,-244 1715.5,-280"/>
<text text-anchor="middle" x="1629" y="-258.3" font-family="Arial" font-size="14.00">Label &#39;vibration&#39; near cups</text>
</g>
<!-- n1&#45;&gt;n6 -->
<g id="edge5" class="edge">
<title>n1&#45;&gt;n6</title>
<path fill="none" stroke="black" d="M1067.7,-366C1190.8,-343.4 1407.4,-303.65 1532.5,-280.7"/>
<polygon fill="black" stroke="black" points="1533.29,-284.11 1542.5,-278.88 1532.03,-277.23 1533.29,-284.11"/>
</g>
<!-- n7 -->
<g id="node7" class="node">
<title>n7</title>
<path fill="palegreen" stroke="black" d="M368,-158C368,-158 12,-158 12,-158 6,-158 0,-152 0,-146 0,-146 0,-134 0,-134 0,-128 6,-122 12,-122 12,-122 368,-122 368,-122 374,-122 380,-128 380,-134 380,-134 380,-146 380,-146 380,-152 374,-158 368,-158"/>
<text text-anchor="middle" x="190" y="-136.3" font-family="Arial" font-size="14.00">Showing two students trying to communicate over a distance</text>
</g>
<!-- n2&#45;&gt;n7 -->
<g id="edge6" class="edge">
<title>n2&#45;&gt;n7</title>
<path fill="none" stroke="black" d="M305.66,-243.81C282.4,-223.13 243.23,-188.31 217,-165"/>
<polygon fill="black" stroke="black" points="219.11,-162.19 209.31,-158.16 214.46,-167.42 219.11,-162.19"/>
</g>
<!-- n8 -->
<g id="node8" class="node">
<title>n8</title>
<path fill="palegreen" stroke="black" d="M756,-158C756,-158 450,-158 450,-158 444,-158 438,-152 438,-146 438,-146 438,-134 438,-134 438,-128 444,-122 450,-122 450,-122 756,-122 756,-122 762,-122 768,-128 768,-134 768,-134 768,-146 768,-146 768,-152 762,-158 756,-158"/>
<text text-anchor="middle" x="603" y="-136.3" font-family="Arial" font-size="14.00">Device using string and cups to communicate sound</text>
</g>
<!-- n3&#45;&gt;n8 -->
<g id="edge7" class="edge">
<title>n3&#45;&gt;n8</title>
<path fill="none" stroke="black" d="M651.83,-243.81C642.35,-223.85 626.61,-190.7 615.56,-167.45"/>
<polygon fill="black" stroke="black" points="618.6,-165.69 611.15,-158.16 612.28,-168.69 618.6,-165.69"/>
</g>
<!-- n9 -->
<g id="node9" class="node">
<title>n9</title>
<path fill="palegreen" stroke="black" d="M1111.5,-158C1111.5,-158 838.5,-158 838.5,-158 832.5,-158 826.5,-152 826.5,-146 826.5,-146 826.5,-134 826.5,-134 826.5,-128 832.5,-122 838.5,-122 838.5,-122 1111.5,-122 1111.5,-122 1117.5,-122 1123.5,-128 1123.5,-134 1123.5,-134 1123.5,-146 1123.5,-146 1123.5,-152 1117.5,-158 1111.5,-158"/>
<text text-anchor="middle" x="975" y="-136.3" font-family="Arial" font-size="14.00">Understanding sound travels through the string</text>
</g>
<!-- n4&#45;&gt;n9 -->
<g id="edge8" class="edge">
<title>n4&#45;&gt;n9</title>
<path fill="none" stroke="black" d="M975,-243.81C975,-224.11 975,-191.58 975,-168.39"/>
<polygon fill="black" stroke="black" points="978.5,-168.16 975,-158.16 971.5,-168.16 978.5,-168.16"/>
</g>
<!-- n10 -->
<g id="node10" class="node">
<title>n10</title>
<path fill="palegreen" stroke="black" d="M1472,-158C1472,-158 1194,-158 1194,-158 1188,-158 1182,-152 1182,-146 1182,-146 1182,-134 1182,-134 1182,-128 1188,-122 1194,-122 1194,-122 1472,-122 1472,-122 1478,-122 1484,-128 1484,-134 1484,-134 1484,-146 1484,-146 1484,-152 1478,-158 1472,-158"/>
<text text-anchor="middle" x="1333" y="-136.3" font-family="Arial" font-size="14.00">Connection between cups explains sound travel</text>
</g>
<!-- n5&#45;&gt;n10 -->
<g id="edge9" class="edge">
<title>n5&#45;&gt;n10</title>
<path fill="none" stroke="black" d="M1285,-243.81C1294.3,-223.85 1309.8,-190.7 1320.7,-167.45"/>
<polygon fill="black" stroke="black" points="1323.98,-168.71 1325,-158.16 1317.62,-165.76 1323.98,-168.71"/>
</g>
<!-- n11 -->
<g id="node11" class="node">
<title>n11</title>
<polygon fill="lightcoral" stroke="black" points="1739,-158 1542.1,-140 1739,-122 1935.9,-140 1739,-158"/>
<text text-anchor="middle" x="1739" y="-136.3" font-family="Arial" font-size="14.00">Incomplete labeling of the device</text>
</g>
<!-- n6&#45;&gt;n11 -->
<g id="edge10" class="edge">
<title>n6&#45;&gt;n11</title>
<path fill="none" stroke="black" d="M1644.8,-243.81C1663.9,-222.96 1696.2,-187.74 1717.5,-164.42"/>
<polygon fill="black" stroke="black" points="1720.12,-166.74 1724.3,-157.01 1714.96,-162.01 1720.12,-166.74"/>
</g>
<!-- n12 -->
<g id="node12" class="node">
<title>n12</title>
<polygon fill="#f28e8e" stroke="black" points="1879.5,-36 1598.5,-36 1598.5,0 1879.5,0 1879.5,-36"/>
<text text-anchor="middle" x="1739" y="-14.3" font-family="Arial" font-size="14.00">Add missing labels to fully explain vibrations</text>
</g>
<!-- n11&#45;&gt;n12 -->
<g id="edge11" class="edge">
<title>n11&#45;&gt;n12</title>
<path fill="none" stroke="black" d="M1739,-121.81C1739,-102.11 1739,-69.58 1739,-46.39"/>
<polygon fill="black" stroke="black" points="1742.5,-46.16 1739,-36.16 1735.5,-46.16 1742.5,-46.16"/>
</g>
</g>
</svg>
