<?xml version="1.0" encoding="UTF-8" standalone="no"?>
<!DOCTYPE svg PUBLIC "-//W3C//DTD SVG 1.1//EN"
 "http://www.w3.org/Graphics/SVG/1.1/DTD/svg11.dtd">
<!-- Generated by graphviz version 2.43.0 (0)
 -->
<!-- Pages: 1 -->
<svg width="2147pt" height="410pt"
 viewBox="0.00 0.00 2146.50 410.00" xmlns="http://www.w3.org/2000/svg" xmlns:xlink="http://www.w3.org/1999/xlink">
<g id="graph0" class="graph" transform="scale(1 1) rotate(0) translate(4 406)">
<polygon fill="white" stroke="transparent" points="-4,4 -4,-406 2142.5,-406 2142.5,4 -4,4"/>
<!-- n1 -->
<g id="node1" class="node">
<title>n1</title>
<polygon fill="lightblue" stroke="black" points="1228.5,-384 1117,-402 894,-402 782.5,-384 894,-366 1117,-366 1228.5,-384"/>
<text text-anchor="middle" x="1005.5" y="-380.3" font-family="Arial" font-size="14.00">Draw a string telephone between two students.</text>
</g>
<!-- n2 -->
<g id="node2" class="node">
<title>n2</title>
<polygon fill="#fffdd0" stroke="black" points="439.5,-280 169.5,-280 169.5,-244 439.5,-244 439.5,-280"/>
<text text-anchor="middle" x="304.5" y="-258.3" font-family="Arial" font-size="14.00">Colorful drawing with two cartoon students</text>
</g>
<!-- n1&#45;&gt;n2 -->
<g id="edge1" class="edge">
<title>n1&#45;&gt;n2</title>
<path fill="none" stroke="black" d="M906.18,-366C776.11,-343.73 548.8,-304.82 413.91,-281.73"/>
<polygon fill="black" stroke="black" points="414.41,-278.26 403.96,-280.03 413.23,-285.16 414.41,-278.26"/>
</g>
<!-- n3 -->
<g id="node3" class="node">
<title>n3</title>
<polygon fill="#fffdd0" stroke="black" points="809.5,-280 603.5,-280 603.5,-244 809.5,-244 809.5,-280"/>
<text text-anchor="middle" x="706.5" y="-258.3" font-family="Arial" font-size="14.00">Two cups connected by a string</text>
</g>
<!-- n1&#45;&gt;n3 -->
<g id="edge2" class="edge">
<title>n1&#45;&gt;n3</title>
<path fill="none" stroke="black" d="M962.98,-365.93C909.07,-344.3 816.18,-307.02 758.22,-283.76"/>
<polygon fill="black" stroke="black" points="759.46,-280.49 748.88,-280.01 756.86,-286.98 759.46,-280.49"/>
</g>
<!-- n4 -->
<g id="node4" class="node">
<title>n4</title>
<polygon fill="#fffdd0" stroke="black" points="1096.5,-280 914.5,-280 914.5,-244 1096.5,-244 1096.5,-280"/>
<text text-anchor="middle" x="1005.5" y="-258.3" font-family="Arial" font-size="14.00">Labels for &#39;String&#39; and &#39;Cup&#39;</text>
</g>
<!-- n1&#45;&gt;n4 -->
<g id="edge3" class="edge">
<title>n1&#45;&gt;n4</title>
<path fill="none" stroke="black" d="M1005.5,-365.81C1005.5,-346.11 1005.5,-313.58 1005.5,-290.39"/>
<polygon fill="black" stroke="black" points="1009,-290.16 1005.5,-280.16 1002,-290.16 1009,-290.16"/>
</g>
<!-- n5 -->
<g id="node5" class="node">
<title>n5</title>
<polygon fill="#fffdd0" stroke="black" points="1642.5,-280 1348.5,-280 1348.5,-244 1642.5,-244 1642.5,-280"/>
<text text-anchor="middle" x="1495.5" y="-258.3" font-family="Arial" font-size="14.00">Arrows and wavy lines indicating sound waves</text>
</g>
<!-- n1&#45;&gt;n5 -->
<g id="edge4" class="edge">
<title>n1&#45;&gt;n5</title>
<path fill="none" stroke="black" d="M1074.9,-366C1164.9,-343.95 1321.6,-305.6 1416.2,-282.43"/>
<polygon fill="black" stroke="black" points="1417.12,-285.81 1426,-280.03 1415.45,-279.01 1417.12,-285.81"/>
</g>
<!-- n6 -->
<g id="node6" class="node">
<title>n6</title>
<polygon fill="#fffdd0" stroke="black" points="1996.5,-280 1826.5,-280 1826.5,-244 1996.5,-244 1996.5,-280"/>
<text text-anchor="middle" x="1911.5" y="-258.3" font-family="Arial" font-size="14.00">Tight string between cups</text>
</g>
<!-- n1&#45;&gt;n6 -->
<g id="edge5" class="edge">
<title>n1&#45;&gt;n6</title>
<path fill="none" stroke="black" d="M1124.9,-367.19C1306.8,-343.1 1649.7,-297.67 1816.1,-275.63"/>
<polygon fill="black" stroke="black" points="1816.94,-279.05 1826.4,-274.28 1816.03,-272.11 1816.94,-279.05"/>
</g>
<!-- n7 -->
<g id="node7" class="node">
<title>n7</title>
<path fill="palegreen" stroke="black" d="M351,-158C351,-158 12,-158 12,-158 6,-158 0,-152 0,-146 0,-146 0,-134 0,-134 0,-128 6,-122 12,-122 12,-122 351,-122 351,-122 357,-122 363,-128 363,-134 363,-134 363,-146 363,-146 363,-152 357,-158 351,-158"/>
<text text-anchor="middle" x="181.5" y="-136.3" font-family="Arial" font-size="14.00">Students understand visual communication in the drawing</text>
</g>
<!-- n2&#45;&gt;n7 -->
<g id="edge6" class="edge">
<title>n2&#45;&gt;n7</title>
<path fill="none" stroke="black" d="M286.88,-243.81C265.78,-223.22 230.3,-188.61 206.41,-165.3"/>
<polygon fill="black" stroke="black" points="208.69,-162.64 199.09,-158.16 203.8,-167.65 208.69,-162.64"/>
</g>
<!-- n8 -->
<g id="node8" class="node">
<title>n8</title>
<path fill="palegreen" stroke="black" d="M758,-158C758,-158 433,-158 433,-158 427,-158 421,-152 421,-146 421,-146 421,-134 421,-134 421,-128 427,-122 433,-122 433,-122 758,-122 758,-122 764,-122 770,-128 770,-134 770,-134 770,-146 770,-146 770,-152 764,-158 758,-158"/>
<text text-anchor="middle" x="595.5" y="-136.3" font-family="Arial" font-size="14.00">Understanding of sound transmission through the string</text>
</g>
<!-- n3&#45;&gt;n8 -->
<g id="edge7" class="edge">
<title>n3&#45;&gt;n8</title>
<path fill="none" stroke="black" d="M690.6,-243.81C671.64,-223.31 639.82,-188.91 618.26,-165.6"/>
<polygon fill="black" stroke="black" points="620.73,-163.12 611.37,-158.16 615.6,-167.88 620.73,-163.12"/>
</g>
<!-- n9 -->
<g id="node9" class="node">
<title>n9</title>
<path fill="palegreen" stroke="black" d="M1045,-158C1045,-158 840,-158 840,-158 834,-158 828,-152 828,-146 828,-146 828,-134 828,-134 828,-128 834,-122 840,-122 840,-122 1045,-122 1045,-122 1051,-122 1057,-128 1057,-134 1057,-134 1057,-146 1057,-146 1057,-152 1051,-158 1045,-158"/>
<text text-anchor="middle" x="942.5" y="-136.3" font-family="Arial" font-size="14.00">Correct labeling of key components</text>
</g>
<!-- n4&#45;&gt;n9 -->
<g id="edge8" class="edge">
<title>n4&#45;&gt;n9</title>
<path fill="none" stroke="black" d="M996.47,-243.81C985.95,-223.76 968.44,-190.4 956.22,-167.14"/>
<polygon fill="black" stroke="black" points="959.25,-165.39 951.51,-158.16 953.06,-168.64 959.25,-165.39"/>
</g>
<!-- n12 -->
<g id="node10" class="node">
<title>n12</title>
<polygon fill="lightcoral" stroke="black" points="1278.5,-158 1114.78,-140 1278.5,-122 1442.22,-140 1278.5,-158"/>
<text text-anchor="middle" x="1278.5" y="-136.3" font-family="Arial" font-size="14.00">Potential labeling oversight</text>
</g>
<!-- n4&#45;&gt;n12 -->
<g id="edge9" class="edge">
<title>n4&#45;&gt;n12</title>
<path fill="none" stroke="black" d="M1044.3,-243.93C1095.7,-221.33 1186,-181.67 1238.1,-158.74"/>
<polygon fill="black" stroke="black" points="1239.65,-161.88 1247.4,-154.66 1236.84,-155.47 1239.65,-161.88"/>
</g>
<!-- n10 -->
<g id="node11" class="node">
<title>n10</title>
<path fill="palegreen" stroke="black" d="M1740.5,-158C1740.5,-158 1512.5,-158 1512.5,-158 1506.5,-158 1500.5,-152 1500.5,-146 1500.5,-146 1500.5,-134 1500.5,-134 1500.5,-128 1506.5,-122 1512.5,-122 1512.5,-122 1740.5,-122 1740.5,-122 1746.5,-122 1752.5,-128 1752.5,-134 1752.5,-134 1752.5,-146 1752.5,-146 1752.5,-152 1746.5,-158 1740.5,-158"/>
<text text-anchor="middle" x="1626.5" y="-136.3" font-family="Arial" font-size="14.00">Understanding how sound waves travel</text>
</g>
<!-- n5&#45;&gt;n10 -->
<g id="edge10" class="edge">
<title>n5&#45;&gt;n10</title>
<path fill="none" stroke="black" d="M1514.3,-243.81C1536.8,-223.13 1574.9,-188.31 1600.3,-165"/>
<polygon fill="black" stroke="black" points="1602.77,-167.48 1607.8,-158.16 1598.05,-162.31 1602.77,-167.48"/>
</g>
<!-- n11 -->
<g id="node12" class="node">
<title>n11</title>
<path fill="palegreen" stroke="black" d="M2126.5,-158C2126.5,-158 1822.5,-158 1822.5,-158 1816.5,-158 1810.5,-152 1810.5,-146 1810.5,-146 1810.5,-134 1810.5,-134 1810.5,-128 1816.5,-122 1822.5,-122 1822.5,-122 2126.5,-122 2126.5,-122 2132.5,-122 2138.5,-128 2138.5,-134 2138.5,-134 2138.5,-146 2138.5,-146 2138.5,-152 2132.5,-158 2126.5,-158"/>
<text text-anchor="middle" x="1974.5" y="-136.3" font-family="Arial" font-size="14.00">String must be tight for effective sound transmission</text>
</g>
<!-- n6&#45;&gt;n11 -->
<g id="edge11" class="edge">
<title>n6&#45;&gt;n11</title>
<path fill="none" stroke="black" d="M1920.5,-243.81C1931.1,-223.76 1948.6,-190.4 1960.8,-167.14"/>
<polygon fill="black" stroke="black" points="1963.96,-168.64 1965.5,-158.16 1957.76,-165.4 1963.96,-168.64"/>
</g>
<!-- n13 -->
<g id="node13" class="node">
<title>n13</title>
<polygon fill="#f28e8e" stroke="black" points="1400,-36 1157,-36 1157,0 1400,0 1400,-36"/>
<text text-anchor="middle" x="1278.5" y="-14.3" font-family="Arial" font-size="14.00">Ensure all labels are clear and correct</text>
</g>
<!-- n12&#45;&gt;n13 -->
<g id="edge12" class="edge">
<title>n12&#45;&gt;n13</title>
<path fill="none" stroke="black" d="M1278.5,-121.81C1278.5,-102.11 1278.5,-69.58 1278.5,-46.39"/>
<polygon fill="black" stroke="black" points="1282,-46.16 1278.5,-36.16 1275,-46.16 1282,-46.16"/>
</g>
</g>
</svg>
