<?xml version="1.0" encoding="UTF-8" standalone="no"?>
<!DOCTYPE svg PUBLIC "-//W3C//DTD SVG 1.1//EN"
 "http://www.w3.org/Graphics/SVG/1.1/DTD/svg11.dtd">
<!-- Generated by graphviz version 2.43.0 (0)
 -->
<!-- Pages: 1 -->
<svg width="1698pt" height="288pt"
 viewBox="0.00 0.00 1698.21 288.00" xmlns="http://www.w3.org/2000/svg" xmlns:xlink="http://www.w3.org/1999/xlink">
<g id="graph0" class="graph" transform="scale(1 1) rotate(0) translate(4 284)">
<polygon fill="white" stroke="transparent" points="-4,4 -4,-284 1694.21,-284 1694.21,4 -4,4"/>
<!-- n1 -->
<g id="node1" class="node">
<title>n1</title>
<polygon fill="lightblue" stroke="black" points="918.87,-262 776.19,-280 490.81,-280 348.13,-262 490.81,-244 776.19,-244 918.87,-262"/>
<text text-anchor="middle" x="633.5" y="-258.3" font-family="Arial" font-size="14.00">Draw animals in their habitats with labels (e.g., fish in water).</text>
</g>
<!-- n2 -->
<g id="node2" class="node">
<title>n2</title>
<polygon fill="#fffdd0" stroke="black" points="265,-158 0,-158 0,-122 265,-122 265,-158"/>
<text text-anchor="middle" x="132.5" y="-136.3" font-family="Arial" font-size="14.00">Fish swimming in ocean (labeled &#39;ocean&#39;)</text>
</g>
<!-- n1&#45;&gt;n2 -->
<g id="edge1" class="edge">
<title>n1&#45;&gt;n2</title>
<path fill="none" stroke="black" d="M562.52,-244C470.39,-221.93 310.02,-183.52 213.32,-160.36"/>
<polygon fill="black" stroke="black" points="214.13,-156.96 203.59,-158.03 212.5,-163.76 214.13,-156.96"/>
</g>
<!-- n3 -->
<g id="node3" class="node">
<title>n3</title>
<polygon fill="#fffdd0" stroke="black" points="616,-158 323,-158 323,-122 616,-122 616,-158"/>
<text text-anchor="middle" x="469.5" y="-136.3" font-family="Arial" font-size="14.00">Bird perching on tree in forest (labeled &#39;forest&#39;)</text>
</g>
<!-- n1&#45;&gt;n3 -->
<g id="edge2" class="edge">
<title>n1&#45;&gt;n3</title>
<path fill="none" stroke="black" d="M610,-243.81C581.38,-222.87 532.93,-187.41 501.07,-164.1"/>
<polygon fill="black" stroke="black" points="503.09,-161.24 492.95,-158.16 498.95,-166.89 503.09,-161.24"/>
</g>
<!-- n4 -->
<g id="node4" class="node">
<title>n4</title>
<polygon fill="#fffdd0" stroke="black" points="920.5,-158 674.5,-158 674.5,-122 920.5,-122 920.5,-158"/>
<text text-anchor="middle" x="797.5" y="-136.3" font-family="Arial" font-size="14.00">Deer walking in forest (labeled &#39;forest&#39;)</text>
</g>
<!-- n1&#45;&gt;n4 -->
<g id="edge3" class="edge">
<title>n1&#45;&gt;n4</title>
<path fill="none" stroke="black" d="M657,-243.81C685.62,-222.87 734.07,-187.41 765.93,-164.1"/>
<polygon fill="black" stroke="black" points="768.05,-166.89 774.05,-158.16 763.91,-161.24 768.05,-166.89"/>
</g>
<!-- n8 -->
<g id="node5" class="node">
<title>n8</title>
<polygon fill="lightcoral" stroke="black" points="1334.5,-158 978.57,-140 1334.5,-122 1690.43,-140 1334.5,-158"/>
<text text-anchor="middle" x="1334.5" y="-136.3" font-family="Arial" font-size="14.00">Incomplete element: Sun not labeled for sunlight dependency.</text>
</g>
<!-- n1&#45;&gt;n8 -->
<g id="edge4" class="edge">
<title>n1&#45;&gt;n8</title>
<path fill="none" stroke="black" d="M732.82,-244C870.49,-220.43 1117.1,-178.22 1247.7,-155.85"/>
<polygon fill="black" stroke="black" points="1248.43,-159.28 1257.7,-154.14 1247.25,-152.38 1248.43,-159.28"/>
</g>
<!-- n5 -->
<g id="node6" class="node">
<title>n5</title>
<path fill="palegreen" stroke="black" d="M209.5,-36C209.5,-36 55.5,-36 55.5,-36 49.5,-36 43.5,-30 43.5,-24 43.5,-24 43.5,-12 43.5,-12 43.5,-6 49.5,0 55.5,0 55.5,0 209.5,0 209.5,0 215.5,0 221.5,-6 221.5,-12 221.5,-12 221.5,-24 221.5,-24 221.5,-30 215.5,-36 209.5,-36"/>
<text text-anchor="middle" x="132.5" y="-14.3" font-family="Arial" font-size="14.00">Fish need water to survive.</text>
</g>
<!-- n2&#45;&gt;n5 -->
<g id="edge5" class="edge">
<title>n2&#45;&gt;n5</title>
<path fill="none" stroke="black" d="M132.5,-121.81C132.5,-102.11 132.5,-69.58 132.5,-46.39"/>
<polygon fill="black" stroke="black" points="136,-46.16 132.5,-36.16 129,-46.16 136,-46.16"/>
</g>
<!-- n6 -->
<g id="node7" class="node">
<title>n6</title>
<path fill="palegreen" stroke="black" d="M576.5,-36C576.5,-36 362.5,-36 362.5,-36 356.5,-36 350.5,-30 350.5,-24 350.5,-24 350.5,-12 350.5,-12 350.5,-6 356.5,0 362.5,0 362.5,0 576.5,0 576.5,0 582.5,0 588.5,-6 588.5,-12 588.5,-12 588.5,-24 588.5,-24 588.5,-30 582.5,-36 576.5,-36"/>
<text text-anchor="middle" x="469.5" y="-14.3" font-family="Arial" font-size="14.00">Birds live and find resources in trees.</text>
</g>
<!-- n3&#45;&gt;n6 -->
<g id="edge6" class="edge">
<title>n3&#45;&gt;n6</title>
<path fill="none" stroke="black" d="M469.5,-121.81C469.5,-102.11 469.5,-69.58 469.5,-46.39"/>
<polygon fill="black" stroke="black" points="473,-46.16 469.5,-36.16 466,-46.16 473,-46.16"/>
</g>
<!-- n7 -->
<g id="node8" class="node">
<title>n7</title>
<path fill="palegreen" stroke="black" d="M933.5,-36C933.5,-36 661.5,-36 661.5,-36 655.5,-36 649.5,-30 649.5,-24 649.5,-24 649.5,-12 649.5,-12 649.5,-6 655.5,0 661.5,0 661.5,0 933.5,0 933.5,0 939.5,0 945.5,-6 945.5,-12 945.5,-12 945.5,-24 945.5,-24 945.5,-30 939.5,-36 933.5,-36"/>
<text text-anchor="middle" x="797.5" y="-14.3" font-family="Arial" font-size="14.00">Forests provide habitat and resources for deer.</text>
</g>
<!-- n4&#45;&gt;n7 -->
<g id="edge7" class="edge">
<title>n4&#45;&gt;n7</title>
<path fill="none" stroke="black" d="M797.5,-121.81C797.5,-102.11 797.5,-69.58 797.5,-46.39"/>
<polygon fill="black" stroke="black" points="801,-46.16 797.5,-36.16 794,-46.16 801,-46.16"/>
</g>
<!-- n9 -->
<g id="node9" class="node">
<title>n9</title>
<polygon fill="#f28e8e" stroke="black" points="1544,-36 1125,-36 1125,0 1544,0 1544,-36"/>
<text text-anchor="middle" x="1334.5" y="-14.3" font-family="Arial" font-size="14.00">Consider labeling the sunlight as a resource for plants and animals.</text>
</g>
<!-- n8&#45;&gt;n9 -->
<g id="edge8" class="edge">
<title>n8&#45;&gt;n9</title>
<path fill="none" stroke="black" d="M1334.5,-121.81C1334.5,-102.11 1334.5,-69.58 1334.5,-46.39"/>
<polygon fill="black" stroke="black" points="1338,-46.16 1334.5,-36.16 1331,-46.16 1338,-46.16"/>
</g>
</g>
</svg>
