<?xml version="1.0" encoding="UTF-8" standalone="no"?>
<!DOCTYPE svg PUBLIC "-//W3C//DTD SVG 1.1//EN"
 "http://www.w3.org/Graphics/SVG/1.1/DTD/svg11.dtd">
<!-- Generated by graphviz version 2.43.0 (0)
 -->
<!-- Pages: 1 -->
<svg width="1155pt" height="410pt"
 viewBox="0.00 0.00 1155.00 410.00" xmlns="http://www.w3.org/2000/svg" xmlns:xlink="http://www.w3.org/1999/xlink">
<g id="graph0" class="graph" transform="scale(1 1) rotate(0) translate(4 406)">
<polygon fill="white" stroke="transparent" points="-4,4 -4,-406 1151,-406 1151,4 -4,4"/>
<!-- n1 -->
<g id="node1" class="node">
<title>n1</title>
<polygon fill="lightblue" stroke="black" points="777.5,-384 685.5,-402 501.5,-402 409.5,-384 501.5,-366 685.5,-366 777.5,-384"/>
<text text-anchor="middle" x="593.5" y="-380.3" font-family="Arial" font-size="14.00">Illustrate plants with and without water</text>
</g>
<!-- n2 -->
<g id="node2" class="node">
<title>n2</title>
<polygon fill="#fffdd0" stroke="black" points="574.5,-280 332.5,-280 332.5,-244 574.5,-244 574.5,-280"/>
<text text-anchor="middle" x="453.5" y="-258.3" font-family="Arial" font-size="14.00">Plant with bright green, upright leaves</text>
</g>
<!-- n1&#45;&gt;n2 -->
<g id="edge1" class="edge">
<title>n1&#45;&gt;n2</title>
<path fill="none" stroke="black" d="M573.44,-365.81C549.22,-345.04 508.35,-310.01 481.15,-286.7"/>
<polygon fill="black" stroke="black" points="483.39,-284.01 473.52,-280.16 478.83,-289.33 483.39,-284.01"/>
</g>
<!-- n3 -->
<g id="node3" class="node">
<title>n3</title>
<polygon fill="#fffdd0" stroke="black" points="836,-280 633,-280 633,-244 836,-244 836,-280"/>
<text text-anchor="middle" x="734.5" y="-258.3" font-family="Arial" font-size="14.00">Plant with dull, drooping leaves</text>
</g>
<!-- n1&#45;&gt;n3 -->
<g id="edge2" class="edge">
<title>n1&#45;&gt;n3</title>
<path fill="none" stroke="black" d="M613.7,-365.81C638.1,-345.04 679.26,-310.01 706.65,-286.7"/>
<polygon fill="black" stroke="black" points="708.99,-289.3 714.34,-280.16 704.45,-283.97 708.99,-289.3"/>
</g>
<!-- n4 -->
<g id="node4" class="node">
<title>n4</title>
<path fill="palegreen" stroke="black" d="M285,-158C285,-158 12,-158 12,-158 6,-158 0,-152 0,-146 0,-146 0,-134 0,-134 0,-128 6,-122 12,-122 12,-122 285,-122 285,-122 291,-122 297,-128 297,-134 297,-134 297,-146 297,-146 297,-152 291,-158 285,-158"/>
<text text-anchor="middle" x="148.5" y="-136.3" font-family="Arial" font-size="14.00">Understands plant health with water availability</text>
</g>
<!-- n2&#45;&gt;n4 -->
<g id="edge3" class="edge">
<title>n2&#45;&gt;n4</title>
<path fill="none" stroke="black" d="M410.12,-243.93C355.13,-222.3 260.38,-185.02 201.26,-161.76"/>
<polygon fill="black" stroke="black" points="202.32,-158.41 191.73,-158.01 199.75,-164.93 202.32,-158.41"/>
</g>
<!-- n6 -->
<g id="node5" class="node">
<title>n6</title>
<polygon fill="lightcoral" stroke="black" points="594.5,-158 354.5,-140 594.5,-122 834.5,-140 594.5,-158"/>
<text text-anchor="middle" x="594.5" y="-136.3" font-family="Arial" font-size="14.00">Does not effectively compare both plants</text>
</g>
<!-- n2&#45;&gt;n6 -->
<g id="edge4" class="edge">
<title>n2&#45;&gt;n6</title>
<path fill="none" stroke="black" d="M473.7,-243.81C498.65,-222.57 541.14,-186.41 568.5,-163.13"/>
<polygon fill="black" stroke="black" points="570.79,-165.78 576.13,-156.63 566.25,-160.45 570.79,-165.78"/>
</g>
<!-- n3&#45;&gt;n6 -->
<g id="edge5" class="edge">
<title>n3&#45;&gt;n6</title>
<path fill="none" stroke="black" d="M714.44,-243.81C689.77,-222.66 647.84,-186.72 620.67,-163.43"/>
<polygon fill="black" stroke="black" points="622.61,-160.48 612.74,-156.63 618.05,-165.8 622.61,-160.48"/>
</g>
<!-- n5 -->
<g id="node6" class="node">
<title>n5</title>
<path fill="palegreen" stroke="black" d="M1135,-158C1135,-158 904,-158 904,-158 898,-158 892,-152 892,-146 892,-146 892,-134 892,-134 892,-128 898,-122 904,-122 904,-122 1135,-122 1135,-122 1141,-122 1147,-128 1147,-134 1147,-134 1147,-146 1147,-146 1147,-152 1141,-158 1135,-158"/>
<text text-anchor="middle" x="1019.5" y="-136.3" font-family="Arial" font-size="14.00">Understands wilting due to lack of water</text>
</g>
<!-- n3&#45;&gt;n5 -->
<g id="edge6" class="edge">
<title>n3&#45;&gt;n5</title>
<path fill="none" stroke="black" d="M775.03,-243.93C826.31,-222.34 914.59,-185.17 969.86,-161.9"/>
<polygon fill="black" stroke="black" points="971.25,-165.11 979.11,-158.01 968.54,-158.66 971.25,-165.11"/>
</g>
<!-- n7 -->
<g id="node7" class="node">
<title>n7</title>
<polygon fill="#f28e8e" stroke="black" points="767.5,-36 421.5,-36 421.5,0 767.5,0 767.5,-36"/>
<text text-anchor="middle" x="594.5" y="-14.3" font-family="Arial" font-size="14.00">Use comparisons and patterns to show effects of water</text>
</g>
<!-- n6&#45;&gt;n7 -->
<g id="edge7" class="edge">
<title>n6&#45;&gt;n7</title>
<path fill="none" stroke="black" d="M594.5,-121.81C594.5,-102.11 594.5,-69.58 594.5,-46.39"/>
<polygon fill="black" stroke="black" points="598,-46.16 594.5,-36.16 591,-46.16 598,-46.16"/>
</g>
</g>
</svg>
