<?xml version="1.0" encoding="UTF-8" standalone="no"?>
<!DOCTYPE svg PUBLIC "-//W3C//DTD SVG 1.1//EN"
 "http://www.w3.org/Graphics/SVG/1.1/DTD/svg11.dtd">
<!-- Generated by graphviz version 2.43.0 (0)
 -->
<!-- Pages: 1 -->
<svg width="1498pt" height="410pt"
 viewBox="0.00 0.00 1497.50 410.00" xmlns="http://www.w3.org/2000/svg" xmlns:xlink="http://www.w3.org/1999/xlink">
<g id="graph0" class="graph" transform="scale(1 1) rotate(0) translate(4 406)">
<polygon fill="white" stroke="transparent" points="-4,4 -4,-406 1493.5,-406 1493.5,4 -4,4"/>
<!-- n1 -->
<g id="node1" class="node">
<title>n1</title>
<polygon fill="lightblue" stroke="black" points="876.24,-384 783.12,-402 596.88,-402 503.76,-384 596.88,-366 783.12,-366 876.24,-384"/>
<text text-anchor="middle" x="690" y="-380.3" font-family="Arial" font-size="14.00">Illustrate plants with and without water.</text>
</g>
<!-- n2 -->
<g id="node2" class="node">
<title>n2</title>
<polygon fill="#fffdd0" stroke="black" points="471,-280 149,-280 149,-244 471,-244 471,-280"/>
<text text-anchor="middle" x="310" y="-258.3" font-family="Arial" font-size="14.00">Watered Plant with vibrant leaves and upright stem</text>
</g>
<!-- n1&#45;&gt;n2 -->
<g id="edge1" class="edge">
<title>n1&#45;&gt;n2</title>
<path fill="none" stroke="black" d="M635.96,-365.93C566.74,-344.07 446.95,-306.25 373.46,-283.04"/>
<polygon fill="black" stroke="black" points="374.44,-279.68 363.85,-280.01 372.33,-286.36 374.44,-279.68"/>
</g>
<!-- n3 -->
<g id="node3" class="node">
<title>n3</title>
<polygon fill="#fffdd0" stroke="black" points="838.5,-280 541.5,-280 541.5,-244 838.5,-244 838.5,-280"/>
<text text-anchor="middle" x="690" y="-258.3" font-family="Arial" font-size="14.00">Dry Plant with wilted leaves and drooping stem</text>
</g>
<!-- n1&#45;&gt;n3 -->
<g id="edge2" class="edge">
<title>n1&#45;&gt;n3</title>
<path fill="none" stroke="black" d="M690,-365.81C690,-346.11 690,-313.58 690,-290.39"/>
<polygon fill="black" stroke="black" points="693.5,-290.16 690,-280.16 686.5,-290.16 693.5,-290.16"/>
</g>
<!-- n4 -->
<g id="node4" class="node">
<title>n4</title>
<polygon fill="#fffdd0" stroke="black" points="1276,-280 1146,-280 1146,-244 1276,-244 1276,-280"/>
<text text-anchor="middle" x="1211" y="-258.3" font-family="Arial" font-size="14.00">Blue Watering Can</text>
</g>
<!-- n1&#45;&gt;n4 -->
<g id="edge3" class="edge">
<title>n1&#45;&gt;n4</title>
<path fill="none" stroke="black" d="M763.82,-366C862.47,-343.28 1036.4,-303.22 1135.7,-280.33"/>
<polygon fill="black" stroke="black" points="1136.73,-283.68 1145.7,-278.04 1135.17,-276.86 1136.73,-283.68"/>
</g>
<!-- n5 -->
<g id="node5" class="node">
<title>n5</title>
<path fill="palegreen" stroke="black" d="M332,-158C332,-158 12,-158 12,-158 6,-158 0,-152 0,-146 0,-146 0,-134 0,-134 0,-128 6,-122 12,-122 12,-122 332,-122 332,-122 338,-122 344,-128 344,-134 344,-134 344,-146 344,-146 344,-152 338,-158 332,-158"/>
<text text-anchor="middle" x="172" y="-136.3" font-family="Arial" font-size="14.00">Watered Plant shows healthy appearance due to water</text>
</g>
<!-- n2&#45;&gt;n5 -->
<g id="edge4" class="edge">
<title>n2&#45;&gt;n5</title>
<path fill="none" stroke="black" d="M290.23,-243.81C266.45,-223.13 226.41,-188.31 199.6,-165"/>
<polygon fill="black" stroke="black" points="201.58,-162.08 191.74,-158.16 196.99,-167.36 201.58,-162.08"/>
</g>
<!-- n6 -->
<g id="node6" class="node">
<title>n6</title>
<path fill="palegreen" stroke="black" d="M716,-158C716,-158 414,-158 414,-158 408,-158 402,-152 402,-146 402,-146 402,-134 402,-134 402,-128 408,-122 414,-122 414,-122 716,-122 716,-122 722,-122 728,-128 728,-134 728,-134 728,-146 728,-146 728,-152 722,-158 716,-158"/>
<text text-anchor="middle" x="565" y="-136.3" font-family="Arial" font-size="14.00">Dry Plant shows poor health indicating lack of water</text>
</g>
<!-- n3&#45;&gt;n6 -->
<g id="edge5" class="edge">
<title>n3&#45;&gt;n6</title>
<path fill="none" stroke="black" d="M672.09,-243.81C650.65,-223.22 614.6,-188.61 590.31,-165.3"/>
<polygon fill="black" stroke="black" points="592.52,-162.57 582.88,-158.16 587.67,-167.61 592.52,-162.57"/>
</g>
<!-- n8 -->
<g id="node7" class="node">
<title>n8</title>
<polygon fill="lightcoral" stroke="black" points="955,-158 785.75,-140 955,-122 1124.25,-140 955,-158"/>
<text text-anchor="middle" x="955" y="-136.3" font-family="Arial" font-size="14.00">Soil color misrepresentation</text>
</g>
<!-- n3&#45;&gt;n8 -->
<g id="edge6" class="edge">
<title>n3&#45;&gt;n8</title>
<path fill="none" stroke="black" d="M727.69,-243.93C777.36,-221.44 864.35,-182.05 915.1,-159.07"/>
<polygon fill="black" stroke="black" points="916.77,-162.15 924.44,-154.84 913.89,-155.78 916.77,-162.15"/>
</g>
<!-- n7 -->
<g id="node8" class="node">
<title>n7</title>
<path fill="palegreen" stroke="black" d="M1477.5,-158C1477.5,-158 1194.5,-158 1194.5,-158 1188.5,-158 1182.5,-152 1182.5,-146 1182.5,-146 1182.5,-134 1182.5,-134 1182.5,-128 1188.5,-122 1194.5,-122 1194.5,-122 1477.5,-122 1477.5,-122 1483.5,-122 1489.5,-128 1489.5,-134 1489.5,-134 1489.5,-146 1489.5,-146 1489.5,-152 1483.5,-158 1477.5,-158"/>
<text text-anchor="middle" x="1336" y="-136.3" font-family="Arial" font-size="14.00">Presence of watering can indicates water source</text>
</g>
<!-- n4&#45;&gt;n7 -->
<g id="edge7" class="edge">
<title>n4&#45;&gt;n7</title>
<path fill="none" stroke="black" d="M1228.9,-243.81C1250.4,-223.22 1286.4,-188.61 1310.7,-165.3"/>
<polygon fill="black" stroke="black" points="1313.33,-167.62 1318.1,-158.16 1308.47,-162.58 1313.33,-167.62"/>
</g>
<!-- n9 -->
<g id="node9" class="node">
<title>n9</title>
<polygon fill="#f28e8e" stroke="black" points="1097,-36 813,-36 813,0 1097,0 1097,-36"/>
<text text-anchor="middle" x="955" y="-14.3" font-family="Arial" font-size="14.00">Use darker brown to better represent dry soil</text>
</g>
<!-- n8&#45;&gt;n9 -->
<g id="edge8" class="edge">
<title>n8&#45;&gt;n9</title>
<path fill="none" stroke="black" d="M955,-121.81C955,-102.11 955,-69.58 955,-46.39"/>
<polygon fill="black" stroke="black" points="958.5,-46.16 955,-36.16 951.5,-46.16 958.5,-46.16"/>
</g>
</g>
</svg>
