<?xml version="1.0" encoding="UTF-8" standalone="no"?>
<!DOCTYPE svg PUBLIC "-//W3C//DTD SVG 1.1//EN"
 "http://www.w3.org/Graphics/SVG/1.1/DTD/svg11.dtd">
<!-- Generated by graphviz version 2.43.0 (0)
 -->
<!-- Pages: 1 -->
<svg width="2136pt" height="410pt"
 viewBox="0.00 0.00 2135.50 410.00" xmlns="http://www.w3.org/2000/svg" xmlns:xlink="http://www.w3.org/1999/xlink">
<g id="graph0" class="graph" transform="scale(1 1) rotate(0) translate(4 406)">
<polygon fill="white" stroke="transparent" points="-4,4 -4,-406 2131.5,-406 2131.5,4 -4,4"/>
<!-- n1 -->
<g id="node1" class="node">
<title>n1</title>
<polygon fill="lightblue" stroke="black" points="1280.5,-384 1189.25,-402 1006.75,-402 915.5,-384 1006.75,-366 1189.25,-366 1280.5,-384"/>
<text text-anchor="middle" x="1098" y="-380.3" font-family="Arial" font-size="14.00">Draw a fish in their habitat with labels.</text>
</g>
<!-- n2 -->
<g id="node2" class="node">
<title>n2</title>
<polygon fill="#fffdd0" stroke="black" points="198,-280 0,-280 0,-244 198,-244 198,-280"/>
<text text-anchor="middle" x="99" y="-258.3" font-family="Arial" font-size="14.00">Large, realistically&#45;colored fish</text>
</g>
<!-- n1&#45;&gt;n2 -->
<g id="edge1" class="edge">
<title>n1&#45;&gt;n2</title>
<path fill="none" stroke="black" d="M985.19,-370.18C819.08,-351.19 498.95,-314.14 227,-280 220.87,-279.23 214.58,-278.43 208.22,-277.61"/>
<polygon fill="black" stroke="black" points="208.58,-274.13 198.21,-276.32 207.68,-281.07 208.58,-274.13"/>
</g>
<!-- n3 -->
<g id="node3" class="node">
<title>n3</title>
<polygon fill="#fffdd0" stroke="black" points="468,-280 256,-280 256,-244 468,-244 468,-280"/>
<text text-anchor="middle" x="362" y="-258.3" font-family="Arial" font-size="14.00">Labeled fish parts (fins, gills, tail)</text>
</g>
<!-- n1&#45;&gt;n3 -->
<g id="edge2" class="edge">
<title>n1&#45;&gt;n3</title>
<path fill="none" stroke="black" d="M1000.6,-367.13C865.3,-345.06 620.72,-305.18 476.69,-281.7"/>
<polygon fill="black" stroke="black" points="476.93,-278.19 466.5,-280.04 475.81,-285.1 476.93,-278.19"/>
</g>
<!-- n4 -->
<g id="node4" class="node">
<title>n4</title>
<polygon fill="#fffdd0" stroke="black" points="641.5,-280 526.5,-280 526.5,-244 641.5,-244 641.5,-280"/>
<text text-anchor="middle" x="584" y="-258.3" font-family="Arial" font-size="14.00">Clear blue water</text>
</g>
<!-- n1&#45;&gt;n4 -->
<g id="edge3" class="edge">
<title>n1&#45;&gt;n4</title>
<path fill="none" stroke="black" d="M1025.2,-366C925.67,-342.77 748.57,-301.42 651.78,-278.82"/>
<polygon fill="black" stroke="black" points="652.34,-275.36 641.81,-276.5 650.76,-282.18 652.34,-275.36"/>
</g>
<!-- n5 -->
<g id="node5" class="node">
<title>n5</title>
<polygon fill="#fffdd0" stroke="black" points="946.5,-280 699.5,-280 699.5,-244 946.5,-244 946.5,-280"/>
<text text-anchor="middle" x="823" y="-258.3" font-family="Arial" font-size="14.00">Floating air bubbles labeled as oxygen</text>
</g>
<!-- n1&#45;&gt;n5 -->
<g id="edge4" class="edge">
<title>n1&#45;&gt;n5</title>
<path fill="none" stroke="black" d="M1058.9,-365.93C1009.5,-344.39 924.58,-307.32 871.23,-284.04"/>
<polygon fill="black" stroke="black" points="872.54,-280.79 861.97,-280.01 869.74,-287.21 872.54,-280.79"/>
</g>
<!-- n6 -->
<g id="node6" class="node">
<title>n6</title>
<polygon fill="#fffdd0" stroke="black" points="1191.5,-280 1004.5,-280 1004.5,-244 1191.5,-244 1191.5,-280"/>
<text text-anchor="middle" x="1098" y="-258.3" font-family="Arial" font-size="14.00">Green algae labeled as food</text>
</g>
<!-- n1&#45;&gt;n6 -->
<g id="edge5" class="edge">
<title>n1&#45;&gt;n6</title>
<path fill="none" stroke="black" d="M1098,-365.81C1098,-346.11 1098,-313.58 1098,-290.39"/>
<polygon fill="black" stroke="black" points="1101.5,-290.16 1098,-280.16 1094.5,-290.16 1101.5,-290.16"/>
</g>
<!-- n7 -->
<g id="node7" class="node">
<title>n7</title>
<polygon fill="#fffdd0" stroke="black" points="1424,-280 1250,-280 1250,-244 1424,-244 1424,-280"/>
<text text-anchor="middle" x="1337" y="-258.3" font-family="Arial" font-size="14.00">Lily pads labeled as &#39;plant&#39;</text>
</g>
<!-- n1&#45;&gt;n7 -->
<g id="edge6" class="edge">
<title>n1&#45;&gt;n7</title>
<path fill="none" stroke="black" d="M1132,-365.93C1174.5,-344.57 1247.5,-307.94 1293.9,-284.63"/>
<polygon fill="black" stroke="black" points="1295.73,-287.63 1303.1,-280.01 1292.59,-281.37 1295.73,-287.63"/>
</g>
<!-- n8 -->
<g id="node8" class="node">
<title>n8</title>
<polygon fill="#fffdd0" stroke="black" points="1619.5,-280 1482.5,-280 1482.5,-244 1619.5,-244 1619.5,-280"/>
<text text-anchor="middle" x="1551" y="-258.3" font-family="Arial" font-size="14.00">Rocks at the bottom</text>
</g>
<!-- n1&#45;&gt;n8 -->
<g id="edge7" class="edge">
<title>n1&#45;&gt;n8</title>
<path fill="none" stroke="black" d="M1162.4,-365.93C1245.4,-343.94 1389.5,-305.78 1476.9,-282.62"/>
<polygon fill="black" stroke="black" points="1478.02,-285.94 1486.8,-280.01 1476.24,-279.17 1478.02,-285.94"/>
</g>
<!-- n9 -->
<g id="node9" class="node">
<title>n9</title>
<polygon fill="#fffdd0" stroke="black" points="1886.5,-280 1677.5,-280 1677.5,-244 1886.5,-244 1886.5,-280"/>
<text text-anchor="middle" x="1782" y="-258.3" font-family="Arial" font-size="14.00">Arrows indicating flow of oxygen</text>
</g>
<!-- n1&#45;&gt;n9 -->
<g id="edge8" class="edge">
<title>n1&#45;&gt;n9</title>
<path fill="none" stroke="black" d="M1192,-366.5C1318.3,-344.35 1542,-305.1 1674.7,-281.82"/>
<polygon fill="black" stroke="black" points="1675.65,-285.21 1684.9,-280.04 1674.45,-278.31 1675.65,-285.21"/>
</g>
<!-- n10 -->
<g id="node10" class="node">
<title>n10</title>
<polygon fill="#fffdd0" stroke="black" points="2127.5,-280 1944.5,-280 1944.5,-244 2127.5,-244 2127.5,-280"/>
<text text-anchor="middle" x="2036" y="-258.3" font-family="Arial" font-size="14.00">Stream flowing into the lake</text>
</g>
<!-- n1&#45;&gt;n10 -->
<g id="edge9" class="edge">
<title>n1&#45;&gt;n10</title>
<path fill="none" stroke="black" d="M1208.2,-369.67C1365.4,-350.54 1662.9,-313.86 1916,-280 1921.9,-279.21 1927.9,-278.39 1934,-277.56"/>
<polygon fill="black" stroke="black" points="1934.87,-280.97 1944.3,-276.14 1933.92,-274.04 1934.87,-280.97"/>
</g>
<!-- n11 -->
<g id="node11" class="node">
<title>n11</title>
<path fill="palegreen" stroke="black" d="M335,-158C335,-158 159,-158 159,-158 153,-158 147,-152 147,-146 147,-146 147,-134 147,-134 147,-128 153,-122 159,-122 159,-122 335,-122 335,-122 341,-122 347,-128 347,-134 347,-134 347,-146 347,-146 347,-152 341,-158 335,-158"/>
<text text-anchor="middle" x="247" y="-136.3" font-family="Arial" font-size="14.00">Knows fish parts and functions</text>
</g>
<!-- n2&#45;&gt;n11 -->
<g id="edge10" class="edge">
<title>n2&#45;&gt;n11</title>
<path fill="none" stroke="black" d="M120.2,-243.81C145.81,-223.04 189.02,-188.01 217.77,-164.7"/>
<polygon fill="black" stroke="black" points="220.27,-167.18 225.83,-158.16 215.86,-161.74 220.27,-167.18"/>
</g>
<!-- n3&#45;&gt;n11 -->
<g id="edge11" class="edge">
<title>n3&#45;&gt;n11</title>
<path fill="none" stroke="black" d="M345.52,-243.81C325.88,-223.31 292.92,-188.91 270.58,-165.6"/>
<polygon fill="black" stroke="black" points="272.9,-162.96 263.45,-158.16 267.84,-167.8 272.9,-162.96"/>
</g>
<!-- n12 -->
<g id="node12" class="node">
<title>n12</title>
<path fill="palegreen" stroke="black" d="M753,-158C753,-158 515,-158 515,-158 509,-158 503,-152 503,-146 503,-146 503,-134 503,-134 503,-128 509,-122 515,-122 515,-122 753,-122 753,-122 759,-122 765,-128 765,-134 765,-134 765,-146 765,-146 765,-152 759,-158 753,-158"/>
<text text-anchor="middle" x="634" y="-136.3" font-family="Arial" font-size="14.00">Understands fish need water and oxygen</text>
</g>
<!-- n4&#45;&gt;n12 -->
<g id="edge12" class="edge">
<title>n4&#45;&gt;n12</title>
<path fill="none" stroke="black" d="M591.16,-243.81C599.48,-223.85 613.29,-190.7 622.98,-167.45"/>
<polygon fill="black" stroke="black" points="626.24,-168.74 626.85,-158.16 619.77,-166.05 626.24,-168.74"/>
</g>
<!-- n5&#45;&gt;n12 -->
<g id="edge13" class="edge">
<title>n5&#45;&gt;n12</title>
<path fill="none" stroke="black" d="M795.92,-243.81C762.8,-222.78 706.62,-187.11 669.92,-163.8"/>
<polygon fill="black" stroke="black" points="671.35,-160.56 661.03,-158.16 667.6,-166.47 671.35,-160.56"/>
</g>
<!-- n13 -->
<g id="node13" class="node">
<title>n13</title>
<path fill="palegreen" stroke="black" d="M1161,-158C1161,-158 935,-158 935,-158 929,-158 923,-152 923,-146 923,-146 923,-134 923,-134 923,-128 929,-122 935,-122 935,-122 1161,-122 1161,-122 1167,-122 1173,-128 1173,-134 1173,-134 1173,-146 1173,-146 1173,-152 1167,-158 1161,-158"/>
<text text-anchor="middle" x="1048" y="-136.3" font-family="Arial" font-size="14.00">Understands fish and plant relationship</text>
</g>
<!-- n6&#45;&gt;n13 -->
<g id="edge14" class="edge">
<title>n6&#45;&gt;n13</title>
<path fill="none" stroke="black" d="M1090.8,-243.81C1082.5,-223.85 1068.7,-190.7 1059,-167.45"/>
<polygon fill="black" stroke="black" points="1062.23,-166.09 1055.2,-158.16 1055.75,-168.74 1062.23,-166.09"/>
</g>
<!-- n14 -->
<g id="node14" class="node">
<title>n14</title>
<polygon fill="lightcoral" stroke="black" points="1518,-158 1231,-140 1518,-122 1805,-140 1518,-158"/>
<text text-anchor="middle" x="1518" y="-136.3" font-family="Arial" font-size="14.00">Connection between fish and environment shown</text>
</g>
<!-- n7&#45;&gt;n14 -->
<g id="edge15" class="edge">
<title>n7&#45;&gt;n14</title>
<path fill="none" stroke="black" d="M1362.9,-243.81C1395.4,-222.3 1450.9,-185.48 1486,-162.23"/>
<polygon fill="black" stroke="black" points="1488.02,-165.09 1494.4,-156.63 1484.14,-159.26 1488.02,-165.09"/>
</g>
<!-- n15 -->
<g id="node15" class="node">
<title>n15</title>
<polygon fill="#f28e8e" stroke="black" points="1633,-36 1403,-36 1403,0 1633,0 1633,-36"/>
<text text-anchor="middle" x="1518" y="-14.3" font-family="Arial" font-size="14.00">Label different plant types for clarity</text>
</g>
<!-- n14&#45;&gt;n15 -->
<g id="edge16" class="edge">
<title>n14&#45;&gt;n15</title>
<path fill="none" stroke="black" d="M1518,-121.81C1518,-102.11 1518,-69.58 1518,-46.39"/>
<polygon fill="black" stroke="black" points="1521.5,-46.16 1518,-36.16 1514.5,-46.16 1521.5,-46.16"/>
</g>
</g>
</svg>
