<?xml version="1.0" encoding="UTF-8" standalone="no"?>
<!DOCTYPE svg PUBLIC "-//W3C//DTD SVG 1.1//EN"
 "http://www.w3.org/Graphics/SVG/1.1/DTD/svg11.dtd">
<!-- Generated by graphviz version 2.43.0 (0)
 -->
<!-- Pages: 1 -->
<svg width="480pt" height="288pt"
 viewBox="0.00 0.00 480.00 288.00" xmlns="http://www.w3.org/2000/svg" xmlns:xlink="http://www.w3.org/1999/xlink">
<g id="graph0" class="graph" transform="scale(1 1) rotate(0) translate(4 284)">
<polygon fill="white" stroke="transparent" points="-4,4 -4,-284 476,-284 476,4 -4,4"/>
<!-- n1 -->
<g id="node1" class="node">
<title>n1</title>
<polygon fill="lightblue" stroke="black" points="439.5,-262 347.5,-280 163.5,-280 71.5,-262 163.5,-244 347.5,-244 439.5,-262"/>
<text text-anchor="middle" x="255.5" y="-258.3" font-family="Arial" font-size="14.00">Illustrate plants with and without water</text>
</g>
<!-- n2 -->
<g id="node2" class="node">
<title>n2</title>
<polygon fill="#fffdd0" stroke="black" points="242.5,-158 6.5,-158 6.5,-122 242.5,-122 242.5,-158"/>
<text text-anchor="middle" x="124.5" y="-136.3" font-family="Arial" font-size="14.00">Healthy plant with water and sunlight</text>
</g>
<!-- n1&#45;&gt;n2 -->
<g id="edge1" class="edge">
<title>n1&#45;&gt;n2</title>
<path fill="none" stroke="black" d="M236.73,-243.81C214.16,-223.13 176.15,-188.31 150.7,-165"/>
<polygon fill="black" stroke="black" points="152.97,-162.33 143.23,-158.16 148.24,-167.49 152.97,-162.33"/>
</g>
<!-- n3 -->
<g id="node3" class="node">
<title>n3</title>
<polygon fill="#fffdd0" stroke="black" points="472,-158 301,-158 301,-122 472,-122 472,-158"/>
<text text-anchor="middle" x="386.5" y="-136.3" font-family="Arial" font-size="14.00">Wilted plant without water</text>
</g>
<!-- n1&#45;&gt;n3 -->
<g id="edge2" class="edge">
<title>n1&#45;&gt;n3</title>
<path fill="none" stroke="black" d="M274.27,-243.81C296.84,-223.13 334.85,-188.31 360.3,-165"/>
<polygon fill="black" stroke="black" points="362.76,-167.49 367.77,-158.16 358.03,-162.33 362.76,-167.49"/>
</g>
<!-- n4 -->
<g id="node4" class="node">
<title>n4</title>
<path fill="palegreen" stroke="black" d="M237,-36C237,-36 12,-36 12,-36 6,-36 0,-30 0,-24 0,-24 0,-12 0,-12 0,-6 6,0 12,0 12,0 237,0 237,0 243,0 249,-6 249,-12 249,-12 249,-24 249,-24 249,-30 243,-36 237,-36"/>
<text text-anchor="middle" x="124.5" y="-14.3" font-family="Arial" font-size="14.00">Plants need water and sunlight to grow</text>
</g>
<!-- n2&#45;&gt;n4 -->
<g id="edge3" class="edge">
<title>n2&#45;&gt;n4</title>
<path fill="none" stroke="black" d="M124.5,-121.81C124.5,-102.11 124.5,-69.58 124.5,-46.39"/>
<polygon fill="black" stroke="black" points="128,-46.16 124.5,-36.16 121,-46.16 128,-46.16"/>
</g>
<!-- n5 -->
<g id="node5" class="node">
<title>n5</title>
<path fill="palegreen" stroke="black" d="M456,-36C456,-36 319,-36 319,-36 313,-36 307,-30 307,-24 307,-24 307,-12 307,-12 307,-6 313,0 319,0 319,0 456,0 456,0 462,0 468,-6 468,-12 468,-12 468,-24 468,-24 468,-30 462,-36 456,-36"/>
<text text-anchor="middle" x="387.5" y="-14.3" font-family="Arial" font-size="14.00">Plants wilt without water</text>
</g>
<!-- n3&#45;&gt;n5 -->
<g id="edge4" class="edge">
<title>n3&#45;&gt;n5</title>
<path fill="none" stroke="black" d="M386.64,-121.81C386.81,-102.11 387.08,-69.58 387.27,-46.39"/>
<polygon fill="black" stroke="black" points="390.77,-46.19 387.36,-36.16 383.77,-46.13 390.77,-46.19"/>
</g>
</g>
</svg>
