<?xml version="1.0" encoding="UTF-8" standalone="no"?>
<!DOCTYPE svg PUBLIC "-//W3C//DTD SVG 1.1//EN"
 "http://www.w3.org/Graphics/SVG/1.1/DTD/svg11.dtd">
<!-- Generated by graphviz version 2.43.0 (0)
 -->
<!-- Pages: 1 -->
<svg width="1481pt" height="410pt"
 viewBox="0.00 0.00 1481.00 410.00" xmlns="http://www.w3.org/2000/svg" xmlns:xlink="http://www.w3.org/1999/xlink">
<g id="graph0" class="graph" transform="scale(1 1) rotate(0) translate(4 406)">
<polygon fill="white" stroke="transparent" points="-4,4 -4,-406 1477,-406 1477,4 -4,4"/>
<!-- n1 -->
<g id="node1" class="node">
<title>n1</title>
<polygon fill="lightblue" stroke="black" points="900,-384 769.75,-402 509.25,-402 379,-384 509.25,-366 769.75,-366 900,-384"/>
<text text-anchor="middle" x="639.5" y="-380.3" font-family="Arial" font-size="14.00">Draw two habitats and the different living things in each</text>
</g>
<!-- n2 -->
<g id="node2" class="node">
<title>n2</title>
<polygon fill="#fffdd0" stroke="black" points="1277.5,-280 1101.5,-280 1101.5,-244 1277.5,-244 1277.5,-280"/>
<text text-anchor="middle" x="1189.5" y="-258.3" font-family="Arial" font-size="14.00">Forest with tall green trees</text>
</g>
<!-- n1&#45;&gt;n2 -->
<g id="edge1" class="edge">
<title>n1&#45;&gt;n2</title>
<path fill="none" stroke="black" d="M717.43,-366C818.77,-343.89 995.33,-305.37 1101.4,-282.22"/>
<polygon fill="black" stroke="black" points="1102.47,-285.57 1111.5,-280.03 1100.99,-278.73 1102.47,-285.57"/>
</g>
<!-- n3 -->
<g id="node3" class="node">
<title>n3</title>
<polygon fill="#fffdd0" stroke="black" points="1473,-280 1336,-280 1336,-244 1473,-244 1473,-280"/>
<text text-anchor="middle" x="1404.5" y="-258.3" font-family="Arial" font-size="14.00">Bird in the branches</text>
</g>
<!-- n1&#45;&gt;n3 -->
<g id="edge2" class="edge">
<title>n1&#45;&gt;n3</title>
<path fill="none" stroke="black" d="M754.09,-365.97C887.05,-346.05 1112.8,-311.75 1306.5,-280 1312.8,-278.97 1319.2,-277.89 1325.8,-276.79"/>
<polygon fill="black" stroke="black" points="1326.73,-280.18 1336,-275.05 1325.55,-273.28 1326.73,-280.18"/>
</g>
<!-- n4 -->
<g id="node4" class="node">
<title>n4</title>
<polygon fill="#fffdd0" stroke="black" points="1043.5,-280 793.5,-280 793.5,-244 1043.5,-244 1043.5,-280"/>
<text text-anchor="middle" x="918.5" y="-258.3" font-family="Arial" font-size="14.00">Bushes and mushrooms on forest floor</text>
</g>
<!-- n1&#45;&gt;n4 -->
<g id="edge3" class="edge">
<title>n1&#45;&gt;n4</title>
<path fill="none" stroke="black" d="M679.18,-365.93C729.28,-344.39 815.45,-307.32 869.57,-284.04"/>
<polygon fill="black" stroke="black" points="871.15,-287.17 878.96,-280.01 868.39,-280.74 871.15,-287.17"/>
</g>
<!-- n5 -->
<g id="node5" class="node">
<title>n5</title>
<polygon fill="#fffdd0" stroke="black" points="485.5,-280 343.5,-280 343.5,-244 485.5,-244 485.5,-280"/>
<text text-anchor="middle" x="414.5" y="-258.3" font-family="Arial" font-size="14.00">Pond with blue water</text>
</g>
<!-- n1&#45;&gt;n5 -->
<g id="edge4" class="edge">
<title>n1&#45;&gt;n5</title>
<path fill="none" stroke="black" d="M607.26,-365.81C567.33,-344.51 499.25,-308.2 455.6,-284.92"/>
<polygon fill="black" stroke="black" points="457.15,-281.78 446.68,-280.16 453.85,-287.96 457.15,-281.78"/>
</g>
<!-- n6 -->
<g id="node6" class="node">
<title>n6</title>
<polygon fill="#fffdd0" stroke="black" points="107,-280 0,-280 0,-244 107,-244 107,-280"/>
<text text-anchor="middle" x="53.5" y="-258.3" font-family="Arial" font-size="14.00">Fish swimming</text>
</g>
<!-- n1&#45;&gt;n6 -->
<g id="edge5" class="edge">
<title>n1&#45;&gt;n6</title>
<path fill="none" stroke="black" d="M556.47,-366C438.25,-341.79 223.96,-297.91 117.32,-276.07"/>
<polygon fill="black" stroke="black" points="117.85,-272.61 107.35,-274.03 116.45,-279.46 117.85,-272.61"/>
</g>
<!-- n7 -->
<g id="node7" class="node">
<title>n7</title>
<polygon fill="#fffdd0" stroke="black" points="285.5,-280 165.5,-280 165.5,-244 285.5,-244 285.5,-280"/>
<text text-anchor="middle" x="225.5" y="-258.3" font-family="Arial" font-size="14.00">Frog on a lily pad</text>
</g>
<!-- n1&#45;&gt;n7 -->
<g id="edge6" class="edge">
<title>n1&#45;&gt;n7</title>
<path fill="none" stroke="black" d="M580.62,-365.93C505.05,-344.03 374.17,-306.09 294.15,-282.9"/>
<polygon fill="black" stroke="black" points="294.75,-279.43 284.17,-280.01 292.8,-286.15 294.75,-279.43"/>
</g>
<!-- n8 -->
<g id="node8" class="node">
<title>n8</title>
<polygon fill="#fffdd0" stroke="black" points="735,-280 544,-280 544,-244 735,-244 735,-280"/>
<text text-anchor="middle" x="639.5" y="-258.3" font-family="Arial" font-size="14.00">Tall green grass around pond</text>
</g>
<!-- n1&#45;&gt;n8 -->
<g id="edge7" class="edge">
<title>n1&#45;&gt;n8</title>
<path fill="none" stroke="black" d="M639.5,-365.81C639.5,-346.11 639.5,-313.58 639.5,-290.39"/>
<polygon fill="black" stroke="black" points="643,-290.16 639.5,-280.16 636,-290.16 643,-290.16"/>
</g>
<!-- n9 -->
<g id="node9" class="node">
<title>n9</title>
<path fill="palegreen" stroke="black" d="M1316.5,-158C1316.5,-158 1062.5,-158 1062.5,-158 1056.5,-158 1050.5,-152 1050.5,-146 1050.5,-146 1050.5,-134 1050.5,-134 1050.5,-128 1056.5,-122 1062.5,-122 1062.5,-122 1316.5,-122 1316.5,-122 1322.5,-122 1328.5,-128 1328.5,-134 1328.5,-134 1328.5,-146 1328.5,-146 1328.5,-152 1322.5,-158 1316.5,-158"/>
<text text-anchor="middle" x="1189.5" y="-136.3" font-family="Arial" font-size="14.00">Understands diversity of life in forest habitat</text>
</g>
<!-- n2&#45;&gt;n9 -->
<g id="edge8" class="edge">
<title>n2&#45;&gt;n9</title>
<path fill="none" stroke="black" d="M1189.5,-243.81C1189.5,-224.11 1189.5,-191.58 1189.5,-168.39"/>
<polygon fill="black" stroke="black" points="1193,-168.16 1189.5,-158.16 1186,-168.16 1193,-168.16"/>
</g>
<!-- n3&#45;&gt;n9 -->
<g id="edge9" class="edge">
<title>n3&#45;&gt;n9</title>
<path fill="none" stroke="black" d="M1373.7,-243.81C1335.6,-222.55 1270.8,-186.35 1229,-163.07"/>
<polygon fill="black" stroke="black" points="1230.64,-159.98 1220.2,-158.16 1227.23,-166.09 1230.64,-159.98"/>
</g>
<!-- n4&#45;&gt;n9 -->
<g id="edge10" class="edge">
<title>n4&#45;&gt;n9</title>
<path fill="none" stroke="black" d="M957.04,-243.93C1005.6,-222.43 1089.1,-185.48 1141.6,-162.19"/>
<polygon fill="black" stroke="black" points="1143.36,-165.24 1151.1,-158.01 1140.54,-158.83 1143.36,-165.24"/>
</g>
<!-- n12 -->
<g id="node10" class="node">
<title>n12</title>
<polygon fill="lightcoral" stroke="black" points="745.5,-158 498,-140 745.5,-122 993,-140 745.5,-158"/>
<text text-anchor="middle" x="745.5" y="-136.3" font-family="Arial" font-size="14.00">Incomplete labeling may lead to confusion</text>
</g>
<!-- n4&#45;&gt;n12 -->
<g id="edge11" class="edge">
<title>n4&#45;&gt;n12</title>
<path fill="none" stroke="black" d="M893.71,-243.81C862.75,-222.33 809.78,-185.59 776.26,-162.34"/>
<polygon fill="black" stroke="black" points="777.98,-159.27 767.77,-156.45 773.99,-165.03 777.98,-159.27"/>
</g>
<!-- n10 -->
<g id="node11" class="node">
<title>n10</title>
<path fill="palegreen" stroke="black" d="M428,-158C428,-158 177,-158 177,-158 171,-158 165,-152 165,-146 165,-146 165,-134 165,-134 165,-128 171,-122 177,-122 177,-122 428,-122 428,-122 434,-122 440,-128 440,-134 440,-134 440,-146 440,-146 440,-152 434,-158 428,-158"/>
<text text-anchor="middle" x="302.5" y="-136.3" font-family="Arial" font-size="14.00">Understands diversity of life in pond habitat</text>
</g>
<!-- n5&#45;&gt;n10 -->
<g id="edge12" class="edge">
<title>n5&#45;&gt;n10</title>
<path fill="none" stroke="black" d="M398.45,-243.81C379.32,-223.31 347.22,-188.91 325.46,-165.6"/>
<polygon fill="black" stroke="black" points="327.9,-163.09 318.52,-158.16 322.78,-167.86 327.9,-163.09"/>
</g>
<!-- n6&#45;&gt;n10 -->
<g id="edge13" class="edge">
<title>n6&#45;&gt;n10</title>
<path fill="none" stroke="black" d="M88.91,-243.93C133.35,-222.52 209.57,-185.78 257.93,-162.48"/>
<polygon fill="black" stroke="black" points="259.72,-165.5 267.21,-158.01 256.68,-159.2 259.72,-165.5"/>
</g>
<!-- n7&#45;&gt;n10 -->
<g id="edge14" class="edge">
<title>n7&#45;&gt;n10</title>
<path fill="none" stroke="black" d="M236.53,-243.81C249.45,-223.67 270.99,-190.1 285.93,-166.83"/>
<polygon fill="black" stroke="black" points="289.04,-168.47 291.49,-158.16 283.15,-164.69 289.04,-168.47"/>
</g>
<!-- n8&#45;&gt;n12 -->
<g id="edge15" class="edge">
<title>n8&#45;&gt;n12</title>
<path fill="none" stroke="black" d="M654.69,-243.81C673.02,-223.05 703.95,-188.04 724.54,-164.73"/>
<polygon fill="black" stroke="black" points="727.36,-166.82 731.36,-157.01 722.12,-162.19 727.36,-166.82"/>
</g>
<!-- n8&#45;&gt;n10 -->
<g id="edge16" class="edge">
<title>n8&#45;&gt;n10</title>
<path fill="none" stroke="black" d="M591.57,-243.93C530.56,-222.21 425.25,-184.71 359.98,-161.47"/>
<polygon fill="black" stroke="black" points="360.85,-158.07 350.26,-158.01 358.51,-164.66 360.85,-158.07"/>
</g>
<!-- n11 -->
<g id="node12" class="node">
<title>n11</title>
<path fill="palegreen" stroke="black" d="M1261.5,-36C1261.5,-36 1005.5,-36 1005.5,-36 999.5,-36 993.5,-30 993.5,-24 993.5,-24 993.5,-12 993.5,-12 993.5,-6 999.5,0 1005.5,0 1005.5,0 1261.5,0 1261.5,0 1267.5,0 1273.5,-6 1273.5,-12 1273.5,-12 1273.5,-24 1273.5,-24 1273.5,-30 1267.5,-36 1261.5,-36"/>
<text text-anchor="middle" x="1133.5" y="-14.3" font-family="Arial" font-size="14.00">Understands comparison of habitat diversity</text>
</g>
<!-- n9&#45;&gt;n11 -->
<g id="edge17" class="edge">
<title>n9&#45;&gt;n11</title>
<path fill="none" stroke="black" d="M1181.5,-121.81C1172.2,-101.85 1156.7,-68.7 1145.8,-45.45"/>
<polygon fill="black" stroke="black" points="1148.88,-43.77 1141.5,-36.16 1142.52,-46.71 1148.88,-43.77"/>
</g>
<!-- n13 -->
<g id="node13" class="node">
<title>n13</title>
<polygon fill="#f28e8e" stroke="black" points="880.5,-36 610.5,-36 610.5,0 880.5,0 880.5,-36"/>
<text text-anchor="middle" x="745.5" y="-14.3" font-family="Arial" font-size="14.00">Add labels to plants and animals for clarity</text>
</g>
<!-- n12&#45;&gt;n13 -->
<g id="edge18" class="edge">
<title>n12&#45;&gt;n13</title>
<path fill="none" stroke="black" d="M745.5,-121.81C745.5,-102.11 745.5,-69.58 745.5,-46.39"/>
<polygon fill="black" stroke="black" points="749,-46.16 745.5,-36.16 742,-46.16 749,-46.16"/>
</g>
<!-- n10&#45;&gt;n11 -->
<g id="edge19" class="edge">
<title>n10&#45;&gt;n11</title>
<path fill="none" stroke="black" d="M420.24,-122C574.9,-99.67 845.51,-60.59 1005.2,-37.52"/>
<polygon fill="black" stroke="black" points="1006.2,-40.91 1015.6,-36.03 1005.2,-33.99 1006.2,-40.91"/>
</g>
</g>
</svg>
