<?xml version="1.0" encoding="UTF-8" standalone="no"?>
<!DOCTYPE svg PUBLIC "-//W3C//DTD SVG 1.1//EN"
 "http://www.w3.org/Graphics/SVG/1.1/DTD/svg11.dtd">
<!-- Generated by graphviz version 2.43.0 (0)
 -->
<!-- Pages: 1 -->
<svg width="2030pt" height="410pt"
 viewBox="0.00 0.00 2030.00 410.00" xmlns="http://www.w3.org/2000/svg" xmlns:xlink="http://www.w3.org/1999/xlink">
<g id="graph0" class="graph" transform="scale(1 1) rotate(0) translate(4 406)">
<polygon fill="white" stroke="transparent" points="-4,4 -4,-406 2026,-406 2026,4 -4,4"/>
<!-- n1 -->
<g id="node1" class="node">
<title>n1</title>
<polygon fill="lightblue" stroke="black" points="1457.5,-384 1347.5,-402 1127.5,-402 1017.5,-384 1127.5,-366 1347.5,-366 1457.5,-384"/>
<text text-anchor="middle" x="1237.5" y="-380.3" font-family="Arial" font-size="14.00">Draw a string telephone between two students</text>
</g>
<!-- n2 -->
<g id="node2" class="node">
<title>n2</title>
<polygon fill="#fffdd0" stroke="black" points="578,-280 187,-280 187,-244 578,-244 578,-280"/>
<text text-anchor="middle" x="382.5" y="-258.3" font-family="Arial" font-size="14.00">Two cartoon&#45;style students with different clothes and hairstyles</text>
</g>
<!-- n1&#45;&gt;n2 -->
<g id="edge1" class="edge">
<title>n1&#45;&gt;n2</title>
<path fill="none" stroke="black" d="M1122.2,-366.82C964.03,-344.62 680.51,-304.83 514.19,-281.48"/>
<polygon fill="black" stroke="black" points="514.29,-277.96 503.9,-280.04 513.32,-284.89 514.29,-277.96"/>
</g>
<!-- n3 -->
<g id="node3" class="node">
<title>n3</title>
<polygon fill="#fffdd0" stroke="black" points="1222.5,-280 872.5,-280 872.5,-244 1222.5,-244 1222.5,-280"/>
<text text-anchor="middle" x="1047.5" y="-258.3" font-family="Arial" font-size="14.00">String telephone made of paper cups and straight string</text>
</g>
<!-- n1&#45;&gt;n3 -->
<g id="edge2" class="edge">
<title>n1&#45;&gt;n3</title>
<path fill="none" stroke="black" d="M1210.3,-365.81C1176.8,-344.69 1120,-308.81 1083.1,-285.51"/>
<polygon fill="black" stroke="black" points="1085.01,-282.58 1074.7,-280.16 1081.25,-288.48 1085.01,-282.58"/>
</g>
<!-- n4 -->
<g id="node4" class="node">
<title>n4</title>
<polygon fill="#fffdd0" stroke="black" points="1622,-280 1329,-280 1329,-244 1622,-244 1622,-280"/>
<text text-anchor="middle" x="1475.5" y="-258.3" font-family="Arial" font-size="14.00">Arrows along the string indicating sound travel</text>
</g>
<!-- n1&#45;&gt;n4 -->
<g id="edge3" class="edge">
<title>n1&#45;&gt;n4</title>
<path fill="none" stroke="black" d="M1271.3,-365.93C1313.7,-344.57 1386.4,-307.94 1432.6,-284.63"/>
<polygon fill="black" stroke="black" points="1434.43,-287.63 1441.8,-280.01 1431.29,-281.37 1434.43,-287.63"/>
</g>
<!-- n5 -->
<g id="node5" class="node">
<title>n5</title>
<polygon fill="#fffdd0" stroke="black" points="2003,-280 1704,-280 1704,-244 2003,-244 2003,-280"/>
<text text-anchor="middle" x="1853.5" y="-258.3" font-family="Arial" font-size="14.00">Labels: &#39;sound travels here&#39; and &#39;speaking side&#39;</text>
</g>
<!-- n1&#45;&gt;n5 -->
<g id="edge4" class="edge">
<title>n1&#45;&gt;n5</title>
<path fill="none" stroke="black" d="M1324.8,-366C1438.6,-343.82 1637.2,-305.13 1755.9,-282.01"/>
<polygon fill="black" stroke="black" points="1756.95,-285.37 1766.1,-280.03 1755.62,-278.5 1756.95,-285.37"/>
</g>
<!-- n6 -->
<g id="node6" class="node">
<title>n6</title>
<path fill="palegreen" stroke="black" d="M281,-158C281,-158 12,-158 12,-158 6,-158 0,-152 0,-146 0,-146 0,-134 0,-134 0,-128 6,-122 12,-122 12,-122 281,-122 281,-122 287,-122 293,-128 293,-134 293,-134 293,-146 293,-146 293,-152 287,-158 281,-158"/>
<text text-anchor="middle" x="146.5" y="-136.3" font-family="Arial" font-size="14.00">Illustrates problem of distance communication</text>
</g>
<!-- n2&#45;&gt;n6 -->
<g id="edge5" class="edge">
<title>n2&#45;&gt;n6</title>
<path fill="none" stroke="black" d="M348.94,-243.93C306.91,-222.57 234.88,-185.94 189.03,-162.63"/>
<polygon fill="black" stroke="black" points="190.45,-159.43 179.95,-158.01 187.28,-165.66 190.45,-159.43"/>
</g>
<!-- n7 -->
<g id="node7" class="node">
<title>n7</title>
<path fill="palegreen" stroke="black" d="M672,-158C672,-158 363,-158 363,-158 357,-158 351,-152 351,-146 351,-146 351,-134 351,-134 351,-128 357,-122 363,-122 363,-122 672,-122 672,-122 678,-122 684,-128 684,-134 684,-134 684,-146 684,-146 684,-152 678,-158 672,-158"/>
<text text-anchor="middle" x="517.5" y="-136.3" font-family="Arial" font-size="14.00">Shows communication using sound through a device</text>
</g>
<!-- n3&#45;&gt;n7 -->
<g id="edge6" class="edge">
<title>n3&#45;&gt;n7</title>
<path fill="none" stroke="black" d="M972.41,-244C874.85,-221.91 704.96,-183.44 602.69,-160.29"/>
<polygon fill="black" stroke="black" points="603.23,-156.82 592.7,-158.03 601.68,-163.65 603.23,-156.82"/>
</g>
<!-- n10 -->
<g id="node8" class="node">
<title>n10</title>
<polygon fill="lightcoral" stroke="black" points="1047.5,-158 742.18,-140 1047.5,-122 1352.82,-140 1047.5,-158"/>
<text text-anchor="middle" x="1047.5" y="-136.3" font-family="Arial" font-size="14.00">Incomplete understanding of sound wave mechanics</text>
</g>
<!-- n3&#45;&gt;n10 -->
<g id="edge7" class="edge">
<title>n3&#45;&gt;n10</title>
<path fill="none" stroke="black" d="M1047.5,-243.81C1047.5,-224.11 1047.5,-191.58 1047.5,-168.39"/>
<polygon fill="black" stroke="black" points="1051,-168.16 1047.5,-158.16 1044,-168.16 1051,-168.16"/>
</g>
<!-- n8 -->
<g id="node9" class="node">
<title>n8</title>
<path fill="palegreen" stroke="black" d="M1664.5,-158C1664.5,-158 1422.5,-158 1422.5,-158 1416.5,-158 1410.5,-152 1410.5,-146 1410.5,-146 1410.5,-134 1410.5,-134 1410.5,-128 1416.5,-122 1422.5,-122 1422.5,-122 1664.5,-122 1664.5,-122 1670.5,-122 1676.5,-128 1676.5,-134 1676.5,-134 1676.5,-146 1676.5,-146 1676.5,-152 1670.5,-158 1664.5,-158"/>
<text text-anchor="middle" x="1543.5" y="-136.3" font-family="Arial" font-size="14.00">Depicts sound travel direction with arrows</text>
</g>
<!-- n4&#45;&gt;n8 -->
<g id="edge8" class="edge">
<title>n4&#45;&gt;n8</title>
<path fill="none" stroke="black" d="M1485.2,-243.81C1496.6,-223.76 1515.5,-190.4 1528.7,-167.14"/>
<polygon fill="black" stroke="black" points="1531.9,-168.58 1533.8,-158.16 1525.82,-165.13 1531.9,-168.58"/>
</g>
<!-- n9 -->
<g id="node10" class="node">
<title>n9</title>
<path fill="palegreen" stroke="black" d="M2010,-158C2010,-158 1747,-158 1747,-158 1741,-158 1735,-152 1735,-146 1735,-146 1735,-134 1735,-134 1735,-128 1741,-122 1747,-122 1747,-122 2010,-122 2010,-122 2016,-122 2022,-128 2022,-134 2022,-134 2022,-146 2022,-146 2022,-152 2016,-158 2010,-158"/>
<text text-anchor="middle" x="1878.5" y="-136.3" font-family="Arial" font-size="14.00">Labels describe sound use in communication</text>
</g>
<!-- n5&#45;&gt;n9 -->
<g id="edge9" class="edge">
<title>n5&#45;&gt;n9</title>
<path fill="none" stroke="black" d="M1857.1,-243.81C1861.2,-224.02 1868,-191.29 1872.9,-168.08"/>
<polygon fill="black" stroke="black" points="1876.35,-168.65 1874.9,-158.16 1869.49,-167.27 1876.35,-168.65"/>
</g>
<!-- n11 -->
<g id="node11" class="node">
<title>n11</title>
<polygon fill="#f28e8e" stroke="black" points="1201,-36 894,-36 894,0 1201,0 1201,-36"/>
<text text-anchor="middle" x="1047.5" y="-14.3" font-family="Arial" font-size="14.00">Ensure string is taut to represent sound traveling</text>
</g>
<!-- n10&#45;&gt;n11 -->
<g id="edge10" class="edge">
<title>n10&#45;&gt;n11</title>
<path fill="none" stroke="black" d="M1047.5,-121.81C1047.5,-102.11 1047.5,-69.58 1047.5,-46.39"/>
<polygon fill="black" stroke="black" points="1051,-46.16 1047.5,-36.16 1044,-46.16 1051,-46.16"/>
</g>
</g>
</svg>
