<?xml version="1.0" encoding="UTF-8" standalone="no"?>
<!DOCTYPE svg PUBLIC "-//W3C//DTD SVG 1.1//EN"
 "http://www.w3.org/Graphics/SVG/1.1/DTD/svg11.dtd">
<!-- Generated by graphviz version 2.43.0 (0)
 -->
<!-- Pages: 1 -->
<svg width="1623pt" height="288pt"
 viewBox="0.00 0.00 1622.50 288.00" xmlns="http://www.w3.org/2000/svg" xmlns:xlink="http://www.w3.org/1999/xlink">
<g id="graph0" class="graph" transform="scale(1 1) rotate(0) translate(4 284)">
<polygon fill="white" stroke="transparent" points="-4,4 -4,-284 1618.5,-284 1618.5,4 -4,4"/>
<!-- n1 -->
<g id="node1" class="node">
<title>n1</title>
<polygon fill="lightblue" stroke="black" points="906,-262 794.5,-280 571.5,-280 460,-262 571.5,-244 794.5,-244 906,-262"/>
<text text-anchor="middle" x="683" y="-258.3" font-family="Arial" font-size="14.00">Draw a string telephone between two students.</text>
</g>
<!-- n2 -->
<g id="node2" class="node">
<title>n2</title>
<polygon fill="#fffdd0" stroke="black" points="298,-158 134,-158 134,-122 298,-122 298,-158"/>
<text text-anchor="middle" x="216" y="-136.3" font-family="Arial" font-size="14.00">Two stick figure students</text>
</g>
<!-- n1&#45;&gt;n2 -->
<g id="edge1" class="edge">
<title>n1&#45;&gt;n2</title>
<path fill="none" stroke="black" d="M616.59,-243.93C530.91,-221.92 382.2,-183.71 292.07,-160.55"/>
<polygon fill="black" stroke="black" points="292.74,-157.11 282.18,-158.01 291,-163.89 292.74,-157.11"/>
</g>
<!-- n3 -->
<g id="node3" class="node">
<title>n3</title>
<polygon fill="#fffdd0" stroke="black" points="541,-158 383,-158 383,-122 541,-122 541,-158"/>
<text text-anchor="middle" x="462" y="-136.3" font-family="Arial" font-size="14.00">Cups held to ear/mouth</text>
</g>
<!-- n1&#45;&gt;n3 -->
<g id="edge2" class="edge">
<title>n1&#45;&gt;n3</title>
<path fill="none" stroke="black" d="M651.34,-243.81C612.2,-222.55 545.52,-186.35 502.64,-163.07"/>
<polygon fill="black" stroke="black" points="504.07,-159.86 493.61,-158.16 500.72,-166.01 504.07,-159.86"/>
</g>
<!-- n4 -->
<g id="node4" class="node">
<title>n4</title>
<polygon fill="#fffdd0" stroke="black" points="766.5,-158 599.5,-158 599.5,-122 766.5,-122 766.5,-158"/>
<text text-anchor="middle" x="683" y="-136.3" font-family="Arial" font-size="14.00">Red line connecting cups</text>
</g>
<!-- n1&#45;&gt;n4 -->
<g id="edge3" class="edge">
<title>n1&#45;&gt;n4</title>
<path fill="none" stroke="black" d="M683,-243.81C683,-224.11 683,-191.58 683,-168.39"/>
<polygon fill="black" stroke="black" points="686.5,-168.16 683,-158.16 679.5,-168.16 686.5,-168.16"/>
</g>
<!-- n5 -->
<g id="node5" class="node">
<title>n5</title>
<polygon fill="#fffdd0" stroke="black" points="997.5,-158 824.5,-158 824.5,-122 997.5,-122 997.5,-158"/>
<text text-anchor="middle" x="911" y="-136.3" font-family="Arial" font-size="14.00">Wavy arrows on the string</text>
</g>
<!-- n1&#45;&gt;n5 -->
<g id="edge4" class="edge">
<title>n1&#45;&gt;n5</title>
<path fill="none" stroke="black" d="M715.67,-243.81C756.13,-222.51 825.12,-186.2 869.35,-162.92"/>
<polygon fill="black" stroke="black" points="871.17,-165.92 878.39,-158.16 867.91,-159.72 871.17,-165.92"/>
</g>
<!-- n6 -->
<g id="node6" class="node">
<title>n6</title>
<polygon fill="#fffdd0" stroke="black" points="1296,-158 1056,-158 1056,-122 1296,-122 1296,-158"/>
<text text-anchor="middle" x="1176" y="-136.3" font-family="Arial" font-size="14.00">Sound travels through vibrating string</text>
</g>
<!-- n1&#45;&gt;n6 -->
<g id="edge5" class="edge">
<title>n1&#45;&gt;n6</title>
<path fill="none" stroke="black" d="M752.85,-244C843.41,-221.95 1001,-183.6 1096.2,-160.43"/>
<polygon fill="black" stroke="black" points="1097.12,-163.81 1106,-158.03 1095.45,-157.01 1097.12,-163.81"/>
</g>
<!-- n7 -->
<g id="node7" class="node">
<title>n7</title>
<path fill="palegreen" stroke="black" d="M312,-36C312,-36 12,-36 12,-36 6,-36 0,-30 0,-24 0,-24 0,-12 0,-12 0,-6 6,0 12,0 12,0 312,0 312,0 318,0 324,-6 324,-12 324,-12 324,-24 324,-24 324,-30 318,-36 312,-36"/>
<text text-anchor="middle" x="162" y="-14.3" font-family="Arial" font-size="14.00">Represents communication between distant people</text>
</g>
<!-- n2&#45;&gt;n7 -->
<g id="edge6" class="edge">
<title>n2&#45;&gt;n7</title>
<path fill="none" stroke="black" d="M208.26,-121.81C199.28,-101.85 184.36,-68.7 173.9,-45.45"/>
<polygon fill="black" stroke="black" points="177.02,-43.84 169.72,-36.16 170.63,-46.72 177.02,-43.84"/>
</g>
<!-- n8 -->
<g id="node8" class="node">
<title>n8</title>
<path fill="palegreen" stroke="black" d="M585.5,-36C585.5,-36 394.5,-36 394.5,-36 388.5,-36 382.5,-30 382.5,-24 382.5,-24 382.5,-12 382.5,-12 382.5,-6 388.5,0 394.5,0 394.5,0 585.5,0 585.5,0 591.5,0 597.5,-6 597.5,-12 597.5,-12 597.5,-24 597.5,-24 597.5,-30 591.5,-36 585.5,-36"/>
<text text-anchor="middle" x="490" y="-14.3" font-family="Arial" font-size="14.00">Illustrates use of string telephone</text>
</g>
<!-- n3&#45;&gt;n8 -->
<g id="edge7" class="edge">
<title>n3&#45;&gt;n8</title>
<path fill="none" stroke="black" d="M466.01,-121.81C470.63,-102.02 478.27,-69.29 483.68,-46.08"/>
<polygon fill="black" stroke="black" points="487.13,-46.7 486,-36.16 480.31,-45.1 487.13,-46.7"/>
</g>
<!-- n9 -->
<g id="node9" class="node">
<title>n9</title>
<path fill="palegreen" stroke="black" d="M924,-36C924,-36 722,-36 722,-36 716,-36 710,-30 710,-24 710,-24 710,-12 710,-12 710,-6 716,0 722,0 722,0 924,0 924,0 930,0 936,-6 936,-12 936,-12 936,-24 936,-24 936,-30 930,-36 924,-36"/>
<text text-anchor="middle" x="823" y="-14.3" font-family="Arial" font-size="14.00">Depicts sound travel between cups</text>
</g>
<!-- n4&#45;&gt;n9 -->
<g id="edge8" class="edge">
<title>n4&#45;&gt;n9</title>
<path fill="none" stroke="black" d="M703.06,-121.81C727.28,-101.04 768.15,-66.01 795.35,-42.7"/>
<polygon fill="black" stroke="black" points="797.66,-45.33 802.98,-36.16 793.11,-40.01 797.66,-45.33"/>
</g>
<!-- n5&#45;&gt;n9 -->
<g id="edge9" class="edge">
<title>n5&#45;&gt;n9</title>
<path fill="none" stroke="black" d="M898.39,-121.81C883.56,-101.58 858.79,-67.81 841.72,-44.52"/>
<polygon fill="black" stroke="black" points="844.32,-42.15 835.58,-36.16 838.68,-46.29 844.32,-42.15"/>
</g>
<!-- n10 -->
<g id="node10" class="node">
<title>n10</title>
<path fill="palegreen" stroke="black" d="M1265,-36C1265,-36 1033,-36 1033,-36 1027,-36 1021,-30 1021,-24 1021,-24 1021,-12 1021,-12 1021,-6 1027,0 1033,0 1033,0 1265,0 1265,0 1271,0 1277,-6 1277,-12 1277,-12 1277,-24 1277,-24 1277,-30 1271,-36 1265,-36"/>
<text text-anchor="middle" x="1149" y="-14.3" font-family="Arial" font-size="14.00">Shows how sound can send information</text>
</g>
<!-- n6&#45;&gt;n10 -->
<g id="edge10" class="edge">
<title>n6&#45;&gt;n10</title>
<path fill="none" stroke="black" d="M1172.1,-121.81C1167.7,-102.02 1160.3,-69.29 1155.1,-46.08"/>
<polygon fill="black" stroke="black" points="1158.48,-45.17 1152.9,-36.16 1151.65,-46.68 1158.48,-45.17"/>
</g>
<!-- n11 -->
<g id="node11" class="node">
<title>n11</title>
<path fill="palegreen" stroke="black" d="M1602.5,-36C1602.5,-36 1347.5,-36 1347.5,-36 1341.5,-36 1335.5,-30 1335.5,-24 1335.5,-24 1335.5,-12 1335.5,-12 1335.5,-6 1341.5,0 1347.5,0 1347.5,0 1602.5,0 1602.5,0 1608.5,0 1614.5,-6 1614.5,-12 1614.5,-12 1614.5,-24 1614.5,-24 1614.5,-30 1608.5,-36 1602.5,-36"/>
<text text-anchor="middle" x="1475" y="-14.3" font-family="Arial" font-size="14.00">Explains communication problem resolution</text>
</g>
<!-- n6&#45;&gt;n11 -->
<g id="edge11" class="edge">
<title>n6&#45;&gt;n11</title>
<path fill="none" stroke="black" d="M1218.5,-121.93C1272.4,-100.3 1365.3,-63.02 1423.3,-39.76"/>
<polygon fill="black" stroke="black" points="1424.63,-42.99 1432.6,-36.01 1422.02,-36.5 1424.63,-42.99"/>
</g>
</g>
</svg>
