<?xml version="1.0" encoding="UTF-8" standalone="no"?>
<!DOCTYPE svg PUBLIC "-//W3C//DTD SVG 1.1//EN"
 "http://www.w3.org/Graphics/SVG/1.1/DTD/svg11.dtd">
<!-- Generated by graphviz version 2.43.0 (0)
 -->
<!-- Pages: 1 -->
<svg width="2001pt" height="288pt"
 viewBox="0.00 0.00 2001.00 288.00" xmlns="http://www.w3.org/2000/svg" xmlns:xlink="http://www.w3.org/1999/xlink">
<g id="graph0" class="graph" transform="scale(1 1) rotate(0) translate(4 284)">
<polygon fill="white" stroke="transparent" points="-4,4 -4,-284 1997,-284 1997,4 -4,4"/>
<!-- n1 -->
<g id="node1" class="node">
<title>n1</title>
<polygon fill="lightblue" stroke="black" points="1100,-262 1010.25,-280 830.75,-280 741,-262 830.75,-244 1010.25,-244 1100,-262"/>
<text text-anchor="middle" x="920.5" y="-258.3" font-family="Arial" font-size="14.00">Draw a fish in their habitat with labels</text>
</g>
<!-- n2 -->
<g id="node2" class="node">
<title>n2</title>
<polygon fill="#fffdd0" stroke="black" points="312,-158 141,-158 141,-122 312,-122 312,-158"/>
<text text-anchor="middle" x="226.5" y="-136.3" font-family="Arial" font-size="14.00">Fish with scales, fins, gills</text>
</g>
<!-- n1&#45;&gt;n2 -->
<g id="edge1" class="edge">
<title>n1&#45;&gt;n2</title>
<path fill="none" stroke="black" d="M826.54,-244.75C694.55,-221.93 455.49,-180.6 322.44,-157.59"/>
<polygon fill="black" stroke="black" points="322.71,-154.08 312.26,-155.83 321.52,-160.98 322.71,-154.08"/>
</g>
<!-- n3 -->
<g id="node3" class="node">
<title>n3</title>
<polygon fill="#fffdd0" stroke="black" points="584.5,-158 414.5,-158 414.5,-122 584.5,-122 584.5,-158"/>
<text text-anchor="middle" x="499.5" y="-136.3" font-family="Arial" font-size="14.00">Blue water labeled &#39;water&#39;</text>
</g>
<!-- n1&#45;&gt;n3 -->
<g id="edge2" class="edge">
<title>n1&#45;&gt;n3</title>
<path fill="none" stroke="black" d="M860.63,-243.93C783.62,-221.99 650.14,-183.94 568.82,-160.76"/>
<polygon fill="black" stroke="black" points="569.75,-157.38 559.17,-158.01 567.83,-164.12 569.75,-157.38"/>
</g>
<!-- n4 -->
<g id="node4" class="node">
<title>n4</title>
<polygon fill="#fffdd0" stroke="black" points="857.5,-158 663.5,-158 663.5,-122 857.5,-122 857.5,-158"/>
<text text-anchor="middle" x="760.5" y="-136.3" font-family="Arial" font-size="14.00">Sunlight depicted and labeled</text>
</g>
<!-- n1&#45;&gt;n4 -->
<g id="edge3" class="edge">
<title>n1&#45;&gt;n4</title>
<path fill="none" stroke="black" d="M897.58,-243.81C869.77,-222.96 822.78,-187.71 791.7,-164.4"/>
<polygon fill="black" stroke="black" points="793.48,-161.36 783.38,-158.16 789.28,-166.96 793.48,-161.36"/>
</g>
<!-- n5 -->
<g id="node5" class="node">
<title>n5</title>
<polygon fill="#fffdd0" stroke="black" points="1245.5,-158 915.5,-158 915.5,-122 1245.5,-122 1245.5,-158"/>
<text text-anchor="middle" x="1080.5" y="-136.3" font-family="Arial" font-size="14.00">Underwater plants like &#39;algae&#39; and &#39;seaweed&#39; labeled</text>
</g>
<!-- n1&#45;&gt;n5 -->
<g id="edge4" class="edge">
<title>n1&#45;&gt;n5</title>
<path fill="none" stroke="black" d="M943.42,-243.81C971.23,-222.96 1018.2,-187.71 1049.3,-164.4"/>
<polygon fill="black" stroke="black" points="1051.71,-166.97 1057.6,-158.16 1047.5,-161.37 1051.71,-166.97"/>
</g>
<!-- n6 -->
<g id="node6" class="node">
<title>n6</title>
<polygon fill="#fffdd0" stroke="black" points="1591,-158 1392,-158 1392,-122 1591,-122 1591,-158"/>
<text text-anchor="middle" x="1491.5" y="-136.3" font-family="Arial" font-size="14.00">Starfish on ocean floor labeled</text>
</g>
<!-- n1&#45;&gt;n6 -->
<g id="edge5" class="edge">
<title>n1&#45;&gt;n6</title>
<path fill="none" stroke="black" d="M1001.4,-244C1106.7,-221.87 1290.3,-183.29 1400.4,-160.15"/>
<polygon fill="black" stroke="black" points="1401.43,-163.51 1410.5,-158.03 1399.99,-156.66 1401.43,-163.51"/>
</g>
<!-- n7 -->
<g id="node7" class="node">
<title>n7</title>
<polygon fill="#fffdd0" stroke="black" points="1944,-158 1693,-158 1693,-122 1944,-122 1944,-158"/>
<text text-anchor="middle" x="1818.5" y="-136.3" font-family="Arial" font-size="14.00">Label &#39;ecosystem&#39; indicating interaction</text>
</g>
<!-- n1&#45;&gt;n7 -->
<g id="edge6" class="edge">
<title>n1&#45;&gt;n7</title>
<path fill="none" stroke="black" d="M1025.3,-247C1188.3,-225.22 1502.6,-183.22 1682.8,-159.14"/>
<polygon fill="black" stroke="black" points="1683.36,-162.6 1692.8,-157.79 1682.42,-155.66 1683.36,-162.6"/>
</g>
<!-- n8 -->
<g id="node8" class="node">
<title>n8</title>
<path fill="palegreen" stroke="black" d="M311,-36C311,-36 12,-36 12,-36 6,-36 0,-30 0,-24 0,-24 0,-12 0,-12 0,-6 6,0 12,0 12,0 311,0 311,0 317,0 323,-6 323,-12 323,-12 323,-24 323,-24 323,-30 317,-36 311,-36"/>
<text text-anchor="middle" x="161.5" y="-14.3" font-family="Arial" font-size="14.00">Correct identification of fish parts (scales, fins, gills)</text>
</g>
<!-- n2&#45;&gt;n8 -->
<g id="edge7" class="edge">
<title>n2&#45;&gt;n8</title>
<path fill="none" stroke="black" d="M217.19,-121.81C206.33,-101.76 188.26,-68.4 175.66,-45.14"/>
<polygon fill="black" stroke="black" points="178.64,-43.29 170.8,-36.16 172.48,-46.62 178.64,-43.29"/>
</g>
<!-- n9 -->
<g id="node9" class="node">
<title>n9</title>
<path fill="palegreen" stroke="black" d="M566,-36C566,-36 393,-36 393,-36 387,-36 381,-30 381,-24 381,-24 381,-12 381,-12 381,-6 387,0 393,0 393,0 566,0 566,0 572,0 578,-6 578,-12 578,-12 578,-24 578,-24 578,-30 572,-36 566,-36"/>
<text text-anchor="middle" x="479.5" y="-14.3" font-family="Arial" font-size="14.00">Water is crucial for fish habitat</text>
</g>
<!-- n3&#45;&gt;n9 -->
<g id="edge8" class="edge">
<title>n3&#45;&gt;n9</title>
<path fill="none" stroke="black" d="M496.63,-121.81C493.34,-102.02 487.88,-69.29 484.01,-46.08"/>
<polygon fill="black" stroke="black" points="487.45,-45.45 482.36,-36.16 480.55,-46.6 487.45,-45.45"/>
</g>
<!-- n10 -->
<g id="node10" class="node">
<title>n10</title>
<path fill="palegreen" stroke="black" d="M872.5,-36C872.5,-36 648.5,-36 648.5,-36 642.5,-36 636.5,-30 636.5,-24 636.5,-24 636.5,-12 636.5,-12 636.5,-6 642.5,0 648.5,0 648.5,0 872.5,0 872.5,0 878.5,0 884.5,-6 884.5,-12 884.5,-12 884.5,-24 884.5,-24 884.5,-30 878.5,-36 872.5,-36"/>
<text text-anchor="middle" x="760.5" y="-14.3" font-family="Arial" font-size="14.00">Sunlight as an environmental resource</text>
</g>
<!-- n4&#45;&gt;n10 -->
<g id="edge9" class="edge">
<title>n4&#45;&gt;n10</title>
<path fill="none" stroke="black" d="M760.5,-121.81C760.5,-102.11 760.5,-69.58 760.5,-46.39"/>
<polygon fill="black" stroke="black" points="764,-46.16 760.5,-36.16 757,-46.16 764,-46.16"/>
</g>
<!-- n11 -->
<g id="node11" class="node">
<title>n11</title>
<path fill="palegreen" stroke="black" d="M1118.5,-36C1118.5,-36 954.5,-36 954.5,-36 948.5,-36 942.5,-30 942.5,-24 942.5,-24 942.5,-12 942.5,-12 942.5,-6 948.5,0 954.5,0 954.5,0 1118.5,0 1118.5,0 1124.5,0 1130.5,-6 1130.5,-12 1130.5,-12 1130.5,-24 1130.5,-24 1130.5,-30 1124.5,-36 1118.5,-36"/>
<text text-anchor="middle" x="1036.5" y="-14.3" font-family="Arial" font-size="14.00">Plants are part of fish habitat</text>
</g>
<!-- n5&#45;&gt;n11 -->
<g id="edge10" class="edge">
<title>n5&#45;&gt;n11</title>
<path fill="none" stroke="black" d="M1074.2,-121.81C1066.9,-101.94 1054.8,-68.99 1046.3,-45.76"/>
<polygon fill="black" stroke="black" points="1049.51,-44.36 1042.8,-36.16 1042.94,-46.75 1049.51,-44.36"/>
</g>
<!-- n14 -->
<g id="node12" class="node">
<title>n14</title>
<polygon fill="#f28e8e" stroke="black" points="1442.5,-36 1188.5,-36 1188.5,0 1442.5,0 1442.5,-36"/>
<text text-anchor="middle" x="1315.5" y="-14.3" font-family="Arial" font-size="14.00">Feedback on potential plant mislabeling</text>
</g>
<!-- n5&#45;&gt;n14 -->
<g id="edge11" class="edge">
<title>n5&#45;&gt;n14</title>
<path fill="none" stroke="black" d="M1114.2,-121.81C1156,-100.47 1227.3,-64.05 1272.9,-40.77"/>
<polygon fill="black" stroke="black" points="1274.6,-43.84 1281.9,-36.16 1271.4,-37.61 1274.6,-43.84"/>
</g>
<!-- n12 -->
<g id="node13" class="node">
<title>n12</title>
<path fill="palegreen" stroke="black" d="M1662,-36C1662,-36 1513,-36 1513,-36 1507,-36 1501,-30 1501,-24 1501,-24 1501,-12 1501,-12 1501,-6 1507,0 1513,0 1513,0 1662,0 1662,0 1668,0 1674,-6 1674,-12 1674,-12 1674,-24 1674,-24 1674,-30 1668,-36 1662,-36"/>
<text text-anchor="middle" x="1587.5" y="-14.3" font-family="Arial" font-size="14.00">Correct labeling of starfish</text>
</g>
<!-- n6&#45;&gt;n12 -->
<g id="edge12" class="edge">
<title>n6&#45;&gt;n12</title>
<path fill="none" stroke="black" d="M1505.3,-121.81C1521.5,-101.49 1548.7,-67.51 1567.3,-44.22"/>
<polygon fill="black" stroke="black" points="1570.24,-46.14 1573.8,-36.16 1564.8,-41.74 1570.24,-46.14"/>
</g>
<!-- n13 -->
<g id="node14" class="node">
<title>n13</title>
<path fill="palegreen" stroke="black" d="M1981,-36C1981,-36 1744,-36 1744,-36 1738,-36 1732,-30 1732,-24 1732,-24 1732,-12 1732,-12 1732,-6 1738,0 1744,0 1744,0 1981,0 1981,0 1987,0 1993,-6 1993,-12 1993,-12 1993,-24 1993,-24 1993,-30 1987,-36 1981,-36"/>
<text text-anchor="middle" x="1862.5" y="-14.3" font-family="Arial" font-size="14.00">Understanding of ecosystem interactions</text>
</g>
<!-- n7&#45;&gt;n13 -->
<g id="edge13" class="edge">
<title>n7&#45;&gt;n13</title>
<path fill="none" stroke="black" d="M1824.8,-121.81C1832.1,-101.94 1844.2,-68.99 1852.7,-45.76"/>
<polygon fill="black" stroke="black" points="1856.06,-46.75 1856.2,-36.16 1849.49,-44.36 1856.06,-46.75"/>
</g>
</g>
</svg>
