<?xml version="1.0" encoding="UTF-8" standalone="no"?>
<!DOCTYPE svg PUBLIC "-//W3C//DTD SVG 1.1//EN"
 "http://www.w3.org/Graphics/SVG/1.1/DTD/svg11.dtd">
<!-- Generated by graphviz version 2.43.0 (0)
 -->
<!-- Pages: 1 -->
<svg width="1461pt" height="410pt"
 viewBox="0.00 0.00 1461.00 410.00" xmlns="http://www.w3.org/2000/svg" xmlns:xlink="http://www.w3.org/1999/xlink">
<g id="graph0" class="graph" transform="scale(1 1) rotate(0) translate(4 406)">
<polygon fill="white" stroke="transparent" points="-4,4 -4,-406 1457,-406 1457,4 -4,4"/>
<!-- n1 -->
<g id="node1" class="node">
<title>n1</title>
<polygon fill="lightblue" stroke="black" points="554.5,-384 442.25,-402 217.75,-402 105.5,-384 217.75,-366 442.25,-366 554.5,-384"/>
<text text-anchor="middle" x="330" y="-380.3" font-family="Arial" font-size="14.00">Illustrate plants with and without water and light</text>
</g>
<!-- n2 -->
<g id="node2" class="node">
<title>n2</title>
<polygon fill="#fffdd0" stroke="black" points="326,-280 0,-280 0,-244 326,-244 326,-280"/>
<text text-anchor="middle" x="163" y="-258.3" font-family="Arial" font-size="14.00">Three simplistic plants with green stems and circles</text>
</g>
<!-- n1&#45;&gt;n2 -->
<g id="edge1" class="edge">
<title>n1&#45;&gt;n2</title>
<path fill="none" stroke="black" d="M306.07,-365.81C276.93,-344.87 227.59,-309.41 195.15,-286.1"/>
<polygon fill="black" stroke="black" points="197.04,-283.15 186.88,-280.16 192.96,-288.84 197.04,-283.15"/>
</g>
<!-- n3 -->
<g id="node3" class="node">
<title>n3</title>
<polygon fill="#fffdd0" stroke="black" points="655,-280 429,-280 429,-244 655,-244 655,-280"/>
<text text-anchor="middle" x="542" y="-258.3" font-family="Arial" font-size="14.00">Plants are all the same color green</text>
</g>
<!-- n1&#45;&gt;n3 -->
<g id="edge2" class="edge">
<title>n1&#45;&gt;n3</title>
<path fill="none" stroke="black" d="M360.37,-365.81C397.84,-344.6 461.61,-308.5 502.76,-285.21"/>
<polygon fill="black" stroke="black" points="504.7,-288.13 511.68,-280.16 501.25,-282.04 504.7,-288.13"/>
</g>
<!-- n4 -->
<g id="node4" class="node">
<title>n4</title>
<path fill="palegreen" stroke="black" d="M191,-158C191,-158 45,-158 45,-158 39,-158 33,-152 33,-146 33,-146 33,-134 33,-134 33,-128 39,-122 45,-122 45,-122 191,-122 191,-122 197,-122 203,-128 203,-134 203,-134 203,-146 203,-146 203,-152 197,-158 191,-158"/>
<text text-anchor="middle" x="118" y="-136.3" font-family="Arial" font-size="14.00">Basic plant shapes drawn</text>
</g>
<!-- n2&#45;&gt;n4 -->
<g id="edge3" class="edge">
<title>n2&#45;&gt;n4</title>
<path fill="none" stroke="black" d="M156.55,-243.81C149.1,-223.94 136.75,-190.99 128.04,-167.76"/>
<polygon fill="black" stroke="black" points="131.23,-166.29 124.44,-158.16 124.67,-168.75 131.23,-166.29"/>
</g>
<!-- n5 -->
<g id="node5" class="node">
<title>n5</title>
<polygon fill="lightcoral" stroke="black" points="542,-158 260.5,-140 542,-122 823.5,-140 542,-158"/>
<text text-anchor="middle" x="542" y="-136.3" font-family="Arial" font-size="14.00">No distinction in plant appearance despite labels</text>
</g>
<!-- n3&#45;&gt;n5 -->
<g id="edge4" class="edge">
<title>n3&#45;&gt;n5</title>
<path fill="none" stroke="black" d="M542,-243.81C542,-224.11 542,-191.58 542,-168.39"/>
<polygon fill="black" stroke="black" points="545.5,-168.16 542,-158.16 538.5,-168.16 545.5,-168.16"/>
</g>
<!-- n6 -->
<g id="node6" class="node">
<title>n6</title>
<polygon fill="lightcoral" stroke="black" points="1167,-158 881,-140 1167,-122 1453,-140 1167,-158"/>
<text text-anchor="middle" x="1167" y="-136.3" font-family="Arial" font-size="14.00">Understanding effects of no water/light is missing</text>
</g>
<!-- n3&#45;&gt;n6 -->
<g id="edge5" class="edge">
<title>n3&#45;&gt;n6</title>
<path fill="none" stroke="black" d="M630.55,-244C753.42,-220.41 973.6,-178.13 1090,-155.78"/>
<polygon fill="black" stroke="black" points="1090.74,-159.2 1099.9,-153.88 1089.42,-152.33 1090.74,-159.2"/>
</g>
<!-- n7 -->
<g id="node7" class="node">
<title>n7</title>
<polygon fill="#f28e8e" stroke="black" points="707.5,-36 376.5,-36 376.5,0 707.5,0 707.5,-36"/>
<text text-anchor="middle" x="542" y="-14.3" font-family="Arial" font-size="14.00">Use color differences to show effects of environment</text>
</g>
<!-- n5&#45;&gt;n7 -->
<g id="edge6" class="edge">
<title>n5&#45;&gt;n7</title>
<path fill="none" stroke="black" d="M542,-121.81C542,-102.11 542,-69.58 542,-46.39"/>
<polygon fill="black" stroke="black" points="545.5,-46.16 542,-36.16 538.5,-46.16 545.5,-46.16"/>
</g>
<!-- n8 -->
<g id="node8" class="node">
<title>n8</title>
<polygon fill="#f28e8e" stroke="black" points="1324,-36 1010,-36 1010,0 1324,0 1324,-36"/>
<text text-anchor="middle" x="1167" y="-14.3" font-family="Arial" font-size="14.00">Explain how lack of water/light affects plant health</text>
</g>
<!-- n6&#45;&gt;n8 -->
<g id="edge7" class="edge">
<title>n6&#45;&gt;n8</title>
<path fill="none" stroke="black" d="M1167,-121.81C1167,-102.11 1167,-69.58 1167,-46.39"/>
<polygon fill="black" stroke="black" points="1170.5,-46.16 1167,-36.16 1163.5,-46.16 1170.5,-46.16"/>
</g>
</g>
</svg>
