<?xml version="1.0" encoding="UTF-8" standalone="no"?>
<!DOCTYPE svg PUBLIC "-//W3C//DTD SVG 1.1//EN"
 "http://www.w3.org/Graphics/SVG/1.1/DTD/svg11.dtd">
<!-- Generated by graphviz version 2.43.0 (0)
 -->
<!-- Pages: 1 -->
<svg width="1962pt" height="410pt"
 viewBox="0.00 0.00 1962.21 410.00" xmlns="http://www.w3.org/2000/svg" xmlns:xlink="http://www.w3.org/1999/xlink">
<g id="graph0" class="graph" transform="scale(1 1) rotate(0) translate(4 406)">
<polygon fill="white" stroke="transparent" points="-4,4 -4,-406 1958.21,-406 1958.21,4 -4,4"/>
<!-- n1 -->
<g id="node1" class="node">
<title>n1</title>
<polygon fill="lightblue" stroke="black" points="627.5,-384 516,-402 293,-402 181.5,-384 293,-366 516,-366 627.5,-384"/>
<text text-anchor="middle" x="404.5" y="-380.3" font-family="Arial" font-size="14.00">Draw a string telephone between two students.</text>
</g>
<!-- n2 -->
<g id="node2" class="node">
<title>n2</title>
<polygon fill="#fffdd0" stroke="black" points="271.5,-280 45.5,-280 45.5,-244 271.5,-244 271.5,-280"/>
<text text-anchor="middle" x="158.5" y="-258.3" font-family="Arial" font-size="14.00">Two students standing side by side</text>
</g>
<!-- n1&#45;&gt;n2 -->
<g id="edge1" class="edge">
<title>n1&#45;&gt;n2</title>
<path fill="none" stroke="black" d="M369.52,-365.93C325.62,-344.52 250.31,-307.78 202.53,-284.48"/>
<polygon fill="black" stroke="black" points="203.88,-281.25 193.36,-280.01 200.82,-287.54 203.88,-281.25"/>
</g>
<!-- n3 -->
<g id="node3" class="node">
<title>n3</title>
<polygon fill="#fffdd0" stroke="black" points="479,-280 330,-280 330,-244 479,-244 479,-280"/>
<text text-anchor="middle" x="404.5" y="-258.3" font-family="Arial" font-size="14.00">Students holding cups</text>
</g>
<!-- n1&#45;&gt;n3 -->
<g id="edge2" class="edge">
<title>n1&#45;&gt;n3</title>
<path fill="none" stroke="black" d="M404.5,-365.81C404.5,-346.11 404.5,-313.58 404.5,-290.39"/>
<polygon fill="black" stroke="black" points="408,-290.16 404.5,-280.16 401,-290.16 408,-290.16"/>
</g>
<!-- n4 -->
<g id="node4" class="node">
<title>n4</title>
<polygon fill="#fffdd0" stroke="black" points="887.5,-280 723.5,-280 723.5,-244 887.5,-244 887.5,-280"/>
<text text-anchor="middle" x="805.5" y="-258.3" font-family="Arial" font-size="14.00">String line between cups</text>
</g>
<!-- n1&#45;&gt;n4 -->
<g id="edge3" class="edge">
<title>n1&#45;&gt;n4</title>
<path fill="none" stroke="black" d="M461.53,-365.93C534.73,-344.03 661.5,-306.09 739,-282.9"/>
<polygon fill="black" stroke="black" points="740.09,-286.23 748.67,-280.01 738.09,-279.52 740.09,-286.23"/>
</g>
<!-- n5 -->
<g id="node5" class="node">
<title>n5</title>
<path fill="palegreen" stroke="black" d="M305,-158C305,-158 12,-158 12,-158 6,-158 0,-152 0,-146 0,-146 0,-134 0,-134 0,-128 6,-122 12,-122 12,-122 305,-122 305,-122 311,-122 317,-128 317,-134 317,-134 317,-146 317,-146 317,-152 311,-158 305,-158"/>
<text text-anchor="middle" x="158.5" y="-136.3" font-family="Arial" font-size="14.00">Students using a string telephone to communicate</text>
</g>
<!-- n2&#45;&gt;n5 -->
<g id="edge4" class="edge">
<title>n2&#45;&gt;n5</title>
<path fill="none" stroke="black" d="M158.5,-243.81C158.5,-224.11 158.5,-191.58 158.5,-168.39"/>
<polygon fill="black" stroke="black" points="162,-168.16 158.5,-158.16 155,-168.16 162,-168.16"/>
</g>
<!-- n3&#45;&gt;n5 -->
<g id="edge5" class="edge">
<title>n3&#45;&gt;n5</title>
<path fill="none" stroke="black" d="M369.52,-243.93C325.62,-222.52 250.31,-185.78 202.53,-162.48"/>
<polygon fill="black" stroke="black" points="203.88,-159.25 193.36,-158.01 200.82,-165.54 203.88,-159.25"/>
</g>
<!-- n6 -->
<g id="node6" class="node">
<title>n6</title>
<path fill="palegreen" stroke="black" d="M662,-158C662,-158 387,-158 387,-158 381,-158 375,-152 375,-146 375,-146 375,-134 375,-134 375,-128 381,-122 387,-122 387,-122 662,-122 662,-122 668,-122 674,-128 674,-134 674,-134 674,-146 674,-146 674,-152 668,-158 662,-158"/>
<text text-anchor="middle" x="524.5" y="-136.3" font-family="Arial" font-size="14.00">Indication of communication attempt with string</text>
</g>
<!-- n4&#45;&gt;n6 -->
<g id="edge6" class="edge">
<title>n4&#45;&gt;n6</title>
<path fill="none" stroke="black" d="M765.54,-243.93C715.08,-222.39 628.29,-185.32 573.78,-162.04"/>
<polygon fill="black" stroke="black" points="574.89,-158.71 564.32,-158.01 572.15,-165.15 574.89,-158.71"/>
</g>
<!-- n7 -->
<g id="node7" class="node">
<title>n7</title>
<polygon fill="lightcoral" stroke="black" points="992.5,-158 732.26,-140 992.5,-122 1252.74,-140 992.5,-158"/>
<text text-anchor="middle" x="992.5" y="-136.3" font-family="Arial" font-size="14.00">Understanding of sound travel through string</text>
</g>
<!-- n4&#45;&gt;n7 -->
<g id="edge7" class="edge">
<title>n4&#45;&gt;n7</title>
<path fill="none" stroke="black" d="M832.29,-243.81C865.9,-222.24 923.51,-185.27 959.71,-162.04"/>
<polygon fill="black" stroke="black" points="961.9,-164.79 968.43,-156.45 958.12,-158.9 961.9,-164.79"/>
</g>
<!-- n8 -->
<g id="node8" class="node">
<title>n8</title>
<polygon fill="lightcoral" stroke="black" points="1632.5,-158 1310.59,-140 1632.5,-122 1954.41,-140 1632.5,-158"/>
<text text-anchor="middle" x="1632.5" y="-136.3" font-family="Arial" font-size="14.00">Understanding of effective distances for communication</text>
</g>
<!-- n4&#45;&gt;n8 -->
<g id="edge8" class="edge">
<title>n4&#45;&gt;n8</title>
<path fill="none" stroke="black" d="M887.82,-249.06C1042.2,-226.66 1374.3,-178.47 1537.7,-154.76"/>
<polygon fill="black" stroke="black" points="1538.31,-158.21 1547.7,-153.3 1537.3,-151.28 1538.31,-158.21"/>
</g>
<!-- n9 -->
<g id="node9" class="node">
<title>n9</title>
<polygon fill="#f28e8e" stroke="black" points="1152.5,-36 832.5,-36 832.5,0 1152.5,0 1152.5,-36"/>
<text text-anchor="middle" x="992.5" y="-14.3" font-family="Arial" font-size="14.00">Sound doesn’t visibly connect; explanation needed</text>
</g>
<!-- n7&#45;&gt;n9 -->
<g id="edge9" class="edge">
<title>n7&#45;&gt;n9</title>
<path fill="none" stroke="black" d="M992.5,-121.81C992.5,-102.11 992.5,-69.58 992.5,-46.39"/>
<polygon fill="black" stroke="black" points="996,-46.16 992.5,-36.16 989,-46.16 996,-46.16"/>
</g>
<!-- n10 -->
<g id="node10" class="node">
<title>n10</title>
<polygon fill="#f28e8e" stroke="black" points="1756,-36 1509,-36 1509,0 1756,0 1756,-36"/>
<text text-anchor="middle" x="1632.5" y="-14.3" font-family="Arial" font-size="14.00">Include labels or annotations for clarity</text>
</g>
<!-- n8&#45;&gt;n10 -->
<g id="edge10" class="edge">
<title>n8&#45;&gt;n10</title>
<path fill="none" stroke="black" d="M1632.5,-121.81C1632.5,-102.11 1632.5,-69.58 1632.5,-46.39"/>
<polygon fill="black" stroke="black" points="1636,-46.16 1632.5,-36.16 1629,-46.16 1636,-46.16"/>
</g>
</g>
</svg>
