<?xml version="1.0" encoding="UTF-8" standalone="no"?>
<!DOCTYPE svg PUBLIC "-//W3C//DTD SVG 1.1//EN"
 "http://www.w3.org/Graphics/SVG/1.1/DTD/svg11.dtd">
<!-- Generated by graphviz version 2.43.0 (0)
 -->
<!-- Pages: 1 -->
<svg width="1455pt" height="288pt"
 viewBox="0.00 0.00 1454.50 288.00" xmlns="http://www.w3.org/2000/svg" xmlns:xlink="http://www.w3.org/1999/xlink">
<g id="graph0" class="graph" transform="scale(1 1) rotate(0) translate(4 284)">
<polygon fill="white" stroke="transparent" points="-4,4 -4,-284 1450.5,-284 1450.5,4 -4,4"/>
<!-- n1 -->
<g id="node1" class="node">
<title>n1</title>
<polygon fill="lightblue" stroke="black" points="949.5,-262 839.5,-280 619.5,-280 509.5,-262 619.5,-244 839.5,-244 949.5,-262"/>
<text text-anchor="middle" x="729.5" y="-258.3" font-family="Arial" font-size="14.00">Draw a string telephone between two students</text>
</g>
<!-- n2 -->
<g id="node2" class="node">
<title>n2</title>
<polygon fill="#fffdd0" stroke="black" points="362.5,-158 206.5,-158 206.5,-122 362.5,-122 362.5,-158"/>
<text text-anchor="middle" x="284.5" y="-136.3" font-family="Arial" font-size="14.00">Two students with cups</text>
</g>
<!-- n1&#45;&gt;n2 -->
<g id="edge1" class="edge">
<title>n1&#45;&gt;n2</title>
<path fill="none" stroke="black" d="M666.21,-243.93C584.65,-221.94 443.16,-183.78 357.25,-160.62"/>
<polygon fill="black" stroke="black" points="358.14,-157.23 347.57,-158.01 356.31,-163.99 358.14,-157.23"/>
</g>
<!-- n3 -->
<g id="node3" class="node">
<title>n3</title>
<polygon fill="#fffdd0" stroke="black" points="679.5,-158 513.5,-158 513.5,-122 679.5,-122 679.5,-158"/>
<text text-anchor="middle" x="596.5" y="-136.3" font-family="Arial" font-size="14.00">Taut string between cups</text>
</g>
<!-- n1&#45;&gt;n3 -->
<g id="edge2" class="edge">
<title>n1&#45;&gt;n3</title>
<path fill="none" stroke="black" d="M710.44,-243.81C687.53,-223.13 648.94,-188.31 623.1,-165"/>
<polygon fill="black" stroke="black" points="625.29,-162.26 615.52,-158.16 620.6,-167.46 625.29,-162.26"/>
</g>
<!-- n4 -->
<g id="node4" class="node">
<title>n4</title>
<polygon fill="#fffdd0" stroke="black" points="1043.5,-158 793.5,-158 793.5,-122 1043.5,-122 1043.5,-158"/>
<text text-anchor="middle" x="918.5" y="-136.3" font-family="Arial" font-size="14.00">Arrows on string labeled &#39;sound waves&#39;</text>
</g>
<!-- n1&#45;&gt;n4 -->
<g id="edge3" class="edge">
<title>n1&#45;&gt;n4</title>
<path fill="none" stroke="black" d="M756.58,-243.81C789.7,-222.78 845.88,-187.11 882.58,-163.8"/>
<polygon fill="black" stroke="black" points="884.9,-166.47 891.47,-158.16 881.15,-160.56 884.9,-166.47"/>
</g>
<!-- n5 -->
<g id="node5" class="node">
<title>n5</title>
<polygon fill="#fffdd0" stroke="black" points="1430,-158 1139,-158 1139,-122 1430,-122 1430,-158"/>
<text text-anchor="middle" x="1284.5" y="-136.3" font-family="Arial" font-size="14.00">Simple background with bright, primary colors</text>
</g>
<!-- n1&#45;&gt;n5 -->
<g id="edge4" class="edge">
<title>n1&#45;&gt;n5</title>
<path fill="none" stroke="black" d="M808.13,-244C910.5,-221.87 1088.9,-183.29 1195.9,-160.15"/>
<polygon fill="black" stroke="black" points="1196.75,-163.55 1205.8,-158.03 1195.29,-156.7 1196.75,-163.55"/>
</g>
<!-- n6 -->
<g id="node6" class="node">
<title>n6</title>
<path fill="palegreen" stroke="black" d="M335,-36C335,-36 12,-36 12,-36 6,-36 0,-30 0,-24 0,-24 0,-12 0,-12 0,-6 6,0 12,0 12,0 335,0 335,0 341,0 347,-6 347,-12 347,-12 347,-24 347,-24 347,-30 341,-36 335,-36"/>
<text text-anchor="middle" x="173.5" y="-14.3" font-family="Arial" font-size="14.00">Correctly shows the basic concept of a string telephone</text>
</g>
<!-- n2&#45;&gt;n6 -->
<g id="edge5" class="edge">
<title>n2&#45;&gt;n6</title>
<path fill="none" stroke="black" d="M268.6,-121.81C249.64,-101.31 217.82,-66.91 196.26,-43.6"/>
<polygon fill="black" stroke="black" points="198.73,-41.12 189.37,-36.16 193.59,-45.88 198.73,-41.12"/>
</g>
<!-- n7 -->
<g id="node7" class="node">
<title>n7</title>
<path fill="palegreen" stroke="black" d="M740,-36C740,-36 417,-36 417,-36 411,-36 405,-30 405,-24 405,-24 405,-12 405,-12 405,-6 411,0 417,0 417,0 740,0 740,0 746,0 752,-6 752,-12 752,-12 752,-24 752,-24 752,-30 746,-36 740,-36"/>
<text text-anchor="middle" x="578.5" y="-14.3" font-family="Arial" font-size="14.00">Shows understanding that a taut string transmits sound</text>
</g>
<!-- n3&#45;&gt;n7 -->
<g id="edge6" class="edge">
<title>n3&#45;&gt;n7</title>
<path fill="none" stroke="black" d="M593.92,-121.81C590.95,-102.02 586.04,-69.29 582.56,-46.08"/>
<polygon fill="black" stroke="black" points="586.02,-45.53 581.07,-36.16 579.1,-46.57 586.02,-45.53"/>
</g>
<!-- n8 -->
<g id="node8" class="node">
<title>n8</title>
<path fill="palegreen" stroke="black" d="M1090.5,-36C1090.5,-36 822.5,-36 822.5,-36 816.5,-36 810.5,-30 810.5,-24 810.5,-24 810.5,-12 810.5,-12 810.5,-6 816.5,0 822.5,0 822.5,0 1090.5,0 1090.5,0 1096.5,0 1102.5,-6 1102.5,-12 1102.5,-12 1102.5,-24 1102.5,-24 1102.5,-30 1096.5,-36 1090.5,-36"/>
<text text-anchor="middle" x="956.5" y="-14.3" font-family="Arial" font-size="14.00">Represents sound waves travel between cups</text>
</g>
<!-- n4&#45;&gt;n8 -->
<g id="edge7" class="edge">
<title>n4&#45;&gt;n8</title>
<path fill="none" stroke="black" d="M923.94,-121.81C930.24,-101.94 940.67,-68.99 948.03,-45.76"/>
<polygon fill="black" stroke="black" points="951.39,-46.75 951.07,-36.16 944.71,-44.64 951.39,-46.75"/>
</g>
<!-- n9 -->
<g id="node9" class="node">
<title>n9</title>
<path fill="palegreen" stroke="black" d="M1434.5,-36C1434.5,-36 1172.5,-36 1172.5,-36 1166.5,-36 1160.5,-30 1160.5,-24 1160.5,-24 1160.5,-12 1160.5,-12 1160.5,-6 1166.5,0 1172.5,0 1172.5,0 1434.5,0 1434.5,0 1440.5,0 1446.5,-6 1446.5,-12 1446.5,-12 1446.5,-24 1446.5,-24 1446.5,-30 1440.5,-36 1434.5,-36"/>
<text text-anchor="middle" x="1303.5" y="-14.3" font-family="Arial" font-size="14.00">Focus on string telephone, not external noise</text>
</g>
<!-- n5&#45;&gt;n9 -->
<g id="edge8" class="edge">
<title>n5&#45;&gt;n9</title>
<path fill="none" stroke="black" d="M1287.2,-121.81C1290.4,-102.02 1295.5,-69.29 1299.2,-46.08"/>
<polygon fill="black" stroke="black" points="1302.66,-46.59 1300.8,-36.16 1295.75,-45.48 1302.66,-46.59"/>
</g>
</g>
</svg>
