<?xml version="1.0" encoding="UTF-8" standalone="no"?>
<!DOCTYPE svg PUBLIC "-//W3C//DTD SVG 1.1//EN"
 "http://www.w3.org/Graphics/SVG/1.1/DTD/svg11.dtd">
<!-- Generated by graphviz version 2.43.0 (0)
 -->
<!-- Pages: 1 -->
<svg width="1248pt" height="410pt"
 viewBox="0.00 0.00 1248.12 410.00" xmlns="http://www.w3.org/2000/svg" xmlns:xlink="http://www.w3.org/1999/xlink">
<g id="graph0" class="graph" transform="scale(1 1) rotate(0) translate(4 406)">
<polygon fill="white" stroke="transparent" points="-4,4 -4,-406 1244.12,-406 1244.12,4 -4,4"/>
<!-- n1 -->
<g id="node1" class="node">
<title>n1</title>
<polygon fill="lightblue" stroke="black" points="911,-384 747,-402 419,-402 255,-384 419,-366 747,-366 911,-384"/>
<text text-anchor="middle" x="583" y="-380.3" font-family="Arial" font-size="14.00">Draw reversible and irreversible changes (ice melting vs. egg cooking)</text>
</g>
<!-- n2 -->
<g id="node2" class="node">
<title>n2</title>
<polygon fill="#fffdd0" stroke="black" points="554,-280 0,-280 0,-244 554,-244 554,-280"/>
<text text-anchor="middle" x="277" y="-258.3" font-family="Arial" font-size="14.00">Ice cube with sharp edges and blue puddle of water with reversible arrow labeled &#39;melting&#39;</text>
</g>
<!-- n1&#45;&gt;n2 -->
<g id="edge1" class="edge">
<title>n1&#45;&gt;n2</title>
<path fill="none" stroke="black" d="M539.48,-365.93C484.31,-344.3 389.24,-307.02 329.93,-283.76"/>
<polygon fill="black" stroke="black" points="330.96,-280.4 320.37,-280.01 328.4,-286.92 330.96,-280.4"/>
</g>
<!-- n3 -->
<g id="node3" class="node">
<title>n3</title>
<polygon fill="#fffdd0" stroke="black" points="1165.5,-280 612.5,-280 612.5,-244 1165.5,-244 1165.5,-280"/>
<text text-anchor="middle" x="889" y="-258.3" font-family="Arial" font-size="14.00">Raw egg with yolk and white next to a cooked egg with shading, crossed out with a red &#39;X&#39;</text>
</g>
<!-- n1&#45;&gt;n3 -->
<g id="edge2" class="edge">
<title>n1&#45;&gt;n3</title>
<path fill="none" stroke="black" d="M626.52,-365.93C681.69,-344.3 776.76,-307.02 836.07,-283.76"/>
<polygon fill="black" stroke="black" points="837.6,-286.92 845.63,-280.01 835.04,-280.4 837.6,-286.92"/>
</g>
<!-- n4 -->
<g id="node4" class="node">
<title>n4</title>
<path fill="palegreen" stroke="black" d="M429,-158C429,-158 125,-158 125,-158 119,-158 113,-152 113,-146 113,-146 113,-134 113,-134 113,-128 119,-122 125,-122 125,-122 429,-122 429,-122 435,-122 441,-128 441,-134 441,-134 441,-146 441,-146 441,-152 435,-158 429,-158"/>
<text text-anchor="middle" x="277" y="-136.3" font-family="Arial" font-size="14.00">Understands ice melting and refreezing is reversible</text>
</g>
<!-- n2&#45;&gt;n4 -->
<g id="edge3" class="edge">
<title>n2&#45;&gt;n4</title>
<path fill="none" stroke="black" d="M277,-243.81C277,-224.11 277,-191.58 277,-168.39"/>
<polygon fill="black" stroke="black" points="280.5,-168.16 277,-158.16 273.5,-168.16 280.5,-168.16"/>
</g>
<!-- n5 -->
<g id="node5" class="node">
<title>n5</title>
<polygon fill="lightcoral" stroke="black" points="889,-158 537.76,-140 889,-122 1240.24,-140 889,-158"/>
<text text-anchor="middle" x="889" y="-136.3" font-family="Arial" font-size="14.00">Misunderstands irreversibility of egg cooking with &#39;X&#39; marking</text>
</g>
<!-- n3&#45;&gt;n5 -->
<g id="edge4" class="edge">
<title>n3&#45;&gt;n5</title>
<path fill="none" stroke="black" d="M889,-243.81C889,-224.11 889,-191.58 889,-168.39"/>
<polygon fill="black" stroke="black" points="892.5,-168.16 889,-158.16 885.5,-168.16 892.5,-168.16"/>
</g>
<!-- n6 -->
<g id="node6" class="node">
<title>n6</title>
<polygon fill="#f28e8e" stroke="black" points="1084,-36 694,-36 694,0 1084,0 1084,-36"/>
<text text-anchor="middle" x="889" y="-14.3" font-family="Arial" font-size="14.00">Use clear labels/themes for irreversible processes like cooking</text>
</g>
<!-- n5&#45;&gt;n6 -->
<g id="edge5" class="edge">
<title>n5&#45;&gt;n6</title>
<path fill="none" stroke="black" d="M889,-121.81C889,-102.11 889,-69.58 889,-46.39"/>
<polygon fill="black" stroke="black" points="892.5,-46.16 889,-36.16 885.5,-46.16 892.5,-46.16"/>
</g>
</g>
</svg>
