<?xml version="1.0" encoding="UTF-8" standalone="no"?>
<!DOCTYPE svg PUBLIC "-//W3C//DTD SVG 1.1//EN"
 "http://www.w3.org/Graphics/SVG/1.1/DTD/svg11.dtd">
<!-- Generated by graphviz version 2.43.0 (0)
 -->
<!-- Pages: 1 -->
<svg width="1769pt" height="410pt"
 viewBox="0.00 0.00 1768.50 410.00" xmlns="http://www.w3.org/2000/svg" xmlns:xlink="http://www.w3.org/1999/xlink">
<g id="graph0" class="graph" transform="scale(1 1) rotate(0) translate(4 406)">
<polygon fill="white" stroke="transparent" points="-4,4 -4,-406 1764.5,-406 1764.5,4 -4,4"/>
<!-- n1 -->
<g id="node1" class="node">
<title>n1</title>
<polygon fill="lightblue" stroke="black" points="756.24,-384 663.12,-402 476.88,-402 383.76,-384 476.88,-366 663.12,-366 756.24,-384"/>
<text text-anchor="middle" x="570" y="-380.3" font-family="Arial" font-size="14.00">Illustrate plants with and without water.</text>
</g>
<!-- n2 -->
<g id="node2" class="node">
<title>n2</title>
<polygon fill="#fffdd0" stroke="black" points="330,-280 0,-280 0,-244 330,-244 330,-280"/>
<text text-anchor="middle" x="165" y="-258.3" font-family="Arial" font-size="14.00">Healthy plant with tall green stem and upright leaves</text>
</g>
<!-- n1&#45;&gt;n2 -->
<g id="edge1" class="edge">
<title>n1&#45;&gt;n2</title>
<path fill="none" stroke="black" d="M512.4,-365.93C438.48,-344.03 310.44,-306.09 232.16,-282.9"/>
<polygon fill="black" stroke="black" points="232.98,-279.49 222.4,-280.01 230.99,-286.21 232.98,-279.49"/>
</g>
<!-- n3 -->
<g id="node3" class="node">
<title>n3</title>
<polygon fill="#fffdd0" stroke="black" points="752,-280 388,-280 388,-244 752,-244 752,-280"/>
<text text-anchor="middle" x="570" y="-258.3" font-family="Arial" font-size="14.00">Plant without water with drooping, slightly brownish leaves</text>
</g>
<!-- n1&#45;&gt;n3 -->
<g id="edge2" class="edge">
<title>n1&#45;&gt;n3</title>
<path fill="none" stroke="black" d="M570,-365.81C570,-346.11 570,-313.58 570,-290.39"/>
<polygon fill="black" stroke="black" points="573.5,-290.16 570,-280.16 566.5,-290.16 573.5,-290.16"/>
</g>
<!-- n4 -->
<g id="node4" class="node">
<title>n4</title>
<polygon fill="#fffdd0" stroke="black" points="1017,-280 841,-280 841,-244 1017,-244 1017,-280"/>
<text text-anchor="middle" x="929" y="-258.3" font-family="Arial" font-size="14.00">Bright yellow sun with rays</text>
</g>
<!-- n1&#45;&gt;n4 -->
<g id="edge3" class="edge">
<title>n1&#45;&gt;n4</title>
<path fill="none" stroke="black" d="M621.05,-365.93C686.32,-344.12 799.16,-306.4 868.62,-283.18"/>
<polygon fill="black" stroke="black" points="869.74,-286.5 878.12,-280.01 867.53,-279.86 869.74,-286.5"/>
</g>
<!-- n5 -->
<g id="node5" class="node">
<title>n5</title>
<path fill="palegreen" stroke="black" d="M302.5,-158C302.5,-158 27.5,-158 27.5,-158 21.5,-158 15.5,-152 15.5,-146 15.5,-146 15.5,-134 15.5,-134 15.5,-128 21.5,-122 27.5,-122 27.5,-122 302.5,-122 302.5,-122 308.5,-122 314.5,-128 314.5,-134 314.5,-134 314.5,-146 314.5,-146 314.5,-152 308.5,-158 302.5,-158"/>
<text text-anchor="middle" x="165" y="-136.3" font-family="Arial" font-size="14.00">Student understands healthy plants need water</text>
</g>
<!-- n2&#45;&gt;n5 -->
<g id="edge4" class="edge">
<title>n2&#45;&gt;n5</title>
<path fill="none" stroke="black" d="M165,-243.81C165,-224.11 165,-191.58 165,-168.39"/>
<polygon fill="black" stroke="black" points="168.5,-168.16 165,-158.16 161.5,-168.16 168.5,-168.16"/>
</g>
<!-- n6 -->
<g id="node6" class="node">
<title>n6</title>
<path fill="palegreen" stroke="black" d="M711.5,-158C711.5,-158 398.5,-158 398.5,-158 392.5,-158 386.5,-152 386.5,-146 386.5,-146 386.5,-134 386.5,-134 386.5,-128 392.5,-122 398.5,-122 398.5,-122 711.5,-122 711.5,-122 717.5,-122 723.5,-128 723.5,-134 723.5,-134 723.5,-146 723.5,-146 723.5,-152 717.5,-158 711.5,-158"/>
<text text-anchor="middle" x="555" y="-136.3" font-family="Arial" font-size="14.00">Student associates drooping leaves with lack of water</text>
</g>
<!-- n3&#45;&gt;n6 -->
<g id="edge5" class="edge">
<title>n3&#45;&gt;n6</title>
<path fill="none" stroke="black" d="M567.85,-243.81C565.39,-224.11 561.32,-191.58 558.42,-168.39"/>
<polygon fill="black" stroke="black" points="561.86,-167.65 557.15,-158.16 554.91,-168.52 561.86,-167.65"/>
</g>
<!-- n7 -->
<g id="node7" class="node">
<title>n7</title>
<path fill="palegreen" stroke="black" d="M1064,-158C1064,-158 794,-158 794,-158 788,-158 782,-152 782,-146 782,-146 782,-134 782,-134 782,-128 788,-122 794,-122 794,-122 1064,-122 1064,-122 1070,-122 1076,-128 1076,-134 1076,-134 1076,-146 1076,-146 1076,-152 1070,-158 1064,-158"/>
<text text-anchor="middle" x="929" y="-136.3" font-family="Arial" font-size="14.00">Student recognizes light is important for plants</text>
</g>
<!-- n4&#45;&gt;n7 -->
<g id="edge6" class="edge">
<title>n4&#45;&gt;n7</title>
<path fill="none" stroke="black" d="M929,-243.81C929,-224.11 929,-191.58 929,-168.39"/>
<polygon fill="black" stroke="black" points="932.5,-168.16 929,-158.16 925.5,-168.16 932.5,-168.16"/>
</g>
<!-- n8 -->
<g id="node8" class="node">
<title>n8</title>
<polygon fill="lightcoral" stroke="black" points="1447,-158 1133.5,-140 1447,-122 1760.5,-140 1447,-158"/>
<text text-anchor="middle" x="1447" y="-136.3" font-family="Arial" font-size="14.00">Student could illustrate lack of light environment better</text>
</g>
<!-- n4&#45;&gt;n8 -->
<g id="edge7" class="edge">
<title>n4&#45;&gt;n8</title>
<path fill="none" stroke="black" d="M1002.4,-244C1102.5,-220.81 1280.5,-179.56 1378.2,-156.94"/>
<polygon fill="black" stroke="black" points="1379.05,-160.34 1388,-154.67 1377.47,-153.52 1379.05,-160.34"/>
</g>
<!-- n9 -->
<g id="node9" class="node">
<title>n9</title>
<polygon fill="#f28e8e" stroke="black" points="1607,-36 1287,-36 1287,0 1607,0 1607,-36"/>
<text text-anchor="middle" x="1447" y="-14.3" font-family="Arial" font-size="14.00">Suggestion: Demonstrate lack of light environment</text>
</g>
<!-- n8&#45;&gt;n9 -->
<g id="edge8" class="edge">
<title>n8&#45;&gt;n9</title>
<path fill="none" stroke="black" d="M1447,-121.81C1447,-102.11 1447,-69.58 1447,-46.39"/>
<polygon fill="black" stroke="black" points="1450.5,-46.16 1447,-36.16 1443.5,-46.16 1450.5,-46.16"/>
</g>
</g>
</svg>
