<?xml version="1.0" encoding="UTF-8" standalone="no"?>
<!DOCTYPE svg PUBLIC "-//W3C//DTD SVG 1.1//EN"
 "http://www.w3.org/Graphics/SVG/1.1/DTD/svg11.dtd">
<!-- Generated by graphviz version 2.43.0 (0)
 -->
<!-- Pages: 1 -->
<svg width="1592pt" height="410pt"
 viewBox="0.00 0.00 1592.00 410.00" xmlns="http://www.w3.org/2000/svg" xmlns:xlink="http://www.w3.org/1999/xlink">
<g id="graph0" class="graph" transform="scale(1 1) rotate(0) translate(4 406)">
<polygon fill="white" stroke="transparent" points="-4,4 -4,-406 1588,-406 1588,4 -4,4"/>
<!-- n1 -->
<g id="node1" class="node">
<title>n1</title>
<polygon fill="lightblue" stroke="black" points="963.82,-384 841.41,-402 596.59,-402 474.18,-384 596.59,-366 841.41,-366 963.82,-384"/>
<text text-anchor="middle" x="719" y="-380.3" font-family="Arial" font-size="14.00">Draw a habitat and the different living things in each</text>
</g>
<!-- n2 -->
<g id="node2" class="node">
<title>n2</title>
<polygon fill="#fffdd0" stroke="black" points="389.5,-280 30.5,-280 30.5,-244 389.5,-244 389.5,-280"/>
<text text-anchor="middle" x="210" y="-258.3" font-family="Arial" font-size="14.00">Green patch and blue shape representing land and water</text>
</g>
<!-- n1&#45;&gt;n2 -->
<g id="edge1" class="edge">
<title>n1&#45;&gt;n2</title>
<path fill="none" stroke="black" d="M646.88,-366C553.29,-343.93 390.36,-305.52 292.11,-282.36"/>
<polygon fill="black" stroke="black" points="292.76,-278.92 282.22,-280.03 291.15,-285.73 292.76,-278.92"/>
</g>
<!-- n3 -->
<g id="node3" class="node">
<title>n3</title>
<polygon fill="#fffdd0" stroke="black" points="664.5,-280 447.5,-280 447.5,-244 664.5,-244 664.5,-280"/>
<text text-anchor="middle" x="556" y="-258.3" font-family="Arial" font-size="14.00">Simple stick trees on green patch</text>
</g>
<!-- n1&#45;&gt;n3 -->
<g id="edge2" class="edge">
<title>n1&#45;&gt;n3</title>
<path fill="none" stroke="black" d="M695.65,-365.81C667.2,-344.87 619.04,-309.41 587.38,-286.1"/>
<polygon fill="black" stroke="black" points="589.44,-283.27 579.31,-280.16 585.29,-288.91 589.44,-283.27"/>
</g>
<!-- n4 -->
<g id="node4" class="node">
<title>n4</title>
<polygon fill="#fffdd0" stroke="black" points="1043.5,-280 722.5,-280 722.5,-244 1043.5,-244 1043.5,-280"/>
<text text-anchor="middle" x="883" y="-258.3" font-family="Arial" font-size="14.00">Animals depicted as circles with short lines for legs</text>
</g>
<!-- n1&#45;&gt;n4 -->
<g id="edge3" class="edge">
<title>n1&#45;&gt;n4</title>
<path fill="none" stroke="black" d="M742.5,-365.81C771.12,-344.87 819.57,-309.41 851.43,-286.1"/>
<polygon fill="black" stroke="black" points="853.55,-288.89 859.55,-280.16 849.41,-283.24 853.55,-288.89"/>
</g>
<!-- n5 -->
<g id="node5" class="node">
<title>n5</title>
<polygon fill="#fffdd0" stroke="black" points="1413.5,-280 1174.5,-280 1174.5,-244 1413.5,-244 1413.5,-280"/>
<text text-anchor="middle" x="1294" y="-258.3" font-family="Arial" font-size="14.00">Fish placed unrealistically near a tree</text>
</g>
<!-- n1&#45;&gt;n5 -->
<g id="edge4" class="edge">
<title>n1&#45;&gt;n5</title>
<path fill="none" stroke="black" d="M800.47,-366C906.63,-343.84 1091.7,-305.21 1202.6,-282.08"/>
<polygon fill="black" stroke="black" points="1203.33,-285.5 1212.4,-280.03 1201.9,-278.65 1203.33,-285.5"/>
</g>
<!-- n6 -->
<g id="node6" class="node">
<title>n6</title>
<path fill="palegreen" stroke="black" d="M238,-158C238,-158 12,-158 12,-158 6,-158 0,-152 0,-146 0,-146 0,-134 0,-134 0,-128 6,-122 12,-122 12,-122 238,-122 238,-122 244,-122 250,-128 250,-134 250,-134 250,-146 250,-146 250,-152 244,-158 238,-158"/>
<text text-anchor="middle" x="125" y="-136.3" font-family="Arial" font-size="14.00">Basic shapes represent land and water</text>
</g>
<!-- n2&#45;&gt;n6 -->
<g id="edge5" class="edge">
<title>n2&#45;&gt;n6</title>
<path fill="none" stroke="black" d="M197.82,-243.81C183.49,-223.58 159.57,-189.81 143.08,-166.52"/>
<polygon fill="black" stroke="black" points="145.8,-164.3 137.16,-158.16 140.08,-168.34 145.8,-164.3"/>
</g>
<!-- n7 -->
<g id="node7" class="node">
<title>n7</title>
<path fill="palegreen" stroke="black" d="M603.5,-158C603.5,-158 320.5,-158 320.5,-158 314.5,-158 308.5,-152 308.5,-146 308.5,-146 308.5,-134 308.5,-134 308.5,-128 314.5,-122 320.5,-122 320.5,-122 603.5,-122 603.5,-122 609.5,-122 615.5,-128 615.5,-134 615.5,-134 615.5,-146 615.5,-146 615.5,-152 609.5,-158 603.5,-158"/>
<text text-anchor="middle" x="462" y="-136.3" font-family="Arial" font-size="14.00">Attempts to distinguish land and aquatic habitats</text>
</g>
<!-- n2&#45;&gt;n7 -->
<g id="edge6" class="edge">
<title>n2&#45;&gt;n7</title>
<path fill="none" stroke="black" d="M245.84,-243.93C290.9,-222.48 368.27,-185.63 417.2,-162.33"/>
<polygon fill="black" stroke="black" points="418.76,-165.46 426.29,-158.01 415.76,-159.14 418.76,-165.46"/>
</g>
<!-- n3&#45;&gt;n7 -->
<g id="edge7" class="edge">
<title>n3&#45;&gt;n7</title>
<path fill="none" stroke="black" d="M542.53,-243.81C526.62,-223.49 500,-189.51 481.75,-166.21"/>
<polygon fill="black" stroke="black" points="484.36,-163.87 475.44,-158.16 478.85,-168.19 484.36,-163.87"/>
</g>
<!-- n8 -->
<g id="node8" class="node">
<title>n8</title>
<polygon fill="lightcoral" stroke="black" points="883,-158 673.36,-140 883,-122 1092.64,-140 883,-158"/>
<text text-anchor="middle" x="883" y="-136.3" font-family="Arial" font-size="14.00">Lack of diversity in animal portrayal</text>
</g>
<!-- n4&#45;&gt;n8 -->
<g id="edge8" class="edge">
<title>n4&#45;&gt;n8</title>
<path fill="none" stroke="black" d="M883,-243.81C883,-224.11 883,-191.58 883,-168.39"/>
<polygon fill="black" stroke="black" points="886.5,-168.16 883,-158.16 879.5,-168.16 886.5,-168.16"/>
</g>
<!-- n9 -->
<g id="node9" class="node">
<title>n9</title>
<polygon fill="lightcoral" stroke="black" points="1367,-158 1150,-140 1367,-122 1584,-140 1367,-158"/>
<text text-anchor="middle" x="1367" y="-136.3" font-family="Arial" font-size="14.00">No clear distinction between habitats</text>
</g>
<!-- n5&#45;&gt;n9 -->
<g id="edge9" class="edge">
<title>n5&#45;&gt;n9</title>
<path fill="none" stroke="black" d="M1304.5,-243.81C1316.8,-223.44 1337.6,-189.34 1351.8,-166.04"/>
<polygon fill="black" stroke="black" points="1354.85,-167.76 1357,-157.39 1348.85,-164.16 1354.85,-167.76"/>
</g>
<!-- n11 -->
<g id="node10" class="node">
<title>n11</title>
<polygon fill="#f28e8e" stroke="black" points="1055.5,-36 710.5,-36 710.5,0 1055.5,0 1055.5,-36"/>
<text text-anchor="middle" x="883" y="-14.3" font-family="Arial" font-size="14.00">Encourage distinguishing different types of living things</text>
</g>
<!-- n8&#45;&gt;n11 -->
<g id="edge10" class="edge">
<title>n8&#45;&gt;n11</title>
<path fill="none" stroke="black" d="M883,-121.81C883,-102.11 883,-69.58 883,-46.39"/>
<polygon fill="black" stroke="black" points="886.5,-46.16 883,-36.16 879.5,-46.16 886.5,-46.16"/>
</g>
<!-- n10 -->
<g id="node11" class="node">
<title>n10</title>
<polygon fill="#f28e8e" stroke="black" points="1557,-36 1177,-36 1177,0 1557,0 1557,-36"/>
<text text-anchor="middle" x="1367" y="-14.3" font-family="Arial" font-size="14.00">Clarify habitat features; place animals in appropriate habitats</text>
</g>
<!-- n9&#45;&gt;n10 -->
<g id="edge11" class="edge">
<title>n9&#45;&gt;n10</title>
<path fill="none" stroke="black" d="M1367,-121.81C1367,-102.11 1367,-69.58 1367,-46.39"/>
<polygon fill="black" stroke="black" points="1370.5,-46.16 1367,-36.16 1363.5,-46.16 1370.5,-46.16"/>
</g>
</g>
</svg>
