<?xml version="1.0" encoding="UTF-8" standalone="no"?>
<!DOCTYPE svg PUBLIC "-//W3C//DTD SVG 1.1//EN"
 "http://www.w3.org/Graphics/SVG/1.1/DTD/svg11.dtd">
<!-- Generated by graphviz version 2.43.0 (0)
 -->
<!-- Pages: 1 -->
<svg width="2291pt" height="410pt"
 viewBox="0.00 0.00 2290.97 410.00" xmlns="http://www.w3.org/2000/svg" xmlns:xlink="http://www.w3.org/1999/xlink">
<g id="graph0" class="graph" transform="scale(1 1) rotate(0) translate(4 406)">
<polygon fill="white" stroke="transparent" points="-4,4 -4,-406 2286.97,-406 2286.97,4 -4,4"/>
<!-- n1 -->
<g id="node1" class="node">
<title>n1</title>
<polygon fill="lightblue" stroke="black" points="1483.47,-384 1319.47,-402 991.47,-402 827.47,-384 991.47,-366 1319.47,-366 1483.47,-384"/>
<text text-anchor="middle" x="1155.47" y="-380.3" font-family="Arial" font-size="14.00">Draw reversible and irreversible changes (ice melting vs. egg cooking)</text>
</g>
<!-- n2 -->
<g id="node2" class="node">
<title>n2</title>
<polygon fill="#fffdd0" stroke="black" points="1152.97,-280 867.97,-280 867.97,-244 1152.97,-244 1152.97,-280"/>
<text text-anchor="middle" x="1010.47" y="-258.3" font-family="Arial" font-size="14.00">Slightly lumpy cube representing an ice cube</text>
</g>
<!-- n1&#45;&gt;n2 -->
<g id="edge1" class="edge">
<title>n1&#45;&gt;n2</title>
<path fill="none" stroke="black" d="M1134.77,-365.81C1109.67,-345.04 1067.27,-310.01 1039.17,-286.7"/>
<polygon fill="black" stroke="black" points="1041.2,-283.84 1031.27,-280.16 1036.74,-289.23 1041.2,-283.84"/>
</g>
<!-- n3 -->
<g id="node3" class="node">
<title>n3</title>
<polygon fill="#fffdd0" stroke="black" points="673,-280 410,-280 410,-244 673,-244 673,-280"/>
<text text-anchor="middle" x="541.5" y="-258.3" font-family="Arial" font-size="14.00">Two large oval shapes representing eggs</text>
</g>
<!-- n1&#45;&gt;n3 -->
<g id="edge2" class="edge">
<title>n1&#45;&gt;n3</title>
<path fill="none" stroke="black" d="M1068.47,-366C955.03,-343.82 757.07,-305.13 638.76,-282.01"/>
<polygon fill="black" stroke="black" points="639.11,-278.51 628.62,-280.03 637.76,-285.38 639.11,-278.51"/>
</g>
<!-- n4 -->
<g id="node4" class="node">
<title>n4</title>
<polygon fill="#fffdd0" stroke="black" points="1864.97,-280 1535.97,-280 1535.97,-244 1864.97,-244 1864.97,-280"/>
<text text-anchor="middle" x="1700.47" y="-258.3" font-family="Arial" font-size="14.00">Random arrows scattered with no clear organization</text>
</g>
<!-- n1&#45;&gt;n4 -->
<g id="edge3" class="edge">
<title>n1&#45;&gt;n4</title>
<path fill="none" stroke="black" d="M1232.67,-366C1333.17,-343.89 1508.07,-305.37 1613.17,-282.22"/>
<polygon fill="black" stroke="black" points="1614.15,-285.59 1623.17,-280.03 1612.65,-278.75 1614.15,-285.59"/>
</g>
<!-- n5 -->
<g id="node5" class="node">
<title>n5</title>
<polygon fill="#fffdd0" stroke="black" points="1389.97,-280 1210.97,-280 1210.97,-244 1389.97,-244 1389.97,-280"/>
<text text-anchor="middle" x="1300.47" y="-258.3" font-family="Arial" font-size="14.00">No clear liquid water drawn</text>
</g>
<!-- n1&#45;&gt;n5 -->
<g id="edge4" class="edge">
<title>n1&#45;&gt;n5</title>
<path fill="none" stroke="black" d="M1176.27,-365.81C1201.37,-345.04 1243.67,-310.01 1271.87,-286.7"/>
<polygon fill="black" stroke="black" points="1274.3,-289.23 1279.77,-280.16 1269.84,-283.84 1274.3,-289.23"/>
</g>
<!-- n7 -->
<g id="node6" class="node">
<title>n7</title>
<path fill="palegreen" stroke="black" d="M1142.47,-158C1142.47,-158 878.47,-158 878.47,-158 872.47,-158 866.47,-152 866.47,-146 866.47,-146 866.47,-134 866.47,-134 866.47,-128 872.47,-122 878.47,-122 878.47,-122 1142.47,-122 1142.47,-122 1148.47,-122 1154.47,-128 1154.47,-134 1154.47,-134 1154.47,-146 1154.47,-146 1154.47,-152 1148.47,-158 1142.47,-158"/>
<text text-anchor="middle" x="1010.47" y="-136.3" font-family="Arial" font-size="14.00">Understanding reversible change: Ice melting</text>
</g>
<!-- n2&#45;&gt;n7 -->
<g id="edge5" class="edge">
<title>n2&#45;&gt;n7</title>
<path fill="none" stroke="black" d="M1010.47,-243.81C1010.47,-224.11 1010.47,-191.58 1010.47,-168.39"/>
<polygon fill="black" stroke="black" points="1013.97,-168.16 1010.47,-158.16 1006.97,-168.16 1013.97,-168.16"/>
</g>
<!-- n8 -->
<g id="node7" class="node">
<title>n8</title>
<polygon fill="lightcoral" stroke="black" points="404.5,-158 0,-140 404.5,-122 809,-140 404.5,-158"/>
<text text-anchor="middle" x="404.5" y="-136.3" font-family="Arial" font-size="14.00">Understanding irreversible change: Raw egg vs. cooked egg ambiguity</text>
</g>
<!-- n3&#45;&gt;n8 -->
<g id="edge6" class="edge">
<title>n3&#45;&gt;n8</title>
<path fill="none" stroke="black" d="M521.87,-243.81C498,-222.9 457.61,-187.52 431,-164.21"/>
<polygon fill="black" stroke="black" points="433.04,-161.34 423.21,-157.39 428.43,-166.61 433.04,-161.34"/>
</g>
<!-- n6 -->
<g id="node8" class="node">
<title>n6</title>
<polygon fill="lightcoral" stroke="black" points="1789.47,-158 1559.47,-140 1789.47,-122 2019.47,-140 1789.47,-158"/>
<text text-anchor="middle" x="1789.47" y="-136.3" font-family="Arial" font-size="14.00">Arrows show process but lack direction</text>
</g>
<!-- n4&#45;&gt;n6 -->
<g id="edge7" class="edge">
<title>n4&#45;&gt;n6</title>
<path fill="none" stroke="black" d="M1713.27,-243.81C1728.47,-223.26 1754.07,-188.74 1771.37,-165.42"/>
<polygon fill="black" stroke="black" points="1774.19,-167.5 1777.37,-157.39 1768.58,-163.31 1774.19,-167.5"/>
</g>
<!-- n5&#45;&gt;n7 -->
<g id="edge8" class="edge">
<title>n5&#45;&gt;n7</title>
<path fill="none" stroke="black" d="M1259.27,-243.93C1207.07,-222.34 1117.27,-185.17 1060.97,-161.9"/>
<polygon fill="black" stroke="black" points="1062.15,-158.6 1051.57,-158.01 1059.47,-165.07 1062.15,-158.6"/>
</g>
<!-- n11 -->
<g id="node9" class="node">
<title>n11</title>
<polygon fill="#f28e8e" stroke="black" points="1501.97,-158 1212.97,-158 1212.97,-122 1501.97,-122 1501.97,-158"/>
<text text-anchor="middle" x="1357.47" y="-136.3" font-family="Arial" font-size="14.00">Draw liquid water to show full cycle of melting</text>
</g>
<!-- n5&#45;&gt;n11 -->
<g id="edge9" class="edge">
<title>n5&#45;&gt;n11</title>
<path fill="none" stroke="black" d="M1308.67,-243.81C1318.17,-223.85 1333.87,-190.7 1344.97,-167.45"/>
<polygon fill="black" stroke="black" points="1348.25,-168.7 1349.37,-158.16 1341.93,-165.7 1348.25,-168.7"/>
</g>
<!-- n13 -->
<g id="node10" class="node">
<title>n13</title>
<polygon fill="#f28e8e" stroke="black" points="644,-36 165,-36 165,0 644,0 644,-36"/>
<text text-anchor="middle" x="404.5" y="-14.3" font-family="Arial" font-size="14.00">Explain distinction between raw and cooked eggs to show irreversible change</text>
</g>
<!-- n8&#45;&gt;n13 -->
<g id="edge10" class="edge">
<title>n8&#45;&gt;n13</title>
<path fill="none" stroke="black" d="M404.5,-121.81C404.5,-102.11 404.5,-69.58 404.5,-46.39"/>
<polygon fill="black" stroke="black" points="408,-46.16 404.5,-36.16 401,-46.16 408,-46.16"/>
</g>
<!-- n12 -->
<g id="node11" class="node">
<title>n12</title>
<polygon fill="#f28e8e" stroke="black" points="1942.47,-36 1636.47,-36 1636.47,0 1942.47,0 1942.47,-36"/>
<text text-anchor="middle" x="1789.47" y="-14.3" font-family="Arial" font-size="14.00">Use arrows to show the process direction clearly</text>
</g>
<!-- n6&#45;&gt;n12 -->
<g id="edge11" class="edge">
<title>n6&#45;&gt;n12</title>
<path fill="none" stroke="black" d="M1789.47,-121.81C1789.47,-102.11 1789.47,-69.58 1789.47,-46.39"/>
<polygon fill="black" stroke="black" points="1792.97,-46.16 1789.47,-36.16 1785.97,-46.16 1792.97,-46.16"/>
</g>
<!-- n9 -->
<g id="node12" class="node">
<title>n9</title>
<polygon fill="lightcoral" stroke="black" points="2071.47,-402 1859.97,-384 2071.47,-366 2282.97,-384 2071.47,-402"/>
<text text-anchor="middle" x="2071.47" y="-380.3" font-family="Arial" font-size="14.00">Labeling is incorrect or non&#45;existent</text>
</g>
<!-- n10 -->
<g id="node13" class="node">
<title>n10</title>
<polygon fill="#f28e8e" stroke="black" points="2219.47,-280 1923.47,-280 1923.47,-244 2219.47,-244 2219.47,-280"/>
<text text-anchor="middle" x="2071.47" y="-258.3" font-family="Arial" font-size="14.00">Suggest clear labels to depict cause and effect</text>
</g>
<!-- n9&#45;&gt;n10 -->
<g id="edge12" class="edge">
<title>n9&#45;&gt;n10</title>
<path fill="none" stroke="black" d="M2071.47,-365.81C2071.47,-346.11 2071.47,-313.58 2071.47,-290.39"/>
<polygon fill="black" stroke="black" points="2074.97,-290.16 2071.47,-280.16 2067.97,-290.16 2074.97,-290.16"/>
</g>
</g>
</svg>
