<?xml version="1.0" encoding="UTF-8" standalone="no"?>
<!DOCTYPE svg PUBLIC "-//W3C//DTD SVG 1.1//EN"
 "http://www.w3.org/Graphics/SVG/1.1/DTD/svg11.dtd">
<!-- Generated by graphviz version 2.43.0 (0)
 -->
<!-- Pages: 1 -->
<svg width="1490pt" height="410pt"
 viewBox="0.00 0.00 1489.50 410.00" xmlns="http://www.w3.org/2000/svg" xmlns:xlink="http://www.w3.org/1999/xlink">
<g id="graph0" class="graph" transform="scale(1 1) rotate(0) translate(4 406)">
<polygon fill="white" stroke="transparent" points="-4,4 -4,-406 1485.5,-406 1485.5,4 -4,4"/>
<!-- n1 -->
<g id="node1" class="node">
<title>n1</title>
<polygon fill="lightblue" stroke="black" points="599.32,-384 476.91,-402 232.09,-402 109.68,-384 232.09,-366 476.91,-366 599.32,-384"/>
<text text-anchor="middle" x="354.5" y="-380.3" font-family="Arial" font-size="14.00">Draw a habitat and the different living things in each</text>
</g>
<!-- n2 -->
<g id="node2" class="node">
<title>n2</title>
<polygon fill="#fffdd0" stroke="black" points="666,-280 399,-280 399,-244 666,-244 666,-280"/>
<text text-anchor="middle" x="532.5" y="-258.3" font-family="Arial" font-size="14.00">A garden with unlabeled trees and flowers</text>
</g>
<!-- n1&#45;&gt;n2 -->
<g id="edge1" class="edge">
<title>n1&#45;&gt;n2</title>
<path fill="none" stroke="black" d="M380,-365.81C411.19,-344.78 464.1,-309.11 498.67,-285.8"/>
<polygon fill="black" stroke="black" points="500.7,-288.65 507.04,-280.16 496.79,-282.85 500.7,-288.65"/>
</g>
<!-- n3 -->
<g id="node3" class="node">
<title>n3</title>
<polygon fill="#fffdd0" stroke="black" points="286.5,-280 176.5,-280 176.5,-244 286.5,-244 286.5,-280"/>
<text text-anchor="middle" x="231.5" y="-258.3" font-family="Arial" font-size="14.00">Unlabeled bugs</text>
</g>
<!-- n1&#45;&gt;n3 -->
<g id="edge2" class="edge">
<title>n1&#45;&gt;n3</title>
<path fill="none" stroke="black" d="M336.87,-365.81C315.78,-345.22 280.3,-310.61 256.41,-287.3"/>
<polygon fill="black" stroke="black" points="258.69,-284.64 249.09,-280.16 253.8,-289.65 258.69,-284.64"/>
</g>
<!-- n4 -->
<g id="node4" class="node">
<title>n4</title>
<path fill="palegreen" stroke="black" d="M640,-158C640,-158 425,-158 425,-158 419,-158 413,-152 413,-146 413,-146 413,-134 413,-134 413,-128 419,-122 425,-122 425,-122 640,-122 640,-122 646,-122 652,-128 652,-134 652,-134 652,-146 652,-146 652,-152 646,-158 640,-158"/>
<text text-anchor="middle" x="532.5" y="-136.3" font-family="Arial" font-size="14.00">Basic understanding of a land habitat</text>
</g>
<!-- n2&#45;&gt;n4 -->
<g id="edge3" class="edge">
<title>n2&#45;&gt;n4</title>
<path fill="none" stroke="black" d="M532.5,-243.81C532.5,-224.11 532.5,-191.58 532.5,-168.39"/>
<polygon fill="black" stroke="black" points="536,-168.16 532.5,-158.16 529,-168.16 536,-168.16"/>
</g>
<!-- n5 -->
<g id="node5" class="node">
<title>n5</title>
<polygon fill="lightcoral" stroke="black" points="177.5,-158 0,-140 177.5,-122 355,-140 177.5,-158"/>
<text text-anchor="middle" x="177.5" y="-136.3" font-family="Arial" font-size="14.00">Lack of labels for living things</text>
</g>
<!-- n2&#45;&gt;n5 -->
<g id="edge4" class="edge">
<title>n2&#45;&gt;n5</title>
<path fill="none" stroke="black" d="M482.01,-243.93C413.77,-220.87 292.95,-180.03 225.83,-157.34"/>
<polygon fill="black" stroke="black" points="226.93,-154.02 216.34,-154.13 224.69,-160.65 226.93,-154.02"/>
</g>
<!-- n6 -->
<g id="node6" class="node">
<title>n6</title>
<polygon fill="lightcoral" stroke="black" points="860.5,-158 709.52,-140 860.5,-122 1011.48,-140 860.5,-158"/>
<text text-anchor="middle" x="860.5" y="-136.3" font-family="Arial" font-size="14.00">No water features drawn</text>
</g>
<!-- n2&#45;&gt;n6 -->
<g id="edge5" class="edge">
<title>n2&#45;&gt;n6</title>
<path fill="none" stroke="black" d="M579.14,-243.93C642.1,-220.9 753.51,-180.14 815.57,-157.44"/>
<polygon fill="black" stroke="black" points="816.91,-160.68 825.09,-153.95 814.5,-154.11 816.91,-160.68"/>
</g>
<!-- n7 -->
<g id="node7" class="node">
<title>n7</title>
<polygon fill="lightcoral" stroke="black" points="1275.5,-158 1069.5,-140 1275.5,-122 1481.5,-140 1275.5,-158"/>
<text text-anchor="middle" x="1275.5" y="-136.3" font-family="Arial" font-size="14.00">Random placement of living things</text>
</g>
<!-- n2&#45;&gt;n7 -->
<g id="edge6" class="edge">
<title>n2&#45;&gt;n7</title>
<path fill="none" stroke="black" d="M637.77,-244C788.47,-219.66 1062.3,-175.43 1196.7,-153.72"/>
<polygon fill="black" stroke="black" points="1197.68,-157.11 1207,-152.07 1196.57,-150.2 1197.68,-157.11"/>
</g>
<!-- n3&#45;&gt;n5 -->
<g id="edge7" class="edge">
<title>n3&#45;&gt;n5</title>
<path fill="none" stroke="black" d="M223.76,-243.81C214.68,-223.62 199.52,-189.94 189.05,-166.66"/>
<polygon fill="black" stroke="black" points="192.17,-165.07 184.87,-157.39 185.79,-167.94 192.17,-165.07"/>
</g>
<!-- n8 -->
<g id="node8" class="node">
<title>n8</title>
<polygon fill="#f28e8e" stroke="black" points="285,-36 70,-36 70,0 285,0 285,-36"/>
<text text-anchor="middle" x="177.5" y="-14.3" font-family="Arial" font-size="14.00">Add labels to trees, flowers, bugs</text>
</g>
<!-- n5&#45;&gt;n8 -->
<g id="edge8" class="edge">
<title>n5&#45;&gt;n8</title>
<path fill="none" stroke="black" d="M177.5,-121.81C177.5,-102.11 177.5,-69.58 177.5,-46.39"/>
<polygon fill="black" stroke="black" points="181,-46.16 177.5,-36.16 174,-46.16 181,-46.16"/>
</g>
<!-- n9 -->
<g id="node9" class="node">
<title>n9</title>
<polygon fill="#f28e8e" stroke="black" points="971,-36 750,-36 750,0 971,0 971,-36"/>
<text text-anchor="middle" x="860.5" y="-14.3" font-family="Arial" font-size="14.00">Encourage drawing water habitats</text>
</g>
<!-- n6&#45;&gt;n9 -->
<g id="edge9" class="edge">
<title>n6&#45;&gt;n9</title>
<path fill="none" stroke="black" d="M860.5,-121.81C860.5,-102.11 860.5,-69.58 860.5,-46.39"/>
<polygon fill="black" stroke="black" points="864,-46.16 860.5,-36.16 857,-46.16 864,-46.16"/>
</g>
<!-- n10 -->
<g id="node10" class="node">
<title>n10</title>
<polygon fill="#f28e8e" stroke="black" points="1411.5,-36 1139.5,-36 1139.5,0 1411.5,0 1411.5,-36"/>
<text text-anchor="middle" x="1275.5" y="-14.3" font-family="Arial" font-size="14.00">Organize living things in their typical zones</text>
</g>
<!-- n7&#45;&gt;n10 -->
<g id="edge10" class="edge">
<title>n7&#45;&gt;n10</title>
<path fill="none" stroke="black" d="M1275.5,-121.81C1275.5,-102.11 1275.5,-69.58 1275.5,-46.39"/>
<polygon fill="black" stroke="black" points="1279,-46.16 1275.5,-36.16 1272,-46.16 1279,-46.16"/>
</g>
</g>
</svg>
