<?xml version="1.0" encoding="UTF-8" standalone="no"?>
<!DOCTYPE svg PUBLIC "-//W3C//DTD SVG 1.1//EN"
 "http://www.w3.org/Graphics/SVG/1.1/DTD/svg11.dtd">
<!-- Generated by graphviz version 2.43.0 (0)
 -->
<!-- Pages: 1 -->
<svg width="1766pt" height="410pt"
 viewBox="0.00 0.00 1765.53 410.00" xmlns="http://www.w3.org/2000/svg" xmlns:xlink="http://www.w3.org/1999/xlink">
<g id="graph0" class="graph" transform="scale(1 1) rotate(0) translate(4 406)">
<polygon fill="white" stroke="transparent" points="-4,4 -4,-406 1761.53,-406 1761.53,4 -4,4"/>
<!-- n1 -->
<g id="node1" class="node">
<title>n1</title>
<polygon fill="lightblue" stroke="black" points="1248.37,-384 1105.69,-402 820.31,-402 677.63,-384 820.31,-366 1105.69,-366 1248.37,-384"/>
<text text-anchor="middle" x="963" y="-380.3" font-family="Arial" font-size="14.00">Draw animals in their habitats with labels (e.g., fish in water).</text>
</g>
<!-- n2 -->
<g id="node2" class="node">
<title>n2</title>
<polygon fill="#fffdd0" stroke="black" points="393.5,-280 204.5,-280 204.5,-244 393.5,-244 393.5,-280"/>
<text text-anchor="middle" x="299" y="-258.3" font-family="Arial" font-size="14.00">A big blue circle labeled &#39;fish&#39;</text>
</g>
<!-- n1&#45;&gt;n2 -->
<g id="edge1" class="edge">
<title>n1&#45;&gt;n2</title>
<path fill="none" stroke="black" d="M868.92,-366C745.96,-343.78 531.27,-304.98 403.41,-281.87"/>
<polygon fill="black" stroke="black" points="403.67,-278.36 393.21,-280.03 402.43,-285.25 403.67,-278.36"/>
</g>
<!-- n3 -->
<g id="node3" class="node">
<title>n3</title>
<polygon fill="#fffdd0" stroke="black" points="690.5,-280 513.5,-280 513.5,-244 690.5,-244 690.5,-280"/>
<text text-anchor="middle" x="602" y="-258.3" font-family="Arial" font-size="14.00">Green wavy lines for water</text>
</g>
<!-- n1&#45;&gt;n3 -->
<g id="edge2" class="edge">
<title>n1&#45;&gt;n3</title>
<path fill="none" stroke="black" d="M911.66,-365.93C846.03,-344.12 732.57,-306.4 662.72,-283.18"/>
<polygon fill="black" stroke="black" points="663.75,-279.84 653.16,-280.01 661.55,-286.48 663.75,-279.84"/>
</g>
<!-- n4 -->
<g id="node4" class="node">
<title>n4</title>
<polygon fill="#fffdd0" stroke="black" points="1076.5,-280 849.5,-280 849.5,-244 1076.5,-244 1076.5,-280"/>
<text text-anchor="middle" x="963" y="-258.3" font-family="Arial" font-size="14.00">A purple tall rectangle labeled &#39;tree&#39;</text>
</g>
<!-- n1&#45;&gt;n4 -->
<g id="edge3" class="edge">
<title>n1&#45;&gt;n4</title>
<path fill="none" stroke="black" d="M963,-365.81C963,-346.11 963,-313.58 963,-290.39"/>
<polygon fill="black" stroke="black" points="966.5,-290.16 963,-280.16 959.5,-290.16 966.5,-290.16"/>
</g>
<!-- n5 -->
<g id="node5" class="node">
<title>n5</title>
<polygon fill="#fffdd0" stroke="black" points="1378.5,-280 1137.5,-280 1137.5,-244 1378.5,-244 1378.5,-280"/>
<text text-anchor="middle" x="1258" y="-258.3" font-family="Arial" font-size="14.00">An orange circle representing the sun</text>
</g>
<!-- n1&#45;&gt;n5 -->
<g id="edge4" class="edge">
<title>n1&#45;&gt;n5</title>
<path fill="none" stroke="black" d="M1005,-365.93C1058,-344.34 1149.4,-307.17 1206.6,-283.9"/>
<polygon fill="black" stroke="black" points="1208.25,-287.01 1216.2,-280.01 1205.62,-280.52 1208.25,-287.01"/>
</g>
<!-- n6 -->
<g id="node6" class="node">
<title>n6</title>
<polygon fill="#fffdd0" stroke="black" points="1743,-280 1439,-280 1439,-244 1743,-244 1743,-280"/>
<text text-anchor="middle" x="1591" y="-258.3" font-family="Arial" font-size="14.00">A red stick&#45;figure human above the fish and tree</text>
</g>
<!-- n1&#45;&gt;n6 -->
<g id="edge5" class="edge">
<title>n1&#45;&gt;n6</title>
<path fill="none" stroke="black" d="M1052,-366C1168.2,-343.8 1370.9,-305.05 1491.9,-281.94"/>
<polygon fill="black" stroke="black" points="1492.73,-285.34 1501.9,-280.03 1491.42,-278.47 1492.73,-285.34"/>
</g>
<!-- n7 -->
<g id="node7" class="node">
<title>n7</title>
<polygon fill="lightcoral" stroke="black" points="137,-158 17.5,-140 137,-122 256.5,-140 137,-158"/>
<text text-anchor="middle" x="137" y="-136.3" font-family="Arial" font-size="14.00">Fish being in water</text>
</g>
<!-- n2&#45;&gt;n7 -->
<g id="edge6" class="edge">
<title>n2&#45;&gt;n7</title>
<path fill="none" stroke="black" d="M275.79,-243.81C246.36,-222.01 195.69,-184.48 164.4,-161.3"/>
<polygon fill="black" stroke="black" points="166.24,-158.31 156.12,-155.16 162.07,-163.93 166.24,-158.31"/>
</g>
<!-- n8 -->
<g id="node8" class="node">
<title>n8</title>
<polygon fill="lightcoral" stroke="black" points="502,-158 314.48,-140 502,-122 689.52,-140 502,-158"/>
<text text-anchor="middle" x="502" y="-136.3" font-family="Arial" font-size="14.00">Water incorrectly colored green</text>
</g>
<!-- n3&#45;&gt;n8 -->
<g id="edge7" class="edge">
<title>n3&#45;&gt;n8</title>
<path fill="none" stroke="black" d="M587.67,-243.81C570.38,-223.05 541.2,-188.04 521.77,-164.73"/>
<polygon fill="black" stroke="black" points="524.43,-162.45 515.34,-157.01 519.05,-166.93 524.43,-162.45"/>
</g>
<!-- n9 -->
<g id="node9" class="node">
<title>n9</title>
<polygon fill="lightcoral" stroke="black" points="963,-158 747.83,-140 963,-122 1178.17,-140 963,-158"/>
<text text-anchor="middle" x="963" y="-136.3" font-family="Arial" font-size="14.00">Tree in habitat (incorrect placement)</text>
</g>
<!-- n4&#45;&gt;n9 -->
<g id="edge8" class="edge">
<title>n4&#45;&gt;n9</title>
<path fill="none" stroke="black" d="M963,-243.81C963,-224.11 963,-191.58 963,-168.39"/>
<polygon fill="black" stroke="black" points="966.5,-168.16 963,-158.16 959.5,-168.16 966.5,-168.16"/>
</g>
<!-- n10 -->
<g id="node10" class="node">
<title>n10</title>
<path fill="palegreen" stroke="black" d="M1358,-158C1358,-158 1248,-158 1248,-158 1242,-158 1236,-152 1236,-146 1236,-146 1236,-134 1236,-134 1236,-128 1242,-122 1248,-122 1248,-122 1358,-122 1358,-122 1364,-122 1370,-128 1370,-134 1370,-134 1370,-146 1370,-146 1370,-152 1364,-158 1358,-158"/>
<text text-anchor="middle" x="1303" y="-136.3" font-family="Arial" font-size="14.00">Sun colored orange</text>
</g>
<!-- n5&#45;&gt;n10 -->
<g id="edge9" class="edge">
<title>n5&#45;&gt;n10</title>
<path fill="none" stroke="black" d="M1264.4,-243.81C1271.9,-223.94 1284.3,-190.99 1293,-167.76"/>
<polygon fill="black" stroke="black" points="1296.37,-168.75 1296.6,-158.16 1289.81,-166.29 1296.37,-168.75"/>
</g>
<!-- n11 -->
<g id="node11" class="node">
<title>n11</title>
<polygon fill="lightcoral" stroke="black" points="1593,-158 1428.44,-140 1593,-122 1757.56,-140 1593,-158"/>
<text text-anchor="middle" x="1593" y="-136.3" font-family="Arial" font-size="14.00">Humans float above nature</text>
</g>
<!-- n6&#45;&gt;n11 -->
<g id="edge10" class="edge">
<title>n6&#45;&gt;n11</title>
<path fill="none" stroke="black" d="M1591.3,-243.81C1591.6,-224.11 1592.2,-191.58 1592.5,-168.39"/>
<polygon fill="black" stroke="black" points="1596,-168.23 1592.7,-158.16 1589.01,-168.09 1596,-168.23"/>
</g>
<!-- n12 -->
<g id="node12" class="node">
<title>n12</title>
<polygon fill="#f28e8e" stroke="black" points="274,-36 0,-36 0,0 274,0 274,-36"/>
<text text-anchor="middle" x="137" y="-14.3" font-family="Arial" font-size="14.00">Provide more context on fish living in water</text>
</g>
<!-- n7&#45;&gt;n12 -->
<g id="edge11" class="edge">
<title>n7&#45;&gt;n12</title>
<path fill="none" stroke="black" d="M137,-121.81C137,-102.11 137,-69.58 137,-46.39"/>
<polygon fill="black" stroke="black" points="140.5,-46.16 137,-36.16 133.5,-46.16 140.5,-46.16"/>
</g>
<!-- n13 -->
<g id="node13" class="node">
<title>n13</title>
<polygon fill="#f28e8e" stroke="black" points="565,-36 439,-36 439,0 565,0 565,-36"/>
<text text-anchor="middle" x="502" y="-14.3" font-family="Arial" font-size="14.00">Use blue for water</text>
</g>
<!-- n8&#45;&gt;n13 -->
<g id="edge12" class="edge">
<title>n8&#45;&gt;n13</title>
<path fill="none" stroke="black" d="M502,-121.81C502,-102.11 502,-69.58 502,-46.39"/>
<polygon fill="black" stroke="black" points="505.5,-46.16 502,-36.16 498.5,-46.16 505.5,-46.16"/>
</g>
<!-- n14 -->
<g id="node14" class="node">
<title>n14</title>
<polygon fill="#f28e8e" stroke="black" points="1091,-36 835,-36 835,0 1091,0 1091,-36"/>
<text text-anchor="middle" x="963" y="-14.3" font-family="Arial" font-size="14.00">Explain how trees grow from the ground</text>
</g>
<!-- n9&#45;&gt;n14 -->
<g id="edge13" class="edge">
<title>n9&#45;&gt;n14</title>
<path fill="none" stroke="black" d="M963,-121.81C963,-102.11 963,-69.58 963,-46.39"/>
<polygon fill="black" stroke="black" points="966.5,-46.16 963,-36.16 959.5,-46.16 966.5,-46.16"/>
</g>
<!-- n15 -->
<g id="node15" class="node">
<title>n15</title>
<polygon fill="#f28e8e" stroke="black" points="1714,-36 1472,-36 1472,0 1714,0 1714,-36"/>
<text text-anchor="middle" x="1593" y="-14.3" font-family="Arial" font-size="14.00">Explain human interaction with nature</text>
</g>
<!-- n11&#45;&gt;n15 -->
<g id="edge14" class="edge">
<title>n11&#45;&gt;n15</title>
<path fill="none" stroke="black" d="M1593,-121.81C1593,-102.11 1593,-69.58 1593,-46.39"/>
<polygon fill="black" stroke="black" points="1596.5,-46.16 1593,-36.16 1589.5,-46.16 1596.5,-46.16"/>
</g>
</g>
</svg>
