<?xml version="1.0" encoding="UTF-8" standalone="no"?>
<!DOCTYPE svg PUBLIC "-//W3C//DTD SVG 1.1//EN"
 "http://www.w3.org/Graphics/SVG/1.1/DTD/svg11.dtd">
<!-- Generated by graphviz version 2.43.0 (0)
 -->
<!-- Pages: 1 -->
<svg width="838pt" height="410pt"
 viewBox="0.00 0.00 837.53 410.00" xmlns="http://www.w3.org/2000/svg" xmlns:xlink="http://www.w3.org/1999/xlink">
<g id="graph0" class="graph" transform="scale(1 1) rotate(0) translate(4 406)">
<polygon fill="white" stroke="transparent" points="-4,4 -4,-406 833.53,-406 833.53,4 -4,4"/>
<!-- n1 -->
<g id="node1" class="node">
<title>n1</title>
<polygon fill="lightblue" stroke="black" points="579.5,-384 465.75,-402 238.25,-402 124.5,-384 238.25,-366 465.75,-366 579.5,-384"/>
<text text-anchor="middle" x="352" y="-380.3" font-family="Arial" font-size="14.00">Illustrate plants with and without water and light.</text>
</g>
<!-- n2 -->
<g id="node2" class="node">
<title>n2</title>
<polygon fill="#fffdd0" stroke="black" points="354.5,-280 9.5,-280 9.5,-244 354.5,-244 354.5,-280"/>
<text text-anchor="middle" x="182" y="-258.3" font-family="Arial" font-size="14.00">Plant with green leaves and wavy yellow and blue lines</text>
</g>
<!-- n1&#45;&gt;n2 -->
<g id="edge1" class="edge">
<title>n1&#45;&gt;n2</title>
<path fill="none" stroke="black" d="M327.64,-365.81C297.98,-344.87 247.75,-309.41 214.73,-286.1"/>
<polygon fill="black" stroke="black" points="216.5,-283.06 206.31,-280.16 212.46,-288.78 216.5,-283.06"/>
</g>
<!-- n3 -->
<g id="node3" class="node">
<title>n3</title>
<polygon fill="#fffdd0" stroke="black" points="657,-280 439,-280 439,-244 657,-244 657,-280"/>
<text text-anchor="middle" x="548" y="-258.3" font-family="Arial" font-size="14.00">Plant with sad face, no wavy lines</text>
</g>
<!-- n1&#45;&gt;n3 -->
<g id="edge2" class="edge">
<title>n1&#45;&gt;n3</title>
<path fill="none" stroke="black" d="M380.08,-365.81C414.58,-344.69 473.18,-308.81 511.24,-285.51"/>
<polygon fill="black" stroke="black" points="513.27,-288.37 519.97,-280.16 509.61,-282.4 513.27,-288.37"/>
</g>
<!-- n4 -->
<g id="node4" class="node">
<title>n4</title>
<path fill="palegreen" stroke="black" d="M248,-158C248,-158 12,-158 12,-158 6,-158 0,-152 0,-146 0,-146 0,-134 0,-134 0,-128 6,-122 12,-122 12,-122 248,-122 248,-122 254,-122 260,-128 260,-134 260,-134 260,-146 260,-146 260,-152 254,-158 248,-158"/>
<text text-anchor="middle" x="130" y="-136.3" font-family="Arial" font-size="14.00">Plants need water and light to be healthy</text>
</g>
<!-- n2&#45;&gt;n4 -->
<g id="edge3" class="edge">
<title>n2&#45;&gt;n4</title>
<path fill="none" stroke="black" d="M174.55,-243.81C165.9,-223.85 151.54,-190.7 141.46,-167.45"/>
<polygon fill="black" stroke="black" points="144.62,-165.95 137.44,-158.16 138.2,-168.73 144.62,-165.95"/>
</g>
<!-- n5 -->
<g id="node5" class="node">
<title>n5</title>
<polygon fill="lightcoral" stroke="black" points="574,-158 318.45,-140 574,-122 829.55,-140 574,-158"/>
<text text-anchor="middle" x="574" y="-136.3" font-family="Arial" font-size="14.00">Lack of essentials causes sadness in plants</text>
</g>
<!-- n3&#45;&gt;n5 -->
<g id="edge4" class="edge">
<title>n3&#45;&gt;n5</title>
<path fill="none" stroke="black" d="M551.73,-243.81C556.04,-223.91 563.18,-190.92 568.22,-167.68"/>
<polygon fill="black" stroke="black" points="571.67,-168.28 570.37,-157.77 564.83,-166.8 571.67,-168.28"/>
</g>
<!-- n6 -->
<g id="node6" class="node">
<title>n6</title>
<polygon fill="#f28e8e" stroke="black" points="711.5,-36 436.5,-36 436.5,0 711.5,0 711.5,-36"/>
<text text-anchor="middle" x="574" y="-14.3" font-family="Arial" font-size="14.00">Explain plant needs based on visible health</text>
</g>
<!-- n5&#45;&gt;n6 -->
<g id="edge5" class="edge">
<title>n5&#45;&gt;n6</title>
<path fill="none" stroke="black" d="M574,-121.81C574,-102.11 574,-69.58 574,-46.39"/>
<polygon fill="black" stroke="black" points="577.5,-46.16 574,-36.16 570.5,-46.16 577.5,-46.16"/>
</g>
</g>
</svg>
