<?xml version="1.0" encoding="UTF-8" standalone="no"?>
<!DOCTYPE svg PUBLIC "-//W3C//DTD SVG 1.1//EN"
 "http://www.w3.org/Graphics/SVG/1.1/DTD/svg11.dtd">
<!-- Generated by graphviz version 2.43.0 (0)
 -->
<!-- Pages: 1 -->
<svg width="1448pt" height="410pt"
 viewBox="0.00 0.00 1447.50 410.00" xmlns="http://www.w3.org/2000/svg" xmlns:xlink="http://www.w3.org/1999/xlink">
<g id="graph0" class="graph" transform="scale(1 1) rotate(0) translate(4 406)">
<polygon fill="white" stroke="transparent" points="-4,4 -4,-406 1443.5,-406 1443.5,4 -4,4"/>
<!-- n1 -->
<g id="node1" class="node">
<title>n1</title>
<polygon fill="lightblue" stroke="black" points="944,-384 832.5,-402 609.5,-402 498,-384 609.5,-366 832.5,-366 944,-384"/>
<text text-anchor="middle" x="721" y="-380.3" font-family="Arial" font-size="14.00">Draw a string telephone between two students.</text>
</g>
<!-- n2 -->
<g id="node2" class="node">
<title>n2</title>
<polygon fill="#fffdd0" stroke="black" points="247.5,-280 42.5,-280 42.5,-244 247.5,-244 247.5,-280"/>
<text text-anchor="middle" x="145" y="-258.3" font-family="Arial" font-size="14.00">Two students standing far apart</text>
</g>
<!-- n1&#45;&gt;n2 -->
<g id="edge1" class="edge">
<title>n1&#45;&gt;n2</title>
<path fill="none" stroke="black" d="M639.39,-366C533.05,-343.84 347.61,-305.21 236.57,-282.08"/>
<polygon fill="black" stroke="black" points="237.23,-278.64 226.73,-280.03 235.81,-285.5 237.23,-278.64"/>
</g>
<!-- n3 -->
<g id="node3" class="node">
<title>n3</title>
<polygon fill="#fffdd0" stroke="black" points="517.5,-280 314.5,-280 314.5,-244 517.5,-244 517.5,-280"/>
<text text-anchor="middle" x="416" y="-258.3" font-family="Arial" font-size="14.00">Taut string connecting the cups</text>
</g>
<!-- n1&#45;&gt;n3 -->
<g id="edge2" class="edge">
<title>n1&#45;&gt;n3</title>
<path fill="none" stroke="black" d="M677.62,-365.93C622.63,-344.3 527.88,-307.02 468.76,-283.76"/>
<polygon fill="black" stroke="black" points="469.82,-280.41 459.23,-280.01 467.25,-286.93 469.82,-280.41"/>
</g>
<!-- n4 -->
<g id="node4" class="node">
<title>n4</title>
<polygon fill="#fffdd0" stroke="black" points="866.5,-280 575.5,-280 575.5,-244 866.5,-244 866.5,-280"/>
<text text-anchor="middle" x="721" y="-258.3" font-family="Arial" font-size="14.00">Dashed lines around the string (sound waves)</text>
</g>
<!-- n1&#45;&gt;n4 -->
<g id="edge3" class="edge">
<title>n1&#45;&gt;n4</title>
<path fill="none" stroke="black" d="M721,-365.81C721,-346.11 721,-313.58 721,-290.39"/>
<polygon fill="black" stroke="black" points="724.5,-290.16 721,-280.16 717.5,-290.16 724.5,-290.16"/>
</g>
<!-- n5 -->
<g id="node5" class="node">
<title>n5</title>
<polygon fill="#fffdd0" stroke="black" points="1079.5,-280 924.5,-280 924.5,-244 1079.5,-244 1079.5,-280"/>
<text text-anchor="middle" x="1002" y="-258.3" font-family="Arial" font-size="14.00">Labels: cups and string</text>
</g>
<!-- n1&#45;&gt;n5 -->
<g id="edge4" class="edge">
<title>n1&#45;&gt;n5</title>
<path fill="none" stroke="black" d="M760.96,-365.93C811.42,-344.39 898.21,-307.32 952.72,-284.04"/>
<polygon fill="black" stroke="black" points="954.35,-287.15 962.18,-280.01 951.61,-280.71 954.35,-287.15"/>
</g>
<!-- n6 -->
<g id="node6" class="node">
<title>n6</title>
<polygon fill="#fffdd0" stroke="black" points="1356,-280 1138,-280 1138,-244 1356,-244 1356,-280"/>
<text text-anchor="middle" x="1247" y="-258.3" font-family="Arial" font-size="14.00">Neat, detailed drawing with colors</text>
</g>
<!-- n1&#45;&gt;n6 -->
<g id="edge5" class="edge">
<title>n1&#45;&gt;n6</title>
<path fill="none" stroke="black" d="M795.53,-366C892.35,-343.91 1061,-305.44 1162.5,-282.29"/>
<polygon fill="black" stroke="black" points="1163.43,-285.67 1172.4,-280.03 1161.87,-278.84 1163.43,-285.67"/>
</g>
<!-- n7 -->
<g id="node7" class="node">
<title>n7</title>
<path fill="palegreen" stroke="black" d="M244,-158C244,-158 12,-158 12,-158 6,-158 0,-152 0,-146 0,-146 0,-134 0,-134 0,-128 6,-122 12,-122 12,-122 244,-122 244,-122 250,-122 256,-128 256,-134 256,-134 256,-146 256,-146 256,-152 250,-158 244,-158"/>
<text text-anchor="middle" x="128" y="-136.3" font-family="Arial" font-size="14.00">Communicates over distance effectively</text>
</g>
<!-- n2&#45;&gt;n7 -->
<g id="edge6" class="edge">
<title>n2&#45;&gt;n7</title>
<path fill="none" stroke="black" d="M142.56,-243.81C139.76,-224.02 135.12,-191.29 131.84,-168.08"/>
<polygon fill="black" stroke="black" points="135.3,-167.57 130.43,-158.16 128.37,-168.55 135.3,-167.57"/>
</g>
<!-- n8 -->
<g id="node8" class="node">
<title>n8</title>
<path fill="palegreen" stroke="black" d="M524,-158C524,-158 326,-158 326,-158 320,-158 314,-152 314,-146 314,-146 314,-134 314,-134 314,-128 320,-122 326,-122 326,-122 524,-122 524,-122 530,-122 536,-128 536,-134 536,-134 536,-146 536,-146 536,-152 530,-158 524,-158"/>
<text text-anchor="middle" x="425" y="-136.3" font-family="Arial" font-size="14.00">Demonstrates sound transmission</text>
</g>
<!-- n3&#45;&gt;n8 -->
<g id="edge7" class="edge">
<title>n3&#45;&gt;n8</title>
<path fill="none" stroke="black" d="M417.29,-243.81C418.77,-224.11 421.21,-191.58 422.95,-168.39"/>
<polygon fill="black" stroke="black" points="426.46,-168.39 423.71,-158.16 419.48,-167.87 426.46,-168.39"/>
</g>
<!-- n9 -->
<g id="node9" class="node">
<title>n9</title>
<path fill="palegreen" stroke="black" d="M805.5,-158C805.5,-158 636.5,-158 636.5,-158 630.5,-158 624.5,-152 624.5,-146 624.5,-146 624.5,-134 624.5,-134 624.5,-128 630.5,-122 636.5,-122 636.5,-122 805.5,-122 805.5,-122 811.5,-122 817.5,-128 817.5,-134 817.5,-134 817.5,-146 817.5,-146 817.5,-152 811.5,-158 805.5,-158"/>
<text text-anchor="middle" x="721" y="-136.3" font-family="Arial" font-size="14.00">Shows use of sound, not light</text>
</g>
<!-- n4&#45;&gt;n9 -->
<g id="edge8" class="edge">
<title>n4&#45;&gt;n9</title>
<path fill="none" stroke="black" d="M721,-243.81C721,-224.11 721,-191.58 721,-168.39"/>
<polygon fill="black" stroke="black" points="724.5,-168.16 721,-158.16 717.5,-168.16 724.5,-168.16"/>
</g>
<!-- n10 -->
<g id="node10" class="node">
<title>n10</title>
<path fill="palegreen" stroke="black" d="M1105,-158C1105,-158 891,-158 891,-158 885,-158 879,-152 879,-146 879,-146 879,-134 879,-134 879,-128 885,-122 891,-122 891,-122 1105,-122 1105,-122 1111,-122 1117,-128 1117,-134 1117,-134 1117,-146 1117,-146 1117,-152 1111,-158 1105,-158"/>
<text text-anchor="middle" x="998" y="-136.3" font-family="Arial" font-size="14.00">Representation of accurate materials</text>
</g>
<!-- n5&#45;&gt;n10 -->
<g id="edge9" class="edge">
<title>n5&#45;&gt;n10</title>
<path fill="none" stroke="black" d="M1001.4,-243.81C1000.8,-224.11 999.69,-191.58 998.91,-168.39"/>
<polygon fill="black" stroke="black" points="1002.4,-168.04 998.57,-158.16 995.4,-168.27 1002.4,-168.04"/>
</g>
<!-- n11 -->
<g id="node11" class="node">
<title>n11</title>
<polygon fill="lightcoral" stroke="black" points="1307,-158 1174.5,-140 1307,-122 1439.5,-140 1307,-158"/>
<text text-anchor="middle" x="1307" y="-136.3" font-family="Arial" font-size="14.00">Forgets a minor label</text>
</g>
<!-- n5&#45;&gt;n11 -->
<g id="edge10" class="edge">
<title>n5&#45;&gt;n11</title>
<path fill="none" stroke="black" d="M1045.4,-243.93C1103.8,-220.94 1207.2,-180.26 1265,-157.54"/>
<polygon fill="black" stroke="black" points="1266.49,-160.71 1274.5,-153.78 1263.91,-154.21 1266.49,-160.71"/>
</g>
<!-- n12 -->
<g id="node12" class="node">
<title>n12</title>
<polygon fill="#f28e8e" stroke="black" points="1405.5,-36 1208.5,-36 1208.5,0 1405.5,0 1405.5,-36"/>
<text text-anchor="middle" x="1307" y="-14.3" font-family="Arial" font-size="14.00">Ensure all labels are included.</text>
</g>
<!-- n11&#45;&gt;n12 -->
<g id="edge11" class="edge">
<title>n11&#45;&gt;n12</title>
<path fill="none" stroke="black" d="M1307,-121.81C1307,-102.11 1307,-69.58 1307,-46.39"/>
<polygon fill="black" stroke="black" points="1310.5,-46.16 1307,-36.16 1303.5,-46.16 1310.5,-46.16"/>
</g>
</g>
</svg>
