<?xml version="1.0" encoding="UTF-8" standalone="no"?>
<!DOCTYPE svg PUBLIC "-//W3C//DTD SVG 1.1//EN"
 "http://www.w3.org/Graphics/SVG/1.1/DTD/svg11.dtd">
<!-- Generated by graphviz version 2.43.0 (0)
 -->
<!-- Pages: 1 -->
<svg width="1440pt" height="410pt"
 viewBox="0.00 0.00 1440.03 410.00" xmlns="http://www.w3.org/2000/svg" xmlns:xlink="http://www.w3.org/1999/xlink">
<g id="graph0" class="graph" transform="scale(1 1) rotate(0) translate(4 406)">
<polygon fill="white" stroke="transparent" points="-4,4 -4,-406 1436.03,-406 1436.03,4 -4,4"/>
<!-- n1 -->
<g id="node1" class="node">
<title>n1</title>
<polygon fill="lightblue" stroke="black" points="923,-384 813,-402 593,-402 483,-384 593,-366 813,-366 923,-384"/>
<text text-anchor="middle" x="703" y="-380.3" font-family="Arial" font-size="14.00">Draw a string telephone between two students</text>
</g>
<!-- n2 -->
<g id="node2" class="node">
<title>n2</title>
<polygon fill="#fffdd0" stroke="black" points="529.5,-280 398.5,-280 398.5,-244 529.5,-244 529.5,-280"/>
<text text-anchor="middle" x="464" y="-258.3" font-family="Arial" font-size="14.00">Boy with cup to ear</text>
</g>
<!-- n1&#45;&gt;n2 -->
<g id="edge1" class="edge">
<title>n1&#45;&gt;n2</title>
<path fill="none" stroke="black" d="M669.01,-365.93C626.45,-344.57 553.5,-307.94 507.08,-284.63"/>
<polygon fill="black" stroke="black" points="508.39,-281.37 497.88,-280.01 505.25,-287.63 508.39,-281.37"/>
</g>
<!-- n3 -->
<g id="node3" class="node">
<title>n3</title>
<polygon fill="#fffdd0" stroke="black" points="340.5,-280 193.5,-280 193.5,-244 340.5,-244 340.5,-280"/>
<text text-anchor="middle" x="267" y="-258.3" font-family="Arial" font-size="14.00">Girl speaking into cup</text>
</g>
<!-- n1&#45;&gt;n3 -->
<g id="edge2" class="edge">
<title>n1&#45;&gt;n3</title>
<path fill="none" stroke="black" d="M641,-365.93C561.17,-343.96 422.73,-305.86 338.53,-282.69"/>
<polygon fill="black" stroke="black" points="339.36,-279.29 328.79,-280.01 337.5,-286.04 339.36,-279.29"/>
</g>
<!-- n4 -->
<g id="node4" class="node">
<title>n4</title>
<polygon fill="#fffdd0" stroke="black" points="818,-280 588,-280 588,-244 818,-244 818,-280"/>
<text text-anchor="middle" x="703" y="-258.3" font-family="Arial" font-size="14.00">Straight blue string connecting cups</text>
</g>
<!-- n1&#45;&gt;n4 -->
<g id="edge3" class="edge">
<title>n1&#45;&gt;n4</title>
<path fill="none" stroke="black" d="M703,-365.81C703,-346.11 703,-313.58 703,-290.39"/>
<polygon fill="black" stroke="black" points="706.5,-290.16 703,-280.16 699.5,-290.16 706.5,-290.16"/>
</g>
<!-- n5 -->
<g id="node5" class="node">
<title>n5</title>
<polygon fill="#fffdd0" stroke="black" points="1105.5,-280 876.5,-280 876.5,-244 1105.5,-244 1105.5,-280"/>
<text text-anchor="middle" x="991" y="-258.3" font-family="Arial" font-size="14.00">Red arrows indicating sound waves</text>
</g>
<!-- n1&#45;&gt;n5 -->
<g id="edge4" class="edge">
<title>n1&#45;&gt;n5</title>
<path fill="none" stroke="black" d="M743.96,-365.93C795.78,-344.34 884.99,-307.17 940.84,-283.9"/>
<polygon fill="black" stroke="black" points="942.3,-287.08 950.19,-280.01 939.61,-280.62 942.3,-287.08"/>
</g>
<!-- n6 -->
<g id="node6" class="node">
<title>n6</title>
<polygon fill="#fffdd0" stroke="black" points="1432.03,-280 1164.03,-280 1164.03,-244 1432.03,-244 1432.03,-280"/>
<text text-anchor="middle" x="1298.03" y="-258.3" font-family="Arial" font-size="14.00">Contextual setting: grassy field, sunny sky</text>
</g>
<!-- n1&#45;&gt;n6 -->
<g id="edge5" class="edge">
<title>n1&#45;&gt;n6</title>
<path fill="none" stroke="black" d="M787.31,-366C897.27,-343.82 1089.13,-305.13 1203.73,-282.01"/>
<polygon fill="black" stroke="black" points="1204.51,-285.42 1213.63,-280.03 1203.14,-278.56 1204.51,-285.42"/>
</g>
<!-- n7 -->
<g id="node7" class="node">
<title>n7</title>
<path fill="palegreen" stroke="black" d="M578,-158C578,-158 346,-158 346,-158 340,-158 334,-152 334,-146 334,-146 334,-134 334,-134 334,-128 340,-122 346,-122 346,-122 578,-122 578,-122 584,-122 590,-128 590,-134 590,-134 590,-146 590,-146 590,-152 584,-158 578,-158"/>
<text text-anchor="middle" x="462" y="-136.3" font-family="Arial" font-size="14.00">Understanding of string telephone setup</text>
</g>
<!-- n2&#45;&gt;n7 -->
<g id="edge6" class="edge">
<title>n2&#45;&gt;n7</title>
<path fill="none" stroke="black" d="M463.72,-243.81C463.39,-224.11 462.85,-191.58 462.46,-168.39"/>
<polygon fill="black" stroke="black" points="465.96,-168.1 462.29,-158.16 458.96,-168.22 465.96,-168.1"/>
</g>
<!-- n3&#45;&gt;n7 -->
<g id="edge7" class="edge">
<title>n3&#45;&gt;n7</title>
<path fill="none" stroke="black" d="M294.94,-243.81C329.26,-222.69 387.57,-186.81 425.43,-163.51"/>
<polygon fill="black" stroke="black" points="427.44,-166.38 434.12,-158.16 423.77,-160.42 427.44,-166.38"/>
</g>
<!-- n10 -->
<g id="node8" class="node">
<title>n10</title>
<polygon fill="lightcoral" stroke="black" points="138,-158 0,-140 138,-122 276,-140 138,-158"/>
<text text-anchor="middle" x="138" y="-136.3" font-family="Arial" font-size="14.00">Lack of labels on cups</text>
</g>
<!-- n3&#45;&gt;n10 -->
<g id="edge8" class="edge">
<title>n3&#45;&gt;n10</title>
<path fill="none" stroke="black" d="M248.52,-243.81C225.76,-222.64 187.06,-186.63 162.02,-163.34"/>
<polygon fill="black" stroke="black" points="164.12,-160.51 154.41,-156.26 159.35,-165.63 164.12,-160.51"/>
</g>
<!-- n8 -->
<g id="node9" class="node">
<title>n8</title>
<path fill="palegreen" stroke="black" d="M686.5,-36C686.5,-36 453.5,-36 453.5,-36 447.5,-36 441.5,-30 441.5,-24 441.5,-24 441.5,-12 441.5,-12 441.5,-6 447.5,0 453.5,0 453.5,0 686.5,0 686.5,0 692.5,0 698.5,-6 698.5,-12 698.5,-12 698.5,-24 698.5,-24 698.5,-30 692.5,-36 686.5,-36"/>
<text text-anchor="middle" x="570" y="-14.3" font-family="Arial" font-size="14.00">Illustration of sound travel through string</text>
</g>
<!-- n4&#45;&gt;n8 -->
<g id="edge9" class="edge">
<title>n4&#45;&gt;n8</title>
<path fill="none" stroke="black" d="M693.65,-243.98C670.77,-202.34 611.82,-95.08 584.41,-45.22"/>
<polygon fill="black" stroke="black" points="587.4,-43.4 579.52,-36.32 581.27,-46.77 587.4,-43.4"/>
</g>
<!-- n9 -->
<g id="node10" class="node">
<title>n9</title>
<polygon fill="lightcoral" stroke="black" points="993,-158 765.94,-140 993,-122 1220.06,-140 993,-158"/>
<text text-anchor="middle" x="993" y="-136.3" font-family="Arial" font-size="14.00">Inconsistent indication of sound waves</text>
</g>
<!-- n4&#45;&gt;n9 -->
<g id="edge10" class="edge">
<title>n4&#45;&gt;n9</title>
<path fill="none" stroke="black" d="M744.25,-243.93C798.38,-221.53 893.05,-182.36 948.68,-159.34"/>
<polygon fill="black" stroke="black" points="950.36,-162.43 958.26,-155.38 947.68,-155.97 950.36,-162.43"/>
</g>
<!-- n5&#45;&gt;n9 -->
<g id="edge11" class="edge">
<title>n5&#45;&gt;n9</title>
<path fill="none" stroke="black" d="M991.29,-243.81C991.62,-224.11 992.16,-191.58 992.55,-168.39"/>
<polygon fill="black" stroke="black" points="996.05,-168.22 992.72,-158.16 989.05,-168.1 996.05,-168.22"/>
</g>
<!-- n7&#45;&gt;n8 -->
<g id="edge12" class="edge">
<title>n7&#45;&gt;n8</title>
<path fill="none" stroke="black" d="M477.48,-121.81C495.92,-101.31 526.88,-66.91 547.86,-43.6"/>
<polygon fill="black" stroke="black" points="550.47,-45.93 554.56,-36.16 545.27,-41.25 550.47,-45.93"/>
</g>
<!-- n11 -->
<g id="node11" class="node">
<title>n11</title>
<polygon fill="#f28e8e" stroke="black" points="269,-36 7,-36 7,0 269,0 269,-36"/>
<text text-anchor="middle" x="138" y="-14.3" font-family="Arial" font-size="14.00">Add labels to identify components clearly</text>
</g>
<!-- n10&#45;&gt;n11 -->
<g id="edge13" class="edge">
<title>n10&#45;&gt;n11</title>
<path fill="none" stroke="black" d="M138,-121.81C138,-102.11 138,-69.58 138,-46.39"/>
<polygon fill="black" stroke="black" points="141.5,-46.16 138,-36.16 134.5,-46.16 141.5,-46.16"/>
</g>
<!-- n12 -->
<g id="node12" class="node">
<title>n12</title>
<polygon fill="#f28e8e" stroke="black" points="1103.5,-36 882.5,-36 882.5,0 1103.5,0 1103.5,-36"/>
<text text-anchor="middle" x="993" y="-14.3" font-family="Arial" font-size="14.00">Extend sound waves beyond cups</text>
</g>
<!-- n9&#45;&gt;n12 -->
<g id="edge14" class="edge">
<title>n9&#45;&gt;n12</title>
<path fill="none" stroke="black" d="M993,-121.81C993,-102.11 993,-69.58 993,-46.39"/>
<polygon fill="black" stroke="black" points="996.5,-46.16 993,-36.16 989.5,-46.16 996.5,-46.16"/>
</g>
</g>
</svg>
