<?xml version="1.0" encoding="UTF-8" standalone="no"?>
<!DOCTYPE svg PUBLIC "-//W3C//DTD SVG 1.1//EN"
 "http://www.w3.org/Graphics/SVG/1.1/DTD/svg11.dtd">
<!-- Generated by graphviz version 2.43.0 (0)
 -->
<!-- Pages: 1 -->
<svg width="1593pt" height="288pt"
 viewBox="0.00 0.00 1592.50 288.00" xmlns="http://www.w3.org/2000/svg" xmlns:xlink="http://www.w3.org/1999/xlink">
<g id="graph0" class="graph" transform="scale(1 1) rotate(0) translate(4 284)">
<polygon fill="white" stroke="transparent" points="-4,4 -4,-284 1588.5,-284 1588.5,4 -4,4"/>
<!-- n1 -->
<g id="node1" class="node">
<title>n1</title>
<polygon fill="lightblue" stroke="black" points="854,-262 762.75,-280 580.25,-280 489,-262 580.25,-244 762.75,-244 854,-262"/>
<text text-anchor="middle" x="671.5" y="-258.3" font-family="Arial" font-size="14.00">Draw reversible changes (ice melting)</text>
</g>
<!-- n2 -->
<g id="node2" class="node">
<title>n2</title>
<polygon fill="#fffdd0" stroke="black" points="245,-158 168,-158 168,-122 245,-122 245,-158"/>
<text text-anchor="middle" x="206.5" y="-136.3" font-family="Arial" font-size="14.00">Ice (Solid)</text>
</g>
<!-- n1&#45;&gt;n2 -->
<g id="edge1" class="edge">
<title>n1&#45;&gt;n2</title>
<path fill="none" stroke="black" d="M605.37,-243.93C510.68,-219.5 338.67,-175.11 254.92,-153.5"/>
<polygon fill="black" stroke="black" points="255.72,-150.09 245.16,-150.98 253.97,-156.87 255.72,-150.09"/>
</g>
<!-- n3 -->
<g id="node3" class="node">
<title>n3</title>
<polygon fill="#fffdd0" stroke="black" points="486,-158 385,-158 385,-122 486,-122 486,-158"/>
<text text-anchor="middle" x="435.5" y="-136.3" font-family="Arial" font-size="14.00">Water (Liquid)</text>
</g>
<!-- n1&#45;&gt;n3 -->
<g id="edge2" class="edge">
<title>n1&#45;&gt;n3</title>
<path fill="none" stroke="black" d="M637.94,-243.93C595.91,-222.57 523.88,-185.94 478.03,-162.63"/>
<polygon fill="black" stroke="black" points="479.45,-159.43 468.95,-158.01 476.28,-165.66 479.45,-159.43"/>
</g>
<!-- n4 -->
<g id="node4" class="node">
<title>n4</title>
<polygon fill="#fffdd0" stroke="black" points="798.5,-158 544.5,-158 544.5,-122 798.5,-122 798.5,-158"/>
<text text-anchor="middle" x="671.5" y="-136.3" font-family="Arial" font-size="14.00">Arrow labeled &#39;Melting&#39; with sun symbol</text>
</g>
<!-- n1&#45;&gt;n4 -->
<g id="edge3" class="edge">
<title>n1&#45;&gt;n4</title>
<path fill="none" stroke="black" d="M671.5,-243.81C671.5,-224.11 671.5,-191.58 671.5,-168.39"/>
<polygon fill="black" stroke="black" points="675,-168.16 671.5,-158.16 668,-168.16 675,-168.16"/>
</g>
<!-- n5 -->
<g id="node5" class="node">
<title>n5</title>
<polygon fill="#fffdd0" stroke="black" points="1156.5,-158 856.5,-158 856.5,-122 1156.5,-122 1156.5,-158"/>
<text text-anchor="middle" x="1006.5" y="-136.3" font-family="Arial" font-size="14.00">Arrow labeled &#39;Freezing&#39; with snowflake symbol</text>
</g>
<!-- n1&#45;&gt;n5 -->
<g id="edge4" class="edge">
<title>n1&#45;&gt;n5</title>
<path fill="none" stroke="black" d="M719.14,-243.93C779.79,-222.21 884.48,-184.71 949.36,-161.47"/>
<polygon fill="black" stroke="black" points="950.79,-164.68 959.02,-158.01 948.43,-158.09 950.79,-164.68"/>
</g>
<!-- n10 -->
<g id="node6" class="node">
<title>n10</title>
<polygon fill="lightcoral" stroke="black" points="1399.5,-158 1214.5,-140 1399.5,-122 1584.5,-140 1399.5,-158"/>
<text text-anchor="middle" x="1399.5" y="-136.3" font-family="Arial" font-size="14.00">Missing molecular&#45;level details</text>
</g>
<!-- n1&#45;&gt;n10 -->
<g id="edge5" class="edge">
<title>n1&#45;&gt;n10</title>
<path fill="none" stroke="black" d="M768.17,-245.06C915,-220.86 1191.2,-175.34 1324.1,-153.42"/>
<polygon fill="black" stroke="black" points="1324.9,-156.84 1334.2,-151.76 1323.76,-149.93 1324.9,-156.84"/>
</g>
<!-- n6 -->
<g id="node7" class="node">
<title>n6</title>
<path fill="palegreen" stroke="black" d="M237,-36C237,-36 12,-36 12,-36 6,-36 0,-30 0,-24 0,-24 0,-12 0,-12 0,-6 6,0 12,0 12,0 237,0 237,0 243,0 249,-6 249,-12 249,-12 249,-24 249,-24 249,-30 243,-36 237,-36"/>
<text text-anchor="middle" x="124.5" y="-14.3" font-family="Arial" font-size="14.00">Understands ice is solid before heating</text>
</g>
<!-- n2&#45;&gt;n6 -->
<g id="edge6" class="edge">
<title>n2&#45;&gt;n6</title>
<path fill="none" stroke="black" d="M194.75,-121.81C180.93,-101.58 157.85,-67.81 141.94,-44.52"/>
<polygon fill="black" stroke="black" points="144.76,-42.45 136.23,-36.16 138.98,-46.39 144.76,-42.45"/>
</g>
<!-- n7 -->
<g id="node8" class="node">
<title>n7</title>
<path fill="palegreen" stroke="black" d="M552,-36C552,-36 319,-36 319,-36 313,-36 307,-30 307,-24 307,-24 307,-12 307,-12 307,-6 313,0 319,0 319,0 552,0 552,0 558,0 564,-6 564,-12 564,-12 564,-24 564,-24 564,-30 558,-36 552,-36"/>
<text text-anchor="middle" x="435.5" y="-14.3" font-family="Arial" font-size="14.00">Understands water is liquid after heating</text>
</g>
<!-- n3&#45;&gt;n7 -->
<g id="edge7" class="edge">
<title>n3&#45;&gt;n7</title>
<path fill="none" stroke="black" d="M435.5,-121.81C435.5,-102.11 435.5,-69.58 435.5,-46.39"/>
<polygon fill="black" stroke="black" points="439,-46.16 435.5,-36.16 432,-46.16 439,-46.16"/>
</g>
<!-- n8 -->
<g id="node9" class="node">
<title>n8</title>
<path fill="palegreen" stroke="black" d="M817,-36C817,-36 634,-36 634,-36 628,-36 622,-30 622,-24 622,-24 622,-12 622,-12 622,-6 628,0 634,0 634,0 817,0 817,0 823,0 829,-6 829,-12 829,-12 829,-24 829,-24 829,-30 823,-36 817,-36"/>
<text text-anchor="middle" x="725.5" y="-14.3" font-family="Arial" font-size="14.00">Understands process of melting</text>
</g>
<!-- n4&#45;&gt;n8 -->
<g id="edge8" class="edge">
<title>n4&#45;&gt;n8</title>
<path fill="none" stroke="black" d="M679.24,-121.81C688.22,-101.85 703.14,-68.7 713.6,-45.45"/>
<polygon fill="black" stroke="black" points="716.87,-46.72 717.78,-36.16 710.48,-43.84 716.87,-46.72"/>
</g>
<!-- n9 -->
<g id="node10" class="node">
<title>n9</title>
<path fill="palegreen" stroke="black" d="M1100,-36C1100,-36 913,-36 913,-36 907,-36 901,-30 901,-24 901,-24 901,-12 901,-12 901,-6 907,0 913,0 913,0 1100,0 1100,0 1106,0 1112,-6 1112,-12 1112,-12 1112,-24 1112,-24 1112,-30 1106,-36 1100,-36"/>
<text text-anchor="middle" x="1006.5" y="-14.3" font-family="Arial" font-size="14.00">Understands process of freezing</text>
</g>
<!-- n5&#45;&gt;n9 -->
<g id="edge9" class="edge">
<title>n5&#45;&gt;n9</title>
<path fill="none" stroke="black" d="M1006.5,-121.81C1006.5,-102.11 1006.5,-69.58 1006.5,-46.39"/>
<polygon fill="black" stroke="black" points="1010,-46.16 1006.5,-36.16 1003,-46.16 1010,-46.16"/>
</g>
<!-- n11 -->
<g id="node11" class="node">
<title>n11</title>
<polygon fill="#f28e8e" stroke="black" points="1574.5,-36 1224.5,-36 1224.5,0 1574.5,0 1574.5,-36"/>
<text text-anchor="middle" x="1399.5" y="-14.3" font-family="Arial" font-size="14.00">Include some molecular details for better understanding</text>
</g>
<!-- n10&#45;&gt;n11 -->
<g id="edge10" class="edge">
<title>n10&#45;&gt;n11</title>
<path fill="none" stroke="black" d="M1399.5,-121.81C1399.5,-102.11 1399.5,-69.58 1399.5,-46.39"/>
<polygon fill="black" stroke="black" points="1403,-46.16 1399.5,-36.16 1396,-46.16 1403,-46.16"/>
</g>
</g>
</svg>
