<?xml version="1.0" encoding="UTF-8" standalone="no"?>
<!DOCTYPE svg PUBLIC "-//W3C//DTD SVG 1.1//EN"
 "http://www.w3.org/Graphics/SVG/1.1/DTD/svg11.dtd">
<!-- Generated by graphviz version 2.43.0 (0)
 -->
<!-- Pages: 1 -->
<svg width="1478pt" height="410pt"
 viewBox="0.00 0.00 1478.00 410.00" xmlns="http://www.w3.org/2000/svg" xmlns:xlink="http://www.w3.org/1999/xlink">
<g id="graph0" class="graph" transform="scale(1 1) rotate(0) translate(4 406)">
<polygon fill="white" stroke="transparent" points="-4,4 -4,-406 1474,-406 1474,4 -4,4"/>
<!-- n1 -->
<g id="node1" class="node">
<title>n1</title>
<polygon fill="lightblue" stroke="black" points="663,-384 549.25,-402 321.75,-402 208,-384 321.75,-366 549.25,-366 663,-384"/>
<text text-anchor="middle" x="435.5" y="-380.3" font-family="Arial" font-size="14.00">Illustrate plants with and without water and light.</text>
</g>
<!-- n2 -->
<g id="node2" class="node">
<title>n2</title>
<polygon fill="#fffdd0" stroke="black" points="285,-280 0,-280 0,-244 285,-244 285,-280"/>
<text text-anchor="middle" x="142.5" y="-258.3" font-family="Arial" font-size="14.00">Healthy plant with green leaves and tall stem</text>
</g>
<!-- n1&#45;&gt;n2 -->
<g id="edge1" class="edge">
<title>n1&#45;&gt;n2</title>
<path fill="none" stroke="black" d="M393.83,-365.93C341.11,-344.34 250.35,-307.17 193.53,-283.9"/>
<polygon fill="black" stroke="black" points="194.6,-280.56 184.02,-280.01 191.95,-287.04 194.6,-280.56"/>
</g>
<!-- n3 -->
<g id="node3" class="node">
<title>n3</title>
<polygon fill="#fffdd0" stroke="black" points="527.5,-280 343.5,-280 343.5,-244 527.5,-244 527.5,-280"/>
<text text-anchor="middle" x="435.5" y="-258.3" font-family="Arial" font-size="14.00">Sun above the healthy plant</text>
</g>
<!-- n1&#45;&gt;n3 -->
<g id="edge2" class="edge">
<title>n1&#45;&gt;n3</title>
<path fill="none" stroke="black" d="M435.5,-365.81C435.5,-346.11 435.5,-313.58 435.5,-290.39"/>
<polygon fill="black" stroke="black" points="439,-290.16 435.5,-280.16 432,-290.16 439,-290.16"/>
</g>
<!-- n4 -->
<g id="node4" class="node">
<title>n4</title>
<polygon fill="#fffdd0" stroke="black" points="749,-280 586,-280 586,-244 749,-244 749,-280"/>
<text text-anchor="middle" x="667.5" y="-258.3" font-family="Arial" font-size="14.00">Plant with droopy leaves</text>
</g>
<!-- n1&#45;&gt;n4 -->
<g id="edge3" class="edge">
<title>n1&#45;&gt;n4</title>
<path fill="none" stroke="black" d="M468.74,-365.81C510,-344.47 580.41,-308.05 625.4,-284.77"/>
<polygon fill="black" stroke="black" points="627.04,-287.86 634.32,-280.16 623.83,-281.64 627.04,-287.86"/>
</g>
<!-- n5 -->
<g id="node5" class="node">
<title>n5</title>
<path fill="palegreen" stroke="black" d="M314.5,-158C314.5,-158 42.5,-158 42.5,-158 36.5,-158 30.5,-152 30.5,-146 30.5,-146 30.5,-134 30.5,-134 30.5,-128 36.5,-122 42.5,-122 42.5,-122 314.5,-122 314.5,-122 320.5,-122 326.5,-128 326.5,-134 326.5,-134 326.5,-146 326.5,-146 326.5,-152 320.5,-158 314.5,-158"/>
<text text-anchor="middle" x="178.5" y="-136.3" font-family="Arial" font-size="14.00">Understanding that plants need water and light</text>
</g>
<!-- n2&#45;&gt;n5 -->
<g id="edge4" class="edge">
<title>n2&#45;&gt;n5</title>
<path fill="none" stroke="black" d="M147.66,-243.81C153.62,-223.94 163.5,-190.99 170.47,-167.76"/>
<polygon fill="black" stroke="black" points="173.83,-168.74 173.35,-158.16 167.12,-166.73 173.83,-168.74"/>
</g>
<!-- n3&#45;&gt;n5 -->
<g id="edge5" class="edge">
<title>n3&#45;&gt;n5</title>
<path fill="none" stroke="black" d="M398.95,-243.93C352.99,-222.48 274.09,-185.63 224.19,-162.33"/>
<polygon fill="black" stroke="black" points="225.46,-159.06 214.92,-158.01 222.51,-165.41 225.46,-159.06"/>
</g>
<!-- n6 -->
<g id="node6" class="node">
<title>n6</title>
<polygon fill="lightcoral" stroke="black" points="648.5,-158 402,-140 648.5,-122 895,-140 648.5,-158"/>
<text text-anchor="middle" x="648.5" y="-136.3" font-family="Arial" font-size="14.00">Misconceiving effects of no water on plant</text>
</g>
<!-- n4&#45;&gt;n6 -->
<g id="edge6" class="edge">
<title>n4&#45;&gt;n6</title>
<path fill="none" stroke="black" d="M664.78,-243.81C661.65,-224.02 656.46,-191.29 652.79,-168.08"/>
<polygon fill="black" stroke="black" points="656.24,-167.49 651.22,-158.16 649.33,-168.58 656.24,-167.49"/>
</g>
<!-- n7 -->
<g id="node7" class="node">
<title>n7</title>
<polygon fill="lightcoral" stroke="black" points="1211.5,-158 953,-140 1211.5,-122 1470,-140 1211.5,-158"/>
<text text-anchor="middle" x="1211.5" y="-136.3" font-family="Arial" font-size="14.00">Misunderstanding effects of no light on plant</text>
</g>
<!-- n4&#45;&gt;n7 -->
<g id="edge7" class="edge">
<title>n4&#45;&gt;n7</title>
<path fill="none" stroke="black" d="M744.58,-244C850.95,-220.53 1041.1,-178.58 1142.8,-156.14"/>
<polygon fill="black" stroke="black" points="1143.68,-159.53 1152.7,-153.97 1142.18,-152.69 1143.68,-159.53"/>
</g>
<!-- n8 -->
<g id="node8" class="node">
<title>n8</title>
<polygon fill="#f28e8e" stroke="black" points="1380,-36 1043,-36 1043,0 1380,0 1380,-36"/>
<text text-anchor="middle" x="1211.5" y="-14.3" font-family="Arial" font-size="14.00">Consider showing changes like yellowing without light</text>
</g>
<!-- n7&#45;&gt;n8 -->
<g id="edge8" class="edge">
<title>n7&#45;&gt;n8</title>
<path fill="none" stroke="black" d="M1211.5,-121.81C1211.5,-102.11 1211.5,-69.58 1211.5,-46.39"/>
<polygon fill="black" stroke="black" points="1215,-46.16 1211.5,-36.16 1208,-46.16 1215,-46.16"/>
</g>
</g>
</svg>
