<?xml version="1.0" encoding="UTF-8" standalone="no"?>
<!DOCTYPE svg PUBLIC "-//W3C//DTD SVG 1.1//EN"
 "http://www.w3.org/Graphics/SVG/1.1/DTD/svg11.dtd">
<!-- Generated by graphviz version 2.43.0 (0)
 -->
<!-- Pages: 1 -->
<svg width="1690pt" height="532pt"
 viewBox="0.00 0.00 1690.05 532.00" xmlns="http://www.w3.org/2000/svg" xmlns:xlink="http://www.w3.org/1999/xlink">
<g id="graph0" class="graph" transform="scale(1 1) rotate(0) translate(4 528)">
<polygon fill="white" stroke="transparent" points="-4,4 -4,-528 1686.05,-528 1686.05,4 -4,4"/>
<!-- n1 -->
<g id="node1" class="node">
<title>n1</title>
<polygon fill="lightblue" stroke="black" points="1011.32,-506 888.91,-524 644.09,-524 521.68,-506 644.09,-488 888.91,-488 1011.32,-506"/>
<text text-anchor="middle" x="766.5" y="-502.3" font-family="Arial" font-size="14.00">Draw a habitat and the different living things in each</text>
</g>
<!-- n2 -->
<g id="node2" class="node">
<title>n2</title>
<polygon fill="#fffdd0" stroke="black" points="742.5,-402 482.5,-402 482.5,-366 742.5,-366 742.5,-402"/>
<text text-anchor="middle" x="612.5" y="-380.3" font-family="Arial" font-size="14.00">Two land habitats: playground and forest</text>
</g>
<!-- n1&#45;&gt;n2 -->
<g id="edge1" class="edge">
<title>n1&#45;&gt;n2</title>
<path fill="none" stroke="black" d="M744.44,-487.81C717.68,-466.96 672.45,-431.71 642.53,-408.4"/>
<polygon fill="black" stroke="black" points="644.56,-405.54 634.52,-402.16 640.26,-411.07 644.56,-405.54"/>
</g>
<!-- n3 -->
<g id="node3" class="node">
<title>n3</title>
<polygon fill="#fffdd0" stroke="black" points="1113,-402 874,-402 874,-366 1113,-366 1113,-402"/>
<text text-anchor="middle" x="993.5" y="-380.3" font-family="Arial" font-size="14.00">Two water habitats: pond and stream</text>
</g>
<!-- n1&#45;&gt;n3 -->
<g id="edge2" class="edge">
<title>n1&#45;&gt;n3</title>
<path fill="none" stroke="black" d="M799.02,-487.81C839.31,-466.51 908,-430.2 952.03,-406.92"/>
<polygon fill="black" stroke="black" points="953.83,-409.93 961.04,-402.16 950.56,-403.74 953.83,-409.93"/>
</g>
<!-- n4 -->
<g id="node4" class="node">
<title>n4</title>
<polygon fill="#fffdd0" stroke="black" points="685.5,-280 465.5,-280 465.5,-244 685.5,-244 685.5,-280"/>
<text text-anchor="middle" x="575.5" y="-258.3" font-family="Arial" font-size="14.00">Labeled elements: trees, squirrels</text>
</g>
<!-- n2&#45;&gt;n4 -->
<g id="edge3" class="edge">
<title>n2&#45;&gt;n4</title>
<path fill="none" stroke="black" d="M607.2,-365.81C601.07,-345.94 590.91,-312.99 583.75,-289.76"/>
<polygon fill="black" stroke="black" points="587.08,-288.68 580.79,-280.16 580.39,-290.75 587.08,-288.68"/>
</g>
<!-- n5 -->
<g id="node5" class="node">
<title>n5</title>
<polygon fill="#fffdd0" stroke="black" points="1159,-280 902,-280 902,-244 1159,-244 1159,-280"/>
<text text-anchor="middle" x="1030.5" y="-258.3" font-family="Arial" font-size="14.00">Labeled elements: fish, grass&#45;like plants</text>
</g>
<!-- n3&#45;&gt;n5 -->
<g id="edge4" class="edge">
<title>n3&#45;&gt;n5</title>
<path fill="none" stroke="black" d="M998.8,-365.81C1004.9,-345.94 1015.1,-312.99 1022.2,-289.76"/>
<polygon fill="black" stroke="black" points="1025.56,-290.75 1025.2,-280.16 1018.88,-288.66 1025.56,-290.75"/>
</g>
<!-- n6 -->
<g id="node6" class="node">
<title>n6</title>
<path fill="palegreen" stroke="black" d="M237,-158C237,-158 12,-158 12,-158 6,-158 0,-152 0,-146 0,-146 0,-134 0,-134 0,-128 6,-122 12,-122 12,-122 237,-122 237,-122 243,-122 249,-128 249,-134 249,-134 249,-146 249,-146 249,-152 243,-158 237,-158"/>
<text text-anchor="middle" x="124.5" y="-136.3" font-family="Arial" font-size="14.00">Labeled different land habitats; Correct</text>
</g>
<!-- n4&#45;&gt;n6 -->
<g id="edge5" class="edge">
<title>n4&#45;&gt;n6</title>
<path fill="none" stroke="black" d="M511.36,-243.93C428.7,-221.94 285.29,-183.78 198.23,-160.62"/>
<polygon fill="black" stroke="black" points="198.98,-157.2 188.42,-158.01 197.18,-163.96 198.98,-157.2"/>
</g>
<!-- n8 -->
<g id="node7" class="node">
<title>n8</title>
<polygon fill="lightcoral" stroke="black" points="575.5,-158 307,-140 575.5,-122 844,-140 575.5,-158"/>
<text text-anchor="middle" x="575.5" y="-136.3" font-family="Arial" font-size="14.00">Included some, but not all, plants and animals</text>
</g>
<!-- n4&#45;&gt;n8 -->
<g id="edge6" class="edge">
<title>n4&#45;&gt;n8</title>
<path fill="none" stroke="black" d="M575.5,-243.81C575.5,-224.11 575.5,-191.58 575.5,-168.39"/>
<polygon fill="black" stroke="black" points="579,-168.16 575.5,-158.16 572,-168.16 579,-168.16"/>
</g>
<!-- n7 -->
<g id="node8" class="node">
<title>n7</title>
<path fill="palegreen" stroke="black" d="M1147,-158C1147,-158 914,-158 914,-158 908,-158 902,-152 902,-146 902,-146 902,-134 902,-134 902,-128 908,-122 914,-122 914,-122 1147,-122 1147,-122 1153,-122 1159,-128 1159,-134 1159,-134 1159,-146 1159,-146 1159,-152 1153,-158 1147,-158"/>
<text text-anchor="middle" x="1030.5" y="-136.3" font-family="Arial" font-size="14.00">Labeled different water habitats; Correct</text>
</g>
<!-- n5&#45;&gt;n7 -->
<g id="edge7" class="edge">
<title>n5&#45;&gt;n7</title>
<path fill="none" stroke="black" d="M1030.5,-243.81C1030.5,-224.11 1030.5,-191.58 1030.5,-168.39"/>
<polygon fill="black" stroke="black" points="1034,-168.16 1030.5,-158.16 1027,-168.16 1034,-168.16"/>
</g>
<!-- n9 -->
<g id="node9" class="node">
<title>n9</title>
<polygon fill="lightcoral" stroke="black" points="1449.5,-158 1216.91,-140 1449.5,-122 1682.09,-140 1449.5,-158"/>
<text text-anchor="middle" x="1449.5" y="-136.3" font-family="Arial" font-size="14.00">Did not label less obvious plants, clams</text>
</g>
<!-- n5&#45;&gt;n9 -->
<g id="edge8" class="edge">
<title>n5&#45;&gt;n9</title>
<path fill="none" stroke="black" d="M1090.1,-243.93C1170.8,-220.82 1313.8,-179.85 1392.9,-157.2"/>
<polygon fill="black" stroke="black" points="1394.05,-160.51 1402.7,-154.39 1392.12,-153.78 1394.05,-160.51"/>
</g>
<!-- n10 -->
<g id="node10" class="node">
<title>n10</title>
<polygon fill="#f28e8e" stroke="black" points="1249.5,-36 775.5,-36 775.5,0 1249.5,0 1249.5,-36"/>
<text text-anchor="middle" x="1012.5" y="-14.3" font-family="Arial" font-size="14.00">Add labels to less obvious plants and aquatic animals like bushes and clams</text>
</g>
<!-- n8&#45;&gt;n10 -->
<g id="edge9" class="edge">
<title>n8&#45;&gt;n10</title>
<path fill="none" stroke="black" d="M625.63,-125.23C702.99,-103.99 851.8,-63.13 940.61,-38.74"/>
<polygon fill="black" stroke="black" points="941.62,-42.09 950.34,-36.07 939.77,-35.34 941.62,-42.09"/>
</g>
<!-- n9&#45;&gt;n10 -->
<g id="edge10" class="edge">
<title>n9&#45;&gt;n10</title>
<path fill="none" stroke="black" d="M1401.1,-125.7C1324.2,-104.58 1173.7,-63.27 1084.3,-38.71"/>
<polygon fill="black" stroke="black" points="1085.07,-35.29 1074.5,-36.02 1083.22,-42.04 1085.07,-35.29"/>
</g>
</g>
</svg>
