<?xml version="1.0" encoding="UTF-8" standalone="no"?>
<!DOCTYPE svg PUBLIC "-//W3C//DTD SVG 1.1//EN"
 "http://www.w3.org/Graphics/SVG/1.1/DTD/svg11.dtd">
<!-- Generated by graphviz version 2.43.0 (0)
 -->
<!-- Pages: 1 -->
<svg width="1591pt" height="410pt"
 viewBox="0.00 0.00 1590.50 410.00" xmlns="http://www.w3.org/2000/svg" xmlns:xlink="http://www.w3.org/1999/xlink">
<g id="graph0" class="graph" transform="scale(1 1) rotate(0) translate(4 406)">
<polygon fill="white" stroke="transparent" points="-4,4 -4,-406 1586.5,-406 1586.5,4 -4,4"/>
<!-- n1 -->
<g id="node1" class="node">
<title>n1</title>
<polygon fill="lightblue" stroke="black" points="876.5,-384 785.25,-402 602.75,-402 511.5,-384 602.75,-366 785.25,-366 876.5,-384"/>
<text text-anchor="middle" x="694" y="-380.3" font-family="Arial" font-size="14.00">Draw a fish in their habitat with labels.</text>
</g>
<!-- n2 -->
<g id="node2" class="node">
<title>n2</title>
<polygon fill="#fffdd0" stroke="black" points="141.5,-280 16.5,-280 16.5,-244 141.5,-244 141.5,-280"/>
<text text-anchor="middle" x="79" y="-258.3" font-family="Arial" font-size="14.00">Fish labeled &#39;Fish&#39;</text>
</g>
<!-- n1&#45;&gt;n2 -->
<g id="edge1" class="edge">
<title>n1&#45;&gt;n2</title>
<path fill="none" stroke="black" d="M606.86,-366C484.96,-342.21 265.7,-299.43 151.94,-277.23"/>
<polygon fill="black" stroke="black" points="152.41,-273.76 141.93,-275.28 151.08,-280.63 152.41,-273.76"/>
</g>
<!-- n3 -->
<g id="node3" class="node">
<title>n3</title>
<polygon fill="#fffdd0" stroke="black" points="446,-280 200,-280 200,-244 446,-244 446,-280"/>
<text text-anchor="middle" x="323" y="-258.3" font-family="Arial" font-size="14.00">Water labeled &#39;Vital for Fish&#39;s Survival&#39;</text>
</g>
<!-- n1&#45;&gt;n3 -->
<g id="edge2" class="edge">
<title>n1&#45;&gt;n3</title>
<path fill="none" stroke="black" d="M641.24,-365.93C573.79,-344.12 457.18,-306.4 385.4,-283.18"/>
<polygon fill="black" stroke="black" points="386.17,-279.75 375.58,-280.01 384.02,-286.41 386.17,-279.75"/>
</g>
<!-- n4 -->
<g id="node4" class="node">
<title>n4</title>
<polygon fill="#fffdd0" stroke="black" points="653.5,-280 504.5,-280 504.5,-244 653.5,-244 653.5,-280"/>
<text text-anchor="middle" x="579" y="-258.3" font-family="Arial" font-size="14.00">Plants labeled &#39;Plants&#39;</text>
</g>
<!-- n1&#45;&gt;n4 -->
<g id="edge3" class="edge">
<title>n1&#45;&gt;n4</title>
<path fill="none" stroke="black" d="M677.52,-365.81C657.88,-345.31 624.92,-310.91 602.58,-287.6"/>
<polygon fill="black" stroke="black" points="604.9,-284.96 595.45,-280.16 599.84,-289.8 604.9,-284.96"/>
</g>
<!-- n5 -->
<g id="node5" class="node">
<title>n5</title>
<polygon fill="#fffdd0" stroke="black" points="908.5,-280 711.5,-280 711.5,-244 908.5,-244 908.5,-280"/>
<text text-anchor="middle" x="810" y="-258.3" font-family="Arial" font-size="14.00">Other fish labeled &#39;Other Fish&#39;</text>
</g>
<!-- n1&#45;&gt;n5 -->
<g id="edge4" class="edge">
<title>n1&#45;&gt;n5</title>
<path fill="none" stroke="black" d="M710.62,-365.81C730.43,-345.31 763.68,-310.91 786.22,-287.6"/>
<polygon fill="black" stroke="black" points="788.98,-289.78 793.41,-280.16 783.94,-284.92 788.98,-289.78"/>
</g>
<!-- n6 -->
<g id="node6" class="node">
<title>n6</title>
<polygon fill="#fffdd0" stroke="black" points="1127,-280 967,-280 967,-244 1127,-244 1127,-280"/>
<text text-anchor="middle" x="1047" y="-258.3" font-family="Arial" font-size="14.00">Rocks mostly unlabeled</text>
</g>
<!-- n1&#45;&gt;n6 -->
<g id="edge5" class="edge">
<title>n1&#45;&gt;n6</title>
<path fill="none" stroke="black" d="M744.2,-365.93C808.24,-344.16 918.87,-306.56 987.21,-283.33"/>
<polygon fill="black" stroke="black" points="988.63,-286.54 996.97,-280.01 986.38,-279.92 988.63,-286.54"/>
</g>
<!-- n7 -->
<g id="node7" class="node">
<title>n7</title>
<polygon fill="#fffdd0" stroke="black" points="1496,-280 1280,-280 1280,-244 1496,-244 1496,-280"/>
<text text-anchor="middle" x="1388" y="-258.3" font-family="Arial" font-size="14.00">Water currents drawn around fish</text>
</g>
<!-- n1&#45;&gt;n7 -->
<g id="edge6" class="edge">
<title>n1&#45;&gt;n7</title>
<path fill="none" stroke="black" d="M788.68,-366.63C916.78,-344.48 1144.7,-305.06 1279.6,-281.75"/>
<polygon fill="black" stroke="black" points="1280.25,-285.19 1289.5,-280.03 1279.05,-278.29 1280.25,-285.19"/>
</g>
<!-- n8 -->
<g id="node8" class="node">
<title>n8</title>
<path fill="palegreen" stroke="black" d="M146,-158C146,-158 12,-158 12,-158 6,-158 0,-152 0,-146 0,-146 0,-134 0,-134 0,-128 6,-122 12,-122 12,-122 146,-122 146,-122 152,-122 158,-128 158,-134 158,-134 158,-146 158,-146 158,-152 152,-158 146,-158"/>
<text text-anchor="middle" x="79" y="-136.3" font-family="Arial" font-size="14.00">Correct depiction of fish</text>
</g>
<!-- n2&#45;&gt;n8 -->
<g id="edge7" class="edge">
<title>n2&#45;&gt;n8</title>
<path fill="none" stroke="black" d="M79,-243.81C79,-224.11 79,-191.58 79,-168.39"/>
<polygon fill="black" stroke="black" points="82.5,-168.16 79,-158.16 75.5,-168.16 82.5,-168.16"/>
</g>
<!-- n9 -->
<g id="node9" class="node">
<title>n9</title>
<path fill="palegreen" stroke="black" d="M403,-158C403,-158 239,-158 239,-158 233,-158 227,-152 227,-146 227,-146 227,-134 227,-134 227,-128 233,-122 239,-122 239,-122 403,-122 403,-122 409,-122 415,-128 415,-134 415,-134 415,-146 415,-146 415,-152 409,-158 403,-158"/>
<text text-anchor="middle" x="321" y="-136.3" font-family="Arial" font-size="14.00">Water as a survival resource</text>
</g>
<!-- n3&#45;&gt;n9 -->
<g id="edge8" class="edge">
<title>n3&#45;&gt;n9</title>
<path fill="none" stroke="black" d="M322.71,-243.81C322.39,-224.11 321.84,-191.58 321.46,-168.39"/>
<polygon fill="black" stroke="black" points="324.96,-168.1 321.29,-158.16 317.96,-168.22 324.96,-168.1"/>
</g>
<!-- n10 -->
<g id="node10" class="node">
<title>n10</title>
<path fill="palegreen" stroke="black" d="M696.5,-158C696.5,-158 485.5,-158 485.5,-158 479.5,-158 473.5,-152 473.5,-146 473.5,-146 473.5,-134 473.5,-134 473.5,-128 479.5,-122 485.5,-122 485.5,-122 696.5,-122 696.5,-122 702.5,-122 708.5,-128 708.5,-134 708.5,-134 708.5,-146 708.5,-146 708.5,-152 702.5,-158 696.5,-158"/>
<text text-anchor="middle" x="591" y="-136.3" font-family="Arial" font-size="14.00">Understanding of habitat biodiversity</text>
</g>
<!-- n4&#45;&gt;n10 -->
<g id="edge9" class="edge">
<title>n4&#45;&gt;n10</title>
<path fill="none" stroke="black" d="M580.72,-243.81C582.69,-224.11 585.94,-191.58 588.26,-168.39"/>
<polygon fill="black" stroke="black" points="591.77,-168.46 589.28,-158.16 584.81,-167.76 591.77,-168.46"/>
</g>
<!-- n5&#45;&gt;n10 -->
<g id="edge10" class="edge">
<title>n5&#45;&gt;n10</title>
<path fill="none" stroke="black" d="M778.62,-243.81C739.84,-222.55 673.76,-186.35 631.27,-163.07"/>
<polygon fill="black" stroke="black" points="632.77,-159.9 622.32,-158.16 629.4,-166.04 632.77,-159.9"/>
</g>
<!-- n11 -->
<g id="node11" class="node">
<title>n11</title>
<polygon fill="lightcoral" stroke="black" points="1047,-158 766.5,-140 1047,-122 1327.5,-140 1047,-158"/>
<text text-anchor="middle" x="1047" y="-136.3" font-family="Arial" font-size="14.00">Limited understanding of rocks as part of habitat</text>
</g>
<!-- n6&#45;&gt;n11 -->
<g id="edge11" class="edge">
<title>n6&#45;&gt;n11</title>
<path fill="none" stroke="black" d="M1047,-243.81C1047,-224.11 1047,-191.58 1047,-168.39"/>
<polygon fill="black" stroke="black" points="1050.5,-168.16 1047,-158.16 1043.5,-168.16 1050.5,-168.16"/>
</g>
<!-- n12 -->
<g id="node12" class="node">
<title>n12</title>
<path fill="palegreen" stroke="black" d="M1570.5,-158C1570.5,-158 1397.5,-158 1397.5,-158 1391.5,-158 1385.5,-152 1385.5,-146 1385.5,-146 1385.5,-134 1385.5,-134 1385.5,-128 1391.5,-122 1397.5,-122 1397.5,-122 1570.5,-122 1570.5,-122 1576.5,-122 1582.5,-128 1582.5,-134 1582.5,-134 1582.5,-146 1582.5,-146 1582.5,-152 1576.5,-158 1570.5,-158"/>
<text text-anchor="middle" x="1484" y="-136.3" font-family="Arial" font-size="14.00">Interaction with water currents</text>
</g>
<!-- n7&#45;&gt;n12 -->
<g id="edge12" class="edge">
<title>n7&#45;&gt;n12</title>
<path fill="none" stroke="black" d="M1401.8,-243.81C1418,-223.49 1445.2,-189.51 1463.8,-166.21"/>
<polygon fill="black" stroke="black" points="1466.74,-168.14 1470.3,-158.16 1461.29,-163.74 1466.74,-168.14"/>
</g>
<!-- n13 -->
<g id="node13" class="node">
<title>n13</title>
<polygon fill="#f28e8e" stroke="black" points="1174.5,-36 919.5,-36 919.5,0 1174.5,0 1174.5,-36"/>
<text text-anchor="middle" x="1047" y="-14.3" font-family="Arial" font-size="14.00">Consider the role of rocks in the habitat.</text>
</g>
<!-- n11&#45;&gt;n13 -->
<g id="edge13" class="edge">
<title>n11&#45;&gt;n13</title>
<path fill="none" stroke="black" d="M1047,-121.81C1047,-102.11 1047,-69.58 1047,-46.39"/>
<polygon fill="black" stroke="black" points="1050.5,-46.16 1047,-36.16 1043.5,-46.16 1050.5,-46.16"/>
</g>
</g>
</svg>
