<?xml version="1.0" encoding="UTF-8" standalone="no"?>
<!DOCTYPE svg PUBLIC "-//W3C//DTD SVG 1.1//EN"
 "http://www.w3.org/Graphics/SVG/1.1/DTD/svg11.dtd">
<!-- Generated by graphviz version 2.43.0 (0)
 -->
<!-- Pages: 1 -->
<svg width="1451pt" height="288pt"
 viewBox="0.00 0.00 1451.00 288.00" xmlns="http://www.w3.org/2000/svg" xmlns:xlink="http://www.w3.org/1999/xlink">
<g id="graph0" class="graph" transform="scale(1 1) rotate(0) translate(4 284)">
<polygon fill="white" stroke="transparent" points="-4,4 -4,-284 1447,-284 1447,4 -4,4"/>
<!-- n1 -->
<g id="node1" class="node">
<title>n1</title>
<polygon fill="lightblue" stroke="black" points="874.74,-262 781.62,-280 595.38,-280 502.26,-262 595.38,-244 781.62,-244 874.74,-262"/>
<text text-anchor="middle" x="688.5" y="-258.3" font-family="Arial" font-size="14.00">Illustrate plants with and without water.</text>
</g>
<!-- n2 -->
<g id="node2" class="node">
<title>n2</title>
<polygon fill="#fffdd0" stroke="black" points="245,-158 0,-158 0,-122 245,-122 245,-158"/>
<text text-anchor="middle" x="122.5" y="-136.3" font-family="Arial" font-size="14.00">Healthy plant with bright green leaves.</text>
</g>
<!-- n1&#45;&gt;n2 -->
<g id="edge1" class="edge">
<title>n1&#45;&gt;n2</title>
<path fill="none" stroke="black" d="M608.31,-244C503.91,-221.87 321.96,-183.29 212.81,-160.15"/>
<polygon fill="black" stroke="black" points="213.32,-156.68 202.81,-158.03 211.87,-163.53 213.32,-156.68"/>
</g>
<!-- n3 -->
<g id="node3" class="node">
<title>n3</title>
<polygon fill="#fffdd0" stroke="black" points="527.5,-158 303.5,-158 303.5,-122 527.5,-122 527.5,-158"/>
<text text-anchor="middle" x="415.5" y="-136.3" font-family="Arial" font-size="14.00">Plant with brown, shriveled leaves.</text>
</g>
<!-- n1&#45;&gt;n3 -->
<g id="edge2" class="edge">
<title>n1&#45;&gt;n3</title>
<path fill="none" stroke="black" d="M649.68,-243.93C600.65,-222.39 516.34,-185.32 463.38,-162.04"/>
<polygon fill="black" stroke="black" points="464.75,-158.82 454.19,-158.01 461.94,-165.23 464.75,-158.82"/>
</g>
<!-- n4 -->
<g id="node4" class="node">
<title>n4</title>
<polygon fill="#fffdd0" stroke="black" points="791,-158 586,-158 586,-122 791,-122 791,-158"/>
<text text-anchor="middle" x="688.5" y="-136.3" font-family="Arial" font-size="14.00">Water drops near healthy plant.</text>
</g>
<!-- n1&#45;&gt;n4 -->
<g id="edge3" class="edge">
<title>n1&#45;&gt;n4</title>
<path fill="none" stroke="black" d="M688.5,-243.81C688.5,-224.11 688.5,-191.58 688.5,-168.39"/>
<polygon fill="black" stroke="black" points="692,-168.16 688.5,-158.16 685,-168.16 692,-168.16"/>
</g>
<!-- n5 -->
<g id="node5" class="node">
<title>n5</title>
<polygon fill="#fffdd0" stroke="black" points="1081.5,-158 849.5,-158 849.5,-122 1081.5,-122 1081.5,-158"/>
<text text-anchor="middle" x="965.5" y="-136.3" font-family="Arial" font-size="14.00">Dry, cracked soil under wilting plant.</text>
</g>
<!-- n1&#45;&gt;n5 -->
<g id="edge4" class="edge">
<title>n1&#45;&gt;n5</title>
<path fill="none" stroke="black" d="M727.89,-243.93C777.63,-222.39 863.18,-185.32 916.92,-162.04"/>
<polygon fill="black" stroke="black" points="918.45,-165.19 926.24,-158.01 915.67,-158.77 918.45,-165.19"/>
</g>
<!-- n6 -->
<g id="node6" class="node">
<title>n6</title>
<polygon fill="#fffdd0" stroke="black" points="1443,-158 1140,-158 1140,-122 1443,-122 1443,-158"/>
<text text-anchor="middle" x="1291.5" y="-136.3" font-family="Arial" font-size="14.00">Time progression suggested by sun movement.</text>
</g>
<!-- n1&#45;&gt;n6 -->
<g id="edge5" class="edge">
<title>n1&#45;&gt;n6</title>
<path fill="none" stroke="black" d="M773.94,-244C885.38,-221.82 1079.8,-183.13 1196,-160.01"/>
<polygon fill="black" stroke="black" points="1196.78,-163.42 1205.9,-158.03 1195.41,-156.56 1196.78,-163.42"/>
</g>
<!-- n7 -->
<g id="node7" class="node">
<title>n7</title>
<path fill="palegreen" stroke="black" d="M215,-36C215,-36 30,-36 30,-36 24,-36 18,-30 18,-24 18,-24 18,-12 18,-12 18,-6 24,0 30,0 30,0 215,0 215,0 221,0 227,-6 227,-12 227,-12 227,-24 227,-24 227,-30 221,-36 215,-36"/>
<text text-anchor="middle" x="122.5" y="-14.3" font-family="Arial" font-size="14.00">Plants need water to be healthy.</text>
</g>
<!-- n2&#45;&gt;n7 -->
<g id="edge6" class="edge">
<title>n2&#45;&gt;n7</title>
<path fill="none" stroke="black" d="M122.5,-121.81C122.5,-102.11 122.5,-69.58 122.5,-46.39"/>
<polygon fill="black" stroke="black" points="126,-46.16 122.5,-36.16 119,-46.16 126,-46.16"/>
</g>
<!-- n8 -->
<g id="node8" class="node">
<title>n8</title>
<path fill="palegreen" stroke="black" d="M512.5,-36C512.5,-36 318.5,-36 318.5,-36 312.5,-36 306.5,-30 306.5,-24 306.5,-24 306.5,-12 306.5,-12 306.5,-6 312.5,0 318.5,0 318.5,0 512.5,0 512.5,0 518.5,0 524.5,-6 524.5,-12 524.5,-12 524.5,-24 524.5,-24 524.5,-30 518.5,-36 512.5,-36"/>
<text text-anchor="middle" x="415.5" y="-14.3" font-family="Arial" font-size="14.00">Lack of water causes plant to wilt.</text>
</g>
<!-- n3&#45;&gt;n8 -->
<g id="edge7" class="edge">
<title>n3&#45;&gt;n8</title>
<path fill="none" stroke="black" d="M415.5,-121.81C415.5,-102.11 415.5,-69.58 415.5,-46.39"/>
<polygon fill="black" stroke="black" points="419,-46.16 415.5,-36.16 412,-46.16 419,-46.16"/>
</g>
<!-- n9 -->
<g id="node9" class="node">
<title>n9</title>
<path fill="palegreen" stroke="black" d="M773.5,-36C773.5,-36 603.5,-36 603.5,-36 597.5,-36 591.5,-30 591.5,-24 591.5,-24 591.5,-12 591.5,-12 591.5,-6 597.5,0 603.5,0 603.5,0 773.5,0 773.5,0 779.5,0 785.5,-6 785.5,-12 785.5,-12 785.5,-24 785.5,-24 785.5,-30 779.5,-36 773.5,-36"/>
<text text-anchor="middle" x="688.5" y="-14.3" font-family="Arial" font-size="14.00">Water is vital for plant growth.</text>
</g>
<!-- n4&#45;&gt;n9 -->
<g id="edge8" class="edge">
<title>n4&#45;&gt;n9</title>
<path fill="none" stroke="black" d="M688.5,-121.81C688.5,-102.11 688.5,-69.58 688.5,-46.39"/>
<polygon fill="black" stroke="black" points="692,-46.16 688.5,-36.16 685,-46.16 692,-46.16"/>
</g>
<!-- n10 -->
<g id="node10" class="node">
<title>n10</title>
<path fill="palegreen" stroke="black" d="M1054,-36C1054,-36 877,-36 877,-36 871,-36 865,-30 865,-24 865,-24 865,-12 865,-12 865,-6 871,0 877,0 877,0 1054,0 1054,0 1060,0 1066,-6 1066,-12 1066,-12 1066,-24 1066,-24 1066,-30 1060,-36 1054,-36"/>
<text text-anchor="middle" x="965.5" y="-14.3" font-family="Arial" font-size="14.00">Dry soil indicates lack of water.</text>
</g>
<!-- n5&#45;&gt;n10 -->
<g id="edge9" class="edge">
<title>n5&#45;&gt;n10</title>
<path fill="none" stroke="black" d="M965.5,-121.81C965.5,-102.11 965.5,-69.58 965.5,-46.39"/>
<polygon fill="black" stroke="black" points="969,-46.16 965.5,-36.16 962,-46.16 969,-46.16"/>
</g>
<!-- n11 -->
<g id="node11" class="node">
<title>n11</title>
<path fill="palegreen" stroke="black" d="M1416,-36C1416,-36 1167,-36 1167,-36 1161,-36 1155,-30 1155,-24 1155,-24 1155,-12 1155,-12 1155,-6 1161,0 1167,0 1167,0 1416,0 1416,0 1422,0 1428,-6 1428,-12 1428,-12 1428,-24 1428,-24 1428,-30 1422,-36 1416,-36"/>
<text text-anchor="middle" x="1291.5" y="-14.3" font-family="Arial" font-size="14.00">Understanding cycles like day progression.</text>
</g>
<!-- n6&#45;&gt;n11 -->
<g id="edge10" class="edge">
<title>n6&#45;&gt;n11</title>
<path fill="none" stroke="black" d="M1291.5,-121.81C1291.5,-102.11 1291.5,-69.58 1291.5,-46.39"/>
<polygon fill="black" stroke="black" points="1295,-46.16 1291.5,-36.16 1288,-46.16 1295,-46.16"/>
</g>
</g>
</svg>
