<?xml version="1.0" encoding="UTF-8" standalone="no"?>
<!DOCTYPE svg PUBLIC "-//W3C//DTD SVG 1.1//EN"
 "http://www.w3.org/Graphics/SVG/1.1/DTD/svg11.dtd">
<!-- Generated by graphviz version 2.43.0 (0)
 -->
<!-- Pages: 1 -->
<svg width="1098pt" height="410pt"
 viewBox="0.00 0.00 1098.00 410.00" xmlns="http://www.w3.org/2000/svg" xmlns:xlink="http://www.w3.org/1999/xlink">
<g id="graph0" class="graph" transform="scale(1 1) rotate(0) translate(4 406)">
<polygon fill="white" stroke="transparent" points="-4,4 -4,-406 1094,-406 1094,4 -4,4"/>
<!-- n1 -->
<g id="node1" class="node">
<title>n1</title>
<polygon fill="lightblue" stroke="black" points="575,-384 483,-402 299,-402 207,-384 299,-366 483,-366 575,-384"/>
<text text-anchor="middle" x="391" y="-380.3" font-family="Arial" font-size="14.00">Illustrate plants with and without water</text>
</g>
<!-- n2 -->
<g id="node2" class="node">
<title>n2</title>
<polygon fill="#fffdd0" stroke="black" points="336.5,-280 49.5,-280 49.5,-244 336.5,-244 336.5,-280"/>
<text text-anchor="middle" x="193" y="-258.3" font-family="Arial" font-size="14.00">Vibrant plant with green leaves, strong stems</text>
</g>
<!-- n1&#45;&gt;n2 -->
<g id="edge1" class="edge">
<title>n1&#45;&gt;n2</title>
<path fill="none" stroke="black" d="M362.63,-365.81C327.79,-344.69 268.58,-308.81 230.14,-285.51"/>
<polygon fill="black" stroke="black" points="231.69,-282.35 221.32,-280.16 228.05,-288.34 231.69,-282.35"/>
</g>
<!-- n3 -->
<g id="node3" class="node">
<title>n3</title>
<polygon fill="#fffdd0" stroke="black" points="748.5,-280 407.5,-280 407.5,-244 748.5,-244 748.5,-280"/>
<text text-anchor="middle" x="578" y="-258.3" font-family="Arial" font-size="14.00">Wilting plant with drooping, dull leaves, sagging stems</text>
</g>
<!-- n1&#45;&gt;n3 -->
<g id="edge2" class="edge">
<title>n1&#45;&gt;n3</title>
<path fill="none" stroke="black" d="M417.79,-365.81C450.56,-344.78 506.15,-309.11 542.46,-285.8"/>
<polygon fill="black" stroke="black" points="544.73,-288.5 551.26,-280.16 540.95,-282.61 544.73,-288.5"/>
</g>
<!-- n4 -->
<g id="node4" class="node">
<title>n4</title>
<path fill="palegreen" stroke="black" d="M350,-158C350,-158 12,-158 12,-158 6,-158 0,-152 0,-146 0,-146 0,-134 0,-134 0,-128 6,-122 12,-122 12,-122 350,-122 350,-122 356,-122 362,-128 362,-134 362,-134 362,-146 362,-146 362,-152 356,-158 350,-158"/>
<text text-anchor="middle" x="181" y="-136.3" font-family="Arial" font-size="14.00">Healthy plants need water to maintain vibrant appearance</text>
</g>
<!-- n2&#45;&gt;n4 -->
<g id="edge3" class="edge">
<title>n2&#45;&gt;n4</title>
<path fill="none" stroke="black" d="M191.28,-243.81C189.31,-224.11 186.06,-191.58 183.74,-168.39"/>
<polygon fill="black" stroke="black" points="187.19,-167.76 182.72,-158.16 180.23,-168.46 187.19,-167.76"/>
</g>
<!-- n5 -->
<g id="node5" class="node">
<title>n5</title>
<path fill="palegreen" stroke="black" d="M724,-158C724,-158 432,-158 432,-158 426,-158 420,-152 420,-146 420,-146 420,-134 420,-134 420,-128 426,-122 432,-122 432,-122 724,-122 724,-122 730,-122 736,-128 736,-134 736,-134 736,-146 736,-146 736,-152 730,-158 724,-158"/>
<text text-anchor="middle" x="578" y="-136.3" font-family="Arial" font-size="14.00">Plants lack water, leading to wilting and dull colors</text>
</g>
<!-- n3&#45;&gt;n5 -->
<g id="edge4" class="edge">
<title>n3&#45;&gt;n5</title>
<path fill="none" stroke="black" d="M578,-243.81C578,-224.11 578,-191.58 578,-168.39"/>
<polygon fill="black" stroke="black" points="581.5,-168.16 578,-158.16 574.5,-168.16 581.5,-168.16"/>
</g>
<!-- n6 -->
<g id="node6" class="node">
<title>n6</title>
<polygon fill="lightcoral" stroke="black" points="927,-158 793.5,-140 927,-122 1060.5,-140 927,-158"/>
<text text-anchor="middle" x="927" y="-136.3" font-family="Arial" font-size="14.00">Roots are not labeled</text>
</g>
<!-- n3&#45;&gt;n6 -->
<g id="edge5" class="edge">
<title>n3&#45;&gt;n6</title>
<path fill="none" stroke="black" d="M627.63,-243.93C695.47,-220.61 816.19,-179.1 881.69,-156.58"/>
<polygon fill="black" stroke="black" points="883.01,-159.83 891.33,-153.26 880.74,-153.21 883.01,-159.83"/>
</g>
<!-- n7 -->
<g id="node7" class="node">
<title>n7</title>
<polygon fill="#f28e8e" stroke="black" points="1090,-36 764,-36 764,0 1090,0 1090,-36"/>
<text text-anchor="middle" x="927" y="-14.3" font-family="Arial" font-size="14.00">Consider labeling roots to complete plant illustration</text>
</g>
<!-- n6&#45;&gt;n7 -->
<g id="edge6" class="edge">
<title>n6&#45;&gt;n7</title>
<path fill="none" stroke="black" d="M927,-121.81C927,-102.11 927,-69.58 927,-46.39"/>
<polygon fill="black" stroke="black" points="930.5,-46.16 927,-36.16 923.5,-46.16 930.5,-46.16"/>
</g>
</g>
</svg>
