<?xml version="1.0" encoding="UTF-8" standalone="no"?>
<!DOCTYPE svg PUBLIC "-//W3C//DTD SVG 1.1//EN"
 "http://www.w3.org/Graphics/SVG/1.1/DTD/svg11.dtd">
<!-- Generated by graphviz version 2.43.0 (0)
 -->
<!-- Pages: 1 -->
<svg width="2371pt" height="410pt"
 viewBox="0.00 0.00 2370.50 410.00" xmlns="http://www.w3.org/2000/svg" xmlns:xlink="http://www.w3.org/1999/xlink">
<g id="graph0" class="graph" transform="scale(1 1) rotate(0) translate(4 406)">
<polygon fill="white" stroke="transparent" points="-4,4 -4,-406 2366.5,-406 2366.5,4 -4,4"/>
<!-- n1 -->
<g id="node1" class="node">
<title>n1</title>
<polygon fill="lightblue" stroke="black" points="1432.5,-384 1302.25,-402 1041.75,-402 911.5,-384 1041.75,-366 1302.25,-366 1432.5,-384"/>
<text text-anchor="middle" x="1172" y="-380.3" font-family="Arial" font-size="14.00">Draw two habitats and the different living things in each</text>
</g>
<!-- n2 -->
<g id="node2" class="node">
<title>n2</title>
<polygon fill="#fffdd0" stroke="black" points="536.5,-280 369.5,-280 369.5,-244 536.5,-244 536.5,-280"/>
<text text-anchor="middle" x="453" y="-258.3" font-family="Arial" font-size="14.00">Two habitats side by side</text>
</g>
<!-- n1&#45;&gt;n2 -->
<g id="edge1" class="edge">
<title>n1&#45;&gt;n2</title>
<path fill="none" stroke="black" d="M1070.1,-366C930.48,-342.69 681.56,-301.15 546.46,-278.6"/>
<polygon fill="black" stroke="black" points="546.98,-275.14 536.54,-276.94 545.83,-282.04 546.98,-275.14"/>
</g>
<!-- n3 -->
<g id="node3" class="node">
<title>n3</title>
<polygon fill="#fffdd0" stroke="black" points="889,-280 749,-280 749,-244 889,-244 889,-280"/>
<text text-anchor="middle" x="819" y="-258.3" font-family="Arial" font-size="14.00">Tree in both habitats</text>
</g>
<!-- n1&#45;&gt;n3 -->
<g id="edge2" class="edge">
<title>n1&#45;&gt;n3</title>
<path fill="none" stroke="black" d="M1121.8,-365.93C1057.8,-344.16 947.13,-306.56 878.79,-283.33"/>
<polygon fill="black" stroke="black" points="879.62,-279.92 869.03,-280.01 877.37,-286.54 879.62,-279.92"/>
</g>
<!-- n4 -->
<g id="node4" class="node">
<title>n4</title>
<polygon fill="#fffdd0" stroke="black" points="1240.5,-280 1103.5,-280 1103.5,-244 1240.5,-244 1240.5,-280"/>
<text text-anchor="middle" x="1172" y="-258.3" font-family="Arial" font-size="14.00">Fish in water habitat</text>
</g>
<!-- n1&#45;&gt;n4 -->
<g id="edge3" class="edge">
<title>n1&#45;&gt;n4</title>
<path fill="none" stroke="black" d="M1172,-365.81C1172,-346.11 1172,-313.58 1172,-290.39"/>
<polygon fill="black" stroke="black" points="1175.5,-290.16 1172,-280.16 1168.5,-290.16 1175.5,-290.16"/>
</g>
<!-- n5 -->
<g id="node5" class="node">
<title>n5</title>
<polygon fill="#fffdd0" stroke="black" points="1605.5,-280 1456.5,-280 1456.5,-244 1605.5,-244 1605.5,-280"/>
<text text-anchor="middle" x="1531" y="-258.3" font-family="Arial" font-size="14.00">Grass in both habitats</text>
</g>
<!-- n1&#45;&gt;n5 -->
<g id="edge4" class="edge">
<title>n1&#45;&gt;n5</title>
<path fill="none" stroke="black" d="M1223.1,-365.93C1288.3,-344.12 1401.2,-306.4 1470.6,-283.18"/>
<polygon fill="black" stroke="black" points="1471.72,-286.5 1480.1,-280.01 1469.51,-279.86 1471.72,-286.5"/>
</g>
<!-- n6 -->
<g id="node6" class="node">
<title>n6</title>
<polygon fill="#fffdd0" stroke="black" points="2075.5,-280 1896.5,-280 1896.5,-244 2075.5,-244 2075.5,-280"/>
<text text-anchor="middle" x="1986" y="-258.3" font-family="Arial" font-size="14.00">Sky and cloud above water</text>
</g>
<!-- n1&#45;&gt;n6 -->
<g id="edge5" class="edge">
<title>n1&#45;&gt;n6</title>
<path fill="none" stroke="black" d="M1287.3,-366C1447.5,-342.39 1734.5,-300.08 1886,-277.74"/>
<polygon fill="black" stroke="black" points="1886.82,-281.16 1896.2,-276.23 1885.8,-274.23 1886.82,-281.16"/>
</g>
<!-- n7 -->
<g id="node7" class="node">
<title>n7</title>
<path fill="palegreen" stroke="black" d="M274,-158C274,-158 12,-158 12,-158 6,-158 0,-152 0,-146 0,-146 0,-134 0,-134 0,-128 6,-122 12,-122 12,-122 274,-122 274,-122 280,-122 286,-128 286,-134 286,-134 286,-146 286,-146 286,-152 280,-158 274,-158"/>
<text text-anchor="middle" x="143" y="-136.3" font-family="Arial" font-size="14.00">Understands distinct habitats: land and water</text>
</g>
<!-- n2&#45;&gt;n7 -->
<g id="edge6" class="edge">
<title>n2&#45;&gt;n7</title>
<path fill="none" stroke="black" d="M408.91,-243.93C353.02,-222.3 256.71,-185.02 196.62,-161.76"/>
<polygon fill="black" stroke="black" points="197.52,-158.36 186.93,-158.01 194.99,-164.88 197.52,-158.36"/>
</g>
<!-- n8 -->
<g id="node8" class="node">
<title>n8</title>
<polygon fill="lightcoral" stroke="black" points="663,-158 344,-140 663,-122 982,-140 663,-158"/>
<text text-anchor="middle" x="663" y="-136.3" font-family="Arial" font-size="14.00">Misunderstands habitat differentiation by repeating tree</text>
</g>
<!-- n3&#45;&gt;n8 -->
<g id="edge7" class="edge">
<title>n3&#45;&gt;n8</title>
<path fill="none" stroke="black" d="M796.65,-243.81C769.08,-222.6 722.16,-186.51 691.88,-163.22"/>
<polygon fill="black" stroke="black" points="693.87,-160.33 683.81,-157.01 689.6,-165.88 693.87,-160.33"/>
</g>
<!-- n9 -->
<g id="node9" class="node">
<title>n9</title>
<path fill="palegreen" stroke="black" d="M1292.5,-158C1292.5,-158 1051.5,-158 1051.5,-158 1045.5,-158 1039.5,-152 1039.5,-146 1039.5,-146 1039.5,-134 1039.5,-134 1039.5,-128 1045.5,-122 1051.5,-122 1051.5,-122 1292.5,-122 1292.5,-122 1298.5,-122 1304.5,-128 1304.5,-134 1304.5,-134 1304.5,-146 1304.5,-146 1304.5,-152 1298.5,-158 1292.5,-158"/>
<text text-anchor="middle" x="1172" y="-136.3" font-family="Arial" font-size="14.00">Understands fish belongs to water habitat</text>
</g>
<!-- n4&#45;&gt;n9 -->
<g id="edge8" class="edge">
<title>n4&#45;&gt;n9</title>
<path fill="none" stroke="black" d="M1172,-243.81C1172,-224.11 1172,-191.58 1172,-168.39"/>
<polygon fill="black" stroke="black" points="1175.5,-168.16 1172,-158.16 1168.5,-168.16 1175.5,-168.16"/>
</g>
<!-- n10 -->
<g id="node10" class="node">
<title>n10</title>
<polygon fill="lightcoral" stroke="black" points="1690,-158 1362.56,-140 1690,-122 2017.44,-140 1690,-158"/>
<text text-anchor="middle" x="1690" y="-136.3" font-family="Arial" font-size="14.00">Misunderstands habitat differentiation by repeating grass</text>
</g>
<!-- n5&#45;&gt;n10 -->
<g id="edge9" class="edge">
<title>n5&#45;&gt;n10</title>
<path fill="none" stroke="black" d="M1553.8,-243.81C1581.9,-222.6 1629.7,-186.51 1660.6,-163.22"/>
<polygon fill="black" stroke="black" points="1662.94,-165.84 1668.8,-157.01 1658.72,-160.26 1662.94,-165.84"/>
</g>
<!-- n11 -->
<g id="node11" class="node">
<title>n11</title>
<path fill="palegreen" stroke="black" d="M2350.5,-158C2350.5,-158 2087.5,-158 2087.5,-158 2081.5,-158 2075.5,-152 2075.5,-146 2075.5,-146 2075.5,-134 2075.5,-134 2075.5,-128 2081.5,-122 2087.5,-122 2087.5,-122 2350.5,-122 2350.5,-122 2356.5,-122 2362.5,-128 2362.5,-134 2362.5,-134 2362.5,-146 2362.5,-146 2362.5,-152 2356.5,-158 2350.5,-158"/>
<text text-anchor="middle" x="2219" y="-136.3" font-family="Arial" font-size="14.00">Includes environmental elements (sky, cloud)</text>
</g>
<!-- n6&#45;&gt;n11 -->
<g id="edge10" class="edge">
<title>n6&#45;&gt;n11</title>
<path fill="none" stroke="black" d="M2019.4,-243.81C2060.8,-222.47 2131.5,-186.05 2176.7,-162.77"/>
<polygon fill="black" stroke="black" points="2178.4,-165.83 2185.7,-158.16 2175.2,-159.6 2178.4,-165.83"/>
</g>
<!-- n12 -->
<g id="node12" class="node">
<title>n12</title>
<polygon fill="#f28e8e" stroke="black" points="821.5,-36 504.5,-36 504.5,0 821.5,0 821.5,-36"/>
<text text-anchor="middle" x="663" y="-14.3" font-family="Arial" font-size="14.00">Add unique plants/animals specific to each habitat</text>
</g>
<!-- n8&#45;&gt;n12 -->
<g id="edge11" class="edge">
<title>n8&#45;&gt;n12</title>
<path fill="none" stroke="black" d="M663,-121.81C663,-102.11 663,-69.58 663,-46.39"/>
<polygon fill="black" stroke="black" points="666.5,-46.16 663,-36.16 659.5,-46.16 666.5,-46.16"/>
</g>
<!-- n13 -->
<g id="node13" class="node">
<title>n13</title>
<polygon fill="#f28e8e" stroke="black" points="1844,-36 1536,-36 1536,0 1844,0 1844,-36"/>
<text text-anchor="middle" x="1690" y="-14.3" font-family="Arial" font-size="14.00">Use more diverse plants for each specific habitat</text>
</g>
<!-- n10&#45;&gt;n13 -->
<g id="edge12" class="edge">
<title>n10&#45;&gt;n13</title>
<path fill="none" stroke="black" d="M1690,-121.81C1690,-102.11 1690,-69.58 1690,-46.39"/>
<polygon fill="black" stroke="black" points="1693.5,-46.16 1690,-36.16 1686.5,-46.16 1693.5,-46.16"/>
</g>
</g>
</svg>
