<?xml version="1.0" encoding="UTF-8" standalone="no"?>
<!DOCTYPE svg PUBLIC "-//W3C//DTD SVG 1.1//EN"
 "http://www.w3.org/Graphics/SVG/1.1/DTD/svg11.dtd">
<!-- Generated by graphviz version 2.43.0 (0)
 -->
<!-- Pages: 1 -->
<svg width="1519pt" height="410pt"
 viewBox="0.00 0.00 1518.50 410.00" xmlns="http://www.w3.org/2000/svg" xmlns:xlink="http://www.w3.org/1999/xlink">
<g id="graph0" class="graph" transform="scale(1 1) rotate(0) translate(4 406)">
<polygon fill="white" stroke="transparent" points="-4,4 -4,-406 1514.5,-406 1514.5,4 -4,4"/>
<!-- n1 -->
<g id="node1" class="node">
<title>n1</title>
<polygon fill="lightblue" stroke="black" points="847.5,-384 733.75,-402 506.25,-402 392.5,-384 506.25,-366 733.75,-366 847.5,-384"/>
<text text-anchor="middle" x="620" y="-380.3" font-family="Arial" font-size="14.00">Illustrate plants with and without water and light.</text>
</g>
<!-- n2 -->
<g id="node2" class="node">
<title>n2</title>
<polygon fill="#fffdd0" stroke="black" points="376,-280 20,-280 20,-244 376,-244 376,-280"/>
<text text-anchor="middle" x="198" y="-258.3" font-family="Arial" font-size="14.00">Healthy plant with tall stem, green leaves, and large sun.</text>
</g>
<!-- n1&#45;&gt;n2 -->
<g id="edge1" class="edge">
<title>n1&#45;&gt;n2</title>
<path fill="none" stroke="black" d="M559.99,-365.93C482.8,-343.99 349,-305.94 267.48,-282.76"/>
<polygon fill="black" stroke="black" points="268.39,-279.38 257.81,-280.01 266.47,-286.11 268.39,-279.38"/>
</g>
<!-- n3 -->
<g id="node3" class="node">
<title>n3</title>
<polygon fill="#fffdd0" stroke="black" points="796.5,-280 443.5,-280 443.5,-244 796.5,-244 796.5,-280"/>
<text text-anchor="middle" x="620" y="-258.3" font-family="Arial" font-size="14.00">Slightly wilted plant with droopy leaves and brown spots.</text>
</g>
<!-- n1&#45;&gt;n3 -->
<g id="edge2" class="edge">
<title>n1&#45;&gt;n3</title>
<path fill="none" stroke="black" d="M620,-365.81C620,-346.11 620,-313.58 620,-290.39"/>
<polygon fill="black" stroke="black" points="623.5,-290.16 620,-280.16 616.5,-290.16 623.5,-290.16"/>
</g>
<!-- n4 -->
<g id="node4" class="node">
<title>n4</title>
<polygon fill="#fffdd0" stroke="black" points="1235.5,-280 948.5,-280 948.5,-244 1235.5,-244 1235.5,-280"/>
<text text-anchor="middle" x="1092" y="-258.3" font-family="Arial" font-size="14.00">Plant with fewer sun rays but still a large sun.</text>
</g>
<!-- n1&#45;&gt;n4 -->
<g id="edge3" class="edge">
<title>n1&#45;&gt;n4</title>
<path fill="none" stroke="black" d="M687.12,-365.93C773.81,-343.9 924.33,-305.63 1015.4,-282.48"/>
<polygon fill="black" stroke="black" points="1016.27,-285.87 1025.1,-280.01 1014.55,-279.09 1016.27,-285.87"/>
</g>
<!-- n5 -->
<g id="node5" class="node">
<title>n5</title>
<path fill="palegreen" stroke="black" d="M366,-158C366,-158 12,-158 12,-158 6,-158 0,-152 0,-146 0,-146 0,-134 0,-134 0,-128 6,-122 12,-122 12,-122 366,-122 366,-122 372,-122 378,-128 378,-134 378,-134 378,-146 378,-146 378,-152 372,-158 366,-158"/>
<text text-anchor="middle" x="189" y="-136.3" font-family="Arial" font-size="14.00">Understands plants need water and sunlight to grow healthy.</text>
</g>
<!-- n2&#45;&gt;n5 -->
<g id="edge4" class="edge">
<title>n2&#45;&gt;n5</title>
<path fill="none" stroke="black" d="M196.71,-243.81C195.23,-224.11 192.79,-191.58 191.05,-168.39"/>
<polygon fill="black" stroke="black" points="194.52,-167.87 190.29,-158.16 187.54,-168.39 194.52,-167.87"/>
</g>
<!-- n6 -->
<g id="node6" class="node">
<title>n6</title>
<path fill="palegreen" stroke="black" d="M791.5,-158C791.5,-158 448.5,-158 448.5,-158 442.5,-158 436.5,-152 436.5,-146 436.5,-146 436.5,-134 436.5,-134 436.5,-128 442.5,-122 448.5,-122 448.5,-122 791.5,-122 791.5,-122 797.5,-122 803.5,-128 803.5,-134 803.5,-134 803.5,-146 803.5,-146 803.5,-152 797.5,-158 791.5,-158"/>
<text text-anchor="middle" x="620" y="-136.3" font-family="Arial" font-size="14.00">Understands lack of water causes wilting and brown spots.</text>
</g>
<!-- n3&#45;&gt;n6 -->
<g id="edge5" class="edge">
<title>n3&#45;&gt;n6</title>
<path fill="none" stroke="black" d="M620,-243.81C620,-224.11 620,-191.58 620,-168.39"/>
<polygon fill="black" stroke="black" points="623.5,-168.16 620,-158.16 616.5,-168.16 623.5,-168.16"/>
</g>
<!-- n7 -->
<g id="node7" class="node">
<title>n7</title>
<polygon fill="lightcoral" stroke="black" points="1186,-158 861.5,-140 1186,-122 1510.5,-140 1186,-158"/>
<text text-anchor="middle" x="1186" y="-136.3" font-family="Arial" font-size="14.00">Struggles to show lack of sunlight despite sun presence.</text>
</g>
<!-- n4&#45;&gt;n7 -->
<g id="edge6" class="edge">
<title>n4&#45;&gt;n7</title>
<path fill="none" stroke="black" d="M1105.5,-243.81C1121.6,-223.26 1148.6,-188.74 1166.9,-165.42"/>
<polygon fill="black" stroke="black" points="1169.78,-167.42 1173.2,-157.39 1164.27,-163.1 1169.78,-167.42"/>
</g>
<!-- n8 -->
<g id="node8" class="node">
<title>n8</title>
<polygon fill="#f28e8e" stroke="black" points="1367,-36 1005,-36 1005,0 1367,0 1367,-36"/>
<text text-anchor="middle" x="1186" y="-14.3" font-family="Arial" font-size="14.00">Try drawing a plant without a sun to show lack of sunlight.</text>
</g>
<!-- n7&#45;&gt;n8 -->
<g id="edge7" class="edge">
<title>n7&#45;&gt;n8</title>
<path fill="none" stroke="black" d="M1186,-121.81C1186,-102.11 1186,-69.58 1186,-46.39"/>
<polygon fill="black" stroke="black" points="1189.5,-46.16 1186,-36.16 1182.5,-46.16 1189.5,-46.16"/>
</g>
</g>
</svg>
