<?xml version="1.0" encoding="UTF-8" standalone="no"?>
<!DOCTYPE svg PUBLIC "-//W3C//DTD SVG 1.1//EN"
 "http://www.w3.org/Graphics/SVG/1.1/DTD/svg11.dtd">
<!-- Generated by graphviz version 2.43.0 (0)
 -->
<!-- Pages: 1 -->
<svg width="1598pt" height="532pt"
 viewBox="0.00 0.00 1598.00 532.00" xmlns="http://www.w3.org/2000/svg" xmlns:xlink="http://www.w3.org/1999/xlink">
<g id="graph0" class="graph" transform="scale(1 1) rotate(0) translate(4 528)">
<polygon fill="white" stroke="transparent" points="-4,4 -4,-528 1594,-528 1594,4 -4,4"/>
<!-- n1 -->
<g id="node1" class="node">
<title>n1</title>
<polygon fill="lightblue" stroke="black" points="917,-506 805.5,-524 582.5,-524 471,-506 582.5,-488 805.5,-488 917,-506"/>
<text text-anchor="middle" x="694" y="-502.3" font-family="Arial" font-size="14.00">Draw a string telephone between two students.</text>
</g>
<!-- n2 -->
<g id="node2" class="node">
<title>n2</title>
<polygon fill="#fffdd0" stroke="black" points="255.5,-402 10.5,-402 10.5,-366 255.5,-366 255.5,-402"/>
<text text-anchor="middle" x="133" y="-380.3" font-family="Arial" font-size="14.00">Student 1 holding a cup to their mouth</text>
</g>
<!-- n1&#45;&gt;n2 -->
<g id="edge1" class="edge">
<title>n1&#45;&gt;n2</title>
<path fill="none" stroke="black" d="M614.52,-488C511.04,-465.87 330.69,-427.29 222.51,-404.15"/>
<polygon fill="black" stroke="black" points="223.11,-400.7 212.6,-402.03 221.65,-407.54 223.11,-400.7"/>
</g>
<!-- n3 -->
<g id="node3" class="node">
<title>n3</title>
<polygon fill="#fffdd0" stroke="black" points="540.5,-402 313.5,-402 313.5,-366 540.5,-366 540.5,-402"/>
<text text-anchor="middle" x="427" y="-380.3" font-family="Arial" font-size="14.00">Student 2 holding a cup to their ear</text>
</g>
<!-- n1&#45;&gt;n3 -->
<g id="edge2" class="edge">
<title>n1&#45;&gt;n3</title>
<path fill="none" stroke="black" d="M656.03,-487.93C608.18,-466.43 525.96,-429.48 474.15,-406.19"/>
<polygon fill="black" stroke="black" points="475.4,-402.91 464.84,-402.01 472.53,-409.3 475.4,-402.91"/>
</g>
<!-- n4 -->
<g id="node4" class="node">
<title>n4</title>
<polygon fill="#fffdd0" stroke="black" points="789,-402 599,-402 599,-366 789,-366 789,-402"/>
<text text-anchor="middle" x="694" y="-380.3" font-family="Arial" font-size="14.00">Straight line labeled as string</text>
</g>
<!-- n1&#45;&gt;n4 -->
<g id="edge3" class="edge">
<title>n1&#45;&gt;n4</title>
<path fill="none" stroke="black" d="M694,-487.81C694,-468.11 694,-435.58 694,-412.39"/>
<polygon fill="black" stroke="black" points="697.5,-412.16 694,-402.16 690.5,-412.16 697.5,-412.16"/>
</g>
<!-- n5 -->
<g id="node5" class="node">
<title>n5</title>
<polygon fill="#fffdd0" stroke="black" points="1091,-402 891,-402 891,-366 1091,-366 1091,-402"/>
<text text-anchor="middle" x="991" y="-380.3" font-family="Arial" font-size="14.00">Dashed lines around the string</text>
</g>
<!-- n1&#45;&gt;n5 -->
<g id="edge4" class="edge">
<title>n1&#45;&gt;n5</title>
<path fill="none" stroke="black" d="M736.24,-487.93C789.79,-466.3 882.06,-429.02 939.63,-405.76"/>
<polygon fill="black" stroke="black" points="940.95,-409 948.91,-402.01 938.33,-402.51 940.95,-409"/>
</g>
<!-- n6 -->
<g id="node6" class="node">
<title>n6</title>
<polygon fill="#fffdd0" stroke="black" points="1389.5,-402 1270.5,-402 1270.5,-366 1389.5,-366 1389.5,-402"/>
<text text-anchor="middle" x="1330" y="-380.3" font-family="Arial" font-size="14.00">Cups are labeled</text>
</g>
<!-- n1&#45;&gt;n6 -->
<g id="edge5" class="edge">
<title>n1&#45;&gt;n6</title>
<path fill="none" stroke="black" d="M784.11,-488C912.18,-463.83 1144.1,-420.07 1260.1,-398.19"/>
<polygon fill="black" stroke="black" points="1261.12,-401.56 1270.3,-396.27 1259.83,-394.68 1261.12,-401.56"/>
</g>
<!-- n7 -->
<g id="node7" class="node">
<title>n7</title>
<path fill="palegreen" stroke="black" d="M254,-280C254,-280 12,-280 12,-280 6,-280 0,-274 0,-268 0,-268 0,-256 0,-256 0,-250 6,-244 12,-244 12,-244 254,-244 254,-244 260,-244 266,-250 266,-256 266,-256 266,-268 266,-268 266,-274 260,-280 254,-280"/>
<text text-anchor="middle" x="133" y="-258.3" font-family="Arial" font-size="14.00">Understand communication over distance</text>
</g>
<!-- n2&#45;&gt;n7 -->
<g id="edge6" class="edge">
<title>n2&#45;&gt;n7</title>
<path fill="none" stroke="black" d="M133,-365.81C133,-346.11 133,-313.58 133,-290.39"/>
<polygon fill="black" stroke="black" points="136.5,-290.16 133,-280.16 129.5,-290.16 136.5,-290.16"/>
</g>
<!-- n3&#45;&gt;n7 -->
<g id="edge7" class="edge">
<title>n3&#45;&gt;n7</title>
<path fill="none" stroke="black" d="M385.19,-365.93C332.29,-344.34 241.22,-307.17 184.21,-283.9"/>
<polygon fill="black" stroke="black" points="185.25,-280.54 174.67,-280.01 182.61,-287.03 185.25,-280.54"/>
</g>
<!-- n8 -->
<g id="node8" class="node">
<title>n8</title>
<polygon fill="lightcoral" stroke="black" points="541,-280 324,-262 541,-244 758,-262 541,-280"/>
<text text-anchor="middle" x="541" y="-258.3" font-family="Arial" font-size="14.00">Partial understanding of sound travel</text>
</g>
<!-- n4&#45;&gt;n8 -->
<g id="edge8" class="edge">
<title>n4&#45;&gt;n8</title>
<path fill="none" stroke="black" d="M672.08,-365.81C644.89,-344.48 598.5,-308.1 568.83,-284.83"/>
<polygon fill="black" stroke="black" points="570.96,-282.05 560.93,-278.63 566.64,-287.56 570.96,-282.05"/>
</g>
<!-- n9 -->
<g id="node9" class="node">
<title>n9</title>
<polygon fill="lightcoral" stroke="black" points="1036,-280 816.14,-262 1036,-244 1255.86,-262 1036,-280"/>
<text text-anchor="middle" x="1036" y="-258.3" font-family="Arial" font-size="14.00">Attempt to depict sound transmission</text>
</g>
<!-- n5&#45;&gt;n9 -->
<g id="edge9" class="edge">
<title>n5&#45;&gt;n9</title>
<path fill="none" stroke="black" d="M997.45,-365.81C1004.9,-345.82 1017.4,-312.62 1026.1,-289.37"/>
<polygon fill="black" stroke="black" points="1029.47,-290.36 1029.7,-279.77 1022.91,-287.9 1029.47,-290.36"/>
</g>
<!-- n10 -->
<g id="node10" class="node">
<title>n10</title>
<path fill="palegreen" stroke="black" d="M1578,-280C1578,-280 1326,-280 1326,-280 1320,-280 1314,-274 1314,-268 1314,-268 1314,-256 1314,-256 1314,-250 1320,-244 1326,-244 1326,-244 1578,-244 1578,-244 1584,-244 1590,-250 1590,-256 1590,-256 1590,-268 1590,-268 1590,-274 1584,-280 1578,-280"/>
<text text-anchor="middle" x="1452" y="-258.3" font-family="Arial" font-size="14.00">Labeling demonstrates component function</text>
</g>
<!-- n6&#45;&gt;n10 -->
<g id="edge10" class="edge">
<title>n6&#45;&gt;n10</title>
<path fill="none" stroke="black" d="M1347.5,-365.81C1368.4,-345.22 1403.6,-310.61 1427.3,-287.3"/>
<polygon fill="black" stroke="black" points="1429.9,-289.65 1434.6,-280.16 1425,-284.65 1429.9,-289.65"/>
</g>
<!-- n11 -->
<g id="node11" class="node">
<title>n11</title>
<polygon fill="#f28e8e" stroke="black" points="1126,-158 850,-158 850,-122 1126,-122 1126,-158"/>
<text text-anchor="middle" x="988" y="-136.3" font-family="Arial" font-size="14.00">Clarify how sound travels through the string</text>
</g>
<!-- n8&#45;&gt;n11 -->
<g id="edge11" class="edge">
<title>n8&#45;&gt;n11</title>
<path fill="none" stroke="black" d="M589.69,-247.93C668.06,-226.89 822.69,-185.38 914.53,-160.72"/>
<polygon fill="black" stroke="black" points="915.56,-164.07 924.31,-158.1 913.74,-157.31 915.56,-164.07"/>
</g>
<!-- n12 -->
<g id="node12" class="node">
<title>n12</title>
<polygon fill="lightcoral" stroke="black" points="541,-158 337.73,-140 541,-122 744.27,-140 541,-158"/>
<text text-anchor="middle" x="541" y="-136.3" font-family="Arial" font-size="14.00">Visual cues on the technology use</text>
</g>
<!-- n8&#45;&gt;n12 -->
<g id="edge12" class="edge">
<title>n8&#45;&gt;n12</title>
<path fill="none" stroke="black" d="M541,-243.81C541,-224.11 541,-191.58 541,-168.39"/>
<polygon fill="black" stroke="black" points="544.5,-168.16 541,-158.16 537.5,-168.16 544.5,-168.16"/>
</g>
<!-- n9&#45;&gt;n11 -->
<g id="edge13" class="edge">
<title>n9&#45;&gt;n11</title>
<path fill="none" stroke="black" d="M1029.3,-244.31C1021.4,-224.48 1008,-191.12 998.68,-167.69"/>
<polygon fill="black" stroke="black" points="1001.9,-166.3 994.93,-158.32 995.4,-168.9 1001.9,-166.3"/>
</g>
<!-- n13 -->
<g id="node13" class="node">
<title>n13</title>
<polygon fill="#f28e8e" stroke="black" points="695,-36 387,-36 387,0 695,0 695,-36"/>
<text text-anchor="middle" x="541" y="-14.3" font-family="Arial" font-size="14.00">Enhance depiction of communication technology</text>
</g>
<!-- n12&#45;&gt;n13 -->
<g id="edge14" class="edge">
<title>n12&#45;&gt;n13</title>
<path fill="none" stroke="black" d="M541,-121.81C541,-102.11 541,-69.58 541,-46.39"/>
<polygon fill="black" stroke="black" points="544.5,-46.16 541,-36.16 537.5,-46.16 544.5,-46.16"/>
</g>
</g>
</svg>
