<?xml version="1.0" encoding="UTF-8" standalone="no"?>
<!DOCTYPE svg PUBLIC "-//W3C//DTD SVG 1.1//EN"
 "http://www.w3.org/Graphics/SVG/1.1/DTD/svg11.dtd">
<!-- Generated by graphviz version 2.43.0 (0)
 -->
<!-- Pages: 1 -->
<svg width="1764pt" height="410pt"
 viewBox="0.00 0.00 1763.50 410.00" xmlns="http://www.w3.org/2000/svg" xmlns:xlink="http://www.w3.org/1999/xlink">
<g id="graph0" class="graph" transform="scale(1 1) rotate(0) translate(4 406)">
<polygon fill="white" stroke="transparent" points="-4,4 -4,-406 1759.5,-406 1759.5,4 -4,4"/>
<!-- n1 -->
<g id="node1" class="node">
<title>n1</title>
<polygon fill="lightblue" stroke="black" points="1311.5,-384 1147.5,-402 819.5,-402 655.5,-384 819.5,-366 1147.5,-366 1311.5,-384"/>
<text text-anchor="middle" x="983.5" y="-380.3" font-family="Arial" font-size="14.00">Draw reversible and irreversible changes (ice melting vs. egg cooking)</text>
</g>
<!-- n2 -->
<g id="node2" class="node">
<title>n2</title>
<polygon fill="#fffdd0" stroke="black" points="811.5,-280 611.5,-280 611.5,-244 811.5,-244 811.5,-280"/>
<text text-anchor="middle" x="711.5" y="-258.3" font-family="Arial" font-size="14.00">Left side: Ice turning into water</text>
</g>
<!-- n1&#45;&gt;n2 -->
<g id="edge1" class="edge">
<title>n1&#45;&gt;n2</title>
<path fill="none" stroke="black" d="M944.82,-365.93C895.98,-344.39 811.97,-307.32 759.2,-284.04"/>
<polygon fill="black" stroke="black" points="760.61,-280.84 750.05,-280.01 757.79,-287.24 760.61,-280.84"/>
</g>
<!-- n3 -->
<g id="node3" class="node">
<title>n3</title>
<polygon fill="#fffdd0" stroke="black" points="1464.5,-280 1048.5,-280 1048.5,-244 1464.5,-244 1464.5,-280"/>
<text text-anchor="middle" x="1256.5" y="-258.3" font-family="Arial" font-size="14.00">Right side: Raw egg turning into cooked egg with reversible arrows</text>
</g>
<!-- n1&#45;&gt;n3 -->
<g id="edge2" class="edge">
<title>n1&#45;&gt;n3</title>
<path fill="none" stroke="black" d="M1022.3,-365.93C1071.3,-344.39 1155.7,-307.32 1208.6,-284.04"/>
<polygon fill="black" stroke="black" points="1210.04,-287.23 1217.8,-280.01 1207.24,-280.82 1210.04,-287.23"/>
</g>
<!-- n4 -->
<g id="node4" class="node">
<title>n4</title>
<path fill="palegreen" stroke="black" d="M295,-158C295,-158 12,-158 12,-158 6,-158 0,-152 0,-146 0,-146 0,-134 0,-134 0,-128 6,-122 12,-122 12,-122 295,-122 295,-122 301,-122 307,-128 307,-134 307,-134 307,-146 307,-146 307,-152 301,-158 295,-158"/>
<text text-anchor="middle" x="153.5" y="-136.3" font-family="Arial" font-size="14.00">Correctly shows ice melting, a reversible change</text>
</g>
<!-- n2&#45;&gt;n4 -->
<g id="edge3" class="edge">
<title>n2&#45;&gt;n4</title>
<path fill="none" stroke="black" d="M632.44,-244C529.52,-221.87 350.14,-183.29 242.54,-160.15"/>
<polygon fill="black" stroke="black" points="243.18,-156.71 232.67,-158.03 241.71,-163.55 243.18,-156.71"/>
</g>
<!-- n6 -->
<g id="node5" class="node">
<title>n6</title>
<polygon fill="lightcoral" stroke="black" points="711.5,-158 364.96,-140 711.5,-122 1058.04,-140 711.5,-158"/>
<text text-anchor="middle" x="711.5" y="-136.3" font-family="Arial" font-size="14.00">Incomplete: Missing depiction of water freezing back into ice</text>
</g>
<!-- n2&#45;&gt;n6 -->
<g id="edge4" class="edge">
<title>n2&#45;&gt;n6</title>
<path fill="none" stroke="black" d="M711.5,-243.81C711.5,-224.11 711.5,-191.58 711.5,-168.39"/>
<polygon fill="black" stroke="black" points="715,-168.16 711.5,-158.16 708,-168.16 715,-168.16"/>
</g>
<!-- n5 -->
<g id="node6" class="node">
<title>n5</title>
<polygon fill="lightcoral" stroke="black" points="1435.5,-158 1115.5,-140 1435.5,-122 1755.5,-140 1435.5,-158"/>
<text text-anchor="middle" x="1435.5" y="-136.3" font-family="Arial" font-size="14.00">Misconception: Shows cooked egg reverting to raw egg</text>
</g>
<!-- n3&#45;&gt;n5 -->
<g id="edge5" class="edge">
<title>n3&#45;&gt;n5</title>
<path fill="none" stroke="black" d="M1282.1,-243.81C1314.1,-222.36 1368.8,-185.68 1403.5,-162.43"/>
<polygon fill="black" stroke="black" points="1405.53,-165.28 1411.9,-156.82 1401.64,-159.46 1405.53,-165.28"/>
</g>
<!-- n7 -->
<g id="node7" class="node">
<title>n7</title>
<polygon fill="#f28e8e" stroke="black" points="853.5,-36 569.5,-36 569.5,0 853.5,0 853.5,-36"/>
<text text-anchor="middle" x="711.5" y="-14.3" font-family="Arial" font-size="14.00">Include freezing process to show reversibility</text>
</g>
<!-- n6&#45;&gt;n7 -->
<g id="edge6" class="edge">
<title>n6&#45;&gt;n7</title>
<path fill="none" stroke="black" d="M711.5,-121.81C711.5,-102.11 711.5,-69.58 711.5,-46.39"/>
<polygon fill="black" stroke="black" points="715,-46.16 711.5,-36.16 708,-46.16 715,-46.16"/>
</g>
<!-- n8 -->
<g id="node8" class="node">
<title>n8</title>
<polygon fill="#f28e8e" stroke="black" points="1601.5,-36 1269.5,-36 1269.5,0 1601.5,0 1601.5,-36"/>
<text text-anchor="middle" x="1435.5" y="-14.3" font-family="Arial" font-size="14.00">Explain that cooking an egg is an irreversible change</text>
</g>
<!-- n5&#45;&gt;n8 -->
<g id="edge7" class="edge">
<title>n5&#45;&gt;n8</title>
<path fill="none" stroke="black" d="M1435.5,-121.81C1435.5,-102.11 1435.5,-69.58 1435.5,-46.39"/>
<polygon fill="black" stroke="black" points="1439,-46.16 1435.5,-36.16 1432,-46.16 1439,-46.16"/>
</g>
</g>
</svg>
