<?xml version="1.0" encoding="UTF-8" standalone="no"?>
<!DOCTYPE svg PUBLIC "-//W3C//DTD SVG 1.1//EN"
 "http://www.w3.org/Graphics/SVG/1.1/DTD/svg11.dtd">
<!-- Generated by graphviz version 2.43.0 (0)
 -->
<!-- Pages: 1 -->
<svg width="1112pt" height="410pt"
 viewBox="0.00 0.00 1112.00 410.00" xmlns="http://www.w3.org/2000/svg" xmlns:xlink="http://www.w3.org/1999/xlink">
<g id="graph0" class="graph" transform="scale(1 1) rotate(0) translate(4 406)">
<polygon fill="white" stroke="transparent" points="-4,4 -4,-406 1108,-406 1108,4 -4,4"/>
<!-- n1 -->
<g id="node1" class="node">
<title>n1</title>
<polygon fill="lightblue" stroke="black" points="820,-384 656,-402 328,-402 164,-384 328,-366 656,-366 820,-384"/>
<text text-anchor="middle" x="492" y="-380.3" font-family="Arial" font-size="14.00">Draw reversible and irreversible changes (ice melting vs. egg cooking)</text>
</g>
<!-- n2 -->
<g id="node2" class="node">
<title>n2</title>
<polygon fill="#fffdd0" stroke="black" points="458.5,-280 109.5,-280 109.5,-244 458.5,-244 458.5,-280"/>
<text text-anchor="middle" x="284" y="-258.3" font-family="Arial" font-size="14.00">Blue ice cube melting to light blue water then refreezing</text>
</g>
<!-- n1&#45;&gt;n2 -->
<g id="edge1" class="edge">
<title>n1&#45;&gt;n2</title>
<path fill="none" stroke="black" d="M462.2,-365.81C425.44,-344.6 362.87,-308.5 322.5,-285.21"/>
<polygon fill="black" stroke="black" points="324.16,-282.13 313.75,-280.16 320.66,-288.19 324.16,-282.13"/>
</g>
<!-- n3 -->
<g id="node3" class="node">
<title>n3</title>
<polygon fill="#fffdd0" stroke="black" points="926.5,-280 557.5,-280 557.5,-244 926.5,-244 926.5,-280"/>
<text text-anchor="middle" x="742" y="-258.3" font-family="Arial" font-size="14.00">Raw egg heating and changing to a scrambled cooked egg</text>
</g>
<!-- n1&#45;&gt;n3 -->
<g id="edge2" class="edge">
<title>n1&#45;&gt;n3</title>
<path fill="none" stroke="black" d="M527.55,-365.93C572.26,-344.48 649.02,-307.63 697.55,-284.33"/>
<polygon fill="black" stroke="black" points="699.06,-287.49 706.57,-280.01 696.04,-281.17 699.06,-287.49"/>
</g>
<!-- n4 -->
<g id="node4" class="node">
<title>n4</title>
<path fill="palegreen" stroke="black" d="M392,-158C392,-158 12,-158 12,-158 6,-158 0,-152 0,-146 0,-146 0,-134 0,-134 0,-128 6,-122 12,-122 12,-122 392,-122 392,-122 398,-122 404,-128 404,-134 404,-134 404,-146 404,-146 404,-152 398,-158 392,-158"/>
<text text-anchor="middle" x="202" y="-136.3" font-family="Arial" font-size="14.00">Understanding of reversible changes (ice melting and refreezing)</text>
</g>
<!-- n2&#45;&gt;n4 -->
<g id="edge3" class="edge">
<title>n2&#45;&gt;n4</title>
<path fill="none" stroke="black" d="M272.25,-243.81C258.43,-223.58 235.35,-189.81 219.44,-166.52"/>
<polygon fill="black" stroke="black" points="222.26,-164.44 213.73,-158.16 216.48,-168.39 222.26,-164.44"/>
</g>
<!-- n5 -->
<g id="node5" class="node">
<title>n5</title>
<polygon fill="lightcoral" stroke="black" points="783,-158 462,-140 783,-122 1104,-140 783,-158"/>
<text text-anchor="middle" x="783" y="-136.3" font-family="Arial" font-size="14.00">Misunderstanding of irreversible changes (egg cooking)</text>
</g>
<!-- n3&#45;&gt;n5 -->
<g id="edge4" class="edge">
<title>n3&#45;&gt;n5</title>
<path fill="none" stroke="black" d="M747.87,-243.81C754.7,-223.82 766.05,-190.62 773.99,-167.37"/>
<polygon fill="black" stroke="black" points="777.35,-168.36 777.27,-157.77 770.72,-166.1 777.35,-168.36"/>
</g>
<!-- n6 -->
<g id="node6" class="node">
<title>n6</title>
<polygon fill="#f28e8e" stroke="black" points="969,-36 597,-36 597,0 969,0 969,-36"/>
<text text-anchor="middle" x="783" y="-14.3" font-family="Arial" font-size="14.00">Clarify irreversibility: explain cooked egg can&#39;t return to raw.</text>
</g>
<!-- n5&#45;&gt;n6 -->
<g id="edge5" class="edge">
<title>n5&#45;&gt;n6</title>
<path fill="none" stroke="black" d="M783,-121.81C783,-102.11 783,-69.58 783,-46.39"/>
<polygon fill="black" stroke="black" points="786.5,-46.16 783,-36.16 779.5,-46.16 786.5,-46.16"/>
</g>
</g>
</svg>
