<?xml version="1.0" encoding="UTF-8" standalone="no"?>
<!DOCTYPE svg PUBLIC "-//W3C//DTD SVG 1.1//EN"
 "http://www.w3.org/Graphics/SVG/1.1/DTD/svg11.dtd">
<!-- Generated by graphviz version 2.43.0 (0)
 -->
<!-- Pages: 1 -->
<svg width="1418pt" height="410pt"
 viewBox="0.00 0.00 1418.00 410.00" xmlns="http://www.w3.org/2000/svg" xmlns:xlink="http://www.w3.org/1999/xlink">
<g id="graph0" class="graph" transform="scale(1 1) rotate(0) translate(4 406)">
<polygon fill="white" stroke="transparent" points="-4,4 -4,-406 1414,-406 1414,4 -4,4"/>
<!-- n1 -->
<g id="node1" class="node">
<title>n1</title>
<polygon fill="lightblue" stroke="black" points="727.5,-384 636.25,-402 453.75,-402 362.5,-384 453.75,-366 636.25,-366 727.5,-384"/>
<text text-anchor="middle" x="545" y="-380.3" font-family="Arial" font-size="14.00">Draw a fish in their habitat with labels.</text>
</g>
<!-- n2 -->
<g id="node2" class="node">
<title>n2</title>
<polygon fill="#fffdd0" stroke="black" points="381,-280 261,-280 261,-244 381,-244 381,-280"/>
<text text-anchor="middle" x="321" y="-258.3" font-family="Arial" font-size="14.00">Fish labeled &#39;fish&#39;</text>
</g>
<!-- n1&#45;&gt;n2 -->
<g id="edge1" class="edge">
<title>n1&#45;&gt;n2</title>
<path fill="none" stroke="black" d="M512.91,-365.81C473.15,-344.51 405.37,-308.2 361.92,-284.92"/>
<polygon fill="black" stroke="black" points="363.5,-281.79 353.03,-280.16 360.19,-287.97 363.5,-281.79"/>
</g>
<!-- n3 -->
<g id="node3" class="node">
<title>n3</title>
<polygon fill="#fffdd0" stroke="black" points="616.5,-280 473.5,-280 473.5,-244 616.5,-244 616.5,-280"/>
<text text-anchor="middle" x="545" y="-258.3" font-family="Arial" font-size="14.00">Water labeled &#39;water&#39;</text>
</g>
<!-- n1&#45;&gt;n3 -->
<g id="edge2" class="edge">
<title>n1&#45;&gt;n3</title>
<path fill="none" stroke="black" d="M545,-365.81C545,-346.11 545,-313.58 545,-290.39"/>
<polygon fill="black" stroke="black" points="548.5,-290.16 545,-280.16 541.5,-290.16 548.5,-290.16"/>
</g>
<!-- n4 -->
<g id="node4" class="node">
<title>n4</title>
<polygon fill="#fffdd0" stroke="black" points="1168.5,-280 1037.5,-280 1037.5,-244 1168.5,-244 1168.5,-280"/>
<text text-anchor="middle" x="1103" y="-258.3" font-family="Arial" font-size="14.00">Food labeled &#39;food&#39;</text>
</g>
<!-- n1&#45;&gt;n4 -->
<g id="edge3" class="edge">
<title>n1&#45;&gt;n4</title>
<path fill="none" stroke="black" d="M624.06,-366C731.39,-342.92 921.88,-301.95 1027.4,-279.26"/>
<polygon fill="black" stroke="black" points="1028.27,-282.65 1037.3,-277.12 1026.79,-275.81 1028.27,-282.65"/>
</g>
<!-- n5 -->
<g id="node5" class="node">
<title>n5</title>
<path fill="palegreen" stroke="black" d="M198,-158C198,-158 12,-158 12,-158 6,-158 0,-152 0,-146 0,-146 0,-134 0,-134 0,-128 6,-122 12,-122 12,-122 198,-122 198,-122 204,-122 210,-128 210,-134 210,-134 210,-146 210,-146 210,-152 204,-158 198,-158"/>
<text text-anchor="middle" x="105" y="-136.3" font-family="Arial" font-size="14.00">Understands fish is a living thing</text>
</g>
<!-- n2&#45;&gt;n5 -->
<g id="edge4" class="edge">
<title>n2&#45;&gt;n5</title>
<path fill="none" stroke="black" d="M290.05,-243.81C251.8,-222.55 186.63,-186.35 144.72,-163.07"/>
<polygon fill="black" stroke="black" points="146.33,-159.96 135.89,-158.16 142.93,-166.08 146.33,-159.96"/>
</g>
<!-- n6 -->
<g id="node6" class="node">
<title>n6</title>
<path fill="palegreen" stroke="black" d="M448,-158C448,-158 280,-158 280,-158 274,-158 268,-152 268,-146 268,-146 268,-134 268,-134 268,-128 274,-122 280,-122 280,-122 448,-122 448,-122 454,-122 460,-128 460,-134 460,-134 460,-146 460,-146 460,-152 454,-158 448,-158"/>
<text text-anchor="middle" x="364" y="-136.3" font-family="Arial" font-size="14.00">Understands water as habitat</text>
</g>
<!-- n3&#45;&gt;n6 -->
<g id="edge5" class="edge">
<title>n3&#45;&gt;n6</title>
<path fill="none" stroke="black" d="M519.07,-243.81C487.35,-222.78 433.55,-187.11 398.39,-163.8"/>
<polygon fill="black" stroke="black" points="400.15,-160.77 389.88,-158.16 396.28,-166.6 400.15,-160.77"/>
</g>
<!-- n8 -->
<g id="node7" class="node">
<title>n8</title>
<polygon fill="lightcoral" stroke="black" points="810,-158 517.5,-140 810,-122 1102.5,-140 810,-158"/>
<text text-anchor="middle" x="810" y="-136.3" font-family="Arial" font-size="14.00">Relationships in fish&#39;s environment are incomplete</text>
</g>
<!-- n3&#45;&gt;n8 -->
<g id="edge6" class="edge">
<title>n3&#45;&gt;n8</title>
<path fill="none" stroke="black" d="M582.69,-243.93C631.52,-221.82 716.43,-183.37 767.5,-160.24"/>
<polygon fill="black" stroke="black" points="768.96,-163.42 776.63,-156.11 766.08,-157.04 768.96,-163.42"/>
</g>
<!-- n7 -->
<g id="node8" class="node">
<title>n7</title>
<path fill="palegreen" stroke="black" d="M1398,-158C1398,-158 1172,-158 1172,-158 1166,-158 1160,-152 1160,-146 1160,-146 1160,-134 1160,-134 1160,-128 1166,-122 1172,-122 1172,-122 1398,-122 1398,-122 1404,-122 1410,-128 1410,-134 1410,-134 1410,-146 1410,-146 1410,-152 1404,-158 1398,-158"/>
<text text-anchor="middle" x="1285" y="-136.3" font-family="Arial" font-size="14.00">Understands fish needs food to survive</text>
</g>
<!-- n4&#45;&gt;n7 -->
<g id="edge7" class="edge">
<title>n4&#45;&gt;n7</title>
<path fill="none" stroke="black" d="M1129.1,-243.81C1161,-222.78 1215.1,-187.11 1250.4,-163.8"/>
<polygon fill="black" stroke="black" points="1252.56,-166.57 1259,-158.16 1248.72,-160.72 1252.56,-166.57"/>
</g>
<!-- n9 -->
<g id="node9" class="node">
<title>n9</title>
<polygon fill="#f28e8e" stroke="black" points="981,-36 639,-36 639,0 981,0 981,-36"/>
<text text-anchor="middle" x="810" y="-14.3" font-family="Arial" font-size="14.00">Learn about oxygen exchange and plant role in habitat</text>
</g>
<!-- n8&#45;&gt;n9 -->
<g id="edge8" class="edge">
<title>n8&#45;&gt;n9</title>
<path fill="none" stroke="black" d="M810,-121.81C810,-102.11 810,-69.58 810,-46.39"/>
<polygon fill="black" stroke="black" points="813.5,-46.16 810,-36.16 806.5,-46.16 813.5,-46.16"/>
</g>
</g>
</svg>
