<?xml version="1.0" encoding="UTF-8" standalone="no"?>
<!DOCTYPE svg PUBLIC "-//W3C//DTD SVG 1.1//EN"
 "http://www.w3.org/Graphics/SVG/1.1/DTD/svg11.dtd">
<!-- Generated by graphviz version 2.43.0 (0)
 -->
<!-- Pages: 1 -->
<svg width="1181pt" height="288pt"
 viewBox="0.00 0.00 1180.50 288.00" xmlns="http://www.w3.org/2000/svg" xmlns:xlink="http://www.w3.org/1999/xlink">
<g id="graph0" class="graph" transform="scale(1 1) rotate(0) translate(4 284)">
<polygon fill="white" stroke="transparent" points="-4,4 -4,-284 1176.5,-284 1176.5,4 -4,4"/>
<!-- n1 -->
<g id="node1" class="node">
<title>n1</title>
<polygon fill="lightblue" stroke="black" points="780.74,-262 687.62,-280 501.38,-280 408.26,-262 501.38,-244 687.62,-244 780.74,-262"/>
<text text-anchor="middle" x="594.5" y="-258.3" font-family="Arial" font-size="14.00">Illustrate plants with and without water.</text>
</g>
<!-- n2 -->
<g id="node2" class="node">
<title>n2</title>
<polygon fill="#fffdd0" stroke="black" points="356,-158 33,-158 33,-122 356,-122 356,-158"/>
<text text-anchor="middle" x="194.5" y="-136.3" font-family="Arial" font-size="14.00">Healthy plant with tall stem and bright green leaves</text>
</g>
<!-- n1&#45;&gt;n2 -->
<g id="edge1" class="edge">
<title>n1&#45;&gt;n2</title>
<path fill="none" stroke="black" d="M537.61,-243.93C464.6,-222.03 338.14,-184.09 260.83,-160.9"/>
<polygon fill="black" stroke="black" points="261.77,-157.53 251.19,-158.01 259.76,-164.23 261.77,-157.53"/>
</g>
<!-- n3 -->
<g id="node3" class="node">
<title>n3</title>
<polygon fill="#fffdd0" stroke="black" points="764.5,-158 424.5,-158 424.5,-122 764.5,-122 764.5,-158"/>
<text text-anchor="middle" x="594.5" y="-136.3" font-family="Arial" font-size="14.00">Wilted plant with bent stems and drooping, dull leaves</text>
</g>
<!-- n1&#45;&gt;n3 -->
<g id="edge2" class="edge">
<title>n1&#45;&gt;n3</title>
<path fill="none" stroke="black" d="M594.5,-243.81C594.5,-224.11 594.5,-191.58 594.5,-168.39"/>
<polygon fill="black" stroke="black" points="598,-168.16 594.5,-158.16 591,-168.16 598,-168.16"/>
</g>
<!-- n4 -->
<g id="node4" class="node">
<title>n4</title>
<polygon fill="#fffdd0" stroke="black" points="1068.5,-158 856.5,-158 856.5,-122 1068.5,-122 1068.5,-158"/>
<text text-anchor="middle" x="962.5" y="-136.3" font-family="Arial" font-size="14.00">Sun shining down on both plants</text>
</g>
<!-- n1&#45;&gt;n4 -->
<g id="edge3" class="edge">
<title>n1&#45;&gt;n4</title>
<path fill="none" stroke="black" d="M646.83,-243.93C713.74,-222.12 829.4,-184.4 900.6,-161.18"/>
<polygon fill="black" stroke="black" points="901.92,-164.43 910.35,-158.01 899.76,-157.77 901.92,-164.43"/>
</g>
<!-- n5 -->
<g id="node5" class="node">
<title>n5</title>
<path fill="palegreen" stroke="black" d="M355,-36C355,-36 12,-36 12,-36 6,-36 0,-30 0,-24 0,-24 0,-12 0,-12 0,-6 6,0 12,0 12,0 355,0 355,0 361,0 367,-6 367,-12 367,-12 367,-24 367,-24 367,-30 361,-36 355,-36"/>
<text text-anchor="middle" x="183.5" y="-14.3" font-family="Arial" font-size="14.00">Understands that water helps plants stay healthy and grow</text>
</g>
<!-- n2&#45;&gt;n5 -->
<g id="edge4" class="edge">
<title>n2&#45;&gt;n5</title>
<path fill="none" stroke="black" d="M192.92,-121.81C191.12,-102.11 188.14,-69.58 186.01,-46.39"/>
<polygon fill="black" stroke="black" points="189.47,-45.8 185.07,-36.16 182.5,-46.44 189.47,-45.8"/>
</g>
<!-- n6 -->
<g id="node6" class="node">
<title>n6</title>
<path fill="palegreen" stroke="black" d="M752,-36C752,-36 437,-36 437,-36 431,-36 425,-30 425,-24 425,-24 425,-12 425,-12 425,-6 431,0 437,0 437,0 752,0 752,0 758,0 764,-6 764,-12 764,-12 764,-24 764,-24 764,-30 758,-36 752,-36"/>
<text text-anchor="middle" x="594.5" y="-14.3" font-family="Arial" font-size="14.00">Understands the visual effects of lack of water (wilted)</text>
</g>
<!-- n3&#45;&gt;n6 -->
<g id="edge5" class="edge">
<title>n3&#45;&gt;n6</title>
<path fill="none" stroke="black" d="M594.5,-121.81C594.5,-102.11 594.5,-69.58 594.5,-46.39"/>
<polygon fill="black" stroke="black" points="598,-46.16 594.5,-36.16 591,-46.16 598,-46.16"/>
</g>
<!-- n7 -->
<g id="node7" class="node">
<title>n7</title>
<path fill="palegreen" stroke="black" d="M1160.5,-36C1160.5,-36 834.5,-36 834.5,-36 828.5,-36 822.5,-30 822.5,-24 822.5,-24 822.5,-12 822.5,-12 822.5,-6 828.5,0 834.5,0 834.5,0 1160.5,0 1160.5,0 1166.5,0 1172.5,-6 1172.5,-12 1172.5,-12 1172.5,-24 1172.5,-24 1172.5,-30 1166.5,-36 1160.5,-36"/>
<text text-anchor="middle" x="997.5" y="-14.3" font-family="Arial" font-size="14.00">Demonstrates that plants need sunlight to live and grow</text>
</g>
<!-- n4&#45;&gt;n7 -->
<g id="edge6" class="edge">
<title>n4&#45;&gt;n7</title>
<path fill="none" stroke="black" d="M967.51,-121.81C973.31,-101.94 982.92,-68.99 989.69,-45.76"/>
<polygon fill="black" stroke="black" points="993.05,-46.74 992.49,-36.16 986.33,-44.78 993.05,-46.74"/>
</g>
</g>
</svg>
