<?xml version="1.0" encoding="UTF-8" standalone="no"?>
<!DOCTYPE svg PUBLIC "-//W3C//DTD SVG 1.1//EN"
 "http://www.w3.org/Graphics/SVG/1.1/DTD/svg11.dtd">
<!-- Generated by graphviz version 2.43.0 (0)
 -->
<!-- Pages: 1 -->
<svg width="1676pt" height="288pt"
 viewBox="0.00 0.00 1675.50 288.00" xmlns="http://www.w3.org/2000/svg" xmlns:xlink="http://www.w3.org/1999/xlink">
<g id="graph0" class="graph" transform="scale(1 1) rotate(0) translate(4 284)">
<polygon fill="white" stroke="transparent" points="-4,4 -4,-284 1671.5,-284 1671.5,4 -4,4"/>
<!-- n1 -->
<g id="node1" class="node">
<title>n1</title>
<polygon fill="lightblue" stroke="black" points="1057,-262 943.25,-280 715.75,-280 602,-262 715.75,-244 943.25,-244 1057,-262"/>
<text text-anchor="middle" x="829.5" y="-258.3" font-family="Arial" font-size="14.00">Illustrate plants with and without water and light.</text>
</g>
<!-- n2 -->
<g id="node2" class="node">
<title>n2</title>
<polygon fill="#fffdd0" stroke="black" points="401,-158 22,-158 22,-122 401,-122 401,-158"/>
<text text-anchor="middle" x="211.5" y="-136.3" font-family="Arial" font-size="14.00">Healthy plants with bright green lush leaves and thick stems.</text>
</g>
<!-- n1&#45;&gt;n2 -->
<g id="edge1" class="edge">
<title>n1&#45;&gt;n2</title>
<path fill="none" stroke="black" d="M741.94,-244C627.61,-221.8 428.08,-183.05 309.03,-159.94"/>
<polygon fill="black" stroke="black" points="309.67,-156.5 299.19,-158.03 308.34,-163.37 309.67,-156.5"/>
</g>
<!-- n3 -->
<g id="node3" class="node">
<title>n3</title>
<polygon fill="#fffdd0" stroke="black" points="776.5,-158 458.5,-158 458.5,-122 776.5,-122 776.5,-158"/>
<text text-anchor="middle" x="617.5" y="-136.3" font-family="Arial" font-size="14.00">Unhealthy plants with drooping, light green leaves.</text>
</g>
<!-- n1&#45;&gt;n3 -->
<g id="edge2" class="edge">
<title>n1&#45;&gt;n3</title>
<path fill="none" stroke="black" d="M799.13,-243.81C761.66,-222.6 697.89,-186.5 656.74,-163.21"/>
<polygon fill="black" stroke="black" points="658.25,-160.04 647.82,-158.16 654.8,-166.13 658.25,-160.04"/>
</g>
<!-- n4 -->
<g id="node4" class="node">
<title>n4</title>
<polygon fill="#fffdd0" stroke="black" points="1250.5,-158 834.5,-158 834.5,-122 1250.5,-122 1250.5,-158"/>
<text text-anchor="middle" x="1042.5" y="-136.3" font-family="Arial" font-size="14.00">Adequate water and light indicated by blue droplets and bright sun.</text>
</g>
<!-- n1&#45;&gt;n4 -->
<g id="edge3" class="edge">
<title>n1&#45;&gt;n4</title>
<path fill="none" stroke="black" d="M860.02,-243.81C897.66,-222.6 961.73,-186.5 1003.1,-163.21"/>
<polygon fill="black" stroke="black" points="1005.03,-166.14 1012,-158.16 1001.58,-160.05 1005.03,-166.14"/>
</g>
<!-- n5 -->
<g id="node5" class="node">
<title>n5</title>
<polygon fill="#fffdd0" stroke="black" points="1652.5,-158 1308.5,-158 1308.5,-122 1652.5,-122 1652.5,-158"/>
<text text-anchor="middle" x="1480.5" y="-136.3" font-family="Arial" font-size="14.00">Poor conditions indicated by gray sky and cracked soil.</text>
</g>
<!-- n1&#45;&gt;n5 -->
<g id="edge4" class="edge">
<title>n1&#45;&gt;n5</title>
<path fill="none" stroke="black" d="M921.74,-244C1042.3,-221.78 1252.8,-182.98 1378.1,-159.87"/>
<polygon fill="black" stroke="black" points="1378.9,-163.28 1388.1,-158.03 1377.63,-156.4 1378.9,-163.28"/>
</g>
<!-- n6 -->
<g id="node6" class="node">
<title>n6</title>
<path fill="palegreen" stroke="black" d="M411,-36C411,-36 12,-36 12,-36 6,-36 0,-30 0,-24 0,-24 0,-12 0,-12 0,-6 6,0 12,0 12,0 411,0 411,0 417,0 423,-6 423,-12 423,-12 423,-24 423,-24 423,-30 417,-36 411,-36"/>
<text text-anchor="middle" x="211.5" y="-14.3" font-family="Arial" font-size="14.00">Understands that plants need plenty of water and light to be healthy.</text>
</g>
<!-- n2&#45;&gt;n6 -->
<g id="edge5" class="edge">
<title>n2&#45;&gt;n6</title>
<path fill="none" stroke="black" d="M211.5,-121.81C211.5,-102.11 211.5,-69.58 211.5,-46.39"/>
<polygon fill="black" stroke="black" points="215,-46.16 211.5,-36.16 208,-46.16 215,-46.16"/>
</g>
<!-- n7 -->
<g id="node7" class="node">
<title>n7</title>
<path fill="palegreen" stroke="black" d="M737,-36C737,-36 498,-36 498,-36 492,-36 486,-30 486,-24 486,-24 486,-12 486,-12 486,-6 492,0 498,0 498,0 737,0 737,0 743,0 749,-6 749,-12 749,-12 749,-24 749,-24 749,-30 743,-36 737,-36"/>
<text text-anchor="middle" x="617.5" y="-14.3" font-family="Arial" font-size="14.00">Recognizes lack of water leads to wilting.</text>
</g>
<!-- n3&#45;&gt;n7 -->
<g id="edge6" class="edge">
<title>n3&#45;&gt;n7</title>
<path fill="none" stroke="black" d="M617.5,-121.81C617.5,-102.11 617.5,-69.58 617.5,-46.39"/>
<polygon fill="black" stroke="black" points="621,-46.16 617.5,-36.16 614,-46.16 621,-46.16"/>
</g>
<!-- n8 -->
<g id="node8" class="node">
<title>n8</title>
<path fill="palegreen" stroke="black" d="M1181.5,-36C1181.5,-36 903.5,-36 903.5,-36 897.5,-36 891.5,-30 891.5,-24 891.5,-24 891.5,-12 891.5,-12 891.5,-6 897.5,0 903.5,0 903.5,0 1181.5,0 1181.5,0 1187.5,0 1193.5,-6 1193.5,-12 1193.5,-12 1193.5,-24 1193.5,-24 1193.5,-30 1187.5,-36 1181.5,-36"/>
<text text-anchor="middle" x="1042.5" y="-14.3" font-family="Arial" font-size="14.00">Water and light are necessary for plant survival.</text>
</g>
<!-- n4&#45;&gt;n8 -->
<g id="edge7" class="edge">
<title>n4&#45;&gt;n8</title>
<path fill="none" stroke="black" d="M1042.5,-121.81C1042.5,-102.11 1042.5,-69.58 1042.5,-46.39"/>
<polygon fill="black" stroke="black" points="1046,-46.16 1042.5,-36.16 1039,-46.16 1046,-46.16"/>
</g>
<!-- n9 -->
<g id="node9" class="node">
<title>n9</title>
<path fill="palegreen" stroke="black" d="M1655.5,-36C1655.5,-36 1305.5,-36 1305.5,-36 1299.5,-36 1293.5,-30 1293.5,-24 1293.5,-24 1293.5,-12 1293.5,-12 1293.5,-6 1299.5,0 1305.5,0 1305.5,0 1655.5,0 1655.5,0 1661.5,0 1667.5,-6 1667.5,-12 1667.5,-12 1667.5,-24 1667.5,-24 1667.5,-30 1661.5,-36 1655.5,-36"/>
<text text-anchor="middle" x="1480.5" y="-14.3" font-family="Arial" font-size="14.00">Understands that insufficient sunlight results in poor growth.</text>
</g>
<!-- n5&#45;&gt;n9 -->
<g id="edge8" class="edge">
<title>n5&#45;&gt;n9</title>
<path fill="none" stroke="black" d="M1480.5,-121.81C1480.5,-102.11 1480.5,-69.58 1480.5,-46.39"/>
<polygon fill="black" stroke="black" points="1484,-46.16 1480.5,-36.16 1477,-46.16 1484,-46.16"/>
</g>
</g>
</svg>
