<?xml version="1.0" encoding="UTF-8" standalone="no"?>
<!DOCTYPE svg PUBLIC "-//W3C//DTD SVG 1.1//EN"
 "http://www.w3.org/Graphics/SVG/1.1/DTD/svg11.dtd">
<!-- Generated by graphviz version 2.43.0 (0)
 -->
<!-- Pages: 1 -->
<svg width="1206pt" height="288pt"
 viewBox="0.00 0.00 1205.50 288.00" xmlns="http://www.w3.org/2000/svg" xmlns:xlink="http://www.w3.org/1999/xlink">
<g id="graph0" class="graph" transform="scale(1 1) rotate(0) translate(4 284)">
<polygon fill="white" stroke="transparent" points="-4,4 -4,-284 1201.5,-284 1201.5,4 -4,4"/>
<!-- n1 -->
<g id="node1" class="node">
<title>n1</title>
<polygon fill="lightblue" stroke="black" points="681.5,-262 570,-280 347,-280 235.5,-262 347,-244 570,-244 681.5,-262"/>
<text text-anchor="middle" x="458.5" y="-258.3" font-family="Arial" font-size="14.00">Draw a string telephone between two students.</text>
</g>
<!-- n2 -->
<g id="node2" class="node">
<title>n2</title>
<polygon fill="#fffdd0" stroke="black" points="315.5,-158 199.5,-158 199.5,-122 315.5,-122 315.5,-158"/>
<text text-anchor="middle" x="257.5" y="-136.3" font-family="Arial" font-size="14.00">Two stick figures</text>
</g>
<!-- n1&#45;&gt;n2 -->
<g id="edge1" class="edge">
<title>n1&#45;&gt;n2</title>
<path fill="none" stroke="black" d="M429.7,-243.81C394.33,-222.69 334.22,-186.81 295.2,-163.51"/>
<polygon fill="black" stroke="black" points="296.62,-160.28 286.24,-158.16 293.03,-166.29 296.62,-160.28"/>
</g>
<!-- n3 -->
<g id="node3" class="node">
<title>n3</title>
<polygon fill="#fffdd0" stroke="black" points="141,-158 0,-158 0,-122 141,-122 141,-158"/>
<text text-anchor="middle" x="70.5" y="-136.3" font-family="Arial" font-size="14.00">Figures holding cups</text>
</g>
<!-- n1&#45;&gt;n3 -->
<g id="edge2" class="edge">
<title>n1&#45;&gt;n3</title>
<path fill="none" stroke="black" d="M403.32,-243.93C332.64,-222.07 210.33,-184.25 135.3,-161.04"/>
<polygon fill="black" stroke="black" points="136.08,-157.62 125.49,-158.01 134.01,-164.31 136.08,-157.62"/>
</g>
<!-- n4 -->
<g id="node4" class="node">
<title>n4</title>
<polygon fill="#fffdd0" stroke="black" points="543,-158 374,-158 374,-122 543,-122 543,-158"/>
<text text-anchor="middle" x="458.5" y="-136.3" font-family="Arial" font-size="14.00">Cups connected by string</text>
</g>
<!-- n1&#45;&gt;n4 -->
<g id="edge3" class="edge">
<title>n1&#45;&gt;n4</title>
<path fill="none" stroke="black" d="M458.5,-243.81C458.5,-224.11 458.5,-191.58 458.5,-168.39"/>
<polygon fill="black" stroke="black" points="462,-168.16 458.5,-158.16 455,-168.16 462,-168.16"/>
</g>
<!-- n5 -->
<g id="node5" class="node">
<title>n5</title>
<polygon fill="#fffdd0" stroke="black" points="885.5,-158 601.5,-158 601.5,-122 885.5,-122 885.5,-158"/>
<text text-anchor="middle" x="743.5" y="-136.3" font-family="Arial" font-size="14.00">Arrows around string indicating sound waves</text>
</g>
<!-- n1&#45;&gt;n5 -->
<g id="edge4" class="edge">
<title>n1&#45;&gt;n5</title>
<path fill="none" stroke="black" d="M499.03,-243.93C550.31,-222.34 638.59,-185.17 693.86,-161.9"/>
<polygon fill="black" stroke="black" points="695.25,-165.11 703.11,-158.01 692.54,-158.66 695.25,-165.11"/>
</g>
<!-- n6 -->
<g id="node6" class="node">
<title>n6</title>
<polygon fill="#fffdd0" stroke="black" points="1197.5,-158 943.5,-158 943.5,-122 1197.5,-122 1197.5,-158"/>
<text text-anchor="middle" x="1070.5" y="-136.3" font-family="Arial" font-size="14.00">&#39;Vibrations travel through the string&#39; text</text>
</g>
<!-- n1&#45;&gt;n6 -->
<g id="edge5" class="edge">
<title>n1&#45;&gt;n6</title>
<path fill="none" stroke="black" d="M545.21,-244C658.31,-221.82 855.63,-183.13 973.56,-160.01"/>
<polygon fill="black" stroke="black" points="974.52,-163.39 983.66,-158.03 973.17,-156.52 974.52,-163.39"/>
</g>
<!-- n7 -->
<g id="node7" class="node">
<title>n7</title>
<path fill="palegreen" stroke="black" d="M316,-36C316,-36 35,-36 35,-36 29,-36 23,-30 23,-24 23,-24 23,-12 23,-12 23,-6 29,0 35,0 35,0 316,0 316,0 322,0 328,-6 328,-12 328,-12 328,-24 328,-24 328,-30 322,-36 316,-36"/>
<text text-anchor="middle" x="175.5" y="-14.3" font-family="Arial" font-size="14.00">Represents communication between two people</text>
</g>
<!-- n2&#45;&gt;n7 -->
<g id="edge6" class="edge">
<title>n2&#45;&gt;n7</title>
<path fill="none" stroke="black" d="M245.75,-121.81C231.93,-101.58 208.85,-67.81 192.94,-44.52"/>
<polygon fill="black" stroke="black" points="195.76,-42.45 187.23,-36.16 189.98,-46.39 195.76,-42.45"/>
</g>
<!-- n3&#45;&gt;n7 -->
<g id="edge7" class="edge">
<title>n3&#45;&gt;n7</title>
<path fill="none" stroke="black" d="M85.54,-121.81C103.4,-101.4 133.32,-67.21 153.7,-43.91"/>
<polygon fill="black" stroke="black" points="156.53,-45.99 160.48,-36.16 151.26,-41.38 156.53,-45.99"/>
</g>
<!-- n8 -->
<g id="node8" class="node">
<title>n8</title>
<path fill="palegreen" stroke="black" d="M970.5,-36C970.5,-36 738.5,-36 738.5,-36 732.5,-36 726.5,-30 726.5,-24 726.5,-24 726.5,-12 726.5,-12 726.5,-6 732.5,0 738.5,0 738.5,0 970.5,0 970.5,0 976.5,0 982.5,-6 982.5,-12 982.5,-12 982.5,-24 982.5,-24 982.5,-30 976.5,-36 970.5,-36"/>
<text text-anchor="middle" x="854.5" y="-14.3" font-family="Arial" font-size="14.00">Illustrates sound traveling through string</text>
</g>
<!-- n4&#45;&gt;n8 -->
<g id="edge8" class="edge">
<title>n4&#45;&gt;n8</title>
<path fill="none" stroke="black" d="M514.82,-121.93C586.95,-100.07 711.78,-62.25 788.36,-39.04"/>
<polygon fill="black" stroke="black" points="789.82,-42.25 798.38,-36.01 787.79,-35.56 789.82,-42.25"/>
</g>
<!-- n9 -->
<g id="node9" class="node">
<title>n9</title>
<path fill="palegreen" stroke="black" d="M656.5,-36C656.5,-36 422.5,-36 422.5,-36 416.5,-36 410.5,-30 410.5,-24 410.5,-24 410.5,-12 410.5,-12 410.5,-6 416.5,0 422.5,0 422.5,0 656.5,0 656.5,0 662.5,0 668.5,-6 668.5,-12 668.5,-12 668.5,-24 668.5,-24 668.5,-30 662.5,-36 656.5,-36"/>
<text text-anchor="middle" x="539.5" y="-14.3" font-family="Arial" font-size="14.00">Correct use of material (cups and string)</text>
</g>
<!-- n4&#45;&gt;n9 -->
<g id="edge9" class="edge">
<title>n4&#45;&gt;n9</title>
<path fill="none" stroke="black" d="M470.11,-121.81C483.76,-101.58 506.56,-67.81 522.27,-44.52"/>
<polygon fill="black" stroke="black" points="525.22,-46.41 527.92,-36.16 519.42,-42.49 525.22,-46.41"/>
</g>
<!-- n5&#45;&gt;n8 -->
<g id="edge10" class="edge">
<title>n5&#45;&gt;n8</title>
<path fill="none" stroke="black" d="M759.4,-121.81C778.36,-101.31 810.18,-66.91 831.74,-43.6"/>
<polygon fill="black" stroke="black" points="834.41,-45.88 838.63,-36.16 829.27,-41.12 834.41,-45.88"/>
</g>
<!-- n5&#45;&gt;n9 -->
<g id="edge11" class="edge">
<title>n5&#45;&gt;n9</title>
<path fill="none" stroke="black" d="M714.27,-121.81C678.29,-100.64 617.11,-64.65 577.51,-41.36"/>
<polygon fill="black" stroke="black" points="579.06,-38.21 568.67,-36.16 575.52,-44.25 579.06,-38.21"/>
</g>
<!-- n6&#45;&gt;n8 -->
<g id="edge12" class="edge">
<title>n6&#45;&gt;n8</title>
<path fill="none" stroke="black" d="M1039.6,-121.81C1001.3,-100.55 936.13,-64.35 894.22,-41.07"/>
<polygon fill="black" stroke="black" points="895.83,-37.96 885.39,-36.16 892.43,-44.08 895.83,-37.96"/>
</g>
<!-- n6&#45;&gt;n9 -->
<g id="edge13" class="edge">
<title>n6&#45;&gt;n9</title>
<path fill="none" stroke="black" d="M995.27,-122C897.53,-99.91 727.31,-61.44 624.85,-38.29"/>
<polygon fill="black" stroke="black" points="625.37,-34.82 614.84,-36.03 623.82,-41.64 625.37,-34.82"/>
</g>
</g>
</svg>
