<?xml version="1.0" encoding="UTF-8" standalone="no"?>
<!DOCTYPE svg PUBLIC "-//W3C//DTD SVG 1.1//EN"
 "http://www.w3.org/Graphics/SVG/1.1/DTD/svg11.dtd">
<!-- Generated by graphviz version 2.43.0 (0)
 -->
<!-- Pages: 1 -->
<svg width="1197pt" height="410pt"
 viewBox="0.00 0.00 1197.05 410.00" xmlns="http://www.w3.org/2000/svg" xmlns:xlink="http://www.w3.org/1999/xlink">
<g id="graph0" class="graph" transform="scale(1 1) rotate(0) translate(4 406)">
<polygon fill="white" stroke="transparent" points="-4,4 -4,-406 1193.05,-406 1193.05,4 -4,4"/>
<!-- n1 -->
<g id="node1" class="node">
<title>n1</title>
<polygon fill="lightblue" stroke="black" points="737.5,-384 626,-402 403,-402 291.5,-384 403,-366 626,-366 737.5,-384"/>
<text text-anchor="middle" x="514.5" y="-380.3" font-family="Arial" font-size="14.00">Draw a string telephone between two students.</text>
</g>
<!-- n2 -->
<g id="node2" class="node">
<title>n2</title>
<polygon fill="#fffdd0" stroke="black" points="302.5,-280 98.5,-280 98.5,-244 302.5,-244 302.5,-280"/>
<text text-anchor="middle" x="200.5" y="-258.3" font-family="Arial" font-size="14.00">Two kids standing on each side</text>
</g>
<!-- n1&#45;&gt;n2 -->
<g id="edge1" class="edge">
<title>n1&#45;&gt;n2</title>
<path fill="none" stroke="black" d="M469.84,-365.93C413.11,-344.25 315.28,-306.86 254.44,-283.61"/>
<polygon fill="black" stroke="black" points="255.59,-280.3 245,-280.01 253.1,-286.84 255.59,-280.3"/>
</g>
<!-- n3 -->
<g id="node3" class="node">
<title>n3</title>
<polygon fill="#fffdd0" stroke="black" points="620.5,-280 408.5,-280 408.5,-244 620.5,-244 620.5,-280"/>
<text text-anchor="middle" x="514.5" y="-258.3" font-family="Arial" font-size="14.00">Crisscrossing lines between kids</text>
</g>
<!-- n1&#45;&gt;n3 -->
<g id="edge2" class="edge">
<title>n1&#45;&gt;n3</title>
<path fill="none" stroke="black" d="M514.5,-365.81C514.5,-346.11 514.5,-313.58 514.5,-290.39"/>
<polygon fill="black" stroke="black" points="518,-290.16 514.5,-280.16 511,-290.16 518,-290.16"/>
</g>
<!-- n4 -->
<g id="node4" class="node">
<title>n4</title>
<polygon fill="#fffdd0" stroke="black" points="1001,-280 756,-280 756,-244 1001,-244 1001,-280"/>
<text text-anchor="middle" x="878.5" y="-258.3" font-family="Arial" font-size="14.00">Random shapes (circles and squares)</text>
</g>
<!-- n1&#45;&gt;n4 -->
<g id="edge3" class="edge">
<title>n1&#45;&gt;n4</title>
<path fill="none" stroke="black" d="M566.27,-365.93C632.44,-344.12 746.85,-306.4 817.28,-283.18"/>
<polygon fill="black" stroke="black" points="818.51,-286.46 826.91,-280.01 816.32,-279.81 818.51,-286.46"/>
</g>
<!-- n5 -->
<g id="node5" class="node">
<title>n5</title>
<path fill="palegreen" stroke="black" d="M293,-158C293,-158 12,-158 12,-158 6,-158 0,-152 0,-146 0,-146 0,-134 0,-134 0,-128 6,-122 12,-122 12,-122 293,-122 293,-122 299,-122 305,-128 305,-134 305,-134 305,-146 305,-146 305,-152 299,-158 293,-158"/>
<text text-anchor="middle" x="152.5" y="-136.3" font-family="Arial" font-size="14.00">Kids represent students using a string telephone</text>
</g>
<!-- n2&#45;&gt;n5 -->
<g id="edge4" class="edge">
<title>n2&#45;&gt;n5</title>
<path fill="none" stroke="black" d="M193.62,-243.81C185.64,-223.85 172.38,-190.7 163.08,-167.45"/>
<polygon fill="black" stroke="black" points="166.33,-166.14 159.36,-158.16 159.83,-168.74 166.33,-166.14"/>
</g>
<!-- n6 -->
<g id="node6" class="node">
<title>n6</title>
<path fill="palegreen" stroke="black" d="M653.5,-158C653.5,-158 375.5,-158 375.5,-158 369.5,-158 363.5,-152 363.5,-146 363.5,-146 363.5,-134 363.5,-134 363.5,-128 369.5,-122 375.5,-122 375.5,-122 653.5,-122 653.5,-122 659.5,-122 665.5,-128 665.5,-134 665.5,-134 665.5,-146 665.5,-146 665.5,-152 659.5,-158 653.5,-158"/>
<text text-anchor="middle" x="514.5" y="-136.3" font-family="Arial" font-size="14.00">Lines might indicate communication connection</text>
</g>
<!-- n3&#45;&gt;n6 -->
<g id="edge5" class="edge">
<title>n3&#45;&gt;n6</title>
<path fill="none" stroke="black" d="M514.5,-243.81C514.5,-224.11 514.5,-191.58 514.5,-168.39"/>
<polygon fill="black" stroke="black" points="518,-168.16 514.5,-158.16 511,-168.16 518,-168.16"/>
</g>
<!-- n7 -->
<g id="node7" class="node">
<title>n7</title>
<polygon fill="lightcoral" stroke="black" points="956.5,-158 723.91,-140 956.5,-122 1189.09,-140 956.5,-158"/>
<text text-anchor="middle" x="956.5" y="-136.3" font-family="Arial" font-size="14.00">Unclear representation of cups or string</text>
</g>
<!-- n4&#45;&gt;n7 -->
<g id="edge6" class="edge">
<title>n4&#45;&gt;n7</title>
<path fill="none" stroke="black" d="M889.68,-243.81C902.91,-223.44 925.08,-189.34 940.22,-166.04"/>
<polygon fill="black" stroke="black" points="943.33,-167.68 945.85,-157.39 937.46,-163.86 943.33,-167.68"/>
</g>
<!-- n8 -->
<g id="node8" class="node">
<title>n8</title>
<polygon fill="#f28e8e" stroke="black" points="1095.5,-36 817.5,-36 817.5,0 1095.5,0 1095.5,-36"/>
<text text-anchor="middle" x="956.5" y="-14.3" font-family="Arial" font-size="14.00">Include clear elements like cups and strings</text>
</g>
<!-- n7&#45;&gt;n8 -->
<g id="edge7" class="edge">
<title>n7&#45;&gt;n8</title>
<path fill="none" stroke="black" d="M956.5,-121.81C956.5,-102.11 956.5,-69.58 956.5,-46.39"/>
<polygon fill="black" stroke="black" points="960,-46.16 956.5,-36.16 953,-46.16 960,-46.16"/>
</g>
</g>
</svg>
