<?xml version="1.0" encoding="UTF-8" standalone="no"?>
<!DOCTYPE svg PUBLIC "-//W3C//DTD SVG 1.1//EN"
 "http://www.w3.org/Graphics/SVG/1.1/DTD/svg11.dtd">
<!-- Generated by graphviz version 2.43.0 (0)
 -->
<!-- Pages: 1 -->
<svg width="1676pt" height="410pt"
 viewBox="0.00 0.00 1676.00 410.00" xmlns="http://www.w3.org/2000/svg" xmlns:xlink="http://www.w3.org/1999/xlink">
<g id="graph0" class="graph" transform="scale(1 1) rotate(0) translate(4 406)">
<polygon fill="white" stroke="transparent" points="-4,4 -4,-406 1672,-406 1672,4 -4,4"/>
<!-- n1 -->
<g id="node1" class="node">
<title>n1</title>
<polygon fill="lightblue" stroke="black" points="969.5,-384 859.5,-402 639.5,-402 529.5,-384 639.5,-366 859.5,-366 969.5,-384"/>
<text text-anchor="middle" x="749.5" y="-380.3" font-family="Arial" font-size="14.00">Draw a string telephone between two students</text>
</g>
<!-- n2 -->
<g id="node2" class="node">
<title>n2</title>
<polygon fill="#fffdd0" stroke="black" points="369,-280 154,-280 154,-244 369,-244 369,-280"/>
<text text-anchor="middle" x="261.5" y="-258.3" font-family="Arial" font-size="14.00">Two students on the left and right</text>
</g>
<!-- n1&#45;&gt;n2 -->
<g id="edge1" class="edge">
<title>n1&#45;&gt;n2</title>
<path fill="none" stroke="black" d="M680.36,-366C590.71,-343.95 434.73,-305.6 340.51,-282.43"/>
<polygon fill="black" stroke="black" points="341.29,-279.02 330.74,-280.03 339.62,-285.81 341.29,-279.02"/>
</g>
<!-- n3 -->
<g id="node3" class="node">
<title>n3</title>
<polygon fill="#fffdd0" stroke="black" points="715.5,-280 479.5,-280 479.5,-244 715.5,-244 715.5,-280"/>
<text text-anchor="middle" x="597.5" y="-258.3" font-family="Arial" font-size="14.00">Cups connected by a taut blue string</text>
</g>
<!-- n1&#45;&gt;n3 -->
<g id="edge2" class="edge">
<title>n1&#45;&gt;n3</title>
<path fill="none" stroke="black" d="M727.72,-365.81C701.31,-344.96 656.67,-309.71 627.14,-286.4"/>
<polygon fill="black" stroke="black" points="629.26,-283.61 619.24,-280.16 624.92,-289.1 629.26,-283.61"/>
</g>
<!-- n4 -->
<g id="node4" class="node">
<title>n4</title>
<polygon fill="#fffdd0" stroke="black" points="1113.5,-280 857.5,-280 857.5,-244 1113.5,-244 1113.5,-280"/>
<text text-anchor="middle" x="985.5" y="-258.3" font-family="Arial" font-size="14.00">Red cups labeled &#39;sender&#39; and &#39;receiver&#39;</text>
</g>
<!-- n1&#45;&gt;n4 -->
<g id="edge3" class="edge">
<title>n1&#45;&gt;n4</title>
<path fill="none" stroke="black" d="M783.06,-365.93C825.09,-344.57 897.12,-307.94 942.97,-284.63"/>
<polygon fill="black" stroke="black" points="944.72,-287.66 952.05,-280.01 941.55,-281.43 944.72,-287.66"/>
</g>
<!-- n5 -->
<g id="node5" class="node">
<title>n5</title>
<polygon fill="#fffdd0" stroke="black" points="1560,-280 1291,-280 1291,-244 1560,-244 1560,-280"/>
<text text-anchor="middle" x="1425.5" y="-258.3" font-family="Arial" font-size="14.00">Green arrows indicating sound movement</text>
</g>
<!-- n1&#45;&gt;n5 -->
<g id="edge4" class="edge">
<title>n1&#45;&gt;n5</title>
<path fill="none" stroke="black" d="M845.28,-366C970.59,-343.75 1189.5,-304.9 1319.6,-281.8"/>
<polygon fill="black" stroke="black" points="1320.36,-285.22 1329.6,-280.03 1319.14,-278.33 1320.36,-285.22"/>
</g>
<!-- n6 -->
<g id="node6" class="node">
<title>n6</title>
<path fill="palegreen" stroke="black" d="M321,-158C321,-158 12,-158 12,-158 6,-158 0,-152 0,-146 0,-146 0,-134 0,-134 0,-128 6,-122 12,-122 12,-122 321,-122 321,-122 327,-122 333,-128 333,-134 333,-134 333,-146 333,-146 333,-152 327,-158 321,-158"/>
<text text-anchor="middle" x="166.5" y="-136.3" font-family="Arial" font-size="14.00">Shows understanding of the communication problem</text>
</g>
<!-- n2&#45;&gt;n6 -->
<g id="edge5" class="edge">
<title>n2&#45;&gt;n6</title>
<path fill="none" stroke="black" d="M247.89,-243.81C231.8,-223.49 204.9,-189.51 186.46,-166.21"/>
<polygon fill="black" stroke="black" points="189.04,-163.83 180.09,-158.16 183.55,-168.17 189.04,-163.83"/>
</g>
<!-- n7 -->
<g id="node7" class="node">
<title>n7</title>
<path fill="palegreen" stroke="black" d="M708,-158C708,-158 403,-158 403,-158 397,-158 391,-152 391,-146 391,-146 391,-134 391,-134 391,-128 397,-122 403,-122 403,-122 708,-122 708,-122 714,-122 720,-128 720,-134 720,-134 720,-146 720,-146 720,-152 714,-158 708,-158"/>
<text text-anchor="middle" x="555.5" y="-136.3" font-family="Arial" font-size="14.00">Design illustrates basic operation of string telephone</text>
</g>
<!-- n3&#45;&gt;n7 -->
<g id="edge6" class="edge">
<title>n3&#45;&gt;n7</title>
<path fill="none" stroke="black" d="M591.48,-243.81C584.53,-223.94 573,-190.99 564.87,-167.76"/>
<polygon fill="black" stroke="black" points="568.12,-166.44 561.51,-158.16 561.51,-168.75 568.12,-166.44"/>
</g>
<!-- n8 -->
<g id="node8" class="node">
<title>n8</title>
<polygon fill="lightcoral" stroke="black" points="1028.5,-158 778.48,-140 1028.5,-122 1278.52,-140 1028.5,-158"/>
<text text-anchor="middle" x="1028.5" y="-136.3" font-family="Arial" font-size="14.00">Incomplete labeling of sender and receiver</text>
</g>
<!-- n4&#45;&gt;n8 -->
<g id="edge7" class="edge">
<title>n4&#45;&gt;n8</title>
<path fill="none" stroke="black" d="M991.66,-243.81C998.82,-223.82 1010.7,-190.62 1019.1,-167.37"/>
<polygon fill="black" stroke="black" points="1022.46,-168.36 1022.5,-157.77 1015.86,-166.03 1022.46,-168.36"/>
</g>
<!-- n9 -->
<g id="node9" class="node">
<title>n9</title>
<path fill="palegreen" stroke="black" d="M1656,-158C1656,-158 1349,-158 1349,-158 1343,-158 1337,-152 1337,-146 1337,-146 1337,-134 1337,-134 1337,-128 1343,-122 1349,-122 1349,-122 1656,-122 1656,-122 1662,-122 1668,-128 1668,-134 1668,-134 1668,-146 1668,-146 1668,-152 1662,-158 1656,-158"/>
<text text-anchor="middle" x="1502.5" y="-136.3" font-family="Arial" font-size="14.00">Correctly uses symbols to indicate sound movement</text>
</g>
<!-- n5&#45;&gt;n9 -->
<g id="edge8" class="edge">
<title>n5&#45;&gt;n9</title>
<path fill="none" stroke="black" d="M1436.5,-243.81C1449.5,-223.67 1471,-190.1 1485.9,-166.83"/>
<polygon fill="black" stroke="black" points="1489.01,-168.46 1491.5,-158.16 1483.13,-164.66 1489.01,-168.46"/>
</g>
<!-- n10 -->
<g id="node10" class="node">
<title>n10</title>
<polygon fill="#f28e8e" stroke="black" points="1139,-36 918,-36 918,0 1139,0 1139,-36"/>
<text text-anchor="middle" x="1028.5" y="-14.3" font-family="Arial" font-size="14.00">Add consistent labeling to all parts</text>
</g>
<!-- n8&#45;&gt;n10 -->
<g id="edge9" class="edge">
<title>n8&#45;&gt;n10</title>
<path fill="none" stroke="black" d="M1028.5,-121.81C1028.5,-102.11 1028.5,-69.58 1028.5,-46.39"/>
<polygon fill="black" stroke="black" points="1032,-46.16 1028.5,-36.16 1025,-46.16 1032,-46.16"/>
</g>
</g>
</svg>
