<?xml version="1.0" encoding="UTF-8" standalone="no"?>
<!DOCTYPE svg PUBLIC "-//W3C//DTD SVG 1.1//EN"
 "http://www.w3.org/Graphics/SVG/1.1/DTD/svg11.dtd">
<!-- Generated by graphviz version 2.43.0 (0)
 -->
<!-- Pages: 1 -->
<svg width="2335pt" height="410pt"
 viewBox="0.00 0.00 2334.50 410.00" xmlns="http://www.w3.org/2000/svg" xmlns:xlink="http://www.w3.org/1999/xlink">
<g id="graph0" class="graph" transform="scale(1 1) rotate(0) translate(4 406)">
<polygon fill="white" stroke="transparent" points="-4,4 -4,-406 2330.5,-406 2330.5,4 -4,4"/>
<!-- n1 -->
<g id="node1" class="node">
<title>n1</title>
<polygon fill="lightblue" stroke="black" points="1221.5,-384 1110,-402 887,-402 775.5,-384 887,-366 1110,-366 1221.5,-384"/>
<text text-anchor="middle" x="998.5" y="-380.3" font-family="Arial" font-size="14.00">Draw a string telephone between two students.</text>
</g>
<!-- n2 -->
<g id="node2" class="node">
<title>n2</title>
<polygon fill="#fffdd0" stroke="black" points="366.5,-280 160.5,-280 160.5,-244 366.5,-244 366.5,-280"/>
<text text-anchor="middle" x="263.5" y="-258.3" font-family="Arial" font-size="14.00">Two students facing each other.</text>
</g>
<!-- n1&#45;&gt;n2 -->
<g id="edge1" class="edge">
<title>n1&#45;&gt;n2</title>
<path fill="none" stroke="black" d="M894.36,-366C757.46,-343.65 517.82,-304.52 376.6,-281.46"/>
<polygon fill="black" stroke="black" points="377.03,-277.98 366.6,-279.83 375.91,-284.89 377.03,-277.98"/>
</g>
<!-- n3 -->
<g id="node3" class="node">
<title>n3</title>
<polygon fill="#fffdd0" stroke="black" points="652.5,-280 480.5,-280 480.5,-244 652.5,-244 652.5,-280"/>
<text text-anchor="middle" x="566.5" y="-258.3" font-family="Arial" font-size="14.00">Each student holds a cup.</text>
</g>
<!-- n1&#45;&gt;n3 -->
<g id="edge2" class="edge">
<title>n1&#45;&gt;n3</title>
<path fill="none" stroke="black" d="M937.06,-365.93C857.97,-343.96 720.8,-305.86 637.37,-282.69"/>
<polygon fill="black" stroke="black" points="638.29,-279.31 627.72,-280.01 636.42,-286.06 638.29,-279.31"/>
</g>
<!-- n4 -->
<g id="node4" class="node">
<title>n4</title>
<polygon fill="#fffdd0" stroke="black" points="991,-280 812,-280 812,-244 991,-244 991,-280"/>
<text text-anchor="middle" x="901.5" y="-258.3" font-family="Arial" font-size="14.00">String connecting the cups.</text>
</g>
<!-- n1&#45;&gt;n4 -->
<g id="edge3" class="edge">
<title>n1&#45;&gt;n4</title>
<path fill="none" stroke="black" d="M984.6,-365.81C968.18,-345.49 940.71,-311.51 921.88,-288.21"/>
<polygon fill="black" stroke="black" points="924.38,-285.73 915.37,-280.16 918.94,-290.14 924.38,-285.73"/>
</g>
<!-- n5 -->
<g id="node5" class="node">
<title>n5</title>
<polygon fill="#fffdd0" stroke="black" points="1225,-280 1130,-280 1130,-244 1225,-244 1225,-280"/>
<text text-anchor="middle" x="1177.5" y="-258.3" font-family="Arial" font-size="14.00">String is taut.</text>
</g>
<!-- n1&#45;&gt;n5 -->
<g id="edge4" class="edge">
<title>n1&#45;&gt;n5</title>
<path fill="none" stroke="black" d="M1024.1,-365.81C1055.5,-344.78 1108.7,-309.11 1143.5,-285.8"/>
<polygon fill="black" stroke="black" points="1145.55,-288.64 1151.9,-280.16 1141.65,-282.83 1145.55,-288.64"/>
</g>
<!-- n6 -->
<g id="node6" class="node">
<title>n6</title>
<polygon fill="#fffdd0" stroke="black" points="1704,-280 1467,-280 1467,-244 1704,-244 1704,-280"/>
<text text-anchor="middle" x="1585.5" y="-258.3" font-family="Arial" font-size="14.00">Wavy lines or arrows suggest sound.</text>
</g>
<!-- n1&#45;&gt;n6 -->
<g id="edge5" class="edge">
<title>n1&#45;&gt;n6</title>
<path fill="none" stroke="black" d="M1081.7,-366C1190,-343.84 1379,-305.21 1492.2,-282.08"/>
<polygon fill="black" stroke="black" points="1493.11,-285.47 1502.2,-280.03 1491.7,-278.61 1493.11,-285.47"/>
</g>
<!-- n7 -->
<g id="node7" class="node">
<title>n7</title>
<polygon fill="#fffdd0" stroke="black" points="2205,-280 1936,-280 1936,-244 2205,-244 2205,-280"/>
<text text-anchor="middle" x="2070.5" y="-258.3" font-family="Arial" font-size="14.00">Outdoor background with grass and trees.</text>
</g>
<!-- n1&#45;&gt;n7 -->
<g id="edge6" class="edge">
<title>n1&#45;&gt;n7</title>
<path fill="none" stroke="black" d="M1126.5,-368.67C1327.2,-346.21 1714.8,-302.82 1925.5,-279.23"/>
<polygon fill="black" stroke="black" points="1926.15,-282.68 1935.7,-278.09 1925.37,-275.72 1926.15,-282.68"/>
</g>
<!-- n8 -->
<g id="node8" class="node">
<title>n8</title>
<path fill="palegreen" stroke="black" d="M281,-158C281,-158 12,-158 12,-158 6,-158 0,-152 0,-146 0,-146 0,-134 0,-134 0,-128 6,-122 12,-122 12,-122 281,-122 281,-122 287,-122 293,-128 293,-134 293,-134 293,-146 293,-146 293,-152 287,-158 281,-158"/>
<text text-anchor="middle" x="146.5" y="-136.3" font-family="Arial" font-size="14.00">Ability to communicate using string telephone.</text>
</g>
<!-- n2&#45;&gt;n8 -->
<g id="edge7" class="edge">
<title>n2&#45;&gt;n8</title>
<path fill="none" stroke="black" d="M246.74,-243.81C226.75,-223.31 193.21,-188.91 170.49,-165.6"/>
<polygon fill="black" stroke="black" points="172.72,-162.87 163.23,-158.16 167.71,-167.76 172.72,-162.87"/>
</g>
<!-- n9 -->
<g id="node9" class="node">
<title>n9</title>
<path fill="palegreen" stroke="black" d="M649.5,-158C649.5,-158 363.5,-158 363.5,-158 357.5,-158 351.5,-152 351.5,-146 351.5,-146 351.5,-134 351.5,-134 351.5,-128 357.5,-122 363.5,-122 363.5,-122 649.5,-122 649.5,-122 655.5,-122 661.5,-128 661.5,-134 661.5,-134 661.5,-146 661.5,-146 661.5,-152 655.5,-158 649.5,-158"/>
<text text-anchor="middle" x="506.5" y="-136.3" font-family="Arial" font-size="14.00">Correct depiction of communication using sound.</text>
</g>
<!-- n3&#45;&gt;n9 -->
<g id="edge8" class="edge">
<title>n3&#45;&gt;n9</title>
<path fill="none" stroke="black" d="M557.9,-243.81C547.88,-223.76 531.2,-190.4 519.57,-167.14"/>
<polygon fill="black" stroke="black" points="522.68,-165.54 515.08,-158.16 516.42,-168.67 522.68,-165.54"/>
</g>
<!-- n10 -->
<g id="node10" class="node">
<title>n10</title>
<path fill="palegreen" stroke="black" d="M991.5,-158C991.5,-158 731.5,-158 731.5,-158 725.5,-158 719.5,-152 719.5,-146 719.5,-146 719.5,-134 719.5,-134 719.5,-128 725.5,-122 731.5,-122 731.5,-122 991.5,-122 991.5,-122 997.5,-122 1003.5,-128 1003.5,-134 1003.5,-134 1003.5,-146 1003.5,-146 1003.5,-152 997.5,-158 991.5,-158"/>
<text text-anchor="middle" x="861.5" y="-136.3" font-family="Arial" font-size="14.00">Correct use of materials for string telephone.</text>
</g>
<!-- n4&#45;&gt;n10 -->
<g id="edge9" class="edge">
<title>n4&#45;&gt;n10</title>
<path fill="none" stroke="black" d="M895.77,-243.81C889.15,-223.94 878.16,-190.99 870.42,-167.76"/>
<polygon fill="black" stroke="black" points="873.7,-166.54 867.22,-158.16 867.06,-168.75 873.7,-166.54"/>
</g>
<!-- n11 -->
<g id="node11" class="node">
<title>n11</title>
<path fill="palegreen" stroke="black" d="M1363,-158C1363,-158 1074,-158 1074,-158 1068,-158 1062,-152 1062,-146 1062,-146 1062,-134 1062,-134 1062,-128 1068,-122 1074,-122 1074,-122 1363,-122 1363,-122 1369,-122 1375,-128 1375,-134 1375,-134 1375,-146 1375,-146 1375,-152 1369,-158 1363,-158"/>
<text text-anchor="middle" x="1218.5" y="-136.3" font-family="Arial" font-size="14.00">Understanding of sound travel through taut string.</text>
</g>
<!-- n5&#45;&gt;n11 -->
<g id="edge10" class="edge">
<title>n5&#45;&gt;n11</title>
<path fill="none" stroke="black" d="M1183.4,-243.81C1190.2,-223.94 1201.4,-190.99 1209.4,-167.76"/>
<polygon fill="black" stroke="black" points="1212.76,-168.75 1212.6,-158.16 1206.12,-166.54 1212.76,-168.75"/>
</g>
<!-- n12 -->
<g id="node12" class="node">
<title>n12</title>
<polygon fill="lightcoral" stroke="black" points="1729.5,-158 1432.5,-140 1729.5,-122 2026.5,-140 1729.5,-158"/>
<text text-anchor="middle" x="1729.5" y="-136.3" font-family="Arial" font-size="14.00">Misinterpretation of sound travel with visual arrows.</text>
</g>
<!-- n6&#45;&gt;n12 -->
<g id="edge11" class="edge">
<title>n6&#45;&gt;n12</title>
<path fill="none" stroke="black" d="M1606.1,-243.81C1631.5,-222.69 1674.5,-186.81 1702.5,-163.52"/>
<polygon fill="black" stroke="black" points="1704.87,-166.1 1710.3,-157.01 1700.38,-160.73 1704.87,-166.1"/>
</g>
<!-- n13 -->
<g id="node13" class="node">
<title>n13</title>
<path fill="palegreen" stroke="black" d="M2314.5,-158C2314.5,-158 2096.5,-158 2096.5,-158 2090.5,-158 2084.5,-152 2084.5,-146 2084.5,-146 2084.5,-134 2084.5,-134 2084.5,-128 2090.5,-122 2096.5,-122 2096.5,-122 2314.5,-122 2314.5,-122 2320.5,-122 2326.5,-128 2326.5,-134 2326.5,-134 2326.5,-146 2326.5,-146 2326.5,-152 2320.5,-158 2314.5,-158"/>
<text text-anchor="middle" x="2205.5" y="-136.3" font-family="Arial" font-size="14.00">Visual cues for environmental setting.</text>
</g>
<!-- n7&#45;&gt;n13 -->
<g id="edge12" class="edge">
<title>n7&#45;&gt;n13</title>
<path fill="none" stroke="black" d="M2089.8,-243.81C2113.1,-223.13 2152.3,-188.31 2178.5,-165"/>
<polygon fill="black" stroke="black" points="2181.05,-167.42 2186.2,-158.16 2176.4,-162.18 2181.05,-167.42"/>
</g>
<!-- n14 -->
<g id="node14" class="node">
<title>n14</title>
<polygon fill="#f28e8e" stroke="black" points="1903.5,-36 1555.5,-36 1555.5,0 1903.5,0 1903.5,-36"/>
<text text-anchor="middle" x="1729.5" y="-14.3" font-family="Arial" font-size="14.00">Consider explaining how sound waves travel physically.</text>
</g>
<!-- n12&#45;&gt;n14 -->
<g id="edge13" class="edge">
<title>n12&#45;&gt;n14</title>
<path fill="none" stroke="black" d="M1729.5,-121.81C1729.5,-102.11 1729.5,-69.58 1729.5,-46.39"/>
<polygon fill="black" stroke="black" points="1733,-46.16 1729.5,-36.16 1726,-46.16 1733,-46.16"/>
</g>
</g>
</svg>
