<?xml version="1.0" encoding="UTF-8" standalone="no"?>
<!DOCTYPE svg PUBLIC "-//W3C//DTD SVG 1.1//EN"
 "http://www.w3.org/Graphics/SVG/1.1/DTD/svg11.dtd">
<!-- Generated by graphviz version 2.43.0 (0)
 -->
<!-- Pages: 1 -->
<svg width="1147pt" height="532pt"
 viewBox="0.00 0.00 1146.50 532.00" xmlns="http://www.w3.org/2000/svg" xmlns:xlink="http://www.w3.org/1999/xlink">
<g id="graph0" class="graph" transform="scale(1 1) rotate(0) translate(4 528)">
<polygon fill="white" stroke="transparent" points="-4,4 -4,-528 1142.5,-528 1142.5,4 -4,4"/>
<!-- n1 -->
<g id="node1" class="node">
<title>n1</title>
<polygon fill="lightblue" stroke="black" points="641.82,-506 519.41,-524 274.59,-524 152.18,-506 274.59,-488 519.41,-488 641.82,-506"/>
<text text-anchor="middle" x="397" y="-502.3" font-family="Arial" font-size="14.00">Draw a habitat and the different living things in each</text>
</g>
<!-- n2 -->
<g id="node2" class="node">
<title>n2</title>
<polygon fill="#fffdd0" stroke="black" points="369.5,-402 270.5,-402 270.5,-366 369.5,-366 369.5,-402"/>
<text text-anchor="middle" x="320" y="-380.3" font-family="Arial" font-size="14.00">Forest habitat</text>
</g>
<!-- n1&#45;&gt;n2 -->
<g id="edge1" class="edge">
<title>n1&#45;&gt;n2</title>
<path fill="none" stroke="black" d="M385.97,-487.81C373.05,-467.67 351.51,-434.1 336.57,-410.83"/>
<polygon fill="black" stroke="black" points="339.35,-408.69 331.01,-402.16 333.46,-412.47 339.35,-408.69"/>
</g>
<!-- n3 -->
<g id="node3" class="node">
<title>n3</title>
<polygon fill="#fffdd0" stroke="black" points="638,-402 546,-402 546,-366 638,-366 638,-402"/>
<text text-anchor="middle" x="592" y="-380.3" font-family="Arial" font-size="14.00">Pond habitat</text>
</g>
<!-- n1&#45;&gt;n3 -->
<g id="edge2" class="edge">
<title>n1&#45;&gt;n3</title>
<path fill="none" stroke="black" d="M424.94,-487.81C459.26,-466.69 517.57,-430.81 555.43,-407.51"/>
<polygon fill="black" stroke="black" points="557.43,-410.39 564.11,-402.16 553.76,-404.43 557.43,-410.39"/>
</g>
<!-- n4 -->
<g id="node4" class="node">
<title>n4</title>
<path fill="palegreen" stroke="black" d="M390,-280C390,-280 12,-280 12,-280 6,-280 0,-274 0,-268 0,-268 0,-256 0,-256 0,-250 6,-244 12,-244 12,-244 390,-244 390,-244 396,-244 402,-250 402,-256 402,-256 402,-268 402,-268 402,-274 396,-280 390,-280"/>
<text text-anchor="middle" x="201" y="-258.3" font-family="Arial" font-size="14.00">Drawn elements in forest: trees, flowers, bird, butterflies, squirrel</text>
</g>
<!-- n2&#45;&gt;n4 -->
<g id="edge3" class="edge">
<title>n2&#45;&gt;n4</title>
<path fill="none" stroke="black" d="M302.95,-365.81C282.54,-345.22 248.22,-310.61 225.1,-287.3"/>
<polygon fill="black" stroke="black" points="227.55,-284.8 218.02,-280.16 222.58,-289.73 227.55,-284.8"/>
</g>
<!-- n5 -->
<g id="node5" class="node">
<title>n5</title>
<path fill="palegreen" stroke="black" d="M711.5,-280C711.5,-280 472.5,-280 472.5,-280 466.5,-280 460.5,-274 460.5,-268 460.5,-268 460.5,-256 460.5,-256 460.5,-250 466.5,-244 472.5,-244 472.5,-244 711.5,-244 711.5,-244 717.5,-244 723.5,-250 723.5,-256 723.5,-256 723.5,-268 723.5,-268 723.5,-274 717.5,-280 711.5,-280"/>
<text text-anchor="middle" x="592" y="-258.3" font-family="Arial" font-size="14.00">Drawn elements in pond: fish, frog, reeds</text>
</g>
<!-- n3&#45;&gt;n5 -->
<g id="edge4" class="edge">
<title>n3&#45;&gt;n5</title>
<path fill="none" stroke="black" d="M592,-365.81C592,-346.11 592,-313.58 592,-290.39"/>
<polygon fill="black" stroke="black" points="595.5,-290.16 592,-280.16 588.5,-290.16 595.5,-290.16"/>
</g>
<!-- n7 -->
<g id="node6" class="node">
<title>n7</title>
<polygon fill="lightcoral" stroke="black" points="960,-280 781.5,-262 960,-244 1138.5,-262 960,-280"/>
<text text-anchor="middle" x="960" y="-258.3" font-family="Arial" font-size="14.00">Proportion issue with fish size</text>
</g>
<!-- n3&#45;&gt;n7 -->
<g id="edge5" class="edge">
<title>n3&#45;&gt;n7</title>
<path fill="none" stroke="black" d="M638.23,-367.92C707.83,-345.23 838.97,-302.47 910.46,-279.15"/>
<polygon fill="black" stroke="black" points="911.71,-282.42 920.14,-276 909.55,-275.77 911.71,-282.42"/>
</g>
<!-- n6 -->
<g id="node7" class="node">
<title>n6</title>
<polygon fill="lightcoral" stroke="black" points="371,-158 154,-140 371,-122 588,-140 371,-158"/>
<text text-anchor="middle" x="371" y="-136.3" font-family="Arial" font-size="14.00">Drawn but missing/misspelled labels</text>
</g>
<!-- n4&#45;&gt;n6 -->
<g id="edge6" class="edge">
<title>n4&#45;&gt;n6</title>
<path fill="none" stroke="black" d="M225.36,-243.81C255.87,-222.27 308.12,-185.38 341.05,-162.14"/>
<polygon fill="black" stroke="black" points="343.23,-164.89 349.38,-156.26 339.19,-159.17 343.23,-164.89"/>
</g>
<!-- n5&#45;&gt;n6 -->
<g id="edge7" class="edge">
<title>n5&#45;&gt;n6</title>
<path fill="none" stroke="black" d="M560.34,-243.81C519.86,-221.83 449.94,-183.86 407.34,-160.73"/>
<polygon fill="black" stroke="black" points="408.88,-157.58 398.42,-155.89 405.54,-163.74 408.88,-157.58"/>
</g>
<!-- n9 -->
<g id="node8" class="node">
<title>n9</title>
<polygon fill="#f28e8e" stroke="black" points="1105,-158 815,-158 815,-122 1105,-122 1105,-158"/>
<text text-anchor="middle" x="960" y="-136.3" font-family="Arial" font-size="14.00">Review the relative size of animals and plants</text>
</g>
<!-- n7&#45;&gt;n9 -->
<g id="edge8" class="edge">
<title>n7&#45;&gt;n9</title>
<path fill="none" stroke="black" d="M960,-243.81C960,-224.11 960,-191.58 960,-168.39"/>
<polygon fill="black" stroke="black" points="963.5,-168.16 960,-158.16 956.5,-168.16 963.5,-168.16"/>
</g>
<!-- n8 -->
<g id="node9" class="node">
<title>n8</title>
<polygon fill="#f28e8e" stroke="black" points="516,-36 226,-36 226,0 516,0 516,-36"/>
<text text-anchor="middle" x="371" y="-14.3" font-family="Arial" font-size="14.00">Include correct spelling and complete labeling</text>
</g>
<!-- n6&#45;&gt;n8 -->
<g id="edge9" class="edge">
<title>n6&#45;&gt;n8</title>
<path fill="none" stroke="black" d="M371,-121.81C371,-102.11 371,-69.58 371,-46.39"/>
<polygon fill="black" stroke="black" points="374.5,-46.16 371,-36.16 367.5,-46.16 374.5,-46.16"/>
</g>
</g>
</svg>
