<?xml version="1.0" encoding="UTF-8" standalone="no"?>
<!DOCTYPE svg PUBLIC "-//W3C//DTD SVG 1.1//EN"
 "http://www.w3.org/Graphics/SVG/1.1/DTD/svg11.dtd">
<!-- Generated by graphviz version 2.43.0 (0)
 -->
<!-- Pages: 1 -->
<svg width="1328pt" height="410pt"
 viewBox="0.00 0.00 1328.05 410.00" xmlns="http://www.w3.org/2000/svg" xmlns:xlink="http://www.w3.org/1999/xlink">
<g id="graph0" class="graph" transform="scale(1 1) rotate(0) translate(4 406)">
<polygon fill="white" stroke="transparent" points="-4,4 -4,-406 1324.05,-406 1324.05,4 -4,4"/>
<!-- n1 -->
<g id="node1" class="node">
<title>n1</title>
<polygon fill="lightblue" stroke="black" points="735.5,-384 644.25,-402 461.75,-402 370.5,-384 461.75,-366 644.25,-366 735.5,-384"/>
<text text-anchor="middle" x="553" y="-380.3" font-family="Arial" font-size="14.00">Draw a fish in their habitat with labels.</text>
</g>
<!-- n2 -->
<g id="node2" class="node">
<title>n2</title>
<polygon fill="#fffdd0" stroke="black" points="287,-280 69,-280 69,-244 287,-244 287,-280"/>
<text text-anchor="middle" x="178" y="-258.3" font-family="Arial" font-size="14.00">Simple oval with triangle tail (fish)</text>
</g>
<!-- n1&#45;&gt;n2 -->
<g id="edge1" class="edge">
<title>n1&#45;&gt;n2</title>
<path fill="none" stroke="black" d="M499.67,-365.93C431.5,-344.12 313.63,-306.4 241.07,-283.18"/>
<polygon fill="black" stroke="black" points="241.74,-279.72 231.15,-280.01 239.61,-286.39 241.74,-279.72"/>
</g>
<!-- n3 -->
<g id="node3" class="node">
<title>n3</title>
<polygon fill="#fffdd0" stroke="black" points="517,-280 389,-280 389,-244 517,-244 517,-280"/>
<text text-anchor="middle" x="453" y="-258.3" font-family="Arial" font-size="14.00">Wavy lines (water)</text>
</g>
<!-- n1&#45;&gt;n3 -->
<g id="edge2" class="edge">
<title>n1&#45;&gt;n3</title>
<path fill="none" stroke="black" d="M538.67,-365.81C521.67,-345.4 493.18,-311.21 473.76,-287.91"/>
<polygon fill="black" stroke="black" points="476.39,-285.6 467.3,-280.16 471.01,-290.08 476.39,-285.6"/>
</g>
<!-- n4 -->
<g id="node4" class="node">
<title>n4</title>
<polygon fill="#fffdd0" stroke="black" points="794,-280 636,-280 636,-244 794,-244 794,-280"/>
<text text-anchor="middle" x="715" y="-258.3" font-family="Arial" font-size="14.00">Lines like grass (plants)</text>
</g>
<!-- n1&#45;&gt;n4 -->
<g id="edge3" class="edge">
<title>n1&#45;&gt;n4</title>
<path fill="none" stroke="black" d="M576.21,-365.81C604.36,-344.96 651.94,-309.71 683.41,-286.4"/>
<polygon fill="black" stroke="black" points="685.88,-288.93 691.83,-280.16 681.71,-283.3 685.88,-288.93"/>
</g>
<!-- n5 -->
<g id="node5" class="node">
<title>n5</title>
<polygon fill="#fffdd0" stroke="black" points="1126,-280 956,-280 956,-244 1126,-244 1126,-280"/>
<text text-anchor="middle" x="1041" y="-258.3" font-family="Arial" font-size="14.00">Label &#39;needs air&#39; near fish</text>
</g>
<!-- n1&#45;&gt;n5 -->
<g id="edge4" class="edge">
<title>n1&#45;&gt;n5</title>
<path fill="none" stroke="black" d="M622.14,-366C711.79,-343.95 867.77,-305.6 961.99,-282.43"/>
<polygon fill="black" stroke="black" points="962.88,-285.81 971.76,-280.03 961.21,-279.02 962.88,-285.81"/>
</g>
<!-- n6 -->
<g id="node6" class="node">
<title>n6</title>
<path fill="palegreen" stroke="black" d="M196,-158C196,-158 12,-158 12,-158 6,-158 0,-152 0,-146 0,-146 0,-134 0,-134 0,-128 6,-122 12,-122 12,-122 196,-122 196,-122 202,-122 208,-128 208,-134 208,-134 208,-146 208,-146 208,-152 202,-158 196,-158"/>
<text text-anchor="middle" x="104" y="-136.3" font-family="Arial" font-size="14.00">Correctly identifies shape of fish</text>
</g>
<!-- n2&#45;&gt;n6 -->
<g id="edge5" class="edge">
<title>n2&#45;&gt;n6</title>
<path fill="none" stroke="black" d="M167.4,-243.81C154.98,-223.67 134.28,-190.1 119.93,-166.83"/>
<polygon fill="black" stroke="black" points="122.81,-164.83 114.58,-158.16 116.85,-168.51 122.81,-164.83"/>
</g>
<!-- n7 -->
<g id="node7" class="node">
<title>n7</title>
<polygon fill="lightcoral" stroke="black" points="423,-158 265.65,-140 423,-122 580.35,-140 423,-158"/>
<text text-anchor="middle" x="423" y="-136.3" font-family="Arial" font-size="14.00">Mislabels water as &#39;grass&#39;</text>
</g>
<!-- n3&#45;&gt;n7 -->
<g id="edge6" class="edge">
<title>n3&#45;&gt;n7</title>
<path fill="none" stroke="black" d="M448.7,-243.81C443.73,-223.91 435.48,-190.92 429.67,-167.68"/>
<polygon fill="black" stroke="black" points="433.01,-166.62 427.19,-157.77 426.22,-168.32 433.01,-166.62"/>
</g>
<!-- n8 -->
<g id="node8" class="node">
<title>n8</title>
<path fill="palegreen" stroke="black" d="M842,-158C842,-158 650,-158 650,-158 644,-158 638,-152 638,-146 638,-146 638,-134 638,-134 638,-128 644,-122 650,-122 650,-122 842,-122 842,-122 848,-122 854,-128 854,-134 854,-134 854,-146 854,-146 854,-152 848,-158 842,-158"/>
<text text-anchor="middle" x="746" y="-136.3" font-family="Arial" font-size="14.00">Understands plants in fish habitat</text>
</g>
<!-- n4&#45;&gt;n8 -->
<g id="edge7" class="edge">
<title>n4&#45;&gt;n8</title>
<path fill="none" stroke="black" d="M719.44,-243.81C724.55,-224.02 733.01,-191.29 739.01,-168.08"/>
<polygon fill="black" stroke="black" points="742.46,-168.72 741.57,-158.16 735.68,-166.97 742.46,-168.72"/>
</g>
<!-- n9 -->
<g id="node9" class="node">
<title>n9</title>
<polygon fill="lightcoral" stroke="black" points="1116,-158 911.89,-140 1116,-122 1320.11,-140 1116,-158"/>
<text text-anchor="middle" x="1116" y="-136.3" font-family="Arial" font-size="14.00">Incorrect labeling of fish resources</text>
</g>
<!-- n5&#45;&gt;n9 -->
<g id="edge8" class="edge">
<title>n5&#45;&gt;n9</title>
<path fill="none" stroke="black" d="M1051.7,-243.81C1064.5,-223.44 1085.8,-189.34 1100.3,-166.04"/>
<polygon fill="black" stroke="black" points="1103.39,-167.71 1105.8,-157.39 1097.48,-163.95 1103.39,-167.71"/>
</g>
<!-- n10 -->
<g id="node10" class="node">
<title>n10</title>
<polygon fill="#f28e8e" stroke="black" points="493.5,-36 352.5,-36 352.5,0 493.5,0 493.5,-36"/>
<text text-anchor="middle" x="423" y="-14.3" font-family="Arial" font-size="14.00">Label water correctly</text>
</g>
<!-- n7&#45;&gt;n10 -->
<g id="edge9" class="edge">
<title>n7&#45;&gt;n10</title>
<path fill="none" stroke="black" d="M423,-121.81C423,-102.11 423,-69.58 423,-46.39"/>
<polygon fill="black" stroke="black" points="426.5,-46.16 423,-36.16 419.5,-46.16 426.5,-46.16"/>
</g>
<!-- n11 -->
<g id="node11" class="node">
<title>n11</title>
<polygon fill="#f28e8e" stroke="black" points="1231,-36 1001,-36 1001,0 1231,0 1231,-36"/>
<text text-anchor="middle" x="1116" y="-14.3" font-family="Arial" font-size="14.00">Explain fish needs like water &amp; food</text>
</g>
<!-- n9&#45;&gt;n11 -->
<g id="edge10" class="edge">
<title>n9&#45;&gt;n11</title>
<path fill="none" stroke="black" d="M1116,-121.81C1116,-102.11 1116,-69.58 1116,-46.39"/>
<polygon fill="black" stroke="black" points="1119.5,-46.16 1116,-36.16 1112.5,-46.16 1119.5,-46.16"/>
</g>
</g>
</svg>
