<?xml version="1.0" encoding="UTF-8" standalone="no"?>
<!DOCTYPE svg PUBLIC "-//W3C//DTD SVG 1.1//EN"
 "http://www.w3.org/Graphics/SVG/1.1/DTD/svg11.dtd">
<!-- Generated by graphviz version 2.43.0 (0)
 -->
<!-- Pages: 1 -->
<svg width="808pt" height="410pt"
 viewBox="0.00 0.00 808.24 410.00" xmlns="http://www.w3.org/2000/svg" xmlns:xlink="http://www.w3.org/1999/xlink">
<g id="graph0" class="graph" transform="scale(1 1) rotate(0) translate(4 406)">
<polygon fill="white" stroke="transparent" points="-4,4 -4,-406 804.24,-406 804.24,4 -4,4"/>
<!-- n1 -->
<g id="node1" class="node">
<title>n1</title>
<polygon fill="lightblue" stroke="black" points="632.5,-384 502.25,-402 241.75,-402 111.5,-384 241.75,-366 502.25,-366 632.5,-384"/>
<text text-anchor="middle" x="372" y="-380.3" font-family="Arial" font-size="14.00">Draw two habitats and the different living things in each</text>
</g>
<!-- n2 -->
<g id="node2" class="node">
<title>n2</title>
<polygon fill="#fffdd0" stroke="black" points="336.5,-280 21.5,-280 21.5,-244 336.5,-244 336.5,-280"/>
<text text-anchor="middle" x="179" y="-258.3" font-family="Arial" font-size="14.00">Land habitat with tree, playground, squirrel, flower</text>
</g>
<!-- n1&#45;&gt;n2 -->
<g id="edge1" class="edge">
<title>n1&#45;&gt;n2</title>
<path fill="none" stroke="black" d="M344.35,-365.81C310.38,-344.69 252.67,-308.81 215.2,-285.51"/>
<polygon fill="black" stroke="black" points="216.94,-282.47 206.6,-280.16 213.24,-288.41 216.94,-282.47"/>
</g>
<!-- n3 -->
<g id="node3" class="node">
<title>n3</title>
<polygon fill="#fffdd0" stroke="black" points="695.5,-280 436.5,-280 436.5,-244 695.5,-244 695.5,-280"/>
<text text-anchor="middle" x="566" y="-258.3" font-family="Arial" font-size="14.00">Water habitat with pond, fish, tree, reeds</text>
</g>
<!-- n1&#45;&gt;n3 -->
<g id="edge2" class="edge">
<title>n1&#45;&gt;n3</title>
<path fill="none" stroke="black" d="M399.8,-365.81C433.94,-344.69 491.95,-308.81 529.61,-285.51"/>
<polygon fill="black" stroke="black" points="531.6,-288.4 538.26,-280.16 527.91,-282.44 531.6,-288.4"/>
</g>
<!-- n4 -->
<g id="node4" class="node">
<title>n4</title>
<path fill="palegreen" stroke="black" d="M304,-158C304,-158 12,-158 12,-158 6,-158 0,-152 0,-146 0,-146 0,-134 0,-134 0,-128 6,-122 12,-122 12,-122 304,-122 304,-122 310,-122 316,-128 316,-134 316,-134 316,-146 316,-146 316,-152 310,-158 304,-158"/>
<text text-anchor="middle" x="158" y="-136.3" font-family="Arial" font-size="14.00">Understands land habitats and common elements</text>
</g>
<!-- n2&#45;&gt;n4 -->
<g id="edge3" class="edge">
<title>n2&#45;&gt;n4</title>
<path fill="none" stroke="black" d="M175.99,-243.81C172.53,-224.02 166.8,-191.29 162.74,-168.08"/>
<polygon fill="black" stroke="black" points="166.18,-167.4 161,-158.16 159.28,-168.61 166.18,-167.4"/>
</g>
<!-- n5 -->
<g id="node5" class="node">
<title>n5</title>
<polygon fill="lightcoral" stroke="black" points="587,-158 373.51,-140 587,-122 800.49,-140 587,-158"/>
<text text-anchor="middle" x="587" y="-136.3" font-family="Arial" font-size="14.00">Misplaces elements in water habitat</text>
</g>
<!-- n3&#45;&gt;n5 -->
<g id="edge4" class="edge">
<title>n3&#45;&gt;n5</title>
<path fill="none" stroke="black" d="M569.01,-243.81C572.49,-223.91 578.26,-190.92 582.33,-167.68"/>
<polygon fill="black" stroke="black" points="585.79,-168.22 584.06,-157.77 578.89,-167.02 585.79,-168.22"/>
</g>
<!-- n6 -->
<g id="node6" class="node">
<title>n6</title>
<polygon fill="#f28e8e" stroke="black" points="737,-36 437,-36 437,0 737,0 737,-36"/>
<text text-anchor="middle" x="587" y="-14.3" font-family="Arial" font-size="14.00">Add aquatic plants like lily pads, avoid land tree</text>
</g>
<!-- n5&#45;&gt;n6 -->
<g id="edge5" class="edge">
<title>n5&#45;&gt;n6</title>
<path fill="none" stroke="black" d="M587,-121.81C587,-102.11 587,-69.58 587,-46.39"/>
<polygon fill="black" stroke="black" points="590.5,-46.16 587,-36.16 583.5,-46.16 590.5,-46.16"/>
</g>
</g>
</svg>
