<?xml version="1.0" encoding="UTF-8" standalone="no"?>
<!DOCTYPE svg PUBLIC "-//W3C//DTD SVG 1.1//EN"
 "http://www.w3.org/Graphics/SVG/1.1/DTD/svg11.dtd">
<!-- Generated by graphviz version 2.43.0 (0)
 -->
<!-- Pages: 1 -->
<svg width="1442pt" height="410pt"
 viewBox="0.00 0.00 1441.50 410.00" xmlns="http://www.w3.org/2000/svg" xmlns:xlink="http://www.w3.org/1999/xlink">
<g id="graph0" class="graph" transform="scale(1 1) rotate(0) translate(4 406)">
<polygon fill="white" stroke="transparent" points="-4,4 -4,-406 1437.5,-406 1437.5,4 -4,4"/>
<!-- n1 -->
<g id="node1" class="node">
<title>n1</title>
<polygon fill="lightblue" stroke="black" points="748.5,-384 618.25,-402 357.75,-402 227.5,-384 357.75,-366 618.25,-366 748.5,-384"/>
<text text-anchor="middle" x="488" y="-380.3" font-family="Arial" font-size="14.00">Draw two habitats and the different living things in each</text>
</g>
<!-- n2 -->
<g id="node2" class="node">
<title>n2</title>
<polygon fill="#fffdd0" stroke="black" points="302,-280 30,-280 30,-244 302,-244 302,-280"/>
<text text-anchor="middle" x="166" y="-258.3" font-family="Arial" font-size="14.00">Simple land habitat with green zigzag lines</text>
</g>
<!-- n1&#45;&gt;n2 -->
<g id="edge1" class="edge">
<title>n1&#45;&gt;n2</title>
<path fill="none" stroke="black" d="M442.21,-365.93C384.03,-344.25 283.7,-306.86 221.31,-283.61"/>
<polygon fill="black" stroke="black" points="222.22,-280.22 211.63,-280.01 219.78,-286.78 222.22,-280.22"/>
</g>
<!-- n3 -->
<g id="node3" class="node">
<title>n3</title>
<polygon fill="#fffdd0" stroke="black" points="616,-280 360,-280 360,-244 616,-244 616,-280"/>
<text text-anchor="middle" x="488" y="-258.3" font-family="Arial" font-size="14.00">Simple water habitat with blue wavy line</text>
</g>
<!-- n1&#45;&gt;n3 -->
<g id="edge2" class="edge">
<title>n1&#45;&gt;n3</title>
<path fill="none" stroke="black" d="M488,-365.81C488,-346.11 488,-313.58 488,-290.39"/>
<polygon fill="black" stroke="black" points="491.5,-290.16 488,-280.16 484.5,-290.16 491.5,-290.16"/>
</g>
<!-- n4 -->
<g id="node4" class="node">
<title>n4</title>
<polygon fill="#fffdd0" stroke="black" points="916,-280 674,-280 674,-244 916,-244 916,-280"/>
<text text-anchor="middle" x="795" y="-258.3" font-family="Arial" font-size="14.00">Random shapes for plants or animals</text>
</g>
<!-- n1&#45;&gt;n4 -->
<g id="edge3" class="edge">
<title>n1&#45;&gt;n4</title>
<path fill="none" stroke="black" d="M531.66,-365.93C587.01,-344.3 682.39,-307.02 741.9,-283.76"/>
<polygon fill="black" stroke="black" points="743.45,-286.91 751.49,-280.01 740.9,-280.39 743.45,-286.91"/>
</g>
<!-- n5 -->
<g id="node5" class="node">
<title>n5</title>
<path fill="palegreen" stroke="black" d="M320,-158C320,-158 12,-158 12,-158 6,-158 0,-152 0,-146 0,-146 0,-134 0,-134 0,-128 6,-122 12,-122 12,-122 320,-122 320,-122 326,-122 332,-128 332,-134 332,-134 332,-146 332,-146 332,-152 326,-158 320,-158"/>
<text text-anchor="middle" x="166" y="-136.3" font-family="Arial" font-size="14.00">Basic understanding of land vs. water habitats layout</text>
</g>
<!-- n2&#45;&gt;n5 -->
<g id="edge4" class="edge">
<title>n2&#45;&gt;n5</title>
<path fill="none" stroke="black" d="M166,-243.81C166,-224.11 166,-191.58 166,-168.39"/>
<polygon fill="black" stroke="black" points="169.5,-168.16 166,-158.16 162.5,-168.16 169.5,-168.16"/>
</g>
<!-- n6 -->
<g id="node6" class="node">
<title>n6</title>
<polygon fill="lightcoral" stroke="black" points="720,-158 465.29,-140 720,-122 974.71,-140 720,-158"/>
<text text-anchor="middle" x="720" y="-136.3" font-family="Arial" font-size="14.00">Lack of specific identification of living things</text>
</g>
<!-- n4&#45;&gt;n6 -->
<g id="edge5" class="edge">
<title>n4&#45;&gt;n6</title>
<path fill="none" stroke="black" d="M784.25,-243.81C771.52,-223.44 750.21,-189.34 735.65,-166.04"/>
<polygon fill="black" stroke="black" points="738.51,-164.01 730.24,-157.39 732.58,-167.72 738.51,-164.01"/>
</g>
<!-- n7 -->
<g id="node7" class="node">
<title>n7</title>
<polygon fill="lightcoral" stroke="black" points="1233,-158 1032.5,-140 1233,-122 1433.5,-140 1233,-158"/>
<text text-anchor="middle" x="1233" y="-136.3" font-family="Arial" font-size="14.00">No diversity shown in living things</text>
</g>
<!-- n4&#45;&gt;n7 -->
<g id="edge6" class="edge">
<title>n4&#45;&gt;n7</title>
<path fill="none" stroke="black" d="M857.29,-243.93C942.51,-220.59 1094.2,-179.02 1176.4,-156.51"/>
<polygon fill="black" stroke="black" points="1177.29,-159.9 1186,-153.87 1175.43,-153.15 1177.29,-159.9"/>
</g>
<!-- n8 -->
<g id="node8" class="node">
<title>n8</title>
<polygon fill="#f28e8e" stroke="black" points="915,-36 525,-36 525,0 915,0 915,-36"/>
<text text-anchor="middle" x="720" y="-14.3" font-family="Arial" font-size="14.00">Encourage drawing and labeling of specific plants and animals</text>
</g>
<!-- n6&#45;&gt;n8 -->
<g id="edge7" class="edge">
<title>n6&#45;&gt;n8</title>
<path fill="none" stroke="black" d="M720,-121.81C720,-102.11 720,-69.58 720,-46.39"/>
<polygon fill="black" stroke="black" points="723.5,-46.16 720,-36.16 716.5,-46.16 723.5,-46.16"/>
</g>
<!-- n9 -->
<g id="node9" class="node">
<title>n9</title>
<polygon fill="#f28e8e" stroke="black" points="1382,-36 1084,-36 1084,0 1382,0 1382,-36"/>
<text text-anchor="middle" x="1233" y="-14.3" font-family="Arial" font-size="14.00">Suggest including more detail to show diversity</text>
</g>
<!-- n7&#45;&gt;n9 -->
<g id="edge8" class="edge">
<title>n7&#45;&gt;n9</title>
<path fill="none" stroke="black" d="M1233,-121.81C1233,-102.11 1233,-69.58 1233,-46.39"/>
<polygon fill="black" stroke="black" points="1236.5,-46.16 1233,-36.16 1229.5,-46.16 1236.5,-46.16"/>
</g>
</g>
</svg>
