<?xml version="1.0" encoding="UTF-8" standalone="no"?>
<!DOCTYPE svg PUBLIC "-//W3C//DTD SVG 1.1//EN"
 "http://www.w3.org/Graphics/SVG/1.1/DTD/svg11.dtd">
<!-- Generated by graphviz version 2.43.0 (0)
 -->
<!-- Pages: 1 -->
<svg width="1657pt" height="410pt"
 viewBox="0.00 0.00 1656.50 410.00" xmlns="http://www.w3.org/2000/svg" xmlns:xlink="http://www.w3.org/1999/xlink">
<g id="graph0" class="graph" transform="scale(1 1) rotate(0) translate(4 406)">
<polygon fill="white" stroke="transparent" points="-4,4 -4,-406 1652.5,-406 1652.5,4 -4,4"/>
<!-- n1 -->
<g id="node1" class="node">
<title>n1</title>
<polygon fill="lightblue" stroke="black" points="692,-384 582,-402 362,-402 252,-384 362,-366 582,-366 692,-384"/>
<text text-anchor="middle" x="472" y="-380.3" font-family="Arial" font-size="14.00">Draw a string telephone between two students</text>
</g>
<!-- n2 -->
<g id="node2" class="node">
<title>n2</title>
<polygon fill="#fffdd0" stroke="black" points="284,-280 0,-280 0,-244 284,-244 284,-280"/>
<text text-anchor="middle" x="142" y="-258.3" font-family="Arial" font-size="14.00">Two cartoon&#45;style students facing each other</text>
</g>
<!-- n1&#45;&gt;n2 -->
<g id="edge1" class="edge">
<title>n1&#45;&gt;n2</title>
<path fill="none" stroke="black" d="M425.07,-365.93C365.32,-344.21 262.2,-306.71 198.29,-283.47"/>
<polygon fill="black" stroke="black" points="199.36,-280.14 188.77,-280.01 196.97,-286.72 199.36,-280.14"/>
</g>
<!-- n3 -->
<g id="node3" class="node">
<title>n3</title>
<polygon fill="#fffdd0" stroke="black" points="986.5,-280 769.5,-280 769.5,-244 986.5,-244 986.5,-280"/>
<text text-anchor="middle" x="878" y="-258.3" font-family="Arial" font-size="14.00">Paper cups connected by a string</text>
</g>
<!-- n1&#45;&gt;n3 -->
<g id="edge2" class="edge">
<title>n1&#45;&gt;n3</title>
<path fill="none" stroke="black" d="M529.74,-365.93C603.85,-344.03 732.2,-306.09 810.67,-282.9"/>
<polygon fill="black" stroke="black" points="811.86,-286.2 820.46,-280.01 809.88,-279.48 811.86,-286.2"/>
</g>
<!-- n4 -->
<g id="node4" class="node">
<title>n4</title>
<polygon fill="#fffdd0" stroke="black" points="593.5,-280 350.5,-280 350.5,-244 593.5,-244 593.5,-280"/>
<text text-anchor="middle" x="472" y="-258.3" font-family="Arial" font-size="14.00">Wavy lines representing sound waves</text>
</g>
<!-- n1&#45;&gt;n4 -->
<g id="edge3" class="edge">
<title>n1&#45;&gt;n4</title>
<path fill="none" stroke="black" d="M472,-365.81C472,-346.11 472,-313.58 472,-290.39"/>
<polygon fill="black" stroke="black" points="475.5,-290.16 472,-280.16 468.5,-290.16 475.5,-290.16"/>
</g>
<!-- n5 -->
<g id="node5" class="node">
<title>n5</title>
<path fill="palegreen" stroke="black" d="M248.5,-158C248.5,-158 17.5,-158 17.5,-158 11.5,-158 5.5,-152 5.5,-146 5.5,-146 5.5,-134 5.5,-134 5.5,-128 11.5,-122 17.5,-122 17.5,-122 248.5,-122 248.5,-122 254.5,-122 260.5,-128 260.5,-134 260.5,-134 260.5,-146 260.5,-146 260.5,-152 254.5,-158 248.5,-158"/>
<text text-anchor="middle" x="133" y="-136.3" font-family="Arial" font-size="14.00">Simple materials: paper cups and string</text>
</g>
<!-- n2&#45;&gt;n5 -->
<g id="edge4" class="edge">
<title>n2&#45;&gt;n5</title>
<path fill="none" stroke="black" d="M140.71,-243.81C139.23,-224.11 136.79,-191.58 135.05,-168.39"/>
<polygon fill="black" stroke="black" points="138.52,-167.87 134.29,-158.16 131.54,-168.39 138.52,-167.87"/>
</g>
<!-- n6 -->
<g id="node6" class="node">
<title>n6</title>
<path fill="palegreen" stroke="black" d="M613,-158C613,-158 331,-158 331,-158 325,-158 319,-152 319,-146 319,-146 319,-134 319,-134 319,-128 325,-122 331,-122 331,-122 613,-122 613,-122 619,-122 625,-128 625,-134 625,-134 625,-146 625,-146 625,-152 619,-158 613,-158"/>
<text text-anchor="middle" x="472" y="-136.3" font-family="Arial" font-size="14.00">Basic concept of sound traveling over a distance</text>
</g>
<!-- n3&#45;&gt;n6 -->
<g id="edge5" class="edge">
<title>n3&#45;&gt;n6</title>
<path fill="none" stroke="black" d="M820.26,-243.93C746.15,-222.03 617.8,-184.09 539.33,-160.9"/>
<polygon fill="black" stroke="black" points="540.12,-157.48 529.54,-158.01 538.14,-164.2 540.12,-157.48"/>
</g>
<!-- n7 -->
<g id="node7" class="node">
<title>n7</title>
<polygon fill="lightcoral" stroke="black" points="996,-158 682.5,-140 996,-122 1309.5,-140 996,-158"/>
<text text-anchor="middle" x="996" y="-136.3" font-family="Arial" font-size="14.00">Misunderstanding of depth in distance communication</text>
</g>
<!-- n3&#45;&gt;n7 -->
<g id="edge6" class="edge">
<title>n3&#45;&gt;n7</title>
<path fill="none" stroke="black" d="M894.91,-243.81C915.29,-223.08 949.66,-188.13 972.58,-164.81"/>
<polygon fill="black" stroke="black" points="975.36,-166.97 979.88,-157.39 970.37,-162.06 975.36,-166.97"/>
</g>
<!-- n8 -->
<g id="node8" class="node">
<title>n8</title>
<path fill="palegreen" stroke="black" d="M1636.5,-158C1636.5,-158 1379.5,-158 1379.5,-158 1373.5,-158 1367.5,-152 1367.5,-146 1367.5,-146 1367.5,-134 1367.5,-134 1367.5,-128 1373.5,-122 1379.5,-122 1379.5,-122 1636.5,-122 1636.5,-122 1642.5,-122 1648.5,-128 1648.5,-134 1648.5,-134 1648.5,-146 1648.5,-146 1648.5,-152 1642.5,-158 1636.5,-158"/>
<text text-anchor="middle" x="1508" y="-136.3" font-family="Arial" font-size="14.00">Understanding that string helps sound travel</text>
</g>
<!-- n3&#45;&gt;n8 -->
<g id="edge7" class="edge">
<title>n3&#45;&gt;n8</title>
<path fill="none" stroke="black" d="M967.26,-244C1083.8,-221.8 1287.2,-183.05 1408.6,-159.94"/>
<polygon fill="black" stroke="black" points="1409.43,-163.34 1418.6,-158.03 1408.12,-156.47 1409.43,-163.34"/>
</g>
<!-- n4&#45;&gt;n6 -->
<g id="edge8" class="edge">
<title>n4&#45;&gt;n6</title>
<path fill="none" stroke="black" d="M472,-243.81C472,-224.11 472,-191.58 472,-168.39"/>
<polygon fill="black" stroke="black" points="475.5,-168.16 472,-158.16 468.5,-168.16 475.5,-168.16"/>
</g>
<!-- n9 -->
<g id="node9" class="node">
<title>n9</title>
<polygon fill="#f28e8e" stroke="black" points="1151.5,-36 840.5,-36 840.5,0 1151.5,0 1151.5,-36"/>
<text text-anchor="middle" x="996" y="-14.3" font-family="Arial" font-size="14.00">Include more info about solving distance problem</text>
</g>
<!-- n7&#45;&gt;n9 -->
<g id="edge9" class="edge">
<title>n7&#45;&gt;n9</title>
<path fill="none" stroke="black" d="M996,-121.81C996,-102.11 996,-69.58 996,-46.39"/>
<polygon fill="black" stroke="black" points="999.5,-46.16 996,-36.16 992.5,-46.16 999.5,-46.16"/>
</g>
</g>
</svg>
