<?xml version="1.0" encoding="UTF-8" standalone="no"?>
<!DOCTYPE svg PUBLIC "-//W3C//DTD SVG 1.1//EN"
 "http://www.w3.org/Graphics/SVG/1.1/DTD/svg11.dtd">
<!-- Generated by graphviz version 2.43.0 (0)
 -->
<!-- Pages: 1 -->
<svg width="1210pt" height="532pt"
 viewBox="0.00 0.00 1210.00 532.00" xmlns="http://www.w3.org/2000/svg" xmlns:xlink="http://www.w3.org/1999/xlink">
<g id="graph0" class="graph" transform="scale(1 1) rotate(0) translate(4 528)">
<polygon fill="white" stroke="transparent" points="-4,4 -4,-528 1206,-528 1206,4 -4,4"/>
<!-- n1 -->
<g id="node1" class="node">
<title>n1</title>
<polygon fill="lightblue" stroke="black" points="895.5,-506 784,-524 561,-524 449.5,-506 561,-488 784,-488 895.5,-506"/>
<text text-anchor="middle" x="672.5" y="-502.3" font-family="Arial" font-size="14.00">Draw a string telephone between two students.</text>
</g>
<!-- n2 -->
<g id="node2" class="node">
<title>n2</title>
<polygon fill="#fffdd0" stroke="black" points="388.5,-402 100.5,-402 100.5,-366 388.5,-366 388.5,-402"/>
<text text-anchor="middle" x="244.5" y="-380.3" font-family="Arial" font-size="14.00">Two students with cups connected by a string</text>
</g>
<!-- n1&#45;&gt;n2 -->
<g id="edge1" class="edge">
<title>n1&#45;&gt;n2</title>
<path fill="none" stroke="black" d="M611.63,-487.93C533.35,-465.99 397.65,-427.94 314.97,-404.76"/>
<polygon fill="black" stroke="black" points="315.73,-401.34 305.16,-402.01 313.84,-408.08 315.73,-401.34"/>
</g>
<!-- n3 -->
<g id="node3" class="node">
<title>n3</title>
<polygon fill="#fffdd0" stroke="black" points="634,-402 447,-402 447,-366 634,-366 634,-402"/>
<text text-anchor="middle" x="540.5" y="-380.3" font-family="Arial" font-size="14.00">Student speaking into Cup A</text>
</g>
<!-- n1&#45;&gt;n3 -->
<g id="edge2" class="edge">
<title>n1&#45;&gt;n3</title>
<path fill="none" stroke="black" d="M653.59,-487.81C630.85,-467.13 592.54,-432.31 566.9,-409"/>
<polygon fill="black" stroke="black" points="569.13,-406.3 559.38,-402.16 564.42,-411.48 569.13,-406.3"/>
</g>
<!-- n4 -->
<g id="node4" class="node">
<title>n4</title>
<polygon fill="#fffdd0" stroke="black" points="917,-402 692,-402 692,-366 917,-366 917,-402"/>
<text text-anchor="middle" x="804.5" y="-380.3" font-family="Arial" font-size="14.00">Sound traveling shown with arrows</text>
</g>
<!-- n1&#45;&gt;n4 -->
<g id="edge3" class="edge">
<title>n1&#45;&gt;n4</title>
<path fill="none" stroke="black" d="M691.41,-487.81C714.15,-467.13 752.46,-432.31 778.1,-409"/>
<polygon fill="black" stroke="black" points="780.58,-411.48 785.62,-402.16 775.87,-406.3 780.58,-411.48"/>
</g>
<!-- n5 -->
<g id="node5" class="node">
<title>n5</title>
<polygon fill="#fffdd0" stroke="black" points="1202,-402 975,-402 975,-366 1202,-366 1202,-402"/>
<text text-anchor="middle" x="1088.5" y="-380.3" font-family="Arial" font-size="14.00">Parts labeled: Cup A, Cup B, String</text>
</g>
<!-- n1&#45;&gt;n5 -->
<g id="edge4" class="edge">
<title>n1&#45;&gt;n5</title>
<path fill="none" stroke="black" d="M731.66,-487.93C807.6,-466.03 939.11,-428.09 1019.5,-404.9"/>
<polygon fill="black" stroke="black" points="1020.86,-408.15 1029.5,-402.01 1018.92,-401.42 1020.86,-408.15"/>
</g>
<!-- n6 -->
<g id="node6" class="node">
<title>n6</title>
<path fill="palegreen" stroke="black" d="M335,-280C335,-280 12,-280 12,-280 6,-280 0,-274 0,-268 0,-268 0,-256 0,-256 0,-250 6,-244 12,-244 12,-244 335,-244 335,-244 341,-244 347,-250 347,-256 347,-256 347,-268 347,-268 347,-274 341,-280 335,-280"/>
<text text-anchor="middle" x="173.5" y="-258.3" font-family="Arial" font-size="14.00">String telephone allows communication over a distance</text>
</g>
<!-- n2&#45;&gt;n6 -->
<g id="edge5" class="edge">
<title>n2&#45;&gt;n6</title>
<path fill="none" stroke="black" d="M234.33,-365.81C222.41,-345.67 202.55,-312.1 188.78,-288.83"/>
<polygon fill="black" stroke="black" points="191.75,-286.98 183.65,-280.16 185.73,-290.55 191.75,-286.98"/>
</g>
<!-- n7 -->
<g id="node7" class="node">
<title>n7</title>
<path fill="palegreen" stroke="black" d="M654,-280C654,-280 417,-280 417,-280 411,-280 405,-274 405,-268 405,-268 405,-256 405,-256 405,-250 411,-244 417,-244 417,-244 654,-244 654,-244 660,-244 666,-250 666,-256 666,-256 666,-268 666,-268 666,-274 660,-280 654,-280"/>
<text text-anchor="middle" x="535.5" y="-258.3" font-family="Arial" font-size="14.00">String transmits sound between students</text>
</g>
<!-- n2&#45;&gt;n7 -->
<g id="edge6" class="edge">
<title>n2&#45;&gt;n7</title>
<path fill="none" stroke="black" d="M285.88,-365.93C338.25,-344.34 428.38,-307.17 484.82,-283.9"/>
<polygon fill="black" stroke="black" points="486.35,-287.06 494.26,-280.01 483.68,-280.58 486.35,-287.06"/>
</g>
<!-- n3&#45;&gt;n7 -->
<g id="edge7" class="edge">
<title>n3&#45;&gt;n7</title>
<path fill="none" stroke="black" d="M539.78,-365.81C538.96,-346.11 537.61,-313.58 536.64,-290.39"/>
<polygon fill="black" stroke="black" points="540.13,-290.01 536.22,-280.16 533.13,-290.3 540.13,-290.01"/>
</g>
<!-- n8 -->
<g id="node8" class="node">
<title>n8</title>
<path fill="palegreen" stroke="black" d="M883,-280C883,-280 736,-280 736,-280 730,-280 724,-274 724,-268 724,-268 724,-256 724,-256 724,-250 730,-244 736,-244 736,-244 883,-244 883,-244 889,-244 895,-250 895,-256 895,-256 895,-268 895,-268 895,-274 889,-280 883,-280"/>
<text text-anchor="middle" x="809.5" y="-258.3" font-family="Arial" font-size="14.00">Arrows show sound travel</text>
</g>
<!-- n4&#45;&gt;n8 -->
<g id="edge8" class="edge">
<title>n4&#45;&gt;n8</title>
<path fill="none" stroke="black" d="M805.22,-365.81C806.04,-346.11 807.39,-313.58 808.36,-290.39"/>
<polygon fill="black" stroke="black" points="811.87,-290.3 808.78,-280.16 804.87,-290.01 811.87,-290.3"/>
</g>
<!-- n9 -->
<g id="node9" class="node">
<title>n9</title>
<path fill="palegreen" stroke="black" d="M1181,-280C1181,-280 996,-280 996,-280 990,-280 984,-274 984,-268 984,-268 984,-256 984,-256 984,-250 990,-244 996,-244 996,-244 1181,-244 1181,-244 1187,-244 1193,-250 1193,-256 1193,-256 1193,-268 1193,-268 1193,-274 1187,-280 1181,-280"/>
<text text-anchor="middle" x="1088.5" y="-258.3" font-family="Arial" font-size="14.00">Labeled parts show functionality</text>
</g>
<!-- n5&#45;&gt;n9 -->
<g id="edge9" class="edge">
<title>n5&#45;&gt;n9</title>
<path fill="none" stroke="black" d="M1088.5,-365.81C1088.5,-346.11 1088.5,-313.58 1088.5,-290.39"/>
<polygon fill="black" stroke="black" points="1092,-290.16 1088.5,-280.16 1085,-290.16 1092,-290.16"/>
</g>
<!-- n10 -->
<g id="node10" class="node">
<title>n10</title>
<polygon fill="lightcoral" stroke="black" points="535.5,-158 243,-140 535.5,-122 828,-140 535.5,-158"/>
<text text-anchor="middle" x="535.5" y="-136.3" font-family="Arial" font-size="14.00">Sound wave and vibration mechanics not depicted</text>
</g>
<!-- n7&#45;&gt;n10 -->
<g id="edge10" class="edge">
<title>n7&#45;&gt;n10</title>
<path fill="none" stroke="black" d="M535.5,-243.81C535.5,-224.11 535.5,-191.58 535.5,-168.39"/>
<polygon fill="black" stroke="black" points="539,-168.16 535.5,-158.16 532,-168.16 539,-168.16"/>
</g>
<!-- n11 -->
<g id="node11" class="node">
<title>n11</title>
<polygon fill="#f28e8e" stroke="black" points="800.5,-36 270.5,-36 270.5,0 800.5,0 800.5,-36"/>
<text text-anchor="middle" x="535.5" y="-14.3" font-family="Arial" font-size="14.00">Include simple illustrations of sound waves and vibrations in string to show mechanics</text>
</g>
<!-- n10&#45;&gt;n11 -->
<g id="edge11" class="edge">
<title>n10&#45;&gt;n11</title>
<path fill="none" stroke="black" d="M535.5,-121.81C535.5,-102.11 535.5,-69.58 535.5,-46.39"/>
<polygon fill="black" stroke="black" points="539,-46.16 535.5,-36.16 532,-46.16 539,-46.16"/>
</g>
</g>
</svg>
