<?xml version="1.0" encoding="UTF-8" standalone="no"?>
<!DOCTYPE svg PUBLIC "-//W3C//DTD SVG 1.1//EN"
 "http://www.w3.org/Graphics/SVG/1.1/DTD/svg11.dtd">
<!-- Generated by graphviz version 2.43.0 (0)
 -->
<!-- Pages: 1 -->
<svg width="1892pt" height="410pt"
 viewBox="0.00 0.00 1891.50 410.00" xmlns="http://www.w3.org/2000/svg" xmlns:xlink="http://www.w3.org/1999/xlink">
<g id="graph0" class="graph" transform="scale(1 1) rotate(0) translate(4 406)">
<polygon fill="white" stroke="transparent" points="-4,4 -4,-406 1887.5,-406 1887.5,4 -4,4"/>
<!-- n1 -->
<g id="node1" class="node">
<title>n1</title>
<polygon fill="lightblue" stroke="black" points="1229.5,-384 1065.5,-402 737.5,-402 573.5,-384 737.5,-366 1065.5,-366 1229.5,-384"/>
<text text-anchor="middle" x="901.5" y="-380.3" font-family="Arial" font-size="14.00">Draw reversible and irreversible changes (ice melting vs. egg cooking)</text>
</g>
<!-- n2 -->
<g id="node2" class="node">
<title>n2</title>
<polygon fill="#fffdd0" stroke="black" points="887,-280 396,-280 396,-244 887,-244 887,-280"/>
<text text-anchor="middle" x="641.5" y="-258.3" font-family="Arial" font-size="14.00">Blue square labeled &#39;ice&#39; and wavy blue lines labeled &#39;water&#39;, arrows in between</text>
</g>
<!-- n1&#45;&gt;n2 -->
<g id="edge1" class="edge">
<title>n1&#45;&gt;n2</title>
<path fill="none" stroke="black" d="M864.52,-365.93C818.03,-344.48 738.2,-307.63 687.72,-284.33"/>
<polygon fill="black" stroke="black" points="688.9,-281.02 678.35,-280.01 685.97,-287.38 688.9,-281.02"/>
</g>
<!-- n3 -->
<g id="node3" class="node">
<title>n3</title>
<polygon fill="#fffdd0" stroke="black" points="1380,-280 945,-280 945,-244 1380,-244 1380,-280"/>
<text text-anchor="middle" x="1162.5" y="-258.3" font-family="Arial" font-size="14.00">Two egg shapes: one plain labeled &#39;egg&#39;, one colored labeled &#39;cooked&#39;</text>
</g>
<!-- n1&#45;&gt;n3 -->
<g id="edge2" class="edge">
<title>n1&#45;&gt;n3</title>
<path fill="none" stroke="black" d="M938.62,-365.93C985.39,-344.43 1065.8,-307.48 1116.4,-284.19"/>
<polygon fill="black" stroke="black" points="1117.87,-287.36 1125.5,-280.01 1114.95,-281 1117.87,-287.36"/>
</g>
<!-- n4 -->
<g id="node4" class="node">
<title>n4</title>
<path fill="palegreen" stroke="black" d="M243,-158C243,-158 12,-158 12,-158 6,-158 0,-152 0,-146 0,-146 0,-134 0,-134 0,-128 6,-122 12,-122 12,-122 243,-122 243,-122 249,-122 255,-128 255,-134 255,-134 255,-146 255,-146 255,-152 249,-158 243,-158"/>
<text text-anchor="middle" x="127.5" y="-136.3" font-family="Arial" font-size="14.00">Thinks ice melting is reversible (correct)</text>
</g>
<!-- n2&#45;&gt;n4 -->
<g id="edge3" class="edge">
<title>n2&#45;&gt;n4</title>
<path fill="none" stroke="black" d="M568.67,-244C474.16,-221.93 309.63,-183.52 210.42,-160.36"/>
<polygon fill="black" stroke="black" points="210.96,-156.89 200.43,-158.03 209.37,-163.71 210.96,-156.89"/>
</g>
<!-- n5 -->
<g id="node5" class="node">
<title>n5</title>
<polygon fill="lightcoral" stroke="black" points="641.5,-158 313.22,-140 641.5,-122 969.78,-140 641.5,-158"/>
<text text-anchor="middle" x="641.5" y="-136.3" font-family="Arial" font-size="14.00">Struggles with process representation of melting/freezing</text>
</g>
<!-- n2&#45;&gt;n5 -->
<g id="edge4" class="edge">
<title>n2&#45;&gt;n5</title>
<path fill="none" stroke="black" d="M641.5,-243.81C641.5,-224.11 641.5,-191.58 641.5,-168.39"/>
<polygon fill="black" stroke="black" points="645,-168.16 641.5,-158.16 638,-168.16 645,-168.16"/>
</g>
<!-- n6 -->
<g id="node6" class="node">
<title>n6</title>
<path fill="palegreen" stroke="black" d="M1285.5,-158C1285.5,-158 1039.5,-158 1039.5,-158 1033.5,-158 1027.5,-152 1027.5,-146 1027.5,-146 1027.5,-134 1027.5,-134 1027.5,-128 1033.5,-122 1039.5,-122 1039.5,-122 1285.5,-122 1285.5,-122 1291.5,-122 1297.5,-128 1297.5,-134 1297.5,-134 1297.5,-146 1297.5,-146 1297.5,-152 1291.5,-158 1285.5,-158"/>
<text text-anchor="middle" x="1162.5" y="-136.3" font-family="Arial" font-size="14.00">Thinks egg cooking is irreversible (correct)</text>
</g>
<!-- n3&#45;&gt;n6 -->
<g id="edge5" class="edge">
<title>n3&#45;&gt;n6</title>
<path fill="none" stroke="black" d="M1162.5,-243.81C1162.5,-224.11 1162.5,-191.58 1162.5,-168.39"/>
<polygon fill="black" stroke="black" points="1166,-168.16 1162.5,-158.16 1159,-168.16 1166,-168.16"/>
</g>
<!-- n7 -->
<g id="node7" class="node">
<title>n7</title>
<polygon fill="lightcoral" stroke="black" points="1619.5,-158 1355.5,-140 1619.5,-122 1883.5,-140 1619.5,-158"/>
<text text-anchor="middle" x="1619.5" y="-136.3" font-family="Arial" font-size="14.00">Misplaces &#39;reversible&#39; and &#39;irreversible&#39; labels</text>
</g>
<!-- n3&#45;&gt;n7 -->
<g id="edge6" class="edge">
<title>n3&#45;&gt;n7</title>
<path fill="none" stroke="black" d="M1227.5,-243.93C1315.6,-220.81 1471.6,-179.82 1557.9,-157.17"/>
<polygon fill="black" stroke="black" points="1559.02,-160.5 1567.8,-154.57 1557.24,-153.72 1559.02,-160.5"/>
</g>
<!-- n8 -->
<g id="node8" class="node">
<title>n8</title>
<polygon fill="#f28e8e" stroke="black" points="868.5,-36 414.5,-36 414.5,0 868.5,0 868.5,-36"/>
<text text-anchor="middle" x="641.5" y="-14.3" font-family="Arial" font-size="14.00">Clarify melting as change from ice to water and refreezing as water to ice</text>
</g>
<!-- n5&#45;&gt;n8 -->
<g id="edge7" class="edge">
<title>n5&#45;&gt;n8</title>
<path fill="none" stroke="black" d="M641.5,-121.81C641.5,-102.11 641.5,-69.58 641.5,-46.39"/>
<polygon fill="black" stroke="black" points="645,-46.16 641.5,-36.16 638,-46.16 645,-46.16"/>
</g>
<!-- n9 -->
<g id="node9" class="node">
<title>n9</title>
<polygon fill="#f28e8e" stroke="black" points="1832.5,-36 1406.5,-36 1406.5,0 1832.5,0 1832.5,-36"/>
<text text-anchor="middle" x="1619.5" y="-14.3" font-family="Arial" font-size="14.00">Review definition and examples of reversible vs irreversible changes</text>
</g>
<!-- n7&#45;&gt;n9 -->
<g id="edge8" class="edge">
<title>n7&#45;&gt;n9</title>
<path fill="none" stroke="black" d="M1619.5,-121.81C1619.5,-102.11 1619.5,-69.58 1619.5,-46.39"/>
<polygon fill="black" stroke="black" points="1623,-46.16 1619.5,-36.16 1616,-46.16 1623,-46.16"/>
</g>
</g>
</svg>
