<?xml version="1.0" encoding="UTF-8" standalone="no"?>
<!DOCTYPE svg PUBLIC "-//W3C//DTD SVG 1.1//EN"
 "http://www.w3.org/Graphics/SVG/1.1/DTD/svg11.dtd">
<!-- Generated by graphviz version 2.43.0 (0)
 -->
<!-- Pages: 1 -->
<svg width="2006pt" height="410pt"
 viewBox="0.00 0.00 2006.00 410.00" xmlns="http://www.w3.org/2000/svg" xmlns:xlink="http://www.w3.org/1999/xlink">
<g id="graph0" class="graph" transform="scale(1 1) rotate(0) translate(4 406)">
<polygon fill="white" stroke="transparent" points="-4,4 -4,-406 2002,-406 2002,4 -4,4"/>
<!-- n1 -->
<g id="node1" class="node">
<title>n1</title>
<polygon fill="lightblue" stroke="black" points="902,-384 790.5,-402 567.5,-402 456,-384 567.5,-366 790.5,-366 902,-384"/>
<text text-anchor="middle" x="679" y="-380.3" font-family="Arial" font-size="14.00">Draw a string telephone between two students.</text>
</g>
<!-- n2 -->
<g id="node2" class="node">
<title>n2</title>
<polygon fill="#fffdd0" stroke="black" points="815,-280 543,-280 543,-244 815,-244 815,-280"/>
<text text-anchor="middle" x="679" y="-258.3" font-family="Arial" font-size="14.00">Two stick figure students several feet apart</text>
</g>
<!-- n1&#45;&gt;n2 -->
<g id="edge1" class="edge">
<title>n1&#45;&gt;n2</title>
<path fill="none" stroke="black" d="M679,-365.81C679,-346.11 679,-313.58 679,-290.39"/>
<polygon fill="black" stroke="black" points="682.5,-290.16 679,-280.16 675.5,-290.16 682.5,-290.16"/>
</g>
<!-- n3 -->
<g id="node3" class="node">
<title>n3</title>
<polygon fill="#fffdd0" stroke="black" points="484.5,-280 289.5,-280 289.5,-244 484.5,-244 484.5,-280"/>
<text text-anchor="middle" x="387" y="-258.3" font-family="Arial" font-size="14.00">Red plastic cup held to mouth</text>
</g>
<!-- n1&#45;&gt;n3 -->
<g id="edge2" class="edge">
<title>n1&#45;&gt;n3</title>
<path fill="none" stroke="black" d="M637.47,-365.93C584.93,-344.34 494.48,-307.17 437.86,-283.9"/>
<polygon fill="black" stroke="black" points="438.96,-280.57 428.38,-280.01 436.3,-287.04 438.96,-280.57"/>
</g>
<!-- n4 -->
<g id="node4" class="node">
<title>n4</title>
<polygon fill="#fffdd0" stroke="black" points="231.5,-280 52.5,-280 52.5,-244 231.5,-244 231.5,-280"/>
<text text-anchor="middle" x="142" y="-258.3" font-family="Arial" font-size="14.00">Blue plastic cup held to ear</text>
</g>
<!-- n1&#45;&gt;n4 -->
<g id="edge3" class="edge">
<title>n1&#45;&gt;n4</title>
<path fill="none" stroke="black" d="M602.92,-366C503.97,-343.89 331.58,-305.37 228,-282.22"/>
<polygon fill="black" stroke="black" points="228.71,-278.79 218.19,-280.03 227.19,-285.62 228.71,-278.79"/>
</g>
<!-- n5 -->
<g id="node5" class="node">
<title>n5</title>
<polygon fill="#fffdd0" stroke="black" points="1201.5,-280 960.5,-280 960.5,-244 1201.5,-244 1201.5,-280"/>
<text text-anchor="middle" x="1081" y="-258.3" font-family="Arial" font-size="14.00">Taut thin black string connecting cups</text>
</g>
<!-- n1&#45;&gt;n5 -->
<g id="edge4" class="edge">
<title>n1&#45;&gt;n5</title>
<path fill="none" stroke="black" d="M736.17,-365.93C809.55,-344.03 936.64,-306.09 1014.3,-282.9"/>
<polygon fill="black" stroke="black" points="1015.42,-286.22 1024,-280.01 1013.42,-279.51 1015.42,-286.22"/>
</g>
<!-- n6 -->
<g id="node6" class="node">
<title>n6</title>
<polygon fill="#fffdd0" stroke="black" points="1746,-280 1476,-280 1476,-244 1746,-244 1746,-280"/>
<text text-anchor="middle" x="1611" y="-258.3" font-family="Arial" font-size="14.00">Arrows indicating sound travel along string</text>
</g>
<!-- n1&#45;&gt;n6 -->
<g id="edge5" class="edge">
<title>n1&#45;&gt;n6</title>
<path fill="none" stroke="black" d="M799.89,-367.44C971.7,-345.31 1285.9,-304.86 1468.7,-281.32"/>
<polygon fill="black" stroke="black" points="1469.23,-284.78 1478.7,-280.04 1468.34,-277.84 1469.23,-284.78"/>
</g>
<!-- n7 -->
<g id="node7" class="node">
<title>n7</title>
<path fill="palegreen" stroke="black" d="M666,-158C666,-158 354,-158 354,-158 348,-158 342,-152 342,-146 342,-146 342,-134 342,-134 342,-128 348,-122 354,-122 354,-122 666,-122 666,-122 672,-122 678,-128 678,-134 678,-134 678,-146 678,-146 678,-152 672,-158 666,-158"/>
<text text-anchor="middle" x="510" y="-136.3" font-family="Arial" font-size="14.00">Demonstrates device for communication using sound</text>
</g>
<!-- n2&#45;&gt;n7 -->
<g id="edge6" class="edge">
<title>n2&#45;&gt;n7</title>
<path fill="none" stroke="black" d="M654.79,-243.81C625.29,-222.87 575.36,-187.41 542.53,-164.1"/>
<polygon fill="black" stroke="black" points="544.35,-161.1 534.17,-158.16 540.29,-166.81 544.35,-161.1"/>
</g>
<!-- n8 -->
<g id="node8" class="node">
<title>n8</title>
<path fill="palegreen" stroke="black" d="M272,-158C272,-158 12,-158 12,-158 6,-158 0,-152 0,-146 0,-146 0,-134 0,-134 0,-128 6,-122 12,-122 12,-122 272,-122 272,-122 278,-122 284,-128 284,-134 284,-134 284,-146 284,-146 284,-152 278,-158 272,-158"/>
<text text-anchor="middle" x="142" y="-136.3" font-family="Arial" font-size="14.00">Illustrates basic operation of string telephone</text>
</g>
<!-- n3&#45;&gt;n8 -->
<g id="edge7" class="edge">
<title>n3&#45;&gt;n8</title>
<path fill="none" stroke="black" d="M352.16,-243.93C308.44,-222.52 233.43,-185.78 185.86,-162.48"/>
<polygon fill="black" stroke="black" points="187.24,-159.26 176.72,-158.01 184.17,-165.55 187.24,-159.26"/>
</g>
<!-- n4&#45;&gt;n8 -->
<g id="edge8" class="edge">
<title>n4&#45;&gt;n8</title>
<path fill="none" stroke="black" d="M142,-243.81C142,-224.11 142,-191.58 142,-168.39"/>
<polygon fill="black" stroke="black" points="145.5,-168.16 142,-158.16 138.5,-168.16 145.5,-168.16"/>
</g>
<!-- n5&#45;&gt;n7 -->
<g id="edge9" class="edge">
<title>n5&#45;&gt;n7</title>
<path fill="none" stroke="black" d="M1000.1,-244C894.78,-221.87 711.22,-183.29 601.11,-160.15"/>
<polygon fill="black" stroke="black" points="601.53,-156.66 591.02,-158.03 600.09,-163.51 601.53,-156.66"/>
</g>
<!-- n9 -->
<g id="node9" class="node">
<title>n9</title>
<path fill="palegreen" stroke="black" d="M1986,-158C1986,-158 1670,-158 1670,-158 1664,-158 1658,-152 1658,-146 1658,-146 1658,-134 1658,-134 1658,-128 1664,-122 1670,-122 1670,-122 1986,-122 1986,-122 1992,-122 1998,-128 1998,-134 1998,-134 1998,-146 1998,-146 1998,-152 1992,-158 1986,-158"/>
<text text-anchor="middle" x="1828" y="-136.3" font-family="Arial" font-size="14.00">Shows how sound travels from one student to another</text>
</g>
<!-- n5&#45;&gt;n9 -->
<g id="edge10" class="edge">
<title>n5&#45;&gt;n9</title>
<path fill="none" stroke="black" d="M1186.8,-244C1325.6,-221.71 1568.2,-182.74 1711.8,-159.66"/>
<polygon fill="black" stroke="black" points="1712.68,-163.06 1722,-158.03 1711.57,-156.15 1712.68,-163.06"/>
</g>
<!-- n10 -->
<g id="node10" class="node">
<title>n10</title>
<polygon fill="lightcoral" stroke="black" points="1168,-158 735.99,-140 1168,-122 1600.01,-140 1168,-158"/>
<text text-anchor="middle" x="1168" y="-136.3" font-family="Arial" font-size="14.00">Incomplete depiction of why communication device is helpful over distances</text>
</g>
<!-- n5&#45;&gt;n10 -->
<g id="edge11" class="edge">
<title>n5&#45;&gt;n10</title>
<path fill="none" stroke="black" d="M1093.5,-243.81C1108.2,-223.46 1132.9,-189.42 1149.8,-166.13"/>
<polygon fill="black" stroke="black" points="1152.81,-167.93 1155.8,-157.77 1147.13,-163.85 1152.81,-167.93"/>
</g>
<!-- n6&#45;&gt;n9 -->
<g id="edge12" class="edge">
<title>n6&#45;&gt;n9</title>
<path fill="none" stroke="black" d="M1642.1,-243.81C1680.5,-222.55 1746,-186.35 1788.1,-163.07"/>
<polygon fill="black" stroke="black" points="1789.93,-166.06 1797,-158.16 1786.55,-159.93 1789.93,-166.06"/>
</g>
<!-- n11 -->
<g id="node11" class="node">
<title>n11</title>
<polygon fill="#f28e8e" stroke="black" points="1345,-36 991,-36 991,0 1345,0 1345,-36"/>
<text text-anchor="middle" x="1168" y="-14.3" font-family="Arial" font-size="14.00">Add explanation or labels for long&#45;distance effectiveness</text>
</g>
<!-- n10&#45;&gt;n11 -->
<g id="edge13" class="edge">
<title>n10&#45;&gt;n11</title>
<path fill="none" stroke="black" d="M1168,-121.81C1168,-102.11 1168,-69.58 1168,-46.39"/>
<polygon fill="black" stroke="black" points="1171.5,-46.16 1168,-36.16 1164.5,-46.16 1171.5,-46.16"/>
</g>
</g>
</svg>
