<?xml version="1.0" encoding="UTF-8" standalone="no"?>
<!DOCTYPE svg PUBLIC "-//W3C//DTD SVG 1.1//EN"
 "http://www.w3.org/Graphics/SVG/1.1/DTD/svg11.dtd">
<!-- Generated by graphviz version 2.43.0 (0)
 -->
<!-- Pages: 1 -->
<svg width="1776pt" height="410pt"
 viewBox="0.00 0.00 1775.50 410.00" xmlns="http://www.w3.org/2000/svg" xmlns:xlink="http://www.w3.org/1999/xlink">
<g id="graph0" class="graph" transform="scale(1 1) rotate(0) translate(4 406)">
<polygon fill="white" stroke="transparent" points="-4,4 -4,-406 1771.5,-406 1771.5,4 -4,4"/>
<!-- n1 -->
<g id="node1" class="node">
<title>n1</title>
<polygon fill="lightblue" stroke="black" points="859,-384 747.5,-402 524.5,-402 413,-384 524.5,-366 747.5,-366 859,-384"/>
<text text-anchor="middle" x="636" y="-380.3" font-family="Arial" font-size="14.00">Draw a string telephone between two students.</text>
</g>
<!-- n2 -->
<g id="node2" class="node">
<title>n2</title>
<polygon fill="#fffdd0" stroke="black" points="272,-280 0,-280 0,-244 272,-244 272,-280"/>
<text text-anchor="middle" x="136" y="-258.3" font-family="Arial" font-size="14.00">Two stick figure students facing each other</text>
</g>
<!-- n1&#45;&gt;n2 -->
<g id="edge1" class="edge">
<title>n1&#45;&gt;n2</title>
<path fill="none" stroke="black" d="M565.16,-366C473.31,-343.95 313.49,-305.6 216.95,-282.43"/>
<polygon fill="black" stroke="black" points="217.48,-278.96 206.94,-280.03 215.85,-285.77 217.48,-278.96"/>
</g>
<!-- n3 -->
<g id="node3" class="node">
<title>n3</title>
<polygon fill="#fffdd0" stroke="black" points="948,-280 662,-280 662,-244 948,-244 948,-280"/>
<text text-anchor="middle" x="805" y="-258.3" font-family="Arial" font-size="14.00">Students holding a cup connected by a string</text>
</g>
<!-- n1&#45;&gt;n3 -->
<g id="edge2" class="edge">
<title>n1&#45;&gt;n3</title>
<path fill="none" stroke="black" d="M660.21,-365.81C689.71,-344.87 739.64,-309.41 772.47,-286.1"/>
<polygon fill="black" stroke="black" points="774.71,-288.81 780.83,-280.16 770.65,-283.1 774.71,-288.81"/>
</g>
<!-- n4 -->
<g id="node4" class="node">
<title>n4</title>
<polygon fill="#fffdd0" stroke="black" points="603.5,-280 330.5,-280 330.5,-244 603.5,-244 603.5,-280"/>
<text text-anchor="middle" x="467" y="-258.3" font-family="Arial" font-size="14.00">Small wavy lines indicating sound traveling</text>
</g>
<!-- n1&#45;&gt;n4 -->
<g id="edge3" class="edge">
<title>n1&#45;&gt;n4</title>
<path fill="none" stroke="black" d="M611.79,-365.81C582.29,-344.87 532.36,-309.41 499.53,-286.1"/>
<polygon fill="black" stroke="black" points="501.35,-283.1 491.17,-280.16 497.29,-288.81 501.35,-283.1"/>
</g>
<!-- n5 -->
<g id="node5" class="node">
<title>n5</title>
<polygon fill="#fffdd0" stroke="black" points="1411,-280 1255,-280 1255,-244 1411,-244 1411,-280"/>
<text text-anchor="middle" x="1333" y="-258.3" font-family="Arial" font-size="14.00">Plain white background</text>
</g>
<!-- n1&#45;&gt;n5 -->
<g id="edge4" class="edge">
<title>n1&#45;&gt;n5</title>
<path fill="none" stroke="black" d="M734.75,-366C871,-342.54 1114.5,-300.61 1244.9,-278.17"/>
<polygon fill="black" stroke="black" points="1245.64,-281.59 1254.9,-276.45 1244.45,-274.7 1245.64,-281.59"/>
</g>
<!-- n6 -->
<g id="node6" class="node">
<title>n6</title>
<path fill="palegreen" stroke="black" d="M384.5,-158C384.5,-158 19.5,-158 19.5,-158 13.5,-158 7.5,-152 7.5,-146 7.5,-146 7.5,-134 7.5,-134 7.5,-128 13.5,-122 19.5,-122 19.5,-122 384.5,-122 384.5,-122 390.5,-122 396.5,-128 396.5,-134 396.5,-134 396.5,-146 396.5,-146 396.5,-152 390.5,-158 384.5,-158"/>
<text text-anchor="middle" x="202" y="-136.3" font-family="Arial" font-size="14.00">Understand people can communicate using a string telephone</text>
</g>
<!-- n2&#45;&gt;n6 -->
<g id="edge5" class="edge">
<title>n2&#45;&gt;n6</title>
<path fill="none" stroke="black" d="M145.46,-243.81C156.48,-223.76 174.83,-190.4 187.62,-167.14"/>
<polygon fill="black" stroke="black" points="190.81,-168.61 192.56,-158.16 184.67,-165.23 190.81,-168.61"/>
</g>
<!-- n3&#45;&gt;n6 -->
<g id="edge6" class="edge">
<title>n3&#45;&gt;n6</title>
<path fill="none" stroke="black" d="M719.56,-244C608.12,-221.82 413.71,-183.13 297.51,-160.01"/>
<polygon fill="black" stroke="black" points="298.05,-156.55 287.56,-158.03 296.68,-163.41 298.05,-156.55"/>
</g>
<!-- n7 -->
<g id="node7" class="node">
<title>n7</title>
<polygon fill="lightcoral" stroke="black" points="738,-158 454.8,-140 738,-122 1021.2,-140 738,-158"/>
<text text-anchor="middle" x="738" y="-136.3" font-family="Arial" font-size="14.00">String is not taut, incomplete sound transmission</text>
</g>
<!-- n3&#45;&gt;n7 -->
<g id="edge7" class="edge">
<title>n3&#45;&gt;n7</title>
<path fill="none" stroke="black" d="M795.4,-243.81C784.14,-223.64 765.37,-190.02 752.37,-166.74"/>
<polygon fill="black" stroke="black" points="755.3,-164.8 747.37,-157.77 749.18,-168.21 755.3,-164.8"/>
</g>
<!-- n8 -->
<g id="node8" class="node">
<title>n8</title>
<path fill="palegreen" stroke="black" d="M1328.5,-158C1328.5,-158 1091.5,-158 1091.5,-158 1085.5,-158 1079.5,-152 1079.5,-146 1079.5,-146 1079.5,-134 1079.5,-134 1079.5,-128 1085.5,-122 1091.5,-122 1091.5,-122 1328.5,-122 1328.5,-122 1334.5,-122 1340.5,-128 1340.5,-134 1340.5,-134 1340.5,-146 1340.5,-146 1340.5,-152 1334.5,-158 1328.5,-158"/>
<text text-anchor="middle" x="1210" y="-136.3" font-family="Arial" font-size="14.00">Uses basic elements like cups and string</text>
</g>
<!-- n3&#45;&gt;n8 -->
<g id="edge8" class="edge">
<title>n3&#45;&gt;n8</title>
<path fill="none" stroke="black" d="M862.6,-243.93C936.52,-222.03 1064.6,-184.09 1142.8,-160.9"/>
<polygon fill="black" stroke="black" points="1144,-164.2 1152.6,-158.01 1142.02,-157.48 1144,-164.2"/>
</g>
<!-- n4&#45;&gt;n6 -->
<g id="edge9" class="edge">
<title>n4&#45;&gt;n6</title>
<path fill="none" stroke="black" d="M429.31,-243.93C381.83,-222.43 300.22,-185.48 248.79,-162.19"/>
<polygon fill="black" stroke="black" points="250.11,-158.95 239.56,-158.01 247.23,-165.32 250.11,-158.95"/>
</g>
<!-- n9 -->
<g id="node9" class="node">
<title>n9</title>
<path fill="palegreen" stroke="black" d="M1755.5,-158C1755.5,-158 1410.5,-158 1410.5,-158 1404.5,-158 1398.5,-152 1398.5,-146 1398.5,-146 1398.5,-134 1398.5,-134 1398.5,-128 1404.5,-122 1410.5,-122 1410.5,-122 1755.5,-122 1755.5,-122 1761.5,-122 1767.5,-128 1767.5,-134 1767.5,-134 1767.5,-146 1767.5,-146 1767.5,-152 1761.5,-158 1755.5,-158"/>
<text text-anchor="middle" x="1583" y="-136.3" font-family="Arial" font-size="14.00">Does not incorporate advanced technology communication</text>
</g>
<!-- n5&#45;&gt;n9 -->
<g id="edge10" class="edge">
<title>n5&#45;&gt;n9</title>
<path fill="none" stroke="black" d="M1368.6,-243.93C1413.3,-222.48 1490,-185.63 1538.6,-162.33"/>
<polygon fill="black" stroke="black" points="1540.1,-165.49 1547.6,-158.01 1537.07,-159.18 1540.1,-165.49"/>
</g>
<!-- n10 -->
<g id="node10" class="node">
<title>n10</title>
<polygon fill="#f28e8e" stroke="black" points="938.5,-36 537.5,-36 537.5,0 938.5,0 938.5,-36"/>
<text text-anchor="middle" x="738" y="-14.3" font-family="Arial" font-size="14.00">Ensure string is drawn taut to show effective sound transmission</text>
</g>
<!-- n7&#45;&gt;n10 -->
<g id="edge11" class="edge">
<title>n7&#45;&gt;n10</title>
<path fill="none" stroke="black" d="M738,-121.81C738,-102.11 738,-69.58 738,-46.39"/>
<polygon fill="black" stroke="black" points="741.5,-46.16 738,-36.16 734.5,-46.16 741.5,-46.16"/>
</g>
</g>
</svg>
