<?xml version="1.0" encoding="UTF-8" standalone="no"?>
<!DOCTYPE svg PUBLIC "-//W3C//DTD SVG 1.1//EN"
 "http://www.w3.org/Graphics/SVG/1.1/DTD/svg11.dtd">
<!-- Generated by graphviz version 2.43.0 (0)
 -->
<!-- Pages: 1 -->
<svg width="1537pt" height="410pt"
 viewBox="0.00 0.00 1536.50 410.00" xmlns="http://www.w3.org/2000/svg" xmlns:xlink="http://www.w3.org/1999/xlink">
<g id="graph0" class="graph" transform="scale(1 1) rotate(0) translate(4 406)">
<polygon fill="white" stroke="transparent" points="-4,4 -4,-406 1532.5,-406 1532.5,4 -4,4"/>
<!-- n1 -->
<g id="node1" class="node">
<title>n1</title>
<polygon fill="lightblue" stroke="black" points="925.5,-384 834.25,-402 651.75,-402 560.5,-384 651.75,-366 834.25,-366 925.5,-384"/>
<text text-anchor="middle" x="743" y="-380.3" font-family="Arial" font-size="14.00">Draw a fish in their habitat with labels.</text>
</g>
<!-- n2 -->
<g id="node2" class="node">
<title>n2</title>
<polygon fill="#fffdd0" stroke="black" points="653,-280 399,-280 399,-244 653,-244 653,-280"/>
<text text-anchor="middle" x="526" y="-258.3" font-family="Arial" font-size="14.00">Oval shape with a triangle, labeled &#39;fish&#39;</text>
</g>
<!-- n1&#45;&gt;n2 -->
<g id="edge1" class="edge">
<title>n1&#45;&gt;n2</title>
<path fill="none" stroke="black" d="M711.91,-365.81C673.48,-344.55 608.01,-308.35 565.9,-285.07"/>
<polygon fill="black" stroke="black" points="567.47,-281.94 557.03,-280.16 564.08,-288.07 567.47,-281.94"/>
</g>
<!-- n3 -->
<g id="node3" class="node">
<title>n3</title>
<polygon fill="#fffdd0" stroke="black" points="962.5,-280 771.5,-280 771.5,-244 962.5,-244 962.5,-280"/>
<text text-anchor="middle" x="867" y="-258.3" font-family="Arial" font-size="14.00">Blue scribbles labeled &#39;water&#39;</text>
</g>
<!-- n1&#45;&gt;n3 -->
<g id="edge2" class="edge">
<title>n1&#45;&gt;n3</title>
<path fill="none" stroke="black" d="M760.77,-365.81C782.04,-345.22 817.8,-310.61 841.89,-287.3"/>
<polygon fill="black" stroke="black" points="844.52,-289.63 849.27,-280.16 839.65,-284.6 844.52,-289.63"/>
</g>
<!-- n4 -->
<g id="node4" class="node">
<title>n4</title>
<path fill="palegreen" stroke="black" d="M236,-158C236,-158 12,-158 12,-158 6,-158 0,-152 0,-146 0,-146 0,-134 0,-134 0,-128 6,-122 12,-122 12,-122 236,-122 236,-122 242,-122 248,-128 248,-134 248,-134 248,-146 248,-146 248,-152 242,-158 236,-158"/>
<text text-anchor="middle" x="124" y="-136.3" font-family="Arial" font-size="14.00">Simplistic drawing with basic elements</text>
</g>
<!-- n2&#45;&gt;n4 -->
<g id="edge3" class="edge">
<title>n2&#45;&gt;n4</title>
<path fill="none" stroke="black" d="M468.83,-243.93C395.45,-222.03 268.36,-184.09 190.66,-160.9"/>
<polygon fill="black" stroke="black" points="191.55,-157.51 180.97,-158.01 189.55,-164.22 191.55,-157.51"/>
</g>
<!-- n5 -->
<g id="node5" class="node">
<title>n5</title>
<polygon fill="lightcoral" stroke="black" points="526,-158 306.14,-140 526,-122 745.86,-140 526,-158"/>
<text text-anchor="middle" x="526" y="-136.3" font-family="Arial" font-size="14.00">Fish absent from proper environment</text>
</g>
<!-- n2&#45;&gt;n5 -->
<g id="edge4" class="edge">
<title>n2&#45;&gt;n5</title>
<path fill="none" stroke="black" d="M526,-243.81C526,-224.11 526,-191.58 526,-168.39"/>
<polygon fill="black" stroke="black" points="529.5,-168.16 526,-158.16 522.5,-168.16 529.5,-168.16"/>
</g>
<!-- n7 -->
<g id="node6" class="node">
<title>n7</title>
<path fill="palegreen" stroke="black" d="M1040,-158C1040,-158 816,-158 816,-158 810,-158 804,-152 804,-146 804,-146 804,-134 804,-134 804,-128 810,-122 816,-122 816,-122 1040,-122 1040,-122 1046,-122 1052,-128 1052,-134 1052,-134 1052,-146 1052,-146 1052,-152 1046,-158 1040,-158"/>
<text text-anchor="middle" x="928" y="-136.3" font-family="Arial" font-size="14.00">The student can identify fish and water</text>
</g>
<!-- n3&#45;&gt;n7 -->
<g id="edge5" class="edge">
<title>n3&#45;&gt;n7</title>
<path fill="none" stroke="black" d="M875.74,-243.81C885.93,-223.76 902.89,-190.4 914.71,-167.14"/>
<polygon fill="black" stroke="black" points="917.86,-168.66 919.28,-158.16 911.63,-165.48 917.86,-168.66"/>
</g>
<!-- n8 -->
<g id="node7" class="node">
<title>n8</title>
<polygon fill="#f28e8e" stroke="black" points="636.5,-36 415.5,-36 415.5,0 636.5,0 636.5,-36"/>
<text text-anchor="middle" x="526" y="-14.3" font-family="Arial" font-size="14.00">Struggles in including a full habitat</text>
</g>
<!-- n5&#45;&gt;n8 -->
<g id="edge6" class="edge">
<title>n5&#45;&gt;n8</title>
<path fill="none" stroke="black" d="M526,-121.81C526,-102.11 526,-69.58 526,-46.39"/>
<polygon fill="black" stroke="black" points="529.5,-46.16 526,-36.16 522.5,-46.16 529.5,-46.16"/>
</g>
<!-- n6 -->
<g id="node8" class="node">
<title>n6</title>
<polygon fill="lightcoral" stroke="black" points="1272,-402 1015.5,-384 1272,-366 1528.5,-384 1272,-402"/>
<text text-anchor="middle" x="1272" y="-380.3" font-family="Arial" font-size="14.00">No other habitat components (rocks, plants)</text>
</g>
<!-- n9 -->
<g id="node9" class="node">
<title>n9</title>
<polygon fill="#f28e8e" stroke="black" points="1399.5,-280 1144.5,-280 1144.5,-244 1399.5,-244 1399.5,-280"/>
<text text-anchor="middle" x="1272" y="-258.3" font-family="Arial" font-size="14.00">Include more components of the habitat</text>
</g>
<!-- n6&#45;&gt;n9 -->
<g id="edge7" class="edge">
<title>n6&#45;&gt;n9</title>
<path fill="none" stroke="black" d="M1272,-365.81C1272,-346.11 1272,-313.58 1272,-290.39"/>
<polygon fill="black" stroke="black" points="1275.5,-290.16 1272,-280.16 1268.5,-290.16 1275.5,-290.16"/>
</g>
</g>
</svg>
