<?xml version="1.0" encoding="UTF-8" standalone="no"?>
<!DOCTYPE svg PUBLIC "-//W3C//DTD SVG 1.1//EN"
 "http://www.w3.org/Graphics/SVG/1.1/DTD/svg11.dtd">
<!-- Generated by graphviz version 2.43.0 (0)
 -->
<!-- Pages: 1 -->
<svg width="961pt" height="410pt"
 viewBox="0.00 0.00 960.50 410.00" xmlns="http://www.w3.org/2000/svg" xmlns:xlink="http://www.w3.org/1999/xlink">
<g id="graph0" class="graph" transform="scale(1 1) rotate(0) translate(4 406)">
<polygon fill="white" stroke="transparent" points="-4,4 -4,-406 956.5,-406 956.5,4 -4,4"/>
<!-- n1 -->
<g id="node1" class="node">
<title>n1</title>
<polygon fill="lightblue" stroke="black" points="647.87,-384 505.19,-402 219.81,-402 77.13,-384 219.81,-366 505.19,-366 647.87,-384"/>
<text text-anchor="middle" x="362.5" y="-380.3" font-family="Arial" font-size="14.00">Draw animals in their habitats with labels (e.g., fish in water).</text>
</g>
<!-- n2 -->
<g id="node2" class="node">
<title>n2</title>
<polygon fill="#fffdd0" stroke="black" points="177,-280 28,-280 28,-244 177,-244 177,-280"/>
<text text-anchor="middle" x="102.5" y="-258.3" font-family="Arial" font-size="14.00">Blue fish in blue water</text>
</g>
<!-- n1&#45;&gt;n2 -->
<g id="edge1" class="edge">
<title>n1&#45;&gt;n2</title>
<path fill="none" stroke="black" d="M325.52,-365.93C279.03,-344.48 199.2,-307.63 148.72,-284.33"/>
<polygon fill="black" stroke="black" points="149.9,-281.02 139.35,-280.01 146.97,-287.38 149.9,-281.02"/>
</g>
<!-- n3 -->
<g id="node3" class="node">
<title>n3</title>
<polygon fill="#fffdd0" stroke="black" points="490,-280 235,-280 235,-244 490,-244 490,-280"/>
<text text-anchor="middle" x="362.5" y="-258.3" font-family="Arial" font-size="14.00">Green tree with red bird and brown nest</text>
</g>
<!-- n1&#45;&gt;n3 -->
<g id="edge2" class="edge">
<title>n1&#45;&gt;n3</title>
<path fill="none" stroke="black" d="M362.5,-365.81C362.5,-346.11 362.5,-313.58 362.5,-290.39"/>
<polygon fill="black" stroke="black" points="366,-290.16 362.5,-280.16 359,-290.16 366,-290.16"/>
</g>
<!-- n4 -->
<g id="node4" class="node">
<title>n4</title>
<polygon fill="#fffdd0" stroke="black" points="807,-280 584,-280 584,-244 807,-244 807,-280"/>
<text text-anchor="middle" x="695.5" y="-258.3" font-family="Arial" font-size="14.00">Deer on grass, possibly misplaced</text>
</g>
<!-- n1&#45;&gt;n4 -->
<g id="edge3" class="edge">
<title>n1&#45;&gt;n4</title>
<path fill="none" stroke="black" d="M409.86,-365.93C470.15,-344.21 574.21,-306.71 638.7,-283.47"/>
<polygon fill="black" stroke="black" points="640.09,-286.69 648.31,-280.01 637.72,-280.1 640.09,-286.69"/>
</g>
<!-- n5 -->
<g id="node5" class="node">
<title>n5</title>
<path fill="palegreen" stroke="black" d="M193,-158C193,-158 12,-158 12,-158 6,-158 0,-152 0,-146 0,-146 0,-134 0,-134 0,-128 6,-122 12,-122 12,-122 193,-122 193,-122 199,-122 205,-128 205,-134 205,-134 205,-146 205,-146 205,-152 199,-158 193,-158"/>
<text text-anchor="middle" x="102.5" y="-136.3" font-family="Arial" font-size="14.00">Fish is correctly placed in water</text>
</g>
<!-- n2&#45;&gt;n5 -->
<g id="edge4" class="edge">
<title>n2&#45;&gt;n5</title>
<path fill="none" stroke="black" d="M102.5,-243.81C102.5,-224.11 102.5,-191.58 102.5,-168.39"/>
<polygon fill="black" stroke="black" points="106,-168.16 102.5,-158.16 99,-168.16 106,-168.16"/>
</g>
<!-- n6 -->
<g id="node6" class="node">
<title>n6</title>
<path fill="palegreen" stroke="black" d="M446.5,-158C446.5,-158 276.5,-158 276.5,-158 270.5,-158 264.5,-152 264.5,-146 264.5,-146 264.5,-134 264.5,-134 264.5,-128 270.5,-122 276.5,-122 276.5,-122 446.5,-122 446.5,-122 452.5,-122 458.5,-128 458.5,-134 458.5,-134 458.5,-146 458.5,-146 458.5,-152 452.5,-158 446.5,-158"/>
<text text-anchor="middle" x="361.5" y="-136.3" font-family="Arial" font-size="14.00">Bird is correctly placed in tree</text>
</g>
<!-- n3&#45;&gt;n6 -->
<g id="edge5" class="edge">
<title>n3&#45;&gt;n6</title>
<path fill="none" stroke="black" d="M362.36,-243.81C362.19,-224.11 361.92,-191.58 361.73,-168.39"/>
<polygon fill="black" stroke="black" points="365.23,-168.13 361.64,-158.16 358.23,-168.19 365.23,-168.13"/>
</g>
<!-- n7 -->
<g id="node7" class="node">
<title>n7</title>
<polygon fill="lightcoral" stroke="black" points="732.5,-158 516.5,-140 732.5,-122 948.5,-140 732.5,-158"/>
<text text-anchor="middle" x="732.5" y="-136.3" font-family="Arial" font-size="14.00">Deer is misplaced, needs forest/field</text>
</g>
<!-- n4&#45;&gt;n7 -->
<g id="edge6" class="edge">
<title>n4&#45;&gt;n7</title>
<path fill="none" stroke="black" d="M700.8,-243.81C706.96,-223.82 717.2,-190.62 724.37,-167.37"/>
<polygon fill="black" stroke="black" points="727.73,-168.36 727.33,-157.77 721.04,-166.29 727.73,-168.36"/>
</g>
<!-- n8 -->
<g id="node8" class="node">
<title>n8</title>
<polygon fill="#f28e8e" stroke="black" points="952.5,-36 512.5,-36 512.5,0 952.5,0 952.5,-36"/>
<text text-anchor="middle" x="732.5" y="-14.3" font-family="Arial" font-size="14.00">Broaden understanding of habitat placements (e.g., deer in forest/field)</text>
</g>
<!-- n7&#45;&gt;n8 -->
<g id="edge7" class="edge">
<title>n7&#45;&gt;n8</title>
<path fill="none" stroke="black" d="M732.5,-121.81C732.5,-102.11 732.5,-69.58 732.5,-46.39"/>
<polygon fill="black" stroke="black" points="736,-46.16 732.5,-36.16 729,-46.16 736,-46.16"/>
</g>
</g>
</svg>
