<?xml version="1.0" encoding="UTF-8" standalone="no"?>
<!DOCTYPE svg PUBLIC "-//W3C//DTD SVG 1.1//EN"
 "http://www.w3.org/Graphics/SVG/1.1/DTD/svg11.dtd">
<!-- Generated by graphviz version 2.43.0 (0)
 -->
<!-- Pages: 1 -->
<svg width="1167pt" height="410pt"
 viewBox="0.00 0.00 1166.50 410.00" xmlns="http://www.w3.org/2000/svg" xmlns:xlink="http://www.w3.org/1999/xlink">
<g id="graph0" class="graph" transform="scale(1 1) rotate(0) translate(4 406)">
<polygon fill="white" stroke="transparent" points="-4,4 -4,-406 1162.5,-406 1162.5,4 -4,4"/>
<!-- n1 -->
<g id="node1" class="node">
<title>n1</title>
<polygon fill="lightblue" stroke="black" points="1028,-384 864,-402 536,-402 372,-384 536,-366 864,-366 1028,-384"/>
<text text-anchor="middle" x="700" y="-380.3" font-family="Arial" font-size="14.00">Draw reversible and irreversible changes (ice melting vs. egg cooking)</text>
</g>
<!-- n2 -->
<g id="node2" class="node">
<title>n2</title>
<polygon fill="#fffdd0" stroke="black" points="649.5,-280 494.5,-280 494.5,-244 649.5,-244 649.5,-280"/>
<text text-anchor="middle" x="572" y="-258.3" font-family="Arial" font-size="14.00">Ice with arrow to Water</text>
</g>
<!-- n1&#45;&gt;n2 -->
<g id="edge1" class="edge">
<title>n1&#45;&gt;n2</title>
<path fill="none" stroke="black" d="M681.66,-365.81C659.7,-345.22 622.79,-310.61 597.92,-287.3"/>
<polygon fill="black" stroke="black" points="600,-284.45 590.31,-280.16 595.21,-289.55 600,-284.45"/>
</g>
<!-- n3 -->
<g id="node3" class="node">
<title>n3</title>
<polygon fill="#fffdd0" stroke="black" points="1051,-280 809,-280 809,-244 1051,-244 1051,-280"/>
<text text-anchor="middle" x="930" y="-258.3" font-family="Arial" font-size="14.00">Whole Egg with arrow to Cooked Egg</text>
</g>
<!-- n1&#45;&gt;n3 -->
<g id="edge2" class="edge">
<title>n1&#45;&gt;n3</title>
<path fill="none" stroke="black" d="M732.95,-365.81C773.77,-344.51 843.37,-308.2 887.99,-284.92"/>
<polygon fill="black" stroke="black" points="889.86,-287.89 897.11,-280.16 886.63,-281.68 889.86,-287.89"/>
</g>
<!-- n4 -->
<g id="node4" class="node">
<title>n4</title>
<path fill="palegreen" stroke="black" d="M226,-158C226,-158 12,-158 12,-158 6,-158 0,-152 0,-146 0,-146 0,-134 0,-134 0,-128 6,-122 12,-122 12,-122 226,-122 226,-122 232,-122 238,-128 238,-134 238,-134 238,-146 238,-146 238,-152 232,-158 226,-158"/>
<text text-anchor="middle" x="119" y="-136.3" font-family="Arial" font-size="14.00">Understands ice melting is reversible</text>
</g>
<!-- n2&#45;&gt;n4 -->
<g id="edge3" class="edge">
<title>n2&#45;&gt;n4</title>
<path fill="none" stroke="black" d="M507.58,-243.93C424.55,-221.94 280.51,-183.78 193.05,-160.62"/>
<polygon fill="black" stroke="black" points="193.76,-157.19 183.2,-158.01 191.97,-163.95 193.76,-157.19"/>
</g>
<!-- n6 -->
<g id="node5" class="node">
<title>n6</title>
<polygon fill="lightcoral" stroke="black" points="572,-158 296.01,-140 572,-122 847.99,-140 572,-158"/>
<text text-anchor="middle" x="572" y="-136.3" font-family="Arial" font-size="14.00">Incomplete representation of reversibility for ice</text>
</g>
<!-- n2&#45;&gt;n6 -->
<g id="edge4" class="edge">
<title>n2&#45;&gt;n6</title>
<path fill="none" stroke="black" d="M572,-243.81C572,-224.11 572,-191.58 572,-168.39"/>
<polygon fill="black" stroke="black" points="575.5,-168.16 572,-158.16 568.5,-168.16 575.5,-168.16"/>
</g>
<!-- n5 -->
<g id="node6" class="node">
<title>n5</title>
<path fill="palegreen" stroke="black" d="M1146.5,-158C1146.5,-158 917.5,-158 917.5,-158 911.5,-158 905.5,-152 905.5,-146 905.5,-146 905.5,-134 905.5,-134 905.5,-128 911.5,-122 917.5,-122 917.5,-122 1146.5,-122 1146.5,-122 1152.5,-122 1158.5,-128 1158.5,-134 1158.5,-134 1158.5,-146 1158.5,-146 1158.5,-152 1152.5,-158 1146.5,-158"/>
<text text-anchor="middle" x="1032" y="-136.3" font-family="Arial" font-size="14.00">Understands egg cooking is irreversible</text>
</g>
<!-- n3&#45;&gt;n5 -->
<g id="edge5" class="edge">
<title>n3&#45;&gt;n5</title>
<path fill="none" stroke="black" d="M944.61,-243.81C961.96,-223.4 991.02,-189.21 1010.8,-165.91"/>
<polygon fill="black" stroke="black" points="1013.58,-168.04 1017.4,-158.16 1008.25,-163.5 1013.58,-168.04"/>
</g>
<!-- n7 -->
<g id="node7" class="node">
<title>n7</title>
<polygon fill="#f28e8e" stroke="black" points="718,-36 426,-36 426,0 718,0 718,-36"/>
<text text-anchor="middle" x="572" y="-14.3" font-family="Arial" font-size="14.00">Remember to show water freezing back to ice</text>
</g>
<!-- n6&#45;&gt;n7 -->
<g id="edge6" class="edge">
<title>n6&#45;&gt;n7</title>
<path fill="none" stroke="black" d="M572,-121.81C572,-102.11 572,-69.58 572,-46.39"/>
<polygon fill="black" stroke="black" points="575.5,-46.16 572,-36.16 568.5,-46.16 575.5,-46.16"/>
</g>
</g>
</svg>
