<?xml version="1.0" encoding="UTF-8" standalone="no"?>
<!DOCTYPE svg PUBLIC "-//W3C//DTD SVG 1.1//EN"
 "http://www.w3.org/Graphics/SVG/1.1/DTD/svg11.dtd">
<!-- Generated by graphviz version 2.43.0 (0)
 -->
<!-- Pages: 1 -->
<svg width="1760pt" height="410pt"
 viewBox="0.00 0.00 1759.54 410.00" xmlns="http://www.w3.org/2000/svg" xmlns:xlink="http://www.w3.org/1999/xlink">
<g id="graph0" class="graph" transform="scale(1 1) rotate(0) translate(4 406)">
<polygon fill="white" stroke="transparent" points="-4,4 -4,-406 1755.54,-406 1755.54,4 -4,4"/>
<!-- n1 -->
<g id="node1" class="node">
<title>n1</title>
<polygon fill="lightblue" stroke="black" points="625.5,-384 514,-402 291,-402 179.5,-384 291,-366 514,-366 625.5,-384"/>
<text text-anchor="middle" x="402.5" y="-380.3" font-family="Arial" font-size="14.00">Draw a string telephone between two students.</text>
</g>
<!-- n2 -->
<g id="node2" class="node">
<title>n2</title>
<polygon fill="#fffdd0" stroke="black" points="230.5,-280 68.5,-280 68.5,-244 230.5,-244 230.5,-280"/>
<text text-anchor="middle" x="149.5" y="-258.3" font-family="Arial" font-size="14.00">Two cartoonish students</text>
</g>
<!-- n1&#45;&gt;n2 -->
<g id="edge1" class="edge">
<title>n1&#45;&gt;n2</title>
<path fill="none" stroke="black" d="M366.52,-365.93C321.28,-344.48 243.6,-307.63 194.48,-284.33"/>
<polygon fill="black" stroke="black" points="195.9,-281.13 185.36,-280.01 192.9,-287.45 195.9,-281.13"/>
</g>
<!-- n3 -->
<g id="node3" class="node">
<title>n3</title>
<polygon fill="#fffdd0" stroke="black" points="477.5,-280 327.5,-280 327.5,-244 477.5,-244 477.5,-280"/>
<text text-anchor="middle" x="402.5" y="-258.3" font-family="Arial" font-size="14.00">Cups held by students</text>
</g>
<!-- n1&#45;&gt;n3 -->
<g id="edge2" class="edge">
<title>n1&#45;&gt;n3</title>
<path fill="none" stroke="black" d="M402.5,-365.81C402.5,-346.11 402.5,-313.58 402.5,-290.39"/>
<polygon fill="black" stroke="black" points="406,-290.16 402.5,-280.16 399,-290.16 406,-290.16"/>
</g>
<!-- n4 -->
<g id="node4" class="node">
<title>n4</title>
<polygon fill="#fffdd0" stroke="black" points="941.5,-280 813.5,-280 813.5,-244 941.5,-244 941.5,-280"/>
<text text-anchor="middle" x="877.5" y="-258.3" font-family="Arial" font-size="14.00">Loose, wavy string</text>
</g>
<!-- n1&#45;&gt;n4 -->
<g id="edge3" class="edge">
<title>n1&#45;&gt;n4</title>
<path fill="none" stroke="black" d="M469.8,-366C557.96,-343.73 712.02,-304.81 803.41,-281.72"/>
<polygon fill="black" stroke="black" points="804.31,-285.1 813.15,-279.26 802.6,-278.32 804.31,-285.1"/>
</g>
<!-- n5 -->
<g id="node5" class="node">
<title>n5</title>
<path fill="palegreen" stroke="black" d="M209,-158C209,-158 12,-158 12,-158 6,-158 0,-152 0,-146 0,-146 0,-134 0,-134 0,-128 6,-122 12,-122 12,-122 209,-122 209,-122 215,-122 221,-128 221,-134 221,-134 221,-146 221,-146 221,-152 215,-158 209,-158"/>
<text text-anchor="middle" x="110.5" y="-136.3" font-family="Arial" font-size="14.00">Attempts to depict communication</text>
</g>
<!-- n2&#45;&gt;n5 -->
<g id="edge4" class="edge">
<title>n2&#45;&gt;n5</title>
<path fill="none" stroke="black" d="M143.91,-243.81C137.45,-223.94 126.75,-190.99 119.2,-167.76"/>
<polygon fill="black" stroke="black" points="122.5,-166.59 116.08,-158.16 115.84,-168.75 122.5,-166.59"/>
</g>
<!-- n7 -->
<g id="node6" class="node">
<title>n7</title>
<polygon fill="lightcoral" stroke="black" points="402.5,-158 279.17,-140 402.5,-122 525.83,-140 402.5,-158"/>
<text text-anchor="middle" x="402.5" y="-136.3" font-family="Arial" font-size="14.00">Cups for sound use</text>
</g>
<!-- n3&#45;&gt;n7 -->
<g id="edge5" class="edge">
<title>n3&#45;&gt;n7</title>
<path fill="none" stroke="black" d="M402.5,-243.81C402.5,-224.11 402.5,-191.58 402.5,-168.39"/>
<polygon fill="black" stroke="black" points="406,-168.16 402.5,-158.16 399,-168.16 406,-168.16"/>
</g>
<!-- n6 -->
<g id="node7" class="node">
<title>n6</title>
<polygon fill="lightcoral" stroke="black" points="877.5,-158 583.24,-140 877.5,-122 1171.76,-140 877.5,-158"/>
<text text-anchor="middle" x="877.5" y="-136.3" font-family="Arial" font-size="14.00">Misunderstanding of string tension for sound travel</text>
</g>
<!-- n4&#45;&gt;n6 -->
<g id="edge6" class="edge">
<title>n4&#45;&gt;n6</title>
<path fill="none" stroke="black" d="M877.5,-243.81C877.5,-224.11 877.5,-191.58 877.5,-168.39"/>
<polygon fill="black" stroke="black" points="881,-168.16 877.5,-158.16 874,-168.16 881,-168.16"/>
</g>
<!-- n8 -->
<g id="node8" class="node">
<title>n8</title>
<polygon fill="lightcoral" stroke="black" points="1490.5,-158 1229.42,-140 1490.5,-122 1751.58,-140 1490.5,-158"/>
<text text-anchor="middle" x="1490.5" y="-136.3" font-family="Arial" font-size="14.00">Inadequate illustration of sound transmission</text>
</g>
<!-- n4&#45;&gt;n8 -->
<g id="edge7" class="edge">
<title>n4&#45;&gt;n8</title>
<path fill="none" stroke="black" d="M941.65,-248.44C1056,-226.05 1294.5,-179.36 1416,-155.59"/>
<polygon fill="black" stroke="black" points="1416.76,-159.01 1425.9,-153.64 1415.41,-152.14 1416.76,-159.01"/>
</g>
<!-- n9 -->
<g id="node9" class="node">
<title>n9</title>
<polygon fill="#f28e8e" stroke="black" points="1057,-36 698,-36 698,0 1057,0 1057,-36"/>
<text text-anchor="middle" x="877.5" y="-14.3" font-family="Arial" font-size="14.00">The string needs to be tight for sound to travel effectively.</text>
</g>
<!-- n6&#45;&gt;n9 -->
<g id="edge8" class="edge">
<title>n6&#45;&gt;n9</title>
<path fill="none" stroke="black" d="M877.5,-121.81C877.5,-102.11 877.5,-69.58 877.5,-46.39"/>
<polygon fill="black" stroke="black" points="881,-46.16 877.5,-36.16 874,-46.16 881,-46.16"/>
</g>
<!-- n10 -->
<g id="node10" class="node">
<title>n10</title>
<polygon fill="#f28e8e" stroke="black" points="1658,-36 1323,-36 1323,0 1658,0 1658,-36"/>
<text text-anchor="middle" x="1490.5" y="-14.3" font-family="Arial" font-size="14.00">Focus on importance of tension in transmitting sound</text>
</g>
<!-- n8&#45;&gt;n10 -->
<g id="edge9" class="edge">
<title>n8&#45;&gt;n10</title>
<path fill="none" stroke="black" d="M1490.5,-121.81C1490.5,-102.11 1490.5,-69.58 1490.5,-46.39"/>
<polygon fill="black" stroke="black" points="1494,-46.16 1490.5,-36.16 1487,-46.16 1494,-46.16"/>
</g>
</g>
</svg>
