<?xml version="1.0" encoding="UTF-8" standalone="no"?>
<!DOCTYPE svg PUBLIC "-//W3C//DTD SVG 1.1//EN"
 "http://www.w3.org/Graphics/SVG/1.1/DTD/svg11.dtd">
<!-- Generated by graphviz version 2.43.0 (0)
 -->
<!-- Pages: 1 -->
<svg width="1529pt" height="410pt"
 viewBox="0.00 0.00 1528.66 410.00" xmlns="http://www.w3.org/2000/svg" xmlns:xlink="http://www.w3.org/1999/xlink">
<g id="graph0" class="graph" transform="scale(1 1) rotate(0) translate(4 406)">
<polygon fill="white" stroke="transparent" points="-4,4 -4,-406 1524.66,-406 1524.66,4 -4,4"/>
<!-- n1 -->
<g id="node1" class="node">
<title>n1</title>
<polygon fill="lightblue" stroke="black" points="993,-384 881.5,-402 658.5,-402 547,-384 658.5,-366 881.5,-366 993,-384"/>
<text text-anchor="middle" x="770" y="-380.3" font-family="Arial" font-size="14.00">Draw a string telephone between two students.</text>
</g>
<!-- n2 -->
<g id="node2" class="node">
<title>n2</title>
<polygon fill="#fffdd0" stroke="black" points="400,-280 246,-280 246,-244 400,-244 400,-280"/>
<text text-anchor="middle" x="323" y="-258.3" font-family="Arial" font-size="14.00">Two stick figure people</text>
</g>
<!-- n1&#45;&gt;n2 -->
<g id="edge1" class="edge">
<title>n1&#45;&gt;n2</title>
<path fill="none" stroke="black" d="M706.43,-365.93C624.5,-343.94 482.37,-305.78 396.07,-282.62"/>
<polygon fill="black" stroke="black" points="396.92,-279.22 386.35,-280.01 395.1,-285.98 396.92,-279.22"/>
</g>
<!-- n3 -->
<g id="node3" class="node">
<title>n3</title>
<polygon fill="#fffdd0" stroke="black" points="747.5,-280 544.5,-280 544.5,-244 747.5,-244 747.5,-280"/>
<text text-anchor="middle" x="646" y="-258.3" font-family="Arial" font-size="14.00">Each holding a large paper cup</text>
</g>
<!-- n1&#45;&gt;n3 -->
<g id="edge2" class="edge">
<title>n1&#45;&gt;n3</title>
<path fill="none" stroke="black" d="M752.23,-365.81C730.96,-345.22 695.2,-310.61 671.11,-287.3"/>
<polygon fill="black" stroke="black" points="673.35,-284.6 663.73,-280.16 668.48,-289.63 673.35,-284.6"/>
</g>
<!-- n4 -->
<g id="node4" class="node">
<title>n4</title>
<polygon fill="#fffdd0" stroke="black" points="1045,-280 869,-280 869,-244 1045,-244 1045,-280"/>
<text text-anchor="middle" x="957" y="-258.3" font-family="Arial" font-size="14.00">String connecting the cups</text>
</g>
<!-- n1&#45;&gt;n4 -->
<g id="edge3" class="edge">
<title>n1&#45;&gt;n4</title>
<path fill="none" stroke="black" d="M796.79,-365.81C829.56,-344.78 885.15,-309.11 921.46,-285.8"/>
<polygon fill="black" stroke="black" points="923.73,-288.5 930.26,-280.16 919.95,-282.61 923.73,-288.5"/>
</g>
<!-- n5 -->
<g id="node5" class="node">
<title>n5</title>
<polygon fill="#fffdd0" stroke="black" points="1431,-280 1191,-280 1191,-244 1431,-244 1431,-280"/>
<text text-anchor="middle" x="1311" y="-258.3" font-family="Arial" font-size="14.00">Facing each other for communication</text>
</g>
<!-- n1&#45;&gt;n5 -->
<g id="edge4" class="edge">
<title>n1&#45;&gt;n5</title>
<path fill="none" stroke="black" d="M846.65,-366C946.33,-343.89 1120,-305.37 1224.4,-282.22"/>
<polygon fill="black" stroke="black" points="1225.2,-285.63 1234.2,-280.03 1223.68,-278.8 1225.2,-285.63"/>
</g>
<!-- n6 -->
<g id="node6" class="node">
<title>n6</title>
<path fill="palegreen" stroke="black" d="M400,-158C400,-158 12,-158 12,-158 6,-158 0,-152 0,-146 0,-146 0,-134 0,-134 0,-128 6,-122 12,-122 12,-122 400,-122 400,-122 406,-122 412,-128 412,-134 412,-134 412,-146 412,-146 412,-152 406,-158 400,-158"/>
<text text-anchor="middle" x="206" y="-136.3" font-family="Arial" font-size="14.00">Basic understanding of distant communication through technology</text>
</g>
<!-- n2&#45;&gt;n6 -->
<g id="edge5" class="edge">
<title>n2&#45;&gt;n6</title>
<path fill="none" stroke="black" d="M306.24,-243.81C286.25,-223.31 252.71,-188.91 229.99,-165.6"/>
<polygon fill="black" stroke="black" points="232.22,-162.87 222.73,-158.16 227.21,-167.76 232.22,-162.87"/>
</g>
<!-- n7 -->
<g id="node7" class="node">
<title>n7</title>
<path fill="palegreen" stroke="black" d="M748,-158C748,-158 482,-158 482,-158 476,-158 470,-152 470,-146 470,-146 470,-134 470,-134 470,-128 476,-122 482,-122 482,-122 748,-122 748,-122 754,-122 760,-128 760,-134 760,-134 760,-146 760,-146 760,-152 754,-158 748,-158"/>
<text text-anchor="middle" x="615" y="-136.3" font-family="Arial" font-size="14.00">Design supports sending and receiving sound</text>
</g>
<!-- n3&#45;&gt;n7 -->
<g id="edge6" class="edge">
<title>n3&#45;&gt;n7</title>
<path fill="none" stroke="black" d="M641.56,-243.81C636.45,-224.02 627.99,-191.29 621.99,-168.08"/>
<polygon fill="black" stroke="black" points="625.32,-166.97 619.43,-158.16 618.54,-168.72 625.32,-166.97"/>
</g>
<!-- n8 -->
<g id="node8" class="node">
<title>n8</title>
<path fill="palegreen" stroke="black" d="M1147.5,-158C1147.5,-158 830.5,-158 830.5,-158 824.5,-158 818.5,-152 818.5,-146 818.5,-146 818.5,-134 818.5,-134 818.5,-128 824.5,-122 830.5,-122 830.5,-122 1147.5,-122 1147.5,-122 1153.5,-122 1159.5,-128 1159.5,-134 1159.5,-134 1159.5,-146 1159.5,-146 1159.5,-152 1153.5,-158 1147.5,-158"/>
<text text-anchor="middle" x="989" y="-136.3" font-family="Arial" font-size="14.00">Uses simple materials to demonstrate communication</text>
</g>
<!-- n4&#45;&gt;n8 -->
<g id="edge7" class="edge">
<title>n4&#45;&gt;n8</title>
<path fill="none" stroke="black" d="M961.58,-243.81C966.86,-224.02 975.59,-191.29 981.78,-168.08"/>
<polygon fill="black" stroke="black" points="985.23,-168.72 984.42,-158.16 978.47,-166.92 985.23,-168.72"/>
</g>
<!-- n9 -->
<g id="node9" class="node">
<title>n9</title>
<polygon fill="lightcoral" stroke="black" points="1369,-158 1217.18,-140 1369,-122 1520.82,-140 1369,-158"/>
<text text-anchor="middle" x="1369" y="-136.3" font-family="Arial" font-size="14.00">Position suggests talking</text>
</g>
<!-- n5&#45;&gt;n9 -->
<g id="edge8" class="edge">
<title>n5&#45;&gt;n9</title>
<path fill="none" stroke="black" d="M1319.3,-243.81C1329.1,-223.62 1345.3,-189.94 1356.6,-166.66"/>
<polygon fill="black" stroke="black" points="1359.88,-167.91 1361.1,-157.39 1353.58,-164.86 1359.88,-167.91"/>
</g>
<!-- n10 -->
<g id="node10" class="node">
<title>n10</title>
<polygon fill="#f28e8e" stroke="black" points="1508,-36 1230,-36 1230,0 1508,0 1508,-36"/>
<text text-anchor="middle" x="1369" y="-14.3" font-family="Arial" font-size="14.00">Further explanation on sound travel needed</text>
</g>
<!-- n9&#45;&gt;n10 -->
<g id="edge9" class="edge">
<title>n9&#45;&gt;n10</title>
<path fill="none" stroke="black" d="M1369,-121.81C1369,-102.11 1369,-69.58 1369,-46.39"/>
<polygon fill="black" stroke="black" points="1372.5,-46.16 1369,-36.16 1365.5,-46.16 1372.5,-46.16"/>
</g>
</g>
</svg>
