<?xml version="1.0" encoding="UTF-8" standalone="no"?>
<!DOCTYPE svg PUBLIC "-//W3C//DTD SVG 1.1//EN"
 "http://www.w3.org/Graphics/SVG/1.1/DTD/svg11.dtd">
<!-- Generated by graphviz version 2.43.0 (0)
 -->
<!-- Pages: 1 -->
<svg width="1573pt" height="410pt"
 viewBox="0.00 0.00 1572.50 410.00" xmlns="http://www.w3.org/2000/svg" xmlns:xlink="http://www.w3.org/1999/xlink">
<g id="graph0" class="graph" transform="scale(1 1) rotate(0) translate(4 406)">
<polygon fill="white" stroke="transparent" points="-4,4 -4,-406 1568.5,-406 1568.5,4 -4,4"/>
<!-- n1 -->
<g id="node1" class="node">
<title>n1</title>
<polygon fill="lightblue" stroke="black" points="851.5,-384 687.5,-402 359.5,-402 195.5,-384 359.5,-366 687.5,-366 851.5,-384"/>
<text text-anchor="middle" x="523.5" y="-380.3" font-family="Arial" font-size="14.00">Draw reversible and irreversible changes (ice melting vs. egg cooking)</text>
</g>
<!-- n2 -->
<g id="node2" class="node">
<title>n2</title>
<polygon fill="#fffdd0" stroke="black" points="264,-280 129,-280 129,-244 264,-244 264,-280"/>
<text text-anchor="middle" x="196.5" y="-258.3" font-family="Arial" font-size="14.00">Square labeled &#39;Ice&#39;</text>
</g>
<!-- n1&#45;&gt;n2 -->
<g id="edge1" class="edge">
<title>n1&#45;&gt;n2</title>
<path fill="none" stroke="black" d="M477,-365.93C417.79,-344.21 315.61,-306.71 252.28,-283.47"/>
<polygon fill="black" stroke="black" points="253.43,-280.17 242.84,-280.01 251.02,-286.74 253.43,-280.17"/>
</g>
<!-- n3 -->
<g id="node3" class="node">
<title>n3</title>
<polygon fill="#fffdd0" stroke="black" points="696.5,-280 570.5,-280 570.5,-244 696.5,-244 696.5,-280"/>
<text text-anchor="middle" x="633.5" y="-258.3" font-family="Arial" font-size="14.00">Oval labeled &#39;Egg&#39;</text>
</g>
<!-- n1&#45;&gt;n3 -->
<g id="edge2" class="edge">
<title>n1&#45;&gt;n3</title>
<path fill="none" stroke="black" d="M539.26,-365.81C558.05,-345.31 589.58,-310.91 610.95,-287.6"/>
<polygon fill="black" stroke="black" points="613.59,-289.9 617.77,-280.16 608.43,-285.17 613.59,-289.9"/>
</g>
<!-- n4 -->
<g id="node4" class="node">
<title>n4</title>
<polygon fill="#fffdd0" stroke="black" points="507,-280 332,-280 332,-244 507,-244 507,-280"/>
<text text-anchor="middle" x="419.5" y="-258.3" font-family="Arial" font-size="14.00">Wavy lines labeled &#39;Water&#39;</text>
</g>
<!-- n1&#45;&gt;n4 -->
<g id="edge3" class="edge">
<title>n1&#45;&gt;n4</title>
<path fill="none" stroke="black" d="M508.6,-365.81C490.91,-345.4 461.28,-311.21 441.09,-287.91"/>
<polygon fill="black" stroke="black" points="443.57,-285.42 434.37,-280.16 438.28,-290.01 443.57,-285.42"/>
</g>
<!-- n5 -->
<g id="node5" class="node">
<title>n5</title>
<polygon fill="#fffdd0" stroke="black" points="1131.5,-280 955.5,-280 955.5,-244 1131.5,-244 1131.5,-280"/>
<text text-anchor="middle" x="1043.5" y="-258.3" font-family="Arial" font-size="14.00">Small chick labeled &#39;Chick&#39;</text>
</g>
<!-- n1&#45;&gt;n5 -->
<g id="edge4" class="edge">
<title>n1&#45;&gt;n5</title>
<path fill="none" stroke="black" d="M597.18,-366C692.89,-343.91 859.58,-305.44 959.92,-282.29"/>
<polygon fill="black" stroke="black" points="960.76,-285.69 969.72,-280.03 959.19,-278.87 960.76,-285.69"/>
</g>
<!-- n6 -->
<g id="node6" class="node">
<title>n6</title>
<path fill="palegreen" stroke="black" d="M341,-158C341,-158 12,-158 12,-158 6,-158 0,-152 0,-146 0,-146 0,-134 0,-134 0,-128 6,-122 12,-122 12,-122 341,-122 341,-122 347,-122 353,-128 353,-134 353,-134 353,-146 353,-146 353,-152 347,-158 341,-158"/>
<text text-anchor="middle" x="176.5" y="-136.3" font-family="Arial" font-size="14.00">Understands the initial and changed state of ice to water</text>
</g>
<!-- n2&#45;&gt;n6 -->
<g id="edge5" class="edge">
<title>n2&#45;&gt;n6</title>
<path fill="none" stroke="black" d="M193.63,-243.81C190.34,-224.02 184.88,-191.29 181.01,-168.08"/>
<polygon fill="black" stroke="black" points="184.45,-167.45 179.36,-158.16 177.55,-168.6 184.45,-167.45"/>
</g>
<!-- n7 -->
<g id="node7" class="node">
<title>n7</title>
<polygon fill="lightcoral" stroke="black" points="639.5,-158 410.5,-140 639.5,-122 868.5,-140 639.5,-158"/>
<text text-anchor="middle" x="639.5" y="-136.3" font-family="Arial" font-size="14.00">Misinterprets egg as reversible change</text>
</g>
<!-- n3&#45;&gt;n7 -->
<g id="edge6" class="edge">
<title>n3&#45;&gt;n7</title>
<path fill="none" stroke="black" d="M634.36,-243.81C635.34,-224.11 636.97,-191.58 638.13,-168.39"/>
<polygon fill="black" stroke="black" points="641.64,-168.32 638.64,-158.16 634.65,-167.97 641.64,-168.32"/>
</g>
<!-- n4&#45;&gt;n6 -->
<g id="edge7" class="edge">
<title>n4&#45;&gt;n6</title>
<path fill="none" stroke="black" d="M384.94,-243.93C341.58,-222.52 267.19,-185.78 220,-162.48"/>
<polygon fill="black" stroke="black" points="221.46,-159.3 210.94,-158.01 218.36,-165.57 221.46,-159.3"/>
</g>
<!-- n8 -->
<g id="node8" class="node">
<title>n8</title>
<polygon fill="lightcoral" stroke="black" points="1245.5,-158 926.5,-140 1245.5,-122 1564.5,-140 1245.5,-158"/>
<text text-anchor="middle" x="1245.5" y="-136.3" font-family="Arial" font-size="14.00">Misunderstanding of irreversible change of egg to chick</text>
</g>
<!-- n5&#45;&gt;n8 -->
<g id="edge8" class="edge">
<title>n5&#45;&gt;n8</title>
<path fill="none" stroke="black" d="M1072.4,-243.81C1108.8,-222.21 1171.2,-185.17 1210.3,-161.94"/>
<polygon fill="black" stroke="black" points="1212.41,-164.76 1219.2,-156.63 1208.82,-158.75 1212.41,-164.76"/>
</g>
<!-- n9 -->
<g id="node9" class="node">
<title>n9</title>
<polygon fill="#f28e8e" stroke="black" points="845.5,-36 433.5,-36 433.5,0 845.5,0 845.5,-36"/>
<text text-anchor="middle" x="639.5" y="-14.3" font-family="Arial" font-size="14.00">The &#39;Chick&#39; is not an accurate representation of egg cooking effect</text>
</g>
<!-- n7&#45;&gt;n9 -->
<g id="edge9" class="edge">
<title>n7&#45;&gt;n9</title>
<path fill="none" stroke="black" d="M639.5,-121.81C639.5,-102.11 639.5,-69.58 639.5,-46.39"/>
<polygon fill="black" stroke="black" points="643,-46.16 639.5,-36.16 636,-46.16 643,-46.16"/>
</g>
<!-- n10 -->
<g id="node10" class="node">
<title>n10</title>
<polygon fill="#f28e8e" stroke="black" points="1501,-36 990,-36 990,0 1501,0 1501,-36"/>
<text text-anchor="middle" x="1245.5" y="-14.3" font-family="Arial" font-size="14.00">Feedback: Explain that cooking an egg is irreversible and does not result in a chick</text>
</g>
<!-- n8&#45;&gt;n10 -->
<g id="edge10" class="edge">
<title>n8&#45;&gt;n10</title>
<path fill="none" stroke="black" d="M1245.5,-121.81C1245.5,-102.11 1245.5,-69.58 1245.5,-46.39"/>
<polygon fill="black" stroke="black" points="1249,-46.16 1245.5,-36.16 1242,-46.16 1249,-46.16"/>
</g>
</g>
</svg>
