<?xml version="1.0" encoding="UTF-8" standalone="no"?>
<!DOCTYPE svg PUBLIC "-//W3C//DTD SVG 1.1//EN"
 "http://www.w3.org/Graphics/SVG/1.1/DTD/svg11.dtd">
<!-- Generated by graphviz version 2.43.0 (0)
 -->
<!-- Pages: 1 -->
<svg width="1593pt" height="288pt"
 viewBox="0.00 0.00 1592.50 288.00" xmlns="http://www.w3.org/2000/svg" xmlns:xlink="http://www.w3.org/1999/xlink">
<g id="graph0" class="graph" transform="scale(1 1) rotate(0) translate(4 284)">
<polygon fill="white" stroke="transparent" points="-4,4 -4,-284 1588.5,-284 1588.5,4 -4,4"/>
<!-- n1 -->
<g id="node1" class="node">
<title>n1</title>
<polygon fill="lightblue" stroke="black" points="976,-262 864.5,-280 641.5,-280 530,-262 641.5,-244 864.5,-244 976,-262"/>
<text text-anchor="middle" x="753" y="-258.3" font-family="Arial" font-size="14.00">Draw a string telephone between two students.</text>
</g>
<!-- n2 -->
<g id="node2" class="node">
<title>n2</title>
<polygon fill="#fffdd0" stroke="black" points="289,-158 57,-158 57,-122 289,-122 289,-158"/>
<text text-anchor="middle" x="173" y="-136.3" font-family="Arial" font-size="14.00">Two students using string telephone</text>
</g>
<!-- n1&#45;&gt;n2 -->
<g id="edge1" class="edge">
<title>n1&#45;&gt;n2</title>
<path fill="none" stroke="black" d="M670.82,-244C563.74,-221.84 377.01,-183.21 265.21,-160.08"/>
<polygon fill="black" stroke="black" points="265.79,-156.63 255.29,-158.03 264.37,-163.48 265.79,-156.63"/>
</g>
<!-- n3 -->
<g id="node3" class="node">
<title>n3</title>
<polygon fill="#fffdd0" stroke="black" points="584,-158 368,-158 368,-122 584,-122 584,-158"/>
<text text-anchor="middle" x="476" y="-136.3" font-family="Arial" font-size="14.00">String connecting two paper cups</text>
</g>
<!-- n1&#45;&gt;n3 -->
<g id="edge2" class="edge">
<title>n1&#45;&gt;n3</title>
<path fill="none" stroke="black" d="M713.61,-243.93C663.87,-222.39 578.32,-185.32 524.58,-162.04"/>
<polygon fill="black" stroke="black" points="525.83,-158.77 515.26,-158.01 523.05,-165.19 525.83,-158.77"/>
</g>
<!-- n4 -->
<g id="node4" class="node">
<title>n4</title>
<polygon fill="#fffdd0" stroke="black" points="856.5,-158 649.5,-158 649.5,-122 856.5,-122 856.5,-158"/>
<text text-anchor="middle" x="753" y="-136.3" font-family="Arial" font-size="14.00">Labels for cups, string, students</text>
</g>
<!-- n1&#45;&gt;n4 -->
<g id="edge3" class="edge">
<title>n1&#45;&gt;n4</title>
<path fill="none" stroke="black" d="M753,-243.81C753,-224.11 753,-191.58 753,-168.39"/>
<polygon fill="black" stroke="black" points="756.5,-168.16 753,-158.16 749.5,-168.16 756.5,-168.16"/>
</g>
<!-- n5 -->
<g id="node5" class="node">
<title>n5</title>
<polygon fill="#fffdd0" stroke="black" points="1173.5,-158 934.5,-158 934.5,-122 1173.5,-122 1173.5,-158"/>
<text text-anchor="middle" x="1054" y="-136.3" font-family="Arial" font-size="14.00">Distance greater than shouting range</text>
</g>
<!-- n1&#45;&gt;n5 -->
<g id="edge4" class="edge">
<title>n1&#45;&gt;n5</title>
<path fill="none" stroke="black" d="M795.81,-243.93C850.08,-222.3 943.59,-185.02 1001.9,-161.76"/>
<polygon fill="black" stroke="black" points="1003.31,-164.97 1011.3,-158.01 1000.71,-158.46 1003.31,-164.97"/>
</g>
<!-- n6 -->
<g id="node6" class="node">
<title>n6</title>
<polygon fill="#fffdd0" stroke="black" points="1449,-158 1297,-158 1297,-122 1449,-122 1449,-158"/>
<text text-anchor="middle" x="1373" y="-136.3" font-family="Arial" font-size="14.00">Sound waves depicted</text>
</g>
<!-- n1&#45;&gt;n6 -->
<g id="edge5" class="edge">
<title>n1&#45;&gt;n6</title>
<path fill="none" stroke="black" d="M840.84,-244C959.32,-221.07 1169,-180.48 1286.7,-157.7"/>
<polygon fill="black" stroke="black" points="1287.55,-161.1 1296.7,-155.76 1286.22,-154.23 1287.55,-161.1"/>
</g>
<!-- n7 -->
<g id="node7" class="node">
<title>n7</title>
<path fill="palegreen" stroke="black" d="M276,-36C276,-36 12,-36 12,-36 6,-36 0,-30 0,-24 0,-24 0,-12 0,-12 0,-6 6,0 12,0 12,0 276,0 276,0 282,0 288,-6 288,-12 288,-12 288,-24 288,-24 288,-30 282,-36 276,-36"/>
<text text-anchor="middle" x="144" y="-14.3" font-family="Arial" font-size="14.00">Understanding of communication using string</text>
</g>
<!-- n2&#45;&gt;n7 -->
<g id="edge6" class="edge">
<title>n2&#45;&gt;n7</title>
<path fill="none" stroke="black" d="M168.85,-121.81C164.06,-102.02 156.15,-69.29 150.54,-46.08"/>
<polygon fill="black" stroke="black" points="153.9,-45.06 148.15,-36.16 147.09,-46.7 153.9,-45.06"/>
</g>
<!-- n8 -->
<g id="node8" class="node">
<title>n8</title>
<path fill="palegreen" stroke="black" d="M580,-36C580,-36 358,-36 358,-36 352,-36 346,-30 346,-24 346,-24 346,-12 346,-12 346,-6 352,0 358,0 358,0 580,0 580,0 586,0 592,-6 592,-12 592,-12 592,-24 592,-24 592,-30 586,-36 580,-36"/>
<text text-anchor="middle" x="469" y="-14.3" font-family="Arial" font-size="14.00">Correct illustration of string connection</text>
</g>
<!-- n3&#45;&gt;n8 -->
<g id="edge7" class="edge">
<title>n3&#45;&gt;n8</title>
<path fill="none" stroke="black" d="M475,-121.81C473.85,-102.11 471.95,-69.58 470.6,-46.39"/>
<polygon fill="black" stroke="black" points="474.08,-45.94 470,-36.16 467.09,-46.35 474.08,-45.94"/>
</g>
<!-- n9 -->
<g id="node9" class="node">
<title>n9</title>
<path fill="palegreen" stroke="black" d="M844,-36C844,-36 662,-36 662,-36 656,-36 650,-30 650,-24 650,-24 650,-12 650,-12 650,-6 656,0 662,0 662,0 844,0 844,0 850,0 856,-6 856,-12 856,-12 856,-24 856,-24 856,-30 850,-36 844,-36"/>
<text text-anchor="middle" x="753" y="-14.3" font-family="Arial" font-size="14.00">Effective use of labels for clarity</text>
</g>
<!-- n4&#45;&gt;n9 -->
<g id="edge8" class="edge">
<title>n4&#45;&gt;n9</title>
<path fill="none" stroke="black" d="M753,-121.81C753,-102.11 753,-69.58 753,-46.39"/>
<polygon fill="black" stroke="black" points="756.5,-46.16 753,-36.16 749.5,-46.16 756.5,-46.16"/>
</g>
<!-- n10 -->
<g id="node10" class="node">
<title>n10</title>
<path fill="palegreen" stroke="black" d="M1223.5,-36C1223.5,-36 926.5,-36 926.5,-36 920.5,-36 914.5,-30 914.5,-24 914.5,-24 914.5,-12 914.5,-12 914.5,-6 920.5,0 926.5,0 926.5,0 1223.5,0 1223.5,0 1229.5,0 1235.5,-6 1235.5,-12 1235.5,-12 1235.5,-24 1235.5,-24 1235.5,-30 1229.5,-36 1223.5,-36"/>
<text text-anchor="middle" x="1075" y="-14.3" font-family="Arial" font-size="14.00">Understanding of distance factor in communication</text>
</g>
<!-- n5&#45;&gt;n10 -->
<g id="edge9" class="edge">
<title>n5&#45;&gt;n10</title>
<path fill="none" stroke="black" d="M1057,-121.81C1060.5,-102.02 1066.2,-69.29 1070.3,-46.08"/>
<polygon fill="black" stroke="black" points="1073.76,-46.61 1072,-36.16 1066.86,-45.43 1073.76,-46.61"/>
</g>
<!-- n11 -->
<g id="node11" class="node">
<title>n11</title>
<path fill="palegreen" stroke="black" d="M1572.5,-36C1572.5,-36 1305.5,-36 1305.5,-36 1299.5,-36 1293.5,-30 1293.5,-24 1293.5,-24 1293.5,-12 1293.5,-12 1293.5,-6 1299.5,0 1305.5,0 1305.5,0 1572.5,0 1572.5,0 1578.5,0 1584.5,-6 1584.5,-12 1584.5,-12 1584.5,-24 1584.5,-24 1584.5,-30 1578.5,-36 1572.5,-36"/>
<text text-anchor="middle" x="1439" y="-14.3" font-family="Arial" font-size="14.00">Basic understanding of sound waves traveling</text>
</g>
<!-- n6&#45;&gt;n11 -->
<g id="edge10" class="edge">
<title>n6&#45;&gt;n11</title>
<path fill="none" stroke="black" d="M1382.5,-121.81C1393.5,-101.76 1411.8,-68.4 1424.6,-45.14"/>
<polygon fill="black" stroke="black" points="1427.79,-46.6 1429.6,-36.16 1421.68,-43.19 1427.79,-46.6"/>
</g>
</g>
</svg>
