<?xml version="1.0" encoding="UTF-8" standalone="no"?>
<!DOCTYPE svg PUBLIC "-//W3C//DTD SVG 1.1//EN"
 "http://www.w3.org/Graphics/SVG/1.1/DTD/svg11.dtd">
<!-- Generated by graphviz version 2.43.0 (0)
 -->
<!-- Pages: 1 -->
<svg width="1057pt" height="410pt"
 viewBox="0.00 0.00 1056.50 410.00" xmlns="http://www.w3.org/2000/svg" xmlns:xlink="http://www.w3.org/1999/xlink">
<g id="graph0" class="graph" transform="scale(1 1) rotate(0) translate(4 406)">
<polygon fill="white" stroke="transparent" points="-4,4 -4,-406 1052.5,-406 1052.5,4 -4,4"/>
<!-- n1 -->
<g id="node1" class="node">
<title>n1</title>
<polygon fill="lightblue" stroke="black" points="773,-384 609,-402 281,-402 117,-384 281,-366 609,-366 773,-384"/>
<text text-anchor="middle" x="445" y="-380.3" font-family="Arial" font-size="14.00">Draw reversible and irreversible changes (ice melting vs. egg cooking)</text>
</g>
<!-- n2 -->
<g id="node2" class="node">
<title>n2</title>
<polygon fill="#fffdd0" stroke="black" points="467.5,-280 8.5,-280 8.5,-244 467.5,-244 467.5,-280"/>
<text text-anchor="middle" x="238" y="-258.3" font-family="Arial" font-size="14.00">Square shaded like an ice cube next to a puddle of water with a snowflake</text>
</g>
<!-- n1&#45;&gt;n2 -->
<g id="edge1" class="edge">
<title>n1&#45;&gt;n2</title>
<path fill="none" stroke="black" d="M415.34,-365.81C378.76,-344.6 316.49,-308.5 276.32,-285.21"/>
<polygon fill="black" stroke="black" points="278.01,-282.14 267.6,-280.16 274.5,-288.2 278.01,-282.14"/>
</g>
<!-- n3 -->
<g id="node3" class="node">
<title>n3</title>
<polygon fill="#fffdd0" stroke="black" points="813,-280 561,-280 561,-244 813,-244 813,-280"/>
<text text-anchor="middle" x="687" y="-258.3" font-family="Arial" font-size="14.00">Oval raw egg next to a simple fried egg</text>
</g>
<!-- n1&#45;&gt;n3 -->
<g id="edge2" class="edge">
<title>n1&#45;&gt;n3</title>
<path fill="none" stroke="black" d="M479.42,-365.93C522.6,-344.52 596.68,-307.78 643.68,-284.48"/>
<polygon fill="black" stroke="black" points="645.29,-287.59 652.7,-280.01 642.19,-281.31 645.29,-287.59"/>
</g>
<!-- n4 -->
<g id="node4" class="node">
<title>n4</title>
<path fill="palegreen" stroke="black" d="M326,-158C326,-158 12,-158 12,-158 6,-158 0,-152 0,-146 0,-146 0,-134 0,-134 0,-128 6,-122 12,-122 12,-122 326,-122 326,-122 332,-122 338,-128 338,-134 338,-134 338,-146 338,-146 338,-152 332,-158 326,-158"/>
<text text-anchor="middle" x="169" y="-136.3" font-family="Arial" font-size="14.00">Understands reversibility of ice melting and refreezing</text>
</g>
<!-- n2&#45;&gt;n4 -->
<g id="edge3" class="edge">
<title>n2&#45;&gt;n4</title>
<path fill="none" stroke="black" d="M228.11,-243.81C216.53,-223.67 197.24,-190.1 183.85,-166.83"/>
<polygon fill="black" stroke="black" points="186.89,-165.09 178.87,-158.16 180.82,-168.57 186.89,-165.09"/>
</g>
<!-- n5 -->
<g id="node5" class="node">
<title>n5</title>
<polygon fill="lightcoral" stroke="black" points="722,-158 395.5,-140 722,-122 1048.5,-140 722,-158"/>
<text text-anchor="middle" x="722" y="-136.3" font-family="Arial" font-size="14.00">Struggles with illustrating irreversibility of cooking an egg</text>
</g>
<!-- n3&#45;&gt;n5 -->
<g id="edge4" class="edge">
<title>n3&#45;&gt;n5</title>
<path fill="none" stroke="black" d="M692.01,-243.81C697.82,-223.91 707.44,-190.92 714.22,-167.68"/>
<polygon fill="black" stroke="black" points="717.67,-168.35 717.11,-157.77 710.95,-166.39 717.67,-168.35"/>
</g>
<!-- n6 -->
<g id="node6" class="node">
<title>n6</title>
<polygon fill="#f28e8e" stroke="black" points="914.5,-36 529.5,-36 529.5,0 914.5,0 914.5,-36"/>
<text text-anchor="middle" x="722" y="-14.3" font-family="Arial" font-size="14.00">Use arrows or sequences to highlight irreversible egg cooking</text>
</g>
<!-- n5&#45;&gt;n6 -->
<g id="edge5" class="edge">
<title>n5&#45;&gt;n6</title>
<path fill="none" stroke="black" d="M722,-121.81C722,-102.11 722,-69.58 722,-46.39"/>
<polygon fill="black" stroke="black" points="725.5,-46.16 722,-36.16 718.5,-46.16 725.5,-46.16"/>
</g>
</g>
</svg>
