<?xml version="1.0" encoding="UTF-8" standalone="no"?>
<!DOCTYPE svg PUBLIC "-//W3C//DTD SVG 1.1//EN"
 "http://www.w3.org/Graphics/SVG/1.1/DTD/svg11.dtd">
<!-- Generated by graphviz version 2.43.0 (0)
 -->
<!-- Pages: 1 -->
<svg width="1651pt" height="288pt"
 viewBox="0.00 0.00 1651.00 288.00" xmlns="http://www.w3.org/2000/svg" xmlns:xlink="http://www.w3.org/1999/xlink">
<g id="graph0" class="graph" transform="scale(1 1) rotate(0) translate(4 284)">
<polygon fill="white" stroke="transparent" points="-4,4 -4,-284 1647,-284 1647,4 -4,4"/>
<!-- n1 -->
<g id="node1" class="node">
<title>n1</title>
<polygon fill="lightblue" stroke="black" points="1052,-262 960.75,-280 778.25,-280 687,-262 778.25,-244 960.75,-244 1052,-262"/>
<text text-anchor="middle" x="869.5" y="-258.3" font-family="Arial" font-size="14.00">Draw a fish in their habitat with labels.</text>
</g>
<!-- n2 -->
<g id="node2" class="node">
<title>n2</title>
<polygon fill="#fffdd0" stroke="black" points="248.5,-158 12.5,-158 12.5,-122 248.5,-122 248.5,-158"/>
<text text-anchor="middle" x="130.5" y="-136.3" font-family="Arial" font-size="14.00">A fish with labeled fins, tail, and eyes</text>
</g>
<!-- n1&#45;&gt;n2 -->
<g id="edge1" class="edge">
<title>n1&#45;&gt;n2</title>
<path fill="none" stroke="black" d="M772.13,-245.19C636.25,-223.12 390.21,-183.17 245.49,-159.67"/>
<polygon fill="black" stroke="black" points="245.68,-156.16 235.25,-158.01 244.56,-163.07 245.68,-156.16"/>
</g>
<!-- n3 -->
<g id="node3" class="node">
<title>n3</title>
<polygon fill="#fffdd0" stroke="black" points="547.5,-158 309.5,-158 309.5,-122 547.5,-122 547.5,-158"/>
<text text-anchor="middle" x="428.5" y="-136.3" font-family="Arial" font-size="14.00">Underwater scene with labeled water</text>
</g>
<!-- n1&#45;&gt;n3 -->
<g id="edge2" class="edge">
<title>n1&#45;&gt;n3</title>
<path fill="none" stroke="black" d="M806.78,-243.93C726.04,-221.96 586.01,-183.86 500.85,-160.69"/>
<polygon fill="black" stroke="black" points="501.57,-157.26 491,-158.01 499.73,-164.01 501.57,-157.26"/>
</g>
<!-- n4 -->
<g id="node4" class="node">
<title>n4</title>
<polygon fill="#fffdd0" stroke="black" points="833,-158 606,-158 606,-122 833,-122 833,-158"/>
<text text-anchor="middle" x="719.5" y="-136.3" font-family="Arial" font-size="14.00">Labeled seaweed as aquatic plants</text>
</g>
<!-- n1&#45;&gt;n4 -->
<g id="edge3" class="edge">
<title>n1&#45;&gt;n4</title>
<path fill="none" stroke="black" d="M848.01,-243.81C822.06,-223.04 778.27,-188.01 749.12,-164.7"/>
<polygon fill="black" stroke="black" points="750.94,-161.68 740.95,-158.16 746.57,-167.14 750.94,-161.68"/>
</g>
<!-- n5 -->
<g id="node5" class="node">
<title>n5</title>
<polygon fill="#fffdd0" stroke="black" points="1405.5,-158 1205.5,-158 1205.5,-122 1405.5,-122 1405.5,-158"/>
<text text-anchor="middle" x="1305.5" y="-136.3" font-family="Arial" font-size="14.00">Another fish in the background</text>
</g>
<!-- n1&#45;&gt;n5 -->
<g id="edge4" class="edge">
<title>n1&#45;&gt;n5</title>
<path fill="none" stroke="black" d="M931.51,-243.93C1011.3,-221.96 1149.8,-183.86 1234,-160.69"/>
<polygon fill="black" stroke="black" points="1234.99,-164.05 1243.7,-158.01 1233.13,-157.3 1234.99,-164.05"/>
</g>
<!-- n6 -->
<g id="node6" class="node">
<title>n6</title>
<polygon fill="#fffdd0" stroke="black" points="1643,-158 1464,-158 1464,-122 1643,-122 1643,-158"/>
<text text-anchor="middle" x="1553.5" y="-136.3" font-family="Arial" font-size="14.00">Algae and plankton labeled</text>
</g>
<!-- n1&#45;&gt;n6 -->
<g id="edge5" class="edge">
<title>n1&#45;&gt;n6</title>
<path fill="none" stroke="black" d="M963.53,-244.5C1092.2,-221.93 1322.1,-181.6 1453.7,-158.51"/>
<polygon fill="black" stroke="black" points="1454.55,-161.91 1463.8,-156.74 1453.35,-155.02 1454.55,-161.91"/>
</g>
<!-- n7 -->
<g id="node7" class="node">
<title>n7</title>
<polygon fill="#fffdd0" stroke="black" points="1147.5,-158 891.5,-158 891.5,-122 1147.5,-122 1147.5,-158"/>
<text text-anchor="middle" x="1019.5" y="-136.3" font-family="Arial" font-size="14.00">Flow lines labeled as oxygen production</text>
</g>
<!-- n1&#45;&gt;n7 -->
<g id="edge6" class="edge">
<title>n1&#45;&gt;n7</title>
<path fill="none" stroke="black" d="M890.99,-243.81C916.94,-223.04 960.73,-188.01 989.88,-164.7"/>
<polygon fill="black" stroke="black" points="992.43,-167.14 998.05,-158.16 988.06,-161.68 992.43,-167.14"/>
</g>
<!-- n8 -->
<g id="node8" class="node">
<title>n8</title>
<path fill="palegreen" stroke="black" d="M239,-36C239,-36 12,-36 12,-36 6,-36 0,-30 0,-24 0,-24 0,-12 0,-12 0,-6 6,0 12,0 12,0 239,0 239,0 245,0 251,-6 251,-12 251,-12 251,-24 251,-24 251,-30 245,-36 239,-36"/>
<text text-anchor="middle" x="125.5" y="-14.3" font-family="Arial" font-size="14.00">Correct labeling of fish parts and needs</text>
</g>
<!-- n2&#45;&gt;n8 -->
<g id="edge7" class="edge">
<title>n2&#45;&gt;n8</title>
<path fill="none" stroke="black" d="M129.78,-121.81C128.96,-102.11 127.61,-69.58 126.64,-46.39"/>
<polygon fill="black" stroke="black" points="130.13,-46.01 126.22,-36.16 123.13,-46.3 130.13,-46.01"/>
</g>
<!-- n9 -->
<g id="node9" class="node">
<title>n9</title>
<path fill="palegreen" stroke="black" d="M542,-36C542,-36 321,-36 321,-36 315,-36 309,-30 309,-24 309,-24 309,-12 309,-12 309,-6 315,0 321,0 321,0 542,0 542,0 548,0 554,-6 554,-12 554,-12 554,-24 554,-24 554,-30 548,-36 542,-36"/>
<text text-anchor="middle" x="431.5" y="-14.3" font-family="Arial" font-size="14.00">Understanding of aquatic environment</text>
</g>
<!-- n3&#45;&gt;n9 -->
<g id="edge8" class="edge">
<title>n3&#45;&gt;n9</title>
<path fill="none" stroke="black" d="M428.93,-121.81C429.42,-102.11 430.24,-69.58 430.82,-46.39"/>
<polygon fill="black" stroke="black" points="434.32,-46.24 431.07,-36.16 427.33,-46.07 434.32,-46.24"/>
</g>
<!-- n10 -->
<g id="node10" class="node">
<title>n10</title>
<path fill="palegreen" stroke="black" d="M952,-36C952,-36 787,-36 787,-36 781,-36 775,-30 775,-24 775,-24 775,-12 775,-12 775,-6 781,0 787,0 787,0 952,0 952,0 958,0 964,-6 964,-12 964,-12 964,-24 964,-24 964,-30 958,-36 952,-36"/>
<text text-anchor="middle" x="869.5" y="-14.3" font-family="Arial" font-size="14.00">Plants provide oxygen to fish</text>
</g>
<!-- n4&#45;&gt;n10 -->
<g id="edge9" class="edge">
<title>n4&#45;&gt;n10</title>
<path fill="none" stroke="black" d="M740.99,-121.81C766.94,-101.04 810.73,-66.01 839.88,-42.7"/>
<polygon fill="black" stroke="black" points="842.43,-45.14 848.05,-36.16 838.06,-39.68 842.43,-45.14"/>
</g>
<!-- n11 -->
<g id="node11" class="node">
<title>n11</title>
<path fill="palegreen" stroke="black" d="M1550.5,-36C1550.5,-36 1308.5,-36 1308.5,-36 1302.5,-36 1296.5,-30 1296.5,-24 1296.5,-24 1296.5,-12 1296.5,-12 1296.5,-6 1302.5,0 1308.5,0 1308.5,0 1550.5,0 1550.5,0 1556.5,0 1562.5,-6 1562.5,-12 1562.5,-12 1562.5,-24 1562.5,-24 1562.5,-30 1556.5,-36 1550.5,-36"/>
<text text-anchor="middle" x="1429.5" y="-14.3" font-family="Arial" font-size="14.00">Ecosystem interactions of fish and habitat</text>
</g>
<!-- n5&#45;&gt;n11 -->
<g id="edge10" class="edge">
<title>n5&#45;&gt;n11</title>
<path fill="none" stroke="black" d="M1323.3,-121.81C1344.5,-101.22 1380.3,-66.61 1404.4,-43.3"/>
<polygon fill="black" stroke="black" points="1407.03,-45.62 1411.8,-36.16 1402.17,-40.59 1407.03,-45.62"/>
</g>
<!-- n6&#45;&gt;n11 -->
<g id="edge11" class="edge">
<title>n6&#45;&gt;n11</title>
<path fill="none" stroke="black" d="M1535.7,-121.81C1514.5,-101.22 1478.7,-66.61 1454.6,-43.3"/>
<polygon fill="black" stroke="black" points="1456.83,-40.59 1447.2,-36.16 1451.97,-45.62 1456.83,-40.59"/>
</g>
<!-- n7&#45;&gt;n10 -->
<g id="edge12" class="edge">
<title>n7&#45;&gt;n10</title>
<path fill="none" stroke="black" d="M998.01,-121.81C972.06,-101.04 928.27,-66.01 899.12,-42.7"/>
<polygon fill="black" stroke="black" points="900.94,-39.68 890.95,-36.16 896.57,-45.14 900.94,-39.68"/>
</g>
</g>
</svg>
