<?xml version="1.0" encoding="UTF-8" standalone="no"?>
<!DOCTYPE svg PUBLIC "-//W3C//DTD SVG 1.1//EN"
 "http://www.w3.org/Graphics/SVG/1.1/DTD/svg11.dtd">
<!-- Generated by graphviz version 2.43.0 (0)
 -->
<!-- Pages: 1 -->
<svg width="2352pt" height="410pt"
 viewBox="0.00 0.00 2351.54 410.00" xmlns="http://www.w3.org/2000/svg" xmlns:xlink="http://www.w3.org/1999/xlink">
<g id="graph0" class="graph" transform="scale(1 1) rotate(0) translate(4 406)">
<polygon fill="white" stroke="transparent" points="-4,4 -4,-406 2347.54,-406 2347.54,4 -4,4"/>
<!-- n1 -->
<g id="node1" class="node">
<title>n1</title>
<polygon fill="lightblue" stroke="black" points="1480.32,-384 1357.91,-402 1113.09,-402 990.68,-384 1113.09,-366 1357.91,-366 1480.32,-384"/>
<text text-anchor="middle" x="1235.5" y="-380.3" font-family="Arial" font-size="14.00">Draw a habitat and the different living things in each</text>
</g>
<!-- n2 -->
<g id="node2" class="node">
<title>n2</title>
<polygon fill="#fffdd0" stroke="black" points="444,-280 271,-280 271,-244 444,-244 444,-280"/>
<text text-anchor="middle" x="357.5" y="-258.3" font-family="Arial" font-size="14.00">Playground with swing set</text>
</g>
<!-- n1&#45;&gt;n2 -->
<g id="edge1" class="edge">
<title>n1&#45;&gt;n2</title>
<path fill="none" stroke="black" d="M1112,-366.12C935.59,-342.01 614.97,-298.19 454.48,-276.25"/>
<polygon fill="black" stroke="black" points="454.52,-272.72 444.14,-274.84 453.58,-279.66 454.52,-272.72"/>
</g>
<!-- n3 -->
<g id="node3" class="node">
<title>n3</title>
<polygon fill="#fffdd0" stroke="black" points="894.5,-280 744.5,-280 744.5,-244 894.5,-244 894.5,-280"/>
<text text-anchor="middle" x="819.5" y="-258.3" font-family="Arial" font-size="14.00">Gray squirrel on grass</text>
</g>
<!-- n1&#45;&gt;n3 -->
<g id="edge2" class="edge">
<title>n1&#45;&gt;n3</title>
<path fill="none" stroke="black" d="M1176.3,-365.93C1100.4,-344.03 968.89,-306.09 888.48,-282.9"/>
<polygon fill="black" stroke="black" points="889.04,-279.42 878.46,-280.01 887.1,-286.14 889.04,-279.42"/>
</g>
<!-- n4 -->
<g id="node4" class="node">
<title>n4</title>
<polygon fill="#fffdd0" stroke="black" points="1280,-280 1191,-280 1191,-244 1280,-244 1280,-280"/>
<text text-anchor="middle" x="1235.5" y="-258.3" font-family="Arial" font-size="14.00">Green trees</text>
</g>
<!-- n1&#45;&gt;n4 -->
<g id="edge3" class="edge">
<title>n1&#45;&gt;n4</title>
<path fill="none" stroke="black" d="M1235.5,-365.81C1235.5,-346.11 1235.5,-313.58 1235.5,-290.39"/>
<polygon fill="black" stroke="black" points="1239,-290.16 1235.5,-280.16 1232,-290.16 1239,-290.16"/>
</g>
<!-- n5 -->
<g id="node5" class="node">
<title>n5</title>
<polygon fill="#fffdd0" stroke="black" points="1533,-280 1404,-280 1404,-244 1533,-244 1533,-280"/>
<text text-anchor="middle" x="1468.5" y="-258.3" font-family="Arial" font-size="14.00">Bushes near water</text>
</g>
<!-- n1&#45;&gt;n5 -->
<g id="edge4" class="edge">
<title>n1&#45;&gt;n5</title>
<path fill="none" stroke="black" d="M1268.9,-365.81C1310.3,-344.47 1381,-308.05 1426.2,-284.77"/>
<polygon fill="black" stroke="black" points="1427.9,-287.83 1435.2,-280.16 1424.7,-281.6 1427.9,-287.83"/>
</g>
<!-- n6 -->
<g id="node6" class="node">
<title>n6</title>
<polygon fill="#fffdd0" stroke="black" points="1950,-280 1739,-280 1739,-244 1950,-244 1950,-280"/>
<text text-anchor="middle" x="1844.5" y="-258.3" font-family="Arial" font-size="14.00">Blue circle pond with orange fish</text>
</g>
<!-- n1&#45;&gt;n6 -->
<g id="edge5" class="edge">
<title>n1&#45;&gt;n6</title>
<path fill="none" stroke="black" d="M1321.8,-366C1434.3,-343.82 1630.7,-305.13 1748,-282.01"/>
<polygon fill="black" stroke="black" points="1748.96,-285.39 1758.1,-280.03 1747.61,-278.52 1748.96,-285.39"/>
</g>
<!-- n7 -->
<g id="node7" class="node">
<title>n7</title>
<path fill="palegreen" stroke="black" d="M219,-158C219,-158 12,-158 12,-158 6,-158 0,-152 0,-146 0,-146 0,-134 0,-134 0,-128 6,-122 12,-122 12,-122 219,-122 219,-122 225,-122 231,-128 231,-134 231,-134 231,-146 231,-146 231,-152 225,-158 219,-158"/>
<text text-anchor="middle" x="115.5" y="-136.3" font-family="Arial" font-size="14.00">Includes a land habitat (playground)</text>
</g>
<!-- n2&#45;&gt;n7 -->
<g id="edge6" class="edge">
<title>n2&#45;&gt;n7</title>
<path fill="none" stroke="black" d="M323.08,-243.93C279.9,-222.52 205.82,-185.78 158.82,-162.48"/>
<polygon fill="black" stroke="black" points="160.31,-159.31 149.8,-158.01 157.21,-165.59 160.31,-159.31"/>
</g>
<!-- n8 -->
<g id="node8" class="node">
<title>n8</title>
<path fill="palegreen" stroke="black" d="M481.5,-158C481.5,-158 301.5,-158 301.5,-158 295.5,-158 289.5,-152 289.5,-146 289.5,-146 289.5,-134 289.5,-134 289.5,-128 295.5,-122 301.5,-122 301.5,-122 481.5,-122 481.5,-122 487.5,-122 493.5,-128 493.5,-134 493.5,-134 493.5,-146 493.5,-146 493.5,-152 487.5,-158 481.5,-158"/>
<text text-anchor="middle" x="391.5" y="-136.3" font-family="Arial" font-size="14.00">Includes land animals (squirrel)</text>
</g>
<!-- n3&#45;&gt;n8 -->
<g id="edge7" class="edge">
<title>n3&#45;&gt;n8</title>
<path fill="none" stroke="black" d="M758.63,-243.93C680.35,-221.99 544.65,-183.94 461.97,-160.76"/>
<polygon fill="black" stroke="black" points="462.73,-157.34 452.16,-158.01 460.84,-164.08 462.73,-157.34"/>
</g>
<!-- n13 -->
<g id="node9" class="node">
<title>n13</title>
<polygon fill="lightcoral" stroke="black" points="819.5,-158 551,-140 819.5,-122 1088,-140 819.5,-158"/>
<text text-anchor="middle" x="819.5" y="-136.3" font-family="Arial" font-size="14.00">Limited diversity in land habitat representation</text>
</g>
<!-- n3&#45;&gt;n13 -->
<g id="edge8" class="edge">
<title>n3&#45;&gt;n13</title>
<path fill="none" stroke="black" d="M819.5,-243.81C819.5,-224.11 819.5,-191.58 819.5,-168.39"/>
<polygon fill="black" stroke="black" points="823,-168.16 819.5,-158.16 816,-168.16 823,-168.16"/>
</g>
<!-- n9 -->
<g id="node10" class="node">
<title>n9</title>
<path fill="palegreen" stroke="black" d="M1313,-158C1313,-158 1158,-158 1158,-158 1152,-158 1146,-152 1146,-146 1146,-146 1146,-134 1146,-134 1146,-128 1152,-122 1158,-122 1158,-122 1313,-122 1313,-122 1319,-122 1325,-128 1325,-134 1325,-134 1325,-146 1325,-146 1325,-152 1319,-158 1313,-158"/>
<text text-anchor="middle" x="1235.5" y="-136.3" font-family="Arial" font-size="14.00">Includes land plants (trees)</text>
</g>
<!-- n4&#45;&gt;n9 -->
<g id="edge9" class="edge">
<title>n4&#45;&gt;n9</title>
<path fill="none" stroke="black" d="M1235.5,-243.81C1235.5,-224.11 1235.5,-191.58 1235.5,-168.39"/>
<polygon fill="black" stroke="black" points="1239,-168.16 1235.5,-158.16 1232,-168.16 1239,-168.16"/>
</g>
<!-- n10 -->
<g id="node11" class="node">
<title>n10</title>
<path fill="palegreen" stroke="black" d="M1673.5,-158C1673.5,-158 1395.5,-158 1395.5,-158 1389.5,-158 1383.5,-152 1383.5,-146 1383.5,-146 1383.5,-134 1383.5,-134 1383.5,-128 1389.5,-122 1395.5,-122 1395.5,-122 1673.5,-122 1673.5,-122 1679.5,-122 1685.5,-128 1685.5,-134 1685.5,-134 1685.5,-146 1685.5,-146 1685.5,-152 1679.5,-158 1673.5,-158"/>
<text text-anchor="middle" x="1534.5" y="-136.3" font-family="Arial" font-size="14.00">Recognizes presence of water near land habitat</text>
</g>
<!-- n5&#45;&gt;n10 -->
<g id="edge10" class="edge">
<title>n5&#45;&gt;n10</title>
<path fill="none" stroke="black" d="M1478,-243.81C1489,-223.76 1507.3,-190.4 1520.1,-167.14"/>
<polygon fill="black" stroke="black" points="1523.29,-168.6 1525.1,-158.16 1517.18,-165.19 1523.29,-168.6"/>
</g>
<!-- n11 -->
<g id="node12" class="node">
<title>n11</title>
<path fill="palegreen" stroke="black" d="M1933.5,-158C1933.5,-158 1755.5,-158 1755.5,-158 1749.5,-158 1743.5,-152 1743.5,-146 1743.5,-146 1743.5,-134 1743.5,-134 1743.5,-128 1749.5,-122 1755.5,-122 1755.5,-122 1933.5,-122 1933.5,-122 1939.5,-122 1945.5,-128 1945.5,-134 1945.5,-134 1945.5,-146 1945.5,-146 1945.5,-152 1939.5,-158 1933.5,-158"/>
<text text-anchor="middle" x="1844.5" y="-136.3" font-family="Arial" font-size="14.00">Includes a water habitat (pond)</text>
</g>
<!-- n6&#45;&gt;n11 -->
<g id="edge11" class="edge">
<title>n6&#45;&gt;n11</title>
<path fill="none" stroke="black" d="M1844.5,-243.81C1844.5,-224.11 1844.5,-191.58 1844.5,-168.39"/>
<polygon fill="black" stroke="black" points="1848,-168.16 1844.5,-158.16 1841,-168.16 1848,-168.16"/>
</g>
<!-- n12 -->
<g id="node13" class="node">
<title>n12</title>
<polygon fill="lightcoral" stroke="black" points="2173.5,-158 2003.41,-140 2173.5,-122 2343.59,-140 2173.5,-158"/>
<text text-anchor="middle" x="2173.5" y="-136.3" font-family="Arial" font-size="14.00">Water habitat lacks diversity</text>
</g>
<!-- n6&#45;&gt;n12 -->
<g id="edge12" class="edge">
<title>n6&#45;&gt;n12</title>
<path fill="none" stroke="black" d="M1891.3,-243.93C1954.1,-221.02 2065,-180.58 2127.4,-157.8"/>
<polygon fill="black" stroke="black" points="2128.8,-161.01 2137,-154.3 2126.41,-154.44 2128.8,-161.01"/>
</g>
<!-- n15 -->
<g id="node14" class="node">
<title>n15</title>
<polygon fill="#f28e8e" stroke="black" points="994.5,-36 644.5,-36 644.5,0 994.5,0 994.5,-36"/>
<text text-anchor="middle" x="819.5" y="-14.3" font-family="Arial" font-size="14.00">Show differences between habitats with diverse species</text>
</g>
<!-- n13&#45;&gt;n15 -->
<g id="edge13" class="edge">
<title>n13&#45;&gt;n15</title>
<path fill="none" stroke="black" d="M819.5,-121.81C819.5,-102.11 819.5,-69.58 819.5,-46.39"/>
<polygon fill="black" stroke="black" points="823,-46.16 819.5,-36.16 816,-46.16 823,-46.16"/>
</g>
<!-- n14 -->
<g id="node15" class="node">
<title>n14</title>
<polygon fill="#f28e8e" stroke="black" points="2342,-36 2005,-36 2005,0 2342,0 2342,-36"/>
<text text-anchor="middle" x="2173.5" y="-14.3" font-family="Arial" font-size="14.00">Add more animals and plants to the pond for diversity</text>
</g>
<!-- n12&#45;&gt;n14 -->
<g id="edge14" class="edge">
<title>n12&#45;&gt;n14</title>
<path fill="none" stroke="black" d="M2173.5,-121.81C2173.5,-102.11 2173.5,-69.58 2173.5,-46.39"/>
<polygon fill="black" stroke="black" points="2177,-46.16 2173.5,-36.16 2170,-46.16 2177,-46.16"/>
</g>
</g>
</svg>
