<?xml version="1.0" encoding="UTF-8" standalone="no"?>
<!DOCTYPE svg PUBLIC "-//W3C//DTD SVG 1.1//EN"
 "http://www.w3.org/Graphics/SVG/1.1/DTD/svg11.dtd">
<!-- Generated by graphviz version 2.43.0 (0)
 -->
<!-- Pages: 1 -->
<svg width="1671pt" height="410pt"
 viewBox="0.00 0.00 1671.00 410.00" xmlns="http://www.w3.org/2000/svg" xmlns:xlink="http://www.w3.org/1999/xlink">
<g id="graph0" class="graph" transform="scale(1 1) rotate(0) translate(4 406)">
<polygon fill="white" stroke="transparent" points="-4,4 -4,-406 1667,-406 1667,4 -4,4"/>
<!-- n1 -->
<g id="node1" class="node">
<title>n1</title>
<polygon fill="lightblue" stroke="black" points="1035,-384 943.75,-402 761.25,-402 670,-384 761.25,-366 943.75,-366 1035,-384"/>
<text text-anchor="middle" x="852.5" y="-380.3" font-family="Arial" font-size="14.00">Draw a fish in their habitat with labels.</text>
</g>
<!-- n2 -->
<g id="node2" class="node">
<title>n2</title>
<polygon fill="#fffdd0" stroke="black" points="357,-280 118,-280 118,-244 357,-244 357,-280"/>
<text text-anchor="middle" x="237.5" y="-258.3" font-family="Arial" font-size="14.00">Fish with oval body and triangular tail</text>
</g>
<!-- n1&#45;&gt;n2 -->
<g id="edge1" class="edge">
<title>n1&#45;&gt;n2</title>
<path fill="none" stroke="black" d="M765.36,-366C651.71,-343.82 453.43,-305.13 334.92,-282.01"/>
<polygon fill="black" stroke="black" points="335.24,-278.51 324.76,-280.03 333.91,-285.38 335.24,-278.51"/>
</g>
<!-- n3 -->
<g id="node3" class="node">
<title>n3</title>
<polygon fill="#fffdd0" stroke="black" points="631.5,-280 477.5,-280 477.5,-244 631.5,-244 631.5,-280"/>
<text text-anchor="middle" x="554.5" y="-258.3" font-family="Arial" font-size="14.00">Incorrect fin placement</text>
</g>
<!-- n1&#45;&gt;n3 -->
<g id="edge2" class="edge">
<title>n1&#45;&gt;n3</title>
<path fill="none" stroke="black" d="M810.12,-365.93C756.39,-344.3 663.81,-307.02 606.04,-283.76"/>
<polygon fill="black" stroke="black" points="607.31,-280.5 596.73,-280.01 604.7,-286.99 607.31,-280.5"/>
</g>
<!-- n4 -->
<g id="node4" class="node">
<title>n4</title>
<polygon fill="#fffdd0" stroke="black" points="957,-280 748,-280 748,-244 957,-244 957,-280"/>
<text text-anchor="middle" x="852.5" y="-258.3" font-family="Arial" font-size="14.00">Wavy blue line for water surface</text>
</g>
<!-- n1&#45;&gt;n4 -->
<g id="edge3" class="edge">
<title>n1&#45;&gt;n4</title>
<path fill="none" stroke="black" d="M852.5,-365.81C852.5,-346.11 852.5,-313.58 852.5,-290.39"/>
<polygon fill="black" stroke="black" points="856,-290.16 852.5,-280.16 849,-290.16 856,-290.16"/>
</g>
<!-- n5 -->
<g id="node5" class="node">
<title>n5</title>
<polygon fill="#fffdd0" stroke="black" points="1295.5,-280 1015.5,-280 1015.5,-244 1295.5,-244 1295.5,-280"/>
<text text-anchor="middle" x="1155.5" y="-258.3" font-family="Arial" font-size="14.00">Wiggly green lines for plants labeled &#39;plants&#39;</text>
</g>
<!-- n1&#45;&gt;n5 -->
<g id="edge4" class="edge">
<title>n1&#45;&gt;n5</title>
<path fill="none" stroke="black" d="M895.59,-365.93C950.22,-344.3 1044.4,-307.02 1103.1,-283.76"/>
<polygon fill="black" stroke="black" points="1104.58,-286.94 1112.6,-280.01 1102.01,-280.43 1104.58,-286.94"/>
</g>
<!-- n6 -->
<g id="node6" class="node">
<title>n6</title>
<polygon fill="#fffdd0" stroke="black" points="1663,-280 1354,-280 1354,-244 1663,-244 1663,-280"/>
<text text-anchor="middle" x="1508.5" y="-258.3" font-family="Arial" font-size="14.00">Poorly defined worm&#45;like creature labeled &#39;worm&#39;</text>
</g>
<!-- n1&#45;&gt;n6 -->
<g id="edge5" class="edge">
<title>n1&#45;&gt;n6</title>
<path fill="none" stroke="black" d="M944.75,-366.12C1066.1,-343.92 1278.8,-305.01 1405.4,-281.86"/>
<polygon fill="black" stroke="black" points="1406.29,-285.26 1415.5,-280.02 1405.03,-278.37 1406.29,-285.26"/>
</g>
<!-- n7 -->
<g id="node7" class="node">
<title>n7</title>
<path fill="palegreen" stroke="black" d="M225,-158C225,-158 12,-158 12,-158 6,-158 0,-152 0,-146 0,-146 0,-134 0,-134 0,-128 6,-122 12,-122 12,-122 225,-122 225,-122 231,-122 237,-128 237,-134 237,-134 237,-146 237,-146 237,-152 231,-158 225,-158"/>
<text text-anchor="middle" x="118.5" y="-136.3" font-family="Arial" font-size="14.00">Correct basic representation of a fish</text>
</g>
<!-- n2&#45;&gt;n7 -->
<g id="edge6" class="edge">
<title>n2&#45;&gt;n7</title>
<path fill="none" stroke="black" d="M220.45,-243.81C200.04,-223.22 165.72,-188.61 142.6,-165.3"/>
<polygon fill="black" stroke="black" points="145.05,-162.8 135.52,-158.16 140.08,-167.73 145.05,-162.8"/>
</g>
<!-- n8 -->
<g id="node8" class="node">
<title>n8</title>
<polygon fill="lightcoral" stroke="black" points="497.5,-158 295.07,-140 497.5,-122 699.93,-140 497.5,-158"/>
<text text-anchor="middle" x="497.5" y="-136.3" font-family="Arial" font-size="14.00">Misunderstanding of fish anatomy</text>
</g>
<!-- n3&#45;&gt;n8 -->
<g id="edge7" class="edge">
<title>n3&#45;&gt;n8</title>
<path fill="none" stroke="black" d="M546.33,-243.81C536.74,-223.62 520.75,-189.94 509.69,-166.66"/>
<polygon fill="black" stroke="black" points="512.74,-164.92 505.29,-157.39 506.42,-167.92 512.74,-164.92"/>
</g>
<!-- n9 -->
<g id="node9" class="node">
<title>n9</title>
<path fill="palegreen" stroke="black" d="M973,-158C973,-158 770,-158 770,-158 764,-158 758,-152 758,-146 758,-146 758,-134 758,-134 758,-128 764,-122 770,-122 770,-122 973,-122 973,-122 979,-122 985,-128 985,-134 985,-134 985,-146 985,-146 985,-152 979,-158 973,-158"/>
<text text-anchor="middle" x="871.5" y="-136.3" font-family="Arial" font-size="14.00">Water depicted correctly above fish</text>
</g>
<!-- n4&#45;&gt;n9 -->
<g id="edge8" class="edge">
<title>n4&#45;&gt;n9</title>
<path fill="none" stroke="black" d="M855.22,-243.81C858.35,-224.02 863.54,-191.29 867.21,-168.08"/>
<polygon fill="black" stroke="black" points="870.67,-168.58 868.78,-158.16 863.76,-167.49 870.67,-168.58"/>
</g>
<!-- n10 -->
<g id="node10" class="node">
<title>n10</title>
<path fill="palegreen" stroke="black" d="M1308,-158C1308,-158 1055,-158 1055,-158 1049,-158 1043,-152 1043,-146 1043,-146 1043,-134 1043,-134 1043,-128 1049,-122 1055,-122 1055,-122 1308,-122 1308,-122 1314,-122 1320,-128 1320,-134 1320,-134 1320,-146 1320,-146 1320,-152 1314,-158 1308,-158"/>
<text text-anchor="middle" x="1181.5" y="-136.3" font-family="Arial" font-size="14.00">Basic understanding of plant representation</text>
</g>
<!-- n5&#45;&gt;n10 -->
<g id="edge9" class="edge">
<title>n5&#45;&gt;n10</title>
<path fill="none" stroke="black" d="M1159.2,-243.81C1163.5,-224.02 1170.6,-191.29 1175.6,-168.08"/>
<polygon fill="black" stroke="black" points="1179.05,-168.68 1177.8,-158.16 1172.22,-167.16 1179.05,-168.68"/>
</g>
<!-- n11 -->
<g id="node11" class="node">
<title>n11</title>
<path fill="palegreen" stroke="black" d="M1609,-158C1609,-158 1408,-158 1408,-158 1402,-158 1396,-152 1396,-146 1396,-146 1396,-134 1396,-134 1396,-128 1402,-122 1408,-122 1408,-122 1609,-122 1609,-122 1615,-122 1621,-128 1621,-134 1621,-134 1621,-146 1621,-146 1621,-152 1615,-158 1609,-158"/>
<text text-anchor="middle" x="1508.5" y="-136.3" font-family="Arial" font-size="14.00">Attempt to include other animal life</text>
</g>
<!-- n6&#45;&gt;n11 -->
<g id="edge10" class="edge">
<title>n6&#45;&gt;n11</title>
<path fill="none" stroke="black" d="M1508.5,-243.81C1508.5,-224.11 1508.5,-191.58 1508.5,-168.39"/>
<polygon fill="black" stroke="black" points="1512,-168.16 1508.5,-158.16 1505,-168.16 1512,-168.16"/>
</g>
<!-- n12 -->
<g id="node12" class="node">
<title>n12</title>
<polygon fill="#f28e8e" stroke="black" points="702.5,-36 292.5,-36 292.5,0 702.5,0 702.5,-36"/>
<text text-anchor="middle" x="497.5" y="-14.3" font-family="Arial" font-size="14.00">Consider showing fish interaction with environment and resources</text>
</g>
<!-- n8&#45;&gt;n12 -->
<g id="edge11" class="edge">
<title>n8&#45;&gt;n12</title>
<path fill="none" stroke="black" d="M497.5,-121.81C497.5,-102.11 497.5,-69.58 497.5,-46.39"/>
<polygon fill="black" stroke="black" points="501,-46.16 497.5,-36.16 494,-46.16 501,-46.16"/>
</g>
</g>
</svg>
