<?xml version="1.0" encoding="UTF-8" standalone="no"?>
<!DOCTYPE svg PUBLIC "-//W3C//DTD SVG 1.1//EN"
 "http://www.w3.org/Graphics/SVG/1.1/DTD/svg11.dtd">
<!-- Generated by graphviz version 2.43.0 (0)
 -->
<!-- Pages: 1 -->
<svg width="1031pt" height="288pt"
 viewBox="0.00 0.00 1031.00 288.00" xmlns="http://www.w3.org/2000/svg" xmlns:xlink="http://www.w3.org/1999/xlink">
<g id="graph0" class="graph" transform="scale(1 1) rotate(0) translate(4 284)">
<polygon fill="white" stroke="transparent" points="-4,4 -4,-284 1027,-284 1027,4 -4,4"/>
<!-- n1 -->
<g id="node1" class="node">
<title>n1</title>
<polygon fill="lightblue" stroke="black" points="796.87,-262 654.19,-280 368.81,-280 226.13,-262 368.81,-244 654.19,-244 796.87,-262"/>
<text text-anchor="middle" x="511.5" y="-258.3" font-family="Arial" font-size="14.00">Draw animals in their habitats with labels (e.g., fish in water).</text>
</g>
<!-- n2 -->
<g id="node2" class="node">
<title>n2</title>
<polygon fill="#fffdd0" stroke="black" points="253,-158 0,-158 0,-122 253,-122 253,-158"/>
<text text-anchor="middle" x="126.5" y="-136.3" font-family="Arial" font-size="14.00">River with fish swimming, labeled &#39;river&#39;</text>
</g>
<!-- n1&#45;&gt;n2 -->
<g id="edge1" class="edge">
<title>n1&#45;&gt;n2</title>
<path fill="none" stroke="black" d="M456.75,-243.93C386.61,-222.07 265.25,-184.25 190.8,-161.04"/>
<polygon fill="black" stroke="black" points="191.65,-157.64 181.06,-158.01 189.57,-164.32 191.65,-157.64"/>
</g>
<!-- n3 -->
<g id="node3" class="node">
<title>n3</title>
<polygon fill="#fffdd0" stroke="black" points="487.5,-158 311.5,-158 311.5,-122 487.5,-122 487.5,-158"/>
<text text-anchor="middle" x="399.5" y="-136.3" font-family="Arial" font-size="14.00">Forest with trees and birds</text>
</g>
<!-- n1&#45;&gt;n3 -->
<g id="edge2" class="edge">
<title>n1&#45;&gt;n3</title>
<path fill="none" stroke="black" d="M495.45,-243.81C476.32,-223.31 444.22,-188.91 422.46,-165.6"/>
<polygon fill="black" stroke="black" points="424.9,-163.09 415.52,-158.16 419.78,-167.86 424.9,-163.09"/>
</g>
<!-- n4 -->
<g id="node4" class="node">
<title>n4</title>
<polygon fill="#fffdd0" stroke="black" points="701.5,-158 545.5,-158 545.5,-122 701.5,-122 701.5,-158"/>
<text text-anchor="middle" x="623.5" y="-136.3" font-family="Arial" font-size="14.00">Deer standing on grass</text>
</g>
<!-- n1&#45;&gt;n4 -->
<g id="edge3" class="edge">
<title>n1&#45;&gt;n4</title>
<path fill="none" stroke="black" d="M527.55,-243.81C546.68,-223.31 578.78,-188.91 600.54,-165.6"/>
<polygon fill="black" stroke="black" points="603.22,-167.86 607.48,-158.16 598.1,-163.09 603.22,-167.86"/>
</g>
<!-- n5 -->
<g id="node5" class="node">
<title>n5</title>
<polygon fill="#fffdd0" stroke="black" points="968.5,-158 786.5,-158 786.5,-122 968.5,-122 968.5,-158"/>
<text text-anchor="middle" x="877.5" y="-136.3" font-family="Arial" font-size="14.00">Sun shining, plants growing</text>
</g>
<!-- n1&#45;&gt;n5 -->
<g id="edge4" class="edge">
<title>n1&#45;&gt;n5</title>
<path fill="none" stroke="black" d="M563.55,-243.93C630.09,-222.12 745.13,-184.4 815.94,-161.18"/>
<polygon fill="black" stroke="black" points="817.21,-164.45 825.63,-158.01 815.04,-157.79 817.21,-164.45"/>
</g>
<!-- n6 -->
<g id="node6" class="node">
<title>n6</title>
<path fill="palegreen" stroke="black" d="M217.5,-36C217.5,-36 35.5,-36 35.5,-36 29.5,-36 23.5,-30 23.5,-24 23.5,-24 23.5,-12 23.5,-12 23.5,-6 29.5,0 35.5,0 35.5,0 217.5,0 217.5,0 223.5,0 229.5,-6 229.5,-12 229.5,-12 229.5,-24 229.5,-24 229.5,-30 223.5,-36 217.5,-36"/>
<text text-anchor="middle" x="126.5" y="-14.3" font-family="Arial" font-size="14.00">Fish in the river and need water</text>
</g>
<!-- n2&#45;&gt;n6 -->
<g id="edge5" class="edge">
<title>n2&#45;&gt;n6</title>
<path fill="none" stroke="black" d="M126.5,-121.81C126.5,-102.11 126.5,-69.58 126.5,-46.39"/>
<polygon fill="black" stroke="black" points="130,-46.16 126.5,-36.16 123,-46.16 130,-46.16"/>
</g>
<!-- n7 -->
<g id="node7" class="node">
<title>n7</title>
<path fill="palegreen" stroke="black" d="M447,-36C447,-36 300,-36 300,-36 294,-36 288,-30 288,-24 288,-24 288,-12 288,-12 288,-6 294,0 300,0 300,0 447,0 447,0 453,0 459,-6 459,-12 459,-12 459,-24 459,-24 459,-30 453,-36 447,-36"/>
<text text-anchor="middle" x="373.5" y="-14.3" font-family="Arial" font-size="14.00">Birds live in and use trees</text>
</g>
<!-- n3&#45;&gt;n7 -->
<g id="edge6" class="edge">
<title>n3&#45;&gt;n7</title>
<path fill="none" stroke="black" d="M395.77,-121.81C391.49,-102.02 384.4,-69.29 379.37,-46.08"/>
<polygon fill="black" stroke="black" points="382.76,-45.19 377.22,-36.16 375.92,-46.68 382.76,-45.19"/>
</g>
<!-- n8 -->
<g id="node8" class="node">
<title>n8</title>
<path fill="palegreen" stroke="black" d="M717.5,-36C717.5,-36 529.5,-36 529.5,-36 523.5,-36 517.5,-30 517.5,-24 517.5,-24 517.5,-12 517.5,-12 517.5,-6 523.5,0 529.5,0 529.5,0 717.5,0 717.5,0 723.5,0 729.5,-6 729.5,-12 729.5,-12 729.5,-24 729.5,-24 729.5,-30 723.5,-36 717.5,-36"/>
<text text-anchor="middle" x="623.5" y="-14.3" font-family="Arial" font-size="14.00">Deer use grass as a food source</text>
</g>
<!-- n4&#45;&gt;n8 -->
<g id="edge7" class="edge">
<title>n4&#45;&gt;n8</title>
<path fill="none" stroke="black" d="M623.5,-121.81C623.5,-102.11 623.5,-69.58 623.5,-46.39"/>
<polygon fill="black" stroke="black" points="627,-46.16 623.5,-36.16 620,-46.16 627,-46.16"/>
</g>
<!-- n9 -->
<g id="node9" class="node">
<title>n9</title>
<path fill="palegreen" stroke="black" d="M1011,-36C1011,-36 800,-36 800,-36 794,-36 788,-30 788,-24 788,-24 788,-12 788,-12 788,-6 794,0 800,0 800,0 1011,0 1011,0 1017,0 1023,-6 1023,-12 1023,-12 1023,-24 1023,-24 1023,-30 1017,-36 1011,-36"/>
<text text-anchor="middle" x="905.5" y="-14.3" font-family="Arial" font-size="14.00">Sunlight is needed for plants to grow</text>
</g>
<!-- n5&#45;&gt;n9 -->
<g id="edge8" class="edge">
<title>n5&#45;&gt;n9</title>
<path fill="none" stroke="black" d="M881.51,-121.81C886.13,-102.02 893.77,-69.29 899.18,-46.08"/>
<polygon fill="black" stroke="black" points="902.63,-46.7 901.5,-36.16 895.81,-45.1 902.63,-46.7"/>
</g>
</g>
</svg>
