<?xml version="1.0" encoding="UTF-8" standalone="no"?>
<!DOCTYPE svg PUBLIC "-//W3C//DTD SVG 1.1//EN"
 "http://www.w3.org/Graphics/SVG/1.1/DTD/svg11.dtd">
<!-- Generated by graphviz version 2.43.0 (0)
 -->
<!-- Pages: 1 -->
<svg width="855pt" height="288pt"
 viewBox="0.00 0.00 854.50 288.00" xmlns="http://www.w3.org/2000/svg" xmlns:xlink="http://www.w3.org/1999/xlink">
<g id="graph0" class="graph" transform="scale(1 1) rotate(0) translate(4 284)">
<polygon fill="white" stroke="transparent" points="-4,4 -4,-284 850.5,-284 850.5,4 -4,4"/>
<!-- n1 -->
<g id="node1" class="node">
<title>n1</title>
<polygon fill="lightblue" stroke="black" points="650.5,-262 538.25,-280 313.75,-280 201.5,-262 313.75,-244 538.25,-244 650.5,-262"/>
<text text-anchor="middle" x="426" y="-258.3" font-family="Arial" font-size="14.00">Illustrate plants with and without water and light</text>
</g>
<!-- n2 -->
<g id="node2" class="node">
<title>n2</title>
<polygon fill="#fffdd0" stroke="black" points="236,-158 0,-158 0,-122 236,-122 236,-158"/>
<text text-anchor="middle" x="118" y="-136.3" font-family="Arial" font-size="14.00">Healthy plant with sunlight and water</text>
</g>
<!-- n1&#45;&gt;n2 -->
<g id="edge1" class="edge">
<title>n1&#45;&gt;n2</title>
<path fill="none" stroke="black" d="M382.2,-243.93C326.66,-222.3 230.98,-185.02 171.27,-161.76"/>
<polygon fill="black" stroke="black" points="172.24,-158.38 161.65,-158.01 169.7,-164.9 172.24,-158.38"/>
</g>
<!-- n3 -->
<g id="node3" class="node">
<title>n3</title>
<polygon fill="#fffdd0" stroke="black" points="557.5,-158 294.5,-158 294.5,-122 557.5,-122 557.5,-158"/>
<text text-anchor="middle" x="426" y="-136.3" font-family="Arial" font-size="14.00">Plant without water, under same blue sky</text>
</g>
<!-- n1&#45;&gt;n3 -->
<g id="edge2" class="edge">
<title>n1&#45;&gt;n3</title>
<path fill="none" stroke="black" d="M426,-243.81C426,-224.11 426,-191.58 426,-168.39"/>
<polygon fill="black" stroke="black" points="429.5,-168.16 426,-158.16 422.5,-168.16 429.5,-168.16"/>
</g>
<!-- n4 -->
<g id="node4" class="node">
<title>n4</title>
<polygon fill="#fffdd0" stroke="black" points="846.5,-158 615.5,-158 615.5,-122 846.5,-122 846.5,-158"/>
<text text-anchor="middle" x="731" y="-136.3" font-family="Arial" font-size="14.00">Plant without light, under cloudy sky</text>
</g>
<!-- n1&#45;&gt;n4 -->
<g id="edge3" class="edge">
<title>n1&#45;&gt;n4</title>
<path fill="none" stroke="black" d="M469.38,-243.93C524.37,-222.3 619.12,-185.02 678.24,-161.76"/>
<polygon fill="black" stroke="black" points="679.75,-164.93 687.77,-158.01 677.18,-158.41 679.75,-164.93"/>
</g>
<!-- n5 -->
<g id="node5" class="node">
<title>n5</title>
<path fill="palegreen" stroke="black" d="M371.5,-36C371.5,-36 172.5,-36 172.5,-36 166.5,-36 160.5,-30 160.5,-24 160.5,-24 160.5,-12 160.5,-12 160.5,-6 166.5,0 172.5,0 172.5,0 371.5,0 371.5,0 377.5,0 383.5,-6 383.5,-12 383.5,-12 383.5,-24 383.5,-24 383.5,-30 377.5,-36 371.5,-36"/>
<text text-anchor="middle" x="272" y="-14.3" font-family="Arial" font-size="14.00">Plants need water to live and grow</text>
</g>
<!-- n2&#45;&gt;n5 -->
<g id="edge4" class="edge">
<title>n2&#45;&gt;n5</title>
<path fill="none" stroke="black" d="M140.06,-121.81C166.82,-100.96 212.05,-65.71 241.97,-42.4"/>
<polygon fill="black" stroke="black" points="244.24,-45.07 249.98,-36.16 239.94,-39.54 244.24,-45.07"/>
</g>
<!-- n3&#45;&gt;n5 -->
<g id="edge5" class="edge">
<title>n3&#45;&gt;n5</title>
<path fill="none" stroke="black" d="M403.94,-121.81C377.18,-100.96 331.95,-65.71 302.03,-42.4"/>
<polygon fill="black" stroke="black" points="304.06,-39.54 294.02,-36.16 299.76,-45.07 304.06,-39.54"/>
</g>
<!-- n6 -->
<g id="node6" class="node">
<title>n6</title>
<path fill="palegreen" stroke="black" d="M826.5,-36C826.5,-36 635.5,-36 635.5,-36 629.5,-36 623.5,-30 623.5,-24 623.5,-24 623.5,-12 623.5,-12 623.5,-6 629.5,0 635.5,0 635.5,0 826.5,0 826.5,0 832.5,0 838.5,-6 838.5,-12 838.5,-12 838.5,-24 838.5,-24 838.5,-30 832.5,-36 826.5,-36"/>
<text text-anchor="middle" x="731" y="-14.3" font-family="Arial" font-size="14.00">Plants need light to live and grow</text>
</g>
<!-- n4&#45;&gt;n6 -->
<g id="edge6" class="edge">
<title>n4&#45;&gt;n6</title>
<path fill="none" stroke="black" d="M731,-121.81C731,-102.11 731,-69.58 731,-46.39"/>
<polygon fill="black" stroke="black" points="734.5,-46.16 731,-36.16 727.5,-46.16 734.5,-46.16"/>
</g>
</g>
</svg>
