<?xml version="1.0" encoding="UTF-8" standalone="no"?>
<!DOCTYPE svg PUBLIC "-//W3C//DTD SVG 1.1//EN"
 "http://www.w3.org/Graphics/SVG/1.1/DTD/svg11.dtd">
<!-- Generated by graphviz version 2.43.0 (0)
 -->
<!-- Pages: 1 -->
<svg width="2763pt" height="410pt"
 viewBox="0.00 0.00 2762.55 410.00" xmlns="http://www.w3.org/2000/svg" xmlns:xlink="http://www.w3.org/1999/xlink">
<g id="graph0" class="graph" transform="scale(1 1) rotate(0) translate(4 406)">
<polygon fill="white" stroke="transparent" points="-4,4 -4,-406 2758.55,-406 2758.55,4 -4,4"/>
<!-- n1 -->
<g id="node1" class="node">
<title>n1</title>
<polygon fill="lightblue" stroke="black" points="1615.82,-384 1493.41,-402 1248.59,-402 1126.18,-384 1248.59,-366 1493.41,-366 1615.82,-384"/>
<text text-anchor="middle" x="1371" y="-380.3" font-family="Arial" font-size="14.00">Draw a habitat and the different living things in each</text>
</g>
<!-- n2 -->
<g id="node2" class="node">
<title>n2</title>
<polygon fill="#fffdd0" stroke="black" points="921.5,-280 640.5,-280 640.5,-244 921.5,-244 921.5,-280"/>
<text text-anchor="middle" x="781" y="-258.3" font-family="Arial" font-size="14.00">Simple playground with rectangle for ground</text>
</g>
<!-- n1&#45;&gt;n2 -->
<g id="edge1" class="edge">
<title>n1&#45;&gt;n2</title>
<path fill="none" stroke="black" d="M1287.4,-366C1178.5,-343.84 988.53,-305.21 874.8,-282.08"/>
<polygon fill="black" stroke="black" points="875.21,-278.59 864.71,-280.03 873.81,-285.45 875.21,-278.59"/>
</g>
<!-- n3 -->
<g id="node3" class="node">
<title>n3</title>
<polygon fill="#fffdd0" stroke="black" points="1214.5,-280 1077.5,-280 1077.5,-244 1214.5,-244 1214.5,-280"/>
<text text-anchor="middle" x="1146" y="-258.3" font-family="Arial" font-size="14.00">Stick&#45;like swing sets</text>
</g>
<!-- n1&#45;&gt;n3 -->
<g id="edge2" class="edge">
<title>n1&#45;&gt;n3</title>
<path fill="none" stroke="black" d="M1338.8,-365.81C1298.8,-344.51 1230.7,-308.2 1187.1,-284.92"/>
<polygon fill="black" stroke="black" points="1188.67,-281.79 1178.2,-280.16 1185.37,-287.96 1188.67,-281.79"/>
</g>
<!-- n4 -->
<g id="node4" class="node">
<title>n4</title>
<polygon fill="#fffdd0" stroke="black" points="1469.5,-280 1272.5,-280 1272.5,-244 1469.5,-244 1469.5,-280"/>
<text text-anchor="middle" x="1371" y="-258.3" font-family="Arial" font-size="14.00">Basic tree with stick and circle</text>
</g>
<!-- n1&#45;&gt;n4 -->
<g id="edge3" class="edge">
<title>n1&#45;&gt;n4</title>
<path fill="none" stroke="black" d="M1371,-365.81C1371,-346.11 1371,-313.58 1371,-290.39"/>
<polygon fill="black" stroke="black" points="1374.5,-290.16 1371,-280.16 1367.5,-290.16 1374.5,-290.16"/>
</g>
<!-- n5 -->
<g id="node5" class="node">
<title>n5</title>
<polygon fill="#fffdd0" stroke="black" points="1872,-280 1602,-280 1602,-244 1872,-244 1872,-280"/>
<text text-anchor="middle" x="1737" y="-258.3" font-family="Arial" font-size="14.00">Animal figure near tree representing a dog</text>
</g>
<!-- n1&#45;&gt;n5 -->
<g id="edge4" class="edge">
<title>n1&#45;&gt;n5</title>
<path fill="none" stroke="black" d="M1423.1,-365.93C1489.6,-344.12 1604.6,-306.4 1675.4,-283.18"/>
<polygon fill="black" stroke="black" points="1676.68,-286.44 1685.1,-280.01 1674.51,-279.79 1676.68,-286.44"/>
</g>
<!-- n6 -->
<g id="node6" class="node">
<title>n6</title>
<polygon fill="#fffdd0" stroke="black" points="2363,-280 2121,-280 2121,-244 2363,-244 2363,-280"/>
<text text-anchor="middle" x="2242" y="-258.3" font-family="Arial" font-size="14.00">Random circles as animals or bushes</text>
</g>
<!-- n1&#45;&gt;n6 -->
<g id="edge5" class="edge">
<title>n1&#45;&gt;n6</title>
<path fill="none" stroke="black" d="M1493.9,-366.06C1657,-343.6 1943.5,-304.13 2110.6,-281.1"/>
<polygon fill="black" stroke="black" points="2111.27,-284.54 2120.7,-279.71 2110.32,-277.61 2111.27,-284.54"/>
</g>
<!-- n7 -->
<g id="node7" class="node">
<title>n7</title>
<path fill="palegreen" stroke="black" d="M392,-158C392,-158 12,-158 12,-158 6,-158 0,-152 0,-146 0,-146 0,-134 0,-134 0,-128 6,-122 12,-122 12,-122 392,-122 392,-122 398,-122 404,-128 404,-134 404,-134 404,-146 404,-146 404,-152 398,-158 392,-158"/>
<text text-anchor="middle" x="202" y="-136.3" font-family="Arial" font-size="14.00">Student understands habitats can be land areas like playgrounds</text>
</g>
<!-- n2&#45;&gt;n7 -->
<g id="edge6" class="edge">
<title>n2&#45;&gt;n7</title>
<path fill="none" stroke="black" d="M698.97,-244C592.07,-221.84 405.66,-183.21 294.05,-160.08"/>
<polygon fill="black" stroke="black" points="294.65,-156.63 284.15,-158.03 293.23,-163.49 294.65,-156.63"/>
</g>
<!-- n8 -->
<g id="node8" class="node">
<title>n8</title>
<polygon fill="lightcoral" stroke="black" points="781,-158 462,-140 781,-122 1100,-140 781,-158"/>
<text text-anchor="middle" x="781" y="-136.3" font-family="Arial" font-size="14.00">Limited detail in depicting specific playground elements</text>
</g>
<!-- n2&#45;&gt;n8 -->
<g id="edge7" class="edge">
<title>n2&#45;&gt;n8</title>
<path fill="none" stroke="black" d="M781,-243.81C781,-224.11 781,-191.58 781,-168.39"/>
<polygon fill="black" stroke="black" points="784.5,-168.16 781,-158.16 777.5,-168.16 784.5,-168.16"/>
</g>
<!-- n10 -->
<g id="node9" class="node">
<title>n10</title>
<path fill="palegreen" stroke="black" d="M1498.5,-158C1498.5,-158 1169.5,-158 1169.5,-158 1163.5,-158 1157.5,-152 1157.5,-146 1157.5,-146 1157.5,-134 1157.5,-134 1157.5,-128 1163.5,-122 1169.5,-122 1169.5,-122 1498.5,-122 1498.5,-122 1504.5,-122 1510.5,-128 1510.5,-134 1510.5,-134 1510.5,-146 1510.5,-146 1510.5,-152 1504.5,-158 1498.5,-158"/>
<text text-anchor="middle" x="1334" y="-136.3" font-family="Arial" font-size="14.00">Understanding of basic plant life with tree representation</text>
</g>
<!-- n4&#45;&gt;n10 -->
<g id="edge8" class="edge">
<title>n4&#45;&gt;n10</title>
<path fill="none" stroke="black" d="M1365.7,-243.81C1359.6,-223.94 1349.4,-190.99 1342.3,-167.76"/>
<polygon fill="black" stroke="black" points="1345.62,-166.66 1339.3,-158.16 1338.94,-168.75 1345.62,-166.66"/>
</g>
<!-- n11 -->
<g id="node10" class="node">
<title>n11</title>
<polygon fill="lightcoral" stroke="black" points="1775,-158 1568,-140 1775,-122 1982,-140 1775,-158"/>
<text text-anchor="middle" x="1775" y="-136.3" font-family="Arial" font-size="14.00">Incorrect representation of animals</text>
</g>
<!-- n5&#45;&gt;n11 -->
<g id="edge9" class="edge">
<title>n5&#45;&gt;n11</title>
<path fill="none" stroke="black" d="M1742.4,-243.81C1748.8,-223.82 1759.3,-190.62 1766.7,-167.37"/>
<polygon fill="black" stroke="black" points="1770.06,-168.36 1769.7,-157.77 1763.38,-166.27 1770.06,-168.36"/>
</g>
<!-- n13 -->
<g id="node11" class="node">
<title>n13</title>
<polygon fill="lightcoral" stroke="black" points="2397,-158 2039.4,-140 2397,-122 2754.6,-140 2397,-158"/>
<text text-anchor="middle" x="2397" y="-136.3" font-family="Arial" font-size="14.00">Misunderstanding in differentiating and organizing living things</text>
</g>
<!-- n6&#45;&gt;n13 -->
<g id="edge10" class="edge">
<title>n6&#45;&gt;n13</title>
<path fill="none" stroke="black" d="M2264.2,-243.81C2291.6,-222.6 2338.2,-186.51 2368.3,-163.22"/>
<polygon fill="black" stroke="black" points="2370.55,-165.91 2376.3,-157.01 2366.25,-160.38 2370.55,-165.91"/>
</g>
<!-- n9 -->
<g id="node12" class="node">
<title>n9</title>
<polygon fill="#f28e8e" stroke="black" points="962,-36 600,-36 600,0 962,0 962,-36"/>
<text text-anchor="middle" x="781" y="-14.3" font-family="Arial" font-size="14.00">Feedback: Include more detailed features of a playground</text>
</g>
<!-- n8&#45;&gt;n9 -->
<g id="edge11" class="edge">
<title>n8&#45;&gt;n9</title>
<path fill="none" stroke="black" d="M781,-121.81C781,-102.11 781,-69.58 781,-46.39"/>
<polygon fill="black" stroke="black" points="784.5,-46.16 781,-36.16 777.5,-46.16 784.5,-46.16"/>
</g>
<!-- n12 -->
<g id="node13" class="node">
<title>n12</title>
<polygon fill="#f28e8e" stroke="black" points="1975.5,-36 1574.5,-36 1574.5,0 1975.5,0 1975.5,-36"/>
<text text-anchor="middle" x="1775" y="-14.3" font-family="Arial" font-size="14.00">Feedback: Try drawing different types of animals and label them</text>
</g>
<!-- n11&#45;&gt;n12 -->
<g id="edge12" class="edge">
<title>n11&#45;&gt;n12</title>
<path fill="none" stroke="black" d="M1775,-121.81C1775,-102.11 1775,-69.58 1775,-46.39"/>
<polygon fill="black" stroke="black" points="1778.5,-46.16 1775,-36.16 1771.5,-46.16 1778.5,-46.16"/>
</g>
<!-- n14 -->
<g id="node14" class="node">
<title>n14</title>
<polygon fill="#f28e8e" stroke="black" points="2591,-36 2203,-36 2203,0 2591,0 2591,-36"/>
<text text-anchor="middle" x="2397" y="-14.3" font-family="Arial" font-size="14.00">Feedback: Label types of plants and animals to show diversity</text>
</g>
<!-- n13&#45;&gt;n14 -->
<g id="edge13" class="edge">
<title>n13&#45;&gt;n14</title>
<path fill="none" stroke="black" d="M2397,-121.81C2397,-102.11 2397,-69.58 2397,-46.39"/>
<polygon fill="black" stroke="black" points="2400.5,-46.16 2397,-36.16 2393.5,-46.16 2400.5,-46.16"/>
</g>
</g>
</svg>
