<?xml version="1.0" encoding="UTF-8" standalone="no"?>
<!DOCTYPE svg PUBLIC "-//W3C//DTD SVG 1.1//EN"
 "http://www.w3.org/Graphics/SVG/1.1/DTD/svg11.dtd">
<!-- Generated by graphviz version 2.43.0 (0)
 -->
<!-- Pages: 1 -->
<svg width="1879pt" height="410pt"
 viewBox="0.00 0.00 1879.00 410.00" xmlns="http://www.w3.org/2000/svg" xmlns:xlink="http://www.w3.org/1999/xlink">
<g id="graph0" class="graph" transform="scale(1 1) rotate(0) translate(4 406)">
<polygon fill="white" stroke="transparent" points="-4,4 -4,-406 1875,-406 1875,4 -4,4"/>
<!-- n1 -->
<g id="node1" class="node">
<title>n1</title>
<polygon fill="lightblue" stroke="black" points="1658.87,-384 1517.68,-402 1235.32,-402 1094.13,-384 1235.32,-366 1517.68,-366 1658.87,-384"/>
<text text-anchor="middle" x="1376.5" y="-380.3" font-family="Arial" font-size="14.00">Draw animals in their habitats with labels (e.g., fish in water)</text>
</g>
<!-- n2 -->
<g id="node2" class="node">
<title>n2</title>
<polygon fill="#fffdd0" stroke="black" points="1146,-280 877,-280 877,-244 1146,-244 1146,-280"/>
<text text-anchor="middle" x="1011.5" y="-258.3" font-family="Arial" font-size="14.00">Forest: tree, deer, bird, grass, insects, sun</text>
</g>
<!-- n1&#45;&gt;n2 -->
<g id="edge1" class="edge">
<title>n1&#45;&gt;n2</title>
<path fill="none" stroke="black" d="M1324.6,-365.93C1258.2,-344.12 1143.5,-306.4 1072.9,-283.18"/>
<polygon fill="black" stroke="black" points="1073.79,-279.79 1063.2,-280.01 1071.62,-286.44 1073.79,-279.79"/>
</g>
<!-- n3 -->
<g id="node3" class="node">
<title>n3</title>
<polygon fill="#fffdd0" stroke="black" points="1502.5,-280 1250.5,-280 1250.5,-244 1502.5,-244 1502.5,-280"/>
<text text-anchor="middle" x="1376.5" y="-258.3" font-family="Arial" font-size="14.00">Ocean: fish, dolphin, seaweed, sunlight</text>
</g>
<!-- n1&#45;&gt;n3 -->
<g id="edge2" class="edge">
<title>n1&#45;&gt;n3</title>
<path fill="none" stroke="black" d="M1376.5,-365.81C1376.5,-346.11 1376.5,-313.58 1376.5,-290.39"/>
<polygon fill="black" stroke="black" points="1380,-290.16 1376.5,-280.16 1373,-290.16 1380,-290.16"/>
</g>
<!-- n4 -->
<g id="node4" class="node">
<title>n4</title>
<polygon fill="#fffdd0" stroke="black" points="1768,-280 1561,-280 1561,-244 1768,-244 1768,-280"/>
<text text-anchor="middle" x="1664.5" y="-258.3" font-family="Arial" font-size="14.00">Grassland: lion, antelope, grass</text>
</g>
<!-- n1&#45;&gt;n4 -->
<g id="edge3" class="edge">
<title>n1&#45;&gt;n4</title>
<path fill="none" stroke="black" d="M1417.5,-365.93C1469.3,-344.34 1558.5,-307.17 1614.3,-283.9"/>
<polygon fill="black" stroke="black" points="1615.8,-287.07 1623.7,-280.01 1613.12,-280.6 1615.8,-287.07"/>
</g>
<!-- n5 -->
<g id="node5" class="node">
<title>n5</title>
<path fill="palegreen" stroke="black" d="M461,-158C461,-158 12,-158 12,-158 6,-158 0,-152 0,-146 0,-146 0,-134 0,-134 0,-128 6,-122 12,-122 12,-122 461,-122 461,-122 467,-122 473,-128 473,-134 473,-134 473,-146 473,-146 473,-152 467,-158 461,-158"/>
<text text-anchor="middle" x="236.5" y="-136.3" font-family="Arial" font-size="14.00">Student demonstrates understanding of plant needs (e.g., sunlight for trees).</text>
</g>
<!-- n2&#45;&gt;n5 -->
<g id="edge4" class="edge">
<title>n2&#45;&gt;n5</title>
<path fill="none" stroke="black" d="M901.7,-244C757.6,-221.69 505.58,-182.66 356.57,-159.59"/>
<polygon fill="black" stroke="black" points="356.88,-156.1 346.46,-158.03 355.81,-163.01 356.88,-156.1"/>
</g>
<!-- n6 -->
<g id="node6" class="node">
<title>n6</title>
<path fill="palegreen" stroke="black" d="M1859,-158C1859,-158 1470,-158 1470,-158 1464,-158 1458,-152 1458,-146 1458,-146 1458,-134 1458,-134 1458,-128 1464,-122 1470,-122 1470,-122 1859,-122 1859,-122 1865,-122 1871,-128 1871,-134 1871,-134 1871,-146 1871,-146 1871,-152 1865,-158 1859,-158"/>
<text text-anchor="middle" x="1664.5" y="-136.3" font-family="Arial" font-size="14.00">Student shows understanding that animals live in specific habitats.</text>
</g>
<!-- n2&#45;&gt;n6 -->
<g id="edge5" class="edge">
<title>n2&#45;&gt;n6</title>
<path fill="none" stroke="black" d="M1104,-244C1224.9,-221.78 1436.1,-182.98 1561.8,-159.87"/>
<polygon fill="black" stroke="black" points="1562.6,-163.28 1571.8,-158.03 1561.33,-156.4 1562.6,-163.28"/>
</g>
<!-- n7 -->
<g id="node7" class="node">
<title>n7</title>
<polygon fill="lightcoral" stroke="black" points="965.5,-158 530.5,-140 965.5,-122 1400.5,-140 965.5,-158"/>
<text text-anchor="middle" x="965.5" y="-136.3" font-family="Arial" font-size="14.00">Incomplete illustration of interactions (e.g., forgetting &#39;sunlight&#39; label on tree).</text>
</g>
<!-- n2&#45;&gt;n7 -->
<g id="edge6" class="edge">
<title>n2&#45;&gt;n7</title>
<path fill="none" stroke="black" d="M1004.9,-243.81C997.25,-223.82 984.52,-190.62 975.61,-167.37"/>
<polygon fill="black" stroke="black" points="978.78,-165.85 971.93,-157.77 972.24,-168.36 978.78,-165.85"/>
</g>
<!-- n3&#45;&gt;n6 -->
<g id="edge7" class="edge">
<title>n3&#45;&gt;n6</title>
<path fill="none" stroke="black" d="M1417.5,-243.93C1469.3,-222.34 1558.5,-185.17 1614.3,-161.9"/>
<polygon fill="black" stroke="black" points="1615.8,-165.07 1623.7,-158.01 1613.12,-158.6 1615.8,-165.07"/>
</g>
<!-- n4&#45;&gt;n6 -->
<g id="edge8" class="edge">
<title>n4&#45;&gt;n6</title>
<path fill="none" stroke="black" d="M1664.5,-243.81C1664.5,-224.11 1664.5,-191.58 1664.5,-168.39"/>
<polygon fill="black" stroke="black" points="1668,-168.16 1664.5,-158.16 1661,-168.16 1668,-168.16"/>
</g>
<!-- n8 -->
<g id="node8" class="node">
<title>n8</title>
<polygon fill="#f28e8e" stroke="black" points="1185,-36 746,-36 746,0 1185,0 1185,-36"/>
<text text-anchor="middle" x="965.5" y="-14.3" font-family="Arial" font-size="14.00">Include more labels for environmental factors (e.g., sunlight on plants).</text>
</g>
<!-- n7&#45;&gt;n8 -->
<g id="edge9" class="edge">
<title>n7&#45;&gt;n8</title>
<path fill="none" stroke="black" d="M965.5,-121.81C965.5,-102.11 965.5,-69.58 965.5,-46.39"/>
<polygon fill="black" stroke="black" points="969,-46.16 965.5,-36.16 962,-46.16 969,-46.16"/>
</g>
</g>
</svg>
