<?xml version="1.0" encoding="UTF-8" standalone="no"?>
<!DOCTYPE svg PUBLIC "-//W3C//DTD SVG 1.1//EN"
 "http://www.w3.org/Graphics/SVG/1.1/DTD/svg11.dtd">
<!-- Generated by graphviz version 2.43.0 (0)
 -->
<!-- Pages: 1 -->
<svg width="1526pt" height="410pt"
 viewBox="0.00 0.00 1525.50 410.00" xmlns="http://www.w3.org/2000/svg" xmlns:xlink="http://www.w3.org/1999/xlink">
<g id="graph0" class="graph" transform="scale(1 1) rotate(0) translate(4 406)">
<polygon fill="white" stroke="transparent" points="-4,4 -4,-406 1521.5,-406 1521.5,4 -4,4"/>
<!-- n1 -->
<g id="node1" class="node">
<title>n1</title>
<polygon fill="lightblue" stroke="black" points="948,-384 856.75,-402 674.25,-402 583,-384 674.25,-366 856.75,-366 948,-384"/>
<text text-anchor="middle" x="765.5" y="-380.3" font-family="Arial" font-size="14.00">Draw reversible changes (ice melting)</text>
</g>
<!-- n2 -->
<g id="node2" class="node">
<title>n2</title>
<polygon fill="#fffdd0" stroke="black" points="641.5,-280 513.5,-280 513.5,-244 641.5,-244 641.5,-280"/>
<text text-anchor="middle" x="577.5" y="-258.3" font-family="Arial" font-size="14.00">Solid Ice with label</text>
</g>
<!-- n1&#45;&gt;n2 -->
<g id="edge1" class="edge">
<title>n1&#45;&gt;n2</title>
<path fill="none" stroke="black" d="M738.56,-365.81C705.62,-344.78 649.74,-309.11 613.23,-285.8"/>
<polygon fill="black" stroke="black" points="614.7,-282.59 604.39,-280.16 610.94,-288.49 614.7,-282.59"/>
</g>
<!-- n3 -->
<g id="node3" class="node">
<title>n3</title>
<polygon fill="#fffdd0" stroke="black" points="455.5,-280 303.5,-280 303.5,-244 455.5,-244 455.5,-280"/>
<text text-anchor="middle" x="379.5" y="-258.3" font-family="Arial" font-size="14.00">Liquid Water with label</text>
</g>
<!-- n1&#45;&gt;n3 -->
<g id="edge2" class="edge">
<title>n1&#45;&gt;n3</title>
<path fill="none" stroke="black" d="M710.61,-365.93C640.29,-344.07 518.61,-306.25 443.97,-283.04"/>
<polygon fill="black" stroke="black" points="444.8,-279.63 434.21,-280.01 442.72,-286.32 444.8,-279.63"/>
</g>
<!-- n4 -->
<g id="node4" class="node">
<title>n4</title>
<polygon fill="#fffdd0" stroke="black" points="831.5,-280 699.5,-280 699.5,-244 831.5,-244 831.5,-280"/>
<text text-anchor="middle" x="765.5" y="-258.3" font-family="Arial" font-size="14.00">Ice Again with label</text>
</g>
<!-- n1&#45;&gt;n4 -->
<g id="edge3" class="edge">
<title>n1&#45;&gt;n4</title>
<path fill="none" stroke="black" d="M765.5,-365.81C765.5,-346.11 765.5,-313.58 765.5,-290.39"/>
<polygon fill="black" stroke="black" points="769,-290.16 765.5,-280.16 762,-290.16 769,-290.16"/>
</g>
<!-- n5 -->
<g id="node5" class="node">
<title>n5</title>
<polygon fill="#fffdd0" stroke="black" points="1083.5,-280 889.5,-280 889.5,-244 1083.5,-244 1083.5,-280"/>
<text text-anchor="middle" x="986.5" y="-258.3" font-family="Arial" font-size="14.00">Red arrows showing direction</text>
</g>
<!-- n1&#45;&gt;n5 -->
<g id="edge4" class="edge">
<title>n1&#45;&gt;n5</title>
<path fill="none" stroke="black" d="M797.16,-365.81C836.3,-344.55 902.98,-308.35 945.86,-285.07"/>
<polygon fill="black" stroke="black" points="947.78,-288.01 954.89,-280.16 944.43,-281.86 947.78,-288.01"/>
</g>
<!-- n6 -->
<g id="node6" class="node">
<title>n6</title>
<polygon fill="#fffdd0" stroke="black" points="1367,-280 1142,-280 1142,-244 1367,-244 1367,-280"/>
<text text-anchor="middle" x="1254.5" y="-258.3" font-family="Arial" font-size="14.00">General heating and cooling labels</text>
</g>
<!-- n1&#45;&gt;n6 -->
<g id="edge5" class="edge">
<title>n1&#45;&gt;n6</title>
<path fill="none" stroke="black" d="M834.78,-366C924.61,-343.95 1080.9,-305.6 1175.3,-282.43"/>
<polygon fill="black" stroke="black" points="1176.22,-285.81 1185.1,-280.03 1174.55,-279.01 1176.22,-285.81"/>
</g>
<!-- n7 -->
<g id="node7" class="node">
<title>n7</title>
<path fill="palegreen" stroke="black" d="M227,-158C227,-158 12,-158 12,-158 6,-158 0,-152 0,-146 0,-146 0,-134 0,-134 0,-128 6,-122 12,-122 12,-122 227,-122 227,-122 233,-122 239,-128 239,-134 239,-134 239,-146 239,-146 239,-152 233,-158 227,-158"/>
<text text-anchor="middle" x="119.5" y="-136.3" font-family="Arial" font-size="14.00">Understands that ice melts into water</text>
</g>
<!-- n2&#45;&gt;n7 -->
<g id="edge6" class="edge">
<title>n2&#45;&gt;n7</title>
<path fill="none" stroke="black" d="M513.33,-244.19C429.57,-222.24 283.21,-183.89 194.44,-160.64"/>
<polygon fill="black" stroke="black" points="195.27,-157.24 184.71,-158.09 193.5,-164.01 195.27,-157.24"/>
</g>
<!-- n10 -->
<g id="node8" class="node">
<title>n10</title>
<polygon fill="lightcoral" stroke="black" points="577.5,-158 297,-140 577.5,-122 858,-140 577.5,-158"/>
<text text-anchor="middle" x="577.5" y="-136.3" font-family="Arial" font-size="14.00">Did not illustrate irreversible change like cooking</text>
</g>
<!-- n2&#45;&gt;n10 -->
<g id="edge7" class="edge">
<title>n2&#45;&gt;n10</title>
<path fill="none" stroke="black" d="M577.5,-243.81C577.5,-224.11 577.5,-191.58 577.5,-168.39"/>
<polygon fill="black" stroke="black" points="581,-168.16 577.5,-158.16 574,-168.16 581,-168.16"/>
</g>
<!-- n3&#45;&gt;n7 -->
<g id="edge8" class="edge">
<title>n3&#45;&gt;n7</title>
<path fill="none" stroke="black" d="M342.52,-243.93C296.03,-222.48 216.2,-185.63 165.72,-162.33"/>
<polygon fill="black" stroke="black" points="166.9,-159.02 156.35,-158.01 163.97,-165.38 166.9,-159.02"/>
</g>
<!-- n3&#45;&gt;n10 -->
<g id="edge9" class="edge">
<title>n3&#45;&gt;n10</title>
<path fill="none" stroke="black" d="M407.87,-243.81C443.61,-222.15 504.96,-184.96 543.27,-161.75"/>
<polygon fill="black" stroke="black" points="545.27,-164.63 552.01,-156.45 541.64,-158.64 545.27,-164.63"/>
</g>
<!-- n4&#45;&gt;n10 -->
<g id="edge10" class="edge">
<title>n4&#45;&gt;n10</title>
<path fill="none" stroke="black" d="M738.56,-243.81C704.78,-222.24 646.86,-185.27 610.46,-162.04"/>
<polygon fill="black" stroke="black" points="612.01,-158.88 601.7,-156.45 608.25,-164.78 612.01,-158.88"/>
</g>
<!-- n8 -->
<g id="node9" class="node">
<title>n8</title>
<path fill="palegreen" stroke="black" d="M1205.5,-158C1205.5,-158 927.5,-158 927.5,-158 921.5,-158 915.5,-152 915.5,-146 915.5,-146 915.5,-134 915.5,-134 915.5,-128 921.5,-122 927.5,-122 927.5,-122 1205.5,-122 1205.5,-122 1211.5,-122 1217.5,-128 1217.5,-134 1217.5,-134 1217.5,-146 1217.5,-146 1217.5,-152 1211.5,-158 1205.5,-158"/>
<text text-anchor="middle" x="1066.5" y="-136.3" font-family="Arial" font-size="14.00">Understands that water can freeze back into ice</text>
</g>
<!-- n4&#45;&gt;n8 -->
<g id="edge11" class="edge">
<title>n4&#45;&gt;n8</title>
<path fill="none" stroke="black" d="M808.31,-243.93C862.58,-222.3 956.09,-185.02 1014.4,-161.76"/>
<polygon fill="black" stroke="black" points="1015.81,-164.97 1023.8,-158.01 1013.21,-158.46 1015.81,-164.97"/>
</g>
<!-- n9 -->
<g id="node10" class="node">
<title>n9</title>
<path fill="palegreen" stroke="black" d="M1505.5,-158C1505.5,-158 1287.5,-158 1287.5,-158 1281.5,-158 1275.5,-152 1275.5,-146 1275.5,-146 1275.5,-134 1275.5,-134 1275.5,-128 1281.5,-122 1287.5,-122 1287.5,-122 1505.5,-122 1505.5,-122 1511.5,-122 1517.5,-128 1517.5,-134 1517.5,-134 1517.5,-146 1517.5,-146 1517.5,-152 1511.5,-158 1505.5,-158"/>
<text text-anchor="middle" x="1396.5" y="-136.3" font-family="Arial" font-size="14.00">Shows reversible process with arrows</text>
</g>
<!-- n5&#45;&gt;n9 -->
<g id="edge12" class="edge">
<title>n5&#45;&gt;n9</title>
<path fill="none" stroke="black" d="M1044.8,-243.93C1119.6,-222.03 1249.3,-184.09 1328.5,-160.9"/>
<polygon fill="black" stroke="black" points="1329.78,-164.17 1338.4,-158.01 1327.82,-157.45 1329.78,-164.17"/>
</g>
<!-- n11 -->
<g id="node11" class="node">
<title>n11</title>
<polygon fill="#f28e8e" stroke="black" points="805.5,-36 349.5,-36 349.5,0 805.5,0 805.5,-36"/>
<text text-anchor="middle" x="577.5" y="-14.3" font-family="Arial" font-size="14.00">Consider drawing an example of an irreversible change like a cooked egg</text>
</g>
<!-- n10&#45;&gt;n11 -->
<g id="edge13" class="edge">
<title>n10&#45;&gt;n11</title>
<path fill="none" stroke="black" d="M577.5,-121.81C577.5,-102.11 577.5,-69.58 577.5,-46.39"/>
<polygon fill="black" stroke="black" points="581,-46.16 577.5,-36.16 574,-46.16 581,-46.16"/>
</g>
</g>
</svg>
