<?xml version="1.0" encoding="UTF-8" standalone="no"?>
<!DOCTYPE svg PUBLIC "-//W3C//DTD SVG 1.1//EN"
 "http://www.w3.org/Graphics/SVG/1.1/DTD/svg11.dtd">
<!-- Generated by graphviz version 2.43.0 (0)
 -->
<!-- Pages: 1 -->
<svg width="2087pt" height="410pt"
 viewBox="0.00 0.00 2087.00 410.00" xmlns="http://www.w3.org/2000/svg" xmlns:xlink="http://www.w3.org/1999/xlink">
<g id="graph0" class="graph" transform="scale(1 1) rotate(0) translate(4 406)">
<polygon fill="white" stroke="transparent" points="-4,4 -4,-406 2083,-406 2083,4 -4,4"/>
<!-- n1 -->
<g id="node1" class="node">
<title>n1</title>
<polygon fill="lightblue" stroke="black" points="1374.32,-384 1251.91,-402 1007.09,-402 884.68,-384 1007.09,-366 1251.91,-366 1374.32,-384"/>
<text text-anchor="middle" x="1129.5" y="-380.3" font-family="Arial" font-size="14.00">Draw a habitat and the different living things in each</text>
</g>
<!-- n2 -->
<g id="node2" class="node">
<title>n2</title>
<polygon fill="#fffdd0" stroke="black" points="1092,-280 955,-280 955,-244 1092,-244 1092,-280"/>
<text text-anchor="middle" x="1023.5" y="-258.3" font-family="Arial" font-size="14.00">Vibrant forest scene</text>
</g>
<!-- n1&#45;&gt;n2 -->
<g id="edge1" class="edge">
<title>n1&#45;&gt;n2</title>
<path fill="none" stroke="black" d="M1114.3,-365.81C1096.3,-345.4 1066.1,-311.21 1045.5,-287.91"/>
<polygon fill="black" stroke="black" points="1047.93,-285.37 1038.7,-280.16 1042.66,-289.99 1047.93,-285.37"/>
</g>
<!-- n3 -->
<g id="node3" class="node">
<title>n3</title>
<polygon fill="#fffdd0" stroke="black" points="1424.5,-280 1254.5,-280 1254.5,-244 1424.5,-244 1424.5,-280"/>
<text text-anchor="middle" x="1339.5" y="-258.3" font-family="Arial" font-size="14.00">Pond with light blue water</text>
</g>
<!-- n1&#45;&gt;n3 -->
<g id="edge2" class="edge">
<title>n1&#45;&gt;n3</title>
<path fill="none" stroke="black" d="M1159.6,-365.81C1196.7,-344.6 1259.9,-308.5 1300.6,-285.21"/>
<polygon fill="black" stroke="black" points="1302.53,-288.14 1309.5,-280.16 1299.08,-282.05 1302.53,-288.14"/>
</g>
<!-- n4 -->
<g id="node4" class="node">
<title>n4</title>
<path fill="palegreen" stroke="black" d="M779.5,-158C779.5,-158 423.5,-158 423.5,-158 417.5,-158 411.5,-152 411.5,-146 411.5,-146 411.5,-134 411.5,-134 411.5,-128 417.5,-122 423.5,-122 423.5,-122 779.5,-122 779.5,-122 785.5,-122 791.5,-128 791.5,-134 791.5,-134 791.5,-146 791.5,-146 791.5,-152 785.5,-158 779.5,-158"/>
<text text-anchor="middle" x="601.5" y="-136.3" font-family="Arial" font-size="14.00">Understands: Draw land habitat with appropriate living things</text>
</g>
<!-- n2&#45;&gt;n4 -->
<g id="edge3" class="edge">
<title>n2&#45;&gt;n4</title>
<path fill="none" stroke="black" d="M963.49,-243.93C886.3,-221.99 752.5,-183.94 670.98,-160.76"/>
<polygon fill="black" stroke="black" points="671.89,-157.38 661.31,-158.01 669.97,-164.11 671.89,-157.38"/>
</g>
<!-- n6 -->
<g id="node5" class="node">
<title>n6</title>
<path fill="palegreen" stroke="black" d="M1622,-158C1622,-158 1267,-158 1267,-158 1261,-158 1255,-152 1255,-146 1255,-146 1255,-134 1255,-134 1255,-128 1261,-122 1267,-122 1267,-122 1622,-122 1622,-122 1628,-122 1634,-128 1634,-134 1634,-134 1634,-146 1634,-146 1634,-152 1628,-158 1622,-158"/>
<text text-anchor="middle" x="1444.5" y="-136.3" font-family="Arial" font-size="14.00">Understands: Draw various types of plants in suitable habitat</text>
</g>
<!-- n2&#45;&gt;n6 -->
<g id="edge4" class="edge">
<title>n2&#45;&gt;n6</title>
<path fill="none" stroke="black" d="M1083.4,-243.93C1160.4,-221.99 1293.9,-183.94 1375.2,-160.76"/>
<polygon fill="black" stroke="black" points="1376.15,-164.13 1384.8,-158.01 1374.22,-157.4 1376.15,-164.13"/>
</g>
<!-- n7 -->
<g id="node6" class="node">
<title>n7</title>
<path fill="palegreen" stroke="black" d="M1185,-158C1185,-158 862,-158 862,-158 856,-158 850,-152 850,-146 850,-146 850,-134 850,-134 850,-128 856,-122 862,-122 862,-122 1185,-122 1185,-122 1191,-122 1197,-128 1197,-134 1197,-134 1197,-146 1197,-146 1197,-152 1191,-158 1185,-158"/>
<text text-anchor="middle" x="1023.5" y="-136.3" font-family="Arial" font-size="14.00">Understands: Correctly show plant and animal diversity</text>
</g>
<!-- n2&#45;&gt;n7 -->
<g id="edge5" class="edge">
<title>n2&#45;&gt;n7</title>
<path fill="none" stroke="black" d="M1023.5,-243.81C1023.5,-224.11 1023.5,-191.58 1023.5,-168.39"/>
<polygon fill="black" stroke="black" points="1027,-168.16 1023.5,-158.16 1020,-168.16 1027,-168.16"/>
</g>
<!-- n8 -->
<g id="node7" class="node">
<title>n8</title>
<polygon fill="lightcoral" stroke="black" points="177.5,-158 1.88,-140 177.5,-122 353.12,-140 177.5,-158"/>
<text text-anchor="middle" x="177.5" y="-136.3" font-family="Arial" font-size="14.00">Labeling is not fully complete</text>
</g>
<!-- n2&#45;&gt;n8 -->
<g id="edge6" class="edge">
<title>n2&#45;&gt;n8</title>
<path fill="none" stroke="black" d="M954.98,-251.28C799.9,-229.28 422.67,-175.78 257.35,-152.33"/>
<polygon fill="black" stroke="black" points="257.64,-148.84 247.25,-150.89 256.66,-155.77 257.64,-148.84"/>
</g>
<!-- n3&#45;&gt;n6 -->
<g id="edge7" class="edge">
<title>n3&#45;&gt;n6</title>
<path fill="none" stroke="black" d="M1354.5,-243.81C1372.4,-223.4 1402.3,-189.21 1422.7,-165.91"/>
<polygon fill="black" stroke="black" points="1425.54,-167.99 1429.5,-158.16 1420.27,-163.37 1425.54,-167.99"/>
</g>
<!-- n3&#45;&gt;n7 -->
<g id="edge8" class="edge">
<title>n3&#45;&gt;n7</title>
<path fill="none" stroke="black" d="M1294.6,-243.93C1237.5,-222.25 1139,-184.86 1077.8,-161.61"/>
<polygon fill="black" stroke="black" points="1078.89,-158.28 1068.3,-158.01 1076.41,-164.83 1078.89,-158.28"/>
</g>
<!-- n5 -->
<g id="node8" class="node">
<title>n5</title>
<path fill="palegreen" stroke="black" d="M2067,-158C2067,-158 1704,-158 1704,-158 1698,-158 1692,-152 1692,-146 1692,-146 1692,-134 1692,-134 1692,-128 1698,-122 1704,-122 1704,-122 2067,-122 2067,-122 2073,-122 2079,-128 2079,-134 2079,-134 2079,-146 2079,-146 2079,-152 2073,-158 2067,-158"/>
<text text-anchor="middle" x="1885.5" y="-136.3" font-family="Arial" font-size="14.00">Understands: Draw water habitat with appropriate living things</text>
</g>
<!-- n3&#45;&gt;n5 -->
<g id="edge9" class="edge">
<title>n3&#45;&gt;n5</title>
<path fill="none" stroke="black" d="M1416.9,-244C1517.5,-221.89 1692.7,-183.37 1798.1,-160.22"/>
<polygon fill="black" stroke="black" points="1798.99,-163.61 1808,-158.03 1797.48,-156.77 1798.99,-163.61"/>
</g>
<!-- n9 -->
<g id="node9" class="node">
<title>n9</title>
<polygon fill="#f28e8e" stroke="black" points="355,-36 0,-36 0,0 355,0 355,-36"/>
<text text-anchor="middle" x="177.5" y="-14.3" font-family="Arial" font-size="14.00">Suggestion: Ensure all labels are complete and accurate</text>
</g>
<!-- n8&#45;&gt;n9 -->
<g id="edge10" class="edge">
<title>n8&#45;&gt;n9</title>
<path fill="none" stroke="black" d="M177.5,-121.81C177.5,-102.11 177.5,-69.58 177.5,-46.39"/>
<polygon fill="black" stroke="black" points="181,-46.16 177.5,-36.16 174,-46.16 181,-46.16"/>
</g>
</g>
</svg>
