<?xml version="1.0" encoding="UTF-8" standalone="no"?>
<!DOCTYPE svg PUBLIC "-//W3C//DTD SVG 1.1//EN"
 "http://www.w3.org/Graphics/SVG/1.1/DTD/svg11.dtd">
<!-- Generated by graphviz version 2.43.0 (0)
 -->
<!-- Pages: 1 -->
<svg width="1315pt" height="532pt"
 viewBox="0.00 0.00 1314.50 532.00" xmlns="http://www.w3.org/2000/svg" xmlns:xlink="http://www.w3.org/1999/xlink">
<g id="graph0" class="graph" transform="scale(1 1) rotate(0) translate(4 528)">
<polygon fill="white" stroke="transparent" points="-4,4 -4,-528 1310.5,-528 1310.5,4 -4,4"/>
<!-- n1 -->
<g id="node1" class="node">
<title>n1</title>
<polygon fill="lightblue" stroke="black" points="823.5,-506 732.25,-524 549.75,-524 458.5,-506 549.75,-488 732.25,-488 823.5,-506"/>
<text text-anchor="middle" x="641" y="-502.3" font-family="Arial" font-size="14.00">Draw reversible changes (ice melting)</text>
</g>
<!-- n2 -->
<g id="node2" class="node">
<title>n2</title>
<polygon fill="#fffdd0" stroke="black" points="512,-402 370,-402 370,-366 512,-366 512,-402"/>
<text text-anchor="middle" x="441" y="-380.3" font-family="Arial" font-size="14.00">Ice cube labeled &#39;ice&#39;</text>
</g>
<!-- n1&#45;&gt;n2 -->
<g id="edge1" class="edge">
<title>n1&#45;&gt;n2</title>
<path fill="none" stroke="black" d="M612.34,-487.81C577.15,-466.69 517.34,-430.81 478.51,-407.51"/>
<polygon fill="black" stroke="black" points="479.97,-404.31 469.6,-402.16 476.37,-410.31 479.97,-404.31"/>
</g>
<!-- n3 -->
<g id="node3" class="node">
<title>n3</title>
<polygon fill="#fffdd0" stroke="black" points="312,-402 0,-402 0,-366 312,-366 312,-402"/>
<text text-anchor="middle" x="156" y="-380.3" font-family="Arial" font-size="14.00">Arrow pointing from ice to water with heat symbol</text>
</g>
<!-- n1&#45;&gt;n3 -->
<g id="edge2" class="edge">
<title>n1&#45;&gt;n3</title>
<path fill="none" stroke="black" d="M572.28,-488C483.28,-465.98 328.48,-427.68 234.81,-404.5"/>
<polygon fill="black" stroke="black" points="235.37,-401.03 224.82,-402.03 233.69,-407.83 235.37,-401.03"/>
</g>
<!-- n4 -->
<g id="node4" class="node">
<title>n4</title>
<polygon fill="#fffdd0" stroke="black" points="919.5,-402 770.5,-402 770.5,-366 919.5,-366 919.5,-402"/>
<text text-anchor="middle" x="845" y="-380.3" font-family="Arial" font-size="14.00">Puddle labeled &#39;water&#39;</text>
</g>
<!-- n1&#45;&gt;n4 -->
<g id="edge3" class="edge">
<title>n1&#45;&gt;n4</title>
<path fill="none" stroke="black" d="M670.23,-487.81C706.21,-466.64 767.39,-430.65 806.99,-407.36"/>
<polygon fill="black" stroke="black" points="808.99,-410.25 815.83,-402.16 805.44,-404.21 808.99,-410.25"/>
</g>
<!-- n5 -->
<g id="node5" class="node">
<title>n5</title>
<polygon fill="#fffdd0" stroke="black" points="1306.5,-402 977.5,-402 977.5,-366 1306.5,-366 1306.5,-402"/>
<text text-anchor="middle" x="1142" y="-380.3" font-family="Arial" font-size="14.00">Arrow pointing from water to ice with cooling symbol</text>
</g>
<!-- n1&#45;&gt;n5 -->
<g id="edge4" class="edge">
<title>n1&#45;&gt;n5</title>
<path fill="none" stroke="black" d="M711.98,-488C804.11,-465.93 964.48,-427.52 1061.2,-404.36"/>
<polygon fill="black" stroke="black" points="1061.99,-407.77 1070.9,-402.03 1060.36,-400.96 1061.99,-407.77"/>
</g>
<!-- n6 -->
<g id="node6" class="node">
<title>n6</title>
<polygon fill="#fffdd0" stroke="black" points="712,-402 570,-402 570,-366 712,-366 712,-402"/>
<text text-anchor="middle" x="641" y="-380.3" font-family="Arial" font-size="14.00">Ice cube labeled &#39;ice&#39;</text>
</g>
<!-- n1&#45;&gt;n6 -->
<g id="edge5" class="edge">
<title>n1&#45;&gt;n6</title>
<path fill="none" stroke="black" d="M641,-487.81C641,-468.11 641,-435.58 641,-412.39"/>
<polygon fill="black" stroke="black" points="644.5,-412.16 641,-402.16 637.5,-412.16 644.5,-412.16"/>
</g>
<!-- n7 -->
<g id="node7" class="node">
<title>n7</title>
<path fill="palegreen" stroke="black" d="M368,-280C368,-280 68,-280 68,-280 62,-280 56,-274 56,-268 56,-268 56,-256 56,-256 56,-250 62,-244 68,-244 68,-244 368,-244 368,-244 374,-244 380,-250 380,-256 380,-256 380,-268 380,-268 380,-274 374,-280 368,-280"/>
<text text-anchor="middle" x="218" y="-258.3" font-family="Arial" font-size="14.00">Understands that heat causes ice to melt into water</text>
</g>
<!-- n2&#45;&gt;n7 -->
<g id="edge6" class="edge">
<title>n2&#45;&gt;n7</title>
<path fill="none" stroke="black" d="M409.05,-365.81C369.47,-344.51 301.99,-308.2 258.74,-284.92"/>
<polygon fill="black" stroke="black" points="260.35,-281.81 249.89,-280.16 257.04,-287.98 260.35,-281.81"/>
</g>
<!-- n9 -->
<g id="node8" class="node">
<title>n9</title>
<path fill="palegreen" stroke="black" d="M770.5,-280C770.5,-280 511.5,-280 511.5,-280 505.5,-280 499.5,-274 499.5,-268 499.5,-268 499.5,-256 499.5,-256 499.5,-250 505.5,-244 511.5,-244 511.5,-244 770.5,-244 770.5,-244 776.5,-244 782.5,-250 782.5,-256 782.5,-256 782.5,-268 782.5,-268 782.5,-274 776.5,-280 770.5,-280"/>
<text text-anchor="middle" x="641" y="-258.3" font-family="Arial" font-size="14.00">Correctly labels materials as &#39;ice&#39; and &#39;water&#39;</text>
</g>
<!-- n2&#45;&gt;n9 -->
<g id="edge7" class="edge">
<title>n2&#45;&gt;n9</title>
<path fill="none" stroke="black" d="M469.66,-365.81C504.85,-344.69 564.66,-308.81 603.49,-285.51"/>
<polygon fill="black" stroke="black" points="605.63,-288.31 612.4,-280.16 602.03,-282.31 605.63,-288.31"/>
</g>
<!-- n3&#45;&gt;n7 -->
<g id="edge8" class="edge">
<title>n3&#45;&gt;n7</title>
<path fill="none" stroke="black" d="M164.88,-365.81C175.24,-345.76 192.48,-312.4 204.49,-289.14"/>
<polygon fill="black" stroke="black" points="207.65,-290.65 209.13,-280.16 201.43,-287.44 207.65,-290.65"/>
</g>
<!-- n4&#45;&gt;n9 -->
<g id="edge9" class="edge">
<title>n4&#45;&gt;n9</title>
<path fill="none" stroke="black" d="M815.77,-365.81C779.79,-344.64 718.61,-308.65 679.01,-285.36"/>
<polygon fill="black" stroke="black" points="680.56,-282.21 670.17,-280.16 677.01,-288.25 680.56,-282.21"/>
</g>
<!-- n8 -->
<g id="node9" class="node">
<title>n8</title>
<path fill="palegreen" stroke="black" d="M1243,-280C1243,-280 915,-280 915,-280 909,-280 903,-274 903,-268 903,-268 903,-256 903,-256 903,-250 909,-244 915,-244 915,-244 1243,-244 1243,-244 1249,-244 1255,-250 1255,-256 1255,-256 1255,-268 1255,-268 1255,-274 1249,-280 1243,-280"/>
<text text-anchor="middle" x="1079" y="-258.3" font-family="Arial" font-size="14.00">Understands that cooling causes water to freeze into ice</text>
</g>
<!-- n4&#45;&gt;n8 -->
<g id="edge10" class="edge">
<title>n4&#45;&gt;n8</title>
<path fill="none" stroke="black" d="M878.53,-365.81C920.14,-344.47 991.16,-308.05 1036.5,-284.77"/>
<polygon fill="black" stroke="black" points="1038.2,-287.83 1045.5,-280.16 1035,-281.6 1038.2,-287.83"/>
</g>
<!-- n5&#45;&gt;n8 -->
<g id="edge11" class="edge">
<title>n5&#45;&gt;n8</title>
<path fill="none" stroke="black" d="M1133,-365.81C1122.4,-345.76 1104.9,-312.4 1092.7,-289.14"/>
<polygon fill="black" stroke="black" points="1095.74,-287.4 1088,-280.16 1089.54,-290.64 1095.74,-287.4"/>
</g>
<!-- n6&#45;&gt;n9 -->
<g id="edge12" class="edge">
<title>n6&#45;&gt;n9</title>
<path fill="none" stroke="black" d="M641,-365.81C641,-346.11 641,-313.58 641,-290.39"/>
<polygon fill="black" stroke="black" points="644.5,-290.16 641,-280.16 637.5,-290.16 644.5,-290.16"/>
</g>
<!-- n10 -->
<g id="node10" class="node">
<title>n10</title>
<polygon fill="lightcoral" stroke="black" points="641,-158 305.5,-140 641,-122 976.5,-140 641,-158"/>
<text text-anchor="middle" x="641" y="-136.3" font-family="Arial" font-size="14.00">Misunderstanding: Forgetting to label all parts consistently</text>
</g>
<!-- n9&#45;&gt;n10 -->
<g id="edge13" class="edge">
<title>n9&#45;&gt;n10</title>
<path fill="none" stroke="black" d="M641,-243.81C641,-224.11 641,-191.58 641,-168.39"/>
<polygon fill="black" stroke="black" points="644.5,-168.16 641,-158.16 637.5,-168.16 644.5,-168.16"/>
</g>
<!-- n11 -->
<g id="node11" class="node">
<title>n11</title>
<polygon fill="#f28e8e" stroke="black" points="789.5,-36 492.5,-36 492.5,0 789.5,0 789.5,-36"/>
<text text-anchor="middle" x="641" y="-14.3" font-family="Arial" font-size="14.00">Use consistent labeling throughout the drawing</text>
</g>
<!-- n10&#45;&gt;n11 -->
<g id="edge14" class="edge">
<title>n10&#45;&gt;n11</title>
<path fill="none" stroke="black" d="M641,-121.81C641,-102.11 641,-69.58 641,-46.39"/>
<polygon fill="black" stroke="black" points="644.5,-46.16 641,-36.16 637.5,-46.16 644.5,-46.16"/>
</g>
</g>
</svg>
