<?xml version="1.0" encoding="UTF-8" standalone="no"?>
<!DOCTYPE svg PUBLIC "-//W3C//DTD SVG 1.1//EN"
 "http://www.w3.org/Graphics/SVG/1.1/DTD/svg11.dtd">
<!-- Generated by graphviz version 2.43.0 (0)
 -->
<!-- Pages: 1 -->
<svg width="998pt" height="288pt"
 viewBox="0.00 0.00 997.50 288.00" xmlns="http://www.w3.org/2000/svg" xmlns:xlink="http://www.w3.org/1999/xlink">
<g id="graph0" class="graph" transform="scale(1 1) rotate(0) translate(4 284)">
<polygon fill="white" stroke="transparent" points="-4,4 -4,-284 993.5,-284 993.5,4 -4,4"/>
<!-- n1 -->
<g id="node1" class="node">
<title>n1</title>
<polygon fill="lightblue" stroke="black" points="826.5,-262 662.5,-280 334.5,-280 170.5,-262 334.5,-244 662.5,-244 826.5,-262"/>
<text text-anchor="middle" x="498.5" y="-258.3" font-family="Arial" font-size="14.00">Draw reversible and irreversible changes (ice melting vs. egg cooking)</text>
</g>
<!-- n2 -->
<g id="node2" class="node">
<title>n2</title>
<polygon fill="#fffdd0" stroke="black" points="473,-158 0,-158 0,-122 473,-122 473,-158"/>
<text text-anchor="middle" x="236.5" y="-136.3" font-family="Arial" font-size="14.00">Solid ice cube turning into a small puddle with &#39;melting&#39; and &#39;freezing&#39; arrows</text>
</g>
<!-- n1&#45;&gt;n2 -->
<g id="edge1" class="edge">
<title>n1&#45;&gt;n2</title>
<path fill="none" stroke="black" d="M461.24,-243.93C414.29,-222.43 333.61,-185.48 282.76,-162.19"/>
<polygon fill="black" stroke="black" points="284.18,-158.99 273.63,-158.01 281.27,-165.36 284.18,-158.99"/>
</g>
<!-- n3 -->
<g id="node3" class="node">
<title>n3</title>
<polygon fill="#fffdd0" stroke="black" points="989.5,-158 531.5,-158 531.5,-122 989.5,-122 989.5,-158"/>
<text text-anchor="middle" x="760.5" y="-136.3" font-family="Arial" font-size="14.00">Raw egg with yolk near pan and cooked egg with &#39;X&#39; over backward arrow</text>
</g>
<!-- n1&#45;&gt;n3 -->
<g id="edge2" class="edge">
<title>n1&#45;&gt;n3</title>
<path fill="none" stroke="black" d="M535.76,-243.93C582.71,-222.43 663.39,-185.48 714.24,-162.19"/>
<polygon fill="black" stroke="black" points="715.73,-165.36 723.37,-158.01 712.82,-158.99 715.73,-165.36"/>
</g>
<!-- n4 -->
<g id="node4" class="node">
<title>n4</title>
<path fill="palegreen" stroke="black" d="M392,-36C392,-36 81,-36 81,-36 75,-36 69,-30 69,-24 69,-24 69,-12 69,-12 69,-6 75,0 81,0 81,0 392,0 392,0 398,0 404,-6 404,-12 404,-12 404,-24 404,-24 404,-30 398,-36 392,-36"/>
<text text-anchor="middle" x="236.5" y="-14.3" font-family="Arial" font-size="14.00">Illustrates reversible change: ice melting and freezing</text>
</g>
<!-- n2&#45;&gt;n4 -->
<g id="edge3" class="edge">
<title>n2&#45;&gt;n4</title>
<path fill="none" stroke="black" d="M236.5,-121.81C236.5,-102.11 236.5,-69.58 236.5,-46.39"/>
<polygon fill="black" stroke="black" points="240,-46.16 236.5,-36.16 233,-46.16 240,-46.16"/>
</g>
<!-- n5 -->
<g id="node5" class="node">
<title>n5</title>
<path fill="palegreen" stroke="black" d="M934,-36C934,-36 587,-36 587,-36 581,-36 575,-30 575,-24 575,-24 575,-12 575,-12 575,-6 581,0 587,0 587,0 934,0 934,0 940,0 946,-6 946,-12 946,-12 946,-24 946,-24 946,-30 940,-36 934,-36"/>
<text text-anchor="middle" x="760.5" y="-14.3" font-family="Arial" font-size="14.00">Illustrates irreversible change: raw egg cooking to solid egg</text>
</g>
<!-- n3&#45;&gt;n5 -->
<g id="edge4" class="edge">
<title>n3&#45;&gt;n5</title>
<path fill="none" stroke="black" d="M760.5,-121.81C760.5,-102.11 760.5,-69.58 760.5,-46.39"/>
<polygon fill="black" stroke="black" points="764,-46.16 760.5,-36.16 757,-46.16 764,-46.16"/>
</g>
</g>
</svg>
