<?xml version="1.0" encoding="UTF-8" standalone="no"?>
<!DOCTYPE svg PUBLIC "-//W3C//DTD SVG 1.1//EN"
 "http://www.w3.org/Graphics/SVG/1.1/DTD/svg11.dtd">
<!-- Generated by graphviz version 2.43.0 (0)
 -->
<!-- Pages: 1 -->
<svg width="1102pt" height="410pt"
 viewBox="0.00 0.00 1102.00 410.00" xmlns="http://www.w3.org/2000/svg" xmlns:xlink="http://www.w3.org/1999/xlink">
<g id="graph0" class="graph" transform="scale(1 1) rotate(0) translate(4 406)">
<polygon fill="white" stroke="transparent" points="-4,4 -4,-406 1098,-406 1098,4 -4,4"/>
<!-- n1 -->
<g id="node1" class="node">
<title>n1</title>
<polygon fill="lightblue" stroke="black" points="744.37,-384 601.69,-402 316.31,-402 173.63,-384 316.31,-366 601.69,-366 744.37,-384"/>
<text text-anchor="middle" x="459" y="-380.3" font-family="Arial" font-size="14.00">Draw animals in their habitats with labels (e.g., fish in water).</text>
</g>
<!-- n2 -->
<g id="node2" class="node">
<title>n2</title>
<polygon fill="#fffdd0" stroke="black" points="163,-280 77,-280 77,-244 163,-244 163,-280"/>
<text text-anchor="middle" x="120" y="-258.3" font-family="Arial" font-size="14.00">fish in pond</text>
</g>
<!-- n1&#45;&gt;n2 -->
<g id="edge1" class="edge">
<title>n1&#45;&gt;n2</title>
<path fill="none" stroke="black" d="M410.79,-365.93C347.85,-343.65 238.05,-304.79 172.88,-281.72"/>
<polygon fill="black" stroke="black" points="173.8,-278.33 163.21,-278.3 171.47,-284.93 173.8,-278.33"/>
</g>
<!-- n3 -->
<g id="node3" class="node">
<title>n3</title>
<polygon fill="#fffdd0" stroke="black" points="337,-280 245,-280 245,-244 337,-244 337,-280"/>
<text text-anchor="middle" x="291" y="-258.3" font-family="Arial" font-size="14.00">tree and bird</text>
</g>
<!-- n1&#45;&gt;n3 -->
<g id="edge2" class="edge">
<title>n1&#45;&gt;n3</title>
<path fill="none" stroke="black" d="M434.93,-365.81C405.61,-344.87 355.97,-309.41 323.34,-286.1"/>
<polygon fill="black" stroke="black" points="325.2,-283.13 315.03,-280.16 321.13,-288.82 325.2,-283.13"/>
</g>
<!-- n4 -->
<g id="node4" class="node">
<title>n4</title>
<polygon fill="#fffdd0" stroke="black" points="506.5,-280 411.5,-280 411.5,-244 506.5,-244 506.5,-280"/>
<text text-anchor="middle" x="459" y="-258.3" font-family="Arial" font-size="14.00">bear in forest</text>
</g>
<!-- n1&#45;&gt;n4 -->
<g id="edge3" class="edge">
<title>n1&#45;&gt;n4</title>
<path fill="none" stroke="black" d="M459,-365.81C459,-346.11 459,-313.58 459,-290.39"/>
<polygon fill="black" stroke="black" points="462.5,-290.16 459,-280.16 455.5,-290.16 462.5,-290.16"/>
</g>
<!-- n5 -->
<g id="node5" class="node">
<title>n5</title>
<polygon fill="#fffdd0" stroke="black" points="695,-280 589,-280 589,-244 695,-244 695,-280"/>
<text text-anchor="middle" x="642" y="-258.3" font-family="Arial" font-size="14.00">rabbit on grass</text>
</g>
<!-- n1&#45;&gt;n5 -->
<g id="edge4" class="edge">
<title>n1&#45;&gt;n5</title>
<path fill="none" stroke="black" d="M485.22,-365.81C517.29,-344.78 571.69,-309.11 607.23,-285.8"/>
<polygon fill="black" stroke="black" points="609.39,-288.57 615.83,-280.16 605.55,-282.72 609.39,-288.57"/>
</g>
<!-- n6 -->
<g id="node6" class="node">
<title>n6</title>
<polygon fill="#fffdd0" stroke="black" points="914.5,-280 819.5,-280 819.5,-244 914.5,-244 914.5,-280"/>
<text text-anchor="middle" x="867" y="-258.3" font-family="Arial" font-size="14.00">sun in corner</text>
</g>
<!-- n1&#45;&gt;n6 -->
<g id="edge5" class="edge">
<title>n1&#45;&gt;n6</title>
<path fill="none" stroke="black" d="M517.02,-365.93C594.87,-343.04 732.29,-302.62 809.75,-279.84"/>
<polygon fill="black" stroke="black" points="810.74,-283.2 819.35,-277.02 808.77,-276.48 810.74,-283.2"/>
</g>
<!-- n7 -->
<g id="node7" class="node">
<title>n7</title>
<path fill="palegreen" stroke="black" d="M146,-158C146,-158 12,-158 12,-158 6,-158 0,-152 0,-146 0,-146 0,-134 0,-134 0,-128 6,-122 12,-122 12,-122 146,-122 146,-122 152,-122 158,-128 158,-134 158,-134 158,-146 158,-146 158,-152 152,-158 146,-158"/>
<text text-anchor="middle" x="79" y="-136.3" font-family="Arial" font-size="14.00">fish need water to swim</text>
</g>
<!-- n2&#45;&gt;n7 -->
<g id="edge6" class="edge">
<title>n2&#45;&gt;n7</title>
<path fill="none" stroke="black" d="M114.13,-243.81C107.34,-223.94 96.08,-190.99 88.14,-167.76"/>
<polygon fill="black" stroke="black" points="91.41,-166.49 84.86,-158.16 84.79,-168.75 91.41,-166.49"/>
</g>
<!-- n8 -->
<g id="node8" class="node">
<title>n8</title>
<path fill="palegreen" stroke="black" d="M322,-158C322,-158 228,-158 228,-158 222,-158 216,-152 216,-146 216,-146 216,-134 216,-134 216,-128 222,-122 228,-122 228,-122 322,-122 322,-122 328,-122 334,-128 334,-134 334,-134 334,-146 334,-146 334,-152 328,-158 322,-158"/>
<text text-anchor="middle" x="275" y="-136.3" font-family="Arial" font-size="14.00">birds live in trees</text>
</g>
<!-- n3&#45;&gt;n8 -->
<g id="edge7" class="edge">
<title>n3&#45;&gt;n8</title>
<path fill="none" stroke="black" d="M288.71,-243.81C286.07,-224.02 281.71,-191.29 278.61,-168.08"/>
<polygon fill="black" stroke="black" points="282.08,-167.61 277.29,-158.16 275.14,-168.53 282.08,-167.61"/>
</g>
<!-- n9 -->
<g id="node9" class="node">
<title>n9</title>
<path fill="palegreen" stroke="black" d="M513.5,-158C513.5,-158 404.5,-158 404.5,-158 398.5,-158 392.5,-152 392.5,-146 392.5,-146 392.5,-134 392.5,-134 392.5,-128 398.5,-122 404.5,-122 404.5,-122 513.5,-122 513.5,-122 519.5,-122 525.5,-128 525.5,-134 525.5,-134 525.5,-146 525.5,-146 525.5,-152 519.5,-158 513.5,-158"/>
<text text-anchor="middle" x="459" y="-136.3" font-family="Arial" font-size="14.00">bears live in forests</text>
</g>
<!-- n4&#45;&gt;n9 -->
<g id="edge8" class="edge">
<title>n4&#45;&gt;n9</title>
<path fill="none" stroke="black" d="M459,-243.81C459,-224.11 459,-191.58 459,-168.39"/>
<polygon fill="black" stroke="black" points="462.5,-168.16 459,-158.16 455.5,-168.16 462.5,-168.16"/>
</g>
<!-- n10 -->
<g id="node10" class="node">
<title>n10</title>
<path fill="palegreen" stroke="black" d="M738.5,-158C738.5,-158 595.5,-158 595.5,-158 589.5,-158 583.5,-152 583.5,-146 583.5,-146 583.5,-134 583.5,-134 583.5,-128 589.5,-122 595.5,-122 595.5,-122 738.5,-122 738.5,-122 744.5,-122 750.5,-128 750.5,-134 750.5,-134 750.5,-146 750.5,-146 750.5,-152 744.5,-158 738.5,-158"/>
<text text-anchor="middle" x="667" y="-136.3" font-family="Arial" font-size="14.00">rabbits live in fields/grass</text>
</g>
<!-- n5&#45;&gt;n10 -->
<g id="edge9" class="edge">
<title>n5&#45;&gt;n10</title>
<path fill="none" stroke="black" d="M645.58,-243.81C649.7,-224.02 656.52,-191.29 661.36,-168.08"/>
<polygon fill="black" stroke="black" points="664.81,-168.66 663.42,-158.16 657.96,-167.24 664.81,-168.66"/>
</g>
<!-- n11 -->
<g id="node11" class="node">
<title>n11</title>
<polygon fill="lightcoral" stroke="black" points="934,-158 808,-140 934,-122 1060,-140 934,-158"/>
<text text-anchor="middle" x="934" y="-136.3" font-family="Arial" font-size="14.00">plants need sunlight</text>
</g>
<!-- n6&#45;&gt;n11 -->
<g id="edge10" class="edge">
<title>n6&#45;&gt;n11</title>
<path fill="none" stroke="black" d="M876.6,-243.81C887.98,-223.42 907.05,-189.26 920.06,-165.96"/>
<polygon fill="black" stroke="black" points="923.24,-167.45 925.06,-157.01 917.13,-164.03 923.24,-167.45"/>
</g>
<!-- n12 -->
<g id="node12" class="node">
<title>n12</title>
<polygon fill="#f28e8e" stroke="black" points="1094,-36 774,-36 774,0 1094,0 1094,-36"/>
<text text-anchor="middle" x="934" y="-14.3" font-family="Arial" font-size="14.00">Include labeling of more resources (e.g., soil, rock)</text>
</g>
<!-- n11&#45;&gt;n12 -->
<g id="edge11" class="edge">
<title>n11&#45;&gt;n12</title>
<path fill="none" stroke="black" d="M934,-121.81C934,-102.11 934,-69.58 934,-46.39"/>
<polygon fill="black" stroke="black" points="937.5,-46.16 934,-36.16 930.5,-46.16 937.5,-46.16"/>
</g>
</g>
</svg>
