<?xml version="1.0" encoding="UTF-8" standalone="no"?>
<!DOCTYPE svg PUBLIC "-//W3C//DTD SVG 1.1//EN"
 "http://www.w3.org/Graphics/SVG/1.1/DTD/svg11.dtd">
<!-- Generated by graphviz version 2.43.0 (0)
 -->
<!-- Pages: 1 -->
<svg width="1058pt" height="410pt"
 viewBox="0.00 0.00 1057.50 410.00" xmlns="http://www.w3.org/2000/svg" xmlns:xlink="http://www.w3.org/1999/xlink">
<g id="graph0" class="graph" transform="scale(1 1) rotate(0) translate(4 406)">
<polygon fill="white" stroke="transparent" points="-4,4 -4,-406 1053.5,-406 1053.5,4 -4,4"/>
<!-- n1 -->
<g id="node1" class="node">
<title>n1</title>
<polygon fill="lightblue" stroke="black" points="772.5,-384 658.75,-402 431.25,-402 317.5,-384 431.25,-366 658.75,-366 772.5,-384"/>
<text text-anchor="middle" x="545" y="-380.3" font-family="Arial" font-size="14.00">Illustrate plants with and without water and light.</text>
</g>
<!-- n2 -->
<g id="node2" class="node">
<title>n2</title>
<polygon fill="#fffdd0" stroke="black" points="331.5,-280 6.5,-280 6.5,-244 331.5,-244 331.5,-280"/>
<text text-anchor="middle" x="169" y="-258.3" font-family="Arial" font-size="14.00">Two simple potted plants: dull green &amp; bright green.</text>
</g>
<!-- n1&#45;&gt;n2 -->
<g id="edge1" class="edge">
<title>n1&#45;&gt;n2</title>
<path fill="none" stroke="black" d="M491.53,-365.93C423.17,-344.12 304.99,-306.4 232.24,-283.18"/>
<polygon fill="black" stroke="black" points="232.88,-279.71 222.29,-280.01 230.76,-286.38 232.88,-279.71"/>
</g>
<!-- n3 -->
<g id="node3" class="node">
<title>n3</title>
<polygon fill="#fffdd0" stroke="black" points="700,-280 390,-280 390,-244 700,-244 700,-280"/>
<text text-anchor="middle" x="545" y="-258.3" font-family="Arial" font-size="14.00">Plant on the left is slightly smaller and dull green.</text>
</g>
<!-- n1&#45;&gt;n3 -->
<g id="edge2" class="edge">
<title>n1&#45;&gt;n3</title>
<path fill="none" stroke="black" d="M545,-365.81C545,-346.11 545,-313.58 545,-290.39"/>
<polygon fill="black" stroke="black" points="548.5,-290.16 545,-280.16 541.5,-290.16 548.5,-290.16"/>
</g>
<!-- n4 -->
<g id="node4" class="node">
<title>n4</title>
<polygon fill="#fffdd0" stroke="black" points="1033.5,-280 758.5,-280 758.5,-244 1033.5,-244 1033.5,-280"/>
<text text-anchor="middle" x="896" y="-258.3" font-family="Arial" font-size="14.00">Plant on the right is bright green and larger.</text>
</g>
<!-- n1&#45;&gt;n4 -->
<g id="edge3" class="edge">
<title>n1&#45;&gt;n4</title>
<path fill="none" stroke="black" d="M594.92,-365.93C658.6,-344.16 768.6,-306.56 836.55,-283.33"/>
<polygon fill="black" stroke="black" points="837.93,-286.56 846.26,-280.01 835.67,-279.93 837.93,-286.56"/>
</g>
<!-- n5 -->
<g id="node5" class="node">
<title>n5</title>
<path fill="palegreen" stroke="black" d="M326,-158C326,-158 12,-158 12,-158 6,-158 0,-152 0,-146 0,-146 0,-134 0,-134 0,-128 6,-122 12,-122 12,-122 326,-122 326,-122 332,-122 338,-128 338,-134 338,-134 338,-146 338,-146 338,-152 332,-158 326,-158"/>
<text text-anchor="middle" x="169" y="-136.3" font-family="Arial" font-size="14.00">Understanding: Visual difference using color and size.</text>
</g>
<!-- n2&#45;&gt;n5 -->
<g id="edge4" class="edge">
<title>n2&#45;&gt;n5</title>
<path fill="none" stroke="black" d="M169,-243.81C169,-224.11 169,-191.58 169,-168.39"/>
<polygon fill="black" stroke="black" points="172.5,-168.16 169,-158.16 165.5,-168.16 172.5,-168.16"/>
</g>
<!-- n6 -->
<g id="node6" class="node">
<title>n6</title>
<polygon fill="lightcoral" stroke="black" points="780,-158 510.5,-140 780,-122 1049.5,-140 780,-158"/>
<text text-anchor="middle" x="780" y="-136.3" font-family="Arial" font-size="14.00">Misunderstanding: Lack clear distress signals.</text>
</g>
<!-- n3&#45;&gt;n6 -->
<g id="edge5" class="edge">
<title>n3&#45;&gt;n6</title>
<path fill="none" stroke="black" d="M578.67,-243.81C621.77,-221.8 696.27,-183.76 741.55,-160.63"/>
<polygon fill="black" stroke="black" points="743.16,-163.74 750.48,-156.08 739.98,-157.5 743.16,-163.74"/>
</g>
<!-- n4&#45;&gt;n6 -->
<g id="edge6" class="edge">
<title>n4&#45;&gt;n6</title>
<path fill="none" stroke="black" d="M879.38,-243.81C859.23,-222.96 825.18,-187.74 802.64,-164.42"/>
<polygon fill="black" stroke="black" points="804.95,-161.77 795.48,-157.01 799.91,-166.63 804.95,-161.77"/>
</g>
<!-- n7 -->
<g id="node7" class="node">
<title>n7</title>
<polygon fill="#f28e8e" stroke="black" points="966,-36 594,-36 594,0 966,0 966,-36"/>
<text text-anchor="middle" x="780" y="-14.3" font-family="Arial" font-size="14.00">Feedback: Add signs of wilting for plants lacking water/light.</text>
</g>
<!-- n6&#45;&gt;n7 -->
<g id="edge7" class="edge">
<title>n6&#45;&gt;n7</title>
<path fill="none" stroke="black" d="M780,-121.81C780,-102.11 780,-69.58 780,-46.39"/>
<polygon fill="black" stroke="black" points="783.5,-46.16 780,-36.16 776.5,-46.16 783.5,-46.16"/>
</g>
</g>
</svg>
