<?xml version="1.0" encoding="UTF-8" standalone="no"?>
<!DOCTYPE svg PUBLIC "-//W3C//DTD SVG 1.1//EN"
 "http://www.w3.org/Graphics/SVG/1.1/DTD/svg11.dtd">
<!-- Generated by graphviz version 2.43.0 (0)
 -->
<!-- Pages: 1 -->
<svg width="1542pt" height="410pt"
 viewBox="0.00 0.00 1542.00 410.00" xmlns="http://www.w3.org/2000/svg" xmlns:xlink="http://www.w3.org/1999/xlink">
<g id="graph0" class="graph" transform="scale(1 1) rotate(0) translate(4 406)">
<polygon fill="white" stroke="transparent" points="-4,4 -4,-406 1538,-406 1538,4 -4,4"/>
<!-- n1 -->
<g id="node1" class="node">
<title>n1</title>
<polygon fill="lightblue" stroke="black" points="832,-384 740.75,-402 558.25,-402 467,-384 558.25,-366 740.75,-366 832,-384"/>
<text text-anchor="middle" x="649.5" y="-380.3" font-family="Arial" font-size="14.00">Draw a fish in their habitat with labels.</text>
</g>
<!-- n2 -->
<g id="node2" class="node">
<title>n2</title>
<polygon fill="#fffdd0" stroke="black" points="312,-280 35,-280 35,-244 312,-244 312,-280"/>
<text text-anchor="middle" x="173.5" y="-258.3" font-family="Arial" font-size="14.00">Outlined fish with oval body and triangle tail</text>
</g>
<!-- n1&#45;&gt;n2 -->
<g id="edge1" class="edge">
<title>n1&#45;&gt;n2</title>
<path fill="none" stroke="black" d="M582.06,-366C494.71,-343.98 342.78,-305.68 250.84,-282.5"/>
<polygon fill="black" stroke="black" points="251.59,-279.08 241.04,-280.03 249.88,-285.87 251.59,-279.08"/>
</g>
<!-- n3 -->
<g id="node3" class="node">
<title>n3</title>
<polygon fill="#fffdd0" stroke="black" points="616,-280 395,-280 395,-244 616,-244 616,-280"/>
<text text-anchor="middle" x="505.5" y="-258.3" font-family="Arial" font-size="14.00">Water depicted by wavy blue lines</text>
</g>
<!-- n1&#45;&gt;n3 -->
<g id="edge2" class="edge">
<title>n1&#45;&gt;n3</title>
<path fill="none" stroke="black" d="M628.87,-365.81C603.95,-345.04 561.91,-310.01 533.94,-286.7"/>
<polygon fill="black" stroke="black" points="536.01,-283.87 526.09,-280.16 531.53,-289.25 536.01,-283.87"/>
</g>
<!-- n4 -->
<g id="node4" class="node">
<title>n4</title>
<polygon fill="#fffdd0" stroke="black" points="926,-280 687,-280 687,-244 926,-244 926,-280"/>
<text text-anchor="middle" x="806.5" y="-258.3" font-family="Arial" font-size="14.00">Label &#39;fish&#39; added next to the drawing</text>
</g>
<!-- n1&#45;&gt;n4 -->
<g id="edge3" class="edge">
<title>n1&#45;&gt;n4</title>
<path fill="none" stroke="black" d="M671.99,-365.81C699.28,-344.96 745.39,-309.71 775.89,-286.4"/>
<polygon fill="black" stroke="black" points="778.23,-289.01 784.05,-280.16 773.98,-283.45 778.23,-289.01"/>
</g>
<!-- n5 -->
<g id="node5" class="node">
<title>n5</title>
<polygon fill="#fffdd0" stroke="black" points="1317.5,-280 1093.5,-280 1093.5,-244 1317.5,-244 1317.5,-280"/>
<text text-anchor="middle" x="1205.5" y="-258.3" font-family="Arial" font-size="14.00">Clouds included in the background</text>
</g>
<!-- n1&#45;&gt;n5 -->
<g id="edge4" class="edge">
<title>n1&#45;&gt;n5</title>
<path fill="none" stroke="black" d="M728.28,-366C830.82,-343.87 1009.6,-305.29 1116.8,-282.15"/>
<polygon fill="black" stroke="black" points="1117.57,-285.57 1126.6,-280.03 1116.09,-278.72 1117.57,-285.57"/>
</g>
<!-- n6 -->
<g id="node6" class="node">
<title>n6</title>
<path fill="palegreen" stroke="black" d="M233,-158C233,-158 12,-158 12,-158 6,-158 0,-152 0,-146 0,-146 0,-134 0,-134 0,-128 6,-122 12,-122 12,-122 233,-122 233,-122 239,-122 245,-128 245,-134 245,-134 245,-146 245,-146 245,-152 239,-158 233,-158"/>
<text text-anchor="middle" x="122.5" y="-136.3" font-family="Arial" font-size="14.00">Understanding the basic form of a fish</text>
</g>
<!-- n2&#45;&gt;n6 -->
<g id="edge5" class="edge">
<title>n2&#45;&gt;n6</title>
<path fill="none" stroke="black" d="M166.19,-243.81C157.71,-223.85 143.62,-190.7 133.74,-167.45"/>
<polygon fill="black" stroke="black" points="136.92,-165.99 129.79,-158.16 130.48,-168.73 136.92,-165.99"/>
</g>
<!-- n7 -->
<g id="node7" class="node">
<title>n7</title>
<path fill="palegreen" stroke="black" d="M498,-158C498,-158 315,-158 315,-158 309,-158 303,-152 303,-146 303,-146 303,-134 303,-134 303,-128 309,-122 315,-122 315,-122 498,-122 498,-122 504,-122 510,-128 510,-134 510,-134 510,-146 510,-146 510,-152 504,-158 498,-158"/>
<text text-anchor="middle" x="406.5" y="-136.3" font-family="Arial" font-size="14.00">Identified habitat needs of a fish</text>
</g>
<!-- n3&#45;&gt;n7 -->
<g id="edge6" class="edge">
<title>n3&#45;&gt;n7</title>
<path fill="none" stroke="black" d="M491.32,-243.81C474.48,-223.4 446.27,-189.21 427.05,-165.91"/>
<polygon fill="black" stroke="black" points="429.72,-163.65 420.66,-158.16 424.32,-168.1 429.72,-163.65"/>
</g>
<!-- n8 -->
<g id="node8" class="node">
<title>n8</title>
<polygon fill="lightcoral" stroke="black" points="819.5,-158 567.5,-140 819.5,-122 1071.5,-140 819.5,-158"/>
<text text-anchor="middle" x="819.5" y="-136.3" font-family="Arial" font-size="14.00">Only labeled &#39;fish&#39;, lacks other components</text>
</g>
<!-- n4&#45;&gt;n8 -->
<g id="edge7" class="edge">
<title>n4&#45;&gt;n8</title>
<path fill="none" stroke="black" d="M808.36,-243.81C810.5,-224.11 814.02,-191.58 816.53,-168.39"/>
<polygon fill="black" stroke="black" points="820.04,-168.48 817.64,-158.16 813.08,-167.72 820.04,-168.48"/>
</g>
<!-- n9 -->
<g id="node9" class="node">
<title>n9</title>
<polygon fill="lightcoral" stroke="black" points="1315.5,-158 1128.82,-140 1315.5,-122 1502.18,-140 1315.5,-158"/>
<text text-anchor="middle" x="1315.5" y="-136.3" font-family="Arial" font-size="14.00">Misunderstands a fish&#39;s habitat</text>
</g>
<!-- n5&#45;&gt;n9 -->
<g id="edge8" class="edge">
<title>n5&#45;&gt;n9</title>
<path fill="none" stroke="black" d="M1221.3,-243.81C1240.5,-222.85 1273,-187.34 1294.4,-164.03"/>
<polygon fill="black" stroke="black" points="1297.01,-166.36 1301.2,-156.63 1291.86,-161.63 1297.01,-166.36"/>
</g>
<!-- n10 -->
<g id="node10" class="node">
<title>n10</title>
<polygon fill="#f28e8e" stroke="black" points="985,-36 654,-36 654,0 985,0 985,-36"/>
<text text-anchor="middle" x="819.5" y="-14.3" font-family="Arial" font-size="14.00">Add more labels for parts of fish and habitat features</text>
</g>
<!-- n8&#45;&gt;n10 -->
<g id="edge9" class="edge">
<title>n8&#45;&gt;n10</title>
<path fill="none" stroke="black" d="M819.5,-121.81C819.5,-102.11 819.5,-69.58 819.5,-46.39"/>
<polygon fill="black" stroke="black" points="823,-46.16 819.5,-36.16 816,-46.16 823,-46.16"/>
</g>
<!-- n11 -->
<g id="node11" class="node">
<title>n11</title>
<polygon fill="#f28e8e" stroke="black" points="1534,-36 1097,-36 1097,0 1534,0 1534,-36"/>
<text text-anchor="middle" x="1315.5" y="-14.3" font-family="Arial" font-size="14.00">Discuss and draw correct habitat elements like plants or other animals</text>
</g>
<!-- n9&#45;&gt;n11 -->
<g id="edge10" class="edge">
<title>n9&#45;&gt;n11</title>
<path fill="none" stroke="black" d="M1315.5,-121.81C1315.5,-102.11 1315.5,-69.58 1315.5,-46.39"/>
<polygon fill="black" stroke="black" points="1319,-46.16 1315.5,-36.16 1312,-46.16 1319,-46.16"/>
</g>
</g>
</svg>
