<?xml version="1.0" encoding="UTF-8" standalone="no"?>
<!DOCTYPE svg PUBLIC "-//W3C//DTD SVG 1.1//EN"
 "http://www.w3.org/Graphics/SVG/1.1/DTD/svg11.dtd">
<!-- Generated by graphviz version 2.43.0 (0)
 -->
<!-- Pages: 1 -->
<svg width="1155pt" height="410pt"
 viewBox="0.00 0.00 1155.00 410.00" xmlns="http://www.w3.org/2000/svg" xmlns:xlink="http://www.w3.org/1999/xlink">
<g id="graph0" class="graph" transform="scale(1 1) rotate(0) translate(4 406)">
<polygon fill="white" stroke="transparent" points="-4,4 -4,-406 1151,-406 1151,4 -4,4"/>
<!-- n1 -->
<g id="node1" class="node">
<title>n1</title>
<polygon fill="lightblue" stroke="black" points="853.82,-384 731.41,-402 486.59,-402 364.18,-384 486.59,-366 731.41,-366 853.82,-384"/>
<text text-anchor="middle" x="609" y="-380.3" font-family="Arial" font-size="14.00">Draw a habitat and the different living things in each</text>
</g>
<!-- n2 -->
<g id="node2" class="node">
<title>n2</title>
<polygon fill="#fffdd0" stroke="black" points="250,-280 50,-280 50,-244 250,-244 250,-280"/>
<text text-anchor="middle" x="150" y="-258.3" font-family="Arial" font-size="14.00">Green ground with brown lines</text>
</g>
<!-- n1&#45;&gt;n2 -->
<g id="edge1" class="edge">
<title>n1&#45;&gt;n2</title>
<path fill="none" stroke="black" d="M543.72,-365.93C459.51,-343.92 313.35,-305.71 224.76,-282.55"/>
<polygon fill="black" stroke="black" points="225.61,-279.15 215.05,-280.01 223.84,-285.93 225.61,-279.15"/>
</g>
<!-- n3 -->
<g id="node3" class="node">
<title>n3</title>
<polygon fill="#fffdd0" stroke="black" points="585.5,-280 314.5,-280 314.5,-244 585.5,-244 585.5,-280"/>
<text text-anchor="middle" x="450" y="-258.3" font-family="Arial" font-size="14.00">Green tree with round top and brown trunk</text>
</g>
<!-- n1&#45;&gt;n3 -->
<g id="edge2" class="edge">
<title>n1&#45;&gt;n3</title>
<path fill="none" stroke="black" d="M586.22,-365.81C558.59,-344.96 511.89,-309.71 481,-286.4"/>
<polygon fill="black" stroke="black" points="482.83,-283.4 472.74,-280.16 478.61,-288.98 482.83,-283.4"/>
</g>
<!-- n4 -->
<g id="node4" class="node">
<title>n4</title>
<polygon fill="#fffdd0" stroke="black" points="892.5,-280 643.5,-280 643.5,-244 892.5,-244 892.5,-280"/>
<text text-anchor="middle" x="768" y="-258.3" font-family="Arial" font-size="14.00">Flower with circle center and flat petals</text>
</g>
<!-- n1&#45;&gt;n4 -->
<g id="edge3" class="edge">
<title>n1&#45;&gt;n4</title>
<path fill="none" stroke="black" d="M631.78,-365.81C659.41,-344.96 706.11,-309.71 737,-286.4"/>
<polygon fill="black" stroke="black" points="739.39,-288.98 745.26,-280.16 735.17,-283.4 739.39,-288.98"/>
</g>
<!-- n5 -->
<g id="node5" class="node">
<title>n5</title>
<polygon fill="#fffdd0" stroke="black" points="1147,-280 951,-280 951,-244 1147,-244 1147,-280"/>
<text text-anchor="middle" x="1049" y="-258.3" font-family="Arial" font-size="14.00">Small oval representing a bug</text>
</g>
<!-- n1&#45;&gt;n5 -->
<g id="edge4" class="edge">
<title>n1&#45;&gt;n5</title>
<path fill="none" stroke="black" d="M671.57,-365.93C752.14,-343.96 891.84,-305.86 976.81,-282.69"/>
<polygon fill="black" stroke="black" points="977.91,-286.02 986.64,-280.01 976.07,-279.26 977.91,-286.02"/>
</g>
<!-- n6 -->
<g id="node6" class="node">
<title>n6</title>
<path fill="palegreen" stroke="black" d="M266,-158C266,-158 12,-158 12,-158 6,-158 0,-152 0,-146 0,-146 0,-134 0,-134 0,-128 6,-122 12,-122 12,-122 266,-122 266,-122 272,-122 278,-128 278,-134 278,-134 278,-146 278,-146 278,-152 272,-158 266,-158"/>
<text text-anchor="middle" x="139" y="-136.3" font-family="Arial" font-size="14.00">Understanding that gardens can be habitats</text>
</g>
<!-- n2&#45;&gt;n6 -->
<g id="edge5" class="edge">
<title>n2&#45;&gt;n6</title>
<path fill="none" stroke="black" d="M148.42,-243.81C146.62,-224.11 143.64,-191.58 141.51,-168.39"/>
<polygon fill="black" stroke="black" points="144.97,-167.8 140.57,-158.16 138,-168.44 144.97,-167.8"/>
</g>
<!-- n7 -->
<g id="node7" class="node">
<title>n7</title>
<path fill="palegreen" stroke="black" d="M563.5,-158C563.5,-158 348.5,-158 348.5,-158 342.5,-158 336.5,-152 336.5,-146 336.5,-146 336.5,-134 336.5,-134 336.5,-128 342.5,-122 348.5,-122 348.5,-122 563.5,-122 563.5,-122 569.5,-122 575.5,-128 575.5,-134 575.5,-134 575.5,-146 575.5,-146 575.5,-152 569.5,-158 563.5,-158"/>
<text text-anchor="middle" x="456" y="-136.3" font-family="Arial" font-size="14.00">Correct basic representation of a tree</text>
</g>
<!-- n3&#45;&gt;n7 -->
<g id="edge6" class="edge">
<title>n3&#45;&gt;n7</title>
<path fill="none" stroke="black" d="M450.86,-243.81C451.84,-224.11 453.47,-191.58 454.63,-168.39"/>
<polygon fill="black" stroke="black" points="458.14,-168.32 455.14,-158.16 451.15,-167.97 458.14,-168.32"/>
</g>
<!-- n8 -->
<g id="node8" class="node">
<title>n8</title>
<polygon fill="lightcoral" stroke="black" points="913,-158 768.5,-140 913,-122 1057.5,-140 913,-158"/>
<text text-anchor="middle" x="913" y="-136.3" font-family="Arial" font-size="14.00">Limited diversity shown</text>
</g>
<!-- n4&#45;&gt;n8 -->
<g id="edge7" class="edge">
<title>n4&#45;&gt;n8</title>
<path fill="none" stroke="black" d="M788.77,-243.81C814.72,-222.34 859.1,-185.61 887.2,-162.36"/>
<polygon fill="black" stroke="black" points="889.54,-164.96 895.01,-155.89 885.08,-159.57 889.54,-164.96"/>
</g>
<!-- n5&#45;&gt;n8 -->
<g id="edge8" class="edge">
<title>n5&#45;&gt;n8</title>
<path fill="none" stroke="black" d="M1029.5,-243.81C1005.4,-222.55 964.37,-186.32 937.98,-163.04"/>
<polygon fill="black" stroke="black" points="940.11,-160.25 930.3,-156.26 935.48,-165.5 940.11,-160.25"/>
</g>
<!-- n9 -->
<g id="node9" class="node">
<title>n9</title>
<polygon fill="#f28e8e" stroke="black" points="1049,-36 777,-36 777,0 1049,0 1049,-36"/>
<text text-anchor="middle" x="913" y="-14.3" font-family="Arial" font-size="14.00">Add more living things to show biodiversity</text>
</g>
<!-- n8&#45;&gt;n9 -->
<g id="edge9" class="edge">
<title>n8&#45;&gt;n9</title>
<path fill="none" stroke="black" d="M913,-121.81C913,-102.11 913,-69.58 913,-46.39"/>
<polygon fill="black" stroke="black" points="916.5,-46.16 913,-36.16 909.5,-46.16 916.5,-46.16"/>
</g>
</g>
</svg>
