<?xml version="1.0" encoding="UTF-8" standalone="no"?>
<!DOCTYPE svg PUBLIC "-//W3C//DTD SVG 1.1//EN"
 "http://www.w3.org/Graphics/SVG/1.1/DTD/svg11.dtd">
<!-- Generated by graphviz version 2.43.0 (0)
 -->
<!-- Pages: 1 -->
<svg width="1832pt" height="288pt"
 viewBox="0.00 0.00 1831.50 288.00" xmlns="http://www.w3.org/2000/svg" xmlns:xlink="http://www.w3.org/1999/xlink">
<g id="graph0" class="graph" transform="scale(1 1) rotate(0) translate(4 284)">
<polygon fill="white" stroke="transparent" points="-4,4 -4,-284 1827.5,-284 1827.5,4 -4,4"/>
<!-- n1 -->
<g id="node1" class="node">
<title>n1</title>
<polygon fill="lightblue" stroke="black" points="1182,-262 1090.75,-280 908.25,-280 817,-262 908.25,-244 1090.75,-244 1182,-262"/>
<text text-anchor="middle" x="999.5" y="-258.3" font-family="Arial" font-size="14.00">Draw reversible changes (ice melting)</text>
</g>
<!-- n2 -->
<g id="node2" class="node">
<title>n2</title>
<polygon fill="#fffdd0" stroke="black" points="735.5,-158 637.5,-158 637.5,-122 735.5,-122 735.5,-158"/>
<text text-anchor="middle" x="686.5" y="-136.3" font-family="Arial" font-size="14.00">Blue ice cube</text>
</g>
<!-- n1&#45;&gt;n2 -->
<g id="edge1" class="edge">
<title>n1&#45;&gt;n2</title>
<path fill="none" stroke="black" d="M954.99,-243.93C898.43,-222.25 800.91,-184.86 740.26,-161.61"/>
<polygon fill="black" stroke="black" points="741.45,-158.32 730.86,-158.01 738.95,-164.86 741.45,-158.32"/>
</g>
<!-- n3 -->
<g id="node3" class="node">
<title>n3</title>
<polygon fill="#fffdd0" stroke="black" points="973.5,-158 793.5,-158 793.5,-122 973.5,-122 973.5,-158"/>
<text text-anchor="middle" x="883.5" y="-136.3" font-family="Arial" font-size="14.00">Puddle of lighter blue water</text>
</g>
<!-- n1&#45;&gt;n3 -->
<g id="edge2" class="edge">
<title>n1&#45;&gt;n3</title>
<path fill="none" stroke="black" d="M982.88,-243.81C963.07,-223.31 929.82,-188.91 907.28,-165.6"/>
<polygon fill="black" stroke="black" points="909.56,-162.92 900.09,-158.16 904.52,-167.78 909.56,-162.92"/>
</g>
<!-- n4 -->
<g id="node4" class="node">
<title>n4</title>
<polygon fill="#fffdd0" stroke="black" points="1540.5,-158 1442.5,-158 1442.5,-122 1540.5,-122 1540.5,-158"/>
<text text-anchor="middle" x="1491.5" y="-136.3" font-family="Arial" font-size="14.00">Sun with rays</text>
</g>
<!-- n1&#45;&gt;n4 -->
<g id="edge3" class="edge">
<title>n1&#45;&gt;n4</title>
<path fill="none" stroke="black" d="M1069.2,-244C1166.4,-220.29 1341,-177.7 1432.3,-155.44"/>
<polygon fill="black" stroke="black" points="1433.32,-158.79 1442.2,-153.02 1431.65,-151.99 1433.32,-158.79"/>
</g>
<!-- n5 -->
<g id="node5" class="node">
<title>n5</title>
<polygon fill="#fffdd0" stroke="black" points="1201,-158 1032,-158 1032,-122 1201,-122 1201,-158"/>
<text text-anchor="middle" x="1116.5" y="-136.3" font-family="Arial" font-size="14.00">Freezer with cooling lines</text>
</g>
<!-- n1&#45;&gt;n5 -->
<g id="edge4" class="edge">
<title>n1&#45;&gt;n5</title>
<path fill="none" stroke="black" d="M1016.3,-243.81C1036.2,-223.31 1069.8,-188.91 1092.5,-165.6"/>
<polygon fill="black" stroke="black" points="1095.29,-167.75 1099.8,-158.16 1090.3,-162.85 1095.29,-167.75"/>
</g>
<!-- n6 -->
<g id="node6" class="node">
<title>n6</title>
<path fill="palegreen" stroke="black" d="M275,-36C275,-36 12,-36 12,-36 6,-36 0,-30 0,-24 0,-24 0,-12 0,-12 0,-6 6,0 12,0 12,0 275,0 275,0 281,0 287,-6 287,-12 287,-12 287,-24 287,-24 287,-30 281,-36 275,-36"/>
<text text-anchor="middle" x="143.5" y="-14.3" font-family="Arial" font-size="14.00">Understands that ice is a solid before heating</text>
</g>
<!-- n2&#45;&gt;n6 -->
<g id="edge5" class="edge">
<title>n2&#45;&gt;n6</title>
<path fill="none" stroke="black" d="M637.35,-128.14C545.27,-107.79 345.68,-63.68 230.41,-38.21"/>
<polygon fill="black" stroke="black" points="231.07,-34.77 220.55,-36.03 229.56,-41.6 231.07,-34.77"/>
</g>
<!-- n10 -->
<g id="node7" class="node">
<title>n10</title>
<path fill="palegreen" stroke="black" d="M1067.5,-36C1067.5,-36 699.5,-36 699.5,-36 693.5,-36 687.5,-30 687.5,-24 687.5,-24 687.5,-12 687.5,-12 687.5,-6 693.5,0 699.5,0 699.5,0 1067.5,0 1067.5,0 1073.5,0 1079.5,-6 1079.5,-12 1079.5,-12 1079.5,-24 1079.5,-24 1079.5,-30 1073.5,-36 1067.5,-36"/>
<text text-anchor="middle" x="883.5" y="-14.3" font-family="Arial" font-size="14.00">Understands ice melting and refreezing are reversible changes</text>
</g>
<!-- n2&#45;&gt;n10 -->
<g id="edge6" class="edge">
<title>n2&#45;&gt;n10</title>
<path fill="none" stroke="black" d="M714.73,-121.81C749.4,-100.69 808.3,-64.81 846.55,-41.51"/>
<polygon fill="black" stroke="black" points="848.61,-44.35 855.33,-36.16 844.97,-38.37 848.61,-44.35"/>
</g>
<!-- n3&#45;&gt;n10 -->
<g id="edge7" class="edge">
<title>n3&#45;&gt;n10</title>
<path fill="none" stroke="black" d="M883.5,-121.81C883.5,-102.11 883.5,-69.58 883.5,-46.39"/>
<polygon fill="black" stroke="black" points="887,-46.16 883.5,-36.16 880,-46.16 887,-46.16"/>
</g>
<!-- n7 -->
<g id="node8" class="node">
<title>n7</title>
<path fill="palegreen" stroke="black" d="M617.5,-36C617.5,-36 357.5,-36 357.5,-36 351.5,-36 345.5,-30 345.5,-24 345.5,-24 345.5,-12 345.5,-12 345.5,-6 351.5,0 357.5,0 357.5,0 617.5,0 617.5,0 623.5,0 629.5,-6 629.5,-12 629.5,-12 629.5,-24 629.5,-24 629.5,-30 623.5,-36 617.5,-36"/>
<text text-anchor="middle" x="487.5" y="-14.3" font-family="Arial" font-size="14.00">Understands that water is liquid after heating</text>
</g>
<!-- n3&#45;&gt;n7 -->
<g id="edge8" class="edge">
<title>n3&#45;&gt;n7</title>
<path fill="none" stroke="black" d="M827.18,-121.93C755.05,-100.07 630.22,-62.25 553.64,-39.04"/>
<polygon fill="black" stroke="black" points="554.21,-35.56 543.62,-36.01 552.18,-42.25 554.21,-35.56"/>
</g>
<!-- n8 -->
<g id="node9" class="node">
<title>n8</title>
<path fill="palegreen" stroke="black" d="M1811.5,-36C1811.5,-36 1539.5,-36 1539.5,-36 1533.5,-36 1527.5,-30 1527.5,-24 1527.5,-24 1527.5,-12 1527.5,-12 1527.5,-6 1533.5,0 1539.5,0 1539.5,0 1811.5,0 1811.5,0 1817.5,0 1823.5,-6 1823.5,-12 1823.5,-12 1823.5,-24 1823.5,-24 1823.5,-30 1817.5,-36 1811.5,-36"/>
<text text-anchor="middle" x="1675.5" y="-14.3" font-family="Arial" font-size="14.00">Understands cause (sun/heat) leads to melting</text>
</g>
<!-- n4&#45;&gt;n8 -->
<g id="edge9" class="edge">
<title>n4&#45;&gt;n8</title>
<path fill="none" stroke="black" d="M1517.9,-121.81C1550.1,-100.78 1604.8,-65.11 1640.5,-41.8"/>
<polygon fill="black" stroke="black" points="1642.71,-44.54 1649.2,-36.16 1638.91,-38.67 1642.71,-44.54"/>
</g>
<!-- n5&#45;&gt;n10 -->
<g id="edge10" class="edge">
<title>n5&#45;&gt;n10</title>
<path fill="none" stroke="black" d="M1083.1,-121.81C1041.7,-100.47 970.97,-64.05 925.78,-40.77"/>
<polygon fill="black" stroke="black" points="927.31,-37.63 916.82,-36.16 924.11,-43.85 927.31,-37.63"/>
</g>
<!-- n9 -->
<g id="node10" class="node">
<title>n9</title>
<path fill="palegreen" stroke="black" d="M1457,-36C1457,-36 1150,-36 1150,-36 1144,-36 1138,-30 1138,-24 1138,-24 1138,-12 1138,-12 1138,-6 1144,0 1150,0 1150,0 1457,0 1457,0 1463,0 1469,-6 1469,-12 1469,-12 1469,-24 1469,-24 1469,-30 1463,-36 1457,-36"/>
<text text-anchor="middle" x="1303.5" y="-14.3" font-family="Arial" font-size="14.00">Understands cause (freezer/cooling) refreezes water</text>
</g>
<!-- n5&#45;&gt;n9 -->
<g id="edge11" class="edge">
<title>n5&#45;&gt;n9</title>
<path fill="none" stroke="black" d="M1143.3,-121.81C1176.1,-100.78 1231.6,-65.11 1268,-41.8"/>
<polygon fill="black" stroke="black" points="1270.27,-44.5 1276.8,-36.16 1266.49,-38.61 1270.27,-44.5"/>
</g>
</g>
</svg>
