<?xml version="1.0" encoding="UTF-8" standalone="no"?>
<!DOCTYPE svg PUBLIC "-//W3C//DTD SVG 1.1//EN"
 "http://www.w3.org/Graphics/SVG/1.1/DTD/svg11.dtd">
<!-- Generated by graphviz version 2.43.0 (0)
 -->
<!-- Pages: 1 -->
<svg width="1100pt" height="410pt"
 viewBox="0.00 0.00 1099.65 410.00" xmlns="http://www.w3.org/2000/svg" xmlns:xlink="http://www.w3.org/1999/xlink">
<g id="graph0" class="graph" transform="scale(1 1) rotate(0) translate(4 406)">
<polygon fill="white" stroke="transparent" points="-4,4 -4,-406 1095.65,-406 1095.65,4 -4,4"/>
<!-- n1 -->
<g id="node1" class="node">
<title>n1</title>
<polygon fill="lightblue" stroke="black" points="770.65,-384 678.65,-402 494.65,-402 402.65,-384 494.65,-366 678.65,-366 770.65,-384"/>
<text text-anchor="middle" x="586.65" y="-380.3" font-family="Arial" font-size="14.00">Illustrate plants with and without water</text>
</g>
<!-- n2 -->
<g id="node2" class="node">
<title>n2</title>
<polygon fill="#fffdd0" stroke="black" points="711.65,-280 461.65,-280 461.65,-244 711.65,-244 711.65,-280"/>
<text text-anchor="middle" x="586.65" y="-258.3" font-family="Arial" font-size="14.00">Two identical plants drawn side by side</text>
</g>
<!-- n1&#45;&gt;n2 -->
<g id="edge1" class="edge">
<title>n1&#45;&gt;n2</title>
<path fill="none" stroke="black" d="M586.65,-365.81C586.65,-346.11 586.65,-313.58 586.65,-290.39"/>
<polygon fill="black" stroke="black" points="590.15,-290.16 586.65,-280.16 583.15,-290.16 590.15,-290.16"/>
</g>
<!-- n3 -->
<g id="node3" class="node">
<title>n3</title>
<polygon fill="lightcoral" stroke="black" points="299.65,-158 -0.15,-140 299.65,-122 599.44,-140 299.65,-158"/>
<text text-anchor="middle" x="299.65" y="-136.3" font-family="Arial" font-size="14.00">Plants are not distinguished as healthy or unhealthy</text>
</g>
<!-- n2&#45;&gt;n3 -->
<g id="edge2" class="edge">
<title>n2&#45;&gt;n3</title>
<path fill="none" stroke="black" d="M545.83,-243.93C492.69,-221.72 400.09,-183 344.87,-159.91"/>
<polygon fill="black" stroke="black" points="345.91,-156.55 335.34,-155.93 343.21,-163.01 345.91,-156.55"/>
</g>
<!-- n4 -->
<g id="node4" class="node">
<title>n4</title>
<polygon fill="lightcoral" stroke="black" points="874.65,-158 657.65,-140 874.65,-122 1091.65,-140 874.65,-158"/>
<text text-anchor="middle" x="874.65" y="-136.3" font-family="Arial" font-size="14.00">No sunlight or water source depicted</text>
</g>
<!-- n2&#45;&gt;n4 -->
<g id="edge3" class="edge">
<title>n2&#45;&gt;n4</title>
<path fill="none" stroke="black" d="M627.6,-243.93C681.51,-221.47 775.89,-182.15 831.08,-159.15"/>
<polygon fill="black" stroke="black" points="832.68,-162.27 840.57,-155.2 829.99,-155.81 832.68,-162.27"/>
</g>
<!-- n5 -->
<g id="node5" class="node">
<title>n5</title>
<polygon fill="#f28e8e" stroke="black" points="512.65,-36 86.65,-36 86.65,0 512.65,0 512.65,-36"/>
<text text-anchor="middle" x="299.65" y="-14.3" font-family="Arial" font-size="14.00">Feedback: Differentiate plant appearance based on water availability</text>
</g>
<!-- n3&#45;&gt;n5 -->
<g id="edge4" class="edge">
<title>n3&#45;&gt;n5</title>
<path fill="none" stroke="black" d="M299.65,-121.81C299.65,-102.11 299.65,-69.58 299.65,-46.39"/>
<polygon fill="black" stroke="black" points="303.15,-46.16 299.65,-36.16 296.15,-46.16 303.15,-46.16"/>
</g>
<!-- n6 -->
<g id="node6" class="node">
<title>n6</title>
<polygon fill="#f28e8e" stroke="black" points="1043.65,-36 705.65,-36 705.65,0 1043.65,0 1043.65,-36"/>
<text text-anchor="middle" x="874.65" y="-14.3" font-family="Arial" font-size="14.00">Feedback: Include sun and water sources in drawings</text>
</g>
<!-- n4&#45;&gt;n6 -->
<g id="edge5" class="edge">
<title>n4&#45;&gt;n6</title>
<path fill="none" stroke="black" d="M874.65,-121.81C874.65,-102.11 874.65,-69.58 874.65,-46.39"/>
<polygon fill="black" stroke="black" points="878.15,-46.16 874.65,-36.16 871.15,-46.16 878.15,-46.16"/>
</g>
</g>
</svg>
