<?xml version="1.0" encoding="UTF-8" standalone="no"?>
<!DOCTYPE svg PUBLIC "-//W3C//DTD SVG 1.1//EN"
 "http://www.w3.org/Graphics/SVG/1.1/DTD/svg11.dtd">
<!-- Generated by graphviz version 2.43.0 (0)
 -->
<!-- Pages: 1 -->
<svg width="1151pt" height="288pt"
 viewBox="0.00 0.00 1150.50 288.00" xmlns="http://www.w3.org/2000/svg" xmlns:xlink="http://www.w3.org/1999/xlink">
<g id="graph0" class="graph" transform="scale(1 1) rotate(0) translate(4 284)">
<polygon fill="white" stroke="transparent" points="-4,4 -4,-284 1146.5,-284 1146.5,4 -4,4"/>
<!-- n1 -->
<g id="node1" class="node">
<title>n1</title>
<polygon fill="lightblue" stroke="black" points="771.5,-262 659.25,-280 434.75,-280 322.5,-262 434.75,-244 659.25,-244 771.5,-262"/>
<text text-anchor="middle" x="547" y="-258.3" font-family="Arial" font-size="14.00">Illustrate plants with and without water and light</text>
</g>
<!-- n2 -->
<g id="node2" class="node">
<title>n2</title>
<polygon fill="#fffdd0" stroke="black" points="358,-158 76,-158 76,-122 358,-122 358,-158"/>
<text text-anchor="middle" x="217" y="-136.3" font-family="Arial" font-size="14.00">Plant upright and healthy with sun and water</text>
</g>
<!-- n1&#45;&gt;n2 -->
<g id="edge1" class="edge">
<title>n1&#45;&gt;n2</title>
<path fill="none" stroke="black" d="M500.07,-243.93C440.32,-222.21 337.2,-184.71 273.29,-161.47"/>
<polygon fill="black" stroke="black" points="274.36,-158.14 263.77,-158.01 271.97,-164.72 274.36,-158.14"/>
</g>
<!-- n3 -->
<g id="node3" class="node">
<title>n3</title>
<polygon fill="#fffdd0" stroke="black" points="631.5,-158 462.5,-158 462.5,-122 631.5,-122 631.5,-158"/>
<text text-anchor="middle" x="547" y="-136.3" font-family="Arial" font-size="14.00">Plant wilted without water</text>
</g>
<!-- n1&#45;&gt;n3 -->
<g id="edge2" class="edge">
<title>n1&#45;&gt;n3</title>
<path fill="none" stroke="black" d="M547,-243.81C547,-224.11 547,-191.58 547,-168.39"/>
<polygon fill="black" stroke="black" points="550.5,-168.16 547,-158.16 543.5,-168.16 550.5,-168.16"/>
</g>
<!-- n4 -->
<g id="node4" class="node">
<title>n4</title>
<polygon fill="#fffdd0" stroke="black" points="955,-158 773,-158 773,-122 955,-122 955,-158"/>
<text text-anchor="middle" x="864" y="-136.3" font-family="Arial" font-size="14.00">Plant stretched without light</text>
</g>
<!-- n1&#45;&gt;n4 -->
<g id="edge3" class="edge">
<title>n1&#45;&gt;n4</title>
<path fill="none" stroke="black" d="M592.08,-243.93C649.36,-222.25 748.13,-184.86 809.55,-161.61"/>
<polygon fill="black" stroke="black" points="810.95,-164.82 819.07,-158.01 808.48,-158.27 810.95,-164.82"/>
</g>
<!-- n5 -->
<g id="node5" class="node">
<title>n5</title>
<path fill="palegreen" stroke="black" d="M328,-36C328,-36 12,-36 12,-36 6,-36 0,-30 0,-24 0,-24 0,-12 0,-12 0,-6 6,0 12,0 12,0 328,0 328,0 334,0 340,-6 340,-12 340,-12 340,-24 340,-24 340,-30 334,-36 328,-36"/>
<text text-anchor="middle" x="170" y="-14.3" font-family="Arial" font-size="14.00">Understands plants need both water and light to thrive</text>
</g>
<!-- n2&#45;&gt;n5 -->
<g id="edge4" class="edge">
<title>n2&#45;&gt;n5</title>
<path fill="none" stroke="black" d="M210.27,-121.81C202.48,-101.94 189.58,-68.99 180.48,-45.76"/>
<polygon fill="black" stroke="black" points="183.63,-44.2 176.72,-36.16 177.11,-46.75 183.63,-44.2"/>
</g>
<!-- n6 -->
<g id="node6" class="node">
<title>n6</title>
<path fill="palegreen" stroke="black" d="M683.5,-36C683.5,-36 410.5,-36 410.5,-36 404.5,-36 398.5,-30 398.5,-24 398.5,-24 398.5,-12 398.5,-12 398.5,-6 404.5,0 410.5,0 410.5,0 683.5,0 683.5,0 689.5,0 695.5,-6 695.5,-12 695.5,-12 695.5,-24 695.5,-24 695.5,-30 689.5,-36 683.5,-36"/>
<text text-anchor="middle" x="547" y="-14.3" font-family="Arial" font-size="14.00">Understands lack of water causes plants to wilt</text>
</g>
<!-- n3&#45;&gt;n6 -->
<g id="edge5" class="edge">
<title>n3&#45;&gt;n6</title>
<path fill="none" stroke="black" d="M547,-121.81C547,-102.11 547,-69.58 547,-46.39"/>
<polygon fill="black" stroke="black" points="550.5,-46.16 547,-36.16 543.5,-46.16 550.5,-46.16"/>
</g>
<!-- n7 -->
<g id="node7" class="node">
<title>n7</title>
<path fill="palegreen" stroke="black" d="M1130.5,-36C1130.5,-36 765.5,-36 765.5,-36 759.5,-36 753.5,-30 753.5,-24 753.5,-24 753.5,-12 753.5,-12 753.5,-6 759.5,0 765.5,0 765.5,0 1130.5,0 1130.5,0 1136.5,0 1142.5,-6 1142.5,-12 1142.5,-12 1142.5,-24 1142.5,-24 1142.5,-30 1136.5,-36 1130.5,-36"/>
<text text-anchor="middle" x="948" y="-14.3" font-family="Arial" font-size="14.00">Understands lack of light causes plants to stretch towards light</text>
</g>
<!-- n4&#45;&gt;n7 -->
<g id="edge6" class="edge">
<title>n4&#45;&gt;n7</title>
<path fill="none" stroke="black" d="M876.04,-121.81C890.19,-101.58 913.84,-67.81 930.13,-44.52"/>
<polygon fill="black" stroke="black" points="933.12,-46.36 935.99,-36.16 927.38,-42.34 933.12,-46.36"/>
</g>
</g>
</svg>
