<?xml version="1.0" encoding="UTF-8" standalone="no"?>
<!DOCTYPE svg PUBLIC "-//W3C//DTD SVG 1.1//EN"
 "http://www.w3.org/Graphics/SVG/1.1/DTD/svg11.dtd">
<!-- Generated by graphviz version 2.43.0 (0)
 -->
<!-- Pages: 1 -->
<svg width="1609pt" height="410pt"
 viewBox="0.00 0.00 1609.00 410.00" xmlns="http://www.w3.org/2000/svg" xmlns:xlink="http://www.w3.org/1999/xlink">
<g id="graph0" class="graph" transform="scale(1 1) rotate(0) translate(4 406)">
<polygon fill="white" stroke="transparent" points="-4,4 -4,-406 1605,-406 1605,4 -4,4"/>
<!-- n1 -->
<g id="node1" class="node">
<title>n1</title>
<polygon fill="lightblue" stroke="black" points="1051.5,-384 940,-402 717,-402 605.5,-384 717,-366 940,-366 1051.5,-384"/>
<text text-anchor="middle" x="828.5" y="-380.3" font-family="Arial" font-size="14.00">Draw a string telephone between two students.</text>
</g>
<!-- n2 -->
<g id="node2" class="node">
<title>n2</title>
<polygon fill="#fffdd0" stroke="black" points="505.5,-280 141.5,-280 141.5,-244 505.5,-244 505.5,-280"/>
<text text-anchor="middle" x="323.5" y="-258.3" font-family="Arial" font-size="14.00">Colorful drawing of two students each holding a paper cup</text>
</g>
<!-- n1&#45;&gt;n2 -->
<g id="edge1" class="edge">
<title>n1&#45;&gt;n2</title>
<path fill="none" stroke="black" d="M756.95,-366C664.09,-343.93 502.44,-305.52 404.96,-282.36"/>
<polygon fill="black" stroke="black" points="405.69,-278.94 395.15,-280.03 404.07,-285.75 405.69,-278.94"/>
</g>
<!-- n3 -->
<g id="node3" class="node">
<title>n3</title>
<polygon fill="#fffdd0" stroke="black" points="945,-280 712,-280 712,-244 945,-244 945,-280"/>
<text text-anchor="middle" x="828.5" y="-258.3" font-family="Arial" font-size="14.00">Slightly slack string connecting cups</text>
</g>
<!-- n1&#45;&gt;n3 -->
<g id="edge2" class="edge">
<title>n1&#45;&gt;n3</title>
<path fill="none" stroke="black" d="M828.5,-365.81C828.5,-346.11 828.5,-313.58 828.5,-290.39"/>
<polygon fill="black" stroke="black" points="832,-290.16 828.5,-280.16 825,-290.16 832,-290.16"/>
</g>
<!-- n4 -->
<g id="node4" class="node">
<title>n4</title>
<polygon fill="#fffdd0" stroke="black" points="1494,-280 1139,-280 1139,-244 1494,-244 1494,-280"/>
<text text-anchor="middle" x="1316.5" y="-258.3" font-family="Arial" font-size="14.00">Arrows demonstrating sound movement, labeled &#39;sound&#39;</text>
</g>
<!-- n1&#45;&gt;n4 -->
<g id="edge3" class="edge">
<title>n1&#45;&gt;n4</title>
<path fill="none" stroke="black" d="M897.64,-366C987.29,-343.95 1143.3,-305.6 1237.5,-282.43"/>
<polygon fill="black" stroke="black" points="1238.42,-285.81 1247.3,-280.03 1236.75,-279.01 1238.42,-285.81"/>
</g>
<!-- n5 -->
<g id="node5" class="node">
<title>n5</title>
<path fill="palegreen" stroke="black" d="M339,-158C339,-158 12,-158 12,-158 6,-158 0,-152 0,-146 0,-146 0,-134 0,-134 0,-128 6,-122 12,-122 12,-122 339,-122 339,-122 345,-122 351,-128 351,-134 351,-134 351,-146 351,-146 351,-152 345,-158 339,-158"/>
<text text-anchor="middle" x="175.5" y="-136.3" font-family="Arial" font-size="14.00">Understanding of using cups and string to communicate</text>
</g>
<!-- n2&#45;&gt;n5 -->
<g id="edge4" class="edge">
<title>n2&#45;&gt;n5</title>
<path fill="none" stroke="black" d="M302.3,-243.81C276.69,-223.04 233.48,-188.01 204.73,-164.7"/>
<polygon fill="black" stroke="black" points="206.64,-161.74 196.67,-158.16 202.23,-167.18 206.64,-161.74"/>
</g>
<!-- n6 -->
<g id="node6" class="node">
<title>n6</title>
<polygon fill="lightcoral" stroke="black" points="828.5,-158 409.23,-140 828.5,-122 1247.77,-140 828.5,-158"/>
<text text-anchor="middle" x="828.5" y="-136.3" font-family="Arial" font-size="14.00">Misunderstanding: The string should be tight for best sound transmission.</text>
</g>
<!-- n3&#45;&gt;n6 -->
<g id="edge5" class="edge">
<title>n3&#45;&gt;n6</title>
<path fill="none" stroke="black" d="M828.5,-243.81C828.5,-224.11 828.5,-191.58 828.5,-168.39"/>
<polygon fill="black" stroke="black" points="832,-168.16 828.5,-158.16 825,-168.16 832,-168.16"/>
</g>
<!-- n7 -->
<g id="node7" class="node">
<title>n7</title>
<path fill="palegreen" stroke="black" d="M1589,-158C1589,-158 1318,-158 1318,-158 1312,-158 1306,-152 1306,-146 1306,-146 1306,-134 1306,-134 1306,-128 1312,-122 1318,-122 1318,-122 1589,-122 1589,-122 1595,-122 1601,-128 1601,-134 1601,-134 1601,-146 1601,-146 1601,-152 1595,-158 1589,-158"/>
<text text-anchor="middle" x="1453.5" y="-136.3" font-family="Arial" font-size="14.00">Correct labeling shows sound travels via string</text>
</g>
<!-- n4&#45;&gt;n7 -->
<g id="edge6" class="edge">
<title>n4&#45;&gt;n7</title>
<path fill="none" stroke="black" d="M1336.1,-243.81C1359.7,-223.13 1399.5,-188.31 1426.1,-165"/>
<polygon fill="black" stroke="black" points="1428.69,-167.38 1433.9,-158.16 1424.07,-162.12 1428.69,-167.38"/>
</g>
<!-- n8 -->
<g id="node8" class="node">
<title>n8</title>
<polygon fill="#f28e8e" stroke="black" points="997.5,-36 659.5,-36 659.5,0 997.5,0 997.5,-36"/>
<text text-anchor="middle" x="828.5" y="-14.3" font-family="Arial" font-size="14.00">Suggest tightening the string to improve sound clarity.</text>
</g>
<!-- n6&#45;&gt;n8 -->
<g id="edge7" class="edge">
<title>n6&#45;&gt;n8</title>
<path fill="none" stroke="black" d="M828.5,-121.81C828.5,-102.11 828.5,-69.58 828.5,-46.39"/>
<polygon fill="black" stroke="black" points="832,-46.16 828.5,-36.16 825,-46.16 832,-46.16"/>
</g>
</g>
</svg>
