<?xml version="1.0" encoding="UTF-8" standalone="no"?>
<!DOCTYPE svg PUBLIC "-//W3C//DTD SVG 1.1//EN"
 "http://www.w3.org/Graphics/SVG/1.1/DTD/svg11.dtd">
<!-- Generated by graphviz version 2.43.0 (0)
 -->
<!-- Pages: 1 -->
<svg width="1540pt" height="410pt"
 viewBox="0.00 0.00 1539.54 410.00" xmlns="http://www.w3.org/2000/svg" xmlns:xlink="http://www.w3.org/1999/xlink">
<g id="graph0" class="graph" transform="scale(1 1) rotate(0) translate(4 406)">
<polygon fill="white" stroke="transparent" points="-4,4 -4,-406 1535.54,-406 1535.54,4 -4,4"/>
<!-- n1 -->
<g id="node1" class="node">
<title>n1</title>
<polygon fill="lightblue" stroke="black" points="880.5,-384 769,-402 546,-402 434.5,-384 546,-366 769,-366 880.5,-384"/>
<text text-anchor="middle" x="657.5" y="-380.3" font-family="Arial" font-size="14.00">Draw a string telephone between two students.</text>
</g>
<!-- n2 -->
<g id="node2" class="node">
<title>n2</title>
<polygon fill="#fffdd0" stroke="black" points="276.5,-280 52.5,-280 52.5,-244 276.5,-244 276.5,-280"/>
<text text-anchor="middle" x="164.5" y="-258.3" font-family="Arial" font-size="14.00">Two stick figures facing each other</text>
</g>
<!-- n1&#45;&gt;n2 -->
<g id="edge1" class="edge">
<title>n1&#45;&gt;n2</title>
<path fill="none" stroke="black" d="M587.65,-366C497.09,-343.95 339.51,-305.6 244.32,-282.43"/>
<polygon fill="black" stroke="black" points="244.99,-278.99 234.45,-280.03 243.34,-285.79 244.99,-278.99"/>
</g>
<!-- n4 -->
<g id="node3" class="node">
<title>n4</title>
<polygon fill="#fffdd0" stroke="black" points="626.5,-280 360.5,-280 360.5,-244 626.5,-244 626.5,-280"/>
<text text-anchor="middle" x="493.5" y="-258.3" font-family="Arial" font-size="14.00">Figures holding large, crudely drawn cups</text>
</g>
<!-- n1&#45;&gt;n4 -->
<g id="edge2" class="edge">
<title>n1&#45;&gt;n4</title>
<path fill="none" stroke="black" d="M634,-365.81C605.38,-344.87 556.93,-309.41 525.07,-286.1"/>
<polygon fill="black" stroke="black" points="527.09,-283.24 516.95,-280.16 522.95,-288.89 527.09,-283.24"/>
</g>
<!-- n6 -->
<g id="node4" class="node">
<title>n6</title>
<polygon fill="#fffdd0" stroke="black" points="971.5,-280 697.5,-280 697.5,-244 971.5,-244 971.5,-280"/>
<text text-anchor="middle" x="834.5" y="-258.3" font-family="Arial" font-size="14.00">Zigzagging, loose line representing a string</text>
</g>
<!-- n1&#45;&gt;n6 -->
<g id="edge3" class="edge">
<title>n1&#45;&gt;n6</title>
<path fill="none" stroke="black" d="M682.86,-365.81C713.88,-344.78 766.49,-309.11 800.87,-285.8"/>
<polygon fill="black" stroke="black" points="802.88,-288.67 809.19,-280.16 798.95,-282.87 802.88,-288.67"/>
</g>
<!-- n9 -->
<g id="node5" class="node">
<title>n9</title>
<polygon fill="#fffdd0" stroke="black" points="1339,-280 1148,-280 1148,-244 1339,-244 1339,-280"/>
<text text-anchor="middle" x="1243.5" y="-258.3" font-family="Arial" font-size="14.00">Background plain, no context</text>
</g>
<!-- n1&#45;&gt;n9 -->
<g id="edge4" class="edge">
<title>n1&#45;&gt;n9</title>
<path fill="none" stroke="black" d="M740.53,-366C848.72,-343.84 1037.4,-305.21 1150.3,-282.08"/>
<polygon fill="black" stroke="black" points="1151.3,-285.45 1160.4,-280.03 1149.9,-278.59 1151.3,-285.45"/>
</g>
<!-- n3 -->
<g id="node6" class="node">
<title>n3</title>
<path fill="palegreen" stroke="black" d="M215,-158C215,-158 12,-158 12,-158 6,-158 0,-152 0,-146 0,-146 0,-134 0,-134 0,-128 6,-122 12,-122 12,-122 215,-122 215,-122 221,-122 227,-128 227,-134 227,-134 227,-146 227,-146 227,-152 221,-158 215,-158"/>
<text text-anchor="middle" x="113.5" y="-136.3" font-family="Arial" font-size="14.00">Stick figures trying to communicate</text>
</g>
<!-- n2&#45;&gt;n3 -->
<g id="edge5" class="edge">
<title>n2&#45;&gt;n3</title>
<path fill="none" stroke="black" d="M157.19,-243.81C148.71,-223.85 134.62,-190.7 124.74,-167.45"/>
<polygon fill="black" stroke="black" points="127.92,-165.99 120.79,-158.16 121.48,-168.73 127.92,-165.99"/>
</g>
<!-- n5 -->
<g id="node7" class="node">
<title>n5</title>
<path fill="palegreen" stroke="black" d="M492,-158C492,-158 297,-158 297,-158 291,-158 285,-152 285,-146 285,-146 285,-134 285,-134 285,-128 291,-122 297,-122 297,-122 492,-122 492,-122 498,-122 504,-128 504,-134 504,-134 504,-146 504,-146 504,-152 498,-158 492,-158"/>
<text text-anchor="middle" x="394.5" y="-136.3" font-family="Arial" font-size="14.00">Cups as part of a string telephone</text>
</g>
<!-- n4&#45;&gt;n5 -->
<g id="edge6" class="edge">
<title>n4&#45;&gt;n5</title>
<path fill="none" stroke="black" d="M479.32,-243.81C462.48,-223.4 434.27,-189.21 415.05,-165.91"/>
<polygon fill="black" stroke="black" points="417.72,-163.65 408.66,-158.16 412.32,-168.1 417.72,-163.65"/>
</g>
<!-- n7 -->
<g id="node8" class="node">
<title>n7</title>
<polygon fill="lightcoral" stroke="black" points="847.5,-158 561.5,-140 847.5,-122 1133.5,-140 847.5,-158"/>
<text text-anchor="middle" x="847.5" y="-136.3" font-family="Arial" font-size="14.00">String not tight, misunderstanding of sound travel</text>
</g>
<!-- n6&#45;&gt;n7 -->
<g id="edge7" class="edge">
<title>n6&#45;&gt;n7</title>
<path fill="none" stroke="black" d="M836.36,-243.81C838.5,-224.11 842.02,-191.58 844.53,-168.39"/>
<polygon fill="black" stroke="black" points="848.04,-168.48 845.64,-158.16 841.08,-167.72 848.04,-168.48"/>
</g>
<!-- n10 -->
<g id="node9" class="node">
<title>n10</title>
<polygon fill="lightcoral" stroke="black" points="1361.5,-158 1191.41,-140 1361.5,-122 1531.59,-140 1361.5,-158"/>
<text text-anchor="middle" x="1361.5" y="-136.3" font-family="Arial" font-size="14.00">Lack of contextual elements</text>
</g>
<!-- n9&#45;&gt;n10 -->
<g id="edge8" class="edge">
<title>n9&#45;&gt;n10</title>
<path fill="none" stroke="black" d="M1260.4,-243.81C1281,-222.85 1315.9,-187.34 1338.9,-164.03"/>
<polygon fill="black" stroke="black" points="1341.63,-166.24 1346.1,-156.63 1336.62,-161.36 1341.63,-166.24"/>
</g>
<!-- n8 -->
<g id="node10" class="node">
<title>n8</title>
<polygon fill="#f28e8e" stroke="black" points="977.5,-36 717.5,-36 717.5,0 977.5,0 977.5,-36"/>
<text text-anchor="middle" x="847.5" y="-14.3" font-family="Arial" font-size="14.00">Illustrate tightened string for sound travel</text>
</g>
<!-- n7&#45;&gt;n8 -->
<g id="edge9" class="edge">
<title>n7&#45;&gt;n8</title>
<path fill="none" stroke="black" d="M847.5,-121.81C847.5,-102.11 847.5,-69.58 847.5,-46.39"/>
<polygon fill="black" stroke="black" points="851,-46.16 847.5,-36.16 844,-46.16 851,-46.16"/>
</g>
<!-- n11 -->
<g id="node11" class="node">
<title>n11</title>
<polygon fill="#f28e8e" stroke="black" points="1517.5,-36 1205.5,-36 1205.5,0 1517.5,0 1517.5,-36"/>
<text text-anchor="middle" x="1361.5" y="-14.3" font-family="Arial" font-size="14.00">Include environment or scene to enhance context</text>
</g>
<!-- n10&#45;&gt;n11 -->
<g id="edge10" class="edge">
<title>n10&#45;&gt;n11</title>
<path fill="none" stroke="black" d="M1361.5,-121.81C1361.5,-102.11 1361.5,-69.58 1361.5,-46.39"/>
<polygon fill="black" stroke="black" points="1365,-46.16 1361.5,-36.16 1358,-46.16 1365,-46.16"/>
</g>
</g>
</svg>
