<?xml version="1.0" encoding="UTF-8" standalone="no"?>
<!DOCTYPE svg PUBLIC "-//W3C//DTD SVG 1.1//EN"
 "http://www.w3.org/Graphics/SVG/1.1/DTD/svg11.dtd">
<!-- Generated by graphviz version 2.43.0 (0)
 -->
<!-- Pages: 1 -->
<svg width="2167pt" height="410pt"
 viewBox="0.00 0.00 2166.53 410.00" xmlns="http://www.w3.org/2000/svg" xmlns:xlink="http://www.w3.org/1999/xlink">
<g id="graph0" class="graph" transform="scale(1 1) rotate(0) translate(4 406)">
<polygon fill="white" stroke="transparent" points="-4,4 -4,-406 2162.53,-406 2162.53,4 -4,4"/>
<!-- n1 -->
<g id="node1" class="node">
<title>n1</title>
<polygon fill="lightblue" stroke="black" points="1206.37,-384 1065.18,-402 782.82,-402 641.63,-384 782.82,-366 1065.18,-366 1206.37,-384"/>
<text text-anchor="middle" x="924" y="-380.3" font-family="Arial" font-size="14.00">Draw animals in their habitats with labels (e.g., fish in water)</text>
</g>
<!-- n2 -->
<g id="node2" class="node">
<title>n2</title>
<polygon fill="#fffdd0" stroke="black" points="286,-280 36,-280 36,-244 286,-244 286,-280"/>
<text text-anchor="middle" x="161" y="-258.3" font-family="Arial" font-size="14.00">Ocean with a fish labeled &#39;fish in water&#39;</text>
</g>
<!-- n1&#45;&gt;n2 -->
<g id="edge1" class="edge">
<title>n1&#45;&gt;n2</title>
<path fill="none" stroke="black" d="M815.9,-366C674.03,-343.69 425.92,-304.66 279.21,-281.59"/>
<polygon fill="black" stroke="black" points="279.68,-278.12 269.26,-280.03 278.6,-285.04 279.68,-278.12"/>
</g>
<!-- n3 -->
<g id="node3" class="node">
<title>n3</title>
<polygon fill="#fffdd0" stroke="black" points="946.5,-280 375.5,-280 375.5,-244 946.5,-244 946.5,-280"/>
<text text-anchor="middle" x="661" y="-258.3" font-family="Arial" font-size="14.00">Forest with a deer beside a stream labeled &#39;deer needs water&#39; and a bird labeled &#39;bird in tree&#39;</text>
</g>
<!-- n1&#45;&gt;n3 -->
<g id="edge2" class="edge">
<title>n1&#45;&gt;n3</title>
<path fill="none" stroke="black" d="M886.6,-365.93C839.47,-344.43 758.48,-307.48 707.44,-284.19"/>
<polygon fill="black" stroke="black" points="708.82,-280.97 698.27,-280.01 705.92,-287.34 708.82,-280.97"/>
</g>
<!-- n4 -->
<g id="node4" class="node">
<title>n4</title>
<polygon fill="#fffdd0" stroke="black" points="1369,-280 1005,-280 1005,-244 1369,-244 1369,-280"/>
<text text-anchor="middle" x="1187" y="-258.3" font-family="Arial" font-size="14.00">Desert with a cactus and a snake labeled &#39;snake in desert&#39;</text>
</g>
<!-- n1&#45;&gt;n4 -->
<g id="edge3" class="edge">
<title>n1&#45;&gt;n4</title>
<path fill="none" stroke="black" d="M961.4,-365.93C1008.5,-344.43 1089.5,-307.48 1140.6,-284.19"/>
<polygon fill="black" stroke="black" points="1142.07,-287.36 1149.7,-280.01 1139.15,-281 1142.07,-287.36"/>
</g>
<!-- n5 -->
<g id="node5" class="node">
<title>n5</title>
<polygon fill="#fffdd0" stroke="black" points="1907,-280 1501,-280 1501,-244 1907,-244 1907,-280"/>
<text text-anchor="middle" x="1704" y="-258.3" font-family="Arial" font-size="14.00">Sun shining above forest and desert (not labeled in ocean scene)</text>
</g>
<!-- n1&#45;&gt;n5 -->
<g id="edge4" class="edge">
<title>n1&#45;&gt;n5</title>
<path fill="none" stroke="black" d="M1034.5,-366C1179.5,-343.69 1433.2,-304.66 1583.2,-281.59"/>
<polygon fill="black" stroke="black" points="1583.95,-285.02 1593.3,-280.03 1582.88,-278.1 1583.95,-285.02"/>
</g>
<!-- n6 -->
<g id="node6" class="node">
<title>n6</title>
<path fill="palegreen" stroke="black" d="M246,-158C246,-158 12,-158 12,-158 6,-158 0,-152 0,-146 0,-146 0,-134 0,-134 0,-128 6,-122 12,-122 12,-122 246,-122 246,-122 252,-122 258,-128 258,-134 258,-134 258,-146 258,-146 258,-152 252,-158 246,-158"/>
<text text-anchor="middle" x="129" y="-136.3" font-family="Arial" font-size="14.00">Correct understanding: Fish live in water</text>
</g>
<!-- n2&#45;&gt;n6 -->
<g id="edge5" class="edge">
<title>n2&#45;&gt;n6</title>
<path fill="none" stroke="black" d="M156.42,-243.81C151.14,-224.02 142.41,-191.29 136.22,-168.08"/>
<polygon fill="black" stroke="black" points="139.53,-166.92 133.58,-158.16 132.77,-168.72 139.53,-166.92"/>
</g>
<!-- n7 -->
<g id="node7" class="node">
<title>n7</title>
<path fill="palegreen" stroke="black" d="M645.5,-158C645.5,-158 328.5,-158 328.5,-158 322.5,-158 316.5,-152 316.5,-146 316.5,-146 316.5,-134 316.5,-134 316.5,-128 322.5,-122 328.5,-122 328.5,-122 645.5,-122 645.5,-122 651.5,-122 657.5,-128 657.5,-134 657.5,-134 657.5,-146 657.5,-146 657.5,-152 651.5,-158 645.5,-158"/>
<text text-anchor="middle" x="487" y="-136.3" font-family="Arial" font-size="14.00">Correct understanding: Deer needs water from stream</text>
</g>
<!-- n3&#45;&gt;n7 -->
<g id="edge6" class="edge">
<title>n3&#45;&gt;n7</title>
<path fill="none" stroke="black" d="M636.07,-243.81C605.71,-222.87 554.29,-187.41 520.5,-164.1"/>
<polygon fill="black" stroke="black" points="522.1,-160.95 511.88,-158.16 518.13,-166.72 522.1,-160.95"/>
</g>
<!-- n8 -->
<g id="node8" class="node">
<title>n8</title>
<path fill="palegreen" stroke="black" d="M964,-158C964,-158 728,-158 728,-158 722,-158 716,-152 716,-146 716,-146 716,-134 716,-134 716,-128 722,-122 728,-122 728,-122 964,-122 964,-122 970,-122 976,-128 976,-134 976,-134 976,-146 976,-146 976,-152 970,-158 964,-158"/>
<text text-anchor="middle" x="846" y="-136.3" font-family="Arial" font-size="14.00">Correct understanding: Birds live in trees</text>
</g>
<!-- n3&#45;&gt;n8 -->
<g id="edge7" class="edge">
<title>n3&#45;&gt;n8</title>
<path fill="none" stroke="black" d="M687.51,-243.81C719.93,-222.78 774.92,-187.11 810.84,-163.8"/>
<polygon fill="black" stroke="black" points="813.05,-166.54 819.54,-158.16 809.25,-160.66 813.05,-166.54"/>
</g>
<!-- n9 -->
<g id="node9" class="node">
<title>n9</title>
<path fill="palegreen" stroke="black" d="M1327.5,-158C1327.5,-158 1046.5,-158 1046.5,-158 1040.5,-158 1034.5,-152 1034.5,-146 1034.5,-146 1034.5,-134 1034.5,-134 1034.5,-128 1040.5,-122 1046.5,-122 1046.5,-122 1327.5,-122 1327.5,-122 1333.5,-122 1339.5,-128 1339.5,-134 1339.5,-134 1339.5,-146 1339.5,-146 1339.5,-152 1333.5,-158 1327.5,-158"/>
<text text-anchor="middle" x="1187" y="-136.3" font-family="Arial" font-size="14.00">Correct understanding: Snakes live in the desert</text>
</g>
<!-- n4&#45;&gt;n9 -->
<g id="edge8" class="edge">
<title>n4&#45;&gt;n9</title>
<path fill="none" stroke="black" d="M1187,-243.81C1187,-224.11 1187,-191.58 1187,-168.39"/>
<polygon fill="black" stroke="black" points="1190.5,-168.16 1187,-158.16 1183.5,-168.16 1190.5,-168.16"/>
</g>
<!-- n10 -->
<g id="node10" class="node">
<title>n10</title>
<polygon fill="lightcoral" stroke="black" points="1778,-158 1397.44,-140 1778,-122 2158.56,-140 1778,-158"/>
<text text-anchor="middle" x="1778" y="-136.3" font-family="Arial" font-size="14.00">Misunderstanding: Sun affects all habitats but not labeled in ocean</text>
</g>
<!-- n5&#45;&gt;n10 -->
<g id="edge9" class="edge">
<title>n5&#45;&gt;n10</title>
<path fill="none" stroke="black" d="M1714.6,-243.81C1727.1,-223.55 1748,-189.72 1762.3,-166.43"/>
<polygon fill="black" stroke="black" points="1765.38,-168.11 1767.7,-157.77 1759.44,-164.4 1765.38,-168.11"/>
</g>
<!-- n11 -->
<g id="node11" class="node">
<title>n11</title>
<polygon fill="#f28e8e" stroke="black" points="1960,-36 1596,-36 1596,0 1960,0 1960,-36"/>
<text text-anchor="middle" x="1778" y="-14.3" font-family="Arial" font-size="14.00">Feedback: Label sun and explain its role in ocean habitats</text>
</g>
<!-- n10&#45;&gt;n11 -->
<g id="edge10" class="edge">
<title>n10&#45;&gt;n11</title>
<path fill="none" stroke="black" d="M1778,-121.81C1778,-102.11 1778,-69.58 1778,-46.39"/>
<polygon fill="black" stroke="black" points="1781.5,-46.16 1778,-36.16 1774.5,-46.16 1781.5,-46.16"/>
</g>
</g>
</svg>
