<?xml version="1.0" encoding="UTF-8" standalone="no"?>
<!DOCTYPE svg PUBLIC "-//W3C//DTD SVG 1.1//EN"
 "http://www.w3.org/Graphics/SVG/1.1/DTD/svg11.dtd">
<!-- Generated by graphviz version 2.43.0 (0)
 -->
<!-- Pages: 1 -->
<svg width="1796pt" height="410pt"
 viewBox="0.00 0.00 1796.14 410.00" xmlns="http://www.w3.org/2000/svg" xmlns:xlink="http://www.w3.org/1999/xlink">
<g id="graph0" class="graph" transform="scale(1 1) rotate(0) translate(4 406)">
<polygon fill="white" stroke="transparent" points="-4,4 -4,-406 1792.14,-406 1792.14,4 -4,4"/>
<!-- n1 -->
<g id="node1" class="node">
<title>n1</title>
<polygon fill="lightblue" stroke="black" points="1032,-384 942.25,-402 762.75,-402 673,-384 762.75,-366 942.25,-366 1032,-384"/>
<text text-anchor="middle" x="852.5" y="-380.3" font-family="Arial" font-size="14.00">Draw a fish in their habitat with labels</text>
</g>
<!-- n2 -->
<g id="node2" class="node">
<title>n2</title>
<polygon fill="#fffdd0" stroke="black" points="269.5,-280 69.5,-280 69.5,-244 269.5,-244 269.5,-280"/>
<text text-anchor="middle" x="169.5" y="-258.3" font-family="Arial" font-size="14.00">Drawing of a fish labeled &#39;Fish&#39;</text>
</g>
<!-- n1&#45;&gt;n2 -->
<g id="edge1" class="edge">
<title>n1&#45;&gt;n2</title>
<path fill="none" stroke="black" d="M759.32,-366.63C633.38,-344.5 409.34,-305.14 276.61,-281.82"/>
<polygon fill="black" stroke="black" points="276.87,-278.31 266.42,-280.03 275.66,-285.21 276.87,-278.31"/>
</g>
<!-- n3 -->
<g id="node3" class="node">
<title>n3</title>
<polygon fill="#fffdd0" stroke="black" points="621,-280 352,-280 352,-244 621,-244 621,-280"/>
<text text-anchor="middle" x="486.5" y="-258.3" font-family="Arial" font-size="14.00">Drawing of wavy blue lines labeled &#39;Water&#39;</text>
</g>
<!-- n1&#45;&gt;n3 -->
<g id="edge2" class="edge">
<title>n1&#45;&gt;n3</title>
<path fill="none" stroke="black" d="M800.45,-365.93C733.91,-344.12 618.87,-306.4 548.06,-283.18"/>
<polygon fill="black" stroke="black" points="548.96,-279.79 538.37,-280.01 546.79,-286.45 548.96,-279.79"/>
</g>
<!-- n4 -->
<g id="node4" class="node">
<title>n4</title>
<polygon fill="#fffdd0" stroke="black" points="1015,-280 690,-280 690,-244 1015,-244 1015,-280"/>
<text text-anchor="middle" x="852.5" y="-258.3" font-family="Arial" font-size="14.00">Drawing of green underwater plants labeled &#39;Plants&#39;</text>
</g>
<!-- n1&#45;&gt;n4 -->
<g id="edge3" class="edge">
<title>n1&#45;&gt;n4</title>
<path fill="none" stroke="black" d="M852.5,-365.81C852.5,-346.11 852.5,-313.58 852.5,-290.39"/>
<polygon fill="black" stroke="black" points="856,-290.16 852.5,-280.16 849,-290.16 856,-290.16"/>
</g>
<!-- n5 -->
<g id="node5" class="node">
<title>n5</title>
<polygon fill="#fffdd0" stroke="black" points="1309,-280 1100,-280 1100,-244 1309,-244 1309,-280"/>
<text text-anchor="middle" x="1204.5" y="-258.3" font-family="Arial" font-size="14.00">Drawing of a crab labeled &#39;Crab&#39;</text>
</g>
<!-- n1&#45;&gt;n5 -->
<g id="edge4" class="edge">
<title>n1&#45;&gt;n5</title>
<path fill="none" stroke="black" d="M902.56,-365.93C966.42,-344.16 1076.7,-306.56 1144.9,-283.33"/>
<polygon fill="black" stroke="black" points="1146.27,-286.56 1154.6,-280.01 1144.01,-279.94 1146.27,-286.56"/>
</g>
<!-- n6 -->
<g id="node6" class="node">
<title>n6</title>
<polygon fill="#fffdd0" stroke="black" points="1677,-280 1428,-280 1428,-244 1677,-244 1677,-280"/>
<text text-anchor="middle" x="1552.5" y="-258.3" font-family="Arial" font-size="14.00">Rocks drawn at the bottom (unlabeled)</text>
</g>
<!-- n1&#45;&gt;n6 -->
<g id="edge5" class="edge">
<title>n1&#45;&gt;n6</title>
<path fill="none" stroke="black" d="M946.54,-366.88C1075.5,-344.77 1306.7,-305.13 1443.2,-281.73"/>
<polygon fill="black" stroke="black" points="1444.03,-285.14 1453.3,-280.01 1442.85,-278.24 1444.03,-285.14"/>
</g>
<!-- n7 -->
<g id="node7" class="node">
<title>n7</title>
<path fill="palegreen" stroke="black" d="M257,-158C257,-158 12,-158 12,-158 6,-158 0,-152 0,-146 0,-146 0,-134 0,-134 0,-128 6,-122 12,-122 12,-122 257,-122 257,-122 263,-122 269,-128 269,-134 269,-134 269,-146 269,-146 269,-152 263,-158 257,-158"/>
<text text-anchor="middle" x="134.5" y="-136.3" font-family="Arial" font-size="14.00">Fish is part of a natural water environment</text>
</g>
<!-- n2&#45;&gt;n7 -->
<g id="edge6" class="edge">
<title>n2&#45;&gt;n7</title>
<path fill="none" stroke="black" d="M164.49,-243.81C158.69,-223.94 149.08,-190.99 142.31,-167.76"/>
<polygon fill="black" stroke="black" points="145.67,-166.78 139.51,-158.16 138.95,-168.74 145.67,-166.78"/>
</g>
<!-- n8 -->
<g id="node8" class="node">
<title>n8</title>
<path fill="palegreen" stroke="black" d="M611.5,-158C611.5,-158 339.5,-158 339.5,-158 333.5,-158 327.5,-152 327.5,-146 327.5,-146 327.5,-134 327.5,-134 327.5,-128 333.5,-122 339.5,-122 339.5,-122 611.5,-122 611.5,-122 617.5,-122 623.5,-128 623.5,-134 623.5,-134 623.5,-146 623.5,-146 623.5,-152 617.5,-158 611.5,-158"/>
<text text-anchor="middle" x="475.5" y="-136.3" font-family="Arial" font-size="14.00">Water represents habitat; key for fish&#39;s survival</text>
</g>
<!-- n3&#45;&gt;n8 -->
<g id="edge7" class="edge">
<title>n3&#45;&gt;n8</title>
<path fill="none" stroke="black" d="M484.92,-243.81C483.12,-224.11 480.14,-191.58 478.01,-168.39"/>
<polygon fill="black" stroke="black" points="481.47,-167.8 477.07,-158.16 474.5,-168.44 481.47,-167.8"/>
</g>
<!-- n9 -->
<g id="node9" class="node">
<title>n9</title>
<path fill="palegreen" stroke="black" d="M1011.5,-158C1011.5,-158 693.5,-158 693.5,-158 687.5,-158 681.5,-152 681.5,-146 681.5,-146 681.5,-134 681.5,-134 681.5,-128 687.5,-122 693.5,-122 693.5,-122 1011.5,-122 1011.5,-122 1017.5,-122 1023.5,-128 1023.5,-134 1023.5,-134 1023.5,-146 1023.5,-146 1023.5,-152 1017.5,-158 1011.5,-158"/>
<text text-anchor="middle" x="852.5" y="-136.3" font-family="Arial" font-size="14.00">Plants illustrate fish&#39;s environment; offer hiding spaces</text>
</g>
<!-- n4&#45;&gt;n9 -->
<g id="edge8" class="edge">
<title>n4&#45;&gt;n9</title>
<path fill="none" stroke="black" d="M852.5,-243.81C852.5,-224.11 852.5,-191.58 852.5,-168.39"/>
<polygon fill="black" stroke="black" points="856,-168.16 852.5,-158.16 849,-168.16 856,-168.16"/>
</g>
<!-- n10 -->
<g id="node10" class="node">
<title>n10</title>
<path fill="palegreen" stroke="black" d="M1369,-158C1369,-158 1094,-158 1094,-158 1088,-158 1082,-152 1082,-146 1082,-146 1082,-134 1082,-134 1082,-128 1088,-122 1094,-122 1094,-122 1369,-122 1369,-122 1375,-122 1381,-128 1381,-134 1381,-134 1381,-146 1381,-146 1381,-152 1375,-158 1369,-158"/>
<text text-anchor="middle" x="1231.5" y="-136.3" font-family="Arial" font-size="14.00">Crab demonstrates other living things in habitat</text>
</g>
<!-- n5&#45;&gt;n10 -->
<g id="edge9" class="edge">
<title>n5&#45;&gt;n10</title>
<path fill="none" stroke="black" d="M1208.4,-243.81C1212.8,-224.02 1220.2,-191.29 1225.4,-168.08"/>
<polygon fill="black" stroke="black" points="1228.85,-168.68 1227.6,-158.16 1222.02,-167.16 1228.85,-168.68"/>
</g>
<!-- n11 -->
<g id="node11" class="node">
<title>n11</title>
<polygon fill="lightcoral" stroke="black" points="1613.5,-158 1438.72,-140 1613.5,-122 1788.28,-140 1613.5,-158"/>
<text text-anchor="middle" x="1613.5" y="-136.3" font-family="Arial" font-size="14.00">Inconsistent labeling of rocks</text>
</g>
<!-- n6&#45;&gt;n11 -->
<g id="edge10" class="edge">
<title>n6&#45;&gt;n11</title>
<path fill="none" stroke="black" d="M1561.2,-243.81C1571.5,-223.53 1588.8,-189.64 1600.6,-166.35"/>
<polygon fill="black" stroke="black" points="1603.75,-167.88 1605.2,-157.39 1597.52,-164.69 1603.75,-167.88"/>
</g>
<!-- n12 -->
<g id="node12" class="node">
<title>n12</title>
<polygon fill="#f28e8e" stroke="black" points="1770,-36 1457,-36 1457,0 1770,0 1770,-36"/>
<text text-anchor="middle" x="1613.5" y="-14.3" font-family="Arial" font-size="14.00">Consider labeling all major components for clarity</text>
</g>
<!-- n11&#45;&gt;n12 -->
<g id="edge11" class="edge">
<title>n11&#45;&gt;n12</title>
<path fill="none" stroke="black" d="M1613.5,-121.81C1613.5,-102.11 1613.5,-69.58 1613.5,-46.39"/>
<polygon fill="black" stroke="black" points="1617,-46.16 1613.5,-36.16 1610,-46.16 1617,-46.16"/>
</g>
</g>
</svg>
