<?xml version="1.0" encoding="UTF-8" standalone="no"?>
<!DOCTYPE svg PUBLIC "-//W3C//DTD SVG 1.1//EN"
 "http://www.w3.org/Graphics/SVG/1.1/DTD/svg11.dtd">
<!-- Generated by graphviz version 2.43.0 (0)
 -->
<!-- Pages: 1 -->
<svg width="1652pt" height="410pt"
 viewBox="0.00 0.00 1651.69 410.00" xmlns="http://www.w3.org/2000/svg" xmlns:xlink="http://www.w3.org/1999/xlink">
<g id="graph0" class="graph" transform="scale(1 1) rotate(0) translate(4 406)">
<polygon fill="white" stroke="transparent" points="-4,4 -4,-406 1647.69,-406 1647.69,4 -4,4"/>
<!-- n1 -->
<g id="node1" class="node">
<title>n1</title>
<polygon fill="lightblue" stroke="black" points="770,-384 678.75,-402 496.25,-402 405,-384 496.25,-366 678.75,-366 770,-384"/>
<text text-anchor="middle" x="587.5" y="-380.3" font-family="Arial" font-size="14.00">Draw a fish in their habitat with labels.</text>
</g>
<!-- n2 -->
<g id="node2" class="node">
<title>n2</title>
<polygon fill="#fffdd0" stroke="black" points="210.5,-280 46.5,-280 46.5,-244 210.5,-244 210.5,-280"/>
<text text-anchor="middle" x="128.5" y="-258.3" font-family="Arial" font-size="14.00">Lake with fish swimming</text>
</g>
<!-- n1&#45;&gt;n2 -->
<g id="edge1" class="edge">
<title>n1&#45;&gt;n2</title>
<path fill="none" stroke="black" d="M522.22,-365.93C438.01,-343.92 291.85,-305.71 203.26,-282.55"/>
<polygon fill="black" stroke="black" points="204.11,-279.15 193.55,-280.01 202.34,-285.93 204.11,-279.15"/>
</g>
<!-- n3 -->
<g id="node3" class="node">
<title>n3</title>
<polygon fill="#fffdd0" stroke="black" points="452,-280 351,-280 351,-244 452,-244 452,-280"/>
<text text-anchor="middle" x="401.5" y="-258.3" font-family="Arial" font-size="14.00">Water is wavy</text>
</g>
<!-- n1&#45;&gt;n3 -->
<g id="edge2" class="edge">
<title>n1&#45;&gt;n3</title>
<path fill="none" stroke="black" d="M560.85,-365.81C528.25,-344.78 472.97,-309.11 436.85,-285.8"/>
<polygon fill="black" stroke="black" points="438.4,-282.64 428.1,-280.16 434.61,-288.52 438.4,-282.64"/>
</g>
<!-- n4 -->
<g id="node4" class="node">
<title>n4</title>
<polygon fill="#fffdd0" stroke="black" points="624,-280 551,-280 551,-244 624,-244 624,-280"/>
<text text-anchor="middle" x="587.5" y="-258.3" font-family="Arial" font-size="14.00">Seaweed</text>
</g>
<!-- n1&#45;&gt;n4 -->
<g id="edge3" class="edge">
<title>n1&#45;&gt;n4</title>
<path fill="none" stroke="black" d="M587.5,-365.81C587.5,-346.11 587.5,-313.58 587.5,-290.39"/>
<polygon fill="black" stroke="black" points="591,-290.16 587.5,-280.16 584,-290.16 591,-290.16"/>
</g>
<!-- n5 -->
<g id="node5" class="node">
<title>n5</title>
<polygon fill="#fffdd0" stroke="black" points="858,-280 731,-280 731,-244 858,-244 858,-280"/>
<text text-anchor="middle" x="794.5" y="-258.3" font-family="Arial" font-size="14.00">Smaller fish (food)</text>
</g>
<!-- n1&#45;&gt;n5 -->
<g id="edge4" class="edge">
<title>n1&#45;&gt;n5</title>
<path fill="none" stroke="black" d="M617.16,-365.81C653.74,-344.6 716.01,-308.5 756.18,-285.21"/>
<polygon fill="black" stroke="black" points="758,-288.2 764.9,-280.16 754.49,-282.14 758,-288.2"/>
</g>
<!-- n6 -->
<g id="node6" class="node">
<title>n6</title>
<polygon fill="#fffdd0" stroke="black" points="1144.5,-280 964.5,-280 964.5,-244 1144.5,-244 1144.5,-280"/>
<text text-anchor="middle" x="1054.5" y="-258.3" font-family="Arial" font-size="14.00">Arrows showing movement</text>
</g>
<!-- n1&#45;&gt;n6 -->
<g id="edge5" class="edge">
<title>n1&#45;&gt;n6</title>
<path fill="none" stroke="black" d="M653.91,-365.93C739.59,-343.92 888.3,-305.71 978.43,-282.55"/>
<polygon fill="black" stroke="black" points="979.5,-285.89 988.32,-280.01 977.76,-279.11 979.5,-285.89"/>
</g>
<!-- n7 -->
<g id="node7" class="node">
<title>n7</title>
<path fill="palegreen" stroke="black" d="M163,-158C163,-158 12,-158 12,-158 6,-158 0,-152 0,-146 0,-146 0,-134 0,-134 0,-128 6,-122 12,-122 12,-122 163,-122 163,-122 169,-122 175,-128 175,-134 175,-134 175,-146 175,-146 175,-152 169,-158 163,-158"/>
<text text-anchor="middle" x="87.5" y="-136.3" font-family="Arial" font-size="14.00">Fish habitat includes lakes</text>
</g>
<!-- n2&#45;&gt;n7 -->
<g id="edge6" class="edge">
<title>n2&#45;&gt;n7</title>
<path fill="none" stroke="black" d="M122.63,-243.81C115.84,-223.94 104.58,-190.99 96.64,-167.76"/>
<polygon fill="black" stroke="black" points="99.91,-166.49 93.36,-158.16 93.29,-168.75 99.91,-166.49"/>
</g>
<!-- n8 -->
<g id="node8" class="node">
<title>n8</title>
<path fill="palegreen" stroke="black" d="M391.5,-158C391.5,-158 245.5,-158 245.5,-158 239.5,-158 233.5,-152 233.5,-146 233.5,-146 233.5,-134 233.5,-134 233.5,-128 239.5,-122 245.5,-122 245.5,-122 391.5,-122 391.5,-122 397.5,-122 403.5,-128 403.5,-134 403.5,-134 403.5,-146 403.5,-146 403.5,-152 397.5,-158 391.5,-158"/>
<text text-anchor="middle" x="318.5" y="-136.3" font-family="Arial" font-size="14.00">Fish needs water to swim</text>
</g>
<!-- n3&#45;&gt;n8 -->
<g id="edge7" class="edge">
<title>n3&#45;&gt;n8</title>
<path fill="none" stroke="black" d="M389.61,-243.81C375.62,-223.58 352.26,-189.81 336.15,-166.52"/>
<polygon fill="black" stroke="black" points="338.94,-164.4 330.37,-158.16 333.18,-168.38 338.94,-164.4"/>
</g>
<!-- n9 -->
<g id="node9" class="node">
<title>n9</title>
<path fill="palegreen" stroke="black" d="M701,-158C701,-158 474,-158 474,-158 468,-158 462,-152 462,-146 462,-146 462,-134 462,-134 462,-128 468,-122 474,-122 474,-122 701,-122 701,-122 707,-122 713,-128 713,-134 713,-134 713,-146 713,-146 713,-152 707,-158 701,-158"/>
<text text-anchor="middle" x="587.5" y="-136.3" font-family="Arial" font-size="14.00">Plants such as seaweed are in habitats</text>
</g>
<!-- n4&#45;&gt;n9 -->
<g id="edge8" class="edge">
<title>n4&#45;&gt;n9</title>
<path fill="none" stroke="black" d="M587.5,-243.81C587.5,-224.11 587.5,-191.58 587.5,-168.39"/>
<polygon fill="black" stroke="black" points="591,-168.16 587.5,-158.16 584,-168.16 591,-168.16"/>
</g>
<!-- n10 -->
<g id="node10" class="node">
<title>n10</title>
<path fill="palegreen" stroke="black" d="M903.5,-158C903.5,-158 783.5,-158 783.5,-158 777.5,-158 771.5,-152 771.5,-146 771.5,-146 771.5,-134 771.5,-134 771.5,-128 777.5,-122 783.5,-122 783.5,-122 903.5,-122 903.5,-122 909.5,-122 915.5,-128 915.5,-134 915.5,-134 915.5,-146 915.5,-146 915.5,-152 909.5,-158 903.5,-158"/>
<text text-anchor="middle" x="843.5" y="-136.3" font-family="Arial" font-size="14.00">Fish eats smaller fish</text>
</g>
<!-- n5&#45;&gt;n10 -->
<g id="edge9" class="edge">
<title>n5&#45;&gt;n10</title>
<path fill="none" stroke="black" d="M801.52,-243.81C809.67,-223.85 823.21,-190.7 832.7,-167.45"/>
<polygon fill="black" stroke="black" points="835.95,-168.74 836.49,-158.16 829.47,-166.1 835.95,-168.74"/>
</g>
<!-- n11 -->
<g id="node11" class="node">
<title>n11</title>
<path fill="palegreen" stroke="black" d="M1123,-158C1123,-158 986,-158 986,-158 980,-158 974,-152 974,-146 974,-146 974,-134 974,-134 974,-128 980,-122 986,-122 986,-122 1123,-122 1123,-122 1129,-122 1135,-128 1135,-134 1135,-134 1135,-146 1135,-146 1135,-152 1129,-158 1123,-158"/>
<text text-anchor="middle" x="1054.5" y="-136.3" font-family="Arial" font-size="14.00">Fish movement in water</text>
</g>
<!-- n6&#45;&gt;n11 -->
<g id="edge10" class="edge">
<title>n6&#45;&gt;n11</title>
<path fill="none" stroke="black" d="M1054.5,-243.81C1054.5,-224.11 1054.5,-191.58 1054.5,-168.39"/>
<polygon fill="black" stroke="black" points="1058,-168.16 1054.5,-158.16 1051,-168.16 1058,-168.16"/>
</g>
<!-- n12 -->
<g id="node12" class="node">
<title>n12</title>
<polygon fill="lightcoral" stroke="black" points="1418.5,-158 1193.11,-140 1418.5,-122 1643.89,-140 1418.5,-158"/>
<text text-anchor="middle" x="1418.5" y="-136.3" font-family="Arial" font-size="14.00">Lacks detailed ecosystem interactions</text>
</g>
<!-- n6&#45;&gt;n12 -->
<g id="edge11" class="edge">
<title>n6&#45;&gt;n12</title>
<path fill="none" stroke="black" d="M1106.3,-243.93C1175.6,-221.08 1297.8,-180.79 1367,-157.98"/>
<polygon fill="black" stroke="black" points="1368.4,-161.2 1376.8,-154.75 1366.21,-154.56 1368.4,-161.2"/>
</g>
<!-- n13 -->
<g id="node13" class="node">
<title>n13</title>
<polygon fill="#f28e8e" stroke="black" points="1543,-36 1294,-36 1294,0 1543,0 1543,-36"/>
<text text-anchor="middle" x="1418.5" y="-14.3" font-family="Arial" font-size="14.00">Include elements like oxygen in habitat</text>
</g>
<!-- n12&#45;&gt;n13 -->
<g id="edge12" class="edge">
<title>n12&#45;&gt;n13</title>
<path fill="none" stroke="black" d="M1418.5,-121.81C1418.5,-102.11 1418.5,-69.58 1418.5,-46.39"/>
<polygon fill="black" stroke="black" points="1422,-46.16 1418.5,-36.16 1415,-46.16 1422,-46.16"/>
</g>
</g>
</svg>
