<?xml version="1.0" encoding="UTF-8" standalone="no"?>
<!DOCTYPE svg PUBLIC "-//W3C//DTD SVG 1.1//EN"
 "http://www.w3.org/Graphics/SVG/1.1/DTD/svg11.dtd">
<!-- Generated by graphviz version 2.43.0 (0)
 -->
<!-- Pages: 1 -->
<svg width="2253pt" height="410pt"
 viewBox="0.00 0.00 2253.20 410.00" xmlns="http://www.w3.org/2000/svg" xmlns:xlink="http://www.w3.org/1999/xlink">
<g id="graph0" class="graph" transform="scale(1 1) rotate(0) translate(4 406)">
<polygon fill="white" stroke="transparent" points="-4,4 -4,-406 2249.2,-406 2249.2,4 -4,4"/>
<!-- n1 -->
<g id="node1" class="node">
<title>n1</title>
<polygon fill="lightblue" stroke="black" points="1222.05,-384 1080.86,-402 798.49,-402 657.31,-384 798.49,-366 1080.86,-366 1222.05,-384"/>
<text text-anchor="middle" x="939.68" y="-380.3" font-family="Arial" font-size="14.00">Draw animals in their habitats with labels (e.g., fish in water)</text>
</g>
<!-- n2 -->
<g id="node2" class="node">
<title>n2</title>
<polygon fill="#fffdd0" stroke="black" points="673.68,-280 419.68,-280 419.68,-244 673.68,-244 673.68,-280"/>
<text text-anchor="middle" x="546.68" y="-258.3" font-family="Arial" font-size="14.00">Basic oval shape with pointed tail (Fish)</text>
</g>
<!-- n1&#45;&gt;n2 -->
<g id="edge1" class="edge">
<title>n1&#45;&gt;n2</title>
<path fill="none" stroke="black" d="M883.79,-365.93C812.2,-344.07 688.31,-306.25 612.31,-283.04"/>
<polygon fill="black" stroke="black" points="612.96,-279.58 602.38,-280.01 610.92,-286.28 612.96,-279.58"/>
</g>
<!-- n3 -->
<g id="node3" class="node">
<title>n3</title>
<polygon fill="#fffdd0" stroke="black" points="1033.18,-280 846.18,-280 846.18,-244 1033.18,-244 1033.18,-280"/>
<text text-anchor="middle" x="939.68" y="-258.3" font-family="Arial" font-size="14.00">Wavy, squiggly lines (Water)</text>
</g>
<!-- n1&#45;&gt;n3 -->
<g id="edge2" class="edge">
<title>n1&#45;&gt;n3</title>
<path fill="none" stroke="black" d="M939.68,-365.81C939.68,-346.11 939.68,-313.58 939.68,-290.39"/>
<polygon fill="black" stroke="black" points="943.18,-290.16 939.68,-280.16 936.18,-290.16 943.18,-290.16"/>
</g>
<!-- n4 -->
<g id="node4" class="node">
<title>n4</title>
<polygon fill="#fffdd0" stroke="black" points="1711.2,-280 1518.2,-280 1518.2,-244 1711.2,-244 1711.2,-280"/>
<text text-anchor="middle" x="1614.7" y="-258.3" font-family="Arial" font-size="14.00">Patches of bright green grass</text>
</g>
<!-- n1&#45;&gt;n4 -->
<g id="edge3" class="edge">
<title>n1&#45;&gt;n4</title>
<path fill="none" stroke="black" d="M1035.3,-366C1160.4,-343.75 1379,-304.9 1508.9,-281.8"/>
<polygon fill="black" stroke="black" points="1509.66,-285.22 1518.9,-280.03 1508.44,-278.33 1509.66,-285.22"/>
</g>
<!-- n5 -->
<g id="node5" class="node">
<title>n5</title>
<polygon fill="lightcoral" stroke="black" points="219.68,-158 -0.18,-140 219.68,-122 439.54,-140 219.68,-158"/>
<text text-anchor="middle" x="219.68" y="-136.3" font-family="Arial" font-size="14.00">Labeled &#39;Fish&#39; nearby with no context</text>
</g>
<!-- n2&#45;&gt;n5 -->
<g id="edge4" class="edge">
<title>n2&#45;&gt;n5</title>
<path fill="none" stroke="black" d="M500.17,-243.93C438.41,-221.27 329.88,-181.44 267.48,-158.54"/>
<polygon fill="black" stroke="black" points="268.46,-155.17 257.87,-155.02 266.05,-161.75 268.46,-155.17"/>
</g>
<!-- n6 -->
<g id="node6" class="node">
<title>n6</title>
<polygon fill="lightcoral" stroke="black" points="726.68,-158 497.68,-140 726.68,-122 955.68,-140 726.68,-158"/>
<text text-anchor="middle" x="726.68" y="-136.3" font-family="Arial" font-size="14.00">Labeled &#39;Water&#39; nearby with no context</text>
</g>
<!-- n3&#45;&gt;n6 -->
<g id="edge5" class="edge">
<title>n3&#45;&gt;n6</title>
<path fill="none" stroke="black" d="M909.16,-243.81C870.34,-221.94 803.41,-184.23 762.3,-161.07"/>
<polygon fill="black" stroke="black" points="763.87,-157.94 753.44,-156.08 760.43,-164.04 763.87,-157.94"/>
</g>
<!-- n7 -->
<g id="node7" class="node">
<title>n7</title>
<path fill="palegreen" stroke="black" d="M1342.2,-158C1342.2,-158 1025.2,-158 1025.2,-158 1019.2,-158 1013.2,-152 1013.2,-146 1013.2,-146 1013.2,-134 1013.2,-134 1013.2,-128 1019.2,-122 1025.2,-122 1025.2,-122 1342.2,-122 1342.2,-122 1348.2,-122 1354.2,-128 1354.2,-134 1354.2,-134 1354.2,-146 1354.2,-146 1354.2,-152 1348.2,-158 1342.2,-158"/>
<text text-anchor="middle" x="1183.7" y="-136.3" font-family="Arial" font-size="14.00">Correct: Student identifies fish, attempts to draw water</text>
</g>
<!-- n3&#45;&gt;n7 -->
<g id="edge6" class="edge">
<title>n3&#45;&gt;n7</title>
<path fill="none" stroke="black" d="M974.38,-243.93C1017.9,-222.52 1092.6,-185.78 1140,-162.48"/>
<polygon fill="black" stroke="black" points="1141.67,-165.56 1149.1,-158.01 1138.58,-159.28 1141.67,-165.56"/>
</g>
<!-- n8 -->
<g id="node8" class="node">
<title>n8</title>
<polygon fill="lightcoral" stroke="black" points="1828.7,-158 1412.2,-140 1828.7,-122 2245.2,-140 1828.7,-158"/>
<text text-anchor="middle" x="1828.7" y="-136.3" font-family="Arial" font-size="14.00">Mispositioned and random grass patches unrelated to the habitat context</text>
</g>
<!-- n4&#45;&gt;n8 -->
<g id="edge7" class="edge">
<title>n4&#45;&gt;n8</title>
<path fill="none" stroke="black" d="M1645.3,-243.81C1683.9,-222.18 1750.1,-185.06 1791.5,-161.84"/>
<polygon fill="black" stroke="black" points="1793.47,-164.75 1800.5,-156.82 1790.06,-158.63 1793.47,-164.75"/>
</g>
<!-- n9 -->
<g id="node9" class="node">
<title>n9</title>
<polygon fill="#f28e8e" stroke="black" points="423.18,-36 16.18,-36 16.18,0 423.18,0 423.18,-36"/>
<text text-anchor="middle" x="219.68" y="-14.3" font-family="Arial" font-size="14.00">Add labels clearly associating each element with its environment.</text>
</g>
<!-- n5&#45;&gt;n9 -->
<g id="edge8" class="edge">
<title>n5&#45;&gt;n9</title>
<path fill="none" stroke="black" d="M219.68,-121.81C219.68,-102.11 219.68,-69.58 219.68,-46.39"/>
<polygon fill="black" stroke="black" points="223.18,-46.16 219.68,-36.16 216.18,-46.16 223.18,-46.16"/>
</g>
<!-- n10 -->
<g id="node10" class="node">
<title>n10</title>
<polygon fill="#f28e8e" stroke="black" points="889.18,-36 564.18,-36 564.18,0 889.18,0 889.18,-36"/>
<text text-anchor="middle" x="726.68" y="-14.3" font-family="Arial" font-size="14.00">Explain surroundings: link fish to water contextually.</text>
</g>
<!-- n6&#45;&gt;n10 -->
<g id="edge9" class="edge">
<title>n6&#45;&gt;n10</title>
<path fill="none" stroke="black" d="M726.68,-121.81C726.68,-102.11 726.68,-69.58 726.68,-46.39"/>
<polygon fill="black" stroke="black" points="730.18,-46.16 726.68,-36.16 723.18,-46.16 730.18,-46.16"/>
</g>
<!-- n11 -->
<g id="node11" class="node">
<title>n11</title>
<polygon fill="#f28e8e" stroke="black" points="2008.7,-36 1648.7,-36 1648.7,0 2008.7,0 2008.7,-36"/>
<text text-anchor="middle" x="1828.7" y="-14.3" font-family="Arial" font-size="14.00">Clarify habitat connections by illustrating coherent scenes</text>
</g>
<!-- n8&#45;&gt;n11 -->
<g id="edge10" class="edge">
<title>n8&#45;&gt;n11</title>
<path fill="none" stroke="black" d="M1828.7,-121.81C1828.7,-102.11 1828.7,-69.58 1828.7,-46.39"/>
<polygon fill="black" stroke="black" points="1832.2,-46.16 1828.7,-36.16 1825.2,-46.16 1832.2,-46.16"/>
</g>
</g>
</svg>
