<?xml version="1.0" encoding="UTF-8" standalone="no"?>
<!DOCTYPE svg PUBLIC "-//W3C//DTD SVG 1.1//EN"
 "http://www.w3.org/Graphics/SVG/1.1/DTD/svg11.dtd">
<!-- Generated by graphviz version 2.43.0 (0)
 -->
<!-- Pages: 1 -->
<svg width="1815pt" height="410pt"
 viewBox="0.00 0.00 1814.57 410.00" xmlns="http://www.w3.org/2000/svg" xmlns:xlink="http://www.w3.org/1999/xlink">
<g id="graph0" class="graph" transform="scale(1 1) rotate(0) translate(4 406)">
<polygon fill="white" stroke="transparent" points="-4,4 -4,-406 1810.57,-406 1810.57,4 -4,4"/>
<!-- n1 -->
<g id="node1" class="node">
<title>n1</title>
<polygon fill="lightblue" stroke="black" points="956,-384 864.75,-402 682.25,-402 591,-384 682.25,-366 864.75,-366 956,-384"/>
<text text-anchor="middle" x="773.5" y="-380.3" font-family="Arial" font-size="14.00">Draw a fish in their habitat with labels.</text>
</g>
<!-- n2 -->
<g id="node2" class="node">
<title>n2</title>
<polygon fill="#fffdd0" stroke="black" points="412.5,-280 228.5,-280 228.5,-244 412.5,-244 412.5,-280"/>
<text text-anchor="middle" x="320.5" y="-258.3" font-family="Arial" font-size="14.00">Simple fish labeled as &#39;Fish&#39;</text>
</g>
<!-- n1&#45;&gt;n2 -->
<g id="edge1" class="edge">
<title>n1&#45;&gt;n2</title>
<path fill="none" stroke="black" d="M709.08,-365.93C626.05,-343.94 482.01,-305.78 394.55,-282.62"/>
<polygon fill="black" stroke="black" points="395.26,-279.19 384.7,-280.01 393.47,-285.95 395.26,-279.19"/>
</g>
<!-- n3 -->
<g id="node3" class="node">
<title>n3</title>
<polygon fill="#fffdd0" stroke="black" points="709.5,-280 475.5,-280 475.5,-244 709.5,-244 709.5,-280"/>
<text text-anchor="middle" x="592.5" y="-258.3" font-family="Arial" font-size="14.00">Aquatic environment with blue water</text>
</g>
<!-- n1&#45;&gt;n3 -->
<g id="edge2" class="edge">
<title>n1&#45;&gt;n3</title>
<path fill="none" stroke="black" d="M747.57,-365.81C715.85,-344.78 662.05,-309.11 626.89,-285.8"/>
<polygon fill="black" stroke="black" points="628.65,-282.77 618.38,-280.16 624.78,-288.6 628.65,-282.77"/>
</g>
<!-- n4 -->
<g id="node4" class="node">
<title>n4</title>
<polygon fill="#fffdd0" stroke="black" points="1145.5,-280 769.5,-280 769.5,-244 1145.5,-244 1145.5,-280"/>
<text text-anchor="middle" x="957.5" y="-258.3" font-family="Arial" font-size="14.00">Drawing of plants, possibly seaweed, attempted label &#39;Plant&#39;</text>
</g>
<!-- n1&#45;&gt;n4 -->
<g id="edge3" class="edge">
<title>n1&#45;&gt;n4</title>
<path fill="none" stroke="black" d="M799.86,-365.81C832.11,-344.78 886.8,-309.11 922.54,-285.8"/>
<polygon fill="black" stroke="black" points="924.72,-288.55 931.19,-280.16 920.9,-282.69 924.72,-288.55"/>
</g>
<!-- n5 -->
<g id="node5" class="node">
<title>n5</title>
<polygon fill="#fffdd0" stroke="black" points="1478.5,-280 1332.5,-280 1332.5,-244 1478.5,-244 1478.5,-280"/>
<text text-anchor="middle" x="1405.5" y="-258.3" font-family="Arial" font-size="14.00">Unlabelled small crab</text>
</g>
<!-- n1&#45;&gt;n5 -->
<g id="edge4" class="edge">
<title>n1&#45;&gt;n5</title>
<path fill="none" stroke="black" d="M863.04,-366C985.3,-342.78 1202.8,-301.48 1321.9,-278.87"/>
<polygon fill="black" stroke="black" points="1322.93,-282.24 1332.1,-276.94 1321.62,-275.36 1322.93,-282.24"/>
</g>
<!-- n6 -->
<g id="node6" class="node">
<title>n6</title>
<path fill="palegreen" stroke="black" d="M171,-158C171,-158 12,-158 12,-158 6,-158 0,-152 0,-146 0,-146 0,-134 0,-134 0,-128 6,-122 12,-122 12,-122 171,-122 171,-122 177,-122 183,-128 183,-134 183,-134 183,-146 183,-146 183,-152 177,-158 171,-158"/>
<text text-anchor="middle" x="91.5" y="-136.3" font-family="Arial" font-size="14.00">Fish representation in water</text>
</g>
<!-- n2&#45;&gt;n6 -->
<g id="edge5" class="edge">
<title>n2&#45;&gt;n6</title>
<path fill="none" stroke="black" d="M287.69,-243.81C247.05,-222.51 177.75,-186.2 133.33,-162.92"/>
<polygon fill="black" stroke="black" points="134.73,-159.7 124.25,-158.16 131.48,-165.9 134.73,-159.7"/>
</g>
<!-- n7 -->
<g id="node7" class="node">
<title>n7</title>
<path fill="palegreen" stroke="black" d="M387.5,-158C387.5,-158 253.5,-158 253.5,-158 247.5,-158 241.5,-152 241.5,-146 241.5,-146 241.5,-134 241.5,-134 241.5,-128 247.5,-122 253.5,-122 253.5,-122 387.5,-122 387.5,-122 393.5,-122 399.5,-128 399.5,-134 399.5,-134 399.5,-146 399.5,-146 399.5,-152 393.5,-158 387.5,-158"/>
<text text-anchor="middle" x="320.5" y="-136.3" font-family="Arial" font-size="14.00">Labelled &#39;Fish&#39; correctly</text>
</g>
<!-- n2&#45;&gt;n7 -->
<g id="edge6" class="edge">
<title>n2&#45;&gt;n7</title>
<path fill="none" stroke="black" d="M320.5,-243.81C320.5,-224.11 320.5,-191.58 320.5,-168.39"/>
<polygon fill="black" stroke="black" points="324,-168.16 320.5,-158.16 317,-168.16 324,-168.16"/>
</g>
<!-- n8 -->
<g id="node8" class="node">
<title>n8</title>
<path fill="palegreen" stroke="black" d="M647,-158C647,-158 470,-158 470,-158 464,-158 458,-152 458,-146 458,-146 458,-134 458,-134 458,-128 464,-122 470,-122 470,-122 647,-122 647,-122 653,-122 659,-128 659,-134 659,-134 659,-146 659,-146 659,-152 653,-158 647,-158"/>
<text text-anchor="middle" x="558.5" y="-136.3" font-family="Arial" font-size="14.00">Water environment recognized</text>
</g>
<!-- n3&#45;&gt;n8 -->
<g id="edge7" class="edge">
<title>n3&#45;&gt;n8</title>
<path fill="none" stroke="black" d="M587.63,-243.81C582.02,-224.02 572.75,-191.29 566.17,-168.08"/>
<polygon fill="black" stroke="black" points="569.45,-166.83 563.36,-158.16 562.72,-168.74 569.45,-166.83"/>
</g>
<!-- n9 -->
<g id="node9" class="node">
<title>n9</title>
<polygon fill="lightcoral" stroke="black" points="960.5,-158 716.85,-140 960.5,-122 1204.15,-140 960.5,-158"/>
<text text-anchor="middle" x="960.5" y="-136.3" font-family="Arial" font-size="14.00">Plant in environment with attempted label</text>
</g>
<!-- n4&#45;&gt;n9 -->
<g id="edge8" class="edge">
<title>n4&#45;&gt;n9</title>
<path fill="none" stroke="black" d="M957.93,-243.81C958.42,-224.11 959.24,-191.58 959.82,-168.39"/>
<polygon fill="black" stroke="black" points="963.32,-168.24 960.07,-158.16 956.33,-168.07 963.32,-168.24"/>
</g>
<!-- n10 -->
<g id="node10" class="node">
<title>n10</title>
<polygon fill="lightcoral" stroke="black" points="1534.5,-158 1262.36,-140 1534.5,-122 1806.64,-140 1534.5,-158"/>
<text text-anchor="middle" x="1534.5" y="-136.3" font-family="Arial" font-size="14.00">Missing label for crab to indicate other animals</text>
</g>
<!-- n5&#45;&gt;n10 -->
<g id="edge9" class="edge">
<title>n5&#45;&gt;n10</title>
<path fill="none" stroke="black" d="M1424,-243.81C1446.5,-222.87 1484.6,-187.43 1509.6,-164.12"/>
<polygon fill="black" stroke="black" points="1512.33,-166.37 1517.3,-157.01 1507.58,-161.22 1512.33,-166.37"/>
</g>
<!-- n11 -->
<g id="node11" class="node">
<title>n11</title>
<polygon fill="#f28e8e" stroke="black" points="1099.5,-36 821.5,-36 821.5,0 1099.5,0 1099.5,-36"/>
<text text-anchor="middle" x="960.5" y="-14.3" font-family="Arial" font-size="14.00">Include specific plant labels, e.g., &#39;seaweed&#39;</text>
</g>
<!-- n9&#45;&gt;n11 -->
<g id="edge10" class="edge">
<title>n9&#45;&gt;n11</title>
<path fill="none" stroke="black" d="M960.5,-121.81C960.5,-102.11 960.5,-69.58 960.5,-46.39"/>
<polygon fill="black" stroke="black" points="964,-46.16 960.5,-36.16 957,-46.16 964,-46.16"/>
</g>
<!-- n12 -->
<g id="node12" class="node">
<title>n12</title>
<polygon fill="#f28e8e" stroke="black" points="1691,-36 1378,-36 1378,0 1691,0 1691,-36"/>
<text text-anchor="middle" x="1534.5" y="-14.3" font-family="Arial" font-size="14.00">Label more animals, like the crab, in environment</text>
</g>
<!-- n10&#45;&gt;n12 -->
<g id="edge11" class="edge">
<title>n10&#45;&gt;n12</title>
<path fill="none" stroke="black" d="M1534.5,-121.81C1534.5,-102.11 1534.5,-69.58 1534.5,-46.39"/>
<polygon fill="black" stroke="black" points="1538,-46.16 1534.5,-36.16 1531,-46.16 1538,-46.16"/>
</g>
</g>
</svg>
