<?xml version="1.0" encoding="UTF-8" standalone="no"?>
<!DOCTYPE svg PUBLIC "-//W3C//DTD SVG 1.1//EN"
 "http://www.w3.org/Graphics/SVG/1.1/DTD/svg11.dtd">
<!-- Generated by graphviz version 2.43.0 (0)
 -->
<!-- Pages: 1 -->
<svg width="1400pt" height="410pt"
 viewBox="0.00 0.00 1400.00 410.00" xmlns="http://www.w3.org/2000/svg" xmlns:xlink="http://www.w3.org/1999/xlink">
<g id="graph0" class="graph" transform="scale(1 1) rotate(0) translate(4 406)">
<polygon fill="white" stroke="transparent" points="-4,4 -4,-406 1396,-406 1396,4 -4,4"/>
<!-- n1 -->
<g id="node1" class="node">
<title>n1</title>
<polygon fill="lightblue" stroke="black" points="754.5,-384 640.75,-402 413.25,-402 299.5,-384 413.25,-366 640.75,-366 754.5,-384"/>
<text text-anchor="middle" x="527" y="-380.3" font-family="Arial" font-size="14.00">Illustrate plants with and without water and light.</text>
</g>
<!-- n2 -->
<g id="node2" class="node">
<title>n2</title>
<polygon fill="#fffdd0" stroke="black" points="364.5,-280 149.5,-280 149.5,-244 364.5,-244 364.5,-280"/>
<text text-anchor="middle" x="257" y="-258.3" font-family="Arial" font-size="14.00">Healthy plant with water and light</text>
</g>
<!-- n1&#45;&gt;n2 -->
<g id="edge1" class="edge">
<title>n1&#45;&gt;n2</title>
<path fill="none" stroke="black" d="M488.6,-365.93C440.22,-344.43 357.08,-307.48 304.68,-284.19"/>
<polygon fill="black" stroke="black" points="305.83,-280.87 295.27,-280.01 302.99,-287.27 305.83,-280.87"/>
</g>
<!-- n3 -->
<g id="node3" class="node">
<title>n3</title>
<polygon fill="#fffdd0" stroke="black" points="612.5,-280 441.5,-280 441.5,-244 612.5,-244 612.5,-280"/>
<text text-anchor="middle" x="527" y="-258.3" font-family="Arial" font-size="14.00">Wilted plant without water</text>
</g>
<!-- n1&#45;&gt;n3 -->
<g id="edge2" class="edge">
<title>n1&#45;&gt;n3</title>
<path fill="none" stroke="black" d="M527,-365.81C527,-346.11 527,-313.58 527,-290.39"/>
<polygon fill="black" stroke="black" points="530.5,-290.16 527,-280.16 523.5,-290.16 530.5,-290.16"/>
</g>
<!-- n4 -->
<g id="node4" class="node">
<title>n4</title>
<polygon fill="#fffdd0" stroke="black" points="940.5,-280 777.5,-280 777.5,-244 940.5,-244 940.5,-280"/>
<text text-anchor="middle" x="859" y="-258.3" font-family="Arial" font-size="14.00">Wilted plant without light</text>
</g>
<!-- n1&#45;&gt;n4 -->
<g id="edge3" class="edge">
<title>n1&#45;&gt;n4</title>
<path fill="none" stroke="black" d="M574.21,-365.93C634.32,-344.21 738.07,-306.71 802.37,-283.47"/>
<polygon fill="black" stroke="black" points="803.73,-286.7 811.95,-280.01 801.36,-280.12 803.73,-286.7"/>
</g>
<!-- n5 -->
<g id="node5" class="node">
<title>n5</title>
<path fill="palegreen" stroke="black" d="M248,-158C248,-158 12,-158 12,-158 6,-158 0,-152 0,-146 0,-146 0,-134 0,-134 0,-128 6,-122 12,-122 12,-122 248,-122 248,-122 254,-122 260,-128 260,-134 260,-134 260,-146 260,-146 260,-152 254,-158 248,-158"/>
<text text-anchor="middle" x="130" y="-136.3" font-family="Arial" font-size="14.00">Plants need water and light to be healthy</text>
</g>
<!-- n2&#45;&gt;n5 -->
<g id="edge4" class="edge">
<title>n2&#45;&gt;n5</title>
<path fill="none" stroke="black" d="M238.8,-243.81C217.02,-223.22 180.39,-188.61 155.72,-165.3"/>
<polygon fill="black" stroke="black" points="157.83,-162.48 148.16,-158.16 153.03,-167.57 157.83,-162.48"/>
</g>
<!-- n6 -->
<g id="node6" class="node">
<title>n6</title>
<path fill="palegreen" stroke="black" d="M510,-158C510,-158 330,-158 330,-158 324,-158 318,-152 318,-146 318,-146 318,-134 318,-134 318,-128 324,-122 330,-122 330,-122 510,-122 510,-122 516,-122 522,-128 522,-134 522,-134 522,-146 522,-146 522,-152 516,-158 510,-158"/>
<text text-anchor="middle" x="420" y="-136.3" font-family="Arial" font-size="14.00">Plant without water looks wilted</text>
</g>
<!-- n3&#45;&gt;n6 -->
<g id="edge5" class="edge">
<title>n3&#45;&gt;n6</title>
<path fill="none" stroke="black" d="M511.67,-243.81C493.47,-223.4 462.99,-189.21 442.21,-165.91"/>
<polygon fill="black" stroke="black" points="444.57,-163.29 435.3,-158.16 439.34,-167.95 444.57,-163.29"/>
</g>
<!-- n8 -->
<g id="node7" class="node">
<title>n8</title>
<polygon fill="lightcoral" stroke="black" points="859,-158 580.49,-140 859,-122 1137.51,-140 859,-158"/>
<text text-anchor="middle" x="859" y="-136.3" font-family="Arial" font-size="14.00">Unclear about specifics of lacking water vs. light</text>
</g>
<!-- n3&#45;&gt;n8 -->
<g id="edge6" class="edge">
<title>n3&#45;&gt;n8</title>
<path fill="none" stroke="black" d="M574.21,-243.93C636.49,-221.42 745.62,-181.98 809.18,-159.01"/>
<polygon fill="black" stroke="black" points="810.76,-162.16 818.97,-155.47 808.38,-155.58 810.76,-162.16"/>
</g>
<!-- n4&#45;&gt;n8 -->
<g id="edge7" class="edge">
<title>n4&#45;&gt;n8</title>
<path fill="none" stroke="black" d="M859,-243.81C859,-224.11 859,-191.58 859,-168.39"/>
<polygon fill="black" stroke="black" points="862.5,-168.16 859,-158.16 855.5,-168.16 862.5,-168.16"/>
</g>
<!-- n7 -->
<g id="node8" class="node">
<title>n7</title>
<path fill="palegreen" stroke="black" d="M1380,-158C1380,-158 1208,-158 1208,-158 1202,-158 1196,-152 1196,-146 1196,-146 1196,-134 1196,-134 1196,-128 1202,-122 1208,-122 1208,-122 1380,-122 1380,-122 1386,-122 1392,-128 1392,-134 1392,-134 1392,-146 1392,-146 1392,-152 1386,-158 1380,-158"/>
<text text-anchor="middle" x="1294" y="-136.3" font-family="Arial" font-size="14.00">Plant without light looks wilted</text>
</g>
<!-- n4&#45;&gt;n7 -->
<g id="edge8" class="edge">
<title>n4&#45;&gt;n7</title>
<path fill="none" stroke="black" d="M920.86,-243.93C1000.5,-221.96 1138.6,-183.86 1222.6,-160.69"/>
<polygon fill="black" stroke="black" points="1223.68,-164.02 1232.4,-158.01 1221.83,-157.27 1223.68,-164.02"/>
</g>
<!-- n9 -->
<g id="node9" class="node">
<title>n9</title>
<polygon fill="#f28e8e" stroke="black" points="1012,-36 706,-36 706,0 1012,0 1012,-36"/>
<text text-anchor="middle" x="859" y="-14.3" font-family="Arial" font-size="14.00">Clarify differences when water vs. light is lacking</text>
</g>
<!-- n8&#45;&gt;n9 -->
<g id="edge9" class="edge">
<title>n8&#45;&gt;n9</title>
<path fill="none" stroke="black" d="M859,-121.81C859,-102.11 859,-69.58 859,-46.39"/>
<polygon fill="black" stroke="black" points="862.5,-46.16 859,-36.16 855.5,-46.16 862.5,-46.16"/>
</g>
</g>
</svg>
