<?xml version="1.0" encoding="UTF-8" standalone="no"?>
<!DOCTYPE svg PUBLIC "-//W3C//DTD SVG 1.1//EN"
 "http://www.w3.org/Graphics/SVG/1.1/DTD/svg11.dtd">
<!-- Generated by graphviz version 2.43.0 (0)
 -->
<!-- Pages: 1 -->
<svg width="1862pt" height="410pt"
 viewBox="0.00 0.00 1862.22 410.00" xmlns="http://www.w3.org/2000/svg" xmlns:xlink="http://www.w3.org/1999/xlink">
<g id="graph0" class="graph" transform="scale(1 1) rotate(0) translate(4 406)">
<polygon fill="white" stroke="transparent" points="-4,4 -4,-406 1858.22,-406 1858.22,4 -4,4"/>
<!-- n1 -->
<g id="node1" class="node">
<title>n1</title>
<polygon fill="lightblue" stroke="black" points="1034,-384 922.5,-402 699.5,-402 588,-384 699.5,-366 922.5,-366 1034,-384"/>
<text text-anchor="middle" x="811" y="-380.3" font-family="Arial" font-size="14.00">Draw a string telephone between two students.</text>
</g>
<!-- n2 -->
<g id="node2" class="node">
<title>n2</title>
<polygon fill="#fffdd0" stroke="black" points="231.5,-280 46.5,-280 46.5,-244 231.5,-244 231.5,-280"/>
<text text-anchor="middle" x="139" y="-258.3" font-family="Arial" font-size="14.00">Two students standing apart</text>
</g>
<!-- n1&#45;&gt;n2 -->
<g id="edge1" class="edge">
<title>n1&#45;&gt;n2</title>
<path fill="none" stroke="black" d="M715.79,-366C590.34,-343.6 370.54,-304.35 241.54,-281.31"/>
<polygon fill="black" stroke="black" points="242.11,-277.86 231.65,-279.54 240.88,-284.75 242.11,-277.86"/>
</g>
<!-- n3 -->
<g id="node3" class="node">
<title>n3</title>
<polygon fill="#fffdd0" stroke="black" points="542.5,-280 289.5,-280 289.5,-244 542.5,-244 542.5,-280"/>
<text text-anchor="middle" x="416" y="-258.3" font-family="Arial" font-size="14.00">Each student holds cup to ear or mouth</text>
</g>
<!-- n1&#45;&gt;n3 -->
<g id="edge2" class="edge">
<title>n1&#45;&gt;n3</title>
<path fill="none" stroke="black" d="M754.83,-365.93C682.87,-344.07 558.36,-306.25 481.97,-283.04"/>
<polygon fill="black" stroke="black" points="482.57,-279.56 471.98,-280.01 480.53,-286.26 482.57,-279.56"/>
</g>
<!-- n4 -->
<g id="node4" class="node">
<title>n4</title>
<polygon fill="#fffdd0" stroke="black" points="769.5,-280 600.5,-280 600.5,-244 769.5,-244 769.5,-280"/>
<text text-anchor="middle" x="685" y="-258.3" font-family="Arial" font-size="14.00">Cups connected by string</text>
</g>
<!-- n1&#45;&gt;n4 -->
<g id="edge3" class="edge">
<title>n1&#45;&gt;n4</title>
<path fill="none" stroke="black" d="M792.95,-365.81C771.33,-345.22 734.99,-310.61 710.52,-287.3"/>
<polygon fill="black" stroke="black" points="712.68,-284.52 703.02,-280.16 707.85,-289.59 712.68,-284.52"/>
</g>
<!-- n5 -->
<g id="node5" class="node">
<title>n5</title>
<polygon fill="#fffdd0" stroke="black" points="1046.5,-280 827.5,-280 827.5,-244 1046.5,-244 1046.5,-280"/>
<text text-anchor="middle" x="937" y="-258.3" font-family="Arial" font-size="14.00">Bright colors for students&#39; clothing</text>
</g>
<!-- n1&#45;&gt;n5 -->
<g id="edge4" class="edge">
<title>n1&#45;&gt;n5</title>
<path fill="none" stroke="black" d="M829.05,-365.81C850.67,-345.22 887.01,-310.61 911.48,-287.3"/>
<polygon fill="black" stroke="black" points="914.15,-289.59 918.98,-280.16 909.32,-284.52 914.15,-289.59"/>
</g>
<!-- n6 -->
<g id="node6" class="node">
<title>n6</title>
<polygon fill="#fffdd0" stroke="black" points="1305,-280 1105,-280 1105,-244 1305,-244 1305,-280"/>
<text text-anchor="middle" x="1205" y="-258.3" font-family="Arial" font-size="14.00">Sound waves drawn abstractly</text>
</g>
<!-- n1&#45;&gt;n6 -->
<g id="edge5" class="edge">
<title>n1&#45;&gt;n6</title>
<path fill="none" stroke="black" d="M867.03,-365.93C938.81,-344.07 1063,-306.25 1139.2,-283.04"/>
<polygon fill="black" stroke="black" points="1140.64,-286.26 1149.2,-280.01 1138.61,-279.56 1140.64,-286.26"/>
</g>
<!-- n7 -->
<g id="node7" class="node">
<title>n7</title>
<polygon fill="#fffdd0" stroke="black" points="1610,-280 1450,-280 1450,-244 1610,-244 1610,-280"/>
<text text-anchor="middle" x="1530" y="-258.3" font-family="Arial" font-size="14.00">String depicted with sag</text>
</g>
<!-- n1&#45;&gt;n7 -->
<g id="edge6" class="edge">
<title>n1&#45;&gt;n7</title>
<path fill="none" stroke="black" d="M912.87,-366C1053.6,-342.51 1305.3,-300.5 1439.7,-278.08"/>
<polygon fill="black" stroke="black" points="1440.62,-281.47 1449.9,-276.36 1439.46,-274.57 1440.62,-281.47"/>
</g>
<!-- n8 -->
<g id="node8" class="node">
<title>n8</title>
<path fill="palegreen" stroke="black" d="M266,-158C266,-158 12,-158 12,-158 6,-158 0,-152 0,-146 0,-146 0,-134 0,-134 0,-128 6,-122 12,-122 12,-122 266,-122 266,-122 272,-122 278,-128 278,-134 278,-134 278,-146 278,-146 278,-152 272,-158 266,-158"/>
<text text-anchor="middle" x="139" y="-136.3" font-family="Arial" font-size="14.00">Understand communication over a distance</text>
</g>
<!-- n2&#45;&gt;n8 -->
<g id="edge7" class="edge">
<title>n2&#45;&gt;n8</title>
<path fill="none" stroke="black" d="M139,-243.81C139,-224.11 139,-191.58 139,-168.39"/>
<polygon fill="black" stroke="black" points="142.5,-168.16 139,-158.16 135.5,-168.16 142.5,-168.16"/>
</g>
<!-- n9 -->
<g id="node9" class="node">
<title>n9</title>
<path fill="palegreen" stroke="black" d="M645,-158C645,-158 433,-158 433,-158 427,-158 421,-152 421,-146 421,-146 421,-134 421,-134 421,-128 427,-122 433,-122 433,-122 645,-122 645,-122 651,-122 657,-128 657,-134 657,-134 657,-146 657,-146 657,-152 651,-158 645,-158"/>
<text text-anchor="middle" x="539" y="-136.3" font-family="Arial" font-size="14.00">Cups and string are correctly labeled</text>
</g>
<!-- n3&#45;&gt;n9 -->
<g id="edge8" class="edge">
<title>n3&#45;&gt;n9</title>
<path fill="none" stroke="black" d="M433.62,-243.81C454.72,-223.22 490.2,-188.61 514.09,-165.3"/>
<polygon fill="black" stroke="black" points="516.7,-167.65 521.41,-158.16 511.81,-162.64 516.7,-167.65"/>
</g>
<!-- n4&#45;&gt;n9 -->
<g id="edge9" class="edge">
<title>n4&#45;&gt;n9</title>
<path fill="none" stroke="black" d="M664.08,-243.81C638.82,-223.04 596.2,-188.01 567.83,-164.7"/>
<polygon fill="black" stroke="black" points="569.83,-161.81 559.88,-158.16 565.38,-167.22 569.83,-161.81"/>
</g>
<!-- n10 -->
<g id="node10" class="node">
<title>n10</title>
<path fill="palegreen" stroke="black" d="M1016,-158C1016,-158 812,-158 812,-158 806,-158 800,-152 800,-146 800,-146 800,-134 800,-134 800,-128 806,-122 812,-122 812,-122 1016,-122 1016,-122 1022,-122 1028,-128 1028,-134 1028,-134 1028,-146 1028,-146 1028,-152 1022,-158 1016,-158"/>
<text text-anchor="middle" x="914" y="-136.3" font-family="Arial" font-size="14.00">Cups and vibrant colors show effort</text>
</g>
<!-- n5&#45;&gt;n10 -->
<g id="edge10" class="edge">
<title>n5&#45;&gt;n10</title>
<path fill="none" stroke="black" d="M933.7,-243.81C929.91,-224.02 923.64,-191.29 919.19,-168.08"/>
<polygon fill="black" stroke="black" points="922.61,-167.32 917.29,-158.16 915.73,-168.64 922.61,-167.32"/>
</g>
<!-- n11 -->
<g id="node11" class="node">
<title>n11</title>
<path fill="palegreen" stroke="black" d="M1312,-158C1312,-158 1098,-158 1098,-158 1092,-158 1086,-152 1086,-146 1086,-146 1086,-134 1086,-134 1086,-128 1092,-122 1098,-122 1098,-122 1312,-122 1312,-122 1318,-122 1324,-128 1324,-134 1324,-134 1324,-146 1324,-146 1324,-152 1318,-158 1312,-158"/>
<text text-anchor="middle" x="1205" y="-136.3" font-family="Arial" font-size="14.00">Illustrates importance of sound travel</text>
</g>
<!-- n6&#45;&gt;n11 -->
<g id="edge11" class="edge">
<title>n6&#45;&gt;n11</title>
<path fill="none" stroke="black" d="M1205,-243.81C1205,-224.11 1205,-191.58 1205,-168.39"/>
<polygon fill="black" stroke="black" points="1208.5,-168.16 1205,-158.16 1201.5,-168.16 1208.5,-168.16"/>
</g>
<!-- n12 -->
<g id="node12" class="node">
<title>n12</title>
<polygon fill="lightcoral" stroke="black" points="1618,-158 1381.55,-140 1618,-122 1854.45,-140 1618,-158"/>
<text text-anchor="middle" x="1618" y="-136.3" font-family="Arial" font-size="14.00">Incorrect understanding of string tension</text>
</g>
<!-- n7&#45;&gt;n12 -->
<g id="edge12" class="edge">
<title>n7&#45;&gt;n12</title>
<path fill="none" stroke="black" d="M1542.6,-243.81C1557.6,-223.35 1582.8,-189.04 1599.9,-165.73"/>
<polygon fill="black" stroke="black" points="1602.92,-167.53 1606,-157.39 1597.27,-163.4 1602.92,-167.53"/>
</g>
<!-- n13 -->
<g id="node13" class="node">
<title>n13</title>
<polygon fill="#f28e8e" stroke="black" points="1774.5,-36 1461.5,-36 1461.5,0 1774.5,0 1774.5,-36"/>
<text text-anchor="middle" x="1618" y="-14.3" font-family="Arial" font-size="14.00">String should be tight for effective communication</text>
</g>
<!-- n12&#45;&gt;n13 -->
<g id="edge13" class="edge">
<title>n12&#45;&gt;n13</title>
<path fill="none" stroke="black" d="M1618,-121.81C1618,-102.11 1618,-69.58 1618,-46.39"/>
<polygon fill="black" stroke="black" points="1621.5,-46.16 1618,-36.16 1614.5,-46.16 1621.5,-46.16"/>
</g>
</g>
</svg>
