<?xml version="1.0" encoding="UTF-8" standalone="no"?>
<!DOCTYPE svg PUBLIC "-//W3C//DTD SVG 1.1//EN"
 "http://www.w3.org/Graphics/SVG/1.1/DTD/svg11.dtd">
<!-- Generated by graphviz version 2.43.0 (0)
 -->
<!-- Pages: 1 -->
<svg width="1492pt" height="410pt"
 viewBox="0.00 0.00 1492.24 410.00" xmlns="http://www.w3.org/2000/svg" xmlns:xlink="http://www.w3.org/1999/xlink">
<g id="graph0" class="graph" transform="scale(1 1) rotate(0) translate(4 406)">
<polygon fill="white" stroke="transparent" points="-4,4 -4,-406 1488.24,-406 1488.24,4 -4,4"/>
<!-- n1 -->
<g id="node1" class="node">
<title>n1</title>
<polygon fill="lightblue" stroke="black" points="916,-384 806,-402 586,-402 476,-384 586,-366 806,-366 916,-384"/>
<text text-anchor="middle" x="696" y="-380.3" font-family="Arial" font-size="14.00">Draw a string telephone between two students</text>
</g>
<!-- n2 -->
<g id="node2" class="node">
<title>n2</title>
<polygon fill="#fffdd0" stroke="black" points="392,-280 228,-280 228,-244 392,-244 392,-280"/>
<text text-anchor="middle" x="310" y="-258.3" font-family="Arial" font-size="14.00">Two stick figure students</text>
</g>
<!-- n1&#45;&gt;n2 -->
<g id="edge1" class="edge">
<title>n1&#45;&gt;n2</title>
<path fill="none" stroke="black" d="M641.11,-365.93C570.79,-344.07 449.11,-306.25 374.47,-283.04"/>
<polygon fill="black" stroke="black" points="375.3,-279.63 364.71,-280.01 373.22,-286.32 375.3,-279.63"/>
</g>
<!-- n3 -->
<g id="node3" class="node">
<title>n3</title>
<polygon fill="#fffdd0" stroke="black" points="799.5,-280 592.5,-280 592.5,-244 799.5,-244 799.5,-280"/>
<text text-anchor="middle" x="696" y="-258.3" font-family="Arial" font-size="14.00">Oval shapes that might be cups</text>
</g>
<!-- n1&#45;&gt;n3 -->
<g id="edge2" class="edge">
<title>n1&#45;&gt;n3</title>
<path fill="none" stroke="black" d="M696,-365.81C696,-346.11 696,-313.58 696,-290.39"/>
<polygon fill="black" stroke="black" points="699.5,-290.16 696,-280.16 692.5,-290.16 699.5,-290.16"/>
</g>
<!-- n4 -->
<g id="node4" class="node">
<title>n4</title>
<polygon fill="#fffdd0" stroke="black" points="1273.5,-280 994.5,-280 994.5,-244 1273.5,-244 1273.5,-280"/>
<text text-anchor="middle" x="1134" y="-258.3" font-family="Arial" font-size="14.00">A wavy, inconsistent line suggesting a string</text>
</g>
<!-- n1&#45;&gt;n4 -->
<g id="edge3" class="edge">
<title>n1&#45;&gt;n4</title>
<path fill="none" stroke="black" d="M758.29,-365.93C838.49,-343.96 977.56,-305.86 1062.1,-282.69"/>
<polygon fill="black" stroke="black" points="1063.18,-286.02 1071.9,-280.01 1061.33,-279.27 1063.18,-286.02"/>
</g>
<!-- n5 -->
<g id="node5" class="node">
<title>n5</title>
<path fill="palegreen" stroke="black" d="M322,-158C322,-158 12,-158 12,-158 6,-158 0,-152 0,-146 0,-146 0,-134 0,-134 0,-128 6,-122 12,-122 12,-122 322,-122 322,-122 328,-122 334,-128 334,-134 334,-134 334,-146 334,-146 334,-152 328,-158 322,-158"/>
<text text-anchor="middle" x="167" y="-136.3" font-family="Arial" font-size="14.00">Basic understanding of communicating over distance</text>
</g>
<!-- n2&#45;&gt;n5 -->
<g id="edge4" class="edge">
<title>n2&#45;&gt;n5</title>
<path fill="none" stroke="black" d="M289.51,-243.81C264.77,-223.04 223.02,-188.01 195.24,-164.7"/>
<polygon fill="black" stroke="black" points="197.36,-161.91 187.45,-158.16 192.86,-167.27 197.36,-161.91"/>
</g>
<!-- n7 -->
<g id="node6" class="node">
<title>n7</title>
<polygon fill="lightcoral" stroke="black" points="696,-158 391.52,-140 696,-122 1000.48,-140 696,-158"/>
<text text-anchor="middle" x="696" y="-136.3" font-family="Arial" font-size="14.00">Incomplete depiction of string telephone functionality</text>
</g>
<!-- n3&#45;&gt;n7 -->
<g id="edge5" class="edge">
<title>n3&#45;&gt;n7</title>
<path fill="none" stroke="black" d="M696,-243.81C696,-224.11 696,-191.58 696,-168.39"/>
<polygon fill="black" stroke="black" points="699.5,-168.16 696,-158.16 692.5,-168.16 699.5,-168.16"/>
</g>
<!-- n6 -->
<g id="node7" class="node">
<title>n6</title>
<polygon fill="lightcoral" stroke="black" points="1271,-158 1057.51,-140 1271,-122 1484.49,-140 1271,-158"/>
<text text-anchor="middle" x="1271" y="-136.3" font-family="Arial" font-size="14.00">Sound travel mechanism not shown</text>
</g>
<!-- n4&#45;&gt;n6 -->
<g id="edge6" class="edge">
<title>n4&#45;&gt;n6</title>
<path fill="none" stroke="black" d="M1153.6,-243.81C1177.8,-222.66 1218.8,-186.72 1245.4,-163.43"/>
<polygon fill="black" stroke="black" points="1247.96,-165.84 1253.2,-156.63 1243.36,-160.56 1247.96,-165.84"/>
</g>
<!-- n8 -->
<g id="node8" class="node">
<title>n8</title>
<polygon fill="#f28e8e" stroke="black" points="1179,-36 787,-36 787,0 1179,0 1179,-36"/>
<text text-anchor="middle" x="983" y="-14.3" font-family="Arial" font-size="14.00">Consider adding detailed features that show how sound travels</text>
</g>
<!-- n7&#45;&gt;n8 -->
<g id="edge7" class="edge">
<title>n7&#45;&gt;n8</title>
<path fill="none" stroke="black" d="M731.77,-124.04C782.44,-102.86 875.35,-64.01 932.88,-39.96"/>
<polygon fill="black" stroke="black" points="934.26,-43.17 942.14,-36.08 931.56,-36.71 934.26,-43.17"/>
</g>
<!-- n6&#45;&gt;n8 -->
<g id="edge8" class="edge">
<title>n6&#45;&gt;n8</title>
<path fill="none" stroke="black" d="M1236.8,-124.76C1186.4,-103.77 1091.9,-64.37 1033.5,-40.03"/>
<polygon fill="black" stroke="black" points="1034.68,-36.73 1024.1,-36.12 1031.98,-43.19 1034.68,-36.73"/>
</g>
</g>
</svg>
