<?xml version="1.0" encoding="UTF-8" standalone="no"?>
<!DOCTYPE svg PUBLIC "-//W3C//DTD SVG 1.1//EN"
 "http://www.w3.org/Graphics/SVG/1.1/DTD/svg11.dtd">
<!-- Generated by graphviz version 2.43.0 (0)
 -->
<!-- Pages: 1 -->
<svg width="1633pt" height="410pt"
 viewBox="0.00 0.00 1633.00 410.00" xmlns="http://www.w3.org/2000/svg" xmlns:xlink="http://www.w3.org/1999/xlink">
<g id="graph0" class="graph" transform="scale(1 1) rotate(0) translate(4 406)">
<polygon fill="white" stroke="transparent" points="-4,4 -4,-406 1629,-406 1629,4 -4,4"/>
<!-- n1 -->
<g id="node1" class="node">
<title>n1</title>
<polygon fill="lightblue" stroke="black" points="816,-384 724.75,-402 542.25,-402 451,-384 542.25,-366 724.75,-366 816,-384"/>
<text text-anchor="middle" x="633.5" y="-380.3" font-family="Arial" font-size="14.00">Draw reversible changes (ice melting)</text>
</g>
<!-- n2 -->
<g id="node2" class="node">
<title>n2</title>
<polygon fill="#fffdd0" stroke="black" points="194,-280 57,-280 57,-244 194,-244 194,-280"/>
<text text-anchor="middle" x="125.5" y="-258.3" font-family="Arial" font-size="14.00">Solid blue ice cubes</text>
</g>
<!-- n1&#45;&gt;n2 -->
<g id="edge1" class="edge">
<title>n1&#45;&gt;n2</title>
<path fill="none" stroke="black" d="M561.52,-366C467.05,-343.68 301.81,-304.65 204.14,-281.58"/>
<polygon fill="black" stroke="black" points="204.86,-278.15 194.32,-279.26 203.25,-284.97 204.86,-278.15"/>
</g>
<!-- n3 -->
<g id="node3" class="node">
<title>n3</title>
<polygon fill="#fffdd0" stroke="black" points="478.5,-280 266.5,-280 266.5,-244 478.5,-244 478.5,-280"/>
<text text-anchor="middle" x="372.5" y="-258.3" font-family="Arial" font-size="14.00">Arrow labeled &#39;melting&#39; to puddle</text>
</g>
<!-- n1&#45;&gt;n3 -->
<g id="edge2" class="edge">
<title>n1&#45;&gt;n3</title>
<path fill="none" stroke="black" d="M596.38,-365.93C549.61,-344.43 469.24,-307.48 418.59,-284.19"/>
<polygon fill="black" stroke="black" points="420.04,-281 409.49,-280.01 417.12,-287.36 420.04,-281"/>
</g>
<!-- n4 -->
<g id="node4" class="node">
<title>n4</title>
<polygon fill="#fffdd0" stroke="black" points="719,-280 548,-280 548,-244 719,-244 719,-280"/>
<text text-anchor="middle" x="633.5" y="-258.3" font-family="Arial" font-size="14.00">Light blue puddle of water</text>
</g>
<!-- n1&#45;&gt;n4 -->
<g id="edge3" class="edge">
<title>n1&#45;&gt;n4</title>
<path fill="none" stroke="black" d="M633.5,-365.81C633.5,-346.11 633.5,-313.58 633.5,-290.39"/>
<polygon fill="black" stroke="black" points="637,-290.16 633.5,-280.16 630,-290.16 637,-290.16"/>
</g>
<!-- n5 -->
<g id="node5" class="node">
<title>n5</title>
<polygon fill="#fffdd0" stroke="black" points="1016,-280 783,-280 783,-244 1016,-244 1016,-280"/>
<text text-anchor="middle" x="899.5" y="-258.3" font-family="Arial" font-size="14.00">Arrow labeled &#39;freezing&#39; to ice cubes</text>
</g>
<!-- n1&#45;&gt;n5 -->
<g id="edge4" class="edge">
<title>n1&#45;&gt;n5</title>
<path fill="none" stroke="black" d="M671.33,-365.93C718.99,-344.43 800.91,-307.48 852.53,-284.19"/>
<polygon fill="black" stroke="black" points="854.12,-287.31 861.8,-280.01 851.25,-280.93 854.12,-287.31"/>
</g>
<!-- n6 -->
<g id="node6" class="node">
<title>n6</title>
<polygon fill="#fffdd0" stroke="black" points="1340,-280 1167,-280 1167,-244 1340,-244 1340,-280"/>
<text text-anchor="middle" x="1253.5" y="-258.3" font-family="Arial" font-size="14.00">Slightly different ice cubes</text>
</g>
<!-- n1&#45;&gt;n6 -->
<g id="edge5" class="edge">
<title>n1&#45;&gt;n6</title>
<path fill="none" stroke="black" d="M721.34,-366C836.37,-343.74 1037.4,-304.83 1156.7,-281.74"/>
<polygon fill="black" stroke="black" points="1157.35,-285.18 1166.5,-279.83 1156.02,-278.31 1157.35,-285.18"/>
</g>
<!-- n7 -->
<g id="node7" class="node">
<title>n7</title>
<path fill="palegreen" stroke="black" d="M191,-158C191,-158 12,-158 12,-158 6,-158 0,-152 0,-146 0,-146 0,-134 0,-134 0,-128 6,-122 12,-122 12,-122 191,-122 191,-122 197,-122 203,-128 203,-134 203,-134 203,-146 203,-146 203,-152 197,-158 191,-158"/>
<text text-anchor="middle" x="101.5" y="-136.3" font-family="Arial" font-size="14.00">Understanding solid form of ice</text>
</g>
<!-- n2&#45;&gt;n7 -->
<g id="edge6" class="edge">
<title>n2&#45;&gt;n7</title>
<path fill="none" stroke="black" d="M122.06,-243.81C118.1,-224.02 111.56,-191.29 106.92,-168.08"/>
<polygon fill="black" stroke="black" points="110.33,-167.28 104.93,-158.16 103.47,-168.65 110.33,-167.28"/>
</g>
<!-- n8 -->
<g id="node8" class="node">
<title>n8</title>
<path fill="palegreen" stroke="black" d="M452,-158C452,-158 273,-158 273,-158 267,-158 261,-152 261,-146 261,-146 261,-134 261,-134 261,-128 267,-122 273,-122 273,-122 452,-122 452,-122 458,-122 464,-128 464,-134 464,-134 464,-146 464,-146 464,-152 458,-158 452,-158"/>
<text text-anchor="middle" x="362.5" y="-136.3" font-family="Arial" font-size="14.00">Understanding melting process</text>
</g>
<!-- n3&#45;&gt;n8 -->
<g id="edge7" class="edge">
<title>n3&#45;&gt;n8</title>
<path fill="none" stroke="black" d="M371.07,-243.81C369.43,-224.11 366.72,-191.58 364.78,-168.39"/>
<polygon fill="black" stroke="black" points="368.25,-167.84 363.93,-158.16 361.27,-168.42 368.25,-167.84"/>
</g>
<!-- n9 -->
<g id="node9" class="node">
<title>n9</title>
<path fill="palegreen" stroke="black" d="M733,-158C733,-158 534,-158 534,-158 528,-158 522,-152 522,-146 522,-146 522,-134 522,-134 522,-128 528,-122 534,-122 534,-122 733,-122 733,-122 739,-122 745,-128 745,-134 745,-134 745,-146 745,-146 745,-152 739,-158 733,-158"/>
<text text-anchor="middle" x="633.5" y="-136.3" font-family="Arial" font-size="14.00">Understanding liquid form of water</text>
</g>
<!-- n4&#45;&gt;n9 -->
<g id="edge8" class="edge">
<title>n4&#45;&gt;n9</title>
<path fill="none" stroke="black" d="M633.5,-243.81C633.5,-224.11 633.5,-191.58 633.5,-168.39"/>
<polygon fill="black" stroke="black" points="637,-168.16 633.5,-158.16 630,-168.16 637,-168.16"/>
</g>
<!-- n10 -->
<g id="node10" class="node">
<title>n10</title>
<path fill="palegreen" stroke="black" d="M998,-158C998,-158 815,-158 815,-158 809,-158 803,-152 803,-146 803,-146 803,-134 803,-134 803,-128 809,-122 815,-122 815,-122 998,-122 998,-122 1004,-122 1010,-128 1010,-134 1010,-134 1010,-146 1010,-146 1010,-152 1004,-158 998,-158"/>
<text text-anchor="middle" x="906.5" y="-136.3" font-family="Arial" font-size="14.00">Understanding freezing process</text>
</g>
<!-- n5&#45;&gt;n10 -->
<g id="edge9" class="edge">
<title>n5&#45;&gt;n10</title>
<path fill="none" stroke="black" d="M900.5,-243.81C901.65,-224.11 903.55,-191.58 904.9,-168.39"/>
<polygon fill="black" stroke="black" points="908.41,-168.35 905.5,-158.16 901.42,-167.94 908.41,-168.35"/>
</g>
<!-- n11 -->
<g id="node11" class="node">
<title>n11</title>
<polygon fill="lightcoral" stroke="black" points="1346.5,-158 1067.99,-140 1346.5,-122 1625.01,-140 1346.5,-158"/>
<text text-anchor="middle" x="1346.5" y="-136.3" font-family="Arial" font-size="14.00">Misconception about re&#45;freezing to original form</text>
</g>
<!-- n6&#45;&gt;n11 -->
<g id="edge10" class="edge">
<title>n6&#45;&gt;n11</title>
<path fill="none" stroke="black" d="M1266.8,-243.81C1282.7,-223.26 1309.5,-188.74 1327.6,-165.42"/>
<polygon fill="black" stroke="black" points="1330.46,-167.44 1333.8,-157.39 1324.92,-163.17 1330.46,-167.44"/>
</g>
<!-- n12 -->
<g id="node12" class="node">
<title>n12</title>
<polygon fill="#f28e8e" stroke="black" points="1499,-36 1194,-36 1194,0 1499,0 1499,-36"/>
<text text-anchor="middle" x="1346.5" y="-14.3" font-family="Arial" font-size="14.00">Reinforce geometric consistency in re&#45;frozen ice</text>
</g>
<!-- n11&#45;&gt;n12 -->
<g id="edge11" class="edge">
<title>n11&#45;&gt;n12</title>
<path fill="none" stroke="black" d="M1346.5,-121.81C1346.5,-102.11 1346.5,-69.58 1346.5,-46.39"/>
<polygon fill="black" stroke="black" points="1350,-46.16 1346.5,-36.16 1343,-46.16 1350,-46.16"/>
</g>
</g>
</svg>
