<?xml version="1.0" encoding="UTF-8" standalone="no"?>
<!DOCTYPE svg PUBLIC "-//W3C//DTD SVG 1.1//EN"
 "http://www.w3.org/Graphics/SVG/1.1/DTD/svg11.dtd">
<!-- Generated by graphviz version 2.43.0 (0)
 -->
<!-- Pages: 1 -->
<svg width="1947pt" height="410pt"
 viewBox="0.00 0.00 1946.50 410.00" xmlns="http://www.w3.org/2000/svg" xmlns:xlink="http://www.w3.org/1999/xlink">
<g id="graph0" class="graph" transform="scale(1 1) rotate(0) translate(4 406)">
<polygon fill="white" stroke="transparent" points="-4,4 -4,-406 1942.5,-406 1942.5,4 -4,4"/>
<!-- n1 -->
<g id="node1" class="node">
<title>n1</title>
<polygon fill="lightblue" stroke="black" points="1426.5,-384 1296.25,-402 1035.75,-402 905.5,-384 1035.75,-366 1296.25,-366 1426.5,-384"/>
<text text-anchor="middle" x="1166" y="-380.3" font-family="Arial" font-size="14.00">Draw two habitats and the different living things in each</text>
</g>
<!-- n2 -->
<g id="node2" class="node">
<title>n2</title>
<polygon fill="#fffdd0" stroke="black" points="1136,-280 878,-280 878,-244 1136,-244 1136,-280"/>
<text text-anchor="middle" x="1007" y="-258.3" font-family="Arial" font-size="14.00">Land habitat with tall trees, short bushes</text>
</g>
<!-- n1&#45;&gt;n2 -->
<g id="edge1" class="edge">
<title>n1&#45;&gt;n2</title>
<path fill="none" stroke="black" d="M1143.2,-365.81C1115.6,-344.96 1068.9,-309.71 1038,-286.4"/>
<polygon fill="black" stroke="black" points="1039.8,-283.37 1029.7,-280.16 1035.59,-288.97 1039.8,-283.37"/>
</g>
<!-- n3 -->
<g id="node3" class="node">
<title>n3</title>
<polygon fill="#fffdd0" stroke="black" points="1606.5,-280 1343.5,-280 1343.5,-244 1606.5,-244 1606.5,-280"/>
<text text-anchor="middle" x="1475" y="-258.3" font-family="Arial" font-size="14.00">Water habitat with aquatic plants and fish</text>
</g>
<!-- n1&#45;&gt;n3 -->
<g id="edge2" class="edge">
<title>n1&#45;&gt;n3</title>
<path fill="none" stroke="black" d="M1209.9,-365.93C1265.7,-344.3 1361.7,-307.02 1421.6,-283.76"/>
<polygon fill="black" stroke="black" points="1423.16,-286.91 1431.2,-280.01 1420.61,-280.39 1423.16,-286.91"/>
</g>
<!-- n4 -->
<g id="node4" class="node">
<title>n4</title>
<path fill="palegreen" stroke="black" d="M368,-158C368,-158 12,-158 12,-158 6,-158 0,-152 0,-146 0,-146 0,-134 0,-134 0,-128 6,-122 12,-122 12,-122 368,-122 368,-122 374,-122 380,-128 380,-134 380,-134 380,-146 380,-146 380,-152 374,-158 368,-158"/>
<text text-anchor="middle" x="190" y="-136.3" font-family="Arial" font-size="14.00">Includes trees, bushes, and animals like lizards and squirrels</text>
</g>
<!-- n2&#45;&gt;n4 -->
<g id="edge3" class="edge">
<title>n2&#45;&gt;n4</title>
<path fill="none" stroke="black" d="M891.24,-244C739.19,-221.66 473.14,-182.59 316.11,-159.52"/>
<polygon fill="black" stroke="black" points="316.32,-156.01 305.92,-158.03 315.31,-162.94 316.32,-156.01"/>
</g>
<!-- n6 -->
<g id="node5" class="node">
<title>n6</title>
<path fill="palegreen" stroke="black" d="M1601.5,-158C1601.5,-158 1348.5,-158 1348.5,-158 1342.5,-158 1336.5,-152 1336.5,-146 1336.5,-146 1336.5,-134 1336.5,-134 1336.5,-128 1342.5,-122 1348.5,-122 1348.5,-122 1601.5,-122 1601.5,-122 1607.5,-122 1613.5,-128 1613.5,-134 1613.5,-134 1613.5,-146 1613.5,-146 1613.5,-152 1607.5,-158 1601.5,-158"/>
<text text-anchor="middle" x="1475" y="-136.3" font-family="Arial" font-size="14.00">Observes basic biodiversity in both habitats</text>
</g>
<!-- n2&#45;&gt;n6 -->
<g id="edge4" class="edge">
<title>n2&#45;&gt;n6</title>
<path fill="none" stroke="black" d="M1073.6,-243.93C1159.4,-221.92 1308.4,-183.71 1398.8,-160.55"/>
<polygon fill="black" stroke="black" points="1399.88,-163.89 1408.7,-158.01 1398.14,-157.11 1399.88,-163.89"/>
</g>
<!-- n7 -->
<g id="node6" class="node">
<title>n7</title>
<polygon fill="lightcoral" stroke="black" points="858,-158 437.89,-140 858,-122 1278.11,-140 858,-158"/>
<text text-anchor="middle" x="858" y="-136.3" font-family="Arial" font-size="14.00">Does not include less obvious details such as understory plants or insects</text>
</g>
<!-- n2&#45;&gt;n7 -->
<g id="edge5" class="edge">
<title>n2&#45;&gt;n7</title>
<path fill="none" stroke="black" d="M985.65,-243.81C959.58,-222.81 915.38,-187.21 886.44,-163.91"/>
<polygon fill="black" stroke="black" points="888.33,-160.94 878.35,-157.39 883.94,-166.39 888.33,-160.94"/>
</g>
<!-- n3&#45;&gt;n6 -->
<g id="edge6" class="edge">
<title>n3&#45;&gt;n6</title>
<path fill="none" stroke="black" d="M1475,-243.81C1475,-224.11 1475,-191.58 1475,-168.39"/>
<polygon fill="black" stroke="black" points="1478.5,-168.16 1475,-158.16 1471.5,-168.16 1478.5,-168.16"/>
</g>
<!-- n5 -->
<g id="node7" class="node">
<title>n5</title>
<path fill="palegreen" stroke="black" d="M1926.5,-158C1926.5,-158 1683.5,-158 1683.5,-158 1677.5,-158 1671.5,-152 1671.5,-146 1671.5,-146 1671.5,-134 1671.5,-134 1671.5,-128 1677.5,-122 1683.5,-122 1683.5,-122 1926.5,-122 1926.5,-122 1932.5,-122 1938.5,-128 1938.5,-134 1938.5,-134 1938.5,-146 1938.5,-146 1938.5,-152 1932.5,-158 1926.5,-158"/>
<text text-anchor="middle" x="1805" y="-136.3" font-family="Arial" font-size="14.00">Illustrates fish and aquatic plants correctly</text>
</g>
<!-- n3&#45;&gt;n5 -->
<g id="edge7" class="edge">
<title>n3&#45;&gt;n5</title>
<path fill="none" stroke="black" d="M1521.9,-243.93C1581.7,-222.21 1684.8,-184.71 1748.7,-161.47"/>
<polygon fill="black" stroke="black" points="1750,-164.72 1758.2,-158.01 1747.61,-158.14 1750,-164.72"/>
</g>
<!-- n8 -->
<g id="node8" class="node">
<title>n8</title>
<polygon fill="#f28e8e" stroke="black" points="1112.5,-36 603.5,-36 603.5,0 1112.5,0 1112.5,-36"/>
<text text-anchor="middle" x="858" y="-14.3" font-family="Arial" font-size="14.00">Consider adding more details like insects and understory plants for more accuracy</text>
</g>
<!-- n7&#45;&gt;n8 -->
<g id="edge8" class="edge">
<title>n7&#45;&gt;n8</title>
<path fill="none" stroke="black" d="M858,-121.81C858,-102.11 858,-69.58 858,-46.39"/>
<polygon fill="black" stroke="black" points="861.5,-46.16 858,-36.16 854.5,-46.16 861.5,-46.16"/>
</g>
</g>
</svg>
