<?xml version="1.0" encoding="UTF-8" standalone="no"?>
<!DOCTYPE svg PUBLIC "-//W3C//DTD SVG 1.1//EN"
 "http://www.w3.org/Graphics/SVG/1.1/DTD/svg11.dtd">
<!-- Generated by graphviz version 2.43.0 (0)
 -->
<!-- Pages: 1 -->
<svg width="2342pt" height="410pt"
 viewBox="0.00 0.00 2342.10 410.00" xmlns="http://www.w3.org/2000/svg" xmlns:xlink="http://www.w3.org/1999/xlink">
<g id="graph0" class="graph" transform="scale(1 1) rotate(0) translate(4 406)">
<polygon fill="white" stroke="transparent" points="-4,4 -4,-406 2338.1,-406 2338.1,4 -4,4"/>
<!-- n1 -->
<g id="node1" class="node">
<title>n1</title>
<polygon fill="lightblue" stroke="black" points="1250.37,-384 1107.69,-402 822.31,-402 679.63,-384 822.31,-366 1107.69,-366 1250.37,-384"/>
<text text-anchor="middle" x="965" y="-380.3" font-family="Arial" font-size="14.00">Draw animals in their habitats with labels (e.g., fish in water).</text>
</g>
<!-- n2 -->
<g id="node2" class="node">
<title>n2</title>
<polygon fill="#fffdd0" stroke="black" points="356.5,-280 65.5,-280 65.5,-244 356.5,-244 356.5,-280"/>
<text text-anchor="middle" x="211" y="-258.3" font-family="Arial" font-size="14.00">Forest habitat with labeled animals and plants</text>
</g>
<!-- n1&#45;&gt;n2 -->
<g id="edge1" class="edge">
<title>n1&#45;&gt;n2</title>
<path fill="none" stroke="black" d="M858.17,-366C718.12,-343.71 473.28,-304.74 328.25,-281.66"/>
<polygon fill="black" stroke="black" points="328.41,-278.14 317.98,-280.03 327.31,-285.05 328.41,-278.14"/>
</g>
<!-- n3 -->
<g id="node3" class="node">
<title>n3</title>
<polygon fill="#fffdd0" stroke="black" points="635,-280 515,-280 515,-244 635,-244 635,-280"/>
<text text-anchor="middle" x="575" y="-258.3" font-family="Arial" font-size="14.00">Deer in the forest</text>
</g>
<!-- n1&#45;&gt;n3 -->
<g id="edge2" class="edge">
<title>n1&#45;&gt;n3</title>
<path fill="none" stroke="black" d="M909.54,-365.93C838.49,-344.07 715.55,-306.25 640.13,-283.04"/>
<polygon fill="black" stroke="black" points="640.86,-279.6 630.27,-280.01 638.8,-286.29 640.86,-279.6"/>
</g>
<!-- n4 -->
<g id="node4" class="node">
<title>n4</title>
<polygon fill="#fffdd0" stroke="black" points="856.5,-280 743.5,-280 743.5,-244 856.5,-244 856.5,-280"/>
<text text-anchor="middle" x="800" y="-258.3" font-family="Arial" font-size="14.00">Fish in the pond</text>
</g>
<!-- n1&#45;&gt;n4 -->
<g id="edge3" class="edge">
<title>n1&#45;&gt;n4</title>
<path fill="none" stroke="black" d="M941.36,-365.81C912.57,-344.87 863.81,-309.41 831.76,-286.1"/>
<polygon fill="black" stroke="black" points="833.74,-283.22 823.6,-280.16 829.62,-288.87 833.74,-283.22"/>
</g>
<!-- n5 -->
<g id="node5" class="node">
<title>n5</title>
<polygon fill="#fffdd0" stroke="black" points="1072,-280 954,-280 954,-244 1072,-244 1072,-280"/>
<text text-anchor="middle" x="1013" y="-258.3" font-family="Arial" font-size="14.00">Birds in the trees</text>
</g>
<!-- n1&#45;&gt;n5 -->
<g id="edge4" class="edge">
<title>n1&#45;&gt;n5</title>
<path fill="none" stroke="black" d="M971.88,-365.81C979.86,-345.85 993.12,-312.7 1002.4,-289.45"/>
<polygon fill="black" stroke="black" points="1005.65,-290.75 1006.1,-280.16 999.15,-288.16 1005.65,-290.75"/>
</g>
<!-- n6 -->
<g id="node6" class="node">
<title>n6</title>
<polygon fill="#fffdd0" stroke="black" points="1392,-280 1236,-280 1236,-244 1392,-244 1392,-280"/>
<text text-anchor="middle" x="1314" y="-258.3" font-family="Arial" font-size="14.00">Plants around the pond</text>
</g>
<!-- n1&#45;&gt;n6 -->
<g id="edge5" class="edge">
<title>n1&#45;&gt;n6</title>
<path fill="none" stroke="black" d="M1014.6,-365.93C1077.9,-344.16 1187.3,-306.56 1254.9,-283.33"/>
<polygon fill="black" stroke="black" points="1256.19,-286.59 1264.5,-280.01 1253.91,-279.97 1256.19,-286.59"/>
</g>
<!-- n7 -->
<g id="node7" class="node">
<title>n7</title>
<polygon fill="#fffdd0" stroke="black" points="1829.5,-280 1688.5,-280 1688.5,-244 1829.5,-244 1829.5,-280"/>
<text text-anchor="middle" x="1759" y="-258.3" font-family="Arial" font-size="14.00">Sun above the forest</text>
</g>
<!-- n1&#45;&gt;n7 -->
<g id="edge6" class="edge">
<title>n1&#45;&gt;n7</title>
<path fill="none" stroke="black" d="M1077.5,-366C1239.9,-341.45 1536.2,-296.68 1678.5,-275.17"/>
<polygon fill="black" stroke="black" points="1679.13,-278.61 1688.5,-273.66 1678.09,-271.69 1679.13,-278.61"/>
</g>
<!-- n8 -->
<g id="node8" class="node">
<title>n8</title>
<path fill="palegreen" stroke="black" d="M230,-158C230,-158 12,-158 12,-158 6,-158 0,-152 0,-146 0,-146 0,-134 0,-134 0,-128 6,-122 12,-122 12,-122 230,-122 230,-122 236,-122 242,-128 242,-134 242,-134 242,-146 242,-146 242,-152 236,-158 230,-158"/>
<text text-anchor="middle" x="121" y="-136.3" font-family="Arial" font-size="14.00">Student understands labeling habitats</text>
</g>
<!-- n2&#45;&gt;n8 -->
<g id="edge7" class="edge">
<title>n2&#45;&gt;n8</title>
<path fill="none" stroke="black" d="M198.11,-243.81C182.87,-223.49 157.38,-189.51 139.91,-166.21"/>
<polygon fill="black" stroke="black" points="142.67,-164.06 133.87,-158.16 137.07,-168.26 142.67,-164.06"/>
</g>
<!-- n9 -->
<g id="node9" class="node">
<title>n9</title>
<path fill="palegreen" stroke="black" d="M542,-158C542,-158 312,-158 312,-158 306,-158 300,-152 300,-146 300,-146 300,-134 300,-134 300,-128 306,-122 312,-122 312,-122 542,-122 542,-122 548,-122 554,-128 554,-134 554,-134 554,-146 554,-146 554,-152 548,-158 542,-158"/>
<text text-anchor="middle" x="427" y="-136.3" font-family="Arial" font-size="14.00">Student understands deer live in forests</text>
</g>
<!-- n3&#45;&gt;n9 -->
<g id="edge8" class="edge">
<title>n3&#45;&gt;n9</title>
<path fill="none" stroke="black" d="M553.8,-243.81C528.19,-223.04 484.98,-188.01 456.23,-164.7"/>
<polygon fill="black" stroke="black" points="458.14,-161.74 448.17,-158.16 453.73,-167.18 458.14,-161.74"/>
</g>
<!-- n10 -->
<g id="node10" class="node">
<title>n10</title>
<path fill="palegreen" stroke="black" d="M898,-158C898,-158 624,-158 624,-158 618,-158 612,-152 612,-146 612,-146 612,-134 612,-134 612,-128 618,-122 624,-122 624,-122 898,-122 898,-122 904,-122 910,-128 910,-134 910,-134 910,-146 910,-146 910,-152 904,-158 898,-158"/>
<text text-anchor="middle" x="761" y="-136.3" font-family="Arial" font-size="14.00">Student understands fish need water to survive</text>
</g>
<!-- n4&#45;&gt;n10 -->
<g id="edge9" class="edge">
<title>n4&#45;&gt;n10</title>
<path fill="none" stroke="black" d="M794.41,-243.81C787.95,-223.94 777.25,-190.99 769.7,-167.76"/>
<polygon fill="black" stroke="black" points="773,-166.59 766.58,-158.16 766.34,-168.75 773,-166.59"/>
</g>
<!-- n11 -->
<g id="node11" class="node">
<title>n11</title>
<path fill="palegreen" stroke="black" d="M1202,-158C1202,-158 980,-158 980,-158 974,-158 968,-152 968,-146 968,-146 968,-134 968,-134 968,-128 974,-122 980,-122 980,-122 1202,-122 1202,-122 1208,-122 1214,-128 1214,-134 1214,-134 1214,-146 1214,-146 1214,-152 1208,-158 1202,-158"/>
<text text-anchor="middle" x="1091" y="-136.3" font-family="Arial" font-size="14.00">Student understands birds live in trees</text>
</g>
<!-- n5&#45;&gt;n11 -->
<g id="edge10" class="edge">
<title>n5&#45;&gt;n11</title>
<path fill="none" stroke="black" d="M1024.2,-243.81C1037.3,-223.67 1059.1,-190.1 1074.2,-166.83"/>
<polygon fill="black" stroke="black" points="1077.31,-168.46 1079.8,-158.16 1071.43,-164.66 1077.31,-168.46"/>
</g>
<!-- n12 -->
<g id="node12" class="node">
<title>n12</title>
<path fill="palegreen" stroke="black" d="M1556,-158C1556,-158 1284,-158 1284,-158 1278,-158 1272,-152 1272,-146 1272,-146 1272,-134 1272,-134 1272,-128 1278,-122 1284,-122 1284,-122 1556,-122 1556,-122 1562,-122 1568,-128 1568,-134 1568,-134 1568,-146 1568,-146 1568,-152 1562,-158 1556,-158"/>
<text text-anchor="middle" x="1420" y="-136.3" font-family="Arial" font-size="14.00">Student understands plants grow around water</text>
</g>
<!-- n6&#45;&gt;n12 -->
<g id="edge11" class="edge">
<title>n6&#45;&gt;n12</title>
<path fill="none" stroke="black" d="M1329.2,-243.81C1347.2,-223.4 1377.4,-189.21 1398,-165.91"/>
<polygon fill="black" stroke="black" points="1400.84,-167.99 1404.8,-158.16 1395.57,-163.37 1400.84,-167.99"/>
</g>
<!-- n13 -->
<g id="node13" class="node">
<title>n13</title>
<path fill="palegreen" stroke="black" d="M1879.5,-158C1879.5,-158 1638.5,-158 1638.5,-158 1632.5,-158 1626.5,-152 1626.5,-146 1626.5,-146 1626.5,-134 1626.5,-134 1626.5,-128 1632.5,-122 1638.5,-122 1638.5,-122 1879.5,-122 1879.5,-122 1885.5,-122 1891.5,-128 1891.5,-134 1891.5,-134 1891.5,-146 1891.5,-146 1891.5,-152 1885.5,-158 1879.5,-158"/>
<text text-anchor="middle" x="1759" y="-136.3" font-family="Arial" font-size="14.00">Student understands plants need sunlight</text>
</g>
<!-- n7&#45;&gt;n13 -->
<g id="edge12" class="edge">
<title>n7&#45;&gt;n13</title>
<path fill="none" stroke="black" d="M1759,-243.81C1759,-224.11 1759,-191.58 1759,-168.39"/>
<polygon fill="black" stroke="black" points="1762.5,-168.16 1759,-158.16 1755.5,-168.16 1762.5,-168.16"/>
</g>
<!-- n14 -->
<g id="node14" class="node">
<title>n14</title>
<polygon fill="lightcoral" stroke="black" points="2142,-158 1949.79,-140 2142,-122 2334.21,-140 2142,-158"/>
<text text-anchor="middle" x="2142" y="-136.3" font-family="Arial" font-size="14.00">Air as a resource is not depicted</text>
</g>
<!-- n7&#45;&gt;n14 -->
<g id="edge13" class="edge">
<title>n7&#45;&gt;n14</title>
<path fill="none" stroke="black" d="M1813.5,-243.93C1887.2,-220.82 2018,-179.86 2090.3,-157.2"/>
<polygon fill="black" stroke="black" points="2091.6,-160.46 2100.1,-154.13 2089.51,-153.78 2091.6,-160.46"/>
</g>
<!-- n15 -->
<g id="node15" class="node">
<title>n15</title>
<polygon fill="#f28e8e" stroke="black" points="2312.5,-36 1971.5,-36 1971.5,0 2312.5,0 2312.5,-36"/>
<text text-anchor="middle" x="2142" y="-14.3" font-family="Arial" font-size="14.00">Include air as a necessary resource for all living things</text>
</g>
<!-- n14&#45;&gt;n15 -->
<g id="edge14" class="edge">
<title>n14&#45;&gt;n15</title>
<path fill="none" stroke="black" d="M2142,-121.81C2142,-102.11 2142,-69.58 2142,-46.39"/>
<polygon fill="black" stroke="black" points="2145.5,-46.16 2142,-36.16 2138.5,-46.16 2145.5,-46.16"/>
</g>
</g>
</svg>
