<?xml version="1.0" encoding="UTF-8" standalone="no"?>
<!DOCTYPE svg PUBLIC "-//W3C//DTD SVG 1.1//EN"
 "http://www.w3.org/Graphics/SVG/1.1/DTD/svg11.dtd">
<!-- Generated by graphviz version 2.43.0 (0)
 -->
<!-- Pages: 1 -->
<svg width="1168pt" height="410pt"
 viewBox="0.00 0.00 1167.66 410.00" xmlns="http://www.w3.org/2000/svg" xmlns:xlink="http://www.w3.org/1999/xlink">
<g id="graph0" class="graph" transform="scale(1 1) rotate(0) translate(4 406)">
<polygon fill="white" stroke="transparent" points="-4,4 -4,-406 1163.66,-406 1163.66,4 -4,4"/>
<!-- n0 -->
<g id="node1" class="node">
<title>n0</title>
<polygon fill="lightblue" stroke="black" points="713.32,-384 590.91,-402 346.09,-402 223.68,-384 346.09,-366 590.91,-366 713.32,-384"/>
<text text-anchor="middle" x="468.5" y="-380.3" font-family="Arial" font-size="14.00">Draw a habitat and the different living things in each</text>
</g>
<!-- n1 -->
<g id="node2" class="node">
<title>n1</title>
<polygon fill="#fffdd0" stroke="black" points="920,-280 709,-280 709,-244 920,-244 920,-280"/>
<text text-anchor="middle" x="814.5" y="-258.3" font-family="Arial" font-size="14.00">Garden with trees, flowers, bush</text>
</g>
<!-- n0&#45;&gt;n1 -->
<g id="edge1" class="edge">
<title>n0&#45;&gt;n1</title>
<path fill="none" stroke="black" d="M517.71,-365.93C580.48,-344.16 688.91,-306.56 755.89,-283.33"/>
<polygon fill="black" stroke="black" points="757.16,-286.59 765.46,-280.01 754.87,-279.98 757.16,-286.59"/>
</g>
<!-- n2 -->
<g id="node3" class="node">
<title>n2</title>
<polygon fill="#fffdd0" stroke="black" points="207,-280 0,-280 0,-244 207,-244 207,-280"/>
<text text-anchor="middle" x="103.5" y="-258.3" font-family="Arial" font-size="14.00">Pond with fish, frog, and lily pad</text>
</g>
<!-- n0&#45;&gt;n2 -->
<g id="edge2" class="edge">
<title>n0&#45;&gt;n2</title>
<path fill="none" stroke="black" d="M416.59,-365.93C350.24,-344.12 235.51,-306.4 164.89,-283.18"/>
<polygon fill="black" stroke="black" points="165.82,-279.8 155.23,-280.01 163.64,-286.45 165.82,-279.8"/>
</g>
<!-- n3 -->
<g id="node4" class="node">
<title>n3</title>
<polygon fill="#fffdd0" stroke="black" points="450,-280 265,-280 265,-244 450,-244 450,-280"/>
<text text-anchor="middle" x="357.5" y="-258.3" font-family="Arial" font-size="14.00">Animals in garden and pond</text>
</g>
<!-- n0&#45;&gt;n3 -->
<g id="edge3" class="edge">
<title>n0&#45;&gt;n3</title>
<path fill="none" stroke="black" d="M452.6,-365.81C433.64,-345.31 401.82,-310.91 380.26,-287.6"/>
<polygon fill="black" stroke="black" points="382.73,-285.12 373.37,-280.16 377.6,-289.88 382.73,-285.12"/>
</g>
<!-- n4 -->
<g id="node5" class="node">
<title>n4</title>
<polygon fill="#fffdd0" stroke="black" points="651,-280 508,-280 508,-244 651,-244 651,-280"/>
<text text-anchor="middle" x="579.5" y="-258.3" font-family="Arial" font-size="14.00">Birds flying in the sky</text>
</g>
<!-- n0&#45;&gt;n4 -->
<g id="edge4" class="edge">
<title>n0&#45;&gt;n4</title>
<path fill="none" stroke="black" d="M484.4,-365.81C503.36,-345.31 535.18,-310.91 556.74,-287.6"/>
<polygon fill="black" stroke="black" points="559.4,-289.88 563.63,-280.16 554.27,-285.12 559.4,-289.88"/>
</g>
<!-- n5 -->
<g id="node6" class="node">
<title>n5</title>
<path fill="palegreen" stroke="black" d="M661.5,-158C661.5,-158 359.5,-158 359.5,-158 353.5,-158 347.5,-152 347.5,-146 347.5,-146 347.5,-134 347.5,-134 347.5,-128 353.5,-122 359.5,-122 359.5,-122 661.5,-122 661.5,-122 667.5,-122 673.5,-128 673.5,-134 673.5,-134 673.5,-146 673.5,-146 673.5,-152 667.5,-158 661.5,-158"/>
<text text-anchor="middle" x="510.5" y="-136.3" font-family="Arial" font-size="14.00">Understands garden and pond are different habitats</text>
</g>
<!-- n1&#45;&gt;n5 -->
<g id="edge5" class="edge">
<title>n1&#45;&gt;n5</title>
<path fill="none" stroke="black" d="M771.27,-243.93C716.45,-222.3 622.01,-185.02 563.08,-161.76"/>
<polygon fill="black" stroke="black" points="564.17,-158.43 553.58,-158.01 561.6,-164.94 564.17,-158.43"/>
</g>
<!-- n6 -->
<g id="node7" class="node">
<title>n6</title>
<path fill="palegreen" stroke="black" d="M277,-158C277,-158 68,-158 68,-158 62,-158 56,-152 56,-146 56,-146 56,-134 56,-134 56,-128 62,-122 68,-122 68,-122 277,-122 277,-122 283,-122 289,-128 289,-134 289,-134 289,-146 289,-146 289,-152 283,-158 277,-158"/>
<text text-anchor="middle" x="172.5" y="-136.3" font-family="Arial" font-size="14.00">Shows variety of plants and animals</text>
</g>
<!-- n1&#45;&gt;n6 -->
<g id="edge6" class="edge">
<title>n1&#45;&gt;n6</title>
<path fill="none" stroke="black" d="M723.54,-244C604.65,-221.78 397.07,-182.98 273.45,-159.87"/>
<polygon fill="black" stroke="black" points="274.06,-156.42 263.59,-158.03 272.78,-163.31 274.06,-156.42"/>
</g>
<!-- n7 -->
<g id="node8" class="node">
<title>n7</title>
<polygon fill="lightcoral" stroke="black" points="945.5,-158 731.17,-140 945.5,-122 1159.83,-140 945.5,-158"/>
<text text-anchor="middle" x="945.5" y="-136.3" font-family="Arial" font-size="14.00">Mixes elements and incorrect labels</text>
</g>
<!-- n1&#45;&gt;n7 -->
<g id="edge7" class="edge">
<title>n1&#45;&gt;n7</title>
<path fill="none" stroke="black" d="M833.27,-243.81C856.35,-222.66 895.59,-186.72 921.02,-163.43"/>
<polygon fill="black" stroke="black" points="923.43,-165.97 928.43,-156.63 918.7,-160.81 923.43,-165.97"/>
</g>
<!-- n2&#45;&gt;n5 -->
<g id="edge8" class="edge">
<title>n2&#45;&gt;n5</title>
<path fill="none" stroke="black" d="M161.38,-243.93C235.67,-222.03 364.34,-184.09 443.01,-160.9"/>
<polygon fill="black" stroke="black" points="444.22,-164.19 452.82,-158.01 442.24,-157.48 444.22,-164.19"/>
</g>
<!-- n2&#45;&gt;n6 -->
<g id="edge9" class="edge">
<title>n2&#45;&gt;n6</title>
<path fill="none" stroke="black" d="M113.39,-243.81C124.97,-223.67 144.26,-190.1 157.65,-166.83"/>
<polygon fill="black" stroke="black" points="160.68,-168.57 162.63,-158.16 154.61,-165.09 160.68,-168.57"/>
</g>
<!-- n3&#45;&gt;n5 -->
<g id="edge10" class="edge">
<title>n3&#45;&gt;n5</title>
<path fill="none" stroke="black" d="M379.42,-243.81C406.01,-222.96 450.94,-187.71 480.67,-164.4"/>
<polygon fill="black" stroke="black" points="482.91,-167.09 488.62,-158.16 478.59,-161.58 482.91,-167.09"/>
</g>
<!-- n3&#45;&gt;n6 -->
<g id="edge11" class="edge">
<title>n3&#45;&gt;n6</title>
<path fill="none" stroke="black" d="M330.99,-243.81C298.57,-222.78 243.58,-187.11 207.66,-163.8"/>
<polygon fill="black" stroke="black" points="209.25,-160.66 198.96,-158.16 205.45,-166.54 209.25,-160.66"/>
</g>
<!-- n4&#45;&gt;n5 -->
<g id="edge12" class="edge">
<title>n4&#45;&gt;n5</title>
<path fill="none" stroke="black" d="M569.61,-243.81C558.03,-223.67 538.74,-190.1 525.35,-166.83"/>
<polygon fill="black" stroke="black" points="528.39,-165.09 520.37,-158.16 522.32,-168.57 528.39,-165.09"/>
</g>
<!-- n8 -->
<g id="node9" class="node">
<title>n8</title>
<polygon fill="#f28e8e" stroke="black" points="1134,-36 757,-36 757,0 1134,0 1134,-36"/>
<text text-anchor="middle" x="945.5" y="-14.3" font-family="Arial" font-size="14.00">Provide clear examples of plant and animal types in habitats</text>
</g>
<!-- n7&#45;&gt;n8 -->
<g id="edge13" class="edge">
<title>n7&#45;&gt;n8</title>
<path fill="none" stroke="black" d="M945.5,-121.81C945.5,-102.11 945.5,-69.58 945.5,-46.39"/>
<polygon fill="black" stroke="black" points="949,-46.16 945.5,-36.16 942,-46.16 949,-46.16"/>
</g>
</g>
</svg>
