<?xml version="1.0" encoding="UTF-8" standalone="no"?>
<!DOCTYPE svg PUBLIC "-//W3C//DTD SVG 1.1//EN"
 "http://www.w3.org/Graphics/SVG/1.1/DTD/svg11.dtd">
<!-- Generated by graphviz version 2.43.0 (0)
 -->
<!-- Pages: 1 -->
<svg width="1425pt" height="410pt"
 viewBox="0.00 0.00 1424.60 410.00" xmlns="http://www.w3.org/2000/svg" xmlns:xlink="http://www.w3.org/1999/xlink">
<g id="graph0" class="graph" transform="scale(1 1) rotate(0) translate(4 406)">
<polygon fill="white" stroke="transparent" points="-4,4 -4,-406 1420.6,-406 1420.6,4 -4,4"/>
<!-- n1 -->
<g id="node1" class="node">
<title>n1</title>
<polygon fill="lightblue" stroke="black" points="851,-384 739.5,-402 516.5,-402 405,-384 516.5,-366 739.5,-366 851,-384"/>
<text text-anchor="middle" x="628" y="-380.3" font-family="Arial" font-size="14.00">Draw a string telephone between two students.</text>
</g>
<!-- n2 -->
<g id="node2" class="node">
<title>n2</title>
<polygon fill="#fffdd0" stroke="black" points="353.5,-280 192.5,-280 192.5,-244 353.5,-244 353.5,-280"/>
<text text-anchor="middle" x="273" y="-258.3" font-family="Arial" font-size="14.00">Two stick figure children</text>
</g>
<!-- n1&#45;&gt;n2 -->
<g id="edge1" class="edge">
<title>n1&#45;&gt;n2</title>
<path fill="none" stroke="black" d="M577.51,-365.93C513.11,-344.16 401.85,-306.56 333.13,-283.33"/>
<polygon fill="black" stroke="black" points="333.9,-279.9 323.31,-280.01 331.66,-286.53 333.9,-279.9"/>
</g>
<!-- n3 -->
<g id="node3" class="node">
<title>n3</title>
<polygon fill="#fffdd0" stroke="black" points="598.5,-280 429.5,-280 429.5,-244 598.5,-244 598.5,-280"/>
<text text-anchor="middle" x="514" y="-258.3" font-family="Arial" font-size="14.00">Circles representing cans</text>
</g>
<!-- n1&#45;&gt;n3 -->
<g id="edge2" class="edge">
<title>n1&#45;&gt;n3</title>
<path fill="none" stroke="black" d="M611.67,-365.81C592.2,-345.31 559.52,-310.91 537.37,-287.6"/>
<polygon fill="black" stroke="black" points="539.73,-285 530.3,-280.16 534.65,-289.82 539.73,-285"/>
</g>
<!-- n4 -->
<g id="node4" class="node">
<title>n4</title>
<polygon fill="#fffdd0" stroke="black" points="829,-280 657,-280 657,-244 829,-244 829,-280"/>
<text text-anchor="middle" x="743" y="-258.3" font-family="Arial" font-size="14.00">No string connecting cans</text>
</g>
<!-- n1&#45;&gt;n4 -->
<g id="edge3" class="edge">
<title>n1&#45;&gt;n4</title>
<path fill="none" stroke="black" d="M644.48,-365.81C664.12,-345.31 697.08,-310.91 719.42,-287.6"/>
<polygon fill="black" stroke="black" points="722.16,-289.8 726.55,-280.16 717.1,-284.96 722.16,-289.8"/>
</g>
<!-- n5 -->
<g id="node5" class="node">
<title>n5</title>
<polygon fill="#fffdd0" stroke="black" points="1183,-280 1047,-280 1047,-244 1183,-244 1183,-280"/>
<text text-anchor="middle" x="1115" y="-258.3" font-family="Arial" font-size="14.00">No sound indicators</text>
</g>
<!-- n1&#45;&gt;n5 -->
<g id="edge4" class="edge">
<title>n1&#45;&gt;n5</title>
<path fill="none" stroke="black" d="M697,-366C786.71,-343.89 943.01,-305.38 1037,-282.23"/>
<polygon fill="black" stroke="black" points="1037.83,-285.63 1046.7,-279.83 1036.15,-278.83 1037.83,-285.63"/>
</g>
<!-- n6 -->
<g id="node6" class="node">
<title>n6</title>
<path fill="palegreen" stroke="black" d="M338,-158C338,-158 12,-158 12,-158 6,-158 0,-152 0,-146 0,-146 0,-134 0,-134 0,-128 6,-122 12,-122 12,-122 338,-122 338,-122 344,-122 350,-128 350,-134 350,-134 350,-146 350,-146 350,-152 344,-158 338,-158"/>
<text text-anchor="middle" x="175" y="-136.3" font-family="Arial" font-size="14.00">Understands two people are needed for communication</text>
</g>
<!-- n2&#45;&gt;n6 -->
<g id="edge5" class="edge">
<title>n2&#45;&gt;n6</title>
<path fill="none" stroke="black" d="M258.96,-243.81C242.29,-223.4 214.37,-189.21 195.34,-165.91"/>
<polygon fill="black" stroke="black" points="198.05,-163.69 189.01,-158.16 192.63,-168.12 198.05,-163.69"/>
</g>
<!-- n7 -->
<g id="node7" class="node">
<title>n7</title>
<polygon fill="lightcoral" stroke="black" points="663,-158 408.29,-140 663,-122 917.71,-140 663,-158"/>
<text text-anchor="middle" x="663" y="-136.3" font-family="Arial" font-size="14.00">Struggles to show cans connected by string</text>
</g>
<!-- n3&#45;&gt;n7 -->
<g id="edge6" class="edge">
<title>n3&#45;&gt;n7</title>
<path fill="none" stroke="black" d="M535.35,-243.81C561.71,-222.57 606.61,-186.41 635.53,-163.13"/>
<polygon fill="black" stroke="black" points="638,-165.63 643.59,-156.63 633.61,-160.18 638,-165.63"/>
</g>
<!-- n4&#45;&gt;n7 -->
<g id="edge7" class="edge">
<title>n4&#45;&gt;n7</title>
<path fill="none" stroke="black" d="M731.54,-243.81C717.9,-223.35 695.03,-189.04 679.49,-165.73"/>
<polygon fill="black" stroke="black" points="682.39,-163.77 673.93,-157.39 676.56,-167.65 682.39,-163.77"/>
</g>
<!-- n8 -->
<g id="node8" class="node">
<title>n8</title>
<polygon fill="lightcoral" stroke="black" points="1196,-158 975.3,-140 1196,-122 1416.7,-140 1196,-158"/>
<text text-anchor="middle" x="1196" y="-136.3" font-family="Arial" font-size="14.00">Incomplete illustration of sound travel</text>
</g>
<!-- n5&#45;&gt;n8 -->
<g id="edge8" class="edge">
<title>n5&#45;&gt;n8</title>
<path fill="none" stroke="black" d="M1126.6,-243.81C1140.4,-223.35 1163.6,-189.04 1179.3,-165.73"/>
<polygon fill="black" stroke="black" points="1182.23,-167.64 1184.9,-157.39 1176.42,-163.74 1182.23,-167.64"/>
</g>
<!-- n9 -->
<g id="node9" class="node">
<title>n9</title>
<polygon fill="#f28e8e" stroke="black" points="810.5,-36 515.5,-36 515.5,0 810.5,0 810.5,-36"/>
<text text-anchor="middle" x="663" y="-14.3" font-family="Arial" font-size="14.00">Add a string between cans to show connection</text>
</g>
<!-- n7&#45;&gt;n9 -->
<g id="edge9" class="edge">
<title>n7&#45;&gt;n9</title>
<path fill="none" stroke="black" d="M663,-121.81C663,-102.11 663,-69.58 663,-46.39"/>
<polygon fill="black" stroke="black" points="666.5,-46.16 663,-36.16 659.5,-46.16 666.5,-46.16"/>
</g>
<!-- n10 -->
<g id="node10" class="node">
<title>n10</title>
<polygon fill="#f28e8e" stroke="black" points="1323,-36 1069,-36 1069,0 1323,0 1323,-36"/>
<text text-anchor="middle" x="1196" y="-14.3" font-family="Arial" font-size="14.00">Use lines/arrows to depict sound waves</text>
</g>
<!-- n8&#45;&gt;n10 -->
<g id="edge10" class="edge">
<title>n8&#45;&gt;n10</title>
<path fill="none" stroke="black" d="M1196,-121.81C1196,-102.11 1196,-69.58 1196,-46.39"/>
<polygon fill="black" stroke="black" points="1199.5,-46.16 1196,-36.16 1192.5,-46.16 1199.5,-46.16"/>
</g>
</g>
</svg>
