<?xml version="1.0" encoding="UTF-8" standalone="no"?>
<!DOCTYPE svg PUBLIC "-//W3C//DTD SVG 1.1//EN"
 "http://www.w3.org/Graphics/SVG/1.1/DTD/svg11.dtd">
<!-- Generated by graphviz version 2.43.0 (0)
 -->
<!-- Pages: 1 -->
<svg width="1103pt" height="410pt"
 viewBox="0.00 0.00 1102.50 410.00" xmlns="http://www.w3.org/2000/svg" xmlns:xlink="http://www.w3.org/1999/xlink">
<g id="graph0" class="graph" transform="scale(1 1) rotate(0) translate(4 406)">
<polygon fill="white" stroke="transparent" points="-4,4 -4,-406 1098.5,-406 1098.5,4 -4,4"/>
<!-- n1 -->
<g id="node1" class="node">
<title>n1</title>
<polygon fill="lightblue" stroke="black" points="537,-384 425.5,-402 202.5,-402 91,-384 202.5,-366 425.5,-366 537,-384"/>
<text text-anchor="middle" x="314" y="-380.3" font-family="Arial" font-size="14.00">Draw a string telephone between two students.</text>
</g>
<!-- n2 -->
<g id="node2" class="node">
<title>n2</title>
<polygon fill="#fffdd0" stroke="black" points="172,-280 0,-280 0,-244 172,-244 172,-280"/>
<text text-anchor="middle" x="86" y="-258.3" font-family="Arial" font-size="14.00">Two children holding cups</text>
</g>
<!-- n1&#45;&gt;n2 -->
<g id="edge1" class="edge">
<title>n1&#45;&gt;n2</title>
<path fill="none" stroke="black" d="M281.33,-365.81C240.87,-344.51 171.88,-308.2 127.65,-284.92"/>
<polygon fill="black" stroke="black" points="129.09,-281.72 118.61,-280.16 125.83,-287.92 129.09,-281.72"/>
</g>
<!-- n3 -->
<g id="node3" class="node">
<title>n3</title>
<polygon fill="#fffdd0" stroke="black" points="397,-280 231,-280 231,-244 397,-244 397,-280"/>
<text text-anchor="middle" x="314" y="-258.3" font-family="Arial" font-size="14.00">Taut string between cups</text>
</g>
<!-- n1&#45;&gt;n3 -->
<g id="edge2" class="edge">
<title>n1&#45;&gt;n3</title>
<path fill="none" stroke="black" d="M314,-365.81C314,-346.11 314,-313.58 314,-290.39"/>
<polygon fill="black" stroke="black" points="317.5,-290.16 314,-280.16 310.5,-290.16 317.5,-290.16"/>
</g>
<!-- n4 -->
<g id="node4" class="node">
<title>n4</title>
<polygon fill="#fffdd0" stroke="black" points="677.5,-280 488.5,-280 488.5,-244 677.5,-244 677.5,-280"/>
<text text-anchor="middle" x="583" y="-258.3" font-family="Arial" font-size="14.00">Arrows showing sound travel</text>
</g>
<!-- n1&#45;&gt;n4 -->
<g id="edge3" class="edge">
<title>n1&#45;&gt;n4</title>
<path fill="none" stroke="black" d="M352.26,-365.93C400.46,-344.43 483.29,-307.48 535.5,-284.19"/>
<polygon fill="black" stroke="black" points="537.17,-287.28 544.88,-280.01 534.32,-280.88 537.17,-287.28"/>
</g>
<!-- n5 -->
<g id="node5" class="node">
<title>n5</title>
<path fill="palegreen" stroke="black" d="M131.5,-158C131.5,-158 36.5,-158 36.5,-158 30.5,-158 24.5,-152 24.5,-146 24.5,-146 24.5,-134 24.5,-134 24.5,-128 30.5,-122 36.5,-122 36.5,-122 131.5,-122 131.5,-122 137.5,-122 143.5,-128 143.5,-134 143.5,-134 143.5,-146 143.5,-146 143.5,-152 137.5,-158 131.5,-158"/>
<text text-anchor="middle" x="84" y="-136.3" font-family="Arial" font-size="14.00">Cups are labeled</text>
</g>
<!-- n2&#45;&gt;n5 -->
<g id="edge4" class="edge">
<title>n2&#45;&gt;n5</title>
<path fill="none" stroke="black" d="M85.71,-243.81C85.39,-224.11 84.84,-191.58 84.46,-168.39"/>
<polygon fill="black" stroke="black" points="87.95,-168.1 84.29,-158.16 80.95,-168.22 87.95,-168.1"/>
</g>
<!-- n6 -->
<g id="node6" class="node">
<title>n6</title>
<polygon fill="lightcoral" stroke="black" points="314,-158 201.73,-140 314,-122 426.27,-140 314,-158"/>
<text text-anchor="middle" x="314" y="-136.3" font-family="Arial" font-size="14.00">String not labeled</text>
</g>
<!-- n3&#45;&gt;n6 -->
<g id="edge5" class="edge">
<title>n3&#45;&gt;n6</title>
<path fill="none" stroke="black" d="M314,-243.81C314,-224.11 314,-191.58 314,-168.39"/>
<polygon fill="black" stroke="black" points="317.5,-168.16 314,-158.16 310.5,-168.16 317.5,-168.16"/>
</g>
<!-- n7 -->
<g id="node7" class="node">
<title>n7</title>
<path fill="palegreen" stroke="black" d="M670,-158C670,-158 496,-158 496,-158 490,-158 484,-152 484,-146 484,-146 484,-134 484,-134 484,-128 490,-122 496,-122 496,-122 670,-122 670,-122 676,-122 682,-128 682,-134 682,-134 682,-146 682,-146 682,-152 676,-158 670,-158"/>
<text text-anchor="middle" x="583" y="-136.3" font-family="Arial" font-size="14.00">Attempts to show sound travel</text>
</g>
<!-- n4&#45;&gt;n7 -->
<g id="edge6" class="edge">
<title>n4&#45;&gt;n7</title>
<path fill="none" stroke="black" d="M583,-243.81C583,-224.11 583,-191.58 583,-168.39"/>
<polygon fill="black" stroke="black" points="586.5,-168.16 583,-158.16 579.5,-168.16 586.5,-168.16"/>
</g>
<!-- n8 -->
<g id="node8" class="node">
<title>n8</title>
<polygon fill="lightcoral" stroke="black" points="917,-158 739.5,-140 917,-122 1094.5,-140 917,-158"/>
<text text-anchor="middle" x="917" y="-136.3" font-family="Arial" font-size="14.00">Inconsistent arrow placement</text>
</g>
<!-- n4&#45;&gt;n8 -->
<g id="edge7" class="edge">
<title>n4&#45;&gt;n8</title>
<path fill="none" stroke="black" d="M630.5,-243.93C694.27,-221.02 806.85,-180.58 870.23,-157.8"/>
<polygon fill="black" stroke="black" points="871.74,-160.98 879.97,-154.3 869.38,-154.39 871.74,-160.98"/>
</g>
<!-- n9 -->
<g id="node9" class="node">
<title>n9</title>
<polygon fill="#f28e8e" stroke="black" points="455,-36 173,-36 173,0 455,0 455,-36"/>
<text text-anchor="middle" x="314" y="-14.3" font-family="Arial" font-size="14.00">Label the string to complete the device parts</text>
</g>
<!-- n6&#45;&gt;n9 -->
<g id="edge8" class="edge">
<title>n6&#45;&gt;n9</title>
<path fill="none" stroke="black" d="M314,-121.81C314,-102.11 314,-69.58 314,-46.39"/>
<polygon fill="black" stroke="black" points="317.5,-46.16 314,-36.16 310.5,-46.16 317.5,-46.16"/>
</g>
<!-- n10 -->
<g id="node10" class="node">
<title>n10</title>
<polygon fill="#f28e8e" stroke="black" points="1064.5,-36 769.5,-36 769.5,0 1064.5,0 1064.5,-36"/>
<text text-anchor="middle" x="917" y="-14.3" font-family="Arial" font-size="14.00">Use consistent arrows to show sound direction</text>
</g>
<!-- n8&#45;&gt;n10 -->
<g id="edge9" class="edge">
<title>n8&#45;&gt;n10</title>
<path fill="none" stroke="black" d="M917,-121.81C917,-102.11 917,-69.58 917,-46.39"/>
<polygon fill="black" stroke="black" points="920.5,-46.16 917,-36.16 913.5,-46.16 920.5,-46.16"/>
</g>
</g>
</svg>
