<?xml version="1.0" encoding="UTF-8" standalone="no"?>
<!DOCTYPE svg PUBLIC "-//W3C//DTD SVG 1.1//EN"
 "http://www.w3.org/Graphics/SVG/1.1/DTD/svg11.dtd">
<!-- Generated by graphviz version 2.43.0 (0)
 -->
<!-- Pages: 1 -->
<svg width="1342pt" height="410pt"
 viewBox="0.00 0.00 1342.00 410.00" xmlns="http://www.w3.org/2000/svg" xmlns:xlink="http://www.w3.org/1999/xlink">
<g id="graph0" class="graph" transform="scale(1 1) rotate(0) translate(4 406)">
<polygon fill="white" stroke="transparent" points="-4,4 -4,-406 1338,-406 1338,4 -4,4"/>
<!-- n1 -->
<g id="node1" class="node">
<title>n1</title>
<polygon fill="lightblue" stroke="black" points="560.74,-384 467.62,-402 281.38,-402 188.26,-384 281.38,-366 467.62,-366 560.74,-384"/>
<text text-anchor="middle" x="374.5" y="-380.3" font-family="Arial" font-size="14.00">Illustrate plants with and without water.</text>
</g>
<!-- n2 -->
<g id="node2" class="node">
<title>n2</title>
<polygon fill="#fffdd0" stroke="black" points="332.5,-280 84.5,-280 84.5,-244 332.5,-244 332.5,-280"/>
<text text-anchor="middle" x="208.5" y="-258.3" font-family="Arial" font-size="14.00">Healthy plant with vibrant green leaves</text>
</g>
<!-- n1&#45;&gt;n2 -->
<g id="edge1" class="edge">
<title>n1&#45;&gt;n2</title>
<path fill="none" stroke="black" d="M350.72,-365.81C321.75,-344.87 272.7,-309.41 240.46,-286.1"/>
<polygon fill="black" stroke="black" points="242.4,-283.18 232.24,-280.16 238.3,-288.85 242.4,-283.18"/>
</g>
<!-- n3 -->
<g id="node3" class="node">
<title>n3</title>
<polygon fill="#fffdd0" stroke="black" points="730.5,-280 428.5,-280 428.5,-244 730.5,-244 730.5,-280"/>
<text text-anchor="middle" x="579.5" y="-258.3" font-family="Arial" font-size="14.00">Wilting plant with droopy, brown&#45;patched leaves</text>
</g>
<!-- n1&#45;&gt;n3 -->
<g id="edge2" class="edge">
<title>n1&#45;&gt;n3</title>
<path fill="none" stroke="black" d="M403.87,-365.81C440.1,-344.6 501.77,-308.5 541.55,-285.21"/>
<polygon fill="black" stroke="black" points="543.32,-288.23 550.18,-280.16 539.78,-282.19 543.32,-288.23"/>
</g>
<!-- n4 -->
<g id="node4" class="node">
<title>n4</title>
<path fill="palegreen" stroke="black" d="M329,-158C329,-158 12,-158 12,-158 6,-158 0,-152 0,-146 0,-146 0,-134 0,-134 0,-128 6,-122 12,-122 12,-122 329,-122 329,-122 335,-122 341,-128 341,-134 341,-134 341,-146 341,-146 341,-152 335,-158 329,-158"/>
<text text-anchor="middle" x="170.5" y="-136.3" font-family="Arial" font-size="14.00">Student understands water is essential for plant health</text>
</g>
<!-- n2&#45;&gt;n4 -->
<g id="edge3" class="edge">
<title>n2&#45;&gt;n4</title>
<path fill="none" stroke="black" d="M203.06,-243.81C196.76,-223.94 186.33,-190.99 178.97,-167.76"/>
<polygon fill="black" stroke="black" points="182.29,-166.64 175.93,-158.16 175.61,-168.75 182.29,-166.64"/>
</g>
<!-- n5 -->
<g id="node5" class="node">
<title>n5</title>
<path fill="palegreen" stroke="black" d="M747.5,-158C747.5,-158 411.5,-158 411.5,-158 405.5,-158 399.5,-152 399.5,-146 399.5,-146 399.5,-134 399.5,-134 399.5,-128 405.5,-122 411.5,-122 411.5,-122 747.5,-122 747.5,-122 753.5,-122 759.5,-128 759.5,-134 759.5,-134 759.5,-146 759.5,-146 759.5,-152 753.5,-158 747.5,-158"/>
<text text-anchor="middle" x="579.5" y="-136.3" font-family="Arial" font-size="14.00">Student recognizes visibly the effects of water deprivation</text>
</g>
<!-- n3&#45;&gt;n5 -->
<g id="edge4" class="edge">
<title>n3&#45;&gt;n5</title>
<path fill="none" stroke="black" d="M579.5,-243.81C579.5,-224.11 579.5,-191.58 579.5,-168.39"/>
<polygon fill="black" stroke="black" points="583,-168.16 579.5,-158.16 576,-168.16 583,-168.16"/>
</g>
<!-- n6 -->
<g id="node6" class="node">
<title>n6</title>
<polygon fill="lightcoral" stroke="black" points="1075.5,-158 817,-140 1075.5,-122 1334,-140 1075.5,-158"/>
<text text-anchor="middle" x="1075.5" y="-136.3" font-family="Arial" font-size="14.00">Use of non&#45;scientific labels like &#39;happy plant&#39;</text>
</g>
<!-- n3&#45;&gt;n6 -->
<g id="edge5" class="edge">
<title>n3&#45;&gt;n6</title>
<path fill="none" stroke="black" d="M649.78,-244C746.08,-220.7 917.72,-179.17 1010.9,-156.62"/>
<polygon fill="black" stroke="black" points="1011.9,-159.98 1020.8,-154.23 1010.26,-153.17 1011.9,-159.98"/>
</g>
<!-- n7 -->
<g id="node7" class="node">
<title>n7</title>
<polygon fill="#f28e8e" stroke="black" points="1327,-36 824,-36 824,0 1327,0 1327,-36"/>
<text text-anchor="middle" x="1075.5" y="-14.3" font-family="Arial" font-size="14.00">Encourage the use of specific scientific terms such as &#39;hydrated&#39; and &#39;dehydrated&#39;</text>
</g>
<!-- n6&#45;&gt;n7 -->
<g id="edge6" class="edge">
<title>n6&#45;&gt;n7</title>
<path fill="none" stroke="black" d="M1075.5,-121.81C1075.5,-102.11 1075.5,-69.58 1075.5,-46.39"/>
<polygon fill="black" stroke="black" points="1079,-46.16 1075.5,-36.16 1072,-46.16 1079,-46.16"/>
</g>
</g>
</svg>
