<?xml version="1.0" encoding="UTF-8" standalone="no"?>
<!DOCTYPE svg PUBLIC "-//W3C//DTD SVG 1.1//EN"
 "http://www.w3.org/Graphics/SVG/1.1/DTD/svg11.dtd">
<!-- Generated by graphviz version 2.43.0 (0)
 -->
<!-- Pages: 1 -->
<svg width="941pt" height="288pt"
 viewBox="0.00 0.00 941.00 288.00" xmlns="http://www.w3.org/2000/svg" xmlns:xlink="http://www.w3.org/1999/xlink">
<g id="graph0" class="graph" transform="scale(1 1) rotate(0) translate(4 284)">
<polygon fill="white" stroke="transparent" points="-4,4 -4,-284 937,-284 937,4 -4,4"/>
<!-- n1 -->
<g id="node1" class="node">
<title>n1</title>
<polygon fill="lightblue" stroke="black" points="662.5,-262 570.5,-280 386.5,-280 294.5,-262 386.5,-244 570.5,-244 662.5,-262"/>
<text text-anchor="middle" x="478.5" y="-258.3" font-family="Arial" font-size="14.00">Illustrate plants with and without water</text>
</g>
<!-- n2 -->
<g id="node2" class="node">
<title>n2</title>
<polygon fill="#fffdd0" stroke="black" points="215,-158 0,-158 0,-122 215,-122 215,-158"/>
<text text-anchor="middle" x="107.5" y="-136.3" font-family="Arial" font-size="14.00">Healthy, green plant with sunlight</text>
</g>
<!-- n1&#45;&gt;n2 -->
<g id="edge1" class="edge">
<title>n1&#45;&gt;n2</title>
<path fill="none" stroke="black" d="M425.74,-243.93C358.29,-222.12 241.68,-184.4 169.9,-161.18"/>
<polygon fill="black" stroke="black" points="170.67,-157.75 160.08,-158.01 168.52,-164.41 170.67,-157.75"/>
</g>
<!-- n3 -->
<g id="node3" class="node">
<title>n3</title>
<polygon fill="#fffdd0" stroke="black" points="447.5,-158 273.5,-158 273.5,-122 447.5,-122 447.5,-158"/>
<text text-anchor="middle" x="360.5" y="-136.3" font-family="Arial" font-size="14.00">Wilting plant without water</text>
</g>
<!-- n1&#45;&gt;n3 -->
<g id="edge2" class="edge">
<title>n1&#45;&gt;n3</title>
<path fill="none" stroke="black" d="M461.59,-243.81C441.35,-223.22 407.32,-188.61 384.4,-165.3"/>
<polygon fill="black" stroke="black" points="386.89,-162.84 377.38,-158.16 381.9,-167.74 386.89,-162.84"/>
</g>
<!-- n4 -->
<g id="node4" class="node">
<title>n4</title>
<polygon fill="#fffdd0" stroke="black" points="933,-158 748,-158 748,-122 933,-122 933,-158"/>
<text text-anchor="middle" x="840.5" y="-136.3" font-family="Arial" font-size="14.00">Thriving plant in the sunlight</text>
</g>
<!-- n1&#45;&gt;n4 -->
<g id="edge3" class="edge">
<title>n1&#45;&gt;n4</title>
<path fill="none" stroke="black" d="M529.98,-243.93C595.79,-222.12 709.57,-184.4 779.61,-161.18"/>
<polygon fill="black" stroke="black" points="780.8,-164.47 789.2,-158.01 778.61,-157.83 780.8,-164.47"/>
</g>
<!-- n5 -->
<g id="node5" class="node">
<title>n5</title>
<polygon fill="#fffdd0" stroke="black" points="689.5,-158 505.5,-158 505.5,-122 689.5,-122 689.5,-158"/>
<text text-anchor="middle" x="597.5" y="-136.3" font-family="Arial" font-size="14.00">Plant not thriving in the dark</text>
</g>
<!-- n1&#45;&gt;n5 -->
<g id="edge4" class="edge">
<title>n1&#45;&gt;n5</title>
<path fill="none" stroke="black" d="M495.55,-243.81C515.96,-223.22 550.28,-188.61 573.4,-165.3"/>
<polygon fill="black" stroke="black" points="575.92,-167.73 580.48,-158.16 570.95,-162.8 575.92,-167.73"/>
</g>
<!-- n6 -->
<g id="node6" class="node">
<title>n6</title>
<path fill="palegreen" stroke="black" d="M291,-36C291,-36 100,-36 100,-36 94,-36 88,-30 88,-24 88,-24 88,-12 88,-12 88,-6 94,0 100,0 100,0 291,0 291,0 297,0 303,-6 303,-12 303,-12 303,-24 303,-24 303,-30 297,-36 291,-36"/>
<text text-anchor="middle" x="195.5" y="-14.3" font-family="Arial" font-size="14.00">Plants need water to stay healthy</text>
</g>
<!-- n2&#45;&gt;n6 -->
<g id="edge5" class="edge">
<title>n2&#45;&gt;n6</title>
<path fill="none" stroke="black" d="M120.11,-121.81C134.94,-101.58 159.71,-67.81 176.78,-44.52"/>
<polygon fill="black" stroke="black" points="179.82,-46.29 182.92,-36.16 174.18,-42.15 179.82,-46.29"/>
</g>
<!-- n3&#45;&gt;n6 -->
<g id="edge6" class="edge">
<title>n3&#45;&gt;n6</title>
<path fill="none" stroke="black" d="M336.86,-121.81C308.07,-100.87 259.31,-65.41 227.26,-42.1"/>
<polygon fill="black" stroke="black" points="229.24,-39.22 219.1,-36.16 225.13,-44.88 229.24,-39.22"/>
</g>
<!-- n8 -->
<g id="node7" class="node">
<title>n8</title>
<path fill="palegreen" stroke="black" d="M631.5,-36C631.5,-36 417.5,-36 417.5,-36 411.5,-36 405.5,-30 405.5,-24 405.5,-24 405.5,-12 405.5,-12 405.5,-6 411.5,0 417.5,0 417.5,0 631.5,0 631.5,0 637.5,0 643.5,-6 643.5,-12 643.5,-12 643.5,-24 643.5,-24 643.5,-30 637.5,-36 631.5,-36"/>
<text text-anchor="middle" x="524.5" y="-14.3" font-family="Arial" font-size="14.00">Plants lack growth without water/light</text>
</g>
<!-- n3&#45;&gt;n8 -->
<g id="edge7" class="edge">
<title>n3&#45;&gt;n8</title>
<path fill="none" stroke="black" d="M384,-121.81C412.62,-100.87 461.07,-65.41 492.93,-42.1"/>
<polygon fill="black" stroke="black" points="495.04,-44.89 501.05,-36.16 490.91,-39.24 495.04,-44.89"/>
</g>
<!-- n7 -->
<g id="node8" class="node">
<title>n7</title>
<path fill="palegreen" stroke="black" d="M901.5,-36C901.5,-36 735.5,-36 735.5,-36 729.5,-36 723.5,-30 723.5,-24 723.5,-24 723.5,-12 723.5,-12 723.5,-6 729.5,0 735.5,0 735.5,0 901.5,0 901.5,0 907.5,0 913.5,-6 913.5,-12 913.5,-12 913.5,-24 913.5,-24 913.5,-30 907.5,-36 901.5,-36"/>
<text text-anchor="middle" x="818.5" y="-14.3" font-family="Arial" font-size="14.00">Plants need sunlight to thrive</text>
</g>
<!-- n4&#45;&gt;n7 -->
<g id="edge8" class="edge">
<title>n4&#45;&gt;n7</title>
<path fill="none" stroke="black" d="M837.35,-121.81C833.72,-102.02 827.72,-69.29 823.46,-46.08"/>
<polygon fill="black" stroke="black" points="826.89,-45.37 821.65,-36.16 820,-46.63 826.89,-45.37"/>
</g>
<!-- n5&#45;&gt;n8 -->
<g id="edge9" class="edge">
<title>n5&#45;&gt;n8</title>
<path fill="none" stroke="black" d="M587.04,-121.81C574.79,-101.67 554.37,-68.1 540.21,-44.83"/>
<polygon fill="black" stroke="black" points="543.13,-42.89 534.94,-36.16 537.14,-46.52 543.13,-42.89"/>
</g>
<!-- n5&#45;&gt;n7 -->
<g id="edge10" class="edge">
<title>n5&#45;&gt;n7</title>
<path fill="none" stroke="black" d="M629.16,-121.81C668.3,-100.55 734.98,-64.35 777.86,-41.07"/>
<polygon fill="black" stroke="black" points="779.77,-44.01 786.89,-36.16 776.43,-37.86 779.77,-44.01"/>
</g>
</g>
</svg>
