<?xml version="1.0" encoding="UTF-8" standalone="no"?>
<!DOCTYPE svg PUBLIC "-//W3C//DTD SVG 1.1//EN"
 "http://www.w3.org/Graphics/SVG/1.1/DTD/svg11.dtd">
<!-- Generated by graphviz version 2.43.0 (0)
 -->
<!-- Pages: 1 -->
<svg width="1459pt" height="410pt"
 viewBox="0.00 0.00 1458.69 410.00" xmlns="http://www.w3.org/2000/svg" xmlns:xlink="http://www.w3.org/1999/xlink">
<g id="graph0" class="graph" transform="scale(1 1) rotate(0) translate(4 406)">
<polygon fill="white" stroke="transparent" points="-4,4 -4,-406 1454.69,-406 1454.69,4 -4,4"/>
<!-- n1 -->
<g id="node1" class="node">
<title>n1</title>
<polygon fill="lightblue" stroke="black" points="617,-384 503.25,-402 275.75,-402 162,-384 275.75,-366 503.25,-366 617,-384"/>
<text text-anchor="middle" x="389.5" y="-380.3" font-family="Arial" font-size="14.00">Illustrate plants with and without water and light.</text>
</g>
<!-- n2 -->
<g id="node2" class="node">
<title>n2</title>
<polygon fill="#fffdd0" stroke="black" points="347,-280 0,-280 0,-244 347,-244 347,-280"/>
<text text-anchor="middle" x="173.5" y="-258.3" font-family="Arial" font-size="14.00">Healthy plant with upright stem and bright green leaves</text>
</g>
<!-- n1&#45;&gt;n2 -->
<g id="edge1" class="edge">
<title>n1&#45;&gt;n2</title>
<path fill="none" stroke="black" d="M358.55,-365.81C320.3,-344.55 255.13,-308.35 213.22,-285.07"/>
<polygon fill="black" stroke="black" points="214.83,-281.96 204.39,-280.16 211.43,-288.08 214.83,-281.96"/>
</g>
<!-- n3 -->
<g id="node3" class="node">
<title>n3</title>
<polygon fill="#fffdd0" stroke="black" points="805.5,-280 405.5,-280 405.5,-244 805.5,-244 805.5,-280"/>
<text text-anchor="middle" x="605.5" y="-258.3" font-family="Arial" font-size="14.00">Unhealthy plant with drooping, wilting leaves, and color changes</text>
</g>
<!-- n1&#45;&gt;n3 -->
<g id="edge2" class="edge">
<title>n1&#45;&gt;n3</title>
<path fill="none" stroke="black" d="M420.45,-365.81C458.7,-344.55 523.87,-308.35 565.78,-285.07"/>
<polygon fill="black" stroke="black" points="567.57,-288.08 574.61,-280.16 564.17,-281.96 567.57,-288.08"/>
</g>
<!-- n4 -->
<g id="node4" class="node">
<title>n4</title>
<path fill="palegreen" stroke="black" d="M314,-158C314,-158 33,-158 33,-158 27,-158 21,-152 21,-146 21,-146 21,-134 21,-134 21,-128 27,-122 33,-122 33,-122 314,-122 314,-122 320,-122 326,-128 326,-134 326,-134 326,-146 326,-146 326,-152 320,-158 314,-158"/>
<text text-anchor="middle" x="173.5" y="-136.3" font-family="Arial" font-size="14.00">Understands healthy plants need water and light</text>
</g>
<!-- n2&#45;&gt;n4 -->
<g id="edge3" class="edge">
<title>n2&#45;&gt;n4</title>
<path fill="none" stroke="black" d="M173.5,-243.81C173.5,-224.11 173.5,-191.58 173.5,-168.39"/>
<polygon fill="black" stroke="black" points="177,-168.16 173.5,-158.16 170,-168.16 177,-168.16"/>
</g>
<!-- n5 -->
<g id="node5" class="node">
<title>n5</title>
<path fill="palegreen" stroke="black" d="M748.5,-158C748.5,-158 418.5,-158 418.5,-158 412.5,-158 406.5,-152 406.5,-146 406.5,-146 406.5,-134 406.5,-134 406.5,-128 412.5,-122 418.5,-122 418.5,-122 748.5,-122 748.5,-122 754.5,-122 760.5,-128 760.5,-134 760.5,-134 760.5,-146 760.5,-146 760.5,-152 754.5,-158 748.5,-158"/>
<text text-anchor="middle" x="583.5" y="-136.3" font-family="Arial" font-size="14.00">Recognizes general plant distress (wilting, color change)</text>
</g>
<!-- n3&#45;&gt;n5 -->
<g id="edge4" class="edge">
<title>n3&#45;&gt;n5</title>
<path fill="none" stroke="black" d="M602.35,-243.81C598.72,-224.02 592.72,-191.29 588.46,-168.08"/>
<polygon fill="black" stroke="black" points="591.89,-167.37 586.65,-158.16 585,-168.63 591.89,-167.37"/>
</g>
<!-- n6 -->
<g id="node6" class="node">
<title>n6</title>
<polygon fill="lightcoral" stroke="black" points="1134.5,-158 818.12,-140 1134.5,-122 1450.88,-140 1134.5,-158"/>
<text text-anchor="middle" x="1134.5" y="-136.3" font-family="Arial" font-size="14.00">Incomplete differentiation of water vs. light deficiencies</text>
</g>
<!-- n3&#45;&gt;n6 -->
<g id="edge5" class="edge">
<title>n3&#45;&gt;n6</title>
<path fill="none" stroke="black" d="M680.45,-244C782.68,-220.81 964.51,-179.56 1064.2,-156.94"/>
<polygon fill="black" stroke="black" points="1065.22,-160.3 1074.2,-154.67 1063.67,-153.47 1065.22,-160.3"/>
</g>
<!-- n7 -->
<g id="node7" class="node">
<title>n7</title>
<polygon fill="#f28e8e" stroke="black" points="1324.5,-36 944.5,-36 944.5,0 1324.5,0 1324.5,-36"/>
<text text-anchor="middle" x="1134.5" y="-14.3" font-family="Arial" font-size="14.00">Encourage focus on specific signs of water or light deficiency</text>
</g>
<!-- n6&#45;&gt;n7 -->
<g id="edge6" class="edge">
<title>n6&#45;&gt;n7</title>
<path fill="none" stroke="black" d="M1134.5,-121.81C1134.5,-102.11 1134.5,-69.58 1134.5,-46.39"/>
<polygon fill="black" stroke="black" points="1138,-46.16 1134.5,-36.16 1131,-46.16 1138,-46.16"/>
</g>
</g>
</svg>
