<?xml version="1.0" encoding="UTF-8" standalone="no"?>
<!DOCTYPE svg PUBLIC "-//W3C//DTD SVG 1.1//EN"
 "http://www.w3.org/Graphics/SVG/1.1/DTD/svg11.dtd">
<!-- Generated by graphviz version 2.43.0 (0)
 -->
<!-- Pages: 1 -->
<svg width="2130pt" height="288pt"
 viewBox="0.00 0.00 2130.12 288.00" xmlns="http://www.w3.org/2000/svg" xmlns:xlink="http://www.w3.org/1999/xlink">
<g id="graph0" class="graph" transform="scale(1 1) rotate(0) translate(4 284)">
<polygon fill="white" stroke="transparent" points="-4,4 -4,-284 2126.12,-284 2126.12,4 -4,4"/>
<!-- n1 -->
<g id="node1" class="node">
<title>n1</title>
<polygon fill="lightblue" stroke="black" points="1285.82,-262 1163.41,-280 918.59,-280 796.18,-262 918.59,-244 1163.41,-244 1285.82,-262"/>
<text text-anchor="middle" x="1041" y="-258.3" font-family="Arial" font-size="14.00">Draw a habitat and the different living things in each</text>
</g>
<!-- n2 -->
<g id="node2" class="node">
<title>n2</title>
<polygon fill="#fffdd0" stroke="black" points="387,-158 107,-158 107,-122 387,-122 387,-158"/>
<text text-anchor="middle" x="247" y="-136.3" font-family="Arial" font-size="14.00">Playground with oak tree, squirrel, and birds</text>
</g>
<!-- n1&#45;&gt;n2 -->
<g id="edge1" class="edge">
<title>n1&#45;&gt;n2</title>
<path fill="none" stroke="black" d="M928.5,-244C780.73,-221.66 522.17,-182.59 369.56,-159.52"/>
<polygon fill="black" stroke="black" points="370.07,-156.06 359.66,-158.03 369.03,-162.98 370.07,-156.06"/>
</g>
<!-- n3 -->
<g id="node3" class="node">
<title>n3</title>
<polygon fill="#fffdd0" stroke="black" points="817.5,-158 476.5,-158 476.5,-122 817.5,-122 817.5,-158"/>
<text text-anchor="middle" x="647" y="-136.3" font-family="Arial" font-size="14.00">Garden with roses, daisies, grass, butterfly, and snake</text>
</g>
<!-- n1&#45;&gt;n3 -->
<g id="edge2" class="edge">
<title>n1&#45;&gt;n3</title>
<path fill="none" stroke="black" d="M984.97,-243.93C913.19,-222.07 788.99,-184.25 712.8,-161.04"/>
<polygon fill="black" stroke="black" points="713.43,-157.57 702.84,-158.01 711.39,-164.27 713.43,-157.57"/>
</g>
<!-- n4 -->
<g id="node4" class="node">
<title>n4</title>
<polygon fill="#fffdd0" stroke="black" points="1183.5,-158 898.5,-158 898.5,-122 1183.5,-122 1183.5,-158"/>
<text text-anchor="middle" x="1041" y="-136.3" font-family="Arial" font-size="14.00">Forest with tall trees, deer, rabbit, and lizards</text>
</g>
<!-- n1&#45;&gt;n4 -->
<g id="edge3" class="edge">
<title>n1&#45;&gt;n4</title>
<path fill="none" stroke="black" d="M1041,-243.81C1041,-224.11 1041,-191.58 1041,-168.39"/>
<polygon fill="black" stroke="black" points="1044.5,-168.16 1041,-158.16 1037.5,-168.16 1044.5,-168.16"/>
</g>
<!-- n5 -->
<g id="node5" class="node">
<title>n5</title>
<polygon fill="#fffdd0" stroke="black" points="1534,-158 1262,-158 1262,-122 1534,-122 1534,-158"/>
<text text-anchor="middle" x="1398" y="-136.3" font-family="Arial" font-size="14.00">Pond with fish, frog on lily pad, and cattails</text>
</g>
<!-- n1&#45;&gt;n5 -->
<g id="edge4" class="edge">
<title>n1&#45;&gt;n5</title>
<path fill="none" stroke="black" d="M1091.8,-243.93C1156.5,-222.16 1268.4,-184.56 1337.5,-161.33"/>
<polygon fill="black" stroke="black" points="1339.03,-164.51 1347.4,-158.01 1336.81,-157.87 1339.03,-164.51"/>
</g>
<!-- n10 -->
<g id="node6" class="node">
<title>n10</title>
<polygon fill="lightcoral" stroke="black" points="1862,-158 1601.76,-140 1862,-122 2122.24,-140 1862,-158"/>
<text text-anchor="middle" x="1862" y="-136.3" font-family="Arial" font-size="14.00">Potential struggles with overcrowded spaces</text>
</g>
<!-- n1&#45;&gt;n10 -->
<g id="edge5" class="edge">
<title>n1&#45;&gt;n10</title>
<path fill="none" stroke="black" d="M1157.3,-244C1323,-219.77 1623.5,-175.85 1772.8,-154.03"/>
<polygon fill="black" stroke="black" points="1773.51,-157.46 1782.9,-152.56 1772.5,-150.54 1773.51,-157.46"/>
</g>
<!-- n6 -->
<g id="node7" class="node">
<title>n6</title>
<path fill="palegreen" stroke="black" d="M374,-36C374,-36 12,-36 12,-36 6,-36 0,-30 0,-24 0,-24 0,-12 0,-12 0,-6 6,0 12,0 12,0 374,0 374,0 380,0 386,-6 386,-12 386,-12 386,-24 386,-24 386,-30 380,-36 374,-36"/>
<text text-anchor="middle" x="193" y="-14.3" font-family="Arial" font-size="14.00">Accurate representation of biodiversity in a playground habitat</text>
</g>
<!-- n2&#45;&gt;n6 -->
<g id="edge6" class="edge">
<title>n2&#45;&gt;n6</title>
<path fill="none" stroke="black" d="M239.26,-121.81C230.28,-101.85 215.36,-68.7 204.9,-45.45"/>
<polygon fill="black" stroke="black" points="208.02,-43.84 200.72,-36.16 201.63,-46.72 208.02,-43.84"/>
</g>
<!-- n7 -->
<g id="node8" class="node">
<title>n7</title>
<path fill="palegreen" stroke="black" d="M794,-36C794,-36 456,-36 456,-36 450,-36 444,-30 444,-24 444,-24 444,-12 444,-12 444,-6 450,0 456,0 456,0 794,0 794,0 800,0 806,-6 806,-12 806,-12 806,-24 806,-24 806,-30 800,-36 794,-36"/>
<text text-anchor="middle" x="625" y="-14.3" font-family="Arial" font-size="14.00">Accurate representation of biodiversity in a garden habitat</text>
</g>
<!-- n3&#45;&gt;n7 -->
<g id="edge7" class="edge">
<title>n3&#45;&gt;n7</title>
<path fill="none" stroke="black" d="M643.85,-121.81C640.22,-102.02 634.22,-69.29 629.96,-46.08"/>
<polygon fill="black" stroke="black" points="633.39,-45.37 628.15,-36.16 626.5,-46.63 633.39,-45.37"/>
</g>
<!-- n8 -->
<g id="node9" class="node">
<title>n8</title>
<path fill="palegreen" stroke="black" d="M1205.5,-36C1205.5,-36 876.5,-36 876.5,-36 870.5,-36 864.5,-30 864.5,-24 864.5,-24 864.5,-12 864.5,-12 864.5,-6 870.5,0 876.5,0 876.5,0 1205.5,0 1205.5,0 1211.5,0 1217.5,-6 1217.5,-12 1217.5,-12 1217.5,-24 1217.5,-24 1217.5,-30 1211.5,-36 1205.5,-36"/>
<text text-anchor="middle" x="1041" y="-14.3" font-family="Arial" font-size="14.00">Accurate representation of biodiversity in a forest habitat</text>
</g>
<!-- n4&#45;&gt;n8 -->
<g id="edge8" class="edge">
<title>n4&#45;&gt;n8</title>
<path fill="none" stroke="black" d="M1041,-121.81C1041,-102.11 1041,-69.58 1041,-46.39"/>
<polygon fill="black" stroke="black" points="1044.5,-46.16 1041,-36.16 1037.5,-46.16 1044.5,-46.16"/>
</g>
<!-- n9 -->
<g id="node10" class="node">
<title>n9</title>
<path fill="palegreen" stroke="black" d="M1614,-36C1614,-36 1288,-36 1288,-36 1282,-36 1276,-30 1276,-24 1276,-24 1276,-12 1276,-12 1276,-6 1282,0 1288,0 1288,0 1614,0 1614,0 1620,0 1626,-6 1626,-12 1626,-12 1626,-24 1626,-24 1626,-30 1620,-36 1614,-36"/>
<text text-anchor="middle" x="1451" y="-14.3" font-family="Arial" font-size="14.00">Accurate representation of biodiversity in a pond habitat</text>
</g>
<!-- n5&#45;&gt;n9 -->
<g id="edge9" class="edge">
<title>n5&#45;&gt;n9</title>
<path fill="none" stroke="black" d="M1405.6,-121.81C1414.4,-101.85 1429.1,-68.7 1439.3,-45.45"/>
<polygon fill="black" stroke="black" points="1442.56,-46.72 1443.4,-36.16 1436.16,-43.9 1442.56,-46.72"/>
</g>
<!-- n11 -->
<g id="node11" class="node">
<title>n11</title>
<polygon fill="#f28e8e" stroke="black" points="2060,-36 1684,-36 1684,0 2060,0 2060,-36"/>
<text text-anchor="middle" x="1872" y="-14.3" font-family="Arial" font-size="14.00">Consider spacing to avoid overcrowding and increase clarity</text>
</g>
<!-- n10&#45;&gt;n11 -->
<g id="edge10" class="edge">
<title>n10&#45;&gt;n11</title>
<path fill="none" stroke="black" d="M1863.4,-122.06C1865,-102.43 1867.8,-69.8 1869.7,-46.51"/>
<polygon fill="black" stroke="black" points="1873.21,-46.51 1870.6,-36.24 1866.24,-45.9 1873.21,-46.51"/>
</g>
</g>
</svg>
