<?xml version="1.0" encoding="UTF-8" standalone="no"?>
<!DOCTYPE svg PUBLIC "-//W3C//DTD SVG 1.1//EN"
 "http://www.w3.org/Graphics/SVG/1.1/DTD/svg11.dtd">
<!-- Generated by graphviz version 2.43.0 (0)
 -->
<!-- Pages: 1 -->
<svg width="2290pt" height="410pt"
 viewBox="0.00 0.00 2290.00 410.00" xmlns="http://www.w3.org/2000/svg" xmlns:xlink="http://www.w3.org/1999/xlink">
<g id="graph0" class="graph" transform="scale(1 1) rotate(0) translate(4 406)">
<polygon fill="white" stroke="transparent" points="-4,4 -4,-406 2286,-406 2286,4 -4,4"/>
<!-- n1 -->
<g id="node1" class="node">
<title>n1</title>
<polygon fill="lightblue" stroke="black" points="893.5,-384 729.5,-402 401.5,-402 237.5,-384 401.5,-366 729.5,-366 893.5,-384"/>
<text text-anchor="middle" x="565.5" y="-380.3" font-family="Arial" font-size="14.00">Draw reversible and irreversible changes (ice melting vs. egg cooking)</text>
</g>
<!-- n2 -->
<g id="node2" class="node">
<title>n2</title>
<polygon fill="#fffdd0" stroke="black" points="681,-280 450,-280 450,-244 681,-244 681,-280"/>
<text text-anchor="middle" x="565.5" y="-258.3" font-family="Arial" font-size="14.00">Solid Ice Cube to Water with arrows</text>
</g>
<!-- n1&#45;&gt;n2 -->
<g id="edge1" class="edge">
<title>n1&#45;&gt;n2</title>
<path fill="none" stroke="black" d="M565.5,-365.81C565.5,-346.11 565.5,-313.58 565.5,-290.39"/>
<polygon fill="black" stroke="black" points="569,-290.16 565.5,-280.16 562,-290.16 569,-290.16"/>
</g>
<!-- n3 -->
<g id="node3" class="node">
<title>n3</title>
<polygon fill="#fffdd0" stroke="black" points="383,-280 218,-280 218,-244 383,-244 383,-280"/>
<text text-anchor="middle" x="300.5" y="-258.3" font-family="Arial" font-size="14.00">Refrozen Ice with arrows</text>
</g>
<!-- n1&#45;&gt;n3 -->
<g id="edge2" class="edge">
<title>n1&#45;&gt;n3</title>
<path fill="none" stroke="black" d="M527.81,-365.93C480.33,-344.43 398.72,-307.48 347.29,-284.19"/>
<polygon fill="black" stroke="black" points="348.61,-280.95 338.06,-280.01 345.73,-287.32 348.61,-280.95"/>
</g>
<!-- n4 -->
<g id="node4" class="node">
<title>n4</title>
<polygon fill="#fffdd0" stroke="black" points="1555.5,-280 1273.5,-280 1273.5,-244 1555.5,-244 1555.5,-280"/>
<text text-anchor="middle" x="1414.5" y="-258.3" font-family="Arial" font-size="14.00">Uncooked Egg to Cooked Egg with an arrow</text>
</g>
<!-- n1&#45;&gt;n4 -->
<g id="edge3" class="edge">
<title>n1&#45;&gt;n4</title>
<path fill="none" stroke="black" d="M685.79,-366C843.96,-343.64 1120.8,-304.51 1283.9,-281.45"/>
<polygon fill="black" stroke="black" points="1284.58,-284.89 1294,-280.03 1283.61,-277.96 1284.58,-284.89"/>
</g>
<!-- n5 -->
<g id="node5" class="node">
<title>n5</title>
<path fill="palegreen" stroke="black" d="M219,-158C219,-158 12,-158 12,-158 6,-158 0,-152 0,-146 0,-146 0,-134 0,-134 0,-128 6,-122 12,-122 12,-122 219,-122 219,-122 225,-122 231,-128 231,-134 231,-134 231,-146 231,-146 231,-152 225,-158 219,-158"/>
<text text-anchor="middle" x="115.5" y="-136.3" font-family="Arial" font-size="14.00">Reversibility of ice change indicated</text>
</g>
<!-- n2&#45;&gt;n5 -->
<g id="edge4" class="edge">
<title>n2&#45;&gt;n5</title>
<path fill="none" stroke="black" d="M501.5,-243.93C419.03,-221.94 275.94,-183.78 189.06,-160.62"/>
<polygon fill="black" stroke="black" points="189.84,-157.21 179.28,-158.01 188.04,-163.97 189.84,-157.21"/>
</g>
<!-- n6 -->
<g id="node6" class="node">
<title>n6</title>
<path fill="palegreen" stroke="black" d="M478,-158C478,-158 301,-158 301,-158 295,-158 289,-152 289,-146 289,-146 289,-134 289,-134 289,-128 295,-122 301,-122 301,-122 478,-122 478,-122 484,-122 490,-128 490,-134 490,-134 490,-146 490,-146 490,-152 484,-158 478,-158"/>
<text text-anchor="middle" x="389.5" y="-136.3" font-family="Arial" font-size="14.00">Labeled as Reversible Change</text>
</g>
<!-- n2&#45;&gt;n6 -->
<g id="edge5" class="edge">
<title>n2&#45;&gt;n6</title>
<path fill="none" stroke="black" d="M540.28,-243.81C509.44,-222.78 457.12,-187.11 422.94,-163.8"/>
<polygon fill="black" stroke="black" points="424.9,-160.9 414.67,-158.16 420.96,-166.69 424.9,-160.9"/>
</g>
<!-- n8 -->
<g id="node7" class="node">
<title>n8</title>
<path fill="palegreen" stroke="black" d="M1423.5,-158C1423.5,-158 1007.5,-158 1007.5,-158 1001.5,-158 995.5,-152 995.5,-146 995.5,-146 995.5,-134 995.5,-134 995.5,-128 1001.5,-122 1007.5,-122 1007.5,-122 1423.5,-122 1423.5,-122 1429.5,-122 1435.5,-128 1435.5,-134 1435.5,-134 1435.5,-146 1435.5,-146 1435.5,-152 1429.5,-158 1423.5,-158"/>
<text text-anchor="middle" x="1215.5" y="-136.3" font-family="Arial" font-size="14.00">Correct sequence of changes (Ice to Water to Ice, Egg to Cooked Egg)</text>
</g>
<!-- n2&#45;&gt;n8 -->
<g id="edge6" class="edge">
<title>n2&#45;&gt;n8</title>
<path fill="none" stroke="black" d="M657.59,-244C777.96,-221.78 988.13,-182.98 1113.3,-159.87"/>
<polygon fill="black" stroke="black" points="1114.1,-163.28 1123.3,-158.03 1112.83,-156.4 1114.1,-163.28"/>
</g>
<!-- n9 -->
<g id="node8" class="node">
<title>n9</title>
<polygon fill="lightcoral" stroke="black" points="742.5,-158 547.5,-140 742.5,-122 937.5,-140 742.5,-158"/>
<text text-anchor="middle" x="742.5" y="-136.3" font-family="Arial" font-size="14.00">Missing &#39;liquid&#39; label under water</text>
</g>
<!-- n2&#45;&gt;n9 -->
<g id="edge7" class="edge">
<title>n2&#45;&gt;n9</title>
<path fill="none" stroke="black" d="M590.86,-243.81C622.71,-222.21 677.33,-185.18 711.6,-161.95"/>
<polygon fill="black" stroke="black" points="713.95,-164.59 720.26,-156.08 710.02,-158.79 713.95,-164.59"/>
</g>
<!-- n3&#45;&gt;n5 -->
<g id="edge8" class="edge">
<title>n3&#45;&gt;n5</title>
<path fill="none" stroke="black" d="M273.99,-243.81C241.57,-222.78 186.58,-187.11 150.66,-163.8"/>
<polygon fill="black" stroke="black" points="152.25,-160.66 141.96,-158.16 148.45,-166.54 152.25,-160.66"/>
</g>
<!-- n4&#45;&gt;n8 -->
<g id="edge9" class="edge">
<title>n4&#45;&gt;n8</title>
<path fill="none" stroke="black" d="M1386,-243.81C1351,-222.69 1291.5,-186.81 1252.8,-163.51"/>
<polygon fill="black" stroke="black" points="1254.36,-160.36 1244,-158.16 1250.73,-166.35 1254.36,-160.36"/>
</g>
<!-- n7 -->
<g id="node9" class="node">
<title>n7</title>
<path fill="palegreen" stroke="black" d="M1721,-158C1721,-158 1506,-158 1506,-158 1500,-158 1494,-152 1494,-146 1494,-146 1494,-134 1494,-134 1494,-128 1500,-122 1506,-122 1506,-122 1721,-122 1721,-122 1727,-122 1733,-128 1733,-134 1733,-134 1733,-146 1733,-146 1733,-152 1727,-158 1721,-158"/>
<text text-anchor="middle" x="1613.5" y="-136.3" font-family="Arial" font-size="14.00">Irreversibility of egg change indicated</text>
</g>
<!-- n4&#45;&gt;n7 -->
<g id="edge10" class="edge">
<title>n4&#45;&gt;n7</title>
<path fill="none" stroke="black" d="M1443,-243.81C1478,-222.69 1537.5,-186.81 1576.2,-163.51"/>
<polygon fill="black" stroke="black" points="1578.27,-166.35 1585,-158.16 1574.64,-160.36 1578.27,-166.35"/>
</g>
<!-- n10 -->
<g id="node10" class="node">
<title>n10</title>
<polygon fill="lightcoral" stroke="black" points="2036.5,-158 1791,-140 2036.5,-122 2282,-140 2036.5,-158"/>
<text text-anchor="middle" x="2036.5" y="-136.3" font-family="Arial" font-size="14.00">Limited explanation on egg&#39;s irreversibility</text>
</g>
<!-- n4&#45;&gt;n10 -->
<g id="edge11" class="edge">
<title>n4&#45;&gt;n10</title>
<path fill="none" stroke="black" d="M1502.6,-244C1625.8,-220.24 1847.1,-177.54 1962.3,-155.32"/>
<polygon fill="black" stroke="black" points="1963.25,-158.7 1972.4,-153.36 1961.92,-151.83 1963.25,-158.7"/>
</g>
<!-- n11 -->
<g id="node11" class="node">
<title>n11</title>
<polygon fill="#f28e8e" stroke="black" points="868.5,-36 616.5,-36 616.5,0 868.5,0 868.5,-36"/>
<text text-anchor="middle" x="742.5" y="-14.3" font-family="Arial" font-size="14.00">Add &#39;Liquid&#39; label under water for clarity</text>
</g>
<!-- n9&#45;&gt;n11 -->
<g id="edge12" class="edge">
<title>n9&#45;&gt;n11</title>
<path fill="none" stroke="black" d="M742.5,-121.81C742.5,-102.11 742.5,-69.58 742.5,-46.39"/>
<polygon fill="black" stroke="black" points="746,-46.16 742.5,-36.16 739,-46.16 746,-46.16"/>
</g>
<!-- n12 -->
<g id="node12" class="node">
<title>n12</title>
<polygon fill="#f28e8e" stroke="black" points="2186,-36 1887,-36 1887,0 2186,0 2186,-36"/>
<text text-anchor="middle" x="2036.5" y="-14.3" font-family="Arial" font-size="14.00">Explain why a cooked egg cannot be raw again</text>
</g>
<!-- n10&#45;&gt;n12 -->
<g id="edge13" class="edge">
<title>n10&#45;&gt;n12</title>
<path fill="none" stroke="black" d="M2036.5,-121.81C2036.5,-102.11 2036.5,-69.58 2036.5,-46.39"/>
<polygon fill="black" stroke="black" points="2040,-46.16 2036.5,-36.16 2033,-46.16 2040,-46.16"/>
</g>
</g>
</svg>
