<?xml version="1.0" encoding="UTF-8" standalone="no"?>
<!DOCTYPE svg PUBLIC "-//W3C//DTD SVG 1.1//EN"
 "http://www.w3.org/Graphics/SVG/1.1/DTD/svg11.dtd">
<!-- Generated by graphviz version 2.43.0 (0)
 -->
<!-- Pages: 1 -->
<svg width="1197pt" height="410pt"
 viewBox="0.00 0.00 1197.12 410.00" xmlns="http://www.w3.org/2000/svg" xmlns:xlink="http://www.w3.org/1999/xlink">
<g id="graph0" class="graph" transform="scale(1 1) rotate(0) translate(4 406)">
<polygon fill="white" stroke="transparent" points="-4,4 -4,-406 1193.12,-406 1193.12,4 -4,4"/>
<!-- n1 -->
<g id="node1" class="node">
<title>n1</title>
<polygon fill="lightblue" stroke="black" points="718.5,-384 607,-402 384,-402 272.5,-384 384,-366 607,-366 718.5,-384"/>
<text text-anchor="middle" x="495.5" y="-380.3" font-family="Arial" font-size="14.00">Draw a string telephone between two students.</text>
</g>
<!-- n2 -->
<g id="node2" class="node">
<title>n2</title>
<polygon fill="#fffdd0" stroke="black" points="414.5,-280 298.5,-280 298.5,-244 414.5,-244 414.5,-280"/>
<text text-anchor="middle" x="356.5" y="-258.3" font-family="Arial" font-size="14.00">Two stick figures</text>
</g>
<!-- n1&#45;&gt;n2 -->
<g id="edge1" class="edge">
<title>n1&#45;&gt;n2</title>
<path fill="none" stroke="black" d="M475.58,-365.81C451.53,-345.04 410.96,-310.01 383.95,-286.7"/>
<polygon fill="black" stroke="black" points="386.24,-284.05 376.38,-280.16 381.66,-289.35 386.24,-284.05"/>
</g>
<!-- n3 -->
<g id="node3" class="node">
<title>n3</title>
<polygon fill="#fffdd0" stroke="black" points="729,-280 542,-280 542,-244 729,-244 729,-280"/>
<text text-anchor="middle" x="635.5" y="-258.3" font-family="Arial" font-size="14.00">Straight line between figures</text>
</g>
<!-- n1&#45;&gt;n3 -->
<g id="edge2" class="edge">
<title>n1&#45;&gt;n3</title>
<path fill="none" stroke="black" d="M515.56,-365.81C539.78,-345.04 580.65,-310.01 607.85,-286.7"/>
<polygon fill="black" stroke="black" points="610.17,-289.33 615.48,-280.16 605.61,-284.01 610.17,-289.33"/>
</g>
<!-- n4 -->
<g id="node4" class="node">
<title>n4</title>
<path fill="palegreen" stroke="black" d="M165,-158C165,-158 12,-158 12,-158 6,-158 0,-152 0,-146 0,-146 0,-134 0,-134 0,-128 6,-122 12,-122 12,-122 165,-122 165,-122 171,-122 177,-128 177,-134 177,-134 177,-146 177,-146 177,-152 171,-158 165,-158"/>
<text text-anchor="middle" x="88.5" y="-136.3" font-family="Arial" font-size="14.00">Figures represent students</text>
</g>
<!-- n2&#45;&gt;n4 -->
<g id="edge3" class="edge">
<title>n2&#45;&gt;n4</title>
<path fill="none" stroke="black" d="M318.39,-243.93C270.36,-222.43 187.83,-185.48 135.82,-162.19"/>
<polygon fill="black" stroke="black" points="137.04,-158.9 126.48,-158.01 134.18,-165.29 137.04,-158.9"/>
</g>
<!-- n6 -->
<g id="node5" class="node">
<title>n6</title>
<polygon fill="lightcoral" stroke="black" points="356.5,-158 235,-140 356.5,-122 478,-140 356.5,-158"/>
<text text-anchor="middle" x="356.5" y="-136.3" font-family="Arial" font-size="14.00">Lacks cups or tools</text>
</g>
<!-- n2&#45;&gt;n6 -->
<g id="edge4" class="edge">
<title>n2&#45;&gt;n6</title>
<path fill="none" stroke="black" d="M356.5,-243.81C356.5,-224.11 356.5,-191.58 356.5,-168.39"/>
<polygon fill="black" stroke="black" points="360,-168.16 356.5,-158.16 353,-168.16 360,-168.16"/>
</g>
<!-- n5 -->
<g id="node6" class="node">
<title>n5</title>
<path fill="palegreen" stroke="black" d="M723.5,-158C723.5,-158 547.5,-158 547.5,-158 541.5,-158 535.5,-152 535.5,-146 535.5,-146 535.5,-134 535.5,-134 535.5,-128 541.5,-122 547.5,-122 547.5,-122 723.5,-122 723.5,-122 729.5,-122 735.5,-128 735.5,-134 735.5,-134 735.5,-146 735.5,-146 735.5,-152 729.5,-158 723.5,-158"/>
<text text-anchor="middle" x="635.5" y="-136.3" font-family="Arial" font-size="14.00">String involves communication</text>
</g>
<!-- n3&#45;&gt;n5 -->
<g id="edge5" class="edge">
<title>n3&#45;&gt;n5</title>
<path fill="none" stroke="black" d="M635.5,-243.81C635.5,-224.11 635.5,-191.58 635.5,-168.39"/>
<polygon fill="black" stroke="black" points="639,-168.16 635.5,-158.16 632,-168.16 639,-168.16"/>
</g>
<!-- n7 -->
<g id="node7" class="node">
<title>n7</title>
<polygon fill="lightcoral" stroke="black" points="991.5,-158 793.76,-140 991.5,-122 1189.24,-140 991.5,-158"/>
<text text-anchor="middle" x="991.5" y="-136.3" font-family="Arial" font-size="14.00">No labels explaining sound travel</text>
</g>
<!-- n3&#45;&gt;n7 -->
<g id="edge6" class="edge">
<title>n3&#45;&gt;n7</title>
<path fill="none" stroke="black" d="M686.13,-243.93C754.28,-220.96 874.75,-180.35 942.21,-157.61"/>
<polygon fill="black" stroke="black" points="943.41,-160.9 951.77,-154.39 941.18,-154.27 943.41,-160.9"/>
</g>
<!-- n8 -->
<g id="node8" class="node">
<title>n8</title>
<polygon fill="#f28e8e" stroke="black" points="511.5,-36 201.5,-36 201.5,0 511.5,0 511.5,-36"/>
<text text-anchor="middle" x="356.5" y="-14.3" font-family="Arial" font-size="14.00">Include cups to show sound transmission device.</text>
</g>
<!-- n6&#45;&gt;n8 -->
<g id="edge7" class="edge">
<title>n6&#45;&gt;n8</title>
<path fill="none" stroke="black" d="M356.5,-121.81C356.5,-102.11 356.5,-69.58 356.5,-46.39"/>
<polygon fill="black" stroke="black" points="360,-46.16 356.5,-36.16 353,-46.16 360,-46.16"/>
</g>
<!-- n9 -->
<g id="node9" class="node">
<title>n9</title>
<polygon fill="#f28e8e" stroke="black" points="1102.5,-36 880.5,-36 880.5,0 1102.5,0 1102.5,-36"/>
<text text-anchor="middle" x="991.5" y="-14.3" font-family="Arial" font-size="14.00">Add labels to explain sound travel.</text>
</g>
<!-- n7&#45;&gt;n9 -->
<g id="edge8" class="edge">
<title>n7&#45;&gt;n9</title>
<path fill="none" stroke="black" d="M991.5,-121.81C991.5,-102.11 991.5,-69.58 991.5,-46.39"/>
<polygon fill="black" stroke="black" points="995,-46.16 991.5,-36.16 988,-46.16 995,-46.16"/>
</g>
</g>
</svg>
