<?xml version="1.0" encoding="UTF-8" standalone="no"?>
<!DOCTYPE svg PUBLIC "-//W3C//DTD SVG 1.1//EN"
 "http://www.w3.org/Graphics/SVG/1.1/DTD/svg11.dtd">
<!-- Generated by graphviz version 2.43.0 (0)
 -->
<!-- Pages: 1 -->
<svg width="1487pt" height="410pt"
 viewBox="0.00 0.00 1487.00 410.00" xmlns="http://www.w3.org/2000/svg" xmlns:xlink="http://www.w3.org/1999/xlink">
<g id="graph0" class="graph" transform="scale(1 1) rotate(0) translate(4 406)">
<polygon fill="white" stroke="transparent" points="-4,4 -4,-406 1483,-406 1483,4 -4,4"/>
<!-- n1 -->
<g id="node1" class="node">
<title>n1</title>
<polygon fill="lightblue" stroke="black" points="962,-384 870.75,-402 688.25,-402 597,-384 688.25,-366 870.75,-366 962,-384"/>
<text text-anchor="middle" x="779.5" y="-380.3" font-family="Arial" font-size="14.00">Draw reversible changes (ice melting)</text>
</g>
<!-- n2 -->
<g id="node2" class="node">
<title>n2</title>
<polygon fill="#fffdd0" stroke="black" points="611,-280 474,-280 474,-244 611,-244 611,-280"/>
<text text-anchor="middle" x="542.5" y="-258.3" font-family="Arial" font-size="14.00">Drawing of Solid Ice</text>
</g>
<!-- n1&#45;&gt;n2 -->
<g id="edge1" class="edge">
<title>n1&#45;&gt;n2</title>
<path fill="none" stroke="black" d="M745.79,-365.93C703.59,-344.57 631.25,-307.94 585.21,-284.63"/>
<polygon fill="black" stroke="black" points="586.59,-281.41 576.09,-280.01 583.43,-287.65 586.59,-281.41"/>
</g>
<!-- n3 -->
<g id="node3" class="node">
<title>n3</title>
<polygon fill="#fffdd0" stroke="black" points="860,-280 699,-280 699,-244 860,-244 860,-280"/>
<text text-anchor="middle" x="779.5" y="-258.3" font-family="Arial" font-size="14.00">Drawing of Liquid Water</text>
</g>
<!-- n1&#45;&gt;n3 -->
<g id="edge2" class="edge">
<title>n1&#45;&gt;n3</title>
<path fill="none" stroke="black" d="M779.5,-365.81C779.5,-346.11 779.5,-313.58 779.5,-290.39"/>
<polygon fill="black" stroke="black" points="783,-290.16 779.5,-280.16 776,-290.16 783,-290.16"/>
</g>
<!-- n4 -->
<g id="node4" class="node">
<title>n4</title>
<polygon fill="#fffdd0" stroke="black" points="1121,-280 960,-280 960,-244 1121,-244 1121,-280"/>
<text text-anchor="middle" x="1040.5" y="-258.3" font-family="Arial" font-size="14.00">Drawing of Refrozen Ice</text>
</g>
<!-- n1&#45;&gt;n4 -->
<g id="edge3" class="edge">
<title>n1&#45;&gt;n4</title>
<path fill="none" stroke="black" d="M816.62,-365.93C863.39,-344.43 943.76,-307.48 994.41,-284.19"/>
<polygon fill="black" stroke="black" points="995.88,-287.37 1003.5,-280.01 992.95,-281.01 995.88,-287.37"/>
</g>
<!-- n5 -->
<g id="node5" class="node">
<title>n5</title>
<path fill="palegreen" stroke="black" d="M564,-158C564,-158 377,-158 377,-158 371,-158 365,-152 365,-146 365,-146 365,-134 365,-134 365,-128 371,-122 377,-122 377,-122 564,-122 564,-122 570,-122 576,-128 576,-134 576,-134 576,-146 576,-146 576,-152 570,-158 564,-158"/>
<text text-anchor="middle" x="470.5" y="-136.3" font-family="Arial" font-size="14.00">Correct illustration of ice as solid</text>
</g>
<!-- n2&#45;&gt;n5 -->
<g id="edge4" class="edge">
<title>n2&#45;&gt;n5</title>
<path fill="none" stroke="black" d="M532.18,-243.81C520.1,-223.67 499.96,-190.1 486,-166.83"/>
<polygon fill="black" stroke="black" points="488.95,-164.94 480.8,-158.16 482.94,-168.54 488.95,-164.94"/>
</g>
<!-- n8 -->
<g id="node6" class="node">
<title>n8</title>
<path fill="palegreen" stroke="black" d="M1167.5,-158C1167.5,-158 913.5,-158 913.5,-158 907.5,-158 901.5,-152 901.5,-146 901.5,-146 901.5,-134 901.5,-134 901.5,-128 907.5,-122 913.5,-122 913.5,-122 1167.5,-122 1167.5,-122 1173.5,-122 1179.5,-128 1179.5,-134 1179.5,-134 1179.5,-146 1179.5,-146 1179.5,-152 1173.5,-158 1167.5,-158"/>
<text text-anchor="middle" x="1040.5" y="-136.3" font-family="Arial" font-size="14.00">Labels indicate states: solid, liquid, refrozen</text>
</g>
<!-- n2&#45;&gt;n8 -->
<g id="edge5" class="edge">
<title>n2&#45;&gt;n8</title>
<path fill="none" stroke="black" d="M611.22,-244.44C702.41,-222.47 863.13,-183.74 959.93,-160.41"/>
<polygon fill="black" stroke="black" points="960.76,-163.81 969.67,-158.07 959.13,-157 960.76,-163.81"/>
</g>
<!-- n9 -->
<g id="node7" class="node">
<title>n9</title>
<polygon fill="lightcoral" stroke="black" points="153.5,-158 0,-140 153.5,-122 307,-140 153.5,-158"/>
<text text-anchor="middle" x="153.5" y="-136.3" font-family="Arial" font-size="14.00">Labels slightly misplaced</text>
</g>
<!-- n2&#45;&gt;n9 -->
<g id="edge6" class="edge">
<title>n2&#45;&gt;n9</title>
<path fill="none" stroke="black" d="M487.18,-243.93C411.35,-220.54 276.26,-178.87 203.39,-156.39"/>
<polygon fill="black" stroke="black" points="204.12,-152.95 193.53,-153.35 202.05,-159.64 204.12,-152.95"/>
</g>
<!-- n3&#45;&gt;n8 -->
<g id="edge7" class="edge">
<title>n3&#45;&gt;n8</title>
<path fill="none" stroke="black" d="M816.62,-243.93C863.39,-222.43 943.76,-185.48 994.41,-162.19"/>
<polygon fill="black" stroke="black" points="995.88,-165.37 1003.5,-158.01 992.95,-159.01 995.88,-165.37"/>
</g>
<!-- n6 -->
<g id="node8" class="node">
<title>n6</title>
<path fill="palegreen" stroke="black" d="M831,-158C831,-158 646,-158 646,-158 640,-158 634,-152 634,-146 634,-146 634,-134 634,-134 634,-128 640,-122 646,-122 646,-122 831,-122 831,-122 837,-122 843,-128 843,-134 843,-134 843,-146 843,-146 843,-152 837,-158 831,-158"/>
<text text-anchor="middle" x="738.5" y="-136.3" font-family="Arial" font-size="14.00">Correct illustration of ice melting</text>
</g>
<!-- n3&#45;&gt;n6 -->
<g id="edge8" class="edge">
<title>n3&#45;&gt;n6</title>
<path fill="none" stroke="black" d="M773.62,-243.81C766.84,-223.94 755.58,-190.99 747.64,-167.76"/>
<polygon fill="black" stroke="black" points="750.91,-166.49 744.36,-158.16 744.28,-168.75 750.91,-166.49"/>
</g>
<!-- n4&#45;&gt;n8 -->
<g id="edge9" class="edge">
<title>n4&#45;&gt;n8</title>
<path fill="none" stroke="black" d="M1040.5,-243.81C1040.5,-224.11 1040.5,-191.58 1040.5,-168.39"/>
<polygon fill="black" stroke="black" points="1044,-168.16 1040.5,-158.16 1037,-168.16 1044,-168.16"/>
</g>
<!-- n7 -->
<g id="node9" class="node">
<title>n7</title>
<path fill="palegreen" stroke="black" d="M1467,-158C1467,-158 1250,-158 1250,-158 1244,-158 1238,-152 1238,-146 1238,-146 1238,-134 1238,-134 1238,-128 1244,-122 1250,-122 1250,-122 1467,-122 1467,-122 1473,-122 1479,-128 1479,-134 1479,-134 1479,-146 1479,-146 1479,-152 1473,-158 1467,-158"/>
<text text-anchor="middle" x="1358.5" y="-136.3" font-family="Arial" font-size="14.00">Correct illustration of refreezing water</text>
</g>
<!-- n4&#45;&gt;n7 -->
<g id="edge10" class="edge">
<title>n4&#45;&gt;n7</title>
<path fill="none" stroke="black" d="M1085.7,-243.93C1143.2,-222.25 1242.3,-184.86 1303.9,-161.61"/>
<polygon fill="black" stroke="black" points="1305.29,-164.83 1313.4,-158.01 1302.81,-158.28 1305.29,-164.83"/>
</g>
<!-- n10 -->
<g id="node10" class="node">
<title>n10</title>
<polygon fill="#f28e8e" stroke="black" points="294.5,-36 12.5,-36 12.5,0 294.5,0 294.5,-36"/>
<text text-anchor="middle" x="153.5" y="-14.3" font-family="Arial" font-size="14.00">Include guidance for correct label placement</text>
</g>
<!-- n9&#45;&gt;n10 -->
<g id="edge11" class="edge">
<title>n9&#45;&gt;n10</title>
<path fill="none" stroke="black" d="M153.5,-121.81C153.5,-102.11 153.5,-69.58 153.5,-46.39"/>
<polygon fill="black" stroke="black" points="157,-46.16 153.5,-36.16 150,-46.16 157,-46.16"/>
</g>
</g>
</svg>
