<?xml version="1.0" encoding="UTF-8" standalone="no"?>
<!DOCTYPE svg PUBLIC "-//W3C//DTD SVG 1.1//EN"
 "http://www.w3.org/Graphics/SVG/1.1/DTD/svg11.dtd">
<!-- Generated by graphviz version 2.43.0 (0)
 -->
<!-- Pages: 1 -->
<svg width="1477pt" height="288pt"
 viewBox="0.00 0.00 1476.50 288.00" xmlns="http://www.w3.org/2000/svg" xmlns:xlink="http://www.w3.org/1999/xlink">
<g id="graph0" class="graph" transform="scale(1 1) rotate(0) translate(4 284)">
<polygon fill="white" stroke="transparent" points="-4,4 -4,-284 1472.5,-284 1472.5,4 -4,4"/>
<!-- n1 -->
<g id="node1" class="node">
<title>n1</title>
<polygon fill="lightblue" stroke="black" points="1009.32,-262 886.91,-280 642.09,-280 519.68,-262 642.09,-244 886.91,-244 1009.32,-262"/>
<text text-anchor="middle" x="764.5" y="-258.3" font-family="Arial" font-size="14.00">Draw a habitat and the different living things in each</text>
</g>
<!-- n2 -->
<g id="node2" class="node">
<title>n2</title>
<polygon fill="#fffdd0" stroke="black" points="247,-158 76,-158 76,-122 247,-122 247,-158"/>
<text text-anchor="middle" x="161.5" y="-136.3" font-family="Arial" font-size="14.00">Garden habitat with grass</text>
</g>
<!-- n1&#45;&gt;n2 -->
<g id="edge1" class="edge">
<title>n1&#45;&gt;n2</title>
<path fill="none" stroke="black" d="M679.06,-244C567.62,-221.82 373.21,-183.13 257.01,-160.01"/>
<polygon fill="black" stroke="black" points="257.55,-156.55 247.06,-158.03 256.18,-163.41 257.55,-156.55"/>
</g>
<!-- n3 -->
<g id="node3" class="node">
<title>n3</title>
<polygon fill="#fffdd0" stroke="black" points="482.5,-158 330.5,-158 330.5,-122 482.5,-122 482.5,-158"/>
<text text-anchor="middle" x="406.5" y="-136.3" font-family="Arial" font-size="14.00">Two round green trees</text>
</g>
<!-- n1&#45;&gt;n3 -->
<g id="edge2" class="edge">
<title>n1&#45;&gt;n3</title>
<path fill="none" stroke="black" d="M713.59,-243.93C648.64,-222.16 536.44,-184.56 467.14,-161.33"/>
<polygon fill="black" stroke="black" points="467.83,-157.87 457.24,-158.01 465.61,-164.51 467.83,-157.87"/>
</g>
<!-- n4 -->
<g id="node4" class="node">
<title>n4</title>
<polygon fill="#fffdd0" stroke="black" points="744.5,-158 592.5,-158 592.5,-122 744.5,-122 744.5,-158"/>
<text text-anchor="middle" x="668.5" y="-136.3" font-family="Arial" font-size="14.00">Squirrel with bushy tail</text>
</g>
<!-- n1&#45;&gt;n4 -->
<g id="edge3" class="edge">
<title>n1&#45;&gt;n4</title>
<path fill="none" stroke="black" d="M750.75,-243.81C734.49,-223.49 707.31,-189.51 688.67,-166.21"/>
<polygon fill="black" stroke="black" points="691.21,-163.78 682.23,-158.16 685.74,-168.16 691.21,-163.78"/>
</g>
<!-- n5 -->
<g id="node5" class="node">
<title>n5</title>
<polygon fill="#fffdd0" stroke="black" points="950,-158 835,-158 835,-122 950,-122 950,-158"/>
<text text-anchor="middle" x="892.5" y="-136.3" font-family="Arial" font-size="14.00">Ant on the grass</text>
</g>
<!-- n1&#45;&gt;n5 -->
<g id="edge4" class="edge">
<title>n1&#45;&gt;n5</title>
<path fill="none" stroke="black" d="M782.84,-243.81C804.8,-223.22 841.71,-188.61 866.58,-165.3"/>
<polygon fill="black" stroke="black" points="869.29,-167.55 874.19,-158.16 864.5,-162.45 869.29,-167.55"/>
</g>
<!-- n6 -->
<g id="node6" class="node">
<title>n6</title>
<polygon fill="#fffdd0" stroke="black" points="1229.5,-158 1043.5,-158 1043.5,-122 1229.5,-122 1229.5,-158"/>
<text text-anchor="middle" x="1136.5" y="-136.3" font-family="Arial" font-size="14.00">Simple pond with blue water</text>
</g>
<!-- n1&#45;&gt;n6 -->
<g id="edge5" class="edge">
<title>n1&#45;&gt;n6</title>
<path fill="none" stroke="black" d="M817.4,-243.93C885.03,-222.12 1002,-184.4 1073.9,-161.18"/>
<polygon fill="black" stroke="black" points="1075.34,-164.39 1083.8,-158.01 1073.21,-157.73 1075.34,-164.39"/>
</g>
<!-- n7 -->
<g id="node7" class="node">
<title>n7</title>
<polygon fill="#fffdd0" stroke="black" points="1439.5,-158 1317.5,-158 1317.5,-122 1439.5,-122 1439.5,-158"/>
<text text-anchor="middle" x="1378.5" y="-136.3" font-family="Arial" font-size="14.00">Small orange fish</text>
</g>
<!-- n1&#45;&gt;n7 -->
<g id="edge6" class="edge">
<title>n1&#45;&gt;n7</title>
<path fill="none" stroke="black" d="M851.49,-244C973.85,-220.09 1194.4,-176.98 1307.5,-154.88"/>
<polygon fill="black" stroke="black" points="1308.26,-158.3 1317.4,-152.94 1306.91,-151.43 1308.26,-158.3"/>
</g>
<!-- n8 -->
<g id="node8" class="node">
<title>n8</title>
<path fill="palegreen" stroke="black" d="M187,-36C187,-36 12,-36 12,-36 6,-36 0,-30 0,-24 0,-24 0,-12 0,-12 0,-6 6,0 12,0 12,0 187,0 187,0 193,0 199,-6 199,-12 199,-12 199,-24 199,-24 199,-30 193,-36 187,-36"/>
<text text-anchor="middle" x="99.5" y="-14.3" font-family="Arial" font-size="14.00">Identifies land habitat correctly</text>
</g>
<!-- n2&#45;&gt;n8 -->
<g id="edge7" class="edge">
<title>n2&#45;&gt;n8</title>
<path fill="none" stroke="black" d="M152.62,-121.81C142.26,-101.76 125.02,-68.4 113.01,-45.14"/>
<polygon fill="black" stroke="black" points="116.07,-43.44 108.37,-36.16 109.85,-46.65 116.07,-43.44"/>
</g>
<!-- n9 -->
<g id="node9" class="node">
<title>n9</title>
<path fill="palegreen" stroke="black" d="M470,-36C470,-36 269,-36 269,-36 263,-36 257,-30 257,-24 257,-24 257,-12 257,-12 257,-6 263,0 269,0 269,0 470,0 470,0 476,0 482,-6 482,-12 482,-12 482,-24 482,-24 482,-30 476,-36 470,-36"/>
<text text-anchor="middle" x="369.5" y="-14.3" font-family="Arial" font-size="14.00">Identifies and draws trees correctly</text>
</g>
<!-- n3&#45;&gt;n9 -->
<g id="edge8" class="edge">
<title>n3&#45;&gt;n9</title>
<path fill="none" stroke="black" d="M401.2,-121.81C395.07,-101.94 384.91,-68.99 377.75,-45.76"/>
<polygon fill="black" stroke="black" points="381.08,-44.69 374.79,-36.16 374.39,-46.75 381.08,-44.69"/>
</g>
<!-- n10 -->
<g id="node10" class="node">
<title>n10</title>
<path fill="palegreen" stroke="black" d="M754.5,-36C754.5,-36 552.5,-36 552.5,-36 546.5,-36 540.5,-30 540.5,-24 540.5,-24 540.5,-12 540.5,-12 540.5,-6 546.5,0 552.5,0 552.5,0 754.5,0 754.5,0 760.5,0 766.5,-6 766.5,-12 766.5,-12 766.5,-24 766.5,-24 766.5,-30 760.5,-36 754.5,-36"/>
<text text-anchor="middle" x="653.5" y="-14.3" font-family="Arial" font-size="14.00">Identifies small mammals correctly</text>
</g>
<!-- n4&#45;&gt;n10 -->
<g id="edge9" class="edge">
<title>n4&#45;&gt;n10</title>
<path fill="none" stroke="black" d="M666.35,-121.81C663.89,-102.11 659.82,-69.58 656.92,-46.39"/>
<polygon fill="black" stroke="black" points="660.36,-45.65 655.65,-36.16 653.41,-46.52 660.36,-45.65"/>
</g>
<!-- n11 -->
<g id="node11" class="node">
<title>n11</title>
<path fill="palegreen" stroke="black" d="M984,-36C984,-36 837,-36 837,-36 831,-36 825,-30 825,-24 825,-24 825,-12 825,-12 825,-6 831,0 837,0 837,0 984,0 984,0 990,0 996,-6 996,-12 996,-12 996,-24 996,-24 996,-30 990,-36 984,-36"/>
<text text-anchor="middle" x="910.5" y="-14.3" font-family="Arial" font-size="14.00">Identifies insects correctly</text>
</g>
<!-- n5&#45;&gt;n11 -->
<g id="edge10" class="edge">
<title>n5&#45;&gt;n11</title>
<path fill="none" stroke="black" d="M895.08,-121.81C898.05,-102.02 902.96,-69.29 906.44,-46.08"/>
<polygon fill="black" stroke="black" points="909.9,-46.57 907.93,-36.16 902.98,-45.53 909.9,-46.57"/>
</g>
<!-- n12 -->
<g id="node12" class="node">
<title>n12</title>
<path fill="palegreen" stroke="black" d="M1248.5,-36C1248.5,-36 1066.5,-36 1066.5,-36 1060.5,-36 1054.5,-30 1054.5,-24 1054.5,-24 1054.5,-12 1054.5,-12 1054.5,-6 1060.5,0 1066.5,0 1066.5,0 1248.5,0 1248.5,0 1254.5,0 1260.5,-6 1260.5,-12 1260.5,-12 1260.5,-24 1260.5,-24 1260.5,-30 1254.5,-36 1248.5,-36"/>
<text text-anchor="middle" x="1157.5" y="-14.3" font-family="Arial" font-size="14.00">Identifies water habitat correctly</text>
</g>
<!-- n6&#45;&gt;n12 -->
<g id="edge11" class="edge">
<title>n6&#45;&gt;n12</title>
<path fill="none" stroke="black" d="M1139.5,-121.81C1143,-102.02 1148.7,-69.29 1152.8,-46.08"/>
<polygon fill="black" stroke="black" points="1156.26,-46.61 1154.5,-36.16 1149.36,-45.43 1156.26,-46.61"/>
</g>
<!-- n13 -->
<g id="node13" class="node">
<title>n13</title>
<path fill="palegreen" stroke="black" d="M1456.5,-36C1456.5,-36 1330.5,-36 1330.5,-36 1324.5,-36 1318.5,-30 1318.5,-24 1318.5,-24 1318.5,-12 1318.5,-12 1318.5,-6 1324.5,0 1330.5,0 1330.5,0 1456.5,0 1456.5,0 1462.5,0 1468.5,-6 1468.5,-12 1468.5,-12 1468.5,-24 1468.5,-24 1468.5,-30 1462.5,-36 1456.5,-36"/>
<text text-anchor="middle" x="1393.5" y="-14.3" font-family="Arial" font-size="14.00">Identifies fish correctly</text>
</g>
<!-- n7&#45;&gt;n13 -->
<g id="edge12" class="edge">
<title>n7&#45;&gt;n13</title>
<path fill="none" stroke="black" d="M1380.6,-121.81C1383.1,-102.11 1387.2,-69.58 1390.1,-46.39"/>
<polygon fill="black" stroke="black" points="1393.61,-46.52 1391.4,-36.16 1386.67,-45.64 1393.61,-46.52"/>
</g>
</g>
</svg>
