<?xml version="1.0" encoding="UTF-8" standalone="no"?>
<!DOCTYPE svg PUBLIC "-//W3C//DTD SVG 1.1//EN"
 "http://www.w3.org/Graphics/SVG/1.1/DTD/svg11.dtd">
<!-- Generated by graphviz version 2.43.0 (0)
 -->
<!-- Pages: 1 -->
<svg width="1956pt" height="410pt"
 viewBox="0.00 0.00 1956.00 410.00" xmlns="http://www.w3.org/2000/svg" xmlns:xlink="http://www.w3.org/1999/xlink">
<g id="graph0" class="graph" transform="scale(1 1) rotate(0) translate(4 406)">
<polygon fill="white" stroke="transparent" points="-4,4 -4,-406 1952,-406 1952,4 -4,4"/>
<!-- n1 -->
<g id="node1" class="node">
<title>n1</title>
<polygon fill="lightblue" stroke="black" points="786,-384 694.75,-402 512.25,-402 421,-384 512.25,-366 694.75,-366 786,-384"/>
<text text-anchor="middle" x="603.5" y="-380.3" font-family="Arial" font-size="14.00">Draw reversible changes (ice melting)</text>
</g>
<!-- n2 -->
<g id="node2" class="node">
<title>n2</title>
<polygon fill="#fffdd0" stroke="black" points="362,-280 127,-280 127,-244 362,-244 362,-280"/>
<text text-anchor="middle" x="244.5" y="-258.3" font-family="Arial" font-size="14.00">Blue squares representing ice cubes</text>
</g>
<!-- n1&#45;&gt;n2 -->
<g id="edge1" class="edge">
<title>n1&#45;&gt;n2</title>
<path fill="none" stroke="black" d="M552.45,-365.93C487.18,-344.12 374.34,-306.4 304.88,-283.18"/>
<polygon fill="black" stroke="black" points="305.97,-279.86 295.38,-280.01 303.76,-286.5 305.97,-279.86"/>
</g>
<!-- n3 -->
<g id="node3" class="node">
<title>n3</title>
<polygon fill="#fffdd0" stroke="black" points="722,-280 485,-280 485,-244 722,-244 722,-280"/>
<text text-anchor="middle" x="603.5" y="-258.3" font-family="Arial" font-size="14.00">Blue puddle represents melted water</text>
</g>
<!-- n1&#45;&gt;n3 -->
<g id="edge2" class="edge">
<title>n1&#45;&gt;n3</title>
<path fill="none" stroke="black" d="M603.5,-365.81C603.5,-346.11 603.5,-313.58 603.5,-290.39"/>
<polygon fill="black" stroke="black" points="607,-290.16 603.5,-280.16 600,-290.16 607,-290.16"/>
</g>
<!-- n4 -->
<g id="node4" class="node">
<title>n4</title>
<polygon fill="#fffdd0" stroke="black" points="1307,-280 1030,-280 1030,-244 1307,-244 1307,-280"/>
<text text-anchor="middle" x="1168.5" y="-258.3" font-family="Arial" font-size="14.00">Large arrow from ice cubes to water puddle</text>
</g>
<!-- n1&#45;&gt;n4 -->
<g id="edge3" class="edge">
<title>n1&#45;&gt;n4</title>
<path fill="none" stroke="black" d="M683.55,-366C787.76,-343.87 969.4,-305.29 1078.3,-282.15"/>
<polygon fill="black" stroke="black" points="1079.24,-285.53 1088.3,-280.03 1077.79,-278.68 1079.24,-285.53"/>
</g>
<!-- n5 -->
<g id="node5" class="node">
<title>n5</title>
<path fill="palegreen" stroke="black" d="M347,-158C347,-158 12,-158 12,-158 6,-158 0,-152 0,-146 0,-146 0,-134 0,-134 0,-128 6,-122 12,-122 12,-122 347,-122 347,-122 353,-122 359,-128 359,-134 359,-134 359,-146 359,-146 359,-152 353,-158 347,-158"/>
<text text-anchor="middle" x="179.5" y="-136.3" font-family="Arial" font-size="14.00">Student can illustrate characteristics of ice before melting</text>
</g>
<!-- n2&#45;&gt;n5 -->
<g id="edge4" class="edge">
<title>n2&#45;&gt;n5</title>
<path fill="none" stroke="black" d="M235.19,-243.81C224.33,-223.76 206.26,-190.4 193.66,-167.14"/>
<polygon fill="black" stroke="black" points="196.64,-165.29 188.8,-158.16 190.48,-168.62 196.64,-165.29"/>
</g>
<!-- n6 -->
<g id="node6" class="node">
<title>n6</title>
<path fill="palegreen" stroke="black" d="M778,-158C778,-158 429,-158 429,-158 423,-158 417,-152 417,-146 417,-146 417,-134 417,-134 417,-128 423,-122 429,-122 429,-122 778,-122 778,-122 784,-122 790,-128 790,-134 790,-134 790,-146 790,-146 790,-152 784,-158 778,-158"/>
<text text-anchor="middle" x="603.5" y="-136.3" font-family="Arial" font-size="14.00">Student can illustrate characteristics of water after ice melts</text>
</g>
<!-- n3&#45;&gt;n6 -->
<g id="edge5" class="edge">
<title>n3&#45;&gt;n6</title>
<path fill="none" stroke="black" d="M603.5,-243.81C603.5,-224.11 603.5,-191.58 603.5,-168.39"/>
<polygon fill="black" stroke="black" points="607,-168.16 603.5,-158.16 600,-168.16 607,-168.16"/>
</g>
<!-- n7 -->
<g id="node7" class="node">
<title>n7</title>
<polygon fill="lightcoral" stroke="black" points="1168.5,-158 847.5,-140 1168.5,-122 1489.5,-140 1168.5,-158"/>
<text text-anchor="middle" x="1168.5" y="-136.3" font-family="Arial" font-size="14.00">Incomplete understanding of reversible change process</text>
</g>
<!-- n4&#45;&gt;n7 -->
<g id="edge6" class="edge">
<title>n4&#45;&gt;n7</title>
<path fill="none" stroke="black" d="M1168.5,-243.81C1168.5,-224.11 1168.5,-191.58 1168.5,-168.39"/>
<polygon fill="black" stroke="black" points="1172,-168.16 1168.5,-158.16 1165,-168.16 1172,-168.16"/>
</g>
<!-- n9 -->
<g id="node8" class="node">
<title>n9</title>
<polygon fill="lightcoral" stroke="black" points="1747.5,-158 1547,-140 1747.5,-122 1948,-140 1747.5,-158"/>
<text text-anchor="middle" x="1747.5" y="-136.3" font-family="Arial" font-size="14.00">Missing labels for &#39;ice&#39; and &#39;water&#39;</text>
</g>
<!-- n4&#45;&gt;n9 -->
<g id="edge7" class="edge">
<title>n4&#45;&gt;n9</title>
<path fill="none" stroke="black" d="M1250.5,-244C1365.7,-220.13 1573.1,-177.15 1679.9,-155.02"/>
<polygon fill="black" stroke="black" points="1680.82,-158.4 1689.9,-152.94 1679.4,-151.55 1680.82,-158.4"/>
</g>
<!-- n8 -->
<g id="node9" class="node">
<title>n8</title>
<polygon fill="#f28e8e" stroke="black" points="1333,-36 1004,-36 1004,0 1333,0 1333,-36"/>
<text text-anchor="middle" x="1168.5" y="-14.3" font-family="Arial" font-size="14.00">Add a return arrow to show water turning back to ice</text>
</g>
<!-- n7&#45;&gt;n8 -->
<g id="edge8" class="edge">
<title>n7&#45;&gt;n8</title>
<path fill="none" stroke="black" d="M1168.5,-121.81C1168.5,-102.11 1168.5,-69.58 1168.5,-46.39"/>
<polygon fill="black" stroke="black" points="1172,-46.16 1168.5,-36.16 1165,-46.16 1172,-46.16"/>
</g>
<!-- n10 -->
<g id="node10" class="node">
<title>n10</title>
<polygon fill="#f28e8e" stroke="black" points="1874.5,-36 1620.5,-36 1620.5,0 1874.5,0 1874.5,-36"/>
<text text-anchor="middle" x="1747.5" y="-14.3" font-family="Arial" font-size="14.00">Label the drawings clearly and correctly</text>
</g>
<!-- n9&#45;&gt;n10 -->
<g id="edge9" class="edge">
<title>n9&#45;&gt;n10</title>
<path fill="none" stroke="black" d="M1747.5,-121.81C1747.5,-102.11 1747.5,-69.58 1747.5,-46.39"/>
<polygon fill="black" stroke="black" points="1751,-46.16 1747.5,-36.16 1744,-46.16 1751,-46.16"/>
</g>
</g>
</svg>
