<?xml version="1.0" encoding="UTF-8" standalone="no"?>
<!DOCTYPE svg PUBLIC "-//W3C//DTD SVG 1.1//EN"
 "http://www.w3.org/Graphics/SVG/1.1/DTD/svg11.dtd">
<!-- Generated by graphviz version 2.43.0 (0)
 -->
<!-- Pages: 1 -->
<svg width="1478pt" height="410pt"
 viewBox="0.00 0.00 1477.50 410.00" xmlns="http://www.w3.org/2000/svg" xmlns:xlink="http://www.w3.org/1999/xlink">
<g id="graph0" class="graph" transform="scale(1 1) rotate(0) translate(4 406)">
<polygon fill="white" stroke="transparent" points="-4,4 -4,-406 1473.5,-406 1473.5,4 -4,4"/>
<!-- n1 -->
<g id="node1" class="node">
<title>n1</title>
<polygon fill="lightblue" stroke="black" points="793.5,-384 702.25,-402 519.75,-402 428.5,-384 519.75,-366 702.25,-366 793.5,-384"/>
<text text-anchor="middle" x="611" y="-380.3" font-family="Arial" font-size="14.00">Draw reversible changes (ice melting)</text>
</g>
<!-- n2 -->
<g id="node2" class="node">
<title>n2</title>
<polygon fill="#fffdd0" stroke="black" points="249,-280 43,-280 43,-244 249,-244 249,-280"/>
<text text-anchor="middle" x="146" y="-258.3" font-family="Arial" font-size="14.00">Rough circle shape in blue (ice)</text>
</g>
<!-- n1&#45;&gt;n2 -->
<g id="edge1" class="edge">
<title>n1&#45;&gt;n2</title>
<path fill="none" stroke="black" d="M544.87,-365.93C459.56,-343.92 311.49,-305.71 221.74,-282.55"/>
<polygon fill="black" stroke="black" points="222.46,-279.12 211.9,-280.01 220.71,-285.9 222.46,-279.12"/>
</g>
<!-- n3 -->
<g id="node3" class="node">
<title>n3</title>
<polygon fill="#fffdd0" stroke="black" points="586,-280 332,-280 332,-244 586,-244 586,-280"/>
<text text-anchor="middle" x="459" y="-258.3" font-family="Arial" font-size="14.00">Similar shape in blue wavy lines (water)</text>
</g>
<!-- n1&#45;&gt;n3 -->
<g id="edge2" class="edge">
<title>n1&#45;&gt;n3</title>
<path fill="none" stroke="black" d="M589.22,-365.81C562.81,-344.96 518.17,-309.71 488.64,-286.4"/>
<polygon fill="black" stroke="black" points="490.76,-283.61 480.74,-280.16 486.42,-289.1 490.76,-283.61"/>
</g>
<!-- n4 -->
<g id="node4" class="node">
<title>n4</title>
<polygon fill="#fffdd0" stroke="black" points="895.5,-280 656.5,-280 656.5,-244 895.5,-244 895.5,-280"/>
<text text-anchor="middle" x="776" y="-258.3" font-family="Arial" font-size="14.00">Large unclear arrow between shapes</text>
</g>
<!-- n1&#45;&gt;n4 -->
<g id="edge3" class="edge">
<title>n1&#45;&gt;n4</title>
<path fill="none" stroke="black" d="M634.64,-365.81C663.43,-344.87 712.19,-309.41 744.24,-286.1"/>
<polygon fill="black" stroke="black" points="746.38,-288.87 752.4,-280.16 742.26,-283.22 746.38,-288.87"/>
</g>
<!-- n5 -->
<g id="node5" class="node">
<title>n5</title>
<polygon fill="#fffdd0" stroke="black" points="1253,-280 1067,-280 1067,-244 1253,-244 1253,-280"/>
<text text-anchor="middle" x="1160" y="-258.3" font-family="Arial" font-size="14.00">&#39;Cold&#39; written near ice shape</text>
</g>
<!-- n1&#45;&gt;n5 -->
<g id="edge4" class="edge">
<title>n1&#45;&gt;n5</title>
<path fill="none" stroke="black" d="M688.78,-366C789.94,-343.89 966.18,-305.37 1072.1,-282.22"/>
<polygon fill="black" stroke="black" points="1073.08,-285.59 1082.1,-280.03 1071.58,-278.75 1073.08,-285.59"/>
</g>
<!-- n6 -->
<g id="node6" class="node">
<title>n6</title>
<path fill="palegreen" stroke="black" d="M182,-158C182,-158 12,-158 12,-158 6,-158 0,-152 0,-146 0,-146 0,-134 0,-134 0,-128 6,-122 12,-122 12,-122 182,-122 182,-122 188,-122 194,-128 194,-134 194,-134 194,-146 194,-146 194,-152 188,-158 182,-158"/>
<text text-anchor="middle" x="97" y="-136.3" font-family="Arial" font-size="14.00">Recognizes ice as initial state</text>
</g>
<!-- n2&#45;&gt;n6 -->
<g id="edge5" class="edge">
<title>n2&#45;&gt;n6</title>
<path fill="none" stroke="black" d="M138.98,-243.81C130.83,-223.85 117.29,-190.7 107.8,-167.45"/>
<polygon fill="black" stroke="black" points="111.03,-166.1 104.01,-158.16 104.55,-168.74 111.03,-166.1"/>
</g>
<!-- n7 -->
<g id="node7" class="node">
<title>n7</title>
<path fill="palegreen" stroke="black" d="M482,-158C482,-158 264,-158 264,-158 258,-158 252,-152 252,-146 252,-146 252,-134 252,-134 252,-128 258,-122 264,-122 264,-122 482,-122 482,-122 488,-122 494,-128 494,-134 494,-134 494,-146 494,-146 494,-152 488,-158 482,-158"/>
<text text-anchor="middle" x="373" y="-136.3" font-family="Arial" font-size="14.00">Recognizes water as result of melting</text>
</g>
<!-- n3&#45;&gt;n7 -->
<g id="edge6" class="edge">
<title>n3&#45;&gt;n7</title>
<path fill="none" stroke="black" d="M446.68,-243.81C432.18,-223.58 407.98,-189.81 391.29,-166.52"/>
<polygon fill="black" stroke="black" points="393.97,-164.25 385.3,-158.16 388.28,-168.33 393.97,-164.25"/>
</g>
<!-- n8 -->
<g id="node8" class="node">
<title>n8</title>
<polygon fill="lightcoral" stroke="black" points="789,-158 551.71,-140 789,-122 1026.29,-140 789,-158"/>
<text text-anchor="middle" x="789" y="-136.3" font-family="Arial" font-size="14.00">Confused about arrow indicating change</text>
</g>
<!-- n4&#45;&gt;n8 -->
<g id="edge7" class="edge">
<title>n4&#45;&gt;n8</title>
<path fill="none" stroke="black" d="M777.86,-243.81C780,-224.11 783.52,-191.58 786.03,-168.39"/>
<polygon fill="black" stroke="black" points="789.54,-168.48 787.14,-158.16 782.58,-167.72 789.54,-168.48"/>
</g>
<!-- n9 -->
<g id="node9" class="node">
<title>n9</title>
<polygon fill="lightcoral" stroke="black" points="1280,-158 1090.5,-140 1280,-122 1469.5,-140 1280,-158"/>
<text text-anchor="middle" x="1280" y="-136.3" font-family="Arial" font-size="14.00">Uses non&#45;specific labels (&#39;cold&#39;)</text>
</g>
<!-- n5&#45;&gt;n9 -->
<g id="edge8" class="edge">
<title>n5&#45;&gt;n9</title>
<path fill="none" stroke="black" d="M1177.2,-243.81C1198.2,-222.75 1234,-187.03 1257.3,-163.73"/>
<polygon fill="black" stroke="black" points="1259.8,-166.18 1264.4,-156.63 1254.85,-161.23 1259.8,-166.18"/>
</g>
<!-- n10 -->
<g id="node10" class="node">
<title>n10</title>
<polygon fill="#f28e8e" stroke="black" points="1048,-36 522,-36 522,0 1048,0 1048,-36"/>
<text text-anchor="middle" x="785" y="-14.3" font-family="Arial" font-size="14.00">Introduce the concept of reversible change using arrows to show forward and reverse</text>
</g>
<!-- n8&#45;&gt;n10 -->
<g id="edge9" class="edge">
<title>n8&#45;&gt;n10</title>
<path fill="none" stroke="black" d="M788.43,-121.81C787.77,-102.11 786.69,-69.58 785.91,-46.39"/>
<polygon fill="black" stroke="black" points="789.4,-46.04 785.57,-36.16 782.4,-46.27 789.4,-46.04"/>
</g>
<!-- n11 -->
<g id="node11" class="node">
<title>n11</title>
<polygon fill="#f28e8e" stroke="black" points="1461.5,-36 1106.5,-36 1106.5,0 1461.5,0 1461.5,-36"/>
<text text-anchor="middle" x="1284" y="-14.3" font-family="Arial" font-size="14.00">Use specific labels like &#39;ice&#39;, &#39;melted water&#39;, &#39;refrozen ice&#39;</text>
</g>
<!-- n9&#45;&gt;n11 -->
<g id="edge10" class="edge">
<title>n9&#45;&gt;n11</title>
<path fill="none" stroke="black" d="M1280.6,-121.81C1281.2,-102.11 1282.3,-69.58 1283.1,-46.39"/>
<polygon fill="black" stroke="black" points="1286.61,-46.26 1283.4,-36.16 1279.61,-46.05 1286.61,-46.26"/>
</g>
</g>
</svg>
