<?xml version="1.0" encoding="UTF-8" standalone="no"?>
<!DOCTYPE svg PUBLIC "-//W3C//DTD SVG 1.1//EN"
 "http://www.w3.org/Graphics/SVG/1.1/DTD/svg11.dtd">
<!-- Generated by graphviz version 2.43.0 (0)
 -->
<!-- Pages: 1 -->
<svg width="1456pt" height="288pt"
 viewBox="0.00 0.00 1455.50 288.00" xmlns="http://www.w3.org/2000/svg" xmlns:xlink="http://www.w3.org/1999/xlink">
<g id="graph0" class="graph" transform="scale(1 1) rotate(0) translate(4 284)">
<polygon fill="white" stroke="transparent" points="-4,4 -4,-284 1451.5,-284 1451.5,4 -4,4"/>
<!-- n1 -->
<g id="node1" class="node">
<title>n1</title>
<polygon fill="lightblue" stroke="black" points="1039,-262 908.75,-280 648.25,-280 518,-262 648.25,-244 908.75,-244 1039,-262"/>
<text text-anchor="middle" x="778.5" y="-258.3" font-family="Arial" font-size="14.00">Draw two habitats and the different living things in each</text>
</g>
<!-- n2 -->
<g id="node2" class="node">
<title>n2</title>
<polygon fill="#fffdd0" stroke="black" points="435,-158 136,-158 136,-122 435,-122 435,-158"/>
<text text-anchor="middle" x="285.5" y="-136.3" font-family="Arial" font-size="14.00">Forest with pine and oak trees, bushes, flowers</text>
</g>
<!-- n1&#45;&gt;n2 -->
<g id="edge1" class="edge">
<title>n1&#45;&gt;n2</title>
<path fill="none" stroke="black" d="M708.65,-244C618.09,-221.95 460.51,-183.6 365.32,-160.43"/>
<polygon fill="black" stroke="black" points="365.99,-156.99 355.45,-158.03 364.34,-163.79 365.99,-156.99"/>
</g>
<!-- n3 -->
<g id="node3" class="node">
<title>n3</title>
<polygon fill="#fffdd0" stroke="black" points="934,-158 623,-158 623,-122 934,-122 934,-158"/>
<text text-anchor="middle" x="778.5" y="-136.3" font-family="Arial" font-size="14.00">Pond with lily pads, fish, frogs, dragonflies, clams</text>
</g>
<!-- n1&#45;&gt;n3 -->
<g id="edge2" class="edge">
<title>n1&#45;&gt;n3</title>
<path fill="none" stroke="black" d="M778.5,-243.81C778.5,-224.11 778.5,-191.58 778.5,-168.39"/>
<polygon fill="black" stroke="black" points="782,-168.16 778.5,-158.16 775,-168.16 782,-168.16"/>
</g>
<!-- n4 -->
<g id="node4" class="node">
<title>n4</title>
<polygon fill="#fffdd0" stroke="black" points="1195,-158 992,-158 992,-122 1195,-122 1195,-158"/>
<text text-anchor="middle" x="1093.5" y="-136.3" font-family="Arial" font-size="14.00">Animals: squirrels, lizards, ants</text>
</g>
<!-- n1&#45;&gt;n4 -->
<g id="edge3" class="edge">
<title>n1&#45;&gt;n4</title>
<path fill="none" stroke="black" d="M823.3,-243.93C880.21,-222.25 978.36,-184.86 1039.4,-161.61"/>
<polygon fill="black" stroke="black" points="1040.79,-164.83 1048.9,-158.01 1038.31,-158.28 1040.79,-164.83"/>
</g>
<!-- n6 -->
<g id="node5" class="node">
<title>n6</title>
<path fill="palegreen" stroke="black" d="M297,-36C297,-36 12,-36 12,-36 6,-36 0,-30 0,-24 0,-24 0,-12 0,-12 0,-6 6,0 12,0 12,0 297,0 297,0 303,0 309,-6 309,-12 309,-12 309,-24 309,-24 309,-30 303,-36 297,-36"/>
<text text-anchor="middle" x="154.5" y="-14.3" font-family="Arial" font-size="14.00">Represents a variety of trees, plants, and flowers</text>
</g>
<!-- n2&#45;&gt;n6 -->
<g id="edge4" class="edge">
<title>n2&#45;&gt;n6</title>
<path fill="none" stroke="black" d="M266.73,-121.81C244.16,-101.13 206.15,-66.31 180.7,-43"/>
<polygon fill="black" stroke="black" points="182.97,-40.33 173.23,-36.16 178.24,-45.49 182.97,-40.33"/>
</g>
<!-- n5 -->
<g id="node6" class="node">
<title>n5</title>
<path fill="palegreen" stroke="black" d="M594,-36C594,-36 379,-36 379,-36 373,-36 367,-30 367,-24 367,-24 367,-12 367,-12 367,-6 373,0 379,0 379,0 594,0 594,0 600,0 606,-6 606,-12 606,-12 606,-24 606,-24 606,-30 600,-36 594,-36"/>
<text text-anchor="middle" x="486.5" y="-14.3" font-family="Arial" font-size="14.00">Captures land and water ecosystems</text>
</g>
<!-- n3&#45;&gt;n5 -->
<g id="edge5" class="edge">
<title>n3&#45;&gt;n5</title>
<path fill="none" stroke="black" d="M736.97,-121.93C684.43,-100.34 593.98,-63.17 537.36,-39.9"/>
<polygon fill="black" stroke="black" points="538.46,-36.57 527.88,-36.01 535.8,-43.04 538.46,-36.57"/>
</g>
<!-- n8 -->
<g id="node7" class="node">
<title>n8</title>
<path fill="palegreen" stroke="black" d="M1203.5,-36C1203.5,-36 983.5,-36 983.5,-36 977.5,-36 971.5,-30 971.5,-24 971.5,-24 971.5,-12 971.5,-12 971.5,-6 977.5,0 983.5,0 983.5,0 1203.5,0 1203.5,0 1209.5,0 1215.5,-6 1215.5,-12 1215.5,-12 1215.5,-24 1215.5,-24 1215.5,-30 1209.5,-36 1203.5,-36"/>
<text text-anchor="middle" x="1093.5" y="-14.3" font-family="Arial" font-size="14.00">Highlights habitat&#45;specific living things</text>
</g>
<!-- n3&#45;&gt;n8 -->
<g id="edge6" class="edge">
<title>n3&#45;&gt;n8</title>
<path fill="none" stroke="black" d="M823.3,-121.93C880.21,-100.25 978.36,-62.86 1039.4,-39.61"/>
<polygon fill="black" stroke="black" points="1040.79,-42.83 1048.9,-36.01 1038.31,-36.28 1040.79,-42.83"/>
</g>
<!-- n9 -->
<g id="node8" class="node">
<title>n9</title>
<polygon fill="#f28e8e" stroke="black" points="913,-36 664,-36 664,0 913,0 913,-36"/>
<text text-anchor="middle" x="788.5" y="-14.3" font-family="Arial" font-size="14.00">Occasional missing or corrected labels</text>
</g>
<!-- n3&#45;&gt;n9 -->
<g id="edge7" class="edge">
<title>n3&#45;&gt;n9</title>
<path fill="none" stroke="black" d="M779.93,-121.81C781.57,-102.11 784.28,-69.58 786.22,-46.39"/>
<polygon fill="black" stroke="black" points="789.73,-46.42 787.07,-36.16 782.75,-45.84 789.73,-46.42"/>
</g>
<!-- n4&#45;&gt;n8 -->
<g id="edge8" class="edge">
<title>n4&#45;&gt;n8</title>
<path fill="none" stroke="black" d="M1093.5,-121.81C1093.5,-102.11 1093.5,-69.58 1093.5,-46.39"/>
<polygon fill="black" stroke="black" points="1097,-46.16 1093.5,-36.16 1090,-46.16 1097,-46.16"/>
</g>
<!-- n4&#45;&gt;n9 -->
<g id="edge9" class="edge">
<title>n4&#45;&gt;n9</title>
<path fill="none" stroke="black" d="M1050.1,-121.93C995.13,-100.3 900.38,-63.02 841.26,-39.76"/>
<polygon fill="black" stroke="black" points="842.32,-36.41 831.73,-36.01 839.75,-42.92 842.32,-36.41"/>
</g>
<!-- n7 -->
<g id="node9" class="node">
<title>n7</title>
<path fill="palegreen" stroke="black" d="M1435.5,-36C1435.5,-36 1285.5,-36 1285.5,-36 1279.5,-36 1273.5,-30 1273.5,-24 1273.5,-24 1273.5,-12 1273.5,-12 1273.5,-6 1279.5,0 1285.5,0 1285.5,0 1435.5,0 1435.5,0 1441.5,0 1447.5,-6 1447.5,-12 1447.5,-12 1447.5,-24 1447.5,-24 1447.5,-30 1441.5,-36 1435.5,-36"/>
<text text-anchor="middle" x="1360.5" y="-14.3" font-family="Arial" font-size="14.00">Depicts diverse animal life</text>
</g>
<!-- n4&#45;&gt;n7 -->
<g id="edge10" class="edge">
<title>n4&#45;&gt;n7</title>
<path fill="none" stroke="black" d="M1131.5,-121.93C1179.3,-100.43 1261.5,-63.48 1313.4,-40.19"/>
<polygon fill="black" stroke="black" points="1315.02,-43.3 1322.7,-36.01 1312.14,-36.92 1315.02,-43.3"/>
</g>
</g>
</svg>
