<?xml version="1.0" encoding="UTF-8" standalone="no"?>
<!DOCTYPE svg PUBLIC "-//W3C//DTD SVG 1.1//EN"
 "http://www.w3.org/Graphics/SVG/1.1/DTD/svg11.dtd">
<!-- Generated by graphviz version 2.43.0 (0)
 -->
<!-- Pages: 1 -->
<svg width="1744pt" height="410pt"
 viewBox="0.00 0.00 1743.66 410.00" xmlns="http://www.w3.org/2000/svg" xmlns:xlink="http://www.w3.org/1999/xlink">
<g id="graph0" class="graph" transform="scale(1 1) rotate(0) translate(4 406)">
<polygon fill="white" stroke="transparent" points="-4,4 -4,-406 1739.66,-406 1739.66,4 -4,4"/>
<!-- n1 -->
<g id="node1" class="node">
<title>n1</title>
<polygon fill="lightblue" stroke="black" points="993.5,-384 882,-402 659,-402 547.5,-384 659,-366 882,-366 993.5,-384"/>
<text text-anchor="middle" x="770.5" y="-380.3" font-family="Arial" font-size="14.00">Draw a string telephone between two students.</text>
</g>
<!-- n2 -->
<g id="node2" class="node">
<title>n2</title>
<polygon fill="#fffdd0" stroke="black" points="393.5,-280 151.5,-280 151.5,-244 393.5,-244 393.5,-280"/>
<text text-anchor="middle" x="272.5" y="-258.3" font-family="Arial" font-size="14.00">Two students with different hair colors</text>
</g>
<!-- n1&#45;&gt;n2 -->
<g id="edge1" class="edge">
<title>n1&#45;&gt;n2</title>
<path fill="none" stroke="black" d="M699.94,-366C608.46,-343.95 449.28,-305.6 353.13,-282.43"/>
<polygon fill="black" stroke="black" points="353.7,-278.97 343.16,-280.03 352.06,-285.77 353.7,-278.97"/>
</g>
<!-- n3 -->
<g id="node3" class="node">
<title>n3</title>
<polygon fill="#fffdd0" stroke="black" points="742.5,-280 516.5,-280 516.5,-244 742.5,-244 742.5,-280"/>
<text text-anchor="middle" x="629.5" y="-258.3" font-family="Arial" font-size="14.00">Taut red string connecting students</text>
</g>
<!-- n1&#45;&gt;n3 -->
<g id="edge2" class="edge">
<title>n1&#45;&gt;n3</title>
<path fill="none" stroke="black" d="M750.3,-365.81C725.9,-345.04 684.74,-310.01 657.35,-286.7"/>
<polygon fill="black" stroke="black" points="659.55,-283.97 649.66,-280.16 655.01,-289.3 659.55,-283.97"/>
</g>
<!-- n4 -->
<g id="node4" class="node">
<title>n4</title>
<polygon fill="#fffdd0" stroke="black" points="1113.5,-280 889.5,-280 889.5,-244 1113.5,-244 1113.5,-280"/>
<text text-anchor="middle" x="1001.5" y="-258.3" font-family="Arial" font-size="14.00">Blue cups at each end of the string</text>
</g>
<!-- n1&#45;&gt;n4 -->
<g id="edge3" class="edge">
<title>n1&#45;&gt;n4</title>
<path fill="none" stroke="black" d="M803.6,-365.81C844.68,-344.47 914.79,-308.05 959.58,-284.77"/>
<polygon fill="black" stroke="black" points="961.2,-287.87 968.46,-280.16 957.97,-281.66 961.2,-287.87"/>
</g>
<!-- n5 -->
<g id="node5" class="node">
<title>n5</title>
<polygon fill="#fffdd0" stroke="black" points="1569,-280 1302,-280 1302,-244 1569,-244 1569,-280"/>
<text text-anchor="middle" x="1435.5" y="-258.3" font-family="Arial" font-size="14.00">Sound waves represented by curved lines</text>
</g>
<!-- n1&#45;&gt;n5 -->
<g id="edge4" class="edge">
<title>n1&#45;&gt;n5</title>
<path fill="none" stroke="black" d="M864.72,-366C987.87,-343.78 1202.9,-304.98 1330.9,-281.87"/>
<polygon fill="black" stroke="black" points="1331.88,-285.25 1341.1,-280.03 1330.64,-278.36 1331.88,-285.25"/>
</g>
<!-- n6 -->
<g id="node6" class="node">
<title>n6</title>
<path fill="palegreen" stroke="black" d="M315,-158C315,-158 12,-158 12,-158 6,-158 0,-152 0,-146 0,-146 0,-134 0,-134 0,-128 6,-122 12,-122 12,-122 315,-122 315,-122 321,-122 327,-128 327,-134 327,-134 327,-146 327,-146 327,-152 321,-158 315,-158"/>
<text text-anchor="middle" x="163.5" y="-136.3" font-family="Arial" font-size="14.00">Student appears to understand diversity in depiction</text>
</g>
<!-- n2&#45;&gt;n6 -->
<g id="edge5" class="edge">
<title>n2&#45;&gt;n6</title>
<path fill="none" stroke="black" d="M256.88,-243.81C238.27,-223.31 207.02,-188.91 185.85,-165.6"/>
<polygon fill="black" stroke="black" points="188.41,-163.21 179.09,-158.16 183.22,-167.91 188.41,-163.21"/>
</g>
<!-- n7 -->
<g id="node7" class="node">
<title>n7</title>
<path fill="palegreen" stroke="black" d="M774,-158C774,-158 397,-158 397,-158 391,-158 385,-152 385,-146 385,-146 385,-134 385,-134 385,-128 391,-122 397,-122 397,-122 774,-122 774,-122 780,-122 786,-128 786,-134 786,-134 786,-146 786,-146 786,-152 780,-158 774,-158"/>
<text text-anchor="middle" x="585.5" y="-136.3" font-family="Arial" font-size="14.00">Correct understanding of physical connection in string telephone</text>
</g>
<!-- n3&#45;&gt;n7 -->
<g id="edge6" class="edge">
<title>n3&#45;&gt;n7</title>
<path fill="none" stroke="black" d="M623.2,-243.81C615.91,-223.94 603.83,-190.99 595.31,-167.76"/>
<polygon fill="black" stroke="black" points="598.52,-166.34 591.79,-158.16 591.95,-168.75 598.52,-166.34"/>
</g>
<!-- n8 -->
<g id="node8" class="node">
<title>n8</title>
<path fill="palegreen" stroke="black" d="M1237,-158C1237,-158 856,-158 856,-158 850,-158 844,-152 844,-146 844,-146 844,-134 844,-134 844,-128 850,-122 856,-122 856,-122 1237,-122 1237,-122 1243,-122 1249,-128 1249,-134 1249,-134 1249,-146 1249,-146 1249,-152 1243,-158 1237,-158"/>
<text text-anchor="middle" x="1046.5" y="-136.3" font-family="Arial" font-size="14.00">Correct depiction of using available tools to solve communication</text>
</g>
<!-- n4&#45;&gt;n8 -->
<g id="edge7" class="edge">
<title>n4&#45;&gt;n8</title>
<path fill="none" stroke="black" d="M1007.9,-243.81C1015.4,-223.94 1027.8,-190.99 1036.5,-167.76"/>
<polygon fill="black" stroke="black" points="1039.87,-168.75 1040.1,-158.16 1033.31,-166.29 1039.87,-168.75"/>
</g>
<!-- n9 -->
<g id="node9" class="node">
<title>n9</title>
<polygon fill="lightcoral" stroke="black" points="1521.5,-158 1307.17,-140 1521.5,-122 1735.83,-140 1521.5,-158"/>
<text text-anchor="middle" x="1521.5" y="-136.3" font-family="Arial" font-size="14.00">Incomplete depiction of sound travel</text>
</g>
<!-- n5&#45;&gt;n9 -->
<g id="edge8" class="edge">
<title>n5&#45;&gt;n9</title>
<path fill="none" stroke="black" d="M1447.8,-243.81C1462.5,-223.35 1487.1,-189.04 1503.8,-165.73"/>
<polygon fill="black" stroke="black" points="1506.8,-167.55 1509.8,-157.39 1501.12,-163.46 1506.8,-167.55"/>
</g>
<!-- n10 -->
<g id="node10" class="node">
<title>n10</title>
<polygon fill="#f28e8e" stroke="black" points="1692.5,-36 1350.5,-36 1350.5,0 1692.5,0 1692.5,-36"/>
<text text-anchor="middle" x="1521.5" y="-14.3" font-family="Arial" font-size="14.00">Add labels and direction for sound waves. Use arrows.</text>
</g>
<!-- n9&#45;&gt;n10 -->
<g id="edge9" class="edge">
<title>n9&#45;&gt;n10</title>
<path fill="none" stroke="black" d="M1521.5,-121.81C1521.5,-102.11 1521.5,-69.58 1521.5,-46.39"/>
<polygon fill="black" stroke="black" points="1525,-46.16 1521.5,-36.16 1518,-46.16 1525,-46.16"/>
</g>
</g>
</svg>
