<?xml version="1.0" encoding="UTF-8" standalone="no"?>
<!DOCTYPE svg PUBLIC "-//W3C//DTD SVG 1.1//EN"
 "http://www.w3.org/Graphics/SVG/1.1/DTD/svg11.dtd">
<!-- Generated by graphviz version 2.43.0 (0)
 -->
<!-- Pages: 1 -->
<svg width="1215pt" height="410pt"
 viewBox="0.00 0.00 1214.50 410.00" xmlns="http://www.w3.org/2000/svg" xmlns:xlink="http://www.w3.org/1999/xlink">
<g id="graph0" class="graph" transform="scale(1 1) rotate(0) translate(4 406)">
<polygon fill="white" stroke="transparent" points="-4,4 -4,-406 1210.5,-406 1210.5,4 -4,4"/>
<!-- n1 -->
<g id="node1" class="node">
<title>n1</title>
<polygon fill="lightblue" stroke="black" points="739.24,-384 646.12,-402 459.88,-402 366.76,-384 459.88,-366 646.12,-366 739.24,-384"/>
<text text-anchor="middle" x="553" y="-380.3" font-family="Arial" font-size="14.00">Illustrate plants with and without water.</text>
</g>
<!-- n2 -->
<g id="node2" class="node">
<title>n2</title>
<polygon fill="#fffdd0" stroke="black" points="386,-280 0,-280 0,-244 386,-244 386,-280"/>
<text text-anchor="middle" x="193" y="-258.3" font-family="Arial" font-size="14.00">Healthy plant with vibrant green leaves and small pink flowers</text>
</g>
<!-- n1&#45;&gt;n2 -->
<g id="edge1" class="edge">
<title>n1&#45;&gt;n2</title>
<path fill="none" stroke="black" d="M501.8,-365.93C436.36,-344.12 323.2,-306.4 253.55,-283.18"/>
<polygon fill="black" stroke="black" points="254.61,-279.85 244.02,-280.01 252.4,-286.49 254.61,-279.85"/>
</g>
<!-- n3 -->
<g id="node3" class="node">
<title>n3</title>
<polygon fill="#fffdd0" stroke="black" points="917.5,-280 720.5,-280 720.5,-244 917.5,-244 917.5,-280"/>
<text text-anchor="middle" x="819" y="-258.3" font-family="Arial" font-size="14.00">Raincloud above healthy plant</text>
</g>
<!-- n1&#45;&gt;n3 -->
<g id="edge2" class="edge">
<title>n1&#45;&gt;n3</title>
<path fill="none" stroke="black" d="M590.83,-365.93C638.49,-344.43 720.41,-307.48 772.03,-284.19"/>
<polygon fill="black" stroke="black" points="773.62,-287.31 781.3,-280.01 770.75,-280.93 773.62,-287.31"/>
</g>
<!-- n4 -->
<g id="node4" class="node">
<title>n4</title>
<polygon fill="#fffdd0" stroke="black" points="662,-280 444,-280 444,-244 662,-244 662,-280"/>
<text text-anchor="middle" x="553" y="-258.3" font-family="Arial" font-size="14.00">Plant with brown, drooping leaves</text>
</g>
<!-- n1&#45;&gt;n4 -->
<g id="edge3" class="edge">
<title>n1&#45;&gt;n4</title>
<path fill="none" stroke="black" d="M553,-365.81C553,-346.11 553,-313.58 553,-290.39"/>
<polygon fill="black" stroke="black" points="556.5,-290.16 553,-280.16 549.5,-290.16 556.5,-290.16"/>
</g>
<!-- n5 -->
<g id="node5" class="node">
<title>n5</title>
<path fill="palegreen" stroke="black" d="M576,-158C576,-158 316,-158 316,-158 310,-158 304,-152 304,-146 304,-146 304,-134 304,-134 304,-128 310,-122 316,-122 316,-122 576,-122 576,-122 582,-122 588,-128 588,-134 588,-134 588,-146 588,-146 588,-152 582,-158 576,-158"/>
<text text-anchor="middle" x="446" y="-136.3" font-family="Arial" font-size="14.00">Student understands water’s effect on plants</text>
</g>
<!-- n2&#45;&gt;n5 -->
<g id="edge4" class="edge">
<title>n2&#45;&gt;n5</title>
<path fill="none" stroke="black" d="M228.98,-243.93C274.22,-222.48 351.9,-185.63 401.02,-162.33"/>
<polygon fill="black" stroke="black" points="402.6,-165.45 410.14,-158.01 399.6,-159.13 402.6,-165.45"/>
</g>
<!-- n3&#45;&gt;n5 -->
<g id="edge5" class="edge">
<title>n3&#45;&gt;n5</title>
<path fill="none" stroke="black" d="M765.95,-243.93C698.14,-222.12 580.91,-184.4 508.74,-161.18"/>
<polygon fill="black" stroke="black" points="509.45,-157.73 498.86,-158.01 507.31,-164.4 509.45,-157.73"/>
</g>
<!-- n6 -->
<g id="node6" class="node">
<title>n6</title>
<polygon fill="lightcoral" stroke="black" points="926,-158 645.5,-140 926,-122 1206.5,-140 926,-158"/>
<text text-anchor="middle" x="926" y="-136.3" font-family="Arial" font-size="14.00">Student struggles to show light&#39;s effect on plants</text>
</g>
<!-- n3&#45;&gt;n6 -->
<g id="edge6" class="edge">
<title>n3&#45;&gt;n6</title>
<path fill="none" stroke="black" d="M834.33,-243.81C852.73,-223.17 883.71,-188.43 904.49,-165.12"/>
<polygon fill="black" stroke="black" points="907.34,-167.18 911.38,-157.39 902.11,-162.53 907.34,-167.18"/>
</g>
<!-- n4&#45;&gt;n5 -->
<g id="edge7" class="edge">
<title>n4&#45;&gt;n5</title>
<path fill="none" stroke="black" d="M537.67,-243.81C519.47,-223.4 488.99,-189.21 468.21,-165.91"/>
<polygon fill="black" stroke="black" points="470.57,-163.29 461.3,-158.16 465.34,-167.95 470.57,-163.29"/>
</g>
<!-- n7 -->
<g id="node7" class="node">
<title>n7</title>
<polygon fill="#f28e8e" stroke="black" points="1072.5,-36 779.5,-36 779.5,0 1072.5,0 1072.5,-36"/>
<text text-anchor="middle" x="926" y="-14.3" font-family="Arial" font-size="14.00">Feedback: Include explicit light source or label</text>
</g>
<!-- n6&#45;&gt;n7 -->
<g id="edge8" class="edge">
<title>n6&#45;&gt;n7</title>
<path fill="none" stroke="black" d="M926,-121.81C926,-102.11 926,-69.58 926,-46.39"/>
<polygon fill="black" stroke="black" points="929.5,-46.16 926,-36.16 922.5,-46.16 929.5,-46.16"/>
</g>
</g>
</svg>
