<?xml version="1.0" encoding="UTF-8" standalone="no"?>
<!DOCTYPE svg PUBLIC "-//W3C//DTD SVG 1.1//EN"
 "http://www.w3.org/Graphics/SVG/1.1/DTD/svg11.dtd">
<!-- Generated by graphviz version 2.43.0 (0)
 -->
<!-- Pages: 1 -->
<svg width="1340pt" height="410pt"
 viewBox="0.00 0.00 1340.00 410.00" xmlns="http://www.w3.org/2000/svg" xmlns:xlink="http://www.w3.org/1999/xlink">
<g id="graph0" class="graph" transform="scale(1 1) rotate(0) translate(4 406)">
<polygon fill="white" stroke="transparent" points="-4,4 -4,-406 1336,-406 1336,4 -4,4"/>
<!-- n1 -->
<g id="node1" class="node">
<title>n1</title>
<polygon fill="lightblue" stroke="black" points="780.82,-384 658.41,-402 413.59,-402 291.18,-384 413.59,-366 658.41,-366 780.82,-384"/>
<text text-anchor="middle" x="536" y="-380.3" font-family="Arial" font-size="14.00">Draw a habitat and the different living things in each</text>
</g>
<!-- n2 -->
<g id="node2" class="node">
<title>n2</title>
<polygon fill="#fffdd0" stroke="black" points="172.5,-280 81.5,-280 81.5,-244 172.5,-244 172.5,-280"/>
<text text-anchor="middle" x="127" y="-258.3" font-family="Arial" font-size="14.00">Grassy area</text>
</g>
<!-- n1&#45;&gt;n2 -->
<g id="edge1" class="edge">
<title>n1&#45;&gt;n2</title>
<path fill="none" stroke="black" d="M477.83,-365.93C399.21,-342.87 259.99,-302.02 182.67,-279.33"/>
<polygon fill="black" stroke="black" points="183.22,-275.84 172.64,-276.39 181.25,-282.56 183.22,-275.84"/>
</g>
<!-- n3 -->
<g id="node3" class="node">
<title>n3</title>
<polygon fill="#fffdd0" stroke="black" points="528,-280 230,-280 230,-244 528,-244 528,-280"/>
<text text-anchor="middle" x="379" y="-258.3" font-family="Arial" font-size="14.00">Simple tree with green treetop and brown trunk</text>
</g>
<!-- n1&#45;&gt;n3 -->
<g id="edge2" class="edge">
<title>n1&#45;&gt;n3</title>
<path fill="none" stroke="black" d="M513.51,-365.81C486.22,-344.96 440.11,-309.71 409.61,-286.4"/>
<polygon fill="black" stroke="black" points="411.52,-283.45 401.45,-280.16 407.27,-289.01 411.52,-283.45"/>
</g>
<!-- n4 -->
<g id="node4" class="node">
<title>n4</title>
<polygon fill="#fffdd0" stroke="black" points="802,-280 586,-280 586,-244 802,-244 802,-280"/>
<text text-anchor="middle" x="694" y="-258.3" font-family="Arial" font-size="14.00">Basic cat shape with face and tail</text>
</g>
<!-- n1&#45;&gt;n4 -->
<g id="edge3" class="edge">
<title>n1&#45;&gt;n4</title>
<path fill="none" stroke="black" d="M558.64,-365.81C586.09,-344.96 632.5,-309.71 663.19,-286.4"/>
<polygon fill="black" stroke="black" points="665.56,-289 671.4,-280.16 661.32,-283.42 665.56,-289"/>
</g>
<!-- n5 -->
<g id="node5" class="node">
<title>n5</title>
<polygon fill="#fffdd0" stroke="black" points="1140,-280 860,-280 860,-244 1140,-244 1140,-280"/>
<text text-anchor="middle" x="1000" y="-258.3" font-family="Arial" font-size="14.00">Fish drawn above the grass, colored orange</text>
</g>
<!-- n1&#45;&gt;n5 -->
<g id="edge4" class="edge">
<title>n1&#45;&gt;n5</title>
<path fill="none" stroke="black" d="M601.99,-365.93C687.12,-343.92 834.87,-305.71 924.42,-282.55"/>
<polygon fill="black" stroke="black" points="925.44,-285.9 934.24,-280.01 923.68,-279.13 925.44,-285.9"/>
</g>
<!-- n6 -->
<g id="node6" class="node">
<title>n6</title>
<path fill="palegreen" stroke="black" d="M242,-158C242,-158 12,-158 12,-158 6,-158 0,-152 0,-146 0,-146 0,-134 0,-134 0,-128 6,-122 12,-122 12,-122 242,-122 242,-122 248,-122 254,-128 254,-134 254,-134 254,-146 254,-146 254,-152 248,-158 242,-158"/>
<text text-anchor="middle" x="127" y="-136.3" font-family="Arial" font-size="14.00">Identifies land habitat like a grassy area</text>
</g>
<!-- n2&#45;&gt;n6 -->
<g id="edge5" class="edge">
<title>n2&#45;&gt;n6</title>
<path fill="none" stroke="black" d="M127,-243.81C127,-224.11 127,-191.58 127,-168.39"/>
<polygon fill="black" stroke="black" points="130.5,-168.16 127,-158.16 123.5,-168.16 130.5,-168.16"/>
</g>
<!-- n7 -->
<g id="node7" class="node">
<title>n7</title>
<path fill="palegreen" stroke="black" d="M575.5,-158C575.5,-158 348.5,-158 348.5,-158 342.5,-158 336.5,-152 336.5,-146 336.5,-146 336.5,-134 336.5,-134 336.5,-128 342.5,-122 348.5,-122 348.5,-122 575.5,-122 575.5,-122 581.5,-122 587.5,-128 587.5,-134 587.5,-134 587.5,-146 587.5,-146 587.5,-152 581.5,-158 575.5,-158"/>
<text text-anchor="middle" x="462" y="-136.3" font-family="Arial" font-size="14.00">Can draw basic features of living things</text>
</g>
<!-- n3&#45;&gt;n7 -->
<g id="edge6" class="edge">
<title>n3&#45;&gt;n7</title>
<path fill="none" stroke="black" d="M390.89,-243.81C404.88,-223.58 428.24,-189.81 444.35,-166.52"/>
<polygon fill="black" stroke="black" points="447.32,-168.38 450.13,-158.16 441.56,-164.4 447.32,-168.38"/>
</g>
<!-- n4&#45;&gt;n7 -->
<g id="edge7" class="edge">
<title>n4&#45;&gt;n7</title>
<path fill="none" stroke="black" d="M660.76,-243.81C619.5,-222.47 549.09,-186.05 504.1,-162.77"/>
<polygon fill="black" stroke="black" points="505.67,-159.64 495.18,-158.16 502.46,-165.86 505.67,-159.64"/>
</g>
<!-- n8 -->
<g id="node8" class="node">
<title>n8</title>
<polygon fill="lightcoral" stroke="black" points="1000,-158 668,-140 1000,-122 1332,-140 1000,-158"/>
<text text-anchor="middle" x="1000" y="-136.3" font-family="Arial" font-size="14.00">Struggles to differentiate between land and water habitats</text>
</g>
<!-- n5&#45;&gt;n8 -->
<g id="edge8" class="edge">
<title>n5&#45;&gt;n8</title>
<path fill="none" stroke="black" d="M1000,-243.81C1000,-224.11 1000,-191.58 1000,-168.39"/>
<polygon fill="black" stroke="black" points="1003.5,-168.16 1000,-158.16 996.5,-168.16 1003.5,-168.16"/>
</g>
<!-- n9 -->
<g id="node9" class="node">
<title>n9</title>
<polygon fill="#f28e8e" stroke="black" points="1203.5,-36 796.5,-36 796.5,0 1203.5,0 1203.5,-36"/>
<text text-anchor="middle" x="1000" y="-14.3" font-family="Arial" font-size="14.00">The fish should be placed in a water habitat like a pond or stream</text>
</g>
<!-- n8&#45;&gt;n9 -->
<g id="edge9" class="edge">
<title>n8&#45;&gt;n9</title>
<path fill="none" stroke="black" d="M1000,-121.81C1000,-102.11 1000,-69.58 1000,-46.39"/>
<polygon fill="black" stroke="black" points="1003.5,-46.16 1000,-36.16 996.5,-46.16 1003.5,-46.16"/>
</g>
</g>
</svg>
