<?xml version="1.0" encoding="UTF-8" standalone="no"?>
<!DOCTYPE svg PUBLIC "-//W3C//DTD SVG 1.1//EN"
 "http://www.w3.org/Graphics/SVG/1.1/DTD/svg11.dtd">
<!-- Generated by graphviz version 2.43.0 (0)
 -->
<!-- Pages: 1 -->
<svg width="2019pt" height="410pt"
 viewBox="0.00 0.00 2018.62 410.00" xmlns="http://www.w3.org/2000/svg" xmlns:xlink="http://www.w3.org/1999/xlink">
<g id="graph0" class="graph" transform="scale(1 1) rotate(0) translate(4 406)">
<polygon fill="white" stroke="transparent" points="-4,4 -4,-406 2014.62,-406 2014.62,4 -4,4"/>
<!-- n1 -->
<g id="node1" class="node">
<title>n1</title>
<polygon fill="lightblue" stroke="black" points="1122,-384 1030,-402 846,-402 754,-384 846,-366 1030,-366 1122,-384"/>
<text text-anchor="middle" x="938" y="-380.3" font-family="Arial" font-size="14.00">Illustrate plants with and without water</text>
</g>
<!-- n2 -->
<g id="node2" class="node">
<title>n2</title>
<polygon fill="#fffdd0" stroke="black" points="624.5,-280 347.5,-280 347.5,-244 624.5,-244 624.5,-280"/>
<text text-anchor="middle" x="486" y="-258.3" font-family="Arial" font-size="14.00">Healthy plant with green leaves and flowers</text>
</g>
<!-- n1&#45;&gt;n2 -->
<g id="edge1" class="edge">
<title>n1&#45;&gt;n2</title>
<path fill="none" stroke="black" d="M873.72,-365.93C790.88,-343.94 647.15,-305.78 559.89,-282.62"/>
<polygon fill="black" stroke="black" points="560.62,-279.19 550.06,-280.01 558.83,-285.96 560.62,-279.19"/>
</g>
<!-- n3 -->
<g id="node3" class="node">
<title>n3</title>
<polygon fill="#fffdd0" stroke="black" points="904.5,-280 683.5,-280 683.5,-244 904.5,-244 904.5,-280"/>
<text text-anchor="middle" x="794" y="-258.3" font-family="Arial" font-size="14.00">Watering can nearby healthy plant</text>
</g>
<!-- n1&#45;&gt;n3 -->
<g id="edge2" class="edge">
<title>n1&#45;&gt;n3</title>
<path fill="none" stroke="black" d="M917.37,-365.81C892.45,-345.04 850.41,-310.01 822.44,-286.7"/>
<polygon fill="black" stroke="black" points="824.51,-283.87 814.59,-280.16 820.03,-289.25 824.51,-283.87"/>
</g>
<!-- n4 -->
<g id="node4" class="node">
<title>n4</title>
<polygon fill="#fffdd0" stroke="black" points="1203,-280 963,-280 963,-244 1203,-244 1203,-280"/>
<text text-anchor="middle" x="1083" y="-258.3" font-family="Arial" font-size="14.00">Wilted plant with brown/yellow leaves</text>
</g>
<!-- n1&#45;&gt;n4 -->
<g id="edge3" class="edge">
<title>n1&#45;&gt;n4</title>
<path fill="none" stroke="black" d="M958.77,-365.81C983.86,-345.04 1026.2,-310.01 1054.4,-286.7"/>
<polygon fill="black" stroke="black" points="1056.83,-289.23 1062.3,-280.16 1052.37,-283.84 1056.83,-289.23"/>
</g>
<!-- n5 -->
<g id="node5" class="node">
<title>n5</title>
<polygon fill="#fffdd0" stroke="black" points="1542.5,-280 1317.5,-280 1317.5,-244 1542.5,-244 1542.5,-280"/>
<text text-anchor="middle" x="1430" y="-258.3" font-family="Arial" font-size="14.00">Use of labels &#39;water&#39; and &#39;no water&#39;</text>
</g>
<!-- n1&#45;&gt;n5 -->
<g id="edge4" class="edge">
<title>n1&#45;&gt;n5</title>
<path fill="none" stroke="black" d="M1007.7,-366C1098.1,-343.95 1255.3,-305.6 1350.3,-282.43"/>
<polygon fill="black" stroke="black" points="1351.31,-285.79 1360.2,-280.03 1349.66,-278.98 1351.31,-285.79"/>
</g>
<!-- n6 -->
<g id="node6" class="node">
<title>n6</title>
<path fill="palegreen" stroke="black" d="M284,-158C284,-158 12,-158 12,-158 6,-158 0,-152 0,-146 0,-146 0,-134 0,-134 0,-128 6,-122 12,-122 12,-122 284,-122 284,-122 290,-122 296,-128 296,-134 296,-134 296,-146 296,-146 296,-152 290,-158 284,-158"/>
<text text-anchor="middle" x="148" y="-136.3" font-family="Arial" font-size="14.00">Represents a healthy, growing plant with water</text>
</g>
<!-- n2&#45;&gt;n6 -->
<g id="edge5" class="edge">
<title>n2&#45;&gt;n6</title>
<path fill="none" stroke="black" d="M437.93,-243.93C376.74,-222.21 271.12,-184.71 205.65,-161.47"/>
<polygon fill="black" stroke="black" points="206.49,-158.06 195.9,-158.01 204.15,-164.65 206.49,-158.06"/>
</g>
<!-- n9 -->
<g id="node7" class="node">
<title>n9</title>
<path fill="palegreen" stroke="black" d="M901.5,-158C901.5,-158 686.5,-158 686.5,-158 680.5,-158 674.5,-152 674.5,-146 674.5,-146 674.5,-134 674.5,-134 674.5,-128 680.5,-122 686.5,-122 686.5,-122 901.5,-122 901.5,-122 907.5,-122 913.5,-128 913.5,-134 913.5,-134 913.5,-146 913.5,-146 913.5,-152 907.5,-158 901.5,-158"/>
<text text-anchor="middle" x="794" y="-136.3" font-family="Arial" font-size="14.00">Shows how water affects plant health</text>
</g>
<!-- n2&#45;&gt;n9 -->
<g id="edge6" class="edge">
<title>n2&#45;&gt;n9</title>
<path fill="none" stroke="black" d="M529.8,-243.93C585.34,-222.3 681.02,-185.02 740.73,-161.76"/>
<polygon fill="black" stroke="black" points="742.3,-164.9 750.35,-158.01 739.76,-158.38 742.3,-164.9"/>
</g>
<!-- n10 -->
<g id="node8" class="node">
<title>n10</title>
<polygon fill="lightcoral" stroke="black" points="485,-158 353.5,-140 485,-122 616.5,-140 485,-158"/>
<text text-anchor="middle" x="485" y="-136.3" font-family="Arial" font-size="14.00">Soil color lacks detail</text>
</g>
<!-- n2&#45;&gt;n10 -->
<g id="edge7" class="edge">
<title>n2&#45;&gt;n10</title>
<path fill="none" stroke="black" d="M485.86,-243.81C485.69,-224.11 485.42,-191.58 485.23,-168.39"/>
<polygon fill="black" stroke="black" points="488.73,-168.13 485.14,-158.16 481.73,-168.19 488.73,-168.13"/>
</g>
<!-- n3&#45;&gt;n9 -->
<g id="edge8" class="edge">
<title>n3&#45;&gt;n9</title>
<path fill="none" stroke="black" d="M794,-243.81C794,-224.11 794,-191.58 794,-168.39"/>
<polygon fill="black" stroke="black" points="797.5,-168.16 794,-158.16 790.5,-168.16 797.5,-168.16"/>
</g>
<!-- n4&#45;&gt;n9 -->
<g id="edge9" class="edge">
<title>n4&#45;&gt;n9</title>
<path fill="none" stroke="black" d="M1041.9,-243.93C989.9,-222.34 900.38,-185.17 844.33,-161.9"/>
<polygon fill="black" stroke="black" points="845.54,-158.61 834.96,-158.01 842.85,-165.08 845.54,-158.61"/>
</g>
<!-- n7 -->
<g id="node9" class="node">
<title>n7</title>
<path fill="palegreen" stroke="black" d="M1232,-158C1232,-158 984,-158 984,-158 978,-158 972,-152 972,-146 972,-146 972,-134 972,-134 972,-128 978,-122 984,-122 984,-122 1232,-122 1232,-122 1238,-122 1244,-128 1244,-134 1244,-134 1244,-146 1244,-146 1244,-152 1238,-158 1232,-158"/>
<text text-anchor="middle" x="1108" y="-136.3" font-family="Arial" font-size="14.00">Shows a wilted plant without enough water</text>
</g>
<!-- n4&#45;&gt;n7 -->
<g id="edge10" class="edge">
<title>n4&#45;&gt;n7</title>
<path fill="none" stroke="black" d="M1086.6,-243.81C1090.7,-224.02 1097.5,-191.29 1102.4,-168.08"/>
<polygon fill="black" stroke="black" points="1105.85,-168.65 1104.4,-158.16 1098.99,-167.27 1105.85,-168.65"/>
</g>
<!-- n8 -->
<g id="node10" class="node">
<title>n8</title>
<path fill="palegreen" stroke="black" d="M1545.5,-158C1545.5,-158 1314.5,-158 1314.5,-158 1308.5,-158 1302.5,-152 1302.5,-146 1302.5,-146 1302.5,-134 1302.5,-134 1302.5,-128 1308.5,-122 1314.5,-122 1314.5,-122 1545.5,-122 1545.5,-122 1551.5,-122 1557.5,-128 1557.5,-134 1557.5,-134 1557.5,-146 1557.5,-146 1557.5,-152 1551.5,-158 1545.5,-158"/>
<text text-anchor="middle" x="1430" y="-136.3" font-family="Arial" font-size="14.00">Indicates plant health with/without water</text>
</g>
<!-- n5&#45;&gt;n8 -->
<g id="edge11" class="edge">
<title>n5&#45;&gt;n8</title>
<path fill="none" stroke="black" d="M1430,-243.81C1430,-224.11 1430,-191.58 1430,-168.39"/>
<polygon fill="black" stroke="black" points="1433.5,-168.16 1430,-158.16 1426.5,-168.16 1433.5,-168.16"/>
</g>
<!-- n11 -->
<g id="node11" class="node">
<title>n11</title>
<polygon fill="lightcoral" stroke="black" points="1813,-158 1615.26,-140 1813,-122 2010.74,-140 1813,-158"/>
<text text-anchor="middle" x="1813" y="-136.3" font-family="Arial" font-size="14.00">Basic labeling could be improved</text>
</g>
<!-- n5&#45;&gt;n11 -->
<g id="edge12" class="edge">
<title>n5&#45;&gt;n11</title>
<path fill="none" stroke="black" d="M1484.5,-243.93C1558.1,-220.85 1688.6,-179.97 1761,-157.29"/>
<polygon fill="black" stroke="black" points="1762.3,-160.55 1770.8,-154.22 1760.21,-153.87 1762.3,-160.55"/>
</g>
<!-- n12 -->
<g id="node12" class="node">
<title>n12</title>
<polygon fill="#f28e8e" stroke="black" points="610,-36 360,-36 360,0 610,0 610,-36"/>
<text text-anchor="middle" x="485" y="-14.3" font-family="Arial" font-size="14.00">Enhance drawing by adding soil details</text>
</g>
<!-- n10&#45;&gt;n12 -->
<g id="edge13" class="edge">
<title>n10&#45;&gt;n12</title>
<path fill="none" stroke="black" d="M485,-121.81C485,-102.11 485,-69.58 485,-46.39"/>
<polygon fill="black" stroke="black" points="488.5,-46.16 485,-36.16 481.5,-46.16 488.5,-46.16"/>
</g>
<!-- n13 -->
<g id="node13" class="node">
<title>n13</title>
<polygon fill="#f28e8e" stroke="black" points="1951.5,-36 1674.5,-36 1674.5,0 1951.5,0 1951.5,-36"/>
<text text-anchor="middle" x="1813" y="-14.3" font-family="Arial" font-size="14.00">Practice consistent and informative labeling</text>
</g>
<!-- n11&#45;&gt;n13 -->
<g id="edge14" class="edge">
<title>n11&#45;&gt;n13</title>
<path fill="none" stroke="black" d="M1813,-121.81C1813,-102.11 1813,-69.58 1813,-46.39"/>
<polygon fill="black" stroke="black" points="1816.5,-46.16 1813,-36.16 1809.5,-46.16 1816.5,-46.16"/>
</g>
</g>
</svg>
