<?xml version="1.0" encoding="UTF-8" standalone="no"?>
<!DOCTYPE svg PUBLIC "-//W3C//DTD SVG 1.1//EN"
 "http://www.w3.org/Graphics/SVG/1.1/DTD/svg11.dtd">
<!-- Generated by graphviz version 2.43.0 (0)
 -->
<!-- Pages: 1 -->
<svg width="1821pt" height="410pt"
 viewBox="0.00 0.00 1820.50 410.00" xmlns="http://www.w3.org/2000/svg" xmlns:xlink="http://www.w3.org/1999/xlink">
<g id="graph0" class="graph" transform="scale(1 1) rotate(0) translate(4 406)">
<polygon fill="white" stroke="transparent" points="-4,4 -4,-406 1816.5,-406 1816.5,4 -4,4"/>
<!-- n1 -->
<g id="node1" class="node">
<title>n1</title>
<polygon fill="lightblue" stroke="black" points="966.82,-384 844.41,-402 599.59,-402 477.18,-384 599.59,-366 844.41,-366 966.82,-384"/>
<text text-anchor="middle" x="722" y="-380.3" font-family="Arial" font-size="14.00">Draw a habitat and the different living things in each</text>
</g>
<!-- n2 -->
<g id="node2" class="node">
<title>n2</title>
<polygon fill="#fffdd0" stroke="black" points="232,-280 0,-280 0,-244 232,-244 232,-280"/>
<text text-anchor="middle" x="116" y="-258.3" font-family="Arial" font-size="14.00">Large green trees with brown trunks</text>
</g>
<!-- n1&#45;&gt;n2 -->
<g id="edge1" class="edge">
<title>n1&#45;&gt;n2</title>
<path fill="none" stroke="black" d="M636.14,-366C524.14,-343.82 328.77,-305.13 211.99,-282.01"/>
<polygon fill="black" stroke="black" points="212.47,-278.54 201.98,-280.03 211.11,-285.4 212.47,-278.54"/>
</g>
<!-- n3 -->
<g id="node3" class="node">
<title>n3</title>
<polygon fill="#fffdd0" stroke="black" points="435.5,-280 290.5,-280 290.5,-244 435.5,-244 435.5,-280"/>
<text text-anchor="middle" x="363" y="-258.3" font-family="Arial" font-size="14.00">Blue bird on a branch</text>
</g>
<!-- n1&#45;&gt;n3 -->
<g id="edge2" class="edge">
<title>n1&#45;&gt;n3</title>
<path fill="none" stroke="black" d="M670.95,-365.93C605.68,-344.12 492.84,-306.4 423.38,-283.18"/>
<polygon fill="black" stroke="black" points="424.47,-279.86 413.88,-280.01 422.26,-286.5 424.47,-279.86"/>
</g>
<!-- n4 -->
<g id="node4" class="node">
<title>n4</title>
<polygon fill="#fffdd0" stroke="black" points="684,-280 494,-280 494,-244 684,-244 684,-280"/>
<text text-anchor="middle" x="589" y="-258.3" font-family="Arial" font-size="14.00">Gray squirrel on another tree</text>
</g>
<!-- n1&#45;&gt;n4 -->
<g id="edge3" class="edge">
<title>n1&#45;&gt;n4</title>
<path fill="none" stroke="black" d="M702.94,-365.81C680.03,-345.13 641.44,-310.31 615.6,-287"/>
<polygon fill="black" stroke="black" points="617.79,-284.26 608.02,-280.16 613.1,-289.46 617.79,-284.26"/>
</g>
<!-- n5 -->
<g id="node5" class="node">
<title>n5</title>
<polygon fill="#fffdd0" stroke="black" points="969.5,-280 742.5,-280 742.5,-244 969.5,-244 969.5,-280"/>
<text text-anchor="middle" x="856" y="-258.3" font-family="Arial" font-size="14.00">Brown deer standing near the trees</text>
</g>
<!-- n1&#45;&gt;n5 -->
<g id="edge4" class="edge">
<title>n1&#45;&gt;n5</title>
<path fill="none" stroke="black" d="M741.2,-365.81C764.28,-345.13 803.17,-310.31 829.2,-287"/>
<polygon fill="black" stroke="black" points="831.72,-289.44 836.84,-280.16 827.06,-284.22 831.72,-289.44"/>
</g>
<!-- n6 -->
<g id="node6" class="node">
<title>n6</title>
<polygon fill="#fffdd0" stroke="black" points="1270.5,-280 1027.5,-280 1027.5,-244 1270.5,-244 1270.5,-280"/>
<text text-anchor="middle" x="1149" y="-258.3" font-family="Arial" font-size="14.00">Winding blue river with fish swimming</text>
</g>
<!-- n1&#45;&gt;n6 -->
<g id="edge5" class="edge">
<title>n1&#45;&gt;n6</title>
<path fill="none" stroke="black" d="M782.73,-365.93C860.83,-343.99 996.21,-305.94 1078.7,-282.76"/>
<polygon fill="black" stroke="black" points="1079.82,-286.08 1088.5,-280.01 1077.93,-279.34 1079.82,-286.08"/>
</g>
<!-- n7 -->
<g id="node7" class="node">
<title>n7</title>
<polygon fill="#fffdd0" stroke="black" points="1684,-280 1384,-280 1384,-244 1684,-244 1684,-280"/>
<text text-anchor="middle" x="1534" y="-258.3" font-family="Arial" font-size="14.00">Areas of grass and scattered yellow/red flowers</text>
</g>
<!-- n1&#45;&gt;n7 -->
<g id="edge6" class="edge">
<title>n1&#45;&gt;n7</title>
<path fill="none" stroke="black" d="M837.05,-366C988.17,-343.66 1252.6,-304.59 1408.7,-281.52"/>
<polygon fill="black" stroke="black" points="1409.42,-284.95 1418.8,-280.03 1408.4,-278.03 1409.42,-284.95"/>
</g>
<!-- n8 -->
<g id="node8" class="node">
<title>n8</title>
<path fill="palegreen" stroke="black" d="M186,-158C186,-158 46,-158 46,-158 40,-158 34,-152 34,-146 34,-146 34,-134 34,-134 34,-128 40,-122 46,-122 46,-122 186,-122 186,-122 192,-122 198,-128 198,-134 198,-134 198,-146 198,-146 198,-152 192,-158 186,-158"/>
<text text-anchor="middle" x="116" y="-136.3" font-family="Arial" font-size="14.00">Identifies a forest habitat</text>
</g>
<!-- n2&#45;&gt;n8 -->
<g id="edge7" class="edge">
<title>n2&#45;&gt;n8</title>
<path fill="none" stroke="black" d="M116,-243.81C116,-224.11 116,-191.58 116,-168.39"/>
<polygon fill="black" stroke="black" points="119.5,-168.16 116,-158.16 112.5,-168.16 119.5,-168.16"/>
</g>
<!-- n9 -->
<g id="node9" class="node">
<title>n9</title>
<path fill="palegreen" stroke="black" d="M719,-158C719,-158 459,-158 459,-158 453,-158 447,-152 447,-146 447,-146 447,-134 447,-134 447,-128 453,-122 459,-122 459,-122 719,-122 719,-122 725,-122 731,-128 731,-134 731,-134 731,-146 731,-146 731,-152 725,-158 719,-158"/>
<text text-anchor="middle" x="589" y="-136.3" font-family="Arial" font-size="14.00">Three types of living things: Trees, bird, deer</text>
</g>
<!-- n3&#45;&gt;n9 -->
<g id="edge8" class="edge">
<title>n3&#45;&gt;n9</title>
<path fill="none" stroke="black" d="M395.38,-243.81C435.49,-222.51 503.88,-186.2 547.72,-162.92"/>
<polygon fill="black" stroke="black" points="549.49,-165.94 556.68,-158.16 546.21,-159.76 549.49,-165.94"/>
</g>
<!-- n4&#45;&gt;n9 -->
<g id="edge9" class="edge">
<title>n4&#45;&gt;n9</title>
<path fill="none" stroke="black" d="M589,-243.81C589,-224.11 589,-191.58 589,-168.39"/>
<polygon fill="black" stroke="black" points="592.5,-168.16 589,-158.16 585.5,-168.16 592.5,-168.16"/>
</g>
<!-- n5&#45;&gt;n9 -->
<g id="edge10" class="edge">
<title>n5&#45;&gt;n9</title>
<path fill="none" stroke="black" d="M818.03,-243.93C770.18,-222.43 687.96,-185.48 636.15,-162.19"/>
<polygon fill="black" stroke="black" points="637.4,-158.91 626.84,-158.01 634.53,-165.3 637.4,-158.91"/>
</g>
<!-- n10 -->
<g id="node10" class="node">
<title>n10</title>
<polygon fill="lightcoral" stroke="black" points="1081,-158 856.5,-140 1081,-122 1305.5,-140 1081,-158"/>
<text text-anchor="middle" x="1081" y="-136.3" font-family="Arial" font-size="14.00">Includes river but lacks detailed labels</text>
</g>
<!-- n6&#45;&gt;n10 -->
<g id="edge11" class="edge">
<title>n6&#45;&gt;n10</title>
<path fill="none" stroke="black" d="M1139.3,-243.81C1127.8,-223.53 1108.6,-189.64 1095.4,-166.35"/>
<polygon fill="black" stroke="black" points="1098.29,-164.35 1090.3,-157.39 1092.21,-167.81 1098.29,-164.35"/>
</g>
<!-- n11 -->
<g id="node11" class="node">
<title>n11</title>
<polygon fill="lightcoral" stroke="black" points="1588,-158 1363.5,-140 1588,-122 1812.5,-140 1588,-158"/>
<text text-anchor="middle" x="1588" y="-136.3" font-family="Arial" font-size="14.00">Lacks spatial and abundance patterns</text>
</g>
<!-- n7&#45;&gt;n11 -->
<g id="edge12" class="edge">
<title>n7&#45;&gt;n11</title>
<path fill="none" stroke="black" d="M1541.7,-243.81C1550.8,-223.73 1565.8,-190.32 1576.3,-167.06"/>
<polygon fill="black" stroke="black" points="1579.57,-168.32 1580.5,-157.77 1573.19,-165.44 1579.57,-168.32"/>
</g>
<!-- n12 -->
<g id="node12" class="node">
<title>n12</title>
<polygon fill="#f28e8e" stroke="black" points="1193,-36 969,-36 969,0 1193,0 1193,-36"/>
<text text-anchor="middle" x="1081" y="-14.3" font-family="Arial" font-size="14.00">Consider labeling the river and fish</text>
</g>
<!-- n10&#45;&gt;n12 -->
<g id="edge13" class="edge">
<title>n10&#45;&gt;n12</title>
<path fill="none" stroke="black" d="M1081,-121.81C1081,-102.11 1081,-69.58 1081,-46.39"/>
<polygon fill="black" stroke="black" points="1084.5,-46.16 1081,-36.16 1077.5,-46.16 1084.5,-46.16"/>
</g>
<!-- n13 -->
<g id="node13" class="node">
<title>n13</title>
<polygon fill="#f28e8e" stroke="black" points="1730.5,-36 1445.5,-36 1445.5,0 1730.5,0 1730.5,-36"/>
<text text-anchor="middle" x="1588" y="-14.3" font-family="Arial" font-size="14.00">Use more labels to show spatial organization</text>
</g>
<!-- n11&#45;&gt;n13 -->
<g id="edge14" class="edge">
<title>n11&#45;&gt;n13</title>
<path fill="none" stroke="black" d="M1588,-121.81C1588,-102.11 1588,-69.58 1588,-46.39"/>
<polygon fill="black" stroke="black" points="1591.5,-46.16 1588,-36.16 1584.5,-46.16 1591.5,-46.16"/>
</g>
</g>
</svg>
