<?xml version="1.0" encoding="UTF-8" standalone="no"?>
<!DOCTYPE svg PUBLIC "-//W3C//DTD SVG 1.1//EN"
 "http://www.w3.org/Graphics/SVG/1.1/DTD/svg11.dtd">
<!-- Generated by graphviz version 2.43.0 (0)
 -->
<!-- Pages: 1 -->
<svg width="1786pt" height="410pt"
 viewBox="0.00 0.00 1785.50 410.00" xmlns="http://www.w3.org/2000/svg" xmlns:xlink="http://www.w3.org/1999/xlink">
<g id="graph0" class="graph" transform="scale(1 1) rotate(0) translate(4 406)">
<polygon fill="white" stroke="transparent" points="-4,4 -4,-406 1781.5,-406 1781.5,4 -4,4"/>
<!-- n1 -->
<g id="node1" class="node">
<title>n1</title>
<polygon fill="lightblue" stroke="black" points="892.5,-384 728.5,-402 400.5,-402 236.5,-384 400.5,-366 728.5,-366 892.5,-384"/>
<text text-anchor="middle" x="564.5" y="-380.3" font-family="Arial" font-size="14.00">Draw reversible and irreversible changes (ice melting vs. egg cooking)</text>
</g>
<!-- n2 -->
<g id="node2" class="node">
<title>n2</title>
<polygon fill="#fffdd0" stroke="black" points="471,-280 0,-280 0,-244 471,-244 471,-280"/>
<text text-anchor="middle" x="235.5" y="-258.3" font-family="Arial" font-size="14.00">Blue ice cube labeled &#39;ice&#39; transitioning into a puddle of water labeled &#39;water&#39;</text>
</g>
<!-- n1&#45;&gt;n2 -->
<g id="edge1" class="edge">
<title>n1&#45;&gt;n2</title>
<path fill="none" stroke="black" d="M517.71,-365.93C458.15,-344.21 355.34,-306.71 291.62,-283.47"/>
<polygon fill="black" stroke="black" points="292.72,-280.15 282.13,-280.01 290.33,-286.72 292.72,-280.15"/>
</g>
<!-- n3 -->
<g id="node3" class="node">
<title>n3</title>
<polygon fill="#fffdd0" stroke="black" points="1260,-280 529,-280 529,-244 1260,-244 1260,-280"/>
<text text-anchor="middle" x="894.5" y="-258.3" font-family="Arial" font-size="14.00">Brown and white whole egg labeled &#39;egg&#39;, transitioning into a cracked egg with yellow yolk in a pan labeled &#39;cooked egg&#39;</text>
</g>
<!-- n1&#45;&gt;n3 -->
<g id="edge2" class="edge">
<title>n1&#45;&gt;n3</title>
<path fill="none" stroke="black" d="M611.43,-365.93C671.18,-344.21 774.3,-306.71 838.21,-283.47"/>
<polygon fill="black" stroke="black" points="839.53,-286.72 847.73,-280.01 837.14,-280.14 839.53,-286.72"/>
</g>
<!-- n4 -->
<g id="node4" class="node">
<title>n4</title>
<path fill="palegreen" stroke="black" d="M376,-158C376,-158 95,-158 95,-158 89,-158 83,-152 83,-146 83,-146 83,-134 83,-134 83,-128 89,-122 95,-122 95,-122 376,-122 376,-122 382,-122 388,-128 388,-134 388,-134 388,-146 388,-146 388,-152 382,-158 376,-158"/>
<text text-anchor="middle" x="235.5" y="-136.3" font-family="Arial" font-size="14.00">Arrows showing reversible ice to water transition</text>
</g>
<!-- n2&#45;&gt;n4 -->
<g id="edge3" class="edge">
<title>n2&#45;&gt;n4</title>
<path fill="none" stroke="black" d="M235.5,-243.81C235.5,-224.11 235.5,-191.58 235.5,-168.39"/>
<polygon fill="black" stroke="black" points="239,-168.16 235.5,-158.16 232,-168.16 239,-168.16"/>
</g>
<!-- n5 -->
<g id="node5" class="node">
<title>n5</title>
<path fill="palegreen" stroke="black" d="M1044.5,-158C1044.5,-158 744.5,-158 744.5,-158 738.5,-158 732.5,-152 732.5,-146 732.5,-146 732.5,-134 732.5,-134 732.5,-128 738.5,-122 744.5,-122 744.5,-122 1044.5,-122 1044.5,-122 1050.5,-122 1056.5,-128 1056.5,-134 1056.5,-134 1056.5,-146 1056.5,-146 1056.5,-152 1050.5,-158 1044.5,-158"/>
<text text-anchor="middle" x="894.5" y="-136.3" font-family="Arial" font-size="14.00">Arrows showing egg cooking as irreversible change</text>
</g>
<!-- n3&#45;&gt;n5 -->
<g id="edge4" class="edge">
<title>n3&#45;&gt;n5</title>
<path fill="none" stroke="black" d="M894.5,-243.81C894.5,-224.11 894.5,-191.58 894.5,-168.39"/>
<polygon fill="black" stroke="black" points="898,-168.16 894.5,-158.16 891,-168.16 898,-168.16"/>
</g>
<!-- n7 -->
<g id="node6" class="node">
<title>n7</title>
<polygon fill="lightcoral" stroke="black" points="1458.5,-158 1139.5,-140 1458.5,-122 1777.5,-140 1458.5,-158"/>
<text text-anchor="middle" x="1458.5" y="-136.3" font-family="Arial" font-size="14.00">Partial understanding of why egg cooking is irreversible</text>
</g>
<!-- n3&#45;&gt;n7 -->
<g id="edge5" class="edge">
<title>n3&#45;&gt;n7</title>
<path fill="none" stroke="black" d="M974.41,-244C1083.9,-220.7 1279.1,-179.17 1385.1,-156.62"/>
<polygon fill="black" stroke="black" points="1386.04,-160 1395.1,-154.5 1384.59,-153.15 1386.04,-160"/>
</g>
<!-- n8 -->
<g id="node7" class="node">
<title>n8</title>
<polygon fill="#f28e8e" stroke="black" points="1697,-36 1220,-36 1220,0 1697,0 1697,-36"/>
<text text-anchor="middle" x="1458.5" y="-14.3" font-family="Arial" font-size="14.00">Clarify that while ice can refreeze, cooking alters egg&#39;s structure permanently</text>
</g>
<!-- n7&#45;&gt;n8 -->
<g id="edge6" class="edge">
<title>n7&#45;&gt;n8</title>
<path fill="none" stroke="black" d="M1458.5,-121.81C1458.5,-102.11 1458.5,-69.58 1458.5,-46.39"/>
<polygon fill="black" stroke="black" points="1462,-46.16 1458.5,-36.16 1455,-46.16 1462,-46.16"/>
</g>
<!-- n6 -->
<g id="node8" class="node">
<title>n6</title>
<polygon fill="#fffdd0" stroke="black" points="1651.5,-280 1317.5,-280 1317.5,-244 1651.5,-244 1651.5,-280"/>
<text text-anchor="middle" x="1484.5" y="-258.3" font-family="Arial" font-size="14.00">Handwritten text explaining reversibility of ice melting</text>
</g>
<!-- n6&#45;&gt;n7 -->
<g id="edge7" class="edge">
<title>n6&#45;&gt;n7</title>
<path fill="none" stroke="black" d="M1480.8,-243.81C1476.5,-224.02 1469.4,-191.29 1464.4,-168.08"/>
<polygon fill="black" stroke="black" points="1467.78,-167.16 1462.2,-158.16 1460.95,-168.68 1467.78,-167.16"/>
</g>
</g>
</svg>
