<?xml version="1.0" encoding="UTF-8" standalone="no"?>
<!DOCTYPE svg PUBLIC "-//W3C//DTD SVG 1.1//EN"
 "http://www.w3.org/Graphics/SVG/1.1/DTD/svg11.dtd">
<!-- Generated by graphviz version 2.43.0 (0)
 -->
<!-- Pages: 1 -->
<svg width="2231pt" height="532pt"
 viewBox="0.00 0.00 2230.50 532.00" xmlns="http://www.w3.org/2000/svg" xmlns:xlink="http://www.w3.org/1999/xlink">
<g id="graph0" class="graph" transform="scale(1 1) rotate(0) translate(4 528)">
<polygon fill="white" stroke="transparent" points="-4,4 -4,-528 2226.5,-528 2226.5,4 -4,4"/>
<!-- n1 -->
<g id="node1" class="node">
<title>n1</title>
<polygon fill="lightblue" stroke="black" points="1319.82,-506 1197.41,-524 952.59,-524 830.18,-506 952.59,-488 1197.41,-488 1319.82,-506"/>
<text text-anchor="middle" x="1075" y="-502.3" font-family="Arial" font-size="14.00">Draw a habitat and the different living things in each</text>
</g>
<!-- n2 -->
<g id="node2" class="node">
<title>n2</title>
<polygon fill="#fffdd0" stroke="black" points="291.5,-402 6.5,-402 6.5,-366 291.5,-366 291.5,-402"/>
<text text-anchor="middle" x="149" y="-380.3" font-family="Arial" font-size="14.00">Forest with tall brown trees and green leaves</text>
</g>
<!-- n1&#45;&gt;n2 -->
<g id="edge1" class="edge">
<title>n1&#45;&gt;n2</title>
<path fill="none" stroke="black" d="M948.19,-488.57C776.09,-466.26 469.56,-426.54 290.28,-403.31"/>
<polygon fill="black" stroke="black" points="290.62,-399.82 280.25,-402.01 289.72,-406.77 290.62,-399.82"/>
</g>
<!-- n3 -->
<g id="node3" class="node">
<title>n3</title>
<polygon fill="#fffdd0" stroke="black" points="567.5,-402 362.5,-402 362.5,-366 567.5,-366 567.5,-402"/>
<text text-anchor="middle" x="465" y="-380.3" font-family="Arial" font-size="14.00">Squirrel on one of the branches</text>
</g>
<!-- n1&#45;&gt;n3 -->
<g id="edge2" class="edge">
<title>n1&#45;&gt;n3</title>
<path fill="none" stroke="black" d="M988.57,-488C875.84,-465.82 679.17,-427.13 561.62,-404.01"/>
<polygon fill="black" stroke="black" points="562.04,-400.53 551.55,-402.03 560.69,-407.39 562.04,-400.53"/>
</g>
<!-- n4 -->
<g id="node4" class="node">
<title>n4</title>
<polygon fill="#fffdd0" stroke="black" points="787.5,-402 632.5,-402 632.5,-366 787.5,-366 787.5,-402"/>
<text text-anchor="middle" x="710" y="-380.3" font-family="Arial" font-size="14.00">Patches of green grass</text>
</g>
<!-- n1&#45;&gt;n4 -->
<g id="edge3" class="edge">
<title>n1&#45;&gt;n4</title>
<path fill="none" stroke="black" d="M1023.1,-487.93C956.74,-466.12 842.01,-428.4 771.39,-405.18"/>
<polygon fill="black" stroke="black" points="772.32,-401.8 761.73,-402.01 770.14,-408.45 772.32,-401.8"/>
</g>
<!-- n5 -->
<g id="node5" class="node">
<title>n5</title>
<polygon fill="#fffdd0" stroke="black" points="1043,-402 901,-402 901,-366 1043,-366 1043,-402"/>
<text text-anchor="middle" x="972" y="-380.3" font-family="Arial" font-size="14.00">Pond with blue water</text>
</g>
<!-- n1&#45;&gt;n5 -->
<g id="edge4" class="edge">
<title>n1&#45;&gt;n5</title>
<path fill="none" stroke="black" d="M1060.2,-487.81C1042.7,-467.4 1013.4,-433.21 993.38,-409.91"/>
<polygon fill="black" stroke="black" points="995.9,-407.47 986.73,-402.16 990.59,-412.03 995.9,-407.47"/>
</g>
<!-- n6 -->
<g id="node6" class="node">
<title>n6</title>
<polygon fill="#fffdd0" stroke="black" points="1285.5,-402 1130.5,-402 1130.5,-366 1285.5,-366 1285.5,-402"/>
<text text-anchor="middle" x="1208" y="-380.3" font-family="Arial" font-size="14.00">Fish swimming in pond</text>
</g>
<!-- n1&#45;&gt;n6 -->
<g id="edge5" class="edge">
<title>n1&#45;&gt;n6</title>
<path fill="none" stroke="black" d="M1094.1,-487.81C1117,-467.13 1155.6,-432.31 1181.4,-409"/>
<polygon fill="black" stroke="black" points="1183.91,-411.45 1189,-402.16 1179.23,-406.25 1183.91,-411.45"/>
</g>
<!-- n7 -->
<g id="node7" class="node">
<title>n7</title>
<polygon fill="#fffdd0" stroke="black" points="1574.5,-402 1377.5,-402 1377.5,-366 1574.5,-366 1574.5,-402"/>
<text text-anchor="middle" x="1476" y="-380.3" font-family="Arial" font-size="14.00">Green lily pads on the surface</text>
</g>
<!-- n1&#45;&gt;n7 -->
<g id="edge6" class="edge">
<title>n1&#45;&gt;n7</title>
<path fill="none" stroke="black" d="M1132,-487.93C1205.2,-466.03 1332,-428.09 1409.5,-404.9"/>
<polygon fill="black" stroke="black" points="1410.62,-408.22 1419.2,-402.01 1408.62,-401.51 1410.62,-408.22"/>
</g>
<!-- n8 -->
<g id="node8" class="node">
<title>n8</title>
<polygon fill="#fffdd0" stroke="black" points="1825.5,-402 1676.5,-402 1676.5,-366 1825.5,-366 1825.5,-402"/>
<text text-anchor="middle" x="1751" y="-380.3" font-family="Arial" font-size="14.00">Garden with red tulips</text>
</g>
<!-- n1&#45;&gt;n8 -->
<g id="edge7" class="edge">
<title>n1&#45;&gt;n8</title>
<path fill="none" stroke="black" d="M1170.8,-488C1303.2,-464.49 1540.2,-422.41 1666.5,-400.01"/>
<polygon fill="black" stroke="black" points="1667.27,-403.43 1676.5,-398.23 1666.04,-396.54 1667.27,-403.43"/>
</g>
<!-- n9 -->
<g id="node9" class="node">
<title>n9</title>
<polygon fill="#fffdd0" stroke="black" points="2081.5,-402 1962.5,-402 1962.5,-366 2081.5,-366 2081.5,-402"/>
<text text-anchor="middle" x="2022" y="-380.3" font-family="Arial" font-size="14.00">Ant in the garden</text>
</g>
<!-- n1&#45;&gt;n9 -->
<g id="edge8" class="edge">
<title>n1&#45;&gt;n9</title>
<path fill="none" stroke="black" d="M1203.2,-488.75C1406.1,-463.05 1794.2,-413.87 1952.3,-393.83"/>
<polygon fill="black" stroke="black" points="1952.92,-397.28 1962.4,-392.55 1952.04,-390.34 1952.92,-397.28"/>
</g>
<!-- n10 -->
<g id="node10" class="node">
<title>n10</title>
<path fill="palegreen" stroke="black" d="M192,-280C192,-280 12,-280 12,-280 6,-280 0,-274 0,-268 0,-268 0,-256 0,-256 0,-250 6,-244 12,-244 12,-244 192,-244 192,-244 198,-244 204,-250 204,-256 204,-256 204,-268 204,-268 204,-274 198,-280 192,-280"/>
<text text-anchor="middle" x="102" y="-258.3" font-family="Arial" font-size="14.00">Understands forests have trees</text>
</g>
<!-- n2&#45;&gt;n10 -->
<g id="edge9" class="edge">
<title>n2&#45;&gt;n10</title>
<path fill="none" stroke="black" d="M142.27,-365.81C134.48,-345.94 121.58,-312.99 112.48,-289.76"/>
<polygon fill="black" stroke="black" points="115.63,-288.19 108.72,-280.16 109.11,-290.75 115.63,-288.19"/>
</g>
<!-- n11 -->
<g id="node11" class="node">
<title>n11</title>
<path fill="palegreen" stroke="black" d="M480,-280C480,-280 274,-280 274,-280 268,-280 262,-274 262,-268 262,-268 262,-256 262,-256 262,-250 268,-244 274,-244 274,-244 480,-244 480,-244 486,-244 492,-250 492,-256 492,-256 492,-268 492,-268 492,-274 486,-280 480,-280"/>
<text text-anchor="middle" x="377" y="-258.3" font-family="Arial" font-size="14.00">Understands squirrels live in forests</text>
</g>
<!-- n3&#45;&gt;n11 -->
<g id="edge10" class="edge">
<title>n3&#45;&gt;n11</title>
<path fill="none" stroke="black" d="M452.39,-365.81C437.56,-345.58 412.79,-311.81 395.72,-288.52"/>
<polygon fill="black" stroke="black" points="398.32,-286.15 389.58,-280.16 392.68,-290.29 398.32,-286.15"/>
</g>
<!-- n12 -->
<g id="node12" class="node">
<title>n12</title>
<path fill="palegreen" stroke="black" d="M777.5,-280C777.5,-280 562.5,-280 562.5,-280 556.5,-280 550.5,-274 550.5,-268 550.5,-268 550.5,-256 550.5,-256 550.5,-250 556.5,-244 562.5,-244 562.5,-244 777.5,-244 777.5,-244 783.5,-244 789.5,-250 789.5,-256 789.5,-256 789.5,-268 789.5,-268 789.5,-274 783.5,-280 777.5,-280"/>
<text text-anchor="middle" x="670" y="-258.3" font-family="Arial" font-size="14.00">Understands grass is found in forests</text>
</g>
<!-- n4&#45;&gt;n12 -->
<g id="edge11" class="edge">
<title>n4&#45;&gt;n12</title>
<path fill="none" stroke="black" d="M704.27,-365.81C697.65,-345.94 686.66,-312.99 678.92,-289.76"/>
<polygon fill="black" stroke="black" points="682.2,-288.54 675.72,-280.16 675.56,-290.75 682.2,-288.54"/>
</g>
<!-- n13 -->
<g id="node13" class="node">
<title>n13</title>
<path fill="palegreen" stroke="black" d="M1054,-280C1054,-280 860,-280 860,-280 854,-280 848,-274 848,-268 848,-268 848,-256 848,-256 848,-250 854,-244 860,-244 860,-244 1054,-244 1054,-244 1060,-244 1066,-250 1066,-256 1066,-256 1066,-268 1066,-268 1066,-274 1060,-280 1054,-280"/>
<text text-anchor="middle" x="957" y="-258.3" font-family="Arial" font-size="14.00">Understands ponds contain water</text>
</g>
<!-- n5&#45;&gt;n13 -->
<g id="edge12" class="edge">
<title>n5&#45;&gt;n13</title>
<path fill="none" stroke="black" d="M969.85,-365.81C967.39,-346.11 963.32,-313.58 960.42,-290.39"/>
<polygon fill="black" stroke="black" points="963.86,-289.65 959.15,-280.16 956.91,-290.52 963.86,-289.65"/>
</g>
<!-- n14 -->
<g id="node14" class="node">
<title>n14</title>
<path fill="palegreen" stroke="black" d="M1309.5,-280C1309.5,-280 1136.5,-280 1136.5,-280 1130.5,-280 1124.5,-274 1124.5,-268 1124.5,-268 1124.5,-256 1124.5,-256 1124.5,-250 1130.5,-244 1136.5,-244 1136.5,-244 1309.5,-244 1309.5,-244 1315.5,-244 1321.5,-250 1321.5,-256 1321.5,-256 1321.5,-268 1321.5,-268 1321.5,-274 1315.5,-280 1309.5,-280"/>
<text text-anchor="middle" x="1223" y="-258.3" font-family="Arial" font-size="14.00">Understands fish live in ponds</text>
</g>
<!-- n6&#45;&gt;n14 -->
<g id="edge13" class="edge">
<title>n6&#45;&gt;n14</title>
<path fill="none" stroke="black" d="M1210.1,-365.81C1212.6,-346.11 1216.7,-313.58 1219.6,-290.39"/>
<polygon fill="black" stroke="black" points="1223.11,-290.52 1220.9,-280.16 1216.17,-289.64 1223.11,-290.52"/>
</g>
<!-- n15 -->
<g id="node15" class="node">
<title>n15</title>
<path fill="palegreen" stroke="black" d="M1598,-280C1598,-280 1392,-280 1392,-280 1386,-280 1380,-274 1380,-268 1380,-268 1380,-256 1380,-256 1380,-250 1386,-244 1392,-244 1392,-244 1598,-244 1598,-244 1604,-244 1610,-250 1610,-256 1610,-256 1610,-268 1610,-268 1610,-274 1604,-280 1598,-280"/>
<text text-anchor="middle" x="1495" y="-258.3" font-family="Arial" font-size="14.00">Understands lily pads float on water</text>
</g>
<!-- n7&#45;&gt;n15 -->
<g id="edge14" class="edge">
<title>n7&#45;&gt;n15</title>
<path fill="none" stroke="black" d="M1478.7,-365.81C1481.9,-346.02 1487,-313.29 1490.7,-290.08"/>
<polygon fill="black" stroke="black" points="1494.16,-290.59 1492.3,-280.16 1487.25,-289.48 1494.16,-290.59"/>
</g>
<!-- n16 -->
<g id="node16" class="node">
<title>n16</title>
<path fill="palegreen" stroke="black" d="M1881.5,-280C1881.5,-280 1680.5,-280 1680.5,-280 1674.5,-280 1668.5,-274 1668.5,-268 1668.5,-268 1668.5,-256 1668.5,-256 1668.5,-250 1674.5,-244 1680.5,-244 1680.5,-244 1881.5,-244 1881.5,-244 1887.5,-244 1893.5,-250 1893.5,-256 1893.5,-256 1893.5,-268 1893.5,-268 1893.5,-274 1887.5,-280 1881.5,-280"/>
<text text-anchor="middle" x="1781" y="-258.3" font-family="Arial" font-size="14.00">Understands gardens have flowers</text>
</g>
<!-- n8&#45;&gt;n16 -->
<g id="edge15" class="edge">
<title>n8&#45;&gt;n16</title>
<path fill="none" stroke="black" d="M1755.3,-365.81C1760.2,-346.02 1768.4,-313.29 1774.2,-290.08"/>
<polygon fill="black" stroke="black" points="1777.65,-290.71 1776.7,-280.16 1770.86,-289 1777.65,-290.71"/>
</g>
<!-- n17 -->
<g id="node17" class="node">
<title>n17</title>
<path fill="palegreen" stroke="black" d="M2210.5,-280C2210.5,-280 1963.5,-280 1963.5,-280 1957.5,-280 1951.5,-274 1951.5,-268 1951.5,-268 1951.5,-256 1951.5,-256 1951.5,-250 1957.5,-244 1963.5,-244 1963.5,-244 2210.5,-244 2210.5,-244 2216.5,-244 2222.5,-250 2222.5,-256 2222.5,-256 2222.5,-268 2222.5,-268 2222.5,-274 2216.5,-280 2210.5,-280"/>
<text text-anchor="middle" x="2087" y="-258.3" font-family="Arial" font-size="14.00">Understands ants can be found in gardens</text>
</g>
<!-- n9&#45;&gt;n17 -->
<g id="edge16" class="edge">
<title>n9&#45;&gt;n17</title>
<path fill="none" stroke="black" d="M2031.3,-365.81C2042.2,-345.76 2060.2,-312.4 2072.8,-289.14"/>
<polygon fill="black" stroke="black" points="2075.98,-290.61 2077.7,-280.16 2069.84,-287.26 2075.98,-290.61"/>
</g>
<!-- n18 -->
<g id="node18" class="node">
<title>n18</title>
<polygon fill="lightcoral" stroke="black" points="1781,-158 1484,-140 1781,-122 2078,-140 1781,-158"/>
<text text-anchor="middle" x="1781" y="-136.3" font-family="Arial" font-size="14.00">Misunderstanding: Tulips are only found in gardens</text>
</g>
<!-- n16&#45;&gt;n18 -->
<g id="edge17" class="edge">
<title>n16&#45;&gt;n18</title>
<path fill="none" stroke="black" d="M1781,-243.81C1781,-224.11 1781,-191.58 1781,-168.39"/>
<polygon fill="black" stroke="black" points="1784.5,-168.16 1781,-158.16 1777.5,-168.16 1784.5,-168.16"/>
</g>
<!-- n19 -->
<g id="node19" class="node">
<title>n19</title>
<polygon fill="#f28e8e" stroke="black" points="1884,-36 1678,-36 1678,0 1884,0 1884,-36"/>
<text text-anchor="middle" x="1781" y="-14.3" font-family="Arial" font-size="14.00">Consider tulips in other habitats</text>
</g>
<!-- n18&#45;&gt;n19 -->
<g id="edge18" class="edge">
<title>n18&#45;&gt;n19</title>
<path fill="none" stroke="black" d="M1781,-121.81C1781,-102.11 1781,-69.58 1781,-46.39"/>
<polygon fill="black" stroke="black" points="1784.5,-46.16 1781,-36.16 1777.5,-46.16 1784.5,-46.16"/>
</g>
</g>
</svg>
