<?xml version="1.0" encoding="UTF-8" standalone="no"?>
<!DOCTYPE svg PUBLIC "-//W3C//DTD SVG 1.1//EN"
 "http://www.w3.org/Graphics/SVG/1.1/DTD/svg11.dtd">
<!-- Generated by graphviz version 2.43.0 (0)
 -->
<!-- Pages: 1 -->
<svg width="1407pt" height="288pt"
 viewBox="0.00 0.00 1407.21 288.00" xmlns="http://www.w3.org/2000/svg" xmlns:xlink="http://www.w3.org/1999/xlink">
<g id="graph0" class="graph" transform="scale(1 1) rotate(0) translate(4 284)">
<polygon fill="white" stroke="transparent" points="-4,4 -4,-284 1403.21,-284 1403.21,4 -4,4"/>
<!-- n1 -->
<g id="node1" class="node">
<title>n1</title>
<polygon fill="lightblue" stroke="black" points="799.5,-262 635.5,-280 307.5,-280 143.5,-262 307.5,-244 635.5,-244 799.5,-262"/>
<text text-anchor="middle" x="471.5" y="-258.3" font-family="Arial" font-size="14.00">Draw reversible and irreversible changes (ice melting vs. egg cooking)</text>
</g>
<!-- n2 -->
<g id="node2" class="node">
<title>n2</title>
<polygon fill="#fffdd0" stroke="black" points="289,-158 0,-158 0,-122 289,-122 289,-158"/>
<text text-anchor="middle" x="144.5" y="-136.3" font-family="Arial" font-size="14.00">Illustration of Ice melting and becoming water</text>
</g>
<!-- n1&#45;&gt;n2 -->
<g id="edge1" class="edge">
<title>n1&#45;&gt;n2</title>
<path fill="none" stroke="black" d="M425,-243.93C365.79,-222.21 263.61,-184.71 200.28,-161.47"/>
<polygon fill="black" stroke="black" points="201.43,-158.17 190.84,-158.01 199.02,-164.74 201.43,-158.17"/>
</g>
<!-- n3 -->
<g id="node3" class="node">
<title>n3</title>
<polygon fill="#fffdd0" stroke="black" points="596.5,-158 346.5,-158 346.5,-122 596.5,-122 596.5,-158"/>
<text text-anchor="middle" x="471.5" y="-136.3" font-family="Arial" font-size="14.00">Illustration of water freezing back to ice</text>
</g>
<!-- n1&#45;&gt;n3 -->
<g id="edge2" class="edge">
<title>n1&#45;&gt;n3</title>
<path fill="none" stroke="black" d="M471.5,-243.81C471.5,-224.11 471.5,-191.58 471.5,-168.39"/>
<polygon fill="black" stroke="black" points="475,-168.16 471.5,-158.16 468,-168.16 475,-168.16"/>
</g>
<!-- n4 -->
<g id="node4" class="node">
<title>n4</title>
<polygon fill="#fffdd0" stroke="black" points="888.5,-158 654.5,-158 654.5,-122 888.5,-122 888.5,-158"/>
<text text-anchor="middle" x="771.5" y="-136.3" font-family="Arial" font-size="14.00">Illustration of Raw egg being cooked</text>
</g>
<!-- n1&#45;&gt;n4 -->
<g id="edge3" class="edge">
<title>n1&#45;&gt;n4</title>
<path fill="none" stroke="black" d="M514.16,-243.93C568.26,-222.3 661.46,-185.02 719.61,-161.76"/>
<polygon fill="black" stroke="black" points="721,-164.98 728.98,-158.01 718.4,-158.48 721,-164.98"/>
</g>
<!-- n5 -->
<g id="node5" class="node">
<title>n5</title>
<path fill="palegreen" stroke="black" d="M436.5,-36C436.5,-36 42.5,-36 42.5,-36 36.5,-36 30.5,-30 30.5,-24 30.5,-24 30.5,-12 30.5,-12 30.5,-6 36.5,0 42.5,0 42.5,0 436.5,0 436.5,0 442.5,0 448.5,-6 448.5,-12 448.5,-12 448.5,-24 448.5,-24 448.5,-30 442.5,-36 436.5,-36"/>
<text text-anchor="middle" x="239.5" y="-14.3" font-family="Arial" font-size="14.00">Understanding of reversible change: Ice melting and water freezing</text>
</g>
<!-- n2&#45;&gt;n5 -->
<g id="edge4" class="edge">
<title>n2&#45;&gt;n5</title>
<path fill="none" stroke="black" d="M158.11,-121.81C174.2,-101.49 201.1,-67.51 219.54,-44.22"/>
<polygon fill="black" stroke="black" points="222.45,-46.18 225.91,-36.16 216.96,-41.83 222.45,-46.18"/>
</g>
<!-- n3&#45;&gt;n5 -->
<g id="edge5" class="edge">
<title>n3&#45;&gt;n5</title>
<path fill="none" stroke="black" d="M438.26,-121.81C397,-100.47 326.59,-64.05 281.6,-40.77"/>
<polygon fill="black" stroke="black" points="283.17,-37.65 272.68,-36.16 279.95,-43.86 283.17,-37.65"/>
</g>
<!-- n6 -->
<g id="node6" class="node">
<title>n6</title>
<path fill="palegreen" stroke="black" d="M929,-36C929,-36 614,-36 614,-36 608,-36 602,-30 602,-24 602,-24 602,-12 602,-12 602,-6 608,0 614,0 614,0 929,0 929,0 935,0 941,-6 941,-12 941,-12 941,-24 941,-24 941,-30 935,-36 929,-36"/>
<text text-anchor="middle" x="771.5" y="-14.3" font-family="Arial" font-size="14.00">Understanding of irreversible change: Cooking an egg</text>
</g>
<!-- n4&#45;&gt;n6 -->
<g id="edge6" class="edge">
<title>n4&#45;&gt;n6</title>
<path fill="none" stroke="black" d="M771.5,-121.81C771.5,-102.11 771.5,-69.58 771.5,-46.39"/>
<polygon fill="black" stroke="black" points="775,-46.16 771.5,-36.16 768,-46.16 775,-46.16"/>
</g>
<!-- n7 -->
<g id="node7" class="node">
<title>n7</title>
<polygon fill="lightcoral" stroke="black" points="1168.5,-280 937.58,-262 1168.5,-244 1399.42,-262 1168.5,-280"/>
<text text-anchor="middle" x="1168.5" y="-258.3" font-family="Arial" font-size="14.00">Omission of label on the timeline arrow</text>
</g>
<!-- n8 -->
<g id="node8" class="node">
<title>n8</title>
<polygon fill="#f28e8e" stroke="black" points="1390,-158 947,-158 947,-122 1390,-122 1390,-158"/>
<text text-anchor="middle" x="1168.5" y="-136.3" font-family="Arial" font-size="14.00">Ensure all arrows on the timeline are labeled to enhance understanding</text>
</g>
<!-- n7&#45;&gt;n8 -->
<g id="edge7" class="edge">
<title>n7&#45;&gt;n8</title>
<path fill="none" stroke="black" d="M1168.5,-243.81C1168.5,-224.11 1168.5,-191.58 1168.5,-168.39"/>
<polygon fill="black" stroke="black" points="1172,-168.16 1168.5,-158.16 1165,-168.16 1172,-168.16"/>
</g>
</g>
</svg>
