<?xml version="1.0" encoding="UTF-8" standalone="no"?>
<!DOCTYPE svg PUBLIC "-//W3C//DTD SVG 1.1//EN"
 "http://www.w3.org/Graphics/SVG/1.1/DTD/svg11.dtd">
<!-- Generated by graphviz version 2.43.0 (0)
 -->
<!-- Pages: 1 -->
<svg width="1605pt" height="410pt"
 viewBox="0.00 0.00 1604.63 410.00" xmlns="http://www.w3.org/2000/svg" xmlns:xlink="http://www.w3.org/1999/xlink">
<g id="graph0" class="graph" transform="scale(1 1) rotate(0) translate(4 406)">
<polygon fill="white" stroke="transparent" points="-4,4 -4,-406 1600.63,-406 1600.63,4 -4,4"/>
<!-- n1 -->
<g id="node1" class="node">
<title>n1</title>
<polygon fill="lightblue" stroke="black" points="973.5,-384 843.25,-402 582.75,-402 452.5,-384 582.75,-366 843.25,-366 973.5,-384"/>
<text text-anchor="middle" x="713" y="-380.3" font-family="Arial" font-size="14.00">Draw two habitats and the different living things in each</text>
</g>
<!-- n2 -->
<g id="node2" class="node">
<title>n2</title>
<polygon fill="#fffdd0" stroke="black" points="576,-280 350,-280 350,-244 576,-244 576,-280"/>
<text text-anchor="middle" x="463" y="-258.3" font-family="Arial" font-size="14.00">Land habitat with trees and bushes</text>
</g>
<!-- n1&#45;&gt;n2 -->
<g id="edge1" class="edge">
<title>n1&#45;&gt;n2</title>
<path fill="none" stroke="black" d="M677.45,-365.93C632.74,-344.48 555.98,-307.63 507.45,-284.33"/>
<polygon fill="black" stroke="black" points="508.96,-281.17 498.43,-280.01 505.94,-287.49 508.96,-281.17"/>
</g>
<!-- n3 -->
<g id="node3" class="node">
<title>n3</title>
<polygon fill="#fffdd0" stroke="black" points="935.5,-280 786.5,-280 786.5,-244 935.5,-244 935.5,-280"/>
<text text-anchor="middle" x="861" y="-258.3" font-family="Arial" font-size="14.00">Water habitat with fish</text>
</g>
<!-- n1&#45;&gt;n3 -->
<g id="edge2" class="edge">
<title>n1&#45;&gt;n3</title>
<path fill="none" stroke="black" d="M734.2,-365.81C759.81,-345.04 803.02,-310.01 831.77,-286.7"/>
<polygon fill="black" stroke="black" points="834.27,-289.18 839.83,-280.16 829.86,-283.74 834.27,-289.18"/>
</g>
<!-- n4 -->
<g id="node4" class="node">
<title>n4</title>
<path fill="palegreen" stroke="black" d="M278,-158C278,-158 12,-158 12,-158 6,-158 0,-152 0,-146 0,-146 0,-134 0,-134 0,-128 6,-122 12,-122 12,-122 278,-122 278,-122 284,-122 290,-128 290,-134 290,-134 290,-146 290,-146 290,-152 284,-158 278,-158"/>
<text text-anchor="middle" x="145" y="-136.3" font-family="Arial" font-size="14.00">Includes simple depiction of trees and bushes</text>
</g>
<!-- n2&#45;&gt;n4 -->
<g id="edge3" class="edge">
<title>n2&#45;&gt;n4</title>
<path fill="none" stroke="black" d="M417.78,-243.93C360.32,-222.25 261.24,-184.86 199.62,-161.61"/>
<polygon fill="black" stroke="black" points="200.66,-158.26 190.07,-158.01 198.19,-164.81 200.66,-158.26"/>
</g>
<!-- n8 -->
<g id="node5" class="node">
<title>n8</title>
<path fill="palegreen" stroke="black" d="M566,-158C566,-158 360,-158 360,-158 354,-158 348,-152 348,-146 348,-146 348,-134 348,-134 348,-128 354,-122 360,-122 360,-122 566,-122 566,-122 572,-122 578,-128 578,-134 578,-134 578,-146 578,-146 578,-152 572,-158 566,-158"/>
<text text-anchor="middle" x="463" y="-136.3" font-family="Arial" font-size="14.00">Adds birds in the sky to land habitat</text>
</g>
<!-- n2&#45;&gt;n8 -->
<g id="edge4" class="edge">
<title>n2&#45;&gt;n8</title>
<path fill="none" stroke="black" d="M463,-243.81C463,-224.11 463,-191.58 463,-168.39"/>
<polygon fill="black" stroke="black" points="466.5,-168.16 463,-158.16 459.5,-168.16 466.5,-168.16"/>
</g>
<!-- n5 -->
<g id="node6" class="node">
<title>n5</title>
<polygon fill="lightcoral" stroke="black" points="861,-158 635.61,-140 861,-122 1086.39,-140 861,-158"/>
<text text-anchor="middle" x="861" y="-136.3" font-family="Arial" font-size="14.00">Includes similar design of fish in water</text>
</g>
<!-- n3&#45;&gt;n5 -->
<g id="edge5" class="edge">
<title>n3&#45;&gt;n5</title>
<path fill="none" stroke="black" d="M861,-243.81C861,-224.11 861,-191.58 861,-168.39"/>
<polygon fill="black" stroke="black" points="864.5,-168.16 861,-158.16 857.5,-168.16 864.5,-168.16"/>
</g>
<!-- n7 -->
<g id="node7" class="node">
<title>n7</title>
<path fill="palegreen" stroke="black" d="M1353.5,-158C1353.5,-158 1156.5,-158 1156.5,-158 1150.5,-158 1144.5,-152 1144.5,-146 1144.5,-146 1144.5,-134 1144.5,-134 1144.5,-128 1150.5,-122 1156.5,-122 1156.5,-122 1353.5,-122 1353.5,-122 1359.5,-122 1365.5,-128 1365.5,-134 1365.5,-134 1365.5,-146 1365.5,-146 1365.5,-152 1359.5,-158 1353.5,-158"/>
<text text-anchor="middle" x="1255" y="-136.3" font-family="Arial" font-size="14.00">Includes depiction of basic insects</text>
</g>
<!-- n3&#45;&gt;n7 -->
<g id="edge6" class="edge">
<title>n3&#45;&gt;n7</title>
<path fill="none" stroke="black" d="M917.03,-243.93C988.81,-222.07 1113,-184.25 1189.2,-161.04"/>
<polygon fill="black" stroke="black" points="1190.64,-164.26 1199.2,-158.01 1188.61,-157.56 1190.64,-164.26"/>
</g>
<!-- n6 -->
<g id="node8" class="node">
<title>n6</title>
<polygon fill="#f28e8e" stroke="black" points="1124,-36 598,-36 598,0 1124,0 1124,-36"/>
<text text-anchor="middle" x="861" y="-14.3" font-family="Arial" font-size="14.00">Incorporate more diverse organisms in water habitat, such as clams or aquatic plants</text>
</g>
<!-- n5&#45;&gt;n6 -->
<g id="edge7" class="edge">
<title>n5&#45;&gt;n6</title>
<path fill="none" stroke="black" d="M861,-121.81C861,-102.11 861,-69.58 861,-46.39"/>
<polygon fill="black" stroke="black" points="864.5,-46.16 861,-36.16 857.5,-46.16 864.5,-46.16"/>
</g>
<!-- n9 -->
<g id="node9" class="node">
<title>n9</title>
<polygon fill="lightcoral" stroke="black" points="1365,-402 1133.24,-384 1365,-366 1596.76,-384 1365,-402"/>
<text text-anchor="middle" x="1365" y="-380.3" font-family="Arial" font-size="14.00">Limited diversity in depiction of habitats</text>
</g>
<!-- n10 -->
<g id="node10" class="node">
<title>n10</title>
<polygon fill="#f28e8e" stroke="black" points="1588,-280 1142,-280 1142,-244 1588,-244 1588,-280"/>
<text text-anchor="middle" x="1365" y="-258.3" font-family="Arial" font-size="14.00">Add variety in land and water habitats by depicting additional organisms</text>
</g>
<!-- n9&#45;&gt;n10 -->
<g id="edge8" class="edge">
<title>n9&#45;&gt;n10</title>
<path fill="none" stroke="black" d="M1365,-365.81C1365,-346.11 1365,-313.58 1365,-290.39"/>
<polygon fill="black" stroke="black" points="1368.5,-290.16 1365,-280.16 1361.5,-290.16 1368.5,-290.16"/>
</g>
</g>
</svg>
