<?xml version="1.0" encoding="UTF-8" standalone="no"?>
<!DOCTYPE svg PUBLIC "-//W3C//DTD SVG 1.1//EN"
 "http://www.w3.org/Graphics/SVG/1.1/DTD/svg11.dtd">
<!-- Generated by graphviz version 2.43.0 (0)
 -->
<!-- Pages: 1 -->
<svg width="1348pt" height="410pt"
 viewBox="0.00 0.00 1348.00 410.00" xmlns="http://www.w3.org/2000/svg" xmlns:xlink="http://www.w3.org/1999/xlink">
<g id="graph0" class="graph" transform="scale(1 1) rotate(0) translate(4 406)">
<polygon fill="white" stroke="transparent" points="-4,4 -4,-406 1344,-406 1344,4 -4,4"/>
<!-- n1 -->
<g id="node1" class="node">
<title>n1</title>
<polygon fill="lightblue" stroke="black" points="700.5,-384 609.25,-402 426.75,-402 335.5,-384 426.75,-366 609.25,-366 700.5,-384"/>
<text text-anchor="middle" x="518" y="-380.3" font-family="Arial" font-size="14.00">Draw a fish in their habitat with labels.</text>
</g>
<!-- n2 -->
<g id="node2" class="node">
<title>n2</title>
<polygon fill="#fffdd0" stroke="black" points="239.5,-280 76.5,-280 76.5,-244 239.5,-244 239.5,-280"/>
<text text-anchor="middle" x="158" y="-258.3" font-family="Arial" font-size="14.00">Fish in a large blue oval.</text>
</g>
<!-- n1&#45;&gt;n2 -->
<g id="edge1" class="edge">
<title>n1&#45;&gt;n2</title>
<path fill="none" stroke="black" d="M466.8,-365.93C401.36,-344.12 288.2,-306.4 218.55,-283.18"/>
<polygon fill="black" stroke="black" points="219.61,-279.85 209.02,-280.01 217.4,-286.49 219.61,-279.85"/>
</g>
<!-- n3 -->
<g id="node3" class="node">
<title>n3</title>
<polygon fill="#fffdd0" stroke="black" points="483.5,-280 328.5,-280 328.5,-244 483.5,-244 483.5,-280"/>
<text text-anchor="middle" x="406" y="-258.3" font-family="Arial" font-size="14.00">Label on water: &#39;water&#39;.</text>
</g>
<!-- n1&#45;&gt;n3 -->
<g id="edge2" class="edge">
<title>n1&#45;&gt;n3</title>
<path fill="none" stroke="black" d="M501.95,-365.81C482.82,-345.31 450.72,-310.91 428.96,-287.6"/>
<polygon fill="black" stroke="black" points="431.4,-285.09 422.02,-280.16 426.28,-289.86 431.4,-285.09"/>
</g>
<!-- n4 -->
<g id="node4" class="node">
<title>n4</title>
<polygon fill="#fffdd0" stroke="black" points="753,-280 575,-280 575,-244 753,-244 753,-280"/>
<text text-anchor="middle" x="664" y="-258.3" font-family="Arial" font-size="14.00">Green plant labeled &#39;plant&#39;.</text>
</g>
<!-- n1&#45;&gt;n4 -->
<g id="edge3" class="edge">
<title>n1&#45;&gt;n4</title>
<path fill="none" stroke="black" d="M538.92,-365.81C564.18,-345.04 606.8,-310.01 635.17,-286.7"/>
<polygon fill="black" stroke="black" points="637.62,-289.22 643.12,-280.16 633.17,-283.81 637.62,-289.22"/>
</g>
<!-- n5 -->
<g id="node5" class="node">
<title>n5</title>
<polygon fill="#fffdd0" stroke="black" points="1137.5,-280 906.5,-280 906.5,-244 1137.5,-244 1137.5,-280"/>
<text text-anchor="middle" x="1022" y="-258.3" font-family="Arial" font-size="14.00">Disjointed bubbles and another fish.</text>
</g>
<!-- n1&#45;&gt;n5 -->
<g id="edge4" class="edge">
<title>n1&#45;&gt;n5</title>
<path fill="none" stroke="black" d="M589.41,-366C682.09,-343.93 843.41,-305.52 940.7,-282.36"/>
<polygon fill="black" stroke="black" points="941.57,-285.75 950.49,-280.03 939.95,-278.94 941.57,-285.75"/>
</g>
<!-- n6 -->
<g id="node6" class="node">
<title>n6</title>
<path fill="palegreen" stroke="black" d="M210,-158C210,-158 12,-158 12,-158 6,-158 0,-152 0,-146 0,-146 0,-134 0,-134 0,-128 6,-122 12,-122 12,-122 210,-122 210,-122 216,-122 222,-128 222,-134 222,-134 222,-146 222,-146 222,-152 216,-158 210,-158"/>
<text text-anchor="middle" x="111" y="-136.3" font-family="Arial" font-size="14.00">Understands that fish live in water.</text>
</g>
<!-- n2&#45;&gt;n6 -->
<g id="edge5" class="edge">
<title>n2&#45;&gt;n6</title>
<path fill="none" stroke="black" d="M151.27,-243.81C143.48,-223.94 130.58,-190.99 121.48,-167.76"/>
<polygon fill="black" stroke="black" points="124.63,-166.19 117.72,-158.16 118.11,-168.75 124.63,-166.19"/>
</g>
<!-- n7 -->
<g id="node7" class="node">
<title>n7</title>
<path fill="palegreen" stroke="black" d="M487.5,-158C487.5,-158 292.5,-158 292.5,-158 286.5,-158 280.5,-152 280.5,-146 280.5,-146 280.5,-134 280.5,-134 280.5,-128 286.5,-122 292.5,-122 292.5,-122 487.5,-122 487.5,-122 493.5,-122 499.5,-128 499.5,-134 499.5,-134 499.5,-146 499.5,-146 499.5,-152 493.5,-158 487.5,-158"/>
<text text-anchor="middle" x="390" y="-136.3" font-family="Arial" font-size="14.00">Understands water as a resource.</text>
</g>
<!-- n3&#45;&gt;n7 -->
<g id="edge6" class="edge">
<title>n3&#45;&gt;n7</title>
<path fill="none" stroke="black" d="M403.71,-243.81C401.07,-224.02 396.71,-191.29 393.61,-168.08"/>
<polygon fill="black" stroke="black" points="397.08,-167.61 392.29,-158.16 390.14,-168.53 397.08,-167.61"/>
</g>
<!-- n8 -->
<g id="node8" class="node">
<title>n8</title>
<path fill="palegreen" stroke="black" d="M792,-158C792,-158 570,-158 570,-158 564,-158 558,-152 558,-146 558,-146 558,-134 558,-134 558,-128 564,-122 570,-122 570,-122 792,-122 792,-122 798,-122 804,-128 804,-134 804,-134 804,-146 804,-146 804,-152 798,-158 792,-158"/>
<text text-anchor="middle" x="681" y="-136.3" font-family="Arial" font-size="14.00">Understands plants are part of habitat.</text>
</g>
<!-- n4&#45;&gt;n8 -->
<g id="edge7" class="edge">
<title>n4&#45;&gt;n8</title>
<path fill="none" stroke="black" d="M666.44,-243.81C669.24,-224.02 673.88,-191.29 677.16,-168.08"/>
<polygon fill="black" stroke="black" points="680.63,-168.55 678.57,-158.16 673.7,-167.57 680.63,-168.55"/>
</g>
<!-- n9 -->
<g id="node9" class="node">
<title>n9</title>
<polygon fill="lightcoral" stroke="black" points="1101,-158 862,-140 1101,-122 1340,-140 1101,-158"/>
<text text-anchor="middle" x="1101" y="-136.3" font-family="Arial" font-size="14.00">Misunderstanding of habitat interactions.</text>
</g>
<!-- n5&#45;&gt;n9 -->
<g id="edge8" class="edge">
<title>n5&#45;&gt;n9</title>
<path fill="none" stroke="black" d="M1033.3,-243.81C1046.7,-223.44 1069.2,-189.34 1084.5,-166.04"/>
<polygon fill="black" stroke="black" points="1087.62,-167.67 1090.2,-157.39 1081.78,-163.81 1087.62,-167.67"/>
</g>
<!-- n10 -->
<g id="node10" class="node">
<title>n10</title>
<polygon fill="#f28e8e" stroke="black" points="1202.5,-36 999.5,-36 999.5,0 1202.5,0 1202.5,-36"/>
<text text-anchor="middle" x="1101" y="-14.3" font-family="Arial" font-size="14.00">Explain interactions in habitats.</text>
</g>
<!-- n9&#45;&gt;n10 -->
<g id="edge9" class="edge">
<title>n9&#45;&gt;n10</title>
<path fill="none" stroke="black" d="M1101,-121.81C1101,-102.11 1101,-69.58 1101,-46.39"/>
<polygon fill="black" stroke="black" points="1104.5,-46.16 1101,-36.16 1097.5,-46.16 1104.5,-46.16"/>
</g>
</g>
</svg>
