<?xml version="1.0" encoding="UTF-8" standalone="no"?>
<!DOCTYPE svg PUBLIC "-//W3C//DTD SVG 1.1//EN"
 "http://www.w3.org/Graphics/SVG/1.1/DTD/svg11.dtd">
<!-- Generated by graphviz version 2.43.0 (0)
 -->
<!-- Pages: 1 -->
<svg width="1225pt" height="410pt"
 viewBox="0.00 0.00 1224.50 410.00" xmlns="http://www.w3.org/2000/svg" xmlns:xlink="http://www.w3.org/1999/xlink">
<g id="graph0" class="graph" transform="scale(1 1) rotate(0) translate(4 406)">
<polygon fill="white" stroke="transparent" points="-4,4 -4,-406 1220.5,-406 1220.5,4 -4,4"/>
<!-- n1 -->
<g id="node1" class="node">
<title>n1</title>
<polygon fill="lightblue" stroke="black" points="866,-384 702,-402 374,-402 210,-384 374,-366 702,-366 866,-384"/>
<text text-anchor="middle" x="538" y="-380.3" font-family="Arial" font-size="14.00">Draw reversible and irreversible changes (ice melting vs. egg cooking)</text>
</g>
<!-- n2 -->
<g id="node2" class="node">
<title>n2</title>
<polygon fill="#fffdd0" stroke="black" points="520,-280 34,-280 34,-244 520,-244 520,-280"/>
<text text-anchor="middle" x="277" y="-258.3" font-family="Arial" font-size="14.00">Ice melting into a puddle of water with arrows indicating melting and refreezing</text>
</g>
<!-- n1&#45;&gt;n2 -->
<g id="edge1" class="edge">
<title>n1&#45;&gt;n2</title>
<path fill="none" stroke="black" d="M500.88,-365.93C454.11,-344.43 373.74,-307.48 323.09,-284.19"/>
<polygon fill="black" stroke="black" points="324.54,-281 313.99,-280.01 321.62,-287.36 324.54,-281"/>
</g>
<!-- n3 -->
<g id="node3" class="node">
<title>n3</title>
<polygon fill="#fffdd0" stroke="black" points="1049.5,-280 606.5,-280 606.5,-244 1049.5,-244 1049.5,-280"/>
<text text-anchor="middle" x="828" y="-258.3" font-family="Arial" font-size="14.00">Raw egg transforming into a solid cooked egg without backward arrows</text>
</g>
<!-- n1&#45;&gt;n3 -->
<g id="edge2" class="edge">
<title>n1&#45;&gt;n3</title>
<path fill="none" stroke="black" d="M579.24,-365.93C631.42,-344.34 721.25,-307.17 777.49,-283.9"/>
<polygon fill="black" stroke="black" points="779,-287.06 786.9,-280.01 776.32,-280.6 779,-287.06"/>
</g>
<!-- n4 -->
<g id="node4" class="node">
<title>n4</title>
<path fill="palegreen" stroke="black" d="M428,-158C428,-158 12,-158 12,-158 6,-158 0,-152 0,-146 0,-146 0,-134 0,-134 0,-128 6,-122 12,-122 12,-122 428,-122 428,-122 434,-122 440,-128 440,-134 440,-134 440,-146 440,-146 440,-152 434,-158 428,-158"/>
<text text-anchor="middle" x="220" y="-136.3" font-family="Arial" font-size="14.00">Shows understanding of reversible change (ice melting and refreezing)</text>
</g>
<!-- n2&#45;&gt;n4 -->
<g id="edge3" class="edge">
<title>n2&#45;&gt;n4</title>
<path fill="none" stroke="black" d="M268.83,-243.81C259.35,-223.85 243.61,-190.7 232.56,-167.45"/>
<polygon fill="black" stroke="black" points="235.6,-165.69 228.15,-158.16 229.28,-168.69 235.6,-165.69"/>
</g>
<!-- n5 -->
<g id="node5" class="node">
<title>n5</title>
<polygon fill="lightcoral" stroke="black" points="857,-158 497.5,-140 857,-122 1216.5,-140 857,-158"/>
<text text-anchor="middle" x="857" y="-136.3" font-family="Arial" font-size="14.00">Incomplete understanding of irreversible change (egg cooking)</text>
</g>
<!-- n3&#45;&gt;n5 -->
<g id="edge4" class="edge">
<title>n3&#45;&gt;n5</title>
<path fill="none" stroke="black" d="M832.15,-243.81C836.94,-224.02 844.85,-191.29 850.46,-168.08"/>
<polygon fill="black" stroke="black" points="853.91,-168.7 852.85,-158.16 847.11,-167.06 853.91,-168.7"/>
</g>
<!-- n6 -->
<g id="node6" class="node">
<title>n6</title>
<polygon fill="#f28e8e" stroke="black" points="1054,-36 660,-36 660,0 1054,0 1054,-36"/>
<text text-anchor="middle" x="857" y="-14.3" font-family="Arial" font-size="14.00">Improve by indicating inability to revert cooked egg to raw state</text>
</g>
<!-- n5&#45;&gt;n6 -->
<g id="edge5" class="edge">
<title>n5&#45;&gt;n6</title>
<path fill="none" stroke="black" d="M857,-121.81C857,-102.11 857,-69.58 857,-46.39"/>
<polygon fill="black" stroke="black" points="860.5,-46.16 857,-36.16 853.5,-46.16 860.5,-46.16"/>
</g>
</g>
</svg>
