<?xml version="1.0" encoding="UTF-8" standalone="no"?>
<!DOCTYPE svg PUBLIC "-//W3C//DTD SVG 1.1//EN"
 "http://www.w3.org/Graphics/SVG/1.1/DTD/svg11.dtd">
<!-- Generated by graphviz version 2.43.0 (0)
 -->
<!-- Pages: 1 -->
<svg width="1055pt" height="410pt"
 viewBox="0.00 0.00 1054.50 410.00" xmlns="http://www.w3.org/2000/svg" xmlns:xlink="http://www.w3.org/1999/xlink">
<g id="graph0" class="graph" transform="scale(1 1) rotate(0) translate(4 406)">
<polygon fill="white" stroke="transparent" points="-4,4 -4,-406 1050.5,-406 1050.5,4 -4,4"/>
<!-- n1 -->
<g id="node1" class="node">
<title>n1</title>
<polygon fill="lightblue" stroke="black" points="624,-384 514,-402 294,-402 184,-384 294,-366 514,-366 624,-384"/>
<text text-anchor="middle" x="404" y="-380.3" font-family="Arial" font-size="14.00">Draw a string telephone between two students</text>
</g>
<!-- n2 -->
<g id="node2" class="node">
<title>n2</title>
<polygon fill="#fffdd0" stroke="black" points="225,-280 109,-280 109,-244 225,-244 225,-280"/>
<text text-anchor="middle" x="167" y="-258.3" font-family="Arial" font-size="14.00">Two stick figures</text>
</g>
<!-- n1&#45;&gt;n2 -->
<g id="edge1" class="edge">
<title>n1&#45;&gt;n2</title>
<path fill="none" stroke="black" d="M370.3,-365.93C328.09,-344.57 255.75,-307.94 209.71,-284.63"/>
<polygon fill="black" stroke="black" points="211.09,-281.41 200.59,-280.01 207.93,-287.65 211.09,-281.41"/>
</g>
<!-- n3 -->
<g id="node3" class="node">
<title>n3</title>
<polygon fill="#fffdd0" stroke="black" points="474,-280 334,-280 334,-244 474,-244 474,-280"/>
<text text-anchor="middle" x="404" y="-258.3" font-family="Arial" font-size="14.00">Cups held by figures</text>
</g>
<!-- n1&#45;&gt;n3 -->
<g id="edge2" class="edge">
<title>n1&#45;&gt;n3</title>
<path fill="none" stroke="black" d="M404,-365.81C404,-346.11 404,-313.58 404,-290.39"/>
<polygon fill="black" stroke="black" points="407.5,-290.16 404,-280.16 400.5,-290.16 407.5,-290.16"/>
</g>
<!-- n4 -->
<g id="node4" class="node">
<title>n4</title>
<polygon fill="#fffdd0" stroke="black" points="793,-280 631,-280 631,-244 793,-244 793,-280"/>
<text text-anchor="middle" x="712" y="-258.3" font-family="Arial" font-size="14.00">Wavy line between cups</text>
</g>
<!-- n1&#45;&gt;n4 -->
<g id="edge3" class="edge">
<title>n1&#45;&gt;n4</title>
<path fill="none" stroke="black" d="M447.8,-365.93C503.34,-344.3 599.02,-307.02 658.73,-283.76"/>
<polygon fill="black" stroke="black" points="660.3,-286.9 668.35,-280.01 657.76,-280.38 660.3,-286.9"/>
</g>
<!-- n5 -->
<g id="node5" class="node">
<title>n5</title>
<path fill="palegreen" stroke="black" d="M218,-158C218,-158 12,-158 12,-158 6,-158 0,-152 0,-146 0,-146 0,-134 0,-134 0,-128 6,-122 12,-122 12,-122 218,-122 218,-122 224,-122 230,-128 230,-134 230,-134 230,-146 230,-146 230,-152 224,-158 218,-158"/>
<text text-anchor="middle" x="115" y="-136.3" font-family="Arial" font-size="14.00">Students are trying to communicate</text>
</g>
<!-- n2&#45;&gt;n5 -->
<g id="edge4" class="edge">
<title>n2&#45;&gt;n5</title>
<path fill="none" stroke="black" d="M159.55,-243.81C150.9,-223.85 136.54,-190.7 126.46,-167.45"/>
<polygon fill="black" stroke="black" points="129.62,-165.95 122.44,-158.16 123.2,-168.73 129.62,-165.95"/>
</g>
<!-- n6 -->
<g id="node6" class="node">
<title>n6</title>
<path fill="palegreen" stroke="black" d="M507.5,-158C507.5,-158 300.5,-158 300.5,-158 294.5,-158 288.5,-152 288.5,-146 288.5,-146 288.5,-134 288.5,-134 288.5,-128 294.5,-122 300.5,-122 300.5,-122 507.5,-122 507.5,-122 513.5,-122 519.5,-128 519.5,-134 519.5,-134 519.5,-146 519.5,-146 519.5,-152 513.5,-158 507.5,-158"/>
<text text-anchor="middle" x="404" y="-136.3" font-family="Arial" font-size="14.00">Cups are transmitters and receivers</text>
</g>
<!-- n3&#45;&gt;n6 -->
<g id="edge5" class="edge">
<title>n3&#45;&gt;n6</title>
<path fill="none" stroke="black" d="M404,-243.81C404,-224.11 404,-191.58 404,-168.39"/>
<polygon fill="black" stroke="black" points="407.5,-168.16 404,-158.16 400.5,-168.16 407.5,-168.16"/>
</g>
<!-- n7 -->
<g id="node7" class="node">
<title>n7</title>
<polygon fill="lightcoral" stroke="black" points="812,-158 577.5,-140 812,-122 1046.5,-140 812,-158"/>
<text text-anchor="middle" x="812" y="-136.3" font-family="Arial" font-size="14.00">String should be tight for sound to travel</text>
</g>
<!-- n4&#45;&gt;n7 -->
<g id="edge6" class="edge">
<title>n4&#45;&gt;n7</title>
<path fill="none" stroke="black" d="M726.33,-243.81C743.62,-223.05 772.8,-188.04 792.23,-164.73"/>
<polygon fill="black" stroke="black" points="794.95,-166.93 798.66,-157.01 789.57,-162.45 794.95,-166.93"/>
</g>
<!-- n8 -->
<g id="node8" class="node">
<title>n8</title>
<polygon fill="#f28e8e" stroke="black" points="912.5,-36 711.5,-36 711.5,0 912.5,0 912.5,-36"/>
<text text-anchor="middle" x="812" y="-14.3" font-family="Arial" font-size="14.00">Sound path through tight string</text>
</g>
<!-- n7&#45;&gt;n8 -->
<g id="edge7" class="edge">
<title>n7&#45;&gt;n8</title>
<path fill="none" stroke="black" d="M812,-121.81C812,-102.11 812,-69.58 812,-46.39"/>
<polygon fill="black" stroke="black" points="815.5,-46.16 812,-36.16 808.5,-46.16 815.5,-46.16"/>
</g>
</g>
</svg>
