<?xml version="1.0" encoding="UTF-8" standalone="no"?>
<!DOCTYPE svg PUBLIC "-//W3C//DTD SVG 1.1//EN"
 "http://www.w3.org/Graphics/SVG/1.1/DTD/svg11.dtd">
<!-- Generated by graphviz version 2.43.0 (0)
 -->
<!-- Pages: 1 -->
<svg width="1277pt" height="410pt"
 viewBox="0.00 0.00 1276.50 410.00" xmlns="http://www.w3.org/2000/svg" xmlns:xlink="http://www.w3.org/1999/xlink">
<g id="graph0" class="graph" transform="scale(1 1) rotate(0) translate(4 406)">
<polygon fill="white" stroke="transparent" points="-4,4 -4,-406 1272.5,-406 1272.5,4 -4,4"/>
<!-- n1 -->
<g id="node1" class="node">
<title>n1</title>
<polygon fill="lightblue" stroke="black" points="702,-384 590.5,-402 367.5,-402 256,-384 367.5,-366 590.5,-366 702,-384"/>
<text text-anchor="middle" x="479" y="-380.3" font-family="Arial" font-size="14.00">Draw a string telephone between two students.</text>
</g>
<!-- n2 -->
<g id="node2" class="node">
<title>n2</title>
<polygon fill="#fffdd0" stroke="black" points="328,-280 164,-280 164,-244 328,-244 328,-280"/>
<text text-anchor="middle" x="246" y="-258.3" font-family="Arial" font-size="14.00">Two stick figure students</text>
</g>
<!-- n1&#45;&gt;n2 -->
<g id="edge1" class="edge">
<title>n1&#45;&gt;n2</title>
<path fill="none" stroke="black" d="M445.62,-365.81C404.18,-344.47 333.47,-308.05 288.28,-284.77"/>
<polygon fill="black" stroke="black" points="289.81,-281.62 279.32,-280.16 286.61,-287.85 289.81,-281.62"/>
</g>
<!-- n3 -->
<g id="node3" class="node">
<title>n3</title>
<polygon fill="#fffdd0" stroke="black" points="749,-280 483,-280 483,-244 749,-244 749,-280"/>
<text text-anchor="middle" x="616" y="-258.3" font-family="Arial" font-size="14.00">Thin, straight, dark line connecting figures</text>
</g>
<!-- n1&#45;&gt;n3 -->
<g id="edge2" class="edge">
<title>n1&#45;&gt;n3</title>
<path fill="none" stroke="black" d="M498.63,-365.81C522.23,-345.13 561.98,-310.31 588.6,-287"/>
<polygon fill="black" stroke="black" points="591.19,-289.38 596.41,-280.16 586.58,-284.12 591.19,-289.38"/>
</g>
<!-- n4 -->
<g id="node4" class="node">
<title>n4</title>
<path fill="palegreen" stroke="black" d="M286,-158C286,-158 12,-158 12,-158 6,-158 0,-152 0,-146 0,-146 0,-134 0,-134 0,-128 6,-122 12,-122 12,-122 286,-122 286,-122 292,-122 298,-128 298,-134 298,-134 298,-146 298,-146 298,-152 292,-158 286,-158"/>
<text text-anchor="middle" x="149" y="-136.3" font-family="Arial" font-size="14.00">Understanding of connection between students</text>
</g>
<!-- n2&#45;&gt;n4 -->
<g id="edge3" class="edge">
<title>n2&#45;&gt;n4</title>
<path fill="none" stroke="black" d="M232.1,-243.81C215.68,-223.49 188.21,-189.51 169.38,-166.21"/>
<polygon fill="black" stroke="black" points="171.88,-163.73 162.87,-158.16 166.44,-168.14 171.88,-163.73"/>
</g>
<!-- n5 -->
<g id="node5" class="node">
<title>n5</title>
<polygon fill="lightcoral" stroke="black" points="616,-158 355.76,-140 616,-122 876.24,-140 616,-158"/>
<text text-anchor="middle" x="616" y="-136.3" font-family="Arial" font-size="14.00">No materials representing a string telephone</text>
</g>
<!-- n3&#45;&gt;n5 -->
<g id="edge4" class="edge">
<title>n3&#45;&gt;n5</title>
<path fill="none" stroke="black" d="M616,-243.81C616,-224.11 616,-191.58 616,-168.39"/>
<polygon fill="black" stroke="black" points="619.5,-168.16 616,-158.16 612.5,-168.16 619.5,-168.16"/>
</g>
<!-- n6 -->
<g id="node6" class="node">
<title>n6</title>
<polygon fill="lightcoral" stroke="black" points="1101,-158 933.5,-140 1101,-122 1268.5,-140 1101,-158"/>
<text text-anchor="middle" x="1101" y="-136.3" font-family="Arial" font-size="14.00">No labels or scientific terms</text>
</g>
<!-- n3&#45;&gt;n6 -->
<g id="edge5" class="edge">
<title>n3&#45;&gt;n6</title>
<path fill="none" stroke="black" d="M684.72,-244C780.81,-220.22 953.59,-177.47 1043.3,-155.26"/>
<polygon fill="black" stroke="black" points="1044.22,-158.64 1053.1,-152.86 1042.55,-151.84 1044.22,-158.64"/>
</g>
<!-- n7 -->
<g id="node7" class="node">
<title>n7</title>
<polygon fill="#f28e8e" stroke="black" points="753.5,-36 478.5,-36 478.5,0 753.5,0 753.5,-36"/>
<text text-anchor="middle" x="616" y="-14.3" font-family="Arial" font-size="14.00">Add realistic materials like cups and strings</text>
</g>
<!-- n5&#45;&gt;n7 -->
<g id="edge6" class="edge">
<title>n5&#45;&gt;n7</title>
<path fill="none" stroke="black" d="M616,-121.81C616,-102.11 616,-69.58 616,-46.39"/>
<polygon fill="black" stroke="black" points="619.5,-46.16 616,-36.16 612.5,-46.16 619.5,-46.16"/>
</g>
<!-- n8 -->
<g id="node8" class="node">
<title>n8</title>
<polygon fill="#f28e8e" stroke="black" points="1247.5,-36 954.5,-36 954.5,0 1247.5,0 1247.5,-36"/>
<text text-anchor="middle" x="1101" y="-14.3" font-family="Arial" font-size="14.00">Label parts using terms like &#39;sound&#39;, &#39;vibration&#39;</text>
</g>
<!-- n6&#45;&gt;n8 -->
<g id="edge7" class="edge">
<title>n6&#45;&gt;n8</title>
<path fill="none" stroke="black" d="M1101,-121.81C1101,-102.11 1101,-69.58 1101,-46.39"/>
<polygon fill="black" stroke="black" points="1104.5,-46.16 1101,-36.16 1097.5,-46.16 1104.5,-46.16"/>
</g>
</g>
</svg>
