<?xml version="1.0" encoding="UTF-8" standalone="no"?>
<!DOCTYPE svg PUBLIC "-//W3C//DTD SVG 1.1//EN"
 "http://www.w3.org/Graphics/SVG/1.1/DTD/svg11.dtd">
<!-- Generated by graphviz version 2.43.0 (0)
 -->
<!-- Pages: 1 -->
<svg width="1155pt" height="410pt"
 viewBox="0.00 0.00 1155.00 410.00" xmlns="http://www.w3.org/2000/svg" xmlns:xlink="http://www.w3.org/1999/xlink">
<g id="graph0" class="graph" transform="scale(1 1) rotate(0) translate(4 406)">
<polygon fill="white" stroke="transparent" points="-4,4 -4,-406 1151,-406 1151,4 -4,4"/>
<!-- n1 -->
<g id="node1" class="node">
<title>n1</title>
<polygon fill="lightblue" stroke="black" points="841.37,-384 700.18,-402 417.82,-402 276.63,-384 417.82,-366 700.18,-366 841.37,-384"/>
<text text-anchor="middle" x="559" y="-380.3" font-family="Arial" font-size="14.00">Draw animals in their habitats with labels (e.g., fish in water)</text>
</g>
<!-- n2 -->
<g id="node2" class="node">
<title>n2</title>
<polygon fill="#fffdd0" stroke="black" points="315.5,-280 222.5,-280 222.5,-244 315.5,-244 315.5,-280"/>
<text text-anchor="middle" x="269" y="-258.3" font-family="Arial" font-size="14.00">Fish in water</text>
</g>
<!-- n1&#45;&gt;n2 -->
<g id="edge1" class="edge">
<title>n1&#45;&gt;n2</title>
<path fill="none" stroke="black" d="M517.76,-365.93C465.58,-344.34 375.75,-307.17 319.51,-283.9"/>
<polygon fill="black" stroke="black" points="320.68,-280.6 310.1,-280.01 318,-287.06 320.68,-280.6"/>
</g>
<!-- n3 -->
<g id="node3" class="node">
<title>n3</title>
<polygon fill="#fffdd0" stroke="black" points="527.5,-280 430.5,-280 430.5,-244 527.5,-244 527.5,-280"/>
<text text-anchor="middle" x="479" y="-258.3" font-family="Arial" font-size="14.00">Bear in forest</text>
</g>
<!-- n1&#45;&gt;n3 -->
<g id="edge2" class="edge">
<title>n1&#45;&gt;n3</title>
<path fill="none" stroke="black" d="M547.54,-365.81C534.05,-345.58 511.54,-311.81 496.01,-288.52"/>
<polygon fill="black" stroke="black" points="498.9,-286.54 490.44,-280.16 493.07,-290.42 498.9,-286.54"/>
</g>
<!-- n4 -->
<g id="node4" class="node">
<title>n4</title>
<polygon fill="#fffdd0" stroke="black" points="759,-280 653,-280 653,-244 759,-244 759,-280"/>
<text text-anchor="middle" x="706" y="-258.3" font-family="Arial" font-size="14.00">Bird in tree/sky</text>
</g>
<!-- n1&#45;&gt;n4 -->
<g id="edge3" class="edge">
<title>n1&#45;&gt;n4</title>
<path fill="none" stroke="black" d="M580.06,-365.81C605.5,-345.04 648.41,-310.01 676.97,-286.7"/>
<polygon fill="black" stroke="black" points="679.45,-289.2 684.98,-280.16 675.02,-283.77 679.45,-289.2"/>
</g>
<!-- n5 -->
<g id="node5" class="node">
<title>n5</title>
<polygon fill="#fffdd0" stroke="black" points="1022,-280 918,-280 918,-244 1022,-244 1022,-280"/>
<text text-anchor="middle" x="970" y="-258.3" font-family="Arial" font-size="14.00">Human in field</text>
</g>
<!-- n1&#45;&gt;n5 -->
<g id="edge4" class="edge">
<title>n1&#45;&gt;n5</title>
<path fill="none" stroke="black" d="M617.45,-365.93C694.49,-343.44 829.44,-304.04 908.15,-281.06"/>
<polygon fill="black" stroke="black" points="909.31,-284.37 917.93,-278.2 907.35,-277.65 909.31,-284.37"/>
</g>
<!-- n6 -->
<g id="node6" class="node">
<title>n6</title>
<path fill="palegreen" stroke="black" d="M257.5,-158C257.5,-158 74.5,-158 74.5,-158 68.5,-158 62.5,-152 62.5,-146 62.5,-146 62.5,-134 62.5,-134 62.5,-128 68.5,-122 74.5,-122 74.5,-122 257.5,-122 257.5,-122 263.5,-122 269.5,-128 269.5,-134 269.5,-134 269.5,-146 269.5,-146 269.5,-152 263.5,-158 257.5,-158"/>
<text text-anchor="middle" x="166" y="-136.3" font-family="Arial" font-size="14.00">Fish and water labeled correctly</text>
</g>
<!-- n2&#45;&gt;n6 -->
<g id="edge5" class="edge">
<title>n2&#45;&gt;n6</title>
<path fill="none" stroke="black" d="M254.24,-243.81C236.73,-223.4 207.38,-189.21 187.38,-165.91"/>
<polygon fill="black" stroke="black" points="189.9,-163.47 180.73,-158.16 184.59,-168.03 189.9,-163.47"/>
</g>
<!-- n8 -->
<g id="node7" class="node">
<title>n8</title>
<path fill="palegreen" stroke="black" d="M539.5,-158C539.5,-158 352.5,-158 352.5,-158 346.5,-158 340.5,-152 340.5,-146 340.5,-146 340.5,-134 340.5,-134 340.5,-128 346.5,-122 352.5,-122 352.5,-122 539.5,-122 539.5,-122 545.5,-122 551.5,-128 551.5,-134 551.5,-134 551.5,-146 551.5,-146 551.5,-152 545.5,-158 539.5,-158"/>
<text text-anchor="middle" x="446" y="-136.3" font-family="Arial" font-size="14.00">Bear and forest labeled correctly</text>
</g>
<!-- n3&#45;&gt;n8 -->
<g id="edge6" class="edge">
<title>n3&#45;&gt;n8</title>
<path fill="none" stroke="black" d="M474.27,-243.81C468.83,-224.02 459.83,-191.29 453.45,-168.08"/>
<polygon fill="black" stroke="black" points="456.75,-166.87 450.72,-158.16 450,-168.73 456.75,-166.87"/>
</g>
<!-- n10 -->
<g id="node8" class="node">
<title>n10</title>
<polygon fill="lightcoral" stroke="black" points="740,-158 609.46,-140 740,-122 870.54,-140 740,-158"/>
<text text-anchor="middle" x="740" y="-136.3" font-family="Arial" font-size="14.00">Bird missing air label</text>
</g>
<!-- n4&#45;&gt;n10 -->
<g id="edge7" class="edge">
<title>n4&#45;&gt;n10</title>
<path fill="none" stroke="black" d="M710.87,-243.81C716.54,-223.8 725.96,-190.54 732.55,-167.29"/>
<polygon fill="black" stroke="black" points="736,-167.97 735.36,-157.39 729.26,-166.05 736,-167.97"/>
</g>
<!-- n11 -->
<g id="node9" class="node">
<title>n11</title>
<path fill="palegreen" stroke="black" d="M1135,-158C1135,-158 941,-158 941,-158 935,-158 929,-152 929,-146 929,-146 929,-134 929,-134 929,-128 935,-122 941,-122 941,-122 1135,-122 1135,-122 1141,-122 1147,-128 1147,-134 1147,-134 1147,-146 1147,-146 1147,-152 1141,-158 1135,-158"/>
<text text-anchor="middle" x="1038" y="-136.3" font-family="Arial" font-size="14.00">Human and field labeled correctly</text>
</g>
<!-- n5&#45;&gt;n11 -->
<g id="edge8" class="edge">
<title>n5&#45;&gt;n11</title>
<path fill="none" stroke="black" d="M979.74,-243.81C991.1,-223.76 1010,-190.4 1023.2,-167.14"/>
<polygon fill="black" stroke="black" points="1026.4,-168.58 1028.3,-158.16 1020.32,-165.13 1026.4,-168.58"/>
</g>
<!-- n7 -->
<g id="node10" class="node">
<title>n7</title>
<path fill="palegreen" stroke="black" d="M280,-36C280,-36 12,-36 12,-36 6,-36 0,-30 0,-24 0,-24 0,-12 0,-12 0,-6 6,0 12,0 12,0 280,0 280,0 286,0 292,-6 292,-12 292,-12 292,-24 292,-24 292,-30 286,-36 280,-36"/>
<text text-anchor="middle" x="146" y="-14.3" font-family="Arial" font-size="14.00">The student understands that fish live in water</text>
</g>
<!-- n6&#45;&gt;n7 -->
<g id="edge9" class="edge">
<title>n6&#45;&gt;n7</title>
<path fill="none" stroke="black" d="M163.13,-121.81C159.84,-102.02 154.38,-69.29 150.51,-46.08"/>
<polygon fill="black" stroke="black" points="153.95,-45.45 148.86,-36.16 147.05,-46.6 153.95,-45.45"/>
</g>
<!-- n9 -->
<g id="node11" class="node">
<title>n9</title>
<path fill="palegreen" stroke="black" d="M544,-36C544,-36 362,-36 362,-36 356,-36 350,-30 350,-24 350,-24 350,-12 350,-12 350,-6 356,0 362,0 362,0 544,0 544,0 550,0 556,-6 556,-12 556,-12 556,-24 556,-24 556,-30 550,-36 544,-36"/>
<text text-anchor="middle" x="453" y="-14.3" font-family="Arial" font-size="14.00">Bear gets resources from forest</text>
</g>
<!-- n8&#45;&gt;n9 -->
<g id="edge10" class="edge">
<title>n8&#45;&gt;n9</title>
<path fill="none" stroke="black" d="M447,-121.81C448.15,-102.11 450.05,-69.58 451.4,-46.39"/>
<polygon fill="black" stroke="black" points="454.91,-46.35 452,-36.16 447.92,-45.94 454.91,-46.35"/>
</g>
<!-- n12 -->
<g id="node12" class="node">
<title>n12</title>
<polygon fill="#f28e8e" stroke="black" points="859.5,-36 620.5,-36 620.5,0 859.5,0 859.5,-36"/>
<text text-anchor="middle" x="740" y="-14.3" font-family="Arial" font-size="14.00">Include &#39;air&#39; as a resource for the bird</text>
</g>
<!-- n10&#45;&gt;n12 -->
<g id="edge11" class="edge">
<title>n10&#45;&gt;n12</title>
<path fill="none" stroke="black" d="M740,-121.81C740,-102.11 740,-69.58 740,-46.39"/>
<polygon fill="black" stroke="black" points="743.5,-46.16 740,-36.16 736.5,-46.16 743.5,-46.16"/>
</g>
</g>
</svg>
