<?xml version="1.0" encoding="UTF-8" standalone="no"?>
<!DOCTYPE svg PUBLIC "-//W3C//DTD SVG 1.1//EN"
 "http://www.w3.org/Graphics/SVG/1.1/DTD/svg11.dtd">
<!-- Generated by graphviz version 2.43.0 (0)
 -->
<!-- Pages: 1 -->
<svg width="1230pt" height="410pt"
 viewBox="0.00 0.00 1230.00 410.00" xmlns="http://www.w3.org/2000/svg" xmlns:xlink="http://www.w3.org/1999/xlink">
<g id="graph0" class="graph" transform="scale(1 1) rotate(0) translate(4 406)">
<polygon fill="white" stroke="transparent" points="-4,4 -4,-406 1226,-406 1226,4 -4,4"/>
<!-- n1 -->
<g id="node1" class="node">
<title>n1</title>
<polygon fill="lightblue" stroke="black" points="962,-384 798,-402 470,-402 306,-384 470,-366 798,-366 962,-384"/>
<text text-anchor="middle" x="634" y="-380.3" font-family="Arial" font-size="14.00">Draw reversible and irreversible changes (ice melting vs. egg cooking)</text>
</g>
<!-- n2 -->
<g id="node2" class="node">
<title>n2</title>
<polygon fill="#fffdd0" stroke="black" points="618,-280 382,-280 382,-244 618,-244 618,-280"/>
<text text-anchor="middle" x="500" y="-258.3" font-family="Arial" font-size="14.00">Ice turning into water and back to ice</text>
</g>
<!-- n1&#45;&gt;n2 -->
<g id="edge1" class="edge">
<title>n1&#45;&gt;n2</title>
<path fill="none" stroke="black" d="M614.8,-365.81C591.72,-345.13 552.83,-310.31 526.8,-287"/>
<polygon fill="black" stroke="black" points="528.94,-284.22 519.16,-280.16 524.28,-289.44 528.94,-284.22"/>
</g>
<!-- n3 -->
<g id="node3" class="node">
<title>n3</title>
<polygon fill="#fffdd0" stroke="black" points="861.5,-280 676.5,-280 676.5,-244 861.5,-244 861.5,-280"/>
<text text-anchor="middle" x="769" y="-258.3" font-family="Arial" font-size="14.00">Egg turning into cooked egg</text>
</g>
<!-- n1&#45;&gt;n3 -->
<g id="edge2" class="edge">
<title>n1&#45;&gt;n3</title>
<path fill="none" stroke="black" d="M653.34,-365.81C676.6,-345.13 715.77,-310.31 742,-287"/>
<polygon fill="black" stroke="black" points="744.54,-289.42 749.69,-280.16 739.89,-284.19 744.54,-289.42"/>
</g>
<!-- n4 -->
<g id="node4" class="node">
<title>n4</title>
<path fill="palegreen" stroke="black" d="M332,-158C332,-158 12,-158 12,-158 6,-158 0,-152 0,-146 0,-146 0,-134 0,-134 0,-128 6,-122 12,-122 12,-122 332,-122 332,-122 338,-122 344,-128 344,-134 344,-134 344,-146 344,-146 344,-152 338,-158 332,-158"/>
<text text-anchor="middle" x="172" y="-136.3" font-family="Arial" font-size="14.00">Understands reversible change (ice to water and back)</text>
</g>
<!-- n2&#45;&gt;n4 -->
<g id="edge3" class="edge">
<title>n2&#45;&gt;n4</title>
<path fill="none" stroke="black" d="M453.35,-243.93C393.97,-222.21 291.47,-184.71 227.95,-161.47"/>
<polygon fill="black" stroke="black" points="229.08,-158.16 218.49,-158.01 226.68,-164.73 229.08,-158.16"/>
</g>
<!-- n6 -->
<g id="node5" class="node">
<title>n6</title>
<polygon fill="lightcoral" stroke="black" points="635,-158 402.41,-140 635,-122 867.59,-140 635,-158"/>
<text text-anchor="middle" x="635" y="-136.3" font-family="Arial" font-size="14.00">Missing labels or incomplete transitions</text>
</g>
<!-- n2&#45;&gt;n6 -->
<g id="edge4" class="edge">
<title>n2&#45;&gt;n6</title>
<path fill="none" stroke="black" d="M519.34,-243.81C543,-222.78 583.11,-187.12 609.33,-163.82"/>
<polygon fill="black" stroke="black" points="611.84,-166.27 616.99,-157.01 607.19,-161.04 611.84,-166.27"/>
</g>
<!-- n3&#45;&gt;n6 -->
<g id="edge5" class="edge">
<title>n3&#45;&gt;n6</title>
<path fill="none" stroke="black" d="M749.8,-243.81C726.32,-222.78 686.5,-187.12 660.48,-163.82"/>
<polygon fill="black" stroke="black" points="662.66,-161.08 652.88,-157.01 657.99,-166.29 662.66,-161.08"/>
</g>
<!-- n5 -->
<g id="node6" class="node">
<title>n5</title>
<path fill="palegreen" stroke="black" d="M1210,-158C1210,-158 938,-158 938,-158 932,-158 926,-152 926,-146 926,-146 926,-134 926,-134 926,-128 932,-122 938,-122 938,-122 1210,-122 1210,-122 1216,-122 1222,-128 1222,-134 1222,-134 1222,-146 1222,-146 1222,-152 1216,-158 1210,-158"/>
<text text-anchor="middle" x="1074" y="-136.3" font-family="Arial" font-size="14.00">Understands irreversible change (egg cooking)</text>
</g>
<!-- n3&#45;&gt;n5 -->
<g id="edge6" class="edge">
<title>n3&#45;&gt;n5</title>
<path fill="none" stroke="black" d="M812.38,-243.93C867.37,-222.3 962.12,-185.02 1021.2,-161.76"/>
<polygon fill="black" stroke="black" points="1022.76,-164.91 1030.8,-158.01 1020.21,-158.39 1022.76,-164.91"/>
</g>
<!-- n7 -->
<g id="node7" class="node">
<title>n7</title>
<polygon fill="#f28e8e" stroke="black" points="828,-36 442,-36 442,0 828,0 828,-36"/>
<text text-anchor="middle" x="635" y="-14.3" font-family="Arial" font-size="14.00">Ensure all stages are labeled and transitions illustrated clearly</text>
</g>
<!-- n6&#45;&gt;n7 -->
<g id="edge7" class="edge">
<title>n6&#45;&gt;n7</title>
<path fill="none" stroke="black" d="M635,-121.81C635,-102.11 635,-69.58 635,-46.39"/>
<polygon fill="black" stroke="black" points="638.5,-46.16 635,-36.16 631.5,-46.16 638.5,-46.16"/>
</g>
</g>
</svg>
