<?xml version="1.0" encoding="UTF-8" standalone="no"?>
<!DOCTYPE svg PUBLIC "-//W3C//DTD SVG 1.1//EN"
 "http://www.w3.org/Graphics/SVG/1.1/DTD/svg11.dtd">
<!-- Generated by graphviz version 2.43.0 (0)
 -->
<!-- Pages: 1 -->
<svg width="1464pt" height="410pt"
 viewBox="0.00 0.00 1464.12 410.00" xmlns="http://www.w3.org/2000/svg" xmlns:xlink="http://www.w3.org/1999/xlink">
<g id="graph0" class="graph" transform="scale(1 1) rotate(0) translate(4 406)">
<polygon fill="white" stroke="transparent" points="-4,4 -4,-406 1460.12,-406 1460.12,4 -4,4"/>
<!-- n1 -->
<g id="node1" class="node">
<title>n1</title>
<polygon fill="lightblue" stroke="black" points="819,-384 727.75,-402 545.25,-402 454,-384 545.25,-366 727.75,-366 819,-384"/>
<text text-anchor="middle" x="636.5" y="-380.3" font-family="Arial" font-size="14.00">Draw reversible changes (ice melting)</text>
</g>
<!-- n2 -->
<g id="node2" class="node">
<title>n2</title>
<polygon fill="#fffdd0" stroke="black" points="284.5,-280 30.5,-280 30.5,-244 284.5,-244 284.5,-280"/>
<text text-anchor="middle" x="157.5" y="-258.3" font-family="Arial" font-size="14.00">Solid blue block labeled &#39;before heating&#39;</text>
</g>
<!-- n1&#45;&gt;n2 -->
<g id="edge1" class="edge">
<title>n1&#45;&gt;n2</title>
<path fill="none" stroke="black" d="M568.63,-366C480.73,-343.98 327.85,-305.68 235.33,-282.5"/>
<polygon fill="black" stroke="black" points="236.01,-279.06 225.46,-280.03 234.31,-285.85 236.01,-279.06"/>
</g>
<!-- n3 -->
<g id="node3" class="node">
<title>n3</title>
<polygon fill="#fffdd0" stroke="black" points="602,-280 351,-280 351,-244 602,-244 602,-280"/>
<text text-anchor="middle" x="476.5" y="-258.3" font-family="Arial" font-size="14.00">Light blue puddle labeled &#39;after heating&#39;</text>
</g>
<!-- n1&#45;&gt;n3 -->
<g id="edge2" class="edge">
<title>n1&#45;&gt;n3</title>
<path fill="none" stroke="black" d="M613.58,-365.81C585.77,-344.96 538.78,-309.71 507.7,-286.4"/>
<polygon fill="black" stroke="black" points="509.48,-283.36 499.38,-280.16 505.28,-288.96 509.48,-283.36"/>
</g>
<!-- n4 -->
<g id="node4" class="node">
<title>n4</title>
<polygon fill="#fffdd0" stroke="black" points="954.5,-280 682.5,-280 682.5,-244 954.5,-244 954.5,-280"/>
<text text-anchor="middle" x="818.5" y="-258.3" font-family="Arial" font-size="14.00">Small blue ice cubes labeled &#39;after cooling&#39;</text>
</g>
<!-- n1&#45;&gt;n4 -->
<g id="edge3" class="edge">
<title>n1&#45;&gt;n4</title>
<path fill="none" stroke="black" d="M662.58,-365.81C694.47,-344.78 748.57,-309.11 783.92,-285.8"/>
<polygon fill="black" stroke="black" points="786.05,-288.59 792.47,-280.16 782.2,-282.74 786.05,-288.59"/>
</g>
<!-- n5 -->
<g id="node5" class="node">
<title>n5</title>
<polygon fill="#fffdd0" stroke="black" points="1356.5,-280 1068.5,-280 1068.5,-244 1356.5,-244 1356.5,-280"/>
<text text-anchor="middle" x="1212.5" y="-258.3" font-family="Arial" font-size="14.00">Arrows between stages, not a complete cycle</text>
</g>
<!-- n1&#45;&gt;n5 -->
<g id="edge4" class="edge">
<title>n1&#45;&gt;n5</title>
<path fill="none" stroke="black" d="M718.11,-366C824.45,-343.84 1009.9,-305.21 1120.9,-282.08"/>
<polygon fill="black" stroke="black" points="1121.72,-285.49 1130.8,-280.03 1120.3,-278.63 1121.72,-285.49"/>
</g>
<!-- n6 -->
<g id="node6" class="node">
<title>n6</title>
<path fill="palegreen" stroke="black" d="M263,-158C263,-158 12,-158 12,-158 6,-158 0,-152 0,-146 0,-146 0,-134 0,-134 0,-128 6,-122 12,-122 12,-122 263,-122 263,-122 269,-122 275,-128 275,-134 275,-134 275,-146 275,-146 275,-152 269,-158 263,-158"/>
<text text-anchor="middle" x="137.5" y="-136.3" font-family="Arial" font-size="14.00">Understands initial state: ice before heating</text>
</g>
<!-- n2&#45;&gt;n6 -->
<g id="edge5" class="edge">
<title>n2&#45;&gt;n6</title>
<path fill="none" stroke="black" d="M154.63,-243.81C151.34,-224.02 145.88,-191.29 142.01,-168.08"/>
<polygon fill="black" stroke="black" points="145.45,-167.45 140.36,-158.16 138.55,-168.6 145.45,-167.45"/>
</g>
<!-- n7 -->
<g id="node7" class="node">
<title>n7</title>
<path fill="palegreen" stroke="black" d="M586,-158C586,-158 345,-158 345,-158 339,-158 333,-152 333,-146 333,-146 333,-134 333,-134 333,-128 339,-122 345,-122 345,-122 586,-122 586,-122 592,-122 598,-128 598,-134 598,-134 598,-146 598,-146 598,-152 592,-158 586,-158"/>
<text text-anchor="middle" x="465.5" y="-136.3" font-family="Arial" font-size="14.00">Understands change: ice melts into water</text>
</g>
<!-- n3&#45;&gt;n7 -->
<g id="edge6" class="edge">
<title>n3&#45;&gt;n7</title>
<path fill="none" stroke="black" d="M474.92,-243.81C473.12,-224.11 470.14,-191.58 468.01,-168.39"/>
<polygon fill="black" stroke="black" points="471.47,-167.8 467.07,-158.16 464.5,-168.44 471.47,-167.8"/>
</g>
<!-- n8 -->
<g id="node8" class="node">
<title>n8</title>
<path fill="palegreen" stroke="black" d="M991,-158C991,-158 668,-158 668,-158 662,-158 656,-152 656,-146 656,-146 656,-134 656,-134 656,-128 662,-122 668,-122 668,-122 991,-122 991,-122 997,-122 1003,-128 1003,-134 1003,-134 1003,-146 1003,-146 1003,-152 997,-158 991,-158"/>
<text text-anchor="middle" x="829.5" y="-136.3" font-family="Arial" font-size="14.00">Understands reverse change: water freezes back to ice</text>
</g>
<!-- n4&#45;&gt;n8 -->
<g id="edge7" class="edge">
<title>n4&#45;&gt;n8</title>
<path fill="none" stroke="black" d="M820.08,-243.81C821.88,-224.11 824.86,-191.58 826.99,-168.39"/>
<polygon fill="black" stroke="black" points="830.5,-168.44 827.93,-158.16 823.53,-167.8 830.5,-168.44"/>
</g>
<!-- n9 -->
<g id="node9" class="node">
<title>n9</title>
<polygon fill="lightcoral" stroke="black" points="1258.5,-158 1060.76,-140 1258.5,-122 1456.24,-140 1258.5,-158"/>
<text text-anchor="middle" x="1258.5" y="-136.3" font-family="Arial" font-size="14.00">Misses cyclical nature of process</text>
</g>
<!-- n5&#45;&gt;n9 -->
<g id="edge8" class="edge">
<title>n5&#45;&gt;n9</title>
<path fill="none" stroke="black" d="M1219.1,-243.81C1226.8,-223.82 1239.5,-190.62 1248.4,-167.37"/>
<polygon fill="black" stroke="black" points="1251.77,-168.36 1252.1,-157.77 1245.24,-165.84 1251.77,-168.36"/>
</g>
<!-- n10 -->
<g id="node10" class="node">
<title>n10</title>
<polygon fill="#f28e8e" stroke="black" points="1433.5,-36 1083.5,-36 1083.5,0 1433.5,0 1433.5,-36"/>
<text text-anchor="middle" x="1258.5" y="-14.3" font-family="Arial" font-size="14.00">Draw a complete cycle with arrows showing reversibility</text>
</g>
<!-- n9&#45;&gt;n10 -->
<g id="edge9" class="edge">
<title>n9&#45;&gt;n10</title>
<path fill="none" stroke="black" d="M1258.5,-121.81C1258.5,-102.11 1258.5,-69.58 1258.5,-46.39"/>
<polygon fill="black" stroke="black" points="1262,-46.16 1258.5,-36.16 1255,-46.16 1262,-46.16"/>
</g>
</g>
</svg>
