<?xml version="1.0" encoding="UTF-8" standalone="no"?>
<!DOCTYPE svg PUBLIC "-//W3C//DTD SVG 1.1//EN"
 "http://www.w3.org/Graphics/SVG/1.1/DTD/svg11.dtd">
<!-- Generated by graphviz version 2.43.0 (0)
 -->
<!-- Pages: 1 -->
<svg width="1581pt" height="410pt"
 viewBox="0.00 0.00 1580.50 410.00" xmlns="http://www.w3.org/2000/svg" xmlns:xlink="http://www.w3.org/1999/xlink">
<g id="graph0" class="graph" transform="scale(1 1) rotate(0) translate(4 406)">
<polygon fill="white" stroke="transparent" points="-4,4 -4,-406 1576.5,-406 1576.5,4 -4,4"/>
<!-- n1 -->
<g id="node1" class="node">
<title>n1</title>
<polygon fill="lightblue" stroke="black" points="954.25,-384 861.13,-402 674.89,-402 581.77,-384 674.89,-366 861.13,-366 954.25,-384"/>
<text text-anchor="middle" x="768.01" y="-380.3" font-family="Arial" font-size="14.00">Illustrate plants with and without water.</text>
</g>
<!-- n2 -->
<g id="node2" class="node">
<title>n2</title>
<polygon fill="#fffdd0" stroke="black" points="442.01,-280 286.01,-280 286.01,-244 442.01,-244 442.01,-280"/>
<text text-anchor="middle" x="364.01" y="-258.3" font-family="Arial" font-size="14.00">Two plants side by side</text>
</g>
<!-- n1&#45;&gt;n2 -->
<g id="edge1" class="edge">
<title>n1&#45;&gt;n2</title>
<path fill="none" stroke="black" d="M710.56,-365.93C636.81,-344.03 509.09,-306.09 431.01,-282.9"/>
<polygon fill="black" stroke="black" points="431.85,-279.5 421.27,-280.01 429.86,-286.21 431.85,-279.5"/>
</g>
<!-- n3 -->
<g id="node3" class="node">
<title>n3</title>
<polygon fill="#fffdd0" stroke="black" points="922.01,-280 614.01,-280 614.01,-244 922.01,-244 922.01,-280"/>
<text text-anchor="middle" x="768.01" y="-258.3" font-family="Arial" font-size="14.00">Both plants with straight stems and green leaves</text>
</g>
<!-- n1&#45;&gt;n3 -->
<g id="edge2" class="edge">
<title>n1&#45;&gt;n3</title>
<path fill="none" stroke="black" d="M768.01,-365.81C768.01,-346.11 768.01,-313.58 768.01,-290.39"/>
<polygon fill="black" stroke="black" points="771.51,-290.16 768.01,-280.16 764.51,-290.16 771.51,-290.16"/>
</g>
<!-- n4 -->
<g id="node4" class="node">
<title>n4</title>
<polygon fill="#fffdd0" stroke="black" points="1308,-280 1086,-280 1086,-244 1308,-244 1308,-280"/>
<text text-anchor="middle" x="1197" y="-258.3" font-family="Arial" font-size="14.00">Healthy appearance of both plants</text>
</g>
<!-- n1&#45;&gt;n4 -->
<g id="edge3" class="edge">
<title>n1&#45;&gt;n4</title>
<path fill="none" stroke="black" d="M829.02,-365.93C907.49,-343.99 1043.5,-305.94 1126.4,-282.76"/>
<polygon fill="black" stroke="black" points="1127.52,-286.08 1136.2,-280.01 1125.63,-279.34 1127.52,-286.08"/>
</g>
<!-- n5 -->
<g id="node5" class="node">
<title>n5</title>
<polygon fill="lightcoral" stroke="black" points="250.01,-158 -0.01,-140 250.01,-122 500.03,-140 250.01,-158"/>
<text text-anchor="middle" x="250.01" y="-136.3" font-family="Arial" font-size="14.00">Plants need water to maintain vibrant color</text>
</g>
<!-- n2&#45;&gt;n5 -->
<g id="edge4" class="edge">
<title>n2&#45;&gt;n5</title>
<path fill="none" stroke="black" d="M347.68,-243.81C327.88,-222.96 294.41,-187.74 272.26,-164.42"/>
<polygon fill="black" stroke="black" points="274.65,-161.85 265.22,-157.01 269.57,-166.67 274.65,-161.85"/>
</g>
<!-- n6 -->
<g id="node6" class="node">
<title>n6</title>
<polygon fill="lightcoral" stroke="black" points="768.01,-158 558.38,-140 768.01,-122 977.65,-140 768.01,-158"/>
<text text-anchor="middle" x="768.01" y="-136.3" font-family="Arial" font-size="14.00">No wilting or discoloration indicated</text>
</g>
<!-- n3&#45;&gt;n6 -->
<g id="edge5" class="edge">
<title>n3&#45;&gt;n6</title>
<path fill="none" stroke="black" d="M768.01,-243.81C768.01,-224.11 768.01,-191.58 768.01,-168.39"/>
<polygon fill="black" stroke="black" points="771.51,-168.16 768.01,-158.16 764.51,-168.16 771.51,-168.16"/>
</g>
<!-- n7 -->
<g id="node7" class="node">
<title>n7</title>
<polygon fill="lightcoral" stroke="black" points="1304,-158 1035.5,-140 1304,-122 1572.5,-140 1304,-158"/>
<text text-anchor="middle" x="1304" y="-136.3" font-family="Arial" font-size="14.00">Student does not show effects of lack of water</text>
</g>
<!-- n4&#45;&gt;n7 -->
<g id="edge6" class="edge">
<title>n4&#45;&gt;n7</title>
<path fill="none" stroke="black" d="M1212.3,-243.81C1230.7,-223.17 1261.7,-188.43 1282.5,-165.12"/>
<polygon fill="black" stroke="black" points="1285.35,-167.18 1289.4,-157.39 1280.13,-162.52 1285.35,-167.18"/>
</g>
<!-- n8 -->
<g id="node8" class="node">
<title>n8</title>
<polygon fill="#f28e8e" stroke="black" points="383.01,-36 117.01,-36 117.01,0 383.01,0 383.01,-36"/>
<text text-anchor="middle" x="250.01" y="-14.3" font-family="Arial" font-size="14.00">Differentiate plants with and without water</text>
</g>
<!-- n5&#45;&gt;n8 -->
<g id="edge7" class="edge">
<title>n5&#45;&gt;n8</title>
<path fill="none" stroke="black" d="M250.01,-121.81C250.01,-102.11 250.01,-69.58 250.01,-46.39"/>
<polygon fill="black" stroke="black" points="253.51,-46.16 250.01,-36.16 246.51,-46.16 253.51,-46.16"/>
</g>
<!-- n9 -->
<g id="node9" class="node">
<title>n9</title>
<polygon fill="#f28e8e" stroke="black" points="899.01,-36 637.01,-36 637.01,0 899.01,0 899.01,-36"/>
<text text-anchor="middle" x="768.01" y="-14.3" font-family="Arial" font-size="14.00">Show wilting or discoloration for no water</text>
</g>
<!-- n6&#45;&gt;n9 -->
<g id="edge8" class="edge">
<title>n6&#45;&gt;n9</title>
<path fill="none" stroke="black" d="M768.01,-121.81C768.01,-102.11 768.01,-69.58 768.01,-46.39"/>
<polygon fill="black" stroke="black" points="771.51,-46.16 768.01,-36.16 764.51,-46.16 771.51,-46.16"/>
</g>
<!-- n10 -->
<g id="node10" class="node">
<title>n10</title>
<polygon fill="#f28e8e" stroke="black" points="1421,-36 1187,-36 1187,0 1421,0 1421,-36"/>
<text text-anchor="middle" x="1304" y="-14.3" font-family="Arial" font-size="14.00">Use color variation to indicate health</text>
</g>
<!-- n7&#45;&gt;n10 -->
<g id="edge9" class="edge">
<title>n7&#45;&gt;n10</title>
<path fill="none" stroke="black" d="M1304,-121.81C1304,-102.11 1304,-69.58 1304,-46.39"/>
<polygon fill="black" stroke="black" points="1307.5,-46.16 1304,-36.16 1300.5,-46.16 1307.5,-46.16"/>
</g>
</g>
</svg>
