<?xml version="1.0" encoding="UTF-8" standalone="no"?>
<!DOCTYPE svg PUBLIC "-//W3C//DTD SVG 1.1//EN"
 "http://www.w3.org/Graphics/SVG/1.1/DTD/svg11.dtd">
<!-- Generated by graphviz version 2.43.0 (0)
 -->
<!-- Pages: 1 -->
<svg width="1107pt" height="410pt"
 viewBox="0.00 0.00 1106.50 410.00" xmlns="http://www.w3.org/2000/svg" xmlns:xlink="http://www.w3.org/1999/xlink">
<g id="graph0" class="graph" transform="scale(1 1) rotate(0) translate(4 406)">
<polygon fill="white" stroke="transparent" points="-4,4 -4,-406 1102.5,-406 1102.5,4 -4,4"/>
<!-- n1 -->
<g id="node1" class="node">
<title>n1</title>
<polygon fill="lightblue" stroke="black" points="1030,-384 866,-402 538,-402 374,-384 538,-366 866,-366 1030,-384"/>
<text text-anchor="middle" x="702" y="-380.3" font-family="Arial" font-size="14.00">Draw reversible and irreversible changes (ice melting vs. egg cooking)</text>
</g>
<!-- n2 -->
<g id="node2" class="node">
<title>n2</title>
<polygon fill="#fffdd0" stroke="black" points="672,-280 386,-280 386,-244 672,-244 672,-280"/>
<text text-anchor="middle" x="529" y="-258.3" font-family="Arial" font-size="14.00">Ice and Water with Arrows Indicating Change</text>
</g>
<!-- n1&#45;&gt;n2 -->
<g id="edge1" class="edge">
<title>n1&#45;&gt;n2</title>
<path fill="none" stroke="black" d="M677.21,-365.81C647.02,-344.87 595.91,-309.41 562.3,-286.1"/>
<polygon fill="black" stroke="black" points="563.95,-282.99 553.74,-280.16 559.96,-288.74 563.95,-282.99"/>
</g>
<!-- n3 -->
<g id="node3" class="node">
<title>n3</title>
<polygon fill="#fffdd0" stroke="black" points="1058.5,-280 767.5,-280 767.5,-244 1058.5,-244 1058.5,-280"/>
<text text-anchor="middle" x="913" y="-258.3" font-family="Arial" font-size="14.00">Raw Egg and Cooked Egg with Cracked Shell</text>
</g>
<!-- n1&#45;&gt;n3 -->
<g id="edge2" class="edge">
<title>n1&#45;&gt;n3</title>
<path fill="none" stroke="black" d="M732.23,-365.81C769.52,-344.6 832.99,-308.5 873.94,-285.21"/>
<polygon fill="black" stroke="black" points="875.86,-288.15 882.82,-280.16 872.4,-282.06 875.86,-288.15"/>
</g>
<!-- n4 -->
<g id="node4" class="node">
<title>n4</title>
<path fill="palegreen" stroke="black" d="M242,-158C242,-158 12,-158 12,-158 6,-158 0,-152 0,-146 0,-146 0,-134 0,-134 0,-128 6,-122 12,-122 12,-122 242,-122 242,-122 248,-122 254,-128 254,-134 254,-134 254,-146 254,-146 254,-152 248,-158 242,-158"/>
<text text-anchor="middle" x="127" y="-136.3" font-family="Arial" font-size="14.00">Reversible Change (Ice to Water to Ice)</text>
</g>
<!-- n2&#45;&gt;n4 -->
<g id="edge3" class="edge">
<title>n2&#45;&gt;n4</title>
<path fill="none" stroke="black" d="M471.83,-243.93C398.45,-222.03 271.36,-184.09 193.66,-160.9"/>
<polygon fill="black" stroke="black" points="194.55,-157.51 183.97,-158.01 192.55,-164.22 194.55,-157.51"/>
</g>
<!-- n6 -->
<g id="node5" class="node">
<title>n6</title>
<polygon fill="lightcoral" stroke="black" points="529,-158 312,-140 529,-122 746,-140 529,-158"/>
<text text-anchor="middle" x="529" y="-136.3" font-family="Arial" font-size="14.00">Arrows Lack Labels for Heat/Cooling</text>
</g>
<!-- n2&#45;&gt;n6 -->
<g id="edge4" class="edge">
<title>n2&#45;&gt;n6</title>
<path fill="none" stroke="black" d="M529,-243.81C529,-224.11 529,-191.58 529,-168.39"/>
<polygon fill="black" stroke="black" points="532.5,-168.16 529,-158.16 525.5,-168.16 532.5,-168.16"/>
</g>
<!-- n5 -->
<g id="node6" class="node">
<title>n5</title>
<path fill="palegreen" stroke="black" d="M1086.5,-158C1086.5,-158 815.5,-158 815.5,-158 809.5,-158 803.5,-152 803.5,-146 803.5,-146 803.5,-134 803.5,-134 803.5,-128 809.5,-122 815.5,-122 815.5,-122 1086.5,-122 1086.5,-122 1092.5,-122 1098.5,-128 1098.5,-134 1098.5,-134 1098.5,-146 1098.5,-146 1098.5,-152 1092.5,-158 1086.5,-158"/>
<text text-anchor="middle" x="951" y="-136.3" font-family="Arial" font-size="14.00">Irreversible Change (Raw Egg to Cooked Egg)</text>
</g>
<!-- n3&#45;&gt;n5 -->
<g id="edge5" class="edge">
<title>n3&#45;&gt;n5</title>
<path fill="none" stroke="black" d="M918.44,-243.81C924.74,-223.94 935.17,-190.99 942.53,-167.76"/>
<polygon fill="black" stroke="black" points="945.89,-168.75 945.57,-158.16 939.21,-166.64 945.89,-168.75"/>
</g>
<!-- n7 -->
<g id="node7" class="node">
<title>n7</title>
<polygon fill="#f28e8e" stroke="black" points="712,-36 346,-36 346,0 712,0 712,-36"/>
<text text-anchor="middle" x="529" y="-14.3" font-family="Arial" font-size="14.00">Label Arrows with &#39;Heat&#39; or &#39;Cooling&#39; to Reinforce Changes</text>
</g>
<!-- n6&#45;&gt;n7 -->
<g id="edge6" class="edge">
<title>n6&#45;&gt;n7</title>
<path fill="none" stroke="black" d="M529,-121.81C529,-102.11 529,-69.58 529,-46.39"/>
<polygon fill="black" stroke="black" points="532.5,-46.16 529,-36.16 525.5,-46.16 532.5,-46.16"/>
</g>
</g>
</svg>
