<?xml version="1.0" encoding="UTF-8" standalone="no"?>
<!DOCTYPE svg PUBLIC "-//W3C//DTD SVG 1.1//EN"
 "http://www.w3.org/Graphics/SVG/1.1/DTD/svg11.dtd">
<!-- Generated by graphviz version 2.43.0 (0)
 -->
<!-- Pages: 1 -->
<svg width="1397pt" height="532pt"
 viewBox="0.00 0.00 1397.00 532.00" xmlns="http://www.w3.org/2000/svg" xmlns:xlink="http://www.w3.org/1999/xlink">
<g id="graph0" class="graph" transform="scale(1 1) rotate(0) translate(4 528)">
<polygon fill="white" stroke="transparent" points="-4,4 -4,-528 1393,-528 1393,4 -4,4"/>
<!-- n1 -->
<g id="node1" class="node">
<title>n1</title>
<polygon fill="lightblue" stroke="black" points="712,-506 620,-524 436,-524 344,-506 436,-488 620,-488 712,-506"/>
<text text-anchor="middle" x="528" y="-502.3" font-family="Arial" font-size="14.00">Illustrate plants with and without water</text>
</g>
<!-- n2 -->
<g id="node2" class="node">
<title>n2</title>
<polygon fill="#fffdd0" stroke="black" points="691,-402 365,-402 365,-366 691,-366 691,-402"/>
<text text-anchor="middle" x="528" y="-380.3" font-family="Arial" font-size="14.00">Two potted plants: &#39;With Water&#39; and &#39;Without Water&#39;</text>
</g>
<!-- n1&#45;&gt;n2 -->
<g id="edge1" class="edge">
<title>n1&#45;&gt;n2</title>
<path fill="none" stroke="black" d="M528,-487.81C528,-468.11 528,-435.58 528,-412.39"/>
<polygon fill="black" stroke="black" points="531.5,-412.16 528,-402.16 524.5,-412.16 531.5,-412.16"/>
</g>
<!-- n3 -->
<g id="node3" class="node">
<title>n3</title>
<polygon fill="#fffdd0" stroke="black" points="316,-280 44,-280 44,-244 316,-244 316,-280"/>
<text text-anchor="middle" x="180" y="-258.3" font-family="Arial" font-size="14.00">Healthy plant: tall and vibrant green leaves</text>
</g>
<!-- n2&#45;&gt;n3 -->
<g id="edge2" class="edge">
<title>n2&#45;&gt;n3</title>
<path fill="none" stroke="black" d="M478.51,-365.93C415.37,-344.16 306.31,-306.56 238.95,-283.33"/>
<polygon fill="black" stroke="black" points="239.91,-279.96 229.32,-280.01 237.63,-286.58 239.91,-279.96"/>
</g>
<!-- n4 -->
<g id="node4" class="node">
<title>n4</title>
<polygon fill="#fffdd0" stroke="black" points="664.5,-280 391.5,-280 391.5,-244 664.5,-244 664.5,-280"/>
<text text-anchor="middle" x="528" y="-258.3" font-family="Arial" font-size="14.00">Wilting plant: drooping, faded green leaves</text>
</g>
<!-- n2&#45;&gt;n4 -->
<g id="edge3" class="edge">
<title>n2&#45;&gt;n4</title>
<path fill="none" stroke="black" d="M528,-365.81C528,-346.11 528,-313.58 528,-290.39"/>
<polygon fill="black" stroke="black" points="531.5,-290.16 528,-280.16 524.5,-290.16 531.5,-290.16"/>
</g>
<!-- n7 -->
<g id="node5" class="node">
<title>n7</title>
<polygon fill="#fffdd0" stroke="black" points="1017,-280 849,-280 849,-244 1017,-244 1017,-280"/>
<text text-anchor="middle" x="933" y="-258.3" font-family="Arial" font-size="14.00">Roots appear unchanged</text>
</g>
<!-- n2&#45;&gt;n7 -->
<g id="edge4" class="edge">
<title>n2&#45;&gt;n7</title>
<path fill="none" stroke="black" d="M585.6,-365.93C659.52,-344.03 787.56,-306.09 865.84,-282.9"/>
<polygon fill="black" stroke="black" points="867.01,-286.21 875.6,-280.01 865.02,-279.49 867.01,-286.21"/>
</g>
<!-- n5 -->
<g id="node6" class="node">
<title>n5</title>
<path fill="palegreen" stroke="black" d="M314,-158C314,-158 12,-158 12,-158 6,-158 0,-152 0,-146 0,-146 0,-134 0,-134 0,-128 6,-122 12,-122 12,-122 314,-122 314,-122 320,-122 326,-128 326,-134 326,-134 326,-146 326,-146 326,-152 320,-158 314,-158"/>
<text text-anchor="middle" x="163" y="-136.3" font-family="Arial" font-size="14.00">Student understands healthy plant grows with water</text>
</g>
<!-- n3&#45;&gt;n5 -->
<g id="edge5" class="edge">
<title>n3&#45;&gt;n5</title>
<path fill="none" stroke="black" d="M177.56,-243.81C174.76,-224.02 170.12,-191.29 166.84,-168.08"/>
<polygon fill="black" stroke="black" points="170.3,-167.57 165.43,-158.16 163.37,-168.55 170.3,-167.57"/>
</g>
<!-- n6 -->
<g id="node7" class="node">
<title>n6</title>
<path fill="palegreen" stroke="black" d="M659.5,-158C659.5,-158 396.5,-158 396.5,-158 390.5,-158 384.5,-152 384.5,-146 384.5,-146 384.5,-134 384.5,-134 384.5,-128 390.5,-122 396.5,-122 396.5,-122 659.5,-122 659.5,-122 665.5,-122 671.5,-128 671.5,-134 671.5,-134 671.5,-146 671.5,-146 671.5,-152 665.5,-158 659.5,-158"/>
<text text-anchor="middle" x="528" y="-136.3" font-family="Arial" font-size="14.00">Student understands plants wilt without water</text>
</g>
<!-- n4&#45;&gt;n6 -->
<g id="edge6" class="edge">
<title>n4&#45;&gt;n6</title>
<path fill="none" stroke="black" d="M528,-243.81C528,-224.11 528,-191.58 528,-168.39"/>
<polygon fill="black" stroke="black" points="531.5,-168.16 528,-158.16 524.5,-168.16 531.5,-168.16"/>
</g>
<!-- n8 -->
<g id="node8" class="node">
<title>n8</title>
<polygon fill="lightcoral" stroke="black" points="1059,-158 729,-140 1059,-122 1389,-140 1059,-158"/>
<text text-anchor="middle" x="1059" y="-136.3" font-family="Arial" font-size="14.00">Misconception: Difficulty showing long&#45;term root changes</text>
</g>
<!-- n7&#45;&gt;n8 -->
<g id="edge7" class="edge">
<title>n7&#45;&gt;n8</title>
<path fill="none" stroke="black" d="M951.05,-243.81C972.91,-222.99 1009.8,-187.82 1034.3,-164.51"/>
<polygon fill="black" stroke="black" points="1036.96,-166.81 1041.8,-157.39 1032.14,-161.74 1036.96,-166.81"/>
</g>
<!-- n9 -->
<g id="node9" class="node">
<title>n9</title>
<polygon fill="#f28e8e" stroke="black" points="1225,-36 893,-36 893,0 1225,0 1225,-36"/>
<text text-anchor="middle" x="1059" y="-14.3" font-family="Arial" font-size="14.00">Provide guidance on illustrating root health over time</text>
</g>
<!-- n8&#45;&gt;n9 -->
<g id="edge8" class="edge">
<title>n8&#45;&gt;n9</title>
<path fill="none" stroke="black" d="M1059,-121.81C1059,-102.11 1059,-69.58 1059,-46.39"/>
<polygon fill="black" stroke="black" points="1062.5,-46.16 1059,-36.16 1055.5,-46.16 1062.5,-46.16"/>
</g>
</g>
</svg>
