<?xml version="1.0" encoding="UTF-8" standalone="no"?>
<!DOCTYPE svg PUBLIC "-//W3C//DTD SVG 1.1//EN"
 "http://www.w3.org/Graphics/SVG/1.1/DTD/svg11.dtd">
<!-- Generated by graphviz version 2.43.0 (0)
 -->
<!-- Pages: 1 -->
<svg width="1868pt" height="410pt"
 viewBox="0.00 0.00 1868.00 410.00" xmlns="http://www.w3.org/2000/svg" xmlns:xlink="http://www.w3.org/1999/xlink">
<g id="graph0" class="graph" transform="scale(1 1) rotate(0) translate(4 406)">
<polygon fill="white" stroke="transparent" points="-4,4 -4,-406 1864,-406 1864,4 -4,4"/>
<!-- n1 -->
<g id="node1" class="node">
<title>n1</title>
<polygon fill="lightblue" stroke="black" points="883,-384 769.25,-402 541.75,-402 428,-384 541.75,-366 769.25,-366 883,-384"/>
<text text-anchor="middle" x="655.5" y="-380.3" font-family="Arial" font-size="14.00">Illustrate plants with and without water and light.</text>
</g>
<!-- n2 -->
<g id="node2" class="node">
<title>n2</title>
<polygon fill="#fffdd0" stroke="black" points="408,-280 159,-280 159,-244 408,-244 408,-280"/>
<text text-anchor="middle" x="283.5" y="-258.3" font-family="Arial" font-size="14.00">Healthy plant with bigger green leaves.</text>
</g>
<!-- n1&#45;&gt;n2 -->
<g id="edge1" class="edge">
<title>n1&#45;&gt;n2</title>
<path fill="none" stroke="black" d="M602.6,-365.93C534.97,-344.12 418.04,-306.4 346.07,-283.18"/>
<polygon fill="black" stroke="black" points="346.81,-279.74 336.22,-280.01 344.67,-286.41 346.81,-279.74"/>
</g>
<!-- n3 -->
<g id="node3" class="node">
<title>n3</title>
<polygon fill="#fffdd0" stroke="black" points="828.5,-280 482.5,-280 482.5,-244 828.5,-244 828.5,-280"/>
<text text-anchor="middle" x="655.5" y="-258.3" font-family="Arial" font-size="14.00">Plant without water, drooping with brown&#45;tipped leaves.</text>
</g>
<!-- n1&#45;&gt;n3 -->
<g id="edge2" class="edge">
<title>n1&#45;&gt;n3</title>
<path fill="none" stroke="black" d="M655.5,-365.81C655.5,-346.11 655.5,-313.58 655.5,-290.39"/>
<polygon fill="black" stroke="black" points="659,-290.16 655.5,-280.16 652,-290.16 659,-290.16"/>
</g>
<!-- n4 -->
<g id="node4" class="node">
<title>n4</title>
<polygon fill="#fffdd0" stroke="black" points="1305.5,-280 961.5,-280 961.5,-244 1305.5,-244 1305.5,-280"/>
<text text-anchor="middle" x="1133.5" y="-258.3" font-family="Arial" font-size="14.00">Plant without sunlight, leaning with small green leaves.</text>
</g>
<!-- n1&#45;&gt;n4 -->
<g id="edge3" class="edge">
<title>n1&#45;&gt;n4</title>
<path fill="none" stroke="black" d="M723.22,-366C810.94,-343.98 963.51,-305.68 1055.8,-282.5"/>
<polygon fill="black" stroke="black" points="1056.84,-285.85 1065.7,-280.03 1055.15,-279.05 1056.84,-285.85"/>
</g>
<!-- n5 -->
<g id="node5" class="node">
<title>n5</title>
<path fill="palegreen" stroke="black" d="M375,-158C375,-158 12,-158 12,-158 6,-158 0,-152 0,-146 0,-146 0,-134 0,-134 0,-128 6,-122 12,-122 12,-122 375,-122 375,-122 381,-122 387,-128 387,-134 387,-134 387,-146 387,-146 387,-152 381,-158 375,-158"/>
<text text-anchor="middle" x="193.5" y="-136.3" font-family="Arial" font-size="14.00">Understands a healthy plant has adequate water and sunlight.</text>
</g>
<!-- n2&#45;&gt;n5 -->
<g id="edge4" class="edge">
<title>n2&#45;&gt;n5</title>
<path fill="none" stroke="black" d="M270.61,-243.81C255.37,-223.49 229.88,-189.51 212.41,-166.21"/>
<polygon fill="black" stroke="black" points="215.17,-164.06 206.37,-158.16 209.57,-168.26 215.17,-164.06"/>
</g>
<!-- n6 -->
<g id="node6" class="node">
<title>n6</title>
<path fill="palegreen" stroke="black" d="M706,-158C706,-158 457,-158 457,-158 451,-158 445,-152 445,-146 445,-146 445,-134 445,-134 445,-128 451,-122 457,-122 457,-122 706,-122 706,-122 712,-122 718,-128 718,-134 718,-134 718,-146 718,-146 718,-152 712,-158 706,-158"/>
<text text-anchor="middle" x="581.5" y="-136.3" font-family="Arial" font-size="14.00">Recognizes lack of water causes drooping.</text>
</g>
<!-- n3&#45;&gt;n6 -->
<g id="edge5" class="edge">
<title>n3&#45;&gt;n6</title>
<path fill="none" stroke="black" d="M644.9,-243.81C632.48,-223.67 611.78,-190.1 597.43,-166.83"/>
<polygon fill="black" stroke="black" points="600.31,-164.83 592.08,-158.16 594.35,-168.51 600.31,-164.83"/>
</g>
<!-- n8 -->
<g id="node7" class="node">
<title>n8</title>
<polygon fill="lightcoral" stroke="black" points="1133.5,-158 775.9,-140 1133.5,-122 1491.1,-140 1133.5,-158"/>
<text text-anchor="middle" x="1133.5" y="-136.3" font-family="Arial" font-size="14.00">Struggles to differentiate effects of water vs. sunlight shortage.</text>
</g>
<!-- n3&#45;&gt;n8 -->
<g id="edge6" class="edge">
<title>n3&#45;&gt;n8</title>
<path fill="none" stroke="black" d="M723.22,-244C814.58,-221.06 976.26,-180.47 1067,-157.7"/>
<polygon fill="black" stroke="black" points="1068.06,-161.04 1076.9,-155.21 1066.35,-154.25 1068.06,-161.04"/>
</g>
<!-- n4&#45;&gt;n8 -->
<g id="edge7" class="edge">
<title>n4&#45;&gt;n8</title>
<path fill="none" stroke="black" d="M1133.5,-243.81C1133.5,-224.11 1133.5,-191.58 1133.5,-168.39"/>
<polygon fill="black" stroke="black" points="1137,-168.16 1133.5,-158.16 1130,-168.16 1137,-168.16"/>
</g>
<!-- n7 -->
<g id="node8" class="node">
<title>n7</title>
<path fill="palegreen" stroke="black" d="M1848,-158C1848,-158 1561,-158 1561,-158 1555,-158 1549,-152 1549,-146 1549,-146 1549,-134 1549,-134 1549,-128 1555,-122 1561,-122 1561,-122 1848,-122 1848,-122 1854,-122 1860,-128 1860,-134 1860,-134 1860,-146 1860,-146 1860,-152 1854,-158 1848,-158"/>
<text text-anchor="middle" x="1704.5" y="-136.3" font-family="Arial" font-size="14.00">Understands lack of sunlight affects plant growth.</text>
</g>
<!-- n4&#45;&gt;n7 -->
<g id="edge8" class="edge">
<title>n4&#45;&gt;n7</title>
<path fill="none" stroke="black" d="M1214.4,-244C1319.7,-221.87 1503.3,-183.29 1613.4,-160.15"/>
<polygon fill="black" stroke="black" points="1614.43,-163.51 1623.5,-158.03 1612.99,-156.66 1614.43,-163.51"/>
</g>
<!-- n9 -->
<g id="node9" class="node">
<title>n9</title>
<polygon fill="#f28e8e" stroke="black" points="1342.5,-36 924.5,-36 924.5,0 1342.5,0 1342.5,-36"/>
<text text-anchor="middle" x="1133.5" y="-14.3" font-family="Arial" font-size="14.00">Illustrate distinct differences between water and sunlight shortages.</text>
</g>
<!-- n8&#45;&gt;n9 -->
<g id="edge9" class="edge">
<title>n8&#45;&gt;n9</title>
<path fill="none" stroke="black" d="M1133.5,-121.81C1133.5,-102.11 1133.5,-69.58 1133.5,-46.39"/>
<polygon fill="black" stroke="black" points="1137,-46.16 1133.5,-36.16 1130,-46.16 1137,-46.16"/>
</g>
</g>
</svg>
