<?xml version="1.0" encoding="UTF-8" standalone="no"?>
<!DOCTYPE svg PUBLIC "-//W3C//DTD SVG 1.1//EN"
 "http://www.w3.org/Graphics/SVG/1.1/DTD/svg11.dtd">
<!-- Generated by graphviz version 2.43.0 (0)
 -->
<!-- Pages: 1 -->
<svg width="1172pt" height="410pt"
 viewBox="0.00 0.00 1171.50 410.00" xmlns="http://www.w3.org/2000/svg" xmlns:xlink="http://www.w3.org/1999/xlink">
<g id="graph0" class="graph" transform="scale(1 1) rotate(0) translate(4 406)">
<polygon fill="white" stroke="transparent" points="-4,4 -4,-406 1167.5,-406 1167.5,4 -4,4"/>
<!-- n1 -->
<g id="node1" class="node">
<title>n1</title>
<polygon fill="lightblue" stroke="black" points="398,-384 306.75,-402 124.25,-402 33,-384 124.25,-366 306.75,-366 398,-384"/>
<text text-anchor="middle" x="215.5" y="-380.3" font-family="Arial" font-size="14.00">Draw a fish in their habitat with labels.</text>
</g>
<!-- n2 -->
<g id="node2" class="node">
<title>n2</title>
<polygon fill="#fffdd0" stroke="black" points="138.5,-280 4.5,-280 4.5,-244 138.5,-244 138.5,-280"/>
<text text-anchor="middle" x="71.5" y="-258.3" font-family="Arial" font-size="14.00">A simple fish shape</text>
</g>
<!-- n1&#45;&gt;n2 -->
<g id="edge1" class="edge">
<title>n1&#45;&gt;n2</title>
<path fill="none" stroke="black" d="M194.87,-365.81C169.95,-345.04 127.91,-310.01 99.94,-286.7"/>
<polygon fill="black" stroke="black" points="102.02,-283.87 92.09,-280.16 97.53,-289.25 102.02,-283.87"/>
</g>
<!-- n3 -->
<g id="node3" class="node">
<title>n3</title>
<polygon fill="#fffdd0" stroke="black" points="524.5,-280 196.5,-280 196.5,-244 524.5,-244 524.5,-280"/>
<text text-anchor="middle" x="360.5" y="-258.3" font-family="Arial" font-size="14.00">Water represented by wavy blue lines labeled &#39;Lake&#39;</text>
</g>
<!-- n1&#45;&gt;n3 -->
<g id="edge2" class="edge">
<title>n1&#45;&gt;n3</title>
<path fill="none" stroke="black" d="M236.27,-365.81C261.36,-345.04 303.69,-310.01 331.87,-286.7"/>
<polygon fill="black" stroke="black" points="334.29,-289.24 339.76,-280.16 329.83,-283.85 334.29,-289.24"/>
</g>
<!-- n4 -->
<g id="node4" class="node">
<title>n4</title>
<path fill="palegreen" stroke="black" d="M131,-158C131,-158 12,-158 12,-158 6,-158 0,-152 0,-146 0,-146 0,-134 0,-134 0,-128 6,-122 12,-122 12,-122 131,-122 131,-122 137,-122 143,-128 143,-134 143,-134 143,-146 143,-146 143,-152 137,-158 131,-158"/>
<text text-anchor="middle" x="71.5" y="-136.3" font-family="Arial" font-size="14.00">Fish can live in water</text>
</g>
<!-- n2&#45;&gt;n4 -->
<g id="edge3" class="edge">
<title>n2&#45;&gt;n4</title>
<path fill="none" stroke="black" d="M71.5,-243.81C71.5,-224.11 71.5,-191.58 71.5,-168.39"/>
<polygon fill="black" stroke="black" points="75,-168.16 71.5,-158.16 68,-168.16 75,-168.16"/>
</g>
<!-- n5 -->
<g id="node5" class="node">
<title>n5</title>
<path fill="palegreen" stroke="black" d="M397.5,-158C397.5,-158 249.5,-158 249.5,-158 243.5,-158 237.5,-152 237.5,-146 237.5,-146 237.5,-134 237.5,-134 237.5,-128 243.5,-122 249.5,-122 249.5,-122 397.5,-122 397.5,-122 403.5,-122 409.5,-128 409.5,-134 409.5,-134 409.5,-146 409.5,-146 409.5,-152 403.5,-158 397.5,-158"/>
<text text-anchor="middle" x="323.5" y="-136.3" font-family="Arial" font-size="14.00">Identifies &#39;Lake&#39; as habitat</text>
</g>
<!-- n3&#45;&gt;n5 -->
<g id="edge4" class="edge">
<title>n3&#45;&gt;n5</title>
<path fill="none" stroke="black" d="M355.2,-243.81C349.07,-223.94 338.91,-190.99 331.75,-167.76"/>
<polygon fill="black" stroke="black" points="335.08,-166.68 328.79,-158.16 328.39,-168.75 335.08,-166.68"/>
</g>
<!-- n6 -->
<g id="node6" class="node">
<title>n6</title>
<polygon fill="lightcoral" stroke="black" points="769.5,-158 467,-140 769.5,-122 1072,-140 769.5,-158"/>
<text text-anchor="middle" x="769.5" y="-136.3" font-family="Arial" font-size="14.00">Incomplete understanding of fish habitat interactions</text>
</g>
<!-- n3&#45;&gt;n6 -->
<g id="edge5" class="edge">
<title>n3&#45;&gt;n6</title>
<path fill="none" stroke="black" d="M418.67,-243.93C496.5,-221.1 633.71,-180.84 711.47,-158.02"/>
<polygon fill="black" stroke="black" points="712.5,-161.36 721.12,-155.2 710.54,-154.65 712.5,-161.36"/>
</g>
<!-- n7 -->
<g id="node7" class="node">
<title>n7</title>
<polygon fill="#f28e8e" stroke="black" points="731,-36 392,-36 392,0 731,0 731,-36"/>
<text text-anchor="middle" x="561.5" y="-14.3" font-family="Arial" font-size="14.00">Draw and label other plants and animals in the habitat</text>
</g>
<!-- n6&#45;&gt;n7 -->
<g id="edge6" class="edge">
<title>n6&#45;&gt;n7</title>
<path fill="none" stroke="black" d="M742.73,-123.56C706.44,-102.62 641.42,-65.11 599.92,-41.16"/>
<polygon fill="black" stroke="black" points="601.59,-38.09 591.18,-36.13 598.1,-44.15 601.59,-38.09"/>
</g>
<!-- n8 -->
<g id="node8" class="node">
<title>n8</title>
<polygon fill="#f28e8e" stroke="black" points="1163.5,-36 789.5,-36 789.5,0 1163.5,0 1163.5,-36"/>
<text text-anchor="middle" x="976.5" y="-14.3" font-family="Arial" font-size="14.00">Illustrate interactions and relationships in the habitat system</text>
</g>
<!-- n6&#45;&gt;n8 -->
<g id="edge7" class="edge">
<title>n6&#45;&gt;n8</title>
<path fill="none" stroke="black" d="M796.14,-123.56C832.25,-102.62 896.97,-65.11 938.27,-41.16"/>
<polygon fill="black" stroke="black" points="940.06,-44.17 946.96,-36.13 936.55,-38.11 940.06,-44.17"/>
</g>
</g>
</svg>
