<?xml version="1.0" encoding="UTF-8" standalone="no"?>
<!DOCTYPE svg PUBLIC "-//W3C//DTD SVG 1.1//EN"
 "http://www.w3.org/Graphics/SVG/1.1/DTD/svg11.dtd">
<!-- Generated by graphviz version 2.43.0 (0)
 -->
<!-- Pages: 1 -->
<svg width="1145pt" height="288pt"
 viewBox="0.00 0.00 1145.00 288.00" xmlns="http://www.w3.org/2000/svg" xmlns:xlink="http://www.w3.org/1999/xlink">
<g id="graph0" class="graph" transform="scale(1 1) rotate(0) translate(4 284)">
<polygon fill="white" stroke="transparent" points="-4,4 -4,-284 1141,-284 1141,4 -4,4"/>
<!-- n1 -->
<g id="node1" class="node">
<title>n1</title>
<polygon fill="lightblue" stroke="black" points="826,-262 712.25,-280 484.75,-280 371,-262 484.75,-244 712.25,-244 826,-262"/>
<text text-anchor="middle" x="598.5" y="-258.3" font-family="Arial" font-size="14.00">Illustrate plants with and without water and light.</text>
</g>
<!-- n2 -->
<g id="node2" class="node">
<title>n2</title>
<polygon fill="#fffdd0" stroke="black" points="342.5,-158 94.5,-158 94.5,-122 342.5,-122 342.5,-158"/>
<text text-anchor="middle" x="218.5" y="-136.3" font-family="Arial" font-size="14.00">Healthy plant with vibrant green leaves</text>
</g>
<!-- n1&#45;&gt;n2 -->
<g id="edge1" class="edge">
<title>n1&#45;&gt;n2</title>
<path fill="none" stroke="black" d="M544.46,-243.93C475.24,-222.07 355.45,-184.25 281.96,-161.04"/>
<polygon fill="black" stroke="black" points="282.94,-157.68 272.35,-158.01 280.83,-164.36 282.94,-157.68"/>
</g>
<!-- n3 -->
<g id="node3" class="node">
<title>n3</title>
<polygon fill="#fffdd0" stroke="black" points="763,-158 434,-158 434,-122 763,-122 763,-158"/>
<text text-anchor="middle" x="598.5" y="-136.3" font-family="Arial" font-size="14.00">Unhealthy plant with droopy, browning&#45;edged leaves</text>
</g>
<!-- n1&#45;&gt;n3 -->
<g id="edge2" class="edge">
<title>n1&#45;&gt;n3</title>
<path fill="none" stroke="black" d="M598.5,-243.81C598.5,-224.11 598.5,-191.58 598.5,-168.39"/>
<polygon fill="black" stroke="black" points="602,-168.16 598.5,-158.16 595,-168.16 602,-168.16"/>
</g>
<!-- n4 -->
<g id="node4" class="node">
<title>n4</title>
<polygon fill="#fffdd0" stroke="black" points="1117,-158 830,-158 830,-122 1117,-122 1117,-158"/>
<text text-anchor="middle" x="973.5" y="-136.3" font-family="Arial" font-size="14.00">Plant with pale yellow leaves and little growth</text>
</g>
<!-- n1&#45;&gt;n4 -->
<g id="edge3" class="edge">
<title>n1&#45;&gt;n4</title>
<path fill="none" stroke="black" d="M651.83,-243.93C720,-222.12 837.87,-184.4 910.43,-161.18"/>
<polygon fill="black" stroke="black" points="911.89,-164.39 920.35,-158.01 909.76,-157.72 911.89,-164.39"/>
</g>
<!-- n5 -->
<g id="node5" class="node">
<title>n5</title>
<path fill="palegreen" stroke="black" d="M357,-36C357,-36 12,-36 12,-36 6,-36 0,-30 0,-24 0,-24 0,-12 0,-12 0,-6 6,0 12,0 12,0 357,0 357,0 363,0 369,-6 369,-12 369,-12 369,-24 369,-24 369,-30 363,-36 357,-36"/>
<text text-anchor="middle" x="184.5" y="-14.3" font-family="Arial" font-size="14.00">Understanding of plant health with sufficient water and light</text>
</g>
<!-- n2&#45;&gt;n5 -->
<g id="edge4" class="edge">
<title>n2&#45;&gt;n5</title>
<path fill="none" stroke="black" d="M213.63,-121.81C208.02,-102.02 198.75,-69.29 192.17,-46.08"/>
<polygon fill="black" stroke="black" points="195.45,-44.83 189.36,-36.16 188.72,-46.74 195.45,-44.83"/>
</g>
<!-- n6 -->
<g id="node6" class="node">
<title>n6</title>
<path fill="palegreen" stroke="black" d="M757.5,-36C757.5,-36 439.5,-36 439.5,-36 433.5,-36 427.5,-30 427.5,-24 427.5,-24 427.5,-12 427.5,-12 427.5,-6 433.5,0 439.5,0 439.5,0 757.5,0 757.5,0 763.5,0 769.5,-6 769.5,-12 769.5,-12 769.5,-24 769.5,-24 769.5,-30 763.5,-36 757.5,-36"/>
<text text-anchor="middle" x="598.5" y="-14.3" font-family="Arial" font-size="14.00">Understanding of plant condition with insufficient water</text>
</g>
<!-- n3&#45;&gt;n6 -->
<g id="edge5" class="edge">
<title>n3&#45;&gt;n6</title>
<path fill="none" stroke="black" d="M598.5,-121.81C598.5,-102.11 598.5,-69.58 598.5,-46.39"/>
<polygon fill="black" stroke="black" points="602,-46.16 598.5,-36.16 595,-46.16 602,-46.16"/>
</g>
<!-- n7 -->
<g id="node7" class="node">
<title>n7</title>
<path fill="palegreen" stroke="black" d="M1125,-36C1125,-36 840,-36 840,-36 834,-36 828,-30 828,-24 828,-24 828,-12 828,-12 828,-6 834,0 840,0 840,0 1125,0 1125,0 1131,0 1137,-6 1137,-12 1137,-12 1137,-24 1137,-24 1137,-30 1131,-36 1125,-36"/>
<text text-anchor="middle" x="982.5" y="-14.3" font-family="Arial" font-size="14.00">Understanding of plant condition with lack of light</text>
</g>
<!-- n4&#45;&gt;n7 -->
<g id="edge6" class="edge">
<title>n4&#45;&gt;n7</title>
<path fill="none" stroke="black" d="M974.79,-121.81C976.27,-102.11 978.71,-69.58 980.45,-46.39"/>
<polygon fill="black" stroke="black" points="983.96,-46.39 981.21,-36.16 976.98,-45.87 983.96,-46.39"/>
</g>
</g>
</svg>
