<?xml version="1.0" encoding="UTF-8" standalone="no"?>
<!DOCTYPE svg PUBLIC "-//W3C//DTD SVG 1.1//EN"
 "http://www.w3.org/Graphics/SVG/1.1/DTD/svg11.dtd">
<!-- Generated by graphviz version 2.43.0 (0)
 -->
<!-- Pages: 1 -->
<svg width="908pt" height="410pt"
 viewBox="0.00 0.00 907.51 410.00" xmlns="http://www.w3.org/2000/svg" xmlns:xlink="http://www.w3.org/1999/xlink">
<g id="graph0" class="graph" transform="scale(1 1) rotate(0) translate(4 406)">
<polygon fill="white" stroke="transparent" points="-4,4 -4,-406 903.51,-406 903.51,4 -4,4"/>
<!-- n1 -->
<g id="node1" class="node">
<title>n1</title>
<polygon fill="lightblue" stroke="black" points="670,-384 539.75,-402 279.25,-402 149,-384 279.25,-366 539.75,-366 670,-384"/>
<text text-anchor="middle" x="409.5" y="-380.3" font-family="Arial" font-size="14.00">Draw two habitats and the different living things in each</text>
</g>
<!-- n2 -->
<g id="node2" class="node">
<title>n2</title>
<polygon fill="#fffdd0" stroke="black" points="373.5,-280 67.5,-280 67.5,-244 373.5,-244 373.5,-280"/>
<text text-anchor="middle" x="220.5" y="-258.3" font-family="Arial" font-size="14.00">Left habitat with trees and simple animal shapes</text>
</g>
<!-- n1&#45;&gt;n2 -->
<g id="edge1" class="edge">
<title>n1&#45;&gt;n2</title>
<path fill="none" stroke="black" d="M382.42,-365.81C349.3,-344.78 293.12,-309.11 256.42,-285.8"/>
<polygon fill="black" stroke="black" points="257.85,-282.56 247.53,-280.16 254.1,-288.47 257.85,-282.56"/>
</g>
<!-- n3 -->
<g id="node3" class="node">
<title>n3</title>
<polygon fill="#fffdd0" stroke="black" points="765,-280 432,-280 432,-244 765,-244 765,-280"/>
<text text-anchor="middle" x="598.5" y="-258.3" font-family="Arial" font-size="14.00">Right habitat with blue ground, trees, fish&#45;like shapes</text>
</g>
<!-- n1&#45;&gt;n3 -->
<g id="edge2" class="edge">
<title>n1&#45;&gt;n3</title>
<path fill="none" stroke="black" d="M436.58,-365.81C469.7,-344.78 525.88,-309.11 562.58,-285.8"/>
<polygon fill="black" stroke="black" points="564.9,-288.47 571.47,-280.16 561.15,-282.56 564.9,-288.47"/>
</g>
<!-- n4 -->
<g id="node4" class="node">
<title>n4</title>
<path fill="palegreen" stroke="black" d="M329,-158C329,-158 12,-158 12,-158 6,-158 0,-152 0,-146 0,-146 0,-134 0,-134 0,-128 6,-122 12,-122 12,-122 329,-122 329,-122 335,-122 341,-128 341,-134 341,-134 341,-146 341,-146 341,-152 335,-158 329,-158"/>
<text text-anchor="middle" x="170.5" y="-136.3" font-family="Arial" font-size="14.00">Attempts to differentiate environments (land vs. water)</text>
</g>
<!-- n2&#45;&gt;n4 -->
<g id="edge3" class="edge">
<title>n2&#45;&gt;n4</title>
<path fill="none" stroke="black" d="M213.34,-243.81C205.02,-223.85 191.21,-190.7 181.52,-167.45"/>
<polygon fill="black" stroke="black" points="184.73,-166.05 177.65,-158.16 178.26,-168.74 184.73,-166.05"/>
</g>
<!-- n5 -->
<g id="node5" class="node">
<title>n5</title>
<polygon fill="lightcoral" stroke="black" points="649.5,-158 399.48,-140 649.5,-122 899.52,-140 649.5,-158"/>
<text text-anchor="middle" x="649.5" y="-136.3" font-family="Arial" font-size="14.00">Habitats lack diversity and distinct features</text>
</g>
<!-- n2&#45;&gt;n5 -->
<g id="edge4" class="edge">
<title>n2&#45;&gt;n5</title>
<path fill="none" stroke="black" d="M281.51,-243.93C363.92,-220.88 509.82,-180.07 590.95,-157.38"/>
<polygon fill="black" stroke="black" points="592.3,-160.64 600.99,-154.57 590.42,-153.89 592.3,-160.64"/>
</g>
<!-- n3&#45;&gt;n4 -->
<g id="edge5" class="edge">
<title>n3&#45;&gt;n4</title>
<path fill="none" stroke="black" d="M537.63,-243.93C459.35,-221.99 323.65,-183.94 240.97,-160.76"/>
<polygon fill="black" stroke="black" points="241.73,-157.34 231.16,-158.01 239.84,-164.08 241.73,-157.34"/>
</g>
<!-- n3&#45;&gt;n5 -->
<g id="edge6" class="edge">
<title>n3&#45;&gt;n5</title>
<path fill="none" stroke="black" d="M605.81,-243.81C614.34,-223.73 628.54,-190.32 638.43,-167.06"/>
<polygon fill="black" stroke="black" points="641.69,-168.34 642.37,-157.77 635.24,-165.61 641.69,-168.34"/>
</g>
<!-- n6 -->
<g id="node6" class="node">
<title>n6</title>
<polygon fill="#f28e8e" stroke="black" points="898,-36 401,-36 401,0 898,0 898,-36"/>
<text text-anchor="middle" x="649.5" y="-14.3" font-family="Arial" font-size="14.00">Use more distinct features to differentiate habitats (e.g., specific plants, animals)</text>
</g>
<!-- n5&#45;&gt;n6 -->
<g id="edge7" class="edge">
<title>n5&#45;&gt;n6</title>
<path fill="none" stroke="black" d="M649.5,-121.81C649.5,-102.11 649.5,-69.58 649.5,-46.39"/>
<polygon fill="black" stroke="black" points="653,-46.16 649.5,-36.16 646,-46.16 653,-46.16"/>
</g>
</g>
</svg>
