<?xml version="1.0" encoding="UTF-8" standalone="no"?>
<!DOCTYPE svg PUBLIC "-//W3C//DTD SVG 1.1//EN"
 "http://www.w3.org/Graphics/SVG/1.1/DTD/svg11.dtd">
<!-- Generated by graphviz version 2.43.0 (0)
 -->
<!-- Pages: 1 -->
<svg width="1760pt" height="410pt"
 viewBox="0.00 0.00 1760.00 410.00" xmlns="http://www.w3.org/2000/svg" xmlns:xlink="http://www.w3.org/1999/xlink">
<g id="graph0" class="graph" transform="scale(1 1) rotate(0) translate(4 406)">
<polygon fill="white" stroke="transparent" points="-4,4 -4,-406 1756,-406 1756,4 -4,4"/>
<!-- n1 -->
<g id="node1" class="node">
<title>n1</title>
<polygon fill="lightblue" stroke="black" points="1312.5,-384 1220.5,-402 1036.5,-402 944.5,-384 1036.5,-366 1220.5,-366 1312.5,-384"/>
<text text-anchor="middle" x="1128.5" y="-380.3" font-family="Arial" font-size="14.00">Illustrate plants with and without water</text>
</g>
<!-- n2 -->
<g id="node2" class="node">
<title>n2</title>
<polygon fill="#fffdd0" stroke="black" points="811.5,-280 293.5,-280 293.5,-244 811.5,-244 811.5,-280"/>
<text text-anchor="middle" x="552.5" y="-258.3" font-family="Arial" font-size="14.00">Healthy plant on the left with bright green leaves, vibrant flowers, sturdy brown stem</text>
</g>
<!-- n1&#45;&gt;n2 -->
<g id="edge1" class="edge">
<title>n1&#45;&gt;n2</title>
<path fill="none" stroke="black" d="M1046.9,-366C940.55,-343.84 755.11,-305.21 644.07,-282.08"/>
<polygon fill="black" stroke="black" points="644.73,-278.64 634.23,-280.03 643.31,-285.5 644.73,-278.64"/>
</g>
<!-- n3 -->
<g id="node3" class="node">
<title>n3</title>
<polygon fill="#fffdd0" stroke="black" points="1387.5,-280 869.5,-280 869.5,-244 1387.5,-244 1387.5,-280"/>
<text text-anchor="middle" x="1128.5" y="-258.3" font-family="Arial" font-size="14.00">Wilting plant on the right with droopy brownish&#45;green leaves and weaker, paler stem</text>
</g>
<!-- n1&#45;&gt;n3 -->
<g id="edge2" class="edge">
<title>n1&#45;&gt;n3</title>
<path fill="none" stroke="black" d="M1128.5,-365.81C1128.5,-346.11 1128.5,-313.58 1128.5,-290.39"/>
<polygon fill="black" stroke="black" points="1132,-290.16 1128.5,-280.16 1125,-290.16 1132,-290.16"/>
</g>
<!-- n4 -->
<g id="node4" class="node">
<title>n4</title>
<polygon fill="#fffdd0" stroke="black" points="1701,-280 1446,-280 1446,-244 1701,-244 1701,-280"/>
<text text-anchor="middle" x="1573.5" y="-258.3" font-family="Arial" font-size="14.00">Bright sun with rays above healthy plant</text>
</g>
<!-- n1&#45;&gt;n4 -->
<g id="edge3" class="edge">
<title>n1&#45;&gt;n4</title>
<path fill="none" stroke="black" d="M1191.8,-365.93C1273.3,-343.94 1414.8,-305.78 1500.8,-282.62"/>
<polygon fill="black" stroke="black" points="1501.67,-286.01 1510.4,-280.01 1499.83,-279.26 1501.67,-286.01"/>
</g>
<!-- n5 -->
<g id="node5" class="node">
<title>n5</title>
<path fill="palegreen" stroke="black" d="M363,-158C363,-158 12,-158 12,-158 6,-158 0,-152 0,-146 0,-146 0,-134 0,-134 0,-128 6,-122 12,-122 12,-122 363,-122 363,-122 369,-122 375,-128 375,-134 375,-134 375,-146 375,-146 375,-152 369,-158 363,-158"/>
<text text-anchor="middle" x="187.5" y="-136.3" font-family="Arial" font-size="14.00">Student understands healthy plants need water and sunlight</text>
</g>
<!-- n2&#45;&gt;n5 -->
<g id="edge4" class="edge">
<title>n2&#45;&gt;n5</title>
<path fill="none" stroke="black" d="M500.59,-243.93C434.24,-222.12 319.51,-184.4 248.89,-161.18"/>
<polygon fill="black" stroke="black" points="249.82,-157.8 239.23,-158.01 247.64,-164.45 249.82,-157.8"/>
</g>
<!-- n8 -->
<g id="node6" class="node">
<title>n8</title>
<polygon fill="lightcoral" stroke="black" points="696.5,-158 432.5,-140 696.5,-122 960.5,-140 696.5,-158"/>
<text text-anchor="middle" x="696.5" y="-136.3" font-family="Arial" font-size="14.00">No clear illustration of water source for plants</text>
</g>
<!-- n2&#45;&gt;n8 -->
<g id="edge5" class="edge">
<title>n2&#45;&gt;n8</title>
<path fill="none" stroke="black" d="M573.13,-243.81C598.47,-222.69 641.52,-186.81 669.48,-163.52"/>
<polygon fill="black" stroke="black" points="671.85,-166.1 677.29,-157.01 667.37,-160.72 671.85,-166.1"/>
</g>
<!-- n3&#45;&gt;n8 -->
<g id="edge6" class="edge">
<title>n3&#45;&gt;n8</title>
<path fill="none" stroke="black" d="M1067.1,-243.93C984.1,-220.89 837.26,-180.1 755.54,-157.4"/>
<polygon fill="black" stroke="black" points="756.24,-153.96 745.67,-154.66 754.37,-160.71 756.24,-153.96"/>
</g>
<!-- n6 -->
<g id="node7" class="node">
<title>n6</title>
<path fill="palegreen" stroke="black" d="M1293,-158C1293,-158 1030,-158 1030,-158 1024,-158 1018,-152 1018,-146 1018,-146 1018,-134 1018,-134 1018,-128 1024,-122 1030,-122 1030,-122 1293,-122 1293,-122 1299,-122 1305,-128 1305,-134 1305,-134 1305,-146 1305,-146 1305,-152 1299,-158 1293,-158"/>
<text text-anchor="middle" x="1161.5" y="-136.3" font-family="Arial" font-size="14.00">Student understands wilting plants lack water</text>
</g>
<!-- n3&#45;&gt;n6 -->
<g id="edge7" class="edge">
<title>n3&#45;&gt;n6</title>
<path fill="none" stroke="black" d="M1133.2,-243.81C1138.7,-224.02 1147.7,-191.29 1154.1,-168.08"/>
<polygon fill="black" stroke="black" points="1157.55,-168.73 1156.8,-158.16 1150.8,-166.89 1157.55,-168.73"/>
</g>
<!-- n7 -->
<g id="node8" class="node">
<title>n7</title>
<path fill="palegreen" stroke="black" d="M1740,-158C1740,-158 1407,-158 1407,-158 1401,-158 1395,-152 1395,-146 1395,-146 1395,-134 1395,-134 1395,-128 1401,-122 1407,-122 1407,-122 1740,-122 1740,-122 1746,-122 1752,-128 1752,-134 1752,-134 1752,-146 1752,-146 1752,-152 1746,-158 1740,-158"/>
<text text-anchor="middle" x="1573.5" y="-136.3" font-family="Arial" font-size="14.00">Student understands plants thrive in sunny environments</text>
</g>
<!-- n4&#45;&gt;n7 -->
<g id="edge8" class="edge">
<title>n4&#45;&gt;n7</title>
<path fill="none" stroke="black" d="M1573.5,-243.81C1573.5,-224.11 1573.5,-191.58 1573.5,-168.39"/>
<polygon fill="black" stroke="black" points="1577,-168.16 1573.5,-158.16 1570,-168.16 1577,-168.16"/>
</g>
<!-- n9 -->
<g id="node9" class="node">
<title>n9</title>
<polygon fill="#f28e8e" stroke="black" points="930,-36 463,-36 463,0 930,0 930,-36"/>
<text text-anchor="middle" x="696.5" y="-14.3" font-family="Arial" font-size="14.00">Include water source depiction to connect water availability and plant health</text>
</g>
<!-- n8&#45;&gt;n9 -->
<g id="edge9" class="edge">
<title>n8&#45;&gt;n9</title>
<path fill="none" stroke="black" d="M696.5,-121.81C696.5,-102.11 696.5,-69.58 696.5,-46.39"/>
<polygon fill="black" stroke="black" points="700,-46.16 696.5,-36.16 693,-46.16 700,-46.16"/>
</g>
</g>
</svg>
