<?xml version="1.0" encoding="UTF-8" standalone="no"?>
<!DOCTYPE svg PUBLIC "-//W3C//DTD SVG 1.1//EN"
 "http://www.w3.org/Graphics/SVG/1.1/DTD/svg11.dtd">
<!-- Generated by graphviz version 2.43.0 (0)
 -->
<!-- Pages: 1 -->
<svg width="1543pt" height="410pt"
 viewBox="0.00 0.00 1543.00 410.00" xmlns="http://www.w3.org/2000/svg" xmlns:xlink="http://www.w3.org/1999/xlink">
<g id="graph0" class="graph" transform="scale(1 1) rotate(0) translate(4 406)">
<polygon fill="white" stroke="transparent" points="-4,4 -4,-406 1539,-406 1539,4 -4,4"/>
<!-- n1 -->
<g id="node1" class="node">
<title>n1</title>
<polygon fill="lightblue" stroke="black" points="729.5,-384 638.25,-402 455.75,-402 364.5,-384 455.75,-366 638.25,-366 729.5,-384"/>
<text text-anchor="middle" x="547" y="-380.3" font-family="Arial" font-size="14.00">Draw a fish in their habitat with labels.</text>
</g>
<!-- n2 -->
<g id="node2" class="node">
<title>n2</title>
<polygon fill="#fffdd0" stroke="black" points="306,-280 0,-280 0,-244 306,-244 306,-280"/>
<text text-anchor="middle" x="153" y="-258.3" font-family="Arial" font-size="14.00">Simple oval shape with triangle tail labeled &#39;fish&#39;.</text>
</g>
<!-- n1&#45;&gt;n2 -->
<g id="edge1" class="edge">
<title>n1&#45;&gt;n2</title>
<path fill="none" stroke="black" d="M490.97,-365.93C419.19,-344.07 294.99,-306.25 218.8,-283.04"/>
<polygon fill="black" stroke="black" points="219.43,-279.57 208.84,-280.01 217.39,-286.27 219.43,-279.57"/>
</g>
<!-- n3 -->
<g id="node3" class="node">
<title>n3</title>
<polygon fill="#fffdd0" stroke="black" points="676.5,-280 417.5,-280 417.5,-244 676.5,-244 676.5,-280"/>
<text text-anchor="middle" x="547" y="-258.3" font-family="Arial" font-size="14.00">Fish&#39;s habitat depicted by blue scribbles.</text>
</g>
<!-- n1&#45;&gt;n3 -->
<g id="edge2" class="edge">
<title>n1&#45;&gt;n3</title>
<path fill="none" stroke="black" d="M547,-365.81C547,-346.11 547,-313.58 547,-290.39"/>
<polygon fill="black" stroke="black" points="550.5,-290.16 547,-280.16 543.5,-290.16 550.5,-290.16"/>
</g>
<!-- n4 -->
<g id="node4" class="node">
<title>n4</title>
<polygon fill="#fffdd0" stroke="black" points="1188.5,-280 909.5,-280 909.5,-244 1188.5,-244 1188.5,-280"/>
<text text-anchor="middle" x="1049" y="-258.3" font-family="Arial" font-size="14.00">Oversized tree without details in the habitat.</text>
</g>
<!-- n1&#45;&gt;n4 -->
<g id="edge3" class="edge">
<title>n1&#45;&gt;n4</title>
<path fill="none" stroke="black" d="M618.13,-366C710.43,-343.93 871.12,-305.52 968.02,-282.36"/>
<polygon fill="black" stroke="black" points="968.86,-285.76 977.77,-280.03 967.23,-278.95 968.86,-285.76"/>
</g>
<!-- n5 -->
<g id="node5" class="node">
<title>n5</title>
<path fill="palegreen" stroke="black" d="M166.5,-158C166.5,-158 33.5,-158 33.5,-158 27.5,-158 21.5,-152 21.5,-146 21.5,-146 21.5,-134 21.5,-134 21.5,-128 27.5,-122 33.5,-122 33.5,-122 166.5,-122 166.5,-122 172.5,-122 178.5,-128 178.5,-134 178.5,-134 178.5,-146 178.5,-146 178.5,-152 172.5,-158 166.5,-158"/>
<text text-anchor="middle" x="100" y="-136.3" font-family="Arial" font-size="14.00">Can label a simple fish.</text>
</g>
<!-- n2&#45;&gt;n5 -->
<g id="edge4" class="edge">
<title>n2&#45;&gt;n5</title>
<path fill="none" stroke="black" d="M145.41,-243.81C136.59,-223.85 121.95,-190.7 111.68,-167.45"/>
<polygon fill="black" stroke="black" points="114.82,-165.9 107.58,-158.16 108.42,-168.72 114.82,-165.9"/>
</g>
<!-- n6 -->
<g id="node6" class="node">
<title>n6</title>
<polygon fill="lightcoral" stroke="black" points="547,-158 236.15,-140 547,-122 857.85,-140 547,-158"/>
<text text-anchor="middle" x="547" y="-136.3" font-family="Arial" font-size="14.00">Misunderstands the depiction of a water environment.</text>
</g>
<!-- n3&#45;&gt;n6 -->
<g id="edge5" class="edge">
<title>n3&#45;&gt;n6</title>
<path fill="none" stroke="black" d="M547,-243.81C547,-224.11 547,-191.58 547,-168.39"/>
<polygon fill="black" stroke="black" points="550.5,-168.16 547,-158.16 543.5,-168.16 550.5,-168.16"/>
</g>
<!-- n7 -->
<g id="node7" class="node">
<title>n7</title>
<polygon fill="lightcoral" stroke="black" points="1225,-158 915,-140 1225,-122 1535,-140 1225,-158"/>
<text text-anchor="middle" x="1225" y="-136.3" font-family="Arial" font-size="14.00">Misunderstands habitat; includes unrelated elements.</text>
</g>
<!-- n4&#45;&gt;n7 -->
<g id="edge6" class="edge">
<title>n4&#45;&gt;n7</title>
<path fill="none" stroke="black" d="M1074.2,-243.81C1105.5,-222.45 1159,-185.99 1193.1,-162.72"/>
<polygon fill="black" stroke="black" points="1195.49,-165.33 1201.8,-156.82 1191.56,-159.54 1195.49,-165.33"/>
</g>
<!-- n8 -->
<g id="node8" class="node">
<title>n8</title>
<polygon fill="#f28e8e" stroke="black" points="735.5,-36 358.5,-36 358.5,0 735.5,0 735.5,-36"/>
<text text-anchor="middle" x="547" y="-14.3" font-family="Arial" font-size="14.00">Add detail to represent water bodies accurately (like waves).</text>
</g>
<!-- n6&#45;&gt;n8 -->
<g id="edge7" class="edge">
<title>n6&#45;&gt;n8</title>
<path fill="none" stroke="black" d="M547,-121.81C547,-102.11 547,-69.58 547,-46.39"/>
<polygon fill="black" stroke="black" points="550.5,-46.16 547,-36.16 543.5,-46.16 550.5,-46.16"/>
</g>
<!-- n9 -->
<g id="node9" class="node">
<title>n9</title>
<polygon fill="#f28e8e" stroke="black" points="1387,-36 1063,-36 1063,0 1387,0 1387,-36"/>
<text text-anchor="middle" x="1225" y="-14.3" font-family="Arial" font-size="14.00">Focus on specific habitat elements (aquatic plants).</text>
</g>
<!-- n7&#45;&gt;n9 -->
<g id="edge8" class="edge">
<title>n7&#45;&gt;n9</title>
<path fill="none" stroke="black" d="M1225,-121.81C1225,-102.11 1225,-69.58 1225,-46.39"/>
<polygon fill="black" stroke="black" points="1228.5,-46.16 1225,-36.16 1221.5,-46.16 1228.5,-46.16"/>
</g>
</g>
</svg>
