<?xml version="1.0" encoding="UTF-8" standalone="no"?>
<!DOCTYPE svg PUBLIC "-//W3C//DTD SVG 1.1//EN"
 "http://www.w3.org/Graphics/SVG/1.1/DTD/svg11.dtd">
<!-- Generated by graphviz version 2.43.0 (0)
 -->
<!-- Pages: 1 -->
<svg width="1676pt" height="410pt"
 viewBox="0.00 0.00 1676.02 410.00" xmlns="http://www.w3.org/2000/svg" xmlns:xlink="http://www.w3.org/1999/xlink">
<g id="graph0" class="graph" transform="scale(1 1) rotate(0) translate(4 406)">
<polygon fill="white" stroke="transparent" points="-4,4 -4,-406 1672.02,-406 1672.02,4 -4,4"/>
<!-- n1 -->
<g id="node1" class="node">
<title>n1</title>
<polygon fill="lightblue" stroke="black" points="963,-384 850.75,-402 626.25,-402 514,-384 626.25,-366 850.75,-366 963,-384"/>
<text text-anchor="middle" x="738.5" y="-380.3" font-family="Arial" font-size="14.00">Illustrate plants with and without water and light</text>
</g>
<!-- n2 -->
<g id="node2" class="node">
<title>n2</title>
<polygon fill="#fffdd0" stroke="black" points="227,-280 0,-280 0,-244 227,-244 227,-280"/>
<text text-anchor="middle" x="113.5" y="-258.3" font-family="Arial" font-size="14.00">Two plants on a yellow background</text>
</g>
<!-- n1&#45;&gt;n2 -->
<g id="edge1" class="edge">
<title>n1&#45;&gt;n2</title>
<path fill="none" stroke="black" d="M649.95,-366C534.32,-343.8 332.53,-305.05 212.14,-281.94"/>
<polygon fill="black" stroke="black" points="212.66,-278.48 202.18,-280.03 211.34,-285.35 212.66,-278.48"/>
</g>
<!-- n3 -->
<g id="node3" class="node">
<title>n3</title>
<polygon fill="#fffdd0" stroke="black" points="562,-280 285,-280 285,-244 562,-244 562,-280"/>
<text text-anchor="middle" x="423.5" y="-258.3" font-family="Arial" font-size="14.00">Green round shapes with scribbles (leaves)</text>
</g>
<!-- n1&#45;&gt;n3 -->
<g id="edge2" class="edge">
<title>n1&#45;&gt;n3</title>
<path fill="none" stroke="black" d="M693.7,-365.93C636.79,-344.25 538.64,-306.86 477.61,-283.61"/>
<polygon fill="black" stroke="black" points="478.73,-280.29 468.14,-280.01 476.24,-286.84 478.73,-280.29"/>
</g>
<!-- n4 -->
<g id="node4" class="node">
<title>n4</title>
<polygon fill="#fffdd0" stroke="black" points="856.5,-280 620.5,-280 620.5,-244 856.5,-244 856.5,-280"/>
<text text-anchor="middle" x="738.5" y="-258.3" font-family="Arial" font-size="14.00">Blue scribbles (water) near one plant</text>
</g>
<!-- n1&#45;&gt;n4 -->
<g id="edge3" class="edge">
<title>n1&#45;&gt;n4</title>
<path fill="none" stroke="black" d="M738.5,-365.81C738.5,-346.11 738.5,-313.58 738.5,-290.39"/>
<polygon fill="black" stroke="black" points="742,-290.16 738.5,-280.16 735,-290.16 742,-290.16"/>
</g>
<!-- n5 -->
<g id="node5" class="node">
<title>n5</title>
<polygon fill="#fffdd0" stroke="black" points="1180,-280 915,-280 915,-244 1180,-244 1180,-280"/>
<text text-anchor="middle" x="1047.5" y="-258.3" font-family="Arial" font-size="14.00">Yellow scribble (sunlight) above one plant</text>
</g>
<!-- n1&#45;&gt;n5 -->
<g id="edge4" class="edge">
<title>n1&#45;&gt;n5</title>
<path fill="none" stroke="black" d="M782.44,-365.93C838.16,-344.3 934.15,-307.02 994.05,-283.76"/>
<polygon fill="black" stroke="black" points="995.65,-286.89 1003.7,-280.01 993.11,-280.37 995.65,-286.89"/>
</g>
<!-- n6 -->
<g id="node6" class="node">
<title>n6</title>
<polygon fill="#fffdd0" stroke="black" points="1508.5,-280 1286.5,-280 1286.5,-244 1508.5,-244 1508.5,-280"/>
<text text-anchor="middle" x="1397.5" y="-258.3" font-family="Arial" font-size="14.00">Both plants look similar, no growth</text>
</g>
<!-- n1&#45;&gt;n6 -->
<g id="edge5" class="edge">
<title>n1&#45;&gt;n6</title>
<path fill="none" stroke="black" d="M831.87,-366C953.9,-343.78 1167,-304.98 1293.9,-281.87"/>
<polygon fill="black" stroke="black" points="1294.79,-285.27 1304,-280.03 1293.53,-278.38 1294.79,-285.27"/>
</g>
<!-- n7 -->
<g id="node7" class="node">
<title>n7</title>
<path fill="palegreen" stroke="black" d="M852,-158C852,-158 625,-158 625,-158 619,-158 613,-152 613,-146 613,-146 613,-134 613,-134 613,-128 619,-122 625,-122 625,-122 852,-122 852,-122 858,-122 864,-128 864,-134 864,-134 864,-146 864,-146 864,-152 858,-158 852,-158"/>
<text text-anchor="middle" x="738.5" y="-136.3" font-family="Arial" font-size="14.00">Understands plants need water to grow</text>
</g>
<!-- n4&#45;&gt;n7 -->
<g id="edge6" class="edge">
<title>n4&#45;&gt;n7</title>
<path fill="none" stroke="black" d="M738.5,-243.81C738.5,-224.11 738.5,-191.58 738.5,-168.39"/>
<polygon fill="black" stroke="black" points="742,-168.16 738.5,-158.16 735,-168.16 742,-168.16"/>
</g>
<!-- n8 -->
<g id="node8" class="node">
<title>n8</title>
<path fill="palegreen" stroke="black" d="M1155,-158C1155,-158 936,-158 936,-158 930,-158 924,-152 924,-146 924,-146 924,-134 924,-134 924,-128 930,-122 936,-122 936,-122 1155,-122 1155,-122 1161,-122 1167,-128 1167,-134 1167,-134 1167,-146 1167,-146 1167,-152 1161,-158 1155,-158"/>
<text text-anchor="middle" x="1045.5" y="-136.3" font-family="Arial" font-size="14.00">Understands plants need light to grow</text>
</g>
<!-- n5&#45;&gt;n8 -->
<g id="edge7" class="edge">
<title>n5&#45;&gt;n8</title>
<path fill="none" stroke="black" d="M1047.2,-243.81C1046.9,-224.11 1046.3,-191.58 1046,-168.39"/>
<polygon fill="black" stroke="black" points="1049.49,-168.09 1045.8,-158.16 1042.5,-168.23 1049.49,-168.09"/>
</g>
<!-- n9 -->
<g id="node9" class="node">
<title>n9</title>
<polygon fill="lightcoral" stroke="black" points="1446.5,-158 1224.97,-140 1446.5,-122 1668.03,-140 1446.5,-158"/>
<text text-anchor="middle" x="1446.5" y="-136.3" font-family="Arial" font-size="14.00">Misunderstanding of growth depiction</text>
</g>
<!-- n6&#45;&gt;n9 -->
<g id="edge8" class="edge">
<title>n6&#45;&gt;n9</title>
<path fill="none" stroke="black" d="M1404.5,-243.81C1412.7,-223.73 1426.4,-190.32 1435.9,-167.06"/>
<polygon fill="black" stroke="black" points="1439.15,-168.35 1439.7,-157.77 1432.67,-165.7 1439.15,-168.35"/>
</g>
<!-- n10 -->
<g id="node10" class="node">
<title>n10</title>
<polygon fill="#f28e8e" stroke="black" points="1575,-36 1318,-36 1318,0 1575,0 1575,-36"/>
<text text-anchor="middle" x="1446.5" y="-14.3" font-family="Arial" font-size="14.00">Draw changes over time to show growth</text>
</g>
<!-- n9&#45;&gt;n10 -->
<g id="edge9" class="edge">
<title>n9&#45;&gt;n10</title>
<path fill="none" stroke="black" d="M1446.5,-121.81C1446.5,-102.11 1446.5,-69.58 1446.5,-46.39"/>
<polygon fill="black" stroke="black" points="1450,-46.16 1446.5,-36.16 1443,-46.16 1450,-46.16"/>
</g>
</g>
</svg>
