<?xml version="1.0" encoding="UTF-8" standalone="no"?>
<!DOCTYPE svg PUBLIC "-//W3C//DTD SVG 1.1//EN"
 "http://www.w3.org/Graphics/SVG/1.1/DTD/svg11.dtd">
<!-- Generated by graphviz version 2.43.0 (0)
 -->
<!-- Pages: 1 -->
<svg width="1662pt" height="288pt"
 viewBox="0.00 0.00 1662.00 288.00" xmlns="http://www.w3.org/2000/svg" xmlns:xlink="http://www.w3.org/1999/xlink">
<g id="graph0" class="graph" transform="scale(1 1) rotate(0) translate(4 284)">
<polygon fill="white" stroke="transparent" points="-4,4 -4,-284 1658,-284 1658,4 -4,4"/>
<!-- n1 -->
<g id="node1" class="node">
<title>n1</title>
<polygon fill="lightblue" stroke="black" points="1023,-262 931,-280 747,-280 655,-262 747,-244 931,-244 1023,-262"/>
<text text-anchor="middle" x="839" y="-258.3" font-family="Arial" font-size="14.00">Illustrate plants with and without water</text>
</g>
<!-- n2 -->
<g id="node2" class="node">
<title>n2</title>
<polygon fill="#fffdd0" stroke="black" points="334,-158 0,-158 0,-122 334,-122 334,-158"/>
<text text-anchor="middle" x="167" y="-136.3" font-family="Arial" font-size="14.00">Healthy plant with lush green leaves and strong stem</text>
</g>
<!-- n1&#45;&gt;n2 -->
<g id="edge1" class="edge">
<title>n1&#45;&gt;n2</title>
<path fill="none" stroke="black" d="M745.21,-244.25C620.86,-222.05 402.05,-182.97 272.21,-159.79"/>
<polygon fill="black" stroke="black" points="272.71,-156.32 262.25,-158.01 271.48,-163.21 272.71,-156.32"/>
</g>
<!-- n3 -->
<g id="node3" class="node">
<title>n3</title>
<polygon fill="#fffdd0" stroke="black" points="972,-158 706,-158 706,-122 972,-122 972,-158"/>
<text text-anchor="middle" x="839" y="-136.3" font-family="Arial" font-size="14.00">Under bright yellow sun and light blue sky</text>
</g>
<!-- n1&#45;&gt;n3 -->
<g id="edge2" class="edge">
<title>n1&#45;&gt;n3</title>
<path fill="none" stroke="black" d="M839,-243.81C839,-224.11 839,-191.58 839,-168.39"/>
<polygon fill="black" stroke="black" points="842.5,-168.16 839,-158.16 835.5,-168.16 842.5,-168.16"/>
</g>
<!-- n4 -->
<g id="node4" class="node">
<title>n4</title>
<polygon fill="#fffdd0" stroke="black" points="648,-158 392,-158 392,-122 648,-122 648,-158"/>
<text text-anchor="middle" x="520" y="-136.3" font-family="Arial" font-size="14.00">Wilted plant with drooping yellow leaves</text>
</g>
<!-- n1&#45;&gt;n4 -->
<g id="edge3" class="edge">
<title>n1&#45;&gt;n4</title>
<path fill="none" stroke="black" d="M793.63,-243.93C736,-222.25 636.6,-184.86 574.79,-161.61"/>
<polygon fill="black" stroke="black" points="575.8,-158.25 565.21,-158.01 573.34,-164.8 575.8,-158.25"/>
</g>
<!-- n5 -->
<g id="node5" class="node">
<title>n5</title>
<polygon fill="#fffdd0" stroke="black" points="1293.5,-158 1030.5,-158 1030.5,-122 1293.5,-122 1293.5,-158"/>
<text text-anchor="middle" x="1162" y="-136.3" font-family="Arial" font-size="14.00">In darker area suggesting lack of sunlight</text>
</g>
<!-- n1&#45;&gt;n5 -->
<g id="edge4" class="edge">
<title>n1&#45;&gt;n5</title>
<path fill="none" stroke="black" d="M884.93,-243.93C943.29,-222.25 1043.9,-184.86 1106.5,-161.61"/>
<polygon fill="black" stroke="black" points="1108.04,-164.77 1116.2,-158.01 1105.61,-158.21 1108.04,-164.77"/>
</g>
<!-- n6 -->
<g id="node6" class="node">
<title>n6</title>
<polygon fill="#fffdd0" stroke="black" points="1594,-158 1352,-158 1352,-122 1594,-122 1594,-158"/>
<text text-anchor="middle" x="1473" y="-136.3" font-family="Arial" font-size="14.00">Small symbols: water drops and suns</text>
</g>
<!-- n1&#45;&gt;n6 -->
<g id="edge5" class="edge">
<title>n1&#45;&gt;n6</title>
<path fill="none" stroke="black" d="M928.83,-244C1046.1,-221.8 1250.8,-183.05 1372.9,-159.94"/>
<polygon fill="black" stroke="black" points="1373.82,-163.33 1383,-158.03 1372.52,-156.45 1373.82,-163.33"/>
</g>
<!-- n7 -->
<g id="node7" class="node">
<title>n7</title>
<path fill="palegreen" stroke="black" d="M552,-36C552,-36 302,-36 302,-36 296,-36 290,-30 290,-24 290,-24 290,-12 290,-12 290,-6 296,0 302,0 302,0 552,0 552,0 558,0 564,-6 564,-12 564,-12 564,-24 564,-24 564,-30 558,-36 552,-36"/>
<text text-anchor="middle" x="427" y="-14.3" font-family="Arial" font-size="14.00">Understands effect of water on plant health</text>
</g>
<!-- n2&#45;&gt;n7 -->
<g id="edge6" class="edge">
<title>n2&#45;&gt;n7</title>
<path fill="none" stroke="black" d="M203.98,-121.93C250.47,-100.48 330.3,-63.63 380.78,-40.34"/>
<polygon fill="black" stroke="black" points="382.54,-43.38 390.15,-36.01 379.6,-37.02 382.54,-43.38"/>
</g>
<!-- n8 -->
<g id="node8" class="node">
<title>n8</title>
<path fill="palegreen" stroke="black" d="M1063.5,-36C1063.5,-36 800.5,-36 800.5,-36 794.5,-36 788.5,-30 788.5,-24 788.5,-24 788.5,-12 788.5,-12 788.5,-6 794.5,0 800.5,0 800.5,0 1063.5,0 1063.5,0 1069.5,0 1075.5,-6 1075.5,-12 1075.5,-12 1075.5,-24 1075.5,-24 1075.5,-30 1069.5,-36 1063.5,-36"/>
<text text-anchor="middle" x="932" y="-14.3" font-family="Arial" font-size="14.00">Understands effect of sunlight on plant health</text>
</g>
<!-- n3&#45;&gt;n8 -->
<g id="edge7" class="edge">
<title>n3&#45;&gt;n8</title>
<path fill="none" stroke="black" d="M852.32,-121.81C868.07,-101.49 894.41,-67.51 912.46,-44.22"/>
<polygon fill="black" stroke="black" points="915.34,-46.21 918.7,-36.16 909.81,-41.92 915.34,-46.21"/>
</g>
<!-- n4&#45;&gt;n7 -->
<g id="edge8" class="edge">
<title>n4&#45;&gt;n7</title>
<path fill="none" stroke="black" d="M506.68,-121.81C490.93,-101.49 464.59,-67.51 446.54,-44.22"/>
<polygon fill="black" stroke="black" points="449.19,-41.92 440.3,-36.16 443.66,-46.21 449.19,-41.92"/>
</g>
<!-- n5&#45;&gt;n8 -->
<g id="edge9" class="edge">
<title>n5&#45;&gt;n8</title>
<path fill="none" stroke="black" d="M1129,-121.81C1088.2,-100.51 1018.6,-64.2 974.01,-40.92"/>
<polygon fill="black" stroke="black" points="975.37,-37.69 964.89,-36.16 972.14,-43.89 975.37,-37.69"/>
</g>
<!-- n9 -->
<g id="node9" class="node">
<title>n9</title>
<path fill="palegreen" stroke="black" d="M1642,-36C1642,-36 1304,-36 1304,-36 1298,-36 1292,-30 1292,-24 1292,-24 1292,-12 1292,-12 1292,-6 1298,0 1304,0 1304,0 1642,0 1642,0 1648,0 1654,-6 1654,-12 1654,-12 1654,-24 1654,-24 1654,-30 1648,-36 1642,-36"/>
<text text-anchor="middle" x="1473" y="-14.3" font-family="Arial" font-size="14.00">Identifies patterns: water and sunlight impact plant growth</text>
</g>
<!-- n6&#45;&gt;n9 -->
<g id="edge10" class="edge">
<title>n6&#45;&gt;n9</title>
<path fill="none" stroke="black" d="M1473,-121.81C1473,-102.11 1473,-69.58 1473,-46.39"/>
<polygon fill="black" stroke="black" points="1476.5,-46.16 1473,-36.16 1469.5,-46.16 1476.5,-46.16"/>
</g>
</g>
</svg>
