<?xml version="1.0" encoding="UTF-8" standalone="no"?>
<!DOCTYPE svg PUBLIC "-//W3C//DTD SVG 1.1//EN"
 "http://www.w3.org/Graphics/SVG/1.1/DTD/svg11.dtd">
<!-- Generated by graphviz version 2.43.0 (0)
 -->
<!-- Pages: 1 -->
<svg width="1484pt" height="410pt"
 viewBox="0.00 0.00 1483.50 410.00" xmlns="http://www.w3.org/2000/svg" xmlns:xlink="http://www.w3.org/1999/xlink">
<g id="graph0" class="graph" transform="scale(1 1) rotate(0) translate(4 406)">
<polygon fill="white" stroke="transparent" points="-4,4 -4,-406 1479.5,-406 1479.5,4 -4,4"/>
<!-- n1 -->
<g id="node1" class="node">
<title>n1</title>
<polygon fill="lightblue" stroke="black" points="841.5,-384 751.75,-402 572.25,-402 482.5,-384 572.25,-366 751.75,-366 841.5,-384"/>
<text text-anchor="middle" x="662" y="-380.3" font-family="Arial" font-size="14.00">Draw a fish in their habitat with labels</text>
</g>
<!-- n2 -->
<g id="node2" class="node">
<title>n2</title>
<polygon fill="#fffdd0" stroke="black" points="446.5,-280 319.5,-280 319.5,-244 446.5,-244 446.5,-280"/>
<text text-anchor="middle" x="383" y="-258.3" font-family="Arial" font-size="14.00">Simple fish outline</text>
</g>
<!-- n1&#45;&gt;n2 -->
<g id="edge1" class="edge">
<title>n1&#45;&gt;n2</title>
<path fill="none" stroke="black" d="M622.32,-365.93C572.22,-344.39 486.05,-307.32 431.93,-284.04"/>
<polygon fill="black" stroke="black" points="433.11,-280.74 422.54,-280.01 430.35,-287.17 433.11,-280.74"/>
</g>
<!-- n3 -->
<g id="node3" class="node">
<title>n3</title>
<polygon fill="#fffdd0" stroke="black" points="735,-280 589,-280 589,-244 735,-244 735,-280"/>
<text text-anchor="middle" x="662" y="-258.3" font-family="Arial" font-size="14.00">General water setting</text>
</g>
<!-- n1&#45;&gt;n3 -->
<g id="edge2" class="edge">
<title>n1&#45;&gt;n3</title>
<path fill="none" stroke="black" d="M662,-365.81C662,-346.11 662,-313.58 662,-290.39"/>
<polygon fill="black" stroke="black" points="665.5,-290.16 662,-280.16 658.5,-290.16 665.5,-290.16"/>
</g>
<!-- n4 -->
<g id="node4" class="node">
<title>n4</title>
<polygon fill="#fffdd0" stroke="black" points="1260,-280 1130,-280 1130,-244 1260,-244 1260,-280"/>
<text text-anchor="middle" x="1195" y="-258.3" font-family="Arial" font-size="14.00">Basic plant shapes</text>
</g>
<!-- n1&#45;&gt;n4 -->
<g id="edge3" class="edge">
<title>n1&#45;&gt;n4</title>
<path fill="none" stroke="black" d="M737.52,-366C839.1,-343.13 1018.7,-302.7 1120,-279.89"/>
<polygon fill="black" stroke="black" points="1120.91,-283.27 1129.9,-277.67 1119.38,-276.44 1120.91,-283.27"/>
</g>
<!-- n5 -->
<g id="node5" class="node">
<title>n5</title>
<path fill="palegreen" stroke="black" d="M248,-158C248,-158 12,-158 12,-158 6,-158 0,-152 0,-146 0,-146 0,-134 0,-134 0,-128 6,-122 12,-122 12,-122 248,-122 248,-122 254,-122 260,-128 260,-134 260,-134 260,-146 260,-146 260,-152 254,-158 248,-158"/>
<text text-anchor="middle" x="130" y="-136.3" font-family="Arial" font-size="14.00">Labeled components (fish, water, plants)</text>
</g>
<!-- n2&#45;&gt;n5 -->
<g id="edge4" class="edge">
<title>n2&#45;&gt;n5</title>
<path fill="none" stroke="black" d="M347.02,-243.93C301.78,-222.48 224.1,-185.63 174.98,-162.33"/>
<polygon fill="black" stroke="black" points="176.4,-159.13 165.86,-158.01 173.4,-165.45 176.4,-159.13"/>
</g>
<!-- n6 -->
<g id="node6" class="node">
<title>n6</title>
<polygon fill="lightcoral" stroke="black" points="494,-158 318.38,-140 494,-122 669.62,-140 494,-158"/>
<text text-anchor="middle" x="494" y="-136.3" font-family="Arial" font-size="14.00">Limited detail of environment</text>
</g>
<!-- n3&#45;&gt;n6 -->
<g id="edge5" class="edge">
<title>n3&#45;&gt;n6</title>
<path fill="none" stroke="black" d="M637.93,-243.81C607.61,-222.15 555.57,-184.98 523.06,-161.76"/>
<polygon fill="black" stroke="black" points="525.02,-158.86 514.85,-155.89 520.95,-164.55 525.02,-158.86"/>
</g>
<!-- n8 -->
<g id="node7" class="node">
<title>n8</title>
<polygon fill="lightcoral" stroke="black" points="961,-158 727.5,-140 961,-122 1194.5,-140 961,-158"/>
<text text-anchor="middle" x="961" y="-136.3" font-family="Arial" font-size="14.00">No depiction of food or other organisms</text>
</g>
<!-- n3&#45;&gt;n8 -->
<g id="edge6" class="edge">
<title>n3&#45;&gt;n8</title>
<path fill="none" stroke="black" d="M704.52,-243.93C760.46,-221.49 858.35,-182.2 915.65,-159.2"/>
<polygon fill="black" stroke="black" points="917.2,-162.35 925.18,-155.38 914.6,-155.85 917.2,-162.35"/>
</g>
<!-- n7 -->
<g id="node8" class="node">
<title>n7</title>
<path fill="palegreen" stroke="black" d="M1463.5,-158C1463.5,-158 1264.5,-158 1264.5,-158 1258.5,-158 1252.5,-152 1252.5,-146 1252.5,-146 1252.5,-134 1252.5,-134 1252.5,-128 1258.5,-122 1264.5,-122 1264.5,-122 1463.5,-122 1463.5,-122 1469.5,-122 1475.5,-128 1475.5,-134 1475.5,-134 1475.5,-146 1475.5,-146 1475.5,-152 1469.5,-158 1463.5,-158"/>
<text text-anchor="middle" x="1364" y="-136.3" font-family="Arial" font-size="14.00">Understanding of habitat elements</text>
</g>
<!-- n4&#45;&gt;n7 -->
<g id="edge7" class="edge">
<title>n4&#45;&gt;n7</title>
<path fill="none" stroke="black" d="M1219.2,-243.81C1248.7,-222.87 1298.6,-187.41 1331.5,-164.1"/>
<polygon fill="black" stroke="black" points="1333.7,-166.83 1339.8,-158.16 1329.63,-161.13 1333.7,-166.83"/>
</g>
<!-- n9 -->
<g id="node9" class="node">
<title>n9</title>
<polygon fill="#f28e8e" stroke="black" points="1136,-36 786,-36 786,0 1136,0 1136,-36"/>
<text text-anchor="middle" x="961" y="-14.3" font-family="Arial" font-size="14.00">Include food sources and other organisms in the habitat</text>
</g>
<!-- n8&#45;&gt;n9 -->
<g id="edge8" class="edge">
<title>n8&#45;&gt;n9</title>
<path fill="none" stroke="black" d="M961,-121.81C961,-102.11 961,-69.58 961,-46.39"/>
<polygon fill="black" stroke="black" points="964.5,-46.16 961,-36.16 957.5,-46.16 964.5,-46.16"/>
</g>
</g>
</svg>
