<?xml version="1.0" encoding="UTF-8" standalone="no"?>
<!DOCTYPE svg PUBLIC "-//W3C//DTD SVG 1.1//EN"
 "http://www.w3.org/Graphics/SVG/1.1/DTD/svg11.dtd">
<!-- Generated by graphviz version 2.43.0 (0)
 -->
<!-- Pages: 1 -->
<svg width="1139pt" height="410pt"
 viewBox="0.00 0.00 1139.00 410.00" xmlns="http://www.w3.org/2000/svg" xmlns:xlink="http://www.w3.org/1999/xlink">
<g id="graph0" class="graph" transform="scale(1 1) rotate(0) translate(4 406)">
<polygon fill="white" stroke="transparent" points="-4,4 -4,-406 1135,-406 1135,4 -4,4"/>
<!-- n1 -->
<g id="node1" class="node">
<title>n1</title>
<polygon fill="lightblue" stroke="black" points="721.5,-384 629.5,-402 445.5,-402 353.5,-384 445.5,-366 629.5,-366 721.5,-384"/>
<text text-anchor="middle" x="537.5" y="-380.3" font-family="Arial" font-size="14.00">Illustrate plants with and without water</text>
</g>
<!-- n2 -->
<g id="node2" class="node">
<title>n2</title>
<polygon fill="#fffdd0" stroke="black" points="517,-280 268,-280 268,-244 517,-244 517,-280"/>
<text text-anchor="middle" x="392.5" y="-258.3" font-family="Arial" font-size="14.00">A healthy, green plant with pink flowers</text>
</g>
<!-- n1&#45;&gt;n2 -->
<g id="edge1" class="edge">
<title>n1&#45;&gt;n2</title>
<path fill="none" stroke="black" d="M516.73,-365.81C491.64,-345.04 449.31,-310.01 421.13,-286.7"/>
<polygon fill="black" stroke="black" points="423.17,-283.85 413.24,-280.16 418.71,-289.24 423.17,-283.85"/>
</g>
<!-- n3 -->
<g id="node3" class="node">
<title>n3</title>
<polygon fill="#fffdd0" stroke="black" points="792,-280 575,-280 575,-244 792,-244 792,-280"/>
<text text-anchor="middle" x="683.5" y="-258.3" font-family="Arial" font-size="14.00">A plant with droopy, brown leaves</text>
</g>
<!-- n1&#45;&gt;n3 -->
<g id="edge2" class="edge">
<title>n1&#45;&gt;n3</title>
<path fill="none" stroke="black" d="M558.42,-365.81C583.68,-345.04 626.3,-310.01 654.67,-286.7"/>
<polygon fill="black" stroke="black" points="657.12,-289.22 662.62,-280.16 652.67,-283.81 657.12,-289.22"/>
</g>
<!-- n4 -->
<g id="node4" class="node">
<title>n4</title>
<path fill="palegreen" stroke="black" d="M233,-158C233,-158 12,-158 12,-158 6,-158 0,-152 0,-146 0,-146 0,-134 0,-134 0,-128 6,-122 12,-122 12,-122 233,-122 233,-122 239,-122 245,-128 245,-134 245,-134 245,-146 245,-146 245,-152 239,-158 233,-158"/>
<text text-anchor="middle" x="122.5" y="-136.3" font-family="Arial" font-size="14.00">Plants with water show healthy growth</text>
</g>
<!-- n2&#45;&gt;n4 -->
<g id="edge3" class="edge">
<title>n2&#45;&gt;n4</title>
<path fill="none" stroke="black" d="M354.1,-243.93C305.72,-222.43 222.58,-185.48 170.18,-162.19"/>
<polygon fill="black" stroke="black" points="171.33,-158.87 160.77,-158.01 168.49,-165.27 171.33,-158.87"/>
</g>
<!-- n6 -->
<g id="node5" class="node">
<title>n6</title>
<polygon fill="lightcoral" stroke="black" points="538.5,-158 303,-140 538.5,-122 774,-140 538.5,-158"/>
<text text-anchor="middle" x="538.5" y="-136.3" font-family="Arial" font-size="14.00">Size and shape similarity for both plants</text>
</g>
<!-- n2&#45;&gt;n6 -->
<g id="edge4" class="edge">
<title>n2&#45;&gt;n6</title>
<path fill="none" stroke="black" d="M413.42,-243.81C439.25,-222.57 483.25,-186.41 511.58,-163.13"/>
<polygon fill="black" stroke="black" points="513.98,-165.69 519.48,-156.63 509.53,-160.28 513.98,-165.69"/>
</g>
<!-- n3&#45;&gt;n6 -->
<g id="edge5" class="edge">
<title>n3&#45;&gt;n6</title>
<path fill="none" stroke="black" d="M662.73,-243.81C637.07,-222.57 593.37,-186.41 565.24,-163.13"/>
<polygon fill="black" stroke="black" points="567.32,-160.31 557.39,-156.63 562.86,-165.7 567.32,-160.31"/>
</g>
<!-- n5 -->
<g id="node6" class="node">
<title>n5</title>
<path fill="palegreen" stroke="black" d="M1119,-158C1119,-158 844,-158 844,-158 838,-158 832,-152 832,-146 832,-146 832,-134 832,-134 832,-128 838,-122 844,-122 844,-122 1119,-122 1119,-122 1125,-122 1131,-128 1131,-134 1131,-134 1131,-146 1131,-146 1131,-152 1125,-158 1119,-158"/>
<text text-anchor="middle" x="981.5" y="-136.3" font-family="Arial" font-size="14.00">Plants without water appear unhealthy or wilted</text>
</g>
<!-- n3&#45;&gt;n5 -->
<g id="edge6" class="edge">
<title>n3&#45;&gt;n5</title>
<path fill="none" stroke="black" d="M725.88,-243.93C779.61,-222.3 872.19,-185.02 929.96,-161.76"/>
<polygon fill="black" stroke="black" points="931.3,-164.99 939.27,-158.01 928.69,-158.5 931.3,-164.99"/>
</g>
<!-- n7 -->
<g id="node7" class="node">
<title>n7</title>
<polygon fill="#f28e8e" stroke="black" points="713.5,-36 363.5,-36 363.5,0 713.5,0 713.5,-36"/>
<text text-anchor="middle" x="538.5" y="-14.3" font-family="Arial" font-size="14.00">Differentiate plant states by size and color, not just color</text>
</g>
<!-- n6&#45;&gt;n7 -->
<g id="edge7" class="edge">
<title>n6&#45;&gt;n7</title>
<path fill="none" stroke="black" d="M538.5,-121.81C538.5,-102.11 538.5,-69.58 538.5,-46.39"/>
<polygon fill="black" stroke="black" points="542,-46.16 538.5,-36.16 535,-46.16 542,-46.16"/>
</g>
</g>
</svg>
