<?xml version="1.0" encoding="UTF-8" standalone="no"?>
<!DOCTYPE svg PUBLIC "-//W3C//DTD SVG 1.1//EN"
 "http://www.w3.org/Graphics/SVG/1.1/DTD/svg11.dtd">
<!-- Generated by graphviz version 2.43.0 (0)
 -->
<!-- Pages: 1 -->
<svg width="834pt" height="410pt"
 viewBox="0.00 0.00 834.03 410.00" xmlns="http://www.w3.org/2000/svg" xmlns:xlink="http://www.w3.org/1999/xlink">
<g id="graph0" class="graph" transform="scale(1 1) rotate(0) translate(4 406)">
<polygon fill="white" stroke="transparent" points="-4,4 -4,-406 830.03,-406 830.03,4 -4,4"/>
<!-- n1 -->
<g id="node1" class="node">
<title>n1</title>
<polygon fill="lightblue" stroke="black" points="577,-384 463.25,-402 235.75,-402 122,-384 235.75,-366 463.25,-366 577,-384"/>
<text text-anchor="middle" x="349.5" y="-380.3" font-family="Arial" font-size="14.00">Illustrate plants with and without water and light.</text>
</g>
<!-- n2 -->
<g id="node2" class="node">
<title>n2</title>
<polygon fill="#fffdd0" stroke="black" points="263.5,-280 99.5,-280 99.5,-244 263.5,-244 263.5,-280"/>
<text text-anchor="middle" x="181.5" y="-258.3" font-family="Arial" font-size="14.00">Plant with sun and water</text>
</g>
<!-- n1&#45;&gt;n2 -->
<g id="edge1" class="edge">
<title>n1&#45;&gt;n2</title>
<path fill="none" stroke="black" d="M325.43,-365.81C296.11,-344.87 246.47,-309.41 213.84,-286.1"/>
<polygon fill="black" stroke="black" points="215.7,-283.13 205.53,-280.16 211.63,-288.82 215.7,-283.13"/>
</g>
<!-- n3 -->
<g id="node3" class="node">
<title>n3</title>
<polygon fill="#fffdd0" stroke="black" points="608.5,-280 426.5,-280 426.5,-244 608.5,-244 608.5,-280"/>
<text text-anchor="middle" x="517.5" y="-258.3" font-family="Arial" font-size="14.00">Plant without sun and water</text>
</g>
<!-- n1&#45;&gt;n3 -->
<g id="edge2" class="edge">
<title>n1&#45;&gt;n3</title>
<path fill="none" stroke="black" d="M373.57,-365.81C402.89,-344.87 452.53,-309.41 485.16,-286.1"/>
<polygon fill="black" stroke="black" points="487.37,-288.82 493.47,-280.16 483.3,-283.13 487.37,-288.82"/>
</g>
<!-- n4 -->
<g id="node4" class="node">
<title>n4</title>
<path fill="palegreen" stroke="black" d="M245,-158C245,-158 12,-158 12,-158 6,-158 0,-152 0,-146 0,-146 0,-134 0,-134 0,-128 6,-122 12,-122 12,-122 245,-122 245,-122 251,-122 257,-128 257,-134 257,-134 257,-146 257,-146 257,-152 251,-158 245,-158"/>
<text text-anchor="middle" x="128.5" y="-136.3" font-family="Arial" font-size="14.00">Plants need sun and water to be healthy</text>
</g>
<!-- n2&#45;&gt;n4 -->
<g id="edge3" class="edge">
<title>n2&#45;&gt;n4</title>
<path fill="none" stroke="black" d="M173.91,-243.81C165.09,-223.85 150.45,-190.7 140.18,-167.45"/>
<polygon fill="black" stroke="black" points="143.32,-165.9 136.08,-158.16 136.92,-168.72 143.32,-165.9"/>
</g>
<!-- n5 -->
<g id="node5" class="node">
<title>n5</title>
<polygon fill="lightcoral" stroke="black" points="570.5,-158 314.95,-140 570.5,-122 826.05,-140 570.5,-158"/>
<text text-anchor="middle" x="570.5" y="-136.3" font-family="Arial" font-size="14.00">Plants without sun and water look the same</text>
</g>
<!-- n3&#45;&gt;n5 -->
<g id="edge4" class="edge">
<title>n3&#45;&gt;n5</title>
<path fill="none" stroke="black" d="M525.09,-243.81C533.96,-223.73 548.72,-190.32 558.99,-167.06"/>
<polygon fill="black" stroke="black" points="562.25,-168.33 563.09,-157.77 555.85,-165.51 562.25,-168.33"/>
</g>
<!-- n6 -->
<g id="node6" class="node">
<title>n6</title>
<polygon fill="#f28e8e" stroke="black" points="696,-36 445,-36 445,0 696,0 696,-36"/>
<text text-anchor="middle" x="570.5" y="-14.3" font-family="Arial" font-size="14.00">Differentiate healthy &amp; unhealthy plants</text>
</g>
<!-- n5&#45;&gt;n6 -->
<g id="edge5" class="edge">
<title>n5&#45;&gt;n6</title>
<path fill="none" stroke="black" d="M570.5,-121.81C570.5,-102.11 570.5,-69.58 570.5,-46.39"/>
<polygon fill="black" stroke="black" points="574,-46.16 570.5,-36.16 567,-46.16 574,-46.16"/>
</g>
</g>
</svg>
