<?xml version="1.0" encoding="UTF-8" standalone="no"?>
<!DOCTYPE svg PUBLIC "-//W3C//DTD SVG 1.1//EN"
 "http://www.w3.org/Graphics/SVG/1.1/DTD/svg11.dtd">
<!-- Generated by graphviz version 2.43.0 (0)
 -->
<!-- Pages: 1 -->
<svg width="1400pt" height="410pt"
 viewBox="0.00 0.00 1400.01 410.00" xmlns="http://www.w3.org/2000/svg" xmlns:xlink="http://www.w3.org/1999/xlink">
<g id="graph0" class="graph" transform="scale(1 1) rotate(0) translate(4 406)">
<polygon fill="white" stroke="transparent" points="-4,4 -4,-406 1396.01,-406 1396.01,4 -4,4"/>
<!-- n1 -->
<g id="node1" class="node">
<title>n1</title>
<polygon fill="lightblue" stroke="black" points="739.5,-384 648.25,-402 465.75,-402 374.5,-384 465.75,-366 648.25,-366 739.5,-384"/>
<text text-anchor="middle" x="557" y="-380.3" font-family="Arial" font-size="14.00">Draw reversible changes (ice melting)</text>
</g>
<!-- n2 -->
<g id="node2" class="node">
<title>n2</title>
<polygon fill="#fffdd0" stroke="black" points="295,-280 107,-280 107,-244 295,-244 295,-280"/>
<text text-anchor="middle" x="201" y="-258.3" font-family="Arial" font-size="14.00">Blue square representing ice</text>
</g>
<!-- n1&#45;&gt;n2 -->
<g id="edge1" class="edge">
<title>n1&#45;&gt;n2</title>
<path fill="none" stroke="black" d="M506.37,-365.93C441.79,-344.16 330.22,-306.56 261.3,-283.33"/>
<polygon fill="black" stroke="black" points="262.04,-279.89 251.45,-280.01 259.81,-286.52 262.04,-279.89"/>
</g>
<!-- n3 -->
<g id="node3" class="node">
<title>n3</title>
<polygon fill="#fffdd0" stroke="black" points="670.5,-280 443.5,-280 443.5,-244 670.5,-244 670.5,-280"/>
<text text-anchor="middle" x="557" y="-258.3" font-family="Arial" font-size="14.00">Arrow drawn without clear direction</text>
</g>
<!-- n1&#45;&gt;n3 -->
<g id="edge2" class="edge">
<title>n1&#45;&gt;n3</title>
<path fill="none" stroke="black" d="M557,-365.81C557,-346.11 557,-313.58 557,-290.39"/>
<polygon fill="black" stroke="black" points="560.5,-290.16 557,-280.16 553.5,-290.16 560.5,-290.16"/>
</g>
<!-- n4 -->
<g id="node4" class="node">
<title>n4</title>
<polygon fill="#fffdd0" stroke="black" points="1108.5,-280 877.5,-280 877.5,-244 1108.5,-244 1108.5,-280"/>
<text text-anchor="middle" x="993" y="-258.3" font-family="Arial" font-size="14.00">Blob&#45;like shapes representing water</text>
</g>
<!-- n1&#45;&gt;n4 -->
<g id="edge3" class="edge">
<title>n1&#45;&gt;n4</title>
<path fill="none" stroke="black" d="M619.01,-365.93C698.84,-343.96 837.27,-305.86 921.47,-282.69"/>
<polygon fill="black" stroke="black" points="922.5,-286.04 931.21,-280.01 920.64,-279.29 922.5,-286.04"/>
</g>
<!-- n5 -->
<g id="node5" class="node">
<title>n5</title>
<path fill="palegreen" stroke="black" d="M210,-158C210,-158 12,-158 12,-158 6,-158 0,-152 0,-146 0,-146 0,-134 0,-134 0,-128 6,-122 12,-122 12,-122 210,-122 210,-122 216,-122 222,-128 222,-134 222,-134 222,-146 222,-146 222,-152 216,-158 210,-158"/>
<text text-anchor="middle" x="111" y="-136.3" font-family="Arial" font-size="14.00">Understands that ice is solid water</text>
</g>
<!-- n2&#45;&gt;n5 -->
<g id="edge4" class="edge">
<title>n2&#45;&gt;n5</title>
<path fill="none" stroke="black" d="M188.11,-243.81C172.87,-223.49 147.38,-189.51 129.91,-166.21"/>
<polygon fill="black" stroke="black" points="132.67,-164.06 123.87,-158.16 127.07,-168.26 132.67,-164.06"/>
</g>
<!-- n6 -->
<g id="node6" class="node">
<title>n6</title>
<polygon fill="lightcoral" stroke="black" points="557,-158 280.17,-140 557,-122 833.83,-140 557,-158"/>
<text text-anchor="middle" x="557" y="-136.3" font-family="Arial" font-size="14.00">Misunderstands process of melting/evaporation</text>
</g>
<!-- n3&#45;&gt;n6 -->
<g id="edge5" class="edge">
<title>n3&#45;&gt;n6</title>
<path fill="none" stroke="black" d="M557,-243.81C557,-224.11 557,-191.58 557,-168.39"/>
<polygon fill="black" stroke="black" points="560.5,-168.16 557,-158.16 553.5,-168.16 560.5,-168.16"/>
</g>
<!-- n7 -->
<g id="node7" class="node">
<title>n7</title>
<polygon fill="lightcoral" stroke="black" points="1142,-158 891.98,-140 1142,-122 1392.02,-140 1142,-158"/>
<text text-anchor="middle" x="1142" y="-136.3" font-family="Arial" font-size="14.00">Misunderstands the concept of reversibility</text>
</g>
<!-- n4&#45;&gt;n7 -->
<g id="edge6" class="edge">
<title>n4&#45;&gt;n7</title>
<path fill="none" stroke="black" d="M1014.3,-243.81C1040.7,-222.57 1085.6,-186.41 1114.5,-163.13"/>
<polygon fill="black" stroke="black" points="1116.99,-165.62 1122.6,-156.63 1112.61,-160.16 1116.99,-165.62"/>
</g>
<!-- n8 -->
<g id="node8" class="node">
<title>n8</title>
<polygon fill="#f28e8e" stroke="black" points="679.5,-36 434.5,-36 434.5,0 679.5,0 679.5,-36"/>
<text text-anchor="middle" x="557" y="-14.3" font-family="Arial" font-size="14.00">Add arrows to indicate heating/cooling</text>
</g>
<!-- n6&#45;&gt;n8 -->
<g id="edge7" class="edge">
<title>n6&#45;&gt;n8</title>
<path fill="none" stroke="black" d="M557,-121.81C557,-102.11 557,-69.58 557,-46.39"/>
<polygon fill="black" stroke="black" points="560.5,-46.16 557,-36.16 553.5,-46.16 560.5,-46.16"/>
</g>
<!-- n9 -->
<g id="node9" class="node">
<title>n9</title>
<polygon fill="#f28e8e" stroke="black" points="1272,-36 1012,-36 1012,0 1272,0 1272,-36"/>
<text text-anchor="middle" x="1142" y="-14.3" font-family="Arial" font-size="14.00">Include labels to show reversible change</text>
</g>
<!-- n7&#45;&gt;n9 -->
<g id="edge8" class="edge">
<title>n7&#45;&gt;n9</title>
<path fill="none" stroke="black" d="M1142,-121.81C1142,-102.11 1142,-69.58 1142,-46.39"/>
<polygon fill="black" stroke="black" points="1145.5,-46.16 1142,-36.16 1138.5,-46.16 1145.5,-46.16"/>
</g>
</g>
</svg>
