<?xml version="1.0" encoding="UTF-8" standalone="no"?>
<!DOCTYPE svg PUBLIC "-//W3C//DTD SVG 1.1//EN"
 "http://www.w3.org/Graphics/SVG/1.1/DTD/svg11.dtd">
<!-- Generated by graphviz version 2.43.0 (0)
 -->
<!-- Pages: 1 -->
<svg width="1713pt" height="410pt"
 viewBox="0.00 0.00 1713.00 410.00" xmlns="http://www.w3.org/2000/svg" xmlns:xlink="http://www.w3.org/1999/xlink">
<g id="graph0" class="graph" transform="scale(1 1) rotate(0) translate(4 406)">
<polygon fill="white" stroke="transparent" points="-4,4 -4,-406 1709,-406 1709,4 -4,4"/>
<!-- n1 -->
<g id="node1" class="node">
<title>n1</title>
<polygon fill="lightblue" stroke="black" points="844,-384 732.5,-402 509.5,-402 398,-384 509.5,-366 732.5,-366 844,-384"/>
<text text-anchor="middle" x="621" y="-380.3" font-family="Arial" font-size="14.00">Draw a string telephone between two students.</text>
</g>
<!-- n2 -->
<g id="node2" class="node">
<title>n2</title>
<polygon fill="#fffdd0" stroke="black" points="269,-280 45,-280 45,-244 269,-244 269,-280"/>
<text text-anchor="middle" x="157" y="-258.3" font-family="Arial" font-size="14.00">Two stick figure students with cups</text>
</g>
<!-- n1&#45;&gt;n2 -->
<g id="edge1" class="edge">
<title>n1&#45;&gt;n2</title>
<path fill="none" stroke="black" d="M555.01,-365.93C469.88,-343.92 322.13,-305.71 232.58,-282.55"/>
<polygon fill="black" stroke="black" points="233.32,-279.13 222.76,-280.01 231.56,-285.9 233.32,-279.13"/>
</g>
<!-- n3 -->
<g id="node3" class="node">
<title>n3</title>
<polygon fill="#fffdd0" stroke="black" points="591,-280 327,-280 327,-244 591,-244 591,-280"/>
<text text-anchor="middle" x="459" y="-258.3" font-family="Arial" font-size="14.00">Straight, thin line connecting cups (string)</text>
</g>
<!-- n1&#45;&gt;n3 -->
<g id="edge2" class="edge">
<title>n1&#45;&gt;n3</title>
<path fill="none" stroke="black" d="M597.79,-365.81C569.64,-344.96 522.06,-309.71 490.59,-286.4"/>
<polygon fill="black" stroke="black" points="492.29,-283.3 482.17,-280.16 488.12,-288.93 492.29,-283.3"/>
</g>
<!-- n4 -->
<g id="node4" class="node">
<title>n4</title>
<polygon fill="#fffdd0" stroke="black" points="919,-280 649,-280 649,-244 919,-244 919,-280"/>
<text text-anchor="middle" x="784" y="-258.3" font-family="Arial" font-size="14.00">Arrows on string representing sound travel</text>
</g>
<!-- n1&#45;&gt;n4 -->
<g id="edge3" class="edge">
<title>n1&#45;&gt;n4</title>
<path fill="none" stroke="black" d="M644.35,-365.81C672.8,-344.87 720.96,-309.41 752.62,-286.1"/>
<polygon fill="black" stroke="black" points="754.71,-288.91 760.69,-280.16 750.56,-283.27 754.71,-288.91"/>
</g>
<!-- n5 -->
<g id="node5" class="node">
<title>n5</title>
<polygon fill="#fffdd0" stroke="black" points="1365.5,-280 1172.5,-280 1172.5,-244 1365.5,-244 1365.5,-280"/>
<text text-anchor="middle" x="1269" y="-258.3" font-family="Arial" font-size="14.00">Labeled with &#39;cup&#39; and &#39;string&#39;</text>
</g>
<!-- n1&#45;&gt;n5 -->
<g id="edge4" class="edge">
<title>n1&#45;&gt;n5</title>
<path fill="none" stroke="black" d="M712.81,-366C832.81,-343.78 1042.3,-304.98 1167.1,-281.87"/>
<polygon fill="black" stroke="black" points="1167.9,-285.28 1177.1,-280.03 1166.63,-278.4 1167.9,-285.28"/>
</g>
<!-- n6 -->
<g id="node6" class="node">
<title>n6</title>
<path fill="palegreen" stroke="black" d="M302,-158C302,-158 12,-158 12,-158 6,-158 0,-152 0,-146 0,-146 0,-134 0,-134 0,-128 6,-122 12,-122 12,-122 302,-122 302,-122 308,-122 314,-128 314,-134 314,-134 314,-146 314,-146 314,-152 308,-158 302,-158"/>
<text text-anchor="middle" x="157" y="-136.3" font-family="Arial" font-size="14.00">Understanding of basic design for communication</text>
</g>
<!-- n2&#45;&gt;n6 -->
<g id="edge5" class="edge">
<title>n2&#45;&gt;n6</title>
<path fill="none" stroke="black" d="M157,-243.81C157,-224.11 157,-191.58 157,-168.39"/>
<polygon fill="black" stroke="black" points="160.5,-168.16 157,-158.16 153.5,-168.16 160.5,-168.16"/>
</g>
<!-- n3&#45;&gt;n6 -->
<g id="edge6" class="edge">
<title>n3&#45;&gt;n6</title>
<path fill="none" stroke="black" d="M416.05,-243.93C361.6,-222.3 267.78,-185.02 209.24,-161.76"/>
<polygon fill="black" stroke="black" points="210.39,-158.45 199.8,-158.01 207.8,-164.95 210.39,-158.45"/>
</g>
<!-- n7 -->
<g id="node7" class="node">
<title>n7</title>
<path fill="palegreen" stroke="black" d="M661.5,-158C661.5,-158 384.5,-158 384.5,-158 378.5,-158 372.5,-152 372.5,-146 372.5,-146 372.5,-134 372.5,-134 372.5,-128 378.5,-122 384.5,-122 384.5,-122 661.5,-122 661.5,-122 667.5,-122 673.5,-128 673.5,-134 673.5,-134 673.5,-146 673.5,-146 673.5,-152 667.5,-158 661.5,-158"/>
<text text-anchor="middle" x="523" y="-136.3" font-family="Arial" font-size="14.00">Understanding of sound traveling through string</text>
</g>
<!-- n4&#45;&gt;n7 -->
<g id="edge7" class="edge">
<title>n4&#45;&gt;n7</title>
<path fill="none" stroke="black" d="M746.88,-243.93C700.11,-222.43 619.74,-185.48 569.09,-162.19"/>
<polygon fill="black" stroke="black" points="570.54,-159 559.99,-158.01 567.62,-165.36 570.54,-159"/>
</g>
<!-- n8 -->
<g id="node8" class="node">
<title>n8</title>
<polygon fill="lightcoral" stroke="black" points="948,-158 731,-140 948,-122 1165,-140 948,-158"/>
<text text-anchor="middle" x="948" y="-136.3" font-family="Arial" font-size="14.00">Partial depiction of sound movement</text>
</g>
<!-- n4&#45;&gt;n8 -->
<g id="edge8" class="edge">
<title>n4&#45;&gt;n8</title>
<path fill="none" stroke="black" d="M807.5,-243.81C836.72,-222.42 886.64,-185.9 918.43,-162.63"/>
<polygon fill="black" stroke="black" points="920.88,-165.18 926.89,-156.45 916.75,-159.52 920.88,-165.18"/>
</g>
<!-- n9 -->
<g id="node9" class="node">
<title>n9</title>
<polygon fill="lightcoral" stroke="black" points="1464,-158 1223,-140 1464,-122 1705,-140 1464,-158"/>
<text text-anchor="middle" x="1464" y="-136.3" font-family="Arial" font-size="14.00">Basic labeling; lacks detailed explanation</text>
</g>
<!-- n5&#45;&gt;n9 -->
<g id="edge9" class="edge">
<title>n5&#45;&gt;n9</title>
<path fill="none" stroke="black" d="M1296.9,-243.81C1332.2,-222.09 1392.9,-184.75 1430.6,-161.55"/>
<polygon fill="black" stroke="black" points="1432.52,-164.48 1439.2,-156.26 1428.85,-158.52 1432.52,-164.48"/>
</g>
<!-- n10 -->
<g id="node10" class="node">
<title>n10</title>
<polygon fill="#f28e8e" stroke="black" points="1102,-36 794,-36 794,0 1102,0 1102,-36"/>
<text text-anchor="middle" x="948" y="-14.3" font-family="Arial" font-size="14.00">Include more direction indicators for sound travel</text>
</g>
<!-- n8&#45;&gt;n10 -->
<g id="edge10" class="edge">
<title>n8&#45;&gt;n10</title>
<path fill="none" stroke="black" d="M948,-121.81C948,-102.11 948,-69.58 948,-46.39"/>
<polygon fill="black" stroke="black" points="951.5,-46.16 948,-36.16 944.5,-46.16 951.5,-46.16"/>
</g>
<!-- n11 -->
<g id="node11" class="node">
<title>n11</title>
<polygon fill="#f28e8e" stroke="black" points="1574,-36 1354,-36 1354,0 1574,0 1574,-36"/>
<text text-anchor="middle" x="1464" y="-14.3" font-family="Arial" font-size="14.00">Encourage fuller label explanation</text>
</g>
<!-- n9&#45;&gt;n11 -->
<g id="edge11" class="edge">
<title>n9&#45;&gt;n11</title>
<path fill="none" stroke="black" d="M1464,-121.81C1464,-102.11 1464,-69.58 1464,-46.39"/>
<polygon fill="black" stroke="black" points="1467.5,-46.16 1464,-36.16 1460.5,-46.16 1467.5,-46.16"/>
</g>
</g>
</svg>
