<?xml version="1.0" encoding="UTF-8" standalone="no"?>
<!DOCTYPE svg PUBLIC "-//W3C//DTD SVG 1.1//EN"
 "http://www.w3.org/Graphics/SVG/1.1/DTD/svg11.dtd">
<!-- Generated by graphviz version 2.43.0 (0)
 -->
<!-- Pages: 1 -->
<svg width="1434pt" height="410pt"
 viewBox="0.00 0.00 1434.00 410.00" xmlns="http://www.w3.org/2000/svg" xmlns:xlink="http://www.w3.org/1999/xlink">
<g id="graph0" class="graph" transform="scale(1 1) rotate(0) translate(4 406)">
<polygon fill="white" stroke="transparent" points="-4,4 -4,-406 1430,-406 1430,4 -4,4"/>
<!-- n1 -->
<g id="node1" class="node">
<title>n1</title>
<polygon fill="lightblue" stroke="black" points="908,-384 744,-402 416,-402 252,-384 416,-366 744,-366 908,-384"/>
<text text-anchor="middle" x="580" y="-380.3" font-family="Arial" font-size="14.00">Draw reversible and irreversible changes (ice melting vs. egg cooking)</text>
</g>
<!-- n2 -->
<g id="node2" class="node">
<title>n2</title>
<polygon fill="#fffdd0" stroke="black" points="318.5,-280 49.5,-280 49.5,-244 318.5,-244 318.5,-280"/>
<text text-anchor="middle" x="184" y="-258.3" font-family="Arial" font-size="14.00">Ice cube melting into a puddle with arrows</text>
</g>
<!-- n1&#45;&gt;n2 -->
<g id="edge1" class="edge">
<title>n1&#45;&gt;n2</title>
<path fill="none" stroke="black" d="M523.68,-365.93C451.55,-344.07 326.72,-306.25 250.14,-283.04"/>
<polygon fill="black" stroke="black" points="250.71,-279.55 240.12,-280.01 248.68,-286.25 250.71,-279.55"/>
</g>
<!-- n3 -->
<g id="node3" class="node">
<title>n3</title>
<polygon fill="#fffdd0" stroke="black" points="729.5,-280 430.5,-280 430.5,-244 729.5,-244 729.5,-280"/>
<text text-anchor="middle" x="580" y="-258.3" font-family="Arial" font-size="14.00">Raw and cooked egg depicted without symbols</text>
</g>
<!-- n1&#45;&gt;n3 -->
<g id="edge2" class="edge">
<title>n1&#45;&gt;n3</title>
<path fill="none" stroke="black" d="M580,-365.81C580,-346.11 580,-313.58 580,-290.39"/>
<polygon fill="black" stroke="black" points="583.5,-290.16 580,-280.16 576.5,-290.16 583.5,-290.16"/>
</g>
<!-- n4 -->
<g id="node4" class="node">
<title>n4</title>
<polygon fill="#fffdd0" stroke="black" points="1112,-280 930,-280 930,-244 1112,-244 1112,-280"/>
<text text-anchor="middle" x="1021" y="-258.3" font-family="Arial" font-size="14.00">Sun symbol above ice cube</text>
</g>
<!-- n1&#45;&gt;n4 -->
<g id="edge3" class="edge">
<title>n1&#45;&gt;n4</title>
<path fill="none" stroke="black" d="M642.72,-365.93C723.46,-343.96 863.49,-305.86 948.65,-282.69"/>
<polygon fill="black" stroke="black" points="949.77,-286.01 958.5,-280.01 947.93,-279.26 949.77,-286.01"/>
</g>
<!-- n5 -->
<g id="node5" class="node">
<title>n5</title>
<path fill="palegreen" stroke="black" d="M248,-158C248,-158 12,-158 12,-158 6,-158 0,-152 0,-146 0,-146 0,-134 0,-134 0,-128 6,-122 12,-122 12,-122 248,-122 248,-122 254,-122 260,-128 260,-134 260,-134 260,-146 260,-146 260,-152 254,-158 248,-158"/>
<text text-anchor="middle" x="130" y="-136.3" font-family="Arial" font-size="14.00">Arrows indicate reversible change for ice</text>
</g>
<!-- n2&#45;&gt;n5 -->
<g id="edge4" class="edge">
<title>n2&#45;&gt;n5</title>
<path fill="none" stroke="black" d="M176.26,-243.81C167.28,-223.85 152.36,-190.7 141.9,-167.45"/>
<polygon fill="black" stroke="black" points="145.02,-165.84 137.72,-158.16 138.63,-168.72 145.02,-165.84"/>
</g>
<!-- n6 -->
<g id="node6" class="node">
<title>n6</title>
<polygon fill="lightcoral" stroke="black" points="580,-158 318,-140 580,-122 842,-140 580,-158"/>
<text text-anchor="middle" x="580" y="-136.3" font-family="Arial" font-size="14.00">Irreversible change of egg not clearly labeled</text>
</g>
<!-- n3&#45;&gt;n6 -->
<g id="edge5" class="edge">
<title>n3&#45;&gt;n6</title>
<path fill="none" stroke="black" d="M580,-243.81C580,-224.11 580,-191.58 580,-168.39"/>
<polygon fill="black" stroke="black" points="583.5,-168.16 580,-158.16 576.5,-168.16 583.5,-168.16"/>
</g>
<!-- n7 -->
<g id="node7" class="node">
<title>n7</title>
<polygon fill="lightcoral" stroke="black" points="1163,-158 900,-140 1163,-122 1426,-140 1163,-158"/>
<text text-anchor="middle" x="1163" y="-136.3" font-family="Arial" font-size="14.00">Sun indicates heating but no freezing symbol</text>
</g>
<!-- n4&#45;&gt;n7 -->
<g id="edge6" class="edge">
<title>n4&#45;&gt;n7</title>
<path fill="none" stroke="black" d="M1041.3,-243.81C1066.3,-222.69 1108.8,-186.81 1136.4,-163.52"/>
<polygon fill="black" stroke="black" points="1138.72,-166.14 1144.1,-157.01 1134.2,-160.79 1138.72,-166.14"/>
</g>
<!-- n8 -->
<g id="node8" class="node">
<title>n8</title>
<polygon fill="#f28e8e" stroke="black" points="731,-36 429,-36 429,0 731,0 731,-36"/>
<text text-anchor="middle" x="580" y="-14.3" font-family="Arial" font-size="14.00">Add symbols to show egg change is irreversible</text>
</g>
<!-- n6&#45;&gt;n8 -->
<g id="edge7" class="edge">
<title>n6&#45;&gt;n8</title>
<path fill="none" stroke="black" d="M580,-121.81C580,-102.11 580,-69.58 580,-46.39"/>
<polygon fill="black" stroke="black" points="583.5,-46.16 580,-36.16 576.5,-46.16 583.5,-46.16"/>
</g>
<!-- n9 -->
<g id="node9" class="node">
<title>n9</title>
<polygon fill="#f28e8e" stroke="black" points="1343.5,-36 982.5,-36 982.5,0 1343.5,0 1343.5,-36"/>
<text text-anchor="middle" x="1163" y="-14.3" font-family="Arial" font-size="14.00">Include freezing symbols to emphasize reversible change</text>
</g>
<!-- n7&#45;&gt;n9 -->
<g id="edge8" class="edge">
<title>n7&#45;&gt;n9</title>
<path fill="none" stroke="black" d="M1163,-121.81C1163,-102.11 1163,-69.58 1163,-46.39"/>
<polygon fill="black" stroke="black" points="1166.5,-46.16 1163,-36.16 1159.5,-46.16 1166.5,-46.16"/>
</g>
</g>
</svg>
