<?xml version="1.0" encoding="UTF-8" standalone="no"?>
<!DOCTYPE svg PUBLIC "-//W3C//DTD SVG 1.1//EN"
 "http://www.w3.org/Graphics/SVG/1.1/DTD/svg11.dtd">
<!-- Generated by graphviz version 2.43.0 (0)
 -->
<!-- Pages: 1 -->
<svg width="1078pt" height="410pt"
 viewBox="0.00 0.00 1077.50 410.00" xmlns="http://www.w3.org/2000/svg" xmlns:xlink="http://www.w3.org/1999/xlink">
<g id="graph0" class="graph" transform="scale(1 1) rotate(0) translate(4 406)">
<polygon fill="white" stroke="transparent" points="-4,4 -4,-406 1073.5,-406 1073.5,4 -4,4"/>
<!-- n1 -->
<g id="node1" class="node">
<title>n1</title>
<polygon fill="lightblue" stroke="black" points="577.5,-384 485.5,-402 301.5,-402 209.5,-384 301.5,-366 485.5,-366 577.5,-384"/>
<text text-anchor="middle" x="393.5" y="-380.3" font-family="Arial" font-size="14.00">Illustrate plants with and without water</text>
</g>
<!-- n2 -->
<g id="node2" class="node">
<title>n2</title>
<polygon fill="#fffdd0" stroke="black" points="236.5,-280 8.5,-280 8.5,-244 236.5,-244 236.5,-280"/>
<text text-anchor="middle" x="122.5" y="-258.3" font-family="Arial" font-size="14.00">Two simple green plant&#45;like shapes</text>
</g>
<!-- n1&#45;&gt;n2 -->
<g id="edge1" class="edge">
<title>n1&#45;&gt;n2</title>
<path fill="none" stroke="black" d="M354.96,-365.93C306.4,-344.43 222.95,-307.48 170.35,-284.19"/>
<polygon fill="black" stroke="black" points="171.47,-280.86 160.91,-280.01 168.64,-287.26 171.47,-280.86"/>
</g>
<!-- n3 -->
<g id="node3" class="node">
<title>n3</title>
<polygon fill="#fffdd0" stroke="black" points="481.5,-280 305.5,-280 305.5,-244 481.5,-244 481.5,-280"/>
<text text-anchor="middle" x="393.5" y="-258.3" font-family="Arial" font-size="14.00">Bright yellow sun with rays</text>
</g>
<!-- n1&#45;&gt;n3 -->
<g id="edge2" class="edge">
<title>n1&#45;&gt;n3</title>
<path fill="none" stroke="black" d="M393.5,-365.81C393.5,-346.11 393.5,-313.58 393.5,-290.39"/>
<polygon fill="black" stroke="black" points="397,-290.16 393.5,-280.16 390,-290.16 397,-290.16"/>
</g>
<!-- n4 -->
<g id="node4" class="node">
<title>n4</title>
<polygon fill="#fffdd0" stroke="black" points="858,-280 619,-280 619,-244 858,-244 858,-280"/>
<text text-anchor="middle" x="738.5" y="-258.3" font-family="Arial" font-size="14.00">No visible differences between plants</text>
</g>
<!-- n1&#45;&gt;n4 -->
<g id="edge3" class="edge">
<title>n1&#45;&gt;n4</title>
<path fill="none" stroke="black" d="M442.56,-365.93C505.15,-344.16 613.28,-306.56 680.06,-283.33"/>
<polygon fill="black" stroke="black" points="681.31,-286.6 689.61,-280.01 679.02,-279.99 681.31,-286.6"/>
</g>
<!-- n5 -->
<g id="node5" class="node">
<title>n5</title>
<path fill="palegreen" stroke="black" d="M209,-158C209,-158 12,-158 12,-158 6,-158 0,-152 0,-146 0,-146 0,-134 0,-134 0,-128 6,-122 12,-122 12,-122 209,-122 209,-122 215,-122 221,-128 221,-134 221,-134 221,-146 221,-146 221,-152 215,-158 209,-158"/>
<text text-anchor="middle" x="110.5" y="-136.3" font-family="Arial" font-size="14.00">Understands basics of plant forms</text>
</g>
<!-- n2&#45;&gt;n5 -->
<g id="edge4" class="edge">
<title>n2&#45;&gt;n5</title>
<path fill="none" stroke="black" d="M120.78,-243.81C118.81,-224.11 115.56,-191.58 113.24,-168.39"/>
<polygon fill="black" stroke="black" points="116.69,-167.76 112.22,-158.16 109.73,-168.46 116.69,-167.76"/>
</g>
<!-- n6 -->
<g id="node6" class="node">
<title>n6</title>
<path fill="palegreen" stroke="black" d="M496,-158C496,-158 291,-158 291,-158 285,-158 279,-152 279,-146 279,-146 279,-134 279,-134 279,-128 285,-122 291,-122 291,-122 496,-122 496,-122 502,-122 508,-128 508,-134 508,-134 508,-146 508,-146 508,-152 502,-158 496,-158"/>
<text text-anchor="middle" x="393.5" y="-136.3" font-family="Arial" font-size="14.00">Includes sunlight in plant illustration</text>
</g>
<!-- n3&#45;&gt;n6 -->
<g id="edge5" class="edge">
<title>n3&#45;&gt;n6</title>
<path fill="none" stroke="black" d="M393.5,-243.81C393.5,-224.11 393.5,-191.58 393.5,-168.39"/>
<polygon fill="black" stroke="black" points="397,-168.16 393.5,-158.16 390,-168.16 397,-168.16"/>
</g>
<!-- n7 -->
<g id="node7" class="node">
<title>n7</title>
<polygon fill="lightcoral" stroke="black" points="817.5,-158 565.5,-140 817.5,-122 1069.5,-140 817.5,-158"/>
<text text-anchor="middle" x="817.5" y="-136.3" font-family="Arial" font-size="14.00">Struggles to show effects of water absence</text>
</g>
<!-- n4&#45;&gt;n7 -->
<g id="edge6" class="edge">
<title>n4&#45;&gt;n7</title>
<path fill="none" stroke="black" d="M749.82,-243.81C763.23,-223.44 785.68,-189.34 801.01,-166.04"/>
<polygon fill="black" stroke="black" points="804.13,-167.67 806.71,-157.39 798.29,-163.81 804.13,-167.67"/>
</g>
<!-- n8 -->
<g id="node8" class="node">
<title>n8</title>
<polygon fill="#f28e8e" stroke="black" points="972.5,-36 662.5,-36 662.5,0 972.5,0 972.5,-36"/>
<text text-anchor="middle" x="817.5" y="-14.3" font-family="Arial" font-size="14.00">Feedback: Show wilting to indicate water scarcity</text>
</g>
<!-- n7&#45;&gt;n8 -->
<g id="edge7" class="edge">
<title>n7&#45;&gt;n8</title>
<path fill="none" stroke="black" d="M817.5,-121.81C817.5,-102.11 817.5,-69.58 817.5,-46.39"/>
<polygon fill="black" stroke="black" points="821,-46.16 817.5,-36.16 814,-46.16 821,-46.16"/>
</g>
</g>
</svg>
