<?xml version="1.0" encoding="UTF-8" standalone="no"?>
<!DOCTYPE svg PUBLIC "-//W3C//DTD SVG 1.1//EN"
 "http://www.w3.org/Graphics/SVG/1.1/DTD/svg11.dtd">
<!-- Generated by graphviz version 2.43.0 (0)
 -->
<!-- Pages: 1 -->
<svg width="1534pt" height="410pt"
 viewBox="0.00 0.00 1533.50 410.00" xmlns="http://www.w3.org/2000/svg" xmlns:xlink="http://www.w3.org/1999/xlink">
<g id="graph0" class="graph" transform="scale(1 1) rotate(0) translate(4 406)">
<polygon fill="white" stroke="transparent" points="-4,4 -4,-406 1529.5,-406 1529.5,4 -4,4"/>
<!-- n1 -->
<g id="node1" class="node">
<title>n1</title>
<polygon fill="lightblue" stroke="black" points="784.82,-384 662.41,-402 417.59,-402 295.18,-384 417.59,-366 662.41,-366 784.82,-384"/>
<text text-anchor="middle" x="540" y="-380.3" font-family="Arial" font-size="14.00">Draw a habitat and the different living things in each</text>
</g>
<!-- n2 -->
<g id="node2" class="node">
<title>n2</title>
<polygon fill="#fffdd0" stroke="black" points="190,-280 2,-280 2,-244 190,-244 190,-280"/>
<text text-anchor="middle" x="96" y="-258.3" font-family="Arial" font-size="14.00">Forest with trees and a pond</text>
</g>
<!-- n1&#45;&gt;n2 -->
<g id="edge1" class="edge">
<title>n1&#45;&gt;n2</title>
<path fill="none" stroke="black" d="M476.86,-365.93C395.48,-343.94 254.3,-305.78 168.58,-282.62"/>
<polygon fill="black" stroke="black" points="169.5,-279.24 158.93,-280.01 167.67,-286 169.5,-279.24"/>
</g>
<!-- n3 -->
<g id="node3" class="node">
<title>n3</title>
<polygon fill="#fffdd0" stroke="black" points="430,-280 248,-280 248,-244 430,-244 430,-280"/>
<text text-anchor="middle" x="339" y="-258.3" font-family="Arial" font-size="14.00">Beach with sand and ocean</text>
</g>
<!-- n1&#45;&gt;n3 -->
<g id="edge2" class="edge">
<title>n1&#45;&gt;n3</title>
<path fill="none" stroke="black" d="M511.2,-365.81C475.83,-344.69 415.72,-308.81 376.7,-285.51"/>
<polygon fill="black" stroke="black" points="378.12,-282.28 367.74,-280.16 374.53,-288.29 378.12,-282.28"/>
</g>
<!-- n4 -->
<g id="node4" class="node">
<title>n4</title>
<polygon fill="#fffdd0" stroke="black" points="592,-280 488,-280 488,-244 592,-244 592,-280"/>
<text text-anchor="middle" x="540" y="-258.3" font-family="Arial" font-size="14.00">Squirrel in tree</text>
</g>
<!-- n1&#45;&gt;n4 -->
<g id="edge3" class="edge">
<title>n1&#45;&gt;n4</title>
<path fill="none" stroke="black" d="M540,-365.81C540,-346.11 540,-313.58 540,-290.39"/>
<polygon fill="black" stroke="black" points="543.5,-290.16 540,-280.16 536.5,-290.16 543.5,-290.16"/>
</g>
<!-- n5 -->
<g id="node5" class="node">
<title>n5</title>
<polygon fill="#fffdd0" stroke="black" points="1080.5,-280 901.5,-280 901.5,-244 1080.5,-244 1080.5,-280"/>
<text text-anchor="middle" x="991" y="-258.3" font-family="Arial" font-size="14.00">Fish in the pond and ocean</text>
</g>
<!-- n1&#45;&gt;n5 -->
<g id="edge4" class="edge">
<title>n1&#45;&gt;n5</title>
<path fill="none" stroke="black" d="M604.14,-365.93C686.8,-343.94 830.21,-305.78 917.27,-282.62"/>
<polygon fill="black" stroke="black" points="918.32,-285.96 927.08,-280.01 916.52,-279.2 918.32,-285.96"/>
</g>
<!-- n6 -->
<g id="node6" class="node">
<title>n6</title>
<polygon fill="#fffdd0" stroke="black" points="843.5,-280 650.5,-280 650.5,-244 843.5,-244 843.5,-280"/>
<text text-anchor="middle" x="747" y="-258.3" font-family="Arial" font-size="14.00">Bird flying above both scenes</text>
</g>
<!-- n1&#45;&gt;n6 -->
<g id="edge5" class="edge">
<title>n1&#45;&gt;n6</title>
<path fill="none" stroke="black" d="M569.66,-365.81C606.24,-344.6 668.51,-308.5 708.68,-285.21"/>
<polygon fill="black" stroke="black" points="710.5,-288.2 717.4,-280.16 706.99,-282.14 710.5,-288.2"/>
</g>
<!-- n7 -->
<g id="node7" class="node">
<title>n7</title>
<path fill="palegreen" stroke="black" d="M247,-158C247,-158 39,-158 39,-158 33,-158 27,-152 27,-146 27,-146 27,-134 27,-134 27,-128 33,-122 39,-122 39,-122 247,-122 247,-122 253,-122 259,-128 259,-134 259,-134 259,-146 259,-146 259,-152 253,-158 247,-158"/>
<text text-anchor="middle" x="143" y="-136.3" font-family="Arial" font-size="14.00">Understands basic habitat elements</text>
</g>
<!-- n2&#45;&gt;n7 -->
<g id="edge6" class="edge">
<title>n2&#45;&gt;n7</title>
<path fill="none" stroke="black" d="M102.73,-243.81C110.52,-223.94 123.42,-190.99 132.52,-167.76"/>
<polygon fill="black" stroke="black" points="135.89,-168.75 136.28,-158.16 129.37,-166.19 135.89,-168.75"/>
</g>
<!-- n3&#45;&gt;n7 -->
<g id="edge7" class="edge">
<title>n3&#45;&gt;n7</title>
<path fill="none" stroke="black" d="M310.92,-243.81C276.42,-222.69 217.82,-186.81 179.76,-163.51"/>
<polygon fill="black" stroke="black" points="181.39,-160.4 171.03,-158.16 177.73,-166.37 181.39,-160.4"/>
</g>
<!-- n8 -->
<g id="node8" class="node">
<title>n8</title>
<polygon fill="lightcoral" stroke="black" points="545,-158 358.32,-140 545,-122 731.68,-140 545,-158"/>
<text text-anchor="middle" x="545" y="-136.3" font-family="Arial" font-size="14.00">Limited diversity of living things</text>
</g>
<!-- n4&#45;&gt;n8 -->
<g id="edge8" class="edge">
<title>n4&#45;&gt;n8</title>
<path fill="none" stroke="black" d="M540.72,-243.81C541.54,-224.11 542.89,-191.58 543.86,-168.39"/>
<polygon fill="black" stroke="black" points="547.37,-168.3 544.28,-158.16 540.37,-168.01 547.37,-168.3"/>
</g>
<!-- n5&#45;&gt;n8 -->
<g id="edge9" class="edge">
<title>n5&#45;&gt;n8</title>
<path fill="none" stroke="black" d="M927.57,-243.93C840.33,-220.46 684.67,-178.58 601.33,-156.16"/>
<polygon fill="black" stroke="black" points="602.11,-152.74 591.54,-153.52 600.28,-159.5 602.11,-152.74"/>
</g>
<!-- n9 -->
<g id="node9" class="node">
<title>n9</title>
<polygon fill="lightcoral" stroke="black" points="1077,-158 880.1,-140 1077,-122 1273.9,-140 1077,-158"/>
<text text-anchor="middle" x="1077" y="-136.3" font-family="Arial" font-size="14.00">Struggles to differentiate habitats</text>
</g>
<!-- n5&#45;&gt;n9 -->
<g id="edge10" class="edge">
<title>n5&#45;&gt;n9</title>
<path fill="none" stroke="black" d="M1003.3,-243.81C1018.1,-223.23 1042.8,-188.65 1059.6,-165.34"/>
<polygon fill="black" stroke="black" points="1062.58,-167.19 1065.5,-157.01 1056.86,-163.15 1062.58,-167.19"/>
</g>
<!-- n6&#45;&gt;n8 -->
<g id="edge11" class="edge">
<title>n6&#45;&gt;n8</title>
<path fill="none" stroke="black" d="M718.06,-243.81C681.2,-221.91 617.61,-184.13 578.63,-160.98"/>
<polygon fill="black" stroke="black" points="580.14,-157.81 569.76,-155.71 576.57,-163.83 580.14,-157.81"/>
</g>
<!-- n10 -->
<g id="node10" class="node">
<title>n10</title>
<polygon fill="#f28e8e" stroke="black" points="744,-36 0,-36 0,0 744,0 744,-36"/>
<text text-anchor="middle" x="372" y="-14.3" font-family="Arial" font-size="14.00">Introduce more examples of unique animals and plants for each habitat, such as a crab on the beach or frogs in the pond.</text>
</g>
<!-- n8&#45;&gt;n10 -->
<g id="edge12" class="edge">
<title>n8&#45;&gt;n10</title>
<path fill="none" stroke="black" d="M523.44,-124.04C493.71,-103.43 439.87,-66.08 405.05,-41.92"/>
<polygon fill="black" stroke="black" points="406.84,-38.91 396.63,-36.08 402.85,-44.66 406.84,-38.91"/>
</g>
<!-- n11 -->
<g id="node11" class="node">
<title>n11</title>
<polygon fill="#f28e8e" stroke="black" points="1525.5,-36 802.5,-36 802.5,0 1525.5,0 1525.5,-36"/>
<text text-anchor="middle" x="1164" y="-14.3" font-family="Arial" font-size="14.00">Explain differences between freshwater and saltwater habitats to help understand why some animals can’t live in both.</text>
</g>
<!-- n9&#45;&gt;n11 -->
<g id="edge13" class="edge">
<title>n9&#45;&gt;n11</title>
<path fill="none" stroke="black" d="M1088.7,-122.82C1103.4,-102.65 1128.5,-67.95 1145.7,-44.27"/>
<polygon fill="black" stroke="black" points="1148.59,-46.25 1151.6,-36.09 1142.91,-42.15 1148.59,-46.25"/>
</g>
</g>
</svg>
