<?xml version="1.0" encoding="UTF-8" standalone="no"?>
<!DOCTYPE svg PUBLIC "-//W3C//DTD SVG 1.1//EN"
 "http://www.w3.org/Graphics/SVG/1.1/DTD/svg11.dtd">
<!-- Generated by graphviz version 2.43.0 (0)
 -->
<!-- Pages: 1 -->
<svg width="1833pt" height="410pt"
 viewBox="0.00 0.00 1833.00 410.00" xmlns="http://www.w3.org/2000/svg" xmlns:xlink="http://www.w3.org/1999/xlink">
<g id="graph0" class="graph" transform="scale(1 1) rotate(0) translate(4 406)">
<polygon fill="white" stroke="transparent" points="-4,4 -4,-406 1829,-406 1829,4 -4,4"/>
<!-- n1 -->
<g id="node1" class="node">
<title>n1</title>
<polygon fill="lightblue" stroke="black" points="1239.37,-384 1098.18,-402 815.82,-402 674.63,-384 815.82,-366 1098.18,-366 1239.37,-384"/>
<text text-anchor="middle" x="957" y="-380.3" font-family="Arial" font-size="14.00">Draw animals in their habitats with labels (e.g., fish in water)</text>
</g>
<!-- n2 -->
<g id="node2" class="node">
<title>n2</title>
<polygon fill="#fffdd0" stroke="black" points="670,-280 466,-280 466,-244 670,-244 670,-280"/>
<text text-anchor="middle" x="568" y="-258.3" font-family="Arial" font-size="14.00">Fish labeled in wavy blue water</text>
</g>
<!-- n1&#45;&gt;n2 -->
<g id="edge1" class="edge">
<title>n1&#45;&gt;n2</title>
<path fill="none" stroke="black" d="M901.68,-365.93C830.82,-344.07 708.19,-306.25 632.97,-283.04"/>
<polygon fill="black" stroke="black" points="633.72,-279.61 623.13,-280.01 631.66,-286.3 633.72,-279.61"/>
</g>
<!-- n3 -->
<g id="node3" class="node">
<title>n3</title>
<polygon fill="#fffdd0" stroke="black" points="1030,-280 884,-280 884,-244 1030,-244 1030,-280"/>
<text text-anchor="middle" x="957" y="-258.3" font-family="Arial" font-size="14.00">Tree with bird labeled</text>
</g>
<!-- n1&#45;&gt;n3 -->
<g id="edge2" class="edge">
<title>n1&#45;&gt;n3</title>
<path fill="none" stroke="black" d="M957,-365.81C957,-346.11 957,-313.58 957,-290.39"/>
<polygon fill="black" stroke="black" points="960.5,-290.16 957,-280.16 953.5,-290.16 960.5,-290.16"/>
</g>
<!-- n4 -->
<g id="node4" class="node">
<title>n4</title>
<polygon fill="#fffdd0" stroke="black" points="1257.5,-280 1134.5,-280 1134.5,-244 1257.5,-244 1257.5,-280"/>
<text text-anchor="middle" x="1196" y="-258.3" font-family="Arial" font-size="14.00">Sky labeled as air</text>
</g>
<!-- n1&#45;&gt;n4 -->
<g id="edge3" class="edge">
<title>n1&#45;&gt;n4</title>
<path fill="none" stroke="black" d="M990.99,-365.93C1033.5,-344.57 1106.5,-307.94 1152.9,-284.63"/>
<polygon fill="black" stroke="black" points="1154.73,-287.63 1162.1,-280.01 1151.59,-281.37 1154.73,-287.63"/>
</g>
<!-- n5 -->
<g id="node5" class="node">
<title>n5</title>
<path fill="palegreen" stroke="black" d="M266,-158C266,-158 12,-158 12,-158 6,-158 0,-152 0,-146 0,-146 0,-134 0,-134 0,-128 6,-122 12,-122 12,-122 266,-122 266,-122 272,-122 278,-128 278,-134 278,-134 278,-146 278,-146 278,-152 272,-158 266,-158"/>
<text text-anchor="middle" x="139" y="-136.3" font-family="Arial" font-size="14.00">Understands fish live in water environments</text>
</g>
<!-- n2&#45;&gt;n5 -->
<g id="edge4" class="edge">
<title>n2&#45;&gt;n5</title>
<path fill="none" stroke="black" d="M506.99,-243.93C428.52,-221.99 292.5,-183.94 209.63,-160.76"/>
<polygon fill="black" stroke="black" points="210.37,-157.33 199.8,-158.01 208.49,-164.07 210.37,-157.33"/>
</g>
<!-- n8 -->
<g id="node6" class="node">
<title>n8</title>
<polygon fill="lightcoral" stroke="black" points="568,-158 336.24,-140 568,-122 799.76,-140 568,-158"/>
<text text-anchor="middle" x="568" y="-136.3" font-family="Arial" font-size="14.00">Incomplete labeling of habitat elements</text>
</g>
<!-- n2&#45;&gt;n8 -->
<g id="edge5" class="edge">
<title>n2&#45;&gt;n8</title>
<path fill="none" stroke="black" d="M568,-243.81C568,-224.11 568,-191.58 568,-168.39"/>
<polygon fill="black" stroke="black" points="571.5,-168.16 568,-158.16 564.5,-168.16 571.5,-168.16"/>
</g>
<!-- n6 -->
<g id="node7" class="node">
<title>n6</title>
<path fill="palegreen" stroke="black" d="M1044,-158C1044,-158 870,-158 870,-158 864,-158 858,-152 858,-146 858,-146 858,-134 858,-134 858,-128 864,-122 870,-122 870,-122 1044,-122 1044,-122 1050,-122 1056,-128 1056,-134 1056,-134 1056,-146 1056,-146 1056,-152 1050,-158 1044,-158"/>
<text text-anchor="middle" x="957" y="-136.3" font-family="Arial" font-size="14.00">Understands birds live in trees</text>
</g>
<!-- n3&#45;&gt;n6 -->
<g id="edge6" class="edge">
<title>n3&#45;&gt;n6</title>
<path fill="none" stroke="black" d="M957,-243.81C957,-224.11 957,-191.58 957,-168.39"/>
<polygon fill="black" stroke="black" points="960.5,-168.16 957,-158.16 953.5,-168.16 960.5,-168.16"/>
</g>
<!-- n7 -->
<g id="node8" class="node">
<title>n7</title>
<path fill="palegreen" stroke="black" d="M1355.5,-158C1355.5,-158 1126.5,-158 1126.5,-158 1120.5,-158 1114.5,-152 1114.5,-146 1114.5,-146 1114.5,-134 1114.5,-134 1114.5,-128 1120.5,-122 1126.5,-122 1126.5,-122 1355.5,-122 1355.5,-122 1361.5,-122 1367.5,-128 1367.5,-134 1367.5,-134 1367.5,-146 1367.5,-146 1367.5,-152 1361.5,-158 1355.5,-158"/>
<text text-anchor="middle" x="1241" y="-136.3" font-family="Arial" font-size="14.00">Understands the need for air in habitats</text>
</g>
<!-- n4&#45;&gt;n7 -->
<g id="edge7" class="edge">
<title>n4&#45;&gt;n7</title>
<path fill="none" stroke="black" d="M1202.4,-243.81C1209.9,-223.94 1222.3,-190.99 1231,-167.76"/>
<polygon fill="black" stroke="black" points="1234.37,-168.75 1234.6,-158.16 1227.81,-166.29 1234.37,-168.75"/>
</g>
<!-- n9 -->
<g id="node9" class="node">
<title>n9</title>
<polygon fill="#f28e8e" stroke="black" points="783.5,-36 352.5,-36 352.5,0 783.5,0 783.5,-36"/>
<text text-anchor="middle" x="568" y="-14.3" font-family="Arial" font-size="14.00">Include more habitat elements such as soil and less necessary labels</text>
</g>
<!-- n8&#45;&gt;n9 -->
<g id="edge8" class="edge">
<title>n8&#45;&gt;n9</title>
<path fill="none" stroke="black" d="M568,-121.81C568,-102.11 568,-69.58 568,-46.39"/>
<polygon fill="black" stroke="black" points="571.5,-46.16 568,-36.16 564.5,-46.16 571.5,-46.16"/>
</g>
<!-- n10 -->
<g id="node10" class="node">
<title>n10</title>
<polygon fill="lightcoral" stroke="black" points="1561,-402 1297,-384 1561,-366 1825,-384 1561,-402"/>
<text text-anchor="middle" x="1561" y="-380.3" font-family="Arial" font-size="14.00">Omission of humans in natural environments</text>
</g>
<!-- n11 -->
<g id="node11" class="node">
<title>n11</title>
<polygon fill="#f28e8e" stroke="black" points="1714,-280 1408,-280 1408,-244 1714,-244 1714,-280"/>
<text text-anchor="middle" x="1561" y="-258.3" font-family="Arial" font-size="14.00">Integrate humans into drawings of environments</text>
</g>
<!-- n10&#45;&gt;n11 -->
<g id="edge9" class="edge">
<title>n10&#45;&gt;n11</title>
<path fill="none" stroke="black" d="M1561,-365.81C1561,-346.11 1561,-313.58 1561,-290.39"/>
<polygon fill="black" stroke="black" points="1564.5,-290.16 1561,-280.16 1557.5,-290.16 1564.5,-290.16"/>
</g>
</g>
</svg>
