<?xml version="1.0" encoding="UTF-8" standalone="no"?>
<!DOCTYPE svg PUBLIC "-//W3C//DTD SVG 1.1//EN"
 "http://www.w3.org/Graphics/SVG/1.1/DTD/svg11.dtd">
<!-- Generated by graphviz version 2.43.0 (0)
 -->
<!-- Pages: 1 -->
<svg width="1502pt" height="410pt"
 viewBox="0.00 0.00 1502.00 410.00" xmlns="http://www.w3.org/2000/svg" xmlns:xlink="http://www.w3.org/1999/xlink">
<g id="graph0" class="graph" transform="scale(1 1) rotate(0) translate(4 406)">
<polygon fill="white" stroke="transparent" points="-4,4 -4,-406 1498,-406 1498,4 -4,4"/>
<!-- n1 -->
<g id="node1" class="node">
<title>n1</title>
<polygon fill="lightblue" stroke="black" points="946.37,-384 805.18,-402 522.82,-402 381.63,-384 522.82,-366 805.18,-366 946.37,-384"/>
<text text-anchor="middle" x="664" y="-380.3" font-family="Arial" font-size="14.00">Draw animals in their habitats with labels (e.g., fish in water)</text>
</g>
<!-- n2 -->
<g id="node2" class="node">
<title>n2</title>
<polygon fill="#fffdd0" stroke="black" points="501.5,-280 272.5,-280 272.5,-244 501.5,-244 501.5,-280"/>
<text text-anchor="middle" x="387" y="-258.3" font-family="Arial" font-size="14.00">Forest habitat with deer and berries</text>
</g>
<!-- n1&#45;&gt;n2 -->
<g id="edge1" class="edge">
<title>n1&#45;&gt;n2</title>
<path fill="none" stroke="black" d="M624.61,-365.93C574.87,-344.39 489.32,-307.32 435.58,-284.04"/>
<polygon fill="black" stroke="black" points="436.83,-280.77 426.26,-280.01 434.05,-287.19 436.83,-280.77"/>
</g>
<!-- n3 -->
<g id="node3" class="node">
<title>n3</title>
<polygon fill="#fffdd0" stroke="black" points="768.5,-280 559.5,-280 559.5,-244 768.5,-244 768.5,-280"/>
<text text-anchor="middle" x="664" y="-258.3" font-family="Arial" font-size="14.00">Pond habitat with fish and reeds</text>
</g>
<!-- n1&#45;&gt;n3 -->
<g id="edge2" class="edge">
<title>n1&#45;&gt;n3</title>
<path fill="none" stroke="black" d="M664,-365.81C664,-346.11 664,-313.58 664,-290.39"/>
<polygon fill="black" stroke="black" points="667.5,-290.16 664,-280.16 660.5,-290.16 667.5,-290.16"/>
</g>
<!-- n4 -->
<g id="node4" class="node">
<title>n4</title>
<polygon fill="#fffdd0" stroke="black" points="1077,-280 827,-280 827,-244 1077,-244 1077,-280"/>
<text text-anchor="middle" x="952" y="-258.3" font-family="Arial" font-size="14.00">Field habitat with rabbit and sunflowers</text>
</g>
<!-- n1&#45;&gt;n4 -->
<g id="edge3" class="edge">
<title>n1&#45;&gt;n4</title>
<path fill="none" stroke="black" d="M704.96,-365.93C756.78,-344.34 845.99,-307.17 901.84,-283.9"/>
<polygon fill="black" stroke="black" points="903.29,-287.09 911.18,-280.01 900.6,-280.62 903.29,-287.09"/>
</g>
<!-- n5 -->
<g id="node5" class="node">
<title>n5</title>
<path fill="palegreen" stroke="black" d="M336,-158C336,-158 12,-158 12,-158 6,-158 0,-152 0,-146 0,-146 0,-134 0,-134 0,-128 6,-122 12,-122 12,-122 336,-122 336,-122 342,-122 348,-128 348,-134 348,-134 348,-146 348,-146 348,-152 342,-158 336,-158"/>
<text text-anchor="middle" x="174" y="-136.3" font-family="Arial" font-size="14.00">Student understands deer live in forests and eat berries</text>
</g>
<!-- n2&#45;&gt;n5 -->
<g id="edge4" class="edge">
<title>n2&#45;&gt;n5</title>
<path fill="none" stroke="black" d="M356.48,-243.81C318.84,-222.6 254.77,-186.5 213.43,-163.21"/>
<polygon fill="black" stroke="black" points="214.89,-160.02 204.46,-158.16 211.46,-166.12 214.89,-160.02"/>
</g>
<!-- n8 -->
<g id="node6" class="node">
<title>n8</title>
<polygon fill="lightcoral" stroke="black" points="526,-158 405.5,-140 526,-122 646.5,-140 526,-158"/>
<text text-anchor="middle" x="526" y="-136.3" font-family="Arial" font-size="14.00">Sun is not depicted</text>
</g>
<!-- n2&#45;&gt;n8 -->
<g id="edge5" class="edge">
<title>n2&#45;&gt;n8</title>
<path fill="none" stroke="black" d="M406.92,-243.81C431.81,-222.31 474.43,-185.52 501.36,-162.27"/>
<polygon fill="black" stroke="black" points="503.89,-164.71 509.17,-155.53 499.31,-159.41 503.89,-164.71"/>
</g>
<!-- n3&#45;&gt;n8 -->
<g id="edge6" class="edge">
<title>n3&#45;&gt;n8</title>
<path fill="none" stroke="black" d="M644.23,-243.81C619.51,-222.31 577.2,-185.52 550.46,-162.27"/>
<polygon fill="black" stroke="black" points="552.54,-159.45 542.7,-155.53 547.95,-164.73 552.54,-159.45"/>
</g>
<!-- n6 -->
<g id="node7" class="node">
<title>n6</title>
<path fill="palegreen" stroke="black" d="M1080,-158C1080,-158 716,-158 716,-158 710,-158 704,-152 704,-146 704,-146 704,-134 704,-134 704,-128 710,-122 716,-122 716,-122 1080,-122 1080,-122 1086,-122 1092,-128 1092,-134 1092,-134 1092,-146 1092,-146 1092,-152 1086,-158 1080,-158"/>
<text text-anchor="middle" x="898" y="-136.3" font-family="Arial" font-size="14.00">Student understands fish live in water and need water to swim</text>
</g>
<!-- n3&#45;&gt;n6 -->
<g id="edge7" class="edge">
<title>n3&#45;&gt;n6</title>
<path fill="none" stroke="black" d="M697.53,-243.81C739.14,-222.47 810.16,-186.05 855.54,-162.77"/>
<polygon fill="black" stroke="black" points="857.24,-165.83 864.54,-158.16 854.04,-159.6 857.24,-165.83"/>
</g>
<!-- n4&#45;&gt;n8 -->
<g id="edge8" class="edge">
<title>n4&#45;&gt;n8</title>
<path fill="none" stroke="black" d="M891.42,-243.93C806.5,-220.01 653.7,-176.97 575.32,-154.89"/>
<polygon fill="black" stroke="black" points="576.25,-151.52 565.68,-152.18 574.36,-158.26 576.25,-151.52"/>
</g>
<!-- n7 -->
<g id="node8" class="node">
<title>n7</title>
<path fill="palegreen" stroke="black" d="M1482,-158C1482,-158 1162,-158 1162,-158 1156,-158 1150,-152 1150,-146 1150,-146 1150,-134 1150,-134 1150,-128 1156,-122 1162,-122 1162,-122 1482,-122 1482,-122 1488,-122 1494,-128 1494,-134 1494,-134 1494,-146 1494,-146 1494,-152 1488,-158 1482,-158"/>
<text text-anchor="middle" x="1322" y="-136.3" font-family="Arial" font-size="14.00">Student understands rabbits live in fields and eat grass</text>
</g>
<!-- n4&#45;&gt;n7 -->
<g id="edge9" class="edge">
<title>n4&#45;&gt;n7</title>
<path fill="none" stroke="black" d="M1004.6,-243.93C1071.9,-222.12 1188.2,-184.4 1259.8,-161.18"/>
<polygon fill="black" stroke="black" points="1261.16,-164.42 1269.6,-158.01 1259.01,-157.76 1261.16,-164.42"/>
</g>
<!-- n9 -->
<g id="node9" class="node">
<title>n9</title>
<polygon fill="#f28e8e" stroke="black" points="740,-36 312,-36 312,0 740,0 740,-36"/>
<text text-anchor="middle" x="526" y="-14.3" font-family="Arial" font-size="14.00">Consider adding sun for completeness, showing plants need sunlight</text>
</g>
<!-- n8&#45;&gt;n9 -->
<g id="edge10" class="edge">
<title>n8&#45;&gt;n9</title>
<path fill="none" stroke="black" d="M526,-121.81C526,-102.11 526,-69.58 526,-46.39"/>
<polygon fill="black" stroke="black" points="529.5,-46.16 526,-36.16 522.5,-46.16 529.5,-46.16"/>
</g>
</g>
</svg>
