<?xml version="1.0" encoding="UTF-8" standalone="no"?>
<!DOCTYPE svg PUBLIC "-//W3C//DTD SVG 1.1//EN"
 "http://www.w3.org/Graphics/SVG/1.1/DTD/svg11.dtd">
<!-- Generated by graphviz version 2.43.0 (0)
 -->
<!-- Pages: 1 -->
<svg width="779pt" height="410pt"
 viewBox="0.00 0.00 778.50 410.00" xmlns="http://www.w3.org/2000/svg" xmlns:xlink="http://www.w3.org/1999/xlink">
<g id="graph0" class="graph" transform="scale(1 1) rotate(0) translate(4 406)">
<polygon fill="white" stroke="transparent" points="-4,4 -4,-406 774.5,-406 774.5,4 -4,4"/>
<!-- n1 -->
<g id="node1" class="node">
<title>n1</title>
<polygon fill="lightblue" stroke="black" points="656,-384 492,-402 164,-402 0,-384 164,-366 492,-366 656,-384"/>
<text text-anchor="middle" x="328" y="-380.3" font-family="Arial" font-size="14.00">Draw reversible and irreversible changes (ice melting vs. egg cooking)</text>
</g>
<!-- n2 -->
<g id="node2" class="node">
<title>n2</title>
<polygon fill="#fffdd0" stroke="black" points="298.5,-280 65.5,-280 65.5,-244 298.5,-244 298.5,-280"/>
<text text-anchor="middle" x="182" y="-258.3" font-family="Arial" font-size="14.00">Large block of ice melting into water</text>
</g>
<!-- n1&#45;&gt;n2 -->
<g id="edge1" class="edge">
<title>n1&#45;&gt;n2</title>
<path fill="none" stroke="black" d="M307.09,-365.81C281.82,-345.04 239.2,-310.01 210.84,-286.7"/>
<polygon fill="black" stroke="black" points="212.83,-283.8 202.88,-280.16 208.38,-289.21 212.83,-283.8"/>
</g>
<!-- n3 -->
<g id="node3" class="node">
<title>n3</title>
<polygon fill="#fffdd0" stroke="black" points="618,-280 382,-280 382,-244 618,-244 618,-280"/>
<text text-anchor="middle" x="500" y="-258.3" font-family="Arial" font-size="14.00">Raw egg changing to scrambled egg</text>
</g>
<!-- n1&#45;&gt;n3 -->
<g id="edge2" class="edge">
<title>n1&#45;&gt;n3</title>
<path fill="none" stroke="black" d="M352.65,-365.81C382.66,-344.87 433.48,-309.41 466.89,-286.1"/>
<polygon fill="black" stroke="black" points="469.21,-288.75 475.41,-280.16 465.21,-283.01 469.21,-288.75"/>
</g>
<!-- n4 -->
<g id="node4" class="node">
<title>n4</title>
<path fill="palegreen" stroke="black" d="M210,-158C210,-158 56,-158 56,-158 50,-158 44,-152 44,-146 44,-146 44,-134 44,-134 44,-128 50,-122 56,-122 56,-122 210,-122 210,-122 216,-122 222,-128 222,-134 222,-134 222,-146 222,-146 222,-152 216,-158 210,-158"/>
<text text-anchor="middle" x="133" y="-136.3" font-family="Arial" font-size="14.00">Water can refreeze into ice</text>
</g>
<!-- n2&#45;&gt;n4 -->
<g id="edge3" class="edge">
<title>n2&#45;&gt;n4</title>
<path fill="none" stroke="black" d="M174.98,-243.81C166.83,-223.85 153.3,-190.7 143.8,-167.45"/>
<polygon fill="black" stroke="black" points="147.03,-166.1 140.01,-158.16 140.55,-168.74 147.03,-166.1"/>
</g>
<!-- n5 -->
<g id="node5" class="node">
<title>n5</title>
<polygon fill="lightcoral" stroke="black" points="525,-158 279.5,-140 525,-122 770.5,-140 525,-158"/>
<text text-anchor="middle" x="525" y="-136.3" font-family="Arial" font-size="14.00">Scrambled egg cannot become raw again</text>
</g>
<!-- n3&#45;&gt;n5 -->
<g id="edge4" class="edge">
<title>n3&#45;&gt;n5</title>
<path fill="none" stroke="black" d="M503.59,-243.81C507.73,-223.91 514.6,-190.92 519.45,-167.68"/>
<polygon fill="black" stroke="black" points="522.9,-168.27 521.51,-157.77 516.05,-166.85 522.9,-168.27"/>
</g>
<!-- n6 -->
<g id="node6" class="node">
<title>n6</title>
<polygon fill="#f28e8e" stroke="black" points="623,-36 427,-36 427,0 623,0 623,-36"/>
<text text-anchor="middle" x="525" y="-14.3" font-family="Arial" font-size="14.00">Identify change as irreversible</text>
</g>
<!-- n5&#45;&gt;n6 -->
<g id="edge5" class="edge">
<title>n5&#45;&gt;n6</title>
<path fill="none" stroke="black" d="M525,-121.81C525,-102.11 525,-69.58 525,-46.39"/>
<polygon fill="black" stroke="black" points="528.5,-46.16 525,-36.16 521.5,-46.16 528.5,-46.16"/>
</g>
</g>
</svg>
