<?xml version="1.0" encoding="UTF-8" standalone="no"?>
<!DOCTYPE svg PUBLIC "-//W3C//DTD SVG 1.1//EN"
 "http://www.w3.org/Graphics/SVG/1.1/DTD/svg11.dtd">
<!-- Generated by graphviz version 2.43.0 (0)
 -->
<!-- Pages: 1 -->
<svg width="1486pt" height="410pt"
 viewBox="0.00 0.00 1486.13 410.00" xmlns="http://www.w3.org/2000/svg" xmlns:xlink="http://www.w3.org/1999/xlink">
<g id="graph0" class="graph" transform="scale(1 1) rotate(0) translate(4 406)">
<polygon fill="white" stroke="transparent" points="-4,4 -4,-406 1482.13,-406 1482.13,4 -4,4"/>
<!-- n1 -->
<g id="node1" class="node">
<title>n1</title>
<polygon fill="lightblue" stroke="black" points="847,-384 755.75,-402 573.25,-402 482,-384 573.25,-366 755.75,-366 847,-384"/>
<text text-anchor="middle" x="664.5" y="-380.3" font-family="Arial" font-size="14.00">Draw a fish in their habitat with labels.</text>
</g>
<!-- n2 -->
<g id="node2" class="node">
<title>n2</title>
<polygon fill="#fffdd0" stroke="black" points="567,-280 394,-280 394,-244 567,-244 567,-280"/>
<text text-anchor="middle" x="480.5" y="-258.3" font-family="Arial" font-size="14.00">Fish as a plain oval shape</text>
</g>
<!-- n1&#45;&gt;n2 -->
<g id="edge1" class="edge">
<title>n1&#45;&gt;n2</title>
<path fill="none" stroke="black" d="M638.14,-365.81C605.89,-344.78 551.2,-309.11 515.46,-285.8"/>
<polygon fill="black" stroke="black" points="517.1,-282.69 506.81,-280.16 513.28,-288.55 517.1,-282.69"/>
</g>
<!-- n3 -->
<g id="node3" class="node">
<title>n3</title>
<polygon fill="#fffdd0" stroke="black" points="961.5,-280 737.5,-280 737.5,-244 961.5,-244 961.5,-280"/>
<text text-anchor="middle" x="849.5" y="-258.3" font-family="Arial" font-size="14.00">Water indicated by wavy blue lines</text>
</g>
<!-- n1&#45;&gt;n3 -->
<g id="edge2" class="edge">
<title>n1&#45;&gt;n3</title>
<path fill="none" stroke="black" d="M691.01,-365.81C723.43,-344.78 778.42,-309.11 814.34,-285.8"/>
<polygon fill="black" stroke="black" points="816.55,-288.54 823.04,-280.16 812.75,-282.66 816.55,-288.54"/>
</g>
<!-- n4 -->
<g id="node4" class="node">
<title>n4</title>
<path fill="palegreen" stroke="black" d="M207,-158C207,-158 12,-158 12,-158 6,-158 0,-152 0,-146 0,-146 0,-134 0,-134 0,-128 6,-122 12,-122 12,-122 207,-122 207,-122 213,-122 219,-128 219,-134 219,-134 219,-146 219,-146 219,-152 213,-158 207,-158"/>
<text text-anchor="middle" x="109.5" y="-136.3" font-family="Arial" font-size="14.00">Basic understanding of fish shape</text>
</g>
<!-- n2&#45;&gt;n4 -->
<g id="edge3" class="edge">
<title>n2&#45;&gt;n4</title>
<path fill="none" stroke="black" d="M427.74,-243.93C360.29,-222.12 243.68,-184.4 171.9,-161.18"/>
<polygon fill="black" stroke="black" points="172.67,-157.75 162.08,-158.01 170.52,-164.41 172.67,-157.75"/>
</g>
<!-- n6 -->
<g id="node5" class="node">
<title>n6</title>
<polygon fill="lightcoral" stroke="black" points="480.5,-158 277.23,-140 480.5,-122 683.77,-140 480.5,-158"/>
<text text-anchor="middle" x="480.5" y="-136.3" font-family="Arial" font-size="14.00">Lacks labeling of habitat elements</text>
</g>
<!-- n2&#45;&gt;n6 -->
<g id="edge4" class="edge">
<title>n2&#45;&gt;n6</title>
<path fill="none" stroke="black" d="M480.5,-243.81C480.5,-224.11 480.5,-191.58 480.5,-168.39"/>
<polygon fill="black" stroke="black" points="484,-168.16 480.5,-158.16 477,-168.16 484,-168.16"/>
</g>
<!-- n5 -->
<g id="node6" class="node">
<title>n5</title>
<path fill="palegreen" stroke="black" d="M945,-158C945,-158 754,-158 754,-158 748,-158 742,-152 742,-146 742,-146 742,-134 742,-134 742,-128 748,-122 754,-122 754,-122 945,-122 945,-122 951,-122 957,-128 957,-134 957,-134 957,-146 957,-146 957,-152 951,-158 945,-158"/>
<text text-anchor="middle" x="849.5" y="-136.3" font-family="Arial" font-size="14.00">Water identified as part of habitat</text>
</g>
<!-- n3&#45;&gt;n5 -->
<g id="edge5" class="edge">
<title>n3&#45;&gt;n5</title>
<path fill="none" stroke="black" d="M849.5,-243.81C849.5,-224.11 849.5,-191.58 849.5,-168.39"/>
<polygon fill="black" stroke="black" points="853,-168.16 849.5,-158.16 846,-168.16 853,-168.16"/>
</g>
<!-- n7 -->
<g id="node7" class="node">
<title>n7</title>
<polygon fill="lightcoral" stroke="black" points="1246.5,-158 1014.74,-140 1246.5,-122 1478.26,-140 1246.5,-158"/>
<text text-anchor="middle" x="1246.5" y="-136.3" font-family="Arial" font-size="14.00">No other organisms or details in habitat</text>
</g>
<!-- n3&#45;&gt;n7 -->
<g id="edge6" class="edge">
<title>n3&#45;&gt;n7</title>
<path fill="none" stroke="black" d="M905.96,-243.93C982.07,-220.93 1116.7,-180.24 1191.9,-157.52"/>
<polygon fill="black" stroke="black" points="1193.05,-160.83 1201.6,-154.57 1191.01,-154.13 1193.05,-160.83"/>
</g>
<!-- n8 -->
<g id="node8" class="node">
<title>n8</title>
<polygon fill="#f28e8e" stroke="black" points="627,-36 334,-36 334,0 627,0 627,-36"/>
<text text-anchor="middle" x="480.5" y="-14.3" font-family="Arial" font-size="14.00">Encourage labeling elements like &#39;water&#39;, &#39;fish&#39;</text>
</g>
<!-- n6&#45;&gt;n8 -->
<g id="edge7" class="edge">
<title>n6&#45;&gt;n8</title>
<path fill="none" stroke="black" d="M480.5,-121.81C480.5,-102.11 480.5,-69.58 480.5,-46.39"/>
<polygon fill="black" stroke="black" points="484,-46.16 480.5,-36.16 477,-46.16 484,-46.16"/>
</g>
<!-- n9 -->
<g id="node9" class="node">
<title>n9</title>
<polygon fill="#f28e8e" stroke="black" points="1383.5,-36 1109.5,-36 1109.5,0 1383.5,0 1383.5,-36"/>
<text text-anchor="middle" x="1246.5" y="-14.3" font-family="Arial" font-size="14.00">Suggest drawing other habitat components</text>
</g>
<!-- n7&#45;&gt;n9 -->
<g id="edge8" class="edge">
<title>n7&#45;&gt;n9</title>
<path fill="none" stroke="black" d="M1246.5,-121.81C1246.5,-102.11 1246.5,-69.58 1246.5,-46.39"/>
<polygon fill="black" stroke="black" points="1250,-46.16 1246.5,-36.16 1243,-46.16 1250,-46.16"/>
</g>
</g>
</svg>
