<?xml version="1.0" encoding="UTF-8" standalone="no"?>
<!DOCTYPE svg PUBLIC "-//W3C//DTD SVG 1.1//EN"
 "http://www.w3.org/Graphics/SVG/1.1/DTD/svg11.dtd">
<!-- Generated by graphviz version 2.43.0 (0)
 -->
<!-- Pages: 1 -->
<svg width="1294pt" height="410pt"
 viewBox="0.00 0.00 1293.50 410.00" xmlns="http://www.w3.org/2000/svg" xmlns:xlink="http://www.w3.org/1999/xlink">
<g id="graph0" class="graph" transform="scale(1 1) rotate(0) translate(4 406)">
<polygon fill="white" stroke="transparent" points="-4,4 -4,-406 1289.5,-406 1289.5,4 -4,4"/>
<!-- n1 -->
<g id="node1" class="node">
<title>n1</title>
<polygon fill="lightblue" stroke="black" points="734.32,-384 611.91,-402 367.09,-402 244.68,-384 367.09,-366 611.91,-366 734.32,-384"/>
<text text-anchor="middle" x="489.5" y="-380.3" font-family="Arial" font-size="14.00">Draw a habitat and the different living things in each</text>
</g>
<!-- n2 -->
<g id="node2" class="node">
<title>n2</title>
<polygon fill="#fffdd0" stroke="black" points="302,-280 19,-280 19,-244 302,-244 302,-280"/>
<text text-anchor="middle" x="160.5" y="-258.3" font-family="Arial" font-size="14.00">Forest with tall green trees and brown trunks</text>
</g>
<!-- n1&#45;&gt;n2 -->
<g id="edge1" class="edge">
<title>n1&#45;&gt;n2</title>
<path fill="none" stroke="black" d="M442.71,-365.93C383.15,-344.21 280.34,-306.71 216.62,-283.47"/>
<polygon fill="black" stroke="black" points="217.72,-280.15 207.13,-280.01 215.33,-286.72 217.72,-280.15"/>
</g>
<!-- n3 -->
<g id="node3" class="node">
<title>n3</title>
<polygon fill="#fffdd0" stroke="black" points="603,-280 376,-280 376,-244 603,-244 603,-280"/>
<text text-anchor="middle" x="489.5" y="-258.3" font-family="Arial" font-size="14.00">Pond with fish, clams, and lily pads</text>
</g>
<!-- n1&#45;&gt;n3 -->
<g id="edge2" class="edge">
<title>n1&#45;&gt;n3</title>
<path fill="none" stroke="black" d="M489.5,-365.81C489.5,-346.11 489.5,-313.58 489.5,-290.39"/>
<polygon fill="black" stroke="black" points="493,-290.16 489.5,-280.16 486,-290.16 493,-290.16"/>
</g>
<!-- n6 -->
<g id="node4" class="node">
<title>n6</title>
<path fill="palegreen" stroke="black" d="M993.5,-280C993.5,-280 673.5,-280 673.5,-280 667.5,-280 661.5,-274 661.5,-268 661.5,-268 661.5,-256 661.5,-256 661.5,-250 667.5,-244 673.5,-244 673.5,-244 993.5,-244 993.5,-244 999.5,-244 1005.5,-250 1005.5,-256 1005.5,-256 1005.5,-268 1005.5,-268 1005.5,-274 999.5,-280 993.5,-280"/>
<text text-anchor="middle" x="833.5" y="-258.3" font-family="Arial" font-size="14.00">Comparison of plant diversity between forest and pond</text>
</g>
<!-- n1&#45;&gt;n6 -->
<g id="edge3" class="edge">
<title>n1&#45;&gt;n6</title>
<path fill="none" stroke="black" d="M538.42,-365.93C600.83,-344.16 708.64,-306.56 775.23,-283.33"/>
<polygon fill="black" stroke="black" points="776.46,-286.61 784.75,-280.01 774.16,-280 776.46,-286.61"/>
</g>
<!-- n4 -->
<g id="node5" class="node">
<title>n4</title>
<path fill="palegreen" stroke="black" d="M275,-158C275,-158 12,-158 12,-158 6,-158 0,-152 0,-146 0,-146 0,-134 0,-134 0,-128 6,-122 12,-122 12,-122 275,-122 275,-122 281,-122 287,-128 287,-134 287,-134 287,-146 287,-146 287,-152 281,-158 275,-158"/>
<text text-anchor="middle" x="143.5" y="-136.3" font-family="Arial" font-size="14.00">Dense forest vegetation shows plant diversity</text>
</g>
<!-- n2&#45;&gt;n4 -->
<g id="edge4" class="edge">
<title>n2&#45;&gt;n4</title>
<path fill="none" stroke="black" d="M158.06,-243.81C155.26,-224.02 150.62,-191.29 147.34,-168.08"/>
<polygon fill="black" stroke="black" points="150.8,-167.57 145.93,-158.16 143.87,-168.55 150.8,-167.57"/>
</g>
<!-- n5 -->
<g id="node6" class="node">
<title>n5</title>
<path fill="palegreen" stroke="black" d="M622,-158C622,-158 357,-158 357,-158 351,-158 345,-152 345,-146 345,-146 345,-134 345,-134 345,-128 351,-122 357,-122 357,-122 622,-122 622,-122 628,-122 634,-128 634,-134 634,-134 634,-146 634,-146 634,-152 628,-158 622,-158"/>
<text text-anchor="middle" x="489.5" y="-136.3" font-family="Arial" font-size="14.00">Fish and clams in pond show animal diversity</text>
</g>
<!-- n3&#45;&gt;n5 -->
<g id="edge5" class="edge">
<title>n3&#45;&gt;n5</title>
<path fill="none" stroke="black" d="M489.5,-243.81C489.5,-224.11 489.5,-191.58 489.5,-168.39"/>
<polygon fill="black" stroke="black" points="493,-168.16 489.5,-158.16 486,-168.16 493,-168.16"/>
</g>
<!-- n7 -->
<g id="node7" class="node">
<title>n7</title>
<polygon fill="lightcoral" stroke="black" points="988.5,-158 691.5,-140 988.5,-122 1285.5,-140 988.5,-158"/>
<text text-anchor="middle" x="988.5" y="-136.3" font-family="Arial" font-size="14.00">No detailed fish types or population diversity shown</text>
</g>
<!-- n3&#45;&gt;n7 -->
<g id="edge6" class="edge">
<title>n3&#45;&gt;n7</title>
<path fill="none" stroke="black" d="M560.2,-244C656.57,-220.82 827.92,-179.62 922.04,-156.98"/>
<polygon fill="black" stroke="black" points="923.1,-160.32 932.01,-154.59 921.47,-153.52 923.1,-160.32"/>
</g>
<!-- n8 -->
<g id="node8" class="node">
<title>n8</title>
<polygon fill="#f28e8e" stroke="black" points="1167,-36 810,-36 810,0 1167,0 1167,-36"/>
<text text-anchor="middle" x="988.5" y="-14.3" font-family="Arial" font-size="14.00">Add specific fish types and explore more animal diversity</text>
</g>
<!-- n7&#45;&gt;n8 -->
<g id="edge7" class="edge">
<title>n7&#45;&gt;n8</title>
<path fill="none" stroke="black" d="M988.5,-121.81C988.5,-102.11 988.5,-69.58 988.5,-46.39"/>
<polygon fill="black" stroke="black" points="992,-46.16 988.5,-36.16 985,-46.16 992,-46.16"/>
</g>
</g>
</svg>
