<?xml version="1.0" encoding="UTF-8" standalone="no"?>
<!DOCTYPE svg PUBLIC "-//W3C//DTD SVG 1.1//EN"
 "http://www.w3.org/Graphics/SVG/1.1/DTD/svg11.dtd">
<!-- Generated by graphviz version 2.43.0 (0)
 -->
<!-- Pages: 1 -->
<svg width="1936pt" height="410pt"
 viewBox="0.00 0.00 1936.00 410.00" xmlns="http://www.w3.org/2000/svg" xmlns:xlink="http://www.w3.org/1999/xlink">
<g id="graph0" class="graph" transform="scale(1 1) rotate(0) translate(4 406)">
<polygon fill="white" stroke="transparent" points="-4,4 -4,-406 1932,-406 1932,4 -4,4"/>
<!-- n1 -->
<g id="node1" class="node">
<title>n1</title>
<polygon fill="lightblue" stroke="black" points="956,-384 866.25,-402 686.75,-402 597,-384 686.75,-366 866.25,-366 956,-384"/>
<text text-anchor="middle" x="776.5" y="-380.3" font-family="Arial" font-size="14.00">Draw a fish in their habitat with labels</text>
</g>
<!-- n2 -->
<g id="node2" class="node">
<title>n2</title>
<polygon fill="#fffdd0" stroke="black" points="716.5,-280 596.5,-280 596.5,-244 716.5,-244 716.5,-280"/>
<text text-anchor="middle" x="656.5" y="-258.3" font-family="Arial" font-size="14.00">Fish labeled &#39;fish&#39;</text>
</g>
<!-- n1&#45;&gt;n2 -->
<g id="edge1" class="edge">
<title>n1&#45;&gt;n2</title>
<path fill="none" stroke="black" d="M759.31,-365.81C738.72,-345.22 704.11,-310.61 680.8,-287.3"/>
<polygon fill="black" stroke="black" points="683.21,-284.76 673.66,-280.16 678.26,-289.71 683.21,-284.76"/>
</g>
<!-- n3 -->
<g id="node3" class="node">
<title>n3</title>
<polygon fill="#fffdd0" stroke="black" points="384.5,-280 194.5,-280 194.5,-244 384.5,-244 384.5,-280"/>
<text text-anchor="middle" x="289.5" y="-258.3" font-family="Arial" font-size="14.00">Small fish labeled &#39;small fish&#39;</text>
</g>
<!-- n1&#45;&gt;n3 -->
<g id="edge2" class="edge">
<title>n1&#45;&gt;n3</title>
<path fill="none" stroke="black" d="M707.5,-366C618.04,-343.95 462.38,-305.6 368.35,-282.43"/>
<polygon fill="black" stroke="black" points="369.15,-279.02 358.6,-280.03 367.47,-285.82 369.15,-279.02"/>
</g>
<!-- n4 -->
<g id="node4" class="node">
<title>n4</title>
<polygon fill="#fffdd0" stroke="black" points="1147,-280 904,-280 904,-244 1147,-244 1147,-280"/>
<text text-anchor="middle" x="1025.5" y="-258.3" font-family="Arial" font-size="14.00">Wavy blue water body labeled &#39;ocean&#39;</text>
</g>
<!-- n1&#45;&gt;n4 -->
<g id="edge3" class="edge">
<title>n1&#45;&gt;n4</title>
<path fill="none" stroke="black" d="M811.91,-365.93C856.35,-344.52 932.57,-307.78 980.93,-284.48"/>
<polygon fill="black" stroke="black" points="982.72,-287.5 990.21,-280.01 979.68,-281.2 982.72,-287.5"/>
</g>
<!-- n5 -->
<g id="node5" class="node">
<title>n5</title>
<polygon fill="#fffdd0" stroke="black" points="1590.5,-280 1356.5,-280 1356.5,-244 1590.5,-244 1590.5,-280"/>
<text text-anchor="middle" x="1473.5" y="-258.3" font-family="Arial" font-size="14.00">Tall green wavy lines labeled &#39;plants&#39;</text>
</g>
<!-- n1&#45;&gt;n5 -->
<g id="edge4" class="edge">
<title>n1&#45;&gt;n5</title>
<path fill="none" stroke="black" d="M870.5,-366.82C998.92,-344.71 1228.7,-305.14 1364.5,-281.76"/>
<polygon fill="black" stroke="black" points="1365.24,-285.18 1374.5,-280.04 1364.05,-278.29 1365.24,-285.18"/>
</g>
<!-- n6 -->
<g id="node6" class="node">
<title>n6</title>
<path fill="palegreen" stroke="black" d="M257,-158C257,-158 12,-158 12,-158 6,-158 0,-152 0,-146 0,-146 0,-134 0,-134 0,-128 6,-122 12,-122 12,-122 257,-122 257,-122 263,-122 269,-128 269,-134 269,-134 269,-146 269,-146 269,-152 263,-158 257,-158"/>
<text text-anchor="middle" x="134.5" y="-136.3" font-family="Arial" font-size="14.00">Correctly identifies and labels fish in water</text>
</g>
<!-- n2&#45;&gt;n6 -->
<g id="edge5" class="edge">
<title>n2&#45;&gt;n6</title>
<path fill="none" stroke="black" d="M596.37,-247.18C503.39,-225.8 324.45,-184.67 218.67,-160.35"/>
<polygon fill="black" stroke="black" points="219.2,-156.88 208.67,-158.05 217.63,-163.7 219.2,-156.88"/>
</g>
<!-- n7 -->
<g id="node7" class="node">
<title>n7</title>
<polygon fill="lightcoral" stroke="black" points="656.5,-158 326.5,-140 656.5,-122 986.5,-140 656.5,-158"/>
<text text-anchor="middle" x="656.5" y="-136.3" font-family="Arial" font-size="14.00">Identifies but does not connect fish to resources or needs</text>
</g>
<!-- n2&#45;&gt;n7 -->
<g id="edge6" class="edge">
<title>n2&#45;&gt;n7</title>
<path fill="none" stroke="black" d="M656.5,-243.81C656.5,-224.11 656.5,-191.58 656.5,-168.39"/>
<polygon fill="black" stroke="black" points="660,-168.16 656.5,-158.16 653,-168.16 660,-168.16"/>
</g>
<!-- n3&#45;&gt;n6 -->
<g id="edge7" class="edge">
<title>n3&#45;&gt;n6</title>
<path fill="none" stroke="black" d="M267.29,-243.81C240.36,-222.96 194.84,-187.71 164.72,-164.4"/>
<polygon fill="black" stroke="black" points="166.72,-161.52 156.67,-158.16 162.43,-167.05 166.72,-161.52"/>
</g>
<!-- n8 -->
<g id="node8" class="node">
<title>n8</title>
<path fill="palegreen" stroke="black" d="M1253,-158C1253,-158 1056,-158 1056,-158 1050,-158 1044,-152 1044,-146 1044,-146 1044,-134 1044,-134 1044,-128 1050,-122 1056,-122 1056,-122 1253,-122 1253,-122 1259,-122 1265,-128 1265,-134 1265,-134 1265,-146 1265,-146 1265,-152 1259,-158 1253,-158"/>
<text text-anchor="middle" x="1154.5" y="-136.3" font-family="Arial" font-size="14.00">Correct use of &#39;ocean&#39; as a habitat</text>
</g>
<!-- n4&#45;&gt;n8 -->
<g id="edge8" class="edge">
<title>n4&#45;&gt;n8</title>
<path fill="none" stroke="black" d="M1044,-243.81C1066.2,-223.13 1103.6,-188.31 1128.7,-165"/>
<polygon fill="black" stroke="black" points="1131.13,-167.52 1136.1,-158.16 1126.38,-162.38 1131.13,-167.52"/>
</g>
<!-- n9 -->
<g id="node9" class="node">
<title>n9</title>
<polygon fill="lightcoral" stroke="black" points="1625.5,-158 1323,-140 1625.5,-122 1928,-140 1625.5,-158"/>
<text text-anchor="middle" x="1625.5" y="-136.3" font-family="Arial" font-size="14.00">Identifies plants but does not connect to fish survival</text>
</g>
<!-- n5&#45;&gt;n9 -->
<g id="edge9" class="edge">
<title>n5&#45;&gt;n9</title>
<path fill="none" stroke="black" d="M1495.3,-243.81C1522.1,-222.6 1567.9,-186.51 1597.4,-163.22"/>
<polygon fill="black" stroke="black" points="1599.56,-165.98 1605.2,-157.01 1595.2,-160.5 1599.56,-165.98"/>
</g>
<!-- n10 -->
<g id="node10" class="node">
<title>n10</title>
<polygon fill="#f28e8e" stroke="black" points="918.5,-36 394.5,-36 394.5,0 918.5,0 918.5,-36"/>
<text text-anchor="middle" x="656.5" y="-14.3" font-family="Arial" font-size="14.00">Identify connections between fish and habitat for survival needs, like food and shelter</text>
</g>
<!-- n7&#45;&gt;n10 -->
<g id="edge10" class="edge">
<title>n7&#45;&gt;n10</title>
<path fill="none" stroke="black" d="M656.5,-121.81C656.5,-102.11 656.5,-69.58 656.5,-46.39"/>
<polygon fill="black" stroke="black" points="660,-46.16 656.5,-36.16 653,-46.16 660,-46.16"/>
</g>
<!-- n11 -->
<g id="node11" class="node">
<title>n11</title>
<polygon fill="#f28e8e" stroke="black" points="1794,-36 1457,-36 1457,0 1794,0 1794,-36"/>
<text text-anchor="middle" x="1625.5" y="-14.3" font-family="Arial" font-size="14.00">Explain how plants can provide food or shelter for fish</text>
</g>
<!-- n9&#45;&gt;n11 -->
<g id="edge11" class="edge">
<title>n9&#45;&gt;n11</title>
<path fill="none" stroke="black" d="M1625.5,-121.81C1625.5,-102.11 1625.5,-69.58 1625.5,-46.39"/>
<polygon fill="black" stroke="black" points="1629,-46.16 1625.5,-36.16 1622,-46.16 1629,-46.16"/>
</g>
</g>
</svg>
