<?xml version="1.0" encoding="UTF-8" standalone="no"?>
<!DOCTYPE svg PUBLIC "-//W3C//DTD SVG 1.1//EN"
 "http://www.w3.org/Graphics/SVG/1.1/DTD/svg11.dtd">
<!-- Generated by graphviz version 2.43.0 (0)
 -->
<!-- Pages: 1 -->
<svg width="1237pt" height="410pt"
 viewBox="0.00 0.00 1236.58 410.00" xmlns="http://www.w3.org/2000/svg" xmlns:xlink="http://www.w3.org/1999/xlink">
<g id="graph0" class="graph" transform="scale(1 1) rotate(0) translate(4 406)">
<polygon fill="white" stroke="transparent" points="-4,4 -4,-406 1232.58,-406 1232.58,4 -4,4"/>
<!-- n1 -->
<g id="node1" class="node">
<title>n1</title>
<polygon fill="lightblue" stroke="black" points="478.5,-384 387.25,-402 204.75,-402 113.5,-384 204.75,-366 387.25,-366 478.5,-384"/>
<text text-anchor="middle" x="296" y="-380.3" font-family="Arial" font-size="14.00">Draw reversible changes (ice melting)</text>
</g>
<!-- n2 -->
<g id="node2" class="node">
<title>n2</title>
<polygon fill="#fffdd0" stroke="black" points="268,-280 0,-280 0,-244 268,-244 268,-280"/>
<text text-anchor="middle" x="134" y="-258.3" font-family="Arial" font-size="14.00">Simple drawing with a square labeled &#39;ice&#39;</text>
</g>
<!-- n1&#45;&gt;n2 -->
<g id="edge1" class="edge">
<title>n1&#45;&gt;n2</title>
<path fill="none" stroke="black" d="M272.79,-365.81C244.64,-344.96 197.06,-309.71 165.59,-286.4"/>
<polygon fill="black" stroke="black" points="167.29,-283.3 157.17,-280.16 163.12,-288.93 167.29,-283.3"/>
</g>
<!-- n3 -->
<g id="node3" class="node">
<title>n3</title>
<polygon fill="#fffdd0" stroke="black" points="609.5,-280 344.5,-280 344.5,-244 609.5,-244 609.5,-280"/>
<text text-anchor="middle" x="477" y="-258.3" font-family="Arial" font-size="14.00">Circle labeled &#39;water&#39; with arrow from &#39;ice&#39;</text>
</g>
<!-- n1&#45;&gt;n3 -->
<g id="edge2" class="edge">
<title>n1&#45;&gt;n3</title>
<path fill="none" stroke="black" d="M321.93,-365.81C353.65,-344.78 407.45,-309.11 442.61,-285.8"/>
<polygon fill="black" stroke="black" points="444.72,-288.6 451.12,-280.16 440.85,-282.77 444.72,-288.6"/>
</g>
<!-- n4 -->
<g id="node4" class="node">
<title>n4</title>
<path fill="palegreen" stroke="black" d="M200.5,-158C200.5,-158 29.5,-158 29.5,-158 23.5,-158 17.5,-152 17.5,-146 17.5,-146 17.5,-134 17.5,-134 17.5,-128 23.5,-122 29.5,-122 29.5,-122 200.5,-122 200.5,-122 206.5,-122 212.5,-128 212.5,-134 212.5,-134 212.5,-146 212.5,-146 212.5,-152 206.5,-158 200.5,-158"/>
<text text-anchor="middle" x="115" y="-136.3" font-family="Arial" font-size="14.00">Understands ice is initial state</text>
</g>
<!-- n2&#45;&gt;n4 -->
<g id="edge3" class="edge">
<title>n2&#45;&gt;n4</title>
<path fill="none" stroke="black" d="M131.28,-243.81C128.15,-224.02 122.96,-191.29 119.29,-168.08"/>
<polygon fill="black" stroke="black" points="122.74,-167.49 117.72,-158.16 115.83,-168.58 122.74,-167.49"/>
</g>
<!-- n5 -->
<g id="node5" class="node">
<title>n5</title>
<polygon fill="lightcoral" stroke="black" points="477,-158 270,-140 477,-122 684,-140 477,-158"/>
<text text-anchor="middle" x="477" y="-136.3" font-family="Arial" font-size="14.00">Identifies water as result of melting</text>
</g>
<!-- n3&#45;&gt;n5 -->
<g id="edge4" class="edge">
<title>n3&#45;&gt;n5</title>
<path fill="none" stroke="black" d="M477,-243.81C477,-224.11 477,-191.58 477,-168.39"/>
<polygon fill="black" stroke="black" points="480.5,-168.16 477,-158.16 473.5,-168.16 480.5,-168.16"/>
</g>
<!-- n6 -->
<g id="node6" class="node">
<title>n6</title>
<polygon fill="lightcoral" stroke="black" points="985,-158 741.35,-140 985,-122 1228.65,-140 985,-158"/>
<text text-anchor="middle" x="985" y="-136.3" font-family="Arial" font-size="14.00">Arrow indicates change (melting process)</text>
</g>
<!-- n3&#45;&gt;n6 -->
<g id="edge5" class="edge">
<title>n3&#45;&gt;n6</title>
<path fill="none" stroke="black" d="M548.98,-244C648.11,-220.58 825.18,-178.75 920.31,-156.28"/>
<polygon fill="black" stroke="black" points="921.17,-159.67 930.1,-153.97 919.56,-152.86 921.17,-159.67"/>
</g>
<!-- n7 -->
<g id="node7" class="node">
<title>n7</title>
<polygon fill="#f28e8e" stroke="black" points="409,-36 63,-36 63,0 409,0 409,-36"/>
<text text-anchor="middle" x="236" y="-14.3" font-family="Arial" font-size="14.00">Include detail about the melting process and conditions</text>
</g>
<!-- n5&#45;&gt;n7 -->
<g id="edge6" class="edge">
<title>n5&#45;&gt;n7</title>
<path fill="none" stroke="black" d="M447.93,-124.53C405.94,-103.62 328.03,-64.82 279.27,-40.54"/>
<polygon fill="black" stroke="black" points="280.73,-37.36 270.22,-36.04 277.61,-43.63 280.73,-37.36"/>
</g>
<!-- n9 -->
<g id="node8" class="node">
<title>n9</title>
<polygon fill="#f28e8e" stroke="black" points="685,-36 467,-36 467,0 685,0 685,-36"/>
<text text-anchor="middle" x="576" y="-14.3" font-family="Arial" font-size="14.00">Explain reversibility of the change</text>
</g>
<!-- n5&#45;&gt;n9 -->
<g id="edge7" class="edge">
<title>n5&#45;&gt;n9</title>
<path fill="none" stroke="black" d="M490.35,-122.82C507.06,-102.56 535.87,-67.65 555.41,-43.96"/>
<polygon fill="black" stroke="black" points="558.24,-46.03 561.9,-36.09 552.84,-41.58 558.24,-46.03"/>
</g>
<!-- n8 -->
<g id="node9" class="node">
<title>n8</title>
<polygon fill="#f28e8e" stroke="black" points="1127.5,-36 842.5,-36 842.5,0 1127.5,0 1127.5,-36"/>
<text text-anchor="middle" x="985" y="-14.3" font-family="Arial" font-size="14.00">Label states clearly to denote solid and liquid</text>
</g>
<!-- n6&#45;&gt;n8 -->
<g id="edge8" class="edge">
<title>n6&#45;&gt;n8</title>
<path fill="none" stroke="black" d="M985,-121.81C985,-102.11 985,-69.58 985,-46.39"/>
<polygon fill="black" stroke="black" points="988.5,-46.16 985,-36.16 981.5,-46.16 988.5,-46.16"/>
</g>
</g>
</svg>
