<?xml version="1.0" encoding="UTF-8" standalone="no"?>
<!DOCTYPE svg PUBLIC "-//W3C//DTD SVG 1.1//EN"
 "http://www.w3.org/Graphics/SVG/1.1/DTD/svg11.dtd">
<!-- Generated by graphviz version 2.43.0 (0)
 -->
<!-- Pages: 1 -->
<svg width="1417pt" height="410pt"
 viewBox="0.00 0.00 1416.50 410.00" xmlns="http://www.w3.org/2000/svg" xmlns:xlink="http://www.w3.org/1999/xlink">
<g id="graph0" class="graph" transform="scale(1 1) rotate(0) translate(4 406)">
<polygon fill="white" stroke="transparent" points="-4,4 -4,-406 1412.5,-406 1412.5,4 -4,4"/>
<!-- n1 -->
<g id="node1" class="node">
<title>n1</title>
<polygon fill="lightblue" stroke="black" points="799.5,-384 708.25,-402 525.75,-402 434.5,-384 525.75,-366 708.25,-366 799.5,-384"/>
<text text-anchor="middle" x="617" y="-380.3" font-family="Arial" font-size="14.00">Draw reversible changes (ice melting)</text>
</g>
<!-- n2 -->
<g id="node2" class="node">
<title>n2</title>
<polygon fill="#fffdd0" stroke="black" points="282,-280 74,-280 74,-244 282,-244 282,-280"/>
<text text-anchor="middle" x="178" y="-258.3" font-family="Arial" font-size="14.00">Large blue ice cube (solid state)</text>
</g>
<!-- n1&#45;&gt;n2 -->
<g id="edge1" class="edge">
<title>n1&#45;&gt;n2</title>
<path fill="none" stroke="black" d="M554.57,-365.93C474.19,-343.96 334.8,-305.86 250.02,-282.69"/>
<polygon fill="black" stroke="black" points="250.79,-279.27 240.22,-280.01 248.94,-286.02 250.79,-279.27"/>
</g>
<!-- n3 -->
<g id="node3" class="node">
<title>n3</title>
<polygon fill="#fffdd0" stroke="black" points="589.5,-280 368.5,-280 368.5,-244 589.5,-244 589.5,-280"/>
<text text-anchor="middle" x="479" y="-258.3" font-family="Arial" font-size="14.00">Yellow sun with rays (heat source)</text>
</g>
<!-- n1&#45;&gt;n3 -->
<g id="edge2" class="edge">
<title>n1&#45;&gt;n3</title>
<path fill="none" stroke="black" d="M597.23,-365.81C573.45,-345.13 533.41,-310.31 506.6,-287"/>
<polygon fill="black" stroke="black" points="508.58,-284.08 498.74,-280.16 503.99,-289.36 508.58,-284.08"/>
</g>
<!-- n4 -->
<g id="node4" class="node">
<title>n4</title>
<polygon fill="#fffdd0" stroke="black" points="880.5,-280 665.5,-280 665.5,-244 880.5,-244 880.5,-280"/>
<text text-anchor="middle" x="773" y="-258.3" font-family="Arial" font-size="14.00">Blue puddle/droplets (melted ice)</text>
</g>
<!-- n1&#45;&gt;n4 -->
<g id="edge3" class="edge">
<title>n1&#45;&gt;n4</title>
<path fill="none" stroke="black" d="M639.35,-365.81C666.46,-344.96 712.28,-309.71 742.58,-286.4"/>
<polygon fill="black" stroke="black" points="744.9,-289.03 750.69,-280.16 740.63,-283.48 744.9,-289.03"/>
</g>
<!-- n5 -->
<g id="node5" class="node">
<title>n5</title>
<polygon fill="#fffdd0" stroke="black" points="1254.5,-280 1003.5,-280 1003.5,-244 1254.5,-244 1254.5,-280"/>
<text text-anchor="middle" x="1129" y="-258.3" font-family="Arial" font-size="14.00">Arrow from water back to blue ice cube</text>
</g>
<!-- n1&#45;&gt;n5 -->
<g id="edge4" class="edge">
<title>n1&#45;&gt;n5</title>
<path fill="none" stroke="black" d="M689.54,-366C783.69,-343.93 947.58,-305.52 1046.4,-282.36"/>
<polygon fill="black" stroke="black" points="1047.46,-285.71 1056.4,-280.03 1045.87,-278.89 1047.46,-285.71"/>
</g>
<!-- n6 -->
<g id="node6" class="node">
<title>n6</title>
<path fill="palegreen" stroke="black" d="M270,-158C270,-158 12,-158 12,-158 6,-158 0,-152 0,-146 0,-146 0,-134 0,-134 0,-128 6,-122 12,-122 12,-122 270,-122 270,-122 276,-122 282,-128 282,-134 282,-134 282,-146 282,-146 282,-152 276,-158 270,-158"/>
<text text-anchor="middle" x="141" y="-136.3" font-family="Arial" font-size="14.00">Understands ice cube is solid before heating</text>
</g>
<!-- n2&#45;&gt;n6 -->
<g id="edge5" class="edge">
<title>n2&#45;&gt;n6</title>
<path fill="none" stroke="black" d="M172.7,-243.81C166.57,-223.94 156.41,-190.99 149.25,-167.76"/>
<polygon fill="black" stroke="black" points="152.58,-166.68 146.29,-158.16 145.89,-168.75 152.58,-166.68"/>
</g>
<!-- n7 -->
<g id="node7" class="node">
<title>n7</title>
<path fill="palegreen" stroke="black" d="M588,-158C588,-158 352,-158 352,-158 346,-158 340,-152 340,-146 340,-146 340,-134 340,-134 340,-128 346,-122 352,-122 352,-122 588,-122 588,-122 594,-122 600,-128 600,-134 600,-134 600,-146 600,-146 600,-152 594,-158 588,-158"/>
<text text-anchor="middle" x="470" y="-136.3" font-family="Arial" font-size="14.00">Understands sun represents heat source</text>
</g>
<!-- n3&#45;&gt;n7 -->
<g id="edge6" class="edge">
<title>n3&#45;&gt;n7</title>
<path fill="none" stroke="black" d="M477.71,-243.81C476.23,-224.11 473.79,-191.58 472.05,-168.39"/>
<polygon fill="black" stroke="black" points="475.52,-167.87 471.29,-158.16 468.54,-168.39 475.52,-167.87"/>
</g>
<!-- n8 -->
<g id="node8" class="node">
<title>n8</title>
<path fill="palegreen" stroke="black" d="M894,-158C894,-158 670,-158 670,-158 664,-158 658,-152 658,-146 658,-146 658,-134 658,-134 658,-128 664,-122 670,-122 670,-122 894,-122 894,-122 900,-122 906,-128 906,-134 906,-134 906,-146 906,-146 906,-152 900,-158 894,-158"/>
<text text-anchor="middle" x="782" y="-136.3" font-family="Arial" font-size="14.00">Understands ice melts into liquid water</text>
</g>
<!-- n4&#45;&gt;n8 -->
<g id="edge7" class="edge">
<title>n4&#45;&gt;n8</title>
<path fill="none" stroke="black" d="M774.29,-243.81C775.77,-224.11 778.21,-191.58 779.95,-168.39"/>
<polygon fill="black" stroke="black" points="783.46,-168.39 780.71,-158.16 776.48,-167.87 783.46,-168.39"/>
</g>
<!-- n9 -->
<g id="node9" class="node">
<title>n9</title>
<polygon fill="lightcoral" stroke="black" points="1186,-158 963.5,-140 1186,-122 1408.5,-140 1186,-158"/>
<text text-anchor="middle" x="1186" y="-136.3" font-family="Arial" font-size="14.00">Misunderstanding of process reversal</text>
</g>
<!-- n5&#45;&gt;n9 -->
<g id="edge8" class="edge">
<title>n5&#45;&gt;n9</title>
<path fill="none" stroke="black" d="M1137.2,-243.81C1146.8,-223.62 1162.8,-189.94 1173.8,-166.66"/>
<polygon fill="black" stroke="black" points="1177.07,-167.92 1178.2,-157.39 1170.75,-164.92 1177.07,-167.92"/>
</g>
<!-- n10 -->
<g id="node10" class="node">
<title>n10</title>
<polygon fill="#f28e8e" stroke="black" points="1329.5,-36 1042.5,-36 1042.5,0 1329.5,0 1329.5,-36"/>
<text text-anchor="middle" x="1186" y="-14.3" font-family="Arial" font-size="14.00">Explain that cooling water refreezes it into ice</text>
</g>
<!-- n9&#45;&gt;n10 -->
<g id="edge9" class="edge">
<title>n9&#45;&gt;n10</title>
<path fill="none" stroke="black" d="M1186,-121.81C1186,-102.11 1186,-69.58 1186,-46.39"/>
<polygon fill="black" stroke="black" points="1189.5,-46.16 1186,-36.16 1182.5,-46.16 1189.5,-46.16"/>
</g>
</g>
</svg>
