<?xml version="1.0" encoding="UTF-8" standalone="no"?>
<!DOCTYPE svg PUBLIC "-//W3C//DTD SVG 1.1//EN"
 "http://www.w3.org/Graphics/SVG/1.1/DTD/svg11.dtd">
<!-- Generated by graphviz version 2.43.0 (0)
 -->
<!-- Pages: 1 -->
<svg width="1887pt" height="410pt"
 viewBox="0.00 0.00 1887.06 410.00" xmlns="http://www.w3.org/2000/svg" xmlns:xlink="http://www.w3.org/1999/xlink">
<g id="graph0" class="graph" transform="scale(1 1) rotate(0) translate(4 406)">
<polygon fill="white" stroke="transparent" points="-4,4 -4,-406 1883.06,-406 1883.06,4 -4,4"/>
<!-- n1 -->
<g id="node1" class="node">
<title>n1</title>
<polygon fill="lightblue" stroke="black" points="1254.32,-384 1131.91,-402 887.09,-402 764.68,-384 887.09,-366 1131.91,-366 1254.32,-384"/>
<text text-anchor="middle" x="1009.5" y="-380.3" font-family="Arial" font-size="14.00">Draw a habitat and the different living things in each</text>
</g>
<!-- n2 -->
<g id="node2" class="node">
<title>n2</title>
<polygon fill="#fffdd0" stroke="black" points="409,-280 272,-280 272,-244 409,-244 409,-280"/>
<text text-anchor="middle" x="340.5" y="-258.3" font-family="Arial" font-size="14.00">Forest with tall trees</text>
</g>
<!-- n1&#45;&gt;n2 -->
<g id="edge1" class="edge">
<title>n1&#45;&gt;n2</title>
<path fill="none" stroke="black" d="M914.71,-366C782.01,-342.19 543.26,-299.37 419.58,-277.19"/>
<polygon fill="black" stroke="black" points="419.89,-273.69 409.43,-275.36 418.65,-280.58 419.89,-273.69"/>
</g>
<!-- n3 -->
<g id="node3" class="node">
<title>n3</title>
<polygon fill="#fffdd0" stroke="black" points="633.5,-280 467.5,-280 467.5,-244 633.5,-244 633.5,-280"/>
<text text-anchor="middle" x="550.5" y="-258.3" font-family="Arial" font-size="14.00">Squirrels in the branches</text>
</g>
<!-- n1&#45;&gt;n3 -->
<g id="edge2" class="edge">
<title>n1&#45;&gt;n3</title>
<path fill="none" stroke="black" d="M944.22,-365.93C860.01,-343.92 713.85,-305.71 625.26,-282.55"/>
<polygon fill="black" stroke="black" points="626.11,-279.15 615.55,-280.01 624.34,-285.93 626.11,-279.15"/>
</g>
<!-- n4 -->
<g id="node4" class="node">
<title>n4</title>
<polygon fill="#fffdd0" stroke="black" points="1878,-280 1731,-280 1731,-244 1878,-244 1878,-280"/>
<text text-anchor="middle" x="1804.5" y="-258.3" font-family="Arial" font-size="14.00">Lizards on the ground</text>
</g>
<!-- n1&#45;&gt;n4 -->
<g id="edge3" class="edge">
<title>n1&#45;&gt;n4</title>
<path fill="none" stroke="black" d="M1128.5,-365.96C1266.7,-346.03 1501.2,-311.72 1702.5,-280 1708.6,-279.05 1714.8,-278.04 1721.1,-277.02"/>
<polygon fill="black" stroke="black" points="1721.69,-280.47 1731,-275.41 1720.57,-273.56 1721.69,-280.47"/>
</g>
<!-- n5 -->
<g id="node5" class="node">
<title>n5</title>
<polygon fill="#fffdd0" stroke="black" points="1054,-280 965,-280 965,-244 1054,-244 1054,-280"/>
<text text-anchor="middle" x="1009.5" y="-258.3" font-family="Arial" font-size="14.00">Ants nearby</text>
</g>
<!-- n1&#45;&gt;n5 -->
<g id="edge4" class="edge">
<title>n1&#45;&gt;n5</title>
<path fill="none" stroke="black" d="M1009.5,-365.81C1009.5,-346.11 1009.5,-313.58 1009.5,-290.39"/>
<polygon fill="black" stroke="black" points="1013,-290.16 1009.5,-280.16 1006,-290.16 1013,-290.16"/>
</g>
<!-- n6 -->
<g id="node6" class="node">
<title>n6</title>
<polygon fill="#fffdd0" stroke="black" points="1673,-280 1534,-280 1534,-244 1673,-244 1673,-280"/>
<text text-anchor="middle" x="1603.5" y="-258.3" font-family="Arial" font-size="14.00">Bushes and grasses</text>
</g>
<!-- n1&#45;&gt;n6 -->
<g id="edge5" class="edge">
<title>n1&#45;&gt;n6</title>
<path fill="none" stroke="black" d="M1093.7,-366C1208.1,-342.87 1411.5,-301.79 1523.7,-279.12"/>
<polygon fill="black" stroke="black" points="1524.49,-282.53 1533.6,-277.12 1523.1,-275.67 1524.49,-282.53"/>
</g>
<!-- n7 -->
<g id="node7" class="node">
<title>n7</title>
<polygon fill="#fffdd0" stroke="black" points="212,-280 99,-280 99,-244 212,-244 212,-280"/>
<text text-anchor="middle" x="155.5" y="-258.3" font-family="Arial" font-size="14.00">Pond with water</text>
</g>
<!-- n1&#45;&gt;n7 -->
<g id="edge6" class="edge">
<title>n1&#45;&gt;n7</title>
<path fill="none" stroke="black" d="M876.12,-367.53C722.83,-349.18 463.89,-316.46 242.5,-280 235.87,-278.91 228.97,-277.69 222.08,-276.43"/>
<polygon fill="black" stroke="black" points="222.51,-272.95 212.04,-274.55 221.22,-279.83 222.51,-272.95"/>
</g>
<!-- n8 -->
<g id="node8" class="node">
<title>n8</title>
<polygon fill="#fffdd0" stroke="black" points="1281,-280 1112,-280 1112,-244 1281,-244 1281,-280"/>
<text text-anchor="middle" x="1196.5" y="-258.3" font-family="Arial" font-size="14.00">Fish and frog in the water</text>
</g>
<!-- n1&#45;&gt;n8 -->
<g id="edge7" class="edge">
<title>n1&#45;&gt;n8</title>
<path fill="none" stroke="black" d="M1036.3,-365.81C1069.1,-344.78 1124.6,-309.11 1161,-285.8"/>
<polygon fill="black" stroke="black" points="1163.27,-288.5 1169.8,-280.16 1159.49,-282.61 1163.27,-288.5"/>
</g>
<!-- n9 -->
<g id="node9" class="node">
<title>n9</title>
<polygon fill="#fffdd0" stroke="black" points="1476,-280 1339,-280 1339,-244 1476,-244 1476,-280"/>
<text text-anchor="middle" x="1407.5" y="-258.3" font-family="Arial" font-size="14.00">Duck on the surface</text>
</g>
<!-- n1&#45;&gt;n9 -->
<g id="edge8" class="edge">
<title>n1&#45;&gt;n9</title>
<path fill="none" stroke="black" d="M1066.1,-365.93C1138.8,-344.03 1264.6,-306.09 1341.5,-282.9"/>
<polygon fill="black" stroke="black" points="1342.53,-286.24 1351.1,-280.01 1340.52,-279.54 1342.53,-286.24"/>
</g>
<!-- n10 -->
<g id="node10" class="node">
<title>n10</title>
<polygon fill="#fffdd0" stroke="black" points="907,-280 692,-280 692,-244 907,-244 907,-280"/>
<text text-anchor="middle" x="799.5" y="-258.3" font-family="Arial" font-size="14.00">Flowering plants with tall grasses</text>
</g>
<!-- n1&#45;&gt;n10 -->
<g id="edge9" class="edge">
<title>n1&#45;&gt;n10</title>
<path fill="none" stroke="black" d="M979.41,-365.81C942.3,-344.6 879.13,-308.5 838.37,-285.21"/>
<polygon fill="black" stroke="black" points="839.95,-282.08 829.53,-280.16 836.48,-288.16 839.95,-282.08"/>
</g>
<!-- n11 -->
<g id="node11" class="node">
<title>n11</title>
<path fill="palegreen" stroke="black" d="M291,-158C291,-158 12,-158 12,-158 6,-158 0,-152 0,-146 0,-146 0,-134 0,-134 0,-128 6,-122 12,-122 12,-122 291,-122 291,-122 297,-122 303,-128 303,-134 303,-134 303,-146 303,-146 303,-152 297,-158 291,-158"/>
<text text-anchor="middle" x="151.5" y="-136.3" font-family="Arial" font-size="14.00">Understands variety in habitats: forest and pond</text>
</g>
<!-- n2&#45;&gt;n11 -->
<g id="edge10" class="edge">
<title>n2&#45;&gt;n11</title>
<path fill="none" stroke="black" d="M313.42,-243.81C280.3,-222.78 224.12,-187.11 187.42,-163.8"/>
<polygon fill="black" stroke="black" points="188.85,-160.56 178.53,-158.16 185.1,-166.47 188.85,-160.56"/>
</g>
<!-- n13 -->
<g id="node12" class="node">
<title>n13</title>
<polygon fill="lightcoral" stroke="black" points="552.5,-158 361.13,-140 552.5,-122 743.87,-140 552.5,-158"/>
<text text-anchor="middle" x="552.5" y="-136.3" font-family="Arial" font-size="14.00">Incomplete labeling of elements</text>
</g>
<!-- n2&#45;&gt;n13 -->
<g id="edge11" class="edge">
<title>n2&#45;&gt;n13</title>
<path fill="none" stroke="black" d="M370.87,-243.81C409.73,-221.82 476.86,-183.82 517.72,-160.69"/>
<polygon fill="black" stroke="black" points="519.54,-163.68 526.52,-155.71 516.09,-157.59 519.54,-163.68"/>
</g>
<!-- n3&#45;&gt;n13 -->
<g id="edge12" class="edge">
<title>n3&#45;&gt;n13</title>
<path fill="none" stroke="black" d="M550.79,-243.81C551.11,-224.11 551.66,-191.58 552.04,-168.39"/>
<polygon fill="black" stroke="black" points="555.54,-168.22 552.21,-158.16 548.54,-168.1 555.54,-168.22"/>
</g>
<!-- n12 -->
<g id="node13" class="node">
<title>n12</title>
<path fill="palegreen" stroke="black" d="M1355,-158C1355,-158 1038,-158 1038,-158 1032,-158 1026,-152 1026,-146 1026,-146 1026,-134 1026,-134 1026,-128 1032,-122 1038,-122 1038,-122 1355,-122 1355,-122 1361,-122 1367,-128 1367,-134 1367,-134 1367,-146 1367,-146 1367,-152 1361,-158 1355,-158"/>
<text text-anchor="middle" x="1196.5" y="-136.3" font-family="Arial" font-size="14.00">Understands different living things: plants and animals</text>
</g>
<!-- n3&#45;&gt;n12 -->
<g id="edge13" class="edge">
<title>n3&#45;&gt;n12</title>
<path fill="none" stroke="black" d="M633.63,-245.56C751.58,-223.65 967.29,-183.58 1094.7,-159.91"/>
<polygon fill="black" stroke="black" points="1095.61,-163.3 1104.8,-158.03 1094.33,-156.42 1095.61,-163.3"/>
</g>
<!-- n4&#45;&gt;n12 -->
<g id="edge14" class="edge">
<title>n4&#45;&gt;n12</title>
<path fill="none" stroke="black" d="M1730.9,-246.47C1621.1,-224.8 1414.4,-184.01 1292.8,-160"/>
<polygon fill="black" stroke="black" points="1293.19,-156.51 1282.7,-158.02 1291.84,-163.38 1293.19,-156.51"/>
</g>
<!-- n14 -->
<g id="node14" class="node">
<title>n14</title>
<polygon fill="lightcoral" stroke="black" points="1703.5,-158 1527.88,-140 1703.5,-122 1879.12,-140 1703.5,-158"/>
<text text-anchor="middle" x="1703.5" y="-136.3" font-family="Arial" font-size="14.00">Elements slightly out of scale</text>
</g>
<!-- n4&#45;&gt;n14 -->
<g id="edge15" class="edge">
<title>n4&#45;&gt;n14</title>
<path fill="none" stroke="black" d="M1790,-243.81C1772.6,-223.05 1743.1,-188.04 1723.5,-164.73"/>
<polygon fill="black" stroke="black" points="1726.12,-162.41 1717,-157.01 1720.76,-166.91 1726.12,-162.41"/>
</g>
<!-- n5&#45;&gt;n12 -->
<g id="edge16" class="edge">
<title>n5&#45;&gt;n12</title>
<path fill="none" stroke="black" d="M1036.3,-243.81C1069.1,-222.78 1124.6,-187.11 1161,-163.8"/>
<polygon fill="black" stroke="black" points="1163.27,-166.5 1169.8,-158.16 1159.49,-160.61 1163.27,-166.5"/>
</g>
<!-- n6&#45;&gt;n12 -->
<g id="edge17" class="edge">
<title>n6&#45;&gt;n12</title>
<path fill="none" stroke="black" d="M1545.6,-243.93C1471.3,-222.03 1342.7,-184.09 1264,-160.9"/>
<polygon fill="black" stroke="black" points="1264.78,-157.48 1254.2,-158.01 1262.8,-164.2 1264.78,-157.48"/>
</g>
<!-- n6&#45;&gt;n14 -->
<g id="edge18" class="edge">
<title>n6&#45;&gt;n14</title>
<path fill="none" stroke="black" d="M1617.8,-243.81C1635.1,-223.05 1664.3,-188.04 1683.7,-164.73"/>
<polygon fill="black" stroke="black" points="1686.44,-166.91 1690.2,-157.01 1681.08,-162.41 1686.44,-166.91"/>
</g>
<!-- n7&#45;&gt;n11 -->
<g id="edge19" class="edge">
<title>n7&#45;&gt;n11</title>
<path fill="none" stroke="black" d="M154.93,-243.81C154.27,-224.11 153.19,-191.58 152.41,-168.39"/>
<polygon fill="black" stroke="black" points="155.9,-168.04 152.07,-158.16 148.9,-168.27 155.9,-168.04"/>
</g>
<!-- n8&#45;&gt;n12 -->
<g id="edge20" class="edge">
<title>n8&#45;&gt;n12</title>
<path fill="none" stroke="black" d="M1196.5,-243.81C1196.5,-224.11 1196.5,-191.58 1196.5,-168.39"/>
<polygon fill="black" stroke="black" points="1200,-168.16 1196.5,-158.16 1193,-168.16 1200,-168.16"/>
</g>
<!-- n9&#45;&gt;n12 -->
<g id="edge21" class="edge">
<title>n9&#45;&gt;n12</title>
<path fill="none" stroke="black" d="M1377.3,-243.81C1340,-222.6 1276.5,-186.5 1235.6,-163.21"/>
<polygon fill="black" stroke="black" points="1237.12,-160.05 1226.7,-158.16 1233.67,-166.14 1237.12,-160.05"/>
</g>
<!-- n10&#45;&gt;n12 -->
<g id="edge22" class="edge">
<title>n10&#45;&gt;n12</title>
<path fill="none" stroke="black" d="M855.96,-243.93C928.28,-222.07 1053.4,-184.25 1130.2,-161.04"/>
<polygon fill="black" stroke="black" points="1131.64,-164.26 1140.2,-158.01 1129.61,-157.56 1131.64,-164.26"/>
</g>
<!-- n15 -->
<g id="node15" class="node">
<title>n15</title>
<polygon fill="#f28e8e" stroke="black" points="654,-36 451,-36 451,0 654,0 654,-36"/>
<text text-anchor="middle" x="552.5" y="-14.3" font-family="Arial" font-size="14.00">Label more elements for clarity</text>
</g>
<!-- n13&#45;&gt;n15 -->
<g id="edge23" class="edge">
<title>n13&#45;&gt;n15</title>
<path fill="none" stroke="black" d="M552.5,-121.81C552.5,-102.11 552.5,-69.58 552.5,-46.39"/>
<polygon fill="black" stroke="black" points="556,-46.16 552.5,-36.16 549,-46.16 556,-46.16"/>
</g>
<!-- n16 -->
<g id="node16" class="node">
<title>n16</title>
<polygon fill="#f28e8e" stroke="black" points="1813.5,-36 1593.5,-36 1593.5,0 1813.5,0 1813.5,-36"/>
<text text-anchor="middle" x="1703.5" y="-14.3" font-family="Arial" font-size="14.00">Pay attention to scale of elements</text>
</g>
<!-- n14&#45;&gt;n16 -->
<g id="edge24" class="edge">
<title>n14&#45;&gt;n16</title>
<path fill="none" stroke="black" d="M1703.5,-121.81C1703.5,-102.11 1703.5,-69.58 1703.5,-46.39"/>
<polygon fill="black" stroke="black" points="1707,-46.16 1703.5,-36.16 1700,-46.16 1707,-46.16"/>
</g>
</g>
</svg>
