<?xml version="1.0" encoding="UTF-8" standalone="no"?>
<!DOCTYPE svg PUBLIC "-//W3C//DTD SVG 1.1//EN"
 "http://www.w3.org/Graphics/SVG/1.1/DTD/svg11.dtd">
<!-- Generated by graphviz version 2.43.0 (0)
 -->
<!-- Pages: 1 -->
<svg width="1518pt" height="410pt"
 viewBox="0.00 0.00 1518.05 410.00" xmlns="http://www.w3.org/2000/svg" xmlns:xlink="http://www.w3.org/1999/xlink">
<g id="graph0" class="graph" transform="scale(1 1) rotate(0) translate(4 406)">
<polygon fill="white" stroke="transparent" points="-4,4 -4,-406 1514.05,-406 1514.05,4 -4,4"/>
<!-- n1 -->
<g id="node1" class="node">
<title>n1</title>
<polygon fill="lightblue" stroke="black" points="940.82,-384 818.41,-402 573.59,-402 451.18,-384 573.59,-366 818.41,-366 940.82,-384"/>
<text text-anchor="middle" x="696" y="-380.3" font-family="Arial" font-size="14.00">Draw a habitat and the different living things in each</text>
</g>
<!-- n2 -->
<g id="node2" class="node">
<title>n2</title>
<polygon fill="#fffdd0" stroke="black" points="272.5,-280 139.5,-280 139.5,-244 272.5,-244 272.5,-280"/>
<text text-anchor="middle" x="206" y="-258.3" font-family="Arial" font-size="14.00">Savanna with River</text>
</g>
<!-- n1&#45;&gt;n2 -->
<g id="edge1" class="edge">
<title>n1&#45;&gt;n2</title>
<path fill="none" stroke="black" d="M626.57,-366C535.67,-343.74 376.83,-304.84 282.54,-281.74"/>
<polygon fill="black" stroke="black" points="283.32,-278.33 272.77,-279.35 281.65,-285.13 283.32,-278.33"/>
</g>
<!-- n3 -->
<g id="node3" class="node">
<title>n3</title>
<polygon fill="#fffdd0" stroke="black" points="546,-280 378,-280 378,-244 546,-244 546,-280"/>
<text text-anchor="middle" x="462" y="-258.3" font-family="Arial" font-size="14.00">Acacia trees and grasses</text>
</g>
<!-- n1&#45;&gt;n3 -->
<g id="edge2" class="edge">
<title>n1&#45;&gt;n3</title>
<path fill="none" stroke="black" d="M662.47,-365.81C620.86,-344.47 549.84,-308.05 504.46,-284.77"/>
<polygon fill="black" stroke="black" points="505.96,-281.6 495.46,-280.16 502.76,-287.83 505.96,-281.6"/>
</g>
<!-- n4 -->
<g id="node4" class="node">
<title>n4</title>
<polygon fill="#fffdd0" stroke="black" points="765.5,-280 626.5,-280 626.5,-244 765.5,-244 765.5,-280"/>
<text text-anchor="middle" x="696" y="-258.3" font-family="Arial" font-size="14.00">Zebras, giraffes, lion</text>
</g>
<!-- n1&#45;&gt;n4 -->
<g id="edge3" class="edge">
<title>n1&#45;&gt;n4</title>
<path fill="none" stroke="black" d="M696,-365.81C696,-346.11 696,-313.58 696,-290.39"/>
<polygon fill="black" stroke="black" points="699.5,-290.16 696,-280.16 692.5,-290.16 699.5,-290.16"/>
</g>
<!-- n5 -->
<g id="node5" class="node">
<title>n5</title>
<polygon fill="#fffdd0" stroke="black" points="965,-280 857,-280 857,-244 965,-244 965,-280"/>
<text text-anchor="middle" x="911" y="-258.3" font-family="Arial" font-size="14.00">Birds in the sky</text>
</g>
<!-- n1&#45;&gt;n5 -->
<g id="edge4" class="edge">
<title>n1&#45;&gt;n5</title>
<path fill="none" stroke="black" d="M726.8,-365.81C764.88,-344.55 829.75,-308.35 871.46,-285.07"/>
<polygon fill="black" stroke="black" points="873.23,-288.09 880.25,-280.16 869.81,-281.98 873.23,-288.09"/>
</g>
<!-- n6 -->
<g id="node6" class="node">
<title>n6</title>
<polygon fill="#fffdd0" stroke="black" points="1355.5,-280 1100.5,-280 1100.5,-244 1355.5,-244 1355.5,-280"/>
<text text-anchor="middle" x="1228" y="-258.3" font-family="Arial" font-size="14.00">River with fish, hippopotamus, crocodile</text>
</g>
<!-- n1&#45;&gt;n6 -->
<g id="edge5" class="edge">
<title>n1&#45;&gt;n6</title>
<path fill="none" stroke="black" d="M771.38,-366C869.3,-343.91 1039.8,-305.44 1142.5,-282.29"/>
<polygon fill="black" stroke="black" points="1143.52,-285.65 1152.5,-280.03 1141.97,-278.82 1143.52,-285.65"/>
</g>
<!-- n7 -->
<g id="node7" class="node">
<title>n7</title>
<path fill="palegreen" stroke="black" d="M262,-158C262,-158 12,-158 12,-158 6,-158 0,-152 0,-146 0,-146 0,-134 0,-134 0,-128 6,-122 12,-122 12,-122 262,-122 262,-122 268,-122 274,-128 274,-134 274,-134 274,-146 274,-146 274,-152 268,-158 262,-158"/>
<text text-anchor="middle" x="137" y="-136.3" font-family="Arial" font-size="14.00">Differentiates land and water environments</text>
</g>
<!-- n2&#45;&gt;n7 -->
<g id="edge6" class="edge">
<title>n2&#45;&gt;n7</title>
<path fill="none" stroke="black" d="M196.11,-243.81C184.53,-223.67 165.24,-190.1 151.85,-166.83"/>
<polygon fill="black" stroke="black" points="154.89,-165.09 146.87,-158.16 148.82,-168.57 154.89,-165.09"/>
</g>
<!-- n8 -->
<g id="node8" class="node">
<title>n8</title>
<path fill="palegreen" stroke="black" d="M535.5,-158C535.5,-158 344.5,-158 344.5,-158 338.5,-158 332.5,-152 332.5,-146 332.5,-146 332.5,-134 332.5,-134 332.5,-128 338.5,-122 344.5,-122 344.5,-122 535.5,-122 535.5,-122 541.5,-122 547.5,-128 547.5,-134 547.5,-134 547.5,-146 547.5,-146 547.5,-152 541.5,-158 535.5,-158"/>
<text text-anchor="middle" x="440" y="-136.3" font-family="Arial" font-size="14.00">Correct types of plants for habitat</text>
</g>
<!-- n3&#45;&gt;n8 -->
<g id="edge7" class="edge">
<title>n3&#45;&gt;n8</title>
<path fill="none" stroke="black" d="M458.85,-243.81C455.22,-224.02 449.22,-191.29 444.96,-168.08"/>
<polygon fill="black" stroke="black" points="448.39,-167.37 443.15,-158.16 441.5,-168.63 448.39,-167.37"/>
</g>
<!-- n9 -->
<g id="node9" class="node">
<title>n9</title>
<path fill="palegreen" stroke="black" d="M774,-158C774,-158 618,-158 618,-158 612,-158 606,-152 606,-146 606,-146 606,-134 606,-134 606,-128 612,-122 618,-122 618,-122 774,-122 774,-122 780,-122 786,-128 786,-134 786,-134 786,-146 786,-146 786,-152 780,-158 774,-158"/>
<text text-anchor="middle" x="696" y="-136.3" font-family="Arial" font-size="14.00">Correct diversity of animals</text>
</g>
<!-- n4&#45;&gt;n9 -->
<g id="edge8" class="edge">
<title>n4&#45;&gt;n9</title>
<path fill="none" stroke="black" d="M696,-243.81C696,-224.11 696,-191.58 696,-168.39"/>
<polygon fill="black" stroke="black" points="699.5,-168.16 696,-158.16 692.5,-168.16 699.5,-168.16"/>
</g>
<!-- n10 -->
<g id="node10" class="node">
<title>n10</title>
<path fill="palegreen" stroke="black" d="M1032,-158C1032,-158 856,-158 856,-158 850,-158 844,-152 844,-146 844,-146 844,-134 844,-134 844,-128 850,-122 856,-122 856,-122 1032,-122 1032,-122 1038,-122 1044,-128 1044,-134 1044,-134 1044,-146 1044,-146 1044,-152 1038,-158 1032,-158"/>
<text text-anchor="middle" x="944" y="-136.3" font-family="Arial" font-size="14.00">Understands presence of birds</text>
</g>
<!-- n5&#45;&gt;n10 -->
<g id="edge9" class="edge">
<title>n5&#45;&gt;n10</title>
<path fill="none" stroke="black" d="M915.73,-243.81C921.17,-224.02 930.17,-191.29 936.55,-168.08"/>
<polygon fill="black" stroke="black" points="940,-168.73 939.28,-158.16 933.25,-166.87 940,-168.73"/>
</g>
<!-- n11 -->
<g id="node11" class="node">
<title>n11</title>
<polygon fill="lightcoral" stroke="black" points="1306,-158 1101.89,-140 1306,-122 1510.11,-140 1306,-158"/>
<text text-anchor="middle" x="1306" y="-136.3" font-family="Arial" font-size="14.00">Misplacement of animal clustering</text>
</g>
<!-- n6&#45;&gt;n11 -->
<g id="edge10" class="edge">
<title>n6&#45;&gt;n11</title>
<path fill="none" stroke="black" d="M1239.2,-243.81C1252.4,-223.44 1274.6,-189.34 1289.7,-166.04"/>
<polygon fill="black" stroke="black" points="1292.8,-167.69 1295.3,-157.39 1286.93,-163.88 1292.8,-167.69"/>
</g>
<!-- n12 -->
<g id="node12" class="node">
<title>n12</title>
<polygon fill="#f28e8e" stroke="black" points="1470,-36 1142,-36 1142,0 1470,0 1470,-36"/>
<text text-anchor="middle" x="1306" y="-14.3" font-family="Arial" font-size="14.00">Clarify that animals often cluster near water sources</text>
</g>
<!-- n11&#45;&gt;n12 -->
<g id="edge11" class="edge">
<title>n11&#45;&gt;n12</title>
<path fill="none" stroke="black" d="M1306,-121.81C1306,-102.11 1306,-69.58 1306,-46.39"/>
<polygon fill="black" stroke="black" points="1309.5,-46.16 1306,-36.16 1302.5,-46.16 1309.5,-46.16"/>
</g>
</g>
</svg>
