<?xml version="1.0" encoding="UTF-8" standalone="no"?>
<!DOCTYPE svg PUBLIC "-//W3C//DTD SVG 1.1//EN"
 "http://www.w3.org/Graphics/SVG/1.1/DTD/svg11.dtd">
<!-- Generated by graphviz version 2.43.0 (0)
 -->
<!-- Pages: 1 -->
<svg width="1213pt" height="532pt"
 viewBox="0.00 0.00 1213.10 532.00" xmlns="http://www.w3.org/2000/svg" xmlns:xlink="http://www.w3.org/1999/xlink">
<g id="graph0" class="graph" transform="scale(1 1) rotate(0) translate(4 528)">
<polygon fill="white" stroke="transparent" points="-4,4 -4,-528 1209.1,-528 1209.1,4 -4,4"/>
<!-- n1 -->
<g id="node1" class="node">
<title>n1</title>
<polygon fill="lightblue" stroke="black" points="1091.13,-506 999.13,-524 815.13,-524 723.13,-506 815.13,-488 999.13,-488 1091.13,-506"/>
<text text-anchor="middle" x="907.13" y="-502.3" font-family="Arial" font-size="14.00">Illustrate plants with and without water</text>
</g>
<!-- n2 -->
<g id="node2" class="node">
<title>n2</title>
<polygon fill="#fffdd0" stroke="black" points="899.13,-402 597.13,-402 597.13,-366 899.13,-366 899.13,-402"/>
<text text-anchor="middle" x="748.13" y="-380.3" font-family="Arial" font-size="14.00">Two similar plant shapes with stems and leaves</text>
</g>
<!-- n1&#45;&gt;n2 -->
<g id="edge1" class="edge">
<title>n1&#45;&gt;n2</title>
<path fill="none" stroke="black" d="M884.35,-487.81C856.72,-466.96 810.02,-431.71 779.13,-408.4"/>
<polygon fill="black" stroke="black" points="780.96,-405.4 770.87,-402.16 776.74,-410.98 780.96,-405.4"/>
</g>
<!-- n3 -->
<g id="node3" class="node">
<title>n3</title>
<polygon fill="#fffdd0" stroke="black" points="1186.1,-402 966.1,-402 966.1,-366 1186.1,-366 1186.1,-402"/>
<text text-anchor="middle" x="1076.1" y="-380.3" font-family="Arial" font-size="14.00">Bright yellow sun in the top corner</text>
</g>
<!-- n1&#45;&gt;n3 -->
<g id="edge2" class="edge">
<title>n1&#45;&gt;n3</title>
<path fill="none" stroke="black" d="M931.34,-487.81C960.84,-466.87 1010.8,-431.41 1043.6,-408.1"/>
<polygon fill="black" stroke="black" points="1045.86,-410.79 1052,-402.16 1041.81,-405.08 1045.86,-410.79"/>
</g>
<!-- n4 -->
<g id="node4" class="node">
<title>n4</title>
<polygon fill="lightcoral" stroke="black" points="329.13,-280 145.13,-262 329.13,-244 513.13,-262 329.13,-280"/>
<text text-anchor="middle" x="329.13" y="-258.3" font-family="Arial" font-size="14.00">Plants look similar and healthy</text>
</g>
<!-- n2&#45;&gt;n4 -->
<g id="edge3" class="edge">
<title>n2&#45;&gt;n4</title>
<path fill="none" stroke="black" d="M688.54,-365.93C606.97,-342.57 461.71,-300.97 383.15,-278.47"/>
<polygon fill="black" stroke="black" points="384.03,-275.08 373.45,-275.69 382.1,-281.81 384.03,-275.08"/>
</g>
<!-- n5 -->
<g id="node5" class="node">
<title>n5</title>
<polygon fill="lightcoral" stroke="black" points="748.13,-280 589.1,-262 748.13,-244 907.16,-262 748.13,-280"/>
<text text-anchor="middle" x="748.13" y="-258.3" font-family="Arial" font-size="14.00">Omission of roots and soil</text>
</g>
<!-- n2&#45;&gt;n5 -->
<g id="edge4" class="edge">
<title>n2&#45;&gt;n5</title>
<path fill="none" stroke="black" d="M748.13,-365.81C748.13,-346.11 748.13,-313.58 748.13,-290.39"/>
<polygon fill="black" stroke="black" points="751.63,-290.16 748.13,-280.16 744.63,-290.16 751.63,-290.16"/>
</g>
<!-- n6 -->
<g id="node6" class="node">
<title>n6</title>
<path fill="palegreen" stroke="black" d="M1193.1,-280C1193.1,-280 977.1,-280 977.1,-280 971.1,-280 965.1,-274 965.1,-268 965.1,-268 965.1,-256 965.1,-256 965.1,-250 971.1,-244 977.1,-244 977.1,-244 1193.1,-244 1193.1,-244 1199.1,-244 1205.1,-250 1205.1,-256 1205.1,-256 1205.1,-268 1205.1,-268 1205.1,-274 1199.1,-280 1193.1,-280"/>
<text text-anchor="middle" x="1085.1" y="-258.3" font-family="Arial" font-size="14.00">Sun is included to show need for light</text>
</g>
<!-- n3&#45;&gt;n6 -->
<g id="edge5" class="edge">
<title>n3&#45;&gt;n6</title>
<path fill="none" stroke="black" d="M1077.4,-365.81C1078.9,-346.11 1081.3,-313.58 1083.1,-290.39"/>
<polygon fill="black" stroke="black" points="1086.61,-290.38 1083.8,-280.16 1079.63,-289.9 1086.61,-290.38"/>
</g>
<!-- n7 -->
<g id="node7" class="node">
<title>n7</title>
<polygon fill="lightcoral" stroke="black" points="294.13,-158 -0.13,-140 294.13,-122 588.39,-140 294.13,-158"/>
<text text-anchor="middle" x="294.13" y="-136.3" font-family="Arial" font-size="14.00">Difficulty differentiating well&#45;watered and dry plants</text>
</g>
<!-- n4&#45;&gt;n7 -->
<g id="edge6" class="edge">
<title>n4&#45;&gt;n7</title>
<path fill="none" stroke="black" d="M324.26,-244.31C318.47,-224.46 308.73,-191.04 301.89,-167.6"/>
<polygon fill="black" stroke="black" points="305.23,-166.55 299.07,-157.93 298.51,-168.51 305.23,-166.55"/>
</g>
<!-- n8 -->
<g id="node8" class="node">
<title>n8</title>
<polygon fill="#f28e8e" stroke="black" points="885.63,-158 646.63,-158 646.63,-122 885.63,-122 885.63,-158"/>
<text text-anchor="middle" x="766.13" y="-136.3" font-family="Arial" font-size="14.00">Connect roots and soil to plant health</text>
</g>
<!-- n5&#45;&gt;n8 -->
<g id="edge7" class="edge">
<title>n5&#45;&gt;n8</title>
<path fill="none" stroke="black" d="M750.67,-244.06C753.63,-224.34 758.56,-191.5 762.05,-168.2"/>
<polygon fill="black" stroke="black" points="765.52,-168.65 763.54,-158.24 758.6,-167.61 765.52,-168.65"/>
</g>
<!-- n9 -->
<g id="node9" class="node">
<title>n9</title>
<polygon fill="#f28e8e" stroke="black" points="460.13,-36 128.13,-36 128.13,0 460.13,0 460.13,-36"/>
<text text-anchor="middle" x="294.13" y="-14.3" font-family="Arial" font-size="14.00">Show differences in plant health with water presence</text>
</g>
<!-- n7&#45;&gt;n9 -->
<g id="edge8" class="edge">
<title>n7&#45;&gt;n9</title>
<path fill="none" stroke="black" d="M294.13,-121.81C294.13,-102.11 294.13,-69.58 294.13,-46.39"/>
<polygon fill="black" stroke="black" points="297.63,-46.16 294.13,-36.16 290.63,-46.16 297.63,-46.16"/>
</g>
</g>
</svg>
