<?xml version="1.0" encoding="UTF-8" standalone="no"?>
<!DOCTYPE svg PUBLIC "-//W3C//DTD SVG 1.1//EN"
 "http://www.w3.org/Graphics/SVG/1.1/DTD/svg11.dtd">
<!-- Generated by graphviz version 2.43.0 (0)
 -->
<!-- Pages: 1 -->
<svg width="1722pt" height="410pt"
 viewBox="0.00 0.00 1722.19 410.00" xmlns="http://www.w3.org/2000/svg" xmlns:xlink="http://www.w3.org/1999/xlink">
<g id="graph0" class="graph" transform="scale(1 1) rotate(0) translate(4 406)">
<polygon fill="white" stroke="transparent" points="-4,4 -4,-406 1718.19,-406 1718.19,4 -4,4"/>
<!-- n1 -->
<g id="node1" class="node">
<title>n1</title>
<polygon fill="lightblue" stroke="black" points="1044.5,-384 880.5,-402 552.5,-402 388.5,-384 552.5,-366 880.5,-366 1044.5,-384"/>
<text text-anchor="middle" x="716.5" y="-380.3" font-family="Arial" font-size="14.00">Draw reversible and irreversible changes (ice melting vs. egg cooking)</text>
</g>
<!-- n2 -->
<g id="node2" class="node">
<title>n2</title>
<polygon fill="#fffdd0" stroke="black" points="333,-280 0,-280 0,-244 333,-244 333,-280"/>
<text text-anchor="middle" x="166.5" y="-258.3" font-family="Arial" font-size="14.00">Rectangular shape with blue wavy lines (block of ice)</text>
</g>
<!-- n1&#45;&gt;n2 -->
<g id="edge1" class="edge">
<title>n1&#45;&gt;n2</title>
<path fill="none" stroke="black" d="M638.57,-366C537.23,-343.89 360.67,-305.37 254.58,-282.22"/>
<polygon fill="black" stroke="black" points="255.06,-278.74 244.54,-280.03 253.56,-285.58 255.06,-278.74"/>
</g>
<!-- n3 -->
<g id="node3" class="node">
<title>n3</title>
<polygon fill="#fffdd0" stroke="black" points="547.5,-280 391.5,-280 391.5,-244 547.5,-244 547.5,-280"/>
<text text-anchor="middle" x="469.5" y="-258.3" font-family="Arial" font-size="14.00">White oval shape (egg)</text>
</g>
<!-- n1&#45;&gt;n3 -->
<g id="edge2" class="edge">
<title>n1&#45;&gt;n3</title>
<path fill="none" stroke="black" d="M681.37,-365.93C637.3,-344.52 561.68,-307.78 513.71,-284.48"/>
<polygon fill="black" stroke="black" points="515.03,-281.23 504.51,-280.01 511.97,-287.53 515.03,-281.23"/>
</g>
<!-- n4 -->
<g id="node4" class="node">
<title>n4</title>
<polygon fill="#fffdd0" stroke="black" points="827,-280 606,-280 606,-244 827,-244 827,-280"/>
<text text-anchor="middle" x="716.5" y="-258.3" font-family="Arial" font-size="14.00">Light blue scribbles over rectangle</text>
</g>
<!-- n1&#45;&gt;n4 -->
<g id="edge3" class="edge">
<title>n1&#45;&gt;n4</title>
<path fill="none" stroke="black" d="M716.5,-365.81C716.5,-346.11 716.5,-313.58 716.5,-290.39"/>
<polygon fill="black" stroke="black" points="720,-290.16 716.5,-280.16 713,-290.16 720,-290.16"/>
</g>
<!-- n5 -->
<g id="node5" class="node">
<title>n5</title>
<polygon fill="#fffdd0" stroke="black" points="1054,-280 885,-280 885,-244 1054,-244 1054,-280"/>
<text text-anchor="middle" x="969.5" y="-258.3" font-family="Arial" font-size="14.00">Yellow scribbles over egg</text>
</g>
<!-- n1&#45;&gt;n5 -->
<g id="edge4" class="edge">
<title>n1&#45;&gt;n5</title>
<path fill="none" stroke="black" d="M752.48,-365.93C797.72,-344.48 875.4,-307.63 924.52,-284.33"/>
<polygon fill="black" stroke="black" points="926.1,-287.45 933.64,-280.01 923.1,-281.13 926.1,-287.45"/>
</g>
<!-- n6 -->
<g id="node6" class="node">
<title>n6</title>
<polygon fill="#fffdd0" stroke="black" points="1432,-280 1237,-280 1237,-244 1432,-244 1432,-280"/>
<text text-anchor="middle" x="1334.5" y="-258.3" font-family="Arial" font-size="14.00">Red arrows pointing outwards</text>
</g>
<!-- n1&#45;&gt;n6 -->
<g id="edge5" class="edge">
<title>n1&#45;&gt;n6</title>
<path fill="none" stroke="black" d="M804.06,-366C918.39,-343.8 1117.9,-305.05 1237,-281.94"/>
<polygon fill="black" stroke="black" points="1237.65,-285.38 1246.8,-280.03 1236.32,-278.51 1237.65,-285.38"/>
</g>
<!-- n7 -->
<g id="node7" class="node">
<title>n7</title>
<path fill="palegreen" stroke="black" d="M314.5,-158C314.5,-158 18.5,-158 18.5,-158 12.5,-158 6.5,-152 6.5,-146 6.5,-146 6.5,-134 6.5,-134 6.5,-128 12.5,-122 18.5,-122 18.5,-122 314.5,-122 314.5,-122 320.5,-122 326.5,-128 326.5,-134 326.5,-134 326.5,-146 326.5,-146 326.5,-152 320.5,-158 314.5,-158"/>
<text text-anchor="middle" x="166.5" y="-136.3" font-family="Arial" font-size="14.00">Understands initial state of materials (ice, raw egg)</text>
</g>
<!-- n2&#45;&gt;n7 -->
<g id="edge6" class="edge">
<title>n2&#45;&gt;n7</title>
<path fill="none" stroke="black" d="M166.5,-243.81C166.5,-224.11 166.5,-191.58 166.5,-168.39"/>
<polygon fill="black" stroke="black" points="170,-168.16 166.5,-158.16 163,-168.16 170,-168.16"/>
</g>
<!-- n3&#45;&gt;n7 -->
<g id="edge7" class="edge">
<title>n3&#45;&gt;n7</title>
<path fill="none" stroke="black" d="M426.41,-243.93C371.78,-222.3 277.64,-185.02 218.91,-161.76"/>
<polygon fill="black" stroke="black" points="220.03,-158.44 209.44,-158.01 217.45,-164.95 220.03,-158.44"/>
</g>
<!-- n8 -->
<g id="node8" class="node">
<title>n8</title>
<polygon fill="lightcoral" stroke="black" points="766.5,-158 384,-140 766.5,-122 1149,-140 766.5,-158"/>
<text text-anchor="middle" x="766.5" y="-136.3" font-family="Arial" font-size="14.00">Misinterprets process and outcomes (ice melting and egg cooking)</text>
</g>
<!-- n4&#45;&gt;n8 -->
<g id="edge8" class="edge">
<title>n4&#45;&gt;n8</title>
<path fill="none" stroke="black" d="M723.66,-243.81C732.03,-223.73 745.95,-190.32 755.64,-167.06"/>
<polygon fill="black" stroke="black" points="758.9,-168.35 759.51,-157.77 752.43,-165.66 758.9,-168.35"/>
</g>
<!-- n5&#45;&gt;n8 -->
<g id="edge9" class="edge">
<title>n5&#45;&gt;n8</title>
<path fill="none" stroke="black" d="M940.42,-243.81C903.98,-222.27 841.56,-185.37 802.25,-162.13"/>
<polygon fill="black" stroke="black" points="803.66,-158.9 793.27,-156.82 800.1,-164.92 803.66,-158.9"/>
</g>
<!-- n9 -->
<g id="node9" class="node">
<title>n9</title>
<polygon fill="lightcoral" stroke="black" points="1460.5,-158 1206.63,-140 1460.5,-122 1714.37,-140 1460.5,-158"/>
<text text-anchor="middle" x="1460.5" y="-136.3" font-family="Arial" font-size="14.00">Incorrect use of arrows for cause and effect</text>
</g>
<!-- n6&#45;&gt;n9 -->
<g id="edge10" class="edge">
<title>n6&#45;&gt;n9</title>
<path fill="none" stroke="black" d="M1352.6,-243.81C1374.5,-222.87 1411.7,-187.43 1436.2,-164.12"/>
<polygon fill="black" stroke="black" points="1438.85,-166.43 1443.7,-157.01 1434.03,-161.35 1438.85,-166.43"/>
</g>
<!-- n10 -->
<g id="node10" class="node">
<title>n10</title>
<polygon fill="#f28e8e" stroke="black" points="910,-36 623,-36 623,0 910,0 910,-36"/>
<text text-anchor="middle" x="766.5" y="-14.3" font-family="Arial" font-size="14.00">Depict final forms (puddle of water, solid egg)</text>
</g>
<!-- n8&#45;&gt;n10 -->
<g id="edge11" class="edge">
<title>n8&#45;&gt;n10</title>
<path fill="none" stroke="black" d="M766.5,-121.81C766.5,-102.11 766.5,-69.58 766.5,-46.39"/>
<polygon fill="black" stroke="black" points="770,-46.16 766.5,-36.16 763,-46.16 770,-46.16"/>
</g>
<!-- n11 -->
<g id="node11" class="node">
<title>n11</title>
<polygon fill="#f28e8e" stroke="black" points="1594,-36 1327,-36 1327,0 1594,0 1594,-36"/>
<text text-anchor="middle" x="1460.5" y="-14.3" font-family="Arial" font-size="14.00">Use arrows to show sequence of changes</text>
</g>
<!-- n9&#45;&gt;n11 -->
<g id="edge12" class="edge">
<title>n9&#45;&gt;n11</title>
<path fill="none" stroke="black" d="M1460.5,-121.81C1460.5,-102.11 1460.5,-69.58 1460.5,-46.39"/>
<polygon fill="black" stroke="black" points="1464,-46.16 1460.5,-36.16 1457,-46.16 1464,-46.16"/>
</g>
</g>
</svg>
