<?xml version="1.0" encoding="UTF-8" standalone="no"?>
<!DOCTYPE svg PUBLIC "-//W3C//DTD SVG 1.1//EN"
 "http://www.w3.org/Graphics/SVG/1.1/DTD/svg11.dtd">
<!-- Generated by graphviz version 2.43.0 (0)
 -->
<!-- Pages: 1 -->
<svg width="1826pt" height="410pt"
 viewBox="0.00 0.00 1825.50 410.00" xmlns="http://www.w3.org/2000/svg" xmlns:xlink="http://www.w3.org/1999/xlink">
<g id="graph0" class="graph" transform="scale(1 1) rotate(0) translate(4 406)">
<polygon fill="white" stroke="transparent" points="-4,4 -4,-406 1821.5,-406 1821.5,4 -4,4"/>
<!-- n1 -->
<g id="node1" class="node">
<title>n1</title>
<polygon fill="lightblue" stroke="black" points="894.82,-384 772.41,-402 527.59,-402 405.18,-384 527.59,-366 772.41,-366 894.82,-384"/>
<text text-anchor="middle" x="650" y="-380.3" font-family="Arial" font-size="14.00">Draw a habitat and the different living things in each</text>
</g>
<!-- n2 -->
<g id="node2" class="node">
<title>n2</title>
<polygon fill="#fffdd0" stroke="black" points="303.5,-280 146.5,-280 146.5,-244 303.5,-244 303.5,-280"/>
<text text-anchor="middle" x="225" y="-258.3" font-family="Arial" font-size="14.00">Land habitat with a tree</text>
</g>
<!-- n1&#45;&gt;n2 -->
<g id="edge1" class="edge">
<title>n1&#45;&gt;n2</title>
<path fill="none" stroke="black" d="M589.56,-365.93C511.82,-343.99 377.07,-305.94 294.98,-282.76"/>
<polygon fill="black" stroke="black" points="295.8,-279.36 285.23,-280.01 293.9,-286.09 295.8,-279.36"/>
</g>
<!-- n3 -->
<g id="node3" class="node">
<title>n3</title>
<polygon fill="#fffdd0" stroke="black" points="561,-280 417,-280 417,-244 561,-244 561,-280"/>
<text text-anchor="middle" x="489" y="-258.3" font-family="Arial" font-size="14.00">Two squirrels on land</text>
</g>
<!-- n1&#45;&gt;n3 -->
<g id="edge2" class="edge">
<title>n1&#45;&gt;n3</title>
<path fill="none" stroke="black" d="M626.93,-365.81C598.96,-344.96 551.67,-309.71 520.39,-286.4"/>
<polygon fill="black" stroke="black" points="522.13,-283.33 512.02,-280.16 517.95,-288.94 522.13,-283.33"/>
</g>
<!-- n4 -->
<g id="node4" class="node">
<title>n4</title>
<polygon fill="#fffdd0" stroke="black" points="836.5,-280 675.5,-280 675.5,-244 836.5,-244 836.5,-280"/>
<text text-anchor="middle" x="756" y="-258.3" font-family="Arial" font-size="14.00">Water habitat with a fish</text>
</g>
<!-- n1&#45;&gt;n4 -->
<g id="edge3" class="edge">
<title>n1&#45;&gt;n4</title>
<path fill="none" stroke="black" d="M665.19,-365.81C683.21,-345.4 713.41,-311.21 734,-287.91"/>
<polygon fill="black" stroke="black" points="736.85,-289.97 740.84,-280.16 731.6,-285.34 736.85,-289.97"/>
</g>
<!-- n5 -->
<g id="node5" class="node">
<title>n5</title>
<polygon fill="#fffdd0" stroke="black" points="1366,-280 1226,-280 1226,-244 1366,-244 1366,-280"/>
<text text-anchor="middle" x="1296" y="-258.3" font-family="Arial" font-size="14.00">Tree in water habitat</text>
</g>
<!-- n1&#45;&gt;n5 -->
<g id="edge4" class="edge">
<title>n1&#45;&gt;n5</title>
<path fill="none" stroke="black" d="M741.53,-366C868.31,-342.45 1095.3,-300.27 1215.8,-277.9"/>
<polygon fill="black" stroke="black" points="1216.51,-281.33 1225.7,-276.06 1215.23,-274.45 1216.51,-281.33"/>
</g>
<!-- n6 -->
<g id="node6" class="node">
<title>n6</title>
<path fill="palegreen" stroke="black" d="M216,-158C216,-158 12,-158 12,-158 6,-158 0,-152 0,-146 0,-146 0,-134 0,-134 0,-128 6,-122 12,-122 12,-122 216,-122 216,-122 222,-122 228,-128 228,-134 228,-134 228,-146 228,-146 228,-152 222,-158 216,-158"/>
<text text-anchor="middle" x="114" y="-136.3" font-family="Arial" font-size="14.00">Correct identification of land habitat</text>
</g>
<!-- n2&#45;&gt;n6 -->
<g id="edge5" class="edge">
<title>n2&#45;&gt;n6</title>
<path fill="none" stroke="black" d="M209.1,-243.81C190.14,-223.31 158.32,-188.91 136.76,-165.6"/>
<polygon fill="black" stroke="black" points="139.23,-163.12 129.87,-158.16 134.1,-167.88 139.23,-163.12"/>
</g>
<!-- n7 -->
<g id="node7" class="node">
<title>n7</title>
<path fill="palegreen" stroke="black" d="M568,-158C568,-158 298,-158 298,-158 292,-158 286,-152 286,-146 286,-146 286,-134 286,-134 286,-128 292,-122 298,-122 298,-122 568,-122 568,-122 574,-122 580,-128 580,-134 580,-134 580,-146 580,-146 580,-152 574,-158 568,-158"/>
<text text-anchor="middle" x="433" y="-136.3" font-family="Arial" font-size="14.00">Correct inclusion of living things in land habitat</text>
</g>
<!-- n3&#45;&gt;n7 -->
<g id="edge6" class="edge">
<title>n3&#45;&gt;n7</title>
<path fill="none" stroke="black" d="M480.98,-243.81C471.66,-223.85 456.19,-190.7 445.34,-167.45"/>
<polygon fill="black" stroke="black" points="448.41,-165.75 441.01,-158.16 442.06,-168.7 448.41,-165.75"/>
</g>
<!-- n8 -->
<g id="node8" class="node">
<title>n8</title>
<path fill="palegreen" stroke="black" d="M861.5,-158C861.5,-158 650.5,-158 650.5,-158 644.5,-158 638.5,-152 638.5,-146 638.5,-146 638.5,-134 638.5,-134 638.5,-128 644.5,-122 650.5,-122 650.5,-122 861.5,-122 861.5,-122 867.5,-122 873.5,-128 873.5,-134 873.5,-134 873.5,-146 873.5,-146 873.5,-152 867.5,-158 861.5,-158"/>
<text text-anchor="middle" x="756" y="-136.3" font-family="Arial" font-size="14.00">Basic understanding of water habitat</text>
</g>
<!-- n4&#45;&gt;n8 -->
<g id="edge7" class="edge">
<title>n4&#45;&gt;n8</title>
<path fill="none" stroke="black" d="M756,-243.81C756,-224.11 756,-191.58 756,-168.39"/>
<polygon fill="black" stroke="black" points="759.5,-168.16 756,-158.16 752.5,-168.16 759.5,-168.16"/>
</g>
<!-- n9 -->
<g id="node9" class="node">
<title>n9</title>
<polygon fill="lightcoral" stroke="black" points="1156,-158 931.5,-140 1156,-122 1380.5,-140 1156,-158"/>
<text text-anchor="middle" x="1156" y="-136.3" font-family="Arial" font-size="14.00">Misidentification of diverse aquatic life</text>
</g>
<!-- n4&#45;&gt;n9 -->
<g id="edge8" class="edge">
<title>n4&#45;&gt;n9</title>
<path fill="none" stroke="black" d="M812.89,-243.93C889.67,-220.9 1025.6,-180.13 1101.2,-157.43"/>
<polygon fill="black" stroke="black" points="1102.52,-160.69 1111.1,-154.48 1100.52,-153.98 1102.52,-160.69"/>
</g>
<!-- n10 -->
<g id="node10" class="node">
<title>n10</title>
<polygon fill="lightcoral" stroke="black" points="1628,-158 1438.5,-140 1628,-122 1817.5,-140 1628,-158"/>
<text text-anchor="middle" x="1628" y="-136.3" font-family="Arial" font-size="14.00">Tree placement in water habitat</text>
</g>
<!-- n5&#45;&gt;n10 -->
<g id="edge9" class="edge">
<title>n5&#45;&gt;n10</title>
<path fill="none" stroke="black" d="M1343.2,-243.93C1406.4,-221.09 1517.9,-180.79 1581,-157.99"/>
<polygon fill="black" stroke="black" points="1582.49,-161.17 1590.7,-154.48 1580.11,-154.59 1582.49,-161.17"/>
</g>
<!-- n11 -->
<g id="node11" class="node">
<title>n11</title>
<polygon fill="#f28e8e" stroke="black" points="1288.5,-36 1023.5,-36 1023.5,0 1288.5,0 1288.5,-36"/>
<text text-anchor="middle" x="1156" y="-14.3" font-family="Arial" font-size="14.00">Expand the variety of aquatic living things</text>
</g>
<!-- n9&#45;&gt;n11 -->
<g id="edge10" class="edge">
<title>n9&#45;&gt;n11</title>
<path fill="none" stroke="black" d="M1156,-121.81C1156,-102.11 1156,-69.58 1156,-46.39"/>
<polygon fill="black" stroke="black" points="1159.5,-46.16 1156,-36.16 1152.5,-46.16 1159.5,-46.16"/>
</g>
<!-- n12 -->
<g id="node12" class="node">
<title>n12</title>
<polygon fill="#f28e8e" stroke="black" points="1749.5,-36 1506.5,-36 1506.5,0 1749.5,0 1749.5,-36"/>
<text text-anchor="middle" x="1628" y="-14.3" font-family="Arial" font-size="14.00">Relocate tree to better fit environment</text>
</g>
<!-- n10&#45;&gt;n12 -->
<g id="edge11" class="edge">
<title>n10&#45;&gt;n12</title>
<path fill="none" stroke="black" d="M1628,-121.81C1628,-102.11 1628,-69.58 1628,-46.39"/>
<polygon fill="black" stroke="black" points="1631.5,-46.16 1628,-36.16 1624.5,-46.16 1631.5,-46.16"/>
</g>
</g>
</svg>
