<?xml version="1.0" encoding="UTF-8" standalone="no"?>
<!DOCTYPE svg PUBLIC "-//W3C//DTD SVG 1.1//EN"
 "http://www.w3.org/Graphics/SVG/1.1/DTD/svg11.dtd">
<!-- Generated by graphviz version 2.43.0 (0)
 -->
<!-- Pages: 1 -->
<svg width="1285pt" height="410pt"
 viewBox="0.00 0.00 1285.00 410.00" xmlns="http://www.w3.org/2000/svg" xmlns:xlink="http://www.w3.org/1999/xlink">
<g id="graph0" class="graph" transform="scale(1 1) rotate(0) translate(4 406)">
<polygon fill="white" stroke="transparent" points="-4,4 -4,-406 1281,-406 1281,4 -4,4"/>
<!-- n1 -->
<g id="node1" class="node">
<title>n1</title>
<polygon fill="lightblue" stroke="black" points="1001,-384 889.5,-402 666.5,-402 555,-384 666.5,-366 889.5,-366 1001,-384"/>
<text text-anchor="middle" x="778" y="-380.3" font-family="Arial" font-size="14.00">Draw a string telephone between two students.</text>
</g>
<!-- n2 -->
<g id="node2" class="node">
<title>n2</title>
<polygon fill="#fffdd0" stroke="black" points="363.5,-280 172.5,-280 172.5,-244 363.5,-244 363.5,-280"/>
<text text-anchor="middle" x="268" y="-258.3" font-family="Arial" font-size="14.00">Two children with paper cups</text>
</g>
<!-- n1&#45;&gt;n2 -->
<g id="edge1" class="edge">
<title>n1&#45;&gt;n2</title>
<path fill="none" stroke="black" d="M705.74,-366C611.96,-343.93 448.71,-305.52 350.27,-282.36"/>
<polygon fill="black" stroke="black" points="350.9,-278.91 340.36,-280.03 349.29,-285.73 350.9,-278.91"/>
</g>
<!-- n3 -->
<g id="node3" class="node">
<title>n3</title>
<polygon fill="#fffdd0" stroke="black" points="774.5,-280 469.5,-280 469.5,-244 774.5,-244 774.5,-280"/>
<text text-anchor="middle" x="622" y="-258.3" font-family="Arial" font-size="14.00">String connected between cups with some slack</text>
</g>
<!-- n1&#45;&gt;n3 -->
<g id="edge2" class="edge">
<title>n1&#45;&gt;n3</title>
<path fill="none" stroke="black" d="M755.65,-365.81C728.54,-344.96 682.72,-309.71 652.42,-286.4"/>
<polygon fill="black" stroke="black" points="654.37,-283.48 644.31,-280.16 650.1,-289.03 654.37,-283.48"/>
</g>
<!-- n4 -->
<g id="node4" class="node">
<title>n4</title>
<polygon fill="#fffdd0" stroke="black" points="1037,-280 833,-280 833,-244 1037,-244 1037,-280"/>
<text text-anchor="middle" x="935" y="-258.3" font-family="Arial" font-size="14.00">Children speaking and listening</text>
</g>
<!-- n1&#45;&gt;n4 -->
<g id="edge3" class="edge">
<title>n1&#45;&gt;n4</title>
<path fill="none" stroke="black" d="M800.49,-365.81C827.78,-344.96 873.89,-309.71 904.39,-286.4"/>
<polygon fill="black" stroke="black" points="906.73,-289.01 912.55,-280.16 902.48,-283.45 906.73,-289.01"/>
</g>
<!-- n5 -->
<g id="node5" class="node">
<title>n5</title>
<polygon fill="#fffdd0" stroke="black" points="1277,-280 1095,-280 1095,-244 1277,-244 1277,-280"/>
<text text-anchor="middle" x="1186" y="-258.3" font-family="Arial" font-size="14.00">Wavy lines as sound waves</text>
</g>
<!-- n1&#45;&gt;n5 -->
<g id="edge4" class="edge">
<title>n1&#45;&gt;n5</title>
<path fill="none" stroke="black" d="M836.02,-365.93C910.5,-344.03 1039.5,-306.09 1118.3,-282.9"/>
<polygon fill="black" stroke="black" points="1119.58,-286.17 1128.2,-280.01 1117.62,-279.45 1119.58,-286.17"/>
</g>
<!-- n6 -->
<g id="node6" class="node">
<title>n6</title>
<path fill="palegreen" stroke="black" d="M278,-158C278,-158 12,-158 12,-158 6,-158 0,-152 0,-146 0,-146 0,-134 0,-134 0,-128 6,-122 12,-122 12,-122 278,-122 278,-122 284,-122 290,-128 290,-134 290,-134 290,-146 290,-146 290,-152 284,-158 278,-158"/>
<text text-anchor="middle" x="145" y="-136.3" font-family="Arial" font-size="14.00">Basic use of string telephone to communicate</text>
</g>
<!-- n2&#45;&gt;n6 -->
<g id="edge5" class="edge">
<title>n2&#45;&gt;n6</title>
<path fill="none" stroke="black" d="M250.38,-243.81C229.28,-223.22 193.8,-188.61 169.91,-165.3"/>
<polygon fill="black" stroke="black" points="172.19,-162.64 162.59,-158.16 167.3,-167.65 172.19,-162.64"/>
</g>
<!-- n7 -->
<g id="node7" class="node">
<title>n7</title>
<polygon fill="lightcoral" stroke="black" points="648,-158 348.21,-140 648,-122 947.79,-140 648,-158"/>
<text text-anchor="middle" x="648" y="-136.3" font-family="Arial" font-size="14.00">Misunderstanding of tension for sound transmission</text>
</g>
<!-- n3&#45;&gt;n7 -->
<g id="edge6" class="edge">
<title>n3&#45;&gt;n7</title>
<path fill="none" stroke="black" d="M625.73,-243.81C630.01,-224.02 637.1,-191.29 642.13,-168.08"/>
<polygon fill="black" stroke="black" points="645.58,-168.67 644.28,-158.16 638.74,-167.19 645.58,-168.67"/>
</g>
<!-- n8 -->
<g id="node8" class="node">
<title>n8</title>
<path fill="palegreen" stroke="black" d="M1254,-158C1254,-158 1068,-158 1068,-158 1062,-158 1056,-152 1056,-146 1056,-146 1056,-134 1056,-134 1056,-128 1062,-122 1068,-122 1068,-122 1254,-122 1254,-122 1260,-122 1266,-128 1266,-134 1266,-134 1266,-146 1266,-146 1266,-152 1260,-158 1254,-158"/>
<text text-anchor="middle" x="1161" y="-136.3" font-family="Arial" font-size="14.00">Attempt to show communication</text>
</g>
<!-- n4&#45;&gt;n8 -->
<g id="edge7" class="edge">
<title>n4&#45;&gt;n8</title>
<path fill="none" stroke="black" d="M967.38,-243.81C1007.5,-222.51 1075.9,-186.2 1119.7,-162.92"/>
<polygon fill="black" stroke="black" points="1121.5,-165.93 1128.7,-158.16 1118.22,-159.74 1121.5,-165.93"/>
</g>
<!-- n5&#45;&gt;n8 -->
<g id="edge8" class="edge">
<title>n5&#45;&gt;n8</title>
<path fill="none" stroke="black" d="M1182.4,-243.81C1178.3,-224.02 1171.5,-191.29 1166.6,-168.08"/>
<polygon fill="black" stroke="black" points="1170.01,-167.27 1164.6,-158.16 1163.15,-168.65 1170.01,-167.27"/>
</g>
<!-- n9 -->
<g id="node9" class="node">
<title>n9</title>
<polygon fill="#f28e8e" stroke="black" points="805,-36 491,-36 491,0 805,0 805,-36"/>
<text text-anchor="middle" x="648" y="-14.3" font-family="Arial" font-size="14.00">Feedback: Ensure string is tight to transmit sound</text>
</g>
<!-- n7&#45;&gt;n9 -->
<g id="edge9" class="edge">
<title>n7&#45;&gt;n9</title>
<path fill="none" stroke="black" d="M648,-121.81C648,-102.11 648,-69.58 648,-46.39"/>
<polygon fill="black" stroke="black" points="651.5,-46.16 648,-36.16 644.5,-46.16 651.5,-46.16"/>
</g>
</g>
</svg>
