<?xml version="1.0" encoding="UTF-8" standalone="no"?>
<!DOCTYPE svg PUBLIC "-//W3C//DTD SVG 1.1//EN"
 "http://www.w3.org/Graphics/SVG/1.1/DTD/svg11.dtd">
<!-- Generated by graphviz version 2.43.0 (0)
 -->
<!-- Pages: 1 -->
<svg width="1077pt" height="410pt"
 viewBox="0.00 0.00 1077.00 410.00" xmlns="http://www.w3.org/2000/svg" xmlns:xlink="http://www.w3.org/1999/xlink">
<g id="graph0" class="graph" transform="scale(1 1) rotate(0) translate(4 406)">
<polygon fill="white" stroke="transparent" points="-4,4 -4,-406 1073,-406 1073,4 -4,4"/>
<!-- n1 -->
<g id="node1" class="node">
<title>n1</title>
<polygon fill="lightblue" stroke="black" points="762.5,-384 651,-402 428,-402 316.5,-384 428,-366 651,-366 762.5,-384"/>
<text text-anchor="middle" x="539.5" y="-380.3" font-family="Arial" font-size="14.00">Draw a string telephone between two students.</text>
</g>
<!-- n2 -->
<g id="node2" class="node">
<title>n2</title>
<polygon fill="#fffdd0" stroke="black" points="257,-280 0,-280 0,-244 257,-244 257,-280"/>
<text text-anchor="middle" x="128.5" y="-258.3" font-family="Arial" font-size="14.00">Two cartoon&#45;style students holding cans</text>
</g>
<!-- n1&#45;&gt;n2 -->
<g id="edge1" class="edge">
<title>n1&#45;&gt;n2</title>
<path fill="none" stroke="black" d="M481.05,-365.93C406.03,-344.03 276.09,-306.09 196.66,-282.9"/>
<polygon fill="black" stroke="black" points="197.33,-279.45 186.75,-280.01 195.37,-286.17 197.33,-279.45"/>
</g>
<!-- n3 -->
<g id="node3" class="node">
<title>n3</title>
<polygon fill="#fffdd0" stroke="black" points="493.5,-280 317.5,-280 317.5,-244 493.5,-244 493.5,-280"/>
<text text-anchor="middle" x="405.5" y="-258.3" font-family="Arial" font-size="14.00">String connecting the cans</text>
</g>
<!-- n1&#45;&gt;n3 -->
<g id="edge2" class="edge">
<title>n1&#45;&gt;n3</title>
<path fill="none" stroke="black" d="M520.3,-365.81C497.22,-345.13 458.33,-310.31 432.3,-287"/>
<polygon fill="black" stroke="black" points="434.44,-284.22 424.66,-280.16 429.78,-289.44 434.44,-284.22"/>
</g>
<!-- n4 -->
<g id="node4" class="node">
<title>n4</title>
<polygon fill="#fffdd0" stroke="black" points="797,-280 552,-280 552,-244 797,-244 797,-280"/>
<text text-anchor="middle" x="674.5" y="-258.3" font-family="Arial" font-size="14.00">Arrows on string showing sound travel</text>
</g>
<!-- n1&#45;&gt;n4 -->
<g id="edge3" class="edge">
<title>n1&#45;&gt;n4</title>
<path fill="none" stroke="black" d="M558.84,-365.81C582.1,-345.13 621.27,-310.31 647.5,-287"/>
<polygon fill="black" stroke="black" points="650.04,-289.42 655.19,-280.16 645.39,-284.19 650.04,-289.42"/>
</g>
<!-- n5 -->
<g id="node5" class="node">
<title>n5</title>
<polygon fill="#fffdd0" stroke="black" points="1063.5,-280 855.5,-280 855.5,-244 1063.5,-244 1063.5,-280"/>
<text text-anchor="middle" x="959.5" y="-258.3" font-family="Arial" font-size="14.00">Labeled tin can on one end only</text>
</g>
<!-- n1&#45;&gt;n5 -->
<g id="edge4" class="edge">
<title>n1&#45;&gt;n5</title>
<path fill="none" stroke="black" d="M599.23,-365.93C676.05,-343.99 809.22,-305.94 890.35,-282.76"/>
<polygon fill="black" stroke="black" points="891.33,-286.12 899.98,-280.01 889.4,-279.39 891.33,-286.12"/>
</g>
<!-- n6 -->
<g id="node6" class="node">
<title>n6</title>
<path fill="palegreen" stroke="black" d="M209.5,-158C209.5,-158 39.5,-158 39.5,-158 33.5,-158 27.5,-152 27.5,-146 27.5,-146 27.5,-134 27.5,-134 27.5,-128 33.5,-122 39.5,-122 39.5,-122 209.5,-122 209.5,-122 215.5,-122 221.5,-128 221.5,-134 221.5,-134 221.5,-146 221.5,-146 221.5,-152 215.5,-158 209.5,-158"/>
<text text-anchor="middle" x="124.5" y="-136.3" font-family="Arial" font-size="14.00">Using device to communicate</text>
</g>
<!-- n2&#45;&gt;n6 -->
<g id="edge5" class="edge">
<title>n2&#45;&gt;n6</title>
<path fill="none" stroke="black" d="M127.93,-243.81C127.27,-224.11 126.19,-191.58 125.41,-168.39"/>
<polygon fill="black" stroke="black" points="128.9,-168.04 125.07,-158.16 121.9,-168.27 128.9,-168.04"/>
</g>
<!-- n7 -->
<g id="node7" class="node">
<title>n7</title>
<path fill="palegreen" stroke="black" d="M523.5,-158C523.5,-158 291.5,-158 291.5,-158 285.5,-158 279.5,-152 279.5,-146 279.5,-146 279.5,-134 279.5,-134 279.5,-128 285.5,-122 291.5,-122 291.5,-122 523.5,-122 523.5,-122 529.5,-122 535.5,-128 535.5,-134 535.5,-134 535.5,-146 535.5,-146 535.5,-152 529.5,-158 523.5,-158"/>
<text text-anchor="middle" x="407.5" y="-136.3" font-family="Arial" font-size="14.00">Shows how sound travels through string</text>
</g>
<!-- n3&#45;&gt;n7 -->
<g id="edge6" class="edge">
<title>n3&#45;&gt;n7</title>
<path fill="none" stroke="black" d="M405.79,-243.81C406.11,-224.11 406.66,-191.58 407.04,-168.39"/>
<polygon fill="black" stroke="black" points="410.54,-168.22 407.21,-158.16 403.54,-168.1 410.54,-168.22"/>
</g>
<!-- n8 -->
<g id="node8" class="node">
<title>n8</title>
<polygon fill="lightcoral" stroke="black" points="959.5,-158 857.45,-140 959.5,-122 1061.55,-140 959.5,-158"/>
<text text-anchor="middle" x="959.5" y="-136.3" font-family="Arial" font-size="14.00">Limited labeling</text>
</g>
<!-- n5&#45;&gt;n8 -->
<g id="edge7" class="edge">
<title>n5&#45;&gt;n8</title>
<path fill="none" stroke="black" d="M959.5,-243.81C959.5,-224.11 959.5,-191.58 959.5,-168.39"/>
<polygon fill="black" stroke="black" points="963,-168.16 959.5,-158.16 956,-168.16 963,-168.16"/>
</g>
<!-- n9 -->
<g id="node9" class="node">
<title>n9</title>
<polygon fill="#f28e8e" stroke="black" points="1069,-36 850,-36 850,0 1069,0 1069,-36"/>
<text text-anchor="middle" x="959.5" y="-14.3" font-family="Arial" font-size="14.00">Label both cans for completeness</text>
</g>
<!-- n8&#45;&gt;n9 -->
<g id="edge8" class="edge">
<title>n8&#45;&gt;n9</title>
<path fill="none" stroke="black" d="M959.5,-121.81C959.5,-102.11 959.5,-69.58 959.5,-46.39"/>
<polygon fill="black" stroke="black" points="963,-46.16 959.5,-36.16 956,-46.16 963,-46.16"/>
</g>
</g>
</svg>
