<?xml version="1.0" encoding="UTF-8" standalone="no"?>
<!DOCTYPE svg PUBLIC "-//W3C//DTD SVG 1.1//EN"
 "http://www.w3.org/Graphics/SVG/1.1/DTD/svg11.dtd">
<!-- Generated by graphviz version 2.43.0 (0)
 -->
<!-- Pages: 1 -->
<svg width="1113pt" height="410pt"
 viewBox="0.00 0.00 1112.50 410.00" xmlns="http://www.w3.org/2000/svg" xmlns:xlink="http://www.w3.org/1999/xlink">
<g id="graph0" class="graph" transform="scale(1 1) rotate(0) translate(4 406)">
<polygon fill="white" stroke="transparent" points="-4,4 -4,-406 1108.5,-406 1108.5,4 -4,4"/>
<!-- n1 -->
<g id="node1" class="node">
<title>n1</title>
<polygon fill="lightblue" stroke="black" points="639.5,-384 549.75,-402 370.25,-402 280.5,-384 370.25,-366 549.75,-366 639.5,-384"/>
<text text-anchor="middle" x="460" y="-380.3" font-family="Arial" font-size="14.00">Draw a fish in their habitat with labels</text>
</g>
<!-- n2 -->
<g id="node2" class="node">
<title>n2</title>
<polygon fill="#fffdd0" stroke="black" points="80,-280 0,-280 0,-244 80,-244 80,-280"/>
<text text-anchor="middle" x="40" y="-258.3" font-family="Arial" font-size="14.00">Yellow fish</text>
</g>
<!-- n1&#45;&gt;n2 -->
<g id="edge1" class="edge">
<title>n1&#45;&gt;n2</title>
<path fill="none" stroke="black" d="M400.27,-365.93C317.15,-342.19 168.07,-299.59 90.31,-277.37"/>
<polygon fill="black" stroke="black" points="90.85,-273.89 80.28,-274.51 88.93,-280.62 90.85,-273.89"/>
</g>
<!-- n3 -->
<g id="node3" class="node">
<title>n3</title>
<polygon fill="#fffdd0" stroke="black" points="446.5,-280 291.5,-280 291.5,-244 446.5,-244 446.5,-280"/>
<text text-anchor="middle" x="369" y="-258.3" font-family="Arial" font-size="14.00">Blue water background</text>
</g>
<!-- n1&#45;&gt;n3 -->
<g id="edge2" class="edge">
<title>n1&#45;&gt;n3</title>
<path fill="none" stroke="black" d="M446.96,-365.81C431.55,-345.49 405.79,-311.51 388.12,-288.21"/>
<polygon fill="black" stroke="black" points="390.84,-286.01 382.01,-280.16 385.27,-290.24 390.84,-286.01"/>
</g>
<!-- n4 -->
<g id="node4" class="node">
<title>n4</title>
<polygon fill="#fffdd0" stroke="black" points="599.5,-280 504.5,-280 504.5,-244 599.5,-244 599.5,-280"/>
<text text-anchor="middle" x="552" y="-258.3" font-family="Arial" font-size="14.00">Green plants</text>
</g>
<!-- n1&#45;&gt;n4 -->
<g id="edge3" class="edge">
<title>n1&#45;&gt;n4</title>
<path fill="none" stroke="black" d="M473.18,-365.81C488.76,-345.49 514.81,-311.51 532.67,-288.21"/>
<polygon fill="black" stroke="black" points="535.53,-290.23 538.84,-280.16 529.98,-285.97 535.53,-290.23"/>
</g>
<!-- n5 -->
<g id="node5" class="node">
<title>n5</title>
<polygon fill="#fffdd0" stroke="black" points="233.5,-280 138.5,-280 138.5,-244 233.5,-244 233.5,-280"/>
<text text-anchor="middle" x="186" y="-258.3" font-family="Arial" font-size="14.00">Labeled &#39;fish&#39;</text>
</g>
<!-- n1&#45;&gt;n5 -->
<g id="edge4" class="edge">
<title>n1&#45;&gt;n5</title>
<path fill="none" stroke="black" d="M421.03,-365.93C371.83,-344.39 287.21,-307.32 234.05,-284.04"/>
<polygon fill="black" stroke="black" points="235.39,-280.81 224.83,-280.01 232.59,-287.22 235.39,-280.81"/>
</g>
<!-- n6 -->
<g id="node6" class="node">
<title>n6</title>
<polygon fill="#fffdd0" stroke="black" points="764.5,-280 657.5,-280 657.5,-244 764.5,-244 764.5,-280"/>
<text text-anchor="middle" x="711" y="-258.3" font-family="Arial" font-size="14.00">Labeled &#39;water&#39;</text>
</g>
<!-- n1&#45;&gt;n6 -->
<g id="edge5" class="edge">
<title>n1&#45;&gt;n6</title>
<path fill="none" stroke="black" d="M495.7,-365.93C540.58,-344.48 617.65,-307.63 666.38,-284.33"/>
<polygon fill="black" stroke="black" points="667.91,-287.48 675.43,-280.01 664.9,-281.16 667.91,-287.48"/>
</g>
<!-- n7 -->
<g id="node7" class="node">
<title>n7</title>
<polygon fill="#fffdd0" stroke="black" points="933,-280 823,-280 823,-244 933,-244 933,-280"/>
<text text-anchor="middle" x="878" y="-258.3" font-family="Arial" font-size="14.00">Labeled &#39;plants&#39;</text>
</g>
<!-- n1&#45;&gt;n7 -->
<g id="edge6" class="edge">
<title>n1&#45;&gt;n7</title>
<path fill="none" stroke="black" d="M519.45,-365.93C597.04,-343.66 732.4,-304.8 812.76,-281.73"/>
<polygon fill="black" stroke="black" points="814.11,-284.98 822.76,-278.86 812.18,-278.25 814.11,-284.98"/>
</g>
<!-- n8 -->
<g id="node8" class="node">
<title>n8</title>
<path fill="palegreen" stroke="black" d="M135.5,-158C135.5,-158 42.5,-158 42.5,-158 36.5,-158 30.5,-152 30.5,-146 30.5,-146 30.5,-134 30.5,-134 30.5,-128 36.5,-122 42.5,-122 42.5,-122 135.5,-122 135.5,-122 141.5,-122 147.5,-128 147.5,-134 147.5,-134 147.5,-146 147.5,-146 147.5,-152 141.5,-158 135.5,-158"/>
<text text-anchor="middle" x="89" y="-136.3" font-family="Arial" font-size="14.00">Fish live in water</text>
</g>
<!-- n2&#45;&gt;n8 -->
<g id="edge7" class="edge">
<title>n2&#45;&gt;n8</title>
<path fill="none" stroke="black" d="M47.02,-243.81C55.17,-223.85 68.71,-190.7 78.2,-167.45"/>
<polygon fill="black" stroke="black" points="81.45,-168.74 81.99,-158.16 74.97,-166.09 81.45,-168.74"/>
</g>
<!-- n9 -->
<g id="node9" class="node">
<title>n9</title>
<path fill="palegreen" stroke="black" d="M446.5,-158C446.5,-158 241.5,-158 241.5,-158 235.5,-158 229.5,-152 229.5,-146 229.5,-146 229.5,-134 229.5,-134 229.5,-128 235.5,-122 241.5,-122 241.5,-122 446.5,-122 446.5,-122 452.5,-122 458.5,-128 458.5,-134 458.5,-134 458.5,-146 458.5,-146 458.5,-152 452.5,-158 446.5,-158"/>
<text text-anchor="middle" x="344" y="-136.3" font-family="Arial" font-size="14.00">Fish and plants are part of a habitat</text>
</g>
<!-- n3&#45;&gt;n9 -->
<g id="edge8" class="edge">
<title>n3&#45;&gt;n9</title>
<path fill="none" stroke="black" d="M365.42,-243.81C361.3,-224.02 354.48,-191.29 349.64,-168.08"/>
<polygon fill="black" stroke="black" points="353.04,-167.24 347.58,-158.16 346.19,-168.66 353.04,-167.24"/>
</g>
<!-- n4&#45;&gt;n9 -->
<g id="edge9" class="edge">
<title>n4&#45;&gt;n9</title>
<path fill="none" stroke="black" d="M522.2,-243.81C485.44,-222.6 422.87,-186.5 382.5,-163.21"/>
<polygon fill="black" stroke="black" points="384.16,-160.13 373.75,-158.16 380.66,-166.19 384.16,-160.13"/>
</g>
<!-- n11 -->
<g id="node10" class="node">
<title>n11</title>
<polygon fill="lightcoral" stroke="black" points="698,-158 516.85,-140 698,-122 879.15,-140 698,-158"/>
<text text-anchor="middle" x="698" y="-136.3" font-family="Arial" font-size="14.00">Relationship is not fully shown</text>
</g>
<!-- n4&#45;&gt;n11 -->
<g id="edge10" class="edge">
<title>n4&#45;&gt;n11</title>
<path fill="none" stroke="black" d="M572.92,-243.81C598.9,-222.45 643.24,-186.01 671.55,-162.74"/>
<polygon fill="black" stroke="black" points="673.93,-165.31 679.43,-156.26 669.48,-159.91 673.93,-165.31"/>
</g>
<!-- n5&#45;&gt;n8 -->
<g id="edge11" class="edge">
<title>n5&#45;&gt;n8</title>
<path fill="none" stroke="black" d="M172.1,-243.81C155.68,-223.49 128.21,-189.51 109.38,-166.21"/>
<polygon fill="black" stroke="black" points="111.88,-163.73 102.87,-158.16 106.44,-168.14 111.88,-163.73"/>
</g>
<!-- n10 -->
<g id="node11" class="node">
<title>n10</title>
<path fill="palegreen" stroke="black" d="M1092.5,-158C1092.5,-158 949.5,-158 949.5,-158 943.5,-158 937.5,-152 937.5,-146 937.5,-146 937.5,-134 937.5,-134 937.5,-128 943.5,-122 949.5,-122 949.5,-122 1092.5,-122 1092.5,-122 1098.5,-122 1104.5,-128 1104.5,-134 1104.5,-134 1104.5,-146 1104.5,-146 1104.5,-152 1098.5,-158 1092.5,-158"/>
<text text-anchor="middle" x="1021" y="-136.3" font-family="Arial" font-size="14.00">Water is essential for fish</text>
</g>
<!-- n6&#45;&gt;n10 -->
<g id="edge12" class="edge">
<title>n6&#45;&gt;n10</title>
<path fill="none" stroke="black" d="M755.09,-243.93C810.98,-222.3 907.29,-185.02 967.38,-161.76"/>
<polygon fill="black" stroke="black" points="969.01,-164.88 977.07,-158.01 966.48,-158.36 969.01,-164.88"/>
</g>
<!-- n12 -->
<g id="node12" class="node">
<title>n12</title>
<polygon fill="#f28e8e" stroke="black" points="834,-36 562,-36 562,0 834,0 834,-36"/>
<text text-anchor="middle" x="698" y="-14.3" font-family="Arial" font-size="14.00">Explain interaction between fish and plants</text>
</g>
<!-- n11&#45;&gt;n12 -->
<g id="edge13" class="edge">
<title>n11&#45;&gt;n12</title>
<path fill="none" stroke="black" d="M698,-121.81C698,-102.11 698,-69.58 698,-46.39"/>
<polygon fill="black" stroke="black" points="701.5,-46.16 698,-36.16 694.5,-46.16 701.5,-46.16"/>
</g>
</g>
</svg>
