<?xml version="1.0" encoding="UTF-8" standalone="no"?>
<!DOCTYPE svg PUBLIC "-//W3C//DTD SVG 1.1//EN"
 "http://www.w3.org/Graphics/SVG/1.1/DTD/svg11.dtd">
<!-- Generated by graphviz version 2.43.0 (0)
 -->
<!-- Pages: 1 -->
<svg width="1385pt" height="410pt"
 viewBox="0.00 0.00 1384.50 410.00" xmlns="http://www.w3.org/2000/svg" xmlns:xlink="http://www.w3.org/1999/xlink">
<g id="graph0" class="graph" transform="scale(1 1) rotate(0) translate(4 406)">
<polygon fill="white" stroke="transparent" points="-4,4 -4,-406 1380.5,-406 1380.5,4 -4,4"/>
<!-- n1 -->
<g id="node1" class="node">
<title>n1</title>
<polygon fill="lightblue" stroke="black" points="1184.37,-384 1041.69,-402 756.31,-402 613.63,-384 756.31,-366 1041.69,-366 1184.37,-384"/>
<text text-anchor="middle" x="899" y="-380.3" font-family="Arial" font-size="14.00">Draw animals in their habitats with labels (e.g., fish in water).</text>
</g>
<!-- n2 -->
<g id="node2" class="node">
<title>n2</title>
<polygon fill="#fffdd0" stroke="black" points="516.5,-280 363.5,-280 363.5,-244 516.5,-244 516.5,-280"/>
<text text-anchor="middle" x="440" y="-258.3" font-family="Arial" font-size="14.00">Forest scene with deer</text>
</g>
<!-- n1&#45;&gt;n2 -->
<g id="edge1" class="edge">
<title>n1&#45;&gt;n2</title>
<path fill="none" stroke="black" d="M833.72,-365.93C749.51,-343.92 603.35,-305.71 514.76,-282.55"/>
<polygon fill="black" stroke="black" points="515.61,-279.15 505.05,-280.01 513.84,-285.93 515.61,-279.15"/>
</g>
<!-- n3 -->
<g id="node3" class="node">
<title>n3</title>
<polygon fill="#fffdd0" stroke="black" points="872,-280 732,-280 732,-244 872,-244 872,-280"/>
<text text-anchor="middle" x="802" y="-258.3" font-family="Arial" font-size="14.00">Pond with fish inside</text>
</g>
<!-- n1&#45;&gt;n3 -->
<g id="edge2" class="edge">
<title>n1&#45;&gt;n3</title>
<path fill="none" stroke="black" d="M885.1,-365.81C868.68,-345.49 841.21,-311.51 822.38,-288.21"/>
<polygon fill="black" stroke="black" points="824.88,-285.73 815.87,-280.16 819.44,-290.14 824.88,-285.73"/>
</g>
<!-- n4 -->
<g id="node4" class="node">
<title>n4</title>
<polygon fill="#fffdd0" stroke="black" points="1085.5,-280 954.5,-280 954.5,-244 1085.5,-244 1085.5,-280"/>
<text text-anchor="middle" x="1020" y="-258.3" font-family="Arial" font-size="14.00">Bird flying in the air</text>
</g>
<!-- n1&#45;&gt;n4 -->
<g id="edge3" class="edge">
<title>n1&#45;&gt;n4</title>
<path fill="none" stroke="black" d="M916.34,-365.81C937.09,-345.22 971.99,-310.61 995.5,-287.3"/>
<polygon fill="black" stroke="black" points="998.06,-289.69 1002.7,-280.16 993.13,-284.72 998.06,-289.69"/>
</g>
<!-- n5 -->
<g id="node5" class="node">
<title>n5</title>
<polygon fill="#fffdd0" stroke="black" points="1324,-280 1184,-280 1184,-244 1324,-244 1324,-280"/>
<text text-anchor="middle" x="1254" y="-258.3" font-family="Arial" font-size="14.00">Worm on the ground</text>
</g>
<!-- n1&#45;&gt;n5 -->
<g id="edge4" class="edge">
<title>n1&#45;&gt;n5</title>
<path fill="none" stroke="black" d="M949.49,-365.93C1013.9,-344.16 1125.1,-306.56 1193.9,-283.33"/>
<polygon fill="black" stroke="black" points="1195.35,-286.53 1203.7,-280.01 1193.11,-279.9 1195.35,-286.53"/>
</g>
<!-- n6 -->
<g id="node6" class="node">
<title>n6</title>
<path fill="palegreen" stroke="black" d="M164,-158C164,-158 12,-158 12,-158 6,-158 0,-152 0,-146 0,-146 0,-134 0,-134 0,-128 6,-122 12,-122 12,-122 164,-122 164,-122 170,-122 176,-128 176,-134 176,-134 176,-146 176,-146 176,-152 170,-158 164,-158"/>
<text text-anchor="middle" x="88" y="-136.3" font-family="Arial" font-size="14.00">Deer living in forest habitat</text>
</g>
<!-- n2&#45;&gt;n6 -->
<g id="edge5" class="edge">
<title>n2&#45;&gt;n6</title>
<path fill="none" stroke="black" d="M389.94,-243.93C326.08,-222.16 215.76,-184.56 147.62,-161.33"/>
<polygon fill="black" stroke="black" points="148.48,-157.93 137.89,-158.01 146.22,-164.55 148.48,-157.93"/>
</g>
<!-- n10 -->
<g id="node7" class="node">
<title>n10</title>
<polygon fill="lightcoral" stroke="black" points="440,-158 234,-140 440,-122 646,-140 440,-158"/>
<text text-anchor="middle" x="440" y="-136.3" font-family="Arial" font-size="14.00">Sunlight needed for tree is missing</text>
</g>
<!-- n2&#45;&gt;n10 -->
<g id="edge6" class="edge">
<title>n2&#45;&gt;n10</title>
<path fill="none" stroke="black" d="M440,-243.81C440,-224.11 440,-191.58 440,-168.39"/>
<polygon fill="black" stroke="black" points="443.5,-168.16 440,-158.16 436.5,-168.16 443.5,-168.16"/>
</g>
<!-- n7 -->
<g id="node8" class="node">
<title>n7</title>
<path fill="palegreen" stroke="black" d="M864,-158C864,-158 716,-158 716,-158 710,-158 704,-152 704,-146 704,-146 704,-134 704,-134 704,-128 710,-122 716,-122 716,-122 864,-122 864,-122 870,-122 876,-128 876,-134 876,-134 876,-146 876,-146 876,-152 870,-158 864,-158"/>
<text text-anchor="middle" x="790" y="-136.3" font-family="Arial" font-size="14.00">Fish living in water habitat</text>
</g>
<!-- n3&#45;&gt;n7 -->
<g id="edge7" class="edge">
<title>n3&#45;&gt;n7</title>
<path fill="none" stroke="black" d="M800.28,-243.81C798.31,-224.11 795.06,-191.58 792.74,-168.39"/>
<polygon fill="black" stroke="black" points="796.19,-167.76 791.72,-158.16 789.23,-168.46 796.19,-167.76"/>
</g>
<!-- n8 -->
<g id="node9" class="node">
<title>n8</title>
<path fill="palegreen" stroke="black" d="M1117.5,-158C1117.5,-158 946.5,-158 946.5,-158 940.5,-158 934.5,-152 934.5,-146 934.5,-146 934.5,-134 934.5,-134 934.5,-128 940.5,-122 946.5,-122 946.5,-122 1117.5,-122 1117.5,-122 1123.5,-122 1129.5,-128 1129.5,-134 1129.5,-134 1129.5,-146 1129.5,-146 1129.5,-152 1123.5,-158 1117.5,-158"/>
<text text-anchor="middle" x="1032" y="-136.3" font-family="Arial" font-size="14.00">Bird in air as part of its habitat</text>
</g>
<!-- n4&#45;&gt;n8 -->
<g id="edge8" class="edge">
<title>n4&#45;&gt;n8</title>
<path fill="none" stroke="black" d="M1021.7,-243.81C1023.7,-224.11 1026.9,-191.58 1029.3,-168.39"/>
<polygon fill="black" stroke="black" points="1032.81,-168.45 1030.3,-158.16 1025.84,-167.77 1032.81,-168.45"/>
</g>
<!-- n9 -->
<g id="node10" class="node">
<title>n9</title>
<path fill="palegreen" stroke="black" d="M1364.5,-158C1364.5,-158 1199.5,-158 1199.5,-158 1193.5,-158 1187.5,-152 1187.5,-146 1187.5,-146 1187.5,-134 1187.5,-134 1187.5,-128 1193.5,-122 1199.5,-122 1199.5,-122 1364.5,-122 1364.5,-122 1370.5,-122 1376.5,-128 1376.5,-134 1376.5,-134 1376.5,-146 1376.5,-146 1376.5,-152 1370.5,-158 1364.5,-158"/>
<text text-anchor="middle" x="1282" y="-136.3" font-family="Arial" font-size="14.00">Interaction: Bird eating worm</text>
</g>
<!-- n5&#45;&gt;n9 -->
<g id="edge9" class="edge">
<title>n5&#45;&gt;n9</title>
<path fill="none" stroke="black" d="M1258,-243.81C1262.6,-224.02 1270.3,-191.29 1275.7,-168.08"/>
<polygon fill="black" stroke="black" points="1279.15,-168.69 1278,-158.16 1272.33,-167.11 1279.15,-168.69"/>
</g>
<!-- n11 -->
<g id="node11" class="node">
<title>n11</title>
<polygon fill="#f28e8e" stroke="black" points="639,-36 241,-36 241,0 639,0 639,-36"/>
<text text-anchor="middle" x="440" y="-14.3" font-family="Arial" font-size="14.00">Consider showing sunlight as a resource plants need to survive.</text>
</g>
<!-- n10&#45;&gt;n11 -->
<g id="edge10" class="edge">
<title>n10&#45;&gt;n11</title>
<path fill="none" stroke="black" d="M440,-121.81C440,-102.11 440,-69.58 440,-46.39"/>
<polygon fill="black" stroke="black" points="443.5,-46.16 440,-36.16 436.5,-46.16 443.5,-46.16"/>
</g>
</g>
</svg>
